v -0.170532 -0.2834439999999999 0.734971
v 0.928842 -0.28344499999999995 0.749931
v -0.043787 -0.2834439999999999 0.474774
v 0.854954 -0.2834439999999999 0.544865
v 0.933091 -0.834951 0.660327
v 0.930316 -0.3290989999999999 0.548787
v -0.170532 -0.31007599999999996 0.516276
v -0.170532 -0.816954 0.516276
v -0.595876 0.519003 0.811275
v -0.300098 0.518911 0.642245
v -0.899605 0.519369 0.64865
v -0.362172 -0.713264 0.705869
v -0.649288 -0.713264 0.842987
v -0.929428 -0.713264 0.646814
v -0.043787 -0.881067 0.47477400000000003
v 0.854954 -0.881067 0.544865
v 0.93297 -0.883173 0.82688
v -0.170532 -0.88212 0.734971
v 0.928842 -0.28344499999999995 0.749931
v 0.93297 -0.883173 0.82688
v -0.170532 -0.88212 0.734971
v -0.170532 -0.2834439999999999 0.734971
v 0.93297 -0.883173 0.82688
v -0.170532 -0.88212 0.734971
v 0.928842 -0.28344499999999995 0.749931
v -0.170532 -0.2834439999999999 0.734971
v 0.928842 -0.28344499999999995 0.749931
vt 0.048596 0.417497
vt 0.440482 0.417497
vt 0.071318 0.460575
vt 0.426739 0.460575
vt 0.474036 0.299140
vt 0.474036 0.417497
vt 0.009349 0.417497
vt 0.009349 0.299140
vt 0.840101 0.790657
vt 0.892454 0.791309
vt 0.789535 0.790657
vt 0.892454 0.588262
vt 0.838984 0.588262
vt 0.788418 0.588262
vt 0.071318 0.460575
vt 0.426739 0.460575
vt 0.440482 0.299140
vt 0.048596 0.299140
vt 0.440482 0.417497
vt 0.440482 0.299140
vt 0.048596 0.299140
vt 0.048596 0.417497
vt 0.440482 0.417497
vt 0.048596 0.417497
vt 0.440482 0.417497
vt 0.048596 0.417497
vt 0.440482 0.417497
vn -0.009621 0.707106 0.707042
vn -0.032898 0.729979 0.682678
vn 0 1 2.9999999999387676E-06
vn -0 1 4.999999999938768E-06
vn 0.999966 0.007004 0.004307
vn 0.99996 0.006763 0.00579
vn -1 0 0
vn -1 0 0
vn 0.169265 0.025077000000000058 0.985252
vn 0.496076 0.019831000000000053 0.868052
vn -0.523547 0.027934000000000053 0.851538
vn 0.463838 0.012196000000000054 0.885836
vn -0.229647 0.02254900000000006 0.973013
vn -0.573564 0.01265700000000005 0.819063
vn 1E-06 -0.999982 -0.005982999999999938
vn 0.000595 -0.999971 -0.007629999999999938
vn -0.038881 -0.8861 0.46186000000000005
vn -0.044429 -0.40260699999999994 0.914294
vn 0.999966 0.007004 0.004307
vn 0.99997 0.007245 0.0028239999999999997
vn -1 0 0
vn -1 0 -0
vn -0.038881 -0.8861 0.46186000000000005
vn -0.044429 -0.40260699999999994 0.914294
vn -0.032898 0.729979 0.682678
vn -0.009621 0.707106 0.707042
vn -0.032898 0.729979 0.682678
g bazaar
f 23/23/23 24/24/24 15/15/15
f 15/15/15 16/16/16 23/23/23
f 11/11/11 14/14/14 13/13/13
f 13/13/13 9/9/9 11/11/11
f 9/9/9 13/13/13 12/12/12
f 12/12/12 10/10/10 9/9/9
f 21/21/21 22/22/22 7/7/7
f 7/7/7 8/8/8 21/21/21
f 19/19/19 20/20/20 5/5/5
f 5/5/5 6/6/6 19/19/19
f 27/27/27 4/4/4 3/3/3
f 3/3/3 26/26/26 25/25/25
f 2/2/2 1/1/1 18/18/18
f 18/18/18 17/17/17 2/2/2
