v 0.316061 -0.088831 0.063995
v 0.079502 -0.090134 0.064161
v 0.079729 0.03394700000000001 0.186834
v 0.313549 0.036829000000000015 0.187323
v 0.40208 0.843308 0.0006189999999999484
v 0.374662 0.842002 0.0013539999999999483
v 0.391903 0.821336 0.898112
v 0.417735 0.818922 0.900803
v 0.433768 0.597494 0.0002739999999999634
v 0.403785 0.583757 0.00021899999999996426
v 0.394307 0.5884210000000001 0.963114
v 0.425392 0.6014540000000002 0.965548
v -0.309769 0.05467900000000001 0.21424
v -0.308933 0.245795 0.21874999999999997
v 0.302215 0.245093 0.22417599999999996
v 0.293698 0.060150000000000016 0.216078
v 0.223057 0.213052 0.024832999999999987
v 0.266835 0.20744 0.024888999999999988
v 0.264348 0.207131 0.200112
v 0.221364 0.212857 0.199603
v 0.242105 0.188307 0.024906999999999988
v 0.239675 0.188044 0.200284
v -0.137974 0.184679 0.02441399999999999
v -0.165688 0.199183 0.024457999999999987
v -0.162801 0.202012 0.196164
v -0.1351 0.187413 0.195763
v -0.151199 0.226891 0.024475999999999987
v -0.148346 0.229654 0.19633599999999998
v -0.133407 0.12273300000000001 0.192882
v -0.169953 0.09848100000000001 0.193209
v -0.172024 0.09565 0.024134999999999993
v -0.135295 0.120224 0.024098999999999992
v -0.139255 0.09230500000000001 0.192808
v -0.141341 0.089569 0.024090999999999994
v 0.264287 0.10304600000000001 0.194951
v 0.222152 0.11219500000000002 0.194352
v 0.218141 0.112191 0.024259999999999993
v 0.261298 0.103069 0.024324999999999992
v 0.238402 0.08598600000000002 0.195033
v 0.235133 0.085989 0.024333999999999995
v 0.318787 -0.043834 0.019218000000000002
v 0.316275 0.08182500000000001 0.142547
v 0.080539 0.08024900000000001 0.141892
v 0.080311 -0.043832 0.019218000000000002
v 0.079502 -0.090134 0.064161
v 0.316061 -0.088831 0.063995
v 0.079729 0.03394700000000001 0.186834
v 0.313549 0.036829000000000015 0.187323
v 0.384676 0.313433 -0.00048300000000001917
v 0.414639 0.327183 -0.00043700000000002005
v 0.378877 0.34544900000000006 0.805678
v 0.348699 0.33183700000000005 0.803886
v 0.414546 0.299725 -0.0005230000000000184
v 0.375255 0.31982000000000005 0.802325
v -0.408213 0.259904 -0.002534000000000016
v -0.438112 0.273631 -0.002507000000000017
v -0.436838 0.2733590000000001 0.784556
v -0.409072 0.26058900000000007 0.783558
v 0.391903 0.821336 0.898112
v 0.374662 0.842002 0.0013539999999999483
v 0.40208 0.843308 0.0006189999999999484
v 0.417735 0.818922 0.900803
v 0.394307 0.5884210000000001 0.963114
v 0.403785 0.583757 0.00021899999999996426
v 0.433768 0.597494 0.0002739999999999634
v 0.425392 0.6014540000000002 0.965548
v 0.378877 0.34544900000000006 0.805678
v 0.414639 0.327183 -0.00043700000000002005
v 0.384676 0.313433 -0.00048300000000001917
v 0.348699 0.33183700000000005 0.803886
v 0.414546 0.299725 -0.0005230000000000184
v 0.375255 0.31982000000000005 0.802325
v -0.449153 0.844921 -0.0017680000000000519
v -0.41632 0.846243 -0.0033900000000000514
v -0.398594 0.842972 0.842197
v -0.429144 0.841764 0.842732
v -0.406976 0.561059 0.0002739999999999656
v -0.436959 0.547322 0.0002189999999999665
v -0.446437 0.5519870000000001 0.963114
v -0.415352 0.5650190000000002 0.965548
v -0.446437 0.5519870000000001 0.963114
v -0.436959 0.547322 0.0002189999999999665
v -0.406976 0.561059 0.0002739999999999656
v -0.415352 0.5650190000000002 0.965548
v 0.023056 -0.148469 0.003982000000000009
v 0.023056 0.08289900000000001 0.23535
v -0.153913 0.08289900000000001 0.23535
v -0.153913 -0.148469 0.003982000000000009
v 0.023056 -0.200049 0.055562000000000014
v -0.153913 -0.200049 0.055562000000000014
v -0.153913 0.03131900000000002 0.28693
v 0.023056 0.03131900000000002 0.28693
v -0.153913 -0.200049 0.055562000000000014
v 0.023056 -0.200049 0.055562000000000014
v -0.153913 0.03131900000000002 0.28693
v 0.023056 0.03131900000000002 0.28693
v -0.483532 0.86508 0.48338099999999995
v 0.477588 0.84181 0.48338099999999995
v 0.477588 0.84181 0.4248469999999999
v -0.483532 0.86508 0.4248469999999999
v -0.483532 0.86508 0.48338099999999995
v -0.483532 0.86508 0.4248469999999999
v 0.477588 0.841809 0.4248469999999999
v 0.477588 0.841809 0.48338099999999995
v -0.407513 0.844914 0.41639199999999993
v -0.407513 0.844914 0.12068299999999994
v 0.389387 0.840066 0.12068299999999994
v 0.389385 0.840101 0.41639199999999993
v -0.407496 0.84452 0.41639199999999993
v 0.273913 0.09707300000000002 0.304935
v -0.054052 0.09616700000000002 0.303987
v -0.054706 0.285514 0.305619
v 0.270646 0.28835 0.3084
v 0.275797 0.08648100000000002 0.216401
v 0.27253 0.277757 0.21986699999999998
v -0.054349 0.275827 0.21803399999999998
v -0.053695 0.08648200000000002 0.2164
v -0.054052 0.09616700000000002 0.303987
v 0.273913 0.09707300000000002 0.304935
v -0.054706 0.285514 0.305619
v 0.270646 0.28835 0.3084
v -0.309769 0.05467900000000001 0.21424
v 0.302215 0.245093 0.22417599999999996
v 0.264348 0.207131 0.200112
v 0.266835 0.20744 0.024888999999999988
v -0.162801 0.202012 0.196164
v -0.165688 0.199183 0.024457999999999987
v -0.172024 0.09565 0.024134999999999993
v -0.169953 0.09848100000000001 0.193209
v 0.261298 0.103069 0.024324999999999992
v 0.264287 0.10304600000000001 0.194951
v 0.318787 -0.043834 0.019218000000000002
v 0.080311 -0.043832 0.019218000000000002
v 0.079502 -0.090134 0.064161
v 0.080311 -0.043832 0.019218000000000002
v 0.080539 0.08024900000000001 0.141892
v 0.079729 0.03394700000000001 0.186834
v 0.080539 0.08024900000000001 0.141892
v 0.316275 0.08182500000000001 0.142547
v 0.316061 -0.088831 0.063995
v 0.313549 0.036829000000000015 0.187323
v 0.316275 0.08182500000000001 0.142547
v 0.318787 -0.043834 0.019218000000000002
v 0.023056 -0.148469 0.003982000000000009
v -0.153913 -0.148469 0.003982000000000009
v -0.153913 -0.200049 0.055562000000000014
v -0.153913 -0.148469 0.003982000000000009
v -0.153913 0.08289900000000001 0.23535
v -0.153913 0.03131900000000002 0.28693
v -0.153913 0.08289900000000001 0.23535
v 0.023056 0.08289900000000001 0.23535
v 0.023056 -0.200049 0.055562000000000014
v 0.023056 0.03131900000000002 0.28693
v 0.023056 0.08289900000000001 0.23535
v 0.023056 -0.148469 0.003982000000000009
v -0.407513 0.844914 0.12068299999999994
v 0.389385 0.840101 0.41639199999999993
v 0.389385 0.840101 0.41639199999999993
v 0.389387 0.840066 0.12068299999999994
v -0.407513 0.844914 0.12068299999999994
v 0.275797 0.08648100000000002 0.216401
v -0.053695 0.08648200000000002 0.2164
v -0.054052 0.09616700000000002 0.303987
v -0.053695 0.08648200000000002 0.2164
v -0.054349 0.275827 0.21803399999999998
v -0.054706 0.285514 0.305619
v -0.054349 0.275827 0.21803399999999998
v 0.27253 0.277757 0.21986699999999998
v 0.273913 0.09707300000000002 0.304935
v 0.270646 0.28835 0.3084
v 0.27253 0.277757 0.21986699999999998
v 0.275797 0.08648100000000002 0.216401
v 0.348699 0.33183700000000005 0.803886
v 0.384676 0.313433 -0.00048300000000001917
v 0.348699 0.33183700000000005 0.803886
v 0.348699 0.33183700000000005 0.803886
v 0.348699 0.33183700000000005 0.803886
v 0.384676 0.313433 -0.00048300000000001917
vt 0.197377 0.294149
vt 0.294076 0.293221
vt 0.293451 0.221261
vt 0.196726 0.222178
vt 0.940916 0.235735
vt 0.934762 0.235735
vt 0.934762 0.387048
vt 0.940916 0.387048
vt 0.940916 0.235735
vt 0.947142 0.235735
vt 0.947142 0.387048
vt 0.940916 0.387048
vt 0.665672 0.676856
vt 0.665769 0.603905
vt 0.485955 0.603854
vt 0.485955 0.676649
vt 0.574139 0.591823
vt 0.583816 0.591823
vt 0.583816 0.553705
vt 0.574139 0.553705
vt 0.590659 0.591823
vt 0.590659 0.553705
vt 0.583816 0.591823
vt 0.590659 0.591823
vt 0.590659 0.553705
vt 0.583816 0.553705
vt 0.597502 0.591823
vt 0.597502 0.553705
vt 0.574139 0.553705
vt 0.583816 0.553705
vt 0.583816 0.591823
vt 0.574139 0.591823
vt 0.590659 0.553705
vt 0.590659 0.591823
vt 0.583816 0.553705
vt 0.574139 0.553705
vt 0.574139 0.591823
vt 0.583816 0.591823
vt 0.590659 0.553705
vt 0.590659 0.591823
vt 0.458542 0.147578
vt 0.458542 0.184010
vt 0.507207 0.184010
vt 0.507207 0.147578
vt 0.912105 0.820015
vt 0.912105 0.919062
vt 0.912105 0.747151
vt 0.912105 0.648112
vt 0.947142 0.235735
vt 0.940916 0.235735
vt 0.940916 0.387048
vt 0.947142 0.387048
vt 0.953309 0.235735
vt 0.953309 0.387048
vt 0.952664 0.235734
vt 0.947787 0.235693
vt 0.947751 0.387075
vt 0.952696 0.387087
vt 0.934762 0.387048
vt 0.934762 0.235735
vt 0.940916 0.235735
vt 0.940916 0.387048
vt 0.947142 0.387048
vt 0.947142 0.235735
vt 0.940916 0.235735
vt 0.940916 0.387048
vt 0.940916 0.387048
vt 0.940916 0.235735
vt 0.947142 0.235735
vt 0.947142 0.387048
vt 0.953309 0.235735
vt 0.953309 0.387048
vt 0.952664 0.235734
vt 0.947787 0.235693
vt 0.947751 0.387075
vt 0.952696 0.387087
vt 0.940916 0.235735
vt 0.947142 0.235735
vt 0.947142 0.387048
vt 0.940916 0.387048
vt 0.947142 0.387048
vt 0.947142 0.235735
vt 0.940916 0.235735
vt 0.940916 0.387048
vt 0.417153 0.167326
vt 0.452948 0.167326
vt 0.452948 0.147621
vt 0.417153 0.147621
vt 0.780910 0.470491
vt 0.817142 0.470003
vt 0.815354 0.398083
vt 0.778378 0.398948
vt 0.913662 0.164585
vt 0.913662 0.203998
vt 0.913662 0.091720
vt 0.913662 0.276869
vt 0.596944 0.705204
vt 0.596944 0.813998
vt 0.601955 0.813998
vt 0.601955 0.705204
vt 0.596944 0.705204
vt 0.601955 0.705204
vt 0.601955 0.813998
vt 0.596944 0.813998
vt 0.464765 0.405344
vt 0.464765 0.478485
vt 0.576330 0.478485
vt 0.576330 0.405344
vt 0.690117 0.405344
vt 0.004972 0.292412
vt 0.101650 0.293263
vt 0.102300 0.221261
vt 0.005592 0.220396
vt 0.458542 0.147578
vt 0.458542 0.184010
vt 0.507207 0.184010
vt 0.507207 0.147578
vt 0.912105 0.820015
vt 0.912105 0.919062
vt 0.912105 0.747151
vt 0.912105 0.648112
vt 0.665672 0.676856
vt 0.485955 0.603854
vt 0.583816 0.553705
vt 0.583816 0.591823
vt 0.590659 0.553705
vt 0.590659 0.591823
vt 0.583816 0.591823
vt 0.583816 0.553705
vt 0.583816 0.591823
vt 0.583816 0.553705
vt 0.939074 0.919062
vt 0.939074 0.820015
vt 0.912105 0.820015
vt 0.939074 0.820015
vt 0.939074 0.747151
vt 0.912105 0.747151
vt 0.939074 0.747151
vt 0.939074 0.648112
vt 0.912105 0.919062
vt 0.912105 0.991969
vt 0.939074 0.991969
vt 0.939074 0.919062
vt 0.929599 0.203998
vt 0.929599 0.164585
vt 0.913662 0.164585
vt 0.929599 0.164585
vt 0.929599 0.091720
vt 0.913662 0.316276
vt 0.929599 0.316276
vt 0.929599 0.276869
vt 0.913662 0.203998
vt 0.913662 0.276869
vt 0.929599 0.276869
vt 0.929599 0.203998
vt 0.690117 0.478485
vt 0.581464 0.405344
vt 0.581464 0.405344
vt 0.581464 0.478485
vt 0.690117 0.478485
vt 0.939074 0.919062
vt 0.939074 0.820015
vt 0.912105 0.820015
vt 0.939074 0.820015
vt 0.939074 0.747151
vt 0.912105 0.747151
vt 0.939074 0.747151
vt 0.939074 0.648112
vt 0.912105 0.919062
vt 0.912105 0.991969
vt 0.939074 0.991969
vt 0.939074 0.919062
vt 0.947142 0.387048
vt 0.947142 0.235735
vt 0.947142 0.387048
vt 0.947142 0.387048
vt 0.947142 0.387048
vt 0.947142 0.235735
vn 0.005756 -0.701714 0.712436
vn 0.004371 -0.703059 0.711118
vn 0.005756 -0.701714 0.712436
vn 0.00714 -0.700364 0.71375
vn -0.021774 -0.999457 -0.02471499999999994
vn 0.046934 -0.998612 -0.023914999999999936
vn -0.021774 -0.999457 -0.02471499999999994
vn -0.09038 -0.995583 -0.025397999999999938
vn 0.401386 -0.915876 0.007820000000000056
vn 0.416499 -0.909097 0.008504000000000055
vn 0.401386 -0.915876 0.007820000000000056
vn 0.386162 -0.922403 0.007135000000000056
vn -0.002648 -0.04362399999999994 0.999045
vn -0.008902 -0.023553999999999936 0.999683
vn -0.002648 -0.04362399999999994 0.999045
vn -0.002648 -0.04362399999999994 0.999045
vn 0.129571 0.991566 0.002968999999999939
vn 0.127133 0.991879 0.003553999999999939
vn 0.129571 0.991566 0.002968999999999939
vn 0.132008 0.991246 0.002383999999999939
vn 0.611924 -0.790883 0.007295000000000049
vn 0.611917 -0.790888 0.007294000000000049
vn -0.464707 -0.885187 0.022157000000000055
vn -0.46354 -0.885793 0.022386000000000055
vn -0.464707 -0.885187 0.022157000000000055
vn -0.465873 -0.88458 0.021927000000000054
vn -0.886142 0.463357 0.007265999999999971
vn -0.886142 0.463357 0.007265999999999971
vn -0.554513 0.832148 -0.0066550000000000515
vn -0.552963 0.833175 -0.007174000000000051
vn -0.554513 0.832148 -0.0066550000000000515
vn -0.556061 0.831119 -0.006136000000000051
vn -0.196975 -0.980237 0.01833100000000006
vn -0.195664 -0.980495 0.01856700000000006
vn 0.209528 0.977793 -0.00425700000000006
vn 0.212255 0.977201 -0.00502600000000006
vn 0.209528 0.977793 -0.00425700000000006
vn 0.206799 0.978377 -0.00348800000000006
vn 0.548421 -0.836142 -0.010119999999999948
vn 0.546584 -0.837339 -0.010485999999999948
vn -0.001347 0.701746 -0.712426
vn -0.0027 0.700427 -0.713719
vn -0.001347 0.701746 -0.712426
vn 6E-06 0.703062 -0.711128
vn 0.001691 -0.700995 -0.713165
vn 0.003388 -0.705466 -0.708736
vn -0.999921 0.00973 -0.007988
vn -0.008385 0.701069 0.713044
vn -0.805507 0.590531 -0.049311000000000035
vn -0.416709 0.9082 -0.03906600000000005
vn -0.412821 0.909972 -0.03910800000000005
vn -0.806127 -0.591318 -0.022381999999999964
vn -0.414628 -0.909988 0.0023860000000000556
vn -0.412153 -0.911111 0.002634000000000056
vn -0.417536 -0.90866 0.0003480000000000556
vn -0.417235 -0.908799 0.00036100000000005567
vn -0.417536 -0.90866 0.0003480000000000556
vn -0.417837 -0.908522 0.0003340000000000556
vn 0.021774 0.999457 0.02471499999999994
vn -0.046934 0.998612 0.023914999999999936
vn 0.021774 0.999457 0.02471499999999994
vn 0.09038 0.995583 0.025397999999999938
vn -0.401386 0.915876 -0.007820000000000056
vn -0.416499 0.909097 -0.008504000000000055
vn -0.401386 0.915876 -0.007820000000000056
vn -0.386162 0.922403 -0.007135000000000056
vn 0.412821 -0.909972 0.03910800000000005
vn 0.416709 -0.9082 0.03906600000000005
vn 0.805507 -0.590531 0.049311000000000035
vn 0.806127 0.591318 0.022381999999999964
vn 0.414628 0.909988 -0.0023860000000000556
vn 0.412153 0.911111 -0.002634000000000056
vn -0.039705 0.9992 0.0046859999999999385
vn -0.039995 0.999189 0.004703999999999938
vn -0.039705 0.9992 0.0046859999999999385
vn -0.039414 0.999212 0.004668999999999939
vn 0.401388 -0.915875 0.007820000000000056
vn 0.416499 -0.909096 0.008503000000000056
vn 0.401388 -0.915875 0.007820000000000056
vn 0.386167 -0.922401 0.007135000000000056
vn -0.401388 0.915875 -0.007820000000000056
vn -0.416499 0.909096 -0.008503000000000056
vn -0.401388 0.915875 -0.007820000000000056
vn -0.386167 0.922401 -0.007135000000000056
vn 0 0.707107 -0.707106
vn -0 0.707107 -0.707107
vn 0 0.707107 -0.707106
vn 0 0.707107 -0.707106
vn -0 -0.707107 0.707106
vn -0 -0.707107 0.707106
vn -0 -0.707107 0.707106
vn -0 -0.707107 0.707106
vn -0 -0.707104 -0.70711
vn 0 -0.707104 -0.707109
vn -1 0 -0
vn 0 0.707104 0.70711
vn -0.024205 -0.999707 6.121439888176016E-17
vn -0.024205 -0.999707 6.121439888176016E-17
vn -0.024205 -0.999707 6.121439888176016E-17
vn -0.024205 -0.999707 6.121439888176016E-17
vn 0.024205 0.999707 -6.121439888176016E-17
vn 0.024205 0.999707 -6.121439888176016E-17
vn 0.024205 0.999707 -6.121439888176016E-17
vn 0.024205 0.999707 -6.121439888176016E-17
vn 0.00604 0.999982 -0.00011800000000006123
vn 0.006083 0.999982 -2.000000000061231E-06
vn 0.00604 0.999982 -0.00011800000000006123
vn 0.00604 0.999982 -0.00011800000000006123
vn -0.005545 -0.999984 -0.0013329999999999388
vn -0.005627 -0.01343999999999994 0.999894
vn -0.002866 -0.008626999999999939 0.999959
vn -0.005627 -0.01343999999999994 0.999894
vn -0.008387 -0.018252999999999936 0.999798
vn 0.002751 0.01342399999999994 -0.999906
vn 0.005499 0.01821399999999994 -0.999819
vn 0.002751 0.01342399999999994 -0.999906
vn 3E-06 0.00863299999999994 -0.999963
vn 0.001198 -0.993437 0.11437700000000006
vn 0.002399 -0.992911 0.11884000000000006
vn -0.999987 -0.0034230000000000003 -0.003694
vn -0.00646 0.993409 -0.11444100000000006
vn -0.008902 -0.023553999999999936 0.999683
vn -0.008902 -0.023553999999999936 0.999683
vn 0.611911 -0.790893 0.0072920000000000484
vn 0.611917 -0.790888 0.007294000000000049
vn -0.886141 0.463358 0.007265999999999971
vn -0.886142 0.463357 0.007265999999999971
vn -0.194352 -0.980752 0.018802000000000058
vn -0.195664 -0.980495 0.01856700000000006
vn 0.548421 -0.836142 -0.010119999999999948
vn 0.550255 -0.83494 -0.00975399999999995
vn 0.001691 -0.700995 -0.713165
vn -6E-06 -0.696494 -0.717563
vn -0.999921 0.00973 -0.007988
vn -0.999921 0.00973 -0.007988
vn -0.999921 0.00973 -0.007988
vn -0.010084 0.696549 0.717438
vn -0.008385 0.701069 0.713044
vn -0.006686 0.70556 0.708619
vn 0.99897 -0.019995999999999996 0.040722
vn 0.998971 -0.019994999999999995 0.040719
vn 0.99897 -0.019995999999999996 0.040722
vn 0.99897 -0.019996999999999997 0.040725
vn -0 -0.707104 -0.70711
vn -0 -0.707104 -0.70711
vn -1 0 -0
vn -1 0 -0
vn -1 0 -0
vn 0 0.707104 0.70711
vn 0 0.707104 0.70711
vn 1E-06 0.707104 0.70711
vn 1 6.123233995736766E-23 1E-06
vn 1 -9.999999999999997E-07 2E-06
vn 1 6.123233995736766E-23 1E-06
vn 1 -6.123233995736766E-23 -1E-06
vn -0.005545 -0.999984 -0.0013329999999999388
vn -0.005545 -0.999984 -0.0013329999999999388
vn -0.006083 -0.999982 0.00011800000000006123
vn -0.006083 -0.999982 0.00011800000000006123
vn -0.006083 -0.999982 0.00011800000000006123
vn 0.001198 -0.993437 0.11437700000000006
vn -2E-06 -0.993941 0.10991100000000005
vn -0.999987 -0.0034230000000000003 -0.003694
vn -0.999987 -0.0034230000000000003 -0.003694
vn -0.999987 -0.0034230000000000003 -0.003694
vn -0.007723 0.993905 -0.10996900000000005
vn -0.00646 0.993409 -0.11444100000000006
vn -0.005197 0.992891 -0.11891000000000006
vn 0.999674 0.016726 0.019277
vn 0.999674 0.016727 0.019277
vn 0.999674 0.016726 0.019277
vn 0.999674 0.016726 0.019277
vn -0.806127 -0.591318 -0.022381999999999964
vn -0.805507 0.590531 -0.049311000000000035
vn -0.806127 -0.591318 -0.022381999999999964
vn 0.806127 0.591318 0.022381999999999964
vn 0.806127 0.591318 0.022381999999999964
vn 0.805507 -0.590531 0.049311000000000035
g bazaar
f 169/169/169 172/172/172 171/171/171
f 171/171/171 170/170/170 169/169/169
f 121/121/121 168/168/168 167/167/167
f 167/167/167 166/166/166 121/121/121
f 120/120/120 165/165/165 164/164/164
f 164/164/164 163/163/163 120/120/120
f 118/118/118 162/162/162 161/161/161
f 161/161/161 119/119/119 118/118/118
f 116/116/116 115/115/115 114/114/114
f 114/114/114 117/117/117 116/116/116
f 112/112/112 111/111/111 110/110/110
f 110/110/110 113/113/113 112/112/112
f 152/152/152 155/155/155 154/154/154
f 154/154/154 153/153/153 152/152/152
f 96/96/96 151/151/151 150/150/150
f 150/150/150 149/149/149 96/96/96
f 95/95/95 148/148/148 147/147/147
f 147/147/147 146/146/146 95/95/95
f 93/93/93 145/145/145 144/144/144
f 144/144/144 94/94/94 93/93/93
f 91/91/91 90/90/90 89/89/89
f 89/89/89 92/92/92 91/91/91
f 87/87/87 86/86/86 85/85/85
f 85/85/85 88/88/88 87/87/87
f 83/83/83 82/82/82 81/81/81
f 81/81/81 84/84/84 83/83/83
f 79/79/79 78/78/78 77/77/77
f 77/77/77 80/80/80 79/79/79
f 75/75/75 74/74/74 73/73/73
f 73/73/73 76/76/76 75/75/75
f 71/71/71 178/178/178 177/177/177
f 176/176/176 72/72/72 71/71/71
f 69/69/69 68/68/68 67/67/67
f 67/67/67 70/70/70 69/69/69
f 65/65/65 64/64/64 63/63/63
f 63/63/63 66/66/66 65/65/65
f 61/61/61 60/60/60 59/59/59
f 59/59/59 62/62/62 61/61/61
f 57/57/57 56/56/56 55/55/55
f 55/55/55 58/58/58 57/57/57
f 175/175/175 174/174/174 53/53/53
f 53/53/53 54/54/54 173/173/173
f 51/51/51 50/50/50 49/49/49
f 49/49/49 52/52/52 51/51/51
f 140/140/140 143/143/143 142/142/142
f 142/142/142 141/141/141 140/140/140
f 48/48/48 139/139/139 138/138/138
f 138/138/138 137/137/137 48/48/48
f 47/47/47 136/136/136 135/135/135
f 135/135/135 134/134/134 47/47/47
f 45/45/45 133/133/133 132/132/132
f 132/132/132 46/46/46 45/45/45
f 43/43/43 42/42/42 41/41/41
f 41/41/41 44/44/44 43/43/43
f 130/130/130 131/131/131 39/39/39
f 39/39/39 40/40/40 130/130/130
f 37/37/37 36/36/36 35/35/35
f 35/35/35 38/38/38 37/37/37
f 34/34/34 33/33/33 129/129/129
f 129/129/129 128/128/128 34/34/34
f 31/31/31 30/30/30 29/29/29
f 29/29/29 32/32/32 31/31/31
f 28/28/28 27/27/27 127/127/127
f 127/127/127 126/126/126 28/28/28
f 25/25/25 24/24/24 23/23/23
f 23/23/23 26/26/26 25/25/25
f 22/22/22 21/21/21 125/125/125
f 125/125/125 124/124/124 22/22/22
f 19/19/19 18/18/18 17/17/17
f 17/17/17 20/20/20 19/19/19
f 123/123/123 14/14/14 122/122/122
f 13/13/13 16/16/16 15/15/15
f 11/11/11 10/10/10 9/9/9
f 9/9/9 12/12/12 11/11/11
f 7/7/7 6/6/6 5/5/5
f 5/5/5 8/8/8 7/7/7
f 3/3/3 2/2/2 1/1/1
f 1/1/1 4/4/4 3/3/3
g Standard_9
f 160/160/160 159/159/159 158/158/158
f 157/157/157 109/109/109 156/156/156
f 107/107/107 106/106/106 105/105/105
f 105/105/105 108/108/108 107/107/107
f 103/103/103 102/102/102 101/101/101
f 101/101/101 104/104/104 103/103/103
f 99/99/99 98/98/98 97/97/97
f 97/97/97 100/100/100 99/99/99
