v 0.273748 0.412261 0.326449
v 0.279754 0.545207 0.29510099999999995
v 0.525849 0.53409 0.29538799999999993
v 0.524049 0.400954 0.330946
v 0.618165 0.547527 0.23834899999999998
v 0.605743 0.272564 0.23834899999999998
v 0.208589 0.290505 0.23999599999999996
v 0.221011 0.565468 0.24357699999999996
v 0.293112 0.329614 -2.0183036502707786E-17
v 0.254614 0.331353 -2.0289519541893647E-17
v 0.254614 0.331353 0.21155199999999996
v 0.293112 0.329614 0.21109699999999998
v 0.256353 0.369853 -2.26469646302523E-17
v 0.256353 0.369853 0.21194599999999997
v 0.273748 0.412261 0.24024599999999996
v 0.279754 0.545208 0.24024599999999996
v 0.279754 0.545207 0.29510099999999995
v 0.273748 0.412261 0.326449
v 0.525584 0.534102 0.24026799999999998
v 0.525849 0.53409 0.29538799999999993
v 0.522481 0.401024 0.24317299999999997
v 0.524049 0.400954 0.330946
v 0.523808 0.319192 0.21091699999999997
v 0.562308 0.317453 0.21091699999999997
v 0.562308 0.317453 -1.9438390016486236E-17
v 0.523808 0.319192 -1.9544873055672097E-17
v 0.564048 0.355953 0.21091699999999997
v 0.564048 0.355953 -2.1795835104844892E-17
v 0.569385 0.474088 0.21091699999999997
v 0.571125 0.512587 0.21091699999999997
v 0.571125 0.512587 -3.138690144172722E-17
v 0.569385 0.474088 -2.902951758570852E-17
v 0.532624 0.514325 0.21091699999999997
v 0.532624 0.514325 -3.1493323248573126E-17
v 0.26169 0.487988 -2.988064711111593E-17
v 0.263429 0.526487 -3.223803096713463E-17
v 0.263429 0.526487 0.21348899999999998
v 0.26169 0.487988 0.21371899999999996
v 0.301929 0.524748 -3.2131547927948767E-17
v 0.301929 0.524748 0.21241699999999997
v 0.533277 -0.020007999999999995 0.115286
v 0.788398 0.003005000000000007 0.115286
v 0.82664 -0.420948 0.22279500000000002
v 0.571519 -0.443961 0.22194600000000003
v 0.533277 -0.020008 1.2251366578670123E-18
v 0.788398 0.003005 -1.8400318157188982E-19
v 0.788398 0.003005000000000007 0.115286
v 0.533277 -0.020007999999999995 0.115286
v 0.82664 -0.420948 2.5775631040374002E-17
v 0.82664 -0.420948 0.22279500000000002
v 0.571519 -0.443961 2.7184770879812903E-17
v 0.571519 -0.443961 0.22194600000000003
v -0.053825 0.041483000000000006 0.115286
v 0.202281 0.03722700000000001 0.115274
v 0.195233 -0.388384 0.23010500000000003
v -0.060889 -0.384133 0.22287600000000002
v -0.053825 0.041483 -2.5401011584514827E-18
v 0.20229 0.03723 -4.000000000002279E-06
v 0.202281 0.03722700000000001 0.115274
v -0.053825 0.041483000000000006 0.115286
v 0.195233 -0.388384 2.378166112200228E-17
v 0.195233 -0.388384 0.23010500000000003
v -0.060889 -0.384133 2.352136244484351E-17
v -0.060889 -0.384133 0.22287600000000002
v 0.916494 -0.922519 0.7918220000000001
v 0.916442 -0.922519 0.8216250000000002
v 0.912553 -0.20580299999999996 0.736452
v 0.9127 -0.20580299999999996 0.706749
v -0.115072 -0.92252 0.6994000000000001
v -0.115072 -0.92252 0.7292080000000001
v -0.115072 -0.20580199999999996 0.729208
v -0.115072 -0.20580199999999996 0.6994
v -0.140885 -0.92252 0.7143040000000002
v -0.140885 -0.20580199999999996 0.714304
v -0.110399 -0.350979 2.1491265445896942E-17
v -0.112522 -0.321247 1.9670705514284488E-17
v -0.112523 -0.32124699999999995 0.861097
v -0.110398 -0.35097899999999993 0.861097
v -0.085712 -0.334274 2.046837920690912E-17
v -0.085712 -0.33427399999999996 0.861097
v -0.071789 -0.842116 5.156473319553862E-17
v -0.101497 -0.839679 5.1415509983062516E-17
v -0.101497 -0.839679 0.861097
v -0.071789 -0.842116 0.861097
v -0.084532 -0.815169 4.9914705330707443E-17
v -0.084532 -0.815169 0.861097
v 0.878898 -0.814955 0.0006970000000000499
v 0.888241 -0.843253 0.0006240000000000516
v 0.888468 -0.8421599999999999 0.951603
v 0.879067 -0.8141409999999999 0.953655
v 0.859056 -0.837192 0.0006490000000000512
v 0.859268 -0.8361719999999999 0.952077
v 0.869437 -0.335663 -5.299999999997945E-05
v 0.895225 -0.320759 -7.199999999998036E-05
v 0.891516 -0.32075999999999993 0.882154
v 0.866662 -0.33566299999999993 0.885532
v 0.895229 -0.350567 -6.899999999997853E-05
v 0.891633 -0.35056699999999996 0.88627
v -0.371618 0.507787 0.55868
v -0.370185 0.507732 0.588179
v -0.409918 -0.711904 0.643503
v -0.40994 -0.711904 0.613701
v -0.344272 0.507729 0.57327
v -0.384287 -0.711904 0.628648
v -0.863929 0.485469 -2.972640284676332E-17
v -0.869232 0.511338 -3.131042224912046E-17
v -0.833918 0.510364 0.759309
v -0.828997 0.4843740000000001 0.758844
v -0.889772 0.500372 -3.063894840914797E-17
v -0.8575 0.49922700000000003 0.759098
v -0.414823 0.485462 -2.972597422038362E-17
v -0.42213 0.513528 -3.14445210736271E-17
v -0.366212 0.511987 0.753281
v -0.360187 0.48374900000000004 0.752827
v -0.440675 0.500364 -3.0638458550428314E-17
v -0.389588 0.4985510000000001 0.752787
v -0.864204 -0.648533 -7.999999999960289E-06
v -0.890007 -0.663437 -1.3999999999959376E-05
v -0.886096 -0.663437 0.725249
v -0.860704 -0.648533 0.729054
v -0.890021 -0.63363 -1.999999999961201E-06
v -0.886645 -0.633629 0.725148
v -0.415399 -0.648533 0.0006940000000000396
v -0.441208 -0.663437 0.0007050000000000407
v -0.440716 -0.663437 0.775281
v -0.415086 -0.648533 0.775818
v -0.441211 -0.633629 0.0006450000000000388
v -0.440805 -0.633629 0.77423
v -0.98202 -0.188687 0.08493600000000001
v -0.969366 0.085499 0.085263
v -0.810843 0.08153500000000001 0.272447
v -0.823233 -0.19046899999999997 0.27425
v -0.982436 0.131379 0.09233799999999999
v -0.967377 0.458998 0.09084999999999997
v -0.795075 0.451645 0.261396
v -0.809524 0.12661300000000003 0.265923
v -0.924262 -0.194767 0.015325000000000012
v -0.765471 -0.196545 0.20464
v -0.75299 0.07673500000000001 0.203876
v -0.911513 0.080698 0.016692999999999996
v -0.969122 0.085499 0.085263
v -0.981776 -0.188687 0.08493600000000001
v -0.810599 0.08153500000000001 0.272447
v -0.822989 -0.19046899999999997 0.27425
v -0.930462 0.127077 0.01949499999999999
v -0.757553 0.12231100000000002 0.19308
v -0.742866 0.448861 0.19004099999999996
v -0.915163 0.456214 0.01949499999999997
v -0.967377 0.458998 0.09084999999999997
v -0.982436 0.131379 0.09233799999999999
v -0.795075 0.451645 0.261396
v -0.809524 0.12661300000000003 0.265923
v -0.576484 -0.231714 0.18299000000000004
v -0.767552 -0.227392 0.18750000000000003
v -0.755701 0.383642 0.19292599999999996
v -0.570944 0.371753 0.18482799999999996
v -0.692425 0.343432 -0.006417000000000021
v -0.724217 0.312815 -0.006361000000000019
v -0.7229 0.314949 0.16886199999999998
v -0.691517 0.344874 0.16835299999999997
v -0.723646 0.344078 -0.0063430000000000205
v -0.722329 0.346137 0.16903399999999996
v -0.700599 -0.168847 -0.00683599999999999
v -0.731874 -0.168265 -0.00679199999999999
v -0.730556 -0.164444 0.164914
v -0.699251 -0.165116 0.164513
v -0.731303 -0.137002 -0.006773999999999991
v -0.729986 -0.133254 0.165086
v -0.604324 -0.136604 0.161632
v -0.636027 -0.166915 0.161959
v -0.637568 -0.170066 -0.007114999999999989
v -0.60574 -0.139408 -0.0071509999999999916
v -0.604722 -0.167587 0.161558
v -0.606293 -0.170648 -0.00715899999999999
v -0.621582 0.307882 0.16370099999999999
v -0.590358 0.337616 0.16310199999999997
v -0.58811 0.340937 -0.0069900000000000205
v -0.619885 0.310343 -0.006925000000000019
v -0.621171 0.338881 0.16378299999999998
v -0.619332 0.341585 -0.006916000000000021
v -0.303922 0.069733 -0.008077000000000004
v -0.313502 0.335246 -0.009917000000000021
v -0.606192 0.328404 0.19704199999999997
v -0.59651 0.06400200000000002 0.200684
v -0.245723 0.072398 0.073372
v -0.539397 0.06657800000000001 0.281724
v -0.549165 0.331019 0.277745
v -0.255305 0.33791 0.07153199999999998
v -0.539397 0.06657800000000001 0.281724
v -0.245724 0.072398 0.073372
v -0.549165 0.331019 0.277745
v -0.255306 0.337911 0.07153199999999998
v -0.363185 0.011071 0.003981999999999999
v -0.594369 0.0018530000000000144 0.23535
v -0.587317 -0.17497699999999997 0.23535
v -0.356134 -0.165758 0.003982000000000011
v -0.311646 0.013127000000000003 0.055562
v -0.304594 -0.163703 0.05556200000000001
v -0.535779 -0.17292199999999996 0.28693
v -0.54283 0.003907000000000017 0.28693
v -0.304594 -0.163703 0.05556200000000001
v -0.311646 0.013127000000000003 0.055562
v -0.535779 -0.17292199999999996 0.28693
v -0.54283 0.003907000000000017 0.28693
v -0.912972 0.471425 0.31960599999999995
v -0.368169 0.468349 0.31960599999999995
v -0.368169 0.468349 0.25854399999999994
v -0.912972 0.471425 0.25854399999999994
v -0.912972 0.471425 0.31960599999999995
v -0.912972 0.471425 0.25854399999999994
v -0.368169 0.468349 0.25854399999999994
v -0.368169 0.468349 0.31960599999999995
v -0.89031 -0.681125 0.56675
v -0.871363 0.559488 0.56675
v -0.871363 0.559488 0.52849
v -0.89031 -0.681125 0.52849
v -0.89031 -0.681125 0.56675
v -0.89031 -0.681125 0.52849
v -0.871362 0.559489 0.52849
v -0.871362 0.559489 0.56675
v -0.140398 -0.845958 0.31960600000000006
v 0.942237 -0.849034 0.31960600000000006
v 0.942237 -0.849034 0.25854400000000005
v -0.140398 -0.845958 0.25854400000000005
v -0.140398 -0.845958 0.31960600000000006
v -0.140398 -0.845958 0.25854400000000005
v 0.942237 -0.849034 0.25854400000000005
v 0.942237 -0.849034 0.31960600000000006
v -0.445134 -0.65412 0.544912
v -0.445134 -0.65412 0.18479100000000004
v -0.865845 -0.650295 0.18479000000000004
v -0.865844 -0.65033 0.544912
v -0.445144 -0.653725 0.544912
v 0.23985 -0.038237999999999994 0.115286
v 0.495968 -0.03376899999999999 0.115286
v 0.23985 -0.038238 2.3414022152898245E-18
v 0.495968 -0.033769 2.0677548880203485E-18
v 0.495968 -0.03376899999999999 0.115286
v 0.23985 -0.038237999999999994 0.115286
v 0.503396 -0.459378 0.22194600000000003
v 0.247278 -0.463848 0.22194600000000003
v -0.923646 -0.574206 0.10674900000000004
v -0.92971 -0.275274 0.11184900000000002
v -0.621259 -0.27179 0.18681400000000004
v -0.615849 -0.569683 0.17954900000000001
v -0.893684 -0.571606 -0.009921999999999966
v -0.899746 -0.272675 -0.004821999999999983
v -0.92971 -0.275274 0.11184900000000002
v -0.923646 -0.574206 0.10674900000000004
v -0.59231 -0.26928 0.07169700000000001
v -0.621259 -0.27179 0.18681400000000004
v -0.586855 -0.567095 0.06486900000000004
v -0.615849 -0.569683 0.17954900000000001
v 0.503396 -0.459378 2.812878986493564E-17
v 0.247278 -0.463848 2.840249842454507E-17
v 0.247278 -0.463848 0.22194600000000003
v 0.503396 -0.459378 0.22194600000000003
v 0.618165 0.547527 0.23834899999999998
v 0.208589 0.290505 0.23999599999999996
v 0.254614 0.331353 0.21155199999999996
v 0.254614 0.331353 -2.0289519541893647E-17
v 0.279754 0.545207 0.29510099999999995
v 0.279754 0.545208 0.24024599999999996
v 0.525849 0.53409 0.29538799999999993
v 0.525584 0.534102 0.24026799999999998
v 0.273748 0.412261 0.326449
v 0.524049 0.400954 0.330946
v 0.522481 0.401024 0.24317299999999997
v 0.273748 0.412261 0.24024599999999996
v 0.562308 0.317453 -1.9438390016486236E-17
v 0.562308 0.317453 0.21091699999999997
v 0.571125 0.512587 -3.138690144172722E-17
v 0.571125 0.512587 0.21091699999999997
v 0.263429 0.526487 0.21348899999999998
v 0.263429 0.526487 -3.223803096713463E-17
v 0.788398 0.003005000000000007 0.115286
v 0.788398 0.003005 -1.8400318157188982E-19
v 0.82664 -0.420948 0.22279500000000002
v 0.82664 -0.420948 2.5775631040374002E-17
v 0.533277 -0.020007999999999995 0.115286
v 0.571519 -0.443961 0.22194600000000003
v 0.571519 -0.443961 2.7184770879812903E-17
v 0.533277 -0.020008 1.2251366578670123E-18
v 0.202281 0.03722700000000001 0.115274
v 0.20229 0.03723 -4.000000000002279E-06
v 0.195233 -0.388384 0.23010500000000003
v 0.195233 -0.388384 2.378166112200228E-17
v -0.053825 0.041483000000000006 0.115286
v -0.060889 -0.384133 0.22287600000000002
v -0.060889 -0.384133 2.352136244484351E-17
v -0.053825 0.041483 -2.5401011584514827E-18
v -0.115072 -0.20580199999999996 0.729208
v -0.115072 -0.92252 0.7292080000000001
v -0.969122 0.085499 0.085263
v -0.911513 0.080698 0.016692999999999996
v -0.810599 0.08153500000000001 0.272447
v -0.75299 0.07673500000000001 0.203876
v -0.981776 -0.188687 0.08493600000000001
v -0.822989 -0.19046899999999997 0.27425
v -0.765471 -0.196545 0.20464
v -0.924262 -0.194767 0.015325000000000012
v -0.967377 0.458998 0.09084999999999997
v -0.915163 0.456214 0.01949499999999997
v -0.795075 0.451645 0.261396
v -0.742866 0.448861 0.19004099999999996
v -0.982436 0.131379 0.09233799999999999
v -0.809524 0.12661300000000003 0.265923
v -0.757553 0.12231100000000002 0.19308
v -0.930462 0.127077 0.01949499999999999
v -0.576484 -0.231714 0.18299000000000004
v -0.755701 0.383642 0.19292599999999996
v -0.7229 0.314949 0.16886199999999998
v -0.724217 0.312815 -0.006361000000000019
v -0.730556 -0.164444 0.164914
v -0.731874 -0.168265 -0.00679199999999999
v -0.637568 -0.170066 -0.007114999999999989
v -0.636027 -0.166915 0.161959
v -0.619885 0.310343 -0.006925000000000019
v -0.621582 0.307882 0.16370099999999999
v -0.539397 0.06657800000000001 0.281724
v -0.59651 0.06400200000000002 0.200684
v -0.549165 0.331019 0.277745
v -0.606192 0.328404 0.19704199999999997
v -0.245724 0.072398 0.073372
v -0.255306 0.337911 0.07153199999999998
v -0.313502 0.335246 -0.009917000000000021
v -0.303922 0.069733 -0.008077000000000004
v -0.363185 0.011071 0.003981999999999999
v -0.356134 -0.165758 0.003982000000000011
v -0.304594 -0.163703 0.05556200000000001
v -0.356134 -0.165758 0.003982000000000011
v -0.587317 -0.17497699999999997 0.23535
v -0.535779 -0.17292199999999996 0.28693
v -0.587317 -0.17497699999999997 0.23535
v -0.594369 0.0018530000000000144 0.23535
v -0.311646 0.013127000000000003 0.055562
v -0.54283 0.003907000000000017 0.28693
v -0.594369 0.0018530000000000144 0.23535
v -0.363185 0.011071 0.003981999999999999
v -0.445134 -0.65412 0.18479100000000004
v -0.865844 -0.65033 0.544912
v -0.865844 -0.65033 0.544912
v -0.865845 -0.650295 0.18479000000000004
v -0.445134 -0.65412 0.18479100000000004
v 0.495968 -0.03376899999999999 0.115286
v 0.495968 -0.033769 2.0677548880203485E-18
v 0.23985 -0.038237999999999994 0.115286
v 0.23985 -0.038238 2.3414022152898245E-18
v -0.92971 -0.275274 0.11184900000000002
v -0.899746 -0.272675 -0.004821999999999983
v -0.621259 -0.27179 0.18681400000000004
v -0.59231 -0.26928 0.07169700000000001
v -0.923646 -0.574206 0.10674900000000004
v -0.615849 -0.569683 0.17954900000000001
v -0.586855 -0.567095 0.06486900000000004
v -0.893684 -0.571606 -0.009921999999999966
v 0.247278 -0.463848 0.22194600000000003
v 0.503396 -0.459378 0.22194600000000003
v 0.503396 -0.459378 2.812878986493564E-17
v 0.247278 -0.463848 2.840249842454507E-17
v -0.112523 -0.32124699999999995 0.861097
v -0.112522 -0.321247 1.9670705514284488E-17
v -0.112522 -0.321247 1.9670705514284488E-17
v -0.101497 -0.839679 0.861097
v -0.101497 -0.839679 5.1415509983062516E-17
v -0.101497 -0.839679 5.1415509983062516E-17
v 0.888468 -0.8421599999999999 0.951603
v 0.888241 -0.843253 0.0006240000000000516
v 0.888241 -0.843253 0.0006240000000000516
v 0.891516 -0.32075999999999993 0.882154
v 0.895225 -0.320759 -7.199999999998036E-05
v 0.895225 -0.320759 -7.199999999998036E-05
v -0.409918 -0.711904 0.643503
v -0.370185 0.507732 0.588179
v -0.370185 0.507732 0.588179
v -0.869232 0.511338 -3.131042224912046E-17
v -0.869232 0.511338 -3.131042224912046E-17
v -0.833918 0.510364 0.759309
v -0.42213 0.513528 -3.14445210736271E-17
v -0.42213 0.513528 -3.14445210736271E-17
v -0.366212 0.511987 0.753281
v -0.886096 -0.663437 0.725249
v -0.890007 -0.663437 -1.3999999999959376E-05
v -0.890007 -0.663437 -1.3999999999959376E-05
v -0.440716 -0.663437 0.775281
v -0.441208 -0.663437 0.0007050000000000407
v -0.441208 -0.663437 0.0007050000000000407
vt 0.777447 0.392704
vt 0.814512 0.393540
vt 0.814424 0.320708
vt 0.777447 0.321574
vt 0.685106 0.597491
vt 0.685106 0.687188
vt 0.774524 0.687188
vt 0.774524 0.597491
vt 0.522821 0.532682
vt 0.522821 0.525717
vt 0.485371 0.525717
vt 0.485371 0.532682
vt 0.522821 0.518752
vt 0.485371 0.518752
vt 0.929599 0.203998
vt 0.929599 0.164585
vt 0.913662 0.164585
vt 0.913662 0.203998
vt 0.929599 0.091720
vt 0.913662 0.091720
vt 0.929599 0.276869
vt 0.913662 0.276869
vt 0.485371 0.518752
vt 0.485371 0.525717
vt 0.522821 0.525717
vt 0.522821 0.518752
vt 0.485371 0.532682
vt 0.522821 0.532682
vt 0.485371 0.532682
vt 0.485371 0.525717
vt 0.522821 0.525717
vt 0.522821 0.532682
vt 0.485371 0.518752
vt 0.522821 0.518752
vt 0.522821 0.518752
vt 0.522821 0.525717
vt 0.485371 0.525717
vt 0.485371 0.518752
vt 0.522821 0.532682
vt 0.485371 0.532682
vt 0.910588 0.316170
vt 0.865398 0.316370
vt 0.865733 0.395488
vt 0.910901 0.395313
vt 0.943925 0.518786
vt 0.943925 0.565034
vt 0.923334 0.565034
vt 0.923334 0.518786
vt 0.943925 0.642021
vt 0.904516 0.642021
vt 0.943925 0.441866
vt 0.904516 0.441866
vt 0.864385 0.402349
vt 0.819119 0.402725
vt 0.819511 0.481933
vt 0.864812 0.481794
vt 0.943925 0.518786
vt 0.943925 0.565034
vt 0.923334 0.565034
vt 0.923334 0.518786
vt 0.943925 0.642021
vt 0.904516 0.642021
vt 0.943925 0.441866
vt 0.904516 0.441866
vt 0.428554 0.031620
vt 0.428558 0.037007
vt 0.569921 0.037010
vt 0.569917 0.031621
vt 0.428554 0.031620
vt 0.428558 0.037007
vt 0.569921 0.037010
vt 0.569917 0.031621
vt 0.428557 0.026230
vt 0.569920 0.026228
vt 0.768571 0.031351
vt 0.768575 0.026415
vt 0.580977 0.026417
vt 0.580972 0.031351
vt 0.768578 0.021071
vt 0.580979 0.021074
vt 0.768571 0.031351
vt 0.768575 0.026415
vt 0.580977 0.026417
vt 0.580972 0.031351
vt 0.768578 0.021071
vt 0.580979 0.021074
vt 0.768571 0.031351
vt 0.768575 0.026415
vt 0.580977 0.026417
vt 0.580972 0.031351
vt 0.768578 0.021071
vt 0.580979 0.021074
vt 0.768571 0.031351
vt 0.768575 0.026415
vt 0.580977 0.026417
vt 0.580972 0.031351
vt 0.768578 0.021071
vt 0.580979 0.021074
vt 0.985197 0.256795
vt 0.990474 0.256795
vt 0.990474 0.035426
vt 0.985197 0.035426
vt 0.995762 0.256795
vt 0.995762 0.035426
vt 0.940268 0.223446
vt 0.945607 0.223446
vt 0.945605 0.047858
vt 0.940266 0.047858
vt 0.950882 0.223446
vt 0.950904 0.047858
vt 0.940268 0.223446
vt 0.945607 0.223446
vt 0.945605 0.047858
vt 0.940266 0.047858
vt 0.950882 0.223446
vt 0.950904 0.047858
vt 0.940268 0.223446
vt 0.945607 0.223446
vt 0.945605 0.047858
vt 0.940266 0.047858
vt 0.950882 0.223446
vt 0.950904 0.047858
vt 0.940268 0.223446
vt 0.945607 0.223446
vt 0.945605 0.047858
vt 0.940266 0.047858
vt 0.950882 0.223446
vt 0.950904 0.047858
vt 0.359628 0.292404
vt 0.425642 0.291477
vt 0.424669 0.219502
vt 0.358649 0.220381
vt 0.004972 0.292412
vt 0.101650 0.293263
vt 0.102300 0.221261
vt 0.005592 0.220396
vt 0.761962 0.044891
vt 0.833528 0.044891
vt 0.623372 0.044891
vt 0.694961 0.044891
vt 0.694961 0.072355
vt 0.761962 0.072355
vt 0.623372 0.072355
vt 0.833528 0.072355
vt 0.939074 0.919062
vt 0.939074 0.648112
vt 0.939074 0.747151
vt 0.939074 0.820015
vt 0.912105 0.820015
vt 0.912105 0.919062
vt 0.912105 0.747151
vt 0.912105 0.648112
vt 0.665672 0.676856
vt 0.665769 0.603905
vt 0.485955 0.603854
vt 0.485955 0.676649
vt 0.574139 0.591823
vt 0.583816 0.591823
vt 0.583816 0.553705
vt 0.574139 0.553705
vt 0.590659 0.591823
vt 0.590659 0.553705
vt 0.583816 0.591823
vt 0.590659 0.591823
vt 0.590659 0.553705
vt 0.583816 0.553705
vt 0.597502 0.591823
vt 0.597502 0.553705
vt 0.574139 0.553705
vt 0.583816 0.553705
vt 0.583816 0.591823
vt 0.574139 0.591823
vt 0.590659 0.553705
vt 0.590659 0.591823
vt 0.583816 0.553705
vt 0.574139 0.553705
vt 0.574139 0.591823
vt 0.583816 0.591823
vt 0.590659 0.553705
vt 0.590659 0.591823
vt 0.939513 0.919062
vt 0.939513 0.648112
vt 0.939513 0.747151
vt 0.939513 0.820015
vt 0.195510 0.293243
vt 0.292226 0.294126
vt 0.292838 0.222162
vt 0.196123 0.221261
vt 0.912543 0.820015
vt 0.912543 0.919062
vt 0.912543 0.747151
vt 0.912543 0.648112
vt 0.417153 0.167326
vt 0.452948 0.167326
vt 0.452948 0.147621
vt 0.417153 0.147621
vt 0.780910 0.470491
vt 0.817142 0.470003
vt 0.815354 0.398083
vt 0.778378 0.398948
vt 0.913662 0.164585
vt 0.913662 0.203998
vt 0.913662 0.091720
vt 0.913662 0.276869
vt 0.596944 0.705204
vt 0.596944 0.813998
vt 0.601955 0.813998
vt 0.601955 0.705204
vt 0.596944 0.705204
vt 0.601955 0.705204
vt 0.601955 0.813998
vt 0.596944 0.813998
vt 0.596944 0.705204
vt 0.596944 0.813998
vt 0.601955 0.813998
vt 0.601955 0.705204
vt 0.596944 0.705204
vt 0.601955 0.705204
vt 0.601955 0.813998
vt 0.596944 0.813998
vt 0.596944 0.705204
vt 0.596944 0.813998
vt 0.601955 0.813998
vt 0.601955 0.705204
vt 0.596944 0.705204
vt 0.601955 0.705204
vt 0.601955 0.813998
vt 0.596944 0.813998
vt 0.464765 0.405344
vt 0.464765 0.478485
vt 0.576330 0.478485
vt 0.576330 0.405344
vt 0.690117 0.405344
vt 0.864469 0.317614
vt 0.819297 0.317822
vt 0.943925 0.518786
vt 0.943925 0.565034
vt 0.923334 0.565034
vt 0.923334 0.518786
vt 0.904516 0.642021
vt 0.904516 0.441866
vt 0.294238 0.292644
vt 0.360258 0.291829
vt 0.358895 0.219728
vt 0.296923 0.224212
vt 0.761962 0.044891
vt 0.694961 0.044891
vt 0.694961 0.072355
vt 0.761962 0.072355
vt 0.623372 0.044891
vt 0.623372 0.072355
vt 0.833528 0.044891
vt 0.833528 0.072355
vt 0.943925 0.642021
vt 0.943925 0.441866
vt 0.864464 0.396939
vt 0.819297 0.396770
vt 0.685106 0.597491
vt 0.774524 0.687188
vt 0.485371 0.525717
vt 0.522821 0.525717
vt 0.913662 0.164585
vt 0.929599 0.164585
vt 0.913662 0.316276
vt 0.929599 0.316276
vt 0.913662 0.203998
vt 0.913662 0.276869
vt 0.929599 0.276869
vt 0.929599 0.203998
vt 0.522821 0.525717
vt 0.485371 0.525717
vt 0.522821 0.525717
vt 0.485371 0.525717
vt 0.485371 0.525717
vt 0.522821 0.525717
vt 0.923334 0.565034
vt 0.943925 0.565034
vt 0.904516 0.395571
vt 0.943925 0.395571
vt 0.923334 0.518786
vt 0.904516 0.441866
vt 0.943925 0.441866
vt 0.943925 0.518786
vt 0.923334 0.565034
vt 0.943925 0.565034
vt 0.904516 0.395571
vt 0.943925 0.395571
vt 0.923334 0.518786
vt 0.904516 0.441866
vt 0.943925 0.441866
vt 0.943925 0.518786
vt 0.569927 0.020835
vt 0.428564 0.020839
vt 0.694961 0.072355
vt 0.694961 0.044891
vt 0.900512 0.072355
vt 0.900512 0.044891
vt 0.761962 0.072355
vt 0.833528 0.072355
vt 0.833528 0.044891
vt 0.761962 0.044891
vt 0.912105 0.820015
vt 0.939074 0.820015
vt 0.912105 0.747151
vt 0.939074 0.747151
vt 0.912105 0.919062
vt 0.912105 0.991969
vt 0.939074 0.991969
vt 0.939074 0.919062
vt 0.665672 0.676856
vt 0.485955 0.603854
vt 0.583816 0.553705
vt 0.583816 0.591823
vt 0.590659 0.553705
vt 0.590659 0.591823
vt 0.583816 0.591823
vt 0.583816 0.553705
vt 0.583816 0.591823
vt 0.583816 0.553705
vt 0.912543 0.820015
vt 0.939513 0.820015
vt 0.912543 0.747151
vt 0.939513 0.747151
vt 0.912543 0.919062
vt 0.912543 0.991969
vt 0.939513 0.991969
vt 0.939513 0.919062
vt 0.929599 0.203998
vt 0.929599 0.164585
vt 0.913662 0.164585
vt 0.929599 0.164585
vt 0.929599 0.091720
vt 0.913662 0.316276
vt 0.929599 0.316276
vt 0.929599 0.276869
vt 0.913662 0.203998
vt 0.913662 0.276869
vt 0.929599 0.276869
vt 0.929599 0.203998
vt 0.690117 0.478485
vt 0.581464 0.405344
vt 0.581464 0.405344
vt 0.581464 0.478485
vt 0.690117 0.478485
vt 0.923334 0.565034
vt 0.943925 0.565034
vt 0.923334 0.518786
vt 0.943925 0.518786
vt 0.694961 0.072355
vt 0.694961 0.044891
vt 0.900512 0.072355
vt 0.900512 0.044891
vt 0.761962 0.072355
vt 0.833528 0.072355
vt 0.833528 0.044891
vt 0.761962 0.044891
vt 0.904516 0.441866
vt 0.904516 0.395571
vt 0.943925 0.395571
vt 0.943925 0.441866
vt 0.580977 0.026417
vt 0.768575 0.026415
vt 0.768575 0.026415
vt 0.580977 0.026417
vt 0.768575 0.026415
vt 0.768575 0.026415
vt 0.580977 0.026417
vt 0.768575 0.026415
vt 0.768575 0.026415
vt 0.580977 0.026417
vt 0.768575 0.026415
vt 0.768575 0.026415
vt 0.990474 0.035426
vt 0.990474 0.256795
vt 0.990474 0.256795
vt 0.945607 0.223446
vt 0.945607 0.223446
vt 0.945605 0.047858
vt 0.945607 0.223446
vt 0.945607 0.223446
vt 0.945605 0.047858
vt 0.945605 0.047858
vt 0.945607 0.223446
vt 0.945607 0.223446
vt 0.945605 0.047858
vt 0.945607 0.223446
vt 0.945607 0.223446
vn 0.001759 0.24363600000000005 0.969865
vn 0.009215 0.22909700000000005 0.97336
vn 0.001759 0.24363600000000005 0.969865
vn -0.005698 0.25810600000000006 0.9661
vn 0.012546 -0.01358899999999994 0.999829
vn 0.004137 -0.00018699999999993876 0.999991
vn 0.012546 -0.01358899999999994 0.999829
vn 0.012546 -0.01358899999999994 0.999829
vn -0.045125 -0.998981 6.11699442029511E-17
vn -0.045125 -0.998981 6.11699442029511E-17
vn -0.045125 -0.998981 6.11699442029511E-17
vn -0.045125 -0.998981 6.11699442029511E-17
vn -0.998981 0.045133 -2.7635991992958745E-18
vn -0.998981 0.045133 -2.7635991992958745E-18
vn -0.998981 0.045128 -3.0000000000027635E-06
vn -0.998981 0.045129 -6.000000000002763E-06
vn -0.998981 0.045128 -3.0000000000027635E-06
vn -0.998981 0.045127 -2.7632318052561303E-18
vn 0.045131 0.998981 -3.00000000006117E-06
vn 0.04513 0.998981 1.99999999993883E-06
vn 0.999559 -0.023702 -0.017882
vn 0.99975 -0.01925 -0.011340999999999999
vn -0.045123 -0.998982 6.117000543529106E-17
vn -0.045123 -0.998982 6.117000543529106E-17
vn -0.045123 -0.998982 6.117000543529106E-17
vn -0.045123 -0.998982 6.117000543529106E-17
vn 0.998981 -0.045136 2.763782896315747E-18
vn 0.998981 -0.045136 2.763782896315747E-18
vn 0.998981 -0.045128 2.7632930375960878E-18
vn 0.998981 -0.045128 2.7632930375960878E-18
vn 0.998981 -0.045128 2.7632930375960878E-18
vn 0.998981 -0.045128 2.7632930375960878E-18
vn 0.045098 0.998983 -6.117006666763102E-17
vn 0.045098 0.998983 -6.117006666763102E-17
vn -0.998981 0.045129 -2.7633542699360453E-18
vn -0.998981 0.045129 -2.7633542699360453E-18
vn -0.998981 0.045129 -2.7633542699360453E-18
vn -0.998981 0.045129 -2.7633542699360453E-18
vn 0.045124 0.998981 -6.11699442029511E-17
vn 0.045124 0.998981 -6.11699442029511E-17
vn -0.023518 0.24283300000000005 0.969783
vn -0.021999 0.24388300000000004 0.969555
vn -0.023518 0.24283300000000005 0.969783
vn -0.025036 0.24178200000000005 0.970008
vn -0.089839 0.995956 -6.098471637458007E-17
vn -0.089839 0.995956 -6.098471637458007E-17
vn -0.089839 0.995956 -6.098471637458007E-17
vn -0.089839 0.995956 -6.098471637458007E-17
vn 0.995956 0.089841 -5.501174654109868E-18
vn 0.995956 0.089841 -5.501174654109868E-18
vn 0.089839 -0.995956 6.098471637458007E-17
vn 0.089839 -0.995956 6.098471637458007E-17
vn -0.009457 0.25292800000000004 0.967439
vn 0.004371 0.26041900000000007 0.965486
vn -0.009457 0.25292800000000004 0.967439
vn -0.023283 0.24537500000000007 0.969149
vn 0.016609 0.999862 1.2999999999938776E-05
vn 0.016603 0.999862 2.5999999999938775E-05
vn 0.016609 0.999862 1.2999999999938776E-05
vn 0.016615 0.999862 -6.122388989445354E-17
vn 0.999863 -0.016579 1.0151709641531984E-18
vn 0.999863 -0.016558 3.800000000000102E-05
vn -0.016598 -0.999862 6.122388989445354E-17
vn -0.016598 -0.999862 6.122388989445354E-17
vn 0.999978 0.005755 0.0033379999999999994
vn 0.999983 0.005633 0.0017479999999999996
vn 0.999978 0.005755 0.0033379999999999994
vn 0.999971 0.005878 0.004928
vn 1 0 0
vn -1.3E-05 6.123233995736766E-17 1
vn 0.866025 3.061616997868383E-17 0.5
vn 1 0 0
vn -0.500012 5.3028369817539585E-17 0.866019
vn -0.500012 5.3028369817539585E-17 0.866019
vn -0.997458 -0.071256 4.36317161600219E-18
vn -0.071239 0.997459 -6.107674858153598E-17
vn -0.899452 0.43702 -2.6759757208168815E-17
vn -0.997458 -0.071264 4.363661474721849E-18
vn 0.437036 0.899444 -5.50750607806146E-17
vn 0.437035 0.899445 -5.5075122012954556E-17
vn -0.081746 -0.996653 6.102739531553035E-17
vn -0.996652 0.081761 -5.006417347254337E-18
vn -0.56912 -0.822254 5.034853645930539E-17
vn -0.081746 -0.996653 6.102739531553035E-17
vn -0.822246 0.569133 -3.484934533695653E-17
vn -0.822246 0.569133 -3.484934533695653E-17
vn 0.948818 0.315823 -0.0005140000000000193
vn 0.314671 -0.9492 0.0009700000000000582
vn 0.979612 -0.200899 8.40000000000123E-05
vn 0.94805 0.31812 -0.0004400000000000195
vn -0.203321 -0.979112 0.00109500000000006
vn -0.202088 -0.979367 0.00113400000000006
vn -0.507415 0.8617 -0.0018570000000000526
vn 0.864868 0.501988 0.0035519999999999692
vn -0.008574 0.999963 0.0002829999999999388
vn -0.514409 0.857543 -0.0016120000000000524
vn 0.999992 0.00011600000000000024 0.004057
vn 0.999989 0.0022960000000000003 0.00413
vn -0.999148 0.033089 0.024658999999999997
vn 0.000923 0.045241000000000066 0.998976
vn -0.852236 0.05072300000000003 0.520693
vn -0.999506 0.031436 0.000735999999999998
vn 0.498565 0.02298900000000005 0.866548
vn 0.499931 0.02294700000000005 0.865761
vn 0.980045 0.193597 -0.04508400000000001
vn 0.040581 0.999175 -0.001452000000000061
vn 0.764396 0.643825 -0.03447800000000004
vn 0.981411 0.186591 -0.04490800000000001
vn -0.470846 0.881957 0.021346999999999946
vn -0.449109 0.893226 0.021190999999999946
vn 0.970541 0.230316 -0.07074200000000001
vn -0.057668 0.998325 0.004572999999999939
vn 0.734973 0.676075 -0.05232700000000004
vn 0.975339 0.209213 -0.07030900000000001
vn -0.578352 0.814746 0.04121099999999995
vn -0.539054 0.841319 0.04004099999999995
vn 0.503326 -0.864093 -0.002563999999999947
vn -0.861263 -0.508142 0.004221000000000031
vn 0.00391 -0.999992 0.00015000000000006122
vn 0.506465 -0.862257 -0.0024319999999999472
vn -0.999989 -0.00048199999999999974 0.004656
vn -0.999943 -0.009429 0.0050230000000000006
vn 0.501383 -0.865226 -0.000259999999999947
vn -0.865266 -0.501312 0.0004860000000000307
vn 0.001598 -0.999999 6.600000000006124E-05
vn 0.502689 -0.864467 -0.00020299999999994707
vn -1 -7.899999999999997E-05 0.000525
vn -0.999999 -0.001516 0.0005800000000000001
vn -0.763859 0.036768000000000044 0.644335
vn -0.7623 0.034410000000000045 0.646309
vn -0.763859 0.036768000000000044 0.644335
vn -0.76541 0.03912500000000004 0.642353
vn -0.704795 0.03839100000000004 0.708371
vn -0.702267 0.03551000000000004 0.711027
vn -0.704795 0.03839100000000004 0.708371
vn -0.707308 0.041271000000000044 0.7057
vn -0.766305 0.03739599999999996 -0.641388
vn 0.769028 -0.03333899999999996 0.638345
vn 0.053956 0.998241 -0.024559000000000063
vn -0.763755 0.03854499999999996 -0.644355
vn -0.766305 0.03739599999999996 -0.641388
vn -0.768843 0.03624699999999996 -0.63841
vn 0.053959 0.998241 -0.02456000000000006
vn 0.76664 -0.03193999999999996 0.641282
vn -0.809178 0.036079999999999966 -0.586455
vn 0.812783 -0.031140999999999964 0.581733
vn 0.047099 0.99888 -0.004514000000000061
vn -0.805754 0.037450999999999963 -0.591065
vn -0.809178 0.036079999999999966 -0.586455
vn -0.812573 0.03470699999999997 -0.581825
vn 0.047095 0.99888 -0.004512000000000062
vn 0.809515 -0.029373999999999966 0.586364
vn 0.043568 -0.0034429999999999387 0.999045
vn 0.023388 -0.00933099999999994 0.999683
vn 0.043568 -0.0034429999999999387 0.999045
vn 0.043568 -0.0034429999999999387 0.999045
vn 0.691895 -0.721992 0.0029710000000000444
vn 0.693673 -0.720281 0.003558000000000044
vn 0.691895 -0.721992 0.0029710000000000444
vn 0.690113 -0.723698 0.002384000000000044
vn -0.999807 0.018236 0.007294999999999999
vn -0.999807 0.018243 0.007292999999999999
vn -0.019874 -0.999557 0.022155000000000064
vn -0.018569 -0.999577 0.022383000000000063
vn -0.019874 -0.999557 0.022155000000000064
vn -0.021179 -0.999535 0.02192700000000006
vn -0.999807 0.018244 0.007264999999999999
vn -0.999807 0.018241 0.007264999999999999
vn -0.692411 0.721473 -0.006656000000000044
vn -0.691073 0.72275 -0.007173000000000044
vn -0.692411 0.721473 -0.006656000000000044
vn -0.693746 0.720193 -0.006139000000000045
vn -0.021242 -0.999606 0.01833000000000006
vn -0.019905 -0.999629 0.018565000000000064
vn 0.691579 -0.722288 -0.004257999999999955
vn 0.689562 -0.724209 -0.005025999999999956
vn 0.691579 -0.722288 -0.004257999999999955
vn 0.693591 -0.720361 -0.003489999999999956
vn -0.999829 0.015503 -0.010119000000000001
vn -0.999788 0.017708 -0.010487000000000002
vn 0.028328 -0.999525 0.01213500000000006
vn -0.030881 0.999467 -0.01063100000000006
vn -0.816146 -0.021932999999999966 0.57743
vn 0.028113 -0.999533 0.01196100000000006
vn 0.575839 0.029997000000000048 0.817013
vn 0.577863 0.03361400000000005 0.815442
vn 0.575839 0.029997000000000048 0.817013
vn 0.573803 0.02638000000000005 0.818568
vn 0.028328 -0.999525 0.01213500000000006
vn 0.028543 -0.999517 0.01231000000000006
vn -0.816518 -0.021716999999999965 0.576911
vn -0.030871 0.999467 -0.010602000000000061
vn -0.706546 -0.028174000000000043 -0.707106
vn -0.706546 -0.02817500000000004 -0.707106
vn -0.706546 -0.028174000000000043 -0.707106
vn -0.706546 -0.028174000000000043 -0.707106
vn 0.706545 0.02817500000000004 0.707107
vn 0.706545 0.02817600000000004 0.707107
vn 0.706545 0.02817500000000004 0.707107
vn 0.706546 0.028174000000000043 0.707106
vn 0.706541 0.028174999999999957 -0.707111
vn 0.706543 0.028175999999999958 -0.707109
vn 0.039846 -0.999206 6.118372147944151E-17
vn -0.706543 -0.02817399999999996 0.707109
vn -0.005645 -0.999984 6.123136023992835E-17
vn -0.005645 -0.999984 6.123136023992835E-17
vn -0.005645 -0.999984 6.123136023992835E-17
vn -0.005645 -0.999984 6.123136023992835E-17
vn 0.005645 0.999984 -6.123136023992835E-17
vn 0.005645 0.999984 -6.123136023992835E-17
vn 0.005645 0.999984 -6.123136023992835E-17
vn 0.005645 0.999984 -6.123136023992835E-17
vn 0.999883 -0.015271 9.350790634889616E-19
vn 0.999883 -0.015271 9.350790634889616E-19
vn 0.999883 -0.015271 9.350790634889616E-19
vn 0.999883 -0.015271 9.350790634889616E-19
vn -0.999883 0.015271 -9.350790634889616E-19
vn -0.999883 0.015271 -9.350790634889616E-19
vn -0.999883 0.015271 -9.350790634889616E-19
vn -0.999883 0.015271 -9.350790634889616E-19
vn -0.002841 -0.999996 6.123209502800783E-17
vn -0.002841 -0.999996 6.123209502800783E-17
vn -0.002841 -0.999996 6.123209502800783E-17
vn -0.002841 -0.999996 6.123209502800783E-17
vn 0.002841 0.999996 -6.123209502800783E-17
vn 0.002841 0.999996 -6.123209502800783E-17
vn 0.002841 0.999996 -6.123209502800783E-17
vn 0.002841 0.999996 -6.123209502800783E-17
vn -0.009009 -0.999959 -9.699999999993877E-05
vn -0.009091 -0.999959 -9.9999999993877E-07
vn -0.009009 -0.999959 -9.699999999993877E-05
vn -0.009009 -0.999959 -9.699999999993877E-05
vn 0.008071 0.999967 -0.0010950000000000612
vn -0.004241 0.24301800000000007 0.970013
vn -0.004241 0.24301800000000007 0.970013
vn -0.017449 0.999848 -6.122303264169414E-17
vn -0.017449 0.999848 -6.122303264169414E-17
vn -0.017449 0.999848 -6.122303264169414E-17
vn -0.017449 0.999848 -6.122303264169414E-17
vn 0.999848 0.017451 -1.068565564596023E-18
vn -0.999848 -0.01745 -9.999999999989314E-07
vn -0.232789 -0.024628999999999943 0.972215
vn -0.235881 -0.02135999999999994 0.971547
vn -0.232789 -0.024628999999999943 0.972215
vn -0.229692 -0.027896999999999943 0.972863
vn -0.968372 -0.015392000000000015 -0.249037
vn -0.968371 -0.015390000000000015 -0.249041
vn -0.968372 -0.015392000000000015 -0.249037
vn -0.968373 -0.015393000000000016 -0.249034
vn -0.015496 0.99972 0.01790199999999994
vn -0.015611 0.999715 0.01806899999999994
vn 0.969359 0.012130000000000016 0.245348
vn 0.969519 0.011894000000000016 0.244726
vn 0.999848 0.017451 9.999999999989314E-07
vn -0.999848 -0.01745 1.0685043322560658E-18
vn -0.004242 0.24301700000000007 0.970013
vn -0.004241 0.24301800000000007 0.970013
vn 0.004137 -0.00018699999999993876 0.999991
vn 0.004137 -0.00018699999999993876 0.999991
vn -0.998981 0.045133 -2.7635991992958745E-18
vn -0.998981 0.045133 -2.7635991992958745E-18
vn 0.045128 0.998981 6.99999999993883E-06
vn 0.04513 0.998981 1.99999999993883E-06
vn 0.999879 -0.014796 -0.004799999999999999
vn 0.99975 -0.01925 -0.011340999999999999
vn -0.045129 -0.998981 6.11699442029511E-17
vn -0.045129 -0.998981 1.00000000006117E-06
vn -0.045129 -0.998981 6.11699442029511E-17
vn -0.045129 -0.998981 6.11699442029511E-17
vn 0.998981 -0.045136 2.763782896315747E-18
vn 0.998981 -0.045136 2.763782896315747E-18
vn 0.045098 0.998983 -6.117006666763102E-17
vn 0.045098 0.998983 -6.117006666763102E-17
vn 0.045124 0.998981 -6.11699442029511E-17
vn 0.045124 0.998981 -6.11699442029511E-17
vn 0.995956 0.089841 -5.501174654109868E-18
vn 0.995956 0.089841 -5.501174654109868E-18
vn 0.089839 -0.995956 6.098471637458007E-17
vn 0.089839 -0.995956 6.098471637458007E-17
vn -0.995956 -0.089839 5.501052189429954E-18
vn -0.995956 -0.089839 5.501052189429954E-18
vn -0.995956 -0.089839 5.501052189429954E-18
vn -0.995956 -0.089839 5.501052189429954E-18
vn 0.999863 -0.016538 7.600000000000102E-05
vn 0.999863 -0.016558 3.800000000000102E-05
vn -0.016598 -0.999862 6.122388989445354E-17
vn -0.016598 -0.999862 6.122388989445354E-17
vn -0.999862 0.016595 -1.0161506815925162E-18
vn -0.999862 0.016595 -1.0161506815925162E-18
vn -0.999862 0.016595 -1.0161506815925162E-18
vn -0.999862 0.016595 -1.0161506815925162E-18
vn 0.866025 3.061616997868383E-17 0.5
vn -1.3E-05 6.123233995736766E-17 1
vn 0.053962 0.998241 -0.024561000000000062
vn 0.053959 0.998241 -0.02456000000000006
vn 0.76424 -0.03054099999999996 0.644209
vn 0.76664 -0.03193999999999996 0.641282
vn -0.057951 -0.997548 0.03922700000000006
vn -0.05794 -0.99755 0.03920600000000006
vn -0.057951 -0.997548 0.03922700000000006
vn -0.057963 -0.997547 0.03924700000000006
vn 0.04709 0.99888 -0.004510000000000062
vn 0.047095 0.99888 -0.004512000000000062
vn 0.806218 -0.027606999999999965 0.590974
vn 0.809515 -0.029373999999999966 0.586364
vn -0.050529 -0.99846 0.022918000000000063
vn -0.050532 -0.998459 0.022925000000000063
vn -0.050529 -0.99846 0.022918000000000063
vn -0.050526 -0.99846 0.022911000000000063
vn 0.023388 -0.00933099999999994 0.999683
vn 0.023388 -0.00933099999999994 0.999683
vn -0.999807 0.01825 0.007291999999999999
vn -0.999807 0.018243 0.007292999999999999
vn -0.999807 0.018239 0.007265999999999999
vn -0.999807 0.018241 0.007264999999999999
vn -0.018568 -0.999651 0.01880100000000006
vn -0.019905 -0.999629 0.018565000000000064
vn -0.999829 0.015503 -0.010119000000000001
vn -0.999864 0.013299 -0.009751
vn -0.816891 -0.021500999999999965 0.576391
vn -0.816518 -0.021716999999999965 0.576911
vn -0.03086 0.999468 -0.01057400000000006
vn -0.030871 0.999467 -0.010602000000000061
vn 0.812991 0.025305999999999964 -0.581726
vn 0.812993 0.025306999999999965 -0.581723
vn 0.812991 0.025305999999999964 -0.581726
vn 0.812989 0.025303999999999965 -0.581729
vn 0.706541 0.028174999999999957 -0.707111
vn 0.706539 0.02817399999999996 -0.707113
vn 0.039848 -0.999206 1.0000000000611837E-06
vn 0.039846 -0.999206 6.118372147944151E-17
vn 0.039845 -0.999206 6.118372147944151E-17
vn -0.706543 -0.02817399999999996 0.707109
vn -0.706543 -0.02817399999999996 0.707109
vn -0.706543 -0.02817399999999996 0.707109
vn -0.039844 0.999206 1.999999999938816E-06
vn -0.039841 0.999206 5.999999999938816E-06
vn -0.039844 0.999206 1.999999999938816E-06
vn -0.039847 0.999206 -2.0000000000611836E-06
vn 0.008071 0.999967 -0.0010950000000000612
vn 0.008071 0.999967 -0.0010950000000000612
vn 0.009091 0.999959 9.699999999993877E-05
vn 0.009091 0.999959 9.699999999993877E-05
vn 0.009091 0.999959 9.699999999993877E-05
vn 0.999848 0.017451 -1.068565564596023E-18
vn 0.999848 0.017451 -1.068565564596023E-18
vn -0.999848 -0.01745 1.0685043322560658E-18
vn -0.999848 -0.01745 1.0685043322560658E-18
vn -0.015727 0.99971 0.018236999999999937
vn -0.015611 0.999715 0.01806899999999994
vn 0.969679 0.011658000000000016 0.244103
vn 0.969519 0.011894000000000016 0.244726
vn 0.018917 -0.999666 -0.017597999999999937
vn 0.018894 -0.999663 -0.017784999999999936
vn 0.018917 -0.999666 -0.017597999999999937
vn 0.018941 -0.999669 -0.017410999999999937
vn 0.01745 -0.999848 -9.999999999387768E-07
vn 0.01745 -0.999848 -9.999999999387768E-07
vn 0.01745 -0.999848 -9.999999999387768E-07
vn 0.017451 -0.999848 6.122303264169414E-17
vn -0.899452 0.43702 -2.6759757208168815E-17
vn -0.071239 0.997459 -6.107674858153598E-17
vn -0.071239 0.997459 -6.107674858153598E-17
vn -0.56912 -0.822254 5.034853645930539E-17
vn -0.996652 0.081761 -5.006417347254337E-18
vn -0.996652 0.081761 -5.006417347254337E-18
vn 0.979612 -0.200899 8.40000000000123E-05
vn 0.314671 -0.9492 0.0009700000000000582
vn 0.314671 -0.9492 0.0009700000000000582
vn -0.008574 0.999963 0.0002829999999999388
vn 0.864868 0.501988 0.0035519999999999692
vn 0.864868 0.501988 0.0035519999999999692
vn -0.852236 0.05072300000000003 0.520693
vn 0.000923 0.045241000000000066 0.998976
vn 0.000923 0.045241000000000066 0.998976
vn 0.040581 0.999175 -0.001452000000000061
vn 0.040581 0.999175 -0.001452000000000061
vn 0.764396 0.643825 -0.03447800000000004
vn -0.057668 0.998325 0.004572999999999939
vn -0.057668 0.998325 0.004572999999999939
vn 0.734973 0.676075 -0.05232700000000004
vn 0.00391 -0.999992 0.00015000000000006122
vn -0.861263 -0.508142 0.004221000000000031
vn -0.861263 -0.508142 0.004221000000000031
vn 0.001598 -0.999999 6.600000000006124E-05
vn -0.865266 -0.501312 0.0004860000000000307
vn -0.865266 -0.501312 0.0004860000000000307
g bazaar
f 336/336/336 339/339/339 338/338/338
f 338/338/338 337/337/337 336/336/336
f 204/204/204 335/335/335 334/334/334
f 334/334/334 333/333/333 204/204/204
f 203/203/203 332/332/332 331/331/331
f 331/331/331 330/330/330 203/203/203
f 201/201/201 329/329/329 328/328/328
f 328/328/328 202/202/202 201/201/201
f 199/199/199 198/198/198 197/197/197
f 197/197/197 200/200/200 199/199/199
f 195/195/195 194/194/194 193/193/193
f 193/193/193 196/196/196 195/195/195
f 324/324/324 327/327/327 326/326/326
f 326/326/326 325/325/325 324/324/324
f 192/192/192 182/182/182 323/323/323
f 323/323/323 322/322/322 192/192/192
f 191/191/191 183/183/183 321/321/321
f 321/321/321 320/320/320 191/191/191
f 189/189/189 184/184/184 181/181/181
f 181/181/181 190/190/190 189/189/189
f 187/187/187 186/186/186 185/185/185
f 185/185/185 188/188/188 187/187/187
f 318/318/318 319/319/319 179/179/179
f 179/179/179 180/180/180 318/318/318
f 177/177/177 176/176/176 175/175/175
f 175/175/175 178/178/178 177/177/177
f 174/174/174 173/173/173 317/317/317
f 317/317/317 316/316/316 174/174/174
f 171/171/171 170/170/170 169/169/169
f 169/169/169 172/172/172 171/171/171
f 168/168/168 167/167/167 315/315/315
f 315/315/315 314/314/314 168/168/168
f 165/165/165 164/164/164 163/163/163
f 163/163/163 166/166/166 165/165/165
f 162/162/162 161/161/161 313/313/313
f 313/313/313 312/312/312 162/162/162
f 159/159/159 158/158/158 157/157/157
f 157/157/157 160/160/160 159/159/159
f 311/311/311 154/154/154 310/310/310
f 153/153/153 156/156/156 155/155/155
f 306/306/306 309/309/309 308/308/308
f 308/308/308 307/307/307 306/306/306
f 152/152/152 146/146/146 305/305/305
f 305/305/305 304/304/304 152/152/152
f 151/151/151 147/147/147 303/303/303
f 303/303/303 302/302/302 151/151/151
f 149/149/149 148/148/148 145/145/145
f 145/145/145 150/150/150 149/149/149
f 298/298/298 301/301/301 300/300/300
f 300/300/300 299/299/299 298/298/298
f 144/144/144 138/138/138 297/297/297
f 297/297/297 296/296/296 144/144/144
f 143/143/143 139/139/139 295/295/295
f 295/295/295 294/294/294 143/143/143
f 141/141/141 140/140/140 137/137/137
f 137/137/137 142/142/142 141/141/141
f 135/135/135 134/134/134 133/133/133
f 133/133/133 136/136/136 135/135/135
f 131/131/131 130/130/130 129/129/129
f 129/129/129 132/132/132 131/131/131
f 128/128/128 127/127/127 387/387/387
f 386/386/386 385/385/385 128/128/128
f 125/125/125 124/124/124 123/123/123
f 123/123/123 126/126/126 125/125/125
f 122/122/122 121/121/121 384/384/384
f 383/383/383 382/382/382 122/122/122
f 119/119/119 118/118/118 117/117/117
f 117/117/117 120/120/120 119/119/119
f 116/116/116 381/381/381 380/380/380
f 379/379/379 115/115/115 116/116/116
f 113/113/113 114/114/114 111/111/111
f 111/111/111 112/112/112 113/113/113
f 110/110/110 378/378/378 377/377/377
f 376/376/376 109/109/109 110/110/110
f 107/107/107 108/108/108 105/105/105
f 105/105/105 106/106/106 107/107/107
f 104/104/104 103/103/103 375/375/375
f 374/374/374 373/373/373 104/104/104
f 101/101/101 100/100/100 99/99/99
f 99/99/99 102/102/102 101/101/101
f 98/98/98 97/97/97 372/372/372
f 371/371/371 370/370/370 98/98/98
f 95/95/95 94/94/94 93/93/93
f 93/93/93 96/96/96 95/95/95
f 92/92/92 91/91/91 369/369/369
f 368/368/368 367/367/367 92/92/92
f 89/89/89 88/88/88 87/87/87
f 87/87/87 90/90/90 89/89/89
f 86/86/86 85/85/85 366/366/366
f 365/365/365 364/364/364 86/86/86
f 83/83/83 82/82/82 81/81/81
f 81/81/81 84/84/84 83/83/83
f 80/80/80 79/79/79 363/363/363
f 362/362/362 361/361/361 80/80/80
f 77/77/77 76/76/76 75/75/75
f 75/75/75 78/78/78 77/77/77
f 74/74/74 73/73/73 293/293/293
f 293/293/293 292/292/292 74/74/74
f 71/71/71 70/70/70 69/69/69
f 69/69/69 72/72/72 71/71/71
f 67/67/67 66/66/66 65/65/65
f 65/65/65 68/68/68 67/67/67
f 288/288/288 291/291/291 290/290/290
f 290/290/290 289/289/289 288/288/288
f 64/64/64 63/63/63 287/287/287
f 287/287/287 286/286/286 64/64/64
f 62/62/62 61/61/61 285/285/285
f 285/285/285 284/284/284 62/62/62
f 59/59/59 58/58/58 57/57/57
f 57/57/57 60/60/60 59/59/59
f 55/55/55 54/54/54 53/53/53
f 53/53/53 56/56/56 55/55/55
f 280/280/280 283/283/283 282/282/282
f 282/282/282 281/281/281 280/280/280
f 52/52/52 51/51/51 279/279/279
f 279/279/279 278/278/278 52/52/52
f 50/50/50 49/49/49 277/277/277
f 277/277/277 276/276/276 50/50/50
f 47/47/47 46/46/46 45/45/45
f 45/45/45 48/48/48 47/47/47
f 43/43/43 42/42/42 41/41/41
f 41/41/41 44/44/44 43/43/43
f 40/40/40 39/39/39 275/275/275
f 275/275/275 274/274/274 40/40/40
f 37/37/37 36/36/36 35/35/35
f 35/35/35 38/38/38 37/37/37
f 34/34/34 33/33/33 273/273/273
f 273/273/273 272/272/272 34/34/34
f 31/31/31 30/30/30 29/29/29
f 29/29/29 32/32/32 31/31/31
f 28/28/28 27/27/27 271/271/271
f 271/271/271 270/270/270 28/28/28
f 25/25/25 24/24/24 23/23/23
f 23/23/23 26/26/26 25/25/25
f 266/266/266 269/269/269 268/268/268
f 268/268/268 267/267/267 266/266/266
f 22/22/22 21/21/21 265/265/265
f 265/265/265 264/264/264 22/22/22
f 20/20/20 19/19/19 263/263/263
f 263/263/263 262/262/262 20/20/20
f 17/17/17 16/16/16 15/15/15
f 15/15/15 18/18/18 17/17/17
f 14/14/14 13/13/13 261/261/261
f 261/261/261 260/260/260 14/14/14
f 11/11/11 10/10/10 9/9/9
f 9/9/9 12/12/12 11/11/11
f 259/259/259 6/6/6 258/258/258
f 5/5/5 8/8/8 7/7/7
f 3/3/3 2/2/2 1/1/1
f 1/1/1 4/4/4 3/3/3
g Standard_9
f 344/344/344 343/343/343 342/342/342
f 341/341/341 233/233/233 340/340/340
f 231/231/231 230/230/230 229/229/229
f 229/229/229 232/232/232 231/231/231
f 227/227/227 226/226/226 225/225/225
f 225/225/225 228/228/228 227/227/227
f 223/223/223 222/222/222 221/221/221
f 221/221/221 224/224/224 223/223/223
f 219/219/219 218/218/218 217/217/217
f 217/217/217 220/220/220 219/219/219
f 215/215/215 214/214/214 213/213/213
f 213/213/213 216/216/216 215/215/215
f 211/211/211 210/210/210 209/209/209
f 209/209/209 212/212/212 211/211/211
f 207/207/207 206/206/206 205/205/205
f 205/205/205 208/208/208 207/207/207
g bazaar
f 347/347/347 348/348/348 255/255/255
f 255/255/255 241/241/241 347/347/347
f 240/240/240 254/254/254 346/346/346
f 346/346/346 345/345/345 240/240/240
f 238/238/238 237/237/237 236/236/236
f 236/236/236 239/239/239 238/238/238
f 257/257/257 235/235/235 234/234/234
f 234/234/234 256/256/256 257/257/257
g bazaar
f 353/353/353 356/356/356 355/355/355
f 355/355/355 354/354/354 353/353/353
f 253/253/253 252/252/252 352/352/352
f 352/352/352 351/351/351 253/253/253
f 251/251/251 250/250/250 350/350/350
f 350/350/350 349/349/349 251/251/251
f 248/248/248 247/247/247 246/246/246
f 246/246/246 249/249/249 248/248/248
f 244/244/244 243/243/243 242/242/242
f 242/242/242 245/245/245 244/244/244
g bazaar
f 357/357/357 360/360/360 359/359/359
f 359/359/359 358/358/358 357/357/357
