v 0.064303 -0.11118 0.020640000000000006
v 0.064303 -0.11118 0.055144000000000006
v -0.132317 -0.077482 0.055144000000000006
v -0.132317 -0.077482 0.020640000000000002
v 0.099665 0.095151 0.02063999999999999
v 0.099665 0.095151 0.05514399999999999
v 0.064303 -0.11118 0.055144000000000006
v 0.064303 -0.11118 0.020640000000000006
v -0.096956 0.128848 0.02063999999999999
v -0.096956 0.128848 0.05514399999999999
v 0.099665 0.095151 0.05514399999999999
v 0.099665 0.095151 0.02063999999999999
v -0.132317 -0.077482 0.020640000000000002
v -0.132317 -0.077482 0.055144000000000006
v -0.096956 0.128848 0.05514399999999999
v -0.096956 0.128848 0.02063999999999999
v -0.132317 -0.077482 0.055144000000000006
v 0.064303 -0.11118 0.055144000000000006
v 0.099665 0.095151 0.05514399999999999
v -0.096956 0.128848 0.05514399999999999
v 0.064303 -0.11117999999999999 0.174245
v 0.064303 -0.11117999999999999 0.208749
v -0.132318 -0.07748199999999998 0.208749
v -0.132318 -0.07748199999999998 0.174245
v 0.099665 0.09515100000000001 0.174245
v 0.099665 0.09515100000000001 0.208749
v 0.064303 -0.11117999999999999 0.208749
v 0.064303 -0.11117999999999999 0.174245
v -0.096956 0.128848 0.174245
v -0.096956 0.128848 0.208749
v 0.099665 0.09515100000000001 0.208749
v 0.099665 0.09515100000000001 0.174245
v -0.132318 -0.07748199999999998 0.174245
v -0.132318 -0.07748199999999998 0.208749
v -0.096956 0.128848 0.208749
v -0.096956 0.128848 0.174245
v -0.132318 -0.07748199999999998 0.208749
v 0.064303 -0.11117999999999999 0.208749
v 0.099665 0.09515100000000001 0.208749
v -0.096956 0.128848 0.208749
v -0.124179 -0.07336999999999999 0.225448
v -0.124179 -0.07337 0.004422000000000004
v 0.058999 -0.104763 0.004422000000000006
v 0.058999 -0.10476299999999998 0.225448
v 0.058999 -0.10476299999999998 0.225448
v 0.058999 -0.104763 0.004422000000000006
v 0.0925 0.090712 0.0044219999999999945
v 0.092501 0.09071200000000001 0.225448
v 0.092501 0.09071200000000001 0.225448
v 0.0925 0.090712 0.0044219999999999945
v -0.090677 0.122106 0.004421999999999992
v -0.090677 0.12210600000000002 0.225448
v -0.090677 0.12210600000000002 0.225448
v -0.090677 0.122106 0.004421999999999992
v -0.124179 -0.07337 0.004422000000000004
v -0.124179 -0.07336999999999999 0.225448
v -0.124179 -0.07336999999999999 0.225448
v 0.058999 -0.10476299999999998 0.225448
v 0.092501 0.09071200000000001 0.225448
v -0.090677 0.12210600000000002 0.225448
vt 0.483301 0.968737
vt 0.483301 0.884340
vt 0.971873 0.884340
vt 0.971873 0.968737
vt 0.976864 0.964805
vt 0.976864 0.883163
vt 0.481200 0.883163
vt 0.481200 0.964805
vt 0.971873 0.968737
vt 0.971873 0.884340
vt 0.483301 0.884340
vt 0.483301 0.968737
vt 0.481200 0.964805
vt 0.481200 0.883163
vt 0.976864 0.883163
vt 0.976864 0.964805
vt 0.007717 0.999551
vt 0.007717 0.497899
vt 0.483038 0.497899
vt 0.483038 0.999551
vt 0.483301 0.620968
vt 0.483301 0.536571
vt 0.971873 0.536571
vt 0.971873 0.620968
vt 0.976864 0.617036
vt 0.976864 0.535395
vt 0.481200 0.535395
vt 0.481200 0.617036
vt 0.971873 0.620968
vt 0.971873 0.536571
vt 0.483301 0.536571
vt 0.483301 0.620968
vt 0.481200 0.617036
vt 0.481200 0.535395
vt 0.976864 0.535395
vt 0.976864 0.617036
vt 0.007717 0.999551
vt 0.007717 0.497899
vt 0.483038 0.497899
vt 0.483038 0.999551
vt 0.488141 0.495889
vt 0.493605 0.995018
vt 0.976714 0.995011
vt 0.976714 0.495889
vt 0.491248 0.499542
vt 0.491248 0.996525
vt 0.966998 0.997899
vt 0.966998 0.499542
vt 0.976714 0.495889
vt 0.976714 0.994491
vt 0.488141 0.994491
vt 0.488141 0.495889
vt 0.966997 0.499542
vt 0.966997 0.999801
vt 0.496712 0.998506
vt 0.491248 0.499542
vt 0.006452 1.003116
vt 0.006452 0.498930
vt 0.489094 0.498930
vt 0.489094 1.003116
vn -0.168921 -0.985629 6.035236999984033E-17
vn -0.168921 -0.985629 6.035236999984033E-17
vn -0.168921 -0.985629 6.035236999984033E-17
vn -0.168921 -0.985629 6.035236999984033E-17
vn 0.985629 -0.168921 1.0343428097938502E-17
vn 0.985629 -0.168921 1.0343428097938502E-17
vn 0.985629 -0.168921 1.0343428097938502E-17
vn 0.985629 -0.168921 1.0343428097938502E-17
vn 0.168921 0.985629 -6.035236999984033E-17
vn 0.168921 0.985629 -6.035236999984033E-17
vn 0.168921 0.985629 -6.035236999984033E-17
vn 0.168921 0.985629 -6.035236999984033E-17
vn -0.985629 0.168921 -1.0343428097938502E-17
vn -0.985629 0.168921 -1.0343428097938502E-17
vn -0.985629 0.168921 -1.0343428097938502E-17
vn -0.985629 0.168921 -1.0343428097938502E-17
vn 0 6.123233995736766E-17 1
vn 0 6.123233995736766E-17 1
vn 0 6.123233995736766E-17 1
vn 0 6.123233995736766E-17 1
vn -0.168921 -0.985629 6.035236999984033E-17
vn -0.168921 -0.985629 6.035236999984033E-17
vn -0.168921 -0.985629 6.035236999984033E-17
vn -0.168921 -0.985629 6.035236999984033E-17
vn 0.985629 -0.168921 1.0343428097938502E-17
vn 0.985629 -0.168921 1.0343428097938502E-17
vn 0.985629 -0.168921 1.0343428097938502E-17
vn 0.985629 -0.168921 1.0343428097938502E-17
vn 0.168921 0.985629 -6.035236999984033E-17
vn 0.168921 0.985629 -6.035236999984033E-17
vn 0.168921 0.985629 -6.035236999984033E-17
vn 0.168921 0.985629 -6.035236999984033E-17
vn -0.985629 0.168921 -1.0343428097938502E-17
vn -0.985629 0.168921 -1.0343428097938502E-17
vn -0.985629 0.168921 -1.0343428097938502E-17
vn -0.985629 0.168921 -1.0343428097938502E-17
vn 0 6.123233995736766E-17 1
vn 0 6.123233995736766E-17 1
vn 0 6.123233995736766E-17 1
vn 0 6.123233995736766E-17 1
vn -0.168921 -0.985629 6.035236999984033E-17
vn -0.168921 -0.985629 6.035236999984033E-17
vn -0.168921 -0.985629 6.035236999984033E-17
vn -0.168921 -0.985629 6.035236999984033E-17
vn 0.985629 -0.168921 1.0343428097938502E-17
vn 0.985629 -0.168921 1.0343428097938502E-17
vn 0.985629 -0.168921 1.0343428097938502E-17
vn 0.985629 -0.168921 1.0343428097938502E-17
vn 0.168921 0.985629 -6.035236999984033E-17
vn 0.168921 0.985629 -6.035236999984033E-17
vn 0.168921 0.985629 -6.035236999984033E-17
vn 0.168921 0.985629 -6.035236999984033E-17
vn -0.985629 0.168921 -1.0343428097938502E-17
vn -0.985629 0.168921 -1.0343428097938502E-17
vn -0.985629 0.168921 -1.0343428097938502E-17
vn -0.985629 0.168921 -1.0343428097938502E-17
vn 0 6.123233995736766E-17 1
vn 0 6.123233995736766E-17 1
vn 0 6.123233995736766E-17 1
vn 0 6.123233995736766E-17 1
g Standard_6
f 1/1/1 2/2/2 3/3/3
f 3/3/3 4/4/4 1/1/1
f 5/5/5 6/6/6 7/7/7
f 7/7/7 8/8/8 5/5/5
f 9/9/9 10/10/10 11/11/11
f 11/11/11 12/12/12 9/9/9
f 13/13/13 14/14/14 15/15/15
f 15/15/15 16/16/16 13/13/13
f 17/17/17 18/18/18 19/19/19
f 19/19/19 20/20/20 17/17/17
f 21/21/21 22/22/22 23/23/23
f 23/23/23 24/24/24 21/21/21
f 25/25/25 26/26/26 27/27/27
f 27/27/27 28/28/28 25/25/25
f 29/29/29 30/30/30 31/31/31
f 31/31/31 32/32/32 29/29/29
f 33/33/33 34/34/34 35/35/35
f 35/35/35 36/36/36 33/33/33
f 37/37/37 38/38/38 39/39/39
f 39/39/39 40/40/40 37/37/37
f 41/41/41 42/42/42 43/43/43
f 43/43/43 44/44/44 41/41/41
f 45/45/45 46/46/46 47/47/47
f 47/47/47 48/48/48 45/45/45
f 49/49/49 50/50/50 51/51/51
f 51/51/51 52/52/52 49/49/49
f 53/53/53 54/54/54 55/55/55
f 55/55/55 56/56/56 53/53/53
f 57/57/57 58/58/58 59/59/59
f 59/59/59 60/60/60 57/57/57
