v -0.072724 0.11672700000000003 0.370972
v 0.072724 0.11672700000000003 0.370972
v -0.12855 -0.060900999999999976 0.370972
v 0.12855 -0.060900999999999976 0.370972
v -0.236754 0.11216399999999987 -1.952601
v 0.133937 0.2149799999999999 -1.952601
v -0.133937 -0.21498000000000012 -1.952601
v 0.236754 -0.11216400000000012 -1.952601
v -0.12855 0.06090100000000002 0.370972
v 0.12855 0.06090100000000002 0.370972
v -0.072724 -0.11672699999999997 0.370972
v 0.072724 -0.11672699999999997 0.370972
v -0.133937 0.2149799999999999 -1.952601
v 0.236754 0.11216399999999987 -1.952601
v -0.236754 -0.11216400000000012 -1.952601
v 0.133937 -0.21498000000000012 -1.952601
v -0.068099 0.10556200000000003 0.400972
v 0.068099 0.10556200000000003 0.400972
v 0.117385 0.05627700000000003 0.400972
v 0.117385 -0.05627699999999997 0.400972
v 0.068099 -0.10556199999999998 0.400972
v -0.068099 -0.10556199999999998 0.400972
v -0.117385 -0.05627699999999997 0.400972
v -0.117385 0.05627700000000003 0.400972
v -0.044975 0.04973600000000003 0.430972
v 0.044975 0.04973600000000003 0.430972
v 0.061559 0.03315300000000003 0.430972
v 0.061559 -0.033152999999999974 0.430972
v 0.044975 -0.049735999999999975 0.430972
v -0.044975 -0.049735999999999975 0.430972
v -0.061559 -0.033152999999999974 0.430972
v -0.061559 0.03315300000000003 0.430972
v -0.12855 0.06090100000000002 0.370972
v -0.236754 0.11216399999999987 -1.952601
v 0.236754 -0.11216400000000012 -1.952601
v 0.12855 -0.060900999999999976 0.370972
v -0.072724 0.11672700000000003 0.370972
v 0.072724 0.11672700000000003 0.370972
v 0.12855 0.06090100000000002 0.370972
v 0.12855 -0.060900999999999976 0.370972
v 0.072724 -0.11672699999999997 0.370972
v -0.072724 -0.11672699999999997 0.370972
v -0.12855 -0.060900999999999976 0.370972
v -0.12855 0.06090100000000002 0.370972
vt 0.671703 0.526175
vt 0.658204 0.544151
vt 0.651218 0.554136
vt 0.640965 0.569943
vt 0.299407 0.357860
vt 0.331144 0.310377
vt 0.331144 0.310377
vt 0.299407 0.357859
vt 0.640965 0.569943
vt 0.651218 0.554136
vt 0.658204 0.544151
vt 0.671703 0.526174
vt 0.355996 0.277282
vt 0.318286 0.328752
vt 0.318286 0.328752
vt 0.355995 0.277281
vt 0.226616 0.171984
vt 0.226616 0.138863
vt 0.214633 0.126822
vt 0.187281 0.126822
vt 0.175298 0.138863
vt 0.175298 0.171984
vt 0.187281 0.184024
vt 0.214633 0.184024
vt 0.212178 0.165993
vt 0.212179 0.144853
vt 0.208647 0.141299
vt 0.193267 0.141298
vt 0.189736 0.144853
vt 0.189736 0.165993
vt 0.193267 0.169548
vt 0.208647 0.169548
vt 0.679357 0.516665
vt 0.370088 0.259772
vt 0.370087 0.259772
vt 0.679357 0.516665
vt 0.233728 0.174922
vt 0.233728 0.135925
vt 0.217589 0.119704
vt 0.184325 0.119704
vt 0.168187 0.135925
vt 0.168187 0.174922
vt 0.184325 0.191143
vt 0.217589 0.191143
vn -0.32292 0.926689 0.19227699999999995
vn 0.44185 0.862102 0.24809099999999995
vn -0.926446 -0.322851 0.19356000000000004
vn 0.861896 -0.441761 0.24896300000000002
vn -0.922664 0.382163 0.05139799999999998
vn 0.382179 0.922784 0.049087999999999944
vn -0.382179 -0.922784 0.049088000000000055
vn 0.922664 -0.382163 0.05139800000000002
vn -0.861896 0.441761 0.24896299999999996
vn 0.926446 0.322851 0.19355999999999998
vn -0.44185 -0.862102 0.24809100000000006
vn 0.32292 -0.926689 0.19227600000000006
vn -0.382179 0.922784 0.049087999999999944
vn 0.922664 0.382163 0.05139799999999998
vn -0.922664 -0.382163 0.05139800000000002
vn 0.382179 -0.922784 0.049088000000000055
vn -0.301812 0.651801 0.695748
vn 0.247479 0.674306 0.695748
vn 0.651801 0.3018120000000001 0.695748
vn 0.674306 -0.24747899999999995 0.695748
vn 0.301812 -0.651801 0.695748
vn -0.247479 -0.674306 0.695748
vn -0.651801 -0.30181199999999997 0.695748
vn -0.674306 0.24747900000000006 0.695748
vn -0.097297 0.16609700000000005 0.981298
vn 0.085791 0.32844600000000007 0.940619
vn 0.194499 0.11393500000000005 0.974263
vn 0.328446 -0.08579099999999995 0.940619
vn 0.097297 -0.16609699999999994 0.981298
vn -0.085791 -0.32844599999999996 0.940619
vn -0.194499 -0.11393499999999994 0.974263
vn -0.328446 0.08579100000000006 0.940619
vn -0.861896 0.441761 0.24896299999999996
vn -0.922664 0.382163 0.05139799999999998
vn 0.922664 -0.382163 0.05139800000000002
vn 0.861896 -0.441761 0.24896300000000002
vn -0.32292 0.926689 0.19227699999999995
vn 0.44185 0.862102 0.24809099999999995
vn 0.926446 0.322851 0.19355999999999998
vn 0.861896 -0.441761 0.24896300000000002
vn 0.32292 -0.926689 0.19227600000000006
vn -0.44185 -0.862102 0.24809100000000006
vn -0.926446 -0.322851 0.19356000000000004
vn -0.861896 0.441761 0.24896299999999996
g 21 - Default
f 24/24/24 32/32/32 25/25/25
f 25/25/25 17/17/17 24/24/24
f 23/23/23 31/31/31 32/32/32
f 32/32/32 24/24/24 23/23/23
f 22/22/22 30/30/30 31/31/31
f 31/31/31 23/23/23 22/22/22
f 21/21/21 29/29/29 30/30/30
f 30/30/30 22/22/22 21/21/21
f 20/20/20 28/28/28 29/29/29
f 29/29/29 21/21/21 20/20/20
f 19/19/19 27/27/27 28/28/28
f 28/28/28 20/20/20 19/19/19
f 18/18/18 26/26/26 27/27/27
f 27/27/27 19/19/19 18/18/18
f 17/17/17 25/25/25 26/26/26
f 26/26/26 18/18/18 17/17/17
f 44/44/44 24/24/24 17/17/17
f 17/17/17 37/37/37 44/44/44
f 43/43/43 23/23/23 24/24/24
f 24/24/24 44/44/44 43/43/43
f 42/42/42 22/22/22 23/23/23
f 23/23/23 43/43/43 42/42/42
f 41/41/41 21/21/21 22/22/22
f 22/22/22 42/42/42 41/41/41
f 40/40/40 20/20/20 21/21/21
f 21/21/21 41/41/41 40/40/40
f 39/39/39 19/19/19 20/20/20
f 20/20/20 40/40/40 39/39/39
f 38/38/38 18/18/18 19/19/19
f 19/19/19 39/39/39 38/38/38
f 37/37/37 17/17/17 18/18/18
f 18/18/18 38/38/38 37/37/37
f 7/7/7 11/11/11 3/3/3
f 3/3/3 15/15/15 7/7/7
f 35/35/35 36/36/36 12/12/12
f 12/12/12 16/16/16 35/35/35
f 6/6/6 2/2/2 10/10/10
f 10/10/10 14/14/14 6/6/6
f 1/1/1 13/13/13 34/34/34
f 34/34/34 33/33/33 1/1/1
f 3/3/3 9/9/9 5/5/5
f 5/5/5 15/15/15 3/3/3
f 12/12/12 11/11/11 7/7/7
f 7/7/7 16/16/16 12/12/12
f 10/10/10 4/4/4 8/8/8
f 8/8/8 14/14/14 10/10/10
f 1/1/1 2/2/2 6/6/6
f 6/6/6 13/13/13 1/1/1
f 31/31/31 25/25/25 32/32/32
f 31/31/31 29/29/29 25/25/25
f 31/31/31 30/30/30 29/29/29
f 29/29/29 27/27/27 25/25/25
f 29/29/29 28/28/28 27/27/27
f 27/27/27 26/26/26 25/25/25
