v -0.1991272 -0.16852 0.024395600000000014
v 0.1995184 -0.1681284 0.024395600000000014
v -0.1991704 -0.12426600000000002 0.02439560000000001
v 0.1994748 -0.12387440000000001 0.02439560000000001
v -0.1991704 -0.12426600000000002 -0.015073999999999994
v 0.1994748 -0.12387440000000001 -0.015073999999999994
v -0.199214 -0.08001200000000001 -0.015073999999999997
v 0.19943120000000003 -0.07962040000000001 -0.015073999999999997
v -0.199214 -0.08001200000000001 -0.05454400000000001
v 0.19943120000000003 -0.07962040000000001 -0.05454400000000001
v -0.1992576 -0.035758000000000005 -0.05454400000000001
v 0.199388 -0.035366400000000006 -0.05454400000000001
v -0.1992576 -0.035758000000000005 -0.0940136
v 0.199388 -0.035366400000000006 -0.0940136
v -0.1993008 0.008496399999999994 -0.0940136
v 0.1993444 0.008887599999999994 -0.0940136
v -0.1993008 0.008496399999999993 -0.1334836
v 0.1993444 0.008887599999999992 -0.1334836
v -0.1993444 0.05275039999999999 -0.1334836
v 0.1993012 0.05314159999999999 -0.1334836
v -0.1993444 0.05275039999999999 -0.1729536
v 0.1993012 0.05314159999999999 -0.1729536
v -0.199388 0.09700439999999999 -0.1729536
v 0.1992576 0.097396 -0.1729536
v -0.199388 0.09700439999999999 -0.21242320000000003
v 0.1992576 0.097396 -0.21242320000000003
v -0.19943120000000003 0.14125839999999998 -0.21242320000000003
v 0.199214 0.14165 -0.21242320000000003
v -0.19943120000000003 0.14125839999999998 -0.2518932
v 0.199214 0.14165 -0.2518932
v -0.1994748 0.1855124 -0.2518932
v 0.1991708 0.18590399999999999 -0.2518932
v -0.1994748 0.1855124 -0.29136320000000004
v 0.1991708 0.18590399999999999 -0.29136320000000004
v -0.1995184 0.22976640000000004 -0.29136320000000004
v 0.1991272 0.230158 -0.29136320000000004
v -0.1995184 0.22976640000000004 -0.33083280000000004
v 0.1991272 0.230158 -0.33083280000000004
v -0.1991272 -0.16852000000000003 -0.33083280000000004
v 0.1995184 -0.16812840000000004 -0.33083280000000004
v -0.1991272 -0.16852 0.024395600000000014
v 0.1995184 -0.1681284 0.024395600000000014
v -0.1991704 -0.12426600000000002 0.02439560000000001
v 0.1994748 -0.12387440000000001 0.02439560000000001
v -0.1991704 -0.12426600000000002 -0.015073999999999994
v 0.1994748 -0.12387440000000001 -0.015073999999999994
v -0.199214 -0.08001200000000001 -0.015073999999999997
v 0.19943120000000003 -0.07962040000000001 -0.015073999999999997
v -0.199214 -0.08001200000000001 -0.05454400000000001
v 0.19943120000000003 -0.07962040000000001 -0.05454400000000001
v -0.1992576 -0.035758000000000005 -0.05454400000000001
v 0.199388 -0.035366400000000006 -0.05454400000000001
v -0.1992576 -0.035758000000000005 -0.0940136
v 0.199388 -0.035366400000000006 -0.0940136
v -0.1993008 0.008496399999999994 -0.0940136
v 0.1993444 0.008887599999999994 -0.0940136
v -0.1993008 0.008496399999999993 -0.1334836
v 0.1993444 0.008887599999999992 -0.1334836
v -0.1993444 0.05275039999999999 -0.1334836
v 0.1993008 0.053141999999999995 -0.1334836
v -0.1993444 0.05275039999999999 -0.1729536
v 0.1993008 0.053141999999999995 -0.1729536
v -0.199388 0.09700439999999999 -0.1729536
v 0.1992576 0.097396 -0.1729536
v -0.199388 0.09700439999999999 -0.21242320000000003
v 0.1992576 0.097396 -0.21242320000000003
v -0.19943120000000003 0.14125839999999998 -0.21242320000000003
v 0.199214 0.14165 -0.21242320000000003
v -0.19943120000000003 0.14125839999999998 -0.2518932
v 0.199214 0.14165 -0.2518932
v -0.1994748 0.1855124 -0.2518932
v 0.1991704 0.18590399999999999 -0.2518932
v -0.1994748 0.1855124 -0.29136320000000004
v 0.1991704 0.18590399999999999 -0.29136320000000004
v -0.1995184 0.22976640000000004 -0.29136320000000004
v 0.1991272 0.230158 -0.29136320000000004
v -0.1995184 0.22976640000000004 -0.33083280000000004
v 0.1991272 0.230158 -0.33083280000000004
v -0.1995184 0.22976639999999998 -0.7778544000000001
v 0.1991272 0.23015799999999997 -0.7778544000000001
v -0.1991272 -0.16852000000000006 -0.7778544000000001
v 0.1995184 -0.16812840000000007 -0.7778544000000001
v -0.1995184 0.22976639999999998 -0.7778544000000001
v 0.1991272 0.23015799999999997 -0.7778544000000001
v 0.1994748 -0.12387440000000001 0.02439560000000001
v -0.1991704 -0.12426600000000002 0.02439560000000001
v 0.1994748 -0.12387440000000001 -0.015073999999999994
v -0.1991704 -0.12426600000000002 -0.015073999999999994
v 0.19943120000000003 -0.07962040000000001 -0.015073999999999997
v -0.199214 -0.08001200000000001 -0.015073999999999997
v 0.19943120000000003 -0.07962040000000001 -0.05454400000000001
v -0.199214 -0.08001200000000001 -0.05454400000000001
v 0.199388 -0.035366400000000006 -0.05454400000000001
v -0.1992576 -0.035758000000000005 -0.05454400000000001
v 0.199388 -0.035366400000000006 -0.0940136
v -0.1992576 -0.035758000000000005 -0.0940136
v 0.1993444 0.008887599999999994 -0.0940136
v -0.1993008 0.008496399999999994 -0.0940136
v 0.1993444 0.008887599999999992 -0.1334836
v -0.1993008 0.008496399999999993 -0.1334836
v 0.1993008 0.053141999999999995 -0.1334836
v -0.1993444 0.05275039999999999 -0.1334836
v 0.1993008 0.053141999999999995 -0.1729536
v -0.1993444 0.05275039999999999 -0.1729536
v 0.1992576 0.097396 -0.1729536
v -0.199388 0.09700439999999999 -0.1729536
v 0.1992576 0.097396 -0.21242320000000003
v -0.199388 0.09700439999999999 -0.21242320000000003
v 0.199214 0.14165 -0.21242320000000003
v -0.19943120000000003 0.14125839999999998 -0.21242320000000003
v 0.199214 0.14165 -0.2518932
v -0.19943120000000003 0.14125839999999998 -0.2518932
v 0.1991704 0.18590399999999999 -0.2518932
v -0.1994748 0.1855124 -0.2518932
v 0.1991704 0.18590399999999999 -0.29136320000000004
v -0.1994748 0.1855124 -0.29136320000000004
v 0.1991272 0.230158 -0.29136320000000004
v -0.1995184 0.22976640000000004 -0.29136320000000004
v -0.1995184 0.22976640000000004 -0.33083280000000004
v -0.1991272 -0.16852000000000003 -0.33083280000000004
v 0.1995184 -0.16812840000000004 -0.33083280000000004
v 0.1991272 0.230158 -0.33083280000000004
v 0.1991272 0.230158 -0.33083280000000004
v -0.1995184 0.22976640000000004 -0.33083280000000004
vt 0.831626 0.616960
vt 0.831808 0.616960
vt 0.804765 0.616960
vt 0.804946 0.616960
vt 0.804765 0.593002
vt 0.804946 0.593002
vt 0.777903 0.593002
vt 0.778085 0.593002
vt 0.777903 0.569044
vt 0.778084 0.569044
vt 0.751041 0.569044
vt 0.751223 0.569044
vt 0.751041 0.545087
vt 0.751223 0.545087
vt 0.724180 0.545087
vt 0.724362 0.545087
vt 0.724180 0.521129
vt 0.724362 0.521129
vt 0.697318 0.521129
vt 0.697500 0.521129
vt 0.697318 0.497171
vt 0.697500 0.497171
vt 0.670456 0.497171
vt 0.670639 0.497171
vt 0.670456 0.473214
vt 0.670639 0.473214
vt 0.643595 0.473214
vt 0.643777 0.473214
vt 0.643595 0.449256
vt 0.643777 0.449256
vt 0.616734 0.449256
vt 0.616915 0.449256
vt 0.616734 0.425298
vt 0.616915 0.425298
vt 0.589872 0.425298
vt 0.590053 0.425298
vt 0.589872 0.401341
vt 0.590053 0.401341
vt 0.831626 0.401341
vt 0.831808 0.401341
vt 0.985717 0.505439
vt 0.985717 0.994850
vt 0.931441 0.505439
vt 0.931441 0.994850
vt 0.880153 0.505438
vt 0.880154 0.994850
vt 0.823117 0.505439
vt 0.823117 0.994850
vt 0.772089 0.505439
vt 0.772089 0.994850
vt 0.715322 0.505439
vt 0.715322 0.994850
vt 0.664556 0.505439
vt 0.664556 0.994850
vt 0.608022 0.505439
vt 0.608022 0.994850
vt 0.557437 0.505439
vt 0.557437 0.994850
vt 0.501018 0.505439
vt 0.501018 0.994850
vt 0.450474 0.505439
vt 0.450474 0.994850
vt 0.394015 0.505438
vt 0.394016 0.994850
vt 0.343355 0.505438
vt 0.343355 0.994850
vt 0.286715 0.505438
vt 0.286715 0.994850
vt 0.235823 0.505438
vt 0.235823 0.994850
vt 0.178921 0.505438
vt 0.178921 0.994850
vt 0.127758 0.505438
vt 0.127758 0.994850
vt 0.070597 0.505438
vt 0.070597 0.994850
vt 0.019195 0.505438
vt 0.019195 0.994850
vt 1.992414 0.500528
vt 0.550656 0.500528
vt 1.550656 0.500528
vt 0.992414 0.500528
vt 0.067783 0.499099
vt 0.507528 0.499099
vt 0.928441 0.994850
vt 0.928441 0.505439
vt 0.877154 0.994850
vt 0.877153 0.505438
vt 0.820117 0.994850
vt 0.820117 0.505439
vt 0.769089 0.994850
vt 0.769089 0.505439
vt 0.712322 0.994850
vt 0.712322 0.505439
vt 0.661556 0.994850
vt 0.661556 0.505439
vt 0.605022 0.994850
vt 0.605022 0.505439
vt 0.554437 0.994850
vt 0.554437 0.505439
vt 0.498018 0.994850
vt 0.498018 0.505439
vt 0.447474 0.994850
vt 0.447474 0.505439
vt 0.391016 0.994850
vt 0.391015 0.505438
vt 0.340355 0.994850
vt 0.340355 0.505438
vt 0.283715 0.994850
vt 0.283715 0.505438
vt 0.232823 0.994850
vt 0.232823 0.505438
vt 0.175921 0.994850
vt 0.175921 0.505438
vt 0.124758 0.994850
vt 0.124758 0.505438
vt 0.067597 0.994850
vt 0.067597 0.505438
vt 1.992414 0.004717
vt 1.550656 0.004716
vt 0.992414 0.004717
vt 0.550656 0.004716
vt 0.507528 0.005990
vt 0.067783 0.005990
vn -1 -0.000982 6.013015783813505E-20
vn 1 0.000982 -6.013015783813505E-20
vn -1 -0.000982 6.013015783813505E-20
vn 1 0.000982 -6.013015783813505E-20
vn -1 -0.000982 6.013015783813505E-20
vn 1 0.000982 -6.013015783813505E-20
vn -1 -0.000982 6.013015783813505E-20
vn 1 0.000982 -6.013015783813505E-20
vn -1 -0.000982 6.013015783813505E-20
vn 1 0.000982 -6.013015783813505E-20
vn -1 -0.000982 6.013015783813505E-20
vn 1 0.000982 -6.013015783813505E-20
vn -1 -0.000982 6.013015783813505E-20
vn 1 0.000982 -6.013015783813505E-20
vn -1 -0.000982 6.013015783813505E-20
vn 1 0.000981 -6.006892549817768E-20
vn -1 -0.000982 6.013015783813505E-20
vn 1 0.000982 -6.013015783813505E-20
vn -1 -0.000982 6.013015783813505E-20
vn 1 0.000982 -6.013015783813505E-20
vn -1 -0.000982 6.013015783813505E-20
vn 1 0.000982 -6.013015783813505E-20
vn -1 -0.000982 6.013015783813505E-20
vn 1 0.000981 -6.006892549817768E-20
vn -1 -0.000982 6.013015783813505E-20
vn 1 0.000982 -6.013015783813505E-20
vn -1 -0.000982 6.013015783813505E-20
vn 1 0.000984 -6.025262251804978E-20
vn -1 -0.000982 6.013015783813505E-20
vn 1 0.000982 -6.013015783813505E-20
vn -1 -0.000982 6.013015783813505E-20
vn 1 0.000981 -6.006892549817768E-20
vn -1 -0.000982 6.013015783813505E-20
vn 1 0.000981 -6.006892549817768E-20
vn -1 -0.000982 6.013015783813505E-20
vn 1 0.000981 -6.006892549817768E-20
vn -1 -0.000982 6.013015783813505E-20
vn 1 0.000982 -6.013015783813505E-20
vn -1 -0.000982 6.013015783813505E-20
vn 1 0.000982 -6.013015783813505E-20
vn 0 6.123233995736766E-17 1
vn 0 6.123233995736766E-17 1
vn 0 6.123233995736766E-17 1
vn 0 6.123233995736766E-17 1
vn -0.000982 1 -6.123233995736766E-17
vn -0.000982 1 -6.123233995736766E-17
vn 0 6.123233995736766E-17 1
vn 0 6.123233995736766E-17 1
vn -0.000982 1 -6.123233995736766E-17
vn -0.000982 1 -6.123233995736766E-17
vn 0 6.123233995736766E-17 1
vn 0 6.123233995736766E-17 1
vn -0.000982 1 -6.123233995736766E-17
vn -0.000982 1 -6.123233995736766E-17
vn 0 6.123233995736766E-17 1
vn 0 6.123233995736766E-17 1
vn -0.000982 1 -6.123233995736766E-17
vn -0.000982 1 -6.123233995736766E-17
vn 0 6.123233995736766E-17 1
vn 0 6.123233995736766E-17 1
vn -0.000982 1 -6.123233995736766E-17
vn -0.000982 1 -6.123233995736766E-17
vn 0 6.123233995736766E-17 1
vn 0 6.123233995736766E-17 1
vn -0.000982 1 -6.123233995736766E-17
vn -0.000982 1 -6.123233995736766E-17
vn 0 6.123233995736766E-17 1
vn 0 6.123233995736766E-17 1
vn -0.000982 1 -6.123233995736766E-17
vn -0.000982 1 -6.123233995736766E-17
vn 0 6.123233995736766E-17 1
vn 0 6.123233995736766E-17 1
vn -0.000982 1 -6.123233995736766E-17
vn -0.000982 1 -6.123233995736766E-17
vn 0 6.123233995736766E-17 1
vn 0 6.123233995736766E-17 1
vn -0.000982 1 -6.123233995736766E-17
vn -0.000982 1 -6.123233995736766E-17
vn -1 -0.000982 6.013015783813505E-20
vn 1 0.000982 -6.013015783813505E-20
vn -1 -0.000982 6.013015783813505E-20
vn 1 0.000982 -6.013015783813505E-20
vn -0.000982 1 -6.123233995736766E-17
vn -0.000982 1 -6.123233995736766E-17
vn -0.000982 1 -6.123233995736766E-17
vn -0.000982 1 -6.123233995736766E-17
vn 0 6.123233995736766E-17 1
vn 0 6.123233995736766E-17 1
vn -0.000982 1 -6.123233995736766E-17
vn -0.000982 1 -6.123233995736766E-17
vn 0 6.123233995736766E-17 1
vn 0 6.123233995736766E-17 1
vn -0.000982 1 -6.123233995736766E-17
vn -0.000982 1 -6.123233995736766E-17
vn 0 6.123233995736766E-17 1
vn 0 6.123233995736766E-17 1
vn -0.000982 1 -6.123233995736766E-17
vn -0.000982 1 -6.123233995736766E-17
vn 0 6.123233995736766E-17 1
vn 0 6.123233995736766E-17 1
vn -0.000982 1 -6.123233995736766E-17
vn -0.000982 1 -6.123233995736766E-17
vn 0 6.123233995736766E-17 1
vn 0 6.123233995736766E-17 1
vn -0.000982 1 -6.123233995736766E-17
vn -0.000982 1 -6.123233995736766E-17
vn 0 6.123233995736766E-17 1
vn 0 6.123233995736766E-17 1
vn -0.000982 1 -6.123233995736766E-17
vn -0.000982 1 -6.123233995736766E-17
vn 0 6.123233995736766E-17 1
vn 0 6.123233995736766E-17 1
vn -0.000982 1 -6.123233995736766E-17
vn -0.000982 1 -6.123233995736766E-17
vn 0 6.123233995736766E-17 1
vn 0 6.123233995736766E-17 1
vn -0.000982 1 -6.123233995736766E-17
vn -0.000982 1 -6.123233995736766E-17
vn -1 -0.000982 6.013015783813505E-20
vn -1 -0.000982 6.013015783813505E-20
vn 1 0.000982 -6.013015783813505E-20
vn 1 0.000982 -6.013015783813505E-20
vn -0.000982 1 -6.123233995736766E-17
vn -0.000982 1 -6.123233995736766E-17
g 17 - Default
f 123/123/123 84/84/84 83/83/83
f 83/83/83 124/124/124 123/123/123
f 121/121/121 82/82/82 80/80/80
f 80/80/80 122/122/122 121/121/121
f 119/119/119 79/79/79 81/81/81
f 81/81/81 120/120/120 119/119/119
f 78/78/78 77/77/77 118/118/118
f 118/118/118 117/117/117 78/78/78
f 76/76/76 75/75/75 116/116/116
f 116/116/116 115/115/115 76/76/76
f 74/74/74 73/73/73 114/114/114
f 114/114/114 113/113/113 74/74/74
f 72/72/72 71/71/71 112/112/112
f 112/112/112 111/111/111 72/72/72
f 70/70/70 69/69/69 110/110/110
f 110/110/110 109/109/109 70/70/70
f 68/68/68 67/67/67 108/108/108
f 108/108/108 107/107/107 68/68/68
f 66/66/66 65/65/65 106/106/106
f 106/106/106 105/105/105 66/66/66
f 64/64/64 63/63/63 104/104/104
f 104/104/104 103/103/103 64/64/64
f 62/62/62 61/61/61 102/102/102
f 102/102/102 101/101/101 62/62/62
f 60/60/60 59/59/59 100/100/100
f 100/100/100 99/99/99 60/60/60
f 58/58/58 57/57/57 98/98/98
f 98/98/98 97/97/97 58/58/58
f 56/56/56 55/55/55 96/96/96
f 96/96/96 95/95/95 56/56/56
f 54/54/54 53/53/53 94/94/94
f 94/94/94 93/93/93 54/54/54
f 52/52/52 51/51/51 92/92/92
f 92/92/92 91/91/91 52/52/52
f 50/50/50 49/49/49 90/90/90
f 90/90/90 89/89/89 50/50/50
f 48/48/48 47/47/47 88/88/88
f 88/88/88 87/87/87 48/48/48
f 46/46/46 45/45/45 86/86/86
f 86/86/86 85/85/85 46/46/46
f 44/44/44 43/43/43 41/41/41
f 41/41/41 42/42/42 44/44/44
g 21 - Default
f 2/2/2 40/40/40 6/6/6
f 6/6/6 4/4/4 2/2/2
f 6/6/6 40/40/40 10/10/10
f 10/10/10 8/8/8 6/6/6
f 22/22/22 40/40/40 26/26/26
f 26/26/26 24/24/24 22/22/22
f 14/14/14 40/40/40 18/18/18
f 18/18/18 16/16/16 14/14/14
f 30/30/30 40/40/40 34/34/34
f 34/34/34 32/32/32 30/30/30
f 10/10/10 40/40/40 14/14/14
f 14/14/14 12/12/12 10/10/10
f 26/26/26 40/40/40 30/30/30
f 30/30/30 28/28/28 26/26/26
f 18/18/18 40/40/40 22/22/22
f 22/22/22 20/20/20 18/18/18
f 33/33/33 39/39/39 29/29/29
f 29/29/29 31/31/31 33/33/33
f 29/29/29 39/39/39 25/25/25
f 25/25/25 27/27/27 29/29/29
f 25/25/25 39/39/39 21/21/21
f 21/21/21 23/23/23 25/25/25
f 21/21/21 39/39/39 17/17/17
f 17/17/17 19/19/19 21/21/21
f 17/17/17 39/39/39 13/13/13
f 13/13/13 15/15/15 17/17/17
f 13/13/13 39/39/39 9/9/9
f 9/9/9 11/11/11 13/13/13
f 9/9/9 39/39/39 5/5/5
f 5/5/5 7/7/7 9/9/9
f 5/5/5 39/39/39 1/1/1
f 1/1/1 3/3/3 5/5/5
f 38/38/38 36/36/36 34/34/34
f 34/34/34 40/40/40 38/38/38
f 33/33/33 35/35/35 37/37/37
f 37/37/37 39/39/39 33/33/33
