v 1.419775 -0.842756 -0.025084999999999948
v 1.437735 -0.866532 0.21502900000000005
v 1.523853 -0.86766 0.22258300000000006
v 1.523853 -0.86766 0.22258300000000006
v 1.54212 -0.843585 -0.025084999999999948
v 1.553887 -0.975954 -0.02508499999999994
v 1.531717 -0.955417 0.22258300000000006
v 1.43268 -0.951447 0.21502900000000005
v 1.43268 -0.951447 0.21502900000000005
v 1.415662 -0.975413 -0.02508499999999994
v 0.870249 -0.847174 -0.025084999999999948
v 0.875809 -0.999595 -0.025084999999999937
v 0.922086 -0.979868 0.12494200000000005
v 0.922086 -0.979868 0.12494200000000005
v 0.92043 -0.872059 0.12494200000000005
v 1.558726 -0.316671 -0.02508499999999998
v 1.406305 -0.32223 -0.02508499999999998
v 1.426032 -0.368508 0.12494200000000003
v 1.426032 -0.368508 0.12494200000000003
v 1.53384 -0.366851 0.12494200000000003
v -1.115041 1.063615 -0.025085000000000066
v -1.126651 1.036175 0.21502899999999994
v -1.084567 0.96103 0.22258299999999995
v -1.084567 0.96103 0.22258299999999995
v -1.054585 0.957248 -0.02508500000000006
v -1.163337 0.880872 -0.025085000000000055
v -1.156636 0.91034 0.22258299999999995
v -1.202717 0.998094 0.21502899999999994
v -1.202717 0.998094 0.21502899999999994
v -1.231981 1.000849 -0.025085000000000062
v -0.868456 1.013128 -0.025085000000000062
v -0.862897 0.860708 -0.02508500000000005
v -0.816619 0.880435 0.12494199999999994
v -0.816619 0.880435 0.12494199999999994
v -0.818275 0.988243 0.12494199999999994
v -1.39851 1.004933 -0.025085000000000062
v -1.550931 0.999374 -0.025085000000000062
v -1.531204 0.953097 0.12494199999999994
v -1.531204 0.953097 0.12494199999999994
v -1.423395 0.954753 0.12494199999999994
v 1.081837 -1.027986 -0.025084999999999937
v 1.31721 -1.026022 -0.025084999999999937
v 1.269413 -0.996528 0.09845200000000005
v 0.922086 -0.979868 0.12494200000000005
v 0.875809 -0.999595 -0.025084999999999937
v 1.083964 -1.003672 0.13720800000000005
v 1.269413 -0.996528 0.09845200000000005
v 1.31721 -1.026022 -0.025084999999999937
v 1.329616 -0.884215 -0.025084999999999944
v 1.277917 -0.899333 0.09845200000000005
v 1.094665 -0.881355 -0.025084999999999944
v 1.09292 -0.901298 0.13677600000000006
v 1.277917 -0.899333 0.09845200000000005
v 1.277917 -0.899333 0.09845200000000005
v 1.329616 -0.884215 -0.025084999999999944
v 0.92043 -0.872059 0.12494200000000005
v 1.09292 -0.901298 0.13677600000000006
v 0.870249 -0.847174 -0.025084999999999948
v 0.92043 -0.872059 0.12494200000000005
v 1.377914 -0.528258 -0.02508499999999997
v 1.379878 -0.763631 -0.025084999999999955
v 1.409372 -0.715835 0.09845200000000004
v 1.426032 -0.368508 0.12494200000000003
v 1.406305 -0.32223 -0.02508499999999998
v 1.402228 -0.530385 0.13720800000000002
v 1.409372 -0.715835 0.09845200000000004
v 1.379878 -0.763631 -0.025084999999999955
v 1.521684 -0.776038 -0.02508499999999995
v 1.506566 -0.724339 0.09845200000000004
v 1.524545 -0.541086 -0.025084999999999965
v 1.504602 -0.539342 0.13677600000000004
v 1.506566 -0.724339 0.09845200000000004
v 1.506566 -0.724339 0.09845200000000004
v 1.521684 -0.776038 -0.02508499999999995
v 1.53384 -0.366851 0.12494200000000003
v 1.504602 -0.539342 0.13677600000000004
v 1.558726 -0.316671 -0.02508499999999998
v 1.53384 -0.366851 0.12494200000000003
v -0.656869 0.832317 -0.02508500000000005
v -0.421495 0.83428 -0.02508500000000005
v -0.469292 0.863774 0.09845199999999994
v -0.816619 0.880435 0.12494199999999994
v -0.862897 0.860708 -0.02508500000000005
v -0.654742 0.856631 0.13720799999999994
v -0.469292 0.863774 0.09845199999999994
v -0.421495 0.83428 -0.02508500000000005
v -0.409089 0.976087 -0.02508500000000006
v -0.460788 0.960969 0.09845199999999994
v -0.64404 0.978948 -0.02508500000000006
v -0.645785 0.959005 0.13677599999999995
v -0.460788 0.960969 0.09845199999999994
v -0.460788 0.960969 0.09845199999999994
v -0.409089 0.976087 -0.02508500000000006
v -0.818275 0.988243 0.12494199999999994
v -0.645785 0.959005 0.13677599999999995
v -0.868456 1.013128 -0.025085000000000062
v -0.818275 0.988243 0.12494199999999994
v -1.579322 0.793346 -0.025085000000000048
v -1.577358 0.557973 -0.025085000000000034
v -1.547864 0.605769 0.09845199999999996
v -1.531204 0.953097 0.12494199999999994
v -1.550931 0.999374 -0.025085000000000062
v -1.555008 0.791219 0.13720799999999994
v -1.547864 0.605769 0.09845199999999996
v -1.577358 0.557973 -0.025085000000000034
v -1.435551 0.545566 -0.025085000000000034
v -1.45067 0.597266 0.09845199999999996
v -1.432691 0.780518 -0.025085000000000048
v -1.452634 0.782262 0.13677599999999995
v -1.45067 0.597266 0.09845199999999996
v -1.45067 0.597266 0.09845199999999996
v -1.435551 0.545566 -0.025085000000000034
v -1.423395 0.954753 0.12494199999999994
v -1.452634 0.782262 0.13677599999999995
v -1.39851 1.004933 -0.025085000000000062
v -1.423395 0.954753 0.12494199999999994
v 1.419775 -0.842756 -0.025084999999999948
v 1.415662 -0.975413 -0.02508499999999994
v 1.43268 -0.951447 0.21502900000000005
v 1.437735 -0.866532 0.21502900000000005
v 1.54212 -0.843585 -0.025084999999999948
v 1.523853 -0.86766 0.22258300000000006
v 1.531717 -0.955417 0.22258300000000006
v 1.553887 -0.975954 -0.02508499999999994
v 1.523853 -0.86766 0.22258300000000006
v 1.437735 -0.866532 0.21502900000000005
v 1.43268 -0.951447 0.21502900000000005
v 1.531717 -0.955417 0.22258300000000006
v -1.115041 1.063615 -0.025085000000000066
v -1.231981 1.000849 -0.025085000000000062
v -1.202717 0.998094 0.21502899999999994
v -1.126651 1.036175 0.21502899999999994
v -1.054585 0.957248 -0.02508500000000006
v -1.084567 0.96103 0.22258299999999995
v -1.156636 0.91034 0.22258299999999995
v -1.163337 0.880872 -0.025085000000000055
v -1.084567 0.96103 0.22258299999999995
v -1.126651 1.036175 0.21502899999999994
v -1.202717 0.998094 0.21502899999999994
v -1.156636 0.91034 0.22258299999999995
v -1.52237 -0.388744 -0.025084999999999975
v -1.499979 -0.438303 0.14787500000000003
v -1.398318 -0.435514 0.14787500000000003
v -1.375927 -0.385956 -0.025084999999999975
v -1.436938 -0.729636 0.21502900000000005
v -1.414547 -0.725271 -0.025084999999999955
v -1.402125 -0.915997 -0.025084999999999944
v -1.422651 -0.918278 0.16223400000000004
v -1.390314 -0.931558 -0.025084999999999944
v -1.405818 -0.9452 0.18298600000000007
v -1.215092 -0.94121 -0.02508499999999994
v -1.218201 -0.961627 0.16223400000000004
v -0.590914 -0.928632 -0.025084999999999944
v -0.6411 -0.948198 0.13574500000000006
v -0.6411 -1.045764 0.13574500000000006
v -0.590914 -1.07098 -0.025084999999999934
v 1.530445 0.535915 -0.02508500000000003
v 1.508054 0.585474 0.14787499999999998
v 1.406392 0.582685 0.14787499999999998
v 1.384001 0.533126 -0.02508500000000003
v 1.445013 0.780688 0.21502899999999994
v 1.422621 0.776323 -0.025085000000000048
v 1.410199 0.898408 -0.025085000000000055
v 1.430725 0.90069 0.16223399999999993
v 1.398388 0.91397 -0.025085000000000055
v 1.413893 0.927612 0.18298599999999995
v 1.223167 0.923622 -0.025085000000000055
v 1.226275 0.944039 0.16223399999999993
v 0.598988 0.911043 -0.025085000000000055
v 0.649174 0.93061 0.13574499999999995
v 0.649174 1.028176 0.13574499999999995
v 0.598988 1.053392 -0.025085000000000066
v -1.161357 -1.092566 -0.025084999999999934
v -0.590914 -1.07098 -0.025084999999999934
v -0.6411 -1.045764 0.13574500000000006
v -1.172243 -1.068881 0.16223400000000004
v -1.483463 -1.067506 -0.025084999999999934
v -1.476577 -1.042365 0.18298600000000007
v -1.556766 -0.960642 -0.02508499999999994
v -1.536705 -0.943997 0.16223400000000004
v -1.557511 -0.708879 -0.025084999999999955
v -1.53512 -0.713245 0.21502900000000005
v -1.499979 -0.438303 0.14787500000000003
v -1.52237 -0.388744 -0.025084999999999975
v -1.172243 -1.068881 0.16223400000000004
v -0.6411 -1.045764 0.13574500000000006
v -0.6411 -0.948198 0.13574500000000006
v -1.218201 -0.961627 0.16223400000000004
v -1.476577 -1.042365 0.18298600000000007
v -1.405818 -0.9452 0.18298600000000007
v -1.536705 -0.943997 0.16223400000000004
v -1.422651 -0.918278 0.16223400000000004
v -1.53512 -0.713245 0.21502900000000005
v -1.436938 -0.729636 0.21502900000000005
v -1.499979 -0.438303 0.14787500000000003
v -1.398318 -0.435514 0.14787500000000003
v 1.169432 1.074978 -0.025085000000000066
v 0.598988 1.053392 -0.025085000000000066
v 0.649174 1.028176 0.13574499999999995
v 1.180317 1.051293 0.16223399999999993
v 1.491538 1.049918 -0.025085000000000066
v 1.484651 1.024777 0.18298599999999995
v 1.564841 0.943053 -0.02508500000000006
v 1.54478 0.926409 0.16223399999999993
v 1.565586 0.759931 -0.025085000000000045
v 1.543195 0.764297 0.21502899999999994
v 1.508054 0.585474 0.14787499999999998
v 1.530445 0.535915 -0.02508500000000003
v 1.180317 1.051293 0.16223399999999993
v 0.649174 1.028176 0.13574499999999995
v 0.649174 0.93061 0.13574499999999995
v 1.226275 0.944039 0.16223399999999993
v 1.484651 1.024777 0.18298599999999995
v 1.413893 0.927612 0.18298599999999995
v 1.54478 0.926409 0.16223399999999993
v 1.430725 0.90069 0.16223399999999993
v 1.543195 0.764297 0.21502899999999994
v 1.445013 0.780688 0.21502899999999994
v 1.508054 0.585474 0.14787499999999998
v 1.406392 0.582685 0.14787499999999998
v 1.269413 -0.996528 0.09845200000000005
v 1.277917 -0.899333 0.09845200000000005
v 1.09292 -0.901298 0.13677600000000006
v 1.083964 -1.003672 0.13720800000000005
v 0.922086 -0.979868 0.12494200000000005
v 0.92043 -0.872059 0.12494200000000005
v 1.409372 -0.715835 0.09845200000000004
v 1.506566 -0.724339 0.09845200000000004
v 1.504602 -0.539342 0.13677600000000004
v 1.402228 -0.530385 0.13720800000000002
v 1.426032 -0.368508 0.12494200000000003
v 1.53384 -0.366851 0.12494200000000003
v -0.469292 0.863774 0.09845199999999994
v -0.460788 0.960969 0.09845199999999994
v -0.645785 0.959005 0.13677599999999995
v -0.654742 0.856631 0.13720799999999994
v -0.816619 0.880435 0.12494199999999994
v -0.818275 0.988243 0.12494199999999994
v -1.547864 0.605769 0.09845199999999996
v -1.45067 0.597266 0.09845199999999996
v -1.452634 0.782262 0.13677599999999995
v -1.555008 0.791219 0.13720799999999994
v -1.531204 0.953097 0.12494199999999994
v -1.423395 0.954753 0.12494199999999994
vt 0.985003 0.445616
vt 0.870520 0.422764
vt 0.866988 0.341175
vt 0.866988 0.341175
vt 0.985963 0.331962
vt 0.714134 0.355204
vt 0.832689 0.337205
vt 0.838171 0.430812
vt 0.838171 0.430812
vt 0.727050 0.483298
vt 0.523939 0.946183
vt 0.458482 0.960980
vt 0.433293 0.869474
vt 0.433293 0.869474
vt 0.488381 0.856255
vt 0.523939 0.946183
vt 0.458482 0.960980
vt 0.433293 0.869474
vt 0.433293 0.869474
vt 0.488381 0.856255
vt 0.985003 0.445616
vt 0.870520 0.422764
vt 0.866988 0.341175
vt 0.866988 0.341175
vt 0.985963 0.331962
vt 0.714134 0.355204
vt 0.832689 0.337205
vt 0.838171 0.430812
vt 0.838171 0.430812
vt 0.727050 0.483298
vt 0.523939 0.946183
vt 0.458482 0.960980
vt 0.433293 0.869474
vt 0.433293 0.869474
vt 0.488381 0.856255
vt 0.523939 0.946183
vt 0.458482 0.960980
vt 0.433293 0.869474
vt 0.433293 0.869474
vt 0.488381 0.856255
vt 0.343480 0.967034
vt 0.212945 0.963130
vt 0.240188 0.880679
vt 0.433293 0.869474
vt 0.458482 0.960980
vt 0.342898 0.867780
vt 0.240188 0.880679
vt 0.212945 0.963130
vt 0.159815 0.945221
vt 0.191678 0.856188
vt 0.645196 0.289086
vt 0.649822 0.221625
vt 0.762211 0.240337
vt 0.762211 0.240337
vt 0.789615 0.294346
vt 0.542571 0.221923
vt 0.649822 0.221625
vt 0.505263 0.283686
vt 0.542571 0.221923
vt 0.343480 0.967034
vt 0.212945 0.963130
vt 0.240188 0.880679
vt 0.433293 0.869474
vt 0.458482 0.960980
vt 0.342898 0.867780
vt 0.240188 0.880679
vt 0.212945 0.963130
vt 0.159815 0.945221
vt 0.191678 0.856188
vt 0.645196 0.289086
vt 0.649822 0.221625
vt 0.762211 0.240337
vt 0.762211 0.240337
vt 0.789615 0.294346
vt 0.542571 0.221923
vt 0.649822 0.221625
vt 0.505263 0.283686
vt 0.542571 0.221923
vt 0.343480 0.967034
vt 0.212945 0.963130
vt 0.240188 0.880679
vt 0.433293 0.869474
vt 0.458482 0.960980
vt 0.342898 0.867780
vt 0.240188 0.880679
vt 0.212945 0.963130
vt 0.159815 0.945221
vt 0.191678 0.856188
vt 0.645196 0.289086
vt 0.649822 0.221625
vt 0.762211 0.240337
vt 0.762211 0.240337
vt 0.789615 0.294346
vt 0.542571 0.221923
vt 0.649822 0.221625
vt 0.505263 0.283686
vt 0.542571 0.221923
vt 0.343480 0.967034
vt 0.212945 0.963130
vt 0.240188 0.880679
vt 0.433293 0.869474
vt 0.458482 0.960980
vt 0.342898 0.867780
vt 0.240188 0.880679
vt 0.212945 0.963130
vt 0.159815 0.945221
vt 0.191678 0.856188
vt 0.645196 0.289086
vt 0.649822 0.221625
vt 0.762211 0.240337
vt 0.762211 0.240337
vt 0.789615 0.294346
vt 0.542571 0.221923
vt 0.649822 0.221625
vt 0.505263 0.283686
vt 0.542571 0.221923
vt 0.811277 0.315836
vt 0.811277 0.246333
vt 0.987014 0.259154
vt 0.987151 0.303683
vt 0.994588 0.250816
vt 0.814392 0.238589
vt 0.814396 0.190417
vt 0.994588 0.178159
vt 0.866988 0.341175
vt 0.870520 0.422764
vt 0.838171 0.430812
vt 0.832689 0.337205
vt 0.811277 0.315836
vt 0.811277 0.246333
vt 0.987014 0.259154
vt 0.987151 0.303683
vt 0.994588 0.250816
vt 0.814392 0.238589
vt 0.814396 0.190417
vt 0.994588 0.178159
vt 0.866988 0.341175
vt 0.870520 0.422764
vt 0.838171 0.430812
vt 0.832689 0.337205
vt 0.998640 0.913855
vt 0.899839 0.973574
vt 0.866316 0.926173
vt 0.948764 0.844728
vt 0.619805 0.835096
vt 0.698811 0.704405
vt 0.558123 0.627185
vt 0.498366 0.727099
vt 0.539632 0.611808
vt 0.471982 0.718574
vt 0.489490 0.556568
vt 0.404603 0.632847
vt 0.259389 0.259081
vt 0.201478 0.348631
vt 0.152695 0.324172
vt 0.187520 0.221373
vt 0.998640 0.913855
vt 0.899839 0.973574
vt 0.866316 0.926173
vt 0.948764 0.844728
vt 0.619805 0.835096
vt 0.698811 0.704405
vt 0.558123 0.627185
vt 0.498366 0.727099
vt 0.539632 0.611808
vt 0.471982 0.718574
vt 0.489490 0.556568
vt 0.404603 0.632847
vt 0.259389 0.259081
vt 0.201478 0.348631
vt 0.152695 0.324172
vt 0.187520 0.221373
vt 0.446968 0.440454
vt 0.264081 0.222017
vt 0.355517 0.164381
vt 0.536517 0.356522
vt 0.548374 0.560037
vt 0.641740 0.458719
vt 0.594342 0.598708
vt 0.673229 0.501672
vt 0.750410 0.699876
vt 0.839886 0.567545
vt 0.991075 0.714193
vt 0.946423 0.821912
vt 0.397335 0.039814
vt 0.962404 0.056696
vt 0.964286 0.158578
vt 0.350549 0.152683
vt 0.074329 0.071070
vt 0.151422 0.171192
vt 0.012308 0.177127
vt 0.134048 0.201822
vt 0.020857 0.543111
vt 0.124911 0.524134
vt 0.018819 0.984034
vt 0.126942 0.985020
vt 0.446968 0.440454
vt 0.264081 0.222017
vt 0.355517 0.164381
vt 0.536517 0.356522
vt 0.548374 0.560037
vt 0.641740 0.458719
vt 0.594342 0.598708
vt 0.673229 0.501672
vt 0.750410 0.699876
vt 0.839886 0.567545
vt 0.991075 0.714193
vt 0.946423 0.821912
vt 0.397335 0.039814
vt 0.962404 0.056696
vt 0.964286 0.158578
vt 0.350549 0.152683
vt 0.074329 0.071070
vt 0.151422 0.171192
vt 0.012308 0.177127
vt 0.134048 0.201822
vt 0.020857 0.543111
vt 0.124911 0.524134
vt 0.018819 0.984034
vt 0.126942 0.985020
vt 0.769239 0.199158
vt 0.762211 0.240337
vt 0.649822 0.221625
vt 0.655671 0.180114
vt 0.554868 0.177590
vt 0.542571 0.221923
vt 0.769239 0.199158
vt 0.762211 0.240337
vt 0.649822 0.221625
vt 0.655671 0.180114
vt 0.554868 0.177590
vt 0.542571 0.221923
vt 0.769239 0.199158
vt 0.762211 0.240337
vt 0.649822 0.221625
vt 0.655671 0.180114
vt 0.554868 0.177590
vt 0.542571 0.221923
vt 0.769239 0.199158
vt 0.762211 0.240337
vt 0.649822 0.221625
vt 0.655671 0.180114
vt 0.554868 0.177590
vt 0.542571 0.221923
vn -0.684714 0.719087 0.11866099999999996
vn -0.563086 0.55352 0.613637
vn 0.263362 0.651253 0.711695
vn 0.263362 0.651253 0.711695
vn 0.856397 0.504013 0.11204799999999997
vn 0.440778 -0.889376 0.12135000000000006
vn 0.781237 -0.34612899999999996 0.519483
vn -0.592405 -0.510947 0.622888
vn -0.592405 -0.510947 0.622888
vn -0.715148 -0.688695 0.11942200000000004
vn -0.829026 0.441176 0.343627
vn -0.69867 -0.649108 0.30086500000000005
vn -0.550478 -0.46984299999999996 0.690088
vn -0.550478 -0.46984299999999996 0.690088
vn -0.274625 0.752588 0.598492
vn 0.441175 0.829026 0.34362699999999996
vn -0.649108 0.69867 0.30086499999999994
vn -0.469843 0.550478 0.690088
vn -0.469843 0.550478 0.690088
vn 0.752587 0.27462500000000006 0.598493
vn 0.280387 0.952525 0.11865999999999995
vn 0.197815 0.764409 0.613635
vn 0.695681 0.09755300000000004 0.711696
vn 0.695681 0.09755300000000004 0.711696
vn 0.864688 -0.489654 0.11204800000000002
vn -0.549832 -0.826413 0.12135200000000006
vn 0.090862 -0.849636 0.519484
vn -0.738695 0.25756400000000007 0.622889
vn -0.738695 0.25756400000000007 0.622889
vn -0.954002 0.274989 0.11942399999999999
vn -0.829026 0.441176 0.343627
vn -0.69867 -0.649108 0.30086500000000005
vn -0.550478 -0.46984299999999996 0.690088
vn -0.550478 -0.46984299999999996 0.690088
vn -0.274625 0.752588 0.598492
vn 0.441176 0.829027 0.34362599999999993
vn -0.649108 0.69867 0.30086499999999994
vn -0.469843 0.550478 0.690088
vn -0.469843 0.550478 0.690088
vn 0.752588 0.27462500000000006 0.598492
vn -0.053417 -0.982943 0.17598300000000006
vn 0.607489 -0.686836 0.39901700000000007
vn 0.526118 -0.48570399999999997 0.698062
vn -0.550478 -0.46984299999999996 0.690088
vn -0.69867 -0.649108 0.30086500000000005
vn 0.014946 -0.654531 0.755887
vn 0.526118 -0.48570399999999997 0.698062
vn 0.607489 -0.686836 0.39901700000000007
vn 0.8381 0.374584 0.39658
vn 0.422122 0.690482 0.587407
vn 0.083761 0.989069 0.12134999999999994
vn 0.094204 0.41950800000000005 0.902851
vn 0.422122 0.690482 0.587407
vn 0.422122 0.690482 0.587407
vn 0.8381 0.374584 0.39658
vn -0.274625 0.752588 0.598492
vn 0.094204 0.41950800000000005 0.902851
vn -0.829026 0.441176 0.343627
vn -0.274625 0.752588 0.598492
vn -0.982943 0.05341700000000001 0.175983
vn -0.686837 -0.607487 0.39901500000000006
vn -0.485706 -0.526118 0.698062
vn -0.469843 0.550478 0.690088
vn -0.649108 0.69867 0.30086499999999994
vn -0.654531 -0.014945999999999952 0.755887
vn -0.485706 -0.526118 0.698062
vn -0.686837 -0.607487 0.39901500000000006
vn 0.374581 -0.838101 0.39658000000000004
vn 0.690482 -0.42212299999999997 0.587407
vn 0.989069 -0.08376099999999999 0.121351
vn 0.419507 -0.09420399999999994 0.902851
vn 0.690482 -0.42212299999999997 0.587407
vn 0.690482 -0.42212299999999997 0.587407
vn 0.374581 -0.838101 0.39658000000000004
vn 0.752587 0.27462500000000006 0.598493
vn 0.419507 -0.09420399999999994 0.902851
vn 0.441175 0.829026 0.34362699999999996
vn 0.752587 0.27462500000000006 0.598493
vn -0.053417 -0.982943 0.17598300000000006
vn 0.607488 -0.686837 0.39901600000000004
vn 0.526118 -0.48570499999999994 0.698062
vn -0.550478 -0.46984299999999996 0.690088
vn -0.69867 -0.649108 0.30086500000000005
vn 0.014946 -0.654531 0.755887
vn 0.526118 -0.48570499999999994 0.698062
vn 0.607488 -0.686837 0.39901600000000004
vn 0.8381 0.374583 0.39658
vn 0.422122 0.690482 0.587407
vn 0.083761 0.989069 0.12134999999999994
vn 0.094204 0.41950800000000005 0.902851
vn 0.422122 0.690482 0.587407
vn 0.422122 0.690482 0.587407
vn 0.8381 0.374583 0.39658
vn -0.274625 0.752588 0.598492
vn 0.094204 0.41950800000000005 0.902851
vn -0.829026 0.441176 0.343627
vn -0.274625 0.752588 0.598492
vn -0.982943 0.05341700000000001 0.175983
vn -0.686837 -0.607489 0.39901500000000006
vn -0.485705 -0.526118 0.698062
vn -0.469843 0.550478 0.690088
vn -0.649108 0.69867 0.30086499999999994
vn -0.654531 -0.014944999999999953 0.755887
vn -0.485705 -0.526118 0.698062
vn -0.686837 -0.607489 0.39901500000000006
vn 0.374584 -0.8381 0.39657900000000007
vn 0.690482 -0.42212199999999994 0.587407
vn 0.989069 -0.08376099999999999 0.12135
vn 0.419507 -0.09420399999999994 0.902851
vn 0.690482 -0.42212199999999994 0.587407
vn 0.690482 -0.42212199999999994 0.587407
vn 0.374584 -0.8381 0.39657900000000007
vn 0.752588 0.27462500000000006 0.598492
vn 0.419507 -0.09420399999999994 0.902851
vn 0.441176 0.829027 0.34362599999999993
vn 0.752588 0.27462500000000006 0.598492
vn -0.684714 0.719087 0.11866099999999996
vn -0.715148 -0.688695 0.11942200000000004
vn -0.592405 -0.510947 0.622888
vn -0.563086 0.55352 0.613637
vn 0.856397 0.504013 0.11204799999999997
vn 0.263362 0.651253 0.711695
vn 0.781237 -0.34612899999999996 0.519483
vn 0.440778 -0.889376 0.12135000000000006
vn 0.263362 0.651253 0.711695
vn -0.563086 0.55352 0.613637
vn -0.592405 -0.510947 0.622888
vn 0.781237 -0.34612899999999996 0.519483
vn 0.280387 0.952525 0.11865999999999995
vn -0.954002 0.274989 0.11942399999999999
vn -0.738695 0.25756400000000007 0.622889
vn 0.197815 0.764409 0.613635
vn 0.864688 -0.489654 0.11204800000000002
vn 0.695681 0.09755300000000004 0.711696
vn 0.090862 -0.849636 0.519484
vn -0.549832 -0.826413 0.12135200000000006
vn 0.695681 0.09755300000000004 0.711696
vn 0.197815 0.764409 0.613635
vn -0.738695 0.25756400000000007 0.622889
vn 0.090862 -0.849636 0.519484
vn -0.430737 0.851903 0.29786899999999994
vn -0.548244 0.46792800000000007 0.693161
vn 0.338953 0.735759 0.586318
vn 0.913553 0.345471 0.21464399999999997
vn 0.767722 0.01404200000000004 0.640629
vn 0.995432 -0.024055999999999994 0.092389
vn 0.963625 0.246569 0.10310599999999999
vn 0.597636 0.3110280000000001 0.738981
vn 0.602302 0.792562 0.09527099999999995
vn 0.175343 0.70573 0.68644
vn 0.044575 0.994407 0.09574599999999994
vn 0.062908 0.66297 0.745998
vn 0.656659 0.697282 0.28739599999999993
vn 0.367122 0.3602350000000001 0.857585
vn 0.599199 -0.578729 0.553203
vn 0.673316 -0.668906 0.31497800000000004
vn 0.42058 -0.85691 0.29802300000000004
vn 0.521083 -0.543152 0.658376
vn -0.335409 -0.75048 0.569457
vn -0.928588 -0.305469 0.21074500000000002
vn -0.778311 -0.020836999999999963 0.627534
vn -0.995338 0.027952000000000008 0.092309
vn -0.958251 -0.266779 0.10287600000000001
vn -0.613781 -0.27098999999999995 0.74151
vn -0.602301 -0.792564 0.09527000000000004
vn -0.175343 -0.705731 0.686439
vn -0.044575 -0.994407 0.09574500000000005
vn -0.062908 -0.66297 0.745998
vn -0.65666 -0.697282 0.28739600000000004
vn -0.367122 -0.36023499999999997 0.857585
vn -0.599199 0.578729 0.553203
vn -0.673315 0.668906 0.3149779999999999
vn 0.003269 -0.990349 0.13856000000000004
vn 0.673316 -0.668906 0.31497800000000004
vn 0.599199 -0.578729 0.553203
vn 0.013565 -0.65528 0.755265
vn -0.355607 -0.926482 0.12318100000000005
vn -0.409655 -0.46696199999999993 0.783664
vn -0.923026 -0.366622 0.11666900000000002
vn -0.702992 -0.015550999999999957 0.711028
vn -0.991751 0.060007000000000005 0.113263
vn -0.530232 -0.03520199999999995 0.847121
vn -0.548244 0.46792800000000007 0.693161
vn -0.430737 0.851903 0.29786899999999994
vn 0.013565 -0.65528 0.755265
vn 0.599199 -0.578729 0.553203
vn 0.367122 0.3602350000000001 0.857585
vn 0.062908 0.66297 0.745998
vn -0.409655 -0.46696199999999993 0.783664
vn 0.175343 0.70573 0.68644
vn -0.702992 -0.015550999999999957 0.711028
vn 0.597636 0.3110280000000001 0.738981
vn -0.530232 -0.03520199999999995 0.847121
vn 0.767722 0.01404200000000004 0.640629
vn -0.548244 0.46792800000000007 0.693161
vn 0.338953 0.735759 0.586318
vn -0.003269 0.990349 0.13855999999999993
vn -0.673315 0.668906 0.3149779999999999
vn -0.599199 0.578729 0.553203
vn -0.013565 0.65528 0.755265
vn 0.355607 0.926483 0.12318099999999994
vn 0.409655 0.46696200000000004 0.783664
vn 0.922893 0.366952 0.11668599999999997
vn 0.703209 0.037178000000000044 0.710011
vn 0.989172 -0.08911499999999999 0.116607
vn 0.5378 0.04831800000000005 0.841687
vn 0.521083 -0.543152 0.658376
vn 0.42058 -0.85691 0.29802300000000004
vn -0.013565 0.65528 0.755265
vn -0.599199 0.578729 0.553203
vn -0.367122 -0.36023499999999997 0.857585
vn -0.062908 -0.66297 0.745998
vn 0.409655 0.46696200000000004 0.783664
vn -0.175343 -0.705731 0.686439
vn 0.703209 0.037178000000000044 0.710011
vn -0.613781 -0.27098999999999995 0.74151
vn 0.5378 0.04831800000000005 0.841687
vn -0.778311 -0.020836999999999963 0.627534
vn 0.521083 -0.543152 0.658376
vn -0.335409 -0.75048 0.569457
vn 0.526118 -0.48570399999999997 0.698062
vn 0.422122 0.690482 0.587407
vn 0.094204 0.41950800000000005 0.902851
vn 0.014946 -0.654531 0.755887
vn -0.550478 -0.46984299999999996 0.690088
vn -0.274625 0.752588 0.598492
vn -0.485706 -0.526118 0.698062
vn 0.690482 -0.42212299999999997 0.587407
vn 0.419507 -0.09420399999999994 0.902851
vn -0.654531 -0.014945999999999952 0.755887
vn -0.469843 0.550478 0.690088
vn 0.752587 0.27462500000000006 0.598493
vn 0.526118 -0.48570499999999994 0.698062
vn 0.422122 0.690482 0.587407
vn 0.094204 0.41950800000000005 0.902851
vn 0.014946 -0.654531 0.755887
vn -0.550478 -0.46984299999999996 0.690088
vn -0.274625 0.752588 0.598492
vn -0.485705 -0.526118 0.698062
vn 0.690482 -0.42212199999999994 0.587407
vn 0.419507 -0.09420399999999994 0.902851
vn -0.654531 -0.014944999999999953 0.755887
vn -0.469843 0.550478 0.690088
vn 0.752588 0.27462500000000006 0.598492
g bienenkischte
f 1/1/1 2/2/2 3/3/3
f 4/4/4 5/5/5 1/1/1
f 6/6/6 7/7/7 8/8/8
f 9/9/9 10/10/10 6/6/6
f 11/11/11 12/12/12 13/13/13
f 14/14/14 15/15/15 11/11/11
f 16/16/16 17/17/17 18/18/18
f 19/19/19 20/20/20 16/16/16
f 21/21/21 22/22/22 23/23/23
f 24/24/24 25/25/25 21/21/21
f 26/26/26 27/27/27 28/28/28
f 29/29/29 30/30/30 26/26/26
f 31/31/31 32/32/32 33/33/33
f 34/34/34 35/35/35 31/31/31
f 36/36/36 37/37/37 38/38/38
f 39/39/39 40/40/40 36/36/36
f 41/41/41 42/42/42 43/43/43
f 44/44/44 45/45/45 41/41/41
f 41/41/41 46/46/46 44/44/44
f 47/47/47 46/46/46 41/41/41
f 47/47/47 48/48/48 49/49/49
f 49/49/49 50/50/50 47/47/47
f 51/51/51 52/52/52 53/53/53
f 54/54/54 55/55/55 51/51/51
f 56/56/56 57/57/57 51/51/51
f 51/51/51 58/58/58 59/59/59
f 60/60/60 61/61/61 62/62/62
f 63/63/63 64/64/64 60/60/60
f 60/60/60 65/65/65 63/63/63
f 66/66/66 65/65/65 60/60/60
f 66/66/66 67/67/67 68/68/68
f 68/68/68 69/69/69 66/66/66
f 70/70/70 71/71/71 72/72/72
f 73/73/73 74/74/74 70/70/70
f 75/75/75 76/76/76 70/70/70
f 70/70/70 77/77/77 78/78/78
f 79/79/79 80/80/80 81/81/81
f 82/82/82 83/83/83 79/79/79
f 79/79/79 84/84/84 82/82/82
f 85/85/85 84/84/84 79/79/79
f 85/85/85 86/86/86 87/87/87
f 87/87/87 88/88/88 85/85/85
f 89/89/89 90/90/90 91/91/91
f 92/92/92 93/93/93 89/89/89
f 94/94/94 95/95/95 89/89/89
f 89/89/89 96/96/96 97/97/97
f 98/98/98 99/99/99 100/100/100
f 101/101/101 102/102/102 98/98/98
f 98/98/98 103/103/103 101/101/101
f 104/104/104 103/103/103 98/98/98
f 104/104/104 105/105/105 106/106/106
f 106/106/106 107/107/107 104/104/104
f 108/108/108 109/109/109 110/110/110
f 111/111/111 112/112/112 108/108/108
f 113/113/113 114/114/114 108/108/108
f 108/108/108 115/115/115 116/116/116
f 117/117/117 118/118/118 119/119/119
f 119/119/119 120/120/120 117/117/117
f 121/121/121 122/122/122 123/123/123
f 123/123/123 124/124/124 121/121/121
f 125/125/125 126/126/126 127/127/127
f 127/127/127 128/128/128 125/125/125
f 129/129/129 130/130/130 131/131/131
f 131/131/131 132/132/132 129/129/129
f 133/133/133 134/134/134 135/135/135
f 135/135/135 136/136/136 133/133/133
f 137/137/137 138/138/138 139/139/139
f 139/139/139 140/140/140 137/137/137
f 141/141/141 142/142/142 143/143/143
f 143/143/143 144/144/144 141/141/141
f 144/144/144 143/143/143 145/145/145
f 145/145/145 146/146/146 144/144/144
f 147/147/147 146/146/146 145/145/145
f 145/145/145 148/148/148 147/147/147
f 149/149/149 147/147/147 148/148/148
f 148/148/148 150/150/150 149/149/149
f 151/151/151 149/149/149 150/150/150
f 150/150/150 152/152/152 151/151/151
f 153/153/153 151/151/151 152/152/152
f 152/152/152 154/154/154 153/153/153
f 153/153/153 154/154/154 155/155/155
f 155/155/155 156/156/156 153/153/153
f 157/157/157 158/158/158 159/159/159
f 159/159/159 160/160/160 157/157/157
f 160/160/160 159/159/159 161/161/161
f 161/161/161 162/162/162 160/160/160
f 163/163/163 162/162/162 161/161/161
f 161/161/161 164/164/164 163/163/163
f 165/165/165 163/163/163 164/164/164
f 164/164/164 166/166/166 165/165/165
f 167/167/167 165/165/165 166/166/166
f 166/166/166 168/168/168 167/167/167
f 169/169/169 167/167/167 168/168/168
f 168/168/168 170/170/170 169/169/169
f 169/169/169 170/170/170 171/171/171
f 171/171/171 172/172/172 169/169/169
f 173/173/173 174/174/174 175/175/175
f 175/175/175 176/176/176 173/173/173
f 177/177/177 173/173/173 176/176/176
f 176/176/176 178/178/178 177/177/177
f 179/179/179 177/177/177 178/178/178
f 178/178/178 180/180/180 179/179/179
f 181/181/181 179/179/179 180/180/180
f 180/180/180 182/182/182 181/181/181
f 181/181/181 182/182/182 183/183/183
f 183/183/183 184/184/184 181/181/181
f 185/185/185 186/186/186 187/187/187
f 187/187/187 188/188/188 185/185/185
f 189/189/189 185/185/185 188/188/188
f 188/188/188 190/190/190 189/189/189
f 191/191/191 189/189/189 190/190/190
f 190/190/190 192/192/192 191/191/191
f 193/193/193 191/191/191 192/192/192
f 192/192/192 194/194/194 193/193/193
f 195/195/195 193/193/193 194/194/194
f 194/194/194 196/196/196 195/195/195
f 197/197/197 198/198/198 199/199/199
f 199/199/199 200/200/200 197/197/197
f 201/201/201 197/197/197 200/200/200
f 200/200/200 202/202/202 201/201/201
f 203/203/203 201/201/201 202/202/202
f 202/202/202 204/204/204 203/203/203
f 205/205/205 203/203/203 204/204/204
f 204/204/204 206/206/206 205/205/205
f 205/205/205 206/206/206 207/207/207
f 207/207/207 208/208/208 205/205/205
f 209/209/209 210/210/210 211/211/211
f 211/211/211 212/212/212 209/209/209
f 213/213/213 209/209/209 212/212/212
f 212/212/212 214/214/214 213/213/213
f 215/215/215 213/213/213 214/214/214
f 214/214/214 216/216/216 215/215/215
f 217/217/217 215/215/215 216/216/216
f 216/216/216 218/218/218 217/217/217
f 219/219/219 217/217/217 218/218/218
f 218/218/218 220/220/220 219/219/219
f 221/221/221 222/222/222 223/223/223
f 223/223/223 224/224/224 221/221/221
f 225/225/225 224/224/224 223/223/223
f 223/223/223 226/226/226 225/225/225
f 227/227/227 228/228/228 229/229/229
f 229/229/229 230/230/230 227/227/227
f 231/231/231 230/230/230 229/229/229
f 229/229/229 232/232/232 231/231/231
f 233/233/233 234/234/234 235/235/235
f 235/235/235 236/236/236 233/233/233
f 237/237/237 236/236/236 235/235/235
f 235/235/235 238/238/238 237/237/237
f 239/239/239 240/240/240 241/241/241
f 241/241/241 242/242/242 239/239/239
f 243/243/243 242/242/242 241/241/241
f 241/241/241 244/244/244 243/243/243
