v -1 1 0.09999999999999994
v -1 1 -6.123233995736766e-17
v -1 -1 6.123233995736766e-17
v -1 -1 0.10000000000000007
v -1 -1 0.10000000000000007
v -1 -1 6.123233995736766e-17
v 1 -1 6.123233995736766e-17
v 1 -1 0.10000000000000007
v 1 -1 0.10000000000000007
v 1 -1 6.123233995736766e-17
v 1 1 -6.123233995736766e-17
v 1 1 0.09999999999999994
v 1 1 0.09999999999999994
v 1 1 -6.123233995736766e-17
v -1 1 -6.123233995736766e-17
v -1 1 0.09999999999999994
v 1 -1 0.10000000000000007
v 1 1 0.09999999999999994
v -1 1 0.09999999999999994
v -1 -1 0.10000000000000007
vt 0.998978 0.348506
vt 0.998978 0.662971
vt -0.010456 0.662971
vt -0.010456 0.348506
vt 0.998978 0.348506
vt 0.998978 0.662971
vt -0.010456 0.662971
vt -0.010456 0.348506
vt 0.998978 0.348506
vt 0.998978 0.662971
vt -0.010456 0.662971
vt -0.010456 0.348506
vt 0.998978 0.348506
vt 0.998978 0.662971
vt -0.010456 0.662971
vt -0.010456 0.348506
vt 1.000000 0.000000
vt 1.000000 1.000000
vt 0.000000 1.000000
vt 0.000000 0.000000
vn -1 0 0
vn -1 0 0
vn -1 0 0
vn -1 0 0
vn 0 -1 6.123233995736766E-17
vn 0 -1 6.123233995736766E-17
vn 0 -1 6.123233995736766E-17
vn 0 -1 6.123233995736766E-17
vn 1 0 0
vn 1 0 0
vn 1 0 0
vn 1 0 0
vn 0 1 -6.123233995736766E-17
vn 0 1 -6.123233995736766E-17
vn 0 1 -6.123233995736766E-17
vn 0 1 -6.123233995736766E-17
vn 0 6.123233995736766E-17 1
vn 0 6.123233995736766E-17 1
vn 0 6.123233995736766E-17 1
vn 0 6.123233995736766E-17 1
g Default Standard
f 1/1/1 2/2/2 3/3/3
f 3/3/3 4/4/4 1/1/1
f 5/5/5 6/6/6 7/7/7
f 7/7/7 8/8/8 5/5/5
f 9/9/9 10/10/10 11/11/11
f 11/11/11 12/12/12 9/9/9
f 13/13/13 14/14/14 15/15/15
f 15/15/15 16/16/16 13/13/13
f 17/17/17 18/18/18 19/19/19
f 19/19/19 20/20/20 17/17/17
