v -0.135018 0.932247 -0.05740350000000005
v -0.34153574999999997 0.89370225 -0.05740350000000005
v 0.2170095 0.9074752500000001 -0.05740350000000005
v 0.0789735 0.93417675 -0.05740350000000005
v 0.41178525 0.72935175 -0.05740350000000004
v 0.297657 0.8298599999999999 -0.05740350000000005
v 0.53791875 0.5727915 -0.057403500000000024
v 0.649572 0.377763 -0.05740350000000002
v 0.80525775 0.0734505 -0.057403499999999996
v 0.92386875 -0.25878900000000005 -0.057403499999999975
v 0.7632975 -0.8027070000000001 -0.05740349999999994
v 0.83345175 -0.658155 -0.057403499999999955
v 0.4666245 -0.938298 -0.057403499999999934
v -0.1352955 -0.8032027500000001 -0.05740349999999994
v -0.692034 -0.54195 -0.05740349999999997
v -0.468558 -0.5704125 -0.05740349999999997
v -0.85291875 -0.44767875 -0.05740349999999997
v -0.8593815 0.19517025 -0.05740350000000001
v -0.5221147500000001 0.76311525 -0.05740350000000004
v -0.7593854999999999 0.5138797500000001 -0.057403500000000024
v -0.35742975 -0.5854605 -0.05740349999999997
v -0.89935575 -0.33966 -0.057403499999999975
v -0.31521525 -0.5372295 -0.05696924999999997
v -0.35442825 -0.577071 0.024390000000000037
v -0.22915349999999998 -0.69863025 0.016791000000000042
v -0.3340665 -0.65743725 0.016791000000000042
v -0.1732185 -0.7841894999999999 0.01679100000000005
v -0.3180015 -0.75730275 0.01679100000000005
v -0.203406 -0.8126264999999999 0.01679100000000005
v -0.5872965 -0.58115325 0.021417000000000037
v -0.1571565 -0.9099247500000001 0.016791000000000056
v -0.41304825 -0.5659425 0.024390000000000037
v -0.50163525 -0.5124285 -0.06291824999999997
v -0.5684962499999999 -0.5285415 0.02439000000000003
v -0.44543475 -0.61277475 0.01679100000000004
v -0.48814575000000004 -0.8893710000000001 0.016791000000000056
v -0.67757925 -0.78534525 0.01679100000000005
v -0.41304825 -0.5659425 0.024390000000000037
v -0.31521525 -0.5372295 -0.05696924999999997
v -0.5684962499999999 -0.5285415 0.02439000000000003
v -0.44543475 -0.61277475 0.01679100000000004
v -0.5872965 -0.58115325 0.021417000000000037
v -0.48814575000000004 -0.8893710000000001 0.016791000000000056
v -0.41304825 -0.5659425 0.024390000000000037
v -0.35442825 -0.577071 0.024390000000000037
v -0.1732185 -0.7841894999999999 0.01679100000000005
vt 0.451595 0.985780
vt 0.354689 0.966719
vt 0.616779 0.973530
vt 0.552007 0.986734
vt 0.708175 0.885445
vt 0.654622 0.935148
vt 0.767361 0.808022
vt 0.819753 0.711577
vt 0.892807 0.561088
vt 0.948463 0.396789
vt 0.873117 0.127810
vt 0.906036 0.199294
vt 0.733908 0.060758
vt 0.451464 0.127566
vt 0.190222 0.256760
vt 0.295085 0.242685
vt 0.114729 0.303379
vt 0.119730 0.621372
vt 0.267936 0.886069
vt 0.175437 0.748419
vt 0.347231 0.235243
vt 0.092939 0.356796
vt 0.000000 1.000000
vt 0.666667 1.000000
vt 1.000000 1.000000
vt 0.666667 0.666667
vt 1.000000 0.666667
vt 0.666667 0.333333
vt 1.000000 0.333333
vt 0.000000 0.333333
vt 1.000000 0.000000
vt 0.333333 1.000000
vt 0.000000 0.666667
vt 0.333333 0.666667
vt 0.333333 0.333333
vt 0.333333 0.333333
vt 0.500000 0.000000
vt 0.333333 0.666667
vt 0.333333 1.000000
vt 0.000000 0.666667
vt 0.000000 0.333333
vt 0.000000 0.000000
vt 0.500000 0.000000
vt 0.333333 0.666667
vt 0.666667 1.000000
vt 1.000000 0.666667
vn 0 6.123233995736766E-17 1
vn 0 6.123233995736766E-17 1
vn -0 6.123233995736766E-17 1
vn -0 6.123233995736766E-17 1
vn -0 6.123233995736766E-17 1
vn -0 6.123233995736766E-17 1
vn -0 6.123233995736766E-17 1
vn -0 6.123233995736766E-17 1
vn -0 6.123233995736766E-17 1
vn 0 6.123233995736766E-17 1
vn 0 6.123233995736766E-17 1
vn 0 6.123233995736766E-17 1
vn 0 6.123233995736766E-17 1
vn 0 6.123233995736766E-17 1
vn 0 6.123233995736766E-17 1
vn 0 6.123233995736766E-17 1
vn 0 6.123233995736766E-17 1
vn 0 6.123233995736766E-17 1
vn -0 6.123233995736766E-17 1
vn -0 6.123233995736766E-17 1
vn -0 6.123233995736766E-17 1
vn 0 6.123233995736766E-17 1
vn 0.161136 0.885968 0.43485099999999993
vn 0.039782 0.25290300000000004 0.966673
vn -0.020516 -0.052250999999999936 0.998423
vn -0.01577 -0.04708299999999994 0.998766
vn 0 6.123233995736766E-17 1
vn 0 6.123233995736766E-17 1
vn 0 6.123233995736766E-17 1
vn 0.021786 -0.04835999999999994 0.998592
vn 0 6.123233995736766E-17 1
vn 0.061148 0.31174300000000005 0.948197
vn 0.118687 0.956255 0.26737399999999995
vn 0.094048 0.49134800000000006 0.865871
vn -0.00573 -0.051562999999999935 0.998653
vn 0 6.123233995736766E-17 1
vn 0.012536 -0.016863999999999938 0.999779
vn 0.061148 0.31174300000000005 0.948197
vn 0.161136 0.885968 0.43485099999999993
vn 0.094048 0.49134800000000006 0.865871
vn -0.00573 -0.051562999999999935 0.998653
vn 0.021786 -0.04835999999999994 0.998592
vn 0 6.123233995736766E-17 1
vn 0.061148 0.31174300000000005 0.948197
vn 0.039782 0.25290300000000004 0.966673
vn 0 6.123233995736766E-17 1
g Material #306
f 13/13/13 11/11/11 14/14/14
f 11/11/11 12/12/12 14/14/14
f 12/12/12 21/21/21 14/14/14
f 12/12/12 10/10/10 21/21/21
f 10/10/10 9/9/9 21/21/21
f 9/9/9 19/19/19 21/21/21
f 9/9/9 8/8/8 19/19/19
f 8/8/8 7/7/7 19/19/19
f 7/7/7 5/5/5 19/19/19
f 5/5/5 6/6/6 19/19/19
f 6/6/6 3/3/3 19/19/19
f 3/3/3 4/4/4 19/19/19
f 4/4/4 1/1/1 19/19/19
f 1/1/1 2/2/2 19/19/19
f 19/19/19 20/20/20 21/21/21
f 20/20/20 18/18/18 21/21/21
f 18/18/18 16/16/16 21/21/21
f 18/18/18 15/15/15 16/16/16
f 18/18/18 22/22/22 15/15/15
f 22/22/22 17/17/17 15/15/15
g Standard_8
f 26/26/26 38/38/38 35/35/35
f 28/28/28 43/43/43 31/31/31
f 31/31/31 29/29/29 28/28/28
f 43/43/43 28/28/28 35/35/35
f 41/41/41 42/42/42 37/37/37
f 37/37/37 36/36/36 41/41/41
f 26/26/26 28/28/28 29/29/29
f 29/29/29 46/46/46 26/26/26
f 28/28/28 26/26/26 35/35/35
f 40/40/40 30/30/30 35/35/35
f 35/35/35 38/38/38 40/40/40
f 25/25/25 24/24/24 26/26/26
f 26/26/26 27/27/27 25/25/25
f 45/45/45 39/39/39 44/44/44
f 38/38/38 26/26/26 24/24/24
f 23/23/23 33/33/33 34/34/34
f 34/34/34 32/32/32 23/23/23
