v -0.685248 0.052234 -0.038592
v -0.682413 0.05223400000000001 0.122817
v -0.295124 0.05503700000000001 0.118293
v 0.219077 -0.055264999999999995 0.143539
v -0.295202 -0.056778999999999996 0.118293
v -0.683857 -0.058468 -0.038591999999999994
v -0.683857 -0.058468 -0.038591999999999994
v 0.670609 -0.060522 -0.038591999999999994
v 0.219077 -0.055264999999999995 0.143539
v 0.221084 0.05665200000000001 0.143539
v 0.662719 0.05180100000000001 0.151992
v 0.668982 0.051801 -0.038592
v 0.670609 -0.060522 -0.038591999999999994
v 0.664346 -0.06052199999999999 0.151992
v 0.219077 -0.055264999999999995 0.143539
v -0.295124 0.05503700000000001 0.118293
v -0.682413 0.05223400000000001 0.122817
v -0.502502 0.05019000000000001 0.214431
v -0.502502 0.05019000000000001 0.214431
v -0.412468 0.05342100000000002 0.223418
v -0.295124 0.05503700000000001 0.118293
v -0.681021 -0.05846799999999999 0.122817
v -0.295202 -0.056778999999999996 0.118293
v -0.410616 -0.058292999999999984 0.223418
v -0.410616 -0.058292999999999984 0.223418
v -0.496791 -0.06132199999999999 0.214431
v -0.681021 -0.05846799999999999 0.122817
v 0.460762 0.061322000000000015 0.237975
v 0.662719 0.05180100000000001 0.151992
v 0.221084 0.05665200000000001 0.143539
v 0.221084 0.05665200000000001 0.143539
v 0.282238 0.05898700000000001 0.227012
v 0.460762 0.061322000000000015 0.237975
v 0.219077 -0.055264999999999995 0.143539
v 0.664346 -0.06052199999999999 0.151992
v 0.458954 -0.05079799999999999 0.237975
v 0.458954 -0.05079799999999999 0.237975
v 0.28033 -0.05303099999999999 0.227012
v 0.219077 -0.055264999999999995 0.143539
v -0.295124 0.05503700000000001 0.118293
v -0.03702 0.05584500000000001 0.173885
v 0.221084 0.05665200000000001 0.143539
v 0.219077 -0.055264999999999995 0.143539
v -0.038062 -0.05602199999999999 0.173885
v -0.295202 -0.056778999999999996 0.118293
v 0.221084 0.05665200000000001 0.143539
v 0.668982 0.051801 -0.038592
v -0.685248 0.052234 -0.038592
v -0.685248 0.052234 -0.038592
v -0.295124 0.05503700000000001 0.118293
v 0.221084 0.05665200000000001 0.143539
v -0.683857 -0.058468 -0.038591999999999994
v -0.295202 -0.056778999999999996 0.118293
v -0.681021 -0.05846799999999999 0.122817
v 0.700439 0.05180099999999994 -0.99585
v 0.68471 0.051800999999999965 -0.517221
v 0.686337 -0.060522000000000034 -0.517221
v 0.702066 -0.06052200000000006 -0.99585
v 0.702066 -0.06052200000000006 -0.99585
v 0.686337 -0.060522000000000034 -0.517221
v -0.692266 -0.058468000000000034 -0.517221
v -0.700675 -0.05846800000000006 -0.99585
v -0.685248 0.052234 -0.038592
v -0.693657 0.05223399999999997 -0.517221
v -0.692266 -0.058468000000000034 -0.517221
v -0.683857 -0.058468 -0.038591999999999994
v 0.668982 0.051801 -0.038592
v 0.68471 0.051800999999999965 -0.517221
v -0.693657 0.05223399999999997 -0.517221
v -0.685248 0.052234 -0.038592
v 0.68471 0.051800999999999965 -0.517221
v 0.668982 0.051801 -0.038592
v 0.670609 -0.060522 -0.038591999999999994
v 0.686337 -0.060522000000000034 -0.517221
v 0.686337 -0.060522000000000034 -0.517221
v 0.670609 -0.060522 -0.038591999999999994
v -0.683857 -0.058468 -0.038591999999999994
v -0.692266 -0.058468000000000034 -0.517221
v -0.693657 0.05223399999999997 -0.517221
v -0.702066 0.05223399999999994 -0.99585
v -0.700675 -0.05846800000000006 -0.99585
v -0.692266 -0.058468000000000034 -0.517221
v 0.700439 0.05180099999999994 -0.99585
v -0.702066 0.05223399999999994 -0.99585
v -0.693657 0.05223399999999997 -0.517221
v 0.68471 0.051800999999999965 -0.517221
v -0.03702 0.05584500000000001 0.173885
v -0.038062 -0.05602199999999999 0.173885
v 0.219077 -0.055264999999999995 0.143539
v 0.221084 0.05665200000000001 0.143539
v 0.28033 -0.05303099999999999 0.227012
v 0.282238 0.05898700000000001 0.227012
v 0.458954 -0.05079799999999999 0.237975
v 0.460762 0.061322000000000015 0.237975
v 0.662719 0.05180100000000001 0.151992
v 0.664346 -0.06052199999999999 0.151992
v 0.668982 0.051801 -0.038592
v 0.670609 -0.060522 -0.038591999999999994
v -0.682413 0.05223400000000001 0.122817
v -0.685248 0.052234 -0.038592
v -0.683857 -0.058468 -0.038591999999999994
v -0.681021 -0.05846799999999999 0.122817
v -0.502502 0.05019000000000001 0.214431
v -0.496791 -0.06132199999999999 0.214431
v -0.412468 0.05342100000000002 0.223418
v -0.410616 -0.058292999999999984 0.223418
v -0.295124 0.05503700000000001 0.118293
v -0.295202 -0.056778999999999996 0.118293
v -0.038062 -0.05602199999999999 0.173885
v -0.03702 0.05584500000000001 0.173885
vt 1.291791 0.016831
vt 1.292300 0.074663
vt 1.361712 0.073044
vt 0.453504 0.082068
vt 0.361335 0.073004
vt 0.291679 0.016764
vt 0.291679 0.016764
vt 0.534416 0.016834
vt 0.453504 0.082068
vt 1.454228 0.082070
vt 1.533371 0.085018
vt 1.534494 0.016733
vt 0.534416 0.016834
vt 0.533294 0.085142
vt 0.453504 0.082068
vt 1.361712 0.073044
vt 1.292300 0.074663
vt 1.324540 0.107453
vt 1.324540 0.107453
vt 1.340680 0.110701
vt 1.361712 0.073044
vt 0.292188 0.074616
vt 0.361335 0.073004
vt 0.340648 0.110684
vt 0.340648 0.110684
vt 0.325199 0.107473
vt 0.292188 0.074616
vt 1.497188 0.115939
vt 1.533371 0.085018
vt 1.454228 0.082070
vt 1.454228 0.082070
vt 1.465191 0.111998
vt 1.497188 0.115939
vt 0.453504 0.082068
vt 0.533294 0.085142
vt 0.496501 0.115906
vt 0.496501 0.115906
vt 0.464485 0.111979
vt 0.453504 0.082068
vt 1.361712 0.073044
vt 1.407970 0.092953
vt 1.454228 0.082070
vt 0.453504 0.082068
vt 0.407419 0.092937
vt 0.361335 0.073004
vt 1.454228 0.082070
vt 1.534494 0.016733
vt 1.291791 0.016831
vt 1.291791 0.016831
vt 1.361712 0.073044
vt 1.454228 0.082070
vt 0.291679 0.016764
vt 0.361335 0.073004
vt 0.292188 0.074616
vt 0.541270 0.982875
vt 0.541270 0.832668
vt 0.559926 0.832668
vt 0.559926 0.982875
vt 0.739341 0.653870
vt 0.739341 0.506921
vt 0.978372 0.506921
vt 0.978372 0.653870
vt 0.559926 0.832668
vt 0.559926 0.982875
vt 0.541270 0.982875
vt 0.541270 0.832668
vt 0.978372 0.507245
vt 0.978372 0.654193
vt 0.739341 0.654193
vt 0.739341 0.507245
vt 0.541270 0.982875
vt 0.541270 0.832668
vt 0.559926 0.832668
vt 0.559926 0.982875
vt 0.739341 0.654193
vt 0.739341 0.507245
vt 0.978372 0.507245
vt 0.978372 0.654193
vt 0.559926 0.832668
vt 0.559926 0.982875
vt 0.541270 0.982875
vt 0.541270 0.832668
vt 0.978240 0.653687
vt 0.739473 0.653687
vt 0.739473 0.507104
vt 0.978240 0.507104
vt 0.901927 0.304625
vt 0.884551 0.304956
vt 0.884653 0.226392
vt 0.902036 0.225765
vt 0.884877 0.194088
vt 0.902276 0.193488
vt 0.885219 0.138369
vt 0.902633 0.137872
vt 0.901233 0.069645
vt 0.883787 0.069133
vt 0.901621 0.010382
vt 0.884175 0.009906
vt 0.470308 0.122916
vt 0.495833 0.129166
vt 0.493682 0.164182
vt 0.468125 0.157921
vt 0.438268 0.116218
vt 0.435486 0.151361
vt 0.423877 0.112230
vt 0.421797 0.147590
vt 0.398836 0.106591
vt 0.397026 0.142038
vt 0.356006 0.133401
vt 0.357666 0.097906
vn -0.007236 0.999974 0.00012699999999993877
vn -0.007236 0.999974 0.00012699999999993877
vn -0.007236 0.999974 0.00012699999999993877
vn 0.002751 -0.999988 0.003949000000000062
vn 0.002751 -0.999988 0.003949000000000062
vn 0.002751 -0.999988 0.003949000000000062
vn -0.001516 -0.999684 0.025097000000000064
vn -0.001516 -0.999684 0.025097000000000064
vn -0.001516 -0.999684 0.025097000000000064
vn 0.010979 0.99994 0.0003609999999999388
vn 0.010979 0.99994 0.0003609999999999388
vn 0.010979 0.99994 0.0003609999999999388
vn -0.011799 -0.99993 -0.0003879999999999388
vn -0.011799 -0.99993 -0.0003879999999999388
vn -0.011799 -0.99993 -0.0003879999999999388
vn -0.006816 0.99934 0.03567899999999994
vn -0.006816 0.99934 0.03567899999999994
vn -0.006816 0.99934 0.03567899999999994
vn -0.033644 0.999187 -0.02219800000000006
vn -0.033644 0.999187 -0.02219800000000006
vn -0.033644 0.999187 -0.02219800000000006
vn 0.004262 -0.999944 -0.00972399999999994
vn 0.004262 -0.999944 -0.00972399999999994
vn 0.004262 -0.999944 -0.00972399999999994
vn 0.048129 -0.990651 -0.12764999999999996
vn 0.048129 -0.990651 -0.12764999999999996
vn 0.048129 -0.990651 -0.12764999999999996
vn 0.0125 0.996636 -0.08100200000000006
vn 0.0125 0.996636 -0.08100200000000006
vn 0.0125 0.996636 -0.08100200000000006
vn -0.011892 0.999744 -0.019250000000000062
vn -0.011892 0.999744 -0.019250000000000062
vn -0.011892 0.999744 -0.019250000000000062
vn -0.013304 -0.996631 0.08093200000000006
vn -0.013304 -0.996631 0.08093200000000006
vn -0.013304 -0.996631 0.08093200000000006
vn 0.011371 -0.999766 0.01840600000000006
vn 0.011371 -0.999766 0.01840600000000006
vn 0.011371 -0.999766 0.01840600000000006
vn -0.00313 0.999995 9.99999999938768E-07
vn -0.00313 0.999995 9.99999999938768E-07
vn -0.00313 0.999995 9.99999999938768E-07
vn 0.002945 -0.999996 -9.99999999938768E-07
vn 0.002945 -0.999996 -9.99999999938768E-07
vn 0.002945 -0.999996 -9.99999999938768E-07
vn 0.00032 0.999666 -0.02584400000000006
vn 0.00032 0.999666 -0.02584400000000006
vn 0.00032 0.999666 -0.02584400000000006
vn -0.002568 0.999931 -0.011480000000000061
vn -0.002568 0.999931 -0.011480000000000061
vn -0.002568 0.999931 -0.011480000000000061
vn 0.004376 -0.999991 -7.699999999993877E-05
vn 0.004376 -0.999991 -7.699999999993877E-05
vn 0.004376 -0.999991 -7.699999999993877E-05
vn 0.999356 0.014475000000000002 0.03284
vn 0.999356 0.014475000000000002 0.03284
vn 0.999356 0.014475000000000002 0.03284
vn 0.999356 0.014475000000000002 0.03284
vn -0.001464 -0.999999 2.6000000000061232E-05
vn -0.00149 -0.999999 -4.899999999993877E-05
vn -0.001464 -0.999999 2.6000000000061232E-05
vn -0.001464 -0.999999 2.6000000000061232E-05
vn -0.999767 -0.012565999999999999 0.017564
vn -0.999767 -0.012565999999999999 0.017564
vn -0.999767 -0.012565999999999999 0.017564
vn -0.999767 -0.012565999999999999 0.017564
vn 0.00032 1 -6.000000000061232E-06
vn 0.000314 1 9.999999999938769E-06
vn 0.00032 1 -6.000000000061232E-06
vn 0.00032 1 -6.000000000061232E-06
vn 0.999356 0.014475000000000002 0.03284
vn 0.999356 0.014475000000000002 0.03284
vn 0.999356 0.014475000000000002 0.03284
vn 0.999356 0.014475000000000002 0.03284
vn -0.00149 -0.999999 2.6000000000061232E-05
vn -0.001517 -0.999999 -4.999999999993877E-05
vn -0.00149 -0.999999 2.6000000000061232E-05
vn -0.00149 -0.999999 2.6000000000061232E-05
vn -0.999767 -0.012565999999999999 0.017564
vn -0.999767 -0.012565999999999999 0.017564
vn -0.999767 -0.012565999999999999 0.017564
vn -0.999767 -0.012565999999999999 0.017564
vn 0.000314 1 9.999999999938769E-06
vn 0.000309 1 -5.000000000061232E-06
vn 0.000314 1 9.999999999938769E-06
vn 0.000314 1 9.999999999938769E-06
vn 0.0079 -0.00041299999999993875 0.999969
vn -0.102797 0.0003430000000000609 0.994702
vn -0.216768 0.00427000000000006 0.976214
vn -0.566742 0.00988700000000005 0.823836
vn -0.60908 0.01063700000000005 0.793037
vn -0.338097 0.005737000000000057 0.941094
vn 0.168263 0.0003380000000000603 0.985742
vn 0.169615 -0.0027349999999999397 0.985507
vn 0.68785 0.005326000000000044 0.725833
vn 0.923788 0.013381000000000025 0.382672
vn 0.999356 0.014475000000000002 0.03284
vn 0.999356 0.014475000000000002 0.03284
vn -0.935485 -0.011757999999999979 0.35317
vn -0.999767 -0.012565999999999999 0.017564
vn -0.999767 -0.012565999999999999 0.017564
vn -0.724986 -0.01568399999999996 0.688585
vn -0.337852 -0.011367999999999942 0.941131
vn -0.219241 -0.010013999999999941 0.975619
vn 0.167405 0.0015370000000000602 0.985887
vn 0.446485 0.0032030000000000548 0.894785
vn 0.258069 0.003568000000000059 0.96612
vn 0.259914 -0.0001799999999999409 0.965632
vn -0.102797 0.0003430000000000609 0.994702
vn 0.0079 -0.00041299999999993875 0.999969
g 10 - Default
f 1/1/1 2/2/2 3/3/3
f 4/4/4 5/5/5 6/6/6
f 7/7/7 8/8/8 9/9/9
f 10/10/10 11/11/11 12/12/12
f 13/13/13 14/14/14 15/15/15
f 16/16/16 17/17/17 18/18/18
f 19/19/19 20/20/20 21/21/21
f 22/22/22 23/23/23 24/24/24
f 25/25/25 26/26/26 27/27/27
f 28/28/28 29/29/29 30/30/30
f 31/31/31 32/32/32 33/33/33
f 34/34/34 35/35/35 36/36/36
f 37/37/37 38/38/38 39/39/39
f 40/40/40 41/41/41 42/42/42
f 43/43/43 44/44/44 45/45/45
f 46/46/46 47/47/47 48/48/48
f 49/49/49 50/50/50 51/51/51
f 52/52/52 53/53/53 54/54/54
f 55/55/55 56/56/56 57/57/57
f 57/57/57 58/58/58 55/55/55
f 59/59/59 60/60/60 61/61/61
f 61/61/61 62/62/62 59/59/59
f 63/63/63 64/64/64 65/65/65
f 65/65/65 66/66/66 63/63/63
f 67/67/67 68/68/68 69/69/69
f 69/69/69 70/70/70 67/67/67
f 71/71/71 72/72/72 73/73/73
f 73/73/73 74/74/74 71/71/71
f 75/75/75 76/76/76 77/77/77
f 77/77/77 78/78/78 75/75/75
f 79/79/79 80/80/80 81/81/81
f 81/81/81 82/82/82 79/79/79
f 83/83/83 84/84/84 85/85/85
f 85/85/85 86/86/86 83/83/83
f 87/87/87 88/88/88 89/89/89
f 89/89/89 90/90/90 87/87/87
f 90/90/90 89/89/89 91/91/91
f 91/91/91 92/92/92 90/90/90
f 92/92/92 91/91/91 93/93/93
f 93/93/93 94/94/94 92/92/92
f 95/95/95 94/94/94 93/93/93
f 93/93/93 96/96/96 95/95/95
f 97/97/97 95/95/95 96/96/96
f 96/96/96 98/98/98 97/97/97
f 99/99/99 100/100/100 101/101/101
f 101/101/101 102/102/102 99/99/99
f 103/103/103 99/99/99 102/102/102
f 102/102/102 104/104/104 103/103/103
f 105/105/105 103/103/103 104/104/104
f 104/104/104 106/106/106 105/105/105
f 107/107/107 105/105/105 106/106/106
f 106/106/106 108/108/108 107/107/107
f 107/107/107 108/108/108 109/109/109
f 109/109/109 110/110/110 107/107/107
