v 0.253957 -0.022072999999999947 0.854848
v 0.253957 -0.02627499999999995 0.820308
v 0.253957 0.03795100000000005 0.820308
v 0.253957 0.033706000000000055 0.854849
v -0.230329 0.037952000000000055 0.881045
v -0.253956 0.03795200000000005 0.81613
v -0.253956 -0.02627499999999995 0.81613
v -0.230329 -0.026274999999999944 0.881045
v -0.035343 0.039725000000000045 0.628694
v -0.084646 0.03972500000000004 0.545565
v -0.161776 0.03795200000000005 0.749274
v -0.122189 0.03795200000000005 0.818355
v -0.253956 0.03795200000000005 0.81613
v -0.230329 0.037952000000000055 0.881045
v -0.106223 -0.039453 -0.007296999999999997
v -0.106223 -0.039453 0.035268
v -0.106223 0.039454 0.035268
v -0.106223 0.039454 -0.007297000000000002
v -0.037888 0.078907 0.035267999999999994
v -0.037888 0.078907 -0.007297000000000005
v 0.030447 0.039453 0.035268
v 0.030447 0.039453 -0.007297000000000002
v 0.030447 -0.039453 0.035268
v 0.030447 -0.039453 -0.007296999999999997
v -0.037888 -0.078907 0.03526800000000001
v -0.037888 -0.078907 -0.0072969999999999945
v -0.106223 -0.039453 0.035268
v -0.106223 -0.039453 -0.007296999999999997
v -0.106223 -0.03945299999999997 0.531962
v -0.106223 -0.03945299999999997 0.572804
v -0.106223 0.03945400000000004 0.572804
v -0.106223 0.03945400000000004 0.531962
v -0.037888 0.07890700000000005 0.572804
v -0.037888 0.07890700000000003 0.531962
v 0.030447 0.03945300000000004 0.572804
v 0.030447 0.03945300000000004 0.531962
v 0.030447 -0.03945299999999997 0.572804
v 0.030447 -0.03945299999999997 0.531962
v -0.037888 -0.07890699999999996 0.572804
v -0.037888 -0.07890699999999998 0.531962
v -0.106223 -0.03945299999999997 0.572804
v -0.106223 -0.03945299999999997 0.531962
v -0.088903 -0.029452999999999997 0.035268
v -0.088903 -0.029452999999999965 0.544589
v -0.088903 0.029454000000000036 0.544589
v -0.088903 0.029454000000000004 0.035268
v -0.037888 0.058907000000000036 0.544589
v -0.037888 0.058907 0.035267999999999994
v 0.013127 0.029453000000000035 0.544589
v 0.013127 0.029453000000000003 0.035268
v 0.013127 -0.029452999999999965 0.544589
v 0.013127 -0.029452999999999997 0.035268
v -0.037888 -0.058906999999999966 0.544589
v -0.037888 -0.058907 0.03526800000000001
v -0.088903 -0.029452999999999965 0.544589
v -0.088903 -0.029452999999999997 0.035268
v 0.2017 0.037951000000000054 0.871054
v 0.253957 0.033706000000000055 0.854849
v 0.253957 0.03795100000000005 0.820308
v 0.091089 0.03795100000000005 0.749274
v 0.051502 0.03795100000000005 0.818355
v -0.035343 0.039725000000000045 0.628694
v 0.013959 0.03972500000000004 0.545565
v -0.084646 0.03972500000000004 0.545565
v 0.091089 -0.026274999999999955 0.749274
v 0.013959 -0.027792999999999967 0.545565
v 0.013959 0.03972500000000004 0.545565
v 0.091089 0.03795100000000005 0.749274
v 0.253957 -0.02627499999999995 0.820308
v 0.253957 0.03795100000000005 0.820308
v 0.253957 -0.022072999999999947 0.854848
v 0.2017 -0.026274999999999948 0.871054
v 0.253957 -0.02627499999999995 0.820308
v 0.091089 -0.026274999999999955 0.749274
v 0.051502 -0.02627499999999995 0.818355
v -0.035343 -0.027792999999999964 0.628694
v 0.013959 -0.027792999999999967 0.545565
v -0.084646 -0.027792999999999967 0.545565
v -0.122189 -0.02627499999999995 0.818355
v -0.035343 -0.027792999999999964 0.628694
v -0.035343 0.039725000000000045 0.628694
v -0.122189 0.03795200000000005 0.818355
v -0.230329 -0.026274999999999944 0.881045
v -0.230329 0.037952000000000055 0.881045
v -0.161776 0.03795200000000005 0.749274
v -0.084646 0.03972500000000004 0.545565
v -0.084646 -0.027792999999999967 0.545565
v -0.161776 -0.026274999999999955 0.749274
v -0.253956 0.03795200000000005 0.81613
v -0.253956 -0.02627499999999995 0.81613
v 0.253957 -0.022072999999999947 0.854848
v 0.253957 0.033706000000000055 0.854849
v 0.2017 0.037951000000000054 0.871054
v 0.2017 -0.026274999999999948 0.871054
v 0.051502 -0.02627499999999995 0.818355
v 0.051502 0.03795100000000005 0.818355
v -0.035343 0.039725000000000045 0.628694
v -0.035343 -0.027792999999999964 0.628694
v -0.161776 -0.026274999999999955 0.749274
v -0.084646 -0.027792999999999967 0.545565
v -0.035343 -0.027792999999999964 0.628694
v -0.122189 -0.02627499999999995 0.818355
v -0.230329 -0.026274999999999944 0.881045
v -0.253956 -0.02627499999999995 0.81613
v -0.106223 -0.03945299999999997 0.531962
v -0.106223 0.03945400000000004 0.531962
v -0.037888 0.07890700000000003 0.531962
v 0.030447 0.03945300000000004 0.531962
v 0.030447 -0.03945299999999997 0.531962
v -0.037888 -0.07890699999999998 0.531962
v 0.030447 0.039453 0.035268
v -0.037888 0.078907 0.035267999999999994
v -0.106223 0.039454 0.035268
v -0.106223 -0.039453 0.035268
v -0.037888 -0.078907 0.03526800000000001
v 0.030447 -0.039453 0.035268
v -0.037888 -0.07890699999999996 0.572804
v 0.030447 -0.03945299999999997 0.572804
v 0.030447 0.03945300000000004 0.572804
v -0.037888 0.07890700000000005 0.572804
v -0.106223 0.03945400000000004 0.572804
v -0.106223 -0.03945299999999997 0.572804
v -0.037888 0.078907 -0.007297000000000005
v 0.030447 0.039453 -0.007297000000000002
v 0.030447 -0.039453 -0.007296999999999997
v -0.037888 -0.078907 -0.0072969999999999945
v -0.106223 -0.039453 -0.007296999999999997
v -0.106223 0.039454 -0.007297000000000002
vt 0.154960 0.920841
vt 0.156004 0.931865
vt 0.140055 0.931865
vt 0.141109 0.920841
vt 0.160809 0.464799
vt 0.160230 0.490616
vt 0.142900 0.490616
vt 0.143480 0.464799
vt 0.056555 0.658002
vt 0.039719 0.662349
vt 0.042015 0.587908
vt 0.056585 0.588374
vt 0.041200 0.536903
vt 0.052178 0.535286
vt 0.007568 0.898183
vt 0.007568 0.880871
vt 0.019896 0.880871
vt 0.019896 0.898183
vt 0.032224 0.880871
vt 0.032224 0.898183
vt 0.044552 0.880871
vt 0.044552 0.898183
vt 0.056880 0.880871
vt 0.056880 0.898183
vt 0.069208 0.880871
vt 0.069208 0.898183
vt 0.081536 0.880871
vt 0.081536 0.898183
vt 0.007619 0.685308
vt 0.007619 0.668669
vt 0.019928 0.668669
vt 0.019928 0.685308
vt 0.032236 0.668669
vt 0.032236 0.685308
vt 0.044544 0.668669
vt 0.044544 0.685308
vt 0.056852 0.668669
vt 0.056852 0.685308
vt 0.069161 0.668669
vt 0.069161 0.685308
vt 0.081469 0.668669
vt 0.081469 0.685308
vt 0.087260 0.885387
vt 0.087260 0.686763
vt 0.099291 0.686763
vt 0.099291 0.885387
vt 0.111323 0.686763
vt 0.111323 0.885387
vt 0.123355 0.686763
vt 0.123355 0.885387
vt 0.135386 0.686763
vt 0.135386 0.885387
vt 0.147418 0.686763
vt 0.147418 0.885387
vt 0.159449 0.686763
vt 0.159449 0.885387
vt 0.628327 0.845593
vt 0.622451 0.864787
vt 0.617698 0.857882
vt 0.624936 0.782566
vt 0.638456 0.782819
vt 0.642033 0.720660
vt 0.627135 0.713315
vt 0.645102 0.689435
vt 0.609322 0.777458
vt 0.614054 0.709272
vt 0.627135 0.713315
vt 0.624936 0.782566
vt 0.605905 0.854820
vt 0.617698 0.857882
vt 0.601708 0.858384
vt 0.597129 0.836028
vt 0.605905 0.854820
vt 0.609322 0.777458
vt 0.596346 0.772054
vt 0.598435 0.711286
vt 0.614054 0.709272
vt 0.597671 0.679745
vt 0.071609 0.583682
vt 0.072896 0.656294
vt 0.056555 0.658002
vt 0.056585 0.588374
vt 0.067362 0.527394
vt 0.052178 0.535286
vt 0.042015 0.587908
vt 0.039719 0.662349
vt 0.024815 0.659429
vt 0.025191 0.584882
vt 0.041200 0.536903
vt 0.027426 0.534019
vt 0.634437 0.875763
vt 0.622451 0.864787
vt 0.628327 0.845593
vt 0.641603 0.854765
vt 0.652196 0.787852
vt 0.638456 0.782819
vt 0.642033 0.720660
vt 0.657022 0.722240
vt 0.025191 0.584882
vt 0.024815 0.659429
vt 0.008462 0.651746
vt 0.010424 0.583328
vt 0.016802 0.532062
vt 0.027426 0.534019
vt 0.186394 0.828058
vt 0.172585 0.828058
vt 0.165680 0.804095
vt 0.172585 0.780132
vt 0.186394 0.780132
vt 0.193299 0.804095
vt 0.193299 0.804095
vt 0.186394 0.828058
vt 0.172585 0.828058
vt 0.165680 0.804095
vt 0.172585 0.780132
vt 0.186394 0.780132
vt 0.193092 0.804414
vt 0.186237 0.828182
vt 0.172526 0.828182
vt 0.165670 0.804414
vt 0.172526 0.780646
vt 0.186237 0.780646
vt 0.165483 0.804442
vt 0.172440 0.780344
vt 0.186353 0.780344
vt 0.193310 0.804442
vt 0.186353 0.828541
vt 0.172440 0.828541
vn 1 0 0
vn 1 0 0
vn 1 0 0
vn 1 0 0
vn -0.939693 2.094256244753897E-17 0.342018
vn -0.939693 2.094256244753897E-17 0.342018
vn -0.939693 2.094256244753897E-17 0.342018
vn -0.939693 2.094256244753897E-17 0.342018
vn 0 0.999991 0.004203999999999939
vn -0.004479 0.999986 0.002655999999999939
vn -0.006008 0.999976 0.003502999999999939
vn -0.003023 0.999994 0.0017319999999999389
vn 0 1 -6.123233995736766E-17
vn 0 1 -6.123233995736766E-17
vn -0.944911 -0.327327 2.0042998141225283E-17
vn -0.755928 -0.654654 4.0085996282450565E-17
vn -0.944911 0.327327 -2.0042998141225283E-17
vn -0.755928 0.654655 -4.008605751479052E-17
vn -0.188981 0.981981 -6.012899442367585E-17
vn 0.188983 0.98198 -6.012893319133589E-17
vn 0.755929 0.654653 -4.0085935050110614E-17
vn 0.944911 0.327327 -2.0042998141225283E-17
vn 0.944911 -0.327327 2.0042998141225283E-17
vn 0.75593 -0.654653 4.0085935050110614E-17
vn 0.188983 -0.98198 6.012893319133589E-17
vn -0.188981 -0.981981 6.012899442367585E-17
vn -0.755928 -0.654654 4.0085996282450565E-17
vn -0.944911 -0.327327 2.0042998141225283E-17
vn -0.944911 -0.327327 2.0042998141225283E-17
vn -0.755928 -0.654654 4.0085996282450565E-17
vn -0.944911 0.327327 -2.0042998141225283E-17
vn -0.755928 0.654655 -4.008605751479052E-17
vn -0.188981 0.981981 -6.012899442367585E-17
vn 0.188984 0.98198 -6.012893319133589E-17
vn 0.755929 0.654653 -4.0085935050110614E-17
vn 0.944911 0.327327 -2.0042998141225283E-17
vn 0.944911 -0.327327 2.0042998141225283E-17
vn 0.755929 -0.654653 4.0085935050110614E-17
vn 0.188983 -0.98198 6.012893319133589E-17
vn -0.188981 -0.981981 6.012899442367585E-17
vn -0.755928 -0.654654 4.0085996282450565E-17
vn -0.944911 -0.327327 2.0042998141225283E-17
vn -0.944911 -0.327326 2.004293690888533E-17
vn -0.75593 -0.654652 4.008587381777066E-17
vn -0.944911 0.327326 -2.004293690888533E-17
vn -0.75593 0.654652 -4.008587381777066E-17
vn -0.188983 0.98198 -6.012893319133589E-17
vn 0.188983 0.98198 -6.012893319133589E-17
vn 0.75593 0.654652 -4.008587381777066E-17
vn 0.944911 0.327326 -2.004293690888533E-17
vn 0.944911 -0.327326 2.004293690888533E-17
vn 0.75593 -0.654652 4.008587381777066E-17
vn 0.188983 -0.98198 6.012893319133589E-17
vn -0.188983 -0.98198 6.012893319133589E-17
vn -0.75593 -0.654652 4.008587381777066E-17
vn -0.944911 -0.327326 2.004293690888533E-17
vn 0.039342 0.998404 0.04051199999999994
vn 0.117648 0.985638 0.12114799999999995
vn 0.059036 0.996403 0.06079299999999994
vn 0.004506 0.999986 0.002626999999999939
vn 0.004534 0.999986 0.002597999999999939
vn 0 0.999991 0.004203999999999939
vn 0.004479 0.999986 0.002655999999999939
vn -0.004479 0.999986 0.002655999999999939
vn 0.813185 -3.5637528016887765E-17 -0.582005
vn 0.93521 -2.1682004184864145E-17 -0.354094
vn 0.93521 -2.1682004184864145E-17 -0.354094
vn 0.621392 9.999999999520244E-07 -0.7835
vn 0.399775 9.999999999438736E-07 -0.916613
vn 0.399775 2.9999999999438736E-06 -0.916613
vn 0.11648 -0.985924 0.11994500000000005
vn 0.038949 -0.998436 0.040106000000000065
vn 0.058445 -0.996475 0.060184000000000064
vn 0.003858 -0.99999 0.002247000000000061
vn 0.003883 -0.99999 0.002221000000000061
vn 1E-06 -0.999994 0.0035980000000000612
vn 0.003834 -0.99999 0.002274000000000061
vn -0.003833 -0.99999 0.002273000000000061
vn 0.806986 3.6162044240962573E-17 0.590571
vn -0 6.123233995736766E-17 1
vn 0 2.0000000000612323E-06 1
vn 0.665174 4.5721453458086944E-17 0.746688
vn 0.501528 5.297460782305702E-17 0.865141
vn 0.501528 5.297460782305702E-17 0.865141
vn -0.850828 -3.217422686889905E-17 -0.525445
vn -0.93521 -2.1682004184864145E-17 -0.354094
vn -0.93521 -2.1682004184864145E-17 -0.354094
vn -0.730311 -4.182872990997721E-17 -0.683115
vn -0.587109 -4.956806905420878E-17 -0.809508
vn -0.587109 -4.956806905420878E-17 -0.809508
vn 0.296206 -2.9999999999415154E-06 0.955124
vn 0.296204 -4.999999999941516E-06 0.955125
vn -0.018362 -9.99999999938778E-07 0.999831
vn -0.01836 6.122199169191486E-17 0.999831
vn -0.673858 1.000000000045242E-06 0.738861
vn -0.673858 3.0000000000452422E-06 0.738861
vn 0 2.0000000000612323E-06 1
vn -0 6.123233995736766E-17 1
vn -0.003857 -0.99999 0.0022490000000000613
vn -0.003833 -0.99999 0.002273000000000061
vn 1E-06 -0.999994 0.0035980000000000612
vn -0.003881 -0.99999 0.002224000000000061
vn -0 -1 6.123233995736766E-17
vn -0 -1 6.123233995736766E-17
vn 0 -6.123233995736766E-17 -1
vn 0 -6.123233995736766E-17 -1
vn 0 -6.123233995736766E-17 -1
vn 0 -6.123233995736766E-17 -1
vn 0 -6.123233995736766E-17 -1
vn 0 -6.123233995736766E-17 -1
vn 0 6.123233995736766E-17 1
vn 0 6.123233995736766E-17 1
vn 0 6.123233995736766E-17 1
vn 0 6.123233995736766E-17 1
vn 0 6.123233995736766E-17 1
vn 0 6.123233995736766E-17 1
vn 0 6.123233995736766E-17 1
vn 0 6.123233995736766E-17 1
vn 0 6.123233995736766E-17 1
vn 0 6.123233995736766E-17 1
vn 0 6.123233995736766E-17 1
vn 0 6.123233995736766E-17 1
vn 0 -6.123233995736766E-17 -1
vn 0 -6.123233995736766E-17 -1
vn 0 -6.123233995736766E-17 -1
vn 0 -6.123233995736766E-17 -1
vn 0 -6.123233995736766E-17 -1
vn 0 -6.123233995736766E-17 -1
g 10 - Default
f 1/1/1 2/2/2 3/3/3
f 3/3/3 4/4/4 1/1/1
f 5/5/5 6/6/6 7/7/7
f 7/7/7 8/8/8 5/5/5
f 9/9/9 10/10/10 11/11/11
f 11/11/11 12/12/12 9/9/9
f 12/12/12 11/11/11 13/13/13
f 13/13/13 14/14/14 12/12/12
f 15/15/15 16/16/16 17/17/17
f 17/17/17 18/18/18 15/15/15
f 18/18/18 17/17/17 19/19/19
f 19/19/19 20/20/20 18/18/18
f 20/20/20 19/19/19 21/21/21
f 21/21/21 22/22/22 20/20/20
f 22/22/22 21/21/21 23/23/23
f 23/23/23 24/24/24 22/22/22
f 24/24/24 23/23/23 25/25/25
f 25/25/25 26/26/26 24/24/24
f 26/26/26 25/25/25 27/27/27
f 27/27/27 28/28/28 26/26/26
f 29/29/29 30/30/30 31/31/31
f 31/31/31 32/32/32 29/29/29
f 32/32/32 31/31/31 33/33/33
f 33/33/33 34/34/34 32/32/32
f 34/34/34 33/33/33 35/35/35
f 35/35/35 36/36/36 34/34/34
f 36/36/36 35/35/35 37/37/37
f 37/37/37 38/38/38 36/36/36
f 38/38/38 37/37/37 39/39/39
f 39/39/39 40/40/40 38/38/38
f 40/40/40 39/39/39 41/41/41
f 41/41/41 42/42/42 40/40/40
f 43/43/43 44/44/44 45/45/45
f 45/45/45 46/46/46 43/43/43
f 46/46/46 45/45/45 47/47/47
f 47/47/47 48/48/48 46/46/46
f 48/48/48 47/47/47 49/49/49
f 49/49/49 50/50/50 48/48/48
f 50/50/50 49/49/49 51/51/51
f 51/51/51 52/52/52 50/50/50
f 52/52/52 51/51/51 53/53/53
f 53/53/53 54/54/54 52/52/52
f 54/54/54 53/53/53 55/55/55
f 55/55/55 56/56/56 54/54/54
f 57/57/57 58/58/58 59/59/59
f 57/57/57 59/59/59 60/60/60
f 60/60/60 61/61/61 57/57/57
f 62/62/62 61/61/61 60/60/60
f 60/60/60 63/63/63 62/62/62
f 64/64/64 62/62/62 63/63/63
f 65/65/65 66/66/66 67/67/67
f 67/67/67 68/68/68 65/65/65
f 69/69/69 65/65/65 68/68/68
f 68/68/68 70/70/70 69/69/69
f 71/71/71 72/72/72 73/73/73
f 74/74/74 73/73/73 72/72/72
f 72/72/72 75/75/75 74/74/74
f 74/74/74 75/75/75 76/76/76
f 76/76/76 77/77/77 74/74/74
f 77/77/77 76/76/76 78/78/78
f 79/79/79 80/80/80 81/81/81
f 81/81/81 82/82/82 79/79/79
f 83/83/83 79/79/79 82/82/82
f 82/82/82 84/84/84 83/83/83
f 85/85/85 86/86/86 87/87/87
f 87/87/87 88/88/88 85/85/85
f 89/89/89 85/85/85 88/88/88
f 88/88/88 90/90/90 89/89/89
f 91/91/91 92/92/92 93/93/93
f 93/93/93 94/94/94 91/91/91
f 95/95/95 94/94/94 93/93/93
f 93/93/93 96/96/96 95/95/95
f 95/95/95 96/96/96 97/97/97
f 97/97/97 98/98/98 95/95/95
f 99/99/99 100/100/100 101/101/101
f 101/101/101 102/102/102 99/99/99
f 99/99/99 102/102/102 103/103/103
f 103/103/103 104/104/104 99/99/99
f 105/105/105 106/106/106 107/107/107
f 107/107/107 108/108/108 105/105/105
f 105/105/105 108/108/108 109/109/109
f 109/109/109 110/110/110 105/105/105
f 111/111/111 112/112/112 113/113/113
f 113/113/113 114/114/114 111/111/111
f 111/111/111 114/114/114 115/115/115
f 115/115/115 116/116/116 111/111/111
f 117/117/117 118/118/118 119/119/119
f 119/119/119 120/120/120 117/117/117
f 117/117/117 120/120/120 121/121/121
f 121/121/121 122/122/122 117/117/117
f 123/123/123 124/124/124 125/125/125
f 125/125/125 126/126/126 123/123/123
f 123/123/123 126/126/126 127/127/127
f 127/127/127 128/128/128 123/123/123
