v -0.938830158 0.8418863565 0.031735651499999955
v -1.058847804 0.9805716585 -0.015284430000000059
v -0.871617852 0.9312476040000001 0.12374803349999995
v -0.9916354980000001 1.069932843 0.07672795199999993
v -0.76111749 1.024594641 0.08198656199999994
v -0.8811351359999999 1.16327988 0.03496651199999993
v -0.8283193065 0.976292604 0.013963886999999942
v -1.0326258495 0.8016580845000001 0.013963855499999952
v -0.912324861 1.07457147 0.060309112499999935
v -1.116631404 0.8999369505 0.06030911249999994
v -1.0013352930000001 1.178705556 0.05047134749999993
v -1.205641773 1.0040710995 0.05047131599999993
v -1.0531380195 1.015404075 0.012992143499999937
v -0.870686586 0.818046999 0.01299214349999995
v -1.144074834 0.931335426 0.08803991699999994
v -0.9616233375000001 0.73397835 0.08803991699999995
v -1.2478755555 0.8353743615 0.05663788199999995
v -1.0654240904999999 0.6380172855 0.05663788199999996
v -0.9862849395 0.7716273705 0.011391218999999952
v -0.912488535 1.030069719 0.011391218999999937
v -0.8746668630000001 0.7397555760000001 0.08480212649999995
v -0.8008705215 0.998197956 0.08480212649999994
v -0.7440451515000001 0.702457497 0.10505965049999996
v -0.6702487785 0.9608998455000001 0.10505965049999995
v -1.0328164245 0.8460090764999999 0.10195787699999995
v -0.8540282835 0.966327138 0.15359611049999994
v -0.986733846 0.755804133 0.15258442499999997
v -0.8079457365 0.876122226 0.20422265849999996
v -0.9249826635 0.6611250870000001 0.15938577899999998
v -0.7461945225 0.7814432429999999 0.21102404399999994
v -0.899725239 0.796915602 0.15687740249999996
v -0.994811769 0.9897495930000001 0.13970089349999992
v -0.8035690950000001 0.8512760655 0.18182770199999992
v -0.8986555935 1.0441100565 0.16465122449999994
v -0.701517978 0.8959175189999999 0.16142430149999995
v -0.796604571 1.0887514470000001 0.10774219049999993
v -0.9347796045000001 0.9822602475 0.11718828449999995
v -1.0189344690000002 0.82294632 0.14515625249999994
v -1.010557296 1.0294804485 0.15815557799999996
v -1.0947122235 0.870166584 0.18612354599999995
v -1.095061905 1.068633027 0.12690823949999994
v -1.1792168324999999 0.9093191625 0.15487620749999995
v -0.874547541 0.9269410185 0.21343429799999997
v -0.993566259 0.811763379 0.18657878399999997
v -0.9637126065 1.0094308875 0.25481609999999993
v -1.0827313875 0.894253248 0.22796055449999997
v -1.0330951995 1.0889326350000001 0.17316397349999996
v -1.1521138545 0.9737551215 0.14630842799999996
v -1.0402912800000002 0.9483971175 0.15682961699999995
v -0.8305146675 0.86118795 0.22837144049999994
v -1.0978799895 0.8622934425 0.22073221799999995
v -0.888103314 0.7750842120000001 0.29227407299999997
v -1.1495638664999999 0.753803127 0.24003170099999993
v -0.9397872225 0.6665938965 0.3115735245
v -0.8128388835 0.8663037075000001 0.21125125349999993
v -0.9503068680000001 0.8585414145 0.18750812849999993
v -0.822263022 0.9640344734999999 0.23386425299999994
v -0.967888089 0.948277134 0.2599625069999999
v -0.8290504215000001 1.0643494679999999 0.24036648299999996
v -0.966518469 1.056587175 0.21662332649999994
v -0.94392459 0.8070054615 0.21246293249999995
v -0.9196516979999999 0.910882917 0.18011488949999996
v -0.870727221 0.812154735 0.2839232654999999
v -0.8464542975 0.9160321275 0.2515752224999999
v -0.7857449145 0.7955199315 0.29427287399999996
v -0.7536519585 0.8849423835000001 0.22137421949999994
v -0.9915267915 0.8601138315 0.22875013349999995
v -0.8840448855 0.887574051 0.23968888649999995
v -0.9902130524999999 0.8178160409999999 0.3220245944999999
v -0.8827311465 0.8452762605 0.3329633474999999
v -0.9746027549999999 0.741271734 0.36079466849999997
v -0.8576341199999999 0.746007381 0.33556647599999995
v -0.965458053 0.7763351715 0.22313963699999995
v -0.8388828945 0.8351039969999999 0.21632716349999995
v -0.9287969985 0.704355939 0.28335932099999994
v -0.8117321940000001 0.788625999 0.3198349665
v -0.889061733 0.624133629 0.32958651599999994
v -0.7624865745 0.6829023915 0.32277404249999997
v -0.9697526055 0.9461249595000001 0.20926221749999996
v -0.9294411735 0.807836022 0.310393755
v -1.057842891 0.9446503814999999 0.24235901549999994
v -1.017531459 0.806361381 0.3434905214999999
v -1.140467769 0.9049603815 0.22102082099999995
v -1.1001562109999998 0.766671381 0.3221523269999999
v -1.018414404 0.8310169034999999 0.28518657299999994
v -0.876332646 0.9143282925 0.24096444749999993
v -0.9763528635000001 0.806895873 0.374884083
v -0.834271137 0.890207199 0.33066198899999993
v -0.9273248774999999 0.7340640615 0.3951968894999999
v -0.785243088 0.8173754504999999 0.35097476399999994
v -0.9360481095000001 0.817022052 0.3002215545
v -0.9896323815 0.896263515 0.23921093699999996
v -0.909445635 0.865378521 0.3396633029999999
v -0.963029907 0.944619984 0.27865268549999994
v -0.8576528310000001 0.8946312165 0.3321686339999999
v -0.9112371659999999 0.9738727425 0.271158048
v -0.8896019264999999 0.8761892895 0.26547658199999996
v -1.013049009 0.8733939795 0.25504438049999995
v -0.8931674745 0.9686068560000001 0.28290521699999993
v -1.0166144940000001 0.9658115775 0.27247304699999997
v -0.8909388495 1.0495016595 0.23485788899999993
v -1.014385932 1.0467062865 0.22442568749999994
v -1.08903501 -0.77654493 4.754966314593027e-17
v -1.121535009 -0.75778101 4.640070441755742e-17
v -1.08903501 -0.7390171845 4.52517514756407e-17
v -1.115249058 -0.776406015 0.35420266350000007
v -1.1304316484999999 -0.767174247 0.34652034900000006
v -1.115578044 -0.758512314 0.35986308750000007
v -1.115805033 -0.7733919690000001 0.24514607250000006
v -1.0577356965 -0.8012948895 0.298323963
v -1.0665441045 -0.7400369025 0.3393604620000001
v -0.9937475415 -0.7825089825 0.3026314935
v -1.0875155445000002 -0.742832244 0.05392267650000005
v -1.132210044 -0.63393624 0.08797975200000004
v -1.203224211 -0.7187396895 0.07032677400000004
v -1.2469584645 -0.6093959445 0.06182539650000004
v -1.095859548 -0.7461298845 4.5687278740055465e-17
v -1.0191931785000001 -0.6280630335 0.051958903500000035
v -1.1514441645000002 -0.6164564805 0.042074739000000035
v -1.0741597965 -0.498101499 3.049992032004243e-17
v -1.1076666615 -0.756095823 4.629751647428169e-17
v -0.973596015 -0.799907598 0.02086358400000005
v -0.9967395375 -0.6691411125 0.03303915300000004
v -0.8625453795 -0.712895211 0.02586723300000004
v -1.1009263545 -0.7513121385 4.6004600278728895e-17
v -1.1329231094999999 -0.8887785794999999 0.018746910000000058
v -1.004898825 -0.854528409 0.048170052000000046
v -1.072070181 -1.012348449 6.198846438448188e-17
v -1.090507383 -0.758745288 0.06472963350000004
v -0.9772750575 -0.7860745619999999 0.12662801550000005
v -1.006035282 -0.6790367745000001 0.13084605450000003
v -0.8900804115 -0.7050963779999999 0.09203106150000004
v -1.0893315825 -0.7665328125 0.12735037350000006
v -1.0098892125 -0.8201132415 0.17136365400000006
v -1.0023070365 -0.7295324715 0.18591996150000006
v -0.9210135375 -0.782249769 0.18947111400000005
v -1.1016831420000002 -0.7523257139999999 0.06373876950000004
v -1.0980365445 -0.8701521255 0.07326295200000005
v -1.0025497125 -0.8149660785 0.10173117150000005
v -0.9982333935 -0.9324801675 0.08417285100000005
v -1.109777193 -0.75211038 4.605347847362497e-17
v -1.250908218 -0.756895041 0.022693198500000046
v -1.1845014930000002 -0.8719234335 0.023465925000000054
v -1.325428146 -0.8766129014999999 0.009547965000000054
v -1.0843633080000001 -0.7495457445 0.05392485000000005
v -1.2015282194999999 -0.763861959 0.06002019450000005
v -1.138473063 -0.8549077635 0.08082024300000006
v -1.2806402805000001 -0.84659211 0.03002428800000005
v -1.0994592735 -0.7643971755000001 0.12516462000000003
v -1.1900061495 -0.80088561 0.12768777000000006
v -1.1205579735000002 -0.85959531 0.14062110300000005
v -1.2084016770000001 -0.8948233665 0.08453135250000006
v -1.105315911 -0.763405587 0.16853404050000004
v -1.1339139735000001 -0.826109739 0.19551464100000004
v -1.072081332 -0.8210679435 0.22281307650000007
v -1.094623677 -0.8809482780000001 0.15416673300000006
v -1.0945995165000002 -0.7634907945 0.12642899850000006
v -1.0241125334999999 -0.6995453220000001 0.17425478700000005
v -1.1102172165 -0.6686245125000001 0.17399604600000004
v -1.0088917335 -0.6058455165000001 0.16453892700000003
v -1.0993723965 -0.75949524 0.17106336450000006
v -1.0372304879999998 -0.7472390940000001 0.23900143050000006
v -1.0775131919999998 -0.6988331385000001 0.23186520000000008
v -1.01181528 -0.6849188639999999 0.24311936250000002
v -1.1034033884999999 -0.7605791235 0.16958607750000004
v -1.1018971530000001 -0.694680651 0.21072060450000005
v -1.1598599250000001 -0.721709163 0.20877859800000007
v -1.138589739 -0.6410252519999999 0.17628225300000003
v -1.1141250434999999 -0.7769371365 0.24515920800000005
v -1.0857198555 -0.7193026575 0.29623504050000005
v -1.1482433865 -0.7190603910000001 0.2737276605
v -1.1171508705000002 -0.6601728735 0.29418558750000007
v -1.0939288815000001 -0.7647019064999999 0.25779826800000005
v -1.105819848 -0.8321634405 0.27521701200000004
v -1.0483730775000002 -0.8114380784999999 0.3133026855
v -1.0554593175 -0.8766590489999999 0.277416657
v -1.102285737 -0.7615915965 0.254428146
v -1.154999916 -0.71762229 0.28892401650000005
v -1.1700675 -0.777934836 0.2634143715000001
v -1.2144983759999999 -0.730102905 0.20683715850000003
v -1.0949357475 -0.769783707 0.2561506290000001
v -1.1640550319999998 -0.7790838615000001 0.2666489805000001
v -1.1282324129999999 -0.8308830915000001 0.27354036150000005
v -1.189250685 -0.8364057975 0.19496884050000005
v -1.1006826705 -0.7578041940000001 0.17089345350000004
v -1.1675535795 -0.7486565310000001 0.16993547550000007
v -1.1465132805 -0.808140816 0.17697544200000004
v -1.211537187 -0.7981319745000001 0.14528017350000005
v -1.0889582445000001 -0.7634674530000001 0.12778186050000007
v -1.147604598 -0.6863460345 0.13705801200000003
v -1.185923844 -0.768821823 0.12265989750000005
v -1.2436387425 -0.691265988 0.11069383500000005
v -1.0845111375 -0.6774359445 0.37915501050000006
v -1.034586189 -0.7646312519999999 0.38522830500000005
v -1.1779708815 -0.7312571910000001 0.3493600425000001
v -1.1281496309999999 -0.8185009139999999 0.35630273700000004
v -1.0737438075 -0.8667982575000001 0.2697845850000001
v -1.171326807 -0.8606745 0.23497664400000007
v -1.063170549 -0.7845643575 0.38243485350000006
v -1.1599926975 -0.7780858785 0.3360985425000001
v -1.1922425234999998 -0.761266548 0.24652331550000006
v -1.1688675705 -0.7022818215000001 0.28847189700000003
v -1.148218533 -0.796392135 0.31033664550000006
v -1.1256645330000001 -0.7377901965000001 0.35799094800000003
v 0.6052281795 -1.2290205375 0.03552245550000008
v 0.6019573140000001 -1.1916354555000002 0.03552245550000007
v 0.6359689665 -1.2074955165 0.03552245550000008
v 0.6027711795 -1.2342891960000002 0.27573943950000007
v 0.600926571 -1.216893951 0.28479427200000007
v 0.6172826625 -1.22452092 0.28479427200000007
v 0.5967482535 -1.2220148115 0.2418089310000001
v 0.6101737110000001 -1.28841615 0.23518136250000007
v 0.6563136509999999 -1.252511694 0.28744083900000006
v 0.6623890875 -1.326662316 0.2077271280000001
v 0.633915135 -1.2116702115 0.07976263050000007
v 0.6976540305 -1.1141377695 0.12602387700000006
v 0.587280519 -1.1043642015000001 0.11976681150000007
v 0.6516050624999999 -1.0055754135 0.12508794900000006
v 0.6262283160000001 -1.2059850600000002 0.03552245550000008
v 0.7670788965 -1.201606812 0.07564261950000006
v 0.7006430969999999 -1.0866341744999999 0.08179230150000007
v 0.8418476745 -1.0814969655 0.035522455500000064
v 0.6112923075 -1.20202929 0.03552245550000008
v 0.652339737 -1.337056434 0.046652823000000086
v 0.746218368 -1.243224045 0.058528008000000076
v 0.7873243245 -1.3781257245 0.04733098650000009
v 0.619076934 -1.2048067395 0.03552245550000008
v 0.48791077650000003 -1.2580682625000001 0.07754452650000009
v 0.589931055 -1.342858356 0.03635005500000008
v 0.42178436999999996 -1.378201671 0.043123815000000086
v 0.6192610515 -1.218687246 0.08809204950000007
v 0.6628259925 -1.3287742965 0.10529627850000008
v 0.733846869 -1.244355021 0.12733096950000009
v 0.778477077 -1.3521573135 0.08135227800000008
v 0.6042454740000001 -1.1913177465 0.14408830800000008
v 0.558482967 -1.2771580815 0.13864747050000006
v 0.6494001885 -1.27753731 0.15019741800000008
v 0.604458288 -1.3616184645 0.11579220450000009
v 0.6180908894999999 -1.2058639425000002 0.08948923200000007
v 0.523874232 -1.2767684895 0.08761693500000008
v 0.6242422725000001 -1.3238161335 0.09311913450000009
v 0.5303323934999999 -1.3940624565000002 0.0710517780000001
v 0.6133463594999999 -1.198014426 0.03552245550000007
v 0.5284884780000001 -1.085429646 0.06695898300000007
v 0.472382253 -1.2057497865 0.058630162500000076
v 0.447636609 -1.0582982865 0.05540827950000007
v 0.630227934 -1.218094605 0.07900543350000007
v 0.5512633245 -1.1311086465 0.10488457350000006
v 0.5132168684999999 -1.2355595595000002 0.10357023600000007
v 0.4094477415 -1.0995906285000001 0.08045147250000008
v 0.610311429 -1.217684853 0.13879003950000007
v 0.5283286785 -1.1667975165 0.17190085500000007
v 0.5208237720000001 -1.2566130885 0.14490702450000006
v 0.4403848995 -1.202414787 0.12439164150000007
v 0.608651253 -1.2158401184999998 0.1764691740000001
v 0.5418632204999999 -1.232381745 0.2007320805000001
v 0.5826419865 -1.2801280275 0.18921615300000008
v 0.5187328335 -1.2904956855 0.1407358260000001
v 0.6138706455 -1.221148908 0.13838391000000008
v 0.707609763 -1.244158902 0.1601087355000001
v 0.6831851985 -1.157986683 0.19798071300000009
v 0.792609804 -1.2019795515 0.1614591405000001
v 0.6153272685000001 -1.2185091765 0.1766053170000001
v 0.6631778475 -1.2665347064999999 0.2004970275000001
v 0.6789587175 -1.2067887195 0.2259705735000001
v 0.7285481595000001 -1.25108487 0.20540504250000008
v 0.6120827369999999 -1.215819675 0.17696592900000008
v 0.6676207335000001 -1.1832062445 0.2221410870000001
v 0.611923284 -1.1540443950000001 0.24892289100000006
v 0.7101224865 -1.0753893044999998 0.23401998900000004
v 0.5948572455000001 -1.22531976 0.2398816350000001
v 0.6598986975000001 -1.2203382870000001 0.27585684000000005
v 0.6227158455 -1.170890028 0.30244104450000003
v 0.689234805 -1.162740096 0.3116006460000001
v 0.6169494555 -1.2351411765 0.24010273350000008
v 0.556375428 -1.2673111815 0.2414018880000001
v 0.6082002675 -1.3030791480000001 0.2351820555000001
v 0.5498344844999999 -1.330513317 0.1972743255000001
v 0.6144868484999999 -1.226620899 0.24349622850000008
v 0.6204160305 -1.1677833405 0.32211288900000007
v 0.561978396 -1.187622009 0.29582721000000006
v 0.573023052 -1.117814544 0.28468200600000004
v 0.6121939005 -1.2370899555000001 0.23818488750000008
v 0.564709572 -1.1931384465000001 0.2934588195000001
v 0.5442797115 -1.2499514999999999 0.2564266635000001
v 0.5012742105 -1.1963951055000002 0.23310850500000008
v 0.6159445425000001 -1.216488987 0.17731271250000008
v 0.5846743034999999 -1.158810534 0.2106202770000001
v 0.548629956 -1.2102047054999998 0.1956451770000001
v 0.518342643 -1.1504185875000001 0.20281627800000007
v 0.617160348 -1.225753074 0.13769283150000008
v 0.6464940615 -1.1352540150000001 0.17627620500000005
v 0.5567951655000001 -1.1510482409999998 0.1684678905000001
v 0.5866432739999999 -1.0594456110000001 0.18835670700000007
v 0.730635507 -1.2195356039999998 0.31680038250000003
v 0.689910984 -1.306870047 0.258507837
v 0.6311057445 -1.1810101590000002 0.3619935270000001
v 0.5910070005 -1.267002135 0.29433511800000006
v 0.5502219975 -1.2963334229999999 0.2232093465000001
v 0.5108485724999999 -1.237312755 0.25596780300000005
v 0.6077701034999999 -1.279346229 0.29047548600000006
v 0.567909279 -1.2213709830000001 0.32856812100000005
v 0.5618118555 -1.1591083035 0.30251264400000005
v 0.62458893 -1.14894612 0.33743600100000004
v 0.561932595 -1.222094601 0.31183191900000007
v 0.6244303274999999 -1.2125317995 0.3490066125000001
v 1.247192415 -0.9537796485 0.047628378000000055
v 1.1879167545 -0.8266628475000001 0.04762837800000005
v 1.3413513959999999 -0.9098727120000001 0.09067842000000007
v 1.2820757355 -0.782755659 0.09067842000000005
v 1.4355103770000002 -0.8659655235 0.047628378000000055
v 1.3762347165 -0.7388488485 0.06609572550000004
v 1.2534745545 -0.8977820355 0.054446805000000056
v 1.1243983905 -0.9315620055 0.04018571550000005
v 1.2353953185 -0.8375156054999999 0.09850676850000006
v 1.1063191545 -0.8712955755 0.08424567900000005
v 1.2185289899999998 -0.7703708355 0.08502977700000004
v 1.0889810505000002 -0.8068262264999999 0.09314937450000006
v 1.1729865105000001 -0.967397823 0.043581384000000056
v 1.2012115815000002 -0.8585232075 0.049603081500000056
v 1.235151855 -0.9857059695 0.12720115800000006
v 1.263376926 -0.8768313855 0.13322285550000004
v 1.3180917015 -1.007676936 0.08442478800000006
v 1.3382360775 -0.897377544 0.11600653050000005
v 1.1233825155 -0.9364446945 0.039726666000000056
v 1.2628184310000001 -0.9478246050000001 0.04886887950000006
v 1.1166245685 -0.998707752 0.09367643250000006
v 1.2560604525 -1.0100877255 0.10281864600000006
v 1.1107675845 -1.0712715615 0.09157475250000006
v 1.2500102475 -1.0804421565 0.11273928750000008
v 1.161851985 -0.7790939415 0.04762837800000005
v 1.197933786 -0.9837230445 0.04762837800000006
v 1.059537528 -0.797134716 0.09067842000000005
v 1.0956191085 -1.0017638505 0.09067842000000007
v 0.9572229765000001 -0.815175522 0.04762837800000005
v 0.993304557 -1.0198045619999998 0.06609572550000005
v 1.1812260915 -0.851415579 0.15149940750000004
v 1.164912777 -0.943932654 0.15149940750000004
v 1.0942886745 -0.8360863875000001 0.10482790500000005
v 1.0779753285 -0.9286032104999999 0.10482790500000005
v 1.1703513465 -0.9160830945 0.19344080700000005
v 1.232278299 -0.9385771185 0.19199224800000006
v 1.1488818285 -0.974194011 0.16082734500000004
v 1.2108087810000001 -0.9966880349999999 0.15937878600000005
v 1.2708489150000002 1.0672638795 -0.007256623500000065
v 1.3315151115000001 1.010199708 0.10026440549999995
v 1.3310452575 1.121047515 0.09061545149999993
v 1.453024629 1.0657375785 0.09277717049999994
v 1.3244413455000001 1.1311042995 -0.01090734750000007
v 1.405880595 1.163563443 0.07637382899999993
v 1.322705475 1.2341722995 0.06917620499999994
v 1.4336812665 1.284165981 0.1070692559999999
v 1.3141457909999998 1.1327646015 -0.01059741900000007
v 1.374155181 1.0431659385 0.05950712249999994
v 1.419638535 1.143414279 0.05252426549999993
v 1.4986819889999998 1.047179259 0.05078102399999994
v 1.1756750355 1.1926700415 -0.013285723500000074
v 1.2555550665 1.200766644 0.09492931349999993
v 1.1719718639999999 1.2728305169999998 0.11471389649999991
v 1.2914527814999999 1.327887036 0.1375683434999999
v 1.334776086 1.1197979415 -0.012646305000000068
v 1.3173378119999999 1.199070873 0.09540742049999994
v 1.2534310530000001 1.1086951365000002 0.09146651849999993
v 1.189011915 1.223405316 0.09854841149999993
v 1.191519252 1.202271084 -0.009001723500000074
v 1.0875340665 1.2145199850000001 0.055415902499999926
v 1.1305507184999999 1.1135194245 0.05393023649999993
v 1.00734354 1.1189089799999998 0.047659310999999926
v 1.2951581265 1.0682417654999998 -0.005047528500000066
v 1.1956778505 1.107451674 0.054501614999999934
v 1.2149176095 0.9980659395000001 0.06532394399999995
v 1.0954585845 1.0351483065 0.05827203899999994
v 1.183779072 1.195438356 -0.010507171500000074
v 1.1544417674999998 1.1103716295 0.07685369999999993
v 1.2626396055 1.1284340445 0.05673244499999993
v 1.2291283305 1.0107981135 0.08657296199999995
v 1.285767378 1.0637055135 -0.004793607000000065
v 1.237794012 0.9888799095 0.08806804649999994
v 1.347203592 0.9785877255 0.06876194849999995
v 1.2850252695 0.8737770195 0.06787506599999994
v 1.1022021045000001 1.2937255380000001 0.01529391149999992
v 1.1467479555 1.3643288505 0.13819465799999991
v 1.039739715 1.336873545 0.1320124994999999
v 1.0685624985 1.466661546 0.11976766199999991
v 1.0299279375000001 1.3293467774999999 0.026887076999999922
v 0.987982065 1.3992000119999999 0.12219420149999992
v 0.927730314 1.3003836615 0.08674936199999991
v 0.8670181905000001 1.393558866 0.12450642749999992
v 1.030095927 1.3189927905 0.024773615999999922
v 1.106761824 1.3974398865 0.09766111949999992
v 1.0027263015 1.4176283310000002 0.09637465949999992
v 1.0629429615000001 1.5150549015 0.054280484999999906
v 1.0054054395 1.1681773425 -0.01625229900000007
v 0.9743231295 1.243321506 0.09879530849999993
v 0.923656167 1.1429167995 0.08803437299999993
v 0.839866419 1.242465084 0.09968086799999992
v 1.039106943 1.342063863 0.02706810749999992
v 0.9634200345 1.3040227935 0.12178810349999993
v 1.0635536205 1.2652519635 0.10908049949999991
v 0.9695995155 1.1724730605 0.08685580049999993
v 0.992495385 1.1810649375 -0.013595683500000072
v 1.0011409695 1.0758775230000002 0.060398981999999934
v 1.090895274 1.146336156 0.05114176199999993
v 1.1155063185 1.02684456 0.05875197299999994
v 1.0964415105 1.3166564669999998 0.024679714499999922
v 1.0816768305 1.21059981 0.05449827599999993
v 1.1805622919999998 1.2562795035 0.07069072499999993
v 1.1750189535 1.1340437535 0.04641320249999993
v 1.0366070715 0.9629712225 -0.01408094100000006
v 1.123706493 0.957485718 0.07357634549999995
v 1.0788948135 1.05721371 0.07615219499999994
v 1.2000109275 1.0541288835000002 0.09702891449999994
v 1.102643829 1.3088221020000002 0.022248355499999917
v 1.1836507410000001 1.279908252 0.10287068399999992
v 1.172361897 1.387947834 0.10322893349999991
v 1.2828433275000002 1.353447018 0.1268901269999999
v 1.0621102275 1.1728590300000001 0.05982448499999993
v 0.9993827655 1.145644164 0.13901501249999992
v 1.06944138 1.0990575855 0.12326334299999993
v 0.980765541 1.0471047615 0.11579129099999994
v 1.0786924575 1.112347467 0.04630295249999993
v 1.0632126015 1.036043883 0.10102761899999993
v 1.1444071905000002 1.0579401945 0.09926617049999993
v 1.1269439055 0.9622849005 0.11199941549999995
v 1.0842815025 1.117973745 0.04753712249999993
v 1.0013422545 1.110302172 0.10094606549999993
v 1.044445059 1.0394473634999999 0.08299780649999992
v 0.9489253725 1.0324451025 0.08040141899999993
v 1.1831296994999998 1.1782340325 0.05606269199999993
v 1.1529856170000001 1.1106881414999998 0.12868386299999993
v 1.2352770675 1.128601089 0.14729699249999995
v 1.217251665 1.0274767335000001 0.14731860149999995
v 1.067007816 1.111079277 0.04472095949999993
v 1.1246562494999999 1.0730199375 0.12241542599999994
v 1.095903648 1.1524771125000002 0.13334746949999993
v 1.1966129595 1.141662564 0.13697255249999993
v 1.182188826 1.163657187 0.056838820499999936
v 1.235789919 1.214260677 0.11608093349999994
v 1.153163214 1.2316519845 0.11798696699999993
v 1.2109231575000001 1.3066076205000001 0.1263051719999999
v 1.0520004285 1.157053149 0.05876312399999993
v 1.1206031445 1.1937957255 0.11175821999999994
v 1.0431840824999998 1.227942198 0.12623291099999992
v 1.119261402 1.2869044965 0.13112101799999992
v 1.181298195 1.171630719 0.05706877049999993
v 1.1406381525 1.2151314945 0.1329804314999999
v 1.1042790255000001 1.1428250085 0.10451328299999993
v 1.044936774 1.2107521755 0.1398003704999999
v 1.0532852190000002 1.1648179619999999 0.06033062699999993
v 1.0273014045 1.214699031 0.14166419399999994
v 0.9725401349999999 1.1538530955 0.11585457449999993
v 0.9339287895 1.2381017355 0.1300171004999999
v 1.2792293325000001 1.176099939 0.07801116749999994
v 1.3040648460000002 1.101358692 0.16083525149999994
v 1.3339798920000001 1.1805219405 0.16996470749999992
v 1.4030485874999998 1.1078734590000001 0.14758987949999997
v 1.333566045 1.203924645 0.09197332199999993
v 1.3960926 1.1868702615 0.16341462899999992
v 1.360408518 1.2719353185 0.1507264289999999
v 1.4459114565 1.264080258 0.17883504449999993
v 1.326967425 1.2086017335 0.09114713999999993
v 1.342573218 1.1172000105 0.13196603699999992
v 1.4011992855 1.1731615875 0.14082868799999992
v 1.4360232285 1.099080171 0.09488458349999992
v 1.242825003 1.2949390755 0.07432361999999992
v 1.303892037 1.2662070120000002 0.15912596699999992
v 1.26297801 1.3427165745 0.16421085449999992
v 1.362679857 1.3499018505 0.17457536249999991
v 1.3375297529999999 1.1926782315 0.09013167449999994
v 1.346954112 1.243524933 0.17308714499999991
v 1.2783396465 1.1999288385 0.1554735419999999
v 1.261330812 1.3015194255 0.15602602049999992
v 1.256642541 1.2969957735000002 0.07676146799999992
v 1.1865435435 1.327453596 0.1399323869999999
v 1.191340458 1.2423740175 0.11769934049999993
v 1.105183107 1.2780076365000002 0.12992716799999993
v 1.296221094 1.1684567160000001 0.08399512799999993
v 1.2359038544999998 1.2197214855 0.11632701149999994
v 1.221056739 1.136342592 0.11427368399999993
v 1.1464756695 1.196141562 0.10585363949999993
v 1.099746459 1.364455134 0.08827730099999992
v 1.057857885 1.3010771025 0.14557488749999992
v 1.14047451 1.285207056 0.14478867899999992
v 1.085089698 1.2085964415000001 0.14758783199999992
v 1.2885477255000002 1.1683370475000001 0.08207476199999994
v 1.2345839730000001 1.1198599335 0.13650446249999995
v 1.3076464275000002 1.079870778 0.12973315949999994
v 1.237157145 1.023139341 0.13821261299999996
v -1.121535009 -0.75778101 4.640070441755742e-17
v -1.1304316484999999 -0.767174247 0.34652034900000006
v 0.6019573140000001 -1.1916354555000002 0.03552245550000007
v 0.600926571 -1.216893951 0.28479427200000007
vt 0.689785 0.747558
vt 0.747517 0.747558
vt 0.689785 0.718115
vt 0.747517 0.718115
vt 0.689785 0.688672
vt 0.747517 0.688672
vt 0.628857 0.747558
vt 0.686589 0.747558
vt 0.628857 0.718115
vt 0.686589 0.718115
vt 0.628857 0.688672
vt 0.686589 0.688672
vt 0.689785 0.747558
vt 0.747517 0.747558
vt 0.689785 0.718115
vt 0.747517 0.718115
vt 0.689785 0.688672
vt 0.747517 0.688672
vt 0.628857 0.747558
vt 0.686589 0.747558
vt 0.628857 0.718115
vt 0.686589 0.718115
vt 0.628857 0.688672
vt 0.686589 0.688672
vt 0.628857 0.747558
vt 0.686589 0.747558
vt 0.628857 0.718115
vt 0.686589 0.718115
vt 0.628857 0.688672
vt 0.686589 0.688672
vt 0.628857 0.747558
vt 0.686589 0.747558
vt 0.628857 0.718115
vt 0.686589 0.718115
vt 0.628857 0.688672
vt 0.686589 0.688672
vt 0.689785 0.747558
vt 0.747517 0.747558
vt 0.689785 0.718115
vt 0.747517 0.718115
vt 0.689785 0.688672
vt 0.747517 0.688672
vt 0.689785 0.747558
vt 0.747517 0.747558
vt 0.689785 0.718115
vt 0.747517 0.718115
vt 0.689785 0.688672
vt 0.747517 0.688672
vt 0.628857 0.747558
vt 0.686589 0.747558
vt 0.628857 0.718115
vt 0.686589 0.718115
vt 0.628857 0.688672
vt 0.686589 0.688672
vt 0.628857 0.747558
vt 0.686589 0.747558
vt 0.628857 0.718115
vt 0.686589 0.718115
vt 0.628857 0.688672
vt 0.686589 0.688672
vt 0.689785 0.747558
vt 0.747517 0.747558
vt 0.689785 0.718115
vt 0.747517 0.718115
vt 0.689785 0.688672
vt 0.747517 0.688672
vt 0.689785 0.747558
vt 0.747517 0.747558
vt 0.689785 0.718115
vt 0.747517 0.718115
vt 0.689785 0.688672
vt 0.747517 0.688672
vt 0.628857 0.747558
vt 0.686589 0.747558
vt 0.628857 0.718115
vt 0.686589 0.718115
vt 0.628857 0.688672
vt 0.686589 0.688672
vt 0.689785 0.747558
vt 0.747517 0.747558
vt 0.689785 0.718115
vt 0.747517 0.718115
vt 0.689785 0.688672
vt 0.747517 0.688672
vt 0.628857 0.747558
vt 0.686589 0.747558
vt 0.628857 0.718115
vt 0.686589 0.718115
vt 0.628857 0.688672
vt 0.686589 0.688672
vt 0.628857 0.747558
vt 0.686589 0.747558
vt 0.628857 0.718115
vt 0.686589 0.718115
vt 0.628857 0.688672
vt 0.686589 0.688672
vt 0.689785 0.747558
vt 0.747517 0.747558
vt 0.689785 0.718115
vt 0.747517 0.718115
vt 0.689785 0.688672
vt 0.747517 0.688672
vt 0.110775 0.495906
vt 0.118239 0.495906
vt 0.103310 0.495906
vt 0.110775 0.384477
vt 0.118239 0.384477
vt 0.103310 0.384477
vt 0.547145 0.685634
vt 0.532392 0.656191
vt 0.561897 0.656191
vt 0.547145 0.626747
vt 0.516610 0.626267
vt 0.531362 0.655710
vt 0.501857 0.655710
vt 0.516610 0.685154
vt 0.547145 0.747558
vt 0.532392 0.718115
vt 0.561897 0.718115
vt 0.547145 0.688672
vt 0.516610 0.688672
vt 0.531362 0.718115
vt 0.501857 0.718115
vt 0.516610 0.747558
vt 0.547145 0.685634
vt 0.532392 0.656191
vt 0.561897 0.656191
vt 0.547145 0.626747
vt 0.547145 0.747558
vt 0.532392 0.718115
vt 0.561897 0.718115
vt 0.547145 0.688672
vt 0.516610 0.626267
vt 0.531362 0.655710
vt 0.501857 0.655710
vt 0.516610 0.685154
vt 0.516610 0.688672
vt 0.531362 0.718115
vt 0.501857 0.718115
vt 0.516610 0.747558
vt 0.516610 0.626267
vt 0.531362 0.655710
vt 0.501857 0.655710
vt 0.516610 0.685154
vt 0.547145 0.685634
vt 0.532392 0.656191
vt 0.561897 0.656191
vt 0.547145 0.626747
vt 0.547145 0.747558
vt 0.532392 0.718115
vt 0.561897 0.718115
vt 0.547145 0.688672
vt 0.547145 0.747558
vt 0.532392 0.718115
vt 0.561897 0.718115
vt 0.547145 0.688672
vt 0.547145 0.685634
vt 0.532392 0.656191
vt 0.561897 0.656191
vt 0.547145 0.626747
vt 0.516610 0.626267
vt 0.531362 0.655710
vt 0.501857 0.655710
vt 0.516610 0.685154
vt 0.547145 0.685634
vt 0.532392 0.656191
vt 0.561897 0.656191
vt 0.547145 0.626747
vt 0.516610 0.688672
vt 0.531362 0.718115
vt 0.501857 0.718115
vt 0.516610 0.747558
vt 0.516610 0.626267
vt 0.531362 0.655710
vt 0.501857 0.655710
vt 0.516610 0.685154
vt 0.547145 0.747558
vt 0.532392 0.718115
vt 0.561897 0.718115
vt 0.547145 0.688672
vt 0.547145 0.747558
vt 0.532392 0.718115
vt 0.561897 0.718115
vt 0.547145 0.688672
vt 0.516610 0.688672
vt 0.531362 0.718115
vt 0.501857 0.718115
vt 0.516610 0.747558
vt 0.516610 0.688672
vt 0.531362 0.718115
vt 0.501857 0.718115
vt 0.516610 0.747558
vt 0.503088 0.622092
vt 0.529052 0.622092
vt 0.503088 0.595535
vt 0.529052 0.595535
vt 0.503088 0.622092
vt 0.529052 0.622092
vt 0.503088 0.595535
vt 0.529052 0.595535
vt 0.503088 0.622092
vt 0.529052 0.622092
vt 0.503088 0.595535
vt 0.529052 0.595535
vt 0.110369 0.495906
vt 0.117833 0.495906
vt 0.102905 0.495906
vt 0.110369 0.384477
vt 0.117833 0.384477
vt 0.102905 0.384477
vt 0.547145 0.685634
vt 0.532392 0.656191
vt 0.561897 0.656191
vt 0.547145 0.626747
vt 0.516610 0.626267
vt 0.531362 0.655710
vt 0.501857 0.655710
vt 0.516610 0.685154
vt 0.547145 0.747558
vt 0.532392 0.718115
vt 0.561897 0.718115
vt 0.547145 0.688672
vt 0.516610 0.688672
vt 0.531362 0.718115
vt 0.501857 0.718115
vt 0.516610 0.747558
vt 0.547145 0.685634
vt 0.532392 0.656191
vt 0.561897 0.656191
vt 0.547145 0.626747
vt 0.547145 0.747558
vt 0.532392 0.718115
vt 0.561897 0.718115
vt 0.547145 0.688672
vt 0.516610 0.626267
vt 0.531362 0.655710
vt 0.501857 0.655710
vt 0.516610 0.685154
vt 0.516610 0.688672
vt 0.531362 0.718115
vt 0.501857 0.718115
vt 0.516610 0.747558
vt 0.516610 0.626267
vt 0.531362 0.655710
vt 0.501857 0.655710
vt 0.516610 0.685154
vt 0.547145 0.685634
vt 0.532392 0.656191
vt 0.561897 0.656191
vt 0.547145 0.626747
vt 0.547145 0.747558
vt 0.532392 0.718115
vt 0.561897 0.718115
vt 0.547145 0.688672
vt 0.547145 0.747558
vt 0.532392 0.718115
vt 0.561897 0.718115
vt 0.547145 0.688672
vt 0.547145 0.685634
vt 0.532392 0.656191
vt 0.561897 0.656191
vt 0.547145 0.626747
vt 0.516610 0.626267
vt 0.531362 0.655710
vt 0.501857 0.655710
vt 0.516610 0.685154
vt 0.547145 0.685634
vt 0.532392 0.656191
vt 0.561897 0.656191
vt 0.547145 0.626747
vt 0.516610 0.688672
vt 0.531362 0.718115
vt 0.501857 0.718115
vt 0.516610 0.747558
vt 0.516610 0.626267
vt 0.531362 0.655710
vt 0.501857 0.655710
vt 0.516610 0.685154
vt 0.547145 0.747558
vt 0.532392 0.718115
vt 0.561897 0.718115
vt 0.547145 0.688672
vt 0.547145 0.747558
vt 0.532392 0.718115
vt 0.561897 0.718115
vt 0.547145 0.688672
vt 0.516610 0.688672
vt 0.531362 0.718115
vt 0.501857 0.718115
vt 0.516610 0.747558
vt 0.516610 0.688672
vt 0.531362 0.718115
vt 0.501857 0.718115
vt 0.516610 0.747558
vt 0.503088 0.591280
vt 0.529052 0.591280
vt 0.503088 0.564723
vt 0.529052 0.564723
vt 0.503088 0.591280
vt 0.529052 0.591280
vt 0.503088 0.564723
vt 0.529052 0.564723
vt 0.503088 0.591280
vt 0.529052 0.591280
vt 0.503088 0.564723
vt 0.529052 0.564723
vt 0.621392 0.688672
vt 0.565760 0.688672
vt 0.621392 0.718115
vt 0.565760 0.718115
vt 0.621392 0.747558
vt 0.565760 0.747558
vt 0.745567 0.626290
vt 0.692515 0.626290
vt 0.745567 0.655733
vt 0.692515 0.655733
vt 0.745567 0.685176
vt 0.692515 0.685176
vt 0.745567 0.626290
vt 0.692515 0.626290
vt 0.745567 0.655733
vt 0.692515 0.655733
vt 0.745567 0.685176
vt 0.692515 0.685176
vt 0.621392 0.688672
vt 0.565760 0.688672
vt 0.621392 0.718115
vt 0.565760 0.718115
vt 0.621392 0.747558
vt 0.565760 0.747558
vt 0.621392 0.688672
vt 0.565760 0.688672
vt 0.621392 0.718115
vt 0.565760 0.718115
vt 0.621392 0.747558
vt 0.565760 0.747558
vt 0.502664 0.590983
vt 0.528797 0.590983
vt 0.502664 0.564787
vt 0.528797 0.564787
vt 0.502664 0.590983
vt 0.528797 0.590983
vt 0.502664 0.564787
vt 0.528797 0.564787
vt 0.547145 0.747558
vt 0.532392 0.718115
vt 0.561897 0.718115
vt 0.547145 0.688672
vt 0.516610 0.688672
vt 0.531362 0.718115
vt 0.501857 0.718115
vt 0.516610 0.747558
vt 0.516610 0.626267
vt 0.531362 0.655710
vt 0.501857 0.655710
vt 0.516610 0.685154
vt 0.547145 0.747558
vt 0.532392 0.718115
vt 0.561897 0.718115
vt 0.547145 0.688672
vt 0.547145 0.747558
vt 0.532392 0.718115
vt 0.561897 0.718115
vt 0.547145 0.688672
vt 0.516610 0.626267
vt 0.531362 0.655710
vt 0.501857 0.655710
vt 0.516610 0.685154
vt 0.516610 0.626267
vt 0.531362 0.655710
vt 0.501857 0.655710
vt 0.516610 0.685154
vt 0.516610 0.688672
vt 0.531362 0.718115
vt 0.501857 0.718115
vt 0.516610 0.747558
vt 0.516610 0.688672
vt 0.531362 0.718115
vt 0.501857 0.718115
vt 0.516610 0.747558
vt 0.547145 0.747558
vt 0.532392 0.718115
vt 0.561897 0.718115
vt 0.547145 0.688672
vt 0.516610 0.688672
vt 0.531362 0.718115
vt 0.501857 0.718115
vt 0.516610 0.747558
vt 0.516610 0.626267
vt 0.531362 0.655710
vt 0.501857 0.655710
vt 0.516610 0.685154
vt 0.547145 0.747558
vt 0.532392 0.718115
vt 0.561897 0.718115
vt 0.547145 0.688672
vt 0.547145 0.747558
vt 0.532392 0.718115
vt 0.561897 0.718115
vt 0.547145 0.688672
vt 0.516610 0.626267
vt 0.531362 0.655710
vt 0.501857 0.655710
vt 0.516610 0.685154
vt 0.516610 0.626267
vt 0.531362 0.655710
vt 0.501857 0.655710
vt 0.516610 0.685154
vt 0.516610 0.688672
vt 0.531362 0.718115
vt 0.501857 0.718115
vt 0.516610 0.747558
vt 0.516610 0.688672
vt 0.531362 0.718115
vt 0.501857 0.718115
vt 0.516610 0.747558
vt 0.547145 0.747558
vt 0.532392 0.718115
vt 0.561897 0.718115
vt 0.547145 0.688672
vt 0.516610 0.688672
vt 0.531362 0.718115
vt 0.501857 0.718115
vt 0.516610 0.747558
vt 0.516610 0.626267
vt 0.531362 0.655710
vt 0.501857 0.655710
vt 0.516610 0.685154
vt 0.547145 0.747558
vt 0.532392 0.718115
vt 0.561897 0.718115
vt 0.547145 0.688672
vt 0.547145 0.747558
vt 0.532392 0.718115
vt 0.561897 0.718115
vt 0.547145 0.688672
vt 0.516610 0.626267
vt 0.531362 0.655710
vt 0.501857 0.655710
vt 0.516610 0.685154
vt 0.516610 0.626267
vt 0.531362 0.655710
vt 0.501857 0.655710
vt 0.516610 0.685154
vt 0.516610 0.688672
vt 0.531362 0.718115
vt 0.501857 0.718115
vt 0.516610 0.747558
vt 0.516610 0.688672
vt 0.531362 0.718115
vt 0.501857 0.718115
vt 0.516610 0.747558
vt 0.547145 0.747558
vt 0.532392 0.718115
vt 0.561897 0.718115
vt 0.547145 0.688672
vt 0.516610 0.688672
vt 0.531362 0.718115
vt 0.501857 0.718115
vt 0.516610 0.747558
vt 0.516610 0.626267
vt 0.531362 0.655710
vt 0.501857 0.655710
vt 0.516610 0.685154
vt 0.547145 0.747558
vt 0.532392 0.718115
vt 0.561897 0.718115
vt 0.547145 0.688672
vt 0.547145 0.747558
vt 0.532392 0.718115
vt 0.561897 0.718115
vt 0.547145 0.688672
vt 0.516610 0.626267
vt 0.531362 0.655710
vt 0.501857 0.655710
vt 0.516610 0.685154
vt 0.516610 0.626267
vt 0.531362 0.655710
vt 0.501857 0.655710
vt 0.516610 0.685154
vt 0.516610 0.688672
vt 0.531362 0.718115
vt 0.501857 0.718115
vt 0.516610 0.747558
vt 0.516610 0.688672
vt 0.531362 0.718115
vt 0.501857 0.718115
vt 0.516610 0.747558
vt 0.097710 0.495906
vt 0.097710 0.384477
vt 0.097304 0.495906
vt 0.097304 0.384477
vn -0.618676 -0.28750899999999996 0.731149
vn -0.618676 -0.28750899999999996 0.731149
vn -0.193946 0.16029400000000005 0.967828
vn -0.443022 -0.08066799999999995 0.892874
vn 0.049282 0.35868800000000006 0.932156
vn 0.049282 0.35868800000000006 0.932156
vn 0.21925 -0.2565029999999999 0.941348
vn 0.21925 -0.2565029999999999 0.941348
vn 0.042876 -0.050160999999999935 0.99782
vn 0.133201 -0.15583299999999994 0.978761
vn -0.046541 0.054448000000000066 0.997431
vn -0.046541 0.054448000000000066 0.997431
vn 0.380553 0.35181200000000007 0.855224
vn 0.380553 0.35181200000000007 0.855224
vn 0.022103 0.020434000000000063 0.999547
vn 0.214273 0.19809000000000004 0.956477
vn -0.159234 -0.14720799999999995 0.976204
vn -0.159234 -0.14720799999999995 0.976204
vn -0.513959 0.14675700000000005 0.845168
vn -0.513959 0.14675700000000005 0.845168
vn -0.271054 0.07739800000000005 0.959447
vn -0.397517 0.11350800000000005 0.910547
vn -0.141826 0.04049700000000006 0.989063
vn -0.141826 0.04049700000000006 0.989063
vn -0.428351 0.2658650000000001 0.863615
vn -0.428351 0.2658650000000001 0.863615
vn -0.300147 0.03692100000000006 0.953178
vn -0.368425 0.15398500000000007 0.916816
vn -0.227434 -0.07861099999999994 0.970615
vn -0.227434 -0.07861099999999994 0.970615
vn -0.235375 -0.02953199999999994 0.971456
vn -0.235375 -0.02953199999999994 0.971456
vn 0.071202 0.18532500000000005 0.980094
vn -0.032553 0.07273900000000005 0.99682
vn 0.061289 0.2956170000000001 0.953339
vn 0.222783 0.28437000000000007 0.932471
vn 0.438112 -0.07415599999999994 0.895856
vn 0.438112 -0.07415599999999994 0.895856
vn 0.001611 0.17208200000000007 0.985081
vn 0.234765 0.046441000000000066 0.970942
vn -0.216793 0.27875900000000003 0.935572
vn -0.216793 0.27875900000000003 0.935572
vn 0.118476 -0.33995899999999996 0.932948
vn 0.118476 -0.33995899999999996 0.932948
vn -0.340893 0.13534500000000005 0.930308
vn -0.104179 -0.12247999999999995 0.986988
vn -0.516331 0.3514590000000001 0.780947
vn -0.516331 0.3514590000000001 0.780947
vn -0.020253 0.60454 0.796317
vn -0.020253 0.60454 0.796317
vn -0.149395 0.38705300000000004 0.909874
vn -0.085021 0.50169 0.860859
vn -0.20968 0.2672050000000001 0.940551
vn -0.20968 0.2672050000000001 0.940551
vn 0.050907 -0.43726699999999996 0.89789
vn -0.096204 -0.636637 0.765139
vn 0.053595 0.030977000000000064 0.998082
vn 0.082751 -0.17525899999999994 0.981039
vn -0.165608 -0.07494299999999994 0.98334
vn -0.020837 0.15161000000000005 0.988221
vn -0.664736 0.35930000000000006 0.655004
vn -0.664736 0.35930000000000006 0.655004
vn -0.103879 0.44817700000000005 0.887889
vn -0.373268 0.3542310000000001 0.857433
vn 0.027526 0.625667 0.779604
vn 0.203273 0.42926600000000004 0.880006
vn -0.264856 0.8768 0.40133899999999995
vn -0.264856 0.8768 0.40133899999999995
vn -0.07524 0.511034 0.856261
vn -0.243696 0.677345 0.69413
vn 0.167504 0.47243900000000005 0.8653
vn 0.034438 0.24624300000000005 0.968596
vn -0.451659 0.622757 0.638888
vn -0.353753 0.815089 0.4587899999999999
vn -0.316419 0.25473000000000007 0.913779
vn -0.410645 0.4119670000000001 0.813421
vn -0.154163 0.43487700000000007 0.887195
vn -0.204546 0.18151500000000007 0.96188
vn 0.267311 0.618375 0.739025
vn 0.267311 0.618375 0.739025
vn -0.202879 0.538803 0.817637
vn 0.040373 0.597459 0.800883
vn -0.42047 0.45253000000000004 0.786398
vn -0.42047 0.45253000000000004 0.786398
vn -0.368405 0.839874 0.39860999999999996
vn -0.368405 0.839874 0.39860999999999996
vn -0.062073 0.548477 0.833858
vn -0.233419 0.735622 0.635905
vn 0.099458 0.3288730000000001 0.939122
vn 0.099458 0.3288730000000001 0.939122
vn -0.789405 -0.06371999999999996 0.610556
vn -0.789405 -0.06371999999999996 0.610557
vn -0.417337 0.3601690000000001 0.834331
vn -0.642327 0.14508000000000004 0.752574
vn -0.175067 0.523582 0.833794
vn -0.175067 0.523582 0.833794
vn -0.078491 -0.18767099999999995 0.979091
vn -0.078491 -0.18767099999999995 0.979091
vn -0.087091 0.29478100000000007 0.951588
vn -0.085186 0.047828000000000065 0.995216
vn -0.083877 0.510573 0.855734
vn -0.083877 0.510573 0.855734
vn -0.004529 -0.99999 0.00026100000000006126
vn -0.868863 0.494967 -0.009236000000000029
vn 0.862897 0.49717 0.09072299999999997
vn 0.862462 -0.502093 0.06372900000000002
vn -0.867267 -0.496529 -0.03613899999999997
vn -0.007673 0.998497 0.054267999999999934
vn -0.709739 -0.45966699999999994 0.533832
vn -0.336736 -0.556996 0.759186
vn -0.336736 -0.556996 0.759186
vn 0.103408 -0.543267 0.833168
vn 0.080482 -0.26728499999999994 0.960251
vn -0.073782 -0.14364599999999994 0.986875
vn -0.073782 -0.14364599999999994 0.986875
vn -0.22511 -0.01429199999999994 0.974228
vn -0.100065 -0.34562799999999994 0.933021
vn -0.074003 0.00602300000000006 0.99724
vn -0.074003 0.00602300000000006 0.99724
vn -0.038435 0.35690000000000005 0.933352
vn -0.192211 -0.12465099999999994 0.973405
vn -0.084423 -0.10717999999999994 0.990649
vn -0.084423 -0.10717999999999994 0.990649
vn 0.024397 -0.08839899999999995 0.995786
vn -0.268151 0.19118200000000005 0.944216
vn -0.219559 -0.01727999999999994 0.975446
vn -0.219559 -0.01727999999999994 0.975446
vn -0.160693 -0.22493399999999994 0.961032
vn -0.503829 -0.16875899999999994 0.847158
vn -0.097916 -0.06544199999999994 0.993041
vn -0.097916 -0.06544199999999994 0.993041
vn 0.327258 0.05074900000000006 0.943571
vn -0.529007 -0.09129999999999995 0.843692
vn -0.340748 -0.12129699999999995 0.932297
vn -0.340748 -0.12129699999999995 0.932297
vn -0.137432 -0.14593399999999995 0.979702
vn -0.320169 0.06648000000000005 0.945025
vn -0.262495 -0.043084999999999936 0.963971
vn -0.262495 -0.043084999999999936 0.963971
vn -0.200703 -0.15197399999999994 0.967792
vn 0.154849 0.09600100000000006 0.983263
vn 0.029464 0.023722000000000062 0.999284
vn 0.029464 0.023722000000000062 0.999284
vn -0.096547 -0.049058999999999936 0.994119
vn 0.02159 0.23685400000000006 0.971305
vn -0.161888 0.11187200000000005 0.980447
vn -0.161888 0.11187200000000005 0.980447
vn -0.337373 -0.01863199999999994 0.941186
vn -0.040619 0.16889500000000005 0.984797
vn -0.242696 -0.07400299999999994 0.967276
vn -0.242696 -0.07400299999999994 0.967276
vn -0.420469 -0.30949099999999996 0.85289
vn -0.382412 0.506838 0.772578
vn -0.393393 -0.11451899999999994 0.91221
vn -0.393393 -0.11451899999999994 0.91221
vn -0.244774 -0.689415 0.681757
vn -0.169195 -0.46387799999999996 0.869592
vn -0.071936 -0.19212999999999994 0.978729
vn -0.071936 -0.19212999999999994 0.978729
vn 0.032172 0.09791300000000006 0.994675
vn -0.627796 -0.42644399999999993 0.651166
vn -0.426695 -0.22598899999999994 0.875705
vn -0.426695 -0.22598899999999994 0.875705
vn -0.16968 0.004080000000000061 0.985491
vn 0.215104 -0.520656 0.826225
vn -0.004434 -0.06220099999999994 0.998054
vn -0.004434 -0.06220099999999994 0.998054
vn -0.222695 0.41416100000000006 0.882541
vn -0.28393 -0.55376 0.782773
vn -0.317409 -0.35859199999999997 0.877874
vn -0.317409 -0.35859199999999997 0.877874
vn -0.335571 -0.14611999999999994 0.930613
vn -0.599787 0.29751200000000005 0.742794
vn -0.53646 -0.05994499999999995 0.841794
vn -0.53646 -0.05994499999999995 0.841794
vn -0.397178 -0.40891399999999994 0.821608
vn 0.21909 -0.42600299999999997 0.877793
vn -0.354946 -0.28757099999999997 0.88956
vn -0.354946 -0.28757099999999997 0.88956
vn -0.80517 -0.04882799999999997 0.591031
vn 0.118922 0.21131200000000006 0.970157
vn -0.352058 -0.11997599999999994 0.928257
vn -0.352058 -0.11997599999999994 0.928257
vn -0.705687 -0.41127299999999994 0.576941
vn 0.001945 0.11820800000000005 0.992987
vn -0.227854 0.034569000000000065 0.973081
vn -0.227854 0.034569000000000065 0.973081
vn -0.443936 -0.051149999999999946 0.894597
vn -0.043761 -0.15204299999999996 0.987405
vn -0.154148 -0.09998299999999995 0.982976
vn -0.154148 -0.09998299999999995 0.982976
vn -0.262236 -0.04643099999999994 0.963886
vn -0.258584 -0.07600999999999994 0.962994
vn -0.253278 -0.07785599999999994 0.964256
vn -0.263882 -0.07416099999999995 0.9617
vn -0.258584 -0.07600999999999994 0.962994
vn -0.298142 -0.740289 0.602564
vn -0.269546 -0.730822 0.627091
vn -0.326288 -0.748639 0.577127
vn -0.298142 -0.740289 0.602564
vn -0.850506 -0.06574499999999997 0.521841
vn -0.855497 -0.02866499999999997 0.517013
vn -0.844303 -0.10273099999999998 0.525926
vn -0.850506 -0.06574499999999997 0.521841
vn -0.815508 -0.578346 -0.021514999999999965
vn -0.089168 0.990979 0.10004599999999994
vn 0.902208 -0.429554 0.03878700000000003
vn 0.081675 -0.996416 -0.022010999999999937
vn -0.909151 0.414608 0.03929699999999997
vn 0.816437 0.568702 0.10004599999999995
vn -0.659288 -0.20548899999999995 0.723266
vn -0.450944 -0.49830899999999995 0.740498
vn -0.450944 -0.49830899999999995 0.740498
vn -0.184225 -0.726625 0.661874
vn -0.085898 -0.38058899999999996 0.920746
vn -0.073241 -0.20184999999999995 0.976674
vn -0.073241 -0.20184999999999995 0.976674
vn -0.058004 -0.015997999999999936 0.998188
vn -0.262474 -0.20213599999999995 0.94353
vn 0.022394 -0.040489999999999936 0.998929
vn 0.022394 -0.040489999999999936 0.998929
vn 0.304791 0.12562300000000007 0.944098
vn -0.158102 0.033285000000000065 0.986862
vn -0.096035 -0.029833999999999937 0.994931
vn -0.096035 -0.029833999999999937 0.994931
vn -0.033209 -0.09271699999999994 0.995139
vn 0.327793 -0.06355399999999994 0.942609
vn 0.220541 -0.19859399999999994 0.954946
vn 0.220541 -0.19859399999999994 0.954946
vn 0.106697 -0.32769799999999993 0.938738
vn -0.319566 0.02158300000000006 0.947318
vn -0.10281 -0.16934799999999994 0.980179
vn -0.10281 -0.16934799999999994 0.980179
vn 0.122636 -0.34596699999999997 0.930198
vn -0.126006 0.0042980000000000605 0.99202
vn -0.125058 -0.16002199999999994 0.97916
vn -0.125058 -0.16002199999999994 0.97916
vn -0.120712 -0.31999399999999995 0.939698
vn -0.041355 0.028579000000000063 0.998736
vn -0.082043 -0.05867099999999994 0.9949
vn -0.082043 -0.05867099999999994 0.9949
vn -0.12197 -0.14537699999999995 0.981829
vn 0.167823 -0.14574799999999993 0.974984
vn 0.013024 -0.07509399999999994 0.997091
vn 0.013024 -0.07509399999999994 0.997091
vn -0.142159 -0.0022289999999999394 0.989841
vn 0.217659 -0.09150999999999994 0.971726
vn 0.029572 -0.023345999999999936 0.99929
vn 0.029572 -0.023345999999999936 0.99929
vn -0.159721 0.04577000000000006 0.986101
vn 0.193193 -0.29717699999999997 0.935073
vn -0.100943 -0.27861299999999994 0.955084
vn -0.100943 -0.27861299999999994 0.955084
vn -0.386271 -0.23573699999999995 0.891753
vn 0.329168 0.05375300000000006 0.94274
vn -0.067599 -0.28812099999999996 0.955205
vn -0.067599 -0.28812099999999996 0.955205
vn -0.445813 -0.550918 0.705508
vn -0.305467 -0.4543539999999999 0.836811
vn -0.073436 -0.4186349999999999 0.905181
vn -0.073436 -0.4186349999999999 0.905181
vn 0.162986 -0.3578859999999999 0.919431
vn -0.580998 -0.18452299999999994 0.792712
vn -0.294128 -0.3080669999999999 0.904756
vn -0.294128 -0.3080669999999999 0.904756
vn 0.025129 -0.39768799999999993 0.917176
vn -0.083849 -0.756167 0.648985
vn 0.127732 -0.527431 0.839941
vn 0.127732 -0.527431 0.839941
vn 0.322254 -0.22825499999999996 0.918723
vn -0.338312 -0.630139 0.698906
vn -0.20053 -0.576601 0.792035
vn -0.20053 -0.576601 0.792035
vn -0.056628 -0.505463 0.860988
vn 0.063972 -0.08028499999999994 0.994717
vn -0.108376 -0.32065699999999997 0.940975
vn -0.108376 -0.32065699999999997 0.940975
vn -0.27093 -0.532052 0.802196
vn 0.002357 -0.800693 0.59907
vn -0.278527 -0.35955899999999996 0.890584
vn -0.278527 -0.35955899999999996 0.890584
vn -0.459565 0.21047000000000005 0.862845
vn 0.31167 -0.594981 0.740851
vn -0.20758 -0.4806889999999999 0.851968
vn -0.20758 -0.4806889999999999 0.851968
vn -0.665587 -0.22457899999999995 0.711729
vn 0.205137 -0.40366599999999997 0.891613
vn 0.034288 -0.30167099999999997 0.952795
vn 0.034288 -0.30167099999999997 0.952795
vn -0.138046 -0.18660399999999994 0.972688
vn -0.011704 -0.38894599999999996 0.921186
vn -0.031376 -0.29407099999999997 0.955268
vn -0.031376 -0.29407099999999997 0.955268
vn -0.050717 -0.19609399999999994 0.979273
vn 0.080221 -0.60933 0.788848
vn 0.064011 -0.574498 0.815999
vn 0.096252 -0.642813 0.759952
vn 0.080221 -0.60933 0.788848
vn -0.489026 -0.669858 0.558698
vn -0.519434 -0.652659 0.551566
vn -0.457995 -0.686206 0.565121
vn -0.489026 -0.669858 0.558698
vn -0.510394 0.14015200000000005 0.848443
vn -0.499372 0.15631400000000006 0.85217
vn -0.521214 0.12393300000000006 0.844379
vn -0.510394 0.14015200000000005 0.848443
vn -0.34694 -0.16178099999999995 0.923829
vn -0.34694 -0.16178099999999995 0.923829
vn 0.09101 -0.004708999999999939 0.995839
vn -0.168991 -0.07880199999999994 0.982462
vn 0.395432 0.051163000000000056 0.917069
vn 0.303585 0.07461200000000005 0.949878
vn 0.061047 -0.577084 0.8144
vn 0.061047 -0.577084 0.8144
vn -0.000614 -0.18844199999999994 0.982084
vn 0.018343 -0.44754599999999994 0.894073
vn 0.00567 0.19815600000000005 0.980154
vn -0.031915 0.022176000000000064 0.999245
vn -0.773471 0.16669600000000004 0.611518
vn -0.773471 0.16669600000000004 0.611518
vn -0.084976 -0.10281499999999995 0.991064
vn -0.521687 0.08831200000000006 0.848554
vn 0.366916 -0.31738599999999995 0.874436
vn 0.284256 -0.21327699999999994 0.934725
vn 0.00386 0.654606 0.75596
vn 0.00386 0.654606 0.75596
vn -0.070367 0.27449100000000004 0.959012
vn -0.015672 0.502449 0.864465
vn -0.151308 -0.01641299999999994 0.98835
vn -0.102631 0.06402900000000006 0.992657
vn 0.37699 0.06647400000000006 0.923829
vn 0.37699 0.06647400000000006 0.923829
vn -0.084756 0.01443600000000006 0.996297
vn 0.183628 0.03237900000000006 0.982462
vn -0.389936 0.014338000000000056 0.92073
vn -0.309601 -0.01287499999999994 0.950779
vn -0.460285 0.08116100000000005 0.884054
vn -0.460285 0.08116100000000005 0.884054
vn -0.460285 0.08116100000000005 0.884054
vn -0.460285 0.08116100000000005 0.884054
vn -0.14076 -0.44448899999999997 0.884656
vn -0.14076 -0.44448899999999997 0.884656
vn -0.140761 -0.44448899999999997 0.884656
vn -0.14076 -0.44448899999999997 0.884656
vn -0.860865 0.040503000000000025 0.507219
vn -0.486111 0.07373800000000005 0.870781
vn -0.486111 0.07373800000000005 0.870781
vn 0.021703 0.08679000000000006 0.99599
vn -0.510729 -0.532847 0.674707
vn -0.389219 -0.3726149999999999 0.842417
vn -0.389219 -0.3726149999999999 0.842417
vn -0.241021 -0.18683499999999995 0.952366
vn -0.512861 0.28899600000000003 0.808366
vn -0.235331 0.17338500000000007 0.956325
vn -0.235331 0.17338500000000007 0.956325
vn 0.068623 0.03830600000000006 0.996907
vn -0.523821 -0.728676 0.44118300000000005
vn -0.309085 -0.567924 0.762842
vn -0.309085 -0.567924 0.762842
vn -0.040131 -0.30754899999999996 0.950686
vn 0.700485 -0.51679 0.49218800000000007
vn 0.408713 -0.32617799999999997 0.852386
vn 0.408713 -0.32617799999999997 0.852386
vn 0.014269 -0.05362899999999994 0.998459
vn 0.532495 0.21474900000000005 0.818738
vn 0.254359 0.09417500000000005 0.962514
vn 0.254359 0.09417500000000005 0.962514
vn -0.052411 -0.03700099999999994 0.99794
vn 0.556141 0.17813400000000004 0.811773
vn 0.276793 0.14270300000000005 0.950275
vn 0.276793 0.14270300000000005 0.950275
vn -0.029812 0.09321900000000005 0.995199
vn 0.010782 0.714598 0.699452
vn 0.082061 0.48087900000000006 0.872938
vn 0.082061 0.48087900000000006 0.872938
vn 0.145971 0.20397600000000005 0.968032
vn 0.186093 0.715875 0.672972
vn 0.194341 0.3398010000000001 0.920199
vn 0.194341 0.3398010000000001 0.920199
vn 0.163211 -0.10512499999999994 0.980974
vn 0.200581 -0.879122 0.43233200000000005
vn 0.070705 -0.47329199999999993 0.878064
vn 0.070705 -0.47329199999999993 0.878064
vn -0.086056 0.11250500000000005 0.989918
vn 0.532054 -0.554068 0.640256
vn 0.297464 -0.47784999999999994 0.826544
vn 0.297464 -0.47784999999999994 0.826544
vn 0.034452 -0.35597599999999996 0.93386
vn -0.127224 -0.605557 0.785566
vn -0.039195 -0.13892499999999994 0.989527
vn -0.039195 -0.13892499999999994 0.989527
vn 0.059303 0.36481300000000005 0.92919
vn 0.756989 -0.43431999999999993 0.488194
vn 0.43567 -0.31040299999999993 0.844892
vn 0.43567 -0.31040299999999993 0.844892
vn 0.007248 -0.11017799999999994 0.993886
vn 0.357162 0.732484 0.579571
vn 0.22914 0.28693700000000005 0.930141
vn 0.22914 0.28693700000000005 0.930141
vn 0.023715 -0.25553699999999996 0.966508
vn -0.330914 0.524597 0.784407
vn -0.150192 0.31447200000000003 0.93731
vn -0.150192 0.31447200000000003 0.93731
vn 0.045578 0.07284000000000006 0.996302
vn -0.285991 0.29604800000000003 0.911353
vn -0.185799 0.054439000000000064 0.981079
vn -0.185799 0.054439000000000064 0.981079
vn -0.071991 -0.19115999999999994 0.978915
vn -0.681343 -0.32311699999999993 0.656786
vn -0.450305 -0.22465899999999994 0.864149
vn -0.450305 -0.22465899999999994 0.864149
vn -0.171504 -0.10237099999999995 0.97985
vn -0.717027 -0.07721799999999995 0.692755
vn -0.487778 -0.053855999999999946 0.871305
vn -0.487778 -0.053855999999999946 0.871305
vn -0.217077 -0.02591799999999994 0.97581
vn 0.526948 0.583512 0.617932
vn 0.339224 0.19928900000000005 0.919354
vn 0.339224 0.19928900000000005 0.919354
vn 0.058646 -0.23948399999999995 0.969128
vn -0.143541 0.595832 0.790177
vn -0.081982 0.37817700000000004 0.922096
vn -0.081982 0.37817700000000004 0.922096
vn -0.014802 0.13459200000000004 0.99079
vn 0.530897 0.11011400000000006 0.840252
vn 0.277009 -0.07415999999999995 0.958001
vn 0.277009 -0.07415999999999995 0.958001
vn -0.007983 -0.25010699999999997 0.968185
vn -0.296446 0.757561 0.581567
vn -0.287933 0.43767400000000006 0.851784
vn -0.287933 0.43767400000000006 0.851784
vn -0.228911 0.04101100000000006 0.972583
vn -0.825112 -0.358639 0.436541
vn -0.501618 -0.29348099999999994 0.813786
vn -0.501618 -0.29348099999999994 0.813786
vn -0.052115 -0.15459899999999993 0.986602
vn -0.129513 -0.693044 0.709166
vn -0.06875 -0.42552699999999993 0.90233
vn -0.06875 -0.42552699999999993 0.90233
vn -0.000248 -0.11010899999999994 0.993919
vn -0.17307 -0.690227 0.702591
vn -0.041867 -0.46891099999999997 0.882252
vn -0.041867 -0.46891099999999997 0.882252
vn 0.09346 -0.20142099999999993 0.975036
vn 0.57918 -0.533806 0.616117
vn 0.346845 -0.48941399999999996 0.800108
vn 0.346845 -0.48941399999999996 0.800108
vn 0.083362 -0.40107099999999996 0.912246
vn 0.479671 -0.671355 0.564976
vn 0.166879 -0.508508 0.844731
vn 0.166879 -0.508508 0.844731
vn -0.179727 -0.24262699999999995 0.953326
vn -0.835184 0.25970000000000004 0.484793
vn -0.428253 0.05783200000000006 0.901806
vn -0.428253 0.05783200000000006 0.901806
vn 0.141518 -0.16602499999999995 0.975914
vn -0.759039 -0.22741799999999998 0.610034
vn -0.56205 -0.11357399999999994 0.819269
vn -0.56205 -0.11357399999999994 0.819269
vn -0.31136 0.011122000000000059 0.950227
vn -0.423071 0.3082770000000001 0.852042
vn -0.09132 -0.06173699999999994 0.993906
vn -0.09132 -0.06173699999999994 0.993906
vn 0.264822 -0.41526199999999996 0.870303
vn -0.789965 -0.450111 0.416359
vn -0.504157 -0.32283599999999996 0.801001
vn -0.504157 -0.32283599999999996 0.801001
vn -0.094409 -0.11619799999999994 0.988729
vn 0.395155 -0.802521 0.44700500000000004
vn 0.103616 -0.508447 0.854836
vn 0.103616 -0.508447 0.854836
vn -0.222925 -0.042619999999999936 0.973903
vn 0.619529 -0.16558399999999995 0.767311
vn 0.343747 -0.21923399999999996 0.913112
vn 0.343747 -0.21923399999999996 0.913112
vn 0.033525 -0.25091899999999995 0.967427
vn 0.406545 -0.09477099999999994 0.908702
vn 0.151162 -0.05122799999999994 0.987181
vn 0.151162 -0.05122799999999994 0.987181
vn -0.115297 -0.003931999999999939 0.993323
vn 0.126119 0.618112 0.775907
vn 0.074254 0.34010900000000005 0.93745
vn 0.074254 0.34010900000000005 0.93745
vn 0.014512 0.026030000000000064 0.999556
vn 0.348017 0.501752 0.791915
vn 0.235662 0.27261500000000005 0.932816
vn 0.235662 0.27261500000000005 0.932816
vn 0.10328 0.02031100000000006 0.994445
vn -0.868863 0.494967 -0.009236000000000029
vn -0.867267 -0.496529 -0.03613899999999997
vn -0.089168 0.990979 0.10004599999999994
vn -0.909151 0.414608 0.03929699999999997
g bobobj
f 488/488/488 487/487/487 486/486/486
f 487/487/487 485/485/485 486/486/486
f 484/484/484 483/483/483 482/482/482
f 483/483/483 481/481/481 482/482/482
f 480/480/480 479/479/479 478/478/478
f 479/479/479 477/477/477 478/478/478
f 476/476/476 475/475/475 474/474/474
f 475/475/475 473/473/473 474/474/474
f 472/472/472 471/471/471 470/470/470
f 471/471/471 469/469/469 470/470/470
f 468/468/468 467/467/467 466/466/466
f 467/467/467 465/465/465 466/466/466
f 464/464/464 463/463/463 462/462/462
f 463/463/463 461/461/461 462/462/462
f 460/460/460 459/459/459 458/458/458
f 459/459/459 457/457/457 458/458/458
f 456/456/456 455/455/455 454/454/454
f 455/455/455 453/453/453 454/454/454
f 452/452/452 451/451/451 450/450/450
f 451/451/451 449/449/449 450/450/450
f 448/448/448 447/447/447 446/446/446
f 447/447/447 445/445/445 446/446/446
f 444/444/444 443/443/443 442/442/442
f 443/443/443 441/441/441 442/442/442
f 440/440/440 439/439/439 438/438/438
f 439/439/439 437/437/437 438/438/438
f 436/436/436 435/435/435 434/434/434
f 435/435/435 433/433/433 434/434/434
f 432/432/432 431/431/431 430/430/430
f 431/431/431 429/429/429 430/430/430
f 428/428/428 427/427/427 426/426/426
f 427/427/427 425/425/425 426/426/426
f 424/424/424 423/423/423 422/422/422
f 423/423/423 421/421/421 422/422/422
f 420/420/420 419/419/419 418/418/418
f 419/419/419 417/417/417 418/418/418
f 416/416/416 415/415/415 414/414/414
f 415/415/415 413/413/413 414/414/414
f 412/412/412 411/411/411 410/410/410
f 411/411/411 409/409/409 410/410/410
f 408/408/408 407/407/407 406/406/406
f 407/407/407 405/405/405 406/406/406
f 404/404/404 403/403/403 402/402/402
f 403/403/403 401/401/401 402/402/402
f 400/400/400 399/399/399 398/398/398
f 399/399/399 397/397/397 398/398/398
f 396/396/396 395/395/395 394/394/394
f 395/395/395 393/393/393 394/394/394
f 392/392/392 391/391/391 390/390/390
f 391/391/391 389/389/389 390/390/390
f 388/388/388 387/387/387 386/386/386
f 387/387/387 385/385/385 386/386/386
f 384/384/384 383/383/383 382/382/382
f 383/383/383 381/381/381 382/382/382
f 380/380/380 379/379/379 378/378/378
f 379/379/379 377/377/377 378/378/378
f 376/376/376 375/375/375 374/374/374
f 375/375/375 373/373/373 374/374/374
f 372/372/372 371/371/371 370/370/370
f 371/371/371 369/369/369 370/370/370
f 368/368/368 367/367/367 366/366/366
f 367/367/367 365/365/365 366/366/366
f 364/364/364 363/363/363 362/362/362
f 363/363/363 361/361/361 362/362/362
f 360/360/360 359/359/359 358/358/358
f 359/359/359 357/357/357 358/358/358
f 356/356/356 355/355/355 354/354/354
f 355/355/355 353/353/353 354/354/354
f 352/352/352 351/351/351 350/350/350
f 351/351/351 349/349/349 350/350/350
f 348/348/348 347/347/347 346/346/346
f 347/347/347 345/345/345 346/346/346
f 341/341/341 343/343/343 344/344/344
f 344/344/344 342/342/342 341/341/341
f 337/337/337 339/339/339 340/340/340
f 340/340/340 338/338/338 337/337/337
f 333/333/333 335/335/335 336/336/336
f 336/336/336 334/334/334 333/333/333
f 331/331/331 333/333/333 334/334/334
f 334/334/334 332/332/332 331/331/331
f 327/327/327 329/329/329 330/330/330
f 330/330/330 328/328/328 327/327/327
f 325/325/325 327/327/327 328/328/328
f 328/328/328 326/326/326 325/325/325
f 321/321/321 323/323/323 324/324/324
f 324/324/324 322/322/322 321/321/321
f 319/319/319 321/321/321 322/322/322
f 322/322/322 320/320/320 319/319/319
f 315/315/315 317/317/317 318/318/318
f 318/318/318 316/316/316 315/315/315
f 313/313/313 315/315/315 316/316/316
f 316/316/316 314/314/314 313/313/313
f 309/309/309 311/311/311 312/312/312
f 312/312/312 310/310/310 309/309/309
f 307/307/307 309/309/309 310/310/310
f 310/310/310 308/308/308 307/307/307
f 303/303/303 305/305/305 306/306/306
f 306/306/306 304/304/304 303/303/303
f 299/299/299 301/301/301 302/302/302
f 302/302/302 300/300/300 299/299/299
f 295/295/295 297/297/297 298/298/298
f 298/298/298 296/296/296 295/295/295
f 294/294/294 293/293/293 292/292/292
f 293/293/293 291/291/291 292/292/292
f 290/290/290 289/289/289 288/288/288
f 289/289/289 287/287/287 288/288/288
f 286/286/286 285/285/285 284/284/284
f 285/285/285 283/283/283 284/284/284
f 282/282/282 281/281/281 280/280/280
f 281/281/281 279/279/279 280/280/280
f 278/278/278 277/277/277 276/276/276
f 277/277/277 275/275/275 276/276/276
f 274/274/274 273/273/273 272/272/272
f 273/273/273 271/271/271 272/272/272
f 270/270/270 269/269/269 268/268/268
f 269/269/269 267/267/267 268/268/268
f 266/266/266 265/265/265 264/264/264
f 265/265/265 263/263/263 264/264/264
f 262/262/262 261/261/261 260/260/260
f 261/261/261 259/259/259 260/260/260
f 258/258/258 257/257/257 256/256/256
f 257/257/257 255/255/255 256/256/256
f 254/254/254 253/253/253 252/252/252
f 253/253/253 251/251/251 252/252/252
f 250/250/250 249/249/249 248/248/248
f 249/249/249 247/247/247 248/248/248
f 246/246/246 245/245/245 244/244/244
f 245/245/245 243/243/243 244/244/244
f 242/242/242 241/241/241 240/240/240
f 241/241/241 239/239/239 240/240/240
f 238/238/238 237/237/237 236/236/236
f 237/237/237 235/235/235 236/236/236
f 234/234/234 233/233/233 232/232/232
f 233/233/233 231/231/231 232/232/232
f 230/230/230 229/229/229 228/228/228
f 229/229/229 227/227/227 228/228/228
f 226/226/226 225/225/225 224/224/224
f 225/225/225 223/223/223 224/224/224
f 222/222/222 221/221/221 220/220/220
f 221/221/221 219/219/219 220/220/220
f 218/218/218 217/217/217 216/216/216
f 217/217/217 215/215/215 216/216/216
f 214/214/214 213/213/213 212/212/212
f 213/213/213 211/211/211 212/212/212
f 207/207/207 210/210/210 208/208/208
f 208/208/208 205/205/205 207/207/207
f 491/491/491 492/492/492 210/210/210
f 210/210/210 207/207/207 491/491/491
f 205/205/205 208/208/208 209/209/209
f 209/209/209 206/206/206 205/205/205
f 201/201/201 203/203/203 204/204/204
f 204/204/204 202/202/202 201/201/201
f 197/197/197 199/199/199 200/200/200
f 200/200/200 198/198/198 197/197/197
f 193/193/193 195/195/195 196/196/196
f 196/196/196 194/194/194 193/193/193
f 192/192/192 191/191/191 190/190/190
f 191/191/191 189/189/189 190/190/190
f 188/188/188 187/187/187 186/186/186
f 187/187/187 185/185/185 186/186/186
f 184/184/184 183/183/183 182/182/182
f 183/183/183 181/181/181 182/182/182
f 180/180/180 179/179/179 178/178/178
f 179/179/179 177/177/177 178/178/178
f 176/176/176 175/175/175 174/174/174
f 175/175/175 173/173/173 174/174/174
f 172/172/172 171/171/171 170/170/170
f 171/171/171 169/169/169 170/170/170
f 168/168/168 167/167/167 166/166/166
f 167/167/167 165/165/165 166/166/166
f 164/164/164 163/163/163 162/162/162
f 163/163/163 161/161/161 162/162/162
f 160/160/160 159/159/159 158/158/158
f 159/159/159 157/157/157 158/158/158
f 156/156/156 155/155/155 154/154/154
f 155/155/155 153/153/153 154/154/154
f 152/152/152 151/151/151 150/150/150
f 151/151/151 149/149/149 150/150/150
f 148/148/148 147/147/147 146/146/146
f 147/147/147 145/145/145 146/146/146
f 144/144/144 143/143/143 142/142/142
f 143/143/143 141/141/141 142/142/142
f 140/140/140 139/139/139 138/138/138
f 139/139/139 137/137/137 138/138/138
f 136/136/136 135/135/135 134/134/134
f 135/135/135 133/133/133 134/134/134
f 132/132/132 131/131/131 130/130/130
f 131/131/131 129/129/129 130/130/130
f 128/128/128 127/127/127 126/126/126
f 127/127/127 125/125/125 126/126/126
f 124/124/124 123/123/123 122/122/122
f 123/123/123 121/121/121 122/122/122
f 120/120/120 119/119/119 118/118/118
f 119/119/119 117/117/117 118/118/118
f 116/116/116 115/115/115 114/114/114
f 115/115/115 113/113/113 114/114/114
f 112/112/112 111/111/111 110/110/110
f 111/111/111 109/109/109 110/110/110
f 105/105/105 108/108/108 106/106/106
f 106/106/106 103/103/103 105/105/105
f 489/489/489 490/490/490 108/108/108
f 108/108/108 105/105/105 489/489/489
f 103/103/103 106/106/106 107/107/107
f 107/107/107 104/104/104 103/103/103
f 99/99/99 101/101/101 102/102/102
f 102/102/102 100/100/100 99/99/99
f 97/97/97 99/99/99 100/100/100
f 100/100/100 98/98/98 97/97/97
f 93/93/93 95/95/95 96/96/96
f 96/96/96 94/94/94 93/93/93
f 91/91/91 93/93/93 94/94/94
f 94/94/94 92/92/92 91/91/91
f 87/87/87 89/89/89 90/90/90
f 90/90/90 88/88/88 87/87/87
f 85/85/85 87/87/87 88/88/88
f 88/88/88 86/86/86 85/85/85
f 81/81/81 83/83/83 84/84/84
f 84/84/84 82/82/82 81/81/81
f 79/79/79 81/81/81 82/82/82
f 82/82/82 80/80/80 79/79/79
f 75/75/75 77/77/77 78/78/78
f 78/78/78 76/76/76 75/75/75
f 73/73/73 75/75/75 76/76/76
f 76/76/76 74/74/74 73/73/73
f 69/69/69 71/71/71 72/72/72
f 72/72/72 70/70/70 69/69/69
f 67/67/67 69/69/69 70/70/70
f 70/70/70 68/68/68 67/67/67
f 63/63/63 65/65/65 66/66/66
f 66/66/66 64/64/64 63/63/63
f 61/61/61 63/63/63 64/64/64
f 64/64/64 62/62/62 61/61/61
f 57/57/57 59/59/59 60/60/60
f 60/60/60 58/58/58 57/57/57
f 55/55/55 57/57/57 58/58/58
f 58/58/58 56/56/56 55/55/55
f 51/51/51 53/53/53 54/54/54
f 54/54/54 52/52/52 51/51/51
f 49/49/49 51/51/51 52/52/52
f 52/52/52 50/50/50 49/49/49
f 45/45/45 47/47/47 48/48/48
f 48/48/48 46/46/46 45/45/45
f 43/43/43 45/45/45 46/46/46
f 46/46/46 44/44/44 43/43/43
f 39/39/39 41/41/41 42/42/42
f 42/42/42 40/40/40 39/39/39
f 37/37/37 39/39/39 40/40/40
f 40/40/40 38/38/38 37/37/37
f 33/33/33 35/35/35 36/36/36
f 36/36/36 34/34/34 33/33/33
f 31/31/31 33/33/33 34/34/34
f 34/34/34 32/32/32 31/31/31
f 27/27/27 29/29/29 30/30/30
f 30/30/30 28/28/28 27/27/27
f 25/25/25 27/27/27 28/28/28
f 28/28/28 26/26/26 25/25/25
f 21/21/21 23/23/23 24/24/24
f 24/24/24 22/22/22 21/21/21
f 19/19/19 21/21/21 22/22/22
f 22/22/22 20/20/20 19/19/19
f 15/15/15 17/17/17 18/18/18
f 18/18/18 16/16/16 15/15/15
f 13/13/13 15/15/15 16/16/16
f 16/16/16 14/14/14 13/13/13
f 9/9/9 11/11/11 12/12/12
f 12/12/12 10/10/10 9/9/9
f 7/7/7 9/9/9 10/10/10
f 10/10/10 8/8/8 7/7/7
f 3/3/3 5/5/5 6/6/6
f 6/6/6 4/4/4 3/3/3
f 1/1/1 3/3/3 4/4/4
f 4/4/4 2/2/2 1/1/1
