v 0.2666565 0.0015444 -9.456722583015862e-20
v 0.1889073 -0.1861596 1.1398987913527581e-17
v 0.0012033 -0.2639088 1.615975335934095e-17
v -0.1865007 -0.1861596 1.1398987913527581e-17
v -0.26424990000000004 0.0015444 -9.456722583015862e-20
v -0.1864998 0.18924839999999998 -1.1588122365187899e-17
v 0.0012033 0.2669976 -1.634888781100127e-17
v 0.1889073 0.18924839999999998 -1.1588122365187899e-17
v 0.2666565 0.0015444000000000107 0.1728198
v 0.1889073 -0.1861596 0.1728198
v 0.0012033 -0.2639088 0.17281980000000002
v -0.1865007 -0.1861596 0.1728198
v -0.26424990000000004 0.0015444000000000107 0.1728198
v -0.1864998 0.18924839999999998 0.1728198
v 0.0012033 0.2669976 0.17281979999999997
v 0.1889073 0.18924839999999998 0.1728198
v 0.0012033 -0.2639088 1.615975335934095e-17
v 0.0012033 -0.2639088 0.17281980000000002
v 0.0012033 0.2669976 -1.634888781100127e-17
v 0.0012033 0.2669976 0.17281979999999997
v 0.1889073 -0.1861596 0.1728198
v 0.0012033 -0.2639088 0.17281980000000002
v -0.1865007 -0.1861596 0.1728198
v -0.26424990000000004 0.0015444000000000107 0.1728198
v -0.1864998 0.18924839999999998 0.1728198
v 0.0012033 0.2669976 0.17281979999999997
v 0.1889073 0.18924839999999998 0.1728198
v 0.2666565 0.0015444000000000107 0.1728198
vt 0.990137 0.393870
vt 0.990137 0.201912
vt 0.990137 0.009954
vt 0.205799 0.973336
vt 0.399026 0.973336
vt 0.592253 0.973336
vt 0.785479 0.973336
vt 0.990137 0.585828
vt 0.815770 0.393870
vt 0.815770 0.201912
vt 0.815770 0.009954
vt 0.205799 0.798969
vt 0.399026 0.798969
vt 0.592253 0.798969
vt 0.785479 0.798969
vt 0.815770 0.585828
vt 0.012572 0.973336
vt 0.012572 0.798969
vt 0.990137 0.777786
vt 0.815770 0.777786
vt 0.115571 0.107437
vt 0.009896 0.358848
vt 0.115572 0.610259
vt 0.370694 0.714397
vt 0.625816 0.610259
vt 0.731491 0.358848
vt 0.625816 0.107437
vt 0.370694 0.003299
vn 0.990602 -0.136774 8.374992065329004E-18
vn 0.603748 -0.797175 4.8812890605514564E-17
vn -0.136774 -0.990602 6.065687842644832E-17
vn -0.797175 -0.603748 3.696890278458081E-17
vn -0.990602 0.136774 -8.374992065329004E-18
vn -0.603748 0.797175 -4.8812890605514564E-17
vn 0.136774 0.990602 -6.065687842644832E-17
vn 0.797175 0.603748 -3.696890278458081E-17
vn 0.973671 0.134436 0.184095
vn 0.69498 -0.52635 0.48985500000000004
vn 0.134436 -0.973671 0.18409500000000006
vn -0.483188 -0.63799 0.599581
vn -0.973671 -0.134436 0.184095
vn -0.69498 0.52635 0.48985499999999993
vn -0.134436 0.973671 0.18409499999999995
vn 0.483188 0.63799 0.599581
vn -0.136774 -0.990602 6.065687842644832E-17
vn 0.134436 -0.973671 0.18409500000000006
vn 0.136774 0.990602 -6.065687842644832E-17
vn -0.134436 0.973671 0.18409499999999995
vn 0.69498 -0.52635 0.48985500000000004
vn 0.134436 -0.973671 0.18409500000000006
vn -0.483188 -0.63799 0.599581
vn -0.973671 -0.134436 0.184095
vn -0.69498 0.52635 0.48985499999999993
vn -0.134436 0.973671 0.18409499999999995
vn 0.483188 0.63799 0.599581
vn 0.973671 0.134436 0.184095
g palm_orn01 [Cylinder02]
f 27/27/27 21/21/21 28/28/28
f 27/27/27 23/23/23 21/21/21
f 27/27/27 25/25/25 23/23/23
f 27/27/27 26/26/26 25/25/25
f 25/25/25 24/24/24 23/23/23
f 23/23/23 22/22/22 21/21/21
f 8/8/8 16/16/16 9/9/9
f 9/9/9 1/1/1 8/8/8
f 19/19/19 20/20/20 16/16/16
f 16/16/16 8/8/8 19/19/19
f 6/6/6 14/14/14 15/15/15
f 15/15/15 7/7/7 6/6/6
f 5/5/5 13/13/13 14/14/14
f 14/14/14 6/6/6 5/5/5
f 4/4/4 12/12/12 13/13/13
f 13/13/13 5/5/5 4/4/4
f 17/17/17 18/18/18 12/12/12
f 12/12/12 4/4/4 17/17/17
f 2/2/2 10/10/10 11/11/11
f 11/11/11 3/3/3 2/2/2
f 1/1/1 9/9/9 10/10/10
f 10/10/10 2/2/2 1/1/1
