v 0.2815379 -0.007340899999999999 0.00026740000000000043
v 0.1820854 -0.1972012 0.0002674000000000121
v 0.0012068 -0.2781576 0.000267400000000017
v -0.1796718 -0.19720049999999997 0.0002674000000000121
v -0.2747591 -0.007340899999999999 0.00026740000000000043
v -0.193291 0.20518119999999998 0.0002673999999999874
v 0.0033894 0.2932104 0.00026739999999998205
v 0.20007049999999998 0.20518119999999998 0.0002673999999999874
v 0.24558239999999998 -0.0013187999999999852 0.24146569999999998
v 0.1740067 -0.17411869999999996 0.24146569999999998
v 0.0012068 -0.2456944 0.22873339999999998
v -0.17159309999999997 -0.17411869999999996 0.24364129999999998
v -0.2431688 -0.001318799999999984 0.2613058
v -0.17159309999999997 0.1714804 0.2613058
v 0.0012068 0.24305679999999996 0.2613058
v 0.1740067 0.1714804 0.2613058
v 0.1888432 -0.0013187999999999854 0.2346785
v 0.13388619999999998 -0.13399819999999998 0.2346785
v 0.0012068 -0.18895589999999998 0.22194619999999998
v -0.1314726 -0.13399819999999998 0.2368541
v -0.18643029999999997 -0.0013187999999999844 0.2545193
v -0.1314726 0.1313599 0.2545193
v 0.0012068 0.1863176 0.2545193
v 0.13388619999999998 0.1313599 0.2545193
v 0.185409 -0.0013187999999999885 0.1847433
v 0.1314579 -0.1315699 0.1847433
v 0.0012068 -0.1855217 0.1847433
v -0.1290443 -0.1315699 0.1847433
v -0.1829961 -0.0013187999999999885 0.1847433
v -0.1290443 0.1289316 0.1847433
v 0.0012068 0.18288339999999997 0.1847433
v 0.1314579 0.1289316 0.1847433
v 0.0012068 -0.0013187999999999896 0.17188569999999997
v 0.2806433 0.030004099999999995 -0.0002639000000000018
v 0.32552309999999995 0.030004099999999995 0.000875699999999998
v 0.2745645 -0.023846899999999997 -0.0004178999999999985
v 0.32402719999999996 -0.0244496 0.0008757000000000014
v 0.2338294 0.03599260000000003 0.5460049
v 0.2868523 0.03599260000000003 0.5474686
v 0.23412059999999996 -0.017049899999999965 0.5354530999999999
v 0.2871435 -0.017049899999999965 0.5369168
v -0.320229 -0.0150402 0.0022365000000000006
v -0.3163314 0.0332878 0.0019221999999999978
v -0.2712983 -0.026279399999999998 -0.0017009999999999983
v -0.2751707 0.029381799999999996 -0.0013895000000000016
v -0.25488259999999996 -0.014637699999999964 0.5473692
v -0.2502773 0.038203200000000034 0.546966
v -0.2031624 -0.01926049999999997 0.5322477999999999
v -0.1985571 0.03358040000000003 0.5318445999999999
v 0.23565919999999999 0.03366230000000003 0.4684617
v 0.23565919999999999 0.02530080000000003 0.4937673999999999
v 0.23565919999999999 -0.0013502999999999697 0.49363579999999996
v 0.23565919999999999 -0.00945979999999997 0.4682482
v 0.23565919999999999 0.012214300000000025 0.4455437
v 0.0140196 0.04817680000000003 0.46143929999999994
v 0.0140196 0.034200600000000025 0.5037396
v 0.0140196 -0.010348099999999968 0.5035183999999999
v 0.0140196 -0.02390429999999997 0.46108229999999994
v 0.0140196 0.012245100000000028 0.4392542
v -0.20761999999999997 0.034397300000000026 0.46692659999999997
v -0.20761999999999997 0.025749500000000026 0.49786379999999997
v -0.20761999999999997 -0.0018150999999999695 0.4977021
v -0.20761999999999997 -0.010203199999999971 0.46666549999999996
v -0.20761999999999997 0.012245100000000028 0.4392542
v -0.0077385 0.21055510000000002 0.3862159
v 0.0028686 0.20502510000000004 0.3700249
v 0.0013663999999999998 0.20448470000000005 0.3824583
v -0.0121884 0.02329460000000003 0.49373239999999996
v 0.0043140999999999995 0.01866760000000003 0.5018846
v 0.0043855 0.015130500000000028 0.47498009999999996
v 0.128632 0.16363760000000002 0.2757398
v 0.15262799999999999 0.1750014 0.27123319999999995
v 0.15286599999999997 0.16121490000000002 0.2574026
v 0.005974499999999999 0.2050195 0.2767975
v 0.011835599999999998 0.22250129999999999 0.272447
v 0.0075768 0.21023239999999999 0.25865489999999997
v -0.17159309999999997 -0.17411869999999996 0.24364129999999998
v -0.1796718 -0.19720049999999997 0.0002674000000000121
v -0.17159309999999997 0.1714804 0.2613058
v -0.193291 0.20518119999999998 0.0002673999999999874
v 0.24558239999999998 -0.0013187999999999852 0.24146569999999998
v 0.2815379 -0.007340899999999999 0.00026740000000000043
v 0.24558239999999998 -0.0013187999999999852 0.24146569999999998
v 0.1740067 -0.17411869999999996 0.24146569999999998
v 0.13388619999999998 -0.13399819999999998 0.2346785
v 0.1740067 -0.17411869999999996 0.24146569999999998
v 0.1740067 -0.17411869999999996 0.24146569999999998
v 0.0012068 -0.2456944 0.22873339999999998
v 0.0012068 -0.18895589999999998 0.22194619999999998
v 0.0012068 -0.18895589999999998 0.22194619999999998
v 0.0012068 -0.2456944 0.22873339999999998
v 0.0012068 -0.2456944 0.22873339999999998
v -0.17159309999999997 -0.17411869999999996 0.24364129999999998
v -0.1314726 -0.13399819999999998 0.2368541
v -0.1314726 -0.13399819999999998 0.2368541
v -0.17159309999999997 -0.17411869999999996 0.24364129999999998
v -0.17159309999999997 -0.17411869999999996 0.24364129999999998
v -0.2431688 -0.001318799999999984 0.2613058
v -0.18643029999999997 -0.0013187999999999844 0.2545193
v -0.18643029999999997 -0.0013187999999999844 0.2545193
v -0.2431688 -0.001318799999999984 0.2613058
v -0.17159309999999997 0.1714804 0.2613058
v -0.1314726 0.1313599 0.2545193
v -0.17159309999999997 0.1714804 0.2613058
v 0.0012068 0.24305679999999996 0.2613058
v 0.0012068 0.1863176 0.2545193
v 0.0012068 0.24305679999999996 0.2613058
v 0.1740067 0.1714804 0.2613058
v 0.1888432 -0.0013187999999999854 0.2346785
v 0.13388619999999998 0.1313599 0.2545193
v 0.1740067 0.1714804 0.2613058
v 0.1740067 0.1714804 0.2613058
v 0.24558239999999998 -0.0013187999999999852 0.24146569999999998
v 0.1888432 -0.0013187999999999854 0.2346785
v 0.1888432 -0.0013187999999999854 0.2346785
v 0.13388619999999998 -0.13399819999999998 0.2346785
v 0.0012068 -0.18895589999999998 0.22194619999999998
v -0.1314726 -0.13399819999999998 0.2368541
v -0.18643029999999997 -0.0013187999999999844 0.2545193
v -0.1314726 0.1313599 0.2545193
v 0.0012068 0.1863176 0.2545193
v 0.13388619999999998 0.1313599 0.2545193
v 0.185409 -0.0013187999999999885 0.1847433
v 0.1314579 -0.1315699 0.1847433
v 0.0012068 -0.1855217 0.1847433
v -0.1290443 -0.1315699 0.1847433
v -0.1829961 -0.0013187999999999885 0.1847433
v -0.1290443 0.1289316 0.1847433
v 0.0012068 0.18288339999999997 0.1847433
v 0.1314579 0.1289316 0.1847433
v 0.2868523 0.03599260000000003 0.5474686
v 0.2338294 0.03599260000000003 0.5460049
v 0.2871435 -0.017049899999999965 0.5369168
v 0.2868523 0.03599260000000003 0.5474686
v 0.32552309999999995 0.030004099999999995 0.000875699999999998
v 0.23412059999999996 -0.017049899999999965 0.5354530999999999
v 0.2871435 -0.017049899999999965 0.5369168
v 0.32402719999999996 -0.0244496 0.0008757000000000014
v 0.2338294 0.03599260000000003 0.5460049
v 0.23412059999999996 -0.017049899999999965 0.5354530999999999
v 0.2745645 -0.023846899999999997 -0.0004178999999999985
v 0.2806433 0.030004099999999995 -0.0002639000000000018
v -0.2502773 0.038203200000000034 0.546966
v -0.25488259999999996 -0.014637699999999964 0.5473692
v -0.1985571 0.03358040000000003 0.5318445999999999
v -0.2502773 0.038203200000000034 0.546966
v -0.3163314 0.0332878 0.0019221999999999978
v -0.2031624 -0.01926049999999997 0.5322477999999999
v -0.1985571 0.03358040000000003 0.5318445999999999
v -0.2751707 0.029381799999999996 -0.0013895000000000016
v -0.25488259999999996 -0.014637699999999964 0.5473692
v -0.2031624 -0.01926049999999997 0.5322477999999999
v -0.2712983 -0.026279399999999998 -0.0017009999999999983
v -0.320229 -0.0150402 0.0022365000000000006
v 0.23565919999999999 -0.00945979999999997 0.4682482
v 0.0140196 -0.02390429999999997 0.46108229999999994
v 0.23565919999999999 0.03366230000000003 0.4684617
v 0.0140196 0.04817680000000003 0.46143929999999994
v -0.20761999999999997 -0.010203199999999971 0.46666549999999996
v -0.20761999999999997 0.034397300000000026 0.46692659999999997
v -0.0121884 0.02329460000000003 0.49373239999999996
v -0.0077385 0.21055510000000002 0.3862159
v 0.0043140999999999995 0.01866760000000003 0.5018846
v -0.0121884 0.02329460000000003 0.49373239999999996
v 0.0043855 0.015130500000000028 0.47498009999999996
v 0.128632 0.16363760000000002 0.2757398
v -0.0121884 0.02329460000000003 0.49373239999999996
v 0.15262799999999999 0.1750014 0.27123319999999995
v 0.128632 0.16363760000000002 0.2757398
v 0.15286599999999997 0.16121490000000002 0.2574026
v 0.005974499999999999 0.2050195 0.2767975
v 0.128632 0.16363760000000002 0.2757398
v 0.0028686 0.20502510000000004 0.3700249
v 0.0013663999999999998 0.20448470000000005 0.3824583
v -0.0077385 0.21055510000000002 0.3862159
v 0.0075768 0.21023239999999999 0.25865489999999997
v 0.011835599999999998 0.22250129999999999 0.272447
v 0.005974499999999999 0.2050195 0.2767975
vt 0.126093 0.673779
vt 0.170053 0.673779
vt 0.206310 0.673752
vt 0.248234 0.673779
vt 0.199691 0.673779
vt 0.248250 0.673779
vt 0.169971 0.673779
vt 0.205707 0.673779
vt 0.126093 0.626441
vt 0.169753 0.626441
vt 0.206559 0.626456
vt 0.248257 0.626482
vt 0.199398 0.626456
vt 0.248254 0.626453
vt 0.169812 0.626435
vt 0.206989 0.626433
vt 0.114077 0.812161
vt 0.100022 0.778258
vt 0.059903 0.761222
vt 0.023302 0.775913
vt 0.010811 0.811380
vt 0.025648 0.846846
vt 0.062249 0.863101
vt 0.100804 0.848410
vt 0.186710 0.656053
vt 0.217340 0.656053
vt 0.247971 0.656053
vt 0.216972 0.656053
vt 0.186742 0.656887
vt 0.156095 0.656053
vt 0.125448 0.656053
vt 0.156079 0.656053
vt 0.060394 0.813486
vt 0.001220 0.732498
vt 0.001220 0.745778
vt 0.001220 0.745778
vt 0.001220 0.745778
vt 0.110270 0.748150
vt 0.124017 0.748150
vt 0.110270 0.733686
vt 0.124017 0.733686
vt 0.001220 0.732498
vt 0.001220 0.745778
vt 0.001220 0.745778
vt 0.001220 0.745778
vt 0.110270 0.748150
vt 0.124017 0.748150
vt 0.110270 0.733686
vt 0.124017 0.733686
vt 0.001041 0.713373
vt 0.001135 0.718849
vt 0.001149 0.724208
vt 0.001064 0.729375
vt 0.001039 0.720688
vt 0.052715 0.713372
vt 0.052756 0.718101
vt 0.053010 0.724707
vt 0.052725 0.729389
vt 0.050823 0.722033
vt 0.104103 0.713373
vt 0.104222 0.718848
vt 0.104238 0.724208
vt 0.104127 0.729376
vt 0.103465 0.721720
vt 0.001810 0.702104
vt 0.001810 0.704860
vt 0.001810 0.707616
vt 0.039133 0.702104
vt 0.039133 0.704860
vt 0.039133 0.707616
vt 0.084031 0.702104
vt 0.084031 0.704860
vt 0.084031 0.707616
vt 0.103519 0.702104
vt 0.103519 0.704860
vt 0.103519 0.707616
vt 0.125959 0.626409
vt 0.126481 0.673778
vt 0.126094 0.626424
vt 0.126094 0.673779
vt 0.248260 0.626445
vt 0.248259 0.673779
vt 0.123503 0.811380
vt 0.105333 0.767945
vt 0.100022 0.778258
vt 0.105333 0.767945
vt 0.105333 0.767945
vt 0.061467 0.749953
vt 0.059903 0.761222
vt 0.059903 0.761222
vt 0.061467 0.749953
vt 0.061467 0.749953
vt 0.017600 0.767945
vt 0.023302 0.775913
vt 0.023302 0.775913
vt 0.017600 0.767945
vt 0.017600 0.767945
vt -0.000570 0.811380
vt 0.010811 0.811380
vt 0.010811 0.811380
vt -0.000570 0.811380
vt 0.017600 0.854815
vt 0.025648 0.846846
vt 0.017600 0.854815
vt 0.061467 0.872806
vt 0.062249 0.863101
vt 0.061467 0.872806
vt 0.105333 0.854815
vt 0.114077 0.812161
vt 0.100804 0.848410
vt 0.105333 0.854815
vt 0.105333 0.854815
vt 0.123503 0.811380
vt 0.114077 0.812161
vt 0.186710 0.626097
vt 0.217340 0.626097
vt 0.247971 0.626112
vt 0.216972 0.626095
vt 0.186742 0.626908
vt 0.156095 0.626074
vt 0.125448 0.626074
vt 0.159597 0.627637
vt 0.107695 0.813486
vt 0.093841 0.780847
vt 0.060394 0.767327
vt 0.026947 0.780847
vt 0.013093 0.813486
vt 0.026947 0.846125
vt 0.060394 0.859645
vt 0.093841 0.846125
vt 0.107796 0.745778
vt 0.107796 0.732498
vt 0.107796 0.745778
vt 0.107796 0.732498
vt 0.001220 0.732498
vt 0.107796 0.745778
vt 0.107796 0.732498
vt 0.001220 0.732498
vt 0.107796 0.745778
vt 0.107796 0.732498
vt 0.001220 0.732498
vt 0.001220 0.745778
vt 0.107796 0.745778
vt 0.107796 0.732498
vt 0.107796 0.745778
vt 0.107796 0.732498
vt 0.001220 0.732498
vt 0.107796 0.745778
vt 0.107796 0.732498
vt 0.001220 0.732498
vt 0.107796 0.745778
vt 0.107796 0.732498
vt 0.001220 0.732498
vt 0.001220 0.745778
vt 0.000714 0.714031
vt 0.050448 0.714084
vt 0.001326 0.728947
vt 0.051159 0.729649
vt 0.103160 0.713931
vt 0.103786 0.729553
vt 0.039133 0.710372
vt 0.001810 0.710372
vt 0.039133 0.704860
vt 0.039133 0.702104
vt 0.039133 0.707616
vt 0.084031 0.710372
vt 0.039133 0.710372
vt 0.084031 0.704860
vt 0.084031 0.702104
vt 0.084031 0.707616
vt 0.103519 0.710372
vt 0.084031 0.710372
vt 0.001810 0.702104
vt 0.001810 0.702104
vt 0.001810 0.702104
vt 0.001810 0.702104
vt 0.001810 0.702104
vt 0.001810 0.702104
vn 0.976692 -0.174442 0.125073
vn 0.584294 -0.804517 0.10655000000000006
vn -0.133418 -0.982622 0.12904700000000005
vn -0.782125 -0.614954 0.10056100000000004
vn -0.986721 0.10511400000000001 0.123822
vn -0.610946 0.775738 0.15803999999999996
vn 0.135658 0.974059 0.18112699999999995
vn 0.801867 0.577994 0.15143799999999996
vn 0.981618 0.12148900000000001 0.147199
vn 0.771331 -0.626183 0.11376800000000004
vn 0.14632 -0.980846 0.12857800000000005
vn -0.604285 -0.789676 0.10607100000000004
vn -0.981257 -0.162579 0.10345500000000002
vn -0.795965 0.590301 0.13410399999999997
vn -0.144614 0.973418 0.17760499999999996
vn 0.606913 0.776589 0.16901299999999994
vn -0.118623 0.04913500000000006 0.991723
vn -0.118623 0.04913500000000006 0.991723
vn -0.116447 0.05133600000000006 0.991869
vn 0.158722 0.11726100000000006 0.980335
vn 0.208835 -0.043570999999999936 0.97698
vn 0.118623 -0.049134999999999936 0.991723
vn 0.049135 -0.11862299999999995 0.991723
vn -0.049135 -0.11862299999999995 0.991723
vn -0.796812 -0.10714799999999995 0.594651
vn -0.635955 0.48818100000000003 0.597695
vn -0.105756 0.788562 0.605794
vn 0.488312 0.633181 0.600528
vn 0.800415 0.10366300000000005 0.590415
vn 0.641782 -0.4926479999999999 0.58772
vn 0.105454 -0.802163 0.58772
vn -0.492648 -0.641782 0.58772
vn -0 6.123233995736766E-17 1
vn 0.00029 0.99994 -0.01093600000000006
vn 0.000278 0.99994 -0.01093600000000006
vn -0.012481 -0.999853 0.011740000000000061
vn 0.997241 -0.027388999999999997 0.068997
vn -0.027061 -0.19517999999999994 0.980394
vn -0.027061 -0.19517999999999994 0.980394
vn -0.027061 -0.19517999999999994 0.980394
vn -0.027061 -0.19517999999999994 0.980394
vn -0.989365 0.08385300000000001 0.118854
vn -0.989594 0.08059300000000001 0.119202
vn 0.989439 0.06954499999999998 -0.127174
vn 0.092763 0.995463 -0.021166000000000063
vn 0.279176 -0.01701099999999994 0.960089
vn 0.279176 -0.01701099999999994 0.960089
vn 0.279176 -0.01701099999999994 0.960089
vn 0.279176 -0.01701099999999994 0.960089
vn 0.065994 0.997601 -0.02092500000000006
vn 0.0567 0.3755510000000001 0.925066
vn 0.059671 -0.763464 0.643088
vn 0.05272 -0.868862 -0.49223999999999996
vn 0.04939 0.23182999999999995 -0.971502
vn -0.001148 0.952265 -0.30527000000000004
vn 0.010703 0.583413 0.812105
vn 0.004172 -0.597653 0.801744
vn 0.010418 -0.955862 -0.2936309999999999
vn 0.010852 0.01575499999999994 -0.999817
vn -0.041553 0.882125 -0.46918000000000004
vn -0.049981 0.768281 0.638158
vn -0.039246 -0.39591599999999993 0.917448
vn -0.058952 -0.997944 -0.025160999999999937
vn -0.029275 -0.23376000000000005 -0.971854
vn 0.00095 -0.589114 -0.808049
vn -0.901984 -0.267026 -0.339297
vn 0.824541 0.26999200000000007 0.497228
vn 0.956069 0.12053400000000002 0.267216
vn -0.71953 -0.37303600000000003 -0.585765
vn 0.705733 0.32587600000000005 0.629083
vn -0.861769 0.12869299999999997 -0.490705
vn 0.258662 0.723173 0.640402
vn 0.595788 -0.790073 -0.14429299999999995
vn -0.309354 -0.922806 0.22962600000000005
vn 0.224775 0.647635 0.728042
vn 0.084579 0.27516999999999997 -0.957668
vn -0.604285 -0.789676 0.10607100000000004
vn -0.782125 -0.614954 0.10056100000000004
vn -0.795965 0.590301 0.13410399999999997
vn -0.610946 0.775738 0.15803999999999996
vn 0.981618 0.12148900000000001 0.147199
vn 0.976692 -0.174442 0.125073
vn -0.118623 0.04913500000000006 0.991723
vn -0.118623 0.04913500000000006 0.991723
vn -0.116447 0.05133600000000006 0.991869
vn -0.116447 0.05133600000000006 0.991869
vn -0.12145 0.11788700000000006 0.985572
vn -0.12145 0.11788700000000006 0.985572
vn -0.12145 0.11788700000000006 0.985572
vn 0.158722 0.11726100000000006 0.980335
vn 0.158722 0.11726100000000006 0.980335
vn 0.109694 0.05815500000000006 0.992263
vn 0.109694 0.05815500000000006 0.992263
vn 0.109694 0.05815500000000006 0.992263
vn 0.208835 -0.043570999999999936 0.97698
vn 0.208835 -0.043570999999999936 0.97698
vn 0.118604 -0.052236999999999936 0.991567
vn 0.118604 -0.052236999999999936 0.991567
vn 0.118604 -0.052236999999999936 0.991567
vn 0.118623 -0.049134999999999936 0.991723
vn 0.118623 -0.049134999999999936 0.991723
vn 0.118623 -0.049134999999999936 0.991723
vn 0.049135 -0.11862299999999995 0.991723
vn 0.049135 -0.11862299999999995 0.991723
vn 0.049135 -0.11862299999999995 0.991723
vn -0.049135 -0.11862299999999995 0.991723
vn -0.049135 -0.11862299999999995 0.991723
vn -0.049135 -0.11862299999999995 0.991723
vn -0.013709 -0.15342999999999996 0.988064
vn -0.013709 -0.15342999999999996 0.988064
vn -0.013709 -0.15342999999999996 0.988064
vn -0.117215 -0.16106799999999993 0.979958
vn -0.117215 -0.16106799999999993 0.979958
vn -0.117215 -0.16106799999999993 0.979958
vn -0.988674 0.133791 0.06799399999999999
vn -0.604205 0.793241 0.07552899999999996
vn 0.136336 0.987217 0.08254999999999994
vn 0.798138 0.599508 0.05971899999999997
vn 0.98919 -0.138324 0.04868600000000001
vn 0.603032 -0.796229 0.048697000000000046
vn -0.136612 -0.989427 0.04869700000000006
vn -0.794089 -0.605307 0.054999000000000034
vn -0.796812 -0.10714799999999995 0.594651
vn -0.635955 0.48818100000000003 0.597695
vn -0.105756 0.788562 0.605794
vn 0.488312 0.633181 0.600528
vn 0.800415 0.10366300000000005 0.590415
vn 0.641782 -0.4926479999999999 0.58772
vn 0.105454 -0.802163 0.58772
vn -0.492648 -0.641782 0.58772
vn 0.00029 0.99994 -0.01093600000000006
vn 0.000302 0.99994 -0.01093600000000006
vn 0.997397 -0.017984999999999998 0.069833
vn 0.997463 -0.008579999999999997 0.070664
vn 0.997397 -0.017984999999999998 0.069833
vn -0.006431 -0.999898 0.012758000000000061
vn -0.00038 -0.999905 0.01377600000000006
vn -0.006431 -0.999898 0.012758000000000061
vn -0.994869 0.06083999999999999 -0.080829
vn -0.99711 0.009519999999999995 -0.075376
vn -0.994869 0.06083999999999999 -0.080829
vn -0.989974 0.111999 -0.086067
vn -0.989365 0.08385300000000001 0.118854
vn -0.989125 0.08711100000000001 0.118505
vn 0.088118 0.995907 -0.02013400000000006
vn 0.083472 0.996327 -0.019102000000000063
vn 0.088118 0.995907 -0.02013400000000006
vn 0.990874 -0.008768000000000008 -0.134506
vn 0.986176 -0.08702600000000002 -0.141005
vn 0.990874 -0.008768000000000008 -0.134506
vn -0.152313 -0.988003 0.02550300000000006
vn -0.082163 -0.99634 0.02358200000000006
vn -0.152313 -0.988003 0.02550300000000006
vn -0.221701 -0.974733 0.02729600000000006
vn 0.05272 -0.868862 -0.49223999999999996
vn 0.010418 -0.955862 -0.2936309999999999
vn 0.065994 0.997601 -0.02092500000000006
vn -0.001148 0.952265 -0.30527000000000004
vn -0.058952 -0.997944 -0.025160999999999937
vn -0.041553 0.882125 -0.46918000000000004
vn 0.956069 0.12053400000000002 0.267216
vn 0.00095 -0.589114 -0.808049
vn 0.852564 -0.07175299999999997 0.517673
vn -0.595329 0.791276 0.13951899999999995
vn -0.314426 -0.685313 -0.656873
vn -0.861769 0.12869299999999997 -0.490705
vn -0.595329 0.791276 0.13951899999999995
vn 0.309354 0.922806 -0.22962700000000005
vn -0.08458 -0.27517099999999994 0.957668
vn -0.224775 -0.647636 -0.728041
vn -0.309354 -0.922806 0.22962600000000005
vn -0.08458 -0.27517099999999994 0.957668
vn 0.581379 0.806789 0.10530999999999995
vn 0.581379 0.806789 0.10530999999999995
vn 0.581379 0.806789 0.10530999999999995
vn -0.947496 0.319663 0.00816899999999998
vn -0.947496 0.319663 0.00816899999999998
vn -0.947496 0.319663 0.00816899999999998
g 01
f 178/178/178 177/177/177 176/176/176
f 175/175/175 174/174/174 173/173/173
f 171/171/171 76/76/76 170/170/170
f 170/170/170 172/172/172 171/171/171
f 76/76/76 75/75/75 168/168/168
f 168/168/168 170/170/170 76/76/76
f 75/75/75 74/74/74 169/169/169
f 169/169/169 168/168/168 75/75/75
f 166/166/166 73/73/73 165/165/165
f 165/165/165 167/167/167 166/166/166
f 73/73/73 72/72/72 163/163/163
f 163/163/163 165/165/165 73/73/73
f 72/72/72 71/71/71 164/164/164
f 164/164/164 163/163/163 72/72/72
f 161/161/161 70/70/70 67/67/67
f 67/67/67 162/162/162 161/161/161
f 70/70/70 69/69/69 66/66/66
f 66/66/66 67/67/67 70/70/70
f 69/69/69 68/68/68 65/65/65
f 65/65/65 66/66/66 69/69/69
f 59/59/59 64/64/64 160/160/160
f 160/160/160 158/158/158 59/59/59
f 156/156/156 159/159/159 64/64/64
f 64/64/64 59/59/59 156/156/156
f 57/57/57 62/62/62 63/63/63
f 63/63/63 58/58/58 57/57/57
f 56/56/56 61/61/61 62/62/62
f 62/62/62 57/57/57 56/56/56
f 55/55/55 60/60/60 61/61/61
f 61/61/61 56/56/56 55/55/55
f 54/54/54 59/59/59 158/158/158
f 158/158/158 157/157/157 54/54/54
f 155/155/155 156/156/156 59/59/59
f 59/59/59 54/54/54 155/155/155
f 52/52/52 57/57/57 58/58/58
f 58/58/58 53/53/53 52/52/52
f 51/51/51 56/56/56 57/57/57
f 57/57/57 52/52/52 51/51/51
f 50/50/50 55/55/55 56/56/56
f 56/56/56 51/51/51 50/50/50
f 151/151/151 154/154/154 153/153/153
f 153/153/153 152/152/152 151/151/151
f 148/148/148 44/44/44 150/150/150
f 150/150/150 149/149/149 148/148/148
f 145/145/145 45/45/45 147/147/147
f 147/147/147 146/146/146 145/145/145
f 143/143/143 43/43/43 42/42/42
f 42/42/42 144/144/144 143/143/143
f 49/49/49 47/47/47 46/46/46
f 46/46/46 48/48/48 49/49/49
f 139/139/139 142/142/142 141/141/141
f 141/141/141 140/140/140 139/139/139
f 136/136/136 36/36/36 138/138/138
f 138/138/138 137/137/137 136/136/136
f 133/133/133 37/37/37 135/135/135
f 135/135/135 134/134/134 133/133/133
f 131/131/131 35/35/35 34/34/34
f 34/34/34 132/132/132 131/131/131
f 41/41/41 39/39/39 38/38/38
f 38/38/38 40/40/40 41/41/41
f 33/33/33 123/123/123 130/130/130
f 33/33/33 130/130/130 129/129/129
f 33/33/33 129/129/129 128/128/128
f 33/33/33 128/128/128 127/127/127
f 33/33/33 127/127/127 126/126/126
f 33/33/33 126/126/126 125/125/125
f 33/33/33 125/125/125 124/124/124
f 33/33/33 124/124/124 123/123/123
f 25/25/25 115/115/115 122/122/122
f 122/122/122 32/32/32 25/25/25
f 32/32/32 122/122/122 121/121/121
f 121/121/121 31/31/31 32/32/32
f 31/31/31 121/121/121 120/120/120
f 120/120/120 30/30/30 31/31/31
f 30/30/30 120/120/120 119/119/119
f 119/119/119 29/29/29 30/30/30
f 29/29/29 119/119/119 118/118/118
f 118/118/118 28/28/28 29/29/29
f 28/28/28 118/118/118 117/117/117
f 117/117/117 27/27/27 28/28/28
f 27/27/27 117/117/117 116/116/116
f 116/116/116 26/26/26 27/27/27
f 26/26/26 116/116/116 115/115/115
f 115/115/115 25/25/25 26/26/26
f 114/114/114 113/113/113 112/112/112
f 111/111/111 110/110/110 109/109/109
f 24/24/24 108/108/108 107/107/107
f 107/107/107 106/106/106 24/24/24
f 23/23/23 105/105/105 104/104/104
f 104/104/104 103/103/103 23/23/23
f 22/22/22 102/102/102 101/101/101
f 101/101/101 100/100/100 22/22/22
f 99/99/99 98/98/98 97/97/97
f 96/96/96 95/95/95 21/21/21
f 94/94/94 93/93/93 92/92/92
f 91/91/91 90/90/90 20/20/20
f 89/89/89 88/88/88 87/87/87
f 86/86/86 85/85/85 19/19/19
f 18/18/18 84/84/84 83/83/83
f 83/83/83 17/17/17 18/18/18
f 81/81/81 82/82/82 8/8/8
f 8/8/8 16/16/16 81/81/81
f 16/16/16 8/8/8 7/7/7
f 7/7/7 15/15/15 16/16/16
f 15/15/15 7/7/7 80/80/80
f 80/80/80 79/79/79 15/15/15
f 14/14/14 6/6/6 5/5/5
f 5/5/5 13/13/13 14/14/14
f 13/13/13 5/5/5 78/78/78
f 78/78/78 77/77/77 13/13/13
f 12/12/12 4/4/4 3/3/3
f 3/3/3 11/11/11 12/12/12
f 11/11/11 3/3/3 2/2/2
f 2/2/2 10/10/10 11/11/11
f 10/10/10 2/2/2 1/1/1
f 1/1/1 9/9/9 10/10/10
