v -0.297622182 3.300000003246472e-8 0.5301891375
v -0.32323034700000003 -0.05431907249999997 0.548769012
v -0.369553008 -0.05431905599999996 0.5912633925
v -0.3902674875 3.300000003766877e-8 0.6151777665
v -0.36465928950000004 0.05431912200000004 0.596597892
v -0.3183366945 0.05431912200000004 0.5541035774999999
v -0.2550996525 -0.005673739499999962 0.606727539
v -0.266834205 -0.042908794499999965 0.625338384
v -0.2984622135 -0.042875101499999964 0.6536662275
v -0.31835563650000004 -0.0056063534999999595 0.66338316
v -0.30662108400000004 0.031628701500000043 0.6447722490000001
v -0.274993092 0.031595008500000035 0.616444422
v -0.1623221655 0.02881036950000005 0.7656815925
v -0.1921756815 0.02632221900000005 0.779130528
v -0.209924616 0.05336025750000005 0.784835073
v -0.197820018 0.08288646300000005 0.7770906825
v -0.1679665185 0.08537463000000005 0.7636417635000001
v -0.15021756749999998 0.05833659150000004 0.7579372185000001
v -0.1143172305 -0.02670485399999994 1.0062979575
v -0.144379356 -0.02949766049999994 1.019252586
v -0.1613044455 -0.0025699409999999376 1.0274861025
v -0.1481674095 0.02715058500000006 1.022764974
v -0.118105284 0.029943391500000065 1.009810329
v -0.1011801945 0.0030156720000000616 1.001576829
v -0.0343769415 0.020851000500000067 1.0821333435
v -0.041778066 -0.007961134499999934 1.0960357155
v -0.066019899 -0.009794680499999932 1.1181075015
v -0.08286060750000002 0.01718389200000007 1.1262769485
v -0.07545948300000001 0.04599601050000007 1.1123744610000001
v -0.05121765 0.04782957300000007 1.0903027905
v -0.1484745075 4.950000006321797e-8 1.032427836
v -0.119191017 0.028277980500000063 1.0273237095
v -0.090517977 4.950000006338537e-8 1.035161556
v -0.11980146750000001 -0.028277897999999937 1.040265699
v -0.15129452250000003 0.05118715800000007 1.255981056
v -0.129797514 0.07193344950000008 1.2521887619999998
v -0.1081199295 0.048109396500000075 1.2445676925
v -0.1296169545 0.027363105000000075 1.2483598545
v -0.036383655 -0.028691651999999915 1.422379893
v -0.0241635735 -0.013976869499999916 1.415572785
v -0.0120865305 -0.029247289499999916 1.4085296445
v -0.024306612000000002 -0.043962071999999915 1.4153367525
v 0.028010664 0.021008823000000093 1.539097065
v 0.032167756500000005 0.028956411000000095 1.5289400445
v 0.03989931000000001 0.019093833000000095 1.5221049855
v 0.035742201 0.011146245000000093 1.5322620225
v 0.1359212085 0.030619528500000097 1.5410519355
v -0.086014698 -0.014475928499999935 1.0834129680000002
v -0.104593401 0.02072987400000007 1.109365422
v -0.08062287750000001 0.052510854000000065 1.0834128525
v -0.062044191000000005 0.017305051500000068 1.0574603985000002
v -0.032822493 -0.014738657999999932 1.1270346450000002
v -0.0396025245 0.015498714000000073 1.157800446
v -0.0147037605 0.043186258500000074 1.138065324
v -0.007923729000000001 0.012948886500000067 1.107299523
v 0.078646194 -0.09612414899999994 1.180879062
v 0.085308927 -0.08082625649999993 1.2071302485
v 0.0953932485 -0.055253566499999934 1.187055606
v 0.08873053200000001 -0.07055145899999993 1.160804436
v 0.265234992 -0.10273378499999992 1.110080334
v 0.269677155 -0.09473164799999993 1.1237231115000001
v 0.27311809800000003 -0.08092487699999992 1.1138656815
v 0.26867593500000003 -0.08892701399999994 1.1002230195
v 0.3890772105 -0.16561437749999997 1.1322416325
v -0.0568979235 -0.018378161999999934 1.089237666
v -0.0742092285 0.01095685800000007 1.1223726195000001
v -0.1000741665 0.03312053250000007 1.089237666
v -0.0827628615 0.0037855290000000648 1.0561025970000002
v 0.09431545200000001 0.12234768150000006 1.0544916525
v 0.08235588900000002 0.14222018250000007 1.077119736
v 0.07374968700000001 0.16490405250000006 1.0525409895
v 0.08570923350000001 0.14503156800000008 1.029912906
v 0.2709909675 0.16815727500000008 1.1206308795
v 0.27172430999999997 0.18177314100000005 1.135033878
v 0.27207414300000005 0.19452972000000007 1.1220381480000001
v 0.2713407345 0.18091385400000007 1.1076352649999999
v 0.401967324 0.14362586700000007 1.0693752795000002
v 0.080591412 0.11596292400000006 1.043481813
v 0.066268356 0.12863332350000006 1.0764478725000002
v 0.0500279505 0.13872975600000007 1.043481813
v 0.1637858805 0.23746182900000007 1.0397079660000001
v 0.153970608 0.24636968400000006 1.0625233575
v 0.1471064925 0.25923933750000006 1.0393428375
v 0.2846233005 0.2899726500000001 1.0764846345
v 0.27992646000000004 0.29586272100000005 1.0901898645
v 0.2738500545 0.3024997635000001 1.0758119130000001
v 0.31635916950000004 0.36067361550000004 1.059102561
v -0.0308333025 -0.03353549099999991 1.4128531560000002
v -0.028205314500000002 -0.015953090999999916 1.4197136415
v -0.0134126025 -0.025813259999999914 1.4128531560000002
v -0.015409482 -0.061828849499999915 1.4867747235
v -0.012589236 -0.0511816304999999 1.496699127
v -0.0032096790000000004 -0.05533174349999991 1.4845962945
v 0.0308896335 -0.10708975199999991 1.496067177
v -0.38243808900000004 0.008318986500000037 0.6093392085
v -0.32647251450000003 0.0006095100000000386 0.6281660055
v -0.3582536925 -0.04609740299999997 0.6093392085
v -0.401023755 -0.010638820499999958 0.6877454925
v -0.3702509415 -0.018846992999999958 0.719416269
v -0.38543443950000006 -0.04747965749999996 0.6895722075
v -0.411318039 -0.017575502999999958 0.6913719285
v -0.41681574 -0.03521918399999996 0.7244936655
v -0.40365009300000004 -0.05094594449999996 0.6946784954999999
v -0.491508765 -0.040893170999999964 0.6254596095000001
v -0.49643119350000003 -0.046286476499999965 0.63158007
v -0.4902834585 -0.05034151649999996 0.6255351465
v -0.3076552215 0.040989531000000044 0.5665425315000001
v -0.3378610125 0.037399246500000045 0.6177357450000001
v -0.36697405800000005 0.046214734500000035 0.5665424655
v -0.30376896000000003 0.13035384450000004 0.5797209825
v -0.3314134395 0.11059507800000005 0.6220552305
v -0.356267142 0.12251858850000004 0.5782112490000001
v -0.34481980500000003 0.20344717800000006 0.6324861345
v -0.3711635235 0.19671405600000005 0.6726918494999999
v -0.3896934195 0.20282526000000003 0.6353420865
v -0.319337073 0.27309669750000004 0.6205884300000001
v -0.338895249 0.2882603460000001 0.6431909550000001
v -0.36010392 0.25837878000000003 0.6186628305
v -0.43169035800000005 0.2908653165000001 0.5145667395000001
v -0.44324596800000005 0.29956466100000007 0.5269725285000001
v -0.44414503650000003 0.28065972000000006 0.524756958
v -0.3036497475 -0.016940582999999964 0.6070751115
v -0.321819927 0.03388128150000004 0.5819154165
v -0.3507171525 -0.016940599499999962 0.570596532
v -0.25385847300000003 -0.02917996949999997 0.5349128565000001
v -0.25450616400000003 0.00926714250000003 0.49506232050000004
v -0.28138276650000005 -0.03251975099999997 0.489054225
v -0.171848358 -0.09087701699999998 0.529714746
v -0.17954442 -0.05582619899999997 0.4962138225
v -0.206020584 -0.08651680949999997 0.49310076750000004
v -0.1590676725 -0.10066880999999997 0.43225752900000003
v -0.1690676955 -0.06626749799999998 0.43986655350000003
v -0.19537671450000002 -0.08893163399999997 0.4487870145
v -0.301485096 -0.05016679799999998 0.346758159
v -0.3012204195 -0.03290335949999998 0.354821445
v -0.3110952735 -0.04704895799999998 0.3629147445
v 0.14441146500000002 0.12251934750000008 1.126612047
v 0.1063513275 0.09684308700000009 1.1413781115000001
v 0.1427630655 0.14836097100000006 1.1672983410000002
v 0.104702928 0.12268472700000009 1.182064389
v 0.165607101 0.09108843150000008 1.156037916
v 0.1417776855 0.07501256400000009 1.1652829155
v 0.16445487300000003 0.10915132800000008 1.1844769860000002
v 0.140625507 0.09307546050000008 1.193721969
v 0.159293805 0.08548026300000007 1.179323244
v 0.11371517850000001 0.13418847750000007 1.1465399055
v 0.218236656 0.09556300050000008 1.1764078755
v 0.19621204350000002 0.13910359650000007 1.163160999
v 0.252746901 0.10194652050000007 1.140012258
v 0.2307222555 0.14548713300000005 1.1267652495
v 0.24796556400000003 0.1287058905000001 1.199838486
v 0.2341759695 0.15596658000000005 1.1915445465
v 0.27208767300000003 0.13316788650000005 1.1743983735
v 0.25829811150000004 0.16042857600000007 1.1661044505
v 0.2593295265 0.14976771150000007 1.189760121
v 0.21360205350000003 0.11139783600000007 1.139671863
v 0.24869724 0.03864186150000007 1.1310085875
v 0.264433554 0.08499511350000008 1.1442626415
v 0.250013346 0.024370417500000074 1.1794710345
v 0.26569844400000003 0.07057282650000009 1.1927250885
v 0.2052881655 0.05936990400000008 1.1462494890000001
v 0.2151406455 0.08839162200000007 1.1545478175000001
v 0.20634665700000002 0.049351236000000076 1.1801240055
v 0.2161670775 0.07827849150000007 1.1884223505000002
v 0.200757282 0.07189876650000007 1.1685189120000001
v 0.27490245750000003 0.04921697550000008 1.159790676
v 0.1520112 -0.0026696339999999273 1.19179896
v 0.18759939 0.030712291500000075 1.2050458365
v 0.182156436 -0.02070122999999993 1.1553188625
v 0.21808889850000002 0.013003650000000073 1.1686940265
v 0.181918143 -0.03150008399999993 1.2201825075000001
v 0.20419985850000003 -0.010599731999999924 1.2284764305000002
v 0.20305946100000002 -0.043943261999999934 1.194742527
v 0.2253411435 -0.02304289349999993 1.2030363345000001
v 0.20767490700000002 -0.03427805699999993 1.218398214
v 0.177685101 0.017554251000000073 1.1683503645
v 0.3405458925 0.07359039600000006 1.0599305145
v 0.3037070355 -0.07935693149999992 1.130662269
v 0.16753242000000002 -0.12138190349999993 1.1618733225000002
v 0.0723694785 -0.07848990599999993 1.2050979600000002
v 0.0019632525 0.08071732350000008 1.1007867420000002
v 0.036654057000000004 0.23572028700000006 1.0840739910000001
v 0.1801713705 0.26160236850000007 1.067200992
v 0.3018937185 0.18611716200000006 1.054079631
v 0.417292128 0.07684490550000007 1.13897421
v 0.31613496750000003 -0.08841538199999993 1.193173245
v 0.18610759200000002 -0.14499787499999994 1.2349285410000002
v 0.0175228845 -0.04998925799999993 1.2382447275000001
v -0.032012079 0.08547693000000008 1.160422626
v 0.004606668 0.2502650370000001 1.1708433825000002
v 0.17815535100000002 0.3069274725000001 1.1549223345000001
v 0.338850666 0.23707756050000006 1.136193531
v 0.38168976450000003 0.08430369750000007 1.1945684355000001
v 0.2886581115 -0.05880962999999993 1.2081404610000002
v 0.1647005085 -0.10376328599999993 1.248522363
v 0.04128346200000001 -0.031238162999999923 1.271569398
v 0.009820156500000001 0.08728509900000007 1.212747228
v 0.045880032 0.2160615105000001 1.2134676675
v 0.17862207000000002 0.2767555890000001 1.183399536
v 0.3183509835 0.2054989365000001 1.1967308760000002
v 0.34492184100000006 0.08192063550000007 1.176982917
v 0.2720009325 -0.03881621699999993 1.2226585305
v 0.173175684 -0.04808842499999993 1.252670529
v 0.067285647 -0.002019187499999924 1.2440069895
v 0.0531288615 0.08181195000000008 1.2099540915
v 0.06888271500000001 0.1877408280000001 1.2099359745
v 0.18205986150000003 0.23861857800000008 1.1995444065
v 0.2980690845 0.18467408850000006 1.1795507295
v 0.31276905 0.07476214350000007 1.1143795575000002
v 0.25187782950000004 -0.026064653999999934 1.1454853575000001
v 0.1760809875 -0.043297963499999925 1.1668562235
v 0.088756998 0.0026969910000000713 1.1649038775
v 0.0797614125 0.07978271400000007 1.148882988
v 0.093895725 0.16315343550000008 1.1356082925
v 0.183603486 0.19314520500000007 1.1206863855000002
v 0.27470104200000006 0.15765717000000007 1.1131369425000002
v -0.20197884300000002 0.11669979750000008 1.2574666170000002
v 0.1171556595 0.4423929015000001 1.0432593105
v 0.062098146 0.004717449000000075 1.2215935545
v 0.33148034700000006 0.3650179995000001 1.2084209445
v 0.06472032600000001 0.17334594750000007 1.182429336
v 0.2351040615 -0.15847883699999996 1.1711465205
v -0.20329692900000002 0.15293091000000006 1.1594879340000002
v 0.070705866 -0.2118550334999999 1.3703367645000002
v -0.029133159000000002 -0.0052125809999999185 1.3271166645
v 0.327911133 0.04069225050000007 1.1286510015000002
v 0.081246594 -0.20912425049999991 1.2861132735
v 0.43724597400000004 -0.11301986849999993 1.2556205145000001
v 0.41341525500000004 0.2551394505000001 1.18985592
v 0.44836532400000007 -0.03054285299999993 1.1556986595
v 0.26031617700000004 0.17560294950000008 1.202094465
v 0.322498704 -0.08286484799999994 1.2899040495
v -0.2550996525 -0.005673739499999962 0.606727539
v -0.297622182 3.300000003246472e-8 0.5301891375
v -0.15021756749999998 0.05833659150000004 0.7579372185000001
v -0.1011801945 0.0030156720000000616 1.001576829
v -0.0343769415 0.020851000500000067 1.0821333435
v -0.08286060750000002 0.01718389200000007 1.1262769485
v -0.07545948300000001 0.04599601050000007 1.1123744610000001
v -0.05121765 0.04782957300000007 1.0903027905
v -0.0343769415 0.020851000500000067 1.0821333435
v -0.041778066 -0.007961134499999934 1.0960357155
v -0.066019899 -0.009794680499999932 1.1181075015
v -0.15129452250000003 0.05118715800000007 1.255981056
v -0.1484745075 4.950000006321797e-8 1.032427836
v -0.036383655 -0.028691651999999915 1.422379893
v 0.028010664 0.021008823000000093 1.539097065
v -0.032822493 -0.014738657999999932 1.1270346450000002
v -0.086014698 -0.014475928499999935 1.0834129680000002
v 0.078646194 -0.09612414899999994 1.180879062
v 0.265234992 -0.10273378499999992 1.110080334
v 0.09431545200000001 0.12234768150000006 1.0544916525
v -0.0568979235 -0.018378161999999934 1.089237666
v 0.2709909675 0.16815727500000008 1.1206308795
v 0.1637858805 0.23746182900000007 1.0397079660000001
v 0.080591412 0.11596292400000006 1.043481813
v 0.2846233005 0.2899726500000001 1.0764846345
v -0.015409482 -0.061828849499999915 1.4867747235
v -0.0308333025 -0.03353549099999991 1.4128531560000002
v 0.0308896335 -0.10708975199999991 1.496067177
v -0.0134126025 -0.025813259999999914 1.4128531560000002
v -0.028205314500000002 -0.015953090999999916 1.4197136415
v -0.401023755 -0.010638820499999958 0.6877454925
v -0.38243808900000004 0.008318986500000037 0.6093392085
v -0.411318039 -0.017575502999999958 0.6913719285
v -0.491508765 -0.040893170999999964 0.6254596095000001
v -0.30376896000000003 0.13035384450000004 0.5797209825
v -0.3076552215 0.040989531000000044 0.5665425315000001
v -0.34481980500000003 0.20344717800000006 0.6324861345
v -0.319337073 0.27309669750000004 0.6205884300000001
v -0.43169035800000005 0.2908653165000001 0.5145667395000001
v -0.25385847300000003 -0.02917996949999997 0.5349128565000001
v -0.3036497475 -0.016940582999999964 0.6070751115
v -0.171848358 -0.09087701699999998 0.529714746
v -0.1590676725 -0.10066880999999997 0.43225752900000003
v -0.301485096 -0.05016679799999998 0.346758159
v 0.16445487300000003 0.10915132800000008 1.1844769860000002
v 0.1427630655 0.14836097100000006 1.1672983410000002
v 0.159293805 0.08548026300000007 1.179323244
v 0.11371517850000001 0.13418847750000007 1.1465399055
v 0.27208767300000003 0.13316788650000005 1.1743983735
v 0.252746901 0.10194652050000007 1.140012258
v 0.2593295265 0.14976771150000007 1.189760121
v 0.21360205350000003 0.11139783600000007 1.139671863
v 0.20634665700000002 0.049351236000000076 1.1801240055
v 0.250013346 0.024370417500000074 1.1794710345
v 0.200757282 0.07189876650000007 1.1685189120000001
v 0.27490245750000003 0.04921697550000008 1.159790676
v 0.20305946100000002 -0.043943261999999934 1.194742527
v 0.182156436 -0.02070122999999993 1.1553188625
v 0.20767490700000002 -0.03427805699999993 1.218398214
v 0.177685101 0.017554251000000073 1.1683503645
v 0.0723694785 -0.07848990599999993 1.2050979600000002
v 0.0175228845 -0.04998925799999993 1.2382447275000001
v 0.04128346200000001 -0.031238162999999923 1.271569398
v 0.067285647 -0.002019187499999924 1.2440069895
v 0.25187782950000004 -0.026064653999999934 1.1454853575000001
v 0.31276905 0.07476214350000007 1.1143795575000002
v 0.1760809875 -0.043297963499999925 1.1668562235
v 0.088756998 0.0026969910000000713 1.1649038775
v 0.0797614125 0.07978271400000007 1.148882988
v 0.088756998 0.0026969910000000713 1.1649038775
v 0.093895725 0.16315343550000008 1.1356082925
v 0.183603486 0.19314520500000007 1.1206863855000002
v 0.27470104200000006 0.15765717000000007 1.1131369425000002
vt 0.755859 0.494141
vt 0.794922 0.494141
vt 0.833984 0.494141
vt 0.875000 0.494141
vt 0.916016 0.494141
vt 0.955078 0.494141
vt 0.755859 0.431641
vt 0.794922 0.431641
vt 0.833984 0.431641
vt 0.875000 0.431641
vt 0.916016 0.431641
vt 0.955078 0.431641
vt 0.794922 0.291992
vt 0.833984 0.291992
vt 0.875000 0.291992
vt 0.916016 0.291992
vt 0.955078 0.291992
vt 0.755859 0.291992
vt 0.794922 0.099609
vt 0.833984 0.099609
vt 0.875000 0.099609
vt 0.916016 0.099609
vt 0.955078 0.099609
vt 0.755859 0.099609
vt 0.755859 0.009766
vt 0.794922 0.009766
vt 0.833984 0.009766
vt 0.875000 0.009766
vt 0.916016 0.009766
vt 0.955078 0.009766
vt 0.761719 0.494141
vt 0.798828 0.494141
vt 0.835938 0.494141
vt 0.873047 0.494141
vt 0.761719 0.335938
vt 0.798828 0.335938
vt 0.835938 0.335938
vt 0.873047 0.335938
vt 0.761719 0.183594
vt 0.798828 0.183594
vt 0.835938 0.183594
vt 0.873047 0.183594
vt 0.761719 0.083984
vt 0.798828 0.083984
vt 0.835938 0.083984
vt 0.873047 0.083984
vt 0.835938 0.009766
vt 0.753906 0.494141
vt 0.814453 0.494141
vt 0.873047 0.494141
vt 0.931641 0.494141
vt 0.753906 0.429688
vt 0.814453 0.429688
vt 0.873047 0.429688
vt 0.931641 0.429688
vt 0.753906 0.298828
vt 0.814453 0.298828
vt 0.873047 0.298828
vt 0.931641 0.298828
vt 0.753906 0.130859
vt 0.814453 0.130859
vt 0.873047 0.130859
vt 0.931641 0.130859
vt 0.873047 0.009766
vt 0.753906 0.494141
vt 0.814453 0.494141
vt 0.873047 0.494141
vt 0.931641 0.494141
vt 0.753906 0.310547
vt 0.814453 0.310547
vt 0.873047 0.310547
vt 0.931641 0.310547
vt 0.753906 0.134766
vt 0.814453 0.134766
vt 0.873047 0.134766
vt 0.931641 0.134766
vt 0.873047 0.009766
vt 0.818359 0.494141
vt 0.853516 0.494141
vt 0.892578 0.494141
vt 0.818359 0.296875
vt 0.853516 0.296875
vt 0.892578 0.296875
vt 0.818359 0.113281
vt 0.853516 0.113281
vt 0.892578 0.113281
vt 0.873047 0.009766
vt 0.773438 0.386719
vt 0.808594 0.386719
vt 0.847656 0.386719
vt 0.773438 0.234375
vt 0.808594 0.234375
vt 0.847656 0.234375
vt 0.791016 0.109375
vt 0.826172 0.423828
vt 0.875000 0.423828
vt 0.925781 0.423828
vt 0.826172 0.292969
vt 0.875000 0.292969
vt 0.925781 0.292969
vt 0.826172 0.253906
vt 0.875000 0.253906
vt 0.925781 0.253906
vt 0.826172 0.087891
vt 0.875000 0.087891
vt 0.925781 0.087891
vt 0.779297 0.494141
vt 0.826172 0.494141
vt 0.876953 0.494141
vt 0.779297 0.400391
vt 0.826172 0.400391
vt 0.876953 0.400391
vt 0.779297 0.279297
vt 0.826172 0.279297
vt 0.876953 0.279297
vt 0.779297 0.183594
vt 0.826172 0.183594
vt 0.876953 0.183594
vt 0.779297 0.009766
vt 0.826172 0.009766
vt 0.876953 0.009766
vt 0.843750 0.494141
vt 0.888672 0.494141
vt 0.939453 0.494141
vt 0.843750 0.378906
vt 0.888672 0.378906
vt 0.939453 0.378906
vt 0.843750 0.267578
vt 0.888672 0.267578
vt 0.939453 0.267578
vt 0.843750 0.193359
vt 0.888672 0.193359
vt 0.939453 0.193359
vt 0.843750 0.009766
vt 0.888672 0.009766
vt 0.939453 0.009766
vt 0.078125 0.933594
vt 0.078125 0.878906
vt 0.078125 0.755859
vt 0.078125 0.816406
vt 0.203125 0.923828
vt 0.203125 0.878906
vt 0.203125 0.787109
vt 0.203125 0.824219
vt 0.228516 0.925781
vt 0.033203 0.933594
vt 0.078125 0.933594
vt 0.078125 0.878906
vt 0.078125 0.755859
vt 0.078125 0.816406
vt 0.203125 0.923828
vt 0.203125 0.878906
vt 0.203125 0.787109
vt 0.203125 0.824219
vt 0.228516 0.925781
vt 0.033203 0.933594
vt 0.052734 0.685547
vt 0.052734 0.630859
vt 0.052734 0.507813
vt 0.052734 0.568359
vt 0.177734 0.675781
vt 0.177734 0.630859
vt 0.177734 0.539063
vt 0.177734 0.576172
vt 0.203125 0.677734
vt 0.007813 0.685547
vt 0.078125 0.933594
vt 0.078125 0.878906
vt 0.078125 0.755859
vt 0.078125 0.816406
vt 0.203125 0.923828
vt 0.203125 0.878906
vt 0.203125 0.787109
vt 0.203125 0.824219
vt 0.228516 0.925781
vt 0.033203 0.933594
vt 0.496094 0.689453
vt 0.496094 0.626953
vt 0.496094 0.562500
vt 0.496094 0.501953
vt 0.496094 0.939453
vt 0.496094 0.876953
vt 0.496094 0.814453
vt 0.496094 0.751953
vt 0.412109 0.689453
vt 0.412109 0.626953
vt 0.412109 0.562500
vt 0.412109 0.501953
vt 0.412109 0.939453
vt 0.412109 0.876953
vt 0.412109 0.814453
vt 0.412109 0.751953
vt 0.365234 0.689453
vt 0.365234 0.626953
vt 0.365234 0.562500
vt 0.365234 0.501953
vt 0.365234 0.939453
vt 0.365234 0.876953
vt 0.365234 0.814453
vt 0.365234 0.751953
vt 0.341797 0.689453
vt 0.341797 0.626953
vt 0.341797 0.562500
vt 0.341797 0.501953
vt 0.341797 0.939453
vt 0.341797 0.876953
vt 0.341797 0.814453
vt 0.341797 0.751953
vt 0.492188 0.417969
vt 0.492188 0.320313
vt 0.421875 0.250000
vt 0.324219 0.250000
vt 0.253906 0.320313
vt 0.253906 0.417969
vt 0.324219 0.488281
vt 0.421875 0.488281
vt 0.519531 0.980469
vt 0.982422 0.980469
vt 0.519531 0.767578
vt 0.982422 0.767578
vt 0.519531 0.978516
vt 0.982422 0.978516
vt 0.519531 0.767578
vt 0.982422 0.767578
vt 0.519531 0.978516
vt 0.982422 0.978516
vt 0.519531 0.765625
vt 0.982422 0.765625
vt 0.519531 0.978516
vt 0.982422 0.978516
vt 0.519531 0.765625
vt 0.982422 0.765625
vt 0.994141 0.431641
vt 0.994141 0.494141
vt 0.994141 0.291992
vt 0.994141 0.099609
vt 0.994141 0.009766
vt 0.755859 0.494141
vt 0.755859 0.494141
vt 0.755859 0.494141
vt 0.755859 0.494141
vt 0.755859 0.494141
vt 0.755859 0.494141
vt 0.910156 0.335938
vt 0.910156 0.494141
vt 0.910156 0.183594
vt 0.910156 0.083984
vt 0.992188 0.429688
vt 0.992188 0.494141
vt 0.992188 0.298828
vt 0.992188 0.130859
vt 0.992188 0.310547
vt 0.992188 0.494141
vt 0.992188 0.134766
vt 0.927734 0.296875
vt 0.927734 0.494141
vt 0.927734 0.113281
vt 0.882813 0.234375
vt 0.882813 0.386719
vt 0.865234 0.109375
vt 0.773438 0.386719
vt 0.773438 0.386719
vt 0.974609 0.292969
vt 0.974609 0.423828
vt 0.974609 0.253906
vt 0.974609 0.087891
vt 0.923828 0.400391
vt 0.923828 0.494141
vt 0.923828 0.279297
vt 0.923828 0.183594
vt 0.923828 0.009766
vt 0.984375 0.378906
vt 0.984375 0.494141
vt 0.984375 0.267578
vt 0.984375 0.193359
vt 0.984375 0.009766
vt 0.203125 0.966797
vt 0.078125 0.992188
vt 0.228516 0.826172
vt 0.033203 0.816406
vt 0.203125 0.966797
vt 0.078125 0.992188
vt 0.228516 0.826172
vt 0.033203 0.816406
vt 0.177734 0.718750
vt 0.052734 0.744141
vt 0.203125 0.578125
vt 0.007813 0.568359
vt 0.203125 0.966797
vt 0.078125 0.992188
vt 0.228516 0.826172
vt 0.033203 0.816406
vt 0.496094 0.998047
vt 0.412109 0.998047
vt 0.365234 0.998047
vt 0.341797 0.998047
vt 0.251953 0.626953
vt 0.251953 0.689453
vt 0.251953 0.562500
vt 0.251953 0.501953
vt 0.251953 0.939453
vt 0.251953 0.998047
vt 0.251953 0.876953
vt 0.251953 0.814453
vt 0.251953 0.751953
vn 0.849937 -0.18487900000000002 -0.493383
vn 0.33522 -0.93605 -0.10694899999999995
vn -0.364603 -0.742184 0.562341
vn -0.531118 0.18031000000000005 0.82789
vn -0.021399 0.89464 0.44627399999999995
vn 0.657548 0.725447 -0.20336500000000005
vn 0.868362 0.024264999999999967 -0.495336
vn 0.553455 -0.824552 -0.11748099999999995
vn -0.225788 -0.837274 0.49798800000000004
vn -0.688115 -0.005660999999999956 0.725579
vn -0.367626 0.863796 0.34453999999999996
vn 0.42806 0.861743 -0.27232800000000007
vn 0.526126 -0.819156 -0.22841899999999996
vn -0.355192 -0.903784 0.23877200000000007
vn -0.870635 -0.04420399999999997 0.48994
vn -0.496477 0.823968 0.27310499999999993
vn 0.382897 0.904855 -0.18608300000000005
vn 0.899006 0.054216999999999974 -0.434567
vn 0.534491 -0.817392 -0.21491999999999994
vn -0.382204 -0.908411 0.16944000000000006
vn -0.918198 -0.07433199999999997 0.389085
vn -0.535776 0.817261 0.21220099999999995
vn 0.374409 0.908953 -0.18336500000000006
vn 0.914934 0.07344899999999997 -0.396864
vn 0.949499 0.304626 -0.07520400000000001
vn 0.884524 -0.439819 0.15549000000000002
vn 0.121146 -0.836349 0.534643
vn 0.145292 0.01647500000000006 0.989252
vn -0.353385 0.720176 0.597047
vn 0.474993 0.85699 0.19987599999999994
vn -0.945283 0.315227 -0.08410000000000001
vn 0.328234 0.930178 -0.16441000000000006
vn 0.942204 -0.300468 0.14822600000000002
vn -0.322797 -0.918201 0.22958500000000007
vn -0.925033 -0.027044999999999975 0.378922
vn 0.076039 0.997054 -0.01004300000000006
vn 0.949818 0.023123999999999978 -0.311946
vn -0.05948 -0.994952 0.08081900000000006
vn -0.908446 -0.018116999999999977 0.417609
vn 0.023051 0.99858 0.04801999999999994
vn 0.933108 0.02466299999999998 -0.358749
vn 0.016431 -0.999808 0.010658000000000062
vn -0.536212 -0.15637999999999994 0.829471
vn -0.289012 0.950046 -0.11783300000000005
vn 0.632896 0.18303899999999995 -0.75229
vn 0.376735 -0.90945 0.17598900000000006
vn 0.919167 0.19317000000000004 0.343245
vn -0.232675 -0.933258 0.27366300000000005
vn -0.539762 0.35880600000000007 0.761522
vn 0.314076 0.924216 -0.21721300000000004
vn 0.614609 -0.3679700000000001 -0.697749
vn -0.234977 -0.96831 -0.08463099999999994
vn -0.415059 -0.028872999999999944 0.909336
vn 0.323715 0.935641 0.14065899999999995
vn 0.505859 -0.004054000000000053 -0.862607
vn -0.186269 -0.953452 -0.23713599999999996
vn -0.062513 -0.13845199999999994 0.988394
vn 0.279906 0.930046 0.23804699999999995
vn 0.159528 0.09789199999999995 -0.982328
vn -0.302244 -0.868752 -0.3923249999999999
vn 0.139812 -0.42027699999999996 0.89656
vn 0.420985 0.8235 0.38028799999999996
vn -0.016967 0.38691499999999995 -0.921959
vn 0.906603 -0.421917 0.007521000000000026
vn 0.68558 -0.661711 0.30351000000000006
vn -0.042786 0.3696380000000001 0.92819
vn -0.614436 0.721583 -0.31904000000000005
vn 0.120769 -0.31709800000000005 -0.940672
vn 0.408399 -0.912675 -0.015328999999999945
vn 0.023003 0.07110400000000006 0.997204
vn -0.313363 0.949423 0.01997799999999994
vn 0.06849 -0.025693000000000063 -0.997321
vn 0.141817 -0.973503 -0.17938599999999993
vn 0.050056 -0.26880599999999993 0.961893
vn -0.014662 0.984422 0.17520999999999995
vn 0.077834 0.2639639999999999 -0.961387
vn 0.972411 -0.147814 -0.180466
vn 0.825066 -0.565032 -0.002007999999999965
vn -0.34985 0.3620070000000001 0.864035
vn -0.40078 0.29387899999999995 -0.867762
vn 0.471735 -0.705335 -0.529121
vn 0.069432 0.07439900000000006 0.994809
vn -0.454315 0.745553 -0.4875940000000001
vn 0.527131 -0.38155600000000006 -0.759308
vn 0.132641 -0.26856099999999994 0.954087
vn -0.539138 0.829919 -0.14340500000000006
vn 0.642407 0.752277 -0.14626100000000006
vn -0.88232 -0.17707600000000004 -0.436067
vn 0.044282 0.991552 -0.12191500000000005
vn 0.602523 -0.2720060000000001 -0.750319
vn -0.325162 -0.884936 -0.33340499999999995
vn -0.516173 0.42228600000000005 0.745144
vn 0.895591 0.390337 -0.21343400000000004
vn 0.552906 -0.746427 0.37032600000000004
vn -0.456523 0.884358 0.09745599999999995
vn 0.900263 -0.15552199999999997 0.40662
vn -0.570165 -0.795312 -0.20589199999999994
vn -0.827016 0.540633 -0.15414400000000003
vn 0.452105 0.24010300000000007 0.859041
vn 0.152749 -0.904681 -0.39776899999999993
vn -0.421281 0.721015 -0.550145
vn -0.503187 -0.034039999999999945 0.863507
vn 0.455985 -0.817349 -0.3521619999999999
vn 0.432047 0.547363 -0.716749
vn -0.722443 0.39902300000000007 0.564674
vn 0.042456 -0.997526 -0.05603499999999994
vn 0.999092 -0.041481 0.009700000000000002
vn -0.500802 -0.007967999999999946 0.865525
vn -0.487174 0.19610599999999995 -0.851002
vn 0.860602 0.300334 -0.411294
vn 0.035541 -0.40967899999999996 0.911537
vn -0.858336 0.269372 -0.43669
vn 0.884079 0.31506 -0.345169
vn 0.038971 0.13688200000000006 0.989821
vn -0.787861 -0.17939300000000002 -0.589147
vn 0.652044 0.10197299999999995 -0.751292
vn -0.158859 0.34575400000000006 0.92478
vn -0.788794 -0.566634 -0.23818099999999998
vn 0.576004 -0.43989900000000004 -0.688991
vn 0.015152 0.99642 0.08316699999999995
vn -0.692925 -0.517459 0.502087
vn 0.819424 -0.016393999999999964 0.572953
vn -0.279299 0.844686 -0.45661500000000005
vn -0.452543 -0.863068 -0.22431899999999994
vn 0.41574 -0.3751129999999999 0.828523
vn 0.540947 0.747158 -0.3861760000000001
vn -0.76546 -0.473319 -0.43593699999999996
vn 0.484517 -0.524773 0.699898
vn 0.209898 0.975451 -0.06661600000000005
vn -0.537284 -0.619787 -0.572005
vn 0.467616 -0.7203 -0.512351
vn 0.375629 0.904065 0.20388699999999996
vn -0.949258 -0.307773 0.06468500000000002
vn -0.045896 -0.889907 -0.4538269999999999
vn 0.482003 0.750344 -0.45239000000000007
vn -0.54219 0.18052100000000004 0.820635
vn 0.511072 0.734781 -0.4459850000000001
vn -0.879347 -0.417279 0.22940600000000003
vn 0.407568 0.912877 0.023303999999999943
vn -0.626893 0.39516000000000007 0.671456
vn 0.992208 -0.088083 -0.088113
vn -0.017044 -0.936846 0.3493280000000001
vn 0.676 0.19653400000000004 0.71021
vn -0.183402 -0.541862 0.820213
vn 0.613209 -0.655315 0.44106300000000004
vn -0.603791 0.763794 -0.22815600000000005
vn -0.536125 -0.69384 0.4807870000000001
vn -0.884855 0.460459 -0.07078000000000002
vn 0.591233 -0.802642 -0.07880499999999994
vn 0.18966 0.570752 -0.798919
vn 0.374382 -0.3432319999999999 0.861412
vn -0.296816 0.571183 0.765278
vn 0.999814 0.018702 0.004761999999999999
vn 0.334962 0.938442 -0.08442000000000005
vn 0.586824 0.49240400000000006 0.642787
vn -0.732097 -0.5083 -0.45350299999999993
vn 0.057201 -0.957277 -0.28345699999999996
vn 0.462131 0.853158 0.24198299999999995
vn 0.084851 -0.969847 0.22846500000000006
vn 0.501655 0.11972800000000006 0.856742
vn -0.838123 -0.471031 -0.2750989999999999
vn -0.535315 0.843003 0.052760999999999954
vn -0.681388 -0.40292399999999995 0.611034
vn -0.351838 0.68372 0.639325
vn -0.950219 0.289453 0.11532999999999999
vn 0.928804 -0.350262 0.12099300000000003
vn -0.955567 0.18791500000000003 0.227112
vn 0.136747 0.925648 0.35281199999999996
vn -0.477422 -0.675461 -0.561979
vn 0.855179 0.21455099999999996 -0.471843
vn -0.493569 -0.708634 0.50421
vn 0.117928 0.12026800000000006 0.985712
vn 0.341508 -0.915255 -0.21373199999999995
vn 0.956567 -0.09344199999999998 0.276132
vn 0.383022 -0.663414 0.642788
vn -0.516031 0.728762 -0.45013200000000003
vn 0.806132 -0.24679400000000004 -0.537814
vn 0.535113 -0.794988 -0.28574099999999997
vn -0.184283 -0.982261 -0.034674999999999935
vn -0.604227 -0.770953 -0.20134999999999995
vn -0.893909 -0.06636800000000002 -0.443308
vn -0.545092 0.730989 -0.4105230000000001
vn 0.166678 0.839817 -0.516648
vn 0.630172 0.4385049999999999 -0.640777
vn 0.97557 0.026669999999999985 -0.218065
vn 0.734108 -0.49833299999999997 0.46124800000000005
vn 0.006293 -0.902728 0.43016600000000005
vn -0.715787 -0.616113 0.32871600000000006
vn -0.982136 -0.181504 -0.04965899999999999
vn -0.74517 0.581775 0.32597399999999993
vn 0.061186 0.984378 0.16509599999999994
vn 0.70127 0.712351 -0.027866000000000044
vn 0.436991 0.07785900000000005 0.89609
vn 0.367433 -0.20398399999999994 0.907405
vn 0.233481 -0.06032399999999994 0.970488
vn -0.059218 0.07488500000000005 0.995432
vn -0.445824 0.13981100000000005 0.884134
vn -0.119706 0.25987400000000005 0.958194
vn 0.004541 0.44969200000000004 0.893172
vn 0.060668 0.21231500000000006 0.975316
vn -0.702475 0.15823400000000007 0.693896
vn -0.158843 0.620796 0.767712
vn 0.326747 0.554587 0.765291
vn 0.585477 0.42914100000000005 0.68779
vn 0.643516 0.18099500000000004 0.743725
vn 0.390807 -0.3721499999999999 0.841887
vn 0.059691 -0.37997699999999995 0.923068
vn -0.481433 -0.37477299999999997 0.792318
vn -0.697799 -0.017199999999999955 0.716087
vn -0.23458 0.584079 0.777061
vn 0.114763 0.927441 0.35592399999999996
vn 0.372164 0.509165 0.776044
vn 0.776885 0.16828000000000004 0.606739
vn 0.482142 -0.12851599999999994 0.866616
vn 0.175173 -0.701497 0.690808
vn -0.137214 -0.26530599999999993 0.954351
vn -0.08327 0.36224900000000004 0.928354
vn -0.262903 0.696634 0.66752
vn 0.114025 -0.048974999999999935 0.99227
vn -0.08327 0.36224900000000004 0.928354
vn 0.315715 0.41996700000000003 0.850854
vn 0.683275 0.32867500000000005 0.652003
vn -0.109614 0.4344140000000001 0.894019
vn 0.315715 0.41996700000000003 0.850854
vn 0.217285 0.33100100000000005 0.918273
vn 0.26472 0.719059 0.642555
vn 0.120122 -0.13280999999999996 0.983835
vn 0.217285 0.33100100000000005 0.918273
vn 0.362118 0.17367400000000005 0.91581
vn 0.728003 0.007098000000000042 0.685537
vn -0.081494 0.30297100000000005 0.949509
vn 0.362118 0.17367400000000005 0.91581
vn 0.868362 0.024264999999999967 -0.495336
vn 0.849937 -0.18487900000000002 -0.493383
vn 0.899006 0.054216999999999974 -0.434567
vn 0.914934 0.07344899999999997 -0.396864
vn 0.949499 0.304626 -0.07520400000000001
vn 0.145292 0.01647500000000006 0.989252
vn -0.353385 0.720176 0.597047
vn 0.474993 0.85699 0.19987599999999994
vn 0.949499 0.304626 -0.07520400000000001
vn 0.884524 -0.439819 0.15549000000000002
vn 0.121146 -0.836349 0.534643
vn -0.925033 -0.027044999999999975 0.378922
vn -0.945283 0.315227 -0.08410000000000001
vn -0.908446 -0.018116999999999977 0.417609
vn -0.536212 -0.15637999999999994 0.829471
vn -0.234977 -0.96831 -0.08463099999999994
vn -0.232675 -0.933258 0.27366300000000005
vn -0.186269 -0.953452 -0.23713599999999996
vn -0.302244 -0.868752 -0.3923249999999999
vn 0.408399 -0.912675 -0.015328999999999945
vn 0.68558 -0.661711 0.30351000000000006
vn 0.141817 -0.973503 -0.17938599999999993
vn 0.471735 -0.705335 -0.529121
vn 0.825066 -0.565032 -0.002007999999999965
vn 0.527131 -0.38155600000000006 -0.759308
vn -0.325162 -0.884936 -0.33340499999999995
vn -0.88232 -0.17707600000000004 -0.436067
vn 0.552906 -0.746427 0.37032600000000004
vn 0.602523 -0.2720060000000001 -0.750319
vn 0.044282 0.991552 -0.12191500000000005
vn -0.827016 0.540633 -0.15414400000000003
vn -0.456523 0.884358 0.09745599999999995
vn -0.421281 0.721015 -0.550145
vn 0.432047 0.547363 -0.716749
vn 0.860602 0.300334 -0.411294
vn 0.999092 -0.041481 0.009700000000000002
vn 0.884079 0.31506 -0.345169
vn 0.652044 0.10197299999999995 -0.751292
vn 0.576004 -0.43989900000000004 -0.688991
vn 0.41574 -0.3751129999999999 0.828523
vn 0.819424 -0.016393999999999964 0.572953
vn 0.484517 -0.524773 0.699898
vn 0.467616 -0.7203 -0.512351
vn -0.045896 -0.889907 -0.4538269999999999
vn 0.676 0.19653400000000004 0.71021
vn 0.407568 0.912877 0.023303999999999943
vn 0.613209 -0.655315 0.44106300000000004
vn -0.603791 0.763794 -0.22815600000000005
vn 0.999814 0.018702 0.004761999999999999
vn 0.591233 -0.802642 -0.07880499999999994
vn 0.586824 0.49240400000000006 0.642787
vn -0.732097 -0.5083 -0.45350299999999993
vn -0.681388 -0.40292399999999995 0.611034
vn 0.084851 -0.969847 0.22846500000000006
vn -0.950219 0.289453 0.11532999999999999
vn 0.928804 -0.350262 0.12099300000000003
vn 0.341508 -0.915255 -0.21373199999999995
vn -0.477422 -0.675461 -0.561979
vn 0.383022 -0.663414 0.642788
vn -0.516031 0.728762 -0.45013200000000003
vn -0.604227 -0.770953 -0.20134999999999995
vn -0.715787 -0.616113 0.32871600000000006
vn -0.059218 0.07488500000000005 0.995432
vn 0.585477 0.42914100000000005 0.68779
vn -0.23458 0.584079 0.777061
vn -0.697799 -0.017199999999999955 0.716087
vn 0.114763 0.927441 0.35592399999999996
vn 0.372164 0.509165 0.776044
vn 0.776885 0.16828000000000004 0.606739
vn 0.372164 0.509165 0.776044
vn 0.482142 -0.12851599999999994 0.866616
vn 0.175173 -0.701497 0.690808
vn -0.137214 -0.26530599999999993 0.954351
g Eagle_Nest_01
f 229/229/229 231/231/231 232/232/232
f 232/232/232 230/230/230 229/229/229
f 225/225/225 227/227/227 228/228/228
f 228/228/228 226/226/226 225/225/225
f 221/221/221 223/223/223 224/224/224
f 224/224/224 222/222/222 221/221/221
f 217/217/217 219/219/219 220/220/220
f 220/220/220 218/218/218 217/217/217
f 208/208/208 305/305/305 298/298/298
f 298/298/298 201/201/201 208/208/208
f 207/207/207 304/304/304 305/305/305
f 305/305/305 208/208/208 207/207/207
f 206/206/206 303/303/303 304/304/304
f 304/304/304 207/207/207 206/206/206
f 205/205/205 301/301/301 303/303/303
f 303/303/303 206/206/206 205/205/205
f 296/296/296 302/302/302 301/301/301
f 301/301/301 205/205/205 296/296/296
f 203/203/203 299/299/299 300/300/300
f 300/300/300 204/204/204 203/203/203
f 202/202/202 297/297/297 299/299/299
f 299/299/299 203/203/203 202/202/202
f 201/201/201 298/298/298 297/297/297
f 297/297/297 202/202/202 201/201/201
f 200/200/200 208/208/208 201/201/201
f 201/201/201 193/193/193 200/200/200
f 199/199/199 207/207/207 208/208/208
f 208/208/208 200/200/200 199/199/199
f 198/198/198 206/206/206 207/207/207
f 207/207/207 199/199/199 198/198/198
f 197/197/197 205/205/205 206/206/206
f 206/206/206 198/198/198 197/197/197
f 295/295/295 296/296/296 205/205/205
f 205/205/205 197/197/197 295/295/295
f 195/195/195 203/203/203 204/204/204
f 204/204/204 196/196/196 195/195/195
f 194/194/194 202/202/202 203/203/203
f 203/203/203 195/195/195 194/194/194
f 193/193/193 201/201/201 202/202/202
f 202/202/202 194/194/194 193/193/193
f 192/192/192 200/200/200 193/193/193
f 193/193/193 185/185/185 192/192/192
f 191/191/191 199/199/199 200/200/200
f 200/200/200 192/192/192 191/191/191
f 190/190/190 198/198/198 199/199/199
f 199/199/199 191/191/191 190/190/190
f 190/190/190 189/189/189 197/197/197
f 197/197/197 198/198/198 190/190/190
f 294/294/294 295/295/295 197/197/197
f 197/197/197 189/189/189 294/294/294
f 187/187/187 195/195/195 196/196/196
f 196/196/196 188/188/188 187/187/187
f 186/186/186 194/194/194 195/195/195
f 195/195/195 187/187/187 186/186/186
f 186/186/186 185/185/185 193/193/193
f 193/193/193 194/194/194 186/186/186
f 216/216/216 210/210/210 209/209/209
f 216/216/216 212/212/212 210/210/210
f 216/216/216 214/214/214 212/212/212
f 216/216/216 215/215/215 214/214/214
f 214/214/214 213/213/213 212/212/212
f 212/212/212 211/211/211 210/210/210
f 184/184/184 192/192/192 185/185/185
f 185/185/185 177/177/177 184/184/184
f 183/183/183 191/191/191 192/192/192
f 192/192/192 184/184/184 183/183/183
f 182/182/182 190/190/190 191/191/191
f 191/191/191 183/183/183 182/182/182
f 181/181/181 189/189/189 190/190/190
f 190/190/190 182/182/182 181/181/181
f 293/293/293 294/294/294 189/189/189
f 189/189/189 181/181/181 293/293/293
f 179/179/179 187/187/187 188/188/188
f 188/188/188 180/180/180 179/179/179
f 178/178/178 186/186/186 187/187/187
f 187/187/187 179/179/179 178/178/178
f 177/177/177 185/185/185 186/186/186
f 186/186/186 178/178/178 177/177/177
f 176/176/176 167/167/167 168/168/168
f 292/292/292 168/168/168 170/170/170
f 176/176/176 290/290/290 167/167/167
f 175/175/175 171/171/171 289/289/289
f 291/291/291 173/173/173 174/174/174
f 291/291/291 174/174/174 172/172/172
f 175/175/175 172/172/172 171/171/171
f 171/171/171 167/167/167 290/290/290
f 290/290/290 289/289/289 171/171/171
f 173/173/173 169/169/169 170/170/170
f 170/170/170 174/174/174 173/173/173
f 174/174/174 170/170/170 168/168/168
f 168/168/168 172/172/172 174/174/174
f 172/172/172 168/168/168 167/167/167
f 167/167/167 171/171/171 172/172/172
f 288/288/288 158/158/158 160/160/160
f 288/288/288 160/160/160 159/159/159
f 166/166/166 286/286/286 157/157/157
f 165/165/165 161/161/161 285/285/285
f 287/287/287 163/163/163 164/164/164
f 287/287/287 164/164/164 162/162/162
f 165/165/165 162/162/162 161/161/161
f 161/161/161 157/157/157 286/286/286
f 286/286/286 285/285/285 161/161/161
f 163/163/163 159/159/159 160/160/160
f 160/160/160 164/164/164 163/163/163
f 164/164/164 160/160/160 158/158/158
f 158/158/158 162/162/162 164/164/164
f 156/156/156 147/147/147 148/148/148
f 284/284/284 148/148/148 150/150/150
f 156/156/156 282/282/282 147/147/147
f 155/155/155 151/151/151 281/281/281
f 283/283/283 153/153/153 154/154/154
f 283/283/283 154/154/154 152/152/152
f 155/155/155 152/152/152 151/151/151
f 151/151/151 147/147/147 282/282/282
f 282/282/282 281/281/281 151/151/151
f 153/153/153 149/149/149 150/150/150
f 150/150/150 154/154/154 153/153/153
f 154/154/154 150/150/150 148/148/148
f 148/148/148 152/152/152 154/154/154
f 152/152/152 148/148/148 147/147/147
f 147/147/147 151/151/151 152/152/152
f 280/280/280 138/138/138 140/140/140
f 280/280/280 140/140/140 139/139/139
f 146/146/146 278/278/278 137/137/137
f 145/145/145 141/141/141 277/277/277
f 279/279/279 143/143/143 144/144/144
f 279/279/279 144/144/144 142/142/142
f 145/145/145 142/142/142 141/141/141
f 141/141/141 137/137/137 278/278/278
f 278/278/278 277/277/277 141/141/141
f 143/143/143 139/139/139 140/140/140
f 140/140/140 144/144/144 143/143/143
f 144/144/144 140/140/140 138/138/138
f 138/138/138 142/142/142 144/144/144
f 276/276/276 275/275/275 133/133/133
f 133/133/133 136/136/136 276/276/276
f 136/136/136 133/133/133 132/132/132
f 132/132/132 135/135/135 136/136/136
f 135/135/135 132/132/132 131/131/131
f 131/131/131 134/134/134 135/135/135
f 275/275/275 274/274/274 130/130/130
f 130/130/130 133/133/133 275/275/275
f 133/133/133 130/130/130 129/129/129
f 129/129/129 132/132/132 133/133/133
f 132/132/132 129/129/129 128/128/128
f 128/128/128 131/131/131 132/132/132
f 274/274/274 272/272/272 127/127/127
f 127/127/127 130/130/130 274/274/274
f 130/130/130 127/127/127 126/126/126
f 126/126/126 129/129/129 130/130/130
f 129/129/129 126/126/126 125/125/125
f 125/125/125 128/128/128 129/129/129
f 272/272/272 273/273/273 124/124/124
f 124/124/124 127/127/127 272/272/272
f 127/127/127 124/124/124 123/123/123
f 123/123/123 126/126/126 127/127/127
f 126/126/126 123/123/123 122/122/122
f 122/122/122 125/125/125 126/126/126
f 271/271/271 270/270/270 118/118/118
f 118/118/118 121/121/121 271/271/271
f 121/121/121 118/118/118 117/117/117
f 117/117/117 120/120/120 121/121/121
f 120/120/120 117/117/117 116/116/116
f 116/116/116 119/119/119 120/120/120
f 270/270/270 269/269/269 115/115/115
f 115/115/115 118/118/118 270/270/270
f 118/118/118 115/115/115 114/114/114
f 114/114/114 117/117/117 118/118/118
f 117/117/117 114/114/114 113/113/113
f 113/113/113 116/116/116 117/117/117
f 269/269/269 267/267/267 112/112/112
f 112/112/112 115/115/115 269/269/269
f 115/115/115 112/112/112 111/111/111
f 111/111/111 114/114/114 115/115/115
f 114/114/114 111/111/111 110/110/110
f 110/110/110 113/113/113 114/114/114
f 267/267/267 268/268/268 109/109/109
f 109/109/109 112/112/112 267/267/267
f 112/112/112 109/109/109 108/108/108
f 108/108/108 111/111/111 112/112/112
f 111/111/111 108/108/108 107/107/107
f 107/107/107 110/110/110 111/111/111
f 266/266/266 265/265/265 103/103/103
f 103/103/103 106/106/106 266/266/266
f 106/106/106 103/103/103 102/102/102
f 102/102/102 105/105/105 106/106/106
f 105/105/105 102/102/102 101/101/101
f 101/101/101 104/104/104 105/105/105
f 265/265/265 263/263/263 100/100/100
f 100/100/100 103/103/103 265/265/265
f 103/103/103 100/100/100 99/99/99
f 99/99/99 102/102/102 103/103/103
f 102/102/102 99/99/99 98/98/98
f 98/98/98 101/101/101 102/102/102
f 263/263/263 264/264/264 97/97/97
f 97/97/97 100/100/100 263/263/263
f 100/100/100 97/97/97 96/96/96
f 96/96/96 99/99/99 100/100/100
f 99/99/99 96/96/96 95/95/95
f 95/95/95 98/98/98 99/99/99
f 262/262/262 261/261/261 88/88/88
f 260/260/260 258/258/258 93/93/93
f 94/94/94 93/93/93 92/92/92
f 94/94/94 92/92/92 91/91/91
f 258/258/258 259/259/259 90/90/90
f 90/90/90 93/93/93 258/258/258
f 93/93/93 90/90/90 89/89/89
f 89/89/89 92/92/92 93/93/93
f 92/92/92 89/89/89 88/88/88
f 88/88/88 91/91/91 92/92/92
f 87/87/87 257/257/257 86/86/86
f 87/87/87 86/86/86 85/85/85
f 87/87/87 85/85/85 84/84/84
f 257/257/257 255/255/255 83/83/83
f 83/83/83 86/86/86 257/257/257
f 86/86/86 83/83/83 82/82/82
f 82/82/82 85/85/85 86/86/86
f 85/85/85 82/82/82 81/81/81
f 81/81/81 84/84/84 85/85/85
f 255/255/255 256/256/256 80/80/80
f 80/80/80 83/83/83 255/255/255
f 83/83/83 80/80/80 79/79/79
f 79/79/79 82/82/82 83/83/83
f 82/82/82 79/79/79 78/78/78
f 78/78/78 81/81/81 82/82/82
f 77/77/77 254/254/254 76/76/76
f 77/77/77 76/76/76 75/75/75
f 77/77/77 75/75/75 74/74/74
f 77/77/77 74/74/74 73/73/73
f 254/254/254 252/252/252 72/72/72
f 72/72/72 76/76/76 254/254/254
f 76/76/76 72/72/72 71/71/71
f 71/71/71 75/75/75 76/76/76
f 75/75/75 71/71/71 70/70/70
f 70/70/70 74/74/74 75/75/75
f 74/74/74 70/70/70 69/69/69
f 69/69/69 73/73/73 74/74/74
f 252/252/252 253/253/253 68/68/68
f 68/68/68 72/72/72 252/252/252
f 72/72/72 68/68/68 67/67/67
f 67/67/67 71/71/71 72/72/72
f 71/71/71 67/67/67 66/66/66
f 66/66/66 70/70/70 71/71/71
f 70/70/70 66/66/66 65/65/65
f 65/65/65 69/69/69 70/70/70
f 64/64/64 251/251/251 63/63/63
f 64/64/64 63/63/63 62/62/62
f 64/64/64 62/62/62 61/61/61
f 64/64/64 61/61/61 60/60/60
f 251/251/251 250/250/250 59/59/59
f 59/59/59 63/63/63 251/251/251
f 63/63/63 59/59/59 58/58/58
f 58/58/58 62/62/62 63/63/63
f 62/62/62 58/58/58 57/57/57
f 57/57/57 61/61/61 62/62/62
f 61/61/61 57/57/57 56/56/56
f 56/56/56 60/60/60 61/61/61
f 250/250/250 248/248/248 55/55/55
f 55/55/55 59/59/59 250/250/250
f 59/59/59 55/55/55 54/54/54
f 54/54/54 58/58/58 59/59/59
f 58/58/58 54/54/54 53/53/53
f 53/53/53 57/57/57 58/58/58
f 57/57/57 53/53/53 52/52/52
f 52/52/52 56/56/56 57/57/57
f 248/248/248 249/249/249 51/51/51
f 51/51/51 55/55/55 248/248/248
f 55/55/55 51/51/51 50/50/50
f 50/50/50 54/54/54 55/55/55
f 54/54/54 50/50/50 49/49/49
f 49/49/49 53/53/53 54/54/54
f 53/53/53 49/49/49 48/48/48
f 48/48/48 52/52/52 53/53/53
f 47/47/47 247/247/247 46/46/46
f 47/47/47 46/46/46 45/45/45
f 47/47/47 45/45/45 44/44/44
f 47/47/47 44/44/44 43/43/43
f 247/247/247 246/246/246 42/42/42
f 42/42/42 46/46/46 247/247/247
f 46/46/46 42/42/42 41/41/41
f 41/41/41 45/45/45 46/46/46
f 45/45/45 41/41/41 40/40/40
f 40/40/40 44/44/44 45/45/45
f 44/44/44 40/40/40 39/39/39
f 39/39/39 43/43/43 44/44/44
f 246/246/246 244/244/244 38/38/38
f 38/38/38 42/42/42 246/246/246
f 42/42/42 38/38/38 37/37/37
f 37/37/37 41/41/41 42/42/42
f 41/41/41 37/37/37 36/36/36
f 36/36/36 40/40/40 41/41/41
f 40/40/40 36/36/36 35/35/35
f 35/35/35 39/39/39 40/40/40
f 244/244/244 245/245/245 34/34/34
f 34/34/34 38/38/38 244/244/244
f 38/38/38 34/34/34 33/33/33
f 33/33/33 37/37/37 38/38/38
f 37/37/37 33/33/33 32/32/32
f 32/32/32 36/36/36 37/37/37
f 36/36/36 32/32/32 31/31/31
f 31/31/31 35/35/35 36/36/36
f 243/243/243 242/242/242 238/238/238
f 242/242/242 241/241/241 238/238/238
f 241/241/241 240/240/240 238/238/238
f 240/240/240 239/239/239 238/238/238
f 237/237/237 236/236/236 23/23/23
f 23/23/23 30/30/30 237/237/237
f 30/30/30 23/23/23 22/22/22
f 22/22/22 29/29/29 30/30/30
f 29/29/29 22/22/22 21/21/21
f 21/21/21 28/28/28 29/29/29
f 28/28/28 21/21/21 20/20/20
f 20/20/20 27/27/27 28/28/28
f 27/27/27 20/20/20 19/19/19
f 19/19/19 26/26/26 27/27/27
f 26/26/26 19/19/19 24/24/24
f 24/24/24 25/25/25 26/26/26
f 236/236/236 235/235/235 17/17/17
f 17/17/17 23/23/23 236/236/236
f 23/23/23 17/17/17 16/16/16
f 16/16/16 22/22/22 23/23/23
f 22/22/22 16/16/16 15/15/15
f 15/15/15 21/21/21 22/22/22
f 21/21/21 15/15/15 14/14/14
f 14/14/14 20/20/20 21/21/21
f 20/20/20 14/14/14 13/13/13
f 13/13/13 19/19/19 20/20/20
f 19/19/19 13/13/13 18/18/18
f 18/18/18 24/24/24 19/19/19
f 12/12/12 17/17/17 235/235/235
f 235/235/235 233/233/233 12/12/12
f 11/11/11 16/16/16 17/17/17
f 17/17/17 12/12/12 11/11/11
f 10/10/10 15/15/15 16/16/16
f 16/16/16 11/11/11 10/10/10
f 9/9/9 14/14/14 15/15/15
f 15/15/15 10/10/10 9/9/9
f 8/8/8 13/13/13 14/14/14
f 14/14/14 9/9/9 8/8/8
f 7/7/7 18/18/18 13/13/13
f 13/13/13 8/8/8 7/7/7
f 233/233/233 234/234/234 6/6/6
f 6/6/6 12/12/12 233/233/233
f 12/12/12 6/6/6 5/5/5
f 5/5/5 11/11/11 12/12/12
f 11/11/11 5/5/5 4/4/4
f 4/4/4 10/10/10 11/11/11
f 10/10/10 4/4/4 3/3/3
f 3/3/3 9/9/9 10/10/10
f 9/9/9 3/3/3 2/2/2
f 2/2/2 8/8/8 9/9/9
f 8/8/8 2/2/2 1/1/1
f 1/1/1 7/7/7 8/8/8
