v 0.06065849999999999 5.537167023536808e-18 0.09042879999999999
v 0.2033402 8.059933306546361e-18 0.1316287
v 0.1764497 0.10035619999999999 0.1316287
v 0.0528836 0.029015000000000003 0.09042879999999999
v 0.0528836 0.029015000000000003 0.09042879999999999
v 0.1764497 0.10035619999999999 0.1316287
v 0.10298399999999999 0.1738219 0.1316287
v 0.0316428 0.0502558 0.09042879999999999
v 0.0316428 0.0502558 0.09042879999999999
v 0.10298399999999999 0.1738219 0.1316287
v 0.0026278 0.20071239999999999 0.1316287
v 0.0026278 0.058030000000000005 0.09042879999999999
v 0.0026278 0.058030000000000005 0.09042879999999999
v 0.0026278 0.20071239999999999 0.1316287
v -0.0977277 0.1738219 0.1316287
v -0.0263872 0.0502558 0.09042879999999999
v -0.0263872 0.0502558 0.09042879999999999
v -0.0977277 0.1738219 0.1316287
v -0.1711934 0.10035619999999999 0.1316287
v -0.0476273 0.029015000000000003 0.09042879999999999
v -0.0476273 0.029015000000000003 0.09042879999999999
v -0.1711934 0.10035619999999999 0.1316287
v -0.19808389999999998 8.059933306546361e-18 0.1316287
v -0.05540219999999999 5.537167023536808e-18 0.09042879999999999
v -0.05540219999999999 5.537167023536808e-18 0.09042879999999999
v -0.19808389999999998 8.059933306546361e-18 0.1316287
v -0.1711934 -0.10035619999999999 0.1316287
v -0.0476273 -0.029014999999999992 0.09042879999999999
v -0.0476273 -0.029014999999999992 0.09042879999999999
v -0.1711934 -0.10035619999999999 0.1316287
v -0.0977277 -0.1738219 0.13162870000000002
v -0.0263872 -0.05025579999999998 0.09042879999999999
v -0.0263872 -0.05025579999999998 0.09042879999999999
v -0.0977277 -0.1738219 0.13162870000000002
v 0.0026278 -0.20071239999999999 0.13162870000000002
v 0.0026278 -0.058029999999999984 0.09042879999999999
v 0.0026278 -0.058029999999999984 0.09042879999999999
v 0.0026278 -0.20071239999999999 0.13162870000000002
v 0.10298399999999999 -0.1738219 0.13162870000000002
v 0.0316435 -0.05025579999999998 0.09042879999999999
v 0.0316435 -0.05025579999999998 0.09042879999999999
v 0.10298399999999999 -0.1738219 0.13162870000000002
v 0.1764497 -0.10035619999999999 0.1316287
v 0.0528836 -0.029014999999999992 0.09042879999999999
v 0.0528836 -0.029014999999999992 0.09042879999999999
v 0.1764497 -0.10035619999999999 0.1316287
v 0.2033402 8.059933306546361e-18 0.1316287
v 0.06065849999999999 5.537167023536808e-18 0.09042879999999999
v 0.2033402 8.059933306546361e-18 0.1316287
v 0.21202439999999997 3.500891681488542e-18 0.05717389999999999
v 0.1839705 0.1046983 0.057173899999999986
v 0.1764497 0.10035619999999999 0.1316287
v 0.1764497 0.10035619999999999 0.1316287
v 0.1839705 0.1046983 0.057173899999999986
v 0.10732609999999998 0.18134269999999997 0.057173899999999986
v 0.10298399999999999 0.1738219 0.1316287
v 0.10298399999999999 0.1738219 0.1316287
v 0.10732609999999998 0.18134269999999997 0.057173899999999986
v 0.0026278 0.20939589999999997 0.057173899999999986
v 0.0026278 0.20071239999999999 0.1316287
v 0.0026278 0.20071239999999999 0.1316287
v 0.0026278 0.20939589999999997 0.057173899999999986
v -0.10206979999999999 0.181342 0.057173899999999986
v -0.0977277 0.1738219 0.1316287
v -0.0977277 0.1738219 0.1316287
v -0.10206979999999999 0.181342 0.057173899999999986
v -0.17871419999999996 0.1046983 0.057173899999999986
v -0.1711934 0.10035619999999999 0.1316287
v -0.1711934 0.10035619999999999 0.1316287
v -0.17871419999999996 0.1046983 0.057173899999999986
v -0.20676809999999998 3.500891681488542e-18 0.05717389999999999
v -0.19808389999999998 8.059933306546361e-18 0.1316287
v -0.19808389999999998 8.059933306546361e-18 0.1316287
v -0.20676809999999998 3.500891681488542e-18 0.05717389999999999
v -0.17871419999999996 -0.1046983 0.05717390000000001
v -0.1711934 -0.10035619999999999 0.1316287
v -0.1711934 -0.10035619999999999 0.1316287
v -0.17871419999999996 -0.1046983 0.05717390000000001
v -0.10206979999999999 -0.181342 0.05717390000000001
v -0.0977277 -0.1738219 0.13162870000000002
v -0.0977277 -0.1738219 0.13162870000000002
v -0.10206979999999999 -0.181342 0.05717390000000001
v 0.0026278 -0.20939589999999997 0.05717390000000001
v 0.0026278 -0.20071239999999999 0.13162870000000002
v 0.0026278 -0.20071239999999999 0.13162870000000002
v 0.0026278 -0.20939589999999997 0.05717390000000001
v 0.10732609999999998 -0.181342 0.05717390000000001
v 0.10298399999999999 -0.1738219 0.13162870000000002
v 0.10298399999999999 -0.1738219 0.13162870000000002
v 0.10732609999999998 -0.181342 0.05717390000000001
v 0.1839705 -0.1046983 0.05717390000000001
v 0.1764497 -0.10035619999999999 0.1316287
v 0.1764497 -0.10035619999999999 0.1316287
v 0.1839705 -0.1046983 0.05717390000000001
v 0.21202439999999997 3.500891681488542e-18 0.05717389999999999
v 0.2033402 8.059933306546361e-18 0.1316287
v 0.21202439999999997 3.500891681488542e-18 0.05717389999999999
v 0.2423876 1.0972835320360284e-20 0.0001792
v 0.21026599999999998 0.11987989999999998 0.00017919999999999265
v 0.1839705 0.1046983 0.057173899999999986
v 0.1839705 0.1046983 0.057173899999999986
v 0.21026599999999998 0.11987989999999998 0.00017919999999999265
v 0.1225077 0.2076375 0.00017919999999998728
v 0.10732609999999998 0.18134269999999997 0.057173899999999986
v 0.10732609999999998 0.18134269999999997 0.057173899999999986
v 0.1225077 0.2076375 0.00017919999999998728
v 0.0026278 0.2397591 0.0001791999999999853
v 0.0026278 0.20939589999999997 0.057173899999999986
v 0.0026278 0.20939589999999997 0.057173899999999986
v 0.0026278 0.2397591 0.0001791999999999853
v -0.1172514 0.2076375 0.00017919999999998728
v -0.10206979999999999 0.181342 0.057173899999999986
v -0.10206979999999999 0.181342 0.057173899999999986
v -0.1172514 0.2076375 0.00017919999999998728
v -0.2050097 0.11987989999999998 0.00017919999999999265
v -0.17871419999999996 0.1046983 0.057173899999999986
v -0.17871419999999996 0.1046983 0.057173899999999986
v -0.2050097 0.11987989999999998 0.00017919999999999265
v -0.23713129999999996 1.0972835320360284e-20 0.0001792
v -0.20676809999999998 3.500891681488542e-18 0.05717389999999999
v -0.20676809999999998 3.500891681488542e-18 0.05717389999999999
v -0.23713129999999996 1.0972835320360284e-20 0.0001792
v -0.2050097 -0.11987989999999998 0.0001792000000000073
v -0.17871419999999996 -0.1046983 0.05717390000000001
v -0.17871419999999996 -0.1046983 0.05717390000000001
v -0.2050097 -0.11987989999999998 0.0001792000000000073
v -0.1172514 -0.2076375 0.0001792000000000127
v -0.10206979999999999 -0.181342 0.05717390000000001
v -0.10206979999999999 -0.181342 0.05717390000000001
v -0.1172514 -0.2076375 0.0001792000000000127
v 0.0026278 -0.2397591 0.00017920000000001466
v 0.0026278 -0.20939589999999997 0.05717390000000001
v 0.0026278 -0.20939589999999997 0.05717390000000001
v 0.0026278 -0.2397591 0.00017920000000001466
v 0.1225077 -0.2076375 0.0001792000000000127
v 0.10732609999999998 -0.181342 0.05717390000000001
v 0.10732609999999998 -0.181342 0.05717390000000001
v 0.1225077 -0.2076375 0.0001792000000000127
v 0.21026599999999998 -0.11987989999999998 0.0001792000000000073
v 0.1839705 -0.1046983 0.05717390000000001
v 0.1839705 -0.1046983 0.05717390000000001
v 0.21026599999999998 -0.11987989999999998 0.0001792000000000073
v 0.2423876 1.0972835320360284e-20 0.0001792
v 0.21202439999999997 3.500891681488542e-18 0.05717389999999999
vt 0.594646 0.791617
vt 0.969079 0.795722
vt 0.969079 0.705650
vt 0.594129 0.702735
vt 0.592353 0.696030
vt 0.970931 0.700684
vt 0.970931 0.604574
vt 0.592353 0.604051
vt 0.592179 0.594795
vt 0.971375 0.601171
vt 0.971375 0.501534
vt 0.589833 0.506346
vt 0.596414 0.887458
vt 0.970425 0.887709
vt 0.970425 0.806671
vt 0.596414 0.800238
vt 0.593620 0.696457
vt 0.970664 0.699117
vt 0.970664 0.606057
vt 0.593620 0.606524
vt 0.595534 0.979856
vt 0.970262 0.979838
vt 0.970262 0.903070
vt 0.595534 0.902591
vt 0.597122 0.885672
vt 0.970746 0.893990
vt 0.970746 0.804480
vt 0.596397 0.800472
vt 0.594331 0.793067
vt 0.969918 0.795996
vt 0.970644 0.704589
vt 0.594331 0.704025
vt 0.592966 0.696360
vt 0.970557 0.700943
vt 0.971282 0.604855
vt 0.592537 0.604564
vt 0.592303 0.595550
vt 0.972149 0.600761
vt 0.970699 0.502669
vt 0.590586 0.506297
vt 0.595569 0.978985
vt 0.971815 0.979683
vt 0.971815 0.902990
vt 0.593976 0.901816
vt 0.596678 0.885991
vt 0.970062 0.893275
vt 0.970062 0.803645
vt 0.596065 0.800732
vt 0.295865 0.425503
vt 0.296583 0.574857
vt 0.206242 0.574857
vt 0.205793 0.425503
vt 0.200827 0.427356
vt 0.201358 0.573728
vt 0.104880 0.573728
vt 0.104717 0.427356
vt 0.101313 0.427799
vt 0.101313 0.572571
vt 0.001677 0.572571
vt 0.001677 0.427799
vt 0.387852 0.426849
vt 0.389209 0.573407
vt 0.308172 0.574765
vt 0.306814 0.426849
vt 0.199260 0.427088
vt 0.199260 0.574902
vt 0.104946 0.572186
vt 0.106199 0.427088
vt 0.479980 0.426687
vt 0.478161 0.576020
vt 0.405599 0.576020
vt 0.403213 0.426687
vt 0.394133 0.427171
vt 0.392314 0.575182
vt 0.308604 0.575182
vt 0.304623 0.427171
vt 0.296139 0.426343
vt 0.296791 0.573652
vt 0.205891 0.573652
vt 0.204731 0.427068
vt 0.201085 0.426982
vt 0.200644 0.574943
vt 0.105137 0.574001
vt 0.104998 0.427707
vt 0.100904 0.428574
vt 0.102209 0.573698
vt 0.000781 0.573698
vt 0.002811 0.427124
vt 0.479825 0.428239
vt 0.478215 0.576464
vt 0.402870 0.575297
vt 0.403133 0.428239
vt 0.393418 0.426487
vt 0.392431 0.575810
vt 0.304775 0.575810
vt 0.303787 0.426487
vt 0.295268 0.895960
vt 0.265949 0.989808
vt 0.221411 0.989808
vt 0.204927 0.895960
vt 0.200043 0.894830
vt 0.173460 0.987629
vt 0.128923 0.987629
vt 0.103565 0.894830
vt 0.099999 0.893673
vt 0.083881 0.985914
vt 0.016480 0.985914
vt 0.000362 0.893673
vt 0.387895 0.894509
vt 0.363005 0.991842
vt 0.318169 0.991842
vt 0.306857 0.895867
vt 0.197945 0.896004
vt 0.168632 0.987499
vt 0.126156 0.990214
vt 0.103631 0.893289
vt 0.476846 0.897122
vt 0.461627 0.991454
vt 0.417698 0.992396
vt 0.404284 0.897122
vt 0.390999 0.896284
vt 0.362455 0.990733
vt 0.319025 0.990733
vt 0.307289 0.896284
vt 0.295476 0.894755
vt 0.265123 0.991149
vt 0.221735 0.991149
vt 0.204577 0.894755
vt 0.199329 0.896046
vt 0.171915 0.987287
vt 0.127545 0.987287
vt 0.103822 0.895103
vt 0.100894 0.894800
vt 0.083671 0.985717
vt 0.017553 0.986659
vt -0.000534 0.894800
vt 0.476900 0.897566
vt 0.463133 0.991227
vt 0.415323 0.991227
vt 0.401556 0.896399
vt 0.391116 0.896912
vt 0.364788 0.991342
vt 0.318120 0.991342
vt 0.303460 0.896912
vn -0.277336 -0.024770999999999942 0.960454
vn -0.277336 0.02477100000000006 0.960454
vn -0.252565 -0.11721599999999995 0.960454
vn -0.227794 -0.16011999999999996 0.960454
vn -0.227794 -0.16011999999999996 0.960454
vn -0.252565 -0.11721599999999995 0.960454
vn -0.16012 -0.22779399999999994 0.960454
vn -0.117216 -0.25256499999999993 0.960454
vn -0.117216 -0.25256499999999993 0.960454
vn -0.16012 -0.22779399999999994 0.960454
vn -0.02477 -0.27733599999999997 0.960454
vn 0.024771 -0.27733599999999997 0.960454
vn 0.024771 -0.27733599999999997 0.960454
vn -0.02477 -0.27733599999999997 0.960454
vn 0.117216 -0.25256499999999993 0.960454
vn 0.16012 -0.22779399999999994 0.960454
vn 0.16012 -0.22779399999999994 0.960454
vn 0.117216 -0.25256499999999993 0.960454
vn 0.227794 -0.16011999999999996 0.960454
vn 0.252565 -0.11721599999999995 0.960454
vn 0.252565 -0.11721599999999995 0.960454
vn 0.227794 -0.16011999999999996 0.960454
vn 0.277336 -0.024770999999999942 0.960454
vn 0.277336 0.02477100000000006 0.960454
vn 0.277336 0.02477100000000006 0.960454
vn 0.277336 -0.024770999999999942 0.960454
vn 0.252565 0.11721600000000006 0.960454
vn 0.227794 0.16012000000000007 0.960454
vn 0.227794 0.16012000000000007 0.960454
vn 0.252565 0.11721600000000006 0.960454
vn 0.16012 0.22779400000000005 0.960454
vn 0.117216 0.25256500000000004 0.960454
vn 0.117216 0.25256500000000004 0.960454
vn 0.16012 0.22779400000000005 0.960454
vn 0.024771 0.2773360000000001 0.960454
vn -0.024771 0.2773360000000001 0.960454
vn -0.024771 0.2773360000000001 0.960454
vn 0.024771 0.2773360000000001 0.960454
vn -0.117216 0.25256500000000004 0.960454
vn -0.16012 0.22779400000000005 0.960454
vn -0.16012 0.22779400000000005 0.960454
vn -0.117216 0.25256500000000004 0.960454
vn -0.227794 0.16012000000000007 0.960454
vn -0.252565 0.11721600000000006 0.960454
vn -0.252565 0.11721600000000006 0.960454
vn -0.227794 0.16012000000000007 0.960454
vn -0.277336 0.02477100000000006 0.960454
vn -0.277336 -0.024770999999999942 0.960454
vn 0.989381 0.08836800000000002 0.115396
vn 0.989381 -0.08836799999999999 0.115396
vn 0.901013 0.418162 0.11539599999999997
vn 0.812645 0.57122 0.11539599999999996
vn 0.812645 0.57122 0.11539599999999996
vn 0.901013 0.418162 0.11539599999999997
vn 0.571219 0.812646 0.11539599999999994
vn 0.418161 0.901013 0.11539599999999994
vn 0.418161 0.901013 0.11539599999999994
vn 0.571219 0.812646 0.11539599999999994
vn 0.088367 0.989381 0.11539599999999994
vn -0.088368 0.989381 0.11539599999999994
vn -0.088368 0.989381 0.11539599999999994
vn 0.088367 0.989381 0.11539599999999994
vn -0.418162 0.901013 0.11539599999999994
vn -0.57122 0.812645 0.11539599999999994
vn -0.57122 0.812645 0.11539599999999994
vn -0.418162 0.901013 0.11539599999999994
vn -0.812645 0.571219 0.11539599999999996
vn -0.901013 0.418161 0.11539599999999997
vn -0.901013 0.418161 0.11539599999999997
vn -0.812645 0.571219 0.11539599999999996
vn -0.989381 0.08836800000000002 0.115396
vn -0.989381 -0.08836799999999999 0.115396
vn -0.989381 -0.08836799999999999 0.115396
vn -0.989381 0.08836800000000002 0.115396
vn -0.901013 -0.418162 0.11539600000000003
vn -0.812645 -0.571219 0.11539600000000004
vn -0.812645 -0.571219 0.11539600000000004
vn -0.901013 -0.418162 0.11539600000000003
vn -0.571219 -0.812645 0.11539600000000005
vn -0.418162 -0.901013 0.11539600000000005
vn -0.418162 -0.901013 0.11539600000000005
vn -0.571219 -0.812645 0.11539600000000005
vn -0.088368 -0.989381 0.11539600000000005
vn 0.088368 -0.989381 0.11539600000000005
vn 0.088368 -0.989381 0.11539600000000005
vn -0.088368 -0.989381 0.11539600000000005
vn 0.418162 -0.901013 0.11539600000000005
vn 0.571219 -0.812645 0.11539600000000005
vn 0.571219 -0.812645 0.11539600000000005
vn 0.418162 -0.901013 0.11539600000000005
vn 0.812645 -0.571219 0.11539600000000004
vn 0.901013 -0.418162 0.11539600000000003
vn 0.901013 -0.418162 0.11539600000000003
vn 0.812645 -0.571219 0.11539600000000004
vn 0.989381 -0.08836799999999999 0.115396
vn 0.989381 0.08836800000000002 0.115396
vn 0.879842 0.07858400000000003 0.468725
vn 0.879842 -0.07858399999999997 0.468725
vn 0.801257 0.37186500000000006 0.468725
vn 0.722673 0.507977 0.46872499999999995
vn 0.722673 0.507977 0.46872499999999995
vn 0.801257 0.37186500000000006 0.468725
vn 0.507976 0.722673 0.46872499999999995
vn 0.371864 0.801258 0.46872499999999995
vn 0.371864 0.801258 0.46872499999999995
vn 0.507976 0.722673 0.46872499999999995
vn 0.078584 0.879842 0.46872499999999995
vn -0.078585 0.879842 0.46872499999999995
vn -0.078585 0.879842 0.46872499999999995
vn 0.078584 0.879842 0.46872499999999995
vn -0.371865 0.801257 0.46872499999999995
vn -0.507977 0.722673 0.46872499999999995
vn -0.507977 0.722673 0.46872499999999995
vn -0.371865 0.801257 0.46872499999999995
vn -0.722673 0.507977 0.46872499999999995
vn -0.801257 0.37186500000000006 0.468725
vn -0.801257 0.37186500000000006 0.468725
vn -0.722673 0.507977 0.46872499999999995
vn -0.879842 0.07858400000000003 0.468725
vn -0.879842 -0.07858399999999997 0.468725
vn -0.879842 -0.07858399999999997 0.468725
vn -0.879842 0.07858400000000003 0.468725
vn -0.801257 -0.37186499999999995 0.468725
vn -0.722673 -0.507977 0.46872500000000006
vn -0.722673 -0.507977 0.46872500000000006
vn -0.801257 -0.37186499999999995 0.468725
vn -0.507977 -0.722673 0.46872500000000006
vn -0.371865 -0.801257 0.46872500000000006
vn -0.371865 -0.801257 0.46872500000000006
vn -0.507977 -0.722673 0.46872500000000006
vn -0.078584 -0.879842 0.46872500000000006
vn 0.078584 -0.879842 0.46872500000000006
vn 0.078584 -0.879842 0.46872500000000006
vn -0.078584 -0.879842 0.46872500000000006
vn 0.371865 -0.801257 0.46872500000000006
vn 0.507977 -0.722673 0.46872500000000006
vn 0.507977 -0.722673 0.46872500000000006
vn 0.371865 -0.801257 0.46872500000000006
vn 0.722673 -0.507977 0.46872500000000006
vn 0.801257 -0.37186499999999995 0.468725
vn 0.801257 -0.37186499999999995 0.468725
vn 0.722673 -0.507977 0.46872500000000006
vn 0.879842 -0.07858399999999997 0.468725
vn 0.879842 0.07858400000000003 0.468725
g SDFSDF
f 1/1/1 2/2/2 3/3/3
f 3/3/3 4/4/4 1/1/1
f 5/5/5 6/6/6 7/7/7
f 7/7/7 8/8/8 5/5/5
f 9/9/9 10/10/10 11/11/11
f 11/11/11 12/12/12 9/9/9
f 13/13/13 14/14/14 15/15/15
f 15/15/15 16/16/16 13/13/13
f 17/17/17 18/18/18 19/19/19
f 19/19/19 20/20/20 17/17/17
f 21/21/21 22/22/22 23/23/23
f 23/23/23 24/24/24 21/21/21
f 25/25/25 26/26/26 27/27/27
f 27/27/27 28/28/28 25/25/25
f 29/29/29 30/30/30 31/31/31
f 31/31/31 32/32/32 29/29/29
f 33/33/33 34/34/34 35/35/35
f 35/35/35 36/36/36 33/33/33
f 37/37/37 38/38/38 39/39/39
f 39/39/39 40/40/40 37/37/37
f 41/41/41 42/42/42 43/43/43
f 43/43/43 44/44/44 41/41/41
f 45/45/45 46/46/46 47/47/47
f 47/47/47 48/48/48 45/45/45
f 49/49/49 50/50/50 51/51/51
f 51/51/51 52/52/52 49/49/49
f 53/53/53 54/54/54 55/55/55
f 55/55/55 56/56/56 53/53/53
f 57/57/57 58/58/58 59/59/59
f 59/59/59 60/60/60 57/57/57
f 61/61/61 62/62/62 63/63/63
f 63/63/63 64/64/64 61/61/61
f 65/65/65 66/66/66 67/67/67
f 67/67/67 68/68/68 65/65/65
f 69/69/69 70/70/70 71/71/71
f 71/71/71 72/72/72 69/69/69
f 73/73/73 74/74/74 75/75/75
f 75/75/75 76/76/76 73/73/73
f 77/77/77 78/78/78 79/79/79
f 79/79/79 80/80/80 77/77/77
f 81/81/81 82/82/82 83/83/83
f 83/83/83 84/84/84 81/81/81
f 85/85/85 86/86/86 87/87/87
f 87/87/87 88/88/88 85/85/85
f 89/89/89 90/90/90 91/91/91
f 91/91/91 92/92/92 89/89/89
f 93/93/93 94/94/94 95/95/95
f 95/95/95 96/96/96 93/93/93
f 97/97/97 98/98/98 99/99/99
f 99/99/99 100/100/100 97/97/97
f 101/101/101 102/102/102 103/103/103
f 103/103/103 104/104/104 101/101/101
f 105/105/105 106/106/106 107/107/107
f 107/107/107 108/108/108 105/105/105
f 109/109/109 110/110/110 111/111/111
f 111/111/111 112/112/112 109/109/109
f 113/113/113 114/114/114 115/115/115
f 115/115/115 116/116/116 113/113/113
f 117/117/117 118/118/118 119/119/119
f 119/119/119 120/120/120 117/117/117
f 121/121/121 122/122/122 123/123/123
f 123/123/123 124/124/124 121/121/121
f 125/125/125 126/126/126 127/127/127
f 127/127/127 128/128/128 125/125/125
f 129/129/129 130/130/130 131/131/131
f 131/131/131 132/132/132 129/129/129
f 133/133/133 134/134/134 135/135/135
f 135/135/135 136/136/136 133/133/133
f 137/137/137 138/138/138 139/139/139
f 139/139/139 140/140/140 137/137/137
f 141/141/141 142/142/142 143/143/143
f 143/143/143 144/144/144 141/141/141
