v 0.014601 -0.018511999999999976 0.381164
v 0.014601 -0.018510999999999837 2.651126
v -0.023473 -0.008308999999999837 2.651126
v -0.023473 -0.008308999999999837 2.651126
v -0.023473 -0.008308999999999978 0.381164
v 0.014601 -0.018511999999999976 0.381164
v 0.084577 -0.080959 -0.00045399999999999504
v 0.059881 -0.057791999999999975 0.399203
v -0.064317 -0.057791999999999975 0.399203
v -0.089013 -0.080959 -0.00045399999999999504
v 0.084577 0.081887 -0.00045400000000000496
v 0.059881 0.05872000000000003 0.399203
v 0.059881 -0.057791999999999975 0.399203
v 0.084577 -0.080959 -0.00045399999999999504
v -0.089013 0.081887 -0.00045400000000000496
v -0.064317 0.05872000000000003 0.399203
v 0.059881 0.05872000000000003 0.399203
v 0.084577 0.081887 -0.00045400000000000496
v -0.089013 -0.080959 -0.00045399999999999504
v -0.064317 -0.057791999999999975 0.399203
v -0.064317 0.05872000000000003 0.399203
v -0.089013 0.081887 -0.00045400000000000496
v -0.064317 -0.057791999999999975 0.399203
v 0.059881 -0.057791999999999975 0.399203
v 0.059881 0.05872000000000003 0.399203
v -0.064317 0.05872000000000003 0.399203
v 0.004399 0.019563000000000025 0.381164
v 0.004399 0.019563000000000164 2.651126
v 0.014601 -0.018510999999999837 2.651126
v 0.014601 -0.018511999999999976 0.381164
v -0.023473 -0.008308999999999978 0.381164
v -0.023473 -0.008308999999999837 2.651126
v 0.004399 0.019563000000000164 2.651126
v 0.004399 0.019563000000000025 0.381164
vt 0.973050 0.383520
vt 0.973050 0.005678
vt 0.985144 0.005678
vt 0.985144 0.005678
vt 0.985144 0.383520
vt 0.973050 0.383520
vt 0.681810 0.741646
vt 0.681810 0.684911
vt 0.703206 0.684911
vt 0.703206 0.741646
vt 0.658165 0.741646
vt 0.658165 0.684801
vt 0.677724 0.684911
vt 0.677724 0.741646
vt 0.633097 0.741646
vt 0.633097 0.684801
vt 0.654190 0.684801
vt 0.654190 0.741646
vt 0.609697 0.741646
vt 0.609697 0.684911
vt 0.628900 0.684911
vt 0.628900 0.741646
vt 0.728655 0.741646
vt 0.707148 0.741646
vt 0.707148 0.717417
vt 0.728655 0.717417
vt 0.960957 0.383520
vt 0.960957 0.005678
vt 0.973050 0.005678
vt 0.973050 0.383520
vt 0.985144 0.383520
vt 0.985144 0.005678
vt 0.997238 0.005678
vt 0.997238 0.383520
vn 0.258807 -0.965929 5.914609290268019E-17
vn 0.965926 -0.25882 1.5848154227765898E-17
vn -0.707116 -0.707098 4.329726511917476E-17
vn -0.707116 -0.707098 4.329726511917476E-17
vn -0.965925 0.258823 -1.5848337924785773E-17
vn 0.258807 -0.965929 5.914609290268019E-17
vn 0 -0.998324 0.05787000000000006
vn 0 -0.998324 0.05787000000000006
vn 0 -0.998324 0.05787000000000006
vn 0 -0.998324 0.05787000000000006
vn 0.998096 3.7765045668706504E-18 0.061675
vn 0.998096 3.7765045668706504E-18 0.061675
vn 0.998096 3.7765045668706504E-18 0.061675
vn 0.998096 3.7765045668706504E-18 0.061675
vn 0 0.998324 0.057868999999999934
vn 0 0.998324 0.057868999999999934
vn 0 0.998324 0.057868999999999934
vn 0 0.998324 0.057868999999999934
vn -0.998096 3.776443334530693E-18 0.061674
vn -0.998096 3.776443334530693E-18 0.061674
vn -0.998096 3.776443334530693E-18 0.061674
vn -0.998096 3.776443334530693E-18 0.061674
vn 0 6.123233995736766E-17 1
vn 0 6.123233995736766E-17 1
vn 0 6.123233995736766E-17 1
vn 0 6.123233995736766E-17 1
vn 0.707107 0.707106 -4.3297754977894416E-17
vn -0.258815 0.965927 -5.914597043800027E-17
vn 0.965926 -0.25882 1.5848154227765898E-17
vn 0.258807 -0.965929 5.914609290268019E-17
vn -0.965925 0.258823 -1.5848337924785773E-17
vn -0.707116 -0.707098 4.329726511917476E-17
vn -0.258815 0.965927 -5.914597043800027E-17
vn 0.707107 0.707106 -4.3297754977894416E-17
g Staende
f 1/1/1 2/2/2 3/3/3
f 4/4/4 5/5/5 6/6/6
f 7/7/7 8/8/8 9/9/9
f 9/9/9 10/10/10 7/7/7
f 11/11/11 12/12/12 13/13/13
f 13/13/13 14/14/14 11/11/11
f 15/15/15 16/16/16 17/17/17
f 17/17/17 18/18/18 15/15/15
f 19/19/19 20/20/20 21/21/21
f 21/21/21 22/22/22 19/19/19
f 23/23/23 24/24/24 25/25/25
f 25/25/25 26/26/26 23/23/23
f 27/27/27 28/28/28 29/29/29
f 29/29/29 30/30/30 27/27/27
f 31/31/31 32/32/32 33/33/33
f 33/33/33 34/34/34 31/31/31
