v -0.662 0.148291 -0.02171700000000001
v -0.662 0.1482910000000001 1.339424
v 0 0.1482910000000001 1.339424
v 0 0.148291 -0.02171700000000001
v -0.662 -0.148291 -0.02171699999999999
v 0 -0.148291 -0.02171699999999999
v 0 -0.14829099999999992 1.339424
v -0.662 -0.14829099999999992 1.339424
v -0.662 0.148291 -0.02171700000000001
v -0.662 0.1482910000000001 1.339424
v 0 0.1482910000000001 1.339424
v 0 0.148291 -0.02171700000000001
vt 0.755774 0.995354
vt 0.755774 0.593948
vt 0.853430 0.593948
vt 0.853430 0.995354
vt 0.755774 0.995354
vt 0.853430 0.995354
vt 0.853430 0.593948
vt 0.755774 0.593948
vt 0.755774 0.995354
vt 0.755774 0.593948
vt 0.853430 0.593948
vt 0.853430 0.995354
vn 0 1 -6.123233995736766E-17
vn 0 1 -6.123233995736766E-17
vn 0 1 -6.123233995736766E-17
vn 0 1 -6.123233995736766E-17
vn 0 -1 6.123233995736766E-17
vn 0 -1 6.123233995736766E-17
vn 0 -1 6.123233995736766E-17
vn 0 -1 6.123233995736766E-17
vn 0 1 -6.123233995736766E-17
vn 0 1 -6.123233995736766E-17
vn 0 1 -6.123233995736766E-17
vn 0 1 -6.123233995736766E-17
g orig_Standard_11
f 1/1/1 2/2/2 3/3/3
f 3/3/3 4/4/4 1/1/1
f 5/5/5 6/6/6 7/7/7
f 7/7/7 8/8/8 5/5/5
f 9/9/9 10/10/10 11/11/11
f 11/11/11 12/12/12 9/9/9
