v 0.661313 0.148291 -0.02171700000000001
v -0.000687 0.148291 -0.02171700000000001
v -0.000687 0.1482910000000001 1.339424
v 0.661313 0.1482910000000001 1.339424
v 0.661313 -0.148291 -0.02171699999999999
v 0.661313 -0.14829099999999992 1.339424
v -0.000687 -0.14829099999999992 1.339424
v -0.000687 -0.148291 -0.02171699999999999
v 0.661313 0.148291 -0.02171700000000001
v -0.000687 0.148291 -0.02171700000000001
v -0.000687 0.1482910000000001 1.339424
v 0.661313 0.1482910000000001 1.339424
vt 0.755774 -0.004646
vt 0.853430 -0.004646
vt 0.853430 -0.406053
vt 0.755774 -0.406053
vt 0.755774 -0.004646
vt 0.755774 -0.406053
vt 0.853430 -0.406053
vt 0.853430 -0.004646
vt 0.755774 -0.004646
vt 0.853430 -0.004646
vt 0.853430 -0.406053
vt 0.755774 -0.406053
vn 0 1 -6.123233995736766E-17
vn 0 1 -6.123233995736766E-17
vn 0 1 -6.123233995736766E-17
vn 0 1 -6.123233995736766E-17
vn 0 -1 6.123233995736766E-17
vn 0 -1 6.123233995736766E-17
vn 0 -1 6.123233995736766E-17
vn 0 -1 6.123233995736766E-17
vn 0 1 -6.123233995736766E-17
vn 0 1 -6.123233995736766E-17
vn 0 1 -6.123233995736766E-17
vn 0 1 -6.123233995736766E-17
g orig_Standard_11
f 1/1/1 2/2/2 3/3/3
f 3/3/3 4/4/4 1/1/1
f 5/5/5 6/6/6 7/7/7
f 7/7/7 8/8/8 5/5/5
f 9/9/9 10/10/10 11/11/11
f 11/11/11 12/12/12 9/9/9
