v 1.37076716 0.013749399999999998 -0.02862188
v 1.37076716 0.013749400000000023 0.36166507999999997
v 1.33646716 0.04804940000000002 0.36166507999999997
v 1.33646716 0.04804940000000002 0.36166507999999997
v 1.33646716 0.0480494 -0.028621880000000002
v 1.37076716 0.013749399999999998 -0.02862188
v 1.37106606 -0.6971200599999999 -0.010946599999999957
v 1.37106606 -0.8013910799999999 0.3651548600000001
v 1.40536606 -0.8344445199999999 0.35599088000000007
v 1.40536606 -0.8344445199999999 0.35599088000000007
v 1.40536606 -0.7301735 -0.020110579999999958
v 1.37106606 -0.6971200599999999 -0.010946599999999957
v -1.38087782 0.029473499999999996 -0.028621880000000002
v -1.38087782 0.029473500000000024 0.36166507999999997
v -1.41517782 0.06377350000000002 0.36166507999999997
v -1.41517782 0.06377350000000002 0.36166507999999997
v -1.41517782 0.0637735 -0.028621880000000002
v -1.38087782 0.029473499999999996 -0.028621880000000002
v 0.6425713 -0.87632678 -0.028621879999999943
v 0.6425713 -0.87632678 0.36166508
v 0.60839086 -0.91074634 0.36166508
v 0.60839086 -0.91074634 0.36166508
v 0.60839086 -0.91074634 -0.028621879999999943
v 0.6425713 -0.87632678 -0.028621879999999943
v 1.37106606 -0.84214634 -0.028621879999999947
v 1.37106606 -0.84214634 0.36166508
v 1.40536606 -0.87644634 0.36166508
v 1.40536606 -0.87644634 0.36166508
v 1.40536606 -0.87644634 -0.028621879999999943
v 1.37106606 -0.84214634 -0.028621879999999947
v 0.50979012 0.9051270199999999 -0.028621880000000054
v 0.50979012 0.9051270199999999 0.3616650799999999
v 0.54409012 0.93942702 0.3616650799999999
v 0.54409012 0.93942702 0.3616650799999999
v 0.54409012 0.93942702 -0.028621880000000058
v 0.50979012 0.9051270199999999 -0.028621880000000054
v 1.33676606 0.9051270199999999 -0.028621880000000054
v 1.33676606 0.9051270199999999 0.3616650799999999
v 1.37106606 0.93942702 0.3616650799999999
v 1.37106606 0.93942702 0.3616650799999999
v 1.37106606 0.93942702 -0.028621880000000058
v 1.33676606 0.9051270199999999 -0.028621880000000054
v -0.5948070799999999 0.8760121999999999 -0.028621880000000054
v -0.5948070799999999 0.8760121999999999 0.3616650799999999
v -0.56062762 0.9104317599999999 0.3616650799999999
v -0.56062762 0.9104317599999999 0.3616650799999999
v -0.56062762 0.9104317599999999 -0.028621880000000054
v -0.5948070799999999 0.8760121999999999 -0.028621880000000054
v -1.36454808 0.8418317599999999 -0.02862188000000005
v -1.36454808 0.8418317599999999 0.3616650799999999
v -1.39884808 0.87613176 0.3616650799999999
v -1.39884808 0.87613176 0.3616650799999999
v -1.39884808 0.87613176 -0.028621880000000054
v -1.36454808 0.8418317599999999 -0.02862188000000005
v -0.6149842999999999 -0.87644634 -0.028621879999999943
v -0.6149842999999999 -0.87644634 0.36166508
v -0.6492842999999999 -0.91074634 0.36166508
v -0.6492842999999999 -0.91074634 0.36166508
v -0.6492842999999999 -0.91074634 -0.028621879999999943
v -0.6149842999999999 -0.87644634 -0.028621879999999943
v -1.33024808 -0.87644634 -0.028621879999999943
v -1.33024808 -0.87644634 0.36166508
v -1.36454808 -0.91074634 0.36166508
v -1.36454808 -0.91074634 0.36166508
v -1.36454808 -0.91074634 -0.028621879999999943
v -1.33024808 -0.87644634 -0.028621879999999943
v 1.40506716 0.0480494 -0.028621880000000002
v 1.40506716 0.04804940000000002 0.36166507999999997
v 1.37076716 0.013749400000000023 0.36166507999999997
v 1.37076716 0.013749399999999998 -0.02862188
v 1.40506716 0.0480494 -0.028621880000000002
v 1.33676606 -0.7301735 -0.020110579999999958
v 1.33676606 -0.8344445199999999 0.35599088000000007
v 1.37106606 -0.8013910799999999 0.3651548600000001
v 1.37106606 -0.6971200599999999 -0.010946599999999957
v 1.33676606 -0.7301735 -0.020110579999999958
v -1.3465778199999998 0.0637735 -0.028621880000000002
v -1.3465778199999998 0.06377350000000002 0.36166507999999997
v -1.38087782 0.029473500000000024 0.36166507999999997
v -1.38087782 0.029473499999999996 -0.028621880000000002
v -1.3465778199999998 0.0637735 -0.028621880000000002
v 0.6081517399999999 -0.84214634 -0.028621879999999947
v 0.6081517399999999 -0.84214634 0.36166508
v 0.6425713 -0.87632678 0.36166508
v 0.6425713 -0.87632678 -0.028621879999999943
v 0.6081517399999999 -0.84214634 -0.028621879999999947
v 1.33676606 -0.87644634 -0.028621879999999943
v 1.33676606 -0.87644634 0.36166508
v 1.37106606 -0.84214634 0.36166508
v 1.37106606 -0.84214634 -0.028621879999999947
v 1.33676606 -0.87644634 -0.028621879999999943
v 0.54409012 0.87082702 -0.028621880000000054
v 0.54409012 0.87082702 0.3616650799999999
v 0.50979012 0.9051270199999999 0.3616650799999999
v 0.50979012 0.9051270199999999 -0.028621880000000054
v 0.54409012 0.87082702 -0.028621880000000054
v 1.37106606 0.87082702 -0.028621880000000054
v 1.37106606 0.87082702 0.3616650799999999
v 1.33676606 0.9051270199999999 0.3616650799999999
v 1.33676606 0.9051270199999999 -0.028621880000000054
v 1.37106606 0.87082702 -0.028621880000000054
v -0.56038752 0.8418317599999999 -0.02862188000000005
v -0.56038752 0.8418317599999999 0.3616650799999999
v -0.5948070799999999 0.8760121999999999 0.3616650799999999
v -0.5948070799999999 0.8760121999999999 -0.028621880000000054
v -0.56038752 0.8418317599999999 -0.02862188000000005
v -1.33024808 0.87613176 -0.028621880000000054
v -1.33024808 0.87613176 0.3616650799999999
v -1.36454808 0.8418317599999999 0.3616650799999999
v -1.36454808 0.8418317599999999 -0.02862188000000005
v -1.33024808 0.87613176 -0.028621880000000054
v -0.6492842999999999 -0.84214634 -0.028621879999999947
v -0.6492842999999999 -0.84214634 0.36166508
v -0.6149842999999999 -0.87644634 0.36166508
v -0.6149842999999999 -0.87644634 -0.028621879999999943
v -0.6492842999999999 -0.84214634 -0.028621879999999947
v -1.36454808 -0.84214634 -0.028621879999999947
v -1.36454808 -0.84214634 0.36166508
v -1.33024808 -0.87644634 0.36166508
v -1.33024808 -0.87644634 -0.028621879999999943
v -1.36454808 -0.84214634 -0.028621879999999947
v 1.37076716 0.08234940000000002 0.36166507999999997
v 1.33646716 0.04804940000000002 0.36166507999999997
v 1.37076716 0.013749400000000023 0.36166507999999997
v 1.40506716 0.04804940000000002 0.36166507999999997
v 1.37076716 0.08234939999999999 -0.028621880000000002
v 1.37076716 0.08234940000000002 0.36166507999999997
v 1.40506716 0.04804940000000002 0.36166507999999997
v 1.40506716 0.0480494 -0.028621880000000002
v 1.33646716 0.0480494 -0.028621880000000002
v 1.33646716 0.04804940000000002 0.36166507999999997
v 1.37076716 0.08234940000000002 0.36166507999999997
v 1.37076716 0.08234939999999999 -0.028621880000000002
v 1.3882062599999998 0.9493514799999999 0.15282413999999994
v 1.41149498 0.9493514799999999 0.15282413999999994
v 1.41149498 0.95107628 0.08589013999999995
v 1.3882062599999998 0.95107628 0.08589013999999995
v 1.3882062599999998 0.012739020000000004 0.066542
v 1.41149498 0.012739020000000004 0.066542
v 1.41149498 0.011014220000000009 0.13347501999999997
v 1.3882062599999998 0.011014220000000009 0.13347501999999997
v 1.3882062599999998 0.95180344 0.2704613799999999
v 1.41149498 0.95180344 0.2704613799999999
v 1.41149498 0.94660944 0.20370769999999994
v 1.3882062599999998 0.94660944 0.20370769999999994
v 1.3882062599999998 0.010286080000000015 0.2619736
v 1.41149498 0.010286080000000015 0.2619736
v 1.41149498 0.015481060000000019 0.32872728
v 1.3882062599999998 0.015481060000000019 0.32872728
v 1.37106606 -0.86749796 0.34682690000000005
v 1.40536606 -0.8344445199999999 0.35599088000000007
v 1.37106606 -0.8013910799999999 0.3651548600000001
v 1.33676606 -0.8344445199999999 0.35599088000000007
v 1.37106606 -0.76322694 -0.029273579999999952
v 1.37106606 -0.86749796 0.34682690000000005
v 1.33676606 -0.8344445199999999 0.35599088000000007
v 1.33676606 -0.7301735 -0.020110579999999958
v 1.40536606 -0.7301735 -0.020110579999999958
v 1.40536606 -0.8344445199999999 0.35599088000000007
v 1.37106606 -0.86749796 0.34682690000000005
v 1.37106606 -0.76322694 -0.029273579999999952
v -1.38087782 0.09807350000000002 0.36166507999999997
v -1.41517782 0.06377350000000002 0.36166507999999997
v -1.38087782 0.029473500000000024 0.36166507999999997
v -1.3465778199999998 0.06377350000000002 0.36166507999999997
v -1.38087782 0.0980735 -0.028621880000000006
v -1.38087782 0.09807350000000002 0.36166507999999997
v -1.3465778199999998 0.06377350000000002 0.36166507999999997
v -1.3465778199999998 0.0637735 -0.028621880000000002
v -1.41517782 0.0637735 -0.028621880000000002
v -1.41517782 0.06377350000000002 0.36166507999999997
v -1.38087782 0.09807350000000002 0.36166507999999997
v -1.38087782 0.0980735 -0.028621880000000006
v 0.5739713 -0.87656688 0.36166508
v 0.60839086 -0.91074634 0.36166508
v 0.6425713 -0.87632678 0.36166508
v 0.6081517399999999 -0.84214634 0.36166508
v 0.5739713 -0.87656688 -0.028621879999999943
v 0.5739713 -0.87656688 0.36166508
v 0.6081517399999999 -0.84214634 0.36166508
v 0.6081517399999999 -0.84214634 -0.028621879999999947
v 0.60839086 -0.91074634 -0.028621879999999943
v 0.60839086 -0.91074634 0.36166508
v 0.5739713 -0.87656688 0.36166508
v 0.5739713 -0.87656688 -0.028621879999999943
v 0.56888118 -0.93270422 0.16565822000000005
v 0.56888118 -0.9094154999999999 0.16565822000000005
v 0.5643467200000001 -0.9094154999999999 0.09885554000000006
v 0.5643467200000001 -0.93270422 0.09885554000000006
v 1.4062931399999998 -0.93270422 0.04799550000000005
v 1.4062931399999998 -0.9094154999999999 0.04799550000000005
v 1.4108276 -0.9094154999999999 0.11479720000000004
v 1.4108276 -0.93270422 0.11479720000000004
v 0.56443492 -0.93270422 0.28844830000000005
v 0.56443492 -0.9094154999999999 0.28844830000000005
v 0.56836276 -0.9094154999999999 0.22160838000000005
v 0.56836276 -0.93270422 0.22160838000000005
v 1.4107394 -0.93270422 0.26566918000000006
v 1.4107394 -0.9094154999999999 0.26566918000000006
v 1.40681156 -0.9094154999999999 0.33250910000000006
v 1.40681156 -0.93270422 0.33250910000000006
v 1.37106606 -0.91074634 0.36166508
v 1.40536606 -0.87644634 0.36166508
v 1.37106606 -0.84214634 0.36166508
v 1.33676606 -0.87644634 0.36166508
v 1.37106606 -0.91074634 -0.028621879999999943
v 1.37106606 -0.91074634 0.36166508
v 1.33676606 -0.87644634 0.36166508
v 1.33676606 -0.87644634 -0.028621879999999943
v 1.40536606 -0.87644634 -0.028621879999999943
v 1.40536606 -0.87644634 0.36166508
v 1.37106606 -0.91074634 0.36166508
v 1.37106606 -0.91074634 -0.028621879999999943
v 0.57839012 0.9051270199999999 0.3616650799999999
v 0.54409012 0.93942702 0.3616650799999999
v 0.50979012 0.9051270199999999 0.3616650799999999
v 0.54409012 0.87082702 0.3616650799999999
v 0.57839012 0.9051270199999999 -0.028621880000000054
v 0.57839012 0.9051270199999999 0.3616650799999999
v 0.54409012 0.87082702 0.3616650799999999
v 0.54409012 0.87082702 -0.028621880000000054
v 0.54409012 0.93942702 -0.028621880000000058
v 0.54409012 0.93942702 0.3616650799999999
v 0.57839012 0.9051270199999999 0.3616650799999999
v 0.57839012 0.9051270199999999 -0.028621880000000054
v 1.4442848 0.9610203399999999 0.15282413999999994
v 1.4442848 0.9377306400000001 0.15282413999999994
v 1.4460096 0.9377306400000001 0.08589013999999995
v 1.4460096 0.9610203399999999 0.08589013999999995
v 0.5116776000000001 0.9610193599999999 0.06654199999999995
v 0.5116776000000001 0.9377306400000001 0.06654199999999995
v 0.5099518200000001 0.9377306400000001 0.13347501999999992
v 0.5099518200000001 0.9610193599999999 0.13347501999999992
v 1.44673774 0.9610203399999999 0.2704613799999999
v 1.44673774 0.9377306400000001 0.2704613799999999
v 1.44154374 0.9377306400000001 0.20370769999999994
v 1.44154374 0.9610203399999999 0.20370769999999994
v 0.50922466 0.9610193599999999 0.2619735999999999
v 0.50922466 0.9377306400000001 0.2619735999999999
v 0.5144186599999999 0.9377306400000001 0.32872727999999996
v 0.5144186599999999 0.9610193599999999 0.32872727999999996
v 1.40536606 0.9051270199999999 0.3616650799999999
v 1.37106606 0.93942702 0.3616650799999999
v 1.33676606 0.9051270199999999 0.3616650799999999
v 1.37106606 0.87082702 0.3616650799999999
v 1.40536606 0.9051270199999999 -0.028621880000000054
v 1.40536606 0.9051270199999999 0.3616650799999999
v 1.37106606 0.87082702 0.3616650799999999
v 1.37106606 0.87082702 -0.028621880000000054
v 1.37106606 0.93942702 -0.028621880000000058
v 1.37106606 0.93942702 0.3616650799999999
v 1.40536606 0.9051270199999999 0.3616650799999999
v 1.40536606 0.9051270199999999 -0.028621880000000054
v -0.52620806 0.87625132 0.3616650799999999
v -0.56062762 0.9104317599999999 0.3616650799999999
v -0.5948070799999999 0.8760121999999999 0.3616650799999999
v -0.56038752 0.8418317599999999 0.3616650799999999
v -0.52620806 0.87625132 -0.028621880000000054
v -0.52620806 0.87625132 0.3616650799999999
v -0.56038752 0.8418317599999999 0.3616650799999999
v -0.56038752 0.8418317599999999 -0.02862188000000005
v -0.56062762 0.9104317599999999 -0.028621880000000054
v -0.56062762 0.9104317599999999 0.3616650799999999
v -0.52620806 0.87625132 0.3616650799999999
v -0.52620806 0.87625132 -0.028621880000000054
v -1.4204414 0.9493514799999999 0.15282413999999994
v -1.3971517 0.9493514799999999 0.15282413999999994
v -1.3971517 0.95107628 0.08589013999999995
v -1.4204414 0.95107628 0.08589013999999995
v -1.43677016 0.028462140000000004 0.066542
v -1.41348144 0.028462140000000004 0.066542
v -1.41348144 0.02673734000000001 0.13347501999999997
v -1.43677016 0.02673734000000001 0.13347501999999997
v -1.4204414 0.95180344 0.2704613799999999
v -1.3971517 0.95180344 0.2704613799999999
v -1.3971517 0.94660944 0.20370769999999994
v -1.4204414 0.94660944 0.20370769999999994
v -1.43677016 0.026010180000000015 0.2619736
v -1.41348144 0.026010180000000015 0.2619736
v -1.41348144 0.031204180000000022 0.32872728
v -1.43677016 0.031204180000000022 0.32872728
v -0.52111696 0.93238964 0.16565821999999994
v -0.52111696 0.90910092 0.16565821999999994
v -0.51658348 0.90910092 0.09885553999999995
v -0.51658348 0.93238964 0.09885553999999995
v -1.39977614 0.93238964 0.04799549999999994
v -1.39977614 0.90910092 0.04799549999999994
v -1.4043096199999998 0.90910092 0.11479719999999993
v -1.4043096199999998 0.93238964 0.11479719999999993
v -0.5166706999999999 0.93238964 0.28844829999999994
v -0.5166706999999999 0.90910092 0.28844829999999994
v -0.5205985399999999 0.90910092 0.22160837999999994
v -0.5205985399999999 0.93238964 0.22160837999999994
v -1.4042223999999999 0.93238964 0.26566917999999995
v -1.4042223999999999 0.90910092 0.26566917999999995
v -1.4002945599999999 0.90910092 0.33250909999999995
v -1.4002945599999999 0.93238964 0.33250909999999995
v -1.36454808 0.9104317599999999 0.3616650799999999
v -1.39884808 0.87613176 0.3616650799999999
v -1.36454808 0.8418317599999999 0.3616650799999999
v -1.33024808 0.87613176 0.3616650799999999
v -1.36454808 0.9104317599999999 -0.028621880000000054
v -1.36454808 0.9104317599999999 0.3616650799999999
v -1.33024808 0.87613176 0.3616650799999999
v -1.33024808 0.87613176 -0.028621880000000054
v -1.39884808 0.87613176 -0.028621880000000054
v -1.39884808 0.87613176 0.3616650799999999
v -1.36454808 0.9104317599999999 0.3616650799999999
v -1.36454808 0.9104317599999999 -0.028621880000000054
v -0.6835843 -0.87644634 0.36166508
v -0.6492842999999999 -0.91074634 0.36166508
v -0.6149842999999999 -0.87644634 0.36166508
v -0.6492842999999999 -0.84214634 0.36166508
v -0.6835843 -0.87644634 -0.028621879999999943
v -0.6835843 -0.87644634 0.36166508
v -0.6492842999999999 -0.84214634 0.36166508
v -0.6492842999999999 -0.84214634 -0.028621879999999947
v -0.6492842999999999 -0.91074634 -0.028621879999999943
v -0.6492842999999999 -0.91074634 0.36166508
v -0.6835843 -0.87644634 0.36166508
v -0.6835843 -0.87644634 -0.028621879999999943
v -1.4377677999999998 -0.9323396599999999 0.15282414000000005
v -1.4377677999999998 -0.90904996 0.15282414000000005
v -1.4394926 -0.90904996 0.08589014000000005
v -1.4394926 -0.9323396599999999 0.08589014000000005
v -0.6168708 -0.9323396599999999 0.06654200000000006
v -0.6168708 -0.90904996 0.06654200000000006
v -0.615146 -0.90904996 0.13347502000000003
v -0.615146 -0.9323396599999999 0.13347502000000003
v -1.44021976 -0.9323396599999999 0.27046138000000003
v -1.44021976 -0.90904996 0.27046138000000003
v -1.43502576 -0.90904996 0.20370770000000005
v -1.43502576 -0.9323396599999999 0.20370770000000005
v -0.61441786 -0.9323396599999999 0.26197360000000003
v -0.61441786 -0.90904996 0.26197360000000003
v -0.6196128399999999 -0.90904996 0.32872728000000007
v -0.6196128399999999 -0.9323396599999999 0.32872728000000007
v -1.39884808 -0.87644634 0.36166508
v -1.36454808 -0.91074634 0.36166508
v -1.33024808 -0.87644634 0.36166508
v -1.36454808 -0.84214634 0.36166508
v -1.39884808 -0.87644634 -0.028621879999999943
v -1.39884808 -0.87644634 0.36166508
v -1.36454808 -0.84214634 0.36166508
v -1.36454808 -0.84214634 -0.028621879999999947
v -1.36454808 -0.91074634 -0.028621879999999943
v -1.36454808 -0.91074634 0.36166508
v -1.39884808 -0.87644634 0.36166508
v -1.39884808 -0.87644634 -0.028621879999999943
v 1.4288448999999999 0.52024378 0.14333087999999997
v 1.41149498 0.9493514799999999 0.15282413999999994
v 1.3882062599999998 0.9493514799999999 0.15282413999999994
v 1.40555618 0.52065244 0.14333871999999998
v 1.41149498 0.011014220000000009 0.13347501999999997
v 1.3882062599999998 0.011014220000000009 0.13347501999999997
v 1.4288448999999999 0.52024378 0.14333087999999997
v 1.41149498 0.011014220000000009 0.13347501999999997
v 1.41149498 0.012739020000000004 0.066542
v 1.4288448999999999 0.5201653799999999 0.07636159999999997
v 1.41149498 0.9493514799999999 0.15282413999999994
v 1.41149498 0.95107628 0.08589013999999995
v 1.4288448999999999 0.52042606 0.2992439799999999
v 1.41149498 0.95180344 0.2704613799999999
v 1.3882062599999998 0.95180344 0.2704613799999999
v 1.40555618 0.5208347200000001 0.2992194799999999
v 1.41149498 0.015481060000000019 0.32872728
v 1.3882062599999998 0.015481060000000019 0.32872728
v 1.4288448999999999 0.52042606 0.2992439799999999
v 1.41149498 0.015481060000000019 0.32872728
v 1.41149498 0.010286080000000015 0.2619736
v 1.4288448999999999 0.52034766 0.23218257999999997
v 1.41149498 0.95180344 0.2704613799999999
v 1.41149498 0.94660944 0.20370769999999994
v 1.2442707199999998 -0.92951334 0.13992146000000005
v 0.56888118 -0.9094154999999999 0.16565822000000005
v 0.56888118 -0.93270422 0.16565822000000005
v 1.2442707199999998 -0.95280206 0.13992146000000005
v 1.4108276 -0.9094154999999999 0.11479720000000004
v 1.4108276 -0.93270422 0.11479720000000004
v 1.2442707199999998 -0.92951334 0.13992146000000005
v 1.4108276 -0.9094154999999999 0.11479720000000004
v 1.4062931399999998 -0.9094154999999999 0.04799550000000005
v 1.2443491199999999 -0.92951334 0.07287868000000006
v 0.56888118 -0.9094154999999999 0.16565822000000005
v 0.5643467200000001 -0.9094154999999999 0.09885554000000006
v 1.2440698199999998 -0.92951334 0.29890392000000005
v 0.56443492 -0.9094154999999999 0.28844830000000005
v 0.56443492 -0.93270422 0.28844830000000005
v 1.2440698199999998 -0.95280206 0.29890392000000005
v 1.40681156 -0.9094154999999999 0.33250910000000006
v 1.40681156 -0.93270422 0.33250910000000006
v 1.2440698199999998 -0.92951334 0.29890392000000005
v 1.40681156 -0.9094154999999999 0.33250910000000006
v 1.4107394 -0.9094154999999999 0.26566918000000006
v 1.24414822 -0.92951334 0.23188858000000004
v 0.56443492 -0.9094154999999999 0.28844830000000005
v 0.56836276 -0.9094154999999999 0.22160838000000005
v 0.96658282 0.9126348 0.14333087999999994
v 1.4442848 0.9377306400000001 0.15282413999999994
v 1.4442848 0.9610203399999999 0.15282413999999994
v 0.96699148 0.9359245 0.14333871999999995
v 0.5099518200000001 0.9377306400000001 0.13347501999999992
v 0.5099518200000001 0.9610193599999999 0.13347501999999992
v 0.96658282 0.9126348 0.14333087999999994
v 0.5099518200000001 0.9377306400000001 0.13347501999999992
v 0.5116776000000001 0.9377306400000001 0.06654199999999995
v 0.96650442 0.9126348 0.07636159999999995
v 1.4442848 0.9377306400000001 0.15282413999999994
v 1.4460096 0.9377306400000001 0.08589013999999995
v 0.9667651 0.9126348 0.2992439799999999
v 1.44673774 0.9377306400000001 0.2704613799999999
v 1.44673774 0.9610203399999999 0.2704613799999999
v 0.96717376 0.9359245 0.2992194799999999
v 0.5144186599999999 0.9377306400000001 0.32872727999999996
v 0.5144186599999999 0.9610193599999999 0.32872727999999996
v 0.9667651 0.9126348 0.2992439799999999
v 0.5144186599999999 0.9377306400000001 0.32872727999999996
v 0.50922466 0.9377306400000001 0.2619735999999999
v 0.9666867 0.9126348 0.23218257999999994
v 1.44673774 0.9377306400000001 0.2704613799999999
v 1.44154374 0.9377306400000001 0.20370769999999994
v -1.37606406 0.5233739 0.14333087999999997
v -1.3971517 0.9493514799999999 0.15282413999999994
v -1.4204414 0.9493514799999999 0.15282413999999994
v -1.3993527799999999 0.5237825599999999 0.14333871999999998
v -1.41348144 0.02673734000000001 0.13347501999999997
v -1.43677016 0.02673734000000001 0.13347501999999997
v -1.37606406 0.5233739 0.14333087999999997
v -1.41348144 0.02673734000000001 0.13347501999999997
v -1.41348144 0.028462140000000004 0.066542
v -1.37606406 0.5232954999999999 0.07636159999999997
v -1.3971517 0.9493514799999999 0.15282413999999994
v -1.3971517 0.95107628 0.08589013999999995
v -1.37606406 0.5235561799999999 0.2992439799999999
v -1.3971517 0.95180344 0.2704613799999999
v -1.4204414 0.95180344 0.2704613799999999
v -1.3993527799999999 0.52396484 0.2992194799999999
v -1.41348144 0.031204180000000022 0.32872728
v -1.43677016 0.031204180000000022 0.32872728
v -1.37606406 0.5235561799999999 0.2992439799999999
v -1.41348144 0.031204180000000022 0.32872728
v -1.41348144 0.026010180000000015 0.2619736
v -1.37606406 0.52347778 0.23218257999999997
v -1.3971517 0.95180344 0.2704613799999999
v -1.3971517 0.94660944 0.20370769999999994
v -0.98467166 0.9291987599999999 0.13992145999999994
v -0.52111696 0.90910092 0.16565821999999994
v -0.52111696 0.93238964 0.16565821999999994
v -0.98467166 0.9524874799999999 0.13992145999999994
v -1.4043096199999998 0.90910092 0.11479719999999993
v -1.4043096199999998 0.93238964 0.11479719999999993
v -0.98467166 0.9291987599999999 0.13992145999999994
v -1.4043096199999998 0.90910092 0.11479719999999993
v -1.39977614 0.90910092 0.04799549999999994
v -0.98475006 0.9291987599999999 0.07287867999999995
v -0.52111696 0.90910092 0.16565821999999994
v -0.51658348 0.90910092 0.09885553999999995
v -0.98447174 0.9291987599999999 0.29890391999999993
v -0.5166706999999999 0.90910092 0.28844829999999994
v -0.5166706999999999 0.93238964 0.28844829999999994
v -0.98447174 0.9524874799999999 0.29890391999999993
v -1.4002945599999999 0.90910092 0.33250909999999995
v -1.4002945599999999 0.93238964 0.33250909999999995
v -0.98447174 0.9291987599999999 0.29890391999999993
v -1.4002945599999999 0.90910092 0.33250909999999995
v -1.4042223999999999 0.90910092 0.26566917999999995
v -0.98455014 0.9291987599999999 0.23188857999999993
v -0.5166706999999999 0.90910092 0.28844829999999994
v -0.5205985399999999 0.90910092 0.22160837999999994
v -1.08344292 -0.8839551 0.14333088000000005
v -1.4377677999999998 -0.90904996 0.15282414000000005
v -1.4377677999999998 -0.9323396599999999 0.15282414000000005
v -1.08385158 -0.90724382 0.14333872000000006
v -0.615146 -0.90904996 0.13347502000000003
v -0.615146 -0.9323396599999999 0.13347502000000003
v -1.08344292 -0.8839551 0.14333088000000005
v -0.615146 -0.90904996 0.13347502000000003
v -0.6168708 -0.90904996 0.06654200000000006
v -1.08336452 -0.8839551 0.07636160000000006
v -1.4377677999999998 -0.90904996 0.15282414000000005
v -1.4394926 -0.90904996 0.08589014000000005
v -1.08362618 -0.8839551 0.29924398
v -1.44021976 -0.90904996 0.27046138000000003
v -1.44021976 -0.9323396599999999 0.27046138000000003
v -1.08403484 -0.90724382 0.29921948000000004
v -0.6196128399999999 -0.90904996 0.32872728000000007
v -0.6196128399999999 -0.9323396599999999 0.32872728000000007
v -1.08362618 -0.8839551 0.29924398
v -0.6196128399999999 -0.90904996 0.32872728000000007
v -0.61441786 -0.90904996 0.26197360000000003
v -1.0835468000000001 -0.8839551 0.23218258000000006
v -1.44021976 -0.90904996 0.27046138000000003
v -1.43502576 -0.90904996 0.20370770000000005
v 1.40555618 0.52057404 0.07636943999999997
v 1.3882062599999998 0.012739020000000004 0.066542
v 1.3882062599999998 0.011014220000000009 0.13347501999999997
v 1.40555618 0.52065244 0.14333871999999998
v 1.3882062599999998 0.9493514799999999 0.15282413999999994
v 1.3882062599999998 0.95107628 0.08589013999999995
v 1.40555618 0.5207563199999999 0.23215807999999996
v 1.3882062599999998 0.010286080000000015 0.2619736
v 1.3882062599999998 0.015481060000000019 0.32872728
v 1.40555618 0.5208347200000001 0.2992194799999999
v 1.3882062599999998 0.95180344 0.2704613799999999
v 1.3882062599999998 0.94660944 0.20370769999999994
v 1.2443491199999999 -0.95280206 0.07287868000000006
v 1.4062931399999998 -0.93270422 0.04799550000000005
v 1.4108276 -0.93270422 0.11479720000000004
v 1.2442707199999998 -0.95280206 0.13992146000000005
v 0.56888118 -0.93270422 0.16565822000000005
v 0.5643467200000001 -0.93270422 0.09885554000000006
v 1.24414822 -0.95280206 0.23188858000000004
v 1.4107394 -0.93270422 0.26566918000000006
v 1.40681156 -0.93270422 0.33250910000000006
v 1.2440698199999998 -0.95280206 0.29890392000000005
v 0.56443492 -0.93270422 0.28844830000000005
v 0.56836276 -0.93270422 0.22160838000000005
v 0.96691308 0.9359245 0.07636943999999994
v 0.5116776000000001 0.9610193599999999 0.06654199999999995
v 0.5099518200000001 0.9610193599999999 0.13347501999999992
v 0.96699148 0.9359245 0.14333871999999995
v 1.4442848 0.9610203399999999 0.15282413999999994
v 1.4460096 0.9610203399999999 0.08589013999999995
v 0.9670953600000001 0.9359245 0.23215807999999993
v 0.50922466 0.9610193599999999 0.2619735999999999
v 0.5144186599999999 0.9610193599999999 0.32872727999999996
v 0.96717376 0.9359245 0.2992194799999999
v 1.44673774 0.9610203399999999 0.2704613799999999
v 1.44154374 0.9610203399999999 0.20370769999999994
v -1.3993527799999999 0.52370416 0.07636943999999997
v -1.43677016 0.028462140000000004 0.066542
v -1.43677016 0.02673734000000001 0.13347501999999997
v -1.3993527799999999 0.5237825599999999 0.14333871999999998
v -1.4204414 0.9493514799999999 0.15282413999999994
v -1.4204414 0.95107628 0.08589013999999995
v -1.3993527799999999 0.52388644 0.23215807999999996
v -1.43677016 0.026010180000000015 0.2619736
v -1.43677016 0.031204180000000022 0.32872728
v -1.3993527799999999 0.52396484 0.2992194799999999
v -1.4204414 0.95180344 0.2704613799999999
v -1.4204414 0.94660944 0.20370769999999994
v -0.98475006 0.9524874799999999 0.07287867999999995
v -1.39977614 0.93238964 0.04799549999999994
v -1.4043096199999998 0.93238964 0.11479719999999993
v -0.98467166 0.9524874799999999 0.13992145999999994
v -0.52111696 0.93238964 0.16565821999999994
v -0.51658348 0.93238964 0.09885553999999995
v -0.98455014 0.9524874799999999 0.23188857999999993
v -1.4042223999999999 0.93238964 0.26566917999999995
v -1.4002945599999999 0.93238964 0.33250909999999995
v -0.98447174 0.9524874799999999 0.29890391999999993
v -0.5166706999999999 0.93238964 0.28844829999999994
v -0.5205985399999999 0.93238964 0.22160837999999994
v -1.08377318 -0.90724382 0.07636944000000005
v -0.6168708 -0.9323396599999999 0.06654200000000006
v -0.615146 -0.9323396599999999 0.13347502000000003
v -1.08385158 -0.90724382 0.14333872000000006
v -1.4377677999999998 -0.9323396599999999 0.15282414000000005
v -1.4394926 -0.9323396599999999 0.08589014000000005
v -1.08395644 -0.90724382 0.23215808000000004
v -0.61441786 -0.9323396599999999 0.26197360000000003
v -0.6196128399999999 -0.9323396599999999 0.32872728000000007
v -1.08403484 -0.90724382 0.29921948000000004
v -1.44021976 -0.9323396599999999 0.27046138000000003
v -1.43502576 -0.9323396599999999 0.20370770000000005
vt 0.054633 0.982120
vt 0.054633 0.661790
vt 0.073861 0.661790
vt 0.073861 0.661790
vt 0.073861 0.982120
vt 0.054633 0.982120
vt 0.054633 0.982120
vt 0.054633 0.661790
vt 0.073861 0.661790
vt 0.073861 0.661790
vt 0.073861 0.982120
vt 0.054633 0.982120
vt 0.054633 0.982120
vt 0.054633 0.661790
vt 0.073861 0.661790
vt 0.073861 0.661790
vt 0.073861 0.982120
vt 0.054633 0.982120
vt 0.054633 0.982120
vt 0.054633 0.661790
vt 0.073861 0.661790
vt 0.073861 0.661790
vt 0.073861 0.982120
vt 0.054633 0.982120
vt 0.054633 0.982120
vt 0.054633 0.661790
vt 0.073861 0.661790
vt 0.073861 0.661790
vt 0.073861 0.982120
vt 0.054633 0.982120
vt 0.054633 0.982120
vt 0.054633 0.661790
vt 0.073861 0.661790
vt 0.073861 0.661790
vt 0.073861 0.982120
vt 0.054633 0.982120
vt 0.054633 0.982120
vt 0.054633 0.661790
vt 0.073861 0.661790
vt 0.073861 0.661790
vt 0.073861 0.982120
vt 0.054633 0.982120
vt 0.054633 0.982120
vt 0.054633 0.661790
vt 0.073861 0.661790
vt 0.073861 0.661790
vt 0.073861 0.982120
vt 0.054633 0.982120
vt 0.054633 0.982120
vt 0.054633 0.661790
vt 0.073861 0.661790
vt 0.073861 0.661790
vt 0.073861 0.982120
vt 0.054633 0.982120
vt 0.054633 0.982120
vt 0.054633 0.661790
vt 0.073861 0.661790
vt 0.073861 0.661790
vt 0.073861 0.982120
vt 0.054633 0.982120
vt 0.054633 0.982120
vt 0.054633 0.661790
vt 0.073861 0.661790
vt 0.073861 0.661790
vt 0.073861 0.982120
vt 0.054633 0.982120
vt 0.035405 0.982120
vt 0.035405 0.661790
vt 0.054633 0.661790
vt 0.054633 0.982120
vt 0.035405 0.982120
vt 0.035405 0.982120
vt 0.035405 0.661790
vt 0.054633 0.661790
vt 0.054633 0.982120
vt 0.035405 0.982120
vt 0.035405 0.982120
vt 0.035405 0.661790
vt 0.054633 0.661790
vt 0.054633 0.982120
vt 0.035405 0.982120
vt 0.035405 0.982120
vt 0.035405 0.661790
vt 0.054633 0.661790
vt 0.054633 0.982120
vt 0.035405 0.982120
vt 0.035405 0.982120
vt 0.035405 0.661790
vt 0.054633 0.661790
vt 0.054633 0.982120
vt 0.035405 0.982120
vt 0.035405 0.982120
vt 0.035405 0.661790
vt 0.054633 0.661790
vt 0.054633 0.982120
vt 0.035405 0.982120
vt 0.035405 0.982120
vt 0.035405 0.661790
vt 0.054633 0.661790
vt 0.054633 0.982120
vt 0.035405 0.982120
vt 0.035405 0.982120
vt 0.035405 0.661790
vt 0.054633 0.661790
vt 0.054633 0.982120
vt 0.035405 0.982120
vt 0.035405 0.982120
vt 0.035405 0.661790
vt 0.054633 0.661790
vt 0.054633 0.982120
vt 0.035405 0.982120
vt 0.035405 0.982120
vt 0.035405 0.661790
vt 0.054633 0.661790
vt 0.054633 0.982120
vt 0.035405 0.982120
vt 0.035405 0.982120
vt 0.035405 0.661790
vt 0.054633 0.661790
vt 0.054633 0.982120
vt 0.035405 0.982120
vt 0.013839 0.606532
vt 0.054465 0.567040
vt 0.095091 0.606532
vt 0.054465 0.646023
vt 0.016177 0.982120
vt 0.016177 0.661790
vt 0.035405 0.661790
vt 0.035405 0.982120
vt 0.073861 0.982120
vt 0.073861 0.661790
vt 0.093089 0.661790
vt 0.093089 0.982120
vt 0.149842 0.845644
vt 0.189380 0.845925
vt 0.189259 0.937488
vt 0.149721 0.937207
vt 0.149842 0.845644
vt 0.189380 0.845925
vt 0.189259 0.937488
vt 0.149721 0.937207
vt 0.149842 0.845644
vt 0.189380 0.845925
vt 0.189259 0.937488
vt 0.149721 0.937207
vt 0.149842 0.845644
vt 0.189380 0.845925
vt 0.189259 0.937488
vt 0.149721 0.937207
vt 0.013839 0.606532
vt 0.054465 0.567040
vt 0.095091 0.606532
vt 0.054465 0.646023
vt 0.016177 0.982120
vt 0.016177 0.661790
vt 0.035405 0.661790
vt 0.035405 0.982120
vt 0.073861 0.982120
vt 0.073861 0.661790
vt 0.093089 0.661790
vt 0.093089 0.982120
vt 0.013839 0.606532
vt 0.054465 0.567040
vt 0.095091 0.606532
vt 0.054465 0.646023
vt 0.016177 0.982120
vt 0.016177 0.661790
vt 0.035405 0.661790
vt 0.035405 0.982120
vt 0.073861 0.982120
vt 0.073861 0.661790
vt 0.093089 0.661790
vt 0.093089 0.982120
vt 0.013839 0.606532
vt 0.054465 0.567040
vt 0.095091 0.606532
vt 0.054465 0.646023
vt 0.016177 0.982120
vt 0.016177 0.661790
vt 0.035405 0.661790
vt 0.035405 0.982120
vt 0.073861 0.982120
vt 0.073861 0.661790
vt 0.093089 0.661790
vt 0.093089 0.982120
vt 0.149842 0.845644
vt 0.189380 0.845925
vt 0.189259 0.937488
vt 0.149721 0.937207
vt 0.149842 0.845644
vt 0.189380 0.845925
vt 0.189259 0.937488
vt 0.149721 0.937207
vt 0.149842 0.845644
vt 0.189380 0.845925
vt 0.189259 0.937488
vt 0.149721 0.937207
vt 0.149842 0.845644
vt 0.189380 0.845925
vt 0.189259 0.937488
vt 0.149721 0.937207
vt 0.013839 0.606532
vt 0.054465 0.567040
vt 0.095091 0.606532
vt 0.054465 0.646023
vt 0.016177 0.982120
vt 0.016177 0.661790
vt 0.035405 0.661790
vt 0.035405 0.982120
vt 0.073861 0.982120
vt 0.073861 0.661790
vt 0.093089 0.661790
vt 0.093089 0.982120
vt 0.013839 0.606532
vt 0.054465 0.567040
vt 0.095091 0.606532
vt 0.054465 0.646023
vt 0.016177 0.982120
vt 0.016177 0.661790
vt 0.035405 0.661790
vt 0.035405 0.982120
vt 0.073861 0.982120
vt 0.073861 0.661790
vt 0.093089 0.661790
vt 0.093089 0.982120
vt 0.149842 0.845644
vt 0.189380 0.845925
vt 0.189259 0.937488
vt 0.149721 0.937207
vt 0.149842 0.845644
vt 0.189380 0.845925
vt 0.189259 0.937488
vt 0.149721 0.937207
vt 0.149842 0.845644
vt 0.189380 0.845925
vt 0.189259 0.937488
vt 0.149721 0.937207
vt 0.149842 0.845644
vt 0.189380 0.845925
vt 0.189259 0.937488
vt 0.149721 0.937207
vt 0.013839 0.606532
vt 0.054465 0.567040
vt 0.095091 0.606532
vt 0.054465 0.646023
vt 0.016177 0.982120
vt 0.016177 0.661790
vt 0.035405 0.661790
vt 0.035405 0.982120
vt 0.073861 0.982120
vt 0.073861 0.661790
vt 0.093089 0.661790
vt 0.093089 0.982120
vt 0.013839 0.606532
vt 0.054465 0.567040
vt 0.095091 0.606532
vt 0.054465 0.646023
vt 0.016177 0.982120
vt 0.016177 0.661790
vt 0.035405 0.661790
vt 0.035405 0.982120
vt 0.073861 0.982120
vt 0.073861 0.661790
vt 0.093089 0.661790
vt 0.093089 0.982120
vt 0.149842 0.845644
vt 0.189380 0.845925
vt 0.189259 0.937488
vt 0.149721 0.937207
vt 0.149842 0.845644
vt 0.189380 0.845925
vt 0.189259 0.937488
vt 0.149721 0.937207
vt 0.149842 0.845644
vt 0.189380 0.845925
vt 0.189259 0.937488
vt 0.149721 0.937207
vt 0.149842 0.845644
vt 0.189380 0.845925
vt 0.189259 0.937488
vt 0.149721 0.937207
vt 0.149842 0.845644
vt 0.189380 0.845925
vt 0.189259 0.937488
vt 0.149721 0.937207
vt 0.149842 0.845644
vt 0.189380 0.845925
vt 0.189259 0.937488
vt 0.149721 0.937207
vt 0.149842 0.845644
vt 0.189380 0.845925
vt 0.189259 0.937488
vt 0.149721 0.937207
vt 0.149842 0.845644
vt 0.189380 0.845925
vt 0.189259 0.937488
vt 0.149721 0.937207
vt 0.013839 0.606532
vt 0.054465 0.567040
vt 0.095091 0.606532
vt 0.054465 0.646023
vt 0.016177 0.982120
vt 0.016177 0.661790
vt 0.035405 0.661790
vt 0.035405 0.982120
vt 0.073861 0.982120
vt 0.073861 0.661790
vt 0.093089 0.661790
vt 0.093089 0.982120
vt 0.013839 0.606532
vt 0.054465 0.567040
vt 0.095091 0.606532
vt 0.054465 0.646023
vt 0.016177 0.982120
vt 0.016177 0.661790
vt 0.035405 0.661790
vt 0.035405 0.982120
vt 0.073861 0.982120
vt 0.073861 0.661790
vt 0.093089 0.661790
vt 0.093089 0.982120
vt 0.149842 0.845644
vt 0.189380 0.845925
vt 0.189259 0.937488
vt 0.149721 0.937207
vt 0.149842 0.845644
vt 0.189380 0.845925
vt 0.189259 0.937488
vt 0.149721 0.937207
vt 0.149842 0.845644
vt 0.189380 0.845925
vt 0.189259 0.937488
vt 0.149721 0.937207
vt 0.149842 0.845644
vt 0.189380 0.845925
vt 0.189259 0.937488
vt 0.149721 0.937207
vt 0.013839 0.606532
vt 0.054465 0.567040
vt 0.095091 0.606532
vt 0.054465 0.646023
vt 0.016177 0.982120
vt 0.016177 0.661790
vt 0.035405 0.661790
vt 0.035405 0.982120
vt 0.073861 0.982120
vt 0.073861 0.661790
vt 0.093089 0.661790
vt 0.093089 0.982120
vt 0.149404 0.744576
vt 0.149404 0.522688
vt 0.180299 0.522688
vt 0.180299 0.744386
vt 0.149404 0.974937
vt 0.180299 0.974937
vt 0.209675 0.744981
vt 0.209531 0.975631
vt 0.117027 0.974242
vt 0.117171 0.744431
vt 0.209814 0.522814
vt 0.117310 0.521425
vt 0.149404 0.746092
vt 0.149404 0.522688
vt 0.180299 0.522688
vt 0.180299 0.745902
vt 0.149404 0.974937
vt 0.180299 0.974937
vt 0.209674 0.746499
vt 0.209531 0.975631
vt 0.117027 0.974242
vt 0.117172 0.742726
vt 0.209814 0.522814
vt 0.117310 0.521425
vt 0.149404 0.751533
vt 0.149404 0.522688
vt 0.180299 0.522688
vt 0.180299 0.751533
vt 0.149404 0.974937
vt 0.180299 0.974937
vt 0.209671 0.751947
vt 0.209531 0.975631
vt 0.117027 0.974242
vt 0.117165 0.752707
vt 0.209814 0.522814
vt 0.117310 0.521425
vt 0.149404 0.753406
vt 0.149404 0.522688
vt 0.180299 0.522688
vt 0.180299 0.753406
vt 0.149404 0.974937
vt 0.180299 0.974937
vt 0.209670 0.753822
vt 0.209531 0.975631
vt 0.117027 0.974242
vt 0.117167 0.750641
vt 0.209814 0.522814
vt 0.117310 0.521425
vt 0.149404 0.744576
vt 0.149404 0.522688
vt 0.180299 0.522688
vt 0.180299 0.744386
vt 0.149404 0.974937
vt 0.180299 0.974937
vt 0.209675 0.744981
vt 0.209531 0.975631
vt 0.117027 0.974242
vt 0.117171 0.744431
vt 0.209814 0.522814
vt 0.117310 0.521425
vt 0.149404 0.746092
vt 0.149404 0.522688
vt 0.180299 0.522688
vt 0.180299 0.745902
vt 0.149404 0.974937
vt 0.180299 0.974937
vt 0.209674 0.746499
vt 0.209531 0.975631
vt 0.117027 0.974242
vt 0.117172 0.742726
vt 0.209814 0.522814
vt 0.117310 0.521425
vt 0.149404 0.744576
vt 0.149404 0.522688
vt 0.180299 0.522688
vt 0.180299 0.744386
vt 0.149404 0.974937
vt 0.180299 0.974937
vt 0.209675 0.744981
vt 0.209531 0.975631
vt 0.117027 0.974242
vt 0.117171 0.744431
vt 0.209814 0.522814
vt 0.117310 0.521425
vt 0.149404 0.746092
vt 0.149404 0.522688
vt 0.180299 0.522688
vt 0.180299 0.745902
vt 0.149404 0.974937
vt 0.180299 0.974937
vt 0.209674 0.746499
vt 0.209531 0.975631
vt 0.117027 0.974242
vt 0.117172 0.742726
vt 0.209814 0.522814
vt 0.117310 0.521425
vt 0.149404 0.751533
vt 0.149404 0.522688
vt 0.180299 0.522688
vt 0.180299 0.751533
vt 0.149404 0.974937
vt 0.180299 0.974937
vt 0.209671 0.751947
vt 0.209531 0.975631
vt 0.117027 0.974242
vt 0.117165 0.752707
vt 0.209814 0.522814
vt 0.117310 0.521425
vt 0.149404 0.753406
vt 0.149404 0.522688
vt 0.180299 0.522688
vt 0.180299 0.753406
vt 0.149404 0.974937
vt 0.180299 0.974937
vt 0.209670 0.753822
vt 0.209531 0.975631
vt 0.117027 0.974242
vt 0.117167 0.750641
vt 0.209814 0.522814
vt 0.117310 0.521425
vt 0.149404 0.744576
vt 0.149404 0.522688
vt 0.180299 0.522688
vt 0.180299 0.744386
vt 0.149404 0.974937
vt 0.180299 0.974937
vt 0.209675 0.744981
vt 0.209531 0.975631
vt 0.117027 0.974242
vt 0.117171 0.744431
vt 0.209814 0.522814
vt 0.117310 0.521425
vt 0.149404 0.746092
vt 0.149404 0.522688
vt 0.180299 0.522688
vt 0.180299 0.745902
vt 0.149404 0.974937
vt 0.180299 0.974937
vt 0.209674 0.746499
vt 0.209531 0.975631
vt 0.117027 0.974242
vt 0.117172 0.742726
vt 0.209814 0.522814
vt 0.117310 0.521425
vt 0.118462 0.745620
vt 0.118462 0.975392
vt 0.209262 0.975392
vt 0.209262 0.744783
vt 0.209262 0.523029
vt 0.118462 0.523029
vt 0.118462 0.743917
vt 0.118462 0.975392
vt 0.209262 0.975392
vt 0.209262 0.746299
vt 0.209262 0.523029
vt 0.118462 0.523029
vt 0.118462 0.754078
vt 0.118462 0.975392
vt 0.209262 0.975392
vt 0.209262 0.751931
vt 0.209262 0.523029
vt 0.118462 0.523029
vt 0.118462 0.752014
vt 0.118462 0.975392
vt 0.209262 0.975392
vt 0.209262 0.753805
vt 0.209262 0.523029
vt 0.118462 0.523029
vt 0.118462 0.745620
vt 0.118462 0.975392
vt 0.209262 0.975392
vt 0.209262 0.744783
vt 0.209262 0.523029
vt 0.118462 0.523029
vt 0.118462 0.743917
vt 0.118462 0.975392
vt 0.209262 0.975392
vt 0.209262 0.746299
vt 0.209262 0.523029
vt 0.118462 0.523029
vt 0.118462 0.745620
vt 0.118462 0.975392
vt 0.209262 0.975392
vt 0.209262 0.744783
vt 0.209262 0.523029
vt 0.118462 0.523029
vt 0.118462 0.743917
vt 0.118462 0.975392
vt 0.209262 0.975392
vt 0.209262 0.746299
vt 0.209262 0.523029
vt 0.118462 0.523029
vt 0.118462 0.754078
vt 0.118462 0.975392
vt 0.209262 0.975392
vt 0.209262 0.751931
vt 0.209262 0.523029
vt 0.118462 0.523029
vt 0.118462 0.752014
vt 0.118462 0.975392
vt 0.209262 0.975392
vt 0.209262 0.753805
vt 0.209262 0.523029
vt 0.118462 0.523029
vt 0.118462 0.745620
vt 0.118462 0.975392
vt 0.209262 0.975392
vt 0.209262 0.744783
vt 0.209262 0.523029
vt 0.118462 0.523029
vt 0.118462 0.743917
vt 0.118462 0.975392
vt 0.209262 0.975392
vt 0.209262 0.746299
vt 0.209262 0.523029
vt 0.118462 0.523029
vn -0.316227 -0.948684 5.809014120011538E-17
vn 0.316227 -0.948684 5.809014120011538E-17
vn -0.948683 -0.316229 1.9363441632378416E-17
vn -0.948683 -0.316229 1.9363441632378416E-17
vn -0.948683 0.316229 -1.9363441632378416E-17
vn -0.316227 -0.948684 5.809014120011538E-17
vn 0.316227 0.9142 0.25345399999999996
vn -0.316227 0.9142 0.25345399999999996
vn 0.948683 0.304734 0.08448499999999999
vn 0.948683 0.304734 0.08448499999999999
vn 0.948683 -0.304734 -0.08448499999999999
vn 0.316227 0.9142 0.25345399999999996
vn -0.316228 -0.948683 5.809007996777542E-17
vn 0.316227 -0.948683 5.809007996777542E-17
vn -0.948683 -0.316228 1.9363380400038462E-17
vn -0.948683 -0.316228 1.9363380400038462E-17
vn -0.948683 0.316228 -1.9363380400038462E-17
vn -0.316228 -0.948683 5.809007996777542E-17
vn 0.949782 -0.312912 1.9160333960739832E-17
vn 0.947572 0.319541 -1.956624314231722E-17
vn 0.31954 -0.947573 5.802211207042274E-17
vn 0.31954 -0.947573 5.802211207042274E-17
vn -0.312911 -0.949783 5.815743554172853E-17
vn 0.949782 -0.312912 1.9160333960739832E-17
vn 0.316227 0.948684 -5.809014120011538E-17
vn -0.316227 0.948684 -5.809014120011538E-17
vn 0.948683 0.316228 -1.9363380400038462E-17
vn 0.948683 0.316228 -1.9363380400038462E-17
vn 0.948683 -0.316229 1.9363441632378416E-17
vn 0.316227 0.948684 -5.809014120011538E-17
vn -0.948684 0.316227 -1.9363319167698502E-17
vn -0.948683 -0.316228 1.9363380400038462E-17
vn -0.316228 0.948683 -5.809007996777542E-17
vn -0.316228 0.948683 -5.809007996777542E-17
vn 0.316228 0.948683 -5.809007996777542E-17
vn -0.948684 0.316227 -1.9363319167698502E-17
vn -0.948683 0.316229 -1.9363441632378416E-17
vn -0.948683 -0.316229 1.9363441632378416E-17
vn -0.316227 0.948684 -5.809014120011538E-17
vn -0.316227 0.948684 -5.809014120011538E-17
vn 0.316227 0.948684 -5.809014120011538E-17
vn -0.948683 0.316229 -1.9363441632378416E-17
vn -0.949782 0.312912 -1.9160333960739832E-17
vn -0.947573 -0.31954 1.956618190997726E-17
vn -0.31954 0.947573 -5.802211207042274E-17
vn -0.31954 0.947573 -5.802211207042274E-17
vn 0.312912 0.949782 -5.815737430938857E-17
vn -0.949782 0.312912 -1.9160333960739832E-17
vn -0.316228 -0.948683 5.809007996777542E-17
vn 0.316227 -0.948684 5.809014120011538E-17
vn -0.948683 -0.316228 1.9363380400038462E-17
vn -0.948683 -0.316228 1.9363380400038462E-17
vn -0.948683 0.316228 -1.9363380400038462E-17
vn -0.316228 -0.948683 5.809007996777542E-17
vn 0.948683 -0.316228 1.9363380400038462E-17
vn 0.948683 0.316228 -1.9363380400038462E-17
vn 0.316228 -0.948683 5.809007996777542E-17
vn 0.316228 -0.948683 5.809007996777542E-17
vn -0.316227 -0.948684 5.809014120011538E-17
vn 0.948683 -0.316228 1.9363380400038462E-17
vn 0.948683 -0.316228 1.9363380400038462E-17
vn 0.948683 0.316228 -1.9363380400038462E-17
vn 0.316228 -0.948683 5.809007996777542E-17
vn 0.316228 -0.948683 5.809007996777542E-17
vn -0.316228 -0.948683 5.809007996777542E-17
vn 0.948683 -0.316228 1.9363380400038462E-17
vn 0.948683 -0.316229 1.9363441632378416E-17
vn 0.948683 0.316229 -1.9363441632378416E-17
vn 0.316227 -0.948684 5.809014120011538E-17
vn -0.316227 -0.948684 5.809014120011538E-17
vn 0.948683 -0.316229 1.9363441632378416E-17
vn -0.948683 0.304734 0.08448499999999999
vn -0.948683 -0.304734 -0.08448499999999999
vn -0.316227 0.9142 0.25345399999999996
vn 0.316227 0.9142 0.25345399999999996
vn -0.948683 0.304734 0.08448499999999999
vn 0.948683 -0.316228 1.9363380400038462E-17
vn 0.948683 0.316228 -1.9363380400038462E-17
vn 0.316227 -0.948683 5.809007996777542E-17
vn -0.316228 -0.948683 5.809007996777542E-17
vn 0.948683 -0.316228 1.9363380400038462E-17
vn 0.312911 0.949783 -5.815743554172853E-17
vn -0.31954 0.947573 -5.802211207042274E-17
vn 0.947572 0.319541 -1.956624314231722E-17
vn 0.949782 -0.312912 1.9160333960739832E-17
vn 0.312911 0.949783 -5.815743554172853E-17
vn -0.948683 0.316229 -1.9363441632378416E-17
vn -0.948683 -0.316228 1.9363380400038462E-17
vn -0.316227 0.948684 -5.809014120011538E-17
vn 0.316227 0.948684 -5.809014120011538E-17
vn -0.948683 0.316229 -1.9363441632378416E-17
vn -0.316227 -0.948683 5.809007996777542E-17
vn 0.316227 -0.948684 5.809014120011538E-17
vn -0.948683 -0.316228 1.9363380400038462E-17
vn -0.948684 0.316227 -1.9363319167698502E-17
vn -0.316227 -0.948683 5.809007996777542E-17
vn -0.316227 -0.948684 5.809014120011538E-17
vn 0.316227 -0.948684 5.809014120011538E-17
vn -0.948683 -0.316229 1.9363441632378416E-17
vn -0.948683 0.316229 -1.9363441632378416E-17
vn -0.316227 -0.948684 5.809014120011538E-17
vn -0.312912 -0.949782 5.815737430938857E-17
vn 0.319539 -0.947573 5.802211207042274E-17
vn -0.947573 -0.31954 1.956618190997726E-17
vn -0.949782 0.312912 -1.9160333960739832E-17
vn -0.312912 -0.949782 5.815737430938857E-17
vn 0.948683 -0.316228 1.9363380400038462E-17
vn 0.948683 0.316228 -1.9363380400038462E-17
vn 0.316227 -0.948684 5.809014120011538E-17
vn -0.316228 -0.948683 5.809007996777542E-17
vn 0.948683 -0.316228 1.9363380400038462E-17
vn 0.316228 0.948683 -5.809007996777542E-17
vn -0.316227 0.948684 -5.809014120011538E-17
vn 0.948683 0.316228 -1.9363380400038462E-17
vn 0.948683 -0.316228 1.9363380400038462E-17
vn 0.316228 0.948683 -5.809007996777542E-17
vn 0.316228 0.948683 -5.809007996777542E-17
vn -0.316228 0.948683 -5.809007996777542E-17
vn 0.948683 0.316228 -1.9363380400038462E-17
vn 0.948683 -0.316228 1.9363380400038462E-17
vn 0.316228 0.948683 -5.809007996777542E-17
vn 0 6.123233995736766E-17 1
vn 0 6.123233995736766E-17 1
vn 0 6.123233995736766E-17 1
vn 0 6.123233995736766E-17 1
vn 0.316227 0.948684 -5.809014120011538E-17
vn -0.316227 0.948684 -5.809014120011538E-17
vn 0.948683 0.316229 -1.9363441632378416E-17
vn 0.948683 -0.316229 1.9363441632378416E-17
vn -0.948683 0.316229 -1.9363441632378416E-17
vn -0.948683 -0.316229 1.9363441632378416E-17
vn -0.316227 0.948684 -5.809014120011538E-17
vn 0.316227 0.948684 -5.809014120011538E-17
vn 0 0.999668 0.025761999999999938
vn 0 0.999668 0.025761999999999938
vn 0 0.999668 0.025761999999999938
vn 0 0.999668 0.025761999999999938
vn -0 -0.999668 -0.025761999999999938
vn -0 -0.999668 -0.025761999999999938
vn -0 -0.999668 -0.025761999999999938
vn -0 -0.999668 -0.025761999999999938
vn 0 0.996986 -0.07757800000000005
vn 0 0.996986 -0.07757800000000005
vn 0 0.996986 -0.07757800000000005
vn 0 0.996986 -0.07757800000000005
vn -0 -0.996986 0.07757800000000005
vn -0 -0.996986 0.07757800000000005
vn -0 -0.996986 0.07757800000000005
vn -0 -0.996986 0.07757800000000005
vn -0 -0.26716399999999996 0.963651
vn 0 -0.26716399999999996 0.963651
vn -0 -0.26716399999999996 0.963651
vn -1E-06 -0.26716399999999996 0.963651
vn -0.316227 -0.9142 -0.25345399999999996
vn 0.316227 -0.9142 -0.25345399999999996
vn -0.948683 -0.304734 -0.08448499999999999
vn -0.948683 0.304734 0.08448499999999999
vn 0.948683 -0.304734 -0.08448499999999999
vn 0.948683 0.304734 0.08448499999999999
vn 0.316227 -0.9142 -0.25345399999999996
vn -0.316227 -0.9142 -0.25345399999999996
vn 0 6.123233995736766E-17 1
vn 0 6.123233995736766E-17 1
vn 0 6.123233995736766E-17 1
vn 0 6.123233995736766E-17 1
vn 0.316228 0.948683 -5.809007996777542E-17
vn -0.316227 0.948684 -5.809014120011538E-17
vn 0.948683 0.316228 -1.9363380400038462E-17
vn 0.948683 -0.316228 1.9363380400038462E-17
vn -0.948683 0.316228 -1.9363380400038462E-17
vn -0.948683 -0.316228 1.9363380400038462E-17
vn -0.316227 0.948684 -5.809014120011538E-17
vn 0.316228 0.948683 -5.809007996777542E-17
vn 0 6.123233995736766E-17 1
vn 0 6.123233995736766E-17 1
vn 0 6.123233995736766E-17 1
vn 0 6.123233995736766E-17 1
vn -0.949782 0.312912 -1.9160333960739832E-17
vn -0.947572 -0.319541 1.956624314231722E-17
vn -0.31954 0.947573 -5.802211207042274E-17
vn 0.312911 0.949783 -5.815743554172853E-17
vn -0.312911 -0.949783 5.815743554172853E-17
vn 0.31954 -0.947573 5.802211207042274E-17
vn -0.947572 -0.319541 1.956624314231722E-17
vn -0.949782 0.312912 -1.9160333960739832E-17
vn -0.997705 4.146654061912938E-18 0.06772
vn -0.997705 4.146654061912938E-18 0.06772
vn -0.997705 4.146654061912938E-18 0.06772
vn -0.997705 4.146654061912938E-18 0.06772
vn 0.997705 -4.146654061912938E-18 -0.06772
vn 0.997705 -4.146654061912938E-18 -0.06772
vn 0.997705 -4.146654061912938E-18 -0.06772
vn 0.997705 -4.146654061912938E-18 -0.06772
vn -0.998278 -3.592133991259017E-18 -0.058664
vn -0.998278 -3.592133991259017E-18 -0.058664
vn -0.998278 -3.592133991259017E-18 -0.058664
vn -0.998278 -3.592133991259017E-18 -0.058664
vn 0.998278 3.592133991259017E-18 0.058664
vn 0.998278 3.592133991259017E-18 0.058664
vn 0.998278 3.592133991259017E-18 0.058664
vn 0.998278 3.592133991259017E-18 0.058664
vn 0 6.123233995736766E-17 1
vn 0 6.123233995736766E-17 1
vn 0 6.123233995736766E-17 1
vn 0 6.123233995736766E-17 1
vn -0.316227 -0.948684 5.809014120011538E-17
vn 0.316227 -0.948684 5.809014120011538E-17
vn -0.948683 -0.316228 1.9363380400038462E-17
vn -0.948683 0.316229 -1.9363441632378416E-17
vn 0.948683 -0.316229 1.9363441632378416E-17
vn 0.948683 0.316228 -1.9363380400038462E-17
vn 0.316227 -0.948684 5.809014120011538E-17
vn -0.316227 -0.948684 5.809014120011538E-17
vn 0 6.123233995736766E-17 1
vn 0 6.123233995736766E-17 1
vn 0 6.123233995736766E-17 1
vn 0 6.123233995736766E-17 1
vn 0.948683 -0.316229 1.9363441632378416E-17
vn 0.948684 0.316227 -1.9363319167698502E-17
vn 0.316227 -0.948684 5.809014120011538E-17
vn -0.316227 -0.948683 5.809007996777542E-17
vn 0.316228 0.948683 -5.809007996777542E-17
vn -0.316228 0.948683 -5.809007996777542E-17
vn 0.948684 0.316227 -1.9363319167698502E-17
vn 0.948683 -0.316229 1.9363441632378416E-17
vn 0.999668 1.577345077301791E-18 0.02576
vn 0.999668 1.577345077301791E-18 0.02576
vn 0.999668 1.577345077301791E-18 0.02576
vn 0.999668 1.577345077301791E-18 0.02576
vn -0.999668 -1.5774675419817057E-18 -0.025762
vn -0.999668 -1.5774675419817057E-18 -0.025762
vn -0.999668 -1.5774675419817057E-18 -0.025762
vn -0.999668 -1.5774675419817057E-18 -0.025762
vn 0.996986 -4.750282469212668E-18 -0.077578
vn 0.996986 -4.750282469212668E-18 -0.077578
vn 0.996986 -4.750282469212668E-18 -0.077578
vn 0.996986 -4.750282469212668E-18 -0.077578
vn -0.996986 4.750282469212668E-18 0.077578
vn -0.996986 4.750282469212668E-18 0.077578
vn -0.996986 4.750282469212668E-18 0.077578
vn -0.996986 4.750282469212668E-18 0.077578
vn 0 6.123233995736766E-17 1
vn 0 6.123233995736766E-17 1
vn 0 6.123233995736766E-17 1
vn 0 6.123233995736766E-17 1
vn 0.948683 -0.316229 1.9363441632378416E-17
vn 0.948683 0.316229 -1.9363441632378416E-17
vn 0.316227 -0.948684 5.809014120011538E-17
vn -0.316227 -0.948684 5.809014120011538E-17
vn 0.316227 0.948684 -5.809014120011538E-17
vn -0.316227 0.948684 -5.809014120011538E-17
vn 0.948683 0.316229 -1.9363441632378416E-17
vn 0.948683 -0.316229 1.9363441632378416E-17
vn 0 6.123233995736766E-17 1
vn 0 6.123233995736766E-17 1
vn 0 6.123233995736766E-17 1
vn 0 6.123233995736766E-17 1
vn 0.949782 -0.312912 1.9160333960739832E-17
vn 0.947573 0.31954 -1.956618190997726E-17
vn 0.319539 -0.947573 5.802211207042274E-17
vn -0.312912 -0.949782 5.815737430938857E-17
vn 0.312912 0.949782 -5.815737430938857E-17
vn -0.31954 0.947573 -5.802211207042274E-17
vn 0.947573 0.31954 -1.956618190997726E-17
vn 0.949782 -0.312912 1.9160333960739832E-17
vn 0 0.999668 0.025761999999999938
vn 0 0.999668 0.025761999999999938
vn 0 0.999668 0.025761999999999938
vn 0 0.999668 0.025761999999999938
vn -0 -0.999668 -0.025761999999999938
vn -0 -0.999668 -0.025761999999999938
vn -0 -0.999668 -0.025761999999999938
vn -0 -0.999668 -0.025761999999999938
vn 0 0.996986 -0.07757800000000005
vn 0 0.996986 -0.07757800000000005
vn 0 0.996986 -0.07757800000000005
vn 0 0.996986 -0.07757800000000005
vn -0 -0.996986 0.07757800000000005
vn -0 -0.996986 0.07757800000000005
vn -0 -0.996986 0.07757800000000005
vn -0 -0.996986 0.07757800000000005
vn 0.997705 4.146531597233023E-18 0.067718
vn 0.997705 4.146531597233023E-18 0.067718
vn 0.997705 4.146531597233023E-18 0.067718
vn 0.997705 4.146531597233023E-18 0.067718
vn -0.997705 -4.146531597233023E-18 -0.067718
vn -0.997705 -4.146531597233023E-18 -0.067718
vn -0.997705 -4.146531597233023E-18 -0.067718
vn -0.997705 -4.146531597233023E-18 -0.067718
vn 0.998278 -3.592133991259017E-18 -0.058664
vn 0.998278 -3.592133991259017E-18 -0.058664
vn 0.998278 -3.592133991259017E-18 -0.058664
vn 0.998278 -3.592133991259017E-18 -0.058664
vn -0.998278 3.592133991259017E-18 0.058664
vn -0.998278 3.592133991259017E-18 0.058664
vn -0.998278 3.592133991259017E-18 0.058664
vn -0.998278 3.592133991259017E-18 0.058664
vn 0 6.123233995736766E-17 1
vn 0 6.123233995736766E-17 1
vn 0 6.123233995736766E-17 1
vn 0 6.123233995736766E-17 1
vn 0.316228 0.948683 -5.809007996777542E-17
vn -0.316227 0.948684 -5.809014120011538E-17
vn 0.948683 0.316228 -1.9363380400038462E-17
vn 0.948683 -0.316228 1.9363380400038462E-17
vn -0.948683 0.316228 -1.9363380400038462E-17
vn -0.948683 -0.316228 1.9363380400038462E-17
vn -0.316227 0.948684 -5.809014120011538E-17
vn 0.316228 0.948683 -5.809007996777542E-17
vn 0 6.123233995736766E-17 1
vn 0 6.123233995736766E-17 1
vn 0 6.123233995736766E-17 1
vn 0 6.123233995736766E-17 1
vn -0.948683 0.316228 -1.9363380400038462E-17
vn -0.948683 -0.316228 1.9363380400038462E-17
vn -0.316227 0.948684 -5.809014120011538E-17
vn 0.316228 0.948683 -5.809007996777542E-17
vn -0.316227 -0.948684 5.809014120011538E-17
vn 0.316228 -0.948683 5.809007996777542E-17
vn -0.948683 -0.316228 1.9363380400038462E-17
vn -0.948683 0.316228 -1.9363380400038462E-17
vn -0.999668 1.5774063096417482E-18 0.025761
vn -0.999668 1.5774063096417482E-18 0.025761
vn -0.999668 1.5774063096417482E-18 0.025761
vn -0.999668 1.5774063096417482E-18 0.025761
vn 0.999668 -1.5774675419817057E-18 -0.025762
vn 0.999668 -1.5774675419817057E-18 -0.025762
vn 0.999668 -1.5774675419817057E-18 -0.025762
vn 0.999668 -1.5774675419817057E-18 -0.025762
vn -0.996986 -4.750282469212668E-18 -0.077578
vn -0.996986 -4.750282469212668E-18 -0.077578
vn -0.996986 -4.750282469212668E-18 -0.077578
vn -0.996986 -4.750282469212668E-18 -0.077578
vn 0.996986 4.750282469212668E-18 0.077578
vn 0.996986 4.750282469212668E-18 0.077578
vn 0.996986 4.750282469212668E-18 0.077578
vn 0.996986 4.750282469212668E-18 0.077578
vn 0 6.123233995736766E-17 1
vn 0 6.123233995736766E-17 1
vn 0 6.123233995736766E-17 1
vn 0 6.123233995736766E-17 1
vn -0.948683 0.316228 -1.9363380400038462E-17
vn -0.948683 -0.316228 1.9363380400038462E-17
vn -0.316228 0.948683 -5.809007996777542E-17
vn 0.316228 0.948683 -5.809007996777542E-17
vn -0.316228 -0.948683 5.809007996777542E-17
vn 0.316228 -0.948683 5.809007996777542E-17
vn -0.948683 -0.316228 1.9363380400038462E-17
vn -0.948683 0.316228 -1.9363380400038462E-17
vn -1.1E-05 -0.021195999999999937 0.999775
vn -0 -0.02211699999999994 0.999755
vn -2.1E-05 -0.022118999999999937 0.999755
vn -1.1E-05 -0.020273999999999938 0.999794
vn 4E-06 -0.019350999999999938 0.999813
vn -0 -0.019350999999999938 0.999813
vn 0.999957 -0.009274 -0.00029499999999999947
vn 0.99942 -0.034034 -0.0008769999999999979
vn 0.999418 -0.034103 -0.0004189999999999979
vn 0.99988 0.015488 0.00034299999999999907
vn 0.999187 0.040304 0.0004939999999999975
vn 0.999191 0.040207 0.0010359999999999976
vn 3E-05 0.06381800000000006 0.997962
vn 0 0.06657400000000005 0.997781
vn 5.9E-05 0.06658000000000006 0.997781
vn 3E-05 0.06105700000000006 0.998134
vn -1.4E-05 0.058291000000000065 0.9983
vn 0 0.058291000000000065 0.9983
vn 0.999956 -0.009337 0.0008850000000000006
vn 0.999412 -0.034184 0.002660000000000002
vn 0.999418 -0.034089 0.0013500000000000022
vn 0.999878 0.015559 -0.0010520000000000009
vn 0.999186 0.040321 -0.0015980000000000024
vn 0.999176 0.040458 -0.003148000000000003
vn 0.075271 6.105862380890861E-17 0.997163
vn 0.038078 -9.99999999938812E-07 0.999275
vn 0.038078 -9.99999999938812E-07 0.999275
vn 0.112349 6.084467801309757E-17 0.993669
vn 0.149158 6.05473337702646E-17 0.988813
vn 0.149157 6.05473337702646E-17 0.988813
vn -0.070856 0.997483 0.002652999999999939
vn -0.118595 0.99291 0.00804999999999994
vn -0.120889 0.992658 0.003952999999999939
vn -0.021378 0.999771 -0.0007050000000000613
vn 0.029606 0.999561 -0.000983000000000061
vn 0.029466 0.999564 -0.002000000000000061
vn -0.078178 6.104490776475816E-17 0.996939
vn -0.015382 6.12251145412527E-17 0.999882
vn -0.015382 6.12251145412527E-17 0.999882
vn -0.140704 6.062320063947177E-17 0.990052
vn -0.202229 5.996715734916854E-17 0.979338
vn -0.202229 5.996715734916854E-17 0.979338
vn -0.07061 0.997501 -0.002414000000000061
vn -0.121112 0.992613 -0.007117000000000061
vn -0.120429 0.992715 -0.0036290000000000606
vn -0.020212 0.999796 0.0005479999999999387
vn 0.029629 0.999561 0.0008899999999999387
vn 0.0297 0.999557 0.0017449999999999389
vn -0.020438 1.0000000000061221E-05 0.999791
vn -0.019868 6.122027718639606E-17 0.999803
vn -0.019868 6.122027718639606E-17 0.999803
vn -0.021007 1.000000000006122E-05 0.999779
vn -0.021576 1.5000000000061219E-05 0.999767
vn -0.021577 6.12180728221576E-17 0.999767
vn -0.019183 -0.999816 -0.0004709999999999388
vn -0.054845 -0.998494 -0.0014129999999999388
vn -0.05497 -0.998488 -0.0006749999999999389
vn 0.016557 -0.999863 0.0004500000000000612
vn 0.052351 -0.998629 0.0006420000000000611
vn 0.052238 -0.998634 0.0013460000000000611
vn 0.061585 -2.8999999999938885E-05 0.998102
vn 0.059859 6.11225503718241E-17 0.998207
vn 0.059859 1.0000000000611225E-06 0.998207
vn 0.063311 -2.8999999999938892E-05 0.997994
vn 0.065036 -4.49999999999389E-05 0.997883
vn 0.065036 6.110271109367791E-17 0.997883
vn -0.01925 -0.999814 0.001432000000000061
vn -0.055115 -0.998471 0.004289000000000061
vn -0.054943 -0.998487 0.002176000000000061
vn 0.016678 -0.99986 -0.001362999999999939
vn 0.052371 -0.998626 -0.0020739999999999387
vn 0.052531 -0.998611 -0.004087999999999939
vn -1.5E-05 -0.02146799999999994 0.99977
vn -0 -0.02227999999999994 0.999752
vn -2.2E-05 -0.022281999999999937 0.999752
vn -1.5E-05 -0.020654999999999937 0.999787
vn -0 -0.01984099999999994 0.999803
vn -0 -0.01984099999999994 0.999803
vn 0.99943 -0.033741 -0.0006359999999999979
vn 0.997175 -0.075091 -0.0019349999999999955
vn 0.997165 -0.075247 -0.0009239999999999955
vn 0.99997 0.007764 0.0004339999999999995
vn 0.998783 0.049327 0.0006049999999999969
vn 0.998788 0.049208 0.001267999999999997
vn 4.2E-05 0.06463600000000005 0.997909
vn 0 0.06705900000000005 0.997749
vn 6.3E-05 0.06706500000000006 0.997749
vn 4.2E-05 0.06220800000000006 0.998063
vn -1E-06 0.059776000000000065 0.998212
vn 0 0.059776000000000065 0.998212
vn 0.999426 -0.033807 0.001970000000000002
vn 0.997134 -0.075428 0.005869000000000004
vn 0.997163 -0.075214 0.002978000000000005
vn 0.999968 0.007913 -0.0012770000000000004
vn 0.99878 0.049348 -0.001955000000000003
vn 0.998766 0.049517 -0.003853000000000003
vn -0.056878 6.113320479897668E-17 0.998381
vn -0.055434 1.0000000000611382E-06 0.998462
vn -0.055434 1.0000000000611382E-06 0.998462
vn -0.058321 6.112812251476022E-17 0.998298
vn -0.059764 6.112291776586385E-17 0.998213
vn -0.059764 6.112291776586385E-17 0.998213
vn 0.017582 -0.999845 0.0010770000000000612
vn 0.047645 -0.998859 0.003234000000000061
vn 0.048008 -0.998846 0.001589000000000061
vn -0.01257 -0.999921 -0.0009699999999999388
vn -0.043023 -0.999073 -0.001424999999999939
vn -0.042728 -0.999083 -0.0028999999999999387
vn 0.041773 6.117888412458488E-17 0.999127
vn 0.022344 6.121703187237832E-17 0.99975
vn 0.022344 6.121703187237832E-17 0.99975
vn 0.061183 6.111765178462751E-17 0.998127
vn 0.080554 6.103333485250621E-17 0.99675
vn 0.080554 6.103333485250621E-17 0.99675
vn 0.017668 -0.999843 -0.0009439999999999387
vn 0.048048 -0.998841 -0.002823999999999939
vn 0.047939 -0.998849 -0.001439999999999939
vn -0.012783 -0.999918 0.0008460000000000612
vn -0.043072 -0.999071 0.001295000000000061
vn -0.043222 -0.999062 0.0025400000000000613
vn 0.024874 -4.7999999999938784E-05 0.999691
vn 0.026782 6.121035754732296E-17 0.999641
vn 0.02679 -6.099999999993879E-05 0.999641
vn 0.02296 -4.7999999999938784E-05 0.999736
vn 0.02104 -9.999999999938782E-06 0.999779
vn 0.02104 6.121880761023708E-17 0.999779
vn 0.012205 0.999925 -0.0004670000000000612
vn 0.053483 0.998568 -0.0013780000000000613
vn 0.053602 0.998562 -0.0006580000000000611
vn -0.029109 0.999576 0.0005979999999999387
vn -0.070449 0.997515 0.0008639999999999389
vn -0.070245 0.997528 0.0018099999999999388
vn -0.074792 0.00014100000000006108 0.997199
vn -0.080453 6.103382471122587E-17 0.996758
vn -0.080478 0.00018100000000006105 0.996756
vn -0.06911 0.0001410000000000611 0.997609
vn -0.063409 3.000000000006111E-05 0.997988
vn -0.063409 6.110914048937344E-17 0.997988
vn 0.01234 0.999923 0.0013899999999999388
vn 0.05374 0.998546 0.004181999999999939
vn 0.053577 0.998562 0.002121999999999939
vn -0.029235 0.999571 -0.0018450000000000612
vn -0.070485 0.997509 -0.0027950000000000613
vn -0.070774 0.997477 -0.0055070000000000605
vn -0.999995 -0.003135 -3.799999999999981E-05
vn -0.999417 0.034127 0.000878999999999998
vn -0.999419 0.034076 0.00041999999999999796
vn -0.999995 -0.003209 4.000000000000196E-06
vn -0.999186 -0.040342 -0.0004949999999999975
vn -0.999189 -0.040245 -0.0010369999999999976
vn -0.999995 -0.003151 0.0001320000000000002
vn -0.999425 0.033815 -0.0026310000000000023
vn -0.999419 0.034062 -0.0013360000000000021
vn -0.999996 -0.002958 3.0000000000001813E-06
vn -0.999184 -0.040359 0.0015990000000000023
vn -0.999175 -0.040497 0.0031510000000000028
vn 0.045757 -0.998951 -0.0015469999999999388
vn 0.121901 -0.992508 -0.00827399999999994
vn 0.12086 -0.992661 -0.00406699999999994
vn 0.045163 -0.99898 5.300000000006117E-05
vn -0.029606 -0.999561 0.000983000000000061
vn -0.029466 -0.999564 0.002000000000000061
vn 0.045543 -0.998962 0.001334000000000061
vn 0.118379 -0.992944 0.00695700000000006
vn 0.120457 -0.992712 0.003550000000000061
vn 0.046623 -0.998913 5.5000000000061165E-05
vn -0.029629 -0.999561 -0.0008899999999999387
vn -0.0297 -0.999557 -0.0017449999999999389
vn 0.001264 0.999999 1.6999999999938766E-05
vn 0.055013 0.998485 0.0014179999999999388
vn 0.05492 0.998491 0.0006769999999999388
vn 0.001162 0.999999 -1.0000000000612322E-06
vn -0.052395 0.998626 -0.0006430000000000612
vn -0.052283 0.998631 -0.0013470000000000613
vn 0.001242 0.999999 -3.700000000006123E-05
vn 0.054452 0.998507 -0.004237000000000061
vn 0.054896 0.99849 -0.0021510000000000613
vn 0.001544 0.999999 -2.0000000000612323E-06
vn -0.052416 0.998623 0.002075999999999939
vn -0.052576 0.998609 0.004090999999999939
vn -0.999916 0.012931 0.00016099999999999922
vn -0.997159 0.075301 0.0019409999999999955
vn -0.997169 0.075185 0.0009259999999999954
vn -0.999918 0.012813 -1.5000000000000785E-05
vn -0.99878 -0.049374 -0.000605999999999997
vn -0.998785 -0.049255 -0.001268999999999997
vn -0.999917 0.012904 -0.0004960000000000008
vn -0.997197 0.074596 -0.0058040000000000045
vn -0.997168 0.075154 -0.0029470000000000047
vn -0.999912 0.013268 -1.6000000000000812E-05
vn -0.998777 -0.049396 0.001957000000000003
vn -0.998763 -0.049565 0.0038570000000000032
vn -0.002495 0.999997 -9.100000000006123E-05
vn -0.048173 0.998834 -0.003270000000000061
vn -0.048007 0.998846 -0.001607000000000061
vn -0.002264 0.999997 2.999999999938768E-06
vn 0.043023 0.999073 0.001424999999999939
vn 0.042728 0.999083 0.0028999999999999387
vn -0.002437 0.999997 6.599999999993877E-05
vn -0.047609 0.998862 0.002797999999999939
vn -0.04794 0.998849 0.001426999999999939
vn -0.002678 0.999996 2.999999999938768E-06
vn 0.043072 0.999071 -0.001295000000000061
vn 0.043222 0.999062 -0.0025400000000000613
vn 0.008504 -0.999964 -0.00010299999999993877
vn -0.053643 -0.998559 0.001383000000000061
vn -0.053555 -0.998565 0.0006600000000000611
vn 0.00865 -0.999963 1.0000000000061231E-05
vn 0.070529 -0.997509 -0.000864999999999939
vn 0.070326 -0.997523 -0.0018119999999999389
vn 0.008534 -0.999964 0.0003510000000000612
vn -0.053109 -0.99858 -0.0041319999999999395
vn -0.053532 -0.998564 -0.002097999999999939
vn 0.008177 -0.999967 1.0000000000061231E-05
vn 0.070566 -0.997503 0.0027980000000000613
vn 0.070856 -0.997471 0.00551300000000006
g tree
f 1/1/1 2/2/2 3/3/3
f 4/4/4 5/5/5 6/6/6
f 7/7/7 8/8/8 9/9/9
f 10/10/10 11/11/11 12/12/12
f 13/13/13 14/14/14 15/15/15
f 16/16/16 17/17/17 18/18/18
f 19/19/19 20/20/20 21/21/21
f 22/22/22 23/23/23 24/24/24
f 25/25/25 26/26/26 27/27/27
f 28/28/28 29/29/29 30/30/30
f 31/31/31 32/32/32 33/33/33
f 34/34/34 35/35/35 36/36/36
f 37/37/37 38/38/38 39/39/39
f 40/40/40 41/41/41 42/42/42
f 43/43/43 44/44/44 45/45/45
f 46/46/46 47/47/47 48/48/48
f 49/49/49 50/50/50 51/51/51
f 52/52/52 53/53/53 54/54/54
f 55/55/55 56/56/56 57/57/57
f 58/58/58 59/59/59 60/60/60
f 61/61/61 62/62/62 63/63/63
f 64/64/64 65/65/65 66/66/66
f 67/67/67 68/68/68 69/69/69
f 69/69/69 70/70/70 71/71/71
f 72/72/72 73/73/73 74/74/74
f 74/74/74 75/75/75 76/76/76
f 77/77/77 78/78/78 79/79/79
f 79/79/79 80/80/80 81/81/81
f 82/82/82 83/83/83 84/84/84
f 84/84/84 85/85/85 86/86/86
f 87/87/87 88/88/88 89/89/89
f 89/89/89 90/90/90 91/91/91
f 92/92/92 93/93/93 94/94/94
f 94/94/94 95/95/95 96/96/96
f 97/97/97 98/98/98 99/99/99
f 99/99/99 100/100/100 101/101/101
f 102/102/102 103/103/103 104/104/104
f 104/104/104 105/105/105 106/106/106
f 107/107/107 108/108/108 109/109/109
f 109/109/109 110/110/110 111/111/111
f 112/112/112 113/113/113 114/114/114
f 114/114/114 115/115/115 116/116/116
f 117/117/117 118/118/118 119/119/119
f 119/119/119 120/120/120 121/121/121
f 122/122/122 123/123/123 124/124/124
f 124/124/124 125/125/125 122/122/122
f 126/126/126 127/127/127 128/128/128
f 128/128/128 129/129/129 126/126/126
f 130/130/130 131/131/131 132/132/132
f 132/132/132 133/133/133 130/130/130
f 134/134/134 135/135/135 136/136/136
f 136/136/136 137/137/137 134/134/134
f 138/138/138 139/139/139 140/140/140
f 140/140/140 141/141/141 138/138/138
f 142/142/142 143/143/143 144/144/144
f 144/144/144 145/145/145 142/142/142
f 146/146/146 147/147/147 148/148/148
f 148/148/148 149/149/149 146/146/146
f 150/150/150 151/151/151 152/152/152
f 152/152/152 153/153/153 150/150/150
f 154/154/154 155/155/155 156/156/156
f 156/156/156 157/157/157 154/154/154
f 158/158/158 159/159/159 160/160/160
f 160/160/160 161/161/161 158/158/158
f 162/162/162 163/163/163 164/164/164
f 164/164/164 165/165/165 162/162/162
f 166/166/166 167/167/167 168/168/168
f 168/168/168 169/169/169 166/166/166
f 170/170/170 171/171/171 172/172/172
f 172/172/172 173/173/173 170/170/170
f 174/174/174 175/175/175 176/176/176
f 176/176/176 177/177/177 174/174/174
f 178/178/178 179/179/179 180/180/180
f 180/180/180 181/181/181 178/178/178
f 182/182/182 183/183/183 184/184/184
f 184/184/184 185/185/185 182/182/182
f 186/186/186 187/187/187 188/188/188
f 188/188/188 189/189/189 186/186/186
f 190/190/190 191/191/191 192/192/192
f 192/192/192 193/193/193 190/190/190
f 194/194/194 195/195/195 196/196/196
f 196/196/196 197/197/197 194/194/194
f 198/198/198 199/199/199 200/200/200
f 200/200/200 201/201/201 198/198/198
f 202/202/202 203/203/203 204/204/204
f 204/204/204 205/205/205 202/202/202
f 206/206/206 207/207/207 208/208/208
f 208/208/208 209/209/209 206/206/206
f 210/210/210 211/211/211 212/212/212
f 212/212/212 213/213/213 210/210/210
f 214/214/214 215/215/215 216/216/216
f 216/216/216 217/217/217 214/214/214
f 218/218/218 219/219/219 220/220/220
f 220/220/220 221/221/221 218/218/218
f 222/222/222 223/223/223 224/224/224
f 224/224/224 225/225/225 222/222/222
f 226/226/226 227/227/227 228/228/228
f 228/228/228 229/229/229 226/226/226
f 230/230/230 231/231/231 232/232/232
f 232/232/232 233/233/233 230/230/230
f 234/234/234 235/235/235 236/236/236
f 236/236/236 237/237/237 234/234/234
f 238/238/238 239/239/239 240/240/240
f 240/240/240 241/241/241 238/238/238
f 242/242/242 243/243/243 244/244/244
f 244/244/244 245/245/245 242/242/242
f 246/246/246 247/247/247 248/248/248
f 248/248/248 249/249/249 246/246/246
f 250/250/250 251/251/251 252/252/252
f 252/252/252 253/253/253 250/250/250
f 254/254/254 255/255/255 256/256/256
f 256/256/256 257/257/257 254/254/254
f 258/258/258 259/259/259 260/260/260
f 260/260/260 261/261/261 258/258/258
f 262/262/262 263/263/263 264/264/264
f 264/264/264 265/265/265 262/262/262
f 266/266/266 267/267/267 268/268/268
f 268/268/268 269/269/269 266/266/266
f 270/270/270 271/271/271 272/272/272
f 272/272/272 273/273/273 270/270/270
f 274/274/274 275/275/275 276/276/276
f 276/276/276 277/277/277 274/274/274
f 278/278/278 279/279/279 280/280/280
f 280/280/280 281/281/281 278/278/278
f 282/282/282 283/283/283 284/284/284
f 284/284/284 285/285/285 282/282/282
f 286/286/286 287/287/287 288/288/288
f 288/288/288 289/289/289 286/286/286
f 290/290/290 291/291/291 292/292/292
f 292/292/292 293/293/293 290/290/290
f 294/294/294 295/295/295 296/296/296
f 296/296/296 297/297/297 294/294/294
f 298/298/298 299/299/299 300/300/300
f 300/300/300 301/301/301 298/298/298
f 302/302/302 303/303/303 304/304/304
f 304/304/304 305/305/305 302/302/302
f 306/306/306 307/307/307 308/308/308
f 308/308/308 309/309/309 306/306/306
f 310/310/310 311/311/311 312/312/312
f 312/312/312 313/313/313 310/310/310
f 314/314/314 315/315/315 316/316/316
f 316/316/316 317/317/317 314/314/314
f 318/318/318 319/319/319 320/320/320
f 320/320/320 321/321/321 318/318/318
f 322/322/322 323/323/323 324/324/324
f 324/324/324 325/325/325 322/322/322
f 326/326/326 327/327/327 328/328/328
f 328/328/328 329/329/329 326/326/326
f 330/330/330 331/331/331 332/332/332
f 332/332/332 333/333/333 330/330/330
f 334/334/334 335/335/335 336/336/336
f 336/336/336 337/337/337 334/334/334
f 338/338/338 339/339/339 340/340/340
f 340/340/340 341/341/341 338/338/338
f 342/342/342 343/343/343 344/344/344
f 344/344/344 345/345/345 342/342/342
f 346/346/346 347/347/347 348/348/348
f 348/348/348 349/349/349 346/346/346
f 350/350/350 351/351/351 352/352/352
f 352/352/352 353/353/353 350/350/350
f 354/354/354 350/350/350 353/353/353
f 353/353/353 355/355/355 354/354/354
f 356/356/356 357/357/357 358/358/358
f 358/358/358 359/359/359 356/356/356
f 360/360/360 356/356/356 359/359/359
f 359/359/359 361/361/361 360/360/360
f 362/362/362 363/363/363 364/364/364
f 364/364/364 365/365/365 362/362/362
f 366/366/366 362/362/362 365/365/365
f 365/365/365 367/367/367 366/366/366
f 368/368/368 369/369/369 370/370/370
f 370/370/370 371/371/371 368/368/368
f 372/372/372 368/368/368 371/371/371
f 371/371/371 373/373/373 372/372/372
f 374/374/374 375/375/375 376/376/376
f 376/376/376 377/377/377 374/374/374
f 378/378/378 374/374/374 377/377/377
f 377/377/377 379/379/379 378/378/378
f 380/380/380 381/381/381 382/382/382
f 382/382/382 383/383/383 380/380/380
f 384/384/384 380/380/380 383/383/383
f 383/383/383 385/385/385 384/384/384
f 386/386/386 387/387/387 388/388/388
f 388/388/388 389/389/389 386/386/386
f 390/390/390 386/386/386 389/389/389
f 389/389/389 391/391/391 390/390/390
f 392/392/392 393/393/393 394/394/394
f 394/394/394 395/395/395 392/392/392
f 396/396/396 392/392/392 395/395/395
f 395/395/395 397/397/397 396/396/396
f 398/398/398 399/399/399 400/400/400
f 400/400/400 401/401/401 398/398/398
f 402/402/402 398/398/398 401/401/401
f 401/401/401 403/403/403 402/402/402
f 404/404/404 405/405/405 406/406/406
f 406/406/406 407/407/407 404/404/404
f 408/408/408 404/404/404 407/407/407
f 407/407/407 409/409/409 408/408/408
f 410/410/410 411/411/411 412/412/412
f 412/412/412 413/413/413 410/410/410
f 414/414/414 410/410/410 413/413/413
f 413/413/413 415/415/415 414/414/414
f 416/416/416 417/417/417 418/418/418
f 418/418/418 419/419/419 416/416/416
f 420/420/420 416/416/416 419/419/419
f 419/419/419 421/421/421 420/420/420
f 422/422/422 423/423/423 424/424/424
f 424/424/424 425/425/425 422/422/422
f 426/426/426 422/422/422 425/425/425
f 425/425/425 427/427/427 426/426/426
f 428/428/428 429/429/429 430/430/430
f 430/430/430 431/431/431 428/428/428
f 432/432/432 428/428/428 431/431/431
f 431/431/431 433/433/433 432/432/432
f 434/434/434 435/435/435 436/436/436
f 436/436/436 437/437/437 434/434/434
f 438/438/438 434/434/434 437/437/437
f 437/437/437 439/439/439 438/438/438
f 440/440/440 441/441/441 442/442/442
f 442/442/442 443/443/443 440/440/440
f 444/444/444 440/440/440 443/443/443
f 443/443/443 445/445/445 444/444/444
f 446/446/446 447/447/447 448/448/448
f 448/448/448 449/449/449 446/446/446
f 450/450/450 446/446/446 449/449/449
f 449/449/449 451/451/451 450/450/450
f 452/452/452 453/453/453 454/454/454
f 454/454/454 455/455/455 452/452/452
f 456/456/456 452/452/452 455/455/455
f 455/455/455 457/457/457 456/456/456
f 458/458/458 459/459/459 460/460/460
f 460/460/460 461/461/461 458/458/458
f 462/462/462 458/458/458 461/461/461
f 461/461/461 463/463/463 462/462/462
f 464/464/464 465/465/465 466/466/466
f 466/466/466 467/467/467 464/464/464
f 468/468/468 464/464/464 467/467/467
f 467/467/467 469/469/469 468/468/468
f 470/470/470 471/471/471 472/472/472
f 472/472/472 473/473/473 470/470/470
f 474/474/474 470/470/470 473/473/473
f 473/473/473 475/475/475 474/474/474
f 476/476/476 477/477/477 478/478/478
f 478/478/478 479/479/479 476/476/476
f 480/480/480 476/476/476 479/479/479
f 479/479/479 481/481/481 480/480/480
f 482/482/482 483/483/483 484/484/484
f 484/484/484 485/485/485 482/482/482
f 486/486/486 482/482/482 485/485/485
f 485/485/485 487/487/487 486/486/486
f 488/488/488 489/489/489 490/490/490
f 490/490/490 491/491/491 488/488/488
f 492/492/492 488/488/488 491/491/491
f 491/491/491 493/493/493 492/492/492
f 494/494/494 495/495/495 496/496/496
f 496/496/496 497/497/497 494/494/494
f 494/494/494 497/497/497 498/498/498
f 498/498/498 499/499/499 494/494/494
f 500/500/500 501/501/501 502/502/502
f 502/502/502 503/503/503 500/500/500
f 500/500/500 503/503/503 504/504/504
f 504/504/504 505/505/505 500/500/500
f 506/506/506 507/507/507 508/508/508
f 508/508/508 509/509/509 506/506/506
f 506/506/506 509/509/509 510/510/510
f 510/510/510 511/511/511 506/506/506
f 512/512/512 513/513/513 514/514/514
f 514/514/514 515/515/515 512/512/512
f 512/512/512 515/515/515 516/516/516
f 516/516/516 517/517/517 512/512/512
f 518/518/518 519/519/519 520/520/520
f 520/520/520 521/521/521 518/518/518
f 518/518/518 521/521/521 522/522/522
f 522/522/522 523/523/523 518/518/518
f 524/524/524 525/525/525 526/526/526
f 526/526/526 527/527/527 524/524/524
f 524/524/524 527/527/527 528/528/528
f 528/528/528 529/529/529 524/524/524
f 530/530/530 531/531/531 532/532/532
f 532/532/532 533/533/533 530/530/530
f 530/530/530 533/533/533 534/534/534
f 534/534/534 535/535/535 530/530/530
f 536/536/536 537/537/537 538/538/538
f 538/538/538 539/539/539 536/536/536
f 536/536/536 539/539/539 540/540/540
f 540/540/540 541/541/541 536/536/536
f 542/542/542 543/543/543 544/544/544
f 544/544/544 545/545/545 542/542/542
f 542/542/542 545/545/545 546/546/546
f 546/546/546 547/547/547 542/542/542
f 548/548/548 549/549/549 550/550/550
f 550/550/550 551/551/551 548/548/548
f 548/548/548 551/551/551 552/552/552
f 552/552/552 553/553/553 548/548/548
f 554/554/554 555/555/555 556/556/556
f 556/556/556 557/557/557 554/554/554
f 554/554/554 557/557/557 558/558/558
f 558/558/558 559/559/559 554/554/554
f 560/560/560 561/561/561 562/562/562
f 562/562/562 563/563/563 560/560/560
f 560/560/560 563/563/563 564/564/564
f 564/564/564 565/565/565 560/560/560
