v 2E-06 0.6015140000000002 2.755753
v 0.217867 0.41118400000000016 2.81802
v 0.254537 0.5463420000000002 2.755753
v -0.218985 0.40811500000000017 2.81802
v -0.254902 0.5427630000000002 2.755753
v 0.000589 -0.554061 0.57791
v -0.55406 3.5386781584762346E-17 0.57791
v 0 0.554141 0.57791
v 0.207548 0.513711 0.57791
v 0.554061 3.5386781584762346E-17 0.57791
v -0.39178 -0.39177999999999996 0.57791
v -0.206826 0.514277 0.57791
v 0.39178 0.3917800000000001 0.57791
v 0.39178 -0.39177999999999996 0.57791
v -0.207548 -0.51371 0.57791
v 0.206827 -0.514278 0.57791
v 0.513711 -0.20754799999999998 0.57791
v 0.514278 0.20682600000000004 0.57791
v -0.514277 -0.20682599999999998 0.57791
v -0.51371 0.20754800000000004 0.57791
v -0.517809 0.51781 7.999999999968294E-06
v -0.280456 0.67646 -0.0001970000000000414
v 0 0.732294 -7.600000000004485E-05
v 0.280423 0.676474 5.3999999999958575E-05
v 0.51781 0.51781 7.999999999968294E-06
v 0.67646 0.280456 -0.00019700000000001718
v 0.732294 4.898587196589413E-22 8E-06
v 0.676474 -0.280423 5.400000000001717E-05
v 0.51781 -0.51781 8.000000000031706E-06
v 0.280457 -0.67646 -0.00019699999999995857
v -2.5E-05 -0.732294 8.00000000004484E-06
v -0.280423 -0.676474 5.400000000004142E-05
v -0.51781 -0.51781 8.000000000031706E-06
v -0.67646 -0.280457 -0.0001969999999999828
v -0.732294 4.898587196589413E-22 8E-06
v -0.676474 0.280423 5.399999999998283E-05
v -0.236871 0.588769 0.577677
v -0.448575 0.44856100000000004 0.57791
v -0.588152 0.23768700000000004 0.577903
v -0.634372 5.3000000000035386E-05 0.57791
v -0.588775 -0.23685999999999996 0.577676
v -0.448563 -0.4485739999999999 0.57791
v -0.237676 -0.588155 0.577902
v 0.000611 -0.634371 0.57791
v 0.236871 -0.588768 0.577678
v 0.448572 -0.44856099999999993 0.57791
v 0.588148 -0.23768799999999998 0.577903
v 0.634368 -5.399999999996461E-05 0.57791
v 0.588771 0.23686000000000001 0.577676
v 0.448559 0.44857300000000006 0.57791
v 0.237695 0.588146 0.577904
v 5.2E-05 0.634454 0.577841
v 0.068613 0.840377 -5.1458250156352764E-17
v 0.102132 0.840377 -5.1458250156352764E-17
v 0.068613 0.806858 -4.940580335332175E-17
v 0.102132 0.806858 -4.940580335332175E-17
v 0.068613 0.840377 0.698686
v 0.102132 0.840377 0.698686
v 0.068613 0.806858 0.698686
v 0.102132 0.806858 0.698686
v -0.312429 0.840377 -5.1458250156352764E-17
v -0.278909 0.840377 -5.1458250156352764E-17
v -0.312429 0.806858 -4.940580335332175E-17
v -0.278909 0.806858 -4.940580335332175E-17
v -0.312429 0.840377 0.698686
v -0.278909 0.840377 0.698686
v -0.312429 0.806858 0.698686
v -0.278909 0.806858 0.698686
v 0.073801 0.836531 0.4259549999999999
v 0.073801 0.836531 0.46546099999999996
v -0.284725 0.836531 0.46546099999999996
v -0.284725 0.836531 0.4259549999999999
v -0.282706 0.83826 0.45836299999999996
v 0.097632 0.601378 0.698484
v 0.097632 0.838574 0.45836299999999996
v 0.072803 0.83826 0.45836299999999996
v -0.280687 0.550329 0.698484
v -0.306515 0.838574 0.45836299999999996
v -0.33692 0.870698 0.720934
v 0.123614 0.870698 0.720934
v -0.33692 0.49911400000000006 0.720934
v 0.123614 0.49911400000000006 0.720934
v 0.089512 0.827802 0.820711
v 0.388214 0.827802 -0.0017170000000000507
v 0.388214 0.642606 -0.0017170000000000392
v 0.089512 0.642606 0.820711
v 0.068613 0.737174 -4.513888897573255E-17
v 0.102132 0.737174 -4.513888897573255E-17
v 0.102132 0.604882 0.698686
v 0.070208 0.60313 0.698585
v 0.102132 0.703655 -4.3086442172701543E-17
v 0.102132 0.571363 0.698686
v 0.068613 0.703655 -4.3086442172701543E-17
v 0.068613 0.571362 0.698686
v -0.310471 0.686032 -4.200734464563285E-17
v -0.276952 0.686032 -4.200734464563285E-17
v -0.276952 0.55374 0.698686
v -0.308493 0.552034 0.698585
v -0.276952 0.652512 -3.9954836610261885E-17
v -0.276952 0.52022 0.698686
v -0.310471 0.652512 -3.9954836610261885E-17
v -0.310471 0.52022 0.698686
v -0.39178 0.3917800000000001 0.57791
v 0.546342 -0.25453699999999985 2.755753
v 0.411184 -0.21786699999999984 2.81802
v 0.601514 -1.9999999998312587E-06 2.755753
v 0.542763 0.2549020000000002 2.755753
v 0.408115 0.21898500000000018 2.81802
v -0.254537 -0.5463419999999998 2.755753
v -0.217867 -0.4111839999999998 2.81802
v -2E-06 -0.6015139999999998 2.755753
v 0.254902 -0.5427629999999998 2.755753
v 0.218985 -0.40811499999999984 2.81802
v -0.546342 0.2545370000000002 2.755753
v -0.411184 0.21786800000000017 2.81802
v -0.601514 2.000000000168741E-06 2.755753
v -0.542763 -0.25490199999999985 2.755753
v -0.408115 -0.21898499999999985 2.81802
v 0.386858 0.513349 -3.1433560484774735E-17
v 0.542267 0.668758 -4.094961720520928E-17
v 0.510918 0.389289 -2.38370763896637E-17
v 0.666327 0.544698 -3.335313311009825E-17
v 0.401425 0.510206 0.42591699999999993
v 0.504215 0.407416 0.425917
v -0.513349 0.386858 -2.3688220571227336E-17
v -0.668758 0.542267 -3.320427729166189E-17
v -0.38929 0.510918 -3.128470466633837E-17
v -0.544698 0.666326 -4.080070015443296E-17
v -0.510447 0.397457 0.425917
v -0.407657 0.500247 0.42591699999999993
v -0.386858 -0.513349 3.1433560484774735E-17
v -0.542267 -0.668758 4.094961720520928E-17
v -0.510918 -0.389289 2.38370763896637E-17
v -0.666327 -0.544698 3.335313311009825E-17
v -0.39748 -0.511388 0.42591700000000005
v -0.50027 -0.408598 0.425917
v 0.513349 -0.386858 2.3688220571227336E-17
v 0.668758 -0.542267 3.320427729166189E-17
v 0.38929 -0.510918 3.128470466633837E-17
v 0.544698 -0.666327 4.080076138677292E-17
v 0.504223 -0.406402 0.425917
v 0.401433 -0.509192 0.42591700000000005
v 0.089512 0.827802 0.820711
v 0.388214 0.827802 -0.0017170000000000507
v 0.388214 0.642606 -0.0017170000000000392
v 0.089512 0.642606 0.820711
v 0.070208 0.60313 0.698585
v -0.308493 0.552034 0.698585
v -0.21272 0.525185 -3.215830646051014E-17
v 0.000109 0.561429 -3.4377611389924963E-17
v 0.215175 0.526368 -3.22307443186797E-17
v 0.408674 0.408021 -2.498408058174511E-17
v 0.52231 0.20849 -1.2766330557711584E-17
v 0.556964 0.000688 -4.2127849890668953E-20
v 0.51452 -0.207576 1.271036419899055E-17
v 0.395961 -0.398483 2.4400046523231737E-17
v 0.211051 -0.520357 3.186267672319596E-17
v 0.001233 -0.561501 3.43820201184019E-17
v -0.210673 -0.52093 3.189776285399153E-17
v -0.396593 -0.400889 2.4547371533169164E-17
v -0.513374 -0.204759 1.2537872697330644E-17
v -0.564615 -0.0035 2.1431318985078682E-19
v -0.517559 0.208884 -1.2790456099654786E-17
v -0.393713 0.391222 -2.3955438502801293E-17
v -0.21272 0.5251850000000002 2.764367
v 0.000109 0.5614290000000002 2.764367
v 0.215175 0.5263680000000002 2.764367
v 0.408674 0.4080210000000002 2.764367
v 0.52231 0.20849000000000018 2.764367
v 0.556964 0.0006880000000001693 2.764367
v 0.51452 -0.20757599999999984 2.764367
v 0.395961 -0.3984829999999998 2.764367
v 0.211051 -0.5203569999999997 2.764367
v 0.001233 -0.5615009999999998 2.764367
v -0.210673 -0.5209299999999998 2.764367
v -0.396593 -0.40088899999999983 2.764367
v -0.513374 -0.20475899999999983 2.764367
v -0.564615 -0.003499999999999831 2.764367
v -0.517559 0.20888400000000015 2.764367
v -0.393714 0.3912220000000002 2.764367
v -0.21272 0.525185 -3.215830646051014E-17
v 0.000109 0.561429 -3.4377611389924963E-17
v 0.000109 0.5614290000000002 2.764367
v -0.21272 0.5251850000000002 2.764367
v 0.215175 0.526368 -3.22307443186797E-17
v 0.215175 0.5263680000000002 2.764367
v 0.408674 0.408021 -2.498408058174511E-17
v 0.408674 0.4080210000000002 2.764367
v 0.52231 0.20849 -1.2766330557711584E-17
v 0.52231 0.20849000000000018 2.764367
v 0.556964 0.000688 -4.2127849890668953E-20
v 0.556964 0.0006880000000001693 2.764367
v 0.51452 -0.207576 1.271036419899055E-17
v 0.51452 -0.20757599999999984 2.764367
v 0.395961 -0.398483 2.4400046523231737E-17
v 0.395961 -0.3984829999999998 2.764367
v 0.211051 -0.520357 3.186267672319596E-17
v 0.211051 -0.5203569999999997 2.764367
v 0.001233 -0.561501 3.43820201184019E-17
v 0.001233 -0.5615009999999998 2.764367
v -0.210673 -0.52093 3.189776285399153E-17
v -0.210673 -0.5209299999999998 2.764367
v -0.396593 -0.400889 2.4547371533169164E-17
v -0.396593 -0.40088899999999983 2.764367
v -0.513374 -0.204759 1.2537872697330644E-17
v -0.513374 -0.20475899999999983 2.764367
v -0.564615 -0.0035 2.1431318985078682E-19
v -0.564615 -0.003499999999999831 2.764367
v -0.517559 0.208884 -1.2790456099654786E-17
v -0.517559 0.20888400000000015 2.764367
v -0.393713 0.391222 -2.3955438502801293E-17
v -0.393714 0.3912220000000002 2.764367
v 0.52231 0.20849000000000015 2.309515
v -0.21272 0.5251850000000001 2.309515
v 0.000109 0.5614290000000001 2.309515
v -0.393714 0.3912220000000002 2.309515
v 0.215175 0.5263680000000001 2.309515
v 0.408674 0.4080210000000002 2.309515
v 0.51452 -0.20757599999999987 2.309515
v 0.395961 -0.3984829999999998 2.309515
v 0.556964 0.0006880000000001414 2.309515
v 0.211051 -0.5203569999999998 2.309515
v 0.001233 -0.5615009999999999 2.309515
v -0.210673 -0.5209299999999999 2.309515
v -0.396593 -0.40088899999999983 2.309515
v -0.513374 -0.20475899999999986 2.309515
v -0.564615 -0.0034999999999998587 2.309515
v -0.517559 0.20888400000000013 2.309515
v 0.459463 0.19095300000000018 2.495389
v 0.189933 0.4606990000000002 2.495389
v 0.221477 0.5372490000000001 2.495389
v 0.409924 0.41134400000000015 2.495389
v 0.535911 0.22278200000000017 2.495389
v 0.190324 -0.45997799999999983 2.495389
v 0.460069 -0.19044799999999984 2.495389
v 0.536618 -0.22199199999999983 2.495389
v 0.410714 -0.41043899999999983 2.495389
v 0.222151 -0.5364259999999998 2.495389
v -0.460607 -0.19083899999999984 2.495389
v -0.191078 -0.4605839999999998 2.495389
v -0.222623 -0.5371329999999999 2.495389
v -0.411069 -0.41122899999999984 2.495389
v -0.537057 -0.22266599999999984 2.495389
v -0.191468 0.46009200000000017 2.495389
v -0.461214 0.19056300000000018 2.495389
v -0.537764 0.22210800000000017 2.495389
v -0.411859 0.41055400000000014 2.495389
v -0.223297 0.5365420000000001 2.495389
v 0.448572 -0.44856099999999993 0.57791
v 0.51781 -0.51781 8.000000000031706E-06
v 0.448559 0.44857300000000006 0.57791
v 0.51781 0.51781 7.999999999968294E-06
v -0.448575 0.44856100000000004 0.57791
v -0.448575 0.44856100000000004 0.57791
v -0.236871 0.588769 0.577677
v -0.206826 0.514277 0.57791
v -0.588152 0.23768700000000004 0.577903
v -0.634372 5.3000000000035386E-05 0.57791
v -0.55406 3.5386781584762346E-17 0.57791
v -0.588775 -0.23685999999999996 0.577676
v -0.588775 -0.23685999999999996 0.577676
v -0.514277 -0.20682599999999998 0.57791
v -0.448563 -0.4485739999999999 0.57791
v -0.448563 -0.4485739999999999 0.57791
v -0.237676 -0.588155 0.577902
v 0.000611 -0.634371 0.57791
v 0.000589 -0.554061 0.57791
v 0.236871 -0.588768 0.577678
v 0.236871 -0.588768 0.577678
v 0.206827 -0.514278 0.57791
v 0.448572 -0.44856099999999993 0.57791
v 0.448572 -0.44856099999999993 0.57791
v 0.588148 -0.23768799999999998 0.577903
v 0.634368 -5.399999999996461E-05 0.57791
v 0.554061 3.5386781584762346E-17 0.57791
v 0.588771 0.23686000000000001 0.577676
v 0.588771 0.23686000000000001 0.577676
v 0.514278 0.20682600000000004 0.57791
v 0.448559 0.44857300000000006 0.57791
v 0.448559 0.44857300000000006 0.57791
v 0.237695 0.588146 0.577904
v 5.2E-05 0.634454 0.577841
v 0 0.554141 0.57791
v -0.236871 0.588769 0.577677
v 5.2E-05 0.634454 0.577841
v 0 0.554141 0.57791
v 0.401425 0.510206 0.42591699999999993
v 0.542267 0.668758 -4.094961720520928E-17
v 0.504215 0.407416 0.425917
v 0.666327 0.544698 -3.335313311009825E-17
v -0.510447 0.397457 0.425917
v -0.668758 0.542267 -3.320427729166189E-17
v -0.407657 0.500247 0.42591699999999993
v -0.544698 0.666326 -4.080070015443296E-17
v -0.39748 -0.511388 0.42591700000000005
v -0.542267 -0.668758 4.094961720520928E-17
v -0.50027 -0.408598 0.425917
v -0.666327 -0.544698 3.335313311009825E-17
v 0.504223 -0.406402 0.425917
v 0.668758 -0.542267 3.320427729166189E-17
v 0.401433 -0.509192 0.42591700000000005
v 0.544698 -0.666327 4.080076138677292E-17
v 0.408674 0.408021 -2.498408058174511E-17
v 0.408674 0.4080210000000002 2.764367
v 0.395961 -0.398483 2.4400046523231737E-17
v 0.395961 -0.3984829999999998 2.764367
v 0.408674 0.408021 -2.498408058174511E-17
v 0.408674 0.4080210000000002 2.764367
v 0.395961 -0.398483 2.4400046523231737E-17
v 0.395961 -0.3984829999999998 2.764367
vt 0.770412 0.818692
vt 0.853196 0.742613
vt 0.868319 0.799497
vt 0.685152 0.742615
vt 0.671758 0.799500
vt 0.738585 0.038820
vt 0.641412 0.255997
vt 0.858533 0.353025
vt 0.912985 0.319069
vt 0.955531 0.135890
vt 0.644949 0.127350
vt 0.795583 0.364143
vt 0.951993 0.264537
vt 0.867065 0.042422
vt 0.683958 0.072818
vt 0.801359 0.027744
vt 0.921598 0.081430
vt 0.966671 0.198831
vt 0.630272 0.193056
vt 0.675345 0.310457
vt 0.433465 0.989154
vt 0.487158 0.989154
vt 0.539042 0.989154
vt 0.591129 0.989154
vt 0.644833 0.989154
vt 0.275072 0.989441
vt 0.326787 0.989441
vt 0.379125 0.989441
vt 0.432668 0.989441
vt 0.065503 0.989154
vt 0.116700 0.989154
vt 0.168798 0.989154
vt 0.222176 0.989154
vt 0.275869 0.989154
vt 0.327584 0.989154
vt 0.379921 0.989154
vt 0.487158 0.841875
vt 0.433465 0.841853
vt 0.379921 0.841853
vt 0.327584 0.841853
vt 0.275869 0.841853
vt 0.222176 0.841838
vt 0.168798 0.841824
vt 0.116700 0.841824
vt 0.065503 0.841824
vt 0.432668 0.841853
vt 0.379125 0.841853
vt 0.326787 0.841853
vt 0.275072 0.841853
vt 0.644833 0.841875
vt 0.591129 0.841875
vt 0.539042 0.841875
vt 0.192340 0.221253
vt 0.192340 0.210673
vt 0.192340 0.231832
vt 0.192340 0.242412
vt 0.010809 0.221253
vt 0.010809 0.210673
vt 0.010809 0.231832
vt 0.010809 0.242412
vt 0.192588 0.272561
vt 0.192588 0.261981
vt 0.192588 0.283141
vt 0.192588 0.293721
vt 0.011057 0.272561
vt 0.011057 0.261981
vt 0.011057 0.283141
vt 0.011057 0.293721
vt 0.608384 0.291340
vt 0.608384 0.281075
vt 0.515625 0.281076
vt 0.515625 0.291340
vt 0.971812 0.749256
vt 0.935166 0.661776
vt 0.935166 0.743062
vt 0.928377 0.743062
vt 0.971812 0.658649
vt 0.965104 0.749256
vt 0.808847 0.866208
vt 0.668850 0.866209
vt 0.808857 0.979154
vt 0.668861 0.979155
vt 0.986724 0.652137
vt 0.986723 0.354324
vt 0.923689 0.354325
vt 0.923690 0.652137
vt 0.196002 0.160288
vt 0.196002 0.149956
vt 0.011235 0.149956
vt 0.928376 0.661776
vt 0.196002 0.180990
vt 0.011235 0.180990
vt 0.196002 0.170411
vt 0.011235 0.170411
vt 0.196304 0.132264
vt 0.196304 0.121993
vt 0.011537 0.121993
vt 0.965103 0.658649
vt 0.196304 0.111607
vt 0.011537 0.111607
vt 0.196304 0.101027
vt 0.011537 0.101027
vt 0.729878 0.349465
vt 0.863631 0.575820
vt 0.848508 0.518936
vt 0.765724 0.595015
vt 0.667071 0.575823
vt 0.680464 0.518938
vt 0.870164 0.685064
vt 0.855041 0.628179
vt 0.772257 0.704258
vt 0.673604 0.685066
vt 0.686997 0.628181
vt 0.871014 0.459541
vt 0.855890 0.402656
vt 0.773107 0.478735
vt 0.674453 0.459544
vt 0.687847 0.402659
vt 0.631761 0.024007
vt 0.572982 0.009320
vt 0.474503 0.024095
vt 0.532557 0.009432
vt 0.572987 0.147545
vt 0.532562 0.147546
vt 0.988600 0.853940
vt 0.929822 0.839251
vt 0.831343 0.854024
vt 0.889397 0.839362
vt 0.929823 0.977476
vt 0.889398 0.977476
vt 0.516813 0.180540
vt 0.458035 0.165851
vt 0.359555 0.180623
vt 0.417610 0.165962
vt 0.458036 0.304076
vt 0.417611 0.304076
vt 0.203312 0.290478
vt 0.262090 0.305168
vt 0.360570 0.290396
vt 0.302515 0.305057
vt 0.262090 0.166943
vt 0.302515 0.166943
vt 0.986724 0.652137
vt 0.986723 0.354324
vt 0.923689 0.354325
vt 0.923690 0.652137
vt 0.011235 0.160288
vt 0.011537 0.132264
vt 0.488092 0.977199
vt 0.539474 0.977199
vt 0.590856 0.977199
vt 0.645805 0.977199
vt 0.271012 0.977431
vt 0.327015 0.977405
vt 0.375558 0.977405
vt 0.434393 0.977405
vt 0.068026 0.977199
vt 0.117300 0.977199
vt 0.167418 0.977199
vt 0.221942 0.977199
vt 0.277019 0.977199
vt 0.327175 0.977199
vt 0.382035 0.977199
vt 0.435003 0.977199
vt 0.488092 0.314270
vt 0.539474 0.314270
vt 0.590856 0.314270
vt 0.645805 0.314270
vt 0.271012 0.314258
vt 0.327015 0.314283
vt 0.375558 0.314283
vt 0.434393 0.314283
vt 0.068026 0.314270
vt 0.117300 0.314270
vt 0.167418 0.314270
vt 0.221942 0.314270
vt 0.277019 0.314270
vt 0.327175 0.314270
vt 0.382035 0.314270
vt 0.435003 0.314270
vt 0.488092 0.977199
vt 0.539474 0.977199
vt 0.539474 0.314270
vt 0.488092 0.314270
vt 0.590856 0.977199
vt 0.590856 0.314270
vt 0.645805 0.977199
vt 0.645805 0.314270
vt 0.271012 0.977431
vt 0.271012 0.314258
vt 0.327015 0.977405
vt 0.327015 0.314283
vt 0.375558 0.977405
vt 0.375558 0.314283
vt 0.434393 0.977405
vt 0.434393 0.314283
vt 0.068026 0.977199
vt 0.068026 0.314270
vt 0.117300 0.977199
vt 0.117300 0.314270
vt 0.167418 0.977199
vt 0.167418 0.314270
vt 0.221942 0.977199
vt 0.221942 0.314270
vt 0.275148 0.977199
vt 0.275148 0.314270
vt 0.327175 0.977199
vt 0.327175 0.314270
vt 0.382035 0.977199
vt 0.382035 0.314270
vt 0.435003 0.977199
vt 0.435003 0.314270
vt 0.925487 0.250623
vt 0.741618 0.322764
vt 0.794834 0.333870
vt 0.696884 0.291642
vt 0.848493 0.324774
vt 0.894365 0.295356
vt 0.927497 0.143747
vt 0.898079 0.097876
vt 0.936592 0.197407
vt 0.853345 0.066754
vt 0.800129 0.055648
vt 0.746470 0.064744
vt 0.700598 0.094162
vt 0.669476 0.138895
vt 0.658371 0.192111
vt 0.667466 0.245771
vt 0.393126 0.105858
vt 0.285418 0.105858
vt 0.285418 0.126831
vt 0.339780 0.126831
vt 0.393126 0.126831
vt 0.201576 0.070287
vt 0.093868 0.070287
vt 0.093868 0.091260
vt 0.148230 0.091260
vt 0.201576 0.091260
vt 0.393126 0.105858
vt 0.285418 0.105858
vt 0.285418 0.126831
vt 0.339780 0.126831
vt 0.393126 0.126831
vt 0.201576 0.070287
vt 0.093868 0.070287
vt 0.093868 0.091260
vt 0.148230 0.091260
vt 0.201576 0.091260
vt 0.012133 0.841824
vt 0.012133 0.989154
vt 0.221379 0.841838
vt 0.221379 0.989427
vt 0.720941 0.369458
vt 0.720941 0.369458
vt 0.795183 0.386041
vt 0.795583 0.364143
vt 0.659322 0.325384
vt 0.620962 0.263833
vt 0.641412 0.255997
vt 0.608373 0.192659
vt 0.608373 0.192659
vt 0.630272 0.193056
vt 0.624956 0.118414
vt 0.624956 0.118414
vt 0.669034 0.056792
vt 0.730768 0.018364
vt 0.738585 0.038820
vt 0.801760 0.005847
vt 0.801760 0.005847
vt 0.801359 0.027744
vt 0.876000 0.022429
vt 0.876000 0.022429
vt 0.937620 0.066503
vt 0.975979 0.128054
vt 0.955531 0.135890
vt 0.988568 0.199228
vt 0.988568 0.199228
vt 0.966671 0.198831
vt 0.971986 0.273473
vt 0.971986 0.273473
vt 0.927913 0.335090
vt 0.866369 0.373475
vt 0.858533 0.353025
vt 0.795183 0.386041
vt 0.866369 0.373475
vt 0.858533 0.353025
vt 0.605539 0.134337
vt 0.572982 0.009320
vt 0.499767 0.134649
vt 0.532557 0.009432
vt 0.962376 0.964269
vt 0.929822 0.839251
vt 0.856604 0.964578
vt 0.889397 0.839362
vt 0.490588 0.290868
vt 0.458035 0.165851
vt 0.384816 0.291178
vt 0.417610 0.165962
vt 0.229537 0.180150
vt 0.262090 0.305168
vt 0.335309 0.179842
vt 0.302515 0.305057
vt 0.223888 0.977456
vt 0.223888 0.314233
vt 0.012691 0.977199
vt 0.012691 0.314270
vt 0.223888 0.977456
vt 0.223888 0.314233
vt 0.012691 0.977199
vt 0.012691 0.314270
vn 0.01433 0.32568400000000003 0.94537
vn 0.00856 0.35735200000000006 0.933931
vn 0.086161 0.39749600000000007 0.91355
vn -0.002944 0.41908700000000004 0.907941
vn -0.030437 0.33610600000000007 0.941332
vn 0 1.0000000000612324E-06 1
vn 0 6.123233995736766E-17 1
vn 0.000168 0.0008630000000000613 1
vn 4.5E-05 6.800000000006123E-05 1
vn 0 6.123233995736766E-17 1
vn 0 6.123233995736766E-17 1
vn 0 6.123233995736766E-17 1
vn 0 6.123233995736766E-17 1
vn 0 6.123233995736766E-17 1
vn -5.9E-05 -8.799999999993877E-05 1
vn 0.00056 -0.002900999999999939 0.999996
vn 7.6E-05 -4.999999999993877E-05 1
vn 0.002917 0.0005610000000000612 0.999996
vn -0.002917 -0.0005609999999999387 0.999996
vn -7.6E-05 5.000000000006123E-05 1
vn -0.697127 0.697212 0.16706299999999993
vn -0.435561 0.884634 0.16646299999999994
vn 0.000398 0.986142 0.16590199999999994
vn 0.435502 0.884607 0.16675899999999994
vn 0.697211 0.697126 0.16706799999999994
vn 0.884628 0.435572 0.16646799999999998
vn 0.98613 -0.00039899999999998986 0.165977
vn 0.884601 -0.435514 0.16676000000000002
vn 0.697126 -0.697211 0.16706700000000005
vn 0.435571 -0.884629 0.16646500000000006
vn -0.00014 -0.98613 0.16597400000000007
vn -0.435515 -0.884601 0.16675600000000004
vn -0.697212 -0.697127 0.16706300000000004
vn -0.884629 -0.435572 0.16646200000000003
vn -0.986131 0.00039900000000001013 0.16597
vn -0.884602 0.435514 0.16675499999999996
vn -0.313173 0.934988 0.16649199999999995
vn -0.69704 0.697043 0.16812599999999994
vn -0.934806 0.313559 0.16679099999999997
vn -0.985946 0.0008930000000000102 0.167062
vn -0.935008 -0.313088 0.16654300000000002
vn -0.697042 -0.697041 0.16812800000000006
vn -0.31339 -0.934847 0.16687600000000005
vn -0.000358 -0.985946 0.16706500000000005
vn 0.313258 -0.934965 0.16646400000000006
vn 0.69704 -0.697042 0.16813000000000006
vn 0.934804 -0.313559 0.16679700000000003
vn 0.985945 -0.0008929999999999898 0.167068
vn 0.935006 0.313088 0.16654999999999998
vn 0.697045 0.697037 0.16813099999999995
vn 0.313643 0.934786 0.16674199999999995
vn 0.000892 0.98597 0.16692199999999993
vn 0 1 -6.123233995736766E-17
vn 0 1 -6.123233995736766E-17
vn -0 -1 6.123233995736766E-17
vn -0 -1 6.123233995736766E-17
vn 0 1 -6.123233995736766E-17
vn 0 1 -6.123233995736766E-17
vn -0 -1 6.123233995736766E-17
vn -0 -1 6.123233995736766E-17
vn 0 1 -6.123233995736766E-17
vn 0 1 -6.123233995736766E-17
vn -0 -1 6.123233995736766E-17
vn -0 -1 6.123233995736766E-17
vn 0 1 -6.123233995736766E-17
vn 0 1 -6.123233995736766E-17
vn -0 -1 6.123233995736766E-17
vn -0 -1 6.123233995736766E-17
vn 0 1 -6.123233995736766E-17
vn 0 1 -6.123233995736766E-17
vn 0 1 -6.123233995736766E-17
vn 0 1 -6.123233995736766E-17
vn 0.008456 0.640479 0.767929
vn 0.019585 0.712769 0.701126
vn -0.009003 0.711399 0.702731
vn 0.019585 0.712769 0.701126
vn 0.0253 0.641187 0.766968
vn 0.0253 0.641187 0.766968
vn 0 6.123233995736766E-17 1
vn 0 6.123233995736766E-17 1
vn 0 6.123233995736766E-17 1
vn 0 6.123233995736766E-17 1
vn -0.939926 -2.0903312517626298E-17 -0.341377
vn -0.939926 -2.0903312517626298E-17 -0.341377
vn -0.939926 -2.0903312517626298E-17 -0.341377
vn -0.939926 -2.0903312517626298E-17 -0.341377
vn -0.027215 0.981939 0.18722999999999995
vn 0 0.982542 0.18603899999999995
vn -0.027215 0.981939 0.18722999999999995
vn 0.048156 0.713553 0.698945
vn 1E-06 -0.982542 -0.18603899999999995
vn 2E-06 -0.982542 -0.18603899999999995
vn -0 -0.982542 -0.18603899999999995
vn 1E-06 -0.982542 -0.18603899999999995
vn -0.026824 0.981953 0.18721399999999994
vn 0 0.982543 0.18603899999999995
vn -0.026824 0.981953 0.18721399999999994
vn 0.042137 0.641712 0.765787
vn 1E-06 -0.982542 -0.18603899999999995
vn 2E-06 -0.982542 -0.18603899999999995
vn -0 -0.982542 -0.18603899999999995
vn 1E-06 -0.982542 -0.18603899999999995
vn 0 6.123233995736766E-17 1
vn 0.397496 -0.08616099999999995 0.91355
vn 0.357352 -0.008559999999999943 0.933931
vn 0.325684 -0.014329999999999943 0.94537
vn 0.336106 0.030437000000000058 0.941332
vn 0.419087 0.0029440000000000555 0.907941
vn -0.086161 -0.39749699999999993 0.91355
vn -0.00856 -0.35735199999999995 0.933931
vn -0.01433 -0.3256839999999999 0.94537
vn 0.030437 -0.33610699999999993 0.941332
vn 0.002944 -0.41908699999999993 0.907941
vn -0.397496 0.08616100000000006 0.91355
vn -0.357352 0.008560000000000057 0.933931
vn -0.325684 0.014330000000000058 0.94537
vn -0.336107 -0.030435999999999942 0.941332
vn -0.419088 -0.0029439999999999445 0.907941
vn -0.706801 0.706801 0.029388999999999957
vn 0.6332 0.6332 0.44510199999999994
vn 0.706507 -0.706507 0.04118600000000004
vn 0.6332 0.6332 0.44510199999999994
vn 0.6332 0.6332 0.44510199999999994
vn 0.6332 0.6332 0.44510199999999994
vn -0.706929 -0.706929 0.022408000000000042
vn -0.631635 0.631635 0.4495279999999999
vn 0.706286 0.706287 0.04815399999999996
vn -0.631635 0.631635 0.4495279999999999
vn -0.631635 0.631635 0.4495279999999999
vn -0.631635 0.631635 0.4495279999999999
vn 0.706953 -0.706953 0.02088600000000004
vn -0.63204 -0.63204 0.44838600000000006
vn -0.706234 0.706234 0.04967099999999996
vn -0.63204 -0.63204 0.44838600000000006
vn -0.63204 -0.63204 0.44838600000000006
vn -0.63204 -0.63204 0.44838600000000006
vn 0.706307 0.706307 0.04754299999999996
vn 0.632778 -0.632778 0.44629900000000006
vn -0.706919 -0.706919 0.02302000000000004
vn 0.632778 -0.632778 0.44629900000000006
vn 0.632778 -0.632778 0.44629900000000006
vn 0.632779 -0.632778 0.44629900000000006
vn 0.939926 2.0903312517626298E-17 0.341377
vn 0.939926 2.0903312517626298E-17 0.341377
vn 0.939926 2.0903312517626298E-17 0.341377
vn 0.939926 2.0903312517626298E-17 0.341377
vn -0.054411 0.980606 0.18828299999999995
vn -0.053629 0.980655 0.18825399999999995
vn -0.317932 0.948113 -5.805517753399973E-17
vn 0.051933 0.998651 -6.114973753076517E-17
vn 0.40825 0.91287 -5.589716617688222E-17
vn 0.77496 0.63201 -3.869945117645593E-17
vn 0.96045 0.278453 -1.7050328758148896E-17
vn 0.996837 -0.079477 4.86656268279171E-18
vn 0.905574 -0.424187 2.5973962589495913E-17
vn 0.66376 -0.747945 4.5798422509413354E-17
vn 0.317037 -0.948413 5.807354723598693E-17
vn -0.062229 -0.998062 6.111367168253028E-17
vn -0.431338 -0.90219 5.524320478613753E-17
vn -0.771692 -0.635997 3.894358451586596E-17
vn -0.941101 -0.338124 2.070412371574498E-17
vn -0.997982 0.063499 -3.888192354952889E-18
vn -0.891063 0.453879 -2.779207322751008E-17
vn -0.680924 0.732354 -4.4843749097138033E-17
vn -0.463816 0.885931 -5.424762817077069E-17
vn -0.058999 0.998258 -6.112567322116192E-17
vn 0.285932 0.95825 -5.867588976414756E-17
vn 0.655889 0.754858 -4.622172167553864E-17
vn 0.920764 0.390119 -2.3887899231828313E-17
vn 0.999043 0.043747 -2.6787311761149633E-18
vn 0.949638 -0.31335 1.9187153725641157E-17
vn 0.765595 -0.643323 3.9392172638393635E-17
vn 0.438365 -0.898797 5.503544345666218E-17
vn 0.066686 -0.997774 6.109603676862256E-17
vn -0.311252 -0.950327 5.819074593466534E-17
vn -0.663559 -0.748124 4.5809383098265725E-17
vn -0.904142 -0.427233 2.6160476297006055E-17
vn -0.995509 -0.094665 5.796559462064209E-18
vn -0.941561 0.336841 -2.062556262357968E-17
vn -0.759347 0.650686 -3.9843026357499735E-17
vn 0.317932 -0.948113 5.805517753399973E-17
vn -0.051933 -0.998651 6.114973753076517E-17
vn 0.058999 -0.998258 6.112567322116192E-17
vn 0.463816 -0.885931 5.424762817077069E-17
vn -0.40825 -0.91287 5.589716617688222E-17
vn -0.285932 -0.95825 5.867588976414756E-17
vn -0.77496 -0.63201 3.869945117645593E-17
vn -0.655889 -0.754858 4.622172167553864E-17
vn -0.96045 -0.278453 1.7050328758148896E-17
vn -0.920765 -0.390119 2.3887899231828313E-17
vn -0.996837 0.079477 -4.86656268279171E-18
vn -0.999043 -0.043747 2.6787311761149633E-18
vn -0.905574 0.424187 -2.5973962589495913E-17
vn -0.949638 0.31335 -1.9187153725641157E-17
vn -0.66376 0.747945 -4.5798422509413354E-17
vn -0.765595 0.643323 -3.9392172638393635E-17
vn -0.317037 0.948413 -5.807354723598693E-17
vn -0.438365 0.898797 -5.503544345666218E-17
vn 0.062229 0.998062 -6.111367168253028E-17
vn -0.066686 0.997774 -6.109603676862256E-17
vn 0.431338 0.90219 -5.524320478613753E-17
vn 0.311252 0.950327 -5.819074593466534E-17
vn 0.771692 0.635997 -3.894358451586596E-17
vn 0.663559 0.748124 -4.5809383098265725E-17
vn 0.941101 0.338124 -2.070412371574498E-17
vn 0.904142 0.427233 -2.6160476297006055E-17
vn 0.997982 -0.063499 3.888192354952889E-18
vn 0.995509 0.094665 -5.796559462064209E-18
vn 0.891063 -0.453879 2.779207322751008E-17
vn 0.941561 -0.336841 2.062556262357968E-17
vn 0.680924 -0.732354 4.4843749097138033E-17
vn 0.759347 -0.650686 3.9843026357499735E-17
vn 0 6.123233995736766E-17 1
vn 0 6.123233995736766E-17 1
vn 0 6.123233995736766E-17 1
vn 0 6.123233995736766E-17 1
vn 0 6.123233995736766E-17 1
vn 0 6.123233995736766E-17 1
vn 0 6.123233995736766E-17 1
vn 0 6.123233995736766E-17 1
vn 0 6.123233995736766E-17 1
vn 0 6.123233995736766E-17 1
vn 0 6.123233995736766E-17 1
vn 0 6.123233995736766E-17 1
vn 0 6.123233995736766E-17 1
vn 0 6.123233995736766E-17 1
vn 0 6.123233995736766E-17 1
vn 0 6.123233995736766E-17 1
vn 0 6.123233995736766E-17 1
vn 0 6.123233995736766E-17 1
vn 0 6.123233995736766E-17 1
vn 0 6.123233995736766E-17 1
vn 0 6.123233995736766E-17 1
vn 0 6.123233995736766E-17 1
vn 0 6.123233995736766E-17 1
vn 0 6.123233995736766E-17 1
vn 0 6.123233995736766E-17 1
vn 0 6.123233995736766E-17 1
vn 0 6.123233995736766E-17 1
vn 0 6.123233995736766E-17 1
vn 0 6.123233995736766E-17 1
vn 0 6.123233995736766E-17 1
vn 0 6.123233995736766E-17 1
vn 0 6.123233995736766E-17 1
vn 0 6.123233995736766E-17 1
vn 0 6.123233995736766E-17 1
vn 0 6.123233995736766E-17 1
vn 0 6.123233995736766E-17 1
vn 0.69704 -0.697042 0.16813000000000006
vn 0.697126 -0.697211 0.16706700000000005
vn 0.697045 0.697037 0.16813099999999995
vn 0.697211 0.697126 0.16706799999999994
vn 0 6.123233995736766E-17 1
vn -0.000767 0.002822000000000061 0.999996
vn -0.000767 0.002822000000000061 0.999996
vn -0.000767 0.002822000000000061 0.999996
vn -7.6E-05 5.000000000006123E-05 1
vn 0 6.123233995736766E-17 1
vn -0.002917 -0.0005609999999999387 0.999996
vn -0.002917 -0.0005609999999999387 0.999996
vn -1E-06 -0.000988999999999939 1
vn 0 6.123233995736766E-17 1
vn 0 6.123233995736766E-17 1
vn -0.002833 -0.0007699999999999387 0.999996
vn -5.9E-05 -8.799999999993877E-05 1
vn 0 1.0000000000612324E-06 1
vn 0.00056 -0.002900999999999939 0.999996
vn 0.00056 -0.002900999999999939 0.999996
vn 0.000986 1.0000000000612324E-06 1
vn 0 6.123233995736766E-17 1
vn 0 6.123233995736766E-17 1
vn 0.000766 -0.002816999999999939 0.999996
vn 7.6E-05 -4.999999999993877E-05 1
vn 0 6.123233995736766E-17 1
vn 0.002917 0.0005610000000000612 0.999996
vn 0.002917 0.0005610000000000612 0.999996
vn 1E-06 0.0009890000000000612 1
vn 0 6.123233995736766E-17 1
vn 0 6.123233995736766E-17 1
vn 0.002833 0.0007700000000000612 0.999996
vn 4.5E-05 6.800000000006123E-05 1
vn 0.000168 0.0008630000000000613 1
vn -0.00056 0.002905000000000061 0.999996
vn -0.000858 0.0008640000000000612 0.999999
vn -0.000858 0.0008640000000000612 0.999999
vn -0.000858 0.0008640000000000612 0.999999
vn -0.706801 0.706801 0.029388999999999957
vn -0.706801 0.706801 0.029388999999999957
vn 0.706507 -0.706507 0.04118600000000004
vn 0.706507 -0.706507 0.04118600000000004
vn -0.706929 -0.706929 0.022408000000000042
vn -0.706929 -0.706929 0.022408000000000042
vn 0.706286 0.706287 0.04815399999999996
vn 0.706286 0.706287 0.04815399999999996
vn 0.706953 -0.706953 0.02088600000000004
vn 0.706953 -0.706953 0.02088600000000004
vn -0.706234 0.706234 0.04967099999999996
vn -0.706234 0.706234 0.04967099999999996
vn 0.706307 0.706307 0.04754299999999996
vn 0.706307 0.706307 0.04754299999999996
vn -0.706919 -0.706919 0.02302000000000004
vn -0.706919 -0.706919 0.02302000000000004
vn 0.77496 0.63201 -3.869945117645593E-17
vn 0.655889 0.754858 -4.622172167553864E-17
vn 0.66376 -0.747945 4.5798422509413354E-17
vn 0.765595 -0.643323 3.9392172638393635E-17
vn -0.77496 -0.63201 3.869945117645593E-17
vn -0.655889 -0.754858 4.622172167553864E-17
vn -0.66376 0.747945 -4.5798422509413354E-17
vn -0.765595 0.643323 -3.9392172638393635E-17
g 01
f 248/248/248 247/247/247 244/244/244
f 247/247/247 246/246/246 244/244/244
f 246/246/246 245/245/245 244/244/244
f 243/243/243 242/242/242 239/239/239
f 242/242/242 241/241/241 239/239/239
f 241/241/241 240/240/240 239/239/239
f 238/238/238 237/237/237 234/234/234
f 237/237/237 236/236/236 234/234/234
f 236/236/236 235/235/235 234/234/234
f 233/233/233 232/232/232 229/229/229
f 232/232/232 231/231/231 229/229/229
f 231/231/231 230/230/230 229/229/229
f 228/228/228 227/227/227 213/213/213
f 216/216/216 228/228/228 213/213/213
f 226/226/226 225/225/225 213/213/213
f 227/227/227 226/226/226 213/213/213
f 224/224/224 223/223/223 213/213/213
f 225/225/225 224/224/224 213/213/213
f 222/222/222 220/220/220 213/213/213
f 223/223/223 222/222/222 213/213/213
f 219/219/219 221/221/221 213/213/213
f 220/220/220 219/219/219 213/213/213
f 217/217/217 215/215/215 213/213/213
f 218/218/218 217/217/217 213/213/213
f 214/214/214 216/216/216 213/213/213
f 215/215/215 214/214/214 213/213/213
f 211/211/211 181/181/181 184/184/184
f 184/184/184 212/212/212 211/211/211
f 209/209/209 211/211/211 212/212/212
f 212/212/212 210/210/210 209/209/209
f 207/207/207 209/209/209 210/210/210
f 210/210/210 208/208/208 207/207/207
f 205/205/205 207/207/207 208/208/208
f 208/208/208 206/206/206 205/205/205
f 203/203/203 205/205/205 206/206/206
f 206/206/206 204/204/204 203/203/203
f 201/201/201 203/203/203 204/204/204
f 204/204/204 202/202/202 201/201/201
f 199/199/199 201/201/201 202/202/202
f 202/202/202 200/200/200 199/199/199
f 197/197/197 199/199/199 200/200/200
f 200/200/200 198/198/198 197/197/197
f 309/309/309 197/197/197 198/198/198
f 198/198/198 310/310/310 309/309/309
f 193/193/193 195/195/195 196/196/196
f 196/196/196 194/194/194 193/193/193
f 191/191/191 193/193/193 194/194/194
f 194/194/194 192/192/192 191/191/191
f 189/189/189 191/191/191 192/192/192
f 192/192/192 190/190/190 189/189/189
f 307/307/307 189/189/189 190/190/190
f 190/190/190 308/308/308 307/307/307
f 185/185/185 187/187/187 188/188/188
f 188/188/188 186/186/186 185/185/185
f 182/182/182 185/185/185 186/186/186
f 186/186/186 183/183/183 182/182/182
f 181/181/181 182/182/182 183/183/183
f 183/183/183 184/184/184 181/181/181
f 164/164/164 180/180/180 165/165/165
f 165/165/165 149/149/149 164/164/164
f 163/163/163 179/179/179 180/180/180
f 180/180/180 164/164/164 163/163/163
f 162/162/162 178/178/178 179/179/179
f 179/179/179 163/163/163 162/162/162
f 161/161/161 177/177/177 178/178/178
f 178/178/178 162/162/162 161/161/161
f 160/160/160 176/176/176 177/177/177
f 177/177/177 161/161/161 160/160/160
f 159/159/159 175/175/175 176/176/176
f 176/176/176 160/160/160 159/159/159
f 158/158/158 174/174/174 175/175/175
f 175/175/175 159/159/159 158/158/158
f 157/157/157 173/173/173 174/174/174
f 174/174/174 158/158/158 157/157/157
f 305/305/305 306/306/306 173/173/173
f 173/173/173 157/157/157 305/305/305
f 155/155/155 171/171/171 172/172/172
f 172/172/172 156/156/156 155/155/155
f 154/154/154 170/170/170 171/171/171
f 171/171/171 155/155/155 154/154/154
f 153/153/153 169/169/169 170/170/170
f 170/170/170 154/154/154 153/153/153
f 303/303/303 304/304/304 169/169/169
f 169/169/169 153/153/153 303/303/303
f 151/151/151 167/167/167 168/168/168
f 168/168/168 152/152/152 151/151/151
f 150/150/150 166/166/166 167/167/167
f 167/167/167 151/151/151 150/150/150
f 149/149/149 165/165/165 166/166/166
f 166/166/166 150/150/150 149/149/149
f 139/139/139 302/302/302 301/301/301
f 300/300/300 137/137/137 299/299/299
f 141/141/141 142/142/142 140/140/140
f 140/140/140 138/138/138 141/141/141
f 133/133/133 298/298/298 297/297/297
f 296/296/296 131/131/131 295/295/295
f 135/135/135 136/136/136 134/134/134
f 134/134/134 132/132/132 135/135/135
f 127/127/127 294/294/294 293/293/293
f 292/292/292 125/125/125 291/291/291
f 129/129/129 130/130/130 128/128/128
f 128/128/128 126/126/126 129/129/129
f 121/121/121 290/290/290 289/289/289
f 288/288/288 119/119/119 287/287/287
f 123/123/123 124/124/124 122/122/122
f 122/122/122 120/120/120 123/123/123
f 115/115/115 116/116/116 117/117/117
f 117/117/117 118/118/118 115/115/115
f 116/116/116 115/115/115 114/114/114
f 110/110/110 111/111/111 112/112/112
f 112/112/112 113/113/113 110/110/110
f 111/111/111 110/110/110 109/109/109
f 105/105/105 106/106/106 107/107/107
f 107/107/107 108/108/108 105/105/105
f 106/106/106 105/105/105 104/104/104
f 99/99/99 100/100/100 102/102/102
f 102/102/102 101/101/101 99/99/99
f 95/95/95 148/148/148 97/97/97
f 97/97/97 96/96/96 95/95/95
f 91/91/91 92/92/92 94/94/94
f 94/94/94 93/93/93 91/91/91
f 87/87/87 147/147/147 89/89/89
f 89/89/89 88/88/88 87/87/87
f 84/84/84 85/85/85 86/86/86
f 86/86/86 83/83/83 84/84/84
f 144/144/144 143/143/143 146/146/146
f 146/146/146 145/145/145 144/144/144
f 79/79/79 81/81/81 82/82/82
f 82/82/82 80/80/80 79/79/79
f 77/77/77 73/73/73 78/78/78
f 78/78/78 98/98/98 77/77/77
f 74/74/74 75/75/75 76/76/76
f 76/76/76 90/90/90 74/74/74
f 69/69/69 72/72/72 71/71/71
f 71/71/71 70/70/70 69/69/69
f 64/64/64 68/68/68 67/67/67
f 67/67/67 63/63/63 64/64/64
f 61/61/61 65/65/65 66/66/66
f 66/66/66 62/62/62 61/61/61
f 56/56/56 60/60/60 59/59/59
f 59/59/59 55/55/55 56/56/56
f 53/53/53 57/57/57 58/58/58
f 58/58/58 54/54/54 53/53/53
f 286/286/286 285/285/285 284/284/284
f 255/255/255 256/256/256 283/283/283
f 9/9/9 281/281/281 282/282/282
f 282/282/282 8/8/8 9/9/9
f 13/13/13 279/279/279 281/281/281
f 281/281/281 9/9/9 13/13/13
f 18/18/18 276/276/276 280/280/280
f 279/279/279 13/13/13 278/278/278
f 10/10/10 274/274/274 277/277/277
f 276/276/276 18/18/18 275/275/275
f 17/17/17 273/273/273 274/274/274
f 274/274/274 10/10/10 17/17/17
f 14/14/14 271/271/271 273/273/273
f 273/273/273 17/17/17 14/14/14
f 16/16/16 268/268/268 272/272/272
f 271/271/271 14/14/14 270/270/270
f 6/6/6 266/266/266 269/269/269
f 268/268/268 16/16/16 267/267/267
f 15/15/15 265/265/265 266/266/266
f 266/266/266 6/6/6 15/15/15
f 11/11/11 263/263/263 265/265/265
f 265/265/265 15/15/15 11/11/11
f 19/19/19 260/260/260 264/264/264
f 263/263/263 11/11/11 262/262/262
f 7/7/7 258/258/258 261/261/261
f 260/260/260 19/19/19 259/259/259
f 20/20/20 257/257/257 258/258/258
f 258/258/258 7/7/7 20/20/20
f 103/103/103 253/253/253 257/257/257
f 257/257/257 20/20/20 103/103/103
f 256/256/256 255/255/255 254/254/254
f 253/253/253 103/103/103 12/12/12
f 42/42/42 41/41/41 34/34/34
f 34/34/34 33/33/33 42/42/42
f 251/251/251 49/49/49 26/26/26
f 26/26/26 252/252/252 251/251/251
f 249/249/249 45/45/45 30/30/30
f 30/30/30 250/250/250 249/249/249
f 36/36/36 39/39/39 38/38/38
f 38/38/38 21/21/21 36/36/36
f 28/28/28 47/47/47 46/46/46
f 46/46/46 29/29/29 28/28/28
f 32/32/32 43/43/43 42/42/42
f 42/42/42 33/33/33 32/32/32
f 23/23/23 22/22/22 37/37/37
f 37/37/37 52/52/52 23/23/23
f 2/2/2 1/1/1 5/5/5
f 5/5/5 4/4/4 2/2/2
f 1/1/1 2/2/2 3/3/3
f 35/35/35 40/40/40 39/39/39
f 39/39/39 36/36/36 35/35/35
f 35/35/35 34/34/34 41/41/41
f 41/41/41 40/40/40 35/35/35
f 31/31/31 44/44/44 43/43/43
f 43/43/43 32/32/32 31/31/31
f 31/31/31 30/30/30 45/45/45
f 45/45/45 44/44/44 31/31/31
f 27/27/27 48/48/48 47/47/47
f 47/47/47 28/28/28 27/27/27
f 27/27/27 26/26/26 49/49/49
f 49/49/49 48/48/48 27/27/27
f 24/24/24 51/51/51 50/50/50
f 50/50/50 25/25/25 24/24/24
f 23/23/23 52/52/52 51/51/51
f 51/51/51 24/24/24 23/23/23
f 22/22/22 21/21/21 38/38/38
f 38/38/38 37/37/37 22/22/22
