v -0.75248158 0.8237805799999999 0.4310803399999999
v -0.7472971399999999 0.8830353400000001 0.4310803399999999
v -0.72010288 0.9178900799999999 0.31996267999999994
v -0.7317527 0.78473226 0.31996267999999994
v -0.6781175 0.8045006200000001 0.5790707199999999
v -0.6707152799999999 0.88910852 0.5790707199999999
v -0.7472971399999999 0.8830353400000001 0.4310803399999999
v -0.75248158 0.8237805799999999 0.4310803399999999
v -0.5833693799999999 0.77175044 0.49747535999999987
v -0.57171956 0.90490826 0.49747535999999987
v -0.6707152799999999 0.88910852 0.5790707199999999
v -0.6781175 0.8045006200000001 0.5790707199999999
v -0.72010288 0.9178900799999999 0.31996267999999994
v -0.7472971399999999 0.8830353400000001 0.4310803399999999
v -0.6707152799999999 0.88910852 0.5790707199999999
v -0.57171956 0.90490826 0.49747535999999987
v -0.7317527 0.78473226 0.31996267999999994
v -0.5833693799999999 0.77175044 0.49747535999999987
v -0.6781175 0.8045006200000001 0.5790707199999999
v -0.75248158 0.8237805799999999 0.4310803399999999
v -0.8395189 0.83139518 0.02956595999999995
v -0.8343344599999999 0.89064994 0.029565959999999947
v -0.73588486 0.9192709200000001 -0.031998340000000056
v -0.7475346799999999 0.7861130999999999 -0.03199834000000005
v -0.89150686 0.82317008 0.18778239999999993
v -0.88410464 0.9077779799999999 0.18778239999999993
v -0.8343344599999999 0.89064994 0.029565959999999947
v -0.8395189 0.83139518 0.02956595999999995
v -0.76765454 0.78787356 0.19884613999999995
v -0.75600472 0.92103138 0.19884613999999995
v -0.88410464 0.9077779799999999 0.18778239999999993
v -0.89150686 0.82317008 0.18778239999999993
v -0.73588486 0.9192709200000001 -0.031998340000000056
v -0.8343344599999999 0.89064994 0.029565959999999947
v -0.88410464 0.9077779799999999 0.18778239999999993
v -0.75600472 0.92103138 0.19884613999999995
v -0.7475346799999999 0.7861130999999999 -0.03199834000000005
v -0.76765454 0.78787356 0.19884613999999995
v -0.89150686 0.82317008 0.18778239999999993
v -0.8395189 0.83139518 0.02956595999999995
v -0.6182293 0.8120345600000001 -0.31612726
v -0.6130456 0.87128932 -0.31612726
v -0.49911742000000003 0.8985561 -0.29207430000000006
v -0.51076724 0.76539828 -0.29207430000000006
v -0.7667658 0.81225656 -0.24036606000000005
v -0.75936358 0.89686446 -0.24036606000000005
v -0.6130456 0.87128932 -0.31612726
v -0.6182293 0.8120345600000001 -0.31612726
v -0.6876043 0.78086946 -0.14312414000000004
v -0.67595448 0.91402802 -0.14312414000000007
v -0.75936358 0.89686446 -0.24036606000000005
v -0.7667658 0.81225656 -0.24036606000000005
v -0.49911742000000003 0.8985561 -0.29207430000000006
v -0.6130456 0.87128932 -0.31612726
v -0.75936358 0.89686446 -0.24036606000000005
v -0.67595448 0.91402802 -0.14312414000000007
v -0.51076724 0.76539828 -0.29207430000000006
v -0.6876043 0.78086946 -0.14312414000000004
v -0.7667658 0.81225656 -0.24036606000000005
v -0.6182293 0.8120345600000001 -0.31612726
v -0.21824228 0.7770406999999999 -0.4034968400000001
v -0.21305857999999997 0.83629546 -0.4034968400000001
v -0.14849579999999998 0.86788088 -0.30791622
v -0.16014636 0.73472306 -0.30791622
v -0.37696636 0.77815366 -0.4545701600000001
v -0.36956414 0.8627608200000001 -0.4545701600000001
v -0.21305857999999997 0.83629546 -0.4034968400000001
v -0.21824228 0.7770406999999999 -0.4034968400000001
v -0.39011172 0.75484218 -0.32811304
v -0.37846189999999996 0.8880007400000001 -0.32811304
v -0.36956414 0.8627608200000001 -0.4545701600000001
v -0.37696636 0.77815366 -0.4545701600000001
v -0.14849579999999998 0.86788088 -0.30791622
v -0.21305857999999997 0.83629546 -0.4034968400000001
v -0.36956414 0.8627608200000001 -0.4545701600000001
v -0.37846189999999996 0.8880007400000001 -0.32811304
v -0.16014636 0.73472306 -0.30791622
v -0.39011172 0.75484218 -0.32811304
v -0.37696636 0.77815366 -0.4545701600000001
v -0.21824228 0.7770406999999999 -0.4034968400000001
v 0.12613522 0.7469115999999999 -0.18136216000000005
v 0.13131966 0.8061663600000001 -0.18136216000000005
v 0.11059004 0.8452139399999999 -0.07024450000000004
v 0.09894022 0.7120561200000001 -0.07024450000000004
v 0.04955262 0.7408376799999999 -0.3293532800000001
v 0.05695484000000001 0.82544558 -0.3293532800000001
v 0.13131966 0.8061663600000001 -0.18136216000000005
v 0.12613522 0.7469115999999999 -0.18136216000000005
v -0.0494431 0.72503794 -0.24775718000000005
v -0.03779328 0.85819576 -0.24775718000000005
v 0.05695484000000001 0.82544558 -0.3293532800000001
v 0.04955262 0.7408376799999999 -0.3293532800000001
v 0.11059004 0.8452139399999999 -0.07024450000000004
v 0.13131966 0.8061663600000001 -0.18136216000000005
v 0.05695484000000001 0.82544558 -0.3293532800000001
v -0.03779328 0.85819576 -0.24775718000000005
v 0.09894022 0.7120561200000001 -0.07024450000000004
v -0.0494431 0.72503794 -0.24775718000000005
v 0.04955262 0.7408376799999999 -0.3293532800000001
v 0.12613522 0.7469115999999999 -0.18136216000000005
v 0.2131718 0.7392962599999999 0.22015221999999998
v 0.21835624 0.79855102 0.22015221999999998
v 0.12637202 0.8438331 0.28171577999999997
v 0.1147222 0.71067528 0.28171577999999997
v 0.26294198 0.72216896 0.061935779999999954
v 0.2703442 0.80677612 0.06193577999999994
v 0.21835624 0.79855102 0.22015221999999998
v 0.2131718 0.7392962599999999 0.22015221999999998
v 0.13484205999999999 0.70891482 0.05087203999999996
v 0.14649188 0.84207264 0.05087203999999995
v 0.2703442 0.80677612 0.06193577999999994
v 0.26294198 0.72216896 0.061935779999999954
v 0.12637202 0.8438331 0.28171577999999997
v 0.21835624 0.79855102 0.22015221999999998
v 0.2703442 0.80677612 0.06193577999999994
v 0.14649188 0.84207264 0.05087203999999995
v 0.1147222 0.71067528 0.28171577999999997
v 0.13484205999999999 0.70891482 0.05087203999999996
v 0.26294198 0.72216896 0.061935779999999954
v 0.2131718 0.7392962599999999 0.22015221999999998
v -0.008117059999999999 0.75865688 0.5658454399999999
v -0.00293336 0.8179116399999999 0.5658454399999999
v -0.11039542000000001 0.86454718 0.5417924799999999
v -0.12204523999999999 0.73138936 0.5417924799999999
v 0.13820092 0.7330817399999999 0.4900842399999999
v 0.14560314 0.81768964 0.4900842399999999
v -0.00293336 0.8179116399999999 0.5658454399999999
v -0.008117059999999999 0.75865688 0.5658454399999999
v 0.05479182 0.71591818 0.3928415799999999
v 0.06644164 0.8490759999999999 0.3928415799999999
v 0.14560314 0.81768964 0.4900842399999999
v 0.13820092 0.7330817399999999 0.4900842399999999
v -0.11039542000000001 0.86454718 0.5417924799999999
v -0.00293336 0.8179116399999999 0.5658454399999999
v 0.14560314 0.81768964 0.4900842399999999
v 0.06644164 0.8490759999999999 0.3928415799999999
v -0.12204523999999999 0.73138936 0.5417924799999999
v 0.05479182 0.71591818 0.3928415799999999
v 0.13820092 0.7330817399999999 0.4900842399999999
v -0.008117059999999999 0.75865688 0.5658454399999999
v -0.40810408 0.7936507399999999 0.65321502
v -0.40292038 0.8529054999999999 0.65321502
v -0.4610163 0.89522314 0.5576343999999999
v -0.47266612 0.76206458 0.5576343999999999
v -0.25159852 0.7671846400000001 0.7042883399999998
v -0.24419629999999998 0.8517925399999999 0.7042883399999998
v -0.40292038 0.8529054999999999 0.65321502
v -0.40810408 0.7936507399999999 0.65321502
v -0.24270076 0.74194546 0.5778304799999999
v -0.23105093999999998 0.8751032799999999 0.5778304799999999
v -0.24419629999999998 0.8517925399999999 0.7042883399999998
v -0.25159852 0.7671846400000001 0.7042883399999998
v -0.4610163 0.89522314 0.5576343999999999
v -0.40292038 0.8529054999999999 0.65321502
v -0.24419629999999998 0.8517925399999999 0.7042883399999998
v -0.23105093999999998 0.8751032799999999 0.5778304799999999
v -0.47266612 0.76206458 0.5576343999999999
v -0.24270076 0.74194546 0.5778304799999999
v -0.25159852 0.7671846400000001 0.7042883399999998
v -0.40810408 0.7936507399999999 0.65321502
v -0.5977520199999999 0.75444702 -0.17872628000000004
v -0.6551294 0.75946644 -0.11246964000000005
v -0.02573868 0.7044193200000001 0.4367376399999999
v 0.03163796 0.69939916 0.3704802599999999
v -0.65660348 0.74261886 -0.11246964000000005
v -0.5992261 0.73759944 -0.17872628000000004
v 0.03016388 0.68255158 0.3704802599999999
v -0.02721276 0.68757174 0.4367376399999999
v 0.08342612 0.6909824 0.03346945999999996
v 0.054952400000000005 0.69347324 -0.049538560000000044
v -0.73355756 0.76247602 0.22300639999999997
v -0.70508458 0.75998518 0.30601441999999995
v 0.053478319999999996 0.67662566 -0.04953930000000004
v 0.08195204 0.67413482 0.03346945999999996
v -0.70655866 0.7431376 0.30601441999999995
v -0.73503164 0.74562844 0.22300639999999997
v -0.44023266 0.7387079599999999 0.5198344599999999
v -0.3543823 0.73119696 0.5365858399999999
v -0.19525788 0.71729236 -0.28516640000000004
v -0.28110824 0.72480336 -0.30191778
v -0.35585638 0.71434938 0.5365858399999999
v -0.44170674 0.72186038 0.5198344599999999
v -0.28258232 0.70795578 -0.30191778
v -0.19673195999999998 0.70044478 -0.28516640000000004
v -0.58288764 0.92435324 -0.17872628000000004
v 0.046500120000000006 0.86927208 0.3704802599999999
v -0.01087726 0.8742922399999999 0.4367376399999999
v -0.64026428 0.9293734 -0.11246964000000007
v -0.6387902000000001 0.94622098 -0.11246964000000007
v -0.009403179999999999 0.8911398199999999 0.4367376399999999
v 0.0479742 0.88611966 0.3704802599999999
v -0.58141356 0.9412008199999999 -0.17872628000000004
v 0.09896242 0.8685683399999999 0.033469459999999944
v -0.6895505 0.93753782 0.30601441999999995
v -0.7180234799999999 0.94002866 0.22300639999999997
v 0.07048944 0.8710591799999999 -0.04953856000000005
v 0.07196352 0.88790676 -0.04953930000000006
v -0.7165501400000001 0.9568762399999999 0.22300639999999997
v -0.68807642 0.95438466 0.30601441999999995
v 0.10043650000000001 0.8854159199999999 0.033469459999999944
v -0.42502788 0.91249992 0.5198344599999999
v -0.26590642000000003 0.89856202 -0.30191778
v -0.18005606 0.89105102 -0.28516640000000004
v -0.33917751999999995 0.90498892 0.5365858399999999
v -0.33770343999999997 0.9218365 0.5365858399999999
v -0.17858198 0.9078986 -0.28516640000000004
v -0.26443234 0.9154095999999999 -0.30191778
v -0.42355454 0.9293475 0.5198344599999999
v -0.77921556 0.7470966 0.23429287999999995
v -0.72264996 0.74214748 0.22118377999999997
v -0.64778786 0.73559774 0.3757949399999999
v -0.69415108 0.73965442 0.41086575999999997
v -0.51650076 0.7241122 0.49035655999999994
v -0.54464592 0.72657418 0.5413247999999998
v -0.3531872 0.70982354 0.53899824
v -0.35824732 0.7102668 0.5970519799999999
v -0.5656116 0.7284086399999999 -0.27970002000000005
v -0.5357119 0.72579274 -0.22974780000000006
v -0.6590617599999999 0.73658416 -0.11049976000000004
v -0.70661638 0.74074518 -0.14392556000000004
v -0.7270314999999999 0.7425307999999999 0.050239339999999966
v -0.7840189 0.7475169199999999 0.039120099999999956
v -0.72264996 0.74214748 0.22118377999999997
v -0.77921556 0.7470966 0.23429287999999995
v -0.012627359999999999 0.68002892 -0.23460590000000003
v -0.050714419999999996 0.6833611399999999 -0.19062548000000004
v -0.20181206 0.6965804999999999 -0.27153634000000004
v -0.18483868 0.69509532 -0.32726574
v -0.375106 0.71174162 -0.28675592000000005
v -0.38218114 0.71236026 -0.34459654000000006
v -0.5357119 0.72579274 -0.22974780000000006
v -0.5656116 0.7284086399999999 -0.27970002000000005
v 0.11553028000000001 0.66881644 0.30725613999999996
v 0.062091919999999995 0.67349176 0.28448559999999995
v 0.09205822 0.67086994 0.11523205999999996
v 0.15010308 0.66579206 0.11421455999999997
v 0.052927020000000005 0.67429392 -0.054913180000000034
v 0.10554102 0.66969038 -0.07954186000000005
v -0.050714419999999996 0.6833611399999999 -0.19062548000000004
v -0.012627359999999999 0.68002892 -0.23460590000000003
v -0.35824732 0.7102668 0.5970519799999999
v -0.3531872 0.70982354 0.53899824
v -0.18356958 0.69498432 0.5153049199999999
v -0.16466924 0.6933311600000001 0.5704053199999999
v -0.034460319999999996 0.68193886 0.42536827999999993
v 0.00513264 0.67847492 0.4679878399999999
v 0.062091919999999995 0.67349176 0.28448559999999995
v 0.11553028000000001 0.66881644 0.30725613999999996
v -0.76018128 0.9646632599999999 0.23429287999999995
v -0.7626425199999999 0.9365351199999999 0.23429287999999995
v -0.6775773 0.92909294 0.41086575999999997
v -0.6751168 0.95722108 0.41086575999999997
v -0.52807214 0.9160126999999999 0.5413247999999998
v -0.5256116399999999 0.94414158 0.5413247999999998
v -0.34167354 0.89970458 0.5970519799999999
v -0.33921229999999997 0.92783346 0.5970519799999999
v -0.54657658 0.9459753000000001 -0.27970002000000005
v -0.54903782 0.91784716 -0.27970002000000005
v -0.6900426000000001 0.93018296 -0.14392556000000006
v -0.68758136 0.9583118399999999 -0.14392556000000006
v -0.76744512 0.9369554400000001 0.03912009999999994
v -0.7649838800000001 0.96508358 0.03912009999999994
v -0.7626425199999999 0.9365351199999999 0.23429287999999995
v -0.76018128 0.9646632599999999 0.23429287999999995
v 0.006406920000000001 0.89759558 -0.23460590000000003
v 0.00394568 0.8694666999999999 -0.23460590000000003
v -0.1682649 0.88453384 -0.32726574
v -0.16580366 0.91266198 -0.32726574
v -0.36560736 0.90179878 -0.34459654000000006
v -0.36314612 0.9299276599999999 -0.34459654000000006
v -0.54903782 0.91784716 -0.27970002000000005
v -0.54657658 0.9459753000000001 -0.27970002000000005
v 0.1345653 0.8863831000000001 0.30725613999999996
v 0.13210406 0.85825496 0.30725613999999996
v 0.16667685999999998 0.85522984 0.11421455999999994
v 0.16913809999999999 0.8833587199999999 0.11421455999999994
v 0.1221148 0.8591289 -0.07954186000000005
v 0.12457604 0.8872570399999999 -0.07954186000000005
v 0.00394568 0.8694666999999999 -0.23460590000000003
v 0.006406920000000001 0.89759558 -0.23460590000000003
v -0.33921229999999997 0.92783346 0.5970519799999999
v -0.34167354 0.89970458 0.5970519799999999
v -0.14809546 0.88276894 0.5704053199999999
v -0.14563496 0.91089708 0.5704053199999999
v 0.02170642 0.8679134399999999 0.4679878399999999
v 0.024166919999999998 0.8960415799999999 0.4679878399999999
v 0.13210406 0.85825496 0.30725613999999996
v 0.1345653 0.8863831000000001 0.30725613999999996
v -0.69168984 0.76778256 0.41086575999999997
v -0.7767550599999999 0.77522474 0.23429287999999995
v -0.77921556 0.7470966 0.23429287999999995
v -0.69415108 0.73965442 0.41086575999999997
v -0.5421846800000001 0.75470306 0.5413247999999998
v -0.54464592 0.72657418 0.5413247999999998
v -0.35578608 0.73839494 0.5970519799999999
v -0.35824732 0.7102668 0.5970519799999999
v -0.70415514 0.76887332 -0.14392556000000004
v -0.56315036 0.7565367799999999 -0.27970002000000005
v -0.5656116 0.7284086399999999 -0.27970002000000005
v -0.70661638 0.74074518 -0.14392556000000004
v -0.78155766 0.7756450599999999 0.039120099999999956
v -0.7840189 0.7475169199999999 0.039120099999999956
v -0.7767550599999999 0.77522474 0.23429287999999995
v -0.77921556 0.7470966 0.23429287999999995
v -0.18237744 0.7232242 -0.32726574
v -0.01016686 0.70815706 -0.23460590000000003
v -0.012627359999999999 0.68002892 -0.23460590000000003
v -0.18483868 0.69509532 -0.32726574
v -0.3797199 0.74048914 -0.34459654000000006
v -0.38218114 0.71236026 -0.34459654000000006
v -0.56315036 0.7565367799999999 -0.27970002000000005
v -0.5656116 0.7284086399999999 -0.27970002000000005
v 0.15256432 0.6939202 0.11421455999999997
v 0.11799152 0.69694532 0.30725613999999996
v 0.11553028000000001 0.66881644 0.30725613999999996
v 0.15010308 0.66579206 0.11421455999999997
v 0.10800225999999999 0.69781926 -0.07954186000000005
v 0.10554102 0.66969038 -0.07954186000000005
v -0.01016686 0.70815706 -0.23460590000000003
v -0.012627359999999999 0.68002892 -0.23460590000000003
v -0.162208 0.7214592999999999 0.5704053199999999
v -0.35578608 0.73839494 0.5970519799999999
v -0.35824732 0.7102668 0.5970519799999999
v -0.16466924 0.6933311600000001 0.5704053199999999
v 0.007593139999999999 0.7066038 0.4679878399999999
v 0.00513264 0.67847492 0.4679878399999999
v 0.11799152 0.69694532 0.30725613999999996
v 0.11553028000000001 0.66881644 0.30725613999999996
v -0.62875284 0.95316514 0.3757949399999999
v -0.70361568 0.95971488 0.22118377999999997
v -0.76018128 0.9646632599999999 0.23429287999999995
v -0.6751168 0.95722108 0.41086575999999997
v -0.49746648 0.94167886 0.49035655999999994
v -0.5256116399999999 0.94414158 0.5413247999999998
v -0.33415292 0.92739094 0.53899824
v -0.33921229999999997 0.92783346 0.5970519799999999
v -0.64002674 0.9541515599999999 -0.11049976000000007
v -0.51667688 0.9433594 -0.22974780000000006
v -0.54657658 0.9459753000000001 -0.27970002000000005
v -0.68758136 0.9583118399999999 -0.14392556000000006
v -0.70799722 0.9600982 0.050239339999999945
v -0.7649838800000001 0.96508358 0.03912009999999994
v -0.70361568 0.95971488 0.22118377999999997
v -0.76018128 0.9646632599999999 0.23429287999999995
v -0.18277704 0.91414716 -0.27153634000000004
v -0.03168014 0.9009278000000001 -0.19062548000000004
v 0.006406920000000001 0.89759558 -0.23460590000000003
v -0.16580366 0.91266198 -0.32726574
v -0.35607172 0.92930828 -0.28675592000000005
v -0.36314612 0.9299276599999999 -0.34459654000000006
v -0.51667688 0.9433594 -0.22974780000000006
v -0.54657658 0.9459753000000001 -0.27970002000000005
v 0.11109324000000001 0.8884366 0.11523205999999993
v 0.08112620000000001 0.8910584199999999 0.28448559999999995
v 0.1345653 0.8863831000000001 0.30725613999999996
v 0.16913809999999999 0.8833587199999999 0.11421455999999994
v 0.07196129999999999 0.89186058 -0.05491318000000005
v 0.12457604 0.8872570399999999 -0.07954186000000005
v -0.03168014 0.9009278000000001 -0.19062548000000004
v 0.006406920000000001 0.89759558 -0.23460590000000003
v -0.1645353 0.91255098 0.5153049199999999
v -0.33415292 0.92739094 0.53899824
v -0.33921229999999997 0.92783346 0.5970519799999999
v -0.14563496 0.91089708 0.5704053199999999
v -0.0154253 0.8995055200000001 0.42536827999999993
v 0.024166919999999998 0.8960415799999999 0.4679878399999999
v 0.08112620000000001 0.8910584199999999 0.28448559999999995
v 0.1345653 0.8863831000000001 0.30725613999999996
vt 0.914160 0.403955
vt 0.936852 0.403955
vt 0.950994 0.449386
vt 0.900018 0.449386
vt 0.909314 0.331050
vt 0.941699 0.331050
vt 0.936852 0.397298
vt 0.914160 0.397298
vt 0.789367 0.328867
vt 0.845261 0.328867
vt 0.835070 0.378717
vt 0.799559 0.378717
vt 0.973067 0.434050
vt 0.944485 0.397298
vt 0.949332 0.331050
vt 0.996509 0.345039
vt 0.877946 0.434050
vt 0.854504 0.345039
vt 0.901681 0.331050
vt 0.906528 0.397298
vt 0.914160 0.403955
vt 0.936852 0.403955
vt 0.950994 0.449386
vt 0.900018 0.449386
vt 0.909314 0.331050
vt 0.941699 0.331050
vt 0.936852 0.397298
vt 0.914160 0.397298
vt 0.789367 0.328867
vt 0.845261 0.328867
vt 0.835070 0.378717
vt 0.799559 0.378717
vt 0.973067 0.434050
vt 0.944485 0.397298
vt 0.949332 0.331050
vt 0.996509 0.345039
vt 0.877946 0.434050
vt 0.854504 0.345039
vt 0.901681 0.331050
vt 0.906528 0.397298
vt 0.914160 0.403955
vt 0.936852 0.403955
vt 0.950994 0.449386
vt 0.900018 0.449386
vt 0.909314 0.331050
vt 0.941699 0.331050
vt 0.936852 0.397298
vt 0.914160 0.397298
vt 0.789367 0.328867
vt 0.845261 0.328867
vt 0.835070 0.378717
vt 0.799559 0.378717
vt 0.973067 0.434050
vt 0.944485 0.397298
vt 0.949332 0.331050
vt 0.996509 0.345039
vt 0.877946 0.434050
vt 0.854504 0.345039
vt 0.901681 0.331050
vt 0.906528 0.397298
vt 0.914160 0.403955
vt 0.936852 0.403955
vt 0.950994 0.449386
vt 0.900018 0.449386
vt 0.909314 0.331050
vt 0.941699 0.331050
vt 0.936852 0.397298
vt 0.914160 0.397298
vt 0.789367 0.328867
vt 0.845261 0.328867
vt 0.835070 0.378717
vt 0.799559 0.378717
vt 0.973067 0.434050
vt 0.944485 0.397298
vt 0.949332 0.331050
vt 0.996509 0.345039
vt 0.877946 0.434050
vt 0.854504 0.345039
vt 0.901681 0.331050
vt 0.906528 0.397298
vt 0.914160 0.403955
vt 0.936852 0.403955
vt 0.950994 0.449386
vt 0.900018 0.449386
vt 0.909314 0.331050
vt 0.941699 0.331050
vt 0.936852 0.397298
vt 0.914160 0.397298
vt 0.789367 0.328867
vt 0.845261 0.328867
vt 0.835070 0.378717
vt 0.799559 0.378717
vt 0.973067 0.434050
vt 0.944485 0.397298
vt 0.949332 0.331050
vt 0.996509 0.345039
vt 0.877946 0.434050
vt 0.854504 0.345039
vt 0.901681 0.331050
vt 0.906528 0.397298
vt 0.914160 0.403955
vt 0.936852 0.403955
vt 0.950994 0.449386
vt 0.900018 0.449386
vt 0.909314 0.331050
vt 0.941699 0.331050
vt 0.936852 0.397298
vt 0.914160 0.397298
vt 0.789367 0.328867
vt 0.845261 0.328867
vt 0.835070 0.378717
vt 0.799559 0.378717
vt 0.973067 0.434050
vt 0.944485 0.397298
vt 0.949332 0.331050
vt 0.996509 0.345039
vt 0.877946 0.434050
vt 0.854504 0.345039
vt 0.901681 0.331050
vt 0.906528 0.397298
vt 0.914160 0.403955
vt 0.936852 0.403955
vt 0.950994 0.449386
vt 0.900018 0.449386
vt 0.909314 0.331050
vt 0.941699 0.331050
vt 0.936852 0.397298
vt 0.914160 0.397298
vt 0.789367 0.328867
vt 0.845261 0.328867
vt 0.835070 0.378717
vt 0.799559 0.378717
vt 0.973067 0.434050
vt 0.944485 0.397298
vt 0.949332 0.331050
vt 0.996509 0.345039
vt 0.877946 0.434050
vt 0.854504 0.345039
vt 0.901681 0.331050
vt 0.906528 0.397298
vt 0.914160 0.403955
vt 0.936852 0.403955
vt 0.950994 0.449386
vt 0.900018 0.449386
vt 0.909314 0.331050
vt 0.941699 0.331050
vt 0.936852 0.397298
vt 0.914160 0.397298
vt 0.789367 0.328867
vt 0.845261 0.328867
vt 0.835070 0.378717
vt 0.799559 0.378717
vt 0.973067 0.434050
vt 0.944485 0.397298
vt 0.949332 0.331050
vt 0.996509 0.345039
vt 0.877946 0.434050
vt 0.854504 0.345039
vt 0.901681 0.331050
vt 0.906528 0.397298
vt 0.853552 0.147636
vt 0.853550 0.116164
vt 0.526098 0.116169
vt 0.526098 0.147642
vt 0.853550 0.202824
vt 0.853552 0.171352
vt 0.526098 0.171346
vt 0.526098 0.202818
vt 0.853552 0.147636
vt 0.853550 0.116164
vt 0.526098 0.116169
vt 0.526098 0.147642
vt 0.853550 0.202824
vt 0.853552 0.171352
vt 0.526098 0.171346
vt 0.526098 0.202818
vt 0.853552 0.147636
vt 0.853550 0.116164
vt 0.526098 0.116169
vt 0.526098 0.147642
vt 0.853550 0.202824
vt 0.853552 0.171352
vt 0.526098 0.171346
vt 0.526098 0.202818
vt 0.853552 0.147636
vt 0.526098 0.147642
vt 0.526098 0.116169
vt 0.853550 0.116164
vt 0.853550 0.202824
vt 0.526098 0.202818
vt 0.526098 0.171346
vt 0.853552 0.171352
vt 0.853552 0.147636
vt 0.526098 0.147642
vt 0.526098 0.116169
vt 0.853550 0.116164
vt 0.853550 0.202824
vt 0.526098 0.202818
vt 0.526098 0.171346
vt 0.853552 0.171352
vt 0.853552 0.147636
vt 0.526098 0.147642
vt 0.526098 0.116169
vt 0.853550 0.116164
vt 0.853550 0.202824
vt 0.526098 0.202818
vt 0.526098 0.171346
vt 0.853552 0.171352
vt 0.526098 0.306057
vt 0.526098 0.325741
vt 0.602621 0.325741
vt 0.602621 0.306057
vt 0.680708 0.325741
vt 0.680708 0.306057
vt 0.755941 0.325741
vt 0.755941 0.306057
vt 0.526098 0.306057
vt 0.526098 0.325741
vt 0.602621 0.325741
vt 0.602621 0.306057
vt 0.680708 0.325741
vt 0.680708 0.306057
vt 0.755941 0.325741
vt 0.755941 0.306057
vt 0.526098 0.306057
vt 0.526098 0.325741
vt 0.602621 0.325741
vt 0.602621 0.306057
vt 0.680708 0.325741
vt 0.680708 0.306057
vt 0.755941 0.325741
vt 0.755941 0.306057
vt 0.526098 0.306057
vt 0.526098 0.325741
vt 0.602621 0.325741
vt 0.602621 0.306057
vt 0.680708 0.325741
vt 0.680708 0.306057
vt 0.755941 0.325741
vt 0.755941 0.306057
vt 0.526098 0.306057
vt 0.526098 0.325741
vt 0.602621 0.325741
vt 0.602621 0.306057
vt 0.680708 0.325741
vt 0.680708 0.306057
vt 0.755941 0.325741
vt 0.755941 0.306057
vt 0.526098 0.299790
vt 0.526098 0.290039
vt 0.602621 0.290039
vt 0.602621 0.299790
vt 0.680708 0.290039
vt 0.680708 0.299790
vt 0.755941 0.290039
vt 0.755941 0.299790
vt 0.526098 0.299790
vt 0.526098 0.290039
vt 0.602621 0.290039
vt 0.602621 0.299790
vt 0.680708 0.290039
vt 0.680708 0.299790
vt 0.755941 0.290039
vt 0.755941 0.299790
vt 0.526098 0.299790
vt 0.526098 0.290039
vt 0.602621 0.290039
vt 0.602621 0.299790
vt 0.680708 0.290039
vt 0.680708 0.299790
vt 0.755941 0.290039
vt 0.755941 0.299790
vt 0.526098 0.299790
vt 0.526098 0.290039
vt 0.602621 0.290039
vt 0.602621 0.299790
vt 0.680708 0.290039
vt 0.680708 0.299790
vt 0.755941 0.290039
vt 0.755941 0.299790
vt 0.526098 0.299790
vt 0.526098 0.290039
vt 0.602621 0.290039
vt 0.602621 0.299790
vt 0.680708 0.290039
vt 0.680708 0.299790
vt 0.755941 0.290039
vt 0.755941 0.299790
vt 0.602621 0.290039
vt 0.526098 0.290039
vt 0.526098 0.299790
vt 0.602621 0.299790
vt 0.680708 0.290039
vt 0.680708 0.299790
vt 0.755941 0.290039
vt 0.755941 0.299790
vt 0.602621 0.290039
vt 0.526098 0.290039
vt 0.526098 0.299790
vt 0.602621 0.299790
vt 0.680708 0.290039
vt 0.680708 0.299790
vt 0.755941 0.290039
vt 0.755941 0.299790
vt 0.602621 0.290039
vt 0.526098 0.290039
vt 0.526098 0.299790
vt 0.602621 0.299790
vt 0.680708 0.290039
vt 0.680708 0.299790
vt 0.755941 0.290039
vt 0.755941 0.299790
vt 0.602621 0.290039
vt 0.526098 0.290039
vt 0.526098 0.299790
vt 0.602621 0.299790
vt 0.680708 0.290039
vt 0.680708 0.299790
vt 0.755941 0.290039
vt 0.755941 0.299790
vt 0.602621 0.290039
vt 0.526098 0.290039
vt 0.526098 0.299790
vt 0.602621 0.299790
vt 0.680708 0.290039
vt 0.680708 0.299790
vt 0.755941 0.290039
vt 0.755941 0.299790
vt 0.602621 0.325741
vt 0.526098 0.325741
vt 0.526098 0.306057
vt 0.602621 0.306057
vt 0.680708 0.325741
vt 0.680708 0.306057
vt 0.755941 0.325741
vt 0.755941 0.306057
vt 0.602621 0.325741
vt 0.526098 0.325741
vt 0.526098 0.306057
vt 0.602621 0.306057
vt 0.680708 0.325741
vt 0.680708 0.306057
vt 0.755941 0.325741
vt 0.755941 0.306057
vt 0.602621 0.325741
vt 0.526098 0.325741
vt 0.526098 0.306057
vt 0.602621 0.306057
vt 0.680708 0.325741
vt 0.680708 0.306057
vt 0.755941 0.325741
vt 0.755941 0.306057
vt 0.602621 0.325741
vt 0.526098 0.325741
vt 0.526098 0.306057
vt 0.602621 0.306057
vt 0.680708 0.325741
vt 0.680708 0.306057
vt 0.755941 0.325741
vt 0.755941 0.306057
vt 0.602621 0.325741
vt 0.526098 0.325741
vt 0.526098 0.306057
vt 0.602621 0.306057
vt 0.680708 0.325741
vt 0.680708 0.306057
vt 0.755941 0.325741
vt 0.755941 0.306057
vn -0.973644 0.08518299999999998 -0.211568
vn -0.973644 0.08518299999999998 -0.211568
vn -0.973644 0.08518299999999998 -0.211568
vn -0.973644 0.08518299999999998 -0.211568
vn -0.88675 0.07758000000000002 0.455693
vn -0.88675 0.07758100000000002 0.455693
vn -0.88675 0.07758000000000002 0.455693
vn -0.88675 0.07758000000000002 0.455693
vn 0.640342 -0.056022999999999955 0.766044
vn 0.640342 -0.056022999999999955 0.766044
vn 0.640342 -0.056022999999999955 0.766044
vn 0.640342 -0.056022999999999955 0.766044
vn -0.240986 0.958488 0.15240299999999996
vn -0.415166 0.892116 0.17822999999999994
vn -0.240986 0.958488 0.15240299999999996
vn -0.058273 0.990919 0.12117899999999994
vn -0.403766 -0.902079 0.15240300000000007
vn -0.229459 -0.965745 0.12117900000000005
vn -0.403766 -0.902079 0.15240300000000007
vn -0.563775 -0.806468 0.17823000000000006
vn -0.539438 0.04719499999999995 -0.840701
vn -0.539438 0.04719499999999995 -0.840701
vn -0.539438 0.04719499999999995 -0.840701
vn -0.539438 0.04719499999999995 -0.840701
vn -0.948024 0.08294099999999999 -0.307198
vn -0.948024 0.08294099999999999 -0.307198
vn -0.948024 0.08294099999999999 -0.307198
vn -0.948024 0.08294199999999999 -0.307198
vn -0.086823 0.007596000000000061 0.996195
vn -0.086823 0.007596000000000061 0.996195
vn -0.086823 0.007596000000000061 0.996195
vn -0.086823 0.007596000000000061 0.996195
vn -0.253918 0.95962 -0.12105900000000006
vn -0.39735 0.890559 -0.22140100000000004
vn -0.253918 0.95962 -0.12105900000000006
vn -0.101495 0.9947 -0.016431000000000064
vn -0.416699 -0.900947 -0.12105999999999995
vn -0.272682 -0.961964 -0.016430999999999942
vn -0.416699 -0.900947 -0.12105999999999995
vn -0.54596 -0.808027 -0.22140299999999993
vn 0.210763 -0.01843900000000006 -0.977363
vn 0.210763 -0.01843900000000006 -0.977363
vn 0.210763 -0.01843900000000006 -0.977363
vn 0.210763 -0.01843900000000006 -0.977363
vn -0.453959 0.03971699999999995 -0.890137
vn -0.453958 0.039715999999999946 -0.890137
vn -0.453959 0.03971699999999995 -0.890137
vn -0.453959 0.03971699999999995 -0.890137
vn -0.763128 0.06676500000000005 0.642789
vn -0.763128 0.06676500000000005 0.642789
vn -0.763128 0.06676500000000005 0.642789
vn -0.763128 0.06676500000000005 0.642789
vn -0.070433 0.943567 -0.32360600000000006
vn -0.103247 0.864828 -0.49133800000000005
vn -0.070433 0.943567 -0.32360600000000006
vn -0.035124 0.988894 -0.14441500000000004
vn -0.233212 -0.917 -0.32360799999999995
vn -0.206311 -0.967771 -0.14441599999999993
vn -0.233212 -0.917 -0.32360799999999995
vn -0.251856 -0.833758 -0.49134199999999995
vn 0.837502 -0.07327200000000003 -0.541499
vn 0.837502 -0.07327100000000003 -0.541499
vn 0.837502 -0.07327200000000003 -0.541499
vn 0.837503 -0.07327200000000003 -0.541498
vn 0.306029 -0.026774000000000058 -0.951646
vn 0.306029 -0.026774000000000058 -0.951645
vn 0.306029 -0.026774000000000058 -0.951646
vn 0.306029 -0.02677300000000006 -0.951646
vn -0.992404 0.086824 -0.087155
vn -0.992404 0.086824 -0.087156
vn -0.992404 0.086824 -0.087155
vn -0.992404 0.086824 -0.087155
vn 0.201988 0.919733 -0.33658800000000005
vn 0.294862 0.829998 -0.47345500000000007
vn 0.201988 0.919733 -0.33658800000000005
vn 0.101961 0.9769 -0.18780300000000005
vn 0.03921 -0.940834 -0.3365909999999999
vn -0.069225 -0.979764 -0.18780399999999994
vn 0.03921 -0.940834 -0.3365909999999999
vn 0.146257 -0.868588 -0.47345899999999996
vn 0.973644 -0.08518199999999998 0.211568
vn 0.973644 -0.08518199999999998 0.211567
vn 0.973644 -0.08518199999999998 0.211568
vn 0.973644 -0.08518299999999998 0.211568
vn 0.88675 -0.07758000000000002 -0.455693
vn 0.88675 -0.07758100000000002 -0.455692
vn 0.88675 -0.07758000000000002 -0.455693
vn 0.88675 -0.07757900000000002 -0.455693
vn -0.640342 0.056022999999999955 -0.766044
vn -0.640342 0.056022999999999955 -0.766044
vn -0.640342 0.056022999999999955 -0.766044
vn -0.640342 0.056022999999999955 -0.766044
vn 0.403764 0.90208 -0.15240200000000007
vn 0.563772 0.806471 -0.17822900000000005
vn 0.403764 0.90208 -0.15240200000000007
vn 0.229458 0.965746 -0.12117800000000005
vn 0.240988 -0.958488 -0.15240299999999996
vn 0.058273 -0.990919 -0.12117899999999994
vn 0.240988 -0.958488 -0.15240299999999996
vn 0.415168 -0.892115 -0.17822999999999994
vn 0.539439 -0.04719399999999995 0.840701
vn 0.539439 -0.04719399999999995 0.840701
vn 0.539439 -0.04719399999999995 0.840701
vn 0.539439 -0.04719399999999995 0.840701
vn 0.948024 -0.08294099999999999 0.307199
vn 0.948024 -0.08294099999999999 0.307199
vn 0.948024 -0.08294099999999999 0.307199
vn 0.948024 -0.08294099999999999 0.307199
vn 0.086824 -0.007596000000000061 -0.996195
vn 0.086824 -0.007596000000000061 -0.996195
vn 0.086824 -0.007596000000000061 -0.996195
vn 0.086824 -0.007596000000000061 -0.996195
vn 0.416697 0.900948 0.12105999999999995
vn 0.545958 0.80803 0.22140199999999993
vn 0.416697 0.900948 0.12105999999999995
vn 0.272681 0.961964 0.016430999999999942
vn 0.253921 -0.959619 0.12106000000000006
vn 0.101496 -0.9947 0.016431000000000064
vn 0.253921 -0.959619 0.12106000000000006
vn 0.397354 -0.890556 0.22140300000000004
vn -0.210763 0.01844000000000006 0.977363
vn -0.210762 0.018441000000000058 0.977363
vn -0.210763 0.01844000000000006 0.977363
vn -0.210763 0.01844000000000006 0.977363
vn 0.453958 -0.039715999999999946 0.890137
vn 0.453958 -0.039715999999999946 0.890138
vn 0.453958 -0.039715999999999946 0.890137
vn 0.453959 -0.039714999999999945 0.890137
vn 0.76313 -0.06676500000000005 -0.642787
vn 0.76313 -0.06676500000000005 -0.642787
vn 0.76313 -0.06676500000000005 -0.642787
vn 0.76313 -0.06676500000000005 -0.642788
vn 0.233211 0.917001 0.32360599999999995
vn 0.251855 0.83376 0.49133899999999997
vn 0.233211 0.917001 0.32360599999999995
vn 0.20631 0.967771 0.14441499999999993
vn 0.070434 -0.943566 0.32360800000000006
vn 0.035125 -0.988893 0.14441600000000004
vn 0.070434 -0.943566 0.32360800000000006
vn 0.103249 -0.864826 0.4913410000000001
vn -0.837502 0.07327200000000003 0.541499
vn -0.837502 0.07327200000000003 0.541499
vn -0.837502 0.07327200000000003 0.541499
vn -0.837502 0.07327200000000003 0.541499
vn -0.30603 0.026774000000000058 0.951645
vn -0.30603 0.026774000000000058 0.951645
vn -0.30603 0.026774000000000058 0.951645
vn -0.306029 0.02677500000000006 0.951645
vn 0.992404 -0.086824 0.087156
vn 0.992404 -0.086824 0.087156
vn 0.992404 -0.086824 0.087156
vn 0.992404 -0.086824 0.087156
vn -0.039209 0.940835 0.33658799999999994
vn -0.146255 0.86859 0.47345499999999996
vn -0.039209 0.940835 0.33658799999999994
vn 0.069225 0.979764 0.18780299999999994
vn -0.201989 -0.919732 0.33659100000000003
vn -0.101961 -0.9769 0.18780400000000005
vn -0.201989 -0.919732 0.33659100000000003
vn -0.294864 -0.829995 0.4734590000000001
vn 0.087141 0.996196 -1.3000000000060999E-05
vn 0.087141 0.996196 -1.3000000000060999E-05
vn 0.087141 0.996196 -1.3000000000060999E-05
vn 0.087141 0.996196 -1.3000000000060999E-05
vn -0.087141 -0.996196 1.3000000000060999E-05
vn -0.087141 -0.996196 1.3000000000060999E-05
vn -0.087141 -0.996196 1.3000000000060999E-05
vn -0.087141 -0.996196 1.3000000000060999E-05
vn 0.087175 0.996193 -7.000000000060999E-06
vn 0.087175 0.996193 -7.000000000060999E-06
vn 0.087175 0.996193 -7.000000000060999E-06
vn 0.087175 0.996193 -7.000000000060999E-06
vn -0.087175 -0.996193 7.000000000060999E-06
vn -0.087175 -0.996193 7.000000000060999E-06
vn -0.087175 -0.996193 7.000000000060999E-06
vn -0.087175 -0.996193 7.000000000060999E-06
vn 0.087152 0.996195 1.9999999999939002E-05
vn 0.087152 0.996195 1.9999999999939002E-05
vn 0.087152 0.996195 1.9999999999939002E-05
vn 0.087152 0.996195 1.9999999999939002E-05
vn -0.087152 -0.996195 -1.9999999999939002E-05
vn -0.087152 -0.996195 -1.9999999999939002E-05
vn -0.087152 -0.996195 -1.9999999999939002E-05
vn -0.087152 -0.996195 -1.9999999999939002E-05
vn -0.087171 -0.996193 -1.2999999999939E-05
vn -0.087171 -0.996193 -1.2999999999939E-05
vn -0.087171 -0.996193 -1.2999999999939E-05
vn -0.087171 -0.996193 -1.2999999999939E-05
vn 0.087171 0.996193 1.2999999999939E-05
vn 0.087171 0.996193 1.2999999999939E-05
vn 0.087171 0.996193 1.2999999999939E-05
vn 0.087171 0.996193 1.2999999999939E-05
vn -0.087137 -0.996196 -6.999999999939001E-06
vn -0.087137 -0.996196 -5.999999999939001E-06
vn -0.087137 -0.996196 -6.999999999939001E-06
vn -0.087137 -0.996196 -6.999999999939001E-06
vn 0.087137 0.996196 6.999999999939001E-06
vn 0.087137 0.996196 5.999999999939001E-06
vn 0.087137 0.996196 6.999999999939001E-06
vn 0.087137 0.996196 6.999999999939001E-06
vn -0.08716 -0.996194 2.0000000000061E-05
vn -0.08716 -0.996194 2.0000000000061E-05
vn -0.08716 -0.996194 2.0000000000061E-05
vn -0.08716 -0.996194 2.0000000000061E-05
vn 0.08716 0.996194 -2.0000000000061E-05
vn 0.08716 0.996194 -2.0000000000061E-05
vn 0.08716 0.996194 -2.0000000000061E-05
vn 0.08716 0.996194 -2.0000000000061E-05
vn -0.087156 -0.996195 6.099935090382987E-17
vn -0.087155 -0.996195 6.099935090382987E-17
vn -0.087156 -0.996195 6.099935090382987E-17
vn -0.087155 -0.996195 -9.999999999390007E-07
vn -0.087155 -0.996195 -9.999999999390007E-07
vn -0.087155 -0.996195 -9.999999999390007E-07
vn -0.087155 -0.996195 -9.999999999390007E-07
vn -0.087155 -0.996195 6.099935090382987E-17
vn -0.087156 -0.996195 6.099935090382987E-17
vn -0.087156 -0.996195 6.099935090382987E-17
vn -0.087156 -0.996195 6.099935090382987E-17
vn -0.087155 -0.996195 6.099935090382987E-17
vn -0.087155 -0.996195 6.099935090382987E-17
vn -0.087155 -0.996195 6.099935090382987E-17
vn -0.087155 -0.996195 6.099935090382987E-17
vn -0.087156 -0.996195 6.099935090382987E-17
vn -0.087156 -0.996195 6.099935090382987E-17
vn -0.087156 -0.996195 1.0000000000609992E-06
vn -0.087156 -0.996195 6.099935090382987E-17
vn -0.087156 -0.996195 6.099935090382987E-17
vn -0.087155 -0.996195 1.0000000000609992E-06
vn -0.087155 -0.996195 1.0000000000609992E-06
vn -0.087156 -0.996195 6.099935090382987E-17
vn -0.087156 -0.996195 6.099935090382987E-17
vn -0.087156 -0.996195 6.099935090382987E-17
vn -0.087156 -0.996195 6.099935090382987E-17
vn -0.087156 -0.996195 6.099935090382987E-17
vn -0.087156 -0.996195 6.099935090382987E-17
vn -0.087157 -0.996195 1.0000000000609992E-06
vn -0.087157 -0.996195 1.0000000000609992E-06
vn -0.087156 -0.996195 1.0000000000609992E-06
vn -0.087156 -0.996195 6.099935090382987E-17
vn -0.087155 -0.996195 6.099935090382987E-17
vn -0.087155 -0.996195 -9.999999999390007E-07
vn -0.087155 -0.996195 6.099935090382987E-17
vn -0.087156 -0.996195 -9.999999999390007E-07
vn -0.087157 -0.996195 -9.999999999390007E-07
vn -0.087157 -0.996195 -9.999999999390007E-07
vn -0.087156 -0.996195 6.099935090382987E-17
vn -0.087156 -0.996195 6.099935090382987E-17
vn -0.948864 0.08301500000000002 0.304575
vn -0.982559 0.08596300000000001 0.164887
vn -0.830797 0.07268500000000003 0.55181
vn -0.748211 0.06546000000000005 0.660224
vn -0.541359 0.04736300000000005 0.839456
vn -0.415767 0.036376000000000054 0.908743
vn -0.147407 0.012897000000000061 0.988992
vn -0.004649 0.0004070000000000613 0.999989
vn -0.581781 0.05089899999999995 -0.811752
vn -0.459848 0.04023199999999994 -0.887086
vn -0.779535 0.06819999999999996 -0.622634
vn -0.856731 0.07495399999999998 -0.510288
vn -0.962622 0.08421799999999999 -0.257424
vn -0.989457 0.08656599999999999 -0.116112
vn -0.982559 0.08596300000000001 0.164887
vn -0.948864 0.08301500000000002 0.304575
vn 0.589304 -0.05155700000000005 -0.806265
vn 0.698358 -0.06109800000000004 -0.713136
vn 0.349018 -0.03053500000000006 -0.936619
vn 0.218722 -0.01913600000000006 -0.9756
vn -0.053574 0.00468799999999994 -0.998553
vn -0.195751 0.01712599999999994 -0.980504
vn -0.459848 0.04023199999999994 -0.887086
vn -0.581781 0.05089899999999995 -0.811752
vn 0.94599 -0.08276299999999999 0.313453
vn 0.891457 -0.07799099999999998 0.446344
vn 0.99524 -0.087072 0.043772000000000005
vn 0.991908 -0.086781 -0.092665
vn 0.929511 -0.08132100000000003 -0.359716
vn 0.868476 -0.07598100000000003 -0.489873
vn 0.698358 -0.06109800000000004 -0.713136
vn 0.589304 -0.05155700000000005 -0.806265
vn -0.004649 0.0004070000000000613 0.999989
vn -0.147407 0.012897000000000061 0.988992
vn 0.266075 -0.023278999999999942 0.963671
vn 0.394311 -0.034496999999999944 0.918329
vn 0.628044 -0.05494499999999995 0.776236
vn 0.732498 -0.06408399999999996 0.677746
vn 0.891457 -0.07799099999999998 0.446344
vn 0.94599 -0.08276299999999999 0.313453
vn -0.830797 0.07268500000000003 0.55181
vn -0.982559 0.08596200000000001 0.164887
vn -0.948864 0.08301500000000002 0.304575
vn -0.748211 0.06546000000000005 0.660224
vn -0.541359 0.04736200000000005 0.839456
vn -0.415767 0.03637400000000005 0.908743
vn -0.147407 0.01289600000000006 0.988992
vn -0.004649 0.0004070000000000613 0.999989
vn -0.779535 0.06819999999999996 -0.622634
vn -0.459848 0.04023099999999995 -0.887086
vn -0.58178 0.05089899999999995 -0.811752
vn -0.856731 0.07495499999999997 -0.510288
vn -0.962622 0.08421899999999999 -0.257423
vn -0.989457 0.08656599999999999 -0.116112
vn -0.982559 0.08596200000000001 0.164887
vn -0.948864 0.08301500000000002 0.304575
vn 0.349018 -0.03053500000000006 -0.936619
vn 0.698358 -0.06109900000000004 -0.713136
vn 0.589304 -0.05155700000000005 -0.806265
vn 0.218722 -0.01913600000000006 -0.9756
vn -0.053574 0.0046869999999999395 -0.998553
vn -0.195751 0.017124999999999942 -0.980504
vn -0.459848 0.04023099999999995 -0.887086
vn -0.58178 0.05089899999999995 -0.811752
vn 0.99524 -0.087072 0.043772000000000005
vn 0.891456 -0.07799299999999998 0.446344
vn 0.94599 -0.08276299999999999 0.313453
vn 0.991908 -0.086781 -0.092665
vn 0.929511 -0.08132200000000003 -0.359716
vn 0.868476 -0.07598200000000002 -0.489873
vn 0.698358 -0.06109900000000004 -0.713136
vn 0.589304 -0.05155700000000005 -0.806265
vn 0.266075 -0.023278999999999942 0.963671
vn -0.147407 0.01289600000000006 0.988992
vn -0.004649 0.0004070000000000613 0.999989
vn 0.394311 -0.034497999999999945 0.918329
vn 0.628043 -0.05494799999999995 0.776236
vn 0.732498 -0.06408699999999996 0.677746
vn 0.891456 -0.07799299999999998 0.446344
vn 0.94599 -0.08276299999999999 0.313453
vn 0.087156 0.996195 -6.099935090382987E-17
vn 0.087156 0.996195 -6.099935090382987E-17
vn 0.087156 0.996195 -6.099935090382987E-17
vn 0.087156 0.996195 -6.099935090382987E-17
vn 0.087156 0.996195 -1.0000000000609992E-06
vn 0.087156 0.996195 -1.0000000000609992E-06
vn 0.087157 0.996195 -6.099935090382987E-17
vn 0.087157 0.996195 -6.099935090382987E-17
vn 0.087156 0.996195 -6.099935090382987E-17
vn 0.087156 0.996195 9.999999999390007E-07
vn 0.087156 0.996195 -6.099935090382987E-17
vn 0.087156 0.996195 -6.099935090382987E-17
vn 0.087157 0.996195 -6.099935090382987E-17
vn 0.087157 0.996195 -6.099935090382987E-17
vn 0.087156 0.996195 -6.099935090382987E-17
vn 0.087156 0.996195 -6.099935090382987E-17
vn 0.087156 0.996195 -6.099935090382987E-17
vn 0.087155 0.996195 -6.099935090382987E-17
vn 0.087156 0.996195 -6.099935090382987E-17
vn 0.087156 0.996195 9.999999999390007E-07
vn 0.087156 0.996195 1.9999999999390004E-06
vn 0.087156 0.996195 1.9999999999390004E-06
vn 0.087156 0.996195 9.999999999390007E-07
vn 0.087156 0.996195 -6.099935090382987E-17
vn 0.087156 0.996195 -6.099935090382987E-17
vn 0.087155 0.996195 -6.099935090382987E-17
vn 0.087156 0.996195 -6.099935090382987E-17
vn 0.087155 0.996195 -6.099935090382987E-17
vn 0.087155 0.996195 9.999999999390007E-07
vn 0.087155 0.996195 9.999999999390007E-07
vn 0.087155 0.996195 -6.099935090382987E-17
vn 0.087156 0.996195 -6.099935090382987E-17
vn 0.087156 0.996195 -6.099935090382987E-17
vn 0.087157 0.996195 -6.099935090382987E-17
vn 0.087157 0.996195 -6.099935090382987E-17
vn 0.087156 0.996195 -6.099935090382987E-17
vn 0.087155 0.996195 -6.099935090382987E-17
vn 0.087155 0.996195 -6.099935090382987E-17
vn 0.087155 0.996195 -6.099935090382987E-17
vn 0.087156 0.996195 -6.099935090382987E-17
g 01
f 1/1/1 2/2/2 3/3/3
f 3/3/3 4/4/4 1/1/1
f 5/5/5 6/6/6 7/7/7
f 7/7/7 8/8/8 5/5/5
f 9/9/9 10/10/10 11/11/11
f 11/11/11 12/12/12 9/9/9
f 13/13/13 14/14/14 15/15/15
f 15/15/15 16/16/16 13/13/13
f 17/17/17 18/18/18 19/19/19
f 19/19/19 20/20/20 17/17/17
f 21/21/21 22/22/22 23/23/23
f 23/23/23 24/24/24 21/21/21
f 25/25/25 26/26/26 27/27/27
f 27/27/27 28/28/28 25/25/25
f 29/29/29 30/30/30 31/31/31
f 31/31/31 32/32/32 29/29/29
f 33/33/33 34/34/34 35/35/35
f 35/35/35 36/36/36 33/33/33
f 37/37/37 38/38/38 39/39/39
f 39/39/39 40/40/40 37/37/37
f 41/41/41 42/42/42 43/43/43
f 43/43/43 44/44/44 41/41/41
f 45/45/45 46/46/46 47/47/47
f 47/47/47 48/48/48 45/45/45
f 49/49/49 50/50/50 51/51/51
f 51/51/51 52/52/52 49/49/49
f 53/53/53 54/54/54 55/55/55
f 55/55/55 56/56/56 53/53/53
f 57/57/57 58/58/58 59/59/59
f 59/59/59 60/60/60 57/57/57
f 61/61/61 62/62/62 63/63/63
f 63/63/63 64/64/64 61/61/61
f 65/65/65 66/66/66 67/67/67
f 67/67/67 68/68/68 65/65/65
f 69/69/69 70/70/70 71/71/71
f 71/71/71 72/72/72 69/69/69
f 73/73/73 74/74/74 75/75/75
f 75/75/75 76/76/76 73/73/73
f 77/77/77 78/78/78 79/79/79
f 79/79/79 80/80/80 77/77/77
f 81/81/81 82/82/82 83/83/83
f 83/83/83 84/84/84 81/81/81
f 85/85/85 86/86/86 87/87/87
f 87/87/87 88/88/88 85/85/85
f 89/89/89 90/90/90 91/91/91
f 91/91/91 92/92/92 89/89/89
f 93/93/93 94/94/94 95/95/95
f 95/95/95 96/96/96 93/93/93
f 97/97/97 98/98/98 99/99/99
f 99/99/99 100/100/100 97/97/97
f 101/101/101 102/102/102 103/103/103
f 103/103/103 104/104/104 101/101/101
f 105/105/105 106/106/106 107/107/107
f 107/107/107 108/108/108 105/105/105
f 109/109/109 110/110/110 111/111/111
f 111/111/111 112/112/112 109/109/109
f 113/113/113 114/114/114 115/115/115
f 115/115/115 116/116/116 113/113/113
f 117/117/117 118/118/118 119/119/119
f 119/119/119 120/120/120 117/117/117
f 121/121/121 122/122/122 123/123/123
f 123/123/123 124/124/124 121/121/121
f 125/125/125 126/126/126 127/127/127
f 127/127/127 128/128/128 125/125/125
f 129/129/129 130/130/130 131/131/131
f 131/131/131 132/132/132 129/129/129
f 133/133/133 134/134/134 135/135/135
f 135/135/135 136/136/136 133/133/133
f 137/137/137 138/138/138 139/139/139
f 139/139/139 140/140/140 137/137/137
f 141/141/141 142/142/142 143/143/143
f 143/143/143 144/144/144 141/141/141
f 145/145/145 146/146/146 147/147/147
f 147/147/147 148/148/148 145/145/145
f 149/149/149 150/150/150 151/151/151
f 151/151/151 152/152/152 149/149/149
f 153/153/153 154/154/154 155/155/155
f 155/155/155 156/156/156 153/153/153
f 157/157/157 158/158/158 159/159/159
f 159/159/159 160/160/160 157/157/157
f 161/161/161 162/162/162 163/163/163
f 163/163/163 164/164/164 161/161/161
f 165/165/165 166/166/166 167/167/167
f 167/167/167 168/168/168 165/165/165
f 169/169/169 170/170/170 171/171/171
f 171/171/171 172/172/172 169/169/169
f 173/173/173 174/174/174 175/175/175
f 175/175/175 176/176/176 173/173/173
f 177/177/177 178/178/178 179/179/179
f 179/179/179 180/180/180 177/177/177
f 181/181/181 182/182/182 183/183/183
f 183/183/183 184/184/184 181/181/181
f 185/185/185 186/186/186 187/187/187
f 187/187/187 188/188/188 185/185/185
f 189/189/189 190/190/190 191/191/191
f 191/191/191 192/192/192 189/189/189
f 193/193/193 194/194/194 195/195/195
f 195/195/195 196/196/196 193/193/193
f 197/197/197 198/198/198 199/199/199
f 199/199/199 200/200/200 197/197/197
f 201/201/201 202/202/202 203/203/203
f 203/203/203 204/204/204 201/201/201
f 205/205/205 206/206/206 207/207/207
f 207/207/207 208/208/208 205/205/205
f 209/209/209 210/210/210 211/211/211
f 211/211/211 212/212/212 209/209/209
f 212/212/212 211/211/211 213/213/213
f 213/213/213 214/214/214 212/212/212
f 214/214/214 213/213/213 215/215/215
f 215/215/215 216/216/216 214/214/214
f 217/217/217 218/218/218 219/219/219
f 219/219/219 220/220/220 217/217/217
f 220/220/220 219/219/219 221/221/221
f 221/221/221 222/222/222 220/220/220
f 222/222/222 221/221/221 223/223/223
f 223/223/223 224/224/224 222/222/222
f 225/225/225 226/226/226 227/227/227
f 227/227/227 228/228/228 225/225/225
f 228/228/228 227/227/227 229/229/229
f 229/229/229 230/230/230 228/228/228
f 230/230/230 229/229/229 231/231/231
f 231/231/231 232/232/232 230/230/230
f 233/233/233 234/234/234 235/235/235
f 235/235/235 236/236/236 233/233/233
f 236/236/236 235/235/235 237/237/237
f 237/237/237 238/238/238 236/236/236
f 238/238/238 237/237/237 239/239/239
f 239/239/239 240/240/240 238/238/238
f 241/241/241 242/242/242 243/243/243
f 243/243/243 244/244/244 241/241/241
f 244/244/244 243/243/243 245/245/245
f 245/245/245 246/246/246 244/244/244
f 246/246/246 245/245/245 247/247/247
f 247/247/247 248/248/248 246/246/246
f 249/249/249 250/250/250 251/251/251
f 251/251/251 252/252/252 249/249/249
f 252/252/252 251/251/251 253/253/253
f 253/253/253 254/254/254 252/252/252
f 254/254/254 253/253/253 255/255/255
f 255/255/255 256/256/256 254/254/254
f 257/257/257 258/258/258 259/259/259
f 259/259/259 260/260/260 257/257/257
f 260/260/260 259/259/259 261/261/261
f 261/261/261 262/262/262 260/260/260
f 262/262/262 261/261/261 263/263/263
f 263/263/263 264/264/264 262/262/262
f 265/265/265 266/266/266 267/267/267
f 267/267/267 268/268/268 265/265/265
f 268/268/268 267/267/267 269/269/269
f 269/269/269 270/270/270 268/268/268
f 270/270/270 269/269/269 271/271/271
f 271/271/271 272/272/272 270/270/270
f 273/273/273 274/274/274 275/275/275
f 275/275/275 276/276/276 273/273/273
f 276/276/276 275/275/275 277/277/277
f 277/277/277 278/278/278 276/276/276
f 278/278/278 277/277/277 279/279/279
f 279/279/279 280/280/280 278/278/278
f 281/281/281 282/282/282 283/283/283
f 283/283/283 284/284/284 281/281/281
f 284/284/284 283/283/283 285/285/285
f 285/285/285 286/286/286 284/284/284
f 286/286/286 285/285/285 287/287/287
f 287/287/287 288/288/288 286/286/286
f 289/289/289 290/290/290 291/291/291
f 291/291/291 292/292/292 289/289/289
f 293/293/293 289/289/289 292/292/292
f 292/292/292 294/294/294 293/293/293
f 295/295/295 293/293/293 294/294/294
f 294/294/294 296/296/296 295/295/295
f 297/297/297 298/298/298 299/299/299
f 299/299/299 300/300/300 297/297/297
f 301/301/301 297/297/297 300/300/300
f 300/300/300 302/302/302 301/301/301
f 303/303/303 301/301/301 302/302/302
f 302/302/302 304/304/304 303/303/303
f 305/305/305 306/306/306 307/307/307
f 307/307/307 308/308/308 305/305/305
f 309/309/309 305/305/305 308/308/308
f 308/308/308 310/310/310 309/309/309
f 311/311/311 309/309/309 310/310/310
f 310/310/310 312/312/312 311/311/311
f 313/313/313 314/314/314 315/315/315
f 315/315/315 316/316/316 313/313/313
f 317/317/317 313/313/313 316/316/316
f 316/316/316 318/318/318 317/317/317
f 319/319/319 317/317/317 318/318/318
f 318/318/318 320/320/320 319/319/319
f 321/321/321 322/322/322 323/323/323
f 323/323/323 324/324/324 321/321/321
f 325/325/325 321/321/321 324/324/324
f 324/324/324 326/326/326 325/325/325
f 327/327/327 325/325/325 326/326/326
f 326/326/326 328/328/328 327/327/327
f 329/329/329 330/330/330 331/331/331
f 331/331/331 332/332/332 329/329/329
f 333/333/333 329/329/329 332/332/332
f 332/332/332 334/334/334 333/333/333
f 335/335/335 333/333/333 334/334/334
f 334/334/334 336/336/336 335/335/335
f 337/337/337 338/338/338 339/339/339
f 339/339/339 340/340/340 337/337/337
f 341/341/341 337/337/337 340/340/340
f 340/340/340 342/342/342 341/341/341
f 343/343/343 341/341/341 342/342/342
f 342/342/342 344/344/344 343/343/343
f 345/345/345 346/346/346 347/347/347
f 347/347/347 348/348/348 345/345/345
f 349/349/349 345/345/345 348/348/348
f 348/348/348 350/350/350 349/349/349
f 351/351/351 349/349/349 350/350/350
f 350/350/350 352/352/352 351/351/351
f 353/353/353 354/354/354 355/355/355
f 355/355/355 356/356/356 353/353/353
f 357/357/357 353/353/353 356/356/356
f 356/356/356 358/358/358 357/357/357
f 359/359/359 357/357/357 358/358/358
f 358/358/358 360/360/360 359/359/359
f 361/361/361 362/362/362 363/363/363
f 363/363/363 364/364/364 361/361/361
f 365/365/365 361/361/361 364/364/364
f 364/364/364 366/366/366 365/365/365
f 367/367/367 365/365/365 366/366/366
f 366/366/366 368/368/368 367/367/367
