v 0.838053 0.92488 0.013366999999999943
v 0.865304 1.067315 0.013366999999999934
v 0.782506 1.081799 0.23236099999999996
v 0.755254 0.939364 0.23236099999999996
v 0.622376 1.111039 0.24810799999999994
v 0.595125 0.968604 0.24810799999999994
v 0.476406 1.135197 0.26092499999999996
v 0.449155 0.992762 0.26092499999999996
v 0.362724 1.157723 0.28118899999999997
v 0.335473 1.015288 0.28118899999999997
vt 0.000000 0.499476
vt 0.000000 1.000000
vt 0.250000 1.000000
vt 0.250000 0.499476
vt 0.500000 1.000000
vt 0.500000 0.499476
vt 0.750000 1.000000
vt 0.750000 0.499476
vt 1.000000 1.000000
vt 1.000000 0.499476
vn 0.916975 -0.17543999999999998 0.358297
vn 0.916976 -0.17543999999999998 0.358297
vn 0.740313 -0.14163999999999996 0.657172
vn 0.424616 -0.08123899999999995 0.901722
vn 0.091318 -0.017470999999999938 0.995668
vn 0.088058 -0.016847999999999936 0.995973
vn 0.113015 -0.021622999999999937 0.993358
vn 0.141164 -0.027007999999999942 0.989618
vn 0.169171 -0.03236699999999994 0.985055
vn 0.169171 -0.03236699999999994 0.985055
g water
f 1/1/1 2/2/2 3/3/3
f 3/3/3 4/4/4 1/1/1
f 4/4/4 3/3/3 5/5/5
f 5/5/5 6/6/6 4/4/4
f 6/6/6 5/5/5 7/7/7
f 7/7/7 8/8/8 6/6/6
f 8/8/8 7/7/7 9/9/9
f 9/9/9 10/10/10 8/8/8
