v 0.31326358 -0.5776127699999999 0.024619045000000034
v 0.31898393999999997 0.45424406 0.02228881999999997
v -0.322152465 0.45447645999999997 0.02233239499999997
v -0.273453045 -0.600971045 0.024641040000000034
v 0.41617445000000003 0.46442649999999996 -0.198534755
v -0.41934339000000004 0.46465890000000004 -0.198490765
v 0.31898393999999997 0.45424406 0.02228881999999997
v -0.322152465 0.45447645999999997 0.02233239499999997
vt 0.394425 0.884811
vt 0.417067 0.882226
vt 0.044051 0.631852
vt 0.011688 0.631852
vt 0.417067 0.882226
vt 0.044051 0.631852
vt 0.417067 0.882226
vt 0.044051 0.631852
vn 1E-05 0.002221000000000061 0.999998
vn 6.9E-05 0.002258000000000061 0.999997
vn 1E-05 0.002221000000000061 0.999998
vn -5E-05 0.002185000000000061 0.999998
vn 0.00028 0.998933 0.046185999999999935
vn 0.000365 0.998946 0.045901999999999936
vn 0.000365 0.998946 0.045901999999999936
vn 0.000365 0.998946 0.045901999999999936
g Default Standard
f 7/7/7 5/5/5 6/6/6
f 6/6/6 8/8/8 7/7/7
f 3/3/3 4/4/4 1/1/1
f 1/1/1 2/2/2 3/3/3
