v 0.2549123955 -0.0139879845 8.565170222223895e-19
v 0.179797338 -0.195331752 1.1960620242932229e-17
v -0.0015463979999999998 -0.2704467465 1.6560087122052033e-17
v -0.18289013399999998 -0.1953317205 1.196061831411352e-17
v -0.25800512849999996 -0.0139879845 8.565170222223895e-19
v -0.18289010249999998 0.1673557515 -1.0247584269668743e-17
v -0.001546335 0.2424707775 -1.4847053077607256e-17
v 0.1797973695 0.16735571999999999 -1.0247582340850034e-17
v 0.2549123955 -0.01398798449999998 0.32786869500000004
v 0.179797338 -0.19533175199999997 0.32786869500000004
v -0.0015463979999999998 -0.2704467465 0.32786869500000004
v -0.18289013399999998 -0.19533172049999997 0.32786869500000004
v -0.25800512849999996 -0.01398798449999998 0.32786869500000004
v -0.18289010249999998 0.16735575150000004 0.32786869500000004
v -0.001546335 0.24247077750000004 0.32786869500000004
v 0.1797973695 0.16735572 0.32786869500000004
v -0.054660721499999995 0.11424139650000002 0.35799236549999996
v -0.1297757475 -0.06710233949999997 0.35799236549999996
v 0.051567957000000005 -0.14221739699999997 0.35799236549999996
v 0.126683046 0.03912633900000002 0.35799236549999996
v 0.160588323 0.029455870500000016 0.236298258
v 0.14381961299999999 -0.09791510399999999 0.236298258
v 0.041897457000000006 -0.17612270549999998 0.236298258
v -0.085473486 -0.15935396399999996 0.236298258
v -0.16368108750000002 -0.05743183949999999 0.236298258
v -0.1469123775 0.06993910350000002 0.236298258
v -0.044990221500000004 0.14814670500000005 0.236298258
v 0.082380753 0.13137799500000003 0.236298258
v 0.160588323 0.029455870500000036 0.5641669845
v 0.14381961299999999 -0.09791510399999998 0.5641669845
v 0.041897457000000006 -0.17612270549999998 0.5641669845
v -0.085473486 -0.15935396399999996 0.5641669845
v -0.16368108750000002 -0.05743183949999997 0.5641669845
v -0.1469123775 0.06993910350000003 0.5641669845
v -0.044990221500000004 0.14814670500000005 0.5641669845
v 0.082380753 0.13137799500000003 0.5641669845
v -0.056847483 0.058081842000000036 0.5942906235
v -0.0736162245 -0.06928913249999996 0.5942906235
v 0.05375475 -0.08605784249999995 0.5942906235
v 0.07052346000000001 0.04131313200000004 0.5942906235
v -0.0030208815 -0.016836340499999953 0.8155208565000001
v -0.1043577675 0.08450057700000005 0.6885586575
v -0.0030208815 0.12647571300000005 0.6885586575
v 0.09831603600000001 0.08450057700000005 0.6885586575
v -0.063025893 0.04316867100000003 0.5198197095
v -0.0030208815 0.06802352550000003 0.5198197095
v 0.05698413 0.043168639500000036 0.5198197095
v -0.28396053000000004 -0.295960077 0.14072177700000002
v -0.28396053000000004 0.291867093 0.14072177699999996
v 0.2751922215 0.291867093 0.14072177699999996
v 0.2751922215 -0.295960077 0.14072177700000002
v -0.154107198 -0.22767176249999996 0.508686948
v -0.2222461395 0.15876365400000003 0.508686948
v 0.145338795 0.22357877850000002 0.508686948
v 0.213477768 -0.16285663799999997 0.508686948
v -0.346489479 0.346546746 0.04709186999999998
v 0.3410604855 0.346546746 0.04709186999999998
v 0.2777318145 0.299479824 0.11130159599999999
v -0.283160808 0.299479824 0.11130159599999999
v 0.3410604855 -0.3465928935 0.04709187000000002
v 0.2943730125 -0.299526381 0.11469997350000001
v -0.346489479 -0.3465928935 0.04709187000000002
v -0.29980203749999995 -0.299526381 0.11469997350000001
v 0.2317644315 0.2507676255 -0.0032408775000000154
v -0.237193362 0.2507676255 -0.0032408775000000154
v 0.245678013 -0.250814592 -0.0066392549999999845
v -0.2511069435 -0.250814592 -0.0066392549999999845
v 0.141551172 -0.019263131999999957 0.6885586575
v 0.083099016 -0.019263131999999968 0.5198197095
v -0.001760913 -0.01926313199999995 0.8155208565000001
v 0.0995760045 0.08207378550000004 0.6885586575
v 0.0995760045 -0.12060004949999996 0.6885586575
v 0.058244067000000004 0.04074184800000004 0.5198197095
v 0.058244067000000004 -0.07926817499999997 0.5198197095
v -0.003020913 -0.16233335999999993 0.6885586575
v 0.098315973 -0.12035828699999997 0.6885586575
v -0.0030208815 -0.10388126699999997 0.5198197095
v 0.0569840985 -0.07902641249999998 0.5198197095
v -0.003020913 -0.01902140099999995 0.8155208565000001
v -0.104357799 -0.12035834999999996 0.6885586575
v -0.0630258615 -0.07902641249999998 0.5198197095
v -0.1043884485 -0.12060011249999995 0.6885586575
v -0.14636349 -0.019263131999999957 0.6885586575
v -0.063056511 -0.07926811199999997 0.5198197095
v -0.087911397 -0.019263131999999968 0.5198197095
v -0.003051531 -0.01926313199999995 0.8155208565000001
v -0.1043883855 0.08207375400000005 0.6885586575
v -0.063056511 0.040741879500000036 0.5198197095
v 0.082767573 -0.10163484449999996 0.6922531980000001
v 0.043703352 -0.06257062349999996 0.5327721315
v -0.0130095 -0.00585777149999995 0.812249613
v 0.1224397125 -0.0058578029999999575 0.6922531980000001
v -0.0130095 -0.14130701549999994 0.6922531980000001
v 0.0671945715 -0.005857802999999967 0.5327721315
v -0.013009531500000001 -0.08606184299999997 0.5327721315
v -0.10106683649999999 0.06368903100000003 0.6922531980000001
v -0.058746586499999996 0.02817813600000003 0.5327721315
v 0.0026932815 -0.02337605549999995 0.812249613
v -0.1322404965 -0.03518124749999996 0.6922531980000001
v -0.0091119105 0.11155772250000004 0.6922531980000001
v -0.077205555 -0.03036628349999997 0.5327721315
v -0.0042969465 0.05652281250000004 0.5327721315
v 0.07388892000000001 0.08002137150000004 0.6922531980000001
v 0.038378025 0.03770112150000003 0.5327721315
v -0.013176166500000001 -0.02373877799999995 0.812249613
v -0.024981327 0.11119503150000004 0.6922531980000001
v 0.12175761149999999 -0.011933585999999958 0.6922531980000001
v -0.0201663945 0.05616009000000003 0.5327721315
v 0.0667227015 -0.016748549999999966 0.5327721315
v -0.074783646 -0.11752240499999995 0.6922531980000001
v -0.043096315499999996 -0.07226824499999998 0.5327721315
v 0.0029068515 -0.00656888399999995 0.812249613
v 0.026427366 -0.13996032749999993 0.6922531980000001
v -0.1304845605 -0.030089429999999955 0.6922531980000001
v 0.016834104 -0.08555447249999998 0.5327721315
v -0.07607873700000001 -0.02049616799999997 0.5327721315
v -0.117202239 -0.19038971699999996 0.713086731
v -0.168545727 0.10079395200000005 0.713086731
v 0.10843383599999999 0.14963293800000005 0.713086731
v 0.159777387 -0.14155073099999996 0.713086731
v -0.504 0.504 0.04846873499999997
v 0.5039999685000001 0.504 0.04846873499999997
v 0.5039999685000001 -0.5039999685000001 0.04846873500000003
v -0.504 -0.5039999685000001 0.04846873500000003
v -0.504 0.504 -0.0011067525000000309
v 0.5039999685000001 0.504 -0.0011067525000000309
v 0.5039999685000001 -0.5039999685000001 -0.001106752499999969
v -0.504 -0.5039999685000001 -0.001106752499999969
v -0.0015463979999999998 -0.2704467465 1.6560087122052033e-17
v -0.0015463979999999998 -0.2704467465 0.32786869500000004
v -0.001546335 0.2424707775 -1.4847053077607256e-17
v -0.001546335 0.24247077750000004 0.32786869500000004
v -0.18289013399999998 -0.19533172049999997 0.32786869500000004
v -0.25800512849999996 -0.01398798449999998 0.32786869500000004
v -0.18289010249999998 0.16735575150000004 0.32786869500000004
v -0.001546335 0.24247077750000004 0.32786869500000004
v 0.1797973695 0.16735572 0.32786869500000004
v 0.2549123955 -0.01398798449999998 0.32786869500000004
v 0.179797338 -0.19533175199999997 0.32786869500000004
v -0.0015463979999999998 -0.2704467465 0.32786869500000004
v 0.041897457000000006 -0.17612270549999998 0.236298258
v 0.041897457000000006 -0.17612270549999998 0.5641669845
v -0.044990221500000004 0.14814670500000005 0.236298258
v -0.044990221500000004 0.14814670500000005 0.5641669845
v -0.085473486 -0.15935396399999996 0.5641669845
v -0.16368108750000002 -0.05743183949999997 0.5641669845
v -0.1469123775 0.06993910350000003 0.5641669845
v -0.044990221500000004 0.14814670500000005 0.5641669845
v 0.082380753 0.13137799500000003 0.5641669845
v 0.160588323 0.029455870500000036 0.5641669845
v 0.14381961299999999 -0.09791510399999998 0.5641669845
v 0.041897457000000006 -0.17612270549999998 0.5641669845
v 0.3410604855 0.346546746 0.04709186999999998
v 0.2777318145 0.299479824 0.11130159599999999
v 0.3410604855 -0.3465928935 0.04709187000000002
v 0.2943730125 -0.299526381 0.11469997350000001
v -0.346489479 -0.3465928935 0.04709187000000002
v -0.346489479 0.346546746 0.04709186999999998
v -0.283160808 0.299479824 0.11130159599999999
v -0.29980203749999995 -0.299526381 0.11469997350000001
v -0.283160808 0.299479824 0.11130159599999999
v 0.2777318145 0.299479824 0.11130159599999999
v 0.2777318145 0.299479824 0.11130159599999999
v 0.2943730125 -0.299526381 0.11469997350000001
v 0.245678013 -0.250814592 -0.0066392549999999845
v 0.2317644315 0.2507676255 -0.0032408775000000154
v 0.2777318145 0.299479824 0.11130159599999999
v 0.2943730125 -0.299526381 0.11469997350000001
v -0.29980203749999995 -0.299526381 0.11469997350000001
v 0.245678013 -0.250814592 -0.0066392549999999845
v -0.29980203749999995 -0.299526381 0.11469997350000001
v -0.283160808 0.299479824 0.11130159599999999
v -0.237193362 0.2507676255 -0.0032408775000000154
v -0.237193362 0.2507676255 -0.0032408775000000154
v -0.2511069435 -0.250814592 -0.0066392549999999845
v -0.29980203749999995 -0.299526381 0.11469997350000001
v 0.3410604855 0.346546746 0.04709186999999998
v -0.346489479 0.346546746 0.04709186999999998
v 0.3410604855 -0.3465928935 0.04709187000000002
v 0.3410604855 0.346546746 0.04709186999999998
v 0.5039999685000001 0.504 0.04846873499999997
v -0.346489479 -0.3465928935 0.04709187000000002
v 0.3410604855 -0.3465928935 0.04709187000000002
v 0.5039999685000001 -0.5039999685000001 0.04846873500000003
v -0.346489479 0.346546746 0.04709186999999998
v -0.346489479 -0.3465928935 0.04709187000000002
v -0.504 -0.5039999685000001 0.04846873500000003
v -0.504 0.504 0.04846873499999997
v 0.5039999685000001 0.504 0.04846873499999997
v -0.504 0.504 0.04846873499999997
v 0.5039999685000001 -0.5039999685000001 0.04846873500000003
v 0.5039999685000001 0.504 0.04846873499999997
v 0.5039999685000001 0.504 -0.0011067525000000309
v -0.504 -0.5039999685000001 0.04846873500000003
v 0.5039999685000001 -0.5039999685000001 0.04846873500000003
v 0.5039999685000001 -0.5039999685000001 -0.001106752499999969
v -0.504 0.504 0.04846873499999997
v -0.504 -0.5039999685000001 0.04846873500000003
v -0.504 -0.5039999685000001 -0.001106752499999969
v -0.504 0.504 -0.0011067525000000309
vt 0.131949 0.984369
vt 0.193595 0.984369
vt 0.252878 0.984369
vt 0.069222 0.986058
vt 0.130066 0.986058
vt 0.189384 0.986058
vt 0.251037 0.986058
vt 0.072374 0.984369
vt 0.131949 0.796411
vt 0.193595 0.796411
vt 0.252878 0.796411
vt 0.069222 0.790788
vt 0.130066 0.790788
vt 0.189384 0.790788
vt 0.251037 0.790788
vt 0.072374 0.796411
vt 0.115596 0.770273
vt 0.094231 0.673370
vt 0.145810 0.633231
vt 0.167175 0.730134
vt 0.131949 0.984369
vt 0.193595 0.984369
vt 0.252878 0.984369
vt 0.069923 0.986058
vt 0.131487 0.986058
vt 0.191507 0.986058
vt 0.253889 0.986058
vt 0.072374 0.984369
vt 0.131949 0.796411
vt 0.193595 0.796411
vt 0.252878 0.796411
vt 0.069923 0.790788
vt 0.131487 0.790788
vt 0.191507 0.790788
vt 0.253889 0.790788
vt 0.072374 0.796411
vt 0.115596 0.770273
vt 0.094231 0.673370
vt 0.145810 0.633231
vt 0.167175 0.730134
vt 0.052421 -0.001827
vt 0.012513 0.096998
vt 0.054377 0.117962
vt 0.099345 0.100472
vt 0.008659 0.273607
vt 0.058044 0.272578
vt 0.122318 0.269413
vt 0.406232 0.016243
vt 0.406232 0.189346
vt 0.492554 0.189346
vt 0.492554 0.016243
vt 0.406232 0.016243
vt 0.406232 0.189346
vt 0.492554 0.189346
vt 0.492554 0.016243
vt 0.261643 0.639828
vt 0.496798 0.639581
vt 0.487765 0.508805
vt 0.274390 0.508805
vt 0.498366 0.639387
vt 0.489191 0.510510
vt 0.261643 0.639582
vt 0.274390 0.508806
vt 0.496703 0.639415
vt 0.261738 0.639908
vt 0.479858 0.640195
vt 0.261739 0.639908
vt 0.180104 0.121491
vt 0.182094 0.276152
vt 0.171028 0.004058
vt 0.133290 0.102980
vt 0.226650 0.099479
vt 0.122298 0.279741
vt 0.237456 0.271162
vt 0.174408 0.387029
vt 0.223719 0.388184
vt 0.170187 0.230991
vt 0.231021 0.227434
vt 0.176621 0.505886
vt 0.127463 0.393374
vt 0.126628 0.234251
vt 0.126836 0.110420
vt 0.174510 0.118452
vt 0.126142 0.260277
vt 0.177635 0.273405
vt 0.172318 -0.001832
vt 0.220509 0.110560
vt 0.237200 0.258778
vt 0.180104 0.121491
vt 0.182094 0.276152
vt 0.171028 0.004058
vt 0.133290 0.102980
vt 0.226650 0.099479
vt 0.122298 0.279741
vt 0.237456 0.271162
vt 0.180104 0.121491
vt 0.182094 0.276152
vt 0.171028 0.004058
vt 0.133290 0.102980
vt 0.226650 0.099479
vt 0.122298 0.279741
vt 0.237456 0.271162
vt 0.180104 0.121491
vt 0.182094 0.276152
vt 0.171028 0.004058
vt 0.133290 0.102980
vt 0.226650 0.099479
vt 0.122298 0.279741
vt 0.237456 0.271162
vt 0.180104 0.121491
vt 0.182094 0.276152
vt 0.171028 0.004058
vt 0.133290 0.102980
vt 0.226650 0.099479
vt 0.122298 0.279741
vt 0.237456 0.271162
vt 0.406232 0.016243
vt 0.406232 0.189346
vt 0.492554 0.189346
vt 0.492554 0.016243
vt 0.756205 0.496320
vt 0.995759 0.496320
vt 0.995759 0.002370
vt 0.756205 0.002370
vt 0.756205 0.496320
vt 0.995759 0.496320
vt 0.995759 0.002370
vt 0.756205 0.002370
vt 0.009947 0.986058
vt 0.009947 0.790788
vt 0.012036 0.984369
vt 0.012036 0.796411
vt 0.079124 0.604849
vt 0.057759 0.701752
vt 0.079124 0.798655
vt 0.130703 0.838793
vt 0.182282 0.798655
vt 0.203647 0.701752
vt 0.182282 0.602436
vt 0.130703 0.564711
vt 0.009947 0.986058
vt 0.009947 0.790788
vt 0.012036 0.984369
vt 0.012036 0.796411
vt 0.079124 0.604849
vt 0.057759 0.701752
vt 0.079124 0.798655
vt 0.130703 0.838793
vt 0.182282 0.798655
vt 0.203647 0.701752
vt 0.182282 0.604849
vt 0.130703 0.564711
vt 0.262343 0.639387
vt 0.271519 0.510510
vt 0.496798 0.639582
vt 0.487765 0.508806
vt 0.498366 0.639387
vt 0.262343 0.639387
vt 0.271519 0.510510
vt 0.489191 0.510510
vt 0.274390 0.508805
vt 0.487765 0.508805
vt 0.271519 0.510510
vt 0.489191 0.510510
vt 0.479858 0.640195
vt 0.280851 0.640194
vt 0.271519 0.510510
vt 0.487765 0.508806
vt 0.274390 0.508806
vt 0.496703 0.639415
vt 0.489191 0.510510
vt 0.271519 0.510510
vt 0.280852 0.640195
vt 0.280852 0.640195
vt 0.479858 0.640195
vt 0.489191 0.510510
vt 0.957036 0.419164
vt 0.793638 0.419164
vt 0.957036 0.079504
vt 0.957036 0.419164
vt 0.995759 0.496320
vt 0.793638 0.079504
vt 0.957036 0.079504
vt 0.995759 0.002370
vt 0.793638 0.419164
vt 0.793638 0.079504
vt 0.756205 0.002370
vt 0.756205 0.496320
vt 0.995759 0.496320
vt 0.756205 0.496320
vt 0.995759 0.002370
vt 0.995759 0.496320
vt 0.995759 0.496320
vt 0.756205 0.002370
vt 0.995759 0.002370
vt 0.995759 0.002370
vt 0.756205 0.496320
vt 0.756205 0.002370
vt 0.756205 0.002370
vt 0.756205 0.496320
vn 0.990602 -0.136774 8.374992065329004E-18
vn 0.603748 -0.797175 4.8812890605514564E-17
vn -0.136774 -0.990602 6.065687842644832E-17
vn -0.797175 -0.603748 3.696890278458081E-17
vn -0.990602 0.136774 -8.374992065329004E-18
vn -0.603748 0.797175 -4.8812890605514564E-17
vn 0.136774 0.990602 -6.065687842644832E-17
vn 0.797175 0.603748 -3.696890278458081E-17
vn 0.73675 0.06887600000000005 0.672648
vn 0.654556 -0.528781 0.540321
vn 0.068876 -0.73675 0.672648
vn -0.528781 -0.654556 0.540321
vn -0.835349 -0.10591499999999997 0.53942
vn -0.585106 0.45485700000000007 0.671384
vn -0.105915 0.835349 0.53942
vn 0.454857 0.585106 0.671384
vn -0.036751 0.18777900000000006 0.981524
vn -0.166764 -0.06907599999999994 0.983574
vn 0.106792 -0.15876699999999994 0.981524
vn 0.184431 0.07639400000000006 0.979872
vn 0.992248 0.124274 -7.609587815861909E-18
vn 0.7895 -0.613751 3.758140988117436E-17
vn 0.124274 -0.992248 6.075766685801814E-17
vn -0.613751 -0.7895 4.834293239634177E-17
vn -0.992248 -0.124273 7.609526583521951E-18
vn -0.7895 0.613751 -3.758140988117436E-17
vn -0.124274 0.992248 -6.075766685801814E-17
vn 0.613751 0.7895 -4.834293239634177E-17
vn 0.738309 0.26012500000000005 0.622282
vn 0.789993 -0.3600519999999999 0.496259
vn 0.260125 -0.738309 0.622282
vn -0.360052 -0.789993 0.49625900000000006
vn -0.805899 -0.32443999999999995 0.495243
vn -0.721769 0.30650800000000006 0.620566
vn -0.32444 0.805899 0.49524299999999993
vn 0.306508 0.721769 0.620566
vn -0.124444 0.2557670000000001 0.958695
vn -0.213425 -0.16376699999999994 0.963135
vn 0.214844 -0.18640099999999996 0.958695
vn 0.234741 0.18012300000000006 0.955224
vn -0 0.663119 0.748514
vn -0.382123 0.922525 0.05412199999999995
vn 0.090394 0.985118 0.14619199999999993
vn 0.369714 0.892568 0.2581359999999999
vn -0.364473 0.879916 -0.3048080000000001
vn -0.129369 0.936972 -0.32457300000000006
vn 0.364473 0.879916 -0.3048080000000001
vn 0 6.123233995736766E-17 1
vn 0 6.123233995736766E-17 1
vn 0 6.123233995736766E-17 1
vn 0 6.123233995736766E-17 1
vn 0 6.123233995736766E-17 1
vn 0 6.123233995736766E-17 1
vn 0 6.123233995736766E-17 1
vn 0 6.123233995736766E-17 1
vn 0 0.806526 0.591199
vn 0 0.806526 0.591199
vn 0 0.806526 0.591199
vn 0 0.806526 0.591199
vn 0.822865 3.4794542392694686E-17 0.568238
vn 0.76582 0.011940000000000039 0.642944
vn 0 -0.820707 0.571349
vn 0 -0.820707 0.571349
vn 0 -0.920239 0.39135600000000004
vn 0 -0.920239 0.39135600000000004
vn -0.931059 -0.02379999999999998 0.364091
vn 0 0.928012 0.37255099999999997
vn 0.985118 -0.09039399999999999 0.146192
vn 0.936972 0.12936899999999998 -0.324573
vn 0.663119 4.58332637108491E-17 0.748514
vn 0.922525 0.382123 0.05412099999999998
vn 0.892568 -0.369714 0.258136
vn 0.879915 0.364474 -0.304808
vn 0.879915 -0.364473 -0.304808
vn -0.090393 -0.985118 0.14619200000000004
vn 0.382122 -0.922526 0.05412200000000006
vn 0.129369 -0.936972 -0.32457199999999997
vn 0.364473 -0.879916 -0.30480799999999997
vn 0 -0.663119 0.748514
vn -0.369713 -0.892568 0.25813600000000003
vn -0.364473 -0.879916 -0.30480799999999997
vn -0.922526 -0.382122 0.05412100000000002
vn -0.985118 0.09039400000000002 0.146192
vn -0.879916 -0.364473 -0.304808
vn -0.936972 -0.12936900000000004 -0.324572
vn -0.663119 4.58332637108491E-17 0.748514
vn -0.892568 0.369713 0.258136
vn -0.879916 0.364473 -0.304808
vn 0.632665 -0.760501 0.14619200000000004
vn 0.754017 -0.571062 -0.32457299999999994
vn 0.468896 -0.4688959999999999 0.748514
vn 0.922526 -0.382122 0.054122000000000024
vn 0.369714 -0.892568 0.25813600000000003
vn 0.879916 -0.364473 -0.304808
vn 0.364473 -0.879916 -0.30480799999999997
vn -0.69654 0.702467 0.14619199999999993
vn -0.800919 0.503172 -0.3245720000000001
vn -0.507979 0.42624500000000004 0.748514
vn -0.952319 0.300265 0.05412199999999998
vn -0.446099 0.856949 0.2581359999999999
vn -0.908333 0.286396 -0.304808
vn -0.439776 0.844801 -0.3048080000000001
vn 0.702467 0.69654 0.14619199999999993
vn 0.503172 0.800919 -0.3245720000000001
vn 0.426245 0.507979 0.748514
vn 0.300265 0.952319 0.05412199999999995
vn 0.856949 0.446099 0.258136
vn 0.286396 0.908333 -0.3048080000000001
vn 0.844802 0.439776 -0.304808
vn -0.639086 -0.755113 0.14619200000000004
vn -0.431452 -0.841725 -0.32457199999999997
vn -0.380349 -0.543195 0.748514
vn -0.216122 -0.974865 0.054122000000000066
vn -0.814808 -0.51909 0.25813600000000003
vn -0.20614 -0.929838 -0.30480799999999997
vn -0.803258 -0.511732 -0.30480799999999997
vn 0 6.123233995736766E-17 1
vn 0 6.123233995736766E-17 1
vn 0 6.123233995736766E-17 1
vn 0 6.123233995736766E-17 1
vn 0 -0.00874399999999994 0.999962
vn 0 -0.00874399999999994 0.999962
vn -0.00845 6.123013559312919E-17 0.999964
vn 0 0.00874700000000006 0.999962
vn 0 1 -6.123233995736766E-17
vn 0 1 -6.123233995736766E-17
vn 1 0 0
vn 0 -1 6.123233995736766E-17
vn -0.136774 -0.990602 6.065687842644832E-17
vn 0.068876 -0.73675 0.672648
vn 0.136774 0.990602 -6.065687842644832E-17
vn -0.105915 0.835349 0.53942
vn -0.528781 -0.654556 0.540321
vn -0.835349 -0.10591499999999997 0.53942
vn -0.585106 0.45485700000000007 0.671384
vn -0.105915 0.835349 0.53942
vn 0.454857 0.585106 0.671384
vn 0.73675 0.06887600000000005 0.672648
vn 0.654556 -0.528781 0.540321
vn 0.068876 -0.73675 0.672648
vn 0.124274 -0.992248 6.075766685801814E-17
vn 0.260125 -0.738309 0.622282
vn -0.124274 0.992248 -6.075766685801814E-17
vn -0.32444 0.805899 0.49524299999999993
vn -0.360052 -0.789993 0.49625900000000006
vn -0.805899 -0.32443999999999995 0.495243
vn -0.721769 0.30650800000000006 0.620566
vn -0.32444 0.805899 0.49524299999999993
vn 0.306508 0.721769 0.620566
vn 0.738309 0.26012500000000005 0.622282
vn 0.789993 -0.3600519999999999 0.496259
vn 0.260125 -0.738309 0.622282
vn 0.76582 0.011940000000000039 0.642944
vn 0.703087 0.023565000000000044 0.710713
vn 0 -0.820707 0.571349
vn 0 -0.820707 0.571349
vn -0.774495 0.013061000000000038 0.632445
vn -0.711975 4.2997655279763356E-17 0.702205
vn -0.774495 0.013061000000000038 0.632445
vn -0.83103 0.026239000000000033 0.555609
vn 0 -0.920239 0.39135600000000004
vn 0 -0.920239 0.39135600000000004
vn -0.931059 -0.02379999999999998 0.364091
vn -0.931059 -0.02379999999999998 0.364091
vn -0.923482 -0.028208999999999977 0.382602
vn -0.923482 -0.028208999999999977 0.382602
vn -0.923482 -0.028208999999999977 0.382602
vn 0 0.928012 0.37255099999999997
vn 0 0.928012 0.37255099999999997
vn 0 0.928012 0.37255099999999997
vn 0.924302 -0.023516999999999975 0.380936
vn 0.924302 -0.023516999999999975 0.380936
vn 0.924302 -0.023516999999999975 0.380936
vn 0.931559 -0.02829699999999998 0.362488
vn 0.931559 -0.02829699999999998 0.362488
vn 0.931559 -0.02829699999999998 0.362488
vn 0 -0.00874399999999994 0.999962
vn 0 -0.00874399999999994 0.999962
vn -0.00845 6.123013559312919E-17 0.999964
vn -0.00845 6.123013559312919E-17 0.999964
vn -0.00845 6.123013559312919E-17 0.999964
vn 0 0.00874700000000006 0.999962
vn 0 0.00874700000000006 0.999962
vn 0 0.00874700000000006 0.999962
vn 0.008741 6.123001312844928E-17 0.999962
vn 0.008741 6.123001312844928E-17 0.999962
vn 0.008741 6.123001312844928E-17 0.999962
vn 0.008741 6.123001312844928E-17 0.999962
vn 0 1 -6.123233995736766E-17
vn 0 1 -6.123233995736766E-17
vn 1 0 0
vn 1 0 0
vn 1 0 0
vn 0 -1 6.123233995736766E-17
vn 0 -1 6.123233995736766E-17
vn 0 -1 6.123233995736766E-17
vn -1 0 0
vn -1 0 0
vn -1 0 0
vn -1 0 0
g hedge
f 197/197/197 200/200/200 199/199/199
f 199/199/199 198/198/198 197/197/197
f 194/194/194 128/128/128 196/196/196
f 196/196/196 195/195/195 194/194/194
f 191/191/191 127/127/127 193/193/193
f 193/193/193 192/192/192 191/191/191
f 189/189/189 126/126/126 125/125/125
f 125/125/125 190/190/190 189/189/189
f 185/185/185 188/188/188 187/187/187
f 187/187/187 186/186/186 185/185/185
f 182/182/182 124/124/124 184/184/184
f 184/184/184 183/183/183 182/182/182
f 179/179/179 123/123/123 181/181/181
f 181/181/181 180/180/180 179/179/179
f 177/177/177 122/122/122 121/121/121
f 121/121/121 178/178/178 177/177/177
f 118/118/118 117/117/117 120/120/120
f 120/120/120 119/119/119 118/118/118
f 116/116/116 111/111/111 110/110/110
f 110/110/110 114/114/114 116/116/116
f 111/111/111 115/115/115 113/113/113
f 113/113/113 110/110/110 111/111/111
f 114/114/114 110/110/110 112/112/112
f 110/110/110 113/113/113 112/112/112
f 109/109/109 104/104/104 103/103/103
f 103/103/103 107/107/107 109/109/109
f 104/104/104 108/108/108 106/106/106
f 106/106/106 103/103/103 104/104/104
f 107/107/107 103/103/103 105/105/105
f 103/103/103 106/106/106 105/105/105
f 102/102/102 97/97/97 96/96/96
f 96/96/96 100/100/100 102/102/102
f 97/97/97 101/101/101 99/99/99
f 99/99/99 96/96/96 97/97/97
f 100/100/100 96/96/96 98/98/98
f 96/96/96 99/99/99 98/98/98
f 95/95/95 90/90/90 89/89/89
f 89/89/89 93/93/93 95/95/95
f 90/90/90 94/94/94 92/92/92
f 92/92/92 89/89/89 90/90/90
f 93/93/93 89/89/89 91/91/91
f 89/89/89 92/92/92 91/91/91
f 88/88/88 85/85/85 83/83/83
f 83/83/83 87/87/87 88/88/88
f 85/85/85 84/84/84 82/82/82
f 82/82/82 83/83/83 85/85/85
f 87/87/87 83/83/83 86/86/86
f 83/83/83 82/82/82 86/86/86
f 77/77/77 78/78/78 76/76/76
f 76/76/76 75/75/75 77/77/77
f 81/81/81 77/77/77 75/75/75
f 75/75/75 80/80/80 81/81/81
f 75/75/75 76/76/76 79/79/79
f 80/80/80 75/75/75 79/79/79
f 74/74/74 69/69/69 68/68/68
f 68/68/68 72/72/72 74/74/74
f 69/69/69 73/73/73 71/71/71
f 71/71/71 68/68/68 69/69/69
f 72/72/72 68/68/68 70/70/70
f 68/68/68 71/71/71 70/70/70
f 176/176/176 175/175/175 174/174/174
f 173/173/173 172/172/172 171/171/171
f 168/168/168 170/170/170 67/67/67
f 67/67/67 169/169/169 168/168/168
f 167/167/167 166/166/166 165/165/165
f 66/66/66 164/164/164 163/163/163
f 161/161/161 65/65/65 64/64/64
f 64/64/64 162/162/162 161/161/161
f 157/157/157 160/160/160 159/159/159
f 159/159/159 158/158/158 157/157/157
f 155/155/155 156/156/156 63/63/63
f 63/63/63 62/62/62 155/155/155
f 153/153/153 154/154/154 61/61/61
f 61/61/61 60/60/60 153/153/153
f 56/56/56 59/59/59 58/58/58
f 58/58/58 57/57/57 56/56/56
f 53/53/53 52/52/52 55/55/55
f 55/55/55 54/54/54 53/53/53
f 49/49/49 48/48/48 51/51/51
f 51/51/51 50/50/50 49/49/49
f 47/47/47 46/46/46 43/43/43
f 43/43/43 44/44/44 47/47/47
f 46/46/46 45/45/45 42/42/42
f 42/42/42 43/43/43 46/46/46
f 44/44/44 43/43/43 41/41/41
f 43/43/43 42/42/42 41/41/41
f 37/37/37 40/40/40 149/149/149
f 149/149/149 148/148/148 37/37/37
f 38/38/38 145/145/145 152/152/152
f 152/152/152 39/39/39 38/38/38
f 152/152/152 151/151/151 39/39/39
f 150/150/150 40/40/40 39/39/39
f 39/39/39 151/151/151 150/150/150
f 40/40/40 150/150/150 149/149/149
f 37/37/37 148/148/148 147/147/147
f 147/147/147 146/146/146 38/38/38
f 38/38/38 37/37/37 147/147/147
f 38/38/38 146/146/146 145/145/145
f 28/28/28 36/36/36 29/29/29
f 29/29/29 21/21/21 28/28/28
f 143/143/143 144/144/144 36/36/36
f 36/36/36 28/28/28 143/143/143
f 26/26/26 34/34/34 35/35/35
f 35/35/35 27/27/27 26/26/26
f 25/25/25 33/33/33 34/34/34
f 34/34/34 26/26/26 25/25/25
f 24/24/24 32/32/32 33/33/33
f 33/33/33 25/25/25 24/24/24
f 141/141/141 142/142/142 32/32/32
f 32/32/32 24/24/24 141/141/141
f 22/22/22 30/30/30 31/31/31
f 31/31/31 23/23/23 22/22/22
f 21/21/21 29/29/29 30/30/30
f 30/30/30 22/22/22 21/21/21
f 17/17/17 20/20/20 137/137/137
f 137/137/137 136/136/136 17/17/17
f 18/18/18 133/133/133 140/140/140
f 140/140/140 19/19/19 18/18/18
f 140/140/140 139/139/139 19/19/19
f 138/138/138 20/20/20 19/19/19
f 19/19/19 139/139/139 138/138/138
f 20/20/20 138/138/138 137/137/137
f 17/17/17 136/136/136 135/135/135
f 135/135/135 134/134/134 18/18/18
f 18/18/18 17/17/17 135/135/135
f 18/18/18 134/134/134 133/133/133
f 8/8/8 16/16/16 9/9/9
f 9/9/9 1/1/1 8/8/8
f 131/131/131 132/132/132 16/16/16
f 16/16/16 8/8/8 131/131/131
f 6/6/6 14/14/14 15/15/15
f 15/15/15 7/7/7 6/6/6
f 5/5/5 13/13/13 14/14/14
f 14/14/14 6/6/6 5/5/5
f 4/4/4 12/12/12 13/13/13
f 13/13/13 5/5/5 4/4/4
f 129/129/129 130/130/130 12/12/12
f 12/12/12 4/4/4 129/129/129
f 2/2/2 10/10/10 11/11/11
f 11/11/11 3/3/3 2/2/2
f 1/1/1 9/9/9 10/10/10
f 10/10/10 2/2/2 1/1/1
