v -2.61063582 -2.7019927896 0.11075766000000016
v -2.61063582 -3.18503484 0.11075766000000019
v -2.703031344 -2.7019927896 0.11075766000000016
v -2.703031344 -3.18503484 0.11075766000000019
v -2.6080243176 -2.7788371104 -0.0002449199999998298
v -2.623670244 -2.7671340215999995 0.10478326560000016
v -2.7035623992 -2.7788371104 -0.0002449199999998298
v -2.6080243176 -2.7554306831999997 -0.0002449199999998313
v -2.7035623992 -2.7554306831999997 -0.0002449199999998313
v -2.6879162232 -2.7671338031999997 0.10478326560000016
v -2.6080243176 -3.1307604743999997 -0.00024491999999980824
v -2.623670244 -3.1190573855999997 0.10478326560000019
v -2.7035623992 -3.1307604743999997 -0.00024491999999980824
v -2.6080243176 -3.1073540472 -0.0002449199999998097
v -2.7035623992 -3.1073540472 -0.0002449199999998097
v -2.6879162232 -3.1190573855999997 0.10478326560000019
v -2.61063582 3.2531812872 0.1107576599999998
v -2.61063582 2.7701390184 0.11075765999999983
v -2.703031344 3.2531812872 0.1107576599999998
v -2.703031344 2.7701390184 0.11075765999999983
v -2.6080243176 3.1763367168 -0.0002449200000001945
v -2.623670244 3.1880400551999997 0.1047832655999998
v -2.7035623992 3.1763367168 -0.0002449200000001945
v -2.6080240679999998 3.1997433936 -0.0002449200000001959
v -2.7035623992 3.1997433936 -0.0002449200000001959
v -2.6879162232 3.1880400551999997 0.1047832655999998
v -2.6080243176 2.8244131344 -0.0002449200000001729
v -2.623670244 2.8361166912 0.10478326559999981
v -2.7035623992 2.8244131344 -0.0002449200000001729
v -2.6080243176 2.8478200296000002 -0.0002449200000001744
v -2.7035623992 2.8478200296000002 -0.0002449200000001744
v -2.6879162232 2.8361166912 0.10478326559999981
v 2.9447649504 3.2531810376 0.1107576599999998
v 2.9447649504 2.7701387688 0.11075765999999983
v 2.8523696448 3.2531810376 0.1107576599999998
v 2.8523696448 2.7701387688 0.11075765999999983
v 2.9473764528 3.1763364671999996 -0.0002449200000001945
v 2.9317302768 3.1880398056 0.1047832655999998
v 2.8518383399999996 3.1763364671999996 -0.0002449200000001945
v 2.9473764528 3.1997431439999997 -0.0002449200000001959
v 2.8518383399999996 3.1997431439999997 -0.0002449200000001959
v 2.8674842976 3.1880398056 0.1047832655999998
v 2.9473764528 2.8244128848 -0.0002449200000001729
v 2.9317302768 2.8361164727999997 0.10478326559999981
v 2.8518383399999996 2.8244128848 -0.0002449200000001729
v 2.9473764528 2.8478198112 -0.0002449200000001744
v 2.8518383399999996 2.8478198112 -0.0002449200000001744
v 2.8674842976 2.8361164727999997 0.10478326559999981
v 2.9556779928 -2.7019927896 0.11075766000000016
v 2.9556779928 -3.18503484 0.11075766000000019
v 2.8632826871999995 -2.7019927896 0.11075766000000016
v 2.8632824375999997 -3.18503484 0.11075766000000019
v 2.9582894952 -2.7788371104 -0.0002449199999998298
v 2.9426433191999997 -2.7671340215999995 0.10478326560000016
v 2.8627513824 -2.7788371104 -0.0002449199999998298
v 2.9582894952 -2.7554306831999997 -0.0002449199999998313
v 2.8627513824 -2.7554306831999997 -0.0002449199999998313
v 2.87839734 -2.7671340215999995 0.10478326560000016
v 2.9582894952 -3.1307606927999996 -0.00024491999999980824
v 2.9426433191999997 -3.1190573855999997 0.10478326560000019
v 2.862751164 -3.1307606927999996 -0.00024491999999980824
v 2.9582894952 -3.1073540472 -0.0002449199999998097
v 2.862751164 -3.1073540472 -0.0002449199999998097
v 2.87839734 -3.1190573855999997 0.10478326560000019
v -2.623670244 -2.7671340215999995 0.10478326560000016
v -2.6879162232 -2.7671338031999997 0.10478326560000016
v -2.6080243176 -2.7788371104 -0.0002449199999998298
v -2.623670244 -2.7671340215999995 0.10478326560000016
v -2.6080243176 -2.7554306831999997 -0.0002449199999998313
v -2.7035623992 -2.7788371104 -0.0002449199999998298
v -2.7035623992 -2.7554306831999997 -0.0002449199999998313
v -2.6879162232 -2.7671338031999997 0.10478326560000016
v -2.623670244 -3.1190573855999997 0.10478326560000019
v -2.6879162232 -3.1190573855999997 0.10478326560000019
v -2.6080243176 -3.1307604743999997 -0.00024491999999980824
v -2.623670244 -3.1190573855999997 0.10478326560000019
v -2.6080243176 -3.1073540472 -0.0002449199999998097
v -2.7035623992 -3.1307604743999997 -0.00024491999999980824
v -2.7035623992 -3.1073540472 -0.0002449199999998097
v -2.6879162232 -3.1190573855999997 0.10478326560000019
v -2.623670244 3.1880400551999997 0.1047832655999998
v -2.6879162232 3.1880400551999997 0.1047832655999998
v -2.6080243176 3.1763367168 -0.0002449200000001945
v -2.623670244 3.1880400551999997 0.1047832655999998
v -2.6080240679999998 3.1997433936 -0.0002449200000001959
v -2.7035623992 3.1763367168 -0.0002449200000001945
v -2.7035623992 3.1997433936 -0.0002449200000001959
v -2.6879162232 3.1880400551999997 0.1047832655999998
v -2.623670244 2.8361166912 0.10478326559999981
v -2.6879162232 2.8361166912 0.10478326559999981
v -2.6080243176 2.8244131344 -0.0002449200000001729
v -2.623670244 2.8361166912 0.10478326559999981
v -2.6080243176 2.8478200296000002 -0.0002449200000001744
v -2.7035623992 2.8244131344 -0.0002449200000001729
v -2.7035623992 2.8478200296000002 -0.0002449200000001744
v -2.6879162232 2.8361166912 0.10478326559999981
v 2.9317302768 3.1880398056 0.1047832655999998
v 2.8674842976 3.1880398056 0.1047832655999998
v 2.9473764528 3.1763364671999996 -0.0002449200000001945
v 2.9317302768 3.1880398056 0.1047832655999998
v 2.9473764528 3.1997431439999997 -0.0002449200000001959
v 2.8518383399999996 3.1763364671999996 -0.0002449200000001945
v 2.8518383399999996 3.1997431439999997 -0.0002449200000001959
v 2.8674842976 3.1880398056 0.1047832655999998
v 2.9317302768 2.8361164727999997 0.10478326559999981
v 2.8674842976 2.8361164727999997 0.10478326559999981
v 2.9473764528 2.8244128848 -0.0002449200000001729
v 2.9317302768 2.8361164727999997 0.10478326559999981
v 2.9473764528 2.8478198112 -0.0002449200000001744
v 2.8518383399999996 2.8244128848 -0.0002449200000001729
v 2.8518383399999996 2.8478198112 -0.0002449200000001744
v 2.8674842976 2.8361164727999997 0.10478326559999981
v 2.9426433191999997 -2.7671340215999995 0.10478326560000016
v 2.87839734 -2.7671340215999995 0.10478326560000016
v 2.9582894952 -2.7788371104 -0.0002449199999998298
v 2.9426433191999997 -2.7671340215999995 0.10478326560000016
v 2.9582894952 -2.7554306831999997 -0.0002449199999998313
v 2.8627513824 -2.7788371104 -0.0002449199999998298
v 2.8627513824 -2.7554306831999997 -0.0002449199999998313
v 2.87839734 -2.7671340215999995 0.10478326560000016
v 2.9426433191999997 -3.1190573855999997 0.10478326560000019
v 2.87839734 -3.1190573855999997 0.10478326560000019
v 2.9582894952 -3.1307606927999996 -0.00024491999999980824
v 2.9426433191999997 -3.1190573855999997 0.10478326560000019
v 2.9582894952 -3.1073540472 -0.0002449199999998097
v 2.862751164 -3.1307606927999996 -0.00024491999999980824
v 2.862751164 -3.1073540472 -0.0002449199999998097
v 2.87839734 -3.1190573855999997 0.10478326560000019
vt 0.502005 0.092314
vt 0.623209 0.092314
vt 0.502005 0.062677
vt 0.623209 0.062677
vt 0.502005 0.092314
vt 0.623209 0.092314
vt 0.502005 0.062677
vt 0.502005 0.092314
vt 0.502005 0.062677
vt 0.623209 0.062677
vt 0.502005 0.092314
vt 0.623209 0.092314
vt 0.502005 0.062677
vt 0.502005 0.092314
vt 0.502005 0.062677
vt 0.623209 0.062677
vt 0.502005 0.092314
vt 0.623209 0.092314
vt 0.502005 0.062677
vt 0.623209 0.062677
vt 0.502005 0.092314
vt 0.623209 0.092314
vt 0.502005 0.062677
vt 0.502005 0.092314
vt 0.502005 0.062677
vt 0.623209 0.062677
vt 0.502005 0.092314
vt 0.623209 0.092314
vt 0.502005 0.062677
vt 0.502005 0.092314
vt 0.502005 0.062677
vt 0.623209 0.062677
vt 0.502005 0.092314
vt 0.623209 0.092314
vt 0.502005 0.062677
vt 0.623209 0.062677
vt 0.502005 0.092314
vt 0.623209 0.092314
vt 0.502005 0.062677
vt 0.502005 0.092314
vt 0.502005 0.062677
vt 0.623209 0.062677
vt 0.502005 0.092314
vt 0.623209 0.092314
vt 0.502005 0.062677
vt 0.502005 0.092314
vt 0.502005 0.062677
vt 0.623209 0.062677
vt 0.502005 0.092314
vt 0.623209 0.092314
vt 0.502005 0.062677
vt 0.623209 0.062677
vt 0.502005 0.092314
vt 0.623209 0.092314
vt 0.502005 0.062677
vt 0.502005 0.092314
vt 0.502005 0.062677
vt 0.623209 0.062677
vt 0.502005 0.092314
vt 0.623209 0.092314
vt 0.502005 0.062677
vt 0.502005 0.092314
vt 0.502005 0.062677
vt 0.623209 0.062677
vt 0.623209 0.092314
vt 0.623209 0.062677
vt 0.623185 0.092238
vt 0.501996 0.077387
vt 0.623185 0.062535
vt 0.623185 0.092238
vt 0.623185 0.062535
vt 0.501996 0.077387
vt 0.623209 0.092314
vt 0.623209 0.062677
vt 0.623185 0.092238
vt 0.501996 0.077387
vt 0.623185 0.062535
vt 0.623185 0.092238
vt 0.623185 0.062535
vt 0.501996 0.077387
vt 0.623209 0.092314
vt 0.623209 0.062677
vt 0.623185 0.092238
vt 0.501996 0.077387
vt 0.623185 0.062535
vt 0.623185 0.092238
vt 0.623185 0.062535
vt 0.501996 0.077387
vt 0.623209 0.092314
vt 0.623209 0.062677
vt 0.623185 0.092238
vt 0.501996 0.077387
vt 0.623185 0.062535
vt 0.623185 0.092238
vt 0.623185 0.062535
vt 0.501996 0.077387
vt 0.623209 0.092314
vt 0.623209 0.062677
vt 0.623185 0.092238
vt 0.501996 0.077387
vt 0.623185 0.062535
vt 0.623185 0.092238
vt 0.623185 0.062535
vt 0.501996 0.077387
vt 0.623209 0.092314
vt 0.623209 0.062677
vt 0.623185 0.092238
vt 0.501996 0.077387
vt 0.623185 0.062535
vt 0.623185 0.092238
vt 0.623185 0.062535
vt 0.501996 0.077387
vt 0.623209 0.092314
vt 0.623209 0.062677
vt 0.623185 0.092238
vt 0.501996 0.077387
vt 0.623185 0.062535
vt 0.623185 0.092238
vt 0.623185 0.062535
vt 0.501996 0.077387
vt 0.623209 0.092314
vt 0.623209 0.062677
vt 0.623185 0.092238
vt 0.501996 0.077387
vt 0.623185 0.062535
vt 0.623185 0.092238
vt 0.623185 0.062535
vt 0.501996 0.077387
vn 0 6.123233995736766E-17 1
vn 0 6.123233995736766E-17 1
vn 0 6.123233995736766E-17 1
vn 0 6.123233995736766E-17 1
vn -0 -0.993849 0.11074400000000005
vn -0 -0.993849 0.11074400000000005
vn -0 -0.993849 0.11074400000000005
vn 0 0.993849 0.11074499999999994
vn 0 0.993849 0.11074499999999994
vn -0 -0.993849 0.11074400000000005
vn -0 -0.993849 0.11074400000000005
vn -0 -0.993849 0.11074400000000005
vn -0 -0.993849 0.11074400000000005
vn 0 0.993849 0.11074499999999994
vn 0 0.993849 0.11074499999999994
vn -0 -0.993849 0.11074400000000005
vn 0 6.123233995736766E-17 1
vn 0 6.123233995736766E-17 1
vn 0 6.123233995736766E-17 1
vn 0 6.123233995736766E-17 1
vn -0 -0.993849 0.11074600000000005
vn -0 -0.993849 0.11074600000000005
vn -0 -0.993849 0.11074600000000005
vn 0 0.993849 0.11074599999999994
vn 0 0.993849 0.11074599999999994
vn -0 -0.993849 0.11074600000000005
vn -0 -0.993849 0.11074600000000005
vn -0 -0.993849 0.11074600000000005
vn -0 -0.993849 0.11074600000000005
vn 0 0.993849 0.11074599999999994
vn 0 0.993849 0.11074599999999994
vn -0 -0.993849 0.11074600000000005
vn 0 6.123233995736766E-17 1
vn 0 6.123233995736766E-17 1
vn 0 6.123233995736766E-17 1
vn 0 6.123233995736766E-17 1
vn -0 -0.993849 0.11074600000000005
vn -0 -0.993849 0.11074600000000005
vn -0 -0.993849 0.11074600000000005
vn 0 0.993849 0.11074599999999994
vn 0 0.993849 0.11074599999999994
vn -0 -0.993849 0.11074600000000005
vn -0 -0.993849 0.11074600000000005
vn -0 -0.993849 0.11074600000000005
vn -0 -0.993849 0.11074600000000005
vn 0 0.993849 0.11074599999999994
vn 0 0.993849 0.11074599999999994
vn -0 -0.993849 0.11074600000000005
vn 0 6.123233995736766E-17 1
vn 0 6.123233995736766E-17 1
vn 0 6.123233995736766E-17 1
vn 0 6.123233995736766E-17 1
vn -0 -0.993849 0.11074400000000005
vn -0 -0.993849 0.11074400000000005
vn -0 -0.993849 0.11074400000000005
vn 0 0.993849 0.11074499999999994
vn 0 0.993849 0.11074499999999994
vn -0 -0.993849 0.11074400000000005
vn -0 -0.993849 0.11074400000000005
vn -0 -0.993849 0.11074400000000005
vn -0 -0.993849 0.11074400000000005
vn 0 0.993849 0.11074499999999994
vn 0 0.993849 0.11074499999999994
vn -0 -0.993849 0.11074400000000005
vn 0 0.993849 0.11074499999999994
vn 0 0.993849 0.11074499999999994
vn 0.989085 9.022279131018337E-18 0.147345
vn 0.989085 9.022279131018337E-18 0.147345
vn 0.989085 9.022279131018337E-18 0.147345
vn -0.989085 9.022279131018337E-18 0.147345
vn -0.989085 9.022279131018337E-18 0.147345
vn -0.989085 9.022279131018337E-18 0.147345
vn 0 0.993849 0.11074499999999994
vn 0 0.993849 0.11074499999999994
vn 0.989085 9.022279131018337E-18 0.147345
vn 0.989085 9.022279131018337E-18 0.147345
vn 0.989085 9.022279131018337E-18 0.147345
vn -0.989085 9.022279131018337E-18 0.147345
vn -0.989085 9.022279131018337E-18 0.147345
vn -0.989085 9.022279131018337E-18 0.147345
vn 0 0.993849 0.11074599999999994
vn 0 0.993849 0.11074599999999994
vn 0.989085 9.022279131018337E-18 0.147345
vn 0.989085 9.022279131018337E-18 0.147345
vn 0.989085 9.022279131018337E-18 0.147345
vn -0.989085 9.022279131018337E-18 0.147345
vn -0.989085 9.022279131018337E-18 0.147345
vn -0.989085 9.022279131018337E-18 0.147345
vn 0 0.993849 0.11074599999999994
vn 0 0.993849 0.11074599999999994
vn 0.989085 9.022279131018337E-18 0.147345
vn 0.989085 9.022279131018337E-18 0.147345
vn 0.989085 9.022279131018337E-18 0.147345
vn -0.989085 9.022279131018337E-18 0.147345
vn -0.989085 9.022279131018337E-18 0.147345
vn -0.989085 9.022279131018337E-18 0.147345
vn 0 0.993849 0.11074599999999994
vn 0 0.993849 0.11074599999999994
vn 0.989085 9.022279131018337E-18 0.147345
vn 0.989085 9.022279131018337E-18 0.147345
vn 0.989085 9.022279131018337E-18 0.147345
vn -0.989085 9.022279131018337E-18 0.147345
vn -0.989085 9.022279131018337E-18 0.147345
vn -0.989085 9.022279131018337E-18 0.147345
vn 0 0.993849 0.11074599999999994
vn 0 0.993849 0.11074599999999994
vn 0.989085 9.022279131018337E-18 0.147345
vn 0.989085 9.022279131018337E-18 0.147345
vn 0.989085 9.022279131018337E-18 0.147345
vn -0.989085 9.022279131018337E-18 0.147345
vn -0.989085 9.022279131018337E-18 0.147345
vn -0.989085 9.022279131018337E-18 0.147345
vn 0 0.993849 0.11074499999999994
vn 0 0.993849 0.11074499999999994
vn 0.989085 9.022279131018337E-18 0.147345
vn 0.989085 9.022279131018337E-18 0.147345
vn 0.989085 9.022279131018337E-18 0.147345
vn -0.989085 9.022279131018337E-18 0.147345
vn -0.989085 9.022279131018337E-18 0.147345
vn -0.989085 9.022279131018337E-18 0.147345
vn 0 0.993849 0.11074499999999994
vn 0 0.993849 0.11074499999999994
vn 0.989085 9.022279131018337E-18 0.147345
vn 0.989085 9.022279131018337E-18 0.147345
vn 0.989085 9.022279131018337E-18 0.147345
vn -0.989085 9.022279131018337E-18 0.147345
vn -0.989085 9.022279131018337E-18 0.147345
vn -0.989085 9.022279131018337E-18 0.147345
g bobobj
f 128/128/128 127/127/127 126/126/126
f 125/125/125 124/124/124 123/123/123
f 62/62/62 63/63/63 122/122/122
f 122/122/122 121/121/121 62/62/62
f 59/59/59 60/60/60 64/64/64
f 64/64/64 61/61/61 59/59/59
f 120/120/120 119/119/119 118/118/118
f 117/117/117 116/116/116 115/115/115
f 56/56/56 57/57/57 114/114/114
f 114/114/114 113/113/113 56/56/56
f 53/53/53 54/54/54 58/58/58
f 58/58/58 55/55/55 53/53/53
f 49/49/49 51/51/51 52/52/52
f 52/52/52 50/50/50 49/49/49
f 112/112/112 111/111/111 110/110/110
f 109/109/109 108/108/108 107/107/107
f 46/46/46 47/47/47 106/106/106
f 106/106/106 105/105/105 46/46/46
f 43/43/43 44/44/44 48/48/48
f 48/48/48 45/45/45 43/43/43
f 104/104/104 103/103/103 102/102/102
f 101/101/101 100/100/100 99/99/99
f 40/40/40 41/41/41 98/98/98
f 98/98/98 97/97/97 40/40/40
f 37/37/37 38/38/38 42/42/42
f 42/42/42 39/39/39 37/37/37
f 33/33/33 35/35/35 36/36/36
f 36/36/36 34/34/34 33/33/33
f 96/96/96 95/95/95 94/94/94
f 93/93/93 92/92/92 91/91/91
f 30/30/30 31/31/31 90/90/90
f 90/90/90 89/89/89 30/30/30
f 27/27/27 28/28/28 32/32/32
f 32/32/32 29/29/29 27/27/27
f 88/88/88 87/87/87 86/86/86
f 85/85/85 84/84/84 83/83/83
f 24/24/24 25/25/25 82/82/82
f 82/82/82 81/81/81 24/24/24
f 21/21/21 22/22/22 26/26/26
f 26/26/26 23/23/23 21/21/21
f 17/17/17 19/19/19 20/20/20
f 20/20/20 18/18/18 17/17/17
f 80/80/80 79/79/79 78/78/78
f 77/77/77 76/76/76 75/75/75
f 14/14/14 15/15/15 74/74/74
f 74/74/74 73/73/73 14/14/14
f 11/11/11 12/12/12 16/16/16
f 16/16/16 13/13/13 11/11/11
f 72/72/72 71/71/71 70/70/70
f 69/69/69 68/68/68 67/67/67
f 8/8/8 9/9/9 66/66/66
f 66/66/66 65/65/65 8/8/8
f 5/5/5 6/6/6 10/10/10
f 10/10/10 7/7/7 5/5/5
f 1/1/1 3/3/3 4/4/4
f 4/4/4 2/2/2 1/1/1
