v -0.08600708000000001 0.13372489000000004 0.18441872
v -0.03548053 0.17543184 0.18979429
v -0.03151987 0.19507908000000002 0.07605102999999999
v 0.12058763000000002 0.18810789 0.07666065
v 0.06491365 0.11319841000000001 0.03391976
v 0.02874683 0.1903728 0.028343079999999996
v 0.02874683 0.1903728 0.028343079999999996
v 0.07746611 0.22242664 0.07666065
v 0.0356524 0.23484327000000002 0.08044365999999999
v 0.00225165 0.20649254 0.07605102999999999
v -0.03151987 0.19507908000000002 0.07605102999999999
v -0.03548053 0.17543184 0.025696179999999996
v -0.03548053 0.17543184 0.025696179999999996
v -0.08600708000000001 0.13372489 0.028343079999999996
v -0.03151987 0.19507908000000002 0.07605102999999999
v -0.08501751 0.21834528 0.05088116999999999
v -0.07434117 0.2246499 0.07605102999999999
v -0.11112424000000001 0.23161174 0.05553474999999999
v -0.11162217 0.23723058000000002 0.07605102999999999
v -0.09617427 0.16076475 0.03254479999999999
v -0.16311381000000003 0.23417194000000002 0.04727308999999999
v -0.16561332 0.27555589 0.07605102999999999
v -0.08600708000000001 0.13372489 0.028343079999999996
v -0.15794666000000002 0.17695079 0.04050487999999999
v -0.21803044000000002 0.23748711000000003 0.054683559999999985
v -0.21628182 0.27728649 0.07605102999999999
v -0.25559891 0.22650443 0.07605102999999999
v -0.13246621000000003 0.047974340000000004 0.019380849999999998
v -0.13970736 0.06050113000000001 0.006710239999999997
v -0.24567244000000002 0.21649908000000004 0.05649728999999999
v -0.28589359000000003 0.17322830000000003 0.07605102999999999
v -0.11440762 0.13687924 0.010471999999999993
v -0.14708383000000003 0.14081559000000002 -0.0009266700000000087
v -0.16090075 0.16083411 0.02324613999999999
v -0.25634861000000003 0.16458635000000002 0.04117246999999999
v -0.30591789 0.0911999 0.07605102999999999
v -0.19236044000000002 0.18105442000000002 0.034733719999999996
v -0.22612125000000002 0.19457367000000003 0.04254062999999999
v -0.19942343 0.15663698 0.024355729999999992
v -0.19433771 0.14350261 0.006857289999999992
v -0.23215370000000002 0.15665704 0.02570331999999999
v -0.21702234 0.08943989 0.003211979999999995
v -0.13970736 0.06050113000000001 0.006710239999999997
v -0.25442965 0.08960258000000001 0.029669419999999995
v -0.20102534 0.03537734000000001 0.015537999999999998
v -0.13246621000000003 0.047974340000000004 0.019380849999999998
v -0.16452396 0.02412113 0.029191210000000002
v -0.20667478000000003 0.010215300000000004 0.04254063
v -0.23802397000000003 0.02254795 0.03363535
v -0.22940616000000003 0.0023137000000000036 0.056497290000000006
v -0.28579074000000004 0.08703915 0.04438240999999999
v -0.27655124000000003 0.009491950000000004 0.04759218
v -0.246483 -0.010490359999999995 0.07605103
v -0.28726039000000003 0.009171330000000005 0.07605103
v 0.02181117 -0.18352401000000002 -0.04012730999999999
v 0.02580413 -0.19727327 0.0021139500000000124
v -0.03356174 -0.18517352 -0.001736209999999989
v 0.00023052 -0.12017045000000001 -0.05914554999999999
v -0.06691115 -0.10943495 -0.006067639999999994
v -0.014985160000000003 -0.07498479000000001 -0.0403988
v -0.037089580000000004 -0.07733521 -0.025976169999999996
v -0.017886210000000003 -0.06637004 -0.03223982
v -0.041394150000000005 -0.07839754 0.0006701400000000049
v -0.07597589 -0.11052074 0.021257650000000003
v -0.06653052 -0.09629650000000001 0.02834308000000001
v 0.0419985 -0.052153619999999984 0.31730381
v -0.017886210000000003 -0.06637003999999998 0.30745452
v -0.014985160000000003 -0.07498478999999998 0.32402459
v 0.04530925 -0.06187285999999999 0.3301349
v 0.00023052 -0.12017044999999998 0.33006690000000005
v 0.058347060000000006 -0.10014751 0.32809541000000003
v 0.0419985 -0.052153619999999984 0.31730381
v 0.09780678000000001 -0.07336128999999998 0.2787371
v 0.07992771 -0.16350107 0.29290932000000003
v 0.02181117 -0.18352401000000002 0.29144324000000005
v 0.10976424000000001 -0.15189007 0.23866402000000003
v 0.11904437000000001 -0.11333134999999998 0.23133345
v 0.09459616000000001 -0.19288421000000003 0.23866402000000003
v 0.031355310000000004 -0.21101114 0.23768652
v 0.031355310000000004 -0.21101114 0.23768652
v 0.02181117 -0.18352401000000002 0.29144324000000005
v -0.03356174 -0.18517352 0.24550567
v 0.00023052 -0.12017044999999998 0.33006690000000005
v -0.06691115 -0.10943494999999998 0.25430232
v -0.014985160000000003 -0.07498478999999998 0.32402459
v -0.037089580000000004 -0.07733520999999999 0.29473393000000003
v -0.017886210000000003 -0.06637003999999998 0.30745452
v -0.041394150000000005 -0.07839753999999999 0.24061885000000002
v -0.07597589 -0.11052073999999998 0.19880820000000002
v -0.06653052 -0.0962965 0.18441872
v -0.014985160000000003 -0.07498479000000001 -0.0403988
v -0.017886210000000003 -0.06637004 -0.03223982
v 0.0419985 -0.052153620000000005 -0.03708958
v 0.04530925 -0.06187286 -0.04340763
v 0.00023052 -0.12017045000000001 -0.05914554999999999
v 0.0419985 -0.052153620000000005 -0.03708958
v 0.09780678000000001 -0.07336129000000001 -0.018099389999999996
v 0.058347060000000006 -0.10014751000000001 -0.05817484999999999
v 0.04140775000000001 -0.14255809000000003 -0.06596186999999999
v 0.02181117 -0.18352401000000002 -0.04012730999999999
v 0.07992771 -0.16350107000000003 -0.04084913
v 0.02580413 -0.19727327 0.0021139500000000124
v 0.09093334 -0.18474937000000002 -0.00521542999999999
v 0.10976424000000001 -0.15189007000000002 0.0016326800000000096
v 0.11904437000000001 -0.11333135000000001 0.005242290000000007
v 0.11474677000000001 -0.15177617000000002 0.028343080000000014
v 0.10976424000000001 -0.15189007000000002 0.0016326800000000096
v 0.11904437000000001 -0.11333135000000001 0.005242290000000007
v 0.09093334 -0.18474937000000002 -0.00521542999999999
v 0.10358559 -0.1586151 0.029421390000000013
v 0.02580413 -0.19727327 0.0021139500000000124
v 0.049063190000000007 -0.18653607000000003 0.024189640000000012
v -0.01654321 -0.19312731 0.018991380000000013
v -0.03356174 -0.18517352 -0.001736209999999989
v -0.052425110000000004 -0.17633607 0.021350470000000014
v -0.07597589 -0.11052074 0.021257650000000003
v -0.06691115 -0.10943495 -0.006067639999999994
v 0.24605715 0.17264520000000003 0.07666065
v 0.22888545000000002 0.15959600000000002 0.0579887
v 0.18948982000000003 0.18594753000000003 0.07666065
v 0.22888545000000002 0.15959600000000002 0.0579887
v 0.12058763000000002 0.18810789 0.07666065
v 0.28729473000000005 0.10528287 0.07666065
v 0.26180408000000005 0.10310517 0.05414159999999999
v 0.22888545000000002 0.15959600000000002 0.0579887
v 0.26183026000000004 0.03922835 0.05785644000000001
v 0.27642119000000004 0.05592456 0.07666065
v 0.19789122000000003 0.07887507 0.04983889999999999
v 0.28345596000000006 -0.027815739999999995 0.05770055000000001
v 0.29222813000000003 -0.04836959 0.07666065
v 0.24047452 0.033781210000000006 0.04637498
v 0.24737788 0.0034355300000000035 0.04628505
v 0.18459127 0.013560730000000005 0.04210747
v 0.14784016 0.16117955 0.04717941999999999
v 0.12985994 0.07340362 0.05008166000000001
v 0.12419537000000001 0.15489312 0.03602554999999999
v 0.06491365 0.11319841000000001 0.03391976
v 0.09761944 0.05221941 0.02954634
v 0.12499760000000001 0.06393785 0.033993539999999996
v 0.12551236 -0.006292379999999998 0.029546340000000004
v 0.14015752 -0.07239297000000001 0.02834308000000001
v 0.19513178 -0.05330469 0.031513410000000006
v 0.11474677000000001 -0.15177617000000002 0.028343080000000014
v 0.24871459000000004 -0.035103470000000005 0.03554717
v 0.19563821000000003 -0.11634664000000002 0.02846871000000001
v 0.24361034000000004 -0.06786111 0.047112610000000006
v 0.29029574 -0.06801428000000001 0.059866180000000005
v 0.31083514 -0.10325902 0.07666065000000001
v 0.24353044000000001 -0.1103861 0.04254063000000001
v 0.2909601 -0.13198528 0.05649729000000001
v 0.28487206000000004 -0.16094529000000002 0.07666065000000001
v 0.19982276 -0.15756909 0.028343080000000014
v 0.26528517 -0.15958869 0.05649729000000001
v 0.22246013 -0.21108951 0.05649729000000001
v 0.20033769000000004 -0.24235472000000002 0.07666065000000002
v 0.21526657999999999 -0.18997177 0.04254063000000001
v 0.14962635000000002 -0.19782713000000002 0.03199111000000002
v 0.10358559 -0.1586151 0.029421390000000013
v 0.15665398000000003 -0.23062319 0.04254063000000001
v 0.09990781000000001 -0.23772392000000003 0.032209900000000014
v 0.16442842000000002 -0.24101750000000002 0.05649729000000002
v 0.15011918000000002 -0.27099598 0.07666065000000002
v 0.10956891 -0.29520092000000003 0.07605103000000002
v 0.11207199000000001 -0.27159132 0.05649729000000002
v 0.0381412 -0.29134685000000005 0.05649729000000002
v 0.059350400000000005 -0.31264649 0.07605103000000002
v 0.0008256900000000001 -0.31333397 0.07605103000000002
v 0.044496139999999997 -0.25279255 0.036641800000000016
v 0.049063190000000007 -0.18653607000000003 0.024189640000000012
v 0.10358559 -0.1586151 0.029421390000000013
v -0.02612152 -0.28994044 0.05649729000000002
v -0.04781386000000001 -0.28569112 0.07605103000000002
v -0.019596750000000003 -0.24668802 0.04254063000000002
v -0.01654321 -0.19312731 0.018991380000000013
v -0.07997242 -0.22246880000000002 0.05649729000000001
v -0.07607245000000001 -0.24473132000000003 0.07605103000000002
v -0.05326134000000001 -0.21246668 0.04254063000000001
v -0.052425110000000004 -0.17633607 0.021350470000000014
v -0.0894863 -0.20888172 0.05721928000000001
v -0.12430264 -0.16624521 0.07605103000000002
v -0.07126961000000001 -0.18795319000000002 0.04350317000000001
v -0.10978855000000001 -0.13807893000000002 0.055534750000000015
v -0.10512307000000001 -0.12653746000000002 0.05649729000000001
v -0.10600452 -0.12288739000000001 0.04061555000000001
v -0.07597589 -0.11052074 0.021257650000000003
v -0.08540817 -0.10299144000000002 0.043215020000000014
v -0.06653052 -0.09629650000000001 0.02834308000000001
v 0.10976424000000001 -0.15189007 0.23866402000000003
v 0.11474677000000001 -0.15177617 0.18441872
v 0.11904437000000001 -0.11333134999999998 0.23133345
v 0.09459616000000001 -0.19288421000000003 0.23866402000000003
v 0.10358559 -0.1586151 0.18222878
v 0.031355310000000004 -0.21101114 0.23768652
v 0.049063190000000007 -0.18653607000000003 0.19285395000000002
v -0.01654321 -0.19312731 0.20341078
v -0.03356174 -0.18517352 0.24550567
v -0.052425110000000004 -0.17633607 0.19862001
v -0.07597589 -0.11052073999999998 0.19880820000000002
v -0.06691115 -0.10943494999999998 0.25430232
v -0.246483 -0.010490359999999995 0.07605103
v -0.22940616000000003 0.0023137000000000036 0.056497290000000006
v -0.2550289 -0.08049296 0.07605103000000002
v -0.24640344000000003 -0.06441198000000001 0.056497290000000006
v -0.1898424 -0.14147077 0.07605103000000002
v -0.20667478000000003 0.010215300000000004 0.04254063
v -0.18258714 -0.11337844 0.05649729000000001
v -0.12430264 -0.16624521 0.07605103000000002
v -0.10512307000000001 -0.12653746000000002 0.05649729000000001
v -0.08540817 -0.10299144000000002 0.043215020000000014
v -0.22130005000000003 -0.05381571 0.04254063
v -0.16452396 0.02412113 0.029191210000000002
v -0.18438625 -0.041467590000000006 0.02834308000000001
v -0.06653052 -0.09629650000000001 0.02834308000000001
v -0.13038949000000002 -0.028451880000000006 -0.0026249699999999986
v -0.13246621000000003 0.047974340000000004 0.019380849999999998
v -0.22940616000000003 0.002313700000000008 0.12724109
v -0.246483 -0.010490359999999995 0.07605103
v -0.2550289 -0.08049296 0.07605103000000002
v -0.24032305 -0.06038604 0.12724109
v -0.1898424 -0.14147077 0.07605103000000002
v -0.20667478000000003 0.01021530000000001 0.15558553000000003
v -0.17650675000000002 -0.1093525 0.12724109
v -0.12430264 -0.16624521 0.07605103000000002
v -0.09904285000000002 -0.12251169 0.12724109
v -0.08540817 -0.10299143999999999 0.15421584
v -0.22130005000000003 -0.05381570999999999 0.15558553000000003
v -0.16452396 0.024121130000000008 0.18269628000000002
v -0.18438625 -0.04146758999999999 0.18441872
v -0.06653052 -0.0962965 0.18441872
v -0.13038949000000002 -0.02845187999999999 0.2473109
v -0.13246638 0.04797434000000001 0.20261977
v -0.07597589 -0.11052073999999998 0.19880820000000002
v -0.06653052 -0.0962965 0.18441872
v -0.08540817 -0.10299143999999999 0.15421584
v -0.10600452 -0.12288739 0.15949502000000002
v -0.09904285000000002 -0.12251169 0.12724109
v -0.052425110000000004 -0.17633607 0.19862001
v -0.10978855000000001 -0.13807893000000002 0.12919592000000002
v -0.12430264 -0.16624521 0.07605103000000002
v -0.07126961000000001 -0.18795319000000002 0.15363070000000004
v -0.08284576 -0.20576137000000003 0.12577501000000002
v -0.07607245000000001 -0.24473132000000003 0.07605103000000002
v -0.05326134000000001 -0.21246668 0.15558553000000003
v -0.01654321 -0.19312731 0.20341078
v -0.07333188000000002 -0.21934862000000002 0.12724109000000003
v -0.04781386000000001 -0.28569112 0.07605103000000002
v -0.019596750000000003 -0.24668802 0.15558553000000003
v 0.049063190000000007 -0.18653607000000003 0.19285395000000002
v -0.00976888 -0.27819514 0.12724109000000003
v 0.0008256900000000001 -0.31333397 0.07605103000000002
v 0.044496139999999997 -0.24905714 0.15558553000000003
v 0.05449367 -0.27960155000000003 0.12724109000000003
v 0.059350400000000005 -0.31264649 0.07605103000000002
v 0.10956891 -0.29520092000000003 0.07605103000000002
v 0.10048887000000002 -0.22419362 0.17656574
v 0.10358559 -0.1586151 0.18222878
v 0.11207199000000001 -0.27159132 0.12724109000000003
v 0.16442842000000002 -0.24101750000000002 0.12724109000000003
v 0.15011918000000002 -0.27099598 0.07666065000000002
v 0.20033769000000004 -0.24235472000000002 0.07666065000000002
v 0.15723504 -0.21709289000000004 0.15558553000000003
v 0.22246013 -0.21108951 0.12724109000000003
v 0.28487206000000004 -0.16094529000000002 0.07666065000000001
v 0.14962635000000002 -0.19782713000000002 0.17701012000000002
v 0.10358559 -0.1586151 0.18222878
v 0.11474677000000001 -0.15177617 0.18441872
v 0.21526657999999999 -0.18997177 0.15558553000000003
v 0.19982276 -0.15756909 0.18441872
v 0.26528517 -0.15958869 0.12724109000000003
v 0.19563821000000003 -0.11634663999999999 0.18416372
v 0.27759589 -0.13198528 0.12724109
v 0.31083514 -0.10325902 0.07666065000000001
v 0.24353044000000001 -0.11038609999999999 0.15558553000000003
v 0.2566983 -0.06801428 0.12039944000000001
v 0.29222813000000003 -0.04836959 0.07666065
v 0.24361034000000004 -0.06786111 0.1463003
v 0.27009158 -0.02781573999999999 0.12479768000000001
v 0.27642119000000004 0.05592456 0.07666065
v 0.24871459000000004 -0.03510347 0.16978818
v 0.19513178 -0.05330468999999999 0.17798031
v 0.14015752 -0.07239297 0.18441872
v 0.23521727000000003 0.003435530000000009 0.14798092000000002
v 0.24375518000000002 0.03389511000000001 0.13750382
v 0.28729473000000005 0.10528287 0.07666065
v 0.18459127 0.013560730000000012 0.15646511
v 0.12551236 -0.00629237999999999 0.18197514
v 0.22831374000000002 0.03378121000000001 0.14779851000000002
v 0.21089945000000002 0.08978244000000002 0.13202523
v 0.24605715 0.17264520000000003 0.07666065
v 0.17319634 0.07887507000000002 0.14076357
v 0.16928583 0.14627327 0.12421237000000002
v 0.18948982000000003 0.18594753000000003 0.07666065
v 0.12058763000000002 0.18810789 0.07666065
v 0.12277179000000002 0.10931017000000001 0.11454566000000001
v 0.12985994 0.07340362000000002 0.12851218
v 0.09912699999999999 0.10302374000000002 0.15919718000000002
v 0.06491365 0.11319841000000004 0.17309332000000002
v 0.09761944 0.05221941000000001 0.18197514
v 0.12499760000000001 0.06393785000000002 0.17294338
v 0.06491365 0.11319841000000001 0.03391976
v 0.06703644 0.11517534000000001 0.015348789999999996
v 0.02874683 0.1903728 0.028343079999999996
v 0.09761944 0.05221941 0.02954634
v 0.11287711 0.05994999 0.011498629999999998
v 0.12551236 -0.006292379999999998 0.029546340000000004
v 0.10441298000000002 0.05697618000000001 -0.006548910000000004
v 0.1466301 0.0009011700000000007 0.01005499
v 0.15337740000000002 -0.06777662 0.012942610000000007
v 0.14015752 -0.07239297000000001 0.02834308000000001
v 0.11474677000000001 -0.15177617000000002 0.028343080000000014
v 0.14630013000000003 -0.06851374 -0.0026987499999999963
v 0.11904437000000001 -0.11333135000000001 0.005242290000000007
v 0.09780678000000001 -0.07336129000000001 -0.018099389999999996
v 0.14396926000000002 -0.00011832000000000057 -0.00919581
v 0.045350049999999996 0.12445768 0.008851729999999993
v 0.02874683 0.1903728 0.028343079999999996
v 0.08063423 0.04876314 -0.02459645000000001
v 0.0193358 0.10919525000000001 0.008370459999999993
v -0.012568780000000002 0.1083699 -0.006067640000000008
v -0.03548053 0.17543184 0.025696179999999996
v 0.11600086000000001 -0.009577630000000002 -0.028687160000000003
v 0.09780678000000001 -0.07336129000000001 -0.018099389999999996
v 0.015185930000000002 0.026559440000000004 -0.034703120000000004
v 0.03676641 -0.03679412000000001 -0.04311778000000001
v 0.0419985 -0.052153620000000005 -0.03708958
v -0.017886210000000003 -0.06637004 -0.03223982
v -0.021265130000000004 -0.05633562000000001 -0.037110149999999995
v -0.041394150000000005 -0.07839754 0.0006701400000000049
v -0.04284578 0.007017939999999999 -0.028695490000000004
v -0.07268775 -0.01964554 -0.011648739999999998
v -0.06653052 -0.09629650000000001 0.02834308000000001
v -0.13038949000000002 -0.028451880000000006 -0.0026249699999999986
v -0.07068532000000001 0.07465074000000001 -0.005576170000000004
v -0.13246621000000003 0.047974340000000004 0.019380849999999998
v -0.08600708000000001 0.13372489 0.028343079999999996
v -0.03548053 0.17543184 0.18979429
v 0.021566540000000002 0.14998947000000004 0.18441872
v -0.03151987 0.19507908000000002 0.07605102999999999
v 0.00225165 0.20649254 0.07605102999999999
v 0.0356524 0.23484327000000002 0.08044365999999999
v 0.07746611 0.22242664 0.07666065
v 0.12058763000000002 0.18810789 0.07666065
v 0.06491365 0.11319841000000004 0.17309332000000002
v -0.13246638 0.04797434000000001 0.20261977
v -0.08600708000000001 0.13372489000000004 0.18441872
v -0.13970736 0.060501130000000014 0.22835216000000003
v -0.11440762 0.13687924000000004 0.22071270000000004
v -0.14708383000000003 0.14081559000000005 0.24386177
v -0.09617427 0.16076475000000004 0.17588574
v -0.03151987 0.19507908000000002 0.07605102999999999
v -0.16090075 0.16083411000000003 0.19477002
v -0.10311316000000001 0.20809394 0.13864673
v -0.07434117 0.2246499 0.07605102999999999
v -0.15840328 0.17574719 0.13962729
v -0.11158086 0.23040814 0.12919592
v -0.11162217 0.23723058000000002 0.07605102999999999
v -0.16357026 0.23296834 0.12724126
v -0.16561332 0.27555589 0.07605102999999999
v -0.21803044000000002 0.23748711000000003 0.12068350999999998
v -0.21628182 0.27728649 0.07605102999999999
v -0.25559891 0.22650443 0.07605102999999999
v -0.19236044000000002 0.18105442000000002 0.17144007
v -0.24567244000000002 0.21649908000000004 0.12724126
v -0.28589359000000003 0.17322830000000003 0.07605102999999999
v -0.22612125000000002 0.19457367000000003 0.15558553
v -0.25634861000000003 0.16458635000000002 0.15836384
v -0.30591789 0.0911999 0.07605102999999999
v -0.19942343 0.15663698000000004 0.1925165
v -0.23215370000000002 0.15665704000000003 0.18977967000000004
v -0.19433771 0.14350244000000004 0.22805364
v -0.25442965 0.08960258000000003 0.18172524
v -0.21702234 0.08943989000000002 0.23545646
v -0.13970736 0.060501130000000014 0.22835216000000003
v -0.28579074000000004 0.08703915 0.15184519000000002
v -0.20102534 0.03537734000000002 0.21042413000000001
v -0.13246638 0.04797434000000001 0.20261977
v -0.16452396 0.024121130000000008 0.18269628000000002
v -0.20667478000000003 0.01021530000000001 0.15558553000000003
v -0.23802397000000003 0.02254795000000001 0.17367081
v -0.22940616000000003 0.002313700000000008 0.12724109
v -0.27655124000000003 0.009491950000000011 0.14532654
v -0.246483 -0.010490359999999995 0.07605103
v -0.28726039000000003 0.009171330000000005 0.07605103
v -0.06653052 -0.0962965 0.18441872
v -0.041394150000000005 -0.07839753999999999 0.24061885000000002
v -0.13038949000000002 -0.02845187999999999 0.2473109
v -0.07268775 -0.019645539999999986 0.26563707000000003
v -0.021265130000000004 -0.05633561999999999 0.31734563
v -0.017886210000000003 -0.06637003999999998 0.30745452
v -0.07068532000000001 0.07465074000000002 0.25330425
v -0.13246638 0.04797434000000001 0.20261977
v -0.08600708000000001 0.13372489000000004 0.18441872
v -0.03548053 0.17543184 0.18979429
v -0.04284578 0.007017940000000019 0.30025638
v -0.012568780000000002 0.10836990000000002 0.25430232
v 0.021566540000000002 0.14998947000000004 0.18441872
v 0.015185930000000002 0.02655944000000002 0.31245728000000006
v 0.0193358 0.10919525000000004 0.22498055000000003
v 0.03676641 -0.03679411999999998 0.32954653
v 0.0419985 -0.052153619999999984 0.31730381
v 0.09780678000000001 -0.07336128999999998 0.2787371
v 0.11600086000000001 -0.009577629999999981 0.30023972000000004
v 0.14396926000000002 -0.00011831999999998405 0.26065539
v 0.08063423 0.04876314000000002 0.29193199000000003
v 0.045350049999999996 0.12445768000000003 0.22400305000000004
v 0.10441298000000002 0.05697618000000002 0.25527965
v 0.06703644 0.11517534000000003 0.21080833000000002
v 0.06491365 0.11319841000000004 0.17309332000000002
v 0.09761944 0.05221941000000001 0.18197514
v 0.11287711 0.05994999000000001 0.21862748
v 0.12551236 -0.00629237999999999 0.18197514
v 0.1466301 0.0009011700000000136 0.22155964
v 0.15337740000000002 -0.06777662 0.21569532000000002
v 0.14015752 -0.07239297 0.18441872
v 0.11474677000000001 -0.15177617 0.18441872
v 0.14630013000000003 -0.06851373999999999 0.24746050000000003
v 0.09780678000000001 -0.07336128999999998 0.2787371
v 0.11904437000000001 -0.11333134999999998 0.23133345
vt 0.393348 0.792833
vt 0.471831 0.843582
vt 0.437142 0.985370
vt 0.245742 0.490303
vt 0.182580 0.313122
vt 0.113237 0.330139
vt 0.113237 0.330139
vt 0.173772 0.524763
vt 0.106118 0.515885
vt 0.055642 0.490787
vt 0.009745 0.478721
vt 0.030010 0.340517
vt 0.471831 0.843582
vt 0.393348 0.792833
vt 0.437142 0.985370
vt 0.320472 0.908895
vt 0.357036 0.992015
vt 0.295461 0.930410
vt 0.295687 0.982561
vt 0.355890 0.829070
vt 0.226921 0.911520
vt 0.199205 0.984110
vt 0.393348 0.792833
vt 0.267321 0.845139
vt 0.157630 0.899113
vt 0.142832 0.966598
vt 0.086442 0.890664
vt 0.384570 0.633969
vt 0.353744 0.631720
vt 0.127565 0.860436
vt 0.042567 0.820358
vt 0.345737 0.743986
vt 0.294624 0.716328
vt 0.265279 0.784875
vt 0.133789 0.775914
vt 0.010186 0.722914
vt 0.220271 0.816535
vt 0.169325 0.828845
vt 0.220706 0.768107
vt 0.237286 0.732430
vt 0.181948 0.758563
vt 0.211097 0.670494
vt 0.285580 0.609395
vt 0.142187 0.687959
vt 0.193534 0.595135
vt 0.274420 0.569941
vt 0.208147 0.554476
vt 0.148792 0.556471
vt 0.135820 0.597484
vt 0.102379 0.557882
vt 0.101080 0.696473
vt 0.087130 0.602920
vt 0.046695 0.547721
vt 0.022795 0.602146
vt 0.358211 0.397004
vt 0.332163 0.328073
vt 0.267318 0.400925
vt 0.384993 0.486615
vt 0.268663 0.504998
vt 0.380354 0.548680
vt 0.336148 0.547419
vt 0.366861 0.570824
vt 0.276866 0.550871
vt 0.216651 0.515189
vt 0.208932 0.544704
vt 0.904556 0.761132
vt 0.984608 0.749419
vt 0.984562 0.771717
vt 0.906910 0.782595
vt 0.987770 0.829444
vt 0.911238 0.829801
vt 0.894053 0.769450
vt 0.837692 0.848679
vt 0.914002 0.914688
vt 0.990516 0.915632
vt 0.863125 0.952740
vt 0.821682 0.928105
vt 0.903763 0.989243
vt 0.990203 0.987945
vt 0.332163 0.328073
vt 0.358211 0.397004
vt 0.267318 0.400925
vt 0.384993 0.486615
vt 0.268663 0.504998
vt 0.380354 0.548680
vt 0.336148 0.547419
vt 0.366861 0.570824
vt 0.276866 0.550871
vt 0.216651 0.515189
vt 0.208932 0.544704
vt 0.984562 0.771717
vt 0.984608 0.749419
vt 0.904556 0.761132
vt 0.906910 0.782595
vt 0.987770 0.829444
vt 0.894053 0.769450
vt 0.837692 0.848679
vt 0.911238 0.829801
vt 0.949656 0.873487
vt 0.990516 0.915632
vt 0.914002 0.914688
vt 0.990203 0.987945
vt 0.903763 0.989243
vt 0.863125 0.952740
vt 0.821682 0.928105
vt 0.679772 0.571472
vt 0.641562 0.515372
vt 0.681380 0.488015
vt 0.600534 0.543693
vt 0.658932 0.584613
vt 0.541959 0.589364
vt 0.590543 0.615119
vt 0.515951 0.653723
vt 0.468468 0.628917
vt 0.488146 0.686931
vt 0.426614 0.725710
vt 0.393933 0.666477
vt 0.646853 0.956116
vt 0.587496 0.866417
vt 0.580856 0.945453
vt 0.587496 0.866417
vt 0.500507 0.909247
vt 0.741169 0.915506
vt 0.659760 0.827585
vt 0.587496 0.866417
vt 0.728314 0.784884
vt 0.779184 0.864722
vt 0.625933 0.790098
vt 0.802976 0.745161
vt 0.873477 0.772215
vt 0.709758 0.767293
vt 0.733483 0.737178
vt 0.671216 0.713781
vt 0.547275 0.807998
vt 0.575191 0.765701
vt 0.514921 0.781652
vt 0.462666 0.743575
vt 0.533158 0.688474
vt 0.553499 0.716261
vt 0.618557 0.643168
vt 0.687982 0.575212
vt 0.729535 0.641249
vt 0.737654 0.485289
vt 0.769173 0.698500
vt 0.782903 0.586123
vt 0.808553 0.680883
vt 0.836215 0.706483
vt 0.933436 0.730137
vt 0.834294 0.637979
vt 0.895504 0.655355
vt 0.969070 0.658742
vt 0.828709 0.557514
vt 0.912349 0.619265
vt 0.924446 0.549224
vt 0.988212 0.512362
vt 0.880781 0.548190
vt 0.827144 0.479148
vt 0.737062 0.468091
vt 0.863017 0.475314
vt 0.824493 0.407907
vt 0.916112 0.471502
vt 0.990702 0.440945
vt 0.988689 0.381384
vt 0.916064 0.397044
vt 0.907050 0.326965
vt 0.986230 0.315396
vt 0.969241 0.245323
vt 0.849196 0.329248
vt 0.757364 0.356264
vt 0.743031 0.442488
vt 0.887594 0.251712
vt 0.935538 0.186257
vt 0.829994 0.251507
vt 0.739960 0.264237
vt 0.824981 0.167303
vt 0.893772 0.141131
vt 0.794256 0.201746
vt 0.723865 0.210772
vt 0.813457 0.150231
vt 0.814447 0.046429
vt 0.773253 0.169261
vt 0.745663 0.087281
vt 0.722508 0.066879
vt 0.709772 0.101197
vt 0.664428 0.145658
vt 0.677247 0.084025
vt 0.647583 0.119725
vt 0.641562 0.515372
vt 0.679772 0.571472
vt 0.681380 0.488015
vt 0.600534 0.543693
vt 0.658932 0.584613
vt 0.541959 0.589364
vt 0.590543 0.615119
vt 0.515951 0.653723
vt 0.468468 0.628917
vt 0.488146 0.686931
vt 0.426614 0.725710
vt 0.393933 0.666477
vt 0.042237 0.319784
vt 0.115172 0.311909
vt 0.011879 0.232106
vt 0.078537 0.237163
vt 0.020139 0.112668
vt 0.163979 0.301358
vt 0.085806 0.138307
vt 0.063221 0.034685
vt 0.136782 0.050131
vt 0.185305 0.068327
vt 0.117320 0.226789
vt 0.228339 0.293412
vt 0.176455 0.214953
vt 0.227649 0.060893
vt 0.276338 0.185380
vt 0.282715 0.303707
vt 0.115172 0.311909
vt 0.042237 0.319784
vt 0.011879 0.232106
vt 0.078537 0.237163
vt 0.020139 0.112668
vt 0.163979 0.301358
vt 0.085806 0.138307
vt 0.063221 0.034685
vt 0.136782 0.050131
vt 0.185305 0.068327
vt 0.117320 0.226789
vt 0.228339 0.293412
vt 0.176455 0.214953
vt 0.227649 0.060893
vt 0.276338 0.185380
vt 0.282715 0.303707
vt 0.664428 0.145658
vt 0.647583 0.119725
vt 0.677247 0.084025
vt 0.709772 0.101197
vt 0.722508 0.066879
vt 0.723865 0.210772
vt 0.745663 0.087281
vt 0.814447 0.046429
vt 0.773253 0.169261
vt 0.813457 0.150231
vt 0.893772 0.141131
vt 0.794256 0.201746
vt 0.739960 0.264237
vt 0.824981 0.167303
vt 0.935538 0.186257
vt 0.829994 0.251507
vt 0.757364 0.356264
vt 0.887594 0.251712
vt 0.969241 0.245323
vt 0.849196 0.329248
vt 0.907050 0.326965
vt 0.986230 0.315396
vt 0.988689 0.381384
vt 0.824493 0.407907
vt 0.743031 0.442488
vt 0.916064 0.397044
vt 0.916112 0.471502
vt 0.990702 0.440945
vt 0.988212 0.512362
vt 0.863017 0.475314
vt 0.924446 0.549224
vt 0.969070 0.658742
vt 0.827144 0.479148
vt 0.737062 0.468091
vt 0.737654 0.485289
vt 0.880781 0.548190
vt 0.828709 0.557514
vt 0.912349 0.619265
vt 0.782903 0.586123
vt 0.895504 0.655355
vt 0.933436 0.730137
vt 0.834294 0.637979
vt 0.836215 0.706483
vt 0.873477 0.772215
vt 0.808553 0.680883
vt 0.802976 0.745161
vt 0.779184 0.864722
vt 0.769173 0.698500
vt 0.729535 0.641249
vt 0.687982 0.575212
vt 0.733483 0.737178
vt 0.728314 0.784884
vt 0.741169 0.915506
vt 0.671216 0.713781
vt 0.618557 0.643168
vt 0.709758 0.767293
vt 0.659760 0.827585
vt 0.646853 0.956116
vt 0.625933 0.790098
vt 0.587496 0.866417
vt 0.580856 0.945453
vt 0.500507 0.909247
vt 0.547275 0.807998
vt 0.575191 0.765701
vt 0.509768 0.755889
vt 0.462666 0.743575
vt 0.533158 0.688474
vt 0.553499 0.716261
vt 0.647387 0.144920
vt 0.620961 0.195475
vt 0.710344 0.235325
vt 0.544233 0.079759
vt 0.529502 0.133515
vt 0.441138 0.046075
vt 0.518306 0.186205
vt 0.433602 0.095738
vt 0.355001 0.073122
vt 0.361426 0.025900
vt 0.229877 0.024187
vt 0.348062 0.127928
vt 0.274493 0.111480
vt 0.323962 0.201965
vt 0.429355 0.150756
vt 0.632037 0.228970
vt 0.710344 0.235325
vt 0.492195 0.233353
vt 0.622541 0.264013
vt 0.611240 0.314935
vt 0.742437 0.312922
vt 0.414918 0.209884
vt 0.332522 0.213079
vt 0.477472 0.314752
vt 0.390244 0.315368
vt 0.366727 0.315714
vt 0.377519 0.401728
vt 0.397790 0.396919
vt 0.399188 0.499235
vt 0.486795 0.395168
vt 0.486672 0.462619
vt 0.389752 0.583225
vt 0.527511 0.535236
vt 0.598874 0.400894
vt 0.640651 0.502085
vt 0.718697 0.396309
vt 0.030010 0.340517
vt 0.113237 0.330139
vt 0.009745 0.478721
vt 0.055642 0.490787
vt 0.105327 0.517457
vt 0.173772 0.524763
vt 0.245742 0.490303
vt 0.182580 0.313122
vt 0.384570 0.633969
vt 0.393348 0.792833
vt 0.353744 0.631720
vt 0.345737 0.743986
vt 0.294624 0.716328
vt 0.355890 0.829070
vt 0.437142 0.985370
vt 0.265279 0.784875
vt 0.320472 0.908895
vt 0.357036 0.992015
vt 0.267321 0.845139
vt 0.295461 0.930410
vt 0.295687 0.982561
vt 0.226921 0.911520
vt 0.199205 0.984110
vt 0.157630 0.899113
vt 0.142832 0.966598
vt 0.086442 0.890664
vt 0.220271 0.816535
vt 0.127565 0.860436
vt 0.042567 0.820358
vt 0.169325 0.828845
vt 0.133789 0.775914
vt 0.010186 0.722914
vt 0.220706 0.768107
vt 0.181948 0.758563
vt 0.237286 0.732430
vt 0.142187 0.687959
vt 0.211097 0.670494
vt 0.285580 0.609395
vt 0.101080 0.696473
vt 0.193534 0.595135
vt 0.274420 0.569941
vt 0.208147 0.554476
vt 0.148792 0.556471
vt 0.135820 0.597484
vt 0.102379 0.557882
vt 0.087130 0.602920
vt 0.046695 0.547721
vt 0.022795 0.602146
vt 0.389752 0.583225
vt 0.399188 0.499235
vt 0.527511 0.535236
vt 0.486672 0.462619
vt 0.397790 0.396919
vt 0.377519 0.401728
vt 0.598874 0.400894
vt 0.640651 0.502085
vt 0.718697 0.396309
vt 0.742437 0.312922
vt 0.486795 0.395168
vt 0.611240 0.314935
vt 0.710344 0.235325
vt 0.477472 0.314752
vt 0.622541 0.264013
vt 0.390244 0.315368
vt 0.366727 0.315714
vt 0.332522 0.213079
vt 0.414918 0.209884
vt 0.429355 0.150756
vt 0.492195 0.233353
vt 0.632037 0.228970
vt 0.518306 0.186205
vt 0.620961 0.195475
vt 0.647387 0.144920
vt 0.544233 0.079759
vt 0.529502 0.133515
vt 0.441138 0.046075
vt 0.433602 0.095738
vt 0.355001 0.073122
vt 0.361426 0.025900
vt 0.229877 0.024187
vt 0.348062 0.127928
vt 0.323962 0.201965
vt 0.274493 0.111480
vn 0.2736 0.509368 0.815897
vn -0.176038 0.832046 0.526032
vn 0.19665 0.975652 -0.09711300000000006
vn 0.361143 0.931471 -0.04402700000000005
vn 0.534025 0.536953 -0.653069
vn 0.170315 0.604478 -0.778203
vn 0.170315 0.604478 -0.778203
vn 0.454663 0.889544 -0.044640000000000055
vn -0.239486 0.970391 -0.03143400000000006
vn -0.489573 0.871916 -0.008997000000000054
vn 0.19665 0.975652 -0.09711300000000006
vn -0.322353 0.6206 -0.714803
vn -0.322353 0.6206 -0.714803
vn 0.126136 0.30970699999999995 -0.942428
vn 0.19665 0.975652 -0.09711300000000006
vn 0.286562 0.517158 -0.806492
vn 0.508674 0.860959 -0.0002990000000000527
vn 0.240839 0.866853 -0.43653500000000006
vn 0.30672 0.947921 -0.08584500000000006
vn 0.280559 0.42850399999999994 -0.858878
vn 0.091087 0.528839 -0.84382
vn 0.20992 0.965815 -0.15210100000000004
vn 0.126136 0.30970699999999995 -0.942428
vn 0.069789 0.41306199999999993 -0.908025
vn -0.189675 0.41997299999999993 -0.887494
vn -0.473216 0.859492 -0.19323400000000004
vn -0.750419 0.636766 -0.17720300000000003
vn -0.114857 -0.025305000000000064 -0.99306
vn 0.279145 -0.30631500000000006 -0.910082
vn -0.514955 0.41537599999999997 -0.749856
vn -0.905963 0.383619 -0.17907600000000004
vn 0.388715 0.34715399999999996 -0.853455
vn 0.088764 0.35046199999999994 -0.932361
vn 0.065492 0.701929 -0.70923
vn -0.560364 0.26284899999999994 -0.785431
vn -0.987759 0.04469999999999999 -0.149449
vn 0.035136 0.45124099999999995 -0.891711
vn -0.194318 0.36462399999999995 -0.910654
vn -0.058738 0.576408 -0.815048
vn -0.239392 0.51296 -0.824356
vn -0.292839 0.39136899999999997 -0.872397
vn -0.274377 -0.05318300000000006 -0.960151
vn 0.279145 -0.30631500000000006 -0.910082
vn -0.476387 -0.003550000000000054 -0.879228
vn -0.163279 -0.48960500000000007 -0.85652
vn -0.114857 -0.025305000000000064 -0.99306
vn -0.213268 -0.21817500000000006 -0.952322
vn -0.302132 -0.3609780000000001 -0.882276
vn -0.236198 -0.46903600000000006 -0.851008
vn -0.517823 -0.40061500000000005 -0.755888
vn -0.592255 0.011151999999999952 -0.805673
vn -0.504024 -0.575669 -0.643866
vn -0.610947 -0.773557 -0.16838399999999995
vn -0.77516 -0.626176 -0.08385399999999996
vn -0.079791 -0.746996 -0.660023
vn 0.096361 -0.995322 0.0070500000000000606
vn -0.575833 -0.678386 -0.45629899999999995
vn -0.366687 -0.014558000000000057 -0.93023
vn -0.804667 0.13480299999999998 -0.57822
vn -0.375918 0.36570299999999994 -0.851438
vn -0.665427 0.569093 -0.48305200000000004
vn -0.40485 0.15965499999999994 -0.900337
vn -0.771634 0.15984499999999996 -0.615655
vn -0.801391 0.28663399999999994 -0.524989
vn -0.607372 -0.17067000000000004 -0.775868
vn 0.126961 0.35395100000000007 0.926607
vn -0.58545 0.11872200000000005 0.801968
vn -0.545625 0.40880700000000003 0.731553
vn 0.229972 0.41320200000000007 0.881123
vn -0.280371 -0.31884199999999996 0.905391
vn 0.477714 -0.09017699999999994 0.873875
vn 0.126961 0.35395100000000007 0.926607
vn 0.711714 -0.14674899999999994 0.68697
vn 0.584484 -0.41298399999999996 0.698443
vn -0.036546 -0.777609 0.627685
vn 0.923023 -0.22471199999999997 0.312304
vn 0.808878 -0.387151 0.442528
vn 0.61252 -0.780441 0.12542800000000007
vn 0.040317 -0.99661 -0.07170899999999994
vn 0.040317 -0.99661 -0.07170899999999994
vn -0.036546 -0.777609 0.627685
vn -0.645952 -0.688827 0.3290350000000001
vn -0.280371 -0.31884199999999996 0.905391
vn -0.907442 0.06297400000000003 0.415431
vn -0.545625 0.40880700000000003 0.731553
vn -0.750504 0.584813 0.30779399999999996
vn -0.58545 0.11872200000000005 0.801968
vn -0.899312 0.07192400000000003 0.431353
vn -0.902799 0.293742 0.314118
vn -0.785101 -0.32548399999999994 0.526951
vn -0.375918 0.36570299999999994 -0.851438
vn -0.40485 0.15965499999999994 -0.900337
vn 0.071265 0.24936599999999995 -0.965783
vn 0.115367 0.46798399999999996 -0.876174
vn -0.366687 -0.014558000000000057 -0.93023
vn 0.071265 0.24936599999999995 -0.965783
vn 0.517494 -0.029294000000000053 -0.855185
vn 0.333103 0.21023099999999995 -0.919155
vn 0.088771 -0.22801000000000005 -0.969604
vn -0.079791 -0.746996 -0.660023
vn 0.607741 -0.32571700000000003 -0.724265
vn 0.096361 -0.995322 0.0070500000000000606
vn 0.558197 -0.821975 -0.11302099999999994
vn 0.862261 -0.24125200000000002 -0.445313
vn 0.67732 -0.30230100000000004 -0.67071
vn 0.598822 -0.36626000000000003 -0.712226
vn 0.862261 -0.24125200000000002 -0.445313
vn 0.67732 -0.30230100000000004 -0.67071
vn 0.558197 -0.821975 -0.11302099999999994
vn 0.356514 -0.730984 -0.58186
vn 0.096361 -0.995322 0.0070500000000000606
vn 0.138471 -0.589231 -0.79601
vn -0.22225 -0.834535 -0.50414
vn -0.575833 -0.678386 -0.45629899999999995
vn -0.578233 -0.47444500000000006 -0.663738
vn -0.801391 0.28663399999999994 -0.524989
vn -0.804667 0.13480299999999998 -0.57822
vn 0.634204 0.771796 0.04601299999999995
vn 0.178724 0.4672009999999999 -0.865899
vn 0.135011 0.989463 -0.05229800000000006
vn 0.178724 0.4672009999999999 -0.865899
vn 0.361143 0.931471 -0.04402700000000005
vn 0.988128 0.153324 0.009714999999999991
vn 0.41519 0.14675599999999994 -0.89782
vn 0.178724 0.4672009999999999 -0.865899
vn 0.605302 0.02972299999999995 -0.795441
vn 0.996858 0.069874 -0.03730100000000001
vn 0.036193 0.07297999999999995 -0.996677
vn 0.666801 0.08275399999999995 -0.740627
vn 0.987191 0.120979 0.10400499999999999
vn 0.218816 0.058722999999999935 -0.973998
vn 0.252743 0.16145399999999993 -0.953967
vn 0.071652 0.12585199999999994 -0.989458
vn 0.173365 0.32652499999999995 -0.929153
vn 0.48499 0.04886499999999994 -0.873154
vn 0.248404 0.30026899999999995 -0.920942
vn 0.534025 0.536953 -0.653069
vn 0.767777 0.4377599999999999 -0.46785
vn 0.647151 0.03788299999999995 -0.76142
vn 0.950146 0.298463 -0.09023700000000001
vn 0.715752 0.04003499999999996 -0.697206
vn 0.030258 0.11241499999999995 -0.993201
vn 0.598822 -0.36626000000000003 -0.712226
vn 0.370626 -0.028499000000000056 -0.928345
vn 0.210246 -0.01943700000000006 -0.977455
vn 0.411392 -0.10427500000000006 -0.905474
vn 0.603636 0.11486199999999996 -0.788943
vn 0.999 0.020288000000000004 0.039843
vn 0.286057 0.0029659999999999413 -0.958208
vn 0.580695 -0.22493400000000005 -0.782431
vn 0.80755 -0.581082 -0.10102799999999997
vn 0.205039 -0.13524100000000006 -0.969365
vn 0.450809 -0.32917300000000005 -0.829709
vn 0.464686 -0.572093 -0.675852
vn 0.553345 -0.81718 -0.16132399999999994
vn 0.342573 -0.33926500000000004 -0.876096
vn 0.06885 -0.15267900000000006 -0.985875
vn 0.356514 -0.730984 -0.58186
vn 0.262826 -0.45136800000000005 -0.852754
vn 0.106042 -0.2738630000000001 -0.955905
vn 0.360707 -0.640736 -0.677752
vn 0.495662 -0.846862 -0.19272699999999995
vn 0.3853 -0.900704 -0.20068899999999995
vn 0.223905 -0.579107 -0.783901
vn 0.079453 -0.579051 -0.811411
vn 0.165435 -0.973238 -0.15949399999999994
vn -0.196823 -0.97851 -0.06146699999999994
vn -0.008256 -0.36201500000000003 -0.932136
vn 0.138471 -0.589231 -0.79601
vn 0.356514 -0.730984 -0.58186
vn -0.27805 -0.533357 -0.798886
vn -0.693921 -0.719857 -0.016723999999999954
vn -0.190265 -0.3069430000000001 -0.932516
vn -0.22225 -0.834535 -0.50414
vn -0.553703 -0.4069900000000001 -0.72648
vn -0.834879 -0.547337 -0.058302999999999966
vn -0.392922 -0.34361300000000006 -0.852961
vn -0.578233 -0.47444500000000006 -0.663738
vn -0.602172 -0.31917900000000005 -0.731788
vn -0.862975 -0.475526 -0.17072999999999997
vn -0.560673 -0.3182090000000001 -0.764454
vn -0.859146 -0.0042240000000000315 -0.511713
vn -0.844577 0.18300399999999997 -0.503189
vn -0.854499 0.16776499999999997 -0.491616
vn -0.801391 0.28663399999999994 -0.524989
vn -0.520039 0.025296999999999948 -0.853768
vn -0.607372 -0.17067000000000004 -0.775868
vn 0.923023 -0.22471199999999997 0.312304
vn 0.646765 -0.38860799999999995 0.656262
vn 0.808878 -0.387151 0.442528
vn 0.61252 -0.780441 0.12542800000000007
vn 0.379235 -0.786677 0.48715500000000006
vn 0.040317 -0.99661 -0.07170899999999994
vn 0.157031 -0.792582 0.589199
vn -0.303998 -0.905297 0.29668500000000003
vn -0.645952 -0.688827 0.3290350000000001
vn -0.707227 -0.561158 0.43003800000000003
vn -0.902799 0.293742 0.314118
vn -0.907442 0.06297400000000003 0.415431
vn -0.610947 -0.773557 -0.16838399999999995
vn -0.517823 -0.40061500000000005 -0.755888
vn -0.985637 -0.12008300000000001 -0.11874199999999999
vn -0.594483 -0.16990800000000006 -0.785953
vn -0.556127 -0.813518 -0.17003399999999994
vn -0.302132 -0.3609780000000001 -0.882276
vn -0.18724 -0.42762000000000006 -0.884354
vn -0.862975 -0.475526 -0.17072999999999997
vn -0.844577 0.18300399999999997 -0.503189
vn -0.520039 0.025296999999999948 -0.853768
vn -0.316591 -0.14787700000000006 -0.936964
vn -0.213268 -0.21817500000000006 -0.952322
vn -0.363282 -0.31409300000000007 -0.877138
vn -0.607372 -0.17067000000000004 -0.775868
vn -0.356813 -0.12222500000000006 -0.926146
vn -0.114857 -0.025305000000000064 -0.99306
vn -0.670789 -0.552616 0.49462800000000007
vn -0.610947 -0.773557 -0.16838399999999995
vn -0.985637 -0.12008300000000001 -0.11874199999999999
vn -0.798482 -0.28405899999999995 0.530789
vn -0.556127 -0.813518 -0.17003399999999994
vn -0.529127 -0.49716999999999995 0.687639
vn -0.302422 -0.7119 0.63383
vn -0.862975 -0.475526 -0.17072999999999997
vn -0.937767 0.10947500000000002 0.329558
vn -0.709154 -0.18207699999999993 0.681138
vn -0.578479 -0.27569299999999997 0.767695
vn -0.424675 -0.31740899999999994 0.847882
vn -0.574514 -0.4480489999999999 0.684972
vn -0.785101 -0.32548399999999994 0.526951
vn -0.586784 -0.16700099999999996 0.792336
vn -0.304459 0.005725000000000058 0.952508
vn -0.902799 0.293742 0.314118
vn -0.785101 -0.32548399999999994 0.526951
vn -0.709154 -0.18207699999999993 0.681138
vn -0.943997 0.16505600000000004 0.285705
vn -0.937767 0.10947500000000002 0.329558
vn -0.707227 -0.561158 0.43003800000000003
vn -0.968508 -0.012137999999999984 0.248686
vn -0.862975 -0.475526 -0.17072999999999997
vn -0.762258 -0.44645299999999993 0.468659
vn -0.775377 -0.43705599999999994 0.45582
vn -0.834879 -0.547337 -0.058302999999999966
vn -0.616665 -0.539787 0.573022
vn -0.303998 -0.905297 0.29668500000000003
vn -0.680227 -0.561876 0.47073000000000004
vn -0.693921 -0.719857 -0.016723999999999954
vn -0.281901 -0.6394 0.715332
vn 0.157031 -0.792582 0.589199
vn -0.29096 -0.736485 0.610682
vn -0.196823 -0.97851 -0.06146699999999994
vn -0.001546 -0.628877 0.777503
vn 0.07973 -0.79741 0.598148
vn 0.165435 -0.973238 -0.15949399999999994
vn 0.3853 -0.900704 -0.20068899999999995
vn 0.159803 -0.4729149999999999 0.866495
vn 0.379235 -0.786677 0.48715500000000006
vn 0.251373 -0.752254 0.609037
vn 0.435684 -0.777627 0.45329400000000003
vn 0.495662 -0.846862 -0.19272699999999995
vn 0.553345 -0.81718 -0.16132399999999994
vn 0.342234 -0.644152 0.684064
vn 0.548373 -0.705217 0.44939500000000004
vn 0.80755 -0.581082 -0.10102799999999997
vn 0.145676 -0.3629629999999999 0.920346
vn 0.379235 -0.786677 0.48715500000000006
vn 0.646765 -0.38860799999999995 0.656262
vn 0.474757 -0.55314 0.684574
vn 0.370633 -0.27218999999999993 0.888
vn 0.6967 -0.38927999999999996 0.602553
vn 0.340253 0.0013380000000000577 0.940333
vn 0.795113 -0.08727599999999996 0.600149
vn 0.999 0.020288000000000004 0.039843
vn 0.65417 0.04504400000000005 0.755005
vn 0.812918 0.049756000000000036 0.580249
vn 0.987191 0.120979 0.10400499999999999
vn 0.823772 -0.18420299999999998 0.536161
vn 0.85519 -0.006907999999999968 0.518269
vn 0.996858 0.069874 -0.03730100000000001
vn 0.624687 0.06847500000000004 0.777867
vn 0.068617 0.21704900000000005 0.973746
vn 0.729938 0.08795500000000005 0.67783
vn 0.407557 0.28681400000000007 0.866969
vn 0.675813 0.17745900000000006 0.715391
vn 0.988128 0.153324 0.009714999999999991
vn 0.106511 0.25965900000000003 0.959809
vn 0.921043 0.343944 0.18271099999999998
vn 0.297906 0.22790100000000005 0.926991
vn 0.370628 0.34042300000000003 0.864145
vn 0.634204 0.771796 0.04601299999999995
vn -0.098356 0.2515760000000001 0.962827
vn -0.016221 0.48799200000000004 0.872697
vn 0.135011 0.989463 -0.05229800000000006
vn 0.361143 0.931471 -0.04402700000000005
vn 0.137591 0.3764100000000001 0.916179
vn 0.477694 0.4334950000000001 0.764127
vn 0.617819 0.45017500000000005 0.644703
vn 0.667325 0.585263 0.46059199999999995
vn 0.748174 0.523911 0.40712899999999996
vn 0.65904 0.34744500000000006 0.667045
vn 0.534025 0.536953 -0.653069
vn 0.792229 0.575978 -0.20155300000000004
vn 0.170315 0.604478 -0.778203
vn 0.767777 0.4377599999999999 -0.46785
vn 0.799852 0.515646 0.30715799999999993
vn 0.950146 0.298463 -0.09023700000000001
vn 0.626357 0.533487 -0.568392
vn 0.949066 0.306506 0.07299599999999999
vn 0.948843 -0.09115599999999999 0.302303
vn 0.715752 0.04003499999999996 -0.697206
vn 0.598822 -0.36626000000000003 -0.712226
vn 0.733915 -0.23345000000000002 -0.637864
vn 0.67732 -0.30230100000000004 -0.67071
vn 0.517494 -0.029294000000000053 -0.855185
vn 0.703424 0.17637599999999995 -0.688539
vn 0.198535 0.4222409999999999 -0.884475
vn 0.170315 0.604478 -0.778203
vn 0.202727 0.3460039999999999 -0.916069
vn 0.092072 0.33923499999999995 -0.936185
vn 0.068371 0.34051299999999995 -0.937751
vn -0.322353 0.6206 -0.714803
vn 0.384481 -0.010881000000000057 -0.923069
vn 0.517494 -0.029294000000000053 -0.855185
vn -0.025072 0.25568699999999994 -0.966434
vn 0.089882 -0.13518800000000006 -0.986735
vn 0.071265 0.24936599999999995 -0.965783
vn -0.40485 0.15965499999999994 -0.900337
vn -0.349968 -0.22970500000000005 -0.908162
vn -0.771634 0.15984499999999996 -0.615655
vn -0.337571 0.09210899999999994 -0.936783
vn -0.405123 -0.13463500000000006 -0.904295
vn -0.607372 -0.17067000000000004 -0.775868
vn -0.356813 -0.12222500000000006 -0.926146
vn -0.326089 0.2526149999999999 -0.910962
vn -0.114857 -0.025305000000000064 -0.99306
vn 0.126136 0.30970699999999995 -0.942428
vn -0.176038 0.832046 0.526032
vn 0.263502 0.805315 0.531069
vn 0.19665 0.975652 -0.09711300000000006
vn -0.489573 0.871916 -0.008997000000000054
vn -0.239486 0.970391 -0.03143400000000006
vn 0.454663 0.889544 -0.044640000000000055
vn 0.361143 0.931471 -0.04402700000000005
vn 0.667325 0.585263 0.46059199999999995
vn -0.304459 0.005725000000000058 0.952508
vn 0.2736 0.509368 0.815897
vn 0.419583 -0.47460299999999994 0.773759
vn 0.601116 0.45284100000000005 0.658479
vn 0.134609 0.45929700000000007 0.878024
vn 0.359707 0.709102 0.606453
vn 0.19665 0.975652 -0.09711300000000006
vn 0.088878 0.905195 0.41559899999999994
vn 0.271836 0.553232 0.787426
vn 0.508674 0.860959 -0.0002990000000000527
vn 0.097117 0.681799 0.725065
vn 0.318197 0.817939 0.47929799999999995
vn 0.30672 0.947921 -0.08584500000000006
vn 0.056232 0.609874 0.790501
vn 0.20992 0.965815 -0.15210100000000004
vn -0.167526 0.701775 0.692421
vn -0.473216 0.859492 -0.19323400000000004
vn -0.750419 0.636766 -0.17720300000000003
vn 0.135769 0.758646 0.637199
vn -0.637748 0.597654 0.48588799999999993
vn -0.905963 0.383619 -0.17907600000000004
vn -0.266206 0.637661 0.722857
vn -0.763424 0.3635340000000001 0.53388
vn -0.987759 0.04469999999999999 -0.149449
vn -0.084254 0.794933 0.600819
vn -0.466823 0.569297 0.67674
vn -0.375927 0.681548 0.62783
vn -0.735148 -0.005537999999999959 0.677884
vn -0.431114 -0.10277899999999994 0.896425
vn 0.419583 -0.47460299999999994 0.773759
vn -0.808937 0.001662000000000036 0.587894
vn -0.254919 -0.705147 0.661653
vn -0.304459 0.005725000000000058 0.952508
vn -0.424675 -0.31740899999999994 0.847882
vn -0.529127 -0.49716999999999995 0.687639
vn -0.398608 -0.638825 0.658038
vn -0.670789 -0.552616 0.49462800000000007
vn -0.612373 -0.679197 0.40458800000000006
vn -0.610947 -0.773557 -0.16838399999999995
vn -0.77516 -0.626176 -0.08385399999999996
vn -0.785101 -0.32548399999999994 0.526951
vn -0.899312 0.07192400000000003 0.431353
vn -0.586784 -0.16700099999999996 0.792336
vn -0.618376 -0.19162099999999996 0.762163
vn -0.521308 -0.3090089999999999 0.795457
vn -0.58545 0.11872200000000005 0.801968
vn -0.517723 0.4113470000000001 0.750171
vn -0.304459 0.005725000000000058 0.952508
vn 0.2736 0.509368 0.815897
vn -0.176038 0.832046 0.526032
vn -0.556404 0.17074300000000006 0.81318
vn 0.176229 0.649818 0.739378
vn 0.263502 0.805315 0.531069
vn -0.069425 0.44948200000000005 0.890588
vn 0.083169 0.684112 0.72462
vn 0.171209 -0.23389899999999994 0.957068
vn 0.126961 0.35395100000000007 0.926607
vn 0.711714 -0.14674899999999994 0.68697
vn 0.608209 -0.0053979999999999514 0.793759
vn 0.850393 0.20141500000000004 0.48607
vn 0.304915 0.557099 0.772442
vn 0.210393 0.780724 0.588391
vn 0.708884 0.616353 0.34291699999999997
vn 0.714258 0.697467 0.05810299999999996
vn 0.667325 0.585263 0.46059199999999995
vn 0.748174 0.523911 0.40712899999999996
vn 0.828226 0.528798 -0.18551000000000004
vn 0.921043 0.343944 0.18271099999999998
vn 0.949139 0.307327 -0.06844600000000002
vn 0.980387 -0.07987200000000001 -0.180173
vn 0.729938 0.08795500000000005 0.67783
vn 0.646765 -0.38860799999999995 0.656262
vn 0.846149 -0.300969 0.439829
vn 0.711714 -0.14674899999999994 0.68697
vn 0.808878 -0.387151 0.442528
g Material #0
f 1/1/1 2/2/2 3/3/3
f 4/4/4 5/5/5 6/6/6
f 4/4/4 7/7/7 8/8/8
f 8/8/8 7/7/7 9/9/9
f 9/9/9 7/7/7 10/10/10
f 10/10/10 7/7/7 11/11/11
f 7/7/7 12/12/12 11/11/11
f 13/13/13 14/14/14 15/15/15
f 15/15/15 16/16/16 17/17/17
f 16/16/16 18/18/18 17/17/17
f 17/17/17 18/18/18 19/19/19
f 20/20/20 16/16/16 15/15/15
f 19/19/19 18/18/18 21/21/21
f 18/18/18 16/16/16 21/21/21
f 22/22/22 19/19/19 21/21/21
f 15/15/15 23/23/23 20/20/20
f 16/16/16 24/24/24 21/21/21
f 16/16/16 20/20/20 24/24/24
f 22/22/22 21/21/21 25/25/25
f 21/21/21 24/24/24 25/25/25
f 26/26/26 22/22/22 25/25/25
f 26/26/26 25/25/25 27/27/27
f 23/23/23 28/28/28 29/29/29
f 25/25/25 30/30/30 27/27/27
f 27/27/27 30/30/30 31/31/31
f 32/32/32 23/23/23 29/29/29
f 20/20/20 23/23/23 32/32/32
f 29/29/29 33/33/33 32/32/32
f 34/34/34 20/20/20 32/32/32
f 32/32/32 33/33/33 34/34/34
f 20/20/20 34/34/34 24/24/24
f 30/30/30 35/35/35 31/31/31
f 36/36/36 31/31/31 35/35/35
f 24/24/24 34/34/34 37/37/37
f 24/24/24 37/37/37 25/25/25
f 38/38/38 30/30/30 25/25/25
f 37/37/37 38/38/38 25/25/25
f 30/30/30 38/38/38 35/35/35
f 34/34/34 39/39/39 37/37/37
f 39/39/39 38/38/38 37/37/37
f 40/40/40 39/39/39 34/34/34
f 34/34/34 33/33/33 40/40/40
f 39/39/39 41/41/41 38/38/38
f 39/39/39 40/40/40 41/41/41
f 38/38/38 41/41/41 35/35/35
f 40/40/40 33/33/33 42/42/42
f 42/42/42 33/33/33 43/43/43
f 44/44/44 41/41/41 40/40/40
f 40/40/40 42/42/42 44/44/44
f 35/35/35 41/41/41 44/44/44
f 45/45/45 42/42/42 43/43/43
f 44/44/44 42/42/42 45/45/45
f 43/43/43 46/46/46 47/47/47
f 45/45/45 43/43/43 47/47/47
f 45/45/45 47/47/47 48/48/48
f 49/49/49 45/45/45 48/48/48
f 45/45/45 49/49/49 44/44/44
f 49/49/49 48/48/48 50/50/50
f 44/44/44 51/51/51 35/35/35
f 51/51/51 44/44/44 49/49/49
f 35/35/35 51/51/51 36/36/36
f 52/52/52 49/49/49 50/50/50
f 49/49/49 52/52/52 51/51/51
f 36/36/36 51/51/51 52/52/52
f 52/52/52 50/50/50 53/53/53
f 52/52/52 54/54/54 36/36/36
f 54/54/54 52/52/52 53/53/53
f 55/55/55 56/56/56 57/57/57
f 58/58/58 55/55/55 57/57/57
f 59/59/59 58/58/58 57/57/57
f 60/60/60 58/58/58 59/59/59
f 59/59/59 61/61/61 60/60/60
f 60/60/60 61/61/61 62/62/62
f 62/62/62 61/61/61 63/63/63
f 61/61/61 59/59/59 63/63/63
f 59/59/59 64/64/64 63/63/63
f 63/63/63 64/64/64 65/65/65
f 66/66/66 67/67/67 68/68/68
f 68/68/68 69/69/69 66/66/66
f 69/69/69 68/68/68 70/70/70
f 70/70/70 71/71/71 69/69/69
f 72/72/72 69/69/69 73/73/73
f 69/69/69 71/71/71 73/73/73
f 74/74/74 71/71/71 70/70/70
f 74/74/74 73/73/73 71/71/71
f 74/74/74 70/70/70 75/75/75
f 76/76/76 77/77/77 73/73/73
f 74/74/74 76/76/76 73/73/73
f 78/78/78 76/76/76 74/74/74
f 74/74/74 75/75/75 78/78/78
f 75/75/75 79/79/79 78/78/78
f 80/80/80 81/81/81 82/82/82
f 81/81/81 83/83/83 82/82/82
f 83/83/83 84/84/84 82/82/82
f 84/84/84 83/83/83 85/85/85
f 85/85/85 86/86/86 84/84/84
f 86/86/86 85/85/85 87/87/87
f 86/86/86 87/87/87 88/88/88
f 84/84/84 86/86/86 88/88/88
f 89/89/89 84/84/84 88/88/88
f 89/89/89 88/88/88 90/90/90
f 91/91/91 92/92/92 93/93/93
f 93/93/93 94/94/94 91/91/91
f 95/95/95 91/91/91 94/94/94
f 94/94/94 96/96/96 97/97/97
f 94/94/94 98/98/98 95/95/95
f 98/98/98 94/94/94 97/97/97
f 98/98/98 99/99/99 95/95/95
f 95/95/95 99/99/99 100/100/100
f 98/98/98 101/101/101 99/99/99
f 99/99/99 101/101/101 100/100/100
f 97/97/97 101/101/101 98/98/98
f 102/102/102 100/100/100 103/103/103
f 100/100/100 101/101/101 103/103/103
f 104/104/104 103/103/103 101/101/101
f 104/104/104 101/101/101 97/97/97
f 105/105/105 104/104/104 97/97/97
f 106/106/106 107/107/107 108/108/108
f 106/106/106 109/109/109 107/107/107
f 110/110/110 109/109/109 106/106/106
f 109/109/109 110/110/110 111/111/111
f 110/110/110 112/112/112 111/111/111
f 111/111/111 112/112/112 113/113/113
f 114/114/114 111/111/111 113/113/113
f 114/114/114 113/113/113 115/115/115
f 115/115/115 116/116/116 114/114/114
f 116/116/116 117/117/117 114/114/114
f 118/118/118 119/119/119 120/120/120
f 120/120/120 121/121/121 122/122/122
f 118/118/118 123/123/123 124/124/124
f 125/125/125 118/118/118 124/124/124
f 124/124/124 123/123/123 126/126/126
f 123/123/123 127/127/127 126/126/126
f 125/125/125 124/124/124 128/128/128
f 126/126/126 127/127/127 129/129/129
f 130/130/130 129/129/129 127/127/127
f 124/124/124 126/126/126 131/131/131
f 128/128/128 124/124/124 131/131/131
f 126/126/126 132/132/132 131/131/131
f 132/132/132 126/126/126 129/129/129
f 128/128/128 131/131/131 133/133/133
f 133/133/133 131/131/131 132/132/132
f 134/134/134 125/125/125 128/128/128
f 125/125/125 134/134/134 122/122/122
f 134/134/134 128/128/128 135/135/135
f 135/135/135 128/128/128 133/133/133
f 134/134/134 136/136/136 122/122/122
f 136/136/136 134/134/134 135/135/135
f 136/136/136 137/137/137 122/122/122
f 137/137/137 136/136/136 138/138/138
f 136/136/136 139/139/139 138/138/138
f 135/135/135 139/139/139 136/136/136
f 138/138/138 139/139/139 140/140/140
f 139/139/139 135/135/135 140/140/140
f 135/135/135 133/133/133 140/140/140
f 140/140/140 133/133/133 141/141/141
f 133/133/133 142/142/142 141/141/141
f 142/142/142 133/133/133 132/132/132
f 141/141/141 142/142/142 143/143/143
f 142/142/142 132/132/132 144/144/144
f 144/144/144 132/132/132 129/129/129
f 142/142/142 145/145/145 143/143/143
f 142/142/142 144/144/144 145/145/145
f 144/144/144 129/129/129 146/146/146
f 144/144/144 146/146/146 145/145/145
f 129/129/129 147/147/147 146/146/146
f 129/129/129 130/130/130 147/147/147
f 130/130/130 148/148/148 147/147/147
f 146/146/146 149/149/149 145/145/145
f 146/146/146 147/147/147 149/149/149
f 147/147/147 148/148/148 150/150/150
f 147/147/147 150/150/150 149/149/149
f 148/148/148 151/151/151 150/150/150
f 145/145/145 149/149/149 152/152/152
f 145/145/145 152/152/152 143/143/143
f 150/150/150 153/153/153 149/149/149
f 151/151/151 153/153/153 150/150/150
f 153/153/153 152/152/152 149/149/149
f 153/153/153 151/151/151 154/154/154
f 151/151/151 155/155/155 154/154/154
f 152/152/152 153/153/153 156/156/156
f 153/153/153 154/154/154 156/156/156
f 152/152/152 157/157/157 143/143/143
f 157/157/157 158/158/158 143/143/143
f 152/152/152 156/156/156 159/159/159
f 157/157/157 152/152/152 159/159/159
f 156/156/156 154/154/154 159/159/159
f 158/158/158 157/157/157 160/160/160
f 157/157/157 159/159/159 160/160/160
f 154/154/154 155/155/155 161/161/161
f 154/154/154 161/161/161 159/159/159
f 155/155/155 162/162/162 161/161/161
f 161/161/161 162/162/162 163/163/163
f 159/159/159 161/161/161 164/164/164
f 164/164/164 161/161/161 163/163/163
f 160/160/160 159/159/159 164/164/164
f 164/164/164 163/163/163 165/165/165
f 163/163/163 166/166/166 165/165/165
f 165/165/165 166/166/166 167/167/167
f 160/160/160 164/164/164 168/168/168
f 164/164/164 165/165/165 168/168/168
f 169/169/169 170/170/170 160/160/160
f 168/168/168 169/169/169 160/160/160
f 171/171/171 165/165/165 167/167/167
f 168/168/168 165/165/165 171/171/171
f 171/171/171 167/167/167 172/172/172
f 169/169/169 168/168/168 173/173/173
f 173/173/173 168/168/168 171/171/171
f 174/174/174 169/169/169 173/173/173
f 175/175/175 171/171/171 172/172/172
f 173/173/173 171/171/171 175/175/175
f 175/175/175 172/172/172 176/176/176
f 174/174/174 173/173/173 177/177/177
f 177/177/177 173/173/173 175/175/175
f 178/178/178 174/174/174 177/177/177
f 176/176/176 179/179/179 175/175/175
f 175/175/175 179/179/179 177/177/177
f 176/176/176 180/180/180 179/179/179
f 181/181/181 178/178/178 177/177/177
f 179/179/179 181/181/181 177/177/177
f 180/180/180 182/182/182 179/179/179
f 179/179/179 182/182/182 181/181/181
f 180/180/180 183/183/183 182/182/182
f 181/181/181 184/184/184 178/178/178
f 182/182/182 184/184/184 181/181/181
f 182/182/182 183/183/183 184/184/184
f 184/184/184 185/185/185 178/178/178
f 183/183/183 186/186/186 184/184/184
f 185/185/185 184/184/184 186/186/186
f 187/187/187 185/185/185 186/186/186
f 188/188/188 189/189/189 190/190/190
f 191/191/191 189/189/189 188/188/188
f 191/191/191 192/192/192 189/189/189
f 192/192/192 191/191/191 193/193/193
f 194/194/194 192/192/192 193/193/193
f 194/194/194 193/193/193 195/195/195
f 193/193/193 196/196/196 195/195/195
f 195/195/195 196/196/196 197/197/197
f 198/198/198 197/197/197 196/196/196
f 199/199/199 198/198/198 196/196/196
f 200/200/200 201/201/201 202/202/202
f 201/201/201 203/203/203 202/202/202
f 202/202/202 203/203/203 204/204/204
f 201/201/201 205/205/205 203/203/203
f 203/203/203 206/206/206 204/204/204
f 204/204/204 206/206/206 207/207/207
f 206/206/206 208/208/208 207/207/207
f 209/209/209 208/208/208 206/206/206
f 205/205/205 210/210/210 203/203/203
f 203/203/203 210/210/210 206/206/206
f 210/210/210 209/209/209 206/206/206
f 205/205/205 211/211/211 210/210/210
f 210/210/210 212/212/212 209/209/209
f 211/211/211 212/212/212 210/210/210
f 212/212/212 213/213/213 209/209/209
f 214/214/214 213/213/213 212/212/212
f 211/211/211 214/214/214 212/212/212
f 215/215/215 214/214/214 211/211/211
f 216/216/216 217/217/217 218/218/218
f 219/219/219 216/216/216 218/218/218
f 219/219/219 218/218/218 220/220/220
f 221/221/221 216/216/216 219/219/219
f 222/222/222 219/219/219 220/220/220
f 222/222/222 220/220/220 223/223/223
f 224/224/224 222/222/222 223/223/223
f 224/224/224 225/225/225 222/222/222
f 226/226/226 221/221/221 219/219/219
f 226/226/226 219/219/219 222/222/222
f 225/225/225 226/226/226 222/222/222
f 227/227/227 221/221/221 226/226/226
f 228/228/228 226/226/226 225/225/225
f 228/228/228 227/227/227 226/226/226
f 229/229/229 228/228/228 225/225/225
f 229/229/229 230/230/230 228/228/228
f 230/230/230 227/227/227 228/228/228
f 230/230/230 231/231/231 227/227/227
f 232/232/232 233/233/233 234/234/234
f 235/235/235 232/232/232 234/234/234
f 234/234/234 236/236/236 235/235/235
f 232/232/232 235/235/235 237/237/237
f 236/236/236 238/238/238 235/235/235
f 236/236/236 239/239/239 238/238/238
f 235/235/235 240/240/240 237/237/237
f 235/235/235 238/238/238 240/240/240
f 238/238/238 239/239/239 241/241/241
f 238/238/238 241/241/241 240/240/240
f 239/239/239 242/242/242 241/241/241
f 237/237/237 240/240/240 243/243/243
f 240/240/240 241/241/241 243/243/243
f 244/244/244 237/237/237 243/243/243
f 241/241/241 242/242/242 245/245/245
f 241/241/241 245/245/245 243/243/243
f 246/246/246 245/245/245 242/242/242
f 247/247/247 244/244/244 243/243/243
f 247/247/247 243/243/243 245/245/245
f 248/248/248 244/244/244 247/247/247
f 249/249/249 245/245/245 246/246/246
f 249/249/249 247/247/247 245/245/245
f 250/250/250 249/249/249 246/246/246
f 251/251/251 248/248/248 247/247/247
f 251/251/251 247/247/247 249/249/249
f 252/252/252 249/249/249 250/250/250
f 252/252/252 251/251/251 249/249/249
f 253/253/253 252/252/252 250/250/250
f 253/253/253 254/254/254 252/252/252
f 248/248/248 251/251/251 255/255/255
f 256/256/256 248/248/248 255/255/255
f 252/252/252 257/257/257 251/251/251
f 254/254/254 257/257/257 252/252/252
f 257/257/257 255/255/255 251/251/251
f 258/258/258 257/257/257 254/254/254
f 259/259/259 258/258/258 254/254/254
f 259/259/259 260/260/260 258/258/258
f 261/261/261 255/255/255 257/257/257
f 258/258/258 261/261/261 257/257/257
f 260/260/260 262/262/262 258/258/258
f 258/258/258 262/262/262 261/261/261
f 260/260/260 263/263/263 262/262/262
f 261/261/261 264/264/264 255/255/255
f 264/264/264 265/265/265 255/255/255
f 265/265/265 264/264/264 266/266/266
f 262/262/262 267/267/267 261/261/261
f 268/268/268 264/264/264 261/261/261
f 267/267/267 268/268/268 261/261/261
f 264/264/264 268/268/268 266/266/266
f 262/262/262 269/269/269 267/267/267
f 269/269/269 268/268/268 267/267/267
f 263/263/263 269/269/269 262/262/262
f 268/268/268 270/270/270 266/266/266
f 269/269/269 263/263/263 271/271/271
f 263/263/263 272/272/272 271/271/271
f 268/268/268 269/269/269 273/273/273
f 269/269/269 271/271/271 273/273/273
f 273/273/273 270/270/270 268/268/268
f 272/272/272 274/274/274 271/271/271
f 271/271/271 274/274/274 273/273/273
f 272/272/272 275/275/275 274/274/274
f 274/274/274 276/276/276 273/273/273
f 273/273/273 276/276/276 270/270/270
f 275/275/275 277/277/277 274/274/274
f 274/274/274 277/277/277 276/276/276
f 277/277/277 275/275/275 278/278/278
f 276/276/276 279/279/279 270/270/270
f 277/277/277 279/279/279 276/276/276
f 270/270/270 280/280/280 266/266/266
f 279/279/279 280/280/280 270/270/270
f 280/280/280 281/281/281 266/266/266
f 282/282/282 279/279/279 277/277/277
f 282/282/282 280/280/280 279/279/279
f 278/278/278 283/283/283 277/277/277
f 283/283/283 282/282/282 277/277/277
f 278/278/278 284/284/284 283/283/283
f 280/280/280 285/285/285 281/281/281
f 285/285/285 280/280/280 282/282/282
f 285/285/285 286/286/286 281/281/281
f 282/282/282 283/283/283 287/287/287
f 287/287/287 285/285/285 282/282/282
f 284/284/284 288/288/288 283/283/283
f 283/283/283 288/288/288 287/287/287
f 284/284/284 289/289/289 288/288/288
f 287/287/287 290/290/290 285/285/285
f 288/288/288 290/290/290 287/287/287
f 289/289/289 291/291/291 288/288/288
f 288/288/288 291/291/291 290/290/290
f 291/291/291 289/289/289 292/292/292
f 291/291/291 292/292/292 293/293/293
f 291/291/291 294/294/294 290/290/290
f 294/294/294 291/291/291 293/293/293
f 290/290/290 295/295/295 285/285/285
f 290/290/290 294/294/294 295/295/295
f 285/285/285 295/295/295 286/286/286
f 296/296/296 294/294/294 293/293/293
f 294/294/294 296/296/296 295/295/295
f 297/297/297 296/296/296 293/293/293
f 296/296/296 297/297/297 298/298/298
f 295/295/295 299/299/299 286/286/286
f 299/299/299 298/298/298 286/286/286
f 299/299/299 295/295/295 296/296/296
f 299/299/299 296/296/296 298/298/298
f 300/300/300 301/301/301 302/302/302
f 301/301/301 300/300/300 303/303/303
f 304/304/304 301/301/301 303/303/303
f 304/304/304 303/303/303 305/305/305
f 304/304/304 306/306/306 301/301/301
f 307/307/307 304/304/304 305/305/305
f 306/306/306 304/304/304 307/307/307
f 307/307/307 305/305/305 308/308/308
f 305/305/305 309/309/309 308/308/308
f 309/309/309 310/310/310 308/308/308
f 308/308/308 310/310/310 311/311/311
f 307/307/307 308/308/308 311/311/311
f 310/310/310 312/312/312 311/311/311
f 311/311/311 312/312/312 313/313/313
f 314/314/314 311/311/311 313/313/313
f 314/314/314 307/307/307 311/311/311
f 314/314/314 306/306/306 307/307/307
f 306/306/306 315/315/315 301/301/301
f 301/301/301 315/315/315 316/316/316
f 317/317/317 306/306/306 314/314/314
f 306/306/306 317/317/317 315/315/315
f 315/315/315 318/318/318 316/316/316
f 315/315/315 317/317/317 318/318/318
f 318/318/318 319/319/319 316/316/316
f 316/316/316 319/319/319 320/320/320
f 321/321/321 317/317/317 314/314/314
f 321/321/321 314/314/314 322/322/322
f 317/317/317 323/323/323 318/318/318
f 318/318/318 323/323/323 319/319/319
f 317/317/317 321/321/321 324/324/324
f 321/321/321 322/322/322 324/324/324
f 323/323/323 317/317/317 324/324/324
f 322/322/322 325/325/325 324/324/324
f 324/324/324 325/325/325 326/326/326
f 326/326/326 327/327/327 324/324/324
f 323/323/323 324/324/324 327/327/327
f 327/327/327 326/326/326 328/328/328
f 329/329/329 323/323/323 327/327/327
f 327/327/327 328/328/328 330/330/330
f 329/329/329 327/327/327 330/330/330
f 328/328/328 331/331/331 332/332/332
f 330/330/330 328/328/328 332/332/332
f 323/323/323 329/329/329 333/333/333
f 329/329/329 330/330/330 333/333/333
f 330/330/330 332/332/332 333/333/333
f 319/319/319 323/323/323 333/333/333
f 319/319/319 333/333/333 320/320/320
f 333/333/333 332/332/332 334/334/334
f 320/320/320 333/333/333 335/335/335
f 333/333/333 334/334/334 335/335/335
f 336/336/336 337/337/337 338/338/338
f 337/337/337 339/339/339 338/338/338
f 337/337/337 340/340/340 339/339/339
f 337/337/337 341/341/341 340/340/340
f 337/337/337 342/342/342 341/341/341
f 343/343/343 342/342/342 337/337/337
f 344/344/344 345/345/345 346/346/346
f 345/345/345 347/347/347 346/346/346
f 348/348/348 346/346/346 347/347/347
f 345/345/345 349/349/349 347/347/347
f 345/345/345 350/350/350 349/349/349
f 348/348/348 347/347/347 351/351/351
f 349/349/349 351/351/351 347/347/347
f 352/352/352 349/349/349 350/350/350
f 352/352/352 350/350/350 353/353/353
f 351/351/351 349/349/349 354/354/354
f 349/349/349 352/352/352 354/354/354
f 355/355/355 352/352/352 353/353/353
f 355/355/355 353/353/353 356/356/356
f 352/352/352 355/355/355 357/357/357
f 355/355/355 356/356/356 357/357/357
f 354/354/354 352/352/352 357/357/357
f 356/356/356 358/358/358 357/357/357
f 357/357/357 358/358/358 359/359/359
f 354/354/354 357/357/357 359/359/359
f 358/358/358 360/360/360 359/359/359
f 359/359/359 360/360/360 361/361/361
f 362/362/362 354/354/354 359/359/359
f 351/351/351 354/354/354 362/362/362
f 363/363/363 359/359/359 361/361/361
f 363/363/363 361/361/361 364/364/364
f 365/365/365 362/362/362 359/359/359
f 363/363/363 365/365/365 359/359/359
f 366/366/366 363/363/363 364/364/364
f 365/365/365 363/363/363 366/366/366
f 366/366/366 364/364/364 367/367/367
f 365/365/365 368/368/368 362/362/362
f 368/368/368 351/351/351 362/362/362
f 369/369/369 368/368/368 365/365/365
f 369/369/369 365/365/365 366/366/366
f 351/351/351 368/368/368 370/370/370
f 370/370/370 368/368/368 369/369/369
f 370/370/370 348/348/348 351/351/351
f 371/371/371 369/369/369 366/366/366
f 370/370/370 369/369/369 371/371/371
f 348/348/348 370/370/370 372/372/372
f 371/371/371 372/372/372 370/370/370
f 348/348/348 372/372/372 373/373/373
f 366/366/366 374/374/374 371/371/371
f 367/367/367 374/374/374 366/366/366
f 375/375/375 372/372/372 371/371/371
f 372/372/372 375/375/375 373/373/373
f 376/376/376 373/373/373 377/377/377
f 373/373/373 375/375/375 377/377/377
f 377/377/377 375/375/375 378/378/378
f 371/371/371 379/379/379 375/375/375
f 375/375/375 379/379/379 378/378/378
f 379/379/379 371/371/371 374/374/374
f 378/378/378 379/379/379 380/380/380
f 374/374/374 381/381/381 379/379/379
f 379/379/379 381/381/381 380/380/380
f 381/381/381 374/374/374 367/367/367
f 380/380/380 381/381/381 382/382/382
f 367/367/367 383/383/383 381/381/381
f 381/381/381 383/383/383 382/382/382
f 384/384/384 385/385/385 386/386/386
f 385/385/385 387/387/387 386/386/386
f 385/385/385 388/388/388 387/387/387
f 389/389/389 388/388/388 385/385/385
f 386/386/386 387/387/387 390/390/390
f 386/386/386 390/390/390 391/391/391
f 391/391/391 390/390/390 392/392/392
f 390/390/390 393/393/393 392/392/392
f 388/388/388 394/394/394 387/387/387
f 387/387/387 394/394/394 390/390/390
f 390/390/390 395/395/395 393/393/393
f 395/395/395 396/396/396 393/393/393
f 394/394/394 397/397/397 390/390/390
f 397/397/397 395/395/395 390/390/390
f 397/397/397 394/394/394 388/388/388
f 395/395/395 398/398/398 396/396/396
f 397/397/397 398/398/398 395/395/395
f 399/399/399 388/388/388 389/389/389
f 399/399/399 397/397/397 388/388/388
f 389/389/389 400/400/400 399/399/399
f 400/400/400 401/401/401 399/399/399
f 401/401/401 402/402/402 399/399/399
f 403/403/403 402/402/402 401/401/401
f 404/404/404 397/397/397 399/399/399
f 402/402/402 404/404/404 399/399/399
f 397/397/397 404/404/404 398/398/398
f 404/404/404 402/402/402 403/403/403
f 404/404/404 405/405/405 398/398/398
f 398/398/398 405/405/405 396/396/396
f 406/406/406 404/404/404 403/403/403
f 404/404/404 406/406/406 405/405/405
f 405/405/405 407/407/407 396/396/396
f 405/405/405 406/406/406 407/407/407
f 407/407/407 408/408/408 396/396/396
f 408/408/408 407/407/407 409/409/409
f 407/407/407 410/410/410 409/409/409
f 406/406/406 410/410/410 407/407/407
f 409/409/409 410/410/410 411/411/411
f 410/410/410 406/406/406 412/412/412
f 410/410/410 412/412/412 411/411/411
f 406/406/406 403/403/403 412/412/412
f 411/411/411 412/412/412 413/413/413
f 414/414/414 411/411/411 413/413/413
f 415/415/415 414/414/414 413/413/413
f 412/412/412 403/403/403 416/416/416
f 413/413/413 412/412/412 416/416/416
f 415/415/415 413/413/413 416/416/416
f 416/416/416 403/403/403 417/417/417
f 418/418/418 415/415/415 416/416/416
f 418/418/418 416/416/416 417/417/417
