v -0.045664920000000005 -0.14889986999999996 0.7094682
v 0.014766570000000001 0.6207219900000001 1.3125042000000002
v 0.014677109999999998 0.5982555600000001 1.3392792000000002
v 0.014677109999999998 0.5982555600000001 1.3392792000000002
v -0.04575564 -0.17136629999999994 0.7362432
v -0.045664920000000005 -0.14889986999999996 0.7094682
v 0.019773179999999998 0.6208089300000001 1.3125042000000002
v 0.07398405 -0.14681141999999997 0.7094682
v 0.0738927 -0.16927721999999995 0.7362432
v 0.0738927 -0.16927721999999995 0.7362432
v 0.01968309 0.5983431300000001 1.3392792000000002
v 0.019773179999999998 0.6208089300000001 1.3125042000000002
v -0.05362812 -0.18422144999999995 0.35601489000000003
v -0.059815980000000005 -0.28355795999999994 0.4460274
v -0.04798584 -0.16873037999999999 0.53292204
v 0.07436016 -0.16670303999999997 0.53292204
v 0.08832474 -0.28155644999999996 0.4460274
v 0.08032437 -0.18223820999999996 0.35601489000000003
v -0.05551371 -0.03855914999999994 1.06363089
v -0.00444717 -0.06948017999999992 1.29159009
v 0.00799974 -0.06952994999999992 1.27372518
v 0.1716435 -0.043290449999999946 0.8673273
v 0.17170776000000001 -0.027243089999999946 0.8352319500000001
v 0.17177328 -0.011195099999999947 0.8673273
v -0.13718187 -0.02599253999999995 0.8352319500000001
v -0.13724739 -0.04203989999999995 0.8673273
v -0.13711698 -0.00994517999999995 0.8673273
v 0.00189756 0.62049708 1.3125042000000002
v -0.08060283 -0.14950970999999996 0.7094682
v -0.08069418 -0.17197550999999997 0.7362432
v -0.08069418 -0.17197550999999997 0.7362432
v 0.00180747 0.59803065 1.3392792000000002
v 0.10892259 -0.14620094999999997 0.7094682
v 0.03264219 0.6210338400000001 1.3125042000000002
v 0.0325521 0.5985680400000001 1.3392792000000002
v 0.0325521 0.5985680400000001 1.3392792000000002
v 0.1088325 -0.16866800999999995 0.7362432
v 0.06246954 -0.04976180999999994 1.04292468
v 0.07145901 -0.05027714999999994 1.06206975
v 0.05507775 0.25321275000000004 1.06207038
v 0.05507775 0.25321275000000004 1.06207038
v 0.045257939999999997 0.2530413900000001 1.04292468
v 0.05993505 -0.036543149999999934 1.06363089
v 0.021636719999999998 -0.06958475999999991 1.27372518
v 0.034083630000000004 -0.06963515999999992 1.29159009
v 0.08578521 -0.036092069999999934 1.06363089
v 0.05993505 -0.036543149999999934 1.06363089
v 0.05993505 -0.036543149999999934 1.06363089
v 0.11375973 0.045181710000000035 0.52869411
v 0.06967107 0.04441185000000004 0.52869411
v 0.05993505 -0.036543149999999934 1.06363089
v 0.0597996 -0.07350398999999994 1.06363089
v 0.02152899 -0.09637676999999993 1.27372518
v 0.021636719999999998 -0.06958475999999991 1.27372518
v 0.05993505 -0.036543149999999934 1.06363089
v 0.0597996 -0.07350398999999994 1.06363089
v 0.0597996 -0.07350398999999994 1.06363089
v 0.06967107 0.04441185000000004 0.52869411
v 0.06946758 -0.0002589299999999676 0.52869411
v 0.0597996 -0.07350398999999994 1.06363089
v 0.00799974 -0.06952994999999992 1.27372518
v -0.030411360000000002 -0.03812003999999993 1.06363089
v -0.05551371 -0.03855914999999994 1.06363089
v -0.05551371 -0.03855914999999994 1.06363089
v -0.047768490000000004 0.03987837000000003 0.52869411
v -0.08597358000000001 0.041694660000000036 0.52869411
v -0.05551371 -0.03855914999999994 1.06363089
v -0.030411360000000002 -0.03812003999999993 1.06363089
v 0.00799974 -0.06952994999999992 1.27372518
v 0.00789138 -0.09632195999999993 1.27372518
v -0.03056634 -0.07261379999999994 1.06363089
v -0.030411360000000002 -0.03812003999999993 1.06363089
v -0.030411360000000002 -0.03812003999999993 1.06363089
v -0.04792662 -0.004791149999999968 0.52869411
v -0.047768490000000004 0.03987837000000003 0.52869411
v -0.030411360000000002 -0.03812003999999993 1.06363089
v -0.05567814 -0.07251236999999994 1.06363089
v -0.0045555299999999995 -0.09627155999999991 1.29159009
v -0.00444717 -0.06948017999999992 1.29159009
v -0.05551371 -0.03855914999999994 1.06363089
v -0.05567814 -0.07251236999999994 1.06363089
v -0.05567814 -0.07251236999999994 1.06363089
v -0.08597358000000001 0.041694660000000036 0.52869411
v -0.08613108 -0.0029748599999999677 0.52869411
v -0.05567814 -0.07251236999999994 1.06363089
v 0.1716435 -0.043290449999999946 0.8673273
v 0.17177328 -0.011195099999999947 0.8673273
v -0.13711698 -0.00994517999999995 0.8673273
v -0.13711698 -0.00994517999999995 0.8673273
v -0.13724739 -0.04203989999999995 0.8673273
v 0.08578521 -0.036092069999999934 1.06363089
v 0.034083630000000004 -0.06963515999999992 1.29159009
v 0.03397527 -0.09642779999999991 1.29159009
v 0.03397527 -0.09642779999999991 1.29159009
v 0.08566047 -0.07360856999999994 1.06363089
v 0.08566047 -0.07360856999999994 1.06363089
v 0.11355561 0.0005109300000000324 0.52869411
v 0.11355561 0.0005109300000000324 0.52869411
v 0.11375973 0.045181710000000035 0.52869411
v 0.017364690000000002 0.6301619100000001 1.32416046
v 0.017364690000000002 0.63561015 0.5479475399999999
v 0.017364690000000002 0.62670447 0.5480779499999999
v 0.017364690000000002 0.62207838 1.31895981
v 0.017364690000000002 0.6301619100000001 1.32416046
v 0.017364690000000002 0.62207838 1.31895981
v 0.017364690000000002 0.62670447 0.5480779499999999
v 0.017364690000000002 0.63561015 0.5479475399999999
v 0.0145971 0.6551206199999999 0.45438308999999993
v 0.02563785 0.58433004 0.45438371999999994
v 0.02553894 0.58433067 0.5498822699999999
v 0.01448937 0.65511999 0.5498822699999999
v 0.0145971 0.6551206199999999 0.45438308999999993
v 0.01448937 0.65511999 0.5498822699999999
v 0.02553894 0.58433067 0.5498822699999999
v 0.02563785 0.58433004 0.45438371999999994
v -0.08069418 -0.17197550999999997 0.7362432
v -0.04575564 -0.17136629999999994 0.7362432
v 0.014677109999999998 0.5982555600000001 1.3392792000000002
v 0.00180747 0.59803065 1.3392792000000002
v 0.00189756 0.62049708 1.3125042000000002
v 0.014766570000000001 0.6207219900000001 1.3125042000000002
v -0.045664920000000005 -0.14889986999999996 0.7094682
v -0.08060283 -0.14950970999999996 0.7094682
v 0.0325521 0.5985680400000001 1.3392792000000002
v 0.01968309 0.5983431300000001 1.3392792000000002
v 0.0738927 -0.16927721999999995 0.7362432
v 0.1088325 -0.16866800999999995 0.7362432
v 0.03264219 0.6210338400000001 1.3125042000000002
v 0.10892259 -0.14620094999999997 0.7094682
v 0.07398405 -0.14681141999999997 0.7094682
v 0.019773179999999998 0.6208089300000001 1.3125042000000002
v -0.04350843 -0.04174379999999994 1.06206975
v -0.03453975 -0.042561539999999946 1.04292468
v -0.013323870000000002 0.25157349000000007 1.04292468
v -0.02311344 0.25140276000000006 1.06206975
v -0.02311344 0.25140276000000006 1.06206975
v -0.03320352 0.25122699000000004 1.04292468
v -0.05275242 -0.04088888999999994 1.04292468
v -0.04350843 -0.04174379999999994 1.06206975
v 0.06520185 0.25338915000000006 1.04292468
v 0.05507775 0.25321275000000004 1.06207038
v 0.07145901 -0.05027714999999994 1.06206975
v 0.0807282 -0.05079626999999994 1.04292468
v -0.02448873 -0.12085478999999996 0.53292267
v -0.02474073 -0.10220804999999994 0.7304598
v -0.04161276 -0.15081569999999994 0.7359609599999999
v -0.04798584 -0.16873037999999999 0.53292204
v 0.07436016 -0.16670303999999997 0.53292204
v 0.06750135 -0.14891057999999993 0.7359609599999999
v 0.04932774 -0.10120697999999996 0.7304598
v 0.049579740000000004 -0.11985371999999997 0.53292267
v 0.07965153 0.047889450000000014 0.35206352999999996
v 0.07939386 0.08420580000000005 0.73045917
v 0.1092546 0.12376854000000005 0.73724427
v 0.13561884 0.15236046000000003 0.36057167999999995
v -0.08948015999999999 0.12217338000000004 0.7365682800000001
v -0.05980023 0.08177652000000006 0.73045917
v -0.059552640000000004 0.04600827000000002 0.3391164
v -0.11826486 0.15028524000000001 0.36105362999999996
v 0.08832474 -0.28155644999999996 0.4460274
v 0.07436016 -0.16670303999999997 0.53292204
v -0.04798584 -0.16873037999999999 0.53292204
v -0.059815980000000005 -0.28355795999999994 0.4460274
v -0.05362812 -0.18422144999999995 0.35601489000000003
v -0.05884137 -0.19928601 0.18671499
v 0.08603469 -0.19705077 0.18671562000000003
v 0.08032437 -0.18223820999999996 0.35601489000000003
v -0.13724739 -0.04203989999999995 0.8673273
v -0.13718187 -0.02599253999999995 0.8352319500000001
v 0.17170776000000001 -0.027243089999999946 0.8352319500000001
v 0.1716435 -0.043290449999999946 0.8673273
v -0.13711698 -0.00994517999999995 0.8673273
v 0.17177328 -0.011195099999999947 0.8673273
v 0.17170776000000001 -0.027243089999999946 0.8352319500000001
v -0.13718187 -0.02599253999999995 0.8352319500000001
v -0.12936735 0.006463800000000056 0.9103613399999999
v -0.12936735 0.006463170000000045 0.7304598
v -0.11632887 -0.06026579999999995 0.7304598
v -0.11632887 -0.060265799999999946 0.9103613399999999
v 0.13973463 -0.05579720999999995 0.9103613399999999
v 0.13973463 -0.05579720999999996 0.7304598
v 0.15097761 0.011357010000000044 0.7304598
v 0.15097761 0.011356380000000056 0.9103613399999999
v -0.08211798 -0.055733579999999956 0.7304598
v -0.02474073 -0.10220804999999994 0.7304598
v -0.02448873 -0.12085478999999996 0.53292267
v -0.09596411999999999 0.016985430000000044 0.73045917
v -0.059716439999999996 0.06375096000000004 0.53292267
v -0.05980023 0.08177652000000006 0.73045917
v 0.11729277 0.020707470000000044 0.73045917
v 0.07939386 0.08420580000000005 0.73045917
v 0.07965153 0.06528627000000004 0.53292267
v 0.10541790000000001 -0.052460729999999955 0.7304598
v 0.049579740000000004 -0.11985371999999997 0.53292267
v 0.04932774 -0.10120697999999996 0.7304598
v 0.12282417 0.12779739 0.36311877
v 0.13561884 0.15236046000000003 0.36057167999999995
v 0.00819567 0.20149920000000004 0.36116136
v 0.008444519999999999 0.16604973000000003 0.36116136
v -0.11826486 0.15028524000000001 0.36105362999999996
v -0.10455291 0.12281787000000002 0.36286677
v -0.04161276 -0.15081569999999994 0.7359609599999999
v -0.02474073 -0.10220804999999994 0.7304598
v -0.08211798 -0.055733579999999956 0.7304598
v -0.12375279 -0.08017820999999994 0.7319207699999999
v -0.09596411999999999 0.016985430000000044 0.73045917
v -0.14654934 0.025002810000000045 0.7359597
v -0.05980023 0.08177652000000006 0.73045917
v -0.08948015999999999 0.12217338000000004 0.7365682800000001
v -0.058840739999999996 -0.19928601 0.18671499
v -0.04161276 -0.15081569999999994 0.7359609599999999
v -0.12375279 -0.08017820999999994 0.7319207699999999
v -0.17108595000000001 -0.10752020999999999 0.18671499
v -0.14654934 0.025002810000000045 0.7359597
v -0.1981728 0.03481884000000001 0.18671499
v -0.08948015999999999 0.12217338000000004 0.7365682800000001
v -0.11826486 0.15028524000000001 0.36105362999999996
v -0.12742821000000001 0.16126803 0.18671499
v 0.00819567 0.20149920000000004 0.36116136
v 0.00804384 0.21265965 0.18671499
v 0.13561884 0.15236046000000003 0.36057167999999995
v 0.14485653 0.16494786 0.18671499
v 0.21899241 0.040456080000000005 0.18671499
v 0.1092546 0.12376854000000005 0.73724427
v 0.16657200000000003 0.030590910000000048 0.73380132
v 0.14837697 -0.07680770999999996 0.7322187600000001
v 0.19576368 -0.10256210999999998 0.18671499
v 0.06750135 -0.14891057999999993 0.7359609599999999
v 0.08603469 -0.19705077 0.18671499
v 0.10878146999999999 0.10946313000000003 0.53264862
v 0.12282417 0.12779739 0.36311877
v 0.008444519999999999 0.16604973000000003 0.36116136
v 0.00901467 0.14092470000000004 0.53292267
v -0.10455291 0.12281787000000002 0.36286677
v -0.08723169 0.10311525000000003 0.53286282
v 0.10878146999999999 0.10946313000000003 0.53264862
v 0.00901467 0.14092470000000004 0.53292267
v 0.07436016 -0.16670303999999997 0.53292204
v -0.08723169 0.10311525000000003 0.53286282
v -0.04798584 -0.16873037999999999 0.53292204
v -0.021596399999999998 -0.05907950999999995 0.65961378
v 0.04647195 -0.057891329999999956 0.65961378
v 0.04600449 -0.17330669999999998 0.72624888
v -0.022063859999999998 -0.17449487999999996 0.72624888
v 0.04582116000000001 -0.21888719999999998 0.85148343
v -0.022247819999999998 -0.22007538 0.85148343
v 0.046005750000000005 -0.17330480999999995 0.9767192400000001
v -0.022063859999999998 -0.17449361999999993 0.9767192400000001
v 0.04647195 -0.057887549999999934 1.0433562299999999
v -0.021595769999999997 -0.05907572999999994 1.0433562299999999
v 0.04700241 0.07335846000000007 1.02021444
v -0.02106531 0.07217028000000006 1.02021444
v 0.04734954 0.15902271000000007 0.91812294
v -0.02071881 0.15783453000000008 0.91812294
v 0.04734954 0.15902145000000004 0.78485022
v -0.020719440000000002 0.15783264000000002 0.78485022
v 0.047003039999999996 0.07335531000000005 0.68275746
v -0.021065940000000002 0.07216713000000004 0.68275746
v 0.04647195 -0.057891329999999956 0.65961378
v -0.021596399999999998 -0.05907950999999995 0.65961378
v -0.29997828000000004 -0.18584307 1.1379606040960875e-17
v -0.25943841 -0.16170020999999998 0.18000675
v -0.29962044 0.04946193000000001 0.18000675
v -0.34619382 0.05702697 -3.491894813778607e-18
v -0.19467063 0.23704947 0.18000675
v -0.22548644999999998 0.27278118 -1.67030299477319e-17
v 0.00630504 0.31328892 0.18000674999999997
v 0.005667480000000001 0.36046899000000004 -2.2072359739768963e-17
v 0.2092671 0.24250779000000003 0.18000675
v 0.23910515999999998 0.27905976 -1.708748209274143e-17
v 0.31924683 0.05782455000000001 0.18000675
v 0.36559970999999997 0.06664518 -4.08084031827996e-18
v 0.28478708999999996 -0.15434432999999997 0.18000675
v 0.32596389 -0.17738217 1.0861525335815584e-17
v 0.12200832 -0.29472471 0.18000675000000005
v 0.13874238 -0.33884108999999996 2.074803281440501e-17
v -0.092925 -0.29762964000000003 0.18000675000000005
v -0.10846143000000001 -0.34218198 2.095260332664518e-17
v -0.25943841 -0.16170020999999998 0.18000675
v -0.29997828000000004 -0.18584307 1.1379606040960875e-17
v 0.04932774 -0.10120697999999996 0.7304598
v 0.06750135 -0.14891057999999993 0.7359609599999999
v 0.14837697 -0.07680770999999996 0.7322187600000001
v 0.10541790000000001 -0.052460729999999955 0.7304598
v 0.11729277 0.020707470000000044 0.73045917
v 0.16657200000000003 0.030590910000000048 0.73380132
v 0.1092546 0.12376854000000005 0.73724427
v 0.07939386 0.08420580000000005 0.73045917
v -0.022063859999999998 -0.17449487999999996 0.72624888
v -0.022247819999999998 -0.22007538 0.85148343
v -0.022063859999999998 -0.17449361999999993 0.9767192400000001
v -0.021595769999999997 -0.05907572999999994 1.0433562299999999
v -0.021065940000000002 0.07216713000000004 0.68275746
v -0.021596399999999998 -0.05907950999999995 0.65961378
v -0.02071881 0.15783453000000008 0.91812294
v -0.020719440000000002 0.15783264000000002 0.78485022
v -0.02106531 0.07217028000000006 1.02021444
v 0.04647195 -0.057887549999999934 1.0433562299999999
v 0.046005750000000005 -0.17330480999999995 0.9767192400000001
v 0.04582116000000001 -0.21888719999999998 0.85148343
v 0.04600449 -0.17330669999999998 0.72624888
v 0.04734954 0.15902271000000007 0.91812294
v 0.04700241 0.07335846000000007 1.02021444
v 0.047003039999999996 0.07335531000000005 0.68275746
v 0.04734954 0.15902145000000004 0.78485022
v 0.04647195 -0.057891329999999956 0.65961378
v 0.08566047 -0.07360856999999994 1.06363089
v 0.03397527 -0.09642779999999991 1.29159009
v 0.02152899 -0.09637676999999993 1.27372518
v 0.0597996 -0.07350398999999994 1.06363089
v 0.06946758 -0.0002589299999999676 0.52869411
v 0.11355561 0.0005109300000000324 0.52869411
v -0.03056634 -0.07261379999999994 1.06363089
v 0.00789138 -0.09632195999999993 1.27372518
v -0.0045555299999999995 -0.09627155999999991 1.29159009
v -0.05567814 -0.07251236999999994 1.06363089
v -0.08613108 -0.0029748599999999677 0.52869411
v -0.04792662 -0.004791149999999968 0.52869411
v -0.25943841 -0.16170020999999998 0.18000675
v -0.092925 -0.29762964000000003 0.18000675000000005
v 0.01064511 -0.0006470099999999864 0.2215395
v 0.12200832 -0.29472471 0.18000675000000005
v -0.29962044 0.04946193000000001 0.18000675
v 0.28478708999999996 -0.15434432999999997 0.18000675
v -0.19467063 0.23704947 0.18000675
v 0.31924683 0.05782455000000001 0.18000675
v 0.00630504 0.31328892 0.18000674999999997
v 0.2092671 0.24250779000000003 0.18000675
vt 0.750490 0.944165
vt 0.750490 0.432110
vt 0.767834 0.432110
vt 0.767834 0.432110
vt 0.767834 0.944165
vt 0.750490 0.944165
vt 0.710844 0.432110
vt 0.710844 0.944165
vt 0.693500 0.944165
vt 0.693500 0.944165
vt 0.693500 0.432110
vt 0.710844 0.432110
vt 0.395355 0.540564
vt 0.336113 0.554416
vt 0.336113 0.482563
vt 0.252336 0.482563
vt 0.252336 0.554416
vt 0.190393 0.537072
vt 0.946510 0.620804
vt 0.946510 0.432536
vt 0.963132 0.432536
vt 0.955706 0.224250
vt 0.949033 0.237016
vt 0.942359 0.224250
vt 0.984934 0.230633
vt 0.971586 0.237016
vt 0.971586 0.224250
vt 0.795089 0.432110
vt 0.795089 0.944165
vt 0.777745 0.944165
vt 0.777745 0.944165
vt 0.777745 0.432110
vt 0.663770 0.944165
vt 0.663770 0.432110
vt 0.681114 0.432110
vt 0.681114 0.432110
vt 0.681114 0.944165
vt 0.844409 0.413766
vt 0.829544 0.413766
vt 0.829544 0.224250
vt 0.829544 0.224250
vt 0.844409 0.224250
vt 0.873843 0.620804
vt 0.873843 0.432536
vt 0.890465 0.432536
vt 0.890465 0.620804
vt 0.873843 0.620804
vt 0.873843 0.620804
vt 0.890465 0.966289
vt 0.873843 0.966289
vt 0.873843 0.620804
vt 0.854453 0.620804
vt 0.854453 0.432536
vt 0.873843 0.432536
vt 0.873843 0.620804
vt 0.854453 0.620804
vt 0.854453 0.620804
vt 0.873843 0.966289
vt 0.854453 0.966289
vt 0.854453 0.620804
vt 0.963132 0.432536
vt 0.963132 0.620804
vt 0.946510 0.620804
vt 0.946510 0.620804
vt 0.963132 0.966289
vt 0.946510 0.966289
vt 0.946510 0.620804
vt 0.963132 0.620804
vt 0.963132 0.432536
vt 0.985290 0.432536
vt 0.985290 0.620804
vt 0.963132 0.620804
vt 0.963132 0.620804
vt 0.985290 0.966289
vt 0.963132 0.966289
vt 0.963132 0.620804
vt 0.927120 0.620804
vt 0.927120 0.432536
vt 0.946510 0.432536
vt 0.946510 0.620804
vt 0.927120 0.620804
vt 0.927120 0.620804
vt 0.946510 0.966289
vt 0.927120 0.966289
vt 0.927120 0.620804
vt 0.926019 0.246534
vt 0.940887 0.246534
vt 0.940887 0.413766
vt 0.940887 0.413766
vt 0.926019 0.413766
vt 0.812904 0.620804
vt 0.812904 0.432536
vt 0.835063 0.432536
vt 0.835063 0.432536
vt 0.835063 0.620804
vt 0.835063 0.620804
vt 0.835063 0.966289
vt 0.835063 0.966289
vt 0.812904 0.966289
vt 0.566527 0.995696
vt 0.965496 0.995696
vt 0.965496 0.993220
vt 0.565026 0.993220
vt 0.566527 0.995696
vt 0.565026 0.993220
vt 0.965496 0.993220
vt 0.965496 0.995696
vt 0.002482 0.324904
vt 0.037741 0.324904
vt 0.037734 0.277906
vt 0.002474 0.277906
vt 0.002482 0.324904
vt 0.002474 0.277906
vt 0.037734 0.277906
vt 0.037741 0.324904
vt 0.777745 0.944165
vt 0.767834 0.944165
vt 0.767834 0.432110
vt 0.777745 0.432110
vt 0.738099 0.432110
vt 0.750490 0.432110
vt 0.750490 0.944165
vt 0.738099 0.944165
vt 0.681114 0.432110
vt 0.693500 0.432110
vt 0.693500 0.944165
vt 0.681114 0.944165
vt 0.720755 0.432110
vt 0.720755 0.944165
vt 0.710844 0.944165
vt 0.710844 0.432110
vt 0.911826 0.413766
vt 0.901916 0.413766
vt 0.901916 0.224250
vt 0.911826 0.224250
vt 0.877136 0.224250
vt 0.892001 0.224250
vt 0.892001 0.413766
vt 0.877136 0.413766
vt 0.812197 0.224250
vt 0.829544 0.224250
vt 0.829544 0.413766
vt 0.812197 0.413766
vt 0.645613 0.204969
vt 0.645613 0.107813
vt 0.668074 0.107813
vt 0.668074 0.204969
vt 0.682291 0.204969
vt 0.682291 0.107813
vt 0.703026 0.107813
vt 0.703026 0.204969
vt 0.303756 0.771555
vt 0.334166 0.601806
vt 0.354387 0.601285
vt 0.354387 0.776755
vt 0.228120 0.600383
vt 0.249378 0.600531
vt 0.280570 0.779282
vt 0.228419 0.775756
vt 0.262251 0.554416
vt 0.262251 0.482563
vt 0.324194 0.482563
vt 0.324194 0.554416
vt 0.648413 0.782278
vt 0.646897 0.868178
vt 0.569125 0.868219
vt 0.569125 0.782278
vt 0.985486 0.413766
vt 0.970618 0.413766
vt 0.970618 0.246534
vt 0.985486 0.246534
vt 0.940887 0.413766
vt 0.940887 0.246534
vt 0.955755 0.246534
vt 0.955755 0.413766
vt 0.885544 0.114206
vt 0.885544 0.204969
vt 0.858386 0.204969
vt 0.858386 0.114206
vt 0.949113 0.114206
vt 0.949113 0.204969
vt 0.921956 0.204969
vt 0.921956 0.114206
vt 0.607194 0.107813
vt 0.638298 0.107813
vt 0.638298 0.204969
vt 0.576091 0.107813
vt 0.544987 0.204969
vt 0.544987 0.107813
vt 0.772943 0.107813
vt 0.804047 0.107813
vt 0.804047 0.204969
vt 0.741839 0.107813
vt 0.710736 0.204969
vt 0.710736 0.107813
vt 0.324740 0.763587
vt 0.331323 0.773529
vt 0.290174 0.773529
vt 0.290174 0.763587
vt 0.249025 0.773529
vt 0.255608 0.763587
vt 0.012509 0.591190
vt 0.036422 0.567229
vt 0.088254 0.567229
vt 0.088254 0.591190
vt 0.144807 0.567229
vt 0.152200 0.591190
vt 0.195976 0.567229
vt 0.218701 0.591190
vt 0.012567 0.866417
vt 0.012509 0.600840
vt 0.088254 0.600840
vt 0.087392 0.866732
vt 0.152200 0.600840
vt 0.152111 0.867046
vt 0.218701 0.600840
vt 0.218701 0.782278
vt 0.218009 0.868256
vt 0.290321 0.782278
vt 0.289837 0.868380
vt 0.361941 0.782278
vt 0.361134 0.868390
vt 0.430434 0.866789
vt 0.361941 0.600840
vt 0.430998 0.600840
vt 0.497505 0.600840
vt 0.496740 0.866711
vt 0.569125 0.600840
vt 0.567546 0.866365
vt 0.535616 0.204861
vt 0.442397 0.204861
vt 0.442397 0.156563
vt 0.535616 0.156563
vt 0.442397 0.108264
vt 0.535616 0.108264
vt 0.242426 0.336381
vt 0.294458 0.316556
vt 0.262251 0.472653
vt 0.346490 0.336381
vt 0.324194 0.472653
vt 0.012116 0.927328
vt 0.012116 0.896589
vt 0.082841 0.896589
vt 0.082841 0.927328
vt 0.153577 0.896589
vt 0.153577 0.927328
vt 0.224314 0.896589
vt 0.224314 0.927328
vt 0.295041 0.896589
vt 0.295041 0.927328
vt 0.365762 0.896589
vt 0.365762 0.927328
vt 0.436493 0.896589
vt 0.436493 0.927328
vt 0.507231 0.896589
vt 0.507231 0.927328
vt 0.577963 0.896589
vt 0.577963 0.927328
vt 0.648686 0.896589
vt 0.648686 0.927328
vt 0.008442 0.087295
vt 0.008442 0.008087
vt 0.128258 0.008087
vt 0.128258 0.087295
vt 0.233247 0.008087
vt 0.233247 0.087295
vt 0.345117 0.008087
vt 0.345117 0.087295
vt 0.460501 0.008087
vt 0.460501 0.087295
vt 0.575929 0.008087
vt 0.575929 0.087295
vt 0.687928 0.008087
vt 0.687928 0.087295
vt 0.793130 0.008087
vt 0.793130 0.087295
vt 0.888370 0.008087
vt 0.888370 0.087295
vt 0.992538 0.008087
vt 0.992538 0.087295
vt 0.550072 0.567229
vt 0.569125 0.591190
vt 0.497505 0.591190
vt 0.493789 0.567229
vt 0.433785 0.567229
vt 0.430998 0.591190
vt 0.361941 0.591190
vt 0.384006 0.567229
vt 0.242623 0.254094
vt 0.232517 0.185908
vt 0.265348 0.125298
vt 0.331006 0.100048
vt 0.366361 0.299550
vt 0.298180 0.299550
vt 0.432024 0.185908
vt 0.419394 0.254094
vt 0.396669 0.125298
vt 0.117324 0.301687
vt 0.051642 0.276423
vt 0.016274 0.215791
vt 0.028903 0.147584
vt 0.218374 0.218321
vt 0.183006 0.278948
vt 0.152692 0.104636
vt 0.205745 0.150109
vt 0.084480 0.104636
vt 0.835063 0.620804
vt 0.835063 0.432536
vt 0.854453 0.432536
vt 0.854453 0.620804
vt 0.854453 0.966289
vt 0.835063 0.966289
vt 0.907730 0.620804
vt 0.907730 0.432536
vt 0.927120 0.432536
vt 0.927120 0.620804
vt 0.927120 0.966289
vt 0.907730 0.966289
vt 0.385927 0.487023
vt 0.367599 0.390979
vt 0.510163 0.414248
vt 0.414695 0.305291
vt 0.461269 0.549346
vt 0.510276 0.269284
vt 0.559045 0.549346
vt 0.605618 0.305292
vt 0.634386 0.487023
vt 0.652714 0.390979
vn 0.702123 0.4041969999999999 -0.586216
vn 0.702116 0.4042009999999999 -0.586221
vn 0.709377 -0.46838599999999997 0.526687
vn 0.709377 -0.46838599999999997 0.526687
vn 0.709368 -0.46839099999999995 0.526694
vn 0.702123 0.4041969999999999 -0.586216
vn -0.892461 0.23802699999999996 -0.383218
vn -0.453415 0.53059 -0.716162
vn -0.703754 -0.46895299999999995 0.533679
vn -0.703754 -0.46895299999999995 0.533679
vn -0.703748 -0.46895599999999993 0.533684
vn -0.892461 0.23802699999999996 -0.383218
vn -0.996153 0.084167 0.024400999999999996
vn -0.996153 0.084167 0.024400999999999996
vn -0.996153 0.084167 0.024400999999999996
vn 0.994446 0.102346 0.024535999999999992
vn 0.994446 0.102346 0.024535999999999992
vn 0.994446 0.102346 0.024535999999999992
vn -0.409286 0.893517 0.18469299999999994
vn -0.847526 0.466472 0.25318699999999994
vn 0.492394 0.86981 0.031297999999999944
vn 0.999992 -0.004053 -4.999999999999752E-06
vn 0.999992 -0.004053 -4.999999999999752E-06
vn 0.999992 -0.004053 -4.999999999999752E-06
vn -0.999992 0.004064 -2.488482295867422E-19
vn -0.999992 0.004064 -2.488482295867422E-19
vn -0.999992 0.004064 -2.488482295867422E-19
vn -0.708493 0.48061699999999996 -0.516764
vn -0.708487 0.48061999999999994 -0.516769
vn -0.700696 -0.3918559999999999 0.596216
vn -0.700696 -0.3918559999999999 0.596216
vn -0.700688 -0.39186099999999996 0.596222
vn 0.89256 0.33015 -0.307143
vn 0.439004 0.581797 -0.684681
vn 0.706978 -0.39225399999999994 0.588489
vn 0.706978 -0.39225399999999994 0.588489
vn 0.706974 -0.39225699999999997 0.588491
vn -0.896687 -0.04967199999999997 0.439869
vn 0.552076 0.02814000000000005 0.833319
vn -0.559662 -0.03177399999999995 0.828112
vn -0.559662 -0.03177399999999995 0.828112
vn -0.888468 -0.05050099999999997 0.456151
vn -0.486044 0.870203 0.08066599999999995
vn -0.903856 0.416144 -0.09934300000000003
vn 0.362405 0.904845 0.22342299999999995
vn 0.877978 0.440467 0.18746799999999997
vn -0.486044 0.870203 0.08066599999999995
vn -0.486044 0.870203 0.08066599999999995
vn 0.433624 0.887228 0.15747299999999995
vn -0.895329 0.44251 0.050699999999999974
vn -0.486044 0.870203 0.08066599999999995
vn -0.887001 -0.439326 -0.14220399999999997
vn -0.401586 -0.900807 -0.16515499999999994
vn -0.903856 0.416144 -0.09934300000000003
vn -0.486044 0.870203 0.08066599999999995
vn -0.887001 -0.439326 -0.14220399999999997
vn -0.887001 -0.439326 -0.14220399999999997
vn -0.895329 0.44251 0.050699999999999974
vn -0.442775 -0.887168 -0.12993799999999994
vn -0.887001 -0.439326 -0.14220399999999997
vn 0.492394 0.86981 0.031297999999999944
vn 0.894436 0.446199 -0.029842000000000028
vn -0.409286 0.893517 0.18469299999999994
vn -0.409286 0.893517 0.18469299999999994
vn 0.45923 0.880858 0.11488199999999994
vn -0.884186 0.451955 0.11811299999999997
vn -0.409286 0.893517 0.18469299999999994
vn 0.894436 0.446199 -0.029842000000000028
vn 0.492394 0.86981 0.031297999999999944
vn 0.859536 -0.465988 -0.20988699999999996
vn 0.4076 -0.900939 -0.14889999999999995
vn 0.894436 0.446199 -0.029842000000000028
vn 0.894436 0.446199 -0.029842000000000028
vn 0.88681 -0.453992 -0.08636699999999997
vn 0.45923 0.880858 0.11488199999999994
vn 0.894436 0.446199 -0.029842000000000028
vn -0.89285 -0.444458 0.07263600000000003
vn -0.489125 -0.872121 0.012683000000000054
vn -0.847526 0.466472 0.25318699999999994
vn -0.409286 0.893517 0.18469299999999994
vn -0.89285 -0.444458 0.07263600000000003
vn -0.89285 -0.444458 0.07263600000000003
vn -0.884186 0.451955 0.11811299999999997
vn -0.466687 -0.880139 -0.08694299999999995
vn -0.89285 -0.444458 0.07263600000000003
vn -0.002021 -0.49912799999999996 0.866526
vn 0.003442 0.850644 0.52573
vn 0.003442 0.850643 0.525732
vn 0.003442 0.850643 0.525732
vn -0.004041 -0.998255 0.05891700000000006
vn 0.877978 0.440467 0.18746799999999997
vn 0.362405 0.904845 0.22342299999999995
vn 0.88808 -0.431647 0.15809600000000001
vn 0.88808 -0.431647 0.15809600000000001
vn 0.464718 -0.884509 -0.040999999999999946
vn 0.464718 -0.884509 -0.040999999999999946
vn 0.895911 -0.443988 -0.014760999999999972
vn 0.895911 -0.443988 -0.014760999999999972
vn 0.433624 0.887228 0.15747299999999995
vn -1 1E-06 -6.123233995736766E-23
vn -1 1E-05 -6.123233995736766E-22
vn -1 1E-06 -6.123233995736766E-23
vn -1 -8E-06 4.898587196589413E-22
vn 1 -1E-06 6.123233995736766E-23
vn 1 8E-06 -4.898587196589413E-22
vn 1 -1E-06 6.123233995736766E-23
vn 1 -1E-05 6.123233995736766E-22
vn -0.988045 -0.15416 -0.0010699999999999904
vn -0.988054 -0.154102 -0.0010259999999999905
vn -0.988045 -0.15416 -0.0010699999999999904
vn -0.988036 -0.154218 -0.0011139999999999904
vn 0.988045 0.15416 0.0010699999999999904
vn 0.988036 0.154218 0.0011139999999999904
vn 0.988045 0.15416 0.0010699999999999904
vn 0.988054 0.154102 0.0010259999999999905
vn -0.700696 -0.3918559999999999 0.596216
vn 0.709368 -0.46839099999999995 0.526694
vn 0.709377 -0.46838599999999997 0.526687
vn -0.700688 -0.39186099999999996 0.596222
vn -0.708493 0.48061699999999996 -0.516764
vn 0.702116 0.4042009999999999 -0.586221
vn 0.702123 0.4041969999999999 -0.586216
vn -0.708487 0.48061999999999994 -0.516769
vn 0.706978 -0.39225399999999994 0.588489
vn -0.703748 -0.46895599999999993 0.533684
vn -0.703754 -0.46895299999999995 0.533679
vn 0.706974 -0.39225699999999997 0.588491
vn 0.439004 0.581797 -0.684681
vn 0.89256 0.33015 -0.307143
vn -0.453415 0.53059 -0.716162
vn -0.892461 0.23802699999999996 -0.383218
vn 0.561422 -0.04050999999999995 0.826537
vn 0.902564 -0.06510299999999997 0.425606
vn 0.895826 -0.06347999999999997 0.439849
vn -0.549488 0.03678700000000005 0.834691
vn -0.549488 0.03678700000000005 0.834691
vn -0.883334 0.05911400000000003 0.465002
vn -0.89062 0.06079200000000003 0.450667
vn 0.561422 -0.04050999999999995 0.826537
vn 0.891367 0.04679400000000003 0.45086
vn -0.559662 -0.03177399999999995 0.828112
vn 0.552076 0.02814000000000005 0.833319
vn 0.899588 0.04592000000000003 0.434319
vn 0.923369 -0.383322 0.021312000000000025
vn 0.945339 -0.32453 0.03184000000000002
vn 0.923369 -0.383322 0.021312000000000025
vn 0.897659 -0.440561 0.010697000000000028
vn -0.910725 -0.412461 0.021347000000000026
vn -0.934469 -0.356044 -0.0003669999999999782
vn -0.910725 -0.412461 0.021347000000000026
vn -0.88314 -0.467137 0.04297200000000003
vn -0.838935 0.542576 -0.042408000000000036
vn -0.791902 0.607803 -0.058873000000000036
vn -0.838935 0.542576 -0.042408000000000036
vn -0.880316 0.473693 -0.025658000000000028
vn 0.836175 0.546865 -0.04183600000000003
vn 0.800789 0.596507 -0.054014000000000034
vn 0.836175 0.546865 -0.04183600000000003
vn 0.868329 0.495111 -0.02949700000000003
vn 0.009073 -0.603249 0.797501
vn 0.009985 -0.602547 0.798021
vn 0.009073 -0.603249 0.797501
vn 0.00816 -0.60395 0.79698
vn 0.015057 -0.996016 0.08789800000000006
vn 0.015367 -0.995989 0.08815100000000005
vn 0.015057 -0.996016 0.08789800000000006
vn 0.014747 -0.996043 0.08764400000000006
vn -0.004041 -0.998255 0.05891700000000006
vn 0 -6.123233995736766E-17 -1
vn -1E-06 -6.123233995736766E-17 -1
vn -0.002021 -0.49912799999999996 0.866526
vn 0.003442 0.850643 0.525732
vn 0.003442 0.850644 0.52573
vn -1E-06 -6.123233995736766E-17 -1
vn 0 -6.123233995736766E-17 -1
vn -0.981442 -0.19176 -9.99999999988258E-07
vn -0.981441 -0.191765 1.1742219671924609E-17
vn -0.981442 -0.19176 -9.99999999988258E-07
vn -0.981443 -0.191755 -2.9999999999882585E-06
vn 0.986272 -0.16513 1.0111296297160122E-17
vn 0.986272 -0.165129 1.0111235064820165E-17
vn 0.986272 -0.16513 1.0111296297160122E-17
vn 0.986272 -0.165131 -9.999999999898885E-07
vn 0.85342 0.515181 0.07913899999999997
vn 0.627763 0.775034 -0.07235900000000005
vn 0.904774 0.405494 0.13022799999999998
vn 0.984404 -0.042889999999999984 0.170616
vn 0.976661 -0.162183 0.14082
vn 0.872314 -0.486889 0.04480000000000003
vn -0.971472 -0.189715 0.142306
vn -0.857699 -0.511915 0.04791400000000003
vn -0.982689 -0.07029599999999998 0.171409
vn -0.916465 0.378438 0.12990899999999997
vn -0.868972 0.48852 0.07896699999999997
vn -0.654271 0.752835 -0.07189800000000005
vn 0.009937 0.04198900000000006 0.999069
vn 0.037 0.08399300000000005 0.995779
vn 0.00634 0.027985000000000062 0.999588
vn -0.008842 0.020509000000000062 0.999751
vn -0.004683 0.030825000000000064 0.999514
vn -0.008514 0.06162500000000006 0.998063
vn 0.036022 0.07300800000000006 0.996681
vn 0.071092 0.08777000000000006 0.993601
vn 0.034546 0.05069200000000006 0.998117
vn 0.046115 0.01631800000000006 0.998803
vn 0.078905 -0.02157199999999994 0.996649
vn 0.104595 -0.04692699999999994 0.993407
vn 0.104001 -0.06273799999999995 0.992597
vn 0.108736 -0.07006899999999995 0.991598
vn -0.641161 -0.762093 0.09015400000000004
vn -0.652011 -0.753211 0.08692200000000004
vn -0.788213 -0.607821 0.09630500000000004
vn -0.906272 -0.411339 0.09732600000000002
vn -0.994627 0.03660800000000001 0.096832
vn -0.939323 0.330099 0.09331599999999998
vn -0.871538 0.480862 0.09588799999999997
vn -0.748394 0.657102 0.09012699999999996
vn -0.561784 0.823849 0.07531799999999994
vn -0.130831 0.988936 0.06992299999999994
vn 0.11772 0.99041 0.07231399999999995
vn 0.688734 0.719608 0.08837499999999995
vn 0.629886 0.771534 0.08932799999999996
vn 0.978806 0.18135 0.09514099999999999
vn 0.849208 0.518731 0.09881299999999997
vn 0.948835 0.299795 0.09917199999999998
vn 0.922077 -0.374646 0.09703100000000003
vn 0.80758 -0.581856 0.09621400000000004
vn 0.657521 -0.74799 0.09042700000000004
vn 0.649986 -0.754823 0.08809100000000004
vn 0.30544 0.942956 0.13243999999999995
vn 0.312606 0.941261 0.12768799999999994
vn 0.090699 0.985879 0.14076999999999995
vn -0.145757 0.978443 0.14630499999999994
vn -0.35706 0.923512 0.14012199999999994
vn -0.361922 0.921077 0.14362799999999995
vn 0.002944 0.0006240000000000612 0.999995
vn 0.001187 0.00025100000000006123 0.999999
vn 0.00079 0.00024000000000006124 1
vn -0.000287 4.800000000006123E-05 1
vn -3E-06 0.00021800000000006124 1
vn 0.005081 -0.29099900000000006 -0.95671
vn 0.000939 -0.05376300000000006 -0.998553
vn 0.011926 -0.683012 -0.73031
vn 0.014628 -0.837803 -0.545776
vn 0.017329 -0.992573 -0.12040899999999995
vn 0.017326 -0.992572 0.12041700000000005
vn 0.014625 -0.837801 0.545779
vn 0.011923 -0.683013 0.730309
vn 0.00508 -0.29100499999999996 0.956708
vn 0.000938 -0.05377299999999994 0.998553
vn -0.006844 0.39205100000000004 0.919918
vn -0.010485 0.600644 0.799448
vn -0.015564 0.89156 0.45263499999999995
vn -0.017004 0.973907 0.22631099999999996
vn -0.017006 0.973903 -0.22632800000000006
vn -0.015568 0.891556 -0.45264200000000004
vn -0.010487 0.600647 -0.799445
vn -0.006844 0.39205999999999996 -0.919914
vn 0.000939 -0.05376300000000006 -0.998553
vn 0.005081 -0.29099900000000006 -0.95671
vn -0.885085 -0.391415 0.25183
vn -0.765808 -0.59171 0.2518290000000001
vn -0.966987 0.038980000000000015 0.251828
vn -0.929612 0.269079 0.251829
vn -0.715701 0.651425 0.25183099999999997
vn -0.539163 0.803669 0.25183199999999994
vn -0.129529 0.959064 0.25183099999999997
vn 0.103567 0.962214 0.25182999999999994
vn 0.517251 0.817945 0.25182899999999997
vn 0.697837 0.670526 0.25183099999999997
vn 0.922 0.294103 0.251832
vn 0.965579 0.06509800000000002 0.251831
vn 0.895341 -0.367351 0.251829
vn 0.781521 -0.570796 0.2518250000000001
vn 0.44974 -0.856923 0.25182600000000005
vn 0.231778 -0.939608 0.25182600000000005
vn -0.2063 -0.945528 0.25182600000000005
vn -0.426415 -0.868765 0.2518270000000001
vn -0.765808 -0.59171 0.2518290000000001
vn -0.885085 -0.391415 0.25183
vn -0.033388 0.06362300000000005 0.997415
vn -0.041963 0.09866300000000006 0.994236
vn -0.042839 0.03250600000000006 0.998553
vn -0.031121 0.017297000000000062 0.999366
vn -0.070979 -0.035528999999999936 0.996845
vn -0.060318 -0.036575999999999935 0.997509
vn -0.089607 -0.07238799999999994 0.993343
vn -0.125527 -0.07492099999999995 0.989257
vn -0.999992 0.004046 -1.0000000000002477E-06
vn -0.999992 0.00404 -1.0000000000002473E-06
vn -0.999992 0.004047 -1.0000000000002477E-06
vn -0.999992 0.004047 -2.478072798074669E-19
vn -0.999992 0.004044 9.999999999997524E-07
vn -0.999992 0.004045 -4.000000000000247E-06
vn -0.999992 0.004043 -2.4756235044763745E-19
vn -0.999992 0.004042 2.9999999999997527E-06
vn -0.999992 0.004042 -4.000000000000247E-06
vn 0.999992 -0.004042 -9.999999999997524E-07
vn 0.999992 -0.004034 -5.999999999999753E-06
vn 0.999992 -0.004037 -3.9999999999997525E-06
vn 0.999992 -0.004045 2.476848151275522E-19
vn 0.999992 -0.004046 1.0000000000002477E-06
vn 0.999992 -0.004046 3.000000000000248E-06
vn 0.999992 -0.004046 2.4774604746750957E-19
vn 0.999992 -0.004044 -9.999999999997524E-07
vn 0.999992 -0.004046 2.0000000000002477E-06
vn 0.464718 -0.884509 -0.040999999999999946
vn 0.88808 -0.431647 0.15809600000000001
vn -0.401586 -0.900807 -0.16515499999999994
vn -0.887001 -0.439326 -0.14220399999999997
vn -0.442775 -0.887168 -0.12993799999999994
vn 0.895911 -0.443988 -0.014760999999999972
vn 0.4076 -0.900939 -0.14889999999999995
vn 0.859536 -0.465988 -0.20988699999999996
vn -0.489125 -0.872121 0.012683000000000054
vn -0.89285 -0.444458 0.07263600000000003
vn -0.466687 -0.880139 -0.08694299999999995
vn 0.88681 -0.453992 -0.08636699999999997
vn -0.112508 -0.06698799999999995 0.99139
vn -0.043108 -0.12361199999999994 0.991394
vn 2.2E-05 6.400000000006123E-05 1
vn 0.046452 -0.12242399999999995 0.99139
vn -0.129313 0.02102000000000006 0.991381
vn 0.114341 -0.06395199999999994 0.991381
vn -0.085602 0.09928200000000005 0.99137
vn 0.128777 0.02452000000000006 0.99137
vn -0.001767 0.13113000000000005 0.991364
vn 0.082927 0.10159300000000006 0.991364
g 01
f 1/1/1 2/2/2 3/3/3
f 4/4/4 5/5/5 6/6/6
f 7/7/7 8/8/8 9/9/9
f 10/10/10 11/11/11 12/12/12
f 13/13/13 14/14/14 15/15/15
f 16/16/16 17/17/17 18/18/18
f 19/19/19 20/20/20 21/21/21
f 22/22/22 23/23/23 24/24/24
f 25/25/25 26/26/26 27/27/27
f 28/28/28 29/29/29 30/30/30
f 31/31/31 32/32/32 28/28/28
f 33/33/33 34/34/34 35/35/35
f 36/36/36 37/37/37 33/33/33
f 38/38/38 39/39/39 40/40/40
f 41/41/41 42/42/42 38/38/38
f 43/43/43 44/44/44 45/45/45
f 45/45/45 46/46/46 47/47/47
f 48/48/48 46/46/46 49/49/49
f 49/49/49 50/50/50 51/51/51
f 52/52/52 53/53/53 54/54/54
f 54/54/54 55/55/55 56/56/56
f 57/57/57 55/55/55 58/58/58
f 58/58/58 59/59/59 60/60/60
f 61/61/61 62/62/62 63/63/63
f 64/64/64 62/62/62 65/65/65
f 65/65/65 66/66/66 67/67/67
f 68/68/68 69/69/69 70/70/70
f 70/70/70 71/71/71 72/72/72
f 73/73/73 71/71/71 74/74/74
f 74/74/74 75/75/75 76/76/76
f 77/77/77 78/78/78 79/79/79
f 79/79/79 80/80/80 81/81/81
f 82/82/82 80/80/80 83/83/83
f 83/83/83 84/84/84 85/85/85
f 86/86/86 87/87/87 88/88/88
f 89/89/89 90/90/90 86/86/86
f 91/91/91 92/92/92 93/93/93
f 94/94/94 95/95/95 91/91/91
f 91/91/91 96/96/96 97/97/97
f 98/98/98 99/99/99 91/91/91
f 100/100/100 101/101/101 102/102/102
f 102/102/102 103/103/103 100/100/100
f 104/104/104 105/105/105 106/106/106
f 106/106/106 107/107/107 104/104/104
f 108/108/108 109/109/109 110/110/110
f 110/110/110 111/111/111 108/108/108
f 112/112/112 113/113/113 114/114/114
f 114/114/114 115/115/115 112/112/112
f 116/116/116 117/117/117 118/118/118
f 118/118/118 119/119/119 116/116/116
f 120/120/120 121/121/121 122/122/122
f 122/122/122 123/123/123 120/120/120
f 124/124/124 125/125/125 126/126/126
f 126/126/126 127/127/127 124/124/124
f 128/128/128 129/129/129 130/130/130
f 130/130/130 131/131/131 128/128/128
f 132/132/132 133/133/133 134/134/134
f 134/134/134 135/135/135 132/132/132
f 136/136/136 137/137/137 138/138/138
f 138/138/138 139/139/139 136/136/136
f 140/140/140 141/141/141 142/142/142
f 142/142/142 143/143/143 140/140/140
f 144/144/144 145/145/145 146/146/146
f 146/146/146 147/147/147 144/144/144
f 148/148/148 149/149/149 150/150/150
f 150/150/150 151/151/151 148/148/148
f 152/152/152 153/153/153 154/154/154
f 154/154/154 155/155/155 152/152/152
f 156/156/156 157/157/157 158/158/158
f 158/158/158 159/159/159 156/156/156
f 160/160/160 161/161/161 162/162/162
f 162/162/162 163/163/163 160/160/160
f 164/164/164 165/165/165 166/166/166
f 166/166/166 167/167/167 164/164/164
f 168/168/168 169/169/169 170/170/170
f 170/170/170 171/171/171 168/168/168
f 172/172/172 173/173/173 174/174/174
f 174/174/174 175/175/175 172/172/172
f 176/176/176 177/177/177 178/178/178
f 178/178/178 179/179/179 176/176/176
f 180/180/180 181/181/181 182/182/182
f 182/182/182 183/183/183 180/180/180
f 184/184/184 185/185/185 186/186/186
f 184/184/184 186/186/186 187/187/187
f 186/186/186 188/188/188 187/187/187
f 188/188/188 189/189/189 187/187/187
f 190/190/190 191/191/191 192/192/192
f 190/190/190 192/192/192 193/193/193
f 192/192/192 194/194/194 193/193/193
f 194/194/194 195/195/195 193/193/193
f 196/196/196 197/197/197 198/198/198
f 198/198/198 199/199/199 196/196/196
f 199/199/199 198/198/198 200/200/200
f 200/200/200 201/201/201 199/199/199
f 202/202/202 203/203/203 204/204/204
f 204/204/204 205/205/205 202/202/202
f 205/205/205 204/204/204 206/206/206
f 206/206/206 207/207/207 205/205/205
f 207/207/207 206/206/206 208/208/208
f 208/208/208 209/209/209 207/207/207
f 210/210/210 211/211/211 212/212/212
f 212/212/212 213/213/213 210/210/210
f 213/213/213 212/212/212 214/214/214
f 214/214/214 215/215/215 213/213/213
f 215/215/215 214/214/214 216/216/216
f 216/216/216 217/217/217 215/215/215
f 217/217/217 218/218/218 215/215/215
f 218/218/218 217/217/217 219/219/219
f 219/219/219 220/220/220 218/218/218
f 220/220/220 219/219/219 221/221/221
f 221/221/221 222/222/222 220/220/220
f 223/223/223 222/222/222 221/221/221
f 221/221/221 224/224/224 225/225/225
f 225/225/225 223/223/223 221/221/221
f 223/223/223 225/225/225 226/226/226
f 226/226/226 227/227/227 223/223/223
f 227/227/227 226/226/226 228/228/228
f 228/228/228 229/229/229 227/227/227
f 230/230/230 231/231/231 232/232/232
f 232/232/232 233/233/233 230/230/230
f 233/233/233 232/232/232 234/234/234
f 234/234/234 235/235/235 233/233/233
f 236/236/236 237/237/237 238/238/238
f 237/237/237 239/239/239 238/238/238
f 239/239/239 240/240/240 238/238/238
f 241/241/241 242/242/242 243/243/243
f 243/243/243 244/244/244 241/241/241
f 244/244/244 243/243/243 245/245/245
f 245/245/245 246/246/246 244/244/244
f 246/246/246 245/245/245 247/247/247
f 247/247/247 248/248/248 246/246/246
f 248/248/248 247/247/247 249/249/249
f 249/249/249 250/250/250 248/248/248
f 250/250/250 249/249/249 251/251/251
f 251/251/251 252/252/252 250/250/250
f 252/252/252 251/251/251 253/253/253
f 253/253/253 254/254/254 252/252/252
f 254/254/254 253/253/253 255/255/255
f 255/255/255 256/256/256 254/254/254
f 256/256/256 255/255/255 257/257/257
f 257/257/257 258/258/258 256/256/256
f 258/258/258 257/257/257 259/259/259
f 259/259/259 260/260/260 258/258/258
f 261/261/261 262/262/262 263/263/263
f 263/263/263 264/264/264 261/261/261
f 264/264/264 263/263/263 265/265/265
f 265/265/265 266/266/266 264/264/264
f 266/266/266 265/265/265 267/267/267
f 267/267/267 268/268/268 266/266/266
f 268/268/268 267/267/267 269/269/269
f 269/269/269 270/270/270 268/268/268
f 270/270/270 269/269/269 271/271/271
f 271/271/271 272/272/272 270/270/270
f 272/272/272 271/271/271 273/273/273
f 273/273/273 274/274/274 272/272/272
f 274/274/274 273/273/273 275/275/275
f 275/275/275 276/276/276 274/274/274
f 276/276/276 275/275/275 277/277/277
f 277/277/277 278/278/278 276/276/276
f 278/278/278 277/277/277 279/279/279
f 279/279/279 280/280/280 278/278/278
f 281/281/281 282/282/282 283/283/283
f 283/283/283 284/284/284 281/281/281
f 285/285/285 284/284/284 283/283/283
f 283/283/283 286/286/286 285/285/285
f 285/285/285 286/286/286 287/287/287
f 287/287/287 288/288/288 285/285/285
f 289/289/289 290/290/290 291/291/291
f 292/292/292 289/289/289 291/291/291
f 293/293/293 294/294/294 289/289/289
f 292/292/292 293/293/293 289/289/289
f 292/292/292 295/295/295 293/293/293
f 295/295/295 296/296/296 293/293/293
f 292/292/292 297/297/297 295/295/295
f 298/298/298 299/299/299 300/300/300
f 301/301/301 298/298/298 300/300/300
f 302/302/302 303/303/303 298/298/298
f 301/301/301 302/302/302 298/298/298
f 301/301/301 304/304/304 302/302/302
f 304/304/304 305/305/305 302/302/302
f 301/301/301 306/306/306 304/304/304
f 307/307/307 308/308/308 309/309/309
f 309/309/309 310/310/310 307/307/307
f 307/307/307 310/310/310 311/311/311
f 311/311/311 312/312/312 307/307/307
f 313/313/313 314/314/314 315/315/315
f 315/315/315 316/316/316 313/313/313
f 313/313/313 316/316/316 317/317/317
f 317/317/317 318/318/318 313/313/313
f 319/319/319 320/320/320 321/321/321
f 321/321/321 320/320/320 322/322/322
f 321/321/321 323/323/323 319/319/319
f 321/321/321 322/322/322 324/324/324
f 321/321/321 325/325/325 323/323/323
f 321/321/321 324/324/324 326/326/326
f 321/321/321 327/327/327 325/325/325
f 321/321/321 326/326/326 328/328/328
f 321/321/321 328/328/328 327/327/327
