v -0.41433818800000005 0.11898854000000003 0.596530396
v -0.414317046 0.11904037200000005 0.4789290440000001
v -0.378140356 0.20794316400000007 0.596533124
v -0.378118532 0.20799431400000004 0.47893177200000003
v -0.378140356 0.20794316400000007 0.596533124
v -0.414317046 0.11904037200000005 0.4789290440000001
v -0.414317046 0.11904037200000005 0.4789290440000001
v -0.378140356 0.20794316400000007 0.596533124
v -0.41433818800000005 0.11898854000000003 0.596530396
v -0.378118532 0.20799431400000004 0.47893177200000003
vt 0.508709 0.782135
vt 0.508710 0.732142
vt 0.489196 0.782162
vt 0.489195 0.732150
vt 0.489196 0.782162
vt 0.508710 0.732142
vt 0.508710 0.732142
vt 0.489196 0.782162
vt 0.508709 0.782135
vt 0.489195 0.732150
vn -0.926247 0.376918 -1.0000000000230795E-06
vn -0.926246 0.37692 -2.0000000000230794E-06
vn -0.926246 0.37692 -2.0000000000230794E-06
vn -0.926245 0.376921 -3.00000000002308E-06
vn 0.926247 -0.376918 1.0000000000230795E-06
vn 0.926247 -0.376918 1.0000000000230795E-06
vn 0.926245 -0.376921 3.00000000002308E-06
vn 0.926245 -0.376921 3.00000000002308E-06
vn 0.926247 -0.376918 1.0000000000230795E-06
vn 0.926245 -0.376921 3.00000000002308E-06
g kran
f 7/7/7 10/10/10 8/8/8
f 5/5/5 9/9/9 6/6/6
f 3/3/3 4/4/4 2/2/2
f 2/2/2 1/1/1 3/3/3
