v -0.022905 -0.04204999999999999 0.071794
v -0.022905 -0.04431 0.045966
v 0.052037 -0.04431 0.045966
v 0.052037 -0.04431 0.045966
v 0.052037 -0.04204999999999999 0.071794
v -0.022905 -0.04204999999999999 0.071794
v -0.046629 -0.023024999999999983 0.271852
v -0.062598 -0.023024999999999983 0.290118
v -0.153605 -0.023025 -0.010232999999999999
v -0.13534 -0.023025000000000004 -0.028498
v -0.13534 0.023024999999999997 -0.028498
v -0.153605 0.023025 -0.010233000000000003
v -0.062598 0.023025000000000018 0.290118
v -0.046629 0.023025000000000018 0.271852
v -0.153605 0.023025 -0.010233000000000003
v -0.153605 -0.023025 -0.010232999999999999
v -0.062598 -0.023024999999999983 0.290118
v -0.062598 0.023025000000000018 0.290118
v 0.214563 0.031974 0.0013139999999999981
v -0.212206 0.031974 0.000610999999999998
v -0.212206 -0.031975 0.001314000000000002
v 0.214563 -0.031975 0.001314000000000002
v 0.044004 -0.023024999999999983 0.271852
v 0.135073 -0.023025000000000004 -0.028498
v 0.153338 -0.023025 -0.010232999999999999
v 0.062269 -0.023024999999999983 0.290118
v 0.135073 0.023024999999999997 -0.028498
v 0.044004 0.023025000000000018 0.271852
v 0.062269 0.023025000000000018 0.290118
v 0.153338 0.023025 -0.010233000000000003
v 0.153338 0.023025 -0.010233000000000003
v 0.062269 0.023025000000000018 0.290118
v 0.062269 -0.023024999999999983 0.290118
v 0.153338 -0.023025 -0.010232999999999999
v -0.022905 -0.020811999999999997 0.056923
v -0.022905 -0.04204999999999999 0.071794
v 0.052037 -0.04204999999999999 0.071794
v 0.052037 -0.020811999999999997 0.056923
v -0.022905 -0.04431 0.045966
v -0.022905 -0.020811999999999997 0.056923
v 0.052037 -0.020811999999999997 0.056923
v 0.052037 -0.04431 0.045966
v -0.076157 -0.114612 -0.008056999999999993
v -0.059677 -0.04828899999999996 0.623593
v -0.059677 0.031932000000000044 0.623593
v -0.076157 0.114611 -0.008057000000000007
v -0.02009 -0.114612 -0.008056999999999993
v -0.02009 -0.04828899999999996 0.623593
v -0.059677 -0.04828899999999996 0.623593
v -0.076157 -0.114612 -0.008056999999999993
v -0.02009 0.114611 -0.008057000000000007
v -0.02009 0.031932000000000044 0.623593
v -0.02009 -0.04828899999999996 0.623593
v -0.02009 -0.114612 -0.008056999999999993
v -0.076157 0.114611 -0.008057000000000007
v -0.059677 0.031932000000000044 0.623593
v -0.02009 0.031932000000000044 0.623593
v -0.02009 0.114611 -0.008057000000000007
v -0.059677 0.031932000000000044 0.623593
v -0.059677 -0.04828899999999996 0.623593
v -0.02009 -0.04828899999999996 0.623593
v -0.02009 0.031932000000000044 0.623593
v 0.021805 -0.114612 -0.008056999999999993
v 0.021805 -0.04828899999999996 0.623593
v 0.021805 0.031932000000000044 0.623593
v 0.021805 0.114611 -0.008057000000000007
v 0.074332 -0.114612 -0.008056999999999993
v 0.061392 -0.04828899999999996 0.623593
v 0.021805 -0.04828899999999996 0.623593
v 0.021805 -0.114612 -0.008056999999999993
v 0.074332 0.114611 -0.008057000000000007
v 0.061392 0.031932000000000044 0.623593
v 0.061392 -0.04828899999999996 0.623593
v 0.074332 -0.114612 -0.008056999999999993
v 0.021805 0.114611 -0.008057000000000007
v 0.021805 0.031932000000000044 0.623593
v 0.061392 0.031932000000000044 0.623593
v 0.074332 0.114611 -0.008057000000000007
v 0.021805 0.031932000000000044 0.623593
v 0.021805 -0.04828899999999996 0.623593
v 0.061392 -0.04828899999999996 0.623593
v 0.061392 0.031932000000000044 0.623593
v -0.266211 -0.06395699999999988 1.990897
v 0.266211 -0.06395699999999988 1.990897
v 0.266211 -0.04154299999999987 1.991
v -0.266211 -0.04154299999999987 1.991
v -0.013236 0.005991999999999999 -0.012215
v -0.013236 0.005992000000000131 2.135033
v 0.012591 0.005992000000000131 2.135033
v 0.012591 0.005991999999999999 -0.012215
v -0.000322 -0.01881 -0.012214999999999998
v -0.000322 -0.01881099999999987 2.135033
v -0.013236 0.005992000000000131 2.135033
v -0.013236 0.005991999999999999 -0.012215
v 0.012591 0.005991999999999999 -0.012215
v 0.012591 0.005992000000000131 2.135033
v -0.000322 -0.01881099999999987 2.135033
v -0.000322 -0.01881 -0.012214999999999998
vt 0.510275 0.604031
vt 0.510284 0.615422
vt 0.449805 0.615469
vt 0.449805 0.615469
vt 0.449796 0.604078
vt 0.510275 0.604031
vt 0.430832 0.480926
vt 0.430798 0.462754
vt 0.597778 0.461914
vt 0.596648 0.481980
vt 0.431380 0.481980
vt 0.430250 0.461915
vt 0.597230 0.462754
vt 0.597196 0.480926
vt 0.430523 0.494191
vt 0.430523 0.449597
vt 0.597505 0.449596
vt 0.597505 0.494191
vt 0.399124 0.511058
vt 0.039009 0.511058
vt 0.039009 0.459450
vt 0.399124 0.459450
vt 0.242199 0.552281
vt 0.381377 0.551813
vt 0.382463 0.568526
vt 0.243286 0.568994
vt 0.381615 0.622406
vt 0.242437 0.622877
vt 0.243411 0.606157
vt 0.382589 0.605687
vt 0.382589 0.605687
vt 0.243411 0.606157
vt 0.243286 0.568994
vt 0.382463 0.568526
vt 0.510261 0.585709
vt 0.510275 0.604031
vt 0.449796 0.604078
vt 0.449781 0.585757
vt 0.510284 0.615422
vt 0.510299 0.634975
vt 0.449820 0.635022
vt 0.449805 0.615469
vt 0.631179 0.973163
vt 0.643989 0.692520
vt 0.707803 0.683097
vt 0.814151 0.946173
vt 0.586131 0.968746
vt 0.612226 0.689721
vt 0.643989 0.692520
vt 0.631179 0.973163
vt 0.408582 0.916609
vt 0.550116 0.671471
vt 0.612226 0.689721
vt 0.586131 0.968746
vt 0.814151 0.946173
vt 0.707803 0.683097
vt 0.736899 0.669920
vt 0.855191 0.927080
vt 0.707803 0.683097
vt 0.643989 0.692520
vt 0.637968 0.660387
vt 0.704245 0.650589
vt 0.019926 0.708784
vt 0.162402 0.950913
vt 0.226067 0.929162
vt 0.192985 0.647014
vt 0.417483 0.671878
vt 0.320044 0.934689
vt 0.349453 0.947382
vt 0.457009 0.688231
vt 0.232807 0.642646
vt 0.259575 0.925007
vt 0.320044 0.934689
vt 0.417483 0.671878
vt 0.192985 0.647014
vt 0.226067 0.929162
vt 0.259575 0.925007
vt 0.232807 0.642646
vt 0.252616 0.957725
vt 0.318262 0.966280
vt 0.320044 0.934689
vt 0.259575 0.925007
vt 0.846635 0.449325
vt 0.846635 0.019649
vt 0.866585 0.019649
vt 0.866585 0.449325
vt 0.918689 0.964621
vt 0.919519 0.029760
vt 0.940351 0.029777
vt 0.939539 0.964638
vt 0.898670 0.964604
vt 0.899509 0.029742
vt 0.919519 0.029760
vt 0.918689 0.964621
vt 0.939539 0.964638
vt 0.940351 0.029777
vt 0.970773 0.029801
vt 0.969988 0.964662
vn 0 -0.922667 0.3855970000000001
vn -0 -0.4613610000000001 -0.887213
vn -0 -0.980099 -0.19850899999999994
vn -0 -0.980099 -0.19850899999999994
vn 0 -0.24790299999999996 0.968785
vn 0 -0.922667 0.3855970000000001
vn 1E-06 -1 -9.999999999387675E-07
vn 2E-06 -1 -1.9999999999387675E-06
vn 1E-06 -1 -9.999999999387675E-07
vn -1E-06 -1 -9.999999999387675E-07
vn 0 1 -6.123233995736766E-17
vn 0 1 -6.123233995736766E-17
vn 0 1 -6.123233995736766E-17
vn 0 1 -6.123233995736766E-17
vn -0.957032 1.7756337637857345E-17 0.289983
vn -0.957032 1.7756337637857345E-17 0.289983
vn -0.957032 1.7756337637857345E-17 0.289983
vn -0.957032 1.7756337637857345E-17 0.289983
vn -0.000824 0.005497000000000062 0.999985
vn -0.001647 0.010994000000000061 0.999938
vn -0.000824 0.005497000000000062 0.999985
vn 0 6.123233995736766E-17 1
vn 1E-06 -1 -9.999999999387675E-07
vn 1E-06 -1 -9.999999999387675E-07
vn 1E-06 -1 -9.999999999387675E-07
vn 1E-06 -1 -9.999999999387675E-07
vn 0 1 -6.123233995736766E-17
vn 0 1 -6.123233995736766E-17
vn 0 1 -6.123233995736766E-17
vn 0 1 -6.123233995736766E-17
vn 0.956977 1.7767298226709713E-17 0.290162
vn 0.956977 1.7767359459049673E-17 0.290163
vn 0.956977 1.7767298226709713E-17 0.290162
vn 0.956977 1.7767298226709713E-17 0.290162
vn 0 0.89034 0.45529499999999995
vn 0 -0.922667 0.3855970000000001
vn 0 -0.24790299999999996 0.968785
vn -0 0.840793 -0.541356
vn -0 -0.4613610000000001 -0.887213
vn 0 0.89034 0.45529499999999995
vn -0 0.840793 -0.541356
vn -0 -0.980099 -0.19850899999999994
vn -0.99966 1.597000658428106E-18 0.026081
vn -0.99966 1.597000658428106E-18 0.026081
vn -0.99966 1.597000658428106E-18 0.026081
vn -0.99966 1.597000658428106E-18 0.026081
vn 0 -0.994533 0.10442500000000006
vn 0 -0.994533 0.10442500000000006
vn 0 -0.994533 0.10442500000000006
vn 0 -0.994533 0.10442500000000006
vn 1 0 0
vn 1 0 0
vn 1 0 0
vn 1 0 -0
vn 0 0.991542 0.12978799999999993
vn 0 0.991542 0.12978799999999993
vn 0 0.991542 0.12978799999999993
vn 0 0.991542 0.12978799999999993
vn 0 6.123233995736766E-17 1
vn 0 6.123233995736766E-17 1
vn 0 6.123233995736766E-17 1
vn 0 6.123233995736766E-17 1
vn -1 0 0
vn -1 0 0
vn -1 0 0
vn -1 -0 0
vn 0 -0.994533 0.10442500000000006
vn 0 -0.994533 0.10442500000000006
vn 0 -0.994533 0.10442500000000006
vn 0 -0.994533 0.10442500000000006
vn 0.99979 1.254099554666847E-18 0.020481
vn 0.99979 1.254099554666847E-18 0.020481
vn 0.99979 1.254099554666847E-18 0.020481
vn 0.99979 1.254099554666847E-18 0.020481
vn 0 0.991542 0.12978799999999993
vn 0 0.991542 0.12978799999999993
vn 0 0.991542 0.12978799999999993
vn 0 0.991542 0.12978799999999993
vn 0 6.123233995736766E-17 1
vn 0 6.123233995736766E-17 1
vn 0 6.123233995736766E-17 1
vn 0 6.123233995736766E-17 1
vn 0 -0.004583999999999939 0.99999
vn 0 -0.004583999999999939 0.99999
vn 0 -0.004583999999999939 0.99999
vn 0 -0.004583999999999939 0.99999
vn 0 1 -6.123233995736766E-17
vn 0 1 -6.123233995736766E-17
vn 0 1 -6.123233995736766E-17
vn 0 1 -6.123233995736766E-17
vn -0.886976 -0.461815 2.8278013077411745E-17
vn -0.886976 -0.461815 2.8278013077411745E-17
vn -0.886976 -0.461815 2.8278013077411745E-17
vn -0.886976 -0.461815 2.8278013077411745E-17
vn 0.886976 -0.461815 2.8278013077411745E-17
vn 0.886976 -0.461815 2.8278013077411745E-17
vn 0.886976 -0.461815 2.8278013077411745E-17
vn 0.886976 -0.461815 2.8278013077411745E-17
g 21 - Default
f 1/1/1 2/2/2 3/3/3
f 4/4/4 5/5/5 6/6/6
f 7/7/7 8/8/8 9/9/9
f 9/9/9 10/10/10 7/7/7
f 11/11/11 12/12/12 13/13/13
f 13/13/13 14/14/14 11/11/11
f 15/15/15 16/16/16 17/17/17
f 17/17/17 18/18/18 15/15/15
f 19/19/19 20/20/20 21/21/21
f 21/21/21 22/22/22 19/19/19
f 23/23/23 24/24/24 25/25/25
f 25/25/25 26/26/26 23/23/23
f 27/27/27 28/28/28 29/29/29
f 29/29/29 30/30/30 27/27/27
f 31/31/31 32/32/32 33/33/33
f 33/33/33 34/34/34 31/31/31
f 35/35/35 36/36/36 37/37/37
f 37/37/37 38/38/38 35/35/35
f 39/39/39 40/40/40 41/41/41
f 41/41/41 42/42/42 39/39/39
f 43/43/43 44/44/44 45/45/45
f 45/45/45 46/46/46 43/43/43
f 47/47/47 48/48/48 49/49/49
f 49/49/49 50/50/50 47/47/47
f 51/51/51 52/52/52 53/53/53
f 53/53/53 54/54/54 51/51/51
f 55/55/55 56/56/56 57/57/57
f 57/57/57 58/58/58 55/55/55
f 59/59/59 60/60/60 61/61/61
f 61/61/61 62/62/62 59/59/59
f 63/63/63 64/64/64 65/65/65
f 65/65/65 66/66/66 63/63/63
f 67/67/67 68/68/68 69/69/69
f 69/69/69 70/70/70 67/67/67
f 71/71/71 72/72/72 73/73/73
f 73/73/73 74/74/74 71/71/71
f 75/75/75 76/76/76 77/77/77
f 77/77/77 78/78/78 75/75/75
f 79/79/79 80/80/80 81/81/81
f 81/81/81 82/82/82 79/79/79
f 83/83/83 84/84/84 85/85/85
f 85/85/85 86/86/86 83/83/83
f 87/87/87 88/88/88 89/89/89
f 89/89/89 90/90/90 87/87/87
f 91/91/91 92/92/92 93/93/93
f 93/93/93 94/94/94 91/91/91
f 95/95/95 96/96/96 97/97/97
f 97/97/97 98/98/98 95/95/95
