v 0.131639 -1.96807476180375E-17 -0.321411
v 0.131639 -3.9481755551751264E-17 -0.644786
v 0 -3.9481755551751264E-17 -0.644786
v 0 -1.96807476180375E-17 -0.321411
v -0.131639 -3.9481755551751264E-17 -0.644786
v 0.131639 1.2019908333631272E-19 0.001963
v -0.131639 -1.96807476180375E-17 -0.321411
v 0 1.2019908333631272E-19 0.001963
v -0.131639 1.2019908333631272E-19 0.001963
vt 0.249520 -0.001439
vt 0.499041 -0.001439
vt 0.499041 0.123970
vt 0.249520 0.123970
vt 0.499041 0.249379
vt -0.000000 -0.001439
vt 0.249520 0.249379
vt -0.000000 0.123970
vt -0.000000 0.249379
vn 0 1 -6.123233995736766E-17
vn 0 1 -6.123233995736766E-17
vn 0 1 -6.123233995736766E-17
vn 0 1 -6.123233995736766E-17
vn 0 1 -6.123233995736766E-17
vn 0 1 -6.123233995736766E-17
vn 0 1 -6.123233995736766E-17
vn 0 1 -6.123233995736766E-17
vn 0 1 -6.123233995736766E-17
g flag
f 1/1/1 2/2/2 3/3/3
f 3/3/3 4/4/4 1/1/1
f 4/4/4 3/3/3 5/5/5
f 6/6/6 1/1/1 4/4/4
f 5/5/5 7/7/7 4/4/4
f 4/4/4 8/8/8 6/6/6
f 4/4/4 7/7/7 9/9/9
f 9/9/9 8/8/8 4/4/4
