v 0.28549 -0.06259000000000006 -0.99585
v 0.283387 -0.06376200000000003 -0.517221
v -0.28549 -0.04228500000000004 -0.517221
v -0.28549 -0.04228500000000004 -0.517221
v -0.28549 -0.042285000000000066 -0.99585
v 0.28549 -0.06259000000000006 -0.99585
v 0.275648 0.047349 -0.038592
v 0.274296 0.04811499999999996 -0.517221
v -0.282022 0.07044599999999997 -0.517221
v -0.282022 0.07044599999999997 -0.517221
v -0.282022 0.070446 -0.03859200000000001
v 0.275648 0.047349 -0.038592
v 0.283387 -0.06376200000000003 -0.517221
v 0.281284 -0.064934 -0.038591999999999994
v -0.28549 -0.042285 -0.038592
v -0.28549 -0.042285 -0.038592
v -0.28549 -0.04228500000000004 -0.517221
v 0.283387 -0.06376200000000003 -0.517221
v 0.272944 0.04888099999999994 -0.99585
v -0.282022 0.07044599999999994 -0.99585
v -0.282022 0.07044599999999997 -0.517221
v -0.282022 0.07044599999999997 -0.517221
v 0.274296 0.04811499999999996 -0.517221
v 0.272944 0.04888099999999994 -0.99585
v -0.28549 -0.042285 -0.038592
v -0.28549 -0.042284999999999996 0.080581
v -0.282022 0.07044600000000001 0.122817
v -0.282022 0.07044600000000001 0.122817
v -0.282022 0.070446 -0.03859200000000001
v -0.28549 -0.042285000000000066 -0.99585
v -0.28549 -0.04228500000000004 -0.517221
v -0.282022 0.07044599999999997 -0.517221
v -0.282022 0.07044599999999994 -0.99585
v 0.272944 0.04888099999999994 -0.99585
v 0.274296 0.04811499999999996 -0.517221
v 0.283387 -0.06376200000000003 -0.517221
v 0.28549 -0.06259000000000006 -0.99585
v -0.28549 -0.04228500000000004 -0.517221
v -0.28549 -0.042285 -0.038592
v -0.282022 0.070446 -0.03859200000000001
v -0.282022 0.07044599999999997 -0.517221
v 0.274296 0.04811499999999996 -0.517221
v 0.275648 0.047349 -0.038592
v 0.281284 -0.064934 -0.038591999999999994
v 0.283387 -0.06376200000000003 -0.517221
v -0.282022 0.07044600000000001 0.122817
v -0.28549 -0.042284999999999996 0.080581
v -0.081915 -0.05636499999999999 0.100671
v -0.065437 0.05628600000000001 0.143009
v -0.031633 -0.07044599999999998 0.22916
v -0.03339 0.04212600000000001 0.213433
v 0.121348 0.044613000000000014 0.217268
v 0.124486 -0.06787999999999998 0.232893
v 0.276086 0.047101000000000004 0.116427
v 0.280605 -0.06531299999999998 0.116021
v 0.275648 0.047349 -0.038592
v 0.281284 -0.064934 -0.038591999999999994
v -0.28549 -0.042284999999999996 0.080581
v -0.28549 -0.042285 -0.038592
v 0.281284 -0.064934 -0.038591999999999994
v -0.081915 -0.05636499999999999 0.100671
v 0.280605 -0.06531299999999998 0.116021
v 0.124486 -0.06787999999999998 0.232893
v -0.031633 -0.07044599999999998 0.22916
v 0.275648 0.047349 -0.038592
v -0.282022 0.070446 -0.03859200000000001
v -0.282022 0.07044600000000001 0.122817
v -0.065437 0.05628600000000001 0.143009
v 0.276086 0.047101000000000004 0.116427
v 0.121348 0.044613000000000014 0.217268
v -0.03339 0.04212600000000001 0.213433
vt 0.884163 0.654010
vt 0.884163 0.507146
vt 0.978353 0.507146
vt 0.978353 0.507146
vt 0.978353 0.654010
vt 0.884163 0.654010
vt 0.978353 0.507105
vt 0.978353 0.653969
vt 0.884163 0.653969
vt 0.884163 0.653969
vt 0.884163 0.507105
vt 0.978353 0.507105
vt 0.884163 0.653969
vt 0.884163 0.507105
vt 0.978353 0.507105
vt 0.978353 0.507105
vt 0.978353 0.653969
vt 0.884163 0.653969
vt 0.978353 0.654010
vt 0.884163 0.654010
vt 0.884163 0.507146
vt 0.884163 0.507146
vt 0.978353 0.507146
vt 0.978353 0.654010
vt 0.298984 0.435319
vt 0.300390 0.471031
vt 0.317716 0.481053
vt 0.317716 0.481053
vt 0.315825 0.432728
vt 0.541270 0.982875
vt 0.541270 0.832668
vt 0.559925 0.832668
vt 0.559925 0.982875
vt 0.541270 0.982875
vt 0.541270 0.832668
vt 0.559925 0.832668
vt 0.559925 0.982875
vt 0.541270 0.982875
vt 0.541270 0.832668
vt 0.559925 0.832668
vt 0.559925 0.982875
vt 0.541270 0.982875
vt 0.541270 0.832668
vt 0.559925 0.832668
vt 0.559925 0.982875
vt 0.317716 0.481053
vt 0.300390 0.471031
vt 0.292075 0.529699
vt 0.308609 0.544716
vt 0.288531 0.569188
vt 0.305524 0.569522
vt 0.303826 0.617852
vt 0.286964 0.614450
vt 0.301680 0.673941
vt 0.284856 0.672115
vt 0.300394 0.720377
vt 0.283584 0.718440
vt 0.512678 0.967319
vt 0.538054 0.967319
vt 0.538054 0.777107
vt 0.509472 0.893467
vt 0.513756 0.777085
vt 0.495695 0.829461
vt 0.496316 0.880847
vt 1.538054 0.776992
vt 1.538054 0.967401
vt 1.512627 0.967401
vt 1.509384 0.893410
vt 1.513756 0.777085
vt 1.495695 0.829461
vt 1.496288 0.880748
vn -0.037726 -0.999285 -0.0026129999999999387
vn -0.037726 -0.999285 -0.0026129999999999387
vn -0.037726 -0.999285 -0.0026129999999999387
vn -0.035539 -0.999368 6.119364111851461E-17
vn -0.035539 -0.999368 6.119364111851461E-17
vn -0.035539 -0.999368 6.119364111851461E-17
vn 0.040109 0.999194 0.0014849999999999388
vn 0.040109 0.999194 0.0014849999999999388
vn 0.040109 0.999194 0.0014849999999999388
vn 0.041382 0.999143 -6.11798638420242E-17
vn 0.041382 0.999143 -6.11798638420242E-17
vn 0.041382 0.999143 -6.11798638420242E-17
vn -0.03993 -0.999199 -0.0026229999999999387
vn -0.03993 -0.999199 -0.0026229999999999387
vn -0.03993 -0.999199 -0.0026229999999999387
vn -0.037726 -0.999288 6.1188742531318E-17
vn -0.037726 -0.999288 6.1188742531318E-17
vn -0.037726 -0.999288 6.1188742531318E-17
vn 0.038829 0.999246 -6.118617077303981E-17
vn 0.038829 0.999246 -6.118617077303981E-17
vn 0.038829 0.999246 -6.118617077303981E-17
vn 0.040109 0.999194 0.0014859999999999388
vn 0.040109 0.999194 0.0014859999999999388
vn 0.040109 0.999194 0.0014859999999999388
vn -0.999527 0.030743 -1.882465827309354E-18
vn -0.750206 -0.21162399999999998 0.626424
vn -0.749057 -0.20866499999999996 0.628787
vn -0.749057 -0.20866499999999996 0.628787
vn -0.999527 0.030743 -1.882465827309354E-18
vn -0.999527 0.030743 -1.882465827309354E-18
vn -0.999527 0.030743 -1.882465827309354E-18
vn -0.999527 0.030743 -1.882465827309354E-18
vn -0.999527 0.030743 -1.882465827309354E-18
vn 0.99534 0.096424 0.0009769999999999941
vn 0.997497 0.070708 -0.00028300000000000433
vn 0.995823 0.09128 0.002177999999999994
vn 0.993716 0.111836 0.004639999999999993
vn -0.999527 0.030743 -1.882465827309354E-18
vn -0.999527 0.030743 -1.882465827309354E-18
vn -0.999527 0.030743 -1.882465827309354E-18
vn -0.999527 0.030743 -1.882465827309354E-18
vn 0.997497 0.070708 -0.00028300000000000433
vn 0.998904 0.04681 -0.00032900000000000285
vn 0.998171 0.060421 0.002115999999999996
vn 0.995823 0.09128 0.002177999999999994
vn -0.749057 -0.20866499999999996 0.628787
vn -0.750206 -0.21162399999999998 0.626424
vn -0.444038 -0.26181899999999997 0.856902
vn -0.744418 -0.11155899999999996 0.658328
vn -0.561604 0.09471800000000005 0.821967
vn -0.54813 0.10733100000000005 0.829478
vn 0.169008 0.14060800000000007 0.975534
vn 0.388656 0.10078300000000005 0.915854
vn 0.793335 0.07121600000000004 0.604605
vn 0.95464 0.04098200000000002 0.294927
vn 0.998904 0.04681 -0.00032900000000000285
vn 0.998171 0.060421 0.002115999999999996
vn -0.049756 -0.997654 -0.047024999999999935
vn -0.03993 -0.999202 6.118347655008168E-17
vn -0.041365 -0.998625 -0.03219999999999994
vn -0.021872 -0.997562 -0.06626499999999995
vn -0.023512 -0.999352 -0.027239999999999938
vn -0.00167 -0.99645 -0.08416599999999995
vn 0.019106 -0.99303 -0.11630099999999995
vn 0.04259 0.998865 0.021312999999999936
vn 0.041382 0.999143 -6.11798638420242E-17
vn 0.050377 0.998243 0.031206999999999936
vn 0.024606 0.995951 0.08646099999999994
vn 0.02983 0.998829 0.03810399999999994
vn 0.005906 0.990025 0.14077099999999995
vn -0.020834 0.978291 0.20618599999999995
g 10 - Default
f 1/1/1 2/2/2 3/3/3
f 4/4/4 5/5/5 6/6/6
f 7/7/7 8/8/8 9/9/9
f 10/10/10 11/11/11 12/12/12
f 13/13/13 14/14/14 15/15/15
f 16/16/16 17/17/17 18/18/18
f 19/19/19 20/20/20 21/21/21
f 22/22/22 23/23/23 24/24/24
f 25/25/25 26/26/26 27/27/27
f 28/28/28 29/29/29 25/25/25
f 30/30/30 31/31/31 32/32/32
f 32/32/32 33/33/33 30/30/30
f 34/34/34 35/35/35 36/36/36
f 36/36/36 37/37/37 34/34/34
f 38/38/38 39/39/39 40/40/40
f 40/40/40 41/41/41 38/38/38
f 42/42/42 43/43/43 44/44/44
f 44/44/44 45/45/45 42/42/42
f 46/46/46 47/47/47 48/48/48
f 48/48/48 49/49/49 46/46/46
f 49/49/49 48/48/48 50/50/50
f 50/50/50 51/51/51 49/49/49
f 52/52/52 51/51/51 50/50/50
f 50/50/50 53/53/53 52/52/52
f 54/54/54 52/52/52 53/53/53
f 53/53/53 55/55/55 54/54/54
f 56/56/56 54/54/54 55/55/55
f 55/55/55 57/57/57 56/56/56
f 58/58/58 59/59/59 60/60/60
f 60/60/60 61/61/61 58/58/58
f 60/60/60 62/62/62 61/61/61
f 61/61/61 62/62/62 63/63/63
f 63/63/63 64/64/64 61/61/61
f 65/65/65 66/66/66 67/67/67
f 67/67/67 68/68/68 65/65/65
f 68/68/68 69/69/69 65/65/65
f 70/70/70 69/69/69 68/68/68
f 68/68/68 71/71/71 70/70/70
