v 0.740125 0.305675 -0.05282600000000002
v 0.740124 0.305675 0.07148399999999999
v 0.67875 0.025019000000000003 0.071484
v 0.67875 0.025019000000000003 0.071484
v 0.678979 0.022406999999999996 -0.052826
v 0.740125 0.305675 -0.05282600000000002
v 0.593646 0.211363 0.07148399999999999
v 0.596635 0.208905 -0.05282600000000001
v 0.51032 0.191273 -0.05282600000000001
v 0.51032 0.191273 -0.05282600000000001
v 0.509881 0.19128 0.07148399999999999
v 0.593646 0.211363 0.07148399999999999
v 0.593646 0.211363 0.07148399999999999
v 0.740124 0.305675 0.07148399999999999
v 0.740125 0.305675 -0.05282600000000002
v 0.740125 0.305675 -0.05282600000000002
v 0.596635 0.208905 -0.05282600000000001
v 0.593646 0.211363 0.07148399999999999
v 0.38519 0.285718 0.07148399999999999
v 0.509881 0.19128 0.07148399999999999
v 0.51032 0.191273 -0.05282600000000001
v 0.51032 0.191273 -0.05282600000000001
v 0.385263 0.285836 -0.05282600000000002
v 0.38519 0.285718 0.07148399999999999
v 0.678979 0.022406999999999996 -0.052826
v 0.67875 0.025019000000000003 0.071484
v 0.727064 -0.24604 0.07148400000000002
v 0.727064 -0.24604 0.07148400000000002
v 0.727064 -0.24604 -0.052825999999999984
v 0.678979 0.022406999999999996 -0.052826
v 0.344158 -0.243927 0.07148400000000002
v 0.382387 -0.279232 0.07148400000000002
v 0.382387 -0.279232 -0.052825999999999984
v 0.382387 -0.279232 -0.052825999999999984
v 0.344158 -0.243927 -0.052825999999999984
v 0.32928 -0.191117 0.07148400000000002
v 0.32928 -0.191117 -0.052825999999999984
v -0.074635 -0.272125 0.07148400000000002
v -0.036406 -0.30743 0.07148400000000002
v -0.036406 -0.30743 -0.05282599999999998
v -0.036406 -0.30743 -0.05282599999999998
v -0.074635 -0.272125 -0.052825999999999984
v -0.089512 -0.219316 0.07148400000000002
v -0.089512 -0.219316 -0.052825999999999984
v 0.31041 0.035116 -0.052826
v 0.401291 0.042697 -0.052826
v 0.401291 0.042697000000000006 0.071484
v 0.31041 0.03511600000000001 0.071484
v 0.401291 0.042697 -0.052826
v 0.420162 -0.183537 -0.052825999999999984
v 0.420162 -0.183537 0.07148400000000002
v 0.401291 0.042697000000000006 0.071484
v 0.32928 -0.191117 -0.052825999999999984
v 0.31041 0.035116 -0.052826
v 0.31041 0.03511600000000001 0.071484
v 0.32928 -0.191117 0.07148400000000002
v -0.108383 0.006917999999999996 -0.052826
v -0.017502 0.014497999999999997 -0.052826
v -0.017502 0.014498000000000006 0.071484
v -0.108383 0.006918000000000004 0.071484
v -0.017502 0.014497999999999997 -0.052826
v 0.001369 -0.211735 -0.052825999999999984
v 0.001369 -0.211735 0.07148400000000002
v -0.017502 0.014498000000000006 0.071484
v -0.089512 -0.219316 -0.052825999999999984
v -0.108383 0.006917999999999996 -0.052826
v -0.108383 0.006918000000000004 0.071484
v -0.089512 -0.219316 0.07148400000000002
v 0.470801 -0.421401 -0.05282599999999997
v 0.727064 -0.24604 -0.052825999999999984
v 0.727064 -0.24604 0.07148400000000002
v 0.470801 -0.421402 0.07148400000000003
v 0.185202 -0.362627 -0.05282599999999998
v 0.470801 -0.421401 -0.05282599999999997
v 0.185202 -0.362627 0.07148400000000003
v -0.090415 -0.417949 -0.05282599999999997
v -0.090415 -0.417949 0.07148400000000003
v -0.145932 -0.497538 -0.05282599999999997
v -0.145932 -0.497538 0.07148400000000003
v -0.145932 -0.497538 -0.05282599999999997
v -0.560529 -0.563633 0.07148400000000003
v -0.560529 -0.563633 -0.05282599999999996
v -0.706657 -0.306133 0.07148400000000002
v -0.631423 -0.256102 0.07148400000000002
v -0.631376 -0.256098 -0.052825999999999984
v -0.706621 -0.30613 -0.05282599999999998
v -0.668666 -0.390494 0.07148400000000003
v -0.706657 -0.306133 0.07148400000000002
v -0.706621 -0.30613 -0.05282599999999998
v -0.668642 -0.390492 -0.05282599999999998
v -0.631423 -0.256102 0.07148400000000002
v -0.564972 -0.11748 0.07148400000000002
v -0.564878 -0.117472 -0.05282599999999999
v -0.631376 -0.256098 -0.052825999999999984
v -0.564972 -0.11748 0.07148400000000002
v -0.590891 0.205911 0.07148399999999999
v -0.590703 0.205927 -0.05282600000000001
v -0.564878 -0.117472 -0.05282599999999999
v 0.133752 0.208072 0.07148399999999999
v 0.38519 0.285718 0.07148399999999999
v 0.385263 0.285836 -0.05282600000000002
v 0.133517 0.208028 -0.05282600000000001
v -0.125269 0.215852 0.07148399999999999
v 0.133752 0.208072 0.07148399999999999
v 0.133517 0.208028 -0.05282600000000001
v -0.125726 0.215806 -0.05282600000000001
v -0.178952 0.12735 0.07148399999999999
v -0.125269 0.215852 0.07148399999999999
v -0.125726 0.215806 -0.05282600000000001
v -0.179402 0.127316 -0.052826000000000005
v -0.356348 0.100803 0.071484
v -0.178952 0.12735 0.07148399999999999
v -0.179402 0.127316 -0.052826000000000005
v -0.356531 0.100854 -0.052826000000000005
v -0.566806 0.168727 0.07148399999999999
v -0.356348 0.100803 0.071484
v -0.356531 0.100854 -0.052826000000000005
v -0.566649 0.168742 -0.052826000000000005
v -0.590891 0.205911 0.07148399999999999
v -0.566806 0.168727 0.07148399999999999
v -0.566649 0.168742 -0.052826000000000005
v -0.590703 0.205927 -0.05282600000000001
v -0.668666 -0.390494 0.07148400000000003
v -0.668642 -0.390492 -0.05282599999999998
v -0.560529 -0.563633 -0.05282599999999996
v -0.560529 -0.563633 0.07148400000000003
v 0.740125 0.305675 -0.05282600000000002
v 0.678979 0.022406999999999996 -0.052826
v 0.596635 0.208905 -0.05282600000000001
v 0.51032 0.191273 -0.05282600000000001
v 0.727064 -0.24604 -0.052825999999999984
v 0.470801 -0.421401 -0.05282599999999997
v 0.420162 -0.183537 -0.052825999999999984
v 0.414239 -0.238081 -0.052825999999999984
v 0.401291 0.042697 -0.052826
v 0.382387 -0.279232 -0.052825999999999984
v 0.31041 0.035116 -0.052826
v 0.185202 -0.362627 -0.05282599999999998
v 0.344158 -0.243927 -0.052825999999999984
v 0.32928 -0.191117 -0.052825999999999984
v 0.133517 0.208028 -0.05282600000000001
v 0.385263 0.285836 -0.05282600000000002
v -0.017502 0.014497999999999997 -0.052826
v -0.125726 0.215806 -0.05282600000000001
v 0.001369 -0.211735 -0.052825999999999984
v -0.108383 0.006917999999999996 -0.052826
v -0.004554 -0.26628 -0.052825999999999984
v -0.179402 0.127316 -0.052826000000000005
v -0.036406 -0.30743 -0.05282599999999998
v -0.356531 0.100854 -0.052826000000000005
v -0.090415 -0.417949 -0.05282599999999997
v -0.089512 -0.219316 -0.052825999999999984
v -0.074635 -0.272125 -0.052825999999999984
v -0.564878 -0.117472 -0.05282599999999999
v -0.566649 0.168742 -0.052826000000000005
v -0.590703 0.205927 -0.05282600000000001
v -0.631376 -0.256098 -0.052825999999999984
v -0.668642 -0.390492 -0.05282599999999998
v -0.706621 -0.30613 -0.05282599999999998
v -0.145932 -0.497538 -0.05282599999999997
v -0.560529 -0.563633 -0.05282599999999996
v 0.414239 -0.238081 0.07148400000000002
v 0.420162 -0.183537 0.07148400000000002
v 0.420162 -0.183537 -0.052825999999999984
v 0.414239 -0.238081 -0.052825999999999984
v 0.382387 -0.279232 0.07148400000000002
v 0.382387 -0.279232 -0.052825999999999984
v -0.004554 -0.26628 0.07148400000000002
v 0.001369 -0.211735 0.07148400000000002
v 0.001369 -0.211735 -0.052825999999999984
v -0.004554 -0.26628 -0.052825999999999984
v -0.036406 -0.30743 0.07148400000000002
v -0.036406 -0.30743 -0.05282599999999998
v 0.67875 0.025019000000000003 0.071484
v 0.740124 0.305675 0.07148399999999999
v 0.593646 0.211363 0.07148399999999999
v 0.509881 0.19128 0.07148399999999999
v 0.727064 -0.24604 0.07148400000000002
v 0.470801 -0.421402 0.07148400000000003
v 0.420162 -0.183537 0.07148400000000002
v 0.414239 -0.238081 0.07148400000000002
v 0.401291 0.042697000000000006 0.071484
v 0.382387 -0.279232 0.07148400000000002
v 0.31041 0.03511600000000001 0.071484
v 0.185202 -0.362627 0.07148400000000003
v 0.344158 -0.243927 0.07148400000000002
v 0.32928 -0.191117 0.07148400000000002
v 0.133752 0.208072 0.07148399999999999
v 0.38519 0.285718 0.07148399999999999
v -0.017502 0.014498000000000006 0.071484
v -0.125269 0.215852 0.07148399999999999
v 0.001369 -0.211735 0.07148400000000002
v -0.108383 0.006918000000000004 0.071484
v -0.004554 -0.26628 0.07148400000000002
v -0.178952 0.12735 0.07148399999999999
v -0.036406 -0.30743 0.07148400000000002
v -0.356348 0.100803 0.071484
v -0.090415 -0.417949 0.07148400000000003
v -0.089512 -0.219316 0.07148400000000002
v -0.074635 -0.272125 0.07148400000000002
v -0.564972 -0.11748 0.07148400000000002
v -0.566806 0.168727 0.07148399999999999
v -0.590891 0.205911 0.07148399999999999
v -0.631423 -0.256102 0.07148400000000002
v -0.668666 -0.390494 0.07148400000000003
v -0.706657 -0.306133 0.07148400000000002
v -0.145932 -0.497538 0.07148400000000003
v -0.560529 -0.563633 0.07148400000000003
vt 0.320659 0.405081
vt 0.299339 0.418321
vt 0.283884 0.320247
vt 0.283884 0.320247
vt 0.305581 0.314719
vt 0.320659 0.405081
vt 0.271509 0.389082
vt 0.267999 0.434766
vt 0.255381 0.432385
vt 0.255381 0.432385
vt 0.256126 0.384409
vt 0.271509 0.389082
vt 0.271509 0.389082
vt 0.299339 0.418321
vt 0.288898 0.457783
vt 0.288898 0.457783
vt 0.267999 0.434766
vt 0.271509 0.389082
vt 0.235185 0.421703
vt 0.256126 0.384409
vt 0.255381 0.432385
vt 0.255381 0.432385
vt 0.241629 0.456970
vt 0.235185 0.421703
vt 0.305581 0.314719
vt 0.283884 0.320247
vt 0.288308 0.222349
vt 0.288308 0.222349
vt 0.310559 0.226077
vt 0.305581 0.314719
vt 0.006125 0.354136
vt 0.006114 0.335186
vt 0.030067 0.335159
vt 0.030067 0.335159
vt 0.030075 0.354097
vt 0.006153 0.374728
vt 0.030083 0.374649
vt 0.006125 0.354136
vt 0.006114 0.335186
vt 0.030067 0.335159
vt 0.030067 0.335159
vt 0.030075 0.354097
vt 0.006153 0.374728
vt 0.030083 0.374649
vt 0.030075 0.354097
vt 0.030083 0.374649
vt 0.006153 0.374728
vt 0.006125 0.354136
vt 0.226008 0.335174
vt 0.226009 0.253627
vt 0.234091 0.253661
vt 0.234256 0.334735
vt 0.225862 0.253248
vt 0.225861 0.334795
vt 0.217791 0.334722
vt 0.217625 0.253647
vt 0.030075 0.354097
vt 0.030083 0.374649
vt 0.006153 0.374728
vt 0.006125 0.354136
vt 0.150236 0.337510
vt 0.150237 0.255963
vt 0.158320 0.255997
vt 0.158486 0.337072
vt 0.150092 0.255584
vt 0.150092 0.337131
vt 0.142020 0.337058
vt 0.141854 0.255984
vt 0.250494 0.128693
vt 0.299127 0.183290
vt 0.288308 0.222349
vt 0.239456 0.167507
vt 0.187130 0.153207
vt 0.233136 0.124679
vt 0.189011 0.196863
vt 0.148478 0.148953
vt 0.138566 0.185316
vt 0.144584 0.130089
vt 0.127328 0.158630
vt 0.128780 0.114070
vt 0.051716 0.147354
vt 0.053584 0.102858
vt 0.029485 0.243317
vt 0.043804 0.258900
vt 0.028947 0.290002
vt 0.018961 0.282808
vt 0.034991 0.212170
vt 0.029485 0.243317
vt 0.008415 0.229396
vt 0.013694 0.197885
vt 0.043804 0.258900
vt 0.057938 0.306273
vt 0.037212 0.317756
vt 0.028947 0.290002
vt 0.057938 0.306273
vt 0.058365 0.422135
vt 0.036042 0.422807
vt 0.037212 0.317756
vt 0.188737 0.401497
vt 0.235185 0.421703
vt 0.230345 0.465294
vt 0.187579 0.445538
vt 0.142271 0.411918
vt 0.188737 0.401497
vt 0.187579 0.445538
vt 0.144783 0.456285
vt 0.131222 0.382006
vt 0.142271 0.411918
vt 0.133454 0.450833
vt 0.125227 0.424543
vt 0.098897 0.377798
vt 0.131222 0.382006
vt 0.125227 0.424543
vt 0.102425 0.420748
vt 0.062112 0.408190
vt 0.098897 0.377798
vt 0.102425 0.420748
vt 0.075445 0.443006
vt 0.058365 0.422135
vt 0.062112 0.408190
vt 0.075445 0.443006
vt 0.067917 0.463517
vt 0.034991 0.212170
vt 0.015108 0.191893
vt 0.031908 0.126721
vt 0.051716 0.147354
vt 1.299466 0.418389
vt 1.283881 0.319754
vt 1.271690 0.389056
vt 1.256283 0.384392
vt 1.288293 0.221959
vt 1.239583 0.167102
vt 1.234234 0.254008
vt 1.232316 0.234630
vt 1.234399 0.335745
vt 1.225958 0.220870
vt 1.217981 0.335878
vt 1.189286 0.197146
vt 1.219656 0.234733
vt 1.217816 0.254141
vt 1.188971 0.401530
vt 1.235340 0.421535
vt 1.158678 0.337043
vt 1.142526 0.411676
vt 1.158685 0.257036
vt 1.142145 0.336946
vt 1.156767 0.237658
vt 1.131511 0.381921
vt 1.150410 0.223898
vt 1.099030 0.377687
vt 1.138672 0.185316
vt 1.142268 0.257169
vt 1.144107 0.237760
vt 1.058017 0.306105
vt 1.062269 0.408101
vt 1.058596 0.421847
vt 1.043939 0.258680
vt 1.035058 0.211955
vt 1.029372 0.243383
vt 1.127610 0.158448
vt 1.051884 0.147090
vt 0.006106 0.316248
vt 0.006098 0.295697
vt 0.030028 0.295618
vt 0.030056 0.316210
vt 0.006114 0.335186
vt 0.030067 0.335159
vt 0.006106 0.316248
vt 0.006098 0.295697
vt 0.030028 0.295618
vt 0.030056 0.316210
vt 0.006114 0.335186
vt 0.030067 0.335159
vt 0.283884 0.320247
vt 0.299339 0.418321
vt 0.271509 0.389082
vt 0.256126 0.384409
vt 0.288308 0.222349
vt 0.239456 0.167507
vt 0.234091 0.253661
vt 0.232167 0.234423
vt 0.234256 0.334735
vt 0.225790 0.220718
vt 0.217791 0.334722
vt 0.189011 0.196863
vt 0.219470 0.234412
vt 0.217625 0.253647
vt 0.188737 0.401497
vt 0.235185 0.421703
vt 0.158486 0.337072
vt 0.142271 0.411918
vt 0.158320 0.255997
vt 0.142020 0.337058
vt 0.156397 0.236759
vt 0.131222 0.382006
vt 0.150020 0.223054
vt 0.098897 0.377798
vt 0.138566 0.185316
vt 0.141854 0.255984
vt 0.143699 0.236749
vt 0.057938 0.306273
vt 0.062112 0.408190
vt 0.058365 0.422135
vt 0.043804 0.258900
vt 0.034991 0.212170
vt 0.029485 0.243317
vt 0.127328 0.158630
vt 0.051716 0.147354
vn 0.976914 -0.213634 2.000000000013081E-06
vn 0.976914 -0.213634 2.000000000013081E-06
vn 0.976914 -0.213634 2.000000000013081E-06
vn 0.977467 -0.210996 0.0062310000000000134
vn 0.977467 -0.210996 0.0062310000000000134
vn 0.977467 -0.210996 0.0062310000000000134
vn -0.200081 0.979481 -0.02418100000000006
vn -0.200081 0.979481 -0.02418100000000006
vn -0.200081 0.979481 -0.02418100000000006
vn -0.233146 0.972441 -0.0008790000000000595
vn -0.233146 0.972441 -0.0008790000000000595
vn -0.233146 0.972441 -0.0008790000000000595
vn -0.541354 0.840795 -1.0000000000514839E-06
vn -0.541354 0.840795 -1.0000000000514839E-06
vn -0.541354 0.840795 -1.0000000000514839E-06
vn -0.558885 0.828709 -0.02982700000000005
vn -0.558885 0.828709 -0.02982700000000005
vn -0.558885 0.828709 -0.02982700000000005
vn 0.603754 0.797168 0.002082999999999951
vn 0.603754 0.797168 0.002082999999999951
vn 0.603754 0.797168 0.002082999999999951
vn 0.603143 0.797633 0.0011149999999999513
vn 0.603143 0.797633 0.0011149999999999513
vn 0.603143 0.797633 0.0011149999999999513
vn 0.984482 0.175475 -0.001876000000000011
vn 0.984482 0.175475 -0.001876000000000011
vn 0.984482 0.175475 -0.001876000000000011
vn 0.984333 0.176318 1.9999999999892036E-06
vn 0.984333 0.176318 1.9999999999892036E-06
vn 0.984333 0.176318 1.9999999999892036E-06
vn 0.799855 0.600193 -3.6751221816032365E-17
vn -0.418692 0.908128 -5.560680242080438E-17
vn 0.262456 0.964944 -5.908577904782218E-17
vn 0.262456 0.964944 -5.908577904782218E-17
vn 0.897821 0.440361 -2.696433445596638E-17
vn 0.962534 0.271161 -1.660382253517977E-17
vn 0.962534 0.271161 -1.660382253517977E-17
vn 0.799855 0.600193 -3.6751221816032365E-17
vn -0.41869 0.908129 -5.560686365314434E-17
vn 0.262455 0.964944 -5.908577904782218E-17
vn 0.262455 0.964944 -5.908577904782218E-17
vn 0.897821 0.44036 -2.6964273223626422E-17
vn 0.962535 0.271159 -1.6603700070499856E-17
vn 0.962535 0.271159 -1.6603700070499856E-17
vn 0.083125 -0.996539 6.10204148287752E-17
vn 0.083125 -0.996539 6.10204148287752E-17
vn 0.083125 -0.996539 6.10204148287752E-17
vn 0.083125 -0.996539 6.10204148287752E-17
vn -0.996539 -0.083126 5.089999491296144E-18
vn -0.996539 -0.083126 5.089999491296144E-18
vn -0.996539 -0.083126 5.089999491296144E-18
vn -0.996539 -0.083125 5.089938258956187E-18
vn 0.996539 0.083124 -5.08987702661623E-18
vn 0.996539 0.083124 -5.08987702661623E-18
vn 0.996539 0.083124 -5.08987702661623E-18
vn 0.996539 0.083124 -5.08987702661623E-18
vn 0.083124 -0.996539 6.10204148287752E-17
vn 0.083124 -0.996539 6.10204148287752E-17
vn 0.083124 -0.996539 6.10204148287752E-17
vn 0.083125 -0.996539 6.10204148287752E-17
vn -0.996539 -0.083124 5.08987702661623E-18
vn -0.996539 -0.083124 5.08987702661623E-18
vn -0.996539 -0.083124 5.08987702661623E-18
vn -0.996539 -0.083124 5.08987702661623E-18
vn 0.996539 0.083124 -5.08987702661623E-18
vn 0.996539 0.083124 -5.08987702661623E-18
vn 0.996539 0.083124 -5.08987702661623E-18
vn 0.996539 0.083124 -5.08987702661623E-18
vn 0.332711 -0.943029 5.774387231765647E-17
vn 0.564735 -0.825272 1.0000000000505333E-06
vn 0.564735 -0.825272 1.0000000000505333E-06
vn 0.057942 -0.99832 6.112946962623928E-17
vn -0.070028 -0.997545 6.108201456277232E-17
vn 0.332711 -0.943029 5.774387231765647E-17
vn 0.065166 -0.997874 6.110216000261829E-17
vn 0.43213 -0.901811 1.00000000005522E-06
vn 0.654068 -0.756436 1.0000000000463183E-06
vn 0.531103 -0.847307 5.188259027225732E-17
vn 0.531103 -0.847307 5.188259027225732E-17
vn 0.531103 -0.847307 5.188259027225732E-17
vn 0.157432 -0.98753 6.046877267809929E-17
vn 0.157432 -0.98753 6.046877267809929E-17
vn -0.553692 0.832721 -0.00013700000000005098
vn -0.553744 0.832687 -0.000183000000000051
vn -0.553692 0.832721 -0.00013700000000005098
vn -0.553692 0.832721 -0.00013700000000005098
vn -0.911855 -0.410513 -0.00017899999999997486
vn -0.911805 -0.410624 -0.00026999999999997485
vn -0.911855 -0.410513 -0.00017899999999997486
vn -0.911855 -0.410513 -0.00017899999999997486
vn -0.90163 0.432509 -0.0003270000000000265
vn -0.901744 0.43227 -0.0006550000000000264
vn -0.90163 0.432509 -0.0003270000000000265
vn -0.90163 0.432509 -0.0003270000000000265
vn -0.996826 -0.079602 -0.0007599999999999952
vn -0.996802 -0.079892 -0.001519999999999995
vn -0.996826 -0.079602 -0.0007599999999999952
vn -0.996826 -0.079602 -0.0007599999999999952
vn -0.295291 0.955407 0.0002209999999999415
vn -0.295058 0.955479 0.0007379999999999415
vn -0.295291 0.955407 0.0002209999999999415
vn -0.295291 0.955407 0.0002209999999999415
vn 0.02999 0.99955 -0.0004780000000000612
vn 0.030023 0.999549 -0.0004090000000000612
vn 0.02999 0.99955 -0.0004780000000000612
vn 0.02999 0.99955 -0.0004780000000000612
vn -0.854997 0.518625 0.0029549999999999685
vn -0.854997 0.518624 0.0029549999999999685
vn -0.854997 0.518625 0.0029549999999999685
vn -0.854997 0.518625 0.0029549999999999685
vn -0.147757 0.989024 0.0006189999999999394
vn -0.147999 0.988988 0.00026699999999993943
vn -0.147757 0.989024 0.0006189999999999394
vn -0.147757 0.989024 0.0006189999999999394
vn 0.307449 0.951565 0.0005069999999999417
vn 0.307142 0.951664 -6.600000000005828E-05
vn 0.307449 0.951565 0.0005069999999999417
vn 0.307449 0.951565 0.0005069999999999417
vn 0.83964 0.543141 0.0013429999999999668
vn 0.839317 0.543642 0.0011299999999999665
vn 0.83964 0.543141 0.0013429999999999668
vn 0.83964 0.543141 0.0013429999999999668
vn -0.848164 -0.529734 3.2436852374976205E-17
vn -0.848218 -0.529647 -0.00016899999999996754
vn -0.848164 -0.529734 3.2436852374976205E-17
vn -0.848164 -0.529734 3.2436852374976205E-17
vn 0 -6.123233995736766E-17 -1
vn 0 -6.123233995736766E-17 -1
vn 0 -6.123233995736766E-17 -1
vn -0 -6.123233995736766E-17 -1
vn 0 -6.123233995736766E-17 -1
vn 0 -6.123233995736766E-17 -1
vn -0 -6.123233995736766E-17 -1
vn 0 -6.123233995736766E-17 -1
vn -0 -6.123233995736766E-17 -1
vn -0 -6.123233995736766E-17 -1
vn -0 -6.123233995736766E-17 -1
vn 0 -6.123233995736766E-17 -1
vn -0 -6.123233995736766E-17 -1
vn -0 -6.123233995736766E-17 -1
vn -0 -6.123233995736766E-17 -1
vn -0 -6.123233995736766E-17 -1
vn 0 -6.123233995736766E-17 -1
vn 0 -6.123233995736766E-17 -1
vn -0 -6.123233995736766E-17 -1
vn 0 -6.123233995736766E-17 -1
vn -0 -6.123233995736766E-17 -1
vn 0 -6.123233995736766E-17 -1
vn 0 -6.123233995736766E-17 -1
vn 0 -6.123233995736766E-17 -1
vn 0 -6.123233995736766E-17 -1
vn 0 -6.123233995736766E-17 -1
vn 0 -6.123233995736766E-17 -1
vn 1E-06 -6.123233995736766E-17 -1
vn 1E-06 -6.123233995736766E-17 -1
vn 1E-06 -6.123233995736766E-17 -1
vn 0 -6.123233995736766E-17 -1
vn 0 -6.123233995736766E-17 -1
vn -0 -6.123233995736766E-17 -1
vn 0 -6.123233995736766E-17 -1
vn 0 -6.123233995736766E-17 -1
vn -0.958369 0.285531 -1.7483731260367145E-17
vn -0.994157 0.107948 -6.609908633717924E-18
vn -0.994157 0.107947 -6.609847401377967E-18
vn -0.888237 0.459385 -2.8129218491315345E-17
vn -0.418692 0.908128 -5.560680242080438E-17
vn 0.262456 0.964944 -5.908577904782218E-17
vn -0.95837 0.285529 -1.748360879568723E-17
vn -0.994157 0.107943 -6.609602472018137E-18
vn -0.994157 0.107943 -6.609602472018137E-18
vn -0.888237 0.459386 -2.81292797236553E-17
vn -0.41869 0.908129 -5.560686365314434E-17
vn 0.262455 0.964944 -5.908577904782218E-17
vn 0 6.123233995736766E-17 1
vn -0 6.123233995736766E-17 1
vn 0 6.123233995736766E-17 1
vn -0 6.123233995736766E-17 1
vn -0 6.123233995736766E-17 1
vn -0 6.123233995736766E-17 1
vn 0 6.123233995736766E-17 1
vn 0 6.123233995736766E-17 1
vn -0 6.123233995736766E-17 1
vn 0 6.123233995736766E-17 1
vn -0 6.123233995736766E-17 1
vn -0 6.123233995736766E-17 1
vn 0 6.123233995736766E-17 1
vn 0 6.123233995736766E-17 1
vn -0 6.123233995736766E-17 1
vn -0 6.123233995736766E-17 1
vn -0 6.123233995736766E-17 1
vn -0 6.123233995736766E-17 1
vn -0 6.123233995736766E-17 1
vn -0 6.123233995736766E-17 1
vn -0 6.123233995736766E-17 1
vn 0 6.123233995736766E-17 1
vn -0 6.123233995736766E-17 1
vn -0 6.123233995736766E-17 1
vn -0 6.123233995736766E-17 1
vn -0 6.123233995736766E-17 1
vn -0 6.123233995736766E-17 1
vn -1E-06 6.123233995736766E-17 1
vn -1E-06 6.123233995736766E-17 1
vn -1E-06 6.123233995736766E-17 1
vn 0 6.123233995736766E-17 1
vn 0 6.123233995736766E-17 1
vn 0 6.123233995736766E-17 1
vn -0 6.123233995736766E-17 1
vn -0 6.123233995736766E-17 1
g 10 - Default
f 1/1/1 2/2/2 3/3/3
f 4/4/4 5/5/5 6/6/6
f 7/7/7 8/8/8 9/9/9
f 10/10/10 11/11/11 12/12/12
f 13/13/13 14/14/14 15/15/15
f 16/16/16 17/17/17 18/18/18
f 19/19/19 20/20/20 21/21/21
f 22/22/22 23/23/23 24/24/24
f 25/25/25 26/26/26 27/27/27
f 28/28/28 29/29/29 30/30/30
f 31/31/31 32/32/32 33/33/33
f 34/34/34 35/35/35 31/31/31
f 36/36/36 31/31/31 35/35/35
f 35/35/35 37/37/37 36/36/36
f 38/38/38 39/39/39 40/40/40
f 41/41/41 42/42/42 38/38/38
f 43/43/43 38/38/38 42/42/42
f 42/42/42 44/44/44 43/43/43
f 45/45/45 46/46/46 47/47/47
f 47/47/47 48/48/48 45/45/45
f 49/49/49 50/50/50 51/51/51
f 51/51/51 52/52/52 49/49/49
f 53/53/53 54/54/54 55/55/55
f 55/55/55 56/56/56 53/53/53
f 57/57/57 58/58/58 59/59/59
f 59/59/59 60/60/60 57/57/57
f 61/61/61 62/62/62 63/63/63
f 63/63/63 64/64/64 61/61/61
f 65/65/65 66/66/66 67/67/67
f 67/67/67 68/68/68 65/65/65
f 69/69/69 70/70/70 71/71/71
f 71/71/71 72/72/72 69/69/69
f 73/73/73 74/74/74 72/72/72
f 72/72/72 75/75/75 73/73/73
f 76/76/76 73/73/73 75/75/75
f 75/75/75 77/77/77 76/76/76
f 78/78/78 76/76/76 77/77/77
f 77/77/77 79/79/79 78/78/78
f 80/80/80 79/79/79 81/81/81
f 81/81/81 82/82/82 80/80/80
f 83/83/83 84/84/84 85/85/85
f 85/85/85 86/86/86 83/83/83
f 87/87/87 88/88/88 89/89/89
f 89/89/89 90/90/90 87/87/87
f 91/91/91 92/92/92 93/93/93
f 93/93/93 94/94/94 91/91/91
f 95/95/95 96/96/96 97/97/97
f 97/97/97 98/98/98 95/95/95
f 99/99/99 100/100/100 101/101/101
f 101/101/101 102/102/102 99/99/99
f 103/103/103 104/104/104 105/105/105
f 105/105/105 106/106/106 103/103/103
f 107/107/107 108/108/108 109/109/109
f 109/109/109 110/110/110 107/107/107
f 111/111/111 112/112/112 113/113/113
f 113/113/113 114/114/114 111/111/111
f 115/115/115 116/116/116 117/117/117
f 117/117/117 118/118/118 115/115/115
f 119/119/119 120/120/120 121/121/121
f 121/121/121 122/122/122 119/119/119
f 123/123/123 124/124/124 125/125/125
f 125/125/125 126/126/126 123/123/123
f 127/127/127 128/128/128 129/129/129
f 128/128/128 130/130/130 129/129/129
f 130/130/130 128/128/128 131/131/131
f 131/131/131 132/132/132 130/130/130
f 133/133/133 130/130/130 132/132/132
f 132/132/132 134/134/134 133/133/133
f 135/135/135 130/130/130 133/133/133
f 136/136/136 134/134/134 132/132/132
f 130/130/130 135/135/135 137/137/137
f 132/132/132 138/138/138 136/136/136
f 139/139/139 136/136/136 138/138/138
f 138/138/138 140/140/140 139/139/139
f 137/137/137 140/140/140 138/138/138
f 137/137/137 141/141/141 130/130/130
f 130/130/130 141/141/141 142/142/142
f 138/138/138 141/141/141 137/137/137
f 143/143/143 141/141/141 138/138/138
f 144/144/144 141/141/141 143/143/143
f 138/138/138 145/145/145 143/143/143
f 143/143/143 146/146/146 144/144/144
f 147/147/147 145/145/145 138/138/138
f 148/148/148 144/144/144 146/146/146
f 138/138/138 149/149/149 147/147/147
f 146/146/146 150/150/150 148/148/148
f 151/151/151 149/149/149 138/138/138
f 150/150/150 146/146/146 152/152/152
f 149/149/149 151/151/151 153/153/153
f 152/152/152 153/153/153 151/151/151
f 152/152/152 154/154/154 150/150/150
f 151/151/151 154/154/154 152/152/152
f 155/155/155 150/150/150 154/154/154
f 156/156/156 155/155/155 154/154/154
f 154/154/154 151/151/151 157/157/157
f 157/157/157 151/151/151 158/158/158
f 158/158/158 159/159/159 157/157/157
f 158/158/158 151/151/151 160/160/160
f 160/160/160 161/161/161 158/158/158
f 162/162/162 163/163/163 164/164/164
f 164/164/164 165/165/165 162/162/162
f 166/166/166 162/162/162 165/165/165
f 165/165/165 167/167/167 166/166/166
f 168/168/168 169/169/169 170/170/170
f 170/170/170 171/171/171 168/168/168
f 172/172/172 168/168/168 171/171/171
f 171/171/171 173/173/173 172/172/172
f 174/174/174 175/175/175 176/176/176
f 177/177/177 174/174/174 176/176/176
f 178/178/178 174/174/174 177/177/177
f 177/177/177 179/179/179 178/178/178
f 179/179/179 177/177/177 180/180/180
f 180/180/180 181/181/181 179/179/179
f 177/177/177 182/182/182 180/180/180
f 179/179/179 181/181/181 183/183/183
f 184/184/184 182/182/182 177/177/177
f 183/183/183 185/185/185 179/179/179
f 185/185/185 183/183/183 186/186/186
f 186/186/186 187/187/187 185/185/185
f 185/185/185 187/187/187 184/184/184
f 177/177/177 188/188/188 184/184/184
f 188/188/188 177/177/177 189/189/189
f 184/184/184 188/188/188 185/185/185
f 185/185/185 188/188/188 190/190/190
f 190/190/190 188/188/188 191/191/191
f 190/190/190 192/192/192 185/185/185
f 191/191/191 193/193/193 190/190/190
f 185/185/185 192/192/192 194/194/194
f 193/193/193 191/191/191 195/195/195
f 194/194/194 196/196/196 185/185/185
f 195/195/195 197/197/197 193/193/193
f 196/196/196 198/198/198 185/185/185
f 199/199/199 193/193/193 197/197/197
f 198/198/198 196/196/196 200/200/200
f 198/198/198 200/200/200 199/199/199
f 197/197/197 201/201/201 199/199/199
f 199/199/199 201/201/201 198/198/198
f 197/197/197 202/202/202 201/201/201
f 202/202/202 203/203/203 201/201/201
f 198/198/198 201/201/201 204/204/204
f 205/205/205 198/198/198 204/204/204
f 204/204/204 206/206/206 205/205/205
f 207/207/207 198/198/198 205/205/205
f 205/205/205 208/208/208 207/207/207
