v -0.427573 -0.241176 -0.07447099999999998
v -0.494323 -0.284192 -0.07447099999999998
v -0.494323 -0.284192 0.18019300000000002
v -0.427573 -0.241176 0.18019300000000002
v 0.502137 -0.284192 -0.07447099999999998
v 0.435387 -0.241176 -0.07447099999999998
v 0.435387 -0.241176 0.18019300000000002
v 0.502137 -0.284192 0.18019300000000002
v 0.435387 0.224932 -0.07447100000000001
v 0.502137 0.267948 -0.07447100000000001
v 0.502137 0.267948 0.18019299999999996
v 0.435387 0.224932 0.180193
v -0.494323 0.267948 -0.07447100000000001
v -0.427573 0.224932 -0.07447100000000001
v -0.427573 0.224932 0.180193
v -0.494323 0.267948 0.18019299999999996
v 0.501747 -0.009564999999999995 0.091318
v 0.501747 -0.009565000000000002 -0.017211
v 0.435099 0.233453 -0.017211000000000014
v 0.435099 0.233453 0.09131799999999998
v -0.426536 0.233452 0.09131799999999998
v -0.426536 0.233452 -0.017211000000000014
v -0.493184 -0.009565000000000002 -0.017211
v -0.493184 -0.009564999999999995 0.091318
v -0.493184 -0.009564999999999995 0.091318
v -0.493184 -0.009565000000000002 -0.017211
v -0.426536 -0.252582 -0.017210999999999987
v -0.426536 -0.252582 0.09131800000000001
v 0.435099 -0.252582 0.09131800000000001
v 0.4351 -0.252582 -0.017210999999999987
v 0.501747 -0.009565000000000002 -0.017211
v 0.501747 -0.009564999999999995 0.091318
v -0.427573 -0.241176 0.18019300000000002
v -0.494323 -0.284192 0.18019300000000002
v -0.427573 -0.44096 0.18019300000000002
v -0.245208 -0.41935 0.18019300000000002
v -0.245208 -0.619134 0.18019300000000002
v 0.003907 -0.484567 0.18019300000000002
v 0.003907 -0.684351 0.18019300000000005
v 0.253022 -0.619134 0.18019300000000002
v 0.253022 -0.419351 0.18019300000000002
v 0.435387 -0.44096 0.18019300000000002
v 0.435387 -0.241176 0.18019300000000002
v 0.502137 -0.284192 0.18019300000000002
v -0.494323 -0.284192 0.18019300000000002
v -0.494323 -0.284192 -0.07447099999999998
v -0.427573 -0.44096 -0.07447099999999997
v -0.427573 -0.44096 0.18019300000000002
v -0.245208 -0.619134 -0.07447099999999995
v -0.245208 -0.619134 0.18019300000000002
v 0.003907 -0.684351 -0.07447099999999995
v 0.003907 -0.684351 0.18019300000000005
v 0.253022 -0.619134 -0.07447099999999995
v 0.253022 -0.619134 0.18019300000000002
v 0.435387 -0.44096 -0.07447099999999997
v 0.435387 -0.44096 0.18019300000000002
v 0.502137 -0.284192 -0.07447099999999998
v 0.502137 -0.284192 0.18019300000000002
v 0.435387 0.224932 0.180193
v 0.502137 0.267948 0.18019299999999996
v 0.435387 0.424716 0.18019299999999996
v 0.253022 0.403106 0.18019299999999996
v 0.253022 0.60289 0.18019299999999996
v 0.003907 0.468323 0.18019299999999996
v 0.003907 0.668107 0.18019299999999996
v -0.245208 0.60289 0.18019299999999996
v -0.245208 0.403106 0.18019299999999996
v -0.427573 0.424716 0.18019299999999996
v -0.427573 0.224932 0.180193
v -0.494323 0.267948 0.18019299999999996
v 0.502137 0.267948 0.18019299999999996
v 0.502137 0.267948 -0.07447100000000001
v 0.435387 0.424716 -0.07447100000000002
v 0.435387 0.424716 0.18019299999999996
v 0.253022 0.60289 -0.07447100000000004
v 0.253022 0.60289 0.18019299999999996
v 0.003907 0.668107 -0.07447100000000004
v 0.003907 0.668107 0.18019299999999996
v -0.245208 0.60289 -0.07447100000000004
v -0.245208 0.60289 0.18019299999999996
v -0.427573 0.424716 -0.07447100000000002
v -0.427573 0.424716 0.18019299999999996
v -0.494323 0.267948 -0.07447100000000001
v -0.494323 0.267948 0.18019299999999996
v -0.245208 -0.41935 -0.07447099999999997
v -0.427573 -0.241176 -0.07447099999999998
v -0.427573 -0.241176 0.18019300000000002
v -0.245208 -0.41935 0.18019300000000002
v 0.003907 -0.484567 -0.07447099999999997
v 0.003907 -0.484567 0.18019300000000002
v 0.253022 -0.41935 -0.07447099999999997
v 0.253022 -0.419351 0.18019300000000002
v 0.435387 -0.241176 -0.07447099999999998
v 0.435387 -0.241176 0.18019300000000002
v 0.253022 0.403106 -0.07447100000000002
v 0.435387 0.224932 -0.07447100000000001
v 0.435387 0.224932 0.180193
v 0.253022 0.403106 0.18019299999999996
v 0.003907 0.468323 -0.07447100000000002
v 0.003907 0.468323 0.18019299999999996
v -0.245208 0.403106 -0.07447100000000002
v -0.245208 0.403106 0.18019299999999996
v -0.427573 0.224932 -0.07447100000000001
v -0.427573 0.224932 0.180193
v 0.37636 0.20031899999999997 -0.282104
v 0.433921 -0.009565000000000018 -0.282104
v 0.433921 -0.009564999999999995 0.091318
v 0.37636 0.200319 0.09131799999999998
v 0.219101 0.353964 -0.282104
v 0.219101 0.353964 0.09131799999999997
v 0.004282 0.410202 -0.282104
v 0.004282 0.410202 0.09131799999999997
v -0.210538 0.353964 -0.282104
v -0.210538 0.353964 0.09131799999999997
v -0.367797 0.20031799999999997 -0.282104
v -0.367797 0.200318 0.09131799999999998
v -0.425357 -0.009565000000000018 -0.282104
v -0.425357 -0.009564999999999995 0.091318
v -0.367796 -0.21944800000000003 -0.282104
v -0.367796 -0.219448 0.09131800000000001
v -0.210538 -0.373093 -0.282104
v -0.210538 -0.373093 0.09131800000000002
v 0.004282 -0.429331 -0.282104
v 0.004282 -0.429331 0.09131800000000002
v 0.219101 -0.373093 -0.282104
v 0.219101 -0.373093 0.09131800000000002
v 0.37636 -0.21944800000000003 -0.282104
v 0.37636 -0.219448 0.09131800000000001
v 0.433921 -0.009565000000000018 -0.282104
v 0.433921 -0.009564999999999995 0.091318
v 0.219101 0.353964 -0.282104
v 0.433921 -0.009565000000000018 -0.282104
v 0.37636 0.20031899999999997 -0.282104
v 0.004282 0.410202 -0.282104
v -0.210538 0.353964 -0.282104
v 0.219101 -0.373093 -0.282104
v 0.37636 -0.21944800000000003 -0.282104
v -0.367797 0.20031799999999997 -0.282104
v -0.425357 -0.009565000000000018 -0.282104
v -0.210538 -0.373093 -0.282104
v 0.004282 -0.429331 -0.282104
v -0.367796 -0.21944800000000003 -0.282104
v 0.433921 -0.009564999999999995 0.091318
v 0.501747 -0.009564999999999995 0.091318
v 0.435099 0.233453 0.09131799999999998
v 0.37636 0.200319 0.09131799999999998
v 0.37636 -0.219448 0.09131800000000001
v 0.253014 0.411353 0.09131799999999997
v 0.435099 -0.252582 0.09131800000000001
v 0.219101 0.353964 0.09131799999999997
v 0.219101 -0.373093 0.09131800000000002
v 0.004282 0.476469 0.09131799999999997
v 0.253015 -0.430482 0.09131800000000002
v 0.004282 0.410202 0.09131799999999997
v 0.004282 -0.429331 0.09131800000000002
v -0.244451 0.411353 0.09131799999999997
v 0.004282 -0.495599 0.09131800000000002
v -0.210538 0.353964 0.09131799999999997
v -0.210538 -0.373093 0.09131800000000002
v -0.426536 0.233452 0.09131799999999998
v -0.244451 -0.430482 0.09131800000000002
v -0.367797 0.200318 0.09131799999999998
v -0.367796 -0.219448 0.09131800000000001
v -0.493184 -0.009564999999999995 0.091318
v -0.426536 -0.252582 0.09131800000000001
v -0.425357 -0.009564999999999995 0.091318
v 0.529718 0.291835 0.23229999999999998
v 0.353557 0.34233 0.23229999999999998
v 0.415464 0.23419900000000002 0.297511
v 0.362184 0.344924 0.23229999999999998
v 0.518269 0.24890400000000001 0.23229999999999998
v 0.487731 0.369702 0.297511
v 0.630063 0.400644 0.19238299999999997
v 0.356197 0.479145 0.19238299999999997
v 0.443388 0.285288 0.22963999999999998
v 0.429426 0.11348800000000002 0.192383
v 0.621172 0.324197 0.19238299999999997
v 0.40875 0.331953 0.22963999999999998
v 0.296794 0.4358 0.19238299999999997
v 0.32049 0.151893 0.192383
v 0.470841 0.302152 0.22963999999999998
v 0.385771 0.515419 0.23229999999999998
v 0.275709 0.368897 0.23229999999999998
v 0.398816 0.388118 0.297511
v 0.276366 0.377882 0.23229999999999998
v 0.421785 0.489398 0.23229999999999998
v 0.298045 0.504 0.29751099999999997
v 0.319959 0.647999 0.19238299999999997
v 0.148853 0.42021 0.19238299999999997
v 0.361064 0.432442 0.22963999999999998
v 0.516556 0.358063 0.19238299999999997
v 0.388193 0.612401 0.19238299999999997
v 0.305108 0.416748 0.22963999999999998
v 0.168133 0.349246 0.19238299999999997
v 0.44179 0.270018 0.19238299999999997
v 0.355113 0.464106 0.22963999999999998
v 0.238342 0.419725 0.23229999999999998
v 0.256241 0.602104 0.23229999999999998
v 0.161047 0.521712 0.29751099999999997
v 0.260349 0.594086 0.23229999999999998
v 0.19405 0.423244 0.23229999999999998
v 0.30736 0.475066 0.29751099999999997
v 0.363462 0.340648 0.19238299999999997
v 0.39129 0.62418 0.19238299999999997
v 0.216334 0.503459 0.22963999999999998
v 0.044833 0.486211 0.19238299999999997
v 0.286666 0.335606 0.19238299999999997
v 0.255987 0.545944 0.22963999999999998
v 0.337942 0.674792 0.19238299999999997
v 0.062963 0.600286 0.19238299999999997
v 0.237872 0.479497 0.22963999999999998
v -0.009402 0.613535 0.23229999999999998
v 0.168943 0.571398 0.23229999999999998
v 0.102009 0.676491 0.29751099999999997
v 0.160448 0.5684 0.23229999999999998
v 1.1E-05 0.656958 0.23229999999999998
v 0.036208 0.537733 0.29751099999999997
v -0.104507 0.500117 0.19238299999999997
v 0.172755 0.434611 0.19238299999999997
v 0.076523 0.624143 0.22963999999999998
v 0.082372 0.79641 0.19238299999999994
v -0.099229 0.576898 0.19238299999999997
v 0.113322 0.579163 0.22963999999999998
v 0.230049 0.480708 0.19238299999999997
v 0.192997 0.763183 0.19238299999999994
v 0.049896 0.606004 0.22963999999999998
v -7.1E-05 0.403171 0.23229999999999998
v 0.078212 0.568864 0.23229999999999998
v -0.038498 0.525233 0.29751099999999997
v 0.079378 0.559931 0.23229999999999998
v -0.040589 0.421403 0.23229999999999998
v 0.083555 0.432031 0.297511
v 0.091104 0.286571 0.19238299999999997
v 0.212805 0.544163 0.19238299999999997
v 0.00741 0.489424 0.22963999999999998
v -0.159879 0.530949 0.19238299999999997
v 0.017097 0.30769 0.19238299999999997
v 0.059057 0.516071 0.22963999999999998
v 0.179621 0.609787 0.19238299999999997
v -0.104386 0.632252 0.19238299999999997
v 0.019619 0.459608 0.22963999999999998
v -0.255116 0.600578 0.23229999999999998
v -0.076993 0.55751 0.23229999999999998
v -0.143378 0.662952 0.29751099999999997
v -0.085505 0.554557 0.23229999999999998
v -0.245476 0.643952 0.23229999999999998
v -0.209902 0.52454 0.29751099999999997
v -0.350812 0.487659 0.19238299999999997
v -0.073897 0.420705 0.19238299999999997
v -0.169136 0.610738 0.22963999999999998
v -0.162387 0.782972 0.19238299999999994
v -0.345133 0.564412 0.19238299999999997
v -0.132573 0.565565 0.22963999999999998
v -0.016363 0.466502 0.19238299999999997
v -0.051937 0.749166 0.19238299999999994
v -0.195858 0.592738 0.22963999999999998
v -0.305999 0.500973 0.23229999999999998
v -0.27772 0.319913 0.23229999999999998
v -0.205655 0.421557 0.297511
v -0.283702 0.32665 0.23229999999999998
v -0.262234 0.508643 0.23229999999999998
v -0.358985 0.430131 0.297511
v -0.44692 0.546248 0.19238299999999997
v -0.402957 0.264766 0.19238299999999997
v -0.26375 0.425404 0.22963999999999998
v -0.102012 0.484994 0.19238299999999997
v -0.373824 0.570335 0.19238299999999997
v -0.291519 0.374352 0.22963999999999998
v -0.338647 0.229103 0.19238299999999997
v -0.091038 0.370009 0.19238299999999997
v -0.290596 0.443218 0.22963999999999998
v -0.550715 0.286684 0.23229999999999998
v -0.367577 0.28016 0.23229999999999998
v -0.453732 0.370171 0.297511
v -0.375324 0.275562 0.23229999999999998
v -0.549957 0.331109 0.23229999999999998
v -0.49119 0.22124000000000002 0.297511
v -0.62186 0.156888 0.192383
v -0.337146 0.146745 0.192383
v -0.468513 0.313856 0.22963999999999998
v -0.496392 0.483952 0.19238299999999997
v -0.631667 0.233222 0.19238299999999997
v -0.423644 0.276921 0.22963999999999998
v -0.289948 0.203137 0.192383
v -0.38141 0.472951 0.19238299999999997
v -0.491089 0.29087 0.22963999999999998
v -0.404364 -0.432647 0.23230000000000003
v -0.386465 -0.250268 0.23230000000000003
v -0.481659 -0.33066 0.297511
v -0.382357 -0.258286 0.23230000000000003
v -0.448656 -0.429128 0.23230000000000003
v -0.335346 -0.377306 0.297511
v -0.279244 -0.511725 0.19238300000000003
v -0.251416 -0.228192 0.19238300000000003
v -0.426372 -0.348913 0.22964000000000004
v -0.597873 -0.366161 0.19238300000000003
v -0.35604 -0.516766 0.19238300000000003
v -0.386718 -0.306428 0.22964000000000004
v -0.304764 -0.17758 0.192383
v -0.579743 -0.252086 0.19238300000000003
v -0.404834 -0.372875 0.22964000000000004
v -0.257157 -0.5404 0.23230000000000003
v -0.239258 -0.358021 0.23230000000000003
v -0.334452 -0.438413 0.297511
v -0.23515 -0.36604 0.23230000000000003
v -0.301449 -0.536881 0.23230000000000003
v -0.188139 -0.48506 0.2975110000000001
v -0.132037 -0.619478 0.19238300000000003
v -0.104209 -0.335946 0.19238300000000003
v -0.279165 -0.456667 0.22964000000000004
v -0.450666 -0.473915 0.19238300000000003
v -0.208833 -0.624519 0.19238300000000003
v -0.239511 -0.414181 0.22964000000000004
v -0.157557 -0.285333 0.19238300000000003
v -0.432536 -0.359839 0.19238300000000003
v -0.257627 -0.480628 0.22964000000000004
v 0.065725 -0.465334 0.23230000000000003
v -0.098515 -0.546622 0.23230000000000003
v 0.020065 -0.584879 0.2975110000000001
v -0.093883 -0.538894 0.23230000000000003
v 0.086169 -0.504783 0.23230000000000003
v -0.017749 -0.436038 0.297511
v 0.066643 -0.317321 0.19238300000000003
v -0.188689 -0.443694 0.19238300000000003
v 0.006309 -0.528305 0.22964000000000004
v 0.111669 -0.66472 0.19238300000000003
v 0.111547 -0.379826 0.19238300000000003
v -0.050722 -0.517129 0.22964000000000004
v -0.20342 -0.51574 0.19238300000000003
v 0.005271 -0.709681 0.19238300000000005
v 0.01525 -0.497352 0.22964000000000004
v -0.115789 -0.652156 0.23230000000000003
v -0.264218 -0.544679 0.23230000000000003
v -0.242842 -0.66743 0.2975110000000001
v -0.255223 -0.545179 0.23230000000000003
v -0.141175 -0.688621 0.23230000000000006
v -0.128744 -0.564644 0.2975110000000001
v 0.015617 -0.58403 0.19238300000000003
v -0.215136 -0.416943 0.19238300000000003
v -0.199187 -0.628908 0.22964000000000004
v -0.270829 -0.78568 0.19238300000000005
v -0.01878 -0.652878 0.19238300000000003
v -0.215859 -0.573235 0.22964000000000004
v -0.285752 -0.437465 0.19238300000000003
v -0.360171 -0.712468 0.19238300000000005
v -0.167631 -0.622402 0.22964000000000004
v 0.086463 -0.49208 0.23230000000000003
v 0.12827 -0.670502 0.23230000000000003
v 0.192492 -0.56373 0.2975110000000001
v 0.121798 -0.664235 0.23230000000000003
v 0.129527 -0.481143 0.23230000000000003
v 0.038951 -0.566704 0.2975110000000001
v -0.057462 -0.457525 0.19238300000000003
v 0.007533 -0.734906 0.19238300000000005
v 0.134272 -0.564259 0.22964000000000004
v 0.291073 -0.492682 0.19238300000000003
v 0.013616 -0.428013 0.19238300000000003
v 0.110419 -0.617254 0.22964000000000004
v 0.074341 -0.765635 0.19238300000000005
v 0.310659 -0.606517 0.19238300000000003
v 0.106163 -0.548514 0.22964000000000004
v 0.185812 -0.417374 0.23230000000000003
v 0.332725 -0.526914 0.23230000000000003
v 0.313066 -0.403876 0.297511
v 0.323738 -0.526289 0.23230000000000003
v 0.211706 -0.381267 0.23230000000000003
v 0.197543 -0.505058 0.2975110000000001
v 0.053468 -0.483658 0.19238300000000003
v 0.281864 -0.653951 0.19238300000000003
v 0.268877 -0.441785 0.22964000000000004
v 0.342702 -0.286029 0.19238300000000003
v 0.088823 -0.415297 0.19238300000000003
v 0.28477 -0.497685 0.22964000000000004
v 0.352759 -0.634419 0.19238300000000003
v 0.431013 -0.360482 0.19238300000000003
v 0.237234 -0.447849 0.22964000000000004
v 0.312498 -0.410508 0.23230000000000003
v 0.488044 -0.357916 0.23230000000000003
v 0.37756 -0.300314 0.297511
v 0.482182 -0.364757 0.23230000000000003
v 0.29896 -0.368189 0.23230000000000003
v 0.389876 -0.453388 0.2975110000000001
v 0.286769 -0.55627 0.19238300000000003
v 0.559679 -0.474509 0.19238300000000003
v 0.381633 -0.358393 0.22964000000000004
v 0.300643 -0.20624 0.192383
v 0.252984 -0.48712 0.19238300000000003
v 0.435982 -0.378976 0.22964000000000004
v 0.586284 -0.405953 0.19238300000000003
v 0.413075 -0.17976 0.192383
v 0.367628 -0.387408 0.22964000000000004
v -0.4553 0.436931 0.04119899999999997
v -0.4553 -0.447418 0.04119900000000003
v 0.460633 -0.447418 0.04119900000000003
v 0.460633 0.436931 0.04119899999999997
v -0.032815 -0.102385 0.040649000000000005
v -0.040665 -0.03573699999999999 0.067139
v -0.099282 -0.111636 0.067139
v 0.033653 -0.093134 0.067139
v -0.024965 -0.169032 0.06713900000000002
v -0.213504 -0.06771 0.040649000000000005
v -0.221354 -0.0010619999999999959 0.067139
v -0.279971 -0.076961 0.067139
v -0.147036 -0.05845899999999999 0.067139
v -0.205654 -0.134357 0.06713900000000002
v 0.189714 -0.060412 0.040649000000000005
v 0.181864 0.006235000000000004 0.067139
v 0.123247 -0.069663 0.067139
v 0.256182 -0.05116099999999999 0.067139
v 0.197564 -0.12706 0.06713900000000002
v -0.049625 0.100753 0.04064899999999999
v 0.021841 0.17073 0.06713899999999999
v -0.121092 0.17073 0.06713899999999999
v 0.021841 0.030775000000000004 0.067139
v -0.121092 0.030775000000000004 0.067139
v 0.200484 0.140219 0.04064899999999999
v 0.192634 0.206866 0.06713899999999999
v 0.134016 0.130968 0.06713899999999999
v 0.266951 0.14947 0.06713899999999999
v 0.208334 0.073571 0.067139
vt 0.772276 0.838472
vt 0.689854 0.838472
vt 0.689854 0.729186
vt 0.772276 0.729186
vt 0.677094 0.834826
vt 0.598495 0.834826
vt 0.598495 0.726632
vt 0.677095 0.726632
vt 0.682414 0.933565
vt 0.682414 0.845778
vt 0.809715 0.845778
vt 0.809715 0.933565
vt 0.853669 0.839509
vt 0.781705 0.839509
vt 0.781705 0.727995
vt 0.853669 0.727995
vt 0.753848 0.651615
vt 0.753848 0.707049
vt 0.904372 0.707049
vt 0.904372 0.651615
vt 0.904372 0.651615
vt 0.904372 0.707049
vt 0.753848 0.707049
vt 0.753848 0.651615
vt 0.753848 0.651615
vt 0.753848 0.707049
vt 0.603324 0.707049
vt 0.603324 0.651615
vt 0.603324 0.651615
vt 0.603324 0.707049
vt 0.753848 0.707049
vt 0.753848 0.651615
vt 0.037900 0.584419
vt 0.004526 0.566972
vt 0.036877 0.501352
vt 0.127565 0.509138
vt 0.126542 0.426071
vt 0.250961 0.480385
vt 0.249938 0.397318
vt 0.374003 0.422797
vt 0.375025 0.505864
vt 0.465492 0.495680
vt 0.466515 0.578747
vt 0.499448 0.560423
vt 0.994201 0.253573
vt 0.994201 0.389151
vt 0.887128 0.389151
vt 0.887128 0.253573
vt 0.726749 0.387841
vt 0.726749 0.252263
vt 0.503554 0.389151
vt 0.503554 0.253572
vt 0.302002 0.389151
vt 0.302002 0.253573
vt 0.117549 0.389151
vt 0.117549 0.253573
vt 0.012907 0.389151
vt 0.012907 0.253573
vt 0.037900 0.584419
vt 0.004526 0.566972
vt 0.036877 0.501352
vt 0.127565 0.509138
vt 0.126542 0.426071
vt 0.250961 0.480385
vt 0.249938 0.397318
vt 0.374003 0.422797
vt 0.375025 0.505864
vt 0.465492 0.495680
vt 0.466515 0.578747
vt 0.499448 0.560423
vt 0.994201 0.253573
vt 0.994201 0.389151
vt 0.887128 0.389151
vt 0.887128 0.253573
vt 0.726749 0.387841
vt 0.726749 0.252263
vt 0.503554 0.389151
vt 0.503554 0.253572
vt 0.302002 0.389151
vt 0.302002 0.253573
vt 0.117549 0.389151
vt 0.117549 0.253573
vt 0.012907 0.389151
vt 0.012907 0.253573
vt 0.600509 0.511797
vt 0.496072 0.511797
vt 0.496072 0.405524
vt 0.600509 0.405524
vt 0.743172 0.511797
vt 0.743172 0.405524
vt 0.885836 0.511797
vt 0.885836 0.405524
vt 0.990273 0.511797
vt 0.990273 0.405524
vt 0.600509 0.511797
vt 0.496072 0.511797
vt 0.496072 0.405524
vt 0.600509 0.405524
vt 0.743172 0.511797
vt 0.743172 0.405524
vt 0.885836 0.511797
vt 0.885836 0.405524
vt 0.990273 0.511797
vt 0.990273 0.405524
vt 0.910697 0.241924
vt 0.992957 0.241924
vt 0.992957 0.012740
vt 0.910697 0.012740
vt 0.828436 0.241924
vt 0.828436 0.012740
vt 0.746176 0.241924
vt 0.746176 0.012740
vt 0.663916 0.241924
vt 0.663916 0.012740
vt 0.581656 0.241924
vt 0.581656 0.012740
vt 0.499396 0.241924
vt 0.499396 0.012740
vt 0.417136 0.241924
vt 0.417136 0.012740
vt 0.334876 0.241924
vt 0.334876 0.012740
vt 0.252616 0.241924
vt 0.252616 0.012740
vt 0.170355 0.241924
vt 0.170355 0.012740
vt 0.088095 0.241924
vt 0.088095 0.012740
vt 0.005835 0.241924
vt 0.005835 0.012740
vt 0.466995 0.626978
vt 0.250262 0.502638
vt 0.375393 0.535955
vt 0.500524 0.751319
vt 0.466995 0.875659
vt 0.033529 0.626978
vt 0.125131 0.535954
vt 0.375393 0.966683
vt 0.250262 1.000000
vt 0.033529 0.875659
vt 0.000000 0.751319
vt 0.125131 0.966683
vt 0.967128 0.760961
vt 1.000000 0.760961
vt 0.967699 0.880480
vt 0.939232 0.864185
vt 0.939232 0.657737
vt 0.879453 0.967975
vt 0.967699 0.641441
vt 0.863017 0.939750
vt 0.863017 0.582171
vt 0.758906 1.000000
vt 0.879453 0.553946
vt 0.758906 0.967408
vt 0.758906 0.554513
vt 0.638359 0.967975
vt 0.758906 0.521921
vt 0.654794 0.939750
vt 0.654794 0.582171
vt 0.550112 0.880480
vt 0.638359 0.553946
vt 0.578580 0.864184
vt 0.578580 0.657737
vt 0.517811 0.760961
vt 0.550112 0.641441
vt 0.550683 0.760961
vt 0.236908 0.836915
vt 0.016878 0.859748
vt 0.115402 0.737620
vt 0.236908 0.836915
vt 0.016878 0.859748
vt 0.115402 0.737620
vt 0.129057 0.505871
vt 0.524184 0.516121
vt 0.322592 0.765301
vt 0.129057 0.505871
vt 0.524184 0.516121
vt 0.322592 0.765301
vt 0.129057 0.505871
vt 0.524184 0.516121
vt 0.322592 0.765301
vt 0.236908 0.836915
vt 0.016878 0.859748
vt 0.115402 0.737620
vt 0.236908 0.836915
vt 0.016878 0.859748
vt 0.115402 0.737620
vt 0.129057 0.505871
vt 0.524184 0.516121
vt 0.322592 0.765301
vt 0.129057 0.505871
vt 0.524184 0.516121
vt 0.322592 0.765301
vt 0.129057 0.505871
vt 0.524184 0.516121
vt 0.322592 0.765301
vt 0.236908 0.836915
vt 0.016878 0.859748
vt 0.115402 0.737620
vt 0.236908 0.836915
vt 0.016878 0.859748
vt 0.115402 0.737620
vt 0.129057 0.505871
vt 0.524184 0.516121
vt 0.322592 0.765301
vt 0.129057 0.505871
vt 0.524184 0.516121
vt 0.322592 0.765301
vt 0.129057 0.505871
vt 0.524184 0.516121
vt 0.322592 0.765301
vt 0.236908 0.836915
vt 0.016878 0.859748
vt 0.115402 0.737620
vt 0.236908 0.836915
vt 0.016878 0.859748
vt 0.115402 0.737620
vt 0.129057 0.505871
vt 0.524184 0.516121
vt 0.322592 0.765301
vt 0.129057 0.505871
vt 0.524184 0.516121
vt 0.322592 0.765301
vt 0.129057 0.505871
vt 0.524184 0.516121
vt 0.322592 0.765301
vt 0.236908 0.836915
vt 0.016878 0.859748
vt 0.115402 0.737620
vt 0.236908 0.836915
vt 0.016878 0.859748
vt 0.115402 0.737620
vt 0.129057 0.505871
vt 0.524184 0.516121
vt 0.322592 0.765301
vt 0.129057 0.505871
vt 0.524184 0.516121
vt 0.322592 0.765301
vt 0.129057 0.505871
vt 0.524184 0.516121
vt 0.322592 0.765301
vt 0.236908 0.836915
vt 0.016878 0.859748
vt 0.115402 0.737620
vt 0.236908 0.836915
vt 0.016878 0.859748
vt 0.115402 0.737620
vt 0.129057 0.505871
vt 0.524184 0.516121
vt 0.322592 0.765301
vt 0.129057 0.505871
vt 0.524184 0.516121
vt 0.322592 0.765301
vt 0.129057 0.505871
vt 0.524184 0.516121
vt 0.322592 0.765301
vt 0.236908 0.836915
vt 0.016878 0.859748
vt 0.115402 0.737620
vt 0.236908 0.836915
vt 0.016878 0.859748
vt 0.115402 0.737620
vt 0.129057 0.505871
vt 0.524184 0.516121
vt 0.322592 0.765301
vt 0.129057 0.505871
vt 0.524184 0.516121
vt 0.322592 0.765301
vt 0.129057 0.505871
vt 0.524184 0.516121
vt 0.322592 0.765301
vt 0.236908 0.836915
vt 0.016878 0.859748
vt 0.115402 0.737620
vt 0.236908 0.836915
vt 0.016878 0.859748
vt 0.115402 0.737620
vt 0.129057 0.505871
vt 0.524184 0.516121
vt 0.322592 0.765301
vt 0.129057 0.505871
vt 0.524184 0.516121
vt 0.322592 0.765301
vt 0.129057 0.505871
vt 0.524184 0.516121
vt 0.322592 0.765301
vt 0.236908 0.836915
vt 0.016878 0.859748
vt 0.115402 0.737620
vt 0.236908 0.836915
vt 0.016878 0.859748
vt 0.115402 0.737620
vt 0.129057 0.505871
vt 0.524184 0.516121
vt 0.322592 0.765301
vt 0.129057 0.505871
vt 0.524184 0.516121
vt 0.322592 0.765301
vt 0.129057 0.505871
vt 0.524184 0.516121
vt 0.322592 0.765301
vt 0.236908 0.836915
vt 0.016878 0.859748
vt 0.115402 0.737620
vt 0.236908 0.836915
vt 0.016878 0.859748
vt 0.115402 0.737620
vt 0.129057 0.505871
vt 0.524184 0.516121
vt 0.322592 0.765301
vt 0.129057 0.505871
vt 0.524184 0.516121
vt 0.322592 0.765301
vt 0.129057 0.505871
vt 0.524184 0.516121
vt 0.322592 0.765301
vt 0.236908 0.836915
vt 0.016878 0.859748
vt 0.115402 0.737620
vt 0.236908 0.836915
vt 0.016878 0.859748
vt 0.115402 0.737620
vt 0.129057 0.505871
vt 0.524184 0.516121
vt 0.322592 0.765301
vt 0.129057 0.505871
vt 0.524184 0.516121
vt 0.322592 0.765301
vt 0.129057 0.505871
vt 0.524184 0.516121
vt 0.322592 0.765301
vt 0.236908 0.836915
vt 0.016878 0.859748
vt 0.115402 0.737620
vt 0.236908 0.836915
vt 0.016878 0.859748
vt 0.115402 0.737620
vt 0.129057 0.505871
vt 0.524184 0.516121
vt 0.322592 0.765301
vt 0.129057 0.505871
vt 0.524184 0.516121
vt 0.322592 0.765301
vt 0.129057 0.505871
vt 0.524184 0.516121
vt 0.322592 0.765301
vt 0.236908 0.836915
vt 0.016878 0.859748
vt 0.115402 0.737620
vt 0.236908 0.836915
vt 0.016878 0.859748
vt 0.115402 0.737620
vt 0.129057 0.505871
vt 0.524184 0.516121
vt 0.322592 0.765301
vt 0.129057 0.505871
vt 0.524184 0.516121
vt 0.322592 0.765301
vt 0.129057 0.505871
vt 0.524184 0.516121
vt 0.322592 0.765301
vt 0.236908 0.836915
vt 0.016878 0.859748
vt 0.115402 0.737620
vt 0.236908 0.836915
vt 0.016878 0.859748
vt 0.115402 0.737620
vt 0.129057 0.505871
vt 0.524184 0.516121
vt 0.322592 0.765301
vt 0.129057 0.505871
vt 0.524184 0.516121
vt 0.322592 0.765301
vt 0.129057 0.505871
vt 0.524184 0.516121
vt 0.322592 0.765301
vt 0.236908 0.836915
vt 0.016878 0.859748
vt 0.115402 0.737620
vt 0.236908 0.836915
vt 0.016878 0.859748
vt 0.115402 0.737620
vt 0.129057 0.505871
vt 0.524184 0.516121
vt 0.322592 0.765301
vt 0.129057 0.505871
vt 0.524184 0.516121
vt 0.322592 0.765301
vt 0.129057 0.505871
vt 0.524184 0.516121
vt 0.322592 0.765301
vt 0.513702 0.486298
vt 0.513702 0.012329
vt 0.991781 0.012329
vt 0.991781 0.486298
vt 0.109053 0.615039
vt 0.175084 0.676394
vt 0.043023 0.676394
vt 0.175084 0.553685
vt 0.043023 0.553685
vt 0.109053 0.615039
vt 0.175084 0.676394
vt 0.043023 0.676394
vt 0.175084 0.553685
vt 0.043023 0.553685
vt 0.109053 0.615039
vt 0.175084 0.676394
vt 0.043023 0.676394
vt 0.175084 0.553685
vt 0.043023 0.553685
vt 0.109053 0.615039
vt 0.175084 0.676394
vt 0.043023 0.676394
vt 0.175084 0.553685
vt 0.043023 0.553685
vt 0.109053 0.615039
vt 0.175084 0.676394
vt 0.043023 0.676394
vt 0.175084 0.553685
vt 0.043023 0.553685
vn -0.541696 0.840574 -5.147031292732437E-17
vn -0.541696 0.840574 -5.147031292732437E-17
vn -0.541696 0.840574 -5.147031292732437E-17
vn -0.541696 0.840574 -5.147031292732437E-17
vn 0.541696 0.840574 -5.147031292732437E-17
vn 0.541696 0.840574 -5.147031292732437E-17
vn 0.541696 0.840574 -5.147031292732437E-17
vn 0.541696 0.840574 -5.147031292732437E-17
vn 0.541696 -0.840574 5.147031292732437E-17
vn 0.541696 -0.840574 5.147031292732437E-17
vn 0.541696 -0.840574 5.147031292732437E-17
vn 0.541696 -0.840574 5.147031292732437E-17
vn -0.541696 -0.840575 5.147037415966432E-17
vn -0.541696 -0.840574 5.147031292732437E-17
vn -0.541696 -0.840575 5.147037415966432E-17
vn -0.541696 -0.840575 5.147037415966432E-17
vn 0.96439 0.264485 -1.6195035433624388E-17
vn 0.96439 0.264486 9.99999999983805E-07
vn 0.96439 0.264485 -1.6195035433624388E-17
vn 0.96439 0.264485 -1.6195035433624388E-17
vn -0.96439 0.264485 -1.6195035433624388E-17
vn -0.96439 0.264484 9.99999999983805E-07
vn -0.96439 0.264485 -1.6195035433624388E-17
vn -0.96439 0.264485 -1.6195035433624388E-17
vn -0.96439 -0.264485 1.6195035433624388E-17
vn -0.96439 -0.264485 1.6195035433624388E-17
vn -0.96439 -0.264485 1.6195035433624388E-17
vn -0.96439 -0.264485 1.6195035433624388E-17
vn 0.96439 -0.264485 1.000000000016195E-06
vn 0.96439 -0.264485 1.000000000016195E-06
vn 0.96439 -0.264485 1.000000000016195E-06
vn 0.96439 -0.264485 1.000000000016195E-06
vn -0 6.123233995736766E-17 1
vn -0 6.123233995736766E-17 1
vn -0 6.123233995736766E-17 1
vn 0 6.123233995736766E-17 1
vn 0 6.123233995736766E-17 1
vn 0 6.123233995736766E-17 1
vn 0 6.123233995736766E-17 1
vn 0 6.123233995736766E-17 1
vn 0 6.123233995736766E-17 1
vn -0 6.123233995736766E-17 1
vn 1E-06 6.123233995736766E-17 1
vn 1E-06 6.123233995736766E-17 1
vn -0.920069 -0.391757 2.3988197804678485E-17
vn -0.920069 -0.391757 2.3988197804678485E-17
vn -0.860779 -0.508978 3.116591392682108E-17
vn -0.785666 -0.618651 3.7881448346965457E-17
vn -0.566115 -0.824326 5.047540986769705E-17
vn -0.412966 -0.910746 5.576710868681277E-17
vn -0.086934 -0.996214 6.100051431828907E-17
vn 0.086934 -0.996214 6.100051431828907E-17
vn 0.412966 -0.910746 5.576710868681277E-17
vn 0.566115 -0.824326 5.047540986769705E-17
vn 0.785666 -0.618651 3.7881448346965457E-17
vn 0.860779 -0.508978 3.116591392682108E-17
vn 0.920069 -0.391757 2.3988197804678485E-17
vn 0.920069 -0.391757 2.3988197804678485E-17
vn 0 6.123233995736766E-17 1
vn 0 6.123233995736766E-17 1
vn 0 6.123233995736766E-17 1
vn -0 6.123233995736766E-17 1
vn -0 6.123233995736766E-17 1
vn 0 6.123233995736766E-17 1
vn 0 6.123233995736766E-17 1
vn -0 6.123233995736766E-17 1
vn -0 6.123233995736766E-17 1
vn 0 6.123233995736766E-17 1
vn -1E-06 6.123233995736766E-17 1
vn -1E-06 6.123233995736766E-17 1
vn 0.920069 0.391757 -2.3988197804678485E-17
vn 0.920069 0.391757 -2.3988197804678485E-17
vn 0.860779 0.508978 -3.116591392682108E-17
vn 0.785666 0.618651 -3.7881448346965457E-17
vn 0.566115 0.824326 -5.047540986769705E-17
vn 0.412966 0.910746 -5.576710868681277E-17
vn 0.086934 0.996214 -6.100051431828907E-17
vn -0.086934 0.996214 -6.100051431828907E-17
vn -0.412966 0.910746 -5.576710868681277E-17
vn -0.566115 0.824326 -5.047540986769705E-17
vn -0.785666 0.618651 -3.7881448346965457E-17
vn -0.86078 0.508978 -3.116591392682108E-17
vn -0.920069 0.391756 -2.3988136572338524E-17
vn -0.920069 0.391756 -2.3988136572338524E-17
vn 0.566115 0.824326 -5.047540986769705E-17
vn 0.698841 0.715277 -4.379808442768607E-17
vn 0.698841 0.715277 -4.379808442768607E-17
vn 0.412966 0.910746 -5.576710868681277E-17
vn 0.086934 0.996214 -6.100051431828907E-17
vn -0.086934 0.996214 -6.100051431828907E-17
vn -0.412966 0.910746 -5.576710868681277E-17
vn -0.566115 0.824326 -5.047540986769705E-17
vn -0.698841 0.715277 -4.379808442768607E-17
vn -0.698841 0.715277 -4.379808442768607E-17
vn -0.566115 -0.824326 5.047540986769705E-17
vn -0.698841 -0.715277 4.379808442768607E-17
vn -0.698841 -0.715277 4.379808442768607E-17
vn -0.412966 -0.910747 5.576716991915272E-17
vn -0.086933 -0.996214 6.100051431828907E-17
vn 0.086934 -0.996214 6.100051431828907E-17
vn 0.412966 -0.910746 5.576710868681277E-17
vn 0.566115 -0.824326 5.047540986769705E-17
vn 0.698841 -0.715277 4.379808442768607E-17
vn 0.698841 -0.715277 4.379808442768607E-17
vn -0.903271 -0.42907 2.6272960105507742E-17
vn -0.995847 0.091037 -5.57440853269888E-18
vn -0.995847 -0.091038 5.574469765038837E-18
vn -0.811747 -0.584009 3.576023762616233E-17
vn -0.566115 -0.824327 5.0475471100037016E-17
vn -0.412965 -0.910747 5.576716991915272E-17
vn -0.086933 -0.996214 6.100051431828907E-17
vn 0.086934 -0.996214 6.100051431828907E-17
vn 0.412966 -0.910746 5.576710868681277E-17
vn 0.566115 -0.824326 5.047540986769705E-17
vn 0.811748 -0.584008 3.576017639382237E-17
vn 0.903272 -0.429069 2.6272898873167782E-17
vn 0.995848 -0.091037 5.57440853269888E-18
vn 0.995847 0.091038 -5.574469765038837E-18
vn 0.903271 0.42907 -2.6272960105507742E-17
vn 0.811747 0.584009 -3.576023762616233E-17
vn 0.566115 0.824326 -5.047540986769705E-17
vn 0.412966 0.910746 -5.576710868681277E-17
vn 0.086934 0.996214 -6.100051431828907E-17
vn -0.086933 0.996214 -6.100051431828907E-17
vn -0.412966 0.910746 -5.576710868681277E-17
vn -0.566115 0.824326 -5.047540986769705E-17
vn -0.811747 0.584009 -3.576023762616233E-17
vn -0.903271 0.42907 -2.6272960105507742E-17
vn -0.995847 0.091037 -5.57440853269888E-18
vn -0.995847 -0.091038 5.574469765038837E-18
vn 0 6.123233995736766E-17 1
vn 0 6.123233995736766E-17 1
vn 0 6.123233995736766E-17 1
vn 0 6.123233995736766E-17 1
vn 0 6.123233995736766E-17 1
vn 0 6.123233995736766E-17 1
vn 0 6.123233995736766E-17 1
vn 0 6.123233995736766E-17 1
vn 0 6.123233995736766E-17 1
vn 0 6.123233995736766E-17 1
vn 0 6.123233995736766E-17 1
vn 0 6.123233995736766E-17 1
vn 0 6.123233995736766E-17 1
vn 0 6.123233995736766E-17 1
vn 0 6.123233995736766E-17 1
vn 0 6.123233995736766E-17 1
vn 0 6.123233995736766E-17 1
vn 0 6.123233995736766E-17 1
vn 0 6.123233995736766E-17 1
vn 0 6.123233995736766E-17 1
vn 0 6.123233995736766E-17 1
vn 0 6.123233995736766E-17 1
vn 0 6.123233995736766E-17 1
vn 0 6.123233995736766E-17 1
vn 0 6.123233995736766E-17 1
vn 0 6.123233995736766E-17 1
vn 0 6.123233995736766E-17 1
vn 0 6.123233995736766E-17 1
vn 0 6.123233995736766E-17 1
vn 0 6.123233995736766E-17 1
vn 0 6.123233995736766E-17 1
vn 0 6.123233995736766E-17 1
vn 0 6.123233995736766E-17 1
vn 0 6.123233995736766E-17 1
vn 0 6.123233995736766E-17 1
vn 0 6.123233995736766E-17 1
vn 0.165402 0.577033 0.799797
vn 0.165402 0.577033 0.799797
vn 0.165402 0.577033 0.799797
vn -0.314526 -0.511271 0.799797
vn -0.314526 -0.511271 0.799797
vn -0.314526 -0.511271 0.799797
vn 0.06164 0.21504000000000006 0.974658
vn 0.06164 0.21504000000000006 0.974658
vn 0.06164 0.21504000000000006 0.974658
vn 0.16545 -0.15055999999999994 0.974658
vn 0.16545 -0.15055999999999994 0.974658
vn 0.16545 -0.15055999999999994 0.974658
vn -0.222925 -0.01860699999999994 0.974658
vn -0.222925 -0.01860699999999994 0.974658
vn -0.222925 -0.01860699999999994 0.974658
vn -0.47995 0.36051800000000006 0.799797
vn -0.47995 0.36051800000000006 0.799797
vn -0.47995 0.36051800000000006 0.799797
vn 0.365281 -0.47633499999999995 0.799797
vn 0.365281 -0.47633499999999995 0.799797
vn 0.365281 -0.47633499999999995 0.799797
vn -0.178861 0.13435300000000006 0.974658
vn -0.178861 0.13435300000000006 0.974658
vn -0.178861 0.13435300000000006 0.974658
vn 0.199707 0.10079100000000006 0.974658
vn 0.199707 0.10079100000000006 0.974658
vn 0.199707 0.10079100000000006 0.974658
vn -0.06221 -0.21487599999999996 0.974658
vn -0.06221 -0.21487599999999996 0.974658
vn -0.06221 -0.21487599999999996 0.974658
vn 0.5974 -0.05863199999999995 0.799797
vn 0.5974 -0.05863199999999995 0.799797
vn 0.5974 -0.05863199999999995 0.799797
vn -0.559609 0.21717000000000006 0.799797
vn -0.559609 0.21717000000000006 0.799797
vn -0.559609 0.21717000000000006 0.799797
vn 0.222631 -0.021849999999999942 0.974658
vn 0.222631 -0.021849999999999942 0.974658
vn 0.222631 -0.021849999999999942 0.974658
vn -0.118255 -0.18988799999999995 0.974658
vn -0.118255 -0.18988799999999995 0.974658
vn -0.118255 -0.18988799999999995 0.974658
vn -0.058502 0.21591500000000005 0.974658
vn -0.058502 0.21591500000000005 0.974658
vn -0.058502 0.21591500000000005 0.974658
vn -0.138021 -0.584187 0.799797
vn -0.138021 -0.584187 0.799797
vn -0.138021 -0.584187 0.799797
vn 0.290079 0.525528 0.799797
vn 0.290079 0.525528 0.799797
vn 0.290079 0.525528 0.799797
vn -0.051436 -0.21770699999999996 0.974658
vn -0.051436 -0.21770699999999996 0.974658
vn -0.051436 -0.21770699999999996 0.974658
vn -0.172362 0.14259400000000005 0.974658
vn -0.172362 0.14259400000000005 0.974658
vn -0.172362 0.14259400000000005 0.974658
vn 0.2218 0.02909300000000006 0.974658
vn 0.2218 0.02909300000000006 0.974658
vn 0.2218 0.02909300000000006 0.974658
vn 0.542746 -0.25642099999999995 0.799797
vn 0.542746 -0.25642099999999995 0.799797
vn 0.542746 -0.25642099999999995 0.799797
vn -0.453764 0.39296700000000007 0.799797
vn -0.453764 0.39296700000000007 0.799797
vn -0.453764 0.39296700000000007 0.799797
vn 0.202263 -0.09555899999999995 0.974658
vn 0.202263 -0.09555899999999995 0.974658
vn 0.202263 -0.09555899999999995 0.974658
vn -0.175303 -0.13896199999999995 0.974658
vn -0.175303 -0.13896199999999995 0.974658
vn -0.175303 -0.13896199999999995 0.974658
vn 0.01764 0.22300400000000006 0.974658
vn 0.01764 0.22300400000000006 0.974658
vn 0.01764 0.22300400000000006 0.974658
vn -0.141073 -0.583458 0.799797
vn -0.141073 -0.583458 0.799797
vn -0.141073 -0.583458 0.799797
vn 0.292822 0.524004 0.799797
vn 0.292822 0.524004 0.799797
vn 0.292822 0.524004 0.799797
vn -0.052573 -0.21743499999999993 0.974658
vn -0.052573 -0.21743499999999993 0.974658
vn -0.052573 -0.21743499999999993 0.974658
vn -0.171614 0.14349300000000006 0.974658
vn -0.171614 0.14349300000000006 0.974658
vn -0.171614 0.14349300000000006 0.974658
vn 0.221949 0.02793300000000006 0.974658
vn 0.221949 0.02793300000000006 0.974658
vn 0.221949 0.02793300000000006 0.974658
vn -0.593081 -0.09262899999999995 0.799797
vn -0.593081 -0.09262899999999995 0.799797
vn -0.593081 -0.09262899999999995 0.799797
vn 0.596137 -0.07032199999999994 0.799797
vn 0.596137 -0.07032199999999994 0.799797
vn 0.596137 -0.07032199999999994 0.799797
vn -0.221021 -0.03451999999999994 0.974658
vn -0.221021 -0.03451999999999994 0.974658
vn -0.221021 -0.03451999999999994 0.974658
vn 0.06701 0.21342800000000006 0.974658
vn 0.06701 0.21342800000000006 0.974658
vn 0.06701 0.21342800000000006 0.974658
vn 0.11064 -0.19442399999999996 0.974658
vn 0.11064 -0.19442399999999996 0.974658
vn 0.11064 -0.19442399999999996 0.974658
vn -0.02137 -0.59989 0.799797
vn -0.02137 -0.59989 0.799797
vn -0.02137 -0.59989 0.799797
vn 0.181951 0.57203 0.799797
vn 0.181951 0.57203 0.799797
vn 0.181951 0.57203 0.799797
vn -0.007964 -0.22355799999999995 0.974658
vn -0.007964 -0.22355799999999995 0.974658
vn -0.007964 -0.22355799999999995 0.974658
vn -0.196874 0.10621800000000006 0.974658
vn -0.196874 0.10621800000000006 0.974658
vn -0.196874 0.10621800000000006 0.974658
vn 0.211859 0.07181600000000006 0.974658
vn 0.211859 0.07181600000000006 0.974658
vn 0.211859 0.07181600000000006 0.974658
vn 0.5974 -0.05863199999999995 0.799797
vn 0.5974 -0.05863199999999995 0.799797
vn 0.5974 -0.05863199999999995 0.799797
vn -0.559609 0.21717000000000006 0.799797
vn -0.559609 0.21717000000000006 0.799797
vn -0.559609 0.21717000000000006 0.799797
vn 0.222631 -0.021849999999999942 0.974658
vn 0.222631 -0.021849999999999942 0.974658
vn 0.222631 -0.021849999999999942 0.974658
vn -0.118255 -0.18988799999999995 0.974658
vn -0.118255 -0.18988799999999995 0.974658
vn -0.118255 -0.18988799999999995 0.974658
vn -0.058502 0.21591500000000005 0.974658
vn -0.058502 0.21591500000000005 0.974658
vn -0.058502 0.21591500000000005 0.974658
vn 0.5974 -0.05863199999999995 0.799797
vn 0.5974 -0.05863199999999995 0.799797
vn 0.5974 -0.05863199999999995 0.799797
vn -0.559609 0.21717000000000006 0.799797
vn -0.559609 0.21717000000000006 0.799797
vn -0.559609 0.21717000000000006 0.799797
vn 0.222631 -0.021849999999999942 0.974658
vn 0.222631 -0.021849999999999942 0.974658
vn 0.222631 -0.021849999999999942 0.974658
vn -0.118255 -0.18988799999999995 0.974658
vn -0.118255 -0.18988799999999995 0.974658
vn -0.118255 -0.18988799999999995 0.974658
vn -0.058502 0.21591500000000005 0.974658
vn -0.058502 0.21591500000000005 0.974658
vn -0.058502 0.21591500000000005 0.974658
vn -0.266267 0.537984 0.799797
vn -0.266267 0.537984 0.799797
vn -0.266267 0.537984 0.799797
vn 0.111736 -0.58978 0.799797
vn 0.111736 -0.58978 0.799797
vn 0.111736 -0.58978 0.799797
vn -0.099229 0.20048800000000006 0.974658
vn -0.099229 0.20048800000000006 0.974658
vn -0.099229 0.20048800000000006 0.974658
vn 0.2237 9.600000000005969E-05 0.974658
vn 0.2237 9.600000000005969E-05 0.974658
vn 0.2237 9.600000000005969E-05 0.974658
vn -0.152283 -0.16386499999999996 0.974658
vn -0.152283 -0.16386499999999996 0.974658
vn -0.152283 -0.16386499999999996 0.974658
vn 0.35205 0.48619500000000004 0.799797
vn 0.35205 0.48619500000000004 0.799797
vn 0.35205 0.48619500000000004 0.799797
vn -0.469859 -0.37357399999999996 0.799797
vn -0.469859 -0.37357399999999996 0.799797
vn -0.469859 -0.37357399999999996 0.799797
vn 0.131197 0.18118800000000004 0.974658
vn 0.131197 0.18118800000000004 0.974658
vn 0.131197 0.18118800000000004 0.974658
vn 0.104277 -0.19790999999999995 0.974658
vn 0.104277 -0.19790999999999995 0.974658
vn 0.104277 -0.19790999999999995 0.974658
vn -0.215933 0.05843400000000006 0.974658
vn -0.215933 0.05843400000000006 0.974658
vn -0.215933 0.05843400000000006 0.974658
vn -0.584441 -0.13694399999999995 0.799797
vn -0.584441 -0.13694399999999995 0.799797
vn -0.584441 -0.13694399999999995 0.799797
vn 0.599737 -0.025315999999999953 0.799797
vn 0.599737 -0.025315999999999953 0.799797
vn 0.599737 -0.025315999999999953 0.799797
vn -0.217801 -0.05103399999999994 0.974658
vn -0.217801 -0.05103399999999994 0.974658
vn -0.217801 -0.05103399999999994 0.974658
vn 0.050779 0.21786100000000005 0.974658
vn 0.050779 0.21786100000000005 0.974658
vn 0.050779 0.21786100000000005 0.974658
vn 0.12494 -0.18555799999999995 0.974658
vn 0.12494 -0.18555799999999995 0.974658
vn 0.12494 -0.18555799999999995 0.974658
vn -0.358808 -0.48122999999999994 0.799797
vn -0.358808 -0.48122999999999994 0.799797
vn -0.358808 -0.48122999999999994 0.799797
vn 0.475032 0.36697300000000005 0.799797
vn 0.475032 0.36697300000000005 0.799797
vn 0.475032 0.36697300000000005 0.799797
vn -0.133715 -0.17933799999999994 0.974658
vn -0.133715 -0.17933799999999994 0.974658
vn -0.133715 -0.17933799999999994 0.974658
vn -0.101502 0.19934700000000005 0.974658
vn -0.101502 0.19934700000000005 0.974658
vn -0.101502 0.19934700000000005 0.974658
vn 0.215096 -0.06144499999999994 0.974658
vn 0.215096 -0.06144499999999994 0.974658
vn 0.215096 -0.06144499999999994 0.974658
vn 0.17227 -0.57502 0.799797
vn 0.17227 -0.57502 0.799797
vn 0.17227 -0.57502 0.799797
vn -0.011241 0.600165 0.799797
vn -0.011241 0.600165 0.799797
vn -0.011241 0.600165 0.799797
vn 0.064199 -0.21428999999999995 0.974658
vn 0.064199 -0.21428999999999995 0.974658
vn 0.064199 -0.21428999999999995 0.974658
vn -0.220548 0.03742200000000006 0.974658
vn -0.220548 0.03742200000000006 0.974658
vn -0.220548 0.03742200000000006 0.974658
vn 0.177608 0.13600500000000004 0.974658
vn 0.177608 0.13600500000000004 0.974658
vn 0.177608 0.13600500000000004 0.974658
vn 0 6.123233995736766E-17 1
vn 0 6.123233995736766E-17 1
vn 0 6.123233995736766E-17 1
vn 0 6.123233995736766E-17 1
vn 0 6.123233995736766E-17 1
vn 0.050079 -0.36378699999999997 0.930135
vn 0.364632 0.04350000000000005 0.930135
vn -0.364632 -0.04349999999999994 0.930135
vn -0.050079 0.3637870000000001 0.930135
vn 0 6.123233995736766E-17 1
vn 0.050079 -0.36378699999999997 0.930135
vn 0.364632 0.04350000000000005 0.930135
vn -0.364632 -0.04349999999999994 0.930135
vn -0.050079 0.3637870000000001 0.930135
vn 0 6.123233995736766E-17 1
vn 0.050079 -0.36378699999999997 0.930135
vn 0.364632 0.04350000000000005 0.930135
vn -0.364632 -0.04349999999999994 0.930135
vn -0.050079 0.3637870000000001 0.930135
vn -0 6.123233995736766E-17 1
vn -0.179138 -0.18297099999999994 0.96666
vn 0.179138 -0.18297099999999994 0.96666
vn -0.179138 0.18297100000000005 0.96666
vn 0.179138 0.18297100000000005 0.96666
vn -0 6.123233995736766E-17 1
vn 0.050079 -0.36378699999999997 0.930135
vn 0.364632 0.04350000000000005 0.930135
vn -0.364632 -0.04349999999999994 0.930135
vn -0.050079 0.3637870000000001 0.930135
g orig_01
f 1/1/1 2/2/2 3/3/3
f 3/3/3 4/4/4 1/1/1
f 5/5/5 6/6/6 7/7/7
f 7/7/7 8/8/8 5/5/5
f 9/9/9 10/10/10 11/11/11
f 11/11/11 12/12/12 9/9/9
f 13/13/13 14/14/14 15/15/15
f 15/15/15 16/16/16 13/13/13
f 17/17/17 18/18/18 19/19/19
f 19/19/19 20/20/20 17/17/17
f 21/21/21 22/22/22 23/23/23
f 23/23/23 24/24/24 21/21/21
f 25/25/25 26/26/26 27/27/27
f 27/27/27 28/28/28 25/25/25
f 29/29/29 30/30/30 31/31/31
f 31/31/31 32/32/32 29/29/29
f 33/33/33 34/34/34 35/35/35
f 35/35/35 36/36/36 33/33/33
f 36/36/36 35/35/35 37/37/37
f 38/38/38 36/36/36 37/37/37
f 37/37/37 39/39/39 38/38/38
f 38/38/38 39/39/39 40/40/40
f 40/40/40 41/41/41 38/38/38
f 40/40/40 42/42/42 41/41/41
f 43/43/43 41/41/41 42/42/42
f 42/42/42 44/44/44 43/43/43
f 45/45/45 46/46/46 47/47/47
f 47/47/47 48/48/48 45/45/45
f 48/48/48 47/47/47 49/49/49
f 49/49/49 50/50/50 48/48/48
f 50/50/50 49/49/49 51/51/51
f 51/51/51 52/52/52 50/50/50
f 52/52/52 51/51/51 53/53/53
f 53/53/53 54/54/54 52/52/52
f 54/54/54 53/53/53 55/55/55
f 55/55/55 56/56/56 54/54/54
f 56/56/56 55/55/55 57/57/57
f 57/57/57 58/58/58 56/56/56
f 59/59/59 60/60/60 61/61/61
f 61/61/61 62/62/62 59/59/59
f 62/62/62 61/61/61 63/63/63
f 64/64/64 62/62/62 63/63/63
f 63/63/63 65/65/65 64/64/64
f 64/64/64 65/65/65 66/66/66
f 66/66/66 67/67/67 64/64/64
f 66/66/66 68/68/68 67/67/67
f 69/69/69 67/67/67 68/68/68
f 68/68/68 70/70/70 69/69/69
f 71/71/71 72/72/72 73/73/73
f 73/73/73 74/74/74 71/71/71
f 74/74/74 73/73/73 75/75/75
f 75/75/75 76/76/76 74/74/74
f 76/76/76 75/75/75 77/77/77
f 77/77/77 78/78/78 76/76/76
f 78/78/78 77/77/77 79/79/79
f 79/79/79 80/80/80 78/78/78
f 80/80/80 79/79/79 81/81/81
f 81/81/81 82/82/82 80/80/80
f 82/82/82 81/81/81 83/83/83
f 83/83/83 84/84/84 82/82/82
f 85/85/85 86/86/86 87/87/87
f 87/87/87 88/88/88 85/85/85
f 89/89/89 85/85/85 88/88/88
f 88/88/88 90/90/90 89/89/89
f 91/91/91 89/89/89 90/90/90
f 90/90/90 92/92/92 91/91/91
f 93/93/93 91/91/91 92/92/92
f 92/92/92 94/94/94 93/93/93
f 95/95/95 96/96/96 97/97/97
f 97/97/97 98/98/98 95/95/95
f 99/99/99 95/95/95 98/98/98
f 98/98/98 100/100/100 99/99/99
f 101/101/101 99/99/99 100/100/100
f 100/100/100 102/102/102 101/101/101
f 103/103/103 101/101/101 102/102/102
f 102/102/102 104/104/104 103/103/103
f 105/105/105 106/106/106 107/107/107
f 107/107/107 108/108/108 105/105/105
f 109/109/109 105/105/105 108/108/108
f 108/108/108 110/110/110 109/109/109
f 111/111/111 109/109/109 110/110/110
f 110/110/110 112/112/112 111/111/111
f 113/113/113 111/111/111 112/112/112
f 112/112/112 114/114/114 113/113/113
f 115/115/115 113/113/113 114/114/114
f 114/114/114 116/116/116 115/115/115
f 117/117/117 115/115/115 116/116/116
f 116/116/116 118/118/118 117/117/117
f 119/119/119 117/117/117 118/118/118
f 118/118/118 120/120/120 119/119/119
f 121/121/121 119/119/119 120/120/120
f 120/120/120 122/122/122 121/121/121
f 123/123/123 121/121/121 122/122/122
f 122/122/122 124/124/124 123/123/123
f 125/125/125 123/123/123 124/124/124
f 124/124/124 126/126/126 125/125/125
f 127/127/127 125/125/125 126/126/126
f 126/126/126 128/128/128 127/127/127
f 129/129/129 127/127/127 128/128/128
f 128/128/128 130/130/130 129/129/129
f 131/131/131 132/132/132 133/133/133
f 131/131/131 134/134/134 135/135/135
f 131/131/131 135/135/135 132/132/132
f 136/136/136 137/137/137 132/132/132
f 135/135/135 138/138/138 139/139/139
f 140/140/140 136/136/136 132/132/132
f 135/135/135 140/140/140 132/132/132
f 135/135/135 139/139/139 140/140/140
f 140/140/140 141/141/141 136/136/136
f 139/139/139 142/142/142 140/140/140
f 143/143/143 144/144/144 145/145/145
f 145/145/145 146/146/146 143/143/143
f 144/144/144 143/143/143 147/147/147
f 146/146/146 145/145/145 148/148/148
f 147/147/147 149/149/149 144/144/144
f 148/148/148 150/150/150 146/146/146
f 149/149/149 147/147/147 151/151/151
f 150/150/150 148/148/148 152/152/152
f 151/151/151 153/153/153 149/149/149
f 152/152/152 154/154/154 150/150/150
f 153/153/153 151/151/151 155/155/155
f 154/154/154 152/152/152 156/156/156
f 155/155/155 157/157/157 153/153/153
f 156/156/156 158/158/158 154/154/154
f 157/157/157 155/155/155 159/159/159
f 158/158/158 156/156/156 160/160/160
f 159/159/159 161/161/161 157/157/157
f 160/160/160 162/162/162 158/158/158
f 161/161/161 159/159/159 163/163/163
f 162/162/162 160/160/160 164/164/164
f 163/163/163 165/165/165 161/161/161
f 164/164/164 166/166/166 162/162/162
f 165/165/165 163/163/163 166/166/166
f 166/166/166 164/164/164 165/165/165
g seerose
f 167/167/167 168/168/168 169/169/169
f 170/170/170 171/171/171 172/172/172
f 173/173/173 174/174/174 175/175/175
f 176/176/176 177/177/177 178/178/178
f 179/179/179 180/180/180 181/181/181
f 182/182/182 183/183/183 184/184/184
f 185/185/185 186/186/186 187/187/187
f 188/188/188 189/189/189 190/190/190
f 191/191/191 192/192/192 193/193/193
f 194/194/194 195/195/195 196/196/196
f 197/197/197 198/198/198 199/199/199
f 200/200/200 201/201/201 202/202/202
f 203/203/203 204/204/204 205/205/205
f 206/206/206 207/207/207 208/208/208
f 209/209/209 210/210/210 211/211/211
f 212/212/212 213/213/213 214/214/214
f 215/215/215 216/216/216 217/217/217
f 218/218/218 219/219/219 220/220/220
f 221/221/221 222/222/222 223/223/223
f 224/224/224 225/225/225 226/226/226
f 227/227/227 228/228/228 229/229/229
f 230/230/230 231/231/231 232/232/232
f 233/233/233 234/234/234 235/235/235
f 236/236/236 237/237/237 238/238/238
f 239/239/239 240/240/240 241/241/241
f 242/242/242 243/243/243 244/244/244
f 245/245/245 246/246/246 247/247/247
f 248/248/248 249/249/249 250/250/250
f 251/251/251 252/252/252 253/253/253
f 254/254/254 255/255/255 256/256/256
f 257/257/257 258/258/258 259/259/259
f 260/260/260 261/261/261 262/262/262
f 263/263/263 264/264/264 265/265/265
f 266/266/266 267/267/267 268/268/268
f 269/269/269 270/270/270 271/271/271
f 272/272/272 273/273/273 274/274/274
f 275/275/275 276/276/276 277/277/277
f 278/278/278 279/279/279 280/280/280
f 281/281/281 282/282/282 283/283/283
f 284/284/284 285/285/285 286/286/286
f 287/287/287 288/288/288 289/289/289
f 290/290/290 291/291/291 292/292/292
f 293/293/293 294/294/294 295/295/295
f 296/296/296 297/297/297 298/298/298
f 299/299/299 300/300/300 301/301/301
f 302/302/302 303/303/303 304/304/304
f 305/305/305 306/306/306 307/307/307
f 308/308/308 309/309/309 310/310/310
f 311/311/311 312/312/312 313/313/313
f 314/314/314 315/315/315 316/316/316
f 317/317/317 318/318/318 319/319/319
f 320/320/320 321/321/321 322/322/322
f 323/323/323 324/324/324 325/325/325
f 326/326/326 327/327/327 328/328/328
f 329/329/329 330/330/330 331/331/331
f 332/332/332 333/333/333 334/334/334
f 335/335/335 336/336/336 337/337/337
f 338/338/338 339/339/339 340/340/340
f 341/341/341 342/342/342 343/343/343
f 344/344/344 345/345/345 346/346/346
f 347/347/347 348/348/348 349/349/349
f 350/350/350 351/351/351 352/352/352
f 353/353/353 354/354/354 355/355/355
f 356/356/356 357/357/357 358/358/358
f 359/359/359 360/360/360 361/361/361
f 362/362/362 363/363/363 364/364/364
f 365/365/365 366/366/366 367/367/367
f 368/368/368 369/369/369 370/370/370
f 371/371/371 372/372/372 373/373/373
f 374/374/374 375/375/375 376/376/376
f 377/377/377 378/378/378 379/379/379
f 380/380/380 381/381/381 382/382/382
f 383/383/383 384/384/384 385/385/385
f 386/386/386 387/387/387 388/388/388
f 389/389/389 390/390/390 391/391/391
f 392/392/392 393/393/393 394/394/394
f 394/394/394 395/395/395 392/392/392
f 396/396/396 397/397/397 398/398/398
f 399/399/399 397/397/397 396/396/396
f 396/396/396 398/398/398 400/400/400
f 399/399/399 396/396/396 400/400/400
f 401/401/401 402/402/402 403/403/403
f 404/404/404 402/402/402 401/401/401
f 401/401/401 403/403/403 405/405/405
f 404/404/404 401/401/401 405/405/405
f 406/406/406 407/407/407 408/408/408
f 409/409/409 407/407/407 406/406/406
f 406/406/406 408/408/408 410/410/410
f 409/409/409 406/406/406 410/410/410
f 411/411/411 412/412/412 413/413/413
f 414/414/414 412/412/412 411/411/411
f 411/411/411 413/413/413 415/415/415
f 414/414/414 411/411/411 415/415/415
f 416/416/416 417/417/417 418/418/418
f 419/419/419 417/417/417 416/416/416
f 416/416/416 418/418/418 420/420/420
f 419/419/419 416/416/416 420/420/420
