v -0.920321 0.2375389999999999 -1.943888
v -0.21478 0.2375389999999999 -1.943888
v -0.920321 -0.4203210000000001 -1.943887
v -0.21478 0.237539 0.07064799999999999
v -0.920321 -0.420321 0.07064800000000003
v -0.21478 -0.420321 0.07064800000000003
v -0.132483 0.237539 0.003478999999999985
v -0.132483 -0.420321 0.0034790000000000255
v -0.21478 -0.420321 0.0034790000000000255
v -0.132483 -0.420321 -0.06861999999999997
v -0.132483 0.237539 -0.06862000000000001
v -0.050186 0.237539 -0.06862000000000001
v -0.050186 -0.420321 -0.06861999999999997
v -0.050186 -0.420321 -0.14071899999999998
v -0.050186 0.237539 -0.14071900000000004
v 0.032111 0.237539 -0.14071900000000004
v 0.032111 -0.420321 -0.14071899999999998
v 0.032111 0.237539 -0.21281800000000003
v 0.114409 0.237539 -0.21281800000000003
v 0.114409 -0.420321 -0.21281799999999998
v 0.032111 -0.420321 -0.21281799999999998
v 0.114409 0.23753899999999997 -0.284917
v 0.196706 0.23753899999999997 -0.284917
v 0.196706 -0.420321 -0.284917
v 0.114409 -0.420321 -0.284917
v 0.196706 0.23753899999999997 -0.357016
v 0.196706 -0.420321 -0.357016
v 0.279003 0.23753899999999997 -0.357016
v 0.279003 -0.420321 -0.357016
v 0.279003 0.23753899999999997 -0.429115
v 0.3613 0.23753899999999997 -0.429115
v 0.3613 -0.420321 -0.429115
v 0.279003 -0.420321 -0.429115
v 0.3613 -0.42032100000000006 -0.501214
v 0.3613 0.23753899999999997 -0.501214
v 0.443597 0.23753899999999997 -0.501214
v 0.443597 -0.42032100000000006 -0.501214
v 0.443597 0.23753899999999997 -0.573313
v 0.443597 -0.42032100000000006 -0.573313
v 0.525895 0.23753899999999997 -0.573313
v 0.525895 -0.42032100000000006 -0.573313
v 0.525895 0.23753899999999997 -0.645412
v 0.525895 -0.42032100000000006 -0.645412
v -0.21478 0.23753899999999997 -0.645412
v -0.21478 0.237539 0.07064799999999999
v -0.21478 -0.420321 0.07064800000000003
v 0.525895 0.2375389999999999 -1.943888
v 0.525895 -0.4203210000000001 -1.943888
v -0.21478 0.2375389999999999 -1.943888
v -0.920321 0.237539 0.07064799999999999
v -0.21478 0.237539 0.003478999999999985
v 0.595774 0.27300999999999986 -1.943888
v 0.561037 0.2382739999999999 -1.943888
v 0.526301 0.27300999999999986 -1.943888
v 0.561037 0.3077459999999999 -1.943888
v 0.595774 0.27301 0.10592799999999998
v 0.561037 0.238274 0.10592799999999998
v 0.526301 0.27301 0.10592799999999998
v 0.561037 0.307746 0.10592799999999998
v 0.531565 0.2731319999999999 -1.943888
v 0.496828 0.23839599999999989 -1.943888
v 0.496828 0.238396 -0.029204000000000015
v 0.531565 0.273132 -0.029204000000000018
v 0.462092 0.2731319999999999 -1.943888
v 0.462092 0.273132 -0.029204000000000018
v 0.496828 0.30786799999999986 -1.943888
v 0.496828 0.307868 -0.029204000000000018
v 0.594309 0.32354699999999986 -1.943888
v 0.559573 0.2888109999999999 -1.943888
v 0.559573 0.288811 -0.22647000000000003
v 0.594309 0.323547 -0.22647000000000003
v 0.524836 0.32354699999999986 -1.943888
v 0.524836 0.323547 -0.22647000000000003
v 0.559573 0.3582829999999999 -1.943888
v 0.559573 0.358283 -0.22647000000000003
v -0.269116 0.2356629999999999 -1.943888
v -0.318054 0.23994399999999988 -1.943888
v -0.318054 0.23994400000000002 0.562959
v -0.269116 0.23566300000000004 0.562959
v -0.313772 0.2888819999999999 -1.943888
v -0.313772 0.2888820000000001 0.562959
v -0.264835 0.2845999999999999 -1.943888
v -0.264835 0.2846000000000001 0.562959
v -0.310295 0.2849279999999999 -1.943888
v -0.359233 0.2892099999999999 -1.943888
v -0.359233 0.28921 0.427827
v -0.310295 0.284928 0.427827
v -0.354952 0.33814699999999986 -1.943888
v -0.354952 0.338147 0.427827
v -0.306014 0.3338649999999999 -1.943888
v -0.306014 0.333865 0.427827
v -0.231344 0.26926899999999987 -1.943888
v -0.280282 0.2735509999999999 -1.943888
v -0.280282 0.273551 0.23056099999999996
v -0.231344 0.269269 0.23056099999999996
v -0.276 0.3224879999999999 -1.943888
v -0.276 0.322488 0.23056099999999996
v -0.227063 0.3182069999999999 -1.943888
v -0.227063 0.318207 0.23056099999999996
v 0.525895 0.23753899999999997 -0.62942
v 0.608192 0.23753899999999997 -0.62942
v 0.608192 -0.42032100000000006 -0.62942
v 0.525895 -0.42032100000000006 -0.62942
v 0.608192 0.23753899999999994 -0.701519
v 0.608192 -0.42032100000000006 -0.701519
v 0.690489 0.23753899999999994 -0.701519
v 0.690489 -0.42032100000000006 -0.701519
v 0.690489 0.23753899999999994 -0.773618
v 0.690489 -0.42032100000000006 -0.773618
v 0.772786 0.23753899999999994 -0.773618
v 0.772786 -0.42032100000000006 -0.773618
v 0.772786 0.23753899999999994 -0.845717
v 0.772786 -0.42032100000000006 -0.845717
v 0.855084 0.23753899999999994 -0.845717
v 0.855084 -0.42032100000000006 -0.845717
v 0.855084 0.23753899999999994 -0.917816
v 0.855084 -0.42032100000000006 -0.917816
v 0.937381 0.23753899999999994 -0.917816
v 0.937381 -0.42032100000000006 -0.917816
v 0.937381 0.23753899999999994 -0.989915
v 0.937381 -0.42032100000000006 -0.989915
v 0.937381 0.23753899999999994 -0.989915
v 0.937381 -0.42032100000000006 -0.989915
v 0.525895 0.23753899999999994 -0.991934
v 0.937381 0.23753899999999986 -2.288391
v 0.937381 -0.42032100000000017 -2.288391
v 0.525895 0.23753899999999986 -2.288391
v 0.525895 0.23753899999999994 -0.989915
v -0.132483 -0.420321 -0.06861999999999997
v -0.132483 -0.420321 0.0034790000000000255
v -0.21478 -0.420321 0.0034790000000000255
v -0.050186 -0.420321 -0.14071899999999998
v -0.050186 -0.420321 -0.06861999999999997
v 0.032111 -0.420321 -0.21281799999999998
v 0.032111 -0.420321 -0.14071899999999998
v 0.114409 -0.420321 -0.284917
v 0.114409 -0.420321 -0.21281799999999998
v 0.196706 -0.420321 -0.357016
v 0.196706 -0.420321 -0.284917
v 0.279003 -0.420321 -0.429115
v 0.279003 -0.420321 -0.357016
v 0.3613 -0.42032100000000006 -0.501214
v 0.3613 -0.420321 -0.429115
v 0.443597 -0.42032100000000006 -0.573313
v 0.443597 -0.42032100000000006 -0.501214
v 0.525895 -0.42032100000000006 -0.645412
v 0.525895 -0.42032100000000006 -0.573313
v -0.21478 -0.42032100000000006 -0.645412
v -0.21478 -0.4203210000000001 -1.943888
v 0.525895 -0.4203210000000001 -1.943888
v 0.608192 -0.42032100000000006 -0.701519
v 0.608192 -0.42032100000000006 -0.62942
v 0.525895 -0.42032100000000006 -0.62942
v 0.690489 -0.42032100000000006 -0.773618
v 0.690489 -0.42032100000000006 -0.701519
v 0.772786 -0.42032100000000006 -0.845717
v 0.772786 -0.42032100000000006 -0.773618
v 0.855084 -0.42032100000000006 -0.917816
v 0.855084 -0.42032100000000006 -0.845717
v 0.937381 -0.42032100000000006 -0.989915
v 0.937381 -0.42032100000000006 -0.917816
v 0.525895 -0.42032100000000006 -0.991934
v 0.937381 -0.42032100000000006 -0.989915
v 0.525895 -0.42032100000000006 -0.989915
v 0.525895 -0.42032100000000017 -2.288391
v 0.937381 -0.42032100000000017 -2.288391
v -0.920321 0.237539 0.07064799999999999
v -0.920321 -0.420321 0.07064800000000003
v -0.132483 -0.420321 0.0034790000000000255
v -0.132483 0.237539 0.003478999999999985
v -0.132483 0.237539 -0.06862000000000001
v -0.132483 -0.420321 -0.06861999999999997
v -0.050186 -0.420321 -0.06861999999999997
v -0.050186 0.237539 -0.06862000000000001
v -0.050186 0.237539 -0.14071900000000004
v -0.050186 -0.420321 -0.14071899999999998
v 0.032111 -0.420321 -0.14071899999999998
v 0.032111 0.237539 -0.14071900000000004
v 0.032111 0.237539 -0.21281800000000003
v 0.032111 -0.420321 -0.21281799999999998
v 0.114409 -0.420321 -0.21281799999999998
v 0.114409 0.237539 -0.21281800000000003
v 0.114409 0.23753899999999997 -0.284917
v 0.114409 -0.420321 -0.284917
v 0.196706 -0.420321 -0.284917
v 0.196706 0.23753899999999997 -0.284917
v 0.196706 0.23753899999999997 -0.357016
v 0.196706 -0.420321 -0.357016
v 0.279003 -0.420321 -0.357016
v 0.279003 0.23753899999999997 -0.357016
v 0.279003 0.23753899999999997 -0.429115
v 0.279003 -0.420321 -0.429115
v 0.3613 -0.420321 -0.429115
v 0.3613 0.23753899999999997 -0.429115
v 0.3613 0.23753899999999997 -0.501214
v 0.3613 -0.42032100000000006 -0.501214
v 0.443597 -0.42032100000000006 -0.501214
v 0.443597 0.23753899999999997 -0.501214
v 0.443597 0.23753899999999997 -0.573313
v 0.443597 -0.42032100000000006 -0.573313
v 0.525895 -0.42032100000000006 -0.573313
v 0.525895 0.23753899999999997 -0.573313
v -0.132483 0.237539 -0.06862000000000001
v -0.132483 0.237539 0.003478999999999985
v -0.21478 0.237539 0.003478999999999985
v -0.050186 0.237539 -0.14071900000000004
v -0.050186 0.237539 -0.06862000000000001
v 0.032111 0.237539 -0.21281800000000003
v 0.032111 0.237539 -0.14071900000000004
v 0.114409 0.23753899999999997 -0.284917
v 0.114409 0.237539 -0.21281800000000003
v 0.196706 0.23753899999999997 -0.357016
v 0.196706 0.23753899999999997 -0.284917
v 0.279003 0.23753899999999997 -0.429115
v 0.279003 0.23753899999999997 -0.357016
v 0.3613 0.23753899999999997 -0.501214
v 0.3613 0.23753899999999997 -0.429115
v 0.443597 0.23753899999999997 -0.573313
v 0.443597 0.23753899999999997 -0.501214
v 0.525895 0.23753899999999997 -0.645412
v 0.525895 0.23753899999999997 -0.573313
v -0.21478 -0.420321 0.0034790000000000255
v -0.21478 0.237539 0.003478999999999985
v 0.525895 0.2375389999999999 -1.943888
v -0.920321 0.2375389999999999 -1.943888
v -0.21478 0.237539 0.07064799999999999
v -0.920321 0.237539 0.07064799999999999
v 0.561037 0.2382739999999999 -1.943888
v 0.561037 0.238274 0.10592799999999998
v 0.561037 0.238274 0.10592799999999998
v 0.526301 0.27301 0.10592799999999998
v 0.561037 0.307746 0.10592799999999998
v 0.595774 0.27301 0.10592799999999998
v 0.496828 0.23839599999999989 -1.943888
v 0.496828 0.238396 -0.029204000000000015
v 0.496828 0.238396 -0.029204000000000015
v 0.462092 0.273132 -0.029204000000000018
v 0.496828 0.307868 -0.029204000000000018
v 0.531565 0.273132 -0.029204000000000018
v 0.559573 0.2888109999999999 -1.943888
v 0.559573 0.288811 -0.22647000000000003
v 0.559573 0.288811 -0.22647000000000003
v 0.524836 0.323547 -0.22647000000000003
v 0.559573 0.358283 -0.22647000000000003
v 0.594309 0.323547 -0.22647000000000003
v -0.318054 0.23994399999999988 -1.943888
v -0.318054 0.23994400000000002 0.562959
v -0.318054 0.23994400000000002 0.562959
v -0.313772 0.2888820000000001 0.562959
v -0.264835 0.2846000000000001 0.562959
v -0.269116 0.23566300000000004 0.562959
v -0.359233 0.2892099999999999 -1.943888
v -0.359233 0.28921 0.427827
v -0.359233 0.28921 0.427827
v -0.354952 0.338147 0.427827
v -0.306014 0.333865 0.427827
v -0.310295 0.284928 0.427827
v -0.280282 0.2735509999999999 -1.943888
v -0.280282 0.273551 0.23056099999999996
v -0.280282 0.273551 0.23056099999999996
v -0.276 0.322488 0.23056099999999996
v -0.227063 0.318207 0.23056099999999996
v -0.231344 0.269269 0.23056099999999996
v 0.608192 -0.42032100000000006 -0.62942
v 0.608192 0.23753899999999997 -0.62942
v 0.608192 0.23753899999999994 -0.701519
v 0.608192 -0.42032100000000006 -0.701519
v 0.690489 -0.42032100000000006 -0.701519
v 0.690489 0.23753899999999994 -0.701519
v 0.690489 0.23753899999999994 -0.773618
v 0.690489 -0.42032100000000006 -0.773618
v 0.772786 -0.42032100000000006 -0.773618
v 0.772786 0.23753899999999994 -0.773618
v 0.772786 0.23753899999999994 -0.845717
v 0.772786 -0.42032100000000006 -0.845717
v 0.855084 -0.42032100000000006 -0.845717
v 0.855084 0.23753899999999994 -0.845717
v 0.855084 0.23753899999999994 -0.917816
v 0.855084 -0.42032100000000006 -0.917816
v 0.937381 -0.42032100000000006 -0.917816
v 0.937381 0.23753899999999994 -0.917816
v 0.608192 0.23753899999999994 -0.701519
v 0.608192 0.23753899999999997 -0.62942
v 0.525895 0.23753899999999997 -0.62942
v 0.690489 0.23753899999999994 -0.773618
v 0.690489 0.23753899999999994 -0.701519
v 0.772786 0.23753899999999994 -0.845717
v 0.772786 0.23753899999999994 -0.773618
v 0.855084 0.23753899999999994 -0.917816
v 0.855084 0.23753899999999994 -0.845717
v 0.937381 0.23753899999999994 -0.989915
v 0.937381 0.23753899999999994 -0.917816
v 0.937381 0.23753899999999994 -0.989915
v 0.937381 0.23753899999999986 -2.288391
v 0.526301 0.27300999999999986 -1.943888
v 0.526301 0.27301 0.10592799999999998
v 0.526301 0.27300999999999986 -1.943888
v 0.561037 0.3077459999999999 -1.943888
v 0.595774 0.27300999999999986 -1.943888
v 0.595774 0.27301 0.10592799999999998
v 0.595774 0.27301 0.10592799999999998
v 0.561037 0.307746 0.10592799999999998
v 0.561037 0.3077459999999999 -1.943888
v 0.462092 0.2731319999999999 -1.943888
v 0.462092 0.273132 -0.029204000000000018
v 0.462092 0.2731319999999999 -1.943888
v 0.496828 0.30786799999999986 -1.943888
v 0.531565 0.2731319999999999 -1.943888
v 0.531565 0.273132 -0.029204000000000018
v 0.531565 0.273132 -0.029204000000000018
v 0.496828 0.307868 -0.029204000000000018
v 0.496828 0.30786799999999986 -1.943888
v 0.524836 0.32354699999999986 -1.943888
v 0.524836 0.323547 -0.22647000000000003
v 0.524836 0.32354699999999986 -1.943888
v 0.559573 0.3582829999999999 -1.943888
v 0.594309 0.32354699999999986 -1.943888
v 0.594309 0.323547 -0.22647000000000003
v 0.594309 0.323547 -0.22647000000000003
v 0.559573 0.358283 -0.22647000000000003
v 0.559573 0.3582829999999999 -1.943888
v -0.313772 0.2888819999999999 -1.943888
v -0.313772 0.2888820000000001 0.562959
v -0.313772 0.2888819999999999 -1.943888
v -0.264835 0.2845999999999999 -1.943888
v -0.269116 0.2356629999999999 -1.943888
v -0.269116 0.23566300000000004 0.562959
v -0.269116 0.23566300000000004 0.562959
v -0.264835 0.2846000000000001 0.562959
v -0.264835 0.2845999999999999 -1.943888
v -0.354952 0.33814699999999986 -1.943888
v -0.354952 0.338147 0.427827
v -0.354952 0.33814699999999986 -1.943888
v -0.306014 0.3338649999999999 -1.943888
v -0.310295 0.2849279999999999 -1.943888
v -0.310295 0.284928 0.427827
v -0.310295 0.284928 0.427827
v -0.306014 0.333865 0.427827
v -0.306014 0.3338649999999999 -1.943888
v -0.276 0.3224879999999999 -1.943888
v -0.276 0.322488 0.23056099999999996
v -0.276 0.3224879999999999 -1.943888
v -0.227063 0.3182069999999999 -1.943888
v -0.231344 0.26926899999999987 -1.943888
v -0.231344 0.269269 0.23056099999999996
v -0.231344 0.269269 0.23056099999999996
v -0.227063 0.318207 0.23056099999999996
v -0.227063 0.3182069999999999 -1.943888
vt 0.991031 0.994380
vt 0.176476 0.995309
vt 0.833848 0.994379
vt 0.613886 0.331765
vt 0.442440 0.012046
vt 0.613886 0.012046
vt 0.619560 0.146839
vt 0.777536 0.146839
vt 0.777536 0.089315
vt 0.777536 0.186520
vt 0.619560 0.186520
vt 0.619560 0.250951
vt 0.777536 0.250951
vt 0.777536 0.293834
vt 0.619560 0.293834
vt 0.619560 0.355968
vt 0.777536 0.355968
vt 0.619561 0.398430
vt 0.619561 0.462060
vt 0.777536 0.462060
vt 0.777536 0.398430
vt 0.619561 0.502474
vt 0.619561 0.566031
vt 0.777536 0.566031
vt 0.777536 0.502474
vt 0.619561 0.604689
vt 0.777536 0.604689
vt 0.619561 0.668462
vt 0.777536 0.668462
vt 0.619561 0.711120
vt 0.619561 0.773484
vt 0.777536 0.773484
vt 0.777536 0.711120
vt 0.777536 0.814774
vt 0.619561 0.814774
vt 0.619561 0.877599
vt 0.777536 0.877599
vt 0.619561 0.919311
vt 0.777536 0.919311
vt 0.619561 0.984331
vt 0.777536 0.984331
vt 0.445667 0.375428
vt 0.603093 0.375428
vt 0.176476 0.374499
vt 0.619560 0.049805
vt 0.777536 0.049805
vt 0.445667 0.996876
vt 0.603093 0.996876
vt 0.176476 0.995309
vt 0.442440 0.331765
vt 0.619560 0.089315
vt 0.814316 0.987868
vt 0.823973 0.987868
vt 0.795092 0.987868
vt 0.804704 0.987868
vt 0.814316 0.012345
vt 0.823973 0.012345
vt 0.795092 0.012345
vt 0.804704 0.012345
vt 0.814316 0.987868
vt 0.823973 0.987868
vt 0.823973 0.012140
vt 0.814316 0.012140
vt 0.795092 0.987868
vt 0.795092 0.012140
vt 0.804704 0.987868
vt 0.804704 0.012140
vt 0.814316 0.987868
vt 0.823973 0.987868
vt 0.823973 0.011982
vt 0.814316 0.011982
vt 0.795092 0.987868
vt 0.795092 0.011982
vt 0.804704 0.987868
vt 0.804704 0.011982
vt 0.814316 0.987868
vt 0.823973 0.987868
vt 0.823973 0.011321
vt 0.814316 0.011321
vt 0.795092 0.987868
vt 0.795092 0.011321
vt 0.804704 0.987868
vt 0.804704 0.011321
vt 0.814316 0.987868
vt 0.823973 0.987868
vt 0.823973 0.012337
vt 0.814316 0.012337
vt 0.795092 0.987868
vt 0.795092 0.012337
vt 0.804704 0.987868
vt 0.804704 0.012337
vt 0.814316 0.987868
vt 0.823973 0.987868
vt 0.823973 0.012179
vt 0.814316 0.012179
vt 0.795092 0.987868
vt 0.795092 0.012179
vt 0.804704 0.987868
vt 0.804704 0.012179
vt 0.619560 0.405950
vt 0.619560 0.463474
vt 0.777536 0.463474
vt 0.777536 0.405950
vt 0.619560 0.503155
vt 0.777536 0.503155
vt 0.619560 0.566912
vt 0.777536 0.566912
vt 0.619560 0.605414
vt 0.777536 0.605414
vt 0.619560 0.667548
vt 0.777536 0.667548
vt 0.619561 0.711358
vt 0.777536 0.711358
vt 0.619561 0.773236
vt 0.777536 0.773236
vt 0.619561 0.814789
vt 0.777536 0.814789
vt 0.619561 0.877207
vt 0.777536 0.877207
vt 0.619561 0.918712
vt 0.777536 0.918712
vt 0.445667 0.375428
vt 0.603093 0.375428
vt 0.220791 0.264309
vt 0.445667 0.996876
vt 0.603093 0.996876
vt 0.291495 0.995309
vt 0.291495 0.374499
vt 0.205231 0.098730
vt 0.205231 0.064259
vt 0.176476 0.064259
vt 0.233985 0.133202
vt 0.233985 0.098730
vt 0.262740 0.167673
vt 0.262740 0.133202
vt 0.291495 0.202144
vt 0.291495 0.167673
vt 0.320249 0.236615
vt 0.320249 0.202144
vt 0.349004 0.271086
vt 0.349004 0.236615
vt 0.377758 0.305557
vt 0.377758 0.271086
vt 0.406513 0.340028
vt 0.406513 0.305557
vt 0.435268 0.374499
vt 0.435268 0.340028
vt 0.176476 0.374499
vt 0.176476 0.995309
vt 0.435268 0.995309
vt 0.205231 0.098730
vt 0.205231 0.064259
vt 0.176476 0.064259
vt 0.233985 0.133202
vt 0.233985 0.098730
vt 0.262740 0.167673
vt 0.262740 0.133202
vt 0.291495 0.202144
vt 0.291495 0.167673
vt 0.320249 0.236615
vt 0.320249 0.202144
vt 0.220791 0.264309
vt 0.435268 0.374499
vt 0.291495 0.374499
vt 0.291495 0.995309
vt 0.435268 0.995309
vt 0.991031 0.031713
vt 0.833848 0.031713
vt 0.777536 0.152336
vt 0.619560 0.152336
vt 0.619560 0.193849
vt 0.777536 0.193849
vt 0.777536 0.260112
vt 0.619560 0.260112
vt 0.619560 0.299331
vt 0.777536 0.299331
vt 0.777536 0.365129
vt 0.619560 0.365129
vt 0.619561 0.405759
vt 0.777536 0.405759
vt 0.777536 0.469389
vt 0.619561 0.469389
vt 0.619561 0.509803
vt 0.777536 0.509803
vt 0.777536 0.571528
vt 0.619561 0.571528
vt 0.619561 0.612017
vt 0.777536 0.612017
vt 0.777536 0.677623
vt 0.619561 0.677623
vt 0.619561 0.716617
vt 0.777536 0.716617
vt 0.777536 0.780812
vt 0.619561 0.780812
vt 0.619561 0.820271
vt 0.777536 0.820271
vt 0.777536 0.884928
vt 0.619561 0.884928
vt 0.619561 0.926639
vt 0.777536 0.926639
vt 0.603093 0.340922
vt 0.445667 0.340922
vt 0.205231 0.098730
vt 0.205231 0.064259
vt 0.176476 0.064259
vt 0.233985 0.133202
vt 0.233985 0.098730
vt 0.262740 0.167673
vt 0.262740 0.133202
vt 0.291495 0.202144
vt 0.291495 0.167673
vt 0.320249 0.236615
vt 0.320249 0.202144
vt 0.349004 0.271086
vt 0.349004 0.236615
vt 0.377758 0.305557
vt 0.377758 0.271086
vt 0.406513 0.340028
vt 0.406513 0.305557
vt 0.435268 0.374499
vt 0.435268 0.340028
vt 0.777536 0.081987
vt 0.619560 0.081987
vt 0.435268 0.995309
vt 0.007814 0.995309
vt 0.176476 0.032146
vt 0.007814 0.032146
vt 0.785435 0.987868
vt 0.785435 0.012345
vt 0.627577 0.020715
vt 0.637434 0.040429
vt 0.647291 0.020715
vt 0.637434 0.001002
vt 0.785435 0.987868
vt 0.785435 0.012140
vt 0.627577 0.020715
vt 0.637434 0.040429
vt 0.647291 0.020715
vt 0.637434 0.001002
vt 0.785435 0.987868
vt 0.785435 0.011982
vt 0.627577 0.020715
vt 0.637434 0.040429
vt 0.647291 0.020715
vt 0.637434 0.001002
vt 0.785435 0.987868
vt 0.785435 0.011321
vt 0.627577 0.020715
vt 0.637434 0.040429
vt 0.647291 0.020715
vt 0.637434 0.001002
vt 0.785435 0.987868
vt 0.785435 0.012337
vt 0.627577 0.020715
vt 0.637434 0.040429
vt 0.647291 0.020715
vt 0.637434 0.001002
vt 0.785435 0.987868
vt 0.785435 0.012179
vt 0.627577 0.020715
vt 0.637434 0.040429
vt 0.647291 0.020715
vt 0.637434 0.001002
vt 0.777536 0.468971
vt 0.619560 0.468971
vt 0.619560 0.509810
vt 0.777536 0.509810
vt 0.777536 0.571692
vt 0.619560 0.571692
vt 0.619560 0.610911
vt 0.777536 0.610911
vt 0.777536 0.678057
vt 0.619560 0.678057
vt 0.619561 0.716934
vt 0.777536 0.716934
vt 0.777536 0.781704
vt 0.619561 0.781704
vt 0.619561 0.820979
vt 0.777536 0.820979
vt 0.777536 0.885551
vt 0.619561 0.885551
vt 0.205231 0.098730
vt 0.205231 0.064259
vt 0.176476 0.064259
vt 0.233985 0.133202
vt 0.233985 0.098730
vt 0.262740 0.167673
vt 0.262740 0.133202
vt 0.291495 0.202144
vt 0.291495 0.167673
vt 0.320249 0.236615
vt 0.320249 0.202144
vt 0.435268 0.374499
vt 0.435268 0.995309
vt 0.795092 0.987868
vt 0.795092 0.012345
vt 0.795092 0.987868
vt 0.804704 0.987868
vt 0.814316 0.987868
vt 0.814316 0.012345
vt 0.814316 0.012345
vt 0.804704 0.012345
vt 0.804704 0.987868
vt 0.795092 0.987868
vt 0.795092 0.012140
vt 0.795092 0.987868
vt 0.804704 0.987868
vt 0.814316 0.987868
vt 0.814316 0.012140
vt 0.814316 0.012140
vt 0.804704 0.012140
vt 0.804704 0.987868
vt 0.795092 0.987868
vt 0.795092 0.011982
vt 0.795092 0.987868
vt 0.804704 0.987868
vt 0.814316 0.987868
vt 0.814316 0.011982
vt 0.814316 0.011982
vt 0.804704 0.011982
vt 0.804704 0.987868
vt 0.795092 0.987868
vt 0.795092 0.011321
vt 0.795092 0.987868
vt 0.804704 0.987868
vt 0.814316 0.987868
vt 0.814316 0.011321
vt 0.814316 0.011321
vt 0.804704 0.011321
vt 0.804704 0.987868
vt 0.795092 0.987868
vt 0.795092 0.012337
vt 0.795092 0.987868
vt 0.804704 0.987868
vt 0.814316 0.987868
vt 0.814316 0.012337
vt 0.814316 0.012337
vt 0.804704 0.012337
vt 0.804704 0.987868
vt 0.795092 0.987868
vt 0.795092 0.012179
vt 0.795092 0.987868
vt 0.804704 0.987868
vt 0.814316 0.987868
vt 0.814316 0.012179
vt 0.814316 0.012179
vt 0.804704 0.012179
vt 0.804704 0.987868
vn -1 0 0
vn 0 1 -6.123233995736766E-17
vn -1 0 0
vn 0 6.123233995736766E-17 1
vn 0 6.123233995736766E-17 1
vn 0 6.123233995736766E-17 1
vn 0 6.123233995736766E-17 1
vn 0 6.123233995736766E-17 1
vn 0 6.123233995736766E-17 1
vn 1 0 0
vn 1 0 0
vn 0 6.123233995736766E-17 1
vn 0 6.123233995736766E-17 1
vn 1 0 0
vn 1 0 0
vn 0 6.123233995736766E-17 1
vn 0 6.123233995736766E-17 1
vn 1 0 0
vn 0 6.123233995736766E-17 1
vn 0 6.123233995736766E-17 1
vn 1 0 0
vn 1 0 0
vn 0 6.123233995736766E-17 1
vn 0 6.123233995736766E-17 1
vn 1 0 0
vn 1 0 0
vn 1 0 0
vn 0 6.123233995736766E-17 1
vn 0 6.123233995736766E-17 1
vn 1 0 0
vn 0 6.123233995736766E-17 1
vn 0 6.123233995736766E-17 1
vn 1 0 0
vn 1 0 0
vn 1 0 0
vn 0 6.123233995736766E-17 1
vn 0 6.123233995736766E-17 1
vn 1 0 0
vn 1 0 0
vn 0 6.123233995736766E-17 1
vn 0 6.123233995736766E-17 1
vn 1 0 0
vn 1 0 0
vn -0 1 -6.123233995736766E-17
vn 1 0 0
vn 1 0 0
vn 1 0 0
vn 1 0 0
vn -0 1 -6.123233995736766E-17
vn 0 6.123233995736766E-17 1
vn 0 6.123233995736766E-17 1
vn 0.948683 -0.316228 1.9363380400038462E-17
vn -0.316228 -0.948683 5.809007996777542E-17
vn -0.948683 0.316228 -1.9363380400038462E-17
vn 0.316228 0.948683 -5.809007996777542E-17
vn 0.948683 0.316228 -1.9363380400038462E-17
vn 0.316228 -0.948683 5.809007996777542E-17
vn -0.948683 -0.316228 1.9363380400038462E-17
vn -0.316228 0.948683 -5.809007996777542E-17
vn 0.948683 -0.316228 1.9363380400038462E-17
vn -0.316228 -0.948683 5.809007996777542E-17
vn 0.316228 -0.948683 5.809007996777542E-17
vn 0.948683 0.316228 -1.9363380400038462E-17
vn -0.948683 0.316228 -1.9363380400038462E-17
vn -0.948683 -0.316228 1.9363380400038462E-17
vn 0.316228 0.948683 -5.809007996777542E-17
vn -0.316228 0.948683 -5.809007996777542E-17
vn 0.948683 -0.316228 1.9363380400038462E-17
vn -0.316228 -0.948683 5.809007996777542E-17
vn 0.316228 -0.948683 5.809007996777542E-17
vn 0.948683 0.316228 -1.9363380400038462E-17
vn -0.948683 0.316228 -1.9363380400038462E-17
vn -0.948683 -0.316228 1.9363380400038462E-17
vn 0.316228 0.948683 -5.809007996777542E-17
vn -0.316228 0.948683 -5.809007996777542E-17
vn 0.367557 -0.930001 5.694613739269188E-17
vn -0.930001 -0.367557 2.2506375177710188E-17
vn -0.523466 -0.852046 5.217277033131528E-17
vn 0.852046 -0.523467 3.205310930046338E-17
vn -0.367557 0.930001 -5.694613739269188E-17
vn -0.852046 0.523467 -3.205310930046338E-17
vn 0.930001 0.367557 -2.2506375177710188E-17
vn 0.523466 0.852046 -5.217277033131528E-17
vn 0.367558 -0.930001 5.694613739269188E-17
vn -0.93 -0.367558 2.2506436410050142E-17
vn -0.523466 -0.852047 5.2172831563655244E-17
vn 0.852047 -0.523465 3.205298683578346E-17
vn -0.367558 0.930001 -5.694613739269188E-17
vn -0.852047 0.523465 -3.205298683578346E-17
vn 0.93 0.367558 -2.2506436410050142E-17
vn 0.523466 0.852047 -5.2172831563655244E-17
vn 0.367557 -0.930001 5.694613739269188E-17
vn -0.930001 -0.367557 2.2506375177710188E-17
vn -0.523466 -0.852046 5.217277033131528E-17
vn 0.852046 -0.523466 3.2053048068123416E-17
vn -0.367557 0.930001 -5.694613739269188E-17
vn -0.852046 0.523466 -3.2053048068123416E-17
vn 0.930001 0.367557 -2.2506375177710188E-17
vn 0.523467 0.852046 -5.217277033131528E-17
vn 0 6.123233995736766E-17 1
vn 0 6.123233995736766E-17 1
vn 0 6.123233995736766E-17 1
vn 0 6.123233995736766E-17 1
vn 1 0 0
vn 1 0 0
vn 0 6.123233995736766E-17 1
vn 0 6.123233995736766E-17 1
vn 1 0 0
vn 1 0 0
vn 0 6.123233995736766E-17 1
vn 0 6.123233995736766E-17 1
vn 1 0 0
vn 1 0 0
vn 0 6.123233995736766E-17 1
vn 0 6.123233995736766E-17 1
vn 1 0 0
vn 1 0 0
vn 0 6.123233995736766E-17 1
vn 0 6.123233995736766E-17 1
vn 1 0 0
vn 1 0 0
vn 1 0 0
vn 1 0 0
vn -0 1 -6.123233995736766E-17
vn 1 0 0
vn 1 0 0
vn -0 1 -6.123233995736766E-17
vn -0 1 -6.123233995736766E-17
vn 0 -1 6.123233995736766E-17
vn 0 -1 6.123233995736766E-17
vn 0 -1 6.123233995736766E-17
vn 0 -1 6.123233995736766E-17
vn 0 -1 6.123233995736766E-17
vn 0 -1 6.123233995736766E-17
vn 0 -1 6.123233995736766E-17
vn 0 -1 6.123233995736766E-17
vn 0 -1 6.123233995736766E-17
vn 0 -1 6.123233995736766E-17
vn 0 -1 6.123233995736766E-17
vn 0 -1 6.123233995736766E-17
vn 0 -1 6.123233995736766E-17
vn 0 -1 6.123233995736766E-17
vn 0 -1 6.123233995736766E-17
vn 0 -1 6.123233995736766E-17
vn 0 -1 6.123233995736766E-17
vn 0 -1 6.123233995736766E-17
vn 0 -1 6.123233995736766E-17
vn 0 -1 6.123233995736766E-17
vn 0 -1 6.123233995736766E-17
vn 0 -1 6.123233995736766E-17
vn 0 -1 6.123233995736766E-17
vn 0 -1 6.123233995736766E-17
vn 0 -1 6.123233995736766E-17
vn 0 -1 6.123233995736766E-17
vn 0 -1 6.123233995736766E-17
vn 0 -1 6.123233995736766E-17
vn 0 -1 6.123233995736766E-17
vn 0 -1 6.123233995736766E-17
vn 0 -1 6.123233995736766E-17
vn 0 -1 6.123233995736766E-17
vn 0 -1 6.123233995736766E-17
vn 0 -1 6.123233995736766E-17
vn 0 -1 6.123233995736766E-17
vn 0 -1 6.123233995736766E-17
vn 0 -1 6.123233995736766E-17
vn 0 -1 6.123233995736766E-17
vn -1 0 0
vn -1 0 0
vn 1 0 0
vn 1 0 0
vn 0 6.123233995736766E-17 1
vn 0 6.123233995736766E-17 1
vn 1 0 0
vn 1 0 0
vn 0 6.123233995736766E-17 1
vn 0 6.123233995736766E-17 1
vn 1 0 0
vn 1 0 0
vn 0 6.123233995736766E-17 1
vn 0 6.123233995736766E-17 1
vn 1 0 0
vn 1 0 0
vn 0 6.123233995736766E-17 1
vn 0 6.123233995736766E-17 1
vn 1 0 0
vn 1 0 0
vn 0 6.123233995736766E-17 1
vn 0 6.123233995736766E-17 1
vn 1 0 0
vn 1 0 0
vn 0 6.123233995736766E-17 1
vn 0 6.123233995736766E-17 1
vn 1 0 0
vn 1 0 0
vn 0 6.123233995736766E-17 1
vn 0 6.123233995736766E-17 1
vn 1 0 0
vn 1 0 0
vn 0 6.123233995736766E-17 1
vn 0 6.123233995736766E-17 1
vn 1 0 0
vn 1 0 0
vn 0 1 -6.123233995736766E-17
vn 0 1 -6.123233995736766E-17
vn 0 1 -6.123233995736766E-17
vn 0 1 -6.123233995736766E-17
vn 0 1 -6.123233995736766E-17
vn 0 1 -6.123233995736766E-17
vn 0 1 -6.123233995736766E-17
vn 0 1 -6.123233995736766E-17
vn 0 1 -6.123233995736766E-17
vn 0 1 -6.123233995736766E-17
vn 0 1 -6.123233995736766E-17
vn 0 1 -6.123233995736766E-17
vn 0 1 -6.123233995736766E-17
vn 0 1 -6.123233995736766E-17
vn 0 1 -6.123233995736766E-17
vn 0 1 -6.123233995736766E-17
vn 0 1 -6.123233995736766E-17
vn 0 1 -6.123233995736766E-17
vn 0 1 -6.123233995736766E-17
vn 1 0 0
vn 1 0 0
vn -0 1 -6.123233995736766E-17
vn 0 1 -6.123233995736766E-17
vn 0 1 -6.123233995736766E-17
vn 0 1 -6.123233995736766E-17
vn -0.316228 -0.948683 5.809007996777542E-17
vn 0.316228 -0.948683 5.809007996777542E-17
vn 0 6.123233995736766E-17 1
vn 0 6.123233995736766E-17 1
vn 0 6.123233995736766E-17 1
vn 0 6.123233995736766E-17 1
vn -0.316228 -0.948683 5.809007996777542E-17
vn 0.316228 -0.948683 5.809007996777542E-17
vn 0 6.123233995736766E-17 1
vn 0 6.123233995736766E-17 1
vn 0 6.123233995736766E-17 1
vn 0 6.123233995736766E-17 1
vn -0.316228 -0.948683 5.809007996777542E-17
vn 0.316228 -0.948683 5.809007996777542E-17
vn 0 6.123233995736766E-17 1
vn 0 6.123233995736766E-17 1
vn 0 6.123233995736766E-17 1
vn 0 6.123233995736766E-17 1
vn -0.930001 -0.367557 2.2506375177710188E-17
vn -0.523466 -0.852046 5.217277033131528E-17
vn 0 6.123233995736766E-17 1
vn 0 6.123233995736766E-17 1
vn 0 6.123233995736766E-17 1
vn 0 6.123233995736766E-17 1
vn -0.93 -0.367558 2.2506436410050142E-17
vn -0.523466 -0.852047 5.2172831563655244E-17
vn 0 6.123233995736766E-17 1
vn 0 6.123233995736766E-17 1
vn 0 6.123233995736766E-17 1
vn 0 6.123233995736766E-17 1
vn -0.930001 -0.367557 2.2506375177710188E-17
vn -0.523466 -0.852046 5.217277033131528E-17
vn 0 6.123233995736766E-17 1
vn 0 6.123233995736766E-17 1
vn 0 6.123233995736766E-17 1
vn 0 6.123233995736766E-17 1
vn 1 0 0
vn 1 0 0
vn 0 6.123233995736766E-17 1
vn 0 6.123233995736766E-17 1
vn 1 0 0
vn 1 0 0
vn 0 6.123233995736766E-17 1
vn 0 6.123233995736766E-17 1
vn 1 0 0
vn 1 0 0
vn 0 6.123233995736766E-17 1
vn 0 6.123233995736766E-17 1
vn 1 0 0
vn 1 0 0
vn 0 6.123233995736766E-17 1
vn 0 6.123233995736766E-17 1
vn 1 0 0
vn 1 0 0
vn 0 1 -6.123233995736766E-17
vn 0 1 -6.123233995736766E-17
vn 0 1 -6.123233995736766E-17
vn 0 1 -6.123233995736766E-17
vn 0 1 -6.123233995736766E-17
vn 0 1 -6.123233995736766E-17
vn 0 1 -6.123233995736766E-17
vn 0 1 -6.123233995736766E-17
vn 0 1 -6.123233995736766E-17
vn 0 1 -6.123233995736766E-17
vn 0 1 -6.123233995736766E-17
vn -0 1 -6.123233995736766E-17
vn -0 1 -6.123233995736766E-17
vn -0.948683 0.316228 -1.9363380400038462E-17
vn -0.948683 -0.316228 1.9363380400038462E-17
vn -0.948683 0.316228 -1.9363380400038462E-17
vn 0.316228 0.948683 -5.809007996777542E-17
vn 0.948683 -0.316228 1.9363380400038462E-17
vn 0.948683 0.316228 -1.9363380400038462E-17
vn 0.948683 0.316228 -1.9363380400038462E-17
vn -0.316228 0.948683 -5.809007996777542E-17
vn 0.316228 0.948683 -5.809007996777542E-17
vn -0.948683 0.316228 -1.9363380400038462E-17
vn -0.948683 -0.316228 1.9363380400038462E-17
vn -0.948683 0.316228 -1.9363380400038462E-17
vn 0.316228 0.948683 -5.809007996777542E-17
vn 0.948683 -0.316228 1.9363380400038462E-17
vn 0.948683 0.316228 -1.9363380400038462E-17
vn 0.948683 0.316228 -1.9363380400038462E-17
vn -0.316228 0.948683 -5.809007996777542E-17
vn 0.316228 0.948683 -5.809007996777542E-17
vn -0.948683 0.316228 -1.9363380400038462E-17
vn -0.948683 -0.316228 1.9363380400038462E-17
vn -0.948683 0.316228 -1.9363380400038462E-17
vn 0.316228 0.948683 -5.809007996777542E-17
vn 0.948683 -0.316228 1.9363380400038462E-17
vn 0.948683 0.316228 -1.9363380400038462E-17
vn 0.948683 0.316228 -1.9363380400038462E-17
vn -0.316228 0.948683 -5.809007996777542E-17
vn 0.316228 0.948683 -5.809007996777542E-17
vn -0.367557 0.930001 -5.694613739269188E-17
vn -0.852046 0.523467 -3.205310930046338E-17
vn -0.367557 0.930001 -5.694613739269188E-17
vn 0.930001 0.367557 -2.2506375177710188E-17
vn 0.367557 -0.930001 5.694613739269188E-17
vn 0.852046 -0.523467 3.205310930046338E-17
vn 0.852046 -0.523467 3.205310930046338E-17
vn 0.523466 0.852046 -5.217277033131528E-17
vn 0.930001 0.367557 -2.2506375177710188E-17
vn -0.367558 0.930001 -5.694613739269188E-17
vn -0.852047 0.523465 -3.205298683578346E-17
vn -0.367558 0.930001 -5.694613739269188E-17
vn 0.93 0.367558 -2.2506436410050142E-17
vn 0.367558 -0.930001 5.694613739269188E-17
vn 0.852047 -0.523465 3.205298683578346E-17
vn 0.852047 -0.523465 3.205298683578346E-17
vn 0.523466 0.852047 -5.2172831563655244E-17
vn 0.93 0.367558 -2.2506436410050142E-17
vn -0.367557 0.930001 -5.694613739269188E-17
vn -0.852046 0.523466 -3.2053048068123416E-17
vn -0.367557 0.930001 -5.694613739269188E-17
vn 0.930001 0.367557 -2.2506375177710188E-17
vn 0.367557 -0.930001 5.694613739269188E-17
vn 0.852046 -0.523466 3.2053048068123416E-17
vn 0.852046 -0.523466 3.2053048068123416E-17
vn 0.523467 0.852046 -5.217277033131528E-17
vn 0.930001 0.367557 -2.2506375177710188E-17
g 16 - Default
f 163/163/163 164/164/164 165/165/165
f 165/165/165 166/166/166 163/163/163
f 158/158/158 162/162/162 160/160/160
f 156/156/156 162/162/162 158/158/158
f 154/154/154 162/162/162 156/156/156
f 151/151/151 162/162/162 154/154/154
f 153/153/153 162/162/162 151/151/151
f 161/161/161 158/158/158 160/160/160
f 159/159/159 156/156/156 158/158/158
f 157/157/157 154/154/154 156/156/156
f 155/155/155 151/151/151 154/154/154
f 152/152/152 153/153/153 151/151/151
f 146/146/146 148/148/148 149/149/149
f 149/149/149 150/150/150 146/146/146
f 144/144/144 148/148/148 146/146/146
f 142/142/142 148/148/148 144/144/144
f 140/140/140 148/148/148 142/142/142
f 138/138/138 148/148/148 140/140/140
f 136/136/136 148/148/148 138/138/138
f 134/134/134 148/148/148 136/136/136
f 132/132/132 148/148/148 134/134/134
f 129/129/129 148/148/148 132/132/132
f 131/131/131 148/148/148 129/129/129
f 147/147/147 144/144/144 146/146/146
f 145/145/145 142/142/142 144/144/144
f 143/143/143 140/140/140 142/142/142
f 141/141/141 138/138/138 140/140/140
f 139/139/139 136/136/136 138/138/138
f 137/137/137 134/134/134 136/136/136
f 135/135/135 132/132/132 134/134/134
f 133/133/133 129/129/129 132/132/132
f 130/130/130 131/131/131 129/129/129
f 293/293/293 294/294/294 127/127/127
f 127/127/127 128/128/128 293/293/293
f 123/123/123 126/126/126 125/125/125
f 125/125/125 122/122/122 123/123/123
f 124/124/124 289/289/289 291/291/291
f 124/124/124 287/287/287 289/289/289
f 124/124/124 285/285/285 287/287/287
f 124/124/124 282/282/282 285/285/285
f 124/124/124 284/284/284 282/282/282
f 289/289/289 292/292/292 291/291/291
f 287/287/287 290/290/290 289/289/289
f 285/285/285 288/288/288 287/287/287
f 282/282/282 286/286/286 285/285/285
f 284/284/284 283/283/283 282/282/282
f 120/120/120 281/281/281 280/280/280
f 280/280/280 121/121/121 120/120/120
f 278/278/278 279/279/279 119/119/119
f 119/119/119 118/118/118 278/278/278
f 116/116/116 277/277/277 276/276/276
f 276/276/276 117/117/117 116/116/116
f 274/274/274 275/275/275 115/115/115
f 115/115/115 114/114/114 274/274/274
f 112/112/112 273/273/273 272/272/272
f 272/272/272 113/113/113 112/112/112
f 270/270/270 271/271/271 111/111/111
f 111/111/111 110/110/110 270/270/270
f 108/108/108 269/269/269 268/268/268
f 268/268/268 109/109/109 108/108/108
f 266/266/266 267/267/267 107/107/107
f 107/107/107 106/106/106 266/266/266
f 104/104/104 265/265/265 264/264/264
f 264/264/264 105/105/105 104/104/104
f 100/100/100 103/103/103 102/102/102
f 102/102/102 101/101/101 100/100/100
f 260/260/260 263/263/263 262/262/262
f 262/262/262 261/261/261 260/260/260
f 348/348/348 347/347/347 346/346/346
f 345/345/345 344/344/344 343/343/343
f 342/342/342 341/341/341 99/99/99
f 99/99/99 98/98/98 340/340/340
f 258/258/258 259/259/259 97/97/97
f 97/97/97 96/96/96 258/258/258
f 92/92/92 95/95/95 94/94/94
f 94/94/94 93/93/93 92/92/92
f 254/254/254 257/257/257 256/256/256
f 256/256/256 255/255/255 254/254/254
f 339/339/339 338/338/338 337/337/337
f 336/336/336 335/335/335 334/334/334
f 333/333/333 332/332/332 91/91/91
f 91/91/91 90/90/90 331/331/331
f 252/252/252 253/253/253 89/89/89
f 89/89/89 88/88/88 252/252/252
f 84/84/84 87/87/87 86/86/86
f 86/86/86 85/85/85 84/84/84
f 248/248/248 251/251/251 250/250/250
f 250/250/250 249/249/249 248/248/248
f 330/330/330 329/329/329 328/328/328
f 327/327/327 326/326/326 325/325/325
f 324/324/324 323/323/323 83/83/83
f 83/83/83 82/82/82 322/322/322
f 246/246/246 247/247/247 81/81/81
f 81/81/81 80/80/80 246/246/246
f 76/76/76 79/79/79 78/78/78
f 78/78/78 77/77/77 76/76/76
f 242/242/242 245/245/245 244/244/244
f 244/244/244 243/243/243 242/242/242
f 321/321/321 320/320/320 319/319/319
f 318/318/318 317/317/317 316/316/316
f 315/315/315 314/314/314 75/75/75
f 75/75/75 74/74/74 313/313/313
f 240/240/240 241/241/241 73/73/73
f 73/73/73 72/72/72 240/240/240
f 68/68/68 71/71/71 70/70/70
f 70/70/70 69/69/69 68/68/68
f 236/236/236 239/239/239 238/238/238
f 238/238/238 237/237/237 236/236/236
f 312/312/312 311/311/311 310/310/310
f 309/309/309 308/308/308 307/307/307
f 306/306/306 305/305/305 67/67/67
f 67/67/67 66/66/66 304/304/304
f 234/234/234 235/235/235 65/65/65
f 65/65/65 64/64/64 234/234/234
f 60/60/60 63/63/63 62/62/62
f 62/62/62 61/61/61 60/60/60
f 230/230/230 233/233/233 232/232/232
f 232/232/232 231/231/231 230/230/230
f 303/303/303 302/302/302 301/301/301
f 300/300/300 299/299/299 298/298/298
f 297/297/297 296/296/296 59/59/59
f 59/59/59 55/55/55 295/295/295
f 228/228/228 229/229/229 58/58/58
f 58/58/58 54/54/54 228/228/228
f 52/52/52 56/56/56 57/57/57
f 57/57/57 53/53/53 52/52/52
f 225/225/225 227/227/227 226/226/226
f 226/226/226 2/2/2 225/225/225
f 220/220/220 224/224/224 49/49/49
f 49/49/49 44/44/44 220/220/220
f 43/43/43 48/48/48 47/47/47
f 47/47/47 42/42/42 43/43/43
f 222/222/222 223/223/223 45/45/45
f 45/45/45 46/46/46 222/222/222
f 44/44/44 218/218/218 220/220/220
f 44/44/44 216/216/216 218/218/218
f 44/44/44 214/214/214 216/216/216
f 44/44/44 212/212/212 214/214/214
f 44/44/44 210/210/210 212/212/212
f 44/44/44 208/208/208 210/210/210
f 44/44/44 206/206/206 208/208/208
f 44/44/44 203/203/203 206/206/206
f 44/44/44 205/205/205 203/203/203
f 218/218/218 221/221/221 220/220/220
f 216/216/216 219/219/219 218/218/218
f 214/214/214 217/217/217 216/216/216
f 212/212/212 215/215/215 214/214/214
f 210/210/210 213/213/213 212/212/212
f 208/208/208 211/211/211 210/210/210
f 206/206/206 209/209/209 208/208/208
f 203/203/203 207/207/207 206/206/206
f 205/205/205 204/204/204 203/203/203
f 42/42/42 202/202/202 201/201/201
f 201/201/201 43/43/43 42/42/42
f 199/199/199 200/200/200 41/41/41
f 41/41/41 40/40/40 199/199/199
f 38/38/38 198/198/198 197/197/197
f 197/197/197 39/39/39 38/38/38
f 195/195/195 196/196/196 37/37/37
f 37/37/37 36/36/36 195/195/195
f 35/35/35 194/194/194 193/193/193
f 193/193/193 34/34/34 35/35/35
f 191/191/191 192/192/192 32/32/32
f 32/32/32 31/31/31 191/191/191
f 30/30/30 190/190/190 189/189/189
f 189/189/189 33/33/33 30/30/30
f 187/187/187 188/188/188 29/29/29
f 29/29/29 28/28/28 187/187/187
f 26/26/26 186/186/186 185/185/185
f 185/185/185 27/27/27 26/26/26
f 183/183/183 184/184/184 24/24/24
f 24/24/24 23/23/23 183/183/183
f 22/22/22 182/182/182 181/181/181
f 181/181/181 25/25/25 22/22/22
f 179/179/179 180/180/180 20/20/20
f 20/20/20 19/19/19 179/179/179
f 18/18/18 178/178/178 177/177/177
f 177/177/177 21/21/21 18/18/18
f 175/175/175 176/176/176 17/17/17
f 17/17/17 16/16/16 175/175/175
f 15/15/15 174/174/174 173/173/173
f 173/173/173 14/14/14 15/15/15
f 171/171/171 172/172/172 13/13/13
f 13/13/13 12/12/12 171/171/171
f 11/11/11 170/170/170 169/169/169
f 169/169/169 10/10/10 11/11/11
f 51/51/51 9/9/9 8/8/8
f 8/8/8 7/7/7 51/51/51
f 3/3/3 168/168/168 167/167/167
f 167/167/167 1/1/1 3/3/3
f 50/50/50 5/5/5 6/6/6
f 6/6/6 4/4/4 50/50/50
