v 1.0351158615 -1.0613451555 -0.008148703499999936
v 0.8403949575 -1.13221773 -0.00814870349999993
v 0.96868989 -0.8788415265 0.05880649950000005
v 0.773969049 -0.9497141010000001 0.05880649950000005
v 0.9022639815000001 -0.6963377715 -0.008148703499999958
v 0.7075430775 -0.767210409 -0.008148703499999953
v 0.928466847 -0.9159775065 0.08347981950000005
v 0.917379351 -1.0427085900000002 0.08347981950000007
v 0.8096871195 -0.9055857195 0.14040901350000007
v 0.7985996235 -1.0323167715 0.14040901350000007
v 0.6909074235 -0.895193775 0.08347981950000005
v 0.6798199275 -1.0219248585 0.08347981950000005
v 0.974559537 -0.9359701785000001 -0.010376005499999941
v 1.0281914685 -1.136127006 -0.01037600549999993
v 0.7869609405000001 -0.9862370595 0.06907864950000005
v 0.840592809 -1.18639395 0.06907864950000006
v 0.599362407 -1.036503972 -0.010376005499999936
v 0.6529942755000001 -1.2366607365 -0.010376005499999924
v 0.8582884695 -1.034770023 0.14863665600000006
v 0.9778316309999999 -1.0782801855 0.14863665600000006
v 0.8271230625 -1.120396221 0.25416455400000004
v 0.946666224 -1.1639063835 0.25416455400000004
v 0.7843696245 -1.2378604455 0.27127519650000004
v 0.903912723 -1.281370608 0.27127519650000004
v 0.8175289185000001 -0.9631094130000001 0.07673400000000005
v 0.9815988105000001 -0.9920393595 0.07673400000000005
v 0.790414065 -1.116885294 0.13056535800000005
v 0.9544840515 -1.1458152719999999 0.13056535800000008
v 0.763299306 -1.270661112 0.07673400000000008
v 0.927369198 -1.2995910585 0.07673400000000008
v 0.9266660865 -0.95415642 0.14921225550000006
v 0.8937403964999999 -1.0770368805000001 0.14921225550000006
v 0.8296004745 -0.928147815 0.23746350600000005
v 0.796674816 -1.051028181 0.23746350600000005
v 0.7102160415000001 -0.896158809 0.24846223500000006
v 0.677290383 -1.019039238 0.24846223500000006
v 0.8153302185 -0.944341335 -0.009035680499999943
v 1.0225477710000002 -0.944341335 -0.009035680499999943
v 0.8153302185 -1.1385576720000001 0.06289712100000007
v 1.022547897 -1.1385576720000001 0.06289712100000007
v 0.8153302185 -1.3327740405000001 -0.009035680499999919
v 1.022547897 -1.3327740405000001 -0.009035680499999919
v 0.8804498850000001 -1.0820674934999999 0.15236175150000006
v 0.9534175245000001 -0.9778588785 0.15236175150000006
v 0.9781202025000001 -1.150456923 0.1965227670000001
v 1.0510878104999999 -1.0462483395 0.19652276700000007
v 1.0757905515000001 -1.2188464785 0.1523617515000001
v 1.1487581595 -1.1146378950000002 0.15236175150000006
v 0.8577336285 -1.1441673495 0.07573170150000007
v 0.9008531595 -0.9832431105 0.07573170150000005
v 1.0085610465000001 -1.1845814085 0.13961247300000007
v 1.051680546 -1.0236572325000002 0.13961247300000004
v 1.159388496 -1.224995562 0.07573170150000007
v 1.202508027 -1.0640714175000001 0.07573170150000007
v 0.985352886 -1.007718894 0.15034162500000006
v 0.8600704245 -0.9856282275 0.15034162500000006
v 1.003249485 -0.9062222085 0.24288405750000006
v 0.8779670235 -0.8841315734999999 0.24288405750000006
v 1.0253511765 -0.7808769675 0.22544770500000005
v 0.900068715 -0.7587863325 0.22544770500000005
v 0.9875992140000001 -1.0692564435 0.08317099350000007
v 0.8774276175000001 -1.005648777 0.08317099350000005
v 1.0472158935 -0.965997207 0.12733200900000005
v 0.937044297 -0.9023896035000001 0.12733200900000005
v 1.1068326045 -0.8627380020000001 0.08317099350000005
v 0.996661071 -0.7991304615 0.08317099350000004
v 0.888059403 -1.1248976655 -0.012741655499999931
v 0.8004854655 -0.9370947285 -0.012741655499999942
v 1.0640792295000001 -1.0428183045 0.07998892650000006
v 0.976505229 -0.8550153675 0.07998892650000004
v 1.2400989615 -0.9607388805 -0.01274165549999994
v 1.1525250555 -0.7729358805 -0.012741655499999952
v 1.1384010855 -0.8813367675 0.025945227000000053
v 1.144454913 -0.9509974425 0.14259949200000005
v 1.2387283965 -0.9143590364999999 0.09622418400000006
v 1.2311787914999999 -1.0474224705 0.10964069550000007
v 1.2112047045 -0.9108351315 -0.002171168999999944
v 1.2962203695 -0.9715604535 0.06407641800000005
v 1.3284267885 -0.87025617 0.038470036500000054
v 1.422056349 -0.955907316 0.05064771600000006
v 1.209357072 -0.9005726205000001 -0.0018277244999999448
v 1.173920769 -0.9826289235000001 0.09066396150000006
v 1.274995386 -0.9926138565 0.04763477250000007
v 1.2158246205 -1.099059381 0.07371652050000006
v 1.215308745 -0.750489579 -0.016307549999999955
v 1.2853897245 -0.8165848320000001 0.07790998950000005
v 1.327831407 -0.712811043 0.07719267150000005
v 1.4236780635 -0.8056836585 0.07302834000000007
v 1.204083846 -0.924418971 -0.0006108164999999434
v 1.3045502925 -0.8752880115 0.07526106000000006
v 1.202384988 -0.845331417 0.10579410450000006
v 1.2844852335 -0.746209359 0.07763767200000005
v 1.2304677735 -0.7619678955 -0.016456765499999956
v 1.2284663580000001 -0.6561756495 0.04612611150000004
v 1.1532329234999998 -0.730267209 0.07619459400000005
v 1.1150012790000001 -0.6128510535 0.07580399400000004
v 1.1480702310000002 -0.9037687365 0.026248036500000054
v 1.169681436 -0.7935639075 0.07490734650000004
v 1.0833175395 -0.847319697 0.12077808750000006
v 1.0739939805 -0.722966013 0.10875608100000003
v 1.22137218 -0.757036287 -0.015110329499999952
v 1.1661048944999999 -0.752443461 0.09737698950000005
v 1.211134302 -0.849516822 0.06595929900000005
v 1.1064081735 -0.8552138805 0.13561313850000006
v 1.141043463 -0.89641692 0.028572264000000056
v 1.0904716935 -0.8705542860000001 0.14388598350000004
v 1.1111913855 -0.9781250850000001 0.12271284900000007
v 0.997908282 -0.954402939 0.16087503600000005
v 1.289614032 -0.6460957125 -0.019125728999999963
v 1.4080020885 -0.657317178 0.06993661500000004
v 1.34623062 -0.5660421165 0.07973028000000003
v 1.466036712 -0.550854549 0.022796329500000035
v 1.3009344704999999 -0.5655443535 -0.015937330499999965
v 1.380677508 -0.4972206015 0.05258499750000003
v 1.261675422 -0.4753760445 0.05613996150000003
v 1.3363606935 -0.38506576499999995 0.06384208950000003
v 1.2911544135000002 -0.5692626135000001 -0.014445836999999965
v 1.41026319 -0.6110939205 0.02306984400000004
v 1.3931107784999999 -0.5065231815 0.02123978850000003
v 1.484759304 -0.5334006825 -0.054707750999999964
v 1.1362468005 -0.598479399 -0.0007329104999999633
v 1.2309047100000001 -0.5374563705000001 0.08391212550000002
v 1.121996673 -0.5236969815 0.11062803150000003
v 1.1858481495 -0.411095475 0.09301827150000003
v 1.3152464955 -0.569957346 -0.02059580249999997
v 1.2885228405 -0.5056903845 0.08572013100000003
v 1.2832926435 -0.6135824835 0.08089077150000004
v 1.1628843974999998 -0.5572190295 0.09683663850000003
v 1.144215891 -0.5818917825 -0.0018106514999999643
v 1.0793154015 -0.620528517 0.10263777300000004
v 1.168057674 -0.6822110925 0.06487607700000005
v 1.0734882165000001 -0.7445669804999999 0.11081334600000005
v 1.3110714225000002 -0.632508282 -0.017687533499999963
v 1.222759944 -0.6520158225 0.04693207050000005
v 1.3012681815 -0.7290038385000001 0.04088901600000005
v 1.1835374355000001 -0.7657730955000001 0.059576832000000045
v 0.966499632 -0.6957954675 0.06857272800000005
v 1.020082266 -0.7744140180000001 0.14761835550000005
v 1.0939662719999999 -0.6989896935000001 0.11910946950000004
v 1.138454793 -0.8128053675 0.13257294750000007
v 1.30540599 -0.6410906774999999 -0.01770183449999996
v 1.3339532115 -0.7221623535 0.06298614000000004
v 1.4255341065 -0.6756751575000001 0.02760294600000004
v 1.439749017 -0.7897333500000001 0.054896247000000044
v -0.868067235 -1.1034841229999999 0.13881873600000005
v -0.8799203385000001 -1.20647772 0.17645084100000008
v -0.9328666725 -1.0736711055000001 0.2597416605000001
v -0.944719776 -1.1766648285 0.25890177600000003
v -1.043845803 -1.060666236 0.26100103050000006
v -1.055698938 -1.1636598329999999 0.29863313550000004
v -0.881560197 -1.211397075 0.1283181165000001
v -0.8291943764999999 -1.1190948615 0.14834172150000005
v -0.8212821435 -1.2570123825000001 0.23233965300000006
v -0.768916323 -1.1647101690000001 0.2523632580000001
v -0.731154249 -1.3104074024999999 0.25295489100000007
v -0.6787884599999999 -1.218105189 0.2729785275
v -0.8417605454999999 -1.179898272 0.1723497300000001
v -0.8842584555 -1.1192049225 0.13443755850000005
v -0.7812244755 -1.1375104545 0.17234973000000006
v -0.8355804345 -1.0598822954999998 0.21429031050000005
v -0.732546486 -1.078187796 0.25220248200000006
v -0.775044396 -1.0174944465 0.21429031050000005
v -0.9153112185 -1.1513472075 0.1723497300000001
v -0.8437429980000001 -1.1705237775 0.13443755850000008
v -0.9344381445 -1.222730019 0.1723497300000001
v -0.8429006565 -1.247257305 0.21429031050000008
v -0.9335958030000001 -1.2994634520000001 0.25220248200000006
v -0.8620275825 -1.3186401165 0.21429031050000008
v -1.0294003125 -0.8983562175 0.13881873600000005
v -0.9606160305000001 -0.8207874359999999 0.17645084100000005
v -0.993419658 -0.9599450174999999 0.2597416605000001
v -0.924635376 -0.882376236 0.25890177600000003
v -0.9099702045 -1.0342530765 0.26100103050000006
v -0.8411859225 -0.9566842950000001 0.29863313550000004
v -0.9564511635 -0.8176983885 0.12831811650000008
v -1.0522890630000001 -0.863272116 0.14834172150000005
v -0.979664238 -0.745758405 0.23233965300000003
v -1.0755021375 -0.7913321325 0.2523632580000001
v -1.0228664564999999 -0.650324619 0.25295489100000007
v -1.1187044505 -0.695898315 0.2729785275
v -1.0071200475 -0.8206725555000001 0.17234973000000006
v -1.0071200475 -0.8947654065 0.13443755850000005
v -1.0810208745 -0.8206725555000001 0.17234973000000006
v -1.0810208745 -0.91543914 0.21429031050000005
v -1.1549218275000002 -0.841346352 0.25220248200000006
v -1.1549218275000002 -0.91543914 0.21429031050000005
v -0.9632470995 -0.8862471135 0.17234973000000006
v -1.0108730835 -0.8294887125 0.13443755850000005
v -0.9066358035 -0.838744578 0.17234973000000006
v -0.9675506295 -0.7661491425 0.21429031050000005
v -0.8633133495 -0.775405008 0.25220248200000006
v -0.9109392075 -0.7186466069999999 0.21429031050000005
v -0.811860399 -0.9901429335 0.13881873600000005
v -0.7191319589999999 -1.0365072165 0.17645084100000005
v -0.8620381665 -1.0408378995 0.2597416605000001
v -0.7693097265 -1.0872020565 0.25890177600000003
v -0.912215934 -1.1406762675 0.26100103050000006
v -0.819487494 -1.1870404245 0.29863313550000004
v -0.715070223 -1.03973058 0.12831811650000008
v -0.783895707 -0.958953618 0.14834172150000005
v -0.6515895645 -0.998689041 0.23233965300000003
v -0.7204150484999999 -0.917912142 0.2523632580000001
v -0.5705891415000001 -0.9322588169999999 0.25295489100000007
v -0.639414657 -0.851481855 0.2729785275
v -0.731057166 -0.9915579765000001 0.17234973000000006
v -0.8026252605 -1.0107346725000002 0.13443755850000005
v -0.7501841235 -0.9201752280000001 0.17234973000000006
v -0.8417216115 -0.9447026715 0.21429031050000005
v -0.7892803485000001 -0.85414329 0.25220248200000006
v -0.8608485690000001 -0.873319923 0.21429031050000005
v -0.783042183 -1.050907914 0.17234973000000006
v -0.740544273 -0.9902146275 0.13443755850000005
v -0.7225061445000001 -1.093295763 0.17234973000000006
v -0.6681503114999999 -1.015667478 0.21429031050000005
v -0.6501121515 -1.1187485505 0.25220248200000006
v -0.6076142415 -1.058055201 0.21429031050000005
v -1.1739512925 -0.963779544 0.13881873600000005
v -1.096382385 -1.032563826 0.17645084100000005
v -1.2355400925 -0.9997601355 0.2597416605000001
v -1.1579713109999998 -1.0685443545000002 0.25890177600000003
v -1.3098481515 -1.083209526 0.26100103050000006
v -1.232279118 -1.151993808 0.29863313550000004
v -1.093293369 -1.0367285670000002 0.12831811650000008
v -1.1388670650000001 -0.9408906674999999 0.14834172150000005
v -1.021353354 -1.0135155869999999 0.23233965300000003
v -1.0669270814999998 -0.917677656 0.2523632580000001
v -0.9259195680000001 -0.970313337 0.25295489100000007
v -0.9714932955 -0.874475406 0.2729785275
v -1.0962675045 -0.986059746 0.17234973000000006
v -1.1703603555 -0.986059746 0.13443755850000005
v -1.0962675045 -0.912158856 0.17234973000000006
v -1.191034152 -0.912158856 0.21429031050000005
v -1.116941175 -0.838258029 0.25220248200000006
v -1.191034152 -0.838258029 0.21429031050000005
v -1.1618419995 -1.029932631 0.17234973000000006
v -1.105083756 -0.9823067099999999 0.13443755850000005
v -1.1143394009999998 -1.0865440530000001 0.17234973000000006
v -1.0417441545000001 -1.025629227 0.21429031050000005
v -1.050999957 -1.129866507 0.25220248200000006
v -0.9942415875 -1.082240523 0.21429031050000005
v -1.1827327994999999 1.077360102 -6.596928002216831e-17
v -1.2026219310000001 1.10106297 -6.742066209350891e-17
v -1.1721500594999998 1.106435925 -6.774966070064454e-17
v -1.184343237 1.0864924875 0.2962009574999999
v -1.1939077395000002 1.0978911405 0.2962009574999999
v -1.179253845 1.1004751485 0.2962009574999999
v -1.193547222 1.0881425835 0.20811445199999995
v -1.1532159765 1.050429429 0.23152194449999997
v -1.139762547 1.1006375940000002 0.25319397599999993
v -1.09943127 1.046844477 0.20811445199999995
v -1.1716410510000002 1.1030870025000001 0.042854174999999925
v -1.174896009 1.2001195395 0.06907430249999993
v -1.254045933 1.1544223005 0.06907430249999993
v -1.257301143 1.2514548374999999 0.05976665099999992
v -1.179443223 1.1028495555 -6.753005890420781e-17
v -1.086439725 1.1727329670000002 0.03375637649999993
v -1.1856912165 1.2190144680000001 0.03375637649999992
v -1.092687624 1.2888978795 -7.892223312787429e-17
v -1.1914015995 1.0984576050000001 -6.72611294981159e-17
v -1.0998285479999999 1.0267102125 0.014299834499999938
v -1.0808120294999999 1.1345584005 0.02136433949999993
v -0.989238726 1.0628107875000001 0.014299834499999936
v -1.1848303845000001 1.1002631535 -6.737168745767739e-17
v -1.248323769 1.002785301 0.01882698299999994
v -1.1392285275 0.993240738 0.03625813799999993
v -1.236084696 0.8898800400000001 -5.4489437130555935e-17
v -1.178255295 1.091618388 0.05242746599999993
v -1.096903773 1.0386294345 0.08618384249999993
v -1.0889382735 1.1296759319999998 0.08618384249999993
v -1.0075868775 1.076686947 0.052427465999999937
v -1.1778152714999999 1.085404068 0.10332280349999992
v -1.1298865724999998 1.0216186784999999 0.12588370199999993
v -1.098144936 1.0896890760000002 0.12588370199999993
v -1.0502162685 1.0259036865 0.11787501599999994
v -1.1851127505 1.099742868 0.05242746599999993
v -1.2152409885 1.007448813 0.06672730049999993
v -1.125235062 1.023319458 0.07379180549999995
v -1.1553632999999999 0.931025403 0.06672730049999993
v -1.1919130335 1.102140837 -6.748666241208173e-17
v -1.3025028555 1.1382413805 0.026220127499999933
v -1.283486337 1.030393224 0.02622012749999994
v -1.394075907 1.0664940195 0.016912475999999937
v -1.1710916594999998 1.096996887 0.042854174999999925
v -1.2656603925 1.1189665305 0.06168118949999993
v -1.2420058454999998 1.030686174 0.07911231299999993
v -1.3507107705 1.077140925 0.04285417499999993
v -1.1850997724999999 1.0899113715 0.10332280349999992
v -1.264840416 1.087236297 0.13236819749999995
v -1.2272865885 1.02219138 0.13236819749999995
v -1.3070274525 1.0195163055 0.10332280349999994
v -1.1874679425 1.0924963245000001 0.14011228349999993
v -1.225181097 1.0521650475 0.18208143449999994
v -1.174972932 1.0387118385 0.18208143449999994
v -1.2126860865 0.9983803410000001 0.14011228349999993
v -1.1810558025 1.0892451779999999 0.10332280349999992
v -1.1070390239999999 1.1190316724999998 0.11952233999999994
v -1.1645744985 1.1673097695 0.1345208444999999
v -1.0695001275 1.1872772415000001 0.10332280349999992
v -1.181697489 1.0938555810000001 0.14011228349999993
v -1.1270286404999998 1.0860957135 0.17271163349999996
v -1.1448064845 1.1349402750000002 0.17271163349999996
v -1.090137636 1.127180628 0.16113950999999996
v -1.185162993 1.094149287 0.14011228349999993
v -1.1635182720000001 1.144947195 0.16351980749999992
v -1.21529961 1.1404168335000002 0.18519183899999994
v -1.178544906 1.1967141374999999 0.1401122834999999
v -1.1932449165 1.0849222125 0.20811445199999995
v -1.152160002 1.1218131855000002 0.22589333549999996
v -1.2010045635 1.1395910610000002 0.23467660649999994
v -1.1599198695000001 1.1764820655 0.22589333549999993
v -1.173680928 1.088747226 0.20811445199999995
v -1.1996707274999998 1.040029326 0.24071377049999995
v -1.1476913805 1.040029326 0.24071377049999995
v -1.173680928 0.9913113945 0.22914164699999995
v -1.17940284 1.0935028125 0.20811445199999995
v -1.2044032245 1.1427357375 0.25008353999999994
v -1.2342173445 1.1001569355 0.25008353999999994
v -1.259217729 1.1493898605000001 0.20811445199999992
v -1.175954913 1.085088753 0.20811445199999995
v -1.229739588 1.097583543 0.25008353999999994
v -1.2162864105000002 1.0473753465 0.25008353999999994
v -1.270070865 1.0598703885 0.20811445199999995
v -1.1822401395 1.0955350035 0.14011228349999993
v -1.2309580395 1.121524551 0.15789119849999997
v -1.2309580395 1.0695454245 0.16667446949999995
v -1.2796761915 1.0955350035 0.15789119849999997
v -1.1766537719999999 1.087674399 0.10332280349999992
v -1.1998759815 1.164005766 0.11562698699999993
v -1.252984887 1.1108968605 0.12170560499999993
v -1.2762073485 1.1872279755 0.11562698699999993
v -1.1326777245 1.154499444 0.276124779
v -1.1182877370000002 1.072889559 0.276124779
v -1.219142421 1.1392534125 0.31706580149999997
v -1.2047521815000002 1.0576435275 0.31706580149999997
v -1.185386958 1.004079447 0.22893469199999994
v -1.259993763 1.0362783059999998 0.24519146399999994
v -1.1450970404999998 1.065590379 0.29200487399999997
v -1.2197038455 1.0977892379999998 0.30826161449999995
v -1.2477955139999999 1.1192282325 0.24221039849999992
v -1.2106894590000001 1.1585436345 0.2530258605
v -1.218508452 1.080043839 0.2841704459999999
v -1.1814023655 1.119358989 0.29498597099999996
v -1.3164744285 0.91349496 -5.593543394006197e-17
v -1.3489744275 0.89473104 -5.478647521168913e-17
v -1.3489744275 0.93225888 -5.708439266843483e-17
v -1.3277214405 0.91349496 0.17496240299999996
v -1.3433507955 0.9044714385 0.17496240299999996
v -1.3433507955 0.9225184815 0.17496240299999996
v -1.3316308110000001 0.9028488735 0.14826454649999996
v -1.278091269 0.943078941 0.16494048899999994
v -1.335227544 0.969721956 0.18038005649999994
v -1.2624818535 1.006565616 0.14826454649999996
v -1.3448672684999998 0.932161671 0.030530114999999945
v -1.461450816 0.948709566 0.04920980399999995
v -1.423538676 0.8445468780000001 0.049209803999999954
v -1.5401219715 0.8610947729999999 0.042578864999999945
v -1.346226777 0.922792311 -5.650473249719695e-17
v -1.410109722 1.0485959715 0.02404864349999994
v -1.4862928185 0.939795129 0.024048643499999946
v -1.5501757635 1.0655990415 -6.524912276737312e-17
v -1.3434995699999999 0.9075840165 -5.557349303820117e-17
v -1.238516559 1.0018506645 0.010187446499999938
v -1.3633279065 1.0472782635 0.015220358999999935
v -1.2583448640000001 1.1415446595 0.01018744649999993
v -1.344272202 0.9158131395000001 -5.607738149528818e-17
v -1.2412144395 0.8194454415 0.038169274499999954
v -1.2068377335 0.9477410355 0.0008391284999999419
v -1.103779971 0.8102851785 0.011873578499999952
v -1.3325618565 0.9218461455 0.037350305999999944
v -1.2521370015 1.0078542495 0.06139894949999994
v -1.3592077379999998 1.0365436305 0.06139894949999994
v -1.2787829145 1.1225517029999998 0.03735030599999993
v -1.35345483 0.8966704635 0.07360907399999994
v -1.256826501 0.8914734045 0.08968188599999995
v -1.295324541 0.9740324475000001 0.08968188599999995
v -1.198696212 0.96883542 0.08397632249999995
v -1.3437103365 0.9153662490000001 0.037350305999999944
v -1.2398174145 0.8599424085 0.04753775249999994
v -1.2398174145 0.9707902155 0.05257063349999994
v -1.1359243035000002 0.9153662490000001 0.04753775249999994
v -1.3480064010000001 0.9077490135 -5.558359619059712e-17
v -1.414417095 0.7832610135 0.01867968899999995
v -1.2815956755 0.7832610135 0.01867968899999995
v -1.4046968880000001 0.6985181385 0.012048749999999959
v -1.3374772425 0.93153501 0.030530114999999945
v -1.383635421 0.823207014 0.043942814999999955
v -1.273209525 0.832868001 0.05636105999999995
v -1.3515901245 0.6813582615 0.03053011499999996
v -1.331964396 0.9133113465 0.07360907399999994
v -1.3455632295 0.8175037185 0.09430154999999994
v -1.2599629874999998 0.848659707 0.09430154999999994
v -1.2735618210000001 0.752852079 0.07360907399999995
v -1.335550797 0.9110271555 0.09981858599999995
v -1.2953206979999998 0.8574874874999999 0.12971813399999996
v -1.268677683 0.9146238885 0.12971813399999996
v -1.2284476155 0.861084189 0.09981858599999995
v -1.3303169774999999 0.9180011925 0.07360907399999994
v -1.3503060585 1.01268216 0.08514991799999994
v -1.4200883235 0.954127944 0.09583512749999994
v -1.4239143135 1.071892458 0.07360907399999993
v -1.335958848 0.9182056905 0.09981858599999995
v -1.31517666 0.981869238 0.12304296899999995
v -1.3772619945 0.9709219170000001 0.12304296899999995
v -1.3564798065 1.034585685 0.11479872599999993
v -1.337039613 0.9141284565 0.09981858599999995
v -1.393155225 0.9506797335 0.11649452849999994
v -1.3986498015 0.887876577 0.13193406449999995
v -1.508047128 0.943634097 0.09981858599999995
v -1.327720716 0.902531763 0.14826454649999996
v -1.363131315 0.959374017 0.16093057049999995
v -1.3946527035 0.9047771145 0.16718795099999995
v -1.430063523 0.9616193685 0.16093057049999995
v -1.3281691815 0.9267049575 0.14826454649999996
v -1.275452955 0.885401811 0.17148892949999994
v -1.264505634 0.9474870194999999 0.17148892949999994
v -1.2117891870000002 0.906183999 0.16324471799999996
v -1.3350542625 0.9208721025 0.14826454649999996
v -1.3991246640000001 0.901379997 0.17816412599999995
v -1.354546368 0.8568017010000001 0.17816412599999995
v -1.418616801 0.8373095955000001 0.14826454649999996
v -1.3242780495000002 0.9232182855 0.14826454649999996
v -1.350529803 0.861608223 0.17816412599999995
v -1.2877266465000001 0.8671027995 0.17816412599999995
v -1.3139784 0.805492737 0.14826454649999996
v -1.3380790185 0.9179112915000001 0.09981858599999995
v -1.3793821335 0.8651949705 0.11248460999999994
v -1.3172968305000001 0.8542476495 0.11874195899999994
v -1.3585999455 0.801531297 0.11248460999999994
v -1.3275137925 0.9229283595000001 0.07360907399999994
v -1.4235766335 0.9112671225 0.08237476799999995
v -1.3713271425 0.836647245 0.08670529349999995
v -1.4673899835000002 0.8249860395 0.08237476799999995
v -1.398069414 1.023144255 0.17515748249999993
v -1.297561986 1.023144255 0.17515748249999993
v -1.398069414 0.916658001 0.20432468699999995
v -1.297561986 0.916658001 0.20432468699999995
v -1.2452105925 0.89209008 0.17054610299999995
v -1.285102287 0.831462471 0.17907469649999994
v -1.2930647625 0.9370674495000001 0.20363386049999993
v -1.3329564569999999 0.8764397145 0.21216245399999994
v -1.380185541 0.844600365 0.17255514149999995
v -1.419329835 0.8972008605 0.18026029349999995
v -1.3272146055 0.871328934 0.20244826349999995
v -1.366358868 0.9239295555 0.21015341549999994
v -1.3500765495 0.5286763125 0.03997214549999996
v -1.4181286770000001 0.7156480905 0.03997214549999995
v -1.19171619 0.5863147605 0.18590440049999998
v -1.2597683175 0.7732865385 0.18590440049999996
v -1.181757339 0.6861606885 0.03997214549999995
v -1.334178027 0.5582645145 0.03997214549999996
v -1.2900820905000001 0.81525717 0.18590440049999996
v -1.4425027785 0.687360996 0.18590440049999996
v -1.289913849 0.5530771889999999 0.14138041049999997
v -1.3527917550000002 0.661985226 0.14138041049999997
v -1.2354598305000002 0.584516268 0.20741587649999996
v -1.2983377680000001 0.6934241790000001 0.20741587649999993
v -1.2103863975 0.735896133 0.14138041049999994
v -1.1994260985 0.610618554 0.14138041049999997
v -1.273025187 0.7304159835 0.20741587649999993
v -1.2620648879999998 0.6051384045 0.20741587649999996
v -1.258696467 0.554746878 0.14990972849999995
v -1.3519667385 0.554746878 0.14990972849999995
v -1.258696467 0.6013818719999999 0.19888655849999998
v -1.3519667385 0.6013818719999999 0.19888655849999998
v -1.4230972035 0.699994575 0.03997214549999995
v -1.2241258154999999 0.699994575 0.03997214549999995
v -1.4230972035 0.5314710555 0.18590436899999999
v -1.2241258154999999 0.5314710555 0.18590436899999999
v -1.3321566720000002 0.714155778 0.14138041049999994
v -1.2064005765 0.714155778 0.14138041049999994
v -1.3321566720000002 0.651277746 0.20741587649999996
v -1.2064005765 0.651277746 0.20741587649999996
v -1.3790452094999999 0.6479208540000001 0.14660815049999995
v -1.3529246535000001 0.7267829625000001 0.14479189199999995
v -1.3502459880000002 0.6413335425 0.1937225745
v -1.324125432 0.720195651 0.19190631599999994
v -0.7879848479999999 1.261138536 -7.722246356968895e-17
v -0.820484847 1.242374616 -7.60735048413161e-17
v -0.820484847 1.279902456 -7.837142229806181e-17
v -0.799232112 1.261138536 0.35924732549999994
v -0.8148613410000001 1.2521150145 0.35924732549999994
v -0.8148613410000001 1.2701620575 0.35924732549999994
v -0.8031414825000001 1.250492355 0.25241157899999994
v -0.7496016885 1.2907224225 0.28080139499999995
v -0.8067382155 1.3173656895 0.30708631799999997
v -0.733992399 1.3542090975 0.25241157899999994
v -0.816377814 1.279805373 0.05197569299999993
v -0.9329613615 1.296353268 0.08377676999999992
v -0.8950492215 1.1921904854999998 0.08377676999999993
v -1.011632643 1.208738349 0.07248798899999993
v -0.8177373225 1.2704360445 -7.779177177091746e-17
v -0.881620299 1.3962396735 0.04094140049999992
v -0.95780349 1.2874388625 0.040941400499999926
v -1.021686309 1.4132424915 -8.653614468172528e-17
v -0.8150101155 1.2552277184999998 -7.686053038310299e-17
v -0.7100271045 1.349494146 0.017343553499999918
v -0.8348383260000001 1.3949217450000002 0.025911742499999914
v -0.729855315 1.489188393 0.01734355349999991
v -0.8157827475 1.2634567155 -7.736441112491517e-17
v -0.712724985 1.1670891435 0.02283431849999993
v -0.678348279 1.2953847375 0.043975669499999925
v -0.5752906425 1.1579288805 -7.090269485723016e-17
v -0.8040724020000001 1.269489627 0.06358665599999992
v -0.7236475785 1.3554976994999999 0.10452808799999992
v -0.8307182835 1.3841873325 0.10452808799999992
v -0.7502934600000001 1.4701954365 0.06358665599999992
v -0.7965572895 1.2687064110000001 0.12531503249999992
v -0.710276175 1.312519761 0.15267804299999993
v -0.784896084 1.3647690000000001 0.15267804299999993
v -0.6986149695 1.40858235 0.14296470299999992
v -0.815220756 1.263009951 0.06358665599999992
v -0.7113278655 1.2075859845 0.08093020949999993
v -0.7113278655 1.3184336970000001 0.08949839849999992
v -0.6074349435 1.263009951 0.08093020949999992
v -0.8195169465000001 1.2553925895 -7.687062582022411e-17
v -0.8859276405000001 1.1309047154999998 0.03180107699999993
v -0.753106221 1.1309047154999998 0.03180107699999993
v -0.8195169465000001 1.0064168414999999 0.020512295999999937
v -0.8089877879999999 1.2791786175000002 0.05197569299999993
v -0.855145872 1.1708504955 0.07481001149999993
v -0.7447199445 1.1805116085 0.09595136249999993
v -0.823100796 1.0604553435000001 0.05197569299999994
v -0.8034748155 1.2609549225 0.12531503249999992
v -0.817073775 1.165147326 0.16054277399999992
v -0.7314734070000001 1.1963031885 0.16054277399999992
v -0.7450724925000001 1.1004955605 0.12531503249999992
v -0.8070613425000001 1.258670889 0.16993519199999993
v -0.7668313695 1.2051310634999999 0.22083745949999992
v -0.7401882285 1.2622675905 0.22083745949999992
v -0.6999581610000001 1.2087277965 0.16993519199999993
v -0.8018275229999999 1.2656448945 0.12531503249999992
v -0.82181673 1.3603256099999999 0.14496268499999992
v -0.891598869 1.3017714255 0.16315358849999992
v -0.895424733 1.419535908 0.12531503249999992
v -0.8074693935 1.265849172 0.16993519199999993
v -0.7866872055 1.32951294 0.20947333049999992
v -0.84877254 1.318565619 0.20947333049999992
v -0.827990352 1.3822291665 0.1954380329999999
v -0.8085502529999999 1.2617720325 0.16993519199999993
v -0.8646657705 1.298323467 0.1983250079999999
v -0.870160347 1.2355202790000002 0.22460993099999993
v -0.9296623980000001 1.2912778305000001 0.16993519199999993
v -0.7992311354999999 1.2501753705 0.25241157899999994
v -0.8346418605 1.307017719 0.2739747149999999
v -0.8661633750000001 1.252420722 0.28462751099999994
v -0.9015739425 1.3092631019999998 0.2739747149999999
v -0.799679727 1.2743485335 0.25241157899999994
v -0.7469633744999999 1.2330454185 0.29194968599999993
v -0.7360160535 1.2951307214999999 0.29194968599999993
v -0.6832998585 1.2538275749999999 0.27791441999999994
v -0.8065648080000001 1.268515836 0.25241157899999994
v -0.870635241 1.2490234785 0.30331381499999993
v -0.8260570395 1.204445403 0.30331381499999993
v -0.8901274725 1.184953077 0.25241157899999994
v -0.795788595 1.270861893 0.25241157899999994
v -0.8220404745000001 1.209251925 0.30331381499999993
v -0.7592371920000001 1.2147465015 0.30331381499999993
v -0.7854889455 1.1531363129999999 0.25241157899999994
v -0.80958969 1.2655547729999999 0.16993519199999993
v -0.850892805 1.2128385465 0.1914983279999999
v -0.788807502 1.2018912255 0.20215115549999993
v -0.830110617 1.1491750305 0.1914983279999999
v -0.7990243380000001 1.2705718095 0.12531503249999992
v -0.895087053 1.25891073 0.1402381889999999
v -0.8428376879999999 1.1842907265 0.14761063799999993
v -0.938900529 1.1726296155 0.1402381889999999
v -0.8695800855 1.337171661 0.3348979199999999
v -0.7690726575 1.337171661 0.3348979199999999
v -0.8695800855 1.230685407 0.38455329149999995
v -0.7690726575 1.230685407 0.38455329149999995
v -0.7010155845 1.2425349195 0.27766345949999993
v -0.7551877094999999 1.1602040624999999 0.2973804749999999
v -0.766000431 1.3036130415 0.35415809099999995
v -0.8201724300000001 1.2212821845 0.37387513799999994
v -0.8516960865 1.192243815 0.2937648419999999
v -0.8908402545 1.2448444365 0.3068824184999999
v -0.798725025 1.218972636 0.34465611599999996
v -0.837869319 1.2715730054999999 0.35777372399999996
v 0.318884328 0.723551661 -4.430476128307004e-17
v 0.21465889200000002 0.6360961005 -3.8949652671371907e-17
v 0.23691587849999998 0.8212377915000001 0.06006514499999995
v 0.1326904425 0.7337822310000001 0.06006514499999996
v 0.154947429 0.918923922 0.060065144999999945
v 0.050721993 0.8314683615 0.06006514499999995
v 0.254581236 0.6227155934999999 0.10442782349999996
v 0.35015125950000003 0.667280565 0.10442782349999996
v 0.308782719 0.5064801525000001 0.16882636049999997
v 0.404352774 0.55104525 0.16882636049999997
v 0.36933053849999997 0.3766350735 0.17718135749999997
v 0.46229715 0.426783168 0.20017160099999998
v 0.20169623250000002 0.745042347 0.07091506799999997
v 0.303046254 0.6543311985 0.06758532899999996
v 0.1351105245 0.667095975 0.16766183699999998
v 0.2364604515 0.5763848579999999 0.16433209799999995
v 0.048339333 0.5780347965 0.15187838399999998
v 0.14968929150000002 0.4873235535 0.14854864499999998
v 0.25853624999999997 0.606413682 0.05250621599999996
v 0.22345618050000002 0.7373343600000001 0.06436432799999996
v 0.3645512325 0.6266073240000001 0.14318299799999998
v 0.3294711 0.757527876 0.15504110999999995
v 0.48427369200000003 0.6557089770000001 0.12016371149999996
v 0.449193591 0.786629529 0.13202182349999997
v 0.340306974 0.714050631 0.11315445749999996
v 0.247569525 0.6388574535 0.09439460099999995
v 0.266024808 0.7926109065 0.16547592599999994
v 0.173287359 0.717417729 0.14671603799999994
v 0.1935752805 0.878690106 0.17860096799999994
v 0.10267037550000001 0.811015884 0.12064468499999995
v 0.3282190065 0.71269821 -4.364017908172741e-17
v 0.3282190065 0.57664152 -3.530910958617323e-17
v 0.2006987535 0.71269821 0.037430504999999954
v 0.20069881650000002 0.57664152 0.03743050499999996
v 0.073178595 0.71269821 -4.364017908172741e-17
v 0.07317865800000001 0.57664152 0.030709570499999964
v 0.319394124 0.7134367275 0.05464314449999996
v 0.268512552 0.604320696 0.06517642949999997
v 0.22675479750000002 0.7623103635 0.11343442949999996
v 0.1758732885 0.653194332 0.12396771449999996
v 0.126378504 0.811008072 0.13302925649999994
v 0.067759902 0.7017161445000001 0.10436614649999995
v 0.3144118635 0.5834780595 -3.5727726896969196e-17
v 0.2101863645 0.67093362 -4.108283550866733e-17
v 0.39638025000000005 0.68116419 0.03621885749999996
v 0.292154751 0.7686197505 0.03621885749999995
v 0.4783486365 0.778850415 -4.7690833387216886e-17
v 0.3741231375 0.866305881 -5.30459362124589e-17
v 0.2913875055 0.5730575445 -3.5089654379958343e-17
v 0.3379215735 0.7009090200000001 -4.291829939182541e-17
v 0.41121731699999997 0.52944318 0.060065144999999966
v 0.4577514165 0.6572946555 0.06006514499999996
v 0.5310471285 0.48582872099999996 0.06006514499999997
v 0.5775811965 0.6136801965 0.060065144999999966
v 0.2025575055 0.6696840465 -4.100632119931361e-17
v 0.3386141955 0.6696841725 -4.1006328914588446e-17
v 0.2025575685 0.542163888 0.044978219999999965
v 0.3386142585 0.5421639825 0.044978219999999965
v 0.2025576315 0.414643698 0.04497821999999997
v 0.33861429000000004 0.414643698 -2.538960387711609e-17
v 0.2413824525 0.7559813835 0.16719755849999993
v 0.2938851405 0.650179341 0.20570637149999998
v 0.141992739 0.6987785175 0.14554146599999995
v 0.194495364 0.5929766009999999 0.18405024749999996
v 0.228555369 0.674154243 0.16028526149999997
v 0.33180858900000004 0.674154369 0.16028526149999997
v 0.228555369 0.5804638875 0.13518098999999997
v 0.3318086205 0.5804638875 0.13518098999999997
v 0.31836101850000004 0.792449028 0.11316378149999996
v 0.3619977795 0.7045132814999999 0.14516976599999995
v 0.23344870499999998 0.7638277815000001 0.15029648549999994
v 0.277085403 0.6758920350000001 0.18230246999999997
v 0.7581337785 1.4260475565000001 0.029715115499999913
v 0.8054691119999999 1.2609710505 -0.014311300500000077
v 0.6658455195 1.376606511 0.1158692849999999
v 0.7131808215000001 1.2115299735 0.07184286899999993
v 0.5352150824999999 1.3408274880000002 0.07676666549999991
v 0.582550416 1.175750982 0.032740280999999934
v 0.6526090305 1.273250475 0.01307483099999992
v 0.8402363865000001 1.440966492 0.013074799499999913
v 0.7332864840000001 1.1829948795 0.056469388499999926
v 0.9209139345 1.3507106759999998 0.056469356999999915
v 0.818770617 1.087361982 0.04725793799999993
v 1.006397973 1.255077999 0.04725793799999992
v 0.8356623975 1.459642716 -0.005241883500000089
v 0.7803437670000001 1.322772759 -0.005241883500000081
v 0.752919867 1.4930847855 0.05279516549999991
v 0.721372869 1.346607108 0.10035080999999992
v 0.662493447 1.5296323455 0.0954603089999999
v 0.6071748164999999 1.39276242 0.09546030899999991
v 0.8391027959999999 1.307750472 -8.007662148091201e-17
v 0.7420622265000001 1.374499791 -8.41638384738428e-17
v 0.890900703 1.3830542145 0.057950675999999916
v 0.793860228 1.4498037855 0.05795067599999991
v 0.9426987045 1.4583581775 0.04623069149999991
v 0.8456581665 1.5251077485 -9.338591612776759e-17
v 0.779365818 1.285036074 0.04347620549999992
v 0.8003289735 1.400936607 0.04347620549999991
v 0.8548650495000001 1.271380509 0.11980035899999993
v 0.875828205 1.3872808215 0.11980035899999993
v 0.945172368 1.2550462785 0.12809840399999992
v 0.975961539 1.369169613 0.08295899849999991
v 0.8626685445000001 1.2742069725 0.003815437499999922
v 0.855753948 1.4213277855 -0.0062439615000000875
v 0.965448792 1.2808781999999999 0.030735778499999925
v 0.9490131315 1.431181395 0.07376276249999991
v 1.0713065265000001 1.286520795 0.04049646299999992
v 1.064391993 1.4336416079999998 0.030437063999999913
v -1.2026219310000001 1.10106297 -6.742066209350891e-17
v -1.1939077395000002 1.0978911405 0.2962009574999999
v -1.3489744275 0.89473104 -5.478647521168913e-17
v -1.3433507955 0.9044714385 0.17496240299999996
v -0.820484847 1.242374616 -7.60735048413161e-17
v -0.8148613410000001 1.2521150145 0.35924732549999994
vt 0.531362 0.626267
vt 0.501857 0.626267
vt 0.531362 0.655710
vt 0.501857 0.655710
vt 0.531362 0.685154
vt 0.501857 0.685154
vt 0.532392 0.747558
vt 0.561897 0.747558
vt 0.532392 0.718115
vt 0.561897 0.718115
vt 0.532392 0.688672
vt 0.561897 0.688672
vt 0.532392 0.685634
vt 0.561897 0.685634
vt 0.532392 0.656191
vt 0.561897 0.656191
vt 0.532392 0.626747
vt 0.561897 0.626747
vt 0.532392 0.685634
vt 0.561897 0.685634
vt 0.532392 0.656191
vt 0.561897 0.656191
vt 0.532392 0.626747
vt 0.561897 0.626747
vt 0.531362 0.626267
vt 0.501857 0.626267
vt 0.531362 0.655710
vt 0.501857 0.655710
vt 0.531362 0.685154
vt 0.501857 0.685154
vt 0.531362 0.626267
vt 0.501857 0.626267
vt 0.531362 0.655710
vt 0.501857 0.655710
vt 0.531362 0.685154
vt 0.501857 0.685154
vt 0.531362 0.688672
vt 0.501857 0.688672
vt 0.531362 0.718115
vt 0.501857 0.718115
vt 0.531362 0.747558
vt 0.501857 0.747558
vt 0.531362 0.688672
vt 0.501857 0.688672
vt 0.531362 0.718115
vt 0.501857 0.718115
vt 0.531362 0.747558
vt 0.501857 0.747558
vt 0.532392 0.685634
vt 0.561897 0.685634
vt 0.532392 0.656191
vt 0.561897 0.656191
vt 0.532392 0.626747
vt 0.561897 0.626747
vt 0.532392 0.747558
vt 0.561897 0.747558
vt 0.532392 0.718115
vt 0.561897 0.718115
vt 0.532392 0.688672
vt 0.561897 0.688672
vt 0.531362 0.688672
vt 0.501857 0.688672
vt 0.531362 0.718115
vt 0.501857 0.718115
vt 0.531362 0.747558
vt 0.501857 0.747558
vt 0.532392 0.747558
vt 0.561897 0.747558
vt 0.532392 0.718115
vt 0.561897 0.718115
vt 0.532392 0.688672
vt 0.561897 0.688672
vt 0.547145 0.747558
vt 0.532392 0.718115
vt 0.561897 0.718115
vt 0.547145 0.688672
vt 0.516610 0.688672
vt 0.531362 0.718115
vt 0.501857 0.718115
vt 0.516610 0.747558
vt 0.516610 0.626267
vt 0.531362 0.655710
vt 0.501857 0.655710
vt 0.516610 0.685154
vt 0.547145 0.747558
vt 0.532392 0.718115
vt 0.561897 0.718115
vt 0.547145 0.688672
vt 0.547145 0.747558
vt 0.532392 0.718115
vt 0.561897 0.718115
vt 0.547145 0.688672
vt 0.516610 0.626267
vt 0.531362 0.655710
vt 0.501857 0.655710
vt 0.516610 0.685154
vt 0.516610 0.626267
vt 0.531362 0.655710
vt 0.501857 0.655710
vt 0.516610 0.685154
vt 0.516610 0.688672
vt 0.531362 0.718115
vt 0.501857 0.718115
vt 0.516610 0.747558
vt 0.516610 0.688672
vt 0.531362 0.718115
vt 0.501857 0.718115
vt 0.516610 0.747558
vt 0.547145 0.747558
vt 0.532392 0.718115
vt 0.561897 0.718115
vt 0.547145 0.688672
vt 0.516610 0.688672
vt 0.531362 0.718115
vt 0.501857 0.718115
vt 0.516610 0.747558
vt 0.516610 0.626267
vt 0.531362 0.655710
vt 0.501857 0.655710
vt 0.516610 0.685154
vt 0.547145 0.747558
vt 0.532392 0.718115
vt 0.561897 0.718115
vt 0.547145 0.688672
vt 0.547145 0.747558
vt 0.532392 0.718115
vt 0.561897 0.718115
vt 0.547145 0.688672
vt 0.516610 0.626267
vt 0.531362 0.655710
vt 0.501857 0.655710
vt 0.516610 0.685154
vt 0.516610 0.626267
vt 0.531362 0.655710
vt 0.501857 0.655710
vt 0.516610 0.685154
vt 0.516610 0.688672
vt 0.531362 0.718115
vt 0.501857 0.718115
vt 0.516610 0.747558
vt 0.516610 0.688672
vt 0.531362 0.718115
vt 0.501857 0.718115
vt 0.516610 0.747558
vt 0.531362 0.688672
vt 0.501857 0.688672
vt 0.531362 0.718115
vt 0.501857 0.718115
vt 0.531362 0.747558
vt 0.501857 0.747558
vt 0.532392 0.747558
vt 0.561897 0.747558
vt 0.532392 0.718115
vt 0.561897 0.718115
vt 0.532392 0.688672
vt 0.561897 0.688672
vt 0.531362 0.626267
vt 0.501857 0.626267
vt 0.531362 0.655710
vt 0.501857 0.655710
vt 0.531362 0.685154
vt 0.501857 0.685154
vt 0.531362 0.626267
vt 0.501857 0.626267
vt 0.531362 0.655710
vt 0.501857 0.655710
vt 0.531362 0.685154
vt 0.501857 0.685154
vt 0.531362 0.688672
vt 0.501857 0.688672
vt 0.531362 0.718115
vt 0.501857 0.718115
vt 0.531362 0.747558
vt 0.501857 0.747558
vt 0.532392 0.747558
vt 0.561897 0.747558
vt 0.532392 0.718115
vt 0.561897 0.718115
vt 0.532392 0.688672
vt 0.561897 0.688672
vt 0.531362 0.626267
vt 0.501857 0.626267
vt 0.531362 0.655710
vt 0.501857 0.655710
vt 0.531362 0.685154
vt 0.501857 0.685154
vt 0.531362 0.626267
vt 0.501857 0.626267
vt 0.531362 0.655710
vt 0.501857 0.655710
vt 0.531362 0.685154
vt 0.501857 0.685154
vt 0.531362 0.688672
vt 0.501857 0.688672
vt 0.531362 0.718115
vt 0.501857 0.718115
vt 0.531362 0.747558
vt 0.501857 0.747558
vt 0.532392 0.747558
vt 0.561897 0.747558
vt 0.532392 0.718115
vt 0.561897 0.718115
vt 0.532392 0.688672
vt 0.561897 0.688672
vt 0.531362 0.626267
vt 0.501857 0.626267
vt 0.531362 0.655710
vt 0.501857 0.655710
vt 0.531362 0.685154
vt 0.501857 0.685154
vt 0.531362 0.626267
vt 0.501857 0.626267
vt 0.531362 0.655710
vt 0.501857 0.655710
vt 0.531362 0.685154
vt 0.501857 0.685154
vt 0.531362 0.688672
vt 0.501857 0.688672
vt 0.531362 0.718115
vt 0.501857 0.718115
vt 0.531362 0.747558
vt 0.501857 0.747558
vt 0.532392 0.747558
vt 0.561897 0.747558
vt 0.532392 0.718115
vt 0.561897 0.718115
vt 0.532392 0.688672
vt 0.561897 0.688672
vt 0.531362 0.626267
vt 0.501857 0.626267
vt 0.531362 0.655710
vt 0.501857 0.655710
vt 0.531362 0.685154
vt 0.501857 0.685154
vt 0.531362 0.626267
vt 0.501857 0.626267
vt 0.531362 0.655710
vt 0.501857 0.655710
vt 0.531362 0.685154
vt 0.501857 0.685154
vt 0.110775 0.495906
vt 0.118239 0.495906
vt 0.103310 0.495906
vt 0.110775 0.384477
vt 0.118239 0.384477
vt 0.103310 0.384477
vt 0.547145 0.685634
vt 0.532392 0.656191
vt 0.561897 0.656191
vt 0.547145 0.626747
vt 0.516610 0.626267
vt 0.531362 0.655710
vt 0.501857 0.655710
vt 0.516610 0.685154
vt 0.547145 0.747558
vt 0.532392 0.718115
vt 0.561897 0.718115
vt 0.547145 0.688672
vt 0.516610 0.688672
vt 0.531362 0.718115
vt 0.501857 0.718115
vt 0.516610 0.747558
vt 0.547145 0.685634
vt 0.532392 0.656191
vt 0.561897 0.656191
vt 0.547145 0.626747
vt 0.547145 0.747558
vt 0.532392 0.718115
vt 0.561897 0.718115
vt 0.547145 0.688672
vt 0.516610 0.626267
vt 0.531362 0.655710
vt 0.501857 0.655710
vt 0.516610 0.685154
vt 0.516610 0.688672
vt 0.531362 0.718115
vt 0.501857 0.718115
vt 0.516610 0.747558
vt 0.516610 0.626267
vt 0.531362 0.655710
vt 0.501857 0.655710
vt 0.516610 0.685154
vt 0.547145 0.685634
vt 0.532392 0.656191
vt 0.561897 0.656191
vt 0.547145 0.626747
vt 0.547145 0.747558
vt 0.532392 0.718115
vt 0.561897 0.718115
vt 0.547145 0.688672
vt 0.547145 0.747558
vt 0.532392 0.718115
vt 0.561897 0.718115
vt 0.547145 0.688672
vt 0.547145 0.685634
vt 0.532392 0.656191
vt 0.561897 0.656191
vt 0.547145 0.626747
vt 0.516610 0.626267
vt 0.531362 0.655710
vt 0.501857 0.655710
vt 0.516610 0.685154
vt 0.547145 0.685634
vt 0.532392 0.656191
vt 0.561897 0.656191
vt 0.547145 0.626747
vt 0.516610 0.688672
vt 0.531362 0.718115
vt 0.501857 0.718115
vt 0.516610 0.747558
vt 0.516610 0.626267
vt 0.531362 0.655710
vt 0.501857 0.655710
vt 0.516610 0.685154
vt 0.547145 0.747558
vt 0.532392 0.718115
vt 0.561897 0.718115
vt 0.547145 0.688672
vt 0.547145 0.747558
vt 0.532392 0.718115
vt 0.561897 0.718115
vt 0.547145 0.688672
vt 0.516610 0.688672
vt 0.531362 0.718115
vt 0.501857 0.718115
vt 0.516610 0.747558
vt 0.516610 0.688672
vt 0.531362 0.718115
vt 0.501857 0.718115
vt 0.516610 0.747558
vt 0.503088 0.622092
vt 0.529052 0.622092
vt 0.503088 0.595535
vt 0.529052 0.595535
vt 0.503088 0.622092
vt 0.529052 0.622092
vt 0.503088 0.595535
vt 0.529052 0.595535
vt 0.503088 0.622092
vt 0.529052 0.622092
vt 0.503088 0.595535
vt 0.529052 0.595535
vt 0.110369 0.495906
vt 0.117833 0.495906
vt 0.102905 0.495906
vt 0.110369 0.384477
vt 0.117833 0.384477
vt 0.102905 0.384477
vt 0.547145 0.685634
vt 0.532392 0.656191
vt 0.561897 0.656191
vt 0.547145 0.626747
vt 0.516610 0.626267
vt 0.531362 0.655710
vt 0.501857 0.655710
vt 0.516610 0.685154
vt 0.547145 0.747558
vt 0.532392 0.718115
vt 0.561897 0.718115
vt 0.547145 0.688672
vt 0.516610 0.688672
vt 0.531362 0.718115
vt 0.501857 0.718115
vt 0.516610 0.747558
vt 0.547145 0.685634
vt 0.532392 0.656191
vt 0.561897 0.656191
vt 0.547145 0.626747
vt 0.547145 0.747558
vt 0.532392 0.718115
vt 0.561897 0.718115
vt 0.547145 0.688672
vt 0.516610 0.626267
vt 0.531362 0.655710
vt 0.501857 0.655710
vt 0.516610 0.685154
vt 0.516610 0.688672
vt 0.531362 0.718115
vt 0.501857 0.718115
vt 0.516610 0.747558
vt 0.516610 0.626267
vt 0.531362 0.655710
vt 0.501857 0.655710
vt 0.516610 0.685154
vt 0.547145 0.685634
vt 0.532392 0.656191
vt 0.561897 0.656191
vt 0.547145 0.626747
vt 0.547145 0.747558
vt 0.532392 0.718115
vt 0.561897 0.718115
vt 0.547145 0.688672
vt 0.547145 0.747558
vt 0.532392 0.718115
vt 0.561897 0.718115
vt 0.547145 0.688672
vt 0.547145 0.685634
vt 0.532392 0.656191
vt 0.561897 0.656191
vt 0.547145 0.626747
vt 0.516610 0.626267
vt 0.531362 0.655710
vt 0.501857 0.655710
vt 0.516610 0.685154
vt 0.547145 0.685634
vt 0.532392 0.656191
vt 0.561897 0.656191
vt 0.547145 0.626747
vt 0.516610 0.688672
vt 0.531362 0.718115
vt 0.501857 0.718115
vt 0.516610 0.747558
vt 0.516610 0.626267
vt 0.531362 0.655710
vt 0.501857 0.655710
vt 0.516610 0.685154
vt 0.547145 0.747558
vt 0.532392 0.718115
vt 0.561897 0.718115
vt 0.547145 0.688672
vt 0.547145 0.747558
vt 0.532392 0.718115
vt 0.561897 0.718115
vt 0.547145 0.688672
vt 0.516610 0.688672
vt 0.531362 0.718115
vt 0.501857 0.718115
vt 0.516610 0.747558
vt 0.516610 0.688672
vt 0.531362 0.718115
vt 0.501857 0.718115
vt 0.516610 0.747558
vt 0.503088 0.591280
vt 0.529052 0.591280
vt 0.503088 0.564723
vt 0.529052 0.564723
vt 0.503088 0.591280
vt 0.529052 0.591280
vt 0.503088 0.564723
vt 0.529052 0.564723
vt 0.503088 0.591280
vt 0.529052 0.591280
vt 0.503088 0.564723
vt 0.529052 0.564723
vt 0.693191 0.562889
vt 0.744285 0.562889
vt 0.693191 0.503150
vt 0.744285 0.503150
vt 0.693191 0.562889
vt 0.744285 0.562889
vt 0.693191 0.503150
vt 0.744285 0.503150
vt 0.503183 0.621861
vt 0.529316 0.621861
vt 0.503183 0.595665
vt 0.529316 0.595665
vt 0.503183 0.621861
vt 0.529316 0.621861
vt 0.503183 0.595665
vt 0.529316 0.595665
vt 0.503183 0.621861
vt 0.529316 0.621861
vt 0.503183 0.595665
vt 0.529316 0.595665
vt 0.693191 0.562889
vt 0.744285 0.562889
vt 0.693191 0.503150
vt 0.744285 0.503150
vt 0.503183 0.621861
vt 0.529316 0.621861
vt 0.503183 0.595665
vt 0.529316 0.595665
vt 0.503183 0.621861
vt 0.529316 0.621861
vt 0.503183 0.595665
vt 0.529316 0.595665
vt 0.110775 0.495906
vt 0.118239 0.495906
vt 0.103310 0.495906
vt 0.110775 0.384477
vt 0.118239 0.384477
vt 0.103310 0.384477
vt 0.547145 0.685634
vt 0.532392 0.656191
vt 0.561897 0.656191
vt 0.547145 0.626747
vt 0.516610 0.626267
vt 0.531362 0.655710
vt 0.501857 0.655710
vt 0.516610 0.685154
vt 0.547145 0.747558
vt 0.532392 0.718115
vt 0.561897 0.718115
vt 0.547145 0.688672
vt 0.516610 0.688672
vt 0.531362 0.718115
vt 0.501857 0.718115
vt 0.516610 0.747558
vt 0.547145 0.685634
vt 0.532392 0.656191
vt 0.561897 0.656191
vt 0.547145 0.626747
vt 0.547145 0.747558
vt 0.532392 0.718115
vt 0.561897 0.718115
vt 0.547145 0.688672
vt 0.516610 0.626267
vt 0.531362 0.655710
vt 0.501857 0.655710
vt 0.516610 0.685154
vt 0.516610 0.688672
vt 0.531362 0.718115
vt 0.501857 0.718115
vt 0.516610 0.747558
vt 0.516610 0.626267
vt 0.531362 0.655710
vt 0.501857 0.655710
vt 0.516610 0.685154
vt 0.547145 0.685634
vt 0.532392 0.656191
vt 0.561897 0.656191
vt 0.547145 0.626747
vt 0.547145 0.747558
vt 0.532392 0.718115
vt 0.561897 0.718115
vt 0.547145 0.688672
vt 0.547145 0.747558
vt 0.532392 0.718115
vt 0.561897 0.718115
vt 0.547145 0.688672
vt 0.547145 0.685634
vt 0.532392 0.656191
vt 0.561897 0.656191
vt 0.547145 0.626747
vt 0.516610 0.626267
vt 0.531362 0.655710
vt 0.501857 0.655710
vt 0.516610 0.685154
vt 0.547145 0.685634
vt 0.532392 0.656191
vt 0.561897 0.656191
vt 0.547145 0.626747
vt 0.516610 0.688672
vt 0.531362 0.718115
vt 0.501857 0.718115
vt 0.516610 0.747558
vt 0.516610 0.626267
vt 0.531362 0.655710
vt 0.501857 0.655710
vt 0.516610 0.685154
vt 0.547145 0.747558
vt 0.532392 0.718115
vt 0.561897 0.718115
vt 0.547145 0.688672
vt 0.547145 0.747558
vt 0.532392 0.718115
vt 0.561897 0.718115
vt 0.547145 0.688672
vt 0.516610 0.688672
vt 0.531362 0.718115
vt 0.501857 0.718115
vt 0.516610 0.747558
vt 0.516610 0.688672
vt 0.531362 0.718115
vt 0.501857 0.718115
vt 0.516610 0.747558
vt 0.503088 0.622092
vt 0.529052 0.622092
vt 0.503088 0.595535
vt 0.529052 0.595535
vt 0.503088 0.622092
vt 0.529052 0.622092
vt 0.503088 0.595535
vt 0.529052 0.595535
vt 0.503088 0.622092
vt 0.529052 0.622092
vt 0.503088 0.595535
vt 0.529052 0.595535
vt 0.531362 0.626267
vt 0.501857 0.626267
vt 0.531362 0.655710
vt 0.501857 0.655710
vt 0.531362 0.685154
vt 0.501857 0.685154
vt 0.532392 0.685634
vt 0.561897 0.685634
vt 0.532392 0.656191
vt 0.561897 0.656191
vt 0.532392 0.626747
vt 0.561897 0.626747
vt 0.531362 0.626267
vt 0.501857 0.626267
vt 0.531362 0.655710
vt 0.501857 0.655710
vt 0.531362 0.685154
vt 0.501857 0.685154
vt 0.531362 0.626267
vt 0.501857 0.626267
vt 0.531362 0.655710
vt 0.501857 0.655710
vt 0.531362 0.685154
vt 0.501857 0.685154
vt 0.531362 0.688672
vt 0.501857 0.688672
vt 0.531362 0.718115
vt 0.501857 0.718115
vt 0.531362 0.747558
vt 0.501857 0.747558
vt 0.532392 0.685634
vt 0.561897 0.685634
vt 0.532392 0.656191
vt 0.561897 0.656191
vt 0.532392 0.626747
vt 0.561897 0.626747
vt 0.531362 0.688672
vt 0.501857 0.688672
vt 0.531362 0.718115
vt 0.501857 0.718115
vt 0.531362 0.747558
vt 0.501857 0.747558
vt 0.532392 0.747558
vt 0.561897 0.747558
vt 0.532392 0.718115
vt 0.561897 0.718115
vt 0.532392 0.688672
vt 0.561897 0.688672
vt 0.531362 0.626267
vt 0.501857 0.626267
vt 0.531362 0.655710
vt 0.501857 0.655710
vt 0.531362 0.685154
vt 0.501857 0.685154
vt 0.531362 0.688672
vt 0.501857 0.688672
vt 0.531362 0.718115
vt 0.501857 0.718115
vt 0.531362 0.747558
vt 0.501857 0.747558
vt 0.533903 0.623140
vt 0.560151 0.623140
vt 0.533903 0.595332
vt 0.560151 0.595332
vt 0.533903 0.623140
vt 0.560151 0.623140
vt 0.533903 0.595332
vt 0.560151 0.595332
vt 0.533903 0.623140
vt 0.560151 0.623140
vt 0.533903 0.595332
vt 0.560151 0.595332
vt 0.689785 0.747558
vt 0.747517 0.747558
vt 0.689785 0.718115
vt 0.747517 0.718115
vt 0.689785 0.688672
vt 0.747517 0.688672
vt 0.628857 0.747558
vt 0.686589 0.747558
vt 0.628857 0.718115
vt 0.686589 0.718115
vt 0.628857 0.688672
vt 0.686589 0.688672
vt 0.628857 0.747558
vt 0.686589 0.747558
vt 0.628857 0.718115
vt 0.686589 0.718115
vt 0.628857 0.688672
vt 0.686589 0.688672
vt 0.689785 0.747558
vt 0.747517 0.747558
vt 0.689785 0.718115
vt 0.747517 0.718115
vt 0.689785 0.688672
vt 0.747517 0.688672
vt 0.689785 0.747558
vt 0.747517 0.747558
vt 0.689785 0.718115
vt 0.747517 0.718115
vt 0.689785 0.688672
vt 0.747517 0.688672
vt 0.628857 0.747558
vt 0.686589 0.747558
vt 0.628857 0.718115
vt 0.686589 0.718115
vt 0.628857 0.688672
vt 0.686589 0.688672
vt 0.097710 0.495906
vt 0.097710 0.384477
vt 0.097304 0.495906
vt 0.097304 0.384477
vt 0.097710 0.495906
vt 0.097710 0.384477
vn 0.111472 -0.3062659999999999 0.945397
vn 0.111472 -0.3062659999999999 0.945397
vn -0.039046 0.10727900000000005 0.993462
vn 0.039046 -0.10727899999999994 0.993462
vn -0.111472 0.30626600000000004 0.945397
vn -0.111472 0.30626600000000004 0.945397
vn 0.429228 -0.03755299999999995 0.902415
vn 0.429228 -0.03755299999999995 0.902415
vn -0.156577 0.01369900000000006 0.987571
vn 0.156577 -0.013698999999999939 0.987571
vn -0.429228 0.03755300000000006 0.902415
vn -0.429228 0.03755300000000006 0.902415
vn 0.365741 0.09800000000000006 0.925543
vn 0.365741 0.09800000000000006 0.925543
vn -0.130513 -0.03497099999999994 0.99083
vn 0.130513 0.034971000000000065 0.99083
vn -0.365741 -0.09799999999999995 0.925543
vn -0.365741 -0.09799999999999995 0.925543
vn 0.258868 0.711235 0.653553
vn 0.258868 0.711235 0.653553
vn 0.124317 0.34155800000000003 0.931602
vn 0.199439 0.547953 0.812386
vn 0.046384 0.12743900000000005 0.990761
vn 0.046384 0.12743900000000005 0.990761
vn 0.056596 0.32097000000000003 0.945397
vn 0.056596 0.32097000000000003 0.945397
vn -0.019824 -0.11242899999999995 0.993462
vn 0.019824 0.11242900000000006 0.993462
vn -0.056596 -0.3209699999999999 0.945397
vn -0.056596 -0.3209699999999999 0.945397
vn 0.637386 -0.17078699999999994 0.751379
vn 0.637386 -0.17078699999999994 0.751379
vn 0.281909 -0.07553699999999995 0.956463
vn 0.47427 -0.12707999999999994 0.871159
vn 0.085619 -0.022940999999999937 0.996064
vn 0.085619 -0.022940999999999937 0.996064
vn 0 0.34731800000000007 0.937747
vn 0 0.34731800000000007 0.937747
vn 0 -0.12252799999999994 0.992465
vn 0 0.12252800000000005 0.992465
vn 0 -0.34731799999999996 0.937748
vn -0 -0.34731799999999996 0.937747
vn -0.284506 0.19921300000000006 0.937748
vn -0.284506 0.19921300000000006 0.937748
vn 0.100369 -0.07027899999999994 0.992465
vn -0.100369 0.07027900000000005 0.992465
vn 0.284506 -0.19921299999999995 0.937748
vn 0.284506 -0.19921299999999995 0.937748
vn -0.365741 0.09800000000000006 0.925543
vn -0.365741 0.09800000000000006 0.925543
vn 0.130513 -0.03497099999999994 0.99083
vn -0.130513 0.034971000000000065 0.99083
vn 0.365741 -0.09799999999999995 0.925543
vn 0.365741 -0.09799999999999995 0.925543
vn -0.116016 -0.657962 0.744061
vn -0.116016 -0.657962 0.744061
vn -0.025008 -0.14182899999999996 0.989575
vn -0.075688 -0.42924699999999993 0.90001
vn 0.023568 0.13366400000000006 0.990746
vn 0.023568 0.13366400000000006 0.990746
vn -0.173659 -0.30078599999999994 0.937748
vn -0.173659 -0.30078599999999994 0.937748
vn 0.061264 0.10611200000000005 0.992465
vn -0.061264 -0.10611199999999994 0.992465
vn 0.173659 0.30078600000000005 0.937748
vn 0.173659 0.30078600000000005 0.937748
vn -0.390498 -0.18209199999999995 0.902415
vn -0.390498 -0.18209199999999995 0.902415
vn 0.142449 0.06642500000000005 0.987571
vn -0.142449 -0.06642499999999994 0.987571
vn 0.390498 0.18209200000000006 0.902415
vn 0.390498 0.18209200000000006 0.902415
vn -0.079022 0.854073 0.514115
vn 0.197031 0.533855 0.8223
vn 0.197031 0.533855 0.8223
vn 0.419152 0.06750900000000006 0.905403
vn -0.411701 0.34417900000000007 0.843826
vn -0.17371 0.29288600000000004 0.940235
vn -0.17371 0.29288600000000004 0.940235
vn 0.076192 0.22151100000000007 0.972177
vn 0.356822 0.626736 0.692734
vn 0.39684 0.33587600000000006 0.854228
vn 0.39684 0.33587600000000006 0.854228
vn 0.3923 0.007304000000000056 0.919808
vn -0.667266 0.27767800000000004 0.691123
vn -0.346039 0.14792800000000006 0.926485
vn -0.346039 0.14792800000000006 0.926485
vn 0.035889 -0.007769999999999938 0.999326
vn -0.057261 -0.801706 0.59497
vn 0.135247 -0.44237899999999997 0.886571
vn 0.135247 -0.44237899999999997 0.886571
vn 0.293781 0.02807600000000006 0.95546
vn 0.641641 -0.38148999999999994 0.665404
vn 0.491558 -0.15107799999999993 0.85764
vn 0.491558 -0.15107799999999993 0.85764
vn 0.286139 0.09634100000000005 0.953332
vn 0.614873 -0.41631199999999996 0.669788
vn 0.53764 -0.15682999999999994 0.828461
vn 0.53764 -0.15682999999999994 0.828461
vn 0.407463 0.11809500000000006 0.905554
vn 0.868875 0.268427 0.415936
vn 0.744999 0.13409500000000002 0.653448
vn 0.744999 0.13409500000000002 0.653448
vn 0.554221 -0.012279999999999949 0.832279
vn 0.919234 0.10222000000000003 0.380211
vn 0.673843 -0.015607999999999955 0.738709
vn 0.673843 -0.015607999999999955 0.738709
vn 0.291918 -0.13027399999999995 0.94753
vn -0.562531 -0.45478499999999994 0.690456
vn -0.09786 -0.17141499999999996 0.980327
vn -0.09786 -0.17141499999999996 0.980327
vn 0.404022 0.17713300000000007 0.897435
vn -0.096107 -0.646697 0.756668
vn -0.044012 -0.38948199999999994 0.919982
vn -0.044012 -0.38948199999999994 0.919982
vn 0.012287 -0.09505399999999994 0.995396
vn -0.311223 -0.034428999999999946 0.949713
vn 0.197874 0.049589000000000064 0.978972
vn 0.197874 0.049589000000000064 0.978972
vn 0.654119 0.12036200000000004 0.746753
vn 0.03281 -0.827786 0.560083
vn 0.155567 -0.46297199999999994 0.872615
vn 0.155567 -0.46297199999999994 0.872615
vn 0.24008 0.015658000000000057 0.970627
vn 0.959154 -0.05888099999999999 0.276687
vn 0.642152 -0.06531699999999996 0.76379
vn 0.642152 -0.06531699999999996 0.76379
vn 0.10823 -0.049688999999999935 0.992883
vn 0.616717 0.532159 0.580058
vn 0.543003 0.30138800000000004 0.783781
vn 0.543003 0.30138800000000004 0.783781
vn 0.414884 0.040421000000000054 0.908976
vn 0.472979 0.42159100000000005 0.773661
vn 0.316792 0.25125600000000003 0.914611
vn 0.316792 0.25125600000000003 0.914611
vn 0.137392 0.06251000000000005 0.988542
vn -0.289518 0.573318 0.766476
vn -0.056274 0.40076900000000004 0.914449
vn -0.056274 0.40076900000000004 0.914449
vn 0.182938 0.18570900000000007 0.965425
vn -0.07255 0.690619 0.719571
vn 0.084219 0.49313200000000007 0.865868
vn 0.084219 0.49313200000000007 0.865868
vn 0.233832 0.25373900000000005 0.938584
vn 0.840336 0.009153000000000033 0.541989
vn 0.801309 0.12179300000000004 0.585722
vn 0.464531 0.07002800000000006 0.882784
vn 0.703832 -0.009761999999999956 0.7103
vn 0.050234 0.33765300000000004 0.939929
vn 0.196733 0.15019800000000005 0.968884
vn -0.759271 0.30618300000000004 0.574247
vn -0.759271 0.30618300000000004 0.574247
vn -0.452989 0.06409300000000005 0.889209
vn -0.631173 0.19523700000000005 0.750668
vn -0.257798 -0.06290099999999994 0.964149
vn -0.257798 -0.06290099999999994 0.964149
vn -0.324514 -0.2971059999999999 0.898008
vn -0.780134 -0.17020699999999997 0.602014
vn -0.122003 -0.32182599999999995 0.938905
vn -0.122003 -0.32182599999999995 0.938905
vn -0.780134 -0.17020699999999997 0.602014
vn -0.324514 -0.2971059999999999 0.898008
vn 0.057616 0.4361900000000001 0.898008
vn 0.48821 0.631846 0.602015
vn -0.113406 0.32495500000000005 0.938905
vn -0.113406 0.32495500000000005 0.938905
vn 0.48821 0.631846 0.602014
vn 0.057616 0.4361900000000001 0.898008
vn -0.693612 0.47449900000000006 0.54199
vn -0.726251 0.35984400000000005 0.585723
vn -0.420688 0.20908000000000004 0.882784
vn -0.570946 0.41169700000000004 0.7103
vn -0.234819 -0.24777599999999994 0.939929
vn -0.247305 -0.010192999999999942 0.968884
vn 0.446339 -0.68631 0.574247
vn 0.446339 -0.68631 0.574247
vn 0.334304 -0.31232599999999994 0.889209
vn 0.405043 -0.521955 0.750669
vn 0.247255 -0.09634199999999994 0.964149
vn 0.247255 -0.09634099999999994 0.964149
vn 0.436239 0.057241000000000056 0.898008
vn 0.736675 -0.30804099999999995 0.602014
vn 0.28453 0.19364600000000007 0.938906
vn 0.28453 0.19364600000000007 0.938905
vn 0.736674 -0.3080419999999999 0.602015
vn 0.436239 0.057241000000000056 0.898008
vn -0.297384 -0.32425899999999996 0.898008
vn -0.76233 -0.23755199999999999 0.602014
vn -0.09349 -0.3312339999999999 0.938905
vn -0.093489 -0.33123499999999995 0.938905
vn -0.762331 -0.23755099999999998 0.602014
vn -0.297385 -0.32425799999999994 0.898008
vn 0.27881 0.792788 0.541989
vn 0.159615 0.79464 0.585722
vn 0.093074 0.46046700000000007 0.882784
vn 0.249897 0.658047 0.7103
vn -0.300109 0.16268800000000005 0.939929
vn -0.073853 0.23624000000000006 0.968884
vn -0.547404 -0.608761 0.574247
vn -0.547404 -0.608761 0.574247
vn -0.215159 -0.40374899999999997 0.889209
vn -0.399337 -0.526334 0.750668
vn -0.029064 -0.26376499999999997 0.964149
vn -0.029064 -0.26376499999999997 0.964149
vn 0.168198 -0.40655899999999995 0.898008
vn -0.10688 -0.7913 0.602014
vn 0.26069 -0.22471599999999994 0.938905
vn 0.26069 -0.22471599999999994 0.938905
vn -0.10688 -0.7913 0.602014
vn 0.168198 -0.40655899999999995 0.898008
vn -0.390178 0.20332700000000006 0.898008
vn -0.426763 0.674872 0.602014
vn -0.344145 0.004574000000000057 0.938905
vn -0.344145 0.004574000000000057 0.938905
vn -0.426763 0.674872 0.602014
vn -0.390178 0.20332700000000006 0.898008
vn 0.474499 0.693613 0.541989
vn 0.359844 0.726252 0.585722
vn 0.20908 0.42068800000000006 0.882784
vn 0.411697 0.570946 0.7103
vn -0.247776 0.23481800000000005 0.939929
vn -0.010193 0.24730500000000005 0.968884
vn -0.68631 -0.44633899999999993 0.574247
vn -0.68631 -0.44633899999999993 0.574247
vn -0.312326 -0.33430399999999993 0.889209
vn -0.521955 -0.40504299999999993 0.750669
vn -0.096341 -0.24725499999999995 0.964149
vn -0.096341 -0.24725499999999995 0.964149
vn 0.057241 -0.43623899999999993 0.898008
vn -0.308041 -0.736674 0.602014
vn 0.193646 -0.28452999999999995 0.938905
vn 0.193646 -0.28452999999999995 0.938905
vn -0.308041 -0.736674 0.602015
vn 0.057241 -0.43623899999999993 0.898008
vn -0.324259 0.29738400000000004 0.898008
vn -0.237552 0.76233 0.602014
vn -0.331235 0.09348900000000006 0.938905
vn -0.331235 0.09348900000000006 0.938905
vn -0.237552 0.762331 0.602014
vn -0.324259 0.29738400000000004 0.898008
vn -0.341897 -0.939347 0.027103000000000058
vn -0.642554 0.765761 0.02710399999999995
vn 0.984447 0.173581 0.027102999999999988
vn 0.642549 -0.765766 0.027103000000000047
vn -0.984446 -0.173582 0.02710300000000001
vn 0.341892 0.939348 0.02710399999999994
vn -0.609269 -0.17097099999999996 0.774312
vn -0.159352 -0.35493499999999994 0.92121
vn -0.159352 -0.35493499999999994 0.92121
vn 0.331653 -0.4473809999999999 0.830576
vn 0.146345 -0.25347699999999995 0.956207
vn 0.047131 -0.08163399999999994 0.995547
vn 0.047131 -0.08163399999999994 0.995547
vn -0.054011 0.09355000000000005 0.994148
vn -0.132032 -0.28314599999999995 0.949945
vn -0 6.123233995736766E-17 1
vn -0 6.123233995736766E-17 1
vn 0.132032 0.28314600000000006 0.949945
vn -0.179244 -0.032801999999999935 0.983258
vn -0.078725 -0.051332999999999934 0.995574
vn -0.078725 -0.051332999999999934 0.995574
vn 0.022629 -0.06931999999999995 0.997338
vn -0.129043 0.26843000000000006 0.954617
vn -0.153744 0.04536700000000006 0.987069
vn -0.153744 0.04536700000000006 0.987069
vn -0.170539 -0.18002899999999994 0.968765
vn -0.365237 0.03195400000000006 0.930366
vn 0 6.123233995736766E-17 1
vn 0 6.123233995736766E-17 1
vn 0.365237 -0.03195399999999995 0.930366
vn -0.276605 0.12898300000000004 0.952288
vn -0.089067 0.04153300000000006 0.995159
vn -0.089067 0.04153300000000006 0.995159
vn 0.102448 -0.04777199999999994 0.993591
vn -0.109602 0.18703200000000006 0.976221
vn -0.089828 0.06710900000000006 0.993694
vn -0.089828 0.06710900000000006 0.993694
vn -0.068699 -0.053825999999999936 0.996184
vn 0.243747 0.042979000000000066 0.968886
vn 0.078539 0.013849000000000061 0.996815
vn 0.078539 0.013849000000000061 0.996815
vn -0.088939 -0.01568199999999994 0.995914
vn 0.244675 0.25051000000000007 0.936685
vn -0.012624 0.19044000000000005 0.981618
vn -0.012624 0.19044000000000005 0.981618
vn -0.269017 0.11668900000000006 0.956041
vn 0.330315 0.19070800000000004 0.924404
vn 0 6.123233995736766E-17 1
vn 0 6.123233995736766E-17 1
vn -0.330314 -0.19070799999999993 0.924404
vn 0.168926 0.630441 0.757633
vn 0 1.0000000000612324E-06 1
vn 0 1.0000000000612324E-06 1
vn -0.168925 -0.630439 0.757635
vn -0.05906 -0.3596809999999999 0.931204
vn 0.12514 -0.15529099999999996 0.97991
vn 0.12514 -0.15529099999999996 0.97991
vn 0.29957 0.061223000000000055 0.952108
vn -0.522587 -0.19020499999999996 0.831099
vn -0.166617 -0.06064299999999994 0.984155
vn -0.166617 -0.06064299999999994 0.984155
vn 0.217166 0.07904100000000006 0.972929
vn 0.369047 -0.514049 0.774311
vn 0.388033 -0.028344999999999943 0.921209
vn 0.388033 -0.028344999999999943 0.921209
vn 0.306967 0.46466700000000005 0.830576
vn 0.002825 -0.43669399999999997 0.899606
vn 0.097693 -0.21199699999999994 0.972375
vn 0.097693 -0.21199699999999994 0.972375
vn 0.186233 0.026434000000000058 0.98215
vn 0 0.556125 0.831098
vn 0 0.17731000000000005 0.984155
vn 0 0.17731000000000005 0.984155
vn 0 -0.23110299999999995 0.972929
vn 0.534643 -0.3743619999999999 0.757634
vn 0 6.123233995736766E-17 1
vn 0 6.123233995736766E-17 1
vn -0.534643 0.37436200000000003 0.757634
vn 0.630439 0.16892500000000005 0.757635
vn -1E-06 6.123233995736766E-17 1
vn -1E-06 6.123233995736766E-17 1
vn -0.630441 -0.16892599999999994 0.757633
vn 0.409392 0.15201300000000006 0.899606
vn 0.165799 0.16430900000000007 0.972375
vn 0.165799 0.16430900000000007 0.972375
vn -0.088535 0.16596100000000005 0.98215
vn 0.20586 -0.09437799999999995 0.97402
vn 0.117189 -0.0035229999999999394 0.993103
vn 0.117189 -0.0035229999999999394 0.993103
vn 0.026587 0.08739100000000005 0.995819
vn 0.416197 0.07338700000000005 0.906308
vn 0.416198 0.07338700000000005 0.906308
vn 0.416197 0.07338800000000005 0.906308
vn 0.416197 0.07338700000000005 0.906308
vn -0.128405 -0.667728 0.733247
vn -0.128405 -0.667728 0.733247
vn -0.128405 -0.667728 0.733247
vn -0.128405 -0.667728 0.733247
vn -0.583542 0.34903800000000007 0.733247
vn -0.583542 0.34903700000000004 0.733248
vn -0.583542 0.34903900000000004 0.733247
vn -0.583542 0.34903800000000007 0.733247
vn 0.864686 -0.499229 0.05558400000000003
vn -0.864686 -0.499227 0.05558500000000003
vn -2E-06 0.998454 0.05558499999999994
vn 0.864686 0.499228 0.055584999999999975
vn -2E-06 -0.998454 0.055585000000000065
vn -0.864686 0.499227 0.055584999999999975
vn 0.042797 -0.43064299999999994 0.901507
vn 0.196293 -0.14133599999999993 0.970306
vn 0.196293 -0.14133599999999993 0.970306
vn 0.327806 0.16379900000000006 0.930437
vn 0.166288 0.060524000000000064 0.984218
vn 0.053608 0.019512000000000064 0.998371
vn 0.053608 0.019512000000000064 0.998371
vn -0.059854 -0.021784999999999936 0.997969
vn 0.155372 -0.10879199999999994 0.981847
vn 0 6.123233995736766E-17 1
vn 0 6.123233995736766E-17 1
vn -0.155372 0.10879200000000006 0.981847
vn 0.0007 -0.10821599999999995 0.994127
vn 0.021631 -0.051187999999999935 0.998455
vn 0.021631 -0.051187999999999935 0.998455
vn 0.042482 0.006030000000000061 0.999079
vn -0.074816 0.29703100000000004 0.951932
vn 0.061983 0.26349900000000004 0.962666
vn 0.061983 0.26349900000000004 0.962666
vn 0.197545 0.22470900000000005 0.954192
vn -0.058367 -0.21782899999999994 0.97424
vn 0 6.123233995736766E-17 1
vn 0 6.123233995736766E-17 1
vn 0.058367 0.21782900000000005 0.97424
vn -0.16767 -0.07818599999999995 0.982738
vn -0.054051 -0.02520499999999994 0.99822
vn -0.054051 -0.02520499999999994 0.99822
vn 0.060431 0.02817900000000006 0.997775
vn -0.121252 -0.04502199999999994 0.9916
vn -0.04866 -0.04530299999999994 0.997787
vn -0.04866 -0.04530299999999994 0.997787
vn 0.024189 -0.04534399999999994 0.998679
vn 0 0.14839100000000005 0.988929
vn 0 0.03541900000000006 0.999373
vn 0 0.03541900000000006 0.999373
vn 0 -0.07800899999999994 0.996953
vn -0.125084 0.17423200000000005 0.976728
vn -0.114237 0.029312000000000064 0.993021
vn -0.114237 0.029312000000000064 0.993021
vn -0.100948 -0.11623399999999995 0.988078
vn -0.08056 0.22133700000000006 0.971864
vn 0 6.123233995736766E-17 1
vn 0 6.123233995736766E-17 1
vn 0.08056 -0.22133699999999995 0.971864
vn -0.409204 0.19081400000000007 0.892268
vn 0 6.123233995736766E-17 1
vn 0 6.123233995736766E-17 1
vn 0.409204 -0.19081399999999996 0.892268
vn 0.211449 -0.07415099999999994 0.974572
vn 0.104723 0.05638500000000006 0.992902
vn 0.104723 0.05638500000000006 0.992902
vn -0.005016 0.18529900000000005 0.982669
vn 0.063522 -0.36025099999999993 0.93069
vn 0.020432 -0.11587499999999995 0.993054
vn 0.020432 -0.11587499999999995 0.993054
vn -0.023996 0.13608700000000007 0.990406
vn 0.390034 0.18750300000000006 0.901508
vn 0.122731 0.22678800000000005 0.96618
vn 0.122731 0.22678800000000005 0.96618
vn -0.154043 0.24857100000000004 0.956286
vn 0.27035 -0.045868999999999945 0.961669
vn 0.13874 0.03333600000000006 0.989768
vn 0.13874 0.03333600000000006 0.989768
vn 0.003748 0.11172800000000005 0.993732
vn -0.36025 0.06352200000000005 0.93069
vn -0.115875 0.02043200000000006 0.993054
vn -0.115875 0.02043200000000006 0.993054
vn 0.136087 -0.02399599999999994 0.990406
vn 0.319263 0.3192630000000001 0.892268
vn 0 6.123233995736766E-17 1
vn 0 6.123233995736766E-17 1
vn -0.319263 -0.31926299999999996 0.892268
vn -0.039351 0.4497880000000001 0.892268
vn 0 6.123233995736766E-17 1
vn 0 6.123233995736766E-17 1
vn 0.039351 -0.44978799999999997 0.892268
vn -0.049362 0.26973300000000006 0.961669
vn -0.078777 0.11897100000000005 0.989768
vn -0.078777 0.11897100000000005 0.989768
vn -0.106272 -0.03469099999999994 0.993732
vn 0.076895 0.11134300000000005 0.990803
vn 0.014503 0.06804900000000005 0.997577
vn 0.014503 0.06804900000000005 0.997577
vn -0.047972 0.024360000000000062 0.998552
vn 0 0.26417500000000005 0.964475
vn 0 0.26417500000000005 0.964475
vn 0 0.26417500000000005 0.964475
vn 0 0.26417500000000005 0.964475
vn 0.446917 -0.17052799999999996 0.878172
vn 0.446917 -0.17052799999999996 0.878172
vn 0.446917 -0.17052799999999996 0.878172
vn 0.446917 -0.17052799999999996 0.878172
vn -0.313099 -0.36163999999999996 0.878172
vn -0.313098 -0.36164099999999993 0.878172
vn -0.313099 -0.36163999999999996 0.878171
vn -0.313099 -0.36163999999999996 0.878172
vn -0.615141 -0.22389299999999995 0.755959
vn -0.615141 -0.22389299999999995 0.755959
vn -0.615141 -0.22389299999999995 0.755959
vn -0.615141 -0.22389299999999995 0.755959
vn 0.420781 -0.501468 0.755959
vn 0.420781 -0.501468 0.755959
vn 0.420781 -0.501468 0.755959
vn 0.420781 -0.501468 0.755959
vn -0.627183 -0.3621039999999999 0.689581
vn -0.627183 -0.3621039999999999 0.689581
vn -0.627183 -0.3621039999999999 0.689581
vn -0.627183 -0.3621039999999999 0.689581
vn 0.721453 0.06311900000000004 0.689581
vn 0.721453 0.06311900000000004 0.689581
vn 0.721453 0.06311900000000004 0.689581
vn 0.721453 0.06311900000000004 0.689581
vn -0 -0.724209 0.689581
vn 0 -0.724209 0.689581
vn -0 -0.724209 0.689581
vn -0 -0.724209 0.689581
vn -0 0.654619 0.755959
vn -0 0.654619 0.755959
vn 0 0.654619 0.755959
vn -0 0.654619 0.755959
vn 0 0.724209 0.689581
vn 0 0.724209 0.689581
vn 0 0.724209 0.689581
vn 0 0.724209 0.689581
vn -0.801876 0.27777900000000005 0.528993
vn -0.801876 0.27777900000000005 0.528993
vn -0.801876 0.27777900000000005 0.528993
vn -0.801876 0.27777900000000005 0.528993
vn 0.865707 -0.499816 0.02710300000000003
vn -0.865707 -0.499816 0.02710300000000003
vn -0 0.999633 0.027102999999999936
vn 0.865707 0.499816 0.02710399999999997
vn -0 -0.999633 0.02710300000000006
vn -0.865707 0.499816 0.027102999999999967
vn 0.062577 -0.629702 0.774313
vn 0.321873 -0.21856399999999995 0.92121
vn 0.321873 -0.21856399999999995 0.92121
vn 0.498174 0.24893000000000007 0.830576
vn 0.275039 0.10010600000000006 0.956207
vn 0.088578 0.03224000000000006 0.995547
vn 0.088578 0.03224000000000006 0.995547
vn -0.101508 -0.03694599999999994 0.994148
vn 0.255917 -0.17919499999999994 0.949945
vn -0 6.123233995736766E-17 1
vn -0 6.123233995736766E-17 1
vn -0.255917 0.17919500000000005 0.949945
vn 0.001179 -0.18221699999999993 0.983258
vn 0.036883 -0.08644299999999995 0.995574
vn 0.036883 -0.08644299999999995 0.995574
vn 0.072196 0.010248000000000061 0.997338
vn -0.28676 -0.08047099999999995 0.954617
vn -0.071375 -0.14352999999999994 0.987069
vn -0.071375 -0.14352999999999994 0.987069
vn 0.14768 -0.19920999999999994 0.968765
vn -0.094892 -0.3541389999999999 0.930366
vn 0 6.123233995736766E-17 1
vn 0 6.123233995736766E-17 1
vn 0.094892 0.35413900000000004 0.930366
vn -0.175055 -0.2500049999999999 0.952288
vn -0.056368 -0.08050199999999995 0.995159
vn -0.056368 -0.08050199999999995 0.995159
vn 0.064836 0.09259600000000005 0.993591
vn -0.203222 -0.07545899999999994 0.976221
vn -0.081688 -0.07680999999999995 0.993694
vn -0.081688 -0.07680999999999995 0.993694
vn 0.041079 -0.07700199999999995 0.996184
vn 0 0.24750700000000006 0.968886
vn 0 0.07975100000000006 0.996815
vn 0 0.07975100000000006 0.996815
vn 0 -0.09031099999999995 0.995914
vn -0.204218 0.2844590000000001 0.936685
vn -0.189739 0.020637000000000058 0.981618
vn -0.189739 0.020637000000000058 0.981618
vn -0.161631 -0.24466699999999994 0.956041
vn -0.130451 0.35841300000000004 0.924404
vn 0 6.123233995736766E-17 1
vn 0 6.123233995736766E-17 1
vn 0.130451 -0.3584129999999999 0.924404
vn -0.591529 0.2758340000000001 0.757634
vn -0 6.123233995736766E-17 1
vn -0 6.123233995736766E-17 1
vn 0.591528 -0.27583299999999994 0.757635
vn 0.343961 -0.12062099999999995 0.931204
vn 0.174662 0.09627300000000005 0.979911
vn 0.174662 0.09627300000000005 0.979911
vn -0.008274 0.30565000000000003 0.952108
vn 0.09657 -0.547675 0.8311
vn 0.030789 -0.17461499999999994 0.984155
vn 0.030789 -0.17461499999999994 0.984155
vn -0.040131 0.22759300000000005 0.972929
vn 0.570324 0.27417500000000006 0.774312
vn 0.095297 0.3772150000000001 0.92121
vn 0.095297 0.3772150000000001 0.92121
vn -0.404303 0.38299200000000005 0.830576
vn 0.430549 -0.07304899999999995 0.899606
vn 0.22574 0.05939600000000006 0.972375
vn 0.22574 0.05939600000000006 0.972375
vn 0.006307 0.18799300000000005 0.98215
vn -0.547675 0.09657000000000006 0.831099
vn -0.174616 0.03078900000000006 0.984155
vn -0.174616 0.03078900000000006 0.984155
vn 0.227592 -0.04013099999999994 0.972929
vn 0.461513 0.46151400000000004 0.757635
vn 0 6.123233995736766E-17 1
vn 0 6.123233995736766E-17 1
vn -0.461513 -0.4615139999999999 0.757635
vn -0.056885 0.650196 0.757634
vn -0 1.0000000000612324E-06 1
vn -0 1.0000000000612324E-06 1
vn 0.056885 -0.650195 0.757635
vn -0.078613 0.42956900000000003 0.899606
vn -0.133022 0.19181200000000007 0.972375
vn -0.133022 0.19181200000000007 0.972375
vn -0.178813 -0.05837099999999994 0.98215
vn 0.128692 0.18634400000000007 0.97402
vn 0.023819 0.11479700000000005 0.993103
vn 0.023819 0.11479700000000005 0.993103
vn -0.081446 0.04135800000000006 0.995819
vn 0 0.42261800000000005 0.906308
vn 0 0.42261800000000005 0.906308
vn 0 0.42261800000000005 0.906308
vn 0 0.42261800000000005 0.906308
vn 0.635286 -0.24240399999999995 0.733247
vn 0.635286 -0.24240399999999995 0.733247
vn 0.635286 -0.24240299999999995 0.733248
vn 0.635286 -0.24240399999999995 0.733247
vn -0.445065 -0.514067 0.733247
vn -0.445067 -0.514066 0.733247
vn -0.445064 -0.514068 0.733248
vn -0.445065 -0.514067 0.733247
vn 0.273905 -0.32642699999999997 0.904667
vn 0.273905 -0.32642699999999997 0.904667
vn 0.0933 -0.11118999999999994 0.98941
vn 0.186599 -0.22237999999999994 0.956937
vn 0 6.123233995736766E-17 1
vn 0 6.123233995736766E-17 1
vn -0.189643 0.4066910000000001 0.893666
vn -0.189643 0.4066910000000001 0.893666
vn -0.171072 0.19333000000000006 0.966104
vn -0.158844 0.34064300000000003 0.926677
vn -0.219643 -0.039698999999999936 0.974772
vn -0.15839 0.08190600000000006 0.983974
vn 0.471134 0.49970900000000007 0.726859
vn 0.471134 0.49970900000000007 0.726859
vn 0.123089 0.10128800000000006 0.987213
vn 0.318979 0.32369200000000004 0.890773
vn -0.066617 -0.11082799999999994 0.991604
vn -0.066617 -0.11082799999999994 0.991604
vn -0.606518 -0.23141199999999995 0.760647
vn -0.606519 -0.23141199999999995 0.760647
vn -0.077338 -0.11046999999999994 0.990866
vn -0.370079 -0.18168199999999995 0.911061
vn 0.197106 -0.035923999999999935 0.979724
vn 0.197106 -0.035923999999999935 0.979724
vn 0.169494 -0.43025099999999994 0.886654
vn 0.169494 -0.43025099999999994 0.886654
vn -0.130013 -0.2555029999999999 0.958027
vn 0.02913 -0.27564099999999997 0.960819
vn -0.2844 -0.37396899999999994 0.882759
vn -0.277559 -0.15340199999999996 0.948382
vn 0.281644 5.875359360355346E-17 0.959519
vn 0.281644 5.875359360355346E-17 0.959519
vn -0.015926 0.07288800000000005 0.997213
vn 0.172402 6.0315508131186E-17 0.985027
vn -0.275262 0.21166700000000005 0.937778
vn -0.165994 0.10715500000000006 0.980287
vn 0.477383 -0.13884999999999995 0.867655
vn 0.477383 -0.13884999999999995 0.867655
vn 0.146157 -0.09495699999999994 0.984693
vn 0.2958 -0.045826999999999944 0.95415
vn 0.051721 -0.2792069999999999 0.958837
vn -0.031028 -0.06782399999999994 0.997215
vn -0.175621 -0.20929699999999996 0.961952
vn -0.175621 -0.20929699999999996 0.961952
vn 0.060585 0.07220200000000006 0.995548
vn -0.060585 -0.07220199999999995 0.995548
vn 0.175621 0.20929700000000007 0.961952
vn 0.175621 0.20929700000000007 0.961952
vn -0.400422 0.14574200000000007 0.904667
vn -0.400422 0.14574200000000007 0.904667
vn -0.136395 0.04964400000000006 0.98941
vn -0.27279 0.09928700000000006 0.956937
vn 0 6.123233995736766E-17 1
vn 0 6.123233995736766E-17 1
vn -0 0.33263000000000004 0.943057
vn -0 0.33263000000000004 0.943057
vn 0.110021 6.086059842148648E-17 0.993929
vn -0 0.11676700000000005 0.993159
vn 0.313878 5.813784119294217E-17 0.949463
vn 0.161211 -0.17084199999999994 0.97202
vn -0.309976 0.18556700000000007 0.932459
vn -0.309975 0.18556700000000007 0.932459
vn -0.309976 0.18556700000000007 0.932459
vn -0.309976 0.18556700000000007 0.932459
vn 0 -0.25881899999999997 0.965926
vn 0 -0.25881899999999997 0.965926
vn 0 -0.25881899999999997 0.965926
vn 0 -0.25881899999999997 0.965926
vn 0.23457 0.43315100000000006 0.870263
vn 0.23457 0.43315100000000006 0.870263
vn 0.23457 0.43315100000000006 0.870263
vn 0.23457 0.43315100000000006 0.870263
vn 0.682217 0.0006250000000000448 0.731149
vn 0.682217 0.0006250000000000448 0.731149
vn 0.108536 -0.22699999999999995 0.967828
vn 0.435859 -0.11315099999999995 0.892874
vn -0.195576 -0.30468999999999996 0.932156
vn -0.195576 -0.30468999999999996 0.932156
vn -0.224881 0.2515800000000001 0.941348
vn -0.224881 0.2515800000000001 0.941348
vn -0.043978 0.04919900000000006 0.99782
vn -0.136622 0.15284200000000006 0.978761
vn 0.047736 -0.05340299999999994 0.997431
vn 0.047736 -0.05340299999999994 0.997431
vn 0.727457 -0.10162099999999996 0.678587
vn 0.794184 -0.32098499999999996 0.515984
vn 0.366639 0.09348600000000006 0.925654
vn 0.546751 0.03614800000000005 0.836514
vn 0.371574 -0.15017899999999995 0.916176
vn 0.232958 0.07394800000000006 0.969671
vn -0.30347 -0.44118599999999997 0.844548
vn -0.30347 -0.44118599999999997 0.844548
vn -0.087745 0.11482200000000005 0.989503
vn -0.117187 -0.17036799999999994 0.978387
vn -0.231744 0.30325900000000006 0.924299
vn 0.037349 0.38763900000000007 0.921054
vn -0.693995 0.12552400000000005 0.708953
vn -0.693995 0.12552400000000005 0.708953
vn -0.142746 0.16541400000000006 0.975839
vn -0.406625 0.07354700000000006 0.91063
vn -0.018004 0.3719430000000001 0.928081
vn 0.165057 0.16212400000000005 0.972868
vn -0.456524 -0.14037299999999994 0.878567
vn -0.652262 0.021152000000000046 0.757699
vn 0.009462 -0.15686099999999994 0.987575
vn -0.196513 -0.18257899999999994 0.963352
vn -0.094985 0.06346300000000006 0.993454
vn 0.130661 -0.08269599999999995 0.987972
vn -0.642554 0.765761 0.02710399999999995
vn -0.984446 -0.173582 0.02710300000000001
vn -0.864686 -0.499227 0.05558500000000003
vn -2E-06 -0.998454 0.055585000000000065
vn -0.865707 -0.499816 0.02710300000000003
vn -0 -0.999633 0.02710300000000006
g bobobj
f 683/683/683 685/685/685 686/686/686
f 686/686/686 684/684/684 683/683/683
f 681/681/681 683/683/683 684/684/684
f 684/684/684 682/682/682 681/681/681
f 677/677/677 679/679/679 680/680/680
f 680/680/680 678/678/678 677/677/677
f 675/675/675 677/677/677 678/678/678
f 678/678/678 676/676/676 675/675/675
f 671/671/671 673/673/673 674/674/674
f 674/674/674 672/672/672 671/671/671
f 669/669/669 671/671/671 672/672/672
f 672/672/672 670/670/670 669/669/669
f 665/665/665 667/667/667 668/668/668
f 668/668/668 666/666/666 665/665/665
f 663/663/663 665/665/665 666/666/666
f 666/666/666 664/664/664 663/663/663
f 659/659/659 661/661/661 662/662/662
f 662/662/662 660/660/660 659/659/659
f 657/657/657 659/659/659 660/660/660
f 660/660/660 658/658/658 657/657/657
f 653/653/653 655/655/655 656/656/656
f 656/656/656 654/654/654 653/653/653
f 651/651/651 653/653/653 654/654/654
f 654/654/654 652/652/652 651/651/651
f 647/647/647 649/649/649 650/650/650
f 650/650/650 648/648/648 647/647/647
f 643/643/643 645/645/645 646/646/646
f 646/646/646 644/644/644 643/643/643
f 639/639/639 641/641/641 642/642/642
f 642/642/642 640/640/640 639/639/639
f 635/635/635 637/637/637 638/638/638
f 638/638/638 636/636/636 635/635/635
f 633/633/633 635/635/635 636/636/636
f 636/636/636 634/634/634 633/633/633
f 629/629/629 631/631/631 632/632/632
f 632/632/632 630/630/630 629/629/629
f 627/627/627 629/629/629 630/630/630
f 630/630/630 628/628/628 627/627/627
f 623/623/623 625/625/625 626/626/626
f 626/626/626 624/624/624 623/623/623
f 621/621/621 623/623/623 624/624/624
f 624/624/624 622/622/622 621/621/621
f 617/617/617 619/619/619 620/620/620
f 620/620/620 618/618/618 617/617/617
f 615/615/615 617/617/617 618/618/618
f 618/618/618 616/616/616 615/615/615
f 611/611/611 613/613/613 614/614/614
f 614/614/614 612/612/612 611/611/611
f 609/609/609 611/611/611 612/612/612
f 612/612/612 610/610/610 609/609/609
f 605/605/605 607/607/607 608/608/608
f 608/608/608 606/606/606 605/605/605
f 603/603/603 605/605/605 606/606/606
f 606/606/606 604/604/604 603/603/603
f 599/599/599 601/601/601 602/602/602
f 602/602/602 600/600/600 599/599/599
f 597/597/597 599/599/599 600/600/600
f 600/600/600 598/598/598 597/597/597
f 593/593/593 595/595/595 596/596/596
f 596/596/596 594/594/594 593/593/593
f 591/591/591 593/593/593 594/594/594
f 594/594/594 592/592/592 591/591/591
f 587/587/587 589/589/589 590/590/590
f 590/590/590 588/588/588 587/587/587
f 585/585/585 587/587/587 588/588/588
f 588/588/588 586/586/586 585/585/585
f 581/581/581 583/583/583 584/584/584
f 584/584/584 582/582/582 581/581/581
f 579/579/579 581/581/581 582/582/582
f 582/582/582 580/580/580 579/579/579
f 575/575/575 577/577/577 578/578/578
f 578/578/578 576/576/576 575/575/575
f 571/571/571 573/573/573 574/574/574
f 574/574/574 572/572/572 571/571/571
f 567/567/567 569/569/569 570/570/570
f 570/570/570 568/568/568 567/567/567
f 566/566/566 565/565/565 564/564/564
f 565/565/565 563/563/563 564/564/564
f 562/562/562 561/561/561 560/560/560
f 561/561/561 559/559/559 560/560/560
f 558/558/558 557/557/557 556/556/556
f 557/557/557 555/555/555 556/556/556
f 554/554/554 553/553/553 552/552/552
f 553/553/553 551/551/551 552/552/552
f 550/550/550 549/549/549 548/548/548
f 549/549/549 547/547/547 548/548/548
f 546/546/546 545/545/545 544/544/544
f 545/545/545 543/543/543 544/544/544
f 542/542/542 541/541/541 540/540/540
f 541/541/541 539/539/539 540/540/540
f 538/538/538 537/537/537 536/536/536
f 537/537/537 535/535/535 536/536/536
f 534/534/534 533/533/533 532/532/532
f 533/533/533 531/531/531 532/532/532
f 530/530/530 529/529/529 528/528/528
f 529/529/529 527/527/527 528/528/528
f 526/526/526 525/525/525 524/524/524
f 525/525/525 523/523/523 524/524/524
f 522/522/522 521/521/521 520/520/520
f 521/521/521 519/519/519 520/520/520
f 518/518/518 517/517/517 516/516/516
f 517/517/517 515/515/515 516/516/516
f 514/514/514 513/513/513 512/512/512
f 513/513/513 511/511/511 512/512/512
f 510/510/510 509/509/509 508/508/508
f 509/509/509 507/507/507 508/508/508
f 506/506/506 505/505/505 504/504/504
f 505/505/505 503/503/503 504/504/504
f 502/502/502 501/501/501 500/500/500
f 501/501/501 499/499/499 500/500/500
f 498/498/498 497/497/497 496/496/496
f 497/497/497 495/495/495 496/496/496
f 494/494/494 493/493/493 492/492/492
f 493/493/493 491/491/491 492/492/492
f 490/490/490 489/489/489 488/488/488
f 489/489/489 487/487/487 488/488/488
f 486/486/486 485/485/485 484/484/484
f 485/485/485 483/483/483 484/484/484
f 479/479/479 482/482/482 480/480/480
f 480/480/480 477/477/477 479/479/479
f 691/691/691 692/692/692 482/482/482
f 482/482/482 479/479/479 691/691/691
f 477/477/477 480/480/480 481/481/481
f 481/481/481 478/478/478 477/477/477
f 473/473/473 475/475/475 476/476/476
f 476/476/476 474/474/474 473/473/473
f 469/469/469 471/471/471 472/472/472
f 472/472/472 470/470/470 469/469/469
f 465/465/465 467/467/467 468/468/468
f 468/468/468 466/466/466 465/465/465
f 461/461/461 463/463/463 464/464/464
f 464/464/464 462/462/462 461/461/461
f 457/457/457 459/459/459 460/460/460
f 460/460/460 458/458/458 457/457/457
f 453/453/453 455/455/455 456/456/456
f 456/456/456 454/454/454 453/453/453
f 449/449/449 451/451/451 452/452/452
f 452/452/452 450/450/450 449/449/449
f 445/445/445 447/447/447 448/448/448
f 448/448/448 446/446/446 445/445/445
f 441/441/441 443/443/443 444/444/444
f 444/444/444 442/442/442 441/441/441
f 437/437/437 439/439/439 440/440/440
f 440/440/440 438/438/438 437/437/437
f 433/433/433 435/435/435 436/436/436
f 436/436/436 434/434/434 433/433/433
f 432/432/432 431/431/431 430/430/430
f 431/431/431 429/429/429 430/430/430
f 428/428/428 427/427/427 426/426/426
f 427/427/427 425/425/425 426/426/426
f 424/424/424 423/423/423 422/422/422
f 423/423/423 421/421/421 422/422/422
f 420/420/420 419/419/419 418/418/418
f 419/419/419 417/417/417 418/418/418
f 416/416/416 415/415/415 414/414/414
f 415/415/415 413/413/413 414/414/414
f 412/412/412 411/411/411 410/410/410
f 411/411/411 409/409/409 410/410/410
f 408/408/408 407/407/407 406/406/406
f 407/407/407 405/405/405 406/406/406
f 404/404/404 403/403/403 402/402/402
f 403/403/403 401/401/401 402/402/402
f 400/400/400 399/399/399 398/398/398
f 399/399/399 397/397/397 398/398/398
f 396/396/396 395/395/395 394/394/394
f 395/395/395 393/393/393 394/394/394
f 392/392/392 391/391/391 390/390/390
f 391/391/391 389/389/389 390/390/390
f 388/388/388 387/387/387 386/386/386
f 387/387/387 385/385/385 386/386/386
f 384/384/384 383/383/383 382/382/382
f 383/383/383 381/381/381 382/382/382
f 380/380/380 379/379/379 378/378/378
f 379/379/379 377/377/377 378/378/378
f 376/376/376 375/375/375 374/374/374
f 375/375/375 373/373/373 374/374/374
f 372/372/372 371/371/371 370/370/370
f 371/371/371 369/369/369 370/370/370
f 368/368/368 367/367/367 366/366/366
f 367/367/367 365/365/365 366/366/366
f 364/364/364 363/363/363 362/362/362
f 363/363/363 361/361/361 362/362/362
f 360/360/360 359/359/359 358/358/358
f 359/359/359 357/357/357 358/358/358
f 356/356/356 355/355/355 354/354/354
f 355/355/355 353/353/353 354/354/354
f 352/352/352 351/351/351 350/350/350
f 351/351/351 349/349/349 350/350/350
f 345/345/345 348/348/348 346/346/346
f 346/346/346 343/343/343 345/345/345
f 689/689/689 690/690/690 348/348/348
f 348/348/348 345/345/345 689/689/689
f 343/343/343 346/346/346 347/347/347
f 347/347/347 344/344/344 343/343/343
f 339/339/339 341/341/341 342/342/342
f 342/342/342 340/340/340 339/339/339
f 335/335/335 337/337/337 338/338/338
f 338/338/338 336/336/336 335/335/335
f 331/331/331 333/333/333 334/334/334
f 334/334/334 332/332/332 331/331/331
f 330/330/330 329/329/329 328/328/328
f 329/329/329 327/327/327 328/328/328
f 326/326/326 325/325/325 324/324/324
f 325/325/325 323/323/323 324/324/324
f 322/322/322 321/321/321 320/320/320
f 321/321/321 319/319/319 320/320/320
f 318/318/318 317/317/317 316/316/316
f 317/317/317 315/315/315 316/316/316
f 314/314/314 313/313/313 312/312/312
f 313/313/313 311/311/311 312/312/312
f 310/310/310 309/309/309 308/308/308
f 309/309/309 307/307/307 308/308/308
f 306/306/306 305/305/305 304/304/304
f 305/305/305 303/303/303 304/304/304
f 302/302/302 301/301/301 300/300/300
f 301/301/301 299/299/299 300/300/300
f 298/298/298 297/297/297 296/296/296
f 297/297/297 295/295/295 296/296/296
f 294/294/294 293/293/293 292/292/292
f 293/293/293 291/291/291 292/292/292
f 290/290/290 289/289/289 288/288/288
f 289/289/289 287/287/287 288/288/288
f 286/286/286 285/285/285 284/284/284
f 285/285/285 283/283/283 284/284/284
f 282/282/282 281/281/281 280/280/280
f 281/281/281 279/279/279 280/280/280
f 278/278/278 277/277/277 276/276/276
f 277/277/277 275/275/275 276/276/276
f 274/274/274 273/273/273 272/272/272
f 273/273/273 271/271/271 272/272/272
f 270/270/270 269/269/269 268/268/268
f 269/269/269 267/267/267 268/268/268
f 266/266/266 265/265/265 264/264/264
f 265/265/265 263/263/263 264/264/264
f 262/262/262 261/261/261 260/260/260
f 261/261/261 259/259/259 260/260/260
f 258/258/258 257/257/257 256/256/256
f 257/257/257 255/255/255 256/256/256
f 254/254/254 253/253/253 252/252/252
f 253/253/253 251/251/251 252/252/252
f 250/250/250 249/249/249 248/248/248
f 249/249/249 247/247/247 248/248/248
f 243/243/243 246/246/246 244/244/244
f 244/244/244 241/241/241 243/243/243
f 687/687/687 688/688/688 246/246/246
f 246/246/246 243/243/243 687/687/687
f 241/241/241 244/244/244 245/245/245
f 245/245/245 242/242/242 241/241/241
f 237/237/237 239/239/239 240/240/240
f 240/240/240 238/238/238 237/237/237
f 235/235/235 237/237/237 238/238/238
f 238/238/238 236/236/236 235/235/235
f 231/231/231 233/233/233 234/234/234
f 234/234/234 232/232/232 231/231/231
f 229/229/229 231/231/231 232/232/232
f 232/232/232 230/230/230 229/229/229
f 225/225/225 227/227/227 228/228/228
f 228/228/228 226/226/226 225/225/225
f 223/223/223 225/225/225 226/226/226
f 226/226/226 224/224/224 223/223/223
f 219/219/219 221/221/221 222/222/222
f 222/222/222 220/220/220 219/219/219
f 217/217/217 219/219/219 220/220/220
f 220/220/220 218/218/218 217/217/217
f 213/213/213 215/215/215 216/216/216
f 216/216/216 214/214/214 213/213/213
f 211/211/211 213/213/213 214/214/214
f 214/214/214 212/212/212 211/211/211
f 207/207/207 209/209/209 210/210/210
f 210/210/210 208/208/208 207/207/207
f 205/205/205 207/207/207 208/208/208
f 208/208/208 206/206/206 205/205/205
f 201/201/201 203/203/203 204/204/204
f 204/204/204 202/202/202 201/201/201
f 199/199/199 201/201/201 202/202/202
f 202/202/202 200/200/200 199/199/199
f 195/195/195 197/197/197 198/198/198
f 198/198/198 196/196/196 195/195/195
f 193/193/193 195/195/195 196/196/196
f 196/196/196 194/194/194 193/193/193
f 189/189/189 191/191/191 192/192/192
f 192/192/192 190/190/190 189/189/189
f 187/187/187 189/189/189 190/190/190
f 190/190/190 188/188/188 187/187/187
f 183/183/183 185/185/185 186/186/186
f 186/186/186 184/184/184 183/183/183
f 181/181/181 183/183/183 184/184/184
f 184/184/184 182/182/182 181/181/181
f 177/177/177 179/179/179 180/180/180
f 180/180/180 178/178/178 177/177/177
f 175/175/175 177/177/177 178/178/178
f 178/178/178 176/176/176 175/175/175
f 171/171/171 173/173/173 174/174/174
f 174/174/174 172/172/172 171/171/171
f 169/169/169 171/171/171 172/172/172
f 172/172/172 170/170/170 169/169/169
f 165/165/165 167/167/167 168/168/168
f 168/168/168 166/166/166 165/165/165
f 163/163/163 165/165/165 166/166/166
f 166/166/166 164/164/164 163/163/163
f 159/159/159 161/161/161 162/162/162
f 162/162/162 160/160/160 159/159/159
f 157/157/157 159/159/159 160/160/160
f 160/160/160 158/158/158 157/157/157
f 153/153/153 155/155/155 156/156/156
f 156/156/156 154/154/154 153/153/153
f 151/151/151 153/153/153 154/154/154
f 154/154/154 152/152/152 151/151/151
f 147/147/147 149/149/149 150/150/150
f 150/150/150 148/148/148 147/147/147
f 145/145/145 147/147/147 148/148/148
f 148/148/148 146/146/146 145/145/145
f 144/144/144 143/143/143 142/142/142
f 143/143/143 141/141/141 142/142/142
f 140/140/140 139/139/139 138/138/138
f 139/139/139 137/137/137 138/138/138
f 136/136/136 135/135/135 134/134/134
f 135/135/135 133/133/133 134/134/134
f 132/132/132 131/131/131 130/130/130
f 131/131/131 129/129/129 130/130/130
f 128/128/128 127/127/127 126/126/126
f 127/127/127 125/125/125 126/126/126
f 124/124/124 123/123/123 122/122/122
f 123/123/123 121/121/121 122/122/122
f 120/120/120 119/119/119 118/118/118
f 119/119/119 117/117/117 118/118/118
f 116/116/116 115/115/115 114/114/114
f 115/115/115 113/113/113 114/114/114
f 112/112/112 111/111/111 110/110/110
f 111/111/111 109/109/109 110/110/110
f 108/108/108 107/107/107 106/106/106
f 107/107/107 105/105/105 106/106/106
f 104/104/104 103/103/103 102/102/102
f 103/103/103 101/101/101 102/102/102
f 100/100/100 99/99/99 98/98/98
f 99/99/99 97/97/97 98/98/98
f 96/96/96 95/95/95 94/94/94
f 95/95/95 93/93/93 94/94/94
f 92/92/92 91/91/91 90/90/90
f 91/91/91 89/89/89 90/90/90
f 88/88/88 87/87/87 86/86/86
f 87/87/87 85/85/85 86/86/86
f 84/84/84 83/83/83 82/82/82
f 83/83/83 81/81/81 82/82/82
f 80/80/80 79/79/79 78/78/78
f 79/79/79 77/77/77 78/78/78
f 76/76/76 75/75/75 74/74/74
f 75/75/75 73/73/73 74/74/74
f 69/69/69 71/71/71 72/72/72
f 72/72/72 70/70/70 69/69/69
f 67/67/67 69/69/69 70/70/70
f 70/70/70 68/68/68 67/67/67
f 63/63/63 65/65/65 66/66/66
f 66/66/66 64/64/64 63/63/63
f 61/61/61 63/63/63 64/64/64
f 64/64/64 62/62/62 61/61/61
f 57/57/57 59/59/59 60/60/60
f 60/60/60 58/58/58 57/57/57
f 55/55/55 57/57/57 58/58/58
f 58/58/58 56/56/56 55/55/55
f 51/51/51 53/53/53 54/54/54
f 54/54/54 52/52/52 51/51/51
f 49/49/49 51/51/51 52/52/52
f 52/52/52 50/50/50 49/49/49
f 45/45/45 47/47/47 48/48/48
f 48/48/48 46/46/46 45/45/45
f 43/43/43 45/45/45 46/46/46
f 46/46/46 44/44/44 43/43/43
f 39/39/39 41/41/41 42/42/42
f 42/42/42 40/40/40 39/39/39
f 37/37/37 39/39/39 40/40/40
f 40/40/40 38/38/38 37/37/37
f 33/33/33 35/35/35 36/36/36
f 36/36/36 34/34/34 33/33/33
f 31/31/31 33/33/33 34/34/34
f 34/34/34 32/32/32 31/31/31
f 27/27/27 29/29/29 30/30/30
f 30/30/30 28/28/28 27/27/27
f 25/25/25 27/27/27 28/28/28
f 28/28/28 26/26/26 25/25/25
f 21/21/21 23/23/23 24/24/24
f 24/24/24 22/22/22 21/21/21
f 19/19/19 21/21/21 22/22/22
f 22/22/22 20/20/20 19/19/19
f 15/15/15 17/17/17 18/18/18
f 18/18/18 16/16/16 15/15/15
f 13/13/13 15/15/15 16/16/16
f 16/16/16 14/14/14 13/13/13
f 9/9/9 11/11/11 12/12/12
f 12/12/12 10/10/10 9/9/9
f 7/7/7 9/9/9 10/10/10
f 10/10/10 8/8/8 7/7/7
f 3/3/3 5/5/5 6/6/6
f 6/6/6 4/4/4 3/3/3
f 1/1/1 3/3/3 4/4/4
f 4/4/4 2/2/2 1/1/1
