v -0.8911125000000001 -0.3300498 2.0209721556461205e-17
v -0.8970435 -0.3271428 0.36902789999999996
v -0.891531 -0.3171114 0.36902789999999996
v -0.891531 -0.3171114 0.36902789999999996
v -0.8856 -0.3200193 1.959553057051883e-17
v -0.8911125000000001 -0.3300498 2.0209721556461205e-17
v -0.891531 -0.3171114 0.36902789999999996
v -0.8970435 -0.3271428 0.36902789999999996
v -0.9053378999999999 -0.31738859999999997 0.5078322000000001
v -1.0804383000000002 -0.8750052 0.3527676
v -1.0669491000000002 -0.8831484000000001 0.3868344
v -1.0687455 -0.8735112 0.38971620000000007
v -0.7899264 -1.0619280000000002 0.37716120000000003
v -0.7749774 -1.0727541 0.31794300000000003
v -0.7656687000000001 -1.0728261000000001 0.32795280000000004
v -0.7899264 -1.0619280000000002 0.37716120000000003
v -0.7656687000000001 -1.0728261000000001 0.32795280000000004
v -0.7668972 -1.0635147 0.33098040000000006
v -0.7899264 -1.0619280000000002 0.37716120000000003
v -0.7668972 -1.0635147 0.33098040000000006
v -0.7749774 -1.0727541 0.31794300000000003
v -0.6103107000000001 -0.4173237 2.5553706670666514e-17
v -0.6179679 -0.41872139999999997 0.5060448
v -0.619479 -0.4035546 0.5060448
v -0.619479 -0.4035546 0.5060448
v -0.6118218000000001 -0.4021569 2.462500801700111e-17
v -0.6103107000000001 -0.4173237 2.5553706670666514e-17
v -0.619479 -0.4035546 0.5060448
v -0.6179679 -0.41872139999999997 0.5060448
v -0.6325308000000001 -0.4144824 0.6972056999999999
v -0.5426883 -0.9727605 0.6364908
v -0.539811 -0.9674874 0.5343237000000002
v -0.5315589 -0.976869 0.5310432000000002
v -0.5500116 -0.9818612999999999 0.48436740000000017
v -0.5315589 -0.976869 0.5310432000000002
v -0.539811 -0.9674874 0.5343237000000002
v -0.539811 -0.9674874 0.5343237000000002
v -0.5563467000000001 -0.9706634999999999 0.47993220000000014
v -0.5500116 -0.9818612999999999 0.48436740000000017
v -0.5482305000000001 -0.9756198 0.49066920000000014
v -0.5644215 -0.9672137999999999 0.5241033000000002
v -0.5516559000000001 -0.9705141 0.4579047000000001
v -0.5482305000000001 -0.9756198 0.49066920000000014
v -0.5496156 -0.9599175000000001 0.48950010000000005
v -0.5644215 -0.9672137999999999 0.5241033000000002
v -0.5644215 -0.9672137999999999 0.5241033000000002
v -0.5496156 -0.9599175000000001 0.48950010000000005
v -0.5516559000000001 -0.9705141 0.4579047000000001
v -0.08363160000000001 -0.9858438 0.5301711000000001
v -0.06196140000000001 -0.9861291 0.44861670000000003
v -0.0529866 -0.9790452000000001 0.46240200000000015
v -0.08363160000000001 -0.9858438 0.5301711000000001
v -0.0529866 -0.9790452000000001 0.46240200000000015
v -0.0604746 -0.969849 0.4665708000000001
v -0.08363160000000001 -0.9858438 0.5301711000000001
v -0.0604746 -0.969849 0.4665708000000001
v -0.06196140000000001 -0.9861291 0.44861670000000003
v -0.5355918000000001 0.7649415 -4.683915797549876e-17
v -0.5317731 0.7703307 0.36902789999999996
v -0.5227524 0.7632855000000001 0.36902789999999996
v -0.5227524 0.7632855000000001 0.36902789999999996
v -0.5265711000000001 0.7578954 -4.6407708784925145e-17
v -0.5355918000000001 0.7649415 -4.683915797549876e-17
v -0.5227524 0.7632855000000001 0.36902789999999996
v -0.5317731 0.7703307 0.36902789999999996
v -0.5208183 0.7769592000000001 0.5078322000000001
v -0.8309259000000001 1.0066248 0.35276759999999996
v -0.841122 0.9946107000000001 0.3868343999999999
v -0.831321 0.9948429 0.38971619999999996
v -1.0714059 0.7046433 0.3771612
v -1.0844829 0.6916176 0.3179429999999999
v -1.0860426 0.6824412000000001 0.32795279999999993
v -1.0714059 0.7046433 0.3771612
v -1.0860426 0.6824412000000001 0.32795279999999993
v -1.0766538 0.6821649 0.3309804
v -1.0714059 0.7046433 0.3771612
v -1.0766538 0.6821649 0.3309804
v -1.0844829 0.6916176 0.3179429999999999
v 0.2882745 0.2382858 -1.459079711261332e-17
v 0.1534986 0.2960469 -1.8127644424124828e-17
v 0.16281720000000002 0.2689452 0.07089029999999999
v 0.16281720000000002 0.2689452 0.07089029999999999
v 0.26152380000000003 0.22800240000000002 0.07089029999999999
v 0.2882745 0.2382858 -1.459079711261332e-17
v 1.1333682 -0.084159 5.153252498472105e-18
v 1.1225159999999998 -0.13266 8.123082218744395e-18
v 1.0457811000000001 -0.15778619999999996 0.7233390000000001
v 1.0457811000000001 -0.15778619999999996 0.7233390000000001
v 1.0580247 -0.10940129999999995 0.7216893
v 1.1333682 -0.084159 5.153252498472105e-18
v -1.0591956 -0.8587413 5.258273921703185e-17
v -1.0804383000000002 -0.8750052 0.3527676
v -1.0798695 -0.8648505000000001 0.35015940000000007
v -1.0798695 -0.8648505000000001 0.35015940000000007
v -1.0655604 -0.8483238000000001 5.1944851315525974e-17
v -1.053243 -0.8485137 5.195647933688387e-17
v -1.0707236999999998 -0.8657397 0.3399921000000001
v -1.0804383000000002 -0.8750052 0.3527676
v -1.0591956 -0.8587413 5.258273921703185e-17
v -1.053243 -0.8485137 5.195647933688387e-17
v -0.7703937000000001 -1.0623717 6.505150509548661e-17
v -0.7668972 -1.0635147 0.33098040000000006
v -0.7656687000000001 -1.0728261000000001 0.32795280000000004
v -0.7619562 -1.0710702 6.558413460460577e-17
v -0.7703937000000001 -1.0623717 6.505150509548661e-17
v -0.7749774 -1.0727541 6.568724374185998e-17
v -0.7749774 -1.0727541 0.31794300000000003
v -0.7668972 -1.0635147 0.33098040000000006
v -0.7703937000000001 -1.0623717 6.505150509548661e-17
v -0.7749774 -1.0727541 6.568724374185998e-17
v -0.46664639999999996 -0.5872059000000001 3.595599129377204e-17
v -0.45894870000000004 -0.6246945 0.4123143000000001
v -0.4641642 -0.6134742 0.42135300000000003
v -0.4746366 -0.5744583000000001 3.51754259169315e-17
v -0.46664639999999996 -0.5872059000000001 3.595599129377204e-17
v -0.45943649999999997 -0.5744853000000001 3.517707919011035e-17
v -0.45173880000000005 -0.6119739 0.4123143000000001
v -0.45894870000000004 -0.6246945 0.4123143000000001
v -0.46664639999999996 -0.5872059000000001 3.595599129377204e-17
v -0.45943649999999997 -0.5744853000000001 3.517707919011035e-17
v -1.0763064 -0.8799651000000001 0.4634118000000001
v -1.0574316000000001 -0.8795196000000001 0.38509830000000006
v -1.0687455 -0.8735112 0.38971620000000007
v -1.0798695 -0.8648505000000001 0.35015940000000007
v -1.0574316000000001 -0.8795196000000001 0.38509830000000006
v -1.0574316000000001 -0.8795196000000001 0.38509830000000006
v -1.0707236999999998 -0.8657397 0.3399921000000001
v -1.0763064 -0.8799651000000001 0.4634118000000001
v -1.0687455 -0.8735112 0.38971620000000007
v -1.0669491000000002 -0.8831484000000001 0.3868344
v -1.0798695 -0.8648505000000001 0.35015940000000007
v -1.0804383000000002 -0.8750052 0.3527676
v -0.432801 -0.6307541999999999 0.5327271
v -0.4322907 -0.6256224 0.45085319999999995
v -0.44835569999999997 -0.6221844000000001 0.45501210000000003
v -0.4641642 -0.6134742 0.42135300000000003
v -0.4322907 -0.6256224 0.45085319999999995
v -0.4322907 -0.6256224 0.45085319999999995
v -0.45173880000000005 -0.6119739 0.4123143000000001
v -0.5406615 -0.9840168000000001 6.025365122136107e-17
v -0.5500116 -0.9818612999999999 0.48436740000000017
v -0.5563467000000001 -0.9706634999999999 0.47993220000000014
v -0.5563467000000001 -0.9706634999999999 0.47993220000000014
v -0.5538231 -0.9775629000000001 5.985846382251021e-17
v -0.5418837 -0.9682506 5.928824990312521e-17
v -0.5469741 -0.9656505000000001 0.4655178000000001
v -0.5500116 -0.9818612999999999 0.48436740000000017
v -0.5406615 -0.9840168000000001 6.025365122136107e-17
v -0.5418837 -0.9682506 5.928824990312521e-17
v -0.06460199999999999 -0.9712953000000001 5.947468400859341e-17
v -0.0604746 -0.969849 0.4665708000000001
v -0.0529866 -0.9790452000000001 0.46240200000000015
v -0.0506169 -0.9742743 5.965709514932641e-17
v -0.06460199999999999 -0.9712953000000001 5.947468400859341e-17
v -0.06196140000000001 -0.98613 6.038304740215896e-17
v -0.06196140000000001 -0.9861291 0.44861670000000003
v -0.0604746 -0.969849 0.4665708000000001
v -0.06460199999999999 -0.9712953000000001 5.947468400859341e-17
v -0.06196140000000001 -0.98613 6.038304740215896e-17
v -0.058207499999999995 -0.3737223 2.2883890923249342e-17
v -0.0546831 -0.41577299999999995 0.565659
v -0.0672876 -0.40756679999999995 0.5781069000000001
v -0.0745074 -0.3659886 2.241033837572105e-17
v -0.058207499999999995 -0.3737223 2.2883890923249342e-17
v -0.059913900000000006 -0.354321 2.1695903926034466e-17
v -0.0563895 -0.39637079999999997 0.565659
v -0.0546831 -0.41577299999999995 0.565659
v -0.058207499999999995 -0.3737223 2.2883890923249342e-17
v -0.059913900000000006 -0.354321 2.1695903926034466e-17
v -0.5426883 -0.9727605 0.6364908
v -0.5248908 -0.9658017 0.5278203000000001
v -0.539811 -0.9674874 0.5343237000000002
v -0.5563467000000001 -0.9706634999999999 0.47993220000000014
v -0.5248908 -0.9658017 0.5278203000000001
v -0.5248908 -0.9658017 0.5278203000000001
v -0.5469741 -0.9656505000000001 0.4655178000000001
v -0.0255051 -0.4022496 0.7314921
v -0.0284931 -0.39626729999999993 0.6187356
v -0.0462276 -0.40488659999999993 0.6244623
v -0.0672876 -0.40756679999999995 0.5781069000000001
v -0.0284931 -0.39626729999999993 0.6187356
v -0.0284931 -0.39626729999999993 0.6187356
v -0.0563895 -0.39637079999999997 0.565659
v -0.8182683 0.9830538 -6.019468447798212e-17
v -0.8309259000000001 1.0066248 0.35276759999999996
v -0.8209926 1.0044396 0.35015939999999995
v -0.8209926 1.0044396 0.35015939999999995
v -0.8069670000000001 0.9876708000000001 -6.047739419156529e-17
v -0.8091234 0.9755424 -5.973474387962635e-17
v -0.8233326000000001 0.9955530000000001 0.33999209999999996
v -0.8309259000000001 1.0066248 0.35276759999999996
v -0.8182683 0.9830538 -6.019468447798212e-17
v -0.8091234 0.9755424 -5.973474387962635e-17
v -1.0749672 0.6854337 -4.197070933663636e-17
v -1.0766538 0.6821649 0.3309804
v -1.0860426 0.6824412000000001 0.32795279999999993
v -1.0849023 0.6784947 -4.154581812967218e-17
v -1.0749672 0.6854337 -4.197070933663636e-17
v -1.0844829 0.6916185 -4.234941911280468e-17
v -1.0844829 0.6916176 0.3179429999999999
v -1.0766538 0.6821649 0.3309804
v -1.0749672 0.6854337 -4.197070933663636e-17
v -1.0844829 0.6916185 -4.234941911280468e-17
v -0.7942509 0.4052961 -2.4817228578595278e-17
v -0.8324892 0.40369140000000003 0.4123143
v -0.8205785999999999 0.40704570000000007 0.421353
v -0.78039 0.4111443 -2.5175327549133955e-17
v -0.7942509 0.4052961 -2.4817228578595278e-17
v -0.782847 0.3961449 -2.425687918917742e-17
v -0.8210844 0.39454020000000006 0.4123143
v -0.8324892 0.40369140000000003 0.4123143
v -0.7942509 0.4052961 -2.4817228578595278e-17
v -0.782847 0.3961449 -2.425687918917742e-17
v -0.8364834 1.003338 0.4634117999999999
v -0.839061 0.9846351 0.38509829999999995
v -0.831321 0.9948429 0.38971619999999996
v -0.8209926 1.0044396 0.35015939999999995
v -0.839061 0.9846351 0.38509829999999995
v -0.839061 0.9846351 0.38509829999999995
v -0.8233326000000001 0.9955530000000001 0.33999209999999996
v -0.8364834 1.003338 0.4634117999999999
v -0.831321 0.9948429 0.38971619999999996
v -0.841122 0.9946107000000001 0.3868343999999999
v -0.8209926 1.0044396 0.35015939999999995
v -0.8309259000000001 1.0066248 0.35276759999999996
v -0.8426511 0.3788487000000001 0.5327271
v -0.8376669000000001 0.37752480000000005 0.45085319999999995
v -0.8317035 0.39283380000000007 0.45501210000000003
v -0.8205785999999999 0.40704570000000007 0.421353
v -0.8376669000000001 0.37752480000000005 0.45085319999999995
v -0.8376669000000001 0.37752480000000005 0.45085319999999995
v -0.8210844 0.39454020000000006 0.4123143
v -0.8931897 -0.2575188 0.035977500000000016
v -0.9091989 -0.2866374 0.03698460000000002
v -0.9151794000000001 -0.3020598 0.0001278000000000185
v -0.9418347 -0.2837484 0.04916970000000002
v -0.8931897 -0.2575188 0.035977500000000016
v -0.9403173 -0.23539050000000003 0.03206430000000001
v -0.8883765 -0.25780590000000003 0.0001278000000000158
v -0.9151794000000001 -0.3020598 0.0001278000000000185
v -0.8883765 -0.25780590000000003 0.0001278000000000158
v -0.9490023 -0.22929390000000002 0.00012780000000001406
v -0.9403173 -0.23539050000000003 0.03206430000000001
v -0.9531864000000001 -0.2770299 0.00012780000000001696
v -0.9418347 -0.2837484 0.04916970000000002
v -0.9418347 -0.2837484 0.04916970000000002
v -0.9403173 -0.23539050000000003 0.03206430000000001
v -0.9531864000000001 -0.2770299 0.00012780000000001696
v -0.9151794000000001 -0.3020598 0.0001278000000000185
v -0.9091989 -0.2866374 0.03698460000000002
v -0.9091989 -0.2866374 0.03698460000000002
v -0.9418347 -0.2837484 0.04916970000000002
v -0.9367074 -0.283086 0.07039350000000003
v -0.9353330999999999 -0.3458394 0.08921340000000003
v -0.9101628 -0.3532788 -0.00004589999999997837
v -0.9291708000000001 -0.2738088 -0.00004589999999998323
v -0.9367074 -0.283086 0.07039350000000003
v 0.26185050000000004 1.158831 0.04991309999999993
v 0.28923930000000003 1.2047625 0.053932499999999925
v 0.2900205 1.2096531 -7.406988984968366e-17
v 0.2547396 1.1505708000000001 -7.045214237062048e-17
v 0.26185050000000004 1.158831 0.04991309999999993
v 0.3031101 1.1414619000000001 -6.989438310918281e-17
v 0.3111255 1.1523851999999999 0.03785669999999994
v 0.3111255 1.1523851999999999 0.03785669999999994
v 0.26185050000000004 1.158831 0.04991309999999993
v 0.31777289999999997 1.1511081 0.10315169999999993
v 0.4094199 1.1440548 0.13071149999999992
v 0.4238937 1.1796615 -7.223343400261827e-17
v 0.3053421 1.16343 -7.123954127660025e-17
v 0.31777289999999997 1.1511081 0.10315169999999993
v -0.1071765 -0.2234808 1.3684252319544492e-17
v 0.0402444 -0.3011922 1.8442703182907476e-17
v 0.0307044 -0.271584 0.07089030000000002
v 0.0307044 -0.271584 0.07089030000000002
v -0.078363 -0.2117565 0.07089030000000002
v 0.462609 0.22504860000000002 -1.3780252382129653e-17
v 0.4914369 0.15061860000000005 0.7290396
v 0.4630608 0.11329200000000005 0.7215129
v 0.4630608 0.11329200000000005 0.7215129
v 0.4334652 0.1869741 -1.1448861654422857e-17
v 0.4224717 0.2512791 -1.5386407275381384e-17
v 0.45186390000000004 0.17670420000000006 0.731979
v 0.4914369 0.15061860000000005 0.7290396
v 0.462609 0.22504860000000002 -1.3780252382129653e-17
v 0.4224717 0.2512791 -1.5386407275381384e-17
v 0.3933279 0.2132037 -1.3054961438568628e-17
v 0.4234887 0.13937760000000005 0.7244532
v 0.45186390000000004 0.17670420000000006 0.731979
v 0.4224717 0.2512791 -1.5386407275381384e-17
v 0.3933279 0.2132037 -1.3054961438568628e-17
v 1.1665017000000002 -0.1509048 9.240254014798575e-18
v 1.1773539 -0.1024038 6.270424294526286e-18
v 1.1026008 -0.12738869999999997 0.7301538
v 1.0903562999999998 -0.17577359999999995 0.7318026
v 1.1665017000000002 -0.1509048 9.240254014798575e-18
v -0.432801 -0.6307541999999999 0.5327271
v -0.44835569999999997 -0.6221844000000001 0.45501210000000003
v -0.4369662 -0.6338727000000001 0.45085319999999995
v -0.45894870000000004 -0.6246945 0.4123143000000001
v -0.4369662 -0.6338727000000001 0.45085319999999995
v -0.4641642 -0.6134742 0.42135300000000003
v -0.45894870000000004 -0.6246945 0.4123143000000001
v -0.0255051 -0.4022496 0.7314921
v -0.0462276 -0.40488659999999993 0.6244623
v -0.0273861 -0.40885109999999997 0.6187356
v -0.0546831 -0.41577299999999995 0.565659
v -0.0273861 -0.40885109999999997 0.6187356
v -0.0672876 -0.40756679999999995 0.5781069000000001
v -0.0546831 -0.41577299999999995 0.565659
v -0.8426511 0.3788487000000001 0.5327271
v -0.8317035 0.39283380000000007 0.45501210000000003
v -0.8450631 0.38345940000000006 0.45085319999999995
v -0.8324892 0.40369140000000003 0.4123143
v -0.8450631 0.38345940000000006 0.45085319999999995
v -0.8205785999999999 0.40704570000000007 0.421353
v -0.8324892 0.40369140000000003 0.4123143
v -0.1161954 -0.8932428 5.4695346794070975e-17
v -0.0462645 -0.954018 5.841675450144798e-17
v -0.0402867 -0.9379404000000001 0.07435620000000007
v -0.0402867 -0.9379404000000001 0.07435620000000007
v -0.08219699999999999 -0.8976618000000001 0.07435620000000005
v -0.057671099999999996 -0.8216676 5.031262981515439e-17
v -0.0010305 -0.8538912 0.07435620000000005
v -0.0402867 -0.9379404000000001 0.07435620000000007
v -0.0046575 -0.9022635000000001 0.08709390000000004
v -0.0402867 -0.9379404000000001 0.07435620000000007
v -0.0462645 -0.954018 5.841675450144798e-17
v 0.009288 -0.9231111000000001 5.652425269361961e-17
v 0.629748 -1.2616335 0.13463550000000007
v 0.6258852 -1.2018168 0.1959633000000001
v 0.5781105000000001 -1.1617866000000001 0.17555220000000007
v 0.5700447000000001 -1.2376332 0.09371880000000007
v 0.629748 -1.2616335 0.13463550000000007
v 0.5792679 -1.1833389 0.09371880000000007
v 0.565245 -1.1768004 7.205824215476624e-17
v 0.5697261 -1.2257766 7.505716948298628e-17
v 0.6261858 -1.283346 7.858227855492796e-17
v 0.629748 -1.2616335 0.13463550000000007
v 0.629748 -1.2616335 0.13463550000000007
v 0.7309188 -1.2443508 7.619451121182241e-17
v 0.6499107 -1.1537253 0.17555220000000007
v 0.6258852 -1.2018168 0.1959633000000001
v 0.6942510000000001 -1.178361 0.09371880000000007
v 0.7355745 -1.1414619000000001 6.989438310918281e-17
v 0.6803118 -1.1047095 6.764394765813366e-17
v -0.9925245 -0.3727152 -0.00004589999999997718
v -0.9101628 -0.3532788 -0.00004589999999997837
v -0.9353330999999999 -0.3458394 0.08921340000000003
v -0.9353330999999999 -0.3458394 0.08921340000000003
v -0.9928089 -0.36642420000000003 0.07987050000000002
v -0.9959948999999999 -0.31159620000000005 0.05625360000000003
v -1.0088181 -0.3069279 -0.00004589999999998121
v -0.9291708000000001 -0.2738088 -0.00004589999999998323
v -0.9928089 -0.36642420000000003 0.07987050000000002
v -0.9367074 -0.283086 0.07039350000000003
v -0.9353330999999999 -0.3458394 0.08921340000000003
v 0.332541 1.1777778 -7.211809064384059e-17
v 0.2900205 1.2096531 -7.406988984968366e-17
v 0.28923930000000003 1.2047625 0.053932499999999925
v 0.26185050000000004 1.158831 0.04991309999999993
v 0.3111255 1.1523851999999999 0.03785669999999994
v 0.3173823 1.1854512 0.03785669999999993
v 0.332541 1.1777778 -7.211809064384059e-17
v 0.3031101 1.1414619000000001 -6.989438310918281e-17
v 0.332541 1.1777778 -7.211809064384059e-17
v 0.3111255 1.1523851999999999 0.03785669999999994
v 0.4403322 1.0568331 -6.471236365739873e-17
v 0.4238937 1.1796615 -7.223343400261827e-17
v 0.4094199 1.1440548 0.13071149999999992
v 0.4094199 1.1440548 0.13071149999999992
v 0.4311234 1.0573272 0.11702969999999993
v 0.3507651 1.0605951 0.08244449999999995
v 0.3421116 1.0425825 -6.383976607360227e-17
v 0.3053421 1.16343 -7.123954127660025e-17
v 0.4311234 1.0573272 0.11702969999999993
v 0.31777289999999997 1.1511081 0.10315169999999993
v 0.4094199 1.1440548 0.13071149999999992
v -0.0645687 -0.9988911 0.49772700000000014
v -0.05689349999999999 -0.318141 0.6312618
v -0.6259760999999999 -0.3368672999999999 0.6212880000000001
v -0.5527863 -0.9831546000000001 0.5240601
v -1.0897605 0.6999048 0.3536028
v -0.7813097999999999 0.3561273000000001 0.4572531
v -0.4495329 0.7096086 0.45270720000000003
v -0.8315397 1.0105362000000002 0.38143979999999994
v -1.0393002 -0.47430360000000005 0.22506840000000009
v -1.0564695000000002 -0.468576 2.869200492786351e-17
v -0.8829576 -0.3310317 2.0269845591065343e-17
v -0.8845983 -0.3333825 0.22506840000000003
v -0.8847675 -0.3330324 0.22506840000000003
v -0.8831205000000001 -0.3306951 2.0249234785435696e-17
v -1.0566369 -0.46823040000000005 2.867084303117425e-17
v -1.0394946 -0.4739022 0.22506840000000009
v -0.8796024 -0.3261816 1.9972862619038118e-17
v -0.8847675 -0.3330324 0.22506840000000003
v -0.7441245000000001 -0.3685185 0.22506840000000003
v -0.7279452 -0.34416 2.1073722119727657e-17
v -0.7439796000000001 -0.3688182 0.22506840000000003
v -0.8845983 -0.3333825 0.22506840000000003
v -0.8794521 -0.326493 1.999193036970084e-17
v -0.7277589000000001 -0.3445452 2.1097308817079232e-17
v -0.0822735 -0.3454641 0.20522520000000002
v -0.1511631 -0.7884243 0.20293110000000006
v -0.14656049999999998 -0.7743258 4.741378062336068e-17
v -0.0975456 -0.3418659 2.0933249008631458e-17
v -0.0824715 -0.3454794 0.20522520000000002
v -0.09792089999999999 -0.3418938 2.0934957390916268e-17
v -0.1469934 -0.7742456999999999 4.740887591293009e-17
v -0.1514871 -0.7883631000000001 0.20293110000000006
v -1.053243 -0.8485137 5.195647933688387e-17
v -1.0655604 -0.8483238000000001 5.1944851315525974e-17
v -1.0798695 -0.8648505000000001 0.35015940000000007
v -1.0707236999999998 -0.8657397 0.3399921000000001
v -0.7749774 -1.0727541 6.568724374185998e-17
v -0.7619562 -1.0710702 6.558413460460577e-17
v -0.7656687000000001 -1.0728261000000001 0.32795280000000004
v -0.7749774 -1.0727541 0.31794300000000003
v -0.45943649999999997 -0.5744853000000001 3.517707919011035e-17
v -0.4746366 -0.5744583000000001 3.51754259169315e-17
v -0.4641642 -0.6134742 0.42135300000000003
v -0.45173880000000005 -0.6119739 0.4123143000000001
v -0.5418837 -0.9682506 5.928824990312521e-17
v -0.5538231 -0.9775629000000001 5.985846382251021e-17
v -0.5563467000000001 -0.9706634999999999 0.47993220000000014
v -0.5469741 -0.9656505000000001 0.4655178000000001
v -0.06196140000000001 -0.98613 6.038304740215896e-17
v -0.0506169 -0.9742743 5.965709514932641e-17
v -0.0529866 -0.9790452000000001 0.46240200000000015
v -0.06196140000000001 -0.9861291 0.44861670000000003
v -0.059913900000000006 -0.354321 2.1695903926034466e-17
v -0.0745074 -0.3659886 2.241033837572105e-17
v -0.0672876 -0.40756679999999995 0.5781069000000001
v -0.0563895 -0.39637079999999997 0.565659
v -0.7841016000000001 0.3376665 0.2052252
v -0.7595289000000001 0.3242394 -1.9853937168372913e-17
v -1.0788389999999999 0.6811479 -4.1708279774047075e-17
v -1.0796192999999998 0.6859521 0.20293109999999998
v -0.7842536999999999 0.3375459 0.2052252
v -1.0798344 0.6856974 0.20293109999999998
v -1.0791342000000002 0.6808167 -4.1687999623053197e-17
v -0.7598358 0.32403150000000003 -1.984120696489578e-17
v -0.46872720000000007 0.7145478000000001 0.20522519999999997
v -0.8193843 0.9938303999999999 0.20293109999999998
v -0.8094177 0.9828486000000001 -6.018211960182288e-17
v -0.45803520000000003 0.7260318 -4.445662599745957e-17
v -0.4686426 0.7147269 0.20522519999999997
v -0.45787500000000003 0.7263711 -4.44774021304071e-17
v -0.8091332999999999 0.9831843 -6.020267529834655e-17
v -0.8191710000000001 0.9940824 0.20293109999999998
v -0.8190288 0.9920249999999999 0.19652489999999995
v -1.0785078000000001 0.6843213 0.20856239999999995
v -1.0830051 0.6852456 -4.195919153349038e-17
v -0.8116371 0.9840834 -6.025772929520223e-17
v -0.8192052000000001 0.992115 0.19652489999999995
v -0.8119710000000001 0.9842562 -6.026831024354686e-17
v -1.0833309 0.6855417 -4.197732242935175e-17
v -1.0787517 0.6845427000000001 0.20856239999999995
v -0.8091234 0.9755424 -5.973474387962635e-17
v -0.8069670000000001 0.9876708000000001 -6.047739419156529e-17
v -0.8209926 1.0044396 0.35015939999999995
v -0.8233326000000001 0.9955530000000001 0.33999209999999996
v -1.0844829 0.6916185 -4.234941911280468e-17
v -1.0849023 0.6784947 -4.154581812967218e-17
v -1.0860426 0.6824412000000001 0.32795279999999993
v -1.0844829 0.6916176 0.3179429999999999
v -0.782847 0.3961449 -2.425687918917742e-17
v -0.78039 0.4111443 -2.5175327549133955e-17
v -0.8205785999999999 0.40704570000000007 0.421353
v -0.8210844 0.39454020000000006 0.4123143
v -1.1685861000000002 0.32752800000000004 0.2718711
v -0.9808730999999999 0.17783730000000003 0.229248
v -1.0099449 0.14994180000000001 -9.18128727141963e-18
v -1.1391875999999999 0.3509874 -2.1491779797552588e-17
v -1.1687706 0.3272715 0.2718711
v -1.1394126 0.3506733 -2.147254671957198e-17
v -1.0102212000000002 0.14955659999999998 -9.157700574068052e-18
v -0.9810188999999999 0.1776339 0.229248
v -0.40551570000000003 1.1520576 0.2718710999999999
v -0.2809755 0.9404253000000001 0.23529149999999993
v -0.3210309 0.9270603000000001 -5.676607145057925e-17
v -0.3996009 1.1284884 -6.90999853467459e-17
v -0.4057749 1.1518767 0.2718710999999999
v -0.3999177 1.1282670000000001 -6.908642850667934e-17
v -0.3214188 0.9267894 -5.67494836096848e-17
v -0.2811798 0.9402822000000001 0.23529149999999993
v 0.6888356999999999 1.0977498 0.2718710999999999
v 0.4539735 1.1041362 0.22924799999999995
v 0.46989450000000005 1.1328777 -6.936875245652077e-17
v 0.6891867 1.0605195 -6.493809055541757e-17
v 0.6888069000000001 1.0980648000000002 0.2718710999999999
v 0.6891507 1.0609038 -6.496162214366319e-17
v 0.4698513 1.1333493000000001 -6.939762962804466e-17
v 0.45395009999999997 1.1043846 0.22924799999999995
v 0.65025 -1.1108718 0.8315928000000001
v 0.0257319 -0.8083493999999999 0.8315937
v 0.0257328 -0.8083485 0.681921
v 0.6503049000000001 -1.1107755 0.6819210000000001
v 0.6504138 -1.1105874 0.8315928000000001
v 0.6503589 -1.1106828 0.6819210000000001
v 0.025839900000000002 -0.8081631 0.681921
v 0.0258408 -0.8081613 0.8315937
v 0.6593481 -0.9808929000000001 0.8243226000000001
v 0.8499528000000001 -1.0822248 6.626715686389423e-17
v 0.9558369 -0.8551548 5.236312942977475e-17
v 0.7556949000000001 -0.7742771999999999 0.8243226
v 0.4727025000000001 -1.2823245 0.2644173000000001
v 0.5579901 -1.0993941 0.2644173
v 0.5600574 -1.0887687000000001 6.666785517334125e-17
v 0.48426749999999996 -1.2515148 7.663317969527699e-17
v 0.2292183 -1.1577645 0.2644173
v 0.24532650000000003 -1.1290779000000002 6.913608181115077e-17
v 0.32550930000000006 -0.9599256 5.877849067298013e-17
v 0.3188277 -0.9683945999999999 0.2644173
v 0.2160135 -1.138401 0.2644173
v 0.49953869999999995 -1.2706614 0.2644173000000001
v 0.5140944 -1.2337803 7.554725476230306e-17
v 0.2305548 -1.101564 6.745134133279774e-17
v 0.4728951 -1.2824181000000001 0.2644173000000001
v 0.48455820000000005 -1.251657 7.664188693401894e-17
v 0.560511 -1.0889901 6.66814120134078e-17
v 0.5582061 -1.0994994 0.2644173
v 0.229041 -1.1577330000000001 0.2644173
v 0.3186765 -0.9683676 0.2644173
v 0.32537340000000003 -0.9599013 5.877700272711917e-17
v 0.24516810000000003 -1.1290491 6.913431831976001e-17
v 0.2159226 -1.1386728000000002 0.2644173
v 0.230481 -1.1017845 6.746484306375836e-17
v 0.5140206 -1.2340008000000002 7.556075649326368e-17
v 0.4994775 -1.2708459 0.2644173000000001
v 1.2359780999999999 0.31440419999999997 -1.925170485842421e-17
v 1.1326509 -0.1096011 6.7111318149014494e-18
v 1.1326923000000002 -0.10962539999999998 0.22506840000000003
v 1.2030921 0.3431448 0.22506840000000003
v 1.1329803 -0.10979099999999999 0.22506840000000003
v 1.1330217 -0.1098153 6.724247782120318e-18
v 1.2362058 0.3142737 -1.9243714038059776e-17
v 1.2034782000000002 0.3429216 0.22506840000000003
v 1.1004039 0.7545042000000001 -4.620005767366172e-17
v 1.2359780999999999 0.31440419999999997 -1.925170485842421e-17
v 1.2030921 0.3431448 0.22506840000000003
v 1.0958553 0.7700165999999999 0.22376159999999998
v 1.2034782000000002 0.3429216 0.22506840000000003
v 1.2362058 0.3142737 -1.9243714038059776e-17
v 1.1008413000000001 0.7542513000000001 -4.6184572014886506e-17
v 1.0960974 0.7695693 0.22376159999999998
v 0.19283760000000003 -0.9944343 0.3482874000000001
v 0.1663002 -0.981567 0.34792200000000006
v 0.14068799999999998 -1.0737729 -0.0038969999999999344
v 0.1733499 -1.0883718000000002 -0.002213099999999933
v 0.0237663 -1.037493 -0.009443699999999937
v 0.0431676 -1.0597419000000001 -0.0034793999999999355
v 0.1430199 -0.9816363000000001 0.20389590000000005
v 0.11686229999999999 -0.9658080000000001 0.21007170000000006
v -0.0135306 -0.8656425000000001 0.6870078000000001
v -0.0904437 -0.8883459 5.4395498148533746e-17
v 0.6352731 -1.2267531 7.511696286295465e-17
v 0.6029505000000001 -1.1531114999999998 0.6870726000000001
v 0.6161283 0.17066070000000003 0.00551159999999999
v 0.5637537 0.0583425 0.005511599999999997
v 0.7862022 -0.045387000000000004 0.005511600000000004
v 0.8385768 0.0669303 0.005511599999999997
v 1.074267 -0.14237099999999994 0.6870726
v 0.6029505000000001 -1.1531114999999998 0.6870726000000001
v 0.6352731 -1.2267531 7.511696286295465e-17
v 1.1514555000000002 -0.1197972 7.335462876340766e-18
v 0.8581653 0.13334310000000002 0.1357695
v 0.8299449 0.04752810000000001 0.1357695
v 1.1259594 -0.04981769999999999 0.1357695
v 1.1541798 0.03599820000000001 0.1357695
v -0.0904437 -0.8883459 5.4395498148533746e-17
v -0.0135306 -0.8656425000000001 0.6870078000000001
v 0.45778589999999997 0.14509890000000006 0.6870078
v 0.4257387 0.2186109 -1.3386056947186105e-17
v 0.45186390000000004 0.17670420000000006 0.731979
v 0.4234887 0.13937760000000005 0.7244532
v 0.4630608 0.11329200000000005 0.7215129
v 0.4914369 0.15061860000000005 0.7290396
v 0.4334652 0.1869741 -1.1448861654422857e-17
v 0.4630608 0.11329200000000005 0.7215129
v 0.4234887 0.13937760000000005 0.7244532
v 0.3933279 0.2132037 -1.3054961438568628e-17
v 1.0580247 -0.10940129999999995 0.7216893
v 1.0457811000000001 -0.15778619999999996 0.7233390000000001
v 1.0903562999999998 -0.17577359999999995 0.7318026
v 1.1026008 -0.12738869999999997 0.7301538
v 1.1773539 -0.1024038 6.270424294526286e-18
v 1.1333682 -0.084159 5.153252498472105e-18
v 1.0580247 -0.10940129999999995 0.7216893
v 1.1026008 -0.12738869999999997 0.7301538
v 1.1225159999999998 -0.13266 8.123082218744395e-18
v 1.1665017000000002 -0.1509048 9.240254014798575e-18
v 1.0903562999999998 -0.17577359999999995 0.7318026
v 1.0457811000000001 -0.15778619999999996 0.7233390000000001
v 0.45778589999999997 0.14509890000000006 0.6870078
v -0.0135306 -0.8656425000000001 0.6870078000000001
v 0.6029505000000001 -1.1531114999999998 0.6870726000000001
v 1.074267 -0.14237099999999994 0.6870726
v -1.0394946 -0.4739022 0.22506840000000009
v -1.0566369 -0.46823040000000005 2.867084303117425e-17
v -1.1314377 -0.6677460000000001 4.088765007717243e-17
v -1.1129733 -0.6681267 0.22441500000000003
v -1.0627704 -0.8637066 5.288677615462217e-17
v -1.067994 -0.8692542 0.22376160000000006
v -0.8780715 -0.3294441 2.0172633128149028e-17
v -0.8856 -0.3200193 1.959553057051883e-17
v -0.891531 -0.3171114 0.36902789999999996
v -0.8898111 -0.32404679999999997 0.3939048
v -0.9053378999999999 -0.31738859999999997 0.5078322000000001
v -0.5982165 -0.40662810000000005 2.4898790055418496e-17
v -0.6118218000000001 -0.4021569 2.462500801700111e-17
v -0.619479 -0.4035546 0.5060448
v -0.6131304 -0.40978259999999994 0.5403051
v -0.6325308000000001 -0.4144824 0.6972056999999999
v -0.5370795 0.7519716000000001 -4.6044980649485696e-17
v -0.5265711000000001 0.7578954 -4.6407708784925145e-17
v -0.5227524 0.7632855000000001 0.36902789999999996
v -0.5298732 0.762696 0.39390479999999994
v -0.5208183 0.7769592000000001 0.5078322000000001
v 0.2882745 0.2382858 -1.459079711261332e-17
v 0.26152380000000003 0.22800240000000002 0.07089029999999999
v 0.1477602 -0.007140599999999995 0.0708903
v 0.1539423 -0.0551952 3.3797312504149e-18
v 0.1105506 -0.081945 0.0708903
v 0.0402444 -0.3011922 1.8442703182907476e-17
v 0.0307044 -0.271584 0.07089030000000002
v 0.16281720000000002 0.2689452 0.07089029999999999
v 0.1534986 0.2960469 -1.8127644424124828e-17
v 0.0181089 0.047028600000000004 -2.8796712229190607e-18
v 0.0395622 0.038026800000000006 0.0708903
v -0.0169092 -0.0234783 1.4376312472210652e-18
v 0.004491 -0.03247559999999999 0.0708903
v -0.078363 -0.2117565 0.07089030000000002
v -0.1071765 -0.2234808 1.3684252319544492e-17
v 1.1514555000000002 -0.1197972 7.335462876340766e-18
v 0.8228772 0.0334215 -2.0464766498851634e-18
v 1.074267 -0.14237099999999994 0.6870726
v 0.4257387 0.2186109 -1.3386056947186105e-17
v 0.45778589999999997 0.14509890000000006 0.6870078
v -0.9472239 -0.9683685000000001 0.36880920000000006
v -0.7823142 -1.0792881 0.35360280000000005
v -0.4201803 -0.566568 0.4572531
v -0.6500592000000001 -0.4107789 0.4548888
v -1.084203 -0.8762364 0.38143980000000005
v -0.8622729 -0.2669625 0.45270720000000003
v -1.1129012999999999 -0.6685803 0.22441500000000003
v -1.0680444000000002 -0.8697609 0.22376160000000006
v -1.0625508000000001 -0.8641611 5.2914606253132785e-17
v -1.1312703 -0.6680916 4.0908811973861694e-17
v -1.0393002 -0.47430360000000005 0.22506840000000009
v -1.0565225999999999 -0.46846620000000005 2.8685281616936194e-17
v -0.8970435 -0.3271428 0.36902789999999996
v -0.8911125000000001 -0.3300498 2.0209721556461205e-17
v -0.8780715 -0.3294441 2.0172633128149028e-17
v -0.8898111 -0.32404679999999997 0.3939048
v -0.9053378999999999 -0.31738859999999997 0.5078322000000001
v -1.0763064 -0.8799651000000001 0.4634118000000001
v -1.0669491000000002 -0.8831484000000001 0.3868344
v -1.0574316000000001 -0.8795196000000001 0.38509830000000006
v -1.0707236999999998 -0.8657397 0.3399921000000001
v -1.0804383000000002 -0.8750052 0.3527676
v -0.432801 -0.6307541999999999 0.5327271
v -0.4369662 -0.6338727000000001 0.45085319999999995
v -0.4322907 -0.6256224 0.45085319999999995
v -0.45173880000000005 -0.6119739 0.4123143000000001
v -0.45894870000000004 -0.6246945 0.4123143000000001
v -0.6179679 -0.41872139999999997 0.5060448
v -0.6103107000000001 -0.4173237 2.5553706670666514e-17
v -0.5982165 -0.40662810000000005 2.4898790055418496e-17
v -0.6131304 -0.40978259999999994 0.5403051
v -0.6325308000000001 -0.4144824 0.6972056999999999
v -0.5426883 -0.9727605 0.6364908
v -0.5315589 -0.976869 0.5310432000000002
v -0.5248908 -0.9658017 0.5278203000000001
v -0.5469741 -0.9656505000000001 0.4655178000000001
v -0.5500116 -0.9818612999999999 0.48436740000000017
v -0.0255051 -0.4022496 0.7314921
v -0.0273861 -0.40885109999999997 0.6187356
v -0.0284931 -0.39626729999999993 0.6187356
v -0.0563895 -0.39637079999999997 0.565659
v -0.0546831 -0.41577299999999995 0.565659
v -0.5317731 0.7703307 0.36902789999999996
v -0.5355918000000001 0.7649415 -4.683915797549876e-17
v -0.5370795 0.7519716000000001 -4.6044980649485696e-17
v -0.5298732 0.762696 0.39390479999999994
v -0.5208183 0.7769592000000001 0.5078322000000001
v -0.8364834 1.003338 0.4634117999999999
v -0.841122 0.9946107000000001 0.3868343999999999
v -0.839061 0.9846351 0.38509829999999995
v -0.8233326000000001 0.9955530000000001 0.33999209999999996
v -0.8309259000000001 1.0066248 0.35276759999999996
v -0.8426511 0.3788487000000001 0.5327271
v -0.8450631 0.38345940000000006 0.45085319999999995
v -0.8376669000000001 0.37752480000000005 0.45085319999999995
v -0.8210844 0.39454020000000006 0.4123143
v -0.8324892 0.40369140000000003 0.4123143
v 0.004491 -0.03247559999999999 0.0708903
v -0.078363 -0.2117565 0.07089030000000002
v 0.0307044 -0.271584 0.07089030000000002
v 0.1105506 -0.081945 0.0708903
v 0.0395622 0.038026800000000006 0.0708903
v 0.1477602 -0.007140599999999995 0.0708903
v 0.16281720000000002 0.2689452 0.07089029999999999
v 0.26152380000000003 0.22800240000000002 0.07089029999999999
v -0.31418280000000004 1.1899422 -7.286294532001798e-17
v -0.3085578 1.1233737000000001 0.037322099999999934
v -0.28177830000000004 1.1025351 -6.751080405813035e-17
v -0.3873807 1.146348 -7.01935704454485e-17
v -0.3839265 1.0661256000000001 -6.528136517645258e-17
v -0.28177830000000004 1.1025351 -6.751080405813035e-17
vt 0.701332 0.063979
vt 0.789255 0.063979
vt 0.789179 0.070493
vt 0.789179 0.070493
vt 0.701255 0.070493
vt 0.701332 0.063979
vt 0.789179 0.070493
vt 0.789255 0.063979
vt 0.827409 0.069403
vt 0.847111 0.010719
vt 0.839046 0.011312
vt 0.839392 0.004917
vt 0.828251 0.040079
vt 0.811464 0.032158
vt 0.815219 0.022045
vt 0.828251 0.040079
vt 0.814219 0.056554
vt 0.812292 0.044407
vt 0.828251 0.040079
vt 0.812292 0.044407
vt 0.811464 0.032158
vt 0.701332 0.063979
vt 0.789255 0.063979
vt 0.789179 0.070493
vt 0.789179 0.070493
vt 0.701255 0.070493
vt 0.701332 0.063979
vt 0.789179 0.070493
vt 0.789255 0.063979
vt 0.827409 0.069403
vt 0.816376 0.012518
vt 0.839392 0.004917
vt 0.839046 0.011312
vt 0.847111 0.010719
vt 0.839046 0.011312
vt 0.839392 0.004917
vt 0.839392 0.004917
vt 0.844996 0.002270
vt 0.847111 0.010719
vt 0.787620 0.024649
vt 0.799323 0.037587
vt 0.781462 0.031471
vt 0.788544 0.053961
vt 0.789179 0.044713
vt 0.799323 0.037587
vt 0.799323 0.037587
vt 0.789179 0.044713
vt 0.781462 0.031471
vt 0.828251 0.040079
vt 0.811464 0.032158
vt 0.815219 0.022045
vt 0.828251 0.040079
vt 0.814219 0.056554
vt 0.812292 0.044407
vt 0.828251 0.040079
vt 0.812292 0.044407
vt 0.811464 0.032158
vt 0.701332 0.063979
vt 0.789255 0.063979
vt 0.789179 0.070493
vt 0.789179 0.070493
vt 0.701255 0.070493
vt 0.701332 0.063979
vt 0.789179 0.070493
vt 0.789255 0.063979
vt 0.827409 0.069403
vt 0.847111 0.010719
vt 0.839046 0.011312
vt 0.839392 0.004917
vt 0.828251 0.040079
vt 0.811464 0.032158
vt 0.815219 0.022045
vt 0.828251 0.040079
vt 0.814219 0.056554
vt 0.812292 0.044407
vt 0.828251 0.040079
vt 0.812292 0.044407
vt 0.811464 0.032158
vt 0.251072 0.000087
vt 0.292182 -0.000593
vt 0.291845 0.039816
vt 0.291845 0.039816
vt 0.251194 0.037982
vt 0.251072 0.000087
vt 0.002551 0.187211
vt 0.002550 0.167780
vt 0.141058 0.167777
vt 0.141058 0.167777
vt 0.141039 0.187215
vt 0.002551 0.187211
vt 0.700440 0.024558
vt 0.788522 0.024558
vt 0.788522 0.039088
vt 0.788522 0.039088
vt 0.700440 0.033981
vt 0.700440 0.044194
vt 0.784927 0.044194
vt 0.784927 0.050815
vt 0.700440 0.050815
vt 0.700440 0.044194
vt 0.715117 0.145128
vt 0.804416 0.145128
vt 0.801120 0.151668
vt 0.715117 0.151668
vt 0.715117 0.145128
vt 0.715117 0.138406
vt 0.801120 0.138406
vt 0.804416 0.145128
vt 0.715117 0.145128
vt 0.715117 0.138406
vt 0.697655 0.111450
vt 0.801392 0.111450
vt 0.805274 0.114731
vt 0.697655 0.118011
vt 0.697655 0.111450
vt 0.697655 0.105355
vt 0.801392 0.105355
vt 0.801392 0.111450
vt 0.697655 0.111450
vt 0.697655 0.105355
vt 0.816438 0.017640
vt 0.838524 0.017966
vt 0.838954 0.024401
vt 0.844382 0.025894
vt 0.838524 0.017966
vt 0.838524 0.017966
vt 0.848637 0.019240
vt 0.816376 0.012518
vt 0.839392 0.004917
vt 0.839046 0.011312
vt 0.844996 0.002270
vt 0.847111 0.010719
vt 0.656092 0.104890
vt 0.679218 0.104540
vt 0.678223 0.114666
vt 0.687467 0.118697
vt 0.679218 0.104540
vt 0.679218 0.104540
vt 0.691764 0.104354
vt 0.700440 0.024558
vt 0.788522 0.024558
vt 0.788522 0.039088
vt 0.788522 0.039088
vt 0.700440 0.033981
vt 0.700440 0.044194
vt 0.784927 0.044194
vt 0.784927 0.050815
vt 0.700440 0.050815
vt 0.700440 0.044194
vt 0.715117 0.145128
vt 0.804416 0.145128
vt 0.801120 0.151668
vt 0.715117 0.151668
vt 0.715117 0.145128
vt 0.715117 0.138406
vt 0.801120 0.138406
vt 0.804416 0.145128
vt 0.715117 0.145128
vt 0.715117 0.138406
vt 0.697655 0.111450
vt 0.801392 0.111450
vt 0.805274 0.114731
vt 0.697655 0.118011
vt 0.697655 0.111450
vt 0.697655 0.105355
vt 0.801392 0.105355
vt 0.801392 0.111450
vt 0.697655 0.111450
vt 0.697655 0.105355
vt 0.816438 0.017640
vt 0.838524 0.017966
vt 0.838954 0.024401
vt 0.844382 0.025894
vt 0.838524 0.017966
vt 0.838524 0.017966
vt 0.848637 0.019240
vt 0.656092 0.104890
vt 0.679218 0.104540
vt 0.678223 0.114666
vt 0.687467 0.118697
vt 0.679218 0.104540
vt 0.679218 0.104540
vt 0.691764 0.104354
vt 0.700440 0.024558
vt 0.788522 0.024558
vt 0.788522 0.039088
vt 0.788522 0.039088
vt 0.700440 0.033981
vt 0.700440 0.044194
vt 0.784927 0.044194
vt 0.784927 0.050815
vt 0.700440 0.050815
vt 0.700440 0.044194
vt 0.715117 0.145128
vt 0.804416 0.145128
vt 0.801120 0.151668
vt 0.715117 0.151668
vt 0.715117 0.145128
vt 0.715117 0.138406
vt 0.801120 0.138406
vt 0.804416 0.145128
vt 0.715117 0.145128
vt 0.715117 0.138406
vt 0.697655 0.111450
vt 0.801392 0.111450
vt 0.805274 0.114731
vt 0.697655 0.118011
vt 0.697655 0.111450
vt 0.697655 0.105355
vt 0.801392 0.105355
vt 0.801392 0.111450
vt 0.697655 0.111450
vt 0.697655 0.105355
vt 0.816438 0.017640
vt 0.838524 0.017966
vt 0.838954 0.024401
vt 0.844382 0.025894
vt 0.838524 0.017966
vt 0.838524 0.017966
vt 0.848637 0.019240
vt 0.816376 0.012518
vt 0.839392 0.004917
vt 0.839046 0.011312
vt 0.844996 0.002270
vt 0.847111 0.010719
vt 0.656092 0.104890
vt 0.679218 0.104540
vt 0.678223 0.114666
vt 0.687467 0.118697
vt 0.679218 0.104540
vt 0.679218 0.104540
vt 0.691764 0.104354
vt 0.969895 0.107333
vt 0.966656 0.095721
vt 0.968526 0.081096
vt 0.958956 0.138265
vt 0.969895 0.107333
vt 0.968228 0.126908
vt 0.978776 0.097813
vt 0.968526 0.081096
vt 0.978776 0.097813
vt 0.973829 0.142837
vt 0.968228 0.126908
vt 0.963678 0.151082
vt 0.958956 0.138265
vt 0.958956 0.138265
vt 0.968228 0.126908
vt 0.958706 0.080983
vt 0.968526 0.081096
vt 0.966656 0.095721
vt 0.966656 0.095721
vt 0.960042 0.094758
vt 0.613408 0.678042
vt 0.628336 0.693351
vt 0.612555 0.735868
vt 0.595604 0.692664
vt 0.613408 0.678042
vt 0.968228 0.126908
vt 0.969895 0.107333
vt 0.978776 0.097813
vt 0.973829 0.142837
vt 0.968228 0.126908
vt 0.963678 0.151082
vt 0.958956 0.138265
vt 0.958956 0.138265
vt 0.968228 0.126908
vt 0.613408 0.678042
vt 0.628336 0.693351
vt 0.612555 0.735868
vt 0.595604 0.692664
vt 0.613408 0.678042
vt 0.002231 0.000375
vt 0.049315 -0.000087
vt 0.048787 0.040341
vt 0.048787 0.040341
vt 0.001649 0.040330
vt 0.002346 0.046900
vt 0.140874 0.046900
vt 0.140877 0.060325
vt 0.140877 0.060325
vt 0.002349 0.060325
vt 0.002343 0.096027
vt 0.140871 0.096026
vt 0.140874 0.113897
vt 0.002346 0.113897
vt 0.002343 0.096027
vt 0.002346 0.078162
vt 0.140874 0.078162
vt 0.140871 0.096026
vt 0.002343 0.096027
vt 0.002346 0.078162
vt 0.002518 0.151480
vt 0.002520 0.131994
vt 0.141072 0.131987
vt 0.141086 0.151484
vt 0.002518 0.151480
vt 0.656092 0.104890
vt 0.677761 0.092273
vt 0.679076 0.100324
vt 0.691690 0.097876
vt 0.679076 0.100324
vt 0.688539 0.086859
vt 0.691690 0.097876
vt 0.656092 0.104890
vt 0.677761 0.092273
vt 0.679076 0.100324
vt 0.691690 0.097876
vt 0.679076 0.100324
vt 0.688539 0.086859
vt 0.691690 0.097876
vt 0.656092 0.104890
vt 0.677761 0.092273
vt 0.679076 0.100324
vt 0.691690 0.097876
vt 0.679076 0.100324
vt 0.688539 0.086859
vt 0.691690 0.097876
vt 0.954969 0.475767
vt 0.970236 0.518054
vt 0.952177 0.524234
vt 0.952177 0.524234
vt 0.939185 0.503258
vt 0.934212 0.446613
vt 0.919030 0.476032
vt 0.952177 0.524234
vt 0.943963 0.540140
vt 0.952177 0.524234
vt 0.970236 0.518054
vt 0.967156 0.547669
vt 0.745936 0.516779
vt 0.759024 0.517848
vt 0.757360 0.535728
vt 0.743816 0.538755
vt 0.745936 0.516779
vt 0.748906 0.551694
vt 0.737601 0.559988
vt 0.732785 0.549598
vt 0.727420 0.521046
vt 0.745936 0.516779
vt 0.745936 0.516779
vt 0.728220 0.486430
vt 0.757370 0.501430
vt 0.759024 0.517848
vt 0.749258 0.486746
vt 0.738497 0.466322
vt 0.746242 0.457766
vt 0.610327 0.600817
vt 0.623045 0.584111
vt 0.630866 0.635514
vt 0.630866 0.635514
vt 0.621068 0.629437
vt 0.610464 0.645978
vt 0.597411 0.638696
vt 0.595604 0.692664
vt 0.621068 0.629437
vt 0.613408 0.678042
vt 0.630866 0.635514
vt 0.968526 0.081096
vt 0.978776 0.097813
vt 0.969895 0.107333
vt 0.968228 0.126908
vt 0.958956 0.138265
vt 0.966656 0.095721
vt 0.968526 0.081096
vt 0.958706 0.080983
vt 0.968526 0.081096
vt 0.960042 0.094758
vt 0.610327 0.600817
vt 0.623045 0.584111
vt 0.630866 0.635514
vt 0.630866 0.635514
vt 0.621068 0.629437
vt 0.610464 0.645978
vt 0.597411 0.638696
vt 0.595604 0.692664
vt 0.621068 0.629437
vt 0.613408 0.678042
vt 0.630866 0.635514
vt 0.500561 0.439432
vt 0.498946 0.193537
vt 0.599325 0.200301
vt 0.586608 0.431794
vt 0.630753 0.434466
vt 0.656588 0.198354
vt 0.562568 0.190694
vt 0.552481 0.436531
vt 0.426844 0.520707
vt 0.423843 0.442027
vt 0.469633 0.440920
vt 0.468336 0.520576
vt 0.384012 0.442913
vt 0.387978 0.522854
vt 0.339947 0.521512
vt 0.342521 0.442774
vt 0.389069 0.521589
vt 0.384012 0.442913
vt 0.421236 0.442780
vt 0.421236 0.521002
vt 0.505560 0.520718
vt 0.468336 0.520576
vt 0.473395 0.441849
vt 0.505560 0.442495
vt 0.517096 0.626662
vt 0.371268 0.626662
vt 0.371268 0.530933
vt 0.517096 0.531021
vt 0.220793 0.627583
vt 0.220793 0.531898
vt 0.366147 0.531898
vt 0.366147 0.627583
vt 0.700440 0.044194
vt 0.700440 0.033981
vt 0.788522 0.039088
vt 0.784927 0.044194
vt 0.715117 0.138406
vt 0.715117 0.129394
vt 0.804382 0.133900
vt 0.801120 0.138406
vt 0.697655 0.105355
vt 0.697655 0.096169
vt 0.805150 0.100762
vt 0.801392 0.105355
vt 0.700440 0.044194
vt 0.700440 0.033981
vt 0.788522 0.039088
vt 0.784927 0.044194
vt 0.715117 0.138406
vt 0.715117 0.129394
vt 0.804382 0.133900
vt 0.801120 0.138406
vt 0.697655 0.105355
vt 0.697655 0.096169
vt 0.805150 0.100762
vt 0.801392 0.105355
vt 0.517096 0.626662
vt 0.517096 0.531021
vt 0.371268 0.530933
vt 0.371268 0.626662
vt 0.220793 0.627583
vt 0.366147 0.627583
vt 0.366147 0.531898
vt 0.220793 0.531898
vt 0.517096 0.626662
vt 0.371268 0.626662
vt 0.371268 0.530933
vt 0.517096 0.531021
vt 0.220793 0.627583
vt 0.220793 0.531898
vt 0.366147 0.531898
vt 0.366147 0.627583
vt 0.517096 0.626662
vt 0.371268 0.626662
vt 0.371268 0.530933
vt 0.517096 0.531021
vt 0.220793 0.627583
vt 0.220793 0.531898
vt 0.366147 0.531898
vt 0.366147 0.627583
vt 0.700440 0.044194
vt 0.700440 0.033981
vt 0.788522 0.039088
vt 0.784927 0.044194
vt 0.715117 0.138406
vt 0.715117 0.129394
vt 0.804382 0.133900
vt 0.801120 0.138406
vt 0.697655 0.105355
vt 0.697655 0.096169
vt 0.805150 0.100762
vt 0.801392 0.105355
vt 0.733182 0.725645
vt 0.796197 0.701843
vt 0.796196 0.623633
vt 0.733182 0.623635
vt 0.863673 0.726340
vt 0.863672 0.624089
vt 0.800658 0.624570
vt 0.800658 0.702539
vt 0.733182 0.725645
vt 0.796197 0.701843
vt 0.796196 0.623633
vt 0.733182 0.623635
vt 0.863673 0.726340
vt 0.863672 0.624089
vt 0.800658 0.624570
vt 0.800658 0.702539
vt 0.733182 0.725645
vt 0.796197 0.701843
vt 0.796196 0.623633
vt 0.733182 0.623635
vt 0.863673 0.726340
vt 0.863672 0.624089
vt 0.800658 0.624570
vt 0.800658 0.702539
vt 0.864297 0.991685
vt 0.864296 0.761929
vt 0.839518 0.761930
vt 0.839520 0.991686
vt 0.723153 0.788004
vt 0.723153 0.738449
vt 0.838031 0.738447
vt 0.838031 0.788003
vt 0.165169 0.282907
vt 0.003435 0.282907
vt 0.003435 0.202906
vt 0.165169 0.202906
vt 0.602777 0.118485
vt 0.602777 0.187169
vt 0.552670 0.187169
vt 0.552670 0.129367
vt 0.648532 0.440690
vt 0.654751 0.352987
vt 0.689226 0.352986
vt 0.689227 0.440689
vt 0.292347 0.278144
vt 0.233065 0.278144
vt 0.233065 0.189469
vt 0.292347 0.189469
vt 0.606817 0.118722
vt 0.656923 0.129603
vt 0.656924 0.187405
vt 0.606817 0.187406
vt 0.734578 0.439937
vt 0.693883 0.439938
vt 0.693883 0.352235
vt 0.728358 0.352234
vt 0.168662 0.277888
vt 0.168662 0.189212
vt 0.227944 0.189212
vt 0.227944 0.277888
vt 0.423046 0.442495
vt 0.505560 0.442495
vt 0.505560 0.520718
vt 0.426051 0.520724
vt 0.421236 0.442780
vt 0.421236 0.521002
vt 0.338722 0.521002
vt 0.341727 0.442774
vt 0.640123 0.545121
vt 0.722050 0.545119
vt 0.722049 0.455442
vt 0.640123 0.455445
vt 0.639845 0.551663
vt 0.639846 0.641340
vt 0.721772 0.641339
vt 0.721772 0.551662
vt 0.821094 0.260068
vt 0.820401 0.271244
vt 0.751305 0.271827
vt 0.751305 0.258586
vt 0.806968 0.306268
vt 0.806968 0.291865
vt 0.854381 0.295649
vt 0.854147 0.307117
vt 0.706813 0.760985
vt 0.717111 0.995348
vt 0.583530 0.995348
vt 0.593340 0.760985
vt 0.319471 0.267807
vt 0.295988 0.267807
vt 0.295988 0.186397
vt 0.319471 0.186397
vt 0.379246 0.760985
vt 0.566908 0.760985
vt 0.575853 0.995348
vt 0.370319 0.995348
vt 0.718184 0.679032
vt 0.718184 0.714494
vt 0.647939 0.714494
vt 0.647939 0.679032
vt 0.007760 0.995348
vt 0.016994 0.760985
vt 0.211018 0.760985
vt 0.220248 0.995348
vt 0.156641 0.154465
vt 0.150616 0.165600
vt 0.144841 0.155381
vt 0.150173 0.143976
vt 0.002349 0.060325
vt 0.140877 0.060325
vt 0.140874 0.078162
vt 0.002346 0.078162
vt 0.145127 0.188282
vt 0.150060 0.175037
vt 0.157305 0.180755
vt 0.151724 0.193920
vt 0.002501 0.197151
vt 0.002551 0.187211
vt 0.141039 0.187215
vt 0.141063 0.197151
vt 0.002550 0.167780
vt 0.002518 0.151480
vt 0.141086 0.151484
vt 0.141058 0.167777
vt 0.211018 0.748413
vt 0.016994 0.748413
vt 0.017101 0.511984
vt 0.211125 0.511984
vt 0.639479 0.551528
vt 0.639509 0.641195
vt 0.684411 0.640646
vt 0.686713 0.550831
vt 0.721772 0.641339
vt 0.721772 0.551662
vt 0.701626 0.080505
vt 0.701255 0.070493
vt 0.789179 0.070493
vt 0.794465 0.080505
vt 0.827409 0.069403
vt 0.701626 0.080505
vt 0.701255 0.070493
vt 0.789179 0.070493
vt 0.794465 0.080505
vt 0.827409 0.069403
vt 0.701626 0.080505
vt 0.701255 0.070493
vt 0.789179 0.070493
vt 0.794465 0.080505
vt 0.827409 0.069403
vt 0.251072 0.000087
vt 0.251194 0.037982
vt 0.133157 0.040612
vt 0.120103 0.001283
vt 0.107049 0.040612
vt 0.049315 -0.000087
vt 0.048787 0.040341
vt 0.291845 0.039816
vt 0.292182 -0.000593
vt 0.342846 0.001502
vt 0.342261 0.040763
vt 0.359177 0.001611
vt 0.359126 0.041374
vt 0.410858 0.039653
vt 0.410933 0.000597
vt 0.361254 0.995348
vt 0.299870 0.995348
vt 0.350498 0.760985
vt 0.225678 0.995348
vt 0.235328 0.760985
vt 0.601062 0.438620
vt 0.565551 0.438568
vt 0.565545 0.195769
vt 0.614838 0.196887
vt 0.630452 0.438761
vt 0.660509 0.197654
vt 0.675182 0.454579
vt 0.640123 0.455445
vt 0.640123 0.545121
vt 0.677489 0.544399
vt 0.722412 0.455298
vt 0.722388 0.544983
vt 0.789255 0.063979
vt 0.701332 0.063979
vt 0.701293 0.058676
vt 0.794150 0.058676
vt 0.827409 0.069403
vt 0.815898 0.014747
vt 0.839046 0.011312
vt 0.838524 0.017966
vt 0.848637 0.019240
vt 0.847111 0.010719
vt 0.656092 0.104890
vt 0.679076 0.100324
vt 0.679218 0.104540
vt 0.691764 0.104354
vt 0.691690 0.097876
vt 0.789255 0.063979
vt 0.701332 0.063979
vt 0.701293 0.058676
vt 0.794150 0.058676
vt 0.827409 0.069403
vt 0.815898 0.014747
vt 0.839046 0.011312
vt 0.838524 0.017966
vt 0.848637 0.019240
vt 0.847111 0.010719
vt 0.656092 0.104890
vt 0.679076 0.100324
vt 0.679218 0.104540
vt 0.691764 0.104354
vt 0.691690 0.097876
vt 0.789255 0.063979
vt 0.701332 0.063979
vt 0.701293 0.058676
vt 0.794150 0.058676
vt 0.827409 0.069403
vt 0.815898 0.014747
vt 0.839046 0.011312
vt 0.838524 0.017966
vt 0.848637 0.019240
vt 0.847111 0.010719
vt 0.656092 0.104890
vt 0.679076 0.100324
vt 0.679218 0.104540
vt 0.691764 0.104354
vt 0.691690 0.097876
vt 0.875333 0.081337
vt 0.859320 0.167588
vt 0.820854 0.147895
vt 0.846953 0.031364
vt 0.887559 0.064630
vt 0.867187 0.003776
vt 0.981140 0.061923
vt 0.981881 0.004130
vt 0.916904 0.565284
vt 0.931026 0.586986
vt 0.928510 0.604746
vt 0.940131 0.552652
vt 0.954069 0.583137
vt 0.928510 0.604746
vn -0.999654 -0.020963 -0.015901
vn -0.52825 -0.849085 0.002528000000000052
vn -0.015976 0.999871 -0.0015510000000000612
vn -0.015976 0.999871 -0.0015510000000000612
vn -0.08552 0.996294 -0.00922400000000006
vn -0.999654 -0.020963 -0.015901
vn -0.015976 0.999871 -0.0015510000000000612
vn -0.52825 -0.849085 0.002528000000000052
vn 0.854119 0.08543900000000003 0.513011
vn -0.395959 -0.913862 0.08984600000000005
vn -0.274691 -0.952205 -0.13360599999999995
vn -0.759494 0.591315 0.27113799999999993
vn 0.556331 -0.42037099999999994 0.716788
vn -0.939678 -0.329776 -0.09084799999999998
vn 0.752805 -0.635565 0.17129100000000003
vn 0.556331 -0.42037099999999994 0.716788
vn 0.752805 -0.635565 0.17129100000000003
vn -0.138066 0.986746 0.08525999999999995
vn 0.556331 -0.42037099999999994 0.716788
vn -0.138066 0.986746 0.08525999999999995
vn -0.939678 -0.329776 -0.09084799999999998
vn -0.813917 -0.580814 -0.013918999999999964
vn 0.118683 -0.99292 0.004837000000000061
vn -0.566504 0.824056 0.0023149999999999495
vn -0.566504 0.824056 0.0023149999999999495
vn -0.625832 0.779924 -0.007316000000000047
vn -0.813917 -0.580814 -0.013918999999999964
vn -0.566504 0.824056 0.0023149999999999495
vn 0.118683 -0.99292 0.004837000000000061
vn 0.782584 0.525448 0.33386599999999994
vn 0.08424 -0.805155 0.587051
vn -0.967707 0.10479200000000001 0.229265
vn 0.35145 -0.934516 -0.05624699999999994
vn 0.190445 -0.968276 0.16178100000000006
vn 0.35145 -0.934516 -0.05624699999999994
vn -0.967707 0.10479200000000001 0.229265
vn -0.967707 0.10479200000000001 0.229265
vn -0.895489 0.436791 0.08551999999999997
vn 0.190445 -0.968276 0.16178100000000006
vn 0.393732 -0.828167 0.39889100000000005
vn -0.913308 -0.11761199999999997 0.389917
vn -0.975798 -0.12102300000000002 -0.182133
vn 0.393732 -0.828167 0.39889100000000005
vn 0.210874 0.934359 0.28723699999999996
vn -0.913308 -0.11761199999999997 0.389917
vn -0.913308 -0.11761199999999997 0.389917
vn 0.210874 0.934359 0.28723699999999996
vn -0.975798 -0.12102300000000002 -0.182133
vn 0.776266 -0.11870899999999995 0.619128
vn -0.549328 -0.832143 -0.07600799999999995
vn 0.98645 -0.07406399999999999 0.146396
vn 0.776266 -0.11870899999999995 0.619128
vn 0.98645 -0.07406399999999999 0.146396
vn -0.694514 0.714404 0.08530799999999995
vn 0.776266 -0.11870899999999995 0.619128
vn -0.694514 0.714404 0.08530799999999995
vn -0.549328 -0.832143 -0.07600799999999995
vn 0.13912 0.990148 -0.01590000000000006
vn -0.753707 0.657205 0.0025289999999999597
vn 0.989563 -0.144096 -0.001549999999999991
vn 0.989563 -0.144096 -0.001549999999999991
vn 0.997151 -0.074868 -0.009223999999999994
vn 0.13912 0.990148 -0.01590000000000006
vn 0.989563 -0.144096 -0.001549999999999991
vn -0.753707 0.657205 0.0025289999999999597
vn -0.052501 -0.856789 0.512988
vn -0.838792 0.536987 0.08985099999999997
vn -0.896038 0.423397 -0.13360800000000003
vn 0.705153 0.655166 0.27113999999999994
vn -0.50388 -0.48197399999999996 0.716803
vn -0.175283 0.980318 -0.09084700000000005
vn -0.747751 -0.641504 0.17129300000000003
vn -0.50388 -0.48197399999999996 0.716803
vn -0.747751 -0.641504 0.17129300000000003
vn 0.996127 -0.021477999999999994 0.085259
vn -0.50388 -0.48197399999999996 0.716803
vn 0.996127 -0.021477999999999994 0.085259
vn -0.175283 0.980318 -0.09084700000000005
vn 0.853654 0.331587 0.401652
vn -0.304057 0.875827 0.37480199999999997
vn -0.220381 0.63128 0.743585
vn -0.220381 0.63128 0.743585
vn 0.610305 0.23196800000000006 0.757442
vn 0.853654 0.331587 0.401652
vn -0.746859 0.662654 -0.05560500000000004
vn -0.720536 -0.686219 -0.09965599999999995
vn -0.973767 -0.199461 -0.10951599999999999
vn -0.973767 -0.199461 -0.10951599999999999
vn -0.105413 0.994161 0.02308499999999994
vn -0.746859 0.662654 -0.05560500000000004
vn -0.706763 -0.704584 -0.06362799999999996
vn -0.395959 -0.913862 0.08984600000000005
vn -0.465239 0.874784 0.13529699999999995
vn -0.465239 0.874784 0.13529699999999995
vn -0.868045 0.496339 -0.012049000000000032
vn 0.913814 0.399957 0.07056399999999997
vn 0.927472 -0.29151 -0.23413299999999998
vn -0.395959 -0.913862 0.08984600000000005
vn -0.706763 -0.704584 -0.06362799999999996
vn 0.913814 0.399957 0.07056399999999997
vn 0.541021 0.840963 0.008795999999999948
vn -0.138066 0.986746 0.08525999999999995
vn 0.752805 -0.635565 0.17129100000000003
vn 0.944031 -0.329736 0.00892200000000002
vn 0.541021 0.840963 0.008795999999999948
vn -0.857156 -0.515041 0.003990000000000031
vn -0.939678 -0.329776 -0.09084799999999998
vn -0.138066 0.986746 0.08525999999999995
vn 0.541021 0.840963 0.008795999999999948
vn -0.857156 -0.515041 0.003990000000000031
vn -0.52757 -0.847052 -0.06459299999999994
vn 0.033748 -0.99673 -0.07341499999999994
vn -0.667715 0.707244 0.23229899999999995
vn -0.874286 0.480869 0.06625699999999997
vn -0.52757 -0.847052 -0.06459299999999994
vn 0.85823 0.512303 0.031400999999999964
vn 0.929278 0.23850499999999997 -0.28206
vn 0.033748 -0.99673 -0.07341499999999994
vn -0.52757 -0.847052 -0.06459299999999994
vn 0.85823 0.512303 0.031400999999999964
vn -0.411492 -0.835769 0.36354400000000003
vn 0.916906 0.396037 0.049383999999999977
vn -0.759494 0.591315 0.27113799999999993
vn -0.465239 0.874784 0.13529699999999995
vn 0.916906 0.396037 0.049383999999999977
vn 0.916906 0.396037 0.049383999999999977
vn 0.927472 -0.29151 -0.23413299999999998
vn -0.411492 -0.835769 0.36354400000000003
vn -0.759494 0.591315 0.27113799999999993
vn -0.274691 -0.952205 -0.13360599999999995
vn -0.465239 0.874784 0.13529699999999995
vn -0.395959 -0.913862 0.08984600000000005
vn 0.843098 -0.492845 0.21515000000000004
vn 0.739991 0.672293 -0.02089700000000004
vn -0.924627 -0.027536999999999975 0.379878
vn -0.667715 0.707244 0.23229899999999995
vn 0.739991 0.672293 -0.02089700000000004
vn 0.739991 0.672293 -0.02089700000000004
vn 0.929278 0.23850499999999997 -0.28206
vn -0.229927 -0.973145 0.011044000000000059
vn 0.190445 -0.968276 0.16178100000000006
vn -0.895489 0.436791 0.08551999999999997
vn -0.895489 0.436791 0.08551999999999997
vn -0.994665 -0.103092 -0.0037479999999999935
vn 0.490383 0.871501 0.0032649999999999468
vn 0.922394 0.313574 -0.22552200000000003
vn 0.190445 -0.968276 0.16178100000000006
vn -0.229927 -0.973145 0.011044000000000059
vn 0.490383 0.871501 0.0032649999999999468
vn -0.001873 0.999966 0.008075999999999939
vn -0.694514 0.714404 0.08530799999999995
vn 0.98645 -0.07406399999999999 0.146396
vn 0.95569 0.294269 0.007934999999999982
vn -0.001873 0.999966 0.008075999999999939
vn -0.378564 -0.925569 0.003454000000000057
vn -0.549328 -0.832143 -0.07600799999999995
vn -0.694514 0.714404 0.08530799999999995
vn -0.001873 0.999966 0.008075999999999939
vn -0.378564 -0.925569 0.003454000000000057
vn -0.009307 -0.997425 -0.07110599999999995
vn 0.590347 -0.806471 -0.03307999999999995
vn -0.971772 0.164539 0.169076
vn -0.993282 -0.11565 0.0040880000000000066
vn -0.009307 -0.997425 -0.07110599999999995
vn 0.376965 0.92377 0.06742899999999995
vn 0.638471 0.729726 -0.24465300000000006
vn 0.590347 -0.806471 -0.03307999999999995
vn -0.009307 -0.997425 -0.07110599999999995
vn 0.376965 0.92377 0.06742899999999995
vn 0.08424 -0.805155 0.587051
vn 0.509202 0.860574 -0.011231000000000052
vn -0.967707 0.10479200000000001 0.229265
vn -0.895489 0.436791 0.08551999999999997
vn 0.509202 0.860574 -0.011231000000000052
vn 0.509202 0.860574 -0.011231000000000052
vn 0.922394 0.313574 -0.22552200000000003
vn 0.968989 0.031264000000000014 0.245117
vn 0.189325 0.981874 -0.008970000000000061
vn -0.776122 -0.530227 0.34131300000000003
vn -0.971772 0.164539 0.169076
vn 0.189325 0.981874 -0.008970000000000061
vn 0.189325 0.981874 -0.008970000000000061
vn 0.638471 0.729726 -0.24465300000000006
vn -0.58251 0.810329 -0.06362800000000006
vn -0.838792 0.536987 0.08985099999999997
vn 0.937918 0.319379 0.13529899999999997
vn 0.937918 0.319379 0.13529899999999997
vn 0.628748 0.777516 -0.012049000000000048
vn 0.248697 -0.966008 0.07056300000000006
vn -0.436042 -0.868936 -0.23413299999999995
vn -0.838792 0.536987 0.08985099999999997
vn -0.58251 0.810329 -0.06362800000000006
vn 0.248697 -0.966008 0.07056300000000006
vn 0.743652 -0.66851 0.008796000000000042
vn 0.996127 -0.021477999999999994 0.085259
vn -0.747751 -0.641504 0.17129300000000003
vn -0.476427 -0.879169 0.008922000000000053
vn 0.743652 -0.66851 0.008796000000000042
vn -0.371369 0.928477 0.003988999999999943
vn -0.175283 0.980318 -0.09084700000000005
vn 0.996127 -0.021477999999999994 0.085259
vn 0.743652 -0.66851 0.008796000000000042
vn -0.371369 0.928477 0.003988999999999943
vn -0.751797 0.656223 -0.06459300000000004
vn -0.989305 0.126041 -0.07341700000000001
vn 0.804909 0.54604 0.23229599999999997
vn 0.614487 0.786139 0.06625799999999996
vn -0.751797 0.656223 -0.06459300000000004
vn 0.368491 -0.929101 0.031401000000000054
vn 0.086852 -0.955457 -0.28206099999999995
vn -0.989305 0.126041 -0.07341700000000001
vn -0.751797 0.656223 -0.06459300000000004
vn 0.368491 -0.929101 0.031401000000000054
vn -0.759206 0.539806 0.36361399999999994
vn 0.244337 -0.968432 0.049383000000000066
vn 0.705153 0.655166 0.27113999999999994
vn 0.937918 0.319379 0.13529899999999997
vn 0.244337 -0.968432 0.049383000000000066
vn 0.244337 -0.968432 0.049383000000000066
vn -0.436042 -0.868936 -0.23413299999999995
vn -0.759206 0.539806 0.36361399999999994
vn 0.705153 0.655166 0.27113999999999994
vn -0.896038 0.423397 -0.13360800000000003
vn 0.937918 0.319379 0.13529899999999997
vn -0.838792 0.536987 0.08985099999999997
vn -0.621379 -0.753395 0.21513500000000005
vn 0.54532 -0.837967 -0.02090299999999995
vn 0.120638 0.917137 0.37987599999999994
vn 0.804909 0.54604 0.23229599999999997
vn 0.54532 -0.837967 -0.02090299999999995
vn 0.54532 -0.837967 -0.02090299999999995
vn 0.086852 -0.955457 -0.28206099999999995
vn 0.772954 0.027427000000000038 0.63387
vn 0.209263 -0.860635 0.46423800000000004
vn 0.550683 -0.792928 0.2607940000000001
vn -0.569311 -0.20642599999999994 0.795785
vn 0.772954 0.027427000000000038 0.63387
vn -0.010328 0.862689 0.50563
vn 0.790404 0.603589 0.10460299999999996
vn 0.550683 -0.792928 0.2607940000000001
vn 0.790404 0.603589 0.10460299999999996
vn -0.764849 0.572735 0.29492499999999994
vn -0.010328 0.862689 0.50563
vn -0.674649 -0.703203 0.22439900000000004
vn -0.569311 -0.20642599999999994 0.795785
vn -0.569311 -0.20642599999999994 0.795785
vn -0.010328 0.862689 0.50563
vn -0.674649 -0.703203 0.22439900000000004
vn 0.550683 -0.792928 0.2607940000000001
vn 0.209263 -0.860635 0.46423800000000004
vn 0.209263 -0.860635 0.46423800000000004
vn -0.569311 -0.20642599999999994 0.795785
vn 0.281974 0.607504 0.742583
vn 0.518541 -0.629029 0.579171
vn 0.932655 -0.274393 0.23423000000000002
vn 0.06719 0.982041 0.17629699999999995
vn 0.281974 0.607504 0.742583
vn -0.796142 -0.08275999999999996 0.599424
vn 0.340372 0.62622 0.701424
vn -0.522816 0.849479 0.07105399999999995
vn -0.599029 -0.751022 0.27772300000000005
vn -0.796142 -0.08275999999999996 0.599424
vn 0.64506 -0.726053 0.23821200000000006
vn 0.389185 -0.681611 0.61963
vn 0.389185 -0.681611 0.61963
vn -0.796142 -0.08275999999999996 0.599424
vn -0.576759 0.3404690000000001 0.742583
vn 0.677067 0.45402800000000004 0.579171
vn 0.364968 0.901074 0.23423099999999994
vn -0.97064 0.16364 0.176296
vn -0.576759 0.3404690000000001 0.742583
vn -0.748927 -0.54134 0.38217700000000004
vn 0.567655 -0.711287 0.41453300000000004
vn -0.004233 -0.578249 0.815849
vn -0.004233 -0.578249 0.815849
vn -0.751458 -0.01286799999999996 0.659655
vn 0.98451 -0.166002 -0.056422999999999994
vn 0.870094 0.492637 0.01565399999999997
vn 0.453646 -0.884563 -0.10841699999999994
vn 0.453646 -0.884563 -0.10841699999999994
vn -0.133719 -0.986453 -0.09502999999999995
vn 0.133673 0.986428 0.09535299999999994
vn -0.4537 0.884481 0.10885399999999995
vn 0.870094 0.492637 0.01565399999999997
vn 0.98451 -0.166002 -0.056422999999999994
vn 0.133673 0.986428 0.09535299999999994
vn -0.984483 0.165848 0.05734199999999999
vn -0.870048 -0.492762 -0.014230999999999971
vn -0.4537 0.884481 0.10885399999999995
vn 0.133673 0.986428 0.09535299999999994
vn -0.984483 0.165848 0.05734199999999999
vn 0.746936 -0.662667 0.05439700000000004
vn 0.720816 0.686179 0.09789499999999995
vn 0.974026 0.199424 0.10725299999999999
vn 0.105556 -0.994136 -0.023481999999999937
vn 0.746936 -0.662667 0.05439700000000004
vn 0.843098 -0.492845 0.21515000000000004
vn -0.924627 -0.027536999999999975 0.379878
vn 0.324492 -0.908341 -0.26385999999999993
vn 0.033748 -0.99673 -0.07341499999999994
vn 0.324492 -0.908341 -0.26385999999999993
vn -0.667715 0.707244 0.23229899999999995
vn 0.033748 -0.99673 -0.07341499999999994
vn 0.968989 0.031264000000000014 0.245117
vn -0.776122 -0.530227 0.34131300000000003
vn 0.797115 -0.559911 -0.22606999999999997
vn 0.590347 -0.806471 -0.03307999999999995
vn 0.797115 -0.559911 -0.22606999999999997
vn -0.971772 0.164539 0.169076
vn 0.590347 -0.806471 -0.03307999999999995
vn -0.621379 -0.753395 0.21513500000000005
vn 0.120638 0.917137 0.37987599999999994
vn -0.948541 -0.17507300000000003 -0.263857
vn -0.989305 0.126041 -0.07341700000000001
vn -0.948541 -0.17507300000000003 -0.263857
vn 0.804909 0.54604 0.23229599999999997
vn -0.989305 0.126041 -0.07341700000000001
vn -0.862631 -0.358481 0.356873
vn 0.210908 -0.947042 0.24213500000000004
vn -0.272961 -0.801746 0.531691
vn -0.272961 -0.801746 0.531691
vn -0.655427 0.14322600000000005 0.741554
vn -0.563971 0.663304 0.4918989999999999
vn -0.380993 0.706502 0.596405
vn -0.272961 -0.801746 0.531691
vn 0.40839 -0.721566 0.559071
vn -0.272961 -0.801746 0.531691
vn 0.210908 -0.947042 0.24213500000000004
vn 0.467308 -0.839948 0.27588300000000004
vn 0.214271 -0.795228 0.567186
vn 0.178894 -0.698666 0.692722
vn -0.855617 -0.351906 0.379582
vn -0.919914 -0.365688 0.14152700000000001
vn 0.214271 -0.795228 0.567186
vn -0.984646 0.167269 0.049923999999999996
vn -0.996442 0.037584000000000006 0.075431
vn -0.906661 -0.418898 -0.049909999999999975
vn -0.31159 -0.946948 0.07874800000000005
vn 0.214271 -0.795228 0.567186
vn 0.214271 -0.795228 0.567186
vn 0.770733 -0.492936 0.40371300000000004
vn 0.905292 -0.04673299999999997 0.422211
vn 0.178894 -0.698666 0.692722
vn 0.853968 0.11717300000000003 0.50696
vn 0.781744 0.38011500000000004 0.494356
vn 0.661505 0.634298 0.4000969999999999
vn -0.52956 -0.833356 0.15837600000000004
vn 0.932655 -0.274393 0.23423000000000002
vn 0.518541 -0.629029 0.579171
vn 0.518541 -0.629029 0.579171
vn -0.562424 -0.16431299999999993 0.810358
vn -0.811966 0.479586 0.33272999999999997
vn -0.86692 0.440132 0.23395199999999997
vn 0.06719 0.982041 0.17629699999999995
vn -0.562424 -0.16431299999999993 0.810358
vn 0.281974 0.607504 0.742583
vn 0.518541 -0.629029 0.579171
vn 0.85281 0.458497 0.24999399999999997
vn -0.522816 0.849479 0.07105399999999995
vn 0.340372 0.62622 0.701424
vn -0.796142 -0.08275999999999996 0.599424
vn 0.389185 -0.681611 0.61963
vn 0.913448 -0.014616999999999975 0.406692
vn 0.85281 0.458497 0.24999399999999997
vn 0.64506 -0.726053 0.23821200000000006
vn 0.85281 0.458497 0.24999399999999997
vn 0.389185 -0.681611 0.61963
vn 0.777113 -0.609107 0.15837600000000002
vn 0.364968 0.901074 0.23423099999999994
vn 0.677067 0.45402800000000004 0.579171
vn 0.677067 0.45402800000000004 0.579171
vn 0.108088 -0.57588 0.810358
vn -0.557269 -0.760752 0.3327280000000001
vn -0.523424 -0.819325 0.23395200000000005
vn -0.97064 0.16364 0.176296
vn 0.108088 -0.57588 0.810358
vn -0.576759 0.3404690000000001 0.742583
vn 0.677067 0.45402800000000004 0.579171
vn 0.01893 -0.16790399999999994 0.985622
vn -0.010869 -0.19236099999999995 0.981264
vn 0.01893 -0.16790399999999994 0.985622
vn 0.048702 -0.14319299999999993 0.988496
vn -0.153687 0.09797000000000006 0.983251
vn -0.153404 0.15653400000000006 0.975687
vn -0.153687 0.09797000000000006 0.983251
vn -0.153434 0.039064000000000064 0.987387
vn 0.647321 -0.761412 -0.03503499999999995
vn 0.619802 -0.781878 -0.06717899999999996
vn 0.647321 -0.761412 -0.03503499999999995
vn 0.67341 -0.739264 -0.002813999999999955
vn -0.647105 0.761517 0.03670799999999995
vn -0.621165 0.783672 0.003590999999999952
vn -0.647105 0.761517 0.03670799999999995
vn -0.671582 0.737641 0.06974199999999996
vn 0.18124 0.980548 0.07535299999999995
vn 0.2445 0.969014 0.03510399999999994
vn 0.18124 0.980548 0.07535299999999995
vn 0.116937 0.986439 0.11516799999999995
vn -0.181316 -0.980541 -0.07525999999999994
vn -0.244209 -0.969082 -0.03524899999999994
vn -0.181316 -0.980541 -0.07525999999999994
vn -0.117391 -0.986423 -0.11484299999999995
vn 0.990577 -0.133164 -0.032021999999999995
vn 0.988045 -0.153721 0.01173000000000001
vn 0.990577 -0.133164 -0.032021999999999995
vn 0.990787 -0.112295 -0.075699
vn -0.990523 0.133391 0.03272799999999999
vn -0.990705 0.112446 0.076544
vn -0.990523 0.133391 0.03272799999999999
vn -0.988005 0.154021 -0.01116600000000001
vn 0.913814 0.399957 0.07056399999999997
vn -0.868045 0.496339 -0.012049000000000032
vn -0.465239 0.874784 0.13529699999999995
vn 0.927472 -0.29151 -0.23413299999999998
vn -0.857156 -0.515041 0.003990000000000031
vn 0.944031 -0.329736 0.00892200000000002
vn 0.752805 -0.635565 0.17129100000000003
vn -0.939678 -0.329776 -0.09084799999999998
vn 0.85823 0.512303 0.031400999999999964
vn -0.874286 0.480869 0.06625699999999997
vn -0.667715 0.707244 0.23229899999999995
vn 0.929278 0.23850499999999997 -0.28206
vn 0.490383 0.871501 0.0032649999999999468
vn -0.994665 -0.103092 -0.0037479999999999935
vn -0.895489 0.436791 0.08551999999999997
vn 0.922394 0.313574 -0.22552200000000003
vn -0.378564 -0.925569 0.003454000000000057
vn 0.95569 0.294269 0.007934999999999982
vn 0.98645 -0.07406399999999999 0.146396
vn -0.549328 -0.832143 -0.07600799999999995
vn 0.376965 0.92377 0.06742899999999995
vn -0.993282 -0.11565 0.0040880000000000066
vn -0.971772 0.164539 0.169076
vn 0.638471 0.729726 -0.24465300000000006
vn 0.753874 0.656809 0.016598999999999958
vn 0.744498 0.666068 0.04556199999999996
vn 0.753874 0.656809 0.016598999999999958
vn 0.762488 0.646884 -0.01238200000000004
vn -0.753737 -0.656984 -0.01589299999999996
vn -0.762294 -0.647102 0.01293000000000004
vn -0.753737 -0.656984 -0.01589299999999996
vn -0.744426 -0.666207 -0.044699999999999955
vn -0.606404 -0.794512 -0.03202199999999995
vn -0.623007 -0.782128 0.01173000000000005
vn -0.606404 -0.794512 -0.03202199999999995
vn -0.58838 -0.805033 -0.07569899999999995
vn 0.606575 0.794352 0.03272799999999995
vn 0.588471 0.804887 0.07654399999999995
vn 0.606575 0.794352 0.03272799999999995
vn 0.623248 0.781944 -0.01116600000000005
vn 0.752217 -0.658675 0.017812000000000043
vn 0.763955 -0.64498 -0.019333999999999962
vn 0.752217 -0.658675 0.017812000000000043
vn 0.739196 -0.671247 0.05492800000000004
vn -0.752046 0.658889 -0.017114000000000042
vn -0.739103 0.67142 -0.054058000000000044
vn -0.752046 0.658889 -0.017114000000000042
vn -0.763718 0.645244 0.019857999999999962
vn 0.248697 -0.966008 0.07056300000000006
vn 0.628748 0.777516 -0.012049000000000048
vn 0.937918 0.319379 0.13529899999999997
vn -0.436042 -0.868936 -0.23413299999999995
vn -0.371369 0.928477 0.003988999999999943
vn -0.476427 -0.879169 0.008922000000000053
vn -0.747751 -0.641504 0.17129300000000003
vn -0.175283 0.980318 -0.09084700000000005
vn 0.368491 -0.929101 0.031401000000000054
vn 0.614487 0.786139 0.06625799999999996
vn 0.804909 0.54604 0.23229599999999997
vn 0.086852 -0.955457 -0.28206099999999995
vn 0.731998 0.681075 -0.01774700000000004
vn 0.590305 0.788891 -0.17085200000000006
vn 0.731998 0.681075 -0.01774700000000004
vn 0.833327 0.535703 0.13633699999999999
vn -0.731966 -0.681094 0.018346000000000043
vn -0.833537 -0.535438 -0.13609899999999997
vn -0.731966 -0.681094 0.018346000000000043
vn -0.589855 -0.789028 0.17177600000000007
vn 0.890362 0.445806 -0.09226000000000002
vn 0.835742 0.521524 -0.17189600000000002
vn 0.890362 0.445806 -0.09226000000000002
vn 0.931575 0.363375 -0.011234000000000022
vn -0.890316 -0.445781 0.09282500000000003
vn -0.931715 -0.363009 0.011451000000000022
vn -0.890316 -0.445781 0.09282500000000003
vn -0.835396 -0.521784 0.17279000000000003
vn -0.16081 -0.986983 0.0019750000000000605
vn -0.004351 -0.992186 -0.12469499999999994
vn -0.16081 -0.986983 0.0019750000000000605
vn -0.310748 -0.941757 0.12856600000000007
vn 0.160769 0.986991 -0.0013800000000000604
vn 0.311084 0.94168 -0.12831900000000004
vn 0.160769 0.986991 -0.0013800000000000604
vn 0.003901 0.992071 0.12561499999999995
vn -0.435882 -0.900004 -0.00037399999999994485
vn -0.435953 -0.89997 -1.0999999999944892E-05
vn -0.435882 -0.900004 -0.00037399999999994485
vn -0.435812 -0.900038 -0.0007359999999999449
vn 0.43588 0.900005 -0.0003740000000000551
vn 0.43595 0.899971 -0.0007360000000000551
vn 0.43588 0.900005 -0.0003740000000000551
vn 0.43581 0.900039 -1.1000000000055111E-05
vn 0.876821 -0.408868 0.253005
vn 0.876821 -0.408868 0.253005
vn 0.876821 -0.408868 0.253005
vn 0.876821 -0.408868 0.253005
vn -0.906386 0.422339 0.009714999999999974
vn -0.906291 0.422537 0.009891999999999974
vn -0.906386 0.422339 0.009714999999999974
vn -0.906481 0.42214 0.009537999999999974
vn 0.903726 -0.428019 0.008861000000000027
vn 0.903582 -0.428328 0.008577000000000026
vn 0.903726 -0.428019 0.008861000000000027
vn 0.90387 -0.427709 0.009145000000000026
vn 0.418033 0.896304 0.14794299999999994
vn 0.418093 0.896262 0.14802699999999994
vn 0.418033 0.896304 0.14794299999999994
vn 0.417972 0.896346 0.14785999999999994
vn 0.90615 -0.42286 -0.009075999999999975
vn 0.906055 -0.423059 -0.009252999999999975
vn 0.90615 -0.42286 -0.009075999999999975
vn 0.906244 -0.422661 -0.008898999999999975
vn -0.903676 0.428125 -0.008911000000000027
vn -0.903818 0.427818 -0.009193000000000026
vn -0.903676 0.428125 -0.008911000000000027
vn -0.903533 0.428431 -0.008630000000000027
vn -0.4179 -0.896361 -0.14797399999999994
vn -0.41796 -0.89632 -0.14805599999999994
vn -0.4179 -0.896361 -0.14797399999999994
vn -0.41784 -0.896403 -0.14789099999999994
vn -0.995365 0.032806999999999996 -0.090405
vn -0.971567 0.236765 0.0002029999999999855
vn -0.977438 0.195009 -0.08115900000000001
vn -0.98719 -0.131225 -0.09074699999999998
vn 0.977464 -0.194942 0.08100400000000002
vn 0.971653 -0.236411 0.00020500000000001447
vn 0.995388 -0.03287799999999999 0.090126
vn 0.987203 0.131173 0.09068499999999999
vn -0.961809 -0.268688 -0.05225499999999999
vn -0.995365 0.032806999999999996 -0.090405
vn -0.98719 -0.131225 -0.09074699999999998
vn -0.969859 -0.243652 -0.002824999999999985
vn 0.987203 0.131173 0.09068499999999999
vn 0.995388 -0.03287799999999999 0.090126
vn 0.961783 0.268727 0.05251999999999998
vn 0.969747 0.244082 0.003847999999999985
vn -0.414871 -0.872538 0.25799200000000005
vn -0.424365 -0.867856 0.25834300000000004
vn -0.414871 -0.872538 0.25799200000000005
vn -0.40533 -0.877122 0.25761200000000006
vn -0.564924 -0.664141 0.4896710000000001
vn -0.707721 -0.47755899999999996 0.520642
vn -0.564924 -0.664141 0.4896710000000001
vn -0.390398 -0.813423 0.43119900000000005
vn -0.421365 -0.903614 0.07703100000000006
vn -0.421363 -0.903615 0.07703400000000006
vn -0.421365 -0.903614 0.07703100000000006
vn -0.421368 -0.903613 0.07702800000000005
vn 0 6.123233995736766E-17 1
vn 0 6.123233995736766E-17 1
vn 0 6.123233995736766E-17 1
vn 0 6.123233995736766E-17 1
vn 0.902824 -0.420994 0.08759500000000003
vn 0.902824 -0.420994 0.08759500000000003
vn 0.902824 -0.420994 0.08759500000000003
vn 0.902824 -0.420994 0.08759600000000002
vn 0 6.123233995736766E-17 1
vn 0 6.123233995736766E-17 1
vn 0 6.123233995736766E-17 1
vn 0 6.123233995736766E-17 1
vn -0.902858 0.42101 0.08716499999999998
vn -0.902858 0.42101 0.08716499999999998
vn -0.902858 0.42101 0.08716499999999998
vn -0.902858 0.42101 0.08716499999999998
vn -0.038466 -0.16933399999999996 0.984808
vn -0.038468 -0.16933399999999996 0.984808
vn -0.038466 -0.16933399999999996 0.984808
vn -0.038465 -0.16933299999999996 0.984808
vn -0.133719 -0.986453 -0.09502999999999995
vn 0.453646 -0.884563 -0.10841699999999994
vn -0.870048 -0.492762 -0.014230999999999971
vn -0.984483 0.165848 0.05734199999999999
vn -0.157379 0.07338700000000005 0.984808
vn -0.157378 0.07338700000000005 0.984808
vn -0.157379 0.07338700000000005 0.984808
vn -0.15738 0.07338600000000006 0.984808
vn 0.720816 0.686179 0.09789499999999995
vn -0.746859 0.662654 -0.05560500000000004
vn -0.105413 0.994161 0.02308499999999994
vn 0.974026 0.199424 0.10725299999999999
vn -0.720536 -0.686219 -0.09965599999999995
vn 0.746936 -0.662667 0.05439700000000004
vn 0.105556 -0.994136 -0.023481999999999937
vn -0.973767 -0.199461 -0.10951599999999999
vn -8.7E-05 4.100000000006123E-05 1
vn -8.7E-05 4.100000000006123E-05 1
vn -8.7E-05 4.100000000006123E-05 1
vn -8.7E-05 4.100000000006123E-05 1
vn -0.932978 0.351241 0.07861999999999997
vn -0.933363 0.349926 0.07990899999999997
vn -0.987926 0.1312 0.08239399999999998
vn -0.996691 -0.068298 0.044083000000000004
vn -0.961208 -0.274743 0.02441700000000002
vn -0.975526 -0.218071 -0.028175999999999986
vn 0.902735 -0.42935 0.026966000000000028
vn -0.08552 0.996294 -0.00922400000000006
vn -0.015976 0.999871 -0.0015510000000000612
vn 0.898623 -0.430781 0.08309400000000003
vn 0.854119 0.08543900000000003 0.513011
vn 0.984289 0.175054 0.02307299999999999
vn -0.625832 0.779924 -0.007316000000000047
vn -0.566504 0.824056 0.0023149999999999495
vn 0.982884 0.169617 0.07190099999999999
vn 0.782584 0.525448 0.33386599999999994
vn -0.568166 -0.822472 0.026966000000000052
vn 0.997151 -0.074868 -0.009223999999999994
vn 0.989563 -0.144096 -0.001549999999999991
vn -0.568924 -0.818182 0.08309300000000006
vn -0.052501 -0.856789 0.512988
vn 0.853654 0.331587 0.401652
vn 0.610305 0.23196800000000006 0.757442
vn 0.525206 -0.25185899999999994 0.812851
vn 0.845375 -0.399282 0.354844
vn 0.524191 -0.24085199999999996 0.816832
vn 0.567655 -0.711287 0.41453300000000004
vn -0.004233 -0.578249 0.815849
vn -0.220381 0.63128 0.743585
vn -0.304057 0.875827 0.37480199999999997
vn -0.844039 0.442777 0.302567
vn -0.523075 0.26633500000000004 0.809604
vn -0.859484 0.409707 0.305658
vn -0.418998 0.20098300000000005 0.885464
vn -0.751458 -0.01286799999999996 0.659655
vn -0.748927 -0.54134 0.38217700000000004
vn 0.421363 0.903615 0.07702699999999994
vn 0.421363 0.903615 0.07702699999999994
vn 0.42136 0.903616 0.07702899999999994
vn 0.421359 0.903617 0.07703099999999995
vn 0.421356 0.903618 0.07703499999999995
vn -0.040461 -0.14504699999999995 0.988597
vn -0.029182 -0.17822299999999994 0.983557
vn -0.056458 -0.14343299999999995 0.988048
vn -0.054525 -0.11567199999999994 0.99179
vn -0.039944 -0.11929199999999994 0.992055
vn -0.071349 -0.09020599999999994 0.993364
vn 0.996745 0.067955 -0.04338000000000001
vn 0.975631 0.21744 0.029394999999999987
vn 0.961307 0.274475 -0.023526000000000016
vn 0.987934 -0.131189 -0.08231999999999999
vn 0.932957 -0.35126 -0.07879199999999997
vn 0.933463 -0.349525 -0.08049299999999997
vn -0.52825 -0.849085 0.002528000000000052
vn -0.999654 -0.020963 -0.015901
vn 0.902735 -0.42935 0.026966000000000028
vn 0.898623 -0.430781 0.08309400000000003
vn 0.854119 0.08543900000000003 0.513011
vn -0.411492 -0.835769 0.36354400000000003
vn -0.274691 -0.952205 -0.13360599999999995
vn 0.916906 0.396037 0.049383999999999977
vn 0.927472 -0.29151 -0.23413299999999998
vn -0.395959 -0.913862 0.08984600000000005
vn 0.843098 -0.492845 0.21515000000000004
vn 0.324492 -0.908341 -0.26385999999999993
vn 0.739991 0.672293 -0.02089700000000004
vn 0.929278 0.23850499999999997 -0.28206
vn 0.033748 -0.99673 -0.07341499999999994
vn 0.118683 -0.99292 0.004837000000000061
vn -0.813917 -0.580814 -0.013918999999999964
vn 0.984289 0.175054 0.02307299999999999
vn 0.982884 0.169617 0.07190099999999999
vn 0.782584 0.525448 0.33386599999999994
vn 0.08424 -0.805155 0.587051
vn 0.35145 -0.934516 -0.05624699999999994
vn 0.509202 0.860574 -0.011231000000000052
vn 0.922394 0.313574 -0.22552200000000003
vn 0.190445 -0.968276 0.16178100000000006
vn 0.968989 0.031264000000000014 0.245117
vn 0.797115 -0.559911 -0.22606999999999997
vn 0.189325 0.981874 -0.008970000000000061
vn 0.638471 0.729726 -0.24465300000000006
vn 0.590347 -0.806471 -0.03307999999999995
vn -0.753707 0.657205 0.0025289999999999597
vn 0.13912 0.990148 -0.01590000000000006
vn -0.568166 -0.822472 0.026966000000000052
vn -0.568924 -0.818182 0.08309300000000006
vn -0.052501 -0.856789 0.512988
vn -0.759206 0.539806 0.36361399999999994
vn -0.896038 0.423397 -0.13360800000000003
vn 0.244337 -0.968432 0.049383000000000066
vn -0.436042 -0.868936 -0.23413299999999995
vn -0.838792 0.536987 0.08985099999999997
vn -0.621379 -0.753395 0.21513500000000005
vn -0.948541 -0.17507300000000003 -0.263857
vn 0.54532 -0.837967 -0.02090299999999995
vn 0.086852 -0.955457 -0.28206099999999995
vn -0.989305 0.126041 -0.07341700000000001
vn -0.418998 0.20098300000000005 0.885464
vn -0.751458 -0.01286799999999996 0.659655
vn -0.004233 -0.578249 0.815849
vn 0.524191 -0.24085199999999996 0.816832
vn -0.523075 0.26633500000000004 0.809604
vn 0.525206 -0.25185899999999994 0.812851
vn -0.220381 0.63128 0.743585
vn 0.610305 0.23196800000000006 0.757442
vn 0.359739 0.47924800000000006 0.800568
vn 0.14527 0.0003060000000000606 0.989392
vn 0.702357 -0.27403799999999995 0.656961
vn -0.362775 0.22458300000000006 0.90441
vn -0.097491 -0.45027599999999995 0.887551
vn 0.702357 -0.27403799999999995 0.656961
g 01
f 1/1/1 2/2/2 3/3/3
f 4/4/4 5/5/5 6/6/6
f 7/7/7 8/8/8 9/9/9
f 10/10/10 11/11/11 12/12/12
f 13/13/13 14/14/14 15/15/15
f 16/16/16 17/17/17 18/18/18
f 19/19/19 20/20/20 21/21/21
f 22/22/22 23/23/23 24/24/24
f 25/25/25 26/26/26 27/27/27
f 28/28/28 29/29/29 30/30/30
f 31/31/31 32/32/32 33/33/33
f 34/34/34 35/35/35 36/36/36
f 37/37/37 38/38/38 39/39/39
f 40/40/40 41/41/41 42/42/42
f 43/43/43 44/44/44 45/45/45
f 46/46/46 47/47/47 48/48/48
f 49/49/49 50/50/50 51/51/51
f 52/52/52 53/53/53 54/54/54
f 55/55/55 56/56/56 57/57/57
f 58/58/58 59/59/59 60/60/60
f 61/61/61 62/62/62 63/63/63
f 64/64/64 65/65/65 66/66/66
f 67/67/67 68/68/68 69/69/69
f 70/70/70 71/71/71 72/72/72
f 73/73/73 74/74/74 75/75/75
f 76/76/76 77/77/77 78/78/78
f 79/79/79 80/80/80 81/81/81
f 82/82/82 83/83/83 84/84/84
f 85/85/85 86/86/86 87/87/87
f 88/88/88 89/89/89 90/90/90
f 91/91/91 92/92/92 93/93/93
f 94/94/94 95/95/95 91/91/91
f 96/96/96 97/97/97 98/98/98
f 98/98/98 99/99/99 100/100/100
f 101/101/101 102/102/102 103/103/103
f 103/103/103 104/104/104 105/105/105
f 106/106/106 107/107/107 108/108/108
f 108/108/108 109/109/109 110/110/110
f 111/111/111 112/112/112 113/113/113
f 113/113/113 114/114/114 115/115/115
f 116/116/116 117/117/117 118/118/118
f 118/118/118 119/119/119 120/120/120
f 121/121/121 122/122/122 123/123/123
f 124/124/124 123/123/123 125/125/125
f 126/126/126 127/127/127 124/124/124
f 128/128/128 129/129/129 130/130/130
f 129/129/129 131/131/131 132/132/132
f 133/133/133 134/134/134 135/135/135
f 136/136/136 135/135/135 137/137/137
f 138/138/138 139/139/139 136/136/136
f 140/140/140 141/141/141 142/142/142
f 143/143/143 144/144/144 140/140/140
f 145/145/145 146/146/146 147/147/147
f 147/147/147 148/148/148 149/149/149
f 150/150/150 151/151/151 152/152/152
f 152/152/152 153/153/153 154/154/154
f 155/155/155 156/156/156 157/157/157
f 157/157/157 158/158/158 159/159/159
f 160/160/160 161/161/161 162/162/162
f 162/162/162 163/163/163 164/164/164
f 165/165/165 166/166/166 167/167/167
f 167/167/167 168/168/168 169/169/169
f 170/170/170 171/171/171 172/172/172
f 173/173/173 172/172/172 174/174/174
f 175/175/175 176/176/176 173/173/173
f 177/177/177 178/178/178 179/179/179
f 180/180/180 179/179/179 181/181/181
f 182/182/182 183/183/183 180/180/180
f 184/184/184 185/185/185 186/186/186
f 187/187/187 188/188/188 184/184/184
f 189/189/189 190/190/190 191/191/191
f 191/191/191 192/192/192 193/193/193
f 194/194/194 195/195/195 196/196/196
f 196/196/196 197/197/197 198/198/198
f 199/199/199 200/200/200 201/201/201
f 201/201/201 202/202/202 203/203/203
f 204/204/204 205/205/205 206/206/206
f 206/206/206 207/207/207 208/208/208
f 209/209/209 210/210/210 211/211/211
f 211/211/211 212/212/212 213/213/213
f 214/214/214 215/215/215 216/216/216
f 217/217/217 216/216/216 218/218/218
f 219/219/219 220/220/220 217/217/217
f 221/221/221 222/222/222 223/223/223
f 222/222/222 224/224/224 225/225/225
f 226/226/226 227/227/227 228/228/228
f 229/229/229 228/228/228 230/230/230
f 231/231/231 232/232/232 229/229/229
f 233/233/233 234/234/234 235/235/235
f 236/236/236 234/234/234 237/237/237
f 237/237/237 238/238/238 236/236/236
f 238/238/238 237/237/237 239/239/239
f 240/240/240 241/241/241 237/237/237
f 239/239/239 242/242/242 243/243/243
f 242/242/242 244/244/244 245/245/245
f 246/246/246 247/247/247 242/242/242
f 248/248/248 249/249/249 250/250/250
f 251/251/251 252/252/252 248/248/248
f 253/253/253 254/254/254 255/255/255
f 255/255/255 256/256/256 257/257/257
f 258/258/258 259/259/259 260/260/260
f 260/260/260 261/261/261 262/262/262
f 261/261/261 263/263/263 264/264/264
f 265/265/265 266/266/266 261/261/261
f 267/267/267 268/268/268 269/269/269
f 269/269/269 270/270/270 271/271/271
f 272/272/272 273/273/273 274/274/274
f 275/275/275 276/276/276 272/272/272
f 277/277/277 278/278/278 279/279/279
f 280/280/280 281/281/281 277/277/277
f 282/282/282 283/283/283 284/284/284
f 284/284/284 285/285/285 286/286/286
f 287/287/287 288/288/288 289/289/289
f 289/289/289 290/290/290 291/291/291
f 292/292/292 293/293/293 294/294/294
f 294/294/294 295/295/295 296/296/296
f 297/297/297 298/298/298 299/299/299
f 300/300/300 301/301/301 298/298/298
f 298/298/298 302/302/302 303/303/303
f 304/304/304 305/305/305 306/306/306
f 307/307/307 308/308/308 305/305/305
f 305/305/305 309/309/309 310/310/310
f 311/311/311 312/312/312 313/313/313
f 314/314/314 315/315/315 312/312/312
f 312/312/312 316/316/316 317/317/317
f 318/318/318 319/319/319 320/320/320
f 321/321/321 322/322/322 318/318/318
f 323/323/323 318/318/318 322/322/322
f 322/322/322 324/324/324 323/323/323
f 325/325/325 326/326/326 322/322/322
f 326/326/326 327/327/327 328/328/328
f 328/328/328 329/329/329 326/326/326
f 330/330/330 331/331/331 332/332/332
f 332/332/332 333/333/333 334/334/334
f 335/335/335 333/333/333 332/332/332
f 333/333/333 335/335/335 336/336/336
f 336/336/336 337/337/337 333/333/333
f 333/333/333 337/337/337 338/338/338
f 338/338/338 339/339/339 333/333/333
f 340/340/340 338/338/338 341/341/341
f 342/342/342 343/343/343 340/340/340
f 344/344/344 340/340/340 341/341/341
f 340/340/340 344/344/344 342/342/342
f 341/341/341 345/345/345 344/344/344
f 346/346/346 342/342/342 344/344/344
f 344/344/344 345/345/345 346/346/346
f 347/347/347 348/348/348 349/349/349
f 350/350/350 351/351/351 347/347/347
f 352/352/352 353/353/353 347/347/347
f 354/354/354 353/353/353 352/352/352
f 347/347/347 355/355/355 352/352/352
f 352/352/352 356/356/356 354/354/354
f 356/356/356 352/352/352 355/355/355
f 355/355/355 357/357/357 356/356/356
f 358/358/358 359/359/359 360/360/360
f 360/360/360 361/361/361 362/362/362
f 362/362/362 363/363/363 360/360/360
f 360/360/360 363/363/363 364/364/364
f 365/365/365 366/366/366 363/363/363
f 363/363/363 367/367/367 365/365/365
f 368/368/368 369/369/369 370/370/370
f 371/371/371 372/372/372 368/368/368
f 373/373/373 374/374/374 368/368/368
f 375/375/375 374/374/374 373/373/373
f 368/368/368 376/376/376 373/373/373
f 373/373/373 377/377/377 375/375/375
f 377/377/377 373/373/373 376/376/376
f 376/376/376 378/378/378 377/377/377
f 379/379/379 380/380/380 381/381/381
f 381/381/381 382/382/382 379/379/379
f 383/383/383 384/384/384 385/385/385
f 385/385/385 386/386/386 383/383/383
f 387/387/387 388/388/388 389/389/389
f 389/389/389 390/390/390 387/387/387
f 391/391/391 392/392/392 393/393/393
f 393/393/393 394/394/394 391/391/391
f 395/395/395 396/396/396 397/397/397
f 397/397/397 398/398/398 395/395/395
f 399/399/399 400/400/400 401/401/401
f 401/401/401 402/402/402 399/399/399
f 403/403/403 404/404/404 405/405/405
f 405/405/405 406/406/406 403/403/403
f 407/407/407 408/408/408 409/409/409
f 409/409/409 410/410/410 407/407/407
f 411/411/411 412/412/412 413/413/413
f 413/413/413 414/414/414 411/411/411
f 415/415/415 416/416/416 417/417/417
f 417/417/417 418/418/418 415/415/415
f 419/419/419 420/420/420 421/421/421
f 421/421/421 422/422/422 419/419/419
f 423/423/423 424/424/424 425/425/425
f 425/425/425 426/426/426 423/423/423
f 427/427/427 428/428/428 429/429/429
f 429/429/429 430/430/430 427/427/427
f 431/431/431 432/432/432 433/433/433
f 433/433/433 434/434/434 431/431/431
f 435/435/435 436/436/436 437/437/437
f 437/437/437 438/438/438 435/435/435
f 439/439/439 440/440/440 441/441/441
f 441/441/441 442/442/442 439/439/439
f 443/443/443 444/444/444 445/445/445
f 445/445/445 446/446/446 443/443/443
f 447/447/447 448/448/448 449/449/449
f 449/449/449 450/450/450 447/447/447
f 451/451/451 452/452/452 453/453/453
f 453/453/453 454/454/454 451/451/451
f 455/455/455 456/456/456 457/457/457
f 457/457/457 458/458/458 455/455/455
f 459/459/459 460/460/460 461/461/461
f 461/461/461 462/462/462 459/459/459
f 463/463/463 464/464/464 465/465/465
f 465/465/465 466/466/466 463/463/463
f 467/467/467 468/468/468 469/469/469
f 469/469/469 470/470/470 467/467/467
f 471/471/471 472/472/472 473/473/473
f 473/473/473 474/474/474 471/471/471
f 475/475/475 476/476/476 477/477/477
f 477/477/477 478/478/478 475/475/475
f 479/479/479 480/480/480 481/481/481
f 481/481/481 482/482/482 479/479/479
f 483/483/483 484/484/484 485/485/485
f 485/485/485 486/486/486 483/483/483
f 487/487/487 488/488/488 489/489/489
f 489/489/489 490/490/490 487/487/487
f 491/491/491 492/492/492 493/493/493
f 493/493/493 494/494/494 491/491/491
f 495/495/495 496/496/496 497/497/497
f 497/497/497 498/498/498 495/495/495
f 499/499/499 500/500/500 501/501/501
f 501/501/501 502/502/502 499/499/499
f 503/503/503 504/504/504 505/505/505
f 505/505/505 506/506/506 503/503/503
f 507/507/507 508/508/508 509/509/509
f 509/509/509 510/510/510 507/507/507
f 511/511/511 512/512/512 513/513/513
f 513/513/513 514/514/514 511/511/511
f 515/515/515 516/516/516 517/517/517
f 517/517/517 518/518/518 515/515/515
f 519/519/519 520/520/520 521/521/521
f 521/521/521 522/522/522 519/519/519
f 523/523/523 524/524/524 525/525/525
f 525/525/525 526/526/526 523/523/523
f 527/527/527 528/528/528 529/529/529
f 529/529/529 530/530/530 527/527/527
f 531/531/531 532/532/532 533/533/533
f 533/533/533 534/534/534 531/531/531
f 535/535/535 536/536/536 537/537/537
f 537/537/537 538/538/538 535/535/535
f 539/539/539 540/540/540 541/541/541
f 541/541/541 542/542/542 539/539/539
f 543/543/543 544/544/544 545/545/545
f 545/545/545 546/546/546 543/543/543
f 547/547/547 548/548/548 549/549/549
f 549/549/549 550/550/550 547/547/547
f 551/551/551 552/552/552 553/553/553
f 553/553/553 554/554/554 551/551/551
f 555/555/555 556/556/556 557/557/557
f 557/557/557 558/558/558 555/555/555
f 559/559/559 560/560/560 561/561/561
f 561/561/561 562/562/562 559/559/559
f 563/563/563 564/564/564 565/565/565
f 565/565/565 566/566/566 563/563/563
f 567/567/567 568/568/568 569/569/569
f 569/569/569 570/570/570 567/567/567
f 571/571/571 572/572/572 573/573/573
f 573/573/573 574/574/574 571/571/571
f 575/575/575 576/576/576 577/577/577
f 577/577/577 578/578/578 575/575/575
f 579/579/579 580/580/580 581/581/581
f 581/581/581 582/582/582 579/579/579
f 583/583/583 584/584/584 585/585/585
f 585/585/585 586/586/586 583/583/583
f 587/587/587 588/588/588 589/589/589
f 589/589/589 590/590/590 587/587/587
f 591/591/591 592/592/592 593/593/593
f 593/593/593 594/594/594 591/591/591
f 595/595/595 596/596/596 597/597/597
f 597/597/597 598/598/598 595/595/595
f 599/599/599 600/600/600 601/601/601
f 601/601/601 602/602/602 599/599/599
f 602/602/602 601/601/601 603/603/603
f 603/603/603 604/604/604 602/602/602
f 605/605/605 606/606/606 607/607/607
f 607/607/607 608/608/608 605/605/605
f 609/609/609 608/608/608 607/607/607
f 610/610/610 611/611/611 612/612/612
f 612/612/612 613/613/613 610/610/610
f 614/614/614 613/613/613 612/612/612
f 615/615/615 616/616/616 617/617/617
f 617/617/617 618/618/618 615/615/615
f 619/619/619 618/618/618 617/617/617
f 620/620/620 621/621/621 622/622/622
f 622/622/622 623/623/623 620/620/620
f 623/623/623 622/622/622 624/624/624
f 625/625/625 623/623/623 624/624/624
f 624/624/624 626/626/626 625/625/625
f 627/627/627 628/628/628 629/629/629
f 629/629/629 630/630/630 627/627/627
f 630/630/630 629/629/629 631/631/631
f 631/631/631 632/632/632 630/630/630
f 633/633/633 632/632/632 631/631/631
f 631/631/631 634/634/634 633/633/633
f 635/635/635 636/636/636 637/637/637
f 636/636/636 638/638/638 637/637/637
f 638/638/638 639/639/639 637/637/637
f 640/640/640 641/641/641 642/642/642
f 642/642/642 643/643/643 640/640/640
f 644/644/644 640/640/640 643/643/643
f 643/643/643 645/645/645 644/644/644
f 646/646/646 647/647/647 648/648/648
f 648/648/648 649/649/649 646/646/646
f 650/650/650 646/646/646 649/649/649
f 649/649/649 651/651/651 650/650/650
f 652/652/652 653/653/653 654/654/654
f 654/654/654 655/655/655 652/652/652
f 652/652/652 655/655/655 656/656/656
f 657/657/657 658/658/658 659/659/659
f 660/660/660 659/659/659 658/658/658
f 658/658/658 661/661/661 660/660/660
f 662/662/662 663/663/663 664/664/664
f 665/665/665 664/664/664 663/663/663
f 663/663/663 666/666/666 665/665/665
f 667/667/667 668/668/668 669/669/669
f 669/669/669 670/670/670 667/667/667
f 667/667/667 670/670/670 671/671/671
f 672/672/672 673/673/673 674/674/674
f 675/675/675 674/674/674 673/673/673
f 673/673/673 676/676/676 675/675/675
f 677/677/677 678/678/678 679/679/679
f 680/680/680 679/679/679 678/678/678
f 678/678/678 681/681/681 680/680/680
f 682/682/682 683/683/683 684/684/684
f 684/684/684 685/685/685 682/682/682
f 682/682/682 685/685/685 686/686/686
f 687/687/687 688/688/688 689/689/689
f 690/690/690 689/689/689 688/688/688
f 688/688/688 691/691/691 690/690/690
f 692/692/692 693/693/693 694/694/694
f 695/695/695 694/694/694 693/693/693
f 693/693/693 696/696/696 695/695/695
f 697/697/697 698/698/698 699/699/699
f 699/699/699 700/700/700 697/697/697
f 701/701/701 697/697/697 700/700/700
f 700/700/700 702/702/702 701/701/701
f 703/703/703 701/701/701 702/702/702
f 702/702/702 704/704/704 703/703/703
f 705/705/705 706/706/706 707/707/707
f 706/706/706 705/705/705 708/708/708
f 708/708/708 709/709/709 706/706/706
f 710/710/710 706/706/706 709/709/709
