v -0.699879 0.09159100000000003 0.501638
v -0.855384 0.121375 -0.028642000000000008
v -0.407236 0.058012 -0.035918000000000005
v -0.509133 0.09622300000000004 0.678114
v -0.251695 -0.237631 -0.035917999999999985
v -0.70854 -0.355681 -0.03591799999999998
v -0.518006 -0.346178 0.431866
v -0.3241 -0.3479149999999999 0.584601
v 0.590476 -0.015779000000000005 -0.035918
v 1.017234 0.0018069999999999983 -0.028642
v 0.794834 0.09159100000000003 0.501638
v 0.599009 0.04032300000000002 0.31323
v 0.604089 0.09622300000000004 0.678114
v 0.47493 -0.296857 0.285822
v 0.419055 -0.3479149999999999 0.584601
v 0.612961 -0.346178 0.431866
v 0.465727 -0.281569 -0.035917999999999985
v 0.803495 -0.355681 -0.03591799999999998
v 0.794834 0.09159100000000003 0.501638
v 1.017234 0.0018069999999999983 -0.028642
v 0.849429 0.278237 -0.02682100000000002
v 0.619573 0.46353600000000006 0.48650599999999994
v 0.627479 0.704411 0.532883
v 0.77553 0.530734 -0.02522000000000003
v 0.58555 -0.567511 -0.032824999999999965
v 0.803495 -0.355681 -0.03591799999999998
v 0.612961 -0.346178 0.431866
v 0.488045 -0.590294 0.38937400000000005
v 0.320022 -0.867632 0.35389000000000004
v 0.452366 -0.915434 -0.029612999999999945
v 0.223505 -1.044124 -0.03269999999999994
v 0.047478 -1.079029 0.35466700000000007
v 0.047478 -1.194586 -0.03591799999999992
v -0.151377 -1.022396 -0.03269999999999994
v -0.225066 -0.867632 0.35389000000000004
v -0.326405 -0.897612 -0.029612999999999945
v -0.513788 -0.585724 -0.032824999999999965
v -0.416283 -0.608508 0.3893730000000001
v -0.518006 -0.346178 0.431866
v -0.70854 -0.355681 -0.03591799999999998
v -0.699879 0.09159100000000003 0.501638
v -0.754474 0.278237 -0.02682100000000002
v -0.855384 0.121375 -0.028642000000000008
v -0.524617 0.46353600000000006 0.48650599999999994
v -0.532523 0.704411 0.532883
v -0.680574 0.530734 -0.02522000000000003
v 0.599009 0.04032300000000002 0.31323
v 0.604089 0.09622300000000004 0.678114
v 0.482449 -0.12385699999999995 0.617216
v 0.419055 -0.3479149999999999 0.584601
v 0.47493 -0.296857 0.285822
v 0.528425 -0.173833 -0.01837999999999999
v 0.465727 -0.281569 -0.035917999999999985
v 0.590476 -0.015779000000000005 -0.035918
vt 0.881873 0.668539
vt 0.803747 0.860346
vt 0.991070 0.860346
vt 0.961381 0.605912
vt 0.991070 0.860346
vt 0.803747 0.860346
vt 0.881873 0.668539
vt 0.961381 0.605912
vt 0.796724 0.958120
vt 0.788608 0.783273
vt 0.610914 0.865100
vt 0.667098 0.954333
vt 0.553758 0.947299
vt 0.667098 0.954333
vt 0.553758 0.947299
vt 0.610914 0.865100
vt 0.796724 0.958120
vt 0.788608 0.783273
vt 0.206808 0.061862
vt 0.230541 0.311380
vt 0.153499 0.354373
vt 0.126790 0.113831
vt 0.014165 0.176149
vt 0.095249 0.382104
vt 0.325563 0.021448
vt 0.215301 0.022467
vt 0.266180 0.228184
vt 0.375569 0.196917
vt 0.476176 0.176172
vt 0.477672 0.010403
vt 0.553504 0.019799
vt 0.623600 0.179972
vt 0.645346 0.014406
vt 0.553504 0.019799
vt 0.476176 0.176172
vt 0.477672 0.010403
vt 0.325563 0.021448
vt 0.375569 0.196917
vt 0.266180 0.228184
vt 0.215301 0.022467
vt 0.014165 0.176149
vt 0.153499 0.354373
vt 0.095249 0.382104
vt 0.126790 0.113831
vt 0.206808 0.061862
vt 0.230541 0.311380
vt 0.578831 0.695446
vt 0.578725 0.826143
vt 0.493779 0.799038
vt 0.414246 0.776519
vt 0.450414 0.668782
vt 0.512337 0.563230
vt 0.470864 0.552642
vt 0.570619 0.565654
vn -0.843025 -0.477656 0.24729100000000004
vn -0.872013 -0.431282 0.23149500000000003
vn -0.081417 -0.996519 0.017926000000000063
vn -0.022251 -0.998488 0.05025900000000006
vn -0.184022 0.975376 0.12156699999999994
vn -0.880338 0.317836 0.352116
vn -0.856501 0.407465 0.316824
vn -0.117608 0.980012 0.16045299999999996
vn 0.415677 -0.898068 0.14382500000000006
vn 0.796193 -0.445536 0.409359
vn 0.656196 -0.678315 0.33059900000000003
vn 0.73565 -0.668022 0.11210000000000005
vn 0.548439 -0.827657 0.11916100000000006
vn 0.98726 0.10553100000000001 0.119081
vn 0.822543 0.514744 0.24178799999999998
vn 0.755985 0.600235 0.2611609999999999
vn 0.694518 0.718933 0.027915999999999955
vn 0.888078 0.291059 0.355813
vn 0.656196 -0.678315 0.33059900000000003
vn 0.796193 -0.445536 0.409359
vn 0.916091 0.280557 0.28647
vn 0.921158 0.16065100000000002 0.354483
vn 0.946488 0.08350100000000002 0.31175
vn 0.946825 0.276064 0.16525999999999996
vn 0.823327 -0.51153 0.24590600000000004
vn 0.888078 0.291059 0.355813
vn 0.755985 0.600235 0.2611609999999999
vn 0.849528 -0.499662 0.16923100000000002
vn 0.722688 -0.64271 0.25425600000000004
vn 0.713281 -0.621682 0.32363900000000007
vn 0.569285 -0.789055 0.23088300000000006
vn -0.00196 -0.963888 0.26630000000000004
vn -0.003373 -0.958907 0.28370000000000006
vn -0.601467 -0.771135 0.20877900000000005
vn -0.706077 -0.67731 0.20665600000000003
vn -0.711802 -0.660213 0.23970200000000003
vn -0.818863 -0.526767 0.22798900000000002
vn -0.85219 -0.494809 0.17010800000000004
vn -0.856501 0.407465 0.316824
vn -0.880338 0.317836 0.352116
vn -0.843025 -0.477656 0.24729100000000004
vn -0.913813 0.286047 0.28831
vn -0.872013 -0.431282 0.23149500000000003
vn -0.921158 0.16065100000000002 0.354483
vn -0.946488 0.08350100000000002 0.31175
vn -0.946825 0.276064 0.16525999999999996
vn 0.73565 -0.668022 0.11210000000000005
vn 0.548439 -0.827657 0.11916100000000006
vn 0.917024 -0.380632 0.11910600000000003
vn 0.822543 0.514744 0.24178799999999998
vn 0.98726 0.10553100000000001 0.119081
vn 0.915116 -0.403171 0.0038550000000000246
vn 0.694518 0.718933 0.027915999999999955
vn 0.415677 -0.898068 0.14382500000000006
g 01
f 1/1/1 2/2/2 3/3/3
f 3/3/3 4/4/4 1/1/1
f 5/5/5 6/6/6 7/7/7
f 7/7/7 8/8/8 5/5/5
f 9/9/9 10/10/10 11/11/11
f 11/11/11 12/12/12 9/9/9
f 13/13/13 12/12/12 11/11/11
f 14/14/14 15/15/15 16/16/16
f 17/17/17 14/14/14 16/16/16
f 16/16/16 18/18/18 17/17/17
f 19/19/19 20/20/20 21/21/21
f 21/21/21 22/22/22 19/19/19
f 23/23/23 22/22/22 21/21/21
f 21/21/21 24/24/24 23/23/23
f 25/25/25 26/26/26 27/27/27
f 27/27/27 28/28/28 25/25/25
f 25/25/25 28/28/28 29/29/29
f 29/29/29 30/30/30 25/25/25
f 31/31/31 30/30/30 29/29/29
f 32/32/32 31/31/31 29/29/29
f 32/32/32 33/33/33 31/31/31
f 32/32/32 34/34/34 33/33/33
f 34/34/34 32/32/32 35/35/35
f 35/35/35 36/36/36 34/34/34
f 35/35/35 37/37/37 36/36/36
f 38/38/38 37/37/37 35/35/35
f 38/38/38 39/39/39 37/37/37
f 39/39/39 40/40/40 37/37/37
f 41/41/41 42/42/42 43/43/43
f 44/44/44 42/42/42 41/41/41
f 42/42/42 44/44/44 45/45/45
f 45/45/45 46/46/46 42/42/42
f 47/47/47 48/48/48 49/49/49
f 49/49/49 50/50/50 51/51/51
f 47/47/47 49/49/49 51/51/51
f 47/47/47 51/51/51 52/52/52
f 51/51/51 53/53/53 52/52/52
f 54/54/54 47/47/47 52/52/52
