v 1.11528 -0.576047 0.19365300000000002
v 1.092967 -0.602476 0.20069400000000004
v 1.125297 -0.605058 0.18997900000000004
v 1.043053 -0.580534 -0.03641599999999996
v 1.11528 -0.576047 0.19365300000000002
v 1.125297 -0.605058 0.18997900000000004
v 1.125297 -0.605058 0.18997900000000004
v 1.053735 -0.610088 -0.03989899999999996
v 1.043053 -0.580534 -0.03641599999999996
v 0.978945 0.02622500000000001 0.193653
v 0.956633 -0.00020399999999998772 0.200694
v 0.988963 -0.002785999999999988 0.189979
v 0.906719 0.021737999999999997 -0.036416
v 0.978945 0.02622500000000001 0.193653
v 0.988963 -0.002785999999999988 0.189979
v 0.988963 -0.002785999999999988 0.189979
v 0.917401 -0.007816000000000002 -0.039899
v 0.906719 0.021737999999999997 -0.036416
v 0.094778 0.414792 0.23298499999999997
v 0.107803 0.375049 0.24514499999999997
v 0.136075 0.410746 0.24253299999999997
v 0.143492 0.348281 -0.041619000000000024
v 0.094778 0.414792 0.23298499999999997
v 0.136075 0.410746 0.24253299999999997
v 0.136075 0.410746 0.24253299999999997
v 0.184237 0.344327 -0.03397200000000002
v 0.143492 0.348281 -0.041619000000000024
v 0.306517 -0.362612 -0.030429999999999978
v 0.210971 -0.40880899999999987 1.439905
v 0.237073 -0.4185289999999999 1.442279
v 0.237073 -0.4185289999999999 1.442279
v 0.332703 -0.372591 -0.028524999999999974
v 0.306517 -0.362612 -0.030429999999999978
v 0.672192 0.424059 0.19365299999999996
v 0.686714 0.392667 0.20069399999999998
v 0.702718 0.420877 0.18997899999999998
v 0.645734 0.356703 -0.036415000000000024
v 0.672192 0.424059 0.19365299999999996
v 0.702718 0.420877 0.18997899999999998
v 0.702718 0.420877 0.18997899999999998
v 0.677033 0.353895 -0.03989900000000002
v 0.645734 0.356703 -0.036415000000000024
v 0.342543 0.529219 0.23829099999999998
v 0.358395 0.491237 0.25035199999999996
v 0.381866 0.526448 0.24058899999999997
v 0.344795 0.441558 -0.03952000000000003
v 0.342543 0.529219 0.23829099999999998
v 0.381866 0.526448 0.24058899999999997
v 0.381866 0.526448 0.24058899999999997
v 0.38435 0.439154 -0.037971000000000026
v 0.344795 0.441558 -0.03952000000000003
v 1.119987 0.135521 -0.013888000000000008
v 1.183793 0.25073500000000004 0.751771
v 1.206894 0.23518800000000006 0.749239
v 1.206894 0.23518800000000006 0.749239
v 1.143715 0.120262 -0.014329000000000007
v 1.119987 0.135521 -0.013888000000000008
v 1.272828 -0.450639 -0.007773999999999972
v 1.444995 -0.516029 0.732894
v 1.472212 -0.531237 0.721824
v 1.472212 -0.531237 0.721824
v 1.299149 -0.465236 -0.014977999999999972
v 1.272828 -0.450639 -0.007773999999999972
v 0.934029 -0.988168 0.26022600000000007
v 0.951827 -1.025576 0.25122000000000005
v 0.975558 -0.9843 0.24928300000000006
v 0.86465 -0.960319 -0.029238999999999942
v 0.934029 -0.988168 0.26022600000000007
v 0.975558 -0.9843 0.24928300000000006
v 0.975558 -0.9843 0.24928300000000006
v 0.90572 -0.956119 -0.03889899999999995
v 0.86465 -0.960319 -0.029238999999999942
v 0.462521 -1.31255 0.26495700000000005
v 0.446624 -1.349241 0.25561400000000006
v 0.491776 -1.337497 0.25423100000000004
v 0.438639 -1.247949 -0.029164999999999924
v 0.462521 -1.31255 0.26495700000000005
v 0.491776 -1.337497 0.25423100000000004
v 0.491776 -1.337497 0.25423100000000004
v 0.467921 -1.272364 -0.03887899999999992
v 0.438639 -1.247949 -0.029164999999999924
v -0.320088 -1.371306 0.2582370000000001
v -0.342117 -1.404016 0.24865900000000007
v -0.300927 -1.39589 0.25304500000000013
v -0.295735 -1.318974 -0.03104499999999992
v -0.320088 -1.371306 0.2582370000000001
v -0.300927 -1.39589 0.25304500000000013
v -0.300927 -1.39589 0.25304500000000013
v -0.276362 -1.343791 -0.03630999999999992
v -0.295735 -1.318974 -0.03104499999999992
v -0.7885 -1.35506 0.22011000000000008
v -0.752997 -1.331578 0.22959000000000007
v -0.782048 -1.321172 0.23115700000000008
v -0.759181 -1.283643 -0.04154299999999992
v -0.7885 -1.35506 0.22011000000000008
v -0.782048 -1.321172 0.23115700000000008
v -0.782048 -1.321172 0.23115700000000008
v -0.753126 -1.249293 -0.031785999999999925
v -0.759181 -1.283643 -0.04154299999999992
v -1.052375 -0.450793 0.19686700000000001
v -1.036245 -0.48797 0.20489200000000002
v -1.01201 -0.450416 0.20955300000000002
v -0.974143 -0.469326 -0.041548999999999975
v -1.052375 -0.450793 0.19686700000000001
v -1.01201 -0.450416 0.20955300000000002
v -1.01201 -0.450416 0.20955300000000002
v -0.934204 -0.469083 -0.032493999999999974
v -0.974143 -0.469326 -0.041548999999999975
v -0.547995 0.07447100000000001 0.208309
v -0.532314 0.037641000000000015 0.225056
v -0.50348 0.07375000000000001 0.21717
v -0.508237 -0.036603 -0.041483
v -0.547995 0.07447100000000001 0.208309
v -0.50348 0.07375000000000001 0.21717
v -0.50348 0.07375000000000001 0.21717
v -0.464875 -0.037155 -0.035016
v -0.508237 -0.036603 -0.041483
v -1.0701 -1.018385 -0.011393999999999937
v -1.147892 -1.114419 0.6240760000000001
v -1.125814 -1.119601 0.6293730000000001
v -1.125814 -1.119601 0.6293730000000001
v -1.047444 -1.024026 -0.010117999999999938
v -1.0701 -1.018385 -0.011393999999999937
v 0.317548 -0.74784 -0.011117999999999954
v 0.331014 -0.8863339999999998 0.928391
v 0.35668 -0.8975269999999999 0.923164
v 0.35668 -0.8975269999999999 0.923164
v 0.343118 -0.758866 -0.014729999999999953
v 0.317548 -0.74784 -0.011117999999999954
v 0.58694 -0.371297 -0.025016999999999977
v 0.773061 -0.29788999999999993 1.271892
v 0.799557 -0.30891699999999994 1.263509
v 0.799557 -0.30891699999999994 1.263509
v 0.613301 -0.381918 -0.028800999999999976
v 0.58694 -0.371297 -0.025016999999999977
v 0.454298 -0.094109 -0.009885999999999995
v 0.543943 0.013381000000000049 0.794555
v 0.568822 0.0010110000000000485 0.791512
v 0.568822 0.0010110000000000485 0.791512
v 0.479492 -0.106079 -0.011574999999999993
v 0.454298 -0.094109 -0.009885999999999995
v -0.551086 -0.679082 -0.02017799999999996
v -0.607472 -0.7886969999999999 1.060255
v -0.582894 -0.7961459999999999 1.064021
v -0.582894 -0.7961459999999999 1.064021
v -0.526 -0.686915 -0.02008099999999996
v -0.551086 -0.679082 -0.02017799999999996
v 0.160726 -0.092006 -0.01786099999999999
v 0.207229 -0.0022079999999999474 0.858384
v 0.232667 -0.014078999999999947 0.858584
v 0.232667 -0.014078999999999947 0.858584
v 0.186237 -0.103561 -0.018039999999999994
v 0.160726 -0.092006 -0.01786099999999999
v -0.331627 0.139562 0.010827999999999992
v -0.367183 0.12301400000000005 0.832852
v -0.34546 0.11537200000000006 0.835755
v -0.34546 0.11537200000000006 0.835755
v -0.309989 0.131852 0.011700999999999991
v -0.331627 0.139562 0.010827999999999992
v 0.014406 0.250974 0.010854999999999984
v 0.015661 0.30958500000000005 0.712795
v 0.03622 0.30093200000000003 0.714515
v 0.03622 0.30093200000000003 0.714515
v 0.034919 0.242653 0.011489999999999985
v 0.014406 0.250974 0.010854999999999984
v 0.291702 -0.389628 -0.03230899999999998
v 0.195964 -0.4358539999999999 1.437178
v 0.210971 -0.40880899999999987 1.439905
v 0.306517 -0.362612 -0.030429999999999978
v 0.291702 -0.389628 -0.03230899999999998
v 1.108103 0.111943 -0.007561000000000007
v 1.174041 0.22769200000000006 0.760604
v 1.183793 0.25073500000000004 0.751771
v 1.119987 0.135521 -0.013888000000000008
v 1.108103 0.111943 -0.007561000000000007
v 1.257019 -0.475549 -0.006646999999999971
v 1.429466 -0.541022 0.735811
v 1.444995 -0.516029 0.732894
v 1.272828 -0.450639 -0.007773999999999972
v 1.257019 -0.475549 -0.006646999999999971
v -1.082439 -1.045723 -0.015640999999999936
v -1.160281 -1.141742 0.6170010000000001
v -1.147892 -1.114419 0.6240760000000001
v -1.0701 -1.018385 -0.011393999999999937
v -1.082439 -1.045723 -0.015640999999999936
v 0.300022 -0.772901 -0.015561999999999953
v 0.313059 -0.9109939999999999 0.9229120000000001
v 0.331014 -0.8863339999999998 0.928391
v 0.317548 -0.74784 -0.011117999999999954
v 0.300022 -0.772901 -0.015561999999999953
v 0.572892 -0.397866 -0.021205999999999975
v 0.760051 -0.32434599999999997 1.278455
v 0.773061 -0.29788999999999993 1.271892
v 0.58694 -0.371297 -0.025016999999999977
v 0.572892 -0.397866 -0.021205999999999975
v 0.439746 -0.120589 -0.004363999999999992
v 0.530305 -0.012988999999999952 0.802494
v 0.543943 0.013381000000000049 0.794555
v 0.454298 -0.094109 -0.009885999999999995
v 0.439746 -0.120589 -0.004363999999999992
v -0.565113 -0.706351 -0.02367699999999996
v -0.621502 -0.8156759999999998 1.053596
v -0.607472 -0.7886969999999999 1.060255
v -0.551086 -0.679082 -0.02017799999999996
v -0.565113 -0.706351 -0.02367699999999996
v 0.14521 -0.119279 -0.014061999999999993
v 0.192002 -0.02956199999999995 0.863713
v 0.207229 -0.0022079999999999474 0.858384
v 0.160726 -0.092006 -0.01786099999999999
v 0.14521 -0.119279 -0.014061999999999993
v -0.341948 0.117007 0.010096999999999993
v -0.37744 0.10043300000000005 0.83131
v -0.367183 0.12301400000000005 0.832852
v -0.331627 0.139562 0.010827999999999992
v -0.341948 0.117007 0.010096999999999993
v 0.003872 0.229076 0.013660999999999986
v 0.005284 0.28753400000000007 0.716768
v 0.015661 0.30958500000000005 0.712795
v 0.014406 0.250974 0.010854999999999984
v 0.003872 0.229076 0.013660999999999986
v 0.284758 -0.166069 0.021538000000000012
v -0.277799 0.999902 0.02153799999999994
v -0.725646 0.791067 0.021537999999999953
v -0.16309 -0.374904 0.021538000000000026
v 1.020871 -0.606835 -0.030237999999999963
v 1.092967 -0.602476 0.20069400000000004
v 1.11528 -0.576047 0.19365300000000002
v 1.043053 -0.580534 -0.03641599999999996
v 1.053735 -0.610088 -0.03989899999999996
v 1.125297 -0.605058 0.18997900000000004
v 1.092967 -0.602476 0.20069400000000004
v 1.020871 -0.606835 -0.030237999999999963
v 0.884537 -0.004563000000000002 -0.030238
v 0.956633 -0.00020399999999998772 0.200694
v 0.978945 0.02622500000000001 0.193653
v 0.906719 0.021737999999999997 -0.036416
v 0.917401 -0.007816000000000002 -0.039899
v 0.988963 -0.002785999999999988 0.189979
v 0.956633 -0.00020399999999998772 0.200694
v 0.884537 -0.004563000000000002 -0.030238
v 0.156118 0.308993 -0.03156400000000002
v 0.107803 0.375049 0.24514499999999997
v 0.094778 0.414792 0.23298499999999997
v 0.143492 0.348281 -0.041619000000000024
v 0.184237 0.344327 -0.03397200000000002
v 0.136075 0.410746 0.24253299999999997
v 0.107803 0.375049 0.24514499999999997
v 0.156118 0.308993 -0.03156400000000002
v 0.222052 -0.4455109999999999 1.43963
v 0.237073 -0.4185289999999999 1.442279
v 0.210971 -0.40880899999999987 1.439905
v 0.195964 -0.4358539999999999 1.437178
v 0.317891 -0.399547 -0.030406999999999976
v 0.222052 -0.4455109999999999 1.43963
v 0.195964 -0.4358539999999999 1.437178
v 0.291702 -0.389628 -0.03230899999999998
v 0.332703 -0.372591 -0.028524999999999974
v 0.237073 -0.4185289999999999 1.442279
v 0.222052 -0.4455109999999999 1.43963
v 0.317891 -0.399547 -0.030406999999999976
v 0.660196 0.325484 -0.030238000000000022
v 0.686714 0.392667 0.20069399999999998
v 0.672192 0.424059 0.19365299999999996
v 0.645734 0.356703 -0.036415000000000024
v 0.677033 0.353895 -0.03989900000000002
v 0.702718 0.420877 0.18997899999999998
v 0.686714 0.392667 0.20069399999999998
v 0.660196 0.325484 -0.030238000000000022
v 0.360534 0.404035 -0.029435000000000024
v 0.358395 0.491237 0.25035199999999996
v 0.342543 0.529219 0.23829099999999998
v 0.344795 0.441558 -0.03952000000000003
v 0.38435 0.439154 -0.037971000000000026
v 0.381866 0.526448 0.24058899999999997
v 0.358395 0.491237 0.25035199999999996
v 0.360534 0.404035 -0.029435000000000024
v 1.197286 0.21220300000000006 0.758066
v 1.206894 0.23518800000000006 0.749239
v 1.183793 0.25073500000000004 0.751771
v 1.174041 0.22769200000000006 0.760604
v 1.131941 0.096737 -0.008002000000000006
v 1.197286 0.21220300000000006 0.758066
v 1.174041 0.22769200000000006 0.760604
v 1.108103 0.111943 -0.007561000000000007
v 1.143715 0.120262 -0.014329000000000007
v 1.206894 0.23518800000000006 0.749239
v 1.197286 0.21220300000000006 0.758066
v 1.131941 0.096737 -0.008002000000000006
v 1.456674 -0.55626 0.724743
v 1.472212 -0.531237 0.721824
v 1.444995 -0.516029 0.732894
v 1.429466 -0.541022 0.735811
v 1.283343 -0.490155 -0.01385899999999997
v 1.456674 -0.55626 0.724743
v 1.429466 -0.541022 0.735811
v 1.257019 -0.475549 -0.006646999999999971
v 1.299149 -0.465236 -0.014977999999999972
v 1.472212 -0.531237 0.721824
v 1.456674 -0.55626 0.724743
v 1.283343 -0.490155 -0.01385899999999997
v 0.882662 -0.997337 -0.037782999999999935
v 0.951827 -1.025576 0.25122000000000005
v 0.934029 -0.988168 0.26022600000000007
v 0.86465 -0.960319 -0.029238999999999942
v 0.90572 -0.956119 -0.03889899999999995
v 0.975558 -0.9843 0.24928300000000006
v 0.951827 -1.025576 0.25122000000000005
v 0.882662 -0.997337 -0.037782999999999935
v 0.423082 -1.284685 -0.03776199999999992
v 0.446624 -1.349241 0.25561400000000006
v 0.462521 -1.31255 0.26495700000000005
v 0.438639 -1.247949 -0.029164999999999924
v 0.467921 -1.272364 -0.03887899999999992
v 0.491776 -1.337497 0.25423100000000004
v 0.446624 -1.349241 0.25561400000000006
v 0.423082 -1.284685 -0.03776199999999992
v -0.317626 -1.352014 -0.03923099999999992
v -0.342117 -1.404016 0.24865900000000007
v -0.320088 -1.371306 0.2582370000000001
v -0.295735 -1.318974 -0.03104499999999992
v -0.276362 -1.343791 -0.03630999999999992
v -0.300927 -1.39589 0.25304500000000013
v -0.342117 -1.404016 0.24865900000000007
v -0.317626 -1.352014 -0.03923099999999992
v -0.723721 -1.26012 -0.034732999999999924
v -0.752997 -1.331578 0.22959000000000007
v -0.7885 -1.35506 0.22011000000000008
v -0.759181 -1.283643 -0.04154299999999992
v -0.753126 -1.249293 -0.031785999999999925
v -0.782048 -1.321172 0.23115700000000008
v -0.752997 -1.331578 0.22959000000000007
v -0.723721 -1.26012 -0.034732999999999924
v -0.959134 -0.506244 -0.03531499999999997
v -1.036245 -0.48797 0.20489200000000002
v -1.052375 -0.450793 0.19686700000000001
v -0.974143 -0.469326 -0.041548999999999975
v -0.934204 -0.469083 -0.032493999999999974
v -1.01201 -0.450416 0.20955300000000002
v -1.036245 -0.48797 0.20489200000000002
v -0.959134 -0.506244 -0.03531499999999997
v -0.493677 -0.072765 -0.027473999999999995
v -0.532314 0.037641000000000015 0.225056
v -0.547995 0.07447100000000001 0.208309
v -0.508237 -0.036603 -0.041483
v -0.464875 -0.037155 -0.035016
v -0.50348 0.07375000000000001 0.21717
v -0.532314 0.037641000000000015 0.225056
v -0.493677 -0.072765 -0.027473999999999995
v -1.138376 -1.146791 0.6222930000000001
v -1.125814 -1.119601 0.6293730000000001
v -1.147892 -1.114419 0.6240760000000001
v -1.160281 -1.141742 0.6170010000000001
v -1.059957 -1.051236 -0.014399999999999935
v -1.138376 -1.146791 0.6222930000000001
v -1.160281 -1.141742 0.6170010000000001
v -1.082439 -1.045723 -0.015640999999999936
v -1.047444 -1.024026 -0.010117999999999938
v -1.125814 -1.119601 0.6293730000000001
v -1.138376 -1.146791 0.6222930000000001
v -1.059957 -1.051236 -0.014399999999999935
v 0.338673 -0.9221559999999999 0.9177440000000001
v 0.35668 -0.8975269999999999 0.923164
v 0.331014 -0.8863339999999998 0.928391
v 0.313059 -0.9109939999999999 0.9229120000000001
v 0.325552 -0.783886 -0.019171999999999953
v 0.338673 -0.9221559999999999 0.9177440000000001
v 0.313059 -0.9109939999999999 0.9229120000000001
v 0.300022 -0.772901 -0.015561999999999953
v 0.343118 -0.758866 -0.014729999999999953
v 0.35668 -0.8975269999999999 0.923164
v 0.338673 -0.9221559999999999 0.9177440000000001
v 0.325552 -0.783886 -0.019171999999999953
v 0.786612 -0.33533799999999997 1.270094
v 0.799557 -0.30891699999999994 1.263509
v 0.773061 -0.29788999999999993 1.271892
v 0.760051 -0.32434599999999997 1.278455
v 0.599288 -0.408446 -0.024993999999999975
v 0.786612 -0.33533799999999997 1.270094
v 0.760051 -0.32434599999999997 1.278455
v 0.572892 -0.397866 -0.021205999999999975
v 0.613301 -0.381918 -0.028800999999999976
v 0.799557 -0.30891699999999994 1.263509
v 0.786612 -0.33533799999999997 1.270094
v 0.599288 -0.408446 -0.024993999999999975
v 0.555265 -0.025280999999999953 0.799466
v 0.568822 0.0010110000000000485 0.791512
v 0.543943 0.013381000000000049 0.794555
v 0.530305 -0.012988999999999952 0.802494
v 0.464987 -0.132486 -0.006048999999999992
v 0.555265 -0.025280999999999953 0.799466
v 0.530305 -0.012988999999999952 0.802494
v 0.439746 -0.120589 -0.004363999999999992
v 0.479492 -0.106079 -0.011574999999999993
v 0.568822 0.0010110000000000485 0.791512
v 0.555265 -0.025280999999999953 0.799466
v 0.464987 -0.132486 -0.006048999999999992
v -0.597052 -0.8230279999999999 1.057405
v -0.582894 -0.7961459999999999 1.064021
v -0.607472 -0.7886969999999999 1.060255
v -0.621502 -0.8156759999999998 1.053596
v -0.54015 -0.714089 -0.023596999999999955
v -0.597052 -0.8230279999999999 1.057405
v -0.621502 -0.8156759999999998 1.053596
v -0.565113 -0.706351 -0.02367699999999996
v -0.526 -0.686915 -0.02008099999999996
v -0.582894 -0.7961459999999999 1.064021
v -0.597052 -0.8230279999999999 1.057405
v -0.54015 -0.714089 -0.023596999999999955
v 0.217466 -0.04134399999999994 0.863949
v 0.232667 -0.014078999999999947 0.858584
v 0.207229 -0.0022079999999999474 0.858384
v 0.192002 -0.02956199999999995 0.863713
v 0.170725 -0.130748 -0.014230999999999992
v 0.217466 -0.04134399999999994 0.863949
v 0.192002 -0.02956199999999995 0.863713
v 0.14521 -0.119279 -0.014061999999999993
v 0.186237 -0.103561 -0.018039999999999994
v 0.232667 -0.014078999999999947 0.858584
v 0.217466 -0.04134399999999994 0.863949
v 0.170725 -0.130748 -0.014230999999999992
v -0.355768 0.09284800000000006 0.834234
v -0.34546 0.11537200000000006 0.835755
v -0.367183 0.12301400000000005 0.832852
v -0.37744 0.10043300000000005 0.83131
v -0.320356 0.109355 0.010968999999999993
v -0.355768 0.09284800000000006 0.834234
v -0.37744 0.10043300000000005 0.83131
v -0.341948 0.117007 0.010096999999999993
v -0.309989 0.131852 0.011700999999999991
v -0.34546 0.11537200000000006 0.835755
v -0.355768 0.09284800000000006 0.834234
v -0.320356 0.109355 0.010968999999999993
v 0.025858 0.27894500000000005 0.718515
v 0.03622 0.30093200000000003 0.714515
v 0.015661 0.30958500000000005 0.712795
v 0.005284 0.28753400000000007 0.716768
v 0.024388 0.220815 0.014302999999999986
v 0.025858 0.27894500000000005 0.718515
v 0.005284 0.28753400000000007 0.716768
v 0.003872 0.229076 0.013660999999999986
v 0.034919 0.242653 0.011489999999999985
v 0.03622 0.30093200000000003 0.714515
v 0.025858 0.27894500000000005 0.718515
v 0.024388 0.220815 0.014302999999999986
vt 0.201793 0.844586
vt 0.238121 0.844586
vt 0.219957 0.875741
vt 0.053614 0.877442
vt 0.053290 0.727645
vt 0.064250 0.728323
vt 0.064250 0.728323
vt 0.064575 0.878120
vt 0.053614 0.877442
vt 0.201793 0.844586
vt 0.238121 0.844586
vt 0.219957 0.875741
vt 0.053614 0.877442
vt 0.053290 0.727645
vt 0.064250 0.728323
vt 0.064250 0.728323
vt 0.064575 0.878120
vt 0.053614 0.877442
vt 0.201793 0.844586
vt 0.238121 0.844586
vt 0.219957 0.875741
vt 0.053614 0.877442
vt 0.053290 0.727645
vt 0.064250 0.728323
vt 0.064250 0.728323
vt 0.064575 0.878120
vt 0.053614 0.877442
vt 0.956819 0.777918
vt 0.956921 0.445546
vt 0.967147 0.445896
vt 0.967147 0.445896
vt 0.967044 0.778267
vt 0.956819 0.777918
vt 0.201793 0.844586
vt 0.238121 0.844586
vt 0.219957 0.875741
vt 0.053614 0.877442
vt 0.053290 0.727645
vt 0.064250 0.728323
vt 0.064250 0.728323
vt 0.064575 0.878120
vt 0.053614 0.877442
vt 0.201793 0.844586
vt 0.238121 0.844586
vt 0.219957 0.875741
vt 0.053614 0.877442
vt 0.053290 0.727645
vt 0.064250 0.728323
vt 0.064250 0.728323
vt 0.064575 0.878120
vt 0.053614 0.877442
vt 0.956819 0.777918
vt 0.956921 0.445546
vt 0.967147 0.445896
vt 0.967147 0.445896
vt 0.967044 0.778267
vt 0.956819 0.777918
vt 0.956819 0.777918
vt 0.956921 0.445546
vt 0.967147 0.445896
vt 0.967147 0.445896
vt 0.967044 0.778267
vt 0.956819 0.777918
vt 0.201793 0.844586
vt 0.238121 0.844586
vt 0.219957 0.875741
vt 0.053614 0.877442
vt 0.053290 0.727645
vt 0.064250 0.728323
vt 0.064250 0.728323
vt 0.064575 0.878120
vt 0.053614 0.877442
vt 0.201793 0.844586
vt 0.238121 0.844586
vt 0.219957 0.875741
vt 0.053614 0.877442
vt 0.053290 0.727645
vt 0.064250 0.728323
vt 0.064250 0.728323
vt 0.064575 0.878120
vt 0.053614 0.877442
vt 0.201793 0.844586
vt 0.238121 0.844586
vt 0.219957 0.875741
vt 0.053614 0.877442
vt 0.053290 0.727645
vt 0.064250 0.728323
vt 0.064250 0.728323
vt 0.064575 0.878120
vt 0.053614 0.877442
vt 0.201793 0.844586
vt 0.238121 0.844586
vt 0.219957 0.875741
vt 0.053614 0.877442
vt 0.053290 0.727645
vt 0.064250 0.728323
vt 0.064250 0.728323
vt 0.064575 0.878120
vt 0.053614 0.877442
vt 0.201793 0.844586
vt 0.238121 0.844586
vt 0.219957 0.875741
vt 0.054529 0.877442
vt 0.054204 0.727645
vt 0.065165 0.728323
vt 0.065165 0.728323
vt 0.065489 0.878120
vt 0.054529 0.877442
vt 0.201793 0.844586
vt 0.238121 0.844586
vt 0.219957 0.875741
vt 0.053614 0.877442
vt 0.053290 0.727645
vt 0.064250 0.728323
vt 0.064250 0.728323
vt 0.064575 0.878120
vt 0.053614 0.877442
vt 0.956819 0.777918
vt 0.956921 0.445546
vt 0.967147 0.445896
vt 0.967147 0.445896
vt 0.967044 0.778267
vt 0.956819 0.777918
vt 0.956819 0.777918
vt 0.956921 0.445546
vt 0.967147 0.445896
vt 0.967147 0.445896
vt 0.967044 0.778267
vt 0.956819 0.777918
vt 0.956819 0.777918
vt 0.956921 0.445546
vt 0.967147 0.445896
vt 0.967147 0.445896
vt 0.967044 0.778267
vt 0.956819 0.777918
vt 0.956819 0.777918
vt 0.956921 0.445546
vt 0.967147 0.445896
vt 0.967147 0.445896
vt 0.967044 0.778267
vt 0.956819 0.777918
vt 0.956819 0.777918
vt 0.956921 0.445546
vt 0.967147 0.445896
vt 0.967147 0.445896
vt 0.967044 0.778267
vt 0.956819 0.777918
vt 0.956819 0.777918
vt 0.956921 0.445546
vt 0.967147 0.445896
vt 0.967147 0.445896
vt 0.967044 0.778267
vt 0.956819 0.777918
vt 0.956819 0.777918
vt 0.956921 0.445546
vt 0.967147 0.445896
vt 0.967147 0.445896
vt 0.967044 0.778267
vt 0.956819 0.777918
vt 0.956819 0.777918
vt 0.956921 0.445546
vt 0.967147 0.445896
vt 0.967147 0.445896
vt 0.967044 0.778267
vt 0.956819 0.777918
vt 0.946594 0.777568
vt 0.946696 0.445197
vt 0.956921 0.445546
vt 0.956819 0.777918
vt 0.946594 0.777568
vt 0.946594 0.777568
vt 0.946696 0.445197
vt 0.956921 0.445546
vt 0.956819 0.777918
vt 0.946594 0.777568
vt 0.946594 0.777568
vt 0.946696 0.445197
vt 0.956921 0.445546
vt 0.956819 0.777918
vt 0.946594 0.777568
vt 0.946594 0.777568
vt 0.946696 0.445197
vt 0.956921 0.445546
vt 0.956819 0.777918
vt 0.946594 0.777568
vt 0.946594 0.777568
vt 0.946696 0.445197
vt 0.956921 0.445546
vt 0.956819 0.777918
vt 0.946594 0.777568
vt 0.946594 0.777568
vt 0.946696 0.445197
vt 0.956921 0.445546
vt 0.956819 0.777918
vt 0.946594 0.777568
vt 0.946594 0.777568
vt 0.946696 0.445197
vt 0.956921 0.445546
vt 0.956819 0.777918
vt 0.946594 0.777568
vt 0.946594 0.777568
vt 0.946696 0.445197
vt 0.956921 0.445546
vt 0.956819 0.777918
vt 0.946594 0.777568
vt 0.946594 0.777568
vt 0.946696 0.445197
vt 0.956921 0.445546
vt 0.956819 0.777918
vt 0.946594 0.777568
vt 0.946594 0.777568
vt 0.946696 0.445197
vt 0.956921 0.445546
vt 0.956819 0.777918
vt 0.946594 0.777568
vt 0.946594 0.777568
vt 0.946696 0.445197
vt 0.956921 0.445546
vt 0.956819 0.777918
vt 0.946594 0.777568
vt 0.991426 0.014309
vt 0.991426 0.433818
vt 0.844686 0.433818
vt 0.844686 0.014309
vt 0.042653 0.876764
vt 0.042329 0.726967
vt 0.053290 0.727645
vt 0.053614 0.877442
vt 0.064575 0.878120
vt 0.064250 0.728323
vt 0.075211 0.729002
vt 0.075535 0.878798
vt 0.042653 0.876764
vt 0.042329 0.726967
vt 0.053290 0.727645
vt 0.053614 0.877442
vt 0.064575 0.878120
vt 0.064250 0.728323
vt 0.075211 0.729002
vt 0.075535 0.878798
vt 0.042653 0.876764
vt 0.042329 0.726967
vt 0.053290 0.727645
vt 0.053614 0.877442
vt 0.064575 0.878120
vt 0.064250 0.728323
vt 0.075211 0.729002
vt 0.075535 0.878798
vt 0.112380 0.814034
vt 0.143783 0.814080
vt 0.143717 0.845324
vt 0.112314 0.845279
vt 0.936369 0.777218
vt 0.936471 0.444847
vt 0.946696 0.445197
vt 0.946594 0.777568
vt 0.967044 0.778267
vt 0.967147 0.445896
vt 0.977372 0.446246
vt 0.977270 0.778617
vt 0.042653 0.876764
vt 0.042329 0.726967
vt 0.053290 0.727645
vt 0.053614 0.877442
vt 0.064575 0.878120
vt 0.064250 0.728323
vt 0.075211 0.729002
vt 0.075535 0.878798
vt 0.042653 0.876764
vt 0.042329 0.726967
vt 0.053290 0.727645
vt 0.053614 0.877442
vt 0.064575 0.878120
vt 0.064250 0.728323
vt 0.075211 0.729002
vt 0.075535 0.878798
vt 0.112380 0.814034
vt 0.143783 0.814080
vt 0.143717 0.845324
vt 0.112314 0.845279
vt 0.936369 0.777218
vt 0.936471 0.444847
vt 0.946696 0.445197
vt 0.946594 0.777568
vt 0.967044 0.778267
vt 0.967147 0.445896
vt 0.977372 0.446246
vt 0.977270 0.778617
vt 0.112380 0.814034
vt 0.143783 0.814080
vt 0.143717 0.845324
vt 0.112314 0.845279
vt 0.936369 0.777218
vt 0.936471 0.444847
vt 0.946696 0.445197
vt 0.946594 0.777568
vt 0.967044 0.778267
vt 0.967147 0.445896
vt 0.977372 0.446246
vt 0.977270 0.778617
vt 0.042653 0.876764
vt 0.042329 0.726967
vt 0.053290 0.727645
vt 0.053614 0.877442
vt 0.064575 0.878120
vt 0.064250 0.728323
vt 0.075211 0.729002
vt 0.075535 0.878798
vt 0.042653 0.876764
vt 0.042329 0.726967
vt 0.053290 0.727645
vt 0.053614 0.877442
vt 0.064575 0.878120
vt 0.064250 0.728323
vt 0.075211 0.729002
vt 0.075535 0.878798
vt 0.042653 0.876764
vt 0.042329 0.726967
vt 0.053290 0.727645
vt 0.053614 0.877442
vt 0.064575 0.878120
vt 0.064250 0.728323
vt 0.075211 0.729002
vt 0.075535 0.878798
vt 0.042653 0.876764
vt 0.042329 0.726967
vt 0.053290 0.727645
vt 0.053614 0.877442
vt 0.064575 0.878120
vt 0.064250 0.728323
vt 0.075211 0.729002
vt 0.075535 0.878798
vt 0.043568 0.876764
vt 0.043244 0.726967
vt 0.054204 0.727645
vt 0.054529 0.877442
vt 0.065489 0.878120
vt 0.065165 0.728323
vt 0.076125 0.729002
vt 0.076450 0.878798
vt 0.042653 0.876764
vt 0.042329 0.726967
vt 0.053290 0.727645
vt 0.053614 0.877442
vt 0.064575 0.878120
vt 0.064250 0.728323
vt 0.075211 0.729002
vt 0.075535 0.878798
vt 0.112380 0.814034
vt 0.143783 0.814080
vt 0.143717 0.845324
vt 0.112314 0.845279
vt 0.936369 0.777218
vt 0.936471 0.444847
vt 0.946696 0.445197
vt 0.946594 0.777568
vt 0.967044 0.778267
vt 0.967147 0.445896
vt 0.977372 0.446246
vt 0.977270 0.778617
vt 0.112380 0.814034
vt 0.143783 0.814080
vt 0.143717 0.845324
vt 0.112314 0.845279
vt 0.936369 0.777218
vt 0.936471 0.444847
vt 0.946696 0.445197
vt 0.946594 0.777568
vt 0.967044 0.778267
vt 0.967147 0.445896
vt 0.977372 0.446246
vt 0.977270 0.778617
vt 0.112380 0.814034
vt 0.143783 0.814080
vt 0.143717 0.845324
vt 0.112314 0.845279
vt 0.936369 0.777218
vt 0.936471 0.444847
vt 0.946696 0.445197
vt 0.946594 0.777568
vt 0.967044 0.778267
vt 0.967147 0.445896
vt 0.977372 0.446246
vt 0.977270 0.778617
vt 0.112380 0.814034
vt 0.143783 0.814080
vt 0.143717 0.845324
vt 0.112314 0.845279
vt 0.936369 0.777218
vt 0.936471 0.444847
vt 0.946696 0.445197
vt 0.946594 0.777568
vt 0.967044 0.778267
vt 0.967147 0.445896
vt 0.977372 0.446246
vt 0.977270 0.778617
vt 0.112380 0.814034
vt 0.143783 0.814080
vt 0.143717 0.845324
vt 0.112314 0.845279
vt 0.936369 0.777218
vt 0.936471 0.444847
vt 0.946696 0.445197
vt 0.946594 0.777568
vt 0.967044 0.778267
vt 0.967147 0.445896
vt 0.977372 0.446246
vt 0.977270 0.778617
vt 0.112380 0.814034
vt 0.143783 0.814080
vt 0.143717 0.845324
vt 0.112314 0.845279
vt 0.936369 0.777218
vt 0.936471 0.444847
vt 0.946696 0.445197
vt 0.946594 0.777568
vt 0.967044 0.778267
vt 0.967147 0.445896
vt 0.977372 0.446246
vt 0.977270 0.778617
vt 0.112380 0.814034
vt 0.143783 0.814080
vt 0.143717 0.845324
vt 0.112314 0.845279
vt 0.936369 0.777218
vt 0.936471 0.444847
vt 0.946696 0.445197
vt 0.946594 0.777568
vt 0.967044 0.778267
vt 0.967147 0.445896
vt 0.977372 0.446246
vt 0.977270 0.778617
vt 0.112380 0.814034
vt 0.143783 0.814080
vt 0.143717 0.845324
vt 0.112314 0.845279
vt 0.936369 0.777218
vt 0.936471 0.444847
vt 0.946696 0.445197
vt 0.946594 0.777568
vt 0.967044 0.778267
vt 0.967147 0.445896
vt 0.977372 0.446246
vt 0.977270 0.778617
vn 0.313727 -0.01189199999999994 0.949439
vn 0.313727 -0.01189199999999994 0.949439
vn 0.313727 -0.01189199999999994 0.949439
vn 0.600737 0.773291 -0.20282200000000006
vn -0.313312 0.946323 0.07942899999999994
vn 0.941836 -0.16926600000000003 -0.290333
vn 0.941836 -0.16926600000000003 -0.290333
vn 0.403602 -0.908612 -0.10737499999999994
vn 0.600737 0.773291 -0.20282200000000006
vn 0.313726 -0.01188999999999994 0.949439
vn 0.313726 -0.01188999999999994 0.949439
vn 0.313726 -0.01188999999999994 0.949439
vn 0.600734 0.773293 -0.20282200000000006
vn -0.313311 0.946323 0.07942899999999994
vn 0.941837 -0.16926300000000002 -0.290333
vn 0.941837 -0.16926300000000002 -0.290333
vn 0.403602 -0.908612 -0.10737499999999994
vn 0.600734 0.773293 -0.20282200000000006
vn -0.198238 0.22676500000000005 0.953561
vn -0.198238 0.22676500000000005 0.953561
vn -0.198238 0.22676500000000005 0.953561
vn -0.369184 0.886379 -0.27934900000000007
vn -0.962977 0.168117 -0.210741
vn 0.60566 0.791128 -0.08540000000000005
vn 0.60566 0.791128 -0.08540000000000005
vn 0.973356 -0.11685599999999999 0.197287
vn -0.369184 0.886379 -0.27934900000000007
vn -0.075471 0.9968 0.02634599999999994
vn -0.592211 0.805674 -0.013224000000000048
vn 0.74825 0.659784 0.06933499999999995
vn 0.74825 0.659784 0.06933499999999995
vn 0.997761 -0.018169999999999995 0.064371
vn -0.075471 0.9968 0.02634599999999994
vn 0.143363 0.27930600000000005 0.94944
vn 0.143363 0.27930600000000005 0.94944
vn 0.143363 0.27930600000000005 0.94944
vn -0.44696 0.871258 -0.20282100000000006
vn -0.990071 0.115978 0.07942799999999998
vn 0.551442 0.78206 -0.29033300000000006
vn 0.551442 0.78206 -0.29033300000000006
vn 0.994052 -0.018212000000000006 -0.107374
vn -0.44696 0.871258 -0.20282100000000006
vn -0.035556 0.2889570000000001 0.956682
vn -0.035556 0.2889570000000001 0.956682
vn -0.035556 0.2889570000000001 0.956682
vn -0.43673 0.857217 -0.27284800000000003
vn -0.990945 0.125353 -0.04811700000000001
vn 0.569234 0.78565 -0.24233600000000005
vn 0.569234 0.78565 -0.24233600000000005
vn 0.99822 -0.054247 0.024783000000000003
vn -0.43673 0.857217 -0.27284800000000003
vn 0.080386 0.98468 -0.15473700000000007
vn -0.6055 0.792951 -0.06780900000000004
vn 0.83506 0.529618 -0.14892900000000003
vn 0.83506 0.529618 -0.14892900000000003
vn 0.996573 -0.005841000000000005 -0.08251
vn 0.080386 0.98468 -0.15473700000000007
vn 0.063693 0.995292 0.07305099999999995
vn -0.498545 0.845682 0.19045899999999993
vn 0.81202 0.566599 -0.13996400000000003
vn 0.81202 0.566599 -0.13996400000000003
vn 0.968763 -0.08026000000000001 -0.23464
vn 0.063693 0.995292 0.07305099999999995
vn 0.262592 -0.10596999999999994 0.95907
vn 0.262592 -0.10596999999999994 0.95907
vn 0.262592 -0.10596999999999994 0.95907
vn -0.539822 0.815476 0.20878499999999994
vn -0.970868 0.04090600000000001 0.236098
vn 0.419328 0.907728 -0.013910000000000056
vn 0.419328 0.907728 -0.013910000000000056
vn 0.972464 0.017286999999999986 -0.232411
vn -0.539822 0.815476 0.20878499999999994
vn 0.103936 -0.28748899999999994 0.952128
vn 0.103936 -0.28748899999999994 0.952128
vn 0.103936 -0.28748899999999994 0.952128
vn 0.211276 0.957943 0.19418299999999994
vn -0.613683 0.759366 0.21623499999999996
vn 0.944527 0.328396 -0.00496600000000002
vn 0.944527 0.328396 -0.00496600000000002
vn 0.697094 -0.686203 -0.20780999999999994
vn 0.211276 0.957943 0.19418299999999994
vn -0.054359 -0.24669599999999994 0.967567
vn -0.054359 -0.24669599999999994 0.967567
vn -0.054359 -0.24669599999999994 0.967567
vn 0.391965 0.898934 0.19565399999999994
vn -0.46017 0.879693 0.11993499999999994
vn 0.988544 0.109722 0.10364
vn 0.988544 0.109722 0.10364
vn 0.663784 -0.743859 -0.07787199999999996
vn 0.391965 0.898934 0.19565399999999994
vn -0.056008 -0.29977999999999994 0.952363
vn -0.056008 -0.29977999999999994 0.952363
vn -0.056008 -0.29977999999999994 0.952363
vn -0.942866 -0.279952 -0.18064099999999997
vn 0.108842 -0.962234 -0.24951899999999994
vn -0.782838 0.616864 0.08150999999999996
vn -0.782838 0.616864 0.08150999999999996
vn -0.144458 0.958697 0.24501399999999995
vn -0.942866 -0.279952 -0.18064099999999997
vn -0.299603 0.07529600000000006 0.951088
vn -0.299603 0.07529600000000006 0.951088
vn -0.299603 0.07529600000000006 0.951088
vn -0.457371 0.862437 -0.21682800000000005
vn -0.944506 0.09533599999999999 -0.314356
vn 0.479687 0.873161 0.08654499999999994
vn 0.479687 0.873161 0.08654499999999994
vn 0.949903 -0.04942599999999998 0.308612
vn -0.457371 0.862437 -0.21682800000000005
vn -0.177988 0.34351000000000004 0.922129
vn -0.177988 0.34351000000000004 0.922129
vn -0.177988 0.34351000000000004 0.922129
vn -0.431749 0.797627 -0.42117000000000004
vn -0.978515 0.08032899999999998 -0.189883
vn 0.564809 0.783097 -0.2602900000000001
vn 0.564809 0.783097 -0.2602900000000001
vn 0.976144 -0.10021899999999999 0.192614
vn -0.431749 0.797627 -0.42117000000000004
vn -0.205325 0.971187 0.12098399999999994
vn -0.66946 0.742238 0.030095999999999956
vn 0.650023 0.735677 0.19039399999999995
vn 0.650023 0.735677 0.19039399999999995
vn 0.990411 0.049613000000000004 0.128933
vn -0.205325 0.971187 0.12098399999999994
vn 0.0006 0.98929 0.14596599999999996
vn -0.510842 0.84943 0.13232399999999994
vn 0.797815 0.598002 0.07671099999999996
vn 0.797815 0.598002 0.07671099999999996
vn 0.993189 -0.112391 -0.030723999999999994
vn 0.0006 0.98929 0.14596599999999996
vn -0.068811 0.996542 -0.046580000000000066
vn -0.600574 0.798508 0.04118599999999995
vn 0.744158 0.652288 -0.14404700000000004
vn 0.744158 0.652288 -0.14404700000000004
vn 0.989761 -0.0029800000000000087 -0.142702
vn -0.068811 0.996542 -0.046580000000000066
vn -0.017329 0.991312 -0.13038500000000006
vn -0.586428 0.808892 -0.04237100000000005
vn 0.783372 0.598665 -0.16711800000000002
vn 0.783372 0.598665 -0.16711800000000002
vn 0.993839 -0.028208000000000007 -0.107181
vn -0.017329 0.991312 -0.13038500000000006
vn -0.134662 0.986535 0.09282099999999995
vn -0.625636 0.77874 0.04630399999999995
vn 0.70716 0.698787 0.10780499999999996
vn 0.70716 0.698787 0.10780499999999996
vn 0.99853 0.009292000000000003 0.053403
vn -0.134662 0.986535 0.09282099999999995
vn -0.01776 0.994746 -0.10082200000000005
vn -0.575222 0.81628 -0.052978000000000046
vn 0.787038 0.608085 -0.10394400000000004
vn 0.787038 0.608085 -0.10394400000000004
vn 0.998125 -0.036247 -0.049332
vn -0.01776 0.994746 -0.10082200000000005
vn -0.106421 0.994203 0.01532699999999994
vn -0.642674 0.76604 -0.012354000000000047
vn 0.729632 0.682349 0.04514199999999996
vn 0.729632 0.682349 0.04514199999999996
vn 0.997845 0.048755 0.043904
vn -0.106421 0.994203 0.01532699999999994
vn -0.058683 0.994843 -0.08273000000000005
vn -0.624478 0.778438 -0.06372800000000005
vn 0.762241 0.644942 -0.055114000000000045
vn 0.762241 0.644942 -0.055114000000000045
vn 0.999467 0.032314 -0.004695000000000002
vn -0.058683 0.994843 -0.08273000000000005
vn -0.99778 0.016939999999999997 -0.064412
vn -0.746961 -0.661237 -0.06938799999999996
vn -0.592211 0.805674 -0.013224000000000048
vn -0.075471 0.9968 0.02634599999999994
vn -0.99778 0.016939999999999997 -0.064412
vn -0.996483 0.008030000000000006 0.083413
vn -0.833732 -0.530988 0.15147100000000002
vn -0.6055 0.792951 -0.06780900000000004
vn 0.080386 0.98468 -0.15473700000000007
vn -0.996483 0.008030000000000006 0.083413
vn -0.969274 0.08077000000000001 0.232344
vn -0.812609 -0.566034 0.13882400000000003
vn -0.498545 0.845682 0.19045899999999993
vn 0.063693 0.995292 0.07305099999999995
vn -0.969274 0.08077000000000001 0.232344
vn -0.98992 -0.05587000000000001 -0.130139
vn -0.646881 -0.738322 -0.19085699999999994
vn -0.66946 0.742238 0.030095999999999956
vn -0.205325 0.971187 0.12098399999999994
vn -0.98992 -0.05587000000000001 -0.130139
vn -0.993398 0.11064 0.03032899999999999
vn -0.797327 -0.598593 -0.07717099999999996
vn -0.510842 0.84943 0.13232399999999994
vn 0.0006 0.98929 0.14596599999999996
vn -0.993398 0.11064 0.03032899999999999
vn -0.98984 0.003321000000000009 0.142145
vn -0.743309 -0.653255 0.14404800000000004
vn -0.600574 0.798508 0.04118599999999995
vn -0.068811 0.996542 -0.046580000000000066
vn -0.98984 0.003321000000000009 0.142145
vn -0.993815 0.028245000000000006 0.107396
vn -0.781813 -0.60054 0.16769400000000004
vn -0.586428 0.808892 -0.04237100000000005
vn -0.017329 0.991312 -0.13038500000000006
vn -0.993815 0.028245000000000006 0.107396
vn -0.998465 -0.013897000000000003 -0.053614
vn -0.705321 -0.700653 -0.10773399999999995
vn -0.625636 0.77874 0.04630399999999995
vn -0.134662 0.986535 0.09282099999999995
vn -0.998465 -0.013897000000000003 -0.053614
vn -0.998162 0.034984 0.049476
vn -0.78547 -0.610091 0.10404500000000004
vn -0.575222 0.81628 -0.052978000000000046
vn -0.01776 0.994746 -0.10082200000000005
vn -0.998162 0.034984 0.049476
vn -0.997706 -0.051302 -0.04418
vn -0.728336 -0.683728 -0.04518899999999996
vn -0.642674 0.76604 -0.012354000000000047
vn -0.106421 0.994203 0.01532699999999994
vn -0.997706 -0.051302 -0.04418
vn -0.999431 -0.033397 0.004623000000000002
vn -0.760758 -0.646696 0.05506000000000004
vn -0.624478 0.778438 -0.06372800000000005
vn -0.058683 0.994843 -0.08273000000000005
vn -0.999431 -0.033397 0.004623000000000002
vn 0 6.123233995736766E-17 1
vn 0 6.123233995736766E-17 1
vn 0 6.123233995736766E-17 1
vn 0 6.123233995736766E-17 1
vn -0.936893 0.19630300000000003 0.289305
vn -0.534561 -0.824796 0.18427100000000005
vn -0.313312 0.946323 0.07942899999999994
vn 0.600737 0.773291 -0.20282200000000006
vn 0.403602 -0.908612 -0.10737499999999994
vn 0.941836 -0.16926600000000003 -0.290333
vn -0.534561 -0.824796 0.18427100000000005
vn -0.936893 0.19630300000000003 0.289305
vn -0.936892 0.19630400000000003 0.289305
vn -0.534561 -0.824796 0.18427200000000005
vn -0.313311 0.946323 0.07942899999999994
vn 0.600734 0.773293 -0.20282200000000006
vn 0.403602 -0.908612 -0.10737499999999994
vn 0.941837 -0.16926300000000002 -0.290333
vn -0.534561 -0.824796 0.18427200000000005
vn -0.936892 0.19630400000000003 0.289305
vn -0.671144 -0.739028 0.05834300000000005
vn 0.343281 -0.898171 0.27467500000000006
vn -0.962977 0.168117 -0.210741
vn -0.369184 0.886379 -0.27934900000000007
vn 0.973356 -0.11685599999999999 0.197287
vn 0.60566 0.791128 -0.08540000000000005
vn 0.343281 -0.898171 0.27467500000000006
vn -0.671144 -0.739028 0.05834300000000005
vn -0.106587 -0.039621999999999935 0.993514
vn -0.104969 -0.03913499999999994 0.993705
vn -0.106587 -0.039621999999999935 0.993514
vn -0.108204 -0.040107999999999935 0.993319
vn 0.076846 -0.996698 -0.026222999999999937
vn 0.591926 -0.805882 0.013335000000000048
vn -0.746961 -0.661237 -0.06938799999999996
vn -0.99778 0.016939999999999997 -0.064412
vn 0.997761 -0.018169999999999995 0.064371
vn 0.74825 0.659784 0.06933499999999995
vn 0.591926 -0.805882 0.013335000000000048
vn 0.076846 -0.996698 -0.026222999999999937
vn -0.57386 -0.766151 0.28930500000000003
vn 0.521601 -0.833052 0.18427100000000005
vn -0.990071 0.115978 0.07942799999999998
vn -0.44696 0.871258 -0.20282100000000006
vn 0.994052 -0.018212000000000006 -0.107374
vn 0.551442 0.78206 -0.29033300000000006
vn 0.521601 -0.833052 0.18427100000000005
vn -0.57386 -0.766151 0.28930500000000003
vn -0.620221 -0.750068 0.22961900000000005
vn 0.453232 -0.849685 0.26947400000000005
vn -0.990945 0.125353 -0.04811700000000001
vn -0.43673 0.857217 -0.27284800000000003
vn 0.99822 -0.054247 0.024783000000000003
vn 0.569234 0.78565 -0.24233600000000005
vn 0.453232 -0.849685 0.26947400000000005
vn -0.620221 -0.750068 0.22961900000000005
vn 0.266423 0.24557000000000007 0.932048
vn 0.267633 0.24592100000000006 0.931609
vn 0.266423 0.24557000000000007 0.932048
vn 0.265213 0.24521700000000005 0.932486
vn -0.076412 -0.984941 0.15509000000000006
vn 0.608625 -0.790512 0.06831200000000004
vn -0.833732 -0.530988 0.15147100000000002
vn -0.996483 0.008030000000000006 0.083413
vn 0.996573 -0.005841000000000005 -0.08251
vn 0.83506 0.529618 -0.14892900000000003
vn 0.608625 -0.790512 0.06831200000000004
vn -0.076412 -0.984941 0.15509000000000006
vn 0.329115 -0.09480099999999994 0.939519
vn 0.329148 -0.09478999999999994 0.939509
vn 0.329115 -0.09480099999999994 0.939519
vn 0.329083 -0.09481299999999994 0.939529
vn -0.064338 -0.995183 -0.07396899999999994
vn 0.497972 -0.845528 -0.19262799999999994
vn -0.812609 -0.566034 0.13882400000000003
vn -0.969274 0.08077000000000001 0.232344
vn 0.968763 -0.08026000000000001 -0.23464
vn 0.81202 0.566599 -0.13996400000000003
vn 0.497972 -0.845528 -0.19262799999999994
vn -0.064338 -0.995183 -0.07396899999999994
vn -0.545298 -0.836789 0.04934300000000005
vn 0.477872 -0.855478 -0.19948699999999994
vn -0.970868 0.04090600000000001 0.236098
vn -0.539822 0.815476 0.20878499999999994
vn 0.972464 0.017286999999999986 -0.232411
vn 0.419328 0.907728 -0.013910000000000056
vn 0.477872 -0.855478 -0.19948699999999994
vn -0.545298 -0.836789 0.04934300000000005
vn -0.989203 -0.137944 0.049482000000000005
vn -0.268699 -0.944746 -0.18776199999999996
vn -0.613683 0.759366 0.21623499999999996
vn 0.211276 0.957943 0.19418299999999994
vn 0.697094 -0.686203 -0.20780999999999994
vn 0.944527 0.328396 -0.00496600000000002
vn -0.268699 -0.944746 -0.18776199999999996
vn -0.989203 -0.137944 0.049482000000000005
vn -0.993427 0.092697 -0.067164
vn -0.289304 -0.937457 -0.19359099999999996
vn -0.46017 0.879693 0.11993499999999994
vn 0.391965 0.898934 0.19565399999999994
vn 0.663784 -0.743859 -0.07787199999999996
vn 0.988544 0.109722 0.10364
vn -0.289304 -0.937457 -0.19359099999999996
vn -0.993427 0.092697 -0.067164
vn 0.898394 -0.438738 -0.01992899999999997
vn 0.768174 0.590958 0.24632699999999996
vn 0.108842 -0.962234 -0.24951899999999994
vn -0.942866 -0.279952 -0.18064099999999997
vn -0.144458 0.958697 0.24501399999999995
vn -0.782838 0.616864 0.08150999999999996
vn 0.768174 0.590958 0.24632699999999996
vn 0.898394 -0.438738 -0.01992899999999997
vn -0.570222 -0.81199 -0.12457399999999995
vn 0.407952 -0.890991 0.19927400000000006
vn -0.944506 0.09533599999999999 -0.314356
vn -0.457371 0.862437 -0.21682800000000005
vn 0.949903 -0.04942599999999998 0.308612
vn 0.479687 0.873161 0.08654499999999994
vn 0.407952 -0.890991 0.19927400000000006
vn -0.570222 -0.81199 -0.12457399999999995
vn -0.636381 -0.738234 0.22367400000000007
vn 0.337977 -0.841928 0.42062900000000003
vn -0.978515 0.08032899999999998 -0.189883
vn -0.431749 0.797627 -0.42117000000000004
vn 0.976144 -0.10021899999999999 0.192614
vn 0.564809 0.783097 -0.2602900000000001
vn 0.337977 -0.841928 0.42062900000000003
vn -0.636381 -0.738234 0.22367400000000007
vn -0.260419 -0.12926899999999994 0.956803
vn -0.259911 -0.12912899999999994 0.95696
vn -0.260419 -0.12926899999999994 0.956803
vn -0.260927 -0.12940999999999994 0.956645
vn 0.206382 -0.970966 -0.12096199999999994
vn 0.666208 -0.745167 -0.029897999999999956
vn -0.646881 -0.738322 -0.19085699999999994
vn -0.98992 -0.05587000000000001 -0.130139
vn 0.990411 0.049613000000000004 0.128933
vn 0.650023 0.735677 0.19039399999999995
vn 0.666208 -0.745167 -0.029897999999999956
vn 0.206382 -0.970966 -0.12096199999999994
vn 0.077457 -0.26880399999999993 0.960075
vn 0.078391 -0.2685989999999999 0.960057
vn 0.077457 -0.26880399999999993 0.960075
vn 0.076523 -0.26900899999999994 0.960093
vn -0.00057 -0.989307 -0.14584899999999995
vn 0.50963 -0.850082 -0.13280999999999996
vn -0.797327 -0.598593 -0.07717099999999996
vn -0.993398 0.11064 0.03032899999999999
vn 0.993189 -0.112391 -0.030723999999999994
vn 0.797815 0.598002 0.07671099999999996
vn 0.50963 -0.850082 -0.13280999999999996
vn -0.00057 -0.989307 -0.14584899999999995
vn 0.327707 0.07337700000000005 0.941926
vn 0.328568 0.07370400000000006 0.9416
vn 0.327707 0.07337700000000005 0.941926
vn 0.326845 0.07304900000000006 0.942251
vn 0.070223 -0.996468 0.046044000000000064
vn 0.601333 -0.797908 -0.04173299999999995
vn -0.743309 -0.653255 0.14404800000000004
vn -0.98984 0.003321000000000009 0.142145
vn 0.989761 -0.0029800000000000087 -0.142702
vn 0.744158 0.652288 -0.14404700000000004
vn 0.601333 -0.797908 -0.04173299999999995
vn 0.070223 -0.996468 0.046044000000000064
vn 0.207553 0.18282800000000005 0.960987
vn 0.20855 0.18308600000000005 0.960722
vn 0.207553 0.18282800000000005 0.960987
vn 0.206555 0.18256900000000006 0.961251
vn 0.019912 -0.991335 0.12983700000000006
vn 0.587453 -0.808163 0.04209700000000005
vn -0.781813 -0.60054 0.16769400000000004
vn -0.993815 0.028245000000000006 0.107396
vn 0.993839 -0.028208000000000007 -0.107181
vn 0.783372 0.598665 -0.16711800000000002
vn 0.587453 -0.808163 0.04209700000000005
vn 0.019912 -0.991335 0.12983700000000006
vn -0.192038 -0.13894299999999996 0.971502
vn -0.190914 -0.13862399999999994 0.971769
vn -0.192038 -0.13894299999999996 0.971502
vn -0.193161 -0.13926199999999994 0.971234
vn 0.135107 -0.986499 -0.09254699999999995
vn 0.623037 -0.780842 -0.04594899999999995
vn -0.705321 -0.700653 -0.10773399999999995
vn -0.998465 -0.013897000000000003 -0.053614
vn 0.99853 0.009292000000000003 0.053403
vn 0.70716 0.698787 0.10780499999999996
vn 0.623037 -0.780842 -0.04594899999999995
vn 0.135107 -0.986499 -0.09254699999999995
vn 0.064516 0.15701900000000005 0.985486
vn 0.065663 0.15730200000000005 0.985365
vn 0.064516 0.15701900000000005 0.985486
vn 0.063368 0.15673600000000004 0.985606
vn 0.019776 -0.994751 0.10039200000000005
vn 0.575142 -0.816357 0.05265400000000005
vn -0.78547 -0.610091 0.10404500000000004
vn -0.998162 0.034984 0.049476
vn 0.998125 -0.036247 -0.049332
vn 0.787038 0.608085 -0.10394400000000004
vn 0.575142 -0.816357 0.05265400000000005
vn 0.019776 -0.994751 0.10039200000000005
vn -0.135042 -0.005705999999999939 0.990824
vn -0.134328 -0.005430999999999939 0.990922
vn -0.135042 -0.005705999999999939 0.990824
vn -0.135756 -0.0059809999999999395 0.990724
vn 0.107154 -0.994123 -0.01540699999999994
vn 0.641329 -0.767168 0.012225000000000047
vn -0.728336 -0.683728 -0.04518899999999996
vn -0.997706 -0.051302 -0.04418
vn 0.997845 0.048755 0.043904
vn 0.729632 0.682349 0.04514199999999996
vn 0.641329 -0.767168 0.012225000000000047
vn 0.107154 -0.994123 -0.01540699999999994
vn -0.006871 0.18128800000000006 0.983406
vn -0.005767 0.18164500000000006 0.983347
vn -0.006871 0.18128800000000006 0.983406
vn -0.007975 0.18093200000000006 0.983463
vn 0.060604 -0.99477 0.08221600000000005
vn 0.624479 -0.778487 0.06311700000000005
vn -0.760758 -0.646696 0.05506000000000004
vn -0.999431 -0.033397 0.004623000000000002
vn 0.999467 0.032314 -0.004695000000000002
vn 0.762241 0.644942 -0.055114000000000045
vn 0.624479 -0.778487 0.06311700000000005
vn 0.060604 -0.99477 0.08221600000000005
g 01
f 1/1/1 2/2/2 3/3/3
f 4/4/4 5/5/5 6/6/6
f 7/7/7 8/8/8 9/9/9
f 10/10/10 11/11/11 12/12/12
f 13/13/13 14/14/14 15/15/15
f 16/16/16 17/17/17 18/18/18
f 19/19/19 20/20/20 21/21/21
f 22/22/22 23/23/23 24/24/24
f 25/25/25 26/26/26 27/27/27
f 28/28/28 29/29/29 30/30/30
f 31/31/31 32/32/32 33/33/33
f 34/34/34 35/35/35 36/36/36
f 37/37/37 38/38/38 39/39/39
f 40/40/40 41/41/41 42/42/42
f 43/43/43 44/44/44 45/45/45
f 46/46/46 47/47/47 48/48/48
f 49/49/49 50/50/50 51/51/51
f 52/52/52 53/53/53 54/54/54
f 55/55/55 56/56/56 57/57/57
f 58/58/58 59/59/59 60/60/60
f 61/61/61 62/62/62 63/63/63
f 64/64/64 65/65/65 66/66/66
f 67/67/67 68/68/68 69/69/69
f 70/70/70 71/71/71 72/72/72
f 73/73/73 74/74/74 75/75/75
f 76/76/76 77/77/77 78/78/78
f 79/79/79 80/80/80 81/81/81
f 82/82/82 83/83/83 84/84/84
f 85/85/85 86/86/86 87/87/87
f 88/88/88 89/89/89 90/90/90
f 91/91/91 92/92/92 93/93/93
f 94/94/94 95/95/95 96/96/96
f 97/97/97 98/98/98 99/99/99
f 100/100/100 101/101/101 102/102/102
f 103/103/103 104/104/104 105/105/105
f 106/106/106 107/107/107 108/108/108
f 109/109/109 110/110/110 111/111/111
f 112/112/112 113/113/113 114/114/114
f 115/115/115 116/116/116 117/117/117
f 118/118/118 119/119/119 120/120/120
f 121/121/121 122/122/122 123/123/123
f 124/124/124 125/125/125 126/126/126
f 127/127/127 128/128/128 129/129/129
f 130/130/130 131/131/131 132/132/132
f 133/133/133 134/134/134 135/135/135
f 136/136/136 137/137/137 138/138/138
f 139/139/139 140/140/140 141/141/141
f 142/142/142 143/143/143 144/144/144
f 145/145/145 146/146/146 147/147/147
f 148/148/148 149/149/149 150/150/150
f 151/151/151 152/152/152 153/153/153
f 154/154/154 155/155/155 156/156/156
f 157/157/157 158/158/158 159/159/159
f 160/160/160 161/161/161 162/162/162
f 163/163/163 164/164/164 165/165/165
f 166/166/166 167/167/167 168/168/168
f 168/168/168 169/169/169 170/170/170
f 171/171/171 172/172/172 173/173/173
f 173/173/173 174/174/174 175/175/175
f 176/176/176 177/177/177 178/178/178
f 178/178/178 179/179/179 180/180/180
f 181/181/181 182/182/182 183/183/183
f 183/183/183 184/184/184 185/185/185
f 186/186/186 187/187/187 188/188/188
f 188/188/188 189/189/189 190/190/190
f 191/191/191 192/192/192 193/193/193
f 193/193/193 194/194/194 195/195/195
f 196/196/196 197/197/197 198/198/198
f 198/198/198 199/199/199 200/200/200
f 201/201/201 202/202/202 203/203/203
f 203/203/203 204/204/204 205/205/205
f 206/206/206 207/207/207 208/208/208
f 208/208/208 209/209/209 210/210/210
f 211/211/211 212/212/212 213/213/213
f 213/213/213 214/214/214 215/215/215
f 216/216/216 217/217/217 218/218/218
f 218/218/218 219/219/219 220/220/220
f 221/221/221 222/222/222 223/223/223
f 223/223/223 224/224/224 221/221/221
f 225/225/225 226/226/226 227/227/227
f 227/227/227 228/228/228 225/225/225
f 229/229/229 230/230/230 231/231/231
f 231/231/231 232/232/232 229/229/229
f 233/233/233 234/234/234 235/235/235
f 235/235/235 236/236/236 233/233/233
f 237/237/237 238/238/238 239/239/239
f 239/239/239 240/240/240 237/237/237
f 241/241/241 242/242/242 243/243/243
f 243/243/243 244/244/244 241/241/241
f 245/245/245 246/246/246 247/247/247
f 247/247/247 248/248/248 245/245/245
f 249/249/249 250/250/250 251/251/251
f 251/251/251 252/252/252 249/249/249
f 253/253/253 254/254/254 255/255/255
f 255/255/255 256/256/256 253/253/253
f 257/257/257 258/258/258 259/259/259
f 259/259/259 260/260/260 257/257/257
f 261/261/261 262/262/262 263/263/263
f 263/263/263 264/264/264 261/261/261
f 265/265/265 266/266/266 267/267/267
f 267/267/267 268/268/268 265/265/265
f 269/269/269 270/270/270 271/271/271
f 271/271/271 272/272/272 269/269/269
f 273/273/273 274/274/274 275/275/275
f 275/275/275 276/276/276 273/273/273
f 277/277/277 278/278/278 279/279/279
f 279/279/279 280/280/280 277/277/277
f 281/281/281 282/282/282 283/283/283
f 283/283/283 284/284/284 281/281/281
f 285/285/285 286/286/286 287/287/287
f 287/287/287 288/288/288 285/285/285
f 289/289/289 290/290/290 291/291/291
f 291/291/291 292/292/292 289/289/289
f 293/293/293 294/294/294 295/295/295
f 295/295/295 296/296/296 293/293/293
f 297/297/297 298/298/298 299/299/299
f 299/299/299 300/300/300 297/297/297
f 301/301/301 302/302/302 303/303/303
f 303/303/303 304/304/304 301/301/301
f 305/305/305 306/306/306 307/307/307
f 307/307/307 308/308/308 305/305/305
f 309/309/309 310/310/310 311/311/311
f 311/311/311 312/312/312 309/309/309
f 313/313/313 314/314/314 315/315/315
f 315/315/315 316/316/316 313/313/313
f 317/317/317 318/318/318 319/319/319
f 319/319/319 320/320/320 317/317/317
f 321/321/321 322/322/322 323/323/323
f 323/323/323 324/324/324 321/321/321
f 325/325/325 326/326/326 327/327/327
f 327/327/327 328/328/328 325/325/325
f 329/329/329 330/330/330 331/331/331
f 331/331/331 332/332/332 329/329/329
f 333/333/333 334/334/334 335/335/335
f 335/335/335 336/336/336 333/333/333
f 337/337/337 338/338/338 339/339/339
f 339/339/339 340/340/340 337/337/337
f 341/341/341 342/342/342 343/343/343
f 343/343/343 344/344/344 341/341/341
f 345/345/345 346/346/346 347/347/347
f 347/347/347 348/348/348 345/345/345
f 349/349/349 350/350/350 351/351/351
f 351/351/351 352/352/352 349/349/349
f 353/353/353 354/354/354 355/355/355
f 355/355/355 356/356/356 353/353/353
f 357/357/357 358/358/358 359/359/359
f 359/359/359 360/360/360 357/357/357
f 361/361/361 362/362/362 363/363/363
f 363/363/363 364/364/364 361/361/361
f 365/365/365 366/366/366 367/367/367
f 367/367/367 368/368/368 365/365/365
f 369/369/369 370/370/370 371/371/371
f 371/371/371 372/372/372 369/369/369
f 373/373/373 374/374/374 375/375/375
f 375/375/375 376/376/376 373/373/373
f 377/377/377 378/378/378 379/379/379
f 379/379/379 380/380/380 377/377/377
f 381/381/381 382/382/382 383/383/383
f 383/383/383 384/384/384 381/381/381
f 385/385/385 386/386/386 387/387/387
f 387/387/387 388/388/388 385/385/385
f 389/389/389 390/390/390 391/391/391
f 391/391/391 392/392/392 389/389/389
f 393/393/393 394/394/394 395/395/395
f 395/395/395 396/396/396 393/393/393
f 397/397/397 398/398/398 399/399/399
f 399/399/399 400/400/400 397/397/397
f 401/401/401 402/402/402 403/403/403
f 403/403/403 404/404/404 401/401/401
f 405/405/405 406/406/406 407/407/407
f 407/407/407 408/408/408 405/405/405
f 409/409/409 410/410/410 411/411/411
f 411/411/411 412/412/412 409/409/409
f 413/413/413 414/414/414 415/415/415
f 415/415/415 416/416/416 413/413/413
f 417/417/417 418/418/418 419/419/419
f 419/419/419 420/420/420 417/417/417
f 421/421/421 422/422/422 423/423/423
f 423/423/423 424/424/424 421/421/421
f 425/425/425 426/426/426 427/427/427
f 427/427/427 428/428/428 425/425/425
f 429/429/429 430/430/430 431/431/431
f 431/431/431 432/432/432 429/429/429
f 433/433/433 434/434/434 435/435/435
f 435/435/435 436/436/436 433/433/433
f 437/437/437 438/438/438 439/439/439
f 439/439/439 440/440/440 437/437/437
f 441/441/441 442/442/442 443/443/443
f 443/443/443 444/444/444 441/441/441
