v -0.613429 -0.8076319999999999 1.035716
v -0.613429 -0.8076319999999999 1.031451
v -0.836789 -0.933473 0.8420040000000001
v -0.836789 -0.933473 0.8462690000000002
v -0.884816 -0.962539 0.8045120000000001
v -0.884816 -0.962539 0.8087770000000001
v -1.148841 -1.13034 0.6024820000000001
v -1.148841 -1.13034 0.6067460000000001
v -0.361673 0.10372100000000005 0.822787
v -0.361673 0.10372100000000005 0.815481
v -0.070968 -0.13515199999999994 1.042088
v -0.070968 -0.13515199999999994 1.049394
v -0.016433 -0.18192599999999995 1.09741
v -0.016433 -0.18192599999999995 1.104716
v 0.213468 -0.4227349999999999 1.359942
v 0.213468 -0.4227349999999999 1.367248
v 0.206802 -0.4275319999999999 1.396784
v 0.206802 -0.4275319999999999 1.38824
v 0.01459 -0.5145719999999999 1.278755
v 0.01459 -0.5145719999999999 1.287291
v -0.045145 -0.5371099999999999 1.253157
v -0.045145 -0.5371099999999999 1.261551
v -0.292633 -0.6494079999999999 1.158836
v -0.292633 -0.6494079999999999 1.167184
v -0.348758 -0.6776089999999999 1.135785
v -0.348758 -0.6776089999999999 1.144163
v -0.597242 -0.7975339999999999 1.044016
v -0.597242 -0.7975339999999999 1.035602
v 0.781804 -0.32469899999999996 1.216604
v 0.781804 -0.32469899999999996 1.212339
v 0.512969 -0.37065899999999996 1.307564
v 0.512969 -0.37065899999999996 1.311829
v 0.455169 -0.38017899999999993 1.323831
v 0.455527 -0.38017899999999993 1.328095
v 0.21951 -0.4224289999999999 1.395918
v 0.21951 -0.4224289999999999 1.400182
v -0.070968 -0.13515199999999994 1.042088
v -0.070968 -0.13515199999999994 0.889312
v -0.016433 -0.18192599999999995 0.944633
v -0.016433 -0.18192599999999995 1.09741
v -0.884816 -0.962539 0.6552520000000001
v -0.884816 -0.962539 0.8045120000000001
v -0.836789 -0.933473 0.8420040000000001
v -0.836789 -0.933473 0.6927440000000001
v -0.046695 -0.5342919999999999 1.083936
v -0.045145 -0.5371099999999999 1.253157
v 0.01459 -0.5145719999999999 1.278755
v 0.01459 -0.5145719999999999 1.11296
v -0.350748 -0.6728769999999998 0.991794
v -0.348758 -0.6776089999999999 1.135785
v -0.292633 -0.6494079999999999 1.158836
v -0.292633 -0.6494079999999999 1.014844
v 0.455527 -0.38017899999999993 1.174571
v 0.455169 -0.38017899999999993 1.323831
v 0.512969 -0.37065899999999996 1.307564
v 0.512969 -0.37065899999999996 1.158304
vt 0.145404 0.080010
vt 0.155404 0.080494
vt 0.155404 0.131428
vt 0.145404 0.130943
vt 0.155404 0.240150
vt 0.145404 0.168737
vt 0.155404 0.277484
vt 0.145404 0.277000
vt 0.155408 0.272854
vt 0.145408 0.272900
vt 0.145408 0.207681
vt 0.155408 0.227501
vt 0.145408 0.115692
vt 0.155408 0.175289
vt 0.145408 0.079594
vt 0.155408 0.078751
vt 0.153818 0.279005
vt 0.145944 0.279014
vt 0.145944 0.191954
vt 0.153818 0.249994
vt 0.145944 0.162880
vt 0.153818 0.162871
vt 0.145944 0.133789
vt 0.153818 0.133780
vt 0.145944 0.085249
vt 0.153818 0.104659
vt 0.153818 0.075531
vt 0.145944 0.075540
vt 0.153183 0.279058
vt 0.147443 0.279200
vt 0.147643 0.241147
vt 0.152877 0.241006
vt 0.147324 0.118796
vt 0.152702 0.197943
vt 0.147283 0.075945
vt 0.152759 0.075909
vt 0.434237 0.546801
vt 0.433589 0.635548
vt 0.358544 0.636137
vt 0.358812 0.547166
vt 0.562425 0.637704
vt 0.562738 0.546583
vt 0.638930 0.546276
vt 0.638169 0.637524
vt 0.466053 0.638114
vt 0.465883 0.547057
vt 0.532727 0.546411
vt 0.532984 0.638754
vt 0.358544 0.636137
vt 0.358812 0.547166
vt 0.434237 0.546801
vt 0.433589 0.635548
vt 0.358465 0.636011
vt 0.358952 0.547273
vt 0.434105 0.546873
vt 0.433617 0.635611
vn -0.490857 0.87124 -5.3348063864457004E-17
vn -0.490857 0.87124 -5.3348063864457004E-17
vn -0.507065 0.861908 -5.2776643667974845E-17
vn -0.508855 0.860852 -5.271198231697986E-17
vn -0.522449 0.852671 -5.2211040543788637E-17
vn -0.53021 0.847866 -5.191681915029349E-17
vn -0.536387 0.843972 -5.16783804184995E-17
vn -0.536387 0.843972 -5.16783804184995E-17
vn -0.634866 -0.772622 4.730945296254132E-17
vn -0.634866 -0.772622 4.730945296254132E-17
vn -0.640285 -0.768138 4.703488715017248E-17
vn -0.645673 -0.763615 4.675793327654531E-17
vn -0.675863 -0.737027 4.512988782175881E-17
vn -0.69998 -0.714162 4.37298103686336E-17
vn -0.723298 -0.690536 4.228313510480084E-17
vn -0.723298 -0.690536 4.228313510480084E-17
vn -0.412511 0.910953 -5.577978378118395E-17
vn -0.412511 0.910953 -5.577978378118395E-17
vn -0.369218 0.929335 0.003769999999999943
vn -0.373011 0.927827 -5.681301828562456E-17
vn -0.369952 0.929039 0.004708999999999942
vn -0.393323 0.919401 -1.000000000056297E-06
vn -0.422309 0.906424 0.007105999999999945
vn -0.437132 0.899397 -5.50721828606366E-17
vn -0.445586 0.895211 0.007102999999999945
vn -0.441831 0.897098 -5.493140971107461E-17
vn -0.434653 0.900598 -5.5145722900925403E-17
vn -0.434653 0.900598 -5.5145722900925403E-17
vn -0.168516 0.985699 -6.035665626363734E-17
vn -0.168516 0.985699 -6.035665626363734E-17
vn -0.165135 0.986271 -7.800000000006039E-05
vn -0.163609 0.986515 0.00447899999999994
vn -0.164276 0.986391 0.006879999999999939
vn -0.169392 0.985505 0.009303999999999939
vn -0.17419 0.984685 0.007237999999999939
vn -0.17621 0.984353 -6.027423753405474E-17
vn -0.651028 -0.759054 4.647865257399975E-17
vn -0.651028 -0.759054 4.647865257399975E-17
vn -0.651028 -0.759054 4.647865257399975E-17
vn -0.651028 -0.759054 4.647865257399975E-17
vn -0.517771 0.855519 -5.238543024798722E-17
vn -0.522449 0.852671 -5.2211040543788637E-17
vn -0.507065 0.861908 -5.2776643667974845E-17
vn -0.517771 0.855519 -5.238543024798722E-17
vn -0.333299 0.942774 0.009418999999999943
vn -0.369952 0.929039 0.004708999999999942
vn -0.369218 0.929335 0.003769999999999943
vn -0.306303 0.951934 -5.828914630497683E-17
vn -0.417913 0.908313 0.017778999999999944
vn -0.445586 0.895211 0.007102999999999945
vn -0.422309 0.906424 0.007105999999999945
vn -0.374457 0.927244 -5.677731983142942E-17
vn -0.163062 0.986616 -0.00019500000000006041
vn -0.164276 0.986391 0.006879999999999939
vn -0.165135 0.986271 -7.800000000006039E-05
vn -0.163502 0.986543 -6.040833635856136E-17
g Cloth
f 1/1/1 2/2/2 3/3/3
f 3/3/3 4/4/4 1/1/1
f 4/4/4 3/3/3 5/5/5
f 5/5/5 6/6/6 4/4/4
f 6/6/6 5/5/5 7/7/7
f 7/7/7 8/8/8 6/6/6
f 9/9/9 10/10/10 11/11/11
f 11/11/11 12/12/12 9/9/9
f 12/12/12 11/11/11 13/13/13
f 13/13/13 14/14/14 12/12/12
f 14/14/14 13/13/13 15/15/15
f 15/15/15 16/16/16 14/14/14
f 17/17/17 18/18/18 19/19/19
f 19/19/19 20/20/20 17/17/17
f 20/20/20 19/19/19 21/21/21
f 21/21/21 22/22/22 20/20/20
f 22/22/22 21/21/21 23/23/23
f 23/23/23 24/24/24 22/22/22
f 24/24/24 23/23/23 25/25/25
f 25/25/25 26/26/26 24/24/24
f 27/27/27 26/26/26 25/25/25
f 25/25/25 28/28/28 27/27/27
f 29/29/29 30/30/30 31/31/31
f 31/31/31 32/32/32 29/29/29
f 32/32/32 31/31/31 33/33/33
f 33/33/33 34/34/34 32/32/32
f 34/34/34 33/33/33 35/35/35
f 35/35/35 36/36/36 34/34/34
g Line
f 37/37/37 38/38/38 39/39/39
f 39/39/39 40/40/40 37/37/37
f 41/41/41 42/42/42 43/43/43
f 43/43/43 44/44/44 41/41/41
f 45/45/45 46/46/46 47/47/47
f 47/47/47 48/48/48 45/45/45
f 49/49/49 50/50/50 51/51/51
f 51/51/51 52/52/52 49/49/49
f 53/53/53 54/54/54 55/55/55
f 55/55/55 56/56/56 53/53/53
