v 0.040607 -0.82807 0.885925
v 0.03772 -1.332811 0.34119800000000006
v 0.037476 -1.099584 0.5332440000000002
v 0.03772 -1.02576 0.6213250000000001
v 0.03772 -0.961943 0.7032920000000001
v 0.037736 -0.901251 0.804833
v 0.036865 -0.882309 0.666917
v 0.036865 -0.950124 0.5838280000000001
v 0.03772 -1.012451 0.49851100000000004
v 0.03772 -1.082867 0.42862300000000003
v 0.037704 -0.890731 0.778146
v 0.03772 -0.952644 0.6761550000000001
v 0.03772 -1.017463 0.5938640000000001
v 0.037476 -1.09258 0.5054250000000001
v 0.03772 -1.323436 0.31408700000000006
v 0.037598 -1.209468 0.42818700000000004
v 0.037598 -1.201279 0.40072300000000005
v 0.043495 -0.37439599999999995 1.249579
v 0.043495 -0.3637949999999999 1.222924
v 0.040607 -0.8418169999999999 0.910845
v 0.043495 -0.7450399999999999 0.946919
v 0.043495 -0.6757709999999999 0.985249
v 0.043495 -0.5768719999999999 1.051216
v 0.043495 -0.47443599999999997 1.137619
v 0.043495 -0.45755399999999996 1.023188
v 0.042274 -0.5533369999999999 0.938373
v 0.043495 -0.660337 0.86084
v 0.061806 -0.726754 0.823055
v 0.043495 -0.46383399999999997 1.110963
v 0.043495 -0.5662709999999999 1.024561
v 0.043495 -0.6706919999999998 0.957016
v 0.043495 -0.7411829999999999 0.920263
v 0.043495 0.0902670000000001 1.505437
v 0.043495 0.1008680000000001 1.478781
v 0.043495 -0.31669499999999995 1.259206
v 0.043495 -0.21452899999999991 1.294514
v 0.043495 -0.11562899999999991 1.347481
v 0.043495 -0.013192999999999913 1.413894
v 0.043495 0.011318000000000078 1.264399
v 0.042274 -0.09209499999999993 1.216083
v 0.043495 -0.1990949999999999 1.176758
v 0.061806 -0.2984089999999999 1.141902
v 0.043495 -0.002591999999999915 1.387483
v 0.043495 -0.10502799999999991 1.320825
v 0.043495 -0.2094489999999999 1.266281
v 0.043495 -0.31283799999999995 1.23255
v -0.436403 0.8642850000000001 1.246033
v -0.436403 0.8642850000000001 1.217346
v 0.034846 0.1075050000000001 1.500183
v -0.069947 0.2713520000000001 1.371887
v -0.125135 0.35697500000000004 1.315979
v -0.205126 0.48170900000000005 1.255676
v -0.263709 0.5730610000000002 1.232788
v -0.323876 0.6750350000000002 1.223389
v -0.376934 0.7587130000000001 1.222473
v -0.376934 0.7587130000000001 1.090698
v -0.323876 0.6750360000000001 1.085754
v -0.263709 0.5730610000000002 1.076904
v -0.205126 0.48170900000000005 1.094482
v -0.125135 0.35697500000000004 1.175049
v -0.069947 0.27135200000000004 1.224792
v -0.376934 0.7587130000000001 1.193787
v -0.323877 0.6750360000000001 1.194702
v -0.263709 0.5730610000000002 1.204102
v -0.205126 0.48170900000000005 1.22699
v -0.125135 0.35697500000000004 1.287292
v -0.069947 0.27135200000000004 1.343201
v 0.033912 0.10473200000000009 1.471497
v 0.502858 0.8595900000000001 1.246033
v 0.502858 0.8595900000000001 1.217346
v 0.032979 0.10195800000000009 1.500183
v 0.133485 0.2684680000000001 1.371887
v 0.185819 0.35586500000000004 1.315979
v 0.26224 0.48281900000000005 1.255676
v 0.318208 0.5757950000000001 1.232788
v 0.382998 0.6748970000000001 1.223389
v 0.434532 0.7595210000000001 1.222473
v 0.434532 0.7595210000000001 1.065063
v 0.382998 0.6748970000000001 1.06012
v 0.318208 0.5757950000000001 1.099487
v 0.26224 0.48281900000000005 1.117065
v 0.185819 0.35586500000000004 1.186035
v 0.133485 0.26846800000000004 1.224792
v 0.434532 0.7595210000000001 1.193787
v 0.382998 0.6748970000000001 1.194702
v 0.318208 0.5757950000000001 1.204102
v 0.26224 0.48281900000000005 1.22699
v 0.185819 0.35586500000000004 1.287293
v 0.133485 0.26846800000000004 1.343201
v 0.037704 -0.890731 0.778146
v 0.03772 -0.952644 0.6761550000000001
v 0.03772 -1.017463 0.5938640000000001
v 0.037476 -1.09258 0.5054250000000001
v 0.040607 -0.82807 0.885925
v 0.040607 -0.8418169999999999 0.910845
v 0.043495 -0.46383399999999997 1.110963
v 0.043495 -0.5662709999999999 1.024561
v 0.043495 -0.6706919999999998 0.957016
v 0.043495 -0.7411829999999999 0.920263
v 0.043495 -0.3637949999999999 1.222924
v 0.043495 -0.37439599999999995 1.249579
v 0.043495 -0.002591999999999915 1.387483
v 0.043495 -0.10502799999999991 1.320825
v 0.043495 -0.2094489999999999 1.266281
v 0.043495 -0.31283799999999995 1.23255
v -0.069947 0.27135200000000004 1.343201
v -0.125135 0.35697500000000004 1.287292
v -0.376934 0.7587130000000001 1.193787
v -0.323877 0.6750360000000001 1.194702
v -0.263709 0.5730610000000002 1.204102
v -0.205126 0.48170900000000005 1.22699
v 0.033912 0.10473200000000009 1.471497
v 0.133485 0.26846800000000004 1.343201
v 0.185819 0.35586500000000004 1.287293
v 0.434532 0.7595210000000001 1.193787
v 0.382998 0.6748970000000001 1.194702
v 0.318208 0.5757950000000001 1.204102
v 0.26224 0.48281900000000005 1.22699
v 0.03772 -1.02576 0.6213250000000001
v 0.03772 -1.017463 0.5938640000000001
v -0.205126 0.48170900000000005 1.22699
v -0.205126 0.48170900000000005 1.255676
v 0.26224 0.48281900000000005 1.22699
v 0.26224 0.48281900000000005 1.255676
vt 0.976346 0.991886
vt 0.962971 0.978212
vt 0.704006 0.978212
vt 0.604913 0.978212
vt 0.772487 0.978212
vt 0.872229 0.978212
vt 0.659259 0.081703
vt 0.701705 0.079985
vt 0.094836 0.086583
vt 0.138117 0.092176
vt 0.871346 0.991886
vt 0.770597 0.991886
vt 0.607600 0.991886
vt 0.707687 0.991886
vt 0.964800 0.991886
vt 0.835160 0.978212
vt 0.837915 0.991886
vt 0.990385 0.978893
vt 0.989408 0.994612
vt 0.971247 0.978212
vt 0.674584 0.978893
vt 0.728329 0.978893
vt 0.809594 0.978893
vt 0.901047 0.978893
vt 0.015653 0.618415
vt 0.068388 0.615919
vt 0.019229 0.099215
vt 0.068897 0.095483
vt 0.890314 0.994612
vt 0.798861 0.994612
vt 0.713907 0.994612
vt 0.660122 0.994612
vt 0.632796 0.978893
vt 0.631818 0.994612
vt 0.957033 0.978893
vt 0.886314 0.978893
vt 0.810287 0.978893
vt 0.726887 0.978893
vt 0.017234 0.105527
vt 0.070277 0.107593
vt 0.094717 0.085791
vt 0.136110 0.091660
vt 0.725811 0.994612
vt 0.809309 0.994612
vt 0.889025 0.994612
vt 0.959784 0.994612
vt 0.586850 0.978115
vt 0.586346 0.995581
vt 0.653202 0.978115
vt 0.749482 0.978115
vt 0.822928 0.978115
vt 0.943939 0.978115
vt 0.860554 0.978115
vt 0.769121 0.978115
vt 0.687784 0.978115
vt 0.066729 0.617081
vt 0.068045 0.535503
vt 0.017018 0.617897
vt 0.067055 0.615714
vt 0.136816 0.093325
vt 0.139599 0.017467
vt 0.687281 0.995581
vt 0.768618 0.995581
vt 0.860050 0.995581
vt 0.943436 0.995581
vt 0.823431 0.995581
vt 0.749986 0.995581
vt 0.653706 0.995581
vt 0.591353 0.978115
vt 0.590849 0.995581
vt 0.648013 0.978115
vt 0.746761 0.978115
vt 0.821853 0.978115
vt 0.942956 0.978115
vt 0.858064 0.978115
vt 0.769334 0.978115
vt 0.687123 0.978115
vt 0.015606 0.108301
vt 0.072226 0.111195
vt 0.014483 0.619676
vt 0.069140 0.614888
vt 0.659585 0.081793
vt 0.702459 0.080066
vt 0.686620 0.995581
vt 0.768830 0.995581
vt 0.857560 0.995581
vt 0.942452 0.995581
vt 0.822357 0.995581
vt 0.747264 0.995581
vt 0.660734 0.011151
vt 0.696270 0.012201
vt 0.092425 0.016248
vt 0.137504 0.018094
vt 0.598062 0.994612
vt 0.608795 0.978893
vt 0.018238 0.533848
vt 0.068582 0.533657
vt 0.014238 0.030329
vt 0.067556 0.023109
vt 0.994271 0.994612
vt 0.995249 0.978893
vt 0.014075 0.011015
vt 0.068097 0.025643
vt 0.092587 0.016462
vt 0.139030 0.018145
vt 0.095009 0.015799
vt 0.096087 0.089497
vt 0.014599 0.618128
vt 0.019228 0.533827
vt 0.017431 0.534744
vt 0.069236 0.532670
vt 0.648516 0.995581
vt 0.697688 0.011158
vt 0.662405 0.011940
vt 0.014914 0.019856
vt 0.071526 0.019164
vt 0.018411 0.532642
vt 0.069444 0.532504
vt 0.604913 0.978212
vt 0.607600 0.991886
vt 0.943436 0.995581
vt 0.943939 0.978115
vt 0.942452 0.995581
vt 0.942956 0.978115
vn 0.999591 -0.026645 -0.010434999999999998
vn 1 0.00081 0.00026099999999999995
vn 1 -0.000824 -0.00020699999999999994
vn 0.999999 -0.001647 -0.0004549999999999999
vn 1 -5.6E-05 -1.8999999999999998E-05
vn 0.999954 -0.008636 -0.004203999999999999
vn 0.999941 0.008451 -0.006897000000000001
vn 0.999901 0.011644 -0.007873
vn 1 0 0
vn 0.999995 -0.003043 0.0012050000000000001
vn 0.999952 -0.0052450000000000005 -0.008284
vn 0.999989 0.004007 -0.0023940000000000003
vn 0.999999 -0.001697 0.0003370000000000001
vn 0.999998 -0.001852 0.0003060000000000001
vn 1 0.000802 0.0002779999999999999
vn 1 0.000862 0.00024299999999999994
vn 1 0.000831 0.00026099999999999995
vn 1 0 0
vn 1 0 0
vn 0.999599 -0.025202 -0.012881999999999998
vn 0.999806 -0.018723 -0.006064999999999999
vn 1 0 0
vn 1 0 0
vn 1 0 0
vn 0.999928 -0.011984 -0.0008569999999999993
vn 0.999977 -0.0006910000000000004 -0.006714
vn 0.96752 0.251344 0.027059999999999987
vn 0.991465 0.082381 0.101043
vn 0.999996 -0.00027600000000000015 -0.002686
vn 0.999992 0.002651 -0.003142
vn 0.998662 0.032675 0.040077
vn 0.998662 -0.030319999999999996 0.041893
vn 1 0 0
vn 1 0 0
vn 1 0 0
vn 1 0 0
vn 1 0 0
vn 1 0 0
vn 0.999936 -0.011211 -0.0012669999999999992
vn 0.99998 -0.0020960000000000006 -0.006027
vn 0.984464 0.174425 0.020174999999999988
vn 0.992798 0.05711000000000001 0.105309
vn 0.999997 -0.0008390000000000001 -0.002411
vn 0.999995 0.0017549999999999998 -0.002697
vn 0.998862 0.022738000000000005 0.041929
vn 0.998765 -0.015409999999999997 0.047232
vn 0.871275 0.490796 -1.0000000000300525E-06
vn 0.871275 0.490796 -1.0000000000300525E-06
vn 0.86594 0.494342 -0.07598400000000002
vn 0.852468 0.522165 -0.02535100000000003
vn 0.840947 0.541118 -3.3133921333050874E-17
vn 0.841779 0.539822 -3.3054564220466124E-17
vn 0.848403 0.529352 -1.0000000000324134E-06
vn 0.855783 0.517334 -1.0000000000316775E-06
vn 0.853709 0.520751 -1.0000000000318867E-06
vn 0.844539 0.535493 -3.278948942079068E-17
vn 0.84454 0.535493 -3.278948942079068E-17
vn 0.841779 0.539822 -3.3054564220466124E-17
vn 0.841779 0.539822 -3.3054564220466124E-17
vn 0.84053 0.541765 -3.317353865700329E-17
vn 0.84053 0.541765 -3.317353865700329E-17
vn 0.855512 0.517783 -1.000000000031705E-06
vn 0.848801 0.528712 -1.0000000000323742E-06
vn 0.849712 0.527247 -3.2284567545502225E-17
vn 0.841779 0.539822 -3.3054564220466124E-17
vn 0.84103 0.540988 -3.312596112885642E-17
vn 0.842574 0.53858 -3.297851365423907E-17
vn 0.999546 -0.007658000000000002 -0.029144
vn 0.825855 -0.563882 -2.9999999999654725E-06
vn 0.825855 -0.563882 -2.9999999999654725E-06
vn 0.847727 -0.529905 -0.023636999999999967
vn 0.853441 -0.52113 -0.007879999999999969
vn 0.857546 -0.514407 3.149834430044962E-17
vn 0.856753 -0.515727 3.1579170989193354E-17
vn 0.850297 -0.526303 3.222676421658247E-17
vn 0.842791 -0.538242 -9.999999999670421E-07
vn 0.844936 -0.534868 -1.9999999999672485E-06
vn 0.854094 -0.520119 3.184810342628611E-17
vn 0.854094 -0.520119 3.184810342628611E-17
vn 0.856753 -0.515728 3.1579232221533305E-17
vn 0.856753 -0.515727 3.1579170989193354E-17
vn 0.857942 -0.513747 3.145793095607776E-17
vn 0.857942 -0.513747 3.145793095607776E-17
vn 0.843073 -0.5378 -9.999999999670692E-07
vn 0.849901 -0.526943 -9.99999999967734E-07
vn 0.84899 -0.528408 3.235565829219273E-17
vn 0.856753 -0.515727 3.1579170989193354E-17
vn 0.857467 -0.514539 3.1506426969323996E-17
vn 0.857064 -0.51521 3.154751386943539E-17
vn 0.999952 -0.0052450000000000005 -0.008284
vn 0.999989 0.004007 -0.0023940000000000003
vn 0.999999 -0.001697 0.0003370000000000001
vn 0.999998 -0.001852 0.0003060000000000001
vn 0.999591 -0.026645 -0.010434999999999998
vn 0.999599 -0.025202 -0.012881999999999998
vn 0.999996 -0.00027600000000000015 -0.002686
vn 0.999992 0.002651 -0.003142
vn 0.998662 0.032675 0.040077
vn 0.998662 -0.030319999999999996 0.041893
vn 1 0 0
vn 1 0 0
vn 0.999997 -0.0008390000000000001 -0.002411
vn 0.999995 0.0017549999999999998 -0.002697
vn 0.998862 0.022738000000000005 0.041929
vn 0.998765 -0.015409999999999997 0.047232
vn 0.842574 0.53858 -3.297851365423907E-17
vn 0.84103 0.540988 -3.312596112885642E-17
vn 0.855512 0.517783 -1.000000000031705E-06
vn 0.848801 0.528712 -1.0000000000323742E-06
vn 0.849712 0.527247 -3.2284567545502225E-17
vn 0.841779 0.539822 -3.3054564220466124E-17
vn 0.999546 -0.007658000000000002 -0.029144
vn 0.857064 -0.51521 3.154751386943539E-17
vn 0.857467 -0.514539 3.1506426969323996E-17
vn 0.843073 -0.5378 -9.999999999670692E-07
vn 0.849901 -0.526943 -9.99999999967734E-07
vn 0.84899 -0.528408 3.235565829219273E-17
vn 0.856753 -0.515727 3.1579170989193354E-17
vn 0.999999 -0.001647 -0.0004549999999999999
vn 0.999999 -0.001697 0.0003370000000000001
vn 0.841779 0.539822 -3.3054564220466124E-17
vn 0.841779 0.539822 -3.3054564220466124E-17
vn 0.856753 -0.515727 3.1579170989193354E-17
vn 0.856753 -0.515727 3.1579170989193354E-17
g Cloth
f 117/117/117 118/118/118 81/81/81
f 81/81/81 80/80/80 117/117/117
f 115/115/115 116/116/116 79/79/79
f 79/79/79 78/78/78 115/115/115
f 83/83/83 82/82/82 114/114/114
f 114/114/114 113/113/113 83/83/83
f 110/110/110 111/111/111 59/59/59
f 59/59/59 58/58/58 110/110/110
f 108/108/108 109/109/109 57/57/57
f 57/57/57 56/56/56 108/108/108
f 61/61/61 60/60/60 107/107/107
f 107/107/107 106/106/106 61/61/61
f 104/104/104 105/105/105 42/42/42
f 42/42/42 41/41/41 104/104/104
f 102/102/102 103/103/103 40/40/40
f 40/40/40 39/39/39 102/102/102
f 98/98/98 99/99/99 28/28/28
f 28/28/28 27/27/27 98/98/98
f 96/96/96 97/97/97 26/26/26
f 26/26/26 25/25/25 96/96/96
f 92/92/92 93/93/93 10/10/10
f 10/10/10 9/9/9 92/92/92
f 90/90/90 91/91/91 8/8/8
f 8/8/8 7/7/7 90/90/90
g Line
f 89/89/89 88/88/88 73/73/73
f 73/73/73 72/72/72 89/89/89
f 112/112/112 89/89/89 72/72/72
f 72/72/72 71/71/71 112/112/112
f 75/75/75 124/124/124 123/123/123
f 123/123/123 86/86/86 75/75/75
f 76/76/76 75/75/75 86/86/86
f 86/86/86 85/85/85 76/76/76
f 77/77/77 76/76/76 85/85/85
f 85/85/85 84/84/84 77/77/77
f 69/69/69 77/77/77 84/84/84
f 84/84/84 70/70/70 69/69/69
f 74/74/74 73/73/73 88/88/88
f 88/88/88 87/87/87 74/74/74
f 67/67/67 66/66/66 51/51/51
f 51/51/51 50/50/50 67/67/67
f 68/68/68 67/67/67 50/50/50
f 50/50/50 49/49/49 68/68/68
f 53/53/53 122/122/122 121/121/121
f 121/121/121 64/64/64 53/53/53
f 54/54/54 53/53/53 64/64/64
f 64/64/64 63/63/63 54/54/54
f 55/55/55 54/54/54 63/63/63
f 63/63/63 62/62/62 55/55/55
f 47/47/47 55/55/55 62/62/62
f 62/62/62 48/48/48 47/47/47
f 52/52/52 51/51/51 66/66/66
f 66/66/66 65/65/65 52/52/52
f 36/36/36 35/35/35 46/46/46
f 46/46/46 45/45/45 36/36/36
f 37/37/37 36/36/36 45/45/45
f 45/45/45 44/44/44 37/37/37
f 38/38/38 37/37/37 44/44/44
f 44/44/44 43/43/43 38/38/38
f 33/33/33 38/38/38 43/43/43
f 43/43/43 34/34/34 33/33/33
f 35/35/35 101/101/101 100/100/100
f 100/100/100 46/46/46 35/35/35
f 22/22/22 21/21/21 32/32/32
f 32/32/32 31/31/31 22/22/22
f 23/23/23 22/22/22 31/31/31
f 31/31/31 30/30/30 23/23/23
f 24/24/24 23/23/23 30/30/30
f 30/30/30 29/29/29 24/24/24
f 18/18/18 24/24/24 29/29/29
f 29/29/29 19/19/19 18/18/18
f 21/21/21 95/95/95 94/94/94
f 94/94/94 32/32/32 21/21/21
f 16/16/16 17/17/17 14/14/14
f 14/14/14 3/3/3 16/16/16
f 119/119/119 3/3/3 14/14/14
f 14/14/14 120/120/120 119/119/119
f 5/5/5 4/4/4 13/13/13
f 13/13/13 12/12/12 5/5/5
f 6/6/6 5/5/5 12/12/12
f 12/12/12 11/11/11 6/6/6
f 20/20/20 6/6/6 11/11/11
f 11/11/11 1/1/1 20/20/20
f 2/2/2 15/15/15 17/17/17
f 17/17/17 16/16/16 2/2/2
