v -0.627787 -0.687968 0.548003
v -1.064231 -0.406671 0.07625900000000002
v -1.048915 -0.811297 0.07681300000000006
v -0.706693 -0.911459 0.5297730000000002
v -1.146852 -1.086368 0.07419600000000007
v -0.952193 -1.200822 0.08799600000000007
v -0.634809 -1.027978 0.5258340000000001
v -0.799712 -1.366291 0.058680000000000086
v -0.565517 -1.35852 0.09405900000000009
v -0.352753 -1.01965 0.5473670000000002
v -0.32105 -1.430679 0.12752700000000008
v 0.04102 -1.27181 0.06065700000000008
v 0.316858 -0.808756 0.565304
v 0.456817 -1.359121 0.11012700000000009
v 0.659964 -1.119123 0.07764600000000008
v 0.632274 -0.65792 0.560265
v 0.952677 -1.014912 0.07881600000000005
v 1.025442 -0.772735 0.10506900000000004
v 0.717552 -0.44715299999999997 0.624568
v 1.156669 -0.610137 0.10209800000000004
v 1.014807 -0.296012 0.04926900000000002
v 0.677106 -0.24772599999999997 0.564419
v 1.011595 0.03743200000000001 0.10162
v 0.833523 0.202718 0.07679399999999999
v 0.578625 -0.15351199999999998 0.643082
v 0.692807 0.449711 0.028651999999999973
v 0.498905 0.462099 0.12087499999999997
v 0.46449 -0.12860499999999997 0.606076
v 0.315336 0.522638 0.08100099999999998
vt 0.347846 0.588917
vt 0.208363 0.485868
vt 0.169493 0.604400
vt 0.311078 0.634290
vt 0.111107 0.674349
vt 0.156111 0.726004
vt 0.317981 0.666503
vt 0.183937 0.791016
vt 0.253352 0.809859
vt 0.383639 0.685583
vt 0.317266 0.852973
vt 0.442456 0.847566
vt 0.556015 0.689291
vt 0.555089 0.900069
vt 0.645315 0.882272
vt 0.674242 0.696449
vt 0.737146 0.873314
vt 0.804752 0.805432
vt 0.731615 0.638088
vt 0.885382 0.763550
vt 0.879267 0.659464
vt 0.742649 0.589708
vt 0.895803 0.548566
vt 0.849357 0.480073
vt 0.681994 0.551558
vt 0.819456 0.414077
vt 0.762615 0.387855
vt 0.646717 0.544722
vt 0.715562 0.354606
vn -0.754506 0.09583500000000005 0.649259
vn -0.741787 -0.02716099999999996 0.670085
vn -0.752763 0.15095300000000003 0.64075
vn -0.704287 -0.15858899999999995 0.691975
vn -0.660675 -0.21259999999999996 0.719937
vn -0.534927 -0.553871 0.638029
vn -0.331052 -0.687036 0.646828
vn -0.303549 -0.717593 0.626832
vn -0.127825 -0.769142 0.626164
vn 0.081518 -0.754904 0.65075
vn 0.057031 -0.711246 0.700626
vn 0.142993 -0.718145 0.681044
vn 0.248746 -0.666789 0.702509
vn 0.2095 -0.59099 0.779
vn 0.399539 -0.60563 0.688173
vn 0.487367 -0.540925 0.685473
vn 0.490958 -0.51096 0.705606
vn 0.638175 -0.40111699999999995 0.657144
vn 0.770767 -0.04417499999999996 0.635584
vn 0.762317 -0.019871999999999963 0.646899
vn 0.816982 0.22644900000000004 0.530341
vn 0.744878 0.2994280000000001 0.596238
vn 0.694183 0.26917100000000005 0.667575
vn 0.627995 0.47276000000000007 0.618158
vn 0.45194 0.55728 0.696555
vn 0.513202 0.562841 0.647946
vn 0.10268 0.645601 0.756741
vn -0.034552 0.635546 0.771289
vn 0.04072 0.63278 0.77326
g 01
f 1/1/1 2/2/2 3/3/3
f 4/4/4 1/1/1 3/3/3
f 3/3/3 5/5/5 4/4/4
f 4/4/4 5/5/5 6/6/6
f 7/7/7 4/4/4 6/6/6
f 6/6/6 8/8/8 7/7/7
f 8/8/8 9/9/9 7/7/7
f 10/10/10 7/7/7 9/9/9
f 9/9/9 11/11/11 10/10/10
f 10/10/10 11/11/11 12/12/12
f 13/13/13 10/10/10 12/12/12
f 12/12/12 14/14/14 13/13/13
f 13/13/13 14/14/14 15/15/15
f 16/16/16 13/13/13 15/15/15
f 15/15/15 17/17/17 16/16/16
f 16/16/16 17/17/17 18/18/18
f 19/19/19 16/16/16 18/18/18
f 19/19/19 18/18/18 20/20/20
f 19/19/19 20/20/20 21/21/21
f 22/22/22 19/19/19 21/21/21
f 22/22/22 21/21/21 23/23/23
f 22/22/22 23/23/23 24/24/24
f 25/25/25 22/22/22 24/24/24
f 24/24/24 26/26/26 25/25/25
f 25/25/25 26/26/26 27/27/27
f 28/28/28 25/25/25 27/27/27
f 27/27/27 29/29/29 28/28/28
