v -0.0359022 0.1819548 0.2568828
v -0.1036386 0.15527939999999998 0.2564994
v -0.0359022 0.1295286 0.2568828
v -0.024064799999999997 0.15527939999999998 0.188043
v -0.1036386 0.15527939999999998 0.2564994
v -0.0359022 0.1819548 0.2568828
v -0.0359022 0.1295286 0.2568828
v -0.1036386 0.15527939999999998 0.2564994
v -0.024064799999999997 0.15527939999999998 0.188043
v 0.1278048 0.21093359999999997 0.1555608
v -0.0509562 0.211413 0.1555608
v -0.024064799999999997 0.15527939999999998 0.188043
v -0.024064799999999997 0.15527939999999998 0.188043
v 0.0922362 0.1876602 0.19079819999999997
v 0.1278048 0.21093359999999997 0.1555608
v -0.0509562 0.211413 0.1555608
v 0.1278048 0.21093359999999997 0.1555608
v 0.12769499999999998 0.211413 -0.0009018000000000128
v 0.12769499999999998 0.211413 -0.0009018000000000128
v -0.0509562 0.211413 -0.0009018000000000128
v -0.0509562 0.211413 0.1555608
v 0.128214 0.10000260000000002 0.1555608
v 0.12769499999999998 0.0991452 -0.0009018000000000061
v 0.12769499999999998 0.211413 -0.0009018000000000128
v 0.12769499999999998 0.211413 -0.0009018000000000128
v 0.1278048 0.21093359999999997 0.1555608
v 0.128214 0.10000260000000002 0.1555608
v -0.0509562 0.0991452 -0.0009018000000000061
v 0.12769499999999998 0.0991452 -0.0009018000000000061
v 0.128214 0.10000260000000002 0.1555608
v 0.128214 0.10000260000000002 0.1555608
v -0.0509562 0.09914520000000002 0.1555608
v -0.0509562 0.0991452 -0.0009018000000000061
v -0.024064799999999997 0.15527939999999998 0.188043
v -0.0509562 0.211413 0.1555608
v -0.0509562 0.09914520000000002 0.1555608
v 0.084021 0.12289860000000002 0.19079819999999997
v 0.128214 0.10000260000000002 0.1555608
v 0.1278048 0.21093359999999997 0.1555608
v 0.1278048 0.21093359999999997 0.1555608
v 0.0922362 0.1876602 0.19079819999999997
v 0.084021 0.12289860000000002 0.19079819999999997
v 0.128214 0.10000260000000002 0.1555608
v 0.084021 0.12289860000000002 0.19079819999999997
v -0.024064799999999997 0.15527939999999998 0.188043
v -0.024064799999999997 0.15527939999999998 0.188043
v -0.0509562 0.09914520000000002 0.1555608
v 0.128214 0.10000260000000002 0.1555608
v 0.1804416 0.1502298 0.2592228
v 0.084021 0.12289860000000002 0.19079819999999997
v 0.0922362 0.1876602 0.19079819999999997
v 0.1804416 0.1502298 0.2592228
v 0.0922362 0.1876602 0.19079819999999997
v 0.1065966 0.1882818 0.25728
v 0.1804416 0.1502298 0.2592228
v 0.1065966 0.1882818 0.25728
v 0.1065966 0.12227640000000001 0.25728
v 0.1804416 0.1502298 0.2592228
v 0.1065966 0.12227640000000001 0.25728
v 0.084021 0.12289860000000002 0.19079819999999997
v -0.0509562 0.211413 0.1555608
v -0.0509562 0.211413 -0.0009018000000000128
v -0.0509562 0.0991452 -0.0009018000000000061
v -0.0509562 0.09914520000000002 0.1555608
v 0.1065966 0.12227640000000001 0.25728
v 0.1065966 0.1882818 0.25728
v -0.0359022 0.1819548 0.2568828
v -0.0359022 0.1295286 0.2568828
v -0.0509562 0.211413 -0.0009018000000000128
v 0.12769499999999998 0.211413 -0.0009018000000000128
v 0.12769499999999998 0.0991452 -0.0009018000000000061
v -0.0509562 0.0991452 -0.0009018000000000061
v 0.1065966 0.1882818 0.25728
v 0.0922362 0.1876602 0.19079819999999997
v -0.024064799999999997 0.15527939999999998 0.188043
v -0.0359022 0.1819548 0.2568828
v -0.024064799999999997 0.15527939999999998 0.188043
v 0.084021 0.12289860000000002 0.19079819999999997
v 0.1065966 0.12227640000000001 0.25728
v -0.0359022 0.1295286 0.2568828
vt 0.279720 0.522318
vt 0.168310 0.479067
vt 0.242584 0.450234
vt 0.305548 0.324190
vt 0.169602 0.435875
vt 0.284384 0.421765
vt 0.284384 0.421765
vt 0.169602 0.435875
vt 0.305548 0.324190
vt 0.035519 0.755986
vt 0.033086 0.313630
vt 0.147825 0.418613
vt 0.147825 0.418613
vt 0.124482 0.713168
vt 0.035519 0.755986
vt 0.175869 0.573388
vt 0.457992 0.562873
vt 0.544382 0.984508
vt 0.544382 0.984508
vt 0.175768 0.977139
vt 0.175869 0.573388
vt 0.742777 0.585502
vt 0.726527 0.990206
vt 0.544382 0.984508
vt 0.544382 0.984508
vt 0.457992 0.562873
vt 0.742777 0.585502
vt 0.544382 0.984508
vt 0.175768 0.977139
vt 0.264739 0.571659
vt 0.264739 0.571659
vt 0.562373 0.555816
vt 0.544382 0.984508
vt 0.147825 0.418613
vt 0.033086 0.313630
vt 0.162453 0.275086
vt 0.122442 0.540603
vt 0.029499 0.454579
vt 0.170471 0.281613
vt 0.170471 0.281613
vt 0.175338 0.380108
vt 0.122442 0.540603
vt 0.029499 0.454579
vt 0.122442 0.540603
vt 0.138921 0.804380
vt 0.138921 0.804380
vt 0.058840 0.921628
vt 0.029499 0.454579
vt 0.711704 0.151575
vt 0.673234 0.352404
vt 0.747947 0.349065
vt 0.741185 0.405496
vt 0.504605 0.291102
vt 0.591347 0.421404
vt 0.739893 0.479072
vt 0.590441 0.536737
vt 0.591347 0.421404
vt 0.741185 0.405496
vt 0.591347 0.421404
vt 0.513009 0.290987
vt 0.742777 0.585502
vt 0.726527 0.990206
vt 0.544382 0.984508
vt 0.562373 0.555816
vt 0.591347 0.421404
vt 0.590441 0.536737
vt 0.279720 0.522318
vt 0.284384 0.421765
vt 0.178879 0.733127
vt 0.544908 0.733127
vt 0.544908 0.972172
vt 0.178879 0.972172
vt 0.591347 0.421404
vt 0.504605 0.291102
vt 0.305548 0.324190
vt 0.284384 0.421765
vt 0.305548 0.324190
vt 0.513009 0.290987
vt 0.591347 0.421404
vt 0.284384 0.421765
vn -0.005658 6.123136023992835E-17 0.999984
vn -0.005658 6.123136023992835E-17 0.999984
vn -0.005658 6.123136023992835E-17 0.999984
vn -0.335502 0.857525 -0.38998700000000003
vn -0.335502 0.857525 -0.38998700000000003
vn -0.335502 0.857525 -0.38998700000000003
vn -0.326825 -0.865367 -0.37990199999999996
vn -0.326825 -0.865367 -0.37990199999999996
vn -0.326825 -0.865367 -0.37990199999999996
vn 0.001346 0.501328 0.865257
vn 0.001346 0.501328 0.865257
vn 0.001346 0.501328 0.865257
vn -0.260039 0.905427 0.33553199999999994
vn -0.260039 0.905427 0.33553199999999994
vn -0.260039 0.905427 0.33553199999999994
vn 0.002685 0.999992 0.003064999999999939
vn 0.002685 0.999992 0.003064999999999939
vn 0.002685 0.999992 0.003064999999999939
vn -0 1 -6.123233995736766E-17
vn -0 1 -6.123233995736766E-17
vn -0 1 -6.123233995736766E-17
vn 0.999995 -2.0304643929863116E-19 -0.003316
vn 0.999995 -2.0304643929863116E-19 -0.003316
vn 0.999995 -2.0304643929863116E-19 -0.003316
vn 0.999993 0.00369 -0.0006890000000000003
vn 0.999993 0.00369 -0.0006890000000000003
vn 0.999993 0.00369 -0.0006890000000000003
vn 0 -0.999985 0.0054820000000000615
vn 0 -0.999985 0.0054820000000000615
vn 0 -0.999985 0.0054820000000000615
vn 0.004787 -0.999989 6.123166640162813E-17
vn 0.004787 -0.999989 6.123166640162813E-17
vn 0.004787 -0.999989 6.123166640162813E-17
vn -0.770284 3.9047924423153313E-17 0.637701
vn -0.770284 3.9047924423153313E-17 0.637701
vn -0.770284 3.9047924423153313E-17 0.637701
vn 0.624155 0.0023030000000000476 0.781297
vn 0.624155 0.0023030000000000476 0.781297
vn 0.624155 0.0023030000000000476 0.781297
vn 0.730714 -0.09269499999999996 0.676361
vn 0.730714 -0.09269499999999996 0.676361
vn 0.730714 -0.09269499999999996 0.676361
vn -0.283908 -0.926735 0.24608700000000006
vn -0.283908 -0.926735 0.24608700000000006
vn -0.283908 -0.926735 0.24608700000000006
vn 0.002402 -0.501706 0.865035
vn 0.002402 -0.501706 0.865035
vn 0.002402 -0.501706 0.865035
vn 0.591152 -0.07499100000000006 -0.803066
vn 0.591152 -0.07499100000000006 -0.803066
vn 0.591152 -0.07499100000000006 -0.803066
vn 0.457652 0.882656 -0.10711400000000006
vn 0.457652 0.882656 -0.10711400000000006
vn 0.457652 0.882656 -0.10711400000000006
vn -0.026306 6.121115356774242E-17 0.999654
vn -0.026306 6.121115356774242E-17 0.999654
vn -0.026306 6.121115356774242E-17 0.999654
vn 0.354036 -0.926308 -0.12888999999999995
vn 0.354036 -0.926308 -0.12888999999999995
vn 0.354036 -0.926308 -0.12888999999999995
vn -1 0 0
vn -1 0 0
vn -1 0 0
vn -1 0 0
vn -0.002785 6.123209502800783E-17 0.999996
vn -0.002785 6.123209502800783E-17 0.999996
vn -0.002785 6.123209502800783E-17 0.999996
vn -0.002785 6.123209502800783E-17 0.999996
vn -0 -6.123233995736766E-17 -1
vn -0 -6.123233995736766E-17 -1
vn -0 -6.123233995736766E-17 -1
vn -0 -6.123233995736766E-17 -1
vn -0.158821 0.973536 -0.16433100000000006
vn -0.268976 0.961895 0.04909899999999994
vn -0.158821 0.973536 -0.16433100000000006
vn -0.040241 0.929334 -0.36704100000000006
vn -0.17274 -0.975135 -0.13882499999999995
vn -0.287925 -0.953522 0.08885100000000005
vn -0.17274 -0.975135 -0.13882499999999995
vn -0.046488 -0.932955 -0.35697799999999996
g or_smith_equipment
f 1/1/1 2/2/2 3/3/3
f 4/4/4 5/5/5 6/6/6
f 7/7/7 8/8/8 9/9/9
f 10/10/10 11/11/11 12/12/12
f 13/13/13 14/14/14 15/15/15
f 16/16/16 17/17/17 18/18/18
f 19/19/19 20/20/20 21/21/21
f 22/22/22 23/23/23 24/24/24
f 25/25/25 26/26/26 27/27/27
f 28/28/28 29/29/29 30/30/30
f 31/31/31 32/32/32 33/33/33
f 34/34/34 35/35/35 36/36/36
f 37/37/37 38/38/38 39/39/39
f 40/40/40 41/41/41 42/42/42
f 43/43/43 44/44/44 45/45/45
f 46/46/46 47/47/47 48/48/48
f 49/49/49 50/50/50 51/51/51
f 52/52/52 53/53/53 54/54/54
f 55/55/55 56/56/56 57/57/57
f 58/58/58 59/59/59 60/60/60
f 61/61/61 62/62/62 63/63/63
f 63/63/63 64/64/64 61/61/61
f 65/65/65 66/66/66 67/67/67
f 67/67/67 68/68/68 65/65/65
f 69/69/69 70/70/70 71/71/71
f 71/71/71 72/72/72 69/69/69
f 73/73/73 74/74/74 75/75/75
f 75/75/75 76/76/76 73/73/73
f 77/77/77 78/78/78 79/79/79
f 79/79/79 80/80/80 77/77/77
