v -0.1669861935 0.14900665500000002 0.2853262755
v 0.16088817149999998 0.1553782545 0.28389340350000003
v -0.160889274 -0.15546519449999996 0.3265356465
v 0.166985091 -0.14909359499999997 0.325102806
v -0.166495266 0.18721958850000003 0.567586404
v 0.161379099 0.19359118800000003 0.5661535635
v -0.1603983465 -0.11725226099999997 0.6087958065000001
v 0.1674760185 -0.11088066149999995 0.607362966
v 0.10763676 0.50121099 0.19953769499999996
v 0.2472943095 0.6758912475000001 0.0005631884999999586
v 0.673717023 0.286530363 -0.007798140000000018
v -0.0617916285 0.47225077200000004 0.41148264149999997
v 0.414922725 0.12082773150000004 0.41148260999999997
v -0.2390596425 0.38531877300000006 0.808024266
v 0.0560236635 0.20855781450000002 0.6605666235000001
v 0.325310769 -0.038914438499999954 0.7434244125
v 0.4489185015 0.451907064 0.10112854499999997
v 0.1977219405 0.3079865565 0.3470923575
v -0.2797733925 0.32763269700000003 0.5255509140000001
v -0.003988089 0.07722095850000003 0.589975029
v 0.2610640935 -0.13018231799999996 0.5656391055000001
v -0.1483674255 0.14520832200000003 0.586091205
v 0.141512427 -0.11863025999999996 0.6107674860000001
v -0.14958641250000002 0.1972757745 0.0030966704999999877
v -0.251762616 0.056642292 0.003096670499999997
v -0.4170871845 0.1103595255 0.0030967019999999937
v -0.417087153 0.2841920865 0.003096701999999983
v -0.2517625845 0.337909257 0.0030966704999999795
v -0.1129153095 0.1972757745 0.21135391199999998
v -0.24043061699999999 0.021766027500000014 0.21135391199999998
v -0.44675473499999996 0.08880480000000002 0.21135391199999998
v -0.4467547035 0.3057467805 0.21135391199999995
v -0.24043058550000002 0.3727855215 0.21135391199999995
v -0.14958641250000002 0.19727577450000003 0.419611122
v -0.251762616 0.056642292000000025 0.419611122
v -0.4170871845 0.11035952550000003 0.419611122
v -0.4170871845 0.2841920865 0.419611122
v -0.2517625845 0.33790928849999996 0.419611122
v -0.194671827 -0.07500849300000001 -0.003700903499999995
v -0.2732734305 -0.18319432949999997 -0.0037009034999999886
v -0.4004534835 -0.14187102299999999 -0.0037009034999999912
v -0.400453515 -0.008145963 -0.0037009349999999994
v -0.273273399 0.033177343500000005 -0.003700903500000002
v -0.1664616555 -0.075008493 0.1565062065
v -0.2645559945 -0.21002379300000001 0.1565062065
v -0.423275958 -0.15845256 0.1565062065
v -0.423275958 0.00843554250000001 0.1565062065
v -0.264555963 0.060006775500000005 0.1565062065
v -0.1946717955 -0.075008493 0.316713285
v -0.273273399 -0.18319436099999997 0.316713285
v -0.400453515 -0.14187102299999996 0.316713285
v -0.4004534835 -0.00814596299999998 0.316713285
v -0.27327336750000003 0.033177343500000026 0.316713285
v 0.1431138555 -0.0085897665 0.004024944000000001
v -0.135598617 -0.4015123875 0.004024975500000025
v 0.20884717349999998 -0.3313661085 0.00402494400000002
v -0.20133193500000002 -0.07873604549999998 0.316663263
v 0.1431138555 -0.008589766499999981 0.316663263
v -0.1355985855 -0.401512419 0.316663263
v 0.20884717349999998 -0.3313661085 0.3166632945
v -0.20133193500000002 -0.078736077 0.004024975500000005
v 0.33694009649999995 -0.0081400725 4.984356865976197e-19
v 0.3998762775 -0.055690676999999966 0.5762592045
v 0.3998762775 -0.055690676999999966 0.5762592045
v 0.27569653650000003 -0.0404580645 3.150000000247734e-8
v 0.35602670249999996 -0.07882994699999996 0.5762591415
v 0.357050421 -0.05429677049999995 0.8159576669999999
v 0.322338303 -0.07261427249999995 0.8159576669999999
v -0.16514690850000002 0.3913388325 -3.150000002396259e-8
v -0.1755533745 0.3867957450000001 0.5762591415
v -0.2049860295 0.34689683700000007 0.5762592045
v -0.2062547865 0.3356130645 -3.1500000020550373e-8
v -0.2049860295 0.34689683700000007 0.5762592045
v -0.25202683800000003 0.4153565745000001 0.8634944115000001
v -0.275326317 0.38377177650000005 0.8634944115000001
v 0.0136839465 0.422393832 -0.00032224500000002583
v 0.31552573500000003 0.294191667 -0.000322245000000018
v -0.1064528955 0.13954115700000003 -0.0003222450000000085
v 0.195388893 0.0113390235 -0.0003222450000000007
v 0.0136839465 0.422393832 0.2845132605
v 0.31552573500000003 0.2941916985 0.2845132605
v -0.1064528955 0.13954115700000005 0.2845132605
v 0.195388893 0.011339023500000017 0.2845132605
v 0.161379099 0.19359118800000003 0.5661535635
v -0.166495266 0.18721958850000003 0.567586404
v 0.16088817149999998 0.1553782545 0.28389340350000003
v 0.1674760185 -0.11088066149999995 0.607362966
v 0.161379099 0.19359118800000003 0.5661535635
v 0.166985091 -0.14909359499999997 0.325102806
v -0.1603983465 -0.11725226099999997 0.6087958065000001
v 0.1674760185 -0.11088066149999995 0.607362966
v -0.160889274 -0.15546519449999996 0.3265356465
v -0.1669861935 0.14900665500000002 0.2853262755
v -0.166495266 0.18721958850000003 0.567586404
v -0.1603983465 -0.11725226099999997 0.6087958065000001
v -0.24043061699999999 0.021766027500000014 0.21135391199999998
v -0.251762616 0.056642292 0.003096670499999997
v -0.4467547035 0.3057467805 0.21135391199999995
v -0.417087153 0.2841920865 0.003096701999999983
v -0.251762616 0.056642292000000025 0.419611122
v -0.4170871845 0.2841920865 0.419611122
v -0.4170871845 0.11035952550000003 0.419611122
v -0.4170871845 0.2841920865 0.419611122
v -0.2517625845 0.33790928849999996 0.419611122
v -0.14958641250000002 0.19727577450000003 0.419611122
v -0.251762616 0.056642292000000025 0.419611122
v -0.2645559945 -0.21002379300000001 0.1565062065
v -0.2732734305 -0.18319432949999997 -0.0037009034999999886
v -0.423275958 0.00843554250000001 0.1565062065
v -0.400453515 -0.008145963 -0.0037009349999999994
v -0.273273399 -0.18319436099999997 0.316713285
v -0.4004534835 -0.00814596299999998 0.316713285
v -0.400453515 -0.14187102299999996 0.316713285
v -0.4004534835 -0.00814596299999998 0.316713285
v -0.27327336750000003 0.033177343500000026 0.316713285
v -0.1946717955 -0.075008493 0.316713285
v -0.273273399 -0.18319436099999997 0.316713285
v 0.1431138555 -0.008589766499999981 0.316663263
v -0.20133193500000002 -0.07873604549999998 0.316663263
v 0.20884717349999998 -0.3313661085 0.3166632945
v 0.1431138555 -0.008589766499999981 0.316663263
v 0.1431138555 -0.0085897665 0.004024944000000001
v -0.1355985855 -0.401512419 0.316663263
v 0.20884717349999998 -0.3313661085 0.3166632945
v 0.20884717349999998 -0.3313661085 0.00402494400000002
v -0.20133193500000002 -0.07873604549999998 0.316663263
v -0.1355985855 -0.401512419 0.316663263
v -0.135598617 -0.4015123875 0.004024975500000025
v -0.20133193500000002 -0.078736077 0.004024975500000005
v 0.27569653650000003 -0.0404580645 3.150000000247734e-8
v 0.33694009649999995 -0.0081400725 4.984356865976197e-19
v 0.3998762775 -0.055690676999999966 0.5762592045
v 0.35602670249999996 -0.07882994699999996 0.5762591415
v 0.357050421 -0.05429677049999995 0.8159576669999999
v 0.322338303 -0.07261427249999995 0.8159576669999999
v -0.2062547865 0.3356130645 -3.1500000020550373e-8
v -0.2062547865 0.3356130645 -3.1500000020550373e-8
v -0.2049860295 0.34689683700000007 0.5762592045
v -0.2049860295 0.34689683700000007 0.5762592045
v -0.275326317 0.38377177650000005 0.8634944115000001
v -0.275326317 0.38377177650000005 0.8634944115000001
v 0.31552573500000003 0.2941916985 0.2845132605
v 0.0136839465 0.422393832 0.2845132605
v 0.31552573500000003 0.294191667 -0.000322245000000018
v 0.195388893 0.011339023500000017 0.2845132605
v 0.31552573500000003 0.2941916985 0.2845132605
v 0.195388893 0.0113390235 -0.0003222450000000007
v -0.1064528955 0.13954115700000005 0.2845132605
v 0.195388893 0.011339023500000017 0.2845132605
v -0.1064528955 0.13954115700000003 -0.0003222450000000085
v 0.0136839465 0.422393832 -0.00032224500000002583
v 0.0136839465 0.422393832 0.2845132605
v -0.1064528955 0.13954115700000005 0.2845132605
vt 0.251084 0.434632
vt 0.311453 0.434632
vt 0.251084 0.434632
vt 0.311437 0.434599
vt 0.312188 0.434133
vt 0.373432 0.434133
vt 0.312188 0.375252
vt 0.373432 0.375252
vt 0.186702 0.868194
vt 0.265338 0.997069
vt 0.467448 0.943380
vt 0.106334 0.781183
vt 0.407305 0.766967
vt 0.007795 0.605720
vt 0.243957 0.656982
vt 0.486407 0.610039
vt 0.349516 0.919959
vt 0.262997 0.800124
vt 0.099340 0.510800
vt 0.258711 0.550340
vt 0.375260 0.532006
vt 0.165102 0.553020
vt 0.345066 0.568317
vt 0.178101 0.485571
vt 0.229928 0.485463
vt 0.117444 0.486501
vt 0.229475 0.485049
vt 0.058697 0.485573
vt 0.178693 0.364116
vt 0.230771 0.363711
vt 0.117405 0.362852
vt 0.229240 0.363466
vt 0.058412 0.364126
vt 0.178101 0.244603
vt 0.229928 0.244342
vt 0.117444 0.245376
vt 0.229475 0.243924
vt 0.058697 0.244610
vt 0.177740 0.485571
vt 0.229928 0.485463
vt 0.123055 0.486501
vt 0.229475 0.485049
vt 0.065186 0.485573
vt 0.178332 0.364116
vt 0.230771 0.363711
vt 0.123017 0.362852
vt 0.229240 0.363466
vt 0.064901 0.364126
vt 0.177740 0.244603
vt 0.229928 0.244342
vt 0.123056 0.245376
vt 0.229475 0.243924
vt 0.065186 0.244610
vt 0.499474 0.499989
vt 0.435954 0.499970
vt 0.499512 0.499957
vt 0.435600 0.437852
vt 0.499743 0.437852
vt 0.435600 0.375487
vt 0.499743 0.375487
vt 0.435963 0.499982
vt 0.003918 0.311156
vt 0.078461 0.317554
vt 0.079594 0.311300
vt 0.003775 0.324547
vt 0.079492 0.324750
vt 0.117621 0.317718
vt 0.118914 0.324394
vt 0.002811 0.317303
vt 0.078461 0.317554
vt 0.079594 0.311300
vt 0.003918 0.311156
vt 0.079492 0.324750
vt 0.117621 0.317718
vt 0.118518 0.311349
vt 0.251084 0.434632
vt 0.311453 0.434632
vt 0.251084 0.434632
vt 0.311437 0.434599
vt 0.312188 0.434133
vt 0.373432 0.434133
vt 0.312188 0.375252
vt 0.373432 0.375252
vt 0.311453 0.374871
vt 0.251084 0.374871
vt 0.250655 0.434599
vt 0.311437 0.374407
vt 0.250655 0.374407
vt 0.311453 0.434632
vt 0.251084 0.374871
vt 0.311453 0.374871
vt 0.311437 0.434599
vt 0.250655 0.434599
vt 0.250655 0.374407
vt 0.311437 0.374407
vt 0.010270 0.363452
vt 0.010111 0.485037
vt 0.009068 0.363729
vt 0.009645 0.485468
vt 0.010111 0.243913
vt 0.009645 0.244353
vt 0.248185 0.040153
vt 0.246903 0.216811
vt 0.415139 0.255750
vt 0.490866 0.130974
vt 0.411293 0.006198
vt 0.010270 0.363452
vt 0.010111 0.485037
vt 0.009068 0.363729
vt 0.009645 0.485468
vt 0.010111 0.243913
vt 0.009645 0.244353
vt 0.253990 0.279327
vt 0.252708 0.454958
vt 0.420945 0.493670
vt 0.496672 0.369620
vt 0.417099 0.245569
vt 0.499474 0.437470
vt 0.435954 0.437470
vt 0.499512 0.437409
vt 0.435949 0.437409
vt 0.435949 0.499957
vt 0.435954 0.437470
vt 0.499474 0.437470
vt 0.499474 0.499978
vt 0.435949 0.437409
vt 0.499512 0.437409
vt 0.499512 0.499961
vt 0.435958 0.499961
vt 0.003138 0.312270
vt 0.003509 0.322902
vt 0.083734 0.322508
vt 0.083178 0.312528
vt 0.121106 0.322643
vt 0.121024 0.313062
vt 0.003775 0.324547
vt 0.003138 0.312270
vt 0.083734 0.322508
vt 0.083178 0.312528
vt 0.118914 0.324394
vt 0.121106 0.322643
vt 0.311453 0.374871
vt 0.251084 0.374871
vt 0.250655 0.434599
vt 0.311437 0.374407
vt 0.250655 0.374407
vt 0.311453 0.434632
vt 0.251084 0.374871
vt 0.311453 0.374871
vt 0.311437 0.434599
vt 0.250655 0.434599
vt 0.250655 0.374407
vt 0.311437 0.374407
vn -0.01984 0.990769 -0.13409800000000005
vn -0.01984 0.990769 -0.13409800000000005
vn 0.01984 -0.99077 0.13409800000000005
vn 0.999802 0.019429 -0.0043690000000000005
vn 0.001723 0.13415800000000005 0.990958
vn 0.001723 0.13415800000000005 0.990958
vn 0.001723 0.13415800000000005 0.990958
vn 0.001723 0.13415800000000005 0.990958
vn 0.387032 0.666785 0.636871
vn 0.276624 0.638875 0.717856
vn 0.644081 0.48691200000000007 0.58998
vn 0.552702 0.689975 0.46739099999999995
vn 0.495562 0.625274 0.602869
vn 0.159996 0.07677200000000006 0.984128
vn -0.017075 -0.05487399999999994 0.998347
vn 0.25577 0.12803700000000007 0.958221
vn 0.44382 0.586756 0.677305
vn 0.458362 0.680934 0.571168
vn -0.824489 -0.519275 0.22488100000000003
vn -0.335905 -0.32222399999999995 0.885065
vn 0.076772 -0.897997 0.4332520000000001
vn -0.405263 -0.597662 0.691781
vn -0.324415 -0.521951 0.788874
vn 0.957977 -0.232004 -0.16868599999999997
vn 0.075383 -0.982783 -0.16868599999999995
vn -0.911388 -0.37539 -0.16868599999999997
vn -0.638651 0.75078 -0.16868600000000006
vn 0.51668 0.839397 -0.16868600000000006
vn 1 0 0
vn 0.309017 -0.951057 5.823544554283421E-17
vn -0.809017 -0.587785 3.599145094184135E-17
vn -0.809017 0.587785 -3.599145094184135E-17
vn 0.309017 0.951056 -5.823538431049426E-17
vn 0.957977 0.232004 0.16868599999999997
vn 0.51668 -0.839397 0.16868600000000006
vn -0.638651 -0.750779 0.16868600000000006
vn -0.911388 0.37539 0.16868599999999997
vn 0.075383 0.982783 0.16868599999999995
vn 0.957977 -0.232004 -0.16868599999999997
vn 0.075382 -0.982783 -0.16868599999999995
vn -0.911388 -0.37539 -0.16868599999999997
vn -0.638651 0.75078 -0.16868600000000006
vn 0.51668 0.839397 -0.16868600000000006
vn 1 -0 0
vn 0.309017 -0.951057 5.823544554283421E-17
vn -0.809017 -0.587785 3.599145094184135E-17
vn -0.809017 0.587785 -3.599145094184135E-17
vn 0.309017 0.951056 -5.823538431049426E-17
vn 0.957977 0.232004 0.16868599999999997
vn 0.51668 -0.839397 0.16868600000000006
vn -0.638651 -0.750779 0.16868600000000006
vn -0.911388 0.37539 0.16868599999999997
vn 0.075383 0.982783 0.16868599999999995
vn -0.199554 0.979887 -6.000077390380512E-17
vn 0.199554 -0.979887 6.000077390380512E-17
vn 0.979887 0.199554 -1.2219158367852546E-17
vn -0 6.123233995736766E-17 1
vn -0 6.123233995736766E-17 1
vn -0 6.123233995736766E-17 1
vn -0 6.123233995736766E-17 1
vn -0.199554 0.979887 -6.000077390380512E-17
vn 0.463158 -0.877698 -0.12300799999999995
vn 0.466628 -0.884273 0.017874000000000057
vn -0.46605 0.883177 0.05287399999999994
vn -0.463158 0.877698 0.12300799999999995
vn -0.008176 0.015483999999999939 -0.999847
vn -0.464884 0.880969 -0.08818200000000005
vn 0.464884 -0.880969 0.08818200000000005
vn 0.804695 -0.593607 0.009852000000000036
vn -0.110946 0.08184500000000006 0.990451
vn -0.791539 0.583902 -0.18034600000000003
vn -0.804695 0.593607 -0.009852000000000036
vn 0.801084 -0.590944 0.09513500000000004
vn -0.776269 0.572638 -0.26361300000000004
vn 0.776269 -0.572638 0.26361300000000004
vn 0.390932 0.920419 -5.635940911122038E-17
vn 0.390932 0.920419 -5.635940911122038E-17
vn -0.390932 -0.920419 5.635940911122038E-17
vn 0.920419 -0.390932 2.3937681124213653E-17
vn -0 6.123233995736766E-17 1
vn -0 6.123233995736766E-17 1
vn -0 6.123233995736766E-17 1
vn -0 6.123233995736766E-17 1
vn -0.01984 0.990769 -0.13409800000000005
vn -0.01984 0.990769 -0.13409800000000005
vn 0.999802 0.019429 -0.0043690000000000005
vn 0.999802 0.019429 -0.0043690000000000005
vn 0.999802 0.019429 -0.0043690000000000005
vn 0.01984 -0.99077 0.13409800000000005
vn 0.01984 -0.99077 0.13409800000000005
vn 0.01984 -0.99077 0.13409800000000005
vn -0.999802 -0.019429 0.0043690000000000005
vn -0.999802 -0.019429 0.0043690000000000005
vn -0.999802 -0.019429 0.0043690000000000005
vn -0.999802 -0.019429 0.0043690000000000005
vn 0.309017 -0.951057 5.823544554283421E-17
vn 0.075383 -0.982783 -0.16868599999999995
vn -0.809017 0.587785 -3.599145094184135E-17
vn -0.638651 0.75078 -0.16868600000000006
vn 0.51668 -0.839397 0.16868600000000006
vn -0.911388 0.37539 0.16868599999999997
vn 0 6.123233995736766E-17 1
vn 0 6.123233995736766E-17 1
vn 0 6.123233995736766E-17 1
vn -0 6.123233995736766E-17 1
vn -0 6.123233995736766E-17 1
vn 0.309017 -0.951057 5.823544554283421E-17
vn 0.075382 -0.982783 -0.16868599999999995
vn -0.809017 0.587785 -3.599145094184135E-17
vn -0.638651 0.75078 -0.16868600000000006
vn 0.51668 -0.839397 0.16868600000000006
vn -0.911388 0.37539 0.16868599999999997
vn -0 6.123233995736766E-17 1
vn -0 6.123233995736766E-17 1
vn -0 6.123233995736766E-17 1
vn 0 6.123233995736766E-17 1
vn -0 6.123233995736766E-17 1
vn -0.199554 0.979887 -6.000077390380512E-17
vn -0.199554 0.979887 -6.000077390380512E-17
vn 0.979887 0.199554 -1.2219158367852546E-17
vn 0.979887 0.199554 -1.2219158367852546E-17
vn 0.979887 0.199554 -1.2219158367852546E-17
vn 0.199554 -0.979887 6.000077390380512E-17
vn 0.199554 -0.979887 6.000077390380512E-17
vn 0.199554 -0.979887 6.000077390380512E-17
vn -0.979887 -0.199554 1.2219158367852546E-17
vn -0.979887 -0.199554 1.2219158367852546E-17
vn -0.979887 -0.199554 1.2219158367852546E-17
vn -0.979887 -0.199554 1.2219158367852546E-17
vn -0.463158 0.877698 0.12300799999999995
vn 0.463158 -0.877698 -0.12300799999999995
vn -0.46605 0.883177 0.05287399999999994
vn -0.008176 0.015483999999999939 -0.999847
vn -0.464884 0.880969 -0.08818200000000005
vn 0.464884 -0.880969 0.08818200000000005
vn -0.804695 0.593607 -0.009852000000000036
vn -0.804695 0.593607 -0.009852000000000036
vn -0.791539 0.583902 -0.18034600000000003
vn 0.801084 -0.590944 0.09513500000000004
vn 0.776269 -0.572638 0.26361300000000004
vn 0.776269 -0.572638 0.26361300000000004
vn 0.390932 0.920419 -5.635940911122038E-17
vn 0.390932 0.920419 -5.635940911122038E-17
vn 0.920419 -0.390932 2.3937681124213653E-17
vn 0.920419 -0.390932 2.3937681124213653E-17
vn 0.920419 -0.390932 2.3937681124213653E-17
vn -0.390932 -0.920419 5.635940911122038E-17
vn -0.390932 -0.920419 5.635940911122038E-17
vn -0.390932 -0.920419 5.635940911122038E-17
vn -0.920419 0.390932 -2.3937681124213653E-17
vn -0.920419 0.390932 -2.3937681124213653E-17
vn -0.920419 0.390932 -2.3937681124213653E-17
vn -0.920419 0.390932 -2.3937681124213653E-17
g bobobj
f 150/150/150 153/153/153 152/152/152
f 152/152/152 151/151/151 150/150/150
f 147/147/147 149/149/149 148/148/148
f 148/148/148 78/78/78 147/147/147
f 144/144/144 146/146/146 145/145/145
f 145/145/145 79/79/79 144/144/144
f 76/76/76 143/143/143 142/142/142
f 142/142/142 77/77/77 76/76/76
f 80/80/80 82/82/82 83/83/83
f 83/83/83 81/81/81 80/80/80
f 141/141/141 138/138/138 139/139/139
f 70/70/70 74/74/74 140/140/140
f 140/140/140 73/73/73 70/70/70
f 71/71/71 75/75/75 74/74/74
f 74/74/74 70/70/70 71/71/71
f 139/139/139 138/138/138 137/137/137
f 69/69/69 70/70/70 73/73/73
f 73/73/73 136/136/136 69/69/69
f 72/72/72 71/71/71 70/70/70
f 70/70/70 69/69/69 72/72/72
f 133/133/133 135/135/135 134/134/134
f 134/134/134 132/132/132 133/133/133
f 63/63/63 67/67/67 68/68/68
f 68/68/68 66/66/66 63/63/63
f 67/67/67 63/63/63 64/64/64
f 130/130/130 133/133/133 132/132/132
f 132/132/132 131/131/131 130/130/130
f 62/62/62 63/63/63 66/66/66
f 66/66/66 65/65/65 62/62/62
f 64/64/64 63/63/63 62/62/62
f 126/126/126 129/129/129 128/128/128
f 128/128/128 127/127/127 126/126/126
f 123/123/123 55/55/55 125/125/125
f 125/125/125 124/124/124 123/123/123
f 120/120/120 56/56/56 122/122/122
f 122/122/122 121/121/121 120/120/120
f 118/118/118 54/54/54 61/61/61
f 61/61/61 119/119/119 118/118/118
f 57/57/57 59/59/59 60/60/60
f 60/60/60 58/58/58 57/57/57
f 92/92/92 95/95/95 94/94/94
f 94/94/94 93/93/93 92/92/92
f 89/89/89 91/91/91 90/90/90
f 90/90/90 3/3/3 89/89/89
f 86/86/86 88/88/88 87/87/87
f 87/87/87 4/4/4 86/86/86
f 1/1/1 85/85/85 84/84/84
f 84/84/84 2/2/2 1/1/1
f 5/5/5 7/7/7 8/8/8
f 8/8/8 6/6/6 5/5/5
g pirate
f 117/117/117 115/115/115 113/113/113
f 117/117/117 116/116/116 115/115/115
f 115/115/115 114/114/114 113/113/113
f 49/49/49 44/44/44 48/48/48
f 48/48/48 53/53/53 49/49/49
f 53/53/53 48/48/48 109/109/109
f 109/109/109 112/112/112 53/53/53
f 52/52/52 47/47/47 46/46/46
f 46/46/46 51/51/51 52/52/52
f 51/51/51 46/46/46 107/107/107
f 107/107/107 111/111/111 51/51/51
f 50/50/50 45/45/45 44/44/44
f 44/44/44 49/49/49 50/50/50
f 44/44/44 39/39/39 43/43/43
f 43/43/43 48/48/48 44/44/44
f 48/48/48 43/43/43 110/110/110
f 110/110/110 109/109/109 48/48/48
f 47/47/47 42/42/42 41/41/41
f 41/41/41 46/46/46 47/47/47
f 46/46/46 41/41/41 108/108/108
f 108/108/108 107/107/107 46/46/46
f 45/45/45 40/40/40 39/39/39
f 39/39/39 44/44/44 45/45/45
f 106/106/106 104/104/104 102/102/102
f 106/106/106 105/105/105 104/104/104
f 104/104/104 103/103/103 102/102/102
f 34/34/34 29/29/29 33/33/33
f 33/33/33 38/38/38 34/34/34
f 38/38/38 33/33/33 98/98/98
f 98/98/98 101/101/101 38/38/38
f 37/37/37 32/32/32 31/31/31
f 31/31/31 36/36/36 37/37/37
f 36/36/36 31/31/31 96/96/96
f 96/96/96 100/100/100 36/36/36
f 35/35/35 30/30/30 29/29/29
f 29/29/29 34/34/34 35/35/35
f 29/29/29 24/24/24 28/28/28
f 28/28/28 33/33/33 29/29/29
f 33/33/33 28/28/28 99/99/99
f 99/99/99 98/98/98 33/33/33
f 32/32/32 27/27/27 26/26/26
f 26/26/26 31/31/31 32/32/32
f 31/31/31 26/26/26 97/97/97
f 97/97/97 96/96/96 31/31/31
f 30/30/30 25/25/25 24/24/24
f 24/24/24 29/29/29 30/30/30
f 14/14/14 19/19/19 22/22/22
f 16/16/16 15/15/15 23/23/23
f 15/15/15 20/20/20 23/23/23
f 15/15/15 14/14/14 22/22/22
f 23/23/23 21/21/21 16/16/16
f 22/22/22 20/20/20 15/15/15
f 18/18/18 10/10/10 9/9/9
f 18/18/18 12/12/12 14/14/14
f 16/16/16 13/13/13 18/18/18
f 13/13/13 11/11/11 17/17/17
f 18/18/18 13/13/13 17/17/17
f 16/16/16 18/18/18 15/15/15
f 15/15/15 18/18/18 14/14/14
f 18/18/18 17/17/17 10/10/10
f 18/18/18 9/9/9 12/12/12
