v 1.277387 1.224348 0.24221199999999993
v 1.262952 1.128425 0.30827799999999994
v 1.299672 1.073934 0.25080099999999994
v 1.266143 1.027429 0.24155499999999994
v 1.293459 0.905386 -0.0028540000000000557
v 1.261227 1.098707 -6.727640053753956E-17
v 1.412863 0.711175 -0.016823000000000046
v 1.281871 0.846823 0.0003499999999999481
v 1.316562 0.819312 0.08738699999999995
v 1.224221 0.567316 0.09209699999999996
v 1.132207 0.557059 -3.411002606431127E-17
v 1.225236 0.561616 0.0027929999999999656
v 1.182588 1.360758 -0.0028540000000000835
v 1.240192 1.195906 0.00046799999999992675
v 1.268257 1.155094 0.1909049999999999
v -0.453947 0.7581430000000001 1.033894
v -0.16928 0.1081290000000001 1.527229
v 0.081342 0.7580200000000001 1.033895
v -0.834527 -0.15784799999999993 1.033895
v -0.16928 0.1081290000000001 1.527229
v -0.83338 0.37870700000000007 1.033887
v -0.455092 -0.5372829999999998 1.033891
v -0.16928 0.1081290000000001 1.527229
v -0.834527 -0.15784799999999993 1.033895
v 0.082591 -0.5372659999999999 1.033888
v -0.16928 0.1081290000000001 1.527229
v -0.455092 -0.5372829999999998 1.033891
v 0.462026 -0.15782999999999994 1.033888
v -0.16928 0.1081290000000001 1.527229
v 0.082591 -0.5372659999999999 1.033888
v 0.460777 0.37858500000000006 1.033891
v -0.16928 0.1081290000000001 1.527229
v 0.462026 -0.15782999999999994 1.033888
v 0.081342 0.7580200000000001 1.033895
v -0.16928 0.1081290000000001 1.527229
v 0.460777 0.37858500000000006 1.033891
v -0.393252 0.6281280000000001 1.438654
v -0.440861 0.724834 0.590753
v -0.439592 0.7261210000000001 1.394246
v -0.698362 0.3226480000000001 1.438379
v -0.80037 0.3653430000000001 1.39424
v -0.801504 0.36419200000000007 0.590753
v 0.079311 0.833064 -0.000625000000000051
v 0.084971 0.830405 0.10974699999999994
v 0.108793 0.916903 -0.0006250000000000562
v -0.517119 -0.597786 0.10974700000000004
v -0.523002 -0.595664 -0.0006249999999999636
v -0.552099 -0.665913 -0.0006249999999999592
v -0.453011 -0.624655 -0.0006249999999999617
v -0.458671 -0.621996 0.10974700000000004
v -0.482109 -0.694904 -0.0006249999999999575
v -0.454174 0.845858 0.10974699999999994
v -0.448514 0.848517 -0.000625000000000052
v -0.477612 0.918765 -0.0006250000000000563
v -0.518505 0.819526 -0.0006250000000000502
v -0.512622 0.821647 0.10974699999999994
v -0.547603 0.889774 -0.0006250000000000545
v 0.080857 -0.623859 0.10974700000000004
v 0.075198 -0.626518 -0.0006249999999999616
v 0.104296 -0.696766 -0.0006249999999999573
v 0.145188 -0.597527 -0.0006249999999999635
v 0.139306 -0.599649 0.10974700000000004
v 0.174286 -0.667776 -0.0006249999999999591
v -0.895443 0.441461 0.10974699999999997
v -0.893322 0.447343 -0.0006250000000000274
v -0.96357 0.476441 -0.0006250000000000292
v -0.922313 0.377352 -0.0006250000000000231
v -0.919654 0.383012 0.10974699999999997
v -0.992561 0.40645 -0.000625000000000025
v 0.522127 -0.219462 0.10974700000000001
v 0.520005 -0.225344 -0.0006249999999999862
v 0.590254 -0.254442 -0.0006249999999999844
v 0.548997 -0.155353 -0.0006249999999999905
v 0.546338 -0.161013 0.10974700000000001
v 0.619245 -0.184451 -0.0006249999999999887
v -0.921516 -0.156516 0.10974700000000001
v -0.924175 -0.150857 -0.0006249999999999908
v -0.994424 -0.179955 -0.000624999999999989
v -0.895184 -0.220847 -0.0006249999999999865
v -0.897306 -0.214965 0.10974700000000001
v -0.965433 -0.249945 -0.0006249999999999847
v 0.529019 0.37285 0.10974699999999997
v 0.531677 0.36719 -0.0006250000000000225
v 0.621108 0.401953 -0.0006250000000000246
v 0.784397 0.683108 0.611933
v 0.38963 1.077876 0.6119329999999998
v 0.587013 0.8804920000000002 1.032758
v -1.227793 -0.4462149999999999 0.616241
v -1.227793 -0.4462149999999999 0.616241
v -0.832323 -0.844764 0.613242
v -0.170134 0.10909300000000018 3.044549
v 0.310426 -0.08996199999999985 2.56237
v 0.310426 0.30814700000000017 2.56237
v -0.170134 0.10909300000000018 3.044549
v 0.310426 0.30814700000000017 2.56237
v 0.028921 0.5896520000000001 2.56237
v -0.170134 0.10909300000000018 3.044549
v 0.028921 0.5896520000000001 2.56237
v -0.369188 0.5896520000000001 2.56237
v -0.170134 0.10909300000000018 3.044549
v -0.369188 0.5896520000000001 2.56237
v -0.650694 0.30814700000000017 2.56237
v -0.170134 0.10909300000000018 3.044549
v -0.650694 0.30814700000000017 2.56237
v -0.650694 -0.08996199999999985 2.56237
v -0.170134 0.10909300000000018 3.044549
v -0.650694 -0.08996199999999985 2.56237
v -0.369188 -0.3714669999999998 2.56237
v -0.170134 0.10909300000000018 3.044549
v -0.369188 -0.3714669999999998 2.56237
v 0.02892 -0.3714669999999998 2.56237
v -0.170134 0.10909300000000018 3.044549
v 0.02892 -0.3714669999999998 2.56237
v 0.310426 -0.08996199999999985 2.56237
v -0.440861 0.724834 0.590753
v -0.440862 0.724834 0.590753
v -0.439592 0.7261210000000001 1.394246
v -0.698362 0.3226480000000001 1.438379
v -0.393252 0.6281280000000001 1.438654
v -0.439592 0.7261210000000001 1.394246
v -0.439592 0.7261210000000001 1.394246
v -0.80037 0.3653430000000001 1.39424
v -0.698362 0.3226480000000001 1.438379
v -0.800367 0.36534200000000006 1.05504
v -0.801504 0.36419200000000007 0.590753
v -0.800133 -0.14616199999999996 0.590753
v -0.800133 -0.14616199999999996 0.590753
v -0.801458 -0.14482999999999993 1.055049
v -0.800367 0.36534200000000006 1.05504
v 0.43015 -0.14617899999999998 0.590753
v 0.431338 0.36402500000000004 0.590753
v 0.430154 0.36522600000000005 1.055044
v 0.430154 0.36522600000000005 1.055044
v 0.431342 -0.14481299999999994 1.055041
v 0.43015 -0.14617899999999998 0.590753
v 1.224221 0.567316 0.09209699999999996
v 1.225236 0.561616 0.0027929999999999656
v 1.412863 0.711175 -0.016823000000000046
v 1.316562 0.819312 0.08738699999999995
v 1.224221 0.567316 0.09209699999999996
v 1.143781 0.651995 0.09413199999999995
v 1.224221 0.567316 0.09209699999999996
v 1.132207 0.557059 -3.411002606431127E-17
v 1.316562 0.819312 0.08738699999999995
v 1.281871 0.846823 0.0003499999999999481
v 1.144796 0.646294 0.00482899999999996
v 1.143781 0.651995 0.09413199999999995
v 1.132207 0.557059 -3.411002606431127E-17
v 1.143781 0.651995 0.09413199999999995
v 1.331449 1.026781 -0.004373000000000063
v 1.295096 1.263093 -0.0013640000000000774
v 1.277387 1.224348 0.24221199999999993
v 1.277387 1.224348 0.24221199999999993
v 1.299672 1.073934 0.25080099999999994
v 1.148819 1.096378 -0.003335000000000067
v 1.217703 1.287985 -0.003522000000000079
v 1.18875 1.211881 0.23787899999999992
v 1.18875 1.211881 0.23787899999999992
v 1.101356 1.111012 0.24156199999999994
v 1.18875 1.211881 0.23787899999999992
v 1.106439 1.192047 0.30827799999999994
v 1.101356 1.111012 0.24156199999999994
v 1.034114 1.168476 0.23605099999999993
v 1.101356 1.111012 0.24156199999999994
v 1.034353 1.092917 -0.004373000000000067
v 1.148819 1.096378 -0.003335000000000067
v 1.002903 1.190586 -0.003522000000000073
v 1.102816 1.26295 0.23605099999999993
v 1.106439 1.192047 0.30827799999999994
v 1.074927 1.283741 -0.0035220000000000785
v 1.217703 1.287985 -0.003522000000000079
v 1.18875 1.211881 0.23787899999999992
v 1.217703 1.287985 -0.003522000000000079
v 1.106439 1.192047 0.30827799999999994
v 1.182588 1.360758 -0.0028540000000000835
v 1.268257 1.155094 0.1909049999999999
v 1.296301 1.266605 0.2509199999999999
v 1.317928 1.164072 0.27925999999999995
v 1.268257 1.155094 0.1909049999999999
v 1.268257 1.155094 0.1909049999999999
v 1.298554 1.169227 -0.0028590000000000716
v 1.408009 1.224062 -0.003827000000000075
v 1.368102 1.351509 -0.0022340000000000827
v 1.393209 1.182579 0.21178199999999991
v 1.296301 1.266605 0.2509199999999999
v 1.317928 1.164072 0.27925999999999995
v 1.266932 1.40792 -0.0018250000000000863
v 1.182588 1.360758 -0.0028540000000000835
v 0.512739 -0.14470499999999997 0.513627
v 0.512738 -0.14470499999999997 0.577161
v 0.733403 -0.23855099999999999 0.577161
v 0.733403 -0.23855099999999999 0.577161
v 0.733403 -0.23855099999999999 0.513627
v 0.512738 -0.14470499999999997 0.577161
v 0.49172 -0.19544899999999998 0.577161
v 0.71451 -0.28416199999999997 0.577161
v 0.71451 -0.28416199999999997 0.577161
v 0.733403 -0.23855099999999999 0.577161
v -0.86719 0.36979100000000004 0.513627
v -0.86719 0.36979100000000004 0.577161
v -1.087906 0.46454400000000007 0.577161
v -1.087906 0.46454400000000007 0.577161
v -1.087906 0.46454400000000007 0.513626
v -0.86719 0.36979100000000004 0.577161
v -0.846171 0.4205340000000001 0.577161
v -1.069013 0.510155 0.577161
v -1.069013 0.510155 0.577161
v -1.087906 0.46454400000000007 0.577161
v 0.123209 -0.553296 0.513627
v 0.12321 -0.553296 0.577161
v 0.213116 -0.775972 0.577161
v 0.213116 -0.775972 0.577161
v 0.213116 -0.775972 0.513627
v 0.12321 -0.553296 0.577161
v 0.072466 -0.574315 0.577161
v 0.167505 -0.794865 0.577161
v 0.167505 -0.794865 0.577161
v 0.213116 -0.775972 0.577161
v -0.439215 -0.56816 0.513627
v -0.439215 -0.56816 0.577161
v -0.53306 -0.789333 0.577161
v -0.53306 -0.789333 0.577161
v -0.533061 -0.789333 0.513627
v 0.075281 0.811769 0.513627
v 0.075281 0.811769 0.577161
v 0.170034 1.031976 0.5771609999999999
v 0.170034 1.031976 0.5771609999999999
v 0.170035 1.031976 0.5136269999999998
v -0.837744 -0.18869299999999997 0.577161
v -0.858763 -0.13794899999999996 0.577161
v -1.08033 -0.23247899999999996 0.577161
v -1.08033 -0.23247899999999996 0.577161
v -1.061437 -0.27808999999999995 0.577161
v 0.501817 0.42326100000000005 0.577161
v 0.522835 0.37251700000000004 0.577161
v 0.742478 0.46699500000000005 0.577161
v 0.742478 0.46699500000000005 0.577161
v 0.723585 0.512606 0.577161
v -0.841317 -0.794626 0.4638320000000001
v -0.841317 -0.794626 -0.0013139999999999515
v -0.811454 -0.824489 -0.0013139999999999495
v -0.811454 -0.824489 -0.0013139999999999495
v -0.811454 -0.824489 0.4638320000000001
v -0.474745 -0.49650199999999994 0.513626
v -0.474744 -0.49650199999999994 0.57716
v -0.855088 -0.876846 0.57716
v -0.855088 -0.876846 0.57716
v -0.855088 -0.876845 0.513626
v -0.474744 -0.49650199999999994 0.57716
v -0.510668 -0.46057799999999993 0.577161
v -0.891011 -0.840922 0.57716
v -0.891011 -0.840922 0.57716
v -0.855088 -0.876846 0.57716
v -0.488744 0.786264 0.513627
v -0.488744 0.786264 0.577161
v -0.577581 1.00905 0.5771609999999999
v -0.577581 1.00905 0.5771609999999999
v -0.57758 1.00905 0.5136269999999998
v -0.488744 0.786264 0.577161
v -0.438 0.807283 0.577161
v -0.531969 1.027943 0.5771609999999999
v -0.531969 1.027943 0.5771609999999999
v -0.577581 1.00905 0.5771609999999999
v -0.796082 -0.8467469999999999 0.95116
v -0.451851 -1.190977 -0.011201999999999927
v -0.455969 -1.216454 -0.0065359999999999255
v -0.455969 -1.216454 -0.0065359999999999255
v -0.8002 -0.8722239999999999 0.955827
v -1.143968 -0.43147199999999997 0.463832
v -1.143968 -0.431472 -0.0013139999999999736
v -1.17422 -0.461723 -0.0013139999999999719
v -1.17422 -0.461723 -0.0013139999999999719
v -1.17422 -0.46172299999999994 0.4638320000000001
v -1.306162 -0.335038 0.446907
v -0.804853 -0.836346 0.44690700000000005
v -0.804853 -0.836347 0.510442
v -0.804853 -0.836347 0.510442
v -1.306162 -0.33503799999999995 0.510442
v -1.306162 -0.33503799999999995 0.510442
v -0.804853 -0.836347 0.510442
v -0.768929 -0.800423 0.510442
v -0.768929 -0.800423 0.510442
v -1.270238 -0.29911499999999996 0.510442
v -0.809581 -0.16166499999999998 0.513626
v -0.809581 -0.16166499999999998 0.57716
v -1.189924 -0.542009 0.57716
v -1.189924 -0.542009 0.57716
v -1.189925 -0.542009 0.513626
v -0.809581 -0.16166499999999998 0.57716
v -0.845504 -0.12574199999999996 0.577161
v -1.225848 -0.506086 0.57716
v -1.225848 -0.506086 0.57716
v -1.189924 -0.542009 0.57716
v 1.295096 1.263093 -0.0013640000000000774
v 1.097181 1.139991 -0.0023580000000000697
v 1.178388 1.144531 0.24772199999999991
v 1.277387 1.224348 0.24221199999999993
v 1.295096 1.263093 -0.0013640000000000774
v 1.262952 1.128425 0.30827799999999994
v 0.623959 0.674269 0.21019099999999996
v 0.58435 0.680374 -0.0035220000000000416
v 0.63083 0.80023 -0.003522000000000049
v 0.63083 0.80023 -0.003522000000000049
v 0.636089 0.761776 0.22447299999999995
v 0.636089 0.761776 0.22447299999999995
v 0.58708 0.714807 0.29963399999999996
v 1.261227 1.098707 -6.727640053753956E-17
v 1.095199 1.079149 -0.003827000000000066
v 1.188671 1.120482 0.27390099999999995
v 1.266143 1.027429 0.24155499999999994
v 1.408009 1.224062 -0.003827000000000075
v 1.393209 1.182579 0.21178199999999991
v 1.268257 1.155094 0.1909049999999999
v 1.317928 1.164072 0.27925999999999995
v -0.872368 1.298513 0.16574799999999992
v -0.83559 1.280073 -0.012465000000000078
v -0.864847 1.389262 -8.50677630738525E-17
v -0.887478 1.354905 0.17821299999999993
v -0.887478 1.354905 0.17821299999999993
v -0.864847 1.389262 -8.50677630738525E-17
v -1.354626 1.276596 -7.816896026021573E-17
v -1.317848 1.258157 0.23279899999999992
v -0.872368 1.298513 0.16574799999999992
v -0.887478 1.354905 0.17821299999999993
v -1.317848 1.258157 0.23279899999999992
v -1.276053 1.203625 0.22033299999999992
v -1.442242 0.573831 0.18727799999999997
v -1.472147 0.545578 -3.3407017569260734E-17
v -1.337522 0.5338 -0.006681000000000033
v -1.362067 0.566817 0.18059599999999998
v -1.317848 1.258157 0.23279899999999992
v -1.354626 1.276596 -7.816896026021573E-17
v -1.472147 0.545578 -3.3407017569260734E-17
v -1.442242 0.573831 0.18727799999999997
v -1.276053 1.203625 0.22033299999999992
v -1.317848 1.258157 0.23279899999999992
v -1.442242 0.573831 0.18727799999999997
v -1.362067 0.566817 0.18059599999999998
v -0.571485 -0.1549819999999999 1.930454
v -0.595968 -0.1794649999999999 1.771418
v -0.469605 -0.3058299999999999 1.771418
v -0.445121 -0.2813449999999999 1.930455
v 0.210919 0.37469400000000014 1.935387
v 0.293134 0.4569090000000001 1.818022
v 0.166771 0.5832730000000002 1.818022
v 0.084556 0.5010570000000001 1.935387
v 0.990524 0.640433 0.611933
v 0.771935 0.688893 0.611933
v 0.771935 0.688894 -4.218259160259084E-17
v 0.990524 0.640433 -3.9215211175916845E-17
v 0.995209 0.661567 0.611933
v 0.995209 0.661567 -4.050929544857585E-17
v 0.77662 0.710027 -4.347661464290988E-17
v 0.77662 0.710027 0.611933
v 0.587013 0.8804920000000002 1.032758
v 0.38963 1.077876 0.6119329999999998
v 0.029774 0.718021 0.611933
v 0.2443 0.5377790000000001 1.032758
v 0.38963 1.077876 0.6119329999999998
v 0.38963 1.077876 -6.600086966388762E-17
v 0.135349 0.823595 -5.0430649027188214E-17
v 0.029774 0.718021 0.611933
v 0.71451 -0.28416199999999997 0.577161
v 0.71451 -0.28416299999999994 0.513627
v 0.733403 -0.23855099999999999 0.513627
v 0.733403 -0.23855099999999999 0.577161
v 0.564045 -0.220143 0.07388200000000002
v 0.581365 -0.178329 0.07388200000000002
v 0.658962 -0.21228599999999997 0.516109
v 0.643299 -0.25009699999999996 0.516109
v 0.49172 -0.19544899999999998 0.577161
v 0.49172 -0.19544899999999998 0.513627
v 0.71451 -0.28416299999999994 0.513627
v 0.71451 -0.28416199999999997 0.577161
v -1.069013 0.510155 0.577161
v -1.069013 0.510156 0.513627
v -1.087906 0.46454400000000007 0.513626
v -1.087906 0.46454400000000007 0.577161
v -0.938803 0.446826 0.07388199999999998
v -0.956123 0.405011 0.07388199999999998
v -1.033769 0.43982200000000005 0.516109
v -1.018107 0.47763300000000003 0.516109
v -0.846171 0.4205340000000001 0.577161
v -0.846171 0.42053500000000005 0.513627
v -1.069013 0.510156 0.513627
v -1.069013 0.510155 0.577161
v 0.167505 -0.794865 0.577161
v 0.167504 -0.794866 0.513627
v 0.213116 -0.775972 0.513627
v 0.213116 -0.775972 0.577161
v 0.110178 -0.662677 0.07388200000000004
v 0.151992 -0.645356 0.07388200000000004
v 0.183068 -0.724504 0.516109
v 0.145257 -0.740166 0.516109
v 0.072466 -0.574315 0.577161
v 0.072466 -0.574315 0.513627
v 0.167504 -0.794866 0.513627
v 0.167505 -0.794865 0.577161
v -0.578672 -0.77044 0.577161
v -0.578673 -0.77044 0.513627
v -0.533061 -0.789333 0.513627
v -0.53306 -0.789333 0.577161
v -0.527914 -0.644143 0.07388200000000004
v -0.486099 -0.661462 0.07388200000000004
v -0.520057 -0.739538 0.516109
v -0.557867 -0.723876 0.516109
v -0.439215 -0.56816 0.577161
v -0.489958 -0.547141 0.577161
v -0.578672 -0.77044 0.577161
v -0.53306 -0.789333 0.577161
v 0.215646 1.013083 0.5771609999999999
v 0.215646 1.013083 0.5136269999999998
v 0.170035 1.031976 0.5136269999999998
v 0.170034 1.031976 0.5771609999999999
v 0.150773 0.863048 0.07388199999999995
v 0.108958 0.880368 0.07388199999999995
v 0.143769 0.957534 0.5161089999999999
v 0.18158 0.941872 0.5161089999999999
v 0.075281 0.811769 0.577161
v 0.126024 0.79075 0.577161
v 0.215646 1.013083 0.5771609999999999
v 0.170034 1.031976 0.5771609999999999
v -1.08033 -0.23247899999999996 0.577161
v -1.080331 -0.23247799999999996 0.513627
v -1.061438 -0.27808999999999995 0.513627
v -1.061437 -0.27808999999999995 0.577161
v -0.949356 -0.181394 0.07388200000000002
v -0.932036 -0.223209 0.07388200000000002
v -1.012141 -0.2538059999999999 0.516109
v -1.027803 -0.21599499999999996 0.516109
v -0.858763 -0.13794899999999996 0.577161
v -0.858763 -0.13794899999999996 0.513627
v -1.080331 -0.23247799999999996 0.513627
v -1.08033 -0.23247899999999996 0.577161
v 0.742478 0.46699500000000005 0.577161
v 0.742478 0.4669940000000001 0.513627
v 0.723585 0.512606 0.513627
v 0.723585 0.512606 0.577161
v 0.591401 0.406177 0.07388199999999998
v 0.574081 0.447992 0.07388199999999998
v 0.652375 0.4785400000000001 0.516109
v 0.668037 0.44072900000000004 0.516109
v 0.522835 0.37251700000000004 0.577161
v 0.522835 0.37251700000000004 0.513627
v 0.742478 0.4669940000000001 0.513627
v 0.742478 0.46699500000000005 0.577161
v 0.149114 0.829619 0.590269
v 0.151443 0.835243 -5.114388332301163E-17
v -0.494534 0.858656 -5.2577516098433485E-17
v -0.492204 0.853031 0.590269
v -0.492204 0.853031 0.590269
v -0.494534 0.858656 -5.2577516098433485E-17
v -0.93228 0.420909 -2.5773242979115662E-17
v -0.926656 0.41858000000000006 0.590269
v -0.926656 0.41858000000000006 0.590269
v -0.93228 0.420909 -2.5773242979115662E-17
v -0.932281 -0.198157 1.2133616788932103E-17
v -0.926656 -0.19582799999999997 0.590269
v -0.926656 -0.19582799999999997 0.590269
v -0.932281 -0.198157 1.2133616788932103E-17
v -0.494534 -0.635904 3.8937889908249926E-17
v -0.492205 -0.630279 0.590269
v -0.492205 -0.630279 0.590269
v -0.494534 -0.635904 3.8937889908249926E-17
v 0.124532 -0.635904 3.8937889908249926E-17
v 0.122203 -0.630279 0.590269
v -0.811454 -0.824489 0.4638320000000001
v -0.811454 -0.824489 -0.0013139999999999495
v -0.781202 -0.794238 -0.0013139999999999515
v -0.781202 -0.794238 0.4638320000000001
v -0.891011 -0.840922 0.57716
v -0.891012 -0.840922 0.513626
v -0.855088 -0.876845 0.513626
v -0.855088 -0.876846 0.57716
v -0.510668 -0.46057799999999993 0.577161
v -0.510668 -0.46057799999999993 0.513626
v -0.891012 -0.840922 0.513626
v -0.891011 -0.840922 0.57716
v -0.661115 -0.678275 0.612253
v -0.320092 -1.019298 -0.0013679999999999376
v -0.291222 -0.990427 -0.0013679999999999394
v -0.632244 -0.649405 0.612253
v -0.632244 -0.649405 0.612253
v -0.291222 -0.990427 -0.0013679999999999394
v -0.343448 -0.938202 -0.0013679999999999426
v -0.632244 -0.649405 0.48804200000000003
v -0.747545 -0.12402799999999993 1.099458
v -0.418286 -0.45328699999999994 1.099458
v -0.339753 -0.3041989999999999 2.24405
v -0.580513 -0.06343799999999986 2.24405
v -0.418286 -0.45328699999999994 1.099458
v 0.047357 -0.45328799999999997 1.099458
v 0.000733 -0.3041989999999999 2.24405
v -0.339753 -0.3041989999999999 2.24405
v 0.047357 -0.45328799999999997 1.099458
v 0.376617 -0.12402899999999993 1.099458
v 0.241494 -0.06343899999999986 2.24405
v 0.000733 -0.3041989999999999 2.24405
v 0.376617 -0.12402899999999993 1.099458
v 0.376617 0.34161400000000003 1.099458
v 0.241494 0.2770480000000001 2.24405
v 0.241494 -0.06343899999999986 2.24405
v -0.810912 -0.828073 0.48804100000000006
v -0.522115 -1.11687 -0.0013679999999999318
v -0.46989 -1.169095 -0.0013679999999999285
v -0.810912 -0.828073 0.612253
v -0.810912 -0.828073 0.612253
v -0.46989 -1.169095 -0.0013679999999999285
v -0.44102 -1.140225 -0.0013679999999999303
v -0.782042 -0.799203 0.612253
v -0.782042 -0.799203 0.612253
v -0.44102 -1.140225 -0.0013679999999999303
v -0.320092 -1.019298 -0.0013679999999999376
v -0.661115 -0.678275 0.612253
v 0.047358 0.6708740000000001 1.099458
v -0.418285 0.6708740000000001 1.099458
v -0.339753 0.5178090000000001 2.24405
v 0.000734 0.5178090000000001 2.24405
v -0.580513 -0.06343799999999986 2.24405
v -0.580513 0.2770490000000001 2.24405
v -0.747545 0.34161500000000006 1.099458
v -0.747545 -0.12402799999999993 1.099458
v -0.393252 0.6281280000000001 1.438654
v -0.698362 0.3226480000000001 1.438379
v -0.580513 0.2770480000000001 2.24405
v -0.339753 0.5178090000000001 2.24405
v 0.178783 0.887912 -0.0006250000000000543
v 0.108793 0.916903 -0.0006250000000000562
v 0.084971 0.830405 0.10974699999999994
v 0.143803 0.819785 0.10974699999999994
v -0.552099 -0.665913 -0.0006249999999999592
v -0.482109 -0.694904 -0.0006249999999999575
v -0.458671 -0.621996 0.10974700000000004
v -0.517119 -0.597786 0.10974700000000004
v -0.477612 0.918765 -0.0006250000000000563
v -0.547603 0.889774 -0.0006250000000000545
v -0.512622 0.821647 0.10974699999999994
v -0.454174 0.845858 0.10974699999999994
v 0.104296 -0.696766 -0.0006249999999999573
v 0.174286 -0.667776 -0.0006249999999999591
v 0.139306 -0.599649 0.10974700000000004
v 0.080857 -0.623859 0.10974700000000004
v -0.96357 0.476441 -0.0006250000000000292
v -0.992561 0.40645 -0.000625000000000025
v -0.919654 0.383012 0.10974699999999997
v -0.895443 0.441461 0.10974699999999997
v 0.590254 -0.254442 -0.0006249999999999844
v 0.619245 -0.184451 -0.0006249999999999887
v 0.546338 -0.161013 0.10974700000000001
v 0.522127 -0.219462 0.10974700000000001
v -0.994424 -0.179955 -0.000624999999999989
v -0.965433 -0.249945 -0.0006249999999999847
v -0.897306 -0.214965 0.10974700000000001
v -0.921516 -0.156516 0.10974700000000001
v 0.621108 0.401953 -0.0006250000000000246
v 0.592117 0.471944 -0.000625000000000029
v 0.52399 0.436964 0.10974699999999997
v 0.529019 0.37285 0.10974699999999997
v 0.483726 1.260404 0.6119329999999998
v 0.483726 1.260403 -7.717742497928606E-17
v 0.416399 1.04687 -6.410229973116948E-17
v 0.416399 1.04687 0.6119329999999998
v 0.50437 1.253894 0.6119329999999998
v 0.437044 1.040361 0.6119329999999998
v 0.437044 1.040361 -6.370373843038699E-17
v 0.50437 1.253894 -7.677886367850357E-17
v 0.263001 0.873116 -5.346293573421702E-17
v 0.428695 1.03881 -6.36087670711131E-17
v 0.428695 1.03881 0.6119329999999998
v 0.263001 0.873116 0.611933
v 0.579638 0.55648 0.611933
v 0.745332 0.722174 0.611933
v 0.745332 0.722173 -4.4220342644032073E-17
v 0.579638 0.55648 -3.4074572539475956E-17
v 0.428695 1.03881 -6.36087670711131E-17
v 0.38963 1.077876 -6.600086966388762E-17
v 0.38963 1.077876 0.6119329999999998
v 0.428695 1.03881 0.6119329999999998
v 0.745332 0.722174 0.611933
v 0.784397 0.683108 0.611933
v 0.784397 0.683108 -4.182830128359751E-17
v 0.745332 0.722173 -4.4220342644032073E-17
v 0.263001 0.873116 0.611933
v 0.579638 0.55648 0.611933
v 0.579638 0.55648 -3.4074572539475956E-17
v 0.263001 0.873116 -5.346293573421702E-17
v 0.424542 0.32325300000000007 0.611933
v 0.530117 0.428828 -2.625814187923806E-17
v 0.784397 0.683108 -4.182830128359751E-17
v 0.784397 0.683108 0.611933
v 0.587013 0.8804920000000002 1.032758
v 0.2443 0.5377790000000001 1.032758
v 0.424542 0.32325300000000007 0.611933
v 0.784397 0.683108 0.611933
v -0.531969 1.027943 0.5771609999999999
v -0.531969 1.027943 0.5136269999999998
v -0.57758 1.00905 0.5136269999999998
v -0.577581 1.00905 0.5771609999999999
v -0.478407 0.882685 0.07388199999999995
v -0.520222 0.865365 0.07388199999999995
v -0.550291 0.944617 0.5161089999999999
v -0.51248 0.960278 0.5161089999999999
v -0.438 0.807283 0.577161
v -0.438 0.807283 0.513627
v -0.531969 1.027943 0.5136269999999998
v -0.531969 1.027943 0.5771609999999999
v 0.122203 -0.630279 0.590269
v 0.124532 -0.635904 3.8937889908249926E-17
v 0.562279 -0.198157 1.2133616788932103E-17
v 0.556654 -0.19582799999999997 0.590269
v 0.556654 -0.19582799999999997 0.590269
v 0.562279 -0.198157 1.2133616788932103E-17
v 0.53678 0.440216 -2.6955455766672562E-17
v 0.531156 0.4378870000000001 0.590269
v -0.804853 -0.836347 0.510442
v -0.804853 -0.836346 0.44690700000000005
v -0.768929 -0.800423 0.44690700000000005
v -0.768929 -0.800423 0.510442
v -0.8002 -0.8722239999999999 0.955827
v -0.455969 -1.216454 -0.0065359999999999255
v -0.433405 -1.206908 -0.001927999999999926
v -0.777635 -0.8626779999999998 0.960434
v -1.17422 -0.46172299999999994 0.4638320000000001
v -1.17422 -0.461723 -0.0013139999999999719
v -1.144356 -0.491587 -0.00131399999999997
v -1.144356 -0.49158699999999994 0.4638320000000001
v -1.270238 -0.29911499999999996 0.510442
v -1.270238 -0.299114 0.446907
v -1.306162 -0.335038 0.446907
v -1.306162 -0.33503799999999995 0.510442
v -0.768929 -0.800423 0.510442
v -0.768929 -0.800423 0.44690700000000005
v -1.270238 -0.299114 0.446907
v -1.270238 -0.29911499999999996 0.510442
v -1.225848 -0.506086 0.57716
v -1.225848 -0.506086 0.513626
v -1.189925 -0.542009 0.513626
v -1.189924 -0.542009 0.57716
v -0.845504 -0.12574199999999996 0.577161
v -0.845505 -0.12574199999999996 0.513626
v -1.225848 -0.506086 0.513626
v -1.225848 -0.506086 0.57716
v -0.543374 -0.741561 0.616241
v -0.649 -0.635917 0.616241
v -0.649 -0.635917 0.88196
v -0.543374 -0.741561 0.88196
v -0.543374 -0.741561 0.616232
v -0.543374 -0.741561 0.88196
v -0.649 -0.635917 0.88196
v -0.649 -0.635917 0.616232
v -1.227793 -0.4462149999999999 0.616241
v -1.227793 -0.4462149999999999 0.88196
v -0.832323 -0.844764 0.613242
v -0.832323 -0.844764 0.88196
v -0.832323 -0.844764 0.613237
v -0.832323 -0.844764 0.88196
v -1.227793 -0.4462149999999999 0.88196
v -1.227793 -0.4462149999999999 0.616232
v 0.1695 -0.741552 0.616241
v -0.543374 -0.741561 0.616241
v -0.543374 -0.741561 0.88196
v 0.1695 -0.741552 0.88196
v -0.543374 -0.741561 0.616232
v 0.1695 -0.741552 0.616232
v 0.1695 -0.741552 0.88196
v -0.543374 -0.741561 0.88196
v -1.227793 -0.4462149999999999 0.88196
v -1.227793 -0.4462149999999999 0.616241
v -1.039724 -0.25324599999999997 0.616241
v -1.039724 -0.25324599999999997 0.881961
v -1.227793 -0.4462149999999999 0.616232
v -1.227793 -0.4462149999999999 0.88196
v -1.039724 -0.25324599999999997 0.88196
v -1.039724 -0.25324599999999997 0.616232
v -0.537546 0.965467 0.8819609999999999
v -0.537546 0.965467 0.6162409999999999
v 0.169422 0.965533 0.6162409999999999
v 0.169422 0.965533 0.8819609999999999
v -1.037877 0.46550900000000006 0.881961
v -1.037877 0.46550900000000006 0.616241
v -0.537546 0.965467 0.6162409999999999
v -0.537546 0.965467 0.8819609999999999
v -1.039724 -0.25324599999999997 0.881961
v -1.039724 -0.25324599999999997 0.616241
v -1.037877 0.46550900000000006 0.616241
v -1.037877 0.46550900000000006 0.881961
v 0.1695 -0.741552 0.881961
v 0.669239 -0.24185899999999994 0.881961
v 0.669239 -0.24185899999999996 0.616241
v 0.1695 -0.741552 0.616241
v 0.66918 0.46598600000000007 0.881961
v 0.66918 0.46598600000000007 0.616241
v 0.669239 -0.24185899999999996 0.616241
v 0.669239 -0.24185899999999994 0.881961
v 0.169422 0.965533 0.8819609999999999
v 0.169422 0.965533 0.6162409999999999
v 0.66918 0.46598600000000007 0.616241
v 0.66918 0.46598600000000007 0.881961
v -0.537546 0.965467 0.6162319999999999
v -0.537546 0.965467 0.8819609999999999
v 0.169422 0.965533 0.8819609999999999
v 0.169422 0.965533 0.6162319999999999
v -1.037877 0.46550900000000006 0.616232
v -1.037877 0.46550900000000006 0.881961
v -0.537546 0.965467 0.8819609999999999
v -0.537546 0.965467 0.6162319999999999
v 0.669239 -0.24185899999999996 0.616232
v 0.669239 -0.24185899999999994 0.881961
v 0.1695 -0.741552 0.881961
v 0.1695 -0.741552 0.616232
v 0.66918 0.46598600000000007 0.616232
v 0.66918 0.46598600000000007 0.881961
v 0.669239 -0.24185899999999994 0.881961
v 0.669239 -0.24185899999999996 0.616232
v 0.169422 0.965533 0.6162319999999999
v 0.169422 0.965533 0.8819609999999999
v 0.66918 0.46598600000000007 0.881961
v 0.66918 0.46598600000000007 0.616232
v -0.838432 -0.859342 0.614276
v -0.64073 -0.66164 0.614276
v -1.05402 -0.24834999999999996 0.614276
v -1.251721 -0.44605199999999995 0.614276
v 0.310426 0.3081470000000001 2.215648
v 0.028921 0.5896520000000001 2.215648
v 0.028921 0.5896520000000001 2.56237
v 0.310426 0.30814700000000017 2.56237
v -0.650694 0.3081470000000001 2.215647
v -0.650694 0.30814700000000017 2.56237
v -0.369188 0.5896520000000001 2.56237
v -0.369188 0.5896520000000001 2.215647
v -0.650694 -0.08996199999999986 2.215647
v -0.369188 -0.3714669999999999 2.215647
v -0.369188 -0.3714669999999998 2.56237
v -0.650694 -0.08996199999999985 2.56237
v 0.310426 -0.08996199999999985 2.56237
v 0.310426 -0.08996199999999986 2.215647
v 0.310426 0.3081470000000001 2.215648
v 0.310426 0.30814700000000017 2.56237
v 0.028921 0.5896520000000001 2.56237
v 0.028921 0.5896520000000001 2.215648
v -0.369188 0.5896520000000001 2.215647
v -0.369188 0.5896520000000001 2.56237
v -0.650694 0.30814700000000017 2.56237
v -0.650694 0.3081470000000001 2.215647
v -0.650694 -0.08996199999999986 2.215647
v -0.650694 -0.08996199999999985 2.56237
v -0.369188 -0.3714669999999998 2.56237
v -0.369188 -0.3714669999999999 2.215647
v 0.028921 -0.3714669999999999 2.215647
v 0.02892 -0.3714669999999998 2.56237
v 0.310426 -0.08996199999999986 2.215647
v 0.310426 -0.08996199999999985 2.56237
v 0.02892 -0.3714669999999998 2.56237
v 0.028921 -0.3714669999999999 2.215647
v -0.440862 0.724834 0.590753
v -0.801504 0.36419200000000007 0.590753
v -0.439592 0.7261210000000001 1.394246
v -0.80037 0.3653430000000001 1.39424
v 0.376617 0.34161400000000003 1.099458
v 0.047358 0.6708740000000001 1.099458
v 0.000734 0.5178080000000002 2.24405
v 0.241494 0.2770480000000001 2.24405
v 0.070696 0.724667 0.590753
v -0.440862 0.724834 0.590753
v -0.439592 0.7261210000000001 1.055048
v 0.069376 0.7260040000000001 1.055049
v -0.801458 -0.14482999999999993 1.055049
v -0.800133 -0.14616199999999996 0.590753
v -0.439491 -0.506804 0.590753
v -0.44068 -0.5056079999999998 1.055044
v -0.44068 -0.5056079999999998 1.055044
v -0.439491 -0.506804 0.590753
v 0.069508 -0.506821 0.590753
v 0.070563 -0.5055919999999999 1.055041
v 0.070563 -0.5055919999999999 1.055041
v 0.069508 -0.506821 0.590753
v 0.43015 -0.14617899999999998 0.590753
v 0.431342 -0.14481299999999994 1.055041
v 0.431338 0.36402500000000004 0.590753
v 0.070696 0.724667 0.590753
v 0.069376 0.7260040000000001 1.055049
v 0.430154 0.36522600000000005 1.055044
v 1.097181 1.139991 -0.0023580000000000697
v 1.331449 1.026781 -0.004373000000000063
v 1.299672 1.073934 0.25080099999999994
v 1.178388 1.144531 0.24772199999999991
v 1.262952 1.128425 0.30827799999999994
v -0.83559 1.280073 -0.012465000000000078
v -0.872368 1.298513 0.16574799999999992
v -1.276053 1.203625 0.22033299999999992
v -1.255993 1.167561 -0.006681000000000071
v -1.362067 0.566817 0.18059599999999998
v -1.337522 0.5338 -0.006681000000000033
v -1.037877 0.46550900000000006 0.616232
v -1.039724 -0.25324599999999997 0.616232
v -1.037877 0.46550900000000006 0.881961
v -1.039724 -0.25324599999999997 0.88196
v -1.039724 -0.25324599999999997 0.88196
v 1.15873 1.01709 0.24520499999999995
v 1.188671 1.120482 0.27390099999999995
v 1.095199 1.079149 -0.003827000000000066
v 1.144638 0.906262 -0.0020080000000000553
v 1.266143 1.027429 0.24155499999999994
v 1.188671 1.120482 0.27390099999999995
v 1.15873 1.01709 0.24520499999999995
v 1.293459 0.905386 -0.0028540000000000557
v 0.636089 0.761776 0.22447299999999995
v 0.63083 0.80023 -0.003522000000000049
v 0.490513 0.859513 -0.0035220000000000524
v 0.49836 0.726328 0.25388199999999994
v 0.58708 0.714807 0.29963399999999996
v 0.415285 0.789734 -0.004373000000000049
v 0.685572 0.4722120000000001 0.614276
v 0.176057 0.981727 0.6142759999999999
v 0.685572 -0.24834999999999996 0.614276
v -0.544505 -0.757865 0.614276
v 0.176057 -0.757865 0.614276
v -1.05402 0.4722120000000001 0.614276
v -1.05402 -0.24834999999999996 0.614276
v -0.544505 0.981727 0.6142759999999999
vt 0.857200 0.380359
vt 0.861576 0.358475
vt 0.869896 0.373979
vt 0.811457 0.450916
vt 0.798900 0.517688
vt 0.791877 0.490927
vt 0.853327 0.296196
vt 0.847892 0.338828
vt 0.842811 0.327858
vt 0.818384 0.296558
vt 0.808968 0.301992
vt 0.819711 0.273702
vt 0.798880 0.517688
vt 0.791854 0.490927
vt 0.822359 0.449935
vt 0.732019 0.700942
vt 0.767273 0.509870
vt 0.802527 0.700942
vt 0.578513 0.701027
vt 0.612790 0.509984
vt 0.647066 0.701027
vt 0.503485 0.701027
vt 0.538921 0.509984
vt 0.574357 0.701027
vt 0.426954 0.701027
vt 0.463025 0.509984
vt 0.499095 0.701027
vt 0.351108 0.701027
vt 0.386726 0.509984
vt 0.422344 0.701027
vt 0.275100 0.701027
vt 0.310951 0.509984
vt 0.346803 0.701027
vt 0.196041 0.701027
vt 0.233583 0.509984
vt 0.271126 0.701027
vt 0.937998 0.074609
vt 1.071854 0.105149
vt 0.944614 0.101692
vt 0.938019 0.069138
vt 0.944591 0.041498
vt 1.064216 0.041347
vt 0.609239 0.065112
vt 0.602803 0.044324
vt 0.619670 0.059077
vt 0.748631 0.658927
vt 0.734204 0.648637
vt 0.738393 0.631959
vt 0.772028 0.648637
vt 0.757601 0.658927
vt 0.767840 0.631959
vt 0.645115 0.058652
vt 0.629967 0.047847
vt 0.634364 0.030335
vt 0.669682 0.047847
vt 0.654534 0.058652
vt 0.665285 0.030335
vt 0.896760 0.623116
vt 0.883235 0.613468
vt 0.887161 0.597833
vt 0.918695 0.613468
vt 0.905170 0.623116
vt 0.914769 0.597833
vt 0.297660 0.320123
vt 0.312808 0.330928
vt 0.308411 0.348440
vt 0.273094 0.330928
vt 0.288242 0.320123
vt 0.277491 0.348440
vt 0.515939 0.219977
vt 0.500791 0.209173
vt 0.505188 0.191661
vt 0.540506 0.209172
vt 0.525358 0.219977
vt 0.536108 0.191660
vt 0.707472 0.272540
vt 0.695056 0.263683
vt 0.698660 0.249329
vt 0.727610 0.263683
vt 0.715193 0.272539
vt 0.724005 0.249329
vt 0.484454 0.177820
vt 0.499602 0.188625
vt 0.495205 0.206137
vt 0.996605 0.640258
vt 0.913485 0.640258
vt 0.955045 0.535069
vt 0.087733 0.812112
vt 0.087733 0.812112
vt 0.006368 0.812112
vt 0.478119 0.502947
vt 0.448162 0.239946
vt 0.508077 0.239946
vt 0.538035 0.502947
vt 0.508077 0.239946
vt 0.567993 0.239946
vt 0.597951 0.502947
vt 0.567993 0.239946
vt 0.627908 0.239946
vt 0.657866 0.502947
vt 0.627908 0.239946
vt 0.687824 0.239946
vt 0.628893 0.315772
vt 0.658851 0.578772
vt 0.598936 0.578772
vt 0.568978 0.315772
vt 0.598936 0.578772
vt 0.539020 0.578772
vt 0.509062 0.315772
vt 0.539020 0.578772
vt 0.479104 0.578772
vt 0.449146 0.315772
vt 0.479104 0.578772
vt 0.419189 0.578772
vt 0.727863 0.803402
vt 0.727863 0.804310
vt 0.727863 0.626291
vt 0.658017 0.587585
vt 0.722297 0.587585
vt 0.727863 0.619054
vt 0.727863 0.619054
vt 0.651222 0.619369
vt 0.658017 0.587585
vt 0.647066 0.709423
vt 0.647066 0.804310
vt 0.578513 0.804441
vt 0.578513 0.804441
vt 0.578513 0.709423
vt 0.647066 0.709423
vt 0.346803 0.804441
vt 0.275100 0.804441
vt 0.275100 0.709423
vt 0.275100 0.709423
vt 0.346803 0.709423
vt 0.346803 0.804441
vt 0.818384 0.296558
vt 0.819711 0.273702
vt 0.853327 0.296196
vt 0.842811 0.327858
vt 0.818384 0.296558
vt 0.817285 0.312989
vt 0.818384 0.296558
vt 0.808968 0.301992
vt 0.842811 0.327858
vt 0.847892 0.338828
vt 0.814552 0.334920
vt 0.817285 0.312989
vt 0.808968 0.301992
vt 0.817285 0.312989
vt 0.880463 0.432104
vt 0.854355 0.438726
vt 0.857200 0.380359
vt 0.857200 0.380359
vt 0.869896 0.373979
vt 0.889377 0.400541
vt 0.887572 0.415635
vt 0.874183 0.368458
vt 0.874183 0.368458
vt 0.875402 0.353527
vt 0.849389 0.352999
vt 0.861497 0.358594
vt 0.849124 0.368529
vt 0.857143 0.380323
vt 0.851284 0.371555
vt 0.843516 0.433334
vt 0.834445 0.414352
vt 0.854312 0.438278
vt 0.866261 0.379482
vt 0.861497 0.358594
vt 0.867485 0.437853
vt 0.887572 0.415635
vt 0.874183 0.368458
vt 0.887572 0.415635
vt 0.861497 0.358594
vt 0.798880 0.517688
vt 0.822359 0.449935
vt 0.815263 0.457621
vt 0.822200 0.437612
vt 0.822359 0.449935
vt 0.822359 0.449935
vt 0.846950 0.488800
vt 0.840941 0.508937
vt 0.827443 0.524200
vt 0.829983 0.457053
vt 0.815263 0.457621
vt 0.822200 0.437612
vt 0.810873 0.524739
vt 0.798880 0.517688
vt 0.359334 0.278615
vt 0.352321 0.278615
vt 0.352321 0.220966
vt 0.352321 0.220966
vt 0.359334 0.220966
vt 0.352321 0.278615
vt 0.344765 0.278615
vt 0.344765 0.220966
vt 0.344765 0.220966
vt 0.352321 0.220966
vt 0.359334 0.278615
vt 0.352321 0.278615
vt 0.352321 0.220966
vt 0.352321 0.220966
vt 0.359334 0.220966
vt 0.352321 0.278615
vt 0.344765 0.278615
vt 0.344765 0.220966
vt 0.344765 0.220966
vt 0.352321 0.220966
vt 0.359334 0.278615
vt 0.352321 0.278615
vt 0.352321 0.220966
vt 0.352321 0.220966
vt 0.359334 0.220966
vt 0.352321 0.278615
vt 0.344765 0.278615
vt 0.344765 0.220966
vt 0.344765 0.220966
vt 0.352321 0.220966
vt 0.359334 0.278615
vt 0.352321 0.278615
vt 0.352321 0.220966
vt 0.352321 0.220966
vt 0.359334 0.220966
vt 0.359334 0.278615
vt 0.352321 0.278615
vt 0.352321 0.220966
vt 0.352321 0.220966
vt 0.359334 0.220966
vt 0.352321 0.278615
vt 0.344765 0.278615
vt 0.344765 0.220966
vt 0.344765 0.220966
vt 0.352321 0.220966
vt 0.352321 0.278615
vt 0.344765 0.278615
vt 0.344765 0.220966
vt 0.344765 0.220966
vt 0.352321 0.220966
vt 0.532867 0.031835
vt 0.598978 0.031835
vt 0.598978 0.042461
vt 0.598978 0.042461
vt 0.532867 0.042461
vt 0.335441 0.330709
vt 0.335441 0.316160
vt 0.411557 0.316160
vt 0.411557 0.316160
vt 0.411557 0.330709
vt 0.335441 0.316160
vt 0.335441 0.304510
vt 0.411557 0.304510
vt 0.411557 0.304510
vt 0.411557 0.316160
vt 0.359334 0.278615
vt 0.352321 0.278615
vt 0.352321 0.220966
vt 0.352321 0.220966
vt 0.359334 0.220966
vt 0.352321 0.278615
vt 0.344765 0.278615
vt 0.344765 0.220966
vt 0.344765 0.220966
vt 0.352321 0.220966
vt 0.994096 0.324455
vt 0.994269 0.593861
vt 0.991812 0.594050
vt 0.991812 0.594050
vt 0.991638 0.324455
vt 0.532867 0.031835
vt 0.598978 0.031835
vt 0.598978 0.042461
vt 0.598978 0.042461
vt 0.532867 0.042461
vt 0.287736 0.589599
vt 0.287735 0.406778
vt 0.297591 0.406778
vt 0.297591 0.406778
vt 0.297424 0.589584
vt 0.297424 0.589584
vt 0.297591 0.406778
vt 0.305306 0.406763
vt 0.305306 0.406763
vt 0.305306 0.589584
vt 0.335441 0.330709
vt 0.335441 0.316160
vt 0.411557 0.316160
vt 0.411557 0.316160
vt 0.411557 0.330709
vt 0.335441 0.316160
vt 0.335441 0.304510
vt 0.411557 0.304510
vt 0.411557 0.304510
vt 0.411557 0.316160
vt 0.854355 0.438726
vt 0.833916 0.408345
vt 0.848972 0.361769
vt 0.857200 0.380359
vt 0.854355 0.438726
vt 0.861576 0.358475
vt 0.874183 0.368458
vt 0.887572 0.415635
vt 0.867485 0.437853
vt 0.867485 0.437853
vt 0.866261 0.379482
vt 0.866261 0.379482
vt 0.861497 0.358594
vt 0.791877 0.490927
vt 0.840944 0.508937
vt 0.827330 0.446069
vt 0.811457 0.450916
vt 0.840941 0.508937
vt 0.829983 0.457053
vt 0.822359 0.449935
vt 0.822200 0.437612
vt 0.222524 0.318002
vt 0.252430 0.318002
vt 0.252430 0.342822
vt 0.222524 0.342823
vt 0.548424 0.215705
vt 0.539113 0.174723
vt 0.614988 0.174367
vt 0.614988 0.231405
vt 0.217992 0.318002
vt 0.217992 0.342823
vt 0.152408 0.342823
vt 0.152408 0.318003
vt 0.039167 0.342824
vt 0.004700 0.342824
vt 0.004700 0.318004
vt 0.039167 0.318004
vt 0.618937 0.231411
vt 0.618937 0.174367
vt 0.724013 0.174507
vt 0.719311 0.219760
vt 0.148178 0.318003
vt 0.148178 0.342823
vt 0.043316 0.342824
vt 0.043315 0.318004
vt 0.903128 0.180148
vt 0.927369 0.180148
vt 0.927369 0.225000
vt 0.903128 0.225000
vt 0.940131 0.259198
vt 0.940131 0.217822
vt 0.966754 0.217842
vt 0.966754 0.259177
vt 0.366967 0.353051
vt 0.327264 0.353050
vt 0.327264 0.588491
vt 0.366967 0.588050
vt 0.379078 0.353492
vt 0.379078 0.588491
vt 0.416799 0.588491
vt 0.416799 0.353492
vt 0.898539 0.802300
vt 0.898539 0.937865
vt 0.982858 0.937865
vt 0.982858 0.802300
vt 0.909695 0.640258
vt 0.909695 0.793216
vt 0.858833 0.793216
vt 0.837716 0.640258
vt 0.344765 0.214114
vt 0.344765 0.198233
vt 0.352321 0.198233
vt 0.352321 0.214114
vt 0.718880 0.566392
vt 0.718880 0.577340
vt 0.663640 0.577340
vt 0.663640 0.566392
vt 0.344765 0.278615
vt 0.337818 0.278615
vt 0.337818 0.220966
vt 0.344765 0.220966
vt 0.344765 0.214114
vt 0.344765 0.198233
vt 0.352321 0.198233
vt 0.352321 0.214114
vt 0.718880 0.566392
vt 0.718880 0.577348
vt 0.663640 0.577348
vt 0.663640 0.566392
vt 0.344765 0.278615
vt 0.337818 0.278615
vt 0.337818 0.220966
vt 0.344765 0.220966
vt 0.344765 0.214114
vt 0.344765 0.198233
vt 0.352321 0.198233
vt 0.352321 0.214114
vt 0.718880 0.566392
vt 0.718880 0.577340
vt 0.663640 0.577340
vt 0.663640 0.566392
vt 0.344765 0.278615
vt 0.337818 0.278615
vt 0.337818 0.220966
vt 0.344765 0.220966
vt 0.344765 0.214114
vt 0.344765 0.198233
vt 0.352321 0.198233
vt 0.352321 0.214114
vt 0.718880 0.566392
vt 0.718880 0.577340
vt 0.663640 0.577340
vt 0.663640 0.566392
vt 0.352321 0.278615
vt 0.344765 0.278615
vt 0.344765 0.220966
vt 0.352321 0.220966
vt 0.344765 0.214114
vt 0.344765 0.198233
vt 0.352321 0.198233
vt 0.352321 0.214114
vt 0.718880 0.523051
vt 0.718880 0.512095
vt 0.663640 0.512095
vt 0.663640 0.523051
vt 0.352321 0.278615
vt 0.344765 0.278615
vt 0.344765 0.220966
vt 0.352321 0.220966
vt 0.344765 0.214114
vt 0.344765 0.198233
vt 0.352321 0.198233
vt 0.352321 0.214114
vt 0.718880 0.566392
vt 0.718880 0.577348
vt 0.663640 0.577348
vt 0.663640 0.566392
vt 0.344765 0.278615
vt 0.337818 0.278615
vt 0.337818 0.220966
vt 0.344765 0.220966
vt 0.344765 0.214114
vt 0.344765 0.198233
vt 0.352321 0.198233
vt 0.352321 0.214114
vt 0.718880 0.512095
vt 0.718880 0.523043
vt 0.663640 0.523043
vt 0.663640 0.512095
vt 0.344765 0.278615
vt 0.337818 0.278615
vt 0.337818 0.220966
vt 0.344765 0.220966
vt 0.012331 0.666544
vt 0.012331 0.804441
vt 0.098324 0.804441
vt 0.098324 0.666544
vt 0.191925 0.666544
vt 0.191925 0.804441
vt 0.101219 0.804441
vt 0.101219 0.666544
vt 0.098324 0.666544
vt 0.098324 0.804441
vt 0.012331 0.804441
vt 0.012331 0.666544
vt 0.191925 0.666544
vt 0.191925 0.804441
vt 0.101219 0.804441
vt 0.101219 0.666544
vt 0.098324 0.666544
vt 0.098324 0.804441
vt 0.012331 0.804441
vt 0.012331 0.666544
vt 0.532867 0.042461
vt 0.598978 0.042461
vt 0.598978 0.053087
vt 0.532867 0.053087
vt 0.419370 0.294959
vt 0.428830 0.294959
vt 0.428830 0.307658
vt 0.419370 0.307658
vt 0.335441 0.304510
vt 0.335441 0.290040
vt 0.411557 0.290040
vt 0.411557 0.304510
vt 0.666138 0.010369
vt 0.782049 0.010369
vt 0.782049 0.020569
vt 0.666138 0.020569
vt 0.666138 0.020569
vt 0.782049 0.020569
vt 0.774929 0.037619
vt 0.680164 0.037619
vt 0.148911 0.658020
vt 0.079584 0.658020
vt 0.091062 0.371988
vt 0.141754 0.371988
vt 0.075851 0.657446
vt 0.006209 0.657579
vt 0.015836 0.371509
vt 0.067573 0.371023
vt 0.220275 0.658015
vt 0.150949 0.658015
vt 0.158795 0.374048
vt 0.209488 0.374048
vt 0.075851 0.657446
vt 0.006209 0.657579
vt 0.015836 0.371509
vt 0.067573 0.371023
vt 0.680428 0.047573
vt 0.775193 0.047573
vt 0.782314 0.064691
vt 0.666402 0.064691
vt 0.666402 0.010259
vt 0.782314 0.010259
vt 0.782314 0.020459
vt 0.666402 0.020459
vt 0.785814 0.009941
vt 0.933937 0.009941
vt 0.933937 0.055539
vt 0.785814 0.055539
vt 0.075851 0.657446
vt 0.006209 0.657579
vt 0.015836 0.371509
vt 0.067573 0.371023
vt 0.158795 0.374048
vt 0.209488 0.374048
vt 0.220275 0.658015
vt 0.150949 0.658015
vt 0.285147 0.589837
vt 0.220867 0.589908
vt 0.228473 0.382444
vt 0.279165 0.382443
vt 0.626187 0.030122
vt 0.626187 0.045600
vt 0.602803 0.044324
vt 0.602803 0.031397
vt 0.747745 0.621538
vt 0.758487 0.621538
vt 0.757601 0.658927
vt 0.748631 0.658927
vt 0.644185 0.019393
vt 0.655464 0.019393
vt 0.654534 0.058652
vt 0.645115 0.058652
vt 0.895930 0.588063
vt 0.906000 0.588063
vt 0.905170 0.623116
vt 0.896760 0.623116
vt 0.298591 0.359382
vt 0.287312 0.359382
vt 0.288242 0.320123
vt 0.297660 0.320123
vt 0.515009 0.180719
vt 0.526288 0.180719
vt 0.525358 0.219977
vt 0.515939 0.219977
vt 0.706710 0.240360
vt 0.715955 0.240360
vt 0.715193 0.272539
vt 0.707472 0.272540
vt 0.485384 0.217079
vt 0.474105 0.217079
vt 0.475035 0.177820
vt 0.484454 0.177820
vt 0.366967 0.353051
vt 0.366967 0.588050
vt 0.327264 0.588491
vt 0.327264 0.353050
vt 0.379078 0.353492
vt 0.416799 0.353492
vt 0.416799 0.588491
vt 0.379078 0.588491
vt 0.806737 0.804441
vt 0.838636 0.804441
vt 0.838636 0.669456
vt 0.806737 0.669425
vt 0.806737 0.669456
vt 0.838636 0.669425
vt 0.838636 0.804441
vt 0.806737 0.804441
vt 0.921721 0.792896
vt 0.913485 0.793216
vt 0.913485 0.640258
vt 0.921721 0.640631
vt 0.988452 0.640631
vt 0.996605 0.640258
vt 0.996605 0.793216
vt 0.988452 0.792896
vt 0.921721 0.640631
vt 0.988452 0.640631
vt 0.988452 0.792896
vt 0.921721 0.792896
vt 0.837716 0.640258
vt 0.858833 0.793216
vt 0.909695 0.793216
vt 0.909695 0.640258
vt 0.898539 0.802300
vt 0.982858 0.802300
vt 0.982858 0.937865
vt 0.898539 0.937865
vt 0.344765 0.214114
vt 0.344765 0.198233
vt 0.352321 0.198233
vt 0.352321 0.214114
vt 0.718880 0.566392
vt 0.718880 0.577348
vt 0.663640 0.577348
vt 0.663640 0.566392
vt 0.344765 0.278615
vt 0.337818 0.278615
vt 0.337818 0.220966
vt 0.344765 0.220966
vt 0.191925 0.666544
vt 0.191925 0.804441
vt 0.101219 0.804441
vt 0.101219 0.666544
vt 0.098324 0.666544
vt 0.098324 0.804441
vt 0.012331 0.804441
vt 0.012331 0.666544
vt 0.302823 0.393843
vt 0.302823 0.377961
vt 0.310387 0.377961
vt 0.310387 0.393842
vt 0.991638 0.324455
vt 0.991812 0.594050
vt 0.989386 0.594236
vt 0.989212 0.324455
vt 0.532867 0.042461
vt 0.598978 0.042461
vt 0.598978 0.053087
vt 0.532867 0.053087
vt 0.295689 0.378752
vt 0.295690 0.394633
vt 0.288126 0.394633
vt 0.288126 0.378752
vt 0.305306 0.406763
vt 0.315163 0.406763
vt 0.315163 0.589584
vt 0.305306 0.589584
vt 0.419370 0.294959
vt 0.428830 0.294959
vt 0.428830 0.307658
vt 0.419370 0.307658
vt 0.335441 0.304510
vt 0.335441 0.290040
vt 0.411557 0.290040
vt 0.411557 0.304510
vt 0.876549 0.812112
vt 0.893790 0.812112
vt 0.893790 0.870054
vt 0.876549 0.870054
vt 0.876549 0.940508
vt 0.876549 0.878025
vt 0.894239 0.878025
vt 0.894275 0.940413
vt 0.087733 0.812112
vt 0.087733 0.870054
vt 0.006368 0.812112
vt 0.006368 0.870054
vt 0.006368 0.941579
vt 0.006368 0.878025
vt 0.087733 0.878025
vt 0.087733 0.940868
vt 0.779736 0.812112
vt 0.872800 0.812112
vt 0.872800 0.870054
vt 0.779736 0.870054
vt 0.872800 0.940508
vt 0.779736 0.940868
vt 0.779736 0.878025
vt 0.872800 0.878025
vt 0.091899 0.870054
vt 0.091899 0.812112
vt 0.132493 0.812112
vt 0.132493 0.870054
vt 0.091899 0.940868
vt 0.091899 0.878025
vt 0.132493 0.878025
vt 0.132493 0.940869
vt 0.356572 0.870054
vt 0.356572 0.812112
vt 0.460015 0.812112
vt 0.460015 0.870054
vt 0.248145 0.870054
vt 0.248145 0.812112
vt 0.352436 0.812112
vt 0.352436 0.870054
vt 0.136826 0.870054
vt 0.136826 0.812112
vt 0.243639 0.812112
vt 0.243639 0.870054
vt 0.775195 0.870054
vt 0.675768 0.870054
vt 0.675768 0.812112
vt 0.775195 0.812112
vt 0.570601 0.870054
vt 0.570601 0.812112
vt 0.671922 0.812112
vt 0.671922 0.870054
vt 0.464556 0.870054
vt 0.464556 0.812112
vt 0.566866 0.812112
vt 0.566866 0.870054
vt 0.356572 0.940868
vt 0.356572 0.878025
vt 0.460015 0.878025
vt 0.460015 0.940868
vt 0.248145 0.940868
vt 0.248145 0.878025
vt 0.352436 0.878025
vt 0.352436 0.940868
vt 0.675768 0.940868
vt 0.675768 0.878025
vt 0.775195 0.878025
vt 0.775195 0.940868
vt 0.570601 0.940868
vt 0.570601 0.878025
vt 0.671922 0.878025
vt 0.671922 0.940868
vt 0.464556 0.940868
vt 0.464556 0.878025
vt 0.566866 0.878025
vt 0.566866 0.940868
vt 0.681448 0.342871
vt 0.715945 0.342871
vt 0.715945 0.495153
vt 0.681448 0.495153
vt 0.389565 0.669966
vt 0.337990 0.669966
vt 0.337990 0.598522
vt 0.389565 0.598522
vt 0.224651 0.669966
vt 0.224651 0.598522
vt 0.277498 0.598522
vt 0.277498 0.669966
vt 0.600155 0.669966
vt 0.554050 0.669966
vt 0.554050 0.598522
vt 0.600155 0.598522
vt 0.444496 0.598522
vt 0.444496 0.669966
vt 0.393544 0.669966
vt 0.393544 0.598522
vt 0.334103 0.598522
vt 0.334103 0.669966
vt 0.281881 0.669966
vt 0.281881 0.598522
vt 0.646261 0.598522
vt 0.646261 0.669966
vt 0.604473 0.669966
vt 0.604473 0.598522
vt 0.549931 0.598522
vt 0.549931 0.669966
vt 0.501391 0.669966
vt 0.501391 0.598522
vt 0.448858 0.669966
vt 0.448858 0.598522
vt 0.497524 0.598522
vt 0.497524 0.669966
vt 0.727863 0.804310
vt 0.651222 0.804310
vt 0.727863 0.626291
vt 0.651222 0.626535
vt 0.148911 0.658020
vt 0.079584 0.658020
vt 0.091062 0.371988
vt 0.141754 0.371988
vt 0.802527 0.804441
vt 0.732019 0.804310
vt 0.732019 0.709342
vt 0.802527 0.709342
vt 0.574357 0.709423
vt 0.574357 0.804441
vt 0.503485 0.804441
vt 0.503485 0.709423
vt 0.499095 0.709423
vt 0.499095 0.804441
vt 0.426954 0.804441
vt 0.426954 0.709423
vt 0.422344 0.709423
vt 0.422344 0.804441
vt 0.351108 0.804441
vt 0.351108 0.709423
vt 0.271126 0.804441
vt 0.196041 0.804441
vt 0.196041 0.709423
vt 0.271126 0.709423
vt 0.889363 0.404389
vt 0.880463 0.432104
vt 0.869896 0.373979
vt 0.874350 0.355227
vt 0.861576 0.358475
vt 0.334047 0.063553
vt 0.335624 0.025752
vt 0.395816 0.005608
vt 0.395816 0.063553
vt 0.490980 0.022708
vt 0.493196 0.063553
vt 0.243639 0.940868
vt 0.136826 0.940869
vt 0.243639 0.878025
vt 0.136826 0.878025
vt 0.136826 0.878025
vt 0.821476 0.455226
vt 0.827330 0.446069
vt 0.840944 0.508937
vt 0.818506 0.526201
vt 0.811457 0.450916
vt 0.827330 0.446069
vt 0.821476 0.455226
vt 0.798900 0.517688
vt 0.866261 0.379482
vt 0.867485 0.437853
vt 0.854312 0.438278
vt 0.855294 0.377452
vt 0.861497 0.358594
vt 0.843516 0.433334
vt 0.930580 0.307415
vt 0.930580 0.495153
vt 0.867715 0.174664
vt 0.715945 0.307415
vt 0.778810 0.174664
vt 0.778810 0.627904
vt 0.715945 0.495153
vt 0.867715 0.627904
vn 0.624954 0.613517 0.48273099999999997
vn 0.01409 -0.03625399999999994 0.999243
vn 0.188435 -0.855743 0.4818680000000001
vn 0.627373 -0.4310399999999999 0.648543
vn 0.748379 -0.556187 0.3613660000000001
vn 0.687379 0.725539 0.033230999999999955
vn 0.7138 0.697412 -0.06407100000000004
vn 0.7138 0.697412 -0.06407100000000004
vn 0.7138 0.697412 -0.06407100000000004
vn 0.205403 -0.693305 0.690752
vn -0.695536 -0.649292 0.30765200000000004
vn 0.353794 -0.933159 0.06358800000000006
vn -0.907934 0.17639300000000002 0.380186
vn -0.942233 -0.32786 0.06859800000000002
vn -0.48371 -0.849831 0.20931400000000006
vn 0.000138 0.604596 0.796532
vn 0.000138 0.604596 0.796532
vn 0.000138 0.604596 0.796532
vn -0.595994 0.0012870000000000492 0.802988
vn -0.595994 0.0012870000000000492 0.802988
vn -0.595994 0.0012870000000000492 0.802988
vn -0.423974 -0.42398299999999994 0.800303
vn -0.423974 -0.42398299999999994 0.800303
vn -0.423974 -0.42398299999999994 0.800303
vn 2.4E-05 -0.607292 0.794479
vn 2.4E-05 -0.607292 0.794479
vn 2.4E-05 -0.607292 0.794479
vn 0.43405 -0.43405099999999996 0.789431
vn 0.43405 -0.43405099999999996 0.789431
vn 0.43405 -0.43405099999999996 0.789431
vn 0.61612 0.0014300000000000482 0.787651
vn 0.61612 0.0014300000000000482 0.787651
vn 0.61612 0.0014300000000000482 0.787651
vn 0.433075 0.43306600000000006 0.790507
vn 0.433075 0.43306600000000006 0.790507
vn 0.433075 0.43306600000000006 0.790507
vn 0.904384 0.426714 -0.002112000000000026
vn 0.904384 0.426714 -0.002112000000000026
vn 0.904384 0.426714 -0.002112000000000026
vn -0.386777 -0.922171 0.0018670000000000563
vn -0.386777 -0.922171 0.0018670000000000563
vn -0.386777 -0.922171 0.0018670000000000563
vn -0.941879 0.331204 0.05627699999999998
vn -0.215981 0.814354 0.538683
vn -0.457004 0.745303 0.4854589999999999
vn -0.861073 -0.262956 0.435209
vn -0.922404 0.382071 0.05650299999999998
vn -0.68528 -0.502369 0.527273
vn 0.922404 -0.382072 0.05650300000000002
vn 0.129337 -0.839795 0.527273
vn 0.422933 -0.794809 0.43520900000000007
vn 0.422933 0.794809 0.43520899999999996
vn 0.922404 0.382072 0.056501999999999976
vn 0.129337 0.839795 0.527273
vn -0.922403 -0.382072 0.05650500000000002
vn -0.68528 0.502369 0.527273
vn -0.861073 0.262955 0.43521
vn -0.422933 -0.794809 0.43520800000000004
vn -0.922403 -0.382073 0.05650200000000002
vn -0.129339 -0.839795 0.527272
vn 0.922403 0.382072 0.05650299999999998
vn 0.685279 -0.50237 0.527273
vn 0.861073 -0.262957 0.43521
vn -0.262956 0.861073 0.43520899999999996
vn 0.382072 0.922404 0.05650199999999994
vn -0.50237 0.68528 0.527273
vn -0.382072 -0.922404 0.056504000000000054
vn -0.839795 -0.12933799999999998 0.527273
vn -0.794808 -0.422933 0.435209
vn 0.262956 -0.861073 0.43520900000000007
vn -0.382071 -0.922404 0.056504000000000054
vn 0.502369 -0.68528 0.527273
vn 0.382072 0.922403 0.05650399999999994
vn 0.839795 0.12933700000000004 0.527273
vn 0.794809 0.422932 0.435209
vn -0.794809 0.422933 0.435208
vn -0.382072 0.922404 0.05650199999999994
vn -0.839795 0.12933700000000004 0.527273
vn 0.382072 -0.922403 0.056505000000000055
vn -0.502369 -0.68528 0.527273
vn -0.262956 -0.861073 0.43521000000000004
vn 0.707018 -0.549664 0.44496700000000006
vn 0.361728 -0.930574 0.05643200000000006
vn 0.804111 -0.23790699999999998 0.544798
vn 0.707107 0.707106 -4.3297754977894416E-17
vn 0.707107 0.707106 -4.3297754977894416E-17
vn 0.707107 0.707106 -4.3297754977894416E-17
vn 1 0 0
vn 0.709843 0.70436 -4.3129610972371485E-17
vn 0.709843 0.70436 -4.3129610972371485E-17
vn 0.708296 4.322488849334515E-17 0.705916
vn 0.708296 4.322488849334515E-17 0.705916
vn 0.708296 4.322488849334515E-17 0.705916
vn 0.500841 0.50084 0.705916
vn 0.500841 0.50084 0.705916
vn 0.500841 0.50084 0.705916
vn 0 0.708296 0.705916
vn 0 0.708296 0.705916
vn 0 0.708296 0.705916
vn -0.50084 0.500841 0.705916
vn -0.50084 0.500841 0.705916
vn -0.50084 0.500841 0.705916
vn -0.708295 4.322488849334515E-17 0.705916
vn -0.708295 4.322488849334515E-17 0.705916
vn -0.708295 4.322488849334515E-17 0.705916
vn -0.500841 -0.50084 0.705916
vn -0.500841 -0.50084 0.705916
vn -0.500841 -0.50084 0.705916
vn 0 -0.708296 0.705916
vn 0 -0.708296 0.705916
vn 0 -0.708296 0.705916
vn 0.50084 -0.500841 0.705916
vn 0.50084 -0.500841 0.705916
vn 0.50084 -0.500841 0.705916
vn -0.789352 0.613941 0.00026399999999996245
vn -0.789352 0.613941 0.00026399999999996245
vn -0.789352 0.613941 0.00026399999999996245
vn -0.282893 0.28172200000000003 0.916845
vn -0.282893 0.28172200000000003 0.916845
vn -0.282893 0.28172200000000003 0.916845
vn -0.280084 0.28007100000000007 0.918212
vn -0.280084 0.28007100000000007 0.918212
vn -0.280084 0.28007100000000007 0.918212
vn -0.999993 -0.002686 0.002455
vn -0.999993 -0.002686 0.002455
vn -0.999993 -0.002686 0.002455
vn -0.999994 0.002138 -0.002859
vn -0.999994 0.002138 -0.002859
vn -0.999994 0.002138 -0.002859
vn 0.999994 -0.002329 0.002557
vn 0.999994 -0.002329 0.002557
vn 0.999994 -0.002329 0.002557
vn 0.999994 0.002329 -0.002573
vn 0.999994 0.002329 -0.002573
vn 0.999994 0.002329 -0.002573
vn 0.205403 -0.693305 0.690752
vn 0.353794 -0.933159 0.06358800000000006
vn 0.69075 -0.553399 0.46541800000000005
vn 0.010024 0.19898600000000005 0.979951
vn 0.205403 -0.693305 0.690752
vn -0.806922 0.22207900000000003 0.547319
vn 0.205403 -0.693305 0.690752
vn -0.695536 -0.649292 0.30765200000000004
vn 0.010024 0.19898600000000005 0.979951
vn -0.747076 0.630655 0.21012199999999998
vn -0.931832 0.361325 -0.03365700000000002
vn -0.806922 0.22207900000000003 0.547319
vn -0.695536 -0.649292 0.30765200000000004
vn -0.806922 0.22207900000000003 0.547319
vn 0.917502 -0.354588 0.18016100000000002
vn -0.08945 0.97923 0.18195499999999995
vn 0.624954 0.613517 0.48273099999999997
vn 0.624954 0.613517 0.48273099999999997
vn 0.188435 -0.855743 0.4818680000000001
vn 0.652873 -0.751264 0.09674800000000004
vn 0.672223 0.713124 0.19892299999999993
vn 0.878665 -0.002933999999999971 0.47743
vn 0.878665 -0.002933999999999971 0.47743
vn 0.06494 -0.889054 0.4531740000000001
vn 0.878665 -0.002933999999999971 0.47743
vn -0.076923 0.049576000000000064 0.995804
vn 0.06494 -0.889054 0.4531740000000001
vn -0.898026 -0.12123899999999997 0.422907
vn 0.06494 -0.889054 0.4531740000000001
vn -0.601905 -0.784316 0.15019900000000005
vn 0.652873 -0.751264 0.09674800000000004
vn -0.934237 0.325183 0.14647999999999997
vn -0.299756 0.870503 0.39034699999999994
vn -0.076923 0.049576000000000064 0.995804
vn -0.448812 0.884268 0.12898999999999994
vn 0.672223 0.713124 0.19892299999999993
vn 0.878665 -0.002933999999999971 0.47743
vn 0.672223 0.713124 0.19892299999999993
vn -0.076923 0.049576000000000064 0.995804
vn -0.907934 0.17639300000000002 0.380186
vn -0.48371 -0.849831 0.20931400000000006
vn -0.128074 0.639469 0.758074
vn -0.047028 -0.49658899999999995 0.866711
vn -0.48371 -0.849831 0.20931400000000006
vn -0.48371 -0.849831 0.20931400000000006
vn 0.447944 -0.894049 0.004832000000000055
vn 0.724191 -0.68936 -0.01816899999999996
vn 0.732818 0.599239 0.32231899999999997
vn 0.902099 -0.23641299999999998 0.361008
vn -0.128074 0.639469 0.758074
vn -0.047028 -0.49658899999999995 0.866711
vn 0.008492 0.873221 0.48725099999999993
vn -0.907934 0.17639300000000002 0.380186
vn 0.391365 0.920236 -3.000000000056348E-06
vn 0.175025 0.4115440000000001 0.894426
vn 0.350048 0.823085 0.44721099999999997
vn 0.350048 0.823085 0.44721099999999997
vn 0.391365 0.920236 -5.0000000000563484E-06
vn 0.175025 0.4115440000000001 0.894426
vn -0.330885 -0.830968 0.44722100000000004
vn -0.165442 -0.41548199999999996 0.894429
vn -0.165442 -0.41548199999999996 0.894429
vn 0.350048 0.823085 0.44721099999999997
vn -0.394485 -0.918902 -2.9999999999437334E-06
vn -0.176422 -0.4109479999999999 0.894426
vn -0.352839 -0.821892 0.4472110000000001
vn -0.352839 -0.821892 0.4472110000000001
vn -0.394485 -0.918903 -1.999999999943733E-06
vn -0.176422 -0.4109479999999999 0.894426
vn 0.333734 0.829828 0.4472209999999999
vn 0.166865 0.41491300000000003 0.894429
vn 0.166865 0.41491300000000003 0.894429
vn -0.352839 -0.821892 0.4472110000000001
vn 0.927272 0.374389 -3.0000000000229246E-06
vn 0.414693 0.16743300000000005 0.894425
vn 0.829379 0.334864 0.44721
vn 0.829379 0.334864 0.44721
vn 0.927272 0.374389 -4.000000000022925E-06
vn 0.414693 0.16743300000000005 0.894425
vn -0.821405 -0.353957 0.447223
vn -0.410698 -0.17697799999999994 0.89443
vn -0.410698 -0.17697799999999994 0.89443
vn 0.829379 0.334864 0.44721
vn 0.92056 -0.390601 -3.999999999976082E-06
vn 0.411689 -0.17468399999999995 0.894426
vn 0.823375 -0.349365 0.44721
vn 0.823375 -0.349365 0.44721
vn 0.92056 -0.390602 -5.9999999999760825E-06
vn -0.918572 0.395254 -4.000000000024202E-06
vn -0.410801 0.17676600000000006 0.894425
vn -0.821597 0.353527 0.44721
vn -0.821597 0.353527 0.44721
vn -0.918572 0.395254 -4.000000000024202E-06
vn 1E-06 -2.9999999999387676E-06 1
vn -0.350987 0.822678 0.4472229999999999
vn -0.175493 0.41133700000000006 0.89443
vn -0.175493 0.41133700000000006 0.89443
vn 0 -1.9999999999387675E-06 1
vn -1E-06 6.000000000061232E-06 1
vn 0.353422 -0.821637 0.44722100000000004
vn 0.17671 -0.41081399999999996 0.89443
vn 0.17671 -0.41081399999999996 0.89443
vn -1E-06 7.000000000061232E-06 1
vn -0.707107 -0.707107 4.329781621023438E-17
vn -0.707107 -0.707107 4.329781621023438E-17
vn -0.316228 -0.948683 5.809007996777542E-17
vn -0.316228 -0.948683 5.809007996777542E-17
vn 0.316226 -0.948684 5.809014120011538E-17
vn 0.707107 -0.707107 -4.999999999956703E-06
vn 0.31623 -0.31623099999999993 0.894425
vn 0.632457 -0.632457 0.4472090000000001
vn 0.632457 -0.632457 0.4472090000000001
vn 0.707107 -0.707107 -5.999999999956702E-06
vn 0.31623 -0.31623099999999993 0.894425
vn -0.632453 0.632452 0.4472209999999999
vn -0.316225 0.31622300000000003 0.89443
vn -0.316225 0.31622300000000003 0.89443
vn 0.632457 -0.632457 0.4472090000000001
vn -0.928875 -0.370393 -3.99999999997732E-06
vn -0.41541 -0.16564499999999993 0.894425
vn -0.830813 -0.331289 0.44721
vn -0.830813 -0.331289 0.44721
vn -0.928875 -0.370393 -3.99999999997732E-06
vn -0.41541 -0.16564499999999993 0.894425
vn 0.822912 0.350441 0.447221
vn 0.411453 0.17522000000000004 0.89443
vn 0.411453 0.17522000000000004 0.89443
vn -0.830813 -0.331289 0.44721
vn -0.928396 0.08373999999999997 -0.362034
vn -0.928395 0.08374499999999997 -0.362036
vn -0.899182 -0.399389 -0.17877299999999996
vn -0.899182 -0.399389 -0.17877299999999996
vn -0.207355 -0.942284 0.26287900000000003
vn -0.707109 0.707105 -4.329769374555446E-17
vn -0.707109 0.707105 -4.329769374555446E-17
vn -0.948684 0.316226 -1.9363257935358545E-17
vn -0.948684 0.316226 -1.9363257935358545E-17
vn -0.948684 -0.316226 1.9363257935358545E-17
vn -0.707107 -0.707107 -4.999999999956703E-06
vn -0.707107 -0.707107 -3.999999999956702E-06
vn -0.632457 -0.632457 0.44721000000000005
vn -0.632457 -0.632457 0.44721000000000005
vn -0.316229 -0.3162289999999999 0.894426
vn -0.316229 -0.3162289999999999 0.894426
vn -0.632457 -0.632457 0.44721000000000005
vn 0.499997 0.49999800000000005 0.70711
vn 0.499997 0.49999800000000005 0.70711
vn 0.499996 0.4999970000000001 0.707111
vn 0.707107 -0.707107 -4.999999999956703E-06
vn 0.316229 -0.31623099999999993 0.894426
vn 0.632457 -0.632457 0.44721000000000005
vn 0.632457 -0.632457 0.44721000000000005
vn 0.707107 -0.707107 -5.999999999956702E-06
vn 0.316229 -0.31623099999999993 0.894426
vn -0.632453 0.632452 0.44722199999999995
vn -0.316225 0.31622400000000006 0.894429
vn -0.316225 0.31622400000000006 0.894429
vn 0.632457 -0.632457 0.44721000000000005
vn -0.08945 0.97923 0.18195499999999995
vn -0.821578 -0.51198 0.25077200000000005
vn -0.833908 0.18388000000000002 0.52037
vn 0.624954 0.613517 0.48273099999999997
vn -0.08945 0.97923 0.18195499999999995
vn 0.01409 -0.03625399999999994 0.999243
vn 0.968461 -0.236757 0.07764800000000001
vn 0.917096 -0.355651 -0.18013199999999996
vn 0.982608 0.182492 -0.034312000000000016
vn 0.982608 0.182492 -0.034312000000000016
vn 0.584657 0.686937 0.4316169999999999
vn 0.584657 0.686937 0.4316169999999999
vn 0.547997 0.500597 0.670151
vn 0.687379 0.725539 0.033230999999999955
vn -0.898533 0.409203 0.15872099999999997
vn -0.104158 0.751324 0.651662
vn 0.627373 -0.4310399999999999 0.648543
vn 0.724191 -0.68936 -0.01816899999999996
vn 0.902099 -0.23641299999999998 0.361008
vn -0.48371 -0.849831 0.20931400000000006
vn -0.047028 -0.49658899999999995 0.866711
vn 0.958725 0.22882 0.16878299999999996
vn 0.95614 0.236468 0.17285399999999998
vn 0.958725 0.22882 0.16878299999999996
vn 0.961231 0.221153 0.164699
vn -0.213157 0.967861 0.13345399999999993
vn -0.221385 0.962396 0.15742399999999995
vn -0.548122 0.81903 0.16956399999999994
vn -0.845686 0.509335 0.15935099999999996
vn 0.159612 -0.13779799999999995 0.977515
vn 0.161803 -0.17145699999999994 0.971814
vn 0.162342 -0.12380199999999994 0.978937
vn 0.13395 -0.09079199999999994 0.98682
vn -0.075246 -0.983847 0.16242900000000005
vn -0.078092 -0.983877 0.16089900000000004
vn -0.075246 -0.983847 0.16242900000000005
vn -0.072399 -0.983807 0.16395800000000005
vn -0.845686 0.509335 0.15935099999999996
vn -0.548122 0.81903 0.16956399999999994
vn -0.975446 0.16274 0.148392
vn -0.976952 0.168903 0.130527
vn 0.13395 -0.09079199999999994 0.98682
vn 0.162342 -0.12380199999999994 0.978937
vn 0.122258 -0.08416599999999995 0.988923
vn 0.07654 -0.07239199999999994 0.994435
vn -0.690922 -0.69092 0.21273700000000006
vn -0.690924 -0.690918 0.21273400000000006
vn -0.690922 -0.69092 0.21273700000000006
vn -0.690919 -0.690921 0.21274000000000007
vn 0.50234 0.502337 0.703784
vn 0.502341 0.502337 0.703784
vn 0.50234 0.502337 0.703784
vn 0.502339 0.502337 0.703785
vn -0.21644 -0.976296 5.978088857101822E-17
vn -0.21644 -0.976296 5.978088857101822E-17
vn -0.21644 -0.976296 5.978088857101822E-17
vn -0.21644 -0.976296 5.978088857101822E-17
vn 0.21644 0.976296 -5.978088857101822E-17
vn 0.21644 0.976296 -5.978088857101822E-17
vn 0.21644 0.976296 -5.978088857101822E-17
vn 0.21644 0.976296 -5.978088857101822E-17
vn -0.589256 0.589256 0.55277
vn -0.589256 0.589256 0.55277
vn -0.589256 0.589256 0.55277
vn -0.589256 0.589256 0.55277
vn -0.707107 0.707107 -4.329781621023438E-17
vn -0.707107 0.707107 -4.329781621023438E-17
vn -0.707107 0.707107 -4.329781621023438E-17
vn -0.707107 0.707107 -4.329781621023438E-17
vn 0.923883 -0.382676 6.0000000000234325E-06
vn 0.923881 -0.382681 2.0000000000234322E-06
vn 0.923883 -0.382676 6.0000000000234325E-06
vn 0.923883 -0.382676 6.0000000000234325E-06
vn 0.907392 -0.375853 -0.18807899999999997
vn 0.907394 -0.37585 -0.18807899999999997
vn 0.907392 -0.375853 -0.18807899999999997
vn 0.907391 -0.375857 -0.18807899999999997
vn -0.330885 -0.830968 0.44722100000000004
vn -0.369943 -0.929055 9.000000000056889E-06
vn -0.369943 -0.929055 9.000000000056889E-06
vn -0.165442 -0.41548199999999996 0.894429
vn -0.923879 0.382685 -4.000000000023432E-06
vn -0.923881 0.38268 -2.3432391854885458E-17
vn -0.923879 0.382685 -4.000000000023432E-06
vn -0.923879 0.382685 -4.000000000023432E-06
vn -0.907251 0.375796 -0.18887500000000002
vn -0.907252 0.375792 -0.18887600000000002
vn -0.907251 0.375796 -0.18887500000000002
vn -0.907249 0.375799 -0.18887500000000002
vn 0.333734 0.829828 0.4472209999999999
vn 0.373129 0.927779 9.99999999994319E-06
vn 0.373129 0.927779 9.99999999994319E-06
vn 0.166865 0.41491300000000003 0.894429
vn 0.382689 -0.923877 2.000000000056571E-06
vn 0.382688 -0.923878 1.0000000000565712E-06
vn 0.382689 -0.923877 2.000000000056571E-06
vn 0.382689 -0.923877 2.000000000056571E-06
vn 0.375802 -0.907266 -0.18878699999999995
vn 0.375806 -0.907265 -0.18878699999999995
vn 0.375802 -0.907266 -0.18878699999999995
vn 0.375799 -0.907268 -0.18878599999999995
vn -0.821405 -0.353957 0.447223
vn -0.918364 -0.395737 1.1000000000024232E-05
vn -0.918364 -0.395737 1.2000000000024232E-05
vn -0.410698 -0.17697799999999994 0.89443
vn -0.382679 -0.923881 4.0000000000565715E-06
vn -0.382682 -0.92388 2.000000000056571E-06
vn -0.382679 -0.923881 4.0000000000565715E-06
vn -0.382679 -0.923881 4.0000000000565715E-06
vn -0.375784 -0.907224 -0.18902699999999995
vn -0.37578 -0.907226 -0.18902699999999995
vn -0.375784 -0.907224 -0.18902699999999995
vn -0.375789 -0.907222 -0.18902599999999994
vn 0.411689 -0.17468399999999995 0.894426
vn 4E-06 -2.9999999999387676E-06 1
vn 3E-06 -1.9999999999387675E-06 1
vn 0.823375 -0.349365 0.44721
vn 0.382678 0.923882 3.999999999943428E-06
vn 0.382685 0.923879 -1.0000000000565712E-06
vn 0.382678 0.923882 3.999999999943428E-06
vn 0.382678 0.923882 3.999999999943428E-06
vn 0.375868 0.907418 -0.18792700000000007
vn 0.375864 0.907419 -0.18792800000000007
vn 0.375868 0.907418 -0.18792700000000007
vn 0.375871 0.907416 -0.18792700000000007
vn -0.410801 0.17676600000000006 0.894425
vn -3E-06 3.0000000000612325E-06 1
vn -4E-06 3.0000000000612325E-06 1
vn -0.821597 0.353527 0.44721
vn -0.923879 -0.382685 2.0000000000234327E-06
vn -0.923878 -0.382686 3.000000000023433E-06
vn -0.923879 -0.382685 2.0000000000234327E-06
vn -0.923879 -0.382685 2.0000000000234327E-06
vn -0.906998 -0.375693 -0.19028899999999999
vn -0.906996 -0.375697 -0.19028899999999999
vn -0.906998 -0.375693 -0.19028899999999999
vn -0.907 -0.375688 -0.19028799999999998
vn -0.350987 0.822678 0.4472229999999999
vn -0.392417 0.919787 1.0999999999943679E-05
vn -0.392417 0.919787 1.199999999994368E-05
vn -0.175493 0.41133700000000006 0.89443
vn 0.923879 0.382685 9.999999999765672E-07
vn 0.92388 0.382683 -2.3432575551905327E-17
vn 0.923879 0.382685 9.999999999765672E-07
vn 0.923879 0.382685 9.999999999765672E-07
vn 0.907641 0.375959 -0.18666400000000002
vn 0.90764 0.37596 -0.18666400000000002
vn 0.907641 0.375959 -0.18666400000000002
vn 0.907641 0.375958 -0.18666300000000002
vn 0.353422 -0.821637 0.44722100000000004
vn 0.395138 -0.918622 8.00000000005625E-06
vn 0.395139 -0.918622 9.00000000005625E-06
vn 0.17671 -0.41081399999999996 0.89443
vn 0.036481 0.99929 0.009377999999999938
vn 0.036218 0.999297 0.00966499999999994
vn 0.036481 0.99929 0.009377999999999938
vn 0.036481 0.99929 0.009377999999999938
vn -0.707075 0.707075 0.009527999999999957
vn -0.707075 0.707075 0.009527999999999957
vn -0.707075 0.707075 0.009527999999999957
vn -0.707075 0.707075 0.009527999999999957
vn -0.999955 5.83421735113799E-19 0.009528
vn -0.999955 5.83421735113799E-19 0.009528
vn -0.999955 5.83421735113799E-19 0.009528
vn -0.999955 5.83421735113799E-19 0.009528
vn -0.707075 -0.707075 0.009528000000000043
vn -0.707075 -0.707075 0.009528000000000043
vn -0.707075 -0.707075 0.009528000000000043
vn -0.707075 -0.707075 0.009528000000000043
vn -0 -0.999955 0.00952800000000006
vn -0 -0.999955 0.00952800000000006
vn -0 -0.999955 0.00952800000000006
vn -0 -0.999955 0.00952800000000006
vn 0.316226 -0.948684 5.809014120011538E-17
vn -0.316228 -0.948683 5.809007996777542E-17
vn 0.707105 -0.707109 4.329793867491429E-17
vn 0.707105 -0.707109 4.329793867491429E-17
vn -0.707104 -0.70711 4.000000000043298E-06
vn -0.707108 -0.707106 -9.999999999567022E-07
vn -0.707104 -0.70711 4.000000000043298E-06
vn -0.707104 -0.70711 4.000000000043298E-06
vn -0.632453 0.632452 0.4472209999999999
vn -0.707107 0.707107 7.999999999956701E-06
vn -0.707107 0.707107 8.999999999956702E-06
vn -0.316225 0.31622300000000003 0.89443
vn 0.555946 -0.555946 0.617939
vn 0.555946 -0.555946 0.617938
vn 0.555946 -0.555946 0.617939
vn 0.555946 -0.555946 0.617939
vn 0.707107 0.707107 -4.329781621023438E-17
vn 0.707107 0.707106 -4.3297754977894416E-17
vn 0.707107 0.707107 -4.329781621023438E-17
vn 0.707106 0.707107 -4.329781621023438E-17
vn -0.700218 -0.700217 0.13925000000000007
vn -0.700218 -0.700217 0.13925000000000007
vn -0.700218 -0.700217 0.13925000000000007
vn -0.700218 -0.700217 0.13925000000000007
vn -0 -0.991623 0.12916400000000006
vn -0 -0.991623 0.12916400000000006
vn -0 -0.991623 0.12916400000000006
vn -0 -0.991623 0.12916400000000006
vn 0.701994 -0.701995 0.12003300000000004
vn 0.701994 -0.701995 0.12003300000000004
vn 0.701994 -0.701995 0.12003300000000004
vn 0.701994 -0.701995 0.12003300000000004
vn 0.993104 7.178818304261826E-18 0.117239
vn 0.993104 7.178818304261826E-18 0.117239
vn 0.993104 7.178818304261826E-18 0.117239
vn 0.993104 7.178818304261826E-18 0.117239
vn -0.707107 -0.707107 4.329781621023438E-17
vn -0.707107 -0.707107 4.329781621023438E-17
vn -0.707107 -0.707107 4.329781621023438E-17
vn -0.707107 -0.707107 4.329781621023438E-17
vn 0.555946 -0.555946 0.617939
vn 0.555946 -0.555946 0.617939
vn 0.555946 -0.555946 0.617939
vn 0.555946 -0.555946 0.617939
vn 0.555946 -0.555946 0.617939
vn 0.555946 -0.555946 0.617939
vn 0.555946 -0.555946 0.617939
vn 0.555946 -0.555946 0.617939
vn 0 0.991176 0.13254899999999994
vn 1E-06 0.991176 0.13254899999999994
vn 0 0.991176 0.13254899999999994
vn 0 0.991176 0.13254899999999994
vn -0.989519 8.842072354523805E-18 0.144402
vn -0.989519 8.842072354523805E-18 0.144402
vn -0.989519 8.842072354523805E-18 0.144402
vn -0.989519 8.842072354523805E-18 0.144402
vn -0.699904 0.699905 0.14236199999999993
vn -0.700426 0.699448 0.14204099999999995
vn -0.699904 0.699905 0.14236199999999993
vn -0.699904 0.699905 0.14236199999999993
vn 0.224004 0.773213 0.593266
vn -0.457004 0.745303 0.4854589999999999
vn -0.215981 0.814354 0.538683
vn 0.148004 0.819926 0.553007
vn -0.68528 -0.502369 0.527273
vn 0.422933 -0.794809 0.43520900000000007
vn 0.129337 -0.839795 0.527273
vn -0.861073 -0.262956 0.435209
vn 0.129337 0.839795 0.527273
vn -0.861073 0.262955 0.43521
vn -0.68528 0.502369 0.527273
vn 0.422933 0.794809 0.43520899999999996
vn -0.129339 -0.839795 0.527272
vn 0.861073 -0.262957 0.43521
vn 0.685279 -0.50237 0.527273
vn -0.422933 -0.794809 0.43520800000000004
vn -0.50237 0.68528 0.527273
vn -0.794808 -0.422933 0.435209
vn -0.839795 -0.12933799999999998 0.527273
vn -0.262956 0.861073 0.43520899999999996
vn 0.502369 -0.68528 0.527273
vn 0.794809 0.422932 0.435209
vn 0.839795 0.12933700000000004 0.527273
vn 0.262956 -0.861073 0.43520900000000007
vn -0.839795 0.12933700000000004 0.527273
vn -0.262956 -0.861073 0.43521000000000004
vn -0.502369 -0.68528 0.527273
vn -0.794809 0.422933 0.435208
vn 0.804111 -0.23790699999999998 0.544798
vn 0.759876 0.31475200000000003 0.568788
vn 0.76617 0.18882600000000002 0.61427
vn 0.707018 -0.549664 0.44496700000000006
vn -0.953717 0.300705 -1.8412870786880243E-17
vn -0.953717 0.300706 -1.8412932019220197E-17
vn -0.953717 0.300705 -1.8412870786880243E-17
vn -0.953717 0.300705 -1.8412870786880243E-17
vn 0.953717 -0.300705 1.8412870786880243E-17
vn 0.953717 -0.300705 1.8412870786880243E-17
vn 0.953717 -0.300705 1.8412870786880243E-17
vn 0.953717 -0.300705 1.8412870786880243E-17
vn 0.707106 -0.707107 4.329781621023438E-17
vn 0.707106 -0.707107 4.329781621023438E-17
vn 0.707106 -0.707107 4.329781621023438E-17
vn 0.707106 -0.707107 4.329781621023438E-17
vn -0.707106 0.707107 -4.329781621023438E-17
vn -0.707106 0.707107 -4.329781621023438E-17
vn -0.707106 0.707107 -4.329781621023438E-17
vn -0.707106 0.707107 -4.329781621023438E-17
vn 0.707108 0.707105 -4.329769374555446E-17
vn 0.707107 0.707107 -4.329781621023438E-17
vn 0.707108 0.707105 -4.329769374555446E-17
vn 0.70711 0.707104 -4.32976325132145E-17
vn 0.707108 0.707105 -4.329769374555446E-17
vn 0.70711 0.707104 -4.32976325132145E-17
vn 0.707108 0.707105 -4.329769374555446E-17
vn 0.707107 0.707107 -4.329781621023438E-17
vn 0.707107 0.707107 -4.329781621023438E-17
vn 0.707107 0.707107 -4.329781621023438E-17
vn 0.707107 0.707107 -4.329781621023438E-17
vn 0.707107 0.707107 -4.329781621023438E-17
vn 0.707107 -0.707107 4.329781621023438E-17
vn 0.707107 -0.707107 4.329781621023438E-17
vn 0.707107 -0.707107 4.329781621023438E-17
vn 0.707107 -0.707107 4.329781621023438E-17
vn 0.589256 -0.589256 0.55277
vn 0.589256 -0.589256 0.55277
vn 0.589256 -0.589256 0.55277
vn 0.589256 -0.589256 0.55277
vn -0.382684 0.923879 -1.0000000000565712E-06
vn -0.382686 0.923879 -5.657127300747288E-17
vn -0.382684 0.923879 -1.0000000000565712E-06
vn -0.382684 0.923879 -1.0000000000565712E-06
vn -0.375846 0.907377 -0.18816700000000006
vn -0.375849 0.907376 -0.18816700000000006
vn -0.375846 0.907377 -0.18816700000000006
vn -0.375844 0.907378 -0.18816700000000006
vn 0.822912 0.350441 0.447221
vn 0.920048 0.391806 7.999999999976008E-06
vn 0.920048 0.391806 8.999999999976009E-06
vn 0.411453 0.17522000000000004 0.89443
vn 0.707075 -0.707074 0.009529000000000043
vn 0.707075 -0.707075 0.009528000000000043
vn 0.707075 -0.707074 0.009529000000000043
vn 0.707075 -0.707074 0.009529000000000043
vn 0.999145 0.040202 0.009679999999999998
vn 0.999159 0.039909 0.009362999999999998
vn 0.999145 0.040202 0.009679999999999998
vn 0.999145 0.040202 0.009679999999999998
vn 0.707107 -0.707107 4.329781621023438E-17
vn 0.707107 -0.707107 4.329781621023438E-17
vn 0.707107 -0.707107 4.329781621023438E-17
vn 0.707107 -0.707107 4.329781621023438E-17
vn -0.207355 -0.942284 0.26287900000000003
vn -0.899182 -0.399389 -0.17877299999999996
vn 0.282702 -0.866641 0.41111200000000003
vn 0.282704 -0.86664 0.41111300000000006
vn -0.948684 -0.316226 1.9363257935358545E-17
vn -0.948684 0.316226 -1.9363257935358545E-17
vn -0.707109 -0.707105 4.329769374555446E-17
vn -0.707108 -0.707106 4.3297754977894416E-17
vn -0.707108 0.707106 1.999999999956702E-06
vn -0.707108 0.707106 1.999999999956702E-06
vn -0.707108 0.707106 1.999999999956702E-06
vn -0.707108 0.707106 1.999999999956702E-06
vn 0.499997 0.49999800000000005 0.70711
vn 0.707107 0.707107 4.999999999956703E-06
vn 0.707107 0.707107 8.999999999956702E-06
vn 0.499996 0.4999970000000001 0.707111
vn -0.707105 -0.707109 4.329793867491429E-17
vn -0.707104 -0.70711 2.000000000043298E-06
vn -0.707105 -0.707109 4.329793867491429E-17
vn -0.707105 -0.707109 4.329793867491429E-17
vn -0.632453 0.632452 0.44722199999999995
vn -0.707107 0.707107 8.999999999956702E-06
vn -0.707107 0.707106 9.999999999956704E-06
vn -0.316225 0.31622400000000006 0.894429
vn 0.707165 0.707048 -4.329420350217689E-17
vn 0.707165 0.707048 -4.329420350217689E-17
vn 0.707165 0.707048 -4.329420350217689E-17
vn 0.707165 0.707048 -4.329420350217689E-17
vn -0.707165 -0.707048 4.329420350217689E-17
vn -0.707165 -0.707048 4.329420350217689E-17
vn -0.707165 -0.707048 4.329420350217689E-17
vn -0.707165 -0.707048 4.329420350217689E-17
vn 0.709843 0.70436 -4.3129610972371485E-17
vn 0.709843 0.70436 -4.3129610972371485E-17
vn 0.709843 0.70436 -4.3129610972371485E-17
vn 0.709843 0.70436 -4.3129610972371485E-17
vn -0.709843 -0.70436 4.3129610972371485E-17
vn -0.709843 -0.70436 4.3129610972371485E-17
vn -0.709843 -0.70436 4.3129610972371485E-17
vn -0.709843 -0.70436 4.3129610972371485E-17
vn -1.3E-05 1 -6.123233995736766E-17
vn -1.3E-05 1 -6.123233995736766E-17
vn -1.3E-05 1 -6.123233995736766E-17
vn -1.3E-05 1 -6.123233995736766E-17
vn 1.3E-05 -1 6.123233995736766E-17
vn 1.3E-05 -1 6.123233995736766E-17
vn 1.3E-05 -1 6.123233995736766E-17
vn 1.3E-05 -1 6.123233995736766E-17
vn 0.716142 -0.697955 4.273741783494454E-17
vn 0.716142 -0.697955 4.273741783494454E-17
vn 0.716142 -0.697955 4.273741783494454E-17
vn 0.716142 -0.697955 4.273741783494454E-17
vn -0.716142 0.697955 -4.273741783494454E-17
vn -0.716142 0.697955 -4.273741783494454E-17
vn -0.716142 0.697955 -4.273741783494454E-17
vn -0.716142 0.697955 -4.273741783494454E-17
vn 9.3E-05 -1 6.123233995736766E-17
vn 9.3E-05 -1 6.123233995736766E-17
vn 9.3E-05 -1 6.123233995736766E-17
vn 9.3E-05 -1 6.123233995736766E-17
vn 0.706844 -0.70737 4.3313920315643165E-17
vn 0.706844 -0.70737 4.3313920315643165E-17
vn 0.706844 -0.70737 4.3313920315643165E-17
vn 0.706844 -0.70737 4.3313920315643165E-17
vn 0.999997 -0.00257 1.5736711369043489E-19
vn 0.999997 -0.00257 1.5736711369043489E-19
vn 0.999997 -0.00257 1.5736711369043489E-19
vn 0.999997 -0.00257 1.5736711369043489E-19
vn -0.707074 0.70714 -4.3299836877452964E-17
vn -0.707074 0.70714 -4.3299836877452964E-17
vn -0.707074 0.70714 -4.3299836877452964E-17
vn -0.707074 0.70714 -4.3299836877452964E-17
vn -1 -8.4E-05 5.143516556418883E-21
vn -1 -8.4E-05 5.143516556418883E-21
vn -1 -8.4E-05 5.143516556418883E-21
vn -1 -8.4E-05 5.143516556418883E-21
vn -0.706958 -0.707256 4.3306939828888025E-17
vn -0.706958 -0.707256 4.3306939828888025E-17
vn -0.706958 -0.707256 4.3306939828888025E-17
vn -0.706958 -0.707256 4.3306939828888025E-17
vn -9.3E-05 1 -6.123233995736766E-17
vn -9.3E-05 1 -6.123233995736766E-17
vn -9.3E-05 1 -6.123233995736766E-17
vn -9.3E-05 1 -6.123233995736766E-17
vn -0.706844 0.70737 -4.3313920315643165E-17
vn -0.706844 0.70737 -4.3313920315643165E-17
vn -0.706844 0.70737 -4.3313920315643165E-17
vn -0.706844 0.70737 -4.3313920315643165E-17
vn 0.707074 -0.70714 4.3299836877452964E-17
vn 0.707074 -0.70714 4.3299836877452964E-17
vn 0.707074 -0.70714 4.3299836877452964E-17
vn 0.707074 -0.70714 4.3299836877452964E-17
vn 1 8.4E-05 -5.143516556418883E-21
vn 1 8.4E-05 -5.143516556418883E-21
vn 1 8.4E-05 -5.143516556418883E-21
vn 1 8.4E-05 -5.143516556418883E-21
vn 0.706958 0.707256 -4.3306939828888025E-17
vn 0.706958 0.707256 -4.3306939828888025E-17
vn 0.706958 0.707256 -4.3306939828888025E-17
vn 0.706958 0.707256 -4.3306939828888025E-17
vn -1E-06 -9.999999999387675E-07 1
vn -1E-06 -9.999999999387675E-07 1
vn -1E-06 -9.999999999387675E-07 1
vn -1E-06 -9.999999999387675E-07 1
vn 0.707107 0.707106 -4.3297754977894416E-17
vn 0.707107 0.707106 -4.3297754977894416E-17
vn 0.707107 0.707106 -4.3297754977894416E-17
vn 0.707107 0.707106 -4.3297754977894416E-17
vn -0.707107 0.707107 -4.329781621023438E-17
vn -0.707106 0.707107 -4.329781621023438E-17
vn -0.707107 0.707107 -4.329781621023438E-17
vn -0.707107 0.707107 -4.329781621023438E-17
vn -0.707107 -0.707107 4.329781621023438E-17
vn -0.707107 -0.707107 4.329781621023438E-17
vn -0.707107 -0.707107 4.329781621023438E-17
vn -0.707107 -0.707107 4.329781621023438E-17
vn 1 0 0
vn 1 -0 0
vn 1 0 0
vn 1 0 0
vn 0 1 -6.123233995736766E-17
vn 0 1 -6.123233995736766E-17
vn 0 1 -6.123233995736766E-17
vn 0 1 -6.123233995736766E-17
vn -1 0 0
vn -1 -0 0
vn -1 0 0
vn -1 0 0
vn 0 -1 1.0000000000612324E-06
vn -0 -1 6.123233995736766E-17
vn 0 -1 1.0000000000612324E-06
vn 0 -1 1.0000000000612324E-06
vn 0.707107 -0.707107 1.0000000000432977E-06
vn 0.707106 -0.707107 4.329781621023438E-17
vn 0.707107 -0.707107 1.0000000000432977E-06
vn 0.707107 -0.707107 1.0000000000432977E-06
vn -0.707107 0.707107 -1.5000000000043299E-05
vn -0.707107 0.707107 -1.5000000000043299E-05
vn -0.707107 0.707107 -1.5000000000043299E-05
vn -0.707107 0.707107 -1.5000000000043299E-05
vn 0.701787 0.701786 0.12243599999999996
vn 0.701787 0.701786 0.12243599999999996
vn 0.701787 0.701786 0.12243599999999996
vn 0.701787 0.701786 0.12243599999999996
vn 0.00023 0.999996 -0.002879000000000061
vn 0.000327 0.999996 -0.0027720000000000613
vn 0.00023 0.999996 -0.002879000000000061
vn 0.00023 0.999996 -0.002879000000000061
vn -0.707107 -0.707107 1.00000000000433E-05
vn -0.707107 -0.707107 1.00000000000433E-05
vn -0.707107 -0.707107 1.00000000000433E-05
vn -0.707107 -0.707107 1.00000000000433E-05
vn 3.2E-05 -0.999996 0.002649000000000061
vn -3.4E-05 -0.999997 0.0025760000000000613
vn 3.2E-05 -0.999996 0.002649000000000061
vn 3.2E-05 -0.999996 0.002649000000000061
vn 0.707107 -0.707107 0.0002650000000000433
vn 0.707107 -0.707107 0.0002650000000000433
vn 0.707107 -0.707107 0.0002650000000000433
vn 0.707107 -0.707107 0.0002650000000000433
vn 0.707107 0.707107 -2.6000000000043295E-05
vn 0.707107 0.707107 -2.6000000000043295E-05
vn 0.707107 0.707107 -2.6000000000043295E-05
vn 0.707107 0.707107 -2.6000000000043295E-05
vn -0.821578 -0.51198 0.25077200000000005
vn 0.917502 -0.354588 0.18016100000000002
vn 0.188435 -0.855743 0.4818680000000001
vn -0.833908 0.18388000000000002 0.52037
vn 0.01409 -0.03625399999999994 0.999243
vn 0.251128 -0.954343 0.16175200000000006
vn 0.245381 -0.957792 0.14974500000000004
vn 0.578927 -0.797778 0.16850900000000005
vn 0.864506 -0.473447 0.16875300000000001
vn 0.982559 -0.13297 0.129985
vn 0.980493 -0.126134 0.150744
vn -0.999997 0.00257 -1.5736711369043489E-19
vn -0.999997 0.00257 -1.5736711369043489E-19
vn -0.999997 0.00257 -1.5736711369043489E-19
vn -0.999997 0.00257 -1.5736711369043489E-19
vn 1 0 0
vn -0.613425 -0.45170699999999997 0.64782
vn -0.104158 0.751324 0.651662
vn -0.898533 0.409203 0.15872099999999997
vn -0.344527 -0.841866 0.4154070000000001
vn 0.627373 -0.4310399999999999 0.648543
vn -0.104158 0.751324 0.651662
vn -0.613425 -0.45170699999999997 0.64782
vn 0.748379 -0.556187 0.3613660000000001
vn 0.584657 0.686937 0.4316169999999999
vn 0.982608 0.182492 -0.034312000000000016
vn -0.140646 0.92098 0.36333799999999994
vn -0.306683 0.840346 0.44694999999999996
vn 0.547997 0.500597 0.670151
vn -0.633891 0.678861 0.37058099999999994
vn 0 6.123233995736766E-17 1
vn 0 6.123233995736766E-17 1
vn 0 6.123233995736766E-17 1
vn 0 6.123233995736766E-17 1
vn 0 6.123233995736766E-17 1
vn 0 6.123233995736766E-17 1
vn 0 6.123233995736766E-17 1
vn 0 6.123233995736766E-17 1
g 01
f 1/1/1 2/2/2 3/3/3
f 4/4/4 5/5/5 6/6/6
f 7/7/7 8/8/8 9/9/9
f 10/10/10 11/11/11 12/12/12
f 13/13/13 14/14/14 15/15/15
f 16/16/16 17/17/17 18/18/18
f 19/19/19 20/20/20 21/21/21
f 22/22/22 23/23/23 24/24/24
f 25/25/25 26/26/26 27/27/27
f 28/28/28 29/29/29 30/30/30
f 31/31/31 32/32/32 33/33/33
f 34/34/34 35/35/35 36/36/36
f 37/37/37 38/38/38 39/39/39
f 40/40/40 41/41/41 42/42/42
f 43/43/43 44/44/44 45/45/45
f 46/46/46 47/47/47 48/48/48
f 49/49/49 50/50/50 51/51/51
f 52/52/52 53/53/53 54/54/54
f 55/55/55 56/56/56 57/57/57
f 58/58/58 59/59/59 60/60/60
f 61/61/61 62/62/62 63/63/63
f 64/64/64 65/65/65 66/66/66
f 67/67/67 68/68/68 69/69/69
f 70/70/70 71/71/71 72/72/72
f 73/73/73 74/74/74 75/75/75
f 76/76/76 77/77/77 78/78/78
f 79/79/79 80/80/80 81/81/81
f 82/82/82 83/83/83 84/84/84
f 85/85/85 86/86/86 87/87/87
f 88/88/88 89/89/89 90/90/90
f 91/91/91 92/92/92 93/93/93
f 94/94/94 95/95/95 96/96/96
f 97/97/97 98/98/98 99/99/99
f 100/100/100 101/101/101 102/102/102
f 103/103/103 104/104/104 105/105/105
f 106/106/106 107/107/107 108/108/108
f 109/109/109 110/110/110 111/111/111
f 112/112/112 113/113/113 114/114/114
f 115/115/115 116/116/116 117/117/117
f 118/118/118 119/119/119 120/120/120
f 121/121/121 122/122/122 123/123/123
f 124/124/124 125/125/125 126/126/126
f 127/127/127 128/128/128 129/129/129
f 130/130/130 131/131/131 132/132/132
f 133/133/133 134/134/134 135/135/135
f 136/136/136 137/137/137 138/138/138
f 139/139/139 140/140/140 138/138/138
f 139/139/139 141/141/141 142/142/142
f 141/141/141 143/143/143 142/142/142
f 141/141/141 144/144/144 145/145/145
f 145/145/145 146/146/146 147/147/147
f 146/146/146 148/148/148 149/149/149
f 150/150/150 151/151/151 152/152/152
f 153/153/153 154/154/154 150/150/150
f 155/155/155 156/156/156 157/157/157
f 158/158/158 159/159/159 155/155/155
f 160/160/160 161/161/161 162/162/162
f 161/161/161 163/163/163 164/164/164
f 165/165/165 166/166/166 164/164/164
f 165/165/165 164/164/164 163/163/163
f 163/163/163 167/167/167 165/165/165
f 167/167/167 163/163/163 168/168/168
f 163/163/163 169/169/169 168/168/168
f 168/168/168 170/170/170 167/167/167
f 171/171/171 170/170/170 168/168/168
f 168/168/168 172/172/172 173/173/173
f 168/168/168 174/174/174 172/172/172
f 175/175/175 176/176/176 177/177/177
f 178/178/178 177/177/177 179/179/179
f 180/180/180 181/181/181 182/182/182
f 182/182/182 183/183/183 184/184/184
f 185/185/185 184/184/184 183/183/183
f 185/185/185 186/186/186 184/184/184
f 183/183/183 187/187/187 185/185/185
f 185/185/185 187/187/187 188/188/188
f 189/189/189 190/190/190 191/191/191
f 192/192/192 193/193/193 189/189/189
f 194/194/194 195/195/195 196/196/196
f 197/197/197 198/198/198 194/194/194
f 199/199/199 200/200/200 201/201/201
f 202/202/202 203/203/203 199/199/199
f 204/204/204 205/205/205 206/206/206
f 207/207/207 208/208/208 204/204/204
f 209/209/209 210/210/210 211/211/211
f 212/212/212 213/213/213 209/209/209
f 214/214/214 215/215/215 216/216/216
f 217/217/217 218/218/218 214/214/214
f 219/219/219 220/220/220 221/221/221
f 222/222/222 223/223/223 219/219/219
f 224/224/224 225/225/225 226/226/226
f 227/227/227 228/228/228 224/224/224
f 229/229/229 230/230/230 231/231/231
f 232/232/232 233/233/233 229/229/229
f 234/234/234 235/235/235 236/236/236
f 237/237/237 238/238/238 234/234/234
f 239/239/239 240/240/240 241/241/241
f 242/242/242 243/243/243 239/239/239
f 244/244/244 245/245/245 246/246/246
f 247/247/247 248/248/248 244/244/244
f 249/249/249 250/250/250 251/251/251
f 252/252/252 253/253/253 249/249/249
f 254/254/254 255/255/255 256/256/256
f 257/257/257 258/258/258 254/254/254
f 259/259/259 260/260/260 261/261/261
f 262/262/262 263/263/263 259/259/259
f 264/264/264 265/265/265 266/266/266
f 267/267/267 268/268/268 264/264/264
f 269/269/269 270/270/270 271/271/271
f 272/272/272 273/273/273 269/269/269
f 274/274/274 275/275/275 276/276/276
f 277/277/277 278/278/278 274/274/274
f 279/279/279 280/280/280 281/281/281
f 282/282/282 283/283/283 279/279/279
f 284/284/284 285/285/285 286/286/286
f 287/287/287 288/288/288 284/284/284
f 289/289/289 290/290/290 291/291/291
f 292/292/292 293/293/293 289/289/289
f 294/294/294 295/295/295 296/296/296
f 296/296/296 297/297/297 298/298/298
f 296/296/296 299/299/299 297/297/297
f 300/300/300 301/301/301 302/302/302
f 303/303/303 304/304/304 300/300/300
f 305/305/305 306/306/306 300/300/300
f 307/307/307 308/308/308 309/309/309
f 307/307/307 309/309/309 310/310/310
f 311/311/311 312/312/312 313/313/313
f 314/314/314 313/313/313 312/312/312
f 315/315/315 316/316/316 317/317/317
f 317/317/317 318/318/318 315/315/315
f 319/319/319 320/320/320 321/321/321
f 321/321/321 322/322/322 319/319/319
f 323/323/323 324/324/324 325/325/325
f 325/325/325 326/326/326 323/323/323
f 327/327/327 328/328/328 329/329/329
f 329/329/329 330/330/330 327/327/327
f 331/331/331 332/332/332 333/333/333
f 333/333/333 334/334/334 331/331/331
f 335/335/335 336/336/336 337/337/337
f 337/337/337 338/338/338 335/335/335
f 339/339/339 340/340/340 341/341/341
f 341/341/341 342/342/342 339/339/339
f 343/343/343 344/344/344 345/345/345
f 345/345/345 346/346/346 343/343/343
f 347/347/347 348/348/348 349/349/349
f 349/349/349 350/350/350 347/347/347
f 351/351/351 352/352/352 353/353/353
f 353/353/353 354/354/354 351/351/351
f 355/355/355 356/356/356 357/357/357
f 357/357/357 358/358/358 355/355/355
f 359/359/359 360/360/360 361/361/361
f 361/361/361 362/362/362 359/359/359
f 363/363/363 364/364/364 365/365/365
f 365/365/365 366/366/366 363/363/363
f 367/367/367 368/368/368 369/369/369
f 369/369/369 370/370/370 367/367/367
f 371/371/371 372/372/372 373/373/373
f 373/373/373 374/374/374 371/371/371
f 375/375/375 376/376/376 377/377/377
f 377/377/377 378/378/378 375/375/375
f 379/379/379 380/380/380 381/381/381
f 381/381/381 382/382/382 379/379/379
f 383/383/383 384/384/384 385/385/385
f 385/385/385 386/386/386 383/383/383
f 387/387/387 388/388/388 389/389/389
f 389/389/389 390/390/390 387/387/387
f 391/391/391 392/392/392 393/393/393
f 393/393/393 394/394/394 391/391/391
f 395/395/395 396/396/396 397/397/397
f 397/397/397 398/398/398 395/395/395
f 399/399/399 400/400/400 401/401/401
f 401/401/401 402/402/402 399/399/399
f 403/403/403 404/404/404 405/405/405
f 405/405/405 406/406/406 403/403/403
f 407/407/407 408/408/408 409/409/409
f 409/409/409 410/410/410 407/407/407
f 411/411/411 412/412/412 413/413/413
f 413/413/413 414/414/414 411/411/411
f 415/415/415 416/416/416 417/417/417
f 417/417/417 418/418/418 415/415/415
f 419/419/419 420/420/420 421/421/421
f 421/421/421 422/422/422 419/419/419
f 423/423/423 424/424/424 425/425/425
f 425/425/425 426/426/426 423/423/423
f 427/427/427 428/428/428 429/429/429
f 429/429/429 430/430/430 427/427/427
f 431/431/431 432/432/432 433/433/433
f 433/433/433 434/434/434 431/431/431
f 435/435/435 436/436/436 437/437/437
f 437/437/437 438/438/438 435/435/435
f 439/439/439 440/440/440 441/441/441
f 441/441/441 442/442/442 439/439/439
f 443/443/443 444/444/444 445/445/445
f 445/445/445 446/446/446 443/443/443
f 447/447/447 448/448/448 449/449/449
f 449/449/449 450/450/450 447/447/447
f 451/451/451 452/452/452 453/453/453
f 453/453/453 454/454/454 451/451/451
f 455/455/455 456/456/456 457/457/457
f 457/457/457 458/458/458 455/455/455
f 459/459/459 460/460/460 461/461/461
f 461/461/461 462/462/462 459/459/459
f 463/463/463 464/464/464 465/465/465
f 465/465/465 466/466/466 463/463/463
f 467/467/467 468/468/468 469/469/469
f 469/469/469 470/470/470 467/467/467
f 471/471/471 472/472/472 473/473/473
f 473/473/473 474/474/474 471/471/471
f 475/475/475 476/476/476 477/477/477
f 477/477/477 478/478/478 475/475/475
f 479/479/479 480/480/480 481/481/481
f 481/481/481 482/482/482 479/479/479
f 483/483/483 484/484/484 485/485/485
f 485/485/485 486/486/486 483/483/483
f 487/487/487 488/488/488 489/489/489
f 489/489/489 490/490/490 487/487/487
f 491/491/491 492/492/492 493/493/493
f 493/493/493 494/494/494 491/491/491
f 495/495/495 496/496/496 497/497/497
f 497/497/497 498/498/498 495/495/495
f 499/499/499 500/500/500 501/501/501
f 501/501/501 502/502/502 499/499/499
f 503/503/503 504/504/504 505/505/505
f 505/505/505 506/506/506 503/503/503
f 507/507/507 508/508/508 509/509/509
f 509/509/509 510/510/510 507/507/507
f 511/511/511 512/512/512 513/513/513
f 513/513/513 514/514/514 511/511/511
f 515/515/515 516/516/516 517/517/517
f 517/517/517 518/518/518 515/515/515
f 519/519/519 520/520/520 521/521/521
f 521/521/521 522/522/522 519/519/519
f 523/523/523 524/524/524 525/525/525
f 525/525/525 526/526/526 523/523/523
f 527/527/527 528/528/528 529/529/529
f 529/529/529 530/530/530 527/527/527
f 531/531/531 532/532/532 533/533/533
f 533/533/533 534/534/534 531/531/531
f 535/535/535 536/536/536 537/537/537
f 537/537/537 538/538/538 535/535/535
f 539/539/539 540/540/540 541/541/541
f 541/541/541 542/542/542 539/539/539
f 543/543/543 544/544/544 545/545/545
f 545/545/545 546/546/546 543/543/543
f 547/547/547 548/548/548 549/549/549
f 549/549/549 550/550/550 547/547/547
f 551/551/551 552/552/552 553/553/553
f 553/553/553 554/554/554 551/551/551
f 555/555/555 556/556/556 557/557/557
f 557/557/557 558/558/558 555/555/555
f 559/559/559 560/560/560 561/561/561
f 561/561/561 562/562/562 559/559/559
f 563/563/563 564/564/564 565/565/565
f 565/565/565 566/566/566 563/563/563
f 567/567/567 568/568/568 569/569/569
f 569/569/569 570/570/570 567/567/567
f 571/571/571 572/572/572 573/573/573
f 573/573/573 574/574/574 571/571/571
f 575/575/575 576/576/576 577/577/577
f 577/577/577 578/578/578 575/575/575
f 579/579/579 580/580/580 581/581/581
f 581/581/581 582/582/582 579/579/579
f 583/583/583 584/584/584 585/585/585
f 585/585/585 586/586/586 583/583/583
f 587/587/587 588/588/588 589/589/589
f 589/589/589 590/590/590 587/587/587
f 591/591/591 592/592/592 593/593/593
f 593/593/593 594/594/594 591/591/591
f 595/595/595 596/596/596 597/597/597
f 597/597/597 598/598/598 595/595/595
f 599/599/599 600/600/600 601/601/601
f 601/601/601 602/602/602 599/599/599
f 603/603/603 604/604/604 605/605/605
f 605/605/605 606/606/606 603/603/603
f 607/607/607 608/608/608 609/609/609
f 609/609/609 610/610/610 607/607/607
f 611/611/611 612/612/612 613/613/613
f 613/613/613 614/614/614 611/611/611
f 615/615/615 616/616/616 617/617/617
f 617/617/617 618/618/618 615/615/615
f 619/619/619 620/620/620 621/621/621
f 621/621/621 622/622/622 619/619/619
f 623/623/623 624/624/624 625/625/625
f 625/625/625 626/626/626 623/623/623
f 627/627/627 628/628/628 629/629/629
f 629/629/629 630/630/630 627/627/627
f 631/631/631 632/632/632 633/633/633
f 633/633/633 634/634/634 631/631/631
f 635/635/635 636/636/636 637/637/637
f 637/637/637 638/638/638 635/635/635
f 639/639/639 640/640/640 641/641/641
f 641/641/641 642/642/642 639/639/639
f 643/643/643 644/644/644 645/645/645
f 645/645/645 646/646/646 643/643/643
f 647/647/647 648/648/648 649/649/649
f 649/649/649 650/650/650 647/647/647
f 651/651/651 652/652/652 653/653/653
f 652/652/652 654/654/654 653/653/653
f 655/655/655 656/656/656 657/657/657
f 657/657/657 658/658/658 655/655/655
f 659/659/659 660/660/660 661/661/661
f 661/661/661 662/662/662 659/659/659
f 663/663/663 664/664/664 665/665/665
f 665/665/665 666/666/666 663/663/663
f 667/667/667 668/668/668 669/669/669
f 669/669/669 670/670/670 667/667/667
f 671/671/671 672/672/672 673/673/673
f 673/673/673 674/674/674 671/671/671
f 675/675/675 676/676/676 677/677/677
f 677/677/677 678/678/678 675/675/675
f 679/679/679 680/680/680 681/681/681
f 681/681/681 682/682/682 679/679/679
f 683/683/683 684/684/684 685/685/685
f 685/685/685 686/686/686 683/683/683
f 687/687/687 688/688/688 689/689/689
f 689/689/689 690/690/690 687/687/687
f 691/691/691 692/692/692 693/693/693
f 693/693/693 694/694/694 691/691/691
f 695/695/695 696/696/696 697/697/697
f 697/697/697 698/698/698 695/695/695
f 699/699/699 700/700/700 701/701/701
f 701/701/701 702/702/702 699/699/699
f 703/703/703 704/704/704 705/705/705
f 705/705/705 706/706/706 703/703/703
f 707/707/707 708/708/708 709/709/709
f 709/709/709 710/710/710 707/707/707
f 711/711/711 712/712/712 713/713/713
f 713/713/713 714/714/714 711/711/711
f 715/715/715 716/716/716 717/717/717
f 717/717/717 718/718/718 715/715/715
f 719/719/719 720/720/720 721/721/721
f 721/721/721 722/722/722 719/719/719
f 723/723/723 724/724/724 725/725/725
f 725/725/725 726/726/726 723/723/723
f 727/727/727 728/728/728 729/729/729
f 729/729/729 730/730/730 727/727/727
f 731/731/731 732/732/732 733/733/733
f 733/733/733 734/734/734 731/731/731
f 735/735/735 736/736/736 737/737/737
f 737/737/737 738/738/738 735/735/735
f 739/739/739 740/740/740 741/741/741
f 741/741/741 742/742/742 739/739/739
f 743/743/743 744/744/744 745/745/745
f 745/745/745 746/746/746 743/743/743
f 747/747/747 748/748/748 749/749/749
f 749/749/749 750/750/750 747/747/747
f 751/751/751 752/752/752 753/753/753
f 753/753/753 754/754/754 751/751/751
f 755/755/755 756/756/756 757/757/757
f 756/756/756 758/758/758 757/757/757
f 759/759/759 760/760/760 761/761/761
f 761/761/761 762/762/762 759/759/759
f 763/763/763 764/764/764 765/765/765
f 765/765/765 766/766/766 763/763/763
f 767/767/767 768/768/768 769/769/769
f 769/769/769 770/770/770 767/767/767
f 771/771/771 772/772/772 773/773/773
f 773/773/773 774/774/774 771/771/771
f 775/775/775 776/776/776 777/777/777
f 777/777/777 778/778/778 775/775/775
f 779/779/779 780/780/780 781/781/781
f 781/781/781 782/782/782 779/779/779
f 783/783/783 784/784/784 785/785/785
f 785/785/785 786/786/786 783/783/783
f 787/787/787 786/786/786 785/785/785
f 788/788/788 789/789/789 790/790/790
f 790/790/790 791/791/791 788/788/788
f 791/791/791 790/790/790 792/792/792
f 792/792/792 793/793/793 791/791/791
f 794/794/794 795/795/795 796/796/796
f 795/795/795 797/797/797 796/796/796
f 797/797/797 798/798/798 796/796/796
f 799/799/799 800/800/800 801/801/801
f 801/801/801 802/802/802 799/799/799
f 803/803/803 804/804/804 799/799/799
f 803/803/803 805/805/805 802/802/802
f 802/802/802 806/806/806 803/803/803
f 807/807/807 808/808/808 809/809/809
f 809/809/809 810/810/810 807/807/807
f 810/810/810 811/811/811 807/807/807
f 812/812/812 810/810/810 809/809/809
f 813/813/813 814/814/814 815/815/815
f 816/816/816 817/817/817 815/815/815
f 814/814/814 816/816/816 815/815/815
f 814/814/814 818/818/818 816/816/816
f 818/818/818 819/819/819 816/816/816
f 814/814/814 820/820/820 818/818/818
