v -0.543736 0.5833210000000001 2.246211
v -0.555289 0.5566600000000002 2.423186
v -0.48206 0.49395400000000017 2.423859
v -0.455006 0.5075650000000002 2.24703
v -0.543736 0.5833210000000001 2.246211
v -0.455006 0.5075650000000002 2.24703
v -0.474474 0.39783700000000016 2.422662
v -0.549628 0.5570450000000001 2.068226
v -0.543736 0.5833210000000001 2.246211
v -0.445956 0.3912120000000001 2.245578
v -0.537155 0.32450900000000016 2.42029
v -0.476393 0.4944460000000001 2.068901
v -0.549628 0.5570450000000001 2.068226
v -0.468907 0.3984430000000001 2.067703
v -0.521786 0.30239100000000013 2.242707
v -0.633265 0.31683500000000014 2.418134
v -0.531475 0.3252200000000001 2.065335
v -0.638127 0.29326200000000013 2.240099
v -0.627468 0.3176520000000001 2.063183
v -0.939852 1.14402 0.16129999999999992
v -0.962919 1.143946 0.32269999999999993
v -0.996514 1.062992 0.32269999999999993
v -0.980362 1.045994 0.16129999999999994
v -0.939852 1.14402 0.16129999999999992
v -0.980362 1.045994 0.16129999999999994
v -1.077477 1.029396 0.32269999999999993
v -0.967461 1.144285 -7.006724812811646E-17
v -0.939852 1.14402 0.16129999999999992
v -1.078408 1.00544 0.16129999999999994
v -1.158524 1.062962 0.32269999999999993
v -1.000958 1.063358 -6.511189855238656E-17
v -0.967461 1.144285 -7.006724812811646E-17
v -1.08185 1.029879 -6.306190104295385E-17
v -1.176554 1.046017 0.16129999999999994
v -1.192223 1.1439 0.32269999999999993
v -1.162777 1.063377 -6.511306196684575E-17
v -1.217207 1.144037 0.16129999999999992
v -1.196352 1.144243 -7.006467636983823E-17
v -0.638127 0.29326200000000013 2.240099
v -0.633265 0.31683500000000014 2.418134
v -0.706494 0.3795430000000002 2.41746
v -0.72674 0.3691220000000001 2.239284
v -0.627468 0.3176520000000001 2.063183
v -0.713961 0.4758740000000002 2.418664
v -0.700695 0.38035600000000014 2.06251
v -0.735789 0.4855800000000001 2.240738
v -0.651394 0.5490990000000001 2.421031
v -0.708287 0.4763660000000001 2.063705
v -0.659958 0.5742910000000001 2.243608
v -0.555289 0.5566600000000002 2.423186
v -0.645615 0.5495850000000001 2.066076
v -0.543736 0.5833210000000001 2.246211
v -0.549628 0.5570450000000001 2.068226
v -1.217207 1.144037 0.16129999999999992
v -1.192223 1.1439 0.32269999999999993
v -1.158629 1.224854 0.32269999999999993
v -1.176575 1.241989 0.16129999999999992
v -1.196352 1.144243 -7.006467636983823E-17
v -1.077446 1.258406 0.32269999999999993
v -1.16276 1.225195 -7.502155675406707E-17
v -1.078436 1.282574 0.16129999999999992
v -0.996519 1.224911 0.32269999999999993
v -1.08189 1.258766 -7.707718763877587E-17
v -0.980385 1.241966 0.16129999999999992
v -0.962919 1.143946 0.32269999999999993
v -1.000939 1.225176 -7.502039333960788E-17
v -0.939852 1.14402 0.16129999999999992
v -0.967461 1.144285 -7.006724812811646E-17
v -0.537155 0.32450900000000016 2.42029
v -0.474474 0.39783700000000016 2.422662
v -0.633265 0.31683500000000014 2.418134
v -0.48206 0.49395400000000017 2.423859
v -0.555289 0.5566600000000002 2.423186
v -0.651394 0.5490990000000001 2.421031
v -0.713961 0.4758740000000002 2.418664
v -0.706494 0.3795430000000002 2.41746
v -1.158524 1.062962 0.32269999999999993
v -1.077477 1.029396 0.32269999999999993
v -1.192223 1.1439 0.32269999999999993
v -0.996514 1.062992 0.32269999999999993
v -0.962919 1.143946 0.32269999999999993
v -0.996519 1.224911 0.32269999999999993
v -1.077446 1.258406 0.32269999999999993
v -1.158629 1.224854 0.32269999999999993
vt 0.701849 0.054314
vt 0.713549 0.054314
vt 0.713549 0.054314
vt 0.701849 0.054314
vt 0.701849 0.054314
vt 0.701849 0.054314
vt 0.713549 0.058714
vt 0.690149 0.054314
vt 0.701849 0.054314
vt 0.701849 0.058714
vt 0.713549 0.063014
vt 0.690149 0.054314
vt 0.690149 0.054314
vt 0.690149 0.058714
vt 0.701849 0.063014
vt 0.713549 0.067114
vt 0.690149 0.063014
vt 0.701849 0.067114
vt 0.690149 0.067114
vt 0.701849 0.054314
vt 0.713549 0.054314
vt 0.713549 0.054314
vt 0.701849 0.054314
vt 0.701849 0.054314
vt 0.701849 0.054314
vt 0.713549 0.058714
vt 0.690149 0.054314
vt 0.701849 0.054314
vt 0.701849 0.058714
vt 0.713549 0.063014
vt 0.690149 0.054314
vt 0.690149 0.054314
vt 0.690149 0.058714
vt 0.701849 0.063014
vt 0.713549 0.067114
vt 0.690149 0.063014
vt 0.701849 0.067114
vt 0.690149 0.067114
vt 0.701849 0.037314
vt 0.713549 0.037314
vt 0.713549 0.041414
vt 0.701849 0.041414
vt 0.690149 0.037314
vt 0.713549 0.045714
vt 0.690149 0.041414
vt 0.701849 0.045714
vt 0.713549 0.050014
vt 0.690149 0.045714
vt 0.701849 0.050014
vt 0.713549 0.054314
vt 0.690149 0.050014
vt 0.701849 0.054314
vt 0.690149 0.054314
vt 0.701849 0.037314
vt 0.713549 0.037314
vt 0.713549 0.041414
vt 0.701849 0.041414
vt 0.690149 0.037314
vt 0.713549 0.045714
vt 0.690149 0.041414
vt 0.701849 0.045714
vt 0.713549 0.050014
vt 0.690149 0.045714
vt 0.701849 0.050014
vt 0.713549 0.054314
vt 0.690149 0.050014
vt 0.701849 0.054314
vt 0.690149 0.054314
vt 0.721749 0.066514
vt 0.717149 0.063614
vt 0.728049 0.066314
vt 0.716849 0.059314
vt 0.721049 0.056114
vt 0.727249 0.055914
vt 0.731949 0.058814
vt 0.732249 0.063114
vt 0.721749 0.066514
vt 0.717149 0.063614
vt 0.728049 0.066314
vt 0.716849 0.059314
vt 0.721049 0.056114
vt 0.727249 0.055914
vt 0.731949 0.058814
vt 0.732249 0.063114
vn 0.309803 0.950779 0.006422999999999942
vn 0.171741 0.972401 0.15792899999999996
vn 0.809115 0.563474 0.16682199999999997
vn 0.891202 0.453382 0.014273999999999972
vn 0.309803 0.950779 0.006422999999999942
vn 0.891202 0.453382 0.014273999999999972
vn 0.970635 -0.176736 0.163191
vn 0.433577 0.889249 -0.14576400000000006
vn 0.309803 0.950779 0.006422999999999942
vn 0.95071 -0.309794 0.01335300000000002
vn 0.562287 -0.813259 0.14981100000000006
vn 0.935948 0.324712 -0.13624400000000003
vn 0.433577 0.889249 -0.14576400000000006
vn 0.892899 -0.430227 -0.13280099999999997
vn 0.454025 -0.890978 0.004476000000000055
vn -0.177005 -0.975011 0.13424800000000006
vn 0.327583 -0.934674 -0.13810699999999995
vn -0.309364 -0.950914 -0.007548999999999942
vn -0.430368 -0.890322 -0.14869599999999994
vn 0.999907 -0.00023000000000000085 -0.013621
vn 0.980794 0.135318 0.140469
vn 0.789344 -0.597407 0.14156600000000003
vn 0.707013 -0.707113 -0.011121999999999957
vn 0.999907 -0.00023000000000000085 -0.013621
vn 0.707013 -0.707113 -0.011121999999999957
vn 0.135486 -0.980117 0.14495900000000006
vn 0.976647 -0.134529 -0.167519
vn 0.999907 -0.00023000000000000085 -0.013621
vn -0.00018 -0.999997 -0.0025249999999999388
vn -0.596264 -0.788787 0.14927900000000005
vn 0.595513 -0.787104 -0.16072199999999995
vn 0.976647 -0.134529 -0.167519
vn -0.135488 -0.980009 -0.14569199999999993
vn -0.706557 -0.707617 0.007398000000000043
vn -0.979049 -0.135769 0.151758
vn -0.79007 -0.598674 -0.13182599999999997
vn -0.999922 -0.00021499999999999924 0.012484
vn -0.982572 0.135827 -0.126896
vn -0.309364 -0.950914 -0.007548999999999942
vn -0.177005 -0.975011 0.13424800000000006
vn -0.814793 -0.565971 0.12565600000000002
vn -0.891317 -0.453128 -0.015145999999999972
vn -0.430368 -0.890322 -0.14869599999999994
vn -0.976381 0.173179 0.129187
vn -0.933365 -0.322435 -0.15768899999999997
vn -0.950807 0.309472 -0.01393600000000002
vn -0.568488 0.81025 0.14253499999999994
vn -0.886663 0.433681 -0.16046900000000003
vn -0.453256 0.891365 -0.005210000000000055
vn 0.171741 0.972401 0.15792899999999996
vn -0.319554 0.934658 -0.15588200000000005
vn 0.309803 0.950779 0.006422999999999942
vn 0.433577 0.889249 -0.14576400000000006
vn -0.999922 -0.00021499999999999924 0.012484
vn -0.979049 -0.135769 0.151758
vn -0.787611 0.597393 0.15096799999999996
vn -0.706821 0.707318 0.010249999999999957
vn -0.982572 0.135827 -0.126896
vn -0.134789 0.979835 0.14749699999999993
vn -0.598434 0.790023 -0.13319400000000006
vn -0.000174 0.999998 0.001952999999999939
vn 0.597336 0.789112 0.14314999999999994
vn 0.134834 0.979804 -0.14766200000000004
vn 0.707152 0.707014 -0.008156000000000043
vn 0.980794 0.135318 0.140469
vn 0.786657 0.595692 -0.16224100000000002
vn 0.999907 -0.00023000000000000085 -0.013621
vn 0.976647 -0.134529 -0.167519
vn -0.021297 -0.014135999999999939 0.999673
vn -0.021298 -0.01413499999999994 0.999673
vn -0.021297 -0.01413499999999994 0.999673
vn -0.021298 -0.01413399999999994 0.999673
vn -0.021297 -0.01413399999999994 0.999673
vn -0.021295 -0.01413399999999994 0.999673
vn -0.021295 -0.01413499999999994 0.999673
vn -0.021296 -0.014135999999999939 0.999673
vn 0 6.123233995736766E-17 1
vn 0 6.123233995736766E-17 1
vn 0 6.123233995736766E-17 1
vn 0 6.123233995736766E-17 1
vn 0 6.123233995736766E-17 1
vn 0 6.123233995736766E-17 1
vn 0 6.123233995736766E-17 1
vn 0 6.123233995736766E-17 1
g 01
f 1/1/1 2/2/2 3/3/3
f 3/3/3 4/4/4 5/5/5
f 6/6/6 3/3/3 7/7/7
f 8/8/8 9/9/9 6/6/6
f 7/7/7 10/10/10 6/6/6
f 10/10/10 7/7/7 11/11/11
f 6/6/6 12/12/12 13/13/13
f 12/12/12 6/6/6 10/10/10
f 10/10/10 14/14/14 12/12/12
f 11/11/11 15/15/15 10/10/10
f 14/14/14 10/10/10 15/15/15
f 15/15/15 11/11/11 16/16/16
f 15/15/15 17/17/17 14/14/14
f 16/16/16 18/18/18 15/15/15
f 17/17/17 15/15/15 18/18/18
f 18/18/18 19/19/19 17/17/17
f 20/20/20 21/21/21 22/22/22
f 22/22/22 23/23/23 24/24/24
f 25/25/25 22/22/22 26/26/26
f 27/27/27 28/28/28 25/25/25
f 26/26/26 29/29/29 25/25/25
f 29/29/29 26/26/26 30/30/30
f 25/25/25 31/31/31 32/32/32
f 31/31/31 25/25/25 29/29/29
f 29/29/29 33/33/33 31/31/31
f 30/30/30 34/34/34 29/29/29
f 33/33/33 29/29/29 34/34/34
f 34/34/34 30/30/30 35/35/35
f 34/34/34 36/36/36 33/33/33
f 35/35/35 37/37/37 34/34/34
f 36/36/36 34/34/34 37/37/37
f 37/37/37 38/38/38 36/36/36
f 39/39/39 40/40/40 41/41/41
f 41/41/41 42/42/42 39/39/39
f 43/43/43 39/39/39 42/42/42
f 42/42/42 41/41/41 44/44/44
f 42/42/42 45/45/45 43/43/43
f 44/44/44 46/46/46 42/42/42
f 45/45/45 42/42/42 46/46/46
f 46/46/46 44/44/44 47/47/47
f 46/46/46 48/48/48 45/45/45
f 47/47/47 49/49/49 46/46/46
f 48/48/48 46/46/46 49/49/49
f 49/49/49 47/47/47 50/50/50
f 49/49/49 51/51/51 48/48/48
f 50/50/50 52/52/52 49/49/49
f 51/51/51 49/49/49 52/52/52
f 52/52/52 53/53/53 51/51/51
f 54/54/54 55/55/55 56/56/56
f 56/56/56 57/57/57 54/54/54
f 58/58/58 54/54/54 57/57/57
f 57/57/57 56/56/56 59/59/59
f 57/57/57 60/60/60 58/58/58
f 59/59/59 61/61/61 57/57/57
f 60/60/60 57/57/57 61/61/61
f 61/61/61 59/59/59 62/62/62
f 61/61/61 63/63/63 60/60/60
f 62/62/62 64/64/64 61/61/61
f 63/63/63 61/61/61 64/64/64
f 64/64/64 62/62/62 65/65/65
f 64/64/64 66/66/66 63/63/63
f 65/65/65 67/67/67 64/64/64
f 66/66/66 64/64/64 67/67/67
f 67/67/67 68/68/68 66/66/66
f 69/69/69 70/70/70 71/71/71
f 70/70/70 72/72/72 71/71/71
f 72/72/72 73/73/73 71/71/71
f 73/73/73 74/74/74 71/71/71
f 74/74/74 75/75/75 71/71/71
f 75/75/75 76/76/76 71/71/71
f 77/77/77 78/78/78 79/79/79
f 78/78/78 80/80/80 79/79/79
f 80/80/80 81/81/81 79/79/79
f 81/81/81 82/82/82 79/79/79
f 82/82/82 83/83/83 79/79/79
f 83/83/83 84/84/84 79/79/79
