v -0.939852 1.14402 0.16129999999999992
v -0.96292 1.143946 0.32269999999999993
v -0.996514 1.062992 0.32269999999999993
v -0.980362 1.045994 0.16129999999999994
v -0.939852 1.14402 0.16129999999999992
v -0.980362 1.045994 0.16129999999999994
v -1.077477 1.029396 0.32269999999999993
v -0.967461 1.144285 -7.006724812811646E-17
v -0.939852 1.14402 0.16129999999999992
v -1.078408 1.00544 0.16129999999999994
v -1.158524 1.062962 0.32269999999999993
v -1.000958 1.063358 -6.511189855238656E-17
v -0.967461 1.144285 -7.006724812811646E-17
v -1.08185 1.029879 -6.306190104295385E-17
v -1.176554 1.046017 0.16129999999999994
v -1.192223 1.1439 0.32269999999999993
v -1.162777 1.063377 -6.511306196684575E-17
v -1.217207 1.144037 0.16129999999999992
v -1.196352 1.144243 -7.006467636983823E-17
v -1.217207 1.144037 0.16129999999999992
v -1.192223 1.1439 0.32269999999999993
v -1.158629 1.224854 0.32269999999999993
v -1.176575 1.241989 0.16129999999999992
v -1.196352 1.144243 -7.006467636983823E-17
v -1.077446 1.258406 0.32269999999999993
v -1.16276 1.225195 -7.502155675406707E-17
v -1.078436 1.282574 0.16129999999999992
v -0.996519 1.224911 0.32269999999999993
v -1.08189 1.258766 -7.707718763877587E-17
v -0.980385 1.241966 0.16129999999999992
v -0.96292 1.143946 0.32269999999999993
v -1.000939 1.225176 -7.502039333960788E-17
v -0.939852 1.14402 0.16129999999999992
v -0.967461 1.144285 -7.006724812811646E-17
v -1.158524 1.062962 0.32269999999999993
v -1.077477 1.029396 0.32269999999999993
v -1.192223 1.1439 0.32269999999999993
v -0.996514 1.062992 0.32269999999999993
v -0.96292 1.143946 0.32269999999999993
v -0.996519 1.224911 0.32269999999999993
v -1.077446 1.258406 0.32269999999999993
v -1.158629 1.224854 0.32269999999999993
vt 0.701849 0.054314
vt 0.713549 0.054314
vt 0.713549 0.054314
vt 0.701849 0.054314
vt 0.701849 0.054314
vt 0.701849 0.054314
vt 0.713549 0.058714
vt 0.690149 0.054314
vt 0.701849 0.054314
vt 0.701849 0.058714
vt 0.713549 0.063014
vt 0.690149 0.054314
vt 0.690149 0.054314
vt 0.690149 0.058714
vt 0.701849 0.063014
vt 0.713549 0.067114
vt 0.690149 0.063014
vt 0.701849 0.067114
vt 0.690149 0.067114
vt 0.701849 0.037314
vt 0.713549 0.037314
vt 0.713549 0.041414
vt 0.701849 0.041414
vt 0.690149 0.037314
vt 0.713549 0.045714
vt 0.690149 0.041414
vt 0.701849 0.045714
vt 0.713549 0.050014
vt 0.690149 0.045714
vt 0.701849 0.050014
vt 0.713549 0.054314
vt 0.690149 0.050014
vt 0.701849 0.054314
vt 0.690149 0.054314
vt 0.721749 0.066514
vt 0.717149 0.063614
vt 0.728049 0.066314
vt 0.716849 0.059314
vt 0.721049 0.056114
vt 0.727249 0.055914
vt 0.731949 0.058814
vt 0.732249 0.063114
vn 0.999907 -0.00023000000000000085 -0.013621
vn 0.980794 0.135318 0.140469
vn 0.789344 -0.597407 0.14156600000000003
vn 0.707013 -0.707113 -0.011121999999999957
vn 0.999907 -0.00023000000000000085 -0.013621
vn 0.707013 -0.707113 -0.011121999999999957
vn 0.135487 -0.980117 0.14495900000000006
vn 0.976647 -0.134529 -0.167519
vn 0.999907 -0.00023000000000000085 -0.013621
vn -0.00018 -0.999997 -0.0025249999999999388
vn -0.596264 -0.788787 0.14927900000000005
vn 0.595513 -0.787104 -0.16072199999999995
vn 0.976647 -0.134529 -0.167519
vn -0.135488 -0.980009 -0.14569199999999993
vn -0.706557 -0.707617 0.007398000000000043
vn -0.979049 -0.135769 0.151758
vn -0.79007 -0.598674 -0.13182599999999997
vn -0.999922 -0.00021499999999999924 0.012484
vn -0.982572 0.135827 -0.126896
vn -0.999922 -0.00021499999999999924 0.012484
vn -0.979049 -0.135769 0.151758
vn -0.787611 0.597393 0.15096799999999996
vn -0.706821 0.707318 0.010249999999999957
vn -0.982572 0.135827 -0.126896
vn -0.134789 0.979835 0.14749699999999993
vn -0.598434 0.790023 -0.13319400000000006
vn -0.000174 0.999998 0.001952999999999939
vn 0.597336 0.789112 0.14314999999999994
vn 0.134834 0.979804 -0.14766200000000004
vn 0.707153 0.707014 -0.008156000000000043
vn 0.980794 0.135318 0.140469
vn 0.786657 0.595692 -0.16224100000000002
vn 0.999907 -0.00023000000000000085 -0.013621
vn 0.976647 -0.134529 -0.167519
vn -0 6.123233995736766E-17 1
vn -0 6.123233995736766E-17 1
vn -0 6.123233995736766E-17 1
vn -0 6.123233995736766E-17 1
vn -0 6.123233995736766E-17 1
vn -0 6.123233995736766E-17 1
vn -0 6.123233995736766E-17 1
vn -0 6.123233995736766E-17 1
g 01
f 1/1/1 2/2/2 3/3/3
f 3/3/3 4/4/4 5/5/5
f 6/6/6 3/3/3 7/7/7
f 8/8/8 9/9/9 6/6/6
f 7/7/7 10/10/10 6/6/6
f 10/10/10 7/7/7 11/11/11
f 6/6/6 12/12/12 13/13/13
f 12/12/12 6/6/6 10/10/10
f 10/10/10 14/14/14 12/12/12
f 11/11/11 15/15/15 10/10/10
f 14/14/14 10/10/10 15/15/15
f 15/15/15 11/11/11 16/16/16
f 15/15/15 17/17/17 14/14/14
f 16/16/16 18/18/18 15/15/15
f 17/17/17 15/15/15 18/18/18
f 18/18/18 19/19/19 17/17/17
f 20/20/20 21/21/21 22/22/22
f 22/22/22 23/23/23 20/20/20
f 24/24/24 20/20/20 23/23/23
f 23/23/23 22/22/22 25/25/25
f 23/23/23 26/26/26 24/24/24
f 25/25/25 27/27/27 23/23/23
f 26/26/26 23/23/23 27/27/27
f 27/27/27 25/25/25 28/28/28
f 27/27/27 29/29/29 26/26/26
f 28/28/28 30/30/30 27/27/27
f 29/29/29 27/27/27 30/30/30
f 30/30/30 28/28/28 31/31/31
f 30/30/30 32/32/32 29/29/29
f 31/31/31 33/33/33 30/30/30
f 32/32/32 30/30/30 33/33/33
f 33/33/33 34/34/34 32/32/32
f 35/35/35 36/36/36 37/37/37
f 36/36/36 38/38/38 37/37/37
f 38/38/38 39/39/39 37/37/37
f 39/39/39 40/40/40 37/37/37
f 40/40/40 41/41/41 37/37/37
f 41/41/41 42/42/42 37/37/37
