v -1.6839087 1.4595987000000001 4.22493894
v 1.6433190599999998 1.4525965200000002 4.22493894
v 1.6415775 -1.8299562599999997 4.22493894
v -1.6839087 1.4595987000000001 4.4073129
v 1.6433190599999998 1.4525976600000001 4.4073129
v 1.6415775 -1.8299562599999997 4.4073129
v 1.61272488 1.4292494400000004 6.9886212
v 1.78335102 1.4589088200000004 6.81510042
v 1.69682016 1.2735394800000004 6.69845766
v 1.52619402 1.2438801000000004 6.87197664
v 1.55137584 1.4165556600000004 6.57990924
v 1.38074922 1.3868953200000003 6.753430020000001
v 1.4672817 1.5722662200000004 6.87007368
v 1.6379057399999999 1.6019238000000005 6.6965529
v 1.68529074 1.4951401800000002 2.00151672
v 1.68529302 -1.87950282 2.00151672
v 1.55218566 1.5856184999999998 1.16001984
v 1.77670248 1.3633939199999998 1.16001984
v 1.776705 -1.74775656 1.1600198400000001
v 1.4722003799999999 1.4951401800000002 2.00151672
v 1.68529074 1.2842239200000003 2.00151672
v 1.68529074 -1.6685867999999997 2.00151672
v 1.8542316 1.66310328 1.17405942
v 1.8868369799999998 1.3633939199999998 1.17004578
v 1.79542524 1.2842239200000003 1.9333365000000002
v 1.76277042 1.5726736200000002 1.93734924
v 1.4722003799999999 1.60528632 1.93323396
v 1.55218566 1.69576608 1.16994414
v 1.85423388 -2.04746592 1.1740594200000003
v 1.76277042 -1.9570364999999998 1.93734924
v 1.7954275199999998 -1.6685867999999997 1.9333365000000002
v 1.8868394999999998 -1.74775656 1.1700457800000001
v 1.45885356 1.2681321600000002 4.4073129
v 1.457112 -1.6454912399999997 4.4073129
v -1.49944326 1.2751327800000003 4.4073129
v -1.81644324 1.58225214 1.93734924
v -1.8490558799999999 1.29168228 1.93323396
v -1.93953552 1.3716669000000001 1.16994414
v -1.90687284 1.67371356 1.17405942
v -1.6071633 1.7063186399999999 1.17004578
v -1.52799348 1.6149067200000002 1.9333365000000002
v -1.6071634799999999 1.59618414 1.16001984
v -1.52799348 1.50477264 2.00151672
v -1.73890974 1.50477264 2.00151672
v -1.73890974 1.29168228 2.00151672
v -1.8293880599999999 1.3716669000000001 1.16001984
v -1.6856505 -1.8229547999999998 4.22493894
v -1.6856505 -1.8229556999999996 4.4073129
v -1.80510192 -1.94303172 1.93734924
v -1.51453182 -1.9756446 1.93323396
v -1.5945171 -2.06612436 1.1699441400000001
v -1.8965630999999998 -2.0334606 1.1740594200000003
v -1.9291683 -1.7337521999999999 1.17004578
v -1.83775692 -1.6545819599999998 1.9333365000000002
v -1.8190339199999999 -1.7337521999999999 1.16001984
v -1.72762218 -1.6545819599999998 2.00151672
v -1.72762218 -1.8654984 2.00151672
v -1.51453182 -1.8654984 2.00151672
v -1.5945171 -1.95597588 1.1600198400000001
v -1.5011850599999998 -1.6384892999999996 4.4073129
v -1.44554064 1.5463087200000003 6.69845766
v -1.43086542 1.3737469200000003 6.87197664
v -1.60798746 1.4761045200000005 6.9886212
v -1.6226629199999998 1.6486663200000005 6.81510042
v -1.6006888799999999 1.4138825400000004 6.57990924
v -1.58601276 1.2413200200000003 6.753430020000001
v -1.76313642 1.3436794200000004 6.87007368
v -1.77781026 1.5162394200000004 6.6965529
v 1.7576848799999998 -1.8089545199999995 6.69845766
v 1.65800616 -1.9505779199999997 6.87197664
v 1.5881169 -1.7583153599999994 6.9886212
v 1.68779538 -1.6166924399999993 6.81510042
v 1.55371248 -1.8106715999999994 6.57990924
v 1.45403424 -1.9522958999999998 6.753430020000001
v 1.38414468 -1.7600310599999995 6.87007368
v 1.4838232199999999 -1.6184104199999996 6.6965529
v -1.49544672 -1.6474412999999994 6.69845766
v -1.43660922 -1.8103250999999994 6.87197664
v -1.63418802 -1.7572977599999995 6.9886212
v -1.69302576 -1.5944141999999994 6.81510042
v -1.61103414 -1.8155106599999995 6.57990924
v -1.55219568 -1.9783948799999993 6.753430020000001
v -1.74977634 -1.9253661599999994 6.87007368
v -1.8086120399999999 -1.7624837399999995 6.6965529
v 1.5648317999999999 -2.07667716 1.1700457800000001
v 1.4856620399999998 -1.98526494 1.9333365000000002
v 1.77411174 -1.9526113200000002 1.93734924
v 1.86454134 -2.0440720199999998 1.1740594200000003
v 1.56483204 -1.966542 1.1600198400000001
v 1.4856620399999998 -1.8751311599999996 2.00151672
v 1.69657824 -1.8751311599999996 2.00151672
v -2.46063102 -2.518548 1.0105197000000001
v -3.48066306 -0.04112399999999992 1.3290563999999998
v -3.63010938 -0.025853879999999916 1.3385348400000001
v -2.5892379 -2.5451383199999995 1.3382446200000002
v -2.5814252399999997 -2.61244308 1.0181478600000002
v -3.8151084 -0.06148920000000013 -2.08449282
v -2.56635588 2.52756132 1.33853484
v -3.27449274 1.27331346 1.09465116
v -3.1268055599999998 1.6386254999999998 0.9470727599999998
v -3.68183214 0.3023416799999999 -2.0850201599999996
v -3.54914724 0.5213044800000001 0.5870635799999999
v -3.4220027399999995 0.9074181600000001 0.9480496199999998
v -2.95486722 2.00218686 0.5861709599999998
v -2.89122414 2.25862014 -2.0850348
v -3.53818362 0.24960395999999985 -2.0921997
v -3.40696746 0.5735147999999999 0.56854704
v -3.27574812 0.89742312 0.9129437399999998
v -3.14453454 1.22133168 1.04570526
v -3.0133199999999998 1.5452407799999999 0.9129437399999998
v -2.88210276 1.86915276 0.5685470399999999
v -2.7508875 2.19306336 -2.0921997
v -2.72236794 2.63317794 -2.08449282
v 0.00340536 3.59539698 1.33853484
v -1.3796551799999999 3.2040783599999996 1.0946511599999997
v -1.01691 3.3579627 0.9470727599999997
v -2.3542682399999997 2.80553034 -2.0850201599999996
v -2.10561582 2.86653762 0.5870635799999997
v -1.74268752 3.04965684 0.9480496199999997
v -0.6382545 3.4934605199999997 0.5861709599999997
v -0.41192645999999994 3.62978394 -2.0850348000000003
v -0.02472438 3.44799066 1.3311575399999998
v -2.28998454 2.6666643 -2.0921997
v -1.9681610999999997 2.8029201599999998 0.5685470399999998
v -1.6463373 2.93917122 0.9129437399999998
v -1.3245175799999998 3.07542732 1.0457052599999999
v -1.00269642 3.21168318 0.9129437399999998
v -0.6808716 3.3479391 0.5685470399999998
v -0.35904906 3.48419496 -2.0921997000000006
v -0.03222966 3.78039618 -2.0844928200000004
v 2.56649256 2.53086732 1.33853484
v 1.3163438399999998 3.2398019999999996 1.0946511599999997
v 1.68165576 3.09211512 0.9470727599999997
v 0.34537206 3.6471414 -2.08502016
v 0.56433486 3.5144565599999997 0.5870635799999997
v 0.95044866 3.3873119999999997 0.9480496199999997
v 2.04521736 2.92017654 0.5861709599999997
v 2.30165064 2.85653388 -2.0850348
v 2.4517614 2.44932126 1.3290563999999996
v 0.29263458 3.50349264 -2.0921997000000006
v 0.6165456599999999 3.37227702 0.5685470399999998
v 0.9404533799999999 3.24105672 0.9129437399999998
v 1.26436212 3.10984404 1.0457052599999999
v 1.58827146 2.97862932 0.9129437399999998
v 1.91218314 2.8474125 0.5685470399999998
v 2.2360938 2.71619682 -2.0921997
v 2.6721091199999996 2.6868791400000003 -2.08449282
v 3.62653722 -0.025859039999999913 1.3385348400000001
v 3.2389098599999997 1.34336862 1.09465116
v 3.39279348 0.98062362 0.9470727599999998
v 2.84036178 2.3179817999999996 -2.0850201599999996
v 2.9013688799999997 2.0693293799999997 0.5870635799999998
v 3.0844880399999997 1.7064010799999998 0.9480496199999998
v 3.5282917799999995 0.6019680599999999 0.5861709599999999
v 3.6646152 0.3756398999999999 -2.0850348
v 2.7014955 2.2536975599999995 -2.0921997
v 2.83775136 1.9318748399999999 0.5685470399999999
v 2.97400224 1.61005026 0.9129437399999998
v 3.11025924 1.2882307199999998 1.04570526
v 3.2465151 0.96640986 0.9129437399999998
v 3.3827703 0.64458516 0.56854704
v 3.5190261599999997 0.32276225999999986 -2.0921997
v 3.8115364799999996 0.009775799999999871 -2.08449282
v -2.5217033399999997 -2.4661839 1.7486334000000001
v -2.5217033399999997 -2.47574796 1.3290564
v -3.53367282 0.002836860000000081 1.3293567
v -2.50120722 2.49357492 1.3290563999999996
v 2.48946096 -2.482671 1.3290564
v -3.5403575399999996 -0.001710659999999893 1.74741576
v -2.4704484599999996 -2.5066887 1.7583755400000003
v -2.5278351000000003 -2.50668756 1.7583755400000003
v -2.47045098 -2.44930368 1.7583755400000003
v -2.47045098 -2.44930368 1.3248532200000003
v -2.4959113200000003 2.4877610999999997 1.7510687399999998
v -3.51715944 0.025172280000000106 1.75837554
v -3.47658258 -0.015404159999999894 1.75837554
v -3.5171582999999997 -0.055983419999999895 1.75837554
v -3.5171582999999997 -0.05598341999999992 1.32485322
v 0.05287889999999999 3.49209756 1.3274798399999996
v -2.45407128 2.4857423400000003 1.3298959199999998
v -2.45069526 2.48696844 1.7486333999999997
v 0.03443484 3.5056553399999997 1.7474157599999998
v -2.4338148 2.4357168000000002 1.7583755399999998
v -2.4912 2.4357138 1.7583755399999998
v -2.4338148 2.4357168000000002 1.3248532199999998
v 2.5266922800000002 2.46042276 1.3280053799999998
v 2.5266929399999998 2.46042228 1.7510687399999998
v 0.06820332 3.48246852 1.7583755399999998
v 0.027627179999999998 3.44189184 1.7583755399999998
v -0.01295268 3.48246714 1.7583755399999998
v -0.01295268 3.48246714 1.3248532199999998
v 0.027627179999999998 3.44189184 1.3248532199999998
v 3.52016214 -0.06380513999999991 1.3274798399999999
v 2.5205736 2.4177843599999997 1.3298959199999998
v 2.5217997 2.41440834 1.7486333999999997
v 3.5349501599999997 -0.04997213999999989 1.74741576
v 2.47054872 2.3975278199999996 1.7583755399999998
v 2.4705450599999996 2.45491242 1.7583755399999998
v 2.47054872 2.3975278199999996 1.3248532199999998
v 2.46238542 -2.54275518 1.32747984
v 2.4842090399999996 -2.53908666 1.7474157600000002
v 3.50991804 -0.07682387999999989 1.75837554
v 3.46934118 -0.03624827999999989 1.75837554
v 3.5099157599999997 0.0043309800000001075 1.75837554
v 3.46934118 -0.03624827999999992 1.32485322
v 2.44514394 -2.54688948 1.7583755400000003
v 2.44514304 -2.48950584 1.7583755400000003
v 2.50252716 -2.48950284 1.7583755400000003
v 2.44514304 -2.48950584 1.3248532200000003
v -0.02831682 -3.5534104199999996 1.7486334000000001
v 0.022935599999999997 -3.5365299 1.7583755400000003
v 0.02293812 -3.59391516 1.7583755400000003
v -0.0344484 -3.5939142599999996 1.7583755400000003
v 0.034002239999999996 -3.5833074 1.3280053800000002
v -0.02831682 -3.56297448 1.3290564
v 0.022935599999999997 -3.5365299 1.3248532200000003
v 3.4968741 0.003977160000000081 1.3295818799999999
v -2.45938428 -2.49608046 1.3280053800000002
v -2.4866072999999997 2.41957626 1.3280053799999998
v 1.6433190599999998 1.4525976600000001 4.4073129
v 1.6433190599999998 1.4525965200000002 4.22493894
v 1.52619402 1.2438801000000004 6.87197664
v 1.69682016 1.2735394800000004 6.69845766
v 1.61272488 1.4292494400000004 6.9886212
v 1.52619402 1.2438801000000004 6.87197664
v 1.38074922 1.3868953200000003 6.753430020000001
v 1.78335102 1.4589088200000004 6.81510042
v 1.61272488 1.4292494400000004 6.9886212
v 1.4672817 1.5722662200000004 6.87007368
v 1.69682016 1.2735394800000004 6.69845766
v 1.78335102 1.4589088200000004 6.81510042
v 1.6379057399999999 1.6019238000000005 6.6965529
v 1.55137584 1.4165556600000004 6.57990924
v 1.76277042 1.5726736200000002 1.93734924
v 1.8542316 1.66310328 1.17405942
v 1.79542524 1.2842239200000003 1.9333365000000002
v 1.8868369799999998 1.3633939199999998 1.17004578
v 1.68529074 1.2842239200000003 2.00151672
v 1.76277042 1.5726736200000002 1.93734924
v 1.79542524 1.2842239200000003 1.9333365000000002
v 1.68529074 1.4951401800000002 2.00151672
v 1.4722003799999999 1.60528632 1.93323396
v 1.4722003799999999 1.4951401800000002 2.00151672
v 1.55218566 1.69576608 1.16994414
v 1.4722003799999999 1.60528632 1.93323396
v 1.7954275199999998 -1.6685867999999997 1.9333365000000002
v 1.76277042 -1.9570364999999998 1.93734924
v 1.68529074 -1.6685867999999997 2.00151672
v 1.8868394999999998 -1.74775656 1.1700457800000001
v 1.7954275199999998 -1.6685867999999997 1.9333365000000002
v 1.38074922 1.3868953200000003 6.753430020000001
v 1.55137584 1.4165556600000004 6.57990924
v 1.6379057399999999 1.6019238000000005 6.6965529
v 1.4672817 1.5722662200000004 6.87007368
v 1.6433190599999998 1.4525976600000001 4.4073129
v 1.6415775 -1.8299562599999997 4.4073129
v 1.45885356 1.2681321600000002 4.4073129
v -1.6839087 1.4595987000000001 4.4073129
v 1.6433190599999998 1.4525976600000001 4.4073129
v -1.81644324 1.58225214 1.93734924
v -1.90687284 1.67371356 1.17405942
v -1.52799348 1.6149067200000002 1.9333365000000002
v -1.6071633 1.7063186399999999 1.17004578
v -1.52799348 1.50477264 2.00151672
v -1.81644324 1.58225214 1.93734924
v -1.52799348 1.6149067200000002 1.9333365000000002
v -1.73890974 1.50477264 2.00151672
v -1.8490558799999999 1.29168228 1.93323396
v -1.73890974 1.29168228 2.00151672
v -1.93953552 1.3716669000000001 1.16994414
v -1.8490558799999999 1.29168228 1.93323396
v 1.6415775 -1.8299562599999997 4.4073129
v 1.6415775 -1.8299562599999997 4.22493894
v -1.6839087 1.4595987000000001 4.4073129
v -1.6856505 -1.8229556999999996 4.4073129
v -1.6856505 -1.8229547999999998 4.22493894
v -1.6839087 1.4595987000000001 4.22493894
v -1.80510192 -1.94303172 1.93734924
v -1.8965630999999998 -2.0334606 1.1740594200000003
v -1.83775692 -1.6545819599999998 1.9333365000000002
v -1.9291683 -1.7337521999999999 1.17004578
v -1.72762218 -1.6545819599999998 2.00151672
v -1.80510192 -1.94303172 1.93734924
v -1.83775692 -1.6545819599999998 1.9333365000000002
v -1.72762218 -1.8654984 2.00151672
v -1.51453182 -1.9756446 1.93323396
v -1.51453182 -1.8654984 2.00151672
v -1.5945171 -2.06612436 1.1699441400000001
v -1.51453182 -1.9756446 1.93323396
v -1.49944326 1.2751327800000003 4.4073129
v -1.6856505 -1.8229556999999996 4.4073129
v -1.6839087 1.4595987000000001 4.4073129
v -1.5011850599999998 -1.6384892999999996 4.4073129
v 1.457112 -1.6454912399999997 4.4073129
v 1.6415775 -1.8299562599999997 4.4073129
v -1.6856505 -1.8229556999999996 4.4073129
v -1.43086542 1.3737469200000003 6.87197664
v -1.44554064 1.5463087200000003 6.69845766
v -1.60798746 1.4761045200000005 6.9886212
v -1.43086542 1.3737469200000003 6.87197664
v -1.58601276 1.2413200200000003 6.753430020000001
v -1.6226629199999998 1.6486663200000005 6.81510042
v -1.60798746 1.4761045200000005 6.9886212
v -1.76313642 1.3436794200000004 6.87007368
v -1.44554064 1.5463087200000003 6.69845766
v -1.6226629199999998 1.6486663200000005 6.81510042
v -1.77781026 1.5162394200000004 6.6965529
v -1.6006888799999999 1.4138825400000004 6.57990924
v -1.58601276 1.2413200200000003 6.753430020000001
v -1.6006888799999999 1.4138825400000004 6.57990924
v -1.77781026 1.5162394200000004 6.6965529
v -1.76313642 1.3436794200000004 6.87007368
v 1.65800616 -1.9505779199999997 6.87197664
v 1.7576848799999998 -1.8089545199999995 6.69845766
v 1.5881169 -1.7583153599999994 6.9886212
v 1.65800616 -1.9505779199999997 6.87197664
v 1.45403424 -1.9522958999999998 6.753430020000001
v 1.68779538 -1.6166924399999993 6.81510042
v 1.5881169 -1.7583153599999994 6.9886212
v 1.38414468 -1.7600310599999995 6.87007368
v 1.7576848799999998 -1.8089545199999995 6.69845766
v 1.68779538 -1.6166924399999993 6.81510042
v 1.4838232199999999 -1.6184104199999996 6.6965529
v 1.55371248 -1.8106715999999994 6.57990924
v 1.45403424 -1.9522958999999998 6.753430020000001
v 1.55371248 -1.8106715999999994 6.57990924
v 1.4838232199999999 -1.6184104199999996 6.6965529
v 1.38414468 -1.7600310599999995 6.87007368
v -1.43660922 -1.8103250999999994 6.87197664
v -1.49544672 -1.6474412999999994 6.69845766
v -1.63418802 -1.7572977599999995 6.9886212
v -1.43660922 -1.8103250999999994 6.87197664
v -1.55219568 -1.9783948799999993 6.753430020000001
v -1.69302576 -1.5944141999999994 6.81510042
v -1.63418802 -1.7572977599999995 6.9886212
v -1.74977634 -1.9253661599999994 6.87007368
v -1.49544672 -1.6474412999999994 6.69845766
v -1.69302576 -1.5944141999999994 6.81510042
v -1.8086120399999999 -1.7624837399999995 6.6965529
v -1.61103414 -1.8155106599999995 6.57990924
v -1.55219568 -1.9783948799999993 6.753430020000001
v -1.61103414 -1.8155106599999995 6.57990924
v -1.8086120399999999 -1.7624837399999995 6.6965529
v -1.74977634 -1.9253661599999994 6.87007368
v 1.4856620399999998 -1.98526494 1.9333365000000002
v 1.5648317999999999 -2.07667716 1.1700457800000001
v 1.4856620399999998 -1.8751311599999996 2.00151672
v 1.77411174 -1.9526113200000002 1.93734924
v 1.4856620399999998 -1.98526494 1.9333365000000002
v -2.56635588 2.52756132 1.33853484
v -3.1268055599999998 1.6386254999999998 0.9470727599999998
v -3.63010938 -0.025853879999999916 1.3385348400000001
v -2.56635588 2.52756132 1.33853484
v -3.54914724 0.5213044800000001 0.5870635799999999
v -3.68183214 0.3023416799999999 -2.0850201599999996
v -3.4220027399999995 0.9074181600000001 0.9480496199999998
v -3.27449274 1.27331346 1.09465116
v -3.1268055599999998 1.6386254999999998 0.9470727599999998
v -2.95486722 2.00218686 0.5861709599999998
v -2.89122414 2.25862014 -2.0850348
v 0.00340536 3.59539698 1.33853484
v -1.01691 3.3579627 0.9470727599999997
v -2.4866072999999997 2.41957626 1.3280053799999998
v -2.56635588 2.52756132 1.33853484
v 0.00340536 3.59539698 1.33853484
v -2.10561582 2.86653762 0.5870635799999997
v -2.3542682399999997 2.80553034 -2.0850201599999996
v -1.74268752 3.04965684 0.9480496199999997
v -1.3796551799999999 3.2040783599999996 1.0946511599999997
v -1.01691 3.3579627 0.9470727599999997
v -0.6382545 3.4934605199999997 0.5861709599999997
v -0.41192645999999994 3.62978394 -2.0850348000000003
v 2.56649256 2.53086732 1.33853484
v 1.68165576 3.09211512 0.9470727599999997
v -0.02472438 3.44799066 1.3311575399999998
v 0.00340536 3.59539698 1.33853484
v 2.56649256 2.53086732 1.33853484
v 0.56433486 3.5144565599999997 0.5870635799999997
v 0.34537206 3.6471414 -2.08502016
v 0.95044866 3.3873119999999997 0.9480496199999997
v 1.3163438399999998 3.2398019999999996 1.0946511599999997
v 1.68165576 3.09211512 0.9470727599999997
v 2.04521736 2.92017654 0.5861709599999997
v 2.30165064 2.85653388 -2.0850348
v 3.62653722 -0.025859039999999913 1.3385348400000001
v 3.39279348 0.98062362 0.9470727599999998
v 2.4517614 2.44932126 1.3290563999999996
v 2.56649256 2.53086732 1.33853484
v 3.62653722 -0.025859039999999913 1.3385348400000001
v 2.9013688799999997 2.0693293799999997 0.5870635799999998
v 2.84036178 2.3179817999999996 -2.0850201599999996
v 3.0844880399999997 1.7064010799999998 0.9480496199999998
v 3.2389098599999997 1.34336862 1.09465116
v 3.39279348 0.98062362 0.9470727599999998
v 3.5282917799999995 0.6019680599999999 0.5861709599999999
v 3.6646152 0.3756398999999999 -2.0850348
v -2.45938428 -2.49608046 1.3280053800000002
v -2.5278351000000003 -2.50668756 1.7583755400000003
v -2.4704484599999996 -2.5066887 1.7583755400000003
v -2.5217033399999997 -2.4661839 1.7486334000000001
v -2.5278351000000003 -2.50668756 1.7583755400000003
v -2.5217033399999997 -2.47574796 1.3290564
v -2.5217033399999997 -2.47574796 1.3290564
v -2.47045098 -2.44930368 1.7583755400000003
v -2.5217033399999997 -2.4661839 1.7486334000000001
v -2.47045098 -2.44930368 1.3248532200000003
v -2.45938428 -2.49608046 1.3280053800000002
v -2.4704484599999996 -2.5066887 1.7583755400000003
v -2.47045098 -2.44930368 1.7583755400000003
v -3.5403575399999996 -0.001710659999999893 1.74741576
v -3.5171582999999997 -0.055983419999999895 1.75837554
v -3.51715944 0.025172280000000106 1.75837554
v -3.5403575399999996 -0.001710659999999893 1.74741576
v -3.53367282 0.002836860000000081 1.3293567
v -3.53367282 0.002836860000000081 1.3293567
v -3.48066306 -0.04112399999999992 1.3290563999999998
v -3.47658258 -0.015404159999999894 1.75837554
v -3.51715944 0.025172280000000106 1.75837554
v -3.48066306 -0.04112399999999992 1.3290563999999998
v -3.5171582999999997 -0.05598341999999992 1.32485322
v -3.5171582999999997 -0.055983419999999895 1.75837554
v -3.47658258 -0.015404159999999894 1.75837554
v -2.4866072999999997 2.41957626 1.3280053799999998
v -2.4959113200000003 2.4877610999999997 1.7510687399999998
v -2.4912 2.4357138 1.7583755399999998
v -2.50120722 2.49357492 1.3290563999999996
v -2.45069526 2.48696844 1.7486333999999997
v -2.4959113200000003 2.4877610999999997 1.7510687399999998
v -2.45407128 2.4857423400000003 1.3298959199999998
v -2.4338148 2.4357168000000002 1.7583755399999998
v -2.45069526 2.48696844 1.7486333999999997
v -2.4338148 2.4357168000000002 1.3248532199999998
v -2.4866072999999997 2.41957626 1.3280053799999998
v -2.4912 2.4357138 1.7583755399999998
v -2.4338148 2.4357168000000002 1.7583755399999998
v 0.03443484 3.5056553399999997 1.7474157599999998
v -0.01295268 3.48246714 1.7583755399999998
v 0.06820332 3.48246852 1.7583755399999998
v 0.03443484 3.5056553399999997 1.7474157599999998
v 0.05287889999999999 3.49209756 1.3274798399999996
v 0.05287889999999999 3.49209756 1.3274798399999996
v 0.027627179999999998 3.44189184 1.7583755399999998
v 0.06820332 3.48246852 1.7583755399999998
v 0.027627179999999998 3.44189184 1.3248532199999998
v -0.01295268 3.48246714 1.3248532199999998
v -0.01295268 3.48246714 1.7583755399999998
v 0.027627179999999998 3.44189184 1.7583755399999998
v 2.4517614 2.44932126 1.3290563999999996
v 2.5266929399999998 2.46042228 1.7510687399999998
v 2.4705450599999996 2.45491242 1.7583755399999998
v 2.5266922800000002 2.46042276 1.3280053799999998
v 2.5217997 2.41440834 1.7486333999999997
v 2.5266929399999998 2.46042228 1.7510687399999998
v 2.5205736 2.4177843599999997 1.3298959199999998
v 2.47054872 2.3975278199999996 1.7583755399999998
v 2.5217997 2.41440834 1.7486333999999997
v 2.47054872 2.3975278199999996 1.3248532199999998
v 2.4517614 2.44932126 1.3290563999999996
v 2.4705450599999996 2.45491242 1.7583755399999998
v 2.47054872 2.3975278199999996 1.7583755399999998
v 3.4968741 0.003977160000000081 1.3295818799999999
v 3.5349501599999997 -0.04997213999999989 1.74741576
v 3.5099157599999997 0.0043309800000001075 1.75837554
v 3.50991804 -0.07682387999999989 1.75837554
v 3.5349501599999997 -0.04997213999999989 1.74741576
v 3.52016214 -0.06380513999999991 1.3274798399999999
v 3.52016214 -0.06380513999999991 1.3274798399999999
v 3.46934118 -0.03624827999999989 1.75837554
v 3.50991804 -0.07682387999999989 1.75837554
v 3.46934118 -0.03624827999999992 1.32485322
v 3.4968741 0.003977160000000081 1.3295818799999999
v 3.5099157599999997 0.0043309800000001075 1.75837554
v 3.46934118 -0.03624827999999989 1.75837554
v 2.4842090399999996 -2.53908666 1.7474157600000002
v 2.50252716 -2.48950284 1.7583755400000003
v 2.44514394 -2.54688948 1.7583755400000003
v 2.4842090399999996 -2.53908666 1.7474157600000002
v 2.46238542 -2.54275518 1.32747984
v 2.46238542 -2.54275518 1.32747984
v 2.44514304 -2.48950584 1.7583755400000003
v 2.44514394 -2.54688948 1.7583755400000003
v 2.44514304 -2.48950584 1.3248532200000003
v 2.48946096 -2.482671 1.3290564
v 2.50252716 -2.48950284 1.7583755400000003
v 2.44514304 -2.48950584 1.7583755400000003
v -0.0344484 -3.5939142599999996 1.7583755400000003
v 0.02293812 -3.59391516 1.7583755400000003
v -0.02831682 -3.5534104199999996 1.7486334000000001
v -0.0344484 -3.5939142599999996 1.7583755400000003
v -0.02831682 -3.56297448 1.3290564
v -0.02831682 -3.56297448 1.3290564
v 0.022935599999999997 -3.5365299 1.7583755400000003
v -0.02831682 -3.5534104199999996 1.7486334000000001
v 0.022935599999999997 -3.5365299 1.3248532200000003
v 0.034002239999999996 -3.5833074 1.3280053800000002
v 0.02293812 -3.59391516 1.7583755400000003
v 0.022935599999999997 -3.5365299 1.7583755400000003
v -2.56635588 2.52756132 1.33853484
v -2.72236794 2.63317794 -2.08449282
v 0.00340536 3.59539698 1.33853484
v -0.03222966 3.78039618 -2.0844928200000004
v 2.56649256 2.53086732 1.33853484
v 2.6721091199999996 2.6868791400000003 -2.08449282
vt 0.963133 0.985676
vt 0.963662 0.608345
vt 0.963662 0.608345
vt 0.940844 0.985676
vt 0.940594 0.608346
vt 0.940594 0.608346
vt 0.409171 0.126549
vt 0.387894 0.106958
vt 0.368561 0.126038
vt 0.389837 0.145629
vt 0.349156 0.145143
vt 0.370433 0.164735
vt 0.390042 0.183523
vt 0.368214 0.088145
vt 0.207435 0.061214
vt 0.207332 0.074691
vt 0.311558 0.114916
vt 0.311916 0.021240
vt 0.311558 0.114916
vt 0.203104 0.098259
vt 0.208194 0.023352
vt 0.203104 0.098259
vt 0.314849 0.067946
vt 0.312185 0.033808
vt 0.217934 0.034928
vt 0.220464 0.067803
vt 0.217737 0.100965
vt 0.311836 0.102387
vt 0.314849 0.067946
vt 0.220464 0.067803
vt 0.217737 0.100965
vt 0.311836 0.102387
vt 0.920738 0.965103
vt 0.920986 0.632207
vt 0.920738 0.965103
vt 0.220464 0.067803
vt 0.217737 0.100965
vt 0.311836 0.102387
vt 0.314849 0.067946
vt 0.312185 0.033808
vt 0.217934 0.034928
vt 0.311916 0.021240
vt 0.208194 0.023352
vt 0.207435 0.061214
vt 0.203104 0.098259
vt 0.311558 0.114916
vt 0.963662 0.608345
vt 0.940594 0.608346
vt 0.220464 0.067803
vt 0.217737 0.100965
vt 0.311836 0.102387
vt 0.314849 0.067946
vt 0.312185 0.033808
vt 0.217934 0.034928
vt 0.311916 0.021240
vt 0.208194 0.023352
vt 0.207435 0.061214
vt 0.203104 0.098259
vt 0.311558 0.114916
vt 0.920738 0.965103
vt 0.368561 0.126038
vt 0.389837 0.145629
vt 0.409171 0.126549
vt 0.387894 0.106958
vt 0.349156 0.145143
vt 0.370433 0.164735
vt 0.390042 0.183523
vt 0.368214 0.088145
vt 0.368561 0.126038
vt 0.389837 0.145629
vt 0.409171 0.126549
vt 0.387894 0.106958
vt 0.349156 0.145143
vt 0.370433 0.164735
vt 0.390042 0.183523
vt 0.368214 0.088145
vt 0.368561 0.126038
vt 0.389837 0.145629
vt 0.409171 0.126549
vt 0.387894 0.106958
vt 0.349156 0.145143
vt 0.370433 0.164735
vt 0.390042 0.183523
vt 0.368214 0.088145
vt 0.312185 0.033808
vt 0.217934 0.034928
vt 0.220464 0.067803
vt 0.314849 0.067946
vt 0.311916 0.021240
vt 0.208194 0.023352
vt 0.207435 0.061214
vt 0.010391 0.929527
vt 0.012370 0.032409
vt 0.013243 0.050447
vt 0.036278 0.893384
vt 0.028721 0.933147
vt 0.014191 0.488081
vt 0.356131 0.030816
vt 0.182211 0.076684
vt 0.233724 0.091805
vt 0.065044 0.486037
vt 0.084695 0.144571
vt 0.133305 0.096332
vt 0.084695 0.144571
vt 0.065044 0.486037
vt 0.081965 0.492394
vt 0.101432 0.151198
vt 0.141355 0.112801
vt 0.183772 0.093420
vt 0.228653 0.108595
vt 0.275545 0.144888
vt 0.341777 0.476920
vt 0.014191 0.488081
vt 0.356131 0.030816
vt 0.182211 0.076684
vt 0.233724 0.091805
vt 0.065044 0.486037
vt 0.084695 0.144571
vt 0.133305 0.096332
vt 0.084695 0.144571
vt 0.065044 0.486037
vt 0.347735 0.014680
vt 0.081965 0.492394
vt 0.101432 0.151198
vt 0.141355 0.112801
vt 0.183772 0.093420
vt 0.228653 0.108595
vt 0.275545 0.144888
vt 0.341777 0.476920
vt 0.014191 0.488081
vt 0.356131 0.030816
vt 0.182211 0.076684
vt 0.233724 0.091805
vt 0.065044 0.486037
vt 0.084695 0.144571
vt 0.133305 0.096332
vt 0.084695 0.144571
vt 0.065044 0.486037
vt 0.347735 0.014680
vt 0.081965 0.492394
vt 0.101432 0.151198
vt 0.141355 0.112801
vt 0.183772 0.093420
vt 0.228653 0.108595
vt 0.275545 0.144888
vt 0.341777 0.476920
vt 0.014191 0.488081
vt 0.356131 0.030816
vt 0.182211 0.076684
vt 0.233724 0.091805
vt 0.065044 0.486037
vt 0.084695 0.144571
vt 0.133305 0.096332
vt 0.084695 0.144571
vt 0.065044 0.486037
vt 0.081965 0.492394
vt 0.101432 0.151198
vt 0.141355 0.112801
vt 0.183772 0.093420
vt 0.228653 0.108595
vt 0.275545 0.144888
vt 0.341777 0.476920
vt 0.014191 0.488081
vt 0.108421 0.970999
vt 0.005691 0.959547
vt 0.005691 0.959547
vt 0.005691 0.959547
vt 0.005691 0.948096
vt 0.121324 0.971001
vt 0.121324 0.982741
vt 0.121324 0.971001
vt 0.108562 0.982741
vt 0.005832 0.982741
vt 0.121324 0.971001
vt 0.108421 0.970999
vt 0.108562 0.982741
vt 0.121324 0.982741
vt 0.005691 0.948096
vt 0.005691 0.959547
vt 0.005832 0.971001
vt 0.108421 0.970999
vt 0.121324 0.971001
vt 0.108562 0.982741
vt 0.121324 0.982741
vt 0.005832 0.982741
vt 0.005691 0.959547
vt 0.121324 0.971001
vt 0.108421 0.970999
vt 0.108562 0.982741
vt 0.121324 0.982741
vt 0.005691 0.948096
vt 0.005832 0.982741
vt 0.005691 0.959547
vt 0.005832 0.971001
vt 0.108421 0.970999
vt 0.121324 0.971001
vt 0.108562 0.982741
vt 0.121324 0.982741
vt 0.005832 0.982741
vt 0.005691 0.959547
vt 0.121324 0.971001
vt 0.108421 0.970999
vt 0.108562 0.982741
vt 0.121324 0.982741
vt 0.005832 0.982741
vt 0.108421 0.970999
vt 0.108562 0.982741
vt 0.121324 0.982741
vt 0.005832 0.982741
vt 0.108421 0.970999
vt 0.108562 0.982741
vt 0.121324 0.982741
vt 0.121324 0.971001
vt 0.005691 0.948096
vt 0.005691 0.959547
vt 0.005832 0.982741
vt 0.347735 0.014680
vt 0.017847 0.890226
vt 0.347735 0.014680
vt 0.940844 0.985676
vt 0.963133 0.985676
vt 0.389837 0.145629
vt 0.368561 0.126038
vt 0.409446 0.164418
vt 0.389837 0.145629
vt 0.370433 0.164735
vt 0.387894 0.106958
vt 0.408884 0.087050
vt 0.389204 0.068237
vt 0.368561 0.126038
vt 0.387894 0.106958
vt 0.368214 0.088145
vt 0.348881 0.107225
vt 0.220464 0.067803
vt 0.314849 0.067946
vt 0.217934 0.034928
vt 0.312185 0.033808
vt 0.203299 0.037629
vt 0.220464 0.067803
vt 0.217934 0.034928
vt 0.207332 0.074691
vt 0.217737 0.100965
vt 0.207862 0.112625
vt 0.311836 0.102387
vt 0.217737 0.100965
vt 0.217737 0.100965
vt 0.220464 0.067803
vt 0.207862 0.112625
vt 0.311836 0.102387
vt 0.217737 0.100965
vt 0.370433 0.164735
vt 0.349443 0.184643
vt 0.369052 0.203431
vt 0.390042 0.183523
vt 0.940844 0.985676
vt 0.940594 0.608346
vt 0.920986 0.632207
vt 0.940844 0.985676
vt 0.940594 0.608346
vt 0.220464 0.067803
vt 0.314849 0.067946
vt 0.217934 0.034928
vt 0.312185 0.033808
vt 0.203299 0.037629
vt 0.220464 0.067803
vt 0.217934 0.034928
vt 0.207332 0.074691
vt 0.217737 0.100965
vt 0.207862 0.112625
vt 0.311836 0.102387
vt 0.217737 0.100965
vt 0.940844 0.985676
vt 0.963133 0.985676
vt 0.940594 0.608346
vt 0.940844 0.985676
vt 0.963133 0.985676
vt 0.963662 0.608345
vt 0.220464 0.067803
vt 0.314849 0.067946
vt 0.217934 0.034928
vt 0.312185 0.033808
vt 0.203299 0.037629
vt 0.220464 0.067803
vt 0.217934 0.034928
vt 0.207332 0.074691
vt 0.217737 0.100965
vt 0.207862 0.112625
vt 0.311836 0.102387
vt 0.217737 0.100965
vt 0.920986 0.632207
vt 0.940844 0.985676
vt 0.940594 0.608346
vt 0.920986 0.632207
vt 0.920738 0.965103
vt 0.940844 0.985676
vt 0.940594 0.608346
vt 0.389837 0.145629
vt 0.368561 0.126038
vt 0.409446 0.164418
vt 0.389837 0.145629
vt 0.370433 0.164735
vt 0.387894 0.106958
vt 0.408884 0.087050
vt 0.389204 0.068237
vt 0.368561 0.126038
vt 0.387894 0.106958
vt 0.368214 0.088145
vt 0.348881 0.107225
vt 0.370433 0.164735
vt 0.349443 0.184643
vt 0.369052 0.203431
vt 0.390042 0.183523
vt 0.389837 0.145629
vt 0.368561 0.126038
vt 0.409446 0.164418
vt 0.389837 0.145629
vt 0.370433 0.164735
vt 0.387894 0.106958
vt 0.408884 0.087050
vt 0.389204 0.068237
vt 0.368561 0.126038
vt 0.387894 0.106958
vt 0.368214 0.088145
vt 0.348881 0.107225
vt 0.370433 0.164735
vt 0.349443 0.184643
vt 0.369052 0.203431
vt 0.390042 0.183523
vt 0.389837 0.145629
vt 0.368561 0.126038
vt 0.409446 0.164418
vt 0.389837 0.145629
vt 0.370433 0.164735
vt 0.387894 0.106958
vt 0.408884 0.087050
vt 0.389204 0.068237
vt 0.368561 0.126038
vt 0.387894 0.106958
vt 0.368214 0.088145
vt 0.348881 0.107225
vt 0.370433 0.164735
vt 0.349443 0.184643
vt 0.369052 0.203431
vt 0.390042 0.183523
vt 0.217934 0.034928
vt 0.312185 0.033808
vt 0.203299 0.037629
vt 0.220464 0.067803
vt 0.217934 0.034928
vt 0.013243 0.050447
vt 0.133305 0.096332
vt 0.013243 0.050447
vt 0.356131 0.030816
vt 0.084695 0.144571
vt 0.065044 0.486037
vt 0.133305 0.096332
vt 0.182211 0.076684
vt 0.233724 0.091805
vt 0.288591 0.131782
vt 0.356257 0.469437
vt 0.013243 0.050447
vt 0.133305 0.096332
vt 0.012370 0.032409
vt 0.013243 0.050447
vt 0.356131 0.030816
vt 0.084695 0.144571
vt 0.065044 0.486037
vt 0.133305 0.096332
vt 0.182211 0.076684
vt 0.233724 0.091805
vt 0.288591 0.131782
vt 0.356257 0.469437
vt 0.013243 0.050447
vt 0.133305 0.096332
vt 0.012370 0.032409
vt 0.013243 0.050447
vt 0.356131 0.030816
vt 0.084695 0.144571
vt 0.065044 0.486037
vt 0.133305 0.096332
vt 0.182211 0.076684
vt 0.233724 0.091805
vt 0.288591 0.131782
vt 0.356257 0.469437
vt 0.013243 0.050447
vt 0.133305 0.096332
vt 0.012370 0.032409
vt 0.013243 0.050447
vt 0.356131 0.030816
vt 0.084695 0.144571
vt 0.065044 0.486037
vt 0.133305 0.096332
vt 0.182211 0.076684
vt 0.233724 0.091805
vt 0.288591 0.131782
vt 0.356257 0.469437
vt 0.005691 0.948096
vt 0.108421 0.959547
vt 0.108421 0.948096
vt 0.108421 0.970999
vt 0.108421 0.959547
vt 0.005691 0.959547
vt 0.005832 0.971001
vt 0.108562 0.982741
vt 0.108421 0.970999
vt 0.005832 0.982741
vt 0.005832 0.994481
vt 0.108562 0.994424
vt 0.108562 0.982741
vt 0.108421 0.959547
vt 0.108421 0.948096
vt 0.108421 0.970999
vt 0.108421 0.959547
vt 0.005691 0.959547
vt 0.005832 0.971001
vt 0.005832 0.982741
vt 0.108562 0.982741
vt 0.108421 0.970999
vt 0.005832 0.982741
vt 0.005832 0.994481
vt 0.108562 0.994424
vt 0.108562 0.982741
vt 0.005691 0.948096
vt 0.108421 0.959547
vt 0.108421 0.948096
vt 0.005691 0.959547
vt 0.108421 0.970999
vt 0.108421 0.959547
vt 0.005832 0.971001
vt 0.108562 0.982741
vt 0.108421 0.970999
vt 0.005832 0.982741
vt 0.005832 0.994481
vt 0.108562 0.994424
vt 0.108562 0.982741
vt 0.108421 0.959547
vt 0.108421 0.948096
vt 0.108421 0.970999
vt 0.108421 0.959547
vt 0.005691 0.959547
vt 0.005832 0.971001
vt 0.108562 0.982741
vt 0.108421 0.970999
vt 0.005832 0.982741
vt 0.005832 0.994481
vt 0.108562 0.994424
vt 0.108562 0.982741
vt 0.005691 0.948096
vt 0.108421 0.959547
vt 0.108421 0.948096
vt 0.005691 0.959547
vt 0.108421 0.970999
vt 0.108421 0.959547
vt 0.005832 0.971001
vt 0.108562 0.982741
vt 0.108421 0.970999
vt 0.005832 0.982741
vt 0.005832 0.994481
vt 0.108562 0.994424
vt 0.108562 0.982741
vt 0.005691 0.948096
vt 0.108421 0.959547
vt 0.108421 0.948096
vt 0.108421 0.970999
vt 0.108421 0.959547
vt 0.005691 0.959547
vt 0.005832 0.971001
vt 0.108562 0.982741
vt 0.108421 0.970999
vt 0.005832 0.982741
vt 0.005832 0.994481
vt 0.108562 0.994424
vt 0.108562 0.982741
vt 0.108421 0.959547
vt 0.108421 0.948096
vt 0.108421 0.970999
vt 0.108421 0.959547
vt 0.005691 0.959547
vt 0.005832 0.971001
vt 0.108562 0.982741
vt 0.108421 0.970999
vt 0.005832 0.982741
vt 0.005832 0.994481
vt 0.108562 0.994424
vt 0.108562 0.982741
vt 0.108421 0.959547
vt 0.108421 0.948096
vt 0.108421 0.970999
vt 0.108421 0.959547
vt 0.005691 0.959547
vt 0.005832 0.971001
vt 0.108562 0.982741
vt 0.108421 0.970999
vt 0.005832 0.982741
vt 0.005832 0.994481
vt 0.108562 0.994424
vt 0.108562 0.982741
vt 0.013243 0.050447
vt 0.014191 0.488081
vt 0.013243 0.050447
vt 0.014191 0.488081
vt 0.013243 0.050447
vt 0.014191 0.488081
vn 0.002104 0.999998 -3.000000000061232E-06
vn 0.002105 0.999998 -6.000000000061232E-06
vn 1 -0.000531 3.251437251736223E-20
vn 0.002104 0.999998 -6.123221749268775E-17
vn 0.002104 0.999998 -3.000000000061232E-06
vn 1 -0.000531 3.251437251736223E-20
vn 0.617074 -0.604818 0.503403
vn 0.617076 -0.604816 0.503403
vn 0.617074 -0.604818 0.503403
vn 0.617072 -0.60482 0.503403
vn -0.368263 -0.786058 -0.49648299999999995
vn -0.368263 -0.786058 -0.49648299999999995
vn -0.695796 -0.12071699999999996 0.708022
vn 0.368269 0.786062 0.49647199999999997
vn 0.251885 0.40981100000000004 0.876703
vn 0.565169 -0.028595999999999948 0.82448
vn -0.995563 0.008443999999999995 -0.093721
vn -0.026375 -0.994519 -0.10117699999999995
vn 0.008444 0.995653 -0.09275600000000006
vn 0 0.526896 0.84993
vn -0.062007 -0.993037 -0.10016299999999995
vn 0.526356 6.000000000052064E-06 0.850264
vn 0.104865 0.986034 0.12938399999999994
vn 0.985653 0.10763100000000002 0.130016
vn 0.985497 0.10976600000000002 0.129408
vn 0.106844 0.985896 0.12881899999999993
vn 0.108821 0.985753 0.12825399999999995
vn 0.106844 0.985896 0.12881899999999993
vn 0.985803 -0.10549699999999998 0.130625
vn 0.985652 -0.10763499999999998 0.130018
vn 0.985496 -0.10977399999999998 0.129409
vn 0.985652 -0.10763499999999998 0.130018
vn 0 6.123233995736766E-17 1
vn 0 6.123233995736766E-17 1
vn 0 6.123233995736766E-17 1
vn -0.985896 0.10684300000000001 0.128819
vn -0.985753 0.10882200000000002 0.128254
vn -0.985896 0.10684300000000001 0.128819
vn -0.986034 0.10486500000000001 0.129384
vn -0.107631 0.985653 0.13001599999999994
vn -0.109765 0.985497 0.12940899999999994
vn 0.994519 -0.026376000000000007 -0.101177
vn 0.993037 -0.06200800000000001 -0.100163
vn -0.409811 0.2518850000000001 0.876703
vn -0.526896 5.204320269996549E-17 0.84993
vn -0.008444 -0.995563 -0.09372099999999994
vn -0.002104 -0.999998 -4.999999999938768E-06
vn -0.002104 -0.999998 -2.999999999938768E-06
vn -0.106846 -0.985895 0.12881900000000004
vn -0.108822 -0.985753 0.12825400000000006
vn -0.106846 -0.985895 0.12881900000000004
vn -0.104868 -0.986034 0.12938400000000005
vn -0.985653 -0.10763199999999999 0.130015
vn -0.985497 -0.10976699999999999 0.129408
vn 0.026375 0.994519 -0.10117800000000006
vn 0.062007 0.993037 -0.10016300000000006
vn -0.251885 -0.4098109999999999 0.876703
vn 0 -0.526896 0.84993
vn 0.995563 -0.008444000000000005 -0.093721
vn 0 6.123233995736766E-17 1
vn 0.656298 0.562012 0.503403
vn 0.6563 0.56201 0.503403
vn 0.656298 0.562012 0.503403
vn 0.656297 0.562015 0.503403
vn 0.750971 -0.43537100000000006 -0.496482
vn 0.750971 -0.43537100000000006 -0.496482
vn 0.059615 -0.703669 0.708022
vn -0.750973 0.43537800000000004 0.496473
vn 0.864008 0.008666000000000031 0.503403
vn 0.864008 0.008663000000000032 0.503404
vn 0.864008 0.008666000000000031 0.503403
vn 0.864008 0.008670000000000032 0.503403
vn 0.295426 -0.816228 -0.49648299999999995
vn 0.295426 -0.816228 -0.49648299999999995
vn -0.406642 -0.577362 0.708022
vn -0.295422 0.816235 0.49647299999999994
vn 0.488476 0.712725 0.503403
vn 0.488479 0.712723 0.503403
vn 0.488476 0.712725 0.503403
vn 0.488473 0.712727 0.503402
vn 0.838064 -0.22617100000000004 -0.496483
vn 0.838064 -0.22617100000000004 -0.496483
vn 0.239706 -0.664263 0.708022
vn -0.838068 0.22617700000000002 0.496474
vn 0.107629 -0.985653 0.13001500000000005
vn 0.109762 -0.985498 0.12940900000000005
vn 0.107629 -0.985653 0.13001500000000005
vn 0.105495 -0.985804 0.13062200000000004
vn -0.994519 0.026375999999999993 -0.101177
vn -0.993037 0.062007999999999994 -0.100163
vn 0 -0.637839 0.77017
vn 0.614936 -0.786776 0.053263000000000046
vn 0.060821 -0.024143999999999936 0.997857
vn -0.938944 0.285379 0.19220599999999996
vn 0.360033 -0.911168 0.20037300000000005
vn 0.493827 -0.860018 0.12846800000000005
vn -0.937919 0.343641 0.04711299999999998
vn -0.693248 0.690693 0.20579399999999995
vn -0.868185 0.357674 0.343982
vn -0.865427 0.473538 0.16370099999999999
vn -0.962582 0.267989 0.040232999999999984
vn -0.974192 0.219035 0.05452499999999998
vn -0.952121 0.271287 0.14095699999999997
vn -0.844292 0.531988 0.06449599999999997
vn -0.871692 0.488041 0.04437799999999997
vn -0.008042 0.994862 -0.10092100000000005
vn -0.279591 0.82949 -0.48350300000000007
vn -0.153689 0.543669 -0.825108
vn -0.351003 0.01605699999999994 -0.936237
vn -0.58854 -0.32280400000000004 -0.741227
vn -0.738235 -0.612035 -0.2835869999999999
vn -0.425086 -0.895767 -0.13001099999999993
vn -0.711087 0.701024 0.054038999999999955
vn -0.007664 0.978433 0.20641999999999994
vn -0.363305 0.867378 0.3400949999999999
vn -0.280805 0.946724 0.15767699999999996
vn -0.491683 0.869848 0.040165999999999945
vn -0.532832 0.844481 0.05424299999999995
vn -0.481405 0.865056 0.14116799999999993
vn -0.226902 0.971953 0.06182699999999994
vn -0.282799 0.958172 0.04393199999999994
vn 0.01156 -0.058624999999999934 0.998213
vn 0.697786 0.709162 -0.10092000000000004
vn 0.388835 0.78424 -0.48350300000000007
vn 0.275758 0.49310599999999993 -0.825108
vn -0.236842 0.25954999999999995 -0.936237
vn -0.644418 0.18790399999999993 -0.741227
vn -0.954785 0.08923699999999998 -0.283587
vn -0.933985 -0.332821 -0.13001099999999996
vn -0.0191 0.99835 0.05415499999999994
vn 0.693504 0.690467 0.20568999999999996
vn 0.35631 0.866377 0.34990499999999997
vn 0.474682 0.864315 0.16624599999999995
vn 0.260248 0.964689 0.04057599999999994
vn 0.215787 0.974829 0.056073999999999936
vn 0.268972 0.952181 0.14493099999999995
vn 0.534471 0.842629 0.06570899999999995
vn 0.492406 0.869223 0.044592999999999945
vn -0.037226 -0.04886799999999994 0.998111
vn 0.994862 0.008044999999999993 -0.10092
vn 0.82949 0.2795929999999999 -0.483502
vn 0.543669 0.15368799999999994 -0.825108
vn 0.016057 0.35100299999999995 -0.936237
vn -0.322804 0.58854 -0.741228
vn -0.612034 0.738236 -0.28358700000000003
vn -0.895768 0.425085 -0.13001100000000002
vn 0.706665 0.705488 0.05395799999999996
vn 0.93456 0.295792 0.19774999999999998
vn 0.869163 0.363253 0.335563
vn 0.946742 0.281012 0.15720199999999998
vn 0.873774 0.484704 0.039757999999999974
vn 0.846909 0.529149 0.05241399999999997
vn 0.866709 0.479604 0.13709599999999997
vn 0.972096 0.226274 0.061880999999999985
vn 0.957755 0.284202 0.04398199999999998
vn 0.709162 -0.697785 -0.10091999999999995
vn 0.78424 -0.38883600000000007 -0.483503
vn 0.493107 -0.27575800000000006 -0.825108
vn 0.259551 0.23684299999999994 -0.936237
vn 0.187904 0.644418 -0.741227
vn 0.089237 0.954785 -0.28358700000000003
vn -0.332823 0.933984 -0.13001100000000004
vn 0.926593 0.372175 0.05395299999999998
vn -0.09443 0.11825600000000006 0.988483
vn -0.31046 -0.947799 -0.07273899999999994
vn -0.962976 -0.268964 -0.018323999999999983
vn -0.981015 -0.193691 0.009642000000000012
vn 0.926257 -0.374877 -0.03892399999999998
vn -0.427164 -5.9999999999446355E-06 0.904174
vn -0.09443 0.11825600000000006 0.988483
vn 5E-06 0.23385500000000006 0.972272
vn -0.186735 -7.999999999939845E-06 0.98241
vn -0.458526 0.888681 -5.441601710565345E-17
vn 0.055735 0.14375500000000005 0.988043
vn -0.21889 -2.9999999999402525E-06 0.975749
vn 0 6.123233995736766E-17 1
vn -0.21889 -2.9999999999402525E-06 0.975749
vn -0.943326 -0.33174 -0.009181999999999978
vn -0.14315 0.988963 -0.03821600000000006
vn 0.163994 0.986452 -0.004211000000000061
vn 0.02788 0.16534900000000005 0.985841
vn -7E-06 0.42733000000000004 0.904096
vn -1E-05 0.18673700000000004 0.98241
vn 0.02788 0.16534900000000005 0.985841
vn 0.926895 0.375321 -2.2981783065139187E-17
vn -0.146556 0.989202 9.999999999394288E-07
vn 0.135193 -0.06669699999999995 0.988572
vn -4E-06 0.21898000000000006 0.975729
vn 0 6.123233995736766E-17 1
vn -4E-06 0.21898000000000006 0.975729
vn -0.294959 0.955314 -0.019346000000000058
vn 0.893365 -0.449331 2.7513588545383967E-17
vn 0.944403 0.325834 -0.04399000000000002
vn 0.989827 -0.142222 -0.004044999999999991
vn 0.16111 -0.03337299999999994 0.986372
vn 0.401061 1.1000000000056092E-05 0.916051
vn 0.186739 1.2000000000060155E-05 0.98241
vn 0.16111 -0.03337299999999994 0.986372
vn 0.375326 -0.926893 5.675582728010438E-17
vn 0.911263 -0.409491 -0.04377999999999997
vn 0.314089 -0.31407099999999993 0.895939
vn 0.204877 6.000000000059934E-06 0.978788
vn 0 6.123233995736766E-17 1
vn 0.204877 6.000000000059934E-06 0.978788
vn -0.476669 -0.879083 5.382830910674263E-17
vn 0.161297 -0.16128699999999996 0.973637
vn 0 6.123233995736766E-17 1
vn 0.161297 -0.16128699999999996 0.973637
vn -0.951368 -0.308057 1.886305095024681E-17
vn -0.09443 0.11825600000000006 0.988483
vn -0.186735 -7.999999999939845E-06 0.98241
vn -0.09443 0.11825600000000006 0.988483
vn 4E-06 0.23385400000000006 0.972272
vn -0.157247 -0.986327 -0.04931899999999994
vn -0.310466 -0.947797 -0.07273899999999994
vn -0.458529 0.888679 -5.4415894640973537E-17
vn -0.069703 -0.02919699999999994 0.99714
vn 0.493827 -0.860018 0.12846800000000005
vn 0.058341 -0.044741999999999935 0.997294
vn 1 -0.000531 3.251437251736223E-20
vn 1 -0.000531 3.251437251736223E-20
vn -0.368263 -0.786058 -0.49648299999999995
vn -0.368262 -0.786058 -0.49648299999999995
vn -0.695795 -0.12072299999999996 0.708022
vn -0.695794 -0.12072799999999996 0.708022
vn -0.695795 -0.12072299999999996 0.708022
vn 0.368269 0.786058 0.4964779999999999
vn 0.368269 0.786055 0.49648299999999995
vn 0.368269 0.786058 0.4964779999999999
vn 0.695796 0.12072399999999996 -0.708021
vn 0.695793 0.12072299999999996 -0.708024
vn 0.695796 0.12072399999999996 -0.708021
vn 0.695799 0.12072399999999996 -0.708018
vn 0.985653 0.10763100000000002 0.130016
vn 0.985803 0.10549600000000002 0.130622
vn -0.026375 -0.994519 -0.10117699999999995
vn 0.009291 -0.994735 -0.10206299999999995
vn 0.583343 0.02391600000000005 0.811873
vn 0.438335 0.23363600000000007 0.867915
vn 0.525765 0.04770600000000005 0.849291
vn 0.251885 0.40981100000000004 0.876703
vn 0.028218 0.565554 0.824229
vn -0.994212 -0.030554000000000008 -0.103
vn -0.994212 -0.030554000000000008 -0.103
vn -0.991262 -0.069502 -0.112113
vn 0.565169 -0.028595999999999948 0.82448
vn 0.602291 -0.057111999999999954 0.796231
vn -0.03018 0.994327 -0.10199200000000005
vn -0.03018 0.994327 -0.10199200000000005
vn -0.068756 0.991432 -0.11106700000000005
vn -0.617076 0.604818 -0.503401
vn -0.617076 0.604818 -0.503401
vn -0.617076 0.604818 -0.503401
vn -0.617076 0.604818 -0.503401
vn 0 6.123233995736766E-17 1
vn 0 6.123233995736766E-17 1
vn 0 6.123233995736766E-17 1
vn 0 6.123233995736766E-17 1
vn 0 6.123233995736766E-17 1
vn -0.107631 0.985653 0.13001599999999994
vn -0.105495 0.985803 0.13062299999999993
vn 0.994519 -0.026376000000000007 -0.101177
vn 0.994735 0.009288999999999993 -0.102063
vn -0.023916 0.583345 0.811872
vn -0.233636 0.43833600000000006 0.867915
vn -0.047706 0.525767 0.84929
vn -0.409811 0.2518850000000001 0.876703
vn -0.565554 0.028218000000000052 0.824229
vn 0.030553 -0.994212 -0.10299899999999994
vn 0.030553 -0.994212 -0.10299899999999994
vn 0.069502 -0.991262 -0.11211199999999995
vn -0.002104 -0.999998 6.123221749268775E-17
vn -0.002104 -0.999998 -2.999999999938768E-06
vn -1 0.000531 -3.251437251736223E-20
vn -1 0.000531 -3.251437251736223E-20
vn -1 0.000531 -3.251437251736223E-20
vn -1 0.000531 -3.251437251736223E-20
vn -0.985653 -0.10763199999999999 0.130015
vn -0.985803 -0.10549599999999999 0.130622
vn 0.026375 0.994519 -0.10117800000000006
vn -0.009291 0.994735 -0.10206300000000006
vn -0.583343 -0.02391599999999995 0.811874
vn -0.438334 -0.23363599999999995 0.867915
vn -0.525764 -0.04770599999999995 0.849292
vn -0.251885 -0.4098109999999999 0.876703
vn -0.028218 -0.565554 0.824228
vn 0.994212 0.030553999999999994 -0.103
vn 0.994212 0.030553999999999994 -0.103
vn 0.991262 0.069502 -0.112113
vn 0 6.123233995736766E-17 1
vn 0 6.123233995736766E-17 1
vn 0 6.123233995736766E-17 1
vn 0 6.123233995736766E-17 1
vn 0 6.123233995736766E-17 1
vn 0 6.123233995736766E-17 1
vn 0 6.123233995736766E-17 1
vn 0.750971 -0.43537100000000006 -0.496482
vn 0.750971 -0.43537100000000006 -0.496482
vn 0.059621 -0.703669 0.708022
vn 0.059627 -0.703668 0.708022
vn 0.059621 -0.703669 0.708022
vn -0.75097 0.43537700000000007 0.496478
vn -0.750967 0.43537700000000007 0.496483
vn -0.75097 0.43537700000000007 0.496478
vn -0.059621 0.70367 -0.708021
vn -0.059621 0.703667 -0.708024
vn -0.059621 0.70367 -0.708021
vn -0.059621 0.703672 -0.708019
vn -0.656299 -0.562014 -0.503401
vn -0.656299 -0.562014 -0.503401
vn -0.656299 -0.562014 -0.503401
vn -0.656298 -0.562014 -0.503401
vn 0.295426 -0.816228 -0.49648299999999995
vn 0.295426 -0.816228 -0.49648299999999995
vn -0.406638 -0.577365 0.708022
vn -0.406633 -0.577368 0.708022
vn -0.406638 -0.577365 0.708022
vn -0.295421 0.816233 0.4964779999999999
vn -0.295419 0.816231 0.49648299999999995
vn -0.295421 0.816233 0.4964779999999999
vn 0.406638 0.577367 -0.708021
vn 0.406636 0.577365 -0.708023
vn 0.406638 0.577367 -0.708021
vn 0.406639 0.577369 -0.708019
vn -0.864009 -0.008668000000000032 -0.503401
vn -0.864009 -0.008668000000000032 -0.503401
vn -0.864009 -0.008668000000000032 -0.503401
vn -0.864009 -0.008668000000000032 -0.503402
vn 0.838064 -0.22617100000000004 -0.496483
vn 0.838064 -0.22617100000000004 -0.496483
vn 0.239712 -0.664261 0.708023
vn 0.239718 -0.664259 0.708023
vn 0.239712 -0.664261 0.708023
vn -0.838065 0.22617700000000002 0.496479
vn -0.838062 0.22617700000000002 0.496484
vn -0.838065 0.22617700000000002 0.496479
vn -0.239713 0.664262 -0.708021
vn -0.239712 0.66426 -0.708023
vn -0.239713 0.664262 -0.708021
vn -0.239713 0.664264 -0.708019
vn -0.488477 -0.712726 -0.503401
vn -0.488477 -0.712726 -0.503401
vn -0.488477 -0.712726 -0.503401
vn -0.488477 -0.712726 -0.503401
vn -0.994519 0.026375999999999993 -0.101177
vn -0.994735 -0.009289000000000007 -0.102063
vn 0.023915 -0.583343 0.811873
vn 0.023915 -0.583343 0.811873
vn 0.047704 -0.525767 0.84929
vn -0.693248 0.690693 0.20579399999999995
vn -0.865427 0.473538 0.16370099999999999
vn 0.072448 -0.029584999999999938 0.996933
vn 0.045578 -0.05478799999999994 0.997457
vn -0.130286 0.944604 -0.30124400000000007
vn 0.339004 0.936123 -0.09354400000000006
vn -0.214299 0.637585 -0.739974
vn -0.266213 0.23361599999999993 -0.935176
vn -0.473275 -0.27504400000000007 -0.836876
vn -0.766228 -0.43113100000000004 -0.476468
vn -0.686377 -0.719873 -0.10329699999999996
vn -0.007664 0.978433 0.20641999999999994
vn -0.280805 0.946724 0.15767699999999996
vn 0.058341 -0.044741999999999935 0.997294
vn 0.045578 -0.05478799999999994 0.997457
vn -0.008588 -0.05800599999999994 0.998279
vn 0.575808 0.760064 -0.30124400000000007
vn 0.90165 0.422228 -0.09354400000000003
vn 0.299308 0.602373 -0.739974
vn -0.023049 0.35343199999999997 -0.935176
vn -0.529141 0.14016999999999993 -0.836876
vn -0.84666 0.23694899999999997 -0.476468
vn -0.994369 -0.023685000000000008 -0.103297
vn 0.693504 0.690467 0.20568999999999996
vn 0.474682 0.864315 0.16624599999999995
vn 0.01156 -0.058624999999999934 0.998213
vn -0.008588 -0.05800599999999994 0.998279
vn -0.056615 -0.04385999999999994 0.997432
vn 0.944604 0.13028899999999996 -0.301244
vn 0.936124 -0.339002 -0.09354399999999999
vn 0.637585 0.21429899999999993 -0.739974
vn 0.233616 0.2662129999999999 -0.935176
vn -0.275044 0.4732739999999999 -0.836877
vn -0.43113 0.766228 -0.47646700000000003
vn -0.719872 0.686377 -0.10329700000000004
vn 0.93456 0.295792 0.19774999999999998
vn 0.946742 0.281012 0.15720199999999998
vn -0.037226 -0.04886799999999994 0.998111
vn -0.056615 -0.04385999999999994 0.997432
vn -0.076071 -0.031539999999999936 0.996603
vn 0.760064 -0.575808 -0.30124399999999996
vn 0.422229 -0.90165 -0.09354399999999995
vn 0.602373 -0.2993080000000001 -0.739974
vn 0.353432 0.023049999999999942 -0.935176
vn 0.14017 0.529141 -0.836876
vn 0.236949 0.84666 -0.47646800000000006
vn -0.023686 0.994369 -0.10329700000000006
vn -0.157245 -0.986327 -0.04931899999999994
vn -0.157245 -0.986327 -0.04931899999999994
vn -2E-05 -0.999696 -0.024641999999999938
vn -0.988849 0.148883 -0.003394000000000009
vn -0.988849 0.148883 -0.003394000000000009
vn -0.988849 0.148883 -0.003394000000000009
vn -0.385066 0.922825 -0.010873000000000058
vn -0.385066 0.922825 -0.010873000000000058
vn -0.309033 0.950804 -0.02167300000000006
vn 0.993026 0.116876 0.015464999999999993
vn 0.972212 0.23208 0.030714999999999985
vn 0.993026 0.116876 0.015464999999999993
vn 1 4.4E-05 -2.694222958124177E-21
vn -0.943326 -0.33174 -0.009181999999999978
vn -0.919516 -0.393053 2.406755491726323E-17
vn -0.756075 0.654466 -0.0049700000000000395
vn -0.756075 0.654466 -0.0049700000000000395
vn -0.756075 0.654466 -0.0049700000000000395
vn 0.672223 0.738068 -0.05807300000000005
vn 0.637307 0.768845 -0.052118000000000046
vn 0.672223 0.738068 -0.05807300000000005
vn 0.705658 0.705665 -0.06390000000000004
vn 0.552932 -0.833028 0.01817100000000005
vn 0.3771 -0.926172 5.671167876299512E-17
vn 0.552932 -0.833028 0.01817100000000005
vn 0.706689 -0.706627 0.03561600000000004
vn -0.989777 -0.142618 0.0012180000000000086
vn -0.989777 -0.142618 0.0012180000000000086
vn -0.995811 -0.091153 -0.007208999999999995
vn 0.091373 0.995806 0.004678999999999939
vn 0.091373 0.995806 0.004678999999999939
vn 0.018254 0.999742 0.01354399999999994
vn 0.939129 0.343539 -0.004289000000000021
vn 0.939129 0.343539 -0.004289000000000021
vn 0.950256 0.311351 -0.00857300000000002
vn 0.148852 -0.988663 0.019697000000000058
vn 0.29428 -0.954925 0.03894700000000006
vn 0.148852 -0.988663 0.019697000000000058
vn 5.2E-05 -1 6.123233995736766E-17
vn -0.294959 0.955314 -0.019346000000000058
vn -0.439532 0.898227 -5.500054102288648E-17
vn 0.566429 0.824109 -0.0017290000000000506
vn 0.566429 0.824109 -0.0017290000000000506
vn 0.566429 0.824109 -0.0017290000000000506
vn 0.810416 -0.585488 -0.020724999999999966
vn 0.810416 -0.585488 -0.020724999999999966
vn 0.706519 -0.706511 -0.04091499999999996
vn -0.707067 -0.707147 4.330026550383267E-17
vn -0.707067 -0.707147 4.330026550383267E-17
vn -0.707067 -0.707147 4.330026550383267E-17
vn -0.707067 -0.707147 4.330026550383267E-17
vn -0.122701 0.992434 -0.004319000000000061
vn -0.122701 0.992434 -0.004319000000000061
vn -0.098772 0.995073 -0.00863800000000006
vn 0.992279 -0.124005 -0.0020239999999999924
vn 0.992279 -0.124005 -0.0020239999999999924
vn 0.994393 -0.105747 -1.9999999999935248E-06
vn 0.343543 -0.939127 -0.004288999999999943
vn 0.343543 -0.939127 -0.004288999999999943
vn 0.311355 -0.950255 -0.008572999999999942
vn -0.984347 -0.174716 0.02311900000000001
vn -0.937901 -0.343903 0.04551400000000002
vn -0.984347 -0.174716 0.02311900000000001
vn -1 -6.4E-05 3.91886975727153E-21
vn 0.926321 0.375013 -0.03599300000000002
vn 0.926321 0.375013 -0.03599300000000002
vn 0.905635 0.423139 -0.027894000000000023
vn 0.73079 -0.682594 -0.0032499999999999582
vn 0.73079 -0.682594 -0.0032499999999999582
vn 0.73079 -0.682594 -0.0032499999999999582
vn -0.597942 -0.801308 -0.01927699999999995
vn -0.597942 -0.801308 -0.01927699999999995
vn -0.706581 -0.706603 -0.03814699999999996
vn -0.770168 0.637721 0.01238899999999996
vn -0.826308 0.562678 0.024667999999999964
vn -0.770168 0.637721 0.01238899999999996
vn -0.707148 0.707066 -4.329530568429612E-17
vn 0.926257 -0.374877 -0.03892399999999998
vn 0.939911 -0.33972 -0.03401199999999998
vn 0.195441 -0.980714 -0.0015889999999999399
vn 0.195441 -0.980714 -0.0015889999999999399
vn 0.195441 -0.980714 -0.0015889999999999399
vn -0.987554 -0.155974 -0.02024199999999999
vn -0.987554 -0.155974 -0.02024199999999999
vn -0.9992 -1.600000000000245E-05 -0.039981
vn -0.077402 0.996947 0.010238999999999939
vn -0.154281 0.987816 0.02041499999999994
vn -0.077402 0.996947 0.010238999999999939
vn -5.2E-05 1 -6.123233995736766E-17
vn -0.157247 -0.986327 -0.04931899999999994
vn -1.6E-05 -0.999696 -0.024640999999999937
vn -0.98885 0.148879 -0.003394000000000009
vn -0.98885 0.148879 -0.003394000000000009
vn -0.98885 0.148879 -0.003394000000000009
vn -0.385069 0.922824 -0.010873000000000058
vn -0.385069 0.922824 -0.010873000000000058
vn -0.309037 0.950803 -0.02167300000000006
vn 0.993026 0.116875 0.015464999999999993
vn 0.972213 0.232076 0.030713999999999988
vn 0.993026 0.116875 0.015464999999999993
vn 1 4.4E-05 -2.694222958124177E-21
vn -0.693248 0.690693 0.20579399999999995
vn -0.711087 0.701024 0.054038999999999955
vn -0.007664 0.978433 0.20641999999999994
vn -0.0191 0.99835 0.05415499999999994
vn 0.693504 0.690467 0.20568999999999996
vn 0.706665 0.705488 0.05395799999999996
g 01
f 347/347/347 349/349/349 348/348/348
f 348/348/348 91/91/91 347/347/347
f 89/89/89 346/346/346 345/345/345
f 345/345/345 90/90/90 89/89/89
f 87/87/87 86/86/86 85/85/85
f 85/85/85 88/88/88 87/87/87
f 341/341/341 344/344/344 343/343/343
f 343/343/343 342/342/342 341/341/341
f 337/337/337 340/340/340 339/339/339
f 339/339/339 338/338/338 337/337/337
f 334/334/334 84/84/84 336/336/336
f 336/336/336 335/335/335 334/334/334
f 331/331/331 83/83/83 333/333/333
f 333/333/333 332/332/332 331/331/331
f 329/329/329 82/82/82 81/81/81
f 81/81/81 330/330/330 329/329/329
f 79/79/79 78/78/78 77/77/77
f 77/77/77 80/80/80 79/79/79
f 325/325/325 328/328/328 327/327/327
f 327/327/327 326/326/326 325/325/325
f 321/321/321 324/324/324 323/323/323
f 323/323/323 322/322/322 321/321/321
f 318/318/318 76/76/76 320/320/320
f 320/320/320 319/319/319 318/318/318
f 315/315/315 75/75/75 317/317/317
f 317/317/317 316/316/316 315/315/315
f 313/313/313 74/74/74 73/73/73
f 73/73/73 314/314/314 313/313/313
f 71/71/71 70/70/70 69/69/69
f 69/69/69 72/72/72 71/71/71
f 309/309/309 312/312/312 311/311/311
f 311/311/311 310/310/310 309/309/309
f 305/305/305 308/308/308 307/307/307
f 307/307/307 306/306/306 305/305/305
f 302/302/302 68/68/68 304/304/304
f 304/304/304 303/303/303 302/302/302
f 299/299/299 67/67/67 301/301/301
f 301/301/301 300/300/300 299/299/299
f 297/297/297 66/66/66 65/65/65
f 65/65/65 298/298/298 297/297/297
f 63/63/63 62/62/62 61/61/61
f 61/61/61 64/64/64 63/63/63
f 293/293/293 296/296/296 295/295/295
f 295/295/295 294/294/294 293/293/293
f 290/290/290 292/292/292 291/291/291
f 291/291/291 60/60/60 290/290/290
f 287/287/287 289/289/289 288/288/288
f 288/288/288 59/59/59 287/287/287
f 285/285/285 283/283/283 286/286/286
f 286/286/286 58/58/58 285/285/285
f 282/282/282 284/284/284 283/283/283
f 283/283/283 57/57/57 282/282/282
f 55/55/55 281/281/281 280/280/280
f 280/280/280 56/56/56 55/55/55
f 278/278/278 54/54/54 53/53/53
f 53/53/53 279/279/279 278/278/278
f 51/51/51 50/50/50 49/49/49
f 49/49/49 52/52/52 51/51/51
f 274/274/274 277/277/277 276/276/276
f 276/276/276 275/275/275 274/274/274
f 48/48/48 47/47/47 273/273/273
f 273/273/273 272/272/272 48/48/48
f 269/269/269 271/271/271 270/270/270
f 270/270/270 46/46/46 269/269/269
f 267/267/267 265/265/265 268/268/268
f 268/268/268 45/45/45 267/267/267
f 264/264/264 266/266/266 265/265/265
f 265/265/265 44/44/44 264/264/264
f 42/42/42 263/263/263 262/262/262
f 262/262/262 43/43/43 42/42/42
f 260/260/260 41/41/41 40/40/40
f 40/40/40 261/261/261 260/260/260
f 38/38/38 37/37/37 36/36/36
f 36/36/36 39/39/39 38/38/38
f 257/257/257 259/259/259 258/258/258
f 258/258/258 35/35/35 257/257/257
f 34/34/34 256/256/256 255/255/255
f 255/255/255 33/33/33 34/34/34
f 251/251/251 254/254/254 253/253/253
f 253/253/253 252/252/252 251/251/251
f 248/248/248 250/250/250 249/249/249
f 249/249/249 19/19/19 248/248/248
f 16/16/16 247/247/247 246/246/246
f 246/246/246 22/22/22 16/16/16
f 243/243/243 245/245/245 244/244/244
f 244/244/244 17/17/17 243/243/243
f 241/241/241 239/239/239 242/242/242
f 242/242/242 20/20/20 241/241/241
f 238/238/238 240/240/240 239/239/239
f 239/239/239 15/15/15 238/238/238
f 18/18/18 237/237/237 236/236/236
f 236/236/236 21/21/21 18/18/18
f 234/234/234 25/25/25 24/24/24
f 24/24/24 235/235/235 234/234/234
f 32/32/32 31/31/31 30/30/30
f 30/30/30 29/29/29 32/32/32
f 28/28/28 27/27/27 26/26/26
f 26/26/26 23/23/23 28/28/28
f 230/230/230 233/233/233 232/232/232
f 232/232/232 231/231/231 230/230/230
f 227/227/227 14/14/14 229/229/229
f 229/229/229 228/228/228 227/227/227
f 224/224/224 13/13/13 226/226/226
f 226/226/226 225/225/225 224/224/224
f 222/222/222 12/12/12 11/11/11
f 11/11/11 223/223/223 222/222/222
f 7/7/7 10/10/10 9/9/9
f 9/9/9 8/8/8 7/7/7
f 6/6/6 3/3/3 221/221/221
f 221/221/221 220/220/220 6/6/6
f 5/5/5 2/2/2 1/1/1
f 1/1/1 4/4/4 5/5/5
g 03
f 494/494/494 497/497/497 496/496/496
f 496/496/496 495/495/495 494/494/494
f 491/491/491 493/493/493 492/492/492
f 492/492/492 216/216/216 491/491/491
f 490/490/490 489/489/489 488/488/488
f 214/214/214 487/487/487 486/486/486
f 486/486/486 215/215/215 214/214/214
f 212/212/212 211/211/211 210/210/210
f 210/210/210 213/213/213 212/212/212
f 482/482/482 485/485/485 484/484/484
f 484/484/484 483/483/483 482/482/482
f 479/479/479 481/481/481 480/480/480
f 480/480/480 209/209/209 479/479/479
f 478/478/478 477/477/477 476/476/476
f 168/168/168 475/475/475 474/474/474
f 474/474/474 200/200/200 168/168/168
f 208/208/208 207/207/207 206/206/206
f 206/206/206 201/201/201 208/208/208
f 470/470/470 473/473/473 472/472/472
f 472/472/472 471/471/471 470/470/470
f 467/467/467 469/469/469 468/468/468
f 468/468/468 205/205/205 467/467/467
f 466/466/466 465/465/465 464/464/464
f 461/461/461 463/463/463 462/462/462
f 462/462/462 193/193/193 461/461/461
f 204/204/204 203/203/203 202/202/202
f 202/202/202 196/196/196 204/204/204
f 457/457/457 460/460/460 459/459/459
f 459/459/459 458/458/458 457/457/457
f 454/454/454 456/456/456 455/455/455
f 455/455/455 199/199/199 454/454/454
f 451/451/451 453/453/453 452/452/452
f 452/452/452 194/194/194 451/451/451
f 448/448/448 450/450/450 449/449/449
f 449/449/449 186/186/186 448/448/448
f 198/198/198 197/197/197 195/195/195
f 195/195/195 187/187/187 198/198/198
f 444/444/444 447/447/447 446/446/446
f 446/446/446 445/445/445 444/444/444
f 441/441/441 443/443/443 442/442/442
f 442/442/442 192/192/192 441/441/441
f 440/440/440 439/439/439 438/438/438
f 191/191/191 437/437/437 436/436/436
f 436/436/436 179/179/179 191/191/191
f 190/190/190 189/189/189 188/188/188
f 188/188/188 182/182/182 190/190/190
f 432/432/432 435/435/435 434/434/434
f 434/434/434 433/433/433 432/432/432
f 429/429/429 431/431/431 430/430/430
f 430/430/430 185/185/185 429/429/429
f 426/426/426 428/428/428 427/427/427
f 427/427/427 180/180/180 426/426/426
f 423/423/423 425/425/425 424/424/424
f 424/424/424 167/167/167 423/423/423
f 184/184/184 183/183/183 181/181/181
f 181/181/181 174/174/174 184/184/184
f 419/419/419 422/422/422 421/421/421
f 421/421/421 420/420/420 419/419/419
f 415/415/415 418/418/418 417/417/417
f 417/417/417 416/416/416 415/415/415
f 414/414/414 413/413/413 412/412/412
f 178/178/178 411/411/411 410/410/410
f 410/410/410 166/166/166 178/178/178
f 177/177/177 176/176/176 175/175/175
f 175/175/175 169/169/169 177/177/177
f 406/406/406 409/409/409 408/408/408
f 408/408/408 407/407/407 406/406/406
f 403/403/403 405/405/405 404/404/404
f 404/404/404 173/173/173 403/403/403
f 402/402/402 401/401/401 400/400/400
f 397/397/397 399/399/399 398/398/398
f 398/398/398 165/165/165 397/397/397
f 170/170/170 172/172/172 164/164/164
f 164/164/164 171/171/171 170/170/170
f 385/385/385 163/163/163 155/155/155
f 161/161/161 395/395/395 396/396/396
f 396/396/396 162/162/162 161/161/161
f 160/160/160 394/394/394 395/395/395
f 395/395/395 161/161/161 160/160/160
f 159/159/159 393/393/393 394/394/394
f 394/394/394 160/160/160 159/159/159
f 158/158/158 392/392/392 393/393/393
f 393/393/393 159/159/159 158/158/158
f 157/157/157 390/390/390 392/392/392
f 392/392/392 158/158/158 157/157/157
f 156/156/156 391/391/391 390/390/390
f 390/390/390 157/157/157 156/156/156
f 217/217/217 389/389/389 388/388/388
f 388/388/388 387/387/387 217/217/217
f 154/154/154 386/386/386 385/385/385
f 155/155/155 154/154/154 385/385/385
f 502/502/502 148/148/148 149/149/149
f 149/149/149 153/153/153 502/502/502
f 153/153/153 152/152/152 502/502/502
f 152/152/152 151/151/151 502/502/502
f 503/503/503 502/502/502 151/151/151
f 150/150/150 149/149/149 148/148/148
f 373/373/373 147/147/147 138/138/138
f 145/145/145 383/383/383 384/384/384
f 384/384/384 146/146/146 145/145/145
f 144/144/144 382/382/382 383/383/383
f 383/383/383 145/145/145 144/144/144
f 143/143/143 381/381/381 382/382/382
f 382/382/382 144/144/144 143/143/143
f 142/142/142 380/380/380 381/381/381
f 381/381/381 143/143/143 142/142/142
f 141/141/141 378/378/378 380/380/380
f 380/380/380 142/142/142 141/141/141
f 140/140/140 379/379/379 378/378/378
f 378/378/378 141/141/141 140/140/140
f 139/139/139 377/377/377 376/376/376
f 376/376/376 375/375/375 139/139/139
f 137/137/137 374/374/374 373/373/373
f 138/138/138 137/137/137 373/373/373
f 500/500/500 131/131/131 132/132/132
f 132/132/132 136/136/136 500/500/500
f 136/136/136 135/135/135 500/500/500
f 135/135/135 134/134/134 500/500/500
f 501/501/501 500/500/500 134/134/134
f 133/133/133 132/132/132 131/131/131
f 361/361/361 130/130/130 121/121/121
f 128/128/128 371/371/371 372/372/372
f 372/372/372 129/129/129 128/128/128
f 127/127/127 370/370/370 371/371/371
f 371/371/371 128/128/128 127/127/127
f 126/126/126 369/369/369 370/370/370
f 370/370/370 127/127/127 126/126/126
f 125/125/125 368/368/368 369/369/369
f 369/369/369 126/126/126 125/125/125
f 124/124/124 366/366/366 368/368/368
f 368/368/368 125/125/125 124/124/124
f 123/123/123 367/367/367 366/366/366
f 366/366/366 124/124/124 123/123/123
f 122/122/122 365/365/365 364/364/364
f 364/364/364 363/363/363 122/122/122
f 120/120/120 362/362/362 361/361/361
f 121/121/121 120/120/120 361/361/361
f 498/498/498 114/114/114 115/115/115
f 115/115/115 119/119/119 498/498/498
f 119/119/119 118/118/118 498/498/498
f 118/118/118 117/117/117 498/498/498
f 499/499/499 498/498/498 117/117/117
f 116/116/116 115/115/115 114/114/114
f 350/350/350 113/113/113 105/105/105
f 111/111/111 359/359/359 360/360/360
f 360/360/360 112/112/112 111/111/111
f 110/110/110 358/358/358 359/359/359
f 359/359/359 111/111/111 110/110/110
f 109/109/109 357/357/357 358/358/358
f 358/358/358 110/110/110 109/109/109
f 108/108/108 356/356/356 357/357/357
f 357/357/357 109/109/109 108/108/108
f 107/107/107 354/354/354 356/356/356
f 356/356/356 108/108/108 107/107/107
f 106/106/106 355/355/355 354/354/354
f 354/354/354 107/107/107 106/106/106
f 219/219/219 353/353/353 352/352/352
f 352/352/352 93/93/93 219/219/219
f 104/104/104 351/351/351 350/350/350
f 105/105/105 104/104/104 350/350/350
f 94/94/94 98/98/98 99/99/99
f 99/99/99 103/103/103 94/94/94
f 103/103/103 102/102/102 94/94/94
f 102/102/102 101/101/101 94/94/94
f 97/97/97 94/94/94 101/101/101
f 100/100/100 99/99/99 98/98/98
f 218/218/218 95/95/95 96/96/96
f 96/96/96 92/92/92 218/218/218
