v -0.776171 0.07254800000000003 0.465737
v -0.768499 0.07186600000000003 0.465737
v -0.768499 0.07186600000000005 0.992435
v -0.768499 0.07186600000000005 0.992435
v -0.776171 0.07254800000000006 0.992435
v -0.776171 0.07254800000000003 0.465737
v -0.767242 0.07937400000000003 0.465737
v -0.767242 0.07937400000000006 0.992435
v -0.768499 0.07186600000000005 0.992435
v -0.768499 0.07186600000000005 0.992435
v -0.768499 0.07186600000000003 0.465737
v -0.767242 0.07937400000000003 0.465737
v -0.776171 0.07254800000000006 0.992435
v -0.774837 0.08058400000000006 0.992435
v -0.774837 0.08058400000000003 0.465737
v -0.774837 0.08058400000000003 0.465737
v -0.776171 0.07254800000000003 0.465737
v -0.776171 0.07254800000000006 0.992435
v -0.774837 0.08058400000000006 0.992435
v -0.776171 0.07254800000000006 0.992435
v -0.768499 0.07186600000000005 0.992435
v -0.767242 0.07937400000000006 0.992435
v -0.767242 0.07937400000000003 0.465737
v -0.774837 0.08058400000000003 0.465737
v -0.774837 0.08058400000000006 0.992435
v -0.767242 0.07937400000000006 0.992435
vt 0.905472 0.004617
vt 0.905472 0.005864
vt 0.808399 0.005265
vt 0.808399 0.005265
vt 0.818457 0.003420
vt 0.905472 0.004617
vt 0.905472 0.007110
vt 0.798342 0.007110
vt 0.808399 0.005265
vt 0.808399 0.005265
vt 0.905472 0.005864
vt 0.905472 0.007110
vt 0.818457 0.003420
vt 0.798342 0.003143
vt 0.905472 0.003143
vt 0.905472 0.003143
vt 0.905472 0.004617
vt 0.818457 0.003420
vt 0.798342 0.003143
vt 0.818457 0.003420
vt 0.808399 0.005265
vt 0.798342 0.007110
vt 0.905472 0.007110
vt 0.905472 0.009133
vt 0.798342 0.009133
vt 0.798342 0.007110
vn -0.088535 -0.996073 6.099188055835507E-17
vn -0.088544 -0.996072 6.099181932601511E-17
vn -0.088535 -0.996073 6.099188055835507E-17
vn -0.088535 -0.996073 6.099188055835507E-17
vn -0.088535 -0.996073 6.099188055835507E-17
vn -0.088535 -0.996073 6.099188055835507E-17
vn 0.986282 -0.165072 1.0107744821442595E-17
vn 0.986282 -0.165071 1.0107683589102637E-17
vn 0.986282 -0.165072 1.0107744821442595E-17
vn 0.986282 -0.165072 1.0107744821442595E-17
vn 0.986282 -0.165072 1.0107744821442595E-17
vn 0.986282 -0.165072 1.0107744821442595E-17
vn -0.986487 0.163837 -1.0032122881595246E-17
vn -0.986487 0.163838 -1.0032184113935203E-17
vn -0.986487 0.163837 -1.0032122881595246E-17
vn -0.986487 0.163837 -1.0032122881595246E-17
vn -0.986487 0.163837 -1.0032122881595246E-17
vn -0.986487 0.163837 -1.0032122881595246E-17
vn 0 6.123233995736766E-17 1
vn 0 6.123233995736766E-17 1
vn 0 6.123233995736766E-17 1
vn 0 6.123233995736766E-17 1
vn 0.157365 0.98754 -6.046938500149886E-17
vn 0.157391 0.987536 -6.046914007213903E-17
vn 0.157365 0.98754 -6.046938500149886E-17
vn 0.157365 0.98754 -6.046938500149886E-17
g 01
f 1/1/1 2/2/2 3/3/3
f 4/4/4 5/5/5 6/6/6
f 7/7/7 8/8/8 9/9/9
f 10/10/10 11/11/11 12/12/12
f 13/13/13 14/14/14 15/15/15
f 16/16/16 17/17/17 18/18/18
f 19/19/19 20/20/20 21/21/21
f 21/21/21 22/22/22 19/19/19
f 23/23/23 24/24/24 25/25/25
f 25/25/25 26/26/26 23/23/23
