v -0.055217214 -0.091938951 -0.00004223699999999437
v -0.053900028 0.08083471500000002 0.014906735999999993
v -0.077516946 -0.056080791000000005 0.014906736000000004
v -0.053900028 0.079147458 0.0018022679999999951
v -0.075510162 -0.056080791000000005 0.0018022680000000036
v 0.057118815 0.093089295 -0.0000422370000000057
v 0.055641924 -0.079656291 0.014906736000000007
v -0.08953542 0.058721481000000006 -0.0000422370000000036
v 0.079258842 0.05725921500000001 0.014906735999999997
v 0.077251941 0.05725921500000001 0.0018022679999999966
v -0.014813838000000001 -0.09572039100000002 5.861183522564156e-18
v 0.000330291 -0.083945511 0.0019016010000000054
v 0.000330291 0.086328801 0.014926976999999994
v -0.014813838000000001 0.096066477 -5.882375178170641e-18
v 0.015426567 -0.09572039100000002 5.861183522564156e-18
v 0.000330291 0.08434050300000001 0.0019016009999999947
v 0.000330291 -0.08593380900000001 0.014926977000000008
v 0.015426567 0.096066477 -5.882375178170641e-18
v -0.082586673 0.011681514 0.0019016009999999993
v -0.08456467499999999 0.011681514000000002 0.014926977000000001
v -0.09427930200000001 0.011960676 -7.323801789519284e-19
v 0.09458970300000001 0.011960676 -7.323801789519284e-19
v 0.084930768 0.011681514000000002 0.014926977000000001
v 0.08295276600000001 0.011681514 0.0019016009999999993
v -0.08456467499999999 -0.012071709 0.014926977000000001
v -0.09427930200000001 -0.012420369 7.605282570039507e-19
v 0.084930768 -0.012071709 0.014926977000000001
v 0.08295276600000001 -0.012071709000000002 0.001901601000000001
v -0.082586673 -0.012071709000000002 0.001901601000000001
v 0.09458970300000001 -0.012420369 7.605282570039507e-19
v -0.012266280000000001 -0.102467313 6.274313344134e-18
v -0.012266280000000001 -0.100269117 0.014926977000000008
v -0.014813838000000001 -0.093522195 0.014926977000000008
v 0.012879009 -0.102467313 6.274313344134e-18
v 0.012879009 -0.100269117 0.014926977000000008
v 0.015426567 -0.093522195 0.014926977000000008
v 0.10075747500000001 0.009359766 -5.731203736334113e-19
v 0.09857074500000002 0.009359766000000002 0.014926977000000001
v 0.09240297300000001 0.011960676000000002 0.014926977000000001
v 0.09857074500000002 -0.009819458999999999 0.014926977000000001
v 0.09240297300000001 -0.012420368999999999 0.014926977000000001
v 0.10075747500000001 -0.009819459 6.012684516854336e-19
v -0.09209257200000001 0.011960676000000002 0.014926977000000001
v -0.09857074500000002 0.009359766000000002 0.014926977000000001
v -0.10075747500000001 0.009359766 -5.731203736334113e-19
v -0.09209257200000001 -0.012420368999999999 0.014926977000000001
v -0.09857074500000002 -0.009819458999999999 0.014926977000000001
v -0.10075747500000001 -0.009819459 6.012684516854336e-19
v -0.014813838000000001 0.093868398 0.014926976999999994
v -0.012266280000000001 0.100269117 0.014926976999999994
v -0.012266280000000001 0.102467313 -6.274313344134e-18
v 0.015426567 0.093868398 0.014926976999999994
v 0.012879009 0.100269117 0.014926976999999994
v 0.012879009 0.102467313 -6.274313344134e-18
v 0.077251941 -0.056080791000000005 0.0018022680000000036
v 0.079258842 -0.056080791000000005 0.014906736000000004
v 0.091451529 -0.057519891000000004 -0.00004223699999999648
v 0.07725615300000001 -0.070271019 0.0018022680000000042
v 0.091451529 -0.057519891000000004 0.014906736000000004
v 0.079263054 -0.070271019 0.014906736000000004
v 0.091773864 -0.073339812 -0.00004223699999999551
v 0.091773864 -0.073339812 0.014906736000000004
v 0.086148153 -0.08671033800000001 0.014906736000000007
v 0.073096569 -0.092296152 -0.00004223699999999435
v 0.086148153 -0.08671033800000001 -0.00004223699999999469
v 0.073096569 -0.092296152 0.014906736000000007
v 0.069844905 -0.077879763 0.0018022680000000047
v 0.057310812 -0.092510145 -0.00004223699999999434
v 0.069844905 -0.07956702 0.014906736000000007
v 0.055641924 -0.077969034 0.0018022680000000049
v 0.057310812 -0.092510145 0.014906736000000007
v -0.090054081 -0.058035159 0.014906736000000004
v -0.090054081 -0.058035159 -0.00004223699999999645
v -0.08953542 -0.073621431 0.014906736000000004
v -0.07551437400000001 -0.070271019 0.0018022680000000042
v -0.077521275 -0.070271019 0.014906736000000004
v -0.08953542 -0.073621431 -0.00004223699999999549
v -0.084425679 -0.08671033800000001 0.014906736000000007
v -0.084425679 -0.08671033800000001 -0.00004223699999999469
v -0.07117004700000001 -0.091938951 0.014906736000000007
v -0.053900028 -0.077969034 0.0018022680000000049
v -0.068103126 -0.077879763 0.0018022680000000047
v -0.068103126 -0.07956702 0.014906736000000007
v -0.053900028 -0.079656291 0.014906736000000007
v -0.07117004700000001 -0.091938951 -0.00004223699999999437
v -0.055217214 -0.091938951 0.014906736000000007
v 0.091802412 0.05918562 0.014906735999999997
v 0.091802412 0.05918562 -0.00004223700000000362
v 0.091250757 0.074475063 0.014906735999999997
v 0.07725615300000001 0.071449443 0.0018022679999999955
v 0.079263054 0.071449443 0.014906735999999997
v 0.091250757 0.074475063 -0.00004223700000000456
v 0.086148153 0.087860799 0.014906735999999993
v 0.086148153 0.087860799 -0.00004223700000000538
v 0.07288011900000001 0.092930409 0.014906735999999993
v 0.069844905 0.079058187 0.0018022679999999951
v 0.069844905 0.080745444 0.014906735999999993
v 0.055641924 0.08083471500000002 0.014906735999999993
v 0.07288011900000001 0.092930409 -0.00004223700000000569
v 0.057118815 0.093089295 0.014906735999999993
v -0.075510162 0.05725921500000001 0.0018022679999999966
v -0.077516946 0.05725921500000001 0.014906735999999997
v -0.08953542 0.058721481000000006 0.014906735999999997
v -0.08953542 0.07458551100000001 -0.00004223700000000457
v -0.07551437400000001 0.071449443 0.0018022679999999955
v -0.077521275 0.071449443 0.014906735999999997
v -0.08953542 0.07458551100000001 0.014906735999999997
v -0.084425679 0.087860799 -0.00004223700000000538
v -0.084425679 0.087860799 0.014906735999999993
v -0.07127838900000001 0.093089295 -0.0000422370000000057
v -0.068103126 0.080745444 0.014906735999999993
v -0.068103126 0.079058187 0.0018022679999999951
v -0.07127838900000001 0.093089295 0.014906735999999993
v -0.055347435 0.09335090700000001 -0.000042237000000005715
v -0.055347435 0.09335090700000001 0.014906735999999993
v 0.055641924 0.079147458 0.0018022679999999951
v -0.08404578 0.079147458 0.004030298999999995
v -0.08404578 -0.077969034 0.0040302990000000045
v 0.083749536 -0.077969034 0.0040302990000000045
v 0.083749536 0.079147458 0.004030298999999995
v -0.053900028 0.079147458 0.004030298999999995
v 0.000330291 -0.083945511 0.0041296320000000055
v 0.000330291 0.08434050300000001 0.004129631999999995
v 0.055641924 -0.077969034 0.0040302990000000045
v -0.053900028 -0.077969034 0.0040302990000000045
v 0.055641924 0.079147458 0.004030298999999995
v -0.00941148 -0.045281106 0.014261013000000003
v -0.034467498000000006 0.002436525000000001 0.014261013000000001
v 0.044693532 -0.016871166 0.014261013000000003
v 0.019637514000000002 0.030846465000000003 0.014261013
v -0.036592335000000004 0.062506431 0.014346656999999997
v 0.008420373000000002 0.032864715 0.014346656999999999
v -0.070201755 0.011468340000000002 0.014346657
v -0.025189047000000003 -0.018173376 0.014346657000000002
v 0.022960197 -0.011460851999999999 0.016117686
v 0.007604532000000001 -0.019432062000000003 0.016117686
v -0.001401192 -0.0022811489999999992 0.016117686
v 0.013954473 0.0056900610000000015 0.016117686
v 0.057310812 -0.092510145 0.014906736000000007
v 0.015426567 -0.093522195 0.014926977000000008
v 0.055641924 -0.079656291 0.014906736000000007
v 0.000330291 -0.08593380900000001 0.014926977000000008
v -0.077516946 0.05725921500000001 0.014906735999999997
v -0.08456467499999999 0.011681514000000002 0.014926977000000001
v -0.08953542 0.058721481000000006 0.014906735999999997
v -0.09209257200000001 0.011960676000000002 0.014926977000000001
v 0.055641924 0.08083471500000002 0.014906735999999993
v 0.000330291 0.086328801 0.014926976999999994
v 0.057118815 0.093089295 0.014906735999999993
v 0.015426567 0.093868398 0.014926976999999994
v 0.091802412 0.05918562 0.014906735999999997
v 0.09240297300000001 0.011960676000000002 0.014926977000000001
v 0.079258842 0.05725921500000001 0.014906735999999997
v 0.084930768 0.011681514000000002 0.014926977000000001
v -0.055217214 -0.091938951 0.014906736000000007
v -0.014813838000000001 -0.093522195 0.014926977000000008
v -0.053900028 -0.079656291 0.014906736000000007
v -0.053900028 0.08083471500000002 0.014906735999999993
v -0.055347435 0.09335090700000001 0.014906735999999993
v -0.014813838000000001 0.093868398 0.014926976999999994
v -0.012266280000000001 -0.100269117 0.014926977000000008
v 0.012879009 -0.100269117 0.014926977000000008
v -0.012266280000000001 0.100269117 0.014926976999999994
v 0.012879009 0.100269117 0.014926976999999994
v -0.09857074500000002 -0.009819458999999999 0.014926977000000001
v -0.09857074500000002 0.009359766000000002 0.014926977000000001
v 0.09857074500000002 -0.009819458999999999 0.014926977000000001
v 0.09857074500000002 0.009359766000000002 0.014926977000000001
v -0.077516946 -0.056080791000000005 0.014906736000000004
v -0.08456467499999999 -0.012071709 0.014926977000000001
v -0.090054081 -0.058035159 0.014906736000000004
v -0.09209257200000001 -0.012420368999999999 0.014926977000000001
v 0.09240297300000001 -0.012420368999999999 0.014926977000000001
v 0.091451529 -0.057519891000000004 0.014906736000000004
v 0.084930768 -0.012071709 0.014926977000000001
v 0.079258842 -0.056080791000000005 0.014906736000000004
v -0.09857074500000002 0.009359766000000002 0.014926977000000001
v -0.10075747500000001 0.009359766 -5.731203736334113e-19
v -0.09427930200000001 0.011960676 -7.323801789519284e-19
v -0.09209257200000001 0.011960676000000002 0.014926977000000001
v -0.09857074500000002 -0.009819458999999999 0.014926977000000001
v -0.09209257200000001 -0.012420368999999999 0.014926977000000001
v -0.09427930200000001 -0.012420369 7.605282570039507e-19
v -0.10075747500000001 -0.009819459 6.012684516854336e-19
v 0.09857074500000002 -0.009819458999999999 0.014926977000000001
v 0.10075747500000001 -0.009819459 6.012684516854336e-19
v 0.09458970300000001 -0.012420369 7.605282570039507e-19
v 0.09240297300000001 -0.012420368999999999 0.014926977000000001
v 0.09857074500000002 0.009359766000000002 0.014926977000000001
v 0.09240297300000001 0.011960676000000002 0.014926977000000001
v 0.09458970300000001 0.011960676 -7.323801789519284e-19
v 0.10075747500000001 0.009359766 -5.731203736334113e-19
v -0.012266280000000001 -0.100269117 0.014926977000000008
v -0.012266280000000001 -0.102467313 6.274313344134e-18
v -0.014813838000000001 -0.09572039100000002 5.861183522564156e-18
v -0.014813838000000001 -0.093522195 0.014926977000000008
v 0.012879009 -0.100269117 0.014926977000000008
v 0.015426567 -0.093522195 0.014926977000000008
v 0.015426567 -0.09572039100000002 5.861183522564156e-18
v 0.012879009 -0.102467313 6.274313344134e-18
v 0.012879009 0.100269117 0.014926976999999994
v 0.012879009 0.102467313 -6.274313344134e-18
v 0.015426567 0.096066477 -5.882375178170641e-18
v 0.015426567 0.093868398 0.014926976999999994
v -0.012266280000000001 0.100269117 0.014926976999999994
v -0.014813838000000001 0.093868398 0.014926976999999994
v -0.014813838000000001 0.096066477 -5.882375178170641e-18
v -0.012266280000000001 0.102467313 -6.274313344134e-18
v 0.091451529 -0.057519891000000004 -0.00004223699999999648
v 0.091451529 -0.057519891000000004 0.014906736000000004
v 0.077251941 -0.056080791000000005 0.0018022680000000036
v 0.079258842 -0.056080791000000005 0.014906736000000004
v 0.091773864 -0.073339812 -0.00004223699999999551
v 0.091773864 -0.073339812 0.014906736000000004
v 0.055641924 -0.077969034 0.0018022680000000049
v 0.055641924 -0.079656291 0.014906736000000007
v 0.073096569 -0.092296152 -0.00004223699999999435
v 0.057310812 -0.092510145 -0.00004223699999999434
v 0.057310812 -0.092510145 0.014906736000000007
v 0.073096569 -0.092296152 0.014906736000000007
v 0.086148153 -0.08671033800000001 0.014906736000000007
v 0.073096569 -0.092296152 0.014906736000000007
v 0.091773864 -0.073339812 0.014906736000000004
v 0.069844905 -0.07956702 0.014906736000000007
v 0.079263054 -0.070271019 0.014906736000000004
v 0.079258842 -0.056080791000000005 0.014906736000000004
v 0.091451529 -0.057519891000000004 0.014906736000000004
v 0.055641924 -0.079656291 0.014906736000000007
v 0.057310812 -0.092510145 0.014906736000000007
v -0.090054081 -0.058035159 -0.00004223699999999645
v -0.090054081 -0.058035159 0.014906736000000004
v -0.077516946 -0.056080791000000005 0.014906736000000004
v -0.075510162 -0.056080791000000005 0.0018022680000000036
v -0.08953542 -0.073621431 -0.00004223699999999549
v -0.08953542 -0.073621431 0.014906736000000004
v -0.053900028 -0.077969034 0.0018022680000000049
v -0.053900028 -0.079656291 0.014906736000000007
v -0.07117004700000001 -0.091938951 -0.00004223699999999437
v -0.07117004700000001 -0.091938951 0.014906736000000007
v -0.055217214 -0.091938951 0.014906736000000007
v -0.055217214 -0.091938951 -0.00004223699999999437
v -0.084425679 -0.08671033800000001 0.014906736000000007
v -0.08953542 -0.073621431 0.014906736000000004
v -0.07117004700000001 -0.091938951 0.014906736000000007
v -0.068103126 -0.07956702 0.014906736000000007
v -0.077521275 -0.070271019 0.014906736000000004
v -0.090054081 -0.058035159 0.014906736000000004
v -0.077516946 -0.056080791000000005 0.014906736000000004
v -0.053900028 -0.079656291 0.014906736000000007
v -0.055217214 -0.091938951 0.014906736000000007
v 0.091802412 0.05918562 -0.00004223700000000362
v 0.091802412 0.05918562 0.014906735999999997
v 0.079258842 0.05725921500000001 0.014906735999999997
v 0.077251941 0.05725921500000001 0.0018022679999999966
v 0.091250757 0.074475063 -0.00004223700000000456
v 0.091250757 0.074475063 0.014906735999999997
v 0.055641924 0.079147458 0.0018022679999999951
v 0.055641924 0.08083471500000002 0.014906735999999993
v 0.07288011900000001 0.092930409 -0.00004223700000000569
v 0.07288011900000001 0.092930409 0.014906735999999993
v 0.057118815 0.093089295 0.014906735999999993
v 0.057118815 0.093089295 -0.0000422370000000057
v 0.086148153 0.087860799 0.014906735999999993
v 0.091250757 0.074475063 0.014906735999999997
v 0.07288011900000001 0.092930409 0.014906735999999993
v 0.069844905 0.080745444 0.014906735999999993
v 0.079263054 0.071449443 0.014906735999999997
v 0.091802412 0.05918562 0.014906735999999997
v 0.079258842 0.05725921500000001 0.014906735999999997
v 0.055641924 0.08083471500000002 0.014906735999999993
v 0.057118815 0.093089295 0.014906735999999993
v -0.08953542 0.058721481000000006 -0.0000422370000000036
v -0.08953542 0.058721481000000006 0.014906735999999997
v -0.075510162 0.05725921500000001 0.0018022679999999966
v -0.077516946 0.05725921500000001 0.014906735999999997
v -0.08953542 0.07458551100000001 -0.00004223700000000457
v -0.08953542 0.07458551100000001 0.014906735999999997
v -0.053900028 0.079147458 0.0018022679999999951
v -0.053900028 0.08083471500000002 0.014906735999999993
v -0.07127838900000001 0.093089295 -0.0000422370000000057
v -0.055347435 0.09335090700000001 -0.000042237000000005715
v -0.055347435 0.09335090700000001 0.014906735999999993
v -0.07127838900000001 0.093089295 0.014906735999999993
v -0.084425679 0.087860799 0.014906735999999993
v -0.07127838900000001 0.093089295 0.014906735999999993
v -0.08953542 0.07458551100000001 0.014906735999999997
v -0.068103126 0.080745444 0.014906735999999993
v -0.077521275 0.071449443 0.014906735999999997
v -0.077516946 0.05725921500000001 0.014906735999999997
v -0.08953542 0.058721481000000006 0.014906735999999997
v -0.053900028 0.08083471500000002 0.014906735999999993
v -0.055347435 0.09335090700000001 0.014906735999999993
v -0.053900028 0.079147458 0.004030298999999995
v -0.053900028 -0.077969034 0.0040302990000000045
v 0.055641924 -0.077969034 0.0040302990000000045
v 0.055641924 0.079147458 0.004030298999999995
v 0.000330291 0.08434050300000001 0.004129631999999995
v 0.000330291 -0.083945511 0.0041296320000000055
vt 0.716209 0.326809
vt 0.655202 0.252006
vt 0.500474 0.075539
vt 0.655212 0.203754
vt 0.500482 0.015512
vt 0.011169 0.326662
vt 0.061673 0.347690
vt 0.721352 0.118860
vt 0.957078 0.501856
vt 0.028878 0.015321
vt 0.484902 0.334210
vt 0.364726 0.211597
vt 0.364714 0.259891
vt 0.484902 0.334210
vt 0.250329 0.336024
vt 0.364726 0.211597
vt 0.358799 0.388803
vt 0.250329 0.336024
vt 0.216591 0.023163
vt 0.218532 0.083314
vt 0.482192 0.109498
vt 0.482192 0.109498
vt 0.901126 0.677226
vt 0.216591 0.023163
vt 0.320002 0.083121
vt 0.247619 0.111312
vt 0.320002 0.083121
vt 0.320404 0.023036
vt 0.320404 0.023036
vt 0.247619 0.111312
vt 0.429920 0.345260
vt 0.429932 0.279114
vt 0.484914 0.268064
vt 0.301834 0.345227
vt 0.301846 0.279081
vt 0.250341 0.269877
vt 0.430687 0.100295
vt 0.430675 0.166441
vt 0.482180 0.175644
vt 0.302588 0.166408
vt 0.820013 0.802008
vt 0.302601 0.100262
vt 0.820013 0.802008
vt 0.775290 0.787010
vt 0.430687 0.100295
vt 0.838052 0.669776
vt 0.790289 0.677057
vt 0.302601 0.100262
vt 0.439565 0.433099
vt 0.425177 0.470810
vt 0.429920 0.345260
vt 0.276775 0.429940
vt 0.289815 0.468183
vt 0.301834 0.345227
vt 0.500482 0.015512
vt 0.891734 0.980851
vt 0.016312 0.118712
vt 0.213038 0.510406
vt 0.016300 0.185095
vt 0.228685 0.457697
vt 0.193618 0.649228
vt 0.221812 0.554261
vt 0.523801 0.551848
vt 0.627500 0.647188
vt 0.523801 0.647188
vt 0.627500 0.551848
vt 0.138394 0.504922
vt 0.011169 0.326662
vt 0.135645 0.451295
vt 0.068520 0.203601
vt 0.011182 0.260279
vt 0.906343 0.491440
vt 0.016312 0.118712
vt 0.193618 0.554261
vt 0.213038 0.510406
vt 0.228685 0.457697
vt 0.221812 0.649228
vt 0.523569 0.551848
vt 0.523569 0.647188
vt 0.627733 0.551849
vt 0.655212 0.203754
vt 0.138394 0.504922
vt 0.135645 0.451295
vt 0.651360 0.359133
vt 0.627733 0.647188
vt 0.716221 0.260427
vt 0.721339 0.185243
vt 0.721352 0.118860
vt 0.194217 0.554261
vt 0.138394 0.504922
vt 0.135645 0.451295
vt 0.220999 0.649228
vt 0.523569 0.551848
vt 0.523569 0.647188
vt 0.419637 0.551849
vt 0.213038 0.510406
vt 0.228685 0.457697
vt 0.068510 0.251853
vt 0.419637 0.647188
vt 0.053396 0.389895
vt 0.028878 0.015321
vt 0.028869 0.075348
vt 0.839319 0.982745
vt 0.193618 0.649228
vt 0.138394 0.504922
vt 0.135645 0.451295
vt 0.221812 0.554261
vt 0.523569 0.647188
vt 0.523569 0.551848
vt 0.419870 0.647188
vt 0.228685 0.457697
vt 0.213038 0.510406
vt 0.419870 0.551848
vt 0.716209 0.326809
vt 0.658237 0.401632
vt 0.068520 0.203601
vt 0.745538 0.980642
vt 0.042897 0.980643
vt 0.042897 0.980643
vt 0.745538 0.980642
vt 0.745538 0.875029
vt 0.016169 0.685038
vt 0.768761 0.685037
vt 0.042897 0.875030
vt 0.042897 0.875030
vt 0.745538 0.875029
vt 0.796545 0.228282
vt 0.993456 0.228282
vt 0.796545 0.010470
vt 0.993456 0.010470
vt 0.796545 0.228282
vt 0.993456 0.228282
vt 0.796545 0.010470
vt 0.993456 0.010470
vt 0.843659 0.312786
vt 0.843659 0.390564
vt 0.928020 0.390564
vt 0.928020 0.312786
vt 0.053396 0.389895
vt 0.276775 0.429940
vt 0.068510 0.251853
vt 0.364714 0.259891
vt 0.891734 0.980851
vt 0.883808 0.802155
vt 0.721339 0.185243
vt 0.482180 0.175644
vt 0.061673 0.347690
vt 0.358799 0.388803
vt 0.011182 0.260279
vt 0.250341 0.269877
vt 0.906343 0.491440
vt 0.838052 0.669776
vt 0.028869 0.075348
vt 0.218532 0.083314
vt 0.658237 0.401632
vt 0.439565 0.433099
vt 0.655202 0.252006
vt 0.651360 0.359133
vt 0.716221 0.260427
vt 0.484914 0.268064
vt 0.425177 0.470810
vt 0.289815 0.468183
vt 0.429932 0.279114
vt 0.301846 0.279081
vt 0.302588 0.166408
vt 0.430675 0.166441
vt 0.775290 0.787010
vt 0.790289 0.677057
vt 0.957078 0.501856
vt 0.901126 0.677226
vt 0.016300 0.185095
vt 0.247607 0.177458
vt 0.247607 0.177458
vt 0.839319 0.982745
vt 0.883808 0.802155
vt 0.500474 0.075539
vt 0.430675 0.166441
vt 0.430687 0.100295
vt 0.482192 0.109498
vt 0.482180 0.175644
vt 0.302588 0.166408
vt 0.247607 0.177458
vt 0.247619 0.111312
vt 0.302601 0.100262
vt 0.302588 0.166408
vt 0.302601 0.100262
vt 0.247619 0.111312
vt 0.247607 0.177458
vt 0.430675 0.166441
vt 0.482180 0.175644
vt 0.482192 0.109498
vt 0.430687 0.100295
vt 0.429932 0.279114
vt 0.429920 0.345260
vt 0.484902 0.334210
vt 0.484914 0.268064
vt 0.301846 0.279081
vt 0.250341 0.269877
vt 0.250329 0.336024
vt 0.301834 0.345227
vt 0.301846 0.279081
vt 0.301834 0.345227
vt 0.250329 0.336024
vt 0.250341 0.269877
vt 0.429932 0.279114
vt 0.484914 0.268064
vt 0.484902 0.334210
vt 0.429920 0.345260
vt 0.066555 0.649228
vt 0.068319 0.554857
vt 0.282118 0.531977
vt 0.297765 0.479268
vt 0.419637 0.647188
vt 0.419637 0.551849
vt 0.065918 0.516440
vt 0.063169 0.462813
vt 0.250715 0.646863
vt 0.396392 0.646843
vt 0.396425 0.554172
vt 0.275038 0.554256
vt 0.714653 0.470034
vt 0.621286 0.466314
vt 0.720267 0.545873
vt 0.599761 0.511523
vt 0.665689 0.564687
vt 0.664247 0.645698
vt 0.750986 0.637630
vt 0.499878 0.511394
vt 0.512340 0.437145
vt 0.067128 0.648632
vt 0.066128 0.554261
vt 0.297765 0.479268
vt 0.282118 0.531977
vt 0.419870 0.647188
vt 0.419870 0.551848
vt 0.065918 0.516440
vt 0.063169 0.462813
vt 0.275563 0.646850
vt 0.250715 0.554269
vt 0.395271 0.554249
vt 0.396772 0.647121
vt 0.714653 0.470034
vt 0.621286 0.466314
vt 0.720267 0.545873
vt 0.665689 0.564687
vt 0.599761 0.511523
vt 0.512340 0.437145
vt 0.499878 0.511394
vt 0.665190 0.646228
vt 0.750986 0.637630
vt 0.067726 0.648632
vt 0.065743 0.554261
vt 0.063169 0.462813
vt 0.065918 0.516440
vt 0.627733 0.647188
vt 0.627500 0.551848
vt 0.282118 0.531977
vt 0.297765 0.479268
vt 0.275563 0.646850
vt 0.250715 0.554269
vt 0.395271 0.554249
vt 0.396772 0.647121
vt 0.714865 0.470208
vt 0.621286 0.466314
vt 0.720338 0.545742
vt 0.664089 0.564085
vt 0.599024 0.510216
vt 0.512340 0.437145
vt 0.499229 0.510623
vt 0.664247 0.645698
vt 0.750986 0.637630
vt 0.066555 0.649228
vt 0.067723 0.554857
vt 0.065918 0.516440
vt 0.063169 0.462813
vt 0.627733 0.647188
vt 0.627500 0.551848
vt 0.282118 0.531977
vt 0.297765 0.479268
vt 0.250715 0.646863
vt 0.396392 0.646843
vt 0.396425 0.554172
vt 0.275038 0.554256
vt 0.714865 0.470208
vt 0.721241 0.546256
vt 0.622050 0.465620
vt 0.664089 0.564085
vt 0.599024 0.510216
vt 0.499229 0.510623
vt 0.512040 0.437486
vt 0.664247 0.645698
vt 0.751757 0.637462
vt 0.745538 0.875029
vt 0.042897 0.875030
vt 0.042897 0.875030
vt 0.745538 0.875029
vt 0.768761 0.685037
vt 0.016169 0.685038
vn -0.043818 -0.997876 0.04820000000000006
vn 0.053141 -0.990411 0.12752200000000005
vn 0.987136 0.05204700000000001 0.151176
vn 0.051618 -0.98973 0.13330700000000006
vn 0.983124 0.10452000000000002 0.150141
vn 0.040673 0.999173 -6.118170081222291E-17
vn 0.000121 1.6000000000061233E-05 1
vn -0.999433 0.033683 -2.0624889067840146E-18
vn -3.4E-05 0.00021900000000006124 1
vn -0.986625 -0.061161999999999994 0.151096
vn -0.09235 -0.985102 0.14506900000000006
vn 0.001079 0.990251 0.13929099999999994
vn 0.000943 -0.99025 0.13929900000000006
vn -0.040025 0.996549 0.07271299999999994
vn 0.075755 -0.986487 0.14527300000000007
vn 0.000914 -0.988548 0.15090100000000006
vn -2E-06 0.00038800000000006126 1
vn 0.045152 0.996331 0.07270499999999995
vn 0.985811 -0.07593299999999999 0.149703
vn 0.985771 -0.07583399999999998 0.150013
vn -0.994345 0.077849 0.072239
vn 0.987748 0.05842900000000001 0.144704
vn -2.1E-05 0.00021700000000006122 1
vn -0.986764 -0.061223999999999994 0.150164
vn 0.983178 0.10461200000000001 0.149724
vn -0.995026 -0.068549 0.072275
vn -0.987785 0.042190000000000005 0.150003
vn -0.985068 0.08448800000000001 0.150011
vn 0.987308 0.05237800000000001 0.149931
vn 0.987093 -0.06881999999999999 0.144608
vn 0 -0.98933 0.14569100000000004
vn 0 -0.98933 0.14569100000000004
vn -0.065826 -0.9952 0.07241000000000006
vn 0 -0.98933 0.14569100000000004
vn 0 -0.98933 0.14569100000000004
vn 0.049982 -0.996115 0.07251000000000006
vn 0.989439 8.875750141500356E-18 0.144952
vn 0.989439 8.875750141500356E-18 0.144952
vn 0.996754 0.03556800000000001 0.072222
vn 0.989439 8.875750141500356E-18 0.144952
vn -5E-06 -0.00011299999999993877 1
vn 0.989439 8.875750141500356E-18 0.144952
vn 1.4E-05 0.00017500000000006123 1
vn 0 6.123233995736766E-17 1
vn -0.989439 8.8756889091604E-18 0.144951
vn 1.8E-05 -0.00017999999999993878 1
vn 0 6.123233995736766E-17 1
vn -0.989439 8.8756889091604E-18 0.144951
vn -0.000162 -0.00013699999999993877 1
vn 0 6.123233995736766E-17 1
vn 0 0.98933 0.14568999999999993
vn 0.000198 -0.00016799999999993876 1
vn 0 6.123233995736766E-17 1
vn 0 0.98933 0.14568999999999993
vn -0.986492 0.06332200000000002 0.151076
vn -2.7E-05 -0.00022699999999993876 1
vn 0.999278 -0.012194999999999998 0.035993
vn -0.957672 0.247698 0.14666299999999996
vn 1 -0.000362 2.2166107064567095E-20
vn -0.856134 0.5013 0.12543099999999996
vn 0.966482 -0.256733 1.572036233427487E-17
vn 0.993016 -0.117982 7.224313932850151E-18
vn 0.797034 -0.603935 3.6980353232152835E-17
vn 0.142601 -0.98978 6.060654544300336E-17
vn 0.608803 -0.793321 4.8576901167318874E-17
vn 0.27141 -0.962464 5.89339228447279E-17
vn -0.506485 0.854269 0.11703999999999995
vn 0.037807 -0.99812 0.048251000000000065
vn -0.254322 0.959201 0.12350199999999995
vn -0.039645 0.991033 0.12760099999999994
vn 0.017091 -0.999854 6.122340003573389E-17
vn 2.3E-05 -0.00014699999999993876 1
vn -0.998598 -0.052939 3.2415788450030867E-18
vn -0.989396 -0.14524 8.893385055408079E-18
vn 0.957672 0.247699 0.14666299999999996
vn 0.856133 0.501301 0.12543099999999996
vn -0.966467 -0.256791 1.5723913809992398E-17
vn -0.802573 -0.596554 3.652839733092751E-17
vn -0.599371 -0.800472 4.9014773630354006E-17
vn -0.248499 -0.968632 5.931160391758495E-17
vn 0.040346 0.991005 0.12759699999999993
vn 0.506484 0.854269 0.11703999999999995
vn 0.254322 0.959201 0.12350199999999995
vn -0.000123 1.3000000000061231E-05 1
vn -0.12425 -0.992251 6.075785055503801E-17
vn -0.013054 -0.999915 6.122713520847128E-17
vn 0.999703 0.024388 -1.4933343068802825E-18
vn 0.998709 0.035837 0.035997
vn 0.989506 0.144492 -8.847583265119969E-18
vn -0.957672 -0.247699 0.14666300000000002
vn -0.856134 -0.5013 0.12543100000000001
vn 0.967599 0.252492 -1.5460675980515674E-17
vn 0.803935 0.594717 -3.6415913522425823E-17
vn 0.595349 0.803467 -4.9198164488526323E-17
vn 0.244724 0.969593 -5.937044819628398E-17
vn -0.506484 -0.854269 0.11704100000000006
vn -0.254322 -0.959201 0.12350400000000006
vn -0.05217 -0.990462 0.12753000000000006
vn 0.127474 0.991842 -6.073280652799546E-17
vn 0.000243 -2.8999999999938766E-05 1
vn 0.983485 -0.10098399999999999 0.150196
vn 0.987225 -0.05028099999999999 0.151189
vn 1.8E-05 0.00014400000000006123 1
vn -0.969999 0.243109 -1.4886132934695694E-17
vn 0.957672 -0.247699 0.14666300000000002
vn 0.856133 -0.501301 0.12543200000000002
vn -0.992585 0.121554 -7.443035851177869E-18
vn -0.602095 0.798424 -4.888936979812132E-17
vn -0.805051 0.593205 -3.6323330224410284E-17
vn -0.136099 0.990695 -6.066257303406436E-17
vn 0.254322 -0.959201 0.12350300000000006
vn 0.506484 -0.854269 0.11704100000000006
vn -0.255541 0.966798 -5.919930380610314E-17
vn -0.041644 0.999133 -6.117925151862463E-17
vn -0.00025 -2.8999999999938766E-05 1
vn -0.050676 -0.989777 0.13331500000000004
vn 0 6.123233995736766E-17 1
vn 0 6.123233995736766E-17 1
vn 0 6.123233995736766E-17 1
vn 0 6.123233995736766E-17 1
vn -0.001831 6.123221749268775E-17 0.999998
vn -1.8E-05 6.123233995736766E-17 1
vn -1.8E-05 6.123233995736766E-17 1
vn 0.001795 6.123221749268775E-17 0.999998
vn -0.001831 6.123221749268775E-17 0.999998
vn 0.001795 6.123221749268775E-17 0.999998
vn 0 6.123233995736766E-17 1
vn 0 6.123233995736766E-17 1
vn 0 6.123233995736766E-17 1
vn 0 6.123233995736766E-17 1
vn 0 6.123233995736766E-17 1
vn 0 6.123233995736766E-17 1
vn 0 6.123233995736766E-17 1
vn 0 6.123233995736766E-17 1
vn 0 6.123233995736766E-17 1
vn 0 6.123233995736766E-17 1
vn 0 6.123233995736766E-17 1
vn 0 6.123233995736766E-17 1
vn 0.000275 0.00032300000000006125 1
vn 0.000116 0.00023000000000006124 1
vn -0.074728 0.988019 0.13503199999999996
vn 0.001104 0.988548 0.15089999999999995
vn 2.3E-05 0.00029200000000006125 1
vn 8E-06 0.00022200000000006123 1
vn -0.997497 0.051833 0.048098
vn -0.98799 0.05409200000000001 0.14474
vn 0.000198 -0.00016799999999993876 1
vn -2E-06 -0.00041299999999993875 1
vn 0.02757 0.998963 0.03624099999999994
vn 0.018553 0.98916 0.14566499999999993
vn -2.1E-05 0.00021700000000006122 1
vn -4E-06 0.00010800000000006123 1
vn -0.986677 -0.061080999999999996 0.150788
vn -0.986816 -0.061142999999999996 0.149855
vn -0.000279 0.00032300000000006125 1
vn -0.000155 0.00031000000000006126 1
vn 0.076163 0.987912 0.13501699999999994
vn -0.000203 -0.00017099999999993878 1
vn -0.028195 0.998945 0.03624099999999994
vn -0.012702 0.98925 0.14567799999999995
vn 0 6.123233995736766E-17 1
vn 0 6.123233995736766E-17 1
vn 0 0.98933 0.14568999999999993
vn 0 0.98933 0.14568999999999993
vn -0.989439 8.8756889091604E-18 0.144951
vn -0.989439 8.8756889091604E-18 0.144951
vn 0 6.123233995736766E-17 1
vn 0 6.123233995736766E-17 1
vn 3E-05 -0.0002999999999999387 1
vn 7E-06 -0.00015299999999993878 1
vn -0.997228 -0.056768 0.04809600000000001
vn -0.98847 -0.04423799999999999 0.14481
vn 0.996378 -0.04497399999999999 0.072176
vn -1.9E-05 -0.00022599999999993876 1
vn -2.5E-05 -0.00030199999999993876 1
vn -0.986544 0.06323800000000002 0.150768
vn -0.372021 0.926623 0.054500999999999945
vn -0.372021 0.926623 0.054500999999999945
vn -0.372021 0.926623 0.054500999999999945
vn -0.372021 0.926623 0.054500999999999945
vn -0.372022 -0.926623 0.054501000000000056
vn -0.372022 -0.926623 0.054501000000000056
vn -0.372022 -0.926623 0.054501000000000056
vn -0.372022 -0.926623 0.054501000000000056
vn 0.387925 -0.919937 0.056831000000000055
vn 0.387925 -0.919937 0.056831000000000055
vn 0.387925 -0.919937 0.056831000000000055
vn 0.387925 -0.919937 0.056831000000000055
vn 0.387924 0.919938 0.056830999999999944
vn 0.387924 0.919938 0.056830999999999944
vn 0.387924 0.919938 0.056830999999999944
vn 0.387924 0.919938 0.056830999999999944
vn -0.934269 -0.352765 0.05194900000000002
vn -0.934269 -0.352765 0.05194900000000002
vn -0.934269 -0.352765 0.05194900000000002
vn -0.934269 -0.352765 0.05194900000000002
vn 0.934269 -0.352764 0.05194900000000002
vn 0.934269 -0.352764 0.05194900000000002
vn 0.934269 -0.352764 0.05194900000000002
vn 0.934269 -0.352764 0.05194900000000002
vn 0.927741 0.369243 0.05437499999999998
vn 0.927741 0.369243 0.05437499999999998
vn 0.927741 0.369243 0.05437499999999998
vn 0.927741 0.369243 0.05437499999999998
vn -0.92774 0.369244 0.05437499999999998
vn -0.92774 0.369244 0.05437499999999998
vn -0.92774 0.369244 0.05437499999999998
vn -0.92774 0.369244 0.05437499999999998
vn 0.999278 -0.012194999999999998 0.035993
vn 1 -0.000362 2.2166107064567095E-20
vn -0.986492 0.06332200000000002 0.151076
vn -0.986544 0.06323800000000002 0.150768
vn 0.966482 -0.256733 1.572036233427487E-17
vn 0.993016 -0.117982 7.224313932850151E-18
vn -0.039645 0.991033 0.12760099999999994
vn -0.074728 0.988019 0.13503199999999996
vn 0.142601 -0.98978 6.060654544300336E-17
vn 0.037807 -0.99812 0.048251000000000065
vn 0.017091 -0.999854 6.122340003573389E-17
vn 0.27141 -0.962464 5.89339228447279E-17
vn 0 6.123233995736766E-17 1
vn 0 6.123233995736766E-17 1
vn 0 6.123233995736766E-17 1
vn 0 6.123233995736766E-17 1
vn 0 6.123233995736766E-17 1
vn -2.7E-05 -0.00022699999999993876 1
vn -1.9E-05 -0.00022599999999993876 1
vn 0.000121 1.6000000000061233E-05 1
vn 0.000275 0.00032300000000006125 1
vn -0.998598 -0.052939 3.2415788450030867E-18
vn -0.997228 -0.056768 0.04809600000000001
vn 0.987136 0.05204700000000001 0.151176
vn 0.983124 0.10452000000000002 0.150141
vn -0.966467 -0.256791 1.5723913809992398E-17
vn -0.989396 -0.14524 8.893385055408079E-18
vn 0.040346 0.991005 0.12759699999999993
vn 0.076163 0.987912 0.13501699999999994
vn -0.12425 -0.992251 6.075785055503801E-17
vn -0.248499 -0.968632 5.931160391758495E-17
vn -0.013054 -0.999915 6.122713520847128E-17
vn -0.043818 -0.997876 0.04820000000000006
vn -0 6.123233995736766E-17 1
vn -0 6.123233995736766E-17 1
vn -0 6.123233995736766E-17 1
vn 0 6.123233995736766E-17 1
vn 0 6.123233995736766E-17 1
vn 2.3E-05 -0.00014699999999993876 1
vn 3E-05 -0.0002999999999999387 1
vn -0.000123 1.3000000000061231E-05 1
vn -0.000279 0.00032300000000006125 1
vn 0.998709 0.035837 0.035997
vn 0.999703 0.024388 -1.4933343068802825E-18
vn -0.986677 -0.061080999999999996 0.150788
vn -0.986625 -0.061161999999999994 0.151096
vn 0.967599 0.252492 -1.5460675980515674E-17
vn 0.989506 0.144492 -8.847583265119969E-18
vn -0.050676 -0.989777 0.13331500000000004
vn -0.05217 -0.990462 0.12753000000000006
vn 0.127474 0.991842 -6.073280652799546E-17
vn 0.244724 0.969593 -5.937044819628398E-17
vn 0.02757 0.998963 0.03624099999999994
vn 0.040673 0.999173 -6.118170081222291E-17
vn 0 6.123233995736766E-17 1
vn 0 6.123233995736766E-17 1
vn 0 6.123233995736766E-17 1
vn 0 6.123233995736766E-17 1
vn 0 6.123233995736766E-17 1
vn -2.1E-05 0.00021700000000006122 1
vn -3.4E-05 0.00021900000000006124 1
vn 0.000198 -0.00016799999999993876 1
vn 0.000243 -2.8999999999938766E-05 1
vn -0.999433 0.033683 -2.0624889067840146E-18
vn -0.997497 0.051833 0.048098
vn 0.983485 -0.10098399999999999 0.150196
vn 0.987225 -0.05028099999999999 0.151189
vn -0.969999 0.243109 -1.4886132934695694E-17
vn -0.992585 0.121554 -7.443035851177869E-18
vn 0.051618 -0.98973 0.13330700000000006
vn 0.053141 -0.990411 0.12752200000000005
vn -0.136099 0.990695 -6.066257303406436E-17
vn -0.041644 0.999133 -6.117925151862463E-17
vn -0.028195 0.998945 0.03624099999999994
vn -0.255541 0.966798 -5.919930380610314E-17
vn -0 6.123233995736766E-17 1
vn -0 6.123233995736766E-17 1
vn -0 6.123233995736766E-17 1
vn 0 6.123233995736766E-17 1
vn 0 6.123233995736766E-17 1
vn 2.3E-05 0.00029200000000006125 1
vn 1.8E-05 0.00014400000000006123 1
vn -0.000203 -0.00017099999999993878 1
vn -0.00025 -2.8999999999938766E-05 1
vn 0 6.123233995736766E-17 1
vn 0 6.123233995736766E-17 1
vn 0 6.123233995736766E-17 1
vn 0 6.123233995736766E-17 1
vn -1.8E-05 6.123233995736766E-17 1
vn -1.8E-05 6.123233995736766E-17 1
g 01
f 136/136/136 135/135/135 138/138/138
f 138/138/138 137/137/137 136/136/136
f 131/131/131 133/133/133 134/134/134
f 134/134/134 132/132/132 131/131/131
f 127/127/127 129/129/129 130/130/130
f 130/130/130 128/128/128 127/127/127
f 295/295/295 119/119/119 120/120/120
f 120/120/120 296/296/296 295/295/295
f 293/293/293 117/117/117 118/118/118
f 118/118/118 294/294/294 293/293/293
f 297/297/297 121/121/121 125/125/125
f 125/125/125 298/298/298 297/297/297
f 123/123/123 122/122/122 124/124/124
f 124/124/124 126/126/126 123/123/123
f 291/291/291 292/292/292 285/285/285
f 285/285/285 287/287/287 291/291/291
f 288/288/288 286/286/286 290/290/290
f 290/290/290 289/289/289 288/288/288
f 287/287/287 285/285/285 286/286/286
f 286/286/286 288/288/288 287/287/287
f 286/286/286 285/285/285 284/284/284
f 112/112/112 111/111/111 106/106/106
f 106/106/106 105/105/105 112/112/112
f 280/280/280 283/283/283 282/282/282
f 282/282/282 281/281/281 280/280/280
f 278/278/278 279/279/279 111/111/111
f 111/111/111 112/112/112 278/278/278
f 108/108/108 109/109/109 113/113/113
f 113/113/113 110/110/110 108/108/108
f 276/276/276 277/277/277 109/109/109
f 109/109/109 108/108/108 276/276/276
f 105/105/105 106/106/106 275/275/275
f 275/275/275 274/274/274 105/105/105
f 272/272/272 273/273/273 107/107/107
f 107/107/107 104/104/104 272/272/272
f 270/270/270 266/266/266 265/265/265
f 265/265/265 271/271/271 270/270/270
f 267/267/267 269/269/269 268/268/268
f 268/268/268 264/264/264 267/267/267
f 266/266/266 267/267/267 264/264/264
f 264/264/264 265/265/265 266/266/266
f 265/265/265 264/264/264 263/263/263
f 96/96/96 90/90/90 91/91/91
f 91/91/91 97/97/97 96/96/96
f 259/259/259 262/262/262 261/261/261
f 261/261/261 260/260/260 259/259/259
f 257/257/257 96/96/96 97/97/97
f 97/97/97 258/258/258 257/257/257
f 94/94/94 99/99/99 95/95/95
f 95/95/95 93/93/93 94/94/94
f 255/255/255 94/94/94 93/93/93
f 93/93/93 256/256/256 255/255/255
f 90/90/90 254/254/254 253/253/253
f 253/253/253 91/91/91 90/90/90
f 251/251/251 92/92/92 89/89/89
f 89/89/89 252/252/252 251/251/251
f 249/249/249 245/245/245 244/244/244
f 244/244/244 250/250/250 249/249/249
f 246/246/246 248/248/248 247/247/247
f 247/247/247 243/243/243 246/246/246
f 245/245/245 246/246/246 243/243/243
f 243/243/243 244/244/244 245/245/245
f 244/244/244 243/243/243 242/242/242
f 82/82/82 75/75/75 76/76/76
f 76/76/76 83/83/83 82/82/82
f 238/238/238 241/241/241 240/240/240
f 240/240/240 239/239/239 238/238/238
f 236/236/236 82/82/82 83/83/83
f 83/83/83 237/237/237 236/236/236
f 79/79/79 85/85/85 80/80/80
f 80/80/80 78/78/78 79/79/79
f 234/234/234 79/79/79 78/78/78
f 78/78/78 235/235/235 234/234/234
f 75/75/75 233/233/233 232/232/232
f 232/232/232 76/76/76 75/75/75
f 230/230/230 77/77/77 74/74/74
f 74/74/74 231/231/231 230/230/230
f 228/228/228 229/229/229 222/222/222
f 222/222/222 224/224/224 228/228/228
f 225/225/225 223/223/223 227/227/227
f 227/227/227 226/226/226 225/225/225
f 224/224/224 222/222/222 223/223/223
f 223/223/223 225/225/225 224/224/224
f 223/223/223 222/222/222 221/221/221
f 67/67/67 69/69/69 60/60/60
f 60/60/60 58/58/58 67/67/67
f 217/217/217 220/220/220 219/219/219
f 219/219/219 218/218/218 217/217/217
f 215/215/215 216/216/216 69/69/69
f 69/69/69 67/67/67 215/215/215
f 65/65/65 63/63/63 66/66/66
f 66/66/66 64/64/64 65/65/65
f 213/213/213 214/214/214 63/63/63
f 63/63/63 65/65/65 213/213/213
f 58/58/58 60/60/60 212/212/212
f 212/212/212 211/211/211 58/58/58
f 209/209/209 210/210/210 62/62/62
f 62/62/62 61/61/61 209/209/209
f 148/148/148 52/52/52 49/49/49
f 205/205/205 208/208/208 207/207/207
f 207/207/207 206/206/206 205/205/205
f 201/201/201 204/204/204 203/203/203
f 203/203/203 202/202/202 201/201/201
f 17/17/17 156/156/156 140/140/140
f 197/197/197 200/200/200 199/199/199
f 199/199/199 198/198/198 197/197/197
f 193/193/193 196/196/196 195/195/195
f 195/195/195 194/194/194 193/193/193
f 41/41/41 152/152/152 23/23/23
f 23/23/23 175/175/175 41/41/41
f 189/189/189 192/192/192 191/191/191
f 191/191/191 190/190/190 189/189/189
f 185/185/185 188/188/188 187/187/187
f 187/187/187 186/186/186 185/185/185
f 43/43/43 46/46/46 170/170/170
f 170/170/170 144/144/144 43/43/43
f 181/181/181 184/184/184 183/183/183
f 183/183/183 182/182/182 181/181/181
f 177/177/177 180/180/180 179/179/179
f 179/179/179 178/178/178 177/177/177
f 176/176/176 27/27/27 28/28/28
f 28/28/28 55/55/55 176/176/176
f 174/174/174 41/41/41 175/175/175
f 175/175/175 56/56/56 174/174/174
f 57/57/57 30/30/30 173/173/173
f 173/173/173 59/59/59 57/57/57
f 171/171/171 172/172/172 26/26/26
f 26/26/26 73/73/73 171/171/171
f 169/169/169 170/170/170 46/46/46
f 46/46/46 72/72/72 169/169/169
f 5/5/5 29/29/29 25/25/25
f 25/25/25 3/3/3 5/5/5
f 27/27/27 154/154/154 24/24/24
f 24/24/24 28/28/28 27/27/27
f 167/167/167 168/168/168 152/152/152
f 152/152/152 41/41/41 167/167/167
f 42/42/42 37/37/37 38/38/38
f 38/38/38 40/40/40 42/42/42
f 165/165/165 166/166/166 45/45/45
f 45/45/45 48/48/48 165/165/165
f 46/46/46 43/43/43 44/44/44
f 44/44/44 47/47/47 46/46/46
f 29/29/29 19/19/19 20/20/20
f 20/20/20 25/25/25 29/29/29
f 163/163/163 164/164/164 54/54/54
f 54/54/54 51/51/51 163/163/163
f 49/49/49 52/52/52 53/53/53
f 53/53/53 50/50/50 49/49/49
f 161/161/161 162/162/162 140/140/140
f 140/140/140 156/156/156 161/161/161
f 31/31/31 34/34/34 35/35/35
f 35/35/35 32/32/32 31/31/31
f 159/159/159 160/160/160 14/14/14
f 14/14/14 114/114/114 159/159/159
f 158/158/158 148/148/148 49/49/49
f 49/49/49 115/115/115 158/158/158
f 4/4/4 16/16/16 13/13/13
f 13/13/13 2/2/2 4/4/4
f 157/157/157 142/142/142 12/12/12
f 12/12/12 81/81/81 157/157/157
f 155/155/155 156/156/156 17/17/17
f 17/17/17 84/84/84 155/155/155
f 1/1/1 11/11/11 33/33/33
f 33/33/33 86/86/86 1/1/1
f 153/153/153 10/10/10 24/24/24
f 24/24/24 154/154/154 153/153/153
f 151/151/151 9/9/9 23/23/23
f 23/23/23 152/152/152 151/151/151
f 88/88/88 87/87/87 39/39/39
f 39/39/39 22/22/22 88/88/88
f 149/149/149 6/6/6 18/18/18
f 18/18/18 150/150/150 149/149/149
f 147/147/147 100/100/100 52/52/52
f 52/52/52 148/148/148 147/147/147
f 116/116/116 98/98/98 13/13/13
f 13/13/13 16/16/16 116/116/116
f 145/145/145 8/8/8 21/21/21
f 21/21/21 146/146/146 145/145/145
f 143/143/143 103/103/103 43/43/43
f 43/43/43 144/144/144 143/143/143
f 101/101/101 102/102/102 20/20/20
f 20/20/20 19/19/19 101/101/101
f 141/141/141 70/70/70 12/12/12
f 12/12/12 142/142/142 141/141/141
f 139/139/139 7/7/7 17/17/17
f 17/17/17 140/140/140 139/139/139
f 68/68/68 71/71/71 36/36/36
f 36/36/36 15/15/15 68/68/68
