v 0.08831768400000001 -0.162845046 0.00694079100000001
v 0.089930412 0.12806398800000002 0.006283835999999992
v -0.090823707 0.128129508 0.006296120999999992
v -0.07709399100000001 -0.169430391 0.00694699200000001
v 0.11733111000000002 0.13093470000000001 -0.055972449000000014
v -0.11822452200000001 0.13100022000000003 -0.05596004700000001
v 0.089930412 0.12806398800000002 0.006283835999999992
v -0.090823707 0.128129508 0.006296120999999992
vt 0.394425 0.884811
vt 0.417067 0.882226
vt 0.044051 0.631852
vt 0.011688 0.631852
vt 0.417067 0.882226
vt 0.044051 0.631852
vt 0.417067 0.882226
vt 0.044051 0.631852
vn 1E-05 0.002221000000000061 0.999998
vn 6.9E-05 0.002258000000000061 0.999997
vn 1E-05 0.002221000000000061 0.999998
vn -5E-05 0.002185000000000061 0.999998
vn 0.00028 0.998933 0.046185999999999935
vn 0.000365 0.998946 0.045901999999999936
vn 0.000365 0.998946 0.045901999999999936
vn 0.000365 0.998946 0.045901999999999936
g Default Standard
f 7/7/7 5/5/5 6/6/6
f 6/6/6 8/8/8 7/7/7
f 3/3/3 4/4/4 1/1/1
f 1/1/1 2/2/2 3/3/3
