v -0.034117 -0.612188 0.552583
v -0.117543 -0.677697 0.556182
v -0.118368 -0.783826 0.556723
v 0.069089 -0.636628 0.548635
v 0.067602 -0.827866 0.54961
v -0.035971 -0.850657 0.553798
v 0.114358 -0.732614 0.547312
v -0.047499 -0.869954 0.37186300000000005
v -0.035971 -0.850657 0.553798
v -0.118368 -0.783826 0.556723
v -0.142652 -0.792777 0.37524100000000005
v -0.050322 -0.852404 0.18940900000000005
v -0.117543 -0.677697 0.556182
v -0.132719 -0.785572 0.19233400000000006
v -0.141699 -0.67022 0.37461600000000006
v -0.034117 -0.612188 0.552583
v -0.131894 -0.679443 0.19179300000000002
v -0.045358 -0.59457 0.37045900000000004
v 0.069089 -0.636628 0.548635
v -0.048468 -0.613934 0.18819300000000003
v 0.073823 -0.622794 0.36590100000000003
v 0.114358 -0.732614 0.547312
v 0.054738 -0.638374 0.18424600000000002
v 0.1261 -0.733638 0.36437300000000006
v 0.067602 -0.827866 0.54961
v 0.100007 -0.73436 0.18292300000000006
v 0.072107 -0.843635 0.36702700000000005
v -0.035971 -0.850657 0.553798
v 0.053251 -0.829612 0.18522100000000005
v -0.047499 -0.869954 0.37186300000000005
v -0.050322 -0.852404 0.18940900000000005
vt 0.504430 0.765526
vt 0.469422 0.809425
vt 0.413273 0.809425
vt 0.491936 0.710785
vt 0.390759 0.710785
vt 0.378265 0.765526
vt 0.441348 0.686422
vt 0.217813 0.485130
vt 0.218471 0.313675
vt 0.295390 0.313675
vt 0.295127 0.485130
vt 0.218471 0.656543
vt 0.369001 0.313675
vt 0.295390 0.656543
vt 0.369264 0.485130
vt 0.445919 0.313675
vt 0.369001 0.656543
vt 0.446578 0.485130
vt 0.527824 0.313675
vt 0.445919 0.656543
vt 0.528395 0.485130
vt 0.610316 0.313675
vt 0.527824 0.656543
vt 0.610316 0.485130
vt 0.692808 0.313675
vt 0.610316 0.656543
vt 0.692429 0.485130
vt 0.776204 0.313841
vt 0.692808 0.656543
vt 0.775545 0.485130
vt 0.776204 0.656708
vn -0.256064 0.716688 0.648683
vn -0.848094 0.26747000000000004 0.457379
vn -0.40978 -0.29928399999999994 0.86169
vn 0.348618 0.557733 0.753259
vn 0.49923 -0.4303159999999999 0.752062
vn -0.049261 -0.900759 0.43151600000000007
vn 0.910904 0.13838100000000003 0.388721
vn -0.229921 -0.973113 0.01371900000000006
vn -0.049261 -0.900759 0.43151600000000007
vn -0.40978 -0.29928399999999994 0.86169
vn -0.903617 -0.426685 0.03763300000000003
vn -0.383164 -0.919982 -0.08256899999999995
vn -0.848094 0.26747000000000004 0.457379
vn -0.958807 -0.276989 -0.06297899999999998
vn -0.89687 0.441045 0.033208999999999975
vn -0.256064 0.716688 0.648683
vn -0.81547 0.574215 -0.07270300000000005
vn -0.214762 0.976659 0.0037779999999999403
vn 0.348618 0.557733 0.753259
vn -0.06109 0.992655 -0.10441900000000005
vn 0.629066 0.776829 -0.028498000000000048
vn 0.910904 0.13838100000000003 0.388721
vn 0.73627 0.663239 -0.13424300000000003
vn 0.999195 -0.007969000000000002 -0.039314
vn 0.49923 -0.4303159999999999 0.752062
vn 0.976181 -0.165978 -0.139718
vn 0.61691 -0.786766 -0.02052599999999995
vn -0.049261 -0.900759 0.43151600000000007
vn 0.477986 -0.870578 -0.11672099999999995
vn -0.229921 -0.973113 0.01371900000000006
vn -0.383164 -0.919982 -0.08256899999999995
g firefighter_cart
f 1/1/1 2/2/2 3/3/3
f 4/4/4 1/1/1 3/3/3
f 5/5/5 4/4/4 3/3/3
f 6/6/6 5/5/5 3/3/3
f 5/5/5 7/7/7 4/4/4
f 8/8/8 9/9/9 10/10/10
f 10/10/10 11/11/11 8/8/8
f 12/12/12 8/8/8 11/11/11
f 11/11/11 10/10/10 13/13/13
f 11/11/11 14/14/14 12/12/12
f 13/13/13 15/15/15 11/11/11
f 14/14/14 11/11/11 15/15/15
f 15/15/15 13/13/13 16/16/16
f 15/15/15 17/17/17 14/14/14
f 16/16/16 18/18/18 15/15/15
f 17/17/17 15/15/15 18/18/18
f 18/18/18 16/16/16 19/19/19
f 18/18/18 20/20/20 17/17/17
f 19/19/19 21/21/21 18/18/18
f 20/20/20 18/18/18 21/21/21
f 21/21/21 19/19/19 22/22/22
f 21/21/21 23/23/23 20/20/20
f 22/22/22 24/24/24 21/21/21
f 23/23/23 21/21/21 24/24/24
f 24/24/24 22/22/22 25/25/25
f 24/24/24 26/26/26 23/23/23
f 25/25/25 27/27/27 24/24/24
f 26/26/26 24/24/24 27/27/27
f 27/27/27 25/25/25 28/28/28
f 27/27/27 29/29/29 26/26/26
f 28/28/28 30/30/30 27/27/27
f 29/29/29 27/27/27 30/30/30
f 30/30/30 31/31/31 29/29/29
