v -0.471587676 0.4715875745000003 3.7228996210000007
v 0.25234879250000003 -0.2523487924999995 8.5702545075
v -0.4715875745 -0.47158777749999975 3.7228996210000007
v 2.09323653 -2.093236327 1.281737583859756e-16
v 2.093236327 2.093236327 -1.281737583859756e-16
v 0 6.642697584294123e-17 1.084834842
v -2.093236327 -2.093236327 1.281737583859756e-16
v -2.093236327 2.093236327 -1.281737583859756e-16
v 0.3477537175 0.7274704955000006 10.442882716
v 0.34202475300000007 0.7489648460000007 10.326930334
v 0.35480411050000005 0.6657153580000007 10.551345210000001
v 0.6259921150000001 0.5397434035000008 11.2202700995
v 0.38742864650000003 -0.26124993649999934 11.199084512
v 0.21244437200000002 0.28234011400000064 10.616533585
v 1.5973565545000001 -0.19761745499999936 11.0877870215
v 0.069195595 0.07375923800000062 10.005325046500001
v -0.016305569000000002 -0.02226453249999937 10.2910477495
v 0.19843341350000002 -0.44999202849999936 10.717836878000002
v 0.14249757550000003 -0.2918846664999994 10.400946773000001
v 0.20093234350000003 0.030081555000000634 10.292386636
v 0.1562370215 0.31060492050000066 10.3683150305
v -0.0228855095 0.16343661950000063 10.2330813025
v 0.0023989525 -0.44899418199999935 10.567546031000001
v 0.148402338 -0.0904480709999994 9.9237584285
v 0.507526187 -0.9093934114999993 11.014833084500001
v 0.0748744185 -0.0397075104999994 9.982689024
v 1.3453659555000002 0.43869639800000076 11.3035705405
v -0.151582333 0.3331126470000006 9.64887623
v 0.23566310600000004 -0.2727162899999994 9.6626874365
v 1.8824538145 0.38960978000000074 11.576188375500001
v 0.2890000365 0.3095310505000006 9.6478966535
v 0.0029225910000000004 -1.0663765594999994 11.2894689425
v 0.00296583 -0.4727931914999994 10.853714116
v 0.33076830150000003 0.7901805450000007 10.5459857055
v -0.04881338 0.5398833720000007 10.438694014
v -0.206950989 0.5516860965000008 11.2260369235
v -0.542843721 -0.18207120749999933 11.162288123
v -0.19981046400000002 0.3000509505000007 10.621289875
v -0.238647003 0.042216793500000634 10.318638291500001
v -0.192980123 -0.4492427554999994 10.71863142
v 0.032502127000000006 0.30111994850000073 10.7333802835
v -0.2325617735 -0.0933585834999994 9.912460159
v -0.5016763360000001 -0.9093909754999994 11.014832272500001
v -0.162011458 -0.01376705399999939 9.98428501
v 0.20557475050000004 0.7925110865000007 10.566461097500001
v -1.3457887030000002 0.6449074520000008 11.543364595
v -0.654300871 0.9278607275000007 11.45570818
v -0.2298131535 -0.2727162899999994 9.6626874365
v -0.9058786695000001 1.319999380000001 11.723782773500002
v -0.29169882 0.31466613850000064 9.615832600500001
v 0.2545645375 0.8066507470000007 10.452321708500001
v 0.1263893225 0.3382477350000006 9.6861984905
v 0.17195043950000002 0.6267312380000007 10.349117219000002
v 0.2595626005 0.8156719655000008 10.333568434
v 0.36363897500000003 0.8499386700000008 10.3692171625
v 0.329996394 0.8245262165000007 10.250240080500001
v -0.30623676650000003 5.916831386167489e-16 9.662918958
v -0.471587676 0.47158757450000016 2.6452411335000003
v 0.471587676 -0.47158757449999983 2.6452411335000003
v 0.25234889400000005 0.25234879250000053 8.5702545075
v -1.0137147055 1.0137145025 0.4326280174999999
v -0.4715875745 -0.4715878789999999 2.6452411335000003
v -0.2527012005 5.359560301703265e-16 8.7528262115
v 0 0.3062367665000006 9.662918958
v 0.471587676 0.4715876760000003 3.7228996210000007
v 0.19843341350000002 -0.44999202849999936 10.717836878000002
v -0.192980123 -0.4492427554999994 10.71863142
v -0.1433410405 -0.2882886229999994 10.3967015355
v -0.1602111525 0.07918248450000062 9.978624253500001
v -0.096531981 -0.1331001979999994 9.905942235000001
v 1.0137145025 1.0137147055 0.4326280174999999
v 1.0137147055 -1.0137145025 0.43262801750000013
v 0.4715875745 0.4715876760000002 2.6452411335000003
v 1.0137145025 1.0137146040000002 2.12926497
v 1.0137147055 -1.0137145024999998 2.12926497
v 0.471587676 -0.4715875744999997 3.7228996210000007
v 0 5.602840570216544e-16 9.150133041000002
v -1.0137147055 1.0137145025000003 2.12926497
v -1.0137142995 -1.0137147055 2.12926497
v -1.0137142995 -1.0137147055 0.43262801750000013
v -0.25234879250000003 -0.2523488939999995 8.5702545075
v -0.25234879250000003 0.25234879250000053 8.5702545075
v 0 0.2527010990000006 8.7528262115
v 0.25270109900000004 5.359560301703265e-16 8.7528262115
v 0 -0.2527010989999995 8.7528262115
v -1.015e-7 -0.3062367664999994 9.662918958
v 0.30623676650000003 5.916831386167489e-16 9.662918958
v 0.014608184500000001 -0.1395460569999994 9.931896394
v 1.8800863270000001 4.8902022995 -2.994385296632851e-16
v 2.378120437 4.8902022995 -2.994385296632851e-16
v 2.1291034835000002 4.189855649000001 -2.5655466547186533e-16
v 1.8800863270000001 4.8902022995 1.7018741494999998
v 2.378120437 4.8902022995 1.7018741494999998
v 2.1291034835000002 4.189855649000001 1.7018741494999998
v -2.4191305985000002 4.8902022995 -2.994385296632851e-16
v -1.9210964885000001 4.8902022995 -2.994385296632851e-16
v -2.170113442 4.189855649000001 -2.5655466547186533e-16
v -2.4191305985000002 4.8902022995 1.7018741494999998
v -1.9210964885000001 4.8902022995 1.7018741494999998
v -2.170113442 4.189855649000001 1.7018741494999998
v 4.2671313545 2.7441494325000004 -1.6803069094465757e-16
v 4.2671313545 4.2249266395000005 -2.5870214428480293e-16
v 4.2671313545 4.2249266395000005 1.4715527855
v 4.2671313545 2.7441494325000004 1.4715527855
v 4.288931423 2.7441494325000004 -1.6803069094465757e-16
v 4.288931423 2.7441494325000004 1.4715527855
v 4.288931423 4.2249266395000005 1.4715527855
v 4.288931423 4.2249266395000005 -2.5870214428480293e-16
v 2.7363771715 4.2865884985000005 -2.6247784419749424e-16
v 4.2171541755 4.2865884985000005 -2.6247784419749424e-16
v 4.2171541755 4.2865884985000005 1.4715527855
v 2.7363771715 4.2865884985000005 1.4715527855
v 2.7363771715 4.26478843 -2.611429749920083e-16
v 2.7363771715 4.26478843 1.4715527855
v 4.2171541755 4.26478843 1.4715527855
v 4.2171541755 4.26478843 -2.611429749920083e-16
v 2.7441494325000004 -4.2671313545 2.612864377414868e-16
v 4.2249266395000005 -4.2671313545 2.612864377414868e-16
v 4.2249266395000005 -4.2671313545 1.4715527855000001
v 2.7441494325000004 -4.2671313545 1.4715527855000001
v 2.7441494325000004 -4.288931423 2.6262130694697264e-16
v 2.7441494325000004 -4.288931423 1.4715527855000001
v 4.2249266395000005 -4.288931423 1.4715527855000001
v 4.2249266395000005 -4.288931423 2.6262130694697264e-16
v 4.2865884985000005 -2.7363771715 1.6755477721686817e-16
v 4.2865884985000005 -4.2171541755 2.582262181268485e-16
v 4.2865884985000005 -4.2171541755 1.4715527855000001
v 4.2865884985000005 -2.7363771715 1.4715527855000001
v 4.26478843 -2.7363771715 1.6755477721686817e-16
v 4.26478843 -2.7363771715 1.4715527855000001
v 4.26478843 -4.2171541755 1.4715527855000001
v 4.26478843 -4.2171541755 2.582262181268485e-16
v -4.2671313545 -2.7441494325000004 1.6803069094465757e-16
v -4.2671313545 -4.2249266395000005 2.5870214428480293e-16
v -4.2671313545 -4.2249266395000005 1.4715527855000001
v -4.2671313545 -2.7441494325000004 1.4715527855000001
v -4.288931423 -2.7441494325000004 1.6803069094465757e-16
v -4.288931423 -2.7441494325000004 1.4715527855000001
v -4.288931423 -4.2249266395000005 1.4715527855000001
v -4.288931423 -4.2249266395000005 2.5870214428480293e-16
v -2.7363771715 -4.2865884985000005 2.6247784419749424e-16
v -4.2171541755 -4.2865884985000005 2.6247784419749424e-16
v -4.2171541755 -4.2865884985000005 1.4715527855000001
v -2.7363771715 -4.2865884985000005 1.4715527855000001
v -2.7363771715 -4.26478843 2.611429749920083e-16
v -2.7363771715 -4.26478843 1.4715527855000001
v -4.2171541755 -4.26478843 1.4715527855000001
v -4.2171541755 -4.26478843 2.611429749920083e-16
v -2.7441494325000004 4.2671313545 -2.612864377414868e-16
v -4.2249266395000005 4.2671313545 -2.612864377414868e-16
v -4.2249266395000005 4.2671313545 1.4715527855
v -2.7441494325000004 4.2671313545 1.4715527855
v -2.7441494325000004 4.288931423 -2.6262130694697264e-16
v -2.7441494325000004 4.288931423 1.4715527855
v -4.2249266395000005 4.288931423 1.4715527855
v -4.2249266395000005 4.288931423 -2.6262130694697264e-16
v -4.2865884985000005 2.7363771715 -1.6755477721686817e-16
v -4.2865884985000005 4.2171541755 -2.582262181268485e-16
v -4.2865884985000005 4.2171541755 1.4715527855
v -4.2865884985000005 2.7363771715 1.4715527855
v -4.26478843 2.7363771715 -1.6755477721686817e-16
v -4.26478843 2.7363771715 1.4715527855
v -4.26478843 4.2171541755 1.4715527855
v -4.26478843 4.2171541755 -2.582262181268485e-16
v 2.5702589220000003 4.141450096000001 1.3628086289999999
v 2.5702589220000003 4.390565403 1.3628086289999999
v 2.8193738230000003 4.390565403 1.3628086289999999
v 2.8193738230000003 4.141450096000001 1.3628086289999999
v 2.8802547410000003 4.4514462195 -2.725724682143631e-16
v 2.5093784100000005 4.4514462195 -1.0150000027257247e-7
v 2.880254335 4.080569990000001 -1.0150000024986284e-7
v 2.5093781055 4.080569990000001 -1.0150000024986284e-7
v 4.141311041 4.141450096000001 1.3628086289999999
v 4.141311041 4.390565403 1.3628086289999999
v 4.390425942 4.390565403 1.3628086289999999
v 4.390425942 4.141450096000001 1.3628086289999999
v 4.451306860000001 4.4514462195 -2.725724682143631e-16
v 4.080430529000001 4.4514462195 -1.0150000027257247e-7
v 4.451306454 4.080569990000001 -1.0150000024986284e-7
v 4.0804302245 4.080569990000001 -2.0300000024986287e-7
v 4.16315445 2.5780306755 1.3628086289999999
v 4.16315445 2.8271459825000003 1.3628086289999999
v 4.412269351 2.8271459825000003 1.3628086289999999
v 4.412269351 2.5780306755 1.3628086289999999
v 4.473150269 2.888026799 -1.0150000017684063e-7
v 4.102273938 2.888026799 -1.0150000017684063e-7
v 4.473149863000001 2.5171505695000005 -1.0150000015413103e-7
v 4.1022736335 2.5171505695000005 -2.0300000015413104e-7
v 4.141450096000001 -4.141311041 1.3628086290000003
v 4.390565403 -4.141311041 1.3628086290000003
v 4.390565403 -4.390425942 1.3628086290000003
v 4.141450096000001 -4.390425942 1.3628086290000003
v 4.4514462195 -4.451306860000001 2.725639349060828e-16
v 4.4514462195 -4.080430529000001 -1.0149999975014569e-7
v 4.080569990000001 -4.451306454 -1.0149999972743609e-7
v 4.080569990000001 -4.0804302245 -2.029999997501457e-7
v 2.5780306755 -4.16315445 1.3628086290000003
v 2.8271459825000003 -4.16315445 1.3628086290000003
v 2.8271459825000003 -4.412269351 1.3628086290000003
v 2.5780306755 -4.412269351 1.3628086290000003
v 2.888026799 -4.473150269 -1.0149999972609856e-7
v 2.888026799 -4.102273938 -1.0149999974880819e-7
v 2.5171505695000005 -4.473149863000001 -1.0149999972609857e-7
v 2.5171505695000005 -4.1022736335 -2.029999997488082e-7
v 4.141450096000001 -2.5702589220000003 1.3628086290000003
v 4.390565403 -2.5702589220000003 1.3628086290000003
v 4.390565403 -2.8193738230000003 1.3628086290000003
v 4.141450096000001 -2.8193738230000003 1.3628086290000003
v 4.4514462195 -2.8802547410000003 1.7636473746473196e-16
v 4.4514462195 -2.5093784100000005 -1.0149999984634488e-7
v 4.080569990000001 -2.880254335 -1.014999998236353e-7
v 4.080569990000001 -2.5093781055 -1.014999998463449e-7
v -4.141311041 -4.141450096000001 1.3628086290000003
v -4.141311041 -4.390565403 1.3628086290000003
v -4.390425942 -4.390565403 1.3628086290000003
v -4.390425942 -4.141450096000001 1.3628086290000003
v -4.451306860000001 -4.4514462195 2.725724682143631e-16
v -4.080430529000001 -4.4514462195 -1.0149999972742754e-7
v -4.451306454 -4.080569990000001 -1.0149999975013717e-7
v -4.0804302245 -4.080569990000001 -2.0299999975013714e-7
v -4.16315445 -2.5780306755 1.3628086290000003
v -4.16315445 -2.8271459825000003 1.3628086290000003
v -4.412269351 -2.8271459825000003 1.3628086290000003
v -4.412269351 -2.5780306755 1.3628086290000003
v -4.473150269 -2.888026799 -1.0149999982315938e-7
v -4.102273938 -2.888026799 -1.0149999982315938e-7
v -4.473149863000001 -2.5171505695000005 -1.0149999984586898e-7
v -4.1022736335 -2.5171505695000005 -2.0299999984586897e-7
v -2.5702589220000003 -4.141450096000001 1.3628086290000003
v -2.5702589220000003 -4.390565403 1.3628086290000003
v -2.8193738230000003 -4.390565403 1.3628086290000003
v -2.8193738230000003 -4.141450096000001 1.3628086290000003
v -2.8802547410000003 -4.4514462195 2.725724682143631e-16
v -2.5093784100000005 -4.4514462195 -1.0149999972742754e-7
v -2.880254335 -4.080569990000001 -1.0149999975013717e-7
v -2.5093781055 -4.080569990000001 -1.0149999975013717e-7
v -4.141450096000001 4.141311041 1.3628086289999999
v -4.390565403 4.141311041 1.3628086289999999
v -4.390565403 4.390425942 1.3628086289999999
v -4.141450096000001 4.390425942 1.3628086289999999
v -4.4514462195 4.451306860000001 -2.725639349060828e-16
v -4.4514462195 4.080430529000001 -1.0150000024985431e-7
v -4.080569990000001 4.451306454 -1.0150000027256392e-7
v -4.080569990000001 4.0804302245 -2.0300000024985432e-7
v -2.5780306755 4.16315445 1.3628086289999999
v -2.8271459825000003 4.16315445 1.3628086289999999
v -2.8271459825000003 4.412269351 1.3628086289999999
v -2.5780306755 4.412269351 1.3628086289999999
v -2.888026799 4.473150269 -1.0150000027390145e-7
v -2.888026799 4.102273938 -1.0150000025119182e-7
v -2.5171505695000005 4.473149863000001 -1.0150000027390143e-7
v -2.5171505695000005 4.1022736335 -2.030000002511918e-7
v -4.141450096000001 2.5702589220000003 1.3628086289999999
v -4.390565403 2.5702589220000003 1.3628086289999999
v -4.390565403 2.8193738230000003 1.3628086289999999
v -4.141450096000001 2.8193738230000003 1.3628086289999999
v -4.4514462195 2.8802547410000003 -1.7636473746473196e-16
v -4.4514462195 2.5093784100000005 -1.0150000015365513e-7
v -4.080569990000001 2.880254335 -1.015000001763647e-7
v -4.080569990000001 2.5093781055 -1.015000001536551e-7
v 1.0137145025 1.0137146040000002 2.12926497
v 0.4715875745 0.4715876760000002 2.6452411335000003
v -0.471587676 0.47158757450000016 2.6452411335000003
v -1.0137147055 1.0137145025000003 2.12926497
v -0.471587676 0.4715875745000003 3.7228996210000007
v 0.471587676 0.4715876760000003 3.7228996210000007
v -1.0137142995 -1.0137147055 2.12926497
v -0.4715875745 -0.4715878789999999 2.6452411335000003
v 0.471587676 -0.47158757449999983 2.6452411335000003
v 1.0137147055 -1.0137145024999998 2.12926497
v 0.471587676 -0.4715875744999997 3.7228996210000007
v -0.4715875745 -0.47158777749999975 3.7228996210000007
v 0 5.602840570216544e-16 9.150133041000002
v 0.21244437200000002 0.28234011400000064 10.616533585
v 0.19843341350000002 -0.44999202849999936 10.717836878000002
v 0.14249757550000003 -0.2918846664999994 10.400946773000001
v -0.016305569000000002 -0.02226453249999937 10.2910477495
v 0.069195595 0.07375923800000062 10.005325046500001
v 0.014608184500000001 -0.1395460569999994 9.931896394
v -0.016305569000000002 -0.02226453249999937 10.2910477495
v -0.19981046400000002 0.3000509505000007 10.621289875
v -0.1433410405 -0.2882886229999994 10.3967015355
v -0.1602111525 0.07918248450000062 9.978624253500001
v -0.096531981 -0.1331001979999994 9.905942235000001
v 1.0137147055 -1.0137145024999998 2.12926497
v 1.0137145025 1.0137146040000002 2.12926497
v 1.0137145025 1.0137147055 0.4326280174999999
v 1.0137147055 -1.0137145025 0.43262801750000013
v 0.471587676 -0.4715875744999997 3.7228996210000007
v 0.471587676 0.4715876760000003 3.7228996210000007
v 0.4715875745 0.4715876760000002 2.6452411335000003
v 0.471587676 -0.47158757449999983 2.6452411335000003
v 1.0137147055 -1.0137145024999998 2.12926497
v 0.471587676 -0.47158757449999983 2.6452411335000003
v 0.4715875745 0.4715876760000002 2.6452411335000003
v 1.0137145025 1.0137146040000002 2.12926497
v 0.471587676 -0.4715875744999997 3.7228996210000007
v 0.25234879250000003 -0.2523487924999995 8.5702545075
v 0.25234889400000005 0.25234879250000053 8.5702545075
v 0.471587676 0.4715876760000003 3.7228996210000007
v 0 5.602840570216544e-16 9.150133041000002
v -1.0137147055 1.0137145025000003 2.12926497
v -1.0137142995 -1.0137147055 2.12926497
v -1.0137142995 -1.0137147055 0.43262801750000013
v -1.0137147055 1.0137145025 0.4326280174999999
v -0.471587676 0.4715875745000003 3.7228996210000007
v -0.4715875745 -0.47158777749999975 3.7228996210000007
v -0.4715875745 -0.4715878789999999 2.6452411335000003
v -0.471587676 0.47158757450000016 2.6452411335000003
v -1.0137147055 1.0137145025000003 2.12926497
v -0.471587676 0.47158757450000016 2.6452411335000003
v -0.4715875745 -0.4715878789999999 2.6452411335000003
v -1.0137142995 -1.0137147055 2.12926497
v -0.25234879250000003 0.25234879250000053 8.5702545075
v -0.25234879250000003 -0.2523488939999995 8.5702545075
v -0.4715875745 -0.47158777749999975 3.7228996210000007
v -0.471587676 0.4715875745000003 3.7228996210000007
v 0 5.602840570216544e-16 9.150133041000002
v -0.2527012005 5.359560301703265e-16 8.7528262115
v -0.30623676650000003 5.916831386167489e-16 9.662918958
v 0 0.2527010990000006 8.7528262115
v 0 0.3062367665000006 9.662918958
v 0.25270109900000004 5.359560301703265e-16 8.7528262115
v 0 -0.2527010989999995 8.7528262115
v -1.015e-7 -0.3062367664999994 9.662918958
v 0.30623676650000003 5.916831386167489e-16 9.662918958
v 2.378120437 4.8902022995 1.7018741494999998
v 1.8800863270000001 4.8902022995 1.7018741494999998
v 2.378120437 4.8902022995 -2.994385296632851e-16
v 2.1291034835000002 4.189855649000001 1.7018741494999998
v 2.378120437 4.8902022995 1.7018741494999998
v 2.1291034835000002 4.189855649000001 -2.5655466547186533e-16
v 1.8800863270000001 4.8902022995 -2.994385296632851e-16
v 1.8800863270000001 4.8902022995 1.7018741494999998
v 2.1291034835000002 4.189855649000001 1.7018741494999998
v -1.9210964885000001 4.8902022995 1.7018741494999998
v -2.4191305985000002 4.8902022995 1.7018741494999998
v -1.9210964885000001 4.8902022995 -2.994385296632851e-16
v -2.170113442 4.189855649000001 1.7018741494999998
v -1.9210964885000001 4.8902022995 1.7018741494999998
v -2.170113442 4.189855649000001 -2.5655466547186533e-16
v -2.4191305985000002 4.8902022995 -2.994385296632851e-16
v -2.4191305985000002 4.8902022995 1.7018741494999998
v -2.170113442 4.189855649000001 1.7018741494999998
v 2.8193738230000003 4.390565403 1.3628086289999999
v 2.5702589220000003 4.390565403 1.3628086289999999
v 2.8193738230000003 4.141450096000001 1.3628086289999999
v 2.8193738230000003 4.390565403 1.3628086289999999
v 2.8802547410000003 4.4514462195 -2.725724682143631e-16
v 2.5702589220000003 4.141450096000001 1.3628086289999999
v 2.8193738230000003 4.141450096000001 1.3628086289999999
v 2.880254335 4.080569990000001 -1.0150000024986284e-7
v 2.5093784100000005 4.4514462195 -1.0150000027257247e-7
v 2.5702589220000003 4.390565403 1.3628086289999999
v 2.5702589220000003 4.141450096000001 1.3628086289999999
v 2.5093781055 4.080569990000001 -1.0150000024986284e-7
v 4.390425942 4.390565403 1.3628086289999999
v 4.141311041 4.390565403 1.3628086289999999
v 4.390425942 4.141450096000001 1.3628086289999999
v 4.390425942 4.390565403 1.3628086289999999
v 4.451306860000001 4.4514462195 -2.725724682143631e-16
v 4.141311041 4.141450096000001 1.3628086289999999
v 4.390425942 4.141450096000001 1.3628086289999999
v 4.451306454 4.080569990000001 -1.0150000024986284e-7
v 4.080430529000001 4.4514462195 -1.0150000027257247e-7
v 4.141311041 4.390565403 1.3628086289999999
v 4.141311041 4.141450096000001 1.3628086289999999
v 4.0804302245 4.080569990000001 -2.0300000024986287e-7
v 4.412269351 2.8271459825000003 1.3628086289999999
v 4.16315445 2.8271459825000003 1.3628086289999999
v 4.412269351 2.5780306755 1.3628086289999999
v 4.412269351 2.8271459825000003 1.3628086289999999
v 4.473150269 2.888026799 -1.0150000017684063e-7
v 4.16315445 2.5780306755 1.3628086289999999
v 4.412269351 2.5780306755 1.3628086289999999
v 4.473149863000001 2.5171505695000005 -1.0150000015413103e-7
v 4.102273938 2.888026799 -1.0150000017684063e-7
v 4.16315445 2.8271459825000003 1.3628086289999999
v 4.16315445 2.5780306755 1.3628086289999999
v 4.1022736335 2.5171505695000005 -2.0300000015413104e-7
v 4.390565403 -4.390425942 1.3628086290000003
v 4.390565403 -4.141311041 1.3628086290000003
v 4.141450096000001 -4.390425942 1.3628086290000003
v 4.390565403 -4.390425942 1.3628086290000003
v 4.4514462195 -4.451306860000001 2.725639349060828e-16
v 4.141450096000001 -4.141311041 1.3628086290000003
v 4.141450096000001 -4.390425942 1.3628086290000003
v 4.080569990000001 -4.451306454 -1.0149999972743609e-7
v 4.4514462195 -4.080430529000001 -1.0149999975014569e-7
v 4.390565403 -4.141311041 1.3628086290000003
v 4.141450096000001 -4.141311041 1.3628086290000003
v 4.080569990000001 -4.0804302245 -2.029999997501457e-7
v 2.8271459825000003 -4.412269351 1.3628086290000003
v 2.8271459825000003 -4.16315445 1.3628086290000003
v 2.5780306755 -4.412269351 1.3628086290000003
v 2.8271459825000003 -4.412269351 1.3628086290000003
v 2.888026799 -4.473150269 -1.0149999972609856e-7
v 2.5780306755 -4.16315445 1.3628086290000003
v 2.5780306755 -4.412269351 1.3628086290000003
v 2.5171505695000005 -4.473149863000001 -1.0149999972609857e-7
v 2.888026799 -4.102273938 -1.0149999974880819e-7
v 2.8271459825000003 -4.16315445 1.3628086290000003
v 2.5780306755 -4.16315445 1.3628086290000003
v 2.5171505695000005 -4.1022736335 -2.029999997488082e-7
v 4.390565403 -2.8193738230000003 1.3628086290000003
v 4.390565403 -2.5702589220000003 1.3628086290000003
v 4.141450096000001 -2.8193738230000003 1.3628086290000003
v 4.390565403 -2.8193738230000003 1.3628086290000003
v 4.4514462195 -2.8802547410000003 1.7636473746473196e-16
v 4.141450096000001 -2.5702589220000003 1.3628086290000003
v 4.141450096000001 -2.8193738230000003 1.3628086290000003
v 4.080569990000001 -2.880254335 -1.014999998236353e-7
v 4.4514462195 -2.5093784100000005 -1.0149999984634488e-7
v 4.390565403 -2.5702589220000003 1.3628086290000003
v 4.141450096000001 -2.5702589220000003 1.3628086290000003
v 4.080569990000001 -2.5093781055 -1.014999998463449e-7
v -4.390425942 -4.390565403 1.3628086290000003
v -4.141311041 -4.390565403 1.3628086290000003
v -4.390425942 -4.141450096000001 1.3628086290000003
v -4.390425942 -4.390565403 1.3628086290000003
v -4.451306860000001 -4.4514462195 2.725724682143631e-16
v -4.141311041 -4.141450096000001 1.3628086290000003
v -4.390425942 -4.141450096000001 1.3628086290000003
v -4.451306454 -4.080569990000001 -1.0149999975013717e-7
v -4.080430529000001 -4.4514462195 -1.0149999972742754e-7
v -4.141311041 -4.390565403 1.3628086290000003
v -4.141311041 -4.141450096000001 1.3628086290000003
v -4.0804302245 -4.080569990000001 -2.0299999975013714e-7
v -4.412269351 -2.8271459825000003 1.3628086290000003
v -4.16315445 -2.8271459825000003 1.3628086290000003
v -4.412269351 -2.5780306755 1.3628086290000003
v -4.412269351 -2.8271459825000003 1.3628086290000003
v -4.473150269 -2.888026799 -1.0149999982315938e-7
v -4.16315445 -2.5780306755 1.3628086290000003
v -4.412269351 -2.5780306755 1.3628086290000003
v -4.473149863000001 -2.5171505695000005 -1.0149999984586898e-7
v -4.102273938 -2.888026799 -1.0149999982315938e-7
v -4.16315445 -2.8271459825000003 1.3628086290000003
v -4.16315445 -2.5780306755 1.3628086290000003
v -4.1022736335 -2.5171505695000005 -2.0299999984586897e-7
v -2.8193738230000003 -4.390565403 1.3628086290000003
v -2.5702589220000003 -4.390565403 1.3628086290000003
v -2.8193738230000003 -4.141450096000001 1.3628086290000003
v -2.8193738230000003 -4.390565403 1.3628086290000003
v -2.8802547410000003 -4.4514462195 2.725724682143631e-16
v -2.5702589220000003 -4.141450096000001 1.3628086290000003
v -2.8193738230000003 -4.141450096000001 1.3628086290000003
v -2.880254335 -4.080569990000001 -1.0149999975013717e-7
v -2.5093784100000005 -4.4514462195 -1.0149999972742754e-7
v -2.5702589220000003 -4.390565403 1.3628086290000003
v -2.5702589220000003 -4.141450096000001 1.3628086290000003
v -2.5093781055 -4.080569990000001 -1.0149999975013717e-7
v -4.390565403 4.390425942 1.3628086289999999
v -4.390565403 4.141311041 1.3628086289999999
v -4.141450096000001 4.390425942 1.3628086289999999
v -4.390565403 4.390425942 1.3628086289999999
v -4.4514462195 4.451306860000001 -2.725639349060828e-16
v -4.141450096000001 4.141311041 1.3628086289999999
v -4.141450096000001 4.390425942 1.3628086289999999
v -4.080569990000001 4.451306454 -1.0150000027256392e-7
v -4.4514462195 4.080430529000001 -1.0150000024985431e-7
v -4.390565403 4.141311041 1.3628086289999999
v -4.141450096000001 4.141311041 1.3628086289999999
v -4.080569990000001 4.0804302245 -2.0300000024985432e-7
v -2.8271459825000003 4.412269351 1.3628086289999999
v -2.8271459825000003 4.16315445 1.3628086289999999
v -2.5780306755 4.412269351 1.3628086289999999
v -2.8271459825000003 4.412269351 1.3628086289999999
v -2.888026799 4.473150269 -1.0150000027390145e-7
v -2.5780306755 4.16315445 1.3628086289999999
v -2.5780306755 4.412269351 1.3628086289999999
v -2.5171505695000005 4.473149863000001 -1.0150000027390143e-7
v -2.888026799 4.102273938 -1.0150000025119182e-7
v -2.8271459825000003 4.16315445 1.3628086289999999
v -2.5780306755 4.16315445 1.3628086289999999
v -2.5171505695000005 4.1022736335 -2.030000002511918e-7
v -4.390565403 2.8193738230000003 1.3628086289999999
v -4.390565403 2.5702589220000003 1.3628086289999999
v -4.141450096000001 2.8193738230000003 1.3628086289999999
v -4.390565403 2.8193738230000003 1.3628086289999999
v -4.4514462195 2.8802547410000003 -1.7636473746473196e-16
v -4.141450096000001 2.5702589220000003 1.3628086289999999
v -4.141450096000001 2.8193738230000003 1.3628086289999999
v -4.080569990000001 2.880254335 -1.015000001763647e-7
v -4.4514462195 2.5093784100000005 -1.0150000015365513e-7
v -4.390565403 2.5702589220000003 1.3628086289999999
v -4.141450096000001 2.5702589220000003 1.3628086289999999
v -4.080569990000001 2.5093781055 -1.015000001536551e-7
v 0.36363897500000003 0.8499386700000008 10.3692171625
v 0.329996394 0.8245262165000007 10.250240080500001
v 0.032502127000000006 0.30111994850000073 10.7333802835
v -0.016305569000000002 -0.02226453249999937 10.2910477495
v -0.0228855095 0.16343661950000063 10.2330813025
v 0.00296583 -0.4727931914999994 10.853714116
v -0.016305569000000002 -0.02226453249999937 10.2910477495
v 0.0023989525 -0.44899418199999935 10.567546031000001
v 0.0029225910000000004 -1.0663765594999994 11.2894689425
v -0.016305569000000002 -0.02226453249999937 10.2910477495
v 0.17195043950000002 0.6267312380000007 10.349117219000002
v 0.33076830150000003 0.7901805450000007 10.5459857055
vt 0.777344 0.224609
vt 0.236328 0.820313
vt 0.652344 0.224609
vt 0.996094 0.445313
vt 0.996094 0.732422
vt 0.852539 0.588867
vt 0.708008 0.445313
vt 0.708008 0.732422
vt 0.968750 0.025391
vt 0.951172 0.019531
vt 0.982422 0.036133
vt 0.497070 0.608398
vt 0.554688 0.724609
vt 0.968750 0.106445
vt 0.336914 0.718750
vt 0.841797 0.140625
vt 0.902344 0.133789
vt 0.948242 0.219727
vt 0.903320 0.198242
vt 0.913086 0.150391
vt 0.929688 0.100586
vt 0.903320 0.113281
vt 0.916992 0.221680
vt 0.849609 0.175781
vt 0.929688 0.312500
vt 0.874023 0.060547
vt 0.392578 0.618164
vt 0.828125 0.036133
vt 0.917969 0.041016
vt 0.303711 0.581055
vt 0.859375 0.115234
vt 0.992188 0.336914
vt 0.966797 0.230469
vt 0.989258 0.024414
vt 0.945313 0.080078
vt 0.497070 0.608398
vt 0.554688 0.724609
vt 0.965820 0.106445
vt 0.913086 0.150391
vt 0.948242 0.219727
vt 0.988281 0.112305
vt 0.849609 0.175781
vt 0.929688 0.312500
vt 0.874023 0.060547
vt 0.982422 0.036133
vt 0.336914 0.718750
vt 0.392578 0.618164
vt 0.917969 0.041016
vt 0.303711 0.581055
vt 0.859375 0.115234
vt 0.968750 0.025391
vt 0.828125 0.036133
vt 0.939453 0.045898
vt 0.951172 0.019531
vt 0.960938 0.008789
vt 0.938477 0.003906
vt 0.164063 0.973633
vt 0.777344 0.076172
vt 0.777344 0.076172
vt 0.159180 0.820313
vt 0.546875 0.987305
vt 0.652344 0.076172
vt 0.169922 0.852539
vt 0.164063 0.973633
vt 0.652344 0.224609
vt 0.629883 0.717773
vt 0.629883 0.717773
vt 0.903320 0.198242
vt 0.841797 0.140625
vt 0.843750 0.270508
vt 0.816406 0.987305
vt 0.546875 0.987305
vt 0.652344 0.076172
vt 0.816406 0.750230
vt 0.546875 0.750230
vt 0.777344 0.224609
vt 0.197266 0.922852
vt 0.546875 0.750230
vt 0.816406 0.750230
vt 0.816406 0.987305
vt 0.159180 0.820313
vt 0.236328 0.820313
vt 0.169922 0.852539
vt 0.169922 0.852539
vt 0.224609 0.852539
vt 0.230469 0.973633
vt 0.164063 0.973633
vt 0.843750 0.270508
vt 0.621094 0.610352
vt 0.673828 0.610352
vt 0.518555 0.606445
vt 0.597656 0.448242
vt 0.597656 0.432617
vt 0.525391 0.440430
vt 0.621094 0.610352
vt 0.673828 0.610352
vt 0.518555 0.606445
vt 0.597656 0.448242
vt 0.597656 0.432617
vt 0.525391 0.440430
vt 0.595703 0.416992
vt 0.763672 0.416992
vt 0.763672 0.250977
vt 0.595703 0.250977
vt 0.595703 0.416992
vt 0.595703 0.250977
vt 0.763672 0.250977
vt 0.763672 0.416992
vt 0.595703 0.416992
vt 0.763672 0.416992
vt 0.763672 0.250977
vt 0.595703 0.250977
vt 0.595703 0.416992
vt 0.595703 0.250977
vt 0.763672 0.250977
vt 0.763672 0.416992
vt 0.595703 0.416992
vt 0.763672 0.416992
vt 0.763672 0.250977
vt 0.595703 0.250977
vt 0.595703 0.416992
vt 0.595703 0.250977
vt 0.763672 0.250977
vt 0.763672 0.416992
vt 0.595703 0.416992
vt 0.763672 0.416992
vt 0.763672 0.250977
vt 0.595703 0.250977
vt 0.595703 0.416992
vt 0.595703 0.250977
vt 0.763672 0.250977
vt 0.763672 0.416992
vt 0.595703 0.416992
vt 0.763672 0.416992
vt 0.763672 0.250977
vt 0.595703 0.250977
vt 0.595703 0.416992
vt 0.595703 0.250977
vt 0.763672 0.250977
vt 0.763672 0.416992
vt 0.595703 0.416992
vt 0.763672 0.416992
vt 0.763672 0.250977
vt 0.595703 0.250977
vt 0.595703 0.416992
vt 0.595703 0.250977
vt 0.763672 0.250977
vt 0.763672 0.416992
vt 0.595703 0.416992
vt 0.763672 0.416992
vt 0.763672 0.250977
vt 0.595703 0.250977
vt 0.595703 0.416992
vt 0.595703 0.250977
vt 0.763672 0.250977
vt 0.763672 0.416992
vt 0.595703 0.416992
vt 0.763672 0.416992
vt 0.763672 0.250977
vt 0.595703 0.250977
vt 0.595703 0.416992
vt 0.595703 0.250977
vt 0.763672 0.250977
vt 0.763672 0.416992
vt 0.271484 0.508789
vt 0.271484 0.522461
vt 0.287109 0.522461
vt 0.287109 0.508789
vt 0.307617 0.728516
vt 0.250977 0.728516
vt 0.307617 0.728516
vt 0.307617 0.728516
vt 0.271484 0.508789
vt 0.271484 0.522461
vt 0.287109 0.522461
vt 0.287109 0.508789
vt 0.307617 0.728516
vt 0.250977 0.728516
vt 0.307617 0.728516
vt 0.307617 0.728516
vt 0.271484 0.508789
vt 0.271484 0.522461
vt 0.287109 0.522461
vt 0.287109 0.508789
vt 0.307617 0.728516
vt 0.250977 0.728516
vt 0.307617 0.728516
vt 0.307617 0.728516
vt 0.271484 0.508789
vt 0.271484 0.522461
vt 0.287109 0.522461
vt 0.287109 0.508789
vt 0.307617 0.728516
vt 0.250977 0.728516
vt 0.307617 0.728516
vt 0.307617 0.728516
vt 0.271484 0.508789
vt 0.271484 0.522461
vt 0.287109 0.522461
vt 0.287109 0.508789
vt 0.307617 0.728516
vt 0.250977 0.728516
vt 0.307617 0.728516
vt 0.307617 0.728516
vt 0.271484 0.508789
vt 0.271484 0.522461
vt 0.287109 0.522461
vt 0.287109 0.508789
vt 0.307617 0.728516
vt 0.250977 0.728516
vt 0.307617 0.728516
vt 0.307617 0.728516
vt 0.271484 0.508789
vt 0.271484 0.522461
vt 0.287109 0.522461
vt 0.287109 0.508789
vt 0.307617 0.728516
vt 0.250977 0.728516
vt 0.307617 0.728516
vt 0.307617 0.728516
vt 0.271484 0.508789
vt 0.271484 0.522461
vt 0.287109 0.522461
vt 0.287109 0.508789
vt 0.307617 0.728516
vt 0.250977 0.728516
vt 0.307617 0.728516
vt 0.307617 0.728516
vt 0.271484 0.508789
vt 0.271484 0.522461
vt 0.287109 0.522461
vt 0.287109 0.508789
vt 0.307617 0.728516
vt 0.250977 0.728516
vt 0.307617 0.728516
vt 0.307617 0.728516
vt 0.271484 0.508789
vt 0.271484 0.522461
vt 0.287109 0.522461
vt 0.287109 0.508789
vt 0.307617 0.728516
vt 0.250977 0.728516
vt 0.307617 0.728516
vt 0.307617 0.728516
vt 0.271484 0.508789
vt 0.271484 0.522461
vt 0.287109 0.522461
vt 0.287109 0.508789
vt 0.307617 0.728516
vt 0.250977 0.728516
vt 0.307617 0.728516
vt 0.307617 0.728516
vt 0.271484 0.508789
vt 0.271484 0.522461
vt 0.287109 0.522461
vt 0.287109 0.508789
vt 0.307617 0.728516
vt 0.250977 0.728516
vt 0.307617 0.728516
vt 0.307617 0.728516
vt 0.595703 0.014648
vt 0.630859 0.076172
vt 0.798828 0.076172
vt 0.833984 0.014648
vt 0.267231 0.014648
vt 0.128276 0.014648
vt 0.595703 0.014648
vt 0.630859 0.076172
vt 0.798828 0.076172
vt 0.833984 0.014648
vt 0.267231 0.014648
vt 0.128276 0.014648
vt 0.197266 0.922852
vt 0.618164 0.625000
vt 0.948242 0.219727
vt 0.827148 0.212891
vt 0.857422 0.215820
vt 0.873047 0.264648
vt 0.826172 0.198242
vt 0.875977 0.258789
vt 0.618164 0.625000
vt 0.827148 0.212891
vt 0.873047 0.264648
vt 0.826172 0.198242
vt 0.252930 0.986500
vt 0.521484 0.986500
vt 0.521484 0.741211
vt 0.252930 0.741211
vt 0.331055 0.542910
vt 0.456055 0.542910
vt 0.456055 0.387695
vt 0.331055 0.387695
vt 0.274414 0.327148
vt 0.309570 0.387695
vt 0.477539 0.387695
vt 0.512695 0.327148
vt 0.146274 0.990234
vt 0.117188 0.184570
vt 0.040039 0.184570
vt 0.010952 0.990234
vt 0.079102 0.082031
vt 0.252930 0.986500
vt 0.521484 0.986500
vt 0.521484 0.741211
vt 0.252930 0.741211
vt 0.331055 0.542910
vt 0.456055 0.542910
vt 0.456055 0.387695
vt 0.331055 0.387695
vt 0.274414 0.327148
vt 0.309570 0.387695
vt 0.477539 0.387695
vt 0.512695 0.327148
vt 0.117188 0.184570
vt 0.040039 0.184570
vt 0.010952 0.990234
vt 0.146274 0.990234
vt 0.079102 0.082031
vt 0.224609 0.852539
vt 0.230469 0.973633
vt 0.224609 0.852539
vt 0.230469 0.973633
vt 0.224609 0.852539
vt 0.169922 0.852539
vt 0.164063 0.973633
vt 0.230469 0.973633
vt 0.673828 0.440430
vt 0.621094 0.440430
vt 0.606445 0.606445
vt 0.518555 0.434570
vt 0.606445 0.434570
vt 0.518555 0.606445
vt 0.606445 0.606445
vt 0.606445 0.434570
vt 0.518555 0.434570
vt 0.673828 0.440430
vt 0.621094 0.440430
vt 0.606445 0.606445
vt 0.518555 0.434570
vt 0.606445 0.434570
vt 0.518555 0.606445
vt 0.606445 0.606445
vt 0.606445 0.434570
vt 0.518555 0.434570
vt 0.287109 0.522461
vt 0.271484 0.522461
vt 0.287109 0.522461
vt 0.271484 0.522461
vt 0.250977 0.728516
vt 0.287109 0.522461
vt 0.271484 0.522461
vt 0.250977 0.728516
vt 0.307617 0.728516
vt 0.287109 0.522461
vt 0.271484 0.522461
vt 0.250977 0.728516
vt 0.287109 0.522461
vt 0.271484 0.522461
vt 0.287109 0.522461
vt 0.271484 0.522461
vt 0.250977 0.728516
vt 0.287109 0.522461
vt 0.271484 0.522461
vt 0.250977 0.728516
vt 0.307617 0.728516
vt 0.287109 0.522461
vt 0.271484 0.522461
vt 0.250977 0.728516
vt 0.287109 0.522461
vt 0.271484 0.522461
vt 0.287109 0.522461
vt 0.271484 0.522461
vt 0.250977 0.728516
vt 0.287109 0.522461
vt 0.271484 0.522461
vt 0.250977 0.728516
vt 0.307617 0.728516
vt 0.287109 0.522461
vt 0.271484 0.522461
vt 0.250977 0.728516
vt 0.287109 0.522461
vt 0.271484 0.522461
vt 0.287109 0.522461
vt 0.271484 0.522461
vt 0.250977 0.728516
vt 0.287109 0.522461
vt 0.271484 0.522461
vt 0.250977 0.728516
vt 0.307617 0.728516
vt 0.287109 0.522461
vt 0.271484 0.522461
vt 0.250977 0.728516
vt 0.287109 0.522461
vt 0.271484 0.522461
vt 0.287109 0.522461
vt 0.271484 0.522461
vt 0.250977 0.728516
vt 0.287109 0.522461
vt 0.271484 0.522461
vt 0.250977 0.728516
vt 0.307617 0.728516
vt 0.287109 0.522461
vt 0.271484 0.522461
vt 0.250977 0.728516
vt 0.287109 0.522461
vt 0.271484 0.522461
vt 0.287109 0.522461
vt 0.271484 0.522461
vt 0.250977 0.728516
vt 0.287109 0.522461
vt 0.271484 0.522461
vt 0.250977 0.728516
vt 0.307617 0.728516
vt 0.287109 0.522461
vt 0.271484 0.522461
vt 0.250977 0.728516
vt 0.287109 0.522461
vt 0.271484 0.522461
vt 0.287109 0.522461
vt 0.271484 0.522461
vt 0.250977 0.728516
vt 0.287109 0.522461
vt 0.271484 0.522461
vt 0.250977 0.728516
vt 0.307617 0.728516
vt 0.287109 0.522461
vt 0.271484 0.522461
vt 0.250977 0.728516
vt 0.287109 0.522461
vt 0.271484 0.522461
vt 0.287109 0.522461
vt 0.271484 0.522461
vt 0.250977 0.728516
vt 0.287109 0.522461
vt 0.271484 0.522461
vt 0.250977 0.728516
vt 0.307617 0.728516
vt 0.287109 0.522461
vt 0.271484 0.522461
vt 0.250977 0.728516
vt 0.287109 0.522461
vt 0.271484 0.522461
vt 0.287109 0.522461
vt 0.271484 0.522461
vt 0.250977 0.728516
vt 0.287109 0.522461
vt 0.271484 0.522461
vt 0.250977 0.728516
vt 0.307617 0.728516
vt 0.287109 0.522461
vt 0.271484 0.522461
vt 0.250977 0.728516
vt 0.287109 0.522461
vt 0.271484 0.522461
vt 0.287109 0.522461
vt 0.271484 0.522461
vt 0.250977 0.728516
vt 0.287109 0.522461
vt 0.271484 0.522461
vt 0.250977 0.728516
vt 0.307617 0.728516
vt 0.287109 0.522461
vt 0.271484 0.522461
vt 0.250977 0.728516
vt 0.287109 0.522461
vt 0.271484 0.522461
vt 0.287109 0.522461
vt 0.271484 0.522461
vt 0.250977 0.728516
vt 0.287109 0.522461
vt 0.271484 0.522461
vt 0.250977 0.728516
vt 0.307617 0.728516
vt 0.287109 0.522461
vt 0.271484 0.522461
vt 0.250977 0.728516
vt 0.287109 0.522461
vt 0.271484 0.522461
vt 0.287109 0.522461
vt 0.271484 0.522461
vt 0.250977 0.728516
vt 0.287109 0.522461
vt 0.271484 0.522461
vt 0.250977 0.728516
vt 0.307617 0.728516
vt 0.287109 0.522461
vt 0.271484 0.522461
vt 0.250977 0.728516
vt 0.960938 0.008789
vt 0.938477 0.003906
vt 0.988281 0.112305
vt 0.902344 0.133789
vt 0.903320 0.113281
vt 0.966797 0.230469
vt 0.857422 0.215820
vt 0.916992 0.221680
vt 0.992188 0.336914
vt 0.875977 0.258789
vt 0.939453 0.045898
vt 0.989258 0.024414
vn -0 0.999546 0.030129999999999938
vn 0 -0.973878 0.22707300000000005
vn 0 -1 6.123233995736766E-17
vn 0.243306 -0.24330599999999994 0.938938
vn 0.243306 0.24330600000000005 0.938938
vn -0 6.123233995736766E-17 1
vn -0.243306 -0.24330599999999994 0.938938
vn -0.243306 0.24330600000000005 0.938938
vn 0.956605 -0.07637300000000001 -0.281201
vn 0.804621 -0.486903 -0.33986799999999995
vn 0.865398 -0.03753299999999997 0.499677
vn -0.526254 0.13452900000000007 0.839618
vn -0.524571 0.003149000000000052 0.851361
vn 0.912877 -0.08498099999999997 0.399291
vn -0.171506 -0.37663199999999997 0.910348
vn -0.198701 0.972747 -0.11950700000000006
vn -0.017235 -0.022599000000000063 -0.999596
vn 0.773452 -0.502005 -0.3869929999999999
vn 0.548895 -0.727793 -0.4111349999999999
vn 0.843782 0.2792339999999999 -0.458324
vn 0.820801 -0.011653000000000035 -0.571096
vn 0.172773 -0.010916000000000061 -0.984901
vn 0.008885 -0.723436 -0.690334
vn 0.914428 -0.24571400000000002 -0.321629
vn 0.310039 0.623242 0.717945
vn 0.06991 0.08430000000000006 0.993985
vn -0.154246 -0.24720499999999995 0.956608
vn -0.726771 0.15723200000000004 0.668642
vn 0.061257 -0.791984 0.607461
vn -0.438184 -0.4394429999999999 0.784146
vn 0.547478 0.37936500000000006 0.745888
vn 8E-06 0.59177 0.806107
vn 0.002481 0.517124 0.855907
vn 0.595075 0.629344 0.4998119999999999
vn -0.710917 0.600878 -0.36543500000000007
vn 0.663898 -0.36082099999999995 0.655017
vn 0.611054 -0.22064099999999995 0.760217
vn -0.682234 0.25580400000000003 0.684924
vn -0.835106 0.323755 -0.444725
vn -0.828911 0.03292500000000004 0.558411
vn 0.116249 0.17209400000000005 0.978197
vn -0.930019 -0.323172 -0.17499799999999996
vn -0.308405 0.622053 0.719678
vn -0.228799 0.12753700000000007 0.965083
vn -0.392728 0.764309 0.511465
vn 0.247811 -0.3226089999999999 0.913517
vn 0.264331 -0.28738199999999997 0.92062
vn -0.161371 -0.751786 0.639357
vn 0.279056 -0.41346799999999995 0.866702
vn -0.689595 0.40284300000000006 0.601811
vn -0.25579 0.966175 -0.032820000000000064
vn 0.573232 0.20266400000000007 0.793935
vn -0.350821 0.14070399999999994 -0.925811
vn -0.642726 0.740695 -0.19563900000000006
vn 0.651255 0.742395 0.15721499999999994
vn 0.171907 0.27675099999999997 -0.94544
vn -0.94721 -0.315736 -0.05571899999999998
vn -0 0.915114 0.40319399999999994
vn 0 -0.915114 0.40319400000000005
vn -0 0.986014 0.16666499999999995
vn -0 1 -6.123233995736766E-17
vn 0 -0.915114 0.40319400000000005
vn -0.947209 0.315737 -0.05571900000000002
vn -0.315736 0.94721 -0.05571900000000005
vn -0 0.999887 0.015065999999999939
vn 0.205248 0.32688000000000006 0.922509
vn 0.806296 0.08342600000000004 0.585599
vn -0.537224 -0.766318 -0.35234399999999994
vn 0.1656 0.973809 -0.15579500000000004
vn 0.781727 -0.518849 -0.3459749999999999
vn -0 1 -6.123233995736766E-17
vn 0 -1 6.123233995736766E-17
vn -0 0.915114 0.40319399999999994
vn -0 0.915114 0.40319399999999994
vn 0 -0.915114 0.4031950000000001
vn 0 -1 6.123233995736766E-17
vn 0 0.916938 0.39902899999999997
vn -0 0.915114 0.40319399999999994
vn 0 -0.915114 0.40319400000000005
vn 0 -1 6.123233995736766E-17
vn 0 -0.986014 0.16666500000000006
vn 0 0.973878 0.22707299999999994
vn 0.315737 0.947209 -0.05571900000000005
vn 0.947209 -0.315737 -0.05571899999999998
vn -0.315737 -0.94721 -0.05571899999999994
vn 0.315736 -0.94721 -0.05571899999999994
vn 0.94721 0.315736 -0.05571900000000002
vn -0.790754 -0.560457 -0.24616299999999997
vn 0 1 -6.123233995736766E-17
vn 0 1 -6.123233995736766E-17
vn 0.942213 -0.335015 2.0513752370817527E-17
vn 0 6.123233995736766E-17 1
vn 0 6.123233995736766E-17 1
vn 0 6.123233995736766E-17 1
vn 0 1 -6.123233995736766E-17
vn 0 1 -6.123233995736766E-17
vn 0.942213 -0.335015 2.0513752370817527E-17
vn 0 6.123233995736766E-17 1
vn 0 6.123233995736766E-17 1
vn 0 6.123233995736766E-17 1
vn -1 0 0
vn -1 0 0
vn -1 0 0
vn -1 0 0
vn 1 0 0
vn 1 0 0
vn 1 0 0
vn 1 0 0
vn 0 1 -6.123233995736766E-17
vn 0 1 -6.123233995736766E-17
vn 0 1 -6.123233995736766E-17
vn 0 1 -6.123233995736766E-17
vn 0 -1 6.123233995736766E-17
vn 0 -1 6.123233995736766E-17
vn 0 -1 6.123233995736766E-17
vn 0 -1 6.123233995736766E-17
vn 0 1 -6.123233995736766E-17
vn 0 1 -6.123233995736766E-17
vn 0 1 -6.123233995736766E-17
vn 0 1 -6.123233995736766E-17
vn 0 -1 6.123233995736766E-17
vn 0 -1 6.123233995736766E-17
vn 0 -1 6.123233995736766E-17
vn 0 -1 6.123233995736766E-17
vn 1 0 0
vn 1 0 0
vn 1 0 0
vn 1 0 0
vn -1 0 0
vn -1 0 0
vn -1 0 0
vn -1 0 0
vn 1 0 0
vn 1 0 0
vn 1 0 0
vn 1 0 0
vn -1 0 0
vn -1 0 0
vn -1 0 0
vn -1 0 0
vn 0 -1 6.123233995736766E-17
vn 0 -1 6.123233995736766E-17
vn 0 -1 6.123233995736766E-17
vn 0 -1 6.123233995736766E-17
vn 0 1 -6.123233995736766E-17
vn 0 1 -6.123233995736766E-17
vn 0 1 -6.123233995736766E-17
vn 0 1 -6.123233995736766E-17
vn 0 -1 6.123233995736766E-17
vn 0 -1 6.123233995736766E-17
vn 0 -1 6.123233995736766E-17
vn 0 -1 6.123233995736766E-17
vn 0 1 -6.123233995736766E-17
vn 0 1 -6.123233995736766E-17
vn 0 1 -6.123233995736766E-17
vn 0 1 -6.123233995736766E-17
vn -1 0 0
vn -1 0 0
vn -1 0 0
vn -1 0 0
vn 1 0 0
vn 1 0 0
vn 1 0 0
vn 1 0 0
vn 0 6.123233995736766E-17 1
vn 0 6.123233995736766E-17 1
vn 0 6.123233995736766E-17 1
vn 0 6.123233995736766E-17 1
vn 0.446413 0.892825 0.059827999999999944
vn -0.892825 0.446413 0.05982799999999997
vn 0.892825 -0.446413 0.059827000000000026
vn -0.446413 -0.892825 0.059827000000000054
vn 0 6.123233995736766E-17 1
vn 0 6.123233995736766E-17 1
vn 0 6.123233995736766E-17 1
vn 0 6.123233995736766E-17 1
vn 0.446413 0.892825 0.059827999999999944
vn -0.892825 0.446413 0.05982799999999997
vn 0.892825 -0.446413 0.059827000000000026
vn -0.446413 -0.892825 0.059827000000000054
vn 0 6.123233995736766E-17 1
vn 0 6.123233995736766E-17 1
vn 0 6.123233995736766E-17 1
vn 0 6.123233995736766E-17 1
vn 0.446413 0.892825 0.059827999999999944
vn -0.892825 0.446413 0.05982799999999997
vn 0.892825 -0.446413 0.059827000000000026
vn -0.446413 -0.892825 0.059827000000000054
vn 0 6.123233995736766E-17 1
vn 0 6.123233995736766E-17 1
vn 0 6.123233995736766E-17 1
vn 0 6.123233995736766E-17 1
vn 0.892825 -0.446413 0.05982800000000003
vn 0.446413 0.892825 0.059827999999999944
vn -0.446413 -0.892825 0.059827000000000054
vn -0.892825 0.446413 0.05982699999999997
vn 0 6.123233995736766E-17 1
vn 0 6.123233995736766E-17 1
vn 0 6.123233995736766E-17 1
vn 0 6.123233995736766E-17 1
vn 0.892825 -0.446413 0.05982800000000003
vn 0.446413 0.892825 0.059827999999999944
vn -0.446413 -0.892825 0.059827000000000054
vn -0.892825 0.446413 0.05982699999999997
vn 0 6.123233995736766E-17 1
vn 0 6.123233995736766E-17 1
vn 0 6.123233995736766E-17 1
vn 0 6.123233995736766E-17 1
vn 0.892825 -0.446413 0.05982800000000003
vn 0.446413 0.892825 0.059827999999999944
vn -0.446413 -0.892825 0.059827000000000054
vn -0.892825 0.446413 0.05982699999999997
vn 0 6.123233995736766E-17 1
vn 0 6.123233995736766E-17 1
vn 0 6.123233995736766E-17 1
vn 0 6.123233995736766E-17 1
vn -0.446413 -0.892825 0.059828000000000055
vn 0.892825 -0.446413 0.05982800000000003
vn -0.892825 0.446413 0.05982699999999997
vn 0.446413 0.892825 0.05982699999999994
vn 0 6.123233995736766E-17 1
vn 0 6.123233995736766E-17 1
vn 0 6.123233995736766E-17 1
vn 0 6.123233995736766E-17 1
vn -0.446413 -0.892825 0.059828000000000055
vn 0.892825 -0.446413 0.05982800000000003
vn -0.892825 0.446413 0.05982699999999997
vn 0.446413 0.892825 0.05982699999999994
vn 0 6.123233995736766E-17 1
vn 0 6.123233995736766E-17 1
vn 0 6.123233995736766E-17 1
vn 0 6.123233995736766E-17 1
vn -0.446413 -0.892825 0.059828000000000055
vn 0.892825 -0.446413 0.05982800000000003
vn -0.892825 0.446413 0.05982699999999997
vn 0.446413 0.892825 0.05982699999999994
vn 0 6.123233995736766E-17 1
vn 0 6.123233995736766E-17 1
vn 0 6.123233995736766E-17 1
vn 0 6.123233995736766E-17 1
vn -0.892825 0.446413 0.05982799999999997
vn -0.446413 -0.892825 0.059828000000000055
vn 0.446413 0.892825 0.05982699999999994
vn 0.892825 -0.446413 0.059827000000000026
vn 0 6.123233995736766E-17 1
vn 0 6.123233995736766E-17 1
vn 0 6.123233995736766E-17 1
vn 0 6.123233995736766E-17 1
vn -0.892825 0.446413 0.05982799999999997
vn -0.446413 -0.892825 0.059828000000000055
vn 0.446413 0.892825 0.05982699999999994
vn 0.892825 -0.446413 0.059827000000000026
vn 0 6.123233995736766E-17 1
vn 0 6.123233995736766E-17 1
vn 0 6.123233995736766E-17 1
vn 0 6.123233995736766E-17 1
vn -0.892825 0.446413 0.05982799999999997
vn -0.446413 -0.892825 0.059828000000000055
vn 0.446413 0.892825 0.05982699999999994
vn 0.892825 -0.446413 0.059827000000000026
vn -0 0.915114 0.40319399999999994
vn -0 0.915114 0.40319399999999994
vn -0 0.915114 0.40319399999999994
vn -0 0.915114 0.40319399999999994
vn -0 0.999546 0.030129999999999938
vn -0 0.999887 0.015065999999999939
vn 0 -0.915114 0.40319400000000005
vn 0 -0.915114 0.40319400000000005
vn 0 -0.915114 0.40319400000000005
vn 0 -0.915114 0.4031950000000001
vn 0.707046 -0.706446 0.03195100000000004
vn -0.707046 -0.706446 0.03195200000000004
vn 0 -0.916938 0.3990290000000001
vn 0.912877 -0.08498099999999997 0.399291
vn 0.205248 0.32688000000000006 0.922509
vn 0.548895 -0.727793 -0.4111349999999999
vn -0.017235 -0.022599000000000063 -0.999596
vn -0.198701 0.972747 -0.11950700000000006
vn -0.790754 -0.560457 -0.24616299999999997
vn -0.017235 -0.022599000000000063 -0.999596
vn -0.682234 0.25580400000000003 0.684924
vn -0.537224 -0.766318 -0.35234399999999994
vn 0.1656 0.973809 -0.15579500000000004
vn 0.781727 -0.518849 -0.3459749999999999
vn 1 0 0
vn 1 0 0
vn 1 0 0
vn 1 0 0
vn 0.707046 -0.706446 0.03195100000000004
vn 1 -0 0
vn 1 0 -0
vn 1 0 0
vn 0.68942 4.43543190038588E-17 0.724361
vn 0.68942 4.435438023619875E-17 0.724362
vn 0.68942 4.43543190038588E-17 0.724361
vn 0.68942 4.43543190038588E-17 0.724361
vn 0.998979 2.7665995839537856E-18 0.045182
vn 0.973878 1.3904211131139346E-17 0.227073
vn 0.986014 1.0205287938994681E-17 0.166665
vn 0.998979 2.7665995839537856E-18 0.045182
vn 0.916938 2.443347938084846E-17 0.399029
vn -1 0 0
vn -1 0 0
vn -1 0 0
vn -1 0 0
vn -1 0 0
vn -0.707046 -0.706446 0.03195200000000004
vn -1 0 0
vn -1 0 0
vn -0.68942 4.43543190038588E-17 0.724361
vn -0.68942 4.435438023619875E-17 0.724362
vn -0.68942 4.43543190038588E-17 0.724361
vn -0.68942 4.43543190038588E-17 0.724361
vn -0.986014 1.0205287938994681E-17 0.166665
vn -0.973878 1.3904211131139346E-17 0.227073
vn -0.998979 2.7665995839537856E-18 0.045182
vn -0.998979 2.7665995839537856E-18 0.045182
vn -0.916938 2.443347938084846E-17 0.399029
vn -0.947209 0.315737 -0.05571900000000002
vn -0.94721 -0.315736 -0.05571899999999998
vn 0.315737 0.947209 -0.05571900000000005
vn -0.315736 0.94721 -0.05571900000000005
vn 0.947209 -0.315737 -0.05571899999999998
vn -0.315737 -0.94721 -0.05571899999999994
vn 0.315736 -0.94721 -0.05571899999999994
vn 0.94721 0.315736 -0.05571900000000002
vn 0 1 -6.123233995736766E-17
vn 0 1 -6.123233995736766E-17
vn 0.942213 -0.335015 2.0513752370817527E-17
vn 0.942213 -0.335015 2.0513752370817527E-17
vn 0.942213 -0.335015 2.0513752370817527E-17
vn -0.942213 -0.335015 2.0513752370817527E-17
vn -0.942213 -0.335015 2.0513752370817527E-17
vn -0.942213 -0.335015 2.0513752370817527E-17
vn -0.942213 -0.335015 2.0513752370817527E-17
vn 0 1 -6.123233995736766E-17
vn 0 1 -6.123233995736766E-17
vn 0.942213 -0.335015 2.0513752370817527E-17
vn 0.942213 -0.335015 2.0513752370817527E-17
vn 0.942213 -0.335015 2.0513752370817527E-17
vn -0.942213 -0.335015 2.0513752370817527E-17
vn -0.942213 -0.335015 2.0513752370817527E-17
vn -0.942213 -0.335015 2.0513752370817527E-17
vn -0.942213 -0.335015 2.0513752370817527E-17
vn 0.892825 0.446412 0.05982799999999997
vn -0.446413 0.892825 0.059827999999999944
vn 0.446413 -0.892825 0.059827000000000054
vn 0.892825 0.446412 0.05982799999999997
vn 0.446413 0.892825 0.059827999999999944
vn -0.892825 -0.446412 0.059827000000000026
vn 0.446413 -0.892825 0.059827000000000054
vn 0.892825 -0.446413 0.059827000000000026
vn -0.892825 0.446413 0.05982799999999997
vn -0.446413 0.892825 0.059827999999999944
vn -0.892825 -0.446412 0.059827000000000026
vn -0.446413 -0.892825 0.059827000000000054
vn 0.892825 0.446412 0.05982799999999997
vn -0.446413 0.892825 0.059827999999999944
vn 0.446413 -0.892825 0.059827000000000054
vn 0.892825 0.446412 0.05982799999999997
vn 0.446413 0.892825 0.059827999999999944
vn -0.892825 -0.446412 0.059827000000000026
vn 0.446413 -0.892825 0.059827000000000054
vn 0.892825 -0.446413 0.059827000000000026
vn -0.892825 0.446413 0.05982799999999997
vn -0.446413 0.892825 0.059827999999999944
vn -0.892825 -0.446412 0.059827000000000026
vn -0.446413 -0.892825 0.059827000000000054
vn 0.892825 0.446412 0.05982799999999997
vn -0.446413 0.892825 0.059827999999999944
vn 0.446413 -0.892825 0.059827000000000054
vn 0.892825 0.446412 0.05982799999999997
vn 0.446413 0.892825 0.059827999999999944
vn -0.892825 -0.446412 0.059827000000000026
vn 0.446413 -0.892825 0.059827000000000054
vn 0.892825 -0.446413 0.059827000000000026
vn -0.892825 0.446413 0.05982799999999997
vn -0.446413 0.892825 0.059827999999999944
vn -0.892825 -0.446412 0.059827000000000026
vn -0.446413 -0.892825 0.059827000000000054
vn 0.446412 -0.892825 0.059828000000000055
vn 0.892825 0.446413 0.05982799999999997
vn -0.892825 -0.446413 0.059827000000000026
vn 0.446412 -0.892825 0.059828000000000055
vn 0.892825 -0.446413 0.05982800000000003
vn -0.446412 0.892825 0.05982699999999994
vn -0.892825 -0.446413 0.059827000000000026
vn -0.446413 -0.892825 0.059827000000000054
vn 0.446413 0.892825 0.059827999999999944
vn 0.892825 0.446413 0.05982799999999997
vn -0.446412 0.892825 0.05982699999999994
vn -0.892825 0.446413 0.05982699999999997
vn 0.446412 -0.892825 0.059828000000000055
vn 0.892825 0.446413 0.05982799999999997
vn -0.892825 -0.446413 0.059827000000000026
vn 0.446412 -0.892825 0.059828000000000055
vn 0.892825 -0.446413 0.05982800000000003
vn -0.446412 0.892825 0.05982699999999994
vn -0.892825 -0.446413 0.059827000000000026
vn -0.446413 -0.892825 0.059827000000000054
vn 0.446413 0.892825 0.059827999999999944
vn 0.892825 0.446413 0.05982799999999997
vn -0.446412 0.892825 0.05982699999999994
vn -0.892825 0.446413 0.05982699999999997
vn 0.446412 -0.892825 0.059828000000000055
vn 0.892825 0.446413 0.05982799999999997
vn -0.892825 -0.446413 0.059827000000000026
vn 0.446412 -0.892825 0.059828000000000055
vn 0.892825 -0.446413 0.05982800000000003
vn -0.446412 0.892825 0.05982699999999994
vn -0.892825 -0.446413 0.059827000000000026
vn -0.446413 -0.892825 0.059827000000000054
vn 0.446413 0.892825 0.059827999999999944
vn 0.892825 0.446413 0.05982799999999997
vn -0.446412 0.892825 0.05982699999999994
vn -0.892825 0.446413 0.05982699999999997
vn -0.892825 -0.446412 0.05982800000000003
vn 0.446413 -0.892825 0.059828000000000055
vn -0.446413 0.892825 0.05982699999999994
vn -0.892825 -0.446412 0.05982800000000003
vn -0.446413 -0.892825 0.059828000000000055
vn 0.892825 0.446412 0.05982699999999997
vn -0.446413 0.892825 0.05982699999999994
vn -0.892825 0.446413 0.05982699999999997
vn 0.892825 -0.446413 0.05982800000000003
vn 0.446413 -0.892825 0.059828000000000055
vn 0.892825 0.446412 0.05982699999999997
vn 0.446413 0.892825 0.05982699999999994
vn -0.892825 -0.446412 0.05982800000000003
vn 0.446413 -0.892825 0.059828000000000055
vn -0.446413 0.892825 0.05982699999999994
vn -0.892825 -0.446412 0.05982800000000003
vn -0.446413 -0.892825 0.059828000000000055
vn 0.892825 0.446412 0.05982699999999997
vn -0.446413 0.892825 0.05982699999999994
vn -0.892825 0.446413 0.05982699999999997
vn 0.892825 -0.446413 0.05982800000000003
vn 0.446413 -0.892825 0.059828000000000055
vn 0.892825 0.446412 0.05982699999999997
vn 0.446413 0.892825 0.05982699999999994
vn -0.892825 -0.446412 0.05982800000000003
vn 0.446413 -0.892825 0.059828000000000055
vn -0.446413 0.892825 0.05982699999999994
vn -0.892825 -0.446412 0.05982800000000003
vn -0.446413 -0.892825 0.059828000000000055
vn 0.892825 0.446412 0.05982699999999997
vn -0.446413 0.892825 0.05982699999999994
vn -0.892825 0.446413 0.05982699999999997
vn 0.892825 -0.446413 0.05982800000000003
vn 0.446413 -0.892825 0.059828000000000055
vn 0.892825 0.446412 0.05982699999999997
vn 0.446413 0.892825 0.05982699999999994
vn -0.446412 0.892825 0.059827999999999944
vn -0.892825 -0.446413 0.05982800000000003
vn 0.892825 0.446413 0.05982699999999997
vn -0.446412 0.892825 0.059827999999999944
vn -0.892825 0.446413 0.05982799999999997
vn 0.446412 -0.892825 0.059827000000000054
vn 0.892825 0.446413 0.05982699999999997
vn 0.446413 0.892825 0.05982699999999994
vn -0.446413 -0.892825 0.059828000000000055
vn -0.892825 -0.446413 0.05982800000000003
vn 0.446412 -0.892825 0.059827000000000054
vn 0.892825 -0.446413 0.059827000000000026
vn -0.446412 0.892825 0.059827999999999944
vn -0.892825 -0.446413 0.05982800000000003
vn 0.892825 0.446413 0.05982699999999997
vn -0.446412 0.892825 0.059827999999999944
vn -0.892825 0.446413 0.05982799999999997
vn 0.446412 -0.892825 0.059827000000000054
vn 0.892825 0.446413 0.05982699999999997
vn 0.446413 0.892825 0.05982699999999994
vn -0.446413 -0.892825 0.059828000000000055
vn -0.892825 -0.446413 0.05982800000000003
vn 0.446412 -0.892825 0.059827000000000054
vn 0.892825 -0.446413 0.059827000000000026
vn -0.446412 0.892825 0.059827999999999944
vn -0.892825 -0.446413 0.05982800000000003
vn 0.892825 0.446413 0.05982699999999997
vn -0.446412 0.892825 0.059827999999999944
vn -0.892825 0.446413 0.05982799999999997
vn 0.446412 -0.892825 0.059827000000000054
vn 0.892825 0.446413 0.05982699999999997
vn 0.446413 0.892825 0.05982699999999994
vn -0.446413 -0.892825 0.059828000000000055
vn -0.892825 -0.446413 0.05982800000000003
vn 0.446412 -0.892825 0.059827000000000054
vn 0.892825 -0.446413 0.059827000000000026
vn 0.651255 0.742395 0.15721499999999994
vn 0.171907 0.27675099999999997 -0.94544
vn 0.116249 0.17209400000000005 0.978197
vn -0.017235 -0.022599000000000063 -0.999596
vn 0.172773 -0.010916000000000061 -0.984901
vn 0.002481 0.517124 0.855907
vn -0.017235 -0.022599000000000063 -0.999596
vn 0.008885 -0.723436 -0.690334
vn 8E-06 0.59177 0.806107
vn -0.017235 -0.022599000000000063 -0.999596
vn -0.350821 0.14070399999999994 -0.925811
vn 0.595075 0.629344 0.4998119999999999
g 01
f 485/485/485 488/488/488 487/487/487
f 487/487/487 486/486/486 485/485/485
f 260/260/260 484/484/484 483/483/483
f 483/483/483 482/482/482 260/260/260
f 259/259/259 481/481/481 480/480/480
f 480/480/480 479/479/479 259/259/259
f 257/257/257 258/258/258 478/478/478
f 478/478/478 477/477/477 257/257/257
f 255/255/255 254/254/254 253/253/253
f 253/253/253 256/256/256 255/255/255
f 473/473/473 476/476/476 475/475/475
f 475/475/475 474/474/474 473/473/473
f 252/252/252 472/472/472 471/471/471
f 471/471/471 470/470/470 252/252/252
f 251/251/251 469/469/469 468/468/468
f 468/468/468 467/467/467 251/251/251
f 249/249/249 250/250/250 466/466/466
f 466/466/466 465/465/465 249/249/249
f 247/247/247 246/246/246 245/245/245
f 245/245/245 248/248/248 247/247/247
f 461/461/461 464/464/464 463/463/463
f 463/463/463 462/462/462 461/461/461
f 244/244/244 460/460/460 459/459/459
f 459/459/459 458/458/458 244/244/244
f 243/243/243 457/457/457 456/456/456
f 456/456/456 455/455/455 243/243/243
f 241/241/241 242/242/242 454/454/454
f 454/454/454 453/453/453 241/241/241
f 239/239/239 238/238/238 237/237/237
f 237/237/237 240/240/240 239/239/239
f 449/449/449 452/452/452 451/451/451
f 451/451/451 450/450/450 449/449/449
f 236/236/236 448/448/448 447/447/447
f 447/447/447 446/446/446 236/236/236
f 235/235/235 445/445/445 444/444/444
f 444/444/444 443/443/443 235/235/235
f 233/233/233 234/234/234 442/442/442
f 442/442/442 441/441/441 233/233/233
f 231/231/231 230/230/230 229/229/229
f 229/229/229 232/232/232 231/231/231
f 437/437/437 440/440/440 439/439/439
f 439/439/439 438/438/438 437/437/437
f 228/228/228 436/436/436 435/435/435
f 435/435/435 434/434/434 228/228/228
f 227/227/227 433/433/433 432/432/432
f 432/432/432 431/431/431 227/227/227
f 225/225/225 226/226/226 430/430/430
f 430/430/430 429/429/429 225/225/225
f 223/223/223 222/222/222 221/221/221
f 221/221/221 224/224/224 223/223/223
f 425/425/425 428/428/428 427/427/427
f 427/427/427 426/426/426 425/425/425
f 220/220/220 424/424/424 423/423/423
f 423/423/423 422/422/422 220/220/220
f 219/219/219 421/421/421 420/420/420
f 420/420/420 419/419/419 219/219/219
f 217/217/217 218/218/218 418/418/418
f 418/418/418 417/417/417 217/217/217
f 215/215/215 214/214/214 213/213/213
f 213/213/213 216/216/216 215/215/215
f 413/413/413 416/416/416 415/415/415
f 415/415/415 414/414/414 413/413/413
f 212/212/212 412/412/412 411/411/411
f 411/411/411 410/410/410 212/212/212
f 211/211/211 409/409/409 408/408/408
f 408/408/408 407/407/407 211/211/211
f 209/209/209 210/210/210 406/406/406
f 406/406/406 405/405/405 209/209/209
f 207/207/207 206/206/206 205/205/205
f 205/205/205 208/208/208 207/207/207
f 401/401/401 404/404/404 403/403/403
f 403/403/403 402/402/402 401/401/401
f 204/204/204 400/400/400 399/399/399
f 399/399/399 398/398/398 204/204/204
f 203/203/203 397/397/397 396/396/396
f 396/396/396 395/395/395 203/203/203
f 201/201/201 202/202/202 394/394/394
f 394/394/394 393/393/393 201/201/201
f 199/199/199 198/198/198 197/197/197
f 197/197/197 200/200/200 199/199/199
f 389/389/389 392/392/392 391/391/391
f 391/391/391 390/390/390 389/389/389
f 196/196/196 388/388/388 387/387/387
f 387/387/387 386/386/386 196/196/196
f 195/195/195 385/385/385 384/384/384
f 384/384/384 383/383/383 195/195/195
f 193/193/193 194/194/194 382/382/382
f 382/382/382 381/381/381 193/193/193
f 191/191/191 190/190/190 189/189/189
f 189/189/189 192/192/192 191/191/191
f 377/377/377 380/380/380 379/379/379
f 379/379/379 378/378/378 377/377/377
f 188/188/188 376/376/376 375/375/375
f 375/375/375 374/374/374 188/188/188
f 187/187/187 373/373/373 372/372/372
f 372/372/372 371/371/371 187/187/187
f 185/185/185 186/186/186 370/370/370
f 370/370/370 369/369/369 185/185/185
f 183/183/183 182/182/182 181/181/181
f 181/181/181 184/184/184 183/183/183
f 365/365/365 368/368/368 367/367/367
f 367/367/367 366/366/366 365/365/365
f 180/180/180 364/364/364 363/363/363
f 363/363/363 362/362/362 180/180/180
f 179/179/179 361/361/361 360/360/360
f 360/360/360 359/359/359 179/179/179
f 177/177/177 178/178/178 358/358/358
f 358/358/358 357/357/357 177/177/177
f 175/175/175 174/174/174 173/173/173
f 173/173/173 176/176/176 175/175/175
f 353/353/353 356/356/356 355/355/355
f 355/355/355 354/354/354 353/353/353
f 172/172/172 352/352/352 351/351/351
f 351/351/351 350/350/350 172/172/172
f 171/171/171 349/349/349 348/348/348
f 348/348/348 347/347/347 171/171/171
f 169/169/169 170/170/170 346/346/346
f 346/346/346 345/345/345 169/169/169
f 167/167/167 166/166/166 165/165/165
f 165/165/165 168/168/168 167/167/167
f 161/161/161 164/164/164 163/163/163
f 163/163/163 162/162/162 161/161/161
f 157/157/157 160/160/160 159/159/159
f 159/159/159 158/158/158 157/157/157
f 153/153/153 156/156/156 155/155/155
f 155/155/155 154/154/154 153/153/153
f 149/149/149 152/152/152 151/151/151
f 151/151/151 150/150/150 149/149/149
f 145/145/145 148/148/148 147/147/147
f 147/147/147 146/146/146 145/145/145
f 141/141/141 144/144/144 143/143/143
f 143/143/143 142/142/142 141/141/141
f 137/137/137 140/140/140 139/139/139
f 139/139/139 138/138/138 137/137/137
f 133/133/133 136/136/136 135/135/135
f 135/135/135 134/134/134 133/133/133
f 129/129/129 132/132/132 131/131/131
f 131/131/131 130/130/130 129/129/129
f 125/125/125 128/128/128 127/127/127
f 127/127/127 126/126/126 125/125/125
f 121/121/121 124/124/124 123/123/123
f 123/123/123 122/122/122 121/121/121
f 117/117/117 120/120/120 119/119/119
f 119/119/119 118/118/118 117/117/117
f 113/113/113 116/116/116 115/115/115
f 115/115/115 114/114/114 113/113/113
f 109/109/109 112/112/112 111/111/111
f 111/111/111 110/110/110 109/109/109
f 105/105/105 108/108/108 107/107/107
f 107/107/107 106/106/106 105/105/105
f 101/101/101 104/104/104 103/103/103
f 103/103/103 102/102/102 101/101/101
f 341/341/341 344/344/344 343/343/343
f 343/343/343 342/342/342 341/341/341
f 338/338/338 340/340/340 339/339/339
f 339/339/339 97/97/97 338/338/338
f 95/95/95 337/337/337 336/336/336
f 336/336/336 96/96/96 95/95/95
f 100/100/100 99/99/99 98/98/98
f 332/332/332 335/335/335 334/334/334
f 334/334/334 333/333/333 332/332/332
f 329/329/329 331/331/331 330/330/330
f 330/330/330 91/91/91 329/329/329
f 89/89/89 328/328/328 327/327/327
f 327/327/327 90/90/90 89/89/89
f 94/94/94 93/93/93 92/92/92
f 55/55/55 10/10/10 56/56/56
f 39/39/39 38/38/38 35/35/35
f 323/323/323 326/326/326 325/325/325
f 325/325/325 324/324/324 323/323/323
f 321/321/321 322/322/322 87/87/87
f 87/87/87 84/84/84 321/321/321
f 319/319/319 320/320/320 64/64/64
f 64/64/64 83/83/83 319/319/319
f 11/11/11 9/9/9 500/500/500
f 9/9/9 51/51/51 34/34/34
f 51/51/51 45/45/45 34/34/34
f 35/35/35 38/38/38 45/45/45
f 45/45/45 51/51/51 35/35/35
f 22/22/22 53/53/53 9/9/9
f 9/9/9 21/21/21 22/22/22
f 39/39/39 499/499/499 493/493/493
f 39/39/39 35/35/35 499/499/499
f 35/35/35 51/51/51 499/499/499
f 41/41/41 14/14/14 11/11/11
f 11/11/11 500/500/500 41/41/41
f 40/40/40 491/491/491 38/38/38
f 318/318/318 314/314/314 315/315/315
f 314/314/314 317/317/317 316/316/316
f 316/316/316 315/315/315 314/314/314
f 310/310/310 313/313/313 312/312/312
f 312/312/312 311/311/311 310/310/310
f 306/306/306 309/309/309 308/308/308
f 308/308/308 307/307/307 306/306/306
f 302/302/302 305/305/305 304/304/304
f 304/304/304 303/303/303 302/302/302
f 301/301/301 298/298/298 299/299/299
f 297/297/297 300/300/300 299/299/299
f 299/299/299 298/298/298 297/297/297
f 293/293/293 296/296/296 295/295/295
f 295/295/295 294/294/294 293/293/293
f 289/289/289 292/292/292 291/291/291
f 291/291/291 290/290/290 289/289/289
f 285/285/285 288/288/288 287/287/287
f 287/287/287 286/286/286 285/285/285
f 57/57/57 63/63/63 85/85/85
f 85/85/85 86/86/86 57/57/57
f 54/54/54 51/51/51 489/489/489
f 51/51/51 54/54/54 499/499/499
f 490/490/490 499/499/499 54/54/54
f 39/39/39 68/68/68 38/38/38
f 498/498/498 496/496/496 68/68/68
f 42/42/42 284/284/284 68/68/68
f 42/42/42 68/68/68 39/39/39
f 39/39/39 69/69/69 42/42/42
f 46/46/46 47/47/47 49/49/49
f 494/494/494 43/43/43 497/497/497
f 52/52/52 44/44/44 48/48/48
f 283/283/283 495/495/495 70/70/70
f 44/44/44 52/52/52 50/50/50
f 40/40/40 68/68/68 496/496/496
f 50/50/50 48/48/48 44/44/44
f 70/70/70 495/495/495 282/282/282
f 40/40/40 43/43/43 494/494/494
f 40/40/40 494/494/494 491/491/491
f 37/37/37 67/67/67 281/281/281
f 281/281/281 36/36/36 37/37/37
f 37/37/37 36/36/36 47/47/47
f 47/47/47 46/46/46 37/37/37
f 39/39/39 493/493/493 492/492/492
f 69/69/69 39/39/39 492/492/492
f 38/38/38 68/68/68 40/40/40
f 491/491/491 34/34/34 45/45/45
f 45/45/45 38/38/38 491/491/491
f 490/490/490 54/54/54 489/489/489
f 9/9/9 10/10/10 55/55/55
f 10/10/10 9/9/9 53/53/53
f 53/53/53 56/56/56 10/10/10
f 29/29/29 26/26/26 28/28/28
f 55/55/55 51/51/51 9/9/9
f 22/22/22 21/21/21 20/20/20
f 20/20/20 21/21/21 14/14/14
f 19/19/19 20/20/20 14/14/14
f 23/23/23 280/280/280 19/19/19
f 279/279/279 24/24/24 19/19/19
f 20/20/20 19/19/19 24/24/24
f 24/24/24 16/16/16 20/20/20
f 27/27/27 15/15/15 30/30/30
f 25/25/25 33/33/33 32/32/32
f 13/13/13 15/15/15 27/27/27
f 27/27/27 12/12/12 13/13/13
f 277/277/277 278/278/278 88/88/88
f 31/31/31 28/28/28 26/26/26
f 19/19/19 18/18/18 23/23/23
f 26/26/26 29/29/29 31/31/31
f 277/277/277 88/88/88 276/276/276
f 25/25/25 275/275/275 33/33/33
f 14/14/14 41/41/41 275/275/275
f 33/33/33 275/275/275 41/41/41
f 274/274/274 66/66/66 13/13/13
f 13/13/13 12/12/12 274/274/274
f 22/22/22 20/20/20 17/17/17
f 20/20/20 16/16/16 17/17/17
f 19/19/19 14/14/14 18/18/18
f 14/14/14 21/21/21 9/9/9
f 9/9/9 11/11/11 14/14/14
f 6/6/6 5/5/5 8/8/8
f 6/6/6 8/8/8 7/7/7
f 6/6/6 7/7/7 4/4/4
f 6/6/6 4/4/4 5/5/5
f 273/273/273 81/81/81 2/2/2
f 271/271/271 2/2/2 81/81/81
f 81/81/81 272/272/272 271/271/271
f 267/267/267 270/270/270 269/269/269
f 269/269/269 268/268/268 267/267/267
f 59/59/59 76/76/76 3/3/3
f 3/3/3 62/62/62 59/59/59
f 72/72/72 75/75/75 79/79/79
f 79/79/79 80/80/80 72/72/72
f 77/77/77 60/60/60 82/82/82
f 60/60/60 266/266/266 265/265/265
f 265/265/265 82/82/82 60/60/60
f 261/261/261 264/264/264 263/263/263
f 263/263/263 262/262/262 261/261/261
f 58/58/58 1/1/1 65/65/65
f 65/65/65 73/73/73 58/58/58
f 61/61/61 78/78/78 74/74/74
f 74/74/74 71/71/71 61/61/61
