v 0.007070712499999999 0.0023769025000000147 0.23844160749999999
v 0.007070712499999999 -0.13291625999999998 0.25240489349999995
v -0.11009664699999999 -0.06526966099999998 0.25240489349999995
v -0.1100966115 0.07002353700000001 0.25240489349999995
v 0.007070712499999999 0.1376701005 0.25240489349999995
v 0.12423807199999999 0.07002350150000002 0.25240489349999995
v 0.12423803649999998 -0.06526969649999999 0.25240489349999995
v 0.007070712499999999 -0.13291625999999998 0.129390258
v -0.11009664699999999 -0.06526966099999998 0.12939025799999998
v -0.1100966115 0.070023537 0.12939025799999998
v 0.007070712499999999 0.1376701005 0.12939025799999998
v 0.12423807199999999 0.0700235015 0.12939025799999998
v 0.12423803649999998 -0.06526969649999999 0.12939025799999998
v 0.007070712499999999 0.002376902500000003 0.04465268099999999
v 0.1198219785 0.026913863500000006 0.21067450149999997
v 0.14855628199999998 0.026913863500000006 0.21067450149999997
v 0.1198219785 -0.014270502999999985 0.21067450149999997
v 0.14855628199999998 -0.014270502999999985 0.21067450149999997
v 0.1198219785 0.026913863500000013 0.23794741199999997
v 0.14855628199999998 0.026913863500000013 0.23794741199999997
v 0.1198219785 -0.014270502999999985 0.23794741199999997
v 0.14855628199999998 -0.014270502999999985 0.23794741199999997
v -0.1053425935 -0.014270502999999985 0.23794741199999997
v -0.13407689699999997 -0.014270502999999985 0.23794741199999997
v -0.13407689699999997 0.026913863500000013 0.23794741199999997
v -0.1053425935 0.026913863500000013 0.23794741199999997
v -0.1053425935 -0.014270502999999985 0.21067450149999997
v -0.13407689699999997 -0.014270502999999985 0.21067450149999997
v -0.13407689699999997 0.026913863500000006 0.21067450149999997
v -0.1053425935 0.026913863500000006 0.21067450149999997
v 0.024316364 -0.10222232099999999 6.2593119107031625e-18
v -0.014192686999999999 -0.13459104349999998 8.241324530808858e-18
v 0.0308608955 -0.12664688899999998 7.754885361791006e-18
v -0.016396526999999998 -0.10940109549999999 6.6988850713644445e-18
v -0.015097581999999998 -0.12424801199999999 0.014513323000000007
v 0.028173722999999998 -0.11661810349999999 0.014513323000000007
v -0.029824899 -0.105767351 -0.000060172499999993515
v -0.07985334499999999 -0.09698979849999999 -0.00006017249999999405
v -0.044468791 -0.1266810045 -0.000060172499999992235
v -0.061800316999999994 -0.07893680599999998 -0.000060172499999995155
v -0.072440732 -0.08957718549999999 0.014593553000000006
v -0.038455978499999995 -0.11809380299999998 0.014593553000000007
v -0.07393766049999999 -0.0658383355 -0.00042124299999999595
v -0.12442682549999999 -0.0475103245 -0.00042124299999999704
v -0.09302860199999999 -0.08492927699999998 -0.00042124299999999476
v -0.102310787 -0.0320245145 -0.00042124299999999796
v -0.11534592549999999 -0.041151812999999995 0.0150749685
v -0.08518984699999999 -0.07709048649999999 0.015074968500000003
v -0.10467494499999998 -0.017519747 0.000446838500000001
v -0.12444372349999998 0.024780774999999994 0.0004468384999999984
v -0.128144563 -0.017519711499999997 0.000446838500000001
v -0.1013306675 0.020705303999999997 0.0004468384999999986
v -0.11495347299999999 0.023107376 0.013917526499999996
v -0.11850787499999998 -0.017519711499999997 0.0139175265
v -0.09354267749999999 0.039555697499999994 -2.4220879165707976e-18
v -0.10232030099999999 0.0890899125 -5.455183808972137e-18
v -0.117967281 0.046100264499999995 -2.8228270679885676e-18
v -0.0794032405 0.07840348949999999 -4.800829122907905e-18
v -0.09291052899999999 0.08470204149999999 0.014513322999999993
v -0.1079384955 0.0434130565 0.014513322999999998
v -0.065420536 0.08676373949999999 0.00017544099999999466
v -0.0410130435 0.1291218425 0.0001754409999999921
v -0.07951499449999999 0.10689273649999999 0.00017544099999999344
v -0.030628051 0.10685116599999998 0.00017544099999999347
v -0.036748925499999995 0.119977433 0.01427937799999999
v -0.07372778449999999 0.0986276975 0.014279377999999992
v -0.009615885 0.103199636 -0.0004814155000000063
v 0.025187640499999997 0.14474851649999998 -0.00048141550000000886
v -0.021129422499999998 0.12789048949999998 -0.00048141550000000777
v 0.0322387215 0.11843346699999999 -0.00048141550000000723
v 0.028082807499999998 0.133943488 0.01515519849999999
v -0.0164019585 0.117752364 0.01515519849999999
v 0.044538087 0.106924225 0.0004982424999999934
v 0.090814467 0.10696355899999999 0.0004982424999999934
v 0.054368533999999996 0.12800565149999998 0.0004982424999999921
v 0.077472644 0.08790946649999999 0.0004982424999999946
v 0.0853362845 0.0991398915 0.013849011499999992
v 0.05033211299999999 0.11934954449999999 0.01384901149999999
v 0.09250412499999999 0.08086999399999999 -0.00030089800000000484
v 0.129828257 0.043609300499999996 -0.00030089800000000257
v 0.11741482999999998 0.0899368005 -0.00030089800000000544
v 0.10372159249999999 0.039005979999999996 -0.00030089800000000235
v 0.11910878349999998 0.04171917399999999 0.014914508499999996
v 0.10718642799999999 0.08621395099999998 0.014914508499999991
v 0.11821641999999999 0.025840272499999997 -0.00012034500000000157
v 0.135795949 -0.0223315945 -0.0001203449999999986
v 0.14389381849999996 0.023593797 -0.00012034500000000142
v 0.110898734 -0.015660434499999997 -0.00012034499999999902
v 0.12557308499999997 -0.0195924145 0.014673783000000001
v 0.1333506025 0.0245161935 0.014673782999999996
v 0.10854593599999998 -0.035531027 0.0004468385000000021
v 0.11265491899999999 -0.08204181349999999 0.00044683850000000496
v 0.130600169 -0.0435581095 0.0004468385000000026
v 0.09232964249999999 -0.07030700449999999 0.00044683850000000426
v 0.10430933049999999 -0.07722346949999999 0.013917526500000001
v 0.12154468699999998 -0.0402621475 0.0139175265
v 0.07436057199999999 -0.07916588749999999 4.847512536426722e-18
v 0.05719511499999999 -0.126452562 7.74298626486411e-18
v 0.09224060849999999 -0.09704592399999999 5.942349009844864e-18
v 0.0426915545 -0.10573934149999999 6.474667305596194e-18
v 0.051239918999999995 -0.117947685 0.014513323000000007
v 0.084899031 -0.0897043465 0.014513323000000005
v -0.16926204749999998 -0.066425257 0.005440375000000003
v -0.1911033515 -0.042303219999999996 0.010339694500000001
v -0.16926204749999998 -0.0181812185 0.005440375000000001
v -0.127865249 -0.042294486999999985 0.212940786
v -0.1536977115 -0.021893133999999988 0.212977706
v -0.127865249 -0.0014918164999999867 0.212940786
v -0.127865249 0.04977625400000001 0.212940786
v -0.16926204749999998 0.073907024 0.005440374999999995
v -0.1911033515 0.049784986999999996 0.010339694499999995
v -0.1536977115 0.02937490100000001 0.212977706
v -0.16926204749999998 0.0256629855 0.005440374999999997
v -0.127865249 0.008973548000000013 0.212940786
v -0.118120144 -0.05471678899999998 0.20907895399999996
v -0.138521497 -0.04317194049999998 0.234022745
v -0.15892284999999998 -0.05471678899999998 0.20907895399999996
v -0.11812017949999999 0.059469848500000005 0.20907895399999996
v -0.138521497 0.047925000000000016 0.234022745
v -0.15892284999999998 0.059469848500000005 0.20907895399999996
v 0.1835662045 0.0735563195 0.005440374999999995
v 0.20540754399999997 0.049434318 0.010339694499999995
v 0.1835662045 0.025312316499999998 0.005440374999999997
v 0.1421694415 0.04942558500000001 0.212940786
v 0.16800186849999998 0.029024232000000007 0.212977706
v 0.1421694415 0.008622879000000012 0.212940786
v 0.1421694415 -0.042645191499999985 0.212940786
v 0.1835662045 -0.06677592599999999 0.005440375000000003
v 0.20540750849999997 -0.042653924499999996 0.010339694500000001
v 0.16800186849999998 -0.022243838499999988 0.212977706
v 0.1835662045 -0.018531923 0.005440375000000001
v 0.1421694415 -0.0018424854999999868 0.212940786
v 0.1324243365 0.06184788700000001 0.20907895399999996
v 0.15282568949999997 0.05030303850000001 0.234022745
v 0.1732270425 0.06184788700000001 0.20907895399999996
v 0.1324243365 -0.05233878599999998 0.20907895399999996
v 0.15282568949999997 -0.04079393749999998 0.234022745
v 0.1732270425 -0.05233878599999998 0.20907895399999996
v 0.13006784649999997 0.0027218205 -1.6666343815893243e-19
v 0.06848425699999999 -0.1039441065 6.364740865772829e-18
v -0.0546829575 -0.1039441065 6.364740865772829e-18
v -0.11626654699999998 0.0027218205 -1.6666343815893243e-19
v -0.054682921999999995 0.10938778299999999 -6.698069915838762e-18
v 0.06848425699999999 0.10938774749999998 -6.698067742090693e-18
v 0.0069006675 0.002721820500000002 0.040364955499999994
v -0.11009664699999999 -0.06526966099999998 0.25240489349999995
v 0.007070712499999999 -0.13291625999999998 0.25240489349999995
v -0.1100966115 0.07002353700000001 0.25240489349999995
v 0.007070712499999999 0.1376701005 0.25240489349999995
v 0.12423807199999999 0.07002350150000002 0.25240489349999995
v 0.12423803649999998 -0.06526969649999999 0.25240489349999995
v 0.14855628199999998 0.026913863500000006 0.21067450149999997
v 0.14855628199999998 -0.014270502999999985 0.23794741199999997
v 0.14855628199999998 0.026913863500000013 0.23794741199999997
v 0.14855628199999998 -0.014270502999999985 0.21067450149999997
v -0.13407689699999997 -0.014270502999999985 0.21067450149999997
v -0.13407689699999997 0.026913863500000013 0.23794741199999997
v -0.13407689699999997 -0.014270502999999985 0.23794741199999997
v -0.13407689699999997 0.026913863500000006 0.21067450149999997
v 0.024316364 -0.10222232099999999 6.2593119107031625e-18
v 0.028173722999999998 -0.11661810349999999 0.014513323000000007
v 0.0308608955 -0.12664688899999998 7.754885361791006e-18
v -0.015097581999999998 -0.12424801199999999 0.014513323000000007
v 0.028173722999999998 -0.11661810349999999 0.014513323000000007
v -0.014192686999999999 -0.13459104349999998 8.241324530808858e-18
v -0.016396526999999998 -0.10940109549999999 6.6988850713644445e-18
v -0.015097581999999998 -0.12424801199999999 0.014513323000000007
v -0.029824899 -0.105767351 -0.000060172499999993515
v -0.038455978499999995 -0.11809380299999998 0.014593553000000007
v -0.044468791 -0.1266810045 -0.000060172499999992235
v -0.072440732 -0.08957718549999999 0.014593553000000006
v -0.038455978499999995 -0.11809380299999998 0.014593553000000007
v -0.07985334499999999 -0.09698979849999999 -0.00006017249999999405
v -0.061800316999999994 -0.07893680599999998 -0.000060172499999995155
v -0.072440732 -0.08957718549999999 0.014593553000000006
v -0.07393766049999999 -0.0658383355 -0.00042124299999999595
v -0.08518984699999999 -0.07709048649999999 0.015074968500000003
v -0.09302860199999999 -0.08492927699999998 -0.00042124299999999476
v -0.11534592549999999 -0.041151812999999995 0.0150749685
v -0.08518984699999999 -0.07709048649999999 0.015074968500000003
v -0.12442682549999999 -0.0475103245 -0.00042124299999999704
v -0.102310787 -0.0320245145 -0.00042124299999999796
v -0.11534592549999999 -0.041151812999999995 0.0150749685
v -0.10467494499999998 -0.017519747 0.000446838500000001
v -0.11850787499999998 -0.017519711499999997 0.0139175265
v -0.128144563 -0.017519711499999997 0.000446838500000001
v -0.11495347299999999 0.023107376 0.013917526499999996
v -0.11850787499999998 -0.017519711499999997 0.0139175265
v -0.12444372349999998 0.024780774999999994 0.0004468384999999984
v -0.1013306675 0.020705303999999997 0.0004468384999999986
v -0.11495347299999999 0.023107376 0.013917526499999996
v -0.09354267749999999 0.039555697499999994 -2.4220879165707976e-18
v -0.1079384955 0.0434130565 0.014513322999999998
v -0.117967281 0.046100264499999995 -2.8228270679885676e-18
v -0.09291052899999999 0.08470204149999999 0.014513322999999993
v -0.1079384955 0.0434130565 0.014513322999999998
v -0.10232030099999999 0.0890899125 -5.455183808972137e-18
v -0.0794032405 0.07840348949999999 -4.800829122907905e-18
v -0.09291052899999999 0.08470204149999999 0.014513322999999993
v -0.065420536 0.08676373949999999 0.00017544099999999466
v -0.07372778449999999 0.0986276975 0.014279377999999992
v -0.07951499449999999 0.10689273649999999 0.00017544099999999344
v -0.036748925499999995 0.119977433 0.01427937799999999
v -0.07372778449999999 0.0986276975 0.014279377999999992
v -0.0410130435 0.1291218425 0.0001754409999999921
v -0.030628051 0.10685116599999998 0.00017544099999999347
v -0.036748925499999995 0.119977433 0.01427937799999999
v -0.009615885 0.103199636 -0.0004814155000000063
v -0.0164019585 0.117752364 0.01515519849999999
v -0.021129422499999998 0.12789048949999998 -0.00048141550000000777
v 0.028082807499999998 0.133943488 0.01515519849999999
v -0.0164019585 0.117752364 0.01515519849999999
v 0.025187640499999997 0.14474851649999998 -0.00048141550000000886
v 0.0322387215 0.11843346699999999 -0.00048141550000000723
v 0.028082807499999998 0.133943488 0.01515519849999999
v 0.044538087 0.106924225 0.0004982424999999934
v 0.05033211299999999 0.11934954449999999 0.01384901149999999
v 0.054368533999999996 0.12800565149999998 0.0004982424999999921
v 0.0853362845 0.0991398915 0.013849011499999992
v 0.05033211299999999 0.11934954449999999 0.01384901149999999
v 0.090814467 0.10696355899999999 0.0004982424999999934
v 0.077472644 0.08790946649999999 0.0004982424999999946
v 0.0853362845 0.0991398915 0.013849011499999992
v 0.09250412499999999 0.08086999399999999 -0.00030089800000000484
v 0.10718642799999999 0.08621395099999998 0.014914508499999991
v 0.11741482999999998 0.0899368005 -0.00030089800000000544
v 0.11910878349999998 0.04171917399999999 0.014914508499999996
v 0.10718642799999999 0.08621395099999998 0.014914508499999991
v 0.129828257 0.043609300499999996 -0.00030089800000000257
v 0.10372159249999999 0.039005979999999996 -0.00030089800000000235
v 0.11910878349999998 0.04171917399999999 0.014914508499999996
v 0.11821641999999999 0.025840272499999997 -0.00012034500000000157
v 0.1333506025 0.0245161935 0.014673782999999996
v 0.14389381849999996 0.023593797 -0.00012034500000000142
v 0.12557308499999997 -0.0195924145 0.014673783000000001
v 0.1333506025 0.0245161935 0.014673782999999996
v 0.135795949 -0.0223315945 -0.0001203449999999986
v 0.110898734 -0.015660434499999997 -0.00012034499999999902
v 0.12557308499999997 -0.0195924145 0.014673783000000001
v 0.10854593599999998 -0.035531027 0.0004468385000000021
v 0.12154468699999998 -0.0402621475 0.0139175265
v 0.130600169 -0.0435581095 0.0004468385000000026
v 0.10430933049999999 -0.07722346949999999 0.013917526500000001
v 0.12154468699999998 -0.0402621475 0.0139175265
v 0.11265491899999999 -0.08204181349999999 0.00044683850000000496
v 0.09232964249999999 -0.07030700449999999 0.00044683850000000426
v 0.10430933049999999 -0.07722346949999999 0.013917526500000001
v 0.07436057199999999 -0.07916588749999999 4.847512536426722e-18
v 0.084899031 -0.0897043465 0.014513323000000005
v 0.09224060849999999 -0.09704592399999999 5.942349009844864e-18
v 0.051239918999999995 -0.117947685 0.014513323000000007
v 0.084899031 -0.0897043465 0.014513323000000005
v 0.05719511499999999 -0.126452562 7.74298626486411e-18
v 0.0426915545 -0.10573934149999999 6.474667305596194e-18
v 0.051239918999999995 -0.117947685 0.014513323000000007
v -0.054682921999999995 0.10938778299999999 -6.698069915838762e-18
v -0.11626654699999998 0.0027218205 -1.6666343815893243e-19
v -0.0546829575 -0.1039441065 6.364740865772829e-18
v 0.06848425699999999 -0.1039441065 6.364740865772829e-18
v 0.13006784649999997 0.0027218205 -1.6666343815893243e-19
v 0.06848425699999999 0.10938774749999998 -6.698067742090693e-18
vt 0.623202 0.367881
vt 0.623202 0.248383
vt 0.512621 0.308132
vt 0.512621 0.427630
vt 0.623202 0.487379
vt 0.733783 0.427630
vt 0.733783 0.308132
vt 0.878133 0.310907
vt 0.815423 0.341621
vt 0.815423 0.403048
vt 0.878133 0.433762
vt 0.940843 0.403048
vt 0.940843 0.341621
vt 0.878133 0.372334
vt 0.794284 0.279335
vt 0.794284 0.240041
vt 0.713190 0.279335
vt 0.697929 0.260617
vt 0.767636 0.279335
vt 0.767636 0.240041
vt 0.737273 0.279335
vt 0.737075 0.240041
vt 0.767636 0.279335
vt 0.767636 0.240041
vt 0.737075 0.240041
vt 0.737273 0.279335
vt 0.794284 0.279335
vt 0.794284 0.240041
vt 0.697929 0.260617
vt 0.713190 0.279335
vt 0.980653 0.243301
vt 0.984641 0.243301
vt 0.984641 0.243301
vt 0.905844 0.243301
vt 0.903494 0.176645
vt 0.983004 0.176645
vt 0.980653 0.243301
vt 0.984641 0.243301
vt 0.984641 0.243301
vt 0.905844 0.243301
vt 0.903494 0.176645
vt 0.983004 0.176645
vt 0.980653 0.243301
vt 0.984641 0.243301
vt 0.984641 0.243301
vt 0.905844 0.243301
vt 0.903494 0.176645
vt 0.983004 0.176645
vt 0.980653 0.243301
vt 0.984641 0.243301
vt 0.984641 0.243301
vt 0.905844 0.243301
vt 0.903494 0.176645
vt 0.983004 0.176645
vt 0.980653 0.243301
vt 0.984641 0.243301
vt 0.984641 0.243301
vt 0.905844 0.243301
vt 0.903494 0.176645
vt 0.983004 0.176645
vt 0.980653 0.243301
vt 0.984641 0.243301
vt 0.984641 0.243301
vt 0.905844 0.243301
vt 0.903494 0.176645
vt 0.983004 0.176645
vt 0.980653 0.243301
vt 0.984641 0.243301
vt 0.984641 0.243301
vt 0.905844 0.243301
vt 0.903494 0.176645
vt 0.983004 0.176645
vt 0.980653 0.243301
vt 0.984641 0.243301
vt 0.984641 0.243301
vt 0.905844 0.243301
vt 0.903494 0.176645
vt 0.983004 0.176645
vt 0.981308 0.242646
vt 0.985296 0.242646
vt 0.985296 0.242646
vt 0.906499 0.242646
vt 0.904148 0.175990
vt 0.983659 0.175990
vt 0.980653 0.243301
vt 0.984641 0.243301
vt 0.984641 0.243301
vt 0.905844 0.243301
vt 0.903494 0.176645
vt 0.983004 0.176645
vt 0.980653 0.243301
vt 0.984641 0.243301
vt 0.984641 0.243301
vt 0.905844 0.243301
vt 0.903494 0.176645
vt 0.983004 0.176645
vt 0.980653 0.243301
vt 0.984641 0.243301
vt 0.984641 0.243301
vt 0.905844 0.243301
vt 0.903494 0.176645
vt 0.983004 0.176645
vt 0.518035 0.851904
vt 0.537658 0.846608
vt 0.565967 0.844749
vt 0.518224 0.530062
vt 0.544037 0.534057
vt 0.568630 0.532524
vt 0.563406 0.536290
vt 0.560337 0.827940
vt 0.538865 0.828820
vt 0.540460 0.531490
vt 0.517857 0.829536
vt 0.519753 0.534665
vt 0.518821 0.823055
vt 0.561840 0.776678
vt 0.607334 0.823681
vt 0.520381 0.569452
vt 0.563764 0.607640
vt 0.608893 0.570078
vt 0.518035 0.851904
vt 0.537658 0.846608
vt 0.565967 0.844749
vt 0.518224 0.530062
vt 0.544037 0.534057
vt 0.568630 0.532524
vt 0.563406 0.536290
vt 0.560337 0.827940
vt 0.538865 0.828820
vt 0.540460 0.531490
vt 0.517857 0.829536
vt 0.519753 0.534665
vt 0.518821 0.823055
vt 0.561840 0.776678
vt 0.607334 0.823681
vt 0.520381 0.569452
vt 0.563764 0.607640
vt 0.608893 0.570078
vt 0.665822 0.164056
vt 0.633366 0.096905
vt 0.568455 0.096905
vt 0.535999 0.164056
vt 0.568455 0.231207
vt 0.633366 0.231207
vt 0.600910 0.164056
vt 0.759198 0.314083
vt 0.878133 0.255831
vt 0.759198 0.430586
vt 0.878133 0.488838
vt 0.997069 0.430586
vt 0.997069 0.314083
vt 0.678790 0.260641
vt 0.697929 0.240135
vt 0.678790 0.240159
vt 0.713190 0.240041
vt 0.678790 0.260641
vt 0.697929 0.240135
vt 0.678790 0.240159
vt 0.713190 0.240041
vt 0.901856 0.243301
vt 0.950650 0.176645
vt 0.901856 0.243301
vt 0.983004 0.176645
vt 0.903494 0.176645
vt 0.901856 0.243301
vt 0.984641 0.243301
vt 0.935848 0.176645
vt 0.901856 0.243301
vt 0.950650 0.176645
vt 0.901856 0.243301
vt 0.983004 0.176645
vt 0.903494 0.176645
vt 0.901856 0.243301
vt 0.984641 0.243301
vt 0.935848 0.176645
vt 0.901856 0.243301
vt 0.950650 0.176645
vt 0.901856 0.243301
vt 0.983004 0.176645
vt 0.903494 0.176645
vt 0.901856 0.243301
vt 0.984641 0.243301
vt 0.935848 0.176645
vt 0.901856 0.243301
vt 0.950650 0.176645
vt 0.901856 0.243301
vt 0.983004 0.176645
vt 0.903494 0.176645
vt 0.901856 0.243301
vt 0.984641 0.243301
vt 0.935848 0.176645
vt 0.901856 0.243301
vt 0.950650 0.176645
vt 0.901856 0.243301
vt 0.983004 0.176645
vt 0.903494 0.176645
vt 0.901856 0.243301
vt 0.984641 0.243301
vt 0.935848 0.176645
vt 0.901856 0.243301
vt 0.950650 0.176645
vt 0.901856 0.243301
vt 0.983004 0.176645
vt 0.903494 0.176645
vt 0.901856 0.243301
vt 0.984641 0.243301
vt 0.935848 0.176645
vt 0.901856 0.243301
vt 0.950650 0.176645
vt 0.901856 0.243301
vt 0.983004 0.176645
vt 0.903494 0.176645
vt 0.901856 0.243301
vt 0.984641 0.243301
vt 0.935848 0.176645
vt 0.901856 0.243301
vt 0.950650 0.176645
vt 0.901856 0.243301
vt 0.983004 0.176645
vt 0.903494 0.176645
vt 0.901856 0.243301
vt 0.984641 0.243301
vt 0.935848 0.176645
vt 0.902511 0.242646
vt 0.951304 0.175990
vt 0.902511 0.242646
vt 0.983659 0.175990
vt 0.904148 0.175990
vt 0.902511 0.242646
vt 0.985296 0.242646
vt 0.936503 0.175990
vt 0.901856 0.243301
vt 0.950650 0.176645
vt 0.901856 0.243301
vt 0.983004 0.176645
vt 0.903494 0.176645
vt 0.901856 0.243301
vt 0.984641 0.243301
vt 0.935848 0.176645
vt 0.901856 0.243301
vt 0.950650 0.176645
vt 0.901856 0.243301
vt 0.983004 0.176645
vt 0.903494 0.176645
vt 0.901856 0.243301
vt 0.984641 0.243301
vt 0.935848 0.176645
vt 0.901856 0.243301
vt 0.950650 0.176645
vt 0.901856 0.243301
vt 0.983004 0.176645
vt 0.903494 0.176645
vt 0.901856 0.243301
vt 0.984641 0.243301
vt 0.935848 0.176645
vt 0.568455 0.231207
vt 0.535999 0.164056
vt 0.568455 0.096905
vt 0.633366 0.096905
vt 0.665822 0.164056
vt 0.633366 0.231207
vn -0 6.123233995736766E-17 1
vn -0.1588 -0.760118 0.630082
vn -0.737681 -0.24253399999999997 0.630082
vn -0.578882 0.517584 0.630082
vn 0.1588 0.760118 0.630082
vn 0.737681 0.24253400000000003 0.630082
vn 0.578882 -0.517584 0.630082
vn 0.125305 -0.905305 -0.40585799999999994
vn -0.721365 -0.56117 -0.40585799999999994
vn -0.84667 0.344135 -0.405858
vn -0.125305 0.905305 -0.40585800000000005
vn 0.721365 0.56117 -0.40585800000000005
vn 0.84667 -0.344135 -0.405858
vn 0 -6.123233995736766E-17 -1
vn 0 1 -6.123233995736766E-17
vn 0.894427 0.447214 -2.738395968169422E-17
vn 0 -1 6.123233995736766E-17
vn 0.447214 -0.894427 5.4767858131048484E-17
vn 0 0.44759000000000004 0.894239
vn 0.40832 0.816639 0.40789099999999995
vn 0 -0.894615 0.44683800000000007
vn 0.666978 -0.3334889999999999 0.666277
vn 0 -0.44758999999999993 0.894239
vn -0.40832 -0.816639 0.40789100000000006
vn -0.666978 0.33348900000000004 0.666277
vn 0 0.894615 0.44683799999999996
vn 0 -1 6.123233995736766E-17
vn -0.894427 -0.447214 2.738395968169422E-17
vn -0.447214 0.894427 -5.4767858131048484E-17
vn 0 1 -6.123233995736766E-17
vn -0.121385 0.688407 0.715095
vn 0.141412 -0.801987 0.580361
vn 0.965926 0.258819 -1.584809299542594E-17
vn -0.121385 0.688407 0.715095
vn -0.121385 0.688408 0.715095
vn -0.121385 0.688407 0.715095
vn 0.449326 0.535486 0.715095
vn -0.523461 -0.623835 0.580361
vn 0.819152 -0.573577 3.512146185572707E-17
vn 0.449327 0.535486 0.715095
vn 0.449327 0.535486 0.715095
vn 0.449327 0.535486 0.715095
vn 0.535486 0.44932600000000006 0.715095
vn -0.623836 -0.52346 0.580361
vn 0.707107 -0.707107 4.329781621023438E-17
vn 0.535486 0.44932600000000006 0.715095
vn 0.535486 0.44932600000000006 0.715095
vn 0.535486 0.44932600000000006 0.715095
vn 0.696367 -0.06092399999999996 0.715095
vn -0.811261 0.07097700000000004 0.580361
vn -1E-06 -1 6.123233995736766E-17
vn 0.696367 -0.06092399999999996 0.715095
vn 0.696367 -0.06092499999999996 0.715095
vn 0.696367 -0.06092399999999996 0.715095
vn 0.656871 -0.23908199999999993 0.715095
vn -0.765247 0.27852800000000005 0.580361
vn -0.258819 -0.965926 5.914590920566031E-17
vn 0.656871 -0.23908199999999993 0.715095
vn 0.656871 -0.23908199999999993 0.715095
vn 0.656871 -0.23908199999999993 0.715095
vn 0.349513 -0.605376 0.715095
vn -0.407179 0.705256 0.580362
vn -0.819152 -0.573576 3.512140062338711E-17
vn 0.349513 -0.605376 0.715095
vn 0.349514 -0.605376 0.715095
vn 0.349513 -0.605376 0.715095
vn 0.239081 -0.656871 0.715095
vn -0.278527 0.765247 0.580361
vn -0.906308 -0.422618 2.5877889048102807E-17
vn 0.239081 -0.656871 0.715095
vn 0.239081 -0.656871 0.715095
vn 0.239081 -0.656871 0.715095
vn -0.349513 -0.605375 0.715095
vn 0.407179 0.705255 0.580362
vn -0.906308 0.422618 -2.5877889048102807E-17
vn -0.349514 -0.605375 0.715095
vn -0.349514 -0.605376 0.715095
vn -0.349514 -0.605375 0.715095
vn -0.675208 -0.18092199999999994 0.715095
vn 0.78661 0.21077200000000001 0.580362
vn -0.342021 0.939692 -5.753953999921874E-17
vn -0.675208 -0.18092199999999994 0.715095
vn -0.675209 -0.18092199999999994 0.715095
vn -0.675208 -0.18092199999999994 0.715095
vn -0.688407 0.12138500000000005 0.715095
vn 0.801987 -0.14141199999999998 0.580362
vn 0.087156 0.996195 -6.099935090382987E-17
vn -0.688407 0.12138500000000005 0.715095
vn -0.688408 0.12138500000000005 0.715095
vn -0.688407 0.12138500000000005 0.715095
vn -0.633534 0.2954220000000001 0.715095
vn 0.73806 -0.34416299999999994 0.580361
vn 0.34202 0.939693 -1.0000000000575395E-06
vn -0.633534 0.2954220000000001 0.715095
vn -0.633534 0.29542100000000004 0.715095
vn -0.633534 0.2954220000000001 0.715095
vn -0.449326 0.535486 0.715095
vn 0.52346 -0.623835 0.580361
vn 0.707107 0.707107 -4.329781621023438E-17
vn -0.449326 0.535486 0.715095
vn -0.449326 0.535486 0.715095
vn -0.449326 0.535486 0.715095
vn -0.657382 -0.725165 0.20490200000000006
vn -0.924363 0.352381 0.14622399999999997
vn -0.728964 0.678496 0.09085799999999995
vn -0.605763 -0.767405 0.21009500000000006
vn -0.924232 -0.317172 0.21259400000000003
vn -0.67639 0.733818 0.06330399999999996
vn -0.605763 0.767405 0.21009499999999995
vn -0.657382 0.725164 0.20490199999999995
vn -0.924363 -0.35238 0.14622400000000002
vn -0.924232 0.317172 0.21259399999999998
vn -0.728964 -0.678496 0.09085800000000004
vn -0.67639 -0.733818 0.06330400000000004
vn 0.628657 -0.36860399999999993 0.684778
vn -0.296777 -0.34802099999999997 0.889272
vn -0.486417 -0.570407 0.661842
vn 0.486417 0.570407 0.661842
vn 0.296777 0.3480210000000001 0.889272
vn -0.628657 0.36860400000000004 0.684778
vn 0.657382 0.725165 0.20490199999999995
vn 0.924363 -0.35238 0.14622400000000002
vn 0.728964 -0.678496 0.09085800000000004
vn 0.605763 0.767405 0.21009499999999995
vn 0.924232 0.317172 0.21259399999999998
vn 0.67639 -0.733818 0.06330400000000004
vn 0.605763 -0.767405 0.21009500000000006
vn 0.657382 -0.725165 0.20490200000000006
vn 0.924363 0.35238 0.14622399999999997
vn 0.924232 -0.317172 0.21259400000000003
vn 0.728964 0.678495 0.09085799999999995
vn 0.67639 0.733818 0.06330399999999996
vn -0.628657 0.36860400000000004 0.684778
vn 0.296777 0.3480210000000001 0.889272
vn 0.486417 0.570407 0.661842
vn -0.486417 -0.570407 0.661842
vn -0.296777 -0.34802099999999997 0.889272
vn 0.628657 -0.36860399999999993 0.684778
vn 0.311427 5.818725569128776E-17 0.95027
vn 0.155714 -0.26970399999999994 0.95027
vn -0.155714 -0.26970399999999994 0.95027
vn -0.311427 5.818725569128776E-17 0.95027
vn -0.155714 0.26970400000000005 0.95027
vn 0.155714 0.26970400000000005 0.95027
vn 0 6.123233995736766E-17 1
vn -0.737681 -0.24253399999999997 0.630082
vn -0.1588 -0.760118 0.630082
vn -0.578882 0.517584 0.630082
vn 0.1588 0.760118 0.630082
vn 0.737681 0.24253400000000003 0.630082
vn 0.578882 -0.517584 0.630082
vn 0.894427 0.447214 -2.738395968169422E-17
vn 0.666978 -0.3334889999999999 0.666277
vn 0.40832 0.816639 0.40789099999999995
vn 0.447214 -0.894427 5.4767858131048484E-17
vn -0.894427 -0.447214 2.738395968169422E-17
vn -0.666978 0.33348900000000004 0.666277
vn -0.40832 -0.816639 0.40789100000000006
vn -0.447214 0.894427 -5.4767858131048484E-17
vn 0.965926 0.258819 -1.584809299542594E-17
vn 0.965926 0.258819 -1.584809299542594E-17
vn 0.141412 -0.801987 0.580361
vn 0.141412 -0.801987 0.580361
vn 0.141412 -0.801987 0.580361
vn -0.996195 -0.087156 5.336765821324336E-18
vn -0.996195 -0.087156 5.336765821324336E-18
vn -0.996195 -0.087156 5.336765821324336E-18
vn 0.819152 -0.573577 3.512146185572707E-17
vn 0.819152 -0.573577 3.512146185572707E-17
vn -0.523461 -0.623835 0.580361
vn -0.523461 -0.623835 0.580361
vn -0.523461 -0.623835 0.580361
vn -0.707106 0.707107 -4.329781621023438E-17
vn -0.707106 0.707107 -4.329781621023438E-17
vn -0.707106 0.707107 -4.329781621023438E-17
vn 0.707107 -0.707107 4.329781621023438E-17
vn 0.707107 -0.707107 4.329781621023438E-17
vn -0.623836 -0.52346 0.580361
vn -0.623836 -0.52346 0.580361
vn -0.623836 -0.52346 0.580361
vn -0.573576 0.819152 -5.015859374075763E-17
vn -0.573576 0.819152 -5.015859374075763E-17
vn -0.573576 0.819152 -5.015859374075763E-17
vn -1E-06 -1 6.123233995736766E-17
vn -1E-06 -1 6.123233995736766E-17
vn -0.81126 0.07097700000000004 0.580361
vn -0.81126 0.07097700000000004 0.580361
vn -0.81126 0.07097600000000004 0.580361
vn 0.173648 0.984808 -6.030209824873533E-17
vn 0.173648 0.984808 -6.030209824873533E-17
vn 0.173648 0.984808 -6.030209824873533E-17
vn -0.258819 -0.965926 5.914590920566031E-17
vn -0.258819 -0.965926 5.914590920566031E-17
vn -0.765247 0.27852800000000005 0.580361
vn -0.765247 0.27852800000000005 0.580361
vn -0.765247 0.27852800000000005 0.580361
vn 0.422618 0.906308 9.999999999445047E-07
vn 0.422618 0.906308 9.999999999445047E-07
vn 0.422618 0.906308 9.999999999445047E-07
vn -0.819152 -0.573576 3.512140062338711E-17
vn -0.819152 -0.573576 3.512140062338711E-17
vn -0.407179 0.705256 0.580361
vn -0.407179 0.705256 0.580361
vn -0.407179 0.705256 0.580361
vn 0.906308 0.422618 -2.5877889048102807E-17
vn 0.906308 0.422618 -2.5877889048102807E-17
vn 0.906308 0.422618 -2.5877889048102807E-17
vn -0.906308 -0.422618 2.5877889048102807E-17
vn -0.906308 -0.422618 2.5877889048102807E-17
vn -0.278527 0.765248 0.580361
vn -0.278527 0.765248 0.580361
vn -0.278527 0.765248 0.58036
vn 0.965926 0.258819 -1.584809299542594E-17
vn 0.965926 0.258819 -1.584809299542594E-17
vn 0.965926 0.258819 -1.584809299542594E-17
vn -0.906308 0.422618 -2.5877889048102807E-17
vn -0.906308 0.422618 -2.5877889048102807E-17
vn 0.407179 0.705256 0.580361
vn 0.407179 0.705256 0.580361
vn 0.40718 0.705256 0.580361
vn 0.819152 -0.573576 -9.999999999648786E-07
vn 0.819152 -0.573576 -9.999999999648786E-07
vn 0.819152 -0.573576 -9.999999999648786E-07
vn -0.342021 0.939692 -5.753953999921874E-17
vn -0.342021 0.939692 -5.753953999921874E-17
vn 0.78661 0.21077200000000001 0.580362
vn 0.78661 0.21077200000000001 0.580362
vn 0.78661 0.21077200000000001 0.580361
vn 0.173649 -0.984808 6.030209824873533E-17
vn 0.173649 -0.984808 6.030209824873533E-17
vn 0.173649 -0.984808 6.030209824873533E-17
vn 0.087156 0.996195 -6.099935090382987E-17
vn 0.087156 0.996195 -6.099935090382987E-17
vn 0.801987 -0.14141199999999998 0.580361
vn 0.801987 -0.14141199999999998 0.580361
vn 0.801987 -0.14141199999999998 0.580361
vn -0.258819 -0.965926 5.914590920566031E-17
vn -0.258819 -0.965926 5.914590920566031E-17
vn -0.258819 -0.965926 5.914590920566031E-17
vn 0.34202 0.939693 -1.0000000000575395E-06
vn 0.34202 0.939693 -1.0000000000575395E-06
vn 0.73806 -0.34416299999999994 0.580361
vn 0.73806 -0.34416299999999994 0.580361
vn 0.73806 -0.34416299999999994 0.580361
vn -0.5 -0.866025 5.3028737211579333E-17
vn -0.5 -0.866025 5.3028737211579333E-17
vn -0.5 -0.866025 5.3028737211579333E-17
vn 0.707107 0.707107 -4.329781621023438E-17
vn 0.707107 0.707107 -4.329781621023438E-17
vn 0.52346 -0.623835 0.580361
vn 0.52346 -0.623835 0.580361
vn 0.52346 -0.623835 0.580361
vn -0.819152 -0.573577 3.512146185572707E-17
vn -0.819152 -0.573577 3.512146185572707E-17
vn -0.819152 -0.573577 3.512146185572707E-17
vn 0 -6.123233995736766E-17 -1
vn 0 -6.123233995736766E-17 -1
vn 0 -6.123233995736766E-17 -1
vn 0 -6.123233995736766E-17 -1
vn 0 -6.123233995736766E-17 -1
vn 0 -6.123233995736766E-17 -1
g chinese
f 260/260/260 256/256/256 261/261/261
f 260/260/260 258/258/258 256/256/256
f 260/260/260 259/259/259 258/258/258
f 258/258/258 257/257/257 256/256/256
f 145/145/145 139/139/139 144/144/144
f 145/145/145 144/144/144 143/143/143
f 145/145/145 143/143/143 142/142/142
f 145/145/145 142/142/142 141/141/141
f 145/145/145 141/141/141 140/140/140
f 145/145/145 140/140/140 139/139/139
f 138/138/138 137/137/137 136/136/136
f 133/133/133 134/134/134 135/135/135
f 134/134/134 137/137/137 138/138/138
f 138/138/138 135/135/135 134/134/134
f 133/133/133 136/136/136 137/137/137
f 137/137/137 134/134/134 133/133/133
f 129/129/129 131/131/131 132/132/132
f 132/132/132 130/130/130 129/129/129
f 128/128/128 129/129/129 130/130/130
f 130/130/130 127/127/127 128/128/128
f 122/122/122 125/125/125 126/126/126
f 126/126/126 123/123/123 122/122/122
f 121/121/121 124/124/124 125/125/125
f 125/125/125 122/122/122 121/121/121
f 120/120/120 119/119/119 118/118/118
f 115/115/115 116/116/116 117/117/117
f 116/116/116 119/119/119 120/120/120
f 120/120/120 117/117/117 116/116/116
f 115/115/115 118/118/118 119/119/119
f 119/119/119 116/116/116 115/115/115
f 111/111/111 113/113/113 114/114/114
f 114/114/114 112/112/112 111/111/111
f 110/110/110 111/111/111 112/112/112
f 112/112/112 109/109/109 110/110/110
f 104/104/104 107/107/107 108/108/108
f 108/108/108 105/105/105 104/104/104
f 103/103/103 106/106/106 107/107/107
f 107/107/107 104/104/104 103/103/103
f 255/255/255 254/254/254 253/253/253
f 250/250/250 252/252/252 251/251/251
f 251/251/251 98/98/98 250/250/250
f 249/249/249 99/99/99 248/248/248
f 100/100/100 101/101/101 102/102/102
f 102/102/102 97/97/97 100/100/100
f 247/247/247 246/246/246 245/245/245
f 242/242/242 244/244/244 243/243/243
f 243/243/243 92/92/92 242/242/242
f 241/241/241 93/93/93 240/240/240
f 94/94/94 95/95/95 96/96/96
f 96/96/96 91/91/91 94/94/94
f 239/239/239 238/238/238 237/237/237
f 234/234/234 236/236/236 235/235/235
f 235/235/235 86/86/86 234/234/234
f 233/233/233 87/87/87 232/232/232
f 88/88/88 89/89/89 90/90/90
f 90/90/90 85/85/85 88/88/88
f 231/231/231 230/230/230 229/229/229
f 226/226/226 228/228/228 227/227/227
f 227/227/227 80/80/80 226/226/226
f 225/225/225 81/81/81 224/224/224
f 82/82/82 83/83/83 84/84/84
f 84/84/84 79/79/79 82/82/82
f 223/223/223 222/222/222 221/221/221
f 218/218/218 220/220/220 219/219/219
f 219/219/219 74/74/74 218/218/218
f 217/217/217 75/75/75 216/216/216
f 76/76/76 77/77/77 78/78/78
f 78/78/78 73/73/73 76/76/76
f 215/215/215 214/214/214 213/213/213
f 210/210/210 212/212/212 211/211/211
f 211/211/211 68/68/68 210/210/210
f 209/209/209 69/69/69 208/208/208
f 70/70/70 71/71/71 72/72/72
f 72/72/72 67/67/67 70/70/70
f 207/207/207 206/206/206 205/205/205
f 202/202/202 204/204/204 203/203/203
f 203/203/203 62/62/62 202/202/202
f 201/201/201 63/63/63 200/200/200
f 64/64/64 65/65/65 66/66/66
f 66/66/66 61/61/61 64/64/64
f 199/199/199 198/198/198 197/197/197
f 194/194/194 196/196/196 195/195/195
f 195/195/195 56/56/56 194/194/194
f 193/193/193 57/57/57 192/192/192
f 58/58/58 59/59/59 60/60/60
f 60/60/60 55/55/55 58/58/58
f 191/191/191 190/190/190 189/189/189
f 186/186/186 188/188/188 187/187/187
f 187/187/187 50/50/50 186/186/186
f 185/185/185 51/51/51 184/184/184
f 52/52/52 53/53/53 54/54/54
f 54/54/54 49/49/49 52/52/52
f 183/183/183 182/182/182 181/181/181
f 178/178/178 180/180/180 179/179/179
f 179/179/179 44/44/44 178/178/178
f 177/177/177 45/45/45 176/176/176
f 46/46/46 47/47/47 48/48/48
f 48/48/48 43/43/43 46/46/46
f 175/175/175 174/174/174 173/173/173
f 170/170/170 172/172/172 171/171/171
f 171/171/171 38/38/38 170/170/170
f 169/169/169 39/39/39 168/168/168
f 40/40/40 41/41/41 42/42/42
f 42/42/42 37/37/37 40/40/40
f 167/167/167 166/166/166 165/165/165
f 162/162/162 164/164/164 163/163/163
f 163/163/163 32/32/32 162/162/162
f 161/161/161 33/33/33 160/160/160
f 34/34/34 35/35/35 36/36/36
f 36/36/36 31/31/31 34/34/34
f 159/159/159 25/25/25 26/26/26
f 26/26/26 30/30/30 159/159/159
f 156/156/156 158/158/158 157/157/157
f 157/157/157 29/29/29 156/156/156
f 27/27/27 23/23/23 24/24/24
f 24/24/24 28/28/28 27/27/27
f 23/23/23 26/26/26 25/25/25
f 25/25/25 24/24/24 23/23/23
f 155/155/155 22/22/22 21/21/21
f 21/21/21 17/17/17 155/155/155
f 152/152/152 154/154/154 153/153/153
f 153/153/153 18/18/18 152/152/152
f 15/15/15 19/19/19 20/20/20
f 20/20/20 16/16/16 15/15/15
f 19/19/19 21/21/21 22/22/22
f 22/22/22 20/20/20 19/19/19
f 13/13/13 8/8/8 14/14/14
f 12/12/12 13/13/13 14/14/14
f 11/11/11 12/12/12 14/14/14
f 10/10/10 11/11/11 14/14/14
f 9/9/9 10/10/10 14/14/14
f 8/8/8 9/9/9 14/14/14
f 8/8/8 13/13/13 151/151/151
f 151/151/151 147/147/147 8/8/8
f 13/13/13 12/12/12 150/150/150
f 150/150/150 151/151/151 13/13/13
f 12/12/12 11/11/11 149/149/149
f 149/149/149 150/150/150 12/12/12
f 11/11/11 10/10/10 148/148/148
f 148/148/148 149/149/149 11/11/11
f 10/10/10 9/9/9 146/146/146
f 146/146/146 148/148/148 10/10/10
f 9/9/9 8/8/8 147/147/147
f 147/147/147 146/146/146 9/9/9
f 2/2/2 7/7/7 1/1/1
f 7/7/7 6/6/6 1/1/1
f 6/6/6 5/5/5 1/1/1
f 5/5/5 4/4/4 1/1/1
f 4/4/4 3/3/3 1/1/1
f 3/3/3 2/2/2 1/1/1
