v -0.443022 -0.3111269999999997 4.45909
v -0.443022 0.3331230000000003 4.45909
v -0.443022 0.3331230000000003 4.231225
v -0.443022 -0.3111269999999997 4.231225
v -0.443022 0.010998000000000273 4.45909
v -0.443022 0.01099800000000026 4.231225
vt 0.368679 0.666205
vt 0.368679 0.506920
vt 0.317057 0.506920
vt 0.317057 0.666205
vt 0.368679 0.586563
vt 0.317057 0.586563
vn 1 0 0
vn 1 0 0
vn 1 0 0
vn 1 0 0
vn 1 0 0
vn 1 0 0
g 01
f 2/2/2 5/5/5 6/6/6
f 6/6/6 3/3/3 2/2/2
f 1/1/1 4/4/4 6/6/6
f 6/6/6 5/5/5 1/1/1
