v 0.4692429991 -0.335845338 0.004102164600000021
v 0.4692428256 0.3358455115 0.0041021645999999795
v -0.4637009233 0.33584537270000003 1.2277649425000001
v 0.46370064569999997 0.3358455462000001 1.2277646649
v -0.4156715776 -0.3358454074 0.28914798650000006
v 0.4156714388 0.33584554620000007 0.28914798650000006
v 0.4663207039 0.33584554620000007 0.23772275999999998
v -0.42291423100000003 -0.33584547679999993 1.8167265504
v -0.4229141963 -0.33584554619999996 1.3328300536000002
v -0.46370085390000004 0.33584551150000014 1.8885616229000002
v -0.1076166021 -0.3358455461999999 2.1906098549
v -0.4637007151 -0.33584551149999986 1.8885615188
v 0.46370088859999997 -0.33584551149999986 1.8885613800000003
v 0.0992154198 -0.3358455461999999 2.1919184613000002
v 0.0992152116 0.3358455462000002 2.1919184613000002
v -0.1076169144 0.33584551150000014 2.1906098549
v 0.46370064569999997 0.33584558090000016 1.8885613800000003
v 0.46370088859999997 -0.33584551149999986 1.8167409856
v 0.46370064569999997 0.33584558090000016 1.8167409856
v -0.4168308352 0.33584544210000006 1.01919105
v -0.4168307311 -0.33584544209999995 1.0191909806
v 0.4168309393 -0.33584530329999995 1.0191909112000002
v 0.41683066170000005 0.3358455115000001 1.0191909112000002
v -0.4156716817 0.3358455115 0.2891480212
v 0.4156715776 -0.33584530330000006 0.2891479518
v 0.4663209468 -0.335845338 0.23772272530000005
v -0.4692429297 -0.3358454421 0.004102199300000021
v -0.4692430685 0.3358454421 0.004102303399999979
v -0.46632091210000004 0.3358455115 0.23772293349999998
v -0.46632080800000003 -0.335845338 0.23772279470000005
v 0.42291430040000005 -0.33584551149999986 1.8167263075
v -0.46370085390000004 0.3358455462000002 1.8167411244
v -0.4637007151 -0.33584551149999986 1.8167411244
v -0.4229143351 0.3358455462000002 1.8167265504
v -0.4637006804 -0.33584544209999995 1.2225886047
v -0.4637007151 -0.3358454768 1.2953876085
v 0.46370085390000004 -0.33584540739999996 1.2225884659000001
v 0.46370085390000004 -0.33584540739999996 1.2953874697
v 0.46370064569999997 0.3358456503000001 1.2953874697
v 0.4229140922 0.33584558090000016 1.8167263075
v 0.42291405750000005 0.3358457544000001 1.3328299148
v -0.4229143351 0.3358455462000001 1.3328300536000002
v -0.46370085390000004 0.33584544210000006 1.2953876085
v 0.4229141963 -0.33584540739999996 1.3328299148
v 0.4692429991 -0.335845338 0.004102164600000021
v 0.4692428256 0.3358455115 0.0041021645999999795
v -0.46370085390000004 0.3358454074000001 1.2277649425000001
v -0.46370085390000004 0.3358454768000001 1.2277648037000002
v -0.46370085390000004 0.3358454768000001 1.2277648037000002
v 0.46370064569999997 0.33584558090000005 1.2277648037000002
v 0.46370064569999997 0.33584561560000004 1.2277646649
v 0.46370064569999997 0.33584561560000004 1.2277646649
v -0.4156715776 -0.3358454074 0.28914798650000006
v -0.4156715776 -0.3358454074 0.28914798650000006
v -0.4156715776 -0.3358454074 0.28914798650000006
v 0.4156714388 0.33584554620000007 0.28914798650000006
v 0.4156714388 0.33584554620000007 0.28914798650000006
v 0.4156714388 0.33584554620000007 0.28914798650000006
v 0.4663207039 0.33584554620000007 0.23772275999999998
v 0.4663207039 0.33584554620000007 0.23772275999999998
v 0.4663207039 0.33584554620000007 0.23772275999999998
v -0.42291423100000003 -0.33584547679999993 1.8167265504
v -0.42291423100000003 -0.33584547679999993 1.8167265504
v -0.42291423100000003 -0.33584547679999993 1.8167265504
v -0.4229141963 -0.33584554619999996 1.3328300536000002
v -0.4229141963 -0.33584554619999996 1.3328300536000002
v -0.4229141963 -0.33584554619999996 1.3328300536000002
v -0.46370085390000004 0.33584547680000015 1.8885616229000002
v -0.46370085390000004 0.33584551150000014 1.8885616229000002
v -0.46370085390000004 0.33584551150000014 1.8885616229000002
v -0.1076166021 -0.3358455461999999 2.1906098549
v -0.1076166021 -0.3358455461999999 2.1906098549
v -0.4637007151 -0.33584551149999986 1.8885615188
v -0.4637007151 -0.33584551149999986 1.8885615188
v -0.4637007151 -0.33584551149999986 1.8885615188
v 0.46370088859999997 -0.33584551149999986 1.8885613800000003
v 0.46370088859999997 -0.33584551149999986 1.8885613800000003
v 0.46370088859999997 -0.33584551149999986 1.8885613800000003
v 0.0992154198 -0.3358455461999999 2.1919184613000002
v 0.0992154198 -0.3358455461999999 2.1919184613000002
v 0.0992152116 0.33584551150000014 2.1919186001
v 0.0992152116 0.3358455462000002 2.1919184613000002
v -0.1076169144 0.33584551150000014 2.1906098549
v -0.1076169144 0.33584547680000015 2.1906099937
v 0.46370064569999997 0.3358455462000002 1.8885615188
v 0.46370064569999997 0.33584558090000016 1.8885615188
v 0.46370064569999997 0.33584558090000016 1.8885613800000003
v 0.46370088859999997 -0.33584551149999986 1.8167409856
v 0.46370088859999997 -0.33584551149999986 1.8167409856
v 0.46370088859999997 -0.33584551149999986 1.8167409856
v 0.46370064569999997 0.33584558090000016 1.8167409856
v 0.46370064569999997 0.33584558090000016 1.8167411244
v 0.46370064569999997 0.33584558090000016 1.8167409856
v -0.4168308352 0.33584537270000003 1.0191909806
v -0.4168308352 0.33584544210000006 1.01919105
v -0.4168308352 0.33584544210000006 1.01919105
v -0.4168307311 -0.33584544209999995 1.0191909806
v -0.4168307311 -0.33584544209999995 1.0191909806
v -0.4168307311 -0.33584544209999995 1.0191909806
v 0.4168309393 -0.33584530329999995 1.0191909112000002
v 0.4168309393 -0.33584530329999995 1.0191909112000002
v 0.4168309393 -0.33584530329999995 1.0191909112000002
v 0.41683066170000005 0.3358455115000001 1.0191909112000002
v 0.4168305229 0.3358454074000001 1.0191909112000002
v 0.41683066170000005 0.3358455115000001 1.0191909112000002
v -0.4156716817 0.3358455115 0.2891480212
v -0.4156716817 0.3358455115 0.2891480212
v -0.4156716817 0.3358455115 0.2891480212
v 0.4156715776 -0.33584530330000006 0.2891479518
v 0.4156715776 -0.33584530330000006 0.2891479518
v 0.4156715776 -0.33584530330000006 0.2891479518
v 0.4663209468 -0.335845338 0.23772272530000005
v 0.4663209468 -0.335845338 0.23772272530000005
v 0.4663209468 -0.335845338 0.23772272530000005
v -0.4692429297 -0.3358454421 0.004102199300000021
v -0.4692430685 0.3358454421 0.004102303399999979
v -0.46632091210000004 0.3358455115 0.23772293349999998
v -0.46632091210000004 0.3358455115 0.23772293349999998
v -0.46632091210000004 0.3358455115 0.23772293349999998
v -0.46632080800000003 -0.335845338 0.23772279470000005
v -0.46632080800000003 -0.335845338 0.23772279470000005
v -0.46632080800000003 -0.335845338 0.23772279470000005
v 0.42291430040000005 -0.33584551149999986 1.8167263075
v 0.42291430040000005 -0.33584551149999986 1.8167263075
v 0.42291430040000005 -0.33584551149999986 1.8167263075
v -0.46370081920000006 0.3358455462000002 1.8167412632000002
v -0.46370085390000004 0.3358455462000002 1.8167411244
v -0.46370085390000004 0.3358455462000002 1.8167411244
v -0.4637007151 -0.33584551149999986 1.8167411244
v -0.4637007151 -0.33584551149999986 1.8167411244
v -0.4637007151 -0.33584551149999986 1.8167411244
v -0.4229143351 0.3358455462000002 1.8167265504
v -0.4229143351 0.3358455462000002 1.8167265504
v -0.4229143351 0.3358455462000002 1.8167266892
v -0.4637006804 -0.33584544209999995 1.2225886047
v -0.4637006804 -0.33584544209999995 1.2225886047
v -0.4637006804 -0.33584544209999995 1.2225886047
v -0.4637007151 -0.3358454768 1.2953876085
v -0.4637007151 -0.3358454768 1.2953876085
v -0.4637007151 -0.3358454768 1.2953876085
v 0.46370085390000004 -0.33584540739999996 1.2225884659000001
v 0.46370085390000004 -0.33584540739999996 1.2225884659000001
v 0.46370085390000004 -0.33584540739999996 1.2225884659000001
v 0.46370085390000004 -0.33584540739999996 1.2953874697
v 0.46370085390000004 -0.33584540739999996 1.2953874697
v 0.46370085390000004 -0.33584540739999996 1.2953874697
v 0.46370064569999997 0.3358456503000001 1.2953874697
v 0.46370064569999997 0.33584561560000004 1.2953874697
v 0.46370064569999997 0.3358456503000001 1.2953874697
v 0.4229140922 0.33584558090000016 1.8167263075
v 0.4229140922 0.33584558090000016 1.8167264116
v 0.4229140922 0.33584558090000016 1.8167263075
v 0.42291405750000005 0.3358457544000001 1.3328299148
v 0.42291405750000005 0.3358457544000001 1.3328299148
v 0.42291405750000005 0.3358457544000001 1.3328299148
v -0.4229143351 0.3358455462000001 1.3328301577000001
v -0.4229143351 0.3358455462000001 1.3328300536000002
v -0.4229143351 0.3358455462000001 1.3328300536000002
v -0.46370085390000004 0.3358454074000001 1.2953876085
v -0.46370085390000004 0.33584544210000006 1.2953876085
v -0.46370085390000004 0.33584544210000006 1.2953876085
v 0.4229141963 -0.33584540739999996 1.3328299148
v 0.4229141963 -0.33584540739999996 1.3328299148
v 0.4229141963 -0.33584540739999996 1.3328299148
v -0.0062997156 0.3358455462000002 2.1913362994
v -0.006273343600000001 -0.3358455461999999 2.1913712423000002
v -0.006273343600000001 -0.3358455461999999 2.1913712423000002
v -0.0062997156 0.3358455462000002 2.1913362994
vt 0.000500 0.999500
vt 0.999500 0.999500
vt 0.006399 0.440751
vt 0.993601 0.440752
vt 0.942475 0.869343
vt 0.942475 0.869343
vt 0.996390 0.892825
vt 1.515126 1.028700
vt 0.950185 0.392777
vt 1.000000 0.267930
vt 0.614556 0.001097
vt 0.993601 0.139018
vt 0.999500 0.269016
vt 0.997048 0.044650
vt 0.002953 0.044650
vt 1.000000 0.043859
vt 0.000500 0.269016
vt 0.999500 0.294453
vt 0.002953 0.296905
vt 1.000000 0.628370
vt 0.000000 0.628370
vt 0.999500 0.626744
vt 0.000500 0.626743
vt 1.000000 0.861105
vt 0.999500 0.866890
vt 0.999500 0.900183
vt 0.000000 0.991339
vt 1.000000 0.991340
vt 1.000000 0.903627
vt 0.000000 0.903627
vt 0.999500 0.323893
vt 1.000000 0.301013
vt 0.000000 0.301013
vt 1.000000 0.333082
vt 0.000000 0.551962
vt 0.000000 0.511103
vt 0.999500 0.553491
vt 0.999500 0.503080
vt 0.000500 0.503079
vt 0.000500 0.323892
vt 0.000500 0.463907
vt 1.000000 0.483047
vt 1.000000 0.511103
vt 0.999500 0.463908
vt 0.999500 0.999500
vt 0.000500 0.999500
vt 0.006399 0.440751
vt 1.000000 0.549755
vt 1.000000 0.549755
vt 0.993601 0.440752
vt 0.000500 0.551127
vt 0.000500 0.551127
vt 0.942475 0.869343
vt 0.000000 0.861105
vt 0.000000 0.861105
vt 0.942475 0.869343
vt 0.000500 0.866890
vt 0.000500 0.866890
vt 0.996390 0.892825
vt 0.000500 0.900183
vt 0.000500 0.900183
vt 0.950185 0.171820
vt 0.000000 0.333082
vt 0.000000 0.333082
vt 0.950185 0.392777
vt 0.000000 0.483046
vt 0.000000 0.483046
vt 0.006399 0.139018
vt 0.006399 0.139018
vt 1.000000 0.267930
vt 0.000000 0.043859
vt 0.000000 0.043859
vt 0.993601 0.139018
vt 0.000000 0.267929
vt 0.000000 0.267929
vt 0.006399 0.139019
vt 0.006399 0.139019
vt 0.999500 0.269016
vt 0.994595 0.046134
vt 0.394387 0.000500
vt 0.605613 0.000500
vt 0.002953 0.043681
vt 1.000000 0.043859
vt 0.385444 0.001097
vt 0.993601 0.139019
vt 0.993601 0.139019
vt 0.000500 0.269016
vt 0.006399 0.171813
vt 1.520761 0.028700
vt 1.000359 0.294088
vt 0.001359 0.296652
vt 0.993601 0.171813
vt 1.610933 0.028700
vt 0.056291 0.535991
vt 0.056291 0.535991
vt 1.000000 0.628370
vt 0.943709 0.535990
vt 0.943709 0.535990
vt 0.000000 0.628370
vt 0.056292 0.535991
vt 0.056292 0.535991
vt 0.999500 0.626744
vt 0.000500 0.626743
vt 0.943709 0.535991
vt 0.943709 0.535991
vt 1.000000 0.861105
vt 0.057525 0.869343
vt 0.057525 0.869343
vt 0.999500 0.866890
vt 0.057526 0.869343
vt 0.057526 0.869343
vt 0.999500 0.900183
vt 0.003610 0.892825
vt 0.003610 0.892825
vt 0.999501 0.999500
vt 0.000500 0.999500
vt 0.003610 0.892825
vt 0.003610 0.892825
vt 1.000000 0.903627
vt 0.000000 0.903627
vt 0.996390 0.892825
vt 0.996390 0.892825
vt 1.515126 0.028700
vt 0.049816 0.171820
vt 0.999500 0.323893
vt 0.006399 0.171813
vt 1.610933 1.028700
vt 1.000000 0.301013
vt 0.000000 0.301013
vt 0.993601 0.171813
vt 1.520761 1.028700
vt 1.000000 0.333082
vt 1.616569 1.028700
vt 0.049816 0.171820
vt 0.000000 0.551962
vt 0.993601 0.443115
vt 0.993601 0.443115
vt 0.000000 0.511103
vt 0.993601 0.409874
vt 0.993601 0.409874
vt 0.006399 0.443115
vt 0.006399 0.443115
vt 0.999500 0.553491
vt 0.999500 0.503080
vt 0.006399 0.409874
vt 0.006399 0.409874
vt 0.000500 0.503079
vt 0.993601 0.409874
vt 0.993601 0.409874
vt 1.616569 0.028700
vt 0.950184 0.171820
vt 0.000500 0.323892
vt 0.000500 0.463907
vt 0.950184 0.392777
vt 0.950184 0.392777
vt 0.049816 0.392777
vt 0.049816 0.392777
vt 1.000000 0.483047
vt 0.006399 0.409874
vt 0.006399 0.409874
vt 1.000000 0.511103
vt 0.049816 0.392777
vt 0.049816 0.392777
vt 0.999500 0.463908
vt 1.000000 0.015943
vt 0.000000 0.015943
vt 0.999501 0.015413
vt 0.000500 0.015397
vn 0 -1 6.123233995736766E-17
vn -0 1 -6.123233995736766E-17
vn -0 1 -6.123233995736766E-17
vn -0 1 -6.123233995736766E-17
vn 0 -1 6.123233995736766E-17
vn -0 1 -6.123233995736766E-17
vn -0 1 -6.123233995736766E-17
vn -0 -1 -0.00024799999999993875
vn 0 -1 6.123233995736766E-17
vn -0.646873 4.66955987544687E-17 0.762597
vn 0 -1 6.123233995736766E-17
vn -0 -1 6.123233995736766E-17
vn 0.63971 4.70641562086721E-17 0.768616
vn 0.63971 4.70641562086721E-17 0.768616
vn 0.63971 4.70641562086721E-17 0.768616
vn -0.00717 6.123074791652878E-17 0.999974
vn 1 0 -0
vn 1 0 -0
vn 1 0 -0
vn -0.975669 -1.3425129303312902E-17 -0.219249
vn -0.975069 0.0008649999999999864 -0.221901
vn 0.974463 -1.3749721937426908E-17 -0.22455
vn 0.975069 0.0008449999999999865 -0.2219
vn -0.712461 4.2967467736164375E-17 0.701712
vn 0.712461 4.2967467736164375E-17 0.701712
vn 0.712461 4.2967467736164375E-17 0.701712
vn -0.999922 7.658328758467973E-19 0.012507
vn -0.999922 7.658328758467973E-19 0.012507
vn -0.999922 7.658328758467973E-19 0.012507
vn -0.999922 7.658328758467973E-19 0.012507
vn 0.00036 -6.123233995736766E-17 -1
vn -0.000359 -6.123233995736766E-17 -1
vn -0.000359 -6.123233995736766E-17 -1
vn -0.000359 -6.123233995736766E-17 -1
vn -1 -0 0
vn -1 -0 0
vn 1 0 -0
vn 1 0 -0
vn 1 0 -0
vn 1 0 -0
vn 1 0 -0
vn -1 -0 0
vn -0.676263 4.510747678533442E-17 0.736661
vn 0.676262 4.510747678533442E-17 0.736661
vn 0.999922 7.658328758467973E-19 0.012507
vn 0.999922 7.658328758467973E-19 0.012507
vn -0 1 -6.123233995736766E-17
vn -1 0 0
vn -0.975069 0.0008649999999999864 -0.221901
vn -0 1 -1.0000000000612324E-06
vn 0.975668 0.0016899999999999867 -0.219248
vn 1 0 -0
vn 0 -1 6.123233995736766E-17
vn -0.999999 -9.723695585229984E-20 -0.001588
vn -0.712462 4.296740650382442E-17 0.701711
vn -0 1 -6.123233995736766E-17
vn 0.712462 4.296740650382442E-17 0.701711
vn 0.999999 -9.723695585229984E-20 -0.001588
vn -0 1 -6.123233995736766E-17
vn 0.712461 4.2967467736164375E-17 0.701712
vn 0.999922 7.658328758467973E-19 0.012507
vn 0 -1 6.123233995736766E-17
vn -1 -0 0
vn -0.000359 -6.123233995736766E-17 -1
vn 0 -1 -9.999999999387675E-07
vn -0.676263 4.510747678533442E-17 0.736661
vn -1 -0 0
vn -0 1 -6.123233995736766E-17
vn -0 1 9.999999999387675E-07
vn -1 0 0
vn -0.646873 4.66955987544687E-17 0.762597
vn -0.007341 2.600000000006123E-05 0.999973
vn -0 -1 6.123233995736766E-17
vn -0.646873 4.669565998680866E-17 0.762598
vn -1 0 0
vn 0 -1 6.123233995736766E-17
vn -0 -1 6.123233995736766E-17
vn 1 0 -0
vn -0.005187 6.123154393694822E-17 0.999987
vn 0 -1 6.123233995736766E-17
vn -0 1 -6.123233995736766E-17
vn -0.005352 2.600000000006123E-05 0.999986
vn -0.646873 4.66955987544687E-17 0.762597
vn -0 1 -6.123233995736766E-17
vn -0 1 -6.123233995736766E-17
vn -0 1 -6.123233995736766E-17
vn 0.63971 4.70641562086721E-17 0.768616
vn -0 -1 6.123233995736766E-17
vn -0 -1 0.00022500000000006122
vn 0.00036 -6.123233995736766E-17 -1
vn 0.00036 -6.123233995736766E-17 -1
vn -0 1 -6.123233995736766E-17
vn -0 1 -5.000000000061232E-06
vn -0 1 -6.123233995736766E-17
vn -0 1 -6.123233995736766E-17
vn -0.999999 -9.723695585229984E-20 -0.001588
vn 0 -1 6.123233995736766E-17
vn 0 -1 6.123233995736766E-17
vn -0.999999 -9.723695585229984E-20 -0.001588
vn 0 -1 6.123233995736766E-17
vn 0 -1 6.123233995736766E-17
vn 0.999999 -9.723695585229984E-20 -0.001588
vn 0.999999 -9.723695585229984E-20 -0.001588
vn -0 1 -6.123233995736766E-17
vn -0 1 -6.123233995736766E-17
vn -0.999999 -9.723695585229984E-20 -0.001588
vn -0 1 -6.123233995736766E-17
vn -0 1 -6.123233995736766E-17
vn 0.999999 -9.723695585229984E-20 -0.001588
vn 0 -1 6.123233995736766E-17
vn 0 -1 1.0000000000612324E-06
vn 0.999922 7.658328758467973E-19 0.012507
vn 0 -1 6.123233995736766E-17
vn -0 -1 6.123233995736766E-17
vn 0 -1 6.123233995736766E-17
vn -0 1 -6.123233995736766E-17
vn -0 1 -6.123233995736766E-17
vn -0 1 -6.123233995736766E-17
vn -0.712461 4.2967467736164375E-17 0.701712
vn -0.712461 4.2967467736164375E-17 0.701712
vn -0 -1 -9.999999999387675E-07
vn 0 -1 6.123233995736766E-17
vn -0 -1 -1.1999999999938768E-05
vn -0 -1 6.123233995736766E-17
vn 1 0 -0
vn -0 1 -6.123233995736766E-17
vn -0 1 0.00011299999999993877
vn -1 0 0
vn -1 0 0
vn -0 -1 6.123233995736766E-17
vn -0 -1 -1.1999999999938768E-05
vn -1 -0 0
vn -0 1 -5.000000000061232E-06
vn -0 1 -6.123233995736766E-17
vn -0.974461 0.0017299999999999863 -0.22455
vn 0 -1 6.123233995736766E-17
vn 0 -1 -9.999999999387675E-07
vn -0.676263 4.510747678533442E-17 0.736661
vn 0 -1 6.123233995736766E-17
vn 0 -1 -1.9999999999387675E-06
vn 0 -1 6.123233995736766E-17
vn 0 -1 6.123233995736766E-17
vn 0.975069 0.0008449999999999865 -0.2219
vn 0.676261 4.510753801767438E-17 0.736662
vn 0 -1 6.123233995736766E-17
vn 0 -1 -9.999999999387675E-07
vn 0.676262 4.510747678533442E-17 0.736661
vn -0 1 -6.123233995736766E-17
vn -0 1 -3.0000000000612325E-06
vn -0 1 -0.00012300000000006124
vn -0 1 -6.123233995736766E-17
vn 0.00036 -6.123233995736766E-17 -1
vn 0.676262 4.510747678533442E-17 0.736661
vn -0 1 -6.123233995736766E-17
vn -0 1 -2.0000000000612323E-06
vn -0 1 -6.123233995736766E-17
vn -0 1 -2.0000000000612323E-06
vn -0.676263 4.510747678533442E-17 0.736661
vn -0 1 -6.123233995736766E-17
vn -0 1 -2.0000000000612323E-06
vn -1 -0 0
vn 0 -1 6.123233995736766E-17
vn 0 -1 6.123233995736766E-17
vn 1 0 -0
vn -0.006733 3.400000000006123E-05 0.999977
vn -0.006072 3.400000000006123E-05 0.999982
vn -0.006072 3.400000000006123E-05 0.999982
vn -0.006733 3.400000000006123E-05 0.999977
g Default Standard [Object11]
f 167/167/167 79/79/79 82/82/82
f 82/82/82 168/168/168 167/167/167
f 147/147/147 153/153/153 44/44/44
f 44/44/44 144/144/144 147/147/147
f 146/146/146 163/163/163 65/65/65
f 65/65/65 140/140/140 146/146/146
f 138/138/138 66/66/66 158/158/158
f 158/158/158 43/43/43 138/138/138
f 160/160/160 157/157/157 155/155/155
f 155/155/155 149/149/149 160/160/160
f 67/67/67 63/63/63 132/132/132
f 132/132/132 42/42/42 67/67/67
f 156/156/156 134/134/134 151/151/151
f 151/151/151 154/154/154 156/156/156
f 41/41/41 40/40/40 125/125/125
f 125/125/125 164/164/164 41/41/41
f 162/162/162 124/124/124 62/62/62
f 62/62/62 9/9/9 162/162/162
f 52/52/52 39/39/39 38/38/38
f 38/38/38 37/37/37 52/52/52
f 142/142/142 145/145/145 139/139/139
f 139/139/139 137/137/137 142/142/142
f 35/35/35 36/36/36 161/161/161
f 161/161/161 48/48/48 35/35/35
f 47/47/47 159/159/159 148/148/148
f 148/148/148 50/50/50 47/47/47
f 64/64/64 33/33/33 32/32/32
f 32/32/32 34/34/34 64/64/64
f 133/133/133 127/127/127 93/93/93
f 93/93/93 150/150/150 133/133/133
f 152/152/152 91/91/91 90/90/90
f 90/90/90 31/31/31 152/152/152
f 123/123/123 89/89/89 131/131/131
f 131/131/131 8/8/8 123/123/123
f 46/46/46 61/61/61 112/112/112
f 112/112/112 45/45/45 46/46/46
f 1/1/1 114/114/114 122/122/122
f 122/122/122 115/115/115 1/1/1
f 116/116/116 118/118/118 59/59/59
f 59/59/59 2/2/2 116/116/116
f 27/27/27 30/30/30 29/29/29
f 29/29/29 28/28/28 27/27/27
f 60/60/60 57/57/57 25/25/25
f 25/25/25 26/26/26 60/60/60
f 113/113/113 111/111/111 53/53/53
f 53/53/53 121/121/121 113/113/113
f 117/117/117 108/108/108 56/56/56
f 56/56/56 7/7/7 117/117/117
f 120/120/120 55/55/55 24/24/24
f 24/24/24 119/119/119 120/120/120
f 58/58/58 103/103/103 102/102/102
f 102/102/102 109/109/109 58/58/58
f 110/110/110 101/101/101 98/98/98
f 98/98/98 5/5/5 110/110/110
f 107/107/107 95/95/95 105/105/105
f 105/105/105 6/6/6 107/107/107
f 54/54/54 99/99/99 96/96/96
f 96/96/96 106/106/106 54/54/54
f 23/23/23 51/51/51 143/143/143
f 143/143/143 22/22/22 23/23/23
f 100/100/100 141/141/141 136/136/136
f 136/136/136 97/97/97 100/100/100
f 94/94/94 3/3/3 4/4/4
f 4/4/4 104/104/104 94/94/94
f 21/21/21 135/135/135 49/49/49
f 49/49/49 20/20/20 21/21/21
f 19/19/19 17/17/17 78/78/78
f 78/78/78 18/18/18 19/19/19
f 88/88/88 77/77/77 73/73/73
f 73/73/73 130/130/130 88/88/88
f 126/126/126 69/69/69 86/86/86
f 86/86/86 92/92/92 126/126/126
f 129/129/129 75/75/75 70/70/70
f 70/70/70 128/128/128 129/129/129
f 165/165/165 16/16/16 72/72/72
f 72/72/72 166/166/166 165/165/165
f 14/14/14 13/13/13 87/87/87
f 87/87/87 15/15/15 14/14/14
f 11/11/11 12/12/12 76/76/76
f 76/76/76 80/80/80 11/11/11
f 10/10/10 74/74/74 71/71/71
f 71/71/71 83/83/83 10/10/10
f 84/84/84 81/81/81 85/85/85
f 85/85/85 68/68/68 84/84/84
