v -0.309298 -2.571021 1.4975160000000003
v -0.863442 -2.570269 1.4975160000000003
v -0.309298 -2.593002 0.9755090000000001
v -0.863442 -2.59225 0.9755090000000001
v -0.58637 -2.5937 0.8005620000000001
v 0.944176 2.402187 0.6239849999999999
v 0.927809 2.35284 1.3538529999999998
v 1.091625 2.274441 1.3538529999999998
v 1.115146 2.320222 0.6239849999999999
v 1.033319 2.36993 0.4901039999999998
v -0.255603 -0.46978799999999993 0.580207
v -0.663888 -0.526561 0.665385
v -0.733509 -0.706886 0.686943
v -0.323595 -0.723722 0.670399
v 0.209776 -0.39270999999999995 0.624521
v -0.776386 -0.909298 0.7691360000000002
v 0.116056 -0.699026 0.765032
v -0.370731 -0.994956 0.7396590000000001
v 0.055225 -1.035427 0.9341840000000001
v -0.873915 0.26152100000000006 0.580207
v -0.895063 0.635957 0.665385
v -1.157958 0.678748 0.686943
v -1.179849 0.29758300000000004 0.635509
v -0.827926 -0.12658099999999997 0.662991
v -1.397741 0.698859 0.672723
v -1.197049 -0.07761499999999996 0.656206
v -1.406627 0.3300040000000001 0.643247
v -1.450328 -0.028841999999999958 0.676745
v -2.813149 0.40645100000000006 0.554741
v -3.025771 0.05159000000000003 0.533183
v -2.649471 -0.06811999999999997 0.490661
v -2.501174 0.28858100000000003 0.503307
v -2.605093 0.643004 0.636934
v -2.273172 -0.18783099999999997 0.530789
v -2.414953 0.529466 0.562349
v -2.237018 0.13740400000000003 0.572856
v -2.219228 0.48080600000000007 0.640955
v 2.58269 -1.14918 0.5802070000000001
v 2.840986 -0.855546 0.665385
v 2.582323 -0.644242 0.686943
v 2.347454 -0.923452 0.6355090000000001
v 2.329215 -1.505474 0.6629910000000001
v 2.385961 -0.500934 0.769136
v 2.062642 -1.234865 0.6562060000000001
v 2.169334 -0.753242 0.739659
v 1.941785 -0.978568 0.7731570000000001
v 2.21872 2.018646 0.5874629999999998
v 1.993645 2.324333 0.6299849999999999
v 1.815712 2.058868 0.5901149999999998
v 2.015373 1.782841 0.5586029999999998
v 2.41374 1.813547 0.6275899999999999
v 1.638136 1.826615 0.6679569999999999
v 2.188556 1.581398 0.6281519999999999
v 1.869476 1.606947 0.6463899999999999
v 2.033071 1.416576 0.6962509999999998
v -2.649472 -0.06811999999999997 0.490661
v -3.025771 0.05159100000000003 0.533183
v -2.81315 0.40645100000000006 0.554741
v -2.501174 0.28858100000000003 0.503307
v -2.273172 -0.18783099999999997 0.530789
v -2.605093 0.643004 0.636934
v -2.237018 0.13740500000000003 0.572856
v -2.414954 0.529466 0.562349
v -2.219228 0.48080700000000004 0.640955
v -2.674564 -0.46449299999999993 0.587463
v -2.746042 -0.694562 0.629985
v -2.484604 -0.658107 0.651543
v -2.430192 -0.43140599999999996 0.600109
v -2.603086 -0.23442399999999997 0.62759
v -2.258541 -0.617879 0.733735
v -2.407155 -0.21858099999999997 0.669658
v -2.259737 -0.41558699999999993 0.659151
v -2.216357 -0.23262499999999994 0.737757
v -2.049776 2.250829 0.7553099999999999
v -2.334293 1.973482 0.7978319999999999
v -2.141117 1.746644 0.8193899999999998
v -1.726865 2.033583 0.7679559999999999
v -1.769166 2.517479 0.7954369999999998
v -1.848344 1.630329 0.9015819999999999
v -1.486927 2.320152 0.8375039999999999
v -1.546056 1.904376 0.8269969999999999
v -1.26156 2.117075 0.9056029999999999
vt 0.896900 0.843750
vt 0.930905 0.843726
vt 0.896911 0.905449
vt 0.930915 0.905425
vt 0.913914 0.926586
vt 0.943170 0.190373
vt 0.943573 0.101880
vt 0.954718 0.101881
vt 0.954805 0.190372
vt 0.948959 0.206605
vt 0.966356 0.409045
vt 0.991244 0.402909
vt 0.987942 0.455027
vt 0.964216 0.455570
vt 0.941508 0.415688
vt 0.981811 0.498269
vt 0.940120 0.459176
vt 0.962389 0.491491
vt 0.939160 0.503894
vt 0.966356 0.409045
vt 0.991244 0.402909
vt 0.987942 0.455027
vt 0.964216 0.455570
vt 0.941508 0.415688
vt 0.981811 0.498269
vt 0.940120 0.459176
vt 0.962389 0.491491
vt 0.939160 0.503894
vt 0.987942 0.455027
vt 0.991244 0.402909
vt 0.966356 0.409045
vt 0.964216 0.455570
vt 0.981811 0.498269
vt 0.941508 0.415688
vt 0.962389 0.491491
vt 0.940120 0.459176
vt 0.939160 0.503894
vt 0.966356 0.409045
vt 0.991244 0.402909
vt 0.987942 0.455027
vt 0.964216 0.455570
vt 0.941508 0.415688
vt 0.981811 0.498269
vt 0.940120 0.459176
vt 0.962389 0.491491
vt 0.939160 0.503894
vt 0.966356 0.409045
vt 0.991244 0.402909
vt 0.987942 0.455027
vt 0.964216 0.455570
vt 0.941508 0.415688
vt 0.981811 0.498269
vt 0.940120 0.459176
vt 0.962389 0.491491
vt 0.939160 0.503894
vt 0.966356 0.409045
vt 0.991244 0.402909
vt 0.987942 0.455027
vt 0.964216 0.455570
vt 0.941508 0.415688
vt 0.981811 0.498269
vt 0.940120 0.459176
vt 0.962389 0.491491
vt 0.939160 0.503894
vt 0.966356 0.409045
vt 0.991244 0.402909
vt 0.987942 0.455027
vt 0.964216 0.455570
vt 0.941508 0.415688
vt 0.981811 0.498269
vt 0.940120 0.459176
vt 0.962389 0.491491
vt 0.939160 0.503894
vt 0.966356 0.409045
vt 0.991244 0.402909
vt 0.987942 0.455027
vt 0.964216 0.455570
vt 0.941508 0.415688
vt 0.981811 0.498269
vt 0.940120 0.459176
vt 0.962389 0.491491
vt 0.939160 0.503894
vn -0.001356 -0.999114 0.04207200000000006
vn -0.001356 -0.999114 0.04207200000000006
vn -0.001356 -0.999546 0.030098000000000062
vn -0.001357 -0.999709 0.024108000000000063
vn -0.001357 -0.99998 0.006137000000000062
vn 0.431022 0.899591 0.07040399999999994
vn 0.430614 0.899779 0.07049099999999994
vn 0.430921 0.899639 0.07040399999999994
vn 0.431227 0.899496 0.07035999999999995
vn 0.431225 0.899493 0.07040299999999994
vn 0.034717 0.24799900000000005 0.968138
vn 0.198681 0.04036000000000006 0.979233
vn 0.102205 0.24606000000000006 0.963851
vn -0.059863 0.34056900000000007 0.938312
vn -0.180137 0.4139360000000001 0.892305
vn 0.085567 0.29719400000000007 0.950975
vn -0.25419 0.40536400000000006 0.878105
vn -0.146473 0.33338500000000004 0.931343
vn -0.329017 0.47103800000000007 0.818457
vn 0.137372 -0.04540499999999994 0.989478
vn 0.044243 -0.21922499999999995 0.974671
vn 0.045138 -0.16409899999999994 0.985411
vn 0.057875 -0.002538999999999939 0.998321
vn 0.094952 0.14261300000000005 0.985214
vn -0.023524 -0.10497399999999994 0.994197
vn 0.042273 0.06327100000000005 0.997101
vn 0.053561 0.018008000000000062 0.998402
vn 0.096032 0.08091500000000006 0.992084
vn 0.077605 -0.18226099999999995 0.980183
vn 0.077985 -0.10694299999999994 0.991202
vn 0.034783 -0.06303199999999995 0.997405
vn -0.064712 -0.15975799999999996 0.985033
vn 0.107019 -0.3231319999999999 0.940283
vn -0.203623 -0.041023999999999936 0.97819
vn -0.182703 -0.19858099999999995 0.962905
vn -0.339898 -0.12196699999999995 0.93252
vn -0.401586 -0.15808299999999995 0.902075
vn 0.070185 -0.12736299999999995 0.98937
vn -0.087125 -0.20608999999999994 0.974647
vn 0.036653 -0.24290499999999995 0.969357
vn 0.176147 -0.16573999999999994 0.970311
vn 0.143181 0.042201000000000065 0.988797
vn 0.201996 -0.31201299999999993 0.928356
vn 0.240911 -0.14327399999999996 0.959914
vn 0.308777 -0.26041999999999993 0.914789
vn 0.367277 -0.23719899999999994 0.899358
vn -0.062253 -0.07782299999999995 0.995022
vn -0.007801 -0.14340499999999995 0.989633
vn 0.09304 -0.054588999999999936 0.994165
vn 0.052891 0.13719300000000006 0.989131
vn -0.177463 0.10356900000000005 0.978662
vn 0.291894 0.15966900000000006 0.943029
vn -0.00618 0.29769200000000007 0.954642
vn 0.153809 0.3103040000000001 0.938112
vn 0.079331 0.31581200000000004 0.9455
vn -0.034783 0.06303199999999995 -0.997405
vn -0.077985 0.10694299999999994 -0.991202
vn -0.077605 0.18226099999999995 -0.980183
vn 0.064712 0.15975799999999996 -0.985033
vn 0.203623 0.041023999999999936 -0.97819
vn -0.107019 0.3231319999999999 -0.940283
vn 0.339898 0.12196699999999995 -0.93252
vn 0.182703 0.19858099999999995 -0.962905
vn 0.401586 0.15808299999999995 -0.902075
vn -0.075076 0.09834000000000005 0.992317
vn -0.109823 0.21353600000000006 0.970743
vn -0.190028 0.24988800000000005 0.949445
vn -0.225513 0.023297000000000057 0.973962
vn -0.104355 -0.22669099999999995 0.96836
vn -0.354358 0.30681200000000003 0.883344
vn -0.2713 -0.28683699999999995 0.918761
vn -0.337509 -0.08569599999999994 0.937413
vn -0.340094 -0.30198699999999995 0.890584
vn -0.003344 0.058832000000000065 0.998262
vn 0.030801 0.12052900000000005 0.992232
vn -0.017515 0.19668200000000005 0.980311
vn -0.124123 0.11554700000000005 0.985516
vn -0.139406 -0.06828999999999995 0.987878
vn -0.096694 0.33920200000000006 0.935731
vn -0.257763 -0.013125999999999942 0.966119
vn -0.218523 0.12405500000000005 0.967914
vn -0.276746 0.01507600000000006 0.960825
g 01
f 1/1/1 2/2/2 3/3/3
f 2/2/2 4/4/4 3/3/3
f 4/4/4 5/5/5 3/3/3
f 6/6/6 7/7/7 8/8/8
f 8/8/8 9/9/9 6/6/6
f 6/6/6 9/9/9 10/10/10
f 11/11/11 12/12/12 13/13/13
f 13/13/13 14/14/14 11/11/11
f 15/15/15 11/11/11 14/14/14
f 14/14/14 13/13/13 16/16/16
f 14/14/14 17/17/17 15/15/15
f 16/16/16 18/18/18 14/14/14
f 17/17/17 14/14/14 18/18/18
f 18/18/18 19/19/19 17/17/17
f 20/20/20 21/21/21 22/22/22
f 22/22/22 23/23/23 20/20/20
f 24/24/24 20/20/20 23/23/23
f 23/23/23 22/22/22 25/25/25
f 23/23/23 26/26/26 24/24/24
f 25/25/25 27/27/27 23/23/23
f 26/26/26 23/23/23 27/27/27
f 27/27/27 28/28/28 26/26/26
f 29/29/29 30/30/30 31/31/31
f 31/31/31 32/32/32 29/29/29
f 33/33/33 29/29/29 32/32/32
f 32/32/32 31/31/31 34/34/34
f 32/32/32 35/35/35 33/33/33
f 34/34/34 36/36/36 32/32/32
f 35/35/35 32/32/32 36/36/36
f 36/36/36 37/37/37 35/35/35
f 38/38/38 39/39/39 40/40/40
f 40/40/40 41/41/41 38/38/38
f 42/42/42 38/38/38 41/41/41
f 41/41/41 40/40/40 43/43/43
f 41/41/41 44/44/44 42/42/42
f 43/43/43 45/45/45 41/41/41
f 44/44/44 41/41/41 45/45/45
f 45/45/45 46/46/46 44/44/44
f 47/47/47 48/48/48 49/49/49
f 49/49/49 50/50/50 47/47/47
f 51/51/51 47/47/47 50/50/50
f 50/50/50 49/49/49 52/52/52
f 50/50/50 53/53/53 51/51/51
f 52/52/52 54/54/54 50/50/50
f 53/53/53 50/50/50 54/54/54
f 54/54/54 55/55/55 53/53/53
f 56/56/56 57/57/57 58/58/58
f 58/58/58 59/59/59 56/56/56
f 60/60/60 56/56/56 59/59/59
f 59/59/59 58/58/58 61/61/61
f 59/59/59 62/62/62 60/60/60
f 61/61/61 63/63/63 59/59/59
f 62/62/62 59/59/59 63/63/63
f 63/63/63 64/64/64 62/62/62
f 65/65/65 66/66/66 67/67/67
f 67/67/67 68/68/68 65/65/65
f 69/69/69 65/65/65 68/68/68
f 68/68/68 67/67/67 70/70/70
f 68/68/68 71/71/71 69/69/69
f 70/70/70 72/72/72 68/68/68
f 71/71/71 68/68/68 72/72/72
f 72/72/72 73/73/73 71/71/71
f 74/74/74 75/75/75 76/76/76
f 76/76/76 77/77/77 74/74/74
f 78/78/78 74/74/74 77/77/77
f 77/77/77 76/76/76 79/79/79
f 77/77/77 80/80/80 78/78/78
f 79/79/79 81/81/81 77/77/77
f 80/80/80 77/77/77 81/81/81
f 81/81/81 82/82/82 80/80/80
