v 0.185301 0.593426 -0.07340500000000004
v -0.084543 1.018962 -0.07917200000000006
v 0.117875 1.147182 -0.08941500000000006
v 0.387719 0.721645 -0.08364800000000004
v 0.345719 0.723628 -0.03642000000000004
v 0.376882 0.674484 -0.03575400000000004
v 0.376404 0.673965 -0.05169400000000004
v 0.345241 0.723108 -0.05236000000000004
v 0.302327 0.696142 -0.03422400000000004
v 0.33349 0.646999 -0.03355800000000004
v 0.376882 0.674484 -0.03575400000000004
v 0.345719 0.723628 -0.03642000000000004
v 0.301849 0.695623 -0.05016500000000004
v 0.333012 0.64648 -0.04949900000000004
v 0.33349 0.646999 -0.03355800000000004
v 0.302327 0.696142 -0.03422400000000004
v 0.376404 0.673965 -0.05169400000000004
v 0.376882 0.674484 -0.03575400000000004
v 0.33349 0.646999 -0.03355800000000004
v 0.333012 0.64648 -0.04949900000000004
v -0.012263 1.037233 -0.009184000000000064
v -0.029232 1.063994 -0.009547000000000066
v -0.02971 1.063475 -0.025487000000000065
v -0.01274 1.036714 -0.025124000000000063
v 0.031129 1.064719 -0.011380000000000065
v 0.014159 1.091479 -0.011743000000000068
v -0.029232 1.063994 -0.009547000000000066
v -0.012263 1.037233 -0.009184000000000064
v 0.030651 1.0642 -0.027320000000000066
v 0.013681 1.09096 -0.027683000000000065
v 0.014159 1.091479 -0.011743000000000068
v 0.031129 1.064719 -0.011380000000000065
v -0.02971 1.063475 -0.025487000000000065
v -0.029232 1.063994 -0.009547000000000066
v 0.014159 1.091479 -0.011743000000000068
v 0.013681 1.09096 -0.027683000000000065
v 0.050705 1.065922 -0.028702000000000064
v 0.019542 1.115065 -0.029368000000000068
v 0.019064 1.114546 -0.04530900000000007
v 0.050227 1.065403 -0.044643000000000065
v 0.094096 1.093408 -0.030898000000000064
v 0.062933 1.142551 -0.03156400000000007
v 0.019542 1.115065 -0.029368000000000068
v 0.050705 1.065922 -0.028702000000000064
v 0.093619 1.092889 -0.04683800000000007
v 0.062456 1.142032 -0.04750400000000007
v 0.062933 1.142551 -0.03156400000000007
v 0.094096 1.093408 -0.030898000000000064
v 0.019064 1.114546 -0.04530900000000007
v 0.019542 1.115065 -0.029368000000000068
v 0.062933 1.142551 -0.03156400000000007
v 0.062456 1.142032 -0.04750400000000007
v 0.344176 0.714517 -0.024191000000000046
v 0.370909 0.731451 -0.025544000000000046
v 0.118863 1.128922 -0.03093000000000007
v 0.092129 1.111988 -0.02957800000000007
v 0.334514 0.720153 0.009206999999999957
v 0.344176 0.714517 -0.024191000000000046
v 0.092129 1.111988 -0.02957800000000007
v 0.092696 1.101493 0.004038999999999932
v -0.025243 1.041655 -0.03608300000000006
v -0.068578 1.014205 -0.033890000000000066
v 0.187253 0.610767 -0.02842300000000004
v 0.230587 0.638217 -0.03061600000000004
v -0.009278 1.036898 0.009198999999999936
v -0.025243 1.041655 -0.03608300000000006
v 0.230587 0.638217 -0.03061600000000004
v 0.232539 0.655559 0.01436699999999996
v -0.084543 1.018962 -0.07917200000000006
v 0.185301 0.593426 -0.07340500000000004
v 0.187253 0.610767 -0.02842300000000004
v -0.068578 1.014205 -0.033890000000000066
v 0.387719 0.721645 -0.08364800000000004
v 0.117875 1.147182 -0.08941500000000006
v 0.118863 1.128922 -0.03093000000000007
v 0.370909 0.731451 -0.025544000000000046
v -0.009278 1.036898 0.009198999999999936
v 0.232539 0.655559 0.01436699999999996
v 0.334514 0.720153 0.009206999999999957
v 0.092696 1.101493 0.004038999999999932
v 1.866708 1.712351 -0.011882000000000104
v 1.779331 1.216103 -0.017648000000000073
v 1.54337 1.257769 -0.027891000000000075
v 1.630747 1.754017 -0.02212400000000011
v 1.660443 1.72425 0.025102999999999896
v 1.670534 1.781559 0.025768999999999893
v 1.671237 1.781621 0.00982899999999989
v 1.661146 1.724311 0.009162999999999893
v 1.711025 1.715318 0.027298999999999896
v 1.721116 1.772627 0.027964999999999893
v 1.670534 1.781559 0.025768999999999893
v 1.660443 1.72425 0.025102999999999896
v 1.711728 1.71538 0.011358999999999893
v 1.721819 1.772689 0.01202499999999989
v 1.721116 1.772627 0.027964999999999893
v 1.711025 1.715318 0.027298999999999896
v 1.671237 1.781621 0.00982899999999989
v 1.670534 1.781559 0.025768999999999893
v 1.721116 1.772627 0.027964999999999893
v 1.721819 1.772689 0.01202499999999989
v 1.713614 1.25131 0.05233899999999992
v 1.708119 1.220103 0.051975999999999925
v 1.708822 1.220164 0.03603599999999992
v 1.714316 1.251372 0.036398999999999924
v 1.663032 1.260242 0.050142999999999924
v 1.657537 1.229034 0.04978099999999992
v 1.708119 1.220103 0.051975999999999925
v 1.713614 1.25131 0.05233899999999992
v 1.663735 1.260303 0.03420299999999992
v 1.65824 1.229096 0.03384099999999993
v 1.657537 1.229034 0.04978099999999992
v 1.663032 1.260242 0.050142999999999924
v 1.708822 1.220164 0.03603599999999992
v 1.708119 1.220103 0.051975999999999925
v 1.657537 1.229034 0.04978099999999992
v 1.65824 1.229096 0.03384099999999993
v 1.647757 1.272544 0.03282099999999993
v 1.637666 1.215235 0.03215499999999993
v 1.638369 1.215297 0.016214999999999927
v 1.64846 1.272606 0.016880999999999924
v 1.597175 1.281476 0.03062499999999992
v 1.587085 1.224166 0.029958999999999923
v 1.637666 1.215235 0.03215499999999993
v 1.647757 1.272544 0.03282099999999993
v 1.597878 1.281537 0.014684999999999922
v 1.587787 1.224228 0.014018999999999926
v 1.587085 1.224166 0.029958999999999923
v 1.597175 1.281476 0.03062499999999992
v 1.638369 1.215297 0.016214999999999927
v 1.637666 1.215235 0.03215499999999993
v 1.587085 1.224166 0.029958999999999923
v 1.587787 1.224228 0.014018999999999926
v 1.667723 1.729942 0.03733199999999989
v 1.636559 1.735444 0.03597899999999989
v 1.554945 1.271925 0.030592999999999922
v 1.586109 1.266422 0.031945999999999926
v 1.671064 1.719266 0.07072999999999989
v 1.667723 1.729942 0.03733199999999989
v 1.586109 1.266422 0.031945999999999926
v 1.592762 1.274559 0.06556299999999991
v 1.720224 1.239296 0.025440999999999922
v 1.770741 1.230376 0.027632999999999925
v 1.85358 1.700853 0.033100999999999894
v 1.803064 1.709773 0.030907999999999897
v 1.711634 1.253569 0.07072299999999991
v 1.720224 1.239296 0.025440999999999922
v 1.803064 1.709773 0.030907999999999897
v 1.789936 1.698276 0.0758899999999999
v 1.779331 1.216103 -0.017648000000000073
v 1.866708 1.712351 -0.011882000000000104
v 1.85358 1.700853 0.033100999999999894
v 1.770741 1.230376 0.027632999999999925
v 1.630747 1.754017 -0.02212400000000011
v 1.54337 1.257769 -0.027891000000000075
v 1.554945 1.271925 0.030592999999999922
v 1.636559 1.735444 0.03597899999999989
v 1.711634 1.253569 0.07072299999999991
v 1.789936 1.698276 0.0758899999999999
v 1.671064 1.719266 0.07072999999999989
v 1.592762 1.274559 0.06556299999999991
v 0.118863 1.128922 -0.03093000000000007
v 0.117875 1.147182 -0.08941500000000006
v 0.092129 1.111988 -0.02957800000000007
v -0.084543 1.018962 -0.07917200000000006
v 0.092696 1.101493 0.004038999999999932
v -0.025243 1.041655 -0.03608300000000006
v -0.068578 1.014205 -0.033890000000000066
v -0.009278 1.036898 0.009198999999999936
v 0.187253 0.610767 -0.02842300000000004
v 0.185301 0.593426 -0.07340500000000004
v 0.230587 0.638217 -0.03061600000000004
v 0.387719 0.721645 -0.08364800000000004
v 0.232539 0.655559 0.01436699999999996
v 0.344176 0.714517 -0.024191000000000046
v 0.370909 0.731451 -0.025544000000000046
v 0.334514 0.720153 0.009206999999999957
v 1.554945 1.271925 0.030592999999999922
v 1.54337 1.257769 -0.027891000000000075
v 1.586109 1.266422 0.031945999999999926
v 1.779331 1.216103 -0.017648000000000073
v 1.592762 1.274559 0.06556299999999991
v 1.720224 1.239296 0.025440999999999922
v 1.770741 1.230376 0.027632999999999925
v 1.711634 1.253569 0.07072299999999991
v 1.85358 1.700853 0.033100999999999894
v 1.866708 1.712351 -0.011882000000000104
v 1.803064 1.709773 0.030907999999999897
v 1.630747 1.754017 -0.02212400000000011
v 1.789936 1.698276 0.0758899999999999
v 1.667723 1.729942 0.03733199999999989
v 1.636559 1.735444 0.03597899999999989
v 1.671064 1.719266 0.07072999999999989
vt 0.752837 0.253616
vt 0.677905 0.253925
vt 0.679988 0.276847
vt 0.752037 0.276101
vt 0.552653 0.808013
vt 0.561788 0.808013
vt 0.561788 0.810508
vt 0.552653 0.810508
vt 0.552653 0.799968
vt 0.561788 0.799968
vt 0.561788 0.808013
vt 0.552653 0.808013
vt 0.552653 0.797465
vt 0.561788 0.797465
vt 0.561788 0.799968
vt 0.552653 0.799968
vt 0.564298 0.808013
vt 0.561788 0.808013
vt 0.561788 0.799968
vt 0.564298 0.799968
vt 0.538009 0.807349
vt 0.542992 0.807349
vt 0.542992 0.809844
vt 0.538009 0.809844
vt 0.538009 0.799304
vt 0.542992 0.799304
vt 0.542992 0.807349
vt 0.538009 0.807349
vt 0.538009 0.796801
vt 0.542992 0.796801
vt 0.542992 0.799304
vt 0.538009 0.799304
vt 0.545483 0.807349
vt 0.542992 0.807349
vt 0.542992 0.799304
vt 0.545483 0.799304
vt 0.521645 0.808087
vt 0.530793 0.808087
vt 0.530793 0.810582
vt 0.521645 0.810582
vt 0.521645 0.800042
vt 0.530793 0.800042
vt 0.530793 0.808087
vt 0.521645 0.808087
vt 0.521645 0.797539
vt 0.530793 0.797539
vt 0.530793 0.800042
vt 0.521645 0.800042
vt 0.533277 0.808087
vt 0.530793 0.808087
vt 0.530793 0.800042
vt 0.533277 0.800042
vt 0.751811 0.281899
vt 0.751811 0.286853
vt 0.677907 0.286853
vt 0.677907 0.281899
vt 0.750311 0.276597
vt 0.751811 0.281899
vt 0.677907 0.281899
vt 0.679406 0.276597
vt 0.677352 0.250437
vt 0.677352 0.242407
vt 0.752365 0.242407
vt 0.752365 0.250437
vt 0.679406 0.257790
vt 0.677352 0.250437
vt 0.752365 0.250437
vt 0.750311 0.257789
vt 0.675297 0.235144
vt 0.754420 0.235144
vt 0.752365 0.242407
vt 0.677352 0.242407
vt 0.754420 0.296077
vt 0.675297 0.296077
vt 0.677907 0.286853
vt 0.751811 0.286853
vt 0.679406 0.257790
vt 0.750311 0.257789
vt 0.750311 0.276597
vt 0.679406 0.276597
vt 0.752837 0.253616
vt 0.677905 0.253925
vt 0.679988 0.276847
vt 0.752037 0.276101
vt 0.552653 0.808013
vt 0.561788 0.808013
vt 0.561788 0.810508
vt 0.552653 0.810508
vt 0.552653 0.799968
vt 0.561788 0.799968
vt 0.561788 0.808013
vt 0.552653 0.808013
vt 0.552653 0.797465
vt 0.561788 0.797465
vt 0.561788 0.799968
vt 0.552653 0.799968
vt 0.564298 0.808013
vt 0.561788 0.808013
vt 0.561788 0.799968
vt 0.564298 0.799968
vt 0.538009 0.807349
vt 0.542992 0.807349
vt 0.542992 0.809844
vt 0.538009 0.809844
vt 0.538009 0.799304
vt 0.542992 0.799304
vt 0.542992 0.807349
vt 0.538009 0.807349
vt 0.538009 0.796801
vt 0.542992 0.796801
vt 0.542992 0.799304
vt 0.538009 0.799304
vt 0.545483 0.807349
vt 0.542992 0.807349
vt 0.542992 0.799304
vt 0.545483 0.799304
vt 0.521645 0.808087
vt 0.530793 0.808087
vt 0.530793 0.810582
vt 0.521645 0.810582
vt 0.521645 0.800042
vt 0.530793 0.800042
vt 0.530793 0.808087
vt 0.521645 0.808087
vt 0.521645 0.797539
vt 0.530793 0.797539
vt 0.530793 0.800042
vt 0.521645 0.800042
vt 0.533277 0.808087
vt 0.530793 0.808087
vt 0.530793 0.800042
vt 0.533277 0.800042
vt 0.751811 0.281899
vt 0.751811 0.286853
vt 0.677907 0.286853
vt 0.677907 0.281899
vt 0.750311 0.276597
vt 0.751811 0.281899
vt 0.677907 0.281899
vt 0.679406 0.276597
vt 0.677352 0.250437
vt 0.677352 0.242407
vt 0.752365 0.242407
vt 0.752365 0.250437
vt 0.679406 0.257790
vt 0.677352 0.250437
vt 0.752365 0.250437
vt 0.750311 0.257789
vt 0.675297 0.235144
vt 0.754420 0.235144
vt 0.752365 0.242407
vt 0.677352 0.242407
vt 0.754420 0.296077
vt 0.675297 0.296077
vt 0.677907 0.286853
vt 0.751811 0.286853
vt 0.679406 0.257790
vt 0.750311 0.257789
vt 0.750311 0.276597
vt 0.679406 0.276597
vt 0.673874 0.282584
vt 0.664421 0.284371
vt 0.673874 0.277630
vt 0.664421 0.246862
vt 0.679406 0.276597
vt 0.671864 0.256300
vt 0.671864 0.248269
vt 0.679406 0.257790
vt 0.757666 0.248230
vt 0.765109 0.246822
vt 0.757666 0.256260
vt 0.765109 0.284331
vt 0.750311 0.257789
vt 0.755656 0.277591
vt 0.755656 0.282544
vt 0.750311 0.276597
vt 0.673874 0.282584
vt 0.664421 0.284371
vt 0.673874 0.277630
vt 0.664421 0.246862
vt 0.679406 0.276597
vt 0.671864 0.256300
vt 0.671864 0.248269
vt 0.679406 0.257790
vt 0.757666 0.248230
vt 0.765109 0.246822
vt 0.757666 0.256260
vt 0.765109 0.284331
vt 0.750311 0.257789
vt 0.755656 0.277591
vt 0.755656 0.282544
vt 0.750311 0.276597
vn -0.029947 -0.032529000000000065 -0.999022
vn -0.029947 -0.032529000000000065 -0.999022
vn -0.029947 -0.032529000000000065 -0.999022
vn -0.029947 -0.032529000000000065 -0.999022
vn 0.844007 0.534629 -0.042706000000000036
vn 0.844007 0.534629 -0.042705000000000035
vn 0.844007 0.534629 -0.042706000000000036
vn 0.844007 0.534629 -0.04270700000000004
vn 0.029947 0.032528000000000064 0.999022
vn 0.029947 0.032530000000000066 0.999022
vn 0.029947 0.032528000000000064 0.999022
vn 0.029946 0.03252700000000006 0.999022
vn -0.844008 -0.534627 0.04270700000000004
vn -0.844008 -0.534627 0.04270700000000004
vn -0.844008 -0.534627 0.04270700000000004
vn -0.844008 -0.534627 0.04270700000000004
vn 0.535492 -0.844463 0.011445000000000052
vn 0.535491 -0.844463 0.011443000000000052
vn 0.535492 -0.844463 0.011445000000000052
vn 0.535492 -0.844463 0.011446000000000052
vn -0.844006 -0.534631 0.042711000000000034
vn -0.844007 -0.534629 0.04271600000000003
vn -0.844006 -0.534631 0.042711000000000034
vn -0.844005 -0.534633 0.042706000000000036
vn 0.029948 0.032529000000000065 0.999022
vn 0.029948 0.032529000000000065 0.999022
vn 0.029948 0.032529000000000065 0.999022
vn 0.029948 0.032529000000000065 0.999022
vn 0.844009 0.534627 -0.04270900000000003
vn 0.84401 0.534625 -0.042705000000000035
vn 0.844009 0.534627 -0.04270900000000003
vn 0.844007 0.534628 -0.04271400000000004
vn -0.535492 0.844463 -0.011444000000000051
vn -0.535492 0.844463 -0.011446000000000052
vn -0.535492 0.844463 -0.011444000000000051
vn -0.535492 0.844463 -0.011443000000000052
vn -0.844006 -0.53463 0.04270700000000004
vn -0.844006 -0.53463 0.04270700000000004
vn -0.844006 -0.53463 0.04270700000000004
vn -0.844006 -0.53463 0.04270700000000004
vn 0.029947 0.032528000000000064 0.999022
vn 0.029946 0.03252700000000006 0.999022
vn 0.029947 0.032528000000000064 0.999022
vn 0.029947 0.032530000000000066 0.999022
vn 0.844007 0.534629 -0.04270300000000003
vn 0.844008 0.534629 -0.04270000000000004
vn 0.844007 0.534629 -0.04270300000000003
vn 0.844007 0.53463 -0.042706000000000036
vn -0.535499 0.844458 -0.011447000000000053
vn -0.535499 0.844458 -0.011446000000000052
vn -0.535499 0.844458 -0.011447000000000053
vn -0.535499 0.844458 -0.011448000000000052
vn 0.029948 0.032529000000000065 0.999022
vn 0.029948 0.032529000000000065 0.999022
vn 0.029948 0.032529000000000065 0.999022
vn 0.029948 0.032529000000000065 0.999022
vn 0.833818 0.530801 0.15164899999999998
vn 0.833817 0.530801 0.15165299999999998
vn 0.833818 0.530801 0.15164899999999998
vn 0.833819 0.530801 0.15164599999999998
vn 0.029948 0.032529000000000065 0.999022
vn 0.029946 0.032528000000000064 0.999022
vn 0.029948 0.032529000000000065 0.999022
vn 0.029948 0.032529000000000065 0.999022
vn -0.822214 -0.518196 0.23544900000000002
vn -0.822214 -0.518197 0.23544900000000002
vn -0.822214 -0.518196 0.23544900000000002
vn -0.822214 -0.518196 0.23545000000000002
vn -0.822214 -0.518196 0.23545000000000002
vn -0.822214 -0.518197 0.23544900000000002
vn -0.822214 -0.518196 0.23545000000000002
vn -0.822214 -0.518196 0.23545200000000002
vn 0.833818 0.530801 0.15165099999999998
vn 0.833818 0.530801 0.15164999999999998
vn 0.833818 0.530801 0.15165099999999998
vn 0.833818 0.5308 0.15165199999999998
vn 0.029947 0.032528000000000064 0.999022
vn 0.029947 0.032529000000000065 0.999022
vn 0.029947 0.032528000000000064 0.999022
vn 0.029947 0.032528000000000064 0.999022
vn 0.044047 0.0038539999999999386 -0.999022
vn 0.044046 0.0038539999999999386 -0.999022
vn 0.044047 0.0038539999999999386 -0.999022
vn 0.044047 0.0038539999999999386 -0.999022
vn -0.983867 0.17373 -0.042706000000000015
vn -0.983867 0.17373 -0.042705000000000014
vn -0.983867 0.17373 -0.042706000000000015
vn -0.983867 0.173729 -0.04270800000000002
vn -0.044046 -0.0038539999999999386 0.999022
vn -0.044047 -0.0038549999999999388 0.999022
vn -0.044046 -0.0038539999999999386 0.999022
vn -0.044045 -0.003852999999999939 0.999022
vn 0.983867 -0.173731 0.04270800000000002
vn 0.983867 -0.173731 0.04270800000000002
vn 0.983867 -0.173731 0.04270800000000002
vn 0.983867 -0.173731 0.04270800000000002
vn 0.173399 0.984785 0.01144499999999994
vn 0.173399 0.984785 0.01144499999999994
vn 0.173399 0.984785 0.01144499999999994
vn 0.173399 0.984785 0.01144499999999994
vn 0.983867 -0.173728 0.04270900000000001
vn 0.983867 -0.173729 0.042712000000000014
vn 0.983867 -0.173728 0.04270900000000001
vn 0.983868 -0.173726 0.042705000000000014
vn -0.044047 -0.003852999999999939 0.999022
vn -0.044047 -0.003852999999999939 0.999022
vn -0.044047 -0.003852999999999939 0.999022
vn -0.044047 -0.003852999999999939 0.999022
vn -0.983866 0.173733 -0.042707000000000016
vn -0.983866 0.173734 -0.042705000000000014
vn -0.983866 0.173733 -0.042707000000000016
vn -0.983866 0.173733 -0.04270900000000001
vn -0.173399 -0.984785 -0.011445999999999939
vn -0.1734 -0.984785 -0.011445999999999939
vn -0.173399 -0.984785 -0.011445999999999939
vn -0.173399 -0.984785 -0.01144499999999994
vn 0.983867 -0.173729 0.04270800000000002
vn 0.983867 -0.173729 0.04270800000000002
vn 0.983867 -0.173729 0.04270800000000002
vn 0.983867 -0.173729 0.04270800000000002
vn -0.044046 -0.0038539999999999386 0.999022
vn -0.044045 -0.003852999999999939 0.999022
vn -0.044046 -0.0038539999999999386 0.999022
vn -0.044047 -0.0038549999999999388 0.999022
vn -0.983867 0.17373 -0.042705000000000014
vn -0.983867 0.17373 -0.042705000000000014
vn -0.983867 0.17373 -0.042705000000000014
vn -0.983867 0.17373 -0.042705000000000014
vn -0.17339 -0.984787 -0.01144499999999994
vn -0.17339 -0.984787 -0.01144499999999994
vn -0.17339 -0.984787 -0.01144499999999994
vn -0.17339 -0.984787 -0.011443999999999939
vn -0.044047 -0.003852999999999939 0.999022
vn -0.044048 -0.003852999999999939 0.999022
vn -0.044047 -0.003852999999999939 0.999022
vn -0.044047 -0.003852999999999939 0.999022
vn -0.973759 0.169692 0.15165
vn -0.973759 0.169692 0.151653
vn -0.973759 0.169692 0.15165
vn -0.97376 0.169692 0.151647
vn -0.044047 -0.003852999999999939 0.999022
vn -0.044045 -0.0038539999999999386 0.999022
vn -0.044047 -0.003852999999999939 0.999022
vn -0.044047 -0.003852999999999939 0.999022
vn 0.956692 -0.17118499999999998 0.23545
vn 0.956692 -0.17118499999999998 0.235449
vn 0.956692 -0.17118499999999998 0.23545
vn 0.956692 -0.17118499999999998 0.23545
vn 0.956692 -0.17118499999999998 0.235451
vn 0.956692 -0.17118499999999998 0.23545
vn 0.956692 -0.17118499999999998 0.235451
vn 0.956691 -0.17118499999999998 0.235451
vn -0.973759 0.169692 0.151651
vn -0.973759 0.169692 0.15165
vn -0.973759 0.169692 0.151651
vn -0.973759 0.169692 0.151651
vn -0.044046 -0.0038539999999999386 0.999022
vn -0.044047 -0.0038539999999999386 0.999022
vn -0.044046 -0.0038539999999999386 0.999022
vn -0.044046 -0.0038539999999999386 0.999022
vn -0.506415 0.820638 0.26476099999999997
vn -0.506425 0.820633 0.26475399999999993
vn -0.506425 0.820632 0.26475799999999994
vn -0.506426 0.820631 0.26475999999999994
vn -0.506426 0.820631 0.26475999999999994
vn -0.506426 0.820631 0.26475999999999994
vn -0.506423 0.820633 0.26475899999999997
vn -0.506425 0.820633 0.26475399999999993
vn 0.522957 -0.802676 0.28675200000000006
vn 0.522957 -0.802676 0.28675300000000004
vn 0.522957 -0.802676 0.28675400000000006
vn 0.522957 -0.802676 0.28675400000000006
vn 0.522957 -0.802676 0.28675400000000006
vn 0.522957 -0.802676 0.28675400000000006
vn 0.522959 -0.802673 0.28675700000000004
vn 0.522957 -0.802676 0.28675300000000004
vn -0.178828 -0.947588 0.2647610000000001
vn -0.178818 -0.947591 0.26475400000000004
vn -0.178816 -0.947591 0.26475800000000005
vn -0.178815 -0.94759 0.2647610000000001
vn -0.178815 -0.94759 0.2647610000000001
vn -0.178815 -0.94759 0.26476000000000005
vn -0.178819 -0.94759 0.26475800000000005
vn -0.178818 -0.947592 0.26475400000000004
vn 0.154502 0.945464 0.2867509999999999
vn 0.154503 0.945464 0.28675199999999995
vn 0.154502 0.945464 0.2867529999999999
vn 0.154502 0.945464 0.28675399999999995
vn 0.154502 0.945464 0.28675399999999995
vn 0.154502 0.945464 0.28675399999999995
vn 0.154498 0.945463 0.28675699999999993
vn 0.154503 0.945464 0.28675199999999995
g kleine werft
f 1/1/1 2/2/2 3/3/3
f 3/3/3 4/4/4 1/1/1
f 5/5/5 6/6/6 7/7/7
f 7/7/7 8/8/8 5/5/5
f 9/9/9 10/10/10 11/11/11
f 11/11/11 12/12/12 9/9/9
f 13/13/13 14/14/14 15/15/15
f 15/15/15 16/16/16 13/13/13
f 17/17/17 18/18/18 19/19/19
f 19/19/19 20/20/20 17/17/17
f 21/21/21 22/22/22 23/23/23
f 23/23/23 24/24/24 21/21/21
f 25/25/25 26/26/26 27/27/27
f 27/27/27 28/28/28 25/25/25
f 29/29/29 30/30/30 31/31/31
f 31/31/31 32/32/32 29/29/29
f 33/33/33 34/34/34 35/35/35
f 35/35/35 36/36/36 33/33/33
f 37/37/37 38/38/38 39/39/39
f 39/39/39 40/40/40 37/37/37
f 41/41/41 42/42/42 43/43/43
f 43/43/43 44/44/44 41/41/41
f 45/45/45 46/46/46 47/47/47
f 47/47/47 48/48/48 45/45/45
f 49/49/49 50/50/50 51/51/51
f 51/51/51 52/52/52 49/49/49
f 53/53/53 54/54/54 55/55/55
f 55/55/55 56/56/56 53/53/53
f 57/57/57 58/58/58 59/59/59
f 59/59/59 60/60/60 57/57/57
f 61/61/61 62/62/62 63/63/63
f 63/63/63 64/64/64 61/61/61
f 65/65/65 66/66/66 67/67/67
f 67/67/67 68/68/68 65/65/65
f 69/69/69 70/70/70 71/71/71
f 71/71/71 72/72/72 69/69/69
f 73/73/73 74/74/74 75/75/75
f 75/75/75 76/76/76 73/73/73
f 77/77/77 78/78/78 79/79/79
f 79/79/79 80/80/80 77/77/77
f 81/81/81 82/82/82 83/83/83
f 83/83/83 84/84/84 81/81/81
f 85/85/85 86/86/86 87/87/87
f 87/87/87 88/88/88 85/85/85
f 89/89/89 90/90/90 91/91/91
f 91/91/91 92/92/92 89/89/89
f 93/93/93 94/94/94 95/95/95
f 95/95/95 96/96/96 93/93/93
f 97/97/97 98/98/98 99/99/99
f 99/99/99 100/100/100 97/97/97
f 101/101/101 102/102/102 103/103/103
f 103/103/103 104/104/104 101/101/101
f 105/105/105 106/106/106 107/107/107
f 107/107/107 108/108/108 105/105/105
f 109/109/109 110/110/110 111/111/111
f 111/111/111 112/112/112 109/109/109
f 113/113/113 114/114/114 115/115/115
f 115/115/115 116/116/116 113/113/113
f 117/117/117 118/118/118 119/119/119
f 119/119/119 120/120/120 117/117/117
f 121/121/121 122/122/122 123/123/123
f 123/123/123 124/124/124 121/121/121
f 125/125/125 126/126/126 127/127/127
f 127/127/127 128/128/128 125/125/125
f 129/129/129 130/130/130 131/131/131
f 131/131/131 132/132/132 129/129/129
f 133/133/133 134/134/134 135/135/135
f 135/135/135 136/136/136 133/133/133
f 137/137/137 138/138/138 139/139/139
f 139/139/139 140/140/140 137/137/137
f 141/141/141 142/142/142 143/143/143
f 143/143/143 144/144/144 141/141/141
f 145/145/145 146/146/146 147/147/147
f 147/147/147 148/148/148 145/145/145
f 149/149/149 150/150/150 151/151/151
f 151/151/151 152/152/152 149/149/149
f 153/153/153 154/154/154 155/155/155
f 155/155/155 156/156/156 153/153/153
f 157/157/157 158/158/158 159/159/159
f 159/159/159 160/160/160 157/157/157
f 161/161/161 162/162/162 163/163/163
f 163/163/163 162/162/162 164/164/164
f 165/165/165 163/163/163 164/164/164
f 166/166/166 165/165/165 164/164/164
f 167/167/167 166/166/166 164/164/164
f 166/166/166 168/168/168 165/165/165
f 169/169/169 170/170/170 171/171/171
f 171/171/171 170/170/170 172/172/172
f 173/173/173 171/171/171 172/172/172
f 174/174/174 173/173/173 172/172/172
f 175/175/175 174/174/174 172/172/172
f 174/174/174 176/176/176 173/173/173
f 177/177/177 178/178/178 179/179/179
f 179/179/179 178/178/178 180/180/180
f 181/181/181 179/179/179 180/180/180
f 182/182/182 181/181/181 180/180/180
f 183/183/183 182/182/182 180/180/180
f 182/182/182 184/184/184 181/181/181
f 185/185/185 186/186/186 187/187/187
f 187/187/187 186/186/186 188/188/188
f 189/189/189 187/187/187 188/188/188
f 190/190/190 189/189/189 188/188/188
f 191/191/191 190/190/190 188/188/188
f 190/190/190 192/192/192 189/189/189
