v 0.697355 -0.35160899999999995 0.72231
v 1.281716 -0.14965999999999996 0.662359
v 0.80343 -0.706101 0.592233
v 1.477307 -0.557532 0.681531
v 0.870403 0.07815200000000004 0.640192
v 1.128779 -0.600459 0.565206
v 0.244847 -0.41850299999999996 1.080215
v 0.353446 -0.96921 0.6102030000000002
v -0.353441 -1.120009 0.5773300000000001
v -0.596399 -0.786554 0.811436
v -0.854895 -0.906719 0.5436340000000001
v -0.696437 -1.167166 0.5555700000000001
v -0.789925 -0.608383 0.566884
v 0.562905 -0.0013239999999999606 0.644659
v 0.386639 0.554859 0.19821999999999998
v 0.04413 0.433022 0.19474299999999997
v 0.195046 -0.005215999999999961 0.643875
v -0.480007 -0.44456799999999996 0.640213
v -0.14329 -0.633924 0.884191
v 0.037801 -1.002678 0.6099630000000001
v 0.228269 0.446062 0.19709699999999997
v 0.079672 0.363982 0.08922399999999997
v 0.239716 -0.12370599999999998 0.225483
v -0.165832 0.22032000000000002 0.571154
v 0.050539 0.35817600000000005 0.61937
v -0.040977 -0.12467199999999996 0.573611
v -0.40294 0.14192700000000003 0.602764
v -0.4298 0.11515600000000002 0.340656
v -0.53658 0.060554000000000004 0.118896
v -0.245454 -0.2930519999999999 0.599557
v -0.764714 -0.208742 0.127914
v -1.10944 -0.493835 0.11033700000000003
v -0.657821 -0.730642 0.557675
v 1.293801 -0.14965999999999996 0.576111
v 0.808783 -0.730651 0.518437
v 1.466795 -0.568128 0.582467
v 0.863735 0.10039700000000004 0.58843
v 1.133155 -0.627436 0.4661410000000001
v 0.361109 -0.99677 0.5364070000000001
v -0.347471 -1.144691 0.5071490000000001
v -0.901611 -0.898984 0.44456900000000005
v -0.717083 -1.191309 0.45650500000000005
v -0.816119 -0.57937 0.46781900000000004
v -0.497337 -0.42856099999999997 0.591673
v 0.048124 -1.030963 0.5568940000000001
v -0.283596 -0.28578999999999993 0.581958
v -1.030999 -0.423735 0.17667600000000003
v 0.446629 0.53393 0.16248599999999996
v 1.201281 0.25281900000000007 0.737309
v 1.202571 0.24341000000000002 0.655913
v 0.141324 -0.71059 0.845089
v 0.524138 -0.562302 0.836224
v 0.294077 -0.637166 0.86715
v 1.187754 0.24514900000000003 0.655913
v 1.487669 -0.544324 0.582467
v 0.075589 -0.5124429999999999 0.994733
v 0.189186 -0.24437299999999995 0.85054
v 0.391625 -0.22125199999999995 0.855535
v 0.48336 -0.3832439999999999 0.891566
v 0.595541 0.026916000000000034 0.573796
v 0.156996 0.10527400000000003 0.530638
v 0.51525 0.14904500000000004 0.523961
v 0.566946 0.12427600000000003 0.494814
v 0.127237 0.19169100000000003 0.442074
v 0.473532 0.280681 0.418298
v 0.527359 0.259062 0.385471
v 0.086195 0.31087 0.319932
v 0.435084 0.401998 0.320919
v 0.493463 0.374472 0.291845
v 0.323466 -0.0038569999999999607 0.644149
v 0.280191 0.12032600000000003 0.528342
v 0.248807 0.22293200000000002 0.433727
v 0.199983 0.340591 0.320254
v 0.319511 0.371811 0.320592
v 0.363879 0.252503 0.425827
v 0.404785 0.13554800000000003 0.52602
v 0.463936 -0.0023709999999999604 0.644448
v -0.537134 -0.61242 0.724252
v -0.334756 -0.526251 0.745459
v -0.206693 -0.42237699999999995 0.707545
v -0.075069 -0.29436299999999993 0.677102
v 0.037993 -0.16574099999999997 0.668626
v 0.050539 0.35817600000000005 0.61937
v 0.195046 -0.005215999999999961 0.643875
v 0.863735 0.10039700000000004 0.58843
v 0.595541 0.026916000000000034 0.573796
vt 0.623996 0.192049
vt 0.789747 0.183005
vt 0.622344 0.060719
vt 0.809882 0.025637
vt 0.708022 0.318011
vt 0.720336 0.051197
vt 0.474571 0.219524
vt 0.454272 0.021715
vt 0.216259 0.049014
vt 0.172631 0.188385
vt 0.079151 0.176431
vt 0.103348 0.071037
vt 0.130063 0.267901
vt 0.616277 0.325099
vt 0.615765 0.532238
vt 0.495607 0.529012
vt 0.797487 0.959498
vt 0.243248 0.290893
vt 0.321168 0.190385
vt 0.351349 0.045331
vt 0.555008 0.513047
vt 0.947153 0.797854
vt 0.743807 0.956683
vt 0.408274 0.480470
vt 0.963112 0.970963
vt 0.413490 0.350267
vt 0.331278 0.477181
vt 0.287609 0.487809
vt 0.264115 0.500303
vt 0.326180 0.332425
vt 0.151816 0.462453
vt 0.005798 0.452233
vt 0.087188 0.296004
vt 0.813062 0.186157
vt 0.623109 0.042413
vt 0.828390 0.004507
vt 0.715039 0.333201
vt 0.717340 0.029849
vt 0.453960 0.011569
vt 0.215697 0.040027
vt 0.065176 0.184207
vt 0.094441 0.065175
vt 0.110066 0.287597
vt 0.232425 0.306483
vt 0.351804 0.034647
vt 0.286330 0.326884
vt 0.040293 0.458494
vt 0.638774 0.534109
vt 0.803861 0.329042
vt 0.816959 0.348318
vt 0.412960 0.132428
vt 0.548457 0.140122
vt 0.465369 0.129854
vt 0.816959 0.348318
vt 0.828390 0.004507
vt 0.407675 0.206817
vt 0.469266 0.284762
vt 0.545680 0.271534
vt 0.553331 0.205042
vt 0.636916 0.343959
vt 0.495320 0.405463
vt 0.616139 0.381100
vt 0.636282 0.380348
vt 0.495396 0.438039
vt 0.616017 0.430126
vt 0.637102 0.430939
vt 0.495500 0.482965
vt 0.615906 0.475308
vt 0.637804 0.474257
vt 0.537483 0.350297
vt 0.536866 0.397085
vt 0.537741 0.435261
vt 0.534770 0.480468
vt 0.576020 0.477845
vt 0.577823 0.432631
vt 0.578885 0.388613
vt 0.583709 0.335514
vt 0.208588 0.240581
vt 0.276860 0.247537
vt 0.324278 0.278536
vt 0.382726 0.296992
vt 0.432627 0.327792
vt 0.490214 0.503051
vt 0.495223 0.363813
vt 0.711680 0.336333
vt 0.635689 0.343804
vn 0.354831 0.059016000000000055 0.933066
vn 0.368268 0.043600000000000055 0.928697
vn 0.425476 -0.660101 0.619061
vn 0.642027 -0.45900699999999994 0.614096
vn -0.213645 0.42591500000000004 0.879177
vn 0.09633 -0.600036 0.794152
vn 0.177714 -0.04076399999999994 0.983238
vn 0.293099 -0.732557 0.614372
vn 0.124647 -0.761098 0.636548
vn -0.393197 0.03362000000000005 0.918839
vn -0.822278 -0.22252199999999997 0.523777
vn -0.28243 -0.774799 0.565615
vn -0.682478 0.46928400000000003 0.560354
vn 0.089069 0.693891 0.714551
vn 0.108474 0.642958 0.758181
vn -0.058931 0.704519 0.707234
vn 0.091338 0.643012 0.760391
vn -0.395977 0.648053 0.65056
vn -0.2788 0.05098000000000005 0.958995
vn 0.09395 -0.765092 0.63703
vn -0.206931 0.711659 0.671357
vn 0.938462 0.343746 0.03359999999999998
vn 0.949063 0.314851 0.01216099999999998
vn -0.033094 -0.004858999999999938 0.99944
vn 0.230973 0.13144200000000006 0.964041
vn -0.2484 0.25021600000000005 0.935783
vn -0.317556 -0.11552499999999995 0.941176
vn -0.926634 -0.22969199999999998 0.297642
vn -0.766174 0.19955600000000004 0.610863
vn -0.491951 0.4214260000000001 0.76183
vn -0.475551 0.505688 0.719813
vn -0.681848 0.07430900000000004 0.72771
vn -0.536366 0.37834700000000004 0.75443
vn 0.941745 0.320641 0.10152199999999999
vn 0.439006 -0.837116 0.32635900000000007
vn 0.143753 -0.985499 0.09015100000000005
vn -0.361847 0.894072 0.26400999999999997
vn 0.209057 -0.948791 0.23683500000000005
vn 0.242579 -0.881466 0.40518300000000007
vn 0.140469 -0.943661 0.29962000000000005
vn -0.923418 -0.03808599999999998 0.3819
vn -0.5844 -0.744306 0.32324200000000003
vn -0.764478 0.535465 0.35895699999999997
vn -0.447479 0.724852 0.523786
vn 0.186918 -0.877943 0.44077000000000005
vn -0.287775 0.48693700000000006 0.824669
vn -0.523839 0.3351930000000001 0.783096
vn 0.556873 0.617865 0.5551
vn 0.341073 0.738887 0.581133
vn 0.973556 0.228184 -0.010954000000000014
vn 0.045938 -0.624724 0.779493
vn 0.492095 -0.35493299999999994 0.794899
vn 0.241813 -0.60823 0.756031
vn -0.404527 0.91433 -0.018926000000000054
vn 0.886291 0.437798 0.15106999999999998
vn -0.435053 -0.03485499999999994 0.89973
vn -0.384154 0.62701 0.677706
vn 0.196561 0.621284 0.758531
vn 0.592619 0.18526100000000006 0.783888
vn 0.345727 0.802489 0.48629599999999995
vn -0.089281 0.685336 0.722734
vn 0.337977 0.653472 0.677308
vn 0.590733 0.605828 0.532923
vn -0.141873 0.675245 0.72382
vn 0.196189 0.658355 0.72669
vn 0.580988 0.610358 0.538438
vn -0.146843 0.717641 0.680756
vn 0.177075 0.684739 0.706949
vn 0.56833 0.614033 0.54769
vn -0.033011 0.67148 0.740287
vn -0.066143 0.668059 0.741163
vn -0.118885 0.65886 0.742812
vn -0.175115 0.705752 0.686475
vn -0.15949 0.676503 0.718962
vn -0.101698 0.636793 0.764299
vn -0.0618 0.638076 0.767489
vn -0.019561 0.660584 0.750497
vn -0.374648 0.513888 0.771724
vn -0.270075 0.543651 0.794672
vn -0.292839 0.559616 0.775291
vn -0.44356 0.529928 0.722794
vn -0.512191 0.547018 0.662142
vn 0.230973 0.13144200000000006 0.964041
vn 0.091338 0.643012 0.760391
vn -0.361847 0.894072 0.26400999999999997
vn 0.345727 0.802489 0.48629599999999995
g 01
f 84/84/84 26/26/26 82/82/82
f 82/82/82 26/26/26 81/81/81
f 81/81/81 26/26/26 30/30/30
f 30/30/30 80/80/80 81/81/81
f 30/30/30 18/18/18 79/79/79
f 79/79/79 80/80/80 30/30/30
f 79/79/79 18/18/18 78/78/78
f 78/78/78 18/18/18 13/13/13
f 62/62/62 76/76/76 77/77/77
f 77/77/77 14/14/14 62/62/62
f 65/65/65 75/75/75 76/76/76
f 76/76/76 62/62/62 65/65/65
f 74/74/74 75/75/75 65/65/65
f 65/65/65 68/68/68 74/74/74
f 21/21/21 74/74/74 68/68/68
f 68/68/68 15/15/15 21/21/21
f 21/21/21 16/16/16 67/67/67
f 67/67/67 73/73/73 21/21/21
f 64/64/64 72/72/72 73/73/73
f 73/73/73 67/67/67 64/64/64
f 61/61/61 71/71/71 72/72/72
f 72/72/72 64/64/64 61/61/61
f 84/84/84 70/70/70 71/71/71
f 71/71/71 61/61/61 84/84/84
f 68/68/68 69/69/69 48/48/48
f 48/48/48 15/15/15 68/68/68
f 73/73/73 74/74/74 21/21/21
f 65/65/65 66/66/66 69/69/69
f 69/69/69 68/68/68 65/65/65
f 74/74/74 73/73/73 72/72/72
f 72/72/72 75/75/75 74/74/74
f 62/62/62 63/63/63 66/66/66
f 66/66/66 65/65/65 62/62/62
f 75/75/75 72/72/72 71/71/71
f 71/71/71 76/76/76 75/75/75
f 52/52/52 1/1/1 59/59/59
f 58/58/58 59/59/59 1/1/1
f 1/1/1 14/14/14 58/58/58
f 58/58/58 70/70/70 57/57/57
f 58/58/58 77/77/77 70/70/70
f 58/58/58 14/14/14 77/77/77
f 70/70/70 84/84/84 57/57/57
f 84/84/84 82/82/82 57/57/57
f 57/57/57 19/19/19 56/56/56
f 57/57/57 81/81/81 19/19/19
f 57/57/57 82/82/82 81/81/81
f 56/56/56 19/19/19 51/51/51
f 51/51/51 8/8/8 53/53/53
f 53/53/53 8/8/8 52/52/52
f 52/52/52 59/59/59 7/7/7
f 52/52/52 8/8/8 3/3/3
f 51/51/51 53/53/53 7/7/7
f 51/51/51 19/19/19 20/20/20
f 5/5/5 2/2/2 49/49/49
f 62/62/62 14/14/14 86/86/86
f 86/86/86 63/63/63 62/62/62
f 9/9/9 40/40/40 45/45/45
f 45/45/45 20/20/20 9/9/9
f 44/44/44 18/18/18 30/30/30
f 30/30/30 46/46/46 44/44/44
f 13/13/13 43/43/43 41/41/41
f 41/41/41 11/11/11 13/13/13
f 13/13/13 18/18/18 44/44/44
f 44/44/44 43/43/43 13/13/13
f 11/11/11 41/41/41 42/42/42
f 42/42/42 12/12/12 11/11/11
f 12/12/12 42/42/42 40/40/40
f 40/40/40 9/9/9 12/12/12
f 20/20/20 45/45/45 39/39/39
f 39/39/39 8/8/8 20/20/20
f 8/8/8 39/39/39 35/35/35
f 35/35/35 3/3/3 8/8/8
f 3/3/3 35/35/35 38/38/38
f 38/38/38 6/6/6 3/3/3
f 49/49/49 54/54/54 85/85/85
f 85/85/85 5/5/5 49/49/49
f 34/34/34 2/2/2 4/4/4
f 4/4/4 55/55/55 34/34/34
f 4/4/4 6/6/6 38/38/38
f 38/38/38 36/36/36 4/4/4
f 34/34/34 50/50/50 49/49/49
f 49/49/49 2/2/2 34/34/34
f 37/37/37 60/60/60 14/14/14
f 14/14/14 5/5/5 37/37/37
f 30/30/30 29/29/29 31/31/31
f 33/33/33 30/30/30 31/31/31
f 33/33/33 31/31/31 47/47/47
f 47/47/47 32/32/32 33/33/33
f 27/27/27 30/30/30 26/26/26
f 26/26/26 24/24/24 27/27/27
f 83/83/83 24/24/24 26/26/26
f 26/26/26 84/84/84 83/83/83
f 30/30/30 27/27/27 28/28/28
f 28/28/28 29/29/29 30/30/30
f 17/17/17 23/23/23 22/22/22
f 22/22/22 25/25/25 17/17/17
f 9/9/9 20/20/20 19/19/19
f 19/19/19 10/10/10 9/9/9
f 10/10/10 19/19/19 79/79/79
f 79/79/79 78/78/78 10/10/10
f 78/78/78 13/13/13 10/10/10
f 76/76/76 71/71/71 70/70/70
f 70/70/70 77/77/77 76/76/76
f 57/57/57 56/56/56 7/7/7
f 81/81/81 80/80/80 19/19/19
f 80/80/80 79/79/79 19/19/19
f 58/58/58 7/7/7 59/59/59
f 58/58/58 57/57/57 7/7/7
f 10/10/10 13/13/13 11/11/11
f 12/12/12 9/9/9 10/10/10
f 10/10/10 11/11/11 12/12/12
f 20/20/20 8/8/8 51/51/51
f 7/7/7 56/56/56 51/51/51
f 3/3/3 1/1/1 52/52/52
f 7/7/7 53/53/53 52/52/52
f 6/6/6 4/4/4 2/2/2
f 5/5/5 1/1/1 2/2/2
f 5/5/5 14/14/14 1/1/1
f 1/1/1 6/6/6 2/2/2
f 1/1/1 3/3/3 6/6/6
