v 1.16013 0.04104900000000003 0.458284
v 1.1562 0.036740000000000037 0.571559
v 0.682357 -0.09022699999999996 0.571559
v 0.676801 -0.08845799999999997 0.458284
v 0.395283 0.962189 0.45828499999999994
v 0.39921 0.966497 0.5715589999999999
v 0.873054 1.093464 0.5715589999999999
v 0.878609 1.091695 0.45828399999999997
v 1.206466 0.22905800000000004 0.458284
v 0.85546 0.21143200000000006 0.821519
v 0.539774 0.05431600000000004 0.571559
v 1.013365 0.957399 0.5715589999999999
v 0.346673 0.782657 0.45828399999999997
v 0.69995 0.791806 0.821519
v 1.025941 0.998152 -6.111918259312644E-17
v 0.999979 0.914714 0.5467179999999999
v 1.174476 0.26348200000000005 0.546717
v 1.238679 0.204203 -1.2503827516314349E-17
v 0.527197 0.013562 -8.304329945018201E-19
v 0.553162 0.09700100000000003 0.546717
v 0.378664 0.748233 0.546718
v 0.31446 0.807511 -4.944578807131392E-17
v 1.187601 0.007963 -4.875931230805186E-19
v 0.695517 -0.047408999999999965 0.546717
v 0.669552 -0.130848 8.012129218741643E-18
v 0.885858 1.134083 -6.944255579587139E-17
v 0.859895 1.050646 0.5467179999999999
v 0.432014 0.935995 0.5467179999999999
v 0.36781 0.995274 -6.094295591872914E-17
v 0.832741 -0.10479199999999995 0.571559
v 0.82992 -0.10229099999999998 0.458284
v 0.519467 1.064366 0.5715589999999999
v 0.719975 1.118092 0.5715589999999999
v 0.722795 1.115591 0.45828399999999997
v 0.518274 1.06079 0.45828399999999997
v 0.832686 -0.141997 8.694808576926336E-18
v 1.123396 0.06724100000000002 0.546717
v 0.832643 -0.06552699999999997 0.546717
v 0.720028 1.155296 -7.074147742338703E-17
v 0.500817 1.096558 -6.714481223897117E-17
v 0.539014 1.030312 0.5467179999999999
v 0.720073 1.078826 0.5467179999999999
v 1.207412 0.23320800000000003 0.571559
v 1.010471 0.960521 0.45828399999999997
v 0.345729 0.778507 0.571559
v 0.542668 0.05119400000000003 0.458284
v 0.734772 0.616167 0.748352
v 0.800809 0.36425700000000005 0.748351
v 0.714712 0.17466500000000004 0.704038
v 0.803493 0.08450900000000004 0.703688
v 0.979017 0.11646800000000004 0.689435
v 0.577303 0.887236 0.688647
v 0.752925 0.919222 0.7043869999999999
v 1.015728 0.25141100000000005 0.68904
v 0.840696 0.832634 0.704038
v 0.558661 0.757063 0.704038
v 0.890031 0.76625 0.690012
v 1.004366 0.33954600000000007 0.690012
v 0.687618 0.26976600000000006 0.702374
v 0.580952 0.66785 0.702374
v 1.16013 0.04104900000000003 0.458284
v 1.1562 0.036740000000000037 0.571559
v 0.832741 -0.10479199999999995 0.571559
v 1.1562 0.036740000000000037 0.571559
v 0.39921 0.966497 0.5715589999999999
v 0.519467 1.064366 0.5715589999999999
v 0.719975 1.118092 0.5715589999999999
v 0.873054 1.093464 0.5715589999999999
v 1.207412 0.23320800000000003 0.571559
v 0.682357 -0.09022699999999996 0.571559
v 1.013365 0.957399 0.5715589999999999
v 0.345729 0.778507 0.571559
v 0.539774 0.05431600000000004 0.571559
v 1.187601 0.007963 -4.875931230805186E-19
v 1.123396 0.06724100000000002 0.546717
v 0.85546 0.21143200000000006 0.821519
vt 0.579414 0.392564
vt 0.579414 0.433068
vt 0.674896 0.971145
vt 0.490921 0.392564
vt 0.297301 0.392564
vt 0.297301 0.433068
vt 0.207284 0.433068
vt 0.207284 0.392564
vt 0.048061 0.392564
vt 0.644589 0.860563
vt 0.457065 0.433068
vt 0.174860 0.433068
vt 0.329610 0.392564
vt 0.646936 0.683976
vt 0.407953 0.992171
vt 0.407954 0.828944
vt 0.531522 0.828945
vt 0.531522 0.992171
vt 0.126215 0.992169
vt 0.126215 0.828942
vt 0.251118 0.828943
vt 0.251118 0.992169
vt 0.565963 0.992172
vt 0.091555 0.828942
vt 0.091555 0.992168
vt 0.375256 0.992170
vt 0.375256 0.828944
vt 0.284015 0.828943
vt 0.284015 0.992170
vt 0.517242 0.433068
vt 0.517242 0.392564
vt 0.270458 0.433068
vt 0.234252 0.433068
vt 0.234252 0.392564
vt 0.270458 0.392564
vt 0.065531 0.992168
vt 0.565963 0.828945
vt 0.065531 0.828942
vt 0.348553 0.992170
vt 0.314825 0.992170
vt 0.314826 0.828944
vt 0.348553 0.828944
vt 0.048061 0.433068
vt 0.174860 0.392564
vt 0.329610 0.433068
vt 0.457065 0.392564
vt 0.648036 0.735007
vt 0.647094 0.816452
vt 0.664272 0.874232
vt 0.654993 0.907564
vt 0.631522 0.907549
vt 0.659308 0.635164
vt 0.635865 0.637241
vt 0.621138 0.864288
vt 0.627009 0.669946
vt 0.667333 0.678231
vt 0.623334 0.691545
vt 0.620932 0.836689
vt 0.664714 0.842826
vt 0.666893 0.706504
vt 0.014604 0.392564
vt 0.014604 0.433068
vt 0.656831 0.981088
vt 0.610675 0.951225
vt 0.680269 0.591516
vt 0.660503 0.564473
vt 0.633830 0.560101
vt 0.615784 0.574092
vt 0.595292 0.880239
vt 0.490921 0.433068
vt 0.601902 0.624404
vt 0.696095 0.660464
vt 0.689252 0.918233
vt 0.003960 0.992168
vt 0.029816 0.828941
vt 0.644589 0.860563
vn 0.649362 -0.760417 -0.009734999999999954
vn 0.757197 -0.517747 0.39823400000000003
vn -0.415119 -0.803809 0.42610800000000004
vn -0.432955 -0.901387 0.007164000000000056
vn -0.836567 0.547804 0.008168999999999966
vn -0.787938 0.520567 0.32888199999999995
vn 0.338409 0.839958 0.42420499999999994
vn 0.450587 0.892695 0.008158999999999944
vn 0.996802 -0.079864 0.002808000000000005
vn 0.044811 -0.19737399999999994 0.979304
vn -0.696525 -0.33514399999999994 0.634453
vn 0.661739 0.39757700000000007 0.635637
vn -0.995471 0.095027 0.0027489999999999945
vn -0.061167 0.20921500000000007 0.975955
vn 0.856732 0.502239 0.11733299999999998
vn 0.856732 0.502239 0.11733299999999998
vn 0.99322 0.004371000000000007 0.116164
vn 0.99322 0.004373000000000007 0.116164
vn -0.862341 -0.492822 0.11616700000000003
vn -0.86234 -0.492823 0.11616700000000003
vn -0.99307 0.006587000000000007 0.117337
vn -0.99307 0.006587000000000007 0.117336
vn 0.752136 -0.640947 0.15322900000000003
vn -0.426795 -0.891589 0.15137900000000007
vn -0.41245 -0.897428 0.15655100000000005
vn 0.428878 0.889763 0.15615699999999993
vn 0.445053 0.88282 0.15018799999999993
vn -0.766046 0.624992 0.15019399999999997
vn -0.873141 0.462924 0.15273099999999998
vn 0.204698 -0.869872 0.44880000000000003
vn 0.072578 -0.997144 -0.02086799999999994
vn -0.40194 0.782978 0.47475199999999995
vn -0.10165 0.911904 0.39761599999999997
vn 0.017566 0.99968 -0.018216000000000062
vn -0.45337 0.89108 -0.020784000000000056
vn 0.064737 -0.987525 0.14353600000000005
vn 0.756343 -0.634893 0.15766100000000002
vn 0.229812 -0.962885 0.14156200000000005
vn 0.021971 0.989241 0.14463899999999993
vn -0.451756 0.880609 0.14298599999999995
vn -0.467936 0.872849 0.13845699999999994
vn -0.108236 0.98454 0.13771599999999995
vn 0.799642 0.050899000000000034 0.598316
vn 0.863767 0.503885 -0.002480000000000031
vn -0.829621 -0.03686499999999997 0.557109
vn -0.869377 -0.494143 -0.0024179999999999697
vn 0.012199 -0.09187799999999995 0.995696
vn -0.049278 0.10867600000000005 0.992855
vn -0.474162 -0.22753299999999996 0.850529
vn -0.119427 -0.564272 0.816905
vn 0.398109 -0.39917899999999995 0.825933
vn -0.324076 0.4267040000000001 0.844333
vn 0.180192 0.556363 0.811167
vn 0.507887 0.059412000000000055 0.859373
vn 0.485699 0.19087900000000005 0.853031
vn -0.523805 -0.06340199999999994 0.849475
vn 0.448471 0.12286800000000006 0.885312
vn 0.389702 0.07745600000000005 0.917678
vn -0.405955 -0.10506899999999994 0.907833
vn -0.447728 -0.12355799999999995 0.885592
vn 0.649362 -0.760417 -0.009734999999999954
vn 0.757197 -0.517747 0.39823400000000003
vn 0.204698 -0.869872 0.44880000000000003
vn 0.757197 -0.517747 0.39823400000000003
vn -0.787938 0.520567 0.32888199999999995
vn -0.40194 0.782978 0.47475199999999995
vn -0.10165 0.911904 0.39761599999999997
vn 0.338409 0.839958 0.42420499999999994
vn 0.799642 0.050899000000000034 0.598316
vn -0.415119 -0.803809 0.42610800000000004
vn 0.661739 0.39757700000000007 0.635637
vn -0.829621 -0.03686499999999997 0.557109
vn -0.696525 -0.33514399999999994 0.634453
vn 0.752136 -0.640947 0.15322900000000003
vn 0.756343 -0.634893 0.15766100000000002
vn 0.044811 -0.19737399999999994 0.979304
g vdvd
f 72/72/72 60/60/60 56/56/56
f 48/48/48 59/59/59 49/49/49
f 49/49/49 10/10/10 48/48/48
f 69/69/69 58/58/58 54/54/54
f 47/47/47 57/57/57 55/55/55
f 55/55/55 14/14/14 47/47/47
f 59/59/59 48/48/48 47/47/47
f 47/47/47 60/60/60 59/59/59
f 47/47/47 48/48/48 58/58/58
f 58/58/58 57/57/57 47/47/47
f 14/14/14 52/52/52 56/56/56
f 14/14/14 55/55/55 53/53/53
f 10/10/10 51/51/51 54/54/54
f 14/14/14 53/53/53 52/52/52
f 10/10/10 50/50/50 51/51/51
f 3/3/3 50/50/50 49/49/49
f 49/49/49 73/73/73 3/3/3
f 47/47/47 14/14/14 56/56/56
f 56/56/56 60/60/60 47/47/47
f 49/49/49 59/59/59 73/73/73
f 48/48/48 76/76/76 54/54/54
f 54/54/54 58/58/58 48/48/48
f 55/55/55 57/57/57 71/71/71
f 27/27/27 26/26/26 39/39/39
f 39/39/39 42/42/42 27/27/27
f 40/40/40 29/29/29 28/28/28
f 28/28/28 41/41/41 40/40/40
f 24/24/24 25/25/25 36/36/36
f 36/36/36 38/38/38 24/24/24
f 35/35/35 5/5/5 6/6/6
f 6/6/6 32/32/32 35/35/35
f 7/7/7 8/8/8 34/34/34
f 34/34/34 33/33/33 7/7/7
f 70/70/70 4/4/4 31/31/31
f 31/31/31 30/30/30 70/70/70
f 40/40/40 41/41/41 42/42/42
f 42/42/42 39/39/39 40/40/40
f 74/74/74 75/75/75 38/38/38
f 38/38/38 36/36/36 74/74/74
f 29/29/29 22/22/22 21/21/21
f 21/21/21 28/28/28 29/29/29
f 27/27/27 16/16/16 15/15/15
f 15/15/15 26/26/26 27/27/27
f 19/19/19 25/25/25 24/24/24
f 24/24/24 20/20/20 19/19/19
f 23/23/23 18/18/18 17/17/17
f 17/17/17 37/37/37 23/23/23
f 21/21/21 22/22/22 19/19/19
f 19/19/19 20/20/20 21/21/21
f 17/17/17 18/18/18 15/15/15
f 15/15/15 16/16/16 17/17/17
f 73/73/73 59/59/59 60/60/60
f 60/60/60 72/72/72 73/73/73
f 69/69/69 71/71/71 57/57/57
f 57/57/57 58/58/58 69/69/69
f 45/45/45 13/13/13 46/46/46
f 46/46/46 11/11/11 45/45/45
f 43/43/43 9/9/9 44/44/44
f 44/44/44 12/12/12 43/43/43
f 72/72/72 56/56/56 52/52/52
f 52/52/52 65/65/65 72/72/72
f 71/71/71 68/68/68 53/53/53
f 53/53/53 55/55/55 71/71/71
f 46/46/46 4/4/4 70/70/70
f 70/70/70 11/11/11 46/46/46
f 69/69/69 54/54/54 51/51/51
f 51/51/51 64/64/64 69/69/69
f 53/53/53 68/68/68 52/52/52
f 68/68/68 67/67/67 52/52/52
f 67/67/67 66/66/66 52/52/52
f 66/66/66 65/65/65 52/52/52
f 64/64/64 51/51/51 63/63/63
f 51/51/51 50/50/50 63/63/63
f 50/50/50 3/3/3 63/63/63
f 13/13/13 45/45/45 6/6/6
f 6/6/6 5/5/5 13/13/13
f 44/44/44 8/8/8 7/7/7
f 7/7/7 12/12/12 44/44/44
f 49/49/49 50/50/50 10/10/10
f 9/9/9 43/43/43 62/62/62
f 62/62/62 61/61/61 9/9/9
f 33/33/33 34/34/34 35/35/35
f 35/35/35 32/32/32 33/33/33
f 30/30/30 31/31/31 1/1/1
f 1/1/1 2/2/2 30/30/30
