v 0.274233 1.117681 0.2846679999999999
v 0.292751 1.106397 0.29321099999999994
v 0.168009 0.982867 -0.008059000000000061
v 0.156769 0.994053 -0.00813100000000006
v 0.103112 1.064308 0.020943999999999935
v 0.113813 1.075191 0.046406999999999934
v 0.156294 1.022066 0.03388099999999994
v 0.199277 0.979292 0.03415199999999994
v 0.289323 0.925443 0.04919599999999994
v 0.145593 1.011182 0.008416999999999937
v 0.188575 0.968408 0.008688999999999942
v 1.070067 1.302791 0.00914799999999992
v 0.904835 1.137558 0.5102639999999999
v 1.116164 1.256694 0.009147999999999924
v 0.950932 1.091461 0.5102639999999999
v 1.425629 0.036173 -0.004658000000000002
v 1.284697 0.011323000000000033 0.529421
v 1.436949 -0.028028 -0.004657999999999998
v 1.296017 -0.05287799999999997 0.529421
v 0.514771 0.025417 -0.014508000000000002
v 0.417284 0.021277 -0.008488000000000002
v 0.421615 -0.075476 -0.008755999999999995
v 0.519119 -0.071333 -0.014776999999999995
v 0.528151 0.02566400000000001 0.195257
v 0.430739 0.021501000000000013 0.201273
v 0.435051 -0.07537099999999998 0.201007
v 0.532475 -0.07120499999999999 0.19499
v 1.153946 -1.266643 -0.011152999999999922
v 1.071568 -1.144219 0.5148120000000002
v 1.010313 -1.163665 0.5038780000000002
v 1.09269 -1.286089 -0.02208699999999992
v -0.987576 1.172607 -0.004658000000000072
v -0.952087 1.020683 0.36053499999999994
v -0.890827 1.04298 0.36053499999999994
v -0.926317 1.194904 -0.004658000000000073
v -1.1761 1.028083 -0.011153000000000062
v -1.083365 0.913305 0.5148119999999999
v -1.024039 0.938016 0.5038779999999999
v -1.116773 1.052794 -0.022088000000000066
v 0.66992 -0.820898 0.47467300000000007
v 1.317456 -0.820898 0.47467300000000007
v 0.66992 -0.884628 0.47467300000000007
v 1.317456 -0.884628 0.47467300000000007
v 0.721968 -0.694273 0.47467300000000007
v 1.268896 -0.547724 0.48838400000000004
v 0.738462 -0.755832 0.47467300000000007
v 1.285391 -0.609283 0.48838400000000004
v 0.914932 -1.310012 0.45593200000000006
v 1.023544 -0.694043 0.5538
v 1.086307 -0.705109 0.5538
v 0.977695 -1.321078 0.45593200000000006
v -0.263756 -0.69959 0.031273000000000044
v -0.361201 -0.281738 0.10815500000000002
v -0.3165 -0.281738 0.10815500000000002
v -0.223547 -0.678196 0.031273000000000044
v 0.490445 -0.836564 0.06280800000000006
v 0.366477 -1.299216 0.14991100000000007
v 0.493334 -0.825782 0.09406900000000006
v 0.367874 -1.294002 0.18052200000000007
v 0.442735 -1.014619 0.004755000000000062
v 0.414405 -1.120346 0.02506200000000007
v 0.397778 -1.1824 0.1285860000000001
v 0.463064 -0.936591 0.06654600000000005
v 0.417918 -1.107238 0.05562600000000007
v 0.410681 -1.134245 0.1430460000000001
v 0.578808 -1.179295 0.1430460000000001
v 0.586044 -1.152287 0.05562600000000007
v 0.609698 -1.064012 0.03951200000000006
v 0.624237 -1.009752 0.11209600000000006
v 0.45611 -0.964702 0.11209700000000006
v 0.441571 -1.018962 0.03951200000000006
v 0.654001 -0.905821 0.07912900000000006
v 0.655776 -0.899199 0.08729900000000006
v 0.658494 -0.889053 0.08544700000000005
v 0.659438 -0.885529 0.07542400000000006
v 0.483009 -0.860004 0.07912900000000006
v 0.484784 -0.853382 0.08729900000000006
v 0.487503 -0.843235 0.08544700000000005
v 0.488447 -0.839712 0.07542400000000006
v 0.533041 -0.945433 0.09139600000000006
v 0.546568 -0.89495 0.15368100000000007
v 0.567292 -0.817606 0.13956200000000005
v 0.57449 -0.790744 0.06315800000000005
v 0.560963 -0.841227 0.0008720000000000516
v 0.540238 -0.918572 0.014991000000000056
v 0.712603 -0.29224 1.7894539029141124E-17
v 1.252608 -0.339485 2.0787460930426958E-17
v 0.691075 -0.538304 0.25638700000000003
v 0.654614 -0.962197 0.36110900000000007
v 1.194471 -1.010615 0.36110900000000007
v 0.654614 -0.962197 5.891757380995929E-17
v 1.231081 -0.585548 0.36110900000000007
v 0.691075 -0.538304 0.36110900000000007
v 1.252608 -0.339485 0.256387
v 0.712603 -0.29224 0.256387
v 1.23108 -0.585548 0.25638700000000003
v 1.194486 -1.010607 -0.00047399999999993807
v -0.643841 -0.792946 -0.46965299999999993
v -0.578377 -0.812604 -0.46403599999999995
v -0.721758 -0.93152 -0.04649099999999994
v -0.656294 -0.951178 -0.040873999999999945
v -1.029846 -0.871691 -0.05079399999999994
v -0.631807 -0.941876 -0.05079299999999994
v -1.034826 -0.899932 0.010704000000000055
v -0.636787 -0.970117 0.010704000000000059
v -0.979423 -0.733773 -0.46965299999999993
v -1.047663 -0.729856 -0.46403599999999995
v -0.9536 -0.89064 -0.04649099999999994
v -1.02184 -0.886722 -0.040873999999999945
v -0.182766 -0.805864 0.03393600000000005
v -0.179132 -0.819428 0.03393600000000005
v -0.499608 -0.890761 0.18689400000000006
v -0.495974 -0.904326 0.18689400000000006
v -0.132099 -0.769862 0.009118000000000046
v -0.11689 -0.826622 0.00911800000000005
v -0.24552 -0.791232 0.06278400000000005
v -0.2258 -0.864826 0.06278400000000006
v -0.415537 -0.688801 0.25289100000000003
v -0.645003 -0.648339 -0.38728899999999994
v -0.631688 -0.572825 -0.38728899999999994
v -0.402222 -0.613287 0.25289100000000003
v 0.950154 1.42574 -0.017717000000000087
v 0.913918 1.220828 0.2863859999999999
v 0.889188 1.448703 -0.015337000000000088
v 0.85295 1.243791 0.28876599999999997
v 1.419792 0.153298 -0.013869000000000008
v 1.251198 0.034724000000000026 0.499196
v 1.411345 0.216834 -0.0019610000000000135
v 1.242749 0.09825900000000003 0.511104
v 1.276868 0.924224 0.009147999999999943
v 1.051157 0.863745 0.510264
v 1.068029 0.800775 0.510263
v 1.293741 0.861254 0.009147999999999948
v 1.332425 0.753596 0.008633999999999952
v 1.30458 0.812541 0.00831899999999995
v 1.162324 0.759856 0.29636299999999993
v 1.19017 0.700912 0.29667699999999997
v 0.894856 -1.373712 -0.013518999999999917
v 0.95772 -1.356636 -0.016064999999999916
v 0.928726 -1.263556 0.36890500000000004
v 0.865863 -1.280633 0.37145100000000003
v -1.23488 -1.204405 -0.004657999999999926
v -1.125254 -1.112418 0.5294210000000001
v -1.167158 -1.062479 0.5294210000000001
v -1.276784 -1.154466 -0.004657999999999929
v -1.150105 -1.296378 -0.02068399999999992
v -1.10079 -1.33812 -0.011992999999999919
v -1.054548 -1.17398 0.5139720000000001
v -1.103863 -1.132238 0.5052810000000001
v -1.443536 -0.01255 -0.004657999999999999
v -1.342312 -7.799999999997646E-05 0.384386
v -1.347994 0.06486600000000002 0.384386
v -1.449218 0.052393 -0.004658000000000003
v -1.43964 -0.201876 -0.011152999999999988
v -1.324031 -0.08986399999999997 0.369778
v -1.332546 -0.02616199999999998 0.358843
v -1.448153 -0.138175 -0.022086999999999992
v -1.003336 0.65712 -0.00465800000000004
v -1.156025 0.689161 0.45813799999999993
v -1.161706 0.624218 0.45813799999999993
v -1.009018 0.592177 -0.004658000000000036
v -0.89468 0.790267 -0.004658000000000048
v -0.956011 0.93372 0.45813799999999993
v -1.012469 0.901124 0.45813799999999993
v -0.951137 0.757671 -0.004658000000000046
v 0.701718 -0.820803 0.40979800000000005
v 1.310204 -0.599333 0.44005500000000003
v 0.723516 -0.88069 0.40979800000000005
v 1.332001 -0.65922 0.44005500000000003
v 0.746934 -1.051223 0.40979800000000005
v 1.210757 -0.726452 0.42393900000000007
v 0.783488 -1.103428 0.40979800000000005
v 1.247312 -0.778657 0.42393900000000007
v 0.633855 -0.708752 0.40979800000000005
v 1.144972 -0.470414 0.40979800000000005
v 0.660788 -0.766511 0.40979800000000005
v 1.171906 -0.528174 0.40979800000000005
v 0.79016 -1.053044 0.4453230000000001
v 0.933002 -0.519953 0.4453230000000001
v 0.851719 -1.069539 0.4453230000000001
v 0.994561 -0.536448 0.4453230000000001
v 1.10193 -1.019589 0.46498800000000007
v 0.989488 -0.3818909999999999 0.475893
v 1.164693 -1.008522 0.46498800000000007
v 1.05225 -0.37082399999999993 0.475893
v 1.179565 -0.97504 0.5059300000000001
v 0.745814 -0.611079 0.50593
v 1.220531 -0.92622 0.5059300000000001
v 0.786779 -0.562259 0.50593
v -0.197731 -0.929744 0.03127300000000006
v -0.557055 -1.164227 0.13027000000000008
v -0.572343 -1.122221 0.13027000000000005
v -0.213019 -0.887739 0.03127300000000006
v 0.705902 -0.23173 0.002554000000000014
v 0.567754 -0.288856 0.005949000000000018
v 0.648688 -0.093809 -0.005640999999999994
v 0.51054 -0.150952 -0.002245999999999991
v 0.703943 -0.21651199999999998 0.324878
v 0.565724 -0.273702 0.328277
v 0.646785 -0.07838499999999998 0.316671
v 0.508562 -0.13573999999999997 0.320079
v 0.610363 -1.059535 0.004755000000000065
v 0.582034 -1.165262 0.025062000000000074
v 0.534105 -1.344132 0.14991000000000007
v 0.535502 -1.338918 0.18052200000000007
v 0.660962 -0.870697 0.09406900000000006
v 0.658073 -0.88148 0.06280800000000006
v 0.565406 -1.227316 0.1285860000000001
v 0.63127 -0.981508 0.06654600000000005
v 0.227033 0.89368 0.058893999999999946
v 0.214286 0.898483 0.06230899999999995
v 0.362903 1.117097 0.30952199999999996
v 0.375649 1.112294 0.30610699999999996
v 1.252608 -0.339485 2.0787460930426958E-17
v 1.194471 -1.010615 0.36110900000000007
v 1.231081 -0.585548 0.36110900000000007
v 1.252608 -0.339485 0.256387
v 1.23108 -0.585548 0.25638700000000003
v 1.194486 -1.010607 -0.00047399999999993807
v 0.220522 0.846512 0.011862999999999948
v 0.167185 0.86661 0.026153999999999948
v 0.211418 0.946291 0.11500999999999995
v 0.280574 0.920233 0.09647899999999994
v 0.417918 -1.107238 0.05562600000000007
v 0.586044 -1.152287 0.05562600000000007
v 0.578808 -1.179295 0.1430460000000001
v 0.410681 -1.134245 0.1430460000000001
v 0.609698 -1.064012 0.03951200000000006
v 0.441571 -1.018962 0.03951200000000006
v 0.45611 -0.964702 0.11209700000000006
v 0.624237 -1.009752 0.11209600000000006
v 0.660962 -0.870697 0.09406900000000006
v 0.535502 -1.338918 0.18052200000000007
v 0.534105 -1.344132 0.14991000000000007
v 0.565406 -1.227316 0.1285860000000001
v 0.63127 -0.981508 0.06654600000000005
v 0.658073 -0.88148 0.06280800000000006
v 0.582034 -1.165262 0.025062000000000074
v 0.610363 -1.059535 0.004755000000000065
v 0.366477 -1.299216 0.14991100000000007
v 0.493334 -0.825782 0.09406900000000006
v 0.493334 -0.825782 0.09406900000000006
v 0.366477 -1.299216 0.14991100000000007
v 0.493334 -0.825782 0.09406900000000006
v 0.397778 -1.1824 0.1285860000000001
v 0.493334 -0.825782 0.09406900000000006
v 0.463064 -0.936591 0.06654600000000005
v 0.463064 -0.936591 0.06654600000000005
v 0.397778 -1.1824 0.1285860000000001
v 0.490445 -0.836564 0.06280800000000006
v 0.367874 -1.294002 0.18052200000000007
v 0.414405 -1.120346 0.02506200000000007
v 0.397778 -1.1824 0.1285860000000001
v 0.463064 -0.936591 0.06654600000000005
v -0.814776 0.807764 -0.011206000000000051
v -0.824073 0.826155 0.31082599999999994
v -0.702081 0.7398 0.3176979999999999
v -0.692876 0.721435 -0.004337000000000044
v -0.615282 0.861643 0.31188999999999995
v -0.606282 0.843215 -0.010144000000000052
v -0.737417 0.947914 0.30502099999999993
v -0.728197 0.929536 -0.017013000000000056
v -1.002353 0.716884 -0.030318000000000046
v -1.040668 0.7303 0.28980899999999993
v -0.986294 0.591323 0.30054999999999993
v -0.94804 0.577978 -0.019586000000000034
v -0.847667 0.646364 0.3134719999999999
v -0.809619 0.633078 -0.006688000000000039
v -0.902206 0.785347 0.30271299999999995
v -0.863948 0.771984 -0.01742200000000005
v 1.033513 1.30643 -7.999576589050384E-17
v 0.725855 0.873892 -5.351045203002394E-17
v 1.476573 -0.240364 1.471805016151272E-17
v 0.991677 0.045172 -2.765987260554212E-18
v 0.976856 -0.446997 2.737067226392347E-17
v 0.227243 0.931716 -5.705115085571877E-17
v 0.856989 -1.403725 -9.999999999140467E-07
v 0.892275 1.072242 0.33980499999999997
v 1.171743 -0.057666999999999975 0.457582
v 1.2753 -0.26441599999999993 0.457582
v 0.61737 -0.365407 2.2374725646801844E-17
v 0.221986 1.258001 -7.703034489870846E-17
v 0.371776 1.059754 0.18712899999999993
v 0.894957 -1.217875 0.2483940000000001
v 0.727226 -1.113786 -9.999999999318002E-07
v 1.163332 -1.000857 0.42812500000000003
v 1.268766 -0.610535 0.39241000000000004
v 1.298579 -1.167198 7.147026473355961E-17
v 1.470618 -0.661486 4.050433562903931E-17
v 1.07893 -0.627922 3.8449133370710213E-17
v 0.985498 -0.866836 0.0004820000000000531
v 0.92477 -0.037792 2.3140925916688385E-18
v 1.028899 0.788049 0.45758199999999993
v 1.149169 0.355908 0.405537
v 0.808449 0.649027 -3.9741441905510464E-17
v 0.937568 0.299342 -1.832941110751835E-17
v 1.397563 0.453914 -2.779421635940858E-17
v 1.222522 0.923948 -5.657549803892993E-17
v 0.546802 1.301372 -7.968605271499947E-17
v 0.528025 1.127392 0.36075099999999993
v 0.475915 0.929907 -5.694038155273589E-17
v 0.275768 1.14336 0.12120799999999993
v 0.774147 -0.256955 0.22914400000000001
v 0.591736 -0.163782 1.002875510289759E-17
v 0.641121 -1.27825 7.827023855050522E-17
v 0.691679 -1.37177 -9.999999999160033E-07
v 0.136394 1.081858 -6.624469684159786E-17
v -0.651923 0.709308 -4.343258859048054E-17
v -0.157099 0.115869 0.009948999999999993
v -0.321201 -1.123906 6.881939427212527E-17
v -0.852294 0.275672 -0.04793500000000001
v -0.639655 -0.90776 -0.5084029999999999
v -0.463486 -1.261362 0.0025130000000000772
v -1.21263 -1.238158 7.581531157693443E-17
v -0.34202 0.561803 -3.4400512285069024E-17
v -0.172693 0.333345 0.01273699999999998
v -0.678439 -0.990036 6.062222092203245E-17
v -1.442832 -0.672886 4.1202384304553296E-17
v -1.435424 -0.159903 9.79123485620296E-18
v -0.262391 -0.079142 0.011283000000000005
v -0.243994 -0.638369 3.9088827626244837E-17
v -0.951997 0.297459 0.050763999999999976
v -1.064439 -0.377435 -0.311576
v -0.401047 0.056241 -0.010031000000000003
v -0.575695 -0.466234 -0.31157599999999996
v -1.263912 -0.951785 0.24809500000000007
v -0.672963 0.59607 0.01786899999999996
v -0.457045 0.420424 0.026094999999999976
v -1.435403 -1.076343 6.590700048673298E-17
v -1.073926 -1.018025 0.15802300000000005
v -0.906942 -1.166063 0.26792800000000006
v -0.861833 -1.01757 0.08700300000000005
v -0.506938 -1.068997 0.051026000000000064
v -1.301618 -0.668327 0.23457600000000003
v -1.28396 -0.18854799999999997 0.233661
v -0.397871 -0.611163 0.039965000000000035
v -0.732007 -0.969621 -0.08657699999999995
v -0.983463 -0.959606 -0.08657699999999995
v -1.02296 -0.840172 -0.508403
v -0.955676 -1.325697 0.18092500000000009
v -1.103561 -1.061662 0.33894700000000005
v -0.541766 -1.415638 0.012649000000000087
v -1.020532 -1.464942 8.970182656182609E-17
v -0.6481 1.103943 0.03412599999999993
v -1.184673 0.670785 0.30913199999999996
v -1.033966 0.916679 0.21906899999999996
v -0.558051 0.958747 -0.008032000000000058
v -1.131546 1.064068 -0.009763000000000067
v -1.374488 0.763349 -0.0037240000000000467
v -0.824898 0.821472 -0.00372400000000005
v -0.665406 1.280155 -0.004984000000000078
v -1.000021 0.694815 0.014932999999999957
v -0.506289 1.145784 -0.00372400000000007
v -0.964401 0.471081 0.08280799999999998
v -1.246954 0.311861 0.24923499999999998
v -1.431772 0.377885 -0.0017500000000000232
v -0.392621 0.979534 0.31424199999999997
v -0.327886 0.942159 0.03527099999999994
v -0.451408 0.728212 0.035270999999999955
v -0.516144 0.765587 0.31424199999999997
v -0.408251 0.988558 0.30940599999999996
v -0.531774 0.77461 0.30940599999999996
v -0.467038 0.737235 0.030434999999999955
v -0.343515 0.951183 0.03043499999999994
v -0.467753 0.739121 0.08755799999999996
v -0.437135 0.721444 0.05220199999999996
v -0.446922 0.70449 0.05220199999999996
v -0.477541 0.722168 0.08755799999999996
v -0.509579 0.763269 0.07461699999999996
v -0.519367 0.746316 0.07461699999999996
v -0.520786 0.76974 0.02631999999999995
v -0.530574 0.752787 0.026319999999999955
v -0.490168 0.752062 -0.009035000000000046
v -0.499955 0.735109 -0.009035000000000045
v -0.448342 0.727914 0.0039059999999999555
v -0.458129 0.710961 0.003905999999999957
v -0.3355 0.96819 0.08755799999999994
v -0.304882 0.950512 0.05220199999999994
v -0.31467 0.933559 0.05220199999999994
v -0.345288 0.951237 0.08755799999999994
v -0.377326 0.992338 0.07461699999999995
v -0.387114 0.975385 0.07461699999999995
v -0.388533 0.998808 0.026319999999999937
v -0.398321 0.981855 0.02631999999999994
v -0.357915 0.981131 -0.00903500000000006
v -0.367702 0.964178 -0.009035000000000059
v -0.316089 0.956983 0.0039059999999999416
v -0.325877 0.940029 0.0039059999999999425
v -0.564701 1.021441 0.028245999999999938
v -0.554703 1.015669 0.021580999999999937
v -0.627602 0.889404 0.021579999999999943
v -0.6376 0.895176 0.028245999999999945
v -0.570477 1.024776 0.016692999999999937
v -0.643376 0.898511 0.016692999999999944
v -0.62823 0.972935 0.02000199999999994
v -0.621405 0.979878 0.01089699999999994
v -0.356977 0.827211 0.09271099999999995
v -0.363803 0.820268 0.10181599999999995
v -0.630832 0.963546 0.01089099999999994
v -0.366405 0.810879 0.09270499999999994
v 0.417284 0.021277 -0.008488000000000002
v 0.430739 0.021501000000000013 0.201273
v 0.421615 -0.075476 -0.008755999999999995
v 0.435051 -0.07537099999999998 0.201007
v 0.519119 -0.071333 -0.014776999999999995
v 0.532475 -0.07120499999999999 0.19499
v 0.528151 0.02566400000000001 0.195257
v 0.514771 0.025417 -0.014508000000000002
v 0.532475 -0.07120499999999999 0.19499
v 0.435051 -0.07537099999999998 0.201007
v 0.430739 0.021501000000000013 0.201273
v 0.528151 0.02566400000000001 0.195257
v 0.493334 -0.825782 0.09406900000000006
v 0.463064 -0.936591 0.06654600000000005
v 0.493334 -0.825782 0.09406900000000006
v 0.397778 -1.1824 0.1285860000000001
v 0.397778 -1.1824 0.1285860000000001
v 0.463064 -0.936591 0.06654600000000005
v 0.442735 -1.014619 0.004755000000000062
v 0.414405 -1.120346 0.02506200000000007
v 0.442735 -1.014619 0.004755000000000062
v 0.463064 -0.936591 0.06654600000000005
v 0.586044 -1.152287 0.05562600000000007
v 0.417918 -1.107238 0.05562600000000007
v 0.609698 -1.064012 0.03951200000000006
v 0.441571 -1.018962 0.03951200000000006
v 0.691075 -0.538304 0.36110900000000007
v 1.231081 -0.585548 0.36110900000000007
v 0.712603 -0.29224 1.7894539029141124E-17
v 0.712603 -0.29224 0.256387
v 0.691075 -0.538304 0.25638700000000003
v 0.691075 -0.538304 0.25638700000000003
v 0.712603 -0.29224 1.7894539029141124E-17
v 1.23108 -0.585548 0.25638700000000003
v 0.691075 -0.538304 0.25638700000000003
v 0.712603 -0.29224 0.256387
v 1.252608 -0.339485 0.256387
v 0.691075 -0.538304 0.36110900000000007
v 0.654614 -0.962197 0.36110900000000007
v 0.654614 -0.962197 5.891757380995929E-17
v 0.691075 -0.538304 0.25638700000000003
v 0.654614 -0.962197 0.36110900000000007
v 1.194471 -1.010615 0.36110900000000007
v 0.654614 -0.962197 5.891757380995929E-17
v 1.252608 -0.339485 2.0787460930426958E-17
v 1.194471 -1.010615 0.36110900000000007
v 1.23108 -0.585548 0.25638700000000003
v 1.23108 -0.585548 0.25638700000000003
v 0.705902 -0.23173 0.002554000000000014
v 0.703943 -0.21651199999999998 0.324878
v 0.648688 -0.093809 -0.005640999999999994
v 0.646785 -0.07838499999999998 0.316671
v 0.51054 -0.150952 -0.002245999999999991
v 0.508562 -0.13573999999999997 0.320079
v 0.565724 -0.273702 0.328277
v 0.567754 -0.288856 0.005949000000000018
v 0.565724 -0.273702 0.328277
v 0.508562 -0.13573999999999997 0.320079
v 0.646785 -0.07838499999999998 0.316671
v 0.703943 -0.21651199999999998 0.324878
v -0.692876 0.721435 -0.004337000000000044
v -0.702081 0.7398 0.3176979999999999
v -0.606282 0.843215 -0.010144000000000052
v -0.615282 0.861643 0.31188999999999995
v -0.728197 0.929536 -0.017013000000000056
v -0.737417 0.947914 0.30502099999999993
v -0.824073 0.826155 0.31082599999999994
v -0.814776 0.807764 -0.011206000000000051
v -0.824073 0.826155 0.31082599999999994
v -0.737417 0.947914 0.30502099999999993
v -0.615282 0.861643 0.31188999999999995
v -0.702081 0.7398 0.3176979999999999
v -0.94804 0.577978 -0.019586000000000034
v -0.986294 0.591323 0.30054999999999993
v -0.809619 0.633078 -0.006688000000000039
v -0.847667 0.646364 0.3134719999999999
v -0.863948 0.771984 -0.01742200000000005
v -0.902206 0.785347 0.30271299999999995
v -1.040668 0.7303 0.28980899999999993
v -1.002353 0.716884 -0.030318000000000046
v -1.040668 0.7303 0.28980899999999993
v -0.902206 0.785347 0.30271299999999995
v -0.847667 0.646364 0.3134719999999999
v -0.986294 0.591323 0.30054999999999993
v 1.2753 -0.26441599999999993 0.457582
v 1.171743 -0.057666999999999975 0.457582
v 1.028899 0.788049 0.45758199999999993
v 1.222522 0.923948 -5.657549803892993E-17
v -0.575695 -0.466234 -0.31157599999999996
v -1.064439 -0.377435 -0.311576
v -0.852294 0.275672 -0.04793500000000001
v -0.401047 0.056241 -0.010031000000000003
v -0.672963 0.59607 0.01786899999999996
v -0.906942 -1.166063 0.26792800000000006
v -0.955676 -1.325697 0.18092500000000009
v -0.651923 0.709308 -4.343258859048054E-17
v -0.157099 0.115869 0.009948999999999993
v -1.02296 -0.840172 -0.508403
v -0.639655 -0.90776 -0.5084029999999999
v -0.732007 -0.969621 -0.08657699999999995
v -0.732007 -0.969621 -0.08657699999999995
v -0.983463 -0.959606 -0.08657699999999995
v -1.02296 -0.840172 -0.508403
v -1.02296 -0.840172 -0.508403
v -0.639655 -0.90776 -0.5084029999999999
v -1.020532 -1.464942 8.970182656182609E-17
v -0.861833 -1.01757 0.08700300000000005
v -1.000021 0.694815 0.014932999999999957
v -0.964401 0.471081 0.08280799999999998
v -1.246954 0.311861 0.24923499999999998
v -1.431772 0.377885 -0.0017500000000000232
v 0.976856 -0.446997 2.737067226392347E-17
v 0.991677 0.045172 -2.765987260554212E-18
v 1.476573 -0.240364 1.471805016151272E-17
v 1.2753 -0.26441599999999993 0.457582
v 0.808449 0.649027 -3.9741441905510464E-17
v -0.732007 -0.969621 -0.08657699999999995
v -0.678439 -0.990036 6.062222092203245E-17
v -0.408251 0.988558 0.30940599999999996
v -0.343515 0.951183 0.03043499999999994
v -0.327886 0.942159 0.03527099999999994
v -0.392621 0.979534 0.31424199999999997
v -0.531774 0.77461 0.30940599999999996
v -0.408251 0.988558 0.30940599999999996
v -0.392621 0.979534 0.31424199999999997
v -0.516144 0.765587 0.31424199999999997
v -0.467038 0.737235 0.030434999999999955
v -0.531774 0.77461 0.30940599999999996
v -0.516144 0.765587 0.31424199999999997
v -0.451408 0.728212 0.035270999999999955
v -0.446922 0.70449 0.05220199999999996
v -0.458129 0.710961 0.003905999999999957
v -0.499955 0.735109 -0.009035000000000045
v -0.530574 0.752787 0.026319999999999955
v -0.519367 0.746316 0.07461699999999996
v -0.477541 0.722168 0.08755799999999996
v -0.448342 0.727914 0.0039059999999999555
v -0.437135 0.721444 0.05220199999999996
v -0.467753 0.739121 0.08755799999999996
v -0.509579 0.763269 0.07461699999999996
v -0.520786 0.76974 0.02631999999999995
v -0.490168 0.752062 -0.009035000000000046
v -0.31467 0.933559 0.05220199999999994
v -0.325877 0.940029 0.0039059999999999425
v -0.367702 0.964178 -0.009035000000000059
v -0.398321 0.981855 0.02631999999999994
v -0.387114 0.975385 0.07461699999999995
v -0.345288 0.951237 0.08755799999999994
v -0.316089 0.956983 0.0039059999999999416
v -0.304882 0.950512 0.05220199999999994
v -0.3355 0.96819 0.08755799999999994
v -0.377326 0.992338 0.07461699999999995
v -0.388533 0.998808 0.026319999999999937
v -0.357915 0.981131 -0.00903500000000006
v -0.564701 1.021441 0.028245999999999938
v -0.6376 0.895176 0.028245999999999945
v -0.62823 0.972935 0.02000199999999994
v -0.363803 0.820268 0.10181599999999995
v 1.163332 -1.000857 0.42812500000000003
v 0.894957 -1.217875 0.2483940000000001
v 0.894957 -1.217875 0.2483940000000001
v 1.268766 -0.610535 0.39241000000000004
v 1.268766 -0.610535 0.39241000000000004
v 1.163332 -1.000857 0.42812500000000003
v 1.2753 -0.26441599999999993 0.457582
v 1.268766 -0.610535 0.39241000000000004
v 1.2753 -0.26441599999999993 0.457582
v 1.149169 0.355908 0.405537
v 1.149169 0.355908 0.405537
v 1.028899 0.788049 0.45758199999999993
v 0.528025 1.127392 0.36075099999999993
v 0.528025 1.127392 0.36075099999999993
v 0.892275 1.072242 0.33980499999999997
v -1.02296 -0.840172 -0.508403
v -0.639655 -0.90776 -0.5084029999999999
v -0.506938 -1.068997 0.051026000000000064
v -1.301618 -0.668327 0.23457600000000003
v -1.263912 -0.951785 0.24809500000000007
v -1.301618 -0.668327 0.23457600000000003
v -1.301618 -0.668327 0.23457600000000003
v -1.28396 -0.18854799999999997 0.233661
v -1.301618 -0.668327 0.23457600000000003
v -0.397871 -0.611163 0.039965000000000035
v -1.263912 -0.951785 0.24809500000000007
v -1.103561 -1.061662 0.33894700000000005
v -0.906942 -1.166063 0.26792800000000006
v -1.103561 -1.061662 0.33894700000000005
v -1.184673 0.670785 0.30913199999999996
v -1.033966 0.916679 0.21906899999999996
v -0.558051 0.958747 -0.008032000000000058
v -1.000021 0.694815 0.014932999999999957
v -1.184673 0.670785 0.30913199999999996
v -1.184673 0.670785 0.30913199999999996
v -1.28396 -0.18854799999999997 0.233661
v -1.28396 -0.18854799999999997 0.233661
v -1.246954 0.311861 0.24923499999999998
v -1.246954 0.311861 0.24923499999999998
v -1.246954 0.311861 0.24923499999999998
v 1.149169 0.355908 0.405537
v 1.149169 0.355908 0.405537
v 1.149169 0.355908 0.405537
v 1.171743 -0.057666999999999975 0.457582
v 0.892275 1.072242 0.33980499999999997
v 1.028899 0.788049 0.45758199999999993
v 1.028899 0.788049 0.45758199999999993
v 0.892275 1.072242 0.33980499999999997
v -1.033966 0.916679 0.21906899999999996
vt 0.402251 0.322850
vt 0.402251 0.328813
vt 0.461612 0.328813
vt 0.461612 0.322850
vt 0.130145 0.327254
vt 0.130145 0.336589
vt 0.141519 0.336589
vt 0.154853 0.336589
vt 0.171929 0.322285
vt 0.142545 0.327254
vt 0.151897 0.327254
vt 0.326567 0.500212
vt 0.235794 0.500212
vt 0.326567 0.477796
vt 0.235794 0.477796
vt 0.326729 0.661053
vt 0.235956 0.661053
vt 0.326729 0.638637
vt 0.235956 0.638637
vt 0.541857 0.706852
vt 0.529553 0.706852
vt 0.507037 0.706852
vt 0.482486 0.706852
vt 0.541857 0.642957
vt 0.529553 0.642957
vt 0.507037 0.642957
vt 0.482486 0.642957
vt 0.326648 0.581029
vt 0.235875 0.581029
vt 0.235875 0.558613
vt 0.326648 0.558613
vt 0.221979 0.547202
vt 0.139233 0.547202
vt 0.139233 0.524783
vt 0.221979 0.524783
vt 0.221034 0.590475
vt 0.138288 0.590475
vt 0.138288 0.567751
vt 0.221034 0.567751
vt 0.338199 0.692956
vt 0.449204 0.692956
vt 0.338199 0.670334
vt 0.449204 0.670334
vt 0.450380 0.614713
vt 0.339375 0.614713
vt 0.450380 0.637335
vt 0.339375 0.637335
vt 0.450519 0.554972
vt 0.339514 0.554972
vt 0.339514 0.577594
vt 0.450519 0.577594
vt 0.348929 0.448844
vt 0.274340 0.448844
vt 0.274340 0.464817
vt 0.348929 0.464817
vt 0.417517 0.475438
vt 0.332913 0.475439
vt 0.417517 0.486198
vt 0.332913 0.486198
vt 0.387445 0.444314
vt 0.368208 0.444314
vt 0.354139 0.475439
vt 0.399312 0.507068
vt 0.102685 0.274708
vt 0.118545 0.274708
vt 0.118545 0.334495
vt 0.102685 0.334495
vt 0.086649 0.334495
vt 0.070788 0.334495
vt 0.070789 0.274708
vt 0.086649 0.274708
vt 0.467841 0.336590
vt 0.467841 0.332926
vt 0.467841 0.329262
vt 0.467841 0.325598
vt 0.498431 0.336590
vt 0.498431 0.332926
vt 0.498431 0.329262
vt 0.498431 0.325598
vt 0.638467 0.017623
vt 0.652517 0.017623
vt 0.659542 0.041810
vt 0.652517 0.065996
vt 0.638467 0.065996
vt 0.631442 0.041810
vt 0.225536 0.818700
vt 0.225536 0.632668
vt 0.145611 0.818700
vt 0.057812 0.818700
vt 0.057812 0.632668
vt 0.373796 0.818861
vt 0.130078 0.632668
vt 0.130078 0.818700
vt 0.187509 0.632668
vt 0.187509 0.818700
vt 0.145611 0.632668
vt 0.004161 0.632668
vt 0.586888 0.517230
vt 0.586888 0.493673
vt 0.508776 0.517230
vt 0.508776 0.493673
vt 0.589537 0.969343
vt 0.589537 0.850873
vt 0.579032 0.969343
vt 0.579032 0.850873
vt 0.501685 0.495087
vt 0.501685 0.518644
vt 0.423574 0.495087
vt 0.423574 0.518644
vt 0.561862 0.320668
vt 0.561862 0.315268
vt 0.504611 0.320668
vt 0.504611 0.315268
vt 0.382401 0.275279
vt 0.382401 0.295463
vt 0.405024 0.272286
vt 0.405024 0.298457
vt 0.465912 0.619026
vt 0.583635 0.619026
vt 0.583635 0.592775
vt 0.465912 0.592775
vt 1.326567 0.477796
vt 1.235794 0.477796
vt 1.326567 0.500212
vt 1.235794 0.500212
vt 1.326567 0.477796
vt 1.235794 0.477796
vt 1.326567 0.500212
vt 1.235794 0.500212
vt 1.326729 0.661053
vt 1.235956 0.661053
vt 1.235956 0.638637
vt 1.326729 0.638637
vt 1.326648 0.558613
vt 1.326648 0.581029
vt 1.235875 0.581029
vt 1.235875 0.558613
vt 1.326729 0.638637
vt 1.326729 0.661053
vt 1.235956 0.661053
vt 1.235956 0.638637
vt 1.221979 0.547202
vt 1.139233 0.547202
vt 1.139233 0.524783
vt 1.221979 0.524783
vt 1.221034 0.567751
vt 1.221034 0.590475
vt 1.138288 0.590475
vt 1.138288 0.567751
vt 1.221034 0.590475
vt 1.138288 0.590475
vt 1.138288 0.567751
vt 1.221034 0.567751
vt 1.221979 0.547202
vt 1.139233 0.547202
vt 1.139233 0.524783
vt 1.221979 0.524783
vt 1.221979 0.547202
vt 1.139233 0.547202
vt 1.139233 0.524783
vt 1.221979 0.524783
vt 1.221979 0.547202
vt 1.139233 0.547202
vt 1.139233 0.524783
vt 1.221979 0.524783
vt 1.449204 0.670334
vt 1.338199 0.670334
vt 1.449204 0.692956
vt 1.338199 0.692956
vt 1.450380 0.614713
vt 1.339375 0.614713
vt 1.450380 0.637335
vt 1.339375 0.637335
vt 1.339514 0.577594
vt 1.450519 0.577594
vt 1.339514 0.554972
vt 1.450519 0.554972
vt 1.339375 0.637335
vt 1.450380 0.637335
vt 1.339375 0.614713
vt 1.450380 0.614713
vt 1.449204 0.670334
vt 1.338199 0.670334
vt 1.449204 0.692956
vt 1.338199 0.692956
vt 1.450519 0.554972
vt 1.339514 0.554972
vt 1.450519 0.577594
vt 1.339514 0.577594
vt 1.348929 0.448844
vt 1.274340 0.448844
vt 1.274340 0.464817
vt 1.348929 0.464817
vt 1.315804 0.818978
vt 1.334672 0.818978
vt 1.281472 0.818978
vt 1.244299 0.818978
vt 1.315804 0.720593
vt 1.334672 0.720593
vt 1.281472 0.720593
vt 1.244299 0.720593
vt 1.387445 0.532929
vt 1.368209 0.532929
vt 1.332914 0.502013
vt 1.332913 0.491096
vt 1.417517 0.491095
vt 1.417517 0.502012
vt 1.354139 0.502013
vt 1.399312 0.507068
vt 1.561862 0.320668
vt 1.561862 0.315268
vt 1.504611 0.315268
vt 1.504611 0.320668
vt 1.489076 0.818861
vt 1.373796 0.714840
vt 1.443209 0.714840
vt 1.489076 0.741563
vt 1.443209 0.741563
vt 1.373796 0.818861
vt 1.382401 0.275279
vt 1.382401 0.295463
vt 1.405025 0.298457
vt 1.405025 0.272286
vt 0.102685 0.274708
vt 0.102685 0.334495
vt 0.118545 0.334495
vt 0.118545 0.274708
vt 0.086649 0.334495
vt 0.086649 0.274708
vt 0.070789 0.274708
vt 0.070788 0.334495
vt 1.417517 0.491095
vt 1.332913 0.491096
vt 1.332914 0.502013
vt 1.354139 0.502013
vt 1.399312 0.507068
vt 1.417517 0.502012
vt 1.368209 0.532929
vt 1.387445 0.532929
vt 0.332914 0.502013
vt 0.417517 0.491095
vt 0.417517 0.491095
vt 0.332914 0.502013
vt 0.417517 0.491095
vt 0.354139 0.502013
vt 0.417517 0.491095
vt 0.399312 0.507068
vt 0.399312 0.507068
vt 0.354139 0.502013
vt 0.417517 0.502012
vt 0.332913 0.491096
vt 0.368208 0.532929
vt 0.354139 0.502013
vt 0.399312 0.469719
vt 1.334672 0.818978
vt 1.334672 0.720593
vt 1.315804 0.720593
vt 1.315804 0.818978
vt 1.281472 0.720593
vt 1.281472 0.818978
vt 1.244299 0.720593
vt 1.244299 0.818978
vt 1.334672 0.818978
vt 1.334672 0.720593
vt 1.315804 0.720593
vt 1.315804 0.818978
vt 1.281472 0.720593
vt 1.281472 0.818978
vt 1.244299 0.720593
vt 1.244299 0.818978
vt 0.696277 0.390670
vt 0.581213 0.389767
vt 0.217749 0.027456
vt 0.272611 0.316185
vt 0.162186 0.277471
vt 0.598104 0.519053
vt 0.054660 0.100609
vt 0.637671 0.355861
vt 0.803530 0.016927
vt 0.769568 0.003752
vt 0.765948 0.201343
vt 0.636268 0.547057
vt 0.616092 0.474154
vt 0.078395 0.134917
vt 0.058233 0.190471
vt 0.117770 0.126965
vt 0.164787 0.148375
vt 0.100388 0.028416
vt 0.165970 0.018193
vt 0.139206 0.265105
vt 0.100587 0.237982
vt 0.827959 0.142479
vt 0.370485 0.180052
vt 0.309014 0.175860
vt 0.362633 0.326594
vt 0.306364 0.316063
vt 0.320743 0.018327
vt 0.691004 0.284422
vt 0.660344 0.488717
vt 0.628040 0.434836
vt 0.590828 0.460790
vt 0.625311 0.507628
vt 0.780731 0.138132
vt 0.793445 0.212180
vt 0.045681 0.156197
vt 0.045088 0.134294
vt 0.613401 0.546678
vt 0.393967 0.049997
vt 0.446126 0.287292
vt 0.720726 0.713613
vt 0.990204 0.868469
vt 0.849168 0.447483
vt 0.739184 0.747516
vt 0.848644 0.494677
vt 0.391951 0.164263
vt 0.413664 0.248565
vt 0.806022 0.667231
vt 0.845110 0.644297
vt 0.840559 0.770786
vt 0.704754 0.220146
vt 0.705735 0.485969
vt 0.960326 0.877564
vt 0.984876 0.695033
vt 0.735780 0.165613
vt 0.805610 0.313889
vt 0.895648 0.568822
vt 0.978771 0.939955
vt 0.422779 0.148600
vt 0.850952 0.553759
vt 0.921641 0.527023
vt 0.800001 0.870164
vt 0.820494 0.765345
vt 0.767809 0.676045
vt 0.892898 0.646761
vt 0.890370 0.777537
vt 0.748996 0.471131
vt 0.814715 0.657899
vt 0.963767 0.515913
vt 0.990687 0.590238
vt 0.776800 0.937727
vt 0.893724 0.511638
vt 0.735054 0.798485
vt 0.751249 0.971213
vt 0.873253 0.102398
vt 0.904679 0.312071
vt 0.897833 0.222467
vt 0.844187 0.101015
vt 0.957883 0.156919
vt 0.981950 0.263709
vt 0.832026 0.188583
vt 0.902758 0.063326
vt 0.937048 0.965646
vt 0.867234 0.060428
vt 0.934230 0.928604
vt 0.914672 0.411920
vt 0.822279 0.884553
vt 0.496520 0.719727
vt 0.496520 0.818931
vt 0.539210 0.818931
vt 0.539192 0.719699
vt 0.585111 0.719700
vt 0.542421 0.719699
vt 0.542421 0.818904
vt 0.585110 0.818904
vt 0.970219 0.062047
vt 0.978859 0.062047
vt 0.978859 0.055322
vt 0.970219 0.055322
vt 0.961579 0.062047
vt 0.961579 0.055323
vt 0.952938 0.062047
vt 0.952938 0.055323
vt 0.944298 0.062047
vt 0.944298 0.055323
vt 0.987499 0.062047
vt 0.987499 0.055323
vt 0.977918 0.156893
vt 0.977918 0.174067
vt 0.981300 0.174067
vt 0.981300 0.156893
vt 0.977918 0.139718
vt 0.981300 0.139718
vt 0.977918 0.122544
vt 0.981300 0.122544
vt 0.977918 0.105369
vt 0.981300 0.105369
vt 0.977918 0.191242
vt 0.981300 0.191242
vt 0.229997 0.281068
vt 0.230000 0.285640
vt 0.255191 0.285647
vt 0.255191 0.281068
vt 0.230000 0.294801
vt 0.255194 0.294801
vt 0.190195 0.253612
vt 0.190195 0.258191
vt 0.244819 0.258190
vt 0.244819 0.253612
vt 0.190195 0.249030
vt 0.244819 0.249030
vt 0.517351 0.706852
vt 0.517351 0.642957
vt 0.494819 0.706852
vt 0.494819 0.642957
vt 0.470621 0.706852
vt 0.470621 0.642957
vt 0.461644 0.642957
vt 0.461644 0.706852
vt 0.994907 0.404946
vt 0.978071 0.391443
vt 0.971103 0.424038
vt 0.987931 0.437540
vt 0.417517 0.486198
vt 0.399312 0.469719
vt 0.417517 0.486198
vt 0.354139 0.475439
vt 0.354139 0.475439
vt 0.399312 0.469719
vt 0.387445 0.444314
vt 0.368208 0.532929
vt 0.387445 0.532929
vt 0.399312 0.507068
vt 0.102685 0.334495
vt 0.102685 0.274708
vt 0.086649 0.334495
vt 0.086649 0.274708
vt 0.130078 0.818700
vt 0.130078 0.632668
vt 0.489076 0.818861
vt 0.489076 0.741563
vt 0.443209 0.741563
vt 0.443209 0.741563
vt 0.489076 0.818861
vt 0.145611 0.632668
vt 0.145611 0.818700
vt 0.187509 0.818700
vt 0.187509 0.632668
vt 0.443209 0.714840
vt 0.373796 0.714840
vt 0.373796 0.818861
vt 0.443209 0.741563
vt 0.057812 0.818700
vt 0.057812 0.632668
vt 0.004161 0.818700
vt 1.489076 0.818861
vt 1.373796 0.714840
vt 1.443209 0.741563
vt 1.443209 0.741563
vt 1.300082 0.818978
vt 1.300082 0.720593
vt 1.262663 0.818978
vt 1.262663 0.720593
vt 1.369402 0.818978
vt 1.369402 0.720593
vt 1.353714 0.720593
vt 1.353714 0.818978
vt 1.820033 0.979674
vt 1.830696 0.929378
vt 1.804945 0.908507
vt 1.794274 0.958856
vt 1.300082 0.818978
vt 1.300082 0.720593
vt 1.262663 0.818978
vt 1.262663 0.720593
vt 1.369402 0.818978
vt 1.369402 0.720593
vt 1.353714 0.720593
vt 1.353714 0.818978
vt 1.820033 0.979674
vt 1.830696 0.929378
vt 1.804945 0.908507
vt 1.794274 0.958856
vt 1.300082 0.818978
vt 1.300082 0.720593
vt 1.262663 0.818978
vt 1.262663 0.720593
vt 1.369402 0.818978
vt 1.369402 0.720593
vt 1.353714 0.720593
vt 1.353714 0.818978
vt 1.820033 0.979674
vt 1.830696 0.929378
vt 1.804945 0.908507
vt 1.794274 0.958856
vt 0.203678 0.165115
vt 0.249975 0.186901
vt 0.625292 0.271589
vt 0.387981 0.040812
vt 0.574494 0.226853
vt 0.592992 0.060329
vt 0.474194 0.043710
vt 0.474733 0.215969
vt 0.411254 0.056560
vt 0.903252 0.458636
vt 0.879749 0.442178
vt 0.976143 0.962512
vt 0.694952 0.104483
vt 0.018864 0.619273
vt 0.109910 0.620424
vt 0.101026 0.480219
vt 0.101026 0.480219
vt 0.030795 0.478955
vt 0.018864 0.619273
vt 0.665212 0.132061
vt 0.650558 0.262360
vt 0.855530 0.434723
vt 0.934243 0.478936
vt 0.842029 0.277676
vt 0.847773 0.366090
vt 0.872967 0.898583
vt 0.976138 0.370318
vt 0.731085 0.120001
vt 0.841410 0.128257
vt 0.227535 0.022027
vt 0.221383 0.153984
vt 0.569077 0.326981
vt 0.964926 0.456632
vt 0.956159 0.457942
vt 0.493292 0.719727
vt 0.493292 0.818931
vt 0.496520 0.818931
vt 0.496520 0.719727
vt 0.539210 0.713309
vt 0.496520 0.713309
vt 0.496520 0.719727
vt 0.539192 0.719699
vt 0.542421 0.818904
vt 0.542421 0.719699
vt 0.539192 0.719699
vt 0.539210 0.818931
vt 0.944298 0.025576
vt 0.939978 0.040449
vt 0.944298 0.055323
vt 0.952938 0.055323
vt 0.957259 0.040449
vt 0.952938 0.025576
vt 0.987499 0.062047
vt 0.978859 0.062047
vt 0.974539 0.076920
vt 0.978859 0.091794
vt 0.987499 0.091794
vt 0.991819 0.076920
vt 0.981300 0.174067
vt 0.981300 0.191242
vt 0.988783 0.199829
vt 0.996265 0.191242
vt 0.996265 0.174067
vt 0.988783 0.165480
vt 0.962953 0.122544
vt 0.962953 0.139718
vt 0.970435 0.148306
vt 0.977918 0.139718
vt 0.977918 0.122544
vt 0.970435 0.113956
vt 0.230000 0.299383
vt 0.255194 0.299383
vt 0.190195 0.253612
vt 0.244819 0.253612
vt 0.117770 0.126965
vt 0.078395 0.134917
vt 0.078395 0.134917
vt 0.164787 0.148375
vt 0.164787 0.148375
vt 0.117770 0.126965
vt 0.203678 0.165115
vt 0.164787 0.148375
vt 0.203678 0.165115
vt 0.309014 0.175860
vt 0.309014 0.175860
vt 0.370485 0.180052
vt 0.628040 0.434836
vt 0.628040 0.434836
vt 0.637671 0.355861
vt 0.990687 0.590238
vt 0.849168 0.447483
vt 0.767809 0.676045
vt 0.892898 0.646761
vt 0.895648 0.568822
vt 0.892898 0.646761
vt 0.892898 0.646761
vt 0.890370 0.777537
vt 0.892898 0.646761
vt 0.748996 0.471131
vt 0.895648 0.568822
vt 0.893724 0.511638
vt 0.903252 0.458636
vt 0.893724 0.511638
vt 0.904679 0.312071
vt 0.897833 0.222467
vt 0.844187 0.101015
vt 0.842029 0.277676
vt 0.904679 0.312071
vt 0.904679 0.312071
vt 0.890370 0.777537
vt 0.890370 0.777537
vt 0.914672 0.411920
vt 0.914672 0.411920
vt 0.872967 0.898583
vt 0.309014 0.175860
vt 0.309014 0.175860
vt 0.309014 0.175860
vt 0.249975 0.186901
vt 0.637671 0.355861
vt 0.625292 0.271589
vt 0.625292 0.271589
vt 0.637671 0.355861
vt 0.897833 0.222467
vn -0.60696 -0.615118 0.503219
vn -0.609014 -0.612979 0.503348
vn -0.611062 -0.610835 0.503473
vn -0.609014 -0.612979 0.503348
vn -0.606669 -0.60634 0.514106
vn -0.606663 -0.606341 0.514113
vn -0.606655 -0.606338 0.514124
vn -0.556012 -0.653847 0.513161
vn -0.502695 -0.698205 0.509714
vn -0.606662 -0.606339 0.514115
vn -0.57323 -0.638327 0.513757
vn 0.640859 0.640853 0.42261899999999997
vn 0.640859 0.640853 0.42261899999999997
vn 0.64086 0.640853 0.42261899999999997
vn 0.640859 0.640853 0.42261899999999997
vn 0.951252 0.16772800000000002 0.258819
vn 0.951252 0.16772800000000002 0.258819
vn 0.951252 0.16772800000000002 0.258819
vn 0.951252 0.16772800000000002 0.258819
vn 0.407461 0.912823 -0.027009000000000054
vn -0.911482 0.407232 0.05798199999999997
vn -0.407502 -0.912816 0.026613000000000057
vn 0.911541 -0.407119 -0.05785099999999997
vn 0.871892 0.486471 -0.05612300000000003
vn -0.484239 0.874419 0.03007199999999995
vn -0.871947 -0.48637 0.05614800000000003
vn 0.484258 -0.874399 -0.030356999999999947
vn 0.250559 -0.933496 0.25652400000000003
vn 0.250561 -0.933496 0.25652500000000006
vn 0.250559 -0.933496 0.25652400000000003
vn 0.250558 -0.933497 0.25652400000000003
vn -0.314867 0.86509 0.39048499999999997
vn -0.314867 0.86509 0.39048499999999997
vn -0.314867 0.86509 0.39048499999999997
vn -0.314866 0.86509 0.39048499999999997
vn -0.330965 0.908107 0.2565239999999999
vn -0.330965 0.908106 0.2565239999999999
vn -0.330965 0.908107 0.2565239999999999
vn -0.330964 0.908107 0.2565239999999999
vn -0 6.123233995736766E-17 1
vn -0 6.123233995736766E-17 1
vn -0 -9.999999999387675E-07 1
vn -0 6.123233995736766E-17 1
vn -0.023383 -0.006264999999999938 0.999707
vn -0.023383 -0.006264999999999938 0.999707
vn -0.023383 -0.006264999999999938 0.999707
vn -0.023383 -0.006264999999999938 0.999707
vn -0.026844 -0.15224199999999993 0.987979
vn -0.026844 -0.15224099999999993 0.987979
vn -0.026844 -0.15224199999999993 0.987979
vn -0.026843 -0.15224199999999993 0.987979
vn 0.045064 -0.17526699999999995 0.983489
vn -1E-06 -0.18095599999999995 0.983491
vn 0.045064 -0.17526699999999995 0.983489
vn 0.090036 -0.16921699999999995 0.981458
vn 0.964534 -0.263951 0.0018980000000000162
vn 0.965925 -0.258824 -3.299999999998415E-05
vn 0.964534 -0.263951 0.0018980000000000162
vn 0.965925 -0.25882 -2.999999999984152E-06
vn 0.966773 -0.255593 0.004681000000000016
vn 0.965926 -0.258818 4.000000000015848E-06
vn 0.965469 -0.260111 -0.014590999999999984
vn -0.965469 0.260111 0.014590999999999984
vn 0.246518 0.920014 0.30463699999999994
vn 0.246518 0.920014 0.30463699999999994
vn 0.246518 0.920014 0.30463699999999994
vn 0.246518 0.920014 0.30463699999999994
vn 0.044944 0.16773200000000005 0.984808
vn -0.204684 -0.763887 0.61203
vn -0.204685 -0.763888 0.612028
vn 0.044944 0.16773200000000005 0.984808
vn -0.198265 -0.739939 0.642792
vn -0.040961 -0.15287099999999995 0.987397
vn 0.200838 0.749534 0.630763
vn 0.24321 0.90767 0.34202999999999995
vn -0.198265 -0.739938 0.642793
vn -0.132887 -0.49594299999999997 0.858127
vn 0.125902 0.46986900000000004 0.873712
vn 0.243211 0.907673 0.34202199999999994
vn -0.965926 0.258819 9.999999999841518E-07
vn -0.965926 0.258819 9.999999999841518E-07
vn -0.965926 0.258819 1.999999999984152E-06
vn -0.965926 0.258818 9.99999999984152E-07
vn -0.965926 0.258818 1.999999999984152E-06
vn -0.965926 0.258818 9.99999999984152E-07
vn 0.087156 0.996195 -6.099935090382987E-17
vn 0.087156 0.996195 -6.099935090382987E-17
vn 0.087156 0.996195 -6.099935090382987E-17
vn 0 6.123233995736766E-17 1
vn 0 6.123233995736766E-17 1
vn -0.996275 0.086234 -0.0008920000000000053
vn 0.087156 0.996195 -6.099935090382987E-17
vn 0.087156 0.996195 -6.099935090382987E-17
vn 0.087156 0.996195 -6.099935090382987E-17
vn 0.087156 0.996195 -6.099935090382987E-17
vn 0.087156 0.996195 -6.099935090382987E-17
vn -0.089327 -0.996002 -2.4999999999939015E-05
vn 0.243215 0.907671 0.34202299999999997
vn 0.243217 0.907671 0.34202199999999994
vn 0.243214 0.907672 0.34202299999999997
vn 0.243215 0.907671 0.34202299999999997
vn 0.157379 0.892539 0.42261799999999994
vn 0.157379 0.892539 0.42261699999999996
vn 0.157379 0.892539 0.42261799999999994
vn 0.157379 0.892539 0.42261799999999994
vn 0.081895 0.936116 0.34202199999999994
vn 0.081895 0.936116 0.34202199999999994
vn 0.081896 0.936116 0.34202199999999994
vn 0.081895 0.936116 0.34202199999999994
vn 0.408219 0.10938000000000006 0.906308
vn 0.408219 0.10938000000000006 0.906308
vn 0.408219 0.10937900000000006 0.906308
vn 0.408219 0.10938000000000006 0.906308
vn 0.408218 0.10938100000000006 0.906308
vn 0.408218 0.10938100000000006 0.906308
vn 0.408218 0.10938200000000005 0.906308
vn 0.408218 0.10938100000000006 0.906308
vn -0.925416 0.16317700000000002 0.34202
vn -0.925416 0.16317700000000002 0.34202
vn -0.925416 0.16317700000000002 0.34202
vn -0.925416 0.16317700000000002 0.34202
vn 0.311842 0.770311 0.556215
vn 0.311839 0.770313 0.556215
vn 0.311845 0.77031 0.556215
vn 0.311842 0.770311 0.556215
vn 0.943521 0.06455300000000001 0.324963
vn 0.94352 0.06456000000000002 0.324963
vn 0.943522 0.06454600000000002 0.324962
vn 0.943521 0.06455300000000001 0.324963
vn 0.875426 0.23457100000000003 0.422618
vn 0.875428 0.23456500000000002 0.422617
vn 0.875426 0.23457100000000003 0.422618
vn 0.875424 0.23457700000000004 0.422619
vn 0.799746 0.38029100000000005 0.464527
vn 0.799748 0.38028500000000004 0.464528
vn 0.799746 0.38029100000000005 0.464527
vn 0.799744 0.38029700000000005 0.464525
vn 0.263373 -0.932957 0.24541000000000004
vn 0.26337 -0.932957 0.24541100000000005
vn 0.263373 -0.932957 0.24541000000000004
vn 0.263375 -0.932956 0.24541000000000004
vn -0.739941 -0.620886 0.25882000000000005
vn -0.739941 -0.620886 0.25882000000000005
vn -0.739941 -0.620886 0.25882000000000005
vn -0.739942 -0.620885 0.25882000000000005
vn -0.648663 -0.708441 0.27811500000000006
vn -0.648663 -0.708441 0.27811500000000006
vn -0.648663 -0.708441 0.27811500000000006
vn -0.648664 -0.70844 0.27811500000000006
vn -0.963671 -0.08431299999999999 0.253437
vn -0.963671 -0.08431299999999999 0.253437
vn -0.963671 -0.08431299999999999 0.253437
vn -0.963671 -0.08431299999999999 0.253437
vn -0.948086 -0.07360899999999998 0.309379
vn -0.948084 -0.07361599999999999 0.309381
vn -0.948086 -0.07360899999999998 0.309379
vn -0.948087 -0.07360299999999999 0.309376
vn 0.944684 -0.08264899999999999 0.317398
vn 0.944684 -0.08264499999999998 0.317399
vn 0.944684 -0.08264899999999999 0.317398
vn 0.944683 -0.08265299999999999 0.317398
vn 0.474145 -0.821246 0.31739800000000007
vn 0.474146 -0.821246 0.31739800000000007
vn 0.474145 -0.821246 0.31739800000000007
vn 0.474144 -0.821247 0.31739800000000007
vn -0.043862 -0.015963999999999937 0.99891
vn -0.043862 -0.015963999999999937 0.99891
vn -0.043862 -0.015963999999999937 0.99891
vn -0.043862 -0.015963999999999937 0.99891
vn -0.020452 -0.01432099999999994 0.999688
vn -0.020452 -0.014319999999999939 0.999688
vn -0.020452 -0.01432099999999994 0.999688
vn -0.020452 -0.01432099999999994 0.999688
vn -0 6.123233995736766E-17 1
vn -0 1.0000000000612324E-06 1
vn 0 6.123233995736766E-17 1
vn -0 6.123233995736766E-17 1
vn 0 6.123233995736766E-17 1
vn -0 6.123233995736766E-17 1
vn 1E-06 6.123233995736766E-17 1
vn 0 6.123233995736766E-17 1
vn 0.002924 -0.01658399999999994 0.999858
vn 0.002924 -0.01658399999999994 0.999858
vn 0.002925 -0.016582999999999938 0.999858
vn 0.002924 -0.01658399999999994 0.999858
vn 0 6.123233995736766E-17 1
vn 0 1.0000000000612324E-06 1
vn -0 6.123233995736766E-17 1
vn 0 6.123233995736766E-17 1
vn 0.216633 0.07884900000000006 0.973064
vn 0.216633 0.07885000000000006 0.973064
vn 0.216633 0.07884900000000006 0.973064
vn 0.216633 0.07884900000000006 0.973064
vn 0.997441 -0.070889 0.009228000000000005
vn -0.070784 -0.99641 0.04644400000000006
vn 0.070349 0.996413 -0.047036000000000064
vn -0.997455 0.070657 -0.009553000000000004
vn 0.755388 -0.654319 0.03543900000000004
vn -0.655278 -0.754733 0.03145400000000005
vn 0.655276 0.754708 -0.03206700000000005
vn -0.755738 0.653898 -0.03573200000000004
vn -0.965926 0.258819 9.999999999841518E-07
vn -0.965926 0.258819 9.999999999841518E-07
vn -0.965925 0.25882 2.999999999984152E-06
vn -0.965925 0.25882 2.999999999984152E-06
vn -0.965925 0.25882 2.999999999984152E-06
vn -0.965925 0.258821 -1.0000000000158482E-06
vn -0.965926 0.258817 -2.9000000000015846E-05
vn -0.965926 0.25882 4.999999999984152E-06
vn -0.086706 -0.719847 0.688696
vn -0.086707 -0.719847 0.688696
vn -0.086706 -0.719847 0.688696
vn -0.086705 -0.719848 0.688696
vn 0.996271 -0.086282 3.800000000000529E-05
vn 0.996271 -0.086282 3.800000000000529E-05
vn 0.996312 -0.085809 -8.999999999994745E-06
vn 0.996195 -0.087158 5.336888286004251E-18
vn 0.996312 -0.085809 -8.999999999994745E-06
vn 0.996271 -0.086282 3.800000000000529E-05
vn -0.08671 -0.719847 0.688696
vn -0.086709 -0.719847 0.688696
vn -0.08671 -0.719847 0.688696
vn -0.08671 -0.719847 0.688696
vn -0.246518 -0.920014 -0.30463699999999994
vn -0.246518 -0.920014 -0.30463699999999994
vn -0.246518 -0.920014 -0.30463699999999994
vn -0.246518 -0.920014 -0.30463699999999994
vn 0.204684 0.763887 -0.61203
vn 0.204685 0.763888 -0.612028
vn 0.204684 0.763887 -0.61203
vn 0.204684 0.763887 -0.61203
vn 0.965925 -0.258821 1.0000000000158482E-06
vn 0.965925 -0.25882 -2.999999999984152E-06
vn 0.965926 -0.258817 2.9000000000015846E-05
vn 0.965926 -0.25882 -4.999999999984152E-06
vn 0.965925 -0.258821 1.0000000000158482E-06
vn 0.965925 -0.258821 1.0000000000158482E-06
vn 0.965926 -0.258819 -9.999999999841518E-07
vn 0.965926 -0.258819 -9.999999999841518E-07
vn -0.965925 0.25882 2.999999999984152E-06
vn -0.965925 0.25882 2.999999999984152E-06
vn -0.965925 0.258824 3.299999999998415E-05
vn -0.965925 0.258824 3.299999999998415E-05
vn -0.965469 0.260111 0.014590999999999984
vn -0.965469 0.260111 0.014590999999999984
vn -0.964534 0.263951 -0.0018980000000000162
vn -0.964534 0.263951 -0.0018980000000000162
vn -0.966591 0.25632 -0.0016080000000000157
vn -0.966591 0.25632 -0.0016080000000000157
vn -0.964534 0.263951 -0.0018980000000000162
vn -0.965925 0.25882 2.999999999984152E-06
vn -0.966591 0.25632 -0.0016080000000000157
vn -0.965925 0.258824 3.299999999998415E-05
vn 0.964534 -0.263951 0.0018980000000000162
vn -0.882117 -0.471027 0.0014780000000000288
vn -0.987752 0.151564 -0.03707400000000001
vn -0.153329 -0.986814 0.05184900000000006
vn 0.469753 -0.880514 0.06346000000000006
vn 0.98777 -0.151595 0.03646200000000001
vn 0.881928 0.47138 -0.002093000000000029
vn 0.152806 0.986878 -0.052177000000000064
vn -0.469938 0.880391 -0.06379400000000006
vn -0.988877 0.08524699999999999 -0.121884
vn -0.73718 0.66566 -0.11602900000000003
vn -0.665159 -0.745128 -0.04846499999999995
vn -0.090048 -0.995469 0.030552000000000062
vn 0.737256 -0.665681 0.11542200000000004
vn 0.988986 -0.08483199999999999 0.121287
vn 0.664797 0.745475 0.04809499999999995
vn 0.08987 0.995474 -0.03091200000000006
vn 0.322553 0.746531 0.581937
vn -0.555657 -0.605025 0.570254
vn 0.887344 0.09974400000000003 0.450191
vn -0.874092 0.319607 0.365806
vn -0.39172 -0.723772 0.568075
vn -0.328196 -0.642093 0.692823
vn 0.13363 -0.803199 0.58053
vn 0.16358 -0.06821999999999995 0.984168
vn -0.525433 0.20333700000000005 0.826181
vn 0.147879 -0.26044999999999996 0.954095
vn -0.561262 -0.530632 0.63515
vn -0.423411 0.55687 0.714576
vn -0.371074 -0.645086 0.667959
vn -0.426773 -0.27175199999999994 0.862563
vn -0.626374 0.47168400000000005 0.620621
vn 0.226848 -0.22526899999999994 0.94752
vn -0.36254 0.10327800000000005 0.926228
vn 0.582586 -0.662636 0.47064500000000004
vn 0.887805 -0.15193499999999996 0.434418
vn -0.86035 -0.04260799999999997 0.50792
vn -0.759755 0.43092800000000003 0.486902
vn -0.569683 0.747866 0.3408189999999999
vn -0.511661 -0.10554599999999995 0.85268
vn 0.239276 0.10444900000000006 0.965317
vn -0.819766 -0.30189799999999994 0.486663
vn -0.838684 -0.25855899999999993 0.479329
vn 0.81484 0.19446900000000003 0.546093
vn 0.788405 0.34996200000000005 0.50591
vn -0.145263 0.839245 0.523991
vn -0.311667 0.45989100000000005 0.831483
vn -0.099106 -0.842522 0.529466
vn -0.561027 0.36311800000000005 0.743905
vn -0.681241 0.029408000000000045 0.731468
vn -0.634432 0.3937800000000001 0.665157
vn -0.701242 0.015852000000000047 0.712747
vn -0.40656 -0.589537 0.697965
vn -0.671875 -0.046100999999999955 0.739228
vn 0.068132 0.14314400000000005 0.987354
vn -0.077169 -0.018312999999999937 0.99685
vn 0.230395 -0.11823899999999994 0.965887
vn 0.571958 -0.4598229999999999 0.679283
vn -0.731824 0.52386 0.43589599999999995
vn 0.223895 -0.29326899999999995 0.929443
vn -0.564059 -0.614492 0.551577
vn 0.072294 0.12916800000000006 0.988984
vn 0.007438 0.0005380000000000612 0.999972
vn 0.204219 0.936629 0.28464199999999995
vn -0.856721 -0.0016989999999999683 0.515778
vn -0.84429 0.01723100000000003 0.53561
vn 0.024783 0.04095600000000006 0.998854
vn 0.249518 -0.02890699999999994 0.967939
vn 0.587365 -0.32454299999999997 0.7414
vn 0.837564 -0.24486399999999997 0.488394
vn -0.397446 0.06089200000000006 0.915603
vn -0.894789 -0.015531999999999973 0.446218
vn 0.20132 0.665252 0.718964
vn 0.261856 -0.044423999999999936 0.964084
vn -0.02285 -0.01924099999999994 0.999554
vn -0.737155 -0.31260399999999994 0.599067
vn 0.352873 0.856379 0.37695499999999993
vn 0.399164 0.33978800000000003 0.851594
vn 0.112786 0.878248 0.46471599999999996
vn 0.244476 0.3783480000000001 0.892796
vn -0.17122 -0.0046089999999999395 0.985222
vn 0.09023 -0.11923099999999995 0.988758
vn -0.48842 0.04775800000000006 0.871301
vn 0.187727 0.966314 0.17605599999999993
vn 0.224584 0.929551 0.29239899999999996
vn 0.848915 0.388039 0.358845
vn 0.003475 -0.603667 0.797229
vn -0.219906 -0.17183399999999993 0.960268
vn -0.034873 0.08312800000000005 0.995929
vn -0.139988 -0.49790399999999996 0.855859
vn 0.186464 0.08693200000000005 0.978608
vn 0.249473 0.12335700000000005 0.960493
vn 0.007346 0.35035200000000005 0.936589
vn 0.457606 -0.48936099999999993 0.742377
vn -0.305478 0.553514 0.774794
vn -0.739814 0.32686600000000005 0.588077
vn 0.186238 -0.3903190000000001 -0.901647
vn 0.041273 0.22035600000000005 0.974546
vn 0.57781 -0.14655999999999994 0.802905
vn 0.239139 0.06584600000000006 0.96875
vn 0.510633 0.0055520000000000526 0.859781
vn -0.363045 -0.021827999999999945 0.931516
vn -0.808873 0.055963000000000034 0.585314
vn 0.836516 -0.482963 0.2588190000000001
vn 0.836516 -0.482963 0.2588190000000001
vn 0.836516 -0.482963 0.2588190000000001
vn 0.836516 -0.482963 0.2588190000000001
vn -0.836516 0.482963 -0.2588190000000001
vn -0.836516 0.482963 -0.2588190000000001
vn -0.836516 0.482963 -0.2588190000000001
vn -0.836516 0.482964 -0.25882000000000005
vn 0.378192 -0.21834699999999996 0.899609
vn 0.86381 -0.498702 0.07161300000000002
vn 0.77909 -0.449793 0.436698
vn 0.062015 -0.035806999999999936 0.997433
vn -0.485611 0.28036700000000003 0.827996
vn -0.717066 0.41399600000000003 0.560735
vn -0.863806 0.49871 -0.07161200000000002
vn -0.779089 0.449794 -0.436699
vn -0.612377 0.35354499999999994 -0.707107
vn -0.612376 0.3535499999999999 -0.707105
vn 0.836523 -0.482953 -0.25881699999999996
vn 0.836524 -0.48295 -0.25881799999999994
vn 0.378193 -0.21834899999999993 0.899607
vn 0.863802 -0.498716 0.07161200000000002
vn 0.779088 -0.449799 0.436695
vn 0.062017 -0.035806999999999936 0.997433
vn -0.485609 0.28037100000000004 0.827995
vn -0.717063 0.41400400000000004 0.560733
vn -0.863799 0.498721 -0.07161300000000002
vn -0.779084 0.449805 -0.436696
vn -0.612376 0.35355099999999995 -0.707105
vn -0.612376 0.3535499999999999 -0.707105
vn 0.836507 -0.482984 -0.25881099999999996
vn 0.836514 -0.482967 -0.25881799999999994
vn 0.43301 -0.24999899999999994 0.866027
vn 0.43301 -0.24999899999999994 0.866027
vn 0.43301 -0.24999899999999994 0.866027
vn 0.433009 -0.24999899999999994 0.866028
vn -0.749998 0.43301300000000004 0.500002
vn -0.749992 0.43301100000000003 0.500013
vn 0.195062 0.703881 0.68301
vn 0.195065 0.703884 0.683006
vn 0.195062 0.703881 0.68301
vn 0.19506 0.703878 0.683013
vn -0.512047 -0.520868 0.683011
vn -0.51205 -0.52088 0.683
vn -0.911482 0.407232 0.05798199999999997
vn -0.484239 0.874419 0.03007199999999995
vn -0.407502 -0.912816 0.026613000000000057
vn -0.871947 -0.48637 0.05614800000000003
vn 0.911541 -0.407119 -0.05785099999999997
vn 0.484258 -0.874399 -0.030356999999999947
vn 0.871892 0.486471 -0.05612300000000003
vn 0.407461 0.912823 -0.027009000000000054
vn 0.061636 6.11159372791087E-17 0.998099
vn 0.061636 6.11159372791087E-17 0.998099
vn 0.061636 6.11159372791087E-17 0.998099
vn 0.061636 -9.99999999938884E-07 0.998099
vn 0.965469 -0.260111 -0.014590999999999984
vn 0.965469 -0.260111 -0.014590999999999984
vn 0.965925 -0.258824 -3.299999999998415E-05
vn 0.965925 -0.258824 -3.299999999998415E-05
vn 0.966773 -0.255593 0.004681000000000016
vn 0.966773 -0.255593 0.004681000000000016
vn 0.965926 -0.258818 4.000000000015848E-06
vn -0.966249 0.257508 -0.0072730000000000156
vn -0.966249 0.257508 -0.0072730000000000156
vn -0.966249 0.257508 -0.0072730000000000156
vn 0.044944 0.16773200000000005 0.984808
vn 0.044944 0.16773200000000005 0.984808
vn -0.204685 -0.763888 0.612028
vn -0.204685 -0.763888 0.612028
vn 0 6.123233995736766E-17 1
vn 0 6.123233995736766E-17 1
vn -0.996195 0.087156 -5.336765821324336E-18
vn -0.996195 0.087156 -5.336765821324336E-18
vn -0.996195 0.087156 -5.336765821324336E-18
vn -0.996275 0.086234 -0.0008920000000000053
vn -0.996275 0.086234 -0.0008920000000000053
vn 0 6.123233995736766E-17 1
vn 0 6.123233995736766E-17 1
vn 0 6.123233995736766E-17 1
vn 0 6.123233995736766E-17 1
vn -0.996321 0.085698 -5.2474890696664936E-18
vn -0.996321 0.085698 -5.2474890696664936E-18
vn -0.996321 0.085698 -5.2474890696664936E-18
vn -0.996321 0.085698 -5.2474890696664936E-18
vn -0.089327 -0.996002 -2.4999999999939015E-05
vn -0.089327 -0.996002 -2.4999999999939015E-05
vn -0.089311 -0.996004 -9.999999999390123E-07
vn 0.996346 -0.085389 0.0017110000000000053
vn 0.996346 -0.085389 0.0017110000000000053
vn 0.996346 -0.085389 0.0017110000000000053
vn 0.996195 -0.087158 5.336888286004251E-18
vn 0.997441 -0.070889 0.009228000000000005
vn 0.755388 -0.654319 0.03543900000000004
vn 0.070349 0.996413 -0.047036000000000064
vn 0.655276 0.754708 -0.03206700000000005
vn -0.997455 0.070657 -0.009553000000000004
vn -0.755738 0.653898 -0.03573200000000004
vn -0.655278 -0.754733 0.03145400000000005
vn -0.070784 -0.99641 0.04644400000000006
vn -0 0.059317000000000064 0.998239
vn 0 0.059317000000000064 0.998239
vn -0 0.059317000000000064 0.998239
vn -0 0.059317000000000064 0.998239
vn 0.469753 -0.880514 0.06346000000000006
vn -0.153329 -0.986814 0.05184900000000006
vn 0.881928 0.47138 -0.002093000000000029
vn 0.98777 -0.151595 0.03646200000000001
vn -0.469938 0.880391 -0.06379400000000006
vn 0.152806 0.986878 -0.052177000000000064
vn -0.987752 0.151564 -0.03707400000000001
vn -0.882117 -0.471027 0.0014780000000000288
vn -0.01499 0.058256000000000065 0.998189
vn -0.01499 0.058256000000000065 0.998189
vn -0.01499 0.058256000000000065 0.998189
vn -0.01499 0.058256000000000065 0.998189
vn -0.090048 -0.995469 0.030552000000000062
vn -0.665159 -0.745128 -0.04846499999999995
vn 0.988986 -0.08483199999999999 0.121287
vn 0.737256 -0.665681 0.11542200000000004
vn 0.08987 0.995474 -0.03091200000000006
vn 0.664797 0.745475 0.04809499999999995
vn -0.73718 0.66566 -0.11602900000000003
vn -0.988877 0.08524699999999999 -0.121884
vn -0.106565 0.03510800000000006 0.993686
vn -0.106565 0.03510700000000006 0.993686
vn -0.106565 0.03510800000000006 0.993686
vn -0.106565 0.03510800000000006 0.993686
vn 0.147879 -0.26044999999999996 0.954095
vn -0.525433 0.20333700000000005 0.826181
vn -0.511661 -0.10554599999999995 0.85268
vn 0.788405 0.34996200000000005 0.50591
vn -0.1204 -0.39167699999999994 0.912191
vn -0.068267 -0.37573799999999996 0.924208
vn -0.156093 -0.25566399999999995 0.954081
vn -0.120488 -0.16407199999999994 0.979062
vn -0.001239 0.04969000000000006 0.998764
vn 0.399164 0.33978800000000003 0.851594
vn 0.003475 -0.603667 0.797229
vn 0.036177 0.14920600000000006 0.988144
vn -0.095675 0.05845600000000006 0.993695
vn 0.170829 0.968816 0.17947899999999994
vn 0.170829 0.968816 0.17947899999999994
vn 0.170829 0.968816 0.17947899999999994
vn 0.038332 0.962405 0.26890099999999995
vn 0.038332 0.962405 0.26890099999999995
vn 0.038332 0.962405 0.26890099999999995
vn -0.071021 -0.3967629999999999 0.915169
vn -0.07012 -0.39766999999999997 0.914845
vn -0.139988 -0.49790399999999996 0.855859
vn 0.112786 0.878248 0.46471599999999996
vn 0.57781 -0.14655999999999994 0.802905
vn 0.510633 0.0055520000000000526 0.859781
vn -0.363045 -0.021827999999999945 0.931516
vn -0.808873 0.055963000000000034 0.585314
vn -0.39172 -0.723772 0.568075
vn -0.874092 0.319607 0.365806
vn 0.887344 0.09974400000000003 0.450191
vn 0.147879 -0.26044999999999996 0.954095
vn -0.819766 -0.30189799999999994 0.486663
vn 0.187727 0.966314 0.17605599999999993
vn 0.204219 0.936629 0.28464199999999995
vn 0.500004 0.866023 1.9999999999469714E-06
vn 0.500017 0.866016 6.999999999946971E-06
vn 0.500004 0.866023 1.9999999999469714E-06
vn 0.499991 0.866031 -3.000000000053029E-06
vn -0.224141 0.12940800000000005 0.965927
vn -0.224141 0.12940800000000005 0.965927
vn -0.224141 0.12940800000000005 0.965927
vn -0.224142 0.12940800000000005 0.965927
vn -0.499996 -0.866028 1.0000000000530289E-06
vn -0.499993 -0.86603 2.000000000053029E-06
vn -0.499996 -0.866028 1.0000000000530289E-06
vn -0.5 -0.866025 5.3028737211579333E-17
vn -0.500001 -0.866025 -1.999999999946971E-06
vn -0.5 -0.866026 -4.999999999946972E-06
vn -0.499999 -0.866026 -1.999999999946971E-06
vn -0.499996 -0.866028 5.30289209085992E-17
vn -0.5 -0.866026 -9.999999999469712E-07
vn -0.500001 -0.866025 1.0000000000530287E-06
vn 0.499999 0.866026 9.999999999469712E-07
vn 0.499996 0.866028 -5.30289209085992E-17
vn 0.500002 0.866024 -2.0000000000530284E-06
vn 0.500009 0.86602 -8.000000000053027E-06
vn 0.500003 0.866024 -2.0000000000530284E-06
vn 0.5 0.866026 -5.3028798443919284E-17
vn -0.500005 -0.866023 2.0000000000530284E-06
vn -0.500013 -0.866018 1.0000000000053028E-05
vn -0.500004 -0.866023 1.0000000000530287E-06
vn -0.499997 -0.866027 -1.999999999946971E-06
vn -0.499999 -0.866026 -1.999999999946971E-06
vn -0.5 -0.866025 1.0000000000530287E-06
vn 0.500003 0.866024 -5.302867597923937E-17
vn 0.50001 0.866019 3.999999999946971E-06
vn 0.500003 0.866024 1.9999999999469714E-06
vn 0.5 0.866026 1.999999999946971E-06
vn 0.499999 0.866026 -1.0000000000530287E-06
vn 0.499998 0.866026 -7.000000000053028E-06
vn -0.750004 0.43301500000000004 0.499991
vn -0.749998 0.43301300000000004 0.500002
vn -0.512045 -0.520855 0.683023
vn -0.512047 -0.520868 0.683011
vn 0.226848 -0.22526899999999994 0.94752
vn -0.426773 -0.27175199999999994 0.862563
vn -0.426773 -0.27175199999999994 0.862563
vn -0.36254 0.10327800000000005 0.926228
vn -0.36254 0.10327800000000005 0.926228
vn 0.226848 -0.22526899999999994 0.94752
vn 0.147879 -0.26044999999999996 0.954095
vn -0.36254 0.10327800000000005 0.926228
vn 0.147879 -0.26044999999999996 0.954095
vn 0.239276 0.10444900000000006 0.965317
vn 0.239276 0.10444900000000006 0.965317
vn -0.511661 -0.10554599999999995 0.85268
vn -0.311667 0.45989100000000005 0.831483
vn -0.311667 0.45989100000000005 0.831483
vn 0.16358 -0.06821999999999995 0.984168
vn 0.848915 0.388039 0.358845
vn -0.731824 0.52386 0.43589599999999995
vn 0.244476 0.3783480000000001 0.892796
vn -0.17122 -0.0046089999999999395 0.985222
vn 0.20132 0.665252 0.718964
vn -0.17122 -0.0046089999999999395 0.985222
vn -0.17122 -0.0046089999999999395 0.985222
vn 0.09023 -0.11923099999999995 0.988758
vn -0.17122 -0.0046089999999999395 0.985222
vn -0.48842 0.04775800000000006 0.871301
vn 0.20132 0.665252 0.718964
vn -0.219906 -0.17183399999999993 0.960268
vn 0.399164 0.33978800000000003 0.851594
vn -0.219906 -0.17183399999999993 0.960268
vn 0.249473 0.12335700000000005 0.960493
vn 0.007346 0.35035200000000005 0.936589
vn 0.457606 -0.48936099999999993 0.742377
vn 0.57781 -0.14655999999999994 0.802905
vn 0.249473 0.12335700000000005 0.960493
vn 0.249473 0.12335700000000005 0.960493
vn 0.09023 -0.11923099999999995 0.988758
vn 0.09023 -0.11923099999999995 0.988758
vn -0.363045 -0.021827999999999945 0.931516
vn -0.363045 -0.021827999999999945 0.931516
vn -0.363045 -0.021827999999999945 0.931516
vn 0.239276 0.10444900000000006 0.965317
vn 0.239276 0.10444900000000006 0.965317
vn 0.239276 0.10444900000000006 0.965317
vn -0.525433 0.20333700000000005 0.826181
vn 0.16358 -0.06821999999999995 0.984168
vn -0.511661 -0.10554599999999995 0.85268
vn -0.511661 -0.10554599999999995 0.85268
vn 0.16358 -0.06821999999999995 0.984168
vn 0.007346 0.35035200000000005 0.936589
g vdvd
f 399/399/399 400/400/400 558/558/558
f 558/558/558 557/557/557 399/399/399
f 395/395/395 398/398/398 397/397/397
f 397/397/397 396/396/396 395/395/395
f 393/393/393 394/394/394 556/556/556
f 556/556/556 555/555/555 393/393/393
f 389/389/389 392/392/392 391/391/391
f 391/391/391 390/390/390 389/389/389
f 554/554/554 553/553/553 549/549/549
f 553/553/553 551/551/551 549/549/549
f 553/553/553 552/552/552 551/551/551
f 551/551/551 550/550/550 549/549/549
f 548/548/548 547/547/547 543/543/543
f 547/547/547 545/545/545 543/543/543
f 547/547/547 546/546/546 545/545/545
f 545/545/545 544/544/544 543/543/543
f 378/378/378 379/379/379 388/388/388
f 388/388/388 387/387/387 378/378/378
f 385/385/385 386/386/386 384/384/384
f 384/384/384 383/383/383 385/385/385
f 383/383/383 384/384/384 382/382/382
f 382/382/382 381/381/381 383/383/383
f 381/381/381 382/382/382 380/380/380
f 380/380/380 377/377/377 381/381/381
f 377/377/377 380/380/380 379/379/379
f 379/379/379 378/378/378 377/377/377
f 542/542/542 541/541/541 537/537/537
f 541/541/541 539/539/539 537/537/537
f 541/541/541 540/540/540 539/539/539
f 539/539/539 538/538/538 537/537/537
f 536/536/536 535/535/535 531/531/531
f 535/535/535 533/533/533 531/531/531
f 535/535/535 534/534/534 533/533/533
f 533/533/533 532/532/532 531/531/531
f 366/366/366 367/367/367 376/376/376
f 376/376/376 375/375/375 366/366/366
f 373/373/373 374/374/374 372/372/372
f 372/372/372 371/371/371 373/373/373
f 371/371/371 372/372/372 370/370/370
f 370/370/370 369/369/369 371/371/371
f 369/369/369 370/370/370 368/368/368
f 368/368/368 365/365/365 369/369/369
f 365/365/365 368/368/368 367/367/367
f 367/367/367 366/366/366 365/365/365
f 527/527/527 530/530/530 529/529/529
f 529/529/529 528/528/528 527/527/527
f 523/523/523 526/526/526 525/525/525
f 525/525/525 524/524/524 523/523/523
f 519/519/519 522/522/522 521/521/521
f 521/521/521 520/520/520 519/519/519
f 361/361/361 364/364/364 363/363/363
f 363/363/363 362/362/362 361/361/361
f 357/357/357 360/360/360 359/359/359
f 359/359/359 358/358/358 357/357/357
f 607/607/607 508/508/508 344/344/344
f 300/300/300 299/299/299 302/302/302
f 299/299/299 282/282/282 302/302/302
f 316/316/316 315/315/315 328/328/328
f 336/336/336 321/321/321 320/320/320
f 320/320/320 324/324/324 336/336/336
f 326/326/326 330/330/330 338/338/338
f 330/330/330 507/507/507 338/338/338
f 507/507/507 518/518/518 517/517/517
f 517/517/517 338/338/338 507/507/507
f 283/283/283 301/301/301 272/272/272
f 272/272/272 606/606/606 283/283/283
f 272/272/272 516/516/516 605/605/605
f 604/604/604 603/603/603 272/272/272
f 602/602/602 515/515/515 601/601/601
f 514/514/514 297/297/297 600/600/600
f 599/599/599 515/515/515 514/514/514
f 303/303/303 279/279/279 513/513/513
f 513/513/513 292/292/292 303/303/303
f 512/512/512 280/280/280 303/303/303
f 303/303/303 281/281/281 512/512/512
f 598/598/598 335/335/335 354/354/354
f 349/349/349 511/511/511 597/597/597
f 596/596/596 345/345/345 349/349/349
f 335/335/335 322/322/322 354/354/354
f 595/595/595 510/510/510 356/356/356
f 356/356/356 319/319/319 594/594/594
f 593/593/593 355/355/355 509/509/509
f 509/509/509 508/508/508 592/592/592
f 351/351/351 344/344/344 353/353/353
f 347/347/347 344/344/344 508/508/508
f 591/591/591 350/350/350 590/590/590
f 347/347/347 353/353/353 344/344/344
f 508/508/508 589/589/589 588/588/588
f 344/344/344 351/351/351 348/348/348
f 348/348/348 346/346/346 344/344/344
f 346/346/346 348/348/348 349/349/349
f 349/349/349 345/345/345 346/346/346
f 494/494/494 507/507/507 330/330/330
f 330/330/330 587/587/587 586/586/586
f 585/585/585 330/330/330 326/326/326
f 341/341/341 584/584/584 329/329/329
f 329/329/329 314/314/314 341/341/341
f 495/495/495 341/341/341 314/314/314
f 314/314/314 506/506/506 495/495/495
f 313/313/313 340/340/340 343/343/343
f 343/343/343 342/342/342 313/313/313
f 504/504/504 505/505/505 489/489/489
f 489/489/489 490/490/490 504/504/504
f 503/503/503 502/502/502 501/501/501
f 500/500/500 499/499/499 498/498/498
f 491/491/491 492/492/492 328/328/328
f 497/497/497 324/324/324 320/320/320
f 333/333/333 310/310/310 321/321/321
f 321/321/321 583/583/583 333/333/333
f 582/582/582 581/581/581 319/319/319
f 319/319/319 318/318/318 580/580/580
f 579/579/579 318/318/318 329/329/329
f 329/329/329 578/578/578 577/577/577
f 327/327/327 496/496/496 352/352/352
f 352/352/352 354/354/354 327/327/327
f 322/322/322 311/311/311 327/327/327
f 333/333/333 313/313/313 310/310/310
f 341/341/341 495/495/495 494/494/494
f 493/493/493 491/491/491 328/328/328
f 315/315/315 308/308/308 493/493/493
f 493/493/493 328/328/328 315/315/315
f 316/316/316 328/328/328 492/492/492
f 309/309/309 316/316/316 492/492/492
f 333/333/333 331/331/331 340/340/340
f 340/340/340 313/313/313 333/333/333
f 333/333/333 317/317/317 332/332/332
f 332/332/332 331/331/331 333/333/333
f 489/489/489 492/492/492 491/491/491
f 491/491/491 490/490/490 489/489/489
f 324/324/324 325/325/325 336/336/336
f 312/312/312 576/576/576 336/336/336
f 336/336/336 325/325/325 575/575/575
f 335/335/335 334/334/334 323/323/323
f 334/334/334 326/326/326 339/339/339
f 574/574/574 323/323/323 334/334/334
f 322/322/322 335/335/335 323/323/323
f 323/323/323 311/311/311 322/322/322
f 322/322/322 327/327/327 354/354/354
f 337/337/337 317/317/317 333/333/333
f 333/333/333 312/312/312 337/337/337
f 326/326/326 338/338/338 339/339/339
f 283/283/283 302/302/302 307/307/307
f 307/307/307 276/276/276 283/283/283
f 277/277/277 284/284/284 306/306/306
f 284/284/284 305/305/305 306/306/306
f 283/283/283 573/573/573 572/572/572
f 571/571/571 302/302/302 283/283/283
f 488/488/488 570/570/570 569/569/569
f 568/568/568 297/297/297 488/488/488
f 278/278/278 487/487/487 298/298/298
f 298/298/298 271/271/271 278/278/278
f 294/294/294 296/296/296 274/274/274
f 274/274/274 486/486/486 294/294/294
f 304/304/304 303/303/303 292/292/292
f 567/567/567 275/275/275 290/290/290
f 290/290/290 566/566/566 565/565/565
f 291/291/291 564/564/564 563/563/563
f 562/562/562 290/290/290 291/291/291
f 485/485/485 287/287/287 289/289/289
f 289/289/289 273/273/273 485/485/485
f 288/288/288 286/286/286 561/561/561
f 560/560/560 277/277/277 288/288/288
f 283/283/283 276/276/276 301/301/301
f 284/284/284 559/559/559 291/291/291
f 291/291/291 285/285/285 284/284/284
f 289/289/289 287/287/287 286/286/286
f 286/286/286 288/288/288 289/289/289
f 296/296/296 294/294/294 293/293/293
f 293/293/293 295/295/295 296/296/296
f 300/300/300 278/278/278 271/271/271
f 271/271/271 299/299/299 300/300/300
f 304/304/304 281/281/281 303/303/303
f 285/285/285 305/305/305 284/284/284
f 302/302/302 282/282/282 307/307/307
f 303/303/303 280/280/280 279/279/279
f 481/481/481 484/484/484 483/483/483
f 483/483/483 482/482/482 481/481/481
f 477/477/477 480/480/480 479/479/479
f 479/479/479 478/478/478 477/477/477
f 475/475/475 270/270/270 269/269/269
f 269/269/269 476/476/476 475/475/475
f 473/473/473 268/268/268 267/267/267
f 267/267/267 474/474/474 473/473/473
f 263/263/263 266/266/266 265/265/265
f 265/265/265 264/264/264 263/263/263
f 469/469/469 472/472/472 471/471/471
f 471/471/471 470/470/470 469/469/469
f 465/465/465 468/468/468 467/467/467
f 467/467/467 466/466/466 465/465/465
f 463/463/463 262/262/262 261/261/261
f 261/261/261 464/464/464 463/463/463
f 461/461/461 260/260/260 259/259/259
f 259/259/259 462/462/462 461/461/461
f 255/255/255 258/258/258 257/257/257
f 257/257/257 256/256/256 255/255/255
f 236/236/236 235/235/235 238/238/238
f 238/238/238 239/239/239 236/236/236
f 233/233/233 234/234/234 232/232/232
f 234/234/234 235/235/235 232/232/232
f 235/235/235 236/236/236 232/232/232
f 236/236/236 237/237/237 232/232/232
f 228/228/228 229/229/229 230/230/230
f 230/230/230 231/231/231 228/228/228
f 224/224/224 225/225/225 226/226/226
f 226/226/226 227/227/227 224/224/224
f 220/220/220 223/223/223 222/222/222
f 222/222/222 221/221/221 220/220/220
f 210/210/210 213/213/213 212/212/212
f 212/212/212 211/211/211 210/210/210
f 209/209/209 202/202/202 203/203/203
f 203/203/203 208/208/208 209/209/209
f 207/207/207 209/209/209 206/206/206
f 209/209/209 208/208/208 206/206/206
f 208/208/208 204/204/204 206/206/206
f 204/204/204 205/205/205 206/206/206
f 457/457/457 460/460/460 459/459/459
f 459/459/459 458/458/458 457/457/457
f 453/453/453 456/456/456 455/455/455
f 455/455/455 454/454/454 453/453/453
f 451/451/451 197/197/197 201/201/201
f 201/201/201 452/452/452 451/451/451
f 449/449/449 196/196/196 200/200/200
f 200/200/200 450/450/450 449/449/449
f 195/195/195 194/194/194 198/198/198
f 198/198/198 199/199/199 195/195/195
f 217/217/217 448/448/448 214/214/214
f 447/447/447 446/446/446 445/445/445
f 218/218/218 216/216/216 215/215/215
f 215/215/215 219/219/219 214/214/214
f 190/190/190 193/193/193 192/192/192
f 192/192/192 191/191/191 190/190/190
f 186/186/186 188/188/188 189/189/189
f 189/189/189 187/187/187 186/186/186
f 182/182/182 184/184/184 185/185/185
f 185/185/185 183/183/183 182/182/182
f 178/178/178 180/180/180 181/181/181
f 181/181/181 179/179/179 178/178/178
f 174/174/174 176/176/176 177/177/177
f 177/177/177 175/175/175 174/174/174
f 170/170/170 172/172/172 173/173/173
f 173/173/173 171/171/171 170/170/170
f 166/166/166 168/168/168 169/169/169
f 169/169/169 167/167/167 166/166/166
f 162/162/162 163/163/163 164/164/164
f 164/164/164 165/165/165 162/162/162
f 158/158/158 159/159/159 160/160/160
f 160/160/160 161/161/161 158/158/158
f 154/154/154 155/155/155 156/156/156
f 156/156/156 157/157/157 154/154/154
f 150/150/150 151/151/151 152/152/152
f 152/152/152 153/153/153 150/150/150
f 146/146/146 147/147/147 148/148/148
f 148/148/148 149/149/149 146/146/146
f 142/142/142 143/143/143 144/144/144
f 144/144/144 145/145/145 142/142/142
f 138/138/138 139/139/139 140/140/140
f 140/140/140 141/141/141 138/138/138
f 134/134/134 135/135/135 136/136/136
f 136/136/136 137/137/137 134/134/134
f 130/130/130 131/131/131 132/132/132
f 132/132/132 133/133/133 130/130/130
f 126/126/126 128/128/128 129/129/129
f 129/129/129 127/127/127 126/126/126
f 122/122/122 124/124/124 125/125/125
f 125/125/125 123/123/123 122/122/122
f 118/118/118 121/121/121 120/120/120
f 120/120/120 119/119/119 118/118/118
f 114/114/114 116/116/116 117/117/117
f 117/117/117 115/115/115 114/114/114
f 110/110/110 112/112/112 113/113/113
f 113/113/113 111/111/111 110/110/110
f 106/106/106 107/107/107 109/109/109
f 109/109/109 108/108/108 106/106/106
f 102/102/102 104/104/104 105/105/105
f 105/105/105 103/103/103 102/102/102
f 98/98/98 100/100/100 101/101/101
f 101/101/101 99/99/99 98/98/98
f 442/442/442 444/444/444 97/97/97
f 97/97/97 443/443/443 442/442/442
f 438/438/438 441/441/441 440/440/440
f 440/440/440 439/439/439 438/438/438
f 434/434/434 437/437/437 436/436/436
f 436/436/436 435/435/435 434/434/434
f 433/433/433 91/91/91 432/432/432
f 431/431/431 430/430/430 429/429/429
f 90/90/90 428/428/428 427/427/427
f 427/427/427 89/89/89 90/90/90
f 87/87/87 86/86/86 95/95/95
f 95/95/95 94/94/94 87/87/87
f 96/96/96 88/88/88 93/93/93
f 93/93/93 92/92/92 96/96/96
f 80/80/80 81/81/81 85/85/85
f 81/81/81 83/83/83 85/85/85
f 81/81/81 82/82/82 83/83/83
f 83/83/83 84/84/84 85/85/85
f 74/74/74 75/75/75 79/79/79
f 79/79/79 78/78/78 74/74/74
f 73/73/73 74/74/74 78/78/78
f 78/78/78 77/77/77 73/73/73
f 72/72/72 73/73/73 77/77/77
f 77/77/77 76/76/76 72/72/72
f 425/425/425 69/69/69 70/70/70
f 70/70/70 426/426/426 425/425/425
f 423/423/423 68/68/68 71/71/71
f 71/71/71 424/424/424 423/423/423
f 64/64/64 65/65/65 66/66/66
f 66/66/66 67/67/67 64/64/64
f 252/252/252 249/249/249 248/248/248
f 422/422/422 421/421/421 420/420/420
f 416/416/416 61/61/61 419/419/419
f 60/60/60 418/418/418 417/417/417
f 250/250/250 247/247/247 246/246/246
f 63/63/63 245/245/245 244/244/244
f 253/253/253 243/243/243 242/242/242
f 240/240/240 251/251/251 241/241/241
f 59/59/59 57/57/57 415/415/415
f 57/57/57 416/416/416 415/415/415
f 62/62/62 414/414/414 413/413/413
f 254/254/254 56/56/56 58/58/58
f 52/52/52 55/55/55 54/54/54
f 54/54/54 53/53/53 52/52/52
f 48/48/48 51/51/51 50/50/50
f 50/50/50 49/49/49 48/48/48
f 44/44/44 46/46/46 47/47/47
f 47/47/47 45/45/45 44/44/44
f 40/40/40 42/42/42 43/43/43
f 43/43/43 41/41/41 40/40/40
f 36/36/36 37/37/37 38/38/38
f 38/38/38 39/39/39 36/36/36
f 32/32/32 33/33/33 34/34/34
f 34/34/34 35/35/35 32/32/32
f 28/28/28 29/29/29 30/30/30
f 30/30/30 31/31/31 28/28/28
f 409/409/409 412/412/412 411/411/411
f 411/411/411 410/410/410 409/409/409
f 405/405/405 408/408/408 407/407/407
f 407/407/407 406/406/406 405/405/405
f 403/403/403 23/23/23 27/27/27
f 27/27/27 404/404/404 403/403/403
f 401/401/401 22/22/22 26/26/26
f 26/26/26 402/402/402 401/401/401
f 20/20/20 21/21/21 25/25/25
f 25/25/25 24/24/24 20/20/20
f 16/16/16 17/17/17 19/19/19
f 19/19/19 18/18/18 16/16/16
f 12/12/12 13/13/13 15/15/15
f 15/15/15 14/14/14 12/12/12
f 11/11/11 9/9/9 8/8/8
f 7/7/7 10/10/10 11/11/11
f 11/11/11 8/8/8 7/7/7
f 6/6/6 5/5/5 10/10/10
f 10/10/10 7/7/7 6/6/6
f 2/2/2 1/1/1 4/4/4
f 4/4/4 3/3/3 2/2/2
