v 0.110756328 0.882529992 -0.020840784000000053
v 0.15660794400000003 0.7712144160000001 -0.020840808000000047
v 0.133682136 0.8268722639999999 0.291914544
v 0.02208612 0.880299672 0.13553687999999992
v 0.242874576 0.687365976 0.13553685599999996
v 0.078164616 0.978133848 -0.02426858400000006
v 0.12005688 0.8443493999999999 -0.02426858400000005
v 0.099110736 0.9112416720000001 0.33992716799999995
v -0.024923088 0.984545832 0.15782930399999995
v 0.21162007200000002 0.738326208 0.15782927999999996
v 0.1759608 0.935188392 0.004513319999999943
v 0.139517112 0.8655161039999999 0.004513319999999947
v 0.157738992 0.9003521999999999 0.20877880799999995
v 0.13761984 0.978615048 0.10664606399999993
v 0.13378250400000002 0.787154664 0.10664603999999996
v 0.200832768 0.86797056 0.004513319999999947
v 0.171571008 0.8166643920000001 0.00451331999999995
v 0.186201888 0.84231756 0.20877880799999995
v 0.15835389600000002 0.8969577120000001 0.10664606399999993
v 0.17371855200000003 0.760687224 0.10664603999999996
v 0.1538406 0.894907848 -0.015249384000000057
v 0.20599744800000003 0.86153568 -0.015249384000000055
v 0.179919 0.8782217999999999 0.228541488
v 0.117140568 0.867809784 0.10664603999999996
v 0.267078744 0.851658408 0.10664603999999996
v 0.089964552 0.9346809119999999 -0.015249360000000057
v 0.147124056 0.910872624 -0.015249384000000057
v 0.11854430399999999 0.9227767680000001 0.22854151199999995
v 0.05852762400000001 0.9016216800000001 0.10664603999999993
v 0.208992528 0.911752176 0.10664603999999993
v -0.348742728 -1.049645784 0.13090454400000007
v -0.255250776 -1.114950624 0.09075096000000006
v -0.132626784 -0.8931296160000001 -0.03275973599999995
v -0.288198336 -0.9250634879999999 0.14096760000000005
v -0.14596672800000002 -1.057397832 0.08175412800000006
v -0.09032904 -0.875548272 0.14331974400000008
v -0.158920848 -0.846097128 0.13121551200000003
v -0.158457528 -0.9435962160000001 -0.02697623999999994
v -0.088338816 -0.9648488159999999 0.08314207200000007
v -0.20218502400000002 -0.90278988 0.07808124000000007
v -0.166551264 -1.136131704 0.02926476000000007
v -0.094657752 -1.113189792 0.03413448000000007
v -0.15629911200000002 -0.9496858560000001 -0.029093111999999942
v -0.224136528 -1.045168392 0.03235243200000006
v -0.09653520000000002 -1.024863096 0.04433023200000007
v -0.270600024 -0.875415264 0.11827574400000007
v -0.312237576 -0.924602424 0.07870713600000005
v -0.16179996000000002 -0.945769128 -0.02830406399999994
v -0.16871438400000002 -0.902782848 0.09659078400000007
v -0.255405576 -0.980798856 0.03970490400000006
v -0.295574328 -1.01647788 0.05421372000000006
v -0.255049032 -1.0796885280000001 0.03225266400000006
v -0.13560288 -0.941115864 0.014564112000000058
v -0.253461432 -0.9740413440000001 0.07433973600000006
v -0.19760661599999998 -1.049183544 0.04449372000000006
v -0.057532512 -1.025520624 0.06940552800000006
v -0.056932944 -0.941267568 0.09722352000000006
v -0.223803624 -0.96036804 -0.03217343999999994
v -0.126240648 -1.039627176 0.048678720000000064
v -0.13099739999999999 -0.932755824 0.07822896000000006
v 0.795609936 -0.9413848560000001 0.18000573600000006
v 0.8128483919999999 -0.911527128 0.18000573600000006
v 0.888806208 -0.977948448 0.19836734400000006
v 0.824291832 -0.984100248 0.20977264800000006
v 0.86187672 -0.9190016879999999 0.20977264800000006
v 0.786440832 -0.893138856 0.18871908000000007
v 0.781385568 -0.934311408 0.18871910400000008
v 0.6660342960000001 -0.896456808 0.20247064800000006
v 0.734593632 -0.859314336 0.21101244000000005
v 0.723571416 -0.9490821600000001 0.21101248800000005
v 0.806216208 -0.9148574640000001 0.18718860000000007
v 0.8316003120000001 -0.9323616 0.19027504800000006
v 0.7686799679999999 -0.985046088 0.23260156800000004
v 0.778412016 -0.932403984 0.22572787200000008
v 0.815665824 -0.959979216 0.23059012800000006
v 0.8227911120000001 -0.900454368 0.17467730400000006
v 0.841325952 -0.940202544 0.17467730400000006
v 0.711627 -0.97648644 0.23062965600000007
v 0.753064032 -0.904411008 0.22064820000000007
v 0.79347528 -0.99107328 0.22064820000000007
v 0.8215677840000001 -0.9561504 0.17576599200000007
v 0.7985082 -0.9286692 0.17576599200000007
v 0.893302464 -0.8725424159999999 0.22153384800000006
v 0.8758219199999999 -0.9382624559999999 0.21336926400000003
v 0.825545568 -0.8783453999999999 0.21336921600000003
v 0.911811768 -0.043286064 0.017052912000000003
v 0.9290502239999999 -0.015184056000000001 0.006965040000000002
v 1.0050080639999999 -0.07149588 0.046688208
v 0.9404936880000001 -0.073432464 0.059501280000000004
v 0.9780784560000001 -0.012161807999999998 0.037506888
v 0.945294624 -0.009566016 0.005122440000000001
v 0.927763632 -0.044950416 0.017824488000000003
v 0.829755792 0.027129816 0.006560447999999998
v 0.9064374480000001 0.043323 0.009823031999999997
v 0.868214904 -0.033825264 0.037517088000000004
v 0.922418064 -0.015891744 0.014850744
v 0.94780224 -0.031323792 0.023669712000000002
v 0.8848818 -0.066609576 0.08130732
v 0.8946138720000001 -0.019385471999999997 0.057052056
v 0.9318676800000001 -0.04369632 0.070944984
v 0.9389929440000001 -0.006562704000000001 -0.0017910959999999996
v 0.9575278079999999 -0.043973543999999996 0.011638320000000004
v 0.8278288800000001 -0.059219592 0.076559424
v 0.8692658400000001 0.005245152000000003 0.042813288
v 0.909677136 -0.076321032 0.072093264
v 0.92133444 -0.050175408 0.015021336000000003
v 0.89827488 -0.024310104 0.005736408000000002
v 0.993069312 0.043979328000000005 0.02984980799999999
v 0.9755886960000001 -0.020634575999999998 0.04436964
v 0.925312224 0.035759088 0.02412588
v -0.9304632480000001 -0.8851230480000001 0.05272557600000006
v -0.894409872 -0.8414666639999999 0.06662145600000005
v -1.0458618960000001 -0.759334488 0.016039920000000044
v -1.033033272 -0.845643504 0.05693347200000005
v -0.974963664 -0.7753278720000001 0.07931503200000005
v -1.125141168 -0.6885924240000001 0.07868270400000005
v -1.185567072 -0.7396284479999999 0.06018021600000005
v -1.02401688 -0.816092928 0.013954584000000051
v -1.0232438160000001 -0.739916472 0.08850451200000005
v -1.1205694080000002 -0.822118008 0.05870328000000005
v -1.177759104 -0.8297476560000001 0.03415867200000006
v -1.1519595360000001 -0.8814137040000001 0.026169984000000056
v -1.017131568 -0.763055064 0.01878379200000005
v -1.10027004 -0.759101208 0.06734772000000004
v -1.058716008 -0.84231756 0.05448067200000005
v -1.124557056 -0.748091448 0.12446366400000004
v -1.135441872 -0.79235028 0.11354613600000005
v -1.017113616 -0.772992192 0.048412512000000046
v -1.05614904 -0.739303848 0.11278610400000004
v -1.073680656 -0.8105896079999999 0.09520166400000006
v -1.093044888 -0.918607176 0.08694732000000005
v -1.0239528720000002 -0.936131112 0.09169075200000006
v -1.018465752 -0.752071104 0.030378720000000047
v -1.09834368 -0.814031064 0.08219628000000005
v -0.9870598800000001 -0.842256216 0.08983629600000005
v -0.6986768640000001 -0.770147376 0.08983886400000005
v -0.6902064 -0.822416664 0.07826140800000006
v -0.842425968 -0.8055364319999999 0.017561040000000052
v -0.780543096 -0.765392112 0.08599368000000004
v -0.766897488 -0.8495966399999999 0.06734263200000006
v -0.8538983520000001 -0.9912238800000001 0.04390416000000006
v -0.9241118880000001 -0.9648966000000001 0.04973556000000007
v -0.8189789519999999 -0.785728824 0.02164809600000005
v -0.7930030560000001 -0.9007243680000001 0.07217904000000006
v -0.906115536 -0.8583114719999999 0.08157331200000005
v -0.976899528 -0.823866936 0.04420860000000005
v -0.97050924 -0.764598816 0.05733628800000005
v -0.8091828 -0.8056578480000001 0.02226902400000005
v -0.8925264480000001 -0.85558668 0.05964105600000005
v -0.8822319120000001 -0.760106928 0.08078949600000004
v -0.8994137040000001 -0.9061366080000001 0.10307332800000008
v -0.9297158160000001 -0.862259592 0.11279191200000005
v -0.815673432 -0.795229248 0.014600688000000047
v -0.8289765120000001 -0.87235584 0.07783504800000005
v -0.877792608 -0.8016708960000001 0.09349149600000005
v 0.11057628 0.33270144 0.03169408799999998
v 0.154338576 0.41462740800000003 0.016311551999999976
v 0.279011568 0.324883968 0.15275988
v 0.16937832 0.309290928 0.12412622399999998
v 0.231686544 0.415054176 0.09332411999999998
v 0.13002002399999998 0.377311008 0.025680959999999982
v 0.10258046400000001 0.408690864 0.029166695999999975
v 0.223383792 0.46231101599999996 0.049053527999999964
v 0.185677488 0.40791972000000004 0.05254607999999998
v 0.14930695200000002 0.450143472 0.05084167199999996
v 0.099771936 0.424051344 0.023637791999999973
v 0.177522888 0.39459650400000007 0.013433951999999976
v 0.07000118400000001 0.299443008 0.11874247199999997
v 0.052393632 0.375862392 0.07982668799999998
v 0.162602616 0.340065312 0.07977940799999998
v 0.111247968 0.364477104 0.07205474399999998
v 0.12813744 0.42605212800000003 0.05308871999999998
v 0.26337360000000004 0.40327034400000006 0.11989478399999998
v 0.17957688000000002 0.35854932 0.10855015199999997
v 0.20128958400000002 0.44717596800000003 0.09699635999999999
v 0.168106392 0.394739952 0.009881375999999976
v 0.08130576 0.37607376 0.03247353599999998
v 0.093431304 0.566058192 0.05027644799999997
v 0.169456032 0.48887726400000003 0.02473967999999997
v 0.054373439999999995 0.464652192 0.07028932799999997
v 0.117308376 0.38492224799999997 0.013799207999999976
v 0.063321168 0.385535328 0.02745914399999998
v 0.086296368 0.541583256 0.11029329599999996
v 0.126351048 0.46168464000000003 0.06037699199999997
v 0.056377463999999995 0.458228112 0.09305817599999996
vt 0.744164 0.628708
vt 0.749753 0.608170
vt 0.692653 0.563484
vt 0.697314 0.617977
vt 0.738575 0.567550
vt 0.744164 0.628708
vt 0.749753 0.608170
vt 0.692653 0.563484
vt 0.697314 0.617977
vt 0.738575 0.567550
vt 0.744164 0.628708
vt 0.749753 0.608170
vt 0.692653 0.563484
vt 0.697314 0.617977
vt 0.738575 0.567550
vt 0.744164 0.628708
vt 0.749753 0.608170
vt 0.692653 0.563484
vt 0.697314 0.617977
vt 0.738575 0.567550
vt 0.744164 0.628708
vt 0.749753 0.608170
vt 0.692653 0.563484
vt 0.697314 0.617977
vt 0.738575 0.567550
vt 0.744164 0.628708
vt 0.749753 0.608170
vt 0.692653 0.563484
vt 0.697314 0.617977
vt 0.738575 0.567550
vt 0.595399 0.563695
vt 0.565353 0.562934
vt 0.579041 0.626495
vt 0.596116 0.598466
vt 0.559120 0.597096
vt 0.595399 0.563695
vt 0.565353 0.562934
vt 0.579041 0.626495
vt 0.596116 0.598466
vt 0.559120 0.597096
vt 0.595399 0.563695
vt 0.565353 0.562934
vt 0.579041 0.626495
vt 0.596116 0.598466
vt 0.559120 0.597096
vt 0.595399 0.563695
vt 0.565353 0.562934
vt 0.579041 0.626495
vt 0.596116 0.598466
vt 0.559120 0.597096
vt 0.595903 0.625260
vt 0.624775 0.625260
vt 0.609308 0.566194
vt 0.594204 0.592684
vt 0.627614 0.593530
vt 0.595903 0.625260
vt 0.624775 0.625260
vt 0.609308 0.566194
vt 0.594204 0.592684
vt 0.627614 0.593530
vt 0.650904 0.562850
vt 0.630292 0.562850
vt 0.642499 0.626132
vt 0.659323 0.595103
vt 0.621873 0.595103
vt 0.650904 0.562850
vt 0.630292 0.562850
vt 0.642499 0.626132
vt 0.659323 0.595103
vt 0.621873 0.595103
vt 0.650904 0.562850
vt 0.630292 0.562850
vt 0.642499 0.626132
vt 0.659323 0.595103
vt 0.621873 0.595103
vt 0.660258 0.625013
vt 0.681752 0.625013
vt 0.674442 0.561231
vt 0.654076 0.594265
vt 0.689778 0.594265
vt 0.660258 0.625013
vt 0.681752 0.625013
vt 0.674442 0.561231
vt 0.654076 0.594265
vt 0.689778 0.594265
vt 0.650904 0.562850
vt 0.630292 0.562850
vt 0.642499 0.626132
vt 0.659323 0.595103
vt 0.621873 0.595103
vt 0.650904 0.562850
vt 0.630292 0.562850
vt 0.642499 0.626132
vt 0.659323 0.595103
vt 0.621873 0.595103
vt 0.650904 0.562850
vt 0.630292 0.562850
vt 0.642499 0.626132
vt 0.659323 0.595103
vt 0.621873 0.595103
vt 0.660258 0.625013
vt 0.681752 0.625013
vt 0.674442 0.561231
vt 0.654076 0.594265
vt 0.689778 0.594265
vt 0.660258 0.625013
vt 0.681752 0.625013
vt 0.674442 0.561231
vt 0.654076 0.594265
vt 0.689778 0.594265
vt 0.571412 0.686392
vt 0.584135 0.686392
vt 0.577501 0.623278
vt 0.558653 0.659306
vt 0.597770 0.659222
vt 0.571412 0.686392
vt 0.584135 0.686392
vt 0.577501 0.623278
vt 0.558653 0.659306
vt 0.597770 0.659222
vt 0.571412 0.686392
vt 0.584135 0.686392
vt 0.577501 0.623278
vt 0.558653 0.659306
vt 0.597770 0.659222
vt 0.603239 0.625036
vt 0.623769 0.625036
vt 0.612709 0.688696
vt 0.595180 0.654419
vt 0.628440 0.654419
vt 0.603239 0.625036
vt 0.623769 0.625036
vt 0.612709 0.688696
vt 0.595180 0.654419
vt 0.628440 0.654419
vt 0.687571 0.626632
vt 0.661770 0.626632
vt 0.673933 0.687394
vt 0.689271 0.660452
vt 0.658596 0.660452
vt 0.628879 0.684876
vt 0.654421 0.684876
vt 0.642379 0.624724
vt 0.626874 0.651557
vt 0.658206 0.651396
vt 0.628879 0.684876
vt 0.654421 0.684876
vt 0.642379 0.624724
vt 0.626874 0.651557
vt 0.658206 0.651396
vt 0.687571 0.626632
vt 0.661770 0.626632
vt 0.673933 0.687394
vt 0.689271 0.660452
vt 0.658596 0.660452
vt 0.530623 0.690809
vt 0.502379 0.690634
vt 0.515775 0.749728
vt 0.532381 0.724702
vt 0.500024 0.724528
vt 0.530623 0.690809
vt 0.502379 0.690634
vt 0.515775 0.749728
vt 0.532381 0.724702
vt 0.500024 0.724528
vt 0.533348 0.748499
vt 0.562111 0.748499
vt 0.547672 0.687244
vt 0.531695 0.713898
vt 0.564458 0.714280
vt 0.533348 0.748499
vt 0.562111 0.748499
vt 0.547672 0.687244
vt 0.531695 0.713898
vt 0.564458 0.714280
vt 0.533348 0.748499
vt 0.562111 0.748499
vt 0.547672 0.687244
vt 0.531695 0.713898
vt 0.564458 0.714280
vt 0.533348 0.748499
vt 0.562111 0.748499
vt 0.547672 0.687244
vt 0.531695 0.713898
vt 0.564458 0.714280
vn 0.814022 0.57973 0.035780999999999966
vn 0.884197 0.364206 -0.292488
vn 0.643663 0.736592 -0.20767700000000006
vn 0.655975 0.750682 0.07857199999999996
vn 0.763956 0.643284 -0.05057300000000004
vn 0.861452 0.506577 0.03578099999999997
vn 0.912575 0.285757 -0.292488
vn 0.705413 0.67769 -0.20767700000000003
vn 0.718906 0.690653 0.07857199999999996
vn 0.817115 0.574252 -0.050573000000000035
vn 0.967343 -0.250933 0.03578000000000001
vn 0.84735 -0.443226 -0.292488
vn 0.978001 -0.019601000000000014 -0.207677
vn 0.996708 -0.019975999999999997 0.078572
vn 0.983845 -0.171729 -0.050572999999999986
vn 0.977625 -0.205847 0.04331300000000001
vn 0.834324 -0.475845 -0.27834499999999995
vn 0.972294 0.10962699999999999 -0.206461
vn 0.990663 0.111698 0.078171
vn 0.994375 -0.095086 -0.046668999999999995
vn 0.332969 0.942603 0.02512199999999994
vn 0.528308 0.825684 -0.19782800000000006
vn 0.106065 0.984634 -0.13873000000000005
vn 0.106942 0.992775 0.05441199999999994
vn 0.257021 0.965886 -0.031697000000000065
vn 0.16423 0.986102 0.025120999999999942
vn 0.376904 0.90488 -0.19782800000000006
vn -0.066526 0.988093 -0.13873000000000005
vn -0.067076 0.996263 0.05441199999999994
vn 0.085393 0.995843 -0.031697000000000065
vn 0.22126 -0.22646899999999995 0.948554
vn 0.217452 -0.2661069999999999 0.939096
vn 0.644419 0.4013880000000001 0.650854
vn 0.472395 0.11682500000000005 0.87361
vn 0.392407 -0.018479999999999944 0.919606
vn -0.337672 -0.509248 0.791609
vn -0.349596 -0.48467699999999997 0.801792
vn -0.478779 -0.867098 0.13751800000000006
vn -0.432902 -0.753844 0.49428200000000005
vn -0.411985 -0.673109 0.61416
vn -0.055174 -0.09979599999999994 0.993477
vn -0.030472 -0.11525699999999994 0.992868
vn -0.170217 0.615929 0.769193
vn -0.134592 0.2861890000000001 0.948673
vn -0.10016 0.14868600000000007 0.983799
vn -0.018461 -0.599333 0.800287
vn -0.047398 -0.601437 0.797513
vn 0.51951 -0.798689 0.30365400000000003
vn 0.285286 -0.751113 0.59535
vn 0.172316 -0.712987 0.679674
vn -0.030423 -0.36739599999999994 0.929567
vn -0.020063 -0.33957099999999996 0.940366
vn 0.455584 -0.014883999999999946 0.890068
vn 0.218377 -0.21569599999999994 0.951728
vn 0.137272 -0.2605549999999999 0.95565
vn -0.248266 -0.28468299999999996 0.925916
vn -0.269188 -0.30022399999999994 0.915097
vn -0.720601 -0.21439099999999997 0.659371
vn -0.494248 -0.25204399999999993 0.831981
vn -0.41995 -0.27038699999999993 0.866333
vn -0.469076 0.27082300000000004 0.840608
vn -0.469076 0.27082300000000004 0.840608
vn 0.182869 -0.10557999999999994 0.977452
vn -0.154887 0.08942400000000006 0.983877
vn -0.269932 0.15584600000000007 0.950184
vn 0.369482 -0.04536599999999994 0.92813
vn 0.369481 -0.04536499999999995 0.92813
vn -0.132277 0.01624200000000006 0.99108
vn 0.122648 -0.015058999999999939 0.992336
vn 0.208325 -0.02557799999999994 0.977725
vn 0.405934 0.676281 0.614704
vn 0.392745 0.678929 0.620328
vn -0.029505 0.13478000000000007 0.990436
vn 0.21241 0.4407460000000001 0.872138
vn 0.280987 0.534189 0.797301
vn 0.524043 0.24436500000000005 0.815883
vn 0.524043 0.24436500000000005 0.815883
vn 0.131594 0.06136300000000006 0.989403
vn 0.337117 0.15720000000000006 0.928246
vn 0.403094 0.18796600000000005 0.895647
vn -0.44294 -0.3716709999999999 0.815883
vn -0.442939 -0.37167199999999995 0.815883
vn -0.111229 -0.09333099999999994 0.989403
vn -0.284944 -0.23909599999999995 0.928246
vn -0.34071 -0.2858899999999999 0.895647
vn -0.469077 0.538907 0.699675
vn -0.469078 0.538908 0.699675
vn 0.182868 0.23087300000000005 0.955645
vn -0.154887 0.41658000000000006 0.895807
vn -0.269932 0.46771300000000005 0.841654
vn 0.33738 0.16550900000000004 0.926705
vn 0.33738 0.16550900000000004 0.926705
vn -0.120784 0.38785900000000006 0.91377
vn 0.111992 0.28612100000000007 0.951626
vn 0.190225 0.24684900000000007 0.9502
vn 0.405934 0.844199 0.35006599999999993
vn 0.392744 0.848591 0.3544649999999999
vn -0.029505 0.46148600000000006 0.886657
vn 0.212411 0.709491 0.67194
vn 0.280987 0.772154 0.569933
vn 0.524043 0.505651 0.685343
vn 0.524044 0.505651 0.685343
vn 0.131595 0.3920370000000001 0.910489
vn 0.337117 0.46157600000000004 0.820549
vn 0.403094 0.47951800000000006 0.779473
vn -0.44294 -0.07415899999999995 0.893479
vn -0.44294 -0.07415899999999995 0.893479
vn -0.111229 0.24643900000000005 0.962754
vn -0.284944 0.08858300000000005 0.954442
vn -0.34071 0.03352800000000006 0.93957
vn -0.059632 -0.25771599999999995 0.964379
vn -0.059632 -0.25771599999999995 0.964379
vn -0.608348 0.2641780000000001 0.748413
vn -0.363339 0.003515000000000057 0.93165
vn -0.261201 -0.09019599999999994 0.961061
vn -0.170172 -0.15152099999999993 0.973696
vn -0.170172 -0.15152099999999993 0.973696
vn 0.350403 -0.656904 0.667603
vn 0.098034 -0.43973199999999996 0.892763
vn 0.003611 -0.34460499999999994 0.938741
vn -0.187995 -0.24109399999999995 0.95212
vn -0.187995 -0.24109399999999995 0.95212
vn 0.50499 0.12000500000000006 0.854742
vn 0.172425 -0.06586399999999995 0.982818
vn 0.046309 -0.13001799999999994 0.99043
vn 0.196387 -0.2800909999999999 0.939671
vn 0.196387 -0.2800909999999999 0.939671
vn 0.721938 -0.32786099999999996 0.609354
vn 0.483168 -0.31986899999999996 0.815005
vn 0.388687 -0.3096499999999999 0.867778
vn -0.057726 0.04239000000000006 0.997432
vn -0.057726 0.04239000000000006 0.997432
vn 0.088349 0.569536 0.817204
vn 0.015989 0.31949700000000003 0.947452
vn -0.009387 0.22661800000000007 0.973939
vn -0.058748 -0.22494799999999995 0.972598
vn -0.058749 -0.22494799999999995 0.972598
vn -0.633379 -0.26377999999999996 0.727497
vn -0.364367 -0.25728899999999993 0.895008
vn -0.261955 -0.24897699999999995 0.932411
vn -0.026112 -0.28206299999999995 0.95904
vn -0.026112 -0.28206299999999995 0.95904
vn 0.235311 0.43505600000000005 0.869112
vn 0.113299 0.08285800000000006 0.9901
vn 0.065477 -0.04615999999999994 0.996786
vn -0.243568 -0.18463599999999994 0.952147
vn -0.243568 -0.18463599999999994 0.952147
vn 0.512529 -0.23800099999999993 0.825027
vn 0.145665 -0.22889399999999993 0.962491
vn 0.009081 -0.21717999999999996 0.976089
vn 0.329417 0.01840700000000006 0.944005
vn 0.329417 0.01840700000000006 0.944005
vn 0.717217 0.36365600000000003 0.594435
vn 0.550997 0.20113600000000006 0.809906
vn 0.480058 0.13971000000000006 0.86604
vn -0.637528 0.49703900000000006 0.588651
vn -0.629692 0.45463600000000004 0.629916
vn -0.284772 0.41888100000000006 0.862232
vn -0.478698 0.4934990000000001 0.726159
vn -0.532095 0.48209300000000005 0.696033
vn -0.254974 -0.2547229999999999 0.932794
vn -0.193794 -0.27409599999999995 0.941974
vn 0.015315 0.05349500000000006 0.998451
vn -0.153741 -0.09271799999999994 0.983752
vn -0.168002 -0.15483599999999995 0.973551
vn 0.278245 0.668923 0.689291
vn 0.344014 0.685964 0.641177
vn 0.155125 0.47644400000000003 0.865412
vn 0.183987 0.565381 0.804048
vn 0.239336 0.610291 0.755158
vn -0.502633 0.30308000000000007 0.809631
vn -0.55423 0.38010700000000003 0.740505
vn -0.225739 0.18011400000000005 0.957393
vn -0.337462 0.20251900000000006 0.919296
vn -0.415209 0.2652860000000001 0.870187
vn 0.346593 -0.22334999999999994 0.911037
vn 0.299718 -0.29605499999999996 0.906929
vn 0.359335 0.045550000000000056 0.932096
vn 0.376962 -0.05196599999999994 0.92477
vn 0.353732 -0.13458799999999996 0.925613
vn 0.28409 -0.585113 0.759562
vn 0.179557 -0.649558 0.738806
vn 0.413403 -0.32430899999999996 0.850836
vn 0.400956 -0.42019999999999996 0.814043
vn 0.330867 -0.502969 0.798467
g bobobj
f 185/185/185 182/182/182 181/181/181
f 181/181/181 184/184/184 185/185/185
f 183/183/183 185/185/185 184/184/184
f 180/180/180 177/177/177 176/176/176
f 176/176/176 179/179/179 180/180/180
f 178/178/178 180/180/180 179/179/179
f 175/175/175 172/172/172 171/171/171
f 171/171/171 174/174/174 175/175/175
f 173/173/173 175/175/175 174/174/174
f 170/170/170 167/167/167 166/166/166
f 166/166/166 169/169/169 170/170/170
f 168/168/168 170/170/170 169/169/169
f 165/165/165 162/162/162 161/161/161
f 161/161/161 164/164/164 165/165/165
f 163/163/163 165/165/165 164/164/164
f 160/160/160 157/157/157 156/156/156
f 156/156/156 159/159/159 160/160/160
f 158/158/158 160/160/160 159/159/159
f 155/155/155 152/152/152 151/151/151
f 151/151/151 154/154/154 155/155/155
f 153/153/153 155/155/155 154/154/154
f 150/150/150 147/147/147 146/146/146
f 146/146/146 149/149/149 150/150/150
f 148/148/148 150/150/150 149/149/149
f 145/145/145 142/142/142 141/141/141
f 141/141/141 144/144/144 145/145/145
f 143/143/143 145/145/145 144/144/144
f 140/140/140 137/137/137 136/136/136
f 136/136/136 139/139/139 140/140/140
f 138/138/138 140/140/140 139/139/139
f 135/135/135 134/134/134 131/131/131
f 131/131/131 132/132/132 135/135/135
f 135/135/135 133/133/133 134/134/134
f 130/130/130 129/129/129 126/126/126
f 126/126/126 127/127/127 130/130/130
f 130/130/130 128/128/128 129/129/129
f 125/125/125 124/124/124 121/121/121
f 121/121/121 122/122/122 125/125/125
f 125/125/125 123/123/123 124/124/124
f 120/120/120 119/119/119 116/116/116
f 116/116/116 117/117/117 120/120/120
f 120/120/120 118/118/118 119/119/119
f 115/115/115 114/114/114 111/111/111
f 111/111/111 112/112/112 115/115/115
f 115/115/115 113/113/113 114/114/114
f 110/110/110 107/107/107 106/106/106
f 106/106/106 109/109/109 110/110/110
f 108/108/108 110/110/110 109/109/109
f 105/105/105 102/102/102 101/101/101
f 101/101/101 104/104/104 105/105/105
f 103/103/103 105/105/105 104/104/104
f 100/100/100 97/97/97 96/96/96
f 96/96/96 99/99/99 100/100/100
f 98/98/98 100/100/100 99/99/99
f 95/95/95 92/92/92 91/91/91
f 91/91/91 94/94/94 95/95/95
f 93/93/93 95/95/95 94/94/94
f 90/90/90 87/87/87 86/86/86
f 86/86/86 89/89/89 90/90/90
f 88/88/88 90/90/90 89/89/89
f 85/85/85 82/82/82 81/81/81
f 81/81/81 84/84/84 85/85/85
f 83/83/83 85/85/85 84/84/84
f 80/80/80 77/77/77 76/76/76
f 76/76/76 79/79/79 80/80/80
f 78/78/78 80/80/80 79/79/79
f 75/75/75 72/72/72 71/71/71
f 71/71/71 74/74/74 75/75/75
f 73/73/73 75/75/75 74/74/74
f 70/70/70 67/67/67 66/66/66
f 66/66/66 69/69/69 70/70/70
f 68/68/68 70/70/70 69/69/69
f 65/65/65 62/62/62 61/61/61
f 61/61/61 64/64/64 65/65/65
f 63/63/63 65/65/65 64/64/64
f 60/60/60 59/59/59 56/56/56
f 56/56/56 57/57/57 60/60/60
f 60/60/60 58/58/58 59/59/59
f 55/55/55 54/54/54 51/51/51
f 51/51/51 52/52/52 55/55/55
f 55/55/55 53/53/53 54/54/54
f 50/50/50 49/49/49 46/46/46
f 46/46/46 47/47/47 50/50/50
f 50/50/50 48/48/48 49/49/49
f 45/45/45 44/44/44 41/41/41
f 41/41/41 42/42/42 45/45/45
f 45/45/45 43/43/43 44/44/44
f 40/40/40 39/39/39 36/36/36
f 36/36/36 37/37/37 40/40/40
f 40/40/40 38/38/38 39/39/39
f 35/35/35 34/34/34 31/31/31
f 31/31/31 32/32/32 35/35/35
f 35/35/35 33/33/33 34/34/34
f 30/30/30 27/27/27 26/26/26
f 26/26/26 29/29/29 30/30/30
f 28/28/28 30/30/30 29/29/29
f 25/25/25 22/22/22 21/21/21
f 21/21/21 24/24/24 25/25/25
f 23/23/23 25/25/25 24/24/24
f 20/20/20 17/17/17 16/16/16
f 16/16/16 19/19/19 20/20/20
f 18/18/18 20/20/20 19/19/19
f 15/15/15 12/12/12 11/11/11
f 11/11/11 14/14/14 15/15/15
f 13/13/13 15/15/15 14/14/14
f 10/10/10 7/7/7 6/6/6
f 6/6/6 9/9/9 10/10/10
f 8/8/8 10/10/10 9/9/9
f 5/5/5 2/2/2 1/1/1
f 1/1/1 4/4/4 5/5/5
f 3/3/3 5/5/5 4/4/4
