v 0.09487920000000001 2.306048866562679e-17 0.37660636
v 0.06943404 -0.05665607999999998 0.37700728000000006
v 0 -0.09487919999999998 0.37660636
v -0.06943404 -0.05665607999999998 0.37700728000000006
v 0 0.09487920000000004 0.37660636
v 0.06943404 0.05665608000000002 0.37700728000000006
v -0.06943404 0.05665608000000002 0.37700728000000006
v -0.09487920000000001 2.306048866562679e-17 0.37660636
v 0.09487920000000001 3.2420287802370936e-17 0.5294634800000001
v 0.06943404 -0.05665607999999997 0.5298644
v 0 -0.09487919999999998 0.5294634800000001
v -0.06943404 -0.05665607999999997 0.5298644
v 0 0.09487920000000004 0.5294634800000001
v 0.06943404 0.056656080000000025 0.5298644
v -0.06943404 0.056656080000000025 0.5298644
v -0.09487920000000001 3.2420287802370936e-17 0.5294634800000001
v 0.06775652 3.4615648437568843e-17 0.56531644
v 0.049585119999999996 -0.04046015999999997 0.5656856400000001
v 0 -0.06775651999999997 0.56531644
v -0.049585119999999996 -0.04046015999999997 0.5656856400000001
v 0 0.06775652000000003 0.56531644
v 0.049585119999999996 0.04046016000000004 0.5656856400000001
v -0.049585119999999996 0.04046016000000004 0.5656856400000001
v -0.06775652 3.4615648437568843e-17 0.56531644
v 0.08901568 3.407964012793083e-17 0.55656276
v 0.065143 -0.05315491999999997 0.55694756
v 0 -0.08901567999999997 0.55656276
v -0.065143 -0.05315491999999997 0.55694756
v 0 0.08901568000000003 0.55656276
v 0.065143 0.05315492000000004 0.55694756
v -0.065143 0.05315492000000004 0.55694756
v -0.08901568 3.407964012793083e-17 0.55656276
v 0.09487920000000001 3.2420287802370936e-17 0.5294634800000001
v 0.09487920000000001 2.306048866562679e-17 0.37660636
v 0 -0.09487919999999998 0.5294634800000001
v 0.06943404 -0.05665607999999997 0.5298644
v 0.06943404 -0.05665607999999998 0.37700728000000006
v 0 -0.09487919999999998 0.37660636
v 0.06943404 0.056656080000000025 0.5298644
v 0 0.09487920000000004 0.5294634800000001
v 0 0.09487920000000004 0.37660636
v 0.06943404 0.05665608000000002 0.37700728000000006
v -0.06943404 -0.05665607999999997 0.5298644
v -0.06943404 -0.05665607999999998 0.37700728000000006
v -0.06943404 0.056656080000000025 0.5298644
v -0.09487920000000001 3.2420287802370936e-17 0.5294634800000001
v -0.09487920000000001 2.306048866562679e-17 0.37660636
v -0.06943404 0.05665608000000002 0.37700728000000006
v 0.08901568 3.407964012793083e-17 0.55656276
v 0 -0.08901567999999997 0.55656276
v 0.065143 -0.05315491999999997 0.55694756
v 0.065143 0.05315492000000004 0.55694756
v 0 0.08901568000000003 0.55656276
v -0.065143 -0.05315491999999997 0.55694756
v -0.065143 0.05315492000000004 0.55694756
v -0.08901568 3.407964012793083e-17 0.55656276
v 0.06775652 3.4615648437568843e-17 0.56531644
v 0 -0.06775651999999997 0.56531644
v 0.049585119999999996 -0.04046015999999997 0.5656856400000001
v 0.049585119999999996 0.04046016000000004 0.5656856400000001
v 0 0.06775652000000003 0.56531644
v -0.049585119999999996 -0.04046015999999997 0.5656856400000001
v -0.049585119999999996 0.04046016000000004 0.5656856400000001
v -0.06775652 3.4615648437568843e-17 0.56531644
vt 0.514313 0.019647
vt 0.514295 0.354103
vt 0.670583 0.019647
vt 0.670564 0.354103
vt 0.322342 0.354103
vt 0.599216 0.019647
vt 0.322361 0.019647
vt 0.729627 0.354103
vt 0.750050 0.014932
vt 0.750021 0.349404
vt 0.906319 0.014932
vt 0.906291 0.349404
vt 0.558069 0.349404
vt 0.834952 0.014932
vt 0.558097 0.014932
vt 0.965353 0.349404
vt 0.770354 0.033617
vt 0.770319 0.333703
vt 0.926623 0.033617
vt 0.926588 0.333703
vt 0.578366 0.333703
vt 0.855256 0.033617
vt 0.578401 0.033617
vt 0.985651 0.333703
vt 0.760202 0.024275
vt 0.760170 0.341553
vt 0.916471 0.024275
vt 0.916439 0.341553
vt 0.568217 0.341553
vt 0.845104 0.024275
vt 0.568249 0.024275
vt 0.975502 0.341553
vt 0.834924 0.349404
vt 0.599197 0.354103
vt 0.965353 0.349404
vt 0.965381 0.014932
vt 0.729645 0.019647
vt 0.729627 0.354103
vt 0.965353 0.349404
vt 0.965381 0.014932
vt 0.729645 0.019647
vt 0.729627 0.354103
vt 0.965381 0.014932
vt 0.729645 0.019647
vt 0.965353 0.349404
vt 0.965381 0.014932
vt 0.729645 0.019647
vt 0.729627 0.354103
vt 0.845072 0.341553
vt 0.975502 0.341553
vt 0.975533 0.024275
vt 0.975502 0.341553
vt 0.975533 0.024275
vt 0.975533 0.024275
vt 0.975502 0.341553
vt 0.975533 0.024275
vt 0.855221 0.333703
vt 0.985651 0.333703
vt 0.985686 0.033617
vt 0.985651 0.333703
vt 0.985686 0.033617
vt 0.985686 0.033617
vt 0.985651 0.333703
vt 0.985686 0.033617
vn 0.988979 -0.148055 9.065754092388068E-18
vn 0.655569 -0.755135 4.6238683033706826E-17
vn -0.180484 -0.983578 6.022678247058777E-17
vn -0.805765 -0.592236 3.626399608699159E-17
vn 0.180484 0.983578 -6.022678247058777E-17
vn 0.805765 0.592236 -3.626399608699159E-17
vn -0.655568 0.755136 -4.623874426604679E-17
vn -0.988979 0.148055 -9.065754092388068E-18
vn 0.992338 0.089965 0.084683
vn 0.762006 -0.637351 0.11458800000000004
vn 0.109973 -0.990328 0.08460300000000005
vn -0.696874 -0.707981 0.11458700000000004
vn -0.109972 0.990327 0.08460199999999994
vn 0.696874 0.707981 0.11458699999999995
vn -0.762006 0.637351 0.11458799999999995
vn -0.992338 -0.089965 0.084683
vn 0.382611 5.657317121001155E-17 0.92391
vn 0.292808 -0.2720949999999999 0.916639
vn 0 -0.38260999999999995 0.92391
vn -0.292808 -0.2720949999999999 0.916639
vn 0 0.38261100000000003 0.92391
vn 0.292808 0.27209500000000003 0.916639
vn -0.292808 0.27209500000000003 0.916639
vn -0.382611 5.657317121001155E-17 0.92391
vn 0.868158 3.038881430042212E-17 0.496287
vn 0.488891 -0.45245799999999997 0.745833
vn 0 -0.864444 0.502728
vn -0.488892 -0.45245799999999997 0.745833
vn 0 0.864444 0.502729
vn 0.488891 0.4524580000000001 0.745833
vn -0.488891 0.4524580000000001 0.745833
vn -0.868158 3.038881430042212E-17 0.496287
vn 0.992338 0.089965 0.084683
vn 0.988979 -0.148055 9.065754092388068E-18
vn 0.109973 -0.990328 0.08460300000000005
vn 0.762006 -0.637351 0.11458800000000004
vn 0.655569 -0.755135 4.6238683033706826E-17
vn -0.180484 -0.983578 6.022678247058777E-17
vn 0.696874 0.707981 0.11458699999999995
vn -0.109972 0.990327 0.08460199999999994
vn 0.180484 0.983578 -6.022678247058777E-17
vn 0.805765 0.592236 -3.626399608699159E-17
vn -0.696874 -0.707981 0.11458700000000004
vn -0.805765 -0.592236 3.626399608699159E-17
vn -0.762006 0.637351 0.11458799999999995
vn -0.992338 -0.089965 0.084683
vn -0.988979 0.148055 -9.065754092388068E-18
vn -0.655568 0.755136 -4.623874426604679E-17
vn 0.868158 3.038881430042212E-17 0.496287
vn 0 -0.864444 0.502728
vn 0.488891 -0.45245799999999997 0.745833
vn 0.488891 0.4524580000000001 0.745833
vn 0 0.864444 0.502729
vn -0.488892 -0.45245799999999997 0.745833
vn -0.488891 0.4524580000000001 0.745833
vn -0.868158 3.038881430042212E-17 0.496287
vn 0.382611 5.657317121001155E-17 0.92391
vn 0 -0.38260999999999995 0.92391
vn 0.292808 -0.2720949999999999 0.916639
vn 0.292808 0.27209500000000003 0.916639
vn 0 0.38261100000000003 0.92391
vn -0.292808 -0.2720949999999999 0.916639
vn -0.292808 0.27209500000000003 0.916639
vn -0.382611 5.657317121001155E-17 0.92391
g 06 - Default
f 55/55/55 56/56/56 64/64/64
f 64/64/64 63/63/63 55/55/55
f 24/24/24 32/32/32 54/54/54
f 54/54/54 62/62/62 24/24/24
f 52/52/52 53/53/53 61/61/61
f 61/61/61 60/60/60 52/52/52
f 58/58/58 50/50/50 51/51/51
f 51/51/51 59/59/59 58/58/58
f 21/21/21 29/29/29 31/31/31
f 31/31/31 23/23/23 21/21/21
f 28/28/28 27/27/27 19/19/19
f 19/19/19 20/20/20 28/28/28
f 57/57/57 49/49/49 30/30/30
f 30/30/30 22/22/22 57/57/57
f 26/26/26 25/25/25 17/17/17
f 17/17/17 18/18/18 26/26/26
f 45/45/45 46/46/46 56/56/56
f 56/56/56 55/55/55 45/45/45
f 43/43/43 54/54/54 32/32/32
f 32/32/32 16/16/16 43/43/43
f 39/39/39 40/40/40 53/53/53
f 53/53/53 52/52/52 39/39/39
f 36/36/36 51/51/51 50/50/50
f 50/50/50 35/35/35 36/36/36
f 15/15/15 31/31/31 29/29/29
f 29/29/29 13/13/13 15/15/15
f 12/12/12 11/11/11 27/27/27
f 27/27/27 28/28/28 12/12/12
f 14/14/14 30/30/30 49/49/49
f 49/49/49 33/33/33 14/14/14
f 10/10/10 9/9/9 25/25/25
f 25/25/25 26/26/26 10/10/10
f 45/45/45 48/48/48 47/47/47
f 47/47/47 46/46/46 45/45/45
f 16/16/16 8/8/8 44/44/44
f 44/44/44 43/43/43 16/16/16
f 39/39/39 42/42/42 41/41/41
f 41/41/41 40/40/40 39/39/39
f 35/35/35 38/38/38 37/37/37
f 37/37/37 36/36/36 35/35/35
f 13/13/13 5/5/5 7/7/7
f 7/7/7 15/15/15 13/13/13
f 12/12/12 4/4/4 3/3/3
f 3/3/3 11/11/11 12/12/12
f 33/33/33 34/34/34 6/6/6
f 6/6/6 14/14/14 33/33/33
f 10/10/10 2/2/2 1/1/1
f 1/1/1 9/9/9 10/10/10
