v -0.053092 0.04332120000000003 0.5550194
v -0.07254832 3.396192462830319e-17 0.5546403200000001
v -0.053092 -0.04332119999999996 0.5550194
v 0 0.07254832000000003 0.5546403200000001
v 0 -0.07254831999999997 0.5546403200000001
v -0.14376076000000002 0.059547800000000026 0.39506428000000005
v -0.15632656 2.4116011741811894e-17 0.39384436
v -0.14376076000000002 -0.059547799999999984 0.39506428000000005
v -0.0850434 0.12714988000000002 0.39445431999999997
v -0.0850434 -0.12714987999999997 0.39445431999999997
v 0 0.15632656000000003 0.39384436
v 0 -0.15632655999999998 0.39384436
v -0.293683 0.12164776000000002 0.12957776
v -0.31935332000000005 7.775431934696043e-18 0.12698244
v -0.293683 -0.12164723999999999 0.12957776000000001
v -0.173732 0.25974988 0.12828035999999998
v -0.173732 -0.25974988 0.12828036
v 0 0.31935332000000005 0.12698244
v 0 -0.31935332000000005 0.12698244000000003
v 0.053092 0.04332120000000003 0.5550194
v 0 0.07254832000000003 0.5546403200000001
v 0 -0.07254831999999997 0.5546403200000001
v 0.053092 -0.04332119999999996 0.5550194
v 0.07254832 3.396192462830319e-17 0.5546403200000001
v 0.14376076000000002 0.059547800000000026 0.39506428000000005
v 0.14376076000000002 -0.059547799999999984 0.39506428000000005
v 0.15632656 2.4116011741811894e-17 0.39384436
v 0.0850434 0.12714988000000002 0.39445431999999997
v 0.0850434 -0.12714987999999997 0.39445431999999997
v 0 -0.15632655999999998 0.39384436
v 0 0.15632656000000003 0.39384436
v 0.293683 0.12164776000000002 0.12957776
v 0.293683 -0.12164723999999999 0.12957776000000001
v 0.31935332000000005 7.775431934696043e-18 0.12698244
v 0.173732 0.25974988 0.12828035999999998
v 0.173732 -0.25974988 0.12828036
v 0 -0.31935332000000005 0.12698244000000003
v 0 0.31935332000000005 0.12698244
vt 1.267839 0.823739
vt 1.380201 0.616951
vt 1.267839 0.410163
vt 1.015457 0.981694
vt 1.015457 0.252208
vt 1.326785 0.745907
vt 1.380201 0.616951
vt 1.326785 0.487995
vt 1.208892 0.901571
vt 1.208892 0.332331
vt 1.015457 0.981694
vt 1.015457 0.252208
vt 1.326785 0.745907
vt 1.380201 0.616951
vt 1.326785 0.487995
vt 1.208892 0.901571
vt 1.208892 0.332331
vt 1.015457 0.981694
vt 1.015457 0.252208
vt 0.266881 0.823739
vt 0.014499 0.981694
vt 0.014499 0.252208
vt 0.266881 0.410163
vt 0.379243 0.616951
vt 0.325827 0.745907
vt 0.325827 0.487995
vt 0.379243 0.616951
vt 0.207934 0.901571
vt 0.207934 0.332331
vt 0.014499 0.252208
vt 0.014499 0.981694
vt 0.325827 0.745907
vt 0.325827 0.487995
vt 0.379243 0.616951
vt 0.207934 0.901571
vt 0.207934 0.332331
vt 0.014499 0.252208
vt 0.014499 0.981694
vn -0.006173 6.123117654290848E-17 0.999981
vn -0.019487 6.122070581277576E-17 0.99981
vn -0.001734 6.12322787250277E-17 0.999999
vn 0.002381 6.123215626034779E-17 0.999997
vn -0.002381 6.123215626034779E-17 0.999997
vn -0.043195 6.117521018418744E-17 0.999067
vn -0.0966 6.094595630338705E-17 0.995323
vn -0.025331 6.121268437624134E-17 0.999679
vn 0.009313 6.122970696674949E-17 0.999957
vn 0.008241 6.123025805780911E-17 0.999966
vn 0.00239 6.123215626034779E-17 0.999997
vn -0.00239 6.123215626034779E-17 0.999997
vn -0.044978 6.11703728293308E-17 0.998988
vn -0.100575 6.092183076144385E-17 0.994929
vn -0.026376 6.121103110306249E-17 0.999652
vn 0.0097 6.122946203738966E-17 0.999953
vn 0.008584 6.123007436078924E-17 0.999963
vn 0.002489 6.123215626034779E-17 0.999997
vn -0.002489 6.123215626034779E-17 0.999997
vn 0.001734 6.12322787250277E-17 0.999999
vn 0.002381 6.123215626034779E-17 0.999997
vn -0.002381 6.123215626034779E-17 0.999997
vn 0.006173 6.123117654290848E-17 0.999981
vn 0.019487 6.122070581277576E-17 0.99981
vn 0.043195 6.117521018418744E-17 0.999067
vn 0.025331 6.121268437624134E-17 0.999679
vn 0.0966 6.094595630338705E-17 0.995323
vn -0.008777 6.122995189610932E-17 0.999961
vn -0.008777 6.122995189610932E-17 0.999961
vn -0.00239 6.123215626034779E-17 0.999997
vn 0.00239 6.123215626034779E-17 0.999997
vn 0.044978 6.11703728293308E-17 0.998988
vn 0.026376 6.121103110306249E-17 0.999652
vn 0.100576 6.092183076144385E-17 0.994929
vn -0.009142 6.122976819908945E-17 0.999958
vn -0.009142 6.122976819908945E-17 0.999958
vn -0.002489 6.123215626034779E-17 0.999997
vn 0.002489 6.123215626034779E-17 0.999997
g 06 - Default
f 1/1/1 2/2/2 3/3/3
f 4/4/4 1/1/1 3/3/3
f 3/3/3 5/5/5 4/4/4
f 6/6/6 7/7/7 8/8/8
f 9/9/9 6/6/6 8/8/8
f 8/8/8 10/10/10 9/9/9
f 11/11/11 9/9/9 10/10/10
f 10/10/10 12/12/12 11/11/11
f 13/13/13 14/14/14 15/15/15
f 16/16/16 13/13/13 15/15/15
f 15/15/15 17/17/17 16/16/16
f 18/18/18 16/16/16 17/17/17
f 17/17/17 19/19/19 18/18/18
f 20/20/20 21/21/21 22/22/22
f 22/22/22 23/23/23 20/20/20
f 20/20/20 23/23/23 24/24/24
f 25/25/25 26/26/26 27/27/27
f 26/26/26 25/25/25 28/28/28
f 28/28/28 29/29/29 26/26/26
f 30/30/30 29/29/29 28/28/28
f 28/28/28 31/31/31 30/30/30
f 32/32/32 33/33/33 34/34/34
f 33/33/33 32/32/32 35/35/35
f 35/35/35 36/36/36 33/33/33
f 37/37/37 36/36/36 35/35/35
f 35/35/35 38/38/38 37/37/37
