v 0.18572736 5.927263565643609e-18 0.09679956
v 0.17079868 -0.07074704000000001 0.09801896
v 0.17079868 0.07074704000000001 0.09801896
v 0 -0.18572788 0.09679956000000002
v -0.10103808 -0.15106364000000003 0.09740900000000001
v 0 0.18572736 0.09679955999999999
v 0.10103808 -0.15106364000000003 0.09740900000000001
v 0.10103808 0.15106364000000003 0.09740899999999998
v -0.17079868 -0.07074704000000001 0.09801896
v -0.17079868 0.07074704000000001 0.09801896
v -0.10103808 0.15106364000000003 0.09740899999999998
v -0.18572736 5.927263565643609e-18 0.09679956
v 0.18572736 2.3842212558339323e-17 0.38937288
v 0.17079868 -0.07074703999999998 0.39059228
v 0.17079868 0.07074704000000004 0.39059228
v 0 -0.18572787999999998 0.38937288
v -0.10103808 -0.15106363999999997 0.38998284000000005
v 0 0.18572736000000004 0.38937288
v 0.10103808 -0.15106363999999997 0.38998284000000005
v 0.10103808 0.15106364000000005 0.38998284000000005
v -0.17079868 -0.07074703999999998 0.39059228
v -0.17079868 0.07074704000000004 0.39059228
v -0.10103808 0.15106364000000005 0.38998284000000005
v -0.18572736 2.3842212558339323e-17 0.38937288
v 0.14552096 2.419211129391091e-17 0.39508716
v 0.13382408 -0.05543147999999998 0.39615212000000005
v 0.13382408 0.055431480000000026 0.39615212000000005
v 0 -0.14552147999999998 0.39508716
v -0.07916532 -0.11836135999999997 0.39561964
v 0 0.14552096000000003 0.39508716
v 0.07916532 -0.11836135999999997 0.39561964
v 0.07916532 0.11836136000000003 0.39561964
v -0.13382408 -0.05543147999999998 0.39615212000000005
v -0.13382408 0.055431480000000026 0.39615212000000005
v -0.07916532 0.11836136000000003 0.39561964
v -0.14552096 2.419211129391091e-17 0.39508716
v 0.16562416000000002 2.4996633211436372e-17 0.40822600000000003
v 0.15231112 -0.06308951999999998 0.40936844000000006
v 0.15231112 0.06308952000000002 0.40936844000000006
v 0 -0.16562467999999997 0.40822600000000003
v -0.09010196000000001 -0.13471275999999996 0.40879696
v 0 0.16562416000000005 0.40822600000000003
v 0.09010196000000001 -0.13471275999999996 0.40879696
v 0.09010196000000001 0.13471276000000001 0.40879696
v -0.15231112 -0.06308951999999998 0.40936844000000006
v -0.15231112 0.06308952000000002 0.40936844000000006
v -0.09010196000000001 0.13471276000000001 0.40879696
v -0.16562416000000002 2.4996633211436372e-17 0.40822600000000003
v 0.18572736 2.3842212558339323e-17 0.38937288
v 0.18572736 5.927263565643609e-18 0.09679956
v -0.10103808 -0.15106363999999997 0.38998284000000005
v -0.10103808 -0.15106364000000003 0.09740900000000001
v -0.10103808 0.15106364000000005 0.38998284000000005
v -0.10103808 0.15106364000000003 0.09740899999999998
v 0.17079868 -0.07074703999999998 0.39059228
v 0.17079868 -0.07074704000000001 0.09801896
v 0.17079868 0.07074704000000004 0.39059228
v 0.17079868 0.07074704000000001 0.09801896
v 0 -0.18572787999999998 0.38937288
v 0.10103808 -0.15106363999999997 0.38998284000000005
v 0.10103808 -0.15106364000000003 0.09740900000000001
v 0 -0.18572788 0.09679956000000002
v 0.10103808 0.15106364000000005 0.38998284000000005
v 0 0.18572736000000004 0.38937288
v 0 0.18572736 0.09679955999999999
v 0.10103808 0.15106364000000003 0.09740899999999998
v -0.17079868 -0.07074703999999998 0.39059228
v -0.17079868 -0.07074704000000001 0.09801896
v -0.17079868 0.07074704000000004 0.39059228
v -0.18572736 2.3842212558339323e-17 0.38937288
v -0.18572736 5.927263565643609e-18 0.09679956
v -0.17079868 0.07074704000000001 0.09801896
v 0.16562416000000002 2.4996633211436372e-17 0.40822600000000003
v -0.09010196000000001 -0.13471275999999996 0.40879696
v -0.09010196000000001 0.13471276000000001 0.40879696
v 0.15231112 -0.06308951999999998 0.40936844000000006
v 0.15231112 0.06308952000000002 0.40936844000000006
v 0 -0.16562467999999997 0.40822600000000003
v 0.09010196000000001 -0.13471275999999996 0.40879696
v 0.09010196000000001 0.13471276000000001 0.40879696
v 0 0.16562416000000005 0.40822600000000003
v -0.15231112 -0.06308951999999998 0.40936844000000006
v -0.15231112 0.06308952000000002 0.40936844000000006
v -0.16562416000000002 2.4996633211436372e-17 0.40822600000000003
v 0.14552096 2.419211129391091e-17 0.39508716
v -0.07916532 -0.11836135999999997 0.39561964
v -0.07916532 0.11836136000000003 0.39561964
v 0.13382408 -0.05543147999999998 0.39615212000000005
v 0.13382408 0.055431480000000026 0.39615212000000005
v 0 -0.14552147999999998 0.39508716
v 0.07916532 -0.11836135999999997 0.39561964
v 0.07916532 0.11836136000000003 0.39561964
v 0 0.14552096000000003 0.39508716
v -0.13382408 -0.05543147999999998 0.39615212000000005
v -0.13382408 0.055431480000000026 0.39615212000000005
v -0.14552096 2.419211129391091e-17 0.39508716
v 0.15231112 -0.06308951999999998 0.40936844000000006
v 0.16562416000000002 2.4996633211436372e-17 0.40822600000000003
v 0.15231112 -0.06308951999999998 0.40936844000000006
v 0.15231112 0.06308952000000002 0.40936844000000006
v 0.15231112 0.06308952000000002 0.40936844000000006
v 0.16562416000000002 2.4996633211436372e-17 0.40822600000000003
v -0.09010196000000001 -0.13471275999999996 0.40879696
v 0 -0.16562467999999997 0.40822600000000003
v -0.09010196000000001 -0.13471275999999996 0.40879696
v -0.09010196000000001 0.13471276000000001 0.40879696
v -0.09010196000000001 0.13471276000000001 0.40879696
v 0 0.16562416000000005 0.40822600000000003
v -0.09010196000000001 -0.13471275999999996 0.40879696
v -0.09010196000000001 -0.13471275999999996 0.40879696
v -0.15231112 -0.06308951999999998 0.40936844000000006
v -0.09010196000000001 0.13471276000000001 0.40879696
v -0.15231112 0.06308952000000002 0.40936844000000006
v -0.09010196000000001 0.13471276000000001 0.40879696
v 0.09010196000000001 -0.13471275999999996 0.40879696
v 0.15231112 -0.06308951999999998 0.40936844000000006
v 0.09010196000000001 -0.13471275999999996 0.40879696
v 0.09010196000000001 0.13471276000000001 0.40879696
v 0.09010196000000001 0.13471276000000001 0.40879696
v 0.15231112 0.06308952000000002 0.40936844000000006
v 0.09010196000000001 -0.13471275999999996 0.40879696
v 0.09010196000000001 -0.13471275999999996 0.40879696
v 0 -0.16562467999999997 0.40822600000000003
v 0.09010196000000001 0.13471276000000001 0.40879696
v 0 0.16562416000000005 0.40822600000000003
v 0.09010196000000001 0.13471276000000001 0.40879696
v -0.15231112 -0.06308951999999998 0.40936844000000006
v -0.15231112 -0.06308951999999998 0.40936844000000006
v -0.16562416000000002 2.4996633211436372e-17 0.40822600000000003
v -0.15231112 0.06308952000000002 0.40936844000000006
v -0.16562416000000002 2.4996633211436372e-17 0.40822600000000003
v -0.15231112 0.06308952000000002 0.40936844000000006
vt 0.550503 0.019647
vt 0.550480 0.354103
vt 0.602069 0.019647
vt 0.498937 0.019647
vt 0.498914 0.354103
vt 0.669180 0.354103
vt 0.669180 0.354103
vt 0.669202 0.019647
vt 0.669180 0.354103
vt 0.669202 0.019647
vt 0.669202 0.019647
vt 0.669180 0.354103
vt 0.841889 0.014932
vt 0.841854 0.349404
vt 0.893455 0.014932
vt 0.790323 0.014932
vt 0.790288 0.349404
vt 0.960553 0.349404
vt 0.960553 0.349404
vt 0.960588 0.014932
vt 0.960553 0.349404
vt 0.960588 0.014932
vt 0.960588 0.014932
vt 0.960553 0.349404
vt 0.866986 0.033617
vt 0.866943 0.333703
vt 0.918552 0.033617
vt 0.815420 0.033617
vt 0.815377 0.333703
vt 0.985642 0.333703
vt 0.985642 0.333703
vt 0.985686 0.033617
vt 0.985642 0.333703
vt 0.985686 0.033617
vt 0.985686 0.033617
vt 0.985642 0.333703
vt 0.854438 0.024275
vt 0.854398 0.341553
vt 0.906004 0.024275
vt 0.802871 0.024275
vt 0.802832 0.341553
vt 0.973098 0.341553
vt 0.973098 0.341553
vt 0.973137 0.024275
vt 0.973098 0.341553
vt 0.973137 0.024275
vt 0.973137 0.024275
vt 0.973098 0.341553
vt 0.893420 0.349404
vt 0.602046 0.354103
vt 0.960588 0.014932
vt 0.669202 0.019647
vt 0.960553 0.349404
vt 0.669180 0.354103
vt 0.960588 0.014932
vt 0.669202 0.019647
vt 0.960553 0.349404
vt 0.669180 0.354103
vt 0.960553 0.349404
vt 0.960588 0.014932
vt 0.669202 0.019647
vt 0.669180 0.354103
vt 0.960553 0.349404
vt 0.960588 0.014932
vt 0.669202 0.019647
vt 0.669180 0.354103
vt 0.960588 0.014932
vt 0.669202 0.019647
vt 0.960553 0.349404
vt 0.960588 0.014932
vt 0.669202 0.019647
vt 0.669180 0.354103
vt 0.905964 0.341553
vt 0.973137 0.024275
vt 0.973098 0.341553
vt 0.973137 0.024275
vt 0.973098 0.341553
vt 0.973098 0.341553
vt 0.973137 0.024275
vt 0.973098 0.341553
vt 0.973137 0.024275
vt 0.973137 0.024275
vt 0.973098 0.341553
vt 0.973137 0.024275
vt 0.918509 0.333703
vt 0.985686 0.033617
vt 0.985642 0.333703
vt 0.985686 0.033617
vt 0.985642 0.333703
vt 0.985642 0.333703
vt 0.985686 0.033617
vt 0.985642 0.333703
vt 0.985686 0.033617
vt 0.985686 0.033617
vt 0.985642 0.333703
vt 0.985686 0.033617
vt 0.854398 0.341553
vt 0.854438 0.024275
vt 0.854398 0.341553
vt 0.906004 0.024275
vt 0.906004 0.024275
vt 0.905964 0.341553
vt 0.802832 0.341553
vt 0.802871 0.024275
vt 0.802832 0.341553
vt 0.973137 0.024275
vt 0.973137 0.024275
vt 0.973098 0.341553
vt 0.973137 0.024275
vt 0.973137 0.024275
vt 0.973098 0.341553
vt 0.973098 0.341553
vt 0.973137 0.024275
vt 0.973098 0.341553
vt 0.973098 0.341553
vt 0.973137 0.024275
vt 0.973098 0.341553
vt 0.973137 0.024275
vt 0.973137 0.024275
vt 0.973098 0.341553
vt 0.973137 0.024275
vt 0.973137 0.024275
vt 0.973098 0.341553
vt 0.973098 0.341553
vt 0.973137 0.024275
vt 0.973098 0.341553
vt 0.973137 0.024275
vt 0.973137 0.024275
vt 0.973098 0.341553
vt 0.973098 0.341553
vt 0.973137 0.024275
vt 0.973098 0.341553
vn 0.997535 -0.070167 4.296489597788616E-18
vn 0.853697 -0.520769 3.18879044472584E-17
vn 0.930364 0.366636 -2.244998019260945E-17
vn -0.113618 -0.993524 6.083579932380375E-17
vn -0.630665 -0.776055 4.7519663585614963E-17
vn 0.113618 0.993525 -6.083586055614371E-17
vn 0.482675 -0.875799 5.362722210232264E-17
vn 0.630664 0.776056 -4.7519724817954914E-17
vn -0.930364 -0.366636 2.244998019260945E-17
vn -0.853697 0.520769 -3.18879044472584E-17
vn -0.482674 0.8758 -5.36272833346626E-17
vn -0.997535 0.070167 -4.296489597788616E-18
vn 0.947504 0.04577200000000002 0.316451
vn 0.854762 -0.333589 0.397619
vn 0.81569 0.41893 0.398934
vn 0.073806 -0.94479 0.31925500000000007
vn -0.462324 -0.764754 0.44878500000000004
vn -0.073805 0.94479 0.31925499999999996
vn 0.531277 -0.718507 0.44887900000000003
vn 0.462323 0.764755 0.44878499999999993
vn -0.81569 -0.418929 0.398934
vn -0.854762 0.333589 0.397619
vn -0.531277 0.718507 0.4488789999999999
vn -0.947504 -0.04577199999999998 0.316451
vn -0.546073 5.129665801120527E-17 0.837738
vn -0.473313 0.29259300000000005 0.830882
vn -0.473313 -0.29259299999999994 0.830882
vn -0 0.546584 0.837405
vn 0.315594 0.45846400000000004 0.830789
vn -0 -0.546584 0.837405
vn -0.315594 0.45846400000000004 0.830789
vn -0.315594 -0.45846499999999996 0.830789
vn 0.473313 0.29259300000000005 0.830882
vn 0.473313 -0.29259299999999994 0.830882
vn 0.315594 -0.4584639999999999 0.830789
vn 0.546073 5.129665801120527E-17 0.837738
vn 0.338524 5.761706014160476E-17 0.940958
vn 0.048751 -0.09318499999999995 0.994455
vn 0.048751 0.09318500000000006 0.994455
vn 0 -0.33598399999999995 0.941868
vn 0.102718 0.14158200000000007 0.984583
vn -0 0.33598400000000006 0.941868
vn -0.102718 0.14158200000000007 0.984583
vn -0.102718 -0.14158199999999996 0.984583
vn -0.048751 -0.09318499999999995 0.994455
vn -0.048751 0.09318500000000006 0.994455
vn 0.102717 -0.14158199999999996 0.984583
vn -0.338524 5.761706014160476E-17 0.940958
vn 0.947504 0.04577200000000002 0.316451
vn 0.997535 -0.070167 4.296489597788616E-18
vn -0.462324 -0.764754 0.44878500000000004
vn -0.630665 -0.776055 4.7519663585614963E-17
vn -0.531277 0.718507 0.4488789999999999
vn -0.482674 0.8758 -5.36272833346626E-17
vn 0.854762 -0.333589 0.397619
vn 0.853697 -0.520769 3.18879044472584E-17
vn 0.81569 0.41893 0.398934
vn 0.930364 0.366636 -2.244998019260945E-17
vn 0.073806 -0.94479 0.31925500000000007
vn 0.531277 -0.718507 0.44887900000000003
vn 0.482675 -0.875799 5.362722210232264E-17
vn -0.113618 -0.993524 6.083579932380375E-17
vn 0.462323 0.764755 0.44878499999999993
vn -0.073805 0.94479 0.31925499999999996
vn 0.113618 0.993525 -6.083586055614371E-17
vn 0.630664 0.776056 -4.7519724817954914E-17
vn -0.81569 -0.418929 0.398934
vn -0.930364 -0.366636 2.244998019260945E-17
vn -0.854762 0.333589 0.397619
vn -0.947504 -0.04577199999999998 0.316451
vn -0.997535 0.070167 -4.296489597788616E-18
vn -0.853697 0.520769 -3.18879044472584E-17
vn 0.338524 5.761706014160476E-17 0.940958
vn 0.102718 0.14158200000000007 0.984583
vn 0.102717 -0.14158199999999996 0.984583
vn 0.048751 -0.09318499999999995 0.994455
vn 0.048751 0.09318500000000006 0.994455
vn 0 -0.33598399999999995 0.941868
vn -0.102718 0.14158200000000007 0.984583
vn -0.102718 -0.14158199999999996 0.984583
vn -0 0.33598400000000006 0.941868
vn -0.048751 -0.09318499999999995 0.994455
vn -0.048751 0.09318500000000006 0.994455
vn -0.338524 5.761706014160476E-17 0.940958
vn -0.546073 5.129665801120527E-17 0.837738
vn 0.315594 0.45846400000000004 0.830789
vn 0.315594 -0.4584639999999999 0.830789
vn -0.473313 0.29259300000000005 0.830882
vn -0.473313 -0.29259299999999994 0.830882
vn -0 0.546584 0.837405
vn -0.315594 0.45846400000000004 0.830789
vn -0.315594 -0.45846499999999996 0.830789
vn -0 -0.546584 0.837405
vn 0.473313 0.29259300000000005 0.830882
vn 0.473313 -0.29259299999999994 0.830882
vn 0.546073 5.129665801120527E-17 0.837738
vn 0.048751 -0.09318499999999995 0.994455
vn 0.338524 5.761706014160476E-17 0.940958
vn 0.048751 -0.09318499999999995 0.994455
vn 0.048751 0.09318500000000006 0.994455
vn 0.048751 0.09318500000000006 0.994455
vn 0.338524 5.761706014160476E-17 0.940958
vn 0.102718 0.14158200000000007 0.984583
vn 0 -0.33598399999999995 0.941868
vn 0.102718 0.14158200000000007 0.984583
vn 0.102717 -0.14158199999999996 0.984583
vn 0.102717 -0.14158199999999996 0.984583
vn -0 0.33598400000000006 0.941868
vn 0.102718 0.14158200000000007 0.984583
vn 0.102718 0.14158200000000007 0.984583
vn -0.048751 -0.09318499999999995 0.994455
vn 0.102717 -0.14158199999999996 0.984583
vn -0.048751 0.09318500000000006 0.994455
vn 0.102717 -0.14158199999999996 0.984583
vn -0.102718 0.14158200000000007 0.984583
vn 0.048751 -0.09318499999999995 0.994455
vn -0.102718 0.14158200000000007 0.984583
vn -0.102718 -0.14158199999999996 0.984583
vn -0.102718 -0.14158199999999996 0.984583
vn 0.048751 0.09318500000000006 0.994455
vn -0.102718 0.14158200000000007 0.984583
vn -0.102718 0.14158200000000007 0.984583
vn 0 -0.33598399999999995 0.941868
vn -0.102718 -0.14158199999999996 0.984583
vn -0 0.33598400000000006 0.941868
vn -0.102718 -0.14158199999999996 0.984583
vn -0.048751 -0.09318499999999995 0.994455
vn -0.048751 -0.09318499999999995 0.994455
vn -0.338524 5.761706014160476E-17 0.940958
vn -0.048751 0.09318500000000006 0.994455
vn -0.338524 5.761706014160476E-17 0.940958
vn -0.048751 0.09318500000000006 0.994455
g Material #0
f 132/132/132 131/131/131 96/96/96
f 96/96/96 95/95/95 130/130/130
f 36/36/36 129/129/129 128/128/128
f 127/127/127 94/94/94 36/36/36
f 126/126/126 125/125/125 93/93/93
f 93/93/93 92/92/92 124/124/124
f 90/90/90 123/123/123 122/122/122
f 121/121/121 91/91/91 90/90/90
f 89/89/89 120/120/120 119/119/119
f 118/118/118 32/32/32 89/89/89
f 117/117/117 116/116/116 88/88/88
f 88/88/88 31/31/31 115/115/115
f 114/114/114 113/113/113 34/34/34
f 34/34/34 87/87/87 112/112/112
f 33/33/33 111/111/111 110/110/110
f 109/109/109 86/86/86 33/33/33
f 30/30/30 108/108/108 107/107/107
f 106/106/106 35/35/35 30/30/30
f 105/105/105 104/104/104 28/28/28
f 28/28/28 29/29/29 103/103/103
f 85/85/85 102/102/102 101/101/101
f 100/100/100 27/27/27 85/85/85
f 99/99/99 98/98/98 25/25/25
f 25/25/25 26/26/26 97/97/97
f 69/69/69 70/70/70 84/84/84
f 84/84/84 83/83/83 69/69/69
f 67/67/67 82/82/82 48/48/48
f 48/48/48 24/24/24 67/67/67
f 63/63/63 64/64/64 81/81/81
f 81/81/81 80/80/80 63/63/63
f 60/60/60 79/79/79 78/78/78
f 78/78/78 59/59/59 60/60/60
f 20/20/20 44/44/44 77/77/77
f 77/77/77 57/57/57 20/20/20
f 19/19/19 55/55/55 76/76/76
f 76/76/76 43/43/43 19/19/19
f 53/53/53 22/22/22 46/46/46
f 46/46/46 75/75/75 53/53/53
f 51/51/51 74/74/74 45/45/45
f 45/45/45 21/21/21 51/51/51
f 23/23/23 47/47/47 42/42/42
f 42/42/42 18/18/18 23/23/23
f 17/17/17 16/16/16 40/40/40
f 40/40/40 41/41/41 17/17/17
f 15/15/15 39/39/39 73/73/73
f 73/73/73 49/49/49 15/15/15
f 14/14/14 13/13/13 37/37/37
f 37/37/37 38/38/38 14/14/14
f 69/69/69 72/72/72 71/71/71
f 71/71/71 70/70/70 69/69/69
f 24/24/24 12/12/12 68/68/68
f 68/68/68 67/67/67 24/24/24
f 63/63/63 66/66/66 65/65/65
f 65/65/65 64/64/64 63/63/63
f 59/59/59 62/62/62 61/61/61
f 61/61/61 60/60/60 59/59/59
f 57/57/57 58/58/58 8/8/8
f 8/8/8 20/20/20 57/57/57
f 19/19/19 7/7/7 56/56/56
f 56/56/56 55/55/55 19/19/19
f 53/53/53 54/54/54 10/10/10
f 10/10/10 22/22/22 53/53/53
f 21/21/21 9/9/9 52/52/52
f 52/52/52 51/51/51 21/21/21
f 18/18/18 6/6/6 11/11/11
f 11/11/11 23/23/23 18/18/18
f 17/17/17 5/5/5 4/4/4
f 4/4/4 16/16/16 17/17/17
f 49/49/49 50/50/50 3/3/3
f 3/3/3 15/15/15 49/49/49
f 14/14/14 2/2/2 1/1/1
f 1/1/1 13/13/13 14/14/14
