v -0.450126 0.37386700000000006 0.73996
v -0.397226 -0.04927899999999996 0.62951
v -0.394188 -0.05119199999999996 0.642492
v -0.376964 -0.05067299999999996 0.638442
v -0.369469 0.47361500000000006 0.765169
v -0.450126 0.37386700000000006 0.73996
v -0.450126 0.37386700000000006 0.73996
v -0.394188 -0.05119199999999996 0.642492
v -0.376964 -0.05067299999999996 0.638442
v -0.450126 0.37386700000000006 0.73996
v -0.376964 -0.05067299999999996 0.638442
v -0.397226 -0.04927899999999996 0.62951
v -0.369469 0.47361500000000006 0.765169
v -0.376964 -0.05067299999999996 0.638442
v -0.450126 0.37386700000000006 0.73996
v -0.397226 -0.04927899999999996 0.62951
v -0.376964 -0.05067299999999996 0.638442
v -0.394188 -0.05119199999999996 0.642492
v -0.292752 0.08283400000000005 0.66973
v -0.399228 0.04878100000000004 0.680247
v -0.3993 0.05882900000000004 0.64364
v -0.490958 0.037241000000000045 0.65738
v -0.401613 0.08044800000000005 0.668588
v -0.292752 0.08283400000000005 0.66973
v -0.401613 0.08044800000000005 0.668588
v -0.399228 0.04878100000000004 0.680247
v -0.490958 0.037241000000000045 0.65738
v -0.3993 0.05882900000000004 0.64364
v -0.3993 0.05882900000000004 0.64364
v -0.401613 0.08044800000000005 0.668588
v -0.292752 0.08283400000000005 0.66973
v -0.490958 0.037241000000000045 0.65738
vt 0.585568 0.181692
vt 0.915771 0.223959
vt 0.944180 0.250363
vt 0.972178 0.285803
vt 0.359183 0.235058
vt 0.585568 0.181692
vt 0.585568 0.181692
vt 0.944180 0.250363
vt 0.972178 0.285803
vt 0.557476 0.342635
vt 0.972178 0.285803
vt 0.907465 0.328532
vt 0.359183 0.235058
vt 0.972178 0.285803
vt 0.557476 0.342635
vt 0.505316 0.806280
vt 0.525305 0.823675
vt 0.498289 0.827013
vt 0.397927 0.311560
vt 0.273882 0.291615
vt 0.282959 0.254533
vt 0.189443 0.227982
vt 0.264296 0.332127
vt 0.397927 0.311560
vt 0.264296 0.332127
vt 0.273882 0.291615
vt 0.188595 0.228101
vt 0.282959 0.254533
vt 0.282959 0.254533
vt 0.308764 0.219619
vt 0.397927 0.311560
vt 0.188595 0.228101
vn -0.96438 -0.172831 0.200251
vn -0.96438 -0.172831 0.200251
vn -0.96438 -0.172831 0.200251
vn -0.013479 -0.23474399999999995 0.971964
vn -0.013479 -0.23474399999999995 0.971964
vn -0.013479 -0.23474399999999995 0.971964
vn 0.230151 -0.18862999999999994 0.954698
vn 0.230151 -0.18862999999999994 0.954698
vn 0.230151 -0.18862999999999994 0.954698
vn 0.403392 0.2779829999999999 -0.87178
vn 0.403392 0.2779829999999999 -0.87178
vn 0.403392 0.2779829999999999 -0.87178
vn 0.013479 0.23474399999999995 -0.971964
vn 0.013479 0.23474399999999995 -0.971964
vn 0.013479 0.23474399999999995 -0.971964
vn -0.004248 -0.989448 -0.14482599999999995
vn -0.004248 -0.989448 -0.14482599999999995
vn -0.004248 -0.989448 -0.14482599999999995
vn 0.271572 -0.92796 -0.25522199999999995
vn 0.005425 -0.682831 0.730556
vn 0.271572 -0.92796 -0.25522199999999995
vn -0.266704 0.31524300000000005 0.910764
vn -0.266704 0.31524300000000005 0.910764
vn -0.0174 0.34430600000000006 0.938696
vn -0.0174 0.34430600000000006 0.938696
vn 0.180686 -0.653784 0.734792
vn 0.184173 -0.94775 -0.26048199999999994
vn 0.184173 -0.94775 -0.26048199999999994
vn -0.138727 0.742009 -0.655879
vn -0.138727 0.742009 -0.655879
vn -0.009679 0.755239 -0.655378
vn -0.26544 0.716292 -0.645343
g OR_mil_standard_prob
f 1/1/1 2/2/2 3/3/3
f 4/4/4 5/5/5 6/6/6
f 7/7/7 8/8/8 9/9/9
f 10/10/10 11/11/11 12/12/12
f 13/13/13 14/14/14 15/15/15
f 16/16/16 17/17/17 18/18/18
f 19/19/19 20/20/20 21/21/21
f 22/22/22 20/20/20 23/23/23
f 24/24/24 25/25/25 26/26/26
f 27/27/27 28/28/28 26/26/26
f 29/29/29 30/30/30 31/31/31
f 30/30/30 29/29/29 32/32/32
