v -3.01206581145 3.00603746865 -1.5531128124000004
v -3.0120826236 -3.030830448 -1.53546737085
v -1.8363837316499998 1.82975005455 0.02341113689999989
v 3.0015306012 1.18086434025 0.02622617879999993
v -3.0120826236 1.18086424335 0.02622617879999993
v -3.01206581145 1.1808642433499998 -1.5442901643
v -1.1781597159000001 3.0060542808 0.02622617879999982
v 1.17645509955 3.0060542808 0.02622617879999982
v -1.1781597159000001 3.00603746865 -1.5442901643000002
v -1.1781600066 1.18086424335 0.024818754749999932
v -1.8363837316499998 1.18086424335 0.023411136899999928
v -1.1781597159000001 1.82975005455 0.02341113689999989
v -2.8636490718 2.85718288635 -1.3703101872000003
v -2.86512025605 2.8590162828000003 -1.1963985246000002
v -2.7168485757 2.71014488835 -1.1960517195000002
v -2.71815803385 2.71197833325 -1.0221400569
v -2.5699843194 2.56310689035 -1.0217931549000003
v -2.5711956663 2.5649401414499997 -0.8478814923000001
v -2.4230304306 2.4160689408 -0.8475345418500001
v -2.4242332503000004 2.4179021919 -0.6736228792500002
v -2.2788978822 2.269030749 -0.6732759772500002
v -2.2772708827500003 2.2708641939 -0.49936441155000016
v -2.131756395 2.12199279945 -0.4990173157500002
v -2.13030846675 2.12382605055 -0.3251058469500001
v -1.9849557051 1.97495480145 -0.32475894495000013
v -1.9833460991999998 1.97678805255 -0.15084733080000012
v -1.838155209 1.8279166581000001 -0.1505003319000001
v -1.838155209 1.18086424335 -0.15050033190000006
v -1.9833460991999998 1.18086424335 -0.15084733080000007
v -1.9849557051 1.18086424335 -0.3247589449500001
v -2.13030846675 1.18086424335 -0.32510584695000005
v -2.131756395 1.18086424335 -0.4990174126500001
v -2.2772708827500003 1.18086424335 -0.49936441155000005
v -2.2788978822 1.18086424335 -0.6732759772500001
v -2.4242332503000004 1.18086424335 -0.6736228792500001
v -2.4230304306 1.18086424335 -0.84753454185
v -2.5711956663 1.18086424335 -0.8478814923
v -2.5699843194 1.18086424335 -1.0217931549000001
v -2.71815803385 1.18086424335 -1.0221400569
v -2.7168485757 1.18086424335 -1.1960517195
v -2.86512025605 1.18086424335 -1.1963986215
v -2.8636490718 1.18086424335 -1.3703101872
v -1.1781597159000001 2.85718288635 -1.3703101872000003
v -1.1781597159000001 2.8590162828000003 -1.1963986215000002
v -1.1781596189999999 2.71014488835 -1.1960517195000002
v -1.1781597159000001 2.71197833325 -1.0221400569
v -1.1781597159000001 2.56310689035 -1.0217931549000003
v -1.1781597159000001 2.5649401414499997 -0.8478814923000001
v -1.1781597159000001 2.4160689408 -0.8475345418500001
v -1.1781597159000001 2.4179021919 -0.6736228792500002
v -1.1781597159000001 2.269030749 -0.6732759772500002
v -1.1781597159000001 2.2708641939 -0.49936441155000016
v -1.1781597159000001 2.12199279945 -0.4990174126500002
v -1.1781597159000001 2.12382605055 -0.3251058469500001
v -1.1781596189999999 1.97495480145 -0.32475894495000013
v -1.1781597159000001 1.97678805255 -0.15084733080000012
v -1.1781597159000001 1.8279166581000001 -0.1505003319000001
v -3.0120826236 3.0060542808 -1.3706570892000003
v -1.1781597159000001 3.0060542808 -1.3706570892000003
v -3.0120826236 1.18086424335 -1.3706570892
v -3.01206581145 1.1808642433499998 -1.5442901643
v -1.1781597159000001 3.00603746865 -1.5442901643000002
v 1.17645509955 3.00603746865 -1.5442901643000002
v 1.1764549542 1.18086424335 0.024818754749999932
v -1.1781600066 1.18086424335 0.024818754749999932
v -3.0120826236 -3.030830448 0.026226178800000187
v 3.0015306012 -3.030830448 0.026226178800000187
v -1.0098492609 -3.030830448 -1.53546737085
v -1.00984901865 -3.030830448 0.026226178800000187
v 1.0016013267 -3.030830448 0.026226178800000187
v -1.00984901865 -2.49568842465 0.026226178800000152
v 0.99238434405 -2.49568842465 0.026226178800000152
v 0.9992972385000001 -3.030830448 -1.53546737085
v -1.0098492609 -3.030830448 -1.53546737085
v -1.00984901865 -2.9248168576499998 -0.5009651510999998
v 1.0019838879 -2.9248168576499998 -0.5009651510999998
v -1.00984901865 -2.49568842465 0.026226178800000152
v 1.001983791 -2.49568842465 0.026226178800000152
v -1.00984901865 -2.9238021693 -0.31936786499999986
v -1.00984901865 -2.71030603305 -0.31936786499999986
v -1.00984901865 -2.7097453212000002 -0.14933263844999983
v -1.00984901865 -2.4965071812 -0.14933254154999986
v 1.0019838879 -2.4965071812 -0.14933254154999986
v 1.0019838879 -2.7097453212000002 -0.14933263844999983
v 1.0019838879 -2.7103056938999996 -0.31936786499999986
v 1.0019838879 -2.9238021693 -0.31936786499999986
v -1.00984921245 -3.030830448 -0.5032629407999998
v 1.00198374255 -3.030830448 -0.5032629407999998
v -1.00984901865 -3.030830448 0.026226178800000187
v -1.00984901865 -2.20570296525 0.026226178800000135
v -1.00984921245 -3.030830448 -0.6091902901499998
v 3.0084270226500003 1.1808643402499999 -1.5442901643
v 3.0015306012 1.18086434025 0.02622617879999993
v 3.0015306012 -3.030830448 0.026226178800000187
v 3.00844368945 -3.030830448 -1.53546737085
v 1.1745214116 1.18086434025 0.024818754749999932
v 1.17452068485 3.00603746865 -1.5442901643000002
v 1.17452068485 3.0060542808 0.02622617879999982
v 1.0016014236 -3.030830448 0.026226178800000187
v 0.9992974322999999 -3.030830448 -1.53546737085
v 1.00621061745 -3.030830448 -0.6091902901499998
v 1.0016014236 -3.030830448 0.026226178800000187
v 1.0062098422499999 -2.20570296525 0.026226178800000135
v 1.1745214116 1.18086434025 0.024818754749999932
v 2.4110195787 1.18086424335 -0.84753454185
v 2.4110195787 2.4160689408 -0.8475345418500001
v 2.4122223984 2.4179021919 -0.6736228792500002
v 2.4122223984 1.18086424335 -0.6736228792500001
v 1.82437287975 1.18086424335 0.023411136899999928
v 1.82437287975 1.82975005455 0.02341113689999989
v 1.1661488640000002 1.82975005455 0.02341113689999989
v 1.1661491547 1.18086424335 0.024818754749999932
v 1.1661488640000002 2.4179021919 -0.6736228792500002
v 1.1661488640000002 2.269030749 -0.6732759772500002
v 2.2668870303 2.269030749 -0.6732759772500002
v 1.82614440555 1.18086424335 -0.15050033190000006
v 1.82614440555 1.8279166581000001 -0.1505003319000001
v 1.9713352473 1.18086424335 -0.15084733080000007
v 1.9713352473 1.97678805255 -0.15084733080000012
v 1.9729448531999998 1.18086424335 -0.3247589449500001
v 1.9729448531999998 1.97495480145 -0.32475894495000013
v 2.11829761485 1.18086424335 -0.32510584695000005
v 2.11829761485 2.12382605055 -0.3251058469500001
v 2.1197455431 1.18086424335 -0.4990174126500001
v 2.1197455431 2.12199279945 -0.4990173157500002
v 2.26526003085 1.18086424335 -0.49936441155000005
v 2.26526003085 2.2708641939 -0.49936441155000016
v 2.2668870303 1.18086424335 -0.6732759772500001
v 2.8516382199000003 2.85718288635 -1.3703101872000003
v 2.8516382199000003 1.18086424335 -1.3703101872
v 3.0000717717 1.18086424335 -1.3706570892
v 3.0000717717 3.0060542808 -1.3706570892000003
v 2.85310940415 2.8590162828000003 -1.1963985246000002
v 2.85310940415 1.18086424335 -1.1963986215
v 2.7048377238 2.71014488835 -1.1960517195000002
v 2.7048377238 1.18086424335 -1.1960517195
v 2.70614718195 2.71197833325 -1.0221400569
v 2.70614718195 1.18086424335 -1.0221400569
v 2.5579734674999997 2.56310689035 -1.0217931549000003
v 2.5579734674999997 1.18086424335 -1.0217931549000001
v 2.5591848144 2.5649401414499997 -0.8478814923000001
v 2.5591848144 1.18086424335 -0.8478814923
v 1.1661488640000002 3.0060542808 -1.3706570892000003
v 1.1661488640000002 2.85718288635 -1.3703101872000003
v 1.1661488640000002 2.8590162828000003 -1.1963986215000002
v 1.1661487671 2.71014488835 -1.1960517195000002
v 1.1661488640000002 2.71197833325 -1.0221400569
v 1.1661488640000002 2.56310689035 -1.0217931549000003
v 1.1661488640000002 2.5649401414499997 -0.8478814923000001
v 1.1661488640000002 2.4160689408 -0.8475345418500001
v 1.1661488640000002 1.8279166581000001 -0.1505003319000001
v 1.1661488640000002 1.97678805255 -0.15084733080000012
v 1.1661487671 1.97495480145 -0.32475894495000013
v 1.1661488640000002 2.12382605055 -0.3251058469500001
v 1.1661488640000002 2.12199279945 -0.4990174126500002
v 1.1661488640000002 2.2708641939 -0.49936441155000016
v 3.00005495955 1.1808642433499998 -1.5442901643
v 3.00005495955 3.00603746865 -1.5531128124000004
v 1.1661488640000002 3.00603746865 -1.5442901643000002
v -1.1781597159000001 3.0060542808 0.02622617879999982
v 1.17645509955 3.0060542808 0.02622617879999982
v -2.4242332503000004 2.4179021919 -0.6736228792500002
v -1.8363837316499998 1.82975005455 0.02341113689999989
v -1.8363837316499998 1.18086424335 0.023411136899999928
v -1.838155209 1.8279166581000001 -0.1505003319000001
v -1.838155209 1.18086424335 -0.15050033190000006
v -1.9833460991999998 1.97678805255 -0.15084733080000012
v -1.9833460991999998 1.18086424335 -0.15084733080000007
v -1.9849557051 1.97495480145 -0.32475894495000013
v -1.9849557051 1.18086424335 -0.3247589449500001
v -2.13030846675 2.12382605055 -0.3251058469500001
v -2.13030846675 1.18086424335 -0.32510584695000005
v -2.131756395 2.12199279945 -0.4990173157500002
v -2.131756395 1.18086424335 -0.4990174126500001
v -2.2788978822 2.269030749 -0.6732759772500002
v -2.2788978822 2.269030749 -0.6732759772500002
v -2.2788978822 1.18086424335 -0.6732759772500001
v -2.4242332503000004 1.18086424335 -0.6736228792500001
v -2.4242332503000004 2.4179021919 -0.6736228792500002
v -2.8636490718 1.18086424335 -1.3703101872
v -2.8636490718 2.85718288635 -1.3703101872000003
v -2.86512025605 1.18086424335 -1.1963986215
v -2.86512025605 2.8590162828000003 -1.1963985246000002
v -2.7168485757 1.18086424335 -1.1960517195
v -2.7168485757 2.71014488835 -1.1960517195000002
v -2.5699843194 1.18086424335 -1.0217931549000001
v -2.5699843194 2.56310689035 -1.0217931549000003
v -2.4230304306 2.4160689408 -0.8475345418500001
v -2.4230304306 1.18086424335 -0.84753454185
v -2.8636490718 2.85718288635 -1.3703101872000003
v -3.0120826236 3.0060542808 -1.3706570892000003
v -2.86512025605 2.8590162828000003 -1.1963985246000002
v -2.8636490718 2.85718288635 -1.3703101872000003
v -1.1781597159000001 2.85718288635 -1.3703101872000003
v -2.7168485757 2.71014488835 -1.1960517195000002
v -1.1781597159000001 2.8590162828000003 -1.1963986215000002
v -2.71815803385 2.71197833325 -1.0221400569
v -2.7168485757 2.71014488835 -1.1960517195000002
v -1.1781596189999999 2.71014488835 -1.1960517195000002
v -2.5699843194 2.56310689035 -1.0217931549000003
v -2.71815803385 2.71197833325 -1.0221400569
v -1.1781597159000001 2.71197833325 -1.0221400569
v -2.5711956663 2.5649401414499997 -0.8478814923000001
v -2.5699843194 2.56310689035 -1.0217931549000003
v -1.1781597159000001 2.56310689035 -1.0217931549000003
v -2.4230304306 2.4160689408 -0.8475345418500001
v -2.5711956663 2.5649401414499997 -0.8478814923000001
v -1.1781597159000001 2.5649401414499997 -0.8478814923000001
v -2.4242332503000004 2.4179021919 -0.6736228792500002
v -2.4230304306 2.4160689408 -0.8475345418500001
v -1.1781597159000001 2.4160689408 -0.8475345418500001
v -1.1781597159000001 2.4179021919 -0.6736228792500002
v -1.1781597159000001 1.82975005455 0.02341113689999989
v -1.8363837316499998 1.82975005455 0.02341113689999989
v -1.838155209 1.8279166581000001 -0.1505003319000001
v -1.1781597159000001 1.8279166581000001 -0.1505003319000001
v -1.838155209 1.8279166581000001 -0.1505003319000001
v -1.9833460991999998 1.97678805255 -0.15084733080000012
v -1.1781597159000001 1.97678805255 -0.15084733080000012
v -1.9833460991999998 1.97678805255 -0.15084733080000012
v -1.9849557051 1.97495480145 -0.32475894495000013
v -1.1781596189999999 1.97495480145 -0.32475894495000013
v -1.9849557051 1.97495480145 -0.32475894495000013
v -2.13030846675 2.12382605055 -0.3251058469500001
v -1.1781597159000001 2.12382605055 -0.3251058469500001
v -2.13030846675 2.12382605055 -0.3251058469500001
v -2.131756395 2.12199279945 -0.4990173157500002
v -1.1781597159000001 2.12199279945 -0.4990174126500002
v -2.131756395 2.12199279945 -0.4990173157500002
v -2.2772708827500003 2.2708641939 -0.49936441155000016
v -1.1781597159000001 2.269030749 -0.6732759772500002
v -1.1781597159000001 2.2708641939 -0.49936441155000016
v -2.2772708827500003 2.2708641939 -0.49936441155000016
v -2.2788978822 2.269030749 -0.6732759772500002
v -3.0120826236 3.0060542808 -1.3706570892000003
v -3.0120826236 1.18086424335 -1.3706570892
v -1.1781597159000001 3.0060542808 -1.3706570892000003
v -3.0120826236 3.0060542808 -1.3706570892000003
v -3.01206581145 3.00603746865 -1.5531128124000004
v -1.1781600066 1.18086424335 0.024818754749999932
v -1.1781597159000001 3.00603746865 -1.5442901643000002
v -1.1781597159000001 3.0060542808 0.02622617879999982
v -3.01206581145 1.1808642433499998 -1.5442901643
v -1.1781600066 1.18086424335 0.024818754749999932
v -3.0120826236 1.18086424335 0.02622617879999993
v -3.0120826236 -3.030830448 0.026226178800000187
v -3.0120826236 1.18086424335 0.02622617879999993
v -1.1781600066 1.18086424335 0.024818754749999932
v 1.1764549542 1.18086424335 0.024818754749999932
v -3.0120826236 -3.030830448 -1.53546737085
v -3.0120826236 -3.030830448 0.026226178800000187
v -1.00984901865 -3.030830448 0.026226178800000187
v -1.00984901865 -2.4965071812 -0.14933254154999986
v 1.0019838879 -2.4965071812 -0.14933254154999986
v -1.00984901865 -2.71030603305 -0.31936786499999986
v 1.0019838879 -2.7103056938999996 -0.31936786499999986
v 1.00198374255 -3.030830448 -0.5032629407999998
v -1.00984921245 -3.030830448 -0.5032629407999998
v -1.00984901865 -2.9248168576499998 -0.5009651510999998
v 1.0019838879 -2.9248168576499998 -0.5009651510999998
v 3.0084270226500003 1.1808643402499999 -1.5442901643
v 3.0015306012 1.18086434025 0.02622617879999993
v 3.00844368945 -3.030830448 -1.53546737085
v 3.0015306012 -3.030830448 0.026226178800000187
v 2.4122223984 2.4179021919 -0.6736228792500002
v 1.82437287975 1.82975005455 0.02341113689999989
v 1.82437287975 1.18086424335 0.023411136899999928
v 1.82614440555 1.8279166581000001 -0.1505003319000001
v 1.82614440555 1.18086424335 -0.15050033190000006
v 1.9713352473 1.97678805255 -0.15084733080000012
v 1.9713352473 1.18086424335 -0.15084733080000007
v 1.9729448531999998 1.97495480145 -0.32475894495000013
v 1.9729448531999998 1.18086424335 -0.3247589449500001
v 2.11829761485 2.12382605055 -0.3251058469500001
v 2.11829761485 1.18086424335 -0.32510584695000005
v 2.1197455431 2.12199279945 -0.4990173157500002
v 2.1197455431 1.18086424335 -0.4990174126500001
v 2.2668870303 2.269030749 -0.6732759772500002
v 2.2668870303 2.269030749 -0.6732759772500002
v 2.4122223984 2.4179021919 -0.6736228792500002
v 2.4122223984 1.18086424335 -0.6736228792500001
v 2.2668870303 1.18086424335 -0.6732759772500001
v 2.8516382199000003 1.18086424335 -1.3703101872
v 2.8516382199000003 2.85718288635 -1.3703101872000003
v 2.85310940415 1.18086424335 -1.1963986215
v 2.85310940415 2.8590162828000003 -1.1963985246000002
v 2.7048377238 1.18086424335 -1.1960517195
v 2.7048377238 2.71014488835 -1.1960517195000002
v 2.5579734674999997 1.18086424335 -1.0217931549000001
v 2.5579734674999997 2.56310689035 -1.0217931549000003
v 2.4110195787 1.18086424335 -0.84753454185
v 2.4110195787 2.4160689408 -0.8475345418500001
v 2.8516382199000003 2.85718288635 -1.3703101872000003
v 3.0000717717 3.0060542808 -1.3706570892000003
v 2.85310940415 2.8590162828000003 -1.1963985246000002
v 1.1661488640000002 2.85718288635 -1.3703101872000003
v 2.8516382199000003 2.85718288635 -1.3703101872000003
v 2.7048377238 2.71014488835 -1.1960517195000002
v 1.1661488640000002 2.8590162828000003 -1.1963986215000002
v 2.70614718195 2.71197833325 -1.0221400569
v 1.1661487671 2.71014488835 -1.1960517195000002
v 2.7048377238 2.71014488835 -1.1960517195000002
v 2.5579734674999997 2.56310689035 -1.0217931549000003
v 1.1661488640000002 2.71197833325 -1.0221400569
v 2.70614718195 2.71197833325 -1.0221400569
v 2.5591848144 2.5649401414499997 -0.8478814923000001
v 1.1661488640000002 2.56310689035 -1.0217931549000003
v 2.5579734674999997 2.56310689035 -1.0217931549000003
v 2.4110195787 2.4160689408 -0.8475345418500001
v 1.1661488640000002 2.5649401414499997 -0.8478814923000001
v 2.5591848144 2.5649401414499997 -0.8478814923000001
v 2.4122223984 2.4179021919 -0.6736228792500002
v 1.1661488640000002 2.4179021919 -0.6736228792500002
v 1.1661488640000002 2.4160689408 -0.8475345418500001
v 2.4110195787 2.4160689408 -0.8475345418500001
v 1.82614440555 1.8279166581000001 -0.1505003319000001
v 1.82437287975 1.82975005455 0.02341113689999989
v 1.1661488640000002 1.82975005455 0.02341113689999989
v 1.9713352473 1.97678805255 -0.15084733080000012
v 1.82614440555 1.8279166581000001 -0.1505003319000001
v 1.1661488640000002 1.8279166581000001 -0.1505003319000001
v 1.9729448531999998 1.97495480145 -0.32475894495000013
v 1.9713352473 1.97678805255 -0.15084733080000012
v 1.1661488640000002 1.97678805255 -0.15084733080000012
v 2.11829761485 2.12382605055 -0.3251058469500001
v 1.9729448531999998 1.97495480145 -0.32475894495000013
v 1.1661487671 1.97495480145 -0.32475894495000013
v 2.1197455431 2.12199279945 -0.4990173157500002
v 2.11829761485 2.12382605055 -0.3251058469500001
v 1.1661488640000002 2.12382605055 -0.3251058469500001
v 2.26526003085 2.2708641939 -0.49936441155000016
v 2.1197455431 2.12199279945 -0.4990173157500002
v 1.1661488640000002 2.12199279945 -0.4990174126500002
v 1.1661488640000002 2.269030749 -0.6732759772500002
v 2.2668870303 2.269030749 -0.6732759772500002
v 2.26526003085 2.2708641939 -0.49936441155000016
v 1.1661488640000002 2.2708641939 -0.49936441155000016
v 3.0000717717 1.18086424335 -1.3706570892
v 3.0000717717 3.0060542808 -1.3706570892000003
v 3.00005495955 3.00603746865 -1.5531128124000004
v 3.0000717717 3.0060542808 -1.3706570892000003
v 1.1661488640000002 3.0060542808 -1.3706570892000003
v -2.2772708827500003 2.2708641939 -0.49936441155000016
v -2.2772708827500003 1.18086424335 -0.49936441155000005
v -2.71815803385 1.18086424335 -1.0221400569
v -2.71815803385 2.71197833325 -1.0221400569
v -2.5711956663 1.18086424335 -0.8478814923
v -2.5711956663 2.5649401414499997 -0.8478814923000001
v -2.86512025605 2.8590162828000003 -1.1963985246000002
v 1.0019838879 -2.7097453212000002 -0.14933263844999983
v -1.00984901865 -2.7097453212000002 -0.14933263844999983
v 1.0019838879 -2.9238021693 -0.31936786499999986
v -1.00984901865 -2.9238021693 -0.31936786499999986
v 2.26526003085 2.2708641939 -0.49936441155000016
v 2.26526003085 1.18086424335 -0.49936441155000005
v 2.70614718195 1.18086424335 -1.0221400569
v 2.70614718195 2.71197833325 -1.0221400569
v 2.5591848144 1.18086424335 -0.8478814923
v 2.5591848144 2.5649401414499997 -0.8478814923000001
v 2.85310940415 2.8590162828000003 -1.1963985246000002
vt 0.997571 0.002466
vt 0.243436 0.445825
vt 0.915717 0.382805
vt 0.720957 0.998756
vt 0.748945 0.242260
vt 0.996512 0.237072
vt 0.221787 0.840540
vt 0.504400 0.840540
vt 0.288638 0.038285
vt 0.994721 0.299398
vt 0.915717 0.299398
vt 0.994721 0.382805
vt 0.996650 0.021599
vt 0.903837 0.049847
vt 0.918175 0.067238
vt 0.901293 0.040264
vt 0.913860 0.059400
vt 0.861672 0.059164
vt 0.841868 0.078300
vt 0.820993 0.078064
vt 0.861951 0.569732
vt 0.784470 0.097149
vt 0.764474 0.116072
vt 0.863265 0.115828
vt 0.726717 0.134958
vt 0.823389 0.135611
vt 0.686820 0.152947
vt 0.686793 0.236118
vt 0.823422 0.237919
vt 0.726684 0.237029
vt 0.863300 0.237036
vt 0.764438 0.237044
vt 0.784507 0.237257
vt 0.799145 0.237058
vt 0.820849 0.237064
vt 0.841868 0.237072
vt 0.861672 0.237072
vt 0.913860 0.237072
vt 0.901293 0.237072
vt 0.918175 0.239670
vt 0.903837 0.239065
vt 0.996650 0.237072
vt 0.993388 0.733873
vt 0.983188 0.631980
vt 0.982382 0.651787
vt 0.994727 0.631755
vt 0.993823 0.652453
vt 0.994721 0.591462
vt 0.995411 0.610787
vt 0.994067 0.551680
vt 0.994067 0.569732
vt 0.994031 0.510959
vt 0.994721 0.486281
vt 0.994721 0.469703
vt 0.994721 0.445280
vt 0.994426 0.467948
vt 0.994721 0.405161
vt 0.978834 0.002464
vt 0.993397 0.714737
vt 0.978834 0.237072
vt 0.748946 0.446959
vt 0.994766 0.737056
vt 0.006023 0.038285
vt 0.504400 0.605931
vt 0.221786 0.605931
vt 0.243436 0.246387
vt 0.720957 0.458632
vt 0.003117 0.445825
vt 0.003117 0.245086
vt 0.480638 0.458632
vt 0.240319 0.527419
vt 0.480638 0.527419
vt 0.992494 1.000000
vt 0.992494 0.742635
vt 0.853111 0.742635
vt 0.853111 1.000000
vt 0.741380 0.742635
vt 0.741380 1.000000
vt 0.836844 0.742635
vt 0.808454 0.742635
vt 0.788046 0.742635
vt 0.762452 0.742635
vt 0.762452 1.000000
vt 0.788046 1.000000
vt 0.808454 1.000000
vt 0.836844 1.000000
vt 0.868603 0.742635
vt 0.868603 1.000000
vt 0.893805 0.427505
vt 0.893804 0.321443
vt 0.817538 0.427506
vt 0.748946 0.446959
vt 0.748945 0.242260
vt 0.243436 0.246387
vt 0.243436 0.445825
vt 0.450400 0.239977
vt 0.288638 0.038285
vt 0.288637 0.240158
vt 0.003117 0.245086
vt 0.003117 0.445825
vt 0.817538 0.427506
vt 0.893805 0.427505
vt 0.893804 0.321443
vt 0.955993 0.243512
vt 0.841868 0.237072
vt 0.841868 0.078300
vt 0.820993 0.078064
vt 0.820849 0.237064
vt 0.915717 0.299398
vt 0.915717 0.382805
vt 0.994721 0.382805
vt 0.994721 0.299398
vt 0.994067 0.551680
vt 0.994067 0.569732
vt 0.861951 0.569732
vt 0.686793 0.236118
vt 0.686820 0.152947
vt 0.823422 0.237919
vt 0.823389 0.135611
vt 0.726684 0.237029
vt 0.726717 0.134958
vt 0.863300 0.237036
vt 0.863265 0.115828
vt 0.764438 0.237044
vt 0.764474 0.116072
vt 0.784507 0.237257
vt 0.784470 0.097149
vt 0.799145 0.237058
vt 0.996650 0.021599
vt 0.996650 0.237072
vt 0.978834 0.237072
vt 0.978834 0.002464
vt 0.903837 0.049847
vt 0.903837 0.239065
vt 0.918175 0.067238
vt 0.918175 0.239670
vt 0.901293 0.040264
vt 0.901293 0.237072
vt 0.913860 0.059400
vt 0.913860 0.237072
vt 0.861672 0.059164
vt 0.861672 0.237072
vt 0.993397 0.714737
vt 0.993388 0.733873
vt 0.983188 0.631980
vt 0.982382 0.651787
vt 0.994727 0.631755
vt 0.993823 0.652453
vt 0.994721 0.591462
vt 0.995411 0.610787
vt 0.994721 0.405161
vt 0.994426 0.467948
vt 0.994721 0.445280
vt 0.994721 0.469703
vt 0.994721 0.486281
vt 0.994031 0.510959
vt 0.996512 0.237072
vt 0.997571 0.002466
vt 0.994766 0.737056
vt 0.288637 0.240158
vt 0.006023 0.240158
vt 0.844507 0.551680
vt 0.665945 0.152703
vt 0.665918 0.236111
vt 0.840822 0.154741
vt 0.840849 0.237912
vt 0.706251 0.134714
vt 0.706219 0.237022
vt 0.878847 0.134958
vt 0.878877 0.237029
vt 0.745145 0.115828
vt 0.745109 0.237036
vt 0.799029 0.116279
vt 0.799062 0.237251
vt 0.799110 0.097186
vt 0.838662 0.098290
vt 0.838707 0.238162
vt 0.821263 0.238168
vt 0.821212 0.079161
vt 0.916473 0.239065
vt 0.916473 0.050054
vt 0.900727 0.239670
vt 0.900728 0.050453
vt 0.916203 0.237072
vt 0.916203 0.040500
vt 0.878506 0.237072
vt 0.878506 0.059400
vt 0.877191 0.077610
vt 0.877191 0.236382
vt 0.791087 0.733767
vt 0.773279 0.714622
vt 0.802404 0.632055
vt 0.802568 0.654441
vt 0.983195 0.654336
vt 0.817487 0.651719
vt 0.982387 0.632652
vt 0.809888 0.631823
vt 0.810052 0.654179
vt 0.994734 0.654110
vt 0.826769 0.652391
vt 0.808991 0.633249
vt 0.993830 0.633317
vt 0.827521 0.591462
vt 0.827666 0.611478
vt 0.994721 0.611423
vt 0.845994 0.610788
vt 0.828211 0.594841
vt 0.995411 0.594841
vt 0.845160 0.549969
vt 0.845304 0.569930
vt 0.994721 0.569930
vt 0.994721 0.549969
vt 0.994721 0.382805
vt 0.915717 0.382805
vt 0.915504 0.405161
vt 0.994426 0.485666
vt 0.915210 0.485666
vt 0.897783 0.467948
vt 0.994721 0.425670
vt 0.898078 0.425669
vt 0.897884 0.445280
vt 0.994721 0.487100
vt 0.897884 0.487100
vt 0.880438 0.469704
vt 0.994721 0.467651
vt 0.880438 0.467651
vt 0.880265 0.486281
vt 0.994031 0.527745
vt 0.879575 0.527745
vt 0.862109 0.510959
vt 0.994721 0.528263
vt 0.994721 0.508653
vt 0.862799 0.508653
vt 0.862604 0.528263
vt 0.975672 0.002464
vt 0.975672 0.237072
vt 0.994756 0.714738
vt 0.774636 0.714879
vt 0.774651 0.738331
vt 0.450400 0.239977
vt 0.288638 0.038285
vt 0.288637 0.240158
vt 0.749634 0.446271
vt 0.955993 0.243512
vt 0.749633 0.243328
vt 0.001225 0.458632
vt 0.001225 0.998756
vt 0.220117 0.998756
vt 0.502731 0.998756
vt 0.243436 0.445825
vt 0.243436 0.246387
vt 0.240319 0.458632
vt 0.806087 0.742635
vt 0.806087 1.000000
vt 0.854329 0.742635
vt 0.854329 1.000000
vt 0.869836 1.001045
vt 0.869836 0.743680
vt 0.885328 0.743680
vt 0.885328 1.001045
vt 0.749634 0.446271
vt 0.749633 0.243328
vt 0.243436 0.445825
vt 0.243436 0.246387
vt 0.844507 0.551680
vt 0.665945 0.152703
vt 0.665918 0.236111
vt 0.840822 0.154741
vt 0.840849 0.237912
vt 0.706251 0.134714
vt 0.706219 0.237022
vt 0.878847 0.134958
vt 0.878877 0.237029
vt 0.745145 0.115828
vt 0.745109 0.237036
vt 0.799029 0.116279
vt 0.799062 0.237251
vt 0.799110 0.097186
vt 0.838662 0.098290
vt 0.821212 0.079161
vt 0.821263 0.238168
vt 0.838707 0.238162
vt 0.916473 0.239065
vt 0.916473 0.050054
vt 0.900727 0.239670
vt 0.900728 0.050453
vt 0.916203 0.237072
vt 0.916203 0.040500
vt 0.878506 0.237072
vt 0.878506 0.059400
vt 0.877191 0.236382
vt 0.877191 0.077610
vt 0.791087 0.733767
vt 0.773279 0.714622
vt 0.802404 0.632055
vt 0.983195 0.654336
vt 0.802568 0.654441
vt 0.817487 0.651719
vt 0.982387 0.632652
vt 0.809888 0.631823
vt 0.994734 0.654110
vt 0.810052 0.654179
vt 0.826769 0.652391
vt 0.993830 0.633317
vt 0.808991 0.633249
vt 0.827521 0.591462
vt 0.994721 0.611423
vt 0.827666 0.611478
vt 0.845994 0.610788
vt 0.995411 0.594841
vt 0.828211 0.594841
vt 0.845160 0.549969
vt 0.994721 0.549969
vt 0.994721 0.569930
vt 0.845304 0.569930
vt 0.915504 0.405161
vt 0.915717 0.382805
vt 0.994721 0.382805
vt 0.897783 0.467948
vt 0.915210 0.485666
vt 0.994426 0.485666
vt 0.897884 0.445280
vt 0.898078 0.425669
vt 0.994721 0.425670
vt 0.880438 0.469704
vt 0.897884 0.487100
vt 0.994721 0.487100
vt 0.880265 0.486281
vt 0.880438 0.467651
vt 0.994721 0.467651
vt 0.862109 0.510959
vt 0.879575 0.527745
vt 0.994031 0.527745
vt 0.994721 0.528263
vt 0.862604 0.528263
vt 0.862799 0.508653
vt 0.994721 0.508653
vt 0.975672 0.237072
vt 0.975672 0.002464
vt 0.774651 0.738331
vt 0.774636 0.714879
vt 0.994756 0.714738
vt 0.784470 0.097149
vt 0.784507 0.237257
vt 0.901293 0.237072
vt 0.901293 0.040264
vt 0.861672 0.237072
vt 0.861672 0.059164
vt 0.802404 0.632055
vt 0.788046 1.000000
vt 0.788046 0.742635
vt 0.836844 1.000000
vt 0.836844 0.742635
vt 0.784470 0.097149
vt 0.784507 0.237257
vt 0.901293 0.237072
vt 0.901293 0.040264
vt 0.861672 0.237072
vt 0.861672 0.059164
vt 0.802404 0.632055
vn -1 -5.633375276077825E-21 -9.2E-05
vn -1 4E-06 -2.4492935982947065E-22
vn 0 6.123233995736766E-17 1
vn -0.000193 0.0002750000000000613 1
vn -1 -6.735557395310442E-22 -1.1E-05
vn -1 -5.939536975864663E-21 -9.7E-05
vn 0 -0.0007709999999999387 1
vn 0 -0.0007709999999999387 1
vn 0 1 -1.1000000000061232E-05
vn -0.002138 0.002169000000000061 0.999995
vn -0.001069 0.0010850000000000612 0.999999
vn -0.001069 0.0010850000000000612 0.999999
vn -0.450392 5.467013131647653E-17 0.892831
vn -0.897641 2.6986745492390777E-17 0.440727
vn -0.450229 5.4675152368353024E-17 0.892913
vn -0.897313 2.7027648695482297E-17 0.441395
vn -0.45013 5.46782139853509E-17 0.892963
vn -0.897113 2.705250902550499E-17 0.441801
vn -0.450122 5.4678458914710726E-17 0.892967
vn -0.8971 2.705416229868384E-17 0.441828
vn 0 0.45075600000000005 0.892647
vn -0.891279 2.7766110715368155E-17 0.453455
vn -0.447419 5.4761612432372835E-17 0.894325
vn -0.891651 2.772128864251936E-17 0.452723
vn -0.447251 5.476669471658929E-17 0.894408
vn -0.891316 2.776170198689122E-17 0.453383
vn -0.447085 5.477183823314571E-17 0.894492
vn -0.890979 2.7802237795943E-17 0.454045
vn -0.447254 5.4766633484249336E-17 0.894407
vn -0.891315 2.776176321923118E-17 0.453384
vn -0.44742 5.476155120003288E-17 0.894324
vn -0.891651 2.772128864251936E-17 0.452723
vn -0.447232 5.476730703998887E-17 0.894418
vn -0.891279 2.7766110715368155E-17 0.453455
vn -0.450154 5.467747919727141E-17 0.892951
vn -0.897096 2.7054652157403497E-17 0.441836
vn -0.45013 5.46782139853509E-17 0.892963
vn -0.897113 2.705250902550499E-17 0.441801
vn -0.45023 5.4675091136013073E-17 0.892912
vn -0.897313 2.7027648695482297E-17 0.441395
vn -0.450394 5.4670070084136566E-17 0.89283
vn -0.897641 2.6986745492390777E-17 0.440727
vn -0 0.898375 0.4392289999999999
vn 0 0.45075600000000005 0.892647
vn 0 0.898375 0.4392289999999999
vn 0 0.45075600000000005 0.892647
vn 0 0.898375 0.4392289999999999
vn 0 0.45075600000000005 0.892647
vn 0 0.898375 0.4392289999999999
vn 0 0.45075600000000005 0.892647
vn 0 0.898375 0.4392289999999999
vn 0 0.4507570000000001 0.892647
vn 0 0.898375 0.4392289999999999
vn 0 0.45075600000000005 0.892647
vn 0 0.898375 0.4392289999999999
vn 0 0.45075600000000005 0.892647
vn 0 0.898375 0.4392289999999999
vn -0.002337 6.123215626034779E-17 0.999997
vn 0 0.002330000000000061 0.999997
vn -0.002337 6.123215626034779E-17 0.999997
vn -1 1.9999999999999995E-06 -5E-06
vn 0 1 -9.700000000006123E-05
vn 0 1 -1.1000000000061232E-05
vn -0.000257 0.00022100000000006124 1
vn 0.000192 -0.00030199999999993876 1
vn -1 1.9999999999999995E-06 -5E-06
vn 0 6.123233995736766E-17 1
vn 0 -1 6.123233995736766E-17
vn 0 -1 6.123233995736766E-17
vn 0 6.123233995736766E-17 1
vn 0 6.123233995736766E-17 1
vn 0 6.123233995736766E-17 1
vn 0 -1 6.123233995736766E-17
vn 0 -1 6.123233995736766E-17
vn 0 -0.999984 0.0055870000000000615
vn 0 -0.999984 0.0055870000000000615
vn 0 -0.999989 0.004664000000000061
vn 0 -0.999989 0.004664000000000061
vn 0 -0.892421 0.45120400000000005
vn 0 -0.44662199999999996 0.894723
vn 0 -0.893245 0.4495700000000001
vn 0 -0.44637699999999997 0.894845
vn 0 -0.892754 0.45054500000000003
vn 0 -0.44662299999999994 0.894722
vn 0 -0.893245 0.4495700000000001
vn 0 -0.44620999999999994 0.894928
vn 0 -1 6.123233995736766E-17
vn 0 -1 6.123233995736766E-17
vn 1 -0 0
vn 1 -0 0
vn 1 -0 0
vn 0.99999 7.00000000000027E-06 0.004409
vn 0.99999 2.688712047528014E-19 0.004391
vn 0.99999 7.00000000000027E-06 0.004409
vn 0.99999 1.300000000000027E-05 0.004427
vn 1 0 -0
vn 1 0 -0
vn 1 0 -0
vn 0 -1 6.123233995736766E-17
vn 0 -1 6.123233995736766E-17
vn -0.999958 0.005584999999999999 -0.007253
vn -0.999958 0.005584999999999999 -0.007253
vn -0.999958 0.005584999999999999 -0.007253
vn 0 1 -6.123233995736766E-17
vn 0.897096 2.7054652157403497E-17 0.441836
vn 0.450122 5.4678458914710726E-17 0.892967
vn 0.8971 2.705416229868384E-17 0.441828
vn 0.450154 5.467747919727141E-17 0.892951
vn 0.001069 0.0010850000000000612 0.999999
vn 0 6.123233995736766E-17 1
vn 0.001069 0.0010850000000000612 0.999999
vn 0.002138 0.002169000000000061 0.999995
vn 0 0.45075600000000005 0.892647
vn 0 0.898375 0.4392289999999999
vn 0 0.45075600000000005 0.892647
vn 0.890979 2.7802237795943E-17 0.454045
vn 0.447085 5.477183823314571E-17 0.894492
vn 0.447254 5.4766633484249336E-17 0.894407
vn 0.891316 2.776170198689122E-17 0.453383
vn 0.891315 2.776176321923118E-17 0.453384
vn 0.447251 5.476669471658929E-17 0.894408
vn 0.44742 5.476155120003288E-17 0.894324
vn 0.891651 2.772128864251936E-17 0.452723
vn 0.891651 2.772128864251936E-17 0.452723
vn 0.447419 5.4761612432372835E-17 0.894325
vn 0.447232 5.476730703998887E-17 0.894418
vn 0.891279 2.7766110715368155E-17 0.453455
vn 0.891279 2.7766110715368155E-17 0.453455
vn 0.450392 5.467013131647653E-17 0.892831
vn 0.897641 2.6986745492390777E-17 0.440727
vn 0.002337 6.123215626034779E-17 0.999997
vn 0.002337 6.123215626034779E-17 0.999997
vn 0.897641 2.6986745492390777E-17 0.440727
vn 0.450394 5.4670070084136566E-17 0.89283
vn 0.450229 5.4675152368353024E-17 0.892913
vn 0.897313 2.7027648695482297E-17 0.441395
vn 0.897313 2.7027648695482297E-17 0.441395
vn 0.45023 5.4675091136013073E-17 0.892912
vn 0.45013 5.46782139853509E-17 0.892963
vn 0.897113 2.705250902550499E-17 0.441801
vn 0.897113 2.705250902550499E-17 0.441801
vn 0.45013 5.46782139853509E-17 0.892963
vn 0 0.002330000000000061 0.999997
vn 0 0.898375 0.4392289999999999
vn -0 0.45075600000000005 0.892647
vn 0 0.898375 0.4392289999999999
vn 0 0.45075600000000005 0.892647
vn 0 0.898375 0.4392289999999999
vn 0 0.45075600000000005 0.892647
vn 0 0.898375 0.4392289999999999
vn 0 0.898375 0.4392289999999999
vn 0 0.45075600000000005 0.892647
vn 0 0.898375 0.4392289999999999
vn 0 0.45075600000000005 0.892647
vn -0 0.898375 0.4392289999999999
vn -0 0.4507570000000001 0.892647
vn 1 -5.939536975864663E-21 -9.7E-05
vn 1 -5.939536975864663E-21 -9.7E-05
vn -0 1 -9.200000000006123E-05
vn 0 1 -1.1000000000061232E-05
vn 0 1 -1.1000000000061232E-05
vn 0 0.898375 0.4392289999999999
vn -0.999948 6.237126148057471E-19 0.010186
vn -0.999948 6.237126148057471E-19 0.010186
vn -0.447085 5.477183823314571E-17 0.894492
vn -0.890979 2.7802237795943E-17 0.454045
vn -0.891316 2.776170198689122E-17 0.453383
vn -0.447254 5.4766633484249336E-17 0.894407
vn -0.447251 5.476669471658929E-17 0.894408
vn -0.891315 2.776176321923118E-17 0.453384
vn -0.891651 2.772128864251936E-17 0.452723
vn -0.44742 5.476155120003288E-17 0.894324
vn -0.447419 5.4761612432372835E-17 0.894325
vn -0.891651 2.772128864251936E-17 0.452723
vn -0.447233 5.4767245807648913E-17 0.894417
vn -0.447233 5.4767245807648913E-17 0.894417
vn -0.891279 2.7766110715368155E-17 0.453455
vn -0.450154 5.467747919727141E-17 0.892951
vn -0.8971 2.705416229868384E-17 0.441828
vn -0.897641 2.6986745492390777E-17 0.440727
vn -0.450392 5.467013131647653E-17 0.892831
vn -0.450394 5.4670070084136566E-17 0.89283
vn -0.897641 2.6986745492390777E-17 0.440727
vn -0.897313 2.7027648695482297E-17 0.441395
vn -0.450229 5.4675152368353024E-17 0.892913
vn -0.897113 2.705250902550499E-17 0.441801
vn -0.45013 5.46782139853509E-17 0.892963
vn -0.450122 5.4678458914710726E-17 0.892967
vn -0.897096 2.7054652157403497E-17 0.441836
vn 0 0.45075600000000005 0.892647
vn 0 0.002330000000000061 0.999997
vn 0 0.898375 0.4392289999999999
vn 0 0.45075600000000005 0.892647
vn -0 0.898375 0.4392289999999999
vn 0 0.45075600000000005 0.892647
vn 0 0.45075600000000005 0.892647
vn 0 0.898375 0.4392289999999999
vn 0 0.45075600000000005 0.892647
vn 0 0.898375 0.4392289999999999
vn 0 0.45075600000000005 0.892647
vn 0 0.898375 0.4392289999999999
vn 0 0.45075600000000005 0.892647
vn 0 0.898375 0.4392289999999999
vn 0 0.45075600000000005 0.892647
vn 0 0.898375 0.4392289999999999
vn 0 0.45075600000000005 0.892647
vn 0 0.898375 0.4392289999999999
vn 0 0.45075600000000005 0.892647
vn 0 0.898375 0.4392289999999999
vn 0 0.45075600000000005 0.892647
vn 0 0.898375 0.4392289999999999
vn 0 0.45075600000000005 0.892647
vn 0 0.999944 -0.01054200000000006
vn 0 0.999944 -0.01054200000000006
vn 0 0.45075600000000005 0.892647
vn 0 0.898375 0.4392289999999999
vn 0 0.45075600000000005 0.892647
vn 0 0.898375 0.4392289999999999
vn 0 0.45075600000000005 0.892647
vn 0 0.898375 0.4392289999999999
vn 0 0.45075600000000005 0.892647
vn 0 0.898375 0.4392289999999999
vn 0 0.45075600000000005 0.892647
vn -0 0.898375 0.4392289999999999
vn 0 0.45075600000000005 0.892647
vn -0 0.898375 0.4392289999999999
vn 0 0.45075600000000005 0.892647
vn 0 0.898375 0.4392289999999999
vn 0 0.45075600000000005 0.892647
vn 0 0.898375 0.43922799999999995
vn 0 0.898375 0.4392289999999999
vn 0 0.4507570000000001 0.892647
vn 0 0.898375 0.43922799999999995
vn 0 0.45075600000000005 0.892647
vn -1 -5.633375276077825E-21 -9.2E-05
vn -1 -5.633375276077825E-21 -9.2E-05
vn 0 1 -9.700000000006123E-05
vn 0 1 -9.700000000006123E-05
vn 0 1 -9.200000000006123E-05
vn -1 0 -0
vn -1 0 -0
vn -1 0 -0
vn 0 1 -6.123233995736766E-17
vn 0 1 -6.123233995736766E-17
vn 0 1 -6.123233995736766E-17
vn -1E-06 0.00028700000000006124 1
vn 0.000767 6.123233995736766E-17 1
vn 0.000192 -0.00030199999999993876 1
vn -0.000257 0.00022100000000006124 1
vn 0 -1 6.123233995736766E-17
vn 0 -1 6.123233995736766E-17
vn 0 6.123233995736766E-17 1
vn 0 -0.44637699999999997 0.894845
vn 0 -0.892754 0.45054500000000003
vn 0 -0.44662199999999996 0.894723
vn 0 -0.893245 0.4495700000000001
vn 0 -0.02166899999999994 0.999765
vn 0 -0.02166899999999994 0.999765
vn 0 -0.02166899999999994 0.999765
vn 0 -0.02166899999999994 0.999765
vn 0 1 -6.123233995736766E-17
vn 0 1 -6.123233995736766E-17
vn 0 -1 6.123233995736766E-17
vn 0 -1 6.123233995736766E-17
vn 0 0.898375 0.4392289999999999
vn 0.999948 6.237126148057471E-19 0.010186
vn 0.999948 6.237126148057471E-19 0.010186
vn 0.447085 5.477183823314571E-17 0.894492
vn 0.890979 2.7802237795943E-17 0.454045
vn 0.891316 2.776170198689122E-17 0.453383
vn 0.447254 5.4766633484249336E-17 0.894407
vn 0.447251 5.476669471658929E-17 0.894408
vn 0.891315 2.776176321923118E-17 0.453384
vn 0.891651 2.772128864251936E-17 0.452723
vn 0.44742 5.476155120003288E-17 0.894324
vn 0.447419 5.4761612432372835E-17 0.894325
vn 0.891651 2.772128864251936E-17 0.452723
vn 0.447233 5.4767245807648913E-17 0.894417
vn 0.447233 5.4767245807648913E-17 0.894417
vn 0.8971 2.705416229868384E-17 0.441828
vn 0.450154 5.467747919727141E-17 0.892951
vn 0.891279 2.7766110715368155E-17 0.453455
vn 0.897641 2.6986745492390777E-17 0.440727
vn 0.450392 5.467013131647653E-17 0.892831
vn 0.450394 5.4670070084136566E-17 0.89283
vn 0.897641 2.6986745492390777E-17 0.440727
vn 0.897313 2.7027648695482297E-17 0.441395
vn 0.450229 5.4675152368353024E-17 0.892913
vn 0.897113 2.705250902550499E-17 0.441801
vn 0.45013 5.46782139853509E-17 0.892963
vn 0.897096 2.7054652157403497E-17 0.441836
vn 0.450122 5.4678458914710726E-17 0.892967
vn 0 0.45075600000000005 0.892647
vn 0 0.002330000000000061 0.999997
vn -0 0.898375 0.4392289999999999
vn 0 0.898375 0.4392289999999999
vn 0 0.45075600000000005 0.892647
vn -0 0.45075600000000005 0.892647
vn -0 0.45075600000000005 0.892647
vn 0 0.898375 0.4392289999999999
vn 0 0.898375 0.4392289999999999
vn -0 0.45075600000000005 0.892647
vn 0 0.45075600000000005 0.892647
vn 0 0.45075600000000005 0.892647
vn 0 0.898375 0.4392289999999999
vn 0 0.898375 0.4392289999999999
vn 0 0.898375 0.4392289999999999
vn 0 0.45075600000000005 0.892647
vn 0 0.45075600000000005 0.892647
vn 0 0.45075600000000005 0.892647
vn 0 0.898375 0.4392289999999999
vn 0 0.898375 0.4392289999999999
vn 0 0.45075600000000005 0.892647
vn 0 0.898375 0.4392289999999999
vn 0 0.45075600000000005 0.892647
vn 0 0.45075600000000005 0.892647
vn 0 0.999944 -0.01054200000000006
vn 0 0.999944 -0.01054200000000006
vn 0 0.898375 0.4392289999999999
vn 0 0.45075600000000005 0.892647
vn 0 0.898375 0.4392289999999999
vn 0 0.45075600000000005 0.892647
vn 0 0.898375 0.4392289999999999
vn 0 0.45075600000000005 0.892647
vn 0 0.898375 0.4392289999999999
vn 0 0.45075600000000005 0.892647
vn 0 0.898375 0.4392289999999999
vn -0 0.45075600000000005 0.892647
vn 0 0.898375 0.4392289999999999
vn 0 0.45075600000000005 0.892647
vn 0 0.898375 0.43922799999999995
vn -0 0.45075600000000005 0.892647
vn -0 0.898375 0.4392289999999999
vn 0 0.898375 0.4392289999999999
vn 0 0.45075600000000005 0.892647
vn 0 0.898375 0.43922799999999995
vn -0 0.4507570000000001 0.892647
vn 1 -5.939536975864663E-21 -9.7E-05
vn 1 -5.633375276077825E-21 -9.2E-05
vn -0 1 -9.200000000006123E-05
vn -0 1 -9.200000000006123E-05
vn 0 1 -9.700000000006123E-05
vn -0.891279 2.7766110715368155E-17 0.453455
vn -0.447232 5.476730703998887E-17 0.894418
vn -0.45023 5.4675091136013073E-17 0.892912
vn -0.897313 2.7027648695482297E-17 0.441395
vn -0.45013 5.46782139853509E-17 0.892963
vn -0.897113 2.705250902550499E-17 0.441801
vn 0 0.898375 0.4392289999999999
vn 0 -0.44662299999999994 0.894722
vn 0 -0.893245 0.4495700000000001
vn 0 -0.44620999999999994 0.894928
vn 0 -0.892421 0.45120400000000005
vn 0.891279 2.7766110715368155E-17 0.453455
vn 0.447232 5.476730703998887E-17 0.894418
vn 0.45023 5.4675091136013073E-17 0.892912
vn 0.897313 2.7027648695482297E-17 0.441395
vn 0.45013 5.46782139853509E-17 0.892963
vn 0.897113 2.705250902550499E-17 0.441801
vn -0 0.898375 0.4392289999999999
g 03
f 159/159/159 342/342/342 341/341/341
f 341/341/341 340/340/340 159/159/159
f 158/158/158 339/339/339 338/338/338
f 338/338/338 157/157/157 158/158/158
f 334/334/334 337/337/337 336/336/336
f 336/336/336 335/335/335 334/334/334
f 156/156/156 333/333/333 332/332/332
f 332/332/332 331/331/331 156/156/156
f 155/155/155 330/330/330 329/329/329
f 329/329/329 328/328/328 155/155/155
f 154/154/154 327/327/327 326/326/326
f 326/326/326 325/325/325 154/154/154
f 153/153/153 324/324/324 323/323/323
f 323/323/323 322/322/322 153/153/153
f 152/152/152 321/321/321 320/320/320
f 320/320/320 319/319/319 152/152/152
f 151/151/151 318/318/318 317/317/317
f 317/317/317 316/316/316 151/151/151
f 312/312/312 315/315/315 314/314/314
f 314/314/314 313/313/313 312/312/312
f 309/309/309 311/311/311 310/310/310
f 310/310/310 150/150/150 309/309/309
f 306/306/306 308/308/308 307/307/307
f 307/307/307 149/149/149 306/306/306
f 303/303/303 305/305/305 304/304/304
f 304/304/304 148/148/148 303/303/303
f 300/300/300 302/302/302 301/301/301
f 301/301/301 147/147/147 300/300/300
f 298/298/298 360/360/360 299/299/299
f 299/299/299 146/146/146 298/298/298
f 295/295/295 297/297/297 296/296/296
f 296/296/296 145/145/145 295/295/295
f 293/293/293 294/294/294 143/143/143
f 143/143/143 144/144/144 293/293/293
f 358/358/358 359/359/359 292/292/292
f 292/292/292 291/291/291 358/358/358
f 289/289/289 290/290/290 141/141/141
f 141/141/141 142/142/142 289/289/289
f 356/356/356 357/357/357 139/139/139
f 139/139/139 140/140/140 356/356/356
f 287/287/287 288/288/288 137/137/137
f 137/137/137 138/138/138 287/287/287
f 285/285/285 286/286/286 135/135/135
f 135/135/135 136/136/136 285/285/285
f 283/283/283 284/284/284 133/133/133
f 133/133/133 134/134/134 283/283/283
f 131/131/131 132/132/132 129/129/129
f 129/129/129 130/130/130 131/131/131
f 279/279/279 282/282/282 281/281/281
f 281/281/281 280/280/280 279/279/279
f 354/354/354 355/355/355 128/128/128
f 128/128/128 278/278/278 354/354/354
f 276/276/276 277/277/277 126/126/126
f 126/126/126 127/127/127 276/276/276
f 274/274/274 275/275/275 124/124/124
f 124/124/124 125/125/125 274/274/274
f 272/272/272 273/273/273 122/122/122
f 122/122/122 123/123/123 272/272/272
f 270/270/270 271/271/271 120/120/120
f 120/120/120 121/121/121 270/270/270
f 268/268/268 269/269/269 118/118/118
f 118/118/118 119/119/119 268/268/268
f 266/266/266 267/267/267 116/116/116
f 116/116/116 117/117/117 266/266/266
f 115/115/115 265/265/265 113/113/113
f 113/113/113 114/114/114 115/115/115
f 111/111/111 112/112/112 109/109/109
f 109/109/109 110/110/110 111/111/111
f 107/107/107 108/108/108 105/105/105
f 105/105/105 106/106/106 107/107/107
f 102/102/102 103/103/103 101/101/101
f 263/263/263 264/264/264 99/99/99
f 99/99/99 100/100/100 263/263/263
f 104/104/104 262/262/262 261/261/261
f 97/97/97 98/98/98 96/96/96
f 92/92/92 93/93/93 94/94/94
f 94/94/94 95/95/95 92/92/92
f 90/90/90 89/89/89 91/91/91
f 257/257/257 260/260/260 259/259/259
f 259/259/259 258/258/258 257/257/257
f 255/255/255 353/353/353 352/352/352
f 352/352/352 256/256/256 255/255/255
f 79/79/79 75/75/75 76/76/76
f 76/76/76 86/86/86 79/79/79
f 350/350/350 254/254/254 253/253/253
f 253/253/253 351/351/351 350/350/350
f 83/83/83 78/78/78 77/77/77
f 77/77/77 82/82/82 83/83/83
f 70/70/70 67/67/67 72/72/72
f 71/71/71 246/246/246 252/252/252
f 69/69/69 251/251/251 250/250/250
f 250/250/250 68/68/68 69/69/69
f 249/249/249 246/246/246 4/4/4
f 249/249/249 248/248/248 246/246/246
f 248/248/248 247/247/247 246/246/246
f 246/246/246 71/71/71 4/4/4
f 71/71/71 72/72/72 4/4/4
f 72/72/72 67/67/67 4/4/4
f 245/245/245 244/244/244 243/243/243
f 242/242/242 241/241/241 240/240/240
f 62/62/62 239/239/239 238/238/238
f 238/238/238 237/237/237 62/62/62
f 1/1/1 6/6/6 236/236/236
f 236/236/236 235/235/235 1/1/1
f 231/231/231 234/234/234 233/233/233
f 233/233/233 232/232/232 231/231/231
f 52/52/52 230/230/230 229/229/229
f 229/229/229 228/228/228 52/52/52
f 53/53/53 227/227/227 226/226/226
f 226/226/226 225/225/225 53/53/53
f 54/54/54 224/224/224 223/223/223
f 223/223/223 222/222/222 54/54/54
f 55/55/55 221/221/221 220/220/220
f 220/220/220 219/219/219 55/55/55
f 56/56/56 218/218/218 217/217/217
f 217/217/217 216/216/216 56/56/56
f 57/57/57 215/215/215 214/214/214
f 214/214/214 213/213/213 57/57/57
f 209/209/209 212/212/212 211/211/211
f 211/211/211 210/210/210 209/209/209
f 206/206/206 49/49/49 208/208/208
f 208/208/208 207/207/207 206/206/206
f 203/203/203 48/48/48 205/205/205
f 205/205/205 204/204/204 203/203/203
f 200/200/200 47/47/47 202/202/202
f 202/202/202 201/201/201 200/200/200
f 197/197/197 46/46/46 199/199/199
f 199/199/199 198/198/198 197/197/197
f 195/195/195 45/45/45 196/196/196
f 196/196/196 349/349/349 195/195/195
f 192/192/192 44/44/44 194/194/194
f 194/194/194 193/193/193 192/192/192
f 190/190/190 43/43/43 59/59/59
f 59/59/59 191/191/191 190/190/190
f 347/347/347 189/189/189 188/188/188
f 188/188/188 348/348/348 347/347/347
f 186/186/186 37/37/37 18/18/18
f 18/18/18 187/187/187 186/186/186
f 345/345/345 38/38/38 17/17/17
f 17/17/17 346/346/346 345/345/345
f 184/184/184 39/39/39 16/16/16
f 16/16/16 185/185/185 184/184/184
f 182/182/182 40/40/40 15/15/15
f 15/15/15 183/183/183 182/182/182
f 180/180/180 41/41/41 14/14/14
f 14/14/14 181/181/181 180/180/180
f 60/60/60 42/42/42 13/13/13
f 13/13/13 58/58/58 60/60/60
f 176/176/176 179/179/179 178/178/178
f 178/178/178 177/177/177 176/176/176
f 343/343/343 175/175/175 34/34/34
f 34/34/34 344/344/344 343/343/343
f 173/173/173 22/22/22 33/33/33
f 33/33/33 174/174/174 173/173/173
f 171/171/171 23/23/23 32/32/32
f 32/32/32 172/172/172 171/171/171
f 169/169/169 24/24/24 31/31/31
f 31/31/31 170/170/170 169/169/169
f 167/167/167 25/25/25 30/30/30
f 30/30/30 168/168/168 167/167/167
f 165/165/165 26/26/26 29/29/29
f 29/29/29 166/166/166 165/165/165
f 163/163/163 27/27/27 28/28/28
f 28/28/28 164/164/164 163/163/163
f 21/21/21 51/51/51 50/50/50
f 50/50/50 162/162/162 21/21/21
f 12/12/12 3/3/3 11/11/11
f 11/11/11 10/10/10 12/12/12
f 20/20/20 19/19/19 36/36/36
f 36/36/36 35/35/35 20/20/20
f 85/85/85 84/84/84 81/81/81
f 81/81/81 80/80/80 85/85/85
f 66/66/66 5/5/5 61/61/61
f 61/61/61 2/2/2 66/66/66
f 88/88/88 87/87/87 74/74/74
f 74/74/74 73/73/73 88/88/88
f 160/160/160 161/161/161 63/63/63
f 63/63/63 9/9/9 160/160/160
f 65/65/65 64/64/64 8/8/8
f 8/8/8 7/7/7 65/65/65
