v -1.210100498 1.2204562724 -0.14361906740000008
v -3.0120872684 -3.0456034334 -0.14223062079999982
v -3.0120872684 1.2204562724 -0.1422306208000001
v 1.208524532 3.0140071554000003 -0.1422304774000002
v -1.2101003546 3.0140071554000003 -0.1422304774000002
v 1.077295368 2.884748881 -0.1429250114000002
v -1.0793350418 2.884748881 -0.1429250114000002
v -2.8884198254 1.0666436160000001 -0.14223062080000007
v -1.078265947 1.0666437116 -0.14223062080000007
v -2.8889998306 -2.8901604624000004 -0.14223062079999985
v -0.9578100426 -3.0456034334 -0.14223062079999982
v -1.1053933074 -2.327677165 -0.14223062079999985
v -1.1034168252 -2.8901604624000004 -0.14223062079999985
v -0.9579339402 -2.327677165 -0.14223062079999985
v -1.210100498 1.22046067 0.04661905319999993
v -1.2101003546 3.0140115052 0.04800759539999982
v 1.208524532 3.0140115052 0.04800759539999982
v 1.077295368 2.8847532786000003 0.04731325259999983
v -1.0793350418 2.8847532786000003 0.04731325259999983
v -1.078265947 1.0666480136 0.048007404199999944
v -2.8884198254 1.0666478224 0.048007404199999944
v -2.8889998306 -2.8901560648 0.04800740420000019
v -1.1034168252 -2.8901560648 0.04800740420000019
v -1.1053933074 -2.3276729586 0.048007404200000145
v -0.9579339402 -2.3276729586 0.048007404200000145
v -0.9578100426 -3.0455990836000004 0.0480074042000002
v -3.0120872684 -3.0455990836000004 0.0480074042000002
v -3.0120872684 1.22046067 0.04800740419999993
v -1.210100498 1.2204562724 -0.14361906740000008
v -3.0120872684 -3.0456034334 -0.14223062079999982
v -3.0120872684 1.2204562724 -0.1422306208000001
v -2.8884198254 1.0666436160000001 -0.14223062080000007
v -1.078265947 1.0666437116 -0.14223062080000007
v -2.8889998306 -2.8901604624000004 -0.14223062079999985
v -0.9578100426 -3.0456034334 -0.14223062079999982
v -1.1034168252 -2.8901604624000004 -0.14223062079999985
v -1.210100498 1.22046067 0.04661905319999993
v -1.078265947 1.0666480136 0.048007404199999944
v -2.8884198254 1.0666478224 0.048007404199999944
v -2.8889998306 -2.8901560648 0.04800740420000019
v -1.1034168252 -2.8901560648 0.04800740420000019
v -0.9578100426 -3.0455990836000004 0.0480074042000002
v -3.0120872684 -3.0455990836000004 0.0480074042000002
v -3.0120872684 1.22046067 0.04800740419999993
v 1.0757450706 2.8847532786000003 0.04731325259999983
v 1.0746758324 1.0666480136 0.048007404199999944
v 1.2065109092000001 1.22046067 0.04661905319999993
v 1.2065101922 3.0140115052 0.04800759539999982
v 2.8848298542 1.0666478224 0.048007404199999944
v 2.8854100506 -2.8901560648 0.04800740420000019
v 3.008497106 -3.0455990836000004 0.0480074042000002
v 3.008497106 1.22046067 0.04800740419999993
v 0.9543443514000001 -2.3276729586 0.048007404200000145
v 0.9542203582000001 -3.0455990836000004 0.0480074042000002
v 1.0998259458000001 -2.8901560648 0.04800740420000019
v 1.1018025236 -2.3276729586 0.048007404200000145
v 1.2065109092000001 1.2204562724 -0.14361906740000008
v 1.2065101922 3.0140071554000003 -0.1422304774000002
v 1.0757450706 2.884748881 -0.1429250114000002
v 1.0746758324 1.0666437116 -0.14223062080000007
v 2.8848298542 1.0666436160000001 -0.14223062080000007
v 2.8854100506 -2.8901604624000004 -0.14223062079999985
v 1.0998259458000001 -2.8901604624000004 -0.14223062079999985
v 1.1018025236 -2.327677165 -0.14223062079999985
v 0.9543443514000001 -2.327677165 -0.14223062079999985
v 0.9542203582000001 -3.0456034334 -0.14223062079999982
v 3.008497106 -3.0456034334 -0.14223062079999982
v 3.008497106 1.2204562724 -0.1422306208000001
v 3.0084963890000003 1.22046067 0.04800740419999993
v 1.2065109092000001 1.22046067 0.04661905319999993
v 1.0746758324 1.0666480136 0.048007404199999944
v 2.8848291372 1.0666478224 0.048007404199999944
v 1.0998266628 -2.8901560648 0.04800740420000019
v 0.9542203582000001 -3.0455990836000004 0.0480074042000002
v 3.008497106 -3.0455990836000004 0.0480074042000002
v 2.8854100506 -2.8901560648 0.04800740420000019
v 1.0746758324 1.0666437116 -0.14223062080000007
v 2.8848291372 1.0666436160000001 -0.14223062080000007
v 2.8854100506 -2.8901604624000004 -0.14223062079999985
v 1.0998266628 -2.8901604624000004 -0.14223062079999985
v 0.9542203582000001 -3.0456034334 -0.14223062079999982
v 3.008497106 -3.0456034334 -0.14223062079999982
v 3.0084963890000003 1.2204562724 -0.1422306208000001
v 1.2065109092000001 1.2204562724 -0.14361906740000008
v -1.0793350418 2.8847532786000003 0.04731325259999983
v -1.2101003546 3.0140115052 0.04800759539999982
v -1.2101003546 3.0140115052 0.04800759539999982
v -1.210100498 1.22046067 0.04661905319999993
v 1.208524532 3.0140115052 0.04800759539999982
v -1.2101003546 3.0140115052 0.04800759539999982
v -1.2101003546 3.0140071554000003 -0.1422304774000002
v -1.0793350418 2.8847532786000003 0.04731325259999983
v 1.077295368 2.8847532786000003 0.04731325259999983
v -1.078265947 1.0666480136 0.048007404199999944
v -1.0793350418 2.8847532786000003 0.04731325259999983
v -1.0793350418 2.884748881 -0.1429250114000002
v -2.8889998306 -2.8901560648 0.04800740420000019
v -2.8884198254 1.0666478224 0.048007404199999944
v -1.1053933074 -2.3276729586 0.048007404200000145
v -1.1034168252 -2.8901560648 0.04800740420000019
v -0.9579339402 -2.3276729586 0.048007404200000145
v -1.1053933074 -2.3276729586 0.048007404200000145
v -1.1053933074 -2.327677165 -0.14223062079999985
v -0.9578100426 -3.0455990836000004 0.0480074042000002
v -0.9579339402 -2.3276729586 0.048007404200000145
v -0.9579339402 -2.327677165 -0.14223062079999985
v -3.0120872684 1.22046067 0.04800740419999993
v -3.0120872684 -3.0455990836000004 0.0480074042000002
v -2.8884198254 1.0666478224 0.048007404199999944
v -1.078265947 1.0666480136 0.048007404199999944
v -1.1034168252 -2.8901560648 0.04800740420000019
v -2.8889998306 -2.8901560648 0.04800740420000019
v -3.0120872684 -3.0455990836000004 0.0480074042000002
v -0.9578100426 -3.0455990836000004 0.0480074042000002
v -1.210100498 1.22046067 0.04661905319999993
v -3.0120872684 1.22046067 0.04800740419999993
v 1.2065101922 3.0140115052 0.04800759539999982
v 1.2065109092000001 1.22046067 0.04661905319999993
v 1.0746758324 1.0666480136 0.048007404199999944
v 1.0757450706 2.8847532786000003 0.04731325259999983
v 2.8854100506 -2.8901560648 0.04800740420000019
v 2.8848298542 1.0666478224 0.048007404199999944
v 1.1018025236 -2.3276729586 0.048007404200000145
v 1.0998259458000001 -2.8901560648 0.04800740420000019
v 0.9543443514000001 -2.3276729586 0.048007404200000145
v 1.1018025236 -2.327677165 -0.14223062079999985
v 1.1018025236 -2.3276729586 0.048007404200000145
v 0.9542203582000001 -3.0455990836000004 0.0480074042000002
v 0.9543443514000001 -2.327677165 -0.14223062079999985
v 0.9543443514000001 -2.3276729586 0.048007404200000145
v 3.008497106 1.22046067 0.04800740419999993
v 3.008497106 -3.0455990836000004 0.0480074042000002
v 2.8848291372 1.0666478224 0.048007404199999944
v 1.0746758324 1.0666480136 0.048007404199999944
v 1.0998266628 -2.8901560648 0.04800740420000019
v 2.8854100506 -2.8901560648 0.04800740420000019
v 3.008497106 -3.0455990836000004 0.0480074042000002
v 0.9542203582000001 -3.0455990836000004 0.0480074042000002
v 1.2065109092000001 1.22046067 0.04661905319999993
v 3.0084963890000003 1.22046067 0.04800740419999993
vt 0.790257 0.677890
vt 0.838558 0.008144
vt 0.319559 0.008148
vt 0.402528 0.080497
vt 0.789375 0.452959
vt 0.417811 0.146859
vt 0.680181 0.146956
vt 0.338275 0.073831
vt 0.723796 0.695532
vt 0.819651 0.073752
vt 0.795458 0.545779
vt 0.859700 0.452334
vt 0.859460 0.525618
vt 0.795473 0.452243
vt 0.765398 0.674159
vt 0.696098 0.105314
vt 0.405469 0.105282
vt 0.420294 0.118769
vt 0.680349 0.116529
vt 0.747772 0.690222
vt 0.338271 0.045489
vt 0.819647 0.045427
vt 0.836316 0.525531
vt 0.836556 0.452246
vt 0.818617 0.452246
vt 0.818602 0.545783
vt 0.838557 0.032929
vt 0.319558 0.032933
vt 0.790257 0.677890
vt 0.402528 0.080497
vt 0.789375 0.452959
vt 0.724108 0.458841
vt 0.723796 0.695532
vt 0.417811 0.146859
vt 0.696098 0.080544
vt 0.680181 0.146956
vt 0.765398 0.674159
vt 0.747772 0.690222
vt 0.747251 0.468874
vt 0.420294 0.118769
vt 0.680349 0.116529
vt 0.696098 0.105314
vt 0.405469 0.105282
vt 0.764936 0.453614
vt 0.747251 0.468874
vt 0.747772 0.690222
vt 0.765398 0.674159
vt 0.764936 0.453614
vt 0.338271 0.045489
vt 0.819647 0.045427
vt 0.838557 0.032929
vt 0.319558 0.032933
vt 0.818617 0.452246
vt 0.818602 0.545783
vt 0.836316 0.525531
vt 0.836556 0.452246
vt 0.790257 0.677890
vt 0.789375 0.452959
vt 0.724108 0.458841
vt 0.723796 0.695532
vt 0.338275 0.073831
vt 0.819651 0.073752
vt 0.859460 0.525618
vt 0.859700 0.452334
vt 0.795473 0.452243
vt 0.795458 0.545779
vt 0.838558 0.008144
vt 0.319559 0.008148
vt 0.764936 0.453614
vt 0.765398 0.674159
vt 0.747772 0.690222
vt 0.747251 0.468874
vt 0.680349 0.116529
vt 0.696098 0.105314
vt 0.405469 0.105282
vt 0.420294 0.118769
vt 0.723796 0.695532
vt 0.724108 0.458841
vt 0.417811 0.146859
vt 0.680181 0.146956
vt 0.696098 0.080544
vt 0.402528 0.080497
vt 0.789375 0.452959
vt 0.790257 0.677890
vt 0.747251 0.468874
vt 0.764936 0.453614
vt 0.765818 0.453368
vt 0.766299 0.677928
vt 0.402528 0.105282
vt 0.696098 0.105330
vt 0.696098 0.080544
vt 0.680189 0.122170
vt 0.417503 0.125534
vt 0.747798 0.695090
vt 0.747251 0.458604
vt 0.724108 0.458841
vt 0.819647 0.048966
vt 0.338271 0.049046
vt 0.836556 0.452246
vt 0.836316 0.525531
vt 0.818617 0.452246
vt 0.818619 0.433034
vt 0.795476 0.433031
vt 0.818602 0.545783
vt 0.818617 0.452246
vt 0.795473 0.452243
vt 0.319558 0.032934
vt 0.838557 0.032929
vt 0.747251 0.458604
vt 0.747798 0.695090
vt 0.680189 0.122170
vt 0.417503 0.125534
vt 0.402528 0.105282
vt 0.696098 0.105330
vt 0.766299 0.677928
vt 0.765818 0.453368
vt 0.765818 0.453368
vt 0.766299 0.677928
vt 0.747798 0.695090
vt 0.747251 0.458604
vt 0.819647 0.048966
vt 0.338271 0.049046
vt 0.836556 0.452246
vt 0.836316 0.525531
vt 0.818617 0.452246
vt 0.795476 0.433031
vt 0.818619 0.433034
vt 0.818602 0.545783
vt 0.795473 0.452243
vt 0.818617 0.452246
vt 0.319558 0.032934
vt 0.838557 0.032929
vt 0.747251 0.458604
vt 0.747798 0.695090
vt 0.680189 0.122170
vt 0.417503 0.125534
vt 0.402528 0.105282
vt 0.696098 0.105330
vt 0.766299 0.677928
vt 0.765818 0.453368
vn -1 0 -0
vn -1 0 0
vn -1 0 0
vn 0 1 -2.3000000000061234E-05
vn -1 0 -0
vn 0 -1 2.3000000000061234E-05
vn 0 -1 2.3000000000061234E-05
vn 1 -0.000147 9.001153973733046E-21
vn 1 0.000588 -3.6004615894932184E-20
vn 1 -0.000147 9.001153973733046E-21
vn 1 0.000173 -1.0593194812624606E-20
vn -0.999994 -0.003514 2.1517044261018996E-19
vn -0.999994 -0.003514 2.1517044261018996E-19
vn 0 1 -2.2000000000061233E-05
vn -0.002774 -0.00019899999999993878 0.999996
vn 0.002272 -0.003072999999999939 0.999993
vn 0 -0.0053719999999999385 0.999986
vn 0 -0.0053719999999999385 0.999986
vn -0.001387 -0.0027859999999999387 0.999995
vn -0.010092 0.0003760000000000612 0.999949
vn 0 6.123233995736766E-17 1
vn 0 6.123233995736766E-17 1
vn 0 6.123233995736766E-17 1
vn 0 6.123233995736766E-17 1
vn 0 6.123233995736766E-17 1
vn 0 6.123233995736766E-17 1
vn 0 6.123233995736766E-17 1
vn 0 6.123233995736766E-17 1
vn -0 1 -2.3000000000061234E-05
vn 0 -1 2.3000000000061234E-05
vn -0 1 -2.3000000000061234E-05
vn 0 -1 2.2000000000061233E-05
vn 0 -1 2.3000000000061234E-05
vn 0 1 -2.3000000000061234E-05
vn 0 -1 2.3000000000061234E-05
vn 0 1 -2.3000000000061234E-05
vn 0.00077 0.009686000000000061 0.999953
vn 0.000385 0.004843000000000062 0.999988
vn 0 6.123233995736766E-17 1
vn 0 6.123233995736766E-17 1
vn 0 6.123233995736766E-17 1
vn 0 6.123233995736766E-17 1
vn 0 6.123233995736766E-17 1
vn 0.000385 0.004843000000000062 0.999988
vn 0.002774 -0.00019899999999993878 0.999996
vn 0.010092 0.0003760000000000612 0.999949
vn 0.002774 -0.00019899999999993878 0.999996
vn -0.004545 -0.0007739999999999387 0.999989
vn 0 6.123233995736766E-17 1
vn 0 6.123233995736766E-17 1
vn 0 6.123233995736766E-17 1
vn 0 6.123233995736766E-17 1
vn 0 6.123233995736766E-17 1
vn 0 6.123233995736766E-17 1
vn 0 6.123233995736766E-17 1
vn 0 6.123233995736766E-17 1
vn 1 0 -0
vn 1 0 -0
vn -1 0.000588 -3.6004615894932184E-20
vn -1 0.000588 -3.6004615894932184E-20
vn -1 -0.000147 9.001153973733046E-21
vn -1 -0.000147 9.001153973733046E-21
vn 0.999994 -0.003514 2.1517044261018996E-19
vn 0.999994 -0.003514 2.1517044261018996E-19
vn 0 1 -2.2000000000061233E-05
vn -1 0.000173 -1.0593194812624606E-20
vn 1 0 0
vn 1 0 0
vn -0.000385 0.004843000000000062 0.999988
vn -0.00077 0.009686000000000061 0.999953
vn -0.000385 0.004843000000000062 0.999988
vn 0 6.123233995736766E-17 1
vn 0 6.123233995736766E-17 1
vn 0 6.123233995736766E-17 1
vn 0 6.123233995736766E-17 1
vn 0 6.123233995736766E-17 1
vn -0 -1 2.3000000000061234E-05
vn -0 -1 2.2000000000061233E-05
vn 0 1 -2.3000000000061234E-05
vn 0 1 -2.3000000000061234E-05
vn 0 -1 2.3000000000061234E-05
vn 0 -1 2.3000000000061234E-05
vn 0 1 -2.3000000000061234E-05
vn 0 1 -2.3000000000061234E-05
vn -0.001387 -0.0027859999999999387 0.999995
vn 0.002272 -0.003072999999999939 0.999993
vn -1 0 -0
vn -1 0 -0
vn 0 1 -2.3000000000061234E-05
vn 0 1 -2.3000000000061234E-05
vn 0 1 -2.3000000000061234E-05
vn 0 -1 2.3000000000061234E-05
vn 0 -1 2.3000000000061234E-05
vn 1 0.000588 -3.6004615894932184E-20
vn 1 0.000588 -3.6004615894932184E-20
vn 1 0.000588 -3.6004615894932184E-20
vn 1 -0.000147 9.001153973733046E-21
vn 1 -0.000147 9.001153973733046E-21
vn -0.999994 -0.003514 2.1517044261018996E-19
vn -0.999994 -0.003514 2.1517044261018996E-19
vn 0 1 -2.2000000000061233E-05
vn 0 1 -2.2000000000061233E-05
vn 0 1 -2.2000000000061233E-05
vn 1 0.000173 -1.0593194812624606E-20
vn 1 0.000173 -1.0593194812624606E-20
vn 1 0.000173 -1.0593194812624606E-20
vn -1 0 0
vn -1 0 0
vn 0 -1 2.3000000000061234E-05
vn 0 -1 2.3000000000061234E-05
vn 0 1 -2.3000000000061234E-05
vn 0 1 -2.3000000000061234E-05
vn 0 -1 2.3000000000061234E-05
vn 0 -1 2.3000000000061234E-05
vn -0 1 -2.3000000000061234E-05
vn -0 1 -2.3000000000061234E-05
vn 1 0 -0
vn 1 0 -0
vn -1 0.000588 -3.6004615894932184E-20
vn -1 0.000588 -3.6004615894932184E-20
vn -1 -0.000147 9.001153973733046E-21
vn -1 -0.000147 9.001153973733046E-21
vn 0.999994 -0.003514 2.1517044261018996E-19
vn 0.999994 -0.003514 2.1517044261018996E-19
vn 0 1 -2.2000000000061233E-05
vn 0 1 -2.2000000000061233E-05
vn 0 1 -2.2000000000061233E-05
vn -1 0.000173 -1.0593194812624606E-20
vn -1 0.000173 -1.0593194812624606E-20
vn -1 0.000173 -1.0593194812624606E-20
vn 1 0 0
vn 1 0 0
vn -0 -1 2.3000000000061234E-05
vn -0 -1 2.3000000000061234E-05
vn 0 1 -2.3000000000061234E-05
vn 0 1 -2.3000000000061234E-05
vn 0 -1 2.3000000000061234E-05
vn 0 -1 2.3000000000061234E-05
vn 0 1 -2.3000000000061234E-05
vn 0 1 -2.3000000000061234E-05
g 03
f 84/84/84 139/139/139 83/83/83
f 140/140/140 83/83/83 139/139/139
f 82/82/82 137/137/137 81/81/81
f 138/138/138 81/81/81 137/137/137
f 80/80/80 135/135/135 79/79/79
f 136/136/136 79/79/79 135/135/135
f 78/78/78 133/133/133 77/77/77
f 134/134/134 77/77/77 133/133/133
f 76/76/76 73/73/73 75/75/75
f 74/74/74 75/75/75 73/73/73
f 72/72/72 69/69/69 71/71/71
f 70/70/70 71/71/71 69/69/69
f 68/68/68 131/131/131 67/67/67
f 132/132/132 67/67/67 131/131/131
f 66/66/66 128/128/128 129/129/129
f 130/130/130 129/129/129 128/128/128
f 65/65/65 125/125/125 126/126/126
f 127/127/127 126/126/126 125/125/125
f 64/64/64 123/123/123 63/63/63
f 124/124/124 63/63/63 123/123/123
f 62/62/62 121/121/121 61/61/61
f 122/122/122 61/61/61 121/121/121
f 60/60/60 119/119/119 59/59/59
f 120/120/120 59/59/59 119/119/119
f 58/58/58 117/117/117 57/57/57
f 118/118/118 57/57/57 117/117/117
f 56/56/56 53/53/53 55/55/55
f 54/54/54 55/55/55 53/53/53
f 52/52/52 49/49/49 51/51/51
f 50/50/50 51/51/51 49/49/49
f 48/48/48 45/45/45 47/47/47
f 46/46/46 47/47/47 45/45/45
f 115/115/115 29/29/29 31/31/31
f 31/31/31 116/116/116 115/115/115
f 113/113/113 30/30/30 35/35/35
f 35/35/35 114/114/114 113/113/113
f 111/111/111 36/36/36 34/34/34
f 34/34/34 112/112/112 111/111/111
f 109/109/109 32/32/32 33/33/33
f 33/33/33 110/110/110 109/109/109
f 41/41/41 40/40/40 43/43/43
f 43/43/43 42/42/42 41/41/41
f 44/44/44 39/39/39 38/38/38
f 38/38/38 37/37/37 44/44/44
f 107/107/107 3/3/3 2/2/2
f 2/2/2 108/108/108 107/107/107
f 104/104/104 11/11/11 106/106/106
f 106/106/106 105/105/105 104/104/104
f 101/101/101 14/14/14 103/103/103
f 103/103/103 102/102/102 101/101/101
f 99/99/99 12/12/12 13/13/13
f 13/13/13 100/100/100 99/99/99
f 97/97/97 10/10/10 8/8/8
f 8/8/8 98/98/98 97/97/97
f 94/94/94 9/9/9 96/96/96
f 96/96/96 95/95/95 94/94/94
f 92/92/92 7/7/7 6/6/6
f 6/6/6 93/93/93 92/92/92
f 89/89/89 4/4/4 91/91/91
f 91/91/91 90/90/90 89/89/89
f 87/87/87 5/5/5 1/1/1
f 1/1/1 88/88/88 87/87/87
f 25/25/25 24/24/24 23/23/23
f 23/23/23 26/26/26 25/25/25
f 21/21/21 28/28/28 27/27/27
f 27/27/27 22/22/22 21/21/21
f 85/85/85 86/86/86 15/15/15
f 15/15/15 20/20/20 85/85/85
f 19/19/19 18/18/18 17/17/17
f 17/17/17 16/16/16 19/19/19
