v 0.78262514 0.68160868 0.04400083999999996
v 0.78350788 0.6814302000000001 0.04402015999999996
v 0.7834513000000001 0.68152404 0.04431823999999996
v 0.78266884 0.68166204 0.044284199999999954
v 0.7839665 0.68445102 0.04435227999999996
v 0.78405298 0.68452692 0.044056039999999956
v 0.78316242 0.68465986 0.044038099999999955
v 0.7831840400000001 0.68458948 0.04431823999999996
v 0.78346418 0.68150932 0.04419725999999996
v 0.7834283000000001 0.6813037000000001 0.04419495999999996
v 0.7834329 0.68130416 0.04408961999999996
v 0.78346878 0.6815097800000001 0.04409237999999995
v 0.7831316 0.6815682000000001 0.04418253999999996
v 0.78309526 0.68136258 0.04418023999999996
v 0.7834283000000001 0.6813037000000001 0.04419495999999996
v 0.78346418 0.68150932 0.04419725999999996
v 0.7831362 0.6815682000000001 0.044077659999999956
v 0.78309986 0.68136304 0.04407535999999996
v 0.78309526 0.68136258 0.04418023999999996
v 0.7831316 0.6815682000000001 0.04418253999999996
v 0.7834329 0.68130416 0.04408961999999996
v 0.7834283000000001 0.6813037000000001 0.04419495999999996
v 0.78309526 0.68136258 0.04418023999999996
v 0.78309986 0.68136304 0.04407535999999996
v 0.7831840400000001 0.68458948 0.04431823999999996
v 0.78316242 0.68465986 0.044038099999999955
v 0.78262514 0.68160868 0.04400083999999996
v 0.78266884 0.68166204 0.044284199999999954
v 0.7834513000000001 0.68152404 0.04431823999999996
v 0.78350788 0.6814302000000001 0.04402015999999996
v 0.78405298 0.68452692 0.044056039999999956
v 0.7839665 0.68445102 0.04435227999999996
v 0.7834513000000001 0.68152404 0.04431823999999996
v 0.7839665 0.68445102 0.04435227999999996
v 0.7831840400000001 0.68458948 0.04431823999999996
v 0.78266884 0.68166204 0.044284199999999954
vt 0.673874 0.277630
vt 0.671864 0.256300
vt 0.679406 0.257790
vt 0.679406 0.276597
vt 0.750311 0.257789
vt 0.757666 0.256260
vt 0.755656 0.277591
vt 0.750311 0.276597
vt 0.538009 0.807349
vt 0.542992 0.807349
vt 0.542992 0.809844
vt 0.538009 0.809844
vt 0.538009 0.799304
vt 0.542992 0.799304
vt 0.542992 0.807349
vt 0.538009 0.807349
vt 0.538009 0.796801
vt 0.542992 0.796801
vt 0.542992 0.799304
vt 0.538009 0.799304
vt 0.545483 0.807349
vt 0.542992 0.807349
vt 0.542992 0.799304
vt 0.545483 0.799304
vt 0.750311 0.276597
vt 0.751811 0.281899
vt 0.677907 0.281899
vt 0.679406 0.276597
vt 0.679406 0.257790
vt 0.677352 0.250437
vt 0.752365 0.250437
vt 0.750311 0.257789
vt 0.679406 0.257790
vt 0.750311 0.257789
vt 0.750311 0.276597
vt 0.679406 0.276597
vn -0.187893 -0.953628 0.23514000000000004
vn -0.196793 -0.945182 0.26058400000000004
vn -0.187893 -0.953628 0.23514000000000004
vn -0.178842 -0.961312 0.20950800000000006
vn 0.14781 0.955444 0.2554969999999999
vn 0.135815 0.949643 0.2823689999999999
vn 0.14781 0.955444 0.2554969999999999
vn 0.159671 0.960386 0.22839599999999993
vn 0.983867 -0.173728 0.04270900000000001
vn 0.983867 -0.173729 0.042712000000000014
vn 0.983867 -0.173728 0.04270900000000001
vn 0.983868 -0.173726 0.042705000000000014
vn -0.044047 -0.003852999999999939 0.999022
vn -0.044047 -0.003852999999999939 0.999022
vn -0.044047 -0.003852999999999939 0.999022
vn -0.044047 -0.003852999999999939 0.999022
vn -0.983866 0.173733 -0.042707000000000016
vn -0.983866 0.173734 -0.042705000000000014
vn -0.983866 0.173733 -0.042707000000000016
vn -0.983866 0.173733 -0.04270900000000001
vn -0.173399 -0.984785 -0.011445999999999939
vn -0.1734 -0.984785 -0.011445999999999939
vn -0.173399 -0.984785 -0.011445999999999939
vn -0.173399 -0.984785 -0.01144499999999994
vn -0.978058 0.170793 0.11929499999999998
vn -0.978025 0.170752 0.11962599999999998
vn -0.978058 0.170793 0.11929499999999998
vn -0.978091 0.170835 0.11896499999999999
vn 0.956692 -0.17118499999999998 0.23545
vn 0.956692 -0.17118499999999998 0.235449
vn 0.956692 -0.17118499999999998 0.23545
vn 0.956692 -0.17118499999999998 0.23545
vn -0.044046 -0.0038539999999999386 0.999022
vn -0.044047 -0.0038539999999999386 0.999022
vn -0.044046 -0.0038539999999999386 0.999022
vn -0.044046 -0.0038539999999999386 0.999022
g kleine werft
f 1/1/1 2/2/2 3/3/3
f 3/3/3 4/4/4 1/1/1
f 5/5/5 6/6/6 7/7/7
f 7/7/7 8/8/8 5/5/5
f 9/9/9 10/10/10 11/11/11
f 11/11/11 12/12/12 9/9/9
f 13/13/13 14/14/14 15/15/15
f 15/15/15 16/16/16 13/13/13
f 17/17/17 18/18/18 19/19/19
f 19/19/19 20/20/20 17/17/17
f 21/21/21 22/22/22 23/23/23
f 23/23/23 24/24/24 21/21/21
f 25/25/25 26/26/26 27/27/27
f 27/27/27 28/28/28 25/25/25
f 29/29/29 30/30/30 31/31/31
f 31/31/31 32/32/32 29/29/29
f 33/33/33 34/34/34 35/35/35
f 35/35/35 36/36/36 33/33/33
