v -0.415546 0.07121400000000004 0.659915
v -0.379138 0.07787200000000004 0.664272
v -0.394918 0.05755900000000004 0.670938
v -0.436189 0.44179500000000005 0.752664
v -0.429048 0.44141700000000006 0.756627
v -0.430757 0.46608400000000005 0.758798
v -0.420998 0.44267000000000006 0.752581
v -0.379138 0.07787200000000004 0.664272
v -0.430757 0.46608400000000005 0.758798
v -0.436189 0.44179500000000005 0.752664
v -0.415546 0.07121400000000004 0.659915
v -0.409969 0.06399100000000005 0.656736
v -0.397452 -0.05414799999999996 0.626369
v -0.391351 -0.05312099999999996 0.641654
v -0.395921 0.05566300000000004 0.673604
v -0.377547 -0.052900999999999955 0.627158
v -0.397452 -0.05414799999999996 0.626369
v -0.380126 0.06618900000000004 0.657415
v -0.409969 0.06399100000000005 0.656736
v -0.397452 -0.05414799999999996 0.626369
v -0.316504 0.05629700000000004 0.654842
v -0.318941 0.07628700000000004 0.662848
v -0.320899 0.06146600000000004 0.673424
v -0.395921 0.05566300000000004 0.673604
v -0.396755 0.07572800000000005 0.660722
v -0.477717 0.06738700000000004 0.656894
v -0.473454 0.05372200000000004 0.6693
v -0.477717 0.06738700000000004 0.656894
v -0.475292 0.04664400000000004 0.651638
v -0.395112 0.04588800000000004 0.651856
v -0.316504 0.05629700000000004 0.654842
v -0.318941 0.07628700000000004 0.662848
v -0.396755 0.07572800000000005 0.660722
v -0.477717 0.06738700000000004 0.656894
vt 0.022290 0.173843
vt 0.031620 0.147845
vt 0.043504 0.163450
vt 0.029456 0.445316
vt 0.036624 0.444904
vt 0.034489 0.462506
vt 0.044902 0.444646
vt 0.062515 0.174745
vt 0.050921 0.462268
vt 0.059700 0.444623
vt 0.095049 0.171209
vt 0.031376 0.983482
vt 0.060049 0.886963
vt 0.091212 0.891691
vt 0.078695 0.981476
vt 0.131220 0.889031
vt 0.099808 0.879062
vt 0.127674 0.986411
vt 0.188303 0.985423
vt 0.171654 0.888474
vt 0.703610 0.630366
vt 0.683999 0.618274
vt 0.709705 0.616219
vt 0.707407 0.561199
vt 0.675000 0.560748
vt 0.686143 0.501330
vt 0.711629 0.504918
vt 0.718274 0.491457
vt 0.738621 0.503100
vt 0.738964 0.560985
vt 0.738669 0.618683
vt 0.770564 0.618612
vt 0.781234 0.560945
vt 0.768574 0.501583
vn -0.267762 -0.35164400000000007 -0.897023
vn 0.499022 -0.007611000000000053 -0.866556
vn -0.175318 -0.537251 0.825
vn -0.930595 -0.05471699999999998 0.361937
vn 0.10966 -0.15615299999999993 0.981627
vn -0.224612 0.835564 -0.50138
vn 0.728923 0.018734000000000042 0.684339
vn 0.499022 -0.007611000000000053 -0.866556
vn -0.224612 0.835564 -0.50138
vn -0.930595 -0.05471699999999998 0.361937
vn -0.267762 -0.35164400000000007 -0.897023
vn -0.859089 0.05368199999999997 -0.509003
vn -0.603548 -0.687908 -0.40312899999999996
vn -0.377854 -0.633252 0.675439
vn 0.324155 -0.24953199999999995 0.912501
vn 0.841802 -0.441016 -0.311244
vn -0.603548 -0.687908 -0.40312899999999996
vn 0.910756 0.12010199999999997 -0.395093
vn -0.859089 0.05368199999999997 -0.509003
vn -0.603548 -0.687908 -0.40312899999999996
vn 0.842077 -0.430324 -0.325159
vn 0.451188 0.892408 -0.006069000000000054
vn 0.463596 -0.51643 0.719986
vn -0.017192 -0.28315299999999993 0.958921
vn -0.054041 0.983302 -0.17377400000000007
vn -0.817181 0.574934 -0.04081400000000004
vn -0.469844 0.04338700000000006 0.881683
vn -0.817181 0.574934 -0.04081400000000004
vn -0.476803 -0.729832 -0.4899029999999999
vn 0.075943 -0.723847 -0.685769
vn 0.842077 -0.430324 -0.325159
vn 0.451188 0.892408 -0.006069000000000054
vn -0.054041 0.983302 -0.17377400000000007
vn -0.817181 0.574934 -0.04081400000000004
g Mil_standard_prob
f 1/1/1 2/2/2 3/3/3
f 4/4/4 1/1/1 3/3/3
f 3/3/3 5/5/5 4/4/4
f 6/6/6 4/4/4 5/5/5
f 7/7/7 6/6/6 5/5/5
f 5/5/5 3/3/3 8/8/8
f 8/8/8 7/7/7 5/5/5
f 9/9/9 7/7/7 8/8/8
f 10/10/10 9/9/9 8/8/8
f 11/11/11 10/10/10 8/8/8
f 12/12/12 13/13/13 14/14/14
f 14/14/14 15/15/15 12/12/12
f 15/15/15 14/14/14 16/16/16
f 17/17/17 16/16/16 14/14/14
f 16/16/16 18/18/18 15/15/15
f 19/19/19 18/18/18 16/16/16
f 16/16/16 20/20/20 19/19/19
f 21/21/21 22/22/22 23/23/23
f 24/24/24 23/23/23 22/22/22
f 22/22/22 25/25/25 24/24/24
f 25/25/25 26/26/26 27/27/27
f 27/27/27 24/24/24 25/25/25
f 28/28/28 29/29/29 27/27/27
f 24/24/24 27/27/27 29/29/29
f 23/23/23 24/24/24 30/30/30
f 29/29/29 30/30/30 24/24/24
f 30/30/30 31/31/31 23/23/23
f 32/32/32 31/31/31 30/30/30
f 30/30/30 33/33/33 32/32/32
f 33/33/33 30/30/30 29/29/29
f 29/29/29 34/34/34 33/33/33
