v 0.179195 -0.005106999999999926 1.215521
v 0.162597 -0.005483999999999925 1.2266
v 0.17214 -0.019970999999999926 1.21661
v -0.124243 -0.05331499999999995 0.762472
v 0.106793 -0.03474699999999993 1.124421
v 0.078661 -0.01790699999999993 1.122524
v -0.124243 -0.05331499999999995 0.762472
v 0.115342 -0.017402999999999932 1.09836
v 0.106793 -0.03474699999999993 1.124421
v 0.115342 -0.017402999999999932 1.09836
v 0.078661 -0.01790699999999993 1.122524
v 0.106793 -0.03474699999999993 1.124421
v 0.078661 -0.01790699999999993 1.122524
v 0.115342 -0.017402999999999932 1.09836
v -0.124243 -0.05331499999999995 0.762472
v -0.002886 -0.02585999999999993 1.150412
v 0.106983 -0.03426099999999993 1.124816
v 0.114505 -0.01433599999999993 1.13557
v 0.170938 -0.024006999999999938 1.032265
v 0.09693 -0.01836099999999993 1.110141
v -0.002886 -0.02585999999999993 1.150412
v 0.09693 -0.01836099999999993 1.110141
v 0.106983 -0.03426099999999993 1.124816
v 0.170938 -0.024006999999999938 1.032265
v 0.114505 -0.01433599999999993 1.13557
v 0.114505 -0.01433599999999993 1.13557
v 0.09693 -0.01836099999999993 1.110141
v -0.002886 -0.02585999999999993 1.150412
v 0.170938 -0.024006999999999938 1.032265
v 0.17214 -0.019970999999999926 1.21661
v 0.106983 -0.03426099999999993 1.124816
v 0.114873 -0.01642699999999993 1.111742
v 0.179195 -0.005106999999999926 1.215521
v 0.106983 -0.03426099999999993 1.124816
v 0.17214 -0.019970999999999926 1.21661
v 0.162597 -0.005483999999999925 1.2266
v 0.089843 -0.01644399999999993 1.128156
v 0.114873 -0.01642699999999993 1.111742
v 0.089843 -0.01644399999999993 1.128156
v 0.162597 -0.005483999999999925 1.2266
v 0.179195 -0.005106999999999926 1.215521
vt 0.502702 0.808813
vt 0.523965 0.824639
vt 0.497967 0.830192
vt 0.943132 0.302060
vt 0.390139 0.289556
vt 0.412280 0.251904
vt 0.970172 0.328536
vt 0.410873 0.327158
vt 0.390139 0.289556
vt 0.355247 0.264245
vt 0.412280 0.251904
vt 0.390139 0.289556
vt 0.412280 0.251904
vt 0.417113 0.193760
vt 0.973705 0.234315
vt 0.323656 0.309075
vt 0.177212 0.311480
vt 0.177134 0.283914
vt 0.030916 0.305509
vt 0.176695 0.340535
vt 0.328520 0.328037
vt 0.176695 0.340535
vt 0.177212 0.311480
vt 0.031311 0.283647
vt 0.177134 0.283914
vt 0.177134 0.283914
vt 0.177590 0.247592
vt 0.331822 0.261296
vt 0.031311 0.283647
vt 0.497967 0.830192
vt 0.496048 0.980868
vt 0.465220 0.985523
vt 0.477755 0.823238
vt 0.496048 0.980868
vt 0.497967 0.830192
vt 0.523965 0.824639
vt 0.528389 0.987785
vt 0.568001 0.984492
vt 0.528389 0.987785
vt 0.523965 0.824639
vt 0.550387 0.822611
vn 0.547087 -0.20015099999999994 0.812795
vn 0.547087 -0.20015099999999994 0.812795
vn 0.547087 -0.20015099999999994 0.812795
vn -0.497233 -0.790343 0.35793500000000006
vn -0.497233 -0.790343 0.35793500000000006
vn -0.497233 -0.790343 0.35793500000000006
vn 0.564192 -0.760643 -0.32110799999999995
vn 0.564192 -0.760643 -0.32110799999999995
vn 0.564192 -0.760643 -0.32110799999999995
vn 0.382636 0.706315 0.595574
vn 0.382636 0.706315 0.595574
vn 0.382636 0.706315 0.595574
vn -0.057045 0.9962 -0.06581900000000006
vn -0.057045 0.9962 -0.06581900000000006
vn -0.057045 0.9962 -0.06581900000000006
vn 0.157084 -0.514365 0.843062
vn -0.265658 -0.917298 0.29663100000000003
vn 0.157084 -0.514365 0.843062
vn -0.518471 -0.733479 -0.43954099999999996
vn -0.518471 -0.733479 -0.43954099999999996
vn -0.207345 -0.731056 -0.65005
vn -0.207345 -0.731056 -0.65005
vn 0.381989 -0.912189 -0.14830799999999994
vn 0.729956 -0.516939 0.44714500000000007
vn 0.729956 -0.516939 0.44714500000000007
vn -0.079777 0.991602 -0.10179300000000005
vn -0.079777 0.991602 -0.10179300000000005
vn -0.107673 0.990767 -0.08238100000000005
vn -0.051789 0.99129 -0.12108700000000006
vn 0.748741 -0.507817 -0.42603899999999995
vn 0.69376 -0.599504 -0.39911399999999997
vn 0.748741 -0.507817 -0.42603899999999995
vn 0.794621 -0.409958 -0.447786
vn -0.556346 -0.668847 0.49307400000000007
vn -0.535844 -0.689258 0.4876420000000001
vn -0.556346 -0.668847 0.49307400000000007
vn -0.576367 -0.647857 0.49807900000000005
vn -0.058369 0.995795 -0.07061400000000005
vn -0.049435 0.996006 -0.07434600000000005
vn -0.058369 0.995795 -0.07061400000000005
vn -0.067298 0.995489 -0.06687500000000006
g mil_leader_prob
f 1/1/1 2/2/2 3/3/3
f 4/4/4 5/5/5 6/6/6
f 7/7/7 8/8/8 9/9/9
f 10/10/10 11/11/11 12/12/12
f 13/13/13 14/14/14 15/15/15
f 16/16/16 17/17/17 18/18/18
f 19/19/19 17/17/17 20/20/20
f 21/21/21 22/22/22 23/23/23
f 24/24/24 25/25/25 23/23/23
f 26/26/26 27/27/27 28/28/28
f 27/27/27 26/26/26 29/29/29
f 30/30/30 31/31/31 32/32/32
f 32/32/32 33/33/33 30/30/30
f 34/34/34 35/35/35 36/36/36
f 36/36/36 37/37/37 34/34/34
f 38/38/38 39/39/39 40/40/40
f 40/40/40 41/41/41 38/38/38
