v 0.003932 0.122099 -0.0008650000000000075
v 0.003932 -0.12134 -0.0012739999999999926
v 0.003932 -0.11091099999999998 0.163016
v 0.003932 0.11756400000000002 0.162591
v 0.003932 -0.10048199999999999 0.327306
v 0.003932 0.11302800000000002 0.326047
v 0.003932 0.10828500000000003 0.552232
v 0.003932 -0.09930399999999998 0.553456
v 0.003932 0.10354200000000004 0.778417
v 0.003932 -0.09812699999999996 0.779606
vt 0.988347 0.991182
vt 0.817035 0.991403
vt 0.817043 0.774730
vt 0.988259 0.774538
vt 0.817050 0.558057
vt 0.988170 0.557894
vt 0.988078 0.285553
vt 0.817048 0.285444
vt 0.987986 0.013212
vt 0.817046 0.012830
vn -1 0 0
vn -1 0 0
vn -1 0 0
vn -1 0 0
vn -1 0 0
vn -1 0 0
vn -1 6.123233995736766E-23 1E-06
vn -1 6.123233995736766E-23 1E-06
vn -1 6.123233995736766E-23 1E-06
vn -1 6.123233995736766E-23 1E-06
g OR_mil_leader_prob
f 1/1/1 2/2/2 3/3/3
f 3/3/3 4/4/4 1/1/1
f 4/4/4 3/3/3 5/5/5
f 5/5/5 6/6/6 4/4/4
f 7/7/7 6/6/6 5/5/5
f 5/5/5 8/8/8 7/7/7
f 9/9/9 7/7/7 8/8/8
f 8/8/8 10/10/10 9/9/9
