v -0.572317 0.721792 0.21173999999999996
v -0.688601 0.864012 0.21173999999999996
v -0.700669 0.854004 0.19605499999999995
v -0.828757 1.011978 0.22658899999999996
v -0.840808 1.001949 0.21090399999999995
v -0.700669 0.854004 0.19605499999999995
v -0.700669 0.854004 0.19605499999999995
v -0.688601 0.864012 0.21173999999999996
v -0.828757 1.011978 0.22658899999999996
v -0.572317 0.721792 0.36461799999999994
v -0.688601 0.864012 0.36461799999999994
v -0.700669 0.854004 0.34893299999999994
v -0.828757 1.011978 0.37946699999999994
v -0.840808 1.001949 0.36378199999999994
v -0.700669 0.854004 0.34893299999999994
v -0.700669 0.854004 0.34893299999999994
v -0.688601 0.864012 0.36461799999999994
v -0.828757 1.011978 0.37946699999999994
v -0.498415 0.597232 0.026271999999999962
v -0.498415 0.597232 0.17223499999999997
v -0.390816 0.599694 0.17223499999999997
v -0.390816 0.599694 0.17223499999999997
v -0.390816 0.599694 0.026271999999999962
v -0.498415 0.597232 0.026271999999999962
v -0.484398 0.582541 0.16587399999999997
v -0.484397 0.582541 0.47301699999999997
v -0.406852 0.584316 0.47301699999999997
v -0.406852 0.584316 0.47301699999999997
v -0.406852 0.584315 0.16587399999999997
v -0.484398 0.582541 0.16587399999999997
v -0.037528 0.224134 0.026271999999999986
v -0.037528 0.224134 0.172235
v 0.070069 0.226597 0.172235
v 0.070069 0.226597 0.172235
v 0.070069 0.226597 0.026271999999999986
v -0.037528 0.224134 0.026271999999999986
v -0.02351 0.209442 0.165874
v -0.02351 0.20944200000000002 0.473017
v 0.054035 0.21121700000000002 0.473017
v 0.054035 0.21121700000000002 0.473017
v 0.054034 0.211216 0.165874
v -0.02351 0.209442 0.165874
v -0.136513 0.313028 0.21173999999999998
v -0.281126 0.42638 0.21173999999999998
v -0.290946 0.414162 0.19605499999999998
v -0.450516 0.540298 0.22658899999999998
v -0.460315 0.528062 0.21090399999999998
v -0.290946 0.414162 0.19605499999999998
v -0.290946 0.414162 0.19605499999999998
v -0.281126 0.42638 0.21173999999999998
v -0.450516 0.540298 0.22658899999999998
v -0.136513 0.313028 0.364618
v -0.281126 0.42638 0.364618
v -0.290946 0.414162 0.348933
v -0.450516 0.540298 0.37946699999999994
v -0.460315 0.528062 0.36378199999999994
v -0.290946 0.414162 0.348933
v -0.290946 0.414162 0.348933
v -0.281126 0.42638 0.364618
v -0.450516 0.540298 0.37946699999999994
v -0.560864 0.731359 0.19681199999999993
v -0.447802 0.569632 0.21166199999999996
v -0.459853 0.559603 0.19597599999999998
v -0.572915 0.721329 0.18112699999999995
v -0.560864 0.731359 0.19681199999999993
v -0.677148 0.873579 0.19681199999999993
v -0.560864 0.731359 0.19681199999999993
v -0.6892 0.86355 0.18112699999999995
v -0.677148 0.873579 0.19681199999999993
v -0.677148 0.873579 0.19681199999999993
v -0.829339 1.011495 0.19597599999999996
v -0.817287 1.021524 0.21166099999999993
v -0.677148 0.873579 0.19681199999999993
v -0.560864 0.731359 0.34968999999999995
v -0.447802 0.569632 0.36453899999999995
v -0.459853 0.559603 0.34885399999999994
v -0.572915 0.721329 0.33400499999999994
v -0.560864 0.731359 0.34968999999999995
v -0.677148 0.873579 0.34968999999999995
v -0.560864 0.731359 0.34968999999999995
v -0.6892 0.86355 0.33400499999999994
v -0.677148 0.873579 0.34968999999999995
v -0.677148 0.873579 0.34968999999999995
v -0.829339 1.011495 0.34885399999999994
v -0.817287 1.021524 0.36453899999999995
v -0.677148 0.873579 0.34968999999999995
v -0.500876 0.489635 0.02627199999999997
v -0.500876 0.489635 0.17223499999999997
v -0.498415 0.597232 0.17223499999999997
v -0.498415 0.597232 0.026271999999999962
v -0.500876 0.489635 0.02627199999999997
v -0.408627 0.506769 0.16587399999999997
v -0.408626 0.506769 0.47301699999999997
v -0.486172 0.504995 0.47301699999999997
v -0.486172 0.504995 0.16587399999999997
v -0.408627 0.506769 0.16587399999999997
v -0.490191 0.589007 0.39194299999999993
v -0.490191 0.589007 0.44701499999999994
v -0.399427 0.591085 0.44701499999999994
v -0.399427 0.591085 0.44701499999999994
v -0.399427 0.591085 0.39194299999999993
v -0.492268 0.498245 0.39194299999999993
v -0.492268 0.498245 0.44701499999999994
v -0.490191 0.589007 0.44701499999999994
v -0.490191 0.589007 0.39194299999999993
v -0.492268 0.498245 0.39194299999999993
v -0.401505 0.500322 0.39194299999999993
v -0.401505 0.500322 0.44701499999999994
v -0.492268 0.498245 0.44701499999999994
v -0.492268 0.498245 0.39194299999999993
v -0.401505 0.500322 0.39194299999999993
v -0.03999 0.116537 0.026271999999999993
v -0.03999 0.11653700000000002 0.172235
v -0.037528 0.224134 0.172235
v -0.037528 0.224134 0.026271999999999986
v -0.03999 0.116537 0.026271999999999993
v -0.893022 1.079628 0.026271999999999934
v -0.893022 1.079628 0.17223499999999994
v -0.786203 1.082073 0.17223499999999994
v -0.786203 1.082073 0.026271999999999934
v -0.893022 1.079628 0.026271999999999934
v -0.895466 0.972811 0.02627199999999994
v -0.895466 0.972811 0.17223499999999994
v -0.893022 1.079628 0.17223499999999994
v -0.893022 1.079628 0.026271999999999934
v -0.895466 0.972811 0.02627199999999994
v -0.78865 0.975256 0.02627199999999994
v -0.78865 0.975256 0.17223499999999994
v -0.895466 0.972811 0.17223499999999994
v -0.895466 0.972811 0.02627199999999994
v -0.78865 0.975256 0.02627199999999994
v -0.884857 1.071461 0.39194299999999993
v -0.884857 1.071461 0.44701499999999994
v -0.794752 1.073523 0.44701499999999994
v -0.794752 1.073523 0.39194299999999993
v -0.884857 1.071461 0.39194299999999993
v -0.886919 0.981356 0.39194299999999993
v -0.886919 0.981356 0.44701499999999994
v -0.884857 1.071461 0.44701499999999994
v -0.884857 1.071461 0.39194299999999993
v -0.886919 0.981356 0.39194299999999993
v -0.796814 0.983419 0.39194299999999993
v -0.796814 0.983419 0.44701499999999994
v -0.886919 0.981356 0.44701499999999994
v -0.886919 0.981356 0.39194299999999993
v -0.796814 0.983419 0.39194299999999993
v 0.05226 0.133672 0.165874
v 0.05226 0.13367300000000001 0.473017
v -0.025285 0.13189800000000002 0.473017
v -0.025286 0.131897 0.165874
v 0.05226 0.133672 0.165874
v -0.029304 0.21590800000000002 0.391943
v -0.029304 0.21590800000000002 0.447015
v 0.061458 0.21798600000000004 0.447015
v 0.061458 0.21798600000000004 0.447015
v 0.061458 0.21798600000000004 0.391943
v -0.031382 0.12514700000000004 0.391943
v -0.031382 0.12514700000000004 0.447015
v -0.029304 0.21590800000000002 0.447015
v -0.029304 0.21590800000000002 0.391943
v -0.031382 0.12514700000000004 0.391943
v 0.059381 0.12722300000000003 0.391943
v 0.059381 0.12722300000000003 0.447015
v -0.031382 0.12514700000000004 0.447015
v -0.031382 0.12514700000000004 0.391943
v 0.059381 0.12722300000000003 0.391943
v -0.879107 1.065041 0.16587399999999994
v -0.879106 1.065042 0.47301699999999997
v -0.802121 1.066801 0.47301699999999997
v -0.802122 1.066801 0.16587399999999994
v -0.879107 1.065041 0.16587399999999994
v -0.880868 0.988058 0.16587399999999994
v -0.880868 0.988058 0.47301699999999997
v -0.879106 1.065042 0.47301699999999997
v -0.879107 1.065041 0.16587399999999994
v -0.880868 0.988058 0.16587399999999994
v -0.803884 0.989818 0.16587399999999994
v -0.803884 0.989819 0.47301699999999997
v -0.880868 0.988058 0.47301699999999997
v -0.880868 0.988058 0.16587399999999994
v -0.803884 0.989818 0.16587399999999994
v -0.127208 0.32469 0.19681199999999996
v 0.018309 0.191774 0.211662
v 0.008511 0.179539 0.195976
v -0.137008 0.312454 0.18112699999999998
v -0.127208 0.32469 0.19681199999999996
v -0.271821 0.438043 0.19681199999999996
v -0.127208 0.32469 0.19681199999999996
v -0.281621 0.425807 0.18112699999999998
v -0.271821 0.438043 0.19681199999999996
v -0.271821 0.438043 0.19681199999999996
v -0.450989 0.539707 0.19597599999999998
v -0.44119 0.551943 0.21166099999999996
v -0.271821 0.438043 0.19681199999999996
v -0.127208 0.32469 0.34969
v 0.018309 0.19177400000000003 0.364539
v 0.008511 0.17953900000000003 0.348854
v -0.137008 0.312454 0.334005
v -0.127208 0.32469 0.34969
v -0.271821 0.438043 0.34969
v -0.127208 0.32469 0.34969
v -0.281621 0.425807 0.334005
v -0.271821 0.438043 0.34969
v -0.271821 0.438043 0.34969
v -0.450989 0.539707 0.34885399999999994
v -0.44119 0.551943 0.36453899999999995
v -0.271821 0.438043 0.34969
v -0.471323 0.550056 0.21090399999999998
v -0.584385 0.711784 0.19605499999999995
v -0.572915 0.721329 0.18112699999999995
v -0.459853 0.559603 0.19597599999999998
v -0.471323 0.550056 0.21090399999999998
v -0.6892 0.86355 0.18112699999999995
v -0.584385 0.711784 0.19605499999999995
v -0.840808 1.001949 0.21090399999999995
v -0.829339 1.011495 0.19597599999999996
v -0.700669 0.854004 0.19605499999999995
v -0.584385 0.711784 0.19605499999999995
v -0.459271 0.560087 0.22658899999999998
v -0.572317 0.721792 0.21173999999999996
v -0.584385 0.711784 0.19605499999999995
v -0.471323 0.550056 0.21090399999999998
v -0.459271 0.560087 0.22658899999999998
v -0.700669 0.854004 0.19605499999999995
v -0.572317 0.721792 0.21173999999999996
v -0.471323 0.550056 0.36378199999999994
v -0.584385 0.711784 0.34893299999999994
v -0.572915 0.721329 0.33400499999999994
v -0.459853 0.559603 0.34885399999999994
v -0.471323 0.550056 0.36378199999999994
v -0.6892 0.86355 0.33400499999999994
v -0.584385 0.711784 0.34893299999999994
v -0.840808 1.001949 0.36378199999999994
v -0.829339 1.011495 0.34885399999999994
v -0.700669 0.854004 0.34893299999999994
v -0.584385 0.711784 0.34893299999999994
v -0.459271 0.560087 0.37946699999999994
v -0.572317 0.721792 0.36461799999999994
v -0.584385 0.711784 0.34893299999999994
v -0.471323 0.550056 0.36378199999999994
v -0.459271 0.560087 0.37946699999999994
v -0.700669 0.854004 0.34893299999999994
v -0.572317 0.721792 0.36461799999999994
v -0.000816 0.167893 0.210904
v -0.146333 0.30081 0.19605499999999998
v -0.137008 0.312454 0.18112699999999998
v 0.008511 0.179539 0.195976
v -0.000816 0.167893 0.210904
v -0.281621 0.425807 0.18112699999999998
v -0.146333 0.30081 0.19605499999999998
v -0.460315 0.528062 0.21090399999999998
v -0.450989 0.539707 0.19597599999999998
v -0.290946 0.414162 0.19605499999999998
v -0.146333 0.30081 0.19605499999999998
v 0.008984 0.180128 0.226589
v -0.136513 0.313028 0.21173999999999998
v -0.146333 0.30081 0.19605499999999998
v -0.000816 0.167893 0.210904
v 0.008984 0.180128 0.226589
v -0.290946 0.414162 0.19605499999999998
v -0.136513 0.313028 0.21173999999999998
v -0.000816 0.16789300000000001 0.363782
v -0.146334 0.30081 0.348933
v -0.137008 0.312454 0.334005
v 0.008511 0.17953900000000003 0.348854
v -0.000816 0.16789300000000001 0.363782
v -0.281621 0.425807 0.334005
v -0.146334 0.30081 0.348933
v -0.460315 0.528062 0.36378199999999994
v -0.450989 0.539707 0.34885399999999994
v -0.290946 0.414162 0.348933
v -0.146334 0.30081 0.348933
v 0.008984 0.18012800000000004 0.379467
v -0.136513 0.313028 0.364618
v -0.146334 0.30081 0.348933
v -0.000816 0.16789300000000001 0.363782
v 0.008984 0.18012800000000004 0.379467
v -0.290946 0.414162 0.348933
v -0.136513 0.313028 0.364618
v -0.39328 0.492098 0.02627199999999997
v -0.39328 0.492098 0.17223499999999997
v -0.500876 0.489635 0.17223499999999997
v -0.500876 0.489635 0.02627199999999997
v -0.390816 0.599694 0.026271999999999962
v -0.390816 0.599694 0.17223499999999997
v -0.39328 0.492098 0.17223499999999997
v -0.39328 0.492098 0.02627199999999997
v -0.390816 0.599694 0.17223499999999997
v -0.498415 0.597232 0.17223499999999997
v -0.500876 0.489635 0.17223499999999997
v -0.39328 0.492098 0.17223499999999997
v -0.486172 0.504995 0.16587399999999997
v -0.486172 0.504995 0.47301699999999997
v -0.484397 0.582541 0.47301699999999997
v -0.484398 0.582541 0.16587399999999997
v -0.406852 0.584315 0.16587399999999997
v -0.406852 0.584316 0.47301699999999997
v -0.408626 0.506769 0.47301699999999997
v -0.408627 0.506769 0.16587399999999997
v -0.406852 0.584316 0.47301699999999997
v -0.484397 0.582541 0.47301699999999997
v -0.486172 0.504995 0.47301699999999997
v -0.408626 0.506769 0.47301699999999997
v -0.399427 0.591085 0.39194299999999993
v -0.399427 0.591085 0.44701499999999994
v -0.401505 0.500322 0.44701499999999994
v -0.401505 0.500322 0.39194299999999993
v -0.399427 0.591085 0.44701499999999994
v -0.490191 0.589007 0.44701499999999994
v -0.492268 0.498245 0.44701499999999994
v -0.401505 0.500322 0.44701499999999994
v 0.067607 0.118999 0.026271999999999993
v 0.067607 0.11899900000000001 0.172235
v -0.03999 0.11653700000000002 0.172235
v -0.03999 0.116537 0.026271999999999993
v 0.070069 0.226597 0.026271999999999986
v 0.070069 0.226597 0.172235
v 0.067607 0.11899900000000001 0.172235
v 0.067607 0.118999 0.026271999999999993
v 0.070069 0.226597 0.172235
v -0.037528 0.224134 0.172235
v -0.03999 0.11653700000000002 0.172235
v 0.067607 0.11899900000000001 0.172235
v -0.786203 1.082073 0.026271999999999934
v -0.786203 1.082073 0.17223499999999994
v -0.78865 0.975256 0.17223499999999994
v -0.78865 0.975256 0.02627199999999994
v -0.786203 1.082073 0.17223499999999994
v -0.893022 1.079628 0.17223499999999994
v -0.895466 0.972811 0.17223499999999994
v -0.78865 0.975256 0.17223499999999994
v -0.794752 1.073523 0.39194299999999993
v -0.794752 1.073523 0.44701499999999994
v -0.796814 0.983419 0.44701499999999994
v -0.796814 0.983419 0.39194299999999993
v -0.794752 1.073523 0.44701499999999994
v -0.884857 1.071461 0.44701499999999994
v -0.886919 0.981356 0.44701499999999994
v -0.796814 0.983419 0.44701499999999994
v -0.025286 0.131897 0.165874
v -0.025285 0.13189800000000002 0.473017
v -0.02351 0.20944200000000002 0.473017
v -0.02351 0.209442 0.165874
v 0.054034 0.211216 0.165874
v 0.054035 0.21121700000000002 0.473017
v 0.05226 0.13367300000000001 0.473017
v 0.05226 0.133672 0.165874
v 0.054035 0.21121700000000002 0.473017
v -0.02351 0.20944200000000002 0.473017
v -0.025285 0.13189800000000002 0.473017
v 0.05226 0.13367300000000001 0.473017
v 0.061458 0.21798600000000004 0.391943
v 0.061458 0.21798600000000004 0.447015
v 0.059381 0.12722300000000003 0.447015
v 0.059381 0.12722300000000003 0.391943
v 0.061458 0.21798600000000004 0.447015
v -0.029304 0.21590800000000002 0.447015
v -0.031382 0.12514700000000004 0.447015
v 0.059381 0.12722300000000003 0.447015
v -0.802122 1.066801 0.16587399999999994
v -0.802121 1.066801 0.47301699999999997
v -0.803884 0.989819 0.47301699999999997
v -0.803884 0.989818 0.16587399999999994
v -0.802121 1.066801 0.47301699999999997
v -0.879106 1.065042 0.47301699999999997
v -0.880868 0.988058 0.47301699999999997
v -0.803884 0.989819 0.47301699999999997
v -0.029639 0.034127000000000005 0.135628
v -0.958668 0.963447 0.13562899999999994
v -0.958672 0.96345 0.08321199999999994
v -0.029642 0.03413000000000001 0.083211
v 0.00418 0.06648100000000001 0.135628
v -0.925399 0.995772 0.13562799999999994
v -0.958668 0.963447 0.13562899999999994
v -0.029639 0.034127000000000005 0.135628
v 0.002182 0.002247000000000008 0.135628
v -0.994028 0.998865 0.13562899999999994
v -0.994031 0.998869 0.08321199999999994
v 0.002177 0.002251000000000005 0.083211
v 0.036051 0.034550000000000004 0.135628
v -0.960728 1.031159 0.13562799999999994
v -0.994028 0.998865 0.13562899999999994
v 0.002182 0.002247000000000008 0.135628
v -0.126521 0.29955999999999994 -0.514162
v -0.09871 0.32737099999999997 -0.519735
v 0.001695 0.22696599999999997 -0.519735
v -0.026116 0.19915499999999997 -0.514162
v -0.668381 0.897041 -0.519735
v -0.696192 0.86923 -0.514162
v -0.795943 0.968983 -0.5141620000000001
v -0.768132 0.996794 -0.5197350000000001
v -0.607581 1.1582859999999997 -2.011719
v -0.782927 0.982939 -0.11846700000000006
v -0.008556 0.208569 -0.11846700000000002
v 0.16679 0.38391599999999987 -2.011719
v -0.995234 0.999668 0.13446399999999994
v -0.825899 0.878716 0.13446399999999994
v -0.718702 0.985912 0.13446399999999994
v -0.79318 1.201723 0.13446399999999992
v -0.721427 1.129969 0.13446399999999994
v -0.117976 0.175201 0.134464
v 0.002975 0.005865000000000008 0.134464
v -0.010779 0.282398 0.13446399999999997
v 0.20503 0.20792 0.134464
v 0.133277 0.279673 0.13446399999999997
v 0.20503 0.20792 0.134464
v 0.002975 0.005865000000000008 0.134464
v 0.002975 0.005864999999999878 -2.004
v 0.505655 0.5085439999999999 -1.807868
v 0.505912 0.5088009999999998 -2.004229
v -0.572317 0.721792 0.21173999999999996
v -0.459271 0.560087 0.22658899999999998
v -0.447802 0.569632 0.21166199999999996
v -0.560864 0.731359 0.19681199999999993
v -0.688601 0.864012 0.21173999999999996
v -0.677148 0.873579 0.19681199999999993
v -0.817287 1.021524 0.21166099999999993
v -0.828757 1.011978 0.22658899999999996
v -0.572317 0.721792 0.36461799999999994
v -0.459271 0.560087 0.37946699999999994
v -0.447802 0.569632 0.36453899999999995
v -0.560864 0.731359 0.34968999999999995
v -0.688601 0.864012 0.36461799999999994
v -0.677148 0.873579 0.34968999999999995
v -0.817287 1.021524 0.36453899999999995
v -0.828757 1.011978 0.37946699999999994
v -0.136513 0.313028 0.21173999999999998
v 0.008984 0.180128 0.226589
v 0.018309 0.191774 0.211662
v -0.127208 0.32469 0.19681199999999996
v -0.281126 0.42638 0.21173999999999998
v -0.271821 0.438043 0.19681199999999996
v -0.44119 0.551943 0.21166099999999996
v -0.450516 0.540298 0.22658899999999998
v -0.136513 0.313028 0.364618
v 0.008984 0.18012800000000004 0.379467
v 0.018309 0.19177400000000003 0.364539
v -0.127208 0.32469 0.34969
v -0.281126 0.42638 0.364618
v -0.271821 0.438043 0.34969
v -0.44119 0.551943 0.36453899999999995
v -0.450516 0.540298 0.37946699999999994
v -0.492298 1.5026039999999998 -2.004229
v -0.995234 0.9996679999999999 -2.004
v -0.492555 1.502347 -1.807868
v -0.79318 1.201723 0.13446399999999992
v -0.995234 0.999668 0.13446399999999994
v -0.612949 0.952474 -0.45452300000000007
v -0.668381 0.897041 -0.519735
v -0.768132 0.996794 -0.5197350000000001
v -0.7127 1.052225 -0.45452300000000007
v -0.590507 0.974916 -0.3853500000000001
v -0.690257 1.074669 -0.38534900000000005
v -0.570132 0.918967 -0.24130500000000005
v -0.73835 1.026575 0.0034519999999999373
v -0.478929 0.801659 -0.13679900000000006
v -0.341289 0.654463 -0.09854700000000004
v 0.031477 0.256748 0.0034519999999999846
v -0.194093 0.516822 -0.13679900000000003
v -0.770961 0.993964 0.09470499999999994
v -0.076784 0.425618 -0.24130500000000002
v -0.001133 0.224137 0.09470499999999998
v 0.079571 0.304842 -0.385349
v -0.033645 0.186227 0.131585
v -0.020835 0.405245 -0.385349
v -0.805743 0.958323 0.13158499999999995
v -0.043278 0.38280299999999995 -0.454523
v -0.85163 0.91546 0.13178799999999993
v -0.075048 0.138878 0.131789
v 0.057127 0.2823979999999999 -0.454523
v -0.09871 0.32737099999999997 -0.519735
v 0.001695 0.22696599999999997 -0.519735
v -0.260645 0.45027 -0.17341300000000004
v -0.401775 0.593977 -0.13264300000000004
v -0.341289 0.654463 -0.09854700000000004
v -0.194093 0.516822 -0.13679900000000003
v -0.159912 0.34249 -0.284304
v -0.076784 0.425618 -0.24130500000000002
v -0.020835 0.405245 -0.385349
v -0.126521 0.29955999999999994 -0.514162
v -0.09871 0.32737099999999997 -0.519735
v -0.043278 0.38280299999999995 -0.454523
v -0.478929 0.801659 -0.13679900000000006
v -0.341289 0.654463 -0.09854700000000004
v -0.401775 0.593977 -0.13264300000000004
v -0.545481 0.735106 -0.17341300000000007
v -0.570132 0.918967 -0.24130500000000005
v -0.65326 0.835838 -0.28430500000000003
v -0.590507 0.974916 -0.3853500000000001
v -0.696192 0.86923 -0.514162
v -0.668381 0.897041 -0.519735
v -0.612949 0.952474 -0.45452300000000007
v -0.718702 0.985912 0.13446399999999994
v -0.825899 0.878716 0.13446399999999994
v -0.594095 1.1105199999999997 -2.004229
v -0.418129 1.286486 -1.807868
v -0.417769 1.2868459999999997 -2.004229
v -0.721427 1.129969 0.13446399999999994
v -0.420802 1.430593 -1.807868
v -0.420545 1.4308499999999997 -2.004229
v -0.492555 1.502347 -1.807868
v -0.79318 1.201723 0.13446399999999992
v -0.492298 1.5026039999999998 -2.004229
v 0.113828 0.4070049999999999 -2.004229
v -0.117976 0.175201 0.134464
v -0.010779 0.282398 0.13446399999999997
v 0.289793 0.5829709999999999 -1.807868
v 0.290154 0.5833309999999999 -2.004229
v 0.133277 0.279673 0.13446399999999997
v 0.433902 0.5802969999999998 -1.807868
v 0.434158 0.5805549999999999 -2.004229
v 0.505655 0.5085439999999999 -1.807868
v 0.20503 0.20792 0.134464
v 0.505912 0.5088009999999998 -2.004229
v -2 4.837354856632045E-18 0.079
v -2 -1 0.07900000000000006
v -1 -1 0.07900000000000006
v -1 1 0.07899999999999995
v -2 1 0.07899999999999995
v -1 4.837354856632045E-18 0.079
v 0 -1 0.07900000000000006
v 0 4.837354856632045E-18 0.079
vt 0.139787 0.259439
vt 0.139780 0.210561
vt 0.143938 0.210613
vt 0.139827 0.156355
vt 0.143871 0.156407
vt 0.143938 0.210613
vt 0.143938 0.210613
vt 0.139780 0.210561
vt 0.139827 0.156355
vt 0.118695 0.259184
vt 0.118842 0.210344
vt 0.122803 0.210381
vt 0.119692 0.156209
vt 0.123714 0.156266
vt 0.122803 0.210381
vt 0.122803 0.210381
vt 0.118842 0.210344
vt 0.119692 0.156209
vt 0.742085 0.167140
vt 0.742085 0.148514
vt 0.766448 0.148514
vt 0.766448 0.148514
vt 0.766448 0.167140
vt 0.742085 0.167140
vt 0.717138 0.138179
vt 0.717138 0.037085
vt 0.742239 0.037085
vt 0.742239 0.037085
vt 0.742239 0.138179
vt 0.717138 0.138179
vt 0.742085 0.167140
vt 0.742085 0.148514
vt 0.766448 0.148514
vt 0.766448 0.148514
vt 0.766448 0.167140
vt 0.742085 0.167140
vt 0.717138 0.138179
vt 0.717138 0.037085
vt 0.742239 0.037085
vt 0.742239 0.037085
vt 0.742239 0.138179
vt 0.717138 0.138179
vt 0.139787 0.259439
vt 0.139780 0.210561
vt 0.143938 0.210613
vt 0.139827 0.156355
vt 0.143871 0.156407
vt 0.143938 0.210613
vt 0.143938 0.210613
vt 0.139780 0.210561
vt 0.139827 0.156355
vt 0.118695 0.259184
vt 0.118842 0.210344
vt 0.122803 0.210381
vt 0.119692 0.156209
vt 0.123714 0.156266
vt 0.122803 0.210381
vt 0.122803 0.210381
vt 0.118842 0.210344
vt 0.119692 0.156209
vt 0.135719 0.259285
vt 0.134975 0.311573
vt 0.131426 0.311633
vt 0.131585 0.259304
vt 0.135719 0.259285
vt 0.135848 0.210611
vt 0.135719 0.259285
vt 0.131811 0.210581
vt 0.135848 0.210611
vt 0.135848 0.210611
vt 0.131878 0.156465
vt 0.135932 0.156513
vt 0.135848 0.210611
vt 0.114906 0.259045
vt 0.114519 0.311298
vt 0.110541 0.311306
vt 0.110925 0.259037
vt 0.114906 0.259045
vt 0.115068 0.210400
vt 0.114906 0.259045
vt 0.111095 0.210346
vt 0.115068 0.210400
vt 0.115068 0.210400
vt 0.111888 0.156283
vt 0.115879 0.156368
vt 0.115068 0.210400
vt 0.717721 0.167140
vt 0.717721 0.148514
vt 0.742085 0.148514
vt 0.742085 0.167140
vt 0.717721 0.167140
vt 0.767792 0.138179
vt 0.767792 0.037085
vt 0.792900 0.037085
vt 0.792900 0.138179
vt 0.767792 0.138179
vt 0.694253 0.030532
vt 0.694253 0.013395
vt 0.719550 0.013395
vt 0.719550 0.013395
vt 0.719550 0.030532
vt 0.770143 0.030532
vt 0.770143 0.013395
vt 0.795440 0.013395
vt 0.795440 0.030532
vt 0.770143 0.030532
vt 0.744846 0.030532
vt 0.744846 0.013395
vt 0.770143 0.013395
vt 0.770143 0.030532
vt 0.744846 0.030532
vt 0.717721 0.167140
vt 0.717721 0.148514
vt 0.742085 0.148514
vt 0.742085 0.167140
vt 0.717721 0.167140
vt 0.765387 0.167857
vt 0.765387 0.148986
vt 0.789683 0.148986
vt 0.789683 0.167857
vt 0.765387 0.167857
vt 0.740784 0.167857
vt 0.740784 0.148986
vt 0.765387 0.148986
vt 0.765387 0.167857
vt 0.740784 0.167857
vt 0.716493 0.167857
vt 0.716493 0.148986
vt 0.740784 0.148986
vt 0.740784 0.167857
vt 0.716493 0.167857
vt 0.768200 0.029146
vt 0.768200 0.013410
vt 0.793428 0.013410
vt 0.793428 0.029146
vt 0.768200 0.029146
vt 0.742592 0.029146
vt 0.742592 0.013410
vt 0.768200 0.013410
vt 0.768200 0.029146
vt 0.742592 0.029146
vt 0.717371 0.029146
vt 0.717371 0.013410
vt 0.742592 0.013410
vt 0.742592 0.029146
vt 0.717371 0.029146
vt 0.767792 0.138179
vt 0.767792 0.037085
vt 0.792900 0.037085
vt 0.792900 0.138179
vt 0.767792 0.138179
vt 0.694253 0.030532
vt 0.694253 0.013395
vt 0.719550 0.013395
vt 0.719550 0.013395
vt 0.719550 0.030532
vt 0.770143 0.030532
vt 0.770143 0.013395
vt 0.795440 0.013395
vt 0.795440 0.030532
vt 0.770143 0.030532
vt 0.744846 0.030532
vt 0.744846 0.013395
vt 0.770143 0.013395
vt 0.770143 0.030532
vt 0.744846 0.030532
vt 0.768670 0.137636
vt 0.768670 0.035073
vt 0.794085 0.035073
vt 0.794085 0.137636
vt 0.768670 0.137636
vt 0.743255 0.137636
vt 0.743255 0.035073
vt 0.768670 0.035073
vt 0.768670 0.137636
vt 0.743255 0.137636
vt 0.717839 0.137636
vt 0.717839 0.035073
vt 0.743255 0.035073
vt 0.743255 0.137636
vt 0.717839 0.137636
vt 0.135719 0.259285
vt 0.134975 0.311573
vt 0.131426 0.311633
vt 0.131585 0.259304
vt 0.135719 0.259285
vt 0.135848 0.210611
vt 0.135719 0.259285
vt 0.131811 0.210581
vt 0.135848 0.210611
vt 0.135848 0.210611
vt 0.131878 0.156465
vt 0.135932 0.156513
vt 0.135848 0.210611
vt 0.114906 0.259045
vt 0.114519 0.311298
vt 0.110541 0.311306
vt 0.110925 0.259037
vt 0.114906 0.259045
vt 0.115068 0.210400
vt 0.114906 0.259045
vt 0.111095 0.210346
vt 0.115068 0.210400
vt 0.115068 0.210400
vt 0.111888 0.156283
vt 0.115879 0.156368
vt 0.115068 0.210400
vt 0.141003 0.311842
vt 0.144051 0.259518
vt 0.147989 0.259530
vt 0.144362 0.311787
vt 0.141003 0.311842
vt 0.147808 0.210762
vt 0.144051 0.259518
vt 0.143871 0.156407
vt 0.147671 0.156665
vt 0.143938 0.210613
vt 0.144051 0.259518
vt 0.137885 0.311795
vt 0.139787 0.259439
vt 0.144051 0.259518
vt 0.141003 0.311842
vt 0.137885 0.311795
vt 0.143938 0.210613
vt 0.139787 0.259439
vt 0.122249 0.311544
vt 0.122687 0.259201
vt 0.126475 0.259099
vt 0.126019 0.311320
vt 0.122249 0.311544
vt 0.126572 0.210542
vt 0.122687 0.259201
vt 0.123714 0.156266
vt 0.127512 0.156568
vt 0.122803 0.210381
vt 0.122687 0.259201
vt 0.118285 0.311528
vt 0.118695 0.259184
vt 0.122687 0.259201
vt 0.122249 0.311544
vt 0.118285 0.311528
vt 0.122803 0.210381
vt 0.118695 0.259184
vt 0.141003 0.311842
vt 0.144051 0.259518
vt 0.147989 0.259530
vt 0.144362 0.311787
vt 0.141003 0.311842
vt 0.147808 0.210762
vt 0.144051 0.259518
vt 0.143871 0.156407
vt 0.147671 0.156665
vt 0.143938 0.210613
vt 0.144051 0.259518
vt 0.137885 0.311795
vt 0.139787 0.259439
vt 0.144051 0.259518
vt 0.141003 0.311842
vt 0.137885 0.311795
vt 0.143938 0.210613
vt 0.139787 0.259439
vt 0.122249 0.311544
vt 0.122687 0.259201
vt 0.126475 0.259099
vt 0.126019 0.311320
vt 0.122249 0.311544
vt 0.126572 0.210542
vt 0.122687 0.259201
vt 0.123714 0.156266
vt 0.127512 0.156568
vt 0.122803 0.210381
vt 0.122687 0.259201
vt 0.118285 0.311528
vt 0.118695 0.259184
vt 0.122687 0.259201
vt 0.122249 0.311544
vt 0.118285 0.311528
vt 0.122803 0.210381
vt 0.118695 0.259184
vt 0.693357 0.167140
vt 0.693357 0.148514
vt 0.717721 0.148514
vt 0.717721 0.167140
vt 0.766448 0.167140
vt 0.766448 0.148514
vt 0.790813 0.148514
vt 0.790813 0.167140
vt 0.414922 0.095899
vt 0.442852 0.067970
vt 0.470781 0.095899
vt 0.442852 0.123829
vt 0.692459 0.138179
vt 0.692459 0.037085
vt 0.717138 0.037085
vt 0.717138 0.138179
vt 0.742239 0.138179
vt 0.742239 0.037085
vt 0.767792 0.037085
vt 0.767792 0.138179
vt 0.514823 0.103207
vt 0.534951 0.083078
vt 0.555080 0.103207
vt 0.534951 0.123335
vt 0.719550 0.030532
vt 0.719550 0.013395
vt 0.744846 0.013395
vt 0.744846 0.030532
vt 0.362079 0.087299
vt 0.385639 0.063740
vt 0.409199 0.087299
vt 0.385639 0.110859
vt 0.693357 0.167140
vt 0.693357 0.148514
vt 0.717721 0.148514
vt 0.717721 0.167140
vt 0.766448 0.167140
vt 0.766448 0.148514
vt 0.790813 0.148514
vt 0.790813 0.167140
vt 0.414922 0.095899
vt 0.442852 0.067970
vt 0.470781 0.095899
vt 0.442852 0.123829
vt 0.692499 0.167857
vt 0.692499 0.148986
vt 0.716493 0.148986
vt 0.716493 0.167857
vt 0.415009 0.096993
vt 0.442939 0.069064
vt 0.470869 0.096993
vt 0.442939 0.124923
vt 0.692513 0.029146
vt 0.692513 0.013410
vt 0.717371 0.013410
vt 0.717371 0.029146
vt 0.362698 0.087110
vt 0.385697 0.064111
vt 0.408696 0.087110
vt 0.385697 0.110109
vt 0.692459 0.138179
vt 0.692459 0.037085
vt 0.717138 0.037085
vt 0.717138 0.138179
vt 0.742239 0.138179
vt 0.742239 0.037085
vt 0.767792 0.037085
vt 0.767792 0.138179
vt 0.514823 0.103207
vt 0.534951 0.083078
vt 0.555080 0.103207
vt 0.534951 0.123335
vt 0.719550 0.030532
vt 0.719550 0.013395
vt 0.744846 0.013395
vt 0.744846 0.030532
vt 0.362079 0.087299
vt 0.385639 0.063740
vt 0.409199 0.087299
vt 0.385639 0.110859
vt 0.692424 0.137636
vt 0.692424 0.035073
vt 0.717839 0.035073
vt 0.717839 0.137636
vt 0.511822 0.104131
vt 0.535382 0.080572
vt 0.558941 0.104131
vt 0.535382 0.127691
vt 0.665290 0.033490
vt 0.271639 0.033531
vt 0.271731 0.013572
vt 0.665524 0.013571
vt 0.665365 0.051184
vt 0.271746 0.051103
vt 0.271639 0.033531
vt 0.665290 0.033490
vt 0.665290 0.033490
vt 0.271639 0.033531
vt 0.271731 0.013572
vt 0.665524 0.013571
vt 0.665365 0.051184
vt 0.271746 0.051103
vt 0.271639 0.033531
vt 0.665290 0.033490
vt 0.207528 0.253730
vt 0.207528 0.319093
vt 0.236537 0.319093
vt 0.236537 0.253730
vt 0.042937 0.319093
vt 0.042937 0.253730
vt 0.014116 0.253730
vt 0.014116 0.319093
vt 0.107333 0.973322
vt 0.107333 0.334145
vt 0.322228 0.334145
vt 0.322228 0.973322
vt 0.272041 0.034001
vt 0.352721 0.047449
vt 0.352721 0.107036
vt 0.272041 0.146317
vt 0.311926 0.146317
vt 0.584418 0.047450
vt 0.665098 0.034002
vt 0.584418 0.107037
vt 0.665098 0.146317
vt 0.625213 0.146317
vt 0.467454 0.992571
vt 0.561366 0.992571
vt 0.745480 0.283329
vt 0.497482 0.333164
vt 0.508115 0.283329
vt 0.139787 0.259439
vt 0.137885 0.311795
vt 0.134975 0.311573
vt 0.135719 0.259285
vt 0.139780 0.210561
vt 0.135848 0.210611
vt 0.135932 0.156513
vt 0.139827 0.156355
vt 0.118695 0.259184
vt 0.118285 0.311528
vt 0.114519 0.311298
vt 0.114906 0.259045
vt 0.118842 0.210344
vt 0.115068 0.210400
vt 0.115879 0.156368
vt 0.119692 0.156209
vt 0.139787 0.259439
vt 0.137885 0.311795
vt 0.134975 0.311573
vt 0.135719 0.259285
vt 0.139780 0.210561
vt 0.135848 0.210611
vt 0.135932 0.156513
vt 0.139827 0.156355
vt 0.118695 0.259184
vt 0.118285 0.311528
vt 0.114519 0.311298
vt 0.114906 0.259045
vt 0.118842 0.210344
vt 0.115068 0.210400
vt 0.115879 0.156368
vt 0.119692 0.156209
vt 0.808009 0.991510
vt 0.576404 0.991510
vt 0.818245 0.941601
vt 0.846784 0.279642
vt 0.755203 0.279642
vt 0.042937 0.254438
vt 0.042937 0.319093
vt 0.014116 0.319093
vt 0.014116 0.254438
vt 0.042937 0.237704
vt 0.014116 0.237704
vt 0.053962 0.187572
vt 0.014116 0.102369
vt 0.084085 0.151165
vt 0.125232 0.137839
vt 0.236537 0.102369
vt 0.166380 0.151165
vt 0.014116 0.065554
vt 0.196502 0.187572
vt 0.236537 0.065554
vt 0.236537 0.237704
vt 0.237317 0.045457
vt 0.207528 0.237704
vt 0.014240 0.045457
vt 0.207528 0.254438
vt 0.013804 0.011130
vt 0.238176 0.011130
vt 0.236537 0.254438
vt 0.207528 0.319093
vt 0.236537 0.319093
vt 0.549668 0.145840
vt 0.603542 0.137955
vt 0.618071 0.177996
vt 0.561225 0.191163
vt 0.486627 0.137859
vt 0.497902 0.194654
vt 0.429150 0.195551
vt 0.381557 0.117467
vt 0.376152 0.135000
vt 0.400149 0.175713
vt 0.560966 0.190824
vt 0.618071 0.177996
vt 0.603542 0.137955
vt 0.549500 0.145479
vt 0.497633 0.194184
vt 0.486475 0.137363
vt 0.428878 0.194937
vt 0.381449 0.116753
vt 0.376007 0.134274
vt 0.399917 0.175038
vt 0.928496 0.279642
vt 0.989125 0.279642
vt 0.983064 0.991510
vt 0.893607 0.940349
vt 0.898671 0.991510
vt 0.880816 0.279642
vt 0.848574 0.943661
vt 0.846815 0.991510
vt 0.818245 0.941601
vt 0.846784 0.279642
vt 0.808009 0.991510
vt 0.328747 0.283329
vt 0.332763 0.992571
vt 0.383560 0.992571
vt 0.420328 0.334212
vt 0.415335 0.283329
vt 0.432504 0.992571
vt 0.466438 0.331041
vt 0.468453 0.283329
vt 0.497482 0.333164
vt 0.467454 0.992571
vt 0.508115 0.283329
vt 0.000000 0.500000
vt 0.000000 0.000000
vt 0.500000 0.000000
vt 0.500000 1.000000
vt 0.000000 1.000000
vt 0.500000 0.500000
vt 1.000000 0.000000
vt 1.000000 0.500000
vn -0.015189 0.019918000000000064 0.999686
vn 0.260195 0.18305800000000005 0.948045
vn -0.70478 -0.635672 0.3149700000000001
vn -0.183824 -0.26900799999999997 0.945433
vn -0.704111 -0.635075 -0.31765999999999994
vn -0.70478 -0.635672 0.3149700000000001
vn -0.70478 -0.635672 0.3149700000000001
vn 0.260195 0.18305800000000005 0.948045
vn -0.183824 -0.26900799999999997 0.945433
vn -0.015188 0.01991900000000006 0.999686
vn 0.260191 0.18305500000000005 0.948046
vn -0.70478 -0.635672 0.3149700000000001
vn -0.183825 -0.26900899999999994 0.945432
vn -0.70411 -0.635074 -0.3176629999999999
vn -0.70478 -0.635672 0.3149700000000001
vn -0.70478 -0.635672 0.3149700000000001
vn 0.260191 0.18305500000000005 0.948046
vn -0.183825 -0.26900899999999994 0.945432
vn -0.459236 0.888315 -5.439360606922905E-17
vn -0.813319 0.420447 0.402164
vn 0.321277 0.665666 0.67355
vn 0.321277 0.665666 0.67355
vn 0.900598 0.434654 -2.6614881491829682E-17
vn -0.459236 0.888315 -5.439360606922905E-17
vn -0.45924 0.888312 -1.0000000000543934E-06
vn -0.813318 0.420452 0.402162
vn 0.321271 0.66567 0.673549
vn 0.321271 0.66567 0.673549
vn 0.900593 0.434664 -3.0000000000266155E-06
vn -0.45924 0.888312 -1.0000000000543934E-06
vn -0.459233 0.888316 -5.439366730156901E-17
vn -0.813314 0.420459 0.402162
vn 0.321276 0.665668 0.673548
vn 0.321276 0.665668 0.673548
vn 0.900593 0.434664 -2.6615493815229256E-17
vn -0.459233 0.888316 -5.439366730156901E-17
vn -0.459227 0.888319 -1.0000000000543939E-06
vn -0.813311 0.420466 0.402161
vn 0.321279 0.665668 0.673547
vn 0.321279 0.665668 0.673547
vn 0.900594 0.434662 -3.0000000000266155E-06
vn -0.459227 0.888319 -1.0000000000543939E-06
vn -0.019053 0.01631400000000006 0.999685
vn 0.213768 0.23552000000000006 0.948068
vn -0.548808 -0.774574 0.31439700000000004
vn -0.121264 -0.3035169999999999 0.945078
vn -0.548139 -0.773638 -0.31784899999999994
vn -0.548808 -0.774574 0.31439700000000004
vn -0.548808 -0.774574 0.31439700000000004
vn 0.213768 0.23552000000000006 0.948068
vn -0.121264 -0.3035169999999999 0.945078
vn -0.019051 0.01631800000000006 0.999685
vn 0.213766 0.23551600000000006 0.94807
vn -0.548808 -0.774573 0.31439900000000004
vn -0.121265 -0.30351799999999995 0.945078
vn -0.548139 -0.773637 -0.31785199999999997
vn -0.548808 -0.774573 0.31439900000000004
vn -0.548808 -0.774573 0.31439900000000004
vn 0.213766 0.23551600000000006 0.94807
vn -0.121265 -0.30351799999999995 0.945078
vn 0.804858 0.593464 0.0021079999999999636
vn 0.763076 0.56266 0.31800799999999996
vn 0.302628 0.12480699999999995 -0.944902
vn 0.015197 -0.019909000000000062 -0.999686
vn 0.804858 0.593464 0.0021079999999999636
vn 0.70477 0.635666 -0.31500500000000003
vn 0.804858 0.593464 0.0021079999999999636
vn -0.260221 -0.18307900000000005 -0.948033
vn 0.70477 0.635666 -0.31500500000000003
vn 0.70477 0.635666 -0.31500500000000003
vn 0.183769 0.26896799999999993 -0.945455
vn 0.704107 0.635073 0.3176729999999999
vn 0.70477 0.635666 -0.31500500000000003
vn 0.804858 0.593464 0.0021089999999999638
vn 0.763077 0.562661 0.3180049999999999
vn 0.302628 0.12480699999999995 -0.944902
vn 0.015198 -0.01990800000000006 -0.999686
vn 0.804858 0.593464 0.0021089999999999638
vn 0.704771 0.635667 -0.31500000000000006
vn 0.804858 0.593464 0.0021089999999999638
vn -0.260219 -0.18307600000000004 -0.948034
vn 0.704771 0.635667 -0.31500000000000006
vn 0.704771 0.635667 -0.31500000000000006
vn 0.183771 0.26897099999999996 -0.945454
vn 0.704106 0.635071 0.31767899999999993
vn 0.704771 0.635667 -0.31500000000000006
vn -0.900587 -0.434675 2.6616167370968787E-17
vn -0.32127 -0.665672 0.673548
vn -0.813319 0.420447 0.402164
vn -0.459236 0.888315 -5.439360606922905E-17
vn -0.900587 -0.434675 2.6616167370968787E-17
vn 0.459226 -0.888319 -9.99999999945606E-07
vn 0.813315 -0.420458 0.402163
vn -0.321282 -0.665667 0.673547
vn -0.900593 -0.434664 1.0000000000266154E-06
vn 0.459226 -0.888319 -9.99999999945606E-07
vn -0.459241 0.888312 -5.439342237220918E-17
vn -0.813317 0.420454 0.402161
vn 0.321271 0.665667 0.673552
vn 0.321271 0.665667 0.673552
vn 0.900597 0.434655 -2.6614942724169642E-17
vn -0.900593 -0.434664 2.6615493815229256E-17
vn -0.321276 -0.665669 0.673548
vn -0.813317 0.420454 0.402161
vn -0.459241 0.888312 -5.439342237220918E-17
vn -0.900593 -0.434664 2.6615493815229256E-17
vn 0.459231 -0.888317 5.4393728533908967E-17
vn 0.813311 -0.420466 0.402161
vn -0.321276 -0.665669 0.673548
vn -0.900593 -0.434664 2.6615493815229256E-17
vn 0.459231 -0.888317 5.4393728533908967E-17
vn -0.900595 -0.434659 2.661518765352947E-17
vn -0.321281 -0.665666 0.673548
vn -0.813314 0.420459 0.402162
vn -0.459233 0.888316 -5.439366730156901E-17
vn -0.900595 -0.434659 2.661518765352947E-17
vn -0.459238 0.888313 -5.439348360454914E-17
vn -0.813317 0.420453 0.402162
vn 0.321273 0.665666 0.673552
vn 0.900599 0.43465 -2.6614636562469853E-17
vn -0.459238 0.888313 -5.439348360454914E-17
vn -0.900591 -0.434667 2.661567751224913E-17
vn -0.321272 -0.66567 0.673549
vn -0.813317 0.420453 0.402162
vn -0.459238 0.888313 -5.439348360454914E-17
vn -0.900591 -0.434667 2.661567751224913E-17
vn 0.459234 -0.888315 5.439360606922905E-17
vn 0.813311 -0.420468 0.402159
vn -0.321272 -0.66567 0.673549
vn -0.900591 -0.434667 2.661567751224913E-17
vn 0.459234 -0.888315 5.439360606922905E-17
vn -0.459231 0.888317 -5.4393728533908967E-17
vn -0.813315 0.420458 0.402163
vn 0.321277 0.665668 0.673548
vn 0.900594 0.434662 -2.6615371350549342E-17
vn -0.459231 0.888317 -5.4393728533908967E-17
vn -0.900592 -0.434666 2.661561627990917E-17
vn -0.321265 -0.665671 0.673551
vn -0.813315 0.420458 0.402163
vn -0.459231 0.888317 -5.4393728533908967E-17
vn -0.900592 -0.434666 2.661561627990917E-17
vn 0.459246 -0.888309 5.439323867518931E-17
vn 0.813317 -0.420455 0.40216
vn -0.321265 -0.665671 0.673551
vn -0.900592 -0.434666 2.661561627990917E-17
vn 0.459246 -0.888309 5.439323867518931E-17
vn 0.459235 -0.888315 2.0000000000543934E-06
vn 0.813316 -0.420456 0.402162
vn -0.321275 -0.665665 0.673552
vn -0.900598 -0.434653 2.0000000000266145E-06
vn 0.459235 -0.888315 2.0000000000543934E-06
vn -0.459239 0.888313 -5.439348360454914E-17
vn -0.813314 0.420461 0.40216
vn 0.32127 0.665669 0.673551
vn 0.32127 0.665669 0.673551
vn 0.900593 0.434663 -2.6615432582889302E-17
vn -0.900597 -0.434655 2.6614942724169642E-17
vn -0.321283 -0.665665 0.673548
vn -0.813314 0.420461 0.40216
vn -0.459239 0.888313 -5.439348360454914E-17
vn -0.900597 -0.434655 2.6614942724169642E-17
vn 0.459225 -0.88832 5.439391223092884E-17
vn 0.813313 -0.42046 0.402163
vn -0.321283 -0.665665 0.673548
vn -0.900597 -0.434655 2.6614942724169642E-17
vn 0.459225 -0.88832 5.439391223092884E-17
vn -0.459217 0.888324 -1.000000000054394E-06
vn -0.813311 0.420462 0.402165
vn 0.321291 0.665664 0.673546
vn 0.900599 0.434652 -1.0000000000266148E-06
vn -0.459217 0.888324 -1.000000000054394E-06
vn -0.900596 -0.434656 1.000000000026615E-06
vn -0.32129 -0.665664 0.673546
vn -0.813311 0.420462 0.402165
vn -0.459217 0.888324 -1.000000000054394E-06
vn -0.900596 -0.434656 1.000000000026615E-06
vn 0.459215 -0.888325 1.000000000054394E-06
vn 0.81331 -0.420467 0.402163
vn -0.32129 -0.665664 0.673546
vn -0.900596 -0.434656 1.000000000026615E-06
vn 0.459215 -0.888325 1.000000000054394E-06
vn 0.655559 0.755142 0.0016239999999999538
vn 0.621597 0.71602 0.3176979999999999
vn 0.267387 0.18713599999999994 -0.945243
vn 0.019048 -0.016315000000000062 -0.999685
vn 0.655559 0.755142 0.0016239999999999538
vn 0.5488 0.774568 -0.31442600000000004
vn 0.655559 0.755142 0.0016239999999999538
vn -0.21379 -0.23554400000000006 -0.948057
vn 0.5488 0.774568 -0.31442600000000004
vn 0.5488 0.774568 -0.31442600000000004
vn 0.121235 0.3034879999999999 -0.945091
vn 0.548138 0.773635 0.31785699999999995
vn 0.5488 0.774568 -0.31442600000000004
vn 0.655559 0.755142 0.0016259999999999539
vn 0.621598 0.716021 0.31769499999999995
vn 0.267387 0.18713599999999994 -0.945243
vn 0.019051 -0.016312000000000063 -0.999685
vn 0.655559 0.755142 0.0016259999999999539
vn 0.548801 0.774569 -0.31442100000000006
vn 0.655559 0.755142 0.0016259999999999539
vn -0.213787 -0.23554000000000005 -0.948059
vn 0.548801 0.774569 -0.31442100000000006
vn 0.548801 0.774569 -0.31442100000000006
vn 0.121237 0.30349199999999993 -0.94509
vn 0.548138 0.773633 0.31786299999999995
vn 0.548801 0.774569 -0.31442100000000006
vn -0.763076 -0.562659 -0.31800999999999996
vn -0.804859 -0.593462 -0.0020759999999999637
vn 0.015197 -0.019909000000000062 -0.999686
vn 0.302628 0.12480699999999995 -0.944902
vn -0.763076 -0.562659 -0.31800999999999996
vn -0.260221 -0.18307900000000005 -0.948033
vn -0.804859 -0.593462 -0.0020759999999999637
vn -0.704111 -0.635075 -0.31765999999999994
vn 0.183769 0.26896799999999993 -0.945455
vn -0.70478 -0.635672 0.3149700000000001
vn -0.804859 -0.593462 -0.0020759999999999637
vn -0.302581 -0.12476399999999994 0.944923
vn -0.015189 0.019918000000000064 0.999686
vn -0.804859 -0.593462 -0.0020759999999999637
vn -0.763076 -0.562659 -0.31800999999999996
vn -0.302581 -0.12476399999999994 0.944923
vn -0.70478 -0.635672 0.3149700000000001
vn -0.015189 0.019918000000000064 0.999686
vn -0.763075 -0.562659 -0.31801099999999993
vn -0.804859 -0.593462 -0.0020769999999999634
vn 0.015198 -0.01990800000000006 -0.999686
vn 0.302628 0.12480699999999995 -0.944902
vn -0.763075 -0.562659 -0.31801099999999993
vn -0.260219 -0.18307600000000004 -0.948034
vn -0.804859 -0.593462 -0.0020769999999999634
vn -0.70411 -0.635074 -0.3176629999999999
vn 0.183771 0.26897099999999996 -0.945454
vn -0.70478 -0.635672 0.3149700000000001
vn -0.804859 -0.593462 -0.0020769999999999634
vn -0.302582 -0.12476399999999994 0.944922
vn -0.015188 0.01991900000000006 0.999686
vn -0.804859 -0.593462 -0.0020769999999999634
vn -0.763075 -0.562659 -0.31801099999999993
vn -0.302582 -0.12476399999999994 0.944922
vn -0.70478 -0.635672 0.3149700000000001
vn -0.015188 0.01991900000000006 0.999686
vn -0.6216 -0.716024 -0.31768399999999997
vn -0.655563 -0.755139 -0.0015959999999999538
vn 0.019048 -0.016315000000000062 -0.999685
vn 0.267387 0.18713599999999994 -0.945243
vn -0.6216 -0.716024 -0.31768399999999997
vn -0.21379 -0.23554400000000006 -0.948057
vn -0.655563 -0.755139 -0.0015959999999999538
vn -0.548139 -0.773638 -0.31784899999999994
vn 0.121235 0.3034879999999999 -0.945091
vn -0.548808 -0.774574 0.31439700000000004
vn -0.655563 -0.755139 -0.0015959999999999538
vn -0.267367 -0.18710299999999994 0.945255
vn -0.019053 0.01631400000000006 0.999685
vn -0.655563 -0.755139 -0.0015959999999999538
vn -0.6216 -0.716024 -0.31768399999999997
vn -0.267367 -0.18710299999999994 0.945255
vn -0.548808 -0.774574 0.31439700000000004
vn -0.019053 0.01631400000000006 0.999685
vn -0.621598 -0.716024 -0.31768899999999994
vn -0.655563 -0.755139 -0.0015969999999999537
vn 0.019051 -0.016312000000000063 -0.999685
vn 0.267387 0.18713599999999994 -0.945243
vn -0.621598 -0.716024 -0.31768899999999994
vn -0.213787 -0.23554000000000005 -0.948059
vn -0.655563 -0.755139 -0.0015969999999999537
vn -0.548139 -0.773637 -0.31785199999999997
vn 0.121237 0.30349199999999993 -0.94509
vn -0.548808 -0.774573 0.31439900000000004
vn -0.655563 -0.755139 -0.0015969999999999537
vn -0.267366 -0.18710099999999993 0.945256
vn -0.019051 0.01631800000000006 0.999685
vn -0.655563 -0.755139 -0.0015969999999999537
vn -0.621598 -0.716024 -0.31768899999999994
vn -0.267366 -0.18710099999999993 0.945256
vn -0.548808 -0.774573 0.31439900000000004
vn -0.019051 0.01631800000000006 0.999685
vn 0.459237 -0.888314 5.43935448368891E-17
vn 0.813313 -0.420464 0.40216
vn -0.32127 -0.665672 0.673548
vn -0.900587 -0.434675 2.6616167370968787E-17
vn 0.900598 0.434654 -2.6614881491829682E-17
vn 0.321277 0.665666 0.67355
vn 0.813313 -0.420464 0.40216
vn 0.459237 -0.888314 5.43935448368891E-17
vn 0.321277 0.665666 0.67355
vn -0.813319 0.420447 0.402164
vn -0.32127 -0.665672 0.673548
vn 0.813313 -0.420464 0.40216
vn -0.900593 -0.434664 1.0000000000266154E-06
vn -0.321282 -0.665667 0.673547
vn -0.813318 0.420452 0.402162
vn -0.45924 0.888312 -1.0000000000543934E-06
vn 0.900593 0.434664 -3.0000000000266155E-06
vn 0.321271 0.66567 0.673549
vn 0.813315 -0.420458 0.402163
vn 0.459226 -0.888319 -9.99999999945606E-07
vn 0.321271 0.66567 0.673549
vn -0.813318 0.420452 0.402162
vn -0.321282 -0.665667 0.673547
vn 0.813315 -0.420458 0.402163
vn 0.900597 0.434655 -2.6614942724169642E-17
vn 0.321271 0.665667 0.673552
vn 0.813311 -0.420466 0.402161
vn 0.459231 -0.888317 5.4393728533908967E-17
vn 0.321271 0.665667 0.673552
vn -0.813317 0.420454 0.402161
vn -0.321276 -0.665669 0.673548
vn 0.813311 -0.420466 0.402161
vn 0.459227 -0.888319 5.439385099858888E-17
vn 0.813314 -0.420457 0.402164
vn -0.321281 -0.665666 0.673548
vn -0.900595 -0.434659 2.661518765352947E-17
vn 0.900593 0.434664 -2.6615493815229256E-17
vn 0.321276 0.665668 0.673548
vn 0.813314 -0.420457 0.402164
vn 0.459227 -0.888319 5.439385099858888E-17
vn 0.321276 0.665668 0.673548
vn -0.813314 0.420459 0.402162
vn -0.321281 -0.665666 0.673548
vn 0.813314 -0.420457 0.402164
vn 0.900599 0.43465 -2.6614636562469853E-17
vn 0.321273 0.665666 0.673552
vn 0.813311 -0.420468 0.402159
vn 0.459234 -0.888315 5.439360606922905E-17
vn 0.321273 0.665666 0.673552
vn -0.813317 0.420453 0.402162
vn -0.321272 -0.66567 0.673549
vn 0.813311 -0.420468 0.402159
vn 0.900594 0.434662 -2.6615371350549342E-17
vn 0.321277 0.665668 0.673548
vn 0.813317 -0.420455 0.40216
vn 0.459246 -0.888309 5.439323867518931E-17
vn 0.321277 0.665668 0.673548
vn -0.813315 0.420458 0.402163
vn -0.321265 -0.665671 0.673551
vn 0.813317 -0.420455 0.40216
vn -0.900598 -0.434653 2.0000000000266145E-06
vn -0.321275 -0.665665 0.673552
vn -0.813311 0.420466 0.402161
vn -0.459227 0.888319 -1.0000000000543939E-06
vn 0.900594 0.434662 -3.0000000000266155E-06
vn 0.321279 0.665668 0.673547
vn 0.813316 -0.420456 0.402162
vn 0.459235 -0.888315 2.0000000000543934E-06
vn 0.321279 0.665668 0.673547
vn -0.813311 0.420466 0.402161
vn -0.321275 -0.665665 0.673552
vn 0.813316 -0.420456 0.402162
vn 0.900593 0.434663 -2.6615432582889302E-17
vn 0.32127 0.665669 0.673551
vn 0.813313 -0.42046 0.402163
vn 0.459225 -0.88832 5.439391223092884E-17
vn 0.32127 0.665669 0.673551
vn -0.813314 0.420461 0.40216
vn -0.321283 -0.665665 0.673548
vn 0.813313 -0.42046 0.402163
vn 0.900599 0.434652 -1.0000000000266148E-06
vn 0.321291 0.665664 0.673546
vn 0.81331 -0.420467 0.402163
vn 0.459215 -0.888325 1.000000000054394E-06
vn 0.321291 0.665664 0.673546
vn -0.813311 0.420462 0.402165
vn -0.32129 -0.665664 0.673546
vn 0.81331 -0.420467 0.402163
vn -0.707217 -0.706996 6.000000000043291E-06
vn -0.707217 -0.706996 4.3291019420499104E-17
vn -0.707217 -0.706996 6.000000000043291E-06
vn -0.707217 -0.706996 6.000000000043291E-06
vn 4E-06 3.0000000000612325E-06 1
vn 2.5E-05 2.6000000000061232E-05 1
vn 4E-06 3.0000000000612325E-06 1
vn 4E-06 3.0000000000612325E-06 1
vn -0.707252 -0.706961 6.000000000043289E-06
vn -0.707252 -0.706962 4.3288937520940556E-17
vn -0.707252 -0.706961 6.000000000043289E-06
vn -0.707252 -0.706961 6.000000000043289E-06
vn -3E-06 -3.999999999938768E-06 1
vn 1.8E-05 1.9000000000061235E-05 1
vn -3E-06 -3.999999999938768E-06 1
vn -3E-06 -3.999999999938768E-06 1
vn -0.099195 -0.09919500000000006 -0.990111
vn 0.290445 0.29044499999999995 -0.911747
vn 0.091552 0.09155199999999994 -0.991583
vn -0.099195 -0.09919500000000006 -0.990111
vn 0.09155 0.09154999999999995 -0.991583
vn -0.0992 -0.09919900000000005 -0.990111
vn -0.099199 -0.09919800000000005 -0.990111
vn 0.290446 0.2904459999999999 -0.911747
vn 0.701118 0.701118 0.12986999999999996
vn 0.701118 0.701118 0.12986999999999996
vn 0.701118 0.701118 0.12986999999999996
vn 0.701118 0.701118 0.12986999999999996
vn 0 6.123233995736766E-17 1
vn 0 6.123233995736766E-17 1
vn 0 6.123233995736766E-17 1
vn 0 6.123233995736766E-17 1
vn 0 6.123233995736766E-17 1
vn 0 6.123233995736766E-17 1
vn 0 6.123233995736766E-17 1
vn 0 6.123233995736766E-17 1
vn 0 6.123233995736766E-17 1
vn 0 6.123233995736766E-17 1
vn 0.707106 -0.707107 4.329781621023438E-17
vn 0.707107 -0.707107 4.329781621023438E-17
vn 0.707106 -0.707107 4.329781621023438E-17
vn 0.707106 -0.707107 4.329781621023438E-17
vn 0.707106 -0.707107 1.0000000000432977E-06
vn -0.015189 0.019918000000000064 0.999686
vn -0.302581 -0.12476399999999994 0.944923
vn 0.763076 0.56266 0.31800799999999996
vn 0.804858 0.593464 0.0021079999999999636
vn 0.260195 0.18305800000000005 0.948045
vn 0.70477 0.635666 -0.31500500000000003
vn 0.704107 0.635073 0.3176729999999999
vn -0.183824 -0.26900799999999997 0.945433
vn -0.015188 0.01991900000000006 0.999686
vn -0.302582 -0.12476399999999994 0.944922
vn 0.763077 0.562661 0.3180049999999999
vn 0.804858 0.593464 0.0021089999999999638
vn 0.260191 0.18305500000000005 0.948046
vn 0.704771 0.635667 -0.31500000000000006
vn 0.704106 0.635071 0.31767899999999993
vn -0.183825 -0.26900899999999994 0.945432
vn -0.019053 0.01631400000000006 0.999685
vn -0.267367 -0.18710299999999994 0.945255
vn 0.621597 0.71602 0.3176979999999999
vn 0.655559 0.755142 0.0016239999999999538
vn 0.213768 0.23552000000000006 0.948068
vn 0.5488 0.774568 -0.31442600000000004
vn 0.548138 0.773635 0.31785699999999995
vn -0.121264 -0.3035169999999999 0.945078
vn -0.019051 0.01631800000000006 0.999685
vn -0.267366 -0.18710099999999993 0.945256
vn 0.621598 0.716021 0.31769499999999995
vn 0.655559 0.755142 0.0016259999999999539
vn 0.213766 0.23551600000000006 0.94807
vn 0.548801 0.774569 -0.31442100000000006
vn 0.548138 0.773633 0.31786299999999995
vn -0.121265 -0.30351799999999995 0.945078
vn -0.707106 0.707107 -2.0000000000432977E-06
vn -0.707107 0.707107 -4.329781621023438E-17
vn -0.707107 0.707107 -4.329781621023438E-17
vn -0.707107 0.707107 -4.329781621023438E-17
vn -0.707107 0.707107 -4.329781621023438E-17
vn 0.527329 0.527328 -0.66622
vn 0.09155 0.09154999999999995 -0.991583
vn 0.290446 0.2904459999999999 -0.911747
vn 0.592254 0.592251 -0.546328
vn 0.688175 0.688167 -0.22987300000000005
vn 0.706834 0.706929 -0.02524100000000004
vn 0.696626 0.6964 0.17245099999999994
vn 0.688366 0.688135 0.22939599999999993
vn 0.696856 0.696131 0.17260699999999995
vn 0.696617 0.696617 0.17160799999999996
vn 0.681222 0.681418 0.26759399999999994
vn 0.696132 0.696857 0.17259999999999995
vn 0.540532 0.540533 0.644709
vn 0.696396 0.696629 0.17245099999999994
vn 0.540533 0.540534 0.644707
vn 0.701303 0.701238 -0.12821600000000005
vn 0.222672 0.22267300000000007 0.949123
vn 0.701255 0.701275 -0.12828200000000006
vn 0.22267 0.22267100000000006 0.949124
vn 0.592249 0.592255 -0.546329
vn 0.002298 0.0022980000000000613 0.999995
vn 0.002299 0.002300000000000061 0.999995
vn 0.527325 0.527324 -0.666226
vn 0.290445 0.29044499999999995 -0.911747
vn 0.091552 0.09155199999999994 -0.991583
vn 0.020255 0.4695599999999999 -0.882668
vn 0.304045 0.21492699999999995 -0.928097
vn 0.215969 0.30305399999999993 -0.928179
vn -0.095266 0.544985 -0.833016
vn -0.398341 0.732798 -0.551662
vn -0.411863 0.708371 -0.573219
vn -0.640504 0.754737 -0.14186900000000005
vn -0.62796 0.769529 -0.11614900000000004
vn -0.707114 0.7071 1.0999999999956703E-05
vn -0.707121 0.707093 1.8999999999956704E-05
vn 0.471863 0.017307999999999945 -0.881502
vn 0.215969 0.30305399999999993 -0.928179
vn 0.304045 0.21492699999999995 -0.928097
vn 0.54474 -0.09497900000000005 -0.833209
vn 0.683007 -0.33990000000000004 -0.646505
vn 0.756546 -0.45962400000000003 -0.4651719999999999
vn 0.754741 -0.640498 -0.14187599999999997
vn 0.769531 -0.627958 -0.11614999999999996
vn 0.707107 -0.707106 5.000000000043298E-06
vn 0.707107 -0.707106 5.000000000043298E-06
vn 0.863289 -0.501596 0.05597200000000003
vn 0.707105 -0.707108 4.329787744257433E-17
vn 0.707106 -0.707107 4.329781621023438E-17
vn 0.953068 -0.295016 0.06802600000000002
vn 0.970763 -0.240038 0.0011500000000000147
vn 0.902754 0.381482 0.19876099999999997
vn 0.946079 0.313694 0.08081299999999998
vn 0.859829 0.51058 0.0017919999999999687
vn 0.702938 0.702934 0.10845399999999995
vn 0.690762 0.690744 0.21382199999999996
vn 0.707106 0.707106 0.0018489999999999566
vn -0.707107 0.707107 -4.329781621023438E-17
vn -0.707108 0.707105 -4.329769374555446E-17
vn -0.501594 0.863291 0.055971999999999945
vn -0.295012 0.953069 0.06802599999999995
vn -0.240036 0.970763 0.0011489999999999407
vn 0.381487 0.902752 0.19876099999999994
vn 0.313696 0.946078 0.08081399999999994
vn 0.510582 0.859827 0.0017939999999999473
vn 0.702936 0.702935 0.10845499999999995
vn 0.690751 0.690755 0.21382199999999996
vn 0.70711 0.707101 0.0018479999999999567
vn 0 6.123233995736766E-17 1
vn 0 6.123233995736766E-17 1
vn 0 6.123233995736766E-17 1
vn 0 6.123233995736766E-17 1
vn 0 6.123233995736766E-17 1
vn 0 6.123233995736766E-17 1
vn 0 6.123233995736766E-17 1
vn 0 6.123233995736766E-17 1
g 20 - Default
f 1/1/1 2/2/2 3/3/3
f 4/4/4 5/5/5 6/6/6
f 7/7/7 8/8/8 9/9/9
f 10/10/10 11/11/11 12/12/12
f 13/13/13 14/14/14 15/15/15
f 16/16/16 17/17/17 18/18/18
f 19/19/19 20/20/20 21/21/21
f 22/22/22 23/23/23 24/24/24
f 25/25/25 26/26/26 27/27/27
f 28/28/28 29/29/29 30/30/30
f 31/31/31 32/32/32 33/33/33
f 34/34/34 35/35/35 36/36/36
f 37/37/37 38/38/38 39/39/39
f 40/40/40 41/41/41 42/42/42
f 43/43/43 44/44/44 45/45/45
f 46/46/46 47/47/47 48/48/48
f 49/49/49 50/50/50 51/51/51
f 52/52/52 53/53/53 54/54/54
f 55/55/55 56/56/56 57/57/57
f 58/58/58 59/59/59 60/60/60
f 61/61/61 62/62/62 63/63/63
f 63/63/63 64/64/64 65/65/65
f 66/66/66 67/67/67 64/64/64
f 64/64/64 68/68/68 69/69/69
f 70/70/70 68/68/68 71/71/71
f 71/71/71 72/72/72 73/73/73
f 74/74/74 75/75/75 76/76/76
f 76/76/76 77/77/77 78/78/78
f 79/79/79 80/80/80 77/77/77
f 77/77/77 81/81/81 82/82/82
f 83/83/83 81/81/81 84/84/84
f 84/84/84 85/85/85 86/86/86
f 87/87/87 88/88/88 89/89/89
f 89/89/89 90/90/90 91/91/91
f 92/92/92 93/93/93 94/94/94
f 94/94/94 95/95/95 96/96/96
f 97/97/97 98/98/98 99/99/99
f 100/100/100 101/101/101 97/97/97
f 102/102/102 103/103/103 104/104/104
f 104/104/104 105/105/105 106/106/106
f 107/107/107 108/108/108 109/109/109
f 109/109/109 110/110/110 111/111/111
f 112/112/112 113/113/113 114/114/114
f 114/114/114 115/115/115 116/116/116
f 117/117/117 118/118/118 119/119/119
f 119/119/119 120/120/120 121/121/121
f 122/122/122 123/123/123 124/124/124
f 124/124/124 125/125/125 126/126/126
f 127/127/127 128/128/128 129/129/129
f 129/129/129 130/130/130 131/131/131
f 132/132/132 133/133/133 134/134/134
f 134/134/134 135/135/135 136/136/136
f 137/137/137 138/138/138 139/139/139
f 139/139/139 140/140/140 141/141/141
f 142/142/142 143/143/143 144/144/144
f 144/144/144 145/145/145 146/146/146
f 147/147/147 148/148/148 149/149/149
f 149/149/149 150/150/150 151/151/151
f 152/152/152 153/153/153 154/154/154
f 155/155/155 156/156/156 152/152/152
f 157/157/157 158/158/158 159/159/159
f 159/159/159 160/160/160 161/161/161
f 162/162/162 163/163/163 164/164/164
f 164/164/164 165/165/165 166/166/166
f 167/167/167 168/168/168 169/169/169
f 169/169/169 170/170/170 171/171/171
f 172/172/172 173/173/173 174/174/174
f 174/174/174 175/175/175 176/176/176
f 177/177/177 178/178/178 179/179/179
f 179/179/179 180/180/180 181/181/181
f 182/182/182 183/183/183 184/184/184
f 184/184/184 185/185/185 186/186/186
f 187/187/187 188/188/188 185/185/185
f 185/185/185 189/189/189 190/190/190
f 191/191/191 189/189/189 192/192/192
f 192/192/192 193/193/193 194/194/194
f 195/195/195 196/196/196 197/197/197
f 197/197/197 198/198/198 199/199/199
f 200/200/200 201/201/201 198/198/198
f 198/198/198 202/202/202 203/203/203
f 204/204/204 202/202/202 205/205/205
f 205/205/205 206/206/206 207/207/207
f 208/208/208 209/209/209 210/210/210
f 210/210/210 211/211/211 212/212/212
f 213/213/213 210/210/210 214/214/214
f 215/215/215 216/216/216 213/213/213
f 213/213/213 217/217/217 215/215/215
f 218/218/218 217/217/217 213/213/213
f 219/219/219 220/220/220 221/221/221
f 221/221/221 222/222/222 223/223/223
f 224/224/224 221/221/221 225/225/225
f 226/226/226 227/227/227 228/228/228
f 228/228/228 229/229/229 230/230/230
f 231/231/231 228/228/228 232/232/232
f 233/233/233 234/234/234 231/231/231
f 231/231/231 235/235/235 233/233/233
f 236/236/236 235/235/235 231/231/231
f 237/237/237 238/238/238 239/239/239
f 239/239/239 240/240/240 241/241/241
f 242/242/242 239/239/239 243/243/243
f 244/244/244 245/245/245 246/246/246
f 246/246/246 247/247/247 248/248/248
f 249/249/249 246/246/246 250/250/250
f 251/251/251 252/252/252 249/249/249
f 249/249/249 253/253/253 251/251/251
f 254/254/254 253/253/253 249/249/249
f 255/255/255 256/256/256 257/257/257
f 257/257/257 258/258/258 259/259/259
f 260/260/260 257/257/257 261/261/261
f 262/262/262 263/263/263 264/264/264
f 264/264/264 265/265/265 266/266/266
f 267/267/267 264/264/264 268/268/268
f 269/269/269 270/270/270 267/267/267
f 267/267/267 271/271/271 269/269/269
f 272/272/272 271/271/271 267/267/267
f 273/273/273 274/274/274 275/275/275
f 275/275/275 276/276/276 277/277/277
f 278/278/278 275/275/275 279/279/279
f 280/280/280 281/281/281 282/282/282
f 282/282/282 283/283/283 280/280/280
f 284/284/284 285/285/285 286/286/286
f 286/286/286 287/287/287 284/284/284
f 288/288/288 289/289/289 290/290/290
f 290/290/290 291/291/291 288/288/288
f 292/292/292 293/293/293 294/294/294
f 294/294/294 295/295/295 292/292/292
f 296/296/296 297/297/297 298/298/298
f 298/298/298 299/299/299 296/296/296
f 300/300/300 301/301/301 302/302/302
f 302/302/302 303/303/303 300/300/300
f 304/304/304 305/305/305 306/306/306
f 306/306/306 307/307/307 304/304/304
f 308/308/308 309/309/309 310/310/310
f 310/310/310 311/311/311 308/308/308
f 312/312/312 313/313/313 314/314/314
f 314/314/314 315/315/315 312/312/312
f 316/316/316 317/317/317 318/318/318
f 318/318/318 319/319/319 316/316/316
f 320/320/320 321/321/321 322/322/322
f 322/322/322 323/323/323 320/320/320
f 324/324/324 325/325/325 326/326/326
f 326/326/326 327/327/327 324/324/324
f 328/328/328 329/329/329 330/330/330
f 330/330/330 331/331/331 328/328/328
f 332/332/332 333/333/333 334/334/334
f 334/334/334 335/335/335 332/332/332
f 336/336/336 337/337/337 338/338/338
f 338/338/338 339/339/339 336/336/336
f 340/340/340 341/341/341 342/342/342
f 342/342/342 343/343/343 340/340/340
f 344/344/344 345/345/345 346/346/346
f 346/346/346 347/347/347 344/344/344
f 348/348/348 349/349/349 350/350/350
f 350/350/350 351/351/351 348/348/348
f 352/352/352 353/353/353 354/354/354
f 354/354/354 355/355/355 352/352/352
f 356/356/356 357/357/357 358/358/358
f 358/358/358 359/359/359 356/356/356
f 360/360/360 361/361/361 362/362/362
f 362/362/362 363/363/363 360/360/360
f 364/364/364 365/365/365 366/366/366
f 366/366/366 367/367/367 364/364/364
f 368/368/368 369/369/369 370/370/370
f 370/370/370 371/371/371 368/368/368
f 372/372/372 373/373/373 374/374/374
f 374/374/374 375/375/375 372/372/372
f 376/376/376 377/377/377 378/378/378
f 378/378/378 379/379/379 376/376/376
f 380/380/380 381/381/381 382/382/382
f 382/382/382 383/383/383 380/380/380
f 384/384/384 385/385/385 386/386/386
f 386/386/386 387/387/387 384/384/384
f 388/388/388 389/389/389 390/390/390
f 390/390/390 391/391/391 388/388/388
f 392/392/392 393/393/393 394/394/394
f 394/394/394 395/395/395 392/392/392
f 396/396/396 397/397/397 398/398/398
f 399/399/399 396/396/396 398/398/398
f 398/398/398 400/400/400 399/399/399
f 401/401/401 402/402/402 403/403/403
f 403/403/403 402/402/402 404/404/404
f 404/404/404 405/405/405 403/403/403
f 406/406/406 407/407/407 408/408/408
f 408/408/408 409/409/409 406/406/406
f 408/408/408 410/410/410 409/409/409
f 411/411/411 412/412/412 413/413/413
f 413/413/413 414/414/414 411/411/411
f 415/415/415 411/411/411 414/414/414
f 414/414/414 416/416/416 415/415/415
f 415/415/415 416/416/416 417/417/417
f 417/417/417 418/418/418 415/415/415
f 419/419/419 420/420/420 421/421/421
f 421/421/421 422/422/422 419/419/419
f 423/423/423 419/419/419 422/422/422
f 422/422/422 424/424/424 423/423/423
f 423/423/423 424/424/424 425/425/425
f 425/425/425 426/426/426 423/423/423
f 427/427/427 428/428/428 429/429/429
f 429/429/429 430/430/430 427/427/427
f 431/431/431 427/427/427 430/430/430
f 430/430/430 432/432/432 431/431/431
f 431/431/431 432/432/432 433/433/433
f 433/433/433 434/434/434 431/431/431
f 435/435/435 436/436/436 437/437/437
f 437/437/437 438/438/438 435/435/435
f 439/439/439 435/435/435 438/438/438
f 438/438/438 440/440/440 439/439/439
f 439/439/439 440/440/440 441/441/441
f 441/441/441 442/442/442 439/439/439
f 443/443/443 444/444/444 445/445/445
f 446/446/446 445/445/445 444/444/444
f 444/444/444 447/447/447 446/446/446
f 448/448/448 449/449/449 450/450/450
f 450/450/450 451/451/451 448/448/448
f 452/452/452 448/448/448 451/451/451
f 451/451/451 453/453/453 452/452/452
f 454/454/454 452/452/452 453/453/453
f 453/453/453 455/455/455 454/454/454
f 454/454/454 455/455/455 456/456/456
f 455/455/455 457/457/457 456/456/456
f 455/455/455 458/458/458 457/457/457
f 458/458/458 459/459/459 457/457/457
f 458/458/458 455/455/455 460/460/460
f 458/458/458 461/461/461 459/459/459
f 460/460/460 462/462/462 458/458/458
f 461/461/461 458/458/458 463/463/463
f 464/464/464 462/462/462 460/460/460
f 463/463/463 465/465/465 461/461/461
f 460/460/460 466/466/466 464/464/464
f 467/467/467 465/465/465 463/463/463
f 464/464/464 466/466/466 468/468/468
f 468/468/468 469/469/469 464/464/464
f 463/463/463 470/470/470 467/467/467
f 471/471/471 467/467/467 470/470/470
f 470/470/470 472/472/472 471/471/471
f 473/473/473 474/474/474 475/475/475
f 475/475/475 476/476/476 473/473/473
f 477/477/477 473/473/473 476/476/476
f 476/476/476 478/478/478 477/477/477
f 477/477/477 478/478/478 479/479/479
f 479/479/479 480/480/480 477/477/477
f 481/481/481 480/480/480 479/479/479
f 479/479/479 482/482/482 481/481/481
f 483/483/483 484/484/484 485/485/485
f 485/485/485 486/486/486 483/483/483
f 487/487/487 483/483/483 486/486/486
f 486/486/486 488/488/488 487/487/487
f 489/489/489 487/487/487 488/488/488
f 488/488/488 490/490/490 489/489/489
f 489/489/489 490/490/490 491/491/491
f 491/491/491 492/492/492 489/489/489
f 493/493/493 494/494/494 495/495/495
f 495/495/495 496/496/496 493/493/493
f 495/495/495 497/497/497 496/496/496
f 498/498/498 493/493/493 496/496/496
f 499/499/499 496/496/496 497/497/497
f 496/496/496 499/499/499 498/498/498
f 497/497/497 500/500/500 499/499/499
f 498/498/498 499/499/499 501/501/501
f 501/501/501 499/499/499 500/500/500
f 501/501/501 502/502/502 498/498/498
f 500/500/500 503/503/503 501/501/501
f 504/504/504 505/505/505 506/506/506
f 506/506/506 507/507/507 504/504/504
f 508/508/508 504/504/504 507/507/507
f 507/507/507 506/506/506 509/509/509
f 508/508/508 507/507/507 510/510/510
f 509/509/509 510/510/510 507/507/507
f 510/510/510 511/511/511 508/508/508
f 512/512/512 510/510/510 509/509/509
f 511/511/511 510/510/510 512/512/512
f 509/509/509 513/513/513 512/512/512
f 512/512/512 514/514/514 511/511/511
g 19 - Default
f 515/515/515 516/516/516 517/517/517
f 518/518/518 519/519/519 515/515/515
f 517/517/517 520/520/520 515/515/515
f 515/515/515 520/520/520 518/518/518
f 520/520/520 517/517/517 521/521/521
f 520/520/520 522/522/522 518/518/518
f 521/521/521 522/522/522 520/520/520
