v 0.332221 0.105382 0.026271999999999993
v 0.332221 0.10538200000000002 0.172235
v 0.414363 0.187523 0.172235
v 0.414363 0.187523 0.172235
v 0.414363 0.187523 0.02627199999999999
v 0.332221 0.105382 0.026271999999999993
v 0.35468 0.104906 0.042948999999999994
v 0.35468 0.10490600000000003 0.473017
v 0.413879 0.16410500000000003 0.473017
v 0.413879 0.16410500000000003 0.473017
v 0.413879 0.164105 0.042948999999999994
v 0.35468 0.104906 0.042948999999999994
v 0.135619 0.11840200000000001 0.21174
v -0.136162 0.11840200000000001 0.21174
v -0.136203 0.10271700000000002 0.196055
v -0.437072 0.10355300000000002 0.226589
v -0.437072 0.08786800000000002 0.210904
v -0.136203 0.10271700000000002 0.196055
v -0.136203 0.10271700000000002 0.196055
v -0.136162 0.11840200000000001 0.21174
v -0.437072 0.10355300000000002 0.226589
v 0.135619 0.11840200000000002 0.364618
v -0.136162 0.11840200000000002 0.364618
v -0.136203 0.10271700000000003 0.348933
v -0.437072 0.10355300000000003 0.379467
v -0.437072 0.08786800000000003 0.363782
v -0.136203 0.10271700000000003 0.348933
v -0.136203 0.10271700000000003 0.348933
v -0.136162 0.11840200000000002 0.364618
v -0.437072 0.10355300000000003 0.379467
v 0.414363 0.02324 0.026272
v 0.414363 0.02324000000000001 0.172235
v 0.332221 0.10538200000000002 0.172235
v 0.332221 0.105382 0.026271999999999993
v 0.414363 0.02324 0.026272
v -0.496409 0.105381 0.026271999999999993
v -0.496409 0.10538100000000002 0.172235
v -0.414862 0.186927 0.172235
v -0.414862 0.186927 0.02627199999999999
v -0.496409 0.105381 0.026271999999999993
v -0.414862 0.023834 0.026272
v -0.414862 0.02383400000000001 0.172235
v -0.496409 0.10538100000000002 0.172235
v -0.496409 0.105381 0.026271999999999993
v -0.414862 0.023834 0.026272
v -0.333315 0.105381 0.026271999999999993
v -0.333315 0.10538100000000002 0.172235
v -0.414862 0.02383400000000001 0.172235
v -0.414862 0.023834 0.026272
v -0.333315 0.105381 0.026271999999999993
v -0.483649 0.10538100000000003 0.391943
v -0.483649 0.10538100000000003 0.447015
v -0.414862 0.17416800000000002 0.447015
v -0.414862 0.17416800000000002 0.391943
v -0.483649 0.10538100000000003 0.391943
v -0.414862 0.03659400000000002 0.391943
v -0.414862 0.03659400000000003 0.447015
v -0.483649 0.10538100000000003 0.447015
v -0.483649 0.10538100000000003 0.391943
v -0.414862 0.03659400000000002 0.391943
v -0.346075 0.10538100000000003 0.391943
v -0.346075 0.10538100000000003 0.447015
v -0.414862 0.03659400000000003 0.447015
v -0.414862 0.03659400000000002 0.391943
v -0.346075 0.10538100000000003 0.391943
v 0.473078 0.104906 0.042948999999999994
v 0.473078 0.10490600000000003 0.473017
v 0.413879 0.045707000000000025 0.473017
v 0.413879 0.045707 0.042949
v 0.473078 0.104906 0.042948999999999994
v 0.345074 0.10538200000000003 0.391943
v 0.345074 0.10538200000000003 0.447015
v 0.414363 0.17467100000000002 0.447015
v 0.414363 0.17467100000000002 0.447015
v 0.414363 0.17467100000000002 0.391943
v 0.414363 0.03609300000000002 0.391943
v 0.414363 0.03609300000000003 0.447015
v 0.345074 0.10538200000000003 0.447015
v 0.345074 0.10538200000000003 0.391943
v 0.414363 0.03609300000000002 0.391943
v 0.483652 0.10538200000000003 0.391943
v 0.483652 0.10538200000000003 0.447015
v 0.414363 0.03609300000000003 0.447015
v 0.414363 0.03609300000000002 0.391943
v 0.483652 0.10538200000000003 0.391943
v -0.474113 0.104908 0.042948999999999994
v -0.474113 0.10490800000000003 0.473017
v -0.415343 0.16367800000000002 0.473017
v -0.415343 0.163678 0.042948999999999994
v -0.474113 0.104908 0.042948999999999994
v -0.415343 0.046138 0.042949
v -0.415343 0.046138000000000026 0.473017
v -0.474113 0.10490800000000003 0.473017
v -0.474113 0.104908 0.042948999999999994
v -0.415343 0.046138 0.042949
v -0.356572 0.104908 0.042948999999999994
v -0.356572 0.10490800000000003 0.473017
v -0.415343 0.046138000000000026 0.473017
v -0.415343 0.046138 0.042949
v -0.356572 0.104908 0.042948999999999994
v 0.135578 0.13333 0.196812
v 0.426493 0.11848000000000002 0.211662
v 0.426493 0.10279500000000001 0.195976
v 0.135578 0.11764500000000001 0.181127
v 0.135578 0.13333 0.196812
v -0.136203 0.13333 0.196812
v 0.135578 0.13333 0.196812
v -0.136202 0.11764500000000001 0.181127
v -0.136203 0.13333 0.196812
v -0.136203 0.13333 0.196812
v -0.437072 0.10279600000000001 0.195976
v -0.437072 0.11848100000000002 0.211661
v -0.136203 0.13333 0.196812
v 0.135578 0.13333000000000003 0.34969
v 0.426493 0.11848000000000003 0.364539
v 0.426493 0.10279500000000003 0.348854
v 0.135578 0.11764500000000001 0.334005
v 0.135578 0.13333000000000003 0.34969
v -0.136203 0.13333000000000003 0.34969
v 0.135578 0.13333000000000003 0.34969
v -0.136202 0.11764500000000001 0.334005
v -0.136203 0.13333000000000003 0.34969
v -0.136203 0.13333000000000003 0.34969
v -0.437072 0.10279600000000003 0.348854
v -0.437072 0.11848100000000003 0.364539
v -0.136203 0.13333000000000003 0.34969
v 0.426493 0.08786700000000001 0.210904
v 0.135578 0.10271700000000002 0.196055
v 0.135578 0.11764500000000001 0.181127
v 0.426493 0.10279500000000001 0.195976
v 0.426493 0.08786700000000001 0.210904
v -0.136202 0.11764500000000001 0.181127
v 0.135578 0.10271700000000002 0.196055
v -0.437072 0.08786800000000002 0.210904
v -0.437072 0.10279600000000001 0.195976
v -0.136203 0.10271700000000002 0.196055
v 0.135578 0.10271700000000002 0.196055
v 0.426493 0.10355300000000002 0.226589
v 0.135619 0.11840200000000001 0.21174
v 0.135578 0.10271700000000002 0.196055
v 0.426493 0.08786700000000001 0.210904
v 0.426493 0.10355300000000002 0.226589
v -0.136203 0.10271700000000002 0.196055
v 0.135619 0.11840200000000001 0.21174
v 0.426493 0.08786700000000003 0.363782
v 0.135578 0.10271700000000003 0.348933
v 0.135578 0.11764500000000001 0.334005
v 0.426493 0.10279500000000003 0.348854
v 0.426493 0.08786700000000003 0.363782
v -0.136202 0.11764500000000001 0.334005
v 0.135578 0.10271700000000003 0.348933
v -0.437072 0.08786800000000003 0.363782
v -0.437072 0.10279600000000003 0.348854
v -0.136203 0.10271700000000003 0.348933
v 0.135578 0.10271700000000003 0.348933
v 0.426493 0.10355200000000003 0.379467
v 0.135619 0.11840200000000002 0.364618
v 0.135578 0.10271700000000003 0.348933
v 0.426493 0.08786700000000003 0.363782
v 0.426493 0.10355200000000003 0.379467
v -0.136203 0.10271700000000003 0.348933
v 0.135619 0.11840200000000002 0.364618
v -0.5 0.6909409999999999 -2.004229
v -0.5 0.6909409999999998 -3.838305
v -0.5 -0.020319000000000236 -3.838076
v -0.5 -0.02031900000000012 -2.004
v -0.294736 0.3417149999999999 -2.004229
v -0.294736 0.34171499999999977 -3.838305
v -0.294736 0.5910779999999998 -3.838305
v -0.294736 0.5910779999999999 -2.004229
v -0.294736 0.5910779999999999 -2.004229
v -0.294736 0.5910779999999998 -3.838305
v -0.398526 0.6909409999999998 -3.838305
v -0.398526 0.6909409999999999 -2.004229
v -0.398526 0.6909409999999999 -2.004229
v -0.398526 0.6909409999999998 -3.838305
v -0.5 0.6909409999999998 -3.838305
v -0.5 0.6909409999999999 -2.004229
v 0.5 -0.02031800000000012 -2.004
v 0.5 -0.020318000000000235 -3.838076
v 0.5 0.6909409999999998 -3.838305
v 0.5 0.6909409999999999 -2.004229
v 0.323752 0.3628399999999999 -2.011719
v 0.323752 0.3628399999999998 -3.845795
v -0.318206 0.3628399999999998 -3.845795
v -0.318206 0.3628399999999999 -2.011719
v 0.496504 0.105382 0.026271999999999993
v 0.496504 0.10538200000000002 0.172235
v 0.414363 0.02324000000000001 0.172235
v 0.414363 0.02324 0.026272
v 0.414363 0.187523 0.02627199999999999
v 0.414363 0.187523 0.172235
v 0.496504 0.10538200000000002 0.172235
v 0.496504 0.105382 0.026271999999999993
v 0.414363 0.187523 0.172235
v 0.332221 0.10538200000000002 0.172235
v 0.414363 0.02324000000000001 0.172235
v 0.496504 0.10538200000000002 0.172235
v -0.414862 0.186927 0.02627199999999999
v -0.414862 0.186927 0.172235
v -0.333315 0.10538100000000002 0.172235
v -0.333315 0.105381 0.026271999999999993
v -0.414862 0.186927 0.172235
v -0.496409 0.10538100000000002 0.172235
v -0.414862 0.02383400000000001 0.172235
v -0.333315 0.10538100000000002 0.172235
v -0.414862 0.17416800000000002 0.391943
v -0.414862 0.17416800000000002 0.447015
v -0.346075 0.10538100000000003 0.447015
v -0.346075 0.10538100000000003 0.391943
v -0.414862 0.17416800000000002 0.447015
v -0.483649 0.10538100000000003 0.447015
v -0.414862 0.03659400000000003 0.447015
v -0.346075 0.10538100000000003 0.447015
v 0.413879 0.045707 0.042949
v 0.413879 0.045707000000000025 0.473017
v 0.35468 0.10490600000000003 0.473017
v 0.35468 0.104906 0.042948999999999994
v 0.413879 0.164105 0.042948999999999994
v 0.413879 0.16410500000000003 0.473017
v 0.473078 0.10490600000000003 0.473017
v 0.473078 0.104906 0.042948999999999994
v 0.413879 0.16410500000000003 0.473017
v 0.35468 0.10490600000000003 0.473017
v 0.413879 0.045707000000000025 0.473017
v 0.473078 0.10490600000000003 0.473017
v 0.414363 0.17467100000000002 0.391943
v 0.414363 0.17467100000000002 0.447015
v 0.483652 0.10538200000000003 0.447015
v 0.483652 0.10538200000000003 0.391943
v 0.414363 0.17467100000000002 0.447015
v 0.345074 0.10538200000000003 0.447015
v 0.414363 0.03609300000000003 0.447015
v 0.483652 0.10538200000000003 0.447015
v -0.415343 0.163678 0.042948999999999994
v -0.415343 0.16367800000000002 0.473017
v -0.356572 0.10490800000000003 0.473017
v -0.356572 0.104908 0.042948999999999994
v -0.415343 0.16367800000000002 0.473017
v -0.474113 0.10490800000000003 0.473017
v -0.415343 0.046138000000000026 0.473017
v -0.356572 0.10490800000000003 0.473017
v 0.499888 -0.023395999999999993 0.135628
v -0.501258 -0.023190999999999993 0.135629
v -0.501262 -0.023190999999999996 0.083212
v 0.499885 -0.023395999999999997 0.083211
v 0.500678 0.023396000000000007 0.135628
v -0.50075 0.023191000000000007 0.135628
v -0.501258 -0.023190999999999993 0.135629
v 0.499888 -0.023395999999999993 0.135628
v 0.23604 0.09578899999999997 -0.514162
v 0.23604 0.13511899999999996 -0.519735
v 0.319275 0.13511899999999996 -0.519735
v 0.319275 0.09578899999999997 -0.514162
v -0.236222 0.13511899999999996 -0.519735
v -0.236222 0.09578899999999997 -0.514162
v -0.318916 0.09578899999999997 -0.514162
v -0.318916 0.13511899999999996 -0.519735
v -0.318206 0.3628399999999999 -2.011719
v -0.318206 0.11486199999999999 -0.11846700000000002
v 0.323752 0.11486199999999999 -0.11846700000000002
v 0.323752 0.3628399999999999 -2.011719
v 0.294736 0.34171499999999977 -3.838305
v 0.294736 0.3417149999999999 -2.004229
v 0.294736 0.5910779999999999 -2.004229
v 0.294736 0.5910779999999998 -3.838305
v 0.398526 0.6909409999999999 -2.004229
v 0.398526 0.6909409999999998 -3.838305
v 0.5 0.6909409999999999 -2.004229
v 0.5 0.6909409999999998 -3.838305
v -0.5 -0.020318999999999993 0.134464
v -0.294736 0.013895000000000008 0.134464
v -0.294736 0.165494 0.134464
v -0.5 0.26543 0.13446399999999997
v -0.398526 0.26543 0.13446399999999997
v 0.294736 0.013896000000000009 0.134464
v 0.5 -0.020317999999999992 0.134464
v 0.294736 0.165494 0.134464
v 0.5 0.265431 0.13446399999999997
v 0.398526 0.265431 0.13446399999999997
v 0.5 0.265431 0.13446399999999997
v 0.5 -0.020317999999999992 0.134464
v 0.5 -0.02031800000000012 -2.004
v 0.5 0.6905779999999999 -1.807868
v 0.5 0.6909409999999999 -2.004229
v 0.135619 0.11840200000000001 0.21174
v 0.426493 0.10355300000000002 0.226589
v 0.426493 0.11848000000000002 0.211662
v 0.135578 0.13333 0.196812
v -0.136162 0.11840200000000001 0.21174
v -0.136203 0.13333 0.196812
v -0.437072 0.11848100000000002 0.211661
v -0.437072 0.10355300000000002 0.226589
v 0.135619 0.11840200000000002 0.364618
v 0.426493 0.10355200000000003 0.379467
v 0.426493 0.11848000000000003 0.364539
v 0.135578 0.13333000000000003 0.34969
v -0.136162 0.11840200000000002 0.364618
v -0.136203 0.13333000000000003 0.34969
v -0.437072 0.11848100000000003 0.364539
v -0.437072 0.10355300000000003 0.379467
v -0.5 0.6909409999999999 -2.004229
v -0.5 -0.02031900000000012 -2.004
v -0.5 0.6905779999999999 -1.807868
v -0.5 0.26543 0.13446399999999997
v -0.5 -0.020318999999999993 0.134464
v -0.236222 0.21351099999999998 -0.454523
v -0.236222 0.13511899999999996 -0.519735
v -0.318916 0.13511899999999996 -0.519735
v -0.318916 0.21351099999999998 -0.454523
v -0.236222 0.24525099999999997 -0.385349
v -0.318916 0.24525099999999997 -0.385349
v -0.204586 0.22009399999999998 -0.241306
v -0.318916 0.177237 0.0034519999999999894
v -0.118157 0.201635 -0.136799
v -9.1E-05 0.194878 -0.09854700000000001
v 0.319275 0.177237 0.0034519999999999894
v 0.117974 0.201635 -0.136799
v -0.318916 0.131118 0.09470499999999998
v 0.204404 0.22009399999999998 -0.241306
v 0.319275 0.131118 0.09470499999999998
v 0.319275 0.24525099999999997 -0.385349
v 0.321513 0.08132200000000002 0.131585
v 0.236039 0.24525099999999997 -0.385349
v -0.318561 0.08132200000000002 0.131585
v 0.236039 0.21351099999999998 -0.454523
v -0.319813 0.018566000000000006 0.131788
v 0.323979 0.018566000000000006 0.131788
v 0.319275 0.21351099999999998 -0.454523
v 0.23604 0.13511899999999996 -0.519735
v 0.319275 0.13511899999999996 -0.519735
v 0.117974 0.10751499999999999 -0.173413
v -9.1E-05 0.10933899999999999 -0.132643
v -9.1E-05 0.194878 -0.09854700000000001
v 0.117974 0.201635 -0.136799
v 0.204404 0.10253399999999999 -0.284305
v 0.204404 0.22009399999999998 -0.241306
v 0.236039 0.24525099999999997 -0.385349
v 0.23604 0.09578899999999997 -0.514162
v 0.23604 0.13511899999999996 -0.519735
v 0.236039 0.21351099999999998 -0.454523
v -0.118157 0.201635 -0.136799
v -9.1E-05 0.194878 -0.09854700000000001
v -9.1E-05 0.10933899999999999 -0.132643
v -0.118156 0.10751499999999999 -0.173413
v -0.204586 0.22009399999999998 -0.241306
v -0.204586 0.10253399999999999 -0.284305
v -0.236222 0.24525099999999997 -0.385349
v -0.236222 0.09578899999999997 -0.514162
v -0.236222 0.13511899999999996 -0.519735
v -0.236222 0.21351099999999998 -0.454523
v -0.294736 0.165494 0.134464
v -0.294736 0.013895000000000008 0.134464
v -0.294736 0.3417149999999999 -2.004229
v -0.294736 0.5905669999999998 -1.807868
v -0.294736 0.5910779999999999 -2.004229
v -0.398526 0.26543 0.13446399999999997
v -0.398526 0.6905779999999999 -1.807868
v -0.398526 0.6909409999999999 -2.004229
v -0.5 0.6905779999999999 -1.807868
v -0.5 0.26543 0.13446399999999997
v -0.5 0.6909409999999999 -2.004229
v 0.294736 0.3417149999999999 -2.004229
v 0.294736 0.013896000000000009 0.134464
v 0.294736 0.165494 0.134464
v 0.294736 0.5905679999999999 -1.807868
v 0.294736 0.5910779999999999 -2.004229
v 0.398526 0.265431 0.13446399999999997
v 0.398526 0.6905779999999999 -1.807868
v 0.398526 0.6909409999999999 -2.004229
v 0.5 0.6905779999999999 -1.807868
v 0.5 0.265431 0.13446399999999997
v 0.5 0.6909409999999999 -2.004229
vt 0.740836 0.167956
vt 0.740836 0.148901
vt 0.765020 0.148901
vt 0.765020 0.148901
vt 0.765020 0.167956
vt 0.740836 0.167956
vt 0.717092 0.128487
vt 0.717092 0.037143
vt 0.743114 0.037143
vt 0.743114 0.037143
vt 0.743114 0.128487
vt 0.717092 0.128487
vt 0.140328 0.259271
vt 0.140321 0.209085
vt 0.144590 0.209138
vt 0.140369 0.153428
vt 0.144521 0.153482
vt 0.144590 0.209138
vt 0.144590 0.209138
vt 0.140321 0.209085
vt 0.140369 0.153428
vt 0.118672 0.259009
vt 0.118822 0.208862
vt 0.122890 0.208900
vt 0.119695 0.153279
vt 0.123825 0.153337
vt 0.122890 0.208900
vt 0.122890 0.208900
vt 0.118822 0.208862
vt 0.119695 0.153279
vt 0.716652 0.167956
vt 0.716652 0.148901
vt 0.740836 0.148901
vt 0.740836 0.167956
vt 0.716652 0.167956
vt 0.766637 0.168364
vt 0.766637 0.149168
vt 0.791063 0.149168
vt 0.791063 0.168364
vt 0.766637 0.168364
vt 0.741902 0.168364
vt 0.741902 0.149168
vt 0.766637 0.149168
vt 0.766637 0.168364
vt 0.741902 0.168364
vt 0.717481 0.168364
vt 0.717481 0.149168
vt 0.741902 0.149168
vt 0.741902 0.168364
vt 0.717481 0.168364
vt 0.766666 0.037349
vt 0.766666 0.019822
vt 0.791091 0.019822
vt 0.791091 0.037349
vt 0.766666 0.037349
vt 0.741873 0.037349
vt 0.741873 0.019822
vt 0.766666 0.019822
vt 0.766666 0.037349
vt 0.741873 0.037349
vt 0.717454 0.037349
vt 0.717454 0.019822
vt 0.741873 0.019822
vt 0.741873 0.037349
vt 0.717454 0.037349
vt 0.769605 0.128487
vt 0.769605 0.037143
vt 0.795633 0.037143
vt 0.795633 0.128487
vt 0.769605 0.128487
vt 0.692772 0.038227
vt 0.692772 0.020828
vt 0.716956 0.020828
vt 0.716956 0.020828
vt 0.716956 0.038227
vt 0.765325 0.038227
vt 0.765325 0.020828
vt 0.789509 0.020828
vt 0.789509 0.038227
vt 0.765325 0.038227
vt 0.741141 0.038227
vt 0.741141 0.020828
vt 0.765325 0.020828
vt 0.765325 0.038227
vt 0.741141 0.038227
vt 0.769479 0.130054
vt 0.769479 0.038043
vt 0.795771 0.038043
vt 0.795771 0.130054
vt 0.769479 0.130054
vt 0.743187 0.130054
vt 0.743187 0.038043
vt 0.769479 0.038043
vt 0.769479 0.130054
vt 0.743187 0.130054
vt 0.716895 0.130054
vt 0.716895 0.038043
vt 0.743187 0.038043
vt 0.743187 0.130054
vt 0.716895 0.130054
vt 0.136151 0.259112
vt 0.135387 0.312800
vt 0.131743 0.312861
vt 0.131906 0.259132
vt 0.136151 0.259112
vt 0.136283 0.209136
vt 0.136151 0.259112
vt 0.132139 0.209105
vt 0.136283 0.209136
vt 0.136283 0.209136
vt 0.132207 0.153541
vt 0.136369 0.153590
vt 0.136283 0.209136
vt 0.114781 0.258866
vt 0.114383 0.312517
vt 0.110300 0.312525
vt 0.110694 0.258858
vt 0.114781 0.258866
vt 0.114947 0.208919
vt 0.114781 0.258866
vt 0.110868 0.208863
vt 0.114947 0.208919
vt 0.114947 0.208919
vt 0.111683 0.153355
vt 0.115780 0.153442
vt 0.114947 0.208919
vt 0.141576 0.313075
vt 0.144706 0.259352
vt 0.148749 0.259364
vt 0.145025 0.313019
vt 0.141576 0.313075
vt 0.148563 0.209291
vt 0.144706 0.259352
vt 0.144521 0.153482
vt 0.148423 0.153747
vt 0.144590 0.209138
vt 0.144706 0.259352
vt 0.138375 0.313027
vt 0.140328 0.259271
vt 0.144706 0.259352
vt 0.141576 0.313075
vt 0.138375 0.313027
vt 0.144590 0.209138
vt 0.140328 0.259271
vt 0.122320 0.312769
vt 0.122770 0.259026
vt 0.126659 0.258922
vt 0.126192 0.312539
vt 0.122320 0.312769
vt 0.126759 0.209065
vt 0.122770 0.259026
vt 0.123825 0.153337
vt 0.127724 0.153647
vt 0.122890 0.208900
vt 0.122770 0.259026
vt 0.118250 0.312753
vt 0.118672 0.259009
vt 0.122770 0.259026
vt 0.122320 0.312769
vt 0.118250 0.312753
vt 0.122890 0.208900
vt 0.118672 0.259009
vt 0.314328 0.971145
vt 0.314328 0.561355
vt 0.155410 0.561304
vt 0.155410 0.971094
vt 0.205563 0.971094
vt 0.205563 0.561304
vt 0.149847 0.561304
vt 0.149847 0.971094
vt 0.237744 0.971094
vt 0.237744 0.561304
vt 0.205563 0.561304
vt 0.205563 0.971094
vt 0.260417 0.971094
vt 0.260417 0.561304
vt 0.237744 0.561304
vt 0.237744 0.971094
vt 0.314328 0.971145
vt 0.314328 0.561355
vt 0.155410 0.561304
vt 0.155410 0.971094
vt 0.325249 0.973138
vt 0.325249 0.559219
vt 0.108206 0.559219
vt 0.108206 0.973138
vt 0.692468 0.167956
vt 0.692468 0.148901
vt 0.716652 0.148901
vt 0.716652 0.167956
vt 0.765020 0.167956
vt 0.765020 0.148901
vt 0.789205 0.148901
vt 0.789205 0.167956
vt 0.417761 0.096270
vt 0.445691 0.068340
vt 0.473620 0.096270
vt 0.445691 0.124200
vt 0.693358 0.168364
vt 0.693358 0.149168
vt 0.717481 0.149168
vt 0.717481 0.168364
vt 0.417086 0.097971
vt 0.445016 0.070041
vt 0.472946 0.097971
vt 0.445016 0.125901
vt 0.693386 0.037349
vt 0.693386 0.019822
vt 0.717454 0.019822
vt 0.717454 0.037349
vt 0.425626 0.095815
vt 0.445755 0.075687
vt 0.465884 0.095815
vt 0.445755 0.115944
vt 0.691508 0.128487
vt 0.691508 0.037143
vt 0.717092 0.037143
vt 0.717092 0.128487
vt 0.743114 0.128487
vt 0.743114 0.037143
vt 0.769605 0.037143
vt 0.769605 0.128487
vt 0.515813 0.104744
vt 0.535941 0.084615
vt 0.556070 0.104744
vt 0.535941 0.124873
vt 0.716956 0.038227
vt 0.716956 0.020828
vt 0.741141 0.020828
vt 0.741141 0.038227
vt 0.419740 0.096812
vt 0.443299 0.073252
vt 0.466859 0.096812
vt 0.443299 0.120371
vt 0.690603 0.130054
vt 0.690603 0.038043
vt 0.716895 0.038043
vt 0.716895 0.130054
vt 0.510814 0.105226
vt 0.534374 0.081666
vt 0.557934 0.105226
vt 0.534374 0.128785
vt 0.665290 0.033490
vt 0.271639 0.033531
vt 0.271731 0.013572
vt 0.665524 0.013571
vt 0.665365 0.051184
vt 0.271746 0.051103
vt 0.271639 0.033531
vt 0.665290 0.033490
vt 0.210240 0.253730
vt 0.210240 0.319093
vt 0.240214 0.319093
vt 0.240214 0.253730
vt 0.040174 0.319093
vt 0.040174 0.253730
vt 0.010395 0.253730
vt 0.010395 0.319093
vt 0.107333 0.973322
vt 0.107333 0.334145
vt 0.322228 0.334145
vt 0.322228 0.973322
vt 0.149847 0.561304
vt 0.149847 0.971094
vt 0.205563 0.971094
vt 0.205563 0.561304
vt 0.237744 0.971094
vt 0.237744 0.561304
vt 0.260417 0.971094
vt 0.260417 0.561304
vt 0.272041 0.034001
vt 0.352721 0.047449
vt 0.352721 0.107036
vt 0.272041 0.146317
vt 0.311926 0.146317
vt 0.584418 0.047450
vt 0.665098 0.034002
vt 0.584418 0.107037
vt 0.665098 0.146317
vt 0.625213 0.146317
vt 0.467454 0.992571
vt 0.561366 0.992571
vt 0.745480 0.283329
vt 0.497482 0.333164
vt 0.508115 0.283329
vt 0.140328 0.259271
vt 0.138375 0.313027
vt 0.135387 0.312800
vt 0.136151 0.259112
vt 0.140321 0.209085
vt 0.136283 0.209136
vt 0.136369 0.153590
vt 0.140369 0.153428
vt 0.118672 0.259009
vt 0.118250 0.312753
vt 0.114383 0.312517
vt 0.114781 0.258866
vt 0.118822 0.208862
vt 0.114947 0.208919
vt 0.115780 0.153442
vt 0.119695 0.153279
vt 0.808009 0.991510
vt 0.576404 0.991510
vt 0.818245 0.941601
vt 0.846784 0.279642
vt 0.755203 0.279642
vt 0.040174 0.254438
vt 0.040174 0.319093
vt 0.010395 0.319093
vt 0.010395 0.254438
vt 0.040174 0.237704
vt 0.010395 0.237704
vt 0.051567 0.187572
vt 0.010395 0.102369
vt 0.082691 0.151165
vt 0.125207 0.137839
vt 0.240213 0.102369
vt 0.167724 0.151165
vt 0.010395 0.065554
vt 0.198848 0.187572
vt 0.240213 0.065554
vt 0.240213 0.237704
vt 0.241020 0.045457
vt 0.210240 0.237704
vt 0.010523 0.045457
vt 0.210240 0.254438
vt 0.010072 0.011130
vt 0.241908 0.011130
vt 0.240213 0.254438
vt 0.210240 0.319093
vt 0.240214 0.319093
vt 0.549668 0.145840
vt 0.603695 0.138207
vt 0.618303 0.178219
vt 0.561225 0.191163
vt 0.486627 0.137859
vt 0.497902 0.194654
vt 0.429150 0.195551
vt 0.381557 0.117467
vt 0.376152 0.135000
vt 0.400149 0.175713
vt 0.562004 0.192313
vt 0.619108 0.179484
vt 0.604580 0.139443
vt 0.550538 0.146968
vt 0.498671 0.195673
vt 0.487512 0.138852
vt 0.429915 0.196425
vt 0.382487 0.118241
vt 0.377044 0.135763
vt 0.400955 0.176527
vt 0.928496 0.279642
vt 0.989125 0.279642
vt 0.983064 0.991510
vt 0.893607 0.940349
vt 0.898671 0.991510
vt 0.880816 0.279642
vt 0.848574 0.943661
vt 0.846815 0.991510
vt 0.818245 0.941601
vt 0.846784 0.279642
vt 0.808009 0.991510
vt 0.328747 0.283329
vt 0.332763 0.992571
vt 0.383560 0.992571
vt 0.420328 0.334212
vt 0.415335 0.283329
vt 0.432504 0.992571
vt 0.466438 0.331041
vt 0.468453 0.283329
vt 0.497482 0.333164
vt 0.467454 0.992571
vt 0.508115 0.283329
vn -0.948683 0.316229 -1.0000000000193633E-06
vn -0.866026 -0.288674 0.408248
vn -0.235701 0.707107 0.666667
vn -0.235701 0.707107 0.666667
vn 0.31623 0.948683 -5.809007996777542E-17
vn -0.948683 0.316229 -1.0000000000193633E-06
vn -0.948683 0.316228 -1.9363380400038462E-17
vn -0.866025 -0.288675 0.408249
vn -0.235701 0.707107 0.666667
vn -0.235701 0.707107 0.666667
vn 0.316229 0.948683 -5.809007996777542E-17
vn -0.948683 0.316228 -1.9363380400038462E-17
vn -0.016977 0.0004540000000000612 0.999856
vn 0.015569 0.31664000000000003 0.948418
vn 0.031151 -0.948384 0.31559100000000007
vn 0.062275 -0.31473999999999996 0.947133
vn 0.031139 -0.947917 -0.31699099999999997
vn 0.031151 -0.948384 0.31559100000000007
vn 0.031151 -0.948384 0.31559100000000007
vn 0.015569 0.31664000000000003 0.948418
vn 0.062275 -0.31473999999999996 0.947133
vn -0.016977 0.0004550000000000612 0.999856
vn 0.01557 0.31663600000000003 0.948419
vn 0.031151 -0.948384 0.31559100000000007
vn 0.062275 -0.31474099999999994 0.947132
vn 0.031138 -0.947916 -0.31699399999999994
vn 0.031151 -0.948384 0.31559100000000007
vn 0.031151 -0.948384 0.31559100000000007
vn 0.01557 0.31663600000000003 0.948419
vn 0.062275 -0.31474099999999994 0.947132
vn -0.316228 -0.948683 5.809007996777542E-17
vn 0.235702 -0.707107 0.666667
vn -0.866026 -0.288674 0.408248
vn -0.948683 0.316229 -1.0000000000193633E-06
vn -0.316228 -0.948683 5.809007996777542E-17
vn -0.948683 0.316228 9.999999999806366E-07
vn -0.866025 -0.288674 0.408249
vn -0.235702 0.707107 0.666667
vn 0.316228 0.948683 -5.809007996777542E-17
vn -0.948683 0.316228 9.999999999806366E-07
vn -0.316228 -0.948683 5.809007996777542E-17
vn 0.235702 -0.707107 0.666667
vn -0.866025 -0.288674 0.408249
vn -0.948683 0.316228 9.999999999806366E-07
vn -0.316228 -0.948683 5.809007996777542E-17
vn 0.948683 -0.316228 1.9363380400038462E-17
vn 0.866026 0.288675 0.408248
vn 0.235702 -0.707107 0.666667
vn -0.316228 -0.948683 5.809007996777542E-17
vn 0.948683 -0.316228 1.9363380400038462E-17
vn -0.948683 0.316228 -1.9363380400038462E-17
vn -0.866026 -0.288675 0.408248
vn -0.235702 0.707106 0.666667
vn 0.316228 0.948683 -5.809007996777542E-17
vn -0.948683 0.316228 -1.9363380400038462E-17
vn -0.316228 -0.948683 5.809007996777542E-17
vn 0.235702 -0.707107 0.666667
vn -0.866026 -0.288675 0.408248
vn -0.948683 0.316228 -1.9363380400038462E-17
vn -0.316228 -0.948683 5.809007996777542E-17
vn 0.948683 -0.316228 1.9363380400038462E-17
vn 0.866025 0.288675 0.408248
vn 0.235702 -0.707107 0.666667
vn -0.316228 -0.948683 5.809007996777542E-17
vn 0.948683 -0.316228 1.9363380400038462E-17
vn 0.948684 -0.316227 1.9363319167698502E-17
vn 0.866026 0.288674 0.408248
vn 0.235703 -0.707107 0.666667
vn -0.316227 -0.948683 5.809007996777542E-17
vn 0.948684 -0.316227 1.9363319167698502E-17
vn -0.948683 0.316229 -1.0000000000193633E-06
vn -0.866026 -0.288675 0.408247
vn -0.235701 0.707107 0.666667
vn -0.235701 0.707107 0.666667
vn 0.316228 0.948683 1.99999999994191E-06
vn -0.316228 -0.948683 -9.999999999419098E-07
vn 0.235702 -0.707106 0.666667
vn -0.866026 -0.288675 0.408247
vn -0.948683 0.316229 -1.0000000000193633E-06
vn -0.316228 -0.948683 -9.999999999419098E-07
vn 0.948683 -0.316228 4.000000000019363E-06
vn 0.866024 0.288674 0.408251
vn 0.235702 -0.707106 0.666667
vn -0.316228 -0.948683 -9.999999999419098E-07
vn 0.948683 -0.316228 4.000000000019363E-06
vn -0.948683 0.316228 -1.9363380400038462E-17
vn -0.866026 -0.288675 0.408248
vn -0.235702 0.707107 0.666667
vn 0.316229 0.948683 -5.809007996777542E-17
vn -0.948683 0.316228 -1.9363380400038462E-17
vn -0.316228 -0.948683 5.809007996777542E-17
vn 0.235702 -0.707107 0.666667
vn -0.866026 -0.288675 0.408248
vn -0.948683 0.316228 -1.9363380400038462E-17
vn -0.316228 -0.948683 5.809007996777542E-17
vn 0.948683 -0.316228 1.9363380400038462E-17
vn 0.866026 0.288674 0.408248
vn 0.235702 -0.707107 0.666667
vn -0.316228 -0.948683 5.809007996777542E-17
vn 0.948683 -0.316228 1.9363380400038462E-17
vn 0.033951 0.999423 0.0008649999999999388
vn 0.032199 0.947862 0.31704999999999994
vn 0.064397 0.3145859999999999 -0.947042
vn 0.016976 -0.0004320000000000612 -0.999856
vn 0.033951 0.999423 0.0008649999999999388
vn -0.031153 0.948376 -0.31561500000000003
vn 0.033951 0.999423 0.0008649999999999388
vn -0.015571 -0.3166530000000001 -0.948414
vn -0.031153 0.948376 -0.31561500000000003
vn -0.031153 0.948376 -0.31561500000000003
vn -0.062277 0.31469099999999994 -0.947149
vn -0.031139 0.947917 0.31699099999999997
vn -0.031153 0.948376 -0.31561500000000003
vn 0.033951 0.999423 0.0008659999999999389
vn 0.032199 0.947863 0.31704699999999997
vn 0.064397 0.3145859999999999 -0.947042
vn 0.016975 -0.0004310000000000612 -0.999856
vn 0.033951 0.999423 0.0008659999999999389
vn -0.031153 0.948377 -0.31561100000000003
vn 0.033951 0.999423 0.0008659999999999389
vn -0.015571 -0.31665000000000004 -0.948415
vn -0.031153 0.948377 -0.31561100000000003
vn -0.031153 0.948377 -0.31561100000000003
vn -0.062278 0.31469499999999995 -0.947147
vn -0.031138 0.947915 0.3169969999999999
vn -0.031153 0.948377 -0.31561100000000003
vn -0.032199 -0.947862 -0.31704999999999994
vn -0.033954 -0.999423 -0.0008429999999999389
vn 0.016976 -0.0004320000000000612 -0.999856
vn 0.064397 0.3145859999999999 -0.947042
vn -0.032199 -0.947862 -0.31704999999999994
vn -0.015571 -0.3166530000000001 -0.948414
vn -0.033954 -0.999423 -0.0008429999999999389
vn 0.031139 -0.947917 -0.31699099999999997
vn -0.062277 0.31469099999999994 -0.947149
vn 0.031151 -0.948384 0.31559100000000007
vn -0.033954 -0.999423 -0.0008429999999999389
vn -0.0644 -0.3145359999999999 0.947058
vn -0.016977 0.0004540000000000612 0.999856
vn -0.033954 -0.999423 -0.0008429999999999389
vn -0.032199 -0.947862 -0.31704999999999994
vn -0.0644 -0.3145359999999999 0.947058
vn 0.031151 -0.948384 0.31559100000000007
vn -0.016977 0.0004540000000000612 0.999856
vn -0.032199 -0.947862 -0.31705199999999994
vn -0.033954 -0.999423 -0.0008439999999999389
vn 0.016975 -0.0004310000000000612 -0.999856
vn 0.064397 0.3145859999999999 -0.947042
vn -0.032199 -0.947862 -0.31705199999999994
vn -0.015571 -0.31665000000000004 -0.948415
vn -0.033954 -0.999423 -0.0008439999999999389
vn 0.031138 -0.947916 -0.31699399999999994
vn -0.062278 0.31469499999999995 -0.947147
vn 0.031151 -0.948384 0.31559100000000007
vn -0.033954 -0.999423 -0.0008439999999999389
vn -0.064401 -0.31453699999999996 0.947058
vn -0.016977 0.0004550000000000612 0.999856
vn -0.033954 -0.999423 -0.0008439999999999389
vn -0.032199 -0.947862 -0.31705199999999994
vn -0.064401 -0.31453699999999996 0.947058
vn 0.031151 -0.948384 0.31559100000000007
vn -0.016977 0.0004550000000000612 0.999856
vn -1 0 0
vn -1 0 0
vn -1 0 0
vn -1 0 0
vn 1 -0 0
vn 1 -1E-06 6.123233995736766E-23
vn 0.966022 0.25846 -1.5826110585381246E-17
vn 0.856099 0.516812 0.0005749999999999683
vn 0.856099 0.516812 0.0005749999999999683
vn 0.966022 0.25846 -1.5826110585381246E-17
vn 0.493911 0.869513 -5.3242315613350625E-17
vn 0.246956 0.969026 0.0008959999999999407
vn 0.246956 0.969026 0.0008959999999999407
vn 0.493911 0.869513 -5.3242315613350625E-17
vn 1E-06 1 -6.123233995736766E-17
vn 1E-06 1 0.0009249999999999388
vn 1 0 0
vn 1 0 0
vn 1 0 0
vn 1 0 0
vn 0 1 -6.123233995736766E-17
vn 0 1 -6.123233995736766E-17
vn 0 1 -6.123233995736766E-17
vn 0 1 -6.123233995736766E-17
vn 0.948683 -0.316228 1.9363380400038462E-17
vn 0.866026 0.288674 0.408248
vn 0.235702 -0.707107 0.666667
vn -0.316228 -0.948683 5.809007996777542E-17
vn 0.31623 0.948683 -5.809007996777542E-17
vn -0.235701 0.707107 0.666667
vn 0.866026 0.288674 0.408248
vn 0.948683 -0.316228 1.9363380400038462E-17
vn -0.235701 0.707107 0.666667
vn -0.866026 -0.288674 0.408248
vn 0.235702 -0.707107 0.666667
vn 0.866026 0.288674 0.408248
vn 0.316228 0.948683 -5.809007996777542E-17
vn -0.235702 0.707107 0.666667
vn 0.866026 0.288675 0.408248
vn 0.948683 -0.316228 1.9363380400038462E-17
vn -0.235702 0.707107 0.666667
vn -0.866025 -0.288674 0.408249
vn 0.235702 -0.707107 0.666667
vn 0.866026 0.288675 0.408248
vn 0.316228 0.948683 -5.809007996777542E-17
vn -0.235702 0.707106 0.666667
vn 0.866025 0.288675 0.408248
vn 0.948683 -0.316228 1.9363380400038462E-17
vn -0.235702 0.707106 0.666667
vn -0.866026 -0.288675 0.408248
vn 0.235702 -0.707107 0.666667
vn 0.866025 0.288675 0.408248
vn -0.316227 -0.948683 5.809007996777542E-17
vn 0.235703 -0.707107 0.666667
vn -0.866025 -0.288675 0.408249
vn -0.948683 0.316228 -1.9363380400038462E-17
vn 0.316229 0.948683 -5.809007996777542E-17
vn -0.235701 0.707107 0.666667
vn 0.866026 0.288674 0.408248
vn 0.948684 -0.316227 1.9363319167698502E-17
vn -0.235701 0.707107 0.666667
vn -0.866025 -0.288675 0.408249
vn 0.235703 -0.707107 0.666667
vn 0.866026 0.288674 0.408248
vn 0.316228 0.948683 1.99999999994191E-06
vn -0.235701 0.707107 0.666667
vn 0.866024 0.288674 0.408251
vn 0.948683 -0.316228 4.000000000019363E-06
vn -0.235701 0.707107 0.666667
vn -0.866026 -0.288675 0.408247
vn 0.235702 -0.707106 0.666667
vn 0.866024 0.288674 0.408251
vn 0.316229 0.948683 -5.809007996777542E-17
vn -0.235702 0.707107 0.666667
vn 0.866026 0.288674 0.408248
vn 0.948683 -0.316228 1.9363380400038462E-17
vn -0.235702 0.707107 0.666667
vn -0.866026 -0.288675 0.408248
vn 0.235702 -0.707107 0.666667
vn 0.866026 0.288674 0.408248
vn -0.000204 -1 2.0000000000612323E-06
vn -0.000204 -1 6.123233995736766E-17
vn -0.000204 -1 2.0000000000612323E-06
vn -0.000204 -1 2.0000000000612323E-06
vn 1E-06 5.000000000061232E-06 1
vn -1E-06 3.600000000006123E-05 1
vn 1E-06 5.000000000061232E-06 1
vn 1E-06 5.000000000061232E-06 1
vn 0 -0.14029100000000005 -0.99011
vn -0 0.41074999999999995 -0.911748
vn -0 0.12946899999999995 -0.991584
vn 0 -0.14029100000000005 -0.99011
vn 0 0.12946899999999995 -0.991584
vn -0 -0.14029100000000005 -0.99011
vn -0 -0.14029100000000005 -0.99011
vn 0 0.41074999999999995 -0.911748
vn 0 0.991531 0.12987099999999993
vn 0 0.991531 0.12987099999999993
vn 0 0.991531 0.12987099999999993
vn 0 0.991531 0.12987099999999993
vn -1 0 0
vn -1 0 0
vn -0.920196 0.391459 0.000579999999999976
vn -0.856033 0.516921 -3.165228240310245E-17
vn -0.37376 0.927525 0.0009039999999999432
vn -0.246956 0.969027 -5.933579069186812E-17
vn -1E-06 1 0.0006169999999999388
vn -1E-06 1 -6.123233995736766E-17
vn 0 6.123233995736766E-17 1
vn 0 6.123233995736766E-17 1
vn 0 6.123233995736766E-17 1
vn 0 6.123233995736766E-17 1
vn 0 6.123233995736766E-17 1
vn 0 6.123233995736766E-17 1
vn 0 6.123233995736766E-17 1
vn 0 6.123233995736766E-17 1
vn 0 6.123233995736766E-17 1
vn 0 6.123233995736766E-17 1
vn 1 0 0
vn 1 0 0
vn 1 0 0
vn 1 0 0
vn 1 0 0
vn -0.016977 0.0004540000000000612 0.999856
vn -0.0644 -0.3145359999999999 0.947058
vn 0.032199 0.947862 0.31704999999999994
vn 0.033951 0.999423 0.0008649999999999388
vn 0.015569 0.31664000000000003 0.948418
vn -0.031153 0.948376 -0.31561500000000003
vn -0.031139 0.947917 0.31699099999999997
vn 0.062275 -0.31473999999999996 0.947133
vn -0.016977 0.0004550000000000612 0.999856
vn -0.064401 -0.31453699999999996 0.947058
vn 0.032199 0.947863 0.31704699999999997
vn 0.033951 0.999423 0.0008659999999999389
vn 0.01557 0.31663600000000003 0.948419
vn -0.031153 0.948377 -0.31561100000000003
vn -0.031138 0.947915 0.3169969999999999
vn 0.062275 -0.31474099999999994 0.947132
vn -1 0 0
vn -1 0 0
vn -1 0 0
vn -1 0 0
vn -1 0 0
vn 0 0.745753 -0.666223
vn 0 0.12946899999999995 -0.991584
vn 0 0.41074999999999995 -0.911748
vn 0 0.83757 -0.54633
vn 0 0.973222 -0.22987000000000005
vn -0.000124 0.999682 -0.025235000000000063
vn 0.00027 0.985017 0.17245499999999994
vn 0.00028 0.973334 0.22939399999999993
vn 0.000875 0.984991 0.17260199999999995
vn 0 0.985166 0.17160699999999995
vn -0.000234 0.963531 0.26759499999999997
vn -0.000874 0.984991 0.17260299999999995
vn -0 0.764429 0.644708
vn -0.00027 0.985017 0.17245499999999994
vn -0 0.764428 0.644709
vn 9.3E-05 0.991746 -0.12821400000000005
vn -0 0.3149060000000001 0.949123
vn -0 0.991738 -0.12828300000000006
vn 0 0.3149060000000001 0.949123
vn -0 0.83757 -0.546329
vn 0 0.003248000000000061 0.999995
vn 0 0.003248000000000061 0.999995
vn -0 0.745753 -0.666223
vn -0 0.41074999999999995 -0.911748
vn -0 0.12946899999999995 -0.991584
vn -0.472512 0.32206899999999994 -0.820368
vn 0.106987 0.36558999999999997 -0.924607
vn -0.104752 0.3656809999999999 -0.924827
vn -0.63505 0.27587899999999993 -0.721527
vn -0.901794 0.16717599999999996 -0.398522
vn -0.898818 0.15056499999999998 -0.41165
vn -0.995147 0.048598999999999996 -0.085557
vn -0.995758 0.06007099999999999 -0.069702
vn -1 -0 0
vn -1 -1E-06 6.123233995736766E-23
vn 0.476133 0.3213599999999999 -0.818551
vn -0.104752 0.3656809999999999 -0.924827
vn 0.106987 0.36558999999999997 -0.924607
vn 0.634232 0.2760699999999999 -0.722174
vn 0.858679 0.18022199999999997 -0.479782
vn 0.935021 0.14241399999999999 -0.324739
vn 0.995147 0.048598999999999996 -0.085556
vn 0.995758 0.06007199999999999 -0.069701
vn 1 -1E-06 1E-06
vn 1 -1E-06 1E-06
vn 0.965119 0.255757 0.05597199999999999
vn 1 1E-06 -6.123233995736766E-23
vn 1 -0 0
vn 0.882528 0.465314 0.06802699999999998
vn 0.856099 0.516812 0.0005749999999999683
vn 0.368592 0.908094 0.19876099999999994
vn 0.447163 0.890794 0.08081299999999994
vn 0.246956 0.969026 0.0008959999999999407
vn 1E-06 0.994101 0.10845399999999994
vn 0 0.976873 0.21382299999999996
vn 1E-06 1 0.0009249999999999388
vn -1 0 0
vn -1 1E-06 -6.123233995736766E-23
vn -0.96512 0.255757 0.05597199999999999
vn -0.882528 0.465314 0.06802699999999998
vn -0.920196 0.391459 0.000579999999999976
vn -0.368592 0.908094 0.19876099999999994
vn -0.447163 0.890795 0.08081299999999994
vn -0.37376 0.927525 0.0009039999999999432
vn -1E-06 0.994101 0.10845399999999994
vn -0 0.976873 0.21382299999999996
vn -1E-06 1 0.0006169999999999388
g 20 - Default
f 1/1/1 2/2/2 3/3/3
f 4/4/4 5/5/5 6/6/6
f 7/7/7 8/8/8 9/9/9
f 10/10/10 11/11/11 12/12/12
f 13/13/13 14/14/14 15/15/15
f 16/16/16 17/17/17 18/18/18
f 19/19/19 20/20/20 21/21/21
f 22/22/22 23/23/23 24/24/24
f 25/25/25 26/26/26 27/27/27
f 28/28/28 29/29/29 30/30/30
f 31/31/31 32/32/32 33/33/33
f 33/33/33 34/34/34 35/35/35
f 36/36/36 37/37/37 38/38/38
f 38/38/38 39/39/39 40/40/40
f 41/41/41 42/42/42 43/43/43
f 43/43/43 44/44/44 45/45/45
f 46/46/46 47/47/47 48/48/48
f 48/48/48 49/49/49 50/50/50
f 51/51/51 52/52/52 53/53/53
f 53/53/53 54/54/54 55/55/55
f 56/56/56 57/57/57 58/58/58
f 58/58/58 59/59/59 60/60/60
f 61/61/61 62/62/62 63/63/63
f 63/63/63 64/64/64 65/65/65
f 66/66/66 67/67/67 68/68/68
f 68/68/68 69/69/69 70/70/70
f 71/71/71 72/72/72 73/73/73
f 74/74/74 75/75/75 71/71/71
f 76/76/76 77/77/77 78/78/78
f 78/78/78 79/79/79 80/80/80
f 81/81/81 82/82/82 83/83/83
f 83/83/83 84/84/84 85/85/85
f 86/86/86 87/87/87 88/88/88
f 88/88/88 89/89/89 90/90/90
f 91/91/91 92/92/92 93/93/93
f 93/93/93 94/94/94 95/95/95
f 96/96/96 97/97/97 98/98/98
f 98/98/98 99/99/99 100/100/100
f 101/101/101 102/102/102 103/103/103
f 103/103/103 104/104/104 105/105/105
f 106/106/106 107/107/107 104/104/104
f 104/104/104 108/108/108 109/109/109
f 110/110/110 108/108/108 111/111/111
f 111/111/111 112/112/112 113/113/113
f 114/114/114 115/115/115 116/116/116
f 116/116/116 117/117/117 118/118/118
f 119/119/119 120/120/120 117/117/117
f 117/117/117 121/121/121 122/122/122
f 123/123/123 121/121/121 124/124/124
f 124/124/124 125/125/125 126/126/126
f 127/127/127 128/128/128 129/129/129
f 129/129/129 130/130/130 131/131/131
f 132/132/132 129/129/129 133/133/133
f 134/134/134 135/135/135 132/132/132
f 132/132/132 136/136/136 134/134/134
f 137/137/137 136/136/136 132/132/132
f 138/138/138 139/139/139 140/140/140
f 140/140/140 141/141/141 142/142/142
f 143/143/143 140/140/140 144/144/144
f 145/145/145 146/146/146 147/147/147
f 147/147/147 148/148/148 149/149/149
f 150/150/150 147/147/147 151/151/151
f 152/152/152 153/153/153 150/150/150
f 150/150/150 154/154/154 152/152/152
f 155/155/155 154/154/154 150/150/150
f 156/156/156 157/157/157 158/158/158
f 158/158/158 159/159/159 160/160/160
f 161/161/161 158/158/158 162/162/162
f 163/163/163 164/164/164 165/165/165
f 165/165/165 166/166/166 163/163/163
f 167/167/167 168/168/168 169/169/169
f 169/169/169 170/170/170 167/167/167
f 171/171/171 172/172/172 173/173/173
f 173/173/173 174/174/174 171/171/171
f 175/175/175 176/176/176 177/177/177
f 177/177/177 178/178/178 175/175/175
f 179/179/179 180/180/180 181/181/181
f 181/181/181 182/182/182 179/179/179
f 183/183/183 184/184/184 185/185/185
f 185/185/185 186/186/186 183/183/183
f 187/187/187 188/188/188 189/189/189
f 189/189/189 190/190/190 187/187/187
f 191/191/191 192/192/192 193/193/193
f 193/193/193 194/194/194 191/191/191
f 195/195/195 196/196/196 197/197/197
f 197/197/197 198/198/198 195/195/195
f 199/199/199 200/200/200 201/201/201
f 201/201/201 202/202/202 199/199/199
f 203/203/203 204/204/204 205/205/205
f 205/205/205 206/206/206 203/203/203
f 207/207/207 208/208/208 209/209/209
f 209/209/209 210/210/210 207/207/207
f 211/211/211 212/212/212 213/213/213
f 213/213/213 214/214/214 211/211/211
f 215/215/215 216/216/216 217/217/217
f 217/217/217 218/218/218 215/215/215
f 219/219/219 220/220/220 221/221/221
f 221/221/221 222/222/222 219/219/219
f 223/223/223 224/224/224 225/225/225
f 225/225/225 226/226/226 223/223/223
f 227/227/227 228/228/228 229/229/229
f 229/229/229 230/230/230 227/227/227
f 231/231/231 232/232/232 233/233/233
f 233/233/233 234/234/234 231/231/231
f 235/235/235 236/236/236 237/237/237
f 237/237/237 238/238/238 235/235/235
f 239/239/239 240/240/240 241/241/241
f 241/241/241 242/242/242 239/239/239
f 243/243/243 244/244/244 245/245/245
f 245/245/245 246/246/246 243/243/243
f 247/247/247 248/248/248 249/249/249
f 249/249/249 250/250/250 247/247/247
f 251/251/251 252/252/252 253/253/253
f 253/253/253 254/254/254 251/251/251
f 255/255/255 256/256/256 257/257/257
f 257/257/257 258/258/258 255/255/255
f 259/259/259 260/260/260 261/261/261
f 261/261/261 262/262/262 259/259/259
f 263/263/263 264/264/264 265/265/265
f 265/265/265 266/266/266 263/263/263
f 266/266/266 265/265/265 267/267/267
f 267/267/267 268/268/268 266/266/266
f 268/268/268 267/267/267 269/269/269
f 269/269/269 270/270/270 268/268/268
f 271/271/271 272/272/272 273/273/273
f 274/274/274 271/271/271 273/273/273
f 273/273/273 275/275/275 274/274/274
f 276/276/276 277/277/277 278/278/278
f 278/278/278 277/277/277 279/279/279
f 279/279/279 280/280/280 278/278/278
f 281/281/281 282/282/282 283/283/283
f 283/283/283 284/284/284 281/281/281
f 283/283/283 285/285/285 284/284/284
f 286/286/286 287/287/287 288/288/288
f 288/288/288 289/289/289 286/286/286
f 290/290/290 286/286/286 289/289/289
f 289/289/289 291/291/291 290/290/290
f 290/290/290 291/291/291 292/292/292
f 292/292/292 293/293/293 290/290/290
f 294/294/294 295/295/295 296/296/296
f 296/296/296 297/297/297 294/294/294
f 298/298/298 294/294/294 297/297/297
f 297/297/297 299/299/299 298/298/298
f 298/298/298 299/299/299 300/300/300
f 300/300/300 301/301/301 298/298/298
f 302/302/302 303/303/303 304/304/304
f 305/305/305 304/304/304 303/303/303
f 303/303/303 306/306/306 305/305/305
f 307/307/307 308/308/308 309/309/309
f 309/309/309 310/310/310 307/307/307
f 311/311/311 307/307/307 310/310/310
f 310/310/310 312/312/312 311/311/311
f 313/313/313 311/311/311 312/312/312
f 312/312/312 314/314/314 313/313/313
f 313/313/313 314/314/314 315/315/315
f 314/314/314 316/316/316 315/315/315
f 314/314/314 317/317/317 316/316/316
f 317/317/317 318/318/318 316/316/316
f 317/317/317 314/314/314 319/319/319
f 317/317/317 320/320/320 318/318/318
f 319/319/319 321/321/321 317/317/317
f 320/320/320 317/317/317 322/322/322
f 323/323/323 321/321/321 319/319/319
f 322/322/322 324/324/324 320/320/320
f 319/319/319 325/325/325 323/323/323
f 326/326/326 324/324/324 322/322/322
f 323/323/323 325/325/325 327/327/327
f 327/327/327 328/328/328 323/323/323
f 322/322/322 329/329/329 326/326/326
f 330/330/330 326/326/326 329/329/329
f 329/329/329 331/331/331 330/330/330
f 332/332/332 333/333/333 334/334/334
f 334/334/334 335/335/335 332/332/332
f 336/336/336 332/332/332 335/335/335
f 335/335/335 337/337/337 336/336/336
f 336/336/336 337/337/337 338/338/338
f 338/338/338 339/339/339 336/336/336
f 340/340/340 339/339/339 338/338/338
f 338/338/338 341/341/341 340/340/340
f 342/342/342 343/343/343 344/344/344
f 344/344/344 345/345/345 342/342/342
f 346/346/346 342/342/342 345/345/345
f 345/345/345 347/347/347 346/346/346
f 348/348/348 346/346/346 347/347/347
f 347/347/347 349/349/349 348/348/348
f 348/348/348 349/349/349 350/350/350
f 350/350/350 351/351/351 348/348/348
f 352/352/352 353/353/353 354/354/354
f 354/354/354 355/355/355 352/352/352
f 354/354/354 356/356/356 355/355/355
f 357/357/357 352/352/352 355/355/355
f 358/358/358 355/355/355 356/356/356
f 355/355/355 358/358/358 357/357/357
f 356/356/356 359/359/359 358/358/358
f 357/357/357 358/358/358 360/360/360
f 360/360/360 358/358/358 359/359/359
f 360/360/360 361/361/361 357/357/357
f 359/359/359 362/362/362 360/360/360
f 363/363/363 364/364/364 365/365/365
f 365/365/365 366/366/366 363/363/363
f 367/367/367 363/363/363 366/366/366
f 366/366/366 365/365/365 368/368/368
f 367/367/367 366/366/366 369/369/369
f 368/368/368 369/369/369 366/366/366
f 369/369/369 370/370/370 367/367/367
f 371/371/371 369/369/369 368/368/368
f 370/370/370 369/369/369 371/371/371
f 368/368/368 372/372/372 371/371/371
f 371/371/371 373/373/373 370/370/370
