v 0 1 -6.123233995736766E-17
v 1 1 -6.123233995736766E-17
v -1 0 0
v -1 -1 6.123233995736766E-17
v 1 -1 6.123233995736766E-17
v -0.118941 1.092598 0.018382999999999934
v -1.012537 0.162096 0.060988999999999995
v -0.272644 1.2463009999999999 -1.942678
v -1.184694 0.3342519999999999 -1.942678
v -0.100487 1.074144 0.06098899999999994
v -1.03099 0.18055 0.01838299999999999
v -0.98116 0.130719 0.07064799999999999
v 0 1.042768 0.07064799999999993
v -0.525136 0.586744 0.07064799999999996
v -0.895261 0.044820000000000006 0.070648
v 0 0.913826 0.07064799999999995
v -0.500171 0.561779 0.07064799999999997
v -0.885205 0.034764 0.035492
v -0.490115 0.551723 0.03549199999999997
v -0.066844 0.900745 0.07064799999999995
v -0.83914 0.12845 0.07064799999999999
v -0.056788 0.890689 0.03549199999999995
v -0.829084 0.118394 0.035491999999999996
v -0.207982 0.836295 0.07064799999999995
v -0.197926 0.82624 0.035491999999999954
v -0.774692 0.269585 0.07064799999999999
v -0.764636 0.259529 0.03549199999999999
v -0.490372 0.55198 0.03573599999999996
v 0 1.029915 0.035735999999999934
v -0.946396 0.095955 0.03573599999999999
v -0.465407 0.527015 0.03573599999999996
v -0.173218 0.801531 0.03573599999999995
v 0 0.864662 0.03573599999999994
v 0 0.864662 0.03573599999999994
v -0.864738 -7.599999999999782E-05 0.035736
v -0.804376 0.093685 0.03573599999999999
v -0.739928 0.234821 0.03573599999999998
v 0 0.850441 0.000579999999999948
v -0.729873 0.224765 0.0005789999999999862
v -0.455351 0.516959 0.0005789999999999683
v -0.163162 0.791476 0.0005799999999999515
v -0.850441 3.545352483531587E-20 0.000579
v -0.79432 0.08363 0.0005799999999999949
v -0.189208 1.143027 -0.40983800000000004
v -1.104937 0.254496 -0.40984
v -1.215619 0.36517699999999986 -1.954438
v -0.714514 0.614862 -0.20145000000000002
v -0.856434 0.487129 -0.29980400000000007
v -0.424084 0.919631 -0.30077800000000005
v -0.551141 0.7783 -0.20187400000000005
v -0.680934 0.5608 -0.19009500000000001
v -0.84098 0.417277 -0.300779
v -0.354247 0.904173 -0.30187600000000003
v -0.497012 0.744793 -0.19057200000000005
v -0.384004 0.975449 -0.4098530000000001
v -0.477363 0.880533 -0.3990810000000001
v -0.707274 0.639459 -0.32175300000000007
v -0.81887 0.539128 -0.39985100000000007
v -0.578222 0.768466 -0.32141800000000004
v -0.52663 1.0481249999999998 -1.949226
v -0.985819 0.5891619999999999 -1.950765
v -0.986691 0.5941109999999998 -1.954437
v -0.531173 1.0496409999999998 -1.954436
v -0.913051 0.446387 -0.40984
v -0.886386 0.48972899999999997 -0.525423
v -0.427204 0.9487 -0.5238830000000001
v -0.245462 1.2907869999999997 -1.954436
v -0.164571 1.084828 -0.40994200000000003
v -1.063531 0.21308999999999997 -0.409942
v -0.309071 0.966593 -0.40994200000000003
v -0.904222 0.371235 -0.409942
v -0.834691 0.4892389999999999 -0.51844
v -0.426804 0.896925 -0.517073
v -0.47122 0.836235 -0.40623400000000004
v -0.774578 0.532978 -0.40691800000000006
v -0.560726 0.736603 -0.33726000000000006
v -0.675362 0.622011 -0.3375580000000001
v -0.932299 0.5868459999999999 -1.944046
v -0.524412 0.9945329999999999 -1.942678
v -1.329206 0.051186999999999885 -1.942678
v -1.111838 0.051187 0.018382999999999997
v -1.210443 0.06560099999999998 -0.40984
v -1.366971 0.06559999999999988 -1.954438
v -1.151887 0.06560099999999998 -0.409942
v -1.000076 -0.08625 0.070648
v -1.000076 -0.100471 0.03549200000000001
v -1.000076 -0.013933999999999998 0.035736
v -1.000076 -0.135414 0.035736000000000004
v -1.000076 -0.149635 0.0005790000000000092
v -0.913902 -7.599999999999568E-05 0.070648
v -0.899681 -7.599999999999784E-05 0.035492
v -0.066844 0.900745 0.07064799999999995
v -0.056788 0.890689 0.03549199999999995
v 0 0.962796 0.07064799999999995
v 0 0.913826 0.07064799999999995
v 0 0.899605 0.03549199999999995
v 0 0.899605 0.03573599999999994
v 0.014743 1 0.07064799999999995
v 0.086174 1 0.07064799999999995
v 0.100395 1 0.03549199999999994
v 0.100395 1 0.035735999999999934
v 0.135338 1 0.035735999999999934
v 0.149559 1 0.0005799999999999387
v -0.175781 1.120437 0.10953499999999992
v -0.175122 1.048325 0.10953499999999992
v -0.255463 1.2152179999999997 -1.962402
v -0.254503 1.3181919999999998 -1.962402
v -0.208399 1.3601609999999997 -1.962402
v -0.129438 1.170753 0.10953499999999992
v -0.092048 0.928502 0.027709999999999943
v -0.156331 0.977429 0.02770999999999994
v -0.142549 0.97019 0.10953499999999994
v -0.094021 0.924316 0.10953499999999994
v -0.158836 1.009258 0.10953499999999994
v -0.031106 0.93488 0.027709999999999943
v -0.030865 0.934303 0.10953499999999994
v -0.059838 1.168772 0.10953499999999992
v -0.146135 1.3633679999999997 -1.962402
v -0.072316 1.2915689999999997 -1.962402
v -0.0075 1.110269 0.10953499999999992
v 0.026814 1.053779 0.027709999999999933
v 0.005968 1.077962 0.10953499999999992
v 0.016319 0.973679 0.02770999999999994
v 0.021922 0.972651 0.10953499999999994
v 0.022255 1.038894 0.10953499999999992
v -0.137233 1.023497 0.13986999999999994
v -0.080152 1.052527 0.15946199999999994
v -0.016873 1.073673 0.13986999999999994
v 0.05704 1.190726 -0.4196810000000001
v 0.099267 1.15787 -0.42166900000000007
v 0.093147 1.107336 0.11273399999999993
v 0.064604 1.134324 0.11429099999999993
v 0.098014 1.103434 -0.42166900000000007
v 0.096761 1.048998 0.029866999999999935
v 0.096319 1.044882 0.10990499999999993
v 0.062225 1.025447 0.16328699999999993
v 0.057461 1.119275 0.16753699999999994
v 0.0793 1.103102 0.15282799999999994
v 0.082249 1.045005 0.15019599999999994
v 0.070657 1.015117 0.10889099999999995
v -0.268889 1.034501 -0.4196810000000001
v -0.232854 0.990458 0.11429099999999995
v -0.232632 0.951176 0.11273399999999995
v -0.273726 0.981217 -0.42166900000000007
v -0.131679 1.147602 -0.4196810000000001
v -0.106935 1.096786 0.11429099999999993
v -0.151695 0.917841 0.16328699999999993
v -0.216982 0.985399 0.16753699999999994
v -0.1004 1.083366 0.16753699999999994
v -0.059292 0.998947 0.16328699999999993
v -0.179657 0.91657 0.15019599999999994
v -0.220082 0.958401 0.15282799999999994
v -0.189175 0.906208 0.10990499999999995
v -0.149908 0.904626 0.10889099999999995
v -0.054708 0.989534 0.10889099999999995
v 0.070122 1.018697 0.028771999999999937
v -0.056279 0.99276 0.028771999999999937
v -0.152157 0.907462 0.028771999999999943
v -0.192484 0.908696 0.029866999999999946
v 0.023426 1.066287 0.41071799999999997
v 0.00092 1.045259 0.4119689999999999
v -0.020103 1.067797 0.41258399999999995
v 0.002403 1.088824 0.41133299999999995
v 0.023426 1.066287 0.14844999999999994
v 0.00092 1.045259 0.14970099999999995
v 0.002403 1.088824 0.14906499999999995
v -0.020103 1.067797 0.15031599999999995
v 0.034476 1.065905 0.35750599999999993
v 0.000543 1.034202 0.3581349999999999
v -0.031152 1.068181 0.35844399999999993
v 0.00278 1.099884 0.35781499999999994
v 0.034476 1.065905 0.33054999999999995
v 0.000543 1.034202 0.3311779999999999
v 0.00278 1.099884 0.33085799999999993
v -0.031152 1.068181 0.3314869999999999
v -0.119976 0.987655 0.41071799999999997
v -0.142482 0.966627 0.4119689999999999
v -0.163505 0.989164 0.41258399999999995
v -0.140999 1.010192 0.41133299999999995
v -0.119976 0.987655 0.14844999999999994
v -0.142482 0.966627 0.14970099999999995
v -0.140999 1.010192 0.14906499999999995
v -0.163505 0.989164 0.15031599999999995
v -0.108926 0.987272 0.35750599999999993
v -0.142859 0.955569 0.3581349999999999
v -0.174554 0.989548 0.35844399999999993
v -0.140622 1.021251 0.35781499999999994
v -0.108926 0.987272 0.33054999999999995
v -0.142859 0.955569 0.3311779999999999
v -0.140622 1.021251 0.33085799999999993
v -0.174554 0.989548 0.3314869999999999
v 0 1.210352 -0.40984000000000004
v 0 1.151796 -0.40994200000000003
v -0.132492 1.125978 -0.40994200000000003
v -0.132492 1.184534 -0.40984000000000004
v 0 1.3668799999999999 -1.954437
v -0.132492 1.3410619999999998 -1.954437
v -1.03099 0.18055 0.01838299999999999
v -0.118941 1.092598 0.018382999999999934
v -0.100487 1.074144 0.06098899999999994
v -0.100487 1.074144 0.06098899999999994
v -0.525136 0.586744 0.07064799999999996
v -1.012537 0.162096 0.060988999999999995
v 0 1.042768 0.07064799999999993
v -0.525136 0.586744 0.07064799999999996
v -0.98116 0.130719 0.07064799999999999
v -0.774692 0.269585 0.07064799999999999
v -0.500171 0.561779 0.07064799999999997
v -0.207982 0.836295 0.07064799999999995
v -0.83914 0.12845 0.07064799999999999
v -0.774692 0.269585 0.07064799999999999
v -0.764636 0.259529 0.03549199999999999
v -0.829084 0.118394 0.035491999999999996
v -0.207982 0.836295 0.07064799999999995
v -0.197926 0.82624 0.035491999999999954
v -0.490115 0.551723 0.03549199999999997
v -0.500171 0.561779 0.07064799999999997
v -0.739928 0.234821 0.03573599999999998
v -0.465407 0.527015 0.03573599999999996
v -0.163162 0.791476 0.0005799999999999515
v -0.173218 0.801531 0.03573599999999995
v 0 0.864662 0.03573599999999994
v -0.864738 -7.599999999999782E-05 0.035736
v -0.804376 0.093685 0.03573599999999999
v -0.79432 0.08363 0.0005799999999999949
v -0.864738 -7.599999999999782E-05 0.035736
v -0.804376 0.093685 0.03573599999999999
v -0.739928 0.234821 0.03573599999999998
v -0.729873 0.224765 0.0005789999999999862
v -0.79432 0.08363 0.0005799999999999949
v -0.173218 0.801531 0.03573599999999995
v -0.163162 0.791476 0.0005799999999999515
v -0.455351 0.516959 0.0005789999999999683
v -0.465407 0.527015 0.03573599999999996
v -0.427204 0.9487 -0.5238830000000001
v -0.245462 1.2907869999999997 -1.954436
v -0.913051 0.446387 -0.40984
v -0.856434 0.487129 -0.29980400000000007
v -0.714514 0.614862 -0.20145000000000002
v -0.551141 0.7783 -0.20187400000000005
v -0.424084 0.919631 -0.30077800000000005
v -0.384004 0.975449 -0.4098530000000001
v -0.427204 0.9487 -0.5238830000000001
v -0.189208 1.143027 -0.40983800000000004
v -0.427204 0.9487 -0.5238830000000001
v -0.427204 0.9487 -0.5238830000000001
v -0.477363 0.880533 -0.3990810000000001
v -0.47122 0.836235 -0.40623400000000004
v -0.707274 0.639459 -0.32175300000000007
v -0.707274 0.639459 -0.32175300000000007
v -0.81887 0.539128 -0.39985100000000007
v -0.774578 0.532978 -0.40691800000000006
v -0.47122 0.836235 -0.40623400000000004
v -0.477363 0.880533 -0.3990810000000001
v -0.477363 0.880533 -0.3990810000000001
v -0.578222 0.768466 -0.32141800000000004
v -0.560726 0.736603 -0.33726000000000006
v -0.774578 0.532978 -0.40691800000000006
v -0.81887 0.539128 -0.39985100000000007
v -0.81887 0.539128 -0.39985100000000007
v -0.886386 0.48972899999999997 -0.525423
v -0.834691 0.4892389999999999 -0.51844
v -0.675362 0.622011 -0.3375580000000001
v -0.560726 0.736603 -0.33726000000000006
v -0.578222 0.768466 -0.32141800000000004
v -0.707274 0.639459 -0.32175300000000007
v -0.427204 0.9487 -0.5238830000000001
v -0.426804 0.896925 -0.517073
v -0.524412 0.9945329999999999 -1.942678
v -0.427204 0.9487 -0.5238830000000001
v -0.834691 0.4892389999999999 -0.51844
v -0.886386 0.48972899999999997 -0.525423
v -0.985819 0.5891619999999999 -1.950765
v -0.834691 0.4892389999999999 -0.51844
v -1.104937 0.254496 -0.40984
v -1.184694 0.3342519999999999 -1.942678
v -1.03099 0.18055 0.01838299999999999
v -1.111838 0.051187 0.018382999999999997
v -1.184694 0.3342519999999999 -1.942678
v -1.104937 0.254496 -0.40984
v -1.063531 0.21308999999999997 -0.409942
v -1.104937 0.254496 -0.40984
v -1.210443 0.06560099999999998 -0.40984
v -1.210443 0.06560099999999998 -0.40984
v -1.215619 0.36517699999999986 -1.954438
v -0.98116 0.130719 0.07064799999999999
v -0.895261 0.044820000000000006 0.070648
v -0.885205 0.034764 0.035492
v -0.913902 -7.599999999999568E-05 0.070648
v -0.895261 0.044820000000000006 0.070648
v -0.946396 0.095955 0.03573599999999999
v -0.864738 -7.599999999999782E-05 0.035736
v -0.899681 -7.599999999999784E-05 0.035492
v -1.000076 -0.08625 0.070648
v -0.913902 -7.599999999999568E-05 0.070648
v 0 0.913826 0.07064799999999995
v -0.056788 0.890689 0.03549199999999995
v 0 0.913826 0.07064799999999995
v 0 0.899605 0.03549199999999995
v 0 0.913826 0.07064799999999995
v 0.086174 1 0.07064799999999995
v 0 0.864662 0.03573599999999994
v 0 0.850441 0.000579999999999948
v 0 0.864662 0.03573599999999994
v 0.135338 1 0.035735999999999934
v 0 0.864662 0.03573599999999994
v 0 1.029915 0.035735999999999934
v 0 0.864662 0.03573599999999994
v -0.189208 1.143027 -0.40983800000000004
v -0.384004 0.975449 -0.4098530000000001
v -0.427204 0.9487 -0.5238830000000001
v -1.215619 0.36517699999999986 -1.954438
v -0.0075 1.110269 0.10953499999999992
v -0.158836 1.009258 0.10953499999999994
v -0.175122 1.048325 0.10953499999999992
v -0.175781 1.120437 0.10953499999999992
v -0.030865 0.934303 0.10953499999999994
v -0.016873 1.073673 0.13986999999999994
v 0.021922 0.972651 0.10953499999999994
v -0.030865 0.934303 0.10953499999999994
v -0.142549 0.97019 0.10953499999999994
v -0.158836 1.009258 0.10953499999999994
v -0.137233 1.023497 0.13986999999999994
v -0.137233 1.023497 0.13986999999999994
v -0.094021 0.924316 0.10953499999999994
v -0.142549 0.97019 0.10953499999999994
v -0.0075 1.110269 0.10953499999999992
v 0.005968 1.077962 0.10953499999999992
v -0.016873 1.073673 0.13986999999999994
v -0.059838 1.168772 0.10953499999999992
v -0.080152 1.052527 0.15946199999999994
v -0.129438 1.170753 0.10953499999999992
v 0.022255 1.038894 0.10953499999999992
v 0.021922 0.972651 0.10953499999999994
v -0.016873 1.073673 0.13986999999999994
v -0.016873 1.073673 0.13986999999999994
v 0.005968 1.077962 0.10953499999999992
v 0.022255 1.038894 0.10953499999999992
v -0.030865 0.934303 0.10953499999999994
v -0.094021 0.924316 0.10953499999999994
v -0.137233 1.023497 0.13986999999999994
v -0.137233 1.023497 0.13986999999999994
v -0.080152 1.052527 0.15946199999999994
v -0.030865 0.934303 0.10953499999999994
v 0.093147 1.107336 0.11273399999999993
v 0.099267 1.15787 -0.42166900000000007
v 0.057461 1.119275 0.16753699999999994
v 0.0793 1.103102 0.15282799999999994
v 0.082249 1.045005 0.15019599999999994
v 0.096319 1.044882 0.10990499999999993
v 0.062225 1.025447 0.16328699999999993
v -0.059292 0.998947 0.16328699999999993
v -0.216982 0.985399 0.16753699999999994
v -0.216982 0.985399 0.16753699999999994
v -0.151695 0.917841 0.16328699999999993
v -0.216982 0.985399 0.16753699999999994
v -0.220082 0.958401 0.15282799999999994
v -0.1004 1.083366 0.16753699999999994
v -0.179657 0.91657 0.15019599999999994
v -0.151695 0.917841 0.16328699999999993
v -0.189175 0.906208 0.10990499999999995
v -0.232632 0.951176 0.11273399999999995
v -0.059292 0.998947 0.16328699999999993
v 0.096761 1.048998 0.029866999999999935
v -0.192484 0.908696 0.029866999999999946
v -0.273726 0.981217 -0.42166900000000007
v 0.057461 1.119275 0.16753699999999994
v 0.062225 1.025447 0.16328699999999993
v -0.059292 0.998947 0.16328699999999993
v -0.1004 1.083366 0.16753699999999994
v -0.066844 0.900745 0.07064799999999995
v -0.83914 0.12845 0.07064799999999999
v -0.895261 0.044820000000000006 0.070648
v -1.000076 -0.135414 0.035736000000000004
v -0.864738 -7.599999999999782E-05 0.035736
v -0.850441 3.545352483531587E-20 0.000579
v 0.00092 1.045259 0.4119689999999999
v 0.023426 1.066287 0.41071799999999997
v 0.002403 1.088824 0.41133299999999995
v 0.002403 1.088824 0.14906499999999995
v 0.002403 1.088824 0.41133299999999995
v -0.020103 1.067797 0.41258399999999995
v -0.020103 1.067797 0.15031599999999995
v -0.020103 1.067797 0.41258399999999995
v 0.00092 1.045259 0.4119689999999999
v 0.00092 1.045259 0.14970099999999995
v 0.000543 1.034202 0.3581349999999999
v 0.034476 1.065905 0.35750599999999993
v 0.00278 1.099884 0.35781499999999994
v -0.031152 1.068181 0.35844399999999993
v 0.000543 1.034202 0.3581349999999999
v 0.000543 1.034202 0.3311779999999999
v -0.142482 0.966627 0.4119689999999999
v -0.119976 0.987655 0.41071799999999997
v -0.140999 1.010192 0.41133299999999995
v -0.140999 1.010192 0.14906499999999995
v -0.140999 1.010192 0.41133299999999995
v -0.163505 0.989164 0.41258399999999995
v -0.163505 0.989164 0.15031599999999995
v -0.163505 0.989164 0.41258399999999995
v -0.142482 0.966627 0.4119689999999999
v -0.142482 0.966627 0.14970099999999995
v -0.142859 0.955569 0.3581349999999999
v -0.108926 0.987272 0.35750599999999993
v -0.140622 1.021251 0.35781499999999994
v -0.174554 0.989548 0.35844399999999993
v -0.142859 0.955569 0.3581349999999999
v -0.142859 0.955569 0.3311779999999999
v 0 1.210352 -0.40984000000000004
v -0.132492 1.184534 -0.40984000000000004
v 0.023426 1.066287 0.14844999999999994
v 0.023426 1.066287 0.41071799999999997
v 0.023426 1.066287 0.14844999999999994
v 0.034476 1.065905 0.33054999999999995
v 0.034476 1.065905 0.35750599999999993
v 0.034476 1.065905 0.33054999999999995
v 0.00278 1.099884 0.33085799999999993
v 0.00278 1.099884 0.35781499999999994
v 0.00278 1.099884 0.33085799999999993
v -0.031152 1.068181 0.3314869999999999
v -0.031152 1.068181 0.35844399999999993
v -0.031152 1.068181 0.3314869999999999
v -0.119976 0.987655 0.14844999999999994
v -0.119976 0.987655 0.41071799999999997
v -0.119976 0.987655 0.14844999999999994
v -0.108926 0.987272 0.33054999999999995
v -0.108926 0.987272 0.35750599999999993
v -0.108926 0.987272 0.33054999999999995
v -0.140622 1.021251 0.33085799999999993
v -0.140622 1.021251 0.35781499999999994
v -0.140622 1.021251 0.33085799999999993
v -0.174554 0.989548 0.3314869999999999
v -0.174554 0.989548 0.35844399999999993
v -0.174554 0.989548 0.3314869999999999
vt 0.500000 1.000000
vt 1.000000 1.000000
vt 0.000000 0.500000
vt 0.000000 0.000000
vt 1.000000 0.000000
vt 0.320118 0.521330
vt 0.318966 0.462708
vt 0.325160 0.995048
vt 0.062505 0.998850
vt 0.080563 0.462706
vt 0.057462 0.521330
vt 0.319048 0.473103
vt 0.071436 0.483810
vt 0.199791 0.472963
vt 0.319362 0.500513
vt 0.088126 0.504550
vt 0.199807 0.481057
vt 0.318464 0.509102
vt 0.199795 0.489737
vt 0.098510 0.495947
vt 0.301189 0.496164
vt 0.099862 0.504292
vt 0.300094 0.504562
vt 0.125569 0.483781
vt 0.126347 0.492213
vt 0.274041 0.484342
vt 0.273291 0.492926
vt 0.189295 0.414585
vt 0.067215 0.424843
vt 0.304688 0.418052
vt 0.189406 0.420905
vt 0.118154 0.427770
vt 0.089079 0.443782
vt 0.089230 0.443859
vt 0.305410 0.440573
vt 0.286381 0.435286
vt 0.260927 0.424347
vt 0.092917 0.449170
vt 0.259884 0.430980
vt 0.189545 0.427679
vt 0.119567 0.434346
vt 0.302339 0.446609
vt 0.284936 0.441840
vt 0.733009 0.631387
vt 0.588061 0.992197
vt 0.497853 0.998336
vt 0.587460 0.872704
vt 0.590003 0.915096
vt 0.589984 0.787179
vt 0.587454 0.829567
vt 0.572519 0.874417
vt 0.575264 0.920908
vt 0.575234 0.781490
vt 0.572514 0.827849
vt 0.596408 0.759043
vt 0.661153 0.629399
vt 0.599636 0.611171
vt 0.571983 0.629730
vt 0.633331 0.611036
vt 0.879377 0.999721
vt 0.852401 0.998223
vt 0.557637 0.998236
vt 0.676595 0.998039
vt 0.596861 0.943370
vt 0.556749 0.659521
vt 0.676635 0.658957
vt 0.745311 0.997200
vt 0.576257 0.728159
vt 0.574495 0.989736
vt 0.581127 0.753226
vt 0.581672 0.949459
vt 0.861610 0.683687
vt 0.869833 0.684981
vt 0.869895 0.656557
vt 0.861711 0.655208
vt 0.870083 0.628479
vt 0.861569 0.627137
vt 0.862781 0.995907
vt 0.868975 0.997453
vt -0.001336 0.997206
vt 0.026398 0.521330
vt 0.649482 0.921187
vt 0.438716 0.996022
vt 0.639242 0.915053
vt 0.111241 0.044149
vt 0.114018 0.054703
vt 0.171142 0.060580
vt 0.146821 0.084840
vt 0.143972 0.095191
vt 0.076914 0.044819
vt 0.073425 0.054703
vt 0.098510 0.495947
vt 0.099862 0.504292
vt 0.092370 0.038934
vt 0.088126 0.504550
vt 0.092161 0.510767
vt 0.191756 0.076840
vt 0.081548 0.034210
vt 0.066589 0.049081
vt 0.063618 0.059889
vt 0.149863 0.076840
vt 0.142573 0.084121
vt 0.139606 0.094901
vt 0.917680 0.462430
vt 0.899370 0.460823
vt 0.899370 0.987244
vt 0.925436 0.989461
vt 0.941436 0.990199
vt 0.935325 0.463340
vt 0.629245 0.652251
vt 0.627774 0.631343
vt 0.607360 0.636593
vt 0.608576 0.653299
vt 0.606113 0.625932
vt 0.630317 0.668793
vt 0.609638 0.669206
vt 0.953385 0.463041
vt 0.957686 0.990114
vt 0.983902 0.987790
vt 0.974109 0.462126
vt 0.628731 0.707505
vt 0.607007 0.713129
vt 0.630070 0.685720
vt 0.609343 0.685471
vt 0.608499 0.702184
vt 0.939301 0.418107
vt 0.937039 0.434253
vt 0.937289 0.451356
vt 0.090357 0.406383
vt 0.100575 0.404933
vt 0.098590 0.272346
vt 0.091727 0.273543
vt 0.120806 0.370735
vt 0.121709 0.255686
vt 0.120339 0.235458
vt 0.123540 0.217454
vt 0.097432 0.219071
vt 0.102675 0.224739
vt 0.118841 0.223738
vt 0.019860 0.237145
vt 0.022879 0.406684
vt 0.020953 0.273858
vt 0.013819 0.272723
vt 0.012331 0.405326
vt 0.056618 0.406534
vt 0.056340 0.273701
vt 0.086750 0.221144
vt 0.085991 0.198767
vt 0.053944 0.198767
vt 0.053944 0.221144
vt 0.140180 0.371862
vt 0.124012 0.370811
vt 0.097472 0.236398
vt 0.088444 0.237186
vt 0.054152 0.237165
vt 0.019635 0.255918
vt 0.054146 0.255939
vt 0.088658 0.255961
vt 0.098322 0.255622
vt 0.179955 0.305368
vt 0.179829 0.296857
vt 0.171318 0.296983
vt 0.171444 0.305494
vt 0.190031 0.308555
vt 0.181263 0.308875
vt 0.199588 0.308712
vt 0.210312 0.309033
vt 0.184042 0.409678
vt 0.183835 0.395615
vt 0.169772 0.395822
vt 0.169979 0.409885
vt 0.212546 0.392643
vt 0.227084 0.392449
vt 0.197872 0.392761
vt 0.183180 0.392623
vt 0.179955 0.305368
vt 0.179829 0.296857
vt 0.171318 0.296983
vt 0.171444 0.305494
vt 0.190031 0.308555
vt 0.181263 0.308875
vt 0.199588 0.308712
vt 0.210312 0.309033
vt 0.184042 0.409678
vt 0.183835 0.395615
vt 0.169772 0.395822
vt 0.169979 0.409885
vt 0.212546 0.392643
vt 0.227084 0.392449
vt 0.197872 0.392761
vt 0.183180 0.392623
vt 0.590346 0.988038
vt 0.576780 0.985577
vt 0.576780 0.985577
vt 0.590346 0.988038
vt 0.501833 0.996050
vt 0.469871 0.995431
vt 0.318968 0.451372
vt 0.080561 0.451372
vt 0.080563 0.462706
vt 0.080563 0.462706
vt 0.199791 0.472963
vt 0.318966 0.462708
vt 0.071436 0.483810
vt 0.199791 0.472963
vt 0.319048 0.473103
vt 0.274041 0.484342
vt 0.199807 0.481057
vt 0.125569 0.483781
vt 0.301189 0.496164
vt 0.274041 0.484342
vt 0.273291 0.492926
vt 0.300094 0.504562
vt 0.125569 0.483781
vt 0.126347 0.492213
vt 0.199795 0.489737
vt 0.199807 0.481057
vt 0.260927 0.424347
vt 0.189406 0.420905
vt 0.119567 0.434346
vt 0.118154 0.427770
vt 0.089079 0.443782
vt 0.305410 0.440573
vt 0.286381 0.435286
vt 0.284936 0.441840
vt 0.305410 0.440573
vt 0.286381 0.435286
vt 0.260927 0.424347
vt 0.259884 0.430980
vt 0.284936 0.441840
vt 0.118154 0.427770
vt 0.119567 0.434346
vt 0.189545 0.427679
vt 0.189406 0.420905
vt 0.676635 0.658957
vt 0.745311 0.997200
vt 0.547579 0.632138
vt 0.560264 0.606033
vt 0.595449 0.582660
vt 0.638121 0.582691
vt 0.673191 0.606077
vt 0.685739 0.631912
vt 0.676635 0.658957
vt 0.589785 0.725478
vt 0.879331 0.688496
vt 0.879331 0.688496
vt 0.878662 0.658903
vt 0.869895 0.656557
vt 0.853143 0.627964
vt 0.853143 0.627964
vt 0.852946 0.657510
vt 0.861711 0.655208
vt 0.869895 0.656557
vt 0.878662 0.658903
vt 0.878662 0.658903
vt 0.878515 0.629317
vt 0.870083 0.628479
vt 0.861711 0.655208
vt 0.852946 0.657510
vt 0.852946 0.657510
vt 0.852115 0.687194
vt 0.861610 0.683687
vt 0.861569 0.627137
vt 0.861527 0.599349
vt 0.853189 0.597627
vt 0.853143 0.627964
vt 0.879331 0.688496
vt 0.869833 0.684981
vt 0.868975 0.997453
vt 0.879331 0.688496
vt 0.861610 0.683687
vt 0.852115 0.687194
vt 0.852401 0.998223
vt 0.861610 0.683687
vt 0.497468 0.632221
vt 0.062505 0.998850
vt 0.057462 0.521330
vt 0.026398 0.521330
vt 0.062505 0.998850
vt 0.650820 0.877104
vt 0.639242 0.880006
vt 0.497468 0.632221
vt 0.458882 0.630928
vt 0.458882 0.630928
vt 0.497853 0.998336
vt 0.062596 0.006166
vt 0.063954 0.040825
vt 0.062715 0.051774
vt 0.076914 0.044819
vt 0.063954 0.040825
vt 0.203851 0.049393
vt 0.200921 0.084880
vt 0.073425 0.054703
vt 0.111241 0.044149
vt 0.076914 0.044819
vt 0.088126 0.504550
vt 0.099862 0.504292
vt 0.102548 0.049143
vt 0.105511 0.059889
vt 0.102548 0.049143
vt 0.066589 0.049081
vt 0.199047 0.084121
vt 0.202014 0.094901
vt 0.199047 0.084121
vt 0.142573 0.084121
vt 0.089079 0.443782
vt 0.067215 0.424843
vt 0.089079 0.443782
vt 0.733009 0.631387
vt 0.685739 0.631912
vt 0.676635 0.658957
vt 0.497853 0.998336
vt 0.605166 0.723057
vt 0.941106 0.408349
vt 0.929249 0.408516
vt 0.910584 0.415088
vt 0.972872 0.436392
vt 0.937289 0.451356
vt 0.966947 0.454002
vt 0.972872 0.436392
vt 0.952891 0.410393
vt 0.941106 0.408349
vt 0.939301 0.418107
vt 0.939301 0.418107
vt 0.969162 0.418629
vt 0.952891 0.410393
vt 0.928131 0.459197
vt 0.938009 0.460949
vt 0.937289 0.451356
vt 0.908457 0.450810
vt 0.937039 0.434253
vt 0.901240 0.432398
vt 0.949940 0.460033
vt 0.966947 0.454002
vt 0.937289 0.451356
vt 0.937289 0.451356
vt 0.938009 0.460949
vt 0.949940 0.460033
vt 0.972872 0.436392
vt 0.969162 0.418629
vt 0.939301 0.418107
vt 0.939301 0.418107
vt 0.937039 0.434253
vt 0.972872 0.436392
vt 0.102961 0.236534
vt 0.105795 0.372758
vt 0.089810 0.259783
vt 0.095102 0.262401
vt 0.014232 0.226526
vt 0.010827 0.236348
vt 0.021388 0.224176
vt 0.053944 0.221144
vt 0.085991 0.198767
vt 0.118664 0.376471
vt 0.144776 0.378168
vt 0.022722 0.260082
vt 0.017267 0.262748
vt 0.056266 0.259933
vt 0.094082 0.226574
vt 0.086927 0.224218
vt 0.141686 0.360149
vt 0.124306 0.359020
vt 0.054157 0.224197
vt 0.009977 0.255576
vt 0.142902 0.339945
vt 0.126130 0.222937
vt 0.021896 0.198767
vt 0.021138 0.221144
vt 0.053944 0.221144
vt 0.053944 0.198767
vt 0.098510 0.495947
vt 0.301189 0.496164
vt 0.319362 0.500513
vt 0.146821 0.084840
vt 0.200921 0.084880
vt 0.203788 0.095191
vt 0.181263 0.376067
vt 0.190031 0.375747
vt 0.199588 0.375904
vt 0.201545 0.308712
vt 0.201545 0.375904
vt 0.210312 0.376225
vt 0.171315 0.309033
vt 0.171315 0.376225
vt 0.180089 0.376067
vt 0.180089 0.308875
vt 0.227086 0.384034
vt 0.212494 0.384228
vt 0.197818 0.384346
vt 0.183156 0.384207
vt 0.168562 0.384408
vt 0.168608 0.392824
vt 0.181263 0.376067
vt 0.190031 0.375747
vt 0.199588 0.375904
vt 0.201545 0.308712
vt 0.201545 0.375904
vt 0.210312 0.376225
vt 0.171315 0.309033
vt 0.171315 0.376225
vt 0.180089 0.376067
vt 0.180089 0.308875
vt 0.227086 0.384034
vt 0.212494 0.384228
vt 0.197818 0.384346
vt 0.183156 0.384207
vt 0.168562 0.384408
vt 0.168608 0.392824
vt 0.501833 0.626710
vt 0.469872 0.626091
vt 0.190031 0.308555
vt 0.190031 0.375747
vt 0.190031 0.308555
vt 0.212546 0.392643
vt 0.212494 0.384228
vt 0.212546 0.392643
vt 0.197872 0.392761
vt 0.197818 0.384346
vt 0.197872 0.392761
vt 0.183180 0.392623
vt 0.183156 0.384207
vt 0.183180 0.392623
vt 0.190031 0.308555
vt 0.190031 0.375747
vt 0.190031 0.308555
vt 0.212546 0.392643
vt 0.212494 0.384228
vt 0.212546 0.392643
vt 0.197872 0.392761
vt 0.197818 0.384346
vt 0.197872 0.392761
vt 0.183180 0.392623
vt 0.183156 0.384207
vt 0.183180 0.392623
vn 0 6.123233995736766E-17 1
vn 0 6.123233995736766E-17 1
vn 0 6.123233995736766E-17 1
vn 0 6.123233995736766E-17 1
vn 0 6.123233995736766E-17 1
vn -0.702802 0.702803 0.11016799999999996
vn -0.60298 0.60298 0.522331
vn -0.702802 0.702803 0.11016799999999996
vn -0.702802 0.702803 0.11016799999999996
vn -0.60298 0.60298 0.522331
vn -0.702802 0.702803 0.11016799999999996
vn -0.150401 0.15040100000000006 0.977118
vn -0.070291 0.08094400000000006 0.994237
vn -0.070291 0.08094400000000006 0.994237
vn 0.771791 -0.517926 0.36890600000000007
vn 0 6.123233995736766E-17 1
vn 0 6.123233995736766E-17 1
vn 0.771791 -0.517926 0.36890600000000007
vn 0.675664 -0.634801 0.37484100000000004
vn 0.388422 -0.850603 0.3544050000000001
vn 0.771791 -0.517926 0.36890600000000007
vn 0.388422 -0.850603 0.3544050000000001
vn 0.771791 -0.517926 0.36890600000000007
vn 0 6.123233995736766E-17 1
vn 0.388422 -0.850603 0.3544050000000001
vn -0 6.123233995736766E-17 1
vn 0.675664 -0.634801 0.37484100000000004
vn 4E-06 -4.999999999938768E-06 1
vn -1E-06 1.0000000000612324E-06 1
vn 1E-06 -9.999999999387675E-07 1
vn 4E-06 -4.999999999938768E-06 1
vn 4E-06 -4.999999999938768E-06 1
vn 0.317667 -0.879008 0.35557400000000006
vn 0.970143 1.4851046803900124E-17 0.242536
vn 1E-06 -9.999999999387675E-07 1
vn 1E-06 -9.999999999387675E-07 1
vn 5E-06 -3.999999999938768E-06 1
vn 0.317667 -0.879008 0.35557400000000006
vn 0.675666 -0.634802 0.37483600000000006
vn 0.675666 -0.634801 0.37483800000000006
vn 0.317667 -0.879008 0.35557400000000006
vn 0.787001 -0.528134 0.31890900000000005
vn 0.781934 -0.503401 0.36765000000000003
vn -0.656625 0.748149 0.09548399999999996
vn 0.001224 -0.0012299999999999388 0.999999
vn -0.868927 0.485334 0.09704299999999998
vn -0.376907 -0.03886499999999994 0.925435
vn -0.745356 -0.14097499999999996 0.651591
vn 0.15143 0.626866 0.76427
vn -0.043542 0.25544900000000004 0.965841
vn -0.252637 0.04607800000000006 0.966463
vn -0.611554 -0.14673999999999995 0.777476
vn 0.143072 0.746893 0.64937
vn 0.041252 0.37961000000000006 0.924226
vn 0.085275 0.48357200000000006 0.871141
vn -0.703465 0.703446 0.10149499999999996
vn -0.703465 0.703446 0.10149599999999996
vn -0.703464 0.703446 0.10149499999999996
vn -0.703464 0.703446 0.10149499999999996
vn -0.997189 -0.033040999999999994 0.067254
vn 6.7E-05 0.997576 0.06958699999999994
vn -0.703517 0.703498 0.10076799999999995
vn -0.64174 0.760337 0.10028999999999996
vn -0.503432 -0.06031899999999994 0.861927
vn -0.703464 0.703446 0.10149499999999996
vn -0.656625 0.748149 0.09548399999999996
vn -0.656625 0.748149 0.09548399999999996
vn 0.00106 -0.0013049999999999388 0.999999
vn 0.001229 -0.0012379999999999388 0.999999
vn 0.057944 0.48144200000000004 0.87456
vn -0.482445 -0.08410899999999995 0.871879
vn 0.064393 0.916741 -0.39425800000000005
vn -0.914903 -0.059583000000000025 -0.399252
vn -0.914903 -0.059583000000000025 -0.399252
vn -0.033175 0.636966 -0.770177
vn -0.635175 0.03651299999999995 -0.771505
vn -0.033175 0.636966 -0.770177
vn 0.03487 0.997218 0.06588999999999995
vn -0.997657 0.0012830000000000042 0.068395
vn -0.886337 0.452499 0.09824399999999997
vn -0.843108 0.526914 0.10737899999999997
vn 0.001745 -0.0009739999999999388 0.999998
vn -0.888927 0.449102 0.09008299999999997
vn 0.001543 -0.0009239999999999388 0.999998
vn 0 6.123233995736766E-17 1
vn 0.679844 -0.679841 0.27500700000000006
vn 2E-06 -9.999999999387675E-07 1
vn 1E-06 -9.999999999387675E-07 1
vn 0.679845 -0.679841 0.27500300000000005
vn 0 6.123233995736766E-17 1
vn 0.865075 -0.35943 0.349937
vn 0.182069 -0.930378 0.31819500000000006
vn 0.182069 -0.930378 0.31819500000000006
vn 0 6.123233995736766E-17 1
vn 0.182069 -0.930378 0.31819500000000006
vn 0.144022 -0.917362 0.37108700000000006
vn 0 6.123233995736766E-17 1
vn 0 6.123233995736766E-17 1
vn 0 6.123233995736766E-17 1
vn 0.679844 -0.679841 0.27500700000000006
vn 0 6.123233995736766E-17 1
vn 0 6.123233995736766E-17 1
vn 0.679843 -0.679842 0.27500600000000003
vn -0.765837 0.2671140000000001 0.58493
vn -0.693509 -0.006337999999999956 0.72042
vn -0.999261 8.800000000000236E-05 0.038433
vn -0.910636 0.406636 0.07340999999999998
vn -0.384678 0.917613 0.10004399999999994
vn -0.30384 0.720225 0.623664
vn -0.426868 -0.90396 -0.025305999999999943
vn -0.788437 -0.610042 0.07883400000000004
vn -0.756997 -0.652545 0.03376700000000004
vn -0.155283 -0.987064 -0.03990199999999994
vn -0.685342 -0.20227999999999993 0.699564
vn 0.383468 -0.923064 -0.030100999999999944
vn 0.382535 -0.923909 -0.007643999999999943
vn 0.364609 0.79405 0.48635999999999996
vn 0.352147 0.933096 0.07296899999999995
vn 0.721211 0.691745 0.03665399999999996
vn 0.779858 0.486353 0.39405899999999994
vn 0.971395 0.218155 0.09381199999999999
vn 0.883634 0.368372 0.288951
vn 0.944437 -0.327098 -0.03234899999999998
vn 0.812328 -0.581289 -0.04718299999999997
vn 0.99599 0.084729 0.028721999999999998
vn -0.606122 0.007852000000000048 0.795333
vn 0.35778 -0.23274999999999996 0.904334
vn 0.35778 -0.23274999999999996 0.904334
vn 0.242755 0.964959 0.09961699999999994
vn 0.903189 0.426245 0.05064799999999997
vn 0.90216 0.404591 0.14971099999999998
vn 0.264664 0.94393 0.19735699999999995
vn 0.999872 0.013236 0.009008
vn 0.979891 -0.199481 -0.004604999999999988
vn 0.930117 -0.332494 0.15598200000000004
vn 0.504076 -0.748676 0.43057200000000007
vn 0.434636 0.683007 0.58702
vn 0.850842 0.19286300000000003 0.488745
vn 0.786293 -0.27544599999999997 0.553057
vn 0.504369 -0.857316 0.10305500000000005
vn -0.947701 0.305696 0.09171999999999998
vn -0.850409 0.494443 0.17980599999999997
vn -0.932005 -0.320219 0.16978100000000002
vn -0.939275 -0.33902 0.05316900000000002
vn -0.510995 0.853011 0.10610199999999995
vn -0.403803 0.89356 0.19619799999999996
vn 0.029847 -0.03400399999999994 0.998976
vn 0.02999 -0.035688999999999936 0.998913
vn 0.02999 -0.035688999999999936 0.998913
vn 0.02999 -0.035688999999999936 0.998913
vn -0.335768 -0.762487 0.553058
vn -0.721946 -0.4898179999999999 0.48874600000000007
vn -0.392317 -0.906508 0.15598100000000006
vn 0.255833 -0.957626 0.13229400000000005
vn 0.481058 -0.871406 0.09609700000000006
vn 0.5978 -0.800739 -0.03811899999999995
vn 0.365984 -0.929523 -0.04519799999999995
vn 0.3385 -0.940074 -0.040970999999999945
vn -0.52075 -0.853706 -0.0022839999999999475
vn 0.714926 -0.24660699999999997 0.654267
vn -0.303889 -0.858934 0.41216900000000006
vn -0.682226 0.27339300000000005 0.678103
vn 0.332732 0.852176 0.4038379999999999
vn 0.959054 0.283222 -1.7342345787405582E-17
vn 0.283688 -0.958917 5.871673173489912E-17
vn -0.283687 0.958917 -5.871673173489912E-17
vn -0.959054 -0.283223 1.7342407019745542E-17
vn 0.70419 -0.25528599999999996 0.66253
vn -0.313616 -0.856611 0.40970900000000005
vn -0.693284 0.26421400000000006 0.670483
vn 0.323238 0.854357 0.40692899999999993
vn 0.959054 0.283223 -1.7342407019745542E-17
vn 0.283689 -0.958916 5.871667050255916E-17
vn -0.283688 0.958916 -5.871667050255916E-17
vn -0.959054 -0.283223 1.7342407019745542E-17
vn 0.714926 -0.24660799999999997 0.654267
vn -0.303888 -0.858935 0.41216900000000006
vn -0.682226 0.27339300000000005 0.678103
vn 0.332733 0.852176 0.40383899999999995
vn 0.959054 0.283222 -1.7342345787405582E-17
vn 0.283689 -0.958916 5.871667050255916E-17
vn -0.283687 0.958917 -5.871673173489912E-17
vn -0.959054 -0.283224 1.7342468252085496E-17
vn 0.70419 -0.25528499999999993 0.66253
vn -0.313616 -0.856612 0.40970900000000005
vn -0.693284 0.26421500000000003 0.670484
vn 0.323238 0.854357 0.40692899999999993
vn 0.959054 0.283224 -1.7342468252085496E-17
vn 0.283689 -0.958916 5.871667050255916E-17
vn -0.283688 0.958917 -5.871673173489912E-17
vn -0.959054 -0.283223 1.7342407019745542E-17
vn 0.00034 -0.0017429999999999388 0.999998
vn 0.00034 -0.0017429999999999388 0.999998
vn 0.00034 -0.0017429999999999388 0.999998
vn 0.00034 -0.0017429999999999388 0.999998
vn -0.190327 0.976718 0.09897999999999994
vn -0.190327 0.976718 0.09897999999999994
vn -0.60298 0.60298 0.522331
vn -0.60298 0.60298 0.522331
vn -0.070291 0.08094400000000006 0.994237
vn -0.150401 0.15040100000000006 0.977118
vn -0.150401 0.15040100000000006 0.977118
vn -0.150394 0.15039400000000006 0.97712
vn 0 6.123233995736766E-17 1
vn 0 6.123233995736766E-17 1
vn 1E-06 -1.9999999999387675E-06 1
vn 0.675664 -0.634801 0.37484100000000004
vn 0.675664 -0.634801 0.37484100000000004
vn 0.388422 -0.850603 0.3544050000000001
vn 0.850606 -0.388415 0.354407
vn 0.850606 -0.388415 0.354407
vn 0.850606 -0.388415 0.354407
vn 0.850606 -0.388416 0.354404
vn 0.6348 -0.675666 0.37484000000000006
vn 0.6348 -0.675666 0.37484000000000006
vn 0.6348 -0.675666 0.37484000000000006
vn 0.6348 -0.675665 0.37484100000000004
vn 0.675666 -0.634801 0.37483800000000006
vn 0.675666 -0.634801 0.37483800000000006
vn 0.321493 -0.88211 0.34427300000000005
vn 0.321493 -0.88211 0.34427300000000005
vn 0.321493 -0.88211 0.34427300000000005
vn 0.781934 -0.503401 0.36765000000000003
vn 0.781934 -0.503401 0.36765000000000003
vn 0.787001 -0.528134 0.31890900000000005
vn 0.787001 -0.528134 0.31890900000000005
vn 0.850607 -0.388417 0.354401
vn 0.850607 -0.388417 0.354401
vn 0.850607 -0.388417 0.354401
vn 0.850607 -0.388416 0.354403
vn 0.6348 -0.675666 0.37483900000000003
vn 0.6348 -0.675666 0.37483900000000003
vn 0.6348 -0.675666 0.37483900000000003
vn 0.634801 -0.675666 0.37483800000000006
vn -0.64174 0.760337 0.10028999999999996
vn -0.64174 0.760337 0.10028999999999996
vn -0.703464 0.703446 0.10149499999999996
vn -0.703464 0.703446 0.10149599999999996
vn -0.703465 0.703446 0.10149499999999996
vn -0.703464 0.703446 0.10149499999999996
vn -0.703465 0.703446 0.10149499999999996
vn -0.703465 0.703446 0.10149499999999996
vn -0.703465 0.703446 0.10149499999999996
vn 0.001074 -0.0013339999999999388 0.999999
vn -0.914903 -0.059583000000000025 -0.399252
vn -0.913917 -0.061950000000000026 -0.401145
vn -0.913917 -0.061950000000000026 -0.401145
vn -0.913917 -0.061950000000000026 -0.401145
vn -0.033175 0.636966 -0.770177
vn -0.034317 0.637376 -0.769788
vn -0.034317 0.637376 -0.769788
vn -0.034317 0.637376 -0.769788
vn -0.635175 0.03651299999999995 -0.771505
vn -0.635175 0.03651299999999995 -0.771505
vn -0.634299 0.035678999999999954 -0.772264
vn -0.634299 0.035678999999999954 -0.772264
vn -0.634299 0.035678999999999954 -0.772264
vn 0.064393 0.916741 -0.39425800000000005
vn 0.064393 0.916741 -0.39425800000000005
vn 0.061928 0.917005 -0.39404000000000006
vn 0.061928 0.917005 -0.39404000000000006
vn 0.061928 0.917005 -0.39404000000000006
vn -0.290728 0.29320599999999997 -0.910773
vn -0.290728 0.29320599999999997 -0.910773
vn -0.290728 0.29320599999999997 -0.910773
vn -0.290746 0.29321699999999995 -0.910764
vn -0.997657 0.0012830000000000042 0.068395
vn -0.997657 0.0012830000000000042 0.068395
vn -0.997189 -0.033040999999999994 0.067254
vn -0.997189 -0.033040999999999994 0.067254
vn 6.7E-05 0.997576 0.06958699999999994
vn 6.7E-05 0.997576 0.06958699999999994
vn 0.03487 0.997218 0.06588999999999995
vn 0.03487 0.997218 0.06588999999999995
vn -0.703465 0.703446 0.10149399999999996
vn -0.843108 0.526914 0.10737899999999997
vn -0.843108 0.526914 0.10737899999999997
vn -0.886337 0.452499 0.09824399999999997
vn -0.886337 0.452499 0.09824399999999997
vn 0.001543 -0.0009239999999999388 0.999998
vn 0.001543 -0.0009239999999999388 0.999998
vn -0.868927 0.485334 0.09704299999999998
vn -0.868927 0.485334 0.09704299999999998
vn -0.888927 0.449102 0.09008299999999997
vn -0.888927 0.449102 0.09008299999999997
vn 0 6.123233995736766E-17 1
vn 0 6.123233995736766E-17 1
vn 0.865075 -0.35943 0.349937
vn 0.865075 -0.35943 0.349937
vn 0.865077 -0.359183 0.350183
vn 1E-06 -9.999999999387675E-07 1
vn 1E-06 -9.999999999387675E-07 1
vn 0.679844 -0.679841 0.27500700000000006
vn 0.679844 -0.679841 0.27500700000000006
vn 0.679844 -0.67984 0.27500700000000006
vn 0.144022 -0.917362 0.37108700000000006
vn 0.144022 -0.917362 0.37108700000000006
vn 0 6.123233995736766E-17 1
vn 0.679844 -0.679841 0.27500600000000003
vn 0.679844 -0.679841 0.27500600000000003
vn 0.679844 -0.679841 0.27500600000000003
vn 0 6.123233995736766E-17 1
vn 0.679843 -0.679841 0.27500900000000006
vn 0.679843 -0.679841 0.27500900000000006
vn 0.679843 -0.679841 0.27500900000000006
vn -1E-06 1.0000000000612324E-06 1
vn 0.970143 1.4851046803900124E-17 0.242536
vn 0.970143 1.4851046803900124E-17 0.242536
vn -0.650603 0.75627 0.06907699999999996
vn -0.650603 0.75627 0.06907699999999996
vn -0.650603 0.75627 0.06907699999999996
vn -0.703517 0.703498 0.10076799999999995
vn 0.779858 0.486353 0.39405899999999994
vn -0.685342 -0.20227999999999993 0.699564
vn -0.693509 -0.006337999999999956 0.72042
vn -0.765837 0.2671140000000001 0.58493
vn 0.35778 -0.23274999999999996 0.904334
vn 0.163799 -0.22547399999999995 0.960381
vn 0.163799 -0.22547399999999995 0.960381
vn 0.163799 -0.22547399999999995 0.960381
vn -0.707464 -0.2949339999999999 0.642268
vn -0.707464 -0.2949339999999999 0.642268
vn -0.707464 -0.2949339999999999 0.642268
vn -0.399776 -0.42289899999999997 0.813225
vn -0.399776 -0.42289899999999997 0.813225
vn -0.399776 -0.42289899999999997 0.813225
vn 0.779858 0.486353 0.39405899999999994
vn 0.883634 0.368372 0.288951
vn 0.492265 0.39454800000000007 0.775891
vn 0.364609 0.79405 0.48635999999999996
vn -0.128652 0.29885900000000004 0.945586
vn -0.30384 0.720225 0.623664
vn 0.610989 -0.0030719999999999515 0.791633
vn 0.610989 -0.0030719999999999515 0.791633
vn 0.610989 -0.0030719999999999515 0.791633
vn 0.738615 0.30792100000000006 0.599694
vn 0.738615 0.30792100000000006 0.599694
vn 0.738615 0.30792100000000006 0.599694
vn 0.04346 -0.27483499999999994 0.960509
vn 0.04346 -0.27483499999999994 0.960509
vn 0.04346 -0.27483499999999994 0.960509
vn -0.095613 -0.42081699999999994 0.902093
vn -0.095613 -0.42081699999999994 0.902093
vn -0.095613 -0.42081699999999994 0.902093
vn 0.90216 0.404591 0.14971099999999998
vn 0.903189 0.426245 0.05064799999999997
vn 0.434636 0.683007 0.58702
vn 0.850842 0.19286300000000003 0.488745
vn 0.786293 -0.27544599999999997 0.553057
vn 0.930117 -0.332494 0.15598200000000004
vn 0.504076 -0.748676 0.43057200000000007
vn 0.029847 -0.03400399999999994 0.998976
vn 0.029847 -0.03400399999999994 0.998976
vn -0.808439 0.12037000000000005 0.57614
vn 0.260969 -0.86075 0.43704100000000007
vn -0.808439 0.12037000000000005 0.57614
vn -0.721946 -0.4898179999999999 0.48874600000000007
vn -0.428585 0.862241 0.26991799999999994
vn -0.335768 -0.762487 0.553058
vn 0.260969 -0.86075 0.43704100000000007
vn -0.392317 -0.906508 0.15598100000000006
vn -0.932005 -0.320219 0.16978100000000002
vn 0.442605 -0.876575 0.18898900000000005
vn 0.979891 -0.199481 -0.004604999999999988
vn -0.52075 -0.853706 -0.0022839999999999475
vn -0.939275 -0.33902 0.05316900000000002
vn 0.00976 -0.04475499999999994 0.99895
vn 0.00976 -0.04475499999999994 0.99895
vn 0.00976 -0.04475499999999994 0.99895
vn 0.010299 -0.045277999999999936 0.998921
vn 0 6.123233995736766E-17 1
vn 0 6.123233995736766E-17 1
vn 0 6.123233995736766E-17 1
vn 0.679845 -0.679841 0.27500300000000005
vn 0.679845 -0.679841 0.27500300000000005
vn 0.679845 -0.679841 0.27500300000000005
vn -0.303889 -0.858934 0.41216900000000006
vn 0.714926 -0.24660699999999997 0.654267
vn 0.332732 0.852176 0.4038379999999999
vn -0.283687 0.958917 -5.871673173489912E-17
vn 0.332732 0.852176 0.4038379999999999
vn -0.682226 0.27339300000000005 0.678103
vn -0.959054 -0.283223 1.7342407019745542E-17
vn -0.682226 0.27339300000000005 0.678103
vn -0.303889 -0.858934 0.41216900000000006
vn 0.283688 -0.958917 5.871673173489912E-17
vn -0.313616 -0.856611 0.40970900000000005
vn 0.70419 -0.25528599999999996 0.66253
vn 0.323238 0.854357 0.40692899999999993
vn -0.693284 0.26421400000000006 0.670483
vn -0.313616 -0.856611 0.40970900000000005
vn 0.283689 -0.958916 5.871667050255916E-17
vn -0.303888 -0.858935 0.41216900000000006
vn 0.714926 -0.24660799999999997 0.654267
vn 0.332733 0.852176 0.40383899999999995
vn -0.283687 0.958917 -5.871673173489912E-17
vn 0.332733 0.852176 0.40383899999999995
vn -0.682226 0.27339300000000005 0.678103
vn -0.959054 -0.283224 1.7342468252085496E-17
vn -0.682226 0.27339300000000005 0.678103
vn -0.303888 -0.858935 0.41216900000000006
vn 0.283689 -0.958916 5.871667050255916E-17
vn -0.313616 -0.856612 0.40970900000000005
vn 0.70419 -0.25528499999999993 0.66253
vn 0.323238 0.854357 0.40692899999999993
vn -0.693284 0.26421500000000003 0.670484
vn -0.313616 -0.856612 0.40970900000000005
vn 0.283689 -0.958916 5.871667050255916E-17
vn -0.190327 0.976718 0.09897999999999994
vn -0.190327 0.976718 0.09897999999999994
vn 0.959054 0.283222 -1.7342345787405582E-17
vn 0.714926 -0.24660699999999997 0.654267
vn 0.959054 0.283222 -1.7342345787405582E-17
vn 0.959054 0.283223 -1.7342407019745542E-17
vn 0.70419 -0.25528599999999996 0.66253
vn 0.959054 0.283223 -1.7342407019745542E-17
vn -0.283688 0.958916 -5.871667050255916E-17
vn 0.323238 0.854357 0.40692899999999993
vn -0.283688 0.958916 -5.871667050255916E-17
vn -0.959054 -0.283223 1.7342407019745542E-17
vn -0.693284 0.26421400000000006 0.670483
vn -0.959054 -0.283223 1.7342407019745542E-17
vn 0.959054 0.283222 -1.7342345787405582E-17
vn 0.714926 -0.24660799999999997 0.654267
vn 0.959054 0.283222 -1.7342345787405582E-17
vn 0.959054 0.283224 -1.7342468252085496E-17
vn 0.70419 -0.25528499999999993 0.66253
vn 0.959054 0.283224 -1.7342468252085496E-17
vn -0.283688 0.958917 -5.871673173489912E-17
vn 0.323238 0.854357 0.40692899999999993
vn -0.283688 0.958917 -5.871673173489912E-17
vn -0.959054 -0.283223 1.7342407019745542E-17
vn -0.693284 0.26421500000000003 0.670484
vn -0.959054 -0.283223 1.7342407019745542E-17
g 21 - Default
f 196/196/196 197/197/197 410/410/410
f 410/410/410 409/409/409 196/196/196
f 192/192/192 195/195/195 194/194/194
f 194/194/194 193/193/193 192/192/192
f 434/434/434 408/408/408 407/407/407
f 407/407/407 433/433/433 432/432/432
f 431/431/431 191/191/191 406/406/406
f 406/406/406 430/430/430 429/429/429
f 428/428/428 190/190/190 405/405/405
f 405/405/405 427/427/427 426/426/426
f 189/189/189 188/188/188 404/404/404
f 404/404/404 403/403/403 189/189/189
f 186/186/186 185/185/185 184/184/184
f 184/184/184 187/187/187 186/186/186
f 399/399/399 402/402/402 401/401/401
f 401/401/401 400/400/400 399/399/399
f 396/396/396 183/183/183 398/398/398
f 398/398/398 397/397/397 396/396/396
f 425/425/425 182/182/182 395/395/395
f 395/395/395 424/424/424 423/423/423
f 181/181/181 180/180/180 394/394/394
f 394/394/394 393/393/393 181/181/181
f 178/178/178 177/177/177 176/176/176
f 176/176/176 179/179/179 178/178/178
f 422/422/422 392/392/392 391/391/391
f 391/391/391 421/421/421 420/420/420
f 419/419/419 175/175/175 390/390/390
f 390/390/390 418/418/418 417/417/417
f 416/416/416 174/174/174 389/389/389
f 389/389/389 415/415/415 414/414/414
f 173/173/173 172/172/172 388/388/388
f 388/388/388 387/387/387 173/173/173
f 170/170/170 169/169/169 168/168/168
f 168/168/168 171/171/171 170/170/170
f 383/383/383 386/386/386 385/385/385
f 385/385/385 384/384/384 383/383/383
f 380/380/380 167/167/167 382/382/382
f 382/382/382 381/381/381 380/380/380
f 413/413/413 166/166/166 379/379/379
f 379/379/379 412/412/412 411/411/411
f 165/165/165 164/164/164 378/378/378
f 378/378/378 377/377/377 165/165/165
f 162/162/162 161/161/161 160/160/160
f 160/160/160 163/163/163 162/162/162
f 89/89/89 376/376/376 375/375/375
f 375/375/375 374/374/374 89/89/89
f 24/24/24 371/371/371 204/204/204
f 372/372/372 26/26/26 206/206/206
f 206/206/206 373/373/373 372/372/372
f 371/371/371 16/16/16 204/204/204
f 158/158/158 157/157/157 155/155/155
f 155/155/155 154/154/154 158/158/158
f 351/351/351 363/363/363 155/155/155
f 155/155/155 140/140/140 351/351/351
f 146/146/146 358/358/358 347/347/347
f 347/347/347 132/132/132 146/146/146
f 367/367/367 370/370/370 369/369/369
f 369/369/369 368/368/368 367/367/367
f 129/129/129 145/145/145 146/146/146
f 146/146/146 132/132/132 129/129/129
f 365/365/365 361/361/361 362/362/362
f 362/362/362 366/366/366 365/365/365
f 158/158/158 154/154/154 153/153/153
f 153/153/153 159/159/159 158/158/158
f 157/157/157 156/156/156 140/140/140
f 140/140/140 155/155/155 157/157/157
f 350/350/350 140/140/140 156/156/156
f 156/156/156 364/364/364 350/350/350
f 360/360/360 154/154/154 155/155/155
f 155/155/155 363/363/363 360/360/360
f 361/361/361 151/151/151 152/152/152
f 152/152/152 362/362/362 361/361/361
f 359/359/359 153/153/153 154/154/154
f 154/154/154 360/360/360 359/359/359
f 146/146/146 142/142/142 356/356/356
f 356/356/356 358/358/358 146/146/146
f 356/356/356 142/142/142 143/143/143
f 143/143/143 357/357/357 356/356/356
f 354/354/354 152/152/152 151/151/151
f 151/151/151 355/355/355 354/354/354
f 353/353/353 147/147/147 352/352/352
f 150/150/150 149/149/149 148/148/148
f 145/145/145 141/141/141 142/142/142
f 142/142/142 146/146/146 145/145/145
f 141/141/141 144/144/144 143/143/143
f 143/143/143 142/142/142 141/141/141
f 138/138/138 139/139/139 135/135/135
f 135/135/135 345/345/345 138/138/138
f 349/349/349 351/351/351 140/140/140
f 140/140/140 350/350/350 349/349/349
f 347/347/347 348/348/348 131/131/131
f 131/131/131 132/132/132 347/347/347
f 139/139/139 138/138/138 137/137/137
f 137/137/137 136/136/136 139/139/139
f 345/345/345 133/133/133 346/346/346
f 345/345/345 134/134/134 133/133/133
f 345/345/345 135/135/135 134/134/134
f 129/129/129 132/132/132 131/131/131
f 131/131/131 130/130/130 129/129/129
f 330/330/330 332/332/332 331/331/331
f 331/331/331 329/329/329 330/330/330
f 344/344/344 343/343/343 342/342/342
f 341/341/341 340/340/340 339/339/339
f 338/338/338 337/337/337 336/336/336
f 335/335/335 334/334/334 333/333/333
f 331/331/331 332/332/332 316/316/316
f 316/316/316 126/126/126 331/331/331
f 327/327/327 330/330/330 329/329/329
f 329/329/329 328/328/328 327/327/327
f 326/326/326 325/325/325 324/324/324
f 323/323/323 322/322/322 321/321/321
f 320/320/320 319/319/319 318/318/318
f 128/128/128 127/127/127 317/317/317
f 314/314/314 126/126/126 316/316/316
f 316/316/316 315/315/315 314/314/314
f 115/115/115 123/123/123 124/124/124
f 124/124/124 116/116/116 115/115/115
f 122/122/122 125/125/125 121/121/121
f 123/123/123 121/121/121 125/125/125
f 125/125/125 124/124/124 123/123/123
f 122/122/122 121/121/121 313/313/313
f 108/108/108 109/109/109 117/117/117
f 117/117/117 118/118/118 108/108/108
f 117/117/117 120/120/120 119/119/119
f 119/119/119 118/118/118 117/117/117
f 115/115/115 116/116/116 113/113/113
f 113/113/113 110/110/110 115/115/115
f 112/112/112 114/114/114 111/111/111
f 110/110/110 113/113/113 112/112/112
f 112/112/112 111/111/111 110/110/110
f 108/108/108 107/107/107 104/104/104
f 104/104/104 109/109/109 108/108/108
f 104/104/104 107/107/107 106/106/106
f 106/106/106 105/105/105 104/104/104
f 312/312/312 275/275/275 65/65/65
f 65/65/65 62/62/62 312/312/312
f 311/311/311 310/310/310 309/309/309
f 308/308/308 34/34/34 307/307/307
f 29/29/29 32/32/32 306/306/306
f 303/303/303 103/103/103 305/305/305
f 305/305/305 304/304/304 303/303/303
f 302/302/302 102/102/102 101/101/101
f 101/101/101 97/97/97 302/302/302
f 299/299/299 100/100/100 301/301/301
f 301/301/301 300/300/300 299/299/299
f 298/298/298 99/99/99 98/98/98
f 98/98/98 94/94/94 298/298/298
f 297/297/297 96/96/96 296/296/296
f 95/95/95 92/92/92 93/93/93
f 293/293/293 295/295/295 294/294/294
f 294/294/294 86/86/86 293/293/293
f 291/291/291 87/87/87 88/88/88
f 88/88/88 292/292/292 291/291/291
f 288/288/288 290/290/290 289/289/289
f 289/289/289 91/91/91 288/288/288
f 286/286/286 85/85/85 90/90/90
f 90/90/90 287/287/287 286/286/286
f 285/285/285 83/83/83 284/284/284
f 283/283/283 282/282/282 46/46/46
f 280/280/280 82/82/82 84/84/84
f 84/84/84 281/281/281 280/280/280
f 279/279/279 80/80/80 278/278/278
f 81/81/81 277/277/277 276/276/276
f 275/275/275 237/237/237 65/65/65
f 274/274/274 78/78/78 273/273/273
f 61/61/61 272/272/272 271/271/271
f 270/270/270 60/60/60 269/269/269
f 79/79/79 268/268/268 267/267/267
f 263/263/263 266/266/266 265/265/265
f 265/265/265 264/264/264 263/263/263
f 262/262/262 261/261/261 260/260/260
f 259/259/259 258/258/258 72/72/72
f 257/257/257 256/256/256 255/255/255
f 254/254/254 253/253/253 76/76/76
f 252/252/252 251/251/251 250/250/250
f 249/249/249 77/77/77 75/75/75
f 248/248/248 247/247/247 246/246/246
f 245/245/245 73/73/73 74/74/74
f 45/45/45 69/69/69 71/71/71
f 71/71/71 64/64/64 45/45/45
f 68/68/68 244/244/244 55/55/55
f 55/55/55 70/70/70 68/68/68
f 242/242/242 243/243/243 56/56/56
f 56/56/56 241/241/241 242/242/242
f 240/240/240 241/241/241 56/56/56
f 56/56/56 59/59/59 240/240/240
f 239/239/239 240/240/240 59/59/59
f 59/59/59 57/57/57 239/239/239
f 238/238/238 239/239/239 57/57/57
f 57/57/57 58/58/58 238/238/238
f 237/237/237 238/238/238 58/58/58
f 58/58/58 65/65/65 237/237/237
f 236/236/236 63/63/63 235/235/235
f 66/66/66 44/44/44 67/67/67
f 50/50/50 47/47/47 51/51/51
f 51/51/51 54/54/54 50/50/50
f 55/55/55 49/49/49 53/53/53
f 53/53/53 70/70/70 55/55/55
f 47/47/47 48/48/48 52/52/52
f 52/52/52 51/51/51 47/47/47
f 49/49/49 50/50/50 54/54/54
f 54/54/54 53/53/53 49/49/49
f 48/48/48 64/64/64 71/71/71
f 71/71/71 52/52/52 48/48/48
f 231/231/231 234/234/234 233/233/233
f 233/233/233 232/232/232 231/231/231
f 227/227/227 230/230/230 229/229/229
f 229/229/229 228/228/228 227/227/227
f 226/226/226 42/42/42 225/225/225
f 43/43/43 224/224/224 223/223/223
f 222/222/222 221/221/221 220/220/220
f 41/41/41 38/38/38 33/33/33
f 218/218/218 39/39/39 40/40/40
f 40/40/40 219/219/219 218/218/218
f 30/30/30 37/37/37 28/28/28
f 30/30/30 36/36/36 37/37/37
f 30/30/30 35/35/35 36/36/36
f 37/37/37 31/31/31 28/28/28
f 32/32/32 29/29/29 28/28/28
f 28/28/28 31/31/31 32/32/32
f 214/214/214 217/217/217 216/216/216
f 216/216/216 215/215/215 214/214/214
f 210/210/210 213/213/213 212/212/212
f 212/212/212 211/211/211 210/210/210
f 15/15/15 18/18/18 23/23/23
f 23/23/23 21/21/21 15/15/15
f 20/20/20 209/209/209 25/25/25
f 25/25/25 22/22/22 20/20/20
f 207/207/207 27/27/27 19/19/19
f 19/19/19 208/208/208 207/207/207
f 205/205/205 206/206/206 26/26/26
f 26/26/26 17/17/17 205/205/205
f 204/204/204 205/205/205 17/17/17
f 17/17/17 24/24/24 204/204/204
f 203/203/203 12/12/12 201/201/201
f 12/12/12 202/202/202 201/201/201
f 14/14/14 13/13/13 200/200/200
f 10/10/10 199/199/199 198/198/198
f 198/198/198 7/7/7 10/10/10
f 8/8/8 9/9/9 11/11/11
f 11/11/11 6/6/6 8/8/8
g 15 - Default
f 5/5/5 3/3/3 4/4/4
f 2/2/2 1/1/1 5/5/5
f 5/5/5 1/1/1 3/3/3
