v -0.0009126119999999999 -0.15984162 0.05218172400000001
v 0.094579596 -0.10155905999999999 0.05218172400000001
v -0.0011370479999999999 -0.0006881759999999967 0.052181724
v 0.15927168 -0.0005019719999999968 0.052181724
v -0.0011370479999999999 -0.0006881759999999967 0.052181724
v 0.094579596 -0.10155905999999999 0.05218172400000001
v -0.0011370479999999999 -0.0006881759999999967 0.052181724
v 0.15927168 -0.0005019719999999968 0.052181724
v 0.222443688 -0.0005019720000000247 -0.40407967199999995
v 0.222443688 -0.0005019720000000247 -0.40407967199999995
v 0.402930588 -0.0008772120000000248 -0.40412710799999996
v 0.40137723599999997 -0.0008786280000000897 -1.4672492879999999
v -0.0011370479999999999 -0.0006881759999999967 0.052181724
v -0.001272276 -0.22353259200000003 -0.40407967199999995
v -0.0009126119999999999 -0.15984162 0.05218172400000001
v -0.00129918 -0.40285200000000004 -1.4672492879999999
v -0.000994032 -0.40285199999999993 -0.40412710799999996
v 0.127013784 -0.13399254000000002 -0.40412781600000003
v 0.094579596 -0.10155905999999999 0.05218172400000001
v -0.0009126119999999999 -0.15984162 0.05218172400000001
v -0.001272276 -0.22353259200000003 -0.40407967199999995
v -0.0011370479999999999 -0.0021969240000000896 -1.4672492879999999
v -0.001272276 -0.22353259200000003 -0.40407967199999995
v -0.0011370479999999999 -0.0006881759999999967 0.052181724
v -0.00129918 -0.40285200000000004 -1.4672492879999999
v 0.15927168 -0.0005019719999999968 0.052181724
v 0.094579596 -0.10155905999999999 0.05218172400000001
v 0.127013784 -0.13399254000000002 -0.40412781600000003
v 0.222443688 -0.0005019720000000247 -0.40407967199999995
v -0.0011370479999999999 -0.0021969240000000896 -1.4672492879999999
v -0.0011370479999999999 -0.0006881759999999967 0.052181724
v 0.222443688 -0.0005019720000000247 -0.40407967199999995
v 0.40137723599999997 -0.0008786280000000897 -1.4672492879999999
v -0.001042176 -0.05161886399999999 0.16728907199999998
v -0.001042176 -0.051618864 3.1607438286611268e-18
v 0.048366311999999995 -0.002079396 1.2732628277799049e-19
v 0.048366311999999995 -0.00207939599999999 0.16728907199999998
v 0.048366311999999995 -0.00207939599999999 0.16728907199999998
v 0.048366311999999995 -0.002079396 1.2732628277799049e-19
v -0.001188024 0.047346792 -2.8991548636347756e-18
v -0.001188024 0.04734679200000001 0.16728907199999998
v -0.001188024 0.04734679200000001 0.16728907199999998
v -0.001188024 0.047346792 -2.8991548636347756e-18
v -0.05059722 -0.0020786879999999995 1.2728293028130066e-19
v -0.05059722 -0.0020786879999999896 0.16728907199999998
v -0.05059722 -0.0020786879999999896 0.16728907199999998
v -0.05059722 -0.0020786879999999995 1.2728293028130066e-19
v -0.001042176 -0.051618864 3.1607438286611268e-18
v -0.001042176 -0.05161886399999999 0.16728907199999998
v 0.146269968 -0.251742852 -0.40412710799999996
v -0.0016206119999999998 -0.147351792 -0.40407967199999995
v -0.000994032 -0.40285199999999993 -0.40412710799999996
v 0.10466151599999998 -0.10768113600000001 -0.404091
v 0.162226872 -0.17521725600000002 -0.404114364
v 0.24683499599999997 -0.15930354000000002 -0.40412710799999996
v 0.10466151599999998 -0.10768113600000001 -0.404091
v 0.162226872 -0.17521725600000002 -0.404114364
v 0.149027628 -0.0007200360000000246 -0.40407967199999995
v 0.402930588 -0.0008772120000000248 -0.40412710799999996
v 0.00043754399999999994 -0.000006371999999996804 0.052181724
v 0.15829180799999998 -0.000007079999999996805 0.052181724
v 0.222843708 -0.000006372000000024742 -0.40407967199999995
v 0.00043754399999999994 -0.0000035400000000898435 -1.4672492879999999
v 0.401536536 -0.000006372000000089843 -1.4672492879999999
v 0.401536536 -0.000006372000000024746 -0.40412710799999996
v 0.24683499599999997 -0.15930354000000002 -0.40412710799999996
v 0.162226872 -0.17521725600000002 -0.404114364
v 0.17611146 -0.18899493600000009 -1.4672499959999998
v 0.281159544 -0.15930849600000008 -1.4672492879999999
v 0.40137723599999997 -0.0008786280000000897 -1.4672492879999999
v 0.402930588 -0.0008772120000000248 -0.40412710799999996
v 0.17611146 -0.18899493600000009 -1.4672499959999998
v 0.162226872 -0.17521725600000002 -0.404114364
v 0.146269968 -0.251742852 -0.40412710799999996
v 0.158826348 -0.28052092800000006 -1.4672492879999999
v -0.00129918 -0.40285200000000004 -1.4672492879999999
v -0.000994032 -0.40285199999999993 -0.40412710799999996
v -0.001071912 -0.0020786879999999965 0.052181724
v -0.001071912 -0.159930828 0.05218172400000001
v -0.001071912 -0.22448697600000003 -0.40407967199999995
v -0.001071912 -0.00207798000000009 -1.4672492879999999
v -0.0010747439999999999 -0.4031798040000001 -1.4672492879999999
v -0.0010747439999999999 -0.40317980400000003 -0.40412710799999996
vt 0.966730 0.130327
vt 0.937773 0.086906
vt 0.966733 0.010758
vt 0.966730 0.130327
vt 0.966733 0.010758
vt 0.937773 0.086906
vt 0.994255 0.282674
vt 0.958582 0.282674
vt 0.943990 0.495879
vt 0.943990 0.495879
vt 0.903600 0.495901
vt 0.903600 0.992683
vt 0.994255 0.282674
vt 0.943990 0.495879
vt 0.958582 0.282674
vt 0.903600 0.992683
vt 0.903600 0.495901
vt 0.301820 0.605140
vt 0.301820 0.234517
vt 0.344005 0.234517
vt 0.344005 0.605140
vt 0.994255 0.992682
vt 0.943990 0.495879
vt 0.994255 0.282674
vt 0.903600 0.992683
vt 0.344005 0.234517
vt 0.301820 0.234517
vt 0.301820 0.605140
vt 0.344005 0.605140
vt 0.994255 0.992682
vt 0.994255 0.282674
vt 0.943990 0.495879
vt 0.903600 0.992683
vt 0.896515 0.297585
vt 0.896516 0.432159
vt 0.866842 0.432159
vt 0.866842 0.297586
vt 0.897025 0.845654
vt 0.897025 0.980227
vt 0.867342 0.980227
vt 0.867342 0.845654
vt 0.897025 0.659705
vt 0.897025 0.794278
vt 0.867385 0.794278
vt 0.867385 0.659705
vt 0.896498 0.480223
vt 0.896497 0.614796
vt 0.866780 0.614797
vt 0.866780 0.480223
vt 0.276895 0.086684
vt 0.346315 0.015938
vt 0.342880 0.220453
vt 0.313176 0.012211
vt 0.273969 0.018514
vt 0.276895 0.086684
vt 0.314609 0.012266
vt 0.273969 0.018514
vt 0.346315 0.015938
vt 0.342880 0.220453
vt 0.994255 0.282674
vt 0.958582 0.282674
vt 0.943990 0.495879
vt 0.994255 0.992682
vt 0.903600 0.992683
vt 0.903600 0.495901
vt 0.044379 0.098653
vt 0.002643 0.098653
vt 0.002643 0.983519
vt 0.044379 0.983839
vt 0.132861 0.983839
vt 0.132861 0.098653
vt 0.002643 0.983519
vt 0.002643 0.098653
vt 0.044379 0.098653
vt 0.044379 0.983839
vt 0.132861 0.983839
vt 0.132861 0.098653
vt 0.994255 0.282674
vt 0.958582 0.282674
vt 0.943990 0.495879
vt 0.994255 0.992682
vt 0.903600 0.992683
vt 0.903600 0.495901
vn 1E-06 6.123233995736766E-17 1
vn 0 -9.999999999387675E-07 1
vn 0 -9.999999999387675E-07 1
vn 0 -9.999999999387675E-07 1
vn 0 -9.999999999387675E-07 1
vn 0 -9.999999999387675E-07 1
vn -0.001164 0.999999 -0.00016100000000006124
vn -0.001164 0.999999 -0.00016100000000006124
vn -0.001164 0.999999 -0.00016100000000006124
vn 0.002082 0.999998 -4.000000000061232E-06
vn 0.002082 0.999998 -4.000000000061232E-06
vn 0.002082 0.999998 -4.000000000061232E-06
vn -0.999999 -0.001409 0.000984
vn -0.999999 -0.001556 0.0002870000000000001
vn -0.999999 -0.001409 0.000984
vn -0.999999 -0.001556 0.0002870000000000001
vn -0.999999 -0.001556 0.0002870000000000001
vn 0.697273 -0.708749 0.10716900000000004
vn 0.695978 -0.711064 0.10001400000000005
vn 0.543873 -0.832533 0.10531300000000006
vn 0.568692 -0.814713 0.11328000000000006
vn -1 0.000398 -4.300000000000003E-05
vn -1 0.000398 -4.300000000000003E-05
vn -1 0.000605 -3.7045565674207435E-20
vn -1 0.000398 -4.300000000000003E-05
vn 0.823561 -0.55745 0.10486100000000002
vn 0.695978 -0.711064 0.10001400000000005
vn 0.697273 -0.708749 0.10716900000000004
vn 0.80837 -0.577937 0.11192800000000004
vn -0.003277 0.999994 -0.0009060000000000613
vn -0.002861 0.999995 -0.000993000000000061
vn -0.003277 0.999994 -0.0009060000000000613
vn -0.003277 0.999994 -0.0009060000000000613
vn 0.708047 -0.706165 4.3240135345994536E-17
vn 0.708047 -0.706165 4.3240135345994536E-17
vn 0.708047 -0.706165 4.3240135345994536E-17
vn 0.708047 -0.706165 4.3240135345994536E-17
vn 0.706198 0.708015 -4.335341517491566E-17
vn 0.706198 0.708015 -4.335341517491566E-17
vn 0.706198 0.708015 -4.335341517491566E-17
vn 0.706198 0.708015 -4.335341517491566E-17
vn -0.707232 0.706982 -4.3290162167739705E-17
vn -0.707232 0.706982 -4.3290162167739705E-17
vn -0.707232 0.706982 -4.3290162167739705E-17
vn -0.707232 0.706982 -4.3290162167739705E-17
vn -0.707011 -0.707202 4.330363328253032E-17
vn -0.707011 -0.707202 4.330363328253032E-17
vn -0.707011 -0.707202 4.330363328253032E-17
vn -0.707011 -0.707202 4.330363328253032E-17
vn 0.000172 -0.00020199999999993877 1
vn 0.000182 -0.00019899999999993878 1
vn 0.000191 -0.00018699999999993876 1
vn 0.000172 -0.00020199999999993877 1
vn 0.000186 -0.00018999999999993878 1
vn 0.000188 -0.00018499999999993877 1
vn 0.000188 -0.00018499999999993877 1
vn 0.000186 -0.00018999999999993878 1
vn 0.000188 -0.00018499999999993877 1
vn 0.000188 -0.00018499999999993877 1
vn 5E-06 1 2.9999999999387676E-06
vn 5E-06 1 2.9999999999387676E-06
vn 6E-06 1 9.999999999387675E-07
vn 6E-06 1 9.999999999387675E-07
vn 6E-06 1 9.999999999387675E-07
vn -2E-06 1 -6.123233995736766E-17
vn 0.517318 -0.855698 0.012794000000000052
vn 0.700009 -0.713897 0.018394000000000046
vn 0.719321 -0.694478 0.01665500000000004
vn 0.563313 -0.826043 0.018192000000000052
vn 0.75598 -0.654478 0.01236400000000004
vn 0.712324 -0.70185 -0.001040999999999957
vn 0.719321 -0.694478 0.01665500000000004
vn 0.700009 -0.713897 0.018394000000000046
vn 0.867548 -0.497096 0.01598500000000003
vn 0.850975 -0.524645 0.024251000000000033
vn 0.663332 -0.748189 0.014271000000000046
vn 0.716161 -0.697935 -0.00020499999999995725
vn 1 1.0000000000000002E-06 3E-06
vn 1 1.0000000000000002E-06 3E-06
vn 1 -5E-06 -1.9999999999999995E-06
vn 1 -5E-06 -1.9999999999999995E-06
vn 1 -5E-06 -1.9999999999999995E-06
vn 1 -1.9E-05 1.1634144591899855E-21
g Mauer
f 1/1/1 2/2/2 3/3/3
f 4/4/4 5/5/5 6/6/6
f 7/7/7 8/8/8 9/9/9
f 10/10/10 11/11/11 12/12/12
f 13/13/13 14/14/14 15/15/15
f 16/16/16 17/17/17 14/14/14
f 18/18/18 19/19/19 20/20/20
f 20/20/20 21/21/21 18/18/18
f 22/22/22 23/23/23 24/24/24
f 23/23/23 22/22/22 25/25/25
f 26/26/26 27/27/27 28/28/28
f 28/28/28 29/29/29 26/26/26
f 30/30/30 31/31/31 32/32/32
f 33/33/33 30/30/30 32/32/32
f 34/34/34 35/35/35 36/36/36
f 36/36/36 37/37/37 34/34/34
f 38/38/38 39/39/39 40/40/40
f 40/40/40 41/41/41 38/38/38
f 42/42/42 43/43/43 44/44/44
f 44/44/44 45/45/45 42/42/42
f 46/46/46 47/47/47 48/48/48
f 48/48/48 49/49/49 46/46/46
f 50/50/50 51/51/51 52/52/52
f 50/50/50 53/53/53 51/51/51
f 50/50/50 54/54/54 53/53/53
f 55/55/55 56/56/56 57/57/57
f 55/55/55 58/58/58 56/56/56
f 55/55/55 59/59/59 58/58/58
f 60/60/60 61/61/61 62/62/62
f 63/63/63 60/60/60 62/62/62
f 64/64/64 63/63/63 62/62/62
f 62/62/62 65/65/65 64/64/64
f 66/66/66 67/67/67 68/68/68
f 68/68/68 69/69/69 66/66/66
f 66/66/66 69/69/69 70/70/70
f 70/70/70 71/71/71 66/66/66
f 72/72/72 73/73/73 74/74/74
f 74/74/74 75/75/75 72/72/72
f 76/76/76 75/75/75 74/74/74
f 74/74/74 77/77/77 76/76/76
f 78/78/78 79/79/79 80/80/80
f 81/81/81 78/78/78 80/80/80
f 82/82/82 81/81/81 80/80/80
f 80/80/80 83/83/83 82/82/82
