v 0.9648675 0.0080205 -0.0011820000000000005
v 1.000001 0.0000019999999999999262 -0.001203
v 1.000003 0.000004000000000002256 0.0368515
v 0.9648675 0.008020500000000002 0.0368515
v 0.5244565 0.1292705 0.11814199999999998
v 0.515637 0.1623955 0.11814199999999998
v 0.4824795 0.153507 0.11814199999999998
v 0.491339 0.12045500000000002 0.11814199999999998
v 0.153117 0.4832685 0.11814049999999997
v 0.162003 0.516241 0.11814199999999997
v 0.128966 0.5250875 0.11814149999999997
v 0.1201445 0.492161 0.11814199999999997
v 0.0072085 0.9763945 0.11814149999999994
v 0.027512 1.002571 0.11814149999999994
v 0.001339 1.0228025 0.11814199999999993
v -0.018886 0.9966315 0.11814149999999994
v 0.961368 0.0644225 0.028492999999999997
v 0.989507 0.13515449999999998 -0.409951
v 0.612858 0.23611999999999997 -0.409951
v 0.5695285 0.169346 0.02849299999999999
v 0.497411 0.210985 0.028492999999999987
v 0.5432645 0.2735005 -0.409951
v 0.2674975 0.549206 -0.40995100000000007
v 0.2106245 0.4978675 0.02849299999999997
v 0.170967 0.566555 0.028492999999999966
v 0.247874 0.5848885 -0.40995100000000007
v 0.1469905 0.961561 -0.40995100000000007
v 0.065914 0.958359 0.028492999999999942
v 0.120146 0.492159 0.11814199999999997
v 0.109805 0.486212 -2.9771898475351646e-17
v 0.1590765 0.4729365 -2.8959008546247606e-17
v 0.1531135 0.4832685 0.11814199999999997
v 0.1238545 0.535841 -3.2810798275095845e-17
v 0.109805 0.486212 -2.9771898475351646e-17
v 0.120146 0.492159 0.11814199999999997
v 0.128967 0.5250895 0.11814199999999997
v 0.172344 0.522192 -3.1975038067017735e-17
v 0.1238545 0.535841 -3.2810798275095845e-17
v 0.128967 0.5250895 0.11814199999999997
v 0.1620045 0.516241 0.11814199999999997
v 0.1620045 0.516241 0.11814199999999997
v 0.1531135 0.4832685 0.11814199999999997
v 0.1590765 0.4729365 -2.8959008546247606e-17
v 0.172344 0.522192 -3.1975038067017735e-17
v 0.974031 0.006206500000000002 0.0284585
v 0.5256975 0.126339 0.02847299999999999
v 0.5256975 0.126339 -0.001182000000000008
v 0.974031 0.0062065 -0.0011820000000000005
v 0.9172645 0.14890649999999997 -0.4099515
v 0.9264035 0.18301399999999998 -0.409951
v 0.6558295 0.255062 -0.409951
v 0.646737 0.22113049999999998 -0.4099515
v 0.6663465 0.29557599999999995 -1.0361925
v 0.6558295 0.255062 -0.409951
v 0.9264035 0.18301399999999998 -0.409951
v 0.93681 0.22310649999999996 -1.036193
v 0.961368 0.0644225 0.028492999999999997
v 0.5695285 0.169346 0.02849299999999999
v 0.5256975 0.126339 0.02847299999999999
v 0.974031 0.006206500000000002 0.0284585
v 0.9470145 0.0700055 0.036851499999999995
v 0.9999995 0.000004000000000002256 0.0368515
v 1 0.1114825 0.036851499999999995
v 0.964869 0.008018500000000001 0.0368515
v 0.153878 0.479725 0.028458499999999973
v 0.153878 0.479725 -0.0011820000000000294
v 0.4820815 0.1515215 -0.0011820000000000094
v 0.4820815 0.1515215 0.028472999999999988
v 0.529701 0.331682 -0.409951
v 0.33202 0.5299855 -0.40995100000000007
v 0.307049 0.5050145 -0.4099515000000001
v 0.5048625 0.306843 -0.4099515
v 0.558321 0.35794849999999995 -1.0361925
v 0.3603285 0.5559404999999998 -1.036193
v 0.33202 0.5299855 -0.40995100000000007
v 0.529701 0.331682 -0.409951
v 0.497411 0.210985 0.028492999999999987
v 0.2106245 0.4978675 0.02849299999999997
v 0.153878 0.479725 0.028458499999999973
v 0.4820815 0.1515215 0.028472999999999988
v 0.49134 0.12045500000000002 0.11814199999999998
v 0.48541 0.110052 -6.7387414769882256e-18
v 0.534826 0.1232835 -7.548937183134137e-18
v 0.5244575 0.1292705 0.11814199999999998
v 0.472705 0.1604005 -9.821697945331751e-18
v 0.48541 0.110052 -6.7387414769882256e-18
v 0.49134 0.12045500000000002 0.11814199999999998
v 0.48248 0.153507 0.11814199999999998
v 0.52162 0.1727675 -1.0578958293584517e-17
v 0.472705 0.1604005 -9.821697945331751e-18
v 0.48248 0.153507 0.11814199999999998
v 0.5156375 0.1623955 0.11814199999999998
v 0.5156375 0.1623955 0.11814199999999998
v 0.5244575 0.1292705 0.11814199999999998
v 0.534826 0.1232835 -7.548937183134137e-18
v 0.52162 0.1727675 -1.0578958293584517e-17
v 0.1268825 0.5264815 0.02845849999999997
v 0.006752 0.9748155 0.02847299999999994
v 0.006752 0.9748155 -0.0011820000000000597
v 0.1268825 0.5264815 -0.0011820000000000324
v 0.2618695 0.6585635 -0.40995100000000007
v 0.188975 0.928913 -0.40995100000000007
v 0.1550445 0.919821 -0.4099515000000001
v 0.227759 0.6494235 -0.4099515000000001
v 0.223642 0.9376279999999999 -1.0361925
v 0.188975 0.928913 -0.40995100000000007
v 0.2618695 0.6585635 -0.40995100000000007
v 0.296112 0.6671659999999999 -1.036193
v 0.170967 0.566555 0.028492999999999966
v 0.065914 0.958359 0.028492999999999942
v 0.006752 0.9748155 0.02847299999999994
v 0.1268825 0.5264815 0.02845849999999997
v -0.0001095 1.0342635 -6.333037423749693e-17
v -0.0303495 0.995165 -6.093628159367379e-17
v -0.0188855 0.9966315 0.11814199999999994
v 0.0013395 1.0228025 0.11814199999999993
v 0.0089525 0.964922 -5.908443193634311e-17
v 0.0072075 0.9763925 0.11814199999999994
v -0.0188855 0.9966315 0.11814199999999994
v -0.0303495 0.995165 -6.093628159367379e-17
v 0.0389765 1.004034 -6.147935121675568e-17
v 0.0275135 1.002569 0.11814199999999994
v 0.0072075 0.9763925 0.11814199999999994
v 0.0089525 0.964922 -5.908443193634311e-17
v -0.0001095 1.0342635 -6.333037423749693e-17
v 0.0013395 1.0228025 0.11814199999999993
v 0.0275135 1.002569 0.11814199999999994
v 0.0389765 1.004034 -6.147935121675568e-17
v 0.1114805 0.9999945 0.03685149999999994
v 0.0000035 0.9999945 0.03685149999999994
v 0.0710145 0.9459915 0.03685149999999995
v 0.008914 0.9659425 0.03685149999999994
v 0.2226135 0.48822 0.036851499999999975
v 0.2306745 0.555233 0.03685149999999997
v 0.159195 0.474798 0.036851499999999975
v 0.1686075 0.581764 0.03685149999999997
v 0.1243805 0.535425 0.03685149999999997
v 0.2068755 0.605053 -0.28540050000000006
v 0.1243805 0.535425 0.03685149999999997
v 0.1686075 0.581764 0.03685149999999997
v 0.270157 0.5780295 -0.2853665000000001
v 0.2306745 0.555233 0.03685149999999997
v 0.341229 0.492056 -0.28540050000000006
v 0.3794455 0.6411285 -0.28540050000000006
v 0.2812025 0.4573975 -0.2853915000000001
v 0.2311985 0.6826345 -0.28540050000000006
v 0.171171 0.647978 -0.2853915000000001
v 0.556254 0.2296275 0.03685149999999999
v 0.5790495 0.2691095 -0.285367
v 0.5107395 0.2608835 -0.285401
v 0.4892485 0.221586 0.03685149999999999
v 0.4733785 0.1592235 0.036851499999999995
v 0.5827875 0.1675835 0.036851499999999995
v 0.556254 0.2296275 0.03685149999999999
v 0.534137 0.1237565 0.036851499999999995
v 0.4892485 0.221586 0.03685149999999999
v 0.4733785 0.1592235 0.036851499999999995
v 0.683587 0.23019049999999996 -0.2854005
v 0.642147 0.378399 -0.2854005
v 0.648931 0.17016199999999998 -0.2853915
v 0.4930085 0.3402235 -0.2854005
v 0.4583515 0.280195 -0.2853915
v 1 0.1114825 0.036851499999999995
v 1.0000005 0.15707199999999996 -0.2853665
v 0.9459795 0.11478049999999998 -0.285401
v 0.9470145 0.0700055 0.036851499999999995
v 0.964869 0.008018500000000001 0.0368515
v 1 0.283268 -0.2854005
v 1 0.28326799999999996 -1.036193
v 0.8909505 0.19886949999999995 -1.036193
v 0.8909525 0.17462549999999996 -0.2854005
v 0.890954 0.10531049999999999 -0.2853915
v 0.283267 0.9999945 -0.28540050000000006
v 0.1570715 0.9999925 -0.28536700000000004
v 0.1157905 0.9449575 -0.28540050000000006
v 0.1756345 0.8899995 -0.28540050000000006
v 0.106321 0.8900015 -0.2853915000000001
v 0.2619085 0.509733 -0.28540050000000006
v 0.270157 0.5780295 -0.2853665000000001
v 0.2306745 0.555233 0.03685149999999997
v 0.2226135 0.48822 0.036851499999999975
v 0.159195 0.474798 0.036851499999999975
v 0.2311985 0.6826345 -0.28540050000000006
v 0.3794455 0.6411285 -0.28540050000000006
v 0.3794455 0.6411284999999999 -1.036193
v 0.2521935 0.6947594999999999 -1.036193
v 0.171171 0.647978 -0.2853915000000001
v 0.362225 0.5041789999999999 -1.0361925
v 0.3794455 0.6411284999999999 -1.036193
v 0.3794455 0.6411285 -0.28540050000000006
v 0.341229 0.492056 -0.28540050000000006
v 0.2812025 0.4573975 -0.2853915000000001
v 0.4930085 0.3402235 -0.2854005
v 0.642147 0.378399 -0.2854005
v 0.642147 0.37839899999999993 -1.036193
v 0.5051295 0.36121949999999997 -1.036193
v 0.4583515 0.280195 -0.2853915
v 0.606072 0.20584299999999997 -0.2854005
v 0.5790495 0.2691095 -0.285367
v 0.556254 0.2296275 0.03685149999999999
v 0.5827875 0.1675835 0.036851499999999995
v 0.534137 0.1237565 0.036851499999999995
v 0.6957095 0.2511864999999999 -1.0361925
v 0.642147 0.37839899999999993 -1.036193
v 0.642147 0.378399 -0.2854005
v 0.683587 0.23019049999999996 -0.2854005
v 0.648931 0.17016199999999998 -0.2853915
v 0.9459795 0.11478049999999998 -0.285401
v 1.0000005 0.15707199999999996 -0.2853665
v 1 0.283268 -0.2854005
v 0.8909525 0.17462549999999996 -0.2854005
v 0.890954 0.10531049999999999 -0.2853915
v 0.1157905 0.9449575 -0.28540050000000006
v 0.1570715 0.9999925 -0.28536700000000004
v 0.1114805 0.9999945 0.03685149999999994
v 0.0710145 0.9459915 0.03685149999999995
v 0.008914 0.9659425 0.03685149999999994
v 0.1998785 0.8899994999999999 -1.0361925
v 0.283267 0.9999944999999999 -1.036193
v 0.283267 0.9999945 -0.28540050000000006
v 0.1756345 0.8899995 -0.28540050000000006
v 0.106321 0.8900015 -0.2853915000000001
v 1.0000015 0.15706999999999996 -0.285367
v 1.0000015 0.1114805 0.036851499999999995
v 1.0000015 0.000004000000000002256 0.0368515
v 0.9999995 0.0000019999999999365512 -1.036193
v 1.000001 0.28326799999999996 -1.036193
v 1.000001 0.283268 -0.2854005
v 0.1114805 0.9999945 0.03685149999999994
v 0.1570715 0.9999925 -0.28536700000000004
v 0.0000035 0.9999945 0.03685149999999994
v 0.000004 0.9999864999999999 -1.036193
v 0.283267 0.9999944999999999 -1.036193
v 0.283267 0.9999945 -0.28540050000000006
v -0.9999985 -0.000002 1.2246467991473532e-22
v -0.999999 -1 6.123233995736766e-17
v 0 -0.999998 6.123221749268775e-17
v 5e-7 0 0
v -0.999999 1 -6.123233995736766e-17
v 0.9999995 -0.999998 6.123221749268775e-17
v 0.0000015 0.5 -3.061616997868383e-17
v 0 1 -6.123233995736766e-17
v 0.103463 0.661886 -5.000000000405288e-7
v 0.323781 0.31798 -1.9470659459643768e-17
v 0.5000015 0 0
v 1 0 0
v 0.661891 0.1034605 -6.335128508159236e-18
vt 0.410865 0.256845
vt 0.399678 0.256850
vt 0.399678 0.234817
vt 0.410865 0.234817
vt 0.874357 0.203397
vt 0.892502 0.203403
vt 0.892499 0.239789
vt 0.874333 0.239741
vt 0.874357 0.203397
vt 0.892502 0.203403
vt 0.892499 0.239789
vt 0.874333 0.239741
vt 0.874357 0.203397
vt 0.892502 0.203403
vt 0.892499 0.239789
vt 0.874333 0.239741
vt 0.675720 0.010173
vt 0.667160 0.484850
vt 0.435075 0.484850
vt 0.426395 0.010173
vt 0.426395 0.010173
vt 0.435075 0.484850
vt 0.667160 0.484850
vt 0.675720 0.010173
vt 0.675720 0.010173
vt 0.667160 0.484850
vt 0.435075 0.484850
vt 0.426395 0.010173
vt 0.872250 0.844443
vt 0.867342 0.980227
vt 0.897025 0.980227
vt 0.892113 0.844447
vt 0.867385 0.794278
vt 0.897025 0.794278
vt 0.892123 0.658491
vt 0.872291 0.658494
vt 0.866780 0.614797
vt 0.896497 0.614796
vt 0.891590 0.479012
vt 0.871694 0.479014
vt 0.891607 0.296373
vt 0.871741 0.296372
vt 0.866842 0.432159
vt 0.896516 0.432159
vt 0.923251 0.051320
vt 0.684398 0.051338
vt 0.684398 0.015720
vt 0.923251 0.015720
vt 0.859340 0.369465
vt 0.859340 0.406006
vt 0.681742 0.406006
vt 0.681742 0.369465
vt 0.681391 0.988201
vt 0.681391 0.421943
vt 0.859394 0.421943
vt 0.859394 0.988201
vt 0.912248 0.107830
vt 0.692165 0.107788
vt 0.684398 0.066212
vt 0.920020 0.066200
vt 0.937773 0.086906
vt 0.966733 0.010758
vt 0.966730 0.130327
vt 0.947979 0.010756
vt 0.923251 0.051320
vt 0.923251 0.015720
vt 0.684398 0.015720
vt 0.684398 0.051338
vt 0.681742 0.406006
vt 0.859340 0.406006
vt 0.859340 0.369465
vt 0.681742 0.369465
vt 0.681391 0.988201
vt 0.859394 0.988201
vt 0.859394 0.421943
vt 0.681391 0.421943
vt 0.692165 0.107788
vt 0.912248 0.107830
vt 0.920020 0.066200
vt 0.684398 0.066212
vt 0.872250 0.844443
vt 0.867342 0.980227
vt 0.897025 0.980227
vt 0.892113 0.844447
vt 0.867385 0.794278
vt 0.897025 0.794278
vt 0.892123 0.658491
vt 0.872291 0.658494
vt 0.866780 0.614797
vt 0.896497 0.614796
vt 0.891590 0.479012
vt 0.871694 0.479014
vt 0.891607 0.296373
vt 0.871741 0.296372
vt 0.866842 0.432159
vt 0.896516 0.432159
vt 0.923251 0.051320
vt 0.684398 0.051338
vt 0.684398 0.015720
vt 0.923251 0.015720
vt 0.859340 0.406006
vt 0.681742 0.406006
vt 0.681742 0.369465
vt 0.859340 0.369465
vt 0.681391 0.988201
vt 0.681391 0.421943
vt 0.859394 0.421943
vt 0.859394 0.988201
vt 0.912248 0.107830
vt 0.692165 0.107788
vt 0.684398 0.066212
vt 0.920020 0.066200
vt 0.897025 0.980227
vt 0.867342 0.980227
vt 0.872250 0.844443
vt 0.892113 0.844447
vt 0.867385 0.794278
vt 0.872291 0.658494
vt 0.892123 0.658491
vt 0.897025 0.794278
vt 0.866780 0.614797
vt 0.871694 0.479014
vt 0.891590 0.479012
vt 0.896497 0.614796
vt 0.866842 0.432159
vt 0.871741 0.296372
vt 0.891607 0.296373
vt 0.896516 0.432159
vt 0.966730 0.130327
vt 0.966733 0.010758
vt 0.995687 0.086911
vt 0.985485 0.010759
vt 0.993928 0.220766
vt 0.964971 0.264182
vt 0.983726 0.144614
vt 0.936014 0.220761
vt 0.946220 0.144611
vt 0.301486 0.991965
vt 0.274970 0.621103
vt 0.301497 0.621103
vt 0.343671 0.991965
vt 0.343671 0.621103
vt 0.417815 0.086417
vt 0.345456 0.214441
vt 0.417465 0.004627
vt 0.272601 0.088402
vt 0.272252 0.006612
vt 0.344005 0.234517
vt 0.344005 0.605140
vt 0.301820 0.605140
vt 0.301820 0.234517
vt 0.274970 0.234517
vt 0.995687 0.086911
vt 0.966730 0.130327
vt 0.985485 0.010759
vt 0.937773 0.086906
vt 0.947979 0.010756
vt 0.417815 0.086417
vt 0.345456 0.214441
vt 0.417465 0.004627
vt 0.272601 0.088402
vt 0.272252 0.006612
vt 0.344005 0.234517
vt 0.344005 0.605140
vt 0.301820 0.605140
vt 0.301820 0.234517
vt 0.274970 0.234517
vt 0.132861 0.098653
vt 0.132861 0.983839
vt 0.044379 0.983839
vt 0.044379 0.098653
vt 0.002643 0.098653
vt 0.345456 0.214441
vt 0.345456 0.065531
vt 0.381249 0.016297
vt 0.417815 0.086417
vt 0.417465 0.004627
vt 0.393403 0.991965
vt 0.351766 0.991965
vt 0.351766 0.621103
vt 0.393403 0.621103
vt 0.419895 0.621103
vt 0.044379 0.098653
vt 0.132861 0.098653
vt 0.132861 0.983839
vt 0.044379 0.983839
vt 0.002643 0.098653
vt 0.228161 0.983839
vt 0.140857 0.983839
vt 0.140857 0.098653
vt 0.228161 0.098653
vt 0.264800 0.098653
vt 0.044379 0.098653
vt 0.132861 0.098653
vt 0.132861 0.983839
vt 0.044379 0.983839
vt 0.002643 0.098653
vt 0.393738 0.605140
vt 0.352100 0.605140
vt 0.352100 0.234517
vt 0.393738 0.234517
vt 0.419895 0.234517
vt 0.228161 0.983839
vt 0.140857 0.983839
vt 0.140857 0.098653
vt 0.228161 0.098653
vt 0.264800 0.098653
vt 0.308609 0.017290
vt 0.345456 0.065531
vt 0.345456 0.214441
vt 0.272601 0.088402
vt 0.272252 0.006612
vt 0.393738 0.605140
vt 0.352100 0.605140
vt 0.352100 0.234517
vt 0.393738 0.234517
vt 0.419895 0.234517
vt 0.228161 0.983839
vt 0.140857 0.983839
vt 0.140857 0.098653
vt 0.228161 0.098653
vt 0.264800 0.098653
vt 0.943990 0.495879
vt 0.958582 0.282674
vt 0.994255 0.282674
vt 0.994255 0.992682
vt 0.903600 0.992683
vt 0.903600 0.495901
vt 0.958582 0.282674
vt 0.943990 0.495879
vt 0.994255 0.282674
vt 0.994255 0.992682
vt 0.903600 0.992683
vt 0.903600 0.495901
vt 0.000000 0.500000
vt 0.000000 0.000000
vt 0.500000 0.000000
vt 0.500000 0.500000
vt 0.000000 1.000000
vt 1.000000 0.000000
vt 0.500000 0.750000
vt 0.500000 1.000000
vt 0.551731 0.830943
vt 0.661890 0.658990
vt 0.750000 0.500000
vt 1.000000 0.500000
vt 0.830945 0.551730
vn -0.22247 -0.97494 5.969785751803603E-17
vn -0.222443 -0.974946 -2.69999999999403E-05
vn -0.22247 -0.97494 5.969785751803603E-17
vn -0.22247 -0.97494 5.969785751803603E-17
vn -0 1.0000000000612324E-06 1
vn -1E-06 6.123233995736766E-17 1
vn -0 1.0000000000612324E-06 1
vn -0 1.0000000000612324E-06 1
vn 3.6E-05 -2.9999999999387676E-06 1
vn -1.3E-05 -3.099999999993877E-05 1
vn 3.6E-05 -2.9999999999387676E-06 1
vn 3.6E-05 -2.9999999999387676E-06 1
vn -1.1E-05 -4.999999999938768E-06 1
vn 2.4E-05 -9.999999999387675E-07 1
vn -1.1E-05 -4.999999999938768E-06 1
vn -1.1E-05 -4.999999999938768E-06 1
vn 0.255022 0.951866 0.17004499999999995
vn 0.25516 0.95185 0.16992899999999994
vn 0.255022 0.951866 0.17004499999999995
vn 0.254884 0.951882 0.17016099999999995
vn 0.696581 0.696545 0.17204599999999995
vn 0.696468 0.696627 0.17216899999999993
vn 0.696581 0.696545 0.17204599999999995
vn 0.696694 0.696462 0.17192399999999994
vn 0.950579 0.254733 0.17751299999999998
vn 0.950635 0.254606 0.17739499999999997
vn 0.950579 0.254733 0.17751299999999998
vn 0.950523 0.254861 0.17763099999999998
vn -0.259591 -0.963094 0.07115200000000006
vn -0.25946 -0.963126 0.07120000000000005
vn -0.259591 -0.963094 0.07115200000000006
vn -0.259721 -0.963062 0.07110400000000006
vn -0.961876 0.264957 0.06777099999999998
vn -0.959806 0.271708 0.07033199999999999
vn -0.961876 0.264957 0.06777099999999998
vn -0.963891 0.258192 0.06520599999999999
vn 0.264116 0.961694 0.07339699999999995
vn 0.270175 0.959833 0.07566699999999994
vn 0.264116 0.961694 0.07339699999999995
vn 0.258045 0.963511 0.07112399999999995
vn 0.963092 -0.259565 0.07127300000000002
vn 0.963053 -0.259695 0.07132200000000001
vn 0.963092 -0.259565 0.07127300000000002
vn 0.963131 -0.259434 0.07122500000000001
vn -0.25882 -0.965926 5.914590920566031E-17
vn -0.25882 -0.965926 5.914590920566031E-17
vn -0.25882 -0.965926 5.914590920566031E-17
vn -0.25882 -0.965926 5.914590920566031E-17
vn -2E-06 -6.999999999938768E-06 1
vn -2E-06 -6.999999999938768E-06 1
vn -2E-06 -6.999999999938768E-06 1
vn -2E-06 -6.999999999938768E-06 1
vn 0.257494 0.964 0.06634399999999994
vn 0.256735 0.964178 0.06669099999999994
vn 0.257494 0.964 0.06634399999999994
vn 0.258252 0.963821 0.06599699999999994
vn -0.000134 -0.0006199999999999387 1
vn -9.7E-05 -0.00036299999999993873 1
vn -0.000134 -0.0006199999999999387 1
vn -0.000134 -0.0006199999999999387 1
vn -9E-06 -2.9999999999387676E-06 1
vn -9E-06 -2.9999999999387676E-06 1
vn -6E-06 6.123233995736766E-17 1
vn -9E-06 -2.9999999999387676E-06 1
vn -0.707106 -0.707108 4.329787744257433E-17
vn -0.707106 -0.707108 4.329787744257433E-17
vn -0.707106 -0.707108 4.329787744257433E-17
vn -0.707106 -0.707108 4.329787744257433E-17
vn -5E-06 -4.999999999938768E-06 1
vn -5E-06 -4.999999999938768E-06 1
vn -5E-06 -4.999999999938768E-06 1
vn -5E-06 -4.999999999938768E-06 1
vn 0.706322 0.705214 0.06150599999999996
vn 0.705785 0.705782 0.06115599999999996
vn 0.706322 0.705214 0.06150599999999996
vn 0.706858 0.704646 0.06185599999999996
vn -0.000301 -0.00025599999999993873 1
vn -0.000459 -0.00045899999999993873 1
vn -0.000301 -0.00025599999999993873 1
vn -0.000301 -0.00025599999999993873 1
vn 0.257287 -0.963677 0.07162400000000005
vn 0.25797 -0.963475 0.07188000000000005
vn 0.257287 -0.963677 0.07162400000000005
vn 0.256604 -0.963878 0.07136700000000006
vn -0.96558 -0.251232 0.06736300000000002
vn -0.967223 -0.244078 0.07004100000000002
vn -0.96558 -0.251232 0.06736300000000002
vn -0.963878 -0.258371 0.06468100000000002
vn -0.251347 0.965059 0.07406399999999995
vn -0.244416 0.966639 0.07661799999999995
vn -0.251347 0.965059 0.07406399999999995
vn -0.258264 0.963425 0.07150599999999994
vn 0.963786 0.25692 0.07147899999999999
vn 0.963853 0.25664 0.07158199999999999
vn 0.963786 0.25692 0.07147899999999999
vn 0.963719 0.257199 0.07137499999999998
vn -0.965926 -0.258819 1.584809299542594E-17
vn -0.965926 -0.258819 1.584809299542594E-17
vn -0.965926 -0.258819 1.584809299542594E-17
vn -0.965926 -0.258819 1.584809299542594E-17
vn -7E-06 -1.9999999999387675E-06 1
vn -7E-06 -1.9999999999387675E-06 1
vn -7E-06 -1.9999999999387675E-06 1
vn -7E-06 -1.9999999999387675E-06 1
vn 0.964173 0.25916 0.056629999999999986
vn 0.96395 0.259911 0.05697899999999999
vn 0.964173 0.25916 0.056629999999999986
vn 0.964395 0.258409 0.056281999999999985
vn -0.000604 -0.00019399999999993877 1
vn -0.000363 -9.699999999993877E-05 1
vn -0.000604 -0.00019399999999993877 1
vn -0.000604 -0.00019399999999993877 1
vn -0.789254 0.610186 0.06893199999999995
vn -0.789135 0.610332 0.06899799999999996
vn -0.789254 0.610186 0.06893199999999995
vn -0.789373 0.61004 0.06886699999999996
vn -0.609947 -0.789504 0.06818100000000005
vn -0.611488 -0.788368 0.06751400000000005
vn -0.609947 -0.789504 0.06818100000000005
vn -0.608404 -0.790636 0.06884900000000004
vn 0.789763 -0.609431 0.06977900000000004
vn 0.788258 -0.611477 0.06889600000000004
vn 0.789763 -0.609431 0.06977900000000004
vn 0.791262 -0.60738 0.07066200000000004
vn 0.610216 0.78922 0.06904899999999996
vn 0.61013 0.789284 0.06908599999999995
vn 0.610216 0.78922 0.06904899999999996
vn 0.610303 0.789157 0.06901199999999996
vn 0 6.123233995736766E-17 1
vn 0 6.123233995736766E-17 1
vn 0 6.123233995736766E-17 1
vn 0 6.123233995736766E-17 1
vn -0 1.0000000000612324E-06 1
vn 0 1.0000000000612324E-06 1
vn -1E-06 1.0000000000612324E-06 1
vn -1E-06 1.0000000000612324E-06 1
vn -1E-06 1.0000000000612324E-06 1
vn -0.202942 0.978082 0.04658399999999994
vn -0.722937 0.689976 -0.03598700000000004
vn 0.022868 0.996937 0.07479699999999995
vn 0.390342 0.913779 0.11243399999999995
vn 0.390528 0.913692 0.11249399999999994
vn 0.000175 -4.399999999993877E-05 1
vn 1.2E-05 4.300000000006123E-05 1
vn 0.000112 6.500000000006122E-05 1
vn 0.000112 6.500000000006122E-05 1
vn 0.000112 6.500000000006122E-05 1
vn -0.118635 0.986551 0.11243799999999994
vn -0.11887 0.98652 0.11246899999999994
vn -0.476016 0.876221 0.07514099999999994
vn -0.660521 0.749315 0.047321999999999954
vn -0.968535 0.246469 -0.03453700000000001
vn 0 6.123233995736766E-17 1
vn -1E-06 6.123233995736766E-17 1
vn -1E-06 6.123233995736766E-17 1
vn -1E-06 6.123233995736766E-17 1
vn -1E-06 6.123233995736766E-17 1
vn 0.000174 4.900000000006123E-05 1
vn -1.1E-05 4.300000000006123E-05 1
vn 6.5E-05 0.00011300000000006123 1
vn 6.5E-05 0.00011300000000006123 1
vn 6.5E-05 0.00011300000000006123 1
vn -0.612651 0.782561 0.11071199999999996
vn -0.612691 0.782529 0.11071799999999996
vn -0.859137 0.506491 0.07314199999999997
vn -0.950972 0.305905 0.04555699999999998
vn -0.96033 -0.276616 -0.03535199999999999
vn -0.660151 0.751045 0.011458999999999954
vn -0.612044 0.790824 -4.8424004014445324E-17
vn -0.839642 0.543077 0.008286999999999966
vn -0.923476 0.383457 0.012383999999999975
vn -1 -2.2E-05 1.0000000000000012E-06
vn 0.000268 -0.0008119999999999387 1
vn 0.000268 -0.0008119999999999387 1
vn 0.00013 0.00014000000000006122 1
vn 0.00013 0.00014000000000006122 1
vn 0.00013 0.00014000000000006122 1
vn 0.871032 -0.485645 0.07383700000000003
vn 0.986483 -0.1192 0.11244300000000002
vn 0.986518 -0.118941 0.11241000000000001
vn 0.735737 -0.675798 0.044602000000000044
vn 0.206901 -0.977543 -0.04002699999999994
vn 0.057303 0.998313 0.009341999999999939
vn 0.269621 0.962967 -5.896472271172646E-17
vn 0.329614 0.944028 0.012892999999999943
vn -0.062405 0.997948 0.01436999999999994
vn -0.50001 0.866019 2.9999999999469716E-06
vn 0.893124 -0.449732 0.008375000000000028
vn 0.992187 -0.124758 7.639224268401274E-18
vn 0.982312 -0.186894 0.011561000000000012
vn 0.79655 -0.604443 0.012516000000000036
vn 0.500012 -0.866019 5.3028369817539585E-17
vn -0.449532 0.893215 0.009341999999999944
vn -0.247996 0.968761 -5.931950288943945E-17
vn -0.186571 0.982357 0.01289299999999994
vn -0.553014 0.833048 0.01436999999999995
vn -0.866021 0.500008 2.9999999999693832E-06
vn 0.997145 0.015399000000000005 0.07392
vn 0.913819 0.39024 0.11246499999999997
vn 0.913723 0.390472 0.11243299999999998
vn 0.975204 -0.216739 0.044731000000000014
vn 0.668779 -0.742394 -0.03981899999999995
vn 0.998334 0.057083 0.008375999999999996
vn 0.921638 0.388051 -2.3761270752796477E-17
vn 0.944154 0.329301 0.01156099999999998
vn 0.992054 -0.125188 0.012517000000000007
vn 0.866033 -0.499987 1.0000000000306153E-06
vn 0.000146 0.00013000000000006122 1
vn -0.000842 0.00026800000000006127 1
vn 2E-06 -2.9999999999387676E-06 1
vn 0.000146 0.00013000000000006122 1
vn 0.000146 0.00013000000000006122 1
vn 0.512598 -0.855433 0.07401500000000005
vn 0.794863 -0.596274 0.11246800000000004
vn 0.795024 -0.596067 0.11243500000000003
vn 0.301372 -0.952447 0.044933000000000056
vn -0.305623 -0.951337 -0.039409999999999945
vn 0.548598 -0.836044 0.008375000000000053
vn 0.796884 -0.604132 3.699241600312444E-17
vn 0.757264 -0.653007 0.01156100000000004
vn 0.3876 -0.921743 0.012517000000000058
vn -1.4E-05 -1 6.123233995736766E-17
vn 1 2E-06 -1.2246467991473532E-22
vn 1 -3E-06 -9.999999999999997E-07
vn 1 -3E-06 -9.999999999999997E-07
vn 1 -6E-06 -9.999999999999995E-07
vn 1 2E-06 -1.2246467991473532E-22
vn 1 2E-06 -1.2246467991473532E-22
vn 1E-06 1 -3.0000000000612325E-06
vn -2.5E-05 1 -4.000000000061232E-06
vn 1E-06 1 -3.0000000000612325E-06
vn -2.5E-05 1 -4.000000000061232E-06
vn -2.5E-05 1 -4.000000000061232E-06
vn -3E-06 1 -6.123233995736766E-17
vn 0 6.123233995736766E-17 1
vn 0 6.123233995736766E-17 1
vn 0 6.123233995736766E-17 1
vn 0 6.123233995736766E-17 1
vn 0 6.123233995736766E-17 1
vn 0 6.123233995736766E-17 1
vn 0 6.123233995736766E-17 1
vn 0 6.123233995736766E-17 1
vn 1E-06 2.0000000000612323E-06 1
vn 0 6.123233995736766E-17 1
vn 0 6.123233995736766E-17 1
vn 0 6.123233995736766E-17 1
vn 0 6.123233995736766E-17 1
g Mauer
f 1/1/1 2/2/2 3/3/3
f 3/3/3 4/4/4 1/1/1
f 5/5/5 6/6/6 7/7/7
f 7/7/7 8/8/8 5/5/5
f 9/9/9 10/10/10 11/11/11
f 11/11/11 12/12/12 9/9/9
f 13/13/13 14/14/14 15/15/15
f 15/15/15 16/16/16 13/13/13
f 17/17/17 18/18/18 19/19/19
f 19/19/19 20/20/20 17/17/17
f 21/21/21 22/22/22 23/23/23
f 23/23/23 24/24/24 21/21/21
f 25/25/25 26/26/26 27/27/27
f 27/27/27 28/28/28 25/25/25
f 29/29/29 30/30/30 31/31/31
f 31/31/31 32/32/32 29/29/29
f 33/33/33 34/34/34 35/35/35
f 35/35/35 36/36/36 33/33/33
f 37/37/37 38/38/38 39/39/39
f 39/39/39 40/40/40 37/37/37
f 41/41/41 42/42/42 43/43/43
f 43/43/43 44/44/44 41/41/41
f 45/45/45 46/46/46 47/47/47
f 47/47/47 48/48/48 45/45/45
f 49/49/49 50/50/50 51/51/51
f 51/51/51 52/52/52 49/49/49
f 53/53/53 54/54/54 55/55/55
f 55/55/55 56/56/56 53/53/53
f 57/57/57 58/58/58 59/59/59
f 59/59/59 60/60/60 57/57/57
f 61/61/61 62/62/62 63/63/63
f 62/62/62 61/61/61 64/64/64
f 65/65/65 66/66/66 67/67/67
f 67/67/67 68/68/68 65/65/65
f 69/69/69 70/70/70 71/71/71
f 71/71/71 72/72/72 69/69/69
f 73/73/73 74/74/74 75/75/75
f 75/75/75 76/76/76 73/73/73
f 77/77/77 78/78/78 79/79/79
f 79/79/79 80/80/80 77/77/77
f 81/81/81 82/82/82 83/83/83
f 83/83/83 84/84/84 81/81/81
f 85/85/85 86/86/86 87/87/87
f 87/87/87 88/88/88 85/85/85
f 89/89/89 90/90/90 91/91/91
f 91/91/91 92/92/92 89/89/89
f 93/93/93 94/94/94 95/95/95
f 95/95/95 96/96/96 93/93/93
f 97/97/97 98/98/98 99/99/99
f 99/99/99 100/100/100 97/97/97
f 101/101/101 102/102/102 103/103/103
f 103/103/103 104/104/104 101/101/101
f 105/105/105 106/106/106 107/107/107
f 107/107/107 108/108/108 105/105/105
f 109/109/109 110/110/110 111/111/111
f 111/111/111 112/112/112 109/109/109
f 113/113/113 114/114/114 115/115/115
f 115/115/115 116/116/116 113/113/113
f 117/117/117 118/118/118 119/119/119
f 119/119/119 120/120/120 117/117/117
f 121/121/121 122/122/122 123/123/123
f 123/123/123 124/124/124 121/121/121
f 125/125/125 126/126/126 127/127/127
f 127/127/127 128/128/128 125/125/125
f 129/129/129 130/130/130 131/131/131
f 131/131/131 130/130/130 132/132/132
f 133/133/133 134/134/134 135/135/135
f 134/134/134 136/136/136 135/135/135
f 136/136/136 137/137/137 135/135/135
f 138/138/138 139/139/139 140/140/140
f 141/141/141 138/138/138 140/140/140
f 140/140/140 142/142/142 141/141/141
f 143/143/143 144/144/144 145/145/145
f 144/144/144 146/146/146 145/145/145
f 146/146/146 147/147/147 145/145/145
f 148/148/148 149/149/149 150/150/150
f 150/150/150 151/151/151 148/148/148
f 150/150/150 152/152/152 151/151/151
f 153/153/153 154/154/154 155/155/155
f 154/154/154 156/156/156 155/155/155
f 156/156/156 157/157/157 155/155/155
f 158/158/158 159/159/159 160/160/160
f 159/159/159 161/161/161 160/160/160
f 161/161/161 162/162/162 160/160/160
f 163/163/163 164/164/164 165/165/165
f 165/165/165 166/166/166 163/163/163
f 165/165/165 167/167/167 166/166/166
f 168/168/168 169/169/169 170/170/170
f 170/170/170 171/171/171 168/168/168
f 172/172/172 171/171/171 170/170/170
f 173/173/173 174/174/174 175/175/175
f 175/175/175 176/176/176 173/173/173
f 175/175/175 177/177/177 176/176/176
f 178/178/178 179/179/179 180/180/180
f 180/180/180 181/181/181 178/178/178
f 182/182/182 178/178/178 181/181/181
f 183/183/183 184/184/184 185/185/185
f 185/185/185 186/186/186 183/183/183
f 187/187/187 183/183/183 186/186/186
f 188/188/188 189/189/189 190/190/190
f 190/190/190 191/191/191 188/188/188
f 188/188/188 191/191/191 192/192/192
f 193/193/193 194/194/194 195/195/195
f 195/195/195 196/196/196 193/193/193
f 197/197/197 193/193/193 196/196/196
f 198/198/198 199/199/199 200/200/200
f 200/200/200 201/201/201 198/198/198
f 202/202/202 198/198/198 201/201/201
f 203/203/203 204/204/204 205/205/205
f 205/205/205 206/206/206 203/203/203
f 203/203/203 206/206/206 207/207/207
f 208/208/208 209/209/209 210/210/210
f 210/210/210 211/211/211 208/208/208
f 212/212/212 208/208/208 211/211/211
f 213/213/213 214/214/214 215/215/215
f 215/215/215 216/216/216 213/213/213
f 217/217/217 213/213/213 216/216/216
f 218/218/218 219/219/219 220/220/220
f 220/220/220 221/221/221 218/218/218
f 218/218/218 221/221/221 222/222/222
f 223/223/223 224/224/224 225/225/225
f 223/223/223 225/225/225 226/226/226
f 223/223/223 226/226/226 227/227/227
f 227/227/227 228/228/228 223/223/223
f 229/229/229 230/230/230 231/231/231
f 231/231/231 230/230/230 232/232/232
f 233/233/233 232/232/232 230/230/230
f 230/230/230 234/234/234 233/233/233
g Boden
f 235/235/235 236/236/236 237/237/237
f 237/237/237 238/238/238 235/235/235
f 235/235/235 238/238/238 239/239/239
f 237/237/237 240/240/240 238/238/238
f 239/239/239 238/238/238 241/241/241
f 241/241/241 242/242/242 239/239/239
f 243/243/243 242/242/242 241/241/241
f 244/244/244 243/243/243 241/241/241
f 241/241/241 238/238/238 244/244/244
f 245/245/245 238/238/238 240/240/240
f 244/244/244 238/238/238 245/245/245
f 240/240/240 246/246/246 245/245/245
f 245/245/245 247/247/247 244/244/244
f 247/247/247 245/245/245 246/246/246
