v 1.999992 -0.50001 0.07370300000000003
v 1.929958 -0.500005 0.07370300000000003
v 1.929958 -0.500005 -0.0023639999999999694
v 1.999989 -0.500007 -0.0024059999999999694
v 0.999935 -0.430029 0.23628400000000002
v 0.930149 -0.5 0.23628400000000002
v 1.000141 -0.569811 0.23628400000000002
v 1.069927 -0.5 0.23628400000000002
v -6.5E-05 -0.430029 0.23628400000000002
v -0.069851 -0.5 0.23628400000000002
v 0.000141 -0.569811 0.23628400000000002
v 0.069927 -0.5 0.23628400000000002
v -1.000065 -0.430029 0.23628400000000002
v -1.069851 -0.5 0.23628400000000002
v -0.999859 -0.569811 0.23628400000000002
v -0.930073 -0.5 0.23628400000000002
v -2.000065 -0.430029 0.23628400000000002
v -2.069851 -0.5 0.23628400000000002
v -1.999859 -0.569811 0.23628400000000002
v -1.930073 -0.5 0.23628400000000002
v 1.779976 -0.13979100000000005 -0.819902
v 1.219971 -0.14067000000000005 -0.819902
v 1.219971 -0.21418000000000006 -0.823446
v 1.779976 -0.21418000000000006 -0.823446
v 1.219971 -0.10025000000000013 -2.072385
v 1.219971 -0.14067000000000005 -0.819902
v 1.779976 -0.13979100000000005 -0.819902
v 1.779976 -0.10025000000000013 -2.072386
v 1.891968 -0.357979 0.07370300000000003
v 1.999992 -0.5 0.07370300000000003
v 1.999992 -0.277046 0.07370300000000002
v 1.930031 -0.5 0.07370300000000003
v 1.779846 -0.14873900000000004 -0.570801
v 1.779846 -0.28736600000000007 -0.570783
v 1.999992 -0.28736600000000007 -0.570734
v 1.999992 0.06652599999999996 -0.570801
v 0.999977 -0.28736600000000007 -0.570734
v 1.219971 -0.28736600000000007 -0.570783
v 1.219971 -0.14874000000000004 -0.570801
v 0.999977 0.06652599999999996 -0.570801
v 0.999935 -0.430029 0.23628400000000002
v 0.999935 -0.430029 2.6331681919526856E-17
v 0.930149 -0.5 3.061616997868383E-17
v 0.930149 -0.5 0.23628400000000002
v 0.930149 -0.5 0.23628400000000002
v 0.930149 -0.5 3.061616997868383E-17
v 1.000141 -0.569811 3.489086086344762E-17
v 1.000141 -0.569811 0.23628400000000002
v 1.000141 -0.569811 0.23628400000000002
v 1.000141 -0.569811 3.489086086344762E-17
v 1.069927 -0.5 3.061616997868383E-17
v 1.069927 -0.5 0.23628400000000002
v 1.069927 -0.5 0.23628400000000002
v 1.069927 -0.5 3.061616997868383E-17
v 0.999935 -0.430029 2.6331681919526856E-17
v 0.999935 -0.430029 0.23628400000000002
v 1.929958 -0.5 0.05691700000000003
v 1.069798 -0.5 0.056946000000000024
v 1.069798 -0.5 -0.002364999999999969
v 1.929958 -0.5 -0.002364999999999969
v 1.901581 -0.394092 0.05698500000000002
v 1.900581 -0.21418000000000006 -0.823446
v 1.098755 -0.21418000000000006 -0.823446
v 1.098148 -0.394226 0.05698500000000002
v 1.901581 -0.394092 0.05698500000000002
v 1.098148 -0.394226 0.05698500000000002
v 1.069798 -0.5 0.056946000000000024
v 1.929958 -0.5 0.05691700000000003
v 0.779976 -0.13979100000000005 -0.819902
v 0.219971 -0.14067000000000005 -0.819902
v 0.219971 -0.21418000000000006 -0.823446
v 0.779976 -0.21418000000000006 -0.823446
v 0.219971 -0.10025000000000013 -2.072385
v 0.219971 -0.14067000000000005 -0.819902
v 0.779976 -0.13979100000000005 -0.819902
v 0.779976 -0.10025000000000013 -2.072386
v 0.779846 -0.14873900000000004 -0.570801
v 0.779846 -0.28736600000000007 -0.570783
v 0.999992 -0.28736600000000007 -0.570734
v 0.999992 0.06652599999999996 -0.570801
v -2.3E-05 -0.28736600000000007 -0.570734
v 0.219971 -0.28736600000000007 -0.570783
v 0.219971 -0.14874000000000004 -0.570801
v -2.3E-05 0.06652599999999996 -0.570801
v -6.5E-05 -0.430029 0.23628400000000002
v -6.5E-05 -0.430029 2.6331681919526856E-17
v -0.069851 -0.5 3.061616997868383E-17
v -0.069851 -0.5 0.23628400000000002
v -0.069851 -0.5 0.23628400000000002
v -0.069851 -0.5 3.061616997868383E-17
v 0.000141 -0.569811 3.489086086344762E-17
v 0.000141 -0.569811 0.23628400000000002
v 0.000141 -0.569811 0.23628400000000002
v 0.000141 -0.569811 3.489086086344762E-17
v 0.069927 -0.5 3.061616997868383E-17
v 0.069927 -0.5 0.23628400000000002
v 0.069927 -0.5 0.23628400000000002
v 0.069927 -0.5 3.061616997868383E-17
v -6.5E-05 -0.430029 2.6331681919526856E-17
v -6.5E-05 -0.430029 0.23628400000000002
v 0.929958 -0.5 0.05691700000000003
v 0.069798 -0.5 0.056946000000000024
v 0.069798 -0.5 -0.002364999999999969
v 0.929958 -0.5 -0.002364999999999969
v 0.901581 -0.394092 0.05698500000000002
v 0.900581 -0.21418000000000006 -0.823446
v 0.098755 -0.21418000000000006 -0.823446
v 0.098148 -0.394226 0.05698500000000002
v 0.901581 -0.394092 0.05698500000000002
v 0.098148 -0.394226 0.05698500000000002
v 0.069798 -0.5 0.056946000000000024
v 0.929958 -0.5 0.05691700000000003
v -0.220024 -0.13979100000000005 -0.819902
v -0.780029 -0.14067000000000005 -0.819902
v -0.780029 -0.21418000000000006 -0.823446
v -0.220024 -0.21418000000000006 -0.823446
v -0.780029 -0.10025000000000013 -2.072385
v -0.780029 -0.14067000000000005 -0.819902
v -0.220024 -0.13979100000000005 -0.819902
v -0.220024 -0.10025000000000013 -2.072386
v -0.220154 -0.14873900000000004 -0.570801
v -0.220154 -0.28736600000000007 -0.570783
v -8E-06 -0.28736600000000007 -0.570734
v -8E-06 0.06652599999999996 -0.570801
v -1.000023 -0.28736600000000007 -0.570734
v -0.780029 -0.28736600000000007 -0.570783
v -0.780029 -0.14874000000000004 -0.570801
v -1.000023 0.06652599999999996 -0.570801
v -1.000065 -0.430029 0.23628400000000002
v -1.000065 -0.430029 2.6331681919526856E-17
v -1.069851 -0.5 3.061616997868383E-17
v -1.069851 -0.5 0.23628400000000002
v -1.069851 -0.5 0.23628400000000002
v -1.069851 -0.5 3.061616997868383E-17
v -0.999859 -0.569811 3.489086086344762E-17
v -0.999859 -0.569811 0.23628400000000002
v -0.999859 -0.569811 0.23628400000000002
v -0.999859 -0.569811 3.489086086344762E-17
v -0.930073 -0.5 3.061616997868383E-17
v -0.930073 -0.5 0.23628400000000002
v -0.930073 -0.5 0.23628400000000002
v -0.930073 -0.5 3.061616997868383E-17
v -1.000065 -0.430029 2.6331681919526856E-17
v -1.000065 -0.430029 0.23628400000000002
v -0.070042 -0.5 0.05691700000000003
v -0.930202 -0.5 0.056946000000000024
v -0.930202 -0.5 -0.002364999999999969
v -0.070042 -0.5 -0.002364999999999969
v -0.098419 -0.394092 0.05698500000000002
v -0.099419 -0.21418000000000006 -0.823446
v -0.901245 -0.21418000000000006 -0.823446
v -0.901852 -0.394226 0.05698500000000002
v -0.098419 -0.394092 0.05698500000000002
v -0.901852 -0.394226 0.05698500000000002
v -0.930202 -0.5 0.056946000000000024
v -0.070042 -0.5 0.05691700000000003
v -1.780029 -0.21418000000000006 -0.823446
v -1.220024 -0.21418000000000006 -0.823446
v -1.220024 -0.13979100000000005 -0.819902
v -1.780029 -0.14067000000000005 -0.819902
v -1.220024 -0.13979100000000005 -0.819902
v -1.220024 -0.10025000000000013 -2.072386
v -1.780029 -0.10025000000000013 -2.072385
v -1.780029 -0.14067000000000005 -0.819902
v -1.000008 -0.28736600000000007 -0.570734
v -1.000008 0.06652599999999996 -0.570801
v -1.220154 -0.14873900000000004 -0.570801
v -1.220154 -0.28736600000000007 -0.570783
v -2.000023 -0.277046 0.07370300000000002
v -2.000023 -0.5 0.07370300000000003
v -1.892014 -0.357979 0.07370300000000003
v -1.930073 -0.5 0.07370300000000003
v -1.780029 -0.14874000000000004 -0.570801
v -2.000023 0.06652599999999996 -0.570801
v -2.000023 -0.28736600000000007 -0.570734
v -1.780029 -0.28736600000000007 -0.570783
v -2.069851 -0.5 3.061616997868383E-17
v -2.069851 -0.5 0.23628400000000002
v -2.000065 -0.430029 0.23628400000000002
v -2.000065 -0.430029 2.6331681919526856E-17
v -1.999859 -0.569811 3.489086086344762E-17
v -1.999859 -0.569811 0.23628400000000002
v -2.069851 -0.5 0.23628400000000002
v -2.069851 -0.5 3.061616997868383E-17
v -1.930073 -0.5 3.061616997868383E-17
v -1.930073 -0.5 0.23628400000000002
v -1.999859 -0.569811 0.23628400000000002
v -1.999859 -0.569811 3.489086086344762E-17
v -2.000065 -0.430029 2.6331681919526856E-17
v -2.000065 -0.430029 0.23628400000000002
v -1.930073 -0.5 0.23628400000000002
v -1.930073 -0.5 3.061616997868383E-17
v -1.930202 -0.5 -0.002364999999999969
v -1.070042 -0.5 -0.002364999999999969
v -1.070042 -0.5 0.05691700000000003
v -1.930202 -0.5 0.056946000000000024
v -1.901245 -0.21418000000000006 -0.823446
v -1.901852 -0.394226 0.05698500000000002
v -1.098419 -0.394092 0.05698500000000002
v -1.099419 -0.21418000000000006 -0.823446
v -1.930202 -0.5 0.056946000000000024
v -1.070042 -0.5 0.05691700000000003
v -1.098419 -0.394092 0.05698500000000002
v -1.901852 -0.394226 0.05698500000000002
v 1.999992 -0.277046 0.07370300000000002
v 1.999992 -0.18586500000000003 -0.570734
v 1.889896 -0.2684270000000001 -0.570802
v 1.891968 -0.357979 0.07370300000000003
v 1.930031 -0.5 0.07370300000000003
v 0.999985 -0.277046 0.07370300000000002
v 0.999992 -0.18586500000000003 -0.570734
v 0.889896 -0.2684270000000001 -0.570802
v 0.891968 -0.357979 0.07370300000000003
v 0.930031 -0.5 0.07370300000000003
v 1.069927 -0.5 0.07370300000000003
v 1.107986 -0.357979 0.07370300000000003
v 0.930031 -0.5 0.07370300000000003
v 0.999985 -0.277046 0.07370300000000002
v 0.891968 -0.357979 0.07370300000000003
v -1.5E-05 -0.277046 0.07370300000000002
v -8E-06 -0.18586500000000003 -0.570734
v -0.110104 -0.2684270000000001 -0.570802
v -0.108032 -0.357979 0.07370300000000003
v -0.069969 -0.5 0.07370300000000003
v 0.069927 -0.5 0.07370300000000003
v 0.107986 -0.357979 0.07370300000000003
v -0.069969 -0.5 0.07370300000000003
v -1.5E-05 -0.277046 0.07370300000000002
v -0.108032 -0.357979 0.07370300000000003
v -1.000015 -0.277046 0.07370300000000002
v -1.108032 -0.357979 0.07370300000000003
v -1.069969 -0.5 0.07370300000000003
v -0.892014 -0.357979 0.07370300000000003
v -0.930073 -0.5 0.07370300000000003
v -1.000015 -0.277046 0.07370300000000002
v -1.000008 -0.18586500000000003 -0.570734
v -1.110104 -0.2684270000000001 -0.570802
v -1.108032 -0.357979 0.07370300000000003
v -1.069969 -0.5 0.07370300000000003
v 1.779846 -0.14873900000000004 -0.570801
v 1.999992 0.06652599999999996 -0.570801
v 1.999992 0.06652599999999988 -2.072386
v 1.779842 -0.10024900000000013 -2.072386
v 1.779846 -0.28736600000000007 -0.570783
v 1.110058 -0.2684270000000001 -0.570801
v 0.999977 -0.18586500000000003 -0.570734
v 0.999985 -0.277046 0.07370300000000002
v 1.107986 -0.357979 0.07370300000000003
v 1.069927 -0.5 0.07370300000000003
v 1.219971 -0.10025000000000013 -2.072385
v 0.999977 0.06652599999999988 -2.072386
v 0.999977 0.06652599999999996 -0.570801
v 1.219971 -0.14874000000000004 -0.570801
v 1.219971 -0.28736600000000007 -0.570783
v 0.779846 -0.14873900000000004 -0.570801
v 0.999992 0.06652599999999996 -0.570801
v 0.999992 0.06652599999999988 -2.072386
v 0.779842 -0.10024900000000013 -2.072386
v 0.779846 -0.28736600000000007 -0.570783
v 0.110058 -0.2684270000000001 -0.570801
v -2.3E-05 -0.18586500000000003 -0.570734
v -1.5E-05 -0.277046 0.07370300000000002
v 0.107986 -0.357979 0.07370300000000003
v 0.069927 -0.5 0.07370300000000003
v 0.219971 -0.10025000000000013 -2.072385
v -2.3E-05 0.06652599999999988 -2.072386
v -2.3E-05 0.06652599999999996 -0.570801
v 0.219971 -0.14874000000000004 -0.570801
v 0.219971 -0.28736600000000007 -0.570783
v -0.220154 -0.14873900000000004 -0.570801
v -8E-06 0.06652599999999996 -0.570801
v -8E-06 0.06652599999999988 -2.072386
v -0.220158 -0.10024900000000013 -2.072386
v -0.220154 -0.28736600000000007 -0.570783
v -0.889942 -0.2684270000000001 -0.570801
v -1.000023 -0.18586500000000003 -0.570734
v -1.000015 -0.277046 0.07370300000000002
v -0.892014 -0.357979 0.07370300000000003
v -0.930073 -0.5 0.07370300000000003
v -0.780029 -0.10025000000000013 -2.072385
v -1.000023 0.06652599999999988 -2.072386
v -1.000023 0.06652599999999996 -0.570801
v -0.780029 -0.14874000000000004 -0.570801
v -0.780029 -0.28736600000000007 -0.570783
v -1.220154 -0.14873900000000004 -0.570801
v -1.000008 0.06652599999999996 -0.570801
v -1.000008 0.06652599999999988 -2.072386
v -1.220158 -0.10024900000000013 -2.072386
v -1.220154 -0.28736600000000007 -0.570783
v -1.889942 -0.2684270000000001 -0.570801
v -2.000023 -0.18586500000000003 -0.570734
v -2.000023 -0.277046 0.07370300000000002
v -1.892014 -0.357979 0.07370300000000003
v -1.930073 -0.5 0.07370300000000003
v -1.780029 -0.10025000000000013 -2.072385
v -2.000023 0.06652599999999988 -2.072386
v -2.000023 0.06652599999999996 -0.570801
v -1.780029 -0.14874000000000004 -0.570801
v -1.780029 -0.28736600000000007 -0.570783
v 1.999992 -0.18586500000000003 -0.570734
v 1.999992 -0.277046 0.07370300000000002
v 1.999992 -0.5 0.07370300000000003
v 2 -0.5000000000000001 -2.072386
v 1.999992 0.06652599999999988 -2.072386
v 1.999992 0.06652599999999996 -0.570801
v -2.000023 -0.277046 0.07370300000000002
v -2.000023 -0.18586500000000003 -0.570734
v -2.000023 -0.5 0.07370300000000003
v -2.000027 -0.5000000000000001 -2.072386
v -2.000023 0.06652599999999988 -2.072386
v -2.000023 0.06652599999999996 -0.570801
vt 0.399678 0.234817
vt 0.410865 0.234817
vt 0.410865 0.256845
vt 0.399678 0.256850
vt 0.892499 0.239789
vt 0.874333 0.239741
vt 0.874357 0.203397
vt 0.892502 0.203403
vt 0.892499 0.239789
vt 0.874333 0.239741
vt 0.874357 0.203397
vt 0.892502 0.203403
vt 0.892499 0.239789
vt 0.874333 0.239741
vt 0.874357 0.203397
vt 0.892502 0.203403
vt 0.892499 0.239789
vt 0.874333 0.239741
vt 0.874357 0.203397
vt 0.892502 0.203403
vt 0.859340 0.406006
vt 0.681742 0.406006
vt 0.681742 0.369465
vt 0.859340 0.369465
vt 0.681391 0.988201
vt 0.681391 0.421943
vt 0.859394 0.421943
vt 0.859394 0.988201
vt 0.937773 0.086906
vt 0.966733 0.010758
vt 0.966730 0.130327
vt 0.947979 0.010756
vt 0.272601 0.088402
vt 0.272252 0.005633
vt 0.345456 0.005633
vt 0.345456 0.214441
vt 0.345456 0.005633
vt 0.417465 0.005633
vt 0.417815 0.086417
vt 0.345456 0.214441
vt 0.896515 0.297585
vt 0.896516 0.432159
vt 0.866842 0.432159
vt 0.866842 0.297586
vt 0.897025 0.845654
vt 0.897025 0.980227
vt 0.867342 0.980227
vt 0.867342 0.845654
vt 0.897025 0.659705
vt 0.897025 0.794278
vt 0.867385 0.794278
vt 0.867385 0.659705
vt 0.896498 0.480223
vt 0.896497 0.614796
vt 0.866780 0.614797
vt 0.866780 0.480223
vt 0.923251 0.182729
vt 0.684398 0.182747
vt 0.684398 0.147129
vt 0.923251 0.147129
vt 0.675720 0.510792
vt 0.667160 0.985468
vt 0.435075 0.985468
vt 0.426395 0.510792
vt 0.915372 0.230773
vt 0.692271 0.230709
vt 0.684398 0.197627
vt 0.923251 0.197609
vt 0.859340 0.406006
vt 0.681742 0.406006
vt 0.681742 0.369465
vt 0.859340 0.369465
vt 0.681391 0.988201
vt 0.681391 0.421943
vt 0.859394 0.421943
vt 0.859394 0.988201
vt 0.272601 0.088402
vt 0.272252 0.005633
vt 0.345456 0.005633
vt 0.345456 0.214441
vt 0.345456 0.005633
vt 0.417465 0.005633
vt 0.417815 0.086417
vt 0.345456 0.214441
vt 0.896515 0.297585
vt 0.896516 0.432159
vt 0.866842 0.432159
vt 0.866842 0.297586
vt 0.897025 0.845654
vt 0.897025 0.980227
vt 0.867342 0.980227
vt 0.867342 0.845654
vt 0.897025 0.659705
vt 0.897025 0.794278
vt 0.867385 0.794278
vt 0.867385 0.659705
vt 0.896498 0.480223
vt 0.896497 0.614796
vt 0.866780 0.614797
vt 0.866780 0.480223
vt 0.923251 0.182729
vt 0.684398 0.182747
vt 0.684398 0.147129
vt 0.923251 0.147129
vt 0.675720 0.510792
vt 0.667160 0.985468
vt 0.435075 0.985468
vt 0.426395 0.510792
vt 0.915372 0.230773
vt 0.692271 0.230709
vt 0.684398 0.197627
vt 0.923251 0.197609
vt 0.859340 0.406006
vt 0.681742 0.406006
vt 0.681742 0.369465
vt 0.859340 0.369465
vt 0.681391 0.988201
vt 0.681391 0.421943
vt 0.859394 0.421943
vt 0.859394 0.988201
vt 0.272601 0.088402
vt 0.272252 0.005633
vt 0.345456 0.005633
vt 0.345456 0.214441
vt 0.345456 0.005633
vt 0.417465 0.005633
vt 0.417815 0.086417
vt 0.345456 0.214441
vt 0.896515 0.297585
vt 0.896516 0.432159
vt 0.866842 0.432159
vt 0.866842 0.297586
vt 0.897025 0.845654
vt 0.897025 0.980227
vt 0.867342 0.980227
vt 0.867342 0.845654
vt 0.897025 0.659705
vt 0.897025 0.794278
vt 0.867385 0.794278
vt 0.867385 0.659705
vt 0.896498 0.480223
vt 0.896497 0.614796
vt 0.866780 0.614797
vt 0.866780 0.480223
vt 0.923251 0.182729
vt 0.684398 0.182747
vt 0.684398 0.147129
vt 0.923251 0.147129
vt 0.675720 0.510792
vt 0.667160 0.985468
vt 0.435075 0.985468
vt 0.426395 0.510792
vt 0.915372 0.230773
vt 0.692271 0.230709
vt 0.684398 0.197627
vt 0.923251 0.197609
vt 0.681742 0.369465
vt 0.859340 0.369465
vt 0.859340 0.406006
vt 0.681742 0.406006
vt 0.859394 0.421943
vt 0.859394 0.988201
vt 0.681391 0.988201
vt 0.681391 0.421943
vt 0.345456 0.005633
vt 0.345456 0.214441
vt 0.272601 0.088402
vt 0.272252 0.005633
vt 0.966730 0.130327
vt 0.966733 0.010758
vt 0.995687 0.086911
vt 0.985485 0.010759
vt 0.417815 0.086417
vt 0.345456 0.214441
vt 0.345456 0.005633
vt 0.417465 0.005633
vt 0.866842 0.432159
vt 0.866842 0.297586
vt 0.896515 0.297585
vt 0.896516 0.432159
vt 0.867342 0.980227
vt 0.867342 0.845654
vt 0.897025 0.845654
vt 0.897025 0.980227
vt 0.867385 0.794278
vt 0.867385 0.659705
vt 0.897025 0.659705
vt 0.897025 0.794278
vt 0.866780 0.614797
vt 0.866780 0.480223
vt 0.896498 0.480223
vt 0.896497 0.614796
vt 0.684398 0.147129
vt 0.923251 0.147129
vt 0.923251 0.182729
vt 0.684398 0.182747
vt 0.435075 0.985468
vt 0.426395 0.510792
vt 0.675720 0.510792
vt 0.667160 0.985468
vt 0.684398 0.197627
vt 0.923251 0.197609
vt 0.915372 0.230773
vt 0.692271 0.230709
vt 0.344005 0.234517
vt 0.344005 0.605140
vt 0.301820 0.605140
vt 0.301820 0.234517
vt 0.274970 0.234517
vt 0.344005 0.234517
vt 0.344005 0.605140
vt 0.301820 0.605140
vt 0.301820 0.234517
vt 0.274970 0.234517
vt 0.985485 0.010759
vt 0.995687 0.086911
vt 0.947979 0.010756
vt 0.966730 0.130327
vt 0.937773 0.086906
vt 0.344005 0.234517
vt 0.344005 0.605140
vt 0.301820 0.605140
vt 0.301820 0.234517
vt 0.274970 0.234517
vt 0.985485 0.010759
vt 0.995687 0.086911
vt 0.947979 0.010756
vt 0.966730 0.130327
vt 0.937773 0.086906
vt 0.966730 0.130327
vt 0.937773 0.086906
vt 0.947979 0.010756
vt 0.995687 0.086911
vt 0.985485 0.010759
vt 0.344005 0.234517
vt 0.344005 0.605140
vt 0.301820 0.605140
vt 0.301820 0.234517
vt 0.274970 0.234517
vt 0.044379 0.098653
vt 0.132861 0.098653
vt 0.132861 0.983839
vt 0.044379 0.983839
vt 0.002643 0.098653
vt 0.393738 0.605140
vt 0.352100 0.605140
vt 0.352100 0.234517
vt 0.393738 0.234517
vt 0.419895 0.234517
vt 0.228161 0.983839
vt 0.140857 0.983839
vt 0.140857 0.098653
vt 0.228161 0.098653
vt 0.264800 0.098653
vt 0.044379 0.098653
vt 0.132861 0.098653
vt 0.132861 0.983839
vt 0.044379 0.983839
vt 0.002643 0.098653
vt 0.393738 0.605140
vt 0.352100 0.605140
vt 0.352100 0.234517
vt 0.393738 0.234517
vt 0.419895 0.234517
vt 0.228161 0.983839
vt 0.140857 0.983839
vt 0.140857 0.098653
vt 0.228161 0.098653
vt 0.264800 0.098653
vt 0.044379 0.098653
vt 0.132861 0.098653
vt 0.132861 0.983839
vt 0.044379 0.983839
vt 0.002643 0.098653
vt 0.393738 0.605140
vt 0.352100 0.605140
vt 0.352100 0.234517
vt 0.393738 0.234517
vt 0.419895 0.234517
vt 0.228161 0.983839
vt 0.140857 0.983839
vt 0.140857 0.098653
vt 0.228161 0.098653
vt 0.264800 0.098653
vt 0.044379 0.098653
vt 0.132861 0.098653
vt 0.132861 0.983839
vt 0.044379 0.983839
vt 0.002643 0.098653
vt 0.393738 0.605140
vt 0.352100 0.605140
vt 0.352100 0.234517
vt 0.393738 0.234517
vt 0.419895 0.234517
vt 0.228161 0.983839
vt 0.140857 0.983839
vt 0.140857 0.098653
vt 0.228161 0.098653
vt 0.264800 0.098653
vt 0.943990 0.495879
vt 0.958582 0.282674
vt 0.994255 0.282674
vt 0.994255 0.992682
vt 0.903600 0.992683
vt 0.903600 0.495901
vt 0.958582 0.282674
vt 0.943990 0.495879
vt 0.994255 0.282674
vt 0.994255 0.992682
vt 0.903600 0.992683
vt 0.903600 0.495901
vn -2.7E-05 -1 -3.799999999993877E-05
vn -6.8E-05 -1 6.123233995736766E-17
vn -2.7E-05 -1 -3.799999999993877E-05
vn -2.7E-05 -1 -3.799999999993877E-05
vn 0 6.123233995736766E-17 1
vn 0 6.123233995736766E-17 1
vn 0 6.123233995736766E-17 1
vn 0 6.123233995736766E-17 1
vn 0 6.123233995736766E-17 1
vn 0 6.123233995736766E-17 1
vn 0 6.123233995736766E-17 1
vn 0 6.123233995736766E-17 1
vn 0 6.123233995736766E-17 1
vn 0 6.123233995736766E-17 1
vn 0 6.123233995736766E-17 1
vn 0 6.123233995736766E-17 1
vn 0 6.123233995736766E-17 1
vn 0 6.123233995736766E-17 1
vn 0 6.123233995736766E-17 1
vn 0 6.123233995736766E-17 1
vn 0 -0.04758599999999994 0.998867
vn 7.6E-05 -0.04815299999999994 0.99884
vn 0 -0.04758599999999994 0.998867
vn 0 -0.04758599999999994 0.998867
vn -0.000784 0.999491 0.03190499999999994
vn -0.001568 0.999478 0.032254999999999936
vn -0.000784 0.999491 0.03190499999999994
vn 0 0.999502 0.03155499999999994
vn -2E-06 6.123233995736766E-17 1
vn -2E-06 6.123233995736766E-17 1
vn -1E-06 6.123233995736766E-17 1
vn -2E-06 6.123233995736766E-17 1
vn -0.000186 0.00019100000000006124 1
vn -0.000225 0.00013000000000006122 1
vn -0.000186 0.00019100000000006124 1
vn -0.000186 0.00019100000000006124 1
vn 0.000186 0.00019100000000006124 1
vn 0.000224 0.00013000000000006122 1
vn 0.000186 0.00019100000000006124 1
vn 0.000186 0.00019100000000006124 1
vn -0.708042 0.70617 -4.3240441507694316E-17
vn -0.708042 0.70617 -4.3240441507694316E-17
vn -0.708042 0.70617 -4.3240441507694316E-17
vn -0.708042 0.70617 -4.3240441507694316E-17
vn -0.70619 -0.708023 4.335390503363532E-17
vn -0.70619 -0.708023 4.335390503363532E-17
vn -0.70619 -0.708023 4.335390503363532E-17
vn -0.70619 -0.708023 4.335390503363532E-17
vn 0.707232 -0.706981 4.329010093539974E-17
vn 0.707232 -0.706981 4.329010093539974E-17
vn 0.707232 -0.706981 4.329010093539974E-17
vn 0.707232 -0.706981 4.329010093539974E-17
vn 0.707001 0.707213 -4.330430683826986E-17
vn 0.707001 0.707213 -4.330430683826986E-17
vn 0.707001 0.707213 -4.330430683826986E-17
vn 0.707001 0.707213 -4.330430683826986E-17
vn 0 -1 6.123233995736766E-17
vn 0 -1 6.123233995736766E-17
vn 0 -1 6.123233995736766E-17
vn 0 -1 6.123233995736766E-17
vn -8.2E-05 0.979739 0.20027899999999996
vn 0 0.979753 0.20020799999999994
vn -8.2E-05 0.979739 0.20027899999999996
vn -0.000164 0.979724 0.20035099999999995
vn 3.4E-05 -0.0006399999999999388 1
vn 0 -0.0003739999999999387 1
vn 3.4E-05 -0.0006399999999999388 1
vn 3.4E-05 -0.0006399999999999388 1
vn 0 -0.04758599999999994 0.998867
vn 7.6E-05 -0.04815299999999994 0.99884
vn 0 -0.04758599999999994 0.998867
vn 0 -0.04758599999999994 0.998867
vn -0.000784 0.999491 0.03190499999999994
vn -0.001568 0.999478 0.032254999999999936
vn -0.000784 0.999491 0.03190499999999994
vn 0 0.999502 0.03155499999999994
vn -0.000186 0.00019100000000006124 1
vn -0.000225 0.00013000000000006122 1
vn -0.000186 0.00019100000000006124 1
vn -0.000186 0.00019100000000006124 1
vn 0.000186 0.00019100000000006124 1
vn 0.000224 0.00013000000000006122 1
vn 0.000186 0.00019100000000006124 1
vn 0.000186 0.00019100000000006124 1
vn -0.708042 0.70617 -4.3240441507694316E-17
vn -0.708042 0.70617 -4.3240441507694316E-17
vn -0.708042 0.70617 -4.3240441507694316E-17
vn -0.708042 0.70617 -4.3240441507694316E-17
vn -0.70619 -0.708023 4.335390503363532E-17
vn -0.70619 -0.708023 4.335390503363532E-17
vn -0.70619 -0.708023 4.335390503363532E-17
vn -0.70619 -0.708023 4.335390503363532E-17
vn 0.707232 -0.706981 4.329010093539974E-17
vn 0.707232 -0.706981 4.329010093539974E-17
vn 0.707232 -0.706981 4.329010093539974E-17
vn 0.707232 -0.706981 4.329010093539974E-17
vn 0.707001 0.707213 -4.330430683826986E-17
vn 0.707001 0.707213 -4.330430683826986E-17
vn 0.707001 0.707213 -4.330430683826986E-17
vn 0.707001 0.707213 -4.330430683826986E-17
vn 0 -1 6.123233995736766E-17
vn 0 -1 6.123233995736766E-17
vn 0 -1 6.123233995736766E-17
vn 0 -1 6.123233995736766E-17
vn -8.2E-05 0.979739 0.20027899999999996
vn 0 0.979753 0.20020799999999994
vn -8.2E-05 0.979739 0.20027899999999996
vn -0.000164 0.979724 0.20035099999999995
vn 3.4E-05 -0.0006399999999999388 1
vn 0 -0.0003739999999999387 1
vn 3.4E-05 -0.0006399999999999388 1
vn 3.4E-05 -0.0006399999999999388 1
vn 0 -0.04758599999999994 0.998867
vn 7.6E-05 -0.04815299999999994 0.99884
vn 0 -0.04758599999999994 0.998867
vn 0 -0.04758599999999994 0.998867
vn -0.000784 0.999491 0.03190499999999994
vn -0.001568 0.999478 0.032254999999999936
vn -0.000784 0.999491 0.03190499999999994
vn 0 0.999502 0.03155499999999994
vn -0.000186 0.00019100000000006124 1
vn -0.000225 0.00013000000000006122 1
vn -0.000186 0.00019100000000006124 1
vn -0.000186 0.00019100000000006124 1
vn 0.000186 0.00019100000000006124 1
vn 0.000224 0.00013000000000006122 1
vn 0.000186 0.00019100000000006124 1
vn 0.000186 0.00019100000000006124 1
vn -0.708042 0.70617 -4.3240441507694316E-17
vn -0.708042 0.70617 -4.3240441507694316E-17
vn -0.708042 0.70617 -4.3240441507694316E-17
vn -0.708042 0.70617 -4.3240441507694316E-17
vn -0.70619 -0.708023 4.335390503363532E-17
vn -0.70619 -0.708023 4.335390503363532E-17
vn -0.70619 -0.708023 4.335390503363532E-17
vn -0.70619 -0.708023 4.335390503363532E-17
vn 0.707232 -0.706981 4.329010093539974E-17
vn 0.707232 -0.706981 4.329010093539974E-17
vn 0.707232 -0.706981 4.329010093539974E-17
vn 0.707232 -0.706981 4.329010093539974E-17
vn 0.707001 0.707213 -4.330430683826986E-17
vn 0.707001 0.707213 -4.330430683826986E-17
vn 0.707001 0.707213 -4.330430683826986E-17
vn 0.707001 0.707213 -4.330430683826986E-17
vn 0 -1 6.123233995736766E-17
vn 0 -1 6.123233995736766E-17
vn 0 -1 6.123233995736766E-17
vn 0 -1 6.123233995736766E-17
vn -8.2E-05 0.979739 0.20027899999999996
vn 0 0.979753 0.20020799999999994
vn -8.2E-05 0.979739 0.20027899999999996
vn -0.000164 0.979724 0.20035099999999995
vn 3.4E-05 -0.0006399999999999388 1
vn 0 -0.0003739999999999387 1
vn 3.4E-05 -0.0006399999999999388 1
vn 3.4E-05 -0.0006399999999999388 1
vn 7.6E-05 -0.04815299999999994 0.99884
vn 0 -0.04758599999999994 0.998867
vn 7.6E-05 -0.04815299999999994 0.99884
vn 7.6E-05 -0.04815299999999994 0.99884
vn -0.000784 0.999491 0.03190499999999994
vn 0 0.999502 0.03155499999999994
vn -0.000784 0.999491 0.03190499999999994
vn -0.001568 0.999478 0.032254999999999936
vn -0.000225 0.00013000000000006122 1
vn -0.000186 0.00019100000000006124 1
vn -0.000225 0.00013000000000006122 1
vn -0.000225 0.00013000000000006122 1
vn 0 6.123233995736766E-17 1
vn 0 6.123233995736766E-17 1
vn 0 6.123233995736766E-17 1
vn 0 6.123233995736766E-17 1
vn 0.000224 0.00013000000000006122 1
vn 0.000186 0.00019100000000006124 1
vn 0.000224 0.00013000000000006122 1
vn 0.000224 0.00013000000000006122 1
vn -0.708042 0.70617 -4.3240441507694316E-17
vn -0.708042 0.70617 -4.3240441507694316E-17
vn -0.708042 0.70617 -4.3240441507694316E-17
vn -0.708042 0.70617 -4.3240441507694316E-17
vn -0.70619 -0.708023 4.335390503363532E-17
vn -0.70619 -0.708023 4.335390503363532E-17
vn -0.70619 -0.708023 4.335390503363532E-17
vn -0.70619 -0.708023 4.335390503363532E-17
vn 0.707232 -0.706981 4.329010093539974E-17
vn 0.707232 -0.706981 4.329010093539974E-17
vn 0.707232 -0.706981 4.329010093539974E-17
vn 0.707232 -0.706981 4.329010093539974E-17
vn 0.707001 0.707213 -4.330430683826986E-17
vn 0.707001 0.707213 -4.330430683826986E-17
vn 0.707001 0.707213 -4.330430683826986E-17
vn 0.707001 0.707213 -4.330430683826986E-17
vn 0 -1 6.123233995736766E-17
vn 0 -1 6.123233995736766E-17
vn 0 -1 6.123233995736766E-17
vn 0 -1 6.123233995736766E-17
vn -8.2E-05 0.979739 0.20027899999999996
vn -0.000164 0.979724 0.20035099999999995
vn -8.2E-05 0.979739 0.20027899999999996
vn 0 0.979753 0.20020799999999994
vn 0 -0.0003739999999999387 1
vn 3.4E-05 -0.0006399999999999388 1
vn 0 -0.0003739999999999387 1
vn 0 -0.0003739999999999387 1
vn -0.595991 0.79508 0.11244199999999994
vn -0.596189 0.794927 0.11247399999999995
vn -0.848555 0.523687 0.07553299999999998
vn -0.944619 0.324618 0.04814099999999998
vn -0.96539 -0.258734 -0.03284799999999999
vn -0.596005 0.79507 0.11243699999999994
vn -0.596189 0.794928 0.11246699999999994
vn -0.848562 0.523677 0.07552899999999997
vn -0.944625 0.324602 0.04813799999999998
vn -0.96539 -0.258734 -0.03284799999999999
vn -1E-06 6.123233995736766E-17 1
vn -0 6.123233995736766E-17 1
vn -1E-06 6.123233995736766E-17 1
vn -1E-06 6.123233995736766E-17 1
vn -1E-06 6.123233995736766E-17 1
vn -0.596005 0.79507 0.11243699999999994
vn -0.596189 0.794928 0.11246699999999994
vn -0.848562 0.523677 0.07552899999999997
vn -0.944625 0.324602 0.04813799999999998
vn -0.96539 -0.258734 -0.03284799999999999
vn -1E-06 6.123233995736766E-17 1
vn -0 6.123233995736766E-17 1
vn -1E-06 6.123233995736766E-17 1
vn -1E-06 6.123233995736766E-17 1
vn -1E-06 6.123233995736766E-17 1
vn -1E-06 6.123233995736766E-17 1
vn -1E-06 6.123233995736766E-17 1
vn -1E-06 6.123233995736766E-17 1
vn -0 6.123233995736766E-17 1
vn -1E-06 6.123233995736766E-17 1
vn -0.596005 0.79507 0.11243699999999994
vn -0.596189 0.794928 0.11246699999999994
vn -0.848562 0.523677 0.07552899999999997
vn -0.944625 0.324602 0.04813799999999998
vn -0.96539 -0.258734 -0.03284799999999999
vn -0.835908 0.548791 0.009341999999999967
vn -0.699136 0.714988 -4.378038828143839E-17
vn -0.652738 0.757474 0.012892999999999953
vn -0.895446 0.444938 0.014369999999999973
vn -1 1.8369701987210298E-22 3E-06
vn 0.848584 0.523642 0.07552399999999997
vn 0.596242 0.794889 0.11246099999999995
vn 0.596058 0.795031 0.11243199999999995
vn 0.944632 0.324582 0.04813599999999998
vn 0.965397 -0.25871 -0.032843999999999984
vn 0.836037 0.54861 0.008374999999999968
vn 0.604122 0.796892 -4.879556185330663E-17
vn 0.652997 0.757272 0.011560999999999953
vn 0.921737 0.387613 0.012516999999999976
vn 1 0 0
vn -0.835908 0.548791 0.009341999999999967
vn -0.699136 0.714988 -4.378038828143839E-17
vn -0.652738 0.757474 0.012892999999999953
vn -0.895446 0.444938 0.014369999999999973
vn -1 1.8369701987210298E-22 3E-06
vn 0.848584 0.523642 0.07552399999999997
vn 0.596242 0.794889 0.11246099999999995
vn 0.596058 0.795031 0.11243199999999995
vn 0.944632 0.324582 0.04813599999999998
vn 0.965397 -0.25871 -0.032843999999999984
vn 0.836037 0.54861 0.008374999999999968
vn 0.604122 0.796892 -4.879556185330663E-17
vn 0.652997 0.757272 0.011560999999999953
vn 0.921737 0.387613 0.012516999999999976
vn 1 0 0
vn -0.835908 0.548791 0.009341999999999967
vn -0.699136 0.714988 -4.378038828143839E-17
vn -0.652738 0.757474 0.012892999999999953
vn -0.895446 0.444938 0.014369999999999973
vn -1 1.8369701987210298E-22 3E-06
vn 0.848584 0.523642 0.07552399999999997
vn 0.596242 0.794889 0.11246099999999995
vn 0.596058 0.795031 0.11243199999999995
vn 0.944632 0.324582 0.04813599999999998
vn 0.965397 -0.25871 -0.032843999999999984
vn 0.836037 0.54861 0.008374999999999968
vn 0.604122 0.796892 -4.879556185330663E-17
vn 0.652997 0.757272 0.011560999999999953
vn 0.921737 0.387613 0.012516999999999976
vn 1 0 0
vn -0.835908 0.548791 0.009341999999999967
vn -0.699136 0.714988 -4.378038828143839E-17
vn -0.652738 0.757474 0.012892999999999953
vn -0.895446 0.444938 0.014369999999999973
vn -1 1.8369701987210298E-22 3E-06
vn 0.848578 0.523652 0.07552799999999997
vn 0.596242 0.794888 0.11246799999999994
vn 0.596044 0.79504 0.11243599999999994
vn 0.944627 0.324598 0.04813799999999998
vn 0.965397 -0.25871 -0.032843999999999984
vn 0.836037 0.54861 0.008374999999999968
vn 0.604122 0.796892 -4.879556185330663E-17
vn 0.652997 0.757272 0.011560999999999953
vn 0.921737 0.387613 0.012516999999999976
vn 1 0 0
vn 1 0 0
vn 1 0 0
vn 1 0 0
vn 1 1.3E-05 1.999999999999999E-06
vn 1 0 0
vn 1 0 0
vn -1 0 0
vn -1 0 0
vn -1 0 0
vn -1 7E-06 9.999999999999995E-07
vn -1 0 0
vn -1 0 0
g Mauer
f 1/1/1 2/2/2 3/3/3
f 3/3/3 4/4/4 1/1/1
f 5/5/5 6/6/6 7/7/7
f 7/7/7 8/8/8 5/5/5
f 9/9/9 10/10/10 11/11/11
f 11/11/11 12/12/12 9/9/9
f 13/13/13 14/14/14 15/15/15
f 15/15/15 16/16/16 13/13/13
f 17/17/17 18/18/18 19/19/19
f 19/19/19 20/20/20 17/17/17
f 21/21/21 22/22/22 23/23/23
f 23/23/23 24/24/24 21/21/21
f 25/25/25 26/26/26 27/27/27
f 27/27/27 28/28/28 25/25/25
f 29/29/29 30/30/30 31/31/31
f 30/30/30 29/29/29 32/32/32
f 33/33/33 34/34/34 35/35/35
f 35/35/35 36/36/36 33/33/33
f 37/37/37 38/38/38 39/39/39
f 39/39/39 40/40/40 37/37/37
f 41/41/41 42/42/42 43/43/43
f 43/43/43 44/44/44 41/41/41
f 45/45/45 46/46/46 47/47/47
f 47/47/47 48/48/48 45/45/45
f 49/49/49 50/50/50 51/51/51
f 51/51/51 52/52/52 49/49/49
f 53/53/53 54/54/54 55/55/55
f 55/55/55 56/56/56 53/53/53
f 57/57/57 58/58/58 59/59/59
f 59/59/59 60/60/60 57/57/57
f 61/61/61 62/62/62 63/63/63
f 63/63/63 64/64/64 61/61/61
f 65/65/65 66/66/66 67/67/67
f 67/67/67 68/68/68 65/65/65
f 69/69/69 70/70/70 71/71/71
f 71/71/71 72/72/72 69/69/69
f 73/73/73 74/74/74 75/75/75
f 75/75/75 76/76/76 73/73/73
f 77/77/77 78/78/78 79/79/79
f 79/79/79 80/80/80 77/77/77
f 81/81/81 82/82/82 83/83/83
f 83/83/83 84/84/84 81/81/81
f 85/85/85 86/86/86 87/87/87
f 87/87/87 88/88/88 85/85/85
f 89/89/89 90/90/90 91/91/91
f 91/91/91 92/92/92 89/89/89
f 93/93/93 94/94/94 95/95/95
f 95/95/95 96/96/96 93/93/93
f 97/97/97 98/98/98 99/99/99
f 99/99/99 100/100/100 97/97/97
f 101/101/101 102/102/102 103/103/103
f 103/103/103 104/104/104 101/101/101
f 105/105/105 106/106/106 107/107/107
f 107/107/107 108/108/108 105/105/105
f 109/109/109 110/110/110 111/111/111
f 111/111/111 112/112/112 109/109/109
f 113/113/113 114/114/114 115/115/115
f 115/115/115 116/116/116 113/113/113
f 117/117/117 118/118/118 119/119/119
f 119/119/119 120/120/120 117/117/117
f 121/121/121 122/122/122 123/123/123
f 123/123/123 124/124/124 121/121/121
f 125/125/125 126/126/126 127/127/127
f 127/127/127 128/128/128 125/125/125
f 129/129/129 130/130/130 131/131/131
f 131/131/131 132/132/132 129/129/129
f 133/133/133 134/134/134 135/135/135
f 135/135/135 136/136/136 133/133/133
f 137/137/137 138/138/138 139/139/139
f 139/139/139 140/140/140 137/137/137
f 141/141/141 142/142/142 143/143/143
f 143/143/143 144/144/144 141/141/141
f 145/145/145 146/146/146 147/147/147
f 147/147/147 148/148/148 145/145/145
f 149/149/149 150/150/150 151/151/151
f 151/151/151 152/152/152 149/149/149
f 153/153/153 154/154/154 155/155/155
f 155/155/155 156/156/156 153/153/153
f 157/157/157 158/158/158 159/159/159
f 159/159/159 160/160/160 157/157/157
f 161/161/161 162/162/162 163/163/163
f 163/163/163 164/164/164 161/161/161
f 165/165/165 166/166/166 167/167/167
f 167/167/167 168/168/168 165/165/165
f 169/169/169 170/170/170 171/171/171
f 171/171/171 170/170/170 172/172/172
f 173/173/173 174/174/174 175/175/175
f 175/175/175 176/176/176 173/173/173
f 177/177/177 178/178/178 179/179/179
f 179/179/179 180/180/180 177/177/177
f 181/181/181 182/182/182 183/183/183
f 183/183/183 184/184/184 181/181/181
f 185/185/185 186/186/186 187/187/187
f 187/187/187 188/188/188 185/185/185
f 189/189/189 190/190/190 191/191/191
f 191/191/191 192/192/192 189/189/189
f 193/193/193 194/194/194 195/195/195
f 195/195/195 196/196/196 193/193/193
f 197/197/197 198/198/198 199/199/199
f 199/199/199 200/200/200 197/197/197
f 201/201/201 202/202/202 203/203/203
f 203/203/203 204/204/204 201/201/201
f 205/205/205 206/206/206 207/207/207
f 207/207/207 208/208/208 205/205/205
f 207/207/207 209/209/209 208/208/208
f 210/210/210 211/211/211 212/212/212
f 212/212/212 213/213/213 210/210/210
f 212/212/212 214/214/214 213/213/213
f 215/215/215 216/216/216 217/217/217
f 216/216/216 218/218/218 217/217/217
f 218/218/218 219/219/219 217/217/217
f 220/220/220 221/221/221 222/222/222
f 222/222/222 223/223/223 220/220/220
f 222/222/222 224/224/224 223/223/223
f 225/225/225 226/226/226 227/227/227
f 226/226/226 228/228/228 227/227/227
f 228/228/228 229/229/229 227/227/227
f 230/230/230 231/231/231 232/232/232
f 233/233/233 230/230/230 232/232/232
f 233/233/233 232/232/232 234/234/234
f 235/235/235 236/236/236 237/237/237
f 237/237/237 238/238/238 235/235/235
f 237/237/237 239/239/239 238/238/238
f 240/240/240 241/241/241 242/242/242
f 242/242/242 243/243/243 240/240/240
f 244/244/244 240/240/240 243/243/243
f 245/245/245 246/246/246 247/247/247
f 247/247/247 248/248/248 245/245/245
f 249/249/249 245/245/245 248/248/248
f 250/250/250 251/251/251 252/252/252
f 252/252/252 253/253/253 250/250/250
f 250/250/250 253/253/253 254/254/254
f 255/255/255 256/256/256 257/257/257
f 257/257/257 258/258/258 255/255/255
f 259/259/259 255/255/255 258/258/258
f 260/260/260 261/261/261 262/262/262
f 262/262/262 263/263/263 260/260/260
f 264/264/264 260/260/260 263/263/263
f 265/265/265 266/266/266 267/267/267
f 267/267/267 268/268/268 265/265/265
f 265/265/265 268/268/268 269/269/269
f 270/270/270 271/271/271 272/272/272
f 272/272/272 273/273/273 270/270/270
f 274/274/274 270/270/270 273/273/273
f 275/275/275 276/276/276 277/277/277
f 277/277/277 278/278/278 275/275/275
f 279/279/279 275/275/275 278/278/278
f 280/280/280 281/281/281 282/282/282
f 282/282/282 283/283/283 280/280/280
f 280/280/280 283/283/283 284/284/284
f 285/285/285 286/286/286 287/287/287
f 287/287/287 288/288/288 285/285/285
f 289/289/289 285/285/285 288/288/288
f 290/290/290 291/291/291 292/292/292
f 292/292/292 293/293/293 290/290/290
f 294/294/294 290/290/290 293/293/293
f 295/295/295 296/296/296 297/297/297
f 297/297/297 298/298/298 295/295/295
f 295/295/295 298/298/298 299/299/299
f 300/300/300 301/301/301 302/302/302
f 300/300/300 302/302/302 303/303/303
f 300/300/300 303/303/303 304/304/304
f 304/304/304 305/305/305 300/300/300
f 306/306/306 307/307/307 308/308/308
f 308/308/308 307/307/307 309/309/309
f 310/310/310 309/309/309 307/307/307
f 307/307/307 311/311/311 310/310/310
