v 0.5 4.513007151877869E-18 0.073703
v 0.429966 5.000000000004513E-06 0.073703
v 0.429966 4.9999999999998556E-06 -0.002364
v 0.499996 2.9999999999998527E-06 -0.002406
v -0.499851 -0.06981099999999998 0.236284
v -0.430065 1.446822221448666E-17 0.236284
v -0.500057 0.06997100000000002 0.236284
v -0.569843 1.446822221448666E-17 0.236284
v -0.280022 0.28581999999999996 -0.823446
v 0.279984 0.28581999999999996 -0.823446
v 0.279984 0.36020899999999995 -0.819902
v -0.280022 0.3593299999999999 -0.819902
v 0.279984 0.36020899999999995 -0.819902
v 0.279984 0.3997499999999999 -2.072386
v -0.280022 0.3997499999999999 -2.072385
v -0.280022 0.3593299999999999 -0.819902
v 0.391975 0.142021 0.07370299999999999
v 0.5 4.513007151877869E-18 0.073703
v 0.5 0.222954 0.07370299999999999
v 0.430038 4.513007151877869E-18 0.073703
v 0.5 0.21263399999999996 -0.570734
v 0.5 0.566526 -0.570801
v 0.279854 0.35126099999999993 -0.570801
v 0.279854 0.21263399999999996 -0.570783
v -0.500015 0.222954 0.07370299999999999
v -0.500015 4.513007151877869E-18 0.073703
v -0.392006 0.142021 0.07370299999999999
v -0.430065 4.513007151877869E-18 0.073703
v -0.280022 0.35125999999999996 -0.570801
v -0.500015 0.566526 -0.570801
v -0.500015 0.21263399999999996 -0.570734
v -0.280022 0.21263399999999996 -0.570783
v -0.569843 0 0
v -0.569843 1.446822221448666E-17 0.236284
v -0.500057 0.06997100000000002 0.236284
v -0.500057 0.069971 -4.284488059156973E-18
v -0.499851 -0.069811 4.2746908847637935E-18
v -0.499851 -0.06981099999999998 0.236284
v -0.569843 1.446822221448666E-17 0.236284
v -0.569843 0 0
v -0.430065 0 0
v -0.430065 1.446822221448666E-17 0.236284
v -0.499851 -0.06981099999999998 0.236284
v -0.499851 -0.069811 4.2746908847637935E-18
v -0.500057 0.069971 -4.284488059156973E-18
v -0.500057 0.06997100000000002 0.236284
v -0.430065 1.446822221448666E-17 0.236284
v -0.430065 0 0
v -0.430195 -1.448144839991745E-19 -0.002365
v 0.429966 -1.448144839991745E-19 -0.002365
v 0.429966 3.4851610933534955E-18 0.056917
v -0.430195 3.4869368312122584E-18 0.056946
v -0.401237 0.28581999999999996 -0.823446
v -0.401844 0.105774 0.056984999999999994
v 0.401588 0.105908 0.056984999999999994
v 0.400589 0.28581999999999996 -0.823446
v -0.430195 3.4869368312122584E-18 0.056946
v 0.429966 3.4851610933534955E-18 0.056917
v 0.401588 0.105908 0.056984999999999994
v -0.401844 0.105774 0.056984999999999994
v 0.5 0.222954 0.07370299999999999
v 0.5 0.31413499999999994 -0.570734
v 0.389904 0.23157299999999997 -0.570802
v 0.391975 0.142021 0.07370299999999999
v 0.430038 4.513007151877869E-18 0.073703
v 0.279854 0.35126099999999993 -0.570801
v 0.5 0.566526 -0.570801
v 0.5 0.5665259999999999 -2.072386
v 0.27985 0.3997509999999999 -2.072386
v 0.279854 0.21263399999999996 -0.570783
v -0.389935 0.23157299999999997 -0.570801
v -0.500015 0.31413499999999994 -0.570734
v -0.500015 0.222954 0.07370299999999999
v -0.392006 0.142021 0.07370299999999999
v -0.430065 4.513007151877869E-18 0.073703
v -0.280022 0.3997499999999999 -2.072385
v -0.500015 0.5665259999999999 -2.072386
v -0.500015 0.566526 -0.570801
v -0.280022 0.35125999999999996 -0.570801
v -0.280022 0.21263399999999996 -0.570783
v -0.500015 0.222954 0.07370299999999999
v -0.500015 0.31413499999999994 -0.570734
v -0.500015 4.513007151877869E-18 0.073703
v -0.500019 -1.2689704407488932E-16 -2.072386
v -0.500015 0.5665259999999999 -2.072386
v -0.500015 0.566526 -0.570801
v 0.5 0.31413499999999994 -0.570734
v 0.5 0.222954 0.07370299999999999
v 0.5 4.513007151877869E-18 0.073703
v 0.500008 -1.2689704407488932E-16 -2.072386
v 0.5 0.5665259999999999 -2.072386
v 0.5 0.566526 -0.570801
vt 0.399678 0.234817
vt 0.410865 0.234817
vt 0.410865 0.256845
vt 0.399678 0.256850
vt 0.874357 0.203397
vt 0.892502 0.203403
vt 0.892499 0.239789
vt 0.874333 0.239741
vt 0.681742 0.369465
vt 0.859340 0.369465
vt 0.859340 0.406006
vt 0.681742 0.406006
vt 0.859394 0.421943
vt 0.859394 0.988201
vt 0.681391 0.988201
vt 0.681391 0.421943
vt 0.937773 0.086906
vt 0.966733 0.010758
vt 0.966730 0.130327
vt 0.947979 0.010756
vt 0.345456 0.005633
vt 0.345456 0.214441
vt 0.272601 0.088402
vt 0.272252 0.005633
vt 0.966730 0.130327
vt 0.966733 0.010758
vt 0.995687 0.086911
vt 0.985485 0.010759
vt 0.417815 0.086417
vt 0.345456 0.214441
vt 0.345456 0.005633
vt 0.417465 0.005633
vt 0.866842 0.432159
vt 0.866842 0.297586
vt 0.896515 0.297585
vt 0.896516 0.432159
vt 0.867342 0.980227
vt 0.867342 0.845654
vt 0.897025 0.845654
vt 0.897025 0.980227
vt 0.867385 0.794278
vt 0.867385 0.659705
vt 0.897025 0.659705
vt 0.897025 0.794278
vt 0.866780 0.614797
vt 0.866780 0.480223
vt 0.896498 0.480223
vt 0.896497 0.614796
vt 0.684398 0.147129
vt 0.923251 0.147129
vt 0.923251 0.182729
vt 0.684398 0.182747
vt 0.435075 0.985468
vt 0.426395 0.510792
vt 0.675720 0.510792
vt 0.667160 0.985468
vt 0.684398 0.197627
vt 0.923251 0.197609
vt 0.915372 0.230773
vt 0.692271 0.230709
vt 0.344005 0.234517
vt 0.344005 0.605140
vt 0.301820 0.605140
vt 0.301820 0.234517
vt 0.274970 0.234517
vt 0.044379 0.098653
vt 0.132861 0.098653
vt 0.132861 0.983839
vt 0.044379 0.983839
vt 0.002643 0.098653
vt 0.393738 0.605140
vt 0.352100 0.605140
vt 0.352100 0.234517
vt 0.393738 0.234517
vt 0.419895 0.234517
vt 0.228161 0.983839
vt 0.140857 0.983839
vt 0.140857 0.098653
vt 0.228161 0.098653
vt 0.264800 0.098653
vt 0.958582 0.282674
vt 0.943990 0.495879
vt 0.994255 0.282674
vt 0.994255 0.992682
vt 0.903600 0.992683
vt 0.903600 0.495901
vt 0.943990 0.495879
vt 0.958582 0.282674
vt 0.994255 0.282674
vt 0.994255 0.992682
vt 0.903600 0.992683
vt 0.903600 0.495901
vn -2.7E-05 -1 -3.799999999993877E-05
vn -6.8E-05 -1 6.123233995736766E-17
vn -2.7E-05 -1 -3.799999999993877E-05
vn -2.7E-05 -1 -3.799999999993877E-05
vn 0 6.123233995736766E-17 1
vn 0 6.123233995736766E-17 1
vn 0 6.123233995736766E-17 1
vn 0 6.123233995736766E-17 1
vn 7.6E-05 -0.04815299999999994 0.99884
vn 0 -0.04758599999999994 0.998867
vn 7.6E-05 -0.04815299999999994 0.99884
vn 7.6E-05 -0.04815299999999994 0.99884
vn -0.000784 0.999491 0.03190499999999994
vn 0 0.999502 0.03155499999999994
vn -0.000784 0.999491 0.03190499999999994
vn -0.001568 0.999478 0.032254999999999936
vn -2E-06 6.123233995736766E-17 1
vn -2E-06 6.123233995736766E-17 1
vn -1E-06 6.123233995736766E-17 1
vn -2E-06 6.123233995736766E-17 1
vn -0.000225 0.00013000000000006122 1
vn -0.000186 0.00019100000000006124 1
vn -0.000225 0.00013000000000006122 1
vn -0.000225 0.00013000000000006122 1
vn 0 6.123233995736766E-17 1
vn 0 6.123233995736766E-17 1
vn 0 6.123233995736766E-17 1
vn 0 6.123233995736766E-17 1
vn 0.000224 0.00013000000000006122 1
vn 0.000186 0.00019100000000006124 1
vn 0.000224 0.00013000000000006122 1
vn 0.000224 0.00013000000000006122 1
vn -0.708042 0.70617 -4.3240441507694316E-17
vn -0.708042 0.70617 -4.3240441507694316E-17
vn -0.708042 0.70617 -4.3240441507694316E-17
vn -0.708042 0.70617 -4.3240441507694316E-17
vn -0.70619 -0.708023 4.335390503363532E-17
vn -0.70619 -0.708023 4.335390503363532E-17
vn -0.70619 -0.708023 4.335390503363532E-17
vn -0.70619 -0.708023 4.335390503363532E-17
vn 0.707232 -0.706981 4.329010093539974E-17
vn 0.707232 -0.706981 4.329010093539974E-17
vn 0.707232 -0.706981 4.329010093539974E-17
vn 0.707232 -0.706981 4.329010093539974E-17
vn 0.707001 0.707213 -4.330430683826986E-17
vn 0.707001 0.707213 -4.330430683826986E-17
vn 0.707001 0.707213 -4.330430683826986E-17
vn 0.707001 0.707213 -4.330430683826986E-17
vn 0 -1 6.123233995736766E-17
vn 0 -1 6.123233995736766E-17
vn 0 -1 6.123233995736766E-17
vn 0 -1 6.123233995736766E-17
vn -8.2E-05 0.979739 0.20027899999999996
vn -0.000164 0.979724 0.20035099999999995
vn -8.2E-05 0.979739 0.20027899999999996
vn 0 0.979753 0.20020799999999994
vn 0 -0.0003739999999999387 1
vn 3.4E-05 -0.0006399999999999388 1
vn 0 -0.0003739999999999387 1
vn 0 -0.0003739999999999387 1
vn -0.595991 0.79508 0.11244199999999994
vn -0.596189 0.794927 0.11247399999999995
vn -0.848555 0.523687 0.07553299999999998
vn -0.944619 0.324618 0.04814099999999998
vn -0.96539 -0.258734 -0.03284799999999999
vn -0.835908 0.548791 0.009341999999999967
vn -0.699136 0.714988 -4.378038828143839E-17
vn -0.652738 0.757474 0.012892999999999953
vn -0.895446 0.444938 0.014369999999999973
vn -1 1.8369701987210298E-22 3E-06
vn 0.848578 0.523652 0.07552799999999997
vn 0.596242 0.794888 0.11246799999999994
vn 0.596044 0.79504 0.11243599999999994
vn 0.944627 0.324598 0.04813799999999998
vn 0.965397 -0.25871 -0.032843999999999984
vn 0.836037 0.54861 0.008374999999999968
vn 0.604122 0.796892 -4.879556185330663E-17
vn 0.652997 0.757272 0.011560999999999953
vn 0.921737 0.387613 0.012516999999999976
vn 1 0 0
vn -1 0 0
vn -1 0 0
vn -1 0 0
vn -1 7E-06 9.999999999999995E-07
vn -1 0 0
vn -1 0 0
vn 1 1.3E-05 1.999999999999999E-06
vn 1 0 0
vn 1 0 0
vn 1 1.3E-05 1.999999999999999E-06
vn 1 1.3E-05 1.999999999999999E-06
vn 1 0 0
g Mauer
f 1/1/1 2/2/2 3/3/3
f 3/3/3 4/4/4 1/1/1
f 5/5/5 6/6/6 7/7/7
f 7/7/7 8/8/8 5/5/5
f 9/9/9 10/10/10 11/11/11
f 11/11/11 12/12/12 9/9/9
f 13/13/13 14/14/14 15/15/15
f 15/15/15 16/16/16 13/13/13
f 17/17/17 18/18/18 19/19/19
f 18/18/18 17/17/17 20/20/20
f 21/21/21 22/22/22 23/23/23
f 23/23/23 24/24/24 21/21/21
f 25/25/25 26/26/26 27/27/27
f 27/27/27 26/26/26 28/28/28
f 29/29/29 30/30/30 31/31/31
f 31/31/31 32/32/32 29/29/29
f 33/33/33 34/34/34 35/35/35
f 35/35/35 36/36/36 33/33/33
f 37/37/37 38/38/38 39/39/39
f 39/39/39 40/40/40 37/37/37
f 41/41/41 42/42/42 43/43/43
f 43/43/43 44/44/44 41/41/41
f 45/45/45 46/46/46 47/47/47
f 47/47/47 48/48/48 45/45/45
f 49/49/49 50/50/50 51/51/51
f 51/51/51 52/52/52 49/49/49
f 53/53/53 54/54/54 55/55/55
f 55/55/55 56/56/56 53/53/53
f 57/57/57 58/58/58 59/59/59
f 59/59/59 60/60/60 57/57/57
f 61/61/61 62/62/62 63/63/63
f 63/63/63 64/64/64 61/61/61
f 63/63/63 65/65/65 64/64/64
f 66/66/66 67/67/67 68/68/68
f 68/68/68 69/69/69 66/66/66
f 70/70/70 66/66/66 69/69/69
f 71/71/71 72/72/72 73/73/73
f 73/73/73 74/74/74 71/71/71
f 75/75/75 71/71/71 74/74/74
f 76/76/76 77/77/77 78/78/78
f 78/78/78 79/79/79 76/76/76
f 76/76/76 79/79/79 80/80/80
f 81/81/81 82/82/82 83/83/83
f 83/83/83 82/82/82 84/84/84
f 85/85/85 84/84/84 82/82/82
f 82/82/82 86/86/86 85/85/85
f 87/87/87 88/88/88 89/89/89
f 87/87/87 89/89/89 90/90/90
f 87/87/87 90/90/90 91/91/91
f 91/91/91 92/92/92 87/87/87
