v 0.713176 1.306059 0.21634299999999992
v 0.598145 1.405051 0.21634299999999992
v 0.451556 1.44433 0.21634299999999992
v 0.302441 1.416116 0.21634299999999992
v 0.773864 1.166961 0.21634299999999992
v 0.180335 1.325997 0.21634299999999992
v 0.768651 1.012558 0.21715999999999994
v 0.107648 1.189674 0.2171599999999999
vt 0.222813 0.889148
vt 0.232853 0.879400
vt 0.243997 0.879400
vt 0.254037 0.889148
vt 0.215865 0.906721
vt 0.260986 0.906720
vt 0.213300 0.928951
vt 0.263551 0.928949
vn -0 6.123233995736766E-17 1
vn -2E-06 -1.9999999999387675E-06 1
vn -1E-06 6.123233995736766E-17 1
vn 0 1.0000000000612324E-06 1
vn 0.000468 0.0017470000000000612 0.999998
vn 0.000936 0.0034940000000000613 0.999993
vn 0.001404 0.005242000000000062 0.999985
vn 0.001404 0.005242000000000062 0.999985
g water
f 1/1/1 2/2/2 3/3/3
f 3/3/3 4/4/4 1/1/1
f 5/5/5 1/1/1 4/4/4
f 4/4/4 6/6/6 5/5/5
f 7/7/7 5/5/5 6/6/6
f 6/6/6 8/8/8 7/7/7
