v -1.693447 -0.716626 0.35432800000000003
v -1.703123 -0.70335 0.39013300000000006
v -1.644615 -0.710589 0.38031700000000007
v -1.700222 -0.745828 0.3452990000000001
v -1.716993 -0.764586 0.37663100000000005
v -1.703123 -0.70335 0.39013300000000006
v -1.716993 -0.764586 0.37663100000000005
v -1.700222 -0.745828 0.3452990000000001
v -1.671494 -0.75035 0.3479340000000001
v -1.671494 -0.75035 0.3479340000000001
v -1.657773 -0.773367 0.37687300000000007
v -1.716993 -0.764586 0.37663100000000005
v -1.657773 -0.773367 0.37687300000000007
v -1.671494 -0.75035 0.3479340000000001
v -1.66523 -0.7197 0.34708000000000006
v -1.66523 -0.7197 0.34708000000000006
v -1.644615 -0.710589 0.38031700000000007
v -1.703123 -0.70335 0.39013300000000006
v -1.693447 -0.716626 0.35432800000000003
v -1.700222 -0.745828 0.3452990000000001
v -1.671494 -0.75035 0.3479340000000001
v -1.690771 -0.806592 0.28161800000000003
v -1.646713 -0.786278 0.29686700000000005
v -1.728975 -0.759719 0.3058640000000001
v -1.612803 -0.748448 0.28558100000000003
v -1.66523 -0.7197 0.34708000000000006
v -1.633935 -0.684191 0.31031400000000003
v -1.599957 -0.741626 0.21004800000000007
v -1.624036 -0.642 0.22265400000000002
v -1.618893 -0.722037 0.052068000000000045
v -1.649054 -0.64159 0.05284300000000004
v -1.634973 -0.799507 0.20350400000000005
v -1.638039 -0.790424 0.05102300000000005
v -1.66027 -0.716007 0.0028610000000000436
v -1.618893 -0.722037 0.052068000000000045
v -1.697622 -0.814492 0.20507600000000006
v -1.748007 -0.804147 0.06251500000000006
v -1.755607 -0.762411 0.21641900000000006
v -1.789306 -0.717481 0.06399500000000004
v -1.744557 -0.719819 0.012406000000000044
v -1.789306 -0.717481 0.06399500000000004
v -1.66027 -0.716007 0.0028610000000000436
v -1.756 -0.635492 0.060442000000000044
v -1.649054 -0.64159 0.05284300000000004
v -1.618893 -0.722037 0.052068000000000045
v -1.700397 -0.625922 0.05705800000000004
v -1.789306 -0.717481 0.06399500000000004
v -1.780408 -0.69444 0.22924800000000006
v -1.792626 -0.690269 0.14886600000000005
v -1.789306 -0.717481 0.06399500000000004
v -1.756 -0.635492 0.060442000000000044
v -1.789306 -0.717481 0.06399500000000004
v -1.748857 -0.705426 0.3015650000000001
v -1.693447 -0.716626 0.35432800000000003
v -1.743418 -0.636386 0.15914900000000004
v -1.700397 -0.625922 0.05705800000000004
v -1.722646 -0.679528 0.31883200000000006
v -1.72899 -0.640558 0.23099900000000004
v -1.679991 -0.625678 0.23208800000000002
v -1.649054 -0.64159 0.05284300000000004
v -1.624036 -0.642 0.22265400000000002
v -1.633935 -0.684191 0.31031400000000003
v -1.67805 -0.651663 0.3045860000000001
v -1.66523 -0.7197 0.34708000000000006
v -1.644615 -0.710589 0.38031700000000007
v -1.716993 -0.764586 0.37663100000000005
v -1.657773 -0.773367 0.37687300000000007
v -1.644615 -0.710589 0.38031700000000007
v -1.703123 -0.70335 0.39013300000000006
vt 0.575398 0.044349
vt 0.575044 0.040975
vt 0.577320 0.038307
vt 0.572494 0.045448
vt 0.572612 0.039249
vt 0.575044 0.040975
vt 0.572612 0.039249
vt 0.572494 0.045448
vt 0.569512 0.043878
vt 0.569512 0.043878
vt 0.569355 0.038543
vt 0.572612 0.039249
vt 0.569355 0.038543
vt 0.569512 0.043878
vt 0.567041 0.042544
vt 0.567041 0.042544
vt 0.566452 0.040269
vt 0.575044 0.040975
vt 0.575398 0.044349
vt 0.572494 0.045448
vt 0.569512 0.043878
vt 0.569669 0.053609
vt 0.568296 0.051019
vt 0.572455 0.051804
vt 0.566374 0.050470
vt 0.567041 0.042544
vt 0.565040 0.044977
vt 0.564255 0.056904
vt 0.561469 0.051176
vt 0.560129 0.068924
vt 0.556604 0.064673
vt 0.566491 0.060592
vt 0.563854 0.072940
vt 0.564235 0.075523
vt 0.560129 0.068924
vt 0.568885 0.062083
vt 0.567112 0.071984
vt 0.572377 0.062319
vt 0.573997 0.077748
vt 0.567740 0.075902
vt 0.573997 0.077748
vt 0.564235 0.075523
vt 0.569434 0.079817
vt 0.563509 0.077542
vt 0.560129 0.068924
vt 0.567198 0.079582
vt 0.573997 0.077748
vt 0.575947 0.061769
vt 0.576004 0.070052
vt 0.573997 0.077748
vt 0.582107 0.076757
vt 0.573997 0.077748
vt 0.575162 0.053609
vt 0.575398 0.044349
vt 0.580263 0.067890
vt 0.585167 0.071578
vt 0.576810 0.050941
vt 0.578733 0.060279
vt 0.580812 0.057061
vt 0.586658 0.068282
vt 0.583088 0.051255
vt 0.579949 0.044663
vt 0.578850 0.050627
vt 0.577477 0.042074
vt 0.577320 0.038307
vt 0.572612 0.039249
vt 0.574966 0.033913
vt 0.577320 0.038307
vt 0.575044 0.040975
vn -0.446289 0.773142 0.45064099999999996
vn -0.777562 0.628414 -0.02222400000000004
vn 0.535982 0.727684 0.42801799999999995
vn -0.858084 -0.41936 0.296359
vn -0.493892 -0.830698 0.25692600000000004
vn -0.777562 0.628414 -0.02222400000000004
vn -0.493892 -0.830698 0.25692600000000004
vn -0.858084 -0.41936 0.296359
vn 0.447375 -0.870483 0.20522100000000004
vn 0.447375 -0.870483 0.20522100000000004
vn 0.757185 -0.581125 -0.2982699999999999
vn -0.493892 -0.830698 0.25692600000000004
vn 0.757185 -0.581125 -0.2982699999999999
vn 0.447375 -0.870483 0.20522100000000004
vn 0.858427 0.361697 0.3637
vn 0.858427 0.361697 0.3637
vn 0.535982 0.727684 0.42801799999999995
vn -0.777562 0.628414 -0.02222400000000004
vn -0.446289 0.773142 0.45064099999999996
vn -0.858084 -0.41936 0.296359
vn 0.447375 -0.870483 0.20522100000000004
vn -0.18941 -0.861953 0.47027700000000006
vn 0.552978 -0.773162 0.31054200000000004
vn -0.762775 -0.523853 0.37914800000000004
vn 0.849719 -0.21042099999999997 0.483426
vn 0.858427 0.361697 0.3637
vn 0.725078 0.49573800000000007 0.4780229999999999
vn 0.98075 -0.181563 0.07185800000000002
vn 0.794952 0.600039 0.08946899999999997
vn 0.952411 -0.015135000000000018 -0.30444
vn 0.371312 0.671765 -0.640983
vn 0.694848 -0.71892 0.018416000000000043
vn 0.411286 -0.736841 -0.536573
vn 0.411172 0.03144699999999995 -0.911015
vn 0.952411 -0.015135000000000018 -0.30444
vn -0.167931 -0.981431 0.09269200000000005
vn -0.550939 -0.76272 -0.33870999999999996
vn -0.819509 -0.547119 0.17048900000000003
vn -0.960878 -0.178448 -0.211825
vn -0.343131 -0.015462000000000057 -0.93916
vn -0.960878 -0.178448 -0.211825
vn 0.411172 0.03144699999999995 -0.911015
vn -0.626784 0.64265 -0.44061600000000006
vn 0.371312 0.671765 -0.640983
vn 0.952411 -0.015135000000000018 -0.30444
vn -0.076323 0.972187 -0.22142200000000006
vn -0.960878 -0.178448 -0.211825
vn -0.941064 0.21543300000000004 0.260742
vn -0.970685 0.237184 0.038909999999999986
vn -0.960878 -0.178448 -0.211825
vn -0.626784 0.64265 -0.44061600000000006
vn -0.960878 -0.178448 -0.211825
vn -0.799127 0.020461000000000038 0.600813
vn -0.446289 0.773142 0.45064099999999996
vn -0.464224 0.879523 0.10456799999999994
vn -0.076323 0.972187 -0.22142200000000006
vn -0.531041 0.658794 0.532903
vn -0.43066 0.87588 0.21763499999999994
vn 0.06843 0.973661 0.21748799999999993
vn 0.371312 0.671765 -0.640983
vn 0.794952 0.600039 0.08946899999999997
vn 0.725078 0.49573800000000007 0.4780229999999999
vn 0.120584 0.747434 0.653301
vn 0.858427 0.361697 0.3637
vn 0.535982 0.727684 0.42801799999999995
vn -0.493892 -0.830698 0.25692600000000004
vn 0.757185 -0.581125 -0.2982699999999999
vn 0.535982 0.727684 0.42801799999999995
vn -0.777562 0.628414 -0.02222400000000004
g 01
f 1/1/1 2/2/2 3/3/3
f 4/4/4 5/5/5 6/6/6
f 7/7/7 8/8/8 9/9/9
f 10/10/10 11/11/11 12/12/12
f 13/13/13 14/14/14 15/15/15
f 16/16/16 17/17/17 13/13/13
f 18/18/18 19/19/19 20/20/20
f 21/21/21 20/20/20 22/22/22
f 21/21/21 22/22/22 23/23/23
f 20/20/20 24/24/24 22/22/22
f 21/21/21 23/23/23 25/25/25
f 26/26/26 21/21/21 25/25/25
f 26/26/26 25/25/25 27/27/27
f 27/27/27 25/25/25 28/28/28
f 28/28/28 25/25/25 23/23/23
f 28/28/28 29/29/29 27/27/27
f 30/30/30 31/31/31 29/29/29
f 29/29/29 28/28/28 30/30/30
f 30/30/30 28/28/28 32/32/32
f 23/23/23 32/32/32 28/28/28
f 32/32/32 33/33/33 30/30/30
f 33/33/33 34/34/34 35/35/35
f 36/36/36 32/32/32 23/23/23
f 23/23/23 22/22/22 36/36/36
f 33/33/33 32/32/32 36/36/36
f 36/36/36 22/22/22 24/24/24
f 36/36/36 37/37/37 33/33/33
f 24/24/24 38/38/38 36/36/36
f 37/37/37 36/36/36 38/38/38
f 38/38/38 39/39/39 37/37/37
f 33/33/33 37/37/37 40/40/40
f 40/40/40 37/37/37 41/41/41
f 40/40/40 42/42/42 33/33/33
f 40/40/40 41/41/41 43/43/43
f 44/44/44 42/42/42 40/40/40
f 44/44/44 40/40/40 43/43/43
f 42/42/42 44/44/44 45/45/45
f 44/44/44 43/43/43 46/46/46
f 47/47/47 38/38/38 48/48/48
f 48/48/48 38/38/38 24/24/24
f 48/48/48 49/49/49 50/50/50
f 49/49/49 51/51/51 52/52/52
f 49/49/49 48/48/48 51/51/51
f 24/24/24 53/53/53 48/48/48
f 20/20/20 53/53/53 24/24/24
f 20/20/20 54/54/54 53/53/53
f 48/48/48 55/55/55 51/51/51
f 51/51/51 55/55/55 56/56/56
f 48/48/48 53/53/53 57/57/57
f 54/54/54 57/57/57 53/53/53
f 48/48/48 58/58/58 55/55/55
f 55/55/55 58/58/58 56/56/56
f 57/57/57 58/58/58 48/48/48
f 58/58/58 59/59/59 56/56/56
f 59/59/59 58/58/58 57/57/57
f 59/59/59 60/60/60 56/56/56
f 59/59/59 61/61/61 60/60/60
f 62/62/62 61/61/61 59/59/59
f 57/57/57 63/63/63 59/59/59
f 59/59/59 63/63/63 62/62/62
f 54/54/54 63/63/63 57/57/57
f 64/64/64 62/62/62 63/63/63
f 54/54/54 64/64/64 63/63/63
f 65/65/65 64/64/64 54/54/54
f 66/66/66 67/67/67 68/68/68
f 68/68/68 69/69/69 66/66/66
