v 0.1190401604 -0.21949285259999998 0.009355237100000014
v 0.1212138972 0.17261274280000002 0.00846975159999999
v -0.12241793670000001 0.1727010548 0.00848631009999999
v -0.10391215710000001 -0.22836899710000003 0.009363595200000014
v 0.15814629100000002 0.17648207000000002 -0.07544320690000002
v -0.15935048820000003 0.17657038200000003 -0.07542649070000002
v 0.1212138972 0.17261274280000002 0.00846975159999999
v -0.12241793670000001 0.1727010548 0.00848631009999999
vt 0.394425 0.884811
vt 0.417067 0.882226
vt 0.044051 0.631852
vt 0.011688 0.631852
vt 0.417067 0.882226
vt 0.044051 0.631852
vt 0.417067 0.882226
vt 0.044051 0.631852
vn 1E-05 0.002221000000000061 0.999998
vn 6.9E-05 0.002258000000000061 0.999997
vn 1E-05 0.002221000000000061 0.999998
vn -5E-05 0.002185000000000061 0.999998
vn 0.00028 0.998933 0.046185999999999935
vn 0.000365 0.998946 0.045901999999999936
vn 0.000365 0.998946 0.045901999999999936
vn 0.000365 0.998946 0.045901999999999936
g Default Standard
f 7/7/7 5/5/5 6/6/6
f 6/6/6 8/8/8 7/7/7
f 3/3/3 4/4/4 1/1/1
f 1/1/1 2/2/2 3/3/3
