v -1.339311 0.512661 -0.00024400000000003138
v -1.339311 0.512661 0.36880199999999996
v -1.302965 0.546261 0.36880199999999996
v -1.302965 0.546261 0.36880199999999996
v -1.302965 0.546261 -0.00024400000000003344
v -1.339311 0.512661 -0.00024400000000003138
v -0.509836 1.368543 -0.029206000000000083
v -0.509836 1.368543 0.3690459999999999
v -0.474959 1.403666 0.3690459999999999
v -0.474959 1.403666 0.3690459999999999
v -0.474959 1.403666 -0.029206000000000086
v -0.509836 1.368543 -0.029206000000000083
v -1.385852 1.333666 -0.029206000000000083
v -1.385852 1.333666 0.36904599999999993
v -1.420852 1.368666 0.3690459999999999
v -1.420852 1.368666 0.3690459999999999
v -1.420852 1.368666 -0.029206000000000083
v -1.385852 1.333666 -0.029206000000000083
v 0.486623 1.398252 -0.029206000000000086
v 0.486623 1.398252 0.3690459999999999
v 0.521623 1.433252 0.3690459999999999
v 0.521623 1.433252 0.3690459999999999
v 0.521623 1.433252 -0.029206000000000086
v 0.486623 1.398252 -0.029206000000000086
v 1.370591 1.398252 -0.029206000000000086
v 1.370591 1.398252 0.3690459999999999
v 1.405591 1.433252 0.3690459999999999
v 1.405591 1.433252 0.3690459999999999
v 1.405591 1.433252 -0.029206000000000086
v 1.370591 1.398252 -0.029206000000000086
v 1.394737 0.510644 0.006853999999999969
v 1.469183 0.465296 0.36545799999999995
v 1.441928 0.423981 0.365891
v 1.441928 0.423981 0.365891
v 1.367482 0.469328 0.007287999999999972
v 1.394737 0.510644 0.006853999999999969
v 0.542495 -1.399437 -0.026451999999999913
v 0.504777 -1.347678 0.3666170000000001
v 0.479334 -1.39002 0.3697510000000001
v 0.479334 -1.39002 0.3697510000000001
v 0.517052 -1.441779 -0.02331799999999991
v 0.542495 -1.399437 -0.026451999999999913
v 1.383785 -0.491359 -0.03112299999999997
v 1.34208 -0.450339 0.36281
v 1.376505 -0.485153 0.3700800000000001
v 1.376505 -0.485153 0.3700800000000001
v 1.418211 -0.526173 -0.023852999999999968
v 1.383785 -0.491359 -0.03112299999999997
v 1.405591 -1.349882 -0.029205999999999916
v 1.405591 -1.349882 0.36904600000000004
v 1.440592 -1.384882 0.3690460000000001
v 1.440592 -1.384882 0.3690460000000001
v 1.440592 -1.384882 -0.029205999999999916
v 1.405591 -1.349882 -0.029205999999999916
v -1.397789 -0.487204 -0.034630999999999974
v -1.332122 -0.526568 0.35619300000000004
v -1.366763 -0.492447 0.36545000000000005
v -1.366763 -0.492447 0.36545000000000005
v -1.432431 -0.453082 -0.025373999999999973
v -1.397789 -0.487204 -0.034630999999999974
v -0.470717 -1.408405 -0.03067599999999991
v -0.463882 -1.364941 0.3651390000000001
v -0.498659 -1.399882 0.3695760000000001
v -0.498659 -1.399882 0.3695760000000001
v -0.505494 -1.443346 -0.02623899999999991
v -0.470717 -1.408405 -0.03067599999999991
v -1.350852 -1.384882 -0.029205999999999916
v -1.350852 -1.384882 0.3690460000000001
v -1.385852 -1.419882 0.3690460000000001
v -1.385852 -1.419882 0.3690460000000001
v -1.385852 -1.419882 -0.029205999999999913
v -1.350852 -1.384882 -0.029205999999999916
v -1.30571 0.476315 -0.00024400000000002916
v -1.30571 0.476315 0.36880199999999996
v -1.339311 0.512661 0.36880199999999996
v -1.339311 0.512661 -0.00024400000000003138
v -1.30571 0.476315 -0.00024400000000002916
v -0.474714 1.333666 -0.029206000000000083
v -0.474714 1.333666 0.36904599999999993
v -0.509836 1.368543 0.3690459999999999
v -0.509836 1.368543 -0.029206000000000083
v -0.474714 1.333666 -0.029206000000000083
v -1.350852 1.368666 -0.029206000000000083
v -1.350852 1.368666 0.3690459999999999
v -1.385852 1.333666 0.36904599999999993
v -1.385852 1.333666 -0.029206000000000083
v -1.350852 1.368666 -0.029206000000000083
v 0.521623 1.363252 -0.029206000000000083
v 0.521623 1.363252 0.3690459999999999
v 0.486623 1.398252 0.3690459999999999
v 0.486623 1.398252 -0.029206000000000086
v 0.521623 1.363252 -0.029206000000000083
v 1.405591 1.363252 -0.029206000000000083
v 1.405591 1.363252 0.3690459999999999
v 1.370591 1.398252 0.3690459999999999
v 1.370591 1.398252 -0.029206000000000086
v 1.405591 1.363252 -0.029206000000000083
v 1.354644 0.537215 0.018537999999999968
v 1.42909 0.491868 0.37714099999999995
v 1.469183 0.465296 0.36545799999999995
v 1.394737 0.510644 0.006853999999999969
v 1.354644 0.537215 0.018537999999999968
v 0.500297 -1.374622 -0.03376899999999992
v 0.462579 -1.322863 0.35930000000000006
v 0.504777 -1.347678 0.3666170000000001
v 0.542495 -1.399437 -0.026451999999999913
v 0.500297 -1.374622 -0.03376899999999992
v 1.348601 -0.526173 -0.03122299999999997
v 1.306895 -0.485153 0.36271000000000003
v 1.34208 -0.450339 0.36281
v 1.383785 -0.491359 -0.03112299999999997
v 1.348601 -0.526173 -0.03122299999999997
v 1.370591 -1.384882 -0.029205999999999916
v 1.370591 -1.384882 0.3690460000000001
v 1.405591 -1.349882 0.36904600000000004
v 1.405591 -1.349882 -0.029205999999999916
v 1.370591 -1.384882 -0.029205999999999916
v -1.363389 -0.451682 -0.03683299999999997
v -1.297722 -0.491047 0.35399100000000006
v -1.332122 -0.526568 0.35619300000000004
v -1.397789 -0.487204 -0.034630999999999974
v -1.363389 -0.451682 -0.03683299999999997
v -0.505928 -1.373765 -0.033871999999999916
v -0.499093 -1.330301 0.36194300000000007
v -0.463882 -1.364941 0.3651390000000001
v -0.470717 -1.408405 -0.03067599999999991
v -0.505928 -1.373765 -0.033871999999999916
v -1.385852 -1.349882 -0.029205999999999916
v -1.385852 -1.349882 0.36904600000000004
v -1.350852 -1.384882 0.3690460000000001
v -1.350852 -1.384882 -0.029205999999999916
v -1.385852 -1.349882 -0.029205999999999916
v -1.269365 0.509916 0.36880199999999996
v -1.302965 0.546261 0.36880199999999996
v -1.339311 0.512661 0.36880199999999996
v -1.30571 0.476315 0.36880199999999996
v -1.269365 0.509916 -0.00024400000000003122
v -1.269365 0.509916 0.36880199999999996
v -1.30571 0.476315 0.36880199999999996
v -1.30571 0.476315 -0.00024400000000002916
v -1.302965 0.546261 -0.00024400000000003344
v -1.302965 0.546261 0.36880199999999996
v -1.269365 0.509916 0.36880199999999996
v -1.269365 0.509916 -0.00024400000000003122
v -0.439837 1.368788 0.3690459999999999
v -0.474959 1.403666 0.3690459999999999
v -0.509836 1.368543 0.3690459999999999
v -0.474714 1.333666 0.36904599999999993
v -0.439837 1.368788 -0.029206000000000083
v -0.439837 1.368788 0.3690459999999999
v -0.474714 1.333666 0.36904599999999993
v -0.474714 1.333666 -0.029206000000000083
v -0.474959 1.403666 -0.029206000000000086
v -0.474959 1.403666 0.3690459999999999
v -0.439837 1.368788 0.3690459999999999
v -0.439837 1.368788 -0.029206000000000083
v -1.442885 1.443379 0.15594299999999992
v -1.419121 1.443379 0.15594299999999992
v -1.419121 1.445139 0.08764299999999992
v -1.442885 1.445139 0.08764299999999992
v -1.359183 0.451622 0.06789999999999997
v -1.335419 0.451622 0.06789999999999997
v -1.335419 0.449862 0.13619899999999996
v -1.359183 0.449862 0.13619899999999996
v -1.442885 1.445882 0.27598099999999987
v -1.419121 1.445882 0.27598099999999987
v -1.419121 1.440582 0.2078649999999999
v -1.442885 1.440582 0.2078649999999999
v -1.359183 0.44912 0.26732
v -1.335419 0.44912 0.26732
v -1.335419 0.45442 0.33543599999999996
v -1.359183 0.45442 0.33543599999999996
v -0.434642 1.426071 0.1690389999999999
v -0.434642 1.402307 0.1690389999999999
v -0.430016 1.402307 0.10087299999999992
v -0.430016 1.426071 0.10087299999999992
v -1.421798 1.426072 0.04897499999999991
v -1.421798 1.402307 0.048974999999999914
v -1.426425 1.402307 0.11713999999999991
v -1.426425 1.426072 0.11713999999999991
v -0.430105 1.426071 0.2943349999999999
v -0.430105 1.402307 0.2943349999999999
v -0.434114 1.402307 0.22613099999999992
v -0.434114 1.426071 0.22613099999999992
v -1.426335 1.426072 0.2710909999999999
v -1.426335 1.402307 0.2710909999999999
v -1.422327 1.402307 0.3392949999999999
v -1.422327 1.426072 0.3392949999999999
v -1.385852 1.403666 0.3690459999999999
v -1.420852 1.368666 0.3690459999999999
v -1.385852 1.333666 0.36904599999999993
v -1.350852 1.368666 0.3690459999999999
v -1.385852 1.403666 -0.029206000000000086
v -1.385852 1.403666 0.3690459999999999
v -1.350852 1.368666 0.3690459999999999
v -1.350852 1.368666 -0.029206000000000083
v -1.420852 1.368666 -0.029206000000000083
v -1.420852 1.368666 0.3690459999999999
v -1.385852 1.403666 0.3690459999999999
v -1.385852 1.403666 -0.029206000000000086
v 0.556623 1.398252 0.3690459999999999
v 0.521623 1.433252 0.3690459999999999
v 0.486623 1.398252 0.3690459999999999
v 0.521623 1.363252 0.3690459999999999
v 0.556623 1.398252 -0.029206000000000086
v 0.556623 1.398252 0.3690459999999999
v 0.521623 1.363252 0.3690459999999999
v 0.521623 1.363252 -0.029206000000000083
v 0.521623 1.433252 -0.029206000000000086
v 0.521623 1.433252 0.3690459999999999
v 0.556623 1.398252 0.3690459999999999
v 0.556623 1.398252 -0.029206000000000086
v 1.480305 1.455286 0.15594299999999992
v 1.480305 1.431522 0.15594299999999992
v 1.482065 1.431522 0.08764299999999992
v 1.482065 1.455286 0.08764299999999992
v 0.488548 1.455286 0.06789999999999992
v 0.488548 1.431522 0.06789999999999992
v 0.486788 1.431522 0.1361989999999999
v 0.486788 1.455286 0.1361989999999999
v 1.482808 1.455286 0.27598099999999987
v 1.482808 1.431522 0.27598099999999987
v 1.477508 1.431522 0.2078649999999999
v 1.477508 1.455286 0.2078649999999999
v 0.486045 1.455286 0.2673199999999999
v 0.486045 1.431522 0.2673199999999999
v 0.491346 1.431522 0.3354359999999999
v 0.491346 1.455286 0.3354359999999999
v 1.460833 0.458881 0.16054799999999997
v 1.438088 0.453287 0.16456299999999996
v 1.425299 0.457202 0.09756199999999997
v 1.448045 0.462796 0.09354799999999998
v 1.462997 1.434199 0.04897499999999991
v 1.439233 1.434199 0.04897499999999991
v 1.439233 1.438826 0.11713999999999991
v 1.462997 1.438826 0.11713999999999991
v 1.487052 0.439111 0.28155
v 1.464307 0.433517 0.285565
v 1.449715 0.445762 0.21995199999999998
v 1.47246 0.451356 0.21593699999999996
v 1.462997 1.438736 0.2710909999999999
v 1.439233 1.438736 0.2710909999999999
v 1.439233 1.434728 0.3392949999999999
v 1.462997 1.434728 0.3392949999999999
v 1.440592 1.398252 0.3690459999999999
v 1.405591 1.433252 0.3690459999999999
v 1.370591 1.398252 0.3690459999999999
v 1.405591 1.363252 0.3690459999999999
v 1.440592 1.398252 -0.029206000000000086
v 1.440592 1.398252 0.3690459999999999
v 1.405591 1.363252 0.3690459999999999
v 1.405591 1.363252 -0.029206000000000083
v 1.405591 1.433252 -0.029206000000000086
v 1.405591 1.433252 0.3690459999999999
v 1.440592 1.398252 0.3690459999999999
v 1.440592 1.398252 -0.029206000000000086
v 1.401835 0.450552 0.377575
v 1.441928 0.423981 0.365891
v 1.469183 0.465296 0.36545799999999995
v 1.42909 0.491868 0.37714099999999995
v 1.327389 0.4959 0.018970999999999967
v 1.401835 0.450552 0.377575
v 1.42909 0.491868 0.37714099999999995
v 1.354644 0.537215 0.018537999999999968
v 1.367482 0.469328 0.007287999999999972
v 1.441928 0.423981 0.365891
v 1.401835 0.450552 0.377575
v 1.327389 0.4959 0.018970999999999967
v 0.437136 -1.365205 0.3624340000000001
v 0.479334 -1.39002 0.3697510000000001
v 0.504777 -1.347678 0.3666170000000001
v 0.462579 -1.322863 0.35930000000000006
v 0.474854 -1.416964 -0.030634999999999912
v 0.437136 -1.365205 0.3624340000000001
v 0.462579 -1.322863 0.35930000000000006
v 0.500297 -1.374622 -0.03376899999999992
v 0.517052 -1.441779 -0.02331799999999991
v 0.479334 -1.39002 0.3697510000000001
v 0.437136 -1.365205 0.3624340000000001
v 0.474854 -1.416964 -0.030634999999999912
v 1.341321 -0.519967 0.36998000000000003
v 1.376505 -0.485153 0.3700800000000001
v 1.34208 -0.450339 0.36281
v 1.306895 -0.485153 0.36271000000000003
v 1.383027 -0.560987 -0.023952999999999964
v 1.341321 -0.519967 0.36998000000000003
v 1.306895 -0.485153 0.36271000000000003
v 1.348601 -0.526173 -0.03122299999999997
v 1.418211 -0.526173 -0.023852999999999968
v 1.376505 -0.485153 0.3700800000000001
v 1.341321 -0.519967 0.36998000000000003
v 1.383027 -0.560987 -0.023952999999999964
v 1.462625 -1.459596 0.15594300000000008
v 1.438861 -1.459596 0.15594300000000008
v 1.438861 -1.461356 0.08764300000000008
v 1.462625 -1.461356 0.08764300000000008
v 1.430312 -0.483272 0.07113100000000003
v 1.40668 -0.483272 0.06862900000000002
v 1.399547 -0.474486 0.13600800000000002
v 1.423179 -0.474486 0.13851000000000002
v 1.462625 -1.462098 0.2759810000000001
v 1.438861 -1.462098 0.2759810000000001
v 1.438861 -1.456798 0.20786500000000008
v 1.462625 -1.456798 0.20786500000000008
v 1.409456 -0.460243 0.26813200000000004
v 1.385823 -0.460243 0.26563000000000003
v 1.378633 -0.458499 0.33355000000000007
v 1.402265 -0.458499 0.3360520000000001
v 0.464572 -1.447489 0.17325700000000008
v 0.458964 -1.424669 0.1697140000000001
v 0.460946 -1.434671 0.10215700000000008
v 0.466553 -1.457491 0.10570000000000009
v 1.441538 -1.442288 0.04897500000000009
v 1.441538 -1.418523 0.04897500000000009
v 1.446165 -1.418523 0.11714000000000008
v 1.446165 -1.442288 0.11714000000000008
v 0.448318 -1.432325 0.2966490000000001
v 0.44271 -1.409506 0.2931060000000001
v 0.453046 -1.41738 0.2260310000000001
v 0.458653 -1.4402 0.22957400000000008
v 1.446075 -1.442288 0.27109100000000014
v 1.446075 -1.418523 0.27109100000000014
v 1.442067 -1.418523 0.3392950000000001
v 1.442067 -1.442288 0.3392950000000001
v 1.405591 -1.419882 0.3690460000000001
v 1.440592 -1.384882 0.3690460000000001
v 1.405591 -1.349882 0.36904600000000004
v 1.370591 -1.384882 0.3690460000000001
v 1.405591 -1.419882 -0.029205999999999913
v 1.405591 -1.419882 0.3690460000000001
v 1.370591 -1.384882 0.3690460000000001
v 1.370591 -1.384882 -0.029205999999999916
v 1.440592 -1.384882 -0.029205999999999916
v 1.440592 -1.384882 0.3690460000000001
v 1.405591 -1.419882 0.3690460000000001
v 1.405591 -1.419882 -0.029205999999999913
v -1.332363 -0.456925 0.36324800000000007
v -1.366763 -0.492447 0.36545000000000005
v -1.332122 -0.526568 0.35619300000000004
v -1.297722 -0.491047 0.35399100000000006
v -1.398031 -0.417561 -0.027575999999999976
v -1.332363 -0.456925 0.36324800000000007
v -1.297722 -0.491047 0.35399100000000006
v -1.363389 -0.451682 -0.03683299999999997
v -1.432431 -0.453082 -0.025373999999999973
v -1.366763 -0.492447 0.36545000000000005
v -1.332363 -0.456925 0.36324800000000007
v -1.398031 -0.417561 -0.027575999999999976
v -0.53387 -1.365242 0.3663800000000001
v -0.498659 -1.399882 0.3695760000000001
v -0.463882 -1.364941 0.3651390000000001
v -0.499093 -1.330301 0.36194300000000007
v -0.540705 -1.408706 -0.029434999999999913
v -0.53387 -1.365242 0.3663800000000001
v -0.499093 -1.330301 0.36194300000000007
v -0.505928 -1.373765 -0.033871999999999916
v -0.505494 -1.443346 -0.02623899999999991
v -0.498659 -1.399882 0.3695760000000001
v -0.53387 -1.365242 0.3663800000000001
v -0.540705 -1.408706 -0.029434999999999913
v -1.460566 -1.441916 0.15594300000000008
v -1.460566 -1.418151 0.15594300000000008
v -1.462326 -1.418151 0.08764300000000008
v -1.462326 -1.441916 0.08764300000000008
v -0.470621 -1.454508 0.07208900000000008
v -0.470769 -1.430886 0.06949800000000009
v -0.467837 -1.423425 0.13734800000000008
v -0.467689 -1.447047 0.1399390000000001
v -1.463068 -1.441916 0.2759810000000001
v -1.463068 -1.418151 0.2759810000000001
v -1.457768 -1.418151 0.20786500000000008
v -1.457768 -1.441916 0.20786500000000008
v -0.464697 -1.432734 0.2702440000000001
v -0.464844 -1.409111 0.2676520000000001
v -0.468974 -1.4017 0.33544600000000013
v -0.468827 -1.425322 0.3380370000000001
v -1.421842 -0.432934 0.17689000000000002
v -1.398403 -0.432541 0.17299100000000003
v -1.409642 -0.4212 0.10656100000000003
v -1.433081 -0.421593 0.11045900000000003
v -1.443258 -1.420829 0.04897500000000009
v -1.419493 -1.420829 0.04897500000000009
v -1.419493 -1.425455 0.11714000000000008
v -1.443258 -1.425455 0.11714000000000008
v -1.401181 -0.440805 0.300303
v -1.377743 -0.440412 0.296405
v -1.388989 -0.437658 0.22907100000000002
v -1.412428 -0.438051 0.23296900000000004
v -1.443258 -1.425366 0.27109100000000014
v -1.419493 -1.425366 0.27109100000000014
v -1.419493 -1.421358 0.3392950000000001
v -1.443258 -1.421358 0.3392950000000001
v -1.420852 -1.384882 0.3690460000000001
v -1.385852 -1.419882 0.3690460000000001
v -1.350852 -1.384882 0.3690460000000001
v -1.385852 -1.349882 0.36904600000000004
v -1.420852 -1.384882 -0.029205999999999916
v -1.420852 -1.384882 0.3690460000000001
v -1.385852 -1.349882 0.36904600000000004
v -1.385852 -1.349882 -0.029205999999999916
v -1.385852 -1.419882 -0.029205999999999913
v -1.385852 -1.419882 0.3690460000000001
v -1.420852 -1.384882 0.3690460000000001
v -1.420852 -1.384882 -0.029205999999999916
v -1.378529 0.955928 0.14625599999999994
v -1.419121 1.443379 0.15594299999999992
v -1.442885 1.443379 0.15594299999999992
v -1.402293 0.956345 0.14626399999999995
v -1.335419 0.449862 0.13619899999999996
v -1.359183 0.449862 0.13619899999999996
v -1.378529 0.955928 0.14625599999999994
v -1.335419 0.449862 0.13619899999999996
v -1.335419 0.451622 0.06789999999999997
v -1.378529 0.955848 0.07791999999999995
v -1.419121 1.443379 0.15594299999999992
v -1.419121 1.445139 0.08764299999999992
v -1.378529 0.956114 0.30535099999999993
v -1.419121 1.445882 0.27598099999999987
v -1.442885 1.445882 0.27598099999999987
v -1.402293 0.956531 0.30532599999999993
v -1.335419 0.45442 0.33543599999999996
v -1.359183 0.45442 0.33543599999999996
v -1.378529 0.956114 0.30535099999999993
v -1.335419 0.45442 0.33543599999999996
v -1.335419 0.44912 0.26732
v -1.378529 0.956034 0.23692099999999994
v -1.419121 1.445882 0.27598099999999987
v -1.419121 1.440582 0.2078649999999999
v -0.936499 1.422815 0.1427769999999999
v -0.434642 1.402307 0.1690389999999999
v -0.434642 1.426071 0.1690389999999999
v -0.936499 1.446579 0.1427769999999999
v -1.426425 1.402307 0.11713999999999991
v -1.426425 1.426072 0.11713999999999991
v -0.936499 1.422815 0.1427769999999999
v -1.426425 1.402307 0.11713999999999991
v -1.421798 1.402307 0.048974999999999914
v -0.93658 1.422815 0.07436599999999992
v -0.434642 1.402307 0.1690389999999999
v -0.430016 1.402307 0.10087299999999992
v -0.936295 1.422815 0.3050039999999999
v -0.430105 1.402307 0.2943349999999999
v -0.430105 1.426071 0.2943349999999999
v -0.936295 1.446579 0.3050039999999999
v -1.422327 1.402307 0.3392949999999999
v -1.422327 1.426072 0.3392949999999999
v -0.936295 1.422815 0.3050039999999999
v -1.422327 1.402307 0.3392949999999999
v -1.426335 1.402307 0.2710909999999999
v -0.936375 1.422815 0.23662099999999991
v -0.430105 1.402307 0.2943349999999999
v -0.434114 1.402307 0.22613099999999992
v 0.992854 1.405914 0.1462559999999999
v 1.480305 1.431522 0.15594299999999992
v 1.480305 1.455286 0.15594299999999992
v 0.993271 1.429678 0.14626399999999992
v 0.486788 1.431522 0.1361989999999999
v 0.486788 1.455286 0.1361989999999999
v 0.992854 1.405914 0.1462559999999999
v 0.486788 1.431522 0.1361989999999999
v 0.488548 1.431522 0.06789999999999992
v 0.992774 1.405914 0.07791999999999992
v 1.480305 1.431522 0.15594299999999992
v 1.482065 1.431522 0.08764299999999992
v 0.99304 1.405914 0.3053509999999999
v 1.482808 1.431522 0.27598099999999987
v 1.482808 1.455286 0.27598099999999987
v 0.993457 1.429678 0.3053259999999999
v 0.491346 1.431522 0.3354359999999999
v 0.491346 1.455286 0.3354359999999999
v 0.99304 1.405914 0.3053509999999999
v 0.491346 1.431522 0.3354359999999999
v 0.486045 1.431522 0.2673199999999999
v 0.99296 1.405914 0.2369209999999999
v 1.482808 1.431522 0.27598099999999987
v 1.477508 1.431522 0.2078649999999999
v 1.452132 0.9489 0.14539399999999994
v 1.438088 0.453287 0.16456299999999996
v 1.460833 0.458881 0.16054799999999997
v 1.475568 0.9489 0.14145699999999994
v 1.439233 1.438826 0.11713999999999991
v 1.462997 1.438826 0.11713999999999991
v 1.452132 0.9489 0.14539399999999994
v 1.439233 1.438826 0.11713999999999991
v 1.439233 1.434199 0.04897499999999991
v 1.440797 0.94898 0.07792799999999994
v 1.438088 0.453287 0.16456299999999996
v 1.425299 0.457202 0.09756199999999997
v 1.479011 0.948696 0.30537899999999996
v 1.464307 0.433517 0.285565
v 1.487052 0.439111 0.28155
v 1.502447 0.948696 0.30144099999999996
v 1.439233 1.434728 0.3392949999999999
v 1.462997 1.434728 0.3392949999999999
v 1.479011 0.948696 0.30537899999999996
v 1.439233 1.434728 0.3392949999999999
v 1.439233 1.438736 0.2710909999999999
v 1.46768 0.948776 0.23794099999999996
v 1.464307 0.433517 0.285565
v 1.449715 0.445762 0.21995199999999998
v 1.413253 -0.972144 0.14625600000000005
v 1.438861 -1.459596 0.15594300000000008
v 1.462625 -1.459596 0.15594300000000008
v 1.437017 -0.972561 0.14626400000000006
v 1.399547 -0.474486 0.13600800000000002
v 1.423179 -0.474486 0.13851000000000002
v 1.413253 -0.972144 0.14625600000000005
v 1.399547 -0.474486 0.13600800000000002
v 1.40668 -0.483272 0.06862900000000002
v 1.413253 -0.972064 0.07792000000000006
v 1.438861 -1.459596 0.15594300000000008
v 1.438861 -1.461356 0.08764300000000008
v 1.413253 -0.97233 0.30535100000000004
v 1.438861 -1.462098 0.2759810000000001
v 1.462625 -1.462098 0.2759810000000001
v 1.437017 -0.972747 0.30532600000000004
v 1.378633 -0.458499 0.33355000000000007
v 1.402265 -0.458499 0.3360520000000001
v 1.413253 -0.97233 0.30535100000000004
v 1.378633 -0.458499 0.33355000000000007
v 1.385823 -0.460243 0.26563000000000003
v 1.413253 -0.97225 0.23692100000000005
v 1.438861 -1.462098 0.2759810000000001
v 1.438861 -1.456798 0.20786500000000008
v 0.956239 -1.439031 0.14277700000000007
v 0.458964 -1.424669 0.1697140000000001
v 0.464572 -1.447489 0.17325700000000008
v 0.956239 -1.462795 0.14277700000000007
v 1.446165 -1.418523 0.11714000000000008
v 1.446165 -1.442288 0.11714000000000008
v 0.956239 -1.439031 0.14277700000000007
v 1.446165 -1.418523 0.11714000000000008
v 1.441538 -1.418523 0.04897500000000009
v 0.956319 -1.439031 0.07436600000000008
v 0.458964 -1.424669 0.1697140000000001
v 0.460946 -1.434671 0.10215700000000008
v 0.956035 -1.439031 0.3050040000000001
v 0.44271 -1.409506 0.2931060000000001
v 0.448318 -1.432325 0.2966490000000001
v 0.956035 -1.462795 0.3050040000000001
v 1.442067 -1.418523 0.3392950000000001
v 1.442067 -1.442288 0.3392950000000001
v 0.956035 -1.439031 0.3050040000000001
v 1.442067 -1.418523 0.3392950000000001
v 1.446075 -1.418523 0.27109100000000014
v 0.956115 -1.439031 0.23662100000000008
v 0.44271 -1.409506 0.2931060000000001
v 0.453046 -1.41738 0.2260310000000001
v -0.973114 -1.392544 0.14625600000000008
v -1.460566 -1.418151 0.15594300000000008
v -1.460566 -1.441916 0.15594300000000008
v -0.973531 -1.416308 0.1462640000000001
v -0.467837 -1.423425 0.13734800000000008
v -0.467689 -1.447047 0.1399390000000001
v -0.973114 -1.392544 0.14625600000000008
v -0.467837 -1.423425 0.13734800000000008
v -0.470769 -1.430886 0.06949800000000009
v -0.973034 -1.392544 0.07792000000000009
v -1.460566 -1.418151 0.15594300000000008
v -1.462326 -1.418151 0.08764300000000008
v -0.9733 -1.392544 0.3053510000000001
v -1.463068 -1.418151 0.2759810000000001
v -1.463068 -1.441916 0.2759810000000001
v -0.973717 -1.416308 0.3053260000000001
v -0.468974 -1.4017 0.33544600000000013
v -0.468827 -1.425322 0.3380370000000001
v -0.9733 -1.392544 0.3053510000000001
v -0.468974 -1.4017 0.33544600000000013
v -0.464844 -1.409111 0.2676520000000001
v -0.97322 -1.392544 0.23692100000000008
v -1.463068 -1.418151 0.2759810000000001
v -1.457768 -1.418151 0.20786500000000008
v -1.442723 -0.93553 0.14217100000000005
v -1.398403 -0.432541 0.17299100000000003
v -1.421842 -0.432934 0.17689000000000002
v -1.466448 -0.93553 0.14354000000000006
v -1.419493 -1.425455 0.11714000000000008
v -1.443258 -1.425455 0.11714000000000008
v -1.442723 -0.93553 0.14217100000000005
v -1.419493 -1.425455 0.11714000000000008
v -1.419493 -1.420829 0.04897500000000009
v -1.446663 -0.93561 0.07387300000000005
v -1.398403 -0.432541 0.17299100000000003
v -1.409642 -0.4212 0.10656100000000003
v -1.433379 -0.935325 0.30412800000000006
v -1.377743 -0.440412 0.296405
v -1.401181 -0.440805 0.300303
v -1.457104 -0.935325 0.3054970000000001
v -1.419493 -1.421358 0.3392950000000001
v -1.443258 -1.421358 0.3392950000000001
v -1.433379 -0.935325 0.30412800000000006
v -1.419493 -1.421358 0.3392950000000001
v -1.419493 -1.425366 0.27109100000000014
v -1.437318 -0.935405 0.23585900000000007
v -1.377743 -0.440412 0.296405
v -1.388989 -0.437658 0.22907100000000002
v -1.402293 0.956265 0.07792799999999994
v -1.359183 0.451622 0.06789999999999997
v -1.359183 0.449862 0.13619899999999996
v -1.402293 0.956345 0.14626399999999995
v -1.442885 1.443379 0.15594299999999992
v -1.442885 1.445139 0.08764299999999992
v -1.402293 0.956451 0.23689599999999994
v -1.359183 0.44912 0.26732
v -1.359183 0.45442 0.33543599999999996
v -1.402293 0.956531 0.30532599999999993
v -1.442885 1.445882 0.27598099999999987
v -1.442885 1.440582 0.2078649999999999
v -0.93658 1.446579 0.07436599999999992
v -1.421798 1.426072 0.04897499999999991
v -1.426425 1.426072 0.11713999999999991
v -0.936499 1.446579 0.1427769999999999
v -0.434642 1.426071 0.1690389999999999
v -0.430016 1.426071 0.10087299999999992
v -0.936375 1.446579 0.23662099999999991
v -1.426335 1.426072 0.2710909999999999
v -1.422327 1.426072 0.3392949999999999
v -0.936295 1.446579 0.3050039999999999
v -0.430105 1.426071 0.2943349999999999
v -0.434114 1.426071 0.22613099999999992
v 0.993191 1.429678 0.07792799999999991
v 0.488548 1.455286 0.06789999999999992
v 0.486788 1.455286 0.1361989999999999
v 0.993271 1.429678 0.14626399999999992
v 1.480305 1.455286 0.15594299999999992
v 1.482065 1.455286 0.08764299999999992
v 0.993377 1.429678 0.2368959999999999
v 0.486045 1.455286 0.2673199999999999
v 0.491346 1.455286 0.3354359999999999
v 0.993457 1.429678 0.3053259999999999
v 1.482808 1.455286 0.27598099999999987
v 1.477508 1.455286 0.2078649999999999
v 1.464233 0.94898 0.07399099999999995
v 1.462997 1.434199 0.04897499999999991
v 1.462997 1.438826 0.11713999999999991
v 1.475568 0.9489 0.14145699999999994
v 1.460833 0.458881 0.16054799999999997
v 1.448045 0.462796 0.09354799999999998
v 1.491116 0.948776 0.23400399999999993
v 1.462997 1.438736 0.2710909999999999
v 1.462997 1.434728 0.3392949999999999
v 1.502447 0.948696 0.30144099999999996
v 1.487052 0.439111 0.28155
v 1.47246 0.451356 0.21593699999999996
v 1.437017 -0.972481 0.07792800000000005
v 1.430312 -0.483272 0.07113100000000003
v 1.423179 -0.474486 0.13851000000000002
v 1.437017 -0.972561 0.14626400000000006
v 1.462625 -1.459596 0.15594300000000008
v 1.462625 -1.461356 0.08764300000000008
v 1.437017 -0.972667 0.23689600000000005
v 1.409456 -0.460243 0.26813200000000004
v 1.402265 -0.458499 0.3360520000000001
v 1.437017 -0.972747 0.30532600000000004
v 1.462625 -1.462098 0.2759810000000001
v 1.462625 -1.456798 0.20786500000000008
v 0.956319 -1.462795 0.07436600000000008
v 1.441538 -1.442288 0.04897500000000009
v 1.446165 -1.442288 0.11714000000000008
v 0.956239 -1.462795 0.14277700000000007
v 0.464572 -1.447489 0.17325700000000008
v 0.466553 -1.457491 0.10570000000000009
v 0.956115 -1.462795 0.23662100000000008
v 1.446075 -1.442288 0.27109100000000014
v 1.442067 -1.442288 0.3392950000000001
v 0.956035 -1.462795 0.3050040000000001
v 0.448318 -1.432325 0.2966490000000001
v 0.458653 -1.4402 0.22957400000000008
v -0.973451 -1.416308 0.07792800000000008
v -0.470621 -1.454508 0.07208900000000008
v -0.467689 -1.447047 0.1399390000000001
v -0.973531 -1.416308 0.1462640000000001
v -1.460566 -1.441916 0.15594300000000008
v -1.462326 -1.441916 0.08764300000000008
v -0.973637 -1.416308 0.23689600000000008
v -0.464697 -1.432734 0.2702440000000001
v -0.468827 -1.425322 0.3380370000000001
v -0.973717 -1.416308 0.3053260000000001
v -1.463068 -1.441916 0.2759810000000001
v -1.457768 -1.441916 0.20786500000000008
v -1.470388 -0.93561 0.07524100000000006
v -1.443258 -1.420829 0.04897500000000009
v -1.443258 -1.425455 0.11714000000000008
v -1.466448 -0.93553 0.14354000000000006
v -1.421842 -0.432934 0.17689000000000002
v -1.433081 -0.421593 0.11045900000000003
v -1.461043 -0.935405 0.23722800000000005
v -1.443258 -1.425366 0.27109100000000014
v -1.443258 -1.421358 0.3392950000000001
v -1.457104 -0.935325 0.3054970000000001
v -1.401181 -0.440805 0.300303
v -1.412428 -0.438051 0.23296900000000004
vt 0.054633 0.982120
vt 0.054633 0.661790
vt 0.073861 0.661790
vt 0.073861 0.661790
vt 0.073861 0.982120
vt 0.054633 0.982120
vt 0.054633 0.982120
vt 0.054633 0.661790
vt 0.073861 0.661790
vt 0.073861 0.661790
vt 0.073861 0.982120
vt 0.054633 0.982120
vt 0.054633 0.982120
vt 0.054633 0.661790
vt 0.073861 0.661790
vt 0.073861 0.661790
vt 0.073861 0.982120
vt 0.054633 0.982120
vt 0.054633 0.982120
vt 0.054633 0.661790
vt 0.073861 0.661790
vt 0.073861 0.661790
vt 0.073861 0.982120
vt 0.054633 0.982120
vt 0.054633 0.982120
vt 0.054633 0.661790
vt 0.073861 0.661790
vt 0.073861 0.661790
vt 0.073861 0.982120
vt 0.054633 0.982120
vt 0.054633 0.982120
vt 0.054633 0.661790
vt 0.073861 0.661790
vt 0.073861 0.661790
vt 0.073861 0.982120
vt 0.054633 0.982120
vt 0.054633 0.982120
vt 0.054633 0.661790
vt 0.073861 0.661790
vt 0.073861 0.661790
vt 0.073861 0.982120
vt 0.054633 0.982120
vt 0.054633 0.982120
vt 0.054633 0.661790
vt 0.073861 0.661790
vt 0.073861 0.661790
vt 0.073861 0.982120
vt 0.054633 0.982120
vt 0.054633 0.982120
vt 0.054633 0.661790
vt 0.073861 0.661790
vt 0.073861 0.661790
vt 0.073861 0.982120
vt 0.054633 0.982120
vt 0.054633 0.982120
vt 0.054633 0.661790
vt 0.073861 0.661790
vt 0.073861 0.661790
vt 0.073861 0.982120
vt 0.054633 0.982120
vt 0.054633 0.982120
vt 0.054633 0.661790
vt 0.073861 0.661790
vt 0.073861 0.661790
vt 0.073861 0.982120
vt 0.054633 0.982120
vt 0.054633 0.982120
vt 0.054633 0.661790
vt 0.073861 0.661790
vt 0.073861 0.661790
vt 0.073861 0.982120
vt 0.054633 0.982120
vt 0.035405 0.982120
vt 0.035405 0.661790
vt 0.054633 0.661790
vt 0.054633 0.982120
vt 0.035405 0.982120
vt 0.035405 0.982120
vt 0.035405 0.661790
vt 0.054633 0.661790
vt 0.054633 0.982120
vt 0.035405 0.982120
vt 0.035405 0.982120
vt 0.035405 0.661790
vt 0.054633 0.661790
vt 0.054633 0.982120
vt 0.035405 0.982120
vt 0.035405 0.982120
vt 0.035405 0.661790
vt 0.054633 0.661790
vt 0.054633 0.982120
vt 0.035405 0.982120
vt 0.035405 0.982120
vt 0.035405 0.661790
vt 0.054633 0.661790
vt 0.054633 0.982120
vt 0.035405 0.982120
vt 0.035405 0.982120
vt 0.035405 0.661790
vt 0.054633 0.661790
vt 0.054633 0.982120
vt 0.035405 0.982120
vt 0.035405 0.982120
vt 0.035405 0.661790
vt 0.054633 0.661790
vt 0.054633 0.982120
vt 0.035405 0.982120
vt 0.035405 0.982120
vt 0.035405 0.661790
vt 0.054633 0.661790
vt 0.054633 0.982120
vt 0.035405 0.982120
vt 0.035405 0.982120
vt 0.035405 0.661790
vt 0.054633 0.661790
vt 0.054633 0.982120
vt 0.035405 0.982120
vt 0.035405 0.982120
vt 0.035405 0.661790
vt 0.054633 0.661790
vt 0.054633 0.982120
vt 0.035405 0.982120
vt 0.035405 0.982120
vt 0.035405 0.661790
vt 0.054633 0.661790
vt 0.054633 0.982120
vt 0.035405 0.982120
vt 0.035405 0.982120
vt 0.035405 0.661790
vt 0.054633 0.661790
vt 0.054633 0.982120
vt 0.035405 0.982120
vt 0.013839 0.606532
vt 0.054465 0.567040
vt 0.095091 0.606532
vt 0.054465 0.646023
vt 0.016177 0.982120
vt 0.016177 0.661790
vt 0.035405 0.661790
vt 0.035405 0.982120
vt 0.073861 0.982120
vt 0.073861 0.661790
vt 0.093089 0.661790
vt 0.093089 0.982120
vt 0.013839 0.606532
vt 0.054465 0.567040
vt 0.095091 0.606532
vt 0.054465 0.646023
vt 0.016177 0.982120
vt 0.016177 0.661790
vt 0.035405 0.661790
vt 0.035405 0.982120
vt 0.073861 0.982120
vt 0.073861 0.661790
vt 0.093089 0.661790
vt 0.093089 0.982120
vt 0.149842 0.845644
vt 0.189380 0.845925
vt 0.189259 0.937488
vt 0.149721 0.937207
vt 0.149842 0.845644
vt 0.189380 0.845925
vt 0.189259 0.937488
vt 0.149721 0.937207
vt 0.149842 0.845644
vt 0.189380 0.845925
vt 0.189259 0.937488
vt 0.149721 0.937207
vt 0.149842 0.845644
vt 0.189380 0.845925
vt 0.189259 0.937488
vt 0.149721 0.937207
vt 0.149842 0.845644
vt 0.189380 0.845925
vt 0.189259 0.937488
vt 0.149721 0.937207
vt 0.149842 0.845644
vt 0.189380 0.845925
vt 0.189259 0.937488
vt 0.149721 0.937207
vt 0.149842 0.845644
vt 0.189380 0.845925
vt 0.189259 0.937488
vt 0.149721 0.937207
vt 0.149842 0.845644
vt 0.189380 0.845925
vt 0.189259 0.937488
vt 0.149721 0.937207
vt 0.013839 0.606532
vt 0.054465 0.567040
vt 0.095091 0.606532
vt 0.054465 0.646023
vt 0.016177 0.982120
vt 0.016177 0.661790
vt 0.035405 0.661790
vt 0.035405 0.982120
vt 0.073861 0.982120
vt 0.073861 0.661790
vt 0.093089 0.661790
vt 0.093089 0.982120
vt 0.013839 0.606532
vt 0.054465 0.567040
vt 0.095091 0.606532
vt 0.054465 0.646023
vt 0.016177 0.982120
vt 0.016177 0.661790
vt 0.035405 0.661790
vt 0.035405 0.982120
vt 0.073861 0.982120
vt 0.073861 0.661790
vt 0.093089 0.661790
vt 0.093089 0.982120
vt 0.149842 0.845644
vt 0.189380 0.845925
vt 0.189259 0.937488
vt 0.149721 0.937207
vt 0.149842 0.845644
vt 0.189380 0.845925
vt 0.189259 0.937488
vt 0.149721 0.937207
vt 0.149842 0.845644
vt 0.189380 0.845925
vt 0.189259 0.937488
vt 0.149721 0.937207
vt 0.149842 0.845644
vt 0.189380 0.845925
vt 0.189259 0.937488
vt 0.149721 0.937207
vt 0.149842 0.845644
vt 0.189380 0.845925
vt 0.189259 0.937488
vt 0.149721 0.937207
vt 0.149842 0.845644
vt 0.189380 0.845925
vt 0.189259 0.937488
vt 0.149721 0.937207
vt 0.149842 0.845644
vt 0.189380 0.845925
vt 0.189259 0.937488
vt 0.149721 0.937207
vt 0.149842 0.845644
vt 0.189380 0.845925
vt 0.189259 0.937488
vt 0.149721 0.937207
vt 0.013839 0.606532
vt 0.054465 0.567040
vt 0.095091 0.606532
vt 0.054465 0.646023
vt 0.016177 0.982120
vt 0.016177 0.661790
vt 0.035405 0.661790
vt 0.035405 0.982120
vt 0.073861 0.982120
vt 0.073861 0.661790
vt 0.093089 0.661790
vt 0.093089 0.982120
vt 0.013839 0.606532
vt 0.054465 0.567040
vt 0.095091 0.606532
vt 0.054465 0.646023
vt 0.016177 0.982120
vt 0.016177 0.661790
vt 0.035405 0.661790
vt 0.035405 0.982120
vt 0.073861 0.982120
vt 0.073861 0.661790
vt 0.093089 0.661790
vt 0.093089 0.982120
vt 0.013839 0.606532
vt 0.054465 0.567040
vt 0.095091 0.606532
vt 0.054465 0.646023
vt 0.016177 0.982120
vt 0.016177 0.661790
vt 0.035405 0.661790
vt 0.035405 0.982120
vt 0.073861 0.982120
vt 0.073861 0.661790
vt 0.093089 0.661790
vt 0.093089 0.982120
vt 0.013839 0.606532
vt 0.054465 0.567040
vt 0.095091 0.606532
vt 0.054465 0.646023
vt 0.016177 0.982120
vt 0.016177 0.661790
vt 0.035405 0.661790
vt 0.035405 0.982120
vt 0.073861 0.982120
vt 0.073861 0.661790
vt 0.093089 0.661790
vt 0.093089 0.982120
vt 0.149842 0.845644
vt 0.189380 0.845925
vt 0.189259 0.937488
vt 0.149721 0.937207
vt 0.149842 0.845644
vt 0.189380 0.845925
vt 0.189259 0.937488
vt 0.149721 0.937207
vt 0.149842 0.845644
vt 0.189380 0.845925
vt 0.189259 0.937488
vt 0.149721 0.937207
vt 0.149842 0.845644
vt 0.189380 0.845925
vt 0.189259 0.937488
vt 0.149721 0.937207
vt 0.149842 0.845644
vt 0.189380 0.845925
vt 0.189259 0.937488
vt 0.149721 0.937207
vt 0.149842 0.845644
vt 0.189380 0.845925
vt 0.189259 0.937488
vt 0.149721 0.937207
vt 0.149842 0.845644
vt 0.189380 0.845925
vt 0.189259 0.937488
vt 0.149721 0.937207
vt 0.149842 0.845644
vt 0.189380 0.845925
vt 0.189259 0.937488
vt 0.149721 0.937207
vt 0.013839 0.606532
vt 0.054465 0.567040
vt 0.095091 0.606532
vt 0.054465 0.646023
vt 0.016177 0.982120
vt 0.016177 0.661790
vt 0.035405 0.661790
vt 0.035405 0.982120
vt 0.073861 0.982120
vt 0.073861 0.661790
vt 0.093089 0.661790
vt 0.093089 0.982120
vt 0.013839 0.606532
vt 0.054465 0.567040
vt 0.095091 0.606532
vt 0.054465 0.646023
vt 0.016177 0.982120
vt 0.016177 0.661790
vt 0.035405 0.661790
vt 0.035405 0.982120
vt 0.073861 0.982120
vt 0.073861 0.661790
vt 0.093089 0.661790
vt 0.093089 0.982120
vt 0.013839 0.606532
vt 0.054465 0.567040
vt 0.095091 0.606532
vt 0.054465 0.646023
vt 0.016177 0.982120
vt 0.016177 0.661790
vt 0.035405 0.661790
vt 0.035405 0.982120
vt 0.073861 0.982120
vt 0.073861 0.661790
vt 0.093089 0.661790
vt 0.093089 0.982120
vt 0.149842 0.845644
vt 0.189380 0.845925
vt 0.189259 0.937488
vt 0.149721 0.937207
vt 0.149842 0.845644
vt 0.189380 0.845925
vt 0.189259 0.937488
vt 0.149721 0.937207
vt 0.149842 0.845644
vt 0.189380 0.845925
vt 0.189259 0.937488
vt 0.149721 0.937207
vt 0.149842 0.845644
vt 0.189380 0.845925
vt 0.189259 0.937488
vt 0.149721 0.937207
vt 0.149842 0.845644
vt 0.189380 0.845925
vt 0.189259 0.937488
vt 0.149721 0.937207
vt 0.149842 0.845644
vt 0.189380 0.845925
vt 0.189259 0.937488
vt 0.149721 0.937207
vt 0.149842 0.845644
vt 0.189380 0.845925
vt 0.189259 0.937488
vt 0.149721 0.937207
vt 0.149842 0.845644
vt 0.189380 0.845925
vt 0.189259 0.937488
vt 0.149721 0.937207
vt 0.013839 0.606532
vt 0.054465 0.567040
vt 0.095091 0.606532
vt 0.054465 0.646023
vt 0.016177 0.982120
vt 0.016177 0.661790
vt 0.035405 0.661790
vt 0.035405 0.982120
vt 0.073861 0.982120
vt 0.073861 0.661790
vt 0.093089 0.661790
vt 0.093089 0.982120
vt 0.149404 0.744576
vt 0.149404 0.522688
vt 0.180299 0.522688
vt 0.180299 0.744386
vt 0.149404 0.974937
vt 0.180299 0.974937
vt 0.209675 0.744981
vt 0.209531 0.975631
vt 0.117027 0.974242
vt 0.117171 0.744431
vt 0.209814 0.522814
vt 0.117310 0.521425
vt 0.149404 0.746092
vt 0.149404 0.522688
vt 0.180299 0.522688
vt 0.180299 0.745902
vt 0.149404 0.974937
vt 0.180299 0.974937
vt 0.209674 0.746499
vt 0.209531 0.975631
vt 0.117027 0.974242
vt 0.117172 0.742726
vt 0.209814 0.522814
vt 0.117310 0.521425
vt 0.149404 0.751533
vt 0.149404 0.522688
vt 0.180299 0.522688
vt 0.180299 0.751533
vt 0.149404 0.974937
vt 0.180299 0.974937
vt 0.209671 0.751947
vt 0.209531 0.975631
vt 0.117027 0.974242
vt 0.117165 0.752707
vt 0.209814 0.522814
vt 0.117310 0.521425
vt 0.149404 0.753406
vt 0.149404 0.522688
vt 0.180299 0.522688
vt 0.180299 0.753406
vt 0.149404 0.974937
vt 0.180299 0.974937
vt 0.209670 0.753822
vt 0.209531 0.975631
vt 0.117027 0.974242
vt 0.117167 0.750641
vt 0.209814 0.522814
vt 0.117310 0.521425
vt 0.149404 0.744576
vt 0.149404 0.522688
vt 0.180299 0.522688
vt 0.180299 0.744386
vt 0.149404 0.974937
vt 0.180299 0.974937
vt 0.209675 0.744981
vt 0.209531 0.975631
vt 0.117027 0.974242
vt 0.117171 0.744431
vt 0.209814 0.522814
vt 0.117310 0.521425
vt 0.149404 0.746092
vt 0.149404 0.522688
vt 0.180299 0.522688
vt 0.180299 0.745902
vt 0.149404 0.974937
vt 0.180299 0.974937
vt 0.209674 0.746499
vt 0.209531 0.975631
vt 0.117027 0.974242
vt 0.117172 0.742726
vt 0.209814 0.522814
vt 0.117310 0.521425
vt 0.149404 0.751533
vt 0.149404 0.522688
vt 0.180299 0.522688
vt 0.180299 0.751533
vt 0.149404 0.974937
vt 0.180299 0.974937
vt 0.209671 0.751947
vt 0.209531 0.975631
vt 0.117027 0.974242
vt 0.117165 0.752707
vt 0.209814 0.522814
vt 0.117310 0.521425
vt 0.149404 0.753406
vt 0.149404 0.522688
vt 0.180299 0.522688
vt 0.180299 0.753406
vt 0.149404 0.974937
vt 0.180299 0.974937
vt 0.209670 0.753822
vt 0.209531 0.975631
vt 0.117027 0.974242
vt 0.117167 0.750641
vt 0.209814 0.522814
vt 0.117310 0.521425
vt 0.149404 0.744576
vt 0.149404 0.522688
vt 0.180299 0.522688
vt 0.180299 0.744386
vt 0.149404 0.974937
vt 0.180299 0.974937
vt 0.209675 0.744981
vt 0.209531 0.975631
vt 0.117027 0.974242
vt 0.117171 0.744431
vt 0.209814 0.522814
vt 0.117310 0.521425
vt 0.149404 0.746092
vt 0.149404 0.522688
vt 0.180299 0.522688
vt 0.180299 0.745902
vt 0.149404 0.974937
vt 0.180299 0.974937
vt 0.209674 0.746499
vt 0.209531 0.975631
vt 0.117027 0.974242
vt 0.117172 0.742726
vt 0.209814 0.522814
vt 0.117310 0.521425
vt 0.149404 0.751533
vt 0.149404 0.522688
vt 0.180299 0.522688
vt 0.180299 0.751533
vt 0.149404 0.974937
vt 0.180299 0.974937
vt 0.209671 0.751947
vt 0.209531 0.975631
vt 0.117027 0.974242
vt 0.117165 0.752707
vt 0.209814 0.522814
vt 0.117310 0.521425
vt 0.149404 0.753406
vt 0.149404 0.522688
vt 0.180299 0.522688
vt 0.180299 0.753406
vt 0.149404 0.974937
vt 0.180299 0.974937
vt 0.209670 0.753822
vt 0.209531 0.975631
vt 0.117027 0.974242
vt 0.117167 0.750641
vt 0.209814 0.522814
vt 0.117310 0.521425
vt 0.149404 0.744576
vt 0.149404 0.522688
vt 0.180299 0.522688
vt 0.180299 0.744386
vt 0.149404 0.974937
vt 0.180299 0.974937
vt 0.209675 0.744981
vt 0.209531 0.975631
vt 0.117027 0.974242
vt 0.117171 0.744431
vt 0.209814 0.522814
vt 0.117310 0.521425
vt 0.149404 0.746092
vt 0.149404 0.522688
vt 0.180299 0.522688
vt 0.180299 0.745902
vt 0.149404 0.974937
vt 0.180299 0.974937
vt 0.209674 0.746499
vt 0.209531 0.975631
vt 0.117027 0.974242
vt 0.117172 0.742726
vt 0.209814 0.522814
vt 0.117310 0.521425
vt 0.149404 0.751533
vt 0.149404 0.522688
vt 0.180299 0.522688
vt 0.180299 0.751533
vt 0.149404 0.974937
vt 0.180299 0.974937
vt 0.209671 0.751947
vt 0.209531 0.975631
vt 0.117027 0.974242
vt 0.117165 0.752707
vt 0.209814 0.522814
vt 0.117310 0.521425
vt 0.149404 0.753406
vt 0.149404 0.522688
vt 0.180299 0.522688
vt 0.180299 0.753406
vt 0.149404 0.974937
vt 0.180299 0.974937
vt 0.209670 0.753822
vt 0.209531 0.975631
vt 0.117027 0.974242
vt 0.117167 0.750641
vt 0.209814 0.522814
vt 0.117310 0.521425
vt 0.118462 0.745620
vt 0.118462 0.975392
vt 0.209262 0.975392
vt 0.209262 0.744783
vt 0.209262 0.523029
vt 0.118462 0.523029
vt 0.118462 0.743917
vt 0.118462 0.975392
vt 0.209262 0.975392
vt 0.209262 0.746299
vt 0.209262 0.523029
vt 0.118462 0.523029
vt 0.118462 0.754078
vt 0.118462 0.975392
vt 0.209262 0.975392
vt 0.209262 0.751931
vt 0.209262 0.523029
vt 0.118462 0.523029
vt 0.118462 0.752014
vt 0.118462 0.975392
vt 0.209262 0.975392
vt 0.209262 0.753805
vt 0.209262 0.523029
vt 0.118462 0.523029
vt 0.118462 0.745620
vt 0.118462 0.975392
vt 0.209262 0.975392
vt 0.209262 0.744783
vt 0.209262 0.523029
vt 0.118462 0.523029
vt 0.118462 0.743917
vt 0.118462 0.975392
vt 0.209262 0.975392
vt 0.209262 0.746299
vt 0.209262 0.523029
vt 0.118462 0.523029
vt 0.118462 0.754078
vt 0.118462 0.975392
vt 0.209262 0.975392
vt 0.209262 0.751931
vt 0.209262 0.523029
vt 0.118462 0.523029
vt 0.118462 0.752014
vt 0.118462 0.975392
vt 0.209262 0.975392
vt 0.209262 0.753805
vt 0.209262 0.523029
vt 0.118462 0.523029
vt 0.118462 0.745620
vt 0.118462 0.975392
vt 0.209262 0.975392
vt 0.209262 0.744783
vt 0.209262 0.523029
vt 0.118462 0.523029
vt 0.118462 0.743917
vt 0.118462 0.975392
vt 0.209262 0.975392
vt 0.209262 0.746299
vt 0.209262 0.523029
vt 0.118462 0.523029
vt 0.118462 0.754078
vt 0.118462 0.975392
vt 0.209262 0.975392
vt 0.209262 0.751931
vt 0.209262 0.523029
vt 0.118462 0.523029
vt 0.118462 0.752014
vt 0.118462 0.975392
vt 0.209262 0.975392
vt 0.209262 0.753805
vt 0.209262 0.523029
vt 0.118462 0.523029
vt 0.118462 0.745620
vt 0.118462 0.975392
vt 0.209262 0.975392
vt 0.209262 0.744783
vt 0.209262 0.523029
vt 0.118462 0.523029
vt 0.118462 0.743917
vt 0.118462 0.975392
vt 0.209262 0.975392
vt 0.209262 0.746299
vt 0.209262 0.523029
vt 0.118462 0.523029
vt 0.118462 0.754078
vt 0.118462 0.975392
vt 0.209262 0.975392
vt 0.209262 0.751931
vt 0.209262 0.523029
vt 0.118462 0.523029
vt 0.118462 0.752014
vt 0.118462 0.975392
vt 0.209262 0.975392
vt 0.209262 0.753805
vt 0.209262 0.523029
vt 0.118462 0.523029
vn -0.935553 0.353186 -2.1626405220182856E-17
vn -0.960354 -0.278783 1.707053543033483E-17
vn -0.278784 0.960354 -5.880472260741786E-17
vn -0.278784 0.960354 -5.880472260741786E-17
vn 0.353183 0.935554 -5.728616057647515E-17
vn -0.935553 0.353186 -2.1626405220182856E-17
vn -0.949783 0.31291 -1.9160211496059915E-17
vn -0.947573 -0.31954 1.956618190997726E-17
vn -0.319541 0.947572 -5.802205083808279E-17
vn -0.319541 0.947572 -5.802205083808279E-17
vn 0.312911 0.949782 -5.815737430938857E-17
vn -0.949783 0.31291 -1.9160211496059915E-17
vn -0.316229 -0.948683 5.809007996777542E-17
vn 0.316228 -0.948683 5.809007996777542E-17
vn -0.948684 -0.316227 1.9363319167698502E-17
vn -0.948684 -0.316227 1.9363319167698502E-17
vn -0.948684 0.316227 -1.9363319167698502E-17
vn -0.316229 -0.948683 5.809007996777542E-17
vn -0.948683 0.31623 -1.9363502864718376E-17
vn -0.948684 -0.316226 1.9363257935358545E-17
vn -0.316226 0.948684 -5.809014120011538E-17
vn -0.316226 0.948684 -5.809014120011538E-17
vn 0.316226 0.948684 -5.809014120011538E-17
vn -0.948683 0.31623 -1.9363502864718376E-17
vn -0.948683 0.316228 -1.9363380400038462E-17
vn -0.948683 -0.316228 1.9363380400038462E-17
vn -0.316228 0.948683 -5.809007996777542E-17
vn -0.316228 0.948683 -5.809007996777542E-17
vn 0.316228 0.948683 -5.809007996777542E-17
vn -0.948683 0.316228 -1.9363380400038462E-17
vn 0.971194 -0.10338600000000002 -0.214695
vn 0.85307 0.509487 -0.11267000000000003
vn 0.475218 -0.855219 -0.20680399999999993
vn 0.475218 -0.855219 -0.20680399999999993
vn -0.133667 -0.986271 -0.09697099999999995
vn 0.971194 -0.10338600000000002 -0.214695
vn 0.992494 -0.064728 0.103761
vn 0.840419 0.541858 0.009293999999999967
vn 0.531692 -0.831587 0.16052200000000005
vn 0.531692 -0.831587 0.16052200000000005
vn -0.07962 -0.989254 0.12262300000000005
vn 0.992494 -0.064728 0.103761
vn 0.326045 0.943206 -0.06369600000000006
vn -0.302884 0.944068 -0.13037100000000004
vn 0.946423 0.315836 0.06731099999999998
vn 0.946423 0.315836 0.06731099999999998
vn 0.940427 -0.313249 0.13218200000000002
vn 0.326045 0.943206 -0.06369600000000006
vn 0.316227 0.948684 -5.809014120011538E-17
vn -0.316227 0.948684 -5.809014120011538E-17
vn 0.948683 0.316228 -1.9363380400038462E-17
vn 0.948683 0.316228 -1.9363380400038462E-17
vn 0.948683 -0.316229 1.9363441632378416E-17
vn 0.316227 0.948684 -5.809014120011538E-17
vn -0.310583 -0.949552 -0.043455999999999946
vn 0.313208 -0.938219 -0.14712599999999995
vn -0.933942 -0.335547 0.12312700000000001
vn -0.933942 -0.335547 0.12312700000000001
vn -0.937426 0.29365 0.18708699999999998
vn -0.310583 -0.949552 -0.043455999999999946
vn 0.950411 -0.310494 0.017683000000000018
vn 0.946643 0.318178 -0.05128500000000002
vn 0.322294 -0.941571 0.09782700000000005
vn 0.322294 -0.941571 0.09782700000000005
vn -0.310055 -0.944442 0.10906200000000006
vn 0.950411 -0.310494 0.017683000000000018
vn 0.948683 -0.316228 1.9363380400038462E-17
vn 0.948683 0.316228 -1.9363380400038462E-17
vn 0.316228 -0.948683 5.809007996777542E-17
vn 0.316228 -0.948683 5.809007996777542E-17
vn -0.316228 -0.948683 5.809007996777542E-17
vn 0.948683 -0.316228 1.9363380400038462E-17
vn -0.353186 -0.935553 5.728609934413519E-17
vn 0.278786 -0.960353 5.88046613750779E-17
vn -0.960354 -0.278783 1.707053543033483E-17
vn -0.935553 0.353186 -2.1626405220182856E-17
vn -0.353186 -0.935553 5.728609934413519E-17
vn -0.312912 -0.949782 5.815737430938857E-17
vn 0.319541 -0.947573 5.802211207042274E-17
vn -0.947573 -0.31954 1.956618190997726E-17
vn -0.949783 0.31291 -1.9160211496059915E-17
vn -0.312912 -0.949782 5.815737430938857E-17
vn 0.948684 -0.316227 1.9363319167698502E-17
vn 0.948684 0.316227 -1.9363319167698502E-17
vn 0.316228 -0.948683 5.809007996777542E-17
vn -0.316229 -0.948683 5.809007996777542E-17
vn 0.948684 -0.316227 1.9363319167698502E-17
vn -0.316228 -0.948683 5.809007996777542E-17
vn 0.316228 -0.948683 5.809007996777542E-17
vn -0.948684 -0.316226 1.9363257935358545E-17
vn -0.948683 0.31623 -1.9363502864718376E-17
vn -0.316228 -0.948683 5.809007996777542E-17
vn -0.316228 -0.948683 5.809007996777542E-17
vn 0.316228 -0.948683 5.809007996777542E-17
vn -0.948683 -0.316228 1.9363380400038462E-17
vn -0.948683 0.316228 -1.9363380400038462E-17
vn -0.316228 -0.948683 5.809007996777542E-17
vn 0.133666 0.986271 0.09697099999999995
vn -0.475221 0.855217 0.20680399999999993
vn 0.85307 0.509487 -0.11267000000000003
vn 0.971194 -0.10338600000000002 -0.214695
vn 0.133666 0.986271 0.09697099999999995
vn 0.079619 0.989255 -0.12262300000000005
vn -0.531693 0.831586 -0.16052200000000005
vn 0.840419 0.541858 0.009293999999999967
vn 0.992494 -0.064728 0.103761
vn 0.079619 0.989255 -0.12262300000000005
vn -0.940426 0.313251 -0.13218200000000002
vn -0.946423 -0.315837 -0.06731099999999998
vn -0.302884 0.944068 -0.13037100000000004
vn 0.326045 0.943206 -0.06369600000000006
vn -0.940426 0.313251 -0.13218200000000002
vn -0.948683 0.316229 -1.9363441632378416E-17
vn -0.948683 -0.316228 1.9363380400038462E-17
vn -0.316227 0.948684 -5.809014120011538E-17
vn 0.316227 0.948684 -5.809014120011538E-17
vn -0.948683 0.316229 -1.9363441632378416E-17
vn 0.937426 -0.293652 -0.18708699999999998
vn 0.933943 0.335545 -0.12312800000000002
vn 0.313208 -0.938219 -0.14712599999999995
vn -0.310583 -0.949552 -0.043455999999999946
vn 0.937426 -0.293652 -0.18708699999999998
vn 0.310056 0.944442 -0.10906200000000006
vn -0.322293 0.941572 -0.09782800000000005
vn 0.946643 0.318178 -0.05128500000000002
vn 0.950411 -0.310494 0.017683000000000018
vn 0.310056 0.944442 -0.10906200000000006
vn 0.316228 0.948683 -5.809007996777542E-17
vn -0.316228 0.948683 -5.809007996777542E-17
vn 0.948683 0.316228 -1.9363380400038462E-17
vn 0.948683 -0.316228 1.9363380400038462E-17
vn 0.316228 0.948683 -5.809007996777542E-17
vn 0 6.123233995736766E-17 1
vn 0 6.123233995736766E-17 1
vn 0 6.123233995736766E-17 1
vn 0 6.123233995736766E-17 1
vn 0.935555 -0.353183 2.1626221523162985E-17
vn 0.960353 0.278786 -1.7070719127354698E-17
vn 0.278786 -0.960353 5.88046613750779E-17
vn -0.353186 -0.935553 5.728609934413519E-17
vn 0.353183 0.935554 -5.728616057647515E-17
vn -0.278784 0.960354 -5.880472260741786E-17
vn 0.960353 0.278786 -1.7070719127354698E-17
vn 0.935555 -0.353183 2.1626221523162985E-17
vn 0 6.123233995736766E-17 1
vn 0 6.123233995736766E-17 1
vn 0 6.123233995736766E-17 1
vn 0 6.123233995736766E-17 1
vn 0.949782 -0.312911 1.9160272728399872E-17
vn 0.947573 0.31954 -1.956618190997726E-17
vn 0.319541 -0.947573 5.802211207042274E-17
vn -0.312912 -0.949782 5.815737430938857E-17
vn 0.312911 0.949782 -5.815737430938857E-17
vn -0.319541 0.947572 -5.802205083808279E-17
vn 0.947573 0.31954 -1.956618190997726E-17
vn 0.949782 -0.312911 1.9160272728399872E-17
vn 0 0.999668 0.02575999999999994
vn 0 0.999668 0.02575999999999994
vn 0 0.999668 0.02575999999999994
vn 0 0.999668 0.02575999999999994
vn -0 -0.999668 -0.025761999999999938
vn -0 -0.999668 -0.025761999999999938
vn -0 -0.999668 -0.025761999999999938
vn -0 -0.999668 -0.025761999999999938
vn 0 0.996986 -0.07757800000000005
vn 0 0.996986 -0.07757800000000005
vn 0 0.996986 -0.07757800000000005
vn 0 0.996986 -0.07757800000000005
vn -0 -0.996986 0.07757800000000005
vn -0 -0.996986 0.07757800000000005
vn -0 -0.996986 0.07757800000000005
vn -0 -0.996986 0.07757800000000005
vn 0.997705 4.146531597233023E-18 0.067718
vn 0.997705 4.146531597233023E-18 0.067718
vn 0.997705 4.146531597233023E-18 0.067718
vn 0.997705 4.146531597233023E-18 0.067718
vn -0.997705 -4.146531597233023E-18 -0.067718
vn -0.997705 -4.146531597233023E-18 -0.067718
vn -0.997705 -4.146531597233023E-18 -0.067718
vn -0.997705 -4.146531597233023E-18 -0.067718
vn 0.998278 -3.592133991259017E-18 -0.058664
vn 0.998278 -3.592133991259017E-18 -0.058664
vn 0.998278 -3.592133991259017E-18 -0.058664
vn 0.998278 -3.592133991259017E-18 -0.058664
vn -0.998278 3.592133991259017E-18 0.058664
vn -0.998278 3.592133991259017E-18 0.058664
vn -0.998278 3.592133991259017E-18 0.058664
vn -0.998278 3.592133991259017E-18 0.058664
vn 0 6.123233995736766E-17 1
vn 0 6.123233995736766E-17 1
vn 0 6.123233995736766E-17 1
vn 0 6.123233995736766E-17 1
vn 0.316229 0.948683 -5.809007996777542E-17
vn -0.316228 0.948683 -5.809007996777542E-17
vn 0.948684 0.316227 -1.9363319167698502E-17
vn 0.948684 -0.316227 1.9363319167698502E-17
vn -0.948684 0.316227 -1.9363319167698502E-17
vn -0.948684 -0.316227 1.9363319167698502E-17
vn -0.316228 0.948683 -5.809007996777542E-17
vn 0.316229 0.948683 -5.809007996777542E-17
vn 0 6.123233995736766E-17 1
vn 0 6.123233995736766E-17 1
vn 0 6.123233995736766E-17 1
vn 0 6.123233995736766E-17 1
vn 0.948684 -0.316227 1.9363319167698502E-17
vn 0.948682 0.31623 -1.9363502864718376E-17
vn 0.316228 -0.948683 5.809007996777542E-17
vn -0.316228 -0.948683 5.809007996777542E-17
vn 0.316226 0.948684 -5.809014120011538E-17
vn -0.316226 0.948684 -5.809014120011538E-17
vn 0.948682 0.31623 -1.9363502864718376E-17
vn 0.948684 -0.316227 1.9363319167698502E-17
vn 0.999668 5.000000000001578E-06 0.025762
vn 0.999668 1.5775900066616203E-18 0.025764
vn 0.999668 5.000000000001578E-06 0.025762
vn 0.999668 1.0000000000001578E-05 0.02576
vn -0.999668 -1.5774675419817057E-18 -0.025762
vn -0.999668 -1.5774675419817057E-18 -0.025762
vn -0.999668 -1.5774675419817057E-18 -0.025762
vn -0.999668 -1.5774675419817057E-18 -0.025762
vn 0.996986 -4.750282469212668E-18 -0.077578
vn 0.996986 -4.750282469212668E-18 -0.077578
vn 0.996986 -4.750282469212668E-18 -0.077578
vn 0.996986 -4.750282469212668E-18 -0.077578
vn -0.996986 4.750282469212668E-18 0.077578
vn -0.996986 4.750282469212668E-18 0.077578
vn -0.996986 4.750282469212668E-18 0.077578
vn -0.996986 4.750282469212668E-18 0.077578
vn 0.221159 -0.970209 -0.09891099999999994
vn 0.221161 -0.970208 -0.09891199999999994
vn 0.221159 -0.970209 -0.09891099999999994
vn 0.221157 -0.97021 -0.09890999999999994
vn 0 0.997705 -0.06772000000000006
vn 0 0.997705 -0.06772000000000006
vn 0 0.997705 -0.06772000000000006
vn 0 0.997705 -0.06772000000000006
vn 0.195781 -0.955232 -0.22181299999999995
vn 0.195783 -0.955232 -0.22181399999999996
vn 0.195781 -0.955232 -0.22181299999999995
vn 0.195779 -0.955233 -0.22181199999999995
vn 0 0.998278 0.05866399999999994
vn 0 0.998278 0.05866399999999994
vn 0 0.998278 0.05866399999999994
vn 0 0.998278 0.05866399999999994
vn 0 6.123233995736766E-17 1
vn 0 6.123233995736766E-17 1
vn 0 6.123233995736766E-17 1
vn 0 6.123233995736766E-17 1
vn 0.948683 -0.316228 1.9363380400038462E-17
vn 0.948683 0.316228 -1.9363380400038462E-17
vn 0.316228 -0.948683 5.809007996777542E-17
vn -0.316228 -0.948683 5.809007996777542E-17
vn 0.316228 0.948683 -5.809007996777542E-17
vn -0.316228 0.948683 -5.809007996777542E-17
vn 0.948683 0.316228 -1.9363380400038462E-17
vn 0.948683 -0.316228 1.9363380400038462E-17
vn 0.201727 -0.12287699999999994 0.971704
vn 0.201727 -0.12287699999999994 0.971703
vn 0.201727 -0.12287699999999994 0.971704
vn 0.201727 -0.12287599999999994 0.971704
vn -0.971194 0.10338300000000002 0.214694
vn -0.85307 -0.509488 0.11267000000000003
vn -0.475221 0.855217 0.20680399999999993
vn 0.133666 0.986271 0.09697099999999995
vn -0.133667 -0.986271 -0.09697099999999995
vn 0.475218 -0.855219 -0.20680399999999993
vn -0.85307 -0.509488 0.11267000000000003
vn -0.971194 0.10338300000000002 0.214694
vn -0.094709 0.12996600000000005 0.986985
vn -0.094709 0.12996500000000005 0.986985
vn -0.094709 0.12996600000000005 0.986985
vn -0.09471 0.12996600000000005 0.986985
vn -0.992494 0.064728 -0.103761
vn -0.840419 -0.541857 -0.009293999999999967
vn -0.531693 0.831586 -0.16052200000000005
vn 0.079619 0.989255 -0.12262300000000005
vn -0.07962 -0.989254 0.12262300000000005
vn 0.531692 -0.831587 0.16052200000000005
vn -0.840419 -0.541857 -0.009293999999999967
vn -0.992494 0.064728 -0.103761
vn -0.104722 0.10300000000000005 0.989153
vn -0.104724 0.10300000000000005 0.989153
vn -0.104722 0.10300000000000005 0.989153
vn -0.104721 0.10300000000000005 0.989153
vn -0.326044 -0.943206 0.06369600000000006
vn 0.302886 -0.944067 0.13037200000000004
vn -0.946423 -0.315837 -0.06731099999999998
vn -0.940426 0.313251 -0.13218200000000002
vn 0.940427 -0.313249 0.13218200000000002
vn 0.946423 0.315836 0.06731099999999998
vn 0.302886 -0.944067 0.13037200000000004
vn -0.326044 -0.943206 0.06369600000000006
vn -0 -0.999668 0.02576100000000006
vn -0 -0.999668 0.02576100000000006
vn -0 -0.999668 0.02576100000000006
vn -0 -0.999668 0.02576100000000006
vn 0.013538 0.991698 -0.12787500000000004
vn 0.013538 0.991698 -0.12787500000000004
vn 0.013538 0.991698 -0.12787500000000004
vn 0.013538 0.991698 -0.12787500000000004
vn -0 -0.996986 -0.07757799999999994
vn -0 -0.996986 -0.07757799999999994
vn -0 -0.996986 -0.07757799999999994
vn -0 -0.996986 -0.07757799999999994
vn 0.002687 0.999674 -0.02538200000000006
vn 0.002687 0.999674 -0.02538200000000006
vn 0.002687 0.999674 -0.02538200000000006
vn 0.002687 0.999674 -0.02538200000000006
vn -0.971327 -0.237654 0.006701000000000015
vn -0.971327 -0.237654 0.006701000000000015
vn -0.971327 -0.237654 0.006701000000000015
vn -0.971327 -0.237654 0.006701000000000015
vn 0.997705 -4.146654061912938E-18 -0.06772
vn 0.997705 -4.146654061912938E-18 -0.06772
vn 0.997705 -4.146654061912938E-18 -0.06772
vn 0.997705 -4.146654061912938E-18 -0.06772
vn -0.95991 -0.254228 -0.11807199999999998
vn -0.959909 -0.25423 -0.11807199999999998
vn -0.95991 -0.254228 -0.11807199999999998
vn -0.959911 -0.254226 -0.11807099999999998
vn 0.998278 3.592133991259017E-18 0.058664
vn 0.998278 3.592133991259017E-18 0.058664
vn 0.998278 3.592133991259017E-18 0.058664
vn 0.998278 3.592133991259017E-18 0.058664
vn 0 6.123233995736766E-17 1
vn 0 6.123233995736766E-17 1
vn 0 6.123233995736766E-17 1
vn 0 6.123233995736766E-17 1
vn -0.316227 -0.948684 5.809014120011538E-17
vn 0.316227 -0.948684 5.809014120011538E-17
vn -0.948683 -0.316228 1.9363380400038462E-17
vn -0.948683 0.316229 -1.9363441632378416E-17
vn 0.948683 -0.316229 1.9363441632378416E-17
vn 0.948683 0.316228 -1.9363380400038462E-17
vn 0.316227 -0.948684 5.809014120011538E-17
vn -0.316227 -0.948684 5.809014120011538E-17
vn 0.164889 -0.09884299999999994 0.981347
vn 0.164891 -0.09884299999999994 0.981347
vn 0.164889 -0.09884299999999994 0.981347
vn 0.164888 -0.09884399999999995 0.981347
vn 0.310584 0.949552 0.043454999999999945
vn -0.313209 0.938219 0.14712599999999995
vn 0.933943 0.335545 -0.12312800000000002
vn 0.937426 -0.293652 -0.18708699999999998
vn -0.937426 0.29365 0.18708699999999998
vn -0.933942 -0.335547 0.12312700000000001
vn -0.313209 0.938219 0.14712599999999995
vn 0.310584 0.949552 0.043454999999999945
vn 0.017162 0.10913600000000005 0.993879
vn 0.017162 0.10913700000000005 0.993879
vn 0.017162 0.10913600000000005 0.993879
vn 0.017162 0.10913600000000005 0.993879
vn -0.950411 0.310494 -0.017683000000000018
vn -0.946642 -0.318179 0.05128500000000002
vn -0.322293 0.941572 -0.09782800000000005
vn 0.310056 0.944442 -0.10906200000000006
vn -0.310055 -0.944442 0.10906200000000006
vn 0.322294 -0.941571 0.09782700000000005
vn -0.946642 -0.318179 0.05128500000000002
vn -0.950411 0.310494 -0.017683000000000018
vn -0.999668 1.5774063096417482E-18 0.025761
vn -0.999668 1.5774063096417482E-18 0.025761
vn -0.999668 1.5774063096417482E-18 0.025761
vn -0.999668 1.5774063096417482E-18 0.025761
vn 0.999059 0.0014829999999999973 -0.043335
vn 0.999059 0.0014829999999999973 -0.043335
vn 0.999059 0.0014829999999999973 -0.043335
vn 0.999059 0.0014829999999999973 -0.043335
vn -0.996986 -4.750282469212668E-18 -0.077578
vn -0.996986 -4.750282469212668E-18 -0.077578
vn -0.996986 -4.750282469212668E-18 -0.077578
vn -0.996986 -4.750282469212668E-18 -0.077578
vn 0.998152 0.012749000000000003 0.059419
vn 0.998152 0.012749000000000003 0.059419
vn 0.998152 0.012749000000000003 0.059419
vn 0.998152 0.012749000000000003 0.059419
vn 0.011167 0.985988 0.16643999999999995
vn 0.011167 0.985988 0.16643999999999995
vn 0.011167 0.985988 0.16643999999999995
vn 0.011166 0.985988 0.16643999999999995
vn -0 -0.997705 -0.06771799999999994
vn -0 -0.997705 -0.06771799999999994
vn -0 -0.997705 -0.06771799999999994
vn -0 -0.997705 -0.06771799999999994
vn -0.009672 0.999051 0.04247199999999994
vn -0.009672 0.999051 0.04247199999999994
vn -0.009672 0.999051 0.04247199999999994
vn -0.009672 0.999051 0.04247199999999994
vn -0 -0.998278 0.05866400000000006
vn -0 -0.998278 0.05866400000000006
vn -0 -0.998278 0.05866400000000006
vn -0 -0.998278 0.05866400000000006
vn 0 6.123233995736766E-17 1
vn 0 6.123233995736766E-17 1
vn 0 6.123233995736766E-17 1
vn 0 6.123233995736766E-17 1
vn -0.948683 0.316228 -1.9363380400038462E-17
vn -0.948683 -0.316228 1.9363380400038462E-17
vn -0.316228 0.948683 -5.809007996777542E-17
vn 0.316228 0.948683 -5.809007996777542E-17
vn -0.316228 -0.948683 5.809007996777542E-17
vn 0.316228 -0.948683 5.809007996777542E-17
vn -0.948683 -0.316228 1.9363380400038462E-17
vn -0.948683 0.316228 -1.9363380400038462E-17
vn -0 -0.019867999999999938 0.999803
vn -0 -0.019867999999999938 0.999803
vn -0 -0.019867999999999938 0.999803
vn -0 -0.019867999999999938 0.999803
vn -0 -0.019867999999999938 0.999803
vn -0 -0.019867999999999938 0.999803
vn 0.996437 0.084338 0.0006629999999999948
vn 0.996393 0.084836 0.002185999999999995
vn 0.996379 0.085013 0.0010429999999999949
vn 0.996499 0.083604 0.0006439999999999949
vn 0.996565 0.082811 0.001015999999999995
vn 0.996578 0.082634 0.0021289999999999946
vn -1E-06 0.059859000000000065 0.998207
vn 0 0.059859000000000065 0.998207
vn -1E-06 0.059859000000000065 0.998207
vn -2E-06 0.059859000000000065 0.998207
vn -2E-06 0.059859000000000065 0.998207
vn -1E-06 0.059859000000000065 0.998207
vn 0.996448 0.084181 -0.002276000000000005
vn 0.99634 0.085217 -0.006631000000000005
vn 0.996377 0.084975 -0.003365000000000005
vn 0.996508 0.083473 -0.002221000000000005
vn 0.996557 0.082843 -0.0032810000000000053
vn 0.996521 0.083094 -0.006466000000000006
vn -0.052257 1.0000000000611487E-06 0.998634
vn -0.052257 1.0000000000611487E-06 0.998634
vn -0.052257 1.0000000000611487E-06 0.998634
vn -0.052257 6.11486965809859E-17 0.998634
vn -0.052257 6.11486965809859E-17 0.998634
vn -0.052257 6.11486965809859E-17 0.998634
vn 0.014368 -0.999896 0.0009430000000000613
vn 0.041674 -0.999127 0.002829000000000061
vn 0.041952 -0.999119 0.0013900000000000611
vn -0.01298 -0.999915 -0.0009129999999999387
vn -0.04057 -0.999176 -0.0013439999999999388
vn -0.040308 -0.999184 -0.002735999999999939
vn 0.037523 6.118923239003768E-17 0.999296
vn 0.021072 6.121874637789712E-17 0.999778
vn 0.021072 6.121874637789712E-17 0.999778
vn 0.053964 6.114312443804977E-17 0.998543
vn 0.070379 6.108048375427338E-17 0.99752
vn 0.070379 6.108048375427338E-17 0.99752
vn 0.014451 -0.999895 -0.0008239999999999387
vn 0.041983 -0.999115 -0.002466999999999939
vn 0.041899 -0.999121 -0.0012579999999999389
vn -0.013147 -0.999913 0.0007980000000000612
vn -0.040613 -0.999174 0.0012210000000000612
vn -0.040747 -0.999167 0.002394000000000061
vn -0.019868 6.122027718639606E-17 0.999803
vn -0.019868 6.122027718639606E-17 0.999803
vn -0.019868 6.122027718639606E-17 0.999803
vn -0.019868 6.122027718639606E-17 0.999803
vn -0.019868 6.122027718639606E-17 0.999803
vn -0.019868 6.122027718639606E-17 0.999803
vn -0.016276 -0.999868 -0.0004349999999999388
vn -0.050511 -0.998723 -0.0013019999999999388
vn -0.050616 -0.998718 -0.0006209999999999389
vn 0.018014 -0.999838 0.0004490000000000612
vn 0.052351 -0.998629 0.0006420000000000611
vn 0.052238 -0.998634 0.0013460000000000611
vn 0.059859 1.0000000000611225E-06 0.998207
vn 0.059859 6.11225503718241E-17 0.998207
vn 0.059859 1.0000000000611225E-06 0.998207
vn 0.059859 2.0000000000611227E-06 0.998207
vn 0.05986 2.0000000000611227E-06 0.998207
vn 0.05986 1.0000000000611225E-06 0.998207
vn -0.016345 -0.999866 0.0013170000000000612
vn -0.050739 -0.998704 0.003948000000000062
vn -0.050594 -0.998717 0.0020040000000000613
vn 0.018119 -0.999835 -0.0013649999999999387
vn 0.052371 -0.998626 -0.0020739999999999387
vn 0.05253 -0.998611 -0.004087999999999939
vn 0.165586 0.04266000000000006 0.985272
vn 0.16574 0.03342200000000006 0.985603
vn 0.165668 0.03342200000000006 0.985615
vn 0.110794 0.048189000000000065 0.992674
vn 0.083121 0.055550000000000065 0.99499
vn 0 0.04957300000000006 0.998771
vn -0.993781 0.004913000000000007 0.111244
vn -0.999655 -0.026217 0.0017790000000000015
vn -0.99643 -0.009824999999999995 0.083852
vn -0.984453 0.02650800000000001 0.173635
vn -0.983432 0.03641100000000001 0.177581
vn -0.981122 0.03848500000000001 0.189522
vn 0.171635 -0.04721799999999994 0.984028
vn 0.1839 -0.04301699999999994 0.982003
vn 0.174727 -0.04323999999999994 0.983667
vn 0.110779 -0.05892799999999994 0.992097
vn 0.083132 -0.06662799999999995 0.994309
vn -0 -0.07764799999999994 0.996981
vn -0.993117 -0.042831999999999995 0.109013
vn -0.996683 -0.081238 -0.004773999999999994
vn -0.993938 -0.07506 0.080336
vn -0.982823 -0.0065989999999999886 0.184432
vn -0.980746 0.02433000000000001 0.193767
vn -0.974723 0.026881000000000013 0.221793
vn 4E-06 0.020108000000000063 0.999798
vn 0 0.019868000000000063 0.999803
vn 0 0.019868000000000063 0.999803
vn -0.035162 0.01769100000000006 0.999225
vn -0.052739 0.016593000000000063 0.998471
vn -0.105275 0.01255600000000006 0.994364
vn -0.99892 -0.031837 -0.033843
vn -0.994406 -0.029477000000000007 -0.101433
vn -0.99848 -0.021484000000000003 -0.05075
vn -0.999224 -0.039389 0.00042300000000000237
vn -0.998629 -0.052351 0.0006420000000000032
vn -0.998634 -0.052238 0.0013460000000000032
vn 3.1E-05 -0.05817099999999994 0.998307
vn -0 -0.05985899999999994 0.998207
vn 1E-06 -0.05985899999999994 0.998207
vn -0.035063 -0.060423999999999936 0.997557
vn -0.052591 -0.060678999999999934 0.996771
vn -0.105046 -0.06638599999999995 0.992249
vn -0.99785 -0.0557 -0.034555
vn -0.992741 -0.06120600000000001 -0.103533
vn -0.997004 -0.057423 -0.051823999999999995
vn -0.998607 -0.052745 -0.0014039999999999968
vn -0.998626 -0.052371 -0.002073999999999997
vn -0.998611 -0.05253 -0.004087999999999996
vn 0.057606 0.056001000000000065 0.996768
vn 0.05814 0.16709800000000005 0.984225
vn 0.060216 0.08398400000000006 0.994646
vn 0.055463 6.113810338617327E-17 0.998461
vn 0.052257 6.11486965809859E-17 0.998634
vn 0.052257 6.11486965809859E-17 0.998634
vn -0.018355 0.999831 0.0009379999999999388
vn -0.041674 0.999127 0.0028289999999999388
vn -0.041952 0.999119 0.0013899999999999388
vn -0.004307 0.998797 -0.048847000000000064
vn 0.014747 0.997202 -0.07328500000000006
vn 0.000491 0.989219 -0.14644300000000005
vn -0.033792 0.05021700000000006 0.998167
vn -0.014287 0.14997700000000005 0.988586
vn -0.015412 0.07530400000000005 0.997042
vn -0.052427 6.114814548992627E-17 0.998625
vn -0.070379 6.108048375427338E-17 0.99752
vn -0.070379 6.108048375427338E-17 0.99752
vn -0.008802 0.999961 -0.0008170000000000613
vn -0.041983 0.999115 -0.002467000000000061
vn -0.0419 0.999121 -0.0012580000000000612
vn 0.020247 0.999126 -0.036573000000000064
vn 0.051317 0.997177 -0.05480900000000006
vn 0.045043 0.992952 -0.10962300000000005
vn 0.019122 1.3000000000061221E-05 0.999817
vn 0.019868 6.122027718639606E-17 0.999803
vn 0.019868 6.122027718639606E-17 0.999803
vn 0.018878 0.03647800000000006 0.999156
vn 0.018373 0.05471300000000006 0.998333
vn 0.019059 0.10914400000000006 0.993843
vn 0.027502 0.998927 -0.03726300000000006
vn 0.058661 0.992017 -0.11162800000000006
vn 0.067507 0.996157 -0.05580300000000006
vn -0.009545 0.999954 0.0004589999999999388
vn -0.052351 0.998629 0.0006419999999999388
vn -0.052238 0.998634 0.0013459999999999388
vn -0.059762 -2.9999999999388773E-06 0.998213
vn -0.059859 6.11225503718241E-17 0.998207
vn -0.059859 -9.999999999388774E-07 0.998207
vn -0.060671 0.03623000000000006 0.9975
vn -0.061047 0.054342000000000064 0.996655
vn -0.062344 0.10845100000000006 0.992145
vn 0.00159 0.999359 -0.03575900000000006
vn 0.024441 0.99394 -0.10716900000000006
vn 0.028551 0.998155 -0.053594000000000065
vn -0.024076 0.999709 -0.0013710000000000612
vn -0.052371 0.998626 -0.002074000000000061
vn -0.05253 0.998611 -0.00408800000000006
vn 0.093477 -0.06482799999999994 0.993509
vn 0.164841 -0.07478599999999995 0.983481
vn 0.111389 -0.07309099999999995 0.991085
vn 0.03835 -0.057759999999999936 0.997594
vn 0.028782 -0.05103299999999994 0.998282
vn -0 -0.05380599999999994 0.998551
vn 0.999277 0.007295999999999998 -0.037306
vn 0.998881 0.047198 0.0032039999999999968
vn 0.998224 0.053003 -0.027187000000000003
vn 0.99485 -0.028351000000000008 -0.097315
vn 0.990528 -0.07198500000000001 -0.116934
vn 0.982519 -0.05950100000000001 -0.176397
vn 0.093292 0.024895000000000063 0.995327
vn 0.16413 -0.0030579999999999397 0.986434
vn 0.111101 0.00045200000000006086 0.993809
vn 0.038382 0.049057000000000066 0.998058
vn 0.02874 0.07155600000000005 0.997022
vn 0 0.06937200000000006 0.997591
vn 0.999094 -0.017310000000000002 -0.038888
vn 0.999594 0.028437 -0.0016710000000000017
vn 0.999101 0.030308999999999996 -0.029643000000000003
vn 0.993758 -0.05942100000000001 -0.094413
vn 0.988068 -0.105155 -0.112536
vn 0.980978 -0.09753800000000001 -0.167833
vn -0.996473 -0.083912 -0.0010319999999999947
vn -0.996372 -0.085074 -0.0021919999999999947
vn -0.996385 -0.084943 -0.0010459999999999949
vn -0.996471 -0.083936 9.800000000000513E-05
vn -0.996559 -0.082882 -0.001016999999999995
vn -0.996572 -0.082704 -0.002130999999999995
vn -0.996468 -0.08391 0.0033070000000000052
vn -0.996421 -0.084277 0.006558000000000005
vn -0.996383 -0.084907 0.003329000000000005
vn -0.996457 -0.084099 9.900000000000514E-05
vn -0.996551 -0.082913 0.0032840000000000052
vn -0.996515 -0.083165 0.006471000000000005
vn -0.000691 1 -3.0000000000061234E-05
vn -0.042077 0.99911 -0.002856000000000061
vn -0.041951 0.999119 -0.001403000000000061
vn -0.000496 1 9.999999999387675E-07
vn 0.04057 0.999176 0.0013439999999999388
vn 0.040308 0.999184 0.002735999999999939
vn -0.000644 1 1.3999999999938768E-05
vn -0.041647 0.999129 0.002446999999999939
vn -0.0419 0.999121 0.0012479999999999388
vn -0.000837 1 9.999999999387675E-07
vn 0.040613 0.999174 -0.0012210000000000612
vn 0.040747 0.999167 -0.002394000000000061
vn -0.000911 1 -1.0000000000061233E-05
vn 0.050653 0.998715 0.0013049999999999388
vn 0.050575 0.99872 0.0006229999999999388
vn -0.001007 1 9.999999999387675E-07
vn -0.052395 0.998626 -0.0006430000000000612
vn -0.052283 0.998631 -0.0013470000000000613
vn -0.000932 1 4.699999999993877E-05
vn 0.050177 0.998733 -0.003904000000000061
vn 0.050554 0.998719 -0.001982000000000061
vn -0.000663 1 9.999999999387675E-07
vn -0.052415 0.998623 0.002075999999999939
vn -0.052575 0.998609 0.004090999999999939
vn 0.991344 -0.014210000000000009 -0.130517
vn 0.999997 0.002537 -0.00017200000000000017
vn 0.9965 0.009825999999999994 -0.083016
vn 0.986132 -0.009508000000000011 -0.16569
vn 0.983358 -0.03819100000000002 -0.177617
vn 0.981034 -0.040292000000000015 -0.189603
vn 0.990157 0.02464999999999999 -0.137774
vn 0.998366 0.057043 0.0033519999999999965
vn 0.993895 0.075036 -0.080881
vn 0.985592 0.034672999999999995 -0.165551
vn 0.980679 -0.025909000000000012 -0.193903
vn 0.974615 -0.028488000000000013 -0.222069
vn 0.998991 0.036959 0.025513999999999995
vn 0.994534 0.015067000000000007 0.103325
vn 0.998432 0.021455000000000002 0.051705
vn 0.999194 0.040144 4.699999999999754E-05
vn 0.998626 0.052395 -0.0006430000000000033
vn 0.998632 0.052283 -0.0013470000000000034
vn 0.998126 0.054896 0.027044999999999996
vn 0.993464 0.04709700000000001 0.103972
vn 0.996996 0.057348 0.052053999999999996
vn 0.998208 0.05984 6.999999999999633E-05
vn 0.998623 0.052415 0.002075999999999997
vn 0.998609 0.052575 0.0040909999999999965
vn 0.012904 -0.999273 0.03589000000000006
vn 0.042078 -0.99911 -0.002855999999999939
vn 0.041952 -0.999119 -0.001403999999999939
vn 0.005356 -0.999986 6.000000000061231E-06
vn -0.016304 -0.997179 0.07327200000000006
vn -0.001347 -0.989222 0.14641800000000005
vn -0.005682 -0.999593 0.02797400000000006
vn 0.041647 -0.999129 0.002447000000000061
vn 0.0419 -0.999121 0.0012480000000000611
vn -0.008887 -0.999961 -9.99999999993877E-06
vn -0.053365 -0.997077 0.05468100000000006
vn -0.04665 -0.992906 0.10937100000000005
vn -0.007451 -0.999587 0.027744000000000064
vn -0.073979 -0.990931 0.11217000000000006
vn -0.06742 -0.996147 0.056084000000000064
vn -0.004081 -0.999992 -4.999999999938768E-06
vn 0.052395 -0.998626 -0.0006429999999999389
vn 0.052283 -0.998631 -0.001346999999999939
vn 0.012034 -0.999546 0.02761000000000006
vn -0.039028 -0.993574 0.10624000000000006
vn -0.028472 -0.998181 0.05314000000000006
vn 0.017213 -0.999852 2.0000000000061225E-05
vn 0.052415 -0.998623 0.0020760000000000613
vn 0.052575 -0.998609 0.004091000000000061
vn -0.997357 0.009425000000000005 0.072038
vn -0.998445 -0.055623 -0.0037749999999999967
vn -0.998233 -0.052987 0.026909000000000002
vn -0.998194 0.017133000000000002 0.05757
vn -0.990528 0.07202100000000002 0.116912
vn -0.982543 0.05923000000000001 0.176354
vn -0.996747 0.03747400000000001 0.071357
vn -0.999345 -0.036128 0.002123000000000002
vn -0.999095 -0.030290999999999995 0.029871000000000005
vn -0.997364 0.04428000000000001 0.05749
vn -0.98806 0.105233 0.112532
vn -0.981 0.09732700000000001 0.167828
g tree
f 1/1/1 2/2/2 3/3/3
f 4/4/4 5/5/5 6/6/6
f 7/7/7 8/8/8 9/9/9
f 10/10/10 11/11/11 12/12/12
f 13/13/13 14/14/14 15/15/15
f 16/16/16 17/17/17 18/18/18
f 19/19/19 20/20/20 21/21/21
f 22/22/22 23/23/23 24/24/24
f 25/25/25 26/26/26 27/27/27
f 28/28/28 29/29/29 30/30/30
f 31/31/31 32/32/32 33/33/33
f 34/34/34 35/35/35 36/36/36
f 37/37/37 38/38/38 39/39/39
f 40/40/40 41/41/41 42/42/42
f 43/43/43 44/44/44 45/45/45
f 46/46/46 47/47/47 48/48/48
f 49/49/49 50/50/50 51/51/51
f 52/52/52 53/53/53 54/54/54
f 55/55/55 56/56/56 57/57/57
f 58/58/58 59/59/59 60/60/60
f 61/61/61 62/62/62 63/63/63
f 64/64/64 65/65/65 66/66/66
f 67/67/67 68/68/68 69/69/69
f 70/70/70 71/71/71 72/72/72
f 73/73/73 74/74/74 75/75/75
f 75/75/75 76/76/76 77/77/77
f 78/78/78 79/79/79 80/80/80
f 80/80/80 81/81/81 82/82/82
f 83/83/83 84/84/84 85/85/85
f 85/85/85 86/86/86 87/87/87
f 88/88/88 89/89/89 90/90/90
f 90/90/90 91/91/91 92/92/92
f 93/93/93 94/94/94 95/95/95
f 95/95/95 96/96/96 97/97/97
f 98/98/98 99/99/99 100/100/100
f 100/100/100 101/101/101 102/102/102
f 103/103/103 104/104/104 105/105/105
f 105/105/105 106/106/106 107/107/107
f 108/108/108 109/109/109 110/110/110
f 110/110/110 111/111/111 112/112/112
f 113/113/113 114/114/114 115/115/115
f 115/115/115 116/116/116 117/117/117
f 118/118/118 119/119/119 120/120/120
f 120/120/120 121/121/121 122/122/122
f 123/123/123 124/124/124 125/125/125
f 125/125/125 126/126/126 127/127/127
f 128/128/128 129/129/129 130/130/130
f 130/130/130 131/131/131 132/132/132
f 133/133/133 134/134/134 135/135/135
f 135/135/135 136/136/136 133/133/133
f 137/137/137 138/138/138 139/139/139
f 139/139/139 140/140/140 137/137/137
f 141/141/141 142/142/142 143/143/143
f 143/143/143 144/144/144 141/141/141
f 145/145/145 146/146/146 147/147/147
f 147/147/147 148/148/148 145/145/145
f 149/149/149 150/150/150 151/151/151
f 151/151/151 152/152/152 149/149/149
f 153/153/153 154/154/154 155/155/155
f 155/155/155 156/156/156 153/153/153
f 157/157/157 158/158/158 159/159/159
f 159/159/159 160/160/160 157/157/157
f 161/161/161 162/162/162 163/163/163
f 163/163/163 164/164/164 161/161/161
f 165/165/165 166/166/166 167/167/167
f 167/167/167 168/168/168 165/165/165
f 169/169/169 170/170/170 171/171/171
f 171/171/171 172/172/172 169/169/169
f 173/173/173 174/174/174 175/175/175
f 175/175/175 176/176/176 173/173/173
f 177/177/177 178/178/178 179/179/179
f 179/179/179 180/180/180 177/177/177
f 181/181/181 182/182/182 183/183/183
f 183/183/183 184/184/184 181/181/181
f 185/185/185 186/186/186 187/187/187
f 187/187/187 188/188/188 185/185/185
f 189/189/189 190/190/190 191/191/191
f 191/191/191 192/192/192 189/189/189
f 193/193/193 194/194/194 195/195/195
f 195/195/195 196/196/196 193/193/193
f 197/197/197 198/198/198 199/199/199
f 199/199/199 200/200/200 197/197/197
f 201/201/201 202/202/202 203/203/203
f 203/203/203 204/204/204 201/201/201
f 205/205/205 206/206/206 207/207/207
f 207/207/207 208/208/208 205/205/205
f 209/209/209 210/210/210 211/211/211
f 211/211/211 212/212/212 209/209/209
f 213/213/213 214/214/214 215/215/215
f 215/215/215 216/216/216 213/213/213
f 217/217/217 218/218/218 219/219/219
f 219/219/219 220/220/220 217/217/217
f 221/221/221 222/222/222 223/223/223
f 223/223/223 224/224/224 221/221/221
f 225/225/225 226/226/226 227/227/227
f 227/227/227 228/228/228 225/225/225
f 229/229/229 230/230/230 231/231/231
f 231/231/231 232/232/232 229/229/229
f 233/233/233 234/234/234 235/235/235
f 235/235/235 236/236/236 233/233/233
f 237/237/237 238/238/238 239/239/239
f 239/239/239 240/240/240 237/237/237
f 241/241/241 242/242/242 243/243/243
f 243/243/243 244/244/244 241/241/241
f 245/245/245 246/246/246 247/247/247
f 247/247/247 248/248/248 245/245/245
f 249/249/249 250/250/250 251/251/251
f 251/251/251 252/252/252 249/249/249
f 253/253/253 254/254/254 255/255/255
f 255/255/255 256/256/256 253/253/253
f 257/257/257 258/258/258 259/259/259
f 259/259/259 260/260/260 257/257/257
f 261/261/261 262/262/262 263/263/263
f 263/263/263 264/264/264 261/261/261
f 265/265/265 266/266/266 267/267/267
f 267/267/267 268/268/268 265/265/265
f 269/269/269 270/270/270 271/271/271
f 271/271/271 272/272/272 269/269/269
f 273/273/273 274/274/274 275/275/275
f 275/275/275 276/276/276 273/273/273
f 277/277/277 278/278/278 279/279/279
f 279/279/279 280/280/280 277/277/277
f 281/281/281 282/282/282 283/283/283
f 283/283/283 284/284/284 281/281/281
f 285/285/285 286/286/286 287/287/287
f 287/287/287 288/288/288 285/285/285
f 289/289/289 290/290/290 291/291/291
f 291/291/291 292/292/292 289/289/289
f 293/293/293 294/294/294 295/295/295
f 295/295/295 296/296/296 293/293/293
f 297/297/297 298/298/298 299/299/299
f 299/299/299 300/300/300 297/297/297
f 301/301/301 302/302/302 303/303/303
f 303/303/303 304/304/304 301/301/301
f 305/305/305 306/306/306 307/307/307
f 307/307/307 308/308/308 305/305/305
f 309/309/309 310/310/310 311/311/311
f 311/311/311 312/312/312 309/309/309
f 313/313/313 314/314/314 315/315/315
f 315/315/315 316/316/316 313/313/313
f 317/317/317 318/318/318 319/319/319
f 319/319/319 320/320/320 317/317/317
f 321/321/321 322/322/322 323/323/323
f 323/323/323 324/324/324 321/321/321
f 325/325/325 326/326/326 327/327/327
f 327/327/327 328/328/328 325/325/325
f 329/329/329 330/330/330 331/331/331
f 331/331/331 332/332/332 329/329/329
f 333/333/333 334/334/334 335/335/335
f 335/335/335 336/336/336 333/333/333
f 337/337/337 338/338/338 339/339/339
f 339/339/339 340/340/340 337/337/337
f 341/341/341 342/342/342 343/343/343
f 343/343/343 344/344/344 341/341/341
f 345/345/345 346/346/346 347/347/347
f 347/347/347 348/348/348 345/345/345
f 349/349/349 350/350/350 351/351/351
f 351/351/351 352/352/352 349/349/349
f 353/353/353 354/354/354 355/355/355
f 355/355/355 356/356/356 353/353/353
f 357/357/357 358/358/358 359/359/359
f 359/359/359 360/360/360 357/357/357
f 361/361/361 362/362/362 363/363/363
f 363/363/363 364/364/364 361/361/361
f 365/365/365 366/366/366 367/367/367
f 367/367/367 368/368/368 365/365/365
f 369/369/369 370/370/370 371/371/371
f 371/371/371 372/372/372 369/369/369
f 373/373/373 374/374/374 375/375/375
f 375/375/375 376/376/376 373/373/373
f 377/377/377 378/378/378 379/379/379
f 379/379/379 380/380/380 377/377/377
f 381/381/381 382/382/382 383/383/383
f 383/383/383 384/384/384 381/381/381
f 385/385/385 386/386/386 387/387/387
f 387/387/387 388/388/388 385/385/385
f 389/389/389 390/390/390 391/391/391
f 391/391/391 392/392/392 389/389/389
f 393/393/393 394/394/394 395/395/395
f 395/395/395 396/396/396 393/393/393
f 397/397/397 398/398/398 399/399/399
f 399/399/399 400/400/400 397/397/397
f 401/401/401 402/402/402 403/403/403
f 403/403/403 404/404/404 401/401/401
f 405/405/405 406/406/406 407/407/407
f 407/407/407 408/408/408 405/405/405
f 409/409/409 405/405/405 408/408/408
f 408/408/408 410/410/410 409/409/409
f 411/411/411 412/412/412 413/413/413
f 413/413/413 414/414/414 411/411/411
f 415/415/415 411/411/411 414/414/414
f 414/414/414 416/416/416 415/415/415
f 417/417/417 418/418/418 419/419/419
f 419/419/419 420/420/420 417/417/417
f 421/421/421 417/417/417 420/420/420
f 420/420/420 422/422/422 421/421/421
f 423/423/423 424/424/424 425/425/425
f 425/425/425 426/426/426 423/423/423
f 427/427/427 423/423/423 426/426/426
f 426/426/426 428/428/428 427/427/427
f 429/429/429 430/430/430 431/431/431
f 431/431/431 432/432/432 429/429/429
f 433/433/433 429/429/429 432/432/432
f 432/432/432 434/434/434 433/433/433
f 435/435/435 436/436/436 437/437/437
f 437/437/437 438/438/438 435/435/435
f 439/439/439 435/435/435 438/438/438
f 438/438/438 440/440/440 439/439/439
f 441/441/441 442/442/442 443/443/443
f 443/443/443 444/444/444 441/441/441
f 445/445/445 441/441/441 444/444/444
f 444/444/444 446/446/446 445/445/445
f 447/447/447 448/448/448 449/449/449
f 449/449/449 450/450/450 447/447/447
f 451/451/451 447/447/447 450/450/450
f 450/450/450 452/452/452 451/451/451
f 453/453/453 454/454/454 455/455/455
f 455/455/455 456/456/456 453/453/453
f 457/457/457 453/453/453 456/456/456
f 456/456/456 458/458/458 457/457/457
f 459/459/459 460/460/460 461/461/461
f 461/461/461 462/462/462 459/459/459
f 463/463/463 459/459/459 462/462/462
f 462/462/462 464/464/464 463/463/463
f 465/465/465 466/466/466 467/467/467
f 467/467/467 468/468/468 465/465/465
f 469/469/469 465/465/465 468/468/468
f 468/468/468 470/470/470 469/469/469
f 471/471/471 472/472/472 473/473/473
f 473/473/473 474/474/474 471/471/471
f 475/475/475 471/471/471 474/474/474
f 474/474/474 476/476/476 475/475/475
f 477/477/477 478/478/478 479/479/479
f 479/479/479 480/480/480 477/477/477
f 481/481/481 477/477/477 480/480/480
f 480/480/480 482/482/482 481/481/481
f 483/483/483 484/484/484 485/485/485
f 485/485/485 486/486/486 483/483/483
f 487/487/487 483/483/483 486/486/486
f 486/486/486 488/488/488 487/487/487
f 489/489/489 490/490/490 491/491/491
f 491/491/491 492/492/492 489/489/489
f 493/493/493 489/489/489 492/492/492
f 492/492/492 494/494/494 493/493/493
f 495/495/495 496/496/496 497/497/497
f 497/497/497 498/498/498 495/495/495
f 499/499/499 495/495/495 498/498/498
f 498/498/498 500/500/500 499/499/499
f 501/501/501 502/502/502 503/503/503
f 503/503/503 504/504/504 501/501/501
f 505/505/505 501/501/501 504/504/504
f 504/504/504 506/506/506 505/505/505
f 507/507/507 508/508/508 509/509/509
f 509/509/509 510/510/510 507/507/507
f 511/511/511 507/507/507 510/510/510
f 510/510/510 512/512/512 511/511/511
f 513/513/513 514/514/514 515/515/515
f 515/515/515 516/516/516 513/513/513
f 517/517/517 513/513/513 516/516/516
f 516/516/516 518/518/518 517/517/517
f 519/519/519 520/520/520 521/521/521
f 521/521/521 522/522/522 519/519/519
f 523/523/523 519/519/519 522/522/522
f 522/522/522 524/524/524 523/523/523
f 525/525/525 526/526/526 527/527/527
f 527/527/527 528/528/528 525/525/525
f 529/529/529 525/525/525 528/528/528
f 528/528/528 530/530/530 529/529/529
f 531/531/531 532/532/532 533/533/533
f 533/533/533 534/534/534 531/531/531
f 535/535/535 531/531/531 534/534/534
f 534/534/534 536/536/536 535/535/535
f 537/537/537 538/538/538 539/539/539
f 539/539/539 540/540/540 537/537/537
f 541/541/541 537/537/537 540/540/540
f 540/540/540 542/542/542 541/541/541
f 543/543/543 544/544/544 545/545/545
f 545/545/545 546/546/546 543/543/543
f 547/547/547 543/543/543 546/546/546
f 546/546/546 548/548/548 547/547/547
f 549/549/549 550/550/550 551/551/551
f 551/551/551 552/552/552 549/549/549
f 553/553/553 549/549/549 552/552/552
f 552/552/552 554/554/554 553/553/553
f 555/555/555 556/556/556 557/557/557
f 557/557/557 558/558/558 555/555/555
f 559/559/559 555/555/555 558/558/558
f 558/558/558 560/560/560 559/559/559
f 561/561/561 562/562/562 563/563/563
f 563/563/563 564/564/564 561/561/561
f 565/565/565 561/561/561 564/564/564
f 564/564/564 566/566/566 565/565/565
f 567/567/567 568/568/568 569/569/569
f 569/569/569 570/570/570 567/567/567
f 571/571/571 567/567/567 570/570/570
f 570/570/570 572/572/572 571/571/571
f 573/573/573 574/574/574 575/575/575
f 575/575/575 576/576/576 573/573/573
f 577/577/577 573/573/573 576/576/576
f 576/576/576 578/578/578 577/577/577
f 579/579/579 580/580/580 581/581/581
f 581/581/581 582/582/582 579/579/579
f 583/583/583 579/579/579 582/582/582
f 582/582/582 584/584/584 583/583/583
f 585/585/585 586/586/586 587/587/587
f 587/587/587 588/588/588 585/585/585
f 589/589/589 585/585/585 588/588/588
f 588/588/588 590/590/590 589/589/589
f 591/591/591 592/592/592 593/593/593
f 593/593/593 594/594/594 591/591/591
f 595/595/595 591/591/591 594/594/594
f 594/594/594 596/596/596 595/595/595
f 597/597/597 598/598/598 599/599/599
f 599/599/599 600/600/600 597/597/597
f 597/597/597 600/600/600 601/601/601
f 601/601/601 602/602/602 597/597/597
f 603/603/603 604/604/604 605/605/605
f 605/605/605 606/606/606 603/603/603
f 603/603/603 606/606/606 607/607/607
f 607/607/607 608/608/608 603/603/603
f 609/609/609 610/610/610 611/611/611
f 611/611/611 612/612/612 609/609/609
f 609/609/609 612/612/612 613/613/613
f 613/613/613 614/614/614 609/609/609
f 615/615/615 616/616/616 617/617/617
f 617/617/617 618/618/618 615/615/615
f 615/615/615 618/618/618 619/619/619
f 619/619/619 620/620/620 615/615/615
f 621/621/621 622/622/622 623/623/623
f 623/623/623 624/624/624 621/621/621
f 621/621/621 624/624/624 625/625/625
f 625/625/625 626/626/626 621/621/621
f 627/627/627 628/628/628 629/629/629
f 629/629/629 630/630/630 627/627/627
f 627/627/627 630/630/630 631/631/631
f 631/631/631 632/632/632 627/627/627
f 633/633/633 634/634/634 635/635/635
f 635/635/635 636/636/636 633/633/633
f 633/633/633 636/636/636 637/637/637
f 637/637/637 638/638/638 633/633/633
f 639/639/639 640/640/640 641/641/641
f 641/641/641 642/642/642 639/639/639
f 639/639/639 642/642/642 643/643/643
f 643/643/643 644/644/644 639/639/639
f 645/645/645 646/646/646 647/647/647
f 647/647/647 648/648/648 645/645/645
f 645/645/645 648/648/648 649/649/649
f 649/649/649 650/650/650 645/645/645
f 651/651/651 652/652/652 653/653/653
f 653/653/653 654/654/654 651/651/651
f 651/651/651 654/654/654 655/655/655
f 655/655/655 656/656/656 651/651/651
f 657/657/657 658/658/658 659/659/659
f 659/659/659 660/660/660 657/657/657
f 657/657/657 660/660/660 661/661/661
f 661/661/661 662/662/662 657/657/657
f 663/663/663 664/664/664 665/665/665
f 665/665/665 666/666/666 663/663/663
f 663/663/663 666/666/666 667/667/667
f 667/667/667 668/668/668 663/663/663
f 669/669/669 670/670/670 671/671/671
f 671/671/671 672/672/672 669/669/669
f 669/669/669 672/672/672 673/673/673
f 673/673/673 674/674/674 669/669/669
f 675/675/675 676/676/676 677/677/677
f 677/677/677 678/678/678 675/675/675
f 675/675/675 678/678/678 679/679/679
f 679/679/679 680/680/680 675/675/675
f 681/681/681 682/682/682 683/683/683
f 683/683/683 684/684/684 681/681/681
f 681/681/681 684/684/684 685/685/685
f 685/685/685 686/686/686 681/681/681
f 687/687/687 688/688/688 689/689/689
f 689/689/689 690/690/690 687/687/687
f 687/687/687 690/690/690 691/691/691
f 691/691/691 692/692/692 687/687/687
