v -0.068839 1.01447 -0.004945000000000062
v 0.035048 0.938578 -0.004945000000000057
v 0.035048 0.938578 -0.5671810000000002
v 0.035048 0.938578 -0.004945000000000057
v -0.068839 1.01447 -0.004945000000000062
v 0.035048 0.938578 0.7519649999999999
v 0.581026 0.43339599999999995 -0.697763
v 0.169985 0.770323 -0.684207
v 0.343434 0.832586 -0.744521
v 0.716329 0.594433 -0.749543
v 0.74919 0.948711 -0.7262420000000002
v 0.915739 1.397643 -0.004945000000000086
v 1.390472 1.061899 -0.004945000000000065
v 1.117038 0.684723 -0.620747
v 0.870708 0.36430499999999993 -0.619641
v 0.581026 0.43339599999999995 -0.697763
v 0.845365 0.26874299999999995 -0.547997
v 0.890197 0.202548 -0.004945000000000012
v 1.398288 0.553148 -0.3479320000000001
v 1.489235 0.559011 -0.004945000000000034
v 1.439624 0.390047 -0.004945000000000024
v 1.197583 0.156181 -0.004945000000000009
v 0.890197 0.202548 -0.004945000000000012
v -0.988269 1.042647 -0.004945000000000064
v -1.459148 0.025188 -0.0049450000000000015
v -1.34339 0.09499000000000005 0.76155
v -0.842616 1.009296 0.7615499999999998
v -0.910682 0.1541130000000001 1.793742
v -0.587324 0.8341000000000001 1.634597
v -0.270171 0.3034150000000001 2.226465
v -0.910682 0.15411299999999994 -0.923762
v -0.587325 0.8341 -0.86929
v -0.270171 0.30341499999999993 -1.071875
v -0.842616 1.009296 -0.5704620000000001
v -1.34339 0.09498999999999996 -0.570461
v -0.988269 1.042647 -0.004945000000000064
v -1.459148 0.025188 -0.0049450000000000015
v 0.343434 0.8325860000000002 1.270077
v 0.169985 0.7703230000000001 1.093865
v 0.581026 0.43339600000000006 1.13347
v 0.716329 0.5944330000000001 1.284749
v 0.74919 0.9487110000000001 1.216674
v 0.915739 1.397643 -0.004945000000000086
v 1.390472 1.061899 -0.004945000000000065
v 1.117038 0.6847230000000001 0.908461
v 0.870708 0.36430500000000005 0.905232
v 0.581026 0.43339600000000006 1.13347
v 0.845365 0.26874200000000004 0.695919
v 0.890197 0.202548 -0.004945000000000012
v 1.197583 0.156181 -0.004945000000000009
v 1.398288 0.553148 0.3380409999999999
v 1.489235 0.559011 -0.004945000000000034
v 1.439624 0.390047 -0.004945000000000024
v 0.312011 0.24574999999999994 -0.996851
v 0.202705 0.03883399999999994 -1.051097
v -0.270171 0.30341499999999993 -1.071875
v 0.38643 0.48316899999999996 -0.854396
v 0.169985 0.770323 -0.684207
v 0.581026 0.43339599999999995 -0.697763
v 0.009204 0.880812 -0.776418
v -0.190006 0.778784 -0.902299
v -0.587325 0.8341 -0.86929
v 0.009204 0.880812 -0.776418
v -0.458957 1.1293 -0.5704620000000001
v -0.842616 1.009296 -0.5704620000000001
v 0.035048 0.938578 -0.5671810000000002
v 0.169985 0.770323 -0.684207
v -0.068839 1.01447 -0.004945000000000062
v -0.789642 1.194465 -0.004945000000000073
v -0.068839 1.01447 -0.004945000000000062
v -0.988269 1.042647 -0.004945000000000064
v 0.202705 0.03883400000000013 2.165759
v 0.312011 0.2457500000000001 2.007275
v -0.270171 0.3034150000000001 2.226465
v 0.38643 0.4831690000000001 1.591084
v 0.581026 0.43339600000000006 1.13347
v 0.169985 0.7703230000000001 1.093865
v 0.009204 0.8808110000000001 1.363266
v -0.190006 0.7787830000000001 1.731035
v -0.587324 0.8341000000000001 1.634597
v -0.458957 1.1293 0.7615499999999998
v 0.009204 0.8808110000000001 1.363266
v -0.842616 1.009296 0.7615499999999998
v 0.169985 0.7703230000000001 1.093865
v 0.035048 0.938578 0.7519649999999999
v -0.068839 1.01447 -0.004945000000000062
v -0.789642 1.194465 -0.004945000000000073
v -0.988269 1.042647 -0.004945000000000064
v 0.116461 -0.922457 -0.6065629999999999
v -0.041258 -0.70887 -0.736037
v 0.007987 -0.613884 -0.821598
v 0.297342 -0.707586 -0.675619
v 0.431559 -1.129756 -0.5704609999999999
v 0.049392 -0.44516900000000004 -0.852191
v 0.431559 -1.129756 -0.5704609999999999
v 0.007987 -0.613884 -0.821598
v 0.200821 -1.032133 -0.004944999999999936
v 0.449865 -1.223202 -0.004944999999999925
v 0.82289 -1.479737 -0.0049449999999999095
v 0.790495 -1.34117 -0.5103149999999999
v 1.192525 -1.255962 -0.0049449999999999225
v 0.704522 -0.842409 -0.651845
v 0.102988 -0.29783300000000007 -0.994824
v 1.190932 -0.926386 -0.5490109999999999
v 1.415577 -0.951169 -0.004944999999999942
v 1.07641 -0.598474 -0.645962
v 0.202705 0.03883399999999994 -1.051097
v 0.035048 0.938578 -0.5671810000000002
v 0.035048 0.938578 -0.004945000000000057
v 0.093961 1.224941 -0.004945000000000074
v 0.133225 1.088217 -0.6445120000000001
v 0.169985 0.770323 -0.684207
v 0.343434 0.832586 -0.744521
v 0.342332 1.420607 -0.0049450000000000865
v 0.74919 0.948711 -0.7262420000000002
v 0.915739 1.397643 -0.004945000000000086
v -0.041258 -0.7088699999999999 1.245291
v 0.116461 -0.922457 0.8670250000000002
v 0.007987 -0.6138829999999998 1.495263
v 0.297342 -0.7075859999999999 1.068774
v 0.431558 -1.129757 0.7615500000000001
v 0.049393 -0.44516899999999987 1.584642
v 0.431558 -1.129757 0.7615500000000001
v 0.007987 -0.6138829999999998 1.495263
v 0.200821 -1.032133 -0.004944999999999936
v 0.449865 -1.223202 -0.004944999999999925
v 0.82289 -1.479737 -0.0049449999999999095
v 0.790495 -1.34117 0.5858300000000001
v 1.192525 -1.255962 -0.0049449999999999225
v 0.704522 -0.8424089999999999 0.999319
v 0.102988 -0.2978329999999999 2.001354
v 1.190932 -0.926386 0.6988830000000001
v 1.415577 -0.951169 -0.004944999999999942
v 1.07641 -0.5984739999999998 0.982132
v 0.202705 0.03883400000000013 2.165759
v 0.035048 0.938578 0.7519649999999999
v 0.133225 1.088217 0.9778919999999999
v 0.093961 1.224941 -0.004945000000000074
v 0.035048 0.938578 -0.004945000000000057
v 0.133225 1.088217 0.9778919999999999
v 0.169985 0.7703230000000001 1.093865
v 0.343434 0.8325860000000002 1.270077
v 0.342332 1.420607 -0.0049450000000000865
v 0.74919 0.9487110000000001 1.216674
v 0.915739 1.397643 -0.004945000000000086
v 1.415577 -0.951169 -0.004944999999999942
v 1.190932 -0.926386 -0.5490109999999999
v 1.07641 -0.598474 -0.645962
v 1.442598 -0.53255 -0.004944999999999967
v 1.253561 -0.09179 -0.0049449999999999945
v 0.890197 0.202548 -0.004945000000000012
v 0.845365 0.26874299999999995 -0.547997
v 1.131272 -0.05312300000000003 -0.570461
v 0.202705 0.03883399999999994 -1.051097
v 0.312011 0.24574999999999994 -0.996851
v 0.938235 -0.15655300000000005 -0.774882
v 0.737049 0.22693999999999995 -0.79776
v 0.38643 0.48316899999999996 -0.854396
v 0.581026 0.43339599999999995 -0.697763
v 1.07641 -0.5984739999999998 0.982132
v 1.190932 -0.926386 0.6988830000000001
v 1.415577 -0.951169 -0.004944999999999942
v 1.442598 -0.53255 -0.004944999999999967
v 1.253561 -0.09179 -0.0049449999999999945
v 0.890197 0.202548 -0.004945000000000012
v 0.845365 0.26874200000000004 0.695919
v 1.131272 -0.05312299999999995 0.76155
v 0.312011 0.2457500000000001 2.007275
v 0.202705 0.03883400000000013 2.165759
v 0.938235 -0.15655299999999991 1.358778
v 0.737049 0.22694000000000009 1.425618
v 0.38643 0.4831690000000001 1.591084
v 0.581026 0.43339600000000006 1.13347
v -1.026157 -0.996804 -0.004944999999999939
v -1.09526 -0.592066 -0.004944999999999963
v -0.9209 -0.522815 -0.570461
v -0.869086 -0.82416 -0.638405
v -0.534149 -1.247794 -0.004944999999999923
v -0.635335 -0.634228 -0.732462
v -0.852977 -0.43507100000000004 -0.731213
v -0.499414 -0.584025 -0.860565
v 0.007987 -0.613884 -0.821598
v -0.041258 -0.70887 -0.736037
v -0.06017 -1.109048 -0.6370339999999999
v -0.06421 -1.23589 -0.004944999999999924
v 0.116461 -0.922457 -0.6065629999999999
v 0.200821 -1.032133 -0.004944999999999936
v -0.9209 -0.522815 0.76155
v -1.09526 -0.592066 -0.004944999999999963
v -1.026157 -0.996804 -0.004944999999999939
v -0.869086 -0.8241599999999999 0.960052
v -0.534149 -1.247794 -0.004944999999999923
v -0.635335 -0.6342279999999999 1.234846
v -0.852977 -0.43507099999999993 1.231198
v -0.499414 -0.5840249999999999 1.609108
v 0.007987 -0.6138829999999998 1.495263
v -0.041258 -0.7088699999999999 1.245291
v -0.06017 -1.109048 0.9560470000000001
v -0.06421 -1.23589 -0.004944999999999924
v 0.116461 -0.922457 0.8670250000000002
v 0.200821 -1.032133 -0.004944999999999936
v -0.9209 -0.522815 -0.570461
v -1.09526 -0.592066 -0.004944999999999963
v -1.051009 -0.526483 -0.570461
v -1.437281 -0.264267 -0.004944999999999983
v -0.852977 -0.43507100000000004 -0.731213
v -1.293308 -0.31549600000000005 -0.570461
v -1.459148 0.025188 -0.0049450000000000015
v -1.34339 0.09498999999999996 -0.570461
v -0.910682 0.15411299999999994 -0.923762
v -0.443595 -0.31116000000000005 -0.911947
v -0.499414 -0.584025 -0.860565
v 0.007987 -0.613884 -0.821598
v 0.049392 -0.44516900000000004 -0.852191
v -0.383911 -0.13606700000000005 -1.036921
v -0.270171 0.30341499999999993 -1.071875
v 0.102988 -0.29783300000000007 -0.994824
v 0.202705 0.03883399999999994 -1.051097
v -1.09526 -0.592066 -0.004944999999999963
v -0.9209 -0.522815 0.76155
v -1.051009 -0.526483 0.76155
v -1.437281 -0.264267 -0.004944999999999983
v -0.852977 -0.43507099999999993 1.231198
v -1.293308 -0.31549599999999994 0.76155
v -1.459148 0.025188 -0.0049450000000000015
v -1.34339 0.09499000000000005 0.76155
v -0.910682 0.1541130000000001 1.793742
v -0.443595 -0.3111609999999999 1.759225
v -0.499414 -0.5840249999999999 1.609108
v 0.007987 -0.6138829999999998 1.495263
v 0.049393 -0.44516899999999987 1.584642
v -0.383911 -0.13606699999999985 2.124344
v -0.270171 0.3034150000000001 2.226465
v 0.102988 -0.2978329999999999 2.001354
v 0.202705 0.03883400000000013 2.165759
vt 0.658314 0.218497
vt 0.494366 0.209785
vt 0.494366 0.209785
vt 0.494366 0.209785
vt 0.658314 0.218497
vt 0.494366 0.209785
vt 0.021293 0.515966
vt 0.038102 0.607522
vt 0.079217 0.582765
vt 0.067851 0.483784
vt 0.149401 0.518314
vt 0.335530 0.345588
vt 0.264182 0.244045
vt 0.129272 0.394573
vt 0.043907 0.406873
vt 0.021182 0.478203
vt 0.023105 0.365908
vt 0.011664 0.232372
vt 0.135180 0.269817
vt 0.152865 0.206288
vt 0.114616 0.198925
vt 0.047217 0.209772
vt 0.011664 0.232372
vt 0.987925 0.701039
vt 0.779322 0.709743
vt 0.796562 0.565336
vt 0.992625 0.557265
vt 0.846365 0.365859
vt 0.989327 0.389868
vt 0.921816 0.242870
vt 0.846365 0.365859
vt 0.989327 0.389868
vt 0.921816 0.242870
vt 0.992625 0.557265
vt 0.796562 0.565336
vt 0.987925 0.701039
vt 0.779322 0.709743
vt 0.079217 0.582765
vt 0.038102 0.607522
vt 0.021293 0.515966
vt 0.067851 0.483784
vt 0.149401 0.518314
vt 0.335530 0.345588
vt 0.264182 0.244045
vt 0.129272 0.394573
vt 0.043907 0.406873
vt 0.021182 0.478203
vt 0.023105 0.365908
vt 0.011664 0.232372
vt 0.047217 0.209772
vt 0.135180 0.269817
vt 0.152865 0.206288
vt 0.114616 0.198925
vt 0.167889 0.146205
vt 0.120945 0.111063
vt 0.187173 0.022231
vt 0.251499 0.202540
vt 0.382759 0.222673
vt 0.304486 0.276408
vt 0.364676 0.160461
vt 0.318025 0.086798
vt 0.367797 0.016165
vt 0.378071 0.171943
vt 0.539268 0.091087
vt 0.546685 0.012346
vt 0.494366 0.209785
vt 0.405207 0.223544
vt 0.658314 0.218497
vt 0.699991 0.056344
vt 0.658314 0.218497
vt 0.706258 0.008119
vt 0.120945 0.111063
vt 0.167889 0.146205
vt 0.187173 0.022231
vt 0.251499 0.202540
vt 0.304486 0.276408
vt 0.382759 0.222673
vt 0.364676 0.160461
vt 0.318025 0.086798
vt 0.367797 0.016165
vt 0.539268 0.091087
vt 0.378071 0.171943
vt 0.546685 0.012346
vt 0.405207 0.223544
vt 0.494366 0.209785
vt 0.658314 0.218497
vt 0.699991 0.056344
vt 0.706258 0.008119
vt 0.558838 0.704835
vt 0.552561 0.794192
vt 0.579349 0.836003
vt 0.613452 0.743539
vt 0.600788 0.644639
vt 0.599070 0.856702
vt 0.600788 0.644639
vt 0.579349 0.836003
vt 0.490168 0.560326
vt 0.552573 0.520821
vt 0.601797 0.485579
vt 0.639758 0.583099
vt 0.673456 0.468117
vt 0.684080 0.689531
vt 0.644508 0.927107
vt 0.748034 0.599603
vt 0.750092 0.463061
vt 0.764265 0.689174
vt 0.708105 0.978286
vt 0.768455 0.814632
vt 0.751609 0.951647
vt 0.791182 0.974363
vt 0.809453 0.802822
vt 0.783547 0.747405
vt 0.831392 0.724957
vt 0.864893 0.988101
vt 0.910532 0.732540
vt 0.974856 0.964142
vt 0.552561 0.794192
vt 0.558838 0.704835
vt 0.579349 0.836003
vt 0.613452 0.743539
vt 0.600788 0.644639
vt 0.599070 0.856702
vt 0.600788 0.644639
vt 0.579349 0.836003
vt 0.490168 0.560326
vt 0.552573 0.520821
vt 0.601797 0.485579
vt 0.639758 0.583099
vt 0.673456 0.468117
vt 0.684080 0.689531
vt 0.644508 0.927107
vt 0.748034 0.599603
vt 0.750092 0.463061
vt 0.764265 0.689174
vt 0.708105 0.978286
vt 0.768455 0.814632
vt 0.809453 0.802822
vt 0.791182 0.974363
vt 0.751609 0.951647
vt 0.809453 0.802822
vt 0.783547 0.747405
vt 0.831392 0.724957
vt 0.864893 0.988101
vt 0.910532 0.732540
vt 0.974856 0.964142
vt 0.868387 0.232242
vt 0.719051 0.190975
vt 0.637834 0.242320
vt 0.856212 0.316881
vt 0.826963 0.395773
vt 0.795392 0.470243
vt 0.649058 0.426052
vt 0.664660 0.356623
vt 0.323259 0.311100
vt 0.361252 0.356056
vt 0.544001 0.311654
vt 0.502242 0.373867
vt 0.435272 0.425968
vt 0.534393 0.443967
vt 0.637834 0.242320
vt 0.719051 0.190975
vt 0.868387 0.232242
vt 0.856212 0.316881
vt 0.826963 0.395773
vt 0.795392 0.470243
vt 0.649058 0.426052
vt 0.664660 0.356623
vt 0.361252 0.356056
vt 0.323259 0.311100
vt 0.544001 0.311654
vt 0.502242 0.373867
vt 0.435272 0.425968
vt 0.534393 0.443967
vt 0.029940 0.901722
vt 0.045581 0.986653
vt 0.213059 0.958401
vt 0.216974 0.889016
vt 0.012901 0.787127
vt 0.294348 0.860404
vt 0.304728 0.925747
vt 0.370724 0.838443
vt 0.367813 0.736220
vt 0.311250 0.735289
vt 0.223097 0.726613
vt 0.034922 0.686586
vt 0.233988 0.675996
vt 0.057395 0.622817
vt 0.213059 0.958401
vt 0.045581 0.986653
vt 0.029940 0.901722
vt 0.216974 0.889016
vt 0.012901 0.787127
vt 0.294348 0.860404
vt 0.304728 0.925747
vt 0.370724 0.838443
vt 0.367813 0.736220
vt 0.311250 0.735289
vt 0.223097 0.726613
vt 0.034922 0.686586
vt 0.233988 0.675996
vt 0.057395 0.622817
vt 0.384449 0.825959
vt 0.404279 0.977420
vt 0.404313 0.835627
vt 0.506484 0.973848
vt 0.388216 0.733647
vt 0.472102 0.831981
vt 0.559943 0.958025
vt 0.540264 0.797039
vt 0.478064 0.573804
vt 0.336597 0.598702
vt 0.315182 0.662539
vt 0.226124 0.639756
vt 0.238669 0.600056
vt 0.350904 0.514052
vt 0.376091 0.402493
vt 0.252127 0.516530
vt 0.270883 0.418515
vt 0.404279 0.977420
vt 0.384449 0.825959
vt 0.404313 0.835627
vt 0.506484 0.973848
vt 0.388216 0.733647
vt 0.472102 0.831981
vt 0.559943 0.958025
vt 0.540264 0.797039
vt 0.478064 0.573804
vt 0.336597 0.598702
vt 0.315182 0.662539
vt 0.226124 0.639756
vt 0.238669 0.600056
vt 0.350904 0.514052
vt 0.376091 0.402493
vt 0.252127 0.516530
vt 0.270883 0.418515
vn 0.402861 0.91526 -0.001256000000000056
vn -0.360208 0.932872 -5.712193544070948E-17
vn -0.122806 0.926886 -0.35468400000000005
vn -0.360208 0.932872 -5.712193544070948E-17
vn 0.402861 0.91526 -0.001256000000000056
vn -0.193519 0.966057 0.17112999999999995
vn 0.211012 -0.07306200000000006 -0.974749
vn 0.148152 0.45774299999999996 -0.876654
vn -0.155007 0.0040079999999999396 -0.987905
vn 0.141044 -0.16156600000000004 -0.976731
vn 0.239127 0.539516 -0.807305
vn 0.31962 0.941388 -0.10784800000000005
vn 0.851637 0.518296 -0.07799800000000003
vn 0.549855 0.06755099999999994 -0.832524
vn 0.393001 -0.606951 -0.690769
vn 0.211012 -0.07306200000000006 -0.974749
vn 0.790749 0.419667 -0.44564
vn 0.921819 -0.386562 -0.028638999999999977
vn 0.812853 -0.27740400000000004 -0.512169
vn 0.998931 -0.046226 2.8305261468692776E-18
vn 0.859211 -0.511621 3.13277510013284E-17
vn 0.42149 -0.905973 -0.039471999999999945
vn 0.921819 -0.386562 -0.028638999999999977
vn -0.815778 0.577803 -0.025515000000000034
vn -0.996573 0.078501 -0.026071000000000004
vn -0.941755 0.23362500000000003 0.24190299999999998
vn -0.652235 0.712647 0.2583079999999999
vn -0.809454 0.11416200000000004 0.575978
vn -0.29777 0.823035 0.48367999999999994
vn -0.01638 0.46780800000000006 0.883678
vn -0.476566 0.07863999999999995 -0.875614
vn -0.182357 0.543409 -0.819422
vn 0.001798 0.20476899999999995 -0.978809
vn -0.575331 0.647053 -0.500316
vn -0.863593 0.22387499999999996 -0.45176
vn -0.815778 0.577803 -0.025515000000000034
vn -0.996573 0.078501 -0.026071000000000004
vn -0.385728 0.008615000000000057 0.922572
vn -0.06587 0.662714 0.74597
vn 0.279464 -0.41068099999999996 0.867895
vn 0.318545 -0.3568239999999999 0.878183
vn 0.338095 0.684871 0.645479
vn 0.31962 0.941388 -0.10784800000000005
vn 0.851637 0.518296 -0.07799800000000003
vn 0.814917 -0.040517999999999964 0.578159
vn 0.491411 -0.761402 0.42282600000000004
vn 0.279464 -0.41068099999999996 0.867895
vn 0.886933 0.406033 0.22019699999999998
vn 0.921819 -0.386562 -0.028638999999999977
vn 0.42149 -0.905973 -0.039471999999999945
vn 0.869202 -0.307549 0.387171
vn 0.998931 -0.046226 2.8305261468692776E-18
vn 0.859211 -0.511621 3.13277510013284E-17
vn 0.304122 0.17064599999999994 -0.937225
vn 0.176396 -0.06055800000000006 -0.982455
vn 0.001798 0.20476899999999995 -0.978809
vn 0.465372 0.542975 -0.699005
vn 0.148152 0.45774299999999996 -0.876654
vn 0.211012 -0.07306200000000006 -0.974749
vn 0.366602 0.74568 -0.556385
vn 0.140305 0.46958099999999997 -0.87167
vn -0.182357 0.543409 -0.819422
vn 0.366602 0.74568 -0.556385
vn 0.088061 0.932299 -0.35080400000000006
vn -0.575331 0.647053 -0.500316
vn -0.122806 0.926886 -0.35468400000000005
vn 0.148152 0.45774299999999996 -0.876654
vn 0.402861 0.91526 -0.001256000000000056
vn -0.2342 0.971979 -0.02019400000000006
vn 0.402861 0.91526 -0.001256000000000056
vn -0.815778 0.577803 -0.025515000000000034
vn 0.407438 -0.16140499999999994 0.898856
vn 0.633713 0.3237110000000001 0.70258
vn -0.01638 0.46780800000000006 0.883678
vn 0.596263 0.716189 0.36268999999999996
vn 0.279464 -0.41068099999999996 0.867895
vn -0.06587 0.662714 0.74597
vn 0.410612 0.877603 0.24740999999999994
vn 0.250682 0.793797 0.554117
vn -0.29777 0.823035 0.48367999999999994
vn 0.080305 0.983464 0.16232599999999994
vn 0.410612 0.877603 0.24740999999999994
vn -0.652235 0.712647 0.2583079999999999
vn -0.06587 0.662714 0.74597
vn -0.193519 0.966057 0.17112999999999995
vn 0.402861 0.91526 -0.001256000000000056
vn -0.2342 0.971979 -0.02019400000000006
vn -0.815778 0.577803 -0.025515000000000034
vn 0.021071 -0.73993 -0.672354
vn 0.026449 -0.4526780000000001 -0.891282
vn 0.042533 -0.4812370000000001 -0.875558
vn 0.128142 -0.31864900000000007 -0.939171
vn -0.363867 -0.751762 -0.549959
vn -0.020803 -0.519661 -0.854119
vn -0.363867 -0.751762 -0.549959
vn 0.042533 -0.4812370000000001 -0.875558
vn 0.064891 -0.997506 -0.02775399999999994
vn -0.587815 -0.808859 -0.01487999999999995
vn -0.198996 -0.979854 -0.01694699999999994
vn 0.166017 -0.627811 -0.760455
vn 0.677236 -0.735105 -0.031173999999999955
vn 0.029525 -0.41261400000000004 -0.910428
vn 0.040651 -0.42772800000000005 -0.902993
vn 0.616575 -0.34517300000000006 -0.707595
vn 0.981991 -0.181269 -0.053242999999999985
vn 0.624258 -0.06078500000000005 -0.77885
vn 0.176396 -0.06055800000000006 -0.982455
vn -0.122806 0.926886 -0.35468400000000005
vn -0.360208 0.932872 -5.712193544070948E-17
vn -0.863752 0.503416 -0.02248200000000003
vn -0.482403 0.515115 -0.70848
vn 0.148152 0.45774299999999996 -0.876654
vn -0.155007 0.0040079999999999396 -0.987905
vn -0.178835 0.98077 -0.07815900000000006
vn 0.239127 0.539516 -0.807305
vn 0.31962 0.941388 -0.10784800000000005
vn 0.070657 -0.797189 0.599581
vn 0.060729 -0.924834 0.3754930000000001
vn 0.14246 -0.781426 0.607518
vn 0.282755 -0.641823 0.71282
vn -0.30492 -0.873472 0.37956600000000007
vn 0.013116 -0.844141 0.535961
vn -0.30492 -0.873472 0.37956600000000007
vn 0.14246 -0.781426 0.607518
vn 0.064891 -0.997506 -0.02775399999999994
vn -0.587815 -0.808859 -0.01487999999999995
vn -0.198996 -0.979854 -0.01694699999999994
vn 0.198199 -0.791826 0.577693
vn 0.677236 -0.735105 -0.031173999999999955
vn 0.11435 -0.75431 0.646484
vn 0.138724 -0.756338 0.639303
vn 0.683782 -0.501672 0.529874
vn 0.981991 -0.181269 -0.053242999999999985
vn 0.818257 -0.19560099999999997 0.540551
vn 0.407438 -0.16140499999999994 0.898856
vn -0.193519 0.966057 0.17112999999999995
vn -0.640179 0.612933 0.46312499999999995
vn -0.863752 0.503416 -0.02248200000000003
vn -0.360208 0.932872 -5.712193544070948E-17
vn -0.640179 0.612933 0.46312499999999995
vn -0.06587 0.662714 0.74597
vn -0.385728 0.008615000000000057 0.922572
vn -0.178835 0.98077 -0.07815900000000006
vn 0.338095 0.684871 0.645479
vn 0.31962 0.941388 -0.10784800000000005
vn 0.981991 -0.181269 -0.053242999999999985
vn 0.616575 -0.34517300000000006 -0.707595
vn 0.624258 -0.06078500000000005 -0.77885
vn 0.982101 0.168859 -0.08344900000000001
vn 0.875662 0.481931 -0.03096200000000003
vn 0.921819 -0.386562 -0.028638999999999977
vn 0.790749 0.419667 -0.44564
vn 0.816506 0.33444299999999993 -0.470602
vn 0.176396 -0.06055800000000006 -0.982455
vn 0.304122 0.17064599999999994 -0.937225
vn 0.514444 0.06779299999999995 -0.85484
vn 0.572237 0.45770299999999997 -0.68048
vn 0.465372 0.542975 -0.699005
vn 0.211012 -0.07306200000000006 -0.974749
vn 0.818257 -0.19560099999999997 0.540551
vn 0.683782 -0.501672 0.529874
vn 0.981991 -0.181269 -0.053242999999999985
vn 0.982101 0.168859 -0.08344900000000001
vn 0.875662 0.481931 -0.03096200000000003
vn 0.921819 -0.386562 -0.028638999999999977
vn 0.886933 0.406033 0.22019699999999998
vn 0.903229 0.367318 0.22193499999999997
vn 0.633713 0.3237110000000001 0.70258
vn 0.407438 -0.16140499999999994 0.898856
vn 0.838715 0.06545600000000003 0.540622
vn 0.751205 0.56623 0.33922599999999997
vn 0.596263 0.716189 0.36268999999999996
vn 0.279464 -0.41068099999999996 0.867895
vn -0.905259 -0.421453 -0.053704999999999975
vn -0.650843 -0.758679 -0.028469999999999954
vn -0.610789 -0.561677 -0.558082
vn -0.544259 -0.48449500000000006 -0.68487
vn -0.255396 -0.965357 -0.053463999999999935
vn -0.276114 -0.49450000000000005 -0.824155
vn -0.389435 -0.48413800000000007 -0.78355
vn -0.229522 -0.4872520000000001 -0.842559
vn 0.042533 -0.4812370000000001 -0.875558
vn 0.026449 -0.4526780000000001 -0.891282
vn 0.22881 -0.713894 -0.661816
vn 0.33454 -0.941863 -0.03126799999999994
vn 0.021071 -0.73993 -0.672354
vn 0.064891 -0.997506 -0.02775399999999994
vn -0.739382 -0.594336 0.31635300000000005
vn -0.650843 -0.758679 -0.028469999999999954
vn -0.905259 -0.421453 -0.053704999999999975
vn -0.682962 -0.562528 0.4659670000000001
vn -0.255396 -0.965357 -0.053463999999999935
vn -0.434609 -0.734585 0.521057
vn -0.620636 -0.649572 0.43916700000000003
vn -0.37921 -0.715717 0.586471
vn 0.14246 -0.781426 0.607518
vn 0.070657 -0.797189 0.599581
vn 0.248617 -0.852682 0.45948200000000006
vn 0.33454 -0.941863 -0.03126799999999994
vn 0.060729 -0.924834 0.3754930000000001
vn 0.064891 -0.997506 -0.02775399999999994
vn -0.610789 -0.561677 -0.558082
vn -0.650843 -0.758679 -0.028469999999999954
vn -0.379981 -0.853265 -0.35714499999999993
vn -0.832203 -0.554041 -0.021838999999999966
vn -0.389435 -0.48413800000000007 -0.78355
vn -0.663508 -0.34325300000000003 -0.664782
vn -0.996573 0.078501 -0.026071000000000004
vn -0.863593 0.22387499999999996 -0.45176
vn -0.476566 0.07863999999999995 -0.875614
vn -0.173062 -0.28594500000000006 -0.942489
vn -0.229522 -0.4872520000000001 -0.842559
vn 0.042533 -0.4812370000000001 -0.875558
vn -0.020803 -0.519661 -0.854119
vn -0.164601 -0.34508800000000006 -0.924024
vn 0.001798 0.20476899999999995 -0.978809
vn 0.040651 -0.42772800000000005 -0.902993
vn 0.176396 -0.06055800000000006 -0.982455
vn -0.650843 -0.758679 -0.028469999999999954
vn -0.739382 -0.594336 0.31635300000000005
vn -0.408655 -0.895026 0.17868800000000007
vn -0.832203 -0.554041 -0.021838999999999966
vn -0.620636 -0.649572 0.43916700000000003
vn -0.812589 -0.448203 0.372577
vn -0.996573 0.078501 -0.026071000000000004
vn -0.941755 0.23362500000000003 0.24190299999999998
vn -0.809454 0.11416200000000004 0.575978
vn -0.336884 -0.586921 0.736228
vn -0.37921 -0.715717 0.586471
vn 0.14246 -0.781426 0.607518
vn 0.013116 -0.844141 0.535961
vn -0.311823 -0.624489 0.716086
vn -0.01638 0.46780800000000006 0.883678
vn 0.138724 -0.756338 0.639303
vn 0.407438 -0.16140499999999994 0.898856
g 03
f 1/1/1 2/2/2 3/3/3
f 4/4/4 5/5/5 6/6/6
f 7/7/7 8/8/8 9/9/9
f 9/9/9 10/10/10 7/7/7
f 9/9/9 11/11/11 10/10/10
f 11/11/11 12/12/12 13/13/13
f 11/11/11 14/14/14 10/10/10
f 13/13/13 14/14/14 11/11/11
f 10/10/10 14/14/14 15/15/15
f 15/15/15 16/16/16 10/10/10
f 15/15/15 17/17/17 16/16/16
f 15/15/15 18/18/18 17/17/17
f 14/14/14 13/13/13 19/19/19
f 15/15/15 14/14/14 19/19/19
f 20/20/20 19/19/19 13/13/13
f 21/21/21 19/19/19 20/20/20
f 19/19/19 21/21/21 22/22/22
f 22/22/22 15/15/15 19/19/19
f 22/22/22 23/23/23 15/15/15
f 24/24/24 25/25/25 26/26/26
f 26/26/26 27/27/27 24/24/24
f 28/28/28 27/27/27 26/26/26
f 27/27/27 28/28/28 29/29/29
f 29/29/29 28/28/28 30/30/30
f 31/31/31 32/32/32 33/33/33
f 31/31/31 34/34/34 32/32/32
f 34/34/34 31/31/31 35/35/35
f 36/36/36 34/34/34 35/35/35
f 35/35/35 37/37/37 36/36/36
f 38/38/38 39/39/39 40/40/40
f 40/40/40 41/41/41 38/38/38
f 42/42/42 38/38/38 41/41/41
f 43/43/43 42/42/42 44/44/44
f 45/45/45 42/42/42 41/41/41
f 45/45/45 44/44/44 42/42/42
f 45/45/45 41/41/41 46/46/46
f 47/47/47 46/46/46 41/41/41
f 48/48/48 46/46/46 47/47/47
f 49/49/49 46/46/46 48/48/48
f 49/49/49 50/50/50 46/46/46
f 44/44/44 45/45/45 51/51/51
f 45/45/45 46/46/46 51/51/51
f 51/51/51 46/46/46 50/50/50
f 51/51/51 52/52/52 44/44/44
f 50/50/50 53/53/53 51/51/51
f 51/51/51 53/53/53 52/52/52
f 54/54/54 55/55/55 56/56/56
f 57/57/57 54/54/54 56/56/56
f 58/58/58 59/59/59 57/57/57
f 57/57/57 60/60/60 58/58/58
f 61/61/61 57/57/57 56/56/56
f 60/60/60 57/57/57 61/61/61
f 56/56/56 62/62/62 61/61/61
f 60/60/60 61/61/61 62/62/62
f 63/63/63 62/62/62 64/64/64
f 65/65/65 64/64/64 62/62/62
f 66/66/66 67/67/67 63/63/63
f 64/64/64 66/66/66 63/63/63
f 68/68/68 66/66/66 64/64/64
f 65/65/65 69/69/69 64/64/64
f 64/64/64 69/69/69 70/70/70
f 71/71/71 69/69/69 65/65/65
f 72/72/72 73/73/73 74/74/74
f 73/73/73 75/75/75 74/74/74
f 76/76/76 77/77/77 75/75/75
f 78/78/78 75/75/75 77/77/77
f 75/75/75 79/79/79 74/74/74
f 75/75/75 78/78/78 79/79/79
f 80/80/80 74/74/74 79/79/79
f 79/79/79 78/78/78 80/80/80
f 81/81/81 80/80/80 82/82/82
f 81/81/81 83/83/83 80/80/80
f 84/84/84 85/85/85 82/82/82
f 82/82/82 85/85/85 81/81/81
f 81/81/81 85/85/85 86/86/86
f 86/86/86 87/87/87 81/81/81
f 87/87/87 83/83/83 81/81/81
f 87/87/87 88/88/88 83/83/83
f 89/89/89 90/90/90 91/91/91
f 91/91/91 92/92/92 93/93/93
f 92/92/92 91/91/91 94/94/94
f 95/95/95 89/89/89 96/96/96
f 95/95/95 97/97/97 89/89/89
f 98/98/98 97/97/97 95/95/95
f 98/98/98 95/95/95 99/99/99
f 95/95/95 100/100/100 99/99/99
f 95/95/95 92/92/92 100/100/100
f 101/101/101 99/99/99 100/100/100
f 102/102/102 92/92/92 94/94/94
f 92/92/92 102/102/102 100/100/100
f 94/94/94 103/103/103 102/102/102
f 100/100/100 104/104/104 101/101/101
f 104/104/104 100/100/100 102/102/102
f 101/101/101 104/104/104 105/105/105
f 106/106/106 104/104/104 102/102/102
f 103/103/103 106/106/106 102/102/102
f 106/106/106 103/103/103 107/107/107
f 108/108/108 109/109/109 110/110/110
f 110/110/110 111/111/111 108/108/108
f 112/112/112 108/108/108 111/111/111
f 111/111/111 113/113/113 112/112/112
f 114/114/114 111/111/111 110/110/110
f 111/111/111 115/115/115 113/113/113
f 115/115/115 111/111/111 114/114/114
f 114/114/114 116/116/116 115/115/115
f 117/117/117 118/118/118 119/119/119
f 120/120/120 119/119/119 121/121/121
f 119/119/119 120/120/120 122/122/122
f 118/118/118 123/123/123 124/124/124
f 125/125/125 123/123/123 118/118/118
f 125/125/125 126/126/126 123/123/123
f 123/123/123 126/126/126 127/127/127
f 128/128/128 123/123/123 127/127/127
f 120/120/120 123/123/123 128/128/128
f 128/128/128 127/127/127 129/129/129
f 122/122/122 120/120/120 130/130/130
f 130/130/130 120/120/120 128/128/128
f 130/130/130 131/131/131 122/122/122
f 129/129/129 132/132/132 128/128/128
f 128/128/128 132/132/132 130/130/130
f 132/132/132 129/129/129 133/133/133
f 132/132/132 134/134/134 130/130/130
f 134/134/134 131/131/131 130/130/130
f 131/131/131 134/134/134 135/135/135
f 136/136/136 137/137/137 138/138/138
f 138/138/138 139/139/139 136/136/136
f 140/140/140 136/136/136 141/141/141
f 141/141/141 142/142/142 140/140/140
f 140/140/140 143/143/143 138/138/138
f 144/144/144 140/140/140 142/142/142
f 143/143/143 140/140/140 144/144/144
f 144/144/144 145/145/145 143/143/143
f 146/146/146 147/147/147 148/148/148
f 148/148/148 149/149/149 146/146/146
f 150/150/150 149/149/149 148/148/148
f 151/151/151 150/150/150 152/152/152
f 148/148/148 153/153/153 150/150/150
f 152/152/152 150/150/150 153/153/153
f 154/154/154 155/155/155 148/148/148
f 148/148/148 156/156/156 153/153/153
f 156/156/156 148/148/148 155/155/155
f 157/157/157 153/153/153 156/156/156
f 156/156/156 155/155/155 157/157/157
f 152/152/152 153/153/153 157/157/157
f 157/157/157 155/155/155 158/158/158
f 152/152/152 157/157/157 158/158/158
f 158/158/158 159/159/159 152/152/152
f 160/160/160 161/161/161 162/162/162
f 162/162/162 163/163/163 160/160/160
f 160/160/160 163/163/163 164/164/164
f 164/164/164 165/165/165 166/166/166
f 164/164/164 167/167/167 160/160/160
f 164/164/164 166/166/166 167/167/167
f 168/168/168 169/169/169 160/160/160
f 170/170/170 160/160/160 167/167/167
f 160/160/160 170/170/170 168/168/168
f 170/170/170 167/167/167 171/171/171
f 171/171/171 168/168/168 170/170/170
f 167/167/167 166/166/166 171/171/171
f 168/168/168 171/171/171 172/172/172
f 172/172/172 171/171/171 166/166/166
f 166/166/166 173/173/173 172/172/172
f 174/174/174 175/175/175 176/176/176
f 176/176/176 177/177/177 174/174/174
f 178/178/178 174/174/174 177/177/177
f 177/177/177 176/176/176 179/179/179
f 179/179/179 176/176/176 180/180/180
f 181/181/181 179/179/179 180/180/180
f 179/179/179 181/181/181 182/182/182
f 182/182/182 183/183/183 179/179/179
f 177/177/177 184/184/184 178/178/178
f 184/184/184 177/177/177 179/179/179
f 179/179/179 183/183/183 184/184/184
f 185/185/185 178/178/178 184/184/184
f 184/184/184 183/183/183 186/186/186
f 187/187/187 185/185/185 184/184/184
f 186/186/186 187/187/187 184/184/184
f 188/188/188 189/189/189 190/190/190
f 190/190/190 191/191/191 188/188/188
f 191/191/191 190/190/190 192/192/192
f 188/188/188 191/191/191 193/193/193
f 188/188/188 193/193/193 194/194/194
f 193/193/193 195/195/195 194/194/194
f 196/196/196 195/195/195 193/193/193
f 193/193/193 197/197/197 196/196/196
f 192/192/192 198/198/198 191/191/191
f 191/191/191 198/198/198 193/193/193
f 197/197/197 193/193/193 198/198/198
f 192/192/192 199/199/199 198/198/198
f 197/197/197 198/198/198 200/200/200
f 199/199/199 201/201/201 198/198/198
f 201/201/201 200/200/200 198/198/198
f 202/202/202 203/203/203 204/204/204
f 204/204/204 203/203/203 205/205/205
f 202/202/202 204/204/204 206/206/206
f 205/205/205 207/207/207 204/204/204
f 207/207/207 206/206/206 204/204/204
f 207/207/207 205/205/205 208/208/208
f 208/208/208 209/209/209 207/207/207
f 207/207/207 209/209/209 210/210/210
f 206/206/206 207/207/207 211/211/211
f 206/206/206 211/211/211 212/212/212
f 213/213/213 212/212/212 211/211/211
f 211/211/211 214/214/214 213/213/213
f 215/215/215 207/207/207 210/210/210
f 211/211/211 207/207/207 215/215/215
f 214/214/214 211/211/211 215/215/215
f 216/216/216 215/215/215 210/210/210
f 215/215/215 217/217/217 214/214/214
f 215/215/215 216/216/216 218/218/218
f 218/218/218 217/217/217 215/215/215
f 219/219/219 220/220/220 221/221/221
f 222/222/222 219/219/219 221/221/221
f 221/221/221 220/220/220 223/223/223
f 221/221/221 224/224/224 222/222/222
f 223/223/223 224/224/224 221/221/221
f 225/225/225 222/222/222 224/224/224
f 224/224/224 226/226/226 225/225/225
f 226/226/226 224/224/224 227/227/227
f 224/224/224 223/223/223 228/228/228
f 228/228/228 223/223/223 229/229/229
f 228/228/228 229/229/229 230/230/230
f 230/230/230 231/231/231 228/228/228
f 224/224/224 232/232/232 227/227/227
f 224/224/224 228/228/228 232/232/232
f 232/232/232 228/228/228 231/231/231
f 232/232/232 233/233/233 227/227/227
f 231/231/231 234/234/234 232/232/232
f 233/233/233 232/232/232 235/235/235
f 234/234/234 235/235/235 232/232/232
