v 0.622166 -1.251064 0.015625000000000076
v 1.01773 -1.070276 0.015625000000000066
v -0.180394 -1.070937 0.015625000000000066
v 1.111269 -0.87754 0.015625000000000052
v -0.476573 -0.780614 0.01562500000000005
v 1.214613 -0.34139 0.01562500000000002
v 1.073677 0.097934 0.015624999999999995
v -0.754952 1.036988 0.015624999999999936
v 0.866096 0.503684 0.015624999999999969
v 0.717225 0.763722 0.015624999999999953
v 0.549047 0.972469 0.015624999999999941
v 0.394923 1.138668 0.01562499999999993
v 0.187068 1.222923 0.015624999999999925
v -0.180024 1.242996 0.015624999999999924
v -0.455381 1.191603 0.015624999999999927
v -1.071313 0.704673 0.015624999999999957
v -1.166633 0.265817 0.015624999999999984
v -0.624744 -0.76055 0.015625000000000045
v -0.922712 -0.7226 0.015625000000000045
v -1.119185 -0.439148 0.015625000000000028
vt 0.733908 0.060758
vt 0.873117 0.127810
vt 0.451464 0.127566
vt 0.906036 0.199294
vt 0.347231 0.235243
vt 0.948463 0.396789
vt 0.892807 0.561088
vt 0.267936 0.886069
vt 0.819753 0.711577
vt 0.767361 0.808022
vt 0.708175 0.885445
vt 0.654622 0.935148
vt 0.584393 0.980132
vt 0.451595 0.985780
vt 0.354689 0.966719
vt 0.175437 0.748419
vt 0.119730 0.621372
vt 0.295085 0.242685
vt 0.190222 0.256760
vt 0.092939 0.356796
vn 0 6.123233995736766E-17 1
vn 0 6.123233995736766E-17 1
vn 0 6.123233995736766E-17 1
vn 0 6.123233995736766E-17 1
vn 0 6.123233995736766E-17 1
vn 0 6.123233995736766E-17 1
vn 0 6.123233995736766E-17 1
vn 0 6.123233995736766E-17 1
vn 0 6.123233995736766E-17 1
vn 0 6.123233995736766E-17 1
vn 0 6.123233995736766E-17 1
vn 0 6.123233995736766E-17 1
vn 0 6.123233995736766E-17 1
vn 0 6.123233995736766E-17 1
vn 0 6.123233995736766E-17 1
vn 0 6.123233995736766E-17 1
vn 0 6.123233995736766E-17 1
vn 0 6.123233995736766E-17 1
vn 0 6.123233995736766E-17 1
vn 0 6.123233995736766E-17 1
g Material #306
f 1/1/1 2/2/2 3/3/3
f 2/2/2 4/4/4 3/3/3
f 4/4/4 5/5/5 3/3/3
f 4/4/4 6/6/6 5/5/5
f 6/6/6 7/7/7 5/5/5
f 7/7/7 8/8/8 5/5/5
f 7/7/7 9/9/9 8/8/8
f 9/9/9 10/10/10 8/8/8
f 10/10/10 11/11/11 8/8/8
f 11/11/11 12/12/12 8/8/8
f 12/12/12 13/13/13 8/8/8
f 13/13/13 14/14/14 8/8/8
f 14/14/14 15/15/15 8/8/8
f 8/8/8 16/16/16 5/5/5
f 16/16/16 17/17/17 5/5/5
f 17/17/17 18/18/18 5/5/5
f 17/17/17 19/19/19 18/18/18
f 17/17/17 20/20/20 19/19/19
