v 0.018338479999999997 0.24317592000000002 0.6703664
v 0.00021402 0.7094008599999999 0.5472393
v 0.75753978 0.73467654 0.5472393
v 0.7756626 0.26845078 0.6703664
v 0.75753896 0.73467654 0.4535395399999999
v 0.00021319999999999998 0.7094008599999999 0.4535395399999999
v 0.01833684 0.24317592000000002 0.57666664
v 0.7756626 0.26845078 0.57666664
v -0.7233154399999999 -0.42065754 0.45651778
v -0.7218623999999999 0.27402514000000006 0.45651778
v -0.4604874 0.27281072 0.7310956
v -0.46193961999999994 -0.42186785999999993 0.7310956
v -0.19911404 0.27160204000000004 0.45651778
v -0.20056543999999998 -0.42308145999999996 0.45651778
v -0.7233154399999999 -0.42065754 0.34847212000000005
v -0.7218623999999999 0.27402514 0.34847212
v -0.19911404 0.27160204 0.34847212
v -0.20056543999999998 -0.42308145999999996 0.34847212000000005
v -0.4604874 0.27281072 0.6230499399999999
v -0.46193961999999994 -0.42186785999999993 0.6230499399999999
v 0.00021402 0.7094008599999999 0.5472393
v 0.75753978 0.73467654 0.5472393
v 0.018338479999999997 0.24317592000000002 0.6703664
v 0.00021319999999999998 0.7094008599999999 0.4535395399999999
v 0.00021402 0.7094008599999999 0.5472393
v 0.7756626 0.26845078 0.6703664
v 0.75753978 0.73467654 0.5472393
v 0.75753896 0.73467654 0.4535395399999999
v 0.01833684 0.24317592000000002 0.57666664
v 0.018338479999999997 0.24317592000000002 0.6703664
v 0.7756626 0.26845078 0.6703664
v 0.7756626 0.26845078 0.57666664
v -0.46193961999999994 -0.42186785999999993 0.7310956
v -0.4604874 0.27281072 0.7310956
v -0.7218623999999999 0.27402514000000006 0.45651778
v -0.7233154399999999 -0.42065754 0.45651778
v -0.20056543999999998 -0.42308145999999996 0.45651778
v -0.19911404 0.27160204000000004 0.45651778
v -0.7218623999999999 0.27402514 0.34847212
v -0.4604874 0.27281072 0.7310956
v -0.7218623999999999 0.27402514000000006 0.45651778
v -0.20056543999999998 -0.42308145999999996 0.34847212000000005
v -0.46193961999999994 -0.42186785999999993 0.7310956
v -0.20056543999999998 -0.42308145999999996 0.45651778
v -0.46193961999999994 -0.42186785999999993 0.6230499399999999
v -0.7233154399999999 -0.42065754 0.34847212000000005
v -0.7233154399999999 -0.42065754 0.45651778
v -0.46193961999999994 -0.42186785999999993 0.7310956
v -0.4604874 0.27281072 0.6230499399999999
v -0.19911404 0.27160204 0.34847212
v -0.19911404 0.27160204000000004 0.45651778
v -0.4604874 0.27281072 0.7310956
vt 0.790428 0.165688
vt 0.876330 0.165688
vt 0.876330 0.029573
vt 0.790428 0.029573
vt 0.896453 0.029573
vt 0.896453 0.165688
vt 0.790428 0.192235
vt 0.790428 0.004012
vt 0.479793 0.349429
vt 0.479793 0.231003
vt 0.380986 0.231003
vt 0.380986 0.349429
vt 0.277589 0.231003
vt 0.277589 0.349429
vt 0.507526 0.349429
vt 0.507526 0.231003
vt 0.250541 0.231003
vt 0.250541 0.349429
vt 0.380986 0.197698
vt 0.376921 0.382900
vt 0.881076 0.165688
vt 0.881076 0.029573
vt 0.790428 0.170329
vt 0.876330 0.192235
vt 0.876330 0.170329
vt 0.790428 0.025655
vt 0.876330 0.025655
vt 0.876330 0.004012
vt 0.768393 0.165688
vt 0.785317 0.165688
vt 0.785317 0.029573
vt 0.768393 0.029573
vt 0.376921 0.349429
vt 0.376921 0.231003
vt 0.484427 0.231003
vt 0.484427 0.349429
vt 0.273592 0.349429
vt 0.273592 0.231003
vt 0.479793 0.197698
vt 0.380986 0.226401
vt 0.479793 0.226401
vt 0.277589 0.382900
vt 0.376921 0.354081
vt 0.277589 0.354081
vt 0.380986 0.382900
vt 0.479793 0.382900
vt 0.479793 0.354081
vt 0.380986 0.354081
vt 0.376921 0.197698
vt 0.277589 0.197698
vt 0.277589 0.226401
vt 0.376921 0.226401
vn -0.008511 0.25502100000000005 0.966898
vn -0.008511 0.25502100000000005 0.966898
vn -0.008511 0.25502100000000005 0.966898
vn -0.008511 0.25502100000000005 0.966898
vn -0.033356 0.999444 -6.119829477635136E-17
vn -0.033356 0.999444 -6.119829477635136E-17
vn -0.999246 -0.038838 1.700000000000238E-05
vn 0.999245 0.038841 -8.000000000002378E-06
vn -0.724302 0.0015140000000000422 0.689481
vn -0.724303 0.0015150000000000424 0.68948
vn -0.724302 0.0015140000000000422 0.689481
vn -0.724301 0.0015140000000000422 0.689482
vn 0.724304 -0.0015129999999999577 0.689479
vn 0.724303 -0.0015129999999999577 0.68948
vn -0.999998 0.002092 -1.2809805519081316E-19
vn -0.999998 0.002092 -1.2809805519081316E-19
vn 0.999998 -0.002089 1.2791435817094106E-19
vn 0.999998 -0.002089 1.2791435817094106E-19
vn 0.004646 0.999989 -6.123166640162813E-17
vn -0.004643 -0.999989 6.123166640162813E-17
vn -0.033356 0.999444 -6.119829477635136E-17
vn -0.033356 0.999444 -6.119829477635136E-17
vn -0.999246 -0.038838 1.700000000000238E-05
vn -0.999246 -0.038838 1.700000000000238E-05
vn -0.999245 -0.038842 8.000000000002378E-06
vn 0.999245 0.038841 -8.000000000002378E-06
vn 0.999245 0.038841 -8.000000000002378E-06
vn 0.999245 0.038841 -8.000000000002378E-06
vn 0.033356 -0.999444 -9.999999999388016E-07
vn 0.033356 -0.999444 -9.999999999388016E-07
vn 0.033356 -0.999444 -9.999999999388016E-07
vn 0.033356 -0.999444 6.119829477635136E-17
vn 0.724304 -0.0015129999999999577 0.689479
vn 0.724305 -0.0015139999999999577 0.689479
vn -0.999998 0.002092 -1.2809805519081316E-19
vn -0.999998 0.002092 -1.2809805519081316E-19
vn 0.999998 -0.002089 1.2791435817094106E-19
vn 0.999998 -0.002089 1.2791435817094106E-19
vn 0.004646 0.999989 -6.123166640162813E-17
vn 0.004646 0.999989 -6.123166640162813E-17
vn 0.004646 0.999989 -6.123166640162813E-17
vn -0.004643 -0.999989 6.123166640162813E-17
vn -0.004643 -0.999989 6.123166640162813E-17
vn -0.004643 -0.999989 6.123166640162813E-17
vn -0.004631 -0.999989 6.123166640162813E-17
vn -0.004631 -0.999989 6.123166640162813E-17
vn -0.004631 -0.999989 6.123166640162813E-17
vn -0.004631 -0.999989 6.123166640162813E-17
vn 0.004625 0.999989 -6.123166640162813E-17
vn 0.004625 0.999989 -6.123166640162813E-17
vn 0.004625 0.999989 -6.123166640162813E-17
vn 0.004625 0.999989 -6.123166640162813E-17
g Standard_9
f 49/49/49 52/52/52 51/51/51
f 51/51/51 50/50/50 49/49/49
f 45/45/45 48/48/48 47/47/47
f 47/47/47 46/46/46 45/45/45
f 42/42/42 44/44/44 43/43/43
f 43/43/43 20/20/20 42/42/42
f 39/39/39 41/41/41 40/40/40
f 40/40/40 19/19/19 39/39/39
f 18/18/18 17/17/17 38/38/38
f 38/38/38 37/37/37 18/18/18
f 16/16/16 15/15/15 36/36/36
f 36/36/36 35/35/35 16/16/16
f 33/33/33 14/14/14 13/13/13
f 13/13/13 34/34/34 33/33/33
f 11/11/11 10/10/10 9/9/9
f 9/9/9 12/12/12 11/11/11
f 29/29/29 32/32/32 31/31/31
f 31/31/31 30/30/30 29/29/29
f 8/8/8 28/28/28 27/27/27
f 27/27/27 26/26/26 8/8/8
f 23/23/23 25/25/25 24/24/24
f 24/24/24 7/7/7 23/23/23
f 21/21/21 22/22/22 5/5/5
f 5/5/5 6/6/6 21/21/21
f 3/3/3 2/2/2 1/1/1
f 1/1/1 4/4/4 3/3/3
