v -0.126448 -0.194165 -0.02565099999999999
v -0.126448 -0.18344499999999994 0.981178
v -0.097973 -0.19988399999999995 0.981353
v -0.097973 -0.210605 -0.025475999999999985
v 0.269548 0.23651 0.0007549999999999855
v 0.262251 0.24436300000000005 0.724653
v 0.294301 0.25170300000000007 0.724778
v 0.301598 0.24385 0.000880999999999985
v -0.076256 0.521245 -0.010829000000000031
v -0.082685 0.512667 0.814271
v -0.095613 0.542899 0.814415
v -0.089184 0.551477 -0.010686000000000032
v -0.475642 0.280694 0.0007369999999999828
v -0.465673 0.28463600000000006 0.825838
v -0.470488 0.25211100000000003 0.825981
v -0.480457 0.248168 0.0008809999999999848
v -0.021142 -0.605445 0.000881000000000037
v -0.021142 -0.605445 0.10408900000000004
v -0.083671 -0.363955 0.15149300000000002
v -0.083671 -0.363955 0.0038990000000000222
v 0.447138 -0.484192 0.0008810000000000295
v 0.447138 -0.484192 0.10408900000000003
v -0.021142 -0.605445 0.10408900000000004
v -0.021142 -0.605445 0.000881000000000037
v 0.384608 -0.242702 0.003899000000000015
v 0.384608 -0.242702 0.15149300000000002
v 0.447138 -0.484192 0.10408900000000003
v 0.447138 -0.484192 0.0008810000000000295
v -0.083671 -0.363955 0.15149300000000002
v -0.021142 -0.605445 0.10408900000000004
v 0.447138 -0.484192 0.10408900000000003
v 0.384608 -0.242702 0.15149300000000002
v 0.156047 -0.21384299999999998 0.311184
v 0.156047 -0.22461499999999998 0.393604
v -0.022729 -0.23883599999999996 0.391745
v -0.022729 -0.22806399999999996 0.309325
v 0.141016 0.05242100000000002 0.345983
v 0.141016 0.041649000000000026 0.428404
v 0.156047 -0.22461499999999998 0.393604
v 0.156047 -0.21384299999999998 0.311184
v -0.03776 0.03820100000000002 0.344125
v -0.03776 0.027429000000000026 0.426545
v 0.141016 0.041649000000000026 0.428404
v 0.141016 0.05242100000000002 0.345983
v -0.022729 -0.22806399999999996 0.309325
v -0.022729 -0.23883599999999996 0.391745
v -0.03776 0.027429000000000026 0.426545
v -0.03776 0.03820100000000002 0.344125
v -0.022729 -0.23883599999999996 0.391745
v 0.156047 -0.22461499999999998 0.393604
v 0.141016 0.041649000000000026 0.428404
v -0.03776 0.027429000000000026 0.426545
v 0.190905 -0.14270299999999997 0.322949
v 0.190905 -0.15347499999999997 0.40537
v 0.240525 0.05344200000000003 0.432413
v 0.240525 0.06421400000000002 0.349993
v 0.452736 -0.20443699999999998 0.314881
v 0.452736 -0.21520899999999998 0.397301
v 0.190905 -0.15347499999999997 0.40537
v 0.190905 -0.14270299999999997 0.322949
v 0.502356 0.002480000000000021 0.341924
v 0.502356 -0.008291999999999975 0.424345
v 0.452736 -0.21520899999999998 0.397301
v 0.452736 -0.20443699999999998 0.314881
v 0.240525 0.06421400000000002 0.349993
v 0.240525 0.05344200000000003 0.432413
v 0.502356 -0.008291999999999975 0.424345
v 0.502356 0.002480000000000021 0.341924
v 0.240525 0.05344200000000003 0.432413
v 0.190905 -0.15347499999999997 0.40537
v 0.452736 -0.21520899999999998 0.397301
v 0.502356 -0.008291999999999975 0.424345
v -0.243456 -0.396053 0.0008810000000000242
v -0.240591 -0.383503 0.299842
v -0.28277 -0.349867 0.299842
v -0.294368 -0.290333 0.0008810000000000177
v -0.28277 -0.295918 0.299842
v -0.240591 -0.262282 0.299842
v -0.243456 -0.249732 0.0008810000000000152
v -0.187996 -0.274287 0.299842
v -0.151716 -0.322893 0.0008810000000000197
v -0.164588 -0.322893 0.299842
v -0.187996 -0.371498 0.299842
v -0.243456 -0.396053 0.0008810000000000242
v -0.240591 -0.383503 0.299842
v -0.126448 -0.18344499999999994 0.981178
v -0.126448 -0.194165 -0.02565099999999999
v -0.126448 -0.227044 -0.025300999999999987
v -0.126448 -0.21632399999999993 0.981528
v -0.097973 -0.210605 -0.025475999999999985
v -0.097973 -0.19988399999999995 0.981353
v 0.262251 0.24436300000000005 0.724653
v 0.269548 0.23651 0.0007549999999999855
v 0.291928 0.212424 0.001006999999999987
v 0.284631 0.22027700000000006 0.724904
v 0.301598 0.24385 0.000880999999999985
v 0.294301 0.25170300000000007 0.724778
v -0.082685 0.512667 0.814271
v -0.076256 0.521245 -0.010829000000000031
v -0.056539 0.547555 -0.010542000000000032
v -0.062968 0.538977 0.814558
v -0.089184 0.551477 -0.010686000000000032
v -0.095613 0.542899 0.814415
v -0.465673 0.28463600000000006 0.825838
v -0.475642 0.280694 0.0007369999999999828
v -0.506217 0.268602 0.0010239999999999835
v -0.496248 0.27254400000000006 0.826125
v -0.480457 0.248168 0.0008809999999999848
v -0.470488 0.25211100000000003 0.825981
v -0.175126 0.07201600000000001 0.275447
v -0.180463 -0.03640699999999999 0.275447
v -0.152666 -0.04405999999999999 0.275447
v -0.122917 0.08079600000000002 0.275447
v -0.179265 0.18518100000000004 0.275447
v -0.153864 0.19222700000000004 0.275447
v -0.207191 -0.08678399999999999 0.275447
v -0.299528 -0.14386199999999996 0.275447
v -0.290071 -0.17109799999999997 0.275447
v -0.170357 -0.12481199999999999 0.275447
v -0.11632 -0.01921099999999998 0.275447
v -0.096115 -0.036139999999999985 0.275447
v -0.240591 -0.262282 0.299842
v -0.28277 -0.295918 0.299842
v -0.28277 -0.349867 0.299842
v -0.187996 -0.274287 0.299842
v -0.187996 -0.371498 0.299842
v -0.240591 -0.383503 0.299842
v -0.164588 -0.322893 0.299842
v -0.502777 0.018741000000000018 0.269199
v -0.49721 0.017931 0.0008809999999999989
v -0.428368 -0.10962 0.0008810000000000067
v -0.43234 -0.11176399999999999 0.269199
v -0.361904 -0.24226899999999998 0.269199
v -0.359526 -0.237171 0.0008810000000000145
v -0.154211 0.203054 0.0008809999999999875
v -0.151833 0.20815200000000003 0.269199
v -0.081397 0.07764700000000001 0.269199
v -0.085369 0.075503 0.0008809999999999953
v -0.016527 -0.052048 0.0008810000000000031
v -0.01096 -0.05285799999999999 0.269199
v -0.32571 0.110492 0.0008809999999999932
v -0.49721 0.017931 0.0008809999999999989
v -0.502777 0.018741000000000018 0.269199
v -0.327305 0.11344700000000002 0.269199
v -0.151833 0.20815200000000003 0.269199
v -0.154211 0.203054 0.0008809999999999875
v -0.361904 -0.24226899999999998 0.269199
v -0.359526 -0.237171 0.0008810000000000145
v -0.188027 -0.14461 0.0008810000000000088
v -0.186432 -0.14756399999999997 0.269199
v -0.01096 -0.05285799999999999 0.269199
v -0.016527 -0.052048 0.0008810000000000031
v -0.012604 0.14560200000000004 0.357199
v -0.026945 0.157503 0.0008809999999999903
v -0.026945 -0.0239 0.0008810000000000014
v -0.012604 -0.02389999999999998 0.336695
v -0.012604 -0.19340299999999996 0.316191
v -0.026945 -0.205304 0.0008810000000000125
v 0.46087 0.157503 0.0008809999999999903
v 0.44653 0.14560200000000004 0.357199
v 0.44653 -0.02389999999999998 0.336695
v 0.46087 -0.0239 0.0008810000000000014
v 0.46087 -0.205304 0.0008810000000000125
v 0.44653 -0.19340299999999996 0.316191
v 0.216963 0.157503 0.0008809999999999903
v -0.026945 0.157503 0.0008809999999999903
v -0.012604 0.14560200000000004 0.357199
v 0.216963 0.14560200000000004 0.357199
v 0.44653 0.14560200000000004 0.357199
v 0.46087 0.157503 0.0008809999999999903
v -0.012604 -0.19340299999999996 0.316191
v -0.026945 -0.205304 0.0008810000000000125
v 0.216963 -0.205304 0.0008810000000000125
v 0.216963 -0.19340299999999996 0.316191
v 0.44653 -0.19340299999999996 0.316191
v 0.46087 -0.205304 0.0008810000000000125
v 0.185128 0.37033400000000005 0.631688
v -0.086915 0.559273 0.849785
v 0.299515 0.29597900000000005 0.749379
v 0.283685 0.08987900000000004 0.720782
v 0.307188 0.19968500000000003 0.631671
v -0.255918 0.37883000000000006 0.75966
v -0.166055 0.48213000000000006 0.673
v -0.383867 0.33369100000000007 0.669369
v -0.496668 0.27606800000000004 0.848077
v -0.375255 0.16056400000000007 0.824993
v 0.004495 -0.12729799999999994 0.872393
v -0.289792 0.046373000000000046 0.743522
v -0.225742 -0.08470799999999995 0.88926
v -0.119048 -0.19667099999999996 1.005045
v -0.138854 -0.28225799999999995 0.944457
v -0.327305 0.11344700000000002 0.269199
v -0.502777 0.018741000000000018 0.269199
v -0.43234 -0.11176399999999999 0.269199
v -0.361904 -0.24226899999999998 0.269199
v -0.186432 -0.14756399999999997 0.269199
v -0.256869 -0.017058999999999984 0.269199
v -0.151833 0.20815200000000003 0.269199
v -0.01096 -0.05285799999999999 0.269199
v -0.081397 0.07764700000000001 0.269199
v 0.216963 0.14560200000000004 0.357199
v -0.012604 0.14560200000000004 0.357199
v -0.012604 -0.02389999999999998 0.336695
v -0.012604 -0.19340299999999996 0.316191
v 0.216963 -0.19340299999999996 0.316191
v 0.216963 -0.02389999999999998 0.336695
v 0.44653 0.14560200000000004 0.357199
v 0.44653 -0.19340299999999996 0.316191
v 0.44653 -0.02389999999999998 0.336695
v -0.44791 -0.019436999999999982 0.275439
v -0.4116 -0.055747999999999985 0.275439
v -0.462951 -0.01943699999999998 0.31175
v -0.4116 0.016874000000000017 0.275439
v -0.4116 -0.07078799999999999 0.31175
v -0.375289 -0.019436999999999982 0.275439
v -0.375289 0.01687400000000002 0.31175
v -0.4116 -0.01943699999999998 0.363101
v -0.360249 -0.01943699999999998 0.31175
v -0.348459 -0.12804799999999997 0.275439
v -0.38477 -0.16435799999999998 0.275439
v -0.39981 -0.16435799999999998 0.31175
v -0.348459 -0.20066899999999996 0.275439
v -0.312148 -0.12804799999999997 0.31175
v -0.312148 -0.16435799999999998 0.275439
v -0.348459 -0.21570899999999998 0.31175
v -0.312148 -0.20066899999999996 0.31175
v -0.348459 -0.16435799999999998 0.363101
v -0.234289 0.025720000000000017 0.280994
v -0.234289 0.08949100000000001 0.280994
v -0.202403 0.057605000000000024 0.326087
v -0.266175 0.12137700000000001 0.326087
v -0.311268 0.05760500000000002 0.280994
v -0.266175 -0.00616599999999998 0.326087
v -0.266175 0.057605000000000024 0.389858
v -0.329946 0.057605000000000024 0.326087
v -0.3299 -0.032461999999999984 0.280994
v -0.3299 -0.09623399999999999 0.280994
v -0.343108 -0.01925499999999998 0.326087
v -0.252921 -0.01925499999999998 0.326087
v -0.266129 -0.032461999999999984 0.280994
v -0.343108 -0.10944099999999998 0.326087
v -0.266129 -0.09623399999999999 0.280994
v -0.298015 -0.06434799999999997 0.389858
v -0.252921 -0.10944099999999998 0.326087
vt 0.169785 0.704638
vt 0.487875 0.704638
vt 0.487903 0.725464
vt 0.328694 0.724322
vt 0.169785 0.704638
vt 0.487875 0.704638
vt 0.487903 0.725464
vt 0.328694 0.724322
vt 0.169785 0.704638
vt 0.487875 0.704638
vt 0.487903 0.725464
vt 0.328694 0.724322
vt 0.169785 0.704638
vt 0.487875 0.704638
vt 0.487903 0.725464
vt 0.328694 0.724322
vt 0.011382 0.646150
vt 0.102474 0.645729
vt 0.144997 0.793431
vt 0.014729 0.794034
vt 0.157997 0.794746
vt 0.157997 0.723542
vt 0.490814 0.723542
vt 0.490814 0.794746
vt 0.014729 0.794034
vt 0.144997 0.793431
vt 0.102474 0.645729
vt 0.011382 0.646150
vt 0.295883 0.810451
vt 0.295883 0.990148
vt 0.006399 0.990148
vt 0.006399 0.810451
vt 0.015823 0.630427
vt 0.015823 0.556055
vt 0.227105 0.556055
vt 0.227105 0.630427
vt 0.015275 0.629774
vt 0.015275 0.557459
vt 0.227049 0.557459
vt 0.227049 0.629774
vt 0.227105 0.630427
vt 0.227105 0.556055
vt 0.015823 0.556055
vt 0.015823 0.630427
vt 0.018521 0.627608
vt 0.018521 0.559796
vt 0.225090 0.559796
vt 0.225090 0.627608
vt 0.243817 0.676253
vt 0.243817 0.564330
vt 0.485167 0.564330
vt 0.485167 0.676253
vt 0.015823 0.630427
vt 0.015823 0.556055
vt 0.227105 0.556055
vt 0.227105 0.630427
vt 0.015275 0.629774
vt 0.015275 0.557459
vt 0.227049 0.557459
vt 0.227049 0.629774
vt 0.227105 0.630427
vt 0.227105 0.556055
vt 0.015823 0.556055
vt 0.015823 0.630427
vt 0.018521 0.627608
vt 0.018521 0.559796
vt 0.225090 0.559796
vt 0.225090 0.627608
vt 0.015578 0.534826
vt 0.015578 0.422298
vt 0.259075 0.422298
vt 0.259075 0.534826
vt 0.465358 0.369644
vt 0.559212 0.371975
vt 0.559212 0.393902
vt 0.465358 0.414903
vt 0.559212 0.415644
vt 0.559212 0.437570
vt 0.465358 0.437490
vt 0.559212 0.461054
vt 0.464430 0.485197
vt 0.559212 0.487609
vt 0.559212 0.514164
vt 0.463224 0.534825
vt 0.559212 0.537648
vt 0.484347 0.759611
vt 0.165832 0.759611
vt 0.166033 0.747296
vt 0.484548 0.747296
vt 0.314569 0.734735
vt 0.484403 0.734726
vt 0.484347 0.759611
vt 0.165832 0.759611
vt 0.166033 0.747296
vt 0.484548 0.747296
vt 0.314569 0.734735
vt 0.484403 0.734726
vt 0.484347 0.759611
vt 0.165832 0.759611
vt 0.166033 0.747296
vt 0.484548 0.747296
vt 0.314569 0.734735
vt 0.484403 0.734726
vt 0.484347 0.759611
vt 0.165832 0.759611
vt 0.166033 0.747296
vt 0.484548 0.747296
vt 0.314569 0.734735
vt 0.484403 0.734726
vt 0.361415 0.442753
vt 0.291855 0.443429
vt 0.292817 0.431359
vt 0.362165 0.429626
vt 0.445241 0.454468
vt 0.445335 0.429394
vt 0.361415 0.442753
vt 0.291855 0.443429
vt 0.292817 0.431359
vt 0.362165 0.429626
vt 0.445241 0.454468
vt 0.445335 0.429394
vt 0.184224 0.681576
vt 0.172087 0.671262
vt 0.172087 0.654719
vt 0.199359 0.677895
vt 0.199359 0.648086
vt 0.184224 0.644405
vt 0.206095 0.662990
vt 0.309142 0.814708
vt 0.309142 0.993889
vt 0.442613 0.993889
vt 0.442613 0.814708
vt 0.309142 0.814708
vt 0.309142 0.993889
vt 0.309142 0.993889
vt 0.309142 0.814708
vt 0.442613 0.814708
vt 0.442613 0.993889
vt 0.309142 0.993889
vt 0.309142 0.814708
vt 0.485468 0.992018
vt 0.312883 0.992018
vt 0.312883 0.816579
vt 0.485468 0.816579
vt 0.312883 0.816579
vt 0.312883 0.992018
vt 0.312883 0.816579
vt 0.312883 0.992018
vt 0.485468 0.992018
vt 0.485468 0.816579
vt 0.312883 0.816579
vt 0.312883 0.992018
vt 0.309142 0.814708
vt 0.309142 0.993889
vt 0.442613 0.993889
vt 0.442613 0.814708
vt 0.309142 0.814708
vt 0.309142 0.993889
vt 0.309142 0.993889
vt 0.309142 0.814708
vt 0.442613 0.814708
vt 0.442613 0.993889
vt 0.309142 0.993889
vt 0.309142 0.814708
vt 0.485468 0.992018
vt 0.312883 0.992018
vt 0.312883 0.816579
vt 0.485468 0.816579
vt 0.312883 0.816579
vt 0.312883 0.992018
vt 0.312883 0.816579
vt 0.312883 0.992018
vt 0.485468 0.992018
vt 0.485468 0.816579
vt 0.312883 0.816579
vt 0.312883 0.992018
vt 0.390148 0.182641
vt 0.340362 0.357137
vt 0.386321 0.099629
vt 0.315183 0.012708
vt 0.387466 0.017087
vt 0.190322 0.344721
vt 0.264455 0.392720
vt 0.120318 0.393760
vt 0.054106 0.351196
vt 0.060744 0.294383
vt 0.120474 0.020974
vt 0.021051 0.211180
vt 0.037951 0.126924
vt 0.043278 0.041655
vt 0.007982 0.007982
vt 0.326415 0.772032
vt 0.161179 0.772032
vt 0.161179 0.732319
vt 0.161179 0.692606
vt 0.326415 0.692606
vt 0.326415 0.732319
vt 0.491651 0.772032
vt 0.491651 0.692606
vt 0.491651 0.732319
vt 0.327909 0.769233
vt 0.163238 0.769233
vt 0.163238 0.730920
vt 0.163238 0.692606
vt 0.327909 0.692606
vt 0.327909 0.730920
vt 0.492579 0.769233
vt 0.492579 0.692606
vt 0.492579 0.730920
vt 0.285462 0.502460
vt 0.324702 0.463781
vt 0.297410 0.502553
vt 0.324495 0.541975
vt 0.324469 0.475159
vt 0.363529 0.502460
vt 0.343603 0.521923
vt 0.313684 0.512920
vt 0.351529 0.502553
vt 0.412951 0.543692
vt 0.373917 0.504177
vt 0.385865 0.504270
vt 0.413157 0.465499
vt 0.432058 0.523641
vt 0.451984 0.504177
vt 0.412924 0.476877
vt 0.432058 0.484900
vt 0.402139 0.514637
vt 0.436496 0.476005
vt 0.437116 0.531260
vt 0.436549 0.503412
vt 0.409489 0.530805
vt 0.370482 0.503318
vt 0.409489 0.476018
vt 0.398704 0.513779
vt 0.382430 0.503412
vt 0.296895 0.530401
vt 0.296895 0.474518
vt 0.305335 0.521923
vt 0.343603 0.521923
vt 0.352096 0.530401
vt 0.305335 0.483183
vt 0.351476 0.475146
vt 0.339386 0.502853
vt 0.343603 0.483183
vn -0.047548 0.998812 -0.010635000000000061
vn -0.887156 0.461443 -0.0049130000000000285
vn 0.866026 0.499972 -0.00532300000000003
vn 0.866026 -0.499971 0.00532300000000003
vn -0.701143 0.712867 -0.014801000000000043
vn -0.968342 -0.249527 -0.007053999999999985
vn 0.344728 0.938679 -0.006708000000000058
vn 0.984483 0.175298 0.00802199999999999
vn -0.609734 -0.792499 -0.012989999999999951
vn 0.381244 -0.924451 -0.006640999999999944
vn -0.99732 0.072825 -0.007014000000000005
vn -0.439327 0.898308 0.005915999999999946
vn 0.946579 0.322211 -0.012976000000000019
vn 0.198592 0.980057 -0.00708200000000006
vn 0.804926 -0.593336 -0.006889999999999964
vn -0.109037 -0.994019 0.006067000000000061
vn -0.968074 -0.250666 1.534886572775352E-17
vn -0.968074 -0.250666 1.534886572775352E-17
vn -0.968074 -0.250666 1.534886572775352E-17
vn -0.968074 -0.250666 1.534886572775352E-17
vn 0.250666 -0.968074 5.927743627188874E-17
vn 0.250666 -0.968074 5.927743627188874E-17
vn 0.250666 -0.968074 5.927743627188874E-17
vn 0.250666 -0.968074 5.927743627188874E-17
vn 0.968074 0.250666 -1.534886572775352E-17
vn 0.968074 0.250666 -1.534886572775352E-17
vn 0.968074 0.250666 -1.534886572775352E-17
vn 0.968074 0.250666 -1.534886572775352E-17
vn 0.046797 -0.18072799999999994 0.982419
vn 0.046797 -0.18072799999999994 0.982419
vn 0.046797 -0.18072799999999994 0.982419
vn 0.046797 -0.18072799999999994 0.982419
vn 0.079963 -0.988392 -0.12917899999999993
vn 0.079963 -0.988392 -0.12917899999999993
vn 0.079963 -0.988392 -0.12917899999999993
vn 0.079963 -0.988392 -0.12917899999999993
vn 0.998437 0.055418 0.007242999999999997
vn 0.998437 0.055418 0.007242999999999997
vn 0.998437 0.055418 0.007242999999999997
vn 0.998437 0.055418 0.007242999999999997
vn -0.079963 0.988392 0.12917899999999993
vn -0.079963 0.988392 0.12917899999999993
vn -0.079963 0.988392 0.12917899999999993
vn -0.079963 0.988392 0.12917899999999993
vn -0.998437 -0.055418 -0.007242999999999997
vn -0.998437 -0.055418 -0.007242999999999997
vn -0.998437 -0.055418 -0.007242999999999997
vn -0.998437 -0.055418 -0.007242999999999997
vn -0 -0.12959399999999993 0.991567
vn -0 -0.12959399999999993 0.991567
vn -0 -0.12959399999999993 0.991567
vn -0 -0.12959399999999993 0.991567
vn -0.972875 0.229382 0.029978999999999985
vn -0.972875 0.229382 0.029978999999999985
vn -0.972875 0.229382 0.029978999999999985
vn -0.972875 0.229382 0.029978999999999985
vn -0.231333 -0.96467 -0.12607899999999994
vn -0.231333 -0.96467 -0.12607899999999994
vn -0.231333 -0.96467 -0.12607899999999994
vn -0.231333 -0.964671 -0.12607899999999994
vn 0.972875 -0.229382 -0.029978999999999985
vn 0.972875 -0.229382 -0.029978999999999985
vn 0.972875 -0.229382 -0.029978999999999985
vn 0.972875 -0.229382 -0.029978999999999985
vn 0.231333 0.96467 0.12607899999999994
vn 0.231333 0.96467 0.12607899999999994
vn 0.231333 0.96467 0.12607899999999994
vn 0.231333 0.96467 0.12607899999999994
vn -0 -0.12959399999999993 0.991567
vn -0 -0.12959399999999993 0.991567
vn -0 -0.12959399999999993 0.991567
vn -0 -0.12959399999999993 0.991567
vn -0.238294 -0.971147 -0.00946299999999994
vn -0.193422 -0.817518 0.54245
vn -0.507116 -0.23794399999999993 0.828381
vn -0.946304 0.322722 0.01896499999999998
vn -0.77265 0.35721700000000006 0.524793
vn -0.29273 0.711357 0.638968
vn 0.085456 0.996293 0.00989999999999994
vn 0.415493 0.508391 0.754257
vn 0.999976 -4.2531983334387575E-19 -0.006946
vn 0.853605 3.189715053059197E-17 0.52092
vn 0.415493 -0.508391 0.754257
vn -0.238294 -0.971147 -0.00946299999999994
vn -0.193422 -0.817518 0.54245
vn -0.887156 0.461443 -0.0049130000000000285
vn -0.047548 0.998812 -0.010635000000000061
vn -0.887156 -0.461443 0.0049130000000000285
vn -0.047548 -0.998812 0.010635000000000061
vn 0.866026 -0.499971 0.00532300000000003
vn 0.866026 0.499972 -0.00532300000000003
vn -0.968342 -0.249527 -0.007053999999999985
vn -0.701143 0.712867 -0.014801000000000043
vn -0.27117 -0.962501 0.0077080000000000586
vn 0.697248 -0.716678 0.014803000000000044
vn 0.984483 0.175298 0.00802199999999999
vn 0.344728 0.938679 -0.006708000000000058
vn 0.381244 -0.924451 -0.006640999999999944
vn -0.609734 -0.792499 -0.012989999999999951
vn 0.988091 -0.15375 0.00610000000000001
vn 0.628876 0.777397 0.012982999999999953
vn -0.439327 0.898308 0.005915999999999946
vn -0.99732 0.072825 -0.007014000000000005
vn 0.198592 0.980057 -0.00708200000000006
vn 0.946579 0.322211 -0.012976000000000019
vn -0.792264 0.610142 0.006656999999999962
vn -0.924596 -0.380729 0.012990000000000022
vn -0.109037 -0.994019 0.006067000000000061
vn 0.804926 -0.593336 -0.006889999999999964
vn 0 6.123233995736766E-17 1
vn 0 6.123233995736766E-17 1
vn 0 6.123233995736766E-17 1
vn 0 6.123233995736766E-17 1
vn 0 6.123233995736766E-17 1
vn 0 6.123233995736766E-17 1
vn 0 6.123233995736766E-17 1
vn 0 6.123233995736766E-17 1
vn 0 6.123233995736766E-17 1
vn 0 6.123233995736766E-17 1
vn 0 6.123233995736766E-17 1
vn 0 6.123233995736766E-17 1
vn -0.29273 0.711357 0.638968
vn -0.77265 0.35721700000000006 0.524793
vn -0.507116 -0.23794399999999993 0.828381
vn 0.415493 0.508391 0.754257
vn 0.415493 -0.508391 0.754257
vn -0.193422 -0.817518 0.54245
vn 0.853605 3.189715053059197E-17 0.52092
vn -0.879884 -0.474891 -0.016819999999999974
vn -0.879884 -0.474891 -0.016819999999999974
vn -0.879884 -0.474891 -0.016819999999999974
vn -0.879884 -0.474891 -0.016819999999999974
vn -0.879884 -0.474891 -0.016819999999999974
vn -0.879884 -0.474891 -0.016819999999999974
vn 0.879884 0.474891 -0.01682000000000003
vn 0.879884 0.474891 -0.01682000000000003
vn 0.879884 0.474891 -0.01682000000000003
vn 0.879884 0.474891 -0.01682000000000003
vn 0.879884 0.474891 -0.01682000000000003
vn 0.879884 0.474891 -0.01682000000000003
vn -0.474921 0.879939 -0.012510000000000054
vn -0.474921 0.879939 -0.012510000000000054
vn -0.474921 0.879939 -0.012510000000000054
vn -0.474921 0.879939 -0.012510000000000054
vn -0.474921 0.879939 -0.012510000000000054
vn -0.474921 0.879939 -0.012510000000000054
vn 0.474921 -0.87994 -0.012509999999999947
vn 0.474921 -0.879939 -0.012509999999999947
vn 0.474921 -0.879939 -0.012509999999999947
vn 0.474921 -0.87994 -0.012509999999999947
vn 0.474921 -0.87994 -0.012509999999999947
vn 0.474921 -0.879939 -0.012509999999999947
vn -0.999138 -0.0025799999999999972 0.041439
vn -0.999191 2.462397319045583E-18 0.040214
vn -0.999083 -0.0025799999999999972 0.042744
vn -0.999076 -0.005160999999999997 0.042664
vn -0.999026 -0.0025799999999999972 0.044049
vn -0.998967 2.781968901283085E-18 0.045433
vn 0.999141 -0.0024219999999999975 0.041358
vn 0.999186 -0.004844999999999998 0.040052
vn 0.999082 -0.0025909999999999974 0.042756
vn 0.999089 2.6124777842810914E-18 0.042665
vn 0.999021 -0.0027599999999999973 0.044153
vn 0.998943 -0.005520999999999997 0.045641
vn 0 0.999443 0.03338199999999994
vn 0 0.999443 0.03338199999999994
vn 0 0.999443 0.03338199999999994
vn 0 0.999443 0.03338199999999994
vn 0 0.999443 0.03338199999999994
vn 0 0.999443 0.03338199999999994
vn 0 -0.999289 0.03771700000000006
vn 0 -0.999289 0.03771700000000006
vn 0 -0.999289 0.03771700000000006
vn 0 -0.999289 0.03771700000000006
vn 0 -0.999289 0.03771700000000006
vn 0 -0.999289 0.03771700000000006
vn 0.559381 0.828666 -0.020136000000000053
vn -0.164924 0.731981 0.661063
vn 0.587439 0.05368900000000005 0.807486
vn 0.407127 0.10547900000000006 0.90726
vn 0.985217 -0.09541399999999998 0.14228
vn -0.232747 0.41272900000000007 0.880616
vn -0.647275 0.734393 0.20420999999999995
vn -0.459286 0.860441 0.22067699999999996
vn -0.031871 0.693739 0.719521
vn -0.008389 0.13686400000000007 0.990554
vn 0.380489 0.3022850000000001 0.873986
vn -0.833707 -0.539307 -0.11866499999999998
vn -0.559986 0.14242300000000005 0.816169
vn 0.066379 0.03888200000000006 0.997037
vn -0.06252 -0.566979 0.821356
vn -0 6.123233995736766E-17 1
vn 0 6.123233995736766E-17 1
vn -0 6.123233995736766E-17 1
vn -0 6.123233995736766E-17 1
vn -0 6.123233995736766E-17 1
vn -0 6.123233995736766E-17 1
vn 0 6.123233995736766E-17 1
vn 0 6.123233995736766E-17 1
vn 0 6.123233995736766E-17 1
vn -0 -0.12008999999999995 0.992763
vn 0 -0.12009099999999995 0.992763
vn -0 -0.12008999999999995 0.992763
vn 0 -0.12008999999999995 0.992763
vn -0 -0.12008999999999995 0.992763
vn 0 -0.12008999999999995 0.992763
vn 0 -0.12008999999999995 0.992763
vn 0 -0.12008999999999995 0.992763
vn 0 -0.12008999999999995 0.992763
vn -0.92388 -2.3432575551905327E-17 -0.382683
vn -0.29432 -0.882958 -0.3657329999999999
vn -0.983955 0.12267900000000001 0.129547
vn -0.199492 0.951352 -0.23480200000000007
vn 0.206053 -0.973491 0.09928000000000005
vn 0.874931 -0.12390200000000003 -0.468129
vn 0.450132 0.88275 0.13466099999999995
vn 0.159623 -0.01720399999999994 0.987028
vn 0.956103 -0.200367 0.213822
vn -0.199492 0.951352 -0.23480300000000007
vn -0.92388 -2.3432575551905327E-17 -0.382683
vn -0.983955 0.12267900000000001 0.129547
vn -0.13334 -0.872971 -0.46919299999999997
vn 0.604408 0.759482 0.24057899999999993
vn 0.884763 -2.853684217841154E-17 -0.466042
vn -0.217386 -0.951571 0.21738600000000005
vn 0.825965 -0.55593 0.09339600000000003
vn 0.091318 -0.18746699999999994 0.978017
vn 0.561614 -0.605971 -0.563373
vn 0.561614 0.60597 -0.563373
vn 0.98684 9.901146906426437E-18 0.161698
vn -0.078635 0.994795 0.06480799999999995
vn -0.707107 -4.329781621023438E-17 -0.707107
vn -0.078636 -0.994795 0.06480700000000006
vn -0 6.123233995736766E-17 1
vn -0.972259 1.432261171006804E-17 0.233906
vn -0.447911 0.814093 -0.36963300000000004
vn -0.848824 -0.385691 -0.361581
vn -0.855 0.510226 0.09297599999999998
vn 0.575267 0.811242 0.10466199999999995
vn 0.848824 0.38569 -0.361581
vn -0.575267 -0.811242 0.10466200000000006
vn 0.447911 -0.814093 -0.36963299999999993
vn -0 6.123233995736766E-17 1
vn 0.855 -0.510227 0.09297500000000003
g 01
f 1/1/1 2/2/2 3/3/3
f 3/3/3 4/4/4 1/1/1
f 5/5/5 6/6/6 7/7/7
f 7/7/7 8/8/8 5/5/5
f 9/9/9 10/10/10 11/11/11
f 11/11/11 12/12/12 9/9/9
f 13/13/13 14/14/14 15/15/15
f 15/15/15 16/16/16 13/13/13
f 17/17/17 18/18/18 19/19/19
f 19/19/19 20/20/20 17/17/17
f 21/21/21 22/22/22 23/23/23
f 23/23/23 24/24/24 21/21/21
f 25/25/25 26/26/26 27/27/27
f 27/27/27 28/28/28 25/25/25
f 29/29/29 30/30/30 31/31/31
f 31/31/31 32/32/32 29/29/29
f 33/33/33 34/34/34 35/35/35
f 35/35/35 36/36/36 33/33/33
f 37/37/37 38/38/38 39/39/39
f 39/39/39 40/40/40 37/37/37
f 41/41/41 42/42/42 43/43/43
f 43/43/43 44/44/44 41/41/41
f 45/45/45 46/46/46 47/47/47
f 47/47/47 48/48/48 45/45/45
f 49/49/49 50/50/50 51/51/51
f 51/51/51 52/52/52 49/49/49
f 53/53/53 54/54/54 55/55/55
f 55/55/55 56/56/56 53/53/53
f 57/57/57 58/58/58 59/59/59
f 59/59/59 60/60/60 57/57/57
f 61/61/61 62/62/62 63/63/63
f 63/63/63 64/64/64 61/61/61
f 65/65/65 66/66/66 67/67/67
f 67/67/67 68/68/68 65/65/65
f 69/69/69 70/70/70 71/71/71
f 71/71/71 72/72/72 69/69/69
f 73/73/73 74/74/74 75/75/75
f 75/75/75 76/76/76 73/73/73
f 76/76/76 75/75/75 77/77/77
f 76/76/76 77/77/77 78/78/78
f 78/78/78 79/79/79 76/76/76
f 79/79/79 78/78/78 80/80/80
f 80/80/80 81/81/81 79/79/79
f 81/81/81 80/80/80 82/82/82
f 81/81/81 82/82/82 83/83/83
f 83/83/83 84/84/84 81/81/81
f 84/84/84 83/83/83 85/85/85
f 86/86/86 87/87/87 88/88/88
f 88/88/88 89/89/89 86/86/86
f 89/89/89 88/88/88 90/90/90
f 90/90/90 91/91/91 89/89/89
f 92/92/92 93/93/93 94/94/94
f 94/94/94 95/95/95 92/92/92
f 95/95/95 94/94/94 96/96/96
f 96/96/96 97/97/97 95/95/95
f 98/98/98 99/99/99 100/100/100
f 100/100/100 101/101/101 98/98/98
f 101/101/101 100/100/100 102/102/102
f 102/102/102 103/103/103 101/101/101
f 104/104/104 105/105/105 106/106/106
f 106/106/106 107/107/107 104/104/104
f 107/107/107 106/106/106 108/108/108
f 108/108/108 109/109/109 107/107/107
f 110/110/110 111/111/111 112/112/112
f 112/112/112 113/113/113 110/110/110
f 114/114/114 110/110/110 113/113/113
f 113/113/113 115/115/115 114/114/114
f 116/116/116 117/117/117 118/118/118
f 118/118/118 119/119/119 116/116/116
f 120/120/120 116/116/116 119/119/119
f 119/119/119 121/121/121 120/120/120
f 122/122/122 123/123/123 124/124/124
f 125/125/125 122/122/122 124/124/124
f 126/126/126 125/125/125 124/124/124
f 127/127/127 126/126/126 124/124/124
f 126/126/126 128/128/128 125/125/125
f 129/129/129 130/130/130 131/131/131
f 131/131/131 132/132/132 129/129/129
f 133/133/133 132/132/132 131/131/131
f 131/131/131 134/134/134 133/133/133
f 135/135/135 136/136/136 137/137/137
f 137/137/137 138/138/138 135/135/135
f 139/139/139 138/138/138 137/137/137
f 137/137/137 140/140/140 139/139/139
f 141/141/141 142/142/142 143/143/143
f 143/143/143 144/144/144 141/141/141
f 141/141/141 144/144/144 145/145/145
f 145/145/145 146/146/146 141/141/141
f 147/147/147 148/148/148 149/149/149
f 149/149/149 150/150/150 147/147/147
f 151/151/151 150/150/150 149/149/149
f 149/149/149 152/152/152 151/151/151
f 153/153/153 154/154/154 155/155/155
f 155/155/155 156/156/156 153/153/153
f 157/157/157 156/156/156 155/155/155
f 155/155/155 158/158/158 157/157/157
f 159/159/159 160/160/160 161/161/161
f 161/161/161 162/162/162 159/159/159
f 163/163/163 162/162/162 161/161/161
f 161/161/161 164/164/164 163/163/163
f 165/165/165 166/166/166 167/167/167
f 167/167/167 168/168/168 165/165/165
f 165/165/165 168/168/168 169/169/169
f 169/169/169 170/170/170 165/165/165
f 171/171/171 172/172/172 173/173/173
f 173/173/173 174/174/174 171/171/171
f 175/175/175 174/174/174 173/173/173
f 173/173/173 176/176/176 175/175/175
f 177/177/177 178/178/178 179/179/179
f 180/180/180 181/181/181 179/179/179
f 179/179/179 178/178/178 182/182/182
f 179/179/179 182/182/182 180/180/180
f 178/178/178 183/183/183 182/182/182
f 182/182/182 183/183/183 184/184/184
f 184/184/184 185/185/185 182/182/182
f 186/186/186 182/182/182 185/185/185
f 182/182/182 186/186/186 180/180/180
f 186/186/186 187/187/187 180/180/180
f 188/188/188 189/189/189 186/186/186
f 186/186/186 189/189/189 187/187/187
f 187/187/187 189/189/189 190/190/190
f 189/189/189 191/191/191 190/190/190
f 191/191/191 187/187/187 190/190/190
f 192/192/192 193/193/193 194/194/194
f 194/194/194 195/195/195 196/196/196
f 194/194/194 197/197/197 192/192/192
f 196/196/196 197/197/197 194/194/194
f 198/198/198 192/192/192 197/197/197
f 197/197/197 196/196/196 199/199/199
f 197/197/197 200/200/200 198/198/198
f 199/199/199 200/200/200 197/197/197
f 201/201/201 202/202/202 203/203/203
f 203/203/203 204/204/204 205/205/205
f 203/203/203 206/206/206 201/201/201
f 205/205/205 206/206/206 203/203/203
f 207/207/207 201/201/201 206/206/206
f 206/206/206 205/205/205 208/208/208
f 206/206/206 209/209/209 207/207/207
f 208/208/208 209/209/209 206/206/206
f 210/210/210 211/211/211 212/212/212
f 213/213/213 210/210/210 212/212/212
f 214/214/214 212/212/212 211/211/211
f 211/211/211 215/215/215 214/214/214
f 212/212/212 216/216/216 213/213/213
f 215/215/215 213/213/213 216/216/216
f 217/217/217 212/212/212 214/214/214
f 216/216/216 212/212/212 217/217/217
f 218/218/218 214/214/214 215/215/215
f 214/214/214 218/218/218 217/217/217
f 216/216/216 218/218/218 215/215/215
f 218/218/218 216/216/216 217/217/217
f 219/219/219 220/220/220 221/221/221
f 220/220/220 222/222/222 221/221/221
f 221/221/221 223/223/223 219/219/219
f 224/224/224 219/219/219 223/223/223
f 225/225/225 221/221/221 222/222/222
f 222/222/222 224/224/224 226/226/226
f 226/226/226 225/225/225 222/222/222
f 223/223/223 226/226/226 224/224/224
f 227/227/227 221/221/221 225/225/225
f 225/225/225 226/226/226 227/227/227
f 223/223/223 221/221/221 227/227/227
f 226/226/226 223/223/223 227/227/227
f 228/228/228 229/229/229 230/230/230
f 231/231/231 230/230/230 229/229/229
f 229/229/229 232/232/232 231/231/231
f 230/230/230 233/233/233 228/228/228
f 232/232/232 228/228/228 233/233/233
f 230/230/230 231/231/231 234/234/234
f 233/233/233 230/230/230 234/234/234
f 235/235/235 231/231/231 232/232/232
f 234/234/234 231/231/231 235/235/235
f 233/233/233 235/235/235 232/232/232
f 234/234/234 235/235/235 233/233/233
f 236/236/236 237/237/237 238/238/238
f 238/238/238 239/239/239 236/236/236
f 240/240/240 236/236/236 239/239/239
f 241/241/241 238/238/238 237/237/237
f 237/237/237 242/242/242 241/241/241
f 243/243/243 239/239/239 238/238/238
f 243/243/243 238/238/238 241/241/241
f 239/239/239 244/244/244 240/240/240
f 243/243/243 244/244/244 239/239/239
f 242/242/242 240/240/240 244/244/244
f 241/241/241 244/244/244 243/243/243
f 244/244/244 241/241/241 242/242/242
