v 0.721898 0.6822 -0.19304100000000005
v 0.721898 1.99641 -0.1930410000000001
v 1.186681 1.99641 -0.1930410000000001
v 1.186681 0.6822 -0.19304100000000005
v -0.99838 1.703864 -1.010199
v -1.070368 1.266289 -0.6674600000000002
v -0.508003 1.844426 -1.0101990000000003
v -0.85889 0.746547 -0.25360900000000003
v -1.080891 1.093827 -1.017876
v -0.99838 1.703864 -0.8412780000000001
v -0.940742 0.28657 0.03928399999999998
v -1.393604 0.8863199999999999 -1.089643
v -0.85188 1.195062 -1.089643
v -1.29457 0.784727 0.04052699999999995
v -0.857721 1.007595 0.04052699999999994
v -0.166826 0.9693369999999999 -1.089643
v 1.523847 0.7921249999999999 -1.089193
v -0.166826 0.867745 0.040526999999999945
v -1.29457 0.281493 0.04052699999999999
v -1.29457 -2.007906 0.040527000000000125
v 1.43964 -2.007906 0.040527000000000125
v 1.138793 0.7925109999999999 -1.089643
v 0.751217 0.7913109999999999 -1.089643
v -1.393604 0.28149299999999994 -1.089643
v -0.851881 0.281493 0.04052699999999999
v 1.185308 1.945989 0.1809219999999999
v 1.200307 1.900993 0.1809219999999999
v 1.185308 1.945989 -1.0886830000000003
v 1.200307 1.900993 -1.0886830000000003
v 0.750751 0.698766 -0.15249500000000005
v 1.14141 0.699647 -0.15249500000000005
v -0.85188 1.195062 -1.089643
v 0.69047 1.852111 0.05203799999999989
v 0.705469 1.897108 0.05203799999999988
v 0.69047 1.852111 -1.0886830000000003
v 0.705469 1.897108 -1.0886830000000003
v 0.075489 1.23498 -0.6674600000000002
v -0.033358 1.599725 -1.010199
v -0.508003 0.812545 -0.20658400000000005
v 0.198803 0.8154079999999999 -1.017876
v -0.510555 0.054599 -0.007667000000000004
v -0.157116 0.724827 -0.30095200000000005
v -0.033358 1.599725 -0.8412780000000001
v -0.075265 0.274116 0.020256999999999983
v -0.503586 0.28657 0.06036299999999998
v 1.191597 1.454304 0.4744569999999999
v 1.206596 1.409308 0.4744569999999999
v 1.191597 1.454304 -1.088683
v 1.206596 1.409308 -1.088683
v 0.696324 1.242702 0.07553299999999993
v 0.711323 1.287699 -1.088683
v 1.192983 0.851096 0.32634699999999994
v 1.207982 0.806099 0.32634699999999994
v 1.192983 0.8510959999999999 -1.088683
v 1.207982 0.8060999999999999 -1.088683
v 0.710992 0.949692 0.21918899999999994
v 0.695992 0.9046949999999999 -1.088683
v 0.710992 0.9496919999999999 -1.088683
v -1.324846 0.37452100000000005 0.614313
v -1.324846 0.3315890000000001 0.614313
v -1.346312 0.35305500000000006 0.614313
v -1.324846 0.374521 0.10480799999999997
v -1.324846 0.331589 0.10480799999999998
v -1.346312 0.353055 0.10480799999999997
v -0.507625 1.322569 -0.6101460000000001
v -0.484687 1.844426 -0.8519870000000002
v 1.430781 -1.542763 0.036784000000000094
v -1.291522 -0.426847 0.03031800000000003
v -1.292439 -1.345652 0.030318000000000084
v -1.291522 -0.4268469999999999 0.506749
v -1.292439 -1.345652 0.5067490000000001
v 1.430333 0.648531 0.510914
v 1.430333 0.648531 0.04063799999999996
v 1.430333 -0.501766 0.04063800000000003
v 1.430333 -0.501766 0.510914
v 1.451098 -0.3924659999999999 0.506749
v 1.430781 -0.392466 0.03678400000000002
v 1.451098 -1.542763 0.5067490000000001
v -1.291522 -0.426847 0.03031800000000003
v -1.291522 -0.4268469999999999 0.506749
v -1.292439 -1.345652 0.5067490000000001
v -1.292439 -1.345652 0.030318000000000084
v 0.705469 1.897108 0.05203799999999988
v 0.69047 1.852111 -1.0886830000000003
v 0.69047 1.852111 -1.0886830000000003
v 0.705469 1.897108 0.05203799999999988
v 0.711323 1.287699 0.07553299999999992
v 0.696324 1.242702 -1.088683
v 0.69047 1.852111 0.05203799999999989
v 0.705469 1.897108 -1.0886830000000003
v 0.695992 0.904695 0.21918899999999994
v -1.29457 0.784727 0.04052699999999995
v -0.857721 1.007595 0.04052699999999994
v -0.851881 0.281493 0.04052699999999999
v -0.166826 0.281493 0.04052699999999999
v 0.750751 0.682327 0.04052699999999996
v 1.14141 0.505122 0.04052699999999997
v 1.161568 0.665924 0.02040599999999996
v 0.750751 0.464636 0.04052699999999997
v -1.29457 -0.136451 -0.0076669999999999915
v -0.857721 1.007595 0.04052699999999994
v 1.43964 0.700883 0.04052699999999996
v 1.524201 0.28149299999999994 -1.089643
v 1.43964 -0.136451 -0.0076669999999999915
v 1.43964 0.281493 0.04052699999999999
v 0.711323 1.287699 0.07553299999999992
v 0.696324 1.242702 -1.088683
v 0.696324 1.242702 -1.088683
v 0.711323 1.287699 0.07553299999999992
v 0.710992 0.949692 0.21918899999999994
v 0.695992 0.9046949999999999 -1.088683
v 0.695992 0.9046949999999999 -1.088683
v 0.710992 0.949692 0.21918899999999994
v 1.430333 -0.501766 0.510914
v 1.430333 0.648531 0.04063799999999996
v 1.430333 0.648531 0.04063799999999996
v 1.430333 -0.501766 0.510914
v 1.451098 -1.542763 0.5067490000000001
v 1.430781 -0.392466 0.03678400000000002
v 1.430781 -0.392466 0.03678400000000002
v 1.451098 -1.542763 0.5067490000000001
v 0.696324 1.242702 0.07553299999999993
v 0.711323 1.287699 -1.088683
v 0.710992 0.9496919999999999 -1.088683
v 1.430781 -1.542763 0.036784000000000094
v 1.430333 0.648531 0.510914
v 1.430333 -0.501766 0.04063800000000003
v 1.451098 -0.3924659999999999 0.506749
v 0.695992 0.904695 0.21918899999999994
v 1.468481 0.736886 0.10702999999999996
v 1.314638 0.736886 0.10702999999999996
v 1.344302 0.7917609999999999 -1.087842
v 1.523492 0.7920039999999999 -1.088743
v 1.468481 0.580361 0.10702999999999996
v 1.522782 0.6112069999999998 -1.087842
v 1.314638 0.580361 0.10702999999999996
v 1.344302 0.6112069999999998 -1.087842
v 1.344302 0.25611999999999996 -1.087842
v 1.522782 0.25611999999999996 -1.087842
v 1.50751 0.247708 0.10702999999999999
v 1.359574 0.247708 0.10702999999999999
v 1.522782 0.07556599999999992 -1.087842
v 1.50751 0.077524 0.10703
v 1.344302 0.07556599999999992 -1.087842
v 1.359574 0.077524 0.10703
v -0.227018 0.7946409999999999 -1.087842
v -0.227018 0.9731199999999999 -1.087842
v -0.188223 0.903421 0.07919399999999994
v -0.188223 0.755486 0.07919399999999996
v -0.046464 0.9731199999999999 -1.087842
v -0.030984 0.903421 0.07919399999999994
v -0.046465 0.7946409999999999 -1.087842
v -0.030984 0.755486 0.07919399999999996
v -0.96662 1.222291 -1.087842
v -0.788141 1.222291 -1.087842
v -0.803413 1.045014 0.10702999999999993
v -0.951348 1.045014 0.10702999999999993
v -0.788141 1.041737 -1.087842
v -0.803413 0.895359 0.10702999999999994
v -0.96662 1.041737 -1.087842
v -0.951348 0.895359 0.10702999999999994
v -1.427721 0.7220109999999998 -1.087842
v -1.427721 0.9348459999999998 -1.087842
v -1.348027 0.874582 0.10702999999999994
v -1.348027 0.701396 0.10703099999999996
v -1.247166 0.9348459999999998 -1.087842
v -1.198372 0.874582 0.10702999999999994
v -1.247167 0.7220109999999998 -1.087842
v -1.198372 0.701396 0.10703099999999996
v -1.413625 0.2595259999999999 -1.087842
v -1.413625 0.44646899999999995 -1.087842
v -1.372461 0.431197 0.10702999999999997
v -1.372461 0.253232 0.10703099999999999
v -1.233071 0.44646899999999995 -1.087842
v -1.24852 0.431197 0.10702999999999997
v -1.233071 0.2595259999999999 -1.087842
v -1.24852 0.253232 0.10703099999999999
v 0.072535 -2.007906 0.040527000000000125
v 1.43964 -2.0073 -0.007666999999999877
v 1.43964 -2.0073 -1.0840319999999999
v 0.074108 -2.007706 -1.1008949999999997
v 0.072535 -2.0073 -0.007666999999999877
v -1.29457 -2.0073 -1.0840319999999999
v -1.29457 -2.0073 -0.007666999999999877
v 1.186681 1.99641 -0.1930410000000001
v 0.721898 1.99641 -0.1930410000000001
v 0.721898 0.6822 -0.19304100000000005
v 1.186681 0.6822 -0.19304100000000005
v -1.393604 0.8863199999999999 -1.089643
v -1.29457 0.784727 0.04052699999999995
v -0.166826 0.9693369999999999 -1.089643
v -0.166826 0.281493 0.04052699999999999
v -0.166826 0.867745 0.040526999999999945
v 1.43964 0.700883 0.04052699999999996
v -0.166826 0.867745 0.040526999999999945
v 0.750751 0.682327 0.04052699999999996
v 0.750751 0.698766 -0.15249500000000005
v 1.14141 0.699647 -0.15249500000000005
v 1.14141 0.505122 0.04052699999999997
v 0.750751 0.464636 0.04052699999999997
v 1.161568 0.665924 0.02040599999999996
v 0.750751 0.464636 0.04052699999999997
v 0.750751 0.682327 0.04052699999999996
v 0.750751 0.698766 -0.15249500000000005
v 1.14141 0.699647 -0.15249500000000005
v 1.161568 0.665924 0.02040599999999996
v 1.14141 0.505122 0.04052699999999997
v -1.29457 -2.007906 0.040527000000000125
v -1.29457 -0.136451 -0.0076669999999999915
v -1.29457 0.281493 0.04052699999999999
v -1.29457 -2.007906 0.040527000000000125
v -1.29457 -2.0073 -0.007666999999999877
v 1.43964 -2.007906 0.040527000000000125
v 0.072535 -2.007906 0.040527000000000125
v 1.185308 1.945989 -1.0886830000000003
v 1.200307 1.900993 -1.0886830000000003
v 1.200307 1.900993 0.1809219999999999
v 1.185308 1.945989 0.1809219999999999
v -0.507625 1.322569 -0.6101460000000001
v -0.508003 0.812545 -0.20658400000000005
v -0.503586 0.28657 0.06036299999999998
v 1.206596 1.409308 0.4744569999999999
v 1.191597 1.454304 0.4744569999999999
v 1.191597 1.454304 -1.088683
v 1.206596 1.409308 -1.088683
v 1.207982 0.806099 0.32634699999999994
v 1.192983 0.851096 0.32634699999999994
v 1.192983 0.8510959999999999 -1.088683
v 1.207982 0.8060999999999999 -1.088683
v -1.324846 0.3315890000000001 0.614313
v -1.324846 0.37452100000000005 0.614313
v -1.346312 0.35305500000000006 0.614313
v -1.346312 0.353055 0.10480799999999997
v -1.346312 0.35305500000000006 0.614313
v -1.393604 0.28149299999999994 -1.089643
v -1.29457 -0.136451 -0.0076669999999999915
v -1.29457 -2.0073 -0.007666999999999877
v 1.43964 0.700883 0.04052699999999996
v 1.523847 0.7921249999999999 -1.089193
v 1.43964 -0.136451 -0.0076669999999999915
v 1.43964 0.281493 0.04052699999999999
v 1.43964 -2.0073 -0.007666999999999877
v 1.43964 -0.136451 -0.0076669999999999915
v 1.524201 0.28149299999999994 -1.089643
v 1.468481 0.736886 0.10702999999999996
v 1.523492 0.7920039999999999 -1.088743
v 1.468481 0.580361 0.10702999999999996
v 1.522782 0.6112069999999998 -1.087842
v 1.314638 0.736886 0.10702999999999996
v 1.314638 0.580361 0.10702999999999996
v 1.344302 0.6112069999999998 -1.087842
v 1.344302 0.7917609999999999 -1.087842
v 1.314638 0.736886 0.10702999999999996
v 1.468481 0.736886 0.10702999999999996
v 1.468481 0.580361 0.10702999999999996
v 1.314638 0.580361 0.10702999999999996
v 1.50751 0.247708 0.10702999999999999
v 1.359574 0.247708 0.10702999999999999
v 1.522782 0.25611999999999996 -1.087842
v 1.50751 0.077524 0.10703
v 1.50751 0.247708 0.10702999999999999
v 1.522782 0.07556599999999992 -1.087842
v 1.359574 0.077524 0.10703
v 1.50751 0.077524 0.10703
v 1.344302 0.07556599999999992 -1.087842
v 1.344302 0.25611999999999996 -1.087842
v 1.359574 0.247708 0.10702999999999999
v 1.359574 0.077524 0.10703
v -0.188223 0.903421 0.07919399999999994
v -0.188223 0.755486 0.07919399999999996
v -0.227018 0.9731199999999999 -1.087842
v -0.030984 0.903421 0.07919399999999994
v -0.188223 0.903421 0.07919399999999994
v -0.046464 0.9731199999999999 -1.087842
v -0.030984 0.755486 0.07919399999999996
v -0.030984 0.903421 0.07919399999999994
v -0.046465 0.7946409999999999 -1.087842
v -0.227018 0.7946409999999999 -1.087842
v -0.188223 0.755486 0.07919399999999996
v -0.030984 0.755486 0.07919399999999996
v -0.803413 1.045014 0.10702999999999993
v -0.951348 1.045014 0.10702999999999993
v -0.788141 1.222291 -1.087842
v -0.803413 0.895359 0.10702999999999994
v -0.803413 1.045014 0.10702999999999993
v -0.788141 1.041737 -1.087842
v -0.951348 0.895359 0.10702999999999994
v -0.803413 0.895359 0.10702999999999994
v -0.96662 1.041737 -1.087842
v -0.96662 1.222291 -1.087842
v -0.951348 1.045014 0.10702999999999993
v -0.951348 0.895359 0.10702999999999994
v -1.348027 0.874582 0.10702999999999994
v -1.348027 0.701396 0.10703099999999996
v -1.427721 0.9348459999999998 -1.087842
v -1.198372 0.874582 0.10702999999999994
v -1.348027 0.874582 0.10702999999999994
v -1.247166 0.9348459999999998 -1.087842
v -1.198372 0.701396 0.10703099999999996
v -1.198372 0.874582 0.10702999999999994
v -1.247167 0.7220109999999998 -1.087842
v -1.427721 0.7220109999999998 -1.087842
v -1.348027 0.701396 0.10703099999999996
v -1.198372 0.701396 0.10703099999999996
v -1.372461 0.431197 0.10702999999999997
v -1.372461 0.253232 0.10703099999999999
v -1.413625 0.44646899999999995 -1.087842
v -1.24852 0.431197 0.10702999999999997
v -1.372461 0.431197 0.10702999999999997
v -1.233071 0.44646899999999995 -1.087842
v -1.24852 0.253232 0.10703099999999999
v -1.24852 0.431197 0.10702999999999997
v -1.233071 0.2595259999999999 -1.087842
v -1.413625 0.2595259999999999 -1.087842
v -1.372461 0.253232 0.10703099999999999
v -1.24852 0.253232 0.10703099999999999
v 1.43964 -2.007906 0.040527000000000125
v 1.43964 -2.0073 -0.007666999999999877
v 1.43964 -2.0073 -0.007666999999999877
v 1.43964 -2.0073 -1.0840319999999999
v 0.072535 -2.0073 -0.007666999999999877
v -1.29457 -2.0073 -1.0840319999999999
v -1.29457 -2.0073 -0.007666999999999877
v -0.85889 0.746547 -0.25360900000000003
v -1.070368 1.266289 -0.6674600000000002
v -0.99838 1.703864 -0.8412780000000001
v -1.070368 1.266289 -0.6674600000000002
v -0.484687 1.844426 -0.8519870000000002
v -0.508003 1.844426 -1.0101990000000003
v -0.510555 0.054599 -0.007667000000000004
v -1.324846 0.331589 0.10480799999999998
v -1.324846 0.3315890000000001 0.614313
v -1.324846 0.331589 0.10480799999999998
v -1.324846 0.374521 0.10480799999999997
v -1.324846 0.37452100000000005 0.614313
v -1.324846 0.37452100000000005 0.614313
v 0.072535 -2.0073 -0.007666999999999877
v 0.074108 -2.007706 -1.1008949999999997
vt 0.990471 0.254209
vt 0.990471 0.010926
vt 0.902454 0.008948
vt 0.900476 0.254208
vt 0.820017 0.946516
vt 0.825925 0.834241
vt 0.969384 0.984486
vt 0.887478 0.705958
vt 0.742452 0.841751
vt 0.847909 0.923227
vt 0.868788 0.597417
vt 0.619325 0.192193
vt 0.536303 0.192193
vt 0.619325 0.010123
vt 0.546507 0.009715
vt 0.424997 0.014486
vt 0.141634 0.014486
vt 0.431589 0.209562
vt 0.706016 0.010123
vt 0.721966 0.985742
vt 0.015527 0.985188
vt 0.199232 0.014486
vt 0.265795 0.014486
vt 0.725931 0.192193
vt 0.437678 0.010123
vt 0.782098 0.399399
vt 0.797778 0.399399
vt 0.782097 0.188233
vt 0.797777 0.188233
vt 0.265795 0.172499
vt 0.199232 0.172499
vt 0.543704 0.192193
vt 0.789944 0.403326
vt 0.782098 0.399399
vt 0.791897 0.188233
vt 0.782097 0.188233
vt 0.825925 0.834241
vt 0.820017 0.946516
vt 0.972701 0.713233
vt 0.742452 0.841751
vt 0.959139 0.534512
vt 0.887478 0.705958
vt 0.847909 0.923227
vt 0.868788 0.597417
vt 0.974347 0.596220
vt 0.782098 0.399399
vt 0.797778 0.399399
vt 0.782097 0.188233
vt 0.791897 0.188233
vt 0.789944 0.403326
vt 0.782097 0.188233
vt 0.782098 0.399399
vt 0.797778 0.399399
vt 0.782097 0.188233
vt 0.791897 0.188233
vt 0.782098 0.399399
vt 0.791897 0.188233
vt 0.782097 0.188233
vt 0.881698 0.103097
vt 0.876059 0.108716
vt 0.881698 0.108716
vt 0.881698 0.013055
vt 0.870429 0.013091
vt 0.864809 0.013091
vt 0.965534 0.841125
vt 0.968248 0.951289
vt 0.798418 0.585855
vt 0.288581 0.260657
vt 0.193509 0.260657
vt 0.288581 0.213943
vt 0.193509 0.213944
vt 0.745958 0.510153
vt 0.745959 0.564122
vt 0.883430 0.564120
vt 0.883429 0.510151
vt 0.744449 0.723326
vt 0.798418 0.723326
vt 0.744448 0.585855
vt 0.288581 0.260657
vt 0.288581 0.213943
vt 0.193509 0.213944
vt 0.193509 0.260657
vt 0.782098 0.399399
vt 0.766432 0.188223
vt 0.766432 0.188223
vt 0.782098 0.399399
vt 0.782098 0.399399
vt 0.791897 0.188233
vt 0.766429 0.399389
vt 0.782097 0.188233
vt 0.789944 0.403326
vt 0.721367 0.261908
vt 0.608523 0.204211
vt 0.607398 0.392406
vt 0.519449 0.209562
vt 0.265795 0.209562
vt 0.092392 0.334541
vt 0.084580 0.295812
vt 0.193317 0.345023
vt 0.767277 0.010123
vt 0.532669 0.009503
vt 0.015345 0.283858
vt 0.050534 0.014486
vt 0.002315 0.500627
vt 0.013474 0.392420
vt 0.782098 0.399399
vt 0.766432 0.188223
vt 0.766432 0.188223
vt 0.782098 0.399399
vt 0.782098 0.399399
vt 0.766432 0.188223
vt 0.766432 0.188223
vt 0.782098 0.399399
vt 0.883429 0.511146
vt 0.745959 0.565118
vt 0.745959 0.565118
vt 0.883429 0.511146
vt 0.744448 0.585855
vt 0.798418 0.723326
vt 0.798418 0.723326
vt 0.744448 0.585855
vt 0.766429 0.399389
vt 0.782097 0.188233
vt 0.782097 0.188233
vt 0.798418 0.585855
vt 0.745958 0.511148
vt 0.883430 0.565116
vt 0.744449 0.723326
vt 0.766429 0.399389
vt 0.933293 0.495852
vt 0.962988 0.495852
vt 0.962988 0.274643
vt 0.933293 0.274643
vt 0.896521 0.495852
vt 0.896521 0.274643
vt 0.861726 0.495852
vt 0.861726 0.274643
vt 0.962862 0.274730
vt 0.933346 0.274730
vt 0.936765 0.501319
vt 0.957647 0.501319
vt 0.896712 0.274678
vt 0.936765 0.522794
vt 0.861799 0.274922
vt 0.957647 0.522794
vt 0.962862 0.274730
vt 0.933346 0.274730
vt 0.936765 0.501319
vt 0.957647 0.501319
vt 0.896712 0.274678
vt 0.936765 0.522794
vt 0.861799 0.274922
vt 0.957647 0.522794
vt 0.962862 0.274730
vt 0.933346 0.274730
vt 0.936765 0.501319
vt 0.957647 0.501319
vt 0.896712 0.274678
vt 0.936765 0.522794
vt 0.861799 0.274922
vt 0.957647 0.522794
vt 0.962862 0.274730
vt 0.933346 0.274730
vt 0.936765 0.501319
vt 0.957647 0.501319
vt 0.896712 0.274678
vt 0.936765 0.522794
vt 0.861799 0.274922
vt 0.957647 0.522794
vt 0.962862 0.274730
vt 0.933346 0.274730
vt 0.936765 0.501319
vt 0.957647 0.501319
vt 0.896712 0.274678
vt 0.936765 0.522794
vt 0.861799 0.274922
vt 0.957647 0.522794
vt 0.368392 0.988022
vt 0.002312 0.984998
vt 0.391076 0.015123
vt 0.204597 0.018884
vt 0.368369 0.997511
vt 0.390606 0.014155
vt 0.721983 0.997512
vt 0.813278 0.402116
vt 0.843362 0.402116
vt 0.843362 0.317053
vt 0.813278 0.317053
vt 0.635885 0.192193
vt 0.635885 0.010123
vt 0.431589 0.014486
vt 0.430416 0.392406
vt 0.430370 0.240655
vt 0.141634 0.209562
vt 0.424997 0.209562
vt 0.193317 0.288661
vt 0.848656 0.423030
vt 0.780693 0.423030
vt 0.780693 0.498354
vt 0.848656 0.498354
vt 0.199519 0.204441
vt 0.235072 0.209585
vt 0.265795 0.209564
vt 0.265795 0.176058
vt 0.199232 0.175996
vt 0.205662 0.201961
vt 0.230549 0.209562
vt 0.721994 0.988047
vt 0.735143 0.500601
vt 0.723336 0.392485
vt 0.723336 0.984559
vt 0.735143 0.984559
vt 0.013470 0.984998
vt 0.368747 0.985465
vt 0.782097 0.188233
vt 0.770348 0.188226
vt 0.770346 0.399392
vt 0.782098 0.399399
vt 0.963563 0.840627
vt 0.978635 0.710225
vt 0.975082 0.591927
vt 0.770346 0.399392
vt 0.782098 0.399399
vt 0.782097 0.188233
vt 0.770348 0.188226
vt 0.770346 0.399392
vt 0.782098 0.399399
vt 0.782097 0.188233
vt 0.770348 0.188226
vt 0.870430 0.103133
vt 0.881698 0.103097
vt 0.864810 0.103133
vt 0.887318 0.013055
vt 0.887317 0.103097
vt 0.021406 0.007670
vt 0.087938 0.207759
vt 0.390352 0.207390
vt 0.141634 0.218357
vt 0.141634 0.014486
vt 0.003165 0.209268
vt 0.071873 0.218357
vt 0.391076 0.207250
vt 0.094355 0.207250
vt 0.021742 0.015123
vt 0.924850 0.495852
vt 0.924850 0.274643
vt 0.888430 0.495852
vt 0.888430 0.274643
vt 0.968227 0.495852
vt 0.993742 0.495852
vt 0.993742 0.274643
vt 0.968227 0.274643
vt 0.957647 0.501319
vt 0.936765 0.501319
vt 0.936765 0.522794
vt 0.957647 0.522794
vt 0.933346 0.495939
vt 0.962862 0.495939
vt 0.924865 0.274678
vt 0.896712 0.495886
vt 0.924865 0.495886
vt 0.888370 0.274922
vt 0.861799 0.496040
vt 0.888370 0.496040
vt 0.993671 0.274627
vt 0.968345 0.274627
vt 0.968345 0.495836
vt 0.993671 0.495836
vt 0.933346 0.495939
vt 0.962862 0.495939
vt 0.924865 0.274678
vt 0.896712 0.495886
vt 0.924865 0.495886
vt 0.888370 0.274922
vt 0.861799 0.496040
vt 0.888370 0.496040
vt 0.993671 0.274627
vt 0.968345 0.274627
vt 0.968345 0.495836
vt 0.993671 0.495836
vt 0.933346 0.495939
vt 0.962862 0.495939
vt 0.924865 0.274678
vt 0.896712 0.495886
vt 0.924865 0.495886
vt 0.888370 0.274922
vt 0.861799 0.496040
vt 0.888370 0.496040
vt 0.993671 0.274627
vt 0.968345 0.274627
vt 0.968345 0.495836
vt 0.993671 0.495836
vt 0.933346 0.495939
vt 0.962862 0.495939
vt 0.924865 0.274678
vt 0.896712 0.495886
vt 0.924865 0.495886
vt 0.888370 0.274922
vt 0.861799 0.496040
vt 0.888370 0.496040
vt 0.993671 0.274627
vt 0.968345 0.274627
vt 0.968345 0.495836
vt 0.993671 0.495836
vt 0.933346 0.495939
vt 0.962862 0.495939
vt 0.924865 0.274678
vt 0.896712 0.495886
vt 0.924865 0.495886
vt 0.888370 0.274922
vt 0.861799 0.496040
vt 0.888370 0.496040
vt 0.993671 0.274627
vt 0.968345 0.274627
vt 0.968345 0.495836
vt 0.993671 0.495836
vt 0.014789 0.987998
vt 0.014756 0.997510
vt 0.392380 0.209294
vt 0.393254 0.013998
vt 0.217828 0.207842
vt 0.391042 0.015449
vt 0.392759 0.209294
vt 0.887478 0.705958
vt 0.825925 0.834241
vt 0.847909 0.923227
vt 0.825925 0.834241
vt 0.968248 0.951289
vt 0.969384 0.984486
vt 0.959139 0.534512
vt 0.870429 0.013091
vt 0.870430 0.103133
vt 0.870429 0.013091
vt 0.881698 0.013055
vt 0.881698 0.103097
vt 0.881698 0.103097
vt 0.217828 0.207842
vt 0.204597 0.018884
vn 0 6.123233995736766E-17 1
vn 0 6.123233995736766E-17 1
vn 0 6.123233995736766E-17 1
vn 0 6.123233995736766E-17 1
vn -0.756377 0.654136 -4.0054277930352657E-17
vn -0.738688 0.28382300000000005 0.611379
vn -0.028909 0.99953 -0.01017300000000006
vn -0.366512 0.45164400000000005 0.813442
vn -0.999207 0.006113000000000003 0.039338
vn -0.615674 0.675243 0.40619199999999994
vn -0.047662 0.14396500000000007 0.988434
vn -0.470893 0.872613 0.12964099999999995
vn 0.999947 0.008044 0.006501999999999999
vn -0.451217 0.884439 0.11904299999999994
vn -0.470893 0.872613 0.12964099999999995
vn 0.193864 0.976689 0.09217199999999995
vn -0.026364 0.995811 0.08754999999999995
vn -1 0 0
vn -0.998297 -0.0033579999999999964 0.058246
vn 0 6.123233995736766E-17 1
vn 0 6.123233995736766E-17 1
vn -0.001481 0.995136 0.09849799999999995
vn 0.09364 0.990782 0.09788899999999995
vn -0.997443 -0.010666999999999996 0.070659
vn 0.999947 0.008044 0.006501999999999999
vn -0.948683 -0.316229 1.9363441632378416E-17
vn -0.948684 -0.316226 1.9363257935358545E-17
vn -0.948682 -0.316231 1.936356409705833E-17
vn -0.948683 -0.316229 1.9363441632378416E-17
vn 0.116511 0.988795 0.09332799999999994
vn -0.048045 0.991611 0.11999599999999995
vn -0.490267 0.860229 0.14015699999999995
vn -0.948681 0.316235 -1.9363809026418162E-17
vn -0.948681 0.316234 -1.9363747794078205E-17
vn -0.948681 0.316234 -1.9363747794078205E-17
vn -0.948682 0.316233 -1.9363686561738247E-17
vn 0.664925 0.35992500000000005 0.654468
vn 0.678203 0.734478 -0.024143000000000046
vn 0.067899 0.538026 0.840189
vn 0.975328 0.163076 0.1488
vn 0.017552 -0.28186199999999995 0.959295
vn 0.400961 0.44540700000000005 0.800527
vn 0.686649 0.57843 0.44037699999999996
vn 0.09678 0.17073600000000005 0.980553
vn 0.040156 0.26317900000000005 0.963911
vn -0.948683 -0.316229 1.9363441632378416E-17
vn -0.948683 -0.316228 1.9363380400038462E-17
vn -0.948682 -0.316231 1.936356409705833E-17
vn -0.948683 -0.316229 1.9363441632378416E-17
vn -0.94868 0.316236 -1.9363870258758122E-17
vn -0.948681 0.316234 -1.9363747794078205E-17
vn -0.948683 -0.316228 1.9363380400038462E-17
vn -0.948684 -0.316226 1.9363257935358545E-17
vn -0.948683 -0.31623 1.9363502864718376E-17
vn -0.948683 -0.316228 1.9363380400038462E-17
vn -0.948681 0.316234 -1.9363747794078205E-17
vn -0.948681 0.316234 -1.9363747794078205E-17
vn -0.948682 0.316233 -1.9363686561738247E-17
vn 0 6.123233995736766E-17 1
vn 0 6.123233995736766E-17 1
vn 0 6.123233995736766E-17 1
vn 0.877355 0.479842 -2.9381848469823214E-17
vn -0.281082 -0.959684 5.876369693964643E-17
vn -0.948683 0.316227 -1.9363319167698502E-17
vn 0.035078 0.508375 0.860421
vn 0.190968 0.879252 0.43640199999999996
vn 0.999067 -2.6446247627587093E-18 -0.04319
vn -1 0.000998 -6.110987527745292E-20
vn -1 0.000998 -6.110987527745292E-20
vn -1 0.000998 -6.110987527745292E-20
vn -1 0.000998 -6.110987527745292E-20
vn 1 0 0
vn 1 0 0
vn 1 0 0
vn 1 0 0
vn 0.999067 -2.6446247627587093E-18 -0.04319
vn 0.999067 -2.6446247627587093E-18 -0.04319
vn 0.999067 -2.6446247627587093E-18 -0.04319
vn 1 -0.000998 6.110987527745292E-20
vn 1 -0.000998 6.110987527745292E-20
vn 1 -0.000998 6.110987527745292E-20
vn 1 -0.000998 6.110987527745292E-20
vn 0.948681 -0.316235 1.9363809026418162E-17
vn 0.948681 -0.316235 1.9363809026418162E-17
vn 0.948682 -0.316233 1.9363686561738247E-17
vn 0.948682 -0.316233 1.9363686561738247E-17
vn -0.948681 0.316235 -1.9363809026418162E-17
vn -0.948681 0.316235 -1.9363809026418162E-17
vn 0.948681 -0.316235 1.9363809026418162E-17
vn 0.948682 -0.316233 1.9363686561738247E-17
vn -0.948681 0.316236 -1.9363870258758122E-17
vn -0 6.123233995736766E-17 1
vn 0 6.123233995736766E-17 1
vn 0 6.123233995736766E-17 1
vn -1 0 0
vn 0.197383 0.976791 0.08318599999999994
vn -0.02953 0.04498700000000006 0.998551
vn -0.088332 0.13456900000000005 0.986959
vn 0 6.123233995736766E-17 1
vn -0.998999 -0.0025189999999999974 0.044656
vn 0.999947 0.008044 0.006501999999999999
vn -0.044311 0.06750500000000005 0.996734
vn 0.997352 -0.013484999999999995 0.071472
vn 0.999704 -0.006850999999999999 0.02335
vn 1 1.8369701987210298E-22 3E-06
vn 0.94868 -0.316236 1.9363870258758122E-17
vn 0.94868 -0.316236 1.9363870258758122E-17
vn 0.948681 -0.316234 1.9363747794078205E-17
vn 0.948681 -0.316234 1.9363747794078205E-17
vn 0.948681 -0.316236 1.9363870258758122E-17
vn 0.948681 -0.316236 1.9363870258758122E-17
vn 0.948682 -0.316233 1.9363686561738247E-17
vn 0.948682 -0.316233 1.9363686561738247E-17
vn -1 0 0
vn -1 0 0
vn -1 0 0
vn -1 0 0
vn -0.999067 2.6446247627587093E-18 0.04319
vn -0.999067 2.6446247627587093E-18 0.04319
vn -0.999067 2.6446247627587093E-18 0.04319
vn -0.999067 2.6446247627587093E-18 0.04319
vn 0.94868 -0.316236 1.9363870258758122E-17
vn 0.948681 -0.316234 1.9363747794078205E-17
vn 0.948682 -0.316233 1.9363686561738247E-17
vn -0.999067 2.6446247627587093E-18 0.04319
vn -1 0 0
vn -1 0 0
vn -0.999067 2.6446247627587093E-18 0.04319
vn 0.948681 -0.316236 1.9363870258758122E-17
vn -0.000561 0.998944 0.045934999999999934
vn 0 0.998947 0.04587699999999994
vn -0.000561 0.998944 0.045934999999999934
vn -0.001122 0.998941 0.04599299999999994
vn 0.998957 -0.001846999999999997 0.045629
vn 0.998967 -0.003693999999999997 0.045303
vn -1E-06 -0.999667 -0.025806999999999938
vn -3E-06 -0.999667 -0.025806999999999938
vn 0 0.999975 0.007039999999999939
vn 0 0.999975 0.007039999999999939
vn 0 6.123233995736766E-17 1
vn 0 6.123233995736766E-17 1
vn 0.999918 7.826105369951161E-19 0.012781
vn 0 6.123233995736766E-17 1
vn -3E-06 -0.999999 0.0016390000000000612
vn 0 6.123233995736766E-17 1
vn -0.999448 2.034383262743583E-18 0.033224
vn -0.999448 2.034383262743583E-18 0.033224
vn 0 6.123233995736766E-17 1
vn 0 6.123233995736766E-17 1
vn 0 0.998221 0.059617999999999935
vn 0 6.123233995736766E-17 1
vn 0.999912 -4.000000000000812E-06 -0.013263
vn 0 6.123233995736766E-17 1
vn 0 0.989172 0.14675899999999995
vn 0 0.989172 0.14675899999999995
vn 0 6.123233995736766E-17 1
vn 0 6.123233995736766E-17 1
vn 0.999918 7.825493046551586E-19 0.01278
vn 0 6.123233995736766E-17 1
vn -2E-06 -0.99258 -0.12159699999999994
vn 0 6.123233995736766E-17 1
vn -0.997783 4.07495099182286E-18 0.066549
vn -0.997783 4.07495099182286E-18 0.066549
vn 0 1.0000000000612324E-06 1
vn 0 1.0000000000612324E-06 1
vn 0 0.998731 0.05037199999999994
vn 0 1.0000000000612324E-06 1
vn 0.999167 -3.0000000000024984E-06 -0.040803
vn 0 1.0000000000612324E-06 1
vn -0.999407 2.108290697072126E-18 0.034431
vn -0.999407 2.108290697072126E-18 0.034431
vn -0 6.123233995736766E-17 1
vn -0 6.123233995736766E-17 1
vn 0 0.999918 0.012779999999999939
vn -0 6.123233995736766E-17 1
vn 0.999916 7.916729233088065E-19 0.012929
vn -0 6.123233995736766E-17 1
vn 0 -0.999921 -0.01257399999999994
vn 0.707159 -0.707054 0.0001310000000000433
vn 0.887234 -0.460449 0.028324000000000026
vn 2E-06 -1 0.00024700000000006124
vn 0 -0.999921 -0.01257399999999994
vn -0.999065 -0.043229 2.6470128240170463E-18
vn 0 -0.999921 -0.01257399999999994
vn 0 -6.123233995736766E-17 -1
vn 0 -6.123233995736766E-17 -1
vn 0 -6.123233995736766E-17 -1
vn 0 -6.123233995736766E-17 -1
vn -0.996183 5.345154651898495E-18 0.087293
vn -0.996183 5.345154651898495E-18 0.087293
vn -1 0 0
vn 0 6.123233995736766E-17 1
vn 0 6.123233995736766E-17 1
vn -0.09542 0.985383 0.14111999999999994
vn 0.197811 0.976507 0.08546999999999995
vn 0 6.123233995736766E-17 1
vn -0.033738 0.670604 0.741048
vn -0.001589 0.704358 0.709843
vn -0.033738 0.670604 0.741048
vn -0.065781 0.634741 0.76992
vn -0.136677 0.969179 0.20496799999999996
vn 1 0 0
vn 1 0 0
vn 1 0 0
vn -0.979885 0.140563 0.141657
vn -0.979885 0.140563 0.141657
vn -0.979885 0.140563 0.141657
vn 0 -0.999921 -0.01257399999999994
vn -0.998999 -0.0025189999999999974 0.044656
vn -0.998297 -0.0033579999999999964 0.058246
vn -1 1.8369701987210298E-22 3E-06
vn -0.999433 -0.014425999999999998 0.030419
vn 1 6.123233995736766E-23 1E-06
vn 0 6.123233995736766E-17 1
vn 0.948683 0.316229 -1.9363441632378416E-17
vn 0.948682 0.316231 -1.936356409705833E-17
vn 0.948683 0.316229 -1.9363441632378416E-17
vn 0.948684 0.316226 -1.9363257935358545E-17
vn 0.035078 0.508375 0.860421
vn 0.067899 0.538026 0.840189
vn 0.040156 0.26317900000000005 0.963911
vn 0.948683 0.316229 -1.9363441632378416E-17
vn 0.948683 0.316228 -1.9363380400038462E-17
vn 0.948683 0.316229 -1.9363441632378416E-17
vn 0.948682 0.316231 -1.936356409705833E-17
vn 0.948683 0.316228 -1.9363380400038462E-17
vn 0.948684 0.316226 -1.9363257935358545E-17
vn 0.948683 0.316228 -1.9363380400038462E-17
vn 0.948683 0.31623 -1.9363502864718376E-17
vn 0.877355 -0.479842 2.9381848469823214E-17
vn -0.281085 0.959683 -5.876363570730647E-17
vn -0.948683 -0.316229 1.9363441632378416E-17
vn -0.948683 0.316227 -1.9363319167698502E-17
vn -0.948683 -0.316229 1.9363441632378416E-17
vn -0.997443 -0.010666999999999996 0.070659
vn -0.998999 -0.0025189999999999974 0.044656
vn -0.999433 -0.014425999999999998 0.030419
vn 0.998737 -0.0012539999999999969 0.050238
vn 0.99723 0.0006270000000000045 0.074382
vn 0.999704 -0.006850999999999999 0.02335
vn 1 1.8369701987210298E-22 3E-06
vn 0.707159 -0.707054 0.0001310000000000433
vn 0.999704 -0.006850999999999999 0.02335
vn 0.997352 -0.013484999999999995 0.071472
vn 0.998944 2.813932182740831E-18 0.045955
vn 0.998957 -0.001846999999999997 0.045629
vn 0 -0.999667 -0.025806999999999938
vn -1E-06 -0.999667 -0.025806999999999938
vn -0.999692 -1.519725445401908E-18 -0.024819
vn -0.999692 -1.519725445401908E-18 -0.024819
vn -0.999692 -1.519725445401908E-18 -0.024819
vn -0.999692 -1.519725445401908E-18 -0.024819
vn 0 6.123233995736766E-17 1
vn 0 6.123233995736766E-17 1
vn 0 6.123233995736766E-17 1
vn 0 6.123233995736766E-17 1
vn 0 0.999975 0.007039999999999939
vn 0 0.999975 0.007039999999999939
vn 0.999918 7.826105369951161E-19 0.012781
vn 0.999918 7.826105369951161E-19 0.012781
vn 0.999918 7.826105369951161E-19 0.012781
vn -1E-06 -0.999999 0.0016390000000000612
vn -1E-06 -0.999999 0.0016390000000000612
vn 0 -0.999999 0.0016390000000000612
vn -0.999918 7.825493046551586E-19 0.01278
vn -0.999918 7.825493046551586E-19 0.01278
vn -0.999918 7.825493046551586E-19 0.01278
vn -0.999918 7.825493046551586E-19 0.01278
vn -0.999448 2.034383262743583E-18 0.033224
vn -0.999448 2.034383262743583E-18 0.033224
vn 0 0.998221 0.059617999999999935
vn 0 0.998221 0.059617999999999935
vn 0 0.998221 0.059617999999999935
vn 0.999912 -2.0000000000008122E-06 -0.013263
vn 0.999912 -2.0000000000008122E-06 -0.013263
vn 0.999912 -8.121245248545673E-19 -0.013263
vn 0 -0.999438 -0.03353199999999994
vn 0 -0.999438 -0.03353199999999994
vn 0 -0.999438 -0.03353199999999994
vn 0 -0.999438 -0.03353199999999994
vn 0 0.989172 0.14675899999999995
vn 0 0.989172 0.14675899999999995
vn 0.999918 7.825493046551586E-19 0.01278
vn 0.999918 7.825493046551586E-19 0.01278
vn 0.999918 7.825493046551586E-19 0.01278
vn -1E-06 -0.99258 -0.12159599999999994
vn -1E-06 -0.99258 -0.12159599999999994
vn 0 -0.99258 -0.12159599999999994
vn -0.999918 7.826105369951161E-19 0.012781
vn -0.999918 7.826105369951161E-19 0.012781
vn -0.999918 7.826105369951161E-19 0.012781
vn -0.999918 7.826105369951161E-19 0.012781
vn -0.997783 4.07495099182286E-18 0.066549
vn -0.997783 4.07495099182286E-18 0.066549
vn 0 0.998731 0.05037199999999994
vn 0 0.998731 0.05037199999999994
vn 0 0.998731 0.05037199999999994
vn 0.999167 -2.0000000000024982E-06 -0.040803
vn 0.999167 -2.0000000000024982E-06 -0.040803
vn 0.999167 -2.4984019349405152E-18 -0.040802
vn 0 -0.999851 -0.01724999999999994
vn 0 -0.999851 -0.01724999999999994
vn 0 -0.999851 -0.01724999999999994
vn 0 -0.999851 -0.01724999999999994
vn -0.999407 2.108290697072126E-18 0.034431
vn -0.999407 2.108290697072126E-18 0.034431
vn -0 0.999918 0.012779999999999939
vn -0 0.999918 0.012779999999999939
vn -1E-06 0.999918 0.012779999999999939
vn 0.999916 7.916729233088065E-19 0.012929
vn 0.999916 7.916729233088065E-19 0.012929
vn 0.999916 7.916729233088065E-19 0.012929
vn 0 -0.999986 -0.0052679999999999385
vn 0 -0.999986 -0.0052679999999999385
vn 0 -0.999986 -0.0052679999999999385
vn 1E-06 -0.999986 -0.0052679999999999385
vn 0 -0.999921 -0.01257399999999994
vn 0 -0.999921 -0.01257399999999994
vn 0.707159 -0.707054 0.0001310000000000433
vn 0.887234 -0.460449 0.028324000000000026
vn -9.7E-05 -1 0.00024700000000006124
vn -0.000146 -1 0.00018500000000006123
vn 0 -1 6.123233995736766E-17
vn -0.366512 0.45164400000000005 0.813442
vn -0.738688 0.28382300000000005 0.611379
vn -0.615674 0.675243 0.40619199999999994
vn -0.738688 0.28382300000000005 0.611379
vn 0.190968 0.879252 0.43640199999999996
vn -0.028909 0.99953 -0.01017300000000006
vn 0.017552 -0.28186199999999995 0.959295
vn -0.281082 -0.959684 5.876369693964643E-17
vn 0.877355 -0.479842 2.9381848469823214E-17
vn -0.281082 -0.959684 5.876369693964643E-17
vn 0.877355 0.479842 -2.9381848469823214E-17
vn -0.281085 0.959683 -5.876363570730647E-17
vn -0.281085 0.959683 -5.876363570730647E-17
vn -9.7E-05 -1 0.00024700000000006124
vn 2E-06 -1 0.00024700000000006124
g 03
f 322/322/322 338/338/338 337/337/337
f 337/337/337 323/323/323 322/322/322
f 319/319/319 321/321/321 181/181/181
f 181/181/181 320/320/320 319/319/319
f 214/214/214 21/21/21 192/192/192
f 317/317/317 178/178/178 182/182/182
f 182/182/182 318/318/318 317/317/317
f 313/313/313 316/316/316 315/315/315
f 315/315/315 314/314/314 313/313/313
f 310/310/310 312/312/312 311/311/311
f 311/311/311 176/176/176 310/310/310
f 307/307/307 309/309/309 308/308/308
f 308/308/308 174/174/174 307/307/307
f 170/170/170 306/306/306 305/305/305
f 305/305/305 171/171/171 170/170/170
f 177/177/177 175/175/175 172/172/172
f 172/172/172 173/173/173 177/177/177
f 301/301/301 304/304/304 303/303/303
f 303/303/303 302/302/302 301/301/301
f 298/298/298 300/300/300 299/299/299
f 299/299/299 168/168/168 298/298/298
f 295/295/295 297/297/297 296/296/296
f 296/296/296 166/166/166 295/295/295
f 162/162/162 294/294/294 293/293/293
f 293/293/293 163/163/163 162/162/162
f 169/169/169 167/167/167 164/164/164
f 164/164/164 165/165/165 169/169/169
f 289/289/289 292/292/292 291/291/291
f 291/291/291 290/290/290 289/289/289
f 286/286/286 288/288/288 287/287/287
f 287/287/287 160/160/160 286/286/286
f 283/283/283 285/285/285 284/284/284
f 284/284/284 158/158/158 283/283/283
f 154/154/154 282/282/282 281/281/281
f 281/281/281 155/155/155 154/154/154
f 161/161/161 159/159/159 156/156/156
f 156/156/156 157/157/157 161/161/161
f 277/277/277 280/280/280 279/279/279
f 279/279/279 278/278/278 277/277/277
f 274/274/274 276/276/276 275/275/275
f 275/275/275 152/152/152 274/274/274
f 271/271/271 273/273/273 272/272/272
f 272/272/272 150/150/150 271/271/271
f 146/146/146 270/270/270 269/269/269
f 269/269/269 147/147/147 146/146/146
f 153/153/153 151/151/151 148/148/148
f 148/148/148 149/149/149 153/153/153
f 265/265/265 268/268/268 267/267/267
f 267/267/267 266/266/266 265/265/265
f 262/262/262 264/264/264 263/263/263
f 263/263/263 144/144/144 262/262/262
f 259/259/259 261/261/261 260/260/260
f 260/260/260 142/142/142 259/259/259
f 138/138/138 258/258/258 257/257/257
f 257/257/257 139/139/139 138/138/138
f 145/145/145 143/143/143 140/140/140
f 140/140/140 141/141/141 145/145/145
f 253/253/253 256/256/256 255/255/255
f 255/255/255 254/254/254 253/253/253
f 249/249/249 252/252/252 251/251/251
f 251/251/251 250/250/250 249/249/249
f 136/136/136 137/137/137 248/248/248
f 248/248/248 247/247/247 136/136/136
f 134/134/134 135/135/135 246/246/246
f 246/246/246 245/245/245 134/134/134
f 130/130/130 133/133/133 132/132/132
f 132/132/132 131/131/131 130/130/130
f 180/180/180 244/244/244 243/243/243
f 243/243/243 242/242/242 180/180/180
f 241/241/241 240/240/240 238/238/238
f 240/240/240 103/103/103 238/238/238
f 103/103/103 239/239/239 238/238/238
f 235/235/235 183/183/183 237/237/237
f 237/237/237 236/236/236 235/235/235
f 81/81/81 82/82/82 79/79/79
f 79/79/79 80/80/80 81/81/81
f 120/120/120 125/125/125 121/121/121
f 118/118/118 128/128/128 119/119/119
f 116/116/116 127/127/127 117/117/117
f 114/114/114 126/126/126 115/115/115
f 71/71/71 70/70/70 68/68/68
f 68/68/68 69/69/69 71/71/71
f 77/77/77 76/76/76 78/78/78
f 78/78/78 67/67/67 77/77/77
f 73/73/73 72/72/72 75/75/75
f 75/75/75 74/74/74 73/73/73
f 40/40/40 43/43/43 37/37/37
f 233/233/233 234/234/234 336/336/336
f 335/335/335 334/334/334 233/233/233
f 333/333/333 332/332/332 232/232/232
f 232/232/232 64/64/64 331/331/331
f 62/62/62 231/231/231 230/230/230
f 230/230/230 63/63/63 62/62/62
f 61/61/61 60/60/60 59/59/59
f 112/112/112 124/124/124 113/113/113
f 110/110/110 129/129/129 111/111/111
f 56/56/56 58/58/58 57/57/57
f 57/57/57 91/91/91 56/56/56
f 226/226/226 229/229/229 228/228/228
f 228/228/228 227/227/227 226/226/226
f 55/55/55 53/53/53 52/52/52
f 52/52/52 54/54/54 55/55/55
f 108/108/108 123/123/123 109/109/109
f 106/106/106 122/122/122 107/107/107
f 87/87/87 51/51/51 88/88/88
f 88/88/88 50/50/50 87/87/87
f 222/222/222 225/225/225 224/224/224
f 224/224/224 223/223/223 222/222/222
f 49/49/49 47/47/47 46/46/46
f 46/46/46 48/48/48 49/49/49
f 221/221/221 330/330/330 44/44/44
f 40/40/40 38/38/38 43/43/43
f 38/38/38 329/329/329 328/328/328
f 328/328/328 43/43/43 38/38/38
f 40/40/40 37/37/37 42/42/42
f 221/221/221 44/44/44 42/42/42
f 42/42/42 220/220/220 221/221/221
f 37/37/37 43/43/43 219/219/219
f 42/42/42 37/37/37 219/219/219
f 219/219/219 220/220/220 42/42/42
f 328/328/328 219/219/219 43/43/43
f 85/85/85 90/90/90 86/86/86
f 83/83/83 89/89/89 84/84/84
f 34/34/34 36/36/36 35/35/35
f 35/35/35 33/33/33 34/34/34
f 215/215/215 218/218/218 217/217/217
f 217/217/217 216/216/216 215/215/215
f 29/29/29 27/27/27 26/26/26
f 26/26/26 28/28/28 29/29/29
f 30/30/30 31/31/31 22/22/22
f 22/22/22 23/23/23 30/30/30
f 31/31/31 17/17/17 22/22/22
f 94/94/94 20/20/20 214/214/214
f 214/214/214 192/192/192 94/94/94
f 104/104/104 105/105/105 213/213/213
f 213/213/213 179/179/179 104/104/104
f 209/209/209 212/212/212 211/211/211
f 211/211/211 210/210/210 209/209/209
f 208/208/208 184/184/184 182/182/182
f 182/182/182 178/178/178 208/208/208
f 207/207/207 206/206/206 205/205/205
f 204/204/204 203/203/203 202/202/202
f 31/31/31 201/201/201 194/194/194
f 197/197/197 200/200/200 199/199/199
f 199/199/199 198/198/198 197/197/197
f 99/99/99 196/196/196 193/193/193
f 97/97/97 21/21/21 102/102/102
f 99/99/99 192/192/192 21/21/21
f 21/21/21 97/97/97 99/99/99
f 30/30/30 16/16/16 195/195/195
f 30/30/30 195/195/195 96/96/96
f 31/31/31 194/194/194 17/17/17
f 99/99/99 193/193/193 192/192/192
f 102/102/102 98/98/98 97/97/97
f 95/95/95 18/18/18 191/191/191
f 30/30/30 23/23/23 16/16/16
f 100/100/100 19/19/19 24/24/24
f 19/19/19 190/190/190 24/24/24
f 190/190/190 189/189/189 24/24/24
f 101/101/101 25/25/25 13/13/13
f 15/15/15 32/32/32 12/12/12
f 12/12/12 14/14/14 15/15/15
f 20/20/20 94/94/94 93/93/93
f 93/93/93 92/92/92 20/20/20
f 11/11/11 41/41/41 45/45/45
f 10/10/10 5/5/5 9/9/9
f 10/10/10 66/66/66 7/7/7
f 7/7/7 5/5/5 10/10/10
f 327/327/327 326/326/326 9/9/9
f 325/325/325 9/9/9 324/324/324
f 45/45/45 39/39/39 8/8/8
f 8/8/8 11/11/11 45/45/45
f 10/10/10 6/6/6 65/65/65
f 65/65/65 6/6/6 8/8/8
f 8/8/8 39/39/39 65/65/65
f 66/66/66 10/10/10 65/65/65
f 185/185/185 188/188/188 187/187/187
f 187/187/187 186/186/186 185/185/185
f 4/4/4 3/3/3 2/2/2
f 2/2/2 1/1/1 4/4/4
