v 0.23004226349999998 -0.0005679764999999977 0.0376840485
v -0.228145806 -0.0005679764999999707 0.4790975805
v 0.23004226349999998 -0.0005679764999999707 0.4790975805
v -0.228145806 -0.0005679764999999977 0.0376840485
v 0.2312826705 0.015498094500000004 0.059169033
v -0.229696614 0.015498094500000004 0.059169033
v 0.2312826705 -0.013241906999999995 0.059169033
v -0.229696614 -0.013241906999999995 0.059169033
v 0.23004226349999998 -0.0005679764999999707 0.4790975805
v -0.22814577449999998 -0.0005679764999999977 0.0376840485
v -0.228145806 -0.0005679764999999977 0.0376840485
v 0.23004226349999998 -0.0005679764999999707 0.479097612
v 0.23004226349999998 -0.0005679764999999977 0.0376840485
v -0.228145806 -0.0005679764999999707 0.479097612
v 0.2312826705 -0.0005101109999999957 0.06992870849999999
v -0.2296966455 0.0008585325000000044 0.06992870849999999
v 0.2312826705 0.01549809450000003 0.449401617
v 0.2312826705 -0.0005101109999999719 0.4601612925
v -0.2296966455 0.0008585325000000282 0.4601612925
v -0.2296965825 0.01549809450000003 0.449401617
v 0.2312826705 -0.013241906999999971 0.449401617
v -0.2296965825 -0.013241906999999971 0.449401617
v -0.0007983675 0.00017882550000002944 0.4812092775
v -0.0007171605 0.01549809450000003 0.470449602
v -0.000877338 -0.013241906999999971 0.470449602
v -0.290792628 0.042829668 -2.6225607912371912e-18
v -0.205133292 0.042829668 -2.6225607912371912e-18
v -0.290792628 -0.0428295735 2.622555004781065e-18
v -0.205133292 -0.0428295735 2.622555004781065e-18
v -0.290792628 0.04282966800000001 0.106187886
v -0.205133292 0.04282966800000001 0.106187886
v -0.290792628 -0.042829573499999996 0.106187886
v -0.205133292 -0.042829573499999996 0.106187886
v -0.27031498200000004 0.022352053500000007 0.1400644665
v -0.22561093799999998 0.022352053500000007 0.1400644665
v -0.22561093799999998 -0.02235199049999999 0.1400644665
v -0.27031498200000004 -0.02235199049999999 0.1400644665
v -0.27031498200000004 0.02235205350000003 0.5012518455
v -0.22561093799999998 0.02235205350000003 0.5012518455
v -0.22561093799999998 -0.022351990499999967 0.5012518455
v -0.27031498200000004 -0.022351990499999967 0.5012518455
v -0.247107609 0.0006535305000000346 0.5631940125
v -0.216809775 0.0006535305000000334 0.5444689635
v -0.237745053 -0.028161692999999963 0.5444689635
v -0.27161905049999996 -0.017155214999999967 0.5444689635
v -0.27161905049999996 0.018461866500000035 0.5444689635
v -0.237745053 0.029468344500000035 0.5444689635
v -0.2225961675 -0.01715521499999997 0.5141710665
v -0.25647010200000003 -0.028161692999999967 0.5141710665
v -0.2774054115 0.0006535305000000315 0.5141710665
v -0.25647010200000003 0.02946834450000003 0.5141710665
v -0.222596136 0.01846186650000003 0.5141710665
v -0.247107609 0.0006535305000000305 0.495446049
v 0.2256109065 0.02235205350000003 0.5012518455
v 0.2703149505 0.02235205350000003 0.5012518455
v 0.2703149505 -0.022351990499999967 0.5012518455
v 0.2256109065 -0.022351990499999967 0.5012518455
v 0.2051332605 0.042829668 -2.6225607912371912e-18
v 0.2907925965 0.042829668 -2.6225607912371912e-18
v 0.2907925965 0.04282966800000001 0.106187886
v 0.2051332605 0.04282966800000001 0.106187886
v 0.2907925965 -0.0428295735 2.622555004781065e-18
v 0.2907925965 -0.042829573499999996 0.106187886
v 0.2051332605 -0.0428295735 2.622555004781065e-18
v 0.2051332605 -0.042829573499999996 0.106187886
v 0.2703149505 0.022352053500000007 0.1400644665
v 0.2256109065 0.022352053500000007 0.1400644665
v 0.2703149505 -0.02235199049999999 0.1400644665
v 0.2256109065 -0.02235199049999999 0.1400644665
v 0.2488182795 0.0006535305000000346 0.5631940125
v 0.27911611350000004 0.0006535305000000334 0.5444689635
v 0.258180867 -0.028161692999999963 0.5444689635
v 0.224306838 -0.017155214999999967 0.5444689635
v 0.224306838 0.018461866500000035 0.5444689635
v 0.258180867 0.029468344500000035 0.5444689635
v 0.2733296895 0.01846186650000003 0.5141710665
v 0.2733296895 -0.01715521499999997 0.5141710665
v 0.23945578650000002 -0.028161692999999967 0.5141710665
v 0.218520414 0.0006535305000000315 0.5141710665
v 0.23945578650000002 0.02946834450000003 0.5141710665
v 0.2488182795 0.0006535305000000305 0.495446049
v -0.205133292 0.042829668 -2.6225607912371912e-18
v -0.205133292 0.04282966800000001 0.106187886
v -0.205133292 -0.0428295735 2.622555004781065e-18
v -0.205133292 -0.042829573499999996 0.106187886
v -0.290792628 -0.0428295735 2.622555004781065e-18
v -0.290792628 0.042829668 -2.6225607912371912e-18
v -0.290792628 0.04282966800000001 0.106187886
v -0.290792628 -0.042829573499999996 0.106187886
v -0.290792628 0.04282966800000001 0.106187886
v -0.205133292 0.04282966800000001 0.106187886
v -0.205133292 0.04282966800000001 0.106187886
v -0.205133292 -0.042829573499999996 0.106187886
v -0.22561093799999998 0.022352053500000007 0.1400644665
v -0.205133292 -0.042829573499999996 0.106187886
v -0.290792628 -0.042829573499999996 0.106187886
v -0.22561093799999998 -0.02235199049999999 0.1400644665
v -0.290792628 -0.042829573499999996 0.106187886
v -0.290792628 0.04282966800000001 0.106187886
v -0.27031498200000004 0.022352053500000007 0.1400644665
v -0.27031498200000004 -0.02235199049999999 0.1400644665
v -0.27031498200000004 0.022352053500000007 0.1400644665
v -0.22561093799999998 0.022352053500000007 0.1400644665
v -0.22561093799999998 0.02235205350000003 0.5012518455
v -0.27031498200000004 0.02235205350000003 0.5012518455
v -0.22561093799999998 0.022352053500000007 0.1400644665
v -0.22561093799999998 -0.02235199049999999 0.1400644665
v -0.22561093799999998 -0.022351990499999967 0.5012518455
v -0.22561093799999998 0.02235205350000003 0.5012518455
v -0.22561093799999998 -0.02235199049999999 0.1400644665
v -0.27031498200000004 -0.02235199049999999 0.1400644665
v -0.27031498200000004 -0.022351990499999967 0.5012518455
v -0.22561093799999998 -0.022351990499999967 0.5012518455
v -0.27031498200000004 -0.02235199049999999 0.1400644665
v -0.27031498200000004 0.022352053500000007 0.1400644665
v -0.27031498200000004 0.02235205350000003 0.5012518455
v -0.27031498200000004 -0.022351990499999967 0.5012518455
v 0.2907925965 0.042829668 -2.6225607912371912e-18
v 0.2907925965 0.04282966800000001 0.106187886
v 0.2907925965 -0.0428295735 2.622555004781065e-18
v 0.2907925965 -0.042829573499999996 0.106187886
v 0.2051332605 -0.0428295735 2.622555004781065e-18
v 0.2051332605 0.042829668 -2.6225607912371912e-18
v 0.2051332605 0.04282966800000001 0.106187886
v 0.2051332605 -0.042829573499999996 0.106187886
v 0.2051332605 0.04282966800000001 0.106187886
v 0.2907925965 0.04282966800000001 0.106187886
v 0.2907925965 0.04282966800000001 0.106187886
v 0.2907925965 -0.042829573499999996 0.106187886
v 0.2703149505 0.022352053500000007 0.1400644665
v 0.2907925965 -0.042829573499999996 0.106187886
v 0.2051332605 -0.042829573499999996 0.106187886
v 0.2703149505 -0.02235199049999999 0.1400644665
v 0.2051332605 -0.042829573499999996 0.106187886
v 0.2051332605 0.04282966800000001 0.106187886
v 0.2256109065 0.022352053500000007 0.1400644665
v 0.2256109065 -0.02235199049999999 0.1400644665
v 0.2256109065 0.022352053500000007 0.1400644665
v 0.2703149505 0.022352053500000007 0.1400644665
v 0.2703149505 0.02235205350000003 0.5012518455
v 0.2256109065 0.02235205350000003 0.5012518455
v 0.2703149505 0.022352053500000007 0.1400644665
v 0.2703149505 -0.02235199049999999 0.1400644665
v 0.2703149505 -0.022351990499999967 0.5012518455
v 0.2703149505 0.02235205350000003 0.5012518455
v 0.2703149505 -0.02235199049999999 0.1400644665
v 0.2256109065 -0.02235199049999999 0.1400644665
v 0.2256109065 -0.022351990499999967 0.5012518455
v 0.2703149505 -0.022351990499999967 0.5012518455
v 0.2256109065 -0.02235199049999999 0.1400644665
v 0.2256109065 0.022352053500000007 0.1400644665
v 0.2256109065 0.02235205350000003 0.5012518455
v 0.2256109065 -0.022351990499999967 0.5012518455
vt 0.004466 0.840280
vt 0.496522 0.005573
vt 0.496522 0.840280
vt 0.004466 0.005573
vt 0.003989 0.873527
vt 0.487604 0.872481
vt 0.003138 0.929263
vt 0.486363 0.929433
vt 0.496522 0.840280
vt 0.004466 0.005573
vt 0.004466 0.005573
vt 0.496522 0.840280
vt 0.004466 0.840280
vt 0.496522 0.005573
vt 0.002286 0.900379
vt 0.486338 0.901024
vt 0.007046 0.870122
vt 0.007046 0.898663
vt 0.489492 0.900836
vt 0.489397 0.870268
vt 0.010788 0.925148
vt 0.488588 0.925148
vt 0.243923 0.897873
vt 0.239544 0.870195
vt 0.243096 0.925148
vt 0.513761 0.990808
vt 0.608222 0.990808
vt 0.610149 0.990831
vt 0.607952 0.993656
vt 0.513761 0.891898
vt 0.608222 0.891898
vt 0.610149 0.891130
vt 0.607952 0.893127
vt 0.536343 0.857606
vt 0.585641 0.857606
vt 0.586674 0.858834
vt 0.587907 0.857745
vt 0.542961 0.965830
vt 0.584237 0.965830
vt 0.584237 0.917073
vt 0.542961 0.917073
vt 0.672977 0.553173
vt 0.694404 0.553173
vt 0.679598 0.535688
vt 0.655642 0.542367
vt 0.655642 0.563979
vt 0.679598 0.570658
vt 0.701842 0.529749
vt 0.660949 0.515495
vt 0.635676 0.552812
vt 0.660949 0.590130
vt 0.701842 0.575876
vt 0.672252 0.552812
vt 0.542961 0.965830
vt 0.584237 0.965830
vt 0.584237 0.917073
vt 0.542961 0.917073
vt 0.513761 0.990808
vt 0.608222 0.990808
vt 0.608222 0.891898
vt 0.513761 0.891898
vt 0.607952 0.993656
vt 0.607952 0.893127
vt 0.610149 0.990831
vt 0.610149 0.891130
vt 0.585641 0.857606
vt 0.536343 0.857606
vt 0.586674 0.858834
vt 0.587907 0.857745
vt 0.672977 0.553173
vt 0.694404 0.553173
vt 0.679598 0.535688
vt 0.655642 0.542367
vt 0.655642 0.563979
vt 0.679598 0.570658
vt 0.701842 0.575876
vt 0.701842 0.529749
vt 0.660949 0.515495
vt 0.635676 0.552812
vt 0.660949 0.590130
vt 0.672252 0.552812
vt 0.518943 0.993656
vt 0.518943 0.893127
vt 0.517109 0.990831
vt 0.517109 0.891130
vt 0.517987 0.990805
vt 0.610970 0.990805
vt 0.610970 0.890802
vt 0.517988 0.890802
vt 0.513761 0.891898
vt 0.608222 0.891898
vt 0.518943 0.893127
vt 0.607952 0.893127
vt 0.540222 0.858834
vt 0.517109 0.891130
vt 0.610149 0.891130
vt 0.539351 0.857745
vt 0.517988 0.890802
vt 0.610970 0.890802
vt 0.588742 0.856679
vt 0.540216 0.856679
vt 0.536343 0.857606
vt 0.585641 0.857606
vt 0.585641 0.521172
vt 0.536343 0.521172
vt 0.540222 0.858834
vt 0.586674 0.858834
vt 0.586674 0.516897
vt 0.540222 0.516897
vt 0.539351 0.857745
vt 0.587907 0.857745
vt 0.587907 0.518622
vt 0.539351 0.518622
vt 0.540216 0.856679
vt 0.588742 0.856679
vt 0.588742 0.516530
vt 0.540216 0.516530
vt 0.518943 0.993656
vt 0.518943 0.893127
vt 0.517109 0.990831
vt 0.517109 0.891130
vt 0.517987 0.990805
vt 0.610970 0.990805
vt 0.610970 0.890802
vt 0.517988 0.890802
vt 0.513761 0.891898
vt 0.608222 0.891898
vt 0.518943 0.893127
vt 0.607952 0.893127
vt 0.540222 0.858834
vt 0.517109 0.891130
vt 0.610149 0.891130
vt 0.539351 0.857745
vt 0.517988 0.890802
vt 0.610970 0.890802
vt 0.588742 0.856679
vt 0.540216 0.856679
vt 0.536343 0.857606
vt 0.585641 0.857606
vt 0.585641 0.521172
vt 0.536343 0.521172
vt 0.540222 0.858834
vt 0.586674 0.858834
vt 0.586674 0.516897
vt 0.540222 0.516897
vt 0.539351 0.857745
vt 0.587907 0.857745
vt 0.587907 0.518622
vt 0.539351 0.518622
vt 0.540216 0.856679
vt 0.588742 0.856679
vt 0.588742 0.516530
vt 0.540216 0.516530
vn 0 -1 6.123233995736766E-17
vn 0 -1 6.123233995736766E-17
vn 0 -1 6.123233995736766E-17
vn 0 -1 6.123233995736766E-17
vn 0 0.557838 0.82995
vn 0.000884 0.575246 0.81798
vn -0.000965 -0.626374 0.779522
vn 0 -0.606631 0.794984
vn 0 1 -6.123233995736766E-17
vn 0 1 -6.123233995736766E-17
vn 0 1 -6.123233995736766E-17
vn 0 1 -6.123233995736766E-17
vn 0 1 -6.123233995736766E-17
vn 0 1 -6.123233995736766E-17
vn -7.8E-05 0.19866900000000007 0.980067
vn -7.8E-05 -0.27233599999999997 0.962202
vn 0.075084 0.556264 0.827607
vn 0.088602 0.18901800000000005 0.977968
vn -0.0893 0.22275900000000007 0.970775
vn -0.073865 0.590606 0.803573
vn 0.068871 -0.634198 0.770098
vn -0.073149 -0.614366 0.785623
vn -0.001076 -0.2787279999999999 0.960369
vn 0.000714 0.575001 0.818152
vn -0.000527 -0.625512 0.780215
vn 0 1 -6.123233995736766E-17
vn 0 1 -6.123233995736766E-17
vn 0 -1 6.123233995736766E-17
vn 1 0 0
vn 0 1 -6.123233995736766E-17
vn 0 1 -6.123233995736766E-17
vn 0 -1 6.123233995736766E-17
vn 1 0 0
vn 0 0.855798 0.51731
vn 0 0.855798 0.51731
vn 0.855797 3.167616301568582E-17 0.517311
vn 0 -0.855798 0.51731
vn 0 6.123233995736766E-17 1
vn 0 6.123233995736766E-17 1
vn 0 6.123233995736766E-17 1
vn 0 6.123233995736766E-17 1
vn -1E-06 3.0000000000612325E-06 1
vn 0.91399 2.0000000000248442E-06 0.405737
vn 0.28244 -0.869255 0.40573900000000007
vn -0.739434 -0.537227 0.40573800000000004
vn -0.739433 0.537229 0.40573799999999993
vn 0.282438 0.869256 0.40573599999999993
vn 0.739435 -0.537227 -0.40573799999999993
vn -0.282439 -0.869255 -0.40573899999999996
vn -0.91399 2.9999999999751558E-06 -0.405737
vn -0.282437 0.869257 -0.40573600000000004
vn 0.739433 0.537229 -0.40573800000000004
vn 1E-06 2.9999999999387676E-06 -1
vn 0 6.123233995736766E-17 1
vn 0 6.123233995736766E-17 1
vn 0 6.123233995736766E-17 1
vn 0 6.123233995736766E-17 1
vn 0 1 -6.123233995736766E-17
vn 0 1 -6.123233995736766E-17
vn 0 1 -6.123233995736766E-17
vn 0 1 -6.123233995736766E-17
vn 1 0 0
vn 1 0 0
vn 0 -1 6.123233995736766E-17
vn 0 -1 6.123233995736766E-17
vn 0 0.855798 0.51731
vn 0 0.855798 0.51731
vn 0.855797 3.167616301568582E-17 0.517311
vn 0 -0.855798 0.51731
vn -1E-06 3.0000000000612325E-06 1
vn 0.913991 3.000000000024844E-06 0.405735
vn 0.28244 -0.869255 0.40573900000000007
vn -0.739434 -0.537227 0.40573900000000007
vn -0.739433 0.53723 0.40573799999999993
vn 0.282438 0.869257 0.40573599999999993
vn 0.739433 0.537229 -0.40573900000000007
vn 0.739435 -0.537226 -0.40573899999999996
vn -0.282439 -0.869255 -0.40573899999999996
vn -0.91399 2.9999999999751558E-06 -0.405736
vn -0.282437 0.869257 -0.40573600000000004
vn 2E-06 2.9999999999387676E-06 -1
vn 1 0 0
vn 1 0 0
vn 0 -1 6.123233995736766E-17
vn 0 -1 6.123233995736766E-17
vn -1 0 0
vn -1 0 0
vn -1 0 0
vn -1 0 0
vn 0 0.855798 0.51731
vn 0 0.855798 0.51731
vn 0.855797 3.167616301568582E-17 0.517311
vn 0.855797 3.167616301568582E-17 0.517311
vn 0.855797 3.167616301568582E-17 0.517311
vn 0 -0.855798 0.51731
vn 0 -0.855798 0.51731
vn 0 -0.855798 0.51731
vn -0.855797 3.167616301568582E-17 0.517311
vn -0.855797 3.167616301568582E-17 0.517311
vn -0.855797 3.167616301568582E-17 0.517311
vn -0.855797 3.167616301568582E-17 0.517311
vn 0 1 -6.123233995736766E-17
vn 0 1 -6.123233995736766E-17
vn 0 1 -6.123233995736766E-17
vn 0 1 -6.123233995736766E-17
vn 1 0 0
vn 1 0 0
vn 1 0 0
vn 1 0 0
vn 0 -1 6.123233995736766E-17
vn 0 -1 6.123233995736766E-17
vn 0 -1 6.123233995736766E-17
vn 0 -1 6.123233995736766E-17
vn -1 0 0
vn -1 0 0
vn -1 0 0
vn -1 0 0
vn 1 0 0
vn 1 0 0
vn 0 -1 6.123233995736766E-17
vn 0 -1 6.123233995736766E-17
vn -1 0 0
vn -1 0 0
vn -1 0 0
vn -1 0 0
vn 0 0.855798 0.51731
vn 0 0.855798 0.51731
vn 0.855797 3.167616301568582E-17 0.517311
vn 0.855797 3.167616301568582E-17 0.517311
vn 0.855797 3.167616301568582E-17 0.517311
vn 0 -0.855798 0.51731
vn 0 -0.855798 0.51731
vn 0 -0.855798 0.51731
vn -0.855797 3.167616301568582E-17 0.517311
vn -0.855797 3.167616301568582E-17 0.517311
vn -0.855797 3.167616301568582E-17 0.517311
vn -0.855797 3.167616301568582E-17 0.517311
vn 0 1 -6.123233995736766E-17
vn 0 1 -6.123233995736766E-17
vn 0 1 -6.123233995736766E-17
vn 0 1 -6.123233995736766E-17
vn 1 0 0
vn 1 0 0
vn 1 0 0
vn 1 0 0
vn 0 -1 6.123233995736766E-17
vn 0 -1 6.123233995736766E-17
vn 0 -1 6.123233995736766E-17
vn 0 -1 6.123233995736766E-17
vn -1 0 0
vn -1 0 0
vn -1 0 0
vn -1 0 0
g chinese
f 76/76/76 77/77/77 81/81/81
f 80/80/80 76/76/76 81/81/81
f 79/79/79 80/80/80 81/81/81
f 78/78/78 79/79/79 81/81/81
f 77/77/77 78/78/78 81/81/81
f 75/75/75 71/71/71 76/76/76
f 74/74/74 75/75/75 80/80/80
f 73/73/73 74/74/74 79/79/79
f 72/72/72 73/73/73 78/78/78
f 71/71/71 72/72/72 77/77/77
f 76/76/76 80/80/80 75/75/75
f 80/80/80 79/79/79 74/74/74
f 79/79/79 78/78/78 73/73/73
f 78/78/78 77/77/77 72/72/72
f 77/77/77 76/76/76 71/71/71
f 71/71/71 75/75/75 70/70/70
f 75/75/75 74/74/74 70/70/70
f 74/74/74 73/73/73 70/70/70
f 73/73/73 72/72/72 70/70/70
f 72/72/72 71/71/71 70/70/70
f 150/150/150 153/153/153 152/152/152
f 152/152/152 151/151/151 150/150/150
f 146/146/146 149/149/149 148/148/148
f 148/148/148 147/147/147 146/146/146
f 142/142/142 145/145/145 144/144/144
f 144/144/144 143/143/143 142/142/142
f 138/138/138 141/141/141 140/140/140
f 140/140/140 139/139/139 138/138/138
f 134/134/134 137/137/137 136/136/136
f 136/136/136 135/135/135 134/134/134
f 131/131/131 133/133/133 69/69/69
f 69/69/69 132/132/132 131/131/131
f 128/128/128 130/130/130 68/68/68
f 68/68/68 129/129/129 128/128/128
f 126/126/126 67/67/67 66/66/66
f 66/66/66 127/127/127 126/126/126
f 122/122/122 125/125/125 124/124/124
f 124/124/124 123/123/123 122/122/122
f 120/120/120 121/121/121 65/65/65
f 65/65/65 64/64/64 120/120/120
f 118/118/118 119/119/119 63/63/63
f 63/63/63 62/62/62 118/118/118
f 58/58/58 61/61/61 60/60/60
f 60/60/60 59/59/59 58/58/58
f 54/54/54 57/57/57 56/56/56
f 56/56/56 55/55/55 54/54/54
f 52/52/52 48/48/48 53/53/53
f 51/51/51 52/52/52 53/53/53
f 50/50/50 51/51/51 53/53/53
f 49/49/49 50/50/50 53/53/53
f 48/48/48 49/49/49 53/53/53
f 47/47/47 43/43/43 52/52/52
f 46/46/46 47/47/47 51/51/51
f 45/45/45 46/46/46 50/50/50
f 44/44/44 45/45/45 49/49/49
f 43/43/43 44/44/44 48/48/48
f 52/52/52 51/51/51 47/47/47
f 51/51/51 50/50/50 46/46/46
f 50/50/50 49/49/49 45/45/45
f 49/49/49 48/48/48 44/44/44
f 48/48/48 52/52/52 43/43/43
f 43/43/43 47/47/47 42/42/42
f 47/47/47 46/46/46 42/42/42
f 46/46/46 45/45/45 42/42/42
f 45/45/45 44/44/44 42/42/42
f 44/44/44 43/43/43 42/42/42
f 114/114/114 117/117/117 116/116/116
f 116/116/116 115/115/115 114/114/114
f 110/110/110 113/113/113 112/112/112
f 112/112/112 111/111/111 110/110/110
f 106/106/106 109/109/109 108/108/108
f 108/108/108 107/107/107 106/106/106
f 102/102/102 105/105/105 104/104/104
f 104/104/104 103/103/103 102/102/102
f 98/98/98 101/101/101 100/100/100
f 100/100/100 99/99/99 98/98/98
f 95/95/95 97/97/97 37/37/37
f 37/37/37 96/96/96 95/95/95
f 92/92/92 94/94/94 36/36/36
f 36/36/36 93/93/93 92/92/92
f 90/90/90 34/34/34 35/35/35
f 35/35/35 91/91/91 90/90/90
f 86/86/86 89/89/89 88/88/88
f 88/88/88 87/87/87 86/86/86
f 84/84/84 85/85/85 32/32/32
f 32/32/32 28/28/28 84/84/84
f 82/82/82 83/83/83 33/33/33
f 33/33/33 29/29/29 82/82/82
f 26/26/26 30/30/30 31/31/31
f 31/31/31 27/27/27 26/26/26
f 38/38/38 41/41/41 40/40/40
f 40/40/40 39/39/39 38/38/38
f 22/22/22 25/25/25 23/23/23
f 23/23/23 19/19/19 22/22/22
f 19/19/19 23/23/23 24/24/24
f 24/24/24 20/20/20 19/19/19
f 21/21/21 18/18/18 23/23/23
f 23/23/23 25/25/25 21/21/21
f 18/18/18 17/17/17 24/24/24
f 24/24/24 23/23/23 18/18/18
f 7/7/7 15/15/15 16/16/16
f 16/16/16 8/8/8 7/7/7
f 15/15/15 5/5/5 6/6/6
f 6/6/6 16/16/16 15/15/15
f 11/11/11 14/14/14 12/12/12
f 9/9/9 13/13/13 10/10/10
f 3/3/3 2/2/2 4/4/4
f 4/4/4 1/1/1 3/3/3
