v 0.580714 -1.809647 0.26426300000000014
v 0.596035 -1.860528 0.3393810000000001
v 0.556353 -1.85646 0.25646400000000014
v -0.701345 1.061776 -0.008990000000000064
v -0.546604 1.071077 -0.00021700000000006558
v -0.546329 1.074963 -0.0002170000000000658
v -1.531088 -0.632896 -0.01735099999999996
v -1.540389 -0.491789 -0.008577999999999971
v -1.544275 -0.491514 -0.008577999999999971
v 1.21242 -0.134833 0.01484500000000001
v 1.137679 -0.08274499999999999 0.176551
v 1.103967 -0.142969 0.07385300000000002
v -1.873519 -0.894457 0.40553100000000003
v -1.842044 -0.861092 0.3257650000000001
v -1.831762 -0.913437 0.3257650000000001
v -1.742781 -0.864642 0.3421350000000001
v -1.708142 -0.828003 0.26516700000000004
v -1.694632 -0.879609 0.26516700000000004
v -1.200498 1.37766 0.3507749999999999
v -1.201376 1.337541 0.26797399999999993
v -1.155811 1.365078 0.2713319999999999
v -1.764619 0.658187 0.3478899999999999
v -1.719502 0.666451 0.2681239999999999
v -1.742195 0.618174 0.2681239999999999
v -1.55292 1.133195 0.34418899999999997
v -1.50007 1.123364 0.2695119999999999
v -1.544588 1.095308 0.26075299999999996
v -1.297343 1.263992 0.5144749999999999
v -1.264253 1.272843 0.42907499999999993
v -1.266374 1.220569 0.43949699999999997
v 1.292567 1.322574 1.189818
v 1.66508 1.322574 1.189818
v 1.66508 1.322574 1.421803
v 1.66508 1.322574 1.421803
v 1.292567 1.322574 1.421803
v 1.292567 1.322574 1.189818
v 1.216384 -1.568315 0.3371860000000001
v 1.237532 -1.614592 0.4138520000000001
v 1.190892 -1.6151 0.3345370000000001
v 1.137679 -0.08274499999999999 0.176551
v 1.048548 -0.047732 0.017561000000000004
v 1.103967 -0.142969 0.07385300000000002
v 1.048548 -0.047732 0.017561000000000004
v 1.19551 0.02632000000000001 0.168149
v 1.106378 0.061334 0.009158999999999997
v 1.344871 -0.252669 0.19088100000000002
v 1.410255 -0.291832 0.021650000000000016
v 1.407451 -0.171556 -0.00726699999999999
v 1.342067 -0.132393 0.161964
v 1.344871 -0.252669 0.19088100000000002
v 1.407451 -0.171556 -0.00726699999999999
v 1.323228 -0.097355 0.044799000000000005
v 1.224371 -0.168529 0.02307600000000001
v 1.407451 -0.171556 -0.00726699999999999
v 0.646296 0.784958 0.24843699999999994
v 0.783747 0.921561 0.24810099999999993
v 0.784009 0.921299 0.12816799999999995
v 0.646564 0.78469 0.12781699999999993
v 0.646296 0.784958 0.24843699999999994
v 0.742049 0.689205 0.12940899999999994
v 0.879034 0.826273 0.13153799999999993
v 0.87839 0.826918 0.24967799999999996
v 0.87839 0.826918 0.24967799999999996
v 0.741781 0.689472 0.25002899999999995
v 0.718528 0.967985 -0.003671000000000059
v 0.581101 0.831359 -0.004271000000000051
v 0.579211 0.833249 0.13076599999999994
v 0.579211 0.833249 0.13076599999999994
v 0.716654 0.969859 0.13017399999999996
v 0.80841 0.878103 0.13108499999999995
v 0.671783 0.740676 0.13168499999999994
v 0.673673 0.738786 -0.003352000000000045
v 0.810283 0.87623 -0.0027600000000000536
v 0.80841 0.878103 0.13108499999999995
v 0.833176 0.852534 -0.003671000000000052
v 0.697354 0.714251 -0.004271000000000043
v 0.695474 0.716157 0.13076599999999994
v 0.695474 0.716157 0.13076599999999994
v 0.831312 0.854424 0.13017399999999996
v 0.922573 0.761862 0.13108499999999995
v 0.787547 0.622772 0.13168499999999997
v 0.789427 0.620865 -0.003352000000000038
v 0.924436 0.759972 -0.0027600000000000463
v 0.922573 0.761862 0.13108499999999995
v -0.501865 -1.90077 0.3375660000000001
v -0.482231 -1.850051 0.2633470000000001
v -0.530358 -1.871536 0.25510500000000014
v -0.530358 -1.871536 0.25510500000000014
v -0.468559 -1.736832 -0.06316899999999989
v -0.530189 -1.764344 -0.07372399999999989
v -0.530358 -1.871536 0.25510500000000014
v -0.482231 -1.850051 0.2633470000000001
v -0.501865 -1.90077 0.3375660000000001
v -0.530358 -1.871536 0.25510500000000014
v -0.482231 -1.850051 0.2633470000000001
v -0.530189 -1.764344 -0.07372399999999989
v -0.468559 -1.736832 -0.06316899999999989
v -0.942222 -1.912453 0.3393810000000001
v -0.939576 -1.85938 0.26426300000000014
v -0.90468 -1.898969 0.25646400000000014
v -0.90468 -1.898969 0.25646400000000014
v -0.907153 -1.756016 -0.06419299999999989
v -0.862467 -1.806711 -0.07417899999999988
v -1.751582 -0.835696 -0.007086999999999949
v -1.738415 -0.902728 -0.007086999999999945
v -1.831762 -0.913437 0.3257650000000001
v -1.842044 -0.861092 0.3257650000000001
v -1.751582 -0.835696 -0.007086999999999949
v -1.597188 -0.791221 -0.06033999999999995
v -1.579889 -0.857308 -0.06033999999999994
v -1.694632 -0.879609 0.26516700000000004
v -1.708142 -0.828003 0.26516700000000004
v -1.597188 -0.791221 -0.06033999999999995
v -1.631555 0.633379 -0.06472700000000005
v -1.660617 0.571556 -0.06472700000000005
v -1.742195 0.618174 0.2681239999999999
v -1.719502 0.666451 0.2681239999999999
v -1.631555 0.633379 -0.06472700000000005
v -1.55292 1.133195 0.34418899999999997
v -1.544588 1.095308 0.26075299999999996
v -1.50007 1.123364 0.2695119999999999
v -1.50007 1.123364 0.2695119999999999
v -1.456354 1.044249 -0.06974100000000007
v -1.399345 1.080177 -0.05852500000000007
v -1.399345 1.080177 -0.05852500000000007
v -1.456354 1.044249 -0.06974100000000007
v -1.544588 1.095308 0.26075299999999996
v -1.544588 1.095308 0.26075299999999996
v -1.50007 1.123364 0.2695119999999999
v -1.264253 1.272843 0.42907499999999993
v -1.297343 1.263992 0.5144749999999999
v -1.266374 1.220569 0.43949699999999997
v -1.264253 1.272843 0.42907499999999993
v -1.194889 1.144304 0.10981199999999994
v -1.192174 1.211245 0.09646599999999993
v -1.192174 1.211245 0.09646599999999993
v -1.194889 1.144304 0.10981199999999994
v -1.266374 1.220569 0.43949699999999997
v -1.264253 1.272843 0.42907499999999993
v -1.192174 1.211245 0.09646599999999993
v 1.528655 -1.281104 0.41181300000000004
v 1.500906 -1.241677 0.33344300000000004
v 1.47528 -1.288311 0.33721100000000004
v 1.356487 -1.257721 0.013837000000000077
v 1.500906 -1.241677 0.33344300000000004
v 1.500906 -1.241677 0.33344300000000004
v 1.389303 -1.198001 0.009012000000000072
v 1.237532 -1.614592 0.4138520000000001
v 1.216384 -1.568315 0.3371860000000001
v 1.190892 -1.6151 0.3345370000000001
v 1.100383 -1.555714 0.006055000000000095
v 1.216384 -1.568315 0.3371860000000001
v 1.216384 -1.568315 0.3371860000000001
v 1.133028 -1.495802 0.009448000000000092
v 1.793985 0.903965 0.18704099999999996
v 1.793993 0.903277 -0.0067440000000000555
v 1.682785 0.838954 -0.006744000000000051
v 1.682186 0.839291 0.18704099999999996
v 1.793985 0.903965 0.18704099999999996
v 1.751074 0.723829 -0.006744000000000044
v 1.751082 0.723141 0.18704099999999996
v 1.682186 0.839291 0.18704099999999996
v 1.682785 0.838954 -0.006744000000000051
v 1.751074 0.723829 -0.006744000000000044
v 1.751082 0.723141 0.18704099999999996
v 1.751074 0.723829 -0.006744000000000044
v 1.862282 0.788153 -0.006744000000000049
v 1.862282 0.788153 -0.006744000000000049
v 1.862882 0.787816 0.18704099999999996
v 0.78478 0.69292 0.24843699999999994
v 0.922231 0.829523 0.24810099999999993
v 0.922493 0.829261 0.12816799999999995
v 0.785048 0.692652 0.12781699999999993
v 0.78478 0.69292 0.24843699999999994
v 0.880533 0.597167 0.12940899999999997
v 1.017518 0.734235 0.13153799999999993
v 1.016874 0.73488 0.24967799999999996
v 1.016874 0.73488 0.24967799999999996
v 0.880266 0.597435 0.25002899999999995
v 0.966378 0.758274 -0.003671000000000046
v 0.830557 0.619991 -0.004271000000000038
v 0.828677 0.621897 0.13076599999999997
v 0.828677 0.621897 0.13076599999999997
v 0.964515 0.760164 0.13017399999999996
v 1.055776 0.667602 0.13108499999999998
v 0.92075 0.528512 0.13168499999999997
v 0.92263 0.526605 -0.003352000000000032
v 1.057639 0.665712 -0.0027600000000000406
v 1.055776 0.667602 0.13108499999999998
v 1.275069 1.322937 1.44849
v 1.298646 1.322937 1.44849
v 1.320983 1.322937 0.8591349999999999
v 1.252732 1.322937 0.8591349999999999
v 1.275069 1.322937 1.44849
v 0.596035 -1.860528 0.3393810000000001
v 0.580714 -1.809647 0.26426300000000014
v 0.556353 -1.85646 0.25646400000000014
v 0.580714 -1.809647 0.26426300000000014
v 0.524404 -1.717101 -0.06419299999999989
v 0.524404 -1.717101 -0.06419299999999989
v 0.493208 -1.777048 -0.07417899999999988
v 0.245037 -1.564886 -0.012463999999999904
v 0.080938 -1.590205 -0.0021639999999999025
v 0.081015 -1.594778 -0.0021639999999999025
v 0.041517 -1.709699 -0.0021639999999998956
v 0.303973 -1.640103 0.2195200000000001
v 0.246454 -1.569247 0.15117300000000009
v 0.081015 -1.594778 -0.0021639999999999025
v 0.245037 -1.564886 -0.012463999999999904
v 0.373949 -1.735007 0.1475030000000001
v 0.107949 -1.893894 -0.0021639999999998843
v 0.518184 -1.980112 -0.010456999999999878
v 0.828883 -1.920941 -0.010456999999999881
v 0.730894 -1.701981 0.2834760000000001
v 1.105953 -1.839246 -0.0026999999999998874
v 0.672617 -1.53331 0.2567640000000001
v 0.897473 -1.532811 0.0888690000000001
v 1.898721 -0.967346 -0.01045699999999994
v 0.560513 -1.379013 -0.012463999999999914
v 0.245037 -1.564886 -0.012463999999999904
v 1.319207 -0.823111 0.06305400000000005
v 1.652297 -0.328613 0.01399600000000002
v 1.542262 -0.270961 0.018209000000000017
v 1.239447 -0.753135 0.25676400000000005
v 1.542262 -0.270961 0.018209000000000017
v 0.970027 -1.133385 0.20309000000000008
v 1.239447 -0.753135 0.25676400000000005
v 0.563208 -1.382722 0.15117300000000009
v 0.863518 -1.076008 -0.012463999999999933
v 0.867228 -1.078703 0.15117300000000006
v 1.239447 -0.753135 0.25676400000000005
v 1.05806 -0.694199 -0.012463999999999956
v 1.309797 -0.303966 0.017610000000000018
v 1.06242 -0.695616 0.15117300000000006
v 1.121978 -0.153038 -0.019487999999999988
v 1.152646 -0.153039 0.014273000000000008
v -0.942222 -1.912453 0.3393810000000001
v -0.90468 -1.898969 0.25646400000000014
v -0.939576 -1.85938 0.26426300000000014
v -0.90468 -1.898969 0.25646400000000014
v -0.862467 -1.806711 -0.07417899999999988
v -0.862467 -1.806711 -0.07417899999999988
v -0.907153 -1.756016 -0.06419299999999989
v -1.842044 -0.861092 0.3257650000000001
v -1.873519 -0.894457 0.40553100000000003
v -1.831762 -0.913437 0.3257650000000001
v -1.831762 -0.913437 0.3257650000000001
v -1.738415 -0.902728 -0.007086999999999945
v -1.751582 -0.835696 -0.007086999999999949
v -1.708142 -0.828003 0.26516700000000004
v -1.742781 -0.864642 0.3421350000000001
v -1.694632 -0.879609 0.26516700000000004
v -1.694632 -0.879609 0.26516700000000004
v -1.579889 -0.857308 -0.06033999999999994
v -1.597188 -0.791221 -0.06033999999999995
v -1.200498 1.37766 0.3507749999999999
v -1.155811 1.365078 0.2713319999999999
v -1.201376 1.337541 0.26797399999999993
v -1.090222 1.311955 -0.06407000000000009
v -1.148571 1.276692 -0.06837100000000008
v -1.155811 1.365078 0.2713319999999999
v -1.090222 1.311955 -0.06407000000000009
v -1.719502 0.666451 0.2681239999999999
v -1.764619 0.658187 0.3478899999999999
v -1.742195 0.618174 0.2681239999999999
v -1.742195 0.618174 0.2681239999999999
v -1.660617 0.571556 -0.06472700000000005
v -1.631555 0.633379 -0.06472700000000005
v 1.500906 -1.241677 0.33344300000000004
v 1.528655 -1.281104 0.41181300000000004
v 1.47528 -1.288311 0.33721100000000004
v 1.356487 -1.257721 0.013837000000000077
v 1.389303 -1.198001 0.009012000000000072
v 1.47528 -1.288311 0.33721100000000004
v 1.410255 -0.291832 0.021650000000000016
v 1.344871 -0.252669 0.19088100000000002
v 1.328835 -0.337906 0.10263300000000002
v 1.309996 -0.302868 -0.01453199999999998
v 1.410255 -0.291832 0.021650000000000016
v 1.227175 -0.288804 0.05199300000000002
v 1.344871 -0.252669 0.19088100000000002
v 1.227175 -0.288804 0.05199300000000002
v 1.342067 -0.132393 0.161964
v 1.224371 -0.168529 0.02307600000000001
v 0.493208 -1.777048 -0.07417899999999988
v 0.524404 -1.717101 -0.06419299999999989
v 0.580714 -1.809647 0.26426300000000014
v 0.556353 -1.85646 0.25646400000000014
v -0.226021 1.095734 -0.0046250000000000666
v 0.178705 1.031632 -0.012464000000000062
v 0.180122 1.035993 0.15117299999999995
v 0.560531 0.878112 -0.009118000000000053
v 1.149628 -0.173684 0.156797
v 1.031932 -0.20982 0.017908000000000014
v 1.034735 -0.330095 0.04682500000000002
v 1.152431 -0.293959 0.18571400000000002
v 1.034735 -0.330095 0.04682500000000002
v 1.136396 -0.379197 0.09746600000000002
v 1.117557 -0.344158 -0.01969899999999998
v 1.217815 -0.333122 0.01648200000000002
v 1.152431 -0.293959 0.18571400000000002
v 1.031932 -0.20982 0.017908000000000014
v 1.149628 -0.173684 0.156797
v 1.130788 -0.138646 0.03963200000000001
v 1.215011 -0.212847 -0.012434999999999986
v 1.149628 -0.173684 0.156797
v 1.152431 -0.293959 0.18571400000000002
v 1.217815 -0.333122 0.01648200000000002
v 0.741781 0.689472 0.25002899999999995
v 0.646296 0.784958 0.24843699999999994
v 0.646564 0.78469 0.12781699999999993
v 0.742049 0.689205 0.12940899999999994
v 0.879034 0.826273 0.13153799999999993
v 0.784009 0.921299 0.12816799999999995
v 0.783747 0.921561 0.24810099999999993
v 0.87839 0.826918 0.24967799999999996
v 0.783747 0.921561 0.24810099999999993
v 0.646296 0.784958 0.24843699999999994
v 0.741781 0.689472 0.25002899999999995
v 0.87839 0.826918 0.24967799999999996
v 0.673673 0.738786 -0.003352000000000045
v 0.671783 0.740676 0.13168499999999994
v 0.579211 0.833249 0.13076599999999994
v 0.581101 0.831359 -0.004271000000000051
v 0.810283 0.87623 -0.0027600000000000536
v 0.718528 0.967985 -0.003671000000000059
v 0.716654 0.969859 0.13017399999999996
v 0.80841 0.878103 0.13108499999999995
v 0.671783 0.740676 0.13168499999999994
v 0.80841 0.878103 0.13108499999999995
v 0.716654 0.969859 0.13017399999999996
v 0.579211 0.833249 0.13076599999999994
v 0.789427 0.620865 -0.003352000000000038
v 0.787547 0.622772 0.13168499999999997
v 0.695474 0.716157 0.13076599999999994
v 0.697354 0.714251 -0.004271000000000043
v 0.924436 0.759972 -0.0027600000000000463
v 0.833176 0.852534 -0.003671000000000052
v 0.831312 0.854424 0.13017399999999996
v 0.922573 0.761862 0.13108499999999995
v 0.787547 0.622772 0.13168499999999997
v 0.922573 0.761862 0.13108499999999995
v 0.831312 0.854424 0.13017399999999996
v 0.695474 0.716157 0.13076599999999994
v -1.155811 1.365078 0.2713319999999999
v -1.201376 1.337541 0.26797399999999993
v -1.148571 1.276692 -0.06837100000000008
v -1.090222 1.311955 -0.06407000000000009
v 1.100383 -1.555714 0.006055000000000095
v 1.133028 -1.495802 0.009448000000000092
v 1.216384 -1.568315 0.3371860000000001
v 1.190892 -1.6151 0.3345370000000001
v 1.682186 0.839291 0.18704099999999996
v 1.751082 0.723141 0.18704099999999996
v 1.862882 0.787816 0.18704099999999996
v 1.793985 0.903965 0.18704099999999996
v 1.862282 0.788153 -0.006744000000000049
v 1.793993 0.903277 -0.0067440000000000555
v 1.793985 0.903965 0.18704099999999996
v 1.862882 0.787816 0.18704099999999996
v 1.70963 -0.329799 0.00610800000000002
v 1.691276 -0.353592 0.004594000000000022
v 1.728345 -0.409215 0.45258
v 1.745312 -0.3871879999999999 0.454038
v 1.565655 -0.530485 0.004594000000000032
v 1.54924 -0.555652 0.0061080000000000335
v 1.614789 -0.570982 0.45403800000000005
v 1.629994 -0.547706 0.45258000000000004
v 1.75051 -0.3214139999999999 0.493085
v 1.925867 -0.442774 -0.034810999999999974
v 1.716561 -0.737389 -0.034610999999999954
v 1.548281 -0.608989 0.49125700000000005
v 1.768422 -0.3297669999999999 0.498893
v 1.558017 -0.62605 0.49889300000000003
v 1.731733 -0.749411 -0.027900999999999954
v 1.942136 -0.45313 -0.02790099999999997
v 1.292567 1.322574 1.189818
v 1.292567 1.322574 1.421803
v 1.66508 1.322574 1.421803
v 1.66508 1.322574 1.189818
v 0.785048 0.692652 0.12781699999999993
v 0.880533 0.597167 0.12940899999999997
v 0.880266 0.597435 0.25002899999999995
v 0.78478 0.69292 0.24843699999999994
v 0.922231 0.829523 0.24810099999999993
v 1.016874 0.73488 0.24967799999999996
v 1.017518 0.734235 0.13153799999999993
v 0.922493 0.829261 0.12816799999999995
v 0.922231 0.829523 0.24810099999999993
v 0.78478 0.69292 0.24843699999999994
v 0.880266 0.597435 0.25002899999999995
v 1.016874 0.73488 0.24967799999999996
v 0.92263 0.526605 -0.003352000000000032
v 0.92075 0.528512 0.13168499999999997
v 0.828677 0.621897 0.13076599999999997
v 0.830557 0.619991 -0.004271000000000038
v 0.964515 0.760164 0.13017399999999996
v 1.055776 0.667602 0.13108499999999998
v 1.057639 0.665712 -0.0027600000000000406
v 0.966378 0.758274 -0.003671000000000046
v 0.92075 0.528512 0.13168499999999997
v 1.055776 0.667602 0.13108499999999998
v 0.964515 0.760164 0.13017399999999996
v 0.828677 0.621897 0.13076599999999997
v 1.4202 -0.315257 0.21319900000000003
v 1.31598 -0.382168 0.07496200000000003
v 1.348807 -0.497368 0.10597400000000003
v 1.453027 -0.430456 0.24421000000000004
v 1.298646 1.322937 1.44849
v 1.275069 1.322937 1.44849
v 1.252732 1.322937 0.8591349999999999
v 1.320983 1.322937 0.8591349999999999
v 1.137679 -0.08274499999999999 0.176551
v 1.21242 -0.134833 0.01484500000000001
v 1.270251 -0.025767 0.006443000000000002
v 1.19551 0.02632000000000001 0.168149
v 1.19551 0.02632000000000001 0.168149
v 1.219629 0.075162 0.05704999999999999
v 1.106378 0.061334 0.009158999999999997
v 1.270251 -0.025767 0.006443000000000002
v 1.453027 -0.430456 0.24421000000000004
v 1.526899 -0.454772 0.07568800000000003
v 1.494072 -0.339573 0.04467600000000002
v 1.4202 -0.315257 0.21319900000000003
v 1.4202 -0.315257 0.21319900000000003
v 1.39367 -0.288066 0.09544000000000001
v 1.31598 -0.382168 0.07496200000000003
v 1.494072 -0.339573 0.04467600000000002
v -1.45937 0.384927 0.13037599999999996
v -1.576196 -0.06872 0.00018900000000000421
v -1.550176 -0.070996 -0.014972999999999995
v -1.455775 0.383401 -0.008990000000000024
v -1.265325 0.695464 0.13037599999999994
v -1.262378 0.692902 -0.008990000000000041
v -0.984816 0.930839 0.13037599999999994
v -0.982805 0.927491 -0.008990000000000057
v -0.702223 1.065582 0.13037599999999994
v -0.701345 1.061776 -0.008990000000000064
v -0.546329 1.074963 -0.0002170000000000658
v -0.854239 -1.390921 0.12201600000000008
v -0.400592 -1.507747 -0.0003279999999999077
v -0.398315 -1.481726 -0.02333299999999991
v -0.852713 -1.387326 -0.017350999999999915
v -1.164775 -1.196876 0.12201600000000007
v -1.162213 -1.193928 -0.017350999999999926
v -1.40015 -0.916366 0.12201600000000005
v -1.396803 -0.914356 -0.017350999999999943
v -1.534893 -0.633774 0.12201600000000004
v -1.531088 -0.632896 -0.01735099999999996
v -1.544275 -0.491514 -0.008577999999999971
v 0.954199 0.742245 -4.544939817165636E-17
v 1.617438 0.756017 -4.629268995754923E-17
v 1.45822 1.024597 0.7753919999999999
v 1.117215 1.024597 0.7753919999999999
v 0.62068 1.319917 -8.082160645950885E-17
v 0.946712 1.319917 0.7753919999999999
v 1.117215 1.615236 0.7753919999999999
v 0.954199 1.897589 -1.1619381474736133E-16
v 1.45822 1.615236 0.7753919999999999
v 1.621237 1.897589 -1.1619381474736133E-16
v 1.954756 1.319917 -8.082160645950885E-17
v 1.628723 1.319917 0.7753919999999999
v 1.617438 0.756017 -4.629268995754923E-17
v 1.45822 1.024597 0.7753919999999999
v 1.526899 -0.454772 0.07568800000000003
v 1.453027 -0.430456 0.24421000000000004
v 1.459324 -0.518465 0.15746300000000002
v 1.348807 -0.497368 0.10597400000000003
v 1.432795 -0.491274 0.039705000000000025
v 1.526899 -0.454772 0.07568800000000003
v -1.698326 0.070998 -9.000000000004347E-06
v -1.576196 -0.06872 0.00018900000000000421
v -1.45937 0.384927 0.13037599999999996
v -1.605297 0.446869 0.22030599999999997
v -1.843957 0.046914 0.0005019999999999971
v -1.265325 0.695464 0.13037599999999994
v -1.348484 0.749489 0.17459299999999994
v -0.984816 0.930839 0.13037599999999994
v -1.066465 1.066725 0.22030599999999995
v -0.702223 1.065582 0.13037599999999994
v -1.667774 0.512159 0.055326999999999966
v -1.605297 0.446869 0.22030599999999997
v -0.745766 1.129968 0.18858599999999995
v -0.546329 1.074963 -0.0002170000000000658
v -0.504288 1.169534 -0.0002170000000000716
v -1.257278 1.082992 0.07731399999999992
v -1.103389 1.214157 0.2430559999999999
v -0.798091 1.215683 0.12724999999999992
v -0.546979 1.330743 -0.00021700000000008147
v -0.902272 1.434345 -0.007281000000000088
v -1.170274 1.407205 -0.007281000000000086
v -1.411415 1.358458 -0.0006740000000000832
v -1.943521 0.65617 -0.00728100000000004
v -1.927583 0.078757 -4.700000000000482E-05
v -1.843957 0.046914 0.0005019999999999971
v -1.605297 0.446869 0.22030599999999997
v -0.54031 -1.629877 0.0025130000000001
v -0.400592 -1.507747 -0.0003279999999999077
v -0.854239 -1.390921 0.12201600000000008
v -0.916181 -1.536848 0.21194500000000008
v -0.529563 -1.829558 0.003024000000000112
v -1.164775 -1.196876 0.12201600000000007
v -1.218801 -1.280035 0.16623200000000007
v -1.40015 -0.916366 0.12201600000000005
v -1.536036 -0.998015 0.21194500000000005
v -1.534893 -0.633774 0.12201600000000004
v -0.981471 -1.599325 0.0469670000000001
v -0.916181 -1.536848 0.21194500000000008
v -1.599279 -0.677316 0.18022500000000002
v -1.544275 -0.491514 -0.008577999999999971
v -1.638846 -0.449473 -0.008577999999999973
v -1.552304 -1.188829 0.06895300000000007
v -1.683469 -1.03494 0.23469500000000004
v -1.684995 -0.729642 0.11889000000000004
v -1.800055 -0.492163 -0.008577999999999971
v -1.903657 -0.833823 -0.015640999999999947
v -1.876517 -1.101824 -0.015640999999999933
v -1.82777 -1.342965 -0.009034999999999918
v -1.16234 -1.976923 -0.015640999999999877
v -0.586645 -1.918638 0.0051850000000001175
v -0.529563 -1.829558 0.003024000000000112
v -0.916181 -1.536848 0.21194500000000008
v -0.117549 1.490441 -0.004625000000000091
v -0.226021 1.095734 -0.0046250000000000666
v 0.180122 1.035993 0.15117299999999995
v 0.307617 1.428383 0.2834759999999999
v -0.093596 1.739604 -0.010457000000000105
v 0.560531 0.878112 -0.009118000000000053
v 0.202033 1.745477 -0.010457000000000107
v 0.781125 1.301189 -0.00312500000000008
v 0.396694 1.807069 -0.01045700000000011
v 0.700836 1.634241 -0.0041280000000000995
v 1.628723 1.319917 0.7753919999999999
v 1.45822 1.615236 0.7753919999999999
v 1.287718 1.319917 0.8889329999999999
v 1.45822 1.024597 0.7753919999999999
v 1.117215 1.615236 0.7753919999999999
v 1.117215 1.024597 0.7753919999999999
v 0.946712 1.319917 0.7753919999999999
vt 0.294502 0.195080
vt 0.307191 0.193753
vt 0.293851 0.199766
vt 0.335106 0.766912
vt 0.306246 0.763520
vt 0.304502 0.758528
vt 0.335106 0.766912
vt 0.306246 0.763520
vt 0.304502 0.758528
vt 0.211043 0.311263
vt 0.207052 0.341439
vt 0.196551 0.325772
vt 0.385440 0.173161
vt 0.372750 0.172527
vt 0.372100 0.167573
vt 0.307191 0.188237
vt 0.293851 0.193930
vt 0.294502 0.189016
vt 0.385440 0.168637
vt 0.370837 0.170888
vt 0.372100 0.162086
vt 0.462156 0.173161
vt 0.448816 0.180503
vt 0.449466 0.175463
vt 0.385440 0.200114
vt 0.372750 0.198418
vt 0.372100 0.193755
vt 0.307191 0.200114
vt 0.294502 0.201149
vt 0.292589 0.196728
vt 0.279938 0.307978
vt 0.279938 0.371633
vt 0.242586 0.371633
vt 0.242586 0.371633
vt 0.242586 0.307978
vt 0.279938 0.307978
vt 0.372100 0.187634
vt 0.385439 0.193753
vt 0.372750 0.192325
vt 0.189281 0.345458
vt 0.180041 0.313937
vt 0.196551 0.325772
vt 0.171651 0.325350
vt 0.174697 0.359861
vt 0.157066 0.339754
vt 0.189281 0.345458
vt 0.215090 0.343418
vt 0.216570 0.364503
vt 0.190761 0.366543
vt 0.189281 0.345458
vt 0.219720 0.378588
vt 0.200697 0.384869
vt 0.186021 0.399168
vt 0.214667 0.397111
vt 0.171948 0.489044
vt 0.171967 0.456003
vt 0.153695 0.455995
vt 0.153715 0.489046
vt 0.171948 0.489044
vt 0.213092 0.489040
vt 0.213166 0.456027
vt 0.194851 0.455996
vt 0.194851 0.455996
vt 0.194922 0.489047
vt 0.077851 0.154580
vt 0.077851 0.121284
vt 0.051033 0.121284
vt 0.051033 0.121284
vt 0.051033 0.154580
vt 0.037098 0.154580
vt 0.037098 0.121284
vt 0.010829 0.121284
vt 0.010829 0.154580
vt 0.037098 0.154580
vt 0.010491 0.154580
vt 0.010491 0.121284
vt 0.037309 0.121284
vt 0.037309 0.121284
vt 0.037309 0.154580
vt 0.051244 0.154580
vt 0.051244 0.121284
vt 0.077513 0.121284
vt 0.077513 0.154580
vt 0.051244 0.154580
vt 0.462156 0.181093
vt 0.447553 0.184259
vt 0.448816 0.173926
vt 0.447553 0.170888
vt 0.391886 0.184259
vt 0.391886 0.170888
vt 0.447553 0.170888
vt 0.449466 0.166684
vt 0.462156 0.168637
vt 0.447553 0.170888
vt 0.447693 0.165808
vt 0.391886 0.170888
vt 0.392064 0.166041
vt 0.307191 0.200114
vt 0.292589 0.202740
vt 0.294502 0.198418
vt 0.292589 0.177353
vt 0.236921 0.202740
vt 0.236921 0.177353
vt 0.315170 0.190662
vt 0.315170 0.164980
vt 0.370837 0.164980
vt 0.370837 0.190662
vt 0.315170 0.190662
vt 0.236921 0.196728
vt 0.236921 0.170888
vt 0.292589 0.170888
vt 0.292589 0.196728
vt 0.236921 0.196728
vt 0.391886 0.184259
vt 0.392005 0.161195
vt 0.447646 0.162024
vt 0.447553 0.184259
vt 0.391886 0.184259
vt 0.385440 0.188237
vt 0.370837 0.190662
vt 0.372100 0.181124
vt 0.370837 0.177353
vt 0.315170 0.190662
vt 0.315170 0.177353
vt 0.315289 0.195010
vt 0.315170 0.190662
vt 0.370837 0.190662
vt 0.370837 0.190662
vt 0.370930 0.196703
vt 0.293851 0.187633
vt 0.307191 0.193753
vt 0.292589 0.196728
vt 0.292589 0.184259
vt 0.236921 0.196728
vt 0.236921 0.184258
vt 0.236921 0.184258
vt 0.237040 0.161195
vt 0.292682 0.162024
vt 0.292589 0.184259
vt 0.236921 0.184258
vt 0.307191 0.173161
vt 0.293851 0.180503
vt 0.292589 0.170888
vt 0.236921 0.170888
vt 0.292589 0.184259
vt 0.292589 0.184259
vt 0.236921 0.184258
vt 0.385439 0.173161
vt 0.372100 0.180503
vt 0.370837 0.170888
vt 0.315170 0.170888
vt 0.370837 0.184259
vt 0.370837 0.184259
vt 0.315170 0.184259
vt 0.112941 0.121284
vt 0.112962 0.154572
vt 0.092394 0.154579
vt 0.092432 0.121279
vt 0.112941 0.121284
vt 0.154633 0.154574
vt 0.154613 0.121286
vt 0.170952 0.121317
vt 0.170900 0.154608
vt 0.154633 0.154574
vt 0.154613 0.121286
vt 0.154633 0.154574
vt 0.136261 0.154578
vt 0.136261 0.154578
vt 0.136279 0.121280
vt 0.194860 0.489044
vt 0.194840 0.456003
vt 0.213112 0.455995
vt 0.213092 0.489046
vt 0.194860 0.489044
vt 0.153715 0.489040
vt 0.153642 0.456027
vt 0.171956 0.455996
vt 0.171956 0.455996
vt 0.171885 0.489047
vt 0.010491 0.154580
vt 0.010491 0.121284
vt 0.037309 0.121284
vt 0.037309 0.121284
vt 0.037309 0.154580
vt 0.051245 0.154580
vt 0.051245 0.121284
vt 0.077513 0.121284
vt 0.077513 0.154580
vt 0.051245 0.154580
vt 0.884295 0.561343
vt 0.873844 0.561343
vt 0.873844 0.460856
vt 0.884295 0.460856
vt 0.884295 0.561343
vt 0.307191 0.168637
vt 0.293851 0.173903
vt 0.292589 0.164980
vt 0.292589 0.177353
vt 0.236921 0.177353
vt 0.236921 0.177353
vt 0.236921 0.164980
vt 0.335107 0.766912
vt 0.306246 0.763520
vt 0.304502 0.758528
vt 0.287652 0.739905
vt 0.340826 0.720394
vt 0.338076 0.739448
vt 0.304502 0.758528
vt 0.335107 0.766912
vt 0.332289 0.695933
vt 0.276382 0.701997
vt 0.317207 0.639119
vt 0.361909 0.608553
vt 0.383139 0.668625
vt 0.401106 0.586505
vt 0.397766 0.699191
vt 0.424037 0.653420
vt 0.593093 0.561092
vt 0.397607 0.774403
vt 0.335107 0.766912
vt 0.558102 0.669512
vt 0.658649 0.658907
vt 0.656951 0.683427
vt 0.552659 0.707280
vt 0.656951 0.683427
vt 0.478031 0.709713
vt 0.552659 0.707280
vt 0.399968 0.743466
vt 0.470873 0.779852
vt 0.473190 0.744757
vt 0.552659 0.707280
vt 0.544048 0.780396
vt 0.632782 0.727710
vt 0.546095 0.746889
vt 0.635969 0.778516
vt 0.637817 0.770032
vt 0.307191 0.168637
vt 0.293851 0.173903
vt 0.292589 0.164980
vt 0.292589 0.177353
vt 0.236921 0.177353
vt 0.236921 0.177353
vt 0.236921 0.164980
vt 0.370837 0.190662
vt 0.385440 0.193753
vt 0.372100 0.199766
vt 0.370837 0.202740
vt 0.315170 0.202740
vt 0.315170 0.190662
vt 0.292589 0.196728
vt 0.307191 0.200114
vt 0.293851 0.205778
vt 0.292682 0.205088
vt 0.237040 0.205747
vt 0.236921 0.196728
vt 0.385440 0.173161
vt 0.372750 0.175463
vt 0.370837 0.170888
vt 0.315170 0.196728
vt 0.315170 0.170888
vt 0.370837 0.196728
vt 0.315170 0.196728
vt 0.447553 0.184259
vt 0.462156 0.188237
vt 0.448816 0.193930
vt 0.447553 0.196728
vt 0.391886 0.196728
vt 0.391886 0.184259
vt 0.292589 0.184259
vt 0.307191 0.188237
vt 0.294502 0.189016
vt 0.237040 0.205747
vt 0.236921 0.184258
vt 0.292682 0.205088
vt 0.214167 0.330260
vt 0.189281 0.345458
vt 0.196551 0.325772
vt 0.194937 0.304697
vt 0.211043 0.311263
vt 0.180041 0.313937
vt 0.189281 0.345458
vt 0.171651 0.325350
vt 0.174697 0.359861
vt 0.157066 0.339754
vt 0.236921 0.202740
vt 0.236921 0.177353
vt 0.292589 0.177353
vt 0.292589 0.202740
vt 0.636927 0.770535
vt 0.544048 0.780396
vt 0.546310 0.747571
vt 0.473190 0.744757
vt 0.174697 0.359861
vt 0.157066 0.339754
vt 0.171651 0.325350
vt 0.189281 0.345458
vt 0.180041 0.313937
vt 0.196551 0.325772
vt 0.194937 0.304697
vt 0.211043 0.311263
vt 0.207052 0.341439
vt 0.186021 0.399168
vt 0.190761 0.366543
vt 0.200697 0.384869
vt 0.219720 0.378588
vt 0.202090 0.358481
vt 0.216674 0.344077
vt 0.234305 0.364184
vt 0.218116 0.470103
vt 0.236757 0.458623
vt 0.246595 0.475989
vt 0.227892 0.487508
vt 0.263331 0.461456
vt 0.282219 0.472918
vt 0.272456 0.490179
vt 0.253602 0.478661
vt 0.171967 0.456003
vt 0.171948 0.489044
vt 0.194922 0.489047
vt 0.194851 0.455996
vt 0.886060 0.349583
vt 0.886060 0.372642
vt 0.873516 0.372642
vt 0.873516 0.349583
vt 0.905373 0.372642
vt 0.899156 0.361213
vt 0.917807 0.349785
vt 0.924024 0.361213
vt 0.037098 0.121284
vt 0.037098 0.154580
vt 0.051033 0.154580
vt 0.051033 0.121284
vt 0.886060 0.349583
vt 0.886060 0.372642
vt 0.873516 0.372642
vt 0.873516 0.349583
vt 0.905373 0.372642
vt 0.899156 0.361213
vt 0.917807 0.349785
vt 0.924024 0.361213
vt 0.051244 0.121284
vt 0.051244 0.154580
vt 0.037309 0.154580
vt 0.037309 0.121284
vt 0.370837 0.196728
vt 0.370930 0.205088
vt 0.315289 0.205747
vt 0.315170 0.196728
vt 0.315289 0.205747
vt 0.315170 0.184259
vt 0.370837 0.184259
vt 0.370930 0.205088
vt 0.833582 0.357716
vt 0.852241 0.346301
vt 0.863061 0.365141
vt 0.844393 0.376606
vt 0.136261 0.154578
vt 0.112962 0.154572
vt 0.112941 0.121284
vt 0.136279 0.121280
vt 0.738734 0.085641
vt 0.738734 0.093959
vt 0.661887 0.093959
vt 0.661887 0.085641
vt 0.821934 0.090592
vt 0.821934 0.098908
vt 0.745088 0.098908
vt 0.745088 0.090592
vt 0.207212 0.651223
vt 0.207212 0.748292
vt 0.149331 0.748292
vt 0.149331 0.651223
vt 0.210396 0.651223
vt 0.269532 0.651223
vt 0.269532 0.748292
vt 0.210396 0.748292
vt 0.279938 0.371633
vt 0.242586 0.371633
vt 0.242586 0.307978
vt 0.279938 0.307978
vt 0.246595 0.475989
vt 0.227892 0.487508
vt 0.218116 0.470103
vt 0.236757 0.458623
vt 0.272456 0.490179
vt 0.253602 0.478661
vt 0.263331 0.461456
vt 0.282219 0.472918
vt 0.194840 0.456003
vt 0.194860 0.489044
vt 0.171885 0.489047
vt 0.171956 0.455996
vt 0.886060 0.349583
vt 0.886060 0.372642
vt 0.873516 0.372642
vt 0.873516 0.349583
vt 0.917807 0.349785
vt 0.924024 0.361213
vt 0.905373 0.372642
vt 0.899156 0.361213
vt 0.051245 0.121284
vt 0.051245 0.154580
vt 0.037309 0.154580
vt 0.037309 0.121284
vt 0.178500 0.372887
vt 0.186021 0.399168
vt 0.166958 0.405312
vt 0.159437 0.379031
vt 0.889505 0.561419
vt 0.884295 0.561343
vt 0.884295 0.460856
vt 0.889512 0.461076
vt 0.216674 0.344077
vt 0.234305 0.364184
vt 0.219720 0.378588
vt 0.202090 0.358481
vt 0.190761 0.366543
vt 0.200697 0.384869
vt 0.186021 0.399168
vt 0.214667 0.397111
vt 0.216674 0.344077
vt 0.234305 0.364184
vt 0.219720 0.378588
vt 0.202090 0.358481
vt 0.190761 0.366543
vt 0.200697 0.384869
vt 0.186021 0.399168
vt 0.214667 0.397111
vt 0.546095 0.746889
vt 0.637817 0.770032
vt 0.635969 0.778516
vt 0.544048 0.780396
vt 0.473190 0.744757
vt 0.470873 0.779852
vt 0.399968 0.743466
vt 0.397607 0.774403
vt 0.338076 0.739448
vt 0.335106 0.766912
vt 0.304502 0.758528
vt 0.546095 0.746889
vt 0.637817 0.770032
vt 0.635969 0.778516
vt 0.544048 0.780396
vt 0.473190 0.744757
vt 0.470873 0.779852
vt 0.399968 0.743466
vt 0.397607 0.774403
vt 0.338076 0.739448
vt 0.335106 0.766912
vt 0.304502 0.758528
vt 0.379243 0.996279
vt 0.281760 0.995955
vt 0.281177 0.793019
vt 0.379243 0.793019
vt 0.491781 0.996279
vt 0.491781 0.793019
vt 0.603391 0.793019
vt 0.603391 0.996279
vt 0.714118 0.793019
vt 0.714118 0.996279
vt 0.832401 0.996279
vt 0.832401 0.793019
vt 0.933683 0.996279
vt 0.933796 0.793019
vt 0.214167 0.330260
vt 0.189281 0.345458
vt 0.196551 0.325772
vt 0.180041 0.313937
vt 0.194937 0.304697
vt 0.211043 0.311263
vt 0.632782 0.727710
vt 0.637817 0.770032
vt 0.546095 0.746889
vt 0.552659 0.707280
vt 0.656951 0.683427
vt 0.473190 0.744757
vt 0.478031 0.709713
vt 0.399968 0.743466
vt 0.397766 0.699191
vt 0.338076 0.739448
vt 0.558102 0.669512
vt 0.552659 0.707280
vt 0.340826 0.720394
vt 0.304502 0.758528
vt 0.287652 0.739905
vt 0.424037 0.653420
vt 0.383139 0.668625
vt 0.332289 0.695933
vt 0.276382 0.701997
vt 0.317207 0.639119
vt 0.361909 0.608553
vt 0.401106 0.586505
vt 0.593093 0.561092
vt 0.658649 0.658907
vt 0.656951 0.683427
vt 0.552659 0.707280
vt 0.632782 0.727710
vt 0.637817 0.770032
vt 0.546095 0.746889
vt 0.552659 0.707280
vt 0.656951 0.683427
vt 0.473190 0.744757
vt 0.478031 0.709713
vt 0.399968 0.743466
vt 0.397766 0.699191
vt 0.338076 0.739448
vt 0.558102 0.669512
vt 0.552659 0.707280
vt 0.340826 0.720394
vt 0.304502 0.758528
vt 0.287652 0.739905
vt 0.424037 0.653420
vt 0.383139 0.668625
vt 0.332289 0.695933
vt 0.276382 0.701997
vt 0.317207 0.639119
vt 0.361909 0.608553
vt 0.401106 0.586505
vt 0.593093 0.561092
vt 0.658649 0.658907
vt 0.656951 0.683427
vt 0.552659 0.707280
vt 0.833172 0.715788
vt 0.813398 0.776997
vt 0.747878 0.746653
vt 0.753312 0.678979
vt 0.852974 0.678644
vt 0.665984 0.763381
vt 0.821623 0.640619
vt 0.677947 0.651964
vt 0.784425 0.604094
vt 0.721395 0.597494
vt 0.962541 0.053640
vt 0.944816 0.121734
vt 0.894707 0.072337
vt 0.912432 0.004243
vt 0.876982 0.140432
vt 0.844598 0.022940
vt 0.826873 0.091034
vn 0.87271 -0.409979 -0.265132
vn 1 0 0
vn -0.87271 0.409979 0.265132
vn 0.206203 -0.855173 0.47556200000000004
vn -0.056841 0.004009000000000061 0.998375
vn 0.018443 -0.694993 0.71878
vn 0.8549 0.20736400000000002 0.475548
vn -0.004398 -0.062337999999999935 0.998045
vn 0.694681 0.020176000000000045 0.719035
vn 0.574162 -0.663848 0.4792120000000001
vn 0.092303 -0.524197 0.84658
vn -0.382378 -0.736799 0.557597
vn 0.888889 0.11111099999999997 -0.444444
vn 0.944566 0.18554200000000004 0.270868
vn -0.944566 -0.18554200000000004 -0.270869
vn 0 -0.44721400000000006 -0.894427
vn 0.910691 0.23839500000000002 0.337357
vn -0.91069 -0.23839500000000002 -0.337359
vn -1 0 0
vn -0.491043 0.84046 -0.22914000000000007
vn 0.491042 -0.84046 0.22914000000000007
vn 1 0 0
vn 0.871165 -0.409515 0.270868
vn -0.871164 0.409515 -0.270869
vn 1 0 0
vn 0.47844 -0.839537 0.25743400000000005
vn -0.47844 0.839537 -0.25743400000000005
vn 0 1 -6.123233995736766E-17
vn 0.977407 0.002490000000000013 0.211351
vn -0.977407 -0.002490000000000013 -0.211352
vn -0 -1 6.123233995736766E-17
vn -0 -1 6.123233995736766E-17
vn -0 -1 6.123233995736766E-17
vn -0 -1 6.123233995736766E-17
vn -0 -1 6.123233995736766E-17
vn -0 -1 6.123233995736766E-17
vn 0 -0.44721399999999994 0.894427
vn 0 -0.44721399999999994 0.894427
vn 0 -0.44721399999999994 0.894427
vn 0.092303 -0.524197 0.84658
vn -0.830173 0.21753600000000003 0.513314
vn -0.382378 -0.736799 0.557597
vn -0.830173 0.21753600000000003 0.513314
vn -0.018812 0.611389 0.791107
vn -0.360746 0.932261 0.027402999999999945
vn 0.455189 -0.27595499999999995 0.846553
vn 0.790966 -0.583659 0.18361500000000003
vn 0.86872 0.494008 -0.03580400000000003
vn -0.188048 0.66048 0.726914
vn 0.455189 -0.27595499999999995 0.846553
vn 0.86872 0.494008 -0.03580400000000003
vn -0.02266 0.972044 -0.23370200000000005
vn -0.751013 0.659622 0.029639999999999958
vn 0.86872 0.494008 -0.03580400000000003
vn -0.865775 0.293897 0.405042
vn 0.230927 0.711803 0.663332
vn -0.313892 0.949455 -0.002780000000000058
vn -0.948875 -0.31565 -0.0014039999999999808
vn -0.865775 0.293897 0.405042
vn 0.317461 -0.948259 0.004854000000000058
vn 0.94866 0.316279 0.0034479999999999806
vn 0.865179 -0.284167 0.413177
vn 0.865179 -0.284167 0.413177
vn -0.24052 -0.702375 0.669939
vn -0.313843 0.94931 -0.01768000000000006
vn -0.999901 0.0013919999999999991 -0.014015
vn -0.946837 0.0037070000000000193 0.321692
vn -0.946837 0.0037070000000000193 0.321692
vn 0.234781 0.713096 0.660584
vn 0.861538 -0.282302 0.421969
vn -0.001472 -0.569048 0.822303
vn 0.001392 -0.999901 0.01401500000000006
vn 0.948432 0.316856 0.008839999999999982
vn 0.861538 -0.282302 0.421969
vn -0.321551 0.946724 -0.017844000000000058
vn -0.999903 -0.0010170000000000008 -0.013905
vn -0.947766 0.0013800000000000194 0.318964
vn -0.947766 0.0013800000000000194 0.318964
vn 0.236307 0.709938 0.663436
vn 0.864918 -0.275758 0.419374
vn -0.000136 -0.565351 0.824851
vn 0.003804 -0.999892 0.01417100000000006
vn 0.94945 0.313795 0.00878699999999998
vn 0.864918 -0.275758 0.419374
vn 1 0 0
vn 0.430901 -0.85803 -0.27947999999999995
vn -0.430901 0.85803 0.27947999999999995
vn -0.430901 0.85803 0.27947999999999995
vn -0.430899 0.858031 0.27947999999999995
vn 0.430899 -0.858031 -0.27947999999999995
vn -0.430901 0.85803 0.27947999999999995
vn 0.430901 -0.85803 -0.27947999999999995
vn 1 0 0
vn -0.430901 0.85803 0.27947999999999995
vn 0.430901 -0.85803 -0.27947999999999995
vn 0.430899 -0.858031 -0.27947999999999995
vn -0.430899 0.858031 0.27947999999999995
vn 0 1 -6.123233995736766E-17
vn 0.748632 0.607665 0.2651319999999999
vn -0.748632 -0.607665 -0.2651299999999999
vn -0.748632 -0.607665 -0.2651299999999999
vn -0.748637 -0.607659 -0.2651299999999999
vn 0.748637 0.607659 0.26512899999999995
vn -0.944566 -0.18554300000000004 -0.270869
vn 0.944566 0.18554300000000004 0.270869
vn -0.944566 -0.18554200000000004 -0.270869
vn 0.944566 0.18554200000000004 0.270868
vn -0.944566 -0.18554300000000004 -0.270869
vn -0.910689 -0.23840100000000003 -0.337358
vn 0.910689 0.23840000000000003 0.337358
vn -0.91069 -0.23839500000000002 -0.337359
vn 0.910691 0.23839500000000002 0.337357
vn -0.910689 -0.23840100000000003 -0.337358
vn -0.871166 0.409513 -0.270868
vn 0.871166 -0.409513 0.270869
vn -0.871164 0.409515 -0.270869
vn 0.871165 -0.409515 0.270868
vn -0.871166 0.409513 -0.270868
vn 1 0 0
vn -0.47844 0.839537 -0.25743400000000005
vn 0.47844 -0.839537 0.25743400000000005
vn 0.47844 -0.839537 0.25743400000000005
vn 0.478438 -0.839538 0.25743400000000005
vn -0.478438 0.839538 -0.25743400000000005
vn -0.478438 0.839538 -0.25743400000000005
vn 0.478438 -0.839538 0.25743400000000005
vn -0.47844 0.839537 -0.25743400000000005
vn -0.47844 0.839537 -0.25743400000000005
vn 0.47844 -0.839537 0.25743400000000005
vn 0.977407 0.002490000000000013 0.211351
vn 0 1 -6.123233995736766E-17
vn -0.977407 -0.002490000000000013 -0.211352
vn 0.977407 0.002490000000000013 0.211351
vn 0.977407 0.002493000000000013 0.211351
vn -0.977407 -0.002493000000000013 -0.211351
vn -0.977407 -0.002493000000000013 -0.211351
vn 0.977407 0.002493000000000013 0.211351
vn -0.977407 -0.002490000000000013 -0.211352
vn 0.977407 0.002490000000000013 0.211351
vn -0.977407 -0.002493000000000013 -0.211351
vn 1 0 0
vn 1 0 0
vn 1 0 0
vn 1 0 0
vn 1 0 0
vn 1 0 0
vn 1 0 0
vn 0 -0.44721399999999994 0.894427
vn 0 -0.44721399999999994 0.894427
vn 0 -0.44721399999999994 0.894427
vn 1 0 0
vn 0 -0.44721399999999994 0.894427
vn 0 -0.44721399999999994 0.894427
vn 1 0 0
vn 0.23867 0.913724 0.3288539999999999
vn 0.252739 0.967529 -0.0034230000000000592
vn -0.836157 0.548479 -0.0035580000000000334
vn -0.743193 -0.051784999999999956 0.66707
vn 0.23867 0.913724 0.3288539999999999
vn -0.542974 -0.839744 -0.0029569999999999484
vn 0.05757 -0.912914 0.40407100000000007
vn -0.743193 -0.051784999999999956 0.66707
vn -0.836157 0.548479 -0.0035580000000000334
vn -0.542974 -0.839744 -0.0029569999999999484
vn 0.05757 -0.912914 0.40407100000000007
vn -0.542974 -0.839744 -0.0029569999999999484
vn 0.967533 -0.252721 -0.0034469999999999844
vn 0.967533 -0.252721 -0.0034469999999999844
vn 0.557463 -0.14560199999999995 0.817335
vn -0.865775 0.293897 0.405042
vn 0.230927 0.711803 0.663332
vn -0.313892 0.949455 -0.002780000000000058
vn -0.948875 -0.31565 -0.0014039999999999808
vn -0.865775 0.293897 0.405042
vn 0.317461 -0.948259 0.004854000000000058
vn 0.94866 0.316279 0.0034479999999999806
vn 0.865179 -0.284167 0.413177
vn 0.865179 -0.284167 0.413177
vn -0.24052 -0.702375 0.669939
vn -0.321551 0.946724 -0.017844000000000058
vn -0.999903 -0.0010170000000000008 -0.013905
vn -0.947766 0.0013800000000000194 0.318964
vn -0.947766 0.0013800000000000194 0.318964
vn 0.236307 0.709938 0.663436
vn 0.864918 -0.275758 0.419374
vn -0.000136 -0.565351 0.82485
vn 0.003804 -0.999892 0.01417100000000006
vn 0.94945 0.313795 0.00878699999999998
vn 0.864918 -0.275758 0.419374
vn -0 1 -6.123233995736766E-17
vn 0 -1 6.123233995736766E-17
vn 0 1 -6.123233995736766E-17
vn 0 -1 6.123233995736766E-17
vn -0 1 -6.123233995736766E-17
vn 1 0 0
vn 0.87271 -0.409979 -0.265132
vn -0.87271 0.409979 0.265132
vn 0.87271 -0.409979 -0.265132
vn -0.872711 0.409977 0.265132
vn -0.872711 0.409977 0.265132
vn 0.872711 -0.409977 -0.265132
vn -0.281084 0.833574 0.47554899999999994
vn 0.062485 0.0010490000000000612 0.998045
vn -0.462887 0.42651300000000003 0.77706
vn -0.520042 -0.23423099999999994 0.821396
vn -0.445642 -0.07077899999999994 0.892409
vn -0.46198 0.746581 0.47873999999999994
vn -0.462887 0.42651300000000003 0.77706
vn -0.281084 0.833574 0.47554899999999994
vn -0.192171 -0.600919 0.775865
vn -0.270711 -0.37996499999999994 0.884501
vn -0.005514 -0.543992 0.839073
vn 0.055077 -0.708721 0.703335
vn 0.197389 -0.33814099999999997 0.920162
vn 0.390397 -0.2636029999999999 0.882102
vn 0.033114 0.27910500000000005 0.959689
vn 0.472183 -0.05366599999999994 0.879865
vn 0.145052 -0.06151399999999994 0.98751
vn -0.577935 0.815608 0.02782899999999995
vn -0.281084 0.833574 0.47554899999999994
vn 0.449776 -0.21225799999999995 0.867553
vn 0.097654 0.03290000000000006 0.994676
vn 0.336269 0.09251800000000006 0.93721
vn 0.066585 0.10761700000000006 0.99196
vn 0.336269 0.09251800000000006 0.93721
vn 0.171293 -0.08046099999999995 0.981929
vn 0.066585 0.10761700000000006 0.99196
vn -0.543633 0.652184 0.528317
vn -0.776599 0.629374 0.02797099999999996
vn -0.709717 0.44819300000000006 0.54353
vn 0.066585 0.10761700000000006 0.99196
vn -0.937621 0.346532 0.02798699999999998
vn -0.073755 0.40383500000000006 0.911854
vn -0.643821 0.35893600000000003 0.675766
vn -0.908783 0.21267500000000003 0.359002
vn -0.299622 0.27995000000000003 0.912061
vn 0 1 -6.123233995736766E-17
vn -0.748632 -0.607665 -0.2651299999999999
vn 0.748632 0.607665 0.2651319999999999
vn -0.748632 -0.607665 -0.2651299999999999
vn 0.748637 0.607659 0.26512899999999995
vn 0.748637 0.607659 0.26512899999999995
vn -0.748637 -0.607659 -0.2651299999999999
vn 0.944566 0.18554200000000004 0.270868
vn 0.888889 0.11111099999999997 -0.444444
vn -0.944566 -0.18554200000000004 -0.270869
vn -0.944566 -0.18554200000000004 -0.270869
vn 0.944566 0.18554300000000004 0.270869
vn -0.944566 -0.18554300000000004 -0.270869
vn 0.910691 0.23839500000000002 0.337357
vn 0 -0.44721400000000006 -0.894427
vn -0.91069 -0.23839500000000002 -0.337359
vn -0.91069 -0.23839500000000002 -0.337359
vn 0.910689 0.23840000000000003 0.337358
vn -0.910689 -0.23840100000000003 -0.337358
vn -1 0 0
vn 0.491042 -0.84046 0.22914000000000007
vn -0.491043 0.84046 -0.22914000000000007
vn -0.491043 0.840459 -0.22914000000000007
vn 0.491043 -0.840459 0.22914000000000007
vn 0.491042 -0.84046 0.22914000000000007
vn -0.491043 0.840459 -0.22914000000000007
vn 0.871165 -0.409515 0.270868
vn 1 0 0
vn -0.871164 0.409515 -0.270869
vn -0.871164 0.409515 -0.270869
vn 0.871166 -0.409513 0.270869
vn -0.871166 0.409513 -0.270868
vn 1 0 0
vn 1 0 0
vn 1 0 0
vn 1 0 0
vn 1 0 0
vn 1 0 0
vn 0.790966 -0.583659 0.18361500000000003
vn 0.455189 -0.27595499999999995 0.846553
vn 0.011422 -0.985844 0.16727700000000006
vn -0.06174 -0.958931 -0.2768399999999999
vn 0.790966 -0.583659 0.18361500000000003
vn -0.769817 -0.37465599999999993 0.516736
vn 0.455189 -0.27595499999999995 0.846553
vn -0.769817 -0.37465599999999993 0.516736
vn -0.188048 0.66048 0.726914
vn -0.751013 0.659622 0.029639999999999958
vn 0.872711 -0.409977 -0.265132
vn -0.872711 0.409977 0.265132
vn 0.87271 -0.409979 -0.265132
vn -0.87271 0.409979 0.265132
vn -0.35621 -0.635716 0.684821
vn -0.266176 -0.963518 0.02798200000000006
vn -0.325012 -0.61033 0.722402
vn 0.126716 -0.650749 0.748645
vn -0.188048 0.66048 0.726914
vn -0.732115 0.46254300000000004 0.500062
vn -0.769816 -0.37465599999999993 0.516736
vn 0.455189 -0.2759559999999999 0.846553
vn -0.769816 -0.37465599999999993 0.516736
vn 0.011422 -0.985844 0.16727600000000006
vn -0.06174 -0.958931 -0.2768399999999999
vn 0.790965 -0.58366 0.18361600000000003
vn 0.455189 -0.2759559999999999 0.846553
vn -0.732115 0.46254300000000004 0.500062
vn -0.188048 0.66048 0.726914
vn 0.06174 0.95893 0.27684099999999995
vn 0.905053 0.324853 0.274498
vn -0.188048 0.66048 0.726914
vn 0.455189 -0.2759559999999999 0.846553
vn 0.790965 -0.58366 0.18361600000000003
vn -0.24052 -0.702375 0.669939
vn -0.865775 0.293897 0.405042
vn -0.948875 -0.31565 -0.0014039999999999808
vn 0.317461 -0.948259 0.004854000000000058
vn 0.94866 0.316279 0.0034479999999999806
vn -0.313892 0.949455 -0.002780000000000058
vn 0.230927 0.711803 0.663332
vn 0.865179 -0.284167 0.413177
vn 0.230927 0.711803 0.663332
vn -0.865775 0.293897 0.405042
vn -0.24052 -0.702375 0.669939
vn 0.865179 -0.284167 0.413177
vn 0.001392 -0.999901 0.01401500000000006
vn -0.001472 -0.569048 0.822303
vn -0.946837 0.0037070000000000193 0.321692
vn -0.999901 0.0013919999999999991 -0.014015
vn 0.948432 0.316856 0.008839999999999982
vn -0.313843 0.94931 -0.01768000000000006
vn 0.234781 0.713096 0.660584
vn 0.861538 -0.282302 0.421969
vn -0.001472 -0.569048 0.822303
vn 0.861538 -0.282302 0.421969
vn 0.234781 0.713096 0.660584
vn -0.946837 0.0037070000000000193 0.321692
vn 0.003804 -0.999892 0.01417100000000006
vn -0.000136 -0.565351 0.824851
vn -0.947766 0.0013800000000000194 0.318964
vn -0.999903 -0.0010170000000000008 -0.013905
vn 0.94945 0.313795 0.00878699999999998
vn -0.321551 0.946724 -0.017844000000000058
vn 0.236307 0.709938 0.663436
vn 0.864918 -0.275758 0.419374
vn -0.000136 -0.565351 0.824851
vn 0.864918 -0.275758 0.419374
vn 0.236307 0.709938 0.663436
vn -0.947766 0.0013800000000000194 0.318964
vn 0.491042 -0.84046 0.22914000000000007
vn -0.491043 0.84046 -0.22914000000000007
vn 0.491043 -0.840459 0.22914000000000007
vn -0.491043 0.840459 -0.22914000000000007
vn 1 0 0
vn 1 0 0
vn 0 -0.44721399999999994 0.894427
vn 0 -0.44721399999999994 0.894427
vn -0.743193 -0.051784999999999956 0.66707
vn 0.05757 -0.912914 0.40407100000000007
vn 0.557463 -0.14560199999999995 0.817335
vn 0.23867 0.913724 0.3288539999999999
vn 0.967533 -0.252721 -0.0034469999999999844
vn 0.252739 0.967529 -0.0034230000000000592
vn 0.23867 0.913724 0.3288539999999999
vn 0.557463 -0.14560199999999995 0.817335
vn -0.788609 0.598845 0.13957599999999998
vn -0.788304 0.599233 0.13963199999999998
vn -0.788609 0.598845 0.13957599999999998
vn -0.788913 0.598457 0.13951899999999998
vn -0.825264 0.54724 0.13952899999999996
vn -0.825529 0.546841 0.13952199999999998
vn -0.825264 0.54724 0.13952899999999996
vn -0.824998 0.547639 0.13953599999999997
vn -0.756887 0.536048 -0.37386400000000003
vn -0.755994 0.536834 -0.37454100000000007
vn -0.756887 0.536048 -0.37386400000000003
vn -0.757779 0.535261 -0.3731860000000001
vn 0.755846 -0.536763 0.3749430000000001
vn 0.755845 -0.536764 0.37494400000000006
vn 0.755846 -0.536763 0.3749430000000001
vn 0.755847 -0.536762 0.37494200000000005
vn 0 1 -6.123233995736766E-17
vn 0 1 -6.123233995736766E-17
vn 0 1 -6.123233995736766E-17
vn 0 1 -6.123233995736766E-17
vn -0.948875 -0.31565 -0.0014039999999999808
vn 0.317461 -0.948259 0.004854000000000058
vn -0.24052 -0.702375 0.669939
vn -0.865775 0.293897 0.405042
vn 0.230927 0.711803 0.663332
vn 0.865179 -0.284167 0.413177
vn 0.94866 0.316279 0.0034479999999999806
vn -0.313892 0.949455 -0.002780000000000058
vn 0.230927 0.711803 0.663332
vn -0.865775 0.293897 0.405042
vn -0.24052 -0.702375 0.669939
vn 0.865179 -0.284167 0.413177
vn 0.003804 -0.999892 0.01417100000000006
vn -0.000136 -0.565351 0.82485
vn -0.947766 0.0013800000000000194 0.318964
vn -0.999903 -0.0010170000000000008 -0.013905
vn 0.236307 0.709938 0.663436
vn 0.864918 -0.275758 0.419374
vn 0.94945 0.313795 0.00878699999999998
vn -0.321551 0.946724 -0.017844000000000058
vn -0.000136 -0.565351 0.82485
vn 0.864918 -0.275758 0.419374
vn 0.236307 0.709938 0.663436
vn -0.947766 0.0013800000000000194 0.318964
vn -0.351256 0.604151 0.715277
vn -0.892855 0.449979 0.018122999999999972
vn -0.65315 -0.547413 0.523196
vn 0.506229 -0.13828499999999994 0.85124
vn 0 -1 6.123233995736766E-17
vn -0 1 -6.123233995736766E-17
vn 0 -1 6.123233995736766E-17
vn 0 1 -6.123233995736766E-17
vn 0.092303 -0.524197 0.84658
vn 0.574162 -0.663848 0.4792120000000001
vn 0.98376 0.02401900000000001 0.177873
vn -0.018812 0.611389 0.791107
vn -0.018812 0.611389 0.791107
vn 0.467377 0.881446 -0.06790300000000006
vn -0.360746 0.932261 0.027402999999999945
vn 0.98376 0.02401900000000001 0.177873
vn 0.506229 -0.13828499999999994 0.85124
vn 0.91149 -0.362819 0.19377300000000003
vn 0.716757 0.695907 -0.04442000000000004
vn -0.351256 0.604151 0.715277
vn -0.351256 0.604151 0.715277
vn -0.265301 0.931021 -0.25063100000000005
vn -0.892855 0.449979 0.018122999999999972
vn 0.716757 0.695907 -0.04442000000000004
vn 0.852456 -0.406521 0.328724
vn 0.44822 -0.35132299999999994 0.821992
vn 0.814946 -0.31698299999999996 0.485164
vn 0.90385 -0.426933 0.02798700000000003
vn 0.78794 -0.615117 0.027971000000000037
vn 0.71879 -0.694664 0.02797100000000004
vn 0.57586 -0.817071 0.02793500000000005
vn 0.504651 -0.862875 0.02782800000000005
vn 0.319233 -0.947261 0.02805600000000006
vn 0.206203 -0.855173 0.47556200000000004
vn 0.018443 -0.694993 0.71878
vn 0.390716 0.877275 0.27880099999999997
vn 0.348791 0.603454 0.717069
vn 0.301278 0.862773 0.40602299999999997
vn 0.426933 0.90385 0.027987999999999943
vn 0.615117 0.78794 0.027971999999999952
vn 0.694664 0.71879 0.027970999999999954
vn 0.817071 0.57586 0.027934999999999967
vn 0.862875 0.504652 0.02782699999999997
vn 0.94642 0.321717 0.02804799999999998
vn 0.8549 0.20736400000000002 0.475548
vn 0.694681 0.020176000000000045 0.719035
vn -0.296016 -0.877039 0.37838800000000006
vn 0.608107 -0.702126 0.37044000000000005
vn 0.271001 -0.683264 0.678018
vn -0.457206 -0.570261 0.68247
vn -0.921826 2.3733899896835535E-17 0.387604
vn -0.661305 4.593141915180076E-17 0.750117
vn -0.457206 0.570261 0.68247
vn -0.302551 0.87339 0.38164499999999996
vn 0.383869 0.664881 0.640763
vn 0.460913 0.798325 0.38760399999999995
vn 0.908343 0.17040800000000003 0.381935
vn 0.723416 -0.11463099999999996 0.68083
vn 0.608107 -0.702126 0.37044000000000005
vn 0.271001 -0.683264 0.678018
vn 0.91149 -0.362819 0.19377300000000003
vn 0.506229 -0.13828499999999994 0.85124
vn 0.258186 -0.948323 0.18445600000000006
vn -0.65315 -0.547413 0.523196
vn 0.182557 -0.948177 -0.26006299999999993
vn 0.91149 -0.362819 0.19377300000000003
vn 0.039403 -0.43748299999999996 0.898363
vn -0.241461 -0.20972399999999994 0.947477
vn 0.157559 -0.35546199999999994 0.921315
vn -0.077755 -0.13939899999999994 0.987179
vn -0.333288 -0.14170999999999995 0.932114
vn 0.356174 -0.25571499999999997 0.898749
vn -0.163628 0.09508300000000006 0.981929
vn 0.262716 -0.38883499999999993 0.883056
vn -0.057313 -0.27515699999999993 0.959689
vn 0.357635 -0.4372019999999999 0.825198
vn -0.461219 0.23160000000000006 0.856527
vn -0.077755 -0.13939899999999994 0.987179
vn 0.434489 0.024305000000000056 0.900349
vn 0.62595 -0.25735299999999994 0.736177
vn 0.518163 0.18882700000000005 0.834177
vn -0.480931 0.09764500000000005 0.871304
vn -0.167167 0.35405800000000004 0.920162
vn 0.237156 0.580291 0.779115
vn 0.290579 0.35167200000000004 0.889883
vn 0.049603 0.540404 0.839942
vn 0.006901 0.710825 0.703335
vn -0.380948 0.28688600000000003 0.878962
vn -0.203313 0.08295200000000005 0.975594
vn -0.132197 -0.047253999999999935 0.990097
vn -0.333288 -0.14170999999999995 0.932114
vn -0.077755 -0.13939899999999994 0.987179
vn 0.418466 0.03300300000000005 0.907633
vn 0.203601 -0.21067599999999995 0.956118
vn 0.345859 0.17157600000000006 0.922466
vn 0.106911 -0.07762499999999994 0.991234
vn 0.083142 -0.3289329999999999 0.940686
vn 0.255715 0.35617400000000005 0.898749
vn -0.095083 -0.16362799999999994 0.981929
vn 0.388835 0.26271600000000006 0.883056
vn 0.275157 -0.05731299999999995 0.959689
vn 0.425049 0.37376200000000004 0.8244
vn -0.250403 -0.43116999999999994 0.866828
vn 0.106911 -0.07762499999999994 0.991234
vn -0.031669 0.45011600000000007 0.892409
vn 0.239744 0.656135 0.715549
vn -0.188014 0.538478 0.821397
vn -0.095615 -0.47100099999999995 0.876935
vn -0.354058 -0.16716699999999995 0.920162
vn -0.581884 0.24381300000000006 0.775865
vn -0.354925 0.30279700000000004 0.884501
vn -0.541442 0.05290500000000005 0.839072
vn -0.710826 0.006901000000000043 0.703334
vn -0.293165 -0.37126699999999996 0.881031
vn -0.083032 -0.15942399999999995 0.983712
vn 0.031193 -0.09166399999999994 0.995301
vn 0.083142 -0.3289329999999999 0.940686
vn 0.106911 -0.07762499999999994 0.991234
vn -0.493047 0.025516000000000053 0.869628
vn -0.35621 -0.635716 0.684821
vn -0.325012 -0.61033 0.722402
vn 0.026093 0.20146800000000006 0.979148
vn -0.309753 0.41062100000000007 0.85758
vn 0.126716 -0.650749 0.748645
vn -0.106841 0.656557 0.746671
vn 0.505298 -0.058829999999999945 0.860938
vn 0.047887 0.605402 0.794478
vn 0.428062 0.34774900000000003 0.834166
vn 0.723416 -0.11463099999999996 0.68083
vn 0.383869 0.664881 0.640763
vn 0 6.123233995736766E-17 1
vn 0.271001 -0.683264 0.678018
vn -0.457206 0.570261 0.68247
vn -0.457206 -0.570261 0.68247
vn -0.661305 4.593141915180076E-17 0.750117
g Default Standaradwd
f 1/1/1 2/2/2 3/3/3
f 4/4/4 5/5/5 6/6/6
f 7/7/7 8/8/8 9/9/9
f 10/10/10 11/11/11 12/12/12
f 13/13/13 14/14/14 15/15/15
f 16/16/16 17/17/17 18/18/18
f 19/19/19 20/20/20 21/21/21
f 22/22/22 23/23/23 24/24/24
f 25/25/25 26/26/26 27/27/27
f 28/28/28 29/29/29 30/30/30
f 31/31/31 32/32/32 33/33/33
f 34/34/34 35/35/35 36/36/36
f 37/37/37 38/38/38 39/39/39
f 40/40/40 41/41/41 42/42/42
f 43/43/43 40/40/40 44/44/44
f 44/44/44 45/45/45 43/43/43
f 46/46/46 47/47/47 48/48/48
f 48/48/48 49/49/49 50/50/50
f 49/49/49 51/51/51 52/52/52
f 53/53/53 49/49/49 52/52/52
f 54/54/54 53/53/53 52/52/52
f 55/55/55 56/56/56 57/57/57
f 57/57/57 58/58/58 59/59/59
f 60/60/60 61/61/61 62/62/62
f 63/63/63 64/64/64 60/60/60
f 65/65/65 66/66/66 67/67/67
f 68/68/68 69/69/69 65/65/65
f 70/70/70 71/71/71 72/72/72
f 72/72/72 73/73/73 74/74/74
f 75/75/75 76/76/76 77/77/77
f 78/78/78 79/79/79 75/75/75
f 80/80/80 81/81/81 82/82/82
f 82/82/82 83/83/83 84/84/84
f 85/85/85 86/86/86 87/87/87
f 88/88/88 86/86/86 89/89/89
f 89/89/89 90/90/90 91/91/91
f 92/92/92 93/93/93 94/94/94
f 95/95/95 94/94/94 96/96/96
f 96/96/96 97/97/97 95/95/95
f 98/98/98 99/99/99 100/100/100
f 101/101/101 99/99/99 102/102/102
f 102/102/102 103/103/103 101/101/101
f 104/104/104 105/105/105 106/106/106
f 106/106/106 107/107/107 108/108/108
f 109/109/109 110/110/110 111/111/111
f 111/111/111 112/112/112 113/113/113
f 114/114/114 115/115/115 116/116/116
f 116/116/116 117/117/117 118/118/118
f 119/119/119 120/120/120 121/121/121
f 122/122/122 120/120/120 123/123/123
f 123/123/123 124/124/124 122/122/122
f 125/125/125 126/126/126 127/127/127
f 128/128/128 129/129/129 125/125/125
f 130/130/130 131/131/131 132/132/132
f 133/133/133 132/132/132 134/134/134
f 134/134/134 135/135/135 133/133/133
f 136/136/136 137/137/137 138/138/138
f 138/138/138 139/139/139 140/140/140
f 141/141/141 142/142/142 143/143/143
f 144/144/144 143/143/143 145/145/145
f 146/146/146 147/147/147 144/144/144
f 148/148/148 149/149/149 150/150/150
f 151/151/151 150/150/150 152/152/152
f 153/153/153 154/154/154 151/151/151
f 155/155/155 156/156/156 157/157/157
f 157/157/157 158/158/158 159/159/159
f 160/160/160 161/161/161 162/162/162
f 162/162/162 163/163/163 164/164/164
f 165/165/165 166/166/166 167/167/167
f 168/168/168 169/169/169 165/165/165
f 170/170/170 171/171/171 172/172/172
f 172/172/172 173/173/173 174/174/174
f 175/175/175 176/176/176 177/177/177
f 178/178/178 179/179/179 175/175/175
f 180/180/180 181/181/181 182/182/182
f 183/183/183 184/184/184 180/180/180
f 185/185/185 186/186/186 187/187/187
f 187/187/187 188/188/188 189/189/189
f 190/190/190 191/191/191 192/192/192
f 192/192/192 193/193/193 194/194/194
f 195/195/195 196/196/196 197/197/197
f 197/197/197 198/198/198 199/199/199
f 200/200/200 201/201/201 197/197/197
f 202/202/202 203/203/203 204/204/204
f 204/204/204 205/205/205 206/206/206
f 206/206/206 207/207/207 204/204/204
f 208/208/208 207/207/207 209/209/209
f 210/210/210 206/206/206 205/205/205
f 205/205/205 211/211/211 210/210/210
f 211/211/211 212/212/212 210/210/210
f 210/210/210 212/212/212 213/213/213
f 213/213/213 214/214/214 210/210/210
f 206/206/206 210/210/210 214/214/214
f 214/214/214 213/213/213 215/215/215
f 214/214/214 216/216/216 206/206/206
f 207/207/207 206/206/206 216/216/216
f 215/215/215 217/217/217 214/214/214
f 216/216/216 214/214/214 217/217/217
f 217/217/217 215/215/215 218/218/218
f 219/219/219 220/220/220 207/207/207
f 218/218/218 221/221/221 217/217/217
f 221/221/221 218/218/218 222/222/222
f 222/222/222 223/223/223 221/221/221
f 224/224/224 221/221/221 225/225/225
f 226/226/226 217/217/217 221/221/221
f 221/221/221 227/227/227 226/226/226
f 217/217/217 226/226/226 216/216/216
f 216/216/216 228/228/228 207/207/207
f 228/228/228 216/216/216 226/226/226
f 207/207/207 228/228/228 219/219/219
f 229/229/229 219/219/219 228/228/228
f 226/226/226 230/230/230 228/228/228
f 228/228/228 230/230/230 229/229/229
f 230/230/230 226/226/226 231/231/231
f 232/232/232 229/229/229 230/230/230
f 223/223/223 233/233/233 231/231/231
f 230/230/230 234/234/234 232/232/232
f 231/231/231 234/234/234 230/230/230
f 234/234/234 231/231/231 233/233/233
f 235/235/235 232/232/232 234/234/234
f 233/233/233 236/236/236 234/234/234
f 234/234/234 236/236/236 235/235/235
f 237/237/237 238/238/238 239/239/239
f 239/239/239 240/240/240 241/241/241
f 242/242/242 243/243/243 239/239/239
f 244/244/244 245/245/245 246/246/246
f 244/244/244 247/247/247 248/248/248
f 248/248/248 249/249/249 244/244/244
f 250/250/250 251/251/251 252/252/252
f 250/250/250 253/253/253 254/254/254
f 254/254/254 255/255/255 250/250/250
f 256/256/256 257/257/257 258/258/258
f 259/259/259 260/260/260 258/258/258
f 258/258/258 261/261/261 262/262/262
f 263/263/263 264/264/264 265/265/265
f 263/263/263 266/266/266 267/267/267
f 267/267/267 268/268/268 263/263/263
f 269/269/269 270/270/270 271/271/271
f 272/272/272 273/273/273 269/269/269
f 269/269/269 274/274/274 272/272/272
f 275/275/275 276/276/276 277/277/277
f 278/278/278 279/279/279 277/277/277
f 280/280/280 278/278/278 277/277/277
f 281/281/281 280/280/280 277/277/277
f 282/282/282 281/281/281 283/283/283
f 283/283/283 284/284/284 282/282/282
f 285/285/285 286/286/286 287/287/287
f 287/287/287 288/288/288 285/285/285
f 289/289/289 290/290/290 291/291/291
f 291/291/291 290/290/290 292/292/292
f 293/293/293 294/294/294 295/295/295
f 295/295/295 296/296/296 293/293/293
f 296/296/296 297/297/297 298/298/298
f 297/297/297 299/299/299 298/298/298
f 299/299/299 300/300/300 298/298/298
f 300/300/300 301/301/301 298/298/298
f 302/302/302 303/303/303 304/304/304
f 303/303/303 305/305/305 304/304/304
f 305/305/305 306/306/306 307/307/307
f 307/307/307 308/308/308 305/305/305
f 309/309/309 310/310/310 311/311/311
f 311/311/311 312/312/312 309/309/309
f 313/313/313 314/314/314 315/315/315
f 315/315/315 316/316/316 313/313/313
f 317/317/317 318/318/318 319/319/319
f 319/319/319 320/320/320 317/317/317
f 321/321/321 322/322/322 323/323/323
f 323/323/323 324/324/324 321/321/321
f 325/325/325 326/326/326 327/327/327
f 327/327/327 328/328/328 325/325/325
f 329/329/329 330/330/330 331/331/331
f 331/331/331 332/332/332 329/329/329
f 333/333/333 334/334/334 335/335/335
f 335/335/335 336/336/336 333/333/333
f 337/337/337 338/338/338 339/339/339
f 339/339/339 340/340/340 337/337/337
f 341/341/341 342/342/342 343/343/343
f 343/343/343 344/344/344 341/341/341
f 345/345/345 346/346/346 347/347/347
f 347/347/347 348/348/348 345/345/345
f 349/349/349 350/350/350 351/351/351
f 351/351/351 352/352/352 349/349/349
f 353/353/353 354/354/354 355/355/355
f 355/355/355 356/356/356 353/353/353
f 357/357/357 358/358/358 359/359/359
f 359/359/359 360/360/360 357/357/357
f 361/361/361 362/362/362 363/363/363
f 363/363/363 364/364/364 361/361/361
f 365/365/365 366/366/366 367/367/367
f 367/367/367 368/368/368 365/365/365
f 369/369/369 370/370/370 371/371/371
f 371/371/371 372/372/372 369/369/369
f 373/373/373 374/374/374 375/375/375
f 375/375/375 376/376/376 373/373/373
f 377/377/377 378/378/378 379/379/379
f 379/379/379 380/380/380 377/377/377
f 381/381/381 382/382/382 383/383/383
f 383/383/383 384/384/384 381/381/381
f 385/385/385 386/386/386 387/387/387
f 387/387/387 388/388/388 385/385/385
f 389/389/389 390/390/390 391/391/391
f 391/391/391 392/392/392 389/389/389
f 393/393/393 394/394/394 395/395/395
f 395/395/395 396/396/396 393/393/393
f 397/397/397 398/398/398 399/399/399
f 399/399/399 400/400/400 397/397/397
f 401/401/401 402/402/402 403/403/403
f 403/403/403 404/404/404 401/401/401
f 405/405/405 406/406/406 407/407/407
f 407/407/407 408/408/408 405/405/405
f 409/409/409 410/410/410 411/411/411
f 411/411/411 412/412/412 409/409/409
f 413/413/413 414/414/414 415/415/415
f 415/415/415 416/416/416 413/413/413
f 417/417/417 415/415/415 418/418/418
f 419/419/419 417/417/417 418/418/418
f 420/420/420 419/419/419 418/418/418
f 421/421/421 422/422/422 423/423/423
f 423/423/423 424/424/424 421/421/421
f 425/425/425 423/423/423 426/426/426
f 427/427/427 425/425/425 426/426/426
f 428/428/428 427/427/427 426/426/426
f 429/429/429 430/430/430 431/431/431
f 431/431/431 432/432/432 429/429/429
f 433/433/433 429/429/429 432/432/432
f 432/432/432 434/434/434 433/433/433
f 435/435/435 433/433/433 434/434/434
f 434/434/434 436/436/436 435/435/435
f 437/437/437 435/435/435 436/436/436
f 436/436/436 438/438/438 437/437/437
f 439/439/439 437/437/437 438/438/438
f 440/440/440 441/441/441 442/442/442
f 442/442/442 443/443/443 440/440/440
f 444/444/444 440/440/440 443/443/443
f 443/443/443 445/445/445 444/444/444
f 446/446/446 444/444/444 445/445/445
f 445/445/445 447/447/447 446/446/446
f 448/448/448 446/446/446 447/447/447
f 447/447/447 449/449/449 448/448/448
f 450/450/450 448/448/448 449/449/449
f 451/451/451 452/452/452 453/453/453
f 453/453/453 454/454/454 451/451/451
f 455/455/455 451/451/451 454/454/454
f 454/454/454 456/456/456 455/455/455
f 455/455/455 456/456/456 457/457/457
f 457/457/457 458/458/458 455/455/455
f 458/458/458 457/457/457 459/459/459
f 459/459/459 460/460/460 458/458/458
f 461/461/461 460/460/460 459/459/459
f 459/459/459 462/462/462 461/461/461
f 463/463/463 461/461/461 462/462/462
f 462/462/462 464/464/464 463/463/463
f 465/465/465 466/466/466 467/467/467
f 466/466/466 468/468/468 467/467/467
f 468/468/468 469/469/469 467/467/467
f 469/469/469 470/470/470 467/467/467
f 471/471/471 472/472/472 473/473/473
f 473/473/473 474/474/474 471/471/471
f 475/475/475 471/471/471 474/474/474
f 474/474/474 473/473/473 476/476/476
f 476/476/476 477/477/477 474/474/474
f 477/477/477 476/476/476 478/478/478
f 478/478/478 479/479/479 477/477/477
f 479/479/479 478/478/478 480/480/480
f 481/481/481 482/482/482 477/477/477
f 480/480/480 483/483/483 479/479/479
f 483/483/483 480/480/480 484/484/484
f 484/484/484 485/485/485 483/483/483
f 486/486/486 477/477/477 479/479/479
f 477/477/477 486/486/486 481/481/481
f 487/487/487 479/479/479 483/483/483
f 479/479/479 487/487/487 486/486/486
f 488/488/488 483/483/483 485/485/485
f 483/483/483 488/488/488 487/487/487
f 485/485/485 489/489/489 488/488/488
f 489/489/489 490/490/490 488/488/488
f 488/488/488 490/490/490 491/491/491
f 491/491/491 487/487/487 488/488/488
f 487/487/487 491/491/491 492/492/492
f 492/492/492 486/486/486 487/487/487
f 486/486/486 492/492/492 493/493/493
f 493/493/493 481/481/481 486/486/486
f 481/481/481 493/493/493 494/494/494
f 494/494/494 495/495/495 481/481/481
f 496/496/496 481/481/481 495/495/495
f 497/497/497 498/498/498 499/499/499
f 499/499/499 500/500/500 497/497/497
f 501/501/501 497/497/497 500/500/500
f 500/500/500 499/499/499 502/502/502
f 502/502/502 503/503/503 500/500/500
f 503/503/503 502/502/502 504/504/504
f 504/504/504 505/505/505 503/503/503
f 505/505/505 504/504/504 506/506/506
f 507/507/507 508/508/508 503/503/503
f 506/506/506 509/509/509 505/505/505
f 509/509/509 506/506/506 510/510/510
f 510/510/510 511/511/511 509/509/509
f 512/512/512 503/503/503 505/505/505
f 503/503/503 512/512/512 507/507/507
f 513/513/513 505/505/505 509/509/509
f 505/505/505 513/513/513 512/512/512
f 514/514/514 509/509/509 511/511/511
f 509/509/509 514/514/514 513/513/513
f 511/511/511 515/515/515 514/514/514
f 515/515/515 516/516/516 514/514/514
f 514/514/514 516/516/516 517/517/517
f 517/517/517 513/513/513 514/514/514
f 513/513/513 517/517/517 518/518/518
f 518/518/518 512/512/512 513/513/513
f 512/512/512 518/518/518 519/519/519
f 519/519/519 507/507/507 512/512/512
f 507/507/507 519/519/519 520/520/520
f 520/520/520 521/521/521 507/507/507
f 522/522/522 507/507/507 521/521/521
f 523/523/523 524/524/524 525/525/525
f 525/525/525 526/526/526 523/523/523
f 527/527/527 523/523/523 526/526/526
f 526/526/526 525/525/525 528/528/528
f 529/529/529 527/527/527 526/526/526
f 528/528/528 530/530/530 526/526/526
f 531/531/531 529/529/529 526/526/526
f 526/526/526 530/530/530 532/532/532
f 532/532/532 531/531/531 526/526/526
f 533/533/533 534/534/534 535/535/535
f 536/536/536 533/533/533 535/535/535
f 534/534/534 537/537/537 535/535/535
f 538/538/538 536/536/536 535/535/535
f 537/537/537 539/539/539 535/535/535
f 539/539/539 538/538/538 535/535/535
