v 0.153312 -0.510096 0.26374700000000006
v 0.153312 -0.510096 0.42451300000000003
v 0.428205 -0.510096 0.42451300000000003
v 0.428205 -0.510096 0.42451300000000003
v 0.428205 -0.510096 0.26374700000000006
v 0.153312 -0.510096 0.26374700000000006
v -0.80404 -0.327246 0.426738
v 0.334841 -0.327246 0.426738
v 0.334841 -0.19576099999999996 0.426738
v 0.334841 -0.19576099999999996 0.426738
v -0.86742 -0.19575999999999996 0.426738
v -0.80404 -0.327246 0.426738
v -0.405035 -0.422658 0.259955
v -0.405035 -0.55882 0.25995500000000005
v 0.653868 -0.55882 0.25958700000000007
v 0.653868 -0.55882 0.25958700000000007
v 0.653868 -0.422658 0.259587
v -0.405035 -0.422658 0.259955
v 0.428205 0.510096 0.4245129999999999
v 0.153312 0.510096 0.4245129999999999
v 0.153312 0.510096 0.26374699999999995
v 0.153312 0.510096 0.26374699999999995
v 0.428205 0.510096 0.26374699999999995
v 0.428205 0.510096 0.4245129999999999
v 0.653868 0.570123 0.25958699999999996
v -0.405035 0.570123 0.25995499999999994
v -0.405035 0.433961 0.259955
v -0.405035 0.433961 0.259955
v 0.653868 0.433961 0.259587
v 0.653868 0.570123 0.25958699999999996
v 0.835138 0.13566300000000003 0.342153
v 0.69221 0.13566300000000003 0.342153
v 0.69221 0.381491 0.342153
v 0.69221 0.381491 0.342153
v 0.835138 0.381491 0.342153
v 0.835138 0.13566300000000003 0.342153
v 0.889709 -0.2449429999999999 1.150201
v 0.626344 -0.2449429999999999 1.1502
v 0.626344 0.2825500000000001 1.150201
v 0.626344 0.2825500000000001 1.150201
v 0.889708 0.2825500000000001 1.150201
v 0.889709 -0.2449429999999999 1.150201
v 0.334841 0.19576000000000002 0.426738
v 0.334841 0.327246 0.426738
v -0.80404 0.327246 0.426738
v -0.80404 0.327246 0.426738
v -0.86742 0.19576000000000002 0.426738
v 0.334841 0.19576000000000002 0.426738
v -0.224823 -0.751905 0.3912860000000001
v -0.224823 -0.280916 0.391286
v -0.224823 -0.280915 0.325946
v -0.224823 -0.751905 0.32594600000000007
v -0.224823 -0.751905 0.3912860000000001
v -0.127547 -0.280915 0.391286
v -0.127547 -0.765754 0.3912860000000001
v -0.127547 -0.765754 0.32594600000000007
v -0.127547 -0.280915 0.325946
v -0.127547 -0.280915 0.391286
v -0.310846 -0.739439 0.39674800000000005
v -0.124605 -0.768326 0.39674800000000005
v -0.123674 -0.693597 0.39674800000000005
v -0.271214 -0.669311 0.39659900000000003
v -0.310846 -0.739439 0.39674800000000005
v -0.675225 -0.537269 0.3967490000000001
v -0.310846 -0.739439 0.39674800000000005
v -0.61394 -0.479093 0.39602000000000004
v -0.675225 -0.537269 0.3967490000000001
v -0.802093 -0.317041 0.396749
v -0.675225 -0.537269 0.3967490000000001
v -0.708418 -0.317472 0.396748
v -0.802093 -0.317041 0.396749
v -0.594342 -0.292916 0.42569
v -0.594342 -0.29291599999999995 0.6103
v -0.037776 -0.39127399999999996 0.6103
v -0.037776 -0.39127399999999996 0.6103
v -0.039604 -0.391274 0.42569
v 0.15306 -0.39109599999999994 0.523963
v 0.15306 -0.391096 0.448679
v -0.037776 -0.39127399999999996 0.6103
v -0.593565 -0.339537 0.42569
v -0.593565 -0.3395369999999999 0.6103
v -0.594342 -0.29291599999999995 0.6103
v -0.594342 -0.292916 0.42569
v -0.593565 -0.339537 0.42569
v 0.384102 -0.834269 0.3399690000000001
v 0.429176 -0.865842 -0.001182999999999947
v 0.485167 -0.833516 -0.001182999999999949
v 0.480361 -0.778694 0.3399690000000001
v 0.384102 -0.834269 0.3399690000000001
v 0.384102 -0.834269 0.3399690000000001
v 0.480361 -0.778694 0.3399690000000001
v 0.41731 -0.669487 0.38392500000000007
v 0.321051 -0.725062 0.38392500000000007
v 0.384102 -0.834269 0.3399690000000001
v -0.456101 -0.85936 -0.0011829999999999473
v -0.411027 -0.827786 0.3399690000000001
v -0.507286 -0.772211 0.3399690000000001
v -0.507286 -0.772211 0.3399690000000001
v -0.512092 -0.827034 -0.0011829999999999493
v -0.411027 -0.827786 0.3399690000000001
v -0.347976 -0.71858 0.38392500000000007
v -0.444235 -0.663005 0.38392500000000007
v -0.507286 -0.772211 0.3399690000000001
v -0.411027 -0.827786 0.3399690000000001
v -0.662666 -0.51222 0.33521800000000007
v -0.662665 -0.51222 0.37796900000000005
v -0.67919 -0.449682 0.377969
v -0.67919 -0.449682 0.377969
v -0.67919 -0.449682 0.335218
v 0.331812 -0.19576099999999996 0.288558
v 0.334841 -0.19576099999999996 0.426738
v 0.334841 -0.327246 0.426738
v 0.334841 -0.327246 0.426738
v 0.331812 -0.327246 0.288558
v -0.80404 -0.327246 0.288559
v -0.80404 -0.327246 0.426738
v -0.86742 -0.19575999999999996 0.426738
v -0.86742 -0.19575999999999996 0.426738
v -0.86742 -0.19576099999999996 0.288559
v 0.707123 -0.5010829999999998 1.268323
v -0.21842 -0.501083 0.38668800000000003
v -0.183934 -0.501083 0.3504840000000001
v 0.741609 -0.5010829999999998 1.232119
v 0.707123 -0.5010829999999998 1.268323
v -0.224823 0.280916 0.325946
v -0.224823 0.280916 0.391286
v -0.224823 0.751905 0.39128599999999997
v -0.224823 0.751905 0.39128599999999997
v -0.224823 0.751905 0.32594599999999996
v -0.127547 0.765754 0.32594599999999996
v -0.127547 0.765754 0.39128599999999997
v -0.127547 0.280916 0.391286
v -0.127547 0.280916 0.391286
v -0.127547 0.280916 0.325946
v -0.123674 0.693597 0.39674799999999993
v -0.124605 0.768326 0.39674799999999993
v -0.310846 0.739439 0.39674799999999993
v -0.310846 0.739439 0.39674799999999993
v -0.271214 0.669311 0.3965989999999999
v -0.310846 0.739439 0.39674799999999993
v -0.675225 0.537269 0.39674899999999996
v -0.675225 0.537269 0.39674899999999996
v -0.61394 0.479093 0.3960199999999999
v -0.675225 0.537269 0.39674899999999996
v -0.802093 0.317041 0.396749
v -0.802093 0.317041 0.396749
v -0.708418 0.317471 0.396748
v -0.581629 -0.331843 0.424523
v -0.581629 -0.33184299999999994 0.489863
v -0.581629 0.34197000000000005 0.489863
v -0.581629 0.34197000000000005 0.489863
v -0.581629 0.34197 0.424523
v -0.516936 0.34197 0.424523
v -0.516936 0.34197000000000005 0.489863
v -0.516936 -0.33184299999999994 0.489863
v -0.516936 -0.33184299999999994 0.489863
v -0.516936 -0.331843 0.424523
v -0.037776 0.39127400000000007 0.6103
v -0.594342 0.29291600000000007 0.6103
v -0.594342 0.292916 0.42569
v -0.039604 0.391274 0.42569
v -0.037776 0.39127400000000007 0.6103
v 0.15306 0.391096 0.448679
v 0.15306 0.39109600000000005 0.523963
v -0.037776 0.39127400000000007 0.6103
v -0.594342 0.29291600000000007 0.6103
v -0.593565 0.33953700000000003 0.6103
v -0.593565 0.339537 0.42569
v -0.593565 0.339537 0.42569
v -0.594342 0.292916 0.42569
v 0.429176 0.865842 -0.0011830000000000531
v 0.384102 0.834269 0.33996899999999997
v 0.480361 0.778694 0.33996899999999997
v 0.480361 0.778694 0.33996899999999997
v 0.485167 0.833516 -0.001183000000000051
v 0.41731 0.669487 0.38392499999999996
v 0.480361 0.778694 0.33996899999999997
v 0.384102 0.834269 0.33996899999999997
v 0.384102 0.834269 0.33996899999999997
v 0.321051 0.725062 0.38392499999999996
v -0.411027 0.827786 0.33996899999999997
v -0.456101 0.85936 -0.0011830000000000527
v -0.512092 0.827034 -0.0011830000000000508
v -0.507286 0.772211 0.33996899999999997
v -0.411027 0.827786 0.33996899999999997
v -0.444235 0.663005 0.38392499999999996
v -0.347976 0.71858 0.38392499999999996
v -0.411027 0.827786 0.33996899999999997
v -0.411027 0.827786 0.33996899999999997
v -0.507286 0.772211 0.33996899999999997
v -0.183934 0.512386 0.35048399999999996
v -0.21842 0.512386 0.3866879999999999
v 0.707123 0.5123860000000001 1.268323
v 0.707123 0.5123860000000001 1.268323
v 0.741609 0.5123860000000001 1.232119
v -0.67919 0.449682 0.377969
v -0.662665 0.51222 0.37796899999999994
v -0.662666 0.51222 0.33521799999999996
v -0.67919 0.449682 0.335218
v -0.67919 0.449682 0.377969
v 0.701988 0.20005800000000004 0.411042
v 0.701988 0.250058 0.411042
v 0.693275 0.16559000000000007 1.384122
v 0.693275 0.16559000000000007 1.384122
v 0.693275 0.11558900000000008 1.384122
v 0.69221 0.13566300000000003 0.485081
v 0.835138 0.13566300000000003 0.485081
v 0.835138 0.3814910000000001 0.485081
v 0.835138 0.3814910000000001 0.485081
v 0.69221 0.3814910000000001 0.485081
v -0.777432 0.22103000000000003 0.391529
v -0.776805 -0.21907999999999997 0.391529
v -0.639529 -0.21907999999999997 0.391529
v -0.640155 0.22103000000000003 0.391529
v -0.777432 0.22103000000000003 0.391529
v 0.626344 -0.2449429999999999 1.413565
v 0.889709 -0.2449429999999999 1.413565
v 0.889708 0.28255000000000013 1.413565
v 0.889708 0.28255000000000013 1.413565
v 0.626344 0.28255000000000013 1.413565
v 0.334841 0.327246 0.426738
v 0.334841 0.19576000000000002 0.426738
v 0.331812 0.19576000000000002 0.288558
v 0.331812 0.327246 0.288558
v 0.334841 0.327246 0.426738
v -0.86742 0.19576000000000002 0.426738
v -0.80404 0.327246 0.426738
v -0.80404 0.327246 0.288559
v -0.86742 0.19576100000000002 0.288559
v -0.86742 0.19576000000000002 0.426738
v 0.15306 -0.45866699999999994 0.523963
v 0.15306 -0.39109599999999994 0.523963
v -0.037776 -0.39127399999999996 0.6103
v -0.594342 -0.29291599999999995 0.6103
v -0.593565 -0.3395369999999999 0.6103
v -0.593565 -0.3395369999999999 0.6103
v -0.062879 -0.45866699999999994 0.6103
v -0.062879 -0.45866699999999994 0.6103
v 0.15306 -0.45866699999999994 0.523963
v 0.15306 -0.458667 0.44867900000000005
v -0.062879 -0.458667 0.42569000000000007
v -0.593565 -0.339537 0.42569
v -0.593565 -0.3395369999999999 0.6103
v -0.563494 -0.005472999999999961 0.620405
v -0.563354 0.22840200000000005 0.694429
v -0.563494 0.22840200000000002 0.487954
v -0.563494 -0.21827499999999997 0.487954
v -0.563494 -0.21827499999999994 0.694429
v -0.563494 0.22840200000000002 0.487954
v -0.563494 -0.00489299999999997 0.487954
v -0.563494 -0.21827499999999997 0.487954
v -0.037776 0.39127400000000007 0.6103
v 0.15306 0.39109600000000005 0.523963
v 0.15306 0.4586660000000001 0.523963
v -0.062879 0.4586660000000001 0.6103
v -0.593565 0.33953700000000003 0.6103
v -0.593565 0.33953700000000003 0.6103
v -0.594342 0.29291600000000007 0.6103
v 0.15306 0.4586660000000001 0.523963
v -0.062879 0.4586660000000001 0.6103
v 0.15306 0.458666 0.44867899999999994
v -0.062879 0.458666 0.42568999999999996
v -0.593565 0.33953700000000003 0.6103
v -0.593565 0.339537 0.42569
v 0.904098 0.012207000000000022 0.351179
v 0.904098 -0.022571999999999977 0.351179
v 1.184049 -0.022571999999999977 0.351179
v 1.184049 0.012207000000000022 0.351179
v -0.891064 -0.429825 0.379337
v -0.810991 -0.568515 0.37933700000000004
v -0.690288 -0.498826 0.37933700000000004
v -0.770361 -0.360137 0.379337
v -0.127547 -0.280915 0.391286
v -0.224823 -0.280916 0.391286
v -0.224823 -0.751905 0.3912860000000001
v -0.127547 -0.765754 0.3912860000000001
v 0.153312 -0.510096 0.42451300000000003
v 0.153312 -0.78637 0.42451300000000003
v 0.427428 -0.667241 0.42451300000000003
v 0.428205 -0.510096 0.42451300000000003
v 0.153312 -0.510096 0.26374700000000006
v 0.153312 -0.78637 0.26374700000000006
v 0.153312 -0.78637 0.42451300000000003
v 0.153312 -0.510096 0.42451300000000003
v -0.819261 -0.492021 0.37453400000000003
v -0.836651 -0.461901 0.37453400000000003
v -1.079095 -0.601877 0.37453400000000003
v -1.061706 -0.631996 0.37453400000000003
v 0.655479 -0.51222 0.528009
v 0.678029 -0.51222 0.742994
v 0.330536 -0.51222 0.37796900000000005
v 0.416615 -0.51222 0.33521800000000007
v 0.678029 -0.51222 0.742994
v 0.678029 -0.44968199999999997 0.742994
v 0.330536 -0.449682 0.377969
v 0.330536 -0.51222 0.37796900000000005
v 0.678029 -0.44968199999999997 0.742994
v 0.655479 -0.44968199999999997 0.528009
v 0.416615 -0.449682 0.335218
v 0.330536 -0.449682 0.377969
v -0.662665 -0.51222 0.37796900000000005
v 0.330536 -0.51222 0.37796900000000005
v 0.330536 -0.449682 0.377969
v -0.67919 -0.449682 0.377969
v -0.008518 -0.924021 0.37435900000000005
v -0.043297 -0.924021 0.37435900000000005
v -0.043297 -1.203971 0.37435900000000005
v -0.008518 -1.203971 0.37435900000000005
v -0.80404 -0.327246 0.426738
v -0.80404 -0.327246 0.288559
v 0.331812 -0.327246 0.288558
v 0.334841 -0.327246 0.426738
v -0.86742 -0.19575999999999996 0.426738
v 0.334841 -0.19576099999999996 0.426738
v 0.331812 -0.19576099999999996 0.288558
v -0.86742 -0.19576099999999996 0.288559
v -0.405035 -0.55882 0.25995500000000005
v -0.405035 -0.422658 0.259955
v -0.44546 -0.422658 0.07179000000000003
v -0.44546 -0.592637 0.07179000000000005
v -0.21842 -0.451083 0.386688
v 0.707123 -0.45108299999999996 1.268323
v 0.741609 -0.45108299999999996 1.232119
v -0.183934 -0.451083 0.350484
v 0.707123 -0.45108299999999996 1.268323
v -0.21842 -0.451083 0.386688
v -0.21842 -0.501083 0.38668800000000003
v 0.707123 -0.5010829999999998 1.268323
v 0.847511 -0.621834 0.07474200000000004
v 0.847511 -0.5672039999999999 1.224301
v 0.675737 -0.5672039999999999 1.224301
v 0.675737 -0.621834 0.07474200000000004
v -0.690288 0.498827 0.3793369999999999
v -0.810991 0.568515 0.3793369999999999
v -0.891064 0.429825 0.379337
v -0.770361 0.360137 0.379337
v -0.436304 0.39321500000000004 0.489863
v -0.436304 -0.3902919999999999 0.489863
v -0.370964 -0.3902919999999999 0.489863
v -0.370964 0.40041800000000005 0.489863
v -0.224823 0.751905 0.39128599999999997
v -0.224823 0.280916 0.391286
v -0.127547 0.280916 0.391286
v -0.127547 0.765754 0.39128599999999997
v -0.581629 0.34197000000000005 0.489863
v -0.581629 -0.33184299999999994 0.489863
v -0.516936 -0.33184299999999994 0.489863
v -0.516936 0.34197000000000005 0.489863
v -0.392262 -0.21827499999999997 0.487954
v -0.459491 -0.21827499999999994 0.694429
v -0.563494 -0.21827499999999994 0.694429
v -0.563494 -0.21827499999999997 0.487954
v -0.563494 0.22840200000000002 0.487954
v -0.563354 0.22840200000000005 0.694429
v -0.459491 0.22840200000000005 0.694429
v -0.392261 0.22840200000000002 0.487954
v 0.351483 -0.36163599999999996 1.199969
v 0.351483 -0.7162359999999999 1.199969
v 0.673683 -0.7162359999999999 1.199969
v 0.673683 -0.36163599999999996 1.199969
v 0.18485 0.70104 0.43012199999999995
v 0.18485 -0.690914 0.43012200000000006
v 0.320457 -0.690914 0.43012200000000006
v 0.320457 0.70104 0.43012199999999995
v 0.427428 0.667241 0.4245129999999999
v 0.153312 0.78637 0.4245129999999999
v 0.153312 0.510096 0.4245129999999999
v 0.428205 0.510096 0.4245129999999999
v 0.153312 0.78637 0.4245129999999999
v 0.153312 0.78637 0.26374699999999995
v 0.153312 0.510096 0.26374699999999995
v 0.153312 0.510096 0.4245129999999999
v -0.44546 0.433961 0.07178999999999998
v -0.405035 0.433961 0.259955
v -0.405035 0.570123 0.25995499999999994
v -0.44546 0.603939 0.07178999999999996
v 0.741609 0.4623860000000001 1.232119
v 0.707123 0.4623860000000001 1.268323
v -0.21842 0.462386 0.3866879999999999
v -0.183934 0.462386 0.35048399999999996
v -0.21842 0.512386 0.3866879999999999
v -0.21842 0.462386 0.3866879999999999
v 0.707123 0.4623860000000001 1.268323
v 0.707123 0.5123860000000001 1.268323
v -0.836651 0.461902 0.3745339999999999
v -0.819261 0.492021 0.3745339999999999
v -1.061706 0.631996 0.3745339999999999
v -1.079095 0.601877 0.3745339999999999
v 0.879439 0.56443 0.2877489999999999
v 0.829439 0.56443 0.2877489999999999
v 0.829439 -0.556065 0.28774900000000003
v 0.879439 -0.556065 0.28774900000000003
v 0.330536 0.51222 0.37796899999999994
v 0.678029 0.51222 0.742994
v 0.655479 0.51222 0.528009
v 0.416615 0.51222 0.33521799999999996
v 0.330536 0.449682 0.377969
v 0.678029 0.4496820000000001 0.742994
v 0.678029 0.51222 0.742994
v 0.330536 0.51222 0.37796899999999994
v 0.416615 0.449682 0.335218
v 0.655479 0.4496820000000001 0.528009
v 0.678029 0.4496820000000001 0.742994
v 0.330536 0.449682 0.377969
v 0.330536 0.449682 0.377969
v 0.330536 0.51222 0.37796899999999994
v -0.662665 0.51222 0.37796899999999994
v -0.67919 0.449682 0.377969
v -0.043297 0.92402 0.37435899999999994
v -0.008518 0.924021 0.37435899999999994
v -0.008518 1.203971 0.37435899999999994
v -0.043297 1.203971 0.37435899999999994
v 0.674025 0.594919 0.46294499999999994
v 0.708804 0.594919 0.46294499999999994
v 0.708804 0.736838 0.46294499999999994
v 0.674025 0.736838 0.46294499999999994
v 0.701988 0.250058 0.411042
v 0.701988 0.20005800000000004 0.411042
v 0.693275 0.11558900000000008 1.384122
v 0.693275 0.16559000000000007 1.384122
v 0.783228 0.630323 0.44748499999999997
v 0.74412 0.630323 0.44748499999999997
v 0.744121 -0.08706199999999997 0.447485
v 0.783228 -0.08706199999999997 0.447485
v 0.835138 0.3814910000000001 0.485081
v 0.835138 0.381491 0.342153
v 0.69221 0.381491 0.342153
v 0.69221 0.3814910000000001 0.485081
v 0.69221 0.13566300000000003 0.342153
v 0.69221 0.13566300000000003 0.485081
v 0.69221 0.3814910000000001 0.485081
v 0.69221 0.381491 0.342153
v 0.835138 0.13566300000000003 0.485081
v 0.835138 0.13566300000000003 0.342153
v 0.835138 0.381491 0.342153
v 0.835138 0.3814910000000001 0.485081
v 0.835138 0.13566300000000003 0.342153
v 0.835138 0.13566300000000003 0.485081
v 0.69221 0.13566300000000003 0.485081
v 0.69221 0.13566300000000003 0.342153
v -0.777432 0.22103000000000003 0.302626
v -0.776806 -0.21907999999999997 0.302626
v -0.776805 -0.21907999999999997 0.391529
v -0.777432 0.22103000000000003 0.391529
v 0.626344 -0.2449429999999999 1.1502
v 0.626344 -0.2449429999999999 1.413565
v 0.626344 0.28255000000000013 1.413565
v 0.626344 0.2825500000000001 1.150201
v 0.889709 -0.2449429999999999 1.413565
v 0.889709 -0.2449429999999999 1.150201
v 0.889708 0.2825500000000001 1.150201
v 0.889708 0.28255000000000013 1.413565
v 0.889709 -0.2449429999999999 1.150201
v 0.889709 -0.2449429999999999 1.413565
v 0.626344 -0.2449429999999999 1.413565
v 0.626344 -0.2449429999999999 1.1502
v 0.626344 0.28255000000000013 1.413565
v 0.889708 0.28255000000000013 1.413565
v 0.889708 0.2825500000000001 1.150201
v 0.626344 0.2825500000000001 1.150201
v 0.331812 0.327246 0.288558
v -0.80404 0.327246 0.288559
v -0.80404 0.327246 0.426738
v 0.334841 0.327246 0.426738
v 0.331812 0.19576000000000002 0.288558
v 0.334841 0.19576000000000002 0.426738
v -0.86742 0.19576000000000002 0.426738
v -0.86742 0.19576100000000002 0.288559
v 0.77758 0.6032270000000001 1.315751
v 0.738472 0.6032270000000001 1.315751
v 0.738473 -0.5982799999999999 1.315751
v 0.777581 -0.5982799999999999 1.315751
v 0.109196 0.512294 0.503319
v 0.059196 0.512294 0.503319
v 0.059196 -0.49699699999999997 0.503319
v 0.109196 -0.49699699999999997 0.503319
v -0.193012 0.512294 0.503319
v -0.243011 0.512294 0.503319
v -0.243012 -0.49699699999999997 0.503319
v -0.193012 -0.49699699999999997 0.503319
v 0.391226 -0.80011 -0.001182999999999951
v 0.429176 -0.865842 -0.001182999999999947
v 0.319244 -0.721932 0.26871600000000007
v 0.384102 -0.834269 0.3399690000000001
v 0.321051 -0.725062 0.38392500000000007
v 0.485167 -0.833516 -0.001182999999999949
v 0.447217 -0.767784 -0.001182999999999953
v 0.480361 -0.778694 0.3399690000000001
v 0.415785 -0.666845 0.26579100000000005
v 0.41731 -0.669487 0.38392500000000007
v -0.456101 -0.85936 -0.0011829999999999473
v -0.418151 -0.793628 -0.0011829999999999515
v -0.411027 -0.827786 0.3399690000000001
v -0.346169 -0.71545 0.26871600000000007
v -0.347976 -0.71858 0.38392500000000007
v -0.474141 -0.761301 -0.0011829999999999534
v -0.512092 -0.827034 -0.0011829999999999493
v -0.44271 -0.660363 0.26579100000000005
v -0.507286 -0.772211 0.3399690000000001
v -0.444235 -0.663005 0.38392500000000007
v -0.405035 -0.55882 0.25995500000000005
v -0.44546 -0.592637 0.07179000000000005
v 0.65409 -0.592637 0.07142100000000004
v 0.653868 -0.55882 0.25958700000000007
v 0.849919 -0.592637 0.07142100000000004
v 0.945578 -0.55882 0.31944000000000006
v 0.675453 -0.525004 0.7465
v 0.85427 -0.525004 0.7465
v 0.816744 -0.5250039999999999 1.351046
v 0.849427 -0.5250039999999999 1.301046
v 0.668789 -0.5250039999999999 1.301046
v 0.701472 -0.5250039999999999 1.351046
v 0.965633 0.031722 -0.001183000000000002
v 0.889733 0.031984 -0.001183000000000002
v 0.915833 0.055143000000000025 0.433239
v 0.782151 0.055590000000000014 0.273279
v 0.782151 0.05557700000000003 0.477195
v 0.529789 0.05557700000000003 0.473889
v 0.408669 0.05557700000000002 0.383924
v -0.807135 0.05557700000000002 0.383924
v -0.803521 0.055590000000000014 0.268716
v -0.933235 0.05514300000000002 0.339968
v -0.983035 0.031722 -0.001183000000000002
v -0.907135 0.031984 -0.001183000000000002
v -0.982813 -0.03293 -0.001182999999999998
v -0.906912 -0.032668 -0.001182999999999998
v -0.932852 -0.05600699999999998 0.339968
v -0.803702 -0.055561999999999986 0.26579
v -0.806752 -0.05557199999999998 0.383924
v 0.782151 -0.055561999999999986 0.270353
v 0.408759 -0.05557199999999998 0.383924
v 0.782151 -0.055571999999999976 0.477195
v 0.529858 -0.055571999999999976 0.473889
v 0.91545 -0.05600599999999997 0.433239
v 0.96541 -0.032929 -0.001182999999999998
v 0.88951 -0.032668 -0.001182999999999998
v -0.802093 0.317041 0.296483
v -0.802093 0.317041 0.396749
v -0.675225 0.537269 0.39674899999999996
v -0.673293 0.541336 0.29648299999999994
v -0.310846 0.739439 0.39674799999999993
v -0.311973 0.739034 0.29648299999999994
v -0.124605 0.768326 0.29648299999999994
v -0.124605 0.768326 0.39674799999999993
v 0.429176 0.865842 -0.0011830000000000531
v 0.391226 0.80011 -0.001183000000000049
v 0.384102 0.834269 0.33996899999999997
v 0.319244 0.721932 0.26871599999999995
v 0.321051 0.725062 0.38392499999999996
v 0.447217 0.767784 -0.001183000000000047
v 0.485167 0.833516 -0.001183000000000051
v 0.415785 0.666845 0.26579099999999994
v 0.480361 0.778694 0.33996899999999997
v 0.41731 0.669487 0.38392499999999996
v 0.428205 0.510096 0.4245129999999999
v 0.428205 0.510096 0.26374699999999995
v 0.427428 0.667241 0.26374699999999995
v 0.427428 0.667241 0.4245129999999999
v 0.153312 0.78637 0.26374699999999995
v 0.153312 0.78637 0.4245129999999999
v -0.418151 0.793628 -0.0011830000000000486
v -0.456101 0.85936 -0.0011830000000000527
v -0.346169 0.71545 0.26871599999999995
v -0.411027 0.827786 0.33996899999999997
v -0.347976 0.71858 0.38392499999999996
v -0.512092 0.827034 -0.0011830000000000508
v -0.474141 0.761302 -0.0011830000000000466
v -0.507286 0.772211 0.33996899999999997
v -0.44271 0.660363 0.26579099999999994
v -0.444235 0.663005 0.38392499999999996
v 0.849919 0.433961 0.07142099999999997
v 0.849919 0.603939 0.07142099999999996
v 0.945578 0.570123 0.31943999999999995
v 0.945578 0.433961 0.31944
v 0.85427 0.536306 0.7465
v 0.85427 0.43396100000000004 0.7465
v 0.849427 0.5363060000000001 1.301046
v 0.849427 0.43396100000000004 1.301046
v 0.816744 0.5363060000000001 1.351046
v 0.816744 0.43396100000000004 1.351046
v 0.701472 0.5363060000000001 1.351046
v 0.701472 0.43396100000000004 1.351046
v 0.668789 0.5363060000000001 1.301046
v 0.668789 0.43396100000000004 1.301046
v 0.675453 0.536306 0.7465
v 0.675453 0.43396100000000004 0.7465
v 0.653868 0.433961 0.259587
v 0.653868 0.570123 0.25958699999999996
v -0.675225 -0.537269 0.3967490000000001
v -0.802093 -0.317041 0.396749
v -0.802093 -0.317041 0.296483
v -0.673293 -0.541336 0.29648300000000005
v -0.310846 -0.739439 0.39674800000000005
v -0.311973 -0.739034 0.29648300000000005
v -0.124605 -0.768326 0.29648300000000005
v -0.124605 -0.768326 0.39674800000000005
v 0.427428 -0.667241 0.26374700000000006
v 0.428205 -0.510096 0.26374700000000006
v 0.428205 -0.510096 0.42451300000000003
v 0.427428 -0.667241 0.42451300000000003
v 0.153312 -0.78637 0.26374700000000006
v 0.153312 -0.78637 0.42451300000000003
v 0.945578 -0.55882 0.31944000000000006
v 0.849919 -0.592637 0.07142100000000004
v 0.849919 -0.422658 0.07142100000000003
v 0.945578 -0.422658 0.31944
v 0.85427 -0.525004 0.7465
v 0.85427 -0.4226579999999999 0.7465
v 0.849427 -0.5250039999999999 1.301046
v 0.849427 -0.4226579999999999 1.301046
v 0.816744 -0.5250039999999999 1.351046
v 0.816744 -0.4226579999999999 1.351046
v 0.701472 -0.5250039999999999 1.351046
v 0.701472 -0.4226579999999999 1.351046
v 0.668789 -0.5250039999999999 1.301046
v 0.668789 -0.4226579999999999 1.301046
v 0.675453 -0.525004 0.7465
v 0.675453 -0.4226579999999999 0.7465
v 0.653868 -0.422658 0.259587
v 0.653868 -0.55882 0.25958700000000007
v 0.91545 -0.05600599999999997 0.433239
v 0.96541 -0.032929 -0.001182999999999998
v 0.965633 0.031722 -0.001183000000000002
v 0.915833 0.055143000000000025 0.433239
v 0.782151 -0.055571999999999976 0.477195
v 0.782151 0.05557700000000003 0.477195
v 0.529858 -0.055571999999999976 0.473889
v 0.529789 0.05557700000000003 0.473889
v 0.408759 -0.05557199999999998 0.383924
v 0.408669 0.05557700000000002 0.383924
v -0.807135 0.05557700000000002 0.383924
v -0.806752 -0.05557199999999998 0.383924
v -0.933235 0.05514300000000002 0.339968
v -0.932852 -0.05600699999999998 0.339968
v -0.982813 -0.03293 -0.001182999999999998
v -0.983035 0.031722 -0.001183000000000002
v -0.563494 -0.005472999999999961 0.620405
v -0.563494 -0.21827499999999994 0.694429
v -0.459491 -0.21827499999999994 0.694429
v -0.459491 -0.005472999999999962 0.612963
v -0.563354 0.22840200000000005 0.694429
v -0.459491 0.22840200000000005 0.694429
v 0.65409 0.603939 0.07142099999999996
v -0.44546 0.603939 0.07178999999999996
v -0.405035 0.570123 0.25995499999999994
v 0.653868 0.570123 0.25958699999999996
v 0.849919 0.603939 0.07142099999999996
v 0.945578 0.570123 0.31943999999999995
v 0.675453 0.536306 0.7465
v 0.85427 0.536306 0.7465
v 0.816744 0.5363060000000001 1.351046
v 0.849427 0.5363060000000001 1.301046
v 0.668789 0.5363060000000001 1.301046
v 0.701472 0.5363060000000001 1.351046
v -0.122838 -0.947873 0.37933700000000004
v 0.037307 -0.947873 0.37933700000000004
v 0.037307 -0.736286 0.37933700000000004
v -0.122838 -0.678418 0.37933700000000004
v 0.157962 -0.678878 0.37933700000000004
v 0.157962 -0.736286 0.37933700000000004
v 0.037307 0.736286 0.3793369999999999
v 0.037307 0.947873 0.3793369999999999
v -0.122838 0.947873 0.3793369999999999
v -0.122838 0.678418 0.3793369999999999
v 0.157962 0.678878 0.3793369999999999
v 0.157962 0.736286 0.3793369999999999
v -0.459491 -0.005472999999999962 0.612963
v -0.459491 -0.21827499999999994 0.694429
v -0.392262 -0.21827499999999997 0.487954
v -0.392262 -0.00506199999999997 0.487954
v -0.392261 0.22840200000000002 0.487954
v -0.459491 0.22840200000000005 0.694429
v 0.701472 -0.4226579999999999 1.351046
v 0.816744 -0.4226579999999999 1.351046
v 0.849427 -0.4226579999999999 1.301046
v 0.675453 -0.4226579999999999 0.7465
v 0.668789 -0.4226579999999999 1.301046
v 0.85427 -0.4226579999999999 0.7465
v 0.945578 -0.422658 0.31944
v 0.653868 -0.422658 0.259587
v 0.849919 -0.422658 0.07142100000000003
v 0.65409 -0.422658 0.07142100000000003
v -0.44546 -0.422658 0.07179000000000003
v -0.405035 -0.422658 0.259955
v 0.849427 0.43396100000000004 1.301046
v 0.816744 0.43396100000000004 1.351046
v 0.701472 0.43396100000000004 1.351046
v 0.675453 0.43396100000000004 0.7465
v 0.668789 0.43396100000000004 1.301046
v 0.85427 0.43396100000000004 0.7465
v 0.945578 0.433961 0.31944
v 0.653868 0.433961 0.259587
v 0.849919 0.433961 0.07142099999999997
v 0.65409 0.433961 0.07142099999999997
v -0.44546 0.433961 0.07178999999999998
v -0.405035 0.433961 0.259955
v 0.729735 0.597525 0.51807
v 0.797613 0.597525 0.51807
v 0.674821 0.597525 0.47817199999999993
v 0.852527 0.597525 0.47817199999999993
v 0.873502 0.597525 0.41361699999999996
v 0.674821 0.597525 0.34906099999999995
v 0.653846 0.597525 0.41361699999999996
v 0.797613 0.597525 0.30916399999999994
v 0.729735 0.597525 0.30916399999999994
v 0.852527 0.597525 0.34906099999999995
vt 0.786065 0.199444
vt 0.786065 0.171972
vt 0.741805 0.171972
vt 0.741805 0.171972
vt 0.741805 0.199444
vt 0.786065 0.199444
vt 0.715086 0.465326
vt 0.515590 0.465326
vt 0.515590 0.490050
vt 0.515590 0.490050
vt 0.726218 0.490050
vt 0.715086 0.465326
vt 0.038387 0.057648
vt 0.038387 0.078814
vt 0.208882 0.078814
vt 0.208882 0.078814
vt 0.208882 0.057648
vt 0.038387 0.057648
vt 0.741805 0.171972
vt 0.786065 0.171972
vt 0.786065 0.199444
vt 0.786065 0.199444
vt 0.741805 0.199444
vt 0.741805 0.171972
vt 0.208882 0.078814
vt 0.038387 0.078814
vt 0.038387 0.057648
vt 0.038387 0.057648
vt 0.208882 0.057648
vt 0.208882 0.078814
vt 0.042579 0.534658
vt 0.017785 0.534658
vt 0.017785 0.490617
vt 0.017785 0.490617
vt 0.042579 0.490617
vt 0.042579 0.534658
vt 0.205902 0.637300
vt 0.160195 0.637300
vt 0.160195 0.542487
vt 0.160195 0.542487
vt 0.205902 0.542487
vt 0.205902 0.637300
vt 0.515590 0.490050
vt 0.515590 0.465326
vt 0.715086 0.465326
vt 0.715086 0.465326
vt 0.726218 0.490050
vt 0.515590 0.490050
vt 0.063569 0.324510
vt 0.063569 0.242846
vt 0.053048 0.242846
vt 0.053048 0.324510
vt 0.063569 0.324510
vt 0.079224 0.242846
vt 0.079224 0.324510
vt 0.089744 0.324510
vt 0.089744 0.242846
vt 0.079224 0.242846
vt 0.427373 0.377772
vt 0.427373 0.345349
vt 0.414533 0.352368
vt 0.414533 0.377772
vt 0.427373 0.377772
vt 0.427373 0.448444
vt 0.427373 0.377772
vt 0.414533 0.444596
vt 0.427373 0.448444
vt 0.427373 0.492257
vt 0.427373 0.448444
vt 0.414533 0.476952
vt 0.427373 0.492257
vt 0.330011 0.330388
vt 0.357090 0.330388
vt 0.357090 0.427275
vt 0.357090 0.427275
vt 0.330010 0.427275
vt 0.369659 0.455706
vt 0.352284 0.455706
vt 0.357090 0.427275
vt 0.392761 0.330389
vt 0.366082 0.330388
vt 0.366082 0.324661
vt 0.392761 0.324661
vt 0.392761 0.330389
vt 0.800820 0.431501
vt 0.858074 0.427329
vt 0.858074 0.416282
vt 0.800820 0.412508
vt 0.800820 0.431501
vt 0.800820 0.431501
vt 0.800820 0.412508
vt 0.779318 0.412583
vt 0.779318 0.431576
vt 0.800820 0.431501
vt 0.859438 0.492862
vt 0.802183 0.489031
vt 0.802183 0.508024
vt 0.802183 0.508024
vt 0.859438 0.503910
vt 0.802183 0.489031
vt 0.780682 0.489084
vt 0.780682 0.508078
vt 0.802183 0.508024
vt 0.802183 0.489031
vt 0.394284 0.093200
vt 0.387363 0.093200
vt 0.387363 0.104070
vt 0.387363 0.104070
vt 0.394284 0.104070
vt 0.492520 0.439552
vt 0.492520 0.465326
vt 0.515590 0.465326
vt 0.515590 0.465326
vt 0.515590 0.439552
vt 0.736935 0.454352
vt 0.715086 0.465326
vt 0.726218 0.490050
vt 0.726218 0.490050
vt 0.748052 0.478864
vt 0.604903 0.245482
vt 0.810715 0.245481
vt 0.810715 0.236937
vt 0.604873 0.236938
vt 0.604903 0.245482
vt 0.053048 0.242846
vt 0.063569 0.242846
vt 0.063569 0.324510
vt 0.063569 0.324510
vt 0.053048 0.324510
vt 0.089744 0.324510
vt 0.079224 0.324510
vt 0.079224 0.242846
vt 0.079224 0.242846
vt 0.089744 0.242846
vt 0.414533 0.352368
vt 0.427373 0.345349
vt 0.427373 0.377772
vt 0.427373 0.377772
vt 0.414533 0.377772
vt 0.427373 0.377772
vt 0.427373 0.448444
vt 0.427373 0.448444
vt 0.414533 0.444596
vt 0.427373 0.448444
vt 0.427373 0.492257
vt 0.427373 0.492257
vt 0.414533 0.476952
vt 0.219361 0.159362
vt 0.219361 0.170541
vt 0.110855 0.170541
vt 0.110855 0.170541
vt 0.110855 0.159362
vt 0.110855 0.192644
vt 0.110855 0.181577
vt 0.219361 0.181577
vt 0.219361 0.181577
vt 0.219361 0.192644
vt 0.357090 0.427275
vt 0.357090 0.330388
vt 0.330011 0.330388
vt 0.330010 0.427275
vt 0.357090 0.427275
vt 0.352284 0.455706
vt 0.369659 0.455706
vt 0.357090 0.427275
vt 0.366082 0.324661
vt 0.366082 0.330388
vt 0.392761 0.330389
vt 0.392761 0.330389
vt 0.392761 0.324661
vt 0.858074 0.427329
vt 0.800820 0.431501
vt 0.800820 0.412508
vt 0.800820 0.412508
vt 0.858074 0.416282
vt 0.779318 0.412583
vt 0.800820 0.412508
vt 0.800820 0.431501
vt 0.800820 0.431501
vt 0.779318 0.431576
vt 0.802183 0.489031
vt 0.859438 0.492862
vt 0.859438 0.503910
vt 0.802183 0.508024
vt 0.802183 0.489031
vt 0.780682 0.508078
vt 0.780682 0.489084
vt 0.802183 0.489031
vt 0.802183 0.489031
vt 0.802183 0.508024
vt 0.810715 0.236937
vt 0.810715 0.245481
vt 0.604903 0.245482
vt 0.604903 0.245482
vt 0.604873 0.236938
vt 0.387363 0.104070
vt 0.387363 0.093200
vt 0.394284 0.093200
vt 0.394284 0.104070
vt 0.387363 0.104070
vt 0.651906 0.087107
vt 0.651906 0.099190
vt 0.495227 0.099190
vt 0.495227 0.099190
vt 0.495227 0.087107
vt 0.092288 0.534658
vt 0.067402 0.534658
vt 0.067402 0.490617
vt 0.067402 0.490617
vt 0.092288 0.490617
vt 0.129072 0.220880
vt 0.058209 0.220880
vt 0.058177 0.197422
vt 0.129040 0.197422
vt 0.129072 0.220880
vt 0.297000 0.637300
vt 0.251673 0.637300
vt 0.251673 0.542487
vt 0.251673 0.542487
vt 0.297000 0.542487
vt 0.515590 0.465326
vt 0.492520 0.465326
vt 0.492520 0.439552
vt 0.515590 0.439552
vt 0.515590 0.465326
vt 0.726218 0.490050
vt 0.715086 0.465326
vt 0.736935 0.454352
vt 0.748052 0.478864
vt 0.726218 0.490050
vt 0.378863 0.451934
vt 0.369659 0.455706
vt 0.357090 0.427275
vt 0.357090 0.330388
vt 0.366082 0.330388
vt 0.366082 0.330388
vt 0.366082 0.418217
vt 0.366082 0.418217
vt 0.378863 0.451934
vt 0.392761 0.451934
vt 0.392761 0.418209
vt 0.392761 0.330389
vt 0.366082 0.330388
vt 0.877044 0.638546
vt 0.865125 0.598582
vt 0.898370 0.598582
vt 0.898370 0.674910
vt 0.865125 0.674910
vt 0.898370 0.598582
vt 0.898370 0.638447
vt 0.898370 0.674910
vt 0.357090 0.427275
vt 0.369659 0.455706
vt 0.378863 0.451934
vt 0.366082 0.418217
vt 0.366082 0.330388
vt 0.366082 0.330388
vt 0.357090 0.330388
vt 0.378863 0.451934
vt 0.366082 0.418217
vt 0.392761 0.451934
vt 0.392761 0.418209
vt 0.366082 0.330388
vt 0.392761 0.330389
vt 0.533633 0.038356
vt 0.533633 0.029441
vt 0.578708 0.029441
vt 0.578708 0.038356
vt 0.250950 0.402451
vt 0.276726 0.402451
vt 0.276726 0.378634
vt 0.250950 0.378634
vt 0.079224 0.242846
vt 0.063569 0.242846
vt 0.063569 0.324510
vt 0.079224 0.324510
vt 0.745172 0.378833
vt 0.789655 0.378634
vt 0.770288 0.331879
vt 0.744986 0.331860
vt 0.786065 0.199444
vt 0.830549 0.199444
vt 0.830549 0.171972
vt 0.786065 0.171972
vt 0.013680 0.160606
vt 0.005281 0.160606
vt 0.005281 0.208444
vt 0.013680 0.208444
vt 0.836134 0.564530
vt 0.860639 0.538299
vt 0.780214 0.549753
vt 0.786711 0.564659
vt 0.845486 0.342924
vt 0.855555 0.342924
vt 0.855555 0.256805
vt 0.845486 0.256805
vt 0.860785 0.601319
vt 0.836159 0.575216
vt 0.786735 0.575345
vt 0.780308 0.590285
vt 0.387363 0.093200
vt 0.226097 0.093200
vt 0.226097 0.104070
vt 0.387363 0.104070
vt 0.533633 0.029441
vt 0.533633 0.038356
vt 0.578708 0.038356
vt 0.578708 0.029441
vt 0.715086 0.465326
vt 0.715085 0.439552
vt 0.515590 0.439552
vt 0.515590 0.465326
vt 0.726218 0.490050
vt 0.515590 0.490050
vt 0.515590 0.515811
vt 0.726218 0.515811
vt 0.038387 0.078814
vt 0.038387 0.057648
vt 0.007399 0.057648
vt 0.007399 0.078814
vt 0.810694 0.219910
vt 0.604883 0.219910
vt 0.604883 0.228454
vt 0.810694 0.228454
vt 0.604903 0.254026
vt 0.810715 0.254025
vt 0.810715 0.245481
vt 0.604903 0.245482
vt 0.657991 0.199444
vt 0.472690 0.199444
vt 0.472690 0.170091
vt 0.657991 0.170091
vt 0.276727 0.378634
vt 0.276727 0.402451
vt 0.250950 0.402451
vt 0.250950 0.378634
vt 0.310532 0.143415
vt 0.183219 0.143415
vt 0.183380 0.132230
vt 0.310693 0.132230
vt 0.063569 0.324510
vt 0.063569 0.242846
vt 0.079224 0.242846
vt 0.079224 0.324510
vt 0.110855 0.170541
vt 0.219361 0.170541
vt 0.219361 0.181577
vt 0.110855 0.181577
vt 0.898370 0.704170
vt 0.865125 0.692682
vt 0.865125 0.674910
vt 0.898370 0.674910
vt 0.898370 0.598582
vt 0.865125 0.598582
vt 0.865114 0.580834
vt 0.898352 0.569322
vt 0.862767 0.721458
vt 0.919909 0.721458
vt 0.919909 0.776523
vt 0.862767 0.776523
vt 0.035687 0.236381
vt 0.035687 0.474218
vt 0.013799 0.474218
vt 0.013799 0.236381
vt 0.770288 0.331879
vt 0.789655 0.378634
vt 0.745172 0.378833
vt 0.744986 0.331860
vt 0.830549 0.171972
vt 0.830549 0.199444
vt 0.786065 0.199444
vt 0.786065 0.171972
vt 0.007399 0.057648
vt 0.038387 0.057648
vt 0.038387 0.078814
vt 0.007399 0.078814
vt 0.604883 0.228454
vt 0.604883 0.219910
vt 0.810694 0.219910
vt 0.810694 0.228454
vt 0.810715 0.245481
vt 0.810715 0.254025
vt 0.604903 0.254026
vt 0.604903 0.245482
vt 0.005281 0.160606
vt 0.013680 0.160606
vt 0.013680 0.208444
vt 0.005281 0.208444
vt 0.203207 0.094185
vt 0.203207 0.102729
vt 0.018544 0.102729
vt 0.018544 0.094185
vt 0.780214 0.549753
vt 0.860639 0.538299
vt 0.836134 0.564530
vt 0.786711 0.564659
vt 0.855555 0.256805
vt 0.855555 0.342924
vt 0.845486 0.342924
vt 0.845486 0.256805
vt 0.786735 0.575345
vt 0.836159 0.575216
vt 0.860785 0.601319
vt 0.780308 0.590285
vt 0.226097 0.104070
vt 0.226097 0.093200
vt 0.387363 0.093200
vt 0.387363 0.104070
vt 0.533633 0.038356
vt 0.533633 0.029441
vt 0.578708 0.029441
vt 0.578708 0.038356
vt 0.691104 0.584848
vt 0.691104 0.589051
vt 0.668253 0.589051
vt 0.668253 0.584848
vt 0.651906 0.099190
vt 0.651906 0.111273
vt 0.495227 0.111273
vt 0.495227 0.099190
vt 0.350729 0.233157
vt 0.350730 0.239840
vt 0.235223 0.239840
vt 0.235222 0.233158
vt 0.011990 0.578113
vt 0.031006 0.569876
vt 0.038883 0.589761
vt 0.019867 0.597998
vt 0.017785 0.534658
vt -0.002964 0.534658
vt -0.002964 0.490617
vt 0.017785 0.490617
vt 0.067402 0.534658
vt 0.042579 0.534658
vt 0.042579 0.490617
vt 0.067402 0.490617
vt 0.039764 0.558481
vt 0.020748 0.566718
vt 0.012871 0.546833
vt 0.031887 0.538596
vt 0.129072 0.236071
vt 0.058209 0.236072
vt 0.058209 0.220880
vt 0.129072 0.220880
vt 0.160195 0.637300
vt 0.114854 0.637300
vt 0.114854 0.542487
vt 0.160195 0.542487
vt 0.251673 0.637300
vt 0.205902 0.637300
vt 0.205902 0.542487
vt 0.251673 0.542487
vt 0.048244 0.563700
vt 0.087421 0.546478
vt 0.103648 0.588056
vt 0.064472 0.605278
vt 0.361931 0.588056
vt 0.322755 0.605278
vt 0.306527 0.563700
vt 0.345704 0.546478
vt 0.515590 0.439552
vt 0.715085 0.439552
vt 0.715086 0.465326
vt 0.515590 0.465326
vt 0.515590 0.515811
vt 0.515590 0.490050
vt 0.726218 0.490050
vt 0.726218 0.515811
vt 0.381054 0.233158
vt 0.381054 0.226475
vt 0.574510 0.226475
vt 0.574510 0.233158
vt 0.523844 0.141942
vt 0.523844 0.133368
vt 0.686351 0.133368
vt 0.686351 0.141942
vt 0.336668 0.141950
vt 0.336616 0.133398
vt 0.499123 0.133456
vt 0.499175 0.142009
vt 0.852580 0.452520
vt 0.856097 0.440082
vt 0.805970 0.456301
vt 0.800820 0.431501
vt 0.788135 0.450127
vt 0.856097 0.403507
vt 0.852580 0.391089
vt 0.800820 0.412508
vt 0.805970 0.387523
vt 0.788135 0.393850
vt 0.857460 0.480050
vt 0.853943 0.467628
vt 0.802183 0.489031
vt 0.807334 0.464050
vt 0.789498 0.470300
vt 0.853943 0.529331
vt 0.857460 0.516925
vt 0.807334 0.532754
vt 0.802183 0.508024
vt 0.789498 0.526371
vt 0.122085 0.497800
vt 0.115684 0.530472
vt 0.292690 0.530472
vt 0.294734 0.497800
vt 0.324214 0.530111
vt 0.339507 0.487299
vt 0.294734 0.414465
vt 0.324175 0.414371
vt 0.318361 0.311087
vt 0.324175 0.319614
vt 0.294734 0.319708
vt 0.299801 0.311147
vt 0.770261 0.470496
vt 0.758041 0.470496
vt 0.762700 0.396848
vt 0.741005 0.423930
vt 0.741224 0.389323
vt 0.700588 0.389323
vt 0.680991 0.404003
vt 0.485238 0.404003
vt 0.485697 0.423930
vt 0.464888 0.410676
vt 0.456487 0.470496
vt 0.468708 0.470496
vt 0.456413 0.478527
vt 0.468633 0.478527
vt 0.464444 0.537294
vt 0.485239 0.524866
vt 0.484748 0.544804
vt 0.740577 0.524866
vt 0.680457 0.544804
vt 0.740578 0.560459
vt 0.699956 0.560459
vt 0.762040 0.553230
vt 0.770070 0.478527
vt 0.757850 0.478527
vt 0.443517 0.492257
vt 0.427373 0.492257
vt 0.427373 0.448444
vt 0.443517 0.448444
vt 0.427373 0.377772
vt 0.443517 0.377772
vt 0.443517 0.345349
vt 0.427373 0.345349
vt 0.856097 0.440082
vt 0.852580 0.452520
vt 0.800820 0.431501
vt 0.805970 0.456301
vt 0.788135 0.450127
vt 0.852580 0.391089
vt 0.856097 0.403507
vt 0.805970 0.387523
vt 0.800820 0.412508
vt 0.788135 0.393850
vt 0.741805 0.171972
vt 0.741805 0.199444
vt 0.716502 0.199444
vt 0.716502 0.171972
vt 0.668098 0.199444
vt 0.668098 0.171972
vt 0.853943 0.467628
vt 0.857460 0.480050
vt 0.807334 0.464050
vt 0.802183 0.489031
vt 0.789498 0.470300
vt 0.857460 0.516925
vt 0.853943 0.529331
vt 0.802183 0.508024
vt 0.807334 0.532754
vt 0.789498 0.526371
vt 0.616731 0.057648
vt 0.616731 0.078814
vt 0.573930 0.078814
vt 0.573930 0.057648
vt 0.503615 0.078814
vt 0.503615 0.057648
vt 0.414324 0.078814
vt 0.414324 0.057648
vt 0.404705 0.078814
vt 0.404705 0.057648
vt 0.386146 0.078814
vt 0.386146 0.057648
vt 0.376528 0.078814
vt 0.376528 0.057648
vt 0.287233 0.078814
vt 0.287233 0.057648
vt 0.208882 0.057648
vt 0.208882 0.078814
vt 0.427373 0.448444
vt 0.427373 0.492257
vt 0.443517 0.492257
vt 0.443517 0.448444
vt 0.427373 0.377772
vt 0.443517 0.377772
vt 0.443517 0.345349
vt 0.427373 0.345349
vt 0.716502 0.199444
vt 0.741805 0.199444
vt 0.741805 0.171972
vt 0.716502 0.171972
vt 0.668098 0.199444
vt 0.668098 0.171972
vt 0.573930 0.078814
vt 0.616731 0.078814
vt 0.616731 0.057648
vt 0.573930 0.057648
vt 0.503615 0.078814
vt 0.503615 0.057648
vt 0.414324 0.078814
vt 0.414324 0.057648
vt 0.404706 0.078814
vt 0.404706 0.057648
vt 0.386146 0.078814
vt 0.386146 0.057648
vt 0.376528 0.078814
vt 0.376528 0.057648
vt 0.287233 0.078814
vt 0.287233 0.057648
vt 0.208882 0.057648
vt 0.208882 0.078814
vt 0.165623 0.047868
vt 0.093838 0.047868
vt 0.093838 0.030465
vt 0.165623 0.030465
vt 0.188251 0.047868
vt 0.188251 0.030465
vt 0.228882 0.047868
vt 0.228882 0.030465
vt 0.253173 0.047868
vt 0.253173 0.030465
vt 0.448906 0.030465
vt 0.448906 0.047868
vt 0.470408 0.030465
vt 0.470408 0.047868
vt 0.527663 0.047868
vt 0.527663 0.030465
vt 0.044898 0.047098
vt 0.007919 0.047098
vt 0.007919 0.029463
vt 0.044898 0.029463
vt 0.084927 0.047097
vt 0.084927 0.029463
vt 0.292690 0.530472
vt 0.115684 0.530472
vt 0.122085 0.497800
vt 0.294734 0.497800
vt 0.324214 0.530111
vt 0.339507 0.487299
vt 0.294734 0.414465
vt 0.324175 0.414371
vt 0.318361 0.311087
vt 0.324175 0.319614
vt 0.294734 0.319708
vt 0.299801 0.311147
vt 0.781006 0.322282
vt 0.781006 0.349648
vt 0.815074 0.349647
vt 0.824354 0.322282
vt 0.824354 0.370265
vt 0.815074 0.370265
vt 0.815074 0.349647
vt 0.781006 0.349648
vt 0.781006 0.322282
vt 0.824354 0.322282
vt 0.824354 0.370265
vt 0.815074 0.370265
vt 0.178345 0.214325
vt 0.212760 0.201653
vt 0.212760 0.238615
vt 0.178355 0.238615
vt 0.140585 0.238615
vt 0.140585 0.201653
vt 0.326541 0.289415
vt 0.326541 0.269718
vt 0.318491 0.263719
vt 0.229203 0.295471
vt 0.318491 0.295471
vt 0.229203 0.263719
vt 0.160441 0.247703
vt 0.150804 0.295471
vt 0.120508 0.264049
vt 0.120508 0.297512
vt 0.120567 0.485402
vt 0.150864 0.478494
vt 0.318491 0.263719
vt 0.326541 0.269718
vt 0.326541 0.289415
vt 0.229203 0.295471
vt 0.318491 0.295471
vt 0.229203 0.263719
vt 0.160441 0.247703
vt 0.150804 0.295471
vt 0.120508 0.264049
vt 0.120508 0.297512
vt 0.120567 0.485402
vt 0.150864 0.478494
vt 0.376823 0.460569
vt 0.385665 0.467387
vt 0.365894 0.460569
vt 0.389042 0.478418
vt 0.385665 0.489449
vt 0.353675 0.478418
vt 0.357052 0.467387
vt 0.365894 0.496267
vt 0.357052 0.489449
vt 0.376823 0.496267
vn -0.707107 0.707107 -4.329781621023438E-17
vn -0.408248 0.40824800000000006 0.816497
vn 0.668128 0.664834 0.3340679999999999
vn 0.668128 0.664834 0.3340679999999999
vn 0.708852 0.705357 -4.319065961530898E-17
vn -0.707107 0.707107 -4.329781621023438E-17
vn -0.274912 -0.742883 0.610367
vn 0.82233 -0.411264 0.393238
vn 0.411165 0.41126300000000005 0.813514
vn 0.411165 0.41126300000000005 0.813514
vn -0.766384 0.481353 0.42538799999999993
vn -0.274912 -0.742883 0.610367
vn -0.373595 0.38239200000000007 0.845105
vn -0.593678 -0.597794 0.538692
vn -0.2148 -0.814723 0.538598
vn -0.2148 -0.814723 0.538598
vn -0.363663 0.910209 0.19816599999999995
vn -0.373595 0.38239200000000007 0.845105
vn 0.668128 -0.664834 0.33406800000000003
vn -0.408248 -0.40824799999999994 0.816497
vn -0.707107 -0.707107 4.329781621023438E-17
vn -0.707107 -0.707107 4.329781621023438E-17
vn 0.708852 -0.705357 4.319065961530898E-17
vn 0.668128 -0.664834 0.33406800000000003
vn -0.2148 0.814723 0.538598
vn -0.593678 0.597794 0.538692
vn -0.373595 -0.38239199999999995 0.845105
vn -0.373595 -0.38239199999999995 0.845105
vn -0.363663 -0.910209 0.19816600000000006
vn -0.2148 0.814723 0.538598
vn 0.333333 -0.666667 -0.666667
vn -0.816496 -0.408249 -0.408248
vn -0.333334 0.666666 -0.666667
vn -0.333334 0.666666 -0.666667
vn 0.816496 0.408249 -0.408248
vn 0.333333 -0.666667 -0.666667
vn 0.333334 -0.666666 -0.666667
vn -0.816496 -0.408249 -0.408249
vn -0.408248 0.40824799999999994 -0.816497
vn -0.408248 0.40824799999999994 -0.816497
vn 0.666666 0.666667 -0.33333300000000005
vn 0.333334 -0.666666 -0.666667
vn 0.411165 -0.41126299999999993 0.813514
vn 0.82233 0.411264 0.393238
vn -0.274911 0.742883 0.610367
vn -0.274911 0.742883 0.610367
vn -0.766384 -0.481353 0.42538800000000004
vn 0.411165 -0.41126299999999993 0.813514
vn -0.707107 4.329781621023438E-17 0.707107
vn -0.707107 4.329781621023438E-17 0.707107
vn -1 0 0
vn -1 0 0
vn -0.707107 4.329781621023438E-17 0.707107
vn 0.707107 4.329781621023438E-17 0.707107
vn 0.707107 4.329781621023438E-17 0.707107
vn 1 0 0
vn 1 0 0
vn 0.707107 4.329781621023438E-17 0.707107
vn -0.256348 -0.75014 0.60957
vn -0.108382 -0.698751 0.707107
vn -0.000303 0.0012390000000000612 0.999999
vn 0.001206 0.0043780000000000615 0.99999
vn -0.256348 -0.75014 0.60957
vn -0.527621 -0.44379899999999994 0.724333
vn -0.256348 -0.75014 0.60957
vn 0.003663 0.002979000000000061 0.999989
vn -0.527621 -0.44379899999999994 0.724333
vn -0.384596 -0.22357599999999994 0.8956
vn -0.527621 -0.44379899999999994 0.724333
vn -2E-05 -0.004520999999999938 0.99999
vn -0.384596 -0.22357599999999994 0.8956
vn -0.316379 0.948633 -0.0008400000000000581
vn -0.797682 0.415697 0.43692
vn 0.230384 0.578686 0.782333
vn 0.230384 0.578686 0.782333
vn 0.057775 0.998329 -0.0005750000000000611
vn 0.183537 0.894562 0.40751999999999994
vn -0.000926 1 -6.123233995736766E-17
vn 0.230384 0.578686 0.782333
vn -0.775483 -0.631368 1.00000000003866E-06
vn -0.479177 -0.39012699999999995 0.786251
vn -0.797682 0.415697 0.43692
vn -0.316379 0.948633 -0.0008400000000000581
vn -0.775483 -0.631368 1.00000000003866E-06
vn -0.099725 -0.838655 0.535455
vn -0.541906 -0.840437 -0.0018139999999999487
vn 0.832192 -0.545508 0.09938600000000003
vn 0.956164 0.09344700000000002 0.27752
vn -0.099725 -0.838655 0.535455
vn -0.099725 -0.838655 0.535455
vn 0.956164 0.09344700000000002 0.27752
vn 0.5345 -0.03135499999999995 0.844586
vn -0.495999 -0.555118 0.667704
vn -0.099725 -0.838655 0.535455
vn -0.056329 -0.993453 0.09938600000000006
vn 0.445908 -0.753755 0.48272200000000004
vn -0.880743 -0.313036 0.355388
vn -0.880743 -0.313036 0.355388
vn -0.998822 0.048486 -0.002133000000000003
vn 0.445908 -0.753755 0.48272200000000004
vn 0.496 -0.555117 0.667705
vn -0.5345 -0.03135499999999995 0.844586
vn -0.880743 -0.313036 0.355388
vn 0.445908 -0.753755 0.48272200000000004
vn -0.96682 -0.255459 3.0000000000156422E-06
vn -0.432375 -0.11424499999999994 0.894427
vn -0.864749 -0.22848899999999997 0.447216
vn -0.864749 -0.22848899999999997 0.447216
vn -0.96682 -0.255459 3.0000000000156422E-06
vn 0.706937 0.707107 -0.015497000000000044
vn 0.411165 0.41126300000000005 0.813514
vn 0.82233 -0.411264 0.393238
vn 0.82233 -0.411264 0.393238
vn 0.447106 -0.894427 -0.009800999999999945
vn -0.694117 -0.719862 1.0000000000440787E-06
vn -0.274912 -0.742883 0.610367
vn -0.766384 0.481353 0.42538799999999993
vn -0.766384 0.481353 0.42538799999999993
vn -0.846823 0.531875 -3.256795081482492E-17
vn -0.308454 -0.894427 0.32381600000000005
vn -0.616907 -0.44721299999999997 0.647631
vn -1E-06 -1 1.0000000000612324E-06
vn -2E-06 -1 2.0000000000612323E-06
vn -0.308454 -0.894427 0.32381600000000005
vn -1 0 0
vn -0.707107 4.329781621023438E-17 0.707107
vn -0.707107 4.329781621023438E-17 0.707107
vn -0.707107 4.329781621023438E-17 0.707107
vn -1 0 0
vn 1 0 0
vn 0.707107 4.329781621023438E-17 0.707107
vn 0.707107 4.329781621023438E-17 0.707107
vn 0.707107 4.329781621023438E-17 0.707107
vn 1 0 0
vn -0.000303 -0.001238999999999939 0.999999
vn -0.108382 0.698751 0.707107
vn -0.256348 0.750141 0.609569
vn -0.256348 0.750141 0.609569
vn 0.001206 -0.004377999999999938 0.99999
vn -0.256348 0.750141 0.609569
vn -0.527621 0.44379900000000005 0.724333
vn -0.527621 0.44379900000000005 0.724333
vn 0.003663 -0.0029789999999999387 0.999989
vn -0.527621 0.44379900000000005 0.724333
vn -0.384596 0.22357600000000005 0.8956
vn -0.384596 0.22357600000000005 0.8956
vn -2E-05 0.004521000000000061 0.99999
vn -1 -6.123233995736766E-23 -1E-06
vn -0.707107 4.3297754977894416E-17 0.707106
vn -0.707107 4.3297754977894416E-17 0.707106
vn -0.707107 4.3297754977894416E-17 0.707106
vn -1 0 0
vn 1 0 0
vn 0.707107 4.329781621023438E-17 0.707107
vn 0.707107 4.329781621023438E-17 0.707107
vn 0.707107 4.329781621023438E-17 0.707107
vn 1 0 0
vn 0.230384 -0.578686 0.782333
vn -0.797682 -0.415697 0.43692
vn -0.316379 -0.948633 -0.0008399999999999419
vn 0.057776 -0.998329 -0.0005749999999999388
vn 0.230384 -0.578686 0.782333
vn -0.000924 -1 6.123233995736766E-17
vn 0.183538 -0.894562 0.40752000000000005
vn 0.230384 -0.578686 0.782333
vn -0.797682 -0.415697 0.43692
vn -0.456058 0.624209 0.63433
vn -0.910288 0.413975 9.999999999746512E-07
vn -0.910288 0.413975 9.999999999746512E-07
vn -0.316379 -0.948633 -0.0008399999999999419
vn 0.056328 0.993453 0.09938599999999995
vn -0.445907 0.753756 0.48272099999999996
vn 0.880743 0.313036 0.355388
vn 0.880743 0.313036 0.355388
vn 0.998822 -0.048486 -0.002133999999999997
vn 0.534501 0.03135600000000005 0.844586
vn 0.880743 0.313036 0.355388
vn -0.445907 0.753756 0.48272099999999996
vn -0.445907 0.753756 0.48272099999999996
vn -0.495999 0.555119 0.667704
vn 0.099725 0.838655 0.535456
vn 0.541907 0.840437 -0.0018140000000000515
vn -0.832192 0.545508 0.09938699999999998
vn -0.956164 -0.09344699999999999 0.27752
vn 0.099725 0.838655 0.535456
vn -0.534501 0.03135500000000005 0.844586
vn 0.495998 0.555118 0.667704
vn 0.099725 0.838655 0.535456
vn 0.099725 0.838655 0.535456
vn -0.956164 -0.09344699999999999 0.27752
vn -0 1 -6.123233995736766E-17
vn -0.616907 0.4472130000000001 0.647631
vn -0.308454 0.894427 0.32381599999999994
vn -0.308454 0.894427 0.32381599999999994
vn -1E-06 1 9.999999999387675E-07
vn -0.86475 0.22848900000000003 0.447215
vn -0.432374 0.11424500000000005 0.894427
vn -0.96682 0.255458 1.9999999999843578E-06
vn -0.96682 0.255457 -1.564222986848927E-17
vn -0.86475 0.22848900000000003 0.447215
vn 0.99996 1.0000000000005482E-06 0.008953
vn -0.99996 -1.0000000000005482E-06 -0.008953
vn 0.99996 5.482131396383126E-19 0.008953
vn 0.99996 5.482131396383126E-19 0.008953
vn -0.99996 -5.482131396383126E-19 -0.008953
vn -0.333333 -0.666667 0.666666
vn 0.816497 -0.408248 0.408249
vn 0.333332 0.666667 0.666667
vn 0.333332 0.666667 0.666667
vn -0.816497 0.408248 0.408248
vn -0.447213 -0.0006369999999999452 0.894427
vn -0.894426 -0.0012729999999999727 0.447215
vn 0 -9.999999999387675E-07 1
vn 0 -9.999999999387675E-07 1
vn -0.447213 -0.0006369999999999452 0.894427
vn -0.333333 -0.666667 0.666667
vn 0.816497 -0.408248 0.408248
vn 0.408248 0.40824900000000003 0.816497
vn 0.408248 0.40824900000000003 0.816497
vn -0.666667 0.666666 0.33333299999999993
vn 0.82233 0.411264 0.393238
vn 0.411165 -0.41126299999999993 0.813514
vn 0.706937 -0.707107 -0.015496999999999957
vn 0.447106 0.894427 -0.009801000000000056
vn 0.82233 0.411264 0.393238
vn -0.766384 -0.481353 0.42538800000000004
vn -0.274911 0.742883 0.610367
vn -0.694118 0.719862 9.999999999559212E-07
vn -0.846823 -0.531875 3.256795081482492E-17
vn -0.766384 -0.481353 0.42538800000000004
vn 0.340293 -0.49607099999999993 0.798821
vn 0.183537 0.894562 0.40751999999999994
vn 0.230384 0.578686 0.782333
vn -0.797682 0.415697 0.43692
vn -0.479177 -0.39012699999999995 0.786251
vn -0.479177 -0.39012699999999995 0.786251
vn -0.015566 -0.905065 0.42498800000000003
vn -0.015566 -0.905065 0.42498800000000003
vn 0.340293 -0.49607099999999993 0.798821
vn -1E-06 -1 6.123233995736766E-17
vn -0.110187 -0.993911 6.085949623936725E-17
vn -0.775483 -0.631368 1.00000000003866E-06
vn -0.479177 -0.39012699999999995 0.786251
vn -0.80445 0.08003600000000004 0.588604
vn -0.434462 0.17265100000000005 0.883988
vn -0.707039 0.707175 0.0002409999999999567
vn -0.894427 -0.447213 2.7383898449354267E-17
vn -0.461963 -0.77215 0.43631900000000007
vn -0.707039 0.707175 0.0002409999999999567
vn -1 0 0
vn -0.894427 -0.447213 2.7383898449354267E-17
vn 0.230384 -0.578686 0.782333
vn 0.183538 -0.894562 0.40752000000000005
vn 0.340293 0.49607100000000004 0.798821
vn 0.040632 0.850433 0.524511
vn -0.456058 0.624209 0.63433
vn -0.456058 0.624209 0.63433
vn -0.797682 -0.415697 0.43692
vn 0.340293 0.49607100000000004 0.798821
vn 0.040632 0.850433 0.524511
vn 0 1 -6.123233995736766E-17
vn -0.146815 0.989164 -6.056882632158963E-17
vn -0.456058 0.624209 0.63433
vn -0.910288 0.413975 9.999999999746512E-07
vn -0 6.123233995736766E-17 1
vn -0 6.123233995736766E-17 1
vn -0 6.123233995736766E-17 1
vn -0 1.0000000000612324E-06 1
vn 1E-06 6.123233995736766E-17 1
vn 1E-06 6.123233995736766E-17 1
vn 1E-06 6.123233995736766E-17 1
vn 1E-06 6.123233995736766E-17 1
vn 0.707107 4.329781621023438E-17 0.707107
vn -0.707107 4.329781621023438E-17 0.707107
vn -0.707107 4.329781621023438E-17 0.707107
vn 0.707107 4.329781621023438E-17 0.707107
vn -0.408248 0.40824800000000006 0.816497
vn -0.762955 -0.43694399999999994 0.476424
vn 0.551667 -0.564577 0.613935
vn 0.668128 0.664834 0.3340679999999999
vn -0.707107 0.707107 -4.329781621023438E-17
vn -0.109913 -0.993941 6.086133320956596E-17
vn -0.762955 -0.43694399999999994 0.476424
vn -0.408248 0.40824800000000006 0.816497
vn 0 6.123233995736766E-17 1
vn 0 6.123233995736766E-17 1
vn 0 6.123233995736766E-17 1
vn 0 6.123233995736766E-17 1
vn 0 -1 6.123233995736766E-17
vn -0.647822 -0.44721399999999994 0.616706
vn -0.266632 -0.73626 0.621955
vn 0 -1 6.123233995736766E-17
vn -0.647822 -0.44721399999999994 0.616706
vn -0.323911 0.894427 0.30835299999999993
vn -0.380205 0.26246800000000003 0.88688
vn -0.266632 -0.73626 0.621955
vn -0.323911 0.894427 0.30835299999999993
vn 0 1 -6.123233995736766E-17
vn 0 1 -6.123233995736766E-17
vn -0.380205 0.26246800000000003 0.88688
vn -0.432375 -0.11424499999999994 0.894427
vn -0.266632 -0.73626 0.621955
vn -0.380205 0.26246800000000003 0.88688
vn -0.864749 -0.22848899999999997 0.447216
vn -0 6.123233995736766E-17 1
vn 0 6.123233995736766E-17 1
vn -0 6.123233995736766E-17 1
vn -1E-06 6.123233995736766E-17 1
vn -0.274912 -0.742883 0.610367
vn -0.694117 -0.719862 1.0000000000440787E-06
vn 0.447106 -0.894427 -0.009800999999999945
vn 0.82233 -0.411264 0.393238
vn -0.766384 0.481353 0.42538799999999993
vn 0.411165 0.41126300000000005 0.813514
vn 0.706937 0.707107 -0.015497000000000044
vn -0.846823 0.531875 -3.256795081482492E-17
vn -0.593678 -0.597794 0.538692
vn -0.373595 0.38239200000000007 0.845105
vn -0.691332 0.707107 0.14852699999999994
vn -0.678815 -0.683399 0.26865600000000006
vn -0.308454 0.894427 0.32381499999999996
vn -0.616907 0.44721400000000006 0.647631
vn 0 1 -6.123233995736766E-17
vn 0 1 -6.123233995736766E-17
vn -0.616907 0.44721400000000006 0.647631
vn -0.308454 0.894427 0.32381499999999996
vn -0.616907 -0.44721299999999997 0.647631
vn -0.308454 -0.894427 0.32381600000000005
vn 0 -0.998873 0.04746900000000006
vn 0 -0.998873 0.04746900000000006
vn 0 -0.998873 0.04746900000000006
vn 0 -0.998873 0.04746900000000006
vn 1E-06 6.123233995736766E-17 1
vn 0 6.123233995736766E-17 1
vn 1E-06 6.123233995736766E-17 1
vn 1E-06 6.123233995736766E-17 1
vn 0 6.123233995736766E-17 1
vn 0 6.123233995736766E-17 1
vn 0 6.123233995736766E-17 1
vn 0 6.123233995736766E-17 1
vn -0.707107 4.329781621023438E-17 0.707107
vn -0.707107 4.329781621023438E-17 0.707107
vn 0.707107 4.329781621023438E-17 0.707107
vn 0.707107 4.329781621023438E-17 0.707107
vn -0.707107 4.3297754977894416E-17 0.707106
vn -0.707107 4.3297754977894416E-17 0.707106
vn 0.707107 4.329781621023438E-17 0.707107
vn 0.707107 4.329781621023438E-17 0.707107
vn 0.667111 -0.688067 0.28552900000000003
vn 0.418697 -0.08160299999999994 0.904452
vn -0.461963 -0.77215 0.43631900000000007
vn -0.894427 -0.447213 2.7383898449354267E-17
vn -0.707039 0.707175 0.0002409999999999567
vn -0.434462 0.17265100000000005 0.883988
vn 0.426764 0.705944 0.565256
vn 0.838545 0.409962 0.358851
vn -0 6.123233995736766E-17 1
vn 0 6.123233995736766E-17 1
vn -0 6.123233995736766E-17 1
vn -0 6.123233995736766E-17 1
vn 0 6.123233995736766E-17 1
vn 0 6.123233995736766E-17 1
vn 0 6.123233995736766E-17 1
vn 0 6.123233995736766E-17 1
vn 0.551667 0.564577 0.613935
vn -0.762955 0.43694400000000005 0.476424
vn -0.408248 -0.40824799999999994 0.816497
vn 0.668128 -0.664834 0.33406800000000003
vn -0.762955 0.43694400000000005 0.476424
vn -0.109912 0.993941 -6.086133320956596E-17
vn -0.707107 -0.707107 4.329781621023438E-17
vn -0.408248 -0.40824799999999994 0.816497
vn -0.691332 -0.707107 0.14852700000000005
vn -0.373595 -0.38239199999999995 0.845105
vn -0.593678 0.597794 0.538692
vn -0.678815 0.683399 0.26865599999999995
vn 0 -1 6.123233995736766E-17
vn -0.616907 -0.44721399999999994 0.647631
vn -0.308454 -0.894427 0.3238150000000001
vn 0 -1 6.123233995736766E-17
vn -0.616907 0.4472130000000001 0.647631
vn -0.308454 -0.894427 0.3238150000000001
vn -0.616907 -0.44721399999999994 0.647631
vn -0.308454 0.894427 0.32381599999999994
vn 0 6.123233995736766E-17 1
vn 0 6.123233995736766E-17 1
vn 0 6.123233995736766E-17 1
vn 0 6.123233995736766E-17 1
vn 0 6.123233995736766E-17 1
vn 0 6.123233995736766E-17 1
vn 0 6.123233995736766E-17 1
vn 0 6.123233995736766E-17 1
vn -0.266632 0.73626 0.621955
vn -0.647822 0.44721400000000006 0.616706
vn 0 1 -6.123233995736766E-17
vn 0 1 -6.123233995736766E-17
vn -0.380205 -0.26246699999999995 0.88688
vn -0.323911 -0.894427 0.30835300000000004
vn -0.647822 0.44721400000000006 0.616706
vn -0.266632 0.73626 0.621955
vn 0 -1 6.123233995736766E-17
vn 0 -1 6.123233995736766E-17
vn -0.323911 -0.894427 0.30835300000000004
vn -0.380205 -0.26246699999999995 0.88688
vn -0.380205 -0.26246699999999995 0.88688
vn -0.266632 0.73626 0.621955
vn -0.432374 0.11424500000000005 0.894427
vn -0.86475 0.22848900000000003 0.447215
vn -0 6.123233995736766E-17 1
vn 0 6.123233995736766E-17 1
vn -0 6.123233995736766E-17 1
vn -1E-06 6.123233995736766E-17 1
vn 0 6.123233995736766E-17 1
vn 0 6.123233995736766E-17 1
vn 0 6.123233995736766E-17 1
vn 0 6.123233995736766E-17 1
vn -0.99996 -1.0000000000005482E-06 -0.008953
vn 0.99996 1.0000000000005482E-06 0.008953
vn -0.99996 -5.482131396383126E-19 -0.008953
vn 0.99996 5.482131396383126E-19 0.008953
vn -1E-06 6.123233995736766E-17 1
vn 0 6.123233995736766E-17 1
vn -1E-06 6.123233995736766E-17 1
vn -2E-06 6.123233995736766E-17 1
vn 0.333332 0.666667 0.666667
vn 0.816496 0.408249 -0.408248
vn -0.333334 0.666666 -0.666667
vn -0.816497 0.408248 0.408248
vn -0.816496 -0.408249 -0.408248
vn -0.333333 -0.666667 0.666666
vn -0.816497 0.408248 0.408248
vn -0.333334 0.666666 -0.666667
vn 0.816497 -0.408248 0.408249
vn 0.333333 -0.666667 -0.666667
vn 0.816496 0.408249 -0.408248
vn 0.333332 0.666667 0.666667
vn 0.333333 -0.666667 -0.666667
vn 0.816497 -0.408248 0.408249
vn -0.333333 -0.666667 0.666666
vn -0.816496 -0.408249 -0.408248
vn -0.999999 -0.001423 2.000000000000087E-06
vn -0.999999 -0.001423 4.000000000000087E-06
vn -0.894426 -0.0012729999999999727 0.447215
vn -0.447213 -0.0006369999999999452 0.894427
vn -0.816496 -0.408249 -0.408249
vn -0.333333 -0.666667 0.666667
vn -0.666667 0.666666 0.33333299999999993
vn -0.408248 0.40824799999999994 -0.816497
vn 0.816497 -0.408248 0.408248
vn 0.333334 -0.666666 -0.666667
vn 0.666666 0.666667 -0.33333300000000005
vn 0.408248 0.40824900000000003 0.816497
vn 0.333334 -0.666666 -0.666667
vn 0.816497 -0.408248 0.408248
vn -0.333333 -0.666667 0.666667
vn -0.816496 -0.408249 -0.408249
vn -0.666667 0.666666 0.33333299999999993
vn 0.408248 0.40824900000000003 0.816497
vn 0.666666 0.666667 -0.33333300000000005
vn -0.408248 0.40824799999999994 -0.816497
vn 0.447106 0.894427 -0.009801000000000056
vn -0.694118 0.719862 9.999999999559212E-07
vn -0.274911 0.742883 0.610367
vn 0.82233 0.411264 0.393238
vn 0.706937 -0.707107 -0.015496999999999957
vn 0.411165 -0.41126299999999993 0.813514
vn -0.766384 -0.481353 0.42538800000000004
vn -0.846823 -0.531875 3.256795081482492E-17
vn 0 6.123233995736766E-17 1
vn 0 6.123233995736766E-17 1
vn 0 6.123233995736766E-17 1
vn 0 6.123233995736766E-17 1
vn 1E-06 6.123233995736766E-17 1
vn 1E-06 6.123233995736766E-17 1
vn 1E-06 6.123233995736766E-17 1
vn 1E-06 6.123233995736766E-17 1
vn 0 6.123233995736766E-17 1
vn 1E-06 6.123233995736766E-17 1
vn 0 6.123233995736766E-17 1
vn 0 6.123233995736766E-17 1
vn -0.86283 -0.498156 -0.08582099999999997
vn -0.541906 -0.840437 -0.0018139999999999487
vn -0.859136 -0.509336 -0.049618999999999976
vn -0.099725 -0.838655 0.535455
vn -0.495999 -0.555118 0.667704
vn 0.832192 -0.545508 0.09938600000000003
vn 0.873951 0.481016 -0.06952500000000003
vn 0.956164 0.09344700000000002 0.27752
vn 0.875505 0.481899 -0.03554500000000003
vn 0.5345 -0.03135499999999995 0.844586
vn -0.056329 -0.993453 0.09938600000000006
vn 0.854032 -0.515563 -0.06945699999999998
vn 0.445908 -0.753755 0.48272200000000004
vn 0.855573 -0.516466 -0.035475999999999966
vn 0.496 -0.555117 0.667705
vn -0.862761 0.498113 -0.08675300000000002
vn -0.998822 0.048486 -0.002133000000000003
vn -0.870893 0.488936 -0.04986000000000003
vn -0.880743 -0.313036 0.355388
vn -0.5345 -0.03135499999999995 0.844586
vn -0.593678 -0.597794 0.538692
vn -0.678815 -0.683399 0.26865600000000006
vn 4E-05 -0.984233 0.17687900000000006
vn -0.2148 -0.814723 0.538598
vn 0.416092 -0.909166 -0.016851999999999943
vn 0.683369 -0.728178 -0.052574999999999955
vn -0.708184 -0.705023 0.037664000000000045
vn 0.697189 -0.706889 0.11931300000000004
vn 0.347647 -0.830659 0.4349100000000001
vn 0.926937 -0.326735 0.18447900000000003
vn -0.761778 -0.569766 0.30832100000000007
vn -0.29251 -0.34945899999999996 0.890122
vn 0.8923 0.444598 0.07832099999999997
vn 0.037753 0.997747 -0.05545800000000006
vn 0.432025 0.760827 0.48424899999999993
vn 0.012552 0.999876 -0.009511000000000061
vn 0.080941 0.559326 0.824987
vn -0.344654 0.571437 0.744764
vn -0.216243 0.725102 0.653809
vn -0.078891 0.711321 0.698426
vn -0.011227 0.999245 -0.03718900000000006
vn -0.678171 0.50336 0.535456
vn -0.459947 0.887945 -0.0018140000000000545
vn -0.003432 0.996305 -0.08582200000000005
vn -0.886973 -0.451001 0.09938700000000003
vn -0.016967 -0.997436 -0.06952499999999995
vn -0.39414 -0.876149 0.27752000000000004
vn -0.011315 -0.999655 -0.023724999999999937
vn -0.155282 -0.711902 0.684896
vn 0.007866 -0.999725 -0.02208899999999994
vn -0.246405 -0.620004 0.744902
vn 0.144448 -0.711633 0.687542
vn -0.204775 -0.32905299999999993 0.921841
vn 0.714417 -0.609471 0.34373300000000007
vn 0.4632 -0.886217 -0.008022999999999947
vn -0.00343 -0.996344 -0.08535999999999995
vn -0.866846 0.498573 0.0017479999999999694
vn -0.384596 0.22357600000000005 0.8956
vn -0.527621 0.44379900000000005 0.724333
vn -0.631504 0.775297 0.010844999999999954
vn -0.256348 0.750141 0.609569
vn -0.322025 0.946731 -0.00020100000000005798
vn -0.153867 0.988091 -0.0011250000000000604
vn -0.108382 0.698751 0.707107
vn 0.056328 0.993453 0.09938599999999995
vn -0.854032 0.515563 -0.06945600000000003
vn -0.445907 0.753756 0.48272099999999996
vn -0.855572 0.516467 -0.035477000000000036
vn -0.495999 0.555119 0.667704
vn 0.862761 -0.498114 -0.08675399999999997
vn 0.998822 -0.048486 -0.002133999999999997
vn 0.870893 -0.488937 -0.049859999999999974
vn 0.880743 0.313036 0.355388
vn 0.534501 0.03135600000000005 0.844586
vn 0.668128 -0.664834 0.33406800000000003
vn 0.708852 -0.705357 4.319065961530898E-17
vn 0.932759 0.360501 -2.2074319786971E-17
vn 0.551667 0.564577 0.613935
vn -0.109912 0.993941 -6.086133320956596E-17
vn -0.762955 0.43694400000000005 0.476424
vn 0.86283 0.498155 -0.08582200000000002
vn 0.541907 0.840437 -0.0018140000000000515
vn 0.859136 0.509336 -0.049620000000000025
vn 0.099725 0.838655 0.535456
vn 0.495998 0.555118 0.667704
vn -0.832192 0.545508 0.09938699999999998
vn -0.87395 -0.481017 -0.06952499999999998
vn -0.956164 -0.09344699999999999 0.27752
vn -0.875505 -0.481899 -0.03554599999999997
vn -0.534501 0.03135500000000005 0.844586
vn 0.659736 -0.707107 -0.25445599999999996
vn 0.416092 0.909166 -0.016852000000000054
vn 0.683369 0.728178 -0.05257500000000004
vn 0.693563 -0.72026 0.013999000000000043
vn 0.697189 0.706889 0.11931299999999996
vn 0.828492 -0.556442 0.06303000000000003
vn 0.926937 0.326735 0.18447899999999998
vn 0.641658 -0.719875 0.26467900000000005
vn 0.347647 0.830659 0.43490999999999996
vn 0.29251 -0.34945899999999996 0.890121
vn -0.29251 0.3494590000000001 0.890122
vn -0.416074 -0.745619 0.520514
vn -0.761778 0.569766 0.3083199999999999
vn -0.929175 -0.327533 0.17133500000000002
vn -0.708184 0.705023 0.03766399999999996
vn -0.371215 -0.928527 0.005993000000000057
vn -0.363663 -0.910209 0.19816600000000006
vn -0.2148 0.814723 0.538598
vn -0.527621 -0.44379899999999994 0.724333
vn -0.384596 -0.22357599999999994 0.8956
vn -0.866846 -0.498573 0.0017470000000000306
vn -0.631504 -0.775297 0.010846000000000047
vn -0.256348 -0.75014 0.60957
vn -0.322025 -0.946731 -0.000197999999999942
vn -0.153866 -0.988091 -0.0011239999999999395
vn -0.108382 -0.698751 0.707107
vn 0.932759 -0.360501 2.2074319786971E-17
vn 0.708852 0.705357 -4.319065961530898E-17
vn 0.668128 0.664834 0.3340679999999999
vn 0.551667 -0.564577 0.613935
vn -0.109913 -0.993941 6.086133320956596E-17
vn -0.762955 -0.43694399999999994 0.476424
vn 0.683369 -0.728178 -0.052574999999999955
vn 0.416092 -0.909166 -0.016851999999999943
vn 0.659736 0.707107 -0.25445600000000007
vn 0.693563 0.72026 0.013998999999999956
vn 0.697189 -0.706889 0.11931300000000004
vn 0.828492 0.556442 0.06302999999999997
vn 0.926937 -0.326735 0.18447900000000003
vn 0.641658 0.719875 0.26467899999999994
vn 0.347647 -0.830659 0.4349100000000001
vn 0.29251 0.3494590000000001 0.890121
vn -0.29251 -0.34945899999999996 0.890122
vn -0.416074 0.745619 0.520514
vn -0.761778 -0.569766 0.30832100000000007
vn -0.929175 0.327533 0.17133499999999996
vn -0.708184 -0.705023 0.037664000000000045
vn -0.371215 0.928527 0.005992999999999943
vn -0.363663 0.910209 0.19816599999999995
vn -0.2148 -0.814723 0.538598
vn 0.714417 -0.609471 0.34373300000000007
vn 0.4632 -0.886217 -0.008022999999999947
vn 0.8923 0.444598 0.07832099999999997
vn 0.432025 0.760827 0.48424899999999993
vn 0.144448 -0.711633 0.687542
vn 0.080941 0.559326 0.824987
vn -0.204775 -0.32905299999999993 0.921841
vn -0.344654 0.571437 0.744764
vn -0.246405 -0.620004 0.744902
vn -0.216243 0.725102 0.653809
vn -0.078891 0.711321 0.698426
vn -0.155282 -0.711902 0.684896
vn -0.678171 0.50336 0.535456
vn -0.39414 -0.876149 0.27752000000000004
vn -0.886973 -0.451001 0.09938700000000003
vn -0.459947 0.887945 -0.0018140000000000545
vn -0.80445 0.08003600000000004 0.588604
vn -0.461963 -0.77215 0.43631900000000007
vn 0.418697 -0.08160299999999994 0.904452
vn 0.652408 -0.04529499999999995 0.756513
vn -0.434462 0.17265100000000005 0.883988
vn 0.426764 0.705944 0.565256
vn 4E-05 0.984233 0.17687899999999995
vn -0.678815 0.683399 0.26865599999999995
vn -0.593678 0.597794 0.538692
vn -0.2148 0.814723 0.538598
vn 0.416092 0.909166 -0.016852000000000054
vn 0.683369 0.728178 -0.05257500000000004
vn -0.708184 0.705023 0.03766399999999996
vn 0.697189 0.706889 0.11931299999999996
vn 0.347647 0.830659 0.43490999999999996
vn 0.926937 0.326735 0.18447899999999998
vn -0.761778 0.569766 0.3083199999999999
vn -0.29251 0.3494590000000001 0.890122
vn 0 6.123233995736766E-17 1
vn 0 6.123233995736766E-17 1
vn 0 6.123233995736766E-17 1
vn 0 6.123233995736766E-17 1
vn 0 6.123233995736766E-17 1
vn 0 6.123233995736766E-17 1
vn 0 6.123233995736766E-17 1
vn 0 6.123233995736766E-17 1
vn 0 6.123233995736766E-17 1
vn 0 6.123233995736766E-17 1
vn 1E-06 6.123233995736766E-17 1
vn 1E-06 6.123233995736766E-17 1
vn 0.652408 -0.04529499999999995 0.756513
vn 0.418697 -0.08160299999999994 0.904452
vn 0.667111 -0.688067 0.28552900000000003
vn 0.880716 -9.999999999709975E-07 0.473645
vn 0.838545 0.409962 0.358851
vn 0.426764 0.705944 0.565256
vn -0.416074 0.745619 0.520514
vn 0.29251 0.3494590000000001 0.890121
vn 0.641658 0.719875 0.26467899999999994
vn -0.371215 0.928527 0.005992999999999943
vn -0.929175 0.327533 0.17133499999999996
vn 0.828492 0.556442 0.06302999999999997
vn 0.693563 0.72026 0.013998999999999956
vn -0.363663 0.910209 0.19816599999999995
vn 0.659736 0.707107 -0.25445600000000007
vn 0 1 -6.123233995736766E-17
vn -0.691332 0.707107 0.14852699999999994
vn -0.373595 0.38239200000000007 0.845105
vn 0.641658 -0.719875 0.26467900000000005
vn 0.29251 -0.34945899999999996 0.890121
vn -0.416074 -0.745619 0.520514
vn -0.371215 -0.928527 0.005993000000000057
vn -0.929175 -0.327533 0.17133500000000002
vn 0.828492 -0.556442 0.06303000000000003
vn 0.693563 -0.72026 0.013999000000000043
vn -0.363663 -0.910209 0.19816600000000006
vn 0.659736 -0.707107 -0.25445599999999996
vn 0 -1 6.123233995736766E-17
vn -0.691332 -0.707107 0.14852700000000005
vn -0.373595 -0.38239199999999995 0.845105
vn -1E-06 1 9.999999999387675E-07
vn -0 1 -6.123233995736766E-17
vn -0 1 -6.123233995736766E-17
vn 0 1 -6.123233995736766E-17
vn -0 1 -6.123233995736766E-17
vn -0 1 -6.123233995736766E-17
vn 0 1 -6.123233995736766E-17
vn -1E-06 1 -6.123233995736766E-17
vn 0 1 -6.123233995736766E-17
vn -1E-06 1 -6.123233995736766E-17
g Default Standaradwd
f 1/1/1 2/2/2 3/3/3
f 4/4/4 5/5/5 6/6/6
f 7/7/7 8/8/8 9/9/9
f 10/10/10 11/11/11 12/12/12
f 13/13/13 14/14/14 15/15/15
f 16/16/16 17/17/17 18/18/18
f 19/19/19 20/20/20 21/21/21
f 22/22/22 23/23/23 24/24/24
f 25/25/25 26/26/26 27/27/27
f 28/28/28 29/29/29 30/30/30
f 31/31/31 32/32/32 33/33/33
f 34/34/34 35/35/35 36/36/36
f 37/37/37 38/38/38 39/39/39
f 40/40/40 41/41/41 42/42/42
f 43/43/43 44/44/44 45/45/45
f 46/46/46 47/47/47 48/48/48
f 49/49/49 50/50/50 51/51/51
f 51/51/51 52/52/52 53/53/53
f 54/54/54 55/55/55 56/56/56
f 56/56/56 57/57/57 58/58/58
f 59/59/59 60/60/60 61/61/61
f 61/61/61 62/62/62 63/63/63
f 64/64/64 65/65/65 62/62/62
f 62/62/62 66/66/66 67/67/67
f 68/68/68 69/69/69 66/66/66
f 66/66/66 70/70/70 71/71/71
f 72/72/72 73/73/73 74/74/74
f 75/75/75 76/76/76 72/72/72
f 77/77/77 78/78/78 76/76/76
f 76/76/76 79/79/79 77/77/77
f 80/80/80 81/81/81 82/82/82
f 82/82/82 83/83/83 84/84/84
f 85/85/85 86/86/86 87/87/87
f 87/87/87 88/88/88 89/89/89
f 90/90/90 91/91/91 92/92/92
f 92/92/92 93/93/93 94/94/94
f 95/95/95 96/96/96 97/97/97
f 98/98/98 99/99/99 95/95/95
f 100/100/100 101/101/101 102/102/102
f 102/102/102 103/103/103 104/104/104
f 105/105/105 106/106/106 107/107/107
f 108/108/108 109/109/109 105/105/105
f 110/110/110 111/111/111 112/112/112
f 113/113/113 114/114/114 110/110/110
f 115/115/115 116/116/116 117/117/117
f 118/118/118 119/119/119 115/115/115
f 120/120/120 121/121/121 122/122/122
f 122/122/122 123/123/123 124/124/124
f 125/125/125 126/126/126 127/127/127
f 128/128/128 129/129/129 125/125/125
f 130/130/130 131/131/131 132/132/132
f 133/133/133 134/134/134 130/130/130
f 135/135/135 136/136/136 137/137/137
f 138/138/138 139/139/139 135/135/135
f 139/139/139 140/140/140 141/141/141
f 142/142/142 143/143/143 139/139/139
f 143/143/143 144/144/144 145/145/145
f 146/146/146 147/147/147 143/143/143
f 148/148/148 149/149/149 150/150/150
f 151/151/151 152/152/152 148/148/148
f 153/153/153 154/154/154 155/155/155
f 156/156/156 157/157/157 153/153/153
f 158/158/158 159/159/159 160/160/160
f 160/160/160 161/161/161 162/162/162
f 161/161/161 163/163/163 164/164/164
f 164/164/164 165/165/165 161/161/161
f 166/166/166 167/167/167 168/168/168
f 169/169/169 170/170/170 166/166/166
f 171/171/171 172/172/172 173/173/173
f 174/174/174 175/175/175 171/171/171
f 176/176/176 177/177/177 178/178/178
f 179/179/179 180/180/180 176/176/176
f 181/181/181 182/182/182 183/183/183
f 183/183/183 184/184/184 185/185/185
f 186/186/186 187/187/187 188/188/188
f 189/189/189 190/190/190 186/186/186
f 191/191/191 192/192/192 193/193/193
f 194/194/194 195/195/195 191/191/191
f 196/196/196 197/197/197 198/198/198
f 198/198/198 199/199/199 200/200/200
f 201/201/201 202/202/202 203/203/203
f 204/204/204 205/205/205 201/201/201
f 206/206/206 207/207/207 208/208/208
f 209/209/209 210/210/210 206/206/206
f 211/211/211 212/212/212 213/213/213
f 213/213/213 214/214/214 215/215/215
f 216/216/216 217/217/217 218/218/218
f 219/219/219 220/220/220 216/216/216
f 221/221/221 222/222/222 223/223/223
f 223/223/223 224/224/224 225/225/225
f 226/226/226 227/227/227 228/228/228
f 228/228/228 229/229/229 230/230/230
f 231/231/231 232/232/232 233/233/233
f 233/233/233 234/234/234 235/235/235
f 236/236/236 237/237/237 233/233/233
f 233/233/233 238/238/238 239/239/239
f 240/240/240 239/239/239 238/238/238
f 238/238/238 241/241/241 240/240/240
f 242/242/242 241/241/241 238/238/238
f 238/238/238 243/243/243 242/242/242
f 244/244/244 245/245/245 246/246/246
f 247/247/247 248/248/248 244/244/244
f 249/249/249 250/250/250 244/244/244
f 244/244/244 250/250/250 251/251/251
f 252/252/252 253/253/253 254/254/254
f 252/252/252 255/255/255 256/256/256
f 257/257/257 258/258/258 252/252/252
f 259/259/259 260/260/260 252/252/252
f 260/260/260 259/259/259 261/261/261
f 261/261/261 262/262/262 260/260/260
f 263/263/263 260/260/260 262/262/262
f 262/262/262 264/264/264 263/263/263
f 265/265/265 266/266/266 267/267/267
f 267/267/267 268/268/268 265/265/265
f 269/269/269 270/270/270 271/271/271
f 271/271/271 272/272/272 269/269/269
f 273/273/273 274/274/274 275/275/275
f 275/275/275 276/276/276 273/273/273
f 277/277/277 278/278/278 279/279/279
f 279/279/279 280/280/280 277/277/277
f 281/281/281 282/282/282 283/283/283
f 283/283/283 284/284/284 281/281/281
f 285/285/285 286/286/286 287/287/287
f 287/287/287 288/288/288 285/285/285
f 289/289/289 290/290/290 291/291/291
f 291/291/291 292/292/292 289/289/289
f 293/293/293 294/294/294 295/295/295
f 295/295/295 296/296/296 293/293/293
f 297/297/297 298/298/298 299/299/299
f 299/299/299 300/300/300 297/297/297
f 301/301/301 302/302/302 303/303/303
f 303/303/303 304/304/304 301/301/301
f 305/305/305 306/306/306 307/307/307
f 307/307/307 308/308/308 305/305/305
f 309/309/309 310/310/310 311/311/311
f 311/311/311 312/312/312 309/309/309
f 313/313/313 314/314/314 315/315/315
f 315/315/315 316/316/316 313/313/313
f 317/317/317 318/318/318 319/319/319
f 319/319/319 320/320/320 317/317/317
f 321/321/321 322/322/322 323/323/323
f 323/323/323 324/324/324 321/321/321
f 325/325/325 326/326/326 327/327/327
f 327/327/327 328/328/328 325/325/325
f 329/329/329 330/330/330 331/331/331
f 331/331/331 332/332/332 329/329/329
f 333/333/333 334/334/334 335/335/335
f 335/335/335 336/336/336 333/333/333
f 337/337/337 338/338/338 339/339/339
f 339/339/339 340/340/340 337/337/337
f 341/341/341 342/342/342 343/343/343
f 343/343/343 344/344/344 341/341/341
f 345/345/345 346/346/346 347/347/347
f 347/347/347 348/348/348 345/345/345
f 349/349/349 350/350/350 351/351/351
f 351/351/351 352/352/352 349/349/349
f 353/353/353 354/354/354 355/355/355
f 355/355/355 356/356/356 353/353/353
f 357/357/357 358/358/358 359/359/359
f 359/359/359 360/360/360 357/357/357
f 361/361/361 362/362/362 363/363/363
f 363/363/363 364/364/364 361/361/361
f 365/365/365 366/366/366 367/367/367
f 367/367/367 368/368/368 365/365/365
f 369/369/369 370/370/370 371/371/371
f 371/371/371 372/372/372 369/369/369
f 373/373/373 374/374/374 375/375/375
f 375/375/375 376/376/376 373/373/373
f 377/377/377 378/378/378 379/379/379
f 379/379/379 380/380/380 377/377/377
f 381/381/381 382/382/382 383/383/383
f 383/383/383 384/384/384 381/381/381
f 385/385/385 386/386/386 387/387/387
f 387/387/387 388/388/388 385/385/385
f 389/389/389 390/390/390 391/391/391
f 391/391/391 392/392/392 389/389/389
f 393/393/393 394/394/394 395/395/395
f 395/395/395 396/396/396 393/393/393
f 397/397/397 398/398/398 399/399/399
f 399/399/399 400/400/400 397/397/397
f 401/401/401 402/402/402 403/403/403
f 403/403/403 404/404/404 401/401/401
f 405/405/405 406/406/406 407/407/407
f 407/407/407 408/408/408 405/405/405
f 409/409/409 410/410/410 411/411/411
f 411/411/411 412/412/412 409/409/409
f 413/413/413 414/414/414 415/415/415
f 415/415/415 416/416/416 413/413/413
f 417/417/417 418/418/418 419/419/419
f 419/419/419 420/420/420 417/417/417
f 421/421/421 422/422/422 423/423/423
f 423/423/423 424/424/424 421/421/421
f 425/425/425 426/426/426 427/427/427
f 427/427/427 428/428/428 425/425/425
f 429/429/429 430/430/430 431/431/431
f 431/431/431 432/432/432 429/429/429
f 433/433/433 434/434/434 435/435/435
f 435/435/435 436/436/436 433/433/433
f 437/437/437 438/438/438 439/439/439
f 439/439/439 440/440/440 437/437/437
f 441/441/441 442/442/442 443/443/443
f 443/443/443 444/444/444 441/441/441
f 445/445/445 446/446/446 447/447/447
f 447/447/447 448/448/448 445/445/445
f 449/449/449 450/450/450 451/451/451
f 451/451/451 452/452/452 449/449/449
f 453/453/453 454/454/454 455/455/455
f 455/455/455 456/456/456 453/453/453
f 457/457/457 458/458/458 459/459/459
f 459/459/459 460/460/460 457/457/457
f 461/461/461 462/462/462 463/463/463
f 463/463/463 464/464/464 461/461/461
f 465/465/465 466/466/466 467/467/467
f 467/467/467 468/468/468 465/465/465
f 469/469/469 470/470/470 471/471/471
f 471/471/471 472/472/472 469/469/469
f 473/473/473 474/474/474 475/475/475
f 475/475/475 476/476/476 473/473/473
f 477/477/477 478/478/478 479/479/479
f 479/479/479 480/480/480 477/477/477
f 481/481/481 482/482/482 483/483/483
f 482/482/482 484/484/484 483/483/483
f 484/484/484 485/485/485 483/483/483
f 486/486/486 487/487/487 488/488/488
f 487/487/487 489/489/489 488/488/488
f 489/489/489 490/490/490 488/488/488
f 491/491/491 492/492/492 493/493/493
f 492/492/492 494/494/494 493/493/493
f 494/494/494 495/495/495 493/493/493
f 496/496/496 497/497/497 498/498/498
f 497/497/497 499/499/499 498/498/498
f 499/499/499 500/500/500 498/498/498
f 501/501/501 502/502/502 503/503/503
f 503/503/503 504/504/504 501/501/501
f 504/504/504 503/503/503 505/505/505
f 505/505/505 506/506/506 504/504/504
f 507/507/507 504/504/504 506/506/506
f 506/506/506 508/508/508 507/507/507
f 507/507/507 508/508/508 509/509/509
f 508/508/508 510/510/510 509/509/509
f 511/511/511 507/507/507 509/509/509
f 512/512/512 511/511/511 509/509/509
f 513/513/513 514/514/514 515/515/515
f 514/514/514 516/516/516 515/515/515
f 516/516/516 517/517/517 515/515/515
f 518/518/518 517/517/517 516/516/516
f 519/519/519 518/518/518 516/516/516
f 520/520/520 519/519/519 516/516/516
f 521/521/521 520/520/520 516/516/516
f 522/522/522 520/520/520 521/521/521
f 523/523/523 522/522/522 521/521/521
f 524/524/524 523/523/523 521/521/521
f 525/525/525 526/526/526 527/527/527
f 526/526/526 528/528/528 527/527/527
f 528/528/528 529/529/529 527/527/527
f 529/529/529 528/528/528 530/530/530
f 529/529/529 530/530/530 531/531/531
f 532/532/532 533/533/533 531/531/531
f 530/530/530 532/532/532 531/531/531
f 534/534/534 532/532/532 530/530/530
f 535/535/535 534/534/534 530/530/530
f 536/536/536 535/535/535 530/530/530
f 537/537/537 538/538/538 539/539/539
f 539/539/539 540/540/540 537/537/537
f 540/540/540 539/539/539 541/541/541
f 541/541/541 542/542/542 540/540/540
f 543/543/543 542/542/542 541/541/541
f 541/541/541 544/544/544 543/543/543
f 545/545/545 546/546/546 547/547/547
f 546/546/546 548/548/548 547/547/547
f 548/548/548 549/549/549 547/547/547
f 550/550/550 551/551/551 552/552/552
f 551/551/551 553/553/553 552/552/552
f 553/553/553 554/554/554 552/552/552
f 555/555/555 556/556/556 557/557/557
f 557/557/557 558/558/558 555/555/555
f 558/558/558 557/557/557 559/559/559
f 559/559/559 560/560/560 558/558/558
f 561/561/561 562/562/562 563/563/563
f 562/562/562 564/564/564 563/563/563
f 564/564/564 565/565/565 563/563/563
f 566/566/566 567/567/567 568/568/568
f 567/567/567 569/569/569 568/568/568
f 569/569/569 570/570/570 568/568/568
f 571/571/571 572/572/572 573/573/573
f 573/573/573 574/574/574 571/571/571
f 574/574/574 573/573/573 575/575/575
f 575/575/575 576/576/576 574/574/574
f 576/576/576 575/575/575 577/577/577
f 577/577/577 578/578/578 576/576/576
f 578/578/578 577/577/577 579/579/579
f 579/579/579 580/580/580 578/578/578
f 580/580/580 579/579/579 581/581/581
f 581/581/581 582/582/582 580/580/580
f 582/582/582 581/581/581 583/583/583
f 583/583/583 584/584/584 582/582/582
f 584/584/584 583/583/583 585/585/585
f 585/585/585 586/586/586 584/584/584
f 587/587/587 586/586/586 585/585/585
f 585/585/585 588/588/588 587/587/587
f 589/589/589 590/590/590 591/591/591
f 591/591/591 592/592/592 589/589/589
f 593/593/593 589/589/589 592/592/592
f 592/592/592 594/594/594 593/593/593
f 593/593/593 594/594/594 595/595/595
f 595/595/595 596/596/596 593/593/593
f 597/597/597 598/598/598 599/599/599
f 599/599/599 600/600/600 597/597/597
f 601/601/601 597/597/597 600/600/600
f 600/600/600 602/602/602 601/601/601
f 603/603/603 604/604/604 605/605/605
f 605/605/605 606/606/606 603/603/603
f 607/607/607 603/603/603 606/606/606
f 606/606/606 608/608/608 607/607/607
f 609/609/609 607/607/607 608/608/608
f 608/608/608 610/610/610 609/609/609
f 611/611/611 609/609/609 610/610/610
f 610/610/610 612/612/612 611/611/611
f 613/613/613 611/611/611 612/612/612
f 612/612/612 614/614/614 613/613/613
f 615/615/615 613/613/613 614/614/614
f 614/614/614 616/616/616 615/615/615
f 617/617/617 615/615/615 616/616/616
f 616/616/616 618/618/618 617/617/617
f 617/617/617 618/618/618 619/619/619
f 619/619/619 620/620/620 617/617/617
f 621/621/621 622/622/622 623/623/623
f 623/623/623 624/624/624 621/621/621
f 625/625/625 621/621/621 624/624/624
f 625/625/625 624/624/624 626/626/626
f 625/625/625 626/626/626 627/627/627
f 626/626/626 628/628/628 627/627/627
f 629/629/629 627/627/627 628/628/628
f 628/628/628 630/630/630 629/629/629
f 629/629/629 630/630/630 631/631/631
f 631/631/631 632/632/632 629/629/629
f 632/632/632 631/631/631 633/633/633
f 633/633/633 634/634/634 632/632/632
f 635/635/635 634/634/634 633/633/633
f 633/633/633 636/636/636 635/635/635
f 637/637/637 638/638/638 639/639/639
f 637/637/637 639/639/639 640/640/640
f 637/637/637 640/640/640 641/641/641
f 640/640/640 642/642/642 641/641/641
f 643/643/643 644/644/644 645/645/645
f 645/645/645 646/646/646 643/643/643
f 647/647/647 643/643/643 646/646/646
f 646/646/646 648/648/648 647/647/647
f 648/648/648 646/646/646 649/649/649
f 649/649/649 650/650/650 648/648/648
f 650/650/650 649/649/649 651/651/651
f 652/652/652 650/650/650 651/651/651
f 649/649/649 653/653/653 651/651/651
f 653/653/653 654/654/654 651/651/651
f 655/655/655 656/656/656 657/657/657
f 657/657/657 658/658/658 655/655/655
f 659/659/659 658/658/658 657/657/657
f 657/657/657 660/660/660 659/659/659
f 661/661/661 662/662/662 663/663/663
f 663/663/663 664/664/664 661/661/661
f 661/661/661 664/664/664 665/665/665
f 665/665/665 666/666/666 661/661/661
f 667/667/667 668/668/668 669/669/669
f 669/669/669 670/670/670 667/667/667
f 667/667/667 670/670/670 671/671/671
f 671/671/671 672/672/672 667/667/667
f 673/673/673 674/674/674 675/675/675
f 673/673/673 675/675/675 676/676/676
f 677/677/677 673/673/673 676/676/676
f 675/675/675 678/678/678 676/676/676
f 676/676/676 678/678/678 679/679/679
f 679/679/679 680/680/680 676/676/676
f 680/680/680 679/679/679 681/681/681
f 681/681/681 682/682/682 680/680/680
f 680/680/680 682/682/682 683/683/683
f 683/683/683 684/684/684 680/680/680
f 685/685/685 686/686/686 687/687/687
f 688/688/688 685/685/685 687/687/687
f 689/689/689 688/688/688 687/687/687
f 688/688/688 690/690/690 685/685/685
f 691/691/691 690/690/690 688/688/688
f 688/688/688 692/692/692 691/691/691
f 693/693/693 691/691/691 692/692/692
f 692/692/692 694/694/694 693/693/693
f 695/695/695 694/694/694 692/692/692
f 692/692/692 696/696/696 695/695/695
f 697/697/697 698/698/698 699/699/699
f 698/698/698 700/700/700 701/701/701
f 698/698/698 701/701/701 699/699/699
f 702/702/702 703/703/703 699/699/699
f 701/701/701 702/702/702 699/699/699
f 701/701/701 704/704/704 702/702/702
f 704/704/704 705/705/705 702/702/702
f 701/701/701 706/706/706 704/704/704
