v -1.129577 0.18311000000000008 1.197325
v -1.703951 0.09699300000000007 1.197325
v -1.38548 -0.06860199999999993 1.197325
v -1.644874 0.45104800000000006 1.197325
v -1.289891 0.5042720000000002 1.197325
vt 0.863681 0.610806
vt 0.817763 0.547111
vt 0.852228 0.545922
vt 0.807804 0.612259
vt 0.836045 0.651789
vn 0 6.123233995736766E-17 1
vn 0 6.123233995736766E-17 1
vn 0 6.123233995736766E-17 1
vn 0 6.123233995736766E-17 1
vn 0 6.123233995736766E-17 1
g 09 - Default
f 1/1/1 2/2/2 3/3/3
f 1/1/1 4/4/4 2/2/2
f 1/1/1 5/5/5 4/4/4
