v 1.857368 1.3842 -0.025085000000000083
v 1.871326 1.410524 0.21502899999999991
v 1.835953 1.489051 0.22258299999999992
v 1.835953 1.489051 0.22258299999999992
v 1.806414 1.495432 -0.02508500000000009
v 1.921409 1.562038 -0.025085000000000097
v 1.912165 1.533266 0.22258299999999992
v 1.950422 1.44183 0.21502899999999991
v 1.950422 1.44183 0.21502899999999991
v 1.979334 1.436535 -0.025085000000000086
v 1.318617 1.383207 -0.025085000000000083
v 1.313058 1.535627 -0.025085000000000093
v 1.26678 1.5159 0.1249419999999999
v 1.26678 1.5159 0.1249419999999999
v 1.268436 1.408092 0.12494199999999991
v 1.848671 0.538069 -0.02508500000000003
v 2.001092 0.543628 -0.025085000000000034
v 1.981365 0.589906 0.12494199999999996
v 1.981365 0.589906 0.12494199999999996
v 1.873556 0.58825 0.12494199999999996
v 1.565201 -1.56468 -0.025084999999999903
v 1.576812 -1.537239 0.21502900000000008
v 1.534729 -1.462094 0.2225830000000001
v 1.534729 -1.462094 0.2225830000000001
v 1.504746 -1.458313 -0.02508499999999991
v 1.613498 -1.381937 -0.025084999999999916
v 1.606797 -1.411405 0.2225830000000001
v 1.652878 -1.499159 0.21502900000000008
v 1.652878 -1.499159 0.21502900000000008
v 1.682142 -1.501914 -0.025084999999999906
v 1.318617 -1.514193 -0.025084999999999906
v 1.313058 -1.361772 -0.025084999999999916
v 1.26678 -1.3815 0.12494200000000008
v 1.26678 -1.3815 0.12494200000000008
v 1.268436 -1.489308 0.1249420000000001
v 1.848671 -1.505998 -0.025084999999999906
v 2.001092 -1.500439 -0.02508499999999991
v 1.981365 -1.454161 0.12494200000000008
v 1.981365 -1.454161 0.12494200000000008
v 1.873556 -1.455818 0.12494200000000008
v -0.610533 1.274913 -0.02508500000000008
v -0.598922 1.302353 0.21502899999999991
v -0.641006 1.377498 0.22258299999999992
v -0.641006 1.377498 0.22258299999999992
v -0.670988 1.38128 -0.025085000000000083
v -0.562236 1.457656 -0.02508500000000009
v -0.568937 1.428187 0.22258299999999992
v -0.522856 1.340433 0.21502899999999991
v -0.522856 1.340433 0.21502899999999991
v -0.493593 1.337679 -0.025085000000000083
v -1.999985 -0.549088 -0.025084999999999965
v -1.986027 -0.522764 0.21502900000000003
v -2.0214 -0.444237 0.22258300000000003
v -2.0214 -0.444237 0.22258300000000003
v -2.050939 -0.437857 -0.025084999999999972
v -1.935945 -0.37125 -0.025084999999999975
v -1.945189 -0.400022 0.22258300000000003
v -1.906931 -0.491458 0.21502900000000003
v -1.906931 -0.491458 0.21502900000000003
v -1.878019 -0.496753 -0.02508499999999997
v -0.964057 -1.415244 -0.025084999999999913
v -0.945234 -1.5666 -0.025084999999999903
v -0.900852 -1.542915 0.1249420000000001
v -0.900852 -1.542915 0.1249420000000001
v -0.911898 -1.435661 0.12494200000000008
v 1.10703 1.564018 -0.025085000000000097
v 0.871656 1.562055 -0.025085000000000097
v 0.919453 1.532561 0.0984519999999999
v 1.26678 1.5159 0.1249419999999999
v 1.313058 1.535627 -0.025085000000000093
v 1.104903 1.539704 0.1372079999999999
v 0.919453 1.532561 0.0984519999999999
v 0.871656 1.562055 -0.025085000000000097
v 0.85925 1.420248 -0.025085000000000086
v 0.91095 1.435366 0.09845199999999991
v 1.094201 1.417387 -0.025085000000000086
v 1.095946 1.437331 0.13677599999999993
v 0.91095 1.435366 0.09845199999999991
v 0.91095 1.435366 0.09845199999999991
v 0.85925 1.420248 -0.025085000000000086
v 1.268436 1.408092 0.12494199999999991
v 1.095946 1.437331 0.13677599999999993
v 1.318617 1.383207 -0.025085000000000083
v 1.268436 1.408092 0.12494199999999991
v 2.029483 0.749656 -0.025085000000000045
v 2.027519 0.98503 -0.02508500000000006
v 1.998025 0.937233 0.09845199999999994
v 1.981365 0.589906 0.12494199999999996
v 2.001092 0.543628 -0.025085000000000034
v 2.005169 0.751783 0.13720799999999994
v 1.998025 0.937233 0.09845199999999994
v 2.027519 0.98503 -0.02508500000000006
v 1.885713 0.997436 -0.025085000000000062
v 1.900831 0.945737 0.09845199999999994
v 1.882852 0.762485 -0.025085000000000045
v 1.902795 0.76074 0.13677599999999995
v 1.900831 0.945737 0.09845199999999994
v 1.900831 0.945737 0.09845199999999994
v 1.885713 0.997436 -0.025085000000000062
v 1.873556 0.58825 0.12494199999999996
v 1.902795 0.76074 0.13677599999999995
v 1.848671 0.538069 -0.02508500000000003
v 1.873556 0.58825 0.12494199999999996
v 1.10703 -1.333382 -0.025084999999999916
v 0.871656 -1.335345 -0.025084999999999916
v 0.919453 -1.364839 0.09845200000000008
v 1.26678 -1.3815 0.12494200000000008
v 1.313058 -1.361772 -0.025084999999999916
v 1.104903 -1.357695 0.13720800000000008
v 0.919453 -1.364839 0.09845200000000008
v 0.871656 -1.335345 -0.025084999999999916
v 0.85925 -1.477152 -0.02508499999999991
v 0.91095 -1.462034 0.09845200000000008
v 1.094201 -1.480013 -0.02508499999999991
v 1.095946 -1.460069 0.1367760000000001
v 0.91095 -1.462034 0.09845200000000008
v 0.91095 -1.462034 0.09845200000000008
v 0.85925 -1.477152 -0.02508499999999991
v 1.268436 -1.489308 0.1249420000000001
v 1.095946 -1.460069 0.1367760000000001
v 1.318617 -1.514193 -0.025084999999999906
v 1.268436 -1.489308 0.1249420000000001
v 2.029483 -1.294411 -0.02508499999999992
v 2.027519 -1.059037 -0.025084999999999934
v 1.998025 -1.106834 0.09845200000000007
v 1.981365 -1.454161 0.12494200000000008
v 2.001092 -1.500439 -0.02508499999999991
v 2.005169 -1.292284 0.13720800000000008
v 1.998025 -1.106834 0.09845200000000007
v 2.027519 -1.059037 -0.025084999999999934
v 1.885713 -1.046631 -0.025084999999999937
v 1.900831 -1.098331 0.09845200000000007
v 1.882852 -1.281583 -0.02508499999999992
v 1.902795 -1.283327 0.1367760000000001
v 1.900831 -1.098331 0.09845200000000007
v 1.900831 -1.098331 0.09845200000000007
v 1.885713 -1.046631 -0.025084999999999937
v 1.873556 -1.455818 0.12494200000000008
v 1.902795 -1.283327 0.1367760000000001
v 1.848671 -1.505998 -0.025084999999999906
v 1.873556 -1.455818 0.12494200000000008
v -0.737516 -1.576927 -0.025084999999999903
v -0.503209 -1.554456 -0.025084999999999906
v -0.553395 -1.52924 0.0984520000000001
v -0.900852 -1.542915 0.1249420000000001
v -0.945234 -1.5666 -0.025084999999999903
v -0.737516 -1.55252 0.13720800000000008
v -0.553395 -1.52924 0.0984520000000001
v -0.503209 -1.554456 -0.025084999999999906
v -0.503209 -1.412108 -0.025084999999999913
v -0.553395 -1.431674 0.09845200000000008
v -0.737516 -1.429735 -0.025084999999999913
v -0.737516 -1.449755 0.1367760000000001
v -0.553395 -1.431674 0.09845200000000008
v -0.553395 -1.431674 0.09845200000000008
v -0.503209 -1.412108 -0.025084999999999913
v -0.911898 -1.435661 0.12494200000000008
v -0.737516 -1.449755 0.1367760000000001
v -0.964057 -1.415244 -0.025084999999999913
v -0.911898 -1.435661 0.12494200000000008
v 1.857368 1.3842 -0.025085000000000083
v 1.979334 1.436535 -0.025085000000000086
v 1.950422 1.44183 0.21502899999999991
v 1.871326 1.410524 0.21502899999999991
v 1.806414 1.495432 -0.02508500000000009
v 1.835953 1.489051 0.22258299999999992
v 1.912165 1.533266 0.22258299999999992
v 1.921409 1.562038 -0.025085000000000097
v 1.835953 1.489051 0.22258299999999992
v 1.871326 1.410524 0.21502899999999991
v 1.950422 1.44183 0.21502899999999991
v 1.912165 1.533266 0.22258299999999992
v 1.565201 -1.56468 -0.025084999999999903
v 1.682142 -1.501914 -0.025084999999999906
v 1.652878 -1.499159 0.21502900000000008
v 1.576812 -1.537239 0.21502900000000008
v 1.504746 -1.458313 -0.02508499999999991
v 1.534729 -1.462094 0.2225830000000001
v 1.606797 -1.411405 0.2225830000000001
v 1.613498 -1.381937 -0.025084999999999916
v 1.534729 -1.462094 0.2225830000000001
v 1.576812 -1.537239 0.21502900000000008
v 1.652878 -1.499159 0.21502900000000008
v 1.606797 -1.411405 0.2225830000000001
v -0.610533 1.274913 -0.02508500000000008
v -0.493593 1.337679 -0.025085000000000083
v -0.522856 1.340433 0.21502899999999991
v -0.598922 1.302353 0.21502899999999991
v -0.670988 1.38128 -0.025085000000000083
v -0.641006 1.377498 0.22258299999999992
v -0.568937 1.428187 0.22258299999999992
v -0.562236 1.457656 -0.02508500000000009
v -0.641006 1.377498 0.22258299999999992
v -0.598922 1.302353 0.21502899999999991
v -0.522856 1.340433 0.21502899999999991
v -0.568937 1.428187 0.22258299999999992
v -1.999985 -0.549088 -0.025084999999999965
v -1.878019 -0.496753 -0.02508499999999997
v -1.906931 -0.491458 0.21502900000000003
v -1.986027 -0.522764 0.21502900000000003
v -2.050939 -0.437857 -0.025084999999999972
v -2.0214 -0.444237 0.22258300000000003
v -1.945189 -0.400022 0.22258300000000003
v -1.935945 -0.37125 -0.025084999999999975
v -2.0214 -0.444237 0.22258300000000003
v -1.986027 -0.522764 0.21502900000000003
v -1.906931 -0.491458 0.21502900000000003
v -1.945189 -0.400022 0.22258300000000003
v -1.098709 1.559684 -0.025085000000000097
v -1.148268 1.537293 0.14787499999999992
v -1.145479 1.435632 0.14787499999999992
v -1.09592 1.413241 -0.025085000000000086
v -1.58073 1.474252 0.21502899999999991
v -1.576365 1.451861 -0.02508500000000009
v -1.892206 1.439439 -0.025085000000000086
v -1.894487 1.459965 0.1622339999999999
v -1.907767 1.427627 -0.025085000000000086
v -1.921409 1.443132 0.18298599999999993
v -1.917419 1.252406 -0.025085000000000076
v -1.937836 1.255515 0.1622339999999999
v -1.904841 0.628228 -0.025085000000000038
v -1.924407 0.678414 0.13574499999999998
v -2.021974 0.678414 0.13574499999999998
v -2.047189 0.628228 -0.025085000000000038
v -2.049976 -0.605976 -0.02508499999999996
v -2.027585 -0.655535 0.14787500000000003
v -1.925924 -0.652746 0.14787500000000003
v -1.903532 -0.603187 -0.02508499999999996
v -1.964544 -1.087997 0.21502900000000005
v -1.942152 -1.083632 -0.025084999999999934
v -1.929731 -1.399473 -0.025084999999999913
v -1.950256 -1.401754 0.16223400000000007
v -1.917919 -1.415034 -0.025084999999999913
v -1.933424 -1.428676 0.1829860000000001
v -1.742698 -1.424686 -0.025084999999999913
v -1.745806 -1.445103 0.16223400000000007
v -1.11852 -1.412108 -0.025084999999999913
v -1.168705 -1.431674 0.1357450000000001
v -1.168705 -1.52924 0.1357450000000001
v -1.118519 -1.554456 -0.025084999999999906
v -2.068776 1.198671 -0.025085000000000073
v -2.047189 0.628228 -0.025085000000000038
v -2.021974 0.678414 0.13574499999999998
v -2.04509 1.209556 0.1622339999999999
v -2.043715 1.520777 -0.025085000000000093
v -2.018574 1.513891 0.18298599999999993
v -1.93685 1.59408 -0.025085000000000097
v -1.920206 1.574019 0.1622339999999999
v -1.559973 1.594825 -0.025085000000000097
v -1.564339 1.572434 0.21502899999999991
v -1.148268 1.537293 0.14787499999999992
v -1.098709 1.559684 -0.025085000000000097
v -2.04509 1.209556 0.1622339999999999
v -2.021974 0.678414 0.13574499999999998
v -1.924407 0.678414 0.13574499999999998
v -1.937836 1.255515 0.1622339999999999
v -2.018574 1.513891 0.18298599999999993
v -1.921409 1.443132 0.18298599999999993
v -1.920206 1.574019 0.1622339999999999
v -1.894487 1.459965 0.1622339999999999
v -1.564339 1.572434 0.21502899999999991
v -1.58073 1.474252 0.21502899999999991
v -1.148268 1.537293 0.14787499999999992
v -1.145479 1.435632 0.14787499999999992
v -1.688963 -1.576043 -0.025084999999999903
v -1.118519 -1.554456 -0.025084999999999906
v -1.168705 -1.52924 0.1357450000000001
v -1.699848 -1.552357 0.16223400000000007
v -2.011069 -1.550982 -0.025084999999999906
v -2.004183 -1.525841 0.1829860000000001
v -2.084372 -1.444117 -0.025084999999999913
v -2.064311 -1.427473 0.16223400000000007
v -2.085117 -1.06724 -0.025084999999999934
v -2.062726 -1.071606 0.21502900000000005
v -2.027585 -0.655535 0.14787500000000003
v -2.049976 -0.605976 -0.02508499999999996
v -1.699848 -1.552357 0.16223400000000007
v -1.168705 -1.52924 0.1357450000000001
v -1.168705 -1.431674 0.1357450000000001
v -1.745806 -1.445103 0.16223400000000007
v -2.004183 -1.525841 0.1829860000000001
v -1.933424 -1.428676 0.1829860000000001
v -2.064311 -1.427473 0.16223400000000007
v -1.950256 -1.401754 0.16223400000000007
v -2.062726 -1.071606 0.21502900000000005
v -1.964544 -1.087997 0.21502900000000005
v -2.027585 -0.655535 0.14787500000000003
v -1.925924 -0.652746 0.14787500000000003
v 0.919453 1.532561 0.0984519999999999
v 0.91095 1.435366 0.09845199999999991
v 1.095946 1.437331 0.13677599999999993
v 1.104903 1.539704 0.1372079999999999
v 1.26678 1.5159 0.1249419999999999
v 1.268436 1.408092 0.12494199999999991
v 1.998025 0.937233 0.09845199999999994
v 1.900831 0.945737 0.09845199999999994
v 1.902795 0.76074 0.13677599999999995
v 2.005169 0.751783 0.13720799999999994
v 1.981365 0.589906 0.12494199999999996
v 1.873556 0.58825 0.12494199999999996
v 0.919453 -1.364839 0.09845200000000008
v 0.91095 -1.462034 0.09845200000000008
v 1.095946 -1.460069 0.1367760000000001
v 1.104903 -1.357695 0.13720800000000008
v 1.26678 -1.3815 0.12494200000000008
v 1.268436 -1.489308 0.1249420000000001
v 1.998025 -1.106834 0.09845200000000007
v 1.900831 -1.098331 0.09845200000000007
v 1.902795 -1.283327 0.1367760000000001
v 2.005169 -1.292284 0.13720800000000008
v 1.981365 -1.454161 0.12494200000000008
v 1.873556 -1.455818 0.12494200000000008
v -0.553395 -1.52924 0.0984520000000001
v -0.553395 -1.431674 0.09845200000000008
v -0.737516 -1.449755 0.1367760000000001
v -0.737516 -1.55252 0.13720800000000008
v -0.900852 -1.542915 0.1249420000000001
v -0.911898 -1.435661 0.12494200000000008
vt 0.985003 0.445616
vt 0.870520 0.422764
vt 0.866988 0.341175
vt 0.866988 0.341175
vt 0.985963 0.331962
vt 0.714134 0.355204
vt 0.832689 0.337205
vt 0.838171 0.430812
vt 0.838171 0.430812
vt 0.727050 0.483298
vt 0.523939 0.946183
vt 0.458482 0.960980
vt 0.433293 0.869474
vt 0.433293 0.869474
vt 0.488381 0.856255
vt 0.523939 0.946183
vt 0.458482 0.960980
vt 0.433293 0.869474
vt 0.433293 0.869474
vt 0.488381 0.856255
vt 0.985003 0.445616
vt 0.870520 0.422764
vt 0.866988 0.341175
vt 0.866988 0.341175
vt 0.985963 0.331962
vt 0.714134 0.355204
vt 0.832689 0.337205
vt 0.838171 0.430812
vt 0.838171 0.430812
vt 0.727050 0.483298
vt 0.523939 0.946183
vt 0.458482 0.960980
vt 0.433293 0.869474
vt 0.433293 0.869474
vt 0.488381 0.856255
vt 0.523939 0.946183
vt 0.458482 0.960980
vt 0.433293 0.869474
vt 0.433293 0.869474
vt 0.488381 0.856255
vt 0.985003 0.445616
vt 0.870520 0.422764
vt 0.866988 0.341175
vt 0.866988 0.341175
vt 0.985963 0.331962
vt 0.714134 0.355204
vt 0.832689 0.337205
vt 0.838171 0.430812
vt 0.838171 0.430812
vt 0.727050 0.483298
vt 0.985003 0.445616
vt 0.870520 0.422764
vt 0.866988 0.341175
vt 0.866988 0.341175
vt 0.985963 0.331962
vt 0.714134 0.355204
vt 0.832689 0.337205
vt 0.838171 0.430812
vt 0.838171 0.430812
vt 0.727050 0.483298
vt 0.523939 0.946183
vt 0.458482 0.960980
vt 0.433293 0.869474
vt 0.433293 0.869474
vt 0.488381 0.856255
vt 0.343480 0.967034
vt 0.212945 0.963130
vt 0.240188 0.880679
vt 0.433293 0.869474
vt 0.458482 0.960980
vt 0.342898 0.867780
vt 0.240188 0.880679
vt 0.212945 0.963130
vt 0.159815 0.945221
vt 0.191678 0.856188
vt 0.645196 0.289086
vt 0.649822 0.221625
vt 0.762211 0.240337
vt 0.762211 0.240337
vt 0.789615 0.294346
vt 0.542571 0.221923
vt 0.649822 0.221625
vt 0.505263 0.283686
vt 0.542571 0.221923
vt 0.343480 0.967034
vt 0.212945 0.963130
vt 0.240188 0.880679
vt 0.433293 0.869474
vt 0.458482 0.960980
vt 0.342898 0.867780
vt 0.240188 0.880679
vt 0.212945 0.963130
vt 0.159815 0.945221
vt 0.191678 0.856188
vt 0.645196 0.289086
vt 0.649822 0.221625
vt 0.762211 0.240337
vt 0.762211 0.240337
vt 0.789615 0.294346
vt 0.542571 0.221923
vt 0.649822 0.221625
vt 0.505263 0.283686
vt 0.542571 0.221923
vt 0.343480 0.967034
vt 0.212945 0.963130
vt 0.240188 0.880679
vt 0.433293 0.869474
vt 0.458482 0.960980
vt 0.342898 0.867780
vt 0.240188 0.880679
vt 0.212945 0.963130
vt 0.159815 0.945221
vt 0.191678 0.856188
vt 0.645196 0.289086
vt 0.649822 0.221625
vt 0.762211 0.240337
vt 0.762211 0.240337
vt 0.789615 0.294346
vt 0.542571 0.221923
vt 0.649822 0.221625
vt 0.505263 0.283686
vt 0.542571 0.221923
vt 0.343480 0.967034
vt 0.212945 0.963130
vt 0.240188 0.880679
vt 0.433293 0.869474
vt 0.458482 0.960980
vt 0.342898 0.867780
vt 0.240188 0.880679
vt 0.212945 0.963130
vt 0.159815 0.945221
vt 0.191678 0.856188
vt 0.645196 0.289086
vt 0.649822 0.221625
vt 0.762211 0.240337
vt 0.762211 0.240337
vt 0.789615 0.294346
vt 0.542571 0.221923
vt 0.649822 0.221625
vt 0.505263 0.283686
vt 0.542571 0.221923
vt 0.343480 0.967034
vt 0.212945 0.963130
vt 0.240188 0.880679
vt 0.433293 0.869474
vt 0.458482 0.960980
vt 0.342898 0.867780
vt 0.240188 0.880679
vt 0.212945 0.963130
vt 0.159815 0.945221
vt 0.191678 0.856188
vt 0.645196 0.289086
vt 0.649822 0.221625
vt 0.762211 0.240337
vt 0.762211 0.240337
vt 0.789615 0.294346
vt 0.542571 0.221923
vt 0.649822 0.221625
vt 0.505263 0.283686
vt 0.542571 0.221923
vt 0.811277 0.315836
vt 0.811277 0.246333
vt 0.987014 0.259154
vt 0.987151 0.303683
vt 0.994588 0.250816
vt 0.814392 0.238589
vt 0.814396 0.190417
vt 0.994588 0.178159
vt 0.866988 0.341175
vt 0.870520 0.422764
vt 0.838171 0.430812
vt 0.832689 0.337205
vt 0.811277 0.315836
vt 0.811277 0.246333
vt 0.987014 0.259154
vt 0.987151 0.303683
vt 0.994588 0.250816
vt 0.814392 0.238589
vt 0.814396 0.190417
vt 0.994588 0.178159
vt 0.866988 0.341175
vt 0.870520 0.422764
vt 0.838171 0.430812
vt 0.832689 0.337205
vt 0.811277 0.315836
vt 0.811277 0.246333
vt 0.987014 0.259154
vt 0.987151 0.303683
vt 0.994588 0.250816
vt 0.814392 0.238589
vt 0.814396 0.190417
vt 0.994588 0.178159
vt 0.866988 0.341175
vt 0.870520 0.422764
vt 0.838171 0.430812
vt 0.832689 0.337205
vt 0.811277 0.315836
vt 0.811277 0.246333
vt 0.987014 0.259154
vt 0.987151 0.303683
vt 0.994588 0.250816
vt 0.814392 0.238589
vt 0.814396 0.190417
vt 0.994588 0.178159
vt 0.866988 0.341175
vt 0.870520 0.422764
vt 0.838171 0.430812
vt 0.832689 0.337205
vt 0.998640 0.913855
vt 0.899839 0.973574
vt 0.866316 0.926173
vt 0.948764 0.844728
vt 0.619805 0.835096
vt 0.698811 0.704405
vt 0.558123 0.627185
vt 0.498366 0.727099
vt 0.539632 0.611808
vt 0.471982 0.718574
vt 0.489490 0.556568
vt 0.404603 0.632847
vt 0.259389 0.259081
vt 0.201478 0.348631
vt 0.152695 0.324172
vt 0.187520 0.221373
vt 0.998640 0.913855
vt 0.899839 0.973574
vt 0.866316 0.926173
vt 0.948764 0.844728
vt 0.619805 0.835096
vt 0.698811 0.704405
vt 0.558123 0.627185
vt 0.498366 0.727099
vt 0.539632 0.611808
vt 0.471982 0.718574
vt 0.489490 0.556568
vt 0.404603 0.632847
vt 0.259389 0.259081
vt 0.201478 0.348631
vt 0.152695 0.324172
vt 0.187520 0.221373
vt 0.446968 0.440454
vt 0.264081 0.222017
vt 0.355517 0.164381
vt 0.536517 0.356522
vt 0.548374 0.560037
vt 0.641740 0.458719
vt 0.594342 0.598708
vt 0.673229 0.501672
vt 0.750410 0.699876
vt 0.839886 0.567545
vt 0.991075 0.714193
vt 0.946423 0.821912
vt 0.397335 0.039814
vt 0.962404 0.056696
vt 0.964286 0.158578
vt 0.350549 0.152683
vt 0.074329 0.071070
vt 0.151422 0.171192
vt 0.012308 0.177127
vt 0.134048 0.201822
vt 0.020857 0.543111
vt 0.124911 0.524134
vt 0.018819 0.984034
vt 0.126942 0.985020
vt 0.446968 0.440454
vt 0.264081 0.222017
vt 0.355517 0.164381
vt 0.536517 0.356522
vt 0.548374 0.560037
vt 0.641740 0.458719
vt 0.594342 0.598708
vt 0.673229 0.501672
vt 0.750410 0.699876
vt 0.839886 0.567545
vt 0.991075 0.714193
vt 0.946423 0.821912
vt 0.397335 0.039814
vt 0.962404 0.056696
vt 0.964286 0.158578
vt 0.350549 0.152683
vt 0.074329 0.071070
vt 0.151422 0.171192
vt 0.012308 0.177127
vt 0.134048 0.201822
vt 0.020857 0.543111
vt 0.124911 0.524134
vt 0.018819 0.984034
vt 0.126942 0.985020
vt 0.769239 0.199158
vt 0.762211 0.240337
vt 0.649822 0.221625
vt 0.655671 0.180114
vt 0.554868 0.177590
vt 0.542571 0.221923
vt 0.769239 0.199158
vt 0.762211 0.240337
vt 0.649822 0.221625
vt 0.655671 0.180114
vt 0.554868 0.177590
vt 0.542571 0.221923
vt 0.769239 0.199158
vt 0.762211 0.240337
vt 0.649822 0.221625
vt 0.655671 0.180114
vt 0.554868 0.177590
vt 0.542571 0.221923
vt 0.769239 0.199158
vt 0.762211 0.240337
vt 0.649822 0.221625
vt 0.655671 0.180114
vt 0.554868 0.177590
vt 0.542571 0.221923
vt 0.769239 0.199158
vt 0.762211 0.240337
vt 0.649822 0.221625
vt 0.655671 0.180114
vt 0.554868 0.177590
vt 0.542571 0.221923
vn -0.362341 -0.924461 0.11866100000000006
vn -0.263688 -0.744258 0.613636
vn -0.701537 -0.03654699999999996 0.711696
vn -0.701537 -0.03654699999999996 0.711696
vn -0.818721 0.563153 0.11204799999999997
vn 0.619765 0.775348 0.12135099999999996
vn -0.016467 0.854322 0.519484
vn 0.713436 -0.32096499999999994 0.622889
vn 0.713436 -0.32096499999999994 0.622889
vn 0.926405 -0.357088 0.11942300000000003
vn 0.829026 -0.441176 0.343627
vn 0.69867 0.649108 0.30086499999999994
vn 0.550478 0.46984300000000007 0.690088
vn 0.550478 0.46984300000000007 0.690088
vn 0.274625 -0.752588 0.598492
vn -0.441176 -0.829026 0.34362700000000007
vn 0.649108 -0.69867 0.30086500000000005
vn 0.469843 -0.550478 0.690088
vn 0.469843 -0.550478 0.690088
vn -0.752588 -0.27462499999999995 0.598492
vn -0.28039 -0.952524 0.11866000000000006
vn -0.197818 -0.764408 0.613636
vn -0.695681 -0.09755099999999996 0.711696
vn -0.695681 -0.09755099999999996 0.711696
vn -0.864687 0.489655 0.11204799999999997
vn 0.549832 0.826413 0.12135199999999995
vn -0.090862 0.849636 0.519484
vn 0.738694 -0.25756499999999993 0.622889
vn 0.738694 -0.25756499999999993 0.622889
vn 0.954001 -0.27499 0.11942400000000002
vn 0.829026 -0.441176 0.343627
vn 0.69867 0.649108 0.30086499999999994
vn 0.550478 0.46984300000000007 0.690088
vn 0.550478 0.46984300000000007 0.690088
vn 0.274625 -0.752588 0.598492
vn -0.441176 -0.829026 0.34362700000000007
vn 0.649108 -0.69867 0.30086500000000005
vn 0.469843 -0.550478 0.690088
vn 0.469843 -0.550478 0.690088
vn -0.752588 -0.27462499999999995 0.598492
vn -0.28039 -0.952524 0.11866000000000006
vn -0.197818 -0.764408 0.613636
vn -0.695682 -0.09755099999999996 0.711696
vn -0.695682 -0.09755099999999996 0.711696
vn -0.864687 0.489654 0.11204699999999997
vn 0.549832 0.826413 0.12135099999999995
vn -0.090863 0.849635 0.519484
vn 0.738695 -0.25756399999999996 0.622889
vn 0.738695 -0.25756399999999996 0.622889
vn 0.954001 -0.27499 0.11942300000000002
vn -0.362341 -0.924461 0.11866000000000006
vn -0.263688 -0.744258 0.613636
vn -0.701537 -0.03654699999999996 0.711696
vn -0.701537 -0.03654699999999996 0.711696
vn -0.818721 0.563153 0.11204799999999997
vn 0.619765 0.775348 0.12135099999999996
vn -0.016467 0.854322 0.519484
vn 0.713436 -0.32096499999999994 0.622889
vn 0.713436 -0.32096499999999994 0.622889
vn 0.926405 -0.357089 0.11942200000000003
vn -0.864323 0.367242 0.343627
vn -0.639437 -0.707531 0.3008640000000001
vn -0.507434 -0.516033 0.690088
vn -0.507434 -0.516033 0.690088
vn -0.339173 0.725789 0.598492
vn 0.053417 0.982943 0.17598299999999995
vn -0.607488 0.686836 0.3990159999999999
vn -0.526118 0.4857040000000001 0.698062
vn 0.550478 0.46984300000000007 0.690088
vn 0.69867 0.649108 0.30086499999999994
vn -0.014946 0.654531 0.755887
vn -0.526118 0.4857040000000001 0.698062
vn -0.607488 0.686836 0.3990159999999999
vn -0.8381 -0.374583 0.396579
vn -0.422122 -0.690482 0.587407
vn -0.083761 -0.989069 0.12135000000000006
vn -0.094204 -0.41950699999999996 0.902851
vn -0.422122 -0.690482 0.587407
vn -0.422122 -0.690482 0.587407
vn -0.8381 -0.374583 0.396579
vn 0.274625 -0.752588 0.598492
vn -0.094204 -0.41950699999999996 0.902851
vn 0.829026 -0.441176 0.343627
vn 0.274625 -0.752588 0.598492
vn 0.982943 -0.053416999999999985 0.175983
vn 0.686836 0.607488 0.3990159999999999
vn 0.485704 0.526118 0.698062
vn 0.469843 -0.550478 0.690088
vn 0.649108 -0.69867 0.30086500000000005
vn 0.654531 0.014945000000000047 0.755887
vn 0.485704 0.526118 0.698062
vn 0.686836 0.607488 0.3990159999999999
vn -0.374583 0.8381 0.39657899999999996
vn -0.690482 0.42212200000000005 0.587407
vn -0.989069 0.08376100000000002 0.12135
vn -0.419507 0.09420400000000005 0.902851
vn -0.690482 0.42212200000000005 0.587407
vn -0.690482 0.42212200000000005 0.587407
vn -0.374583 0.8381 0.39657899999999996
vn -0.752588 -0.27462499999999995 0.598492
vn -0.419507 0.09420400000000005 0.902851
vn -0.441176 -0.829026 0.34362700000000007
vn -0.752588 -0.27462499999999995 0.598492
vn 0.053417 0.982943 0.17598299999999995
vn -0.607488 0.686836 0.3990159999999999
vn -0.526118 0.4857040000000001 0.698062
vn 0.550478 0.46984300000000007 0.690088
vn 0.69867 0.649108 0.30086499999999994
vn -0.014946 0.654531 0.755887
vn -0.526118 0.4857040000000001 0.698062
vn -0.607488 0.686836 0.3990159999999999
vn -0.8381 -0.374583 0.396579
vn -0.422122 -0.690482 0.587407
vn -0.083761 -0.989069 0.12135000000000006
vn -0.094204 -0.41950699999999996 0.902851
vn -0.422122 -0.690482 0.587407
vn -0.422122 -0.690482 0.587407
vn -0.8381 -0.374583 0.396579
vn 0.274625 -0.752588 0.598492
vn -0.094204 -0.41950699999999996 0.902851
vn 0.829026 -0.441176 0.343627
vn 0.274625 -0.752588 0.598492
vn 0.982943 -0.053416999999999985 0.175983
vn 0.686836 0.607488 0.3990159999999999
vn 0.485704 0.526118 0.698062
vn 0.469843 -0.550478 0.690088
vn 0.649108 -0.69867 0.30086500000000005
vn 0.654531 0.014945000000000047 0.755887
vn 0.485704 0.526118 0.698062
vn 0.686836 0.607488 0.3990159999999999
vn -0.374583 0.8381 0.39657899999999996
vn -0.690482 0.42212200000000005 0.587407
vn -0.989069 0.08376100000000002 0.12135
vn -0.419507 0.09420400000000005 0.902851
vn -0.690482 0.42212200000000005 0.587407
vn -0.690482 0.42212200000000005 0.587407
vn -0.374583 0.8381 0.39657899999999996
vn -0.752588 -0.27462499999999995 0.598492
vn -0.419507 0.09420400000000005 0.902851
vn -0.441176 -0.829026 0.34362700000000007
vn -0.752588 -0.27462499999999995 0.598492
vn 0.032456 -0.983858 0.17598300000000006
vn 0.665038 -0.631276 0.39901700000000007
vn 0.566447 -0.43800199999999995 0.698063
vn -0.507434 -0.516033 0.690088
vn -0.639437 -0.707531 0.3008640000000001
vn 0.071935 -0.650738 0.755887
vn 0.566447 -0.43800199999999995 0.698063
vn 0.665038 -0.631276 0.39901700000000007
vn 0.802262 0.446203 0.396583
vn 0.360336 0.724645 0.587408
vn -0.002761 0.992606 0.12134999999999994
vn 0.057283 0.42612200000000006 0.902851
vn 0.360336 0.724645 0.587408
vn 0.360336 0.724645 0.587408
vn 0.802262 0.446203 0.396583
vn -0.339173 0.725789 0.598492
vn 0.057283 0.42612200000000006 0.902851
vn -0.864323 0.367242 0.343627
vn -0.339173 0.725789 0.598492
vn -0.362341 -0.924461 0.11866100000000006
vn 0.926405 -0.357088 0.11942300000000003
vn 0.713436 -0.32096499999999994 0.622889
vn -0.263688 -0.744258 0.613636
vn -0.818721 0.563153 0.11204799999999997
vn -0.701537 -0.03654699999999996 0.711696
vn -0.016467 0.854322 0.519484
vn 0.619765 0.775348 0.12135099999999996
vn -0.701537 -0.03654699999999996 0.711696
vn -0.263688 -0.744258 0.613636
vn 0.713436 -0.32096499999999994 0.622889
vn -0.016467 0.854322 0.519484
vn -0.28039 -0.952524 0.11866000000000006
vn 0.954001 -0.27499 0.11942400000000002
vn 0.738694 -0.25756499999999993 0.622889
vn -0.197818 -0.764408 0.613636
vn -0.864687 0.489655 0.11204799999999997
vn -0.695681 -0.09755099999999996 0.711696
vn -0.090862 0.849636 0.519484
vn 0.549832 0.826413 0.12135199999999995
vn -0.695681 -0.09755099999999996 0.711696
vn -0.197818 -0.764408 0.613636
vn 0.738694 -0.25756499999999993 0.622889
vn -0.090862 0.849636 0.519484
vn -0.28039 -0.952524 0.11866000000000006
vn 0.954001 -0.27499 0.11942300000000002
vn 0.738695 -0.25756399999999996 0.622889
vn -0.197818 -0.764408 0.613636
vn -0.864687 0.489654 0.11204699999999997
vn -0.695682 -0.09755099999999996 0.711696
vn -0.090863 0.849635 0.519484
vn 0.549832 0.826413 0.12135099999999995
vn -0.695682 -0.09755099999999996 0.711696
vn -0.197818 -0.764408 0.613636
vn 0.738695 -0.25756399999999996 0.622889
vn -0.090863 0.849635 0.519484
vn -0.362341 -0.924461 0.11866000000000006
vn 0.926405 -0.357089 0.11942200000000003
vn 0.713436 -0.32096499999999994 0.622889
vn -0.263688 -0.744258 0.613636
vn -0.818721 0.563153 0.11204799999999997
vn -0.701537 -0.03654699999999996 0.711696
vn -0.016467 0.854322 0.519484
vn 0.619765 0.775348 0.12135099999999996
vn -0.701537 -0.03654699999999996 0.711696
vn -0.263688 -0.744258 0.613636
vn 0.713436 -0.32096499999999994 0.622889
vn -0.016467 0.854322 0.519484
vn 0.848335 0.437812 0.297738
vn 0.412652 0.566067 0.713643
vn 0.725849 -0.34157399999999993 0.597051
vn 0.372149 -0.902498 0.21679900000000005
vn 0.011101 -0.762755 0.646593
vn -0.020369 -0.995508 0.09246300000000006
vn 0.232235 -0.967165 0.10324200000000006
vn 0.3437 -0.586092 0.733735
vn 0.792562 -0.602302 0.09527100000000004
vn 0.70573 -0.17534299999999994 0.68644
vn 0.994407 -0.04457499999999999 0.095746
vn 0.66297 -0.06290799999999996 0.745998
vn 0.697282 -0.65666 0.28739600000000004
vn 0.360235 -0.3671229999999999 0.857585
vn -0.578729 -0.599199 0.553203
vn -0.668906 -0.673315 0.31497700000000006
vn -0.437812 0.848335 0.29773999999999995
vn -0.566067 0.4126520000000001 0.713644
vn 0.341573 0.725849 0.597052
vn 0.902498 0.372149 0.21679999999999996
vn 0.762755 0.01110100000000004 0.646593
vn 0.995508 -0.020368999999999995 0.092463
vn 0.967165 0.232237 0.10324099999999999
vn 0.586091 0.34370100000000003 0.733735
vn 0.602301 0.792564 0.09526999999999995
vn 0.175343 0.705731 0.686439
vn 0.044575 0.994407 0.09574499999999994
vn 0.062908 0.66297 0.745998
vn 0.65666 0.697282 0.28739599999999993
vn 0.367123 0.36023400000000005 0.857585
vn 0.599199 -0.578729 0.553203
vn 0.673315 -0.668906 0.31497800000000004
vn -0.990349 -0.0032689999999999915 0.13856
vn -0.668906 -0.673315 0.31497700000000006
vn -0.578729 -0.599199 0.553203
vn -0.65528 -0.013564999999999954 0.755265
vn -0.926482 0.355607 0.12318099999999997
vn -0.466962 0.40965500000000005 0.783664
vn -0.36633 0.923144 0.11665399999999994
vn 0.003227 0.703339 0.710847
vn 0.040732 0.993005 0.11082199999999995
vn -0.018143 0.527426 0.849407
vn 0.412652 0.566067 0.713643
vn 0.848335 0.437812 0.297738
vn -0.65528 -0.013564999999999954 0.755265
vn -0.578729 -0.599199 0.553203
vn 0.360235 -0.3671229999999999 0.857585
vn 0.66297 -0.06290799999999996 0.745998
vn -0.466962 0.40965500000000005 0.783664
vn 0.70573 -0.17534299999999994 0.68644
vn 0.003227 0.703339 0.710847
vn 0.3437 -0.586092 0.733735
vn -0.018143 0.527426 0.849407
vn 0.011101 -0.762755 0.646593
vn 0.412652 0.566067 0.713643
vn 0.725849 -0.34157399999999993 0.597051
vn 0.003269 -0.990349 0.13856000000000004
vn 0.673315 -0.668906 0.31497800000000004
vn 0.599199 -0.578729 0.553203
vn 0.013564 -0.65528 0.755265
vn -0.355608 -0.926482 0.12318100000000005
vn -0.409655 -0.46696199999999993 0.783664
vn -0.923144 -0.36633 0.11665400000000002
vn -0.703339 0.0032280000000000433 0.710847
vn -0.993005 0.040732000000000004 0.110822
vn -0.527426 -0.018142999999999947 0.849407
vn -0.566067 0.4126520000000001 0.713644
vn -0.437812 0.848335 0.29773999999999995
vn 0.013564 -0.65528 0.755265
vn 0.599199 -0.578729 0.553203
vn 0.367123 0.36023400000000005 0.857585
vn 0.062908 0.66297 0.745998
vn -0.409655 -0.46696199999999993 0.783664
vn 0.175343 0.705731 0.686439
vn -0.703339 0.0032280000000000433 0.710847
vn 0.586091 0.34370100000000003 0.733735
vn -0.527426 -0.018142999999999947 0.849407
vn 0.762755 0.01110100000000004 0.646593
vn -0.566067 0.4126520000000001 0.713644
vn 0.341573 0.725849 0.597052
vn -0.526118 0.4857040000000001 0.698062
vn -0.422122 -0.690482 0.587407
vn -0.094204 -0.41950699999999996 0.902851
vn -0.014946 0.654531 0.755887
vn 0.550478 0.46984300000000007 0.690088
vn 0.274625 -0.752588 0.598492
vn 0.485704 0.526118 0.698062
vn -0.690482 0.42212200000000005 0.587407
vn -0.419507 0.09420400000000005 0.902851
vn 0.654531 0.014945000000000047 0.755887
vn 0.469843 -0.550478 0.690088
vn -0.752588 -0.27462499999999995 0.598492
vn -0.526118 0.4857040000000001 0.698062
vn -0.422122 -0.690482 0.587407
vn -0.094204 -0.41950699999999996 0.902851
vn -0.014946 0.654531 0.755887
vn 0.550478 0.46984300000000007 0.690088
vn 0.274625 -0.752588 0.598492
vn 0.485704 0.526118 0.698062
vn -0.690482 0.42212200000000005 0.587407
vn -0.419507 0.09420400000000005 0.902851
vn 0.654531 0.014945000000000047 0.755887
vn 0.469843 -0.550478 0.690088
vn -0.752588 -0.27462499999999995 0.598492
vn 0.566447 -0.43800199999999995 0.698063
vn 0.360336 0.724645 0.587408
vn 0.057283 0.42612200000000006 0.902851
vn 0.071935 -0.650738 0.755887
vn -0.507434 -0.516033 0.690088
vn -0.339173 0.725789 0.598492
g orig_Material #47
f 1/1/1 2/2/2 3/3/3
f 4/4/4 5/5/5 1/1/1
f 6/6/6 7/7/7 8/8/8
f 9/9/9 10/10/10 6/6/6
f 11/11/11 12/12/12 13/13/13
f 14/14/14 15/15/15 11/11/11
f 16/16/16 17/17/17 18/18/18
f 19/19/19 20/20/20 16/16/16
f 21/21/21 22/22/22 23/23/23
f 24/24/24 25/25/25 21/21/21
f 26/26/26 27/27/27 28/28/28
f 29/29/29 30/30/30 26/26/26
f 31/31/31 32/32/32 33/33/33
f 34/34/34 35/35/35 31/31/31
f 36/36/36 37/37/37 38/38/38
f 39/39/39 40/40/40 36/36/36
f 41/41/41 42/42/42 43/43/43
f 44/44/44 45/45/45 41/41/41
f 46/46/46 47/47/47 48/48/48
f 49/49/49 50/50/50 46/46/46
f 51/51/51 52/52/52 53/53/53
f 54/54/54 55/55/55 51/51/51
f 56/56/56 57/57/57 58/58/58
f 59/59/59 60/60/60 56/56/56
f 61/61/61 62/62/62 63/63/63
f 64/64/64 65/65/65 61/61/61
f 66/66/66 67/67/67 68/68/68
f 69/69/69 70/70/70 66/66/66
f 66/66/66 71/71/71 69/69/69
f 72/72/72 71/71/71 66/66/66
f 72/72/72 73/73/73 74/74/74
f 74/74/74 75/75/75 72/72/72
f 76/76/76 77/77/77 78/78/78
f 79/79/79 80/80/80 76/76/76
f 81/81/81 82/82/82 76/76/76
f 76/76/76 83/83/83 84/84/84
f 85/85/85 86/86/86 87/87/87
f 88/88/88 89/89/89 85/85/85
f 85/85/85 90/90/90 88/88/88
f 91/91/91 90/90/90 85/85/85
f 91/91/91 92/92/92 93/93/93
f 93/93/93 94/94/94 91/91/91
f 95/95/95 96/96/96 97/97/97
f 98/98/98 99/99/99 95/95/95
f 100/100/100 101/101/101 95/95/95
f 95/95/95 102/102/102 103/103/103
f 104/104/104 105/105/105 106/106/106
f 107/107/107 108/108/108 104/104/104
f 104/104/104 109/109/109 107/107/107
f 110/110/110 109/109/109 104/104/104
f 110/110/110 111/111/111 112/112/112
f 112/112/112 113/113/113 110/110/110
f 114/114/114 115/115/115 116/116/116
f 117/117/117 118/118/118 114/114/114
f 119/119/119 120/120/120 114/114/114
f 114/114/114 121/121/121 122/122/122
f 123/123/123 124/124/124 125/125/125
f 126/126/126 127/127/127 123/123/123
f 123/123/123 128/128/128 126/126/126
f 129/129/129 128/128/128 123/123/123
f 129/129/129 130/130/130 131/131/131
f 131/131/131 132/132/132 129/129/129
f 133/133/133 134/134/134 135/135/135
f 136/136/136 137/137/137 133/133/133
f 138/138/138 139/139/139 133/133/133
f 133/133/133 140/140/140 141/141/141
f 142/142/142 143/143/143 144/144/144
f 145/145/145 146/146/146 142/142/142
f 142/142/142 147/147/147 145/145/145
f 148/148/148 147/147/147 142/142/142
f 148/148/148 149/149/149 150/150/150
f 150/150/150 151/151/151 148/148/148
f 152/152/152 153/153/153 154/154/154
f 155/155/155 156/156/156 152/152/152
f 157/157/157 158/158/158 152/152/152
f 152/152/152 159/159/159 160/160/160
f 161/161/161 162/162/162 163/163/163
f 163/163/163 164/164/164 161/161/161
f 165/165/165 166/166/166 167/167/167
f 167/167/167 168/168/168 165/165/165
f 169/169/169 170/170/170 171/171/171
f 171/171/171 172/172/172 169/169/169
f 173/173/173 174/174/174 175/175/175
f 175/175/175 176/176/176 173/173/173
f 177/177/177 178/178/178 179/179/179
f 179/179/179 180/180/180 177/177/177
f 181/181/181 182/182/182 183/183/183
f 183/183/183 184/184/184 181/181/181
f 185/185/185 186/186/186 187/187/187
f 187/187/187 188/188/188 185/185/185
f 189/189/189 190/190/190 191/191/191
f 191/191/191 192/192/192 189/189/189
f 193/193/193 194/194/194 195/195/195
f 195/195/195 196/196/196 193/193/193
f 197/197/197 198/198/198 199/199/199
f 199/199/199 200/200/200 197/197/197
f 201/201/201 202/202/202 203/203/203
f 203/203/203 204/204/204 201/201/201
f 205/205/205 206/206/206 207/207/207
f 207/207/207 208/208/208 205/205/205
f 209/209/209 210/210/210 211/211/211
f 211/211/211 212/212/212 209/209/209
f 212/212/212 211/211/211 213/213/213
f 213/213/213 214/214/214 212/212/212
f 215/215/215 214/214/214 213/213/213
f 213/213/213 216/216/216 215/215/215
f 217/217/217 215/215/215 216/216/216
f 216/216/216 218/218/218 217/217/217
f 219/219/219 217/217/217 218/218/218
f 218/218/218 220/220/220 219/219/219
f 221/221/221 219/219/219 220/220/220
f 220/220/220 222/222/222 221/221/221
f 221/221/221 222/222/222 223/223/223
f 223/223/223 224/224/224 221/221/221
f 225/225/225 226/226/226 227/227/227
f 227/227/227 228/228/228 225/225/225
f 228/228/228 227/227/227 229/229/229
f 229/229/229 230/230/230 228/228/228
f 231/231/231 230/230/230 229/229/229
f 229/229/229 232/232/232 231/231/231
f 233/233/233 231/231/231 232/232/232
f 232/232/232 234/234/234 233/233/233
f 235/235/235 233/233/233 234/234/234
f 234/234/234 236/236/236 235/235/235
f 237/237/237 235/235/235 236/236/236
f 236/236/236 238/238/238 237/237/237
f 237/237/237 238/238/238 239/239/239
f 239/239/239 240/240/240 237/237/237
f 241/241/241 242/242/242 243/243/243
f 243/243/243 244/244/244 241/241/241
f 245/245/245 241/241/241 244/244/244
f 244/244/244 246/246/246 245/245/245
f 247/247/247 245/245/245 246/246/246
f 246/246/246 248/248/248 247/247/247
f 249/249/249 247/247/247 248/248/248
f 248/248/248 250/250/250 249/249/249
f 249/249/249 250/250/250 251/251/251
f 251/251/251 252/252/252 249/249/249
f 253/253/253 254/254/254 255/255/255
f 255/255/255 256/256/256 253/253/253
f 257/257/257 253/253/253 256/256/256
f 256/256/256 258/258/258 257/257/257
f 259/259/259 257/257/257 258/258/258
f 258/258/258 260/260/260 259/259/259
f 261/261/261 259/259/259 260/260/260
f 260/260/260 262/262/262 261/261/261
f 263/263/263 261/261/261 262/262/262
f 262/262/262 264/264/264 263/263/263
f 265/265/265 266/266/266 267/267/267
f 267/267/267 268/268/268 265/265/265
f 269/269/269 265/265/265 268/268/268
f 268/268/268 270/270/270 269/269/269
f 271/271/271 269/269/269 270/270/270
f 270/270/270 272/272/272 271/271/271
f 273/273/273 271/271/271 272/272/272
f 272/272/272 274/274/274 273/273/273
f 273/273/273 274/274/274 275/275/275
f 275/275/275 276/276/276 273/273/273
f 277/277/277 278/278/278 279/279/279
f 279/279/279 280/280/280 277/277/277
f 281/281/281 277/277/277 280/280/280
f 280/280/280 282/282/282 281/281/281
f 283/283/283 281/281/281 282/282/282
f 282/282/282 284/284/284 283/283/283
f 285/285/285 283/283/283 284/284/284
f 284/284/284 286/286/286 285/285/285
f 287/287/287 285/285/285 286/286/286
f 286/286/286 288/288/288 287/287/287
f 289/289/289 290/290/290 291/291/291
f 291/291/291 292/292/292 289/289/289
f 293/293/293 292/292/292 291/291/291
f 291/291/291 294/294/294 293/293/293
f 295/295/295 296/296/296 297/297/297
f 297/297/297 298/298/298 295/295/295
f 299/299/299 298/298/298 297/297/297
f 297/297/297 300/300/300 299/299/299
f 301/301/301 302/302/302 303/303/303
f 303/303/303 304/304/304 301/301/301
f 305/305/305 304/304/304 303/303/303
f 303/303/303 306/306/306 305/305/305
f 307/307/307 308/308/308 309/309/309
f 309/309/309 310/310/310 307/307/307
f 311/311/311 310/310/310 309/309/309
f 309/309/309 312/312/312 311/311/311
f 313/313/313 314/314/314 315/315/315
f 315/315/315 316/316/316 313/313/313
f 317/317/317 316/316/316 315/315/315
f 315/315/315 318/318/318 317/317/317
