v -0.601491 0.121091 0.09656399999999998
v -0.55462 0.09041 0.056790999999999994
v -0.554646 0.17866 0.05679099999999999
v -0.601491 0.121091 0.09656399999999998
v -0.554646 0.17866 0.05679099999999999
v -0.610531 0.194425 0.05679099999999999
v -0.601491 0.121091 0.09656399999999998
v -0.610531 0.194425 0.05679099999999999
v -0.654793 0.112121 0.056790999999999994
v -0.601491 0.121091 0.09656399999999998
v -0.654793 0.112121 0.056790999999999994
v -0.632867 0.029836000000000005 0.056791
v -0.601491 0.121091 0.09656399999999998
v -0.632867 0.029836000000000005 0.056791
v -0.55462 0.09041 0.056790999999999994
v 0.200491 -0.745622 0.03343400000000005
v 0.202694 -0.720759 0.08559900000000004
v 0.152272 -0.677325 0.08559900000000004
v 0.141288 -0.694624 0.03343400000000004
v 0.200491 -0.745622 0.03343400000000005
v 0.199603 -0.755641 -0.018337999999999955
v 0.200491 -0.745622 0.03343400000000005
v 0.136862 -0.701594 -0.01833799999999996
v 0.199603 -0.755641 -0.018337999999999955
v 0.087744 -0.605401 0.03343400000000003
v 0.080117 -0.607039 -0.018337999999999962
v 0.106669 -0.601336 0.08559900000000004
v 0.119482 -0.53233 0.03343400000000003
v 0.113753 -0.529601 -0.01833799999999997
v 0.1337 -0.539103 0.08559900000000002
v 0.183731 -0.428086 0.033434000000000026
v 0.181842 -0.419126 -0.018337999999999976
v 0.18842 -0.45032 0.08559900000000002
v 0.215341 -0.577991 0.15385300000000002
v 0.202694 -0.720759 0.08559900000000004
v 0.334866 -0.613178 0.08559900000000004
v 0.355681 -0.619306 0.03343400000000003
v 0.200491 -0.745622 0.03343400000000005
v 0.199603 -0.755641 -0.018337999999999955
v 0.364069 -0.621775 -0.018337999999999962
v 0.353422 -0.551046 -0.018337999999999965
v 0.345634 -0.552566 0.03343400000000003
v 0.293063 -0.438108 -0.018337999999999972
v 0.326309 -0.556337 0.08559900000000002
v 0.28868 -0.445997 0.033434000000000026
v 0.181842 -0.419126 -0.018337999999999976
v 0.183731 -0.428086 0.033434000000000026
v 0.277802 -0.465574 0.08559900000000002
v 0.18842 -0.45032 0.08559900000000002
v -0.473548 -0.429463 0.013780000000000027
v -0.475122 -0.416692 0.04417700000000003
v -0.545162 -0.37072 0.04417700000000002
v -0.556257 -0.377351 0.013780000000000023
v -0.473548 -0.429463 0.013780000000000027
v -0.56193 -0.380741 -0.016388999999999977
v -0.472743 -0.435993 -0.016388999999999973
v -0.472743 -0.435993 -0.016388999999999973
v -0.473548 -0.429463 0.013780000000000027
v -0.515004 -0.287784 0.04417700000000002
v -0.520847 -0.279971 0.013780000000000018
v -0.56193 -0.380741 -0.016388999999999977
v -0.556257 -0.377351 0.013780000000000023
v -0.505754 -0.348484 0.08395000000000002
v -0.475122 -0.416692 0.04417700000000003
v -0.420758 -0.257625 0.044177000000000015
v -0.410188 -0.244561 0.013780000000000016
v -0.523834 -0.275977 -0.016388999999999983
v -0.404784 -0.237881 -0.016388999999999987
v -0.56193 -0.380741 -0.016388999999999977
v -0.505754 -0.348484 0.08395000000000002
v -0.428298 -0.342446 0.04417700000000002
v -0.505754 -0.348484 0.08395000000000002
v -0.420758 -0.257625 0.044177000000000015
v -0.410188 -0.244561 0.013780000000000016
v -0.419041 -0.344153 0.013780000000000021
v -0.404784 -0.237881 -0.016388999999999987
v -0.473548 -0.429463 0.013780000000000027
v -0.414308 -0.345026 -0.01638899999999998
v -0.472743 -0.435993 -0.016388999999999973
v 0.36186 -0.29595 0.03343400000000002
v 0.374868 -0.266653 0.08559900000000001
v 0.346594 -0.196911 0.08559900000000001
v 0.328663 -0.214062 0.03343400000000001
v 0.36186 -0.29595 0.03343400000000002
v 0.356619 -0.307755 -0.018337999999999983
v 0.36186 -0.29595 0.03343400000000002
v 0.321437 -0.220974 -0.018337999999999986
v 0.356619 -0.307755 -0.018337999999999983
v 0.317597 -0.087911 0.033434000000000005
v 0.30971 -0.087283 -0.018337999999999993
v 0.337169 -0.089471 0.085599
v 0.379566 -0.010449999999999997 0.033434
v 0.375383 -0.0051920000000000004 -0.018338
v 0.389947 -0.023498999999999992 0.085599
v 0.485798 0.093569 0.03343399999999999
v 0.487964 0.105044 -0.018338000000000007
v 0.480423 0.065092 0.085599
v 0.449557 -0.09842399999999998 0.153853
v 0.374868 -0.266653 0.08559900000000001
v 0.546395 -0.181832 0.08559900000000001
v 0.563259 -0.196357 0.03343400000000001
v 0.36186 -0.29595 0.03343400000000002
v 0.356619 -0.307755 -0.018337999999999983
v 0.570055 -0.20221 -0.018337999999999986
v 0.591164 -0.113083 -0.018337999999999993
v 0.583178 -0.112256 0.033434000000000005
v 0.584127 0.044062 -0.018338000000000004
v 0.563359 -0.110205 0.085599
v 0.576538 0.036026 0.033434
v 0.487964 0.105044 -0.018338000000000007
v 0.485798 0.093569 0.03343399999999999
v 0.557704 0.016085000000000006 0.085599
v 0.480423 0.065092 0.085599
v -0.31537 -0.267178 0.019348000000000018
v -0.307437 -0.25279 0.05558900000000001
v -0.313092 -0.218861 0.05558900000000001
v -0.32201 -0.227341 0.019348000000000014
v -0.31537 -0.267178 0.019348000000000018
v -0.319686 -0.275006 -0.01661899999999998
v -0.31537 -0.267178 0.019348000000000018
v -0.326861 -0.231954 -0.016618999999999984
v -0.319686 -0.275006 -0.01661899999999998
v -0.293239 -0.085698 0.019348000000000008
v -0.295768 -0.078883 -0.016618999999999995
v -0.237909 -0.039222 0.019348000000000004
v -0.235975 -0.028656 -0.016618999999999995
v -0.241465 -0.058644 0.055589000000000006
v -0.288588 -0.098227 0.055589000000000006
v -0.261885 -0.170168 0.10300800000000002
v -0.307437 -0.25279 0.05558900000000001
v -0.218846 -0.250905 0.05558900000000001
v -0.211351 -0.264965 0.019348000000000018
v -0.31537 -0.267178 0.019348000000000018
v -0.319686 -0.275006 -0.01661899999999998
v -0.207274 -0.272614 -0.01661899999999998
v -0.185748 -0.133893 -0.01661899999999999
v -0.191433 -0.136601 0.019348000000000008
v -0.235975 -0.028656 -0.016618999999999995
v -0.237909 -0.039222 0.019348000000000004
v -0.201882 -0.14158 0.055589000000000006
v -0.261885 -0.170168 0.10300800000000002
v -0.241465 -0.058644 0.055589000000000006
v -0.261885 -0.170168 0.10300800000000002
v -0.546488 0.188685 0.02639299999999999
v -0.554646 0.17866 0.05679099999999999
v -0.55462 0.09041 0.056790999999999994
v -0.546457 0.085067 0.026392999999999993
v -0.612105 0.207196 0.026392999999999986
v -0.610531 0.194425 0.05679099999999999
v -0.554646 0.17866 0.05679099999999999
v -0.546488 0.188685 0.02639299999999999
v -0.664075 0.110559 0.026392999999999993
v -0.654793 0.112121 0.056790999999999994
v -0.610531 0.194425 0.05679099999999999
v -0.612105 0.207196 0.026392999999999986
v -0.638331 0.013945000000000003 0.026393
v -0.632867 0.029836000000000005 0.056791
v -0.654793 0.112121 0.056790999999999994
v -0.664075 0.110559 0.026392999999999993
v -0.546457 0.085067 0.026392999999999993
v -0.55462 0.09041 0.056790999999999994
v -0.632867 0.029836000000000005 0.056791
v -0.638331 0.013945000000000003 0.026393
v -0.542317 0.193811 -0.003775000000000012
v -0.546488 0.188685 0.02639299999999999
v -0.546457 0.085067 0.026392999999999993
v -0.542284 0.082336 -0.0037750000000000053
v -0.61291 0.213726 -0.003775000000000013
v -0.612105 0.207196 0.026392999999999986
v -0.546488 0.188685 0.02639299999999999
v -0.542317 0.193811 -0.003775000000000012
v -0.668821 0.10976 -0.0037750000000000066
v -0.664075 0.110559 0.026392999999999993
v -0.612105 0.207196 0.026392999999999986
v -0.61291 0.213726 -0.003775000000000013
v -0.641125 0.00582 -0.0037750000000000006
v -0.638331 0.013945000000000003 0.026393
v -0.664075 0.110559 0.026392999999999993
v -0.668821 0.10976 -0.0037750000000000066
v -0.542284 0.082336 -0.0037750000000000053
v -0.546457 0.085067 0.026392999999999993
v -0.638331 0.013945000000000003 0.026393
v -0.641125 0.00582 -0.0037750000000000006
v -0.915863 -0.318188 0.01724900000000002
v -0.916778 -0.317547 0.052075000000000024
v -0.94725 -0.294361 0.052075000000000024
v -0.948348 -0.293592 0.017249000000000018
v -0.915863 -0.318188 0.01724900000000002
v -0.944008 -0.207867 0.05207500000000002
v -0.947577 -0.205368 0.017249000000000014
v -0.932455 -0.208907 0.08716600000000001
v -0.954253 -0.161859 0.05207500000000001
v -0.959653 -0.158078 0.01724900000000001
v -0.878389 -0.09293 0.05207500000000001
v -0.882599 -0.089982 0.017249000000000007
v -0.876569 -0.111017 0.087166
v -0.941181 -0.169723 0.08716600000000001
v -0.86612 -0.214879 0.133081
v -0.935216 -0.282572 0.08716600000000001
v -0.916778 -0.317547 0.052075000000000024
v -0.915863 -0.318188 0.01724900000000002
v -0.829304 -0.275239 0.017249000000000018
v -0.909264 -0.302319 0.08716600000000001
v -0.832507 -0.272996 0.05207500000000002
v -0.795471 -0.265643 0.017249000000000018
v -0.837493 -0.264376 0.08716600000000001
v -0.799773 -0.26263 0.05207500000000002
v -0.79673 -0.235173 0.017249000000000014
v -0.809613 -0.255548 0.08716600000000001
v -0.800117 -0.232802 0.05207500000000002
v -0.78063 -0.192818 0.01724900000000001
v -0.809906 -0.230143 0.08716600000000001
v -0.783467 -0.190832 0.05207500000000002
v -0.805021 -0.114714 0.017249000000000007
v -0.795726 -0.194398 0.08716600000000001
v -0.804655 -0.114971 0.05207500000000001
v -0.882599 -0.089982 0.017249000000000007
v -0.878389 -0.09293 0.05207500000000001
v -0.813771 -0.129789 0.08716600000000001
v -0.876569 -0.111017 0.087166
v -0.554002 -0.578766 0.017249000000000035
v -0.552901 -0.578573 0.05207500000000004
v -0.51496 -0.573421 0.05207500000000004
v -0.513639 -0.573188 0.017249000000000035
v -0.554002 -0.578766 0.017249000000000035
v -0.456092 -0.636873 0.052075000000000045
v -0.4518 -0.636117 0.01724900000000004
v -0.464996 -0.644307 0.08716600000000004
v -0.416315 -0.662161 0.052075000000000045
v -0.409822 -0.661017 0.017249000000000042
v -0.421218 -0.764546 0.05207500000000005
v -0.416156 -0.763653 0.017249000000000046
v -0.435295 -0.753043 0.08716600000000004
v -0.431118 -0.665844 0.08716600000000004
v -0.516125 -0.68699 0.13308100000000006
v -0.515133 -0.590265 0.08716600000000004
v -0.552901 -0.578573 0.05207500000000004
v -0.554002 -0.578766 0.017249000000000035
v -0.584839 -0.670342 0.017249000000000042
v -0.547447 -0.594653 0.08716600000000004
v -0.580987 -0.669663 0.052075000000000045
v -0.601976 -0.701051 0.017249000000000042
v -0.571367 -0.672233 0.08716600000000004
v -0.596805 -0.700139 0.052075000000000045
v -0.579541 -0.721706 0.017249000000000046
v -0.584838 -0.698189 0.08716600000000004
v -0.575469 -0.720988 0.052075000000000045
v -0.560976 -0.76304 0.017249000000000046
v -0.566667 -0.715946 0.08716600000000004
v -0.557565 -0.762438 0.05207500000000005
v -0.488501 -0.801021 0.01724900000000005
v -0.551419 -0.751248 0.08716600000000004
v -0.488941 -0.801098 0.05207500000000005
v -0.416156 -0.763653 0.017249000000000046
v -0.421218 -0.764546 0.05207500000000005
v -0.492973 -0.784174 0.08716600000000004
v -0.435295 -0.753043 0.08716600000000004
v -1.220471 0.404106 0.017248999999999976
v -1.221386 0.404747 0.052074999999999975
v -1.251858 0.427933 0.052074999999999975
v -1.252956 0.428702 0.017248999999999973
v -1.220471 0.404106 0.017248999999999976
v -1.248616 0.514426 0.05207499999999997
v -1.252185 0.516926 0.01724899999999997
v -1.237064 0.513386 0.08716599999999997
v -1.258861 0.560434 0.05207499999999997
v -1.264261 0.564216 0.017248999999999966
v -1.182997 0.629364 0.05207499999999996
v -1.187207 0.632312 0.017248999999999962
v -1.181177 0.611276 0.08716599999999995
v -1.245789 0.552571 0.08716599999999997
v -1.170728 0.507414 0.13308099999999998
v -1.239824 0.439721 0.08716599999999997
v -1.221386 0.404747 0.052074999999999975
v -1.220471 0.404106 0.017248999999999976
v -1.133912 0.447055 0.017248999999999973
v -1.213872 0.419974 0.08716599999999997
v -1.137115 0.449298 0.052074999999999975
v -1.100079 0.456651 0.017248999999999973
v -1.142101 0.457917 0.08716599999999997
v -1.104381 0.459663 0.052074999999999975
v -1.101338 0.487121 0.01724899999999997
v -1.114221 0.466746 0.08716599999999997
v -1.104725 0.489492 0.052074999999999975
v -1.085238 0.529475 0.01724899999999997
v -1.114514 0.49215 0.08716599999999997
v -1.088075 0.531462 0.05207499999999997
v -1.109629 0.607579 0.017248999999999962
v -1.100334 0.527895 0.08716599999999997
v -1.109263 0.607323 0.05207499999999997
v -1.187207 0.632312 0.017248999999999962
v -1.182997 0.629364 0.05207499999999996
v -1.118379 0.592504 0.08716599999999995
v -1.181177 0.611276 0.08716599999999995
v 0.373238 0.280568 0.017248999999999983
v 0.372323 0.281209 0.05207499999999999
v 0.341851 0.304394 0.05207499999999998
v 0.340753 0.305164 0.017248999999999983
v 0.373238 0.280568 0.017248999999999983
v 0.345093 0.390888 0.05207499999999998
v 0.341523 0.393388 0.017248999999999976
v 0.356645 0.389848 0.08716599999999997
v 0.334847 0.436896 0.052074999999999975
v 0.329447 0.440678 0.017248999999999973
v 0.410712 0.505826 0.052074999999999975
v 0.406501 0.508774 0.01724899999999997
v 0.412531 0.487738 0.08716599999999997
v 0.347919 0.429032 0.08716599999999997
v 0.422981 0.383876 0.13308099999999998
v 0.353884 0.316183 0.08716599999999998
v 0.372323 0.281209 0.05207499999999999
v 0.373238 0.280568 0.017248999999999983
v 0.459797 0.323516 0.01724899999999998
v 0.379836 0.296436 0.08716599999999998
v 0.456593 0.32576 0.05207499999999998
v 0.493629 0.333113 0.01724899999999998
v 0.451608 0.334379 0.08716599999999998
v 0.489328 0.336125 0.05207499999999998
v 0.49237 0.363583 0.01724899999999998
v 0.479487 0.343208 0.08716599999999997
v 0.488984 0.365954 0.05207499999999998
v 0.508471 0.405937 0.017248999999999976
v 0.479194 0.368612 0.08716599999999997
v 0.505633 0.407924 0.052074999999999975
v 0.484079 0.484041 0.01724899999999997
v 0.493374 0.404357 0.08716599999999997
v 0.484446 0.483785 0.052074999999999975
v 0.406501 0.508774 0.01724899999999997
v 0.410712 0.505826 0.052074999999999975
v 0.475329 0.468966 0.08716599999999997
v 0.412531 0.487738 0.08716599999999997
v 0.643154 -0.117839 0.017249000000000007
v 0.642239 -0.117198 0.05207500000000001
v 0.611768 -0.094013 0.05207500000000001
v 0.610669 -0.093243 0.017249000000000007
v 0.643154 -0.117839 0.017249000000000007
v 0.615009 -0.007518999999999996 0.052075
v 0.61144 -0.005018999999999999 0.017249
v 0.626562 -0.008558999999999995 0.087166
v 0.604764 0.038489 0.052075
v 0.599364 0.042271 0.017248999999999997
v 0.680628 0.107419 0.052074999999999996
v 0.676418 0.110367 0.017248999999999994
v 0.682448 0.089331 0.087166
v 0.617836 0.030625000000000006 0.087166
v 0.692897 -0.014530999999999992 0.133081
v 0.623801 -0.082224 0.087166
v 0.642239 -0.117198 0.05207500000000001
v 0.643154 -0.117839 0.017249000000000007
v 0.729713 -0.074891 0.017249000000000004
v 0.649753 -0.101971 0.087166
v 0.72651 -0.072647 0.05207500000000001
v 0.763546 -0.065294 0.017249000000000004
v 0.721524 -0.064028 0.087166
v 0.759244 -0.062282 0.05207500000000001
v 0.762287 -0.034824 0.017249000000000004
v 0.749404 -0.05519899999999999 0.087166
v 0.7589 -0.032453 0.052075
v 0.778387 0.007530000000000001 0.017249
v 0.749111 -0.02979499999999999 0.087166
v 0.77555 0.009517000000000003 0.052075
v 0.753996 0.085634 0.017248999999999994
v 0.763291 0.005950000000000006 0.087166
v 0.754362 0.085378 0.052074999999999996
v 0.676418 0.110367 0.017248999999999994
v 0.680628 0.107419 0.052074999999999996
v 0.745246 0.070559 0.087166
v 0.682448 0.089331 0.087166
v 0.40686 -0.483841 -0.010128999999999971
v 0.408337 -0.47743 0.02003900000000003
v 0.353008 -0.437593 0.02003900000000003
v 0.347335 -0.440983 -0.010128999999999973
v 0.40686 -0.483841 -0.010128999999999971
v 0.388419 -0.340213 0.020039000000000022
v 0.385431 -0.336219 -0.01012899999999998
v 0.499077 -0.304802 0.02003900000000002
v 0.504481 -0.298123 -0.010128999999999982
v 0.488507 -0.317867 0.050437000000000023
v 0.394262 -0.348026 0.050437000000000023
v 0.427813 -0.392887 0.09020900000000003
v 0.364103 -0.430962 0.05043700000000003
v 0.408337 -0.47743 0.02003900000000003
v 0.411226 -0.46489 0.05043700000000003
v 0.408337 -0.47743 0.02003900000000003
v 0.427813 -0.392887 0.09020900000000003
v 0.480968 -0.402688 0.05043700000000003
v 0.427813 -0.392887 0.09020900000000003
v 0.488507 -0.317867 0.050437000000000023
v 0.499077 -0.304802 0.02003900000000002
v 0.490224 -0.404395 0.020039000000000026
v 0.504481 -0.298123 -0.010128999999999982
v 0.408337 -0.47743 0.02003900000000003
v 0.494957 -0.405268 -0.010128999999999977
v 0.40686 -0.483841 -0.010128999999999971
v -0.5517 -0.264174 -0.015760999999999983
v -0.549967 -0.258326 0.024076000000000018
v -0.665052 -0.127749 0.024076000000000007
v -0.670482 -0.129402 -0.015760999999999994
v -0.5517 -0.264174 -0.015760999999999983
v -0.63628 -0.010449999999999997 0.024076
v -0.640786 -0.008335000000000002 -0.015761
v -0.639981 -0.120117 0.06421500000000001
v -0.549967 -0.258326 0.024076000000000018
v -0.543327 0.047092 0.024075999999999997
v -0.544847 0.051056 -0.015761000000000004
v -0.615477 -0.020215999999999998 0.064215
v -0.443734 0.042666 0.024075999999999997
v -0.442055 0.046487 -0.015761000000000004
v -0.45149 0.025022000000000003 0.064215
v -0.536311 0.028792000000000005 0.064215
v -0.496021 -0.07629199999999998 0.116736
v -0.541965 -0.231327 0.06421500000000001
v -0.549967 -0.258326 0.024076000000000018
v -0.5517 -0.264174 -0.015760999999999983
v -0.407791 -0.202498 -0.015760999999999987
v -0.410537 -0.19857 0.024076000000000014
v -0.350684 -0.092853 -0.015760999999999994
v -0.423216 -0.180434 0.06421500000000001
v -0.355208 -0.092338 0.024076000000000007
v -0.359821 -0.010620000000000001 -0.015761
v -0.376093 -0.089958 0.064215
v -0.36406 -0.012663999999999998 0.024076
v -0.442055 0.046487 -0.015761000000000004
v -0.443734 0.042666 0.024075999999999997
v -0.383633 -0.022100999999999996 0.064215
v -0.45149 0.025022000000000003 0.064215
v -0.519082 0.952783 0.04193199999999994
v -0.519651 0.952783 -0.00808900000000006
v -0.618576 0.921938 -0.008089000000000058
v -0.612035 0.921938 0.04193199999999994
v -0.517769 0.930681 0.09233299999999994
v -0.649196 0.794706 -0.00808900000000005
v -0.596936 0.904411 0.09233299999999994
v -0.640807 0.794706 0.04193199999999995
v -0.602089 0.754223 -0.008089000000000048
v -0.51023 0.803766 0.15827899999999995
v -0.596543 0.754223 0.04193199999999995
v -0.538494 0.66169 -0.00808900000000004
v -0.621439 0.79605 0.09233299999999994
v -0.536788 0.66169 0.041931999999999955
v -0.486676 0.659762 -0.00808900000000004
v -0.583741 0.761571 0.09233299999999996
v -0.488098 0.659762 0.041931999999999955
v -0.427792 0.767717 -0.008089000000000048
v -0.532848 0.682763 0.09233299999999996
v -0.432768 0.767717 0.04193199999999995
v -0.399527 0.802417 -0.00808900000000005
v -0.49138 0.681121 0.09233299999999996
v -0.40621 0.802417 0.04193199999999995
v -0.423081 0.833261 -0.008089000000000051
v -0.444258 0.773064 0.09233299999999996
v -0.428342 0.833261 0.04193199999999995
v -0.437213 0.889166 -0.008089000000000054
v -0.421639 0.802617 0.09233299999999994
v -0.441621 0.889166 0.04193199999999994
v -0.519651 0.952783 -0.00808900000000006
v -0.440488 0.828887 0.09233299999999994
v -0.519082 0.952783 0.04193199999999994
v -0.451797 0.8765 0.09233299999999994
v -0.517769 0.930681 0.09233299999999994
v -0.190264 0.257248 0.016633999999999982
v -0.18436 0.26511 -0.017823000000000016
v -0.28685 0.286561 -0.017823000000000016
v -0.285431 0.277166 0.016633999999999982
v -0.201644 0.242093 0.05135299999999999
v -0.360738 0.150703 -0.01782300000000001
v -0.282695 0.259057 0.05135299999999999
v -0.354039 0.151015 0.01663399999999999
v -0.34882 0.036296 -0.017823000000000002
v -0.266987 0.155073 0.09677999999999999
v -0.341127 0.151617 0.051352999999999996
v -0.34882 0.036296 -0.017823000000000002
v -0.342973 0.044783 0.016633999999999996
v -0.331703 0.061141 0.051352999999999996
v -0.34882 0.036296 -0.017823000000000002
v -0.260631 0.014844999999999999 -0.017823
v -0.261086 0.024865 0.016634
v -0.160526 0.176921 -0.01782300000000001
v -0.261961 0.044177 0.051353
v -0.168132 0.17536 0.01663399999999999
v -0.18436 0.26511 -0.017823000000000016
v -0.190264 0.257248 0.016633999999999982
v -0.182795 0.172351 0.05135299999999999
v -0.201644 0.242093 0.05135299999999999
v -0.749056 0.115015 0.052074999999999996
v -0.749503 0.115015 0.017248999999999994
v -0.827238 0.090778 0.017248999999999994
v -0.822098 0.090778 0.052074999999999996
v -0.748025 0.097648 0.087166
v -0.851299 -0.009198999999999999 0.017249
v -0.810233 0.077006 0.087166
v -0.844706 -0.009198999999999997 0.052075
v -0.814282 -0.04101 0.017249000000000004
v -0.7421 -0.0020799999999999916 0.133081
v -0.809924 -0.04101 0.052075
v -0.76431 -0.113721 0.017249000000000007
v -0.829488 -0.008142999999999994 0.087166
v -0.762969 -0.113721 0.05207500000000001
v -0.723592 -0.115236 0.017249000000000007
v -0.799865 -0.035235999999999996 0.087166
v -0.724709 -0.115236 0.05207500000000001
v -0.677321 -0.030407 0.017249000000000004
v -0.759874 -0.097163 0.087166
v -0.681232 -0.030406999999999997 0.052075
v -0.655112 -0.003139999999999999 0.017249
v -0.727289 -0.098453 0.087166
v -0.660363 -0.003139999999999997 0.052075
v -0.67362 0.021097 0.017249
v -0.69026 -0.026204999999999992 0.087166
v -0.677754 0.021097000000000005 0.052075
v -0.684725 0.065027 0.017248999999999997
v -0.672486 -0.0029829999999999948 0.087166
v -0.688189 0.065027 0.052074999999999996
v -0.749503 0.115015 0.017248999999999994
v -0.687298 0.017659000000000008 0.087166
v -0.749056 0.115015 0.052074999999999996
v -0.696185 0.055073000000000004 0.087166
v -0.748025 0.097648 0.087166
v 0.22907 -0.112256 0.016634000000000006
v 0.234974 -0.104394 -0.01782299999999999
v 0.132484 -0.082943 -0.017822999999999995
v 0.133904 -0.092338 0.016634000000000006
v 0.21769 -0.127411 0.05135300000000001
v 0.058597 -0.218801 -0.017822999999999985
v 0.136639 -0.110447 0.05135300000000001
v 0.065295 -0.218489 0.016634000000000013
v 0.070514 -0.333208 -0.017822999999999978
v 0.152347 -0.214431 0.09678000000000002
v 0.078207 -0.217887 0.05135300000000002
v 0.070514 -0.333208 -0.017822999999999978
v 0.076361 -0.324721 0.01663400000000002
v 0.087631 -0.308363 0.051353000000000024
v 0.070514 -0.333208 -0.017822999999999978
v 0.158703 -0.354659 -0.017822999999999978
v 0.158249 -0.344639 0.01663400000000002
v 0.258809 -0.192583 -0.017822999999999988
v 0.157373 -0.325327 0.051353000000000024
v 0.251202 -0.194144 0.01663400000000001
v 0.234974 -0.104394 -0.01782299999999999
v 0.22907 -0.112256 0.016634000000000006
v 0.23654 -0.197153 0.05135300000000002
v 0.21769 -0.127411 0.05135300000000001
v -0.04979 0.195444 0.04193199999999998
v -0.050358 0.195444 -0.008089000000000013
v -0.149284 0.1646 -0.008089000000000011
v -0.142743 0.1646 0.04193199999999999
v -0.048477 0.173342 0.09233299999999998
v -0.179904 0.037368 -0.008089000000000002
v -0.127643 0.147073 0.09233299999999998
v -0.171514 0.037368 0.041932
v -0.132796 -0.0031150000000000006 -0.008089
v -0.040937 0.046428000000000004 0.158279
v -0.127251 -0.0031149999999999975 0.041932
v -0.069201 -0.095648 -0.008088999999999995
v -0.152147 0.03871100000000001 0.092333
v -0.067495 -0.095648 0.041932000000000004
v -0.017383 -0.097576 -0.008088999999999995
v -0.114449 0.004233000000000006 0.092333
v -0.018805 -0.097576 0.041932000000000004
v 0.041501 0.010379 -0.008089
v -0.063556 -0.074575 0.092333
v 0.036524 0.010379000000000001 0.041932
v 0.069765 0.045079 -0.008089000000000004
v -0.022088 -0.076217 0.092333
v 0.063082 0.045079 0.041932
v 0.046212 0.075923 -0.008089000000000006
v 0.025035 0.015726000000000007 0.092333
v 0.04095 0.075923 0.04193199999999999
v 0.032079 0.131828 -0.00808900000000001
v 0.047654 0.04527900000000001 0.092333
v 0.027671 0.131828 0.04193199999999999
v -0.050358 0.195444 -0.008089000000000013
v 0.028805 0.071548 0.092333
v -0.04979 0.195444 0.04193199999999998
v 0.017495 0.119162 0.09233299999999998
v -0.048477 0.173342 0.09233299999999998
vt 0.854320 0.357841
vt 0.803667 0.354113
vt 0.829343 0.318609
vt 0.854320 0.357841
vt 0.829343 0.318609
vt 0.860862 0.314370
vt 0.854320 0.357841
vt 0.860862 0.314370
vt 0.901512 0.344551
vt 0.854320 0.357841
vt 0.901512 0.344551
vt 0.925934 0.381385
vt 0.854320 0.357841
vt 0.800013 0.402162
vt 0.803667 0.354113
vt 0.432817 0.565650
vt 0.408651 0.571388
vt 0.376588 0.555064
vt 0.394812 0.536652
vt 0.432817 0.565650
vt 0.454831 0.562261
vt 0.432817 0.565650
vt 0.411143 0.518575
vt 0.454831 0.562261
vt 0.326038 0.518322
vt 0.328830 0.495611
vt 0.322698 0.540705
vt 0.270961 0.529648
vt 0.263052 0.506495
vt 0.280078 0.552482
vt 0.195013 0.558469
vt 0.180040 0.537292
vt 0.216961 0.577603
vt 0.309756 0.597835
vt 0.408651 0.571388
vt 0.358872 0.646878
vt 0.376158 0.663022
vt 0.432817 0.565650
vt 0.454831 0.562261
vt 0.394256 0.678156
vt 0.337115 0.702603
vt 0.330740 0.679885
vt 0.239763 0.702433
vt 0.324173 0.656502
vt 0.247685 0.680756
vt 0.182685 0.671120
vt 0.199218 0.650399
vt 0.257698 0.659249
vt 0.221802 0.630390
vt 0.224370 0.385636
vt 0.210809 0.378971
vt 0.209678 0.343476
vt 0.225549 0.339570
vt 0.224370 0.385636
vt 0.239901 0.335602
vt 0.236277 0.392066
vt 0.236277 0.392066
vt 0.224370 0.385636
vt 0.175266 0.317978
vt 0.182987 0.306891
vt 0.239901 0.335602
vt 0.225549 0.339570
vt 0.176677 0.350742
vt 0.210809 0.378971
vt 0.122587 0.310875
vt 0.120259 0.295010
vt 0.190956 0.295440
vt 0.121640 0.280306
vt 0.239901 0.335602
vt 0.176677 0.350742
vt 0.167335 0.388647
vt 0.176677 0.350742
vt 0.122678 0.396352
vt 0.120549 0.416019
vt 0.171809 0.399665
vt 0.124201 0.432004
vt 0.224370 0.385636
vt 0.178020 0.411755
vt 0.236277 0.392066
vt 0.432817 0.565650
vt 0.408651 0.571388
vt 0.376588 0.555064
vt 0.394812 0.536652
vt 0.432817 0.565650
vt 0.454831 0.562261
vt 0.432817 0.565650
vt 0.411143 0.518575
vt 0.454831 0.562261
vt 0.326038 0.518322
vt 0.328830 0.495611
vt 0.322698 0.540705
vt 0.270961 0.529648
vt 0.263052 0.506495
vt 0.280078 0.552482
vt 0.195013 0.558469
vt 0.180040 0.537292
vt 0.216961 0.577603
vt 0.309756 0.597835
vt 0.408651 0.571388
vt 0.358872 0.646878
vt 0.376158 0.663022
vt 0.432817 0.565650
vt 0.454831 0.562261
vt 0.394256 0.678156
vt 0.337115 0.702603
vt 0.330740 0.679885
vt 0.239763 0.702433
vt 0.324173 0.656502
vt 0.247685 0.680756
vt 0.182685 0.671120
vt 0.199218 0.650399
vt 0.257698 0.659249
vt 0.221802 0.630390
vt 0.439275 0.195976
vt 0.422253 0.200239
vt 0.408357 0.194439
vt 0.421520 0.183148
vt 0.439275 0.195976
vt 0.455824 0.192335
vt 0.439275 0.195976
vt 0.433388 0.171039
vt 0.455824 0.192335
vt 0.343842 0.163480
vt 0.344822 0.147611
vt 0.303378 0.165569
vt 0.299305 0.148640
vt 0.311605 0.182342
vt 0.344737 0.177674
vt 0.366822 0.209987
vt 0.422253 0.200239
vt 0.413508 0.236076
vt 0.427753 0.244779
vt 0.439275 0.195976
vt 0.455824 0.192335
vt 0.440696 0.253525
vt 0.360418 0.271164
vt 0.357346 0.255584
vt 0.295598 0.276345
vt 0.298016 0.257957
vt 0.356156 0.242018
vt 0.366822 0.209987
vt 0.306798 0.238335
vt 0.366822 0.209987
vt 0.820039 0.305460
vt 0.829343 0.318609
vt 0.803667 0.354113
vt 0.782658 0.348679
vt 0.863548 0.299529
vt 0.860862 0.314370
vt 0.829343 0.318609
vt 0.820039 0.305460
vt 0.919265 0.333945
vt 0.901512 0.344551
vt 0.860862 0.314370
vt 0.863548 0.299529
vt 0.954399 0.376460
vt 0.925934 0.381385
vt 0.901512 0.344551
vt 0.919265 0.333945
vt 0.782658 0.348679
vt 0.803667 0.354113
vt 0.800013 0.402162
vt 0.770821 0.406597
vt 0.811299 0.293173
vt 0.820039 0.305460
vt 0.782658 0.348679
vt 0.764358 0.342314
vt 0.866242 0.285728
vt 0.863548 0.299529
vt 0.820039 0.305460
vt 0.811299 0.293173
vt 0.933807 0.322993
vt 0.919265 0.333945
vt 0.863548 0.299529
vt 0.866242 0.285728
vt 0.975349 0.368902
vt 0.954399 0.376460
vt 0.919265 0.333945
vt 0.933807 0.322993
vt 0.764358 0.342314
vt 0.782658 0.348679
vt 0.770821 0.406597
vt 0.747543 0.406170
vt 0.478637 0.841684
vt 0.463170 0.843546
vt 0.451878 0.826468
vt 0.462323 0.815960
vt 0.478637 0.841684
vt 0.405139 0.813383
vt 0.408958 0.797285
vt 0.400835 0.830077
vt 0.378519 0.808740
vt 0.376158 0.793208
vt 0.326283 0.828656
vt 0.320467 0.812199
vt 0.339790 0.844007
vt 0.381111 0.824349
vt 0.396357 0.866799
vt 0.439111 0.836534
vt 0.463170 0.843546
vt 0.478637 0.841684
vt 0.465720 0.895789
vt 0.447198 0.847770
vt 0.448677 0.889316
vt 0.451303 0.917077
vt 0.431061 0.882598
vt 0.438491 0.906068
vt 0.429534 0.928731
vt 0.425929 0.894958
vt 0.421521 0.913949
vt 0.397392 0.936563
vt 0.413565 0.898232
vt 0.395704 0.921127
vt 0.344771 0.928456
vt 0.395394 0.905403
vt 0.351753 0.915610
vt 0.308336 0.899892
vt 0.322347 0.888818
vt 0.360263 0.902869
vt 0.338980 0.878490
vt 0.478637 0.841684
vt 0.463170 0.843546
vt 0.451878 0.826468
vt 0.462323 0.815960
vt 0.478637 0.841684
vt 0.405139 0.813383
vt 0.408958 0.797285
vt 0.400835 0.830077
vt 0.378519 0.808740
vt 0.376158 0.793208
vt 0.326283 0.828656
vt 0.320467 0.812199
vt 0.339790 0.844007
vt 0.381111 0.824349
vt 0.396357 0.866799
vt 0.439111 0.836534
vt 0.463170 0.843546
vt 0.478637 0.841684
vt 0.465720 0.895789
vt 0.447198 0.847770
vt 0.448677 0.889316
vt 0.451303 0.917077
vt 0.431061 0.882598
vt 0.438491 0.906068
vt 0.429534 0.928731
vt 0.425929 0.894958
vt 0.421521 0.913949
vt 0.397392 0.936563
vt 0.413565 0.898232
vt 0.395704 0.921127
vt 0.344771 0.928456
vt 0.395394 0.905403
vt 0.351753 0.915610
vt 0.308336 0.899892
vt 0.322347 0.888818
vt 0.360263 0.902869
vt 0.338980 0.878490
vt 0.478637 0.841684
vt 0.463170 0.843546
vt 0.451878 0.826468
vt 0.462323 0.815960
vt 0.478637 0.841684
vt 0.405139 0.813383
vt 0.408958 0.797285
vt 0.400835 0.830077
vt 0.378519 0.808740
vt 0.376158 0.793208
vt 0.326283 0.828656
vt 0.320467 0.812199
vt 0.339790 0.844007
vt 0.381111 0.824349
vt 0.396357 0.866799
vt 0.439111 0.836534
vt 0.463170 0.843546
vt 0.478637 0.841684
vt 0.465720 0.895789
vt 0.447198 0.847770
vt 0.448677 0.889316
vt 0.451303 0.917077
vt 0.431061 0.882598
vt 0.438491 0.906068
vt 0.429534 0.928731
vt 0.425929 0.894958
vt 0.421521 0.913949
vt 0.397392 0.936563
vt 0.413565 0.898232
vt 0.395704 0.921127
vt 0.344771 0.928456
vt 0.395394 0.905403
vt 0.351753 0.915610
vt 0.308336 0.899892
vt 0.322347 0.888818
vt 0.360263 0.902869
vt 0.338980 0.878490
vt 0.478637 0.841684
vt 0.463170 0.843546
vt 0.451878 0.826468
vt 0.462323 0.815960
vt 0.478637 0.841684
vt 0.405139 0.813383
vt 0.408958 0.797285
vt 0.400835 0.830077
vt 0.378519 0.808740
vt 0.376158 0.793208
vt 0.326283 0.828656
vt 0.320467 0.812199
vt 0.339790 0.844007
vt 0.381111 0.824349
vt 0.396357 0.866799
vt 0.439111 0.836534
vt 0.463170 0.843546
vt 0.478637 0.841684
vt 0.465720 0.895789
vt 0.447198 0.847770
vt 0.448677 0.889316
vt 0.451303 0.917077
vt 0.431061 0.882598
vt 0.438491 0.906068
vt 0.429534 0.928731
vt 0.425929 0.894958
vt 0.421521 0.913949
vt 0.397392 0.936563
vt 0.413565 0.898232
vt 0.395704 0.921127
vt 0.344771 0.928456
vt 0.395394 0.905403
vt 0.351753 0.915610
vt 0.308336 0.899892
vt 0.322347 0.888818
vt 0.360263 0.902869
vt 0.338980 0.878490
vt 0.478637 0.841684
vt 0.463170 0.843546
vt 0.451878 0.826468
vt 0.462323 0.815960
vt 0.478637 0.841684
vt 0.405139 0.813383
vt 0.408958 0.797285
vt 0.400835 0.830077
vt 0.378519 0.808740
vt 0.376158 0.793208
vt 0.326283 0.828656
vt 0.320467 0.812199
vt 0.339790 0.844007
vt 0.381111 0.824349
vt 0.396357 0.866799
vt 0.439111 0.836534
vt 0.463170 0.843546
vt 0.478637 0.841684
vt 0.465720 0.895789
vt 0.447198 0.847770
vt 0.448677 0.889316
vt 0.451303 0.917077
vt 0.431061 0.882598
vt 0.438491 0.906068
vt 0.429534 0.928731
vt 0.425929 0.894958
vt 0.421521 0.913949
vt 0.397392 0.936563
vt 0.413565 0.898232
vt 0.395704 0.921127
vt 0.344771 0.928456
vt 0.395394 0.905403
vt 0.351753 0.915610
vt 0.308336 0.899892
vt 0.322347 0.888818
vt 0.360263 0.902869
vt 0.338980 0.878490
vt 0.816752 0.889871
vt 0.803015 0.885685
vt 0.801209 0.853431
vt 0.814386 0.848053
vt 0.816752 0.889871
vt 0.752531 0.827805
vt 0.758156 0.815174
vt 0.688436 0.826094
vt 0.686769 0.810937
vt 0.694438 0.842526
vt 0.747382 0.840523
vt 0.742148 0.872397
vt 0.786665 0.858841
vt 0.803015 0.885685
vt 0.787886 0.881673
vt 0.803015 0.885685
vt 0.742148 0.872397
vt 0.747000 0.903343
vt 0.742148 0.872397
vt 0.702637 0.912143
vt 0.701488 0.930749
vt 0.753621 0.915490
vt 0.704827 0.946298
vt 0.803015 0.885685
vt 0.761584 0.927453
vt 0.816752 0.889871
vt 0.680611 0.678937
vt 0.663283 0.680265
vt 0.608443 0.612087
vt 0.618642 0.598631
vt 0.680611 0.678937
vt 0.542289 0.605300
vt 0.539881 0.588291
vt 0.596038 0.628525
vt 0.663283 0.680265
vt 0.489894 0.631100
vt 0.477600 0.616260
vt 0.544092 0.624806
vt 0.456087 0.668713
vt 0.438641 0.655643
vt 0.479226 0.680545
vt 0.503500 0.647186
vt 0.548155 0.691165
vt 0.640762 0.682143
vt 0.663283 0.680265
vt 0.680611 0.678937
vt 0.639601 0.755925
vt 0.624745 0.744450
vt 0.571590 0.788344
vt 0.607341 0.731581
vt 0.566400 0.771198
vt 0.518052 0.788011
vt 0.561107 0.751928
vt 0.522438 0.770745
vt 0.467137 0.762210
vt 0.478051 0.744951
vt 0.527128 0.751520
vt 0.493508 0.726869
vt 0.686943 0.614115
vt 0.674560 0.591682
vt 0.729348 0.566800
vt 0.732372 0.588197
vt 0.707947 0.635683
vt 0.812684 0.567884
vt 0.739661 0.608758
vt 0.805849 0.588977
vt 0.851127 0.590682
vt 0.779492 0.664369
vt 0.833811 0.608358
vt 0.897512 0.642908
vt 0.798118 0.609561
vt 0.875588 0.649628
vt 0.897396 0.681810
vt 0.815211 0.626125
vt 0.875944 0.674923
vt 0.845151 0.736813
vt 0.851545 0.654458
vt 0.828360 0.718876
vt 0.814127 0.753506
vt 0.852381 0.670251
vt 0.805678 0.732193
vt 0.782440 0.756491
vt 0.811080 0.700513
vt 0.781776 0.733112
vt 0.742825 0.752074
vt 0.797553 0.711299
vt 0.748234 0.729962
vt 0.687113 0.730513
vt 0.781481 0.709224
vt 0.697226 0.709544
vt 0.755718 0.709014
vt 0.713820 0.691261
vt 0.488900 0.415245
vt 0.474189 0.403161
vt 0.519550 0.367262
vt 0.525580 0.380970
vt 0.508220 0.425790
vt 0.612471 0.372543
vt 0.532893 0.393971
vt 0.605328 0.386160
vt 0.669906 0.411185
vt 0.572772 0.431412
vt 0.597558 0.399177
vt 0.669906 0.411185
vt 0.654480 0.415790
vt 0.637434 0.420218
vt 0.669906 0.411185
vt 0.664796 0.463295
vt 0.650617 0.456482
vt 0.561081 0.498797
vt 0.634099 0.449885
vt 0.558094 0.483991
vt 0.508749 0.498798
vt 0.511261 0.481167
vt 0.557363 0.470536
vt 0.519642 0.462567
vt 0.537514 0.159570
vt 0.527691 0.144344
vt 0.568944 0.122376
vt 0.571472 0.137368
vt 0.553793 0.174290
vt 0.633507 0.122783
vt 0.577649 0.152219
vt 0.628825 0.137480
vt 0.662328 0.140031
vt 0.610293 0.195142
vt 0.650320 0.152637
vt 0.698546 0.179487
vt 0.623656 0.152252
vt 0.683385 0.184277
vt 0.698241 0.208779
vt 0.637096 0.165504
vt 0.683579 0.203740
vt 0.655924 0.249564
vt 0.666090 0.187645
vt 0.644732 0.236563
vt 0.632172 0.261584
vt 0.666666 0.200365
vt 0.626992 0.246513
vt 0.608213 0.262718
vt 0.632906 0.223182
vt 0.608517 0.246301
vt 0.578025 0.258354
vt 0.621848 0.231561
vt 0.582496 0.243041
vt 0.535633 0.239460
vt 0.609206 0.229264
vt 0.543644 0.225064
vt 0.588898 0.228387
vt 0.557047 0.212704
vt 0.488900 0.415245
vt 0.474189 0.403161
vt 0.519550 0.367262
vt 0.525580 0.380970
vt 0.508220 0.425790
vt 0.612471 0.372543
vt 0.532893 0.393971
vt 0.605328 0.386160
vt 0.669906 0.411185
vt 0.572772 0.431412
vt 0.597558 0.399177
vt 0.669906 0.411185
vt 0.654480 0.415790
vt 0.637434 0.420218
vt 0.669906 0.411185
vt 0.664796 0.463295
vt 0.650617 0.456482
vt 0.561081 0.498797
vt 0.634099 0.449885
vt 0.558094 0.483991
vt 0.508749 0.498798
vt 0.511261 0.481167
vt 0.557363 0.470536
vt 0.519642 0.462567
vt 0.686943 0.614115
vt 0.674560 0.591682
vt 0.729348 0.566800
vt 0.732372 0.588197
vt 0.707947 0.635683
vt 0.812684 0.567884
vt 0.739661 0.608758
vt 0.805849 0.588977
vt 0.851127 0.590682
vt 0.779492 0.664369
vt 0.833811 0.608358
vt 0.897512 0.642908
vt 0.798118 0.609561
vt 0.875588 0.649628
vt 0.897396 0.681810
vt 0.815211 0.626125
vt 0.875944 0.674923
vt 0.845151 0.736813
vt 0.851545 0.654458
vt 0.828360 0.718876
vt 0.814127 0.753506
vt 0.852381 0.670251
vt 0.805678 0.732193
vt 0.782440 0.756491
vt 0.811080 0.700513
vt 0.781776 0.733112
vt 0.742825 0.752074
vt 0.797553 0.711299
vt 0.748234 0.729962
vt 0.687113 0.730513
vt 0.781481 0.709224
vt 0.697226 0.709544
vt 0.755718 0.709014
vt 0.713820 0.691261
vn 0.647081 0.00019100000000004668 0.762421
vn 0.647081 0.00019100000000004668 0.762421
vn 0.647081 0.00019100000000004668 0.762421
vn 0.136888 0.48524500000000004 0.863597
vn 0.136888 0.48524500000000004 0.863597
vn 0.136888 0.48524500000000004 0.863597
vn -0.600318 0.32283900000000004 0.731706
vn -0.600318 0.32283900000000004 0.731706
vn -0.600318 0.32283900000000004 0.731706
vn -0.574328 -0.15303599999999995 0.804194
vn -0.574328 -0.15303599999999995 0.804194
vn -0.574328 -0.15303599999999995 0.804194
vn 0.367633 -0.47489599999999993 0.799575
vn 0.367633 -0.47489599999999993 0.799575
vn 0.367633 -0.47489599999999993 0.799575
vn -0.002942 -0.948432 0.3169660000000001
vn 0.148493 -0.732657 0.664201
vn -0.599991 -0.544441 0.58617
vn -0.739853 -0.624385 0.25052100000000005
vn -0.002942 -0.948432 0.3169660000000001
vn -0.276404 -0.942641 0.18715800000000005
vn -0.002942 -0.948432 0.3169660000000001
vn -0.789535 -0.595667 0.14770000000000003
vn -0.276404 -0.942641 0.18715800000000005
vn -0.96724 -0.06470699999999999 0.245479
vn -0.98445 0.10378500000000002 0.141728
vn -0.797033 -0.14273499999999997 0.586826
vn -0.867702 0.452434 0.20590699999999998
vn -0.868767 0.480099 0.12144699999999997
vn -0.765235 0.38327900000000004 0.517216
vn -0.405003 0.867728 0.2881329999999999
vn -0.200556 0.964078 0.17415899999999995
vn -0.450912 0.64296 0.619097
vn -0.066964 0.04119300000000006 0.996905
vn 0.148493 -0.732657 0.664201
vn 0.7592 -0.18523899999999996 0.623941
vn 0.897601 -0.34413 0.275477
vn -0.002942 -0.948432 0.3169660000000001
vn -0.276404 -0.942641 0.18715800000000005
vn 0.837548 -0.522226 0.16060200000000002
vn 0.954578 0.256795 0.15111999999999998
vn 0.917896 0.306114 0.25251
vn 0.698454 0.696318 0.16523799999999994
vn 0.759987 0.28864900000000004 0.582324
vn 0.559 0.779722 0.28205199999999997
vn -0.200556 0.964078 0.17415899999999995
vn -0.405003 0.867728 0.2881329999999999
vn 0.381018 0.675693 0.631082
vn -0.450912 0.64296 0.619097
vn 0.215307 -0.923855 0.31644100000000003
vn 0.308911 -0.711471 0.631176
vn -0.747878 -0.38247699999999996 0.542578
vn -0.906132 -0.308828 0.289051
vn 0.215307 -0.923855 0.31644100000000003
vn -0.979365 -0.06480399999999999 0.191429
vn -0.092243 -0.971479 0.21844700000000006
vn -0.092243 -0.971479 0.21844700000000006
vn 0.215307 -0.923855 0.31644100000000003
vn -0.680735 0.532229 0.503321
vn -0.676427 0.698082 0.23479399999999995
vn -0.979365 -0.06480399999999999 0.191429
vn -0.906132 -0.308828 0.289051
vn -0.101259 -0.030462999999999938 0.994394
vn 0.308911 -0.711471 0.631176
vn 0.189686 0.637678 0.746583
vn 0.570314 0.725704 0.3848329999999999
vn -0.56058 0.811899 0.16300199999999995
vn 0.880352 0.404745 0.24730799999999997
vn -0.979365 -0.06480399999999999 0.191429
vn -0.101259 -0.030462999999999938 0.994394
vn 0.793407 -0.22065599999999996 0.567289
vn -0.101259 -0.030462999999999938 0.994394
vn 0.189686 0.637678 0.746583
vn 0.570314 0.725704 0.3848329999999999
vn 0.923446 -0.313216 0.22168200000000002
vn 0.880352 0.404745 0.24730799999999997
vn 0.215307 -0.923855 0.31644100000000003
vn 0.906218 -0.394999 0.15081200000000003
vn -0.092243 -0.971479 0.21844700000000006
vn -0.311621 -0.864886 0.39352700000000007
vn -0.057367 -0.672559 0.737817
vn -0.759573 -0.20971499999999998 0.615686
vn -0.935602 -0.22581599999999996 0.271395
vn -0.311621 -0.864886 0.39352700000000007
vn -0.631341 -0.739797 0.23261300000000004
vn -0.311621 -0.864886 0.39352700000000007
vn -0.970112 -0.182632 0.159774
vn -0.631341 -0.739797 0.23261300000000004
vn -0.928204 0.2797 0.24536999999999998
vn -0.900967 0.409915 0.14222699999999996
vn -0.793402 0.16672500000000004 0.58542
vn -0.724542 0.654834 0.21501599999999998
vn -0.721967 0.680096 0.12740599999999994
vn -0.637021 0.559656 0.530085
vn -0.121302 0.927891 0.35256799999999994
vn 0.144782 0.964723 0.21988199999999994
vn -0.253407 0.693285 0.674641
vn -0.05208 0.05277100000000006 0.997248
vn -0.057367 -0.672559 0.737817
vn 0.662399 -0.41086599999999995 0.626432
vn 0.753264 -0.593008 0.28448900000000005
vn -0.311621 -0.864886 0.39352700000000007
vn -0.631341 -0.739797 0.23261300000000004
vn 0.667038 -0.725469 0.16957600000000006
vn 0.978482 -0.138273 0.153145
vn 0.962394 -0.08938199999999999 0.256533
vn 0.922362 0.337705 0.18762599999999996
vn 0.806477 -0.048332999999999966 0.589286
vn 0.819396 0.473496 0.32309799999999994
vn 0.144782 0.964723 0.21988199999999994
vn -0.121302 0.927891 0.35256799999999994
vn 0.589276 0.42911800000000005 0.684552
vn -0.253407 0.693285 0.674641
vn -0.607721 -0.726985 0.31963700000000006
vn -0.377866 -0.652527 0.65683
vn -0.890502 -0.015429999999999972 0.454718
vn -0.983436 0.01789700000000001 0.180372
vn -0.607721 -0.726985 0.31963700000000006
vn -0.809217 -0.546365 0.21599300000000002
vn -0.607721 -0.726985 0.31963700000000006
vn -0.989223 0.07896500000000001 0.123295
vn -0.809217 -0.546365 0.21599300000000002
vn -0.841412 0.493422 0.22036499999999998
vn -0.784585 0.596754 0.16826099999999997
vn 0.191578 0.902624 0.3854449999999999
vn 0.561991 0.78495 0.26080499999999995
vn -0.050645 0.694676 0.717538
vn -0.795177 0.36928000000000005 0.480964
vn -0.113842 0.02447000000000006 0.993198
vn -0.377866 -0.652527 0.65683
vn 0.641303 -0.45350499999999994 0.618921
vn 0.635677 -0.703866 0.31699800000000006
vn -0.607721 -0.726985 0.31963700000000006
vn -0.809217 -0.546365 0.21599300000000002
vn 0.423543 -0.875102 0.23411100000000007
vn 0.986383 0.04186900000000001 0.159046
vn 0.963563 0.14132600000000003 0.227099
vn 0.561991 0.78495 0.26080499999999995
vn 0.191578 0.902624 0.3854449999999999
vn 0.831411 0.17781200000000003 0.52644
vn -0.113842 0.02447000000000006 0.993198
vn -0.050645 0.694676 0.717538
vn -0.113842 0.02447000000000006 0.993198
vn 0.965797 0.00028500000000001587 0.259301
vn 0.965797 0.00028500000000001587 0.2593
vn 0.965797 0.00028500000000001587 0.259301
vn 0.965797 0.00028500000000001587 0.259301
vn 0.252924 0.896567 0.36358899999999994
vn 0.252923 0.896567 0.36358899999999994
vn 0.252924 0.896567 0.36358899999999994
vn 0.252924 0.896567 0.36358899999999994
vn -0.8555 0.460071 0.23760299999999998
vn -0.8555 0.460071 0.23760199999999998
vn -0.8555 0.460071 0.23760299999999998
vn -0.8555 0.460071 0.23760299999999998
vn -0.923395 -0.24604899999999996 0.294621
vn -0.923396 -0.24604899999999996 0.294619
vn -0.923395 -0.24604899999999996 0.294621
vn -0.923395 -0.24604899999999996 0.294621
vn 0.585781 -0.756692 0.29030700000000004
vn 0.585781 -0.756692 0.29030700000000004
vn 0.585781 -0.756692 0.29030700000000004
vn 0.585781 -0.756692 0.29030700000000004
vn 0.990571 0.0002920000000000084 0.137003
vn 0.990571 0.0002920000000000084 0.137003
vn 0.990571 0.0002920000000000084 0.137003
vn 0.990571 0.0002920000000000084 0.137003
vn 0.266178 0.943554 0.19711599999999996
vn 0.266179 0.943554 0.19711399999999996
vn 0.266178 0.943554 0.19711599999999996
vn 0.266178 0.943554 0.19711599999999996
vn -0.873812 0.469918 0.12501899999999996
vn -0.873812 0.469919 0.12501699999999996
vn -0.873812 0.469918 0.12501899999999996
vn -0.873812 0.469918 0.12501899999999996
vn -0.954324 -0.25429 0.15685300000000002
vn -0.954323 -0.25429 0.15685700000000002
vn -0.954324 -0.25429 0.15685300000000002
vn -0.954324 -0.25429 0.15685300000000002
vn 0.604803 -0.781264 0.15440300000000007
vn 0.604803 -0.781263 0.15440600000000004
vn 0.604803 -0.781264 0.15440300000000007
vn 0.604803 -0.781264 0.15440300000000007
vn -0.293779 -0.955812 0.010875000000000058
vn -0.067678 -0.9659 0.24991500000000005
vn -0.884235 -0.418736 0.20685600000000004
vn -0.95941 -0.277483 0.05036400000000001
vn -0.293779 -0.955812 0.010875000000000058
vn -0.977051 -0.09294399999999998 0.191657
vn -0.982893 -0.152173 0.10375100000000001
vn -0.839207 -0.05124299999999996 0.541393
vn -0.91952 0.274781 0.281029
vn -0.868114 0.466363 0.16995099999999996
vn -0.217151 0.925717 0.30966599999999994
vn -0.024687 0.997077 0.07230399999999994
vn -0.269507 0.682819 0.679061
vn -0.779079 0.11451400000000005 0.616378
vn 0.07257 -0.11047399999999995 0.991226
vn -0.648583 -0.38950499999999993 0.653931
vn -0.067678 -0.9659 0.24991500000000005
vn -0.293779 -0.955812 0.010875000000000058
vn 0.395643 -0.915594 0.07178700000000006
vn 0.089796 -0.777542 0.622387
vn 0.374188 -0.908136 0.18781100000000006
vn 0.637035 -0.759405 0.13225200000000006
vn 0.318445 -0.808154 0.49546000000000007
vn 0.792612 -0.562655 0.23491500000000004
vn 0.988513 -0.101877 0.111642
vn 0.737829 -0.3624069999999999 0.569447
vn 0.965551 -0.177252 0.190507
vn 0.984372 -0.14818 0.09515500000000002
vn 0.840991 -0.19521099999999997 0.504605
vn 0.981678 -0.045513999999999985 0.185031
vn 0.825025 0.564708 0.020935999999999965
vn 0.825639 0.014105000000000034 0.564022
vn 0.696338 0.682308 0.22263899999999995
vn -0.024687 0.997077 0.07230399999999994
vn -0.217151 0.925717 0.30966599999999994
vn 0.46684 0.575688 0.6713
vn -0.269507 0.682819 0.679061
vn -0.468128 0.883594 0.010874999999999945
vn -0.635139 0.73085 0.24991399999999994
vn 0.329157 0.921339 0.20685499999999996
vn 0.482195 0.874615 0.050364999999999945
vn -0.468128 0.883594 0.010874999999999945
vn 0.625159 0.756601 0.19165699999999994
vn 0.587408 0.802613 0.10375099999999994
vn 0.557174 0.629643 0.541393
vn 0.844499 0.4559 0.2810289999999999
vn 0.943618 0.284082 0.16995099999999996
vn 0.808129 -0.501032 0.3096670000000001
vn 0.722496 -0.687584 0.07230500000000004
vn 0.673396 -0.29225499999999993 0.679061
vn 0.631866 0.46991900000000003 0.616378
vn -0.129432 0.02680200000000006 0.991226
vn 0.183195 0.73404 0.653931
vn -0.635139 0.73085 0.24991399999999994
vn -0.468128 0.883594 0.010874999999999945
vn -0.927185 0.367661 0.07178699999999998
vn -0.613301 0.4863100000000001 0.622386
vn -0.90674 0.377557 0.18781099999999998
vn -0.987432 0.08652800000000001 0.132252
vn -0.796625 0.34627600000000003 0.49546
vn -0.958319 -0.16260499999999997 0.234915
vn -0.771022 -0.626946 0.11164100000000005
vn -0.777984 -0.26546299999999995 0.569447
vn -0.808084 -0.557412 0.19050800000000004
vn -0.800835 -0.591278 0.09515600000000005
vn -0.732706 -0.45663499999999996 0.504605
vn -0.726334 -0.661968 0.18503100000000003
vn -0.184072 -0.98269 0.02093700000000006
vn -0.573841 -0.593789 0.564022
vn -0.009921 -0.97485 0.22263900000000006
vn 0.722496 -0.687584 0.07230500000000004
vn 0.808129 -0.501032 0.3096670000000001
vn 0.076967 -0.737179 0.6713
vn 0.673396 -0.29225499999999993 0.679061
vn -0.293779 -0.955812 0.010875000000000058
vn -0.067678 -0.9659 0.24991500000000005
vn -0.884235 -0.418736 0.20685600000000004
vn -0.95941 -0.277483 0.05036400000000001
vn -0.293779 -0.955812 0.010875000000000058
vn -0.977051 -0.09294399999999998 0.191657
vn -0.982893 -0.152173 0.10375100000000001
vn -0.839207 -0.05124299999999996 0.541393
vn -0.91952 0.274781 0.281029
vn -0.868115 0.466362 0.16995099999999996
vn -0.217151 0.925717 0.30966699999999997
vn -0.024687 0.997077 0.07230399999999994
vn -0.269507 0.682819 0.679061
vn -0.779079 0.11451400000000005 0.616378
vn 0.07257 -0.11047399999999995 0.991226
vn -0.648583 -0.38950499999999993 0.653931
vn -0.067678 -0.9659 0.24991500000000005
vn -0.293779 -0.955812 0.010875000000000058
vn 0.395643 -0.915594 0.07178700000000006
vn 0.089796 -0.777542 0.622387
vn 0.374188 -0.908135 0.18781100000000006
vn 0.637035 -0.759405 0.13225200000000006
vn 0.318445 -0.808154 0.49546000000000007
vn 0.792612 -0.562655 0.23491500000000004
vn 0.988513 -0.101877 0.111642
vn 0.737829 -0.3624069999999999 0.569447
vn 0.965551 -0.177252 0.190507
vn 0.984372 -0.14818 0.09515500000000002
vn 0.840991 -0.19521099999999997 0.504605
vn 0.981678 -0.045513999999999985 0.185031
vn 0.825025 0.564708 0.020935999999999965
vn 0.825639 0.014105000000000034 0.564022
vn 0.696338 0.682308 0.22263899999999995
vn -0.024687 0.997077 0.07230399999999994
vn -0.217151 0.925717 0.30966699999999997
vn 0.46684 0.575688 0.6713
vn -0.269507 0.682819 0.679061
vn -0.293779 -0.955812 0.010875000000000058
vn -0.067678 -0.9659 0.24991500000000005
vn -0.884235 -0.418736 0.20685600000000004
vn -0.95941 -0.277483 0.05036400000000001
vn -0.293779 -0.955812 0.010875000000000058
vn -0.977051 -0.09294399999999998 0.191657
vn -0.982893 -0.152173 0.10375100000000001
vn -0.839207 -0.05124299999999996 0.541393
vn -0.91952 0.274781 0.281029
vn -0.868115 0.466362 0.16995099999999996
vn -0.217151 0.925717 0.30966699999999997
vn -0.024687 0.997077 0.07230399999999994
vn -0.269507 0.682819 0.679061
vn -0.779079 0.11451400000000005 0.616378
vn 0.07257 -0.11047399999999995 0.991226
vn -0.648583 -0.38950499999999993 0.653931
vn -0.067678 -0.9659 0.24991500000000005
vn -0.293779 -0.955812 0.010875000000000058
vn 0.395643 -0.915594 0.07178700000000006
vn 0.089796 -0.777542 0.622387
vn 0.374188 -0.908135 0.18781100000000006
vn 0.637035 -0.759405 0.13225200000000006
vn 0.318445 -0.808154 0.49546000000000007
vn 0.792612 -0.562655 0.23491500000000004
vn 0.988513 -0.101877 0.111642
vn 0.737829 -0.3624069999999999 0.569447
vn 0.965551 -0.177252 0.190507
vn 0.984372 -0.14818 0.09515500000000002
vn 0.840991 -0.19521099999999997 0.504605
vn 0.981678 -0.045513999999999985 0.185031
vn 0.825025 0.564708 0.020935999999999965
vn 0.825639 0.014105000000000034 0.564022
vn 0.696338 0.682308 0.22263899999999995
vn -0.024687 0.997077 0.07230399999999994
vn -0.217151 0.925717 0.30966699999999997
vn 0.46684 0.575688 0.6713
vn -0.269507 0.682819 0.679061
vn -0.293779 -0.955812 0.010875000000000058
vn -0.067678 -0.9659 0.24991500000000005
vn -0.884235 -0.418736 0.20685600000000004
vn -0.95941 -0.277483 0.05036400000000001
vn -0.293779 -0.955812 0.010875000000000058
vn -0.977051 -0.09294399999999998 0.191657
vn -0.982893 -0.152173 0.10375100000000001
vn -0.839207 -0.05124299999999996 0.541393
vn -0.91952 0.274781 0.281029
vn -0.868114 0.466363 0.16995099999999996
vn -0.217151 0.925717 0.30966599999999994
vn -0.024687 0.997077 0.07230399999999994
vn -0.269507 0.682819 0.679061
vn -0.779079 0.11451400000000005 0.616378
vn 0.07257 -0.11047399999999995 0.991226
vn -0.648583 -0.38950499999999993 0.653931
vn -0.067678 -0.9659 0.24991500000000005
vn -0.293779 -0.955812 0.010875000000000058
vn 0.395643 -0.915594 0.07178700000000006
vn 0.089796 -0.777542 0.622387
vn 0.374188 -0.908135 0.18781100000000006
vn 0.637035 -0.759405 0.13225200000000006
vn 0.318445 -0.808154 0.49546000000000007
vn 0.792612 -0.562655 0.23491500000000004
vn 0.988513 -0.101877 0.111642
vn 0.737829 -0.3624069999999999 0.569447
vn 0.965551 -0.177252 0.190507
vn 0.984372 -0.14818 0.09515500000000002
vn 0.840991 -0.19521099999999997 0.504605
vn 0.981678 -0.045513999999999985 0.185031
vn 0.825025 0.564708 0.020935999999999965
vn 0.825639 0.014105000000000034 0.564022
vn 0.696338 0.682308 0.22263899999999995
vn -0.024687 0.997077 0.07230399999999994
vn -0.217151 0.925717 0.30966599999999994
vn 0.46684 0.575688 0.6713
vn -0.269507 0.682819 0.679061
vn -0.199086 -0.95655 0.21301700000000007
vn 0.064543 -0.9524 0.29794000000000004
vn -0.915191 -0.278213 0.291587
vn -0.980669 -0.04775899999999999 0.189758
vn -0.199086 -0.95655 0.21301700000000007
vn -0.676427 0.698082 0.23479399999999995
vn -0.56058 0.811899 0.16300299999999995
vn 0.570314 0.725704 0.3848329999999999
vn 0.880353 0.404744 0.24730899999999997
vn 0.225909 0.655909 0.720242
vn -0.65442 0.533959 0.535372
vn -0.010093 -0.044720999999999934 0.998949
vn -0.700926 -0.33123199999999997 0.631655
vn 0.064543 -0.9524 0.29794000000000004
vn 0.223463 -0.768847 0.599114
vn 0.064543 -0.9524 0.29794000000000004
vn -0.010093 -0.044720999999999934 0.998949
vn 0.791677 -0.32042599999999993 0.520168
vn -0.010093 -0.044720999999999934 0.998949
vn 0.225909 0.655909 0.720242
vn 0.570314 0.725704 0.3848329999999999
vn 0.872286 -0.438535 0.21634300000000004
vn 0.880353 0.404744 0.24730899999999997
vn 0.064543 -0.9524 0.29794000000000004
vn 0.81805 -0.556716 0.14443600000000004
vn -0.199086 -0.95655 0.21301700000000007
vn -0.437293 -0.886855 0.14920800000000006
vn -0.185164 -0.906043 0.38052700000000006
vn -0.90616 -0.23225699999999996 0.353455
vn -0.988191 -0.06760599999999999 0.137504
vn -0.437293 -0.886855 0.14920800000000006
vn -0.771667 0.555835 0.30915599999999993
vn -0.716884 0.687207 0.11757199999999995
vn -0.616433 -0.23943699999999996 0.75012
vn -0.185164 -0.906043 0.38052700000000006
vn -0.246062 0.929703 0.27405599999999997
vn -0.150929 0.983104 0.10357499999999994
vn -0.605088 0.35884400000000005 0.710703
vn 0.303204 0.912884 0.27332999999999996
vn 0.407044 0.907444 0.10421299999999994
vn 0.187233 0.73064 0.656589
vn -0.241442 0.706988 0.664736
vn 0.046658 0.07112300000000006 0.996376
vn -0.015478 -0.642447 0.766174
vn -0.185164 -0.906043 0.38052700000000006
vn -0.437293 -0.886855 0.14920800000000006
vn 0.584541 -0.802526 0.11942900000000005
vn 0.652882 -0.692119 0.30776000000000003
vn 0.953378 -0.280271 0.11188500000000001
vn 0.538427 -0.47807599999999995 0.693931
vn 0.940722 -0.17125999999999997 0.292765
vn 0.919652 0.374872 0.11709899999999997
vn 0.723913 -0.07969199999999996 0.685273
vn 0.813592 0.495211 0.30468699999999993
vn 0.407044 0.907444 0.10421299999999994
vn 0.303204 0.912884 0.27332999999999996
vn 0.570591 0.44105400000000006 0.692746
vn 0.187233 0.73064 0.656589
vn 0.180421 0.96308 0.19981399999999994
vn 0.351975 0.935826 0.01855699999999994
vn -0.59285 0.802752 0.06416299999999994
vn -0.714873 0.64136 0.2785929999999999
vn 0.055097 0.770309 0.635286
vn -0.9817 -0.11595499999999999 0.151063
vn -0.636612 0.42394800000000005 0.6442
vn -0.919169 -0.302746 0.251939
vn -0.718682 -0.68922 0.09203900000000004
vn 0.134694 -0.054163999999999934 0.989406
vn -0.74984 -0.639142 0.17099300000000003
vn -0.627018 -0.777724 0.04465600000000005
vn -0.729564 -0.36203699999999994 0.580229
vn -0.486426 -0.853812 0.18545700000000007
vn 0.307607 -0.951465 0.009637000000000059
vn -0.675536 -0.537826 0.504374
vn 0.499126 -0.836919 0.22458900000000007
vn 0.849722 -0.523375 0.06365500000000003
vn -0.320408 -0.718544 0.617279
vn 0.830586 -0.531165 0.16730500000000004
vn 0.95924 -0.257049 0.11741200000000002
vn 0.533696 -0.608759 0.58701
vn 0.977747 -0.007137999999999987 0.209665
vn 0.869346 0.484175 0.09905399999999998
vn 0.741149 -0.4899919999999999 0.45891800000000005
vn 0.895985 0.410371 0.16972299999999998
vn 0.892265 0.443553 0.08440099999999998
vn 0.837388 0.12757300000000002 0.531513
vn 0.83339 0.527438 0.16513799999999998
vn 0.351975 0.935826 0.01855699999999994
vn 0.819613 0.33077300000000004 0.467785
vn 0.180421 0.96308 0.19981399999999994
vn 0.688342 0.49897100000000005 0.52651
vn 0.055097 0.770309 0.635286
vn 0.634555 0.675167 0.37614999999999993
vn 0.790787 0.553303 0.26174699999999995
vn -0.187748 0.945634 0.26557099999999995
vn -0.409537 0.837707 0.36128499999999997
vn 0.410597 0.578986 0.704404
vn -0.939466 0.291557 0.17999499999999996
vn -0.458263 0.592126 0.662859
vn -0.946504 0.18862400000000004 0.261822
vn -0.856851 -0.447703 0.255672
vn -0.016634 0.01269800000000006 0.999781
vn -0.809255 0.10512800000000004 0.577975
vn -0.856851 -0.447703 0.255672
vn -0.70052 -0.604542 0.37921200000000005
vn -0.458831 -0.525357 0.716571
vn -0.856851 -0.447703 0.255672
vn 0.1525 -0.948455 0.2778070000000001
vn 0.374431 -0.84931 0.37212100000000004
vn 0.939848 -0.280621 0.19477300000000003
vn 0.433695 -0.606745 0.66616
vn 0.947177 -0.13982499999999998 0.288624
vn 0.790787 0.553303 0.26174699999999995
vn 0.634555 0.675167 0.37614999999999993
vn 0.785077 -0.04633599999999997 0.617663
vn 0.410597 0.578986 0.704404
vn 0.179051 0.958317 0.22263999999999995
vn 0.351918 0.935797 0.02093599999999994
vn -0.592123 0.802598 0.07230499999999994
vn -0.708849 0.63375 0.30966699999999997
vn 0.052212 0.739345 0.6713
vn -0.978612 -0.11590799999999998 0.16995
vn -0.612416 0.4047490000000001 0.679062
vn -0.910835 -0.302328 0.28103
vn -0.717856 -0.688417 0.10375200000000004
vn 0.122812 -0.048870999999999935 0.991226
vn -0.747043 -0.636549 0.19165700000000002
vn -0.626745 -0.777595 0.05036400000000005
vn -0.703866 -0.35305699999999995 0.616379
vn -0.484146 -0.850184 0.20685500000000007
vn 0.307582 -0.951459 0.01087600000000006
vn -0.658046 -0.523325 0.541394
vn 0.498578 -0.830038 0.24991400000000005
vn 0.849255 -0.52308 0.07178900000000003
vn -0.307878 -0.691076 0.653931
vn 0.827402 -0.529276 0.18781100000000003
vn 0.957405 -0.25668 0.13225400000000004
vn 0.519537 -0.58542 0.622386
vn 0.971995 -0.0062749999999999855 0.234916
vn 0.868176 0.483536 0.11164199999999998
vn 0.724393 -0.47934799999999994 0.49546000000000007
vn 0.892601 0.408621 0.19050699999999998
vn 0.891343 0.443231 0.09515399999999997
vn 0.812262 0.12633400000000003 0.569447
vn 0.830249 0.525784 0.18503099999999997
vn 0.351918 0.935797 0.02093599999999994
vn 0.800868 0.32246500000000006 0.504605
vn 0.179051 0.958317 0.22263999999999995
vn 0.668233 0.4851210000000001 0.564023
vn 0.052212 0.739345 0.6713
vn 0.634555 0.675167 0.37614899999999996
vn 0.790787 0.553303 0.26174699999999995
vn -0.187748 0.945634 0.26557099999999995
vn -0.409537 0.837707 0.36128499999999997
vn 0.410597 0.578986 0.704404
vn -0.939466 0.291557 0.17999499999999996
vn -0.458263 0.592126 0.662859
vn -0.946504 0.18862400000000004 0.261822
vn -0.856851 -0.447703 0.255672
vn -0.016634 0.01269800000000006 0.999781
vn -0.809255 0.10512800000000004 0.577975
vn -0.856851 -0.447703 0.255672
vn -0.70052 -0.604542 0.37921200000000005
vn -0.458831 -0.525357 0.716571
vn -0.856851 -0.447703 0.255672
vn 0.1525 -0.948455 0.2778070000000001
vn 0.374431 -0.84931 0.37212100000000004
vn 0.939848 -0.280621 0.19477300000000003
vn 0.433696 -0.606745 0.66616
vn 0.947177 -0.13982499999999998 0.288624
vn 0.790787 0.553303 0.26174699999999995
vn 0.634555 0.675167 0.37614899999999996
vn 0.785076 -0.04633599999999997 0.617663
vn 0.410597 0.578986 0.704404
vn 0.180421 0.96308 0.19981399999999994
vn 0.351975 0.935826 0.01855599999999994
vn -0.59285 0.802752 0.06416299999999994
vn -0.714873 0.64136 0.2785929999999999
vn 0.055097 0.770309 0.635286
vn -0.9817 -0.11595499999999999 0.151063
vn -0.636612 0.42394800000000005 0.6442
vn -0.919169 -0.302746 0.251939
vn -0.718682 -0.68922 0.09204000000000004
vn 0.134694 -0.054163999999999934 0.989406
vn -0.74984 -0.639142 0.17099300000000003
vn -0.627018 -0.777724 0.04465600000000005
vn -0.729564 -0.36203699999999994 0.580229
vn -0.486426 -0.853812 0.18545800000000007
vn 0.307607 -0.951465 0.00963800000000006
vn -0.675536 -0.537826 0.504374
vn 0.499126 -0.836919 0.22458900000000007
vn 0.849722 -0.523375 0.06365500000000003
vn -0.320408 -0.718544 0.617279
vn 0.830586 -0.531165 0.16730500000000004
vn 0.95924 -0.257048 0.11741200000000002
vn 0.533696 -0.608759 0.58701
vn 0.977747 -0.007136999999999987 0.209665
vn 0.869346 0.484176 0.09905399999999998
vn 0.741149 -0.4899919999999999 0.45891800000000005
vn 0.895985 0.410371 0.16972199999999998
vn 0.892265 0.443553 0.08439999999999998
vn 0.837388 0.12757300000000002 0.531513
vn 0.83339 0.527438 0.16513799999999998
vn 0.351975 0.935826 0.01855599999999994
vn 0.819614 0.33077300000000004 0.467785
vn 0.180421 0.96308 0.19981399999999994
vn 0.688342 0.49897100000000005 0.52651
vn 0.055097 0.770309 0.635286
g Material #1
f 1/1/1 2/2/2 3/3/3
f 4/4/4 5/5/5 6/6/6
f 7/7/7 8/8/8 9/9/9
f 10/10/10 11/11/11 12/12/12
f 13/13/13 14/14/14 15/15/15
f 16/16/16 17/17/17 18/18/18
f 18/18/18 19/19/19 20/20/20
f 21/21/21 22/22/22 19/19/19
f 19/19/19 23/23/23 24/24/24
f 23/23/23 19/19/19 25/25/25
f 25/25/25 26/26/26 23/23/23
f 19/19/19 18/18/18 27/27/27
f 27/27/27 25/25/25 19/19/19
f 26/26/26 25/25/25 28/28/28
f 28/28/28 29/29/29 26/26/26
f 25/25/25 27/27/27 30/30/30
f 30/30/30 28/28/28 25/25/25
f 31/31/31 32/32/32 29/29/29
f 29/29/29 28/28/28 31/31/31
f 33/33/33 31/31/31 28/28/28
f 28/28/28 30/30/30 33/33/33
f 34/34/34 33/33/33 30/30/30
f 34/34/34 30/30/30 27/27/27
f 34/34/34 27/27/27 18/18/18
f 34/34/34 18/18/18 35/35/35
f 34/34/34 35/35/35 36/36/36
f 37/37/37 36/36/36 35/35/35
f 35/35/35 38/38/38 37/37/37
f 38/38/38 39/39/39 40/40/40
f 40/40/40 37/37/37 38/38/38
f 37/37/37 40/40/40 41/41/41
f 41/41/41 42/42/42 37/37/37
f 36/36/36 37/37/37 42/42/42
f 42/42/42 41/41/41 43/43/43
f 42/42/42 44/44/44 36/36/36
f 34/34/34 36/36/36 44/44/44
f 43/43/43 45/45/45 42/42/42
f 44/44/44 42/42/42 45/45/45
f 45/45/45 43/43/43 46/46/46
f 46/46/46 47/47/47 45/45/45
f 34/34/34 44/44/44 48/48/48
f 45/45/45 48/48/48 44/44/44
f 48/48/48 45/45/45 47/47/47
f 34/34/34 48/48/48 49/49/49
f 47/47/47 49/49/49 48/48/48
f 50/50/50 51/51/51 52/52/52
f 52/52/52 53/53/53 54/54/54
f 53/53/53 55/55/55 56/56/56
f 57/57/57 58/58/58 53/53/53
f 53/53/53 52/52/52 59/59/59
f 59/59/59 60/60/60 53/53/53
f 61/61/61 62/62/62 60/60/60
f 63/63/63 59/59/59 52/52/52
f 63/63/63 52/52/52 64/64/64
f 63/63/63 65/65/65 59/59/59
f 60/60/60 59/59/59 65/65/65
f 65/65/65 66/66/66 60/60/60
f 67/67/67 60/60/60 66/66/66
f 66/66/66 68/68/68 67/67/67
f 60/60/60 67/67/67 69/69/69
f 70/70/70 64/64/64 71/71/71
f 72/72/72 71/71/71 73/73/73
f 74/74/74 73/73/73 71/71/71
f 75/75/75 71/71/71 64/64/64
f 71/71/71 75/75/75 74/74/74
f 76/76/76 74/74/74 75/75/75
f 64/64/64 77/77/77 75/75/75
f 75/75/75 78/78/78 76/76/76
f 78/78/78 75/75/75 77/77/77
f 77/77/77 79/79/79 78/78/78
f 80/80/80 81/81/81 82/82/82
f 82/82/82 83/83/83 84/84/84
f 85/85/85 86/86/86 83/83/83
f 83/83/83 87/87/87 88/88/88
f 87/87/87 83/83/83 89/89/89
f 89/89/89 90/90/90 87/87/87
f 83/83/83 82/82/82 91/91/91
f 91/91/91 89/89/89 83/83/83
f 90/90/90 89/89/89 92/92/92
f 92/92/92 93/93/93 90/90/90
f 89/89/89 91/91/91 94/94/94
f 94/94/94 92/92/92 89/89/89
f 95/95/95 96/96/96 93/93/93
f 93/93/93 92/92/92 95/95/95
f 97/97/97 95/95/95 92/92/92
f 92/92/92 94/94/94 97/97/97
f 98/98/98 97/97/97 94/94/94
f 98/98/98 94/94/94 91/91/91
f 98/98/98 91/91/91 82/82/82
f 98/98/98 82/82/82 99/99/99
f 98/98/98 99/99/99 100/100/100
f 101/101/101 100/100/100 99/99/99
f 99/99/99 102/102/102 101/101/101
f 102/102/102 103/103/103 104/104/104
f 104/104/104 101/101/101 102/102/102
f 101/101/101 104/104/104 105/105/105
f 105/105/105 106/106/106 101/101/101
f 100/100/100 101/101/101 106/106/106
f 106/106/106 105/105/105 107/107/107
f 106/106/106 108/108/108 100/100/100
f 98/98/98 100/100/100 108/108/108
f 107/107/107 109/109/109 106/106/106
f 108/108/108 106/106/106 109/109/109
f 109/109/109 107/107/107 110/110/110
f 110/110/110 111/111/111 109/109/109
f 98/98/98 108/108/108 112/112/112
f 109/109/109 112/112/112 108/108/108
f 112/112/112 109/109/109 111/111/111
f 98/98/98 112/112/112 113/113/113
f 111/111/111 113/113/113 112/112/112
f 114/114/114 115/115/115 116/116/116
f 116/116/116 117/117/117 118/118/118
f 119/119/119 120/120/120 117/117/117
f 117/117/117 121/121/121 122/122/122
f 121/121/121 117/117/117 123/123/123
f 123/123/123 124/124/124 121/121/121
f 125/125/125 126/126/126 124/124/124
f 124/124/124 123/123/123 125/125/125
f 127/127/127 125/125/125 123/123/123
f 128/128/128 123/123/123 117/117/117
f 123/123/123 128/128/128 127/127/127
f 117/117/117 116/116/116 128/128/128
f 129/129/129 127/127/127 128/128/128
f 129/129/129 128/128/128 116/116/116
f 129/129/129 116/116/116 130/130/130
f 129/129/129 130/130/130 131/131/131
f 132/132/132 131/131/131 130/130/130
f 130/130/130 133/133/133 132/132/132
f 133/133/133 134/134/134 135/135/135
f 135/135/135 132/132/132 133/133/133
f 132/132/132 135/135/135 136/136/136
f 136/136/136 137/137/137 132/132/132
f 131/131/131 132/132/132 137/137/137
f 137/137/137 136/136/136 138/138/138
f 138/138/138 139/139/139 137/137/137
f 137/137/137 140/140/140 131/131/131
f 140/140/140 137/137/137 139/139/139
f 141/141/141 131/131/131 140/140/140
f 139/139/139 142/142/142 140/140/140
f 143/143/143 140/140/140 142/142/142
f 144/144/144 145/145/145 146/146/146
f 146/146/146 147/147/147 144/144/144
f 148/148/148 149/149/149 150/150/150
f 150/150/150 151/151/151 148/148/148
f 152/152/152 153/153/153 154/154/154
f 154/154/154 155/155/155 152/152/152
f 156/156/156 157/157/157 158/158/158
f 158/158/158 159/159/159 156/156/156
f 160/160/160 161/161/161 162/162/162
f 162/162/162 163/163/163 160/160/160
f 164/164/164 165/165/165 166/166/166
f 166/166/166 167/167/167 164/164/164
f 168/168/168 169/169/169 170/170/170
f 170/170/170 171/171/171 168/168/168
f 172/172/172 173/173/173 174/174/174
f 174/174/174 175/175/175 172/172/172
f 176/176/176 177/177/177 178/178/178
f 178/178/178 179/179/179 176/176/176
f 180/180/180 181/181/181 182/182/182
f 182/182/182 183/183/183 180/180/180
f 184/184/184 185/185/185 186/186/186
f 186/186/186 187/187/187 188/188/188
f 187/187/187 186/186/186 189/189/189
f 189/189/189 190/190/190 187/187/187
f 191/191/191 189/189/189 186/186/186
f 190/190/190 189/189/189 192/192/192
f 192/192/192 193/193/193 190/190/190
f 194/194/194 195/195/195 193/193/193
f 193/193/193 192/192/192 194/194/194
f 196/196/196 194/194/194 192/192/192
f 197/197/197 192/192/192 189/189/189
f 192/192/192 197/197/197 196/196/196
f 189/189/189 191/191/191 197/197/197
f 198/198/198 196/196/196 197/197/197
f 198/198/198 197/197/197 191/191/191
f 186/186/186 199/199/199 191/191/191
f 198/198/198 191/191/191 199/199/199
f 199/199/199 186/186/186 200/200/200
f 200/200/200 201/201/201 202/202/202
f 200/200/200 203/203/203 199/199/199
f 198/198/198 199/199/199 203/203/203
f 202/202/202 204/204/204 200/200/200
f 203/203/203 200/200/200 204/204/204
f 204/204/204 202/202/202 205/205/205
f 204/204/204 206/206/206 203/203/203
f 198/198/198 203/203/203 206/206/206
f 205/205/205 207/207/207 204/204/204
f 206/206/206 204/204/204 207/207/207
f 207/207/207 205/205/205 208/208/208
f 207/207/207 209/209/209 206/206/206
f 198/198/198 206/206/206 209/209/209
f 208/208/208 210/210/210 207/207/207
f 209/209/209 207/207/207 210/210/210
f 210/210/210 208/208/208 211/211/211
f 210/210/210 212/212/212 209/209/209
f 198/198/198 209/209/209 212/212/212
f 211/211/211 213/213/213 210/210/210
f 212/212/212 210/210/210 213/213/213
f 213/213/213 211/211/211 214/214/214
f 198/198/198 212/212/212 215/215/215
f 213/213/213 215/215/215 212/212/212
f 214/214/214 216/216/216 213/213/213
f 215/215/215 213/213/213 216/216/216
f 216/216/216 214/214/214 217/217/217
f 217/217/217 218/218/218 216/216/216
f 198/198/198 215/215/215 219/219/219
f 216/216/216 219/219/219 215/215/215
f 219/219/219 216/216/216 218/218/218
f 198/198/198 219/219/219 220/220/220
f 218/218/218 220/220/220 219/219/219
f 221/221/221 222/222/222 223/223/223
f 223/223/223 224/224/224 225/225/225
f 224/224/224 223/223/223 226/226/226
f 226/226/226 227/227/227 224/224/224
f 228/228/228 226/226/226 223/223/223
f 227/227/227 226/226/226 229/229/229
f 229/229/229 230/230/230 227/227/227
f 231/231/231 232/232/232 230/230/230
f 230/230/230 229/229/229 231/231/231
f 233/233/233 231/231/231 229/229/229
f 234/234/234 229/229/229 226/226/226
f 229/229/229 234/234/234 233/233/233
f 226/226/226 228/228/228 234/234/234
f 235/235/235 233/233/233 234/234/234
f 235/235/235 234/234/234 228/228/228
f 223/223/223 236/236/236 228/228/228
f 235/235/235 228/228/228 236/236/236
f 236/236/236 223/223/223 237/237/237
f 237/237/237 238/238/238 239/239/239
f 237/237/237 240/240/240 236/236/236
f 235/235/235 236/236/236 240/240/240
f 239/239/239 241/241/241 237/237/237
f 240/240/240 237/237/237 241/241/241
f 241/241/241 239/239/239 242/242/242
f 241/241/241 243/243/243 240/240/240
f 235/235/235 240/240/240 243/243/243
f 242/242/242 244/244/244 241/241/241
f 243/243/243 241/241/241 244/244/244
f 244/244/244 242/242/242 245/245/245
f 244/244/244 246/246/246 243/243/243
f 235/235/235 243/243/243 246/246/246
f 245/245/245 247/247/247 244/244/244
f 246/246/246 244/244/244 247/247/247
f 247/247/247 245/245/245 248/248/248
f 247/247/247 249/249/249 246/246/246
f 235/235/235 246/246/246 249/249/249
f 248/248/248 250/250/250 247/247/247
f 249/249/249 247/247/247 250/250/250
f 250/250/250 248/248/248 251/251/251
f 235/235/235 249/249/249 252/252/252
f 250/250/250 252/252/252 249/249/249
f 251/251/251 253/253/253 250/250/250
f 252/252/252 250/250/250 253/253/253
f 253/253/253 251/251/251 254/254/254
f 254/254/254 255/255/255 253/253/253
f 235/235/235 252/252/252 256/256/256
f 253/253/253 256/256/256 252/252/252
f 256/256/256 253/253/253 255/255/255
f 235/235/235 256/256/256 257/257/257
f 255/255/255 257/257/257 256/256/256
f 258/258/258 259/259/259 260/260/260
f 260/260/260 261/261/261 262/262/262
f 261/261/261 260/260/260 263/263/263
f 263/263/263 264/264/264 261/261/261
f 265/265/265 263/263/263 260/260/260
f 264/264/264 263/263/263 266/266/266
f 266/266/266 267/267/267 264/264/264
f 268/268/268 269/269/269 267/267/267
f 267/267/267 266/266/266 268/268/268
f 270/270/270 268/268/268 266/266/266
f 271/271/271 266/266/266 263/263/263
f 266/266/266 271/271/271 270/270/270
f 263/263/263 265/265/265 271/271/271
f 272/272/272 270/270/270 271/271/271
f 272/272/272 271/271/271 265/265/265
f 260/260/260 273/273/273 265/265/265
f 272/272/272 265/265/265 273/273/273
f 273/273/273 260/260/260 274/274/274
f 274/274/274 275/275/275 276/276/276
f 274/274/274 277/277/277 273/273/273
f 272/272/272 273/273/273 277/277/277
f 276/276/276 278/278/278 274/274/274
f 277/277/277 274/274/274 278/278/278
f 278/278/278 276/276/276 279/279/279
f 278/278/278 280/280/280 277/277/277
f 272/272/272 277/277/277 280/280/280
f 279/279/279 281/281/281 278/278/278
f 280/280/280 278/278/278 281/281/281
f 281/281/281 279/279/279 282/282/282
f 281/281/281 283/283/283 280/280/280
f 272/272/272 280/280/280 283/283/283
f 282/282/282 284/284/284 281/281/281
f 283/283/283 281/281/281 284/284/284
f 284/284/284 282/282/282 285/285/285
f 284/284/284 286/286/286 283/283/283
f 272/272/272 283/283/283 286/286/286
f 285/285/285 287/287/287 284/284/284
f 286/286/286 284/284/284 287/287/287
f 287/287/287 285/285/285 288/288/288
f 272/272/272 286/286/286 289/289/289
f 287/287/287 289/289/289 286/286/286
f 288/288/288 290/290/290 287/287/287
f 289/289/289 287/287/287 290/290/290
f 290/290/290 288/288/288 291/291/291
f 291/291/291 292/292/292 290/290/290
f 272/272/272 289/289/289 293/293/293
f 290/290/290 293/293/293 289/289/289
f 293/293/293 290/290/290 292/292/292
f 272/272/272 293/293/293 294/294/294
f 292/292/292 294/294/294 293/293/293
f 295/295/295 296/296/296 297/297/297
f 297/297/297 298/298/298 299/299/299
f 298/298/298 297/297/297 300/300/300
f 300/300/300 301/301/301 298/298/298
f 302/302/302 300/300/300 297/297/297
f 301/301/301 300/300/300 303/303/303
f 303/303/303 304/304/304 301/301/301
f 305/305/305 306/306/306 304/304/304
f 304/304/304 303/303/303 305/305/305
f 307/307/307 305/305/305 303/303/303
f 308/308/308 303/303/303 300/300/300
f 303/303/303 308/308/308 307/307/307
f 300/300/300 302/302/302 308/308/308
f 309/309/309 307/307/307 308/308/308
f 309/309/309 308/308/308 302/302/302
f 297/297/297 310/310/310 302/302/302
f 309/309/309 302/302/302 310/310/310
f 310/310/310 297/297/297 311/311/311
f 311/311/311 312/312/312 313/313/313
f 311/311/311 314/314/314 310/310/310
f 309/309/309 310/310/310 314/314/314
f 313/313/313 315/315/315 311/311/311
f 314/314/314 311/311/311 315/315/315
f 315/315/315 313/313/313 316/316/316
f 315/315/315 317/317/317 314/314/314
f 309/309/309 314/314/314 317/317/317
f 316/316/316 318/318/318 315/315/315
f 317/317/317 315/315/315 318/318/318
f 318/318/318 316/316/316 319/319/319
f 318/318/318 320/320/320 317/317/317
f 309/309/309 317/317/317 320/320/320
f 319/319/319 321/321/321 318/318/318
f 320/320/320 318/318/318 321/321/321
f 321/321/321 319/319/319 322/322/322
f 321/321/321 323/323/323 320/320/320
f 309/309/309 320/320/320 323/323/323
f 322/322/322 324/324/324 321/321/321
f 323/323/323 321/321/321 324/324/324
f 324/324/324 322/322/322 325/325/325
f 309/309/309 323/323/323 326/326/326
f 324/324/324 326/326/326 323/323/323
f 325/325/325 327/327/327 324/324/324
f 326/326/326 324/324/324 327/327/327
f 327/327/327 325/325/325 328/328/328
f 328/328/328 329/329/329 327/327/327
f 309/309/309 326/326/326 330/330/330
f 327/327/327 330/330/330 326/326/326
f 330/330/330 327/327/327 329/329/329
f 309/309/309 330/330/330 331/331/331
f 329/329/329 331/331/331 330/330/330
f 332/332/332 333/333/333 334/334/334
f 334/334/334 335/335/335 336/336/336
f 335/335/335 334/334/334 337/337/337
f 337/337/337 338/338/338 335/335/335
f 339/339/339 337/337/337 334/334/334
f 338/338/338 337/337/337 340/340/340
f 340/340/340 341/341/341 338/338/338
f 342/342/342 343/343/343 341/341/341
f 341/341/341 340/340/340 342/342/342
f 344/344/344 342/342/342 340/340/340
f 345/345/345 340/340/340 337/337/337
f 340/340/340 345/345/345 344/344/344
f 337/337/337 339/339/339 345/345/345
f 346/346/346 344/344/344 345/345/345
f 346/346/346 345/345/345 339/339/339
f 334/334/334 347/347/347 339/339/339
f 346/346/346 339/339/339 347/347/347
f 347/347/347 334/334/334 348/348/348
f 348/348/348 349/349/349 350/350/350
f 348/348/348 351/351/351 347/347/347
f 346/346/346 347/347/347 351/351/351
f 350/350/350 352/352/352 348/348/348
f 351/351/351 348/348/348 352/352/352
f 352/352/352 350/350/350 353/353/353
f 352/352/352 354/354/354 351/351/351
f 346/346/346 351/351/351 354/354/354
f 353/353/353 355/355/355 352/352/352
f 354/354/354 352/352/352 355/355/355
f 355/355/355 353/353/353 356/356/356
f 355/355/355 357/357/357 354/354/354
f 346/346/346 354/354/354 357/357/357
f 356/356/356 358/358/358 355/355/355
f 357/357/357 355/355/355 358/358/358
f 358/358/358 356/356/356 359/359/359
f 358/358/358 360/360/360 357/357/357
f 346/346/346 357/357/357 360/360/360
f 359/359/359 361/361/361 358/358/358
f 360/360/360 358/358/358 361/361/361
f 361/361/361 359/359/359 362/362/362
f 346/346/346 360/360/360 363/363/363
f 361/361/361 363/363/363 360/360/360
f 362/362/362 364/364/364 361/361/361
f 363/363/363 361/361/361 364/364/364
f 364/364/364 362/362/362 365/365/365
f 365/365/365 366/366/366 364/364/364
f 346/346/346 363/363/363 367/367/367
f 364/364/364 367/367/367 363/363/363
f 367/367/367 364/364/364 366/366/366
f 346/346/346 367/367/367 368/368/368
f 366/366/366 368/368/368 367/367/367
f 369/369/369 370/370/370 371/371/371
f 371/371/371 372/372/372 373/373/373
f 372/372/372 371/371/371 374/374/374
f 374/374/374 375/375/375 372/372/372
f 376/376/376 377/377/377 375/375/375
f 375/375/375 374/374/374 376/376/376
f 378/378/378 376/376/376 374/374/374
f 374/374/374 379/379/379 378/378/378
f 379/379/379 374/374/374 371/371/371
f 380/380/380 378/378/378 379/379/379
f 371/371/371 381/381/381 379/379/379
f 380/380/380 379/379/379 381/381/381
f 381/381/381 371/371/371 382/382/382
f 380/380/380 381/381/381 383/383/383
f 384/384/384 383/383/383 381/381/381
f 385/385/385 383/383/383 386/386/386
f 387/387/387 386/386/386 388/388/388
f 389/389/389 388/388/388 386/386/386
f 390/390/390 386/386/386 383/383/383
f 386/386/386 390/390/390 389/389/389
f 391/391/391 389/389/389 390/390/390
f 383/383/383 392/392/392 390/390/390
f 390/390/390 393/393/393 391/391/391
f 393/393/393 390/390/390 392/392/392
f 392/392/392 394/394/394 393/393/393
f 395/395/395 396/396/396 397/397/397
f 397/397/397 398/398/398 399/399/399
f 398/398/398 397/397/397 400/400/400
f 400/400/400 401/401/401 398/398/398
f 402/402/402 397/397/397 403/403/403
f 401/401/401 400/400/400 404/404/404
f 404/404/404 405/405/405 401/401/401
f 406/406/406 400/400/400 397/397/397
f 397/397/397 402/402/402 406/406/406
f 407/407/407 408/408/408 405/405/405
f 405/405/405 404/404/404 407/407/407
f 409/409/409 407/407/407 404/404/404
f 410/410/410 404/404/404 400/400/400
f 404/404/404 410/410/410 409/409/409
f 400/400/400 406/406/406 410/410/410
f 411/411/411 409/409/409 410/410/410
f 411/411/411 410/410/410 406/406/406
f 411/411/411 406/406/406 402/402/402
f 411/411/411 402/402/402 412/412/412
f 413/413/413 412/412/412 402/402/402
f 413/413/413 414/414/414 415/415/415
f 415/415/415 416/416/416 413/413/413
f 412/412/412 413/413/413 416/416/416
f 416/416/416 415/415/415 417/417/417
f 416/416/416 418/418/418 412/412/412
f 411/411/411 412/412/412 418/418/418
f 417/417/417 419/419/419 416/416/416
f 418/418/418 416/416/416 419/419/419
f 419/419/419 417/417/417 420/420/420
f 411/411/411 418/418/418 421/421/421
f 419/419/419 421/421/421 418/418/418
f 420/420/420 422/422/422 419/419/419
f 421/421/421 419/419/419 422/422/422
f 422/422/422 420/420/420 423/423/423
f 423/423/423 424/424/424 422/422/422
f 411/411/411 421/421/421 425/425/425
f 422/422/422 425/425/425 421/421/421
f 425/425/425 422/422/422 424/424/424
f 411/411/411 425/425/425 426/426/426
f 424/424/424 426/426/426 425/425/425
f 427/427/427 428/428/428 429/429/429
f 429/429/429 430/430/430 427/427/427
f 431/431/431 427/427/427 430/430/430
f 430/430/430 429/429/429 432/432/432
f 430/430/430 433/433/433 431/431/431
f 432/432/432 434/434/434 430/430/430
f 433/433/433 430/430/430 434/434/434
f 434/434/434 432/432/432 435/435/435
f 436/436/436 431/431/431 433/433/433
f 435/435/435 437/437/437 434/434/434
f 437/437/437 435/435/435 438/438/438
f 434/434/434 439/439/439 433/433/433
f 439/439/439 434/434/434 437/437/437
f 436/436/436 433/433/433 439/439/439
f 438/438/438 440/440/440 437/437/437
f 440/440/440 438/438/438 441/441/441
f 437/437/437 442/442/442 439/439/439
f 442/442/442 437/437/437 440/440/440
f 436/436/436 439/439/439 442/442/442
f 441/441/441 443/443/443 440/440/440
f 443/443/443 441/441/441 444/444/444
f 440/440/440 445/445/445 442/442/442
f 445/445/445 440/440/440 443/443/443
f 436/436/436 442/442/442 445/445/445
f 444/444/444 446/446/446 443/443/443
f 446/446/446 444/444/444 447/447/447
f 443/443/443 448/448/448 445/445/445
f 448/448/448 443/443/443 446/446/446
f 436/436/436 445/445/445 448/448/448
f 447/447/447 449/449/449 446/446/446
f 449/449/449 447/447/447 450/450/450
f 446/446/446 451/451/451 448/448/448
f 451/451/451 446/446/446 449/449/449
f 436/436/436 448/448/448 451/451/451
f 450/450/450 452/452/452 449/449/449
f 452/452/452 450/450/450 453/453/453
f 449/449/449 454/454/454 451/451/451
f 454/454/454 449/449/449 452/452/452
f 436/436/436 451/451/451 454/454/454
f 453/453/453 455/455/455 452/452/452
f 455/455/455 453/453/453 456/456/456
f 452/452/452 457/457/457 454/454/454
f 436/436/436 454/454/454 457/457/457
f 457/457/457 452/452/452 455/455/455
f 456/456/456 458/458/458 455/455/455
f 436/436/436 457/457/457 459/459/459
f 455/455/455 459/459/459 457/457/457
f 459/459/459 455/455/455 458/458/458
f 436/436/436 459/459/459 460/460/460
f 458/458/458 460/460/460 459/459/459
f 461/461/461 462/462/462 463/463/463
f 463/463/463 464/464/464 461/461/461
f 465/465/465 461/461/461 464/464/464
f 464/464/464 463/463/463 466/466/466
f 464/464/464 467/467/467 465/465/465
f 466/466/466 468/468/468 464/464/464
f 468/468/468 466/466/466 469/469/469
f 467/467/467 464/464/464 468/468/468
f 470/470/470 465/465/465 467/467/467
f 468/468/468 471/471/471 467/467/467
f 470/470/470 467/467/467 471/471/471
f 472/472/472 473/473/473 468/468/468
f 471/471/471 468/468/468 473/473/473
f 470/470/470 471/471/471 474/474/474
f 473/473/473 474/474/474 471/471/471
f 473/473/473 475/475/475 476/476/476
f 476/476/476 477/477/477 473/473/473
f 474/474/474 473/473/473 477/477/477
f 477/477/477 476/476/476 478/478/478
f 470/470/470 474/474/474 479/479/479
f 477/477/477 479/479/479 474/474/474
f 478/478/478 480/480/480 477/477/477
f 479/479/479 477/477/477 480/480/480
f 480/480/480 478/478/478 481/481/481
f 481/481/481 482/482/482 480/480/480
f 470/470/470 479/479/479 483/483/483
f 480/480/480 483/483/483 479/479/479
f 483/483/483 480/480/480 482/482/482
f 470/470/470 483/483/483 484/484/484
f 482/482/482 484/484/484 483/483/483
f 485/485/485 486/486/486 487/487/487
f 487/487/487 488/488/488 485/485/485
f 489/489/489 485/485/485 488/488/488
f 488/488/488 487/487/487 490/490/490
f 488/488/488 491/491/491 489/489/489
f 490/490/490 492/492/492 488/488/488
f 491/491/491 488/488/488 492/492/492
f 492/492/492 490/490/490 493/493/493
f 494/494/494 489/489/489 491/491/491
f 493/493/493 495/495/495 492/492/492
f 495/495/495 493/493/493 496/496/496
f 492/492/492 497/497/497 491/491/491
f 497/497/497 492/492/492 495/495/495
f 494/494/494 491/491/491 497/497/497
f 496/496/496 498/498/498 495/495/495
f 498/498/498 496/496/496 499/499/499
f 495/495/495 500/500/500 497/497/497
f 500/500/500 495/495/495 498/498/498
f 494/494/494 497/497/497 500/500/500
f 499/499/499 501/501/501 498/498/498
f 501/501/501 499/499/499 502/502/502
f 498/498/498 503/503/503 500/500/500
f 503/503/503 498/498/498 501/501/501
f 494/494/494 500/500/500 503/503/503
f 502/502/502 504/504/504 501/501/501
f 504/504/504 502/502/502 505/505/505
f 501/501/501 506/506/506 503/503/503
f 506/506/506 501/501/501 504/504/504
f 494/494/494 503/503/503 506/506/506
f 505/505/505 507/507/507 504/504/504
f 507/507/507 505/505/505 508/508/508
f 504/504/504 509/509/509 506/506/506
f 509/509/509 504/504/504 507/507/507
f 494/494/494 506/506/506 509/509/509
f 508/508/508 510/510/510 507/507/507
f 510/510/510 508/508/508 511/511/511
f 507/507/507 512/512/512 509/509/509
f 512/512/512 507/507/507 510/510/510
f 494/494/494 509/509/509 512/512/512
f 511/511/511 513/513/513 510/510/510
f 513/513/513 511/511/511 514/514/514
f 510/510/510 515/515/515 512/512/512
f 494/494/494 512/512/512 515/515/515
f 515/515/515 510/510/510 513/513/513
f 514/514/514 516/516/516 513/513/513
f 494/494/494 515/515/515 517/517/517
f 513/513/513 517/517/517 515/515/515
f 517/517/517 513/513/513 516/516/516
f 494/494/494 517/517/517 518/518/518
f 516/516/516 518/518/518 517/517/517
f 519/519/519 520/520/520 521/521/521
f 521/521/521 522/522/522 519/519/519
f 523/523/523 519/519/519 522/522/522
f 522/522/522 521/521/521 524/524/524
f 522/522/522 525/525/525 523/523/523
f 524/524/524 526/526/526 522/522/522
f 526/526/526 524/524/524 527/527/527
f 525/525/525 522/522/522 526/526/526
f 528/528/528 523/523/523 525/525/525
f 526/526/526 529/529/529 525/525/525
f 528/528/528 525/525/525 529/529/529
f 530/530/530 531/531/531 526/526/526
f 529/529/529 526/526/526 531/531/531
f 528/528/528 529/529/529 532/532/532
f 531/531/531 532/532/532 529/529/529
f 531/531/531 533/533/533 534/534/534
f 534/534/534 535/535/535 531/531/531
f 532/532/532 531/531/531 535/535/535
f 535/535/535 534/534/534 536/536/536
f 528/528/528 532/532/532 537/537/537
f 535/535/535 537/537/537 532/532/532
f 536/536/536 538/538/538 535/535/535
f 537/537/537 535/535/535 538/538/538
f 538/538/538 536/536/536 539/539/539
f 539/539/539 540/540/540 538/538/538
f 528/528/528 537/537/537 541/541/541
f 538/538/538 541/541/541 537/537/537
f 541/541/541 538/538/538 540/540/540
f 528/528/528 541/541/541 542/542/542
f 540/540/540 542/542/542 541/541/541
f 543/543/543 544/544/544 545/545/545
f 545/545/545 546/546/546 543/543/543
f 547/547/547 543/543/543 546/546/546
f 546/546/546 545/545/545 548/548/548
f 546/546/546 549/549/549 547/547/547
f 548/548/548 550/550/550 546/546/546
f 549/549/549 546/546/546 550/550/550
f 550/550/550 548/548/548 551/551/551
f 552/552/552 547/547/547 549/549/549
f 551/551/551 553/553/553 550/550/550
f 553/553/553 551/551/551 554/554/554
f 550/550/550 555/555/555 549/549/549
f 555/555/555 550/550/550 553/553/553
f 552/552/552 549/549/549 555/555/555
f 554/554/554 556/556/556 553/553/553
f 556/556/556 554/554/554 557/557/557
f 553/553/553 558/558/558 555/555/555
f 558/558/558 553/553/553 556/556/556
f 552/552/552 555/555/555 558/558/558
f 557/557/557 559/559/559 556/556/556
f 559/559/559 557/557/557 560/560/560
f 556/556/556 561/561/561 558/558/558
f 561/561/561 556/556/556 559/559/559
f 552/552/552 558/558/558 561/561/561
f 560/560/560 562/562/562 559/559/559
f 562/562/562 560/560/560 563/563/563
f 559/559/559 564/564/564 561/561/561
f 564/564/564 559/559/559 562/562/562
f 552/552/552 561/561/561 564/564/564
f 563/563/563 565/565/565 562/562/562
f 565/565/565 563/563/563 566/566/566
f 562/562/562 567/567/567 564/564/564
f 567/567/567 562/562/562 565/565/565
f 552/552/552 564/564/564 567/567/567
f 566/566/566 568/568/568 565/565/565
f 568/568/568 566/566/566 569/569/569
f 565/565/565 570/570/570 567/567/567
f 570/570/570 565/565/565 568/568/568
f 552/552/552 567/567/567 570/570/570
f 569/569/569 571/571/571 568/568/568
f 571/571/571 569/569/569 572/572/572
f 568/568/568 573/573/573 570/570/570
f 552/552/552 570/570/570 573/573/573
f 573/573/573 568/568/568 571/571/571
f 572/572/572 574/574/574 571/571/571
f 552/552/552 573/573/573 575/575/575
f 571/571/571 575/575/575 573/573/573
f 575/575/575 571/571/571 574/574/574
f 552/552/552 575/575/575 576/576/576
f 574/574/574 576/576/576 575/575/575
