v 1.051108 0.895611 0.2886619999999999
v 0.992675 0.905913 0.2886619999999999
v 1.002978 0.964347 0.2886619999999999
v 1.061412 0.954043 0.2886619999999999
v 1.07091 0.865117 0.19470399999999993
v 1.046517 0.90365 0.25628399999999996
v 0.963639 0.884032 0.19470399999999993
v 0.99974 0.911898 0.25628399999999996
v 0.982553 0.991302 0.19470399999999993
v 1.007988 0.958675 0.25628399999999996
v 1.089824 0.972387 0.19470399999999993
v 1.054767 0.950427 0.25628399999999996
v 1.05797 0.883596 0.13312299999999994
v 0.982118 0.896971 0.13312299999999994
v 0.995494 0.972821 0.13312299999999994
v 1.071343 0.959447 0.13312299999999994
v 0.748234 1.09588 -6.710329671248007E-17
v 1.119196 0.96086 -5.883570617143629E-17
v 1.119196 0.96086 0.13034899999999994
v 0.748234 1.09588 0.13034899999999994
v 1.045824 0.759271 0.13044599999999995
v 1.045824 0.759271 -4.6491939991770505E-17
v 0.674861 0.89429 -5.4759469300474324E-17
v 0.674861 0.89429 0.13044599999999995
v 1.16558 0.967809 0.13146199999999994
v 1.076889 0.724133 0.13155899999999995
v 0.628478 0.88734 0.13155899999999995
v 0.71717 1.131017 0.13146199999999994
v -0.039496 1.045058 -0.015040000000000064
v -0.65909 1.478902 -9.055663002763094E-17
v -1.215468 0.68431 -4.190190255622626E-17
v -0.595876 0.250467 -0.015040000000000015
v -0.603878 0.32013700000000006 0.803069
v -0.107702 1.02875 0.8030689999999999
v -1.147264 0.700619 0.803069
v -0.651088 1.409232 0.8030689999999999
v 1.392753 0.346673 0.353671
v 1.462367 0.334397 0.353671
v 1.380059 0.274683 -0.006014000000000017
v 1.449674 0.262408 -0.006014000000000017
v 0.950103 1.406838 0.3347449999999999
v 0.849183 1.415563 -0.006014000000000087
v 0.868207 1.489773 -0.006014000000000091
v 0.969129 1.48105 0.3347449999999999
v 1.383054 1.338784 0.48339699999999997
v 1.383054 1.338784 -0.006014000000000083
v 1.315724 1.278488 0.48339699999999997
v 1.315724 1.278488 -0.006014000000000078
v 1.461356 1.165498 -0.006014000000000071
v 1.461356 1.165498 0.46945099999999995
v 1.385886 1.120526 0.46945099999999995
v 1.385886 1.120526 -0.006014000000000069
v -0.862575 -0.540758 -3.799999999996689E-05
v 0.103046 -0.625239 3.82848470026046E-17
v -0.93751 -1.397275 -3.7999999999914445E-05
v 0.028111 -1.481756 9.073138712586927E-17
v -0.8159 -0.5915359999999998 0.955366
v 0.046713 -0.6670049999999998 0.95532
v -0.882727 -1.355374 0.9553660000000002
v -0.020117 -1.430842 0.9553200000000001
v -1.362127 -1.436292 0.6391850000000001
v -1.438685 -1.400936 -0.006013999999999914
v -1.41966 -1.326725 -0.006013999999999919
v -1.343102 -1.362081 0.6391850000000001
v -0.879791 -1.402309 0.6902790000000001
v -0.79592 -1.485216 0.6902790000000001
v -1.176239 -1.47538 0.6939100000000001
v -1.166272 -1.394776 0.6939100000000001
v -0.79592 -1.485216 -0.006013999999999909
v -1.176239 -1.47538 -0.00601399999999991
v -0.879791 -1.402309 -0.006013999999999914
v -1.166272 -1.394776 -0.006013999999999915
v -0.795919 -1.322228 0.6902790000000001
v -0.879791 -1.322122 0.6902790000000001
v -0.879791 -1.322122 -0.00601399999999992
v -0.795919 -1.322228 -0.00601399999999992
v -1.453889 0.13166100000000006 0.902436
v -1.451989 0.13131 -0.011042000000000008
v -1.475267 0.12131800000000005 0.897189
v -1.475873 0.121594 -0.015043000000000008
v -0.974984 -0.0009729999999999484 0.842241
v -0.973082 -0.0013240000000000007 -0.011042
v -0.99636 -0.011315999999999948 0.836994
v -0.996966 -0.011040000000000001 -0.015043
v -0.881119 0.39483100000000004 0.842241
v -0.879218 0.39448 -0.011042000000000024
v -0.902496 0.3844870000000001 0.836994
v -0.903103 0.384763 -0.015043000000000025
v -1.271577 0.592693 0.902436
v -1.269676 0.592342 -0.011042000000000036
v -1.292953 0.58235 0.897189
v -1.293561 0.582625 -0.015043000000000037
v -0.133912 -0.37554299999999996 0.762127
v -0.153344 -0.36644099999999996 0.755916
v -0.154485 -0.488858 -0.01545299999999997
v -0.131985 -0.498746 -0.009360999999999968
v -0.562276 -0.28548099999999993 0.822323
v -0.581708 -0.27637899999999993 0.816112
v -0.58285 -0.393106 -0.015452999999999975
v -0.560349 -0.402993 -0.009361999999999976
v -0.199006 0.10145600000000005 0.762127
v -0.181407 0.11373400000000004 0.755916
v -0.185265 0.174144 -0.01545300000000001
v -0.205077 0.159603 -0.00936100000000001
v 0.383764 0.751029 0.822323
v 0.401361 0.763307 0.816112
v 0.358173 0.757143 -0.015453000000000047
v 0.33836 0.742602 -0.009362000000000046
v 1.35682 -9.699999999993252E-05 1.102035
v 1.282394 -0.008523 -0.009362
v 1.352362 0.023228000000000065 1.096788
v 1.27919 0.017062 -0.013363000000000002
v 1.327049 0.9607060000000001 1.172292
v 1.281645 0.95228 -0.00936200000000006
v 1.322592 0.9840310000000001 1.167045
v 1.278441 0.977864 -0.01336300000000006
v 1.415916 0.29410900000000006 1.167045
v 1.371766 0.287943 -0.013363000000000017
v 1.420375 0.2707840000000001 1.172292
v 1.37497 0.262358 -0.009362000000000016
v 0.642339 1.470178 0.8043939999999999
v 0.619014 1.465278 0.7991469999999999
v 0.650765 1.424773 -0.009362000000000087
v 0.62518 1.42157 -0.013363000000000087
v 0.073769 1.442506 0.8043939999999999
v 0.082193 1.397101 -0.004508000000000086
v 0.050443 1.438047 0.7991469999999999
v 0.056609 1.393897 -0.008510000000000085
v -1.140013 0.6165480000000001 0.951976
v -1.166678 0.6384210000000001 0.953209
v -0.791381 1.027981 0.7670839999999999
v -0.818045 1.049855 0.7683179999999998
v -0.241381 -1.153155 1.081541
v -0.086909 -1.179613 1.081524
v -0.114707 -1.33444 1.080732
v -0.26918 -1.307981 1.080749
v -0.199281 -1.211923 1.153611
v -0.206978 -1.19856 1.22871
v -0.212036 -1.198205 0.9078840000000001
v -0.145423 -1.221034 1.153599
v -0.131017 -1.211155 1.228685
v -0.133439 -1.212005 0.9078810000000002
v -0.155199 -1.275066 1.153025
v -0.144986 -1.28748 1.227496
v -0.147341 -1.290629 0.9077920000000002
v -0.209056 -1.265955 1.153038
v -0.220949 -1.274887 1.227522
v -0.225939 -1.27683 0.9077940000000001
v 1.197891 -0.823118 0.83603
v 1.19675 -0.822179 -0.017132999999999947
v 1.19935 -0.847744 0.836994
v 1.198692 -0.847635 -0.015042999999999949
v 0.02062 -1.357074 0.9121950000000001
v 1.204389 -1.406637 -0.009486999999999914
v 0.031698 -1.34155 0.9272880000000001
v 1.226486 -1.39107 0.007239000000000085
v 0.379407 -1.401574 0.3536710000000001
v 0.896953 -1.418197 0.45550600000000013
v 0.892821 -1.446757 0.45550600000000013
v 0.367133 -1.421308 0.3536710000000001
v 0.307418 -1.38888 -0.006013999999999915
v 1.250753 -1.441741 -0.006013999999999912
v 1.259427 -0.890411 0.33474500000000007
v 1.257693 -0.866385 -0.006013999999999947
v 1.271773 -0.868217 -0.006013999999999947
v 1.273507 -0.892244 0.33474500000000007
v 1.265375 -1.464578 0.48339700000000013
v 1.007525 -1.456923 0.4694510000000001
v 0.295142 -1.408615 -0.006013999999999914
v 1.250753 -1.441741 0.48339700000000013
v 1.260446 -1.26932 0.38947000000000004
v 1.275636 -1.271614 0.38947000000000004
v 1.265375 -1.464578 -0.006013999999999911
v 1.00678 -1.431332 0.4694510000000001
v 1.2556 -1.355531 0.43643300000000007
v 1.270506 -1.37248 0.4364330000000001
v 1.153574 -1.461887 0.4784940000000001
v 1.143884 -1.438084 0.4784960000000001
v 1.259652 -0.97464 0.3971740000000001
v 1.273979 -0.978549 0.39717800000000003
v 0.536891 -1.406343 0.3828850000000001
v 0.601889 -1.408311 0.3949430000000001
v 0.592913 -1.431622 0.3949430000000001
v 0.526951 -1.428609 0.3828850000000001
v 1.151397 -1.461834 0.5227550000000001
v 1.141697 -1.438008 0.5227530000000001
v 1.259659 -0.976691 0.34720700000000004
v 1.273992 -0.980603 0.34720300000000004
v 1.260139 -1.155194 0.37298700000000007
v 1.274995 -1.163468 0.37298600000000004
v 0.535112 -1.405604 0.4668140000000001
v 0.600108 -1.407573 0.45297900000000013
v 0.591133 -1.430883 0.45297900000000013
v 0.525173 -1.427871 0.4668140000000001
v 1.26554 -1.466671 0.6153770000000001
v 1.250918 -1.443835 0.6153770000000001
v 1.255764 -1.357624 0.5467830000000001
v 1.27067 -1.374574 0.5467830000000001
v 1.276323 -1.270205 0.4352690000000001
v 1.261133 -1.26791 0.4352690000000001
v 1.260827 -1.153785 0.45499000000000006
v 1.275682 -1.162059 0.45498800000000006
v 0.891596 -1.446681 0.4923690000000001
v 0.895726 -1.41812 0.4923690000000001
v 1.005553 -1.431256 0.5596590000000001
v 1.0063 -1.456846 0.5596590000000001
v -1.087536 -0.853677 0.10523900000000005
v -0.953567 -0.930152 0.10521500000000006
v -1.031403 -1.063999 0.10407600000000007
v -1.165372 -0.987524 0.10410000000000005
v -1.068381 -0.922206 0.15197100000000005
v -1.071002 -0.907256 0.22589000000000006
v -1.075564 -0.905224 0.008408000000000056
v -1.021634 -0.948764 0.15195800000000007
v -1.004982 -0.944477 0.22586500000000007
v -1.00751 -0.944447 0.008407000000000057
v -1.048866 -0.99545 0.15139400000000006
v -1.043599 -1.010371 0.22469500000000006
v -1.046838 -1.01249 0.008319000000000062
v -1.095614 -0.968893 0.15140600000000007
v -1.109619 -0.97315 0.22472000000000006
v -1.114891 -0.973268 0.008320000000000058
v -1.083908 -1.064546 0.21250900000000006
v -0.918832 -1.158779 0.2124880000000001
v -1.014741 -1.323706 0.21152700000000008
v -1.179817 -1.229472 0.2115480000000001
v -1.060307 -1.148988 0.29991900000000005
v -1.063535 -1.130566 0.39100300000000004
v -1.069154 -1.128063 0.001888000000000069
v -1.002704 -1.181713 0.29990400000000006
v -0.982186 -1.176431 0.39097100000000007
v -0.985301 -1.176394 0.001886000000000072
v -1.036259 -1.239239 0.29920900000000006
v -1.02977 -1.257625 0.38953000000000004
v -1.03376 -1.260236 0.0017770000000000771
v -1.09386 -1.206515 0.29922400000000005
v -1.11112 -1.211761 0.38956100000000005
v -1.117614 -1.211905 0.001780000000000074
v -0.998051 1.435646 0.2150449999999999
v -0.810699 1.403556 0.2150239999999999
v -0.844415 1.215774 0.21406299999999992
v -1.031766 1.247865 0.2140839999999999
v -0.94699 1.364369 0.30245499999999986
v -0.956325 1.380576 0.3935389999999999
v -0.962461 1.381007 0.004423999999999916
v -0.881669 1.35332 0.30243999999999993
v -0.864195 1.3653 0.3935079999999999
v -0.867134 1.36427 0.0044219999999999164
v -0.893525 1.287786 0.30174499999999993
v -0.881139 1.272729 0.39206599999999997
v -0.883995 1.26891 0.004312999999999922
v -0.958846 1.298836 0.3017599999999999
v -0.973269 1.288003 0.3920969999999999
v -0.979323 1.285645 0.0043159999999999215
v 0.02618 -0.420627 0.10523900000000003
v 0.160149 -0.497103 0.10521500000000003
v 0.082314 -0.630949 0.10407600000000004
v -0.051656 -0.554474 0.10410000000000003
v 0.045333 -0.489157 0.15197100000000002
v 0.042715 -0.474206 0.22589000000000004
v 0.038153 -0.472175 0.00840800000000003
v 0.092083 -0.515714 0.15195800000000004
v 0.108735 -0.511427 0.22586500000000004
v 0.106206 -0.511397 0.00840700000000003
v 0.06485 -0.562401 0.15139400000000003
v 0.070117 -0.577321 0.22469500000000003
v 0.066879 -0.57944 0.008319000000000035
v 0.018103 -0.535843 0.15140600000000004
v 0.004096 -0.5401 0.22472000000000003
v -0.001174 -0.540217 0.008320000000000032
v 0.238186 -0.538029 0.13168600000000003
v 0.276218 -0.618557 0.13166500000000003
v 0.195088 -0.656081 0.13070400000000001
v 0.157055 -0.575552 0.13072500000000004
v 0.224553 -0.576779 0.21909500000000004
v 0.228262 -0.568842 0.36635500000000004
v 0.226778 -0.566371 -0.022758999999999967
v 0.237865 -0.604819 0.21908100000000003
v 0.247161 -0.608306 0.36632400000000004
v 0.245974 -0.607455 -0.022760999999999962
v 0.209527 -0.61788 0.21838500000000002
v 0.207078 -0.62668 0.36488300000000007
v 0.204844 -0.62661 -0.022869999999999963
v 0.196214 -0.589841 0.21840000000000004
v 0.188181 -0.587217 0.36491400000000007
v 0.185649 -0.585526 -0.022866999999999964
v -1.21809 -1.432511 0.8640180000000001
v -1.252544 -1.432512 0.8640180000000001
v -1.208098 -1.43468 0.6634700000000001
v -1.242551 -1.43468 0.6634700000000001
v -1.052465 -1.438983 0.9216310000000001
v -1.083077 -1.438983 0.9216310000000001
v -1.052464 -1.450565 0.6858870000000001
v -1.083076 -1.450566 0.6858870000000001
v -1.116416 0.7244770000000001 0.982955
v -1.116416 0.6901550000000001 0.98656
v -1.106424 0.722308 0.782407
v -1.106426 0.687985 0.786012
v -0.151093 1.044413 1.028205
v -0.135787 1.029164 1.029806
v -0.151093 1.013919 1.031408
v -0.1664 1.029164 1.029806
v -0.151093 1.032829 0.7924579999999999
v -0.135787 1.017583 0.7940619999999999
v -0.151093 1.002336 0.7956619999999999
v -0.166398 1.017583 0.7940619999999999
v -0.798607 -0.6192809999999999 1.060906
v -0.798606 -0.6536029999999999 1.064512
v -0.788616 -0.6214499999999998 0.943856
v -0.788615 -0.6557719999999999 0.947462
v 0.049316 -1.362741 0.9992130000000001
v 0.048176 -1.361801 -0.017132999999999916
v 0.050777 -1.387366 1.000177
v 0.050121 -1.387256 -0.015042999999999916
v 1.212291 -1.366905 0.8360300000000002
v 1.211151 -1.365966 -0.017132999999999916
v 1.213751 -1.391531 0.8369940000000001
v 1.213094 -1.391421 -0.015042999999999916
v 0.103467 -0.733057 0.896225
v 0.102325 -0.732118 -0.017132999999999954
v 0.104926 -0.757683 0.897189
v 0.10427 -0.757573 -0.015042999999999954
v -0.99452 -0.814923 -0.0002379999999999501
v -0.983104 -0.603786 -0.00023799999999996304
v -0.842568 -0.8238979999999999 0.917508
v -0.82144 -0.6037859999999999 0.917508
v 1.089824 0.972387 0.19470399999999993
v 1.054767 0.950427 0.25628399999999996
v 1.071343 0.959447 0.13312299999999994
v 1.089824 0.972387 0.19470399999999993
v 1.061412 0.954043 0.2886619999999999
v 1.051108 0.895611 0.2886619999999999
v 0.992675 0.905913 0.2886619999999999
v 1.002978 0.964347 0.2886619999999999
v 1.007988 0.958675 0.25628399999999996
v 1.002978 0.964347 0.2886619999999999
v 0.674861 0.89429 0.13044599999999995
v 0.674861 0.89429 -5.4759469300474324E-17
v -1.147264 0.700619 0.803069
v -0.651088 1.409232 0.8030689999999999
v 1.392753 0.346673 0.353671
v 1.385886 1.120526 0.46945099999999995
v 1.461356 1.165498 0.46945099999999995
v 1.380059 0.274683 -0.006014000000000017
v 1.383054 1.338784 0.48339699999999997
v 1.315724 1.278488 0.48339699999999997
v 0.849183 1.415563 -0.006014000000000087
v 0.950103 1.406838 0.3347449999999999
v 0.969129 1.48105 0.3347449999999999
v 0.868207 1.489773 -0.006014000000000091
v 1.449674 0.262408 -0.006014000000000017
v 1.462367 0.334397 0.353671
v -0.020117 -1.430842 0.9553200000000001
v 0.046713 -0.6670049999999998 0.95532
v -1.176239 -1.47538 0.6939100000000001
v -0.79592 -1.485216 0.6902790000000001
v -0.879791 -1.402309 0.6902790000000001
v -1.166272 -1.394776 0.6939100000000001
v -1.362127 -1.436292 0.6391850000000001
v -1.343102 -1.362081 0.6391850000000001
v -1.438685 -1.400936 -0.006013999999999914
v -1.362127 -1.436292 0.6391850000000001
v -1.343102 -1.362081 0.6391850000000001
v -1.41966 -1.326725 -0.006013999999999919
v -0.879791 -1.322122 0.6902790000000001
v -0.795919 -1.322228 0.6902790000000001
v -1.475873 0.121594 -0.015043000000000008
v -1.475267 0.12131800000000005 0.897189
v -0.996966 -0.011040000000000001 -0.015043
v -0.99636 -0.011315999999999948 0.836994
v -0.903103 0.384763 -0.015043000000000025
v -0.902496 0.3844870000000001 0.836994
v -1.293561 0.582625 -0.015043000000000037
v -1.292953 0.58235 0.897189
v -0.133912 -0.37554299999999996 0.762127
v -0.131985 -0.498746 -0.009360999999999968
v -0.562276 -0.28548099999999993 0.822323
v -0.560349 -0.402993 -0.009361999999999976
v -0.199006 0.10145600000000005 0.762127
v -0.205077 0.159603 -0.00936100000000001
v 0.383764 0.751029 0.822323
v 0.33836 0.742602 -0.009362000000000046
v -0.603878 0.32013700000000006 0.803069
v -1.215468 0.68431 -4.190190255622626E-17
v -1.147264 0.700619 0.803069
v 0.103046 -0.625239 3.82848470026046E-17
v 0.046713 -0.6670049999999998 0.95532
v -0.8159 -0.5915359999999998 0.955366
v -0.595876 0.250467 -0.015040000000000015
v -0.603878 0.32013700000000006 0.803069
v -0.107702 1.02875 0.8030689999999999
v -0.65909 1.478902 -9.055663002763094E-17
v -0.039496 1.045058 -0.015040000000000064
v -0.107702 1.02875 0.8030689999999999
v -0.651088 1.409232 0.8030689999999999
v -0.8159 -0.5915359999999998 0.955366
v -0.882727 -1.355374 0.9553660000000002
v -0.862575 -0.540758 -3.799999999996689E-05
v -0.882727 -1.355374 0.9553660000000002
v -0.020117 -1.430842 0.9553200000000001
v 0.028111 -1.481756 9.073138712586927E-17
v -0.93751 -1.397275 -3.7999999999914445E-05
v 1.27919 0.017062 -0.013363000000000002
v 1.352362 0.023228000000000065 1.096788
v 1.415916 0.29410900000000006 1.167045
v 1.371766 0.287943 -0.013363000000000017
v 1.278441 0.977864 -0.01336300000000006
v 1.322592 0.9840310000000001 1.167045
v 0.619014 1.465278 0.7991469999999999
v 0.62518 1.42157 -0.013363000000000087
v 0.056609 1.393897 -0.008510000000000085
v 0.050443 1.438047 0.7991469999999999
v -0.133439 -1.212005 0.9078810000000002
v -0.086909 -1.179613 1.081524
v -0.147341 -1.290629 0.9077920000000002
v -0.114707 -1.33444 1.080732
v -0.212036 -1.198205 0.9078840000000001
v -0.26918 -1.307981 1.080749
v -0.225939 -1.27683 0.9077940000000001
v -0.145423 -1.221034 1.153599
v -0.131017 -1.211155 1.228685
v -0.155199 -1.275066 1.153025
v -0.144986 -1.28748 1.227496
v -0.209056 -1.265955 1.153038
v -0.199281 -1.211923 1.153611
v -0.206978 -1.19856 1.22871
v -0.220949 -1.274887 1.227522
v -0.144986 -1.28748 1.227496
v -0.220949 -1.274887 1.227522
v -0.206978 -1.19856 1.22871
v -0.131017 -1.211155 1.228685
v 1.198692 -0.847635 -0.015042999999999949
v 1.19935 -0.847744 0.836994
v 1.204389 -1.406637 -0.009486999999999914
v 0.02062 -1.357074 0.9121950000000001
v 1.250753 -1.441741 -0.006013999999999912
v 1.265375 -1.464578 -0.006013999999999911
v 1.265375 -1.464578 0.48339700000000013
v 1.250753 -1.441741 0.48339700000000013
v 0.592913 -1.431622 0.3949430000000001
v 0.526951 -1.428609 0.3828850000000001
v -1.00751 -0.944447 0.008407000000000057
v -0.953567 -0.930152 0.10521500000000006
v -1.046838 -1.01249 0.008319000000000062
v -1.031403 -1.063999 0.10407600000000007
v -1.075564 -0.905224 0.008408000000000056
v -1.165372 -0.987524 0.10410000000000005
v -1.114891 -0.973268 0.008320000000000058
v -1.021634 -0.948764 0.15195800000000007
v -1.004982 -0.944477 0.22586500000000007
v -1.048866 -0.99545 0.15139400000000006
v -1.043599 -1.010371 0.22469500000000006
v -1.095614 -0.968893 0.15140600000000007
v -1.068381 -0.922206 0.15197100000000005
v -1.071002 -0.907256 0.22589000000000006
v -1.109619 -0.97315 0.22472000000000006
v -1.071002 -0.907256 0.22589000000000006
v -1.004982 -0.944477 0.22586500000000007
v -1.043599 -1.010371 0.22469500000000006
v -1.109619 -0.97315 0.22472000000000006
v -0.985301 -1.176394 0.001886000000000072
v -0.918832 -1.158779 0.2124880000000001
v -1.03376 -1.260236 0.0017770000000000771
v -1.014741 -1.323706 0.21152700000000008
v -1.069154 -1.128063 0.001888000000000069
v -1.179817 -1.229472 0.2115480000000001
v -1.117614 -1.211905 0.001780000000000074
v -1.002704 -1.181713 0.29990400000000006
v -0.982186 -1.176431 0.39097100000000007
v -1.036259 -1.239239 0.29920900000000006
v -1.02977 -1.257625 0.38953000000000004
v -1.09386 -1.206515 0.29922400000000005
v -1.060307 -1.148988 0.29991900000000005
v -1.063535 -1.130566 0.39100300000000004
v -1.11112 -1.211761 0.38956100000000005
v -1.02977 -1.257625 0.38953000000000004
v -1.11112 -1.211761 0.38956100000000005
v -1.063535 -1.130566 0.39100300000000004
v -0.982186 -1.176431 0.39097100000000007
v -0.867134 1.36427 0.0044219999999999164
v -0.810699 1.403556 0.2150239999999999
v -0.883995 1.26891 0.004312999999999922
v -0.844415 1.215774 0.21406299999999992
v -0.962461 1.381007 0.004423999999999916
v -1.031766 1.247865 0.2140839999999999
v -0.979323 1.285645 0.0043159999999999215
v -0.881669 1.35332 0.30243999999999993
v -0.864195 1.3653 0.3935079999999999
v -0.893525 1.287786 0.30174499999999993
v -0.881139 1.272729 0.39206599999999997
v -0.958846 1.298836 0.3017599999999999
v -0.94699 1.364369 0.30245499999999986
v -0.956325 1.380576 0.3935389999999999
v -0.973269 1.288003 0.3920969999999999
v -0.881139 1.272729 0.39206599999999997
v -0.973269 1.288003 0.3920969999999999
v -0.956325 1.380576 0.3935389999999999
v -0.864195 1.3653 0.3935079999999999
v 0.106206 -0.511397 0.00840700000000003
v 0.160149 -0.497103 0.10521500000000003
v 0.066879 -0.57944 0.008319000000000035
v 0.082314 -0.630949 0.10407600000000004
v 0.038153 -0.472175 0.00840800000000003
v -0.051656 -0.554474 0.10410000000000003
v -0.001174 -0.540217 0.008320000000000032
v 0.092083 -0.515714 0.15195800000000004
v 0.108735 -0.511427 0.22586500000000004
v 0.06485 -0.562401 0.15139400000000003
v 0.070117 -0.577321 0.22469500000000003
v 0.018103 -0.535843 0.15140600000000004
v 0.045333 -0.489157 0.15197100000000002
v 0.042715 -0.474206 0.22589000000000004
v 0.004096 -0.5401 0.22472000000000003
v 0.042715 -0.474206 0.22589000000000004
v 0.108735 -0.511427 0.22586500000000004
v 0.070117 -0.577321 0.22469500000000003
v 0.004096 -0.5401 0.22472000000000003
v 0.245974 -0.607455 -0.022760999999999962
v 0.276218 -0.618557 0.13166500000000003
v 0.204844 -0.62661 -0.022869999999999963
v 0.195088 -0.656081 0.13070400000000001
v 0.226778 -0.566371 -0.022758999999999967
v 0.157055 -0.575552 0.13072500000000004
v 0.185649 -0.585526 -0.022866999999999964
v 0.237865 -0.604819 0.21908100000000003
v 0.247161 -0.608306 0.36632400000000004
v 0.209527 -0.61788 0.21838500000000002
v 0.207078 -0.62668 0.36488300000000007
v 0.196214 -0.589841 0.21840000000000004
v 0.224553 -0.576779 0.21909500000000004
v 0.228262 -0.568842 0.36635500000000004
v 0.188181 -0.587217 0.36491400000000007
v 0.207078 -0.62668 0.36488300000000007
v 0.188181 -0.587217 0.36491400000000007
v 0.228262 -0.568842 0.36635500000000004
v 0.247161 -0.608306 0.36632400000000004
v -1.21809 -1.432511 0.8640180000000001
v -1.208098 -1.43468 0.6634700000000001
v -1.083076 -1.450566 0.6858870000000001
v -1.083077 -1.438983 0.9216310000000001
v -1.116416 0.6901550000000001 0.98656
v -1.106426 0.687985 0.786012
v -0.151093 1.032829 0.7924579999999999
v -0.151093 1.044413 1.028205
v -0.798606 -0.6536029999999999 1.064512
v -0.788615 -0.6557719999999999 0.947462
v 0.050121 -1.387256 -0.015042999999999916
v 0.050777 -1.387366 1.000177
v 1.213094 -1.391421 -0.015042999999999916
v 1.213751 -1.391531 0.8369940000000001
v 0.10427 -0.757573 -0.015042999999999954
v 0.104926 -0.757683 0.897189
v 1.046517 0.90365 0.25628399999999996
v 1.07091 0.865117 0.19470399999999993
v 1.046517 0.90365 0.25628399999999996
v 0.99974 0.911898 0.25628399999999996
v 0.963639 0.884032 0.19470399999999993
v 0.99974 0.911898 0.25628399999999996
v 1.007988 0.958675 0.25628399999999996
v 0.982553 0.991302 0.19470399999999993
v 1.007988 0.958675 0.25628399999999996
v 1.07091 0.865117 0.19470399999999993
v 1.05797 0.883596 0.13312299999999994
v 1.07091 0.865117 0.19470399999999993
v 0.963639 0.884032 0.19470399999999993
v 0.982118 0.896971 0.13312299999999994
v 0.963639 0.884032 0.19470399999999993
v 0.982553 0.991302 0.19470399999999993
v 0.995494 0.972821 0.13312299999999994
v 0.982553 0.991302 0.19470399999999993
v 1.046517 0.90365 0.25628399999999996
v 1.051108 0.895611 0.2886619999999999
v 1.046517 0.90365 0.25628399999999996
v 0.99974 0.911898 0.25628399999999996
v 0.992675 0.905913 0.2886619999999999
v 0.99974 0.911898 0.25628399999999996
v 1.054767 0.950427 0.25628399999999996
v 1.061412 0.954043 0.2886619999999999
v 1.061412 0.954043 0.2886619999999999
v 1.045824 0.759271 -4.6491939991770505E-17
v 1.045824 0.759271 0.13044599999999995
v 1.119196 0.96086 0.13034899999999994
v 1.119196 0.96086 0.13034899999999994
v 1.119196 0.96086 -5.883570617143629E-17
v 1.045824 0.759271 -4.6491939991770505E-17
v 0.748234 1.09588 -6.710329671248007E-17
v 0.748234 1.09588 -6.710329671248007E-17
v 0.748234 1.09588 0.13034899999999994
v -0.879791 -1.402309 0.6902790000000001
v -0.879791 -1.402309 -0.006013999999999914
v -0.879791 -1.402309 0.6902790000000001
v -0.79592 -1.485216 -0.006013999999999909
v -0.79592 -1.485216 0.6902790000000001
v -0.79592 -1.485216 -0.006013999999999909
v -1.451989 0.13131 -0.011042000000000008
v -1.453889 0.13166100000000006 0.902436
v -1.451989 0.13131 -0.011042000000000008
v -0.973082 -0.0013240000000000007 -0.011042
v -0.974984 -0.0009729999999999484 0.842241
v -0.973082 -0.0013240000000000007 -0.011042
v -0.879218 0.39448 -0.011042000000000024
v -0.881119 0.39483100000000004 0.842241
v -0.879218 0.39448 -0.011042000000000024
v -1.269676 0.592342 -0.011042000000000036
v -1.271577 0.592693 0.902436
v -1.269676 0.592342 -0.011042000000000036
v -0.154485 -0.488858 -0.01545299999999997
v -0.154485 -0.488858 -0.01545299999999997
v -0.153344 -0.36644099999999996 0.755916
v -0.58285 -0.393106 -0.015452999999999975
v -0.58285 -0.393106 -0.015452999999999975
v -0.581708 -0.27637899999999993 0.816112
v -0.185265 0.174144 -0.01545300000000001
v -0.185265 0.174144 -0.01545300000000001
v -0.181407 0.11373400000000004 0.755916
v 0.358173 0.757143 -0.015453000000000047
v 0.358173 0.757143 -0.015453000000000047
v 0.401361 0.763307 0.816112
v 1.282394 -0.008523 -0.009362
v 1.35682 -9.699999999993252E-05 1.102035
v 1.282394 -0.008523 -0.009362
v 1.420375 0.2707840000000001 1.172292
v 1.37497 0.262358 -0.009362000000000016
v 1.37497 0.262358 -0.009362000000000016
v 1.281645 0.95228 -0.00936200000000006
v 1.327049 0.9607060000000001 1.172292
v 1.281645 0.95228 -0.00936200000000006
v 0.642339 1.470178 0.8043939999999999
v 0.650765 1.424773 -0.009362000000000087
v 0.650765 1.424773 -0.009362000000000087
v 0.082193 1.397101 -0.004508000000000086
v 0.073769 1.442506 0.8043939999999999
v 0.082193 1.397101 -0.004508000000000086
v -0.241381 -1.153155 1.081541
v -0.241381 -1.153155 1.081541
v 1.19675 -0.822179 -0.017132999999999947
v 1.197891 -0.823118 0.83603
v 1.197891 -0.823118 0.83603
v 1.226486 -1.39107 0.007239000000000085
v 0.031698 -1.34155 0.9272880000000001
v 0.031698 -1.34155 0.9272880000000001
v -1.087536 -0.853677 0.10523900000000005
v -1.087536 -0.853677 0.10523900000000005
v -1.083908 -1.064546 0.21250900000000006
v -1.083908 -1.064546 0.21250900000000006
v -0.998051 1.435646 0.2150449999999999
v -0.998051 1.435646 0.2150449999999999
v 0.02618 -0.420627 0.10523900000000003
v 0.02618 -0.420627 0.10523900000000003
v 0.238186 -0.538029 0.13168600000000003
v 0.238186 -0.538029 0.13168600000000003
v -1.242551 -1.43468 0.6634700000000001
v -1.242551 -1.43468 0.6634700000000001
v -1.252544 -1.432512 0.8640180000000001
v -1.052465 -1.438983 0.9216310000000001
v -1.052464 -1.450565 0.6858870000000001
v -1.052465 -1.438983 0.9216310000000001
v -1.106424 0.722308 0.782407
v -1.106424 0.722308 0.782407
v -1.116416 0.7244770000000001 0.982955
v -0.135787 1.029164 1.029806
v -0.135787 1.029164 1.029806
v -0.135787 1.017583 0.7940619999999999
v -0.151093 1.013919 1.031408
v -0.151093 1.013919 1.031408
v -0.151093 1.002336 0.7956619999999999
v -0.1664 1.029164 1.029806
v -0.1664 1.029164 1.029806
v -0.166398 1.017583 0.7940619999999999
v -0.788616 -0.6214499999999998 0.943856
v -0.788616 -0.6214499999999998 0.943856
v -0.798607 -0.6192809999999999 1.060906
v 0.048176 -1.361801 -0.017132999999999916
v 0.049316 -1.362741 0.9992130000000001
v 0.049316 -1.362741 0.9992130000000001
v 1.211151 -1.365966 -0.017132999999999916
v 1.212291 -1.366905 0.8360300000000002
v 1.212291 -1.366905 0.8360300000000002
v 0.102325 -0.732118 -0.017132999999999954
v 0.103467 -0.733057 0.896225
v 0.103467 -0.733057 0.896225
vt 0.092368 0.299621
vt 0.094701 0.280922
vt 0.089759 0.272204
vt 0.087365 0.290903
vt 0.018738 0.292863
vt 0.018738 0.313540
vt 0.012363 0.292863
vt 0.012363 0.313540
vt 0.005742 0.292863
vt 0.005742 0.313540
vt 0.024698 0.292863
vt 0.024698 0.313540
vt 0.018738 0.274790
vt 0.012363 0.274790
vt 0.005742 0.274790
vt 0.024698 0.274790
vt 0.920920 0.673138
vt 0.920919 0.567125
vt 0.903189 0.567125
vt 0.903189 0.673138
vt 0.903176 0.509516
vt 0.920919 0.509516
vt 0.920919 0.403504
vt 0.903175 0.403504
vt 0.895721 0.419008
vt 0.860333 0.419018
vt 0.860322 0.547287
vt 0.895586 0.547364
vt 0.105492 0.708101
vt 0.481095 0.704669
vt 0.349149 0.704669
vt 0.241493 0.708124
vt 0.100927 0.452566
vt 0.101460 0.708098
vt 0.356288 0.488650
vt 0.473956 0.488650
vt 0.051565 0.104562
vt 0.051565 0.082573
vt 0.229708 0.245036
vt 0.002216 0.082573
vt 0.245251 0.104562
vt 0.293581 0.104562
vt 0.293581 0.082573
vt 0.245251 0.082573
vt 0.076261 0.113829
vt 0.076261 0.245257
vt 0.184426 0.104562
vt 0.368435 0.245016
vt 0.102127 0.245257
vt 0.161992 0.082573
vt 0.161992 0.104562
vt 0.344924 0.245016
vt 0.242506 0.992170
vt 0.122813 0.992270
vt 0.378519 0.992315
vt 0.238258 0.992270
vt 0.002109 0.736500
vt 0.002249 0.992284
vt 0.116836 0.736255
vt 0.116976 0.992040
vt 0.216999 0.293050
vt 0.305506 0.292007
vt 0.305688 0.271438
vt 0.217181 0.272480
vt 0.202562 0.294397
vt 0.213434 0.272400
vt 0.164683 0.273832
vt 0.165838 0.295506
vt 0.462104 0.324993
vt 0.513854 0.324993
vt 0.629649 0.324929
vt 0.590668 0.324922
vt 0.213187 0.316166
vt 0.202440 0.315929
vt 0.640557 0.324929
vt 0.439934 0.324993
vt 0.129100 0.035037
vt 0.253354 0.034581
vt 0.129805 0.047422
vt 0.253890 0.048030
vt 0.660314 0.084391
vt 0.776381 0.083937
vt 0.661018 0.096777
vt 0.776915 0.097386
vt 0.005110 0.035210
vt 0.121176 0.034756
vt 0.005814 0.047596
vt 0.121711 0.048205
vt 0.805351 0.057582
vt 0.929605 0.057126
vt 0.806055 0.069967
vt 0.930140 0.070575
vt 0.423044 0.115079
vt 0.423685 0.120943
vt 0.529923 0.121156
vt 0.529314 0.114464
vt 0.301241 0.093827
vt 0.301907 0.099679
vt 0.416129 0.099833
vt 0.415493 0.093151
vt 0.693167 0.057275
vt 0.694112 0.062976
vt 0.799358 0.064088
vt 0.798408 0.057551
vt 0.572899 0.058646
vt 0.573615 0.064475
vt 0.686882 0.063803
vt 0.686199 0.057140
vt 0.422682 0.088866
vt 0.574198 0.086870
vt 0.423440 0.101335
vt 0.574776 0.100422
vt 0.173447 0.063511
vt 0.334298 0.066113
vt 0.174098 0.075969
vt 0.334765 0.079642
vt 0.006241 0.074089
vt 0.167000 0.076206
vt 0.005406 0.062245
vt 0.166248 0.062706
vt 0.341338 0.063149
vt 0.341667 0.075932
vt 0.450988 0.063009
vt 0.452290 0.074585
vt 0.457468 0.062603
vt 0.567677 0.062727
vt 0.458161 0.075074
vt 0.568187 0.076275
vt 0.925206 0.288958
vt 0.925206 0.260355
vt 0.900014 0.288958
vt 0.900014 0.260355
vt 0.959454 0.831371
vt 0.959454 0.898518
vt 0.959454 0.990310
vt 0.959454 0.737620
vt 0.978951 0.850623
vt 0.996096 0.847711
vt 0.928484 0.845210
vt 0.978951 0.874165
vt 0.996096 0.881142
vt 0.928484 0.878972
vt 0.978951 0.973006
vt 0.996096 0.976399
vt 0.928484 0.980824
vt 0.978951 0.715565
vt 0.996096 0.721112
vt 0.928484 0.719043
vt 0.537032 0.121578
vt 0.653082 0.121959
vt 0.536888 0.109437
vt 0.652784 0.108437
vt 0.783256 0.076325
vt 0.987439 0.075020
vt 0.783121 0.088932
vt 0.988353 0.089267
vt 0.229417 0.343021
vt 0.297332 0.315680
vt 0.137782 0.315501
vt 0.206045 0.342855
vt 0.219906 0.437097
vt 0.343836 0.437091
vt 0.423361 0.348104
vt 0.426611 0.437091
vt 0.002216 0.436915
vt 0.005467 0.347928
vt 0.089406 0.308007
vt 0.122863 0.311747
vt 0.215441 0.436939
vt 0.348573 0.308309
vt 0.371909 0.333408
vt 0.056982 0.333230
vt 0.089501 0.436914
vt 0.311804 0.311929
vt 0.360318 0.320921
vt 0.070720 0.320618
vt 0.103909 0.309321
vt 0.329810 0.309500
vt 0.411924 0.331339
vt 0.017187 0.331161
vt 0.250081 0.335178
vt 0.258610 0.331941
vt 0.176730 0.331770
vt 0.185294 0.335008
vt 0.104192 0.297435
vt 0.329523 0.297615
vt 0.411645 0.344757
vt 0.017466 0.344582
vt 0.387406 0.337834
vt 0.042297 0.337657
vt 0.249844 0.312640
vt 0.258372 0.316356
vt 0.176964 0.316186
vt 0.185528 0.312472
vt 0.083550 0.272565
vt 0.348445 0.272991
vt 0.360190 0.291412
vt 0.071003 0.290985
vt 0.056786 0.320931
vt 0.372106 0.321109
vt 0.387603 0.315813
vt 0.042101 0.315636
vt 0.137941 0.305602
vt 0.297171 0.305781
vt 0.311643 0.287705
vt 0.123023 0.287523
vt 0.959454 0.831371
vt 0.959454 0.898518
vt 0.959454 0.990310
vt 0.959454 0.737620
vt 0.978951 0.850623
vt 0.996096 0.847711
vt 0.928484 0.845210
vt 0.978951 0.874165
vt 0.996096 0.881142
vt 0.928484 0.878972
vt 0.978951 0.973006
vt 0.996096 0.976399
vt 0.928484 0.980824
vt 0.978951 0.715565
vt 0.996096 0.721112
vt 0.928484 0.719043
vt 0.959454 0.831371
vt 0.959454 0.898518
vt 0.959454 0.990310
vt 0.959454 0.737620
vt 0.978951 0.850623
vt 0.996096 0.847711
vt 0.928484 0.845210
vt 0.978951 0.874165
vt 0.996096 0.881142
vt 0.928484 0.878972
vt 0.978951 0.973006
vt 0.996096 0.976399
vt 0.928484 0.980824
vt 0.978951 0.715565
vt 0.996096 0.721112
vt 0.928484 0.719043
vt 0.959454 0.831371
vt 0.959454 0.898518
vt 0.959454 0.990310
vt 0.959454 0.737620
vt 0.978951 0.850623
vt 0.996096 0.847711
vt 0.928484 0.845210
vt 0.978951 0.874165
vt 0.996096 0.881142
vt 0.928484 0.878972
vt 0.978951 0.973006
vt 0.996096 0.976399
vt 0.928484 0.980824
vt 0.978951 0.715565
vt 0.996096 0.721112
vt 0.928484 0.719043
vt 0.959454 0.831371
vt 0.959454 0.898518
vt 0.959454 0.990310
vt 0.959454 0.737620
vt 0.978951 0.850623
vt 0.996096 0.847711
vt 0.928484 0.845210
vt 0.978951 0.874165
vt 0.996096 0.881142
vt 0.928484 0.878972
vt 0.978951 0.973006
vt 0.996096 0.976399
vt 0.928484 0.980824
vt 0.978951 0.715565
vt 0.996096 0.721112
vt 0.928484 0.719043
vt 0.959454 0.831371
vt 0.959454 0.898518
vt 0.959454 0.990310
vt 0.959454 0.737620
vt 0.978951 0.850623
vt 0.996096 0.847711
vt 0.928484 0.845210
vt 0.978951 0.874165
vt 0.996096 0.881142
vt 0.928484 0.878972
vt 0.978951 0.973006
vt 0.996096 0.976399
vt 0.928484 0.980824
vt 0.978951 0.715565
vt 0.996096 0.721112
vt 0.928484 0.719043
vt 0.925206 0.303408
vt 0.925206 0.274656
vt 0.900019 0.303408
vt 0.900014 0.274656
vt 0.925249 0.274793
vt 0.925340 0.260571
vt 0.899921 0.274793
vt 0.900012 0.260570
vt 0.925206 0.288958
vt 0.925211 0.317859
vt 0.900014 0.288958
vt 0.900019 0.317859
vt 0.925249 0.260569
vt 0.925249 0.274793
vt 0.925249 0.289397
vt 0.925249 0.303620
vt 0.899921 0.260569
vt 0.899921 0.274793
vt 0.899997 0.289397
vt 0.900013 0.303620
vt 0.925206 0.288958
vt 0.925211 0.317859
vt 0.900014 0.288958
vt 0.900019 0.317859
vt 0.660258 0.121346
vt 0.785432 0.121744
vt 0.660130 0.108750
vt 0.785165 0.107709
vt 0.660939 0.121339
vt 0.785159 0.121731
vt 0.660785 0.108812
vt 0.784840 0.107781
vt 0.660637 0.121231
vt 0.784876 0.121610
vt 0.660494 0.109090
vt 0.784579 0.108087
vt 0.933374 0.151801
vt 0.933374 0.100021
vt 0.787673 0.151801
vt 0.787673 0.100021
vt -0.003363 0.299069
vt -0.000061 0.316247
vt 0.000799 0.272163
vt 0.000097 0.289148
vt 0.024698 0.322667
vt 0.018738 0.322667
vt 0.012363 0.322667
vt 0.005742 0.322538
vt 0.029325 0.312535
vt 0.029746 0.321411
vt 0.903176 0.730747
vt 0.920920 0.730747
vt 0.001673 0.453373
vt 0.002206 0.708905
vt 0.239546 0.148418
vt 0.344924 0.117334
vt 0.102127 0.117574
vt 0.002216 0.104562
vt 0.184426 0.082573
vt 0.368435 0.113589
vt 0.435568 0.245026
vt 0.421822 0.153504
vt 0.015906 0.153745
vt 0.002140 0.245258
vt 0.225313 0.245272
vt 0.215446 0.148660
vt 0.231931 0.735340
vt 0.129141 0.735340
vt 0.513854 0.137041
vt 0.462104 0.138010
vt 0.629649 0.137946
vt 0.590668 0.136971
vt 0.139817 0.283962
vt 0.142091 0.303971
vt 0.550945 0.325019
vt 0.539672 0.151719
vt 0.566233 0.151637
vt 0.555000 0.324944
vt 0.640557 0.137946
vt 0.439934 0.138010
vt 0.253886 0.027655
vt 0.129802 0.028658
vt 0.776912 0.077013
vt 0.661015 0.078012
vt 0.121707 0.027832
vt 0.005811 0.028831
vt 0.930137 0.050200
vt 0.806053 0.051203
vt 0.423041 0.123923
vt 0.529311 0.124391
vt 0.301239 0.102636
vt 0.415492 0.103044
vt 0.693145 0.065778
vt 0.798384 0.067151
vt 0.572913 0.067297
vt 0.686216 0.066884
vt 0.247815 0.487975
vt 0.344379 0.704084
vt 0.338047 0.487967
vt 0.374355 0.992160
vt 0.367217 0.735313
vt 0.249433 0.735301
vt 0.237437 0.708101
vt 0.230299 0.488050
vt 0.112630 0.488050
vt 0.484995 0.704433
vt 0.587881 0.708472
vt 0.581559 0.488324
vt 0.491328 0.488316
vt 0.493895 0.735385
vt 0.384846 0.735385
vt 0.499996 0.992315
vt 0.624640 0.735475
vt 0.506856 0.735487
vt 0.499718 0.992334
vt 0.631567 0.992344
vt 0.574720 0.079942
vt 0.423389 0.082489
vt 0.006124 0.055873
vt 0.166802 0.055759
vt 0.334862 0.059198
vt 0.174188 0.057149
vt 0.341675 0.057692
vt 0.451217 0.056155
vt 0.568211 0.055802
vt 0.458184 0.056229
vt 0.928484 0.944482
vt 0.959454 0.932263
vt 0.928484 0.683563
vt 0.959454 0.673885
vt 0.928484 0.813149
vt 0.959454 0.764982
vt 0.928484 0.779298
vt 0.978951 0.949346
vt 0.996096 0.942604
vt 0.978951 0.691820
vt 0.996096 0.687752
vt 0.978951 0.787698
vt 0.978951 0.811305
vt 0.996096 0.813852
vt 0.996096 0.780360
vt 0.803262 0.523474
vt 0.819068 0.536560
vt 0.825615 0.504969
vt 0.809809 0.491884
vt 0.652788 0.128811
vt 0.536891 0.128202
vt 0.987426 0.097584
vt 0.783246 0.095433
vt 0.348419 0.437091
vt 0.083367 0.436914
vt 0.083267 0.308007
vt 0.343985 0.308309
vt 0.176730 0.331770
vt 0.185294 0.335008
vt 0.928484 0.944482
vt 0.959454 0.932263
vt 0.928484 0.683563
vt 0.959454 0.673885
vt 0.928484 0.813149
vt 0.959454 0.764982
vt 0.928484 0.779298
vt 0.978951 0.949346
vt 0.996096 0.942604
vt 0.978951 0.691820
vt 0.996096 0.687752
vt 0.978951 0.787698
vt 0.978951 0.811305
vt 0.996096 0.813852
vt 0.996096 0.780360
vt 0.825615 0.504969
vt 0.809809 0.491884
vt 0.803262 0.523474
vt 0.819068 0.536560
vt 0.928484 0.944482
vt 0.959454 0.932263
vt 0.928484 0.683563
vt 0.959454 0.673885
vt 0.928484 0.813149
vt 0.959454 0.764982
vt 0.928484 0.779298
vt 0.978951 0.949346
vt 0.996096 0.942604
vt 0.978951 0.691820
vt 0.996096 0.687752
vt 0.978951 0.787698
vt 0.978951 0.811305
vt 0.996096 0.813852
vt 0.996096 0.780360
vt 0.803262 0.523474
vt 0.819068 0.536560
vt 0.825615 0.504969
vt 0.809809 0.491884
vt 0.928484 0.944482
vt 0.959454 0.932263
vt 0.928484 0.683563
vt 0.959454 0.673885
vt 0.928484 0.813149
vt 0.959454 0.764982
vt 0.928484 0.779298
vt 0.978951 0.949346
vt 0.996096 0.942604
vt 0.978951 0.691820
vt 0.996096 0.687752
vt 0.978951 0.787698
vt 0.978951 0.811305
vt 0.996096 0.813852
vt 0.996096 0.780360
vt 0.803262 0.523474
vt 0.819068 0.536560
vt 0.825615 0.504969
vt 0.809809 0.491884
vt 0.928484 0.944482
vt 0.959454 0.932263
vt 0.928484 0.683563
vt 0.959454 0.673885
vt 0.928484 0.813149
vt 0.959454 0.764982
vt 0.928484 0.779298
vt 0.978951 0.949346
vt 0.996096 0.942604
vt 0.978951 0.691820
vt 0.996096 0.687752
vt 0.978951 0.787698
vt 0.978951 0.811305
vt 0.996096 0.813852
vt 0.996096 0.780360
vt 0.825615 0.504969
vt 0.809809 0.491884
vt 0.803262 0.523474
vt 0.819068 0.536560
vt 0.928484 0.944482
vt 0.959454 0.932263
vt 0.928484 0.683563
vt 0.959454 0.673885
vt 0.928484 0.813149
vt 0.959454 0.764982
vt 0.928484 0.779298
vt 0.978951 0.949346
vt 0.996096 0.942604
vt 0.978951 0.691820
vt 0.996096 0.687752
vt 0.978951 0.787698
vt 0.978951 0.811305
vt 0.996096 0.813852
vt 0.996096 0.780360
vt 0.803262 0.523474
vt 0.819068 0.536560
vt 0.825615 0.504969
vt 0.809809 0.491884
vt 0.924896 0.260334
vt 0.899704 0.260334
vt 0.900013 0.303620
vt 0.925249 0.303620
vt 0.925206 0.260355
vt 0.900014 0.260355
vt 0.900028 0.317844
vt 0.925249 0.317844
vt 0.925206 0.260355
vt 0.900014 0.260355
vt 0.785167 0.128857
vt 0.660132 0.128218
vt 0.784844 0.128801
vt 0.660788 0.128172
vt 0.784582 0.128462
vt 0.660497 0.127854
vt 0.018738 0.313540
vt 0.018738 0.292863
vt 0.018738 0.313540
vt 0.012363 0.313540
vt 0.012363 0.292863
vt 0.012363 0.313540
vt 0.005742 0.313540
vt 0.005742 0.292863
vt 0.005742 0.313540
vt 0.018738 0.292863
vt 0.018738 0.274790
vt 0.018738 0.292863
vt 0.012363 0.292863
vt 0.012363 0.274790
vt 0.012363 0.292863
vt 0.005742 0.292863
vt 0.005742 0.274790
vt 0.005742 0.292863
vt 0.018738 0.313540
vt 0.018738 0.322667
vt 0.018738 0.313540
vt 0.012363 0.313540
vt 0.012363 0.322667
vt 0.012363 0.313540
vt 0.024698 0.313540
vt 0.024698 0.322667
vt 0.024698 0.322667
vt 0.920919 0.509516
vt 0.903176 0.509516
vt 0.903189 0.567125
vt 0.903189 0.567125
vt 0.920919 0.567125
vt 0.920919 0.509516
vt 0.920920 0.673138
vt 0.920920 0.673138
vt 0.903189 0.673138
vt 0.629649 0.137946
vt 0.629649 0.324929
vt 0.629649 0.137946
vt 0.462104 0.324993
vt 0.462104 0.138010
vt 0.462104 0.324993
vt 0.253354 0.034581
vt 0.129100 0.035037
vt 0.253354 0.034581
vt 0.776381 0.083937
vt 0.660314 0.084391
vt 0.776381 0.083937
vt 0.121176 0.034756
vt 0.005110 0.035210
vt 0.121176 0.034756
vt 0.929605 0.057126
vt 0.805351 0.057582
vt 0.929605 0.057126
vt 0.529923 0.121156
vt 0.529923 0.121156
vt 0.423685 0.120943
vt 0.416129 0.099833
vt 0.416129 0.099833
vt 0.301907 0.099679
vt 0.799358 0.064088
vt 0.799358 0.064088
vt 0.694112 0.062976
vt 0.686882 0.063803
vt 0.686882 0.063803
vt 0.573615 0.064475
vt 0.574198 0.086870
vt 0.422682 0.088866
vt 0.574198 0.086870
vt 0.005406 0.062245
vt 0.166248 0.062706
vt 0.166248 0.062706
vt 0.334298 0.066113
vt 0.173447 0.063511
vt 0.334298 0.066113
vt 0.341338 0.063149
vt 0.450988 0.063009
vt 0.450988 0.063009
vt 0.567677 0.062727
vt 0.457468 0.062603
vt 0.567677 0.062727
vt 0.959454 0.831371
vt 0.959454 0.831371
vt 0.653082 0.121959
vt 0.537032 0.121578
vt 0.537032 0.121578
vt 0.988353 0.089267
vt 0.783121 0.088932
vt 0.783121 0.088932
vt 0.959454 0.831371
vt 0.959454 0.831371
vt 0.959454 0.831371
vt 0.959454 0.831371
vt 0.959454 0.831371
vt 0.959454 0.831371
vt 0.959454 0.831371
vt 0.959454 0.831371
vt 0.959454 0.831371
vt 0.959454 0.831371
vt 0.900014 0.274656
vt 0.900014 0.274656
vt 0.925206 0.274656
vt 0.925249 0.274793
vt 0.899921 0.274793
vt 0.925249 0.274793
vt 0.900014 0.288958
vt 0.900014 0.288958
vt 0.925206 0.288958
vt 0.925249 0.274793
vt 0.925249 0.274793
vt 0.899921 0.274793
vt 0.925249 0.289397
vt 0.925249 0.289397
vt 0.899997 0.289397
vt 0.925249 0.303620
vt 0.925249 0.303620
vt 0.900013 0.303620
vt 0.900014 0.288958
vt 0.900014 0.288958
vt 0.925206 0.288958
vt 0.785432 0.121744
vt 0.660258 0.121346
vt 0.660258 0.121346
vt 0.785159 0.121731
vt 0.660939 0.121339
vt 0.660939 0.121339
vt 0.784876 0.121610
vt 0.660637 0.121231
vt 0.660637 0.121231
vn 0.528323 -0.748784 0.40024600000000005
vn -0.504658 -0.676317 0.536578
vn -0.782147 0.583021 0.21984699999999996
vn 0.735639 0.518355 0.43605399999999994
vn 0.558506 -0.814776 0.15560000000000004
vn 0.460358 -0.878056 0.13071900000000006
vn -0.81892 -0.54987 0.16435900000000003
vn -0.943017 -0.275085 0.18720900000000001
vn -0.554996 0.820394 0.13759499999999994
vn -0.275629 0.943268 0.18513299999999994
vn 0.816306 0.563168 0.12840299999999996
vn 0.874136 0.397149 0.279567
vn 0.758672 -0.562716 -0.32827799999999996
vn -0.562725 -0.758673 -0.32826199999999994
vn -0.75867 0.562725 -0.32826700000000003
vn 0.562717 0.758671 -0.32827900000000004
vn -0.422618 0.906308 -5.549535956208197E-17
vn 0.906308 0.422618 -2.5877889048102807E-17
vn 0.906308 0.422618 -2.5877889048102807E-17
vn -0.422618 0.906308 -5.549535956208197E-17
vn 0.114331 -0.993443 6.08308395042672E-17
vn 0.68753 -0.726156 4.446423105408227E-17
vn -0.726155 -0.687531 4.2099131923228945E-17
vn -0.993443 -0.114331 7.000754659665802E-18
vn 0.000127 0.00035000000000006125 1
vn 0.000127 0.00035000000000006125 1
vn 0.000127 0.00035000000000006125 1
vn 0.000127 0.00035000000000006125 1
vn 0.817831 -0.572652 0.05676600000000003
vn -0.817782 0.572616 0.05782599999999997
vn -0.817782 0.572616 0.05782599999999997
vn -0.571353 -0.818199 0.06408900000000005
vn 0 6.123233995736766E-17 1
vn 0 6.123233995736766E-17 1
vn -0.817782 0.572616 0.05782599999999997
vn -0.817782 0.572616 0.05782599999999997
vn -0.798707 -0.405676 0.444403
vn 0.468725 -0.60885 0.639999
vn -0.562112 -0.806936 0.18134200000000006
vn 0.641315 -0.756397 0.12875700000000007
vn -0.845668 -0.11974199999999997 0.520103
vn -0.680889 -0.715182 0.15781200000000006
vn -0.72013 0.654598 0.23003299999999996
vn -0.269969 0.739187 0.617025
vn 0.387511 0.582014 0.714909
vn 0.664947 0.746718 -0.016067000000000047
vn -0.419036 -0.42087899999999995 0.804531
vn -0.765858 -0.643009 3.9372945683647025E-17
vn 0.990625 0.136158 -0.011123000000000008
vn 0.702863 0.13148100000000004 0.699068
vn -0.649504 -0.2796969999999999 0.707046
vn -0.990273 -0.138657 0.01152000000000001
vn 0.087051 0.995016 0.04862999999999994
vn 0.994695 -0.087025 0.054852000000000005
vn -0.994783 0.087032 0.053223999999999994
vn 0.994695 -0.087025 0.054852000000000005
vn 5.2E-05 -4.999999999938768E-06 1
vn 5.2E-05 -4.999999999938768E-06 1
vn 5.2E-05 -4.999999999938768E-06 1
vn 5.2E-05 -4.999999999938768E-06 1
vn -0.825416 -0.426551 0.369787
vn -0.862582 -0.500337 0.07493400000000003
vn -0.745911 0.654332 0.12436499999999996
vn -0.329043 0.702325 0.631245
vn -0.658355 0.34009000000000006 0.671496
vn 0.235135 -0.23300999999999994 0.94362
vn -0.193044 -0.688658 0.698917
vn -0.007673 0.715783 0.69828
vn 0.697905 -0.71619 4.3853989554067145E-17
vn -0.169105 -0.985575 -0.006815999999999939
vn -0.428226 0.903672 -5.533395111395435E-17
vn 0.156564 0.98764 0.007415999999999939
vn 0.894427 -2.999999999972616E-06 0.447214
vn -0.447214 5.000000000054768E-06 0.894427
vn -1 1E-05 -6.123233995736766E-22
vn 1 -3E-06 1.8369701987210298E-22
vn 1 0 0
vn 1 0 0
vn 1 0 0
vn 1 0 0
vn 1 0 0
vn 1 0 0
vn 1 0 0
vn 1 0 0
vn 1 0 0
vn 1 0 0
vn 1 0 0
vn 1 0 0
vn 1 0 0
vn 1 0 0
vn 1 0 0
vn 1 0 0
vn 1 0 0
vn 1 0 0
vn 1 0 0
vn 1 0 0
vn 1 0 0
vn 1 0 0
vn 1 0 0
vn 1 0 0
vn 1 0 0
vn 1 0 0
vn 1 0 0
vn 1 0 0
vn 1 0 0
vn 1 0 0
vn 1 0 0
vn 1 0 0
vn 1 0 0
vn 1 0 0
vn 1 0 0
vn 1 0 0
vn 1 0 0
vn 1 0 0
vn 1 0 0
vn 1 0 0
vn 1 0 0
vn 1 0 0
vn 1 0 0
vn 1 0 0
vn 1 0 0
vn 1 0 0
vn 1 0 0
vn 1 0 0
vn 1 0 0
vn 1 0 0
vn 1 0 0
vn 1 0 0
vn 0.231413 0.22883100000000006 0.94556
vn 0.231429 0.22881500000000005 0.94556
vn 0.231429 0.22881500000000005 0.94556
vn 0.231445 0.22880000000000006 0.94556
vn -0.552138 0.786838 0.2757339999999999
vn 0.574664 0.777886 0.25427299999999997
vn 0.775277 -0.577505 0.25580100000000006
vn -0.784859 -0.552015 0.28155800000000003
vn -0.407032 0.828109 0.38543399999999994
vn -0.659062 0.47881900000000005 0.579975
vn -0.548946 0.781042 -0.29771100000000006
vn 0.917165 0.269196 0.293841
vn 0.577027 0.783137 0.23180899999999993
vn 0.915896 0.271747 -0.295447
vn 0.276055 -0.912115 0.30305100000000007
vn 0.655245 -0.500419 0.565892
vn 0.274381 -0.918115 -0.2859709999999999
vn -0.898707 -0.377854 0.22260400000000002
vn -0.569926 -0.781321 0.2544060000000001
vn -0.783169 -0.547674 -0.29444799999999993
vn 1 0 0
vn 1 0 0
vn 1 0 0
vn 1 0 0
vn 1 0 0
vn 1 0 0
vn 1 0 0
vn 1 0 0
vn 0.045558 0.998961 -0.0011910000000000612
vn 0.097155 0.99526 0.004394999999999939
vn -0.074302 -0.997177 -0.010857999999999939
vn -0.051996 -0.9986 -0.00971899999999994
vn 0.055932 0.998145 0.024030999999999938
vn 0.051666 0.998663 -0.001517000000000061
vn -0.999944 0.0033920000000000005 0.010023
vn -0.99991 0.012061 0.005939999999999999
vn 0.999962 0.0010409999999999996 -0.00865
vn 0.999984 0.005149 -0.0023640000000000006
vn -0.024061 -0.999711 6.121464381111998E-17
vn -0.065759 -0.997813 -0.006767999999999939
vn -0.057568 -0.99806 -0.02369899999999994
vn -0.998363 0.057167 0.0015809999999999965
vn -0.99985 0.01254 0.01194
vn 0.999859 -0.013271 -0.01029
vn -0.049005 -0.998774 -0.007016999999999938
vn 0.082763 0.996515 0.01039699999999994
vn -0.998397 0.056595 0.0008589999999999965
vn 0.99847 -0.055271 -0.0014099999999999965
vn -0.030611 -0.999531 -0.0009099999999999387
vn 0.044105 0.999026 0.0013299999999999389
vn -0.999996 -0.002689 -2.0999999999999833E-05
vn 0.999985 0.005485 1.9999999999999666E-05
vn 0.032814 0.999296 -0.01818400000000006
vn 0.035181 0.999181 -0.020000000000000063
vn -0.04822 -0.998836 0.0012250000000000611
vn -0.046409 -0.998913 0.004269000000000062
vn -0.03394 -0.999424 -0.0004749999999999388
vn 0.049135 0.998792 0.0007309999999999388
vn -0.99987 -0.00036199999999999904 0.016095
vn 0.999982 0.005038 -0.0031580000000000007
vn -0.999821 4.300000000000116E-05 0.018906
vn 0.999952 0.005296999999999999 -0.008197
vn 0.028521 0.99956 -0.008186000000000061
vn 0.030476 0.999486 -0.00995100000000006
vn -0.043246 -0.999 0.011379000000000061
vn -0.045146 -0.998935 0.00958500000000006
vn 0.998365 -0.057117 -0.0023619999999999965
vn -0.998324 0.057839 0.0021659999999999965
vn -0.998332 0.057685 0.0023709999999999964
vn 0.998341 -0.057522 -0.0025759999999999967
vn 0.999915 0.005554999999999999 -0.01182
vn -0.999871 -0.0053089999999999995 0.015177
vn -0.999925 -0.003390999999999999 0.011794
vn 0.999936 0.007483999999999999 -0.008514
vn -0.088126 -0.996109 -0.0006139999999999389
vn 0.117626 0.993056 0.0018619999999999392
vn 0.118141 0.992996 0.0013169999999999393
vn -0.088075 -0.996114 -0.00035099999999993903
vn -0.248829 0.91816 0.30832699999999996
vn 0.799886 0.529545 0.2824249999999999
vn 0.525734 -0.802417 0.28236600000000006
vn -0.916835 -0.24820799999999998 0.312741
vn -0.080161 0.8514 0.518356
vn -0.539507 0.821163 -0.18607400000000004
vn -0.229985 0.844984 -0.48281300000000005
vn 0.908033 -0.05931999999999997 0.414679
vn 0.811786 0.54357 -0.21339100000000003
vn 0.875633 -0.05217100000000003 -0.480152
vn -0.050094 -0.905813 0.42070500000000005
vn 0.537616 -0.817767 -0.20548899999999995
vn -0.053252 -0.881905 -0.46840899999999996
vn -0.946564 -0.03522299999999998 0.320586
vn -0.817274 -0.545157 -0.18672499999999997
vn -0.847631 -0.22544900000000004 -0.480307
vn -0.249728 0.928228 0.27573299999999995
vn 0.80606 0.534427 0.25427299999999997
vn 0.531008 -0.807836 0.2557960000000001
vn -0.926326 -0.250286 0.28156
vn -0.09926 0.917378 0.38543999999999995
vn -0.539506 0.821163 -0.18607600000000005
vn -0.24871 0.92169 -0.29771100000000006
vn 0.953925 -0.06071899999999998 0.293838
vn 0.811795 0.543561 -0.21337800000000004
vn 0.953602 -0.05789800000000002 -0.295451
vn -0.052551 -0.951524 0.3030530000000001
vn 0.537617 -0.817768 -0.20548599999999995
vn -0.056181 -0.95659 -0.28597199999999995
vn -0.97374 -0.04769799999999998 0.222608
vn -0.817278 -0.545143 -0.18675199999999997
vn -0.923254 -0.24678900000000004 -0.294444
vn -0.552141 0.786836 0.27573499999999995
vn 0.574662 0.777887 0.25427399999999994
vn 0.775279 -0.577504 0.2557980000000001
vn -0.78486 -0.552013 0.28155900000000006
vn -0.407035 0.82811 0.38543099999999997
vn -0.787821 0.587124 -0.18607300000000002
vn -0.548949 0.781042 -0.2977060000000001
vn 0.917163 0.269205 0.293838
vn 0.576927 0.788432 -0.21337900000000007
vn 0.915895 0.271747 -0.295447
vn 0.276053 -0.912115 0.30305400000000005
vn 0.784884 -0.584577 -0.20548899999999998
vn 0.274385 -0.918115 -0.28596799999999994
vn -0.898708 -0.37785 0.22260900000000003
vn -0.581544 -0.791794 -0.18673399999999996
vn -0.78317 -0.547679 -0.2944379999999999
vn -0.24883 0.91816 0.30832799999999994
vn 0.799886 0.529546 0.28242399999999995
vn 0.525736 -0.802416 0.28236600000000006
vn -0.916834 -0.24820999999999996 0.312741
vn -0.080166 0.851399 0.518356
vn -0.539509 0.821162 -0.18607600000000005
vn -0.229984 0.844986 -0.48281100000000005
vn 0.908032 -0.059316999999999974 0.414679
vn 0.811784 0.543572 -0.21339400000000003
vn 0.875635 -0.05216900000000003 -0.480148
vn -0.050094 -0.905815 0.42070300000000005
vn 0.537614 -0.817768 -0.20549099999999995
vn -0.053252 -0.881905 -0.46840899999999996
vn -0.946564 -0.03522599999999998 0.320585
vn -0.817274 -0.545153 -0.18673799999999996
vn -0.847631 -0.22544900000000004 -0.480307
vn 0.337997 0.932471 0.12749799999999994
vn 0.993053 -0.024685999999999993 0.115053
vn -0.029843 -0.992754 0.11640000000000006
vn -0.932251 0.337212 0.13113599999999997
vn 0.459405 0.858873 0.22645899999999994
vn 0.030276 0.998039 -0.054788000000000066
vn 0.334751 0.921808 -0.19547800000000007
vn 0.768076 -0.614574 0.17988200000000001
vn 0.997775 -0.021288000000000005 -0.063176
vn 0.768142 -0.610198 -0.19395099999999998
vn -0.607556 -0.772862 0.18319500000000005
vn -0.028632 -0.997754 -0.060561999999999935
vn -0.609168 -0.770529 -0.18761399999999995
vn -0.843168 0.517588 0.14550399999999997
vn -0.998255 0.021969999999999996 -0.054813
vn -0.921848 0.33583 -0.19343000000000002
vn -4E-06 -0.999942 0.01081100000000006
vn 4E-06 0.999942 -0.01081600000000006
vn -2.3E-05 0.999942 -0.01081300000000006
vn 2.3E-05 -0.999942 0.010817000000000061
vn 1.6E-05 -0.998795 0.04907200000000006
vn -1.6E-05 0.998795 -0.04907100000000006
vn -8E-06 0.998795 -0.04907200000000006
vn 8E-06 -0.998795 0.04907100000000006
vn 0.998751 0.005183000000000004 0.049697
vn -0.99875 -0.005184000000000004 -0.049707
vn -0.998751 -0.005240000000000003 -0.049697
vn 0.99875 0.0052410000000000035 0.049706
vn 0.316264 0.947528 -0.04655300000000005
vn 0.948687 -0.315837 0.015519000000000019
vn -0.316237 -0.947537 0.04655000000000006
vn -0.948698 0.315801 -0.01552100000000002
vn -0.316263 0.947528 -0.046556000000000056
vn 0.948694 0.315815 -0.015517000000000019
vn 0.316242 -0.947536 0.04655300000000005
vn -0.948683 -0.315849 0.015512000000000019
vn 0.996352 0.008932000000000006 0.084875
vn -0.996351 -0.008933000000000005 -0.084883
vn -0.996351 -0.008961000000000005 -0.084874
vn 0.996351 0.008962000000000005 0.084883
vn 1 0 0
vn 1 0 0
vn 1 0 0
vn 1 0 0
vn 1 0 0
vn 1 0 0
vn 1 0 0
vn 1 0 0
vn 1 0 0
vn 1 0 0
vn 1 0 0
vn 1 0 0
vn -0.982955 0.07373300000000002 0.168414
vn -0.983444 0.05317100000000002 0.173237
vn -0.982027 0.09426200000000001 0.163516
vn -0.982955 0.07373300000000002 0.168414
vn 0.816306 0.563168 0.12840299999999996
vn 0.874136 0.397149 0.279567
vn 0.562717 0.758671 -0.32827900000000004
vn 0.816306 0.563168 0.12840299999999996
vn 0.735639 0.518355 0.43605399999999994
vn 0.528323 -0.748784 0.40024600000000005
vn -0.504658 -0.676317 0.536578
vn -0.782147 0.583021 0.21984699999999996
vn -0.275629 0.943268 0.18513299999999994
vn -0.782147 0.583021 0.21984699999999996
vn -0.993443 -0.114331 7.000754659665802E-18
vn -0.726155 -0.687531 4.2099131923228945E-17
vn 0 6.123233995736766E-17 1
vn 0 6.123233995736766E-17 1
vn -0.798707 -0.405676 0.444403
vn -0.649504 -0.2796969999999999 0.707046
vn 0.702863 0.13148100000000004 0.699068
vn -0.562112 -0.806936 0.18134200000000006
vn 0.387511 0.582014 0.714909
vn -0.419036 -0.42087899999999995 0.804531
vn -0.680889 -0.715182 0.15781200000000006
vn -0.845668 -0.11974199999999997 0.520103
vn -0.269969 0.739187 0.617025
vn -0.72013 0.654598 0.23003299999999996
vn 0.641315 -0.756397 0.12875700000000007
vn 0.468725 -0.60885 0.639999
vn 0.994695 -0.087025 0.054852000000000005
vn 0.994695 -0.087026 0.054852000000000005
vn -0.193044 -0.688658 0.698917
vn 0.235135 -0.23300999999999994 0.94362
vn -0.658355 0.34009000000000006 0.671496
vn -0.007673 0.715783 0.69828
vn -0.825416 -0.426551 0.369787
vn -0.329043 0.702325 0.631245
vn -0.862582 -0.500337 0.07493400000000003
vn -0.825416 -0.426551 0.369787
vn -0.329043 0.702325 0.631245
vn -0.745911 0.654332 0.12436499999999996
vn -0.447214 5.000000000054768E-06 0.894427
vn 0.894427 -2.999999999972616E-06 0.447214
vn 1 0 0
vn 1 0 0
vn 1 0 0
vn 1 0 0
vn 1 0 0
vn 1 0 0
vn 1 0 0
vn 1 0 0
vn 1 0 0
vn 1 0 0
vn 1 0 0
vn 1 0 0
vn 1 0 0
vn 1 0 0
vn 1 0 0
vn 1 0 0
vn -0.571854 -0.817804 0.06465000000000005
vn -0.571854 -0.817804 0.06465000000000005
vn -0.572355 -0.817409 0.06521000000000006
vn 0.087053 0.995016 0.04863199999999994
vn 0.087055 0.995016 0.048633999999999934
vn 0.087053 0.995016 0.04863199999999994
vn 0.817831 -0.572651 0.05676600000000003
vn 0.817831 -0.572651 0.05676600000000003
vn 0.817831 -0.572651 0.05676600000000003
vn 0.572897 0.817074 0.06464899999999994
vn 0.573439 0.816737 0.06408799999999995
vn 0.572897 0.817074 0.06464899999999994
vn 0.572355 0.817409 0.06520899999999995
vn -0.994783 0.087032 0.053223999999999994
vn -0.994783 0.087033 0.053223999999999994
vn -0.994783 0.087032 0.053223999999999994
vn -0.087052 -0.995016 0.048632000000000064
vn -0.08705 -0.995016 0.04863400000000006
vn -0.087052 -0.995016 0.048632000000000064
vn -0.087054 -0.995016 0.04863000000000006
vn 1 0 0
vn 1 0 0
vn 1 0 0
vn 1 0 0
vn 1 0 0
vn 1 0 0
vn 1 0 0
vn 1 0 0
vn 1 0 0
vn 1 0 0
vn 0.915896 0.271747 -0.295447
vn 0.574664 0.777886 0.25427299999999997
vn 0.274381 -0.918115 -0.2859709999999999
vn 0.775277 -0.577505 0.25580100000000006
vn -0.548946 0.781042 -0.29771100000000006
vn -0.784859 -0.552015 0.28155800000000003
vn -0.783169 -0.547674 -0.29444799999999993
vn 0.917165 0.269196 0.293841
vn 0.577027 0.783137 0.23180899999999993
vn 0.276055 -0.912115 0.30305100000000007
vn 0.655245 -0.500419 0.565892
vn -0.898707 -0.377854 0.22260400000000002
vn -0.407032 0.828109 0.38543399999999994
vn -0.659062 0.47881900000000005 0.579975
vn -0.569926 -0.781321 0.2544060000000001
vn 0.655245 -0.500419 0.565892
vn -0.569926 -0.781321 0.2544060000000001
vn -0.659062 0.47881900000000005 0.579975
vn 0.577027 0.783137 0.23180899999999993
vn 1 0 0
vn 1 0 0
vn 1 0 0
vn 1 0 0
vn -0.999691 0.021128 0.013070999999999998
vn 0.999205 -0.039202 -0.0072089999999999975
vn 0.998421 -0.056167 -0.0010739999999999966
vn 0.034208 0.999415 -6.119651903849261E-17
vn -0.045146 -0.998935 0.00958500000000006
vn -0.047046 -0.998862 0.007790000000000062
vn 0.875633 -0.05217100000000003 -0.480152
vn 0.799886 0.529545 0.2824249999999999
vn -0.053252 -0.881905 -0.46840899999999996
vn 0.525734 -0.802417 0.28236600000000006
vn -0.229985 0.844984 -0.48281300000000005
vn -0.916835 -0.24820799999999998 0.312741
vn -0.847631 -0.22544900000000004 -0.480307
vn 0.908033 -0.05931999999999997 0.414679
vn 0.811786 0.54357 -0.21339100000000003
vn -0.050094 -0.905813 0.42070500000000005
vn 0.537616 -0.817767 -0.20548899999999995
vn -0.946564 -0.03522299999999998 0.320586
vn -0.080161 0.8514 0.518356
vn -0.539507 0.821163 -0.18607400000000004
vn -0.817274 -0.545157 -0.18672499999999997
vn -0.007235 -0.013509999999999939 0.999883
vn -0.007232 -0.01350899999999994 0.999883
vn -0.007235 -0.013509999999999939 0.999883
vn -0.007238 -0.01351099999999994 0.999883
vn 0.953602 -0.05789800000000002 -0.295451
vn 0.80606 0.534427 0.25427299999999997
vn -0.056181 -0.95659 -0.28597199999999995
vn 0.531008 -0.807836 0.2557960000000001
vn -0.24871 0.92169 -0.29771100000000006
vn -0.926326 -0.250286 0.28156
vn -0.923254 -0.24678900000000004 -0.294444
vn 0.953925 -0.06071899999999998 0.293838
vn 0.811795 0.543561 -0.21337800000000004
vn -0.052551 -0.951524 0.3030530000000001
vn 0.537617 -0.817768 -0.20548599999999995
vn -0.97374 -0.04769799999999998 0.222608
vn -0.09926 0.917378 0.38543999999999995
vn -0.539506 0.821163 -0.18607600000000005
vn -0.817278 -0.545143 -0.18675199999999997
vn -0.007237 -0.013509999999999939 0.999883
vn -0.007237 -0.013509999999999939 0.999883
vn -0.007237 -0.013509999999999939 0.999883
vn -0.007234 -0.01350899999999994 0.999883
vn 0.915895 0.271747 -0.295447
vn 0.574662 0.777887 0.25427399999999994
vn 0.274385 -0.918115 -0.28596799999999994
vn 0.775279 -0.577504 0.2557980000000001
vn -0.548949 0.781042 -0.2977060000000001
vn -0.78486 -0.552013 0.28155900000000006
vn -0.78317 -0.547679 -0.2944379999999999
vn 0.917163 0.269205 0.293838
vn 0.576927 0.788432 -0.21337900000000007
vn 0.276053 -0.912115 0.30305400000000005
vn 0.784884 -0.584577 -0.20548899999999998
vn -0.898708 -0.37785 0.22260900000000003
vn -0.407035 0.82811 0.38543099999999997
vn -0.787821 0.587124 -0.18607300000000002
vn -0.581544 -0.791794 -0.18673399999999996
vn -0.00218 -0.015169999999999939 0.999883
vn -0.00218 -0.015169999999999939 0.999883
vn -0.00218 -0.015169999999999939 0.999883
vn -0.002177 -0.015167999999999938 0.999883
vn 0.875635 -0.05216900000000003 -0.480148
vn 0.799886 0.529546 0.28242399999999995
vn -0.053252 -0.881905 -0.46840899999999996
vn 0.525736 -0.802416 0.28236600000000006
vn -0.229984 0.844986 -0.48281100000000005
vn -0.916834 -0.24820999999999996 0.312741
vn -0.847631 -0.22544900000000004 -0.480307
vn 0.908032 -0.059316999999999974 0.414679
vn 0.811784 0.543572 -0.21339400000000003
vn -0.050094 -0.905815 0.42070300000000005
vn 0.537614 -0.817768 -0.20549099999999995
vn -0.946564 -0.03522599999999998 0.320585
vn -0.080166 0.851399 0.518356
vn -0.539509 0.821162 -0.18607600000000005
vn -0.817274 -0.545153 -0.18673799999999996
vn -0.007235 -0.013509999999999939 0.999883
vn -0.007232 -0.01350899999999994 0.999883
vn -0.007235 -0.013509999999999939 0.999883
vn -0.007238 -0.01351099999999994 0.999883
vn 0.768142 -0.610198 -0.19395099999999998
vn 0.993053 -0.024685999999999993 0.115053
vn -0.609168 -0.770529 -0.18761399999999995
vn -0.029843 -0.992754 0.11640000000000006
vn 0.334751 0.921808 -0.19547800000000007
vn -0.932251 0.337212 0.13113599999999997
vn -0.921848 0.33583 -0.19343000000000002
vn 0.768076 -0.614574 0.17988200000000001
vn 0.997775 -0.021288000000000005 -0.063176
vn -0.607556 -0.772862 0.18319500000000005
vn -0.028632 -0.997754 -0.060561999999999935
vn -0.843168 0.517588 0.14550399999999997
vn 0.459405 0.858873 0.22645899999999994
vn 0.030276 0.998039 -0.054788000000000066
vn -0.998255 0.021969999999999996 -0.054813
vn -0.029179 -0.01475799999999994 0.999465
vn -0.029179 -0.01475799999999994 0.999465
vn -0.029179 -0.01475799999999994 0.999465
vn -0.029178 -0.01475799999999994 0.999465
vn -4E-06 -0.999942 0.01081100000000006
vn -2.3E-05 0.999942 -0.01081300000000006
vn 8E-06 -0.998795 0.04907100000000006
vn -1.6E-05 0.998795 -0.04907100000000006
vn -0.99875 -0.005184000000000004 -0.049707
vn 0.99875 0.0052410000000000035 0.049706
vn -0.316263 0.947528 -0.046556000000000056
vn 0.316264 0.947528 -0.04655300000000005
vn -0.996351 -0.008933000000000005 -0.084883
vn 0.996351 0.008962000000000005 0.084883
vn 1 0 0
vn 1 0 0
vn 1 0 0
vn 1 0 0
vn 1 0 0
vn 1 0 0
vn 0.460358 -0.878056 0.13071900000000006
vn 0.558506 -0.814776 0.15560000000000004
vn 0.460358 -0.878056 0.13071900000000006
vn -0.943017 -0.275085 0.18720900000000001
vn -0.81892 -0.54987 0.16435900000000003
vn -0.943017 -0.275085 0.18720900000000001
vn -0.275629 0.943268 0.18513299999999994
vn -0.554996 0.820394 0.13759499999999994
vn -0.275629 0.943268 0.18513299999999994
vn 0.558506 -0.814776 0.15560000000000004
vn 0.758672 -0.562716 -0.32827799999999996
vn 0.558506 -0.814776 0.15560000000000004
vn -0.81892 -0.54987 0.16435900000000003
vn -0.562725 -0.758673 -0.32826199999999994
vn -0.81892 -0.54987 0.16435900000000003
vn -0.554996 0.820394 0.13759499999999994
vn -0.75867 0.562725 -0.32826700000000003
vn -0.554996 0.820394 0.13759499999999994
vn 0.460358 -0.878056 0.13071900000000006
vn 0.528323 -0.748784 0.40024600000000005
vn 0.460358 -0.878056 0.13071900000000006
vn -0.943017 -0.275085 0.18720900000000001
vn -0.504658 -0.676317 0.536578
vn -0.943017 -0.275085 0.18720900000000001
vn 0.874136 0.397149 0.279567
vn 0.735639 0.518355 0.43605399999999994
vn 0.735639 0.518355 0.43605399999999994
vn 0.68753 -0.726156 4.446423105408227E-17
vn 0.114331 -0.993443 6.08308395042672E-17
vn 0.906308 0.422618 -2.5877889048102807E-17
vn 0.906308 0.422618 -2.5877889048102807E-17
vn 0.906308 0.422618 -2.5877889048102807E-17
vn 0.68753 -0.726156 4.446423105408227E-17
vn -0.422618 0.906308 -5.549535956208197E-17
vn -0.422618 0.906308 -5.549535956208197E-17
vn -0.422618 0.906308 -5.549535956208197E-17
vn -0.658355 0.34009000000000006 0.671496
vn -0.428226 0.903672 -5.533395111395435E-17
vn -0.658355 0.34009000000000006 0.671496
vn 0.697905 -0.71619 4.3853989554067145E-17
vn 0.235135 -0.23300999999999994 0.94362
vn 0.697905 -0.71619 4.3853989554067145E-17
vn 1 0 0
vn 1 0 0
vn 1 0 0
vn 1 0 0
vn 1 0 0
vn 1 0 0
vn 1 0 0
vn 1 0 0
vn 1 0 0
vn 1 0 0
vn 1 0 0
vn 1 0 0
vn 1 0 0
vn 1 0 0
vn 1 0 0
vn 1 0 0
vn 1 0 0
vn 1 0 0
vn 1 0 0
vn 1 0 0
vn 1 0 0
vn 1 0 0
vn 1 0 0
vn 1 0 0
vn 1 0 0
vn 1 0 0
vn 1 0 0
vn 1 0 0
vn 1 0 0
vn 1 0 0
vn 1 0 0
vn 1 0 0
vn 1 0 0
vn 1 0 0
vn 1 0 0
vn 1 0 0
vn 1 0 0
vn 1 0 0
vn 1 0 0
vn -0.552138 0.786838 0.2757339999999999
vn -0.552138 0.786838 0.2757339999999999
vn 1 0 0
vn 1 0 0
vn 1 0 0
vn 1 0 0
vn 1 0 0
vn 1 0 0
vn -0.248829 0.91816 0.30832699999999996
vn -0.248829 0.91816 0.30832699999999996
vn -0.249728 0.928228 0.27573299999999995
vn -0.249728 0.928228 0.27573299999999995
vn -0.552141 0.786836 0.27573499999999995
vn -0.552141 0.786836 0.27573499999999995
vn -0.24883 0.91816 0.30832799999999994
vn -0.24883 0.91816 0.30832799999999994
vn 0.337997 0.932471 0.12749799999999994
vn 0.337997 0.932471 0.12749799999999994
vn 2.3E-05 -0.999942 0.010817000000000061
vn 2.3E-05 -0.999942 0.010817000000000061
vn 4E-06 0.999942 -0.01081600000000006
vn 1.6E-05 -0.998795 0.04907200000000006
vn -8E-06 0.998795 -0.04907200000000006
vn 1.6E-05 -0.998795 0.04907200000000006
vn -0.998751 -0.005240000000000003 -0.049697
vn -0.998751 -0.005240000000000003 -0.049697
vn 0.998751 0.005183000000000004 0.049697
vn 0.948687 -0.315837 0.015519000000000019
vn 0.948687 -0.315837 0.015519000000000019
vn 0.948694 0.315815 -0.015517000000000019
vn -0.316237 -0.947537 0.04655000000000006
vn -0.316237 -0.947537 0.04655000000000006
vn 0.316242 -0.947536 0.04655300000000005
vn -0.948698 0.315801 -0.01552100000000002
vn -0.948698 0.315801 -0.01552100000000002
vn -0.948683 -0.315849 0.015512000000000019
vn -0.996351 -0.008961000000000005 -0.084874
vn -0.996351 -0.008961000000000005 -0.084874
vn 0.996352 0.008932000000000006 0.084875
vn 1 0 0
vn 1 0 0
vn 1 0 0
vn 1 0 0
vn 1 0 0
vn 1 0 0
vn 1 0 0
vn 1 0 0
vn 1 0 0
g 01
f 323/323/323 325/325/325 326/326/326
f 326/326/326 324/324/324 323/323/323
f 551/551/551 552/552/552 681/681/681
f 680/680/680 679/679/679 551/551/551
f 319/319/319 321/321/321 322/322/322
f 322/322/322 320/320/320 319/319/319
f 549/549/549 550/550/550 678/678/678
f 677/677/677 676/676/676 549/549/549
f 315/315/315 317/317/317 318/318/318
f 318/318/318 316/316/316 315/315/315
f 547/547/547 548/548/548 675/675/675
f 674/674/674 673/673/673 547/547/547
f 311/311/311 313/313/313 314/314/314
f 314/314/314 312/312/312 311/311/311
f 545/545/545 672/672/672 671/671/671
f 670/670/670 546/546/546 545/545/545
f 307/307/307 308/308/308 310/310/310
f 310/310/310 309/309/309 307/307/307
f 543/543/543 669/669/669 668/668/668
f 667/667/667 544/544/544 543/543/543
f 306/306/306 666/666/666 665/665/665
f 664/664/664 302/302/302 306/306/306
f 305/305/305 663/663/663 662/662/662
f 661/661/661 301/301/301 305/305/305
f 304/304/304 303/303/303 299/299/299
f 299/299/299 300/300/300 304/304/304
f 541/541/541 660/660/660 659/659/659
f 658/658/658 542/542/542 541/541/541
f 295/295/295 296/296/296 298/298/298
f 298/298/298 297/297/297 295/295/295
f 657/657/657 540/540/540 539/539/539
f 539/539/539 656/656/656 655/655/655
f 292/292/292 291/291/291 293/293/293
f 293/293/293 294/294/294 292/292/292
f 537/537/537 654/654/654 653/653/653
f 652/652/652 538/538/538 537/537/537
f 288/288/288 287/287/287 289/289/289
f 289/289/289 290/290/290 288/288/288
f 533/533/533 536/536/536 535/535/535
f 535/535/535 534/534/534 533/533/533
f 523/523/523 529/529/529 530/530/530
f 530/530/530 651/651/651 523/523/523
f 529/529/529 532/532/532 531/531/531
f 531/531/531 530/530/530 529/529/529
f 274/274/274 521/521/521 527/527/527
f 527/527/527 284/284/284 274/274/274
f 527/527/527 528/528/528 285/285/285
f 285/285/285 284/284/284 527/527/527
f 273/273/273 519/519/519 525/525/525
f 525/525/525 281/281/281 273/273/273
f 525/525/525 526/526/526 282/282/282
f 282/282/282 281/281/281 525/525/525
f 272/272/272 271/271/271 275/275/275
f 275/275/275 278/278/278 272/272/272
f 275/275/275 276/276/276 279/279/279
f 279/279/279 278/278/278 275/275/275
f 522/522/522 524/524/524 523/523/523
f 523/523/523 650/650/650 522/522/522
f 520/520/520 521/521/521 274/274/274
f 274/274/274 286/286/286 520/520/520
f 518/518/518 519/519/519 273/273/273
f 273/273/273 283/283/283 518/518/518
f 277/277/277 271/271/271 272/272/272
f 272/272/272 280/280/280 277/277/277
f 514/514/514 517/517/517 516/516/516
f 516/516/516 515/515/515 514/514/514
f 504/504/504 510/510/510 511/511/511
f 511/511/511 649/649/649 504/504/504
f 510/510/510 513/513/513 512/512/512
f 512/512/512 511/511/511 510/510/510
f 258/258/258 502/502/502 508/508/508
f 508/508/508 268/268/268 258/258/258
f 508/508/508 509/509/509 269/269/269
f 269/269/269 268/268/268 508/508/508
f 257/257/257 500/500/500 506/506/506
f 506/506/506 265/265/265 257/257/257
f 506/506/506 507/507/507 266/266/266
f 266/266/266 265/265/265 506/506/506
f 256/256/256 255/255/255 259/259/259
f 259/259/259 262/262/262 256/256/256
f 259/259/259 260/260/260 263/263/263
f 263/263/263 262/262/262 259/259/259
f 503/503/503 505/505/505 504/504/504
f 504/504/504 648/648/648 503/503/503
f 501/501/501 502/502/502 258/258/258
f 258/258/258 270/270/270 501/501/501
f 499/499/499 500/500/500 257/257/257
f 257/257/257 267/267/267 499/499/499
f 261/261/261 255/255/255 256/256/256
f 256/256/256 264/264/264 261/261/261
f 495/495/495 498/498/498 497/497/497
f 497/497/497 496/496/496 495/495/495
f 485/485/485 491/491/491 492/492/492
f 492/492/492 647/647/647 485/485/485
f 491/491/491 494/494/494 493/493/493
f 493/493/493 492/492/492 491/491/491
f 242/242/242 483/483/483 489/489/489
f 489/489/489 252/252/252 242/242/242
f 489/489/489 490/490/490 253/253/253
f 253/253/253 252/252/252 489/489/489
f 241/241/241 481/481/481 487/487/487
f 487/487/487 249/249/249 241/241/241
f 487/487/487 488/488/488 250/250/250
f 250/250/250 249/249/249 487/487/487
f 240/240/240 239/239/239 243/243/243
f 243/243/243 246/246/246 240/240/240
f 243/243/243 244/244/244 247/247/247
f 247/247/247 246/246/246 243/243/243
f 484/484/484 486/486/486 485/485/485
f 485/485/485 646/646/646 484/484/484
f 482/482/482 483/483/483 242/242/242
f 242/242/242 254/254/254 482/482/482
f 480/480/480 481/481/481 241/241/241
f 241/241/241 251/251/251 480/480/480
f 245/245/245 239/239/239 240/240/240
f 240/240/240 248/248/248 245/245/245
f 476/476/476 479/479/479 478/478/478
f 478/478/478 477/477/477 476/476/476
f 466/466/466 472/472/472 473/473/473
f 473/473/473 645/645/645 466/466/466
f 472/472/472 475/475/475 474/474/474
f 474/474/474 473/473/473 472/472/472
f 226/226/226 464/464/464 470/470/470
f 470/470/470 236/236/236 226/226/226
f 470/470/470 471/471/471 237/237/237
f 237/237/237 236/236/236 470/470/470
f 225/225/225 462/462/462 468/468/468
f 468/468/468 233/233/233 225/225/225
f 468/468/468 469/469/469 234/234/234
f 234/234/234 233/233/233 468/468/468
f 224/224/224 223/223/223 227/227/227
f 227/227/227 230/230/230 224/224/224
f 227/227/227 228/228/228 231/231/231
f 231/231/231 230/230/230 227/227/227
f 465/465/465 467/467/467 466/466/466
f 466/466/466 644/644/644 465/465/465
f 463/463/463 464/464/464 226/226/226
f 226/226/226 238/238/238 463/463/463
f 461/461/461 462/462/462 225/225/225
f 225/225/225 235/235/235 461/461/461
f 229/229/229 223/223/223 224/224/224
f 224/224/224 232/232/232 229/229/229
f 457/457/457 460/460/460 459/459/459
f 459/459/459 458/458/458 457/457/457
f 447/447/447 453/453/453 454/454/454
f 454/454/454 643/643/643 447/447/447
f 453/453/453 456/456/456 455/455/455
f 455/455/455 454/454/454 453/453/453
f 210/210/210 445/445/445 451/451/451
f 451/451/451 220/220/220 210/210/210
f 451/451/451 452/452/452 221/221/221
f 221/221/221 220/220/220 451/451/451
f 209/209/209 443/443/443 449/449/449
f 449/449/449 217/217/217 209/209/209
f 449/449/449 450/450/450 218/218/218
f 218/218/218 217/217/217 449/449/449
f 208/208/208 207/207/207 211/211/211
f 211/211/211 214/214/214 208/208/208
f 211/211/211 212/212/212 215/215/215
f 215/215/215 214/214/214 211/211/211
f 446/446/446 448/448/448 447/447/447
f 447/447/447 642/642/642 446/446/446
f 444/444/444 445/445/445 210/210/210
f 210/210/210 222/222/222 444/444/444
f 442/442/442 443/443/443 209/209/209
f 209/209/209 219/219/219 442/442/442
f 213/213/213 207/207/207 208/208/208
f 208/208/208 216/216/216 213/213/213
f 168/168/168 206/206/206 203/203/203
f 203/203/203 159/159/159 168/168/168
f 158/158/158 204/204/204 205/205/205
f 205/205/205 174/174/174 158/158/158
f 190/190/190 202/202/202 199/199/199
f 199/199/199 172/172/172 190/190/190
f 171/171/171 200/200/200 201/201/201
f 201/201/201 189/189/189 171/171/171
f 176/176/176 198/198/198 195/195/195
f 195/195/195 438/438/438 176/176/176
f 170/170/170 196/196/196 197/197/197
f 197/197/197 175/175/175 170/170/170
f 440/440/440 193/193/193 194/194/194
f 194/194/194 441/441/441 440/440/440
f 181/181/181 191/191/191 192/192/192
f 192/192/192 182/182/182 181/181/181
f 174/174/174 178/178/178 162/162/162
f 174/174/174 186/186/186 178/178/178
f 178/178/178 439/439/439 162/162/162
f 168/168/168 159/159/159 173/173/173
f 437/437/437 165/165/165 172/172/172
f 165/165/165 190/190/190 172/172/172
f 165/165/165 188/188/188 190/190/190
f 165/165/165 166/166/166 188/188/188
f 166/166/166 180/180/180 188/188/188
f 171/171/171 189/189/189 436/436/436
f 189/189/189 187/187/187 436/436/436
f 187/187/187 163/163/163 436/436/436
f 187/187/187 179/179/179 163/163/163
f 163/163/163 164/164/164 436/436/436
f 159/159/159 183/183/183 173/173/173
f 183/183/183 184/184/184 173/173/173
f 184/184/184 160/160/160 173/173/173
f 160/160/160 169/169/169 173/173/173
f 158/158/158 174/174/174 162/162/162
f 176/176/176 438/438/438 437/437/437
f 437/437/437 172/172/172 176/176/176
f 436/436/436 170/170/170 175/175/175
f 175/175/175 171/171/171 436/436/436
f 177/177/177 173/173/173 167/167/167
f 177/177/177 168/168/168 173/173/173
f 177/177/177 185/185/185 168/168/168
f 181/181/181 162/162/162 157/157/157
f 181/181/181 182/182/182 162/162/162
f 182/182/182 158/158/158 162/162/162
f 162/162/162 161/161/161 157/157/157
f 434/434/434 435/435/435 641/641/641
f 640/640/640 639/639/639 434/434/434
f 155/155/155 153/153/153 154/154/154
f 154/154/154 156/156/156 155/155/155
f 432/432/432 433/433/433 638/638/638
f 637/637/637 636/636/636 432/432/432
f 149/149/149 151/151/151 152/152/152
f 152/152/152 150/150/150 149/149/149
f 428/428/428 431/431/431 430/430/430
f 430/430/430 429/429/429 428/428/428
f 418/418/418 424/424/424 425/425/425
f 425/425/425 635/635/635 418/418/418
f 424/424/424 427/427/427 426/426/426
f 426/426/426 425/425/425 424/424/424
f 136/136/136 416/416/416 422/422/422
f 422/422/422 146/146/146 136/136/136
f 422/422/422 423/423/423 147/147/147
f 147/147/147 146/146/146 422/422/422
f 135/135/135 414/414/414 420/420/420
f 420/420/420 143/143/143 135/135/135
f 420/420/420 421/421/421 144/144/144
f 144/144/144 143/143/143 420/420/420
f 134/134/134 133/133/133 137/137/137
f 137/137/137 140/140/140 134/134/134
f 137/137/137 138/138/138 141/141/141
f 141/141/141 140/140/140 137/137/137
f 417/417/417 419/419/419 418/418/418
f 418/418/418 634/634/634 417/417/417
f 415/415/415 416/416/416 136/136/136
f 136/136/136 148/148/148 415/415/415
f 413/413/413 414/414/414 135/135/135
f 135/135/135 145/145/145 413/413/413
f 139/139/139 133/133/133 134/134/134
f 134/134/134 142/142/142 139/139/139
f 130/130/130 129/129/129 131/131/131
f 131/131/131 132/132/132 130/130/130
f 633/633/633 632/632/632 412/412/412
f 412/412/412 411/411/411 631/631/631
f 127/127/127 125/125/125 126/126/126
f 126/126/126 128/128/128 127/127/127
f 409/409/409 410/410/410 630/630/630
f 629/629/629 628/628/628 409/409/409
f 122/122/122 121/121/121 123/123/123
f 123/123/123 124/124/124 122/122/122
f 627/627/627 626/626/626 408/408/408
f 408/408/408 407/407/407 625/625/625
f 115/115/115 113/113/113 114/114/114
f 114/114/114 116/116/116 115/115/115
f 405/405/405 406/406/406 624/624/624
f 623/623/623 622/622/622 405/405/405
f 117/117/117 119/119/119 120/120/120
f 120/120/120 118/118/118 117/117/117
f 621/621/621 620/620/620 404/404/404
f 404/404/404 403/403/403 619/619/619
f 111/111/111 109/109/109 110/110/110
f 110/110/110 112/112/112 111/111/111
f 399/399/399 402/402/402 401/401/401
f 401/401/401 400/400/400 399/399/399
f 396/396/396 398/398/398 55/55/55
f 55/55/55 397/397/397 396/396/396
f 392/392/392 395/395/395 394/394/394
f 394/394/394 393/393/393 392/392/392
f 389/389/389 29/29/29 391/391/391
f 391/391/391 390/390/390 389/389/389
f 386/386/386 53/53/53 388/388/388
f 388/388/388 387/387/387 386/386/386
f 383/383/383 385/385/385 384/384/384
f 384/384/384 32/32/32 383/383/383
f 381/381/381 618/618/618 617/617/617
f 616/616/616 382/382/382 381/381/381
f 107/107/107 106/106/106 105/105/105
f 105/105/105 108/108/108 107/107/107
f 379/379/379 615/615/615 614/614/614
f 613/613/613 380/380/380 379/379/379
f 103/103/103 102/102/102 101/101/101
f 101/101/101 104/104/104 103/103/103
f 377/377/377 612/612/612 611/611/611
f 610/610/610 378/378/378 377/377/377
f 99/99/99 98/98/98 97/97/97
f 97/97/97 100/100/100 99/99/99
f 375/375/375 609/609/609 608/608/608
f 607/607/607 376/376/376 375/375/375
f 95/95/95 94/94/94 93/93/93
f 93/93/93 96/96/96 95/95/95
f 606/606/606 605/605/605 374/374/374
f 374/374/374 373/373/373 604/604/604
f 91/91/91 89/89/89 90/90/90
f 90/90/90 92/92/92 91/91/91
f 603/603/603 602/602/602 372/372/372
f 372/372/372 371/371/371 601/601/601
f 87/87/87 85/85/85 86/86/86
f 86/86/86 88/88/88 87/87/87
f 600/600/600 599/599/599 370/370/370
f 370/370/370 369/369/369 598/598/598
f 83/83/83 81/81/81 82/82/82
f 82/82/82 84/84/84 83/83/83
f 597/597/597 596/596/596 368/368/368
f 368/368/368 367/367/367 595/595/595
f 79/79/79 77/77/77 78/78/78
f 78/78/78 80/80/80 79/79/79
f 594/594/594 76/76/76 366/366/366
f 366/366/366 593/593/593 592/592/592
f 591/591/591 365/365/365 75/75/75
f 75/75/75 590/590/590 589/589/589
f 66/66/66 73/73/73 74/74/74
f 74/74/74 65/65/65 66/66/66
f 363/363/363 358/358/358 72/72/72
f 72/72/72 364/364/364 363/363/363
f 70/70/70 355/355/355 362/362/362
f 362/362/362 361/361/361 70/70/70
f 67/67/67 68/68/68 360/360/360
f 360/360/360 359/359/359 67/67/67
f 71/71/71 72/72/72 358/358/358
f 358/358/358 357/357/357 71/71/71
f 69/69/69 356/356/356 355/355/355
f 355/355/355 70/70/70 69/69/69
f 66/66/66 65/65/65 68/68/68
f 68/68/68 67/67/67 66/66/66
f 61/61/61 64/64/64 63/63/63
f 63/63/63 62/62/62 61/61/61
f 353/353/353 54/54/54 354/354/354
f 56/56/56 54/54/54 353/353/353
f 57/57/57 59/59/59 60/60/60
f 60/60/60 58/58/58 57/57/57
f 48/48/48 52/52/52 342/342/342
f 342/342/342 346/346/346 48/48/48
f 47/47/47 51/51/51 50/50/50
f 50/50/50 345/345/345 47/47/47
f 49/49/49 343/343/343 352/352/352
f 352/352/352 351/351/351 49/49/49
f 46/46/46 350/350/350 349/349/349
f 349/349/349 45/45/45 46/46/46
f 346/346/346 348/348/348 347/347/347
f 347/347/347 48/48/48 346/346/346
f 47/47/47 345/345/345 44/44/44
f 44/44/44 41/41/41 47/47/47
f 38/38/38 37/37/37 344/344/344
f 344/344/344 40/40/40 38/38/38
f 46/46/46 45/45/45 343/343/343
f 343/343/343 49/49/49 46/46/46
f 41/41/41 44/44/44 43/43/43
f 43/43/43 42/42/42 41/41/41
f 341/341/341 342/342/342 52/52/52
f 52/52/52 39/39/39 341/341/341
f 51/51/51 37/37/37 38/38/38
f 38/38/38 50/50/50 51/51/51
f 33/33/33 34/34/34 340/340/340
f 340/340/340 339/339/339 33/33/33
f 31/31/31 35/35/35 36/36/36
f 36/36/36 30/30/30 31/31/31
f 337/337/337 588/588/588 587/587/587
f 586/586/586 338/338/338 337/337/337
f 26/26/26 25/25/25 28/28/28
f 28/28/28 27/27/27 26/26/26
f 585/585/585 584/584/584 583/583/583
f 582/582/582 581/581/581 580/580/580
f 23/23/23 22/22/22 21/21/21
f 21/21/21 24/24/24 23/23/23
f 19/19/19 18/18/18 17/17/17
f 17/17/17 20/20/20 19/19/19
f 335/335/335 336/336/336 579/579/579
f 578/578/578 577/577/577 335/335/335
f 576/576/576 575/575/575 334/334/334
f 334/334/334 10/10/10 574/574/574
f 573/573/573 572/572/572 333/333/333
f 333/333/333 8/8/8 571/571/571
f 331/331/331 332/332/332 6/6/6
f 6/6/6 12/12/12 331/331/331
f 570/570/570 330/330/330 329/329/329
f 329/329/329 569/569/569 568/568/568
f 567/567/567 9/9/9 15/15/15
f 15/15/15 566/566/566 565/565/565
f 564/564/564 7/7/7 14/14/14
f 14/14/14 563/563/563 562/562/562
f 11/11/11 5/5/5 13/13/13
f 13/13/13 16/16/16 11/11/11
f 561/561/561 328/328/328 327/327/327
f 327/327/327 560/560/560 559/559/559
f 558/558/558 10/10/10 9/9/9
f 9/9/9 557/557/557 556/556/556
f 555/555/555 8/8/8 7/7/7
f 7/7/7 554/554/554 553/553/553
f 12/12/12 6/6/6 5/5/5
f 5/5/5 11/11/11 12/12/12
f 4/4/4 3/3/3 2/2/2
f 2/2/2 1/1/1 4/4/4
