v -0.197021 1.486872 0.0006989999999999089
v -0.053622 0.763435 -4.6746911455352977E-17
v 1.120351 0.706195 -4.3241972316193255E-17
v -0.174653 1.423052 0.7764309999999999
v 1.130404 1.322618 0.7786699999999999
v -0.004546 0.84609 0.864828
v 1.086375 0.796116 0.864828
v -0.196384 1.437315 0.7791489999999999
v 1.149932 1.332705 0.7791489999999999
v 1.096461 0.702632 0.891861
v -0.250857 0.783816 0.885298
v 1.179373 1.380461 -0.0002790000000000845
v -1.462244 -1.066843 6.532529325713799E-17
v -1.308058 -0.912691 5.588620558802985E-17
v -1.090029 -0.912715 5.588767516418883E-17
v -0.935878 -1.066901 6.532884473285553E-17
v -0.935901 -1.284929 7.867920934908047E-17
v -1.090088 -1.439081 8.811829701818861E-17
v -1.308116 -1.439057 8.811682744202964E-17
v -1.462268 -1.284871 7.867565787336294E-17
v -1.372927 -1.103851 0.21707700000000005
v -1.271069 -1.002016 0.21707700000000005
v -1.126994 -1.001928 0.21708400000000005
v -1.372943 -1.247883 0.21707700000000008
v -1.39702 -1.113057 0.6930450000000001
v -1.373564 -1.120455 0.6930450000000001
v -1.479036 -1.077047 0.7296640000000001
v -0.887502 -1.263628 0.7296640000000001
v -1.486434 -1.100503 0.7296640000000001
v -0.894901 -1.287084 0.7296640000000001
v -1.403457 -1.133464 0.7370150000000001
v -1.380002 -1.140863 0.7370150000000001
v -1.390583 -1.092649 0.7370150000000001
v -1.367127 -1.100047 0.7370150000000001
v -1.185858 -1.194816 0.23636800000000008
v -1.190584 -1.175519 0.7212080000000001
v -1.181009 -1.198361 0.22246200000000008
v -1.184482 -1.180812 0.7212080000000001
v -1.208855 -1.130051 0.15160700000000005
v -1.160693 -1.185255 0.17062000000000008
v -1.234107 -1.20081 0.16077500000000008
v -1.226201 -1.098973 0.23185300000000006
v -1.160798 -1.173937 0.25767200000000007
v -1.260492 -1.195061 0.24430400000000008
v -1.000073 -1.236427 0.7004280000000002
v -1.006008 -1.235504 0.7085220000000001
v -1.175559 -1.184509 0.7212080000000001
v -1.185692 -1.177545 0.7212080000000001
v -1.114204 -1.196943 0.5560150000000001
v -1.117933 -1.198116 0.5458880000000002
v 1.427616 0.474323 0.31184499999999993
v 1.108896 0.897091 0.29361599999999993
v 1.446634 0.480884 0.31184499999999993
v 1.124523 0.909761 0.29361599999999993
v 1.313375 0.649641 0.2917489999999999
v 1.329001 0.662312 0.2917489999999999
v -0.209212 1.446043 -8.85445965689718E-17
v -0.187963 1.373504 0.7689929999999999
v -1.222564 -0.891037 -0.0009249999999999455
v -1.254204 -0.84766 -0.0009249999999999481
v -1.210826 -0.81602 -0.0009249999999999501
v -1.179187 -0.859398 -0.0009249999999999475
v -1.226653 -0.917166 0.13696200000000006
v -1.280332 -0.843571 0.13696200000000006
v -1.206737 -0.789892 0.13696200000000006
v -1.153058 -0.863486 0.13696200000000006
v -1.221922 -0.886935 0.21771600000000005
v -1.250102 -0.848301 0.21771600000000005
v -1.211468 -0.820122 0.21771600000000005
v -1.183288 -0.858756 0.21771600000000005
v -1.356549 -1.118229 -0.02148099999999993
v -1.336339 -1.126243 -0.02148099999999993
v 0.230838 0.11827 -0.0028600000000000075
v 0.207447 0.13035400000000008 1.225258
v 0.209171 0.100089 -0.002908000000000006
v 0.184885 0.11142100000000008 1.225211
v 0.71537 0.507188 0.534235
v 0.597063 0.44122700000000004 0.567206
v 0.703732 0.522206 0.705641
v 0.608701 0.42620800000000003 0.741938
v 0.714758 0.507978 0.705641
v 0.597675 0.4404370000000001 0.741938
v 0.70312 0.522997 0.534235
v 0.609313 0.4254180000000001 0.567206
v 0.550476 0.40398900000000004 0.762106
v 0.561501 0.3897610000000001 0.762106
v 0.491339 0.33179100000000006 0.790353
v 0.480314 0.3460190000000001 0.790353
v 0.479701 0.34681000000000006 0.682716
v 0.549863 0.40478000000000003 0.657795
v 0.562114 0.38897000000000004 0.657795
v 0.491952 0.33100100000000005 0.682716
v 0.20254 0.11969400000000006 1.078691
v 0.209583 0.11570700000000007 1.069786
v 0.420803 0.29269300000000004 0.803633
v 0.427231 0.28821800000000003 0.795502
v 0.712533 0.523924 0.696398
v 0.717622 0.518387 0.68876
v 1.024313 0.771046 0.708109
v 1.028872 0.765089 0.700451
v -1.448448 0.019637 0.0009199999999999988
v -1.43028 0.028109 0.0026149999999999984
v -1.18694 0.451488 0.311845
v -1.355026 0.18658900000000003 0.291749
v -1.201166 0.465714 0.31184499999999993
v -1.37326 0.19509200000000002 0.291749
v -1.452748 -0.048259999999999977 0.293616
v -1.470981 -0.03975799999999998 0.293616
v -1.402735 0.106212 -6.503609291551934E-18
v -1.413782 0.10089600000000001 0.336372
v -1.409617 0.087308 -5.3460731369978554E-18
v -1.420663 0.08199000000000001 0.336372
v -1.342244 0.197756 -1.2109062620609198E-17
v -1.350856 0.20049600000000004 0.336372
v -1.349126 0.178852 -1.0951526466055122E-17
v -1.357736 0.18159100000000003 0.336372
v -1.42351 1.012239 -6.198176256610589E-17
v -0.208232 1.443403 0.00045599999999991166
v -1.051739 -0.009194 5.629701335680383E-19
v 0.151692 0.423842 -2.5952837432210624E-17
v -1.351861 0.9337670000000001 0.9758289999999998
v -0.183484 1.353798 0.9758289999999998
v -1.043088 0.08542000000000005 0.975829
v 0.124113 0.5086800000000001 0.975829
v -0.343565 0.006769000000000079 1.283148
v -0.379974 -0.028031 -0.002971999999999998
v -0.322851 0.004955000000000079 1.28314
v -0.737335 1.114861 0.9585119999999999
v -0.758574 1.123769 1.126944
v -0.765689 1.128084 0.9582629999999999
v -0.785262 1.136215 1.126719
v -0.765481 1.123498 1.072308
v -0.758302 1.127859 1.070199
v -1.278021 1.443344 -0.011013000000000089
v -1.270841 1.447704 -0.013122000000000088
v -1.446213 -0.03922199999999996 0.725494
v -1.438774 -0.04033199999999996 0.721183
v -1.378761 0.838423 0.844236
v -1.371158 0.83947 0.840208
v -1.437665 -0.048825999999999946 0.914615
v -1.435317 -0.056235999999999946 0.912496
v -0.762295 0.09256800000000005 0.843454
v -0.76377 0.08511400000000005 0.842155
v -0.553404 0.04784300000000005 0.947939
v -0.557354 0.04088900000000006 0.94337
v -0.326922 -0.007632999999999929 1.167773
v -0.3314 -0.01445799999999993 1.162692
v -0.838387 -0.85858 0.34777800000000003
v -1.009531 -0.903078 0.38992200000000005
v -1.014659 -0.844477 0.38992200000000005
v -1.075261 -0.879304 0.34777800000000003
v -0.988887 -0.655792 0.34777800000000003
v -1.020886 -0.829707 0.38992200000000005
v -1.076164 -0.809588 0.38992200000000005
v -1.070212 -0.879231 0.34777800000000003
v -0.974267 -1.093839 0.34777800000000003
v -1.074616 -0.948235 0.38992200000000005
v -1.021303 -0.923374 0.38992200000000005
v -1.074756 -0.878338 0.34777800000000003
v -1.247465 -1.030567 0.34777800000000003
v -1.132795 -0.895951 0.38992200000000005
v -1.094982 -0.941014 0.38992200000000005
v -1.067611 -0.882137 0.34777800000000003
v -1.203112 -0.69219 0.34777800000000003
v -1.079004 -0.818156 0.38992200000000005
v -1.127191 -0.851897 0.38992200000000005
v -1.030967 -0.964659 0.12227600000000005
v -1.150856 -0.921024 0.12227600000000005
v -1.106707 -0.799726 0.12227600000000005
v -0.98682 -0.843361 0.12227600000000005
v -1.088652 -0.839042 -0.0029989999999999488
v -1.025922 -0.861874 -0.002998999999999947
v -1.049022 -0.925343 -0.002998999999999943
v -1.111754 -0.902511 -0.002998999999999945
v -1.063211 -0.864569 0.11512200000000006
v -1.075207 -0.896936 0.11512200000000006
v -1.063211 -0.864569 0.3486250000000001
v -1.075207 -0.896936 0.3486250000000001
v -0.895653 0.28287600000000007 0.916683
v -0.95482 0.22371000000000005 0.916683
v -1.013986 0.28287600000000007 0.916683
v -0.95482 0.34204300000000004 0.916683
v -0.854438 0.28287600000000007 1.011863
v -0.95482 0.18249500000000005 1.011863
v -1.055201 0.28287600000000007 1.011863
v -0.95482 0.38325800000000004 1.011863
v -0.917277 0.28287600000000007 1.107043
v -0.95482 0.24533300000000005 1.107043
v -0.992363 0.28287600000000007 1.107043
v -0.95482 0.32042000000000004 1.107043
v 1.168655 0.824859 0.33637199999999995
v 1.301185 0.65583 0.33637199999999995
v 1.40406 0.549085 0.33637199999999995
v 0.36304 -1.032861 0.7427360000000001
v -0.099624 -0.838046 0.819348
v 0.937315 -1.00454 0.7417650000000001
v 0.998087 -0.7428019999999999 0.996613
v -0.081214 -0.5257219999999999 0.996613
v -1.220807 0.39566 0.358878
v -1.227688 0.376755 0.358878
v -1.010612 -1.236038 0.6968000000000001
v -0.987155 -1.243436 0.6968000000000001
v -1.017049 -1.256446 0.7407700000000002
v -0.993593 -1.263844 0.7407700000000002
v -1.004174 -1.215631 0.7407700000000002
v -0.980719 -1.223029 0.7407700000000002
v 1.177732 0.796124 -4.874853541621937E-17
v 1.166471 0.812795 -4.9769339755648653E-17
v 1.305171 0.633797 -3.8808873367959756E-17
v 1.293911 0.650469 -3.982973893972898E-17
v 1.40407 0.546654 -3.347290356705486E-17
v 1.39281 0.563326 -3.449376913882409E-17
v 1.260375 0.755389 -4.6254236048056E-17
v 1.249115 0.77206 -4.727504038748527E-17
v 0.405275 -1.049844 -0.021719999999999934
v 0.371959 -1.04095 -0.022497999999999938
v -0.220449 -0.801134 -0.02002399999999995
v -0.235026 -0.769874 -0.02002399999999995
v 0.999075 -1.06469 -0.020023999999999934
v 0.978667 -1.096506 -0.020023999999999934
v 1.126153 -0.756658 -0.020023999999999955
v 1.09395 -0.775251 -0.02002399999999995
v 0.485201 -0.379354 -0.020023999999999976
v 0.521821 -0.385811 -0.020023999999999976
v -0.188292 -0.493377 -0.02002399999999997
v -0.161998 -0.519671 -0.02002399999999997
v 0.540929 -0.671175 -0.000924999999999959
v 0.578894 -0.70914 -0.0009249999999999566
v 0.540929 -0.747105 -0.0009249999999999543
v 0.502964 -0.70914 -0.0009249999999999566
v 0.476518 -0.70914 0.13696200000000006
v 0.540929 -0.644728 0.13696200000000003
v 0.605341 -0.70914 0.13696200000000006
v 0.540929 -0.773551 0.13696200000000006
v 0.507116 -0.70914 0.21771600000000005
v 0.540929 -0.675327 0.21771600000000002
v 0.574743 -0.70914 0.21771600000000005
v 0.540929 -0.742953 0.21771600000000005
v 0.433159 -0.846283 -0.0009249999999999482
v 0.328437 -0.846283 -0.0009249999999999482
v 0.328437 -0.741561 -0.0009249999999999546
v 0.433159 -0.741561 -0.0009249999999999546
v 0.469634 -0.882758 0.11819700000000005
v 0.291963 -0.882758 0.11819700000000005
v 0.291963 -0.705087 0.11819700000000004
v 0.469634 -0.705087 0.11819700000000004
v 0.414023 -0.827147 0.23732000000000006
v 0.347574 -0.827147 0.23732000000000006
v 0.347574 -0.760697 0.23732000000000006
v 0.414023 -0.760697 0.23732000000000006
v 1.210325 1.358985 -0.0009250000000000833
v 1.264016 1.358985 -0.0009250000000000833
v 1.264015 1.305294 -0.00092500000000008
v 1.210325 1.305294 -0.00092500000000008
v 1.191625 1.377685 0.13696199999999992
v 1.282716 1.377685 0.13696199999999992
v 1.282716 1.286594 0.13696199999999992
v 1.191625 1.286594 0.13696199999999992
v 1.213261 1.356049 0.2177159999999999
v 1.26108 1.356049 0.2177159999999999
v 1.26108 1.30823 0.2177159999999999
v 1.213261 1.30823 0.2177159999999999
v -1.066602 -1.233441 -0.020898999999999925
v -1.046393 -1.241455 -0.020898999999999925
v 1.18813 1.212268 -0.0004710000000000742
v 1.228187 1.24588 -0.0004710000000000763
v 1.261798 1.205823 -0.00047100000000007384
v 1.221741 1.172212 -0.0004710000000000718
v 1.162472 1.214513 0.10098299999999993
v 1.230431 1.271538 0.10098299999999992
v 1.287456 1.203579 0.10098299999999993
v 1.219497 1.146554 0.10098299999999993
v 1.198281 1.21138 0.20243699999999992
v 1.227298 1.235729 0.20243699999999992
v 1.251647 1.206711 0.20243699999999992
v 1.22263 1.182363 0.20243699999999992
v -0.180748 1.297913 0.9110709999999999
v -0.170675 1.325671 1.131971
v -0.210555 1.308761 0.9110179999999999
v -0.198353 1.335744 1.131923
v 0.069048 0.5309370000000001 0.917818
v 0.078144 0.5271770000000001 1.097052
v 0.099866 0.5363720000000001 0.917765
v 0.107151 0.5322930000000001 1.097004
v 0.405561 0.622773 -0.014964000000000038
v 0.331511 0.548723 -0.014964000000000033
v 0.257462 0.622773 -0.014964000000000038
v 0.331511 0.696822 -0.014964000000000043
v 0.457144 0.622773 0.10415799999999996
v 0.331511 0.49714 0.10415799999999997
v 0.205878 0.622773 0.10415799999999996
v 0.331511 0.748406 0.10415799999999996
v 0.378498 0.622773 0.22328099999999998
v 0.331511 0.575786 0.22328099999999998
v 0.284524 0.622773 0.22328099999999998
v 0.331511 0.66976 0.22328099999999998
v 0.203725 0.656138 -0.01680100000000004
v 0.051517 0.7950500000000001 1.194192
v 0.182083 0.637933 -0.017244000000000037
v 0.02898 0.7760920000000001 1.193733
v -1.212856 0.401809 -2.4603705285929945E-17
v -1.219736 0.382904 -2.3446107899035908E-17
v -1.294611 0.321995 -1.9716507304572598E-17
v -1.301492 0.30309 -1.8558909917678567E-17
v -0.470804 0.33113600000000004 0.917818
v -0.463701 0.3197400000000001 1.097052
v -0.439985 0.33657100000000006 0.917765
v -0.434695 0.32485500000000006 1.097004
v 1.215523 0.392525 0.347778
v 1.141982 0.553343 0.38992199999999994
v 1.198803 0.568568 0.38992199999999994
v 1.153981 0.622202 0.3477779999999999
v 1.389096 0.575953 0.3477779999999999
v 1.212266 0.577266 0.38992199999999994
v 1.222481 0.635198 0.38992199999999994
v 1.154929 0.617242 0.3477779999999999
v 0.975113 0.765523 0.3477779999999999
v 1.127596 0.675971 0.38992199999999994
v 1.089783 0.630908 0.38992199999999994
v 1.152519 0.614176 0.3477779999999999
v 1.316051 0.780603 0.3477779999999999
v 1.21355 0.636506 0.38992199999999994
v 1.171954 0.678102 0.38992199999999994
v 1.077614 0.56376 0.12227599999999997
v 1.099768 0.689404 0.12227599999999995
v 1.22689 0.666989 0.12227599999999995
v 1.204736 0.541346 0.12227599999999997
v 1.191306 0.642381 -0.0029990000000000394
v 1.179713 0.576639 -0.002999000000000035
v 1.113198 0.588368 -0.002999000000000036
v 1.12479 0.65411 -0.00299900000000004
v 1.150708 0.598976 0.11512199999999996
v 1.156503 0.633005 0.11512199999999996
v 1.150708 0.598976 0.34862599999999994
v 1.156503 0.633005 0.34862599999999994
v -1.448448 -0.06414299999999995 0.99188
v -1.43028 -0.055670999999999936 0.993575
v 1.179916 0.808187 0.33637199999999995
v 1.312445 0.639158 0.33637199999999995
v 1.3928 0.565757 0.33637199999999995
v 1.257381 0.74691 0.33637199999999995
v 1.24612 0.763582 0.33637199999999995
v 0.398958 -1.042449 0.7435740000000001
v -0.11534 -0.804345 0.819348
v 0.911022 -1.030833 0.7417650000000001
v 1.031788 -0.7270869999999999 0.996613
v 0.465231 -0.49436699999999995 1.088992
v 0.501851 -0.5008229999999999 1.088992
v -0.107508 -0.4994279999999999 0.996613
v -1.296573 0.320559 0.336372
v -1.303454 0.301654 0.336372
v -1.067611 -0.882137 0.34777800000000003
v 1.152519 0.614176 0.3477779999999999
v 0.960243 0.485488 0.3477779999999999
v 1.086209 0.609597 0.38992199999999994
v 1.11995 0.561411 0.38992199999999994
v 1.15502 0.621873 0.3477779999999999
v -1.127081 -1.002136 0.21707100000000004
v -1.025203 -1.103889 0.21707700000000005
v -1.025219 -1.247921 0.21707700000000008
v -1.127076 -1.349756 0.21707700000000008
v -1.271108 -1.34974 0.21707700000000008
v 0.622464 -1.054435 0.08696800000000007
v 0.538183 -0.99945 0.11595100000000005
v 0.556832 -0.930499 0.03937000000000006
v 0.641113 -0.985484 0.010387000000000061
v 0.71277 -1.033365 0.17780800000000005
v 0.569779 -0.940077 0.22698100000000004
v 0.601418 -0.823094 0.09705300000000006
v 0.74441 -0.916382 0.047881000000000055
v 0.745363 -0.903313 0.22679400000000005
v 0.691884 -0.868423 0.24518400000000007
v 0.703717 -0.824671 0.19659100000000004
v 0.757196 -0.859561 0.17820000000000005
v -1.184482 -1.180812 0.7212080000000001
v -1.185858 -1.194816 0.23636800000000008
v -1.185858 -1.194816 0.23636800000000008
v -1.184482 -1.180812 0.7212080000000001
v -1.000073 -1.236427 0.7004280000000002
v -1.114204 -1.196943 0.5560150000000001
v -1.114204 -1.196943 0.5560150000000001
v -1.000073 -1.236427 0.7004280000000002
v -1.175559 -1.184509 0.7212080000000001
v -1.117933 -1.198116 0.5458880000000002
v -1.114204 -1.196943 0.5560150000000001
v -1.117933 -1.198116 0.5458880000000002
v -1.373564 -1.120455 0.6930450000000001
v -1.39702 -1.113057 0.6930450000000001
v -1.39702 -1.113057 0.6930450000000001
v -1.373564 -1.120455 0.6930450000000001
v -0.987155 -1.243436 0.6968000000000001
v -1.010612 -1.236038 0.6968000000000001
v -1.010612 -1.236038 0.6968000000000001
v -0.987155 -1.243436 0.6968000000000001
v -1.373564 -1.120455 0.6930450000000001
v -1.190584 -1.175519 0.7212080000000001
v -1.181009 -1.198361 0.22246200000000008
v -1.006008 -1.235504 0.7085220000000001
v -1.175559 -1.184509 0.7212080000000001
v -1.185692 -1.177545 0.7212080000000001
v -1.117933 -1.198116 0.5458880000000002
v -1.356549 -1.118229 -0.02148099999999993
v -0.987155 -1.243436 0.6968000000000001
v -1.066602 -1.233441 -0.020898999999999925
v -1.356549 -1.118229 -0.02148099999999993
v -1.066602 -1.233441 -0.020898999999999925
v 1.086375 0.796116 0.864828
v 1.120351 0.706195 -4.3241972316193255E-17
v -0.004546 0.84609 0.864828
v 1.179373 1.380461 -0.0002790000000000845
v 1.130404 1.322618 0.7786699999999999
v -1.271069 -1.002016 0.21707700000000005
v -1.372927 -1.103851 0.21707700000000005
v -1.025203 -1.103889 0.21707700000000005
v -1.025219 -1.247921 0.21707700000000008
v -1.025203 -1.103889 0.21707700000000005
v -0.935878 -1.066901 6.532884473285553E-17
v -1.127076 -1.349756 0.21707700000000008
v -1.271108 -1.34974 0.21707700000000008
v -1.372943 -1.247883 0.21707700000000008
v -1.226201 -1.098973 0.23185300000000006
v -1.208855 -1.130051 0.15160700000000005
v -1.226201 -1.098973 0.23185300000000006
v -1.160798 -1.173937 0.25767200000000007
v -1.260492 -1.195061 0.24430400000000008
v -0.174653 1.423052 0.7764309999999999
v -0.187963 1.373504 0.7689929999999999
v -0.209212 1.446043 -8.85445965689718E-17
v -0.197021 1.486872 0.0006989999999999089
v -1.280332 -0.843571 0.13696200000000006
v -1.254204 -0.84766 -0.0009249999999999481
v -1.250102 -0.848301 0.21771600000000005
v -1.183288 -0.858756 0.21771600000000005
v -1.221922 -0.886935 0.21771600000000005
v -1.250102 -0.848301 0.21771600000000005
v -1.211468 -0.820122 0.21771600000000005
v -1.356549 -1.118229 -0.02148099999999993
v 0.184885 0.11142100000000008 1.225211
v 0.209171 0.100089 -0.002908000000000006
v -1.420663 0.08199000000000001 0.336372
v -1.409617 0.087308 -5.3460731369978554E-18
v -1.357736 0.18159100000000003 0.336372
v -1.349126 0.178852 -1.0951526466055122E-17
v 0.124113 0.5086800000000001 0.975829
v 0.151692 0.423842 -2.5952837432210624E-17
v -0.322851 0.004955000000000079 1.28314
v -0.758574 1.123769 1.126944
v -0.737335 1.114861 0.9585119999999999
v 0.124113 0.5086800000000001 0.975829
v -1.043088 0.08542000000000005 0.975829
v -0.183484 1.353798 0.9758289999999998
v -1.051739 -0.009194 5.629701335680383E-19
v -1.351861 0.9337670000000001 0.9758289999999998
v -1.043088 0.08542000000000005 0.975829
v -1.42351 1.012239 -6.198176256610589E-17
v -0.208232 1.443403 0.00045599999999991166
v -0.183484 1.353798 0.9758289999999998
v -1.351861 0.9337670000000001 0.9758289999999998
v -0.98682 -0.843361 0.12227600000000005
v -1.030967 -0.964659 0.12227600000000005
v -1.150856 -0.921024 0.12227600000000005
v -1.111754 -0.902511 -0.002998999999999945
v -1.063211 -0.864569 0.11512200000000006
v -1.063211 -0.864569 0.3486250000000001
v -0.95482 0.18249500000000005 1.011863
v -0.95482 0.22371000000000005 0.916683
v -0.95482 0.24533300000000005 1.107043
v -0.95482 0.32042000000000004 1.107043
v -0.917277 0.28287600000000007 1.107043
v -0.95482 0.24533300000000005 1.107043
v -0.992363 0.28287600000000007 1.107043
v -1.010612 -1.236038 0.6968000000000001
v -0.987155 -1.243436 0.6968000000000001
v 1.168655 0.824859 0.33637199999999995
v 1.166471 0.812795 -4.9769339755648653E-17
v 1.301185 0.65583 0.33637199999999995
v 1.293911 0.650469 -3.982973893972898E-17
v 1.3928 0.565757 0.33637199999999995
v 1.39281 0.563326 -3.449376913882409E-17
v 1.24612 0.763582 0.33637199999999995
v 1.249115 0.77206 -4.727504038748527E-17
v 0.36304 -1.032861 0.7427360000000001
v 0.371959 -1.04095 -0.022497999999999938
v -0.220449 -0.801134 -0.02002399999999995
v -0.099624 -0.838046 0.819348
v 0.911022 -1.030833 0.7417650000000001
v 0.978667 -1.096506 -0.020023999999999934
v 1.031788 -0.7270869999999999 0.996613
v 1.126153 -0.756658 -0.020023999999999955
v 0.501851 -0.5008229999999999 1.088992
v 0.521821 -0.385811 -0.020023999999999976
v -0.107508 -0.4994279999999999 0.996613
v -0.188292 -0.493377 -0.02002399999999997
v 0.540929 -0.644728 0.13696200000000003
v 0.540929 -0.671175 -0.000924999999999959
v 0.540929 -0.675327 0.21771600000000002
v 0.540929 -0.742953 0.21771600000000005
v 0.507116 -0.70914 0.21771600000000005
v 0.540929 -0.675327 0.21771600000000002
v 0.574743 -0.70914 0.21771600000000005
v 0.291963 -0.882758 0.11819700000000005
v 0.328437 -0.846283 -0.0009249999999999482
v 0.414023 -0.827147 0.23732000000000006
v 0.291963 -0.882758 0.11819700000000005
v 0.347574 -0.827147 0.23732000000000006
v 0.414023 -0.760697 0.23732000000000006
v 0.414023 -0.827147 0.23732000000000006
v 0.347574 -0.827147 0.23732000000000006
v 0.347574 -0.760697 0.23732000000000006
v 1.282716 1.377685 0.13696199999999992
v 1.264016 1.358985 -0.0009250000000000833
v 1.26108 1.356049 0.2177159999999999
v 1.213261 1.30823 0.2177159999999999
v 1.213261 1.356049 0.2177159999999999
v 1.26108 1.356049 0.2177159999999999
v 1.26108 1.30823 0.2177159999999999
v -0.987155 -1.243436 0.6968000000000001
v -1.046393 -1.241455 -0.020898999999999925
v 1.230431 1.271538 0.10098299999999992
v 1.228187 1.24588 -0.0004710000000000763
v 1.198281 1.21138 0.20243699999999992
v 1.230431 1.271538 0.10098299999999992
v 1.227298 1.235729 0.20243699999999992
v 1.22263 1.182363 0.20243699999999992
v 1.198281 1.21138 0.20243699999999992
v 1.227298 1.235729 0.20243699999999992
v 1.251647 1.206711 0.20243699999999992
v -0.180748 1.297913 0.9110709999999999
v -0.170675 1.325671 1.131971
v 0.107151 0.5322930000000001 1.097004
v 0.099866 0.5363720000000001 0.917765
v 0.331511 0.49714 0.10415799999999997
v 0.331511 0.548723 -0.014964000000000033
v 0.331511 0.575786 0.22328099999999998
v 0.331511 0.66976 0.22328099999999998
v 0.378498 0.622773 0.22328099999999998
v 0.331511 0.575786 0.22328099999999998
v 0.284524 0.622773 0.22328099999999998
v 0.02898 0.7760920000000001 1.193733
v 0.182083 0.637933 -0.017244000000000037
v -1.227688 0.376755 0.358878
v -1.219736 0.382904 -2.3446107899035908E-17
v -1.303454 0.301654 0.336372
v -1.301492 0.30309 -1.8558909917678567E-17
v -0.434695 0.32485500000000006 1.097004
v -0.439985 0.33657100000000006 0.917765
v 1.204736 0.541346 0.12227599999999997
v 1.077614 0.56376 0.12227599999999997
v 1.099768 0.689404 0.12227599999999995
v 1.12479 0.65411 -0.00299900000000004
v 1.150708 0.598976 0.34862599999999994
v 1.150708 0.598976 0.11512199999999996
v -1.448448 0.019637 0.0009199999999999988
v -1.448448 -0.06414299999999995 0.99188
v -1.43028 -0.055670999999999936 0.993575
v 0.569779 -0.940077 0.22698100000000004
v 0.538183 -0.99945 0.11595100000000005
v 0.691884 -0.868423 0.24518400000000007
v 0.757196 -0.859561 0.17820000000000005
v 0.745363 -0.903313 0.22679400000000005
v 0.691884 -0.868423 0.24518400000000007
v 0.703717 -0.824671 0.19659100000000004
v -1.39702 -1.113057 0.6930450000000001
v -1.373564 -1.120455 0.6930450000000001
v -1.373564 -1.120455 0.6930450000000001
v -1.160798 -1.173937 0.25767200000000007
v -1.160693 -1.185255 0.17062000000000008
v -1.234107 -1.20081 0.16077500000000008
v -1.234107 -1.20081 0.16077500000000008
v -1.260492 -1.195061 0.24430400000000008
v -1.160798 -1.173937 0.25767200000000007
v -1.117933 -1.198116 0.5458880000000002
v -1.114204 -1.196943 0.5560150000000001
v -1.175559 -1.184509 0.7212080000000001
v -1.117933 -1.198116 0.5458880000000002
v -1.206737 -0.789892 0.13696200000000006
v -1.210826 -0.81602 -0.0009249999999999501
v -1.206737 -0.789892 0.13696200000000006
v -1.153058 -0.863486 0.13696200000000006
v -1.179187 -0.859398 -0.0009249999999999475
v -1.222564 -0.891037 -0.0009249999999999455
v -1.222564 -0.891037 -0.0009249999999999455
v -1.226653 -0.917166 0.13696200000000006
v -1.153058 -0.863486 0.13696200000000006
v -1.211468 -0.820122 0.21771600000000005
v -1.206737 -0.789892 0.13696200000000006
v -1.206737 -0.789892 0.13696200000000006
v -1.221922 -0.886935 0.21771600000000005
v -1.183288 -0.858756 0.21771600000000005
v -1.153058 -0.863486 0.13696200000000006
v -1.153058 -0.863486 0.13696200000000006
v -1.226653 -0.917166 0.13696200000000006
v -1.221922 -0.886935 0.21771600000000005
v -1.373564 -1.120455 0.6930450000000001
v -1.336339 -1.126243 -0.02148099999999993
v 0.230838 0.11827 -0.0028600000000000075
v 0.230838 0.11827 -0.0028600000000000075
v 0.207447 0.13035400000000008 1.225258
v 0.703732 0.522206 0.705641
v 0.597675 0.4404370000000001 0.741938
v 0.597675 0.4404370000000001 0.741938
v 0.608701 0.42620800000000003 0.741938
v 0.714758 0.507978 0.705641
v 0.714758 0.507978 0.705641
v 0.550476 0.40398900000000004 0.762106
v 0.480314 0.3460190000000001 0.790353
v 0.480314 0.3460190000000001 0.790353
v 0.491339 0.33179100000000006 0.790353
v 0.561501 0.3897610000000001 0.762106
v 0.561501 0.3897610000000001 0.762106
v -1.448448 0.019637 0.0009199999999999988
v -1.43028 -0.055670999999999936 0.993575
v -1.402735 0.106212 -6.503609291551934E-18
v -1.402735 0.106212 -6.503609291551934E-18
v -1.413782 0.10089600000000001 0.336372
v -1.342244 0.197756 -1.2109062620609198E-17
v -1.342244 0.197756 -1.2109062620609198E-17
v -1.350856 0.20049600000000004 0.336372
v -0.343565 0.006769000000000079 1.283148
v -0.379974 -0.028031 -0.002971999999999998
v -0.765689 1.128084 0.9582629999999999
v -0.765689 1.128084 0.9582629999999999
v -0.785262 1.136215 1.126719
v -1.106707 -0.799726 0.12227600000000005
v -1.025922 -0.861874 -0.002998999999999947
v -0.98682 -0.843361 0.12227600000000005
v -1.025922 -0.861874 -0.002998999999999947
v -1.049022 -0.925343 -0.002998999999999943
v -1.030967 -0.964659 0.12227600000000005
v -1.049022 -0.925343 -0.002998999999999943
v -1.088652 -0.839042 -0.0029989999999999488
v -1.106707 -0.799726 0.12227600000000005
v -1.106707 -0.799726 0.12227600000000005
v -1.150856 -0.921024 0.12227600000000005
v -1.075207 -0.896936 0.3486250000000001
v -1.075207 -0.896936 0.11512200000000006
v -1.075207 -0.896936 0.3486250000000001
v -1.055201 0.28287600000000007 1.011863
v -1.013986 0.28287600000000007 0.916683
v -1.055201 0.28287600000000007 1.011863
v -0.95482 0.38325800000000004 1.011863
v -0.95482 0.34204300000000004 0.916683
v -0.895653 0.28287600000000007 0.916683
v -0.895653 0.28287600000000007 0.916683
v -0.854438 0.28287600000000007 1.011863
v -0.95482 0.38325800000000004 1.011863
v -0.992363 0.28287600000000007 1.107043
v -1.055201 0.28287600000000007 1.011863
v -1.055201 0.28287600000000007 1.011863
v -0.917277 0.28287600000000007 1.107043
v -0.95482 0.32042000000000004 1.107043
v -0.95482 0.38325800000000004 1.011863
v -0.95482 0.38325800000000004 1.011863
v -0.854438 0.28287600000000007 1.011863
v -0.917277 0.28287600000000007 1.107043
v 1.177732 0.796124 -4.874853541621937E-17
v 1.177732 0.796124 -4.874853541621937E-17
v 1.179916 0.808187 0.33637199999999995
v 1.305171 0.633797 -3.8808873367959756E-17
v 1.305171 0.633797 -3.8808873367959756E-17
v 1.312445 0.639158 0.33637199999999995
v 1.40407 0.546654 -3.347290356705486E-17
v 1.40407 0.546654 -3.347290356705486E-17
v 1.40406 0.549085 0.33637199999999995
v 1.260375 0.755389 -4.6254236048056E-17
v 1.260375 0.755389 -4.6254236048056E-17
v 1.257381 0.74691 0.33637199999999995
v 0.405275 -1.049844 -0.021719999999999934
v 0.405275 -1.049844 -0.021719999999999934
v 0.398958 -1.042449 0.7435740000000001
v -0.11534 -0.804345 0.819348
v -0.235026 -0.769874 -0.02002399999999995
v -0.11534 -0.804345 0.819348
v 0.999075 -1.06469 -0.020023999999999934
v 0.999075 -1.06469 -0.020023999999999934
v 0.937315 -1.00454 0.7417650000000001
v 1.09395 -0.775251 -0.02002399999999995
v 1.09395 -0.775251 -0.02002399999999995
v 0.998087 -0.7428019999999999 0.996613
v 0.485201 -0.379354 -0.020023999999999976
v 0.485201 -0.379354 -0.020023999999999976
v 0.465231 -0.49436699999999995 1.088992
v -0.161998 -0.519671 -0.02002399999999997
v -0.161998 -0.519671 -0.02002399999999997
v -0.081214 -0.5257219999999999 0.996613
v 0.605341 -0.70914 0.13696200000000006
v 0.578894 -0.70914 -0.0009249999999999566
v 0.605341 -0.70914 0.13696200000000006
v 0.540929 -0.773551 0.13696200000000006
v 0.540929 -0.747105 -0.0009249999999999543
v 0.502964 -0.70914 -0.0009249999999999566
v 0.502964 -0.70914 -0.0009249999999999566
v 0.476518 -0.70914 0.13696200000000006
v 0.540929 -0.773551 0.13696200000000006
v 0.574743 -0.70914 0.21771600000000005
v 0.605341 -0.70914 0.13696200000000006
v 0.605341 -0.70914 0.13696200000000006
v 0.507116 -0.70914 0.21771600000000005
v 0.540929 -0.742953 0.21771600000000005
v 0.540929 -0.773551 0.13696200000000006
v 0.540929 -0.773551 0.13696200000000006
v 0.476518 -0.70914 0.13696200000000006
v 0.507116 -0.70914 0.21771600000000005
v 0.469634 -0.882758 0.11819700000000005
v 0.433159 -0.846283 -0.0009249999999999482
v 0.469634 -0.882758 0.11819700000000005
v 0.291963 -0.705087 0.11819700000000004
v 0.328437 -0.741561 -0.0009249999999999546
v 0.433159 -0.741561 -0.0009249999999999546
v 0.433159 -0.741561 -0.0009249999999999546
v 0.469634 -0.705087 0.11819700000000004
v 0.291963 -0.705087 0.11819700000000004
v 0.469634 -0.882758 0.11819700000000005
v 0.469634 -0.882758 0.11819700000000005
v 0.414023 -0.760697 0.23732000000000006
v 0.347574 -0.760697 0.23732000000000006
v 0.291963 -0.705087 0.11819700000000004
v 0.291963 -0.705087 0.11819700000000004
v 0.469634 -0.705087 0.11819700000000004
v 0.414023 -0.760697 0.23732000000000006
v 1.282716 1.286594 0.13696199999999992
v 1.264015 1.305294 -0.00092500000000008
v 1.282716 1.286594 0.13696199999999992
v 1.191625 1.286594 0.13696199999999992
v 1.210325 1.305294 -0.00092500000000008
v 1.210325 1.358985 -0.0009250000000000833
v 1.210325 1.358985 -0.0009250000000000833
v 1.191625 1.377685 0.13696199999999992
v 1.191625 1.286594 0.13696199999999992
v 1.26108 1.30823 0.2177159999999999
v 1.282716 1.286594 0.13696199999999992
v 1.282716 1.286594 0.13696199999999992
v 1.213261 1.356049 0.2177159999999999
v 1.213261 1.30823 0.2177159999999999
v 1.191625 1.286594 0.13696199999999992
v 1.191625 1.286594 0.13696199999999992
v 1.191625 1.377685 0.13696199999999992
v 1.213261 1.356049 0.2177159999999999
v -1.066602 -1.233441 -0.020898999999999925
v 1.162472 1.214513 0.10098299999999993
v 1.18813 1.212268 -0.0004710000000000742
v 1.162472 1.214513 0.10098299999999993
v 1.287456 1.203579 0.10098299999999993
v 1.261798 1.205823 -0.00047100000000007384
v 1.221741 1.172212 -0.0004710000000000718
v 1.221741 1.172212 -0.0004710000000000718
v 1.219497 1.146554 0.10098299999999993
v 1.287456 1.203579 0.10098299999999993
v 1.162472 1.214513 0.10098299999999993
v 1.162472 1.214513 0.10098299999999993
v 1.22263 1.182363 0.20243699999999992
v 1.251647 1.206711 0.20243699999999992
v 1.287456 1.203579 0.10098299999999993
v 1.287456 1.203579 0.10098299999999993
v 1.219497 1.146554 0.10098299999999993
v 1.22263 1.182363 0.20243699999999992
v -0.198353 1.335744 1.131923
v -0.210555 1.308761 0.9110179999999999
v -0.198353 1.335744 1.131923
v 0.069048 0.5309370000000001 0.917818
v 0.069048 0.5309370000000001 0.917818
v 0.078144 0.5271770000000001 1.097052
v 0.205878 0.622773 0.10415799999999996
v 0.257462 0.622773 -0.014964000000000038
v 0.205878 0.622773 0.10415799999999996
v 0.331511 0.748406 0.10415799999999996
v 0.331511 0.696822 -0.014964000000000043
v 0.405561 0.622773 -0.014964000000000038
v 0.405561 0.622773 -0.014964000000000038
v 0.457144 0.622773 0.10415799999999996
v 0.331511 0.748406 0.10415799999999996
v 0.284524 0.622773 0.22328099999999998
v 0.205878 0.622773 0.10415799999999996
v 0.205878 0.622773 0.10415799999999996
v 0.378498 0.622773 0.22328099999999998
v 0.331511 0.66976 0.22328099999999998
v 0.331511 0.748406 0.10415799999999996
v 0.331511 0.748406 0.10415799999999996
v 0.457144 0.622773 0.10415799999999996
v 0.378498 0.622773 0.22328099999999998
v 0.203725 0.656138 -0.01680100000000004
v 0.203725 0.656138 -0.01680100000000004
v 0.051517 0.7950500000000001 1.194192
v -1.212856 0.401809 -2.4603705285929945E-17
v -1.212856 0.401809 -2.4603705285929945E-17
v -1.220807 0.39566 0.358878
v -1.294611 0.321995 -1.9716507304572598E-17
v -1.294611 0.321995 -1.9716507304572598E-17
v -1.296573 0.320559 0.336372
v -0.470804 0.33113600000000004 0.917818
v -0.470804 0.33113600000000004 0.917818
v -0.463701 0.3197400000000001 1.097052
v 1.22689 0.666989 0.12227599999999995
v 1.179713 0.576639 -0.002999000000000035
v 1.204736 0.541346 0.12227599999999997
v 1.179713 0.576639 -0.002999000000000035
v 1.113198 0.588368 -0.002999000000000036
v 1.077614 0.56376 0.12227599999999997
v 1.113198 0.588368 -0.002999000000000036
v 1.191306 0.642381 -0.0029990000000000394
v 1.22689 0.666989 0.12227599999999995
v 1.22689 0.666989 0.12227599999999995
v 1.099768 0.689404 0.12227599999999995
v 1.156503 0.633005 0.11512199999999996
v 1.156503 0.633005 0.11512199999999996
v 1.156503 0.633005 0.34862599999999994
v -1.43028 0.028109 0.0026149999999999984
v 0.71277 -1.033365 0.17780800000000005
v 0.622464 -1.054435 0.08696800000000007
v 0.71277 -1.033365 0.17780800000000005
v 0.703717 -0.824671 0.19659100000000004
v 0.601418 -0.823094 0.09705300000000006
v 0.601418 -0.823094 0.09705300000000006
v 0.74441 -0.916382 0.047881000000000055
v 0.745363 -0.903313 0.22679400000000005
v 0.757196 -0.859561 0.17820000000000005
v 0.71277 -1.033365 0.17780800000000005
v 0.745363 -0.903313 0.22679400000000005
vt 0.013671 0.699428
vt 0.458541 0.699428
vt 0.295858 0.699428
vt 0.013671 0.441406
vt 0.210676 0.441406
vt 0.452372 0.411370
vt 0.283836 0.411370
vt 0.015278 0.295528
vt 0.235090 0.295528
vt 0.235090 0.039227
vt 0.015278 0.039227
vt 0.202137 0.699428
vt 0.887367 0.194286
vt 0.921505 0.194286
vt 0.960509 0.194286
vt 0.994305 0.194286
vt 0.746613 0.194286
vt 0.784838 0.194286
vt 0.818932 0.194286
vt 0.853147 0.194286
vt 0.604289 0.210319
vt 0.623210 0.248153
vt 0.960509 0.078945
vt 0.604286 0.156807
vt 0.493954 0.121915
vt 0.493954 0.128566
vt 0.525427 0.350071
vt 0.525427 0.147911
vt 0.520454 0.350071
vt 0.520454 0.147911
vt 0.484064 0.121915
vt 0.484064 0.128566
vt 0.503843 0.121915
vt 0.503843 0.128566
vt 0.499930 0.350071
vt 0.499930 0.147911
vt 0.501797 0.350071
vt 0.501797 0.147911
vt 0.590760 0.163473
vt 0.553430 0.163473
vt 0.572095 0.163473
vt 0.590760 0.131449
vt 0.553430 0.131449
vt 0.572095 0.131449
vt 0.507845 0.350071
vt 0.509626 0.350071
vt 0.509626 0.147911
vt 0.507845 0.147911
vt 0.509626 0.227985
vt 0.507845 0.227985
vt 0.493510 0.349109
vt 0.493510 0.138997
vt 0.485618 0.349109
vt 0.485618 0.138997
vt 0.493510 0.265216
vt 0.485618 0.265216
vt 0.555585 0.699428
vt 0.545119 0.441406
vt 0.498829 0.090442
vt 0.511397 0.090442
vt 0.470724 0.090442
vt 0.484751 0.090442
vt 0.499175 0.036422
vt 0.515286 0.036422
vt 0.470361 0.036422
vt 0.484751 0.036422
vt 0.496561 0.003837
vt 0.507115 0.003837
vt 0.472885 0.003837
vt 0.484751 0.003837
vt 0.461173 0.348275
vt 0.463916 0.348835
vt 0.441360 0.348802
vt 0.441371 0.093952
vt 0.443599 0.348747
vt 0.443616 0.093896
vt 0.562860 0.125476
vt 0.585178 0.011853
vt 0.562860 0.065723
vt 0.585178 0.071532
vt 0.562860 0.071532
vt 0.585178 0.065723
vt 0.562860 0.011853
vt 0.585178 0.125476
vt 0.591758 0.087447
vt 0.591758 0.093073
vt 0.606573 0.093073
vt 0.606573 0.087447
vt 0.606573 0.055693
vt 0.591758 0.055693
vt 0.591758 0.124589
vt 0.606573 0.124589
vt 0.228436 0.333534
vt 0.228436 0.330870
vt 0.295084 0.333534
vt 0.295084 0.330870
vt 0.361044 0.333534
vt 0.361044 0.330870
vt 0.428810 0.333534
vt 0.428810 0.330870
vt 0.525098 0.112048
vt 0.451175 0.348802
vt 0.557974 0.353595
vt 0.557974 0.255120
vt 0.551298 0.353595
vt 0.551307 0.255120
vt 0.557974 0.176165
vt 0.551312 0.176165
vt 0.535485 0.245682
vt 0.535496 0.146911
vt 0.537680 0.245526
vt 0.537703 0.146759
vt 0.535648 0.355270
vt 0.535659 0.254847
vt 0.537844 0.355186
vt 0.537866 0.254759
vt 0.671859 0.988012
vt 0.186551 0.988012
vt 0.518874 0.988012
vt 0.340562 0.988012
vt 0.265641 0.305677
vt 0.200079 0.712944
vt 0.513190 0.712944
vt 0.326458 0.712944
vt 0.448759 0.093952
vt 0.451175 0.348802
vt 0.451164 0.093952
vt 0.684674 0.269449
vt 0.707133 0.269449
vt 0.684674 0.249025
vt 0.707133 0.249025
vt 0.251244 0.026597
vt 0.248820 0.026597
vt 0.249530 0.302456
vt 0.248787 0.300086
vt 0.294246 0.351335
vt 0.294246 0.344392
vt 0.431147 0.351335
vt 0.431234 0.344392
vt 0.003626 0.355918
vt 0.003626 0.353238
vt 0.127703 0.355918
vt 0.127703 0.353238
vt 0.167849 0.355918
vt 0.167849 0.353238
vt 0.222883 0.355918
vt 0.222883 0.353238
vt 0.707302 0.145520
vt 0.685208 0.132097
vt 0.685209 0.158944
vt 0.676031 0.145521
vt 0.643212 0.092939
vt 0.665306 0.106361
vt 0.665306 0.079514
vt 0.674483 0.092938
vt 0.708734 0.185404
vt 0.686641 0.171982
vt 0.686641 0.198829
vt 0.677463 0.185406
vt 0.617605 0.067856
vt 0.639699 0.081278
vt 0.639699 0.054431
vt 0.648876 0.067854
vt 0.707735 0.105800
vt 0.685642 0.092377
vt 0.685642 0.119225
vt 0.708909 0.072703
vt 0.708909 0.042228
vt 0.679382 0.042229
vt 0.679383 0.072703
vt 0.679382 0.011037
vt 0.650393 0.011037
vt 0.620879 0.011038
vt 0.591898 0.011039
vt 0.521045 0.045676
vt 0.521045 0.069552
vt 0.548112 0.045675
vt 0.548112 0.069550
vt 0.973903 0.318903
vt 0.991159 0.318903
vt 0.936649 0.318903
vt 0.955276 0.318903
vt 0.973854 0.270590
vt 0.995117 0.270590
vt 0.936696 0.270590
vt 0.955276 0.270590
vt 0.972051 0.218258
vt 0.984676 0.218258
vt 0.938501 0.218258
vt 0.955276 0.218258
vt 0.537703 0.146759
vt 0.537703 0.146829
vt 0.535659 0.254847
vt 0.455742 0.094545
vt 0.434314 0.094733
vt 0.441371 0.093952
vt 0.451164 0.093952
vt 0.451164 0.093952
vt 0.535496 0.146911
vt 0.537702 0.146804
vt 0.494007 0.105280
vt 0.494007 0.111931
vt 0.484117 0.105280
vt 0.484117 0.111931
vt 0.503896 0.121879
vt 0.503896 0.128530
vt 0.535485 0.245682
vt 0.537680 0.245526
vt 0.535485 0.245682
vt 0.537681 0.245596
vt 0.535648 0.355270
vt 0.537843 0.355240
vt 0.535648 0.355270
vt 0.537844 0.355382
vt 0.453562 0.348802
vt 0.455639 0.349372
vt 0.434416 0.349553
vt 0.436579 0.348802
vt 0.441360 0.348802
vt 0.442989 0.348664
vt 0.455796 0.348802
vt 0.451175 0.348802
vt 0.441360 0.348802
vt 0.443599 0.349110
vt 0.455796 0.348802
vt 0.451175 0.348802
vt 0.511397 0.090442
vt 0.470724 0.090442
vt 0.484751 0.090442
vt 0.498829 0.090442
vt 0.499175 0.036422
vt 0.515286 0.036422
vt 0.470361 0.036422
vt 0.484751 0.036422
vt 0.496561 0.003837
vt 0.507115 0.003837
vt 0.472885 0.003837
vt 0.484751 0.003837
vt 0.891820 0.321851
vt 0.911777 0.327666
vt 0.837502 0.321851
vt 0.864641 0.321851
vt 0.893170 0.271730
vt 0.923252 0.281596
vt 0.837676 0.271730
vt 0.864468 0.271730
vt 0.886122 0.217440
vt 0.887957 0.217603
vt 0.838471 0.217440
vt 0.863673 0.217440
vt 0.498829 0.090442
vt 0.511397 0.090442
vt 0.470724 0.090442
vt 0.484751 0.090442
vt 0.499175 0.036422
vt 0.515286 0.036422
vt 0.470361 0.036422
vt 0.484751 0.036422
vt 0.496561 0.003837
vt 0.507115 0.003837
vt 0.472885 0.003837
vt 0.484751 0.003837
vt 0.469454 0.348835
vt 0.472232 0.348351
vt 0.983136 0.319498
vt 0.996852 0.321616
vt 0.946030 0.319498
vt 0.964570 0.319498
vt 0.984058 0.271184
vt 1.004749 0.274779
vt 0.946149 0.271184
vt 0.964451 0.271184
vt 0.979243 0.218852
vt 0.978987 0.215924
vt 0.946692 0.218852
vt 0.963908 0.218852
vt 0.684893 0.229350
vt 0.707336 0.229373
vt 0.684674 0.239169
vt 0.707133 0.239169
vt 0.684674 0.259485
vt 0.707133 0.259485
vt 0.684803 0.269469
vt 0.707255 0.269442
vt 0.973833 0.318954
vt 0.991022 0.318954
vt 0.936721 0.318954
vt 0.955277 0.318954
vt 0.973784 0.270596
vt 0.994965 0.270596
vt 0.936769 0.270596
vt 0.955277 0.270596
vt 0.971988 0.218215
vt 0.984565 0.218215
vt 0.938566 0.218215
vt 0.955277 0.218215
vt 0.453562 0.348802
vt 0.453573 0.093952
vt 0.455801 0.348747
vt 0.455818 0.093896
vt 0.535485 0.245682
vt 0.537680 0.245571
vt 0.535648 0.355270
vt 0.537844 0.355240
vt 0.684674 0.259485
vt 0.707133 0.259485
vt 0.684845 0.269493
vt 0.707294 0.269465
vt 0.707302 0.145520
vt 0.685209 0.132097
vt 0.685209 0.158944
vt 0.676031 0.145521
vt 0.643212 0.092939
vt 0.665306 0.106361
vt 0.665306 0.079514
vt 0.674483 0.092938
vt 0.617605 0.067856
vt 0.639699 0.081278
vt 0.639699 0.054431
vt 0.648876 0.067854
vt 0.707735 0.105800
vt 0.685642 0.092377
vt 0.685642 0.119225
vt 0.708909 0.072703
vt 0.708909 0.042228
vt 0.679382 0.042229
vt 0.679383 0.072703
vt 0.679382 0.011037
vt 0.650393 0.011037
vt 0.620879 0.011038
vt 0.591898 0.011039
vt 0.521045 0.092093
vt 0.521045 0.081005
vt 0.548112 0.092092
vt 0.548112 0.081003
vt 0.446522 0.093952
vt 0.524937 0.112015
vt 0.535496 0.146911
vt 0.535496 0.146911
vt 0.537866 0.254813
vt 0.535659 0.254847
vt 0.537866 0.254955
vt 0.453573 0.093952
vt 0.436557 0.093952
vt 0.443037 0.093807
vt 0.455818 0.093952
vt 0.441371 0.093952
vt 0.443622 0.094261
vt 0.455818 0.093952
vt 0.535659 0.254847
vt 0.537866 0.254813
vt 0.676465 0.105802
vt 0.676465 0.105802
vt 0.708734 0.185404
vt 0.686641 0.171982
vt 0.686641 0.198829
vt 0.677463 0.185406
vt 0.649966 0.248147
vt 0.668883 0.210305
vt 0.668880 0.156793
vt 0.649958 0.118959
vt 0.623203 0.118965
vt 0.878765 0.320902
vt 0.904181 0.320902
vt 0.823892 0.320902
vt 0.851329 0.320902
vt 0.878693 0.271460
vt 0.910011 0.271460
vt 0.823962 0.271460
vt 0.851329 0.271460
vt 0.876037 0.217904
vt 0.894172 0.217904
vt 0.826621 0.217904
vt 0.851329 0.217904
vt 0.501797 0.147911
vt 0.505247 0.350071
vt 0.505247 0.350071
vt 0.501797 0.147911
vt 0.512828 0.350071
vt 0.509626 0.227985
vt 0.509626 0.227985
vt 0.512828 0.350071
vt 0.509626 0.147911
vt 0.512828 0.227985
vt 0.509626 0.227985
vt 0.512828 0.227985
vt 0.463916 0.106629
vt 0.461424 0.104344
vt 0.469454 0.106629
vt 0.463916 0.106629
vt 0.472391 0.104389
vt 0.469454 0.106629
vt 0.469454 0.106629
vt 0.463916 0.106629
vt 0.463916 0.106629
vt 0.505247 0.147911
vt 0.501797 0.350071
vt 0.509626 0.350071
vt 0.509626 0.147911
vt 0.512828 0.147911
vt 0.512828 0.227985
vt 0.469454 0.348835
vt 0.472391 0.104389
vt 0.469454 0.348835
vt 0.461173 0.348275
vt 0.469454 0.348835
vt 0.301155 0.411370
vt 0.295858 0.699428
vt 0.467960 0.411370
vt 0.202137 0.699428
vt 0.195994 0.441406
vt 0.921505 0.078945
vt 0.887367 0.078945
vt 0.994305 0.078945
vt 0.746613 0.078945
vt 0.712756 0.078945
vt 0.712756 0.194286
vt 0.784838 0.078945
vt 0.818932 0.078945
vt 0.853147 0.078945
vt 0.539320 0.134365
vt 0.540579 0.165620
vt 0.574799 0.223985
vt 0.592077 0.204035
vt 0.574799 0.184084
vt 0.011867 0.441406
vt 0.006340 0.441406
vt 0.006340 0.699428
vt 0.011867 0.699428
vt 0.454225 0.036422
vt 0.458172 0.090442
vt 0.462321 0.003837
vt 0.534986 0.021420
vt 0.527174 0.005795
vt 0.519361 0.021420
vt 0.527174 0.037045
vt 0.469454 0.348835
vt 0.436557 0.093952
vt 0.436579 0.348802
vt 0.530764 0.146911
vt 0.530785 0.245547
vt 0.530927 0.254712
vt 0.530948 0.355270
vt 0.338722 0.712944
vt 0.340562 0.988012
vt 0.446524 0.093698
vt 0.707133 0.229436
vt 0.684674 0.229436
vt 0.422098 0.078582
vt 0.265641 0.078582
vt 0.422098 0.305677
vt 0.518874 0.988012
vt 0.658053 0.712944
vt 0.531192 0.712944
vt 0.005352 0.988012
vt 0.186551 0.988012
vt 0.185586 0.712944
vt 0.011119 0.712944
vt 0.650394 0.042229
vt 0.620879 0.042230
vt 0.591810 0.042230
vt 0.709033 0.011036
vt 0.521045 0.092093
vt 0.548112 0.092092
vt 0.915435 0.270590
vt 0.919393 0.318903
vt 0.925876 0.218258
vt 0.991305 0.347878
vt 0.982112 0.329492
vt 0.972920 0.347878
vt 0.982112 0.366263
vt 0.494007 0.121879
vt 0.494007 0.128531
vt 0.530764 0.146911
vt 0.530785 0.245547
vt 0.530764 0.146911
vt 0.530785 0.245547
vt 0.530927 0.254712
vt 0.530948 0.355270
vt 0.530927 0.254712
vt 0.530948 0.355270
vt 0.448759 0.093952
vt 0.448781 0.348802
vt 0.441360 0.348802
vt 0.441371 0.093952
vt 0.436557 0.093952
vt 0.436579 0.348802
vt 0.446522 0.093952
vt 0.446543 0.348802
vt 0.436557 0.093952
vt 0.436579 0.348802
vt 0.446522 0.093952
vt 0.446543 0.348802
vt 0.454226 0.036422
vt 0.458172 0.090442
vt 0.462321 0.003837
vt 0.534986 0.021420
vt 0.527174 0.005795
vt 0.519361 0.021420
vt 0.527174 0.037045
vt 0.808972 0.271730
vt 0.810324 0.321851
vt 0.877818 0.224463
vt 0.915194 0.253389
vt 0.816158 0.217440
vt 0.917834 0.214118
vt 0.904890 0.214118
vt 0.904890 0.240118
vt 0.917834 0.240118
vt 0.454226 0.036422
vt 0.458172 0.090442
vt 0.462321 0.003837
vt 0.534986 0.021420
vt 0.527174 0.005795
vt 0.519361 0.021420
vt 0.527174 0.037045
vt 0.463916 0.106629
vt 0.463916 0.348835
vt 0.926540 0.271184
vt 0.927464 0.319498
vt 0.969422 0.220284
vt 1.000840 0.260973
vt 0.931449 0.218852
vt 0.988644 0.334556
vt 0.975700 0.334556
vt 0.975700 0.360557
vt 0.988644 0.360557
vt 0.684674 0.259485
vt 0.707133 0.259485
vt 0.707133 0.239169
vt 0.684674 0.239169
vt 0.915589 0.270596
vt 0.919532 0.318954
vt 0.925989 0.218215
vt 0.991241 0.347735
vt 0.982088 0.329350
vt 0.972936 0.347735
vt 0.982088 0.366120
vt 0.448759 0.093952
vt 0.448781 0.348802
vt 0.530764 0.146911
vt 0.530785 0.245547
vt 0.530927 0.254712
vt 0.530948 0.355270
vt 0.707133 0.239169
vt 0.684674 0.239169
vt 0.650394 0.042229
vt 0.620879 0.042230
vt 0.591810 0.042230
vt 0.709033 0.011036
vt 0.548112 0.057410
vt 0.521045 0.057411
vt 0.455796 0.348802
vt 0.455818 0.093952
vt 0.451164 0.093952
vt 0.792646 0.271460
vt 0.798476 0.320902
vt 0.808024 0.217904
vt 0.920506 0.227184
vt 0.911314 0.208799
vt 0.902121 0.227184
vt 0.911314 0.245570
vt 0.493954 0.121915
vt 0.493954 0.128566
vt 0.493954 0.128566
vt 0.553430 0.131449
vt 0.553430 0.163473
vt 0.572095 0.163473
vt 0.572095 0.163473
vt 0.572095 0.131449
vt 0.553430 0.131449
vt 0.507845 0.227985
vt 0.509626 0.227985
vt 0.509626 0.147911
vt 0.507845 0.227985
vt 0.470361 0.036422
vt 0.470724 0.090442
vt 0.470361 0.036422
vt 0.484751 0.036422
vt 0.484751 0.090442
vt 0.498829 0.090442
vt 0.498829 0.090442
vt 0.499175 0.036422
vt 0.484751 0.036422
vt 0.472885 0.003837
vt 0.470361 0.036422
vt 0.470361 0.036422
vt 0.496561 0.003837
vt 0.484751 0.003837
vt 0.484751 0.036422
vt 0.484751 0.036422
vt 0.499175 0.036422
vt 0.496561 0.003837
vt 0.463916 0.106629
vt 0.463916 0.348835
vt 0.441360 0.348802
vt 0.441360 0.348802
vt 0.441371 0.093952
vt 0.562860 0.065723
vt 0.585178 0.065723
vt 0.585178 0.065723
vt 0.585178 0.071532
vt 0.562860 0.071532
vt 0.562860 0.071532
vt 0.591758 0.087447
vt 0.606573 0.087447
vt 0.606573 0.087447
vt 0.606573 0.093073
vt 0.591758 0.093073
vt 0.591758 0.093073
vt 0.525098 0.112048
vt 0.524937 0.112015
vt 0.535485 0.245682
vt 0.535485 0.245682
vt 0.535496 0.146911
vt 0.535648 0.355270
vt 0.535648 0.355270
vt 0.535659 0.254847
vt 0.448759 0.093952
vt 0.451175 0.348802
vt 0.684674 0.249025
vt 0.684674 0.249025
vt 0.707133 0.249025
vt 0.679382 0.042229
vt 0.650393 0.011037
vt 0.650394 0.042229
vt 0.650393 0.011037
vt 0.620879 0.011038
vt 0.620879 0.042230
vt 0.620879 0.011038
vt 0.679382 0.011037
vt 0.679382 0.042229
vt 0.679382 0.042229
vt 0.708909 0.042228
vt 0.548112 0.069550
vt 0.521045 0.069552
vt 0.548112 0.069550
vt 0.936696 0.270590
vt 0.936649 0.318903
vt 0.936696 0.270590
vt 0.955276 0.270590
vt 0.955276 0.318903
vt 0.973903 0.318903
vt 0.973903 0.318903
vt 0.973854 0.270590
vt 0.955276 0.270590
vt 0.938501 0.218258
vt 0.936696 0.270590
vt 0.936696 0.270590
vt 0.972051 0.218258
vt 0.955276 0.218258
vt 0.955276 0.270590
vt 0.955276 0.270590
vt 0.973854 0.270590
vt 0.972051 0.218258
vt 0.535485 0.245682
vt 0.535485 0.245682
vt 0.535496 0.146911
vt 0.535485 0.245682
vt 0.535485 0.245682
vt 0.535496 0.146911
vt 0.535648 0.355270
vt 0.535648 0.355270
vt 0.535659 0.254847
vt 0.535648 0.355270
vt 0.535648 0.355270
vt 0.535659 0.254847
vt 0.453562 0.348802
vt 0.453562 0.348802
vt 0.453573 0.093952
vt 0.436557 0.093952
vt 0.436579 0.348802
vt 0.436557 0.093952
vt 0.441360 0.348802
vt 0.441360 0.348802
vt 0.441371 0.093952
vt 0.451175 0.348802
vt 0.451175 0.348802
vt 0.451164 0.093952
vt 0.441360 0.348802
vt 0.441360 0.348802
vt 0.441371 0.093952
vt 0.451175 0.348802
vt 0.451175 0.348802
vt 0.451164 0.093952
vt 0.470361 0.036422
vt 0.470724 0.090442
vt 0.470361 0.036422
vt 0.484751 0.036422
vt 0.484751 0.090442
vt 0.498829 0.090442
vt 0.498829 0.090442
vt 0.499175 0.036422
vt 0.484751 0.036422
vt 0.472885 0.003837
vt 0.470361 0.036422
vt 0.470361 0.036422
vt 0.496561 0.003837
vt 0.484751 0.003837
vt 0.484751 0.036422
vt 0.484751 0.036422
vt 0.499175 0.036422
vt 0.496561 0.003837
vt 0.893170 0.271730
vt 0.891820 0.321851
vt 0.893170 0.271730
vt 0.837676 0.271730
vt 0.837502 0.321851
vt 0.864641 0.321851
vt 0.864641 0.321851
vt 0.864468 0.271730
vt 0.837676 0.271730
vt 0.893170 0.271730
vt 0.893170 0.271730
vt 0.863673 0.217440
vt 0.838471 0.217440
vt 0.837676 0.271730
vt 0.837676 0.271730
vt 0.864468 0.271730
vt 0.863673 0.217440
vt 0.470361 0.036422
vt 0.470724 0.090442
vt 0.470361 0.036422
vt 0.484751 0.036422
vt 0.484751 0.090442
vt 0.498829 0.090442
vt 0.498829 0.090442
vt 0.499175 0.036422
vt 0.484751 0.036422
vt 0.472885 0.003837
vt 0.470361 0.036422
vt 0.470361 0.036422
vt 0.496561 0.003837
vt 0.484751 0.003837
vt 0.484751 0.036422
vt 0.484751 0.036422
vt 0.499175 0.036422
vt 0.496561 0.003837
vt 0.469454 0.348835
vt 0.984058 0.271184
vt 0.983136 0.319498
vt 0.984058 0.271184
vt 0.946149 0.271184
vt 0.946030 0.319498
vt 0.964570 0.319498
vt 0.964570 0.319498
vt 0.964451 0.271184
vt 0.946149 0.271184
vt 0.984058 0.271184
vt 0.984058 0.271184
vt 0.963908 0.218852
vt 0.946692 0.218852
vt 0.946149 0.271184
vt 0.946149 0.271184
vt 0.964451 0.271184
vt 0.963908 0.218852
vt 0.707133 0.239169
vt 0.684674 0.239169
vt 0.707133 0.239169
vt 0.684674 0.259485
vt 0.684674 0.259485
vt 0.707133 0.259485
vt 0.936769 0.270596
vt 0.936721 0.318954
vt 0.936769 0.270596
vt 0.955277 0.270596
vt 0.955277 0.318954
vt 0.973833 0.318954
vt 0.973833 0.318954
vt 0.973784 0.270596
vt 0.955277 0.270596
vt 0.938566 0.218215
vt 0.936769 0.270596
vt 0.936769 0.270596
vt 0.971988 0.218215
vt 0.955277 0.218215
vt 0.955277 0.270596
vt 0.955277 0.270596
vt 0.973784 0.270596
vt 0.971988 0.218215
vt 0.453562 0.348802
vt 0.453562 0.348802
vt 0.453573 0.093952
vt 0.535485 0.245682
vt 0.535485 0.245682
vt 0.535496 0.146911
vt 0.535648 0.355270
vt 0.535648 0.355270
vt 0.535659 0.254847
vt 0.684674 0.259485
vt 0.684674 0.259485
vt 0.707133 0.259485
vt 0.679382 0.042229
vt 0.650393 0.011037
vt 0.650394 0.042229
vt 0.650393 0.011037
vt 0.620879 0.011038
vt 0.620879 0.042230
vt 0.620879 0.011038
vt 0.679382 0.011037
vt 0.679382 0.042229
vt 0.679382 0.042229
vt 0.708909 0.042228
vt 0.521045 0.081005
vt 0.521045 0.081005
vt 0.548112 0.081003
vt 0.451175 0.348802
vt 0.878693 0.271460
vt 0.878765 0.320902
vt 0.878693 0.271460
vt 0.826621 0.217904
vt 0.823962 0.271460
vt 0.823962 0.271460
vt 0.851329 0.271460
vt 0.876037 0.217904
vt 0.851329 0.217904
vt 0.878693 0.271460
vt 0.876037 0.217904
vn 0.076893 0.993861 0.07954799999999994
vn -0.621414 -0.778408 0.08902700000000004
vn 0.995037 -0.087081 0.04814600000000001
vn 0.076627 0.993919 0.07907999999999994
vn 0.995628 -0.073916 0.05710300000000001
vn -0.60041 -0.792121 0.10977700000000004
vn 0.995364 -0.080501 0.052626000000000006
vn 0.012379 0.15931300000000007 0.987151
vn 0.009083 0.16746900000000006 0.985836
vn 0.005786 0.17561300000000005 0.984442
vn 0.009083 0.16746900000000006 0.985836
vn 0.995364 -0.080501 0.052626000000000006
vn -0.789389 0.462529 0.4036489999999999
vn -0.231354 0.885236 0.40352599999999994
vn 0.462785 0.789382 0.4033689999999999
vn 0.88524 0.23112300000000002 0.403649
vn 0.789388 -0.462529 0.40364900000000004
vn 0.231124 -0.88524 0.40364800000000006
vn -0.46253 -0.789388 0.40364800000000006
vn -0.88524 -0.23112399999999997 0.403648
vn -0.745335 0.19477200000000003 0.637605
vn -0.267876 0.4572010000000001 0.848062
vn 0.231341 0.885274 0.40344899999999995
vn -0.387905 -0.22717199999999996 0.893265
vn 0 9.999999999387675E-07 -1
vn -1.1E-05 5.999999999938768E-06 -1
vn 0 6.123233995736766E-17 1
vn 0 6.123233995736766E-17 1
vn 0 6.123233995736766E-17 1
vn 0 6.123233995736766E-17 1
vn -0.270484 -0.857524 -0.43759699999999996
vn -0.270492 -0.85752 -0.43760099999999996
vn 0.270475 0.85753 -0.43759200000000004
vn 0.270472 0.85753 -0.43759300000000007
vn 0.59942 0.80005 -0.02480900000000005
vn 0.655085 0.755185 -0.023671000000000046
vn 0.540692 0.840824 -0.02582000000000005
vn 0.59942 0.80005 -0.02480900000000005
vn -0.602444 0.691773 -0.39813500000000007
vn 0.984466 0.174256 -0.021465000000000012
vn -0.303398 -0.952383 -0.030286999999999942
vn 0.241403 0.933421 0.26542399999999994
vn 0.5202 -0.599405 0.608363
vn -0.959258 -0.11693199999999998 0.257199
vn 0.467098 0.874592 -0.13003300000000007
vn 0.245842 0.966777 0.07003299999999994
vn 0.269775 0.962822 0.01394399999999994
vn 0.562192 0.818063 0.12129499999999994
vn 0.297213 0.946984 -0.12200800000000006
vn 0.414503 0.903982 -0.10490300000000005
vn -0.045817 0.08239300000000005 0.995546
vn 0.003664 -0.004517999999999939 0.999983
vn -0.031088 0.09010800000000005 0.995447
vn 0.003664 -0.004517999999999939 0.999983
vn -0.028472 0.03511400000000006 0.998978
vn -0.021101 0.03898300000000006 0.999017
vn -0.974976 -0.222231 0.005978000000000014
vn -0.962235 -0.26849 0.04490200000000001
vn 0.163087 -0.970235 -0.17901599999999995
vn -0.970235 -0.163087 -0.179015
vn -0.163083 0.970236 -0.17901500000000006
vn 0.970235 0.163086 -0.179016
vn -0.457424 -0.885178 0.08498900000000005
vn -0.885176 0.457427 0.08498799999999997
vn 0.457426 0.885177 0.08498799999999994
vn 0.885176 -0.457427 0.08498700000000002
vn 0.128027 -0.761654 0.635211
vn -0.605526 -0.10178499999999996 0.78929
vn -0.128028 0.761653 0.635211
vn 0.605526 0.10178400000000004 0.78929
vn 0.300791 0.953636 0.010133999999999942
vn 1 0 0
vn -0.642659 0.765897 -0.019776000000000047
vn 0.64266 -0.765896 0.019776000000000047
vn 0.642659 -0.765897 0.019776000000000047
vn -0.64266 0.765896 -0.019776000000000047
vn 0.611716 -0.791056 0.005834000000000048
vn -0.609464 0.792793 0.005722999999999951
vn -0.087315 0.49658700000000006 0.863584
vn 0.457592 -0.20997799999999994 0.864013
vn 0.638292 -0.6345 0.4358810000000001
vn -0.451392 0.778747 0.43565899999999996
vn -0.609395 0.792846 0.005778999999999952
vn 0.611762 -0.791021 0.005779000000000049
vn -0.074125 0.507905 0.858218
vn 0.671296 -0.602102 0.43224300000000004
vn 0.491773 -0.18009099999999995 0.851896
vn -0.462838 0.772123 0.43543899999999996
vn -0.634956 0.772492 0.009287999999999953
vn -0.634789 0.772628 0.009434999999999954
vn 0.638939 -0.769198 0.009580000000000047
vn 0.639039 -0.769117 0.009433000000000047
vn 0.783922 -0.001902999999999962 0.620857
vn 0.783921 -0.001901999999999962 0.620857
vn 0.668608 -0.28637499999999994 0.68626
vn 0.736098 -0.14416299999999999 0.661345
vn 0.483065 -0.523847 0.701593
vn 0.536353 -0.47212599999999993 0.699588
vn 0.427422 -0.572414 0.699752
vn 0.427427 -0.572421 0.699743
vn -0.427216 0.900936 0.07616899999999995
vn 0.427216 -0.900936 -0.07616899999999995
vn -0.036274 -0.05186399999999994 0.997995
vn -0.012076 -0.02589799999999994 0.999592
vn -0.0453 -0.04530099999999994 0.997946
vn -0.016594 -0.022615999999999938 0.999606
vn 0.003105 0.006659000000000062 0.999973
vn 0.003105 0.006659000000000062 0.999973
vn -0.939398 0.341883 -0.025444000000000022
vn 0.939381 -0.341929 0.02544300000000002
vn 0.939398 -0.341883 0.02544700000000002
vn -0.939381 0.341929 -0.02544600000000002
vn -0.939356 0.341894 -0.02683000000000002
vn 0.939347 -0.341917 0.02683000000000002
vn 0.939356 -0.341893 0.026832000000000022
vn -0.939347 0.341917 -0.026832000000000022
vn -0.938885 -0.341726 0.04145600000000002
vn 0.941338 0.337456 0.0026439999999999793
vn 0.338384 -0.936753 0.08939100000000005
vn 0.942965 0.332885 -0.0022910000000000205
vn 0 6.123233995736766E-17 1
vn 0.939666 0.34201 0.007577999999999979
vn 0.33959 -0.936468 0.08778700000000006
vn 0.941338 0.337456 0.0026439999999999793
vn 1 0 0
vn 1 0 0
vn 1 0 0
vn 0.422608 0.906297 0.005355999999999944
vn -0.422611 -0.906296 -0.005355999999999944
vn -0.422608 -0.906297 -0.005355999999999944
vn 0.422611 0.906296 0.005355999999999944
vn -0.376953 0.824612 0.42180699999999993
vn -0.376962 0.824607 0.42180899999999993
vn -0.376945 0.824618 0.42180399999999996
vn -0.376953 0.824612 0.42180699999999993
vn 0.478604 -0.15373699999999996 0.864467
vn 0.478138 -0.15373099999999995 0.864726
vn 0.47907 -0.15374299999999994 0.864208
vn 0.478604 -0.15373699999999996 0.864467
vn 0.146162 -0.21272899999999995 0.966117
vn 0.148787 -0.22804899999999995 0.962214
vn -0.27429 -0.18917299999999995 0.942857
vn -0.055199 -0.17124599999999995 0.983681
vn -0.635664 -0.13790599999999995 0.759548
vn -0.551458 -0.13827699999999996 0.822663
vn -0.703224 -0.06559499999999996 0.707936
vn -0.703226 -0.06561599999999995 0.707932
vn 0.234032 0.020477000000000058 0.972013
vn -0.173184 -0.015152999999999939 0.984773
vn -0.173184 -0.015152999999999939 0.984773
vn -0.551433 -0.04824799999999995 0.832823
vn 0.080349 0.22075900000000007 0.972013
vn -0.059458 -0.16335999999999995 0.984773
vn -0.059458 -0.16335999999999995 0.984773
vn -0.189319 -0.520156 0.832824
vn 0.099285 -0.21291399999999994 0.972013
vn -0.073471 0.15755700000000006 0.984773
vn -0.073471 0.15755700000000006 0.984773
vn -0.233939 0.501675 0.832823
vn -0.179964 -0.15100699999999995 0.972013
vn 0.146411 0.12285300000000006 0.981566
vn 0.146411 0.12285300000000006 0.981566
vn 0.446197 0.37440200000000007 0.812854
vn -0.13475 0.19244000000000006 0.972013
vn 0.109329 -0.15613599999999994 0.981666
vn 0.109329 -0.15613599999999994 0.981666
vn 0.591388 -0.624279 0.510428
vn -0.720076 -0.681414 0.13102100000000005
vn -0.591384 0.624283 0.510427
vn 0.720075 0.681415 0.13101899999999994
vn -0.108874 0.943853 -0.3119100000000001
vn 0.944282 0.10842399999999999 -0.310765
vn 0.108875 -0.943853 -0.31191099999999994
vn -0.944283 -0.10841800000000001 -0.310765
vn -0.937679 0.347503 -2.1278421832205135E-17
vn 0.937679 -0.347503 2.1278421832205135E-17
vn 0.937679 -0.347503 2.1278421832205135E-17
vn -0.937679 0.347503 -2.1278421832205135E-17
vn 0.877523 0.292507 -0.37999
vn 0.292507 -0.877523 -0.37998999999999994
vn -0.877524 -0.292508 -0.379988
vn -0.292509 0.877523 -0.3799890000000001
vn 0.944534 -0.314847 0.09341300000000001
vn -0.314846 -0.944535 0.09341400000000005
vn -0.944535 0.314843 0.09341499999999998
vn 0.314844 0.944535 0.09341399999999994
vn 0.631877 0.21062500000000006 0.745901
vn 0.166593 -0.49978399999999995 0.849978
vn -0.631878 -0.21062599999999995 0.7459
vn -0.166596 0.49978200000000006 0.849979
vn 0.828423 0.559525 -0.025446000000000035
vn 0.828398 0.559497 -0.026831000000000035
vn -0.828684 -0.559703 0.004021000000000035
vn 0.258065 0.966101 -0.007205000000000059
vn -0.900691 -0.419992 0.11118200000000003
vn 0.835728 -0.535745 0.12056500000000003
vn -0.498706 0.863824 -0.07141500000000006
vn -0.706152 -0.706155 0.05190900000000004
vn 0.939589 -0.341979 0.014958000000000022
vn -0.939589 0.341979 -0.01495700000000002
vn -1E-06 -4.000000000061232E-06 -1
vn -1E-06 1.9999999999387675E-06 -1
vn -0.270475 -0.857527 -0.43759599999999993
vn -0.270487 -0.857521 -0.43760199999999994
vn 0.270474 0.857529 -0.43759300000000007
vn 0.270486 0.857528 -0.43758800000000003
vn 0.828419 0.55953 -0.025445000000000034
vn -0.828419 -0.55953 0.025446000000000035
vn 0.828394 0.559503 -0.026831000000000035
vn -0.828394 -0.559503 0.026831000000000035
vn 0.828685 0.559701 -0.004021000000000035
vn -0.828685 -0.559701 0.004021000000000035
vn 0.8285 0.559577 0.021480999999999965
vn -0.8285 -0.559577 -0.021480999999999965
vn 0.258056 0.966103 -0.007205000000000059
vn -0.258056 -0.966103 0.007205000000000059
vn 0.900688 0.42 -0.11118100000000003
vn -0.900688 -0.42 0.11118100000000003
vn -0.701594 0.701943 -0.12264600000000005
vn 0.702793 -0.702426 0.11260700000000004
vn -0.421605 0.90418 -0.06861300000000005
vn 0.421731 -0.904355 0.06545200000000005
vn -0.172689 -0.979398 -0.10467999999999994
vn 0.172689 0.979398 0.10467999999999994
vn -0.706151 -0.706156 0.05190900000000004
vn 0.706151 0.706156 -0.05190900000000004
vn -0.31112 0.933358 -0.17901600000000006
vn 0.933359 0.311118 -0.17901600000000004
vn 0.311119 -0.933359 -0.17901599999999995
vn -0.933358 -0.311121 -0.17901599999999998
vn -0.945251 0.315082 0.08498899999999998
vn 0.315084 0.945251 0.08498799999999994
vn 0.94525 -0.315085 0.08498800000000001
vn -0.315083 -0.945251 0.08498800000000005
vn -0.732704 -0.24423499999999998 0.635212
vn -0.194172 0.582512 0.789289
vn 0.732705 0.24423400000000003 0.635212
vn 0.19417 -0.582513 0.789288
vn 0.827337 -0.413669 -0.379989
vn -0.413669 -0.827337 -0.37998899999999997
vn -0.827337 0.413669 -0.379989
vn 0.413669 0.827338 -0.37998800000000005
vn 0.445258 -0.890516 0.09341300000000005
vn -0.890516 -0.445258 0.09341400000000002
vn -0.445258 0.890516 0.09341399999999994
vn 0.890516 0.445258 0.09341399999999997
vn 0.59574 -0.29786999999999997 0.7459
vn -0.2356 -0.4712009999999999 0.849978
vn -0.59574 0.2978700000000001 0.7459
vn 0.2356 0.47120100000000004 0.849978
vn -0.879981 0.439985 -0.17901700000000004
vn 0.439986 0.879981 -0.17901500000000006
vn 0.879977 -0.439992 -0.17901499999999998
vn -0.439988 -0.879979 -0.17901799999999995
vn -0.445599 0.89119 0.08498899999999994
vn 0.891192 0.445593 0.08498899999999997
vn 0.445595 -0.891191 0.08498800000000005
vn -0.891191 -0.445595 0.08498800000000002
vn -0.6908 0.34540200000000004 0.63521
vn 0.274599 0.549198 0.789289
vn 0.6908 -0.34540199999999993 0.63521
vn -0.2746 -0.549197 0.789289
vn 0.300731 0.953499 -0.02001100000000006
vn 1 0 0
vn -0.945596 -0.22588300000000003 -0.234147
vn -0.225882 0.945596 -0.23414800000000005
vn 0.945596 0.22588199999999997 -0.234149
vn 0.225883 -0.945596 -0.23414799999999994
vn -0.916562 0.397297 0.04549099999999997
vn 0.397296 0.916562 0.04549099999999994
vn 0.916563 -0.397295 0.045491000000000024
vn -0.397294 -0.916563 0.04549200000000005
vn -0.760551 -0.18167999999999998 0.623342
vn -0.144563 0.605178 0.782854
vn 0.760551 0.18168100000000004 0.623341
vn 0.144566 -0.605177 0.782855
vn 0.339175 0.931346 -0.13249400000000006
vn -0.33918 -0.931344 0.13249400000000006
vn -0.339175 -0.931346 0.13249500000000006
vn 0.33918 0.931344 -0.13249500000000006
vn 0.173561 -0.984383 -0.02945699999999994
vn -0.173559 0.984383 0.02945699999999994
vn -0.17356 0.984383 0.02945699999999994
vn 0.173559 -0.984383 -0.02945699999999994
vn 0.877524 0.292507 -0.379989
vn 0.292508 -0.877524 -0.37998899999999997
vn -0.877523 -0.292509 -0.37999
vn -0.292508 0.877523 -0.37999000000000005
vn 0.944535 -0.314846 0.09341400000000001
vn -0.314844 -0.944536 0.09341400000000005
vn -0.944535 0.314844 0.09341399999999998
vn 0.314846 0.944535 0.09341399999999994
vn 0.631878 0.21062500000000006 0.7459
vn 0.166595 -0.49978399999999995 0.849978
vn -0.631877 -0.21062699999999995 0.745901
vn -0.166594 0.49978300000000003 0.849979
vn -0.632749 0.756292 -0.16628300000000004
vn 0.632746 -0.756295 0.16628300000000004
vn 0.632749 -0.756292 0.16628300000000004
vn -0.632746 0.756295 -0.16628300000000004
vn -0.939588 0.341982 -0.014958000000000022
vn 0.939588 -0.341982 0.01495700000000002
vn -0.939694 0.341992 -0.004021000000000021
vn 0.939694 -0.341992 0.004022000000000021
vn 0.173154 -0.982452 -0.06932899999999995
vn -0.173147 0.982453 0.06932899999999995
vn -0.173154 0.982451 0.06932999999999995
vn 0.173147 -0.982453 -0.06932999999999995
vn 0.060804 -0.22692099999999996 0.972013
vn -0.044995 0.16792100000000004 0.984773
vn -0.044995 0.16792100000000004 0.984773
vn -0.143268 0.534678 0.832823
vn 0.231357 -0.040793999999999934 0.972013
vn -0.171203 0.030187000000000058 0.984773
vn -0.171203 0.030187000000000058 0.984773
vn -0.545129 0.09612000000000005 0.832824
vn -0.179964 0.15100700000000006 0.972013
vn 0.146411 -0.12285299999999995 0.981566
vn 0.146411 -0.12285299999999995 0.981566
vn 0.446196 -0.37440199999999996 0.812854
vn 0.166118 0.16611800000000004 0.972013
vn -0.13478 -0.13477999999999996 0.981666
vn -0.13478 -0.13477999999999996 0.981666
vn -0.512103 -0.690807 0.510428
vn -0.796101 0.59081 0.13101999999999997
vn 0.512105 0.690806 0.510427
vn 0.796102 -0.59081 0.13101800000000002
vn 0.910608 0.271118 -0.311911
vn 0.270748 -0.91111 -0.31076499999999996
vn -0.910608 -0.271118 -0.311911
vn -0.270745 0.911111 -0.31076500000000007
vn 0.985808 -0.167879 1.0279623999702926E-17
vn -0.985808 0.167879 -1.0279623999702926E-17
vn -0.985808 0.167879 -1.0279623999702926E-17
vn 0.985808 -0.167879 1.0279623999702926E-17
vn 0.42722 -0.900934 -0.07616899999999995
vn -0.42722 0.900934 0.07616899999999995
vn -0.828423 -0.559525 0.025445000000000034
vn -0.828398 -0.559497 0.026831000000000035
vn 0.828684 0.559703 -0.004021000000000035
vn -0.828501 -0.559575 -0.021480999999999965
vn 0.828501 0.559575 0.021479999999999964
vn -0.258065 -0.966101 0.007204000000000059
vn 0.900691 0.419992 -0.11118200000000003
vn -0.836474 0.536846 -0.11003600000000002
vn 0.498623 -0.863605 0.07458300000000005
vn 0.172693 0.979398 0.10467999999999994
vn -0.172693 -0.979397 -0.10467999999999994
vn 0.706152 0.706155 -0.05190900000000004
vn 0.939688 -0.342009 0.004021000000000021
vn -0.939688 0.342009 -0.004022000000000021
vn 0.3336 -0.47642399999999996 0.813468
vn -0.41126 -0.41125999999999996 0.813468
vn -0.19244 -0.13474899999999995 0.972013
vn 0.142404 0.09971300000000005 0.984773
vn 0.142404 0.09971300000000005 0.984773
vn 0.45343 0.31749800000000006 0.832824
vn 4.6E-05 0.00011100000000006123 1
vn 0.388037 0.22714100000000007 0.893216
vn 0.745335 -0.19477199999999997 0.637605
vn 0.267762 -0.4572129999999999 0.848092
vn -0.194772 -0.745335 0.637605
vn 0.181687 -0.982223 0.04720800000000006
vn -0.862766 -0.300818 0.406378
vn -0.935309 0.344171 0.08211399999999998
vn 0.603775 -0.659933 -0.44715199999999994
vn 0.355428 -0.830383 0.42911000000000005
vn -0.637945 0.17499000000000006 0.749937
vn -0.455763 0.889419 -0.03483500000000005
vn 0.957678 -0.10758700000000002 -0.266981
vn 0.848733 -0.10669299999999997 0.517947
vn 0.207725 0.27181000000000005 0.939665
vn -0.004091 0.911153 0.41204799999999997
vn 0.754775 0.644897 0.12009599999999995
vn -0.655085 -0.755185 0.023671000000000046
vn -0.655085 -0.755185 0.023671000000000046
vn -0.540692 -0.840824 0.02582000000000005
vn -0.540692 -0.840824 0.02582000000000005
vn -0.245842 -0.966777 -0.07003299999999994
vn -0.245842 -0.966777 -0.07003299999999994
vn -0.642822 -0.697153 0.31742300000000007
vn -0.642822 -0.697153 0.31742300000000007
vn -0.562192 -0.818063 -0.12129499999999994
vn -0.562192 -0.818063 -0.12129499999999994
vn 0.054472 -0.993981 0.09505100000000005
vn 0.054472 -0.993981 0.09505100000000005
vn 0.300791 0.953636 0.010133999999999942
vn 0.300791 0.953636 0.010133999999999942
vn -0.300791 -0.953636 -0.010133999999999942
vn -0.300791 -0.953636 -0.010133999999999942
vn 0.300731 0.953499 -0.02001100000000006
vn 0.300731 0.953499 -0.02001100000000006
vn -0.300731 -0.953499 0.02001100000000006
vn -0.300731 -0.953499 0.02001100000000006
vn 1 0 0
vn -0.655085 -0.755185 0.023671000000000046
vn -0.540692 -0.840824 0.02582000000000005
vn -0.245842 -0.966777 -0.07003299999999994
vn 0.054472 -0.993981 0.09505100000000005
vn -0.562192 -0.818063 -0.12129499999999994
vn -0.642822 -0.697153 0.31742300000000007
vn -0.300791 -0.953636 -0.010133999999999942
vn 1 0 0
vn -0.300731 -0.953499 0.02001100000000006
vn 1 0 0
vn 1 0 0
vn -0.046996 -0.993926 0.09950900000000006
vn -0.048449 -0.993664 0.10141400000000006
vn -0.60041 -0.792121 0.10977700000000004
vn 0.076627 0.993919 0.07907999999999994
vn 0.07636 0.993977 0.07861099999999994
vn -0.267876 0.4572010000000001 0.848062
vn -0.745335 0.19477200000000003 0.637605
vn 0.388037 0.22714100000000007 0.893216
vn 0.745335 -0.19477199999999997 0.637605
vn 0.388037 0.22714100000000007 0.893216
vn 0.88524 0.23112300000000002 0.403649
vn 0.267762 -0.4572129999999999 0.848092
vn -0.194772 -0.745335 0.637605
vn -0.387905 -0.22717199999999996 0.893265
vn 0.241403 0.933421 0.26542399999999994
vn -0.602444 0.691773 -0.39813500000000007
vn 0.241403 0.933421 0.26542399999999994
vn 0.5202 -0.599405 0.608363
vn -0.959258 -0.11693199999999998 0.257199
vn -0.961935 0.268522 0.050766999999999986
vn -0.966403 0.252026 0.05047699999999999
vn -0.961935 0.268522 0.050766999999999986
vn -0.957186 0.284939 0.051041999999999976
vn -0.885176 0.457427 0.08498799999999997
vn -0.970235 -0.163087 -0.179015
vn -0.605526 -0.10178499999999996 0.78929
vn 0.605526 0.10178400000000004 0.78929
vn 0.128027 -0.761654 0.635211
vn -0.605526 -0.10178499999999996 0.78929
vn -0.128028 0.761653 0.635211
vn 1 0 0
vn -0.64266 0.765896 -0.019776000000000047
vn 0.642659 -0.765897 0.019776000000000047
vn -0.939381 0.341929 -0.02544600000000002
vn 0.939398 -0.341883 0.02544700000000002
vn -0.939347 0.341917 -0.026832000000000022
vn 0.939356 -0.341893 0.026832000000000022
vn 0.338384 -0.936753 0.08939100000000005
vn 0.337177 -0.937034 0.09099500000000006
vn 1 0 0
vn -0.422611 -0.906296 -0.005355999999999944
vn 0.422608 0.906297 0.005355999999999944
vn 0 6.123233995736766E-17 1
vn 0 6.123233995736766E-17 1
vn 0 6.123233995736766E-17 1
vn -0.938885 -0.341726 0.04145600000000002
vn -0.938885 -0.341726 0.04145600000000002
vn -0.938885 -0.341726 0.04145600000000002
vn -0.334753 0.937266 0.09732399999999994
vn -0.332897 0.938202 0.09463699999999994
vn -0.334753 0.937266 0.09732399999999994
vn -0.336606 0.93632 0.10000999999999995
vn 0.720075 0.681415 0.13101899999999994
vn 0.591388 -0.624279 0.510428
vn -0.720076 -0.681414 0.13102100000000005
vn -0.944283 -0.10841800000000001 -0.310765
vn -0.937679 0.347503 -2.1278421832205135E-17
vn 0.937679 -0.347503 2.1278421832205135E-17
vn -0.314846 -0.944535 0.09341400000000005
vn 0.292507 -0.877523 -0.37998999999999994
vn 0.166593 -0.49978399999999995 0.849978
vn -0.166596 0.49978200000000006 0.849979
vn 0.631877 0.21062500000000006 0.745901
vn 0.166593 -0.49978399999999995 0.849978
vn -0.631878 -0.21062599999999995 0.7459
vn -1E-06 -4.000000000061232E-06 -1
vn -1E-06 1.9999999999387675E-06 -1
vn 0.828423 0.559525 -0.025446000000000035
vn -0.828419 -0.55953 0.025446000000000035
vn 0.828398 0.559497 -0.026831000000000035
vn -0.828394 -0.559503 0.026831000000000035
vn 0.828684 0.559703 -0.004021000000000035
vn -0.828685 -0.559701 0.004021000000000035
vn 0.828501 0.559575 0.021479999999999964
vn -0.8285 -0.559577 -0.021480999999999965
vn 0.258065 0.966101 -0.007205000000000059
vn -0.258056 -0.966103 0.007205000000000059
vn 0.900688 0.42 -0.11118100000000003
vn -0.900691 -0.419992 0.11118200000000003
vn -0.836474 0.536846 -0.11003600000000002
vn 0.702793 -0.702426 0.11260700000000004
vn 0.498623 -0.863605 0.07458300000000005
vn -0.421605 0.90418 -0.06861300000000005
vn -0.172693 -0.979397 -0.10467999999999994
vn 0.172689 0.979398 0.10467999999999994
vn 0.706152 0.706155 -0.05190900000000004
vn -0.706151 -0.706156 0.05190900000000004
vn 0.315084 0.945251 0.08498799999999994
vn -0.31112 0.933358 -0.17901600000000006
vn -0.194172 0.582512 0.789289
vn 0.19417 -0.582513 0.789288
vn -0.732704 -0.24423499999999998 0.635212
vn -0.194172 0.582512 0.789289
vn 0.732705 0.24423400000000003 0.635212
vn -0.890516 -0.445258 0.09341400000000002
vn -0.413669 -0.827337 -0.37998899999999997
vn 0.59574 -0.29786999999999997 0.7459
vn -0.890516 -0.445258 0.09341400000000002
vn -0.2356 -0.4712009999999999 0.849978
vn 0.2356 0.47120100000000004 0.849978
vn 0.59574 -0.29786999999999997 0.7459
vn -0.2356 -0.4712009999999999 0.849978
vn -0.59574 0.2978700000000001 0.7459
vn 0.891192 0.445593 0.08498899999999997
vn 0.439986 0.879981 -0.17901500000000006
vn 0.274599 0.549198 0.789289
vn -0.2746 -0.549197 0.789289
vn -0.6908 0.34540200000000004 0.63521
vn 0.274599 0.549198 0.789289
vn 0.6908 -0.34540199999999993 0.63521
vn 1 0 0
vn 1 0 0
vn 0.397296 0.916562 0.04549099999999994
vn -0.225882 0.945596 -0.23414800000000005
vn -0.760551 -0.18167999999999998 0.623342
vn 0.397296 0.916562 0.04549099999999994
vn -0.144563 0.605178 0.782854
vn 0.144566 -0.605177 0.782855
vn -0.760551 -0.18167999999999998 0.623342
vn -0.144563 0.605178 0.782854
vn 0.760551 0.18168100000000004 0.623341
vn 0.339175 0.931346 -0.13249400000000006
vn -0.33918 -0.931344 0.13249400000000006
vn 0.173559 -0.984383 -0.02945699999999994
vn -0.17356 0.984383 0.02945699999999994
vn -0.314844 -0.944536 0.09341400000000005
vn 0.292508 -0.877524 -0.37998899999999997
vn 0.166595 -0.49978399999999995 0.849978
vn -0.166594 0.49978300000000003 0.849979
vn 0.631878 0.21062500000000006 0.7459
vn 0.166595 -0.49978399999999995 0.849978
vn -0.631877 -0.21062699999999995 0.745901
vn -0.632746 0.756295 -0.16628300000000004
vn 0.632749 -0.756292 0.16628300000000004
vn -0.939589 0.341979 -0.01495700000000002
vn 0.939588 -0.341982 0.01495700000000002
vn -0.939688 0.342009 -0.004022000000000021
vn 0.939694 -0.341992 0.004022000000000021
vn 0.173147 -0.982453 -0.06932999999999995
vn -0.173154 0.982451 0.06932999999999995
vn 0.796102 -0.59081 0.13101800000000002
vn -0.512103 -0.690807 0.510428
vn -0.796101 0.59081 0.13101999999999997
vn -0.270745 0.911111 -0.31076500000000007
vn -0.985808 0.167879 -1.0279623999702926E-17
vn 0.985808 -0.167879 1.0279623999702926E-17
vn -0.427216 0.900936 0.07616899999999995
vn 0.42722 -0.900934 -0.07616899999999995
vn -0.42722 0.900934 0.07616899999999995
vn -0.637945 0.17499000000000006 0.749937
vn -0.862766 -0.300818 0.406378
vn 0.207725 0.27181000000000005 0.939665
vn 0.754775 0.644897 0.12009599999999995
vn 0.848733 -0.10669299999999997 0.517947
vn 0.207725 0.27181000000000005 0.939665
vn -0.004091 0.911153 0.41204799999999997
vn 0 9.999999999387675E-07 -1
vn -1.1E-05 5.999999999938768E-06 -1
vn -1.1E-05 5.999999999938768E-06 -1
vn 0.5202 -0.599405 0.608363
vn 0.984466 0.174256 -0.021465000000000012
vn -0.303398 -0.952383 -0.030286999999999942
vn -0.303398 -0.952383 -0.030286999999999942
vn -0.959258 -0.11693199999999998 0.257199
vn 0.5202 -0.599405 0.608363
vn 0.414503 0.903982 -0.10490300000000005
vn 0.297213 0.946984 -0.12200800000000006
vn 0.269775 0.962822 0.01394399999999994
vn 0.414503 0.903982 -0.10490300000000005
vn 0.457426 0.885177 0.08498799999999994
vn -0.163083 0.970236 -0.17901500000000006
vn 0.457426 0.885177 0.08498799999999994
vn 0.885176 -0.457427 0.08498700000000002
vn 0.970235 0.163086 -0.179016
vn 0.163087 -0.970235 -0.17901599999999995
vn 0.163087 -0.970235 -0.17901599999999995
vn -0.457424 -0.885178 0.08498900000000005
vn 0.885176 -0.457427 0.08498700000000002
vn -0.128028 0.761653 0.635211
vn 0.457426 0.885177 0.08498799999999994
vn 0.457426 0.885177 0.08498799999999994
vn 0.128027 -0.761654 0.635211
vn 0.605526 0.10178400000000004 0.78929
vn 0.885176 -0.457427 0.08498700000000002
vn 0.885176 -0.457427 0.08498700000000002
vn -0.457424 -0.885178 0.08498900000000005
vn 0.128027 -0.761654 0.635211
vn 1 0 0
vn 1 0 0
vn -0.642659 0.765897 -0.019776000000000047
vn -0.642659 0.765897 -0.019776000000000047
vn 0.64266 -0.765896 0.019776000000000047
vn -0.087315 0.49658700000000006 0.863584
vn -0.451392 0.778747 0.43565899999999996
vn -0.451392 0.778747 0.43565899999999996
vn 0.457592 -0.20997799999999994 0.864013
vn 0.638292 -0.6345 0.4358810000000001
vn 0.638292 -0.6345 0.4358810000000001
vn -0.074125 0.507905 0.858218
vn -0.462838 0.772123 0.43543899999999996
vn -0.462838 0.772123 0.43543899999999996
vn 0.491773 -0.18009099999999995 0.851896
vn 0.671296 -0.602102 0.43224300000000004
vn 0.671296 -0.602102 0.43224300000000004
vn -0.427216 0.900936 0.07616899999999995
vn -0.42722 0.900934 0.07616899999999995
vn -0.939398 0.341883 -0.025444000000000022
vn -0.939398 0.341883 -0.025444000000000022
vn 0.939381 -0.341929 0.02544300000000002
vn -0.939356 0.341894 -0.02683000000000002
vn -0.939356 0.341894 -0.02683000000000002
vn 0.939347 -0.341917 0.02683000000000002
vn 1 0 0
vn 1 0 0
vn -0.422608 -0.906297 -0.005355999999999944
vn -0.422608 -0.906297 -0.005355999999999944
vn 0.422611 0.906296 0.005355999999999944
vn -0.591384 0.624283 0.510427
vn 0.944282 0.10842399999999999 -0.310765
vn 0.720075 0.681415 0.13101899999999994
vn 0.944282 0.10842399999999999 -0.310765
vn 0.108875 -0.943853 -0.31191099999999994
vn 0.591388 -0.624279 0.510428
vn 0.108875 -0.943853 -0.31191099999999994
vn -0.108874 0.943853 -0.3119100000000001
vn -0.591384 0.624283 0.510427
vn -0.591384 0.624283 0.510427
vn -0.720076 -0.681414 0.13102100000000005
vn -0.937679 0.347503 -2.1278421832205135E-17
vn 0.937679 -0.347503 2.1278421832205135E-17
vn -0.937679 0.347503 -2.1278421832205135E-17
vn -0.944535 0.314843 0.09341499999999998
vn -0.877524 -0.292508 -0.379988
vn -0.944535 0.314843 0.09341499999999998
vn 0.314844 0.944535 0.09341399999999994
vn -0.292509 0.877523 -0.3799890000000001
vn 0.877523 0.292507 -0.37999
vn 0.877523 0.292507 -0.37999
vn 0.944534 -0.314847 0.09341300000000001
vn 0.314844 0.944535 0.09341399999999994
vn -0.631878 -0.21062599999999995 0.7459
vn -0.944535 0.314843 0.09341499999999998
vn -0.944535 0.314843 0.09341499999999998
vn 0.631877 0.21062500000000006 0.745901
vn -0.166596 0.49978200000000006 0.849979
vn 0.314844 0.944535 0.09341399999999994
vn 0.314844 0.944535 0.09341399999999994
vn 0.944534 -0.314847 0.09341300000000001
vn 0.631877 0.21062500000000006 0.745901
vn 0.828419 0.55953 -0.025445000000000034
vn 0.828419 0.55953 -0.025445000000000034
vn -0.828423 -0.559525 0.025445000000000034
vn 0.828394 0.559503 -0.026831000000000035
vn 0.828394 0.559503 -0.026831000000000035
vn -0.828398 -0.559497 0.026831000000000035
vn 0.828685 0.559701 -0.004021000000000035
vn 0.828685 0.559701 -0.004021000000000035
vn -0.828684 -0.559703 0.004021000000000035
vn 0.8285 0.559577 0.021480999999999965
vn 0.8285 0.559577 0.021480999999999965
vn -0.828501 -0.559575 -0.021480999999999965
vn 0.258056 0.966103 -0.007205000000000059
vn 0.258056 0.966103 -0.007205000000000059
vn -0.258065 -0.966101 0.007204000000000059
vn 0.900691 0.419992 -0.11118200000000003
vn -0.900688 -0.42 0.11118100000000003
vn 0.900691 0.419992 -0.11118200000000003
vn -0.701594 0.701943 -0.12264600000000005
vn -0.701594 0.701943 -0.12264600000000005
vn 0.835728 -0.535745 0.12056500000000003
vn 0.421731 -0.904355 0.06545200000000005
vn 0.421731 -0.904355 0.06545200000000005
vn -0.498706 0.863824 -0.07141500000000006
vn -0.172689 -0.979398 -0.10467999999999994
vn -0.172689 -0.979398 -0.10467999999999994
vn 0.172693 0.979398 0.10467999999999994
vn 0.706151 0.706156 -0.05190900000000004
vn 0.706151 0.706156 -0.05190900000000004
vn -0.706152 -0.706155 0.05190900000000004
vn 0.94525 -0.315085 0.08498800000000001
vn 0.933359 0.311118 -0.17901600000000004
vn 0.94525 -0.315085 0.08498800000000001
vn -0.315083 -0.945251 0.08498800000000005
vn 0.311119 -0.933359 -0.17901599999999995
vn -0.933358 -0.311121 -0.17901599999999998
vn -0.933358 -0.311121 -0.17901599999999998
vn -0.945251 0.315082 0.08498899999999998
vn -0.315083 -0.945251 0.08498800000000005
vn 0.732705 0.24423400000000003 0.635212
vn 0.94525 -0.315085 0.08498800000000001
vn 0.94525 -0.315085 0.08498800000000001
vn -0.732704 -0.24423499999999998 0.635212
vn 0.19417 -0.582513 0.789288
vn -0.315083 -0.945251 0.08498800000000005
vn -0.315083 -0.945251 0.08498800000000005
vn -0.945251 0.315082 0.08498899999999998
vn -0.732704 -0.24423499999999998 0.635212
vn 0.445258 -0.890516 0.09341300000000005
vn 0.827337 -0.413669 -0.379989
vn 0.445258 -0.890516 0.09341300000000005
vn -0.445258 0.890516 0.09341399999999994
vn -0.827337 0.413669 -0.379989
vn 0.413669 0.827338 -0.37998800000000005
vn 0.413669 0.827338 -0.37998800000000005
vn 0.890516 0.445258 0.09341399999999997
vn -0.445258 0.890516 0.09341399999999994
vn 0.445258 -0.890516 0.09341300000000005
vn 0.445258 -0.890516 0.09341300000000005
vn 0.2356 0.47120100000000004 0.849978
vn -0.59574 0.2978700000000001 0.7459
vn -0.445258 0.890516 0.09341399999999994
vn -0.445258 0.890516 0.09341399999999994
vn 0.890516 0.445258 0.09341399999999997
vn 0.2356 0.47120100000000004 0.849978
vn 0.445595 -0.891191 0.08498800000000005
vn 0.879977 -0.439992 -0.17901499999999998
vn 0.445595 -0.891191 0.08498800000000005
vn -0.891191 -0.445595 0.08498800000000002
vn -0.439988 -0.879979 -0.17901799999999995
vn -0.879981 0.439985 -0.17901700000000004
vn -0.879981 0.439985 -0.17901700000000004
vn -0.445599 0.89119 0.08498899999999994
vn -0.891191 -0.445595 0.08498800000000002
vn 0.6908 -0.34540199999999993 0.63521
vn 0.445595 -0.891191 0.08498800000000005
vn 0.445595 -0.891191 0.08498800000000005
vn -0.6908 0.34540200000000004 0.63521
vn -0.2746 -0.549197 0.789289
vn -0.891191 -0.445595 0.08498800000000002
vn -0.891191 -0.445595 0.08498800000000002
vn -0.445599 0.89119 0.08498899999999994
vn -0.6908 0.34540200000000004 0.63521
vn 1 0 0
vn -0.916562 0.397297 0.04549099999999997
vn -0.945596 -0.22588300000000003 -0.234147
vn -0.916562 0.397297 0.04549099999999997
vn 0.916563 -0.397295 0.045491000000000024
vn 0.945596 0.22588199999999997 -0.234149
vn 0.225883 -0.945596 -0.23414799999999994
vn 0.225883 -0.945596 -0.23414799999999994
vn -0.397294 -0.916563 0.04549200000000005
vn 0.916563 -0.397295 0.045491000000000024
vn -0.916562 0.397297 0.04549099999999997
vn -0.916562 0.397297 0.04549099999999997
vn 0.144566 -0.605177 0.782855
vn 0.760551 0.18168100000000004 0.623341
vn 0.916563 -0.397295 0.045491000000000024
vn 0.916563 -0.397295 0.045491000000000024
vn -0.397294 -0.916563 0.04549200000000005
vn 0.144566 -0.605177 0.782855
vn 0.33918 0.931344 -0.13249500000000006
vn -0.339175 -0.931346 0.13249500000000006
vn 0.33918 0.931344 -0.13249500000000006
vn 0.173561 -0.984383 -0.02945699999999994
vn 0.173561 -0.984383 -0.02945699999999994
vn -0.173559 0.984383 0.02945699999999994
vn -0.944535 0.314844 0.09341399999999998
vn -0.877523 -0.292509 -0.37999
vn -0.944535 0.314844 0.09341399999999998
vn 0.314846 0.944535 0.09341399999999994
vn -0.292508 0.877523 -0.37999000000000005
vn 0.877524 0.292507 -0.379989
vn 0.877524 0.292507 -0.379989
vn 0.944535 -0.314846 0.09341400000000001
vn 0.314846 0.944535 0.09341399999999994
vn -0.631877 -0.21062699999999995 0.745901
vn -0.944535 0.314844 0.09341399999999998
vn -0.944535 0.314844 0.09341399999999998
vn 0.631878 0.21062500000000006 0.7459
vn -0.166594 0.49978300000000003 0.849979
vn 0.314846 0.944535 0.09341399999999994
vn 0.314846 0.944535 0.09341399999999994
vn 0.944535 -0.314846 0.09341400000000001
vn 0.631878 0.21062500000000006 0.7459
vn -0.632749 0.756292 -0.16628300000000004
vn -0.632749 0.756292 -0.16628300000000004
vn 0.632746 -0.756295 0.16628300000000004
vn -0.939588 0.341982 -0.014958000000000022
vn -0.939588 0.341982 -0.014958000000000022
vn 0.939589 -0.341979 0.014958000000000022
vn -0.939694 0.341992 -0.004021000000000021
vn -0.939694 0.341992 -0.004021000000000021
vn 0.939688 -0.342009 0.004021000000000021
vn 0.173154 -0.982452 -0.06932899999999995
vn 0.173154 -0.982452 -0.06932899999999995
vn -0.173147 0.982453 0.06932899999999995
vn 0.512105 0.690806 0.510427
vn 0.270748 -0.91111 -0.31076499999999996
vn 0.796102 -0.59081 0.13101800000000002
vn 0.270748 -0.91111 -0.31076499999999996
vn -0.910608 -0.271118 -0.311911
vn -0.512103 -0.690807 0.510428
vn -0.910608 -0.271118 -0.311911
vn 0.910608 0.271118 -0.311911
vn 0.512105 0.690806 0.510427
vn 0.512105 0.690806 0.510427
vn -0.796101 0.59081 0.13101999999999997
vn -0.985808 0.167879 -1.0279623999702926E-17
vn -0.985808 0.167879 -1.0279623999702926E-17
vn 0.985808 -0.167879 1.0279623999702926E-17
vn 0.427216 -0.900936 -0.07616899999999995
vn 0.355428 -0.830383 0.42911000000000005
vn 0.181687 -0.982223 0.04720800000000006
vn 0.355428 -0.830383 0.42911000000000005
vn -0.004091 0.911153 0.41204799999999997
vn -0.455763 0.889419 -0.03483500000000005
vn -0.455763 0.889419 -0.03483500000000005
vn 0.957678 -0.10758700000000002 -0.266981
vn 0.848733 -0.10669299999999997 0.517947
vn 0.754775 0.644897 0.12009599999999995
vn 0.355428 -0.830383 0.42911000000000005
vn 0.848733 -0.10669299999999997 0.517947
g 01
f 559/559/559 562/562/562 561/561/561
f 561/561/561 560/560/560 559/559/559
f 818/818/818 817/817/817 370/370/370
f 370/370/370 816/816/816 815/815/815
f 374/374/374 814/814/814 813/813/813
f 812/812/812 811/811/811 374/374/374
f 373/373/373 369/369/369 556/556/556
f 556/556/556 558/558/558 373/373/373
f 372/372/372 368/368/368 367/367/367
f 367/367/367 371/371/371 372/372/372
f 810/810/810 809/809/809 366/366/366
f 366/366/366 370/370/370 808/808/808
f 369/369/369 365/365/365 557/557/557
f 557/557/557 556/556/556 369/369/369
f 367/367/367 368/368/368 364/364/364
f 364/364/364 363/363/363 367/367/367
f 357/357/357 355/355/355 356/356/356
f 356/356/356 355/355/355 354/354/354
f 807/807/807 555/555/555 554/554/554
f 554/554/554 553/553/553 807/807/807
f 551/551/551 806/806/806 805/805/805
f 804/804/804 552/552/552 551/551/551
f 335/335/335 334/334/334 332/332/332
f 332/332/332 333/333/333 335/335/335
f 550/550/550 803/803/803 802/802/802
f 801/801/801 800/800/800 550/550/550
f 799/799/799 798/798/798 549/549/549
f 549/549/549 331/331/331 797/797/797
f 796/796/796 795/795/795 548/548/548
f 548/548/548 330/330/330 794/794/794
f 328/328/328 793/793/793 547/547/547
f 547/547/547 329/329/329 328/328/328
f 326/326/326 325/325/325 324/324/324
f 324/324/324 327/327/327 326/326/326
f 353/353/353 322/322/322 323/323/323
f 323/323/323 322/322/322 321/321/321
f 320/320/320 318/318/318 319/319/319
f 319/319/319 318/318/318 317/317/317
f 316/316/316 314/314/314 315/315/315
f 315/315/315 314/314/314 313/313/313
f 312/312/312 310/310/310 311/311/311
f 311/311/311 310/310/310 309/309/309
f 545/545/545 792/792/792 791/791/791
f 790/790/790 546/546/546 545/545/545
f 306/306/306 308/308/308 307/307/307
f 307/307/307 305/305/305 306/306/306
f 543/543/543 789/789/789 788/788/788
f 787/787/787 544/544/544 543/543/543
f 350/350/350 351/351/351 304/304/304
f 304/304/304 303/303/303 350/350/350
f 541/541/541 786/786/786 785/785/785
f 784/784/784 542/542/542 541/541/541
f 199/199/199 200/200/200 302/302/302
f 302/302/302 301/301/301 199/199/199
f 539/539/539 783/783/783 782/782/782
f 781/781/781 540/540/540 539/539/539
f 298/298/298 300/300/300 299/299/299
f 299/299/299 297/297/297 298/298/298
f 535/535/535 538/538/538 537/537/537
f 537/537/537 536/536/536 535/535/535
f 780/780/780 779/779/779 778/778/778
f 777/777/777 776/776/776 775/775/775
f 296/296/296 292/292/292 774/774/774
f 773/773/773 772/772/772 296/296/296
f 295/295/295 291/291/291 532/532/532
f 532/532/532 534/534/534 295/295/295
f 294/294/294 290/290/290 289/289/289
f 289/289/289 293/293/293 294/294/294
f 771/771/771 770/770/770 769/769/769
f 768/768/768 767/767/767 766/766/766
f 765/765/765 292/292/292 288/288/288
f 288/288/288 764/764/764 763/763/763
f 532/532/532 291/291/291 287/287/287
f 287/287/287 533/533/533 532/532/532
f 289/289/289 290/290/290 286/286/286
f 286/286/286 285/285/285 289/289/289
f 530/530/530 762/762/762 761/761/761
f 760/760/760 531/531/531 530/530/530
f 282/282/282 284/284/284 283/283/283
f 283/283/283 281/281/281 282/282/282
f 759/759/759 529/529/529 528/528/528
f 528/528/528 758/758/758 757/757/757
f 278/278/278 280/280/280 279/279/279
f 279/279/279 277/277/277 278/278/278
f 524/524/524 527/527/527 526/526/526
f 526/526/526 525/525/525 524/524/524
f 756/756/756 755/755/755 754/754/754
f 753/753/753 752/752/752 751/751/751
f 275/275/275 271/271/271 519/519/519
f 519/519/519 523/523/523 275/275/275
f 274/274/274 522/522/522 750/750/750
f 749/749/749 521/521/521 274/274/274
f 272/272/272 276/276/276 273/273/273
f 273/273/273 269/269/269 272/272/272
f 748/748/748 747/747/747 746/746/746
f 745/745/745 744/744/744 743/743/743
f 519/519/519 271/271/271 267/267/267
f 267/267/267 520/520/520 519/519/519
f 742/742/742 270/270/270 266/266/266
f 266/266/266 741/741/741 740/740/740
f 272/272/272 269/269/269 265/265/265
f 265/265/265 268/268/268 272/272/272
f 739/739/739 518/518/518 517/517/517
f 394/394/394 393/393/393 404/404/404
f 403/403/403 264/264/264 406/406/406
f 263/263/263 392/392/392 391/391/391
f 513/513/513 516/516/516 515/515/515
f 515/515/515 514/514/514 513/513/513
f 738/738/738 737/737/737 736/736/736
f 735/735/735 734/734/734 733/733/733
f 262/262/262 258/258/258 732/732/732
f 731/731/731 730/730/730 262/262/262
f 261/261/261 257/257/257 510/510/510
f 510/510/510 512/512/512 261/261/261
f 260/260/260 256/256/256 255/255/255
f 255/255/255 259/259/259 260/260/260
f 729/729/729 728/728/728 727/727/727
f 726/726/726 725/725/725 724/724/724
f 723/723/723 258/258/258 254/254/254
f 254/254/254 722/722/722 721/721/721
f 510/510/510 257/257/257 253/253/253
f 253/253/253 511/511/511 510/510/510
f 255/255/255 256/256/256 252/252/252
f 252/252/252 251/251/251 255/255/255
f 506/506/506 509/509/509 508/508/508
f 508/508/508 507/507/507 506/506/506
f 720/720/720 719/719/719 718/718/718
f 717/717/717 716/716/716 715/715/715
f 249/249/249 245/245/245 501/501/501
f 501/501/501 505/505/505 249/249/249
f 248/248/248 504/504/504 714/714/714
f 713/713/713 503/503/503 248/248/248
f 246/246/246 250/250/250 247/247/247
f 247/247/247 243/243/243 246/246/246
f 712/712/712 711/711/711 710/710/710
f 709/709/709 708/708/708 707/707/707
f 501/501/501 245/245/245 241/241/241
f 241/241/241 502/502/502 501/501/501
f 706/706/706 244/244/244 240/240/240
f 240/240/240 705/705/705 704/704/704
f 246/246/246 243/243/243 239/239/239
f 239/239/239 242/242/242 246/246/246
f 497/497/497 500/500/500 499/499/499
f 499/499/499 498/498/498 497/497/497
f 703/703/703 702/702/702 701/701/701
f 700/700/700 699/699/699 698/698/698
f 238/238/238 234/234/234 697/697/697
f 696/696/696 695/695/695 238/238/238
f 237/237/237 233/233/233 494/494/494
f 494/494/494 496/496/496 237/237/237
f 236/236/236 232/232/232 231/231/231
f 231/231/231 235/235/235 236/236/236
f 694/694/694 693/693/693 692/692/692
f 691/691/691 690/690/690 689/689/689
f 688/688/688 234/234/234 229/229/229
f 229/229/229 687/687/687 686/686/686
f 494/494/494 233/233/233 228/228/228
f 228/228/228 495/495/495 494/494/494
f 231/231/231 232/232/232 227/227/227
f 227/227/227 230/230/230 231/231/231
f 492/492/492 685/685/685 684/684/684
f 683/683/683 493/493/493 492/492/492
f 198/198/198 349/349/349 225/225/225
f 225/225/225 226/226/226 198/198/198
f 490/490/490 682/682/682 681/681/681
f 680/680/680 491/491/491 490/490/490
f 347/347/347 348/348/348 224/224/224
f 224/224/224 223/223/223 347/347/347
f 488/488/488 679/679/679 678/678/678
f 677/677/677 489/489/489 488/488/488
f 197/197/197 346/346/346 221/221/221
f 221/221/221 222/222/222 197/197/197
f 486/486/486 676/676/676 675/675/675
f 674/674/674 487/487/487 486/486/486
f 196/196/196 345/345/345 220/220/220
f 220/220/220 219/219/219 196/196/196
f 673/673/673 485/485/485 484/484/484
f 484/484/484 672/672/672 671/671/671
f 195/195/195 344/344/344 218/218/218
f 218/218/218 217/217/217 195/195/195
f 482/482/482 670/670/670 669/669/669
f 668/668/668 483/483/483 482/482/482
f 343/343/343 194/194/194 216/216/216
f 216/216/216 215/215/215 343/343/343
f 480/480/480 667/667/667 666/666/666
f 665/665/665 481/481/481 480/480/480
f 341/341/341 342/342/342 214/214/214
f 214/214/214 213/213/213 341/341/341
f 478/478/478 664/664/664 663/663/663
f 662/662/662 479/479/479 478/478/478
f 193/193/193 340/340/340 212/212/212
f 212/212/212 211/211/211 193/193/193
f 476/476/476 661/661/661 660/660/660
f 659/659/659 477/477/477 476/476/476
f 339/339/339 192/192/192 210/210/210
f 210/210/210 209/209/209 339/339/339
f 474/474/474 658/658/658 657/657/657
f 656/656/656 475/475/475 474/474/474
f 338/338/338 191/191/191 208/208/208
f 208/208/208 207/207/207 338/338/338
f 205/205/205 206/206/206 473/473/473
f 473/473/473 472/472/472 205/205/205
f 203/203/203 201/201/201 202/202/202
f 202/202/202 204/204/204 203/203/203
f 468/468/468 471/471/471 470/470/470
f 470/470/470 469/469/469 468/468/468
f 655/655/655 654/654/654 653/653/653
f 652/652/652 651/651/651 650/650/650
f 190/190/190 186/186/186 649/649/649
f 648/648/648 647/647/647 190/190/190
f 189/189/189 185/185/185 465/465/465
f 465/465/465 467/467/467 189/189/189
f 188/188/188 184/184/184 183/183/183
f 183/183/183 187/187/187 188/188/188
f 646/646/646 645/645/645 644/644/644
f 643/643/643 642/642/642 641/641/641
f 640/640/640 186/186/186 182/182/182
f 182/182/182 639/639/639 638/638/638
f 465/465/465 185/185/185 181/181/181
f 181/181/181 466/466/466 465/465/465
f 183/183/183 184/184/184 180/180/180
f 180/180/180 179/179/179 183/183/183
f 637/637/637 464/464/464 463/463/463
f 463/463/463 636/636/636 635/635/635
f 177/177/177 178/178/178 176/176/176
f 176/176/176 175/175/175 177/177/177
f 462/462/462 634/634/634 633/633/633
f 632/632/632 631/631/631 462/462/462
f 630/630/630 629/629/629 461/461/461
f 461/461/461 174/174/174 628/628/628
f 627/627/627 626/626/626 460/460/460
f 460/460/460 173/173/173 625/625/625
f 171/171/171 624/624/624 459/459/459
f 459/459/459 172/172/172 171/171/171
f 169/169/169 168/168/168 167/167/167
f 167/167/167 170/170/170 169/169/169
f 352/352/352 165/165/165 166/166/166
f 166/166/166 165/165/165 164/164/164
f 163/163/163 161/161/161 162/162/162
f 162/162/162 161/161/161 160/160/160
f 159/159/159 157/157/157 158/158/158
f 158/158/158 157/157/157 156/156/156
f 155/155/155 153/153/153 154/154/154
f 154/154/154 153/153/153 152/152/152
f 151/151/151 149/149/149 150/150/150
f 150/150/150 149/149/149 148/148/148
f 455/455/455 458/458/458 457/457/457
f 457/457/457 456/456/456 455/455/455
f 144/144/144 145/145/145 147/147/147
f 147/147/147 146/146/146 144/144/144
f 142/142/142 143/143/143 145/145/145
f 145/145/145 144/144/144 142/142/142
f 143/143/143 142/142/142 140/140/140
f 140/140/140 141/141/141 143/143/143
f 139/139/139 138/138/138 136/136/136
f 136/136/136 137/137/137 139/139/139
f 132/132/132 133/133/133 135/135/135
f 135/135/135 134/134/134 132/132/132
f 452/452/452 454/454/454 453/453/453
f 453/453/453 117/117/117 452/452/452
f 449/449/449 451/451/451 121/121/121
f 121/121/121 450/450/450 449/449/449
f 447/447/447 623/623/623 622/622/622
f 621/621/621 448/448/448 447/447/447
f 131/131/131 129/129/129 128/128/128
f 128/128/128 130/130/130 131/131/131
f 620/620/620 446/446/446 619/619/619
f 125/125/125 127/127/127 126/126/126
f 444/444/444 123/123/123 119/119/119
f 119/119/119 445/445/445 444/444/444
f 124/124/124 120/120/120 118/118/118
f 118/118/118 122/122/122 124/124/124
f 442/442/442 618/618/618 617/617/617
f 616/616/616 443/443/443 442/442/442
f 114/114/114 116/116/116 115/115/115
f 115/115/115 113/113/113 114/114/114
f 440/440/440 615/615/615 614/614/614
f 613/613/613 441/441/441 440/440/440
f 110/110/110 112/112/112 111/111/111
f 111/111/111 109/109/109 110/110/110
f 106/106/106 108/108/108 107/107/107
f 107/107/107 104/104/104 106/106/106
f 106/106/106 104/104/104 103/103/103
f 103/103/103 105/105/105 106/106/106
f 612/612/612 102/102/102 611/611/611
f 101/101/101 336/336/336 337/337/337
f 97/97/97 98/98/98 100/100/100
f 100/100/100 99/99/99 97/97/97
f 95/95/95 96/96/96 98/98/98
f 98/98/98 97/97/97 95/95/95
f 93/93/93 94/94/94 96/96/96
f 96/96/96 95/95/95 93/93/93
f 92/92/92 91/91/91 610/610/610
f 609/609/609 608/608/608 92/92/92
f 90/90/90 89/89/89 607/607/607
f 606/606/606 605/605/605 90/90/90
f 87/87/87 86/86/86 85/85/85
f 85/85/85 88/88/88 87/87/87
f 84/84/84 77/77/77 604/604/604
f 603/603/603 602/602/602 84/84/84
f 83/83/83 78/78/78 601/601/601
f 600/600/600 599/599/599 83/83/83
f 80/80/80 81/81/81 79/79/79
f 79/79/79 82/82/82 80/80/80
f 438/438/438 598/598/598 597/597/597
f 596/596/596 439/439/439 438/438/438
f 74/74/74 76/76/76 75/75/75
f 75/75/75 73/73/73 74/74/74
f 437/437/437 595/595/595 594/594/594
f 390/390/390 389/389/389 402/402/402
f 395/395/395 72/72/72 405/405/405
f 71/71/71 388/388/388 387/387/387
f 433/433/433 436/436/436 435/435/435
f 435/435/435 434/434/434 433/433/433
f 593/593/593 592/592/592 591/591/591
f 590/590/590 589/589/589 588/588/588
f 70/70/70 66/66/66 587/587/587
f 586/586/586 585/585/585 70/70/70
f 69/69/69 65/65/65 430/430/430
f 430/430/430 432/432/432 69/69/69
f 68/68/68 64/64/64 63/63/63
f 63/63/63 67/67/67 68/68/68
f 584/584/584 583/583/583 582/582/582
f 581/581/581 580/580/580 579/579/579
f 578/578/578 66/66/66 62/62/62
f 62/62/62 577/577/577 576/576/576
f 430/430/430 65/65/65 61/61/61
f 61/61/61 431/431/431 430/430/430
f 63/63/63 64/64/64 60/60/60
f 60/60/60 59/59/59 63/63/63
f 426/426/426 429/429/429 428/428/428
f 428/428/428 427/427/427 426/426/426
f 56/56/56 54/54/54 52/52/52
f 52/52/52 55/55/55 56/56/56
f 56/56/56 55/55/55 51/51/51
f 51/51/51 53/53/53 56/56/56
f 386/386/386 385/385/385 399/399/399
f 383/383/383 400/400/400 384/384/384
f 575/575/575 48/48/48 574/574/574
f 47/47/47 573/573/573 572/572/572
f 381/381/381 401/401/401 382/382/382
f 379/379/379 398/398/398 380/380/380
f 45/45/45 50/50/50 49/49/49
f 49/49/49 46/46/46 45/45/45
f 425/425/425 424/424/424 423/423/423
f 571/571/571 570/570/570 569/569/569
f 568/568/568 567/567/567 566/566/566
f 421/421/421 43/43/43 40/40/40
f 40/40/40 422/422/422 421/421/421
f 44/44/44 42/42/42 39/39/39
f 39/39/39 41/41/41 44/44/44
f 377/377/377 397/397/397 378/378/378
f 375/375/375 396/396/396 376/376/376
f 38/38/38 37/37/37 35/35/35
f 35/35/35 36/36/36 38/38/38
f 33/33/33 34/34/34 565/565/565
f 564/564/564 563/563/563 33/33/33
f 31/31/31 25/25/25 26/26/26
f 26/26/26 32/32/32 31/31/31
f 29/29/29 30/30/30 28/28/28
f 28/28/28 27/27/27 29/29/29
f 413/413/413 13/13/13 20/20/20
f 20/20/20 420/420/420 413/413/413
f 420/420/420 20/20/20 19/19/19
f 19/19/19 419/419/419 420/420/420
f 419/419/419 19/19/19 18/18/18
f 18/18/18 418/418/418 419/419/419
f 418/418/418 18/18/18 17/17/17
f 17/17/17 415/415/415 418/418/418
f 415/415/415 17/17/17 417/417/417
f 417/417/417 416/416/416 415/415/415
f 414/414/414 16/16/16 15/15/15
f 15/15/15 23/23/23 414/414/414
f 23/23/23 15/15/15 14/14/14
f 14/14/14 412/412/412 23/23/23
f 412/412/412 14/14/14 13/13/13
f 13/13/13 413/413/413 412/412/412
f 360/360/360 359/359/359 361/361/361
f 359/359/359 24/24/24 361/361/361
f 359/359/359 22/22/22 24/24/24
f 359/359/359 358/358/358 22/22/22
f 22/22/22 21/21/21 24/24/24
f 24/24/24 362/362/362 361/361/361
f 410/410/410 1/1/1 4/4/4
f 4/4/4 411/411/411 410/410/410
f 9/9/9 8/8/8 11/11/11
f 11/11/11 10/10/10 9/9/9
f 58/58/58 57/57/57 2/2/2
f 2/2/2 409/409/409 58/58/58
f 407/407/407 6/6/6 2/2/2
f 2/2/2 408/408/408 407/407/407
f 7/7/7 3/3/3 12/12/12
f 12/12/12 5/5/5 7/7/7
