v 1.313227 0.959318 0.6992319999999999
v 1.359937 0.62363 0.696608
v 1.406647 0.28794200000000003 0.693985
v 1.321122 0.9600130000000001 0.9357619999999999
v 1.366694 0.6255180000000001 0.933139
v 1.412265 0.29102500000000003 0.930515
v 1.329018 0.9607060000000001 1.172292
v 1.373452 0.6274070000000002 1.169669
v 1.417885 0.29410900000000006 1.167045
v 1.404649 0.26812900000000006 0.695161
v 1.36716 0.13882700000000003 0.647289
v 1.329672 0.009525000000000037 0.599416
v 1.413497 0.26945700000000006 0.933727
v 1.383263 0.14015400000000006 0.890673
v 1.35303 0.010853000000000052 0.847619
v 1.422346 0.2707840000000001 1.172292
v 1.399366 0.14148200000000008 1.134058
v 1.376388 0.012179000000000068 1.095824
v 0.075154 1.424535 0.3313329999999999
v 0.350167 1.438419 0.3287099999999999
v 0.625179 1.452303 0.3260859999999999
v 0.074461 1.43243 0.5678639999999999
v 0.348278 1.445397 0.5652399999999999
v 0.622098 1.458363 0.5626169999999999
v 0.073767 1.440327 0.8043939999999999
v 0.346391 1.452376 0.8017709999999999
v 0.619014 1.464423 0.7991469999999999
vt 0.857178 0.995280
vt 0.857178 0.916563
vt 0.857178 0.837847
vt 0.822957 0.995280
vt 0.822957 0.916563
vt 0.822957 0.837847
vt 0.788735 0.995280
vt 0.788735 0.916563
vt 0.788735 0.837847
vt 0.855579 0.821155
vt 0.855579 0.787888
vt 0.855579 0.754620
vt 0.822760 0.821155
vt 0.822760 0.787888
vt 0.822760 0.754620
vt 0.789941 0.821155
vt 0.789941 0.787888
vt 0.789941 0.754620
vt 0.513205 0.464890
vt 0.549426 0.465617
vt 0.585647 0.466343
vt 0.513114 0.399382
vt 0.549177 0.400109
vt 0.585241 0.400836
vt 0.513023 0.333875
vt 0.548929 0.334601
vt 0.584835 0.335328
vn 0.99013 0.136581 -0.03141900000000001
vn 0.990169 0.137038 -0.028025000000000008
vn 0.990113 0.137969 -0.02531600000000001
vn 0.990431 0.134224 -0.032096000000000006
vn 0.990389 0.135157 -0.029375000000000005
vn 0.990338 0.13609 -0.02666200000000001
vn 0.990641 0.13233 -0.033460000000000004
vn 0.990603 0.133269 -0.030733000000000007
vn 0.990641 0.133728 -0.027330000000000007
vn 0.970389 -0.236586 -0.048713999999999986
vn 0.96889 -0.236844 -0.07181399999999999
vn 0.964967 -0.246635 -0.08949399999999999
vn 0.979552 -0.196159 -0.04471299999999999
vn 0.976288 -0.207019 -0.06328299999999999
vn 0.972712 -0.217314 -0.08127499999999999
vn 0.985709 -0.164642 -0.03564699999999999
vn 0.982875 -0.17603 -0.05450999999999999
vn 0.981128 -0.177102 -0.07760199999999999
vn -0.049137 0.99829 -0.03165900000000006
vn -0.049633 0.998357 -0.02864300000000006
vn -0.050655 0.998372 -0.026237000000000062
vn -0.046536 0.998396 -0.03225500000000006
vn -0.047559 0.998423 -0.029836000000000064
vn -0.048584 0.998442 -0.02742600000000006
vn -0.044449 0.998451 -0.03346300000000006
vn -0.045476 0.998483 -0.031040000000000064
vn -0.045975 0.99855 -0.028011000000000064
g 01
f 23/23/23 26/26/26 27/27/27
f 27/27/27 24/24/24 23/23/23
f 22/22/22 25/25/25 26/26/26
f 26/26/26 23/23/23 22/22/22
f 20/20/20 23/23/23 24/24/24
f 24/24/24 21/21/21 20/20/20
f 19/19/19 22/22/22 23/23/23
f 23/23/23 20/20/20 19/19/19
f 14/14/14 17/17/17 18/18/18
f 18/18/18 15/15/15 14/14/14
f 13/13/13 16/16/16 17/17/17
f 17/17/17 14/14/14 13/13/13
f 11/11/11 14/14/14 15/15/15
f 15/15/15 12/12/12 11/11/11
f 10/10/10 13/13/13 14/14/14
f 14/14/14 11/11/11 10/10/10
f 5/5/5 8/8/8 9/9/9
f 9/9/9 6/6/6 5/5/5
f 4/4/4 7/7/7 8/8/8
f 8/8/8 5/5/5 4/4/4
f 2/2/2 5/5/5 6/6/6
f 6/6/6 3/3/3 2/2/2
f 1/1/1 4/4/4 5/5/5
f 5/5/5 2/2/2 1/1/1
