v 0.791751 -0.008403 -0.0036309999999999997
v 1.459718 -0.394053 -0.003630999999999976
v 0.290864 -0.935266 0.35367100000000007
v 0.359471 -0.974889 0.35367100000000007
v 0.290795 -0.934813 -0.006013999999999943
v -0.920753 -1.401911 0.20772200000000007
v -1.022051 -1.401806 -0.006013999999999914
v -1.009565 -1.477392 -0.00601399999999991
v -0.908269 -1.477498 0.20772200000000007
v -0.292111 -1.424882 -0.006013999999999913
v -0.292111 -1.424882 0.3646250000000001
v 0.359404 -0.974437 -0.00601399999999994
v -0.29856 -1.337265 0.36462500000000003
v -0.29856 -1.337265 -0.006013999999999919
v 0.810031 -0.07891199999999995 0.777047
v 1.389518 -0.41347899999999993 0.777047
v 0.320375 -0.927016 0.7770470000000002
v 0.918142 -1.332091 -0.0036309999999999186
v 0.899864 -1.261583 0.7770470000000002
v -0.583845 -0.10639399999999996 0.762505
v -0.607194 -0.09550599999999995 0.762505
v -0.306943 0.4874240000000001 0.762505
v -0.330292 0.49831200000000003 0.762505
v -0.508695 0.22391000000000008 1.136224
v -0.5196 0.2005220000000001 1.136224
v -0.471765 0.247007 -0.010078000000000016
v -0.48267 0.223619 -0.010078000000000014
v -0.747357 -0.915095 5.603340813328736E-17
v -0.547722 -1.008186 6.173358789225867E-17
v -0.547722 -1.008186 0.13034900000000005
v -0.747357 -0.915095 0.13034900000000005
v -0.638385 -1.202613 0.1304460000000001
v -0.638385 -1.202613 7.363880805314979E-17
v -0.838022 -1.109522 6.793862829417847E-17
v -0.838022 -1.109522 0.13044600000000006
v -0.77524 -0.877383 0.13556700000000005
v -0.500911 -1.005306 0.13556700000000005
v -0.610502 -1.240325 0.1356630000000001
v -0.884832 -1.112403 0.13566300000000006
v 1.287709 -0.821106 0.12711000000000006
v 1.32753 -0.930627 0.12673000000000006
v 1.217238 -0.97101 0.12627500000000005
v 1.177623 -0.861616 0.12674800000000006
v 1.269004 -0.858126 -0.0022749999999999476
v 1.254158 -0.895929 0.23614600000000005
v 1.289316 -0.913947 -0.002320999999999944
v 1.233436 -0.934309 -0.002369999999999943
v 1.213131 -0.878492 -0.002318999999999946
v 1.43205 0.935955 -5.731071474479804E-17
v 1.404553 0.940803 -5.760756912891136E-17
v 1.436898 0.96345 -5.899429793192588E-17
v 1.409403 0.968298 -5.929115231603919E-17
v 1.43205 0.935955 0.37823999999999997
v 1.404553 0.940803 0.37823999999999997
v 1.436898 0.96345 0.37823999999999997
v 1.409403 0.968298 0.37823999999999997
v 1.370538 1.030268 0.32624099999999995
v 1.409221 1.023142 0.32281199999999993
v 1.391872 1.028094 0.34411899999999995
v 1.395408 0.372573 0.15123999999999999
v 1.434092 0.365447 0.14781199999999997
v 1.416742 0.370399 0.16911899999999996
v 1.370538 1.030268 0.18378899999999995
v 1.409221 1.023142 0.18036099999999994
v 1.391872 1.028094 0.20166799999999993
v 1.395408 0.372573 0.07194199999999998
v 1.434092 0.365447 0.06851399999999998
v 1.416742 0.3704 0.08982099999999997
v 1.393209 0.416004 -2.5472898351624774E-17
v 1.365714 0.420852 -2.5769752735738095E-17
v 1.398057 0.4435 -2.715654277109256E-17
v 1.370562 0.448348 -2.7453397155205877E-17
v 1.393209 0.416004 0.22503799999999996
v 1.365714 0.420852 0.22503799999999996
v 1.398057 0.4435 0.22503799999999996
v 1.370562 0.448348 0.22503799999999996
v 0.559846 -0.254589 -0.0015019999999999845
v 0.661872 -0.077217 -0.0015019999999999953
v 0.689816 -0.30899099999999996 0.866085
v 0.779667 -0.15897699999999995 0.866085
v 0.544751 -0.992463 0.8161040000000002
v 0.417083 -0.975289 0.8936350000000001
v 0.379102 -0.82989 0.888982
v 0.483295 -0.757202 0.808575
v 0.585673 -0.857679 0.763533
v -1.269402 1.132367 0.25184899999999993
v -1.063099 0.987913 0.25184899999999993
v -1.207554 0.78161 0.25184899999999993
v -1.413856 0.926064 0.25184899999999993
v -1.269402 1.132367 -6.933748110050454E-17
v -1.063099 0.987913 -6.049222466430296E-17
v -1.207554 0.78161 -4.785980923407814E-17
v -1.413856 0.926064 -5.670506567027973E-17
v -1.148171 1.195699 0.5018419999999999
v -0.941868 1.051245 0.5018419999999999
v -1.086323 0.844942 0.501842
v -1.292625 0.989396 0.5018419999999999
v -1.148171 1.195699 0.2499929999999999
v -0.941868 1.051245 0.24999299999999994
v -1.086323 0.844942 0.24999299999999994
v -1.292625 0.989396 0.24999299999999994
v 1.121376 0.51459 0.2686819999999999
v 1.194573 0.548722 0.2686819999999999
v 1.242953 0.34942 0.364975
v 1.283049 0.61563 0.18722999999999998
v 1.144166 0.582075 0.11313899999999996
v 1.242667 0.685574 0.18722999999999995
v 1.444958 0.755737 0.15263199999999993
v 1.199358 0.439954 0.18722999999999998
v 1.140677 0.571453 0.11625899999999996
v 1.261226 0.491868 0.18722999999999998
v 1.365451 0.304834 0.11313899999999999
v 1.206411 0.508997 0.11598799999999997
v 1.185988 0.52942 -0.011842000000000033
v 1.0694 0.508997 0.11598799999999997
v 1.089823 0.52942 -0.011842000000000033
v 1.0694 0.646008 0.11598799999999995
v 1.089823 0.625585 -0.011842000000000038
v 1.206411 0.646008 0.11598799999999995
v 1.185988 0.625585 -0.011842000000000038
v 0.809713 -0.960311 0.8342910000000001
v 0.849534 -1.069833 0.8339110000000001
v 0.739241 -1.110215 0.8334560000000001
v 0.699627 -1.000822 0.8339290000000001
v 0.791008 -0.997331 0.7049060000000001
v 0.776161 -1.035134 0.9433270000000001
v 0.811319 -1.053153 0.7048600000000002
v 0.755439 -1.073515 0.7048120000000001
v 0.735135 -1.017697 0.7048620000000001
v -0.308094 -0.482404 0.12711000000000003
v -0.286118 -0.542845 0.12673000000000004
v -0.346984 -0.56513 0.12627500000000003
v -0.368845 -0.50476 0.12674800000000003
v -0.318416 -0.502834 -0.0022749999999999693
v -0.326609 -0.523696 0.23614600000000002
v -0.307207 -0.53364 -0.0023209999999999676
v -0.338044 -0.544877 -0.0023699999999999668
v -0.349251 -0.514073 -0.0023189999999999682
v -0.730709 0.95992 0.6966539999999999
v -0.707362 0.949033 0.6966539999999999
v -0.676212 1.023854 -0.010078000000000063
v -0.652865 1.012966 -0.010078000000000063
v -0.525947 -0.885626 0.838449
v -0.502599 -0.896513 0.838449
v -0.525863 -0.885686 -0.010077999999999946
v -0.502515 -0.896573 -0.010077999999999945
v -1.055977 -1.276646 0.9023160000000001
v -1.032629 -1.287534 0.9023160000000001
v -1.055893 -1.276707 -0.010077999999999922
v -1.032546 -1.287594 -0.010077999999999922
v -1.121631 0.14473200000000006 0.762505
v -1.14498 0.15562000000000006 0.762505
v -0.844729 0.73855 0.762505
v -0.868078 0.749437 0.762505
v -0.519908 -0.022822999999999954 0.740814
v -0.530797 -0.04617199999999995 0.740814
v -1.113727 0.25407900000000005 0.740814
v -1.124614 0.23072900000000005 0.740814
v -0.40456 0.19972000000000006 0.944398
v -0.415448 0.17637100000000006 0.944398
v -1.062471 0.5059200000000001 0.944398
v -1.073359 0.4825710000000001 0.944398
v -0.310657 0.43032800000000004 0.742499
v -0.321544 0.40697800000000006 0.742499
v -0.914985 0.684199 0.742499
v -1.264584 -0.13143 -0.047550999999999996
v -1.241234 -0.142318 -0.04755199999999999
v -1.467209 -0.565583 0.35710300000000006
v -1.44386 -0.576471 0.35710300000000006
v 1.072533 0.77899 0.537891
v 1.055126 0.792943 0.537891
v 1.346408 1.123377 0.44256299999999993
v 1.329 1.13733 0.44256299999999993
v 0.250175 -0.946441 -0.003630999999999942
v -1.227214 1.160945 0.25184899999999993
v -1.065329 0.968017 0.25184899999999993
v -0.872401 1.129903 0.25184899999999993
v -1.034286 1.32283 0.25184899999999993
v -1.227214 1.160945 -7.10873789118062E-17
v -1.065329 0.968017 -5.927394602851117E-17
v -0.872401 1.129903 -6.91866046148496E-17
v -1.034286 1.32283 -8.099997626580466E-17
v 1.043273 1.217733 0.25184899999999993
v 1.279934 1.131596 0.25184899999999993
v 1.193796 0.894935 0.25184899999999993
v 0.957136 0.981072 0.25184899999999993
v 1.043273 1.217733 -7.456464103330519E-17
v 1.193796 0.894935 -5.479896415974683E-17
v 0.957136 0.981072 -6.007333422665461E-17
v 1.08576 0.618043 0.2686819999999999
v 1.08576 0.53728 0.2686819999999999
v 0.884685 0.577662 0.36497499999999994
v 1.111469 0.72694 0.18722999999999995
v 1.135724 0.584594 0.11625899999999996
v 1.038272 0.692808 0.18722999999999995
v 0.986006 0.900445 0.11313899999999995
v 0.989995 0.539694 0.18722999999999998
v 1.131894 0.573248 0.11521899999999996
v 1.030377 0.46975 0.18722999999999998
v 0.828086 0.399586 0.11313899999999998
v 1.09614 0.431782 0.18722999999999998
v 1.176904 0.431782 0.18722999999999998
v 1.136522 0.221511 0.11313899999999999
v 1.19183 0.611551 0.2686819999999999
v 1.115937 0.639174 0.2686819999999999
v 1.222655 0.814311 0.36497499999999994
v -0.395775 -0.525138 0.12711000000000003
v -0.355954 -0.634659 0.12673000000000004
v -0.466246 -0.675041 0.12627500000000003
v -0.505861 -0.565648 0.12674800000000003
v -0.41448 -0.562157 -0.002274999999999966
v -0.429326 -0.59996 0.23614600000000002
v -0.394168 -0.617979 -0.0023209999999999624
v -0.450048 -0.638341 -0.002369999999999961
v -0.470353 -0.582524 -0.0023189999999999643
v -0.16183 0.966246 0.12710999999999995
v -0.122009 0.856724 0.12672999999999995
v -0.232302 0.816342 0.12627499999999994
v -0.271916 0.925735 0.12674799999999994
v -0.180535 0.929226 -0.002275000000000057
v -0.195382 0.891423 0.23614599999999994
v -0.160223 0.873404 -0.0023210000000000535
v -0.216104 0.853042 -0.002370000000000052
v -0.236409 0.90886 -0.0023190000000000554
v 0.049544 0.898502 0.12710999999999995
v 0.089365 0.78898 0.12672999999999995
v -0.020927 0.748598 0.12627499999999994
v -0.060542 0.857991 0.12674799999999994
v 0.030839 0.861482 -0.002275000000000053
v 0.015993 0.823679 0.23614599999999994
v 0.051151 0.80566 -0.0023210000000000496
v -0.004729 0.785298 -0.0023700000000000483
v -0.025034 0.841116 -0.0023190000000000515
v 0.848882 0.973853 0.08149599999999994
v 0.940257 0.987102 0.20015599999999995
v 1.048315 0.883342 0.18739999999999996
v 1.023723 0.805965 0.06085699999999995
v 0.900466 0.861905 -0.004596000000000053
v 1.001503 1.165597 0.12672999999999993
v 0.891211 1.125214 0.12627499999999994
v 0.851596 1.234608 0.12674799999999992
v 0.928131 1.200296 0.2361459999999999
v 0.963289 1.182277 -0.0023210000000000726
v 0.907409 1.161915 -0.0023700000000000713
v 0.887104 1.217732 -0.0023190000000000745
v -0.869694 -0.71077 0.651313
v -0.846346 -0.721658 0.651313
v -0.86961 -0.710831 -0.010077999999999957
v -0.846262 -0.721718 -0.010077999999999957
v -1.397836 -0.46442199999999995 0.651772
v -1.374488 -0.4753089999999999 0.651772
v -1.397752 -0.464483 -0.010077999999999972
v -1.374404 -0.47537 -0.01007799999999997
v -0.869193 0.40190400000000004 1.162615
v -0.858287 0.42529200000000006 1.162616
v -1.458605 0.678978 -0.009191000000000041
v -1.4477 0.702366 -0.009191000000000043
v -0.113913 0.664462 0.701555
v -0.090566 0.653575 0.701555
v -0.149708 0.778581 -0.010078000000000047
v -0.126361 0.767693 -0.010078000000000047
v 0.004724 -0.19365199999999996 0.627795
v -0.006181 -0.21703999999999998 0.627795
v -0.04925 -0.223099 -0.010077999999999986
v -0.060155 -0.246487 -0.010077999999999985
v 0.177753 0.13463000000000003 0.63117
v 0.166848 0.11124200000000004 0.63117
v 0.154503 0.21494 -0.010078000000000014
v 0.143598 0.191551 -0.010078000000000012
v -0.929751 -0.860055 0.840918
v -0.906404 -0.870943 0.840918
v -0.929667 -0.860116 -0.010077999999999948
v -0.90632 -0.871003 -0.010077999999999946
v -0.57153 -1.376548 0.9101640000000001
v -0.548182 -1.387435 0.9101640000000001
v -0.571446 -1.376608 -0.010077999999999915
v -0.548098 -1.387496 -0.010077999999999915
v -0.029082 -0.600028 0.628943
v -0.039987 -0.623416 0.628943
v -0.028998 -0.600089 -0.010077999999999964
v -0.039903 -0.623477 -0.010077999999999962
v 0.310311 -0.29269899999999993 0.629106
v 0.299406 -0.31608699999999995 0.629106
v 0.310395 -0.29276 -0.010077999999999983
v 0.29949 -0.316148 -0.010077999999999981
v 1.005758 0.17923500000000006 0.681808
v 1.029106 0.16834800000000005 0.681808
v 0.957328 0.076161 -0.010078000000000005
v 0.980675 0.065274 -0.010078000000000004
v 1.354805 -0.08140499999999996 0.621291
v 1.378152 -0.09229199999999996 0.621291
v 1.305329 -0.191166 -0.010077999999999988
v 1.328676 -0.202054 -0.010077999999999988
v 0.838434 1.064934 0.6317829999999999
v 0.861782 1.054047 0.6317829999999999
v 0.838518 1.064874 -0.010078000000000066
v 0.861866 1.053987 -0.010078000000000064
v 1.109135 0.835605 0.593121
v 1.132482 0.824718 0.593121
v 1.109219 0.835545 -0.01007800000000005
v 1.132566 0.824658 -0.01007800000000005
v 1.30481 1.085384 0.5027519999999999
v 1.328157 1.074497 0.5027519999999999
v 1.304893 1.085324 -0.010078000000000066
v 1.328241 1.074437 -0.010078000000000066
v 1.056657 1.291779 0.49872399999999995
v 1.080004 1.280892 0.49872399999999995
v 1.056741 1.291718 -0.01007800000000008
v 1.080088 1.280831 -0.010078000000000078
v 1.409647 -1.378705 0.6291060000000002
v 1.432994 -1.389592 0.6291060000000002
v 1.409731 -1.378766 -0.010077999999999915
v 1.433078 -1.389653 -0.010077999999999915
v -0.780676 -0.714166 0.589592
v -0.791564 -0.737516 0.589592
v -1.479047 -0.38833499999999993 0.589592
v -1.489935 -0.41168399999999994 0.589592
v 0.825699 0.985358 0.5378909999999999
v 0.808292 0.999311 0.5378909999999999
v 1.119838 1.311962 0.44256299999999993
v 1.10243 1.325915 0.44256299999999993
v 0.869784 0.480203 -0.019704000000000027
v 0.85257 0.494385 -0.02016200000000003
v 1.152025 0.834559 0.609534
v 1.134809 0.848742 0.609075
v -0.904097 0.707548 0.742499
v 1.140677 0.571453 0.11625899999999996
v 0.250175 -0.946441 -0.003630999999999942
v 1.135724 0.584594 0.11625899999999996
v 1.131894 0.573248 0.11521899999999996
v 1.131894 0.573248 0.11521899999999996
v 0.290864 -0.935266 0.35367100000000007
v -0.29856 -1.337265 0.36462500000000003
v -0.920753 -1.401911 0.20772200000000007
v -1.022051 -1.401806 -0.006013999999999914
v -0.292111 -1.424882 0.3646250000000001
v -1.009565 -1.477392 -0.00601399999999991
v -0.908269 -1.477498 0.20772200000000007
v 0.359471 -0.974889 0.35367100000000007
v 0.320375 -0.927016 0.7770470000000002
v 0.810031 -0.07891199999999995 0.777047
v 1.389518 -0.41347899999999993 0.777047
v 0.899864 -1.261583 0.7770470000000002
v -0.48267 0.223619 -0.010078000000000014
v -0.5196 0.2005220000000001 1.136224
v -0.838022 -1.109522 0.13044600000000006
v -0.838022 -1.109522 6.793862829417847E-17
v 1.287709 -0.821106 0.12711000000000006
v 1.269004 -0.858126 -0.0022749999999999476
v 1.287709 -0.821106 0.12711000000000006
v 1.287709 -0.821106 0.12711000000000006
v 1.254158 -0.895929 0.23614600000000005
v 1.32753 -0.930627 0.12673000000000006
v 1.254158 -0.895929 0.23614600000000005
v 1.217238 -0.97101 0.12627500000000005
v 1.254158 -0.895929 0.23614600000000005
v 1.43205 0.935955 0.37823999999999997
v 1.43205 0.935955 -5.731071474479804E-17
v 1.370562 0.448348 0.22503799999999996
v 1.370562 0.448348 -2.7453397155205877E-17
v -1.063099 0.987913 -6.049222466430296E-17
v -1.413856 0.926064 0.25184899999999993
v -1.269402 1.132367 -6.933748110050454E-17
v -1.269402 1.132367 0.25184899999999993
v -0.941868 1.051245 0.24999299999999994
v -1.292625 0.989396 0.5018419999999999
v -1.148171 1.195699 0.2499929999999999
v -1.148171 1.195699 0.5018419999999999
v 1.0694 0.646008 0.11598799999999995
v 1.089823 0.625585 -0.011842000000000038
v 1.206411 0.646008 0.11598799999999995
v 1.206411 0.508997 0.11598799999999997
v 1.0694 0.508997 0.11598799999999997
v 1.0694 0.646008 0.11598799999999995
v 0.809713 -0.960311 0.8342910000000001
v 0.791008 -0.997331 0.7049060000000001
v 0.809713 -0.960311 0.8342910000000001
v 0.809713 -0.960311 0.8342910000000001
v 0.776161 -1.035134 0.9433270000000001
v 0.849534 -1.069833 0.8339110000000001
v 0.776161 -1.035134 0.9433270000000001
v 0.739241 -1.110215 0.8334560000000001
v 0.776161 -1.035134 0.9433270000000001
v -0.308094 -0.482404 0.12711000000000003
v -0.318416 -0.502834 -0.0022749999999999693
v -0.308094 -0.482404 0.12711000000000003
v -0.308094 -0.482404 0.12711000000000003
v -0.326609 -0.523696 0.23614600000000002
v -0.286118 -0.542845 0.12673000000000004
v -0.326609 -0.523696 0.23614600000000002
v -0.346984 -0.56513 0.12627500000000003
v -0.326609 -0.523696 0.23614600000000002
v -0.707362 0.949033 0.6966539999999999
v -0.652865 1.012966 -0.010078000000000063
v -0.502599 -0.896513 0.838449
v -0.502515 -0.896573 -0.010077999999999945
v -1.032629 -1.287534 0.9023160000000001
v -1.032546 -1.287594 -0.010077999999999922
v -1.264584 -0.13143 -0.047550999999999996
v -1.467209 -0.565583 0.35710300000000006
v 0.918142 -1.332091 -0.0036309999999999186
v 0.320375 -0.927016 0.7770470000000002
v 0.899864 -1.261583 0.7770470000000002
v -1.065329 0.968017 -5.927394602851117E-17
v -1.034286 1.32283 0.25184899999999993
v -1.227214 1.160945 0.25184899999999993
v -1.227214 1.160945 -7.10873789118062E-17
v 0.810031 -0.07891199999999995 0.777047
v 0.791751 -0.008403 -0.0036309999999999997
v 1.459718 -0.394053 -0.003630999999999976
v 1.389518 -0.41347899999999993 0.777047
v 0.957136 0.981072 0.25184899999999993
v 1.193796 0.894935 0.25184899999999993
v 0.957136 0.981072 -6.007333422665461E-17
v -0.395775 -0.525138 0.12711000000000003
v -0.41448 -0.562157 -0.002274999999999966
v -0.395775 -0.525138 0.12711000000000003
v -0.395775 -0.525138 0.12711000000000003
v -0.429326 -0.59996 0.23614600000000002
v -0.355954 -0.634659 0.12673000000000004
v -0.429326 -0.59996 0.23614600000000002
v -0.466246 -0.675041 0.12627500000000003
v -0.429326 -0.59996 0.23614600000000002
v -0.16183 0.966246 0.12710999999999995
v -0.180535 0.929226 -0.002275000000000057
v -0.16183 0.966246 0.12710999999999995
v -0.16183 0.966246 0.12710999999999995
v -0.195382 0.891423 0.23614599999999994
v -0.122009 0.856724 0.12672999999999995
v -0.195382 0.891423 0.23614599999999994
v -0.232302 0.816342 0.12627499999999994
v -0.195382 0.891423 0.23614599999999994
v 0.049544 0.898502 0.12710999999999995
v 0.030839 0.861482 -0.002275000000000053
v 0.049544 0.898502 0.12710999999999995
v 0.049544 0.898502 0.12710999999999995
v 0.015993 0.823679 0.23614599999999994
v 0.089365 0.78898 0.12672999999999995
v 0.015993 0.823679 0.23614599999999994
v -0.020927 0.748598 0.12627499999999994
v 0.015993 0.823679 0.23614599999999994
v 1.001503 1.165597 0.12672999999999993
v 0.891211 1.125214 0.12627499999999994
v 0.928131 1.200296 0.2361459999999999
v -0.846346 -0.721658 0.651313
v -0.846262 -0.721718 -0.010077999999999957
v -1.374488 -0.4753089999999999 0.651772
v -1.374404 -0.47537 -0.01007799999999997
v -1.4477 0.702366 -0.009191000000000043
v -0.858287 0.42529200000000006 1.162616
v -0.149708 0.778581 -0.010078000000000047
v -0.113913 0.664462 0.701555
v -0.060155 -0.246487 -0.010077999999999985
v -0.006181 -0.21703999999999998 0.627795
v 0.143598 0.191551 -0.010078000000000012
v 0.166848 0.11124200000000004 0.63117
v -0.906404 -0.870943 0.840918
v -0.90632 -0.871003 -0.010077999999999946
v -0.548182 -1.387435 0.9101640000000001
v -0.548098 -1.387496 -0.010077999999999915
v -0.039903 -0.623477 -0.010077999999999962
v -0.039987 -0.623416 0.628943
v 0.29949 -0.316148 -0.010077999999999981
v 0.299406 -0.31608699999999995 0.629106
v 1.029106 0.16834800000000005 0.681808
v 0.980675 0.065274 -0.010078000000000004
v 1.305329 -0.191166 -0.010077999999999988
v 1.354805 -0.08140499999999996 0.621291
v 0.861782 1.054047 0.6317829999999999
v 0.861866 1.053987 -0.010078000000000064
v 1.132482 0.824718 0.593121
v 1.132566 0.824658 -0.01007800000000005
v 1.328157 1.074497 0.5027519999999999
v 1.328241 1.074437 -0.010078000000000066
v 1.080004 1.280892 0.49872399999999995
v 1.080088 1.280831 -0.010078000000000078
v 1.432994 -1.389592 0.6291060000000002
v 1.433078 -1.389653 -0.010077999999999915
v 0.869784 0.480203 -0.019704000000000027
v 1.152025 0.834559 0.609534
v -0.508695 0.22391000000000008 1.136224
v -0.471765 0.247007 -0.010078000000000016
v -0.508695 0.22391000000000008 1.136224
v -0.547722 -1.008186 0.13034900000000005
v -0.547722 -1.008186 6.173358789225867E-17
v -0.638385 -1.202613 7.363880805314979E-17
v -0.638385 -1.202613 7.363880805314979E-17
v -0.638385 -1.202613 0.1304460000000001
v -0.547722 -1.008186 0.13034900000000005
v -0.747357 -0.915095 5.603340813328736E-17
v -0.747357 -0.915095 0.13034900000000005
v -0.747357 -0.915095 5.603340813328736E-17
v 1.32753 -0.930627 0.12673000000000006
v 1.289316 -0.913947 -0.002320999999999944
v 1.289316 -0.913947 -0.002320999999999944
v 1.177623 -0.861616 0.12674800000000006
v 1.217238 -0.97101 0.12627500000000005
v 1.233436 -0.934309 -0.002369999999999943
v 1.233436 -0.934309 -0.002369999999999943
v 1.213131 -0.878492 -0.002318999999999946
v 1.177623 -0.861616 0.12674800000000006
v 1.177623 -0.861616 0.12674800000000006
v 1.404553 0.940803 0.37823999999999997
v 1.404553 0.940803 -5.760756912891136E-17
v 1.404553 0.940803 -5.760756912891136E-17
v 1.409403 0.968298 0.37823999999999997
v 1.409403 0.968298 -5.929115231603919E-17
v 1.409403 0.968298 -5.929115231603919E-17
v 1.436898 0.96345 0.37823999999999997
v 1.436898 0.96345 -5.899429793192588E-17
v 1.436898 0.96345 -5.899429793192588E-17
v 1.416742 0.370399 0.16911899999999996
v 1.391872 1.028094 0.34411899999999995
v 1.391872 1.028094 0.34411899999999995
v 1.416742 0.3704 0.08982099999999997
v 1.391872 1.028094 0.20166799999999993
v 1.391872 1.028094 0.20166799999999993
v 1.365714 0.420852 0.22503799999999996
v 1.365714 0.420852 -2.5769752735738095E-17
v 1.365714 0.420852 -2.5769752735738095E-17
v 1.393209 0.416004 0.22503799999999996
v 1.398057 0.4435 0.22503799999999996
v 1.398057 0.4435 -2.715654277109256E-17
v 1.398057 0.4435 -2.715654277109256E-17
v 1.393209 0.416004 -2.5472898351624774E-17
v 1.393209 0.416004 0.22503799999999996
v -1.063099 0.987913 0.25184899999999993
v -1.063099 0.987913 0.25184899999999993
v -1.269402 1.132367 0.25184899999999993
v -1.207554 0.78161 0.25184899999999993
v -1.207554 0.78161 0.25184899999999993
v -1.063099 0.987913 0.25184899999999993
v -1.207554 0.78161 -4.785980923407814E-17
v -1.207554 0.78161 0.25184899999999993
v -1.207554 0.78161 -4.785980923407814E-17
v -1.413856 0.926064 -5.670506567027973E-17
v -1.413856 0.926064 0.25184899999999993
v -1.413856 0.926064 -5.670506567027973E-17
v -0.941868 1.051245 0.5018419999999999
v -0.941868 1.051245 0.5018419999999999
v -1.148171 1.195699 0.5018419999999999
v -1.086323 0.844942 0.501842
v -1.086323 0.844942 0.501842
v -0.941868 1.051245 0.5018419999999999
v -1.086323 0.844942 0.24999299999999994
v -1.086323 0.844942 0.501842
v -1.086323 0.844942 0.24999299999999994
v -1.292625 0.989396 0.24999299999999994
v -1.292625 0.989396 0.5018419999999999
v -1.292625 0.989396 0.24999299999999994
v 1.206411 0.508997 0.11598799999999997
v 1.185988 0.52942 -0.011842000000000033
v 1.185988 0.52942 -0.011842000000000033
v 1.0694 0.508997 0.11598799999999997
v 1.089823 0.52942 -0.011842000000000033
v 1.089823 0.52942 -0.011842000000000033
v 1.206411 0.646008 0.11598799999999995
v 1.185988 0.625585 -0.011842000000000038
v 1.206411 0.646008 0.11598799999999995
v 0.849534 -1.069833 0.8339110000000001
v 0.811319 -1.053153 0.7048600000000002
v 0.811319 -1.053153 0.7048600000000002
v 0.699627 -1.000822 0.8339290000000001
v 0.739241 -1.110215 0.8334560000000001
v 0.755439 -1.073515 0.7048120000000001
v 0.755439 -1.073515 0.7048120000000001
v 0.735135 -1.017697 0.7048620000000001
v 0.699627 -1.000822 0.8339290000000001
v 0.699627 -1.000822 0.8339290000000001
v -0.286118 -0.542845 0.12673000000000004
v -0.307207 -0.53364 -0.0023209999999999676
v -0.307207 -0.53364 -0.0023209999999999676
v -0.368845 -0.50476 0.12674800000000003
v -0.346984 -0.56513 0.12627500000000003
v -0.338044 -0.544877 -0.0023699999999999668
v -0.338044 -0.544877 -0.0023699999999999668
v -0.349251 -0.514073 -0.0023189999999999682
v -0.368845 -0.50476 0.12674800000000003
v -0.368845 -0.50476 0.12674800000000003
v -0.676212 1.023854 -0.010078000000000063
v -0.676212 1.023854 -0.010078000000000063
v -0.730709 0.95992 0.6966539999999999
v -0.525863 -0.885686 -0.010077999999999946
v -0.525863 -0.885686 -0.010077999999999946
v -0.525947 -0.885626 0.838449
v -1.055893 -1.276707 -0.010077999999999922
v -1.055893 -1.276707 -0.010077999999999922
v -1.055977 -1.276646 0.9023160000000001
v -1.44386 -0.576471 0.35710300000000006
v -1.44386 -0.576471 0.35710300000000006
v -1.241234 -0.142318 -0.04755199999999999
v -1.227214 1.160945 0.25184899999999993
v -1.065329 0.968017 0.25184899999999993
v -1.065329 0.968017 0.25184899999999993
v -1.065329 0.968017 0.25184899999999993
v -0.872401 1.129903 0.25184899999999993
v -0.872401 1.129903 0.25184899999999993
v -0.872401 1.129903 -6.91866046148496E-17
v -0.872401 1.129903 0.25184899999999993
v -0.872401 1.129903 -6.91866046148496E-17
v -1.034286 1.32283 -8.099997626580466E-17
v -1.034286 1.32283 0.25184899999999993
v -1.034286 1.32283 -8.099997626580466E-17
v 1.043273 1.217733 0.25184899999999993
v 1.043273 1.217733 0.25184899999999993
v 0.957136 0.981072 0.25184899999999993
v -0.355954 -0.634659 0.12673000000000004
v -0.394168 -0.617979 -0.0023209999999999624
v -0.394168 -0.617979 -0.0023209999999999624
v -0.505861 -0.565648 0.12674800000000003
v -0.466246 -0.675041 0.12627500000000003
v -0.450048 -0.638341 -0.002369999999999961
v -0.450048 -0.638341 -0.002369999999999961
v -0.470353 -0.582524 -0.0023189999999999643
v -0.505861 -0.565648 0.12674800000000003
v -0.505861 -0.565648 0.12674800000000003
v -0.122009 0.856724 0.12672999999999995
v -0.160223 0.873404 -0.0023210000000000535
v -0.160223 0.873404 -0.0023210000000000535
v -0.271916 0.925735 0.12674799999999994
v -0.232302 0.816342 0.12627499999999994
v -0.216104 0.853042 -0.002370000000000052
v -0.216104 0.853042 -0.002370000000000052
v -0.236409 0.90886 -0.0023190000000000554
v -0.271916 0.925735 0.12674799999999994
v -0.271916 0.925735 0.12674799999999994
v 0.089365 0.78898 0.12672999999999995
v 0.051151 0.80566 -0.0023210000000000496
v 0.051151 0.80566 -0.0023210000000000496
v -0.060542 0.857991 0.12674799999999994
v -0.020927 0.748598 0.12627499999999994
v -0.004729 0.785298 -0.0023700000000000483
v -0.004729 0.785298 -0.0023700000000000483
v -0.025034 0.841116 -0.0023190000000000515
v -0.060542 0.857991 0.12674799999999994
v -0.060542 0.857991 0.12674799999999994
v 0.891211 1.125214 0.12627499999999994
v 0.907409 1.161915 -0.0023700000000000713
v 0.907409 1.161915 -0.0023700000000000713
v -0.86961 -0.710831 -0.010077999999999957
v -0.86961 -0.710831 -0.010077999999999957
v -0.869694 -0.71077 0.651313
v -1.397752 -0.464483 -0.010077999999999972
v -1.397752 -0.464483 -0.010077999999999972
v -1.397836 -0.46442199999999995 0.651772
v -0.869193 0.40190400000000004 1.162615
v -1.458605 0.678978 -0.009191000000000041
v -0.869193 0.40190400000000004 1.162615
v -0.090566 0.653575 0.701555
v -0.126361 0.767693 -0.010078000000000047
v -0.090566 0.653575 0.701555
v 0.004724 -0.19365199999999996 0.627795
v -0.04925 -0.223099 -0.010077999999999986
v 0.004724 -0.19365199999999996 0.627795
v 0.177753 0.13463000000000003 0.63117
v 0.154503 0.21494 -0.010078000000000014
v 0.177753 0.13463000000000003 0.63117
v -0.929667 -0.860116 -0.010077999999999948
v -0.929667 -0.860116 -0.010077999999999948
v -0.929751 -0.860055 0.840918
v -0.571446 -1.376608 -0.010077999999999915
v -0.571446 -1.376608 -0.010077999999999915
v -0.57153 -1.376548 0.9101640000000001
v -0.029082 -0.600028 0.628943
v -0.028998 -0.600089 -0.010077999999999964
v -0.029082 -0.600028 0.628943
v 0.310311 -0.29269899999999993 0.629106
v 0.310395 -0.29276 -0.010077999999999983
v 0.310311 -0.29269899999999993 0.629106
v 0.957328 0.076161 -0.010078000000000005
v 0.957328 0.076161 -0.010078000000000005
v 1.005758 0.17923500000000006 0.681808
v 1.378152 -0.09229199999999996 0.621291
v 1.328676 -0.202054 -0.010077999999999988
v 1.378152 -0.09229199999999996 0.621291
v 0.838518 1.064874 -0.010078000000000066
v 0.838518 1.064874 -0.010078000000000066
v 0.838434 1.064934 0.6317829999999999
v 1.109219 0.835545 -0.01007800000000005
v 1.109219 0.835545 -0.01007800000000005
v 1.109135 0.835605 0.593121
v 1.304893 1.085324 -0.010078000000000066
v 1.304893 1.085324 -0.010078000000000066
v 1.30481 1.085384 0.5027519999999999
v 1.056741 1.291718 -0.01007800000000008
v 1.056741 1.291718 -0.01007800000000008
v 1.056657 1.291779 0.49872399999999995
v 1.409731 -1.378766 -0.010077999999999915
v 1.409731 -1.378766 -0.010077999999999915
v 1.409647 -1.378705 0.6291060000000002
v 1.134809 0.848742 0.609075
v 1.134809 0.848742 0.609075
v 0.85257 0.494385 -0.02016200000000003
vt 0.163843 0.992119
vt 0.277746 0.992119
vt 0.973265 0.463929
vt 0.960933 0.463929
vt 0.221547 0.174928
vt 0.973265 0.918026
vt 0.973266 0.991855
vt 0.960934 0.991856
vt 0.960934 0.918026
vt 0.122011 0.316543
vt 0.960933 0.713040
vt 0.004745 0.316543
vt 0.973265 0.713040
vt 0.116020 0.174928
vt 0.156059 0.745625
vt 0.156059 0.542851
vt 0.011413 0.745626
vt 0.437556 0.992119
vt 0.011413 0.542851
vt 0.741221 0.833904
vt 0.741217 0.845279
vt 0.834348 0.833909
vt 0.834344 0.845314
vt 0.967083 0.447664
vt 0.972787 0.447664
vt 0.967083 0.089409
vt 0.972786 0.089409
vt 0.623505 0.055252
vt 0.657019 0.055252
vt 0.657019 0.014562
vt 0.623505 0.014562
vt 0.689659 0.014532
vt 0.689659 0.055252
vt 0.723174 0.055252
vt 0.723174 0.014532
vt 0.313393 0.160150
vt 0.313383 0.068376
vt 0.275080 0.068376
vt 0.275085 0.160179
vt 0.686217 0.109856
vt 0.630148 0.109856
vt 0.649297 0.109856
vt 0.668370 0.109856
vt 0.686217 0.152870
vt 0.673368 0.074057
vt 0.630148 0.152870
vt 0.649297 0.152870
vt 0.668370 0.152870
vt 0.219671 0.569820
vt 0.219671 0.561276
vt 0.219671 0.544272
vt 0.219671 0.552733
vt 0.164138 0.569821
vt 0.164247 0.561279
vt 0.164356 0.544277
vt 0.164356 0.552738
vt 0.546616 0.492480
vt 0.546616 0.508736
vt 0.546616 0.500921
vt 0.647203 0.492480
vt 0.647203 0.508736
vt 0.647203 0.500921
vt 0.931456 0.075082
vt 0.931456 0.058522
vt 0.931456 0.066629
vt 0.832994 0.075083
vt 0.832994 0.058523
vt 0.832994 0.066630
vt 0.199768 0.604230
vt 0.199768 0.595553
vt 0.199768 0.612907
vt 0.199768 0.587092
vt 0.166043 0.604229
vt 0.166130 0.595553
vt 0.165956 0.612907
vt 0.166130 0.587092
vt 0.941865 0.735029
vt 0.914546 0.735029
vt 0.941865 0.994703
vt 0.914546 0.994703
vt 0.821163 0.126501
vt 0.833148 0.167302
vt 0.856487 0.156063
vt 0.858180 0.106045
vt 0.835554 0.088260
vt 0.817390 0.257184
vt 0.817390 0.180864
vt 0.780188 0.180991
vt 0.780191 0.257123
vt 0.854588 0.257246
vt 0.854588 0.180926
vt 0.780188 0.104671
vt 0.742986 0.104860
vt 0.903004 0.276192
vt 0.865805 0.276192
vt 0.865805 0.352512
vt 0.903004 0.352512
vt 0.903004 0.199872
vt 0.865805 0.199872
vt 0.828606 0.352513
vt 0.828607 0.428833
vt 0.309360 0.359747
vt 0.297599 0.361423
vt 0.303616 0.430169
vt 0.286065 0.295189
vt 0.309766 0.283963
vt 0.286065 0.272177
vt 0.252149 0.283963
vt 0.268718 0.320123
vt 0.292419 0.308896
vt 0.268718 0.296552
vt 0.234802 0.308896
vt 0.705641 0.733982
vt 0.705641 0.798460
vt 0.717880 0.733982
vt 0.717880 0.798460
vt 0.728748 0.733982
vt 0.728748 0.798460
vt 0.693414 0.733982
vt 0.693414 0.798460
vt 0.554661 0.107647
vt 0.498592 0.107647
vt 0.517741 0.107647
vt 0.536813 0.107647
vt 0.554661 0.150662
vt 0.541812 0.071848
vt 0.498592 0.150662
vt 0.517741 0.150662
vt 0.536813 0.150662
vt 0.603341 0.109856
vt 0.570144 0.109856
vt 0.581481 0.109856
vt 0.592774 0.109856
vt 0.603341 0.152870
vt 0.595437 0.068648
vt 0.570144 0.152870
vt 0.581481 0.152870
vt 0.592774 0.152870
vt 0.224976 0.031089
vt 0.224976 0.019144
vt 0.399591 0.031089
vt 0.399591 0.019144
vt 0.982100 0.634119
vt 0.988073 0.634119
vt 0.982102 0.992375
vt 0.988075 0.992375
vt 0.409504 0.031089
vt 0.409504 0.019144
vt 0.584118 0.031089
vt 0.584118 0.019144
vt 0.741221 0.833904
vt 0.741217 0.845279
vt 0.834348 0.833909
vt 0.834344 0.845314
vt 0.106236 0.035497
vt 0.106240 0.024123
vt 0.006547 0.035492
vt 0.006552 0.024086
vt 0.214740 0.034700
vt 0.214745 0.023325
vt 0.115052 0.034694
vt 0.115057 0.023288
vt 0.992267 0.406074
vt 0.986580 0.406064
vt 0.986562 0.610594
vt 0.992267 0.175336
vt 0.986579 0.175327
vt 0.992264 0.379866
vt 0.986561 0.379857
vt 0.106236 0.035497
vt 0.106240 0.024123
vt 0.006547 0.035492
vt 0.006552 0.024086
vt 0.003851 0.992117
vt 1.817390 0.257184
vt 1.817390 0.180864
vt 1.780188 0.180991
vt 1.780191 0.257123
vt 1.854589 0.257246
vt 1.854589 0.180926
vt 1.780188 0.104671
vt 1.742986 0.104860
vt 1.817390 0.180864
vt 1.780188 0.180991
vt 1.780191 0.257123
vt 1.817390 0.257184
vt 1.854589 0.180926
vt 1.742986 0.104860
vt 1.705787 0.104860
vt 1.309360 0.359747
vt 1.297599 0.361423
vt 1.303616 0.430169
vt 1.268718 0.320123
vt 1.292419 0.308896
vt 1.268718 0.296552
vt 1.234802 0.308896
vt 1.268718 0.320123
vt 1.292419 0.308896
vt 1.268718 0.296552
vt 1.234802 0.308896
vt 1.286065 0.295189
vt 1.286065 0.272177
vt 1.252149 0.283963
vt 1.309360 0.359747
vt 1.297599 0.361423
vt 1.303616 0.430169
vt 1.554661 0.107647
vt 1.498592 0.107647
vt 1.517741 0.107647
vt 1.536813 0.107647
vt 1.554661 0.150662
vt 1.541812 0.071849
vt 1.498592 0.150662
vt 1.517741 0.150662
vt 1.536813 0.150662
vt 1.686217 0.109856
vt 1.630148 0.109856
vt 1.649297 0.109856
vt 1.668370 0.109856
vt 1.686217 0.152870
vt 1.673368 0.074057
vt 1.630148 0.152870
vt 1.649297 0.152870
vt 1.668370 0.152870
vt 1.554661 0.107647
vt 1.498592 0.107647
vt 1.517741 0.107647
vt 1.536813 0.107647
vt 1.554661 0.150662
vt 1.541812 0.071849
vt 1.498592 0.150662
vt 1.517741 0.150662
vt 1.536813 0.150662
vt 1.821163 0.126501
vt 1.833148 0.167302
vt 1.856487 0.156063
vt 1.858180 0.106045
vt 1.835554 0.088260
vt 1.498592 0.107647
vt 1.517741 0.107647
vt 1.536813 0.107647
vt 1.512612 0.071936
vt 1.498592 0.150662
vt 1.517741 0.150662
vt 1.536813 0.150662
vt 1.409503 0.031089
vt 1.409503 0.019144
vt 1.584118 0.031089
vt 1.584118 0.019144
vt 1.409503 0.031089
vt 1.409503 0.019144
vt 1.584118 0.031089
vt 1.584118 0.019144
vt 1.967083 0.447664
vt 1.972787 0.447664
vt 1.967083 0.089409
vt 1.972786 0.089409
vt 1.224977 0.031089
vt 1.224977 0.019144
vt 1.399591 0.031089
vt 1.399591 0.019144
vt 1.409503 0.025069
vt 1.409503 0.036771
vt 1.584118 0.025069
vt 1.584118 0.036771
vt 1.409503 0.025069
vt 1.409503 0.036771
vt 1.584118 0.025069
vt 1.584118 0.036771
vt 1.982100 0.634119
vt 1.988073 0.634119
vt 1.982102 0.992375
vt 1.988075 0.992375
vt 1.409503 0.031089
vt 1.409503 0.019144
vt 1.584118 0.031089
vt 1.584118 0.019144
vt 1.409503 0.025069
vt 1.409503 0.036771
vt 1.584118 0.025069
vt 1.584118 0.036771
vt 1.985111 0.634119
vt 1.979260 0.634119
vt 1.985112 0.992375
vt 1.979262 0.992375
vt 1.982100 0.634119
vt 1.988073 0.634119
vt 1.982102 0.992375
vt 1.988075 0.992375
vt 1.409503 0.031089
vt 1.409503 0.019144
vt 1.584118 0.031089
vt 1.584118 0.019144
vt 1.409503 0.031089
vt 1.409503 0.019144
vt 1.584118 0.031089
vt 1.584118 0.019144
vt 1.409503 0.031089
vt 1.409503 0.019144
vt 1.584118 0.031089
vt 1.584118 0.019144
vt 1.970018 0.447664
vt 1.964195 0.447664
vt 1.970017 0.089409
vt 1.964195 0.089409
vt 1.224977 0.031089
vt 1.224977 0.019144
vt 1.399591 0.031089
vt 1.399591 0.019144
vt 1.409503 0.031089
vt 1.409503 0.019144
vt 1.584118 0.031089
vt 1.584118 0.019144
vt 1.992267 0.406074
vt 1.986580 0.406064
vt 1.992265 0.610604
vt 1.986562 0.610594
vt 1.992267 0.406074
vt 1.986580 0.406064
vt 1.992265 0.610604
vt 1.986562 0.610594
vt 1.992267 0.175336
vt 1.986579 0.175327
vt 1.992264 0.379866
vt 1.986561 0.379857
vt 0.992264 0.610604
vt 0.303616 0.311957
vt 0.551818 0.992059
vt 1.303616 0.311957
vt 1.303616 0.311957
vt 1.309766 0.283963
vt 0.221515 0.065929
vt 0.116020 0.062610
vt 0.023490 0.110157
vt 0.008554 0.174928
vt 0.122011 0.204225
vt 0.228509 0.316543
vt 0.213555 0.251773
vt 0.004777 0.207544
vt 0.011520 0.755035
vt 0.156166 0.755035
vt 0.285387 0.755035
vt 0.430033 0.755035
vt 0.961629 0.089409
vt 0.961629 0.447664
vt 0.590865 0.014532
vt 0.590865 0.055252
vt 0.611478 0.109856
vt 0.611478 0.152870
vt 0.684401 0.100708
vt 0.613977 0.100716
vt 0.625437 0.074241
vt 0.633063 0.100685
vt 0.644169 0.074145
vt 0.652308 0.100532
vt 0.663763 0.074310
vt 0.164355 0.535817
vt 0.219671 0.535812
vt 0.165956 0.621367
vt 0.199768 0.621368
vt 0.817390 0.104483
vt 0.742986 0.181180
vt 0.705787 0.104860
vt 0.705787 0.181180
vt 0.828606 0.276192
vt 0.865805 0.428832
vt 0.828607 0.505152
vt 0.865805 0.505152
vt 0.682581 0.733982
vt 0.682581 0.798460
vt 0.727405 0.706102
vt 0.727405 0.668028
vt 0.708045 0.668028
vt 0.708045 0.706102
vt 0.479921 0.107647
vt 0.479921 0.150662
vt 0.552845 0.098500
vt 0.482421 0.098507
vt 0.493881 0.072032
vt 0.501506 0.098476
vt 0.512612 0.071936
vt 0.520752 0.098323
vt 0.532207 0.072101
vt 0.559089 0.109856
vt 0.559089 0.152870
vt 0.602241 0.105768
vt 0.560539 0.105859
vt 0.567650 0.068693
vt 0.571869 0.105716
vt 0.578730 0.068790
vt 0.583245 0.105575
vt 0.590360 0.068990
vt 0.225437 0.036795
vt 0.400052 0.036795
vt 0.979264 0.634120
vt 0.979267 0.992375
vt 0.409504 0.036761
vt 0.584119 0.036761
vt 0.980892 0.175314
vt 0.980858 0.379844
vt 0.437497 0.992059
vt 0.544246 0.755918
vt 0.445069 0.755918
vt 1.817390 0.104483
vt 1.742986 0.181180
vt 1.705787 0.181180
vt 1.705787 0.104860
vt 0.171397 0.755022
vt 0.163843 0.992119
vt 0.277746 0.992119
vt 0.270230 0.755022
vt 1.705787 0.181180
vt 1.742986 0.181180
vt 1.854589 0.257246
vt 1.479921 0.107647
vt 1.479921 0.150662
vt 1.552845 0.098500
vt 1.482420 0.098507
vt 1.493881 0.072032
vt 1.501507 0.098476
vt 1.512612 0.071936
vt 1.520752 0.098323
vt 1.532207 0.072101
vt 1.611478 0.109856
vt 1.611478 0.152870
vt 1.684401 0.100708
vt 1.613977 0.100716
vt 1.625437 0.074241
vt 1.633063 0.100685
vt 1.644169 0.074145
vt 1.652308 0.100532
vt 1.663763 0.074310
vt 1.479921 0.107647
vt 1.479921 0.150662
vt 1.552845 0.098500
vt 1.482420 0.098507
vt 1.493881 0.072032
vt 1.501507 0.098476
vt 1.512612 0.071936
vt 1.520752 0.098323
vt 1.532207 0.072101
vt 1.501507 0.098476
vt 1.520752 0.098323
vt 1.532207 0.072101
vt 1.409504 0.036761
vt 1.584119 0.036761
vt 1.409504 0.036761
vt 1.584119 0.036761
vt 1.961629 0.089409
vt 1.961629 0.447664
vt 1.400322 0.013882
vt 1.225707 0.013882
vt 1.584118 0.013879
vt 1.409503 0.013879
vt 1.584118 0.013879
vt 1.409503 0.013879
vt 1.979264 0.634120
vt 1.979267 0.992375
vt 1.409504 0.036761
vt 1.584119 0.036761
vt 1.584118 0.013879
vt 1.409503 0.013879
vt 1.990707 0.992375
vt 1.990705 0.634119
vt 1.979227 0.633033
vt 1.979229 0.991289
vt 1.583443 0.013795
vt 1.408828 0.013795
vt 1.409504 0.036761
vt 1.584119 0.036761
vt 1.409504 0.036761
vt 1.584119 0.036761
vt 1.972782 0.447663
vt 1.972781 0.089408
vt 1.224977 0.036761
vt 1.399592 0.036761
vt 1.409504 0.036761
vt 1.584119 0.036761
vt 1.980892 0.175314
vt 1.980858 0.379844
vt 0.967083 0.447664
vt 0.967083 0.089409
vt 0.967083 0.447664
vt 0.657019 0.014562
vt 0.657019 0.055252
vt 0.689659 0.055252
vt 0.689659 0.055252
vt 0.689659 0.014532
vt 0.657019 0.014562
vt 0.623505 0.055252
vt 0.623505 0.014562
vt 0.623505 0.055252
vt 0.630148 0.109856
vt 0.630148 0.152870
vt 0.630148 0.152870
vt 0.668370 0.109856
vt 0.649297 0.109856
vt 0.649297 0.152870
vt 0.649297 0.152870
vt 0.668370 0.152870
vt 0.668370 0.109856
vt 0.668370 0.109856
vt 0.164247 0.561279
vt 0.219671 0.561276
vt 0.219671 0.561276
vt 0.164356 0.552738
vt 0.219671 0.552733
vt 0.219671 0.552733
vt 0.164356 0.544277
vt 0.219671 0.544272
vt 0.219671 0.544272
vt 0.647203 0.500921
vt 0.546616 0.500921
vt 0.546616 0.500921
vt 0.832994 0.066630
vt 0.931456 0.066629
vt 0.931456 0.066629
vt 0.166130 0.595553
vt 0.199768 0.595553
vt 0.199768 0.595553
vt 0.166043 0.604229
vt 0.165956 0.612907
vt 0.199768 0.612907
vt 0.199768 0.612907
vt 0.199768 0.604230
vt 0.166043 0.604229
vt 0.817390 0.180864
vt 0.817390 0.180864
vt 0.817390 0.257184
vt 0.780188 0.180991
vt 0.780188 0.180991
vt 0.817390 0.180864
vt 0.780188 0.104671
vt 0.780188 0.180991
vt 0.780188 0.104671
vt 0.742986 0.104860
vt 0.742986 0.181180
vt 0.742986 0.104860
vt 0.865805 0.276192
vt 0.865805 0.276192
vt 0.903004 0.276192
vt 0.865805 0.352512
vt 0.865805 0.352512
vt 0.865805 0.276192
vt 0.828606 0.352513
vt 0.865805 0.352512
vt 0.828606 0.352513
vt 0.828607 0.428833
vt 0.865805 0.428832
vt 0.828607 0.428833
vt 0.705641 0.733982
vt 0.705641 0.798460
vt 0.705641 0.798460
vt 0.717880 0.733982
vt 0.717880 0.798460
vt 0.717880 0.798460
vt 0.693414 0.733982
vt 0.693414 0.798460
vt 0.693414 0.733982
vt 0.498592 0.107647
vt 0.498592 0.150662
vt 0.498592 0.150662
vt 0.536813 0.107647
vt 0.517741 0.107647
vt 0.517741 0.150662
vt 0.517741 0.150662
vt 0.536813 0.150662
vt 0.536813 0.107647
vt 0.536813 0.107647
vt 0.570144 0.109856
vt 0.570144 0.152870
vt 0.570144 0.152870
vt 0.592774 0.109856
vt 0.581481 0.109856
vt 0.581481 0.152870
vt 0.581481 0.152870
vt 0.592774 0.152870
vt 0.592774 0.109856
vt 0.592774 0.109856
vt 0.399591 0.031089
vt 0.399591 0.031089
vt 0.224976 0.031089
vt 0.982102 0.992375
vt 0.982102 0.992375
vt 0.982100 0.634119
vt 0.584118 0.031089
vt 0.584118 0.031089
vt 0.409504 0.031089
vt 0.986561 0.379857
vt 0.986561 0.379857
vt 0.986579 0.175327
vt 1.817390 0.257184
vt 1.817390 0.180864
vt 1.817390 0.180864
vt 1.817390 0.180864
vt 1.780188 0.180991
vt 1.780188 0.180991
vt 1.780188 0.104671
vt 1.780188 0.180991
vt 1.780188 0.104671
vt 1.742986 0.104860
vt 1.742986 0.181180
vt 1.742986 0.104860
vt 1.817390 0.180864
vt 1.817390 0.180864
vt 1.817390 0.257184
vt 1.498592 0.107647
vt 1.498592 0.150662
vt 1.498592 0.150662
vt 1.536813 0.107647
vt 1.517741 0.107647
vt 1.517741 0.150662
vt 1.517741 0.150662
vt 1.536813 0.150662
vt 1.536813 0.107647
vt 1.536813 0.107647
vt 1.630148 0.109856
vt 1.630148 0.152870
vt 1.630148 0.152870
vt 1.668370 0.109856
vt 1.649297 0.109856
vt 1.649297 0.152870
vt 1.649297 0.152870
vt 1.668370 0.152870
vt 1.668370 0.109856
vt 1.668370 0.109856
vt 1.498592 0.107647
vt 1.498592 0.150662
vt 1.498592 0.150662
vt 1.536813 0.107647
vt 1.517741 0.107647
vt 1.517741 0.150662
vt 1.517741 0.150662
vt 1.536813 0.150662
vt 1.536813 0.107647
vt 1.536813 0.107647
vt 1.517741 0.107647
vt 1.517741 0.150662
vt 1.517741 0.150662
vt 1.584118 0.031089
vt 1.584118 0.031089
vt 1.409503 0.031089
vt 1.584118 0.031089
vt 1.584118 0.031089
vt 1.409503 0.031089
vt 1.967083 0.447664
vt 1.967083 0.089409
vt 1.967083 0.447664
vt 1.224977 0.019144
vt 1.399591 0.019144
vt 1.224977 0.019144
vt 1.409503 0.025069
vt 1.584118 0.025069
vt 1.409503 0.025069
vt 1.409503 0.025069
vt 1.584118 0.025069
vt 1.409503 0.025069
vt 1.982102 0.992375
vt 1.982102 0.992375
vt 1.982100 0.634119
vt 1.584118 0.031089
vt 1.584118 0.031089
vt 1.409503 0.031089
vt 1.409503 0.025069
vt 1.584118 0.025069
vt 1.409503 0.025069
vt 1.985111 0.634119
vt 1.985112 0.992375
vt 1.985111 0.634119
vt 1.982102 0.992375
vt 1.982102 0.992375
vt 1.982100 0.634119
vt 1.409503 0.019144
vt 1.584118 0.019144
vt 1.409503 0.019144
vt 1.584118 0.031089
vt 1.584118 0.031089
vt 1.409503 0.031089
vt 1.584118 0.031089
vt 1.584118 0.031089
vt 1.409503 0.031089
vt 1.970017 0.089409
vt 1.970017 0.089409
vt 1.970018 0.447664
vt 1.399591 0.031089
vt 1.399591 0.031089
vt 1.224977 0.031089
vt 1.584118 0.031089
vt 1.584118 0.031089
vt 1.409503 0.031089
vt 1.986561 0.379857
vt 1.986561 0.379857
vt 1.986579 0.175327
vn -0.864177 0.498934 0.06529599999999998
vn 0.864178 -0.498933 0.06529300000000003
vn -0.390722 0.592092 0.704814
vn 0.410683 -0.576154 0.706672
vn -0.563683 0.825991 0.0005739999999999494
vn -0.665623 0.49613500000000005 0.55749
vn -0.712647 0.614697 0.33805499999999994
vn -0.555307 -0.784921 0.2748340000000001
vn -0.441299 -0.41268199999999994 0.796837
vn 0.416288 -0.909233 -0.0003919999999999443
vn 0.147011 -0.81827 0.555718
vn 0.568695 -0.822548 -0.0011399999999999496
vn -0.337233 0.519183 0.785317
vn -0.259306 0.965685 0.014598999999999942
vn 0 6.123233995736766E-17 1
vn 0 6.123233995736766E-17 1
vn 0 6.123233995736766E-17 1
vn 0.864177 -0.498933 0.06529400000000003
vn 0 6.123233995736766E-17 1
vn 0 6.123233995736766E-17 1
vn 0 6.123233995736766E-17 1
vn 0 6.123233995736766E-17 1
vn 0 6.123233995736766E-17 1
vn 0.90612 -0.422516 0.020678000000000023
vn -0.90612 0.422516 -0.020679000000000024
vn -0.906127 0.4225 -0.020679000000000024
vn 0.906127 -0.4225 0.020679000000000024
vn -0.342016 0.939694 -5.753966246389865E-17
vn 0.939693 0.342019 -2.094262367987893E-17
vn 0.939693 0.342019 -2.094262367987893E-17
vn -0.342016 0.939694 -5.753966246389865E-17
vn 0.027316 -0.999627 6.120950029456356E-17
vn 0.621626 -0.783314 4.796414914136549E-17
vn -0.783312 -0.621628 3.806373702301854E-17
vn -0.999627 -0.027307 1.6720715072158388E-18
vn 0.000157 0.00033700000000006126 1
vn 0.000157 0.00033700000000006126 1
vn 0.000157 0.00033700000000006126 1
vn 0.000157 0.00033700000000006126 1
vn 0.414333 0.891036 0.18542899999999995
vn 0.970488 -0.229096 0.07528300000000002
vn -0.226516 -0.969991 0.08836200000000005
vn -0.906121 0.422142 0.027232999999999976
vn 0.400262 0.864336 -0.30448800000000004
vn 0.003674 -0.0019689999999999387 0.999991
vn 0.694918 -0.657309 -0.29160499999999995
vn -0.661171 -0.695671 -0.28088199999999997
vn -0.867106 0.404015 -0.291376
vn 0.285103 -0.958497 5.869101415211703E-17
vn -0.958511 -0.285055 1.7454584666547438E-17
vn 0.958495 0.28511 -1.745795244524509E-17
vn -0.285093 0.9585 -5.86911978491369E-17
vn 0.803184 -0.595731 3.6478003115142597E-17
vn -0.595747 -0.803172 4.91801009482389E-17
vn 0.595733 0.803183 -4.9180774503978426E-17
vn -0.803151 0.595775 -3.648069733810072E-17
vn -0.639619 -0.22015299999999993 0.736492
vn 0.750913 -0.14314699999999997 0.6447
vn 0.381622 -0.22416999999999995 0.896723
vn -0.63962 -0.22015199999999993 0.736491
vn 0.750899 -0.14315199999999997 0.644715
vn -0.23386 -0.25825299999999995 0.937345
vn -0.643893 -0.15187299999999995 0.749891
vn 0.763773 -0.08004099999999996 0.640504
vn 0.395059 -0.13947599999999993 0.908006
vn -0.643892 -0.15187299999999995 0.749892
vn 0.763759 -0.08004499999999996 0.640519
vn -0.234291 -0.17158999999999994 0.956904
vn 0.285102 -0.958497 5.869101415211703E-17
vn -0.958495 -0.28511 1.745795244524509E-17
vn 0.958494 0.285114 -1.7458197374604922E-17
vn -0.285111 0.958495 -5.869089168743711E-17
vn 0.803186 -0.595729 3.6477880650462676E-17
vn -0.595737 -0.80318 4.9180590806958555E-17
vn 0.595728 0.803186 -4.91809582009983E-17
vn -0.803186 0.595728 -3.6477819418122725E-17
vn -0.851195 0.499674 0.16060199999999997
vn -0.855306 0.491984 0.16249099999999997
vn -0.847016 0.507325 0.15869999999999998
vn -0.851195 0.499674 0.16060199999999997
vn 0.528073 0.16460400000000006 0.833093
vn 0.528075 0.16460400000000006 0.833092
vn 0.528075 0.16460400000000006 0.833092
vn 0.528075 0.16460400000000006 0.833092
vn 0.528073 0.16460400000000006 0.833093
vn -0.354911 0.655434 0.666667
vn 0.80274 0.434675 0.408249
vn 0.354909 -0.655435 0.666667
vn -0.80274 -0.434674 0.408248
vn 0.146684 0.989183 -6.056998973604881E-17
vn 0.989183 -0.146686 8.981927018986433E-18
vn -0.146686 -0.989183 6.056998973604881E-17
vn -0.989183 0.146684 -8.981804554306519E-18
vn -0.354911 0.655434 0.666667
vn 0.80274 0.434674 0.408249
vn 0.354909 -0.655435 0.666666
vn -0.80274 -0.434674 0.408248
vn 0.146684 0.989183 -6.056998973604881E-17
vn 0.989183 -0.146687 8.981988251326391E-18
vn -0.146686 -0.989183 6.056998973604881E-17
vn -0.989183 0.146684 -8.981804554306519E-18
vn -0.323037 0.692763 0.644768
vn -0.323037 0.692763 0.644768
vn -0.182535 0.39145300000000005 0.901912
vn -0.143324 -0.08274799999999995 0.98621
vn -0.411848 -0.23778099999999994 0.879683
vn -0.143324 -0.08274799999999995 0.98621
vn 0.140605 0.08117900000000006 0.986732
vn -0.043322 0.051630000000000065 0.997726
vn -0.293216 0.34943900000000006 0.889897
vn -0.043322 0.051630000000000065 0.997726
vn 0.213624 -0.2545819999999999 0.943161
vn 0.634943 -0.634943 0.44010800000000005
vn 0.68972 -0.68972 -0.22039099999999995
vn -0.367849 -0.735697 0.568715
vn -0.874562 -0.437281 -0.20958899999999997
vn -0.870018 0.435009 0.23202499999999998
vn -0.437281 0.874561 -0.20959200000000006
vn 0.634943 0.634943 0.44010799999999994
vn 0.689721 0.68972 -0.22039100000000006
vn 0.414332 0.891036 0.18542899999999995
vn 0.970488 -0.229097 0.07528200000000002
vn -0.22652 -0.96999 0.08836200000000005
vn -0.90612 0.422144 0.027231999999999975
vn 0.400261 0.864336 -0.30449000000000004
vn 0.003671 -0.001966999999999939 0.999991
vn 0.694916 -0.65731 -0.2916079999999999
vn -0.661175 -0.695667 -0.28088399999999997
vn -0.867105 0.404018 -0.291375
vn 0.418683 0.901065 0.11307899999999994
vn 0.970944 -0.233956 0.050325000000000016
vn -0.232755 -0.970784 0.05834200000000006
vn -0.906365 0.421809 0.024075999999999976
vn 0.414878 0.893136 -0.17373500000000006
vn 0.000172 -0.0036229999999999388 0.999993
vn 0.716822 -0.677222 -0.16593899999999998
vn -0.679657 -0.715985 -0.15947499999999995
vn -0.893809 0.416687 -0.16576300000000002
vn 0.419881 0.900412 0.11383199999999995
vn -0.419881 -0.900412 -0.11383199999999995
vn -0.419881 -0.900412 -0.11383199999999995
vn 0.419881 0.900412 0.11383199999999995
vn 0.422621 0.906307 -2.3000000000055494E-05
vn -0.422621 -0.906307 2.3000000000055494E-05
vn -0.422621 -0.906307 2.3000000000055494E-05
vn 0.422621 0.906307 -2.3000000000055494E-05
vn 0.422621 0.906307 -2.1000000000055493E-05
vn -0.422621 -0.906307 2.1000000000055493E-05
vn -0.422621 -0.906307 2.1000000000055493E-05
vn 0.422621 0.906307 -2.1000000000055493E-05
vn 0 6.123233995736766E-17 1
vn 0 6.123233995736766E-17 1
vn 0 6.123233995736766E-17 1
vn 0 6.123233995736766E-17 1
vn 0 6.123233995736766E-17 1
vn 0 6.123233995736766E-17 1
vn 0 6.123233995736766E-17 1
vn 0 6.123233995736766E-17 1
vn 0 6.123233995736766E-17 1
vn 0 6.123233995736766E-17 1
vn 0 6.123233995736766E-17 1
vn 0 6.123233995736766E-17 1
vn 0 6.123233995736766E-17 1
vn 0 6.123233995736766E-17 1
vn 0 6.123233995736766E-17 1
vn -0.272691 -0.584795 -0.763973
vn 0.272691 0.584795 0.763973
vn 0.272698 0.584792 0.763973
vn -0.272698 -0.584792 -0.763973
vn 0.132429 0.16521200000000005 0.977327
vn 0.132426 0.16521500000000006 0.977327
vn 0.132426 0.16521500000000006 0.977327
vn 0.132422 0.16521800000000006 0.977327
vn -0.864178 0.498933 0.06529399999999998
vn -0.683872 0.29643500000000006 0.666667
vn -0.363057 -0.83757 0.40824800000000006
vn 0.683873 -0.2964339999999999 0.666667
vn 0.363056 0.83757 0.40824799999999994
vn -0.972635 -0.232339 1.4226660633354844E-17
vn 0.23234 -0.972635 5.955671697443429E-17
vn 0.972634 0.232341 -1.4226783098034758E-17
vn -0.232339 0.972635 -5.955671697443429E-17
vn -0.664463 0.24184400000000006 0.707107
vn 0 6.123233995736766E-17 1
vn -0.152956 -0.42024399999999995 0.894427
vn -0.662885 -0.627627 0.40824800000000006
vn -0.939693 0.34202 -2.0942684912218888E-17
vn -0.342019 -0.939693 5.753960123155869E-17
vn -0.993443 -0.114332 7.000815892005759E-18
vn 0.759599 -3.999999999960175E-06 0.650392
vn 0.759599 -3.999999999960175E-06 0.650392
vn 0.431919 -2.999999999944774E-06 0.901912
vn 0.027987 -0.06001899999999994 0.997805
vn 0.191893 -0.41152399999999995 0.890969
vn 0.027987 -0.06001899999999994 0.997805
vn -0.140449 0.3011980000000001 0.943162
vn 0.059394 0.034291000000000064 0.997645
vn 0.396876 0.22913400000000006 0.888812
vn 0.059394 0.034291000000000064 0.997645
vn -0.287811 -0.16616599999999995 0.943161
vn -2E-06 0.06598700000000006 0.99782
vn -2E-06 0.06598700000000006 0.99782
vn 0 -0.33233499999999994 0.943161
vn -0.260666 -0.716181 0.647409
vn -0.260666 -0.716181 0.647409
vn -0.147724 -0.40587199999999996 0.901912
vn 0.414333 0.891036 0.18542899999999995
vn 0.970488 -0.229096 0.07528300000000002
vn -0.226517 -0.969991 0.08836100000000005
vn -0.90612 0.422142 0.027232999999999976
vn 0.400262 0.864336 -0.30448800000000004
vn 0.003674 -0.0019689999999999387 0.999991
vn 0.694917 -0.65731 -0.2916059999999999
vn -0.661172 -0.69567 -0.28088299999999994
vn -0.867106 0.404015 -0.291376
vn 0.414333 0.891035 0.18542899999999995
vn 0.970488 -0.229096 0.07528300000000002
vn -0.226517 -0.969991 0.08836100000000005
vn -0.90612 0.422142 0.027232999999999976
vn 0.400262 0.864336 -0.30448800000000004
vn 0.003674 -0.0019689999999999387 0.999991
vn 0.694917 -0.65731 -0.2916059999999999
vn -0.661172 -0.69567 -0.28088299999999994
vn -0.867106 0.404015 -0.291376
vn 0.414333 0.891036 0.18542899999999995
vn 0.970488 -0.229096 0.07528300000000002
vn -0.226517 -0.969991 0.08836100000000005
vn -0.90612 0.422142 0.027232999999999976
vn 0.400262 0.864336 -0.30448800000000004
vn 0.003674 -0.0019689999999999387 0.999991
vn 0.694917 -0.65731 -0.2916059999999999
vn -0.661172 -0.69567 -0.28088299999999994
vn -0.867106 0.404015 -0.291376
vn -0.564829 -0.650625 0.507598
vn -0.564828 -0.650626 0.507598
vn -0.564828 -0.650626 0.507598
vn -0.564828 -0.650626 0.507598
vn -0.564829 -0.650625 0.507598
vn 0.340313 -0.930953 0.13234200000000004
vn -0.226517 -0.969991 0.08836100000000005
vn -0.939739 -0.341189 0.02193800000000002
vn -0.332704 -0.722782 0.605718
vn 0.335264 -0.916385 -0.21871499999999994
vn -0.661172 -0.69567 -0.28088299999999994
vn -0.919028 -0.334134 -0.20914599999999997
vn 0.422621 0.906307 -2.9000000000055494E-05
vn -0.422621 -0.906307 2.9000000000055494E-05
vn -0.422621 -0.906307 2.9000000000055494E-05
vn 0.422621 0.906307 -2.9000000000055494E-05
vn 0.422621 0.906307 -2.9000000000055494E-05
vn -0.422621 -0.906307 2.9000000000055494E-05
vn -0.422621 -0.906307 2.9000000000055494E-05
vn 0.422621 0.906307 -2.9000000000055494E-05
vn -0.792186 0.36937200000000003 0.485804
vn 0.792186 -0.36937200000000003 -0.485804
vn 0.792183 -0.36937900000000007 -0.485804
vn -0.792183 0.36937900000000007 0.485804
vn 0.419412 0.899406 0.12313299999999995
vn -0.419412 -0.899406 -0.12313299999999995
vn -0.419412 -0.899406 -0.12313299999999995
vn 0.419412 0.899406 0.12313299999999995
vn 0.904842 -0.421903 -0.05708699999999997
vn -0.904842 0.421903 0.05708699999999997
vn -0.904842 0.421903 0.05708699999999997
vn 0.904842 -0.421903 -0.05708699999999997
vn 0.903003 -0.421046 -0.08547299999999997
vn -0.903003 0.421046 0.08547299999999997
vn -0.903003 0.421046 0.08547299999999997
vn 0.903003 -0.421046 -0.08547299999999997
vn 0.422621 0.906307 -2.3000000000055494E-05
vn -0.422621 -0.906307 2.3000000000055494E-05
vn -0.422621 -0.906307 2.3000000000055494E-05
vn 0.422621 0.906307 -2.3000000000055494E-05
vn 0.422614 0.90631 -2.1000000000055493E-05
vn -0.422614 -0.90631 2.1000000000055493E-05
vn -0.422614 -0.90631 2.1000000000055493E-05
vn 0.422614 0.90631 -2.1000000000055493E-05
vn 0.90632 -0.422593 0.00015900000000002587
vn -0.90632 0.422593 -0.00015900000000002587
vn -0.90632 0.422593 -0.00015900000000002587
vn 0.90632 -0.422593 0.00015900000000002587
vn 0.90632 -0.422593 0.00015900000000002587
vn -0.90632 0.422593 -0.00015900000000002587
vn -0.90632 0.422593 -0.00015900000000002587
vn 0.90632 -0.422593 0.00015900000000002587
vn 0.41701 0.894273 -0.16241500000000006
vn -0.41701 -0.894273 0.16241500000000006
vn -0.41701 -0.894273 0.16241500000000006
vn 0.41701 0.894273 -0.16241500000000006
vn 0.415142 0.890267 -0.18730200000000005
vn -0.415142 -0.890267 0.18730200000000005
vn -0.415142 -0.890267 0.18730200000000005
vn 0.415142 0.890267 -0.18730200000000005
vn 0.422621 0.906307 -3.0000000000055495E-05
vn -0.422621 -0.906307 3.0000000000055495E-05
vn -0.422621 -0.906307 3.0000000000055495E-05
vn 0.422621 0.906307 -3.0000000000055495E-05
vn 0.422621 0.906307 -3.2000000000055496E-05
vn -0.422621 -0.906307 3.2000000000055496E-05
vn -0.422621 -0.906307 3.2000000000055496E-05
vn 0.422621 0.906307 -3.2000000000055496E-05
vn 0.422621 0.906307 -3.80000000000555E-05
vn -0.422621 -0.906307 3.80000000000555E-05
vn -0.422621 -0.906307 3.80000000000555E-05
vn 0.422621 0.906307 -3.80000000000555E-05
vn 0.422621 0.906307 -3.80000000000555E-05
vn -0.422621 -0.906307 3.80000000000555E-05
vn -0.422621 -0.906307 3.80000000000555E-05
vn 0.422621 0.906307 -3.80000000000555E-05
vn 0.422621 0.906307 -3.0000000000055495E-05
vn -0.422621 -0.906307 3.0000000000055495E-05
vn -0.422621 -0.906307 3.0000000000055495E-05
vn 0.422621 0.906307 -3.0000000000055495E-05
vn 0 6.123233995736766E-17 1
vn 0 6.123233995736766E-17 1
vn 0 6.123233995736766E-17 1
vn 0 6.123233995736766E-17 1
vn 0.132774 0.16564600000000004 0.977207
vn 0.132771 0.16564800000000005 0.977207
vn 0.132771 0.16564800000000005 0.977207
vn 0.132769 0.16565000000000005 0.977207
vn 0.525322 0.618769 -0.58409
vn -0.525322 -0.618769 0.58409
vn -0.525321 -0.61877 0.58409
vn 0.525321 0.61877 -0.58409
vn 0 6.123233995736766E-17 1
vn -0.406474 0.871696 0.27372399999999997
vn -0.498897 -0.864117 0.06636400000000006
vn -0.328299 -0.902004 0.28037300000000004
vn 0.957663 -5.999999999982372E-06 0.287891
vn -3E-06 0.4536430000000001 0.891184
vn -0.390722 0.592092 0.704814
vn -0.337233 0.519183 0.785317
vn -0.665623 0.49613500000000005 0.55749
vn -0.712647 0.614697 0.33805499999999994
vn 0.147011 -0.81827 0.555718
vn -0.555307 -0.784921 0.2748340000000001
vn -0.441299 -0.41268199999999994 0.796837
vn 0.410683 -0.576154 0.706672
vn -0.864177 0.498934 0.06529599999999998
vn -0.864176 0.498935 0.06529799999999997
vn 0.864177 -0.498933 0.06529400000000003
vn 0.864177 -0.498934 0.06529500000000003
vn 0.906127 -0.4225 0.020679000000000024
vn -0.90612 0.422516 -0.020679000000000024
vn -0.999627 -0.027307 1.6720715072158388E-18
vn -0.783312 -0.621628 3.806373702301854E-17
vn 0.414333 0.891036 0.18542899999999995
vn 0.400262 0.864336 -0.30448800000000004
vn 0.414333 0.891036 0.18542899999999995
vn 0.414333 0.891036 0.18542899999999995
vn 0.003674 -0.0019689999999999387 0.999991
vn 0.970488 -0.229096 0.07528300000000002
vn 0.003674 -0.0019689999999999387 0.999991
vn -0.226516 -0.969991 0.08836200000000005
vn 0.003674 -0.0019689999999999387 0.999991
vn 0.803184 -0.595731 3.6478003115142597E-17
vn 0.285103 -0.958497 5.869101415211703E-17
vn -0.803186 0.595728 -3.6477819418122725E-17
vn -0.285111 0.958495 -5.869089168743711E-17
vn 0.989183 -0.146686 8.981927018986433E-18
vn -0.80274 -0.434674 0.408248
vn 0.146684 0.989183 -6.056998973604881E-17
vn -0.354911 0.655434 0.666667
vn 0.989183 -0.146687 8.981988251326391E-18
vn -0.80274 -0.434674 0.408248
vn 0.146684 0.989183 -6.056998973604881E-17
vn -0.354911 0.655434 0.666667
vn -0.870018 0.435009 0.23202499999999998
vn -0.437281 0.874561 -0.20959200000000006
vn 0.634943 0.634943 0.44010799999999994
vn 0.634943 -0.634943 0.44010800000000005
vn -0.367849 -0.735697 0.568715
vn -0.870018 0.435009 0.23202499999999998
vn 0.414332 0.891036 0.18542899999999995
vn 0.400261 0.864336 -0.30449000000000004
vn 0.414332 0.891036 0.18542899999999995
vn 0.414332 0.891036 0.18542899999999995
vn 0.003671 -0.001966999999999939 0.999991
vn 0.970488 -0.229097 0.07528200000000002
vn 0.003671 -0.001966999999999939 0.999991
vn -0.22652 -0.96999 0.08836200000000005
vn 0.003671 -0.001966999999999939 0.999991
vn 0.418683 0.901065 0.11307899999999994
vn 0.414878 0.893136 -0.17373500000000006
vn 0.418683 0.901065 0.11307899999999994
vn 0.418683 0.901065 0.11307899999999994
vn 0.000172 -0.0036229999999999388 0.999993
vn 0.970944 -0.233956 0.050325000000000016
vn 0.000172 -0.0036229999999999388 0.999993
vn -0.232755 -0.970784 0.05834200000000006
vn 0.000172 -0.0036229999999999388 0.999993
vn -0.419881 -0.900412 -0.11383199999999995
vn 0.419881 0.900412 0.11383199999999995
vn -0.422621 -0.906307 2.3000000000055494E-05
vn 0.422621 0.906307 -2.3000000000055494E-05
vn -0.422621 -0.906307 2.1000000000055493E-05
vn 0.422621 0.906307 -2.1000000000055493E-05
vn -0.272691 -0.584795 -0.763973
vn 0.272698 0.584792 0.763973
vn -0.498897 -0.864116 0.06636400000000006
vn -0.498897 -0.864116 0.06636400000000006
vn -0.498897 -0.864116 0.06636400000000006
vn 0.23234 -0.972635 5.955671697443429E-17
vn 0.363056 0.83757 0.40824799999999994
vn -0.683872 0.29643500000000006 0.666667
vn -0.972635 -0.232339 1.4226660633354844E-17
vn 0.498898 0.864116 0.06636299999999995
vn 0.498897 0.864117 0.06636299999999995
vn 0.498898 0.864116 0.06636299999999995
vn 0.498898 0.864116 0.06636399999999995
vn -0.662885 -0.627627 0.40824800000000006
vn -0.152956 -0.42024399999999995 0.894427
vn -0.993443 -0.114332 7.000815892005759E-18
vn 0.414333 0.891036 0.18542899999999995
vn 0.400262 0.864336 -0.30448800000000004
vn 0.414333 0.891036 0.18542899999999995
vn 0.414333 0.891036 0.18542899999999995
vn 0.003674 -0.0019689999999999387 0.999991
vn 0.970488 -0.229096 0.07528300000000002
vn 0.003674 -0.0019689999999999387 0.999991
vn -0.226517 -0.969991 0.08836100000000005
vn 0.003674 -0.0019689999999999387 0.999991
vn 0.414333 0.891035 0.18542899999999995
vn 0.400262 0.864336 -0.30448800000000004
vn 0.414333 0.891035 0.18542899999999995
vn 0.414333 0.891035 0.18542899999999995
vn 0.003674 -0.0019689999999999387 0.999991
vn 0.970488 -0.229096 0.07528300000000002
vn 0.003674 -0.0019689999999999387 0.999991
vn -0.226517 -0.969991 0.08836100000000005
vn 0.003674 -0.0019689999999999387 0.999991
vn 0.414333 0.891036 0.18542899999999995
vn 0.400262 0.864336 -0.30448800000000004
vn 0.414333 0.891036 0.18542899999999995
vn 0.414333 0.891036 0.18542899999999995
vn 0.003674 -0.0019689999999999387 0.999991
vn 0.970488 -0.229096 0.07528300000000002
vn 0.003674 -0.0019689999999999387 0.999991
vn -0.226517 -0.969991 0.08836100000000005
vn 0.003674 -0.0019689999999999387 0.999991
vn 0.340313 -0.930953 0.13234200000000004
vn -0.226517 -0.969991 0.08836100000000005
vn -0.332704 -0.722782 0.605718
vn -0.422621 -0.906307 2.9000000000055494E-05
vn 0.422621 0.906307 -2.9000000000055494E-05
vn -0.422621 -0.906307 2.9000000000055494E-05
vn 0.422621 0.906307 -2.9000000000055494E-05
vn -0.792183 0.36937900000000007 0.485804
vn 0.792186 -0.36937200000000003 -0.485804
vn -0.419412 -0.899406 -0.12313299999999995
vn 0.419412 0.899406 0.12313299999999995
vn 0.904842 -0.421903 -0.05708699999999997
vn -0.904842 0.421903 0.05708699999999997
vn 0.903003 -0.421046 -0.08547299999999997
vn -0.903003 0.421046 0.08547299999999997
vn -0.422621 -0.906307 2.3000000000055494E-05
vn 0.422621 0.906307 -2.3000000000055494E-05
vn -0.422614 -0.90631 2.1000000000055493E-05
vn 0.422614 0.90631 -2.1000000000055493E-05
vn 0.90632 -0.422593 0.00015900000000002587
vn -0.90632 0.422593 -0.00015900000000002587
vn 0.90632 -0.422593 0.00015900000000002587
vn -0.90632 0.422593 -0.00015900000000002587
vn -0.41701 -0.894273 0.16241500000000006
vn 0.41701 0.894273 -0.16241500000000006
vn -0.415142 -0.890267 0.18730200000000005
vn 0.415142 0.890267 -0.18730200000000005
vn -0.422621 -0.906307 3.0000000000055495E-05
vn 0.422621 0.906307 -3.0000000000055495E-05
vn -0.422621 -0.906307 3.2000000000055496E-05
vn 0.422621 0.906307 -3.2000000000055496E-05
vn -0.422621 -0.906307 3.80000000000555E-05
vn 0.422621 0.906307 -3.80000000000555E-05
vn -0.422621 -0.906307 3.80000000000555E-05
vn 0.422621 0.906307 -3.80000000000555E-05
vn -0.422621 -0.906307 3.0000000000055495E-05
vn 0.422621 0.906307 -3.0000000000055495E-05
vn 0.525322 0.618769 -0.58409
vn -0.525321 -0.61877 0.58409
vn 0.90612 -0.422516 0.020678000000000023
vn -0.906127 0.4225 -0.020679000000000024
vn 0.90612 -0.422516 0.020678000000000023
vn 0.939693 0.342019 -2.094262367987893E-17
vn 0.939693 0.342019 -2.094262367987893E-17
vn 0.621626 -0.783314 4.796414914136549E-17
vn 0.621626 -0.783314 4.796414914136549E-17
vn 0.027316 -0.999627 6.120950029456356E-17
vn 0.939693 0.342019 -2.094262367987893E-17
vn -0.342016 0.939694 -5.753966246389865E-17
vn -0.342016 0.939694 -5.753966246389865E-17
vn -0.342016 0.939694 -5.753966246389865E-17
vn 0.970488 -0.229096 0.07528300000000002
vn 0.694918 -0.657309 -0.29160499999999995
vn 0.694918 -0.657309 -0.29160499999999995
vn -0.906121 0.422142 0.027232999999999976
vn -0.226516 -0.969991 0.08836200000000005
vn -0.661171 -0.695671 -0.28088199999999997
vn -0.661171 -0.695671 -0.28088199999999997
vn -0.867106 0.404015 -0.291376
vn -0.906121 0.422142 0.027232999999999976
vn -0.906121 0.422142 0.027232999999999976
vn -0.595747 -0.803172 4.91801009482389E-17
vn -0.958511 -0.285055 1.7454584666547438E-17
vn -0.958511 -0.285055 1.7454584666547438E-17
vn -0.803151 0.595775 -3.648069733810072E-17
vn -0.285093 0.9585 -5.86911978491369E-17
vn -0.285093 0.9585 -5.86911978491369E-17
vn 0.595733 0.803183 -4.9180774503978426E-17
vn 0.958495 0.28511 -1.745795244524509E-17
vn 0.958495 0.28511 -1.745795244524509E-17
vn -0.23386 -0.25825299999999995 0.937345
vn 0.381622 -0.22416999999999995 0.896723
vn 0.381622 -0.22416999999999995 0.896723
vn -0.234291 -0.17158999999999994 0.956904
vn 0.395059 -0.13947599999999993 0.908006
vn 0.395059 -0.13947599999999993 0.908006
vn -0.595737 -0.80318 4.9180590806958555E-17
vn -0.958495 -0.28511 1.745795244524509E-17
vn -0.958495 -0.28511 1.745795244524509E-17
vn 0.803186 -0.595729 3.6477880650462676E-17
vn 0.595728 0.803186 -4.91809582009983E-17
vn 0.958494 0.285114 -1.7458197374604922E-17
vn 0.958494 0.285114 -1.7458197374604922E-17
vn 0.285102 -0.958497 5.869101415211703E-17
vn 0.803186 -0.595729 3.6477880650462676E-17
vn 0.80274 0.434675 0.408249
vn 0.80274 0.434675 0.408249
vn -0.354911 0.655434 0.666667
vn 0.354909 -0.655435 0.666667
vn 0.354909 -0.655435 0.666667
vn 0.80274 0.434675 0.408249
vn -0.146686 -0.989183 6.056998973604881E-17
vn 0.354909 -0.655435 0.666667
vn -0.146686 -0.989183 6.056998973604881E-17
vn -0.989183 0.146684 -8.981804554306519E-18
vn -0.80274 -0.434674 0.408248
vn -0.989183 0.146684 -8.981804554306519E-18
vn 0.80274 0.434674 0.408249
vn 0.80274 0.434674 0.408249
vn -0.354911 0.655434 0.666667
vn 0.354909 -0.655435 0.666666
vn 0.354909 -0.655435 0.666666
vn 0.80274 0.434674 0.408249
vn -0.146686 -0.989183 6.056998973604881E-17
vn 0.354909 -0.655435 0.666666
vn -0.146686 -0.989183 6.056998973604881E-17
vn -0.989183 0.146684 -8.981804554306519E-18
vn -0.80274 -0.434674 0.408248
vn -0.989183 0.146684 -8.981804554306519E-18
vn 0.634943 -0.634943 0.44010800000000005
vn 0.68972 -0.68972 -0.22039099999999995
vn 0.68972 -0.68972 -0.22039099999999995
vn -0.367849 -0.735697 0.568715
vn -0.874562 -0.437281 -0.20958899999999997
vn -0.874562 -0.437281 -0.20958899999999997
vn 0.634943 0.634943 0.44010799999999994
vn 0.689721 0.68972 -0.22039100000000006
vn 0.634943 0.634943 0.44010799999999994
vn 0.970488 -0.229097 0.07528200000000002
vn 0.694916 -0.65731 -0.2916079999999999
vn 0.694916 -0.65731 -0.2916079999999999
vn -0.90612 0.422144 0.027231999999999975
vn -0.22652 -0.96999 0.08836200000000005
vn -0.661175 -0.695667 -0.28088399999999997
vn -0.661175 -0.695667 -0.28088399999999997
vn -0.867105 0.404018 -0.291375
vn -0.90612 0.422144 0.027231999999999975
vn -0.90612 0.422144 0.027231999999999975
vn 0.970944 -0.233956 0.050325000000000016
vn 0.716822 -0.677222 -0.16593899999999998
vn 0.716822 -0.677222 -0.16593899999999998
vn -0.906365 0.421809 0.024075999999999976
vn -0.232755 -0.970784 0.05834200000000006
vn -0.679657 -0.715985 -0.15947499999999995
vn -0.679657 -0.715985 -0.15947499999999995
vn -0.893809 0.416687 -0.16576300000000002
vn -0.906365 0.421809 0.024075999999999976
vn -0.906365 0.421809 0.024075999999999976
vn -0.419881 -0.900412 -0.11383199999999995
vn -0.419881 -0.900412 -0.11383199999999995
vn 0.419881 0.900412 0.11383199999999995
vn -0.422621 -0.906307 2.3000000000055494E-05
vn -0.422621 -0.906307 2.3000000000055494E-05
vn 0.422621 0.906307 -2.3000000000055494E-05
vn -0.422621 -0.906307 2.1000000000055493E-05
vn -0.422621 -0.906307 2.1000000000055493E-05
vn 0.422621 0.906307 -2.1000000000055493E-05
vn -0.272698 -0.584792 -0.763973
vn -0.272698 -0.584792 -0.763973
vn 0.272691 0.584795 0.763973
vn -0.683872 0.29643500000000006 0.666667
vn -0.363057 -0.83757 0.40824800000000006
vn -0.363057 -0.83757 0.40824800000000006
vn -0.363057 -0.83757 0.40824800000000006
vn 0.683873 -0.2964339999999999 0.666667
vn 0.683873 -0.2964339999999999 0.666667
vn 0.972634 0.232341 -1.4226783098034758E-17
vn 0.683873 -0.2964339999999999 0.666667
vn 0.972634 0.232341 -1.4226783098034758E-17
vn -0.232339 0.972635 -5.955671697443429E-17
vn 0.363056 0.83757 0.40824799999999994
vn -0.232339 0.972635 -5.955671697443429E-17
vn -0.664463 0.24184400000000006 0.707107
vn -0.664463 0.24184400000000006 0.707107
vn -0.662885 -0.627627 0.40824800000000006
vn 0.970488 -0.229096 0.07528300000000002
vn 0.694917 -0.65731 -0.2916059999999999
vn 0.694917 -0.65731 -0.2916059999999999
vn -0.90612 0.422142 0.027232999999999976
vn -0.226517 -0.969991 0.08836100000000005
vn -0.661172 -0.69567 -0.28088299999999994
vn -0.661172 -0.69567 -0.28088299999999994
vn -0.867106 0.404015 -0.291376
vn -0.90612 0.422142 0.027232999999999976
vn -0.90612 0.422142 0.027232999999999976
vn 0.970488 -0.229096 0.07528300000000002
vn 0.694917 -0.65731 -0.2916059999999999
vn 0.694917 -0.65731 -0.2916059999999999
vn -0.90612 0.422142 0.027232999999999976
vn -0.226517 -0.969991 0.08836100000000005
vn -0.661172 -0.69567 -0.28088299999999994
vn -0.661172 -0.69567 -0.28088299999999994
vn -0.867106 0.404015 -0.291376
vn -0.90612 0.422142 0.027232999999999976
vn -0.90612 0.422142 0.027232999999999976
vn 0.970488 -0.229096 0.07528300000000002
vn 0.694917 -0.65731 -0.2916059999999999
vn 0.694917 -0.65731 -0.2916059999999999
vn -0.90612 0.422142 0.027232999999999976
vn -0.226517 -0.969991 0.08836100000000005
vn -0.661172 -0.69567 -0.28088299999999994
vn -0.661172 -0.69567 -0.28088299999999994
vn -0.867106 0.404015 -0.291376
vn -0.90612 0.422142 0.027232999999999976
vn -0.90612 0.422142 0.027232999999999976
vn -0.226517 -0.969991 0.08836100000000005
vn -0.661172 -0.69567 -0.28088299999999994
vn -0.661172 -0.69567 -0.28088299999999994
vn -0.422621 -0.906307 2.9000000000055494E-05
vn -0.422621 -0.906307 2.9000000000055494E-05
vn 0.422621 0.906307 -2.9000000000055494E-05
vn -0.422621 -0.906307 2.9000000000055494E-05
vn -0.422621 -0.906307 2.9000000000055494E-05
vn 0.422621 0.906307 -2.9000000000055494E-05
vn -0.792186 0.36937200000000003 0.485804
vn 0.792183 -0.36937900000000007 -0.485804
vn -0.792186 0.36937200000000003 0.485804
vn -0.419412 -0.899406 -0.12313299999999995
vn 0.419412 0.899406 0.12313299999999995
vn -0.419412 -0.899406 -0.12313299999999995
vn 0.904842 -0.421903 -0.05708699999999997
vn -0.904842 0.421903 0.05708699999999997
vn 0.904842 -0.421903 -0.05708699999999997
vn 0.903003 -0.421046 -0.08547299999999997
vn -0.903003 0.421046 0.08547299999999997
vn 0.903003 -0.421046 -0.08547299999999997
vn -0.422621 -0.906307 2.3000000000055494E-05
vn -0.422621 -0.906307 2.3000000000055494E-05
vn 0.422621 0.906307 -2.3000000000055494E-05
vn -0.422614 -0.90631 2.1000000000055493E-05
vn -0.422614 -0.90631 2.1000000000055493E-05
vn 0.422614 0.90631 -2.1000000000055493E-05
vn 0.90632 -0.422593 0.00015900000000002587
vn -0.90632 0.422593 -0.00015900000000002587
vn 0.90632 -0.422593 0.00015900000000002587
vn 0.90632 -0.422593 0.00015900000000002587
vn -0.90632 0.422593 -0.00015900000000002587
vn 0.90632 -0.422593 0.00015900000000002587
vn -0.41701 -0.894273 0.16241500000000006
vn -0.41701 -0.894273 0.16241500000000006
vn 0.41701 0.894273 -0.16241500000000006
vn -0.415142 -0.890267 0.18730200000000005
vn 0.415142 0.890267 -0.18730200000000005
vn -0.415142 -0.890267 0.18730200000000005
vn -0.422621 -0.906307 3.0000000000055495E-05
vn -0.422621 -0.906307 3.0000000000055495E-05
vn 0.422621 0.906307 -3.0000000000055495E-05
vn -0.422621 -0.906307 3.2000000000055496E-05
vn -0.422621 -0.906307 3.2000000000055496E-05
vn 0.422621 0.906307 -3.2000000000055496E-05
vn -0.422621 -0.906307 3.80000000000555E-05
vn -0.422621 -0.906307 3.80000000000555E-05
vn 0.422621 0.906307 -3.80000000000555E-05
vn -0.422621 -0.906307 3.80000000000555E-05
vn -0.422621 -0.906307 3.80000000000555E-05
vn 0.422621 0.906307 -3.80000000000555E-05
vn -0.422621 -0.906307 3.0000000000055495E-05
vn -0.422621 -0.906307 3.0000000000055495E-05
vn 0.422621 0.906307 -3.0000000000055495E-05
vn 0.525321 0.61877 -0.58409
vn 0.525321 0.61877 -0.58409
vn -0.525322 -0.618769 0.58409
g 01
f 479/479/479 693/693/693 692/692/692
f 691/691/691 480/480/480 479/479/479
f 323/323/323 322/322/322 324/324/324
f 324/324/324 325/325/325 323/323/323
f 319/319/319 318/318/318 320/320/320
f 320/320/320 321/321/321 319/319/319
f 315/315/315 314/314/314 316/316/316
f 316/316/316 317/317/317 315/315/315
f 477/477/477 690/690/690 689/689/689
f 688/688/688 478/478/478 477/477/477
f 310/310/310 311/311/311 313/313/313
f 313/313/313 312/312/312 310/310/310
f 475/475/475 687/687/687 686/686/686
f 685/685/685 476/476/476 475/475/475
f 306/306/306 307/307/307 309/309/309
f 309/309/309 308/308/308 306/306/306
f 473/473/473 684/684/684 683/683/683
f 682/682/682 474/474/474 473/473/473
f 302/302/302 303/303/303 305/305/305
f 305/305/305 304/304/304 302/302/302
f 471/471/471 681/681/681 680/680/680
f 679/679/679 472/472/472 471/471/471
f 298/298/298 299/299/299 301/301/301
f 301/301/301 300/300/300 298/298/298
f 469/469/469 678/678/678 677/677/677
f 676/676/676 470/470/470 469/469/469
f 294/294/294 295/295/295 297/297/297
f 297/297/297 296/296/296 294/294/294
f 675/675/675 468/468/468 467/467/467
f 467/467/467 674/674/674 673/673/673
f 290/290/290 291/291/291 293/293/293
f 293/293/293 292/292/292 290/290/290
f 465/465/465 672/672/672 671/671/671
f 670/670/670 466/466/466 465/465/465
f 286/286/286 287/287/287 289/289/289
f 289/289/289 288/288/288 286/286/286
f 669/669/669 464/464/464 463/463/463
f 463/463/463 668/668/668 667/667/667
f 283/283/283 282/282/282 284/284/284
f 284/284/284 285/285/285 283/283/283
f 666/666/666 462/462/462 461/461/461
f 461/461/461 665/665/665 664/664/664
f 279/279/279 278/278/278 280/280/280
f 280/280/280 281/281/281 279/279/279
f 459/459/459 663/663/663 662/662/662
f 661/661/661 460/460/460 459/459/459
f 274/274/274 275/275/275 277/277/277
f 277/277/277 276/276/276 274/274/274
f 457/457/457 660/660/660 659/659/659
f 658/658/658 458/458/458 457/457/457
f 270/270/270 271/271/271 273/273/273
f 273/273/273 272/272/272 270/270/270
f 657/657/657 456/456/456 455/455/455
f 455/455/455 656/656/656 655/655/655
f 267/267/267 266/266/266 268/268/268
f 268/268/268 269/269/269 267/267/267
f 654/654/654 454/454/454 453/453/453
f 453/453/453 653/653/653 652/652/652
f 263/263/263 262/262/262 264/264/264
f 264/264/264 265/265/265 263/263/263
f 651/651/651 452/452/452 451/451/451
f 451/451/451 650/650/650 649/649/649
f 258/258/258 259/259/259 261/261/261
f 261/261/261 260/260/260 258/258/258
f 648/648/648 450/450/450 449/449/449
f 449/449/449 647/647/647 646/646/646
f 255/255/255 254/254/254 256/256/256
f 256/256/256 257/257/257 255/255/255
f 447/447/447 645/645/645 644/644/644
f 643/643/643 448/448/448 447/447/447
f 250/250/250 251/251/251 253/253/253
f 253/253/253 252/252/252 250/250/250
f 445/445/445 642/642/642 641/641/641
f 640/640/640 446/446/446 445/445/445
f 246/246/246 247/247/247 249/249/249
f 249/249/249 248/248/248 246/246/246
f 444/444/444 241/241/241 443/443/443
f 242/242/242 240/240/240 442/442/442
f 241/241/241 245/245/245 639/639/639
f 638/638/638 637/637/637 241/241/241
f 240/240/240 244/244/244 243/243/243
f 243/243/243 239/239/239 240/240/240
f 234/234/234 237/237/237 235/235/235
f 234/234/234 238/238/238 237/237/237
f 237/237/237 236/236/236 235/235/235
f 441/441/441 636/636/636 440/440/440
f 439/439/439 227/227/227 438/438/438
f 437/437/437 226/226/226 436/436/436
f 435/435/435 228/228/228 230/230/230
f 635/635/635 634/634/634 633/633/633
f 632/632/632 631/631/631 630/630/630
f 227/227/227 232/232/232 629/629/629
f 628/628/628 627/627/627 227/227/227
f 226/226/226 231/231/231 434/434/434
f 434/434/434 433/433/433 226/226/226
f 228/228/228 225/225/225 229/229/229
f 229/229/229 233/233/233 228/228/228
f 432/432/432 626/626/626 431/431/431
f 430/430/430 218/218/218 429/429/429
f 428/428/428 217/217/217 427/427/427
f 426/426/426 219/219/219 221/221/221
f 625/625/625 624/624/624 623/623/623
f 622/622/622 621/621/621 620/620/620
f 218/218/218 223/223/223 619/619/619
f 618/618/618 617/617/617 218/218/218
f 217/217/217 222/222/222 425/425/425
f 425/425/425 424/424/424 217/217/217
f 219/219/219 216/216/216 220/220/220
f 220/220/220 224/224/224 219/219/219
f 423/423/423 616/616/616 422/422/422
f 421/421/421 209/209/209 420/420/420
f 419/419/419 208/208/208 418/418/418
f 417/417/417 210/210/210 212/212/212
f 615/615/615 614/614/614 613/613/613
f 612/612/612 611/611/611 610/610/610
f 209/209/209 214/214/214 609/609/609
f 608/608/608 607/607/607 209/209/209
f 208/208/208 213/213/213 416/416/416
f 416/416/416 415/415/415 208/208/208
f 210/210/210 207/207/207 211/211/211
f 211/211/211 215/215/215 210/210/210
f 206/206/206 205/205/205 204/204/204
f 205/205/205 329/329/329 204/204/204
f 203/203/203 202/202/202 201/201/201
f 202/202/202 331/331/331 201/201/201
f 200/200/200 199/199/199 197/197/197
f 199/199/199 198/198/198 197/197/197
f 196/196/196 195/195/195 193/193/193
f 195/195/195 194/194/194 193/193/193
f 192/192/192 191/191/191 190/190/190
f 191/191/191 330/330/330 190/190/190
f 414/414/414 606/606/606 605/605/605
f 604/604/604 187/187/187 414/414/414
f 188/188/188 413/413/413 412/412/412
f 412/412/412 189/189/189 188/188/188
f 183/183/183 186/186/186 185/185/185
f 185/185/185 184/184/184 183/183/183
f 408/408/408 411/411/411 410/410/410
f 410/410/410 409/409/409 408/408/408
f 603/603/603 407/407/407 406/406/406
f 406/406/406 602/602/602 601/601/601
f 600/600/600 182/182/182 405/405/405
f 405/405/405 599/599/599 598/598/598
f 404/404/404 181/181/181 597/597/597
f 596/596/596 595/595/595 404/404/404
f 179/179/179 180/180/180 594/594/594
f 593/593/593 592/592/592 179/179/179
f 175/175/175 176/176/176 177/177/177
f 177/177/177 178/178/178 175/175/175
f 401/401/401 403/403/403 402/402/402
f 402/402/402 328/328/328 401/401/401
f 171/171/171 170/170/170 172/172/172
f 172/172/172 173/173/173 171/171/171
f 399/399/399 591/591/591 590/590/590
f 589/589/589 400/400/400 399/399/399
f 167/167/167 166/166/166 168/168/168
f 168/168/168 169/169/169 167/167/167
f 164/164/164 163/163/163 326/326/326
f 326/326/326 165/165/165 164/164/164
f 160/160/160 159/159/159 161/161/161
f 161/161/161 162/162/162 160/160/160
f 156/156/156 155/155/155 157/157/157
f 157/157/157 158/158/158 156/156/156
f 152/152/152 151/151/151 153/153/153
f 153/153/153 154/154/154 152/152/152
f 397/397/397 588/588/588 587/587/587
f 586/586/586 398/398/398 397/397/397
f 147/147/147 148/148/148 150/150/150
f 150/150/150 149/149/149 147/147/147
f 395/395/395 585/585/585 584/584/584
f 583/583/583 396/396/396 395/395/395
f 143/143/143 144/144/144 146/146/146
f 146/146/146 145/145/145 143/143/143
f 393/393/393 582/582/582 581/581/581
f 580/580/580 394/394/394 393/393/393
f 139/139/139 140/140/140 142/142/142
f 142/142/142 141/141/141 139/139/139
f 392/392/392 579/579/579 391/391/391
f 390/390/390 132/132/132 389/389/389
f 388/388/388 131/131/131 387/387/387
f 386/386/386 133/133/133 135/135/135
f 578/578/578 577/577/577 576/576/576
f 575/575/575 574/574/574 573/573/573
f 132/132/132 137/137/137 572/572/572
f 571/571/571 570/570/570 132/132/132
f 131/131/131 136/136/136 385/385/385
f 385/385/385 384/384/384 131/131/131
f 133/133/133 130/130/130 134/134/134
f 134/134/134 138/138/138 133/133/133
f 383/383/383 569/569/569 382/382/382
f 381/381/381 123/123/123 380/380/380
f 379/379/379 122/122/122 378/378/378
f 377/377/377 124/124/124 126/126/126
f 568/568/568 567/567/567 566/566/566
f 565/565/565 564/564/564 563/563/563
f 123/123/123 128/128/128 562/562/562
f 561/561/561 560/560/560 123/123/123
f 122/122/122 127/127/127 376/376/376
f 376/376/376 375/375/375 122/122/122
f 124/124/124 121/121/121 125/125/125
f 125/125/125 129/129/129 124/124/124
f 371/371/371 374/374/374 373/373/373
f 373/373/373 372/372/372 371/371/371
f 559/559/559 558/558/558 370/370/370
f 370/370/370 369/369/369 557/557/557
f 117/117/117 118/118/118 556/556/556
f 555/555/555 554/554/554 117/117/117
f 115/115/115 116/116/116 553/553/553
f 552/552/552 551/551/551 115/115/115
f 114/114/114 120/120/120 119/119/119
f 119/119/119 113/113/113 114/114/114
f 112/112/112 111/111/111 109/109/109
f 111/111/111 110/110/110 109/109/109
f 108/108/108 107/107/107 105/105/105
f 107/107/107 106/106/106 105/105/105
f 104/104/104 103/103/103 102/102/102
f 103/103/103 327/327/327 102/102/102
f 550/550/550 549/549/549 368/368/368
f 368/368/368 367/367/367 548/548/548
f 547/547/547 546/546/546 366/366/366
f 366/366/366 101/101/101 545/545/545
f 365/365/365 544/544/544 543/543/543
f 542/542/542 100/100/100 365/365/365
f 98/98/98 541/541/541 540/540/540
f 539/539/539 99/99/99 98/98/98
f 94/94/94 97/97/97 96/96/96
f 96/96/96 95/95/95 94/94/94
f 538/538/538 537/537/537 364/364/364
f 364/364/364 363/363/363 536/536/536
f 535/535/535 534/534/534 362/362/362
f 362/362/362 93/93/93 533/533/533
f 361/361/361 532/532/532 531/531/531
f 530/530/530 92/92/92 361/361/361
f 90/90/90 529/529/529 528/528/528
f 527/527/527 91/91/91 90/90/90
f 86/86/86 89/89/89 88/88/88
f 88/88/88 87/87/87 86/86/86
f 81/81/81 84/84/84 82/82/82
f 81/81/81 85/85/85 84/84/84
f 84/84/84 83/83/83 82/82/82
f 80/80/80 78/78/78 77/77/77
f 77/77/77 79/79/79 80/80/80
f 526/526/526 525/525/525 524/524/524
f 523/523/523 522/522/522 521/521/521
f 75/75/75 71/71/71 360/360/360
f 360/360/360 359/359/359 75/75/75
f 76/76/76 72/72/72 520/520/520
f 519/519/519 518/518/518 76/76/76
f 74/74/74 70/70/70 69/69/69
f 69/69/69 73/73/73 74/74/74
f 67/67/67 64/64/64 517/517/517
f 516/516/516 515/515/515 67/67/67
f 68/68/68 65/65/65 63/63/63
f 63/63/63 66/66/66 68/68/68
f 61/61/61 58/58/58 514/514/514
f 513/513/513 512/512/512 61/61/61
f 62/62/62 59/59/59 57/57/57
f 57/57/57 60/60/60 62/62/62
f 357/357/357 358/358/358 511/511/511
f 510/510/510 509/509/509 357/357/357
f 55/55/55 51/51/51 508/508/508
f 507/507/507 506/506/506 55/55/55
f 56/56/56 52/52/52 505/505/505
f 504/504/504 503/503/503 56/56/56
f 54/54/54 50/50/50 49/49/49
f 49/49/49 53/53/53 54/54/54
f 356/356/356 502/502/502 355/355/355
f 354/354/354 42/42/42 353/353/353
f 352/352/352 41/41/41 351/351/351
f 350/350/350 43/43/43 45/45/45
f 501/501/501 500/500/500 499/499/499
f 498/498/498 497/497/497 496/496/496
f 42/42/42 47/47/47 495/495/495
f 494/494/494 493/493/493 42/42/42
f 41/41/41 46/46/46 349/349/349
f 349/349/349 348/348/348 41/41/41
f 43/43/43 40/40/40 44/44/44
f 44/44/44 48/48/48 43/43/43
f 492/492/492 347/347/347 346/346/346
f 346/346/346 491/491/491 490/490/490
f 36/36/36 39/39/39 38/38/38
f 38/38/38 37/37/37 36/36/36
f 489/489/489 488/488/488 487/487/487
f 486/486/486 485/485/485 484/484/484
f 32/32/32 35/35/35 34/34/34
f 34/34/34 33/33/33 32/32/32
f 28/28/28 31/31/31 30/30/30
f 30/30/30 29/29/29 28/28/28
f 483/483/483 345/345/345 344/344/344
f 344/344/344 482/482/482 481/481/481
f 25/25/25 24/24/24 26/26/26
f 26/26/26 27/27/27 25/25/25
f 21/21/21 20/20/20 22/22/22
f 22/22/22 23/23/23 21/21/21
f 342/342/342 343/343/343 18/18/18
f 18/18/18 2/2/2 342/342/342
f 340/340/340 341/341/341 1/1/1
f 1/1/1 174/174/174 340/340/340
f 339/339/339 336/336/336 10/10/10
f 10/10/10 12/12/12 339/339/339
f 336/336/336 338/338/338 337/337/337
f 337/337/337 10/10/10 336/336/336
f 14/14/14 335/335/335 334/334/334
f 334/334/334 333/333/333 14/14/14
f 13/13/13 6/6/6 9/9/9
f 9/9/9 11/11/11 13/13/13
f 8/8/8 9/9/9 6/6/6
f 6/6/6 7/7/7 8/8/8
f 5/5/5 14/14/14 333/333/333
f 333/333/333 332/332/332 5/5/5
f 13/13/13 11/11/11 4/4/4
f 4/4/4 3/3/3 13/13/13
f 16/16/16 15/15/15 17/17/17
f 17/17/17 19/19/19 16/16/16
