v -1.459343 1.437204 0.5875379999999999
v -1.23823 0.31494700000000003 0.74336
v -1.545813 0.625907 0.638809
v 0.41288 1.098242 0.7280849999999999
v -0.304364 0.677115 0.882102
v 0.815763 0.07305500000000005 0.797575
v 0.251554 -0.06863899999999996 0.708965
v 1.388833 0.07380300000000004 0.630714
v 1.200502 0.708742 0.810924
v 0.134549 1.171754 1.088947
v 0.420048 1.100125 0.7899259999999999
v 0.870016 1.157915 0.5817329999999998
v 0.870016 1.157915 0.6667779999999999
v 0.761151 0.49653800000000003 1.041927
v -0.716298 1.020478 0.7424489999999999
v 0.410461 0.45234800000000003 1.017478
v 0.024743 0.32558800000000004 1.092594
v 0.815763 0.07305500000000004 0.669746
v 0.733199 0.504012 0.702339
v 0.180341 0.36357700000000004 0.747331
v 1.161728 0.763278 0.608468
v 0.761151 0.513226 0.82134
v 0.134549 1.171754 1.003917
v -0.304364 0.677115 0.797072
v 1.200502 0.69452 0.727092
v 0.761151 0.49653800000000003 0.956897
v 0.410461 0.45234800000000003 0.932447
v 0.024743 0.32558800000000004 1.007564
v -1.459343 1.437204 0.5010469999999999
v -1.545813 0.625907 0.552318
v 1.388833 0.07380300000000002 0.538743
v 1.161728 0.763278 0.516497
v 0.420048 1.100125 0.7899259999999999
v 0.134549 1.171754 1.088947
v -0.304364 0.677115 0.882102
v 0.024743 0.32558800000000004 1.092594
v 0.761151 0.49653800000000003 1.041927
v -0.304364 0.677115 0.882102
v -0.304364 0.677115 0.797072
v 0.024743 0.32558800000000004 1.007564
v 0.024743 0.32558800000000004 1.092594
v 0.410461 0.45234800000000003 1.017478
v 1.200502 0.69452 0.727092
v 1.200502 0.708742 0.810924
v 0.870016 1.157915 0.6667779999999999
v 0.870016 1.157915 0.5817329999999998
v -1.459343 1.437204 0.5875379999999999
v -1.545813 0.625907 0.638809
v 1.388833 0.07380300000000004 0.630714
v 1.161728 0.763278 0.608468
v 0.870016 1.157915 0.6667779999999999
v 1.200502 0.708742 0.810924
v 0.134549 1.171754 1.088947
v 0.134549 1.171754 1.003917
v 0.134549 1.171754 1.088947
vt 0.454025 0.433099
vt 0.598967 0.177825
vt 0.598967 0.433098
vt 0.206725 0.388858
vt 0.020252 0.349177
vt 0.442170 0.014506
vt 0.341529 0.258224
vt 0.442170 0.207402
vt 0.316127 0.030951
vt 0.144238 0.349177
vt 0.206725 0.366405
vt 0.316127 0.388858
vt 0.316127 0.366405
vt 0.203198 0.042246
vt 0.454025 0.177826
vt 0.125591 0.042246
vt 0.020252 0.042246
vt 0.445818 0.258224
vt 0.445818 0.421295
vt 0.341529 0.421295
vt 0.339150 0.207402
vt 0.339150 0.014506
vt 0.144238 0.388858
vt 0.002885 0.349226
vt 0.316127 0.005257
vt 0.202194 0.005258
vt 0.124939 0.005258
vt 0.002884 0.041506
vt 0.454587 0.463278
vt 0.599529 0.463280
vt 0.442170 0.243163
vt 0.339150 0.243163
vt 0.206725 0.349177
vt 0.144238 0.366405
vt 0.015732 0.349226
vt 0.015731 0.041506
vt 0.202194 0.030952
vt 0.020252 0.366405
vt 0.020252 0.388858
vt 0.020252 0.005259
vt 0.020252 0.030953
vt 0.124939 0.030952
vt 0.332429 0.041985
vt 0.320638 0.041985
vt 0.320638 0.349170
vt 0.332429 0.349170
vt 0.454587 0.439123
vt 0.599529 0.439125
vt 0.442170 0.217477
vt 0.339150 0.217477
vt 0.316127 0.349177
vt 0.316127 0.042246
vt 0.144238 0.366405
vt 0.144238 0.388858
vt 0.144238 0.366405
vn -0.572997 0.12495100000000006 0.809977
vn -0.19289 0.09756000000000005 0.976358
vn -0.910625 0.12200700000000003 0.394812
vn 0.036045 0.998751 -0.034597000000000065
vn -0.913843 0.021913000000000023 0.405475
vn 0.373335 0.06638900000000006 0.925318
vn 0.087577 -0.07375099999999994 0.993424
vn 0.760562 0.26957800000000004 0.590655
vn 0.85783 0.08933000000000003 0.506112
vn -0.220695 0.697945 0.681298
vn 0.177529 0.886303 0.42772799999999994
vn 0.210783 0.977517 -0.00558400000000006
vn 0.484158 0.771657 0.4124769999999999
vn 0.385103 -0.43842999999999993 0.81208
vn -0.144426 0.10811300000000006 0.983592
vn 0.37264 -0.737584 0.563125
vn -0.440003 -0.69608 0.567336
vn 0.091457 -0.06532799999999994 0.993664
vn 0.09533 -0.05689999999999994 0.993818
vn 0.091457 -0.06532799999999994 0.993664
vn 0.798915 0.22914900000000002 0.556081
vn 0.464462 0.009814000000000054 0.885539
vn -0.113967 0.993276 -0.02036600000000006
vn -0.999911 -0.013346 8.172068090710288E-19
vn 0.971128 -0.237818 0.018810000000000014
vn 0.222483 -0.974937 5.969767382101616E-17
vn 0.219627 -0.975584 5.973729114496857E-17
vn -0.040837 -0.999166 6.118127218584321E-17
vn -0.994368 0.105982 -6.48952585336174E-18
vn -0.994368 0.105982 -6.48952585336174E-18
vn 0.949802 0.312853 -1.9156721252682344E-17
vn 0.949802 0.312853 -1.9156721252682344E-17
vn 0.177529 0.886303 0.42772799999999994
vn -0.220695 0.697945 0.681298
vn -0.913843 0.021913000000000023 0.405475
vn -0.440003 -0.69608 0.567336
vn 0.385103 -0.43842999999999993 0.81208
vn -0.913843 0.021913000000000023 0.405475
vn -0.999911 -0.013346 8.172068090710288E-19
vn -0.040837 -0.999166 6.118127218584321E-17
vn -0.440003 -0.69608 0.567336
vn 0.37264 -0.737584 0.563125
vn 0.971128 -0.237818 0.018810000000000014
vn 0.85783 0.08933000000000003 0.506112
vn 0.484158 0.771657 0.4124769999999999
vn 0.210783 0.977517 -0.00558400000000006
vn -0.572997 0.12495100000000006 0.809977
vn -0.910625 0.12200700000000003 0.394812
vn 0.760562 0.26957800000000004 0.590655
vn 0.798915 0.22914900000000002 0.556081
vn 0.484158 0.771657 0.4124769999999999
vn 0.85783 0.08933000000000003 0.506112
vn -0.220695 0.697945 0.681298
vn -0.113967 0.993276 -0.02036600000000006
vn -0.220695 0.697945 0.681298
g 01
f 14/14/14 52/52/52 51/51/51
f 51/51/51 33/33/33 14/14/14
f 31/31/31 32/32/32 50/50/50
f 50/50/50 49/49/49 31/31/31
f 29/29/29 30/30/30 48/48/48
f 48/48/48 47/47/47 29/29/29
f 42/42/42 27/27/27 26/26/26
f 26/26/26 37/37/37 42/42/42
f 43/43/43 46/46/46 45/45/45
f 45/45/45 44/44/44 43/43/43
f 40/40/40 27/27/27 42/42/42
f 42/42/42 41/41/41 40/40/40
f 55/55/55 54/54/54 39/39/39
f 39/39/39 38/38/38 53/53/53
f 37/37/37 26/26/26 25/25/25
f 25/25/25 9/9/9 37/37/37
f 24/24/24 28/28/28 36/36/36
f 36/36/36 35/35/35 24/24/24
f 11/11/11 4/4/4 23/23/23
f 23/23/23 34/34/34 11/11/11
f 21/21/21 22/22/22 6/6/6
f 6/6/6 8/8/8 21/21/21
f 18/18/18 19/19/19 20/20/20
f 20/20/20 7/7/7 18/18/18
f 33/33/33 10/10/10 16/16/16
f 16/16/16 14/14/14 33/33/33
f 12/12/12 4/4/4 11/11/11
f 11/11/11 13/13/13 12/12/12
f 10/10/10 5/5/5 17/17/17
f 17/17/17 16/16/16 10/10/10
f 2/2/2 15/15/15 1/1/1
f 1/1/1 3/3/3 2/2/2
