v 0.822074 -0.08509999999999995 0.626307
v 1.283548 -0.35081099999999993 0.541933
v 1.391225 -0.08486999999999996 0.567972
v 1.014298 0.19561300000000004 0.533122
v 1.391225 -0.08486999999999997 0.521544
v 0.324643 -0.899726 0.607119
v -0.095051 -0.612033 0.579113
v 0.580093 -0.41087299999999993 0.579113
v 0.300194 -0.26247099999999995 0.5623
v -0.537897 -1.404856 0.8427040000000001
v -0.495394 -0.877903 0.75833
v -1.061953 -1.295297 0.8537220000000001
v -0.925692 -0.849078 0.784369
v -1.058828 -1.294141 0.7495200000000001
v -0.925692 -0.849078 0.737942
v -0.540666 -1.402468 0.7703970000000001
v -0.718915 1.033146 -0.004004000000000063
v 0.021548 0.692286 -0.004004000000000042
v -0.5174 -0.6187 -0.004003999999999962
v -1.256108 -0.118867 -0.004003999999999993
v 0.072178 0.591104 0.33976499999999993
v 0.315911 0.72385 -0.004004000000000044
v -0.50311 1.495938 -0.004362000000000092
v -0.210731 -0.520948 -0.004003999999999968
v -0.419827 -0.341469 0.277394
v -1.428239 -0.48800399999999994 0.613191
v 0.167434 0.359519 -0.004004000000000021
v -0.321391 -0.16172499999999998 0.625726
v -1.105336 0.20446100000000006 0.738572
v -0.085739 0.34363200000000005 0.625726
v -0.869684 0.709817 0.738572
v -0.130414 0.758723 -0.004004000000000047
v 0.121671 1.204598 -0.004362000000000074
v -0.839739 -0.762426 0.613191
v -0.667608 -0.393289 -0.0040039999999999755
v -0.321916 0.45438900000000004 0.736087
v -0.557568 -0.05096799999999996 0.736087
v -0.751859 0.962496 0.6131909999999999
v -0.070496 0.644771 0.613191
v -0.070496 0.644771 0.613191
v -0.484514 0.20478600000000005 0.960628
v -1.291173 0.309083 -0.004004000000000019
v -1.046655 0.833454 -0.004004000000000051
v -0.937443 0.45029100000000005 0.959504
v -1.105281 0.52419 0.71827
v -1.490506 0.717969 -0.004004000000000044
v -0.951139 0.42091700000000004 0.946205
v -0.470873 0.23403400000000005 0.94747
v -0.869684 0.709817 0.725422
v -0.321916 0.45438900000000004 0.722937
v -1.105336 0.20446100000000006 0.725422
v -0.470873 0.23403400000000005 0.96062
v -0.951139 0.42091700000000004 0.959355
v -0.937443 0.45029100000000005 0.946353
v -0.484514 0.20478600000000005 0.947477
v -0.34047 -0.503559 -0.003145999999999969
v 0.195924 0.10353100000000004 0.594712
v 0.025176 -0.21876599999999996 0.594712
v -0.125428 0.2585200000000001 0.605562
v 0.112065 0.385339 -0.004004000000000023
v -0.226194 -0.34006 -0.004003999999999979
v -0.281702 -0.07661199999999996 0.605562
v -0.170824 -0.36588 -0.004003999999999977
v -0.203566 0.09095400000000003 0.605562
v -0.634663 -0.3226399999999999 0.613191
v -1.223163 -0.04821799999999996 0.613191
v -0.835082 -0.315195 -0.004003999999999981
v -1.123815 -0.257343 -0.004003999999999984
v -1.055402 -0.12569799999999998 0.454816
v -0.832492 -0.393189 -0.0040039999999999755
v -1.088632 -0.196962 -0.004003999999999988
v -0.801559 -0.24330699999999997 0.460272
v -0.945788 -0.263572 -0.004003999999999983
v -0.070496 0.644771 0.600041
v -0.751859 0.962496 0.6000409999999999
v -0.50311 1.495938 -0.01751200000000009
v 0.121671 1.204598 -0.017512000000000073
v 1.068021 1.326417 0.47505699999999995
v 1.352324 1.087858 0.47505699999999995
v -0.149635 0.73872 -0.014642000000000046
v -0.091824 0.628777 0.602553
v 0.137736 0.35356 -0.014642000000000021
v -0.334399 0.44509200000000004 0.725449
v -0.559664 -0.046726999999999956 0.724193
v -0.424164 0.18976300000000004 0.700342
v -0.188622 -0.34632 -0.01464199999999998
v -0.636144 -0.30460099999999996 0.602553
v -0.717432 1.003488 -0.014642000000000061
v -0.749217 0.935324 0.6025529999999999
v -1.042081 -0.11458799999999997 0.444177
v -0.797168 -0.22805899999999998 0.449634
v -0.66793 -0.372765 -0.014641999999999978
v -0.936324 -0.247611 -0.014641999999999985
v -1.074142 -0.183345 -0.01464199999999999
v -1.033642 0.810821 -0.01464200000000005
v -0.862897 0.691535 0.727934
v -1.090259 0.20395600000000005 0.727934
v -1.203941 -0.039832999999999966 0.602553
v -1.235726 -0.107997 -0.014641999999999994
v -1.269558 0.304898 -0.01464200000000002
v -1.090206 0.512437 0.707631
v -1.461879 0.699399 -0.014642000000000044
v -1.108087 -0.241601 -0.014641999999999985
v -0.827013 -0.372669 -0.014641999999999978
v -0.800982 -0.24206799999999998 0.307353
v 0.100956 0.391225 -0.004004000000000024
v -0.333892 -0.14934699999999998 0.615088
v -0.106531 0.33823200000000003 0.615088
v -0.237303 -0.334174 -0.004003999999999979
v 1.068021 1.326417 0.46634499999999995
v 1.111617 1.483963 -0.00994200000000009
v 1.499907 1.158151 -0.00994200000000007
v 0.49122 1.326607 -0.009942000000000081
v 1.352324 1.087858 0.46634499999999995
v 1.119994 0.797059 0.545083
v 1.216467 0.801351 -0.009942000000000048
v 0.821982 1.04712 0.5450829999999999
v -0.559664 -0.046726999999999956 0.724193
v -0.333892 -0.14934699999999998 0.615088
v -0.106531 0.33823200000000003 0.615088
v -1.223163 -0.04821799999999996 0.613191
v -0.634663 -0.3226399999999999 0.613191
v 1.119994 0.797059 0.545083
v 1.499907 1.158151 -0.00994200000000007
v 1.499907 1.158151 -0.00994200000000007
v 1.119994 0.797059 0.545083
v -0.801559 -0.24330699999999997 0.460272
v 1.352324 1.087858 0.46634499999999995
v 1.216467 0.801351 -0.009942000000000048
v -0.801559 -0.24330699999999997 0.460272
v -0.540666 -1.402468 0.7703970000000001
v -1.058828 -1.294141 0.7495200000000001
v 0.072178 0.591104 0.33976499999999993
v 0.315911 0.72385 -0.004004000000000044
v -0.070496 0.644771 0.613191
v -0.210731 -0.520948 -0.004003999999999968
v -0.419827 -0.341469 0.277394
v -0.634663 -0.3226399999999999 0.613191
v -0.751859 0.962496 0.6131909999999999
v -0.070496 0.644771 0.613191
v -0.321916 0.45438900000000004 0.736087
v -0.557568 -0.05096799999999996 0.736087
v -0.634663 -0.3226399999999999 0.613191
v -0.869684 0.709817 0.738572
v -1.105336 0.20446100000000006 0.738572
v -1.223163 -0.04821799999999996 0.613191
v 0.195924 0.10353100000000004 0.594712
v 0.167434 0.359519 -0.004004000000000021
v -0.170824 -0.36588 -0.004003999999999977
v 0.025176 -0.21876599999999996 0.594712
v -0.125428 0.2585200000000001 0.605562
v 0.112065 0.385339 -0.004004000000000023
v -0.226194 -0.34006 -0.004003999999999979
v -0.281702 -0.07661199999999996 0.605562
v 1.119994 0.797059 0.545083
v 0.821982 1.04712 0.5450829999999999
v -0.636144 -0.30460099999999996 0.602553
v -0.091824 0.628777 0.602553
v -0.800982 -0.24206799999999998 0.307353
v -0.835082 -0.315195 -0.004003999999999981
v 1.499907 1.158151 -0.00994200000000007
v 1.111617 1.483963 -0.00994200000000009
v 0.821982 1.04712 0.5450829999999999
v 0.49122 1.326607 -0.009942000000000081
v 1.014298 0.19561300000000004 0.533122
v 1.391225 -0.08486999999999996 0.567972
v -0.495394 -0.877903 0.75833
v -0.537897 -1.404856 0.8427040000000001
v -1.061953 -1.295297 0.8537220000000001
v -0.537897 -1.404856 0.8427040000000001
v -0.537897 -1.404856 0.8427040000000001
v -0.925692 -0.849078 0.784369
v -1.061953 -1.295297 0.8537220000000001
v -1.061953 -1.295297 0.8537220000000001
v -0.321391 -0.16172499999999998 0.625726
v -0.210731 -0.520948 -0.004003999999999968
v -0.751859 0.962496 0.6131909999999999
v -1.490506 0.717969 -0.004004000000000044
v -1.105281 0.52419 0.71827
v -1.088632 -0.196962 -0.004003999999999988
v -1.123815 -0.257343 -0.004003999999999984
v -1.055402 -0.12569799999999998 0.454816
v -0.832492 -0.393189 -0.0040039999999999755
v -0.801559 -0.24330699999999997 0.460272
v -0.832492 -0.393189 -0.0040039999999999755
v 1.352324 1.087858 0.47505699999999995
v 1.499907 1.158151 -0.00994200000000007
v 1.499907 1.158151 -0.00994200000000007
v 1.068021 1.326417 0.47505699999999995
v -0.149635 0.73872 -0.014642000000000046
v -0.334399 0.44509200000000004 0.725449
v -0.149635 0.73872 -0.014642000000000046
v -0.106531 0.33823200000000003 0.615088
v -0.334399 0.44509200000000004 0.725449
v -0.188622 -0.34632 -0.01464199999999998
v -0.333892 -0.14934699999999998 0.615088
v -0.636144 -0.30460099999999996 0.602553
v -0.149635 0.73872 -0.014642000000000046
v -0.636144 -0.30460099999999996 0.602553
v -0.66793 -0.372765 -0.014641999999999978
v -1.042081 -0.11458799999999997 0.444177
v -1.108087 -0.241601 -0.014641999999999985
v -1.074142 -0.183345 -0.01464199999999999
v -0.827013 -0.372669 -0.014641999999999978
v -0.797168 -0.22805899999999998 0.449634
v -0.827013 -0.372669 -0.014641999999999978
v 1.068021 1.326417 0.46634499999999995
v 1.111617 1.483963 -0.00994200000000009
v -1.461879 0.699399 -0.014642000000000044
v -0.749217 0.935324 0.6025529999999999
vt 0.736818 0.865997
vt 0.809703 0.865997
vt 0.809703 0.969589
vt 0.736818 0.990726
vt 0.809703 0.990726
vt 0.743781 0.497466
vt 0.669085 0.497468
vt 0.743781 0.655493
vt 0.693827 0.655494
vt 0.827173 0.673348
vt 0.827173 0.826206
vt 0.748239 0.673348
vt 0.748239 0.826206
vt 0.748239 0.642659
vt 0.734286 0.826206
vt 0.837411 0.673348
vt 0.543756 0.723957
vt 0.664076 0.723957
vt 0.212270 0.744837
vt 0.335131 0.723957
vt 0.676729 0.623235
vt 0.707438 0.723957
vt 0.713163 0.482773
vt 0.161303 0.724660
vt 0.203814 0.623235
vt 0.315443 0.481301
vt 0.049261 0.524104
vt 0.232543 0.405563
vt 0.433132 0.481130
vt 0.150251 0.405563
vt 0.540597 0.481445
vt 0.639583 0.723957
vt 0.713545 0.273868
vt 0.315375 0.284526
vt 0.239988 0.723957
vt 0.151878 0.326056
vt 0.232388 0.325628
vt 0.543369 0.534478
vt 0.654293 0.534478
vt 0.102945 0.326056
vt 0.484471 0.310647
vt 0.389984 0.723957
vt 0.496131 0.723957
vt 0.489011 0.466490
vt 0.443433 0.497488
vt 0.443433 0.723957
vt 0.780469 0.040089
vt 0.733632 0.039550
vt 0.776145 0.093907
vt 0.730432 0.093989
vt 0.776814 0.093767
vt 0.489227 0.310652
vt 0.484224 0.466485
vt 0.772527 0.039669
vt 0.819363 0.039817
vt 0.181189 0.721657
vt 0.147012 0.524104
vt 0.232183 0.524104
vt 0.698692 0.181209
vt 0.766924 0.221306
vt 0.591734 0.221306
vt 0.659669 0.181209
vt 0.302163 0.524104
vt 0.772019 0.430781
vt 0.239988 0.534478
vt 0.387980 0.481196
vt 0.271311 0.723957
vt 0.312553 0.723957
vt 0.308334 0.578251
vt 0.265459 0.723957
vt 0.308118 0.723957
vt 0.266982 0.578251
vt 0.284839 0.723957
vt 0.813083 0.592341
vt 0.752650 0.592342
vt 0.752650 0.450060
vt 0.808065 0.450059
vt 0.621840 0.838826
vt 0.677167 0.838826
vt 0.364565 0.166743
vt 0.370518 0.050832
vt 0.343807 0.149374
vt 0.394865 0.050832
vt 0.434924 0.050619
vt 0.414709 0.050832
vt 0.469642 0.149374
vt 0.563389 0.261018
vt 0.412245 0.166742
vt 0.412438 0.261020
vt 0.529383 0.239239
vt 0.549958 0.239238
vt 0.563389 0.166740
vt 0.541073 0.166740
vt 0.529490 0.166740
vt 0.435941 0.166742
vt 0.435942 0.279425
vt 0.488757 0.279424
vt 0.516050 0.261019
vt 0.516049 0.166741
vt 0.488756 0.166741
vt 0.462162 0.279425
vt 0.462162 0.166742
vt 0.527283 0.166741
vt 0.550715 0.166740
vt 0.269090 0.623235
vt 0.818037 0.629105
vt 0.849916 0.528529
vt 0.835549 0.528529
vt 0.880711 0.629105
vt 0.264198 0.177949
vt 0.621840 0.989960
vt 0.677167 0.989960
vt 0.558737 0.989960
vt 0.295948 0.177683
vt 0.677167 0.735018
vt 0.732515 0.989960
vt 0.621840 0.735018
vt 0.822526 0.093989
vt 0.435001 0.090392
vt 0.394056 0.090392
vt 0.335131 0.534478
vt 0.239988 0.534478
vt 0.327715 0.177683
vt 0.295948 0.264425
vt 0.295948 0.264425
vt 0.327715 0.177683
vt 0.266982 0.578251
vt 0.295948 0.177683
vt 0.327715 0.264425
vt 0.266982 0.578251
vt 0.827173 0.642659
vt 0.734286 0.673348
vt 0.072021 0.405563
vt 0.008346 0.435016
vt 0.102945 0.326056
vt 0.311525 0.501539
vt 0.297002 0.433500
vt 0.276545 0.325681
vt 0.585739 0.481792
vt 0.586155 0.253969
vt 0.541071 0.298291
vt 0.432918 0.297974
vt 0.387912 0.284422
vt 0.496131 0.497488
vt 0.389984 0.497488
vt 0.335131 0.534478
vt 0.698692 0.257008
vt 0.766924 0.234616
vt 0.591734 0.234616
vt 0.659669 0.257008
vt 0.794727 0.430780
vt 0.822405 0.271813
vt 0.723345 0.271814
vt 0.749314 0.430781
vt 0.732515 0.838826
vt 0.558737 0.838826
vt 0.456895 0.050645
vt 0.357246 0.261021
vt 0.548909 0.216856
vt 0.547804 0.166740
vt 0.295948 0.264425
vt 0.264194 0.264425
vt 0.228100 0.177949
vt 0.227976 0.264425
vt 0.736818 0.990726
vt 0.809703 0.969589
vt 0.827173 0.826206
vt 0.827173 0.673348
vt 0.748239 0.673348
vt 0.827173 0.673348
vt 0.827173 0.673348
vt 0.748239 0.826206
vt 0.748239 0.673348
vt 0.748239 0.673348
vt 0.232543 0.405563
vt 0.311525 0.501539
vt 0.543369 0.534478
vt 0.443433 0.723957
vt 0.443433 0.497488
vt 0.308118 0.723957
vt 0.312553 0.723957
vt 0.308334 0.578251
vt 0.265459 0.723957
vt 0.266982 0.578251
vt 0.265459 0.723957
vt 0.677167 0.838826
vt 0.677167 0.989960
vt 0.677167 0.989960
vt 0.621840 0.838826
vt 0.364565 0.166743
vt 0.394865 0.050832
vt 0.364565 0.166743
vt 0.394056 0.090392
vt 0.394865 0.050832
vt 0.469642 0.149374
vt 0.435001 0.090392
vt 0.563389 0.261018
vt 0.364565 0.166743
vt 0.563389 0.261018
vt 0.563389 0.166740
vt 0.529383 0.239239
vt 0.527283 0.166741
vt 0.529490 0.166740
vt 0.550715 0.166740
vt 0.549958 0.239238
vt 0.550715 0.166740
vt 0.264198 0.177949
vt 0.264194 0.264425
vt 0.462162 0.166742
vt 0.412438 0.261020
vn 0.256445 0.14178000000000004 0.956104
vn 0.06682 0.048994000000000065 0.996562
vn 0.353514 0.567467 0.743646
vn 0.321315 0.39659200000000006 0.859926
vn 0.596982 0.802255 -4.9123950892497995E-17
vn -0.02108 0.06933800000000005 0.997371
vn -0.018969 0.06942100000000005 0.997407
vn -0.02319 0.06925400000000005 0.997329
vn -0.02108 0.06933800000000005 0.997371
vn 0.26409 -0.655526 0.70749
vn 0.747316 0.04586200000000004 0.662884
vn -0.903419 -0.11443599999999997 0.413205
vn -0.376473 0.2622070000000001 0.888547
vn -0.632635 -0.773827 -0.03105599999999995
vn -0.957245 0.288996 -0.012775000000000017
vn 0.595681 -0.801707 -0.04929499999999995
vn 0.118844 0.985734 0.11917899999999994
vn 0.149897 0.954234 0.25878299999999993
vn -0.109982 -0.688709 0.716648
vn -0.908427 -0.407085 0.09508900000000003
vn 0.750326 0.41314300000000004 0.516066
vn 0.597903 0.507966 0.620066
vn 0.305924 0.656057 0.689927
vn 0.28869 -0.810014 0.510427
vn 0.042425 -0.8469 0.530057
vn 0 6.123233995736766E-17 1
vn 0.713128 -0.674215 0.19204800000000002
vn 0.232002 -0.583376 0.778362
vn -0.713283 -0.19957499999999997 0.671861
vn 0.517307 0.15268500000000004 0.84207
vn -0.167932 0.674273 0.719134
vn 0.4454 0.883323 0.14614599999999994
vn 0.305924 0.656057 0.689927
vn 0 6.123233995736766E-17 1
vn -0.298862 -0.895712 0.32921200000000006
vn 0.409744 0.14066100000000006 0.90129
vn 0.006645 -0.539475 0.841975
vn -0.054199 0.773087 0.63198
vn 0.674548 0.686076 0.27255199999999996
vn 0.265333 0.569009 0.778349
vn -0.14762 -0.31318799999999997 0.938148
vn -0.96983 -0.04805699999999999 0.238999
vn -0.565453 0.783981 0.25619499999999995
vn 0.140782 0.30859100000000006 0.940719
vn -0.835803 0.392599 0.383797
vn -0.782463 0.3539820000000001 0.512297
vn 0.27293 0.584758 -0.763916
vn -0.271877 -0.590492 -0.75987
vn -0.274318 -0.58082 -0.766419
vn -0.273102 -0.585666 -0.763158
vn 0.271984 0.588631 -0.761274
vn 0.143714 0.31112900000000004 0.939439
vn -0.146674 -0.31346999999999997 0.938202
vn -0.273102 -0.585666 -0.763158
vn 0.271984 0.588631 -0.761274
vn 0.180194 -0.828753 0.52981
vn 0.301018 -0.16738699999999995 0.938813
vn 0.207945 -0.08659899999999994 0.974299
vn 0.027826 -0.980564 -0.19421899999999995
vn 0.723842 -0.675296 0.14152200000000004
vn 0.942342 0.329807 -0.05672800000000002
vn 0.94125 0.332601 -0.05852400000000002
vn 0.947497 0.31461 -0.05718700000000002
vn 0.876029 -0.408498 0.256323
vn 0.037898 -0.705463 0.707733
vn -0.542016 -0.4679229999999999 0.698045
vn -0.125321 0.968803 -0.21381200000000006
vn -0.005524 -0.98056 0.19614200000000007
vn -0.129727 -0.979701 0.15283300000000005
vn -0.912521 -0.359446 0.19520500000000002
vn 0.302659 -0.944887 0.12484000000000006
vn -0.420387 -0.903455 0.08393200000000006
vn -0.416947 -0.893125 0.16877000000000006
vn -0.305924 -0.656057 -0.689927
vn -0.305924 -0.656057 -0.689927
vn -0.305924 -0.656057 -0.689927
vn -0.305924 -0.656057 -0.689927
vn -0.004662 0.743466 0.668757
vn 0.608609 0.31133500000000003 0.729839
vn -0.829778 -0.502897 -0.24199599999999996
vn -0.814339 -0.579761 -0.026998999999999964
vn -0.762149 -0.568644 -0.30947199999999997
vn -0.767049 0.17011399999999996 -0.618625
vn -0.299572 0.30283199999999993 -0.904737
vn -0.350026 0.16294799999999995 -0.922458
vn -0.241502 0.940587 -0.23868900000000007
vn 0.061782 0.940658 -0.33368400000000004
vn 0.181888 -0.970829 -0.15623299999999996
vn 0.344216 -0.934986 -0.08553399999999994
vn 0.040322 0.989268 -0.14044000000000006
vn 0.515718 0.848248 -0.12046000000000005
vn 0.160637 0.970083 -0.18203000000000005
vn 0.416992 0.89424 -0.16264200000000006
vn -0.0126 0.989039 -0.14711600000000005
vn 0.457622 -0.839529 -0.29287099999999994
vn 0.700399 -0.691599 -0.17644499999999994
vn 0.955036 -0.15643400000000002 -0.251864
vn 0.739274 0.657752 -0.14434800000000003
vn 0.908686 0.407267 -0.09177700000000003
vn 0.971709 0.048280999999999984 -0.231196
vn 0.839965 -0.394768 -0.372313
vn 0.789514 -0.35754800000000003 -0.498826
vn 0.005893 0.981839 -0.18962400000000004
vn 0.881984 0.425162 -0.20332700000000004
vn -0.059801 0.970029 -0.23551600000000006
vn -0.875509 0.408257 -0.258479
vn -0.875509 0.408257 -0.258479
vn -0.875509 0.408257 -0.258479
vn -0.875509 0.408257 -0.258479
vn -0.218811 -0.920253 -0.32443099999999997
vn 0.987389 0.127031 -0.09448200000000001
vn 0.440955 -0.897489 -0.008560999999999944
vn -0.560423 0.742073 0.36776899999999996
vn -0.613576 -0.731229 -0.2980419999999999
vn 0.712834 -0.4521839999999999 0.536094
vn 0.776343 -0.616722 0.13017300000000004
vn 0.312806 -0.29212899999999997 0.903777
vn 0.27103 0.592491 -0.758615
vn -0.358128 0.42761499999999997 -0.829994
vn -0.583297 -0.27573300000000006 -0.764026
vn -0.422602 -0.906272 -0.008936999999999945
vn -0.422602 -0.906272 -0.008936999999999945
vn -0.791881 0.589793 -0.15832800000000002
vn -0.791881 0.589793 -0.15832800000000002
vn -0.776343 0.616722 -0.13017300000000004
vn -0.776343 0.616722 -0.13017300000000004
vn -0.422602 -0.906272 -0.008936999999999945
vn -0.791881 0.589793 -0.15832800000000002
vn -0.776343 0.616722 -0.13017300000000004
vn -0.672078 -0.714844 0.19315700000000005
vn 0.595681 -0.801707 -0.04929499999999995
vn -0.632635 -0.773827 -0.03105599999999995
vn 0.750326 0.41314300000000004 0.516066
vn 0.597903 0.507966 0.620066
vn 0.674548 0.686076 0.27255199999999996
vn 0.28869 -0.810014 0.510427
vn 0.042425 -0.8469 0.530057
vn 0.037898 -0.705463 0.707733
vn -0.054199 0.773087 0.63198
vn 0.265333 0.569009 0.778349
vn 0.409744 0.14066100000000006 0.90129
vn 0.006645 -0.539475 0.841975
vn 0.037898 -0.705463 0.707733
vn -0.167932 0.674273 0.719134
vn -0.713283 -0.19957499999999997 0.671861
vn -0.542016 -0.4679229999999999 0.698045
vn 0.301018 -0.16738699999999995 0.938813
vn 0.713128 -0.674215 0.19204800000000002
vn 0.947497 0.31461 -0.05718700000000002
vn 0.207945 -0.08659899999999994 0.974299
vn 0.027826 -0.980564 -0.19421899999999995
vn 0.723842 -0.675296 0.14152200000000004
vn 0.942342 0.329807 -0.05672800000000002
vn 0.94125 0.332601 -0.05852400000000002
vn 0.712834 -0.4521839999999999 0.536094
vn 0.312806 -0.29212899999999997 0.903777
vn 0.061782 0.940658 -0.33368400000000004
vn -0.814339 -0.579761 -0.026998999999999964
vn -0.059801 0.970029 -0.23551600000000006
vn -0.125321 0.968803 -0.21381200000000006
vn 0.440955 -0.897489 -0.008560999999999944
vn 0.987389 0.127031 -0.09448200000000001
vn 0.312806 -0.29212899999999997 0.903777
vn -0.560423 0.742073 0.36776899999999996
vn 0.321315 0.39659200000000006 0.859926
vn 0.353514 0.567467 0.743646
vn 0.747316 0.04586200000000004 0.662884
vn 0.26409 -0.655526 0.70749
vn -0.903419 -0.11443599999999997 0.413205
vn 0.26409 -0.655526 0.70749
vn 0.26409 -0.655526 0.70749
vn -0.376473 0.2622070000000001 0.888547
vn -0.903419 -0.11443599999999997 0.413205
vn -0.903419 -0.11443599999999997 0.413205
vn 0.232002 -0.583376 0.778362
vn 0.28869 -0.810014 0.510427
vn -0.054199 0.773087 0.63198
vn -0.782463 0.3539820000000001 0.512297
vn -0.835803 0.392599 0.383797
vn 0.302659 -0.944887 0.12484000000000006
vn -0.005524 -0.98056 0.19614200000000007
vn -0.129727 -0.979701 0.15283300000000005
vn -0.912521 -0.359446 0.19520500000000002
vn -0.672078 -0.714844 0.19315700000000005
vn -0.912521 -0.359446 0.19520500000000002
vn 0.608609 0.31133500000000003 0.729839
vn 0.440955 -0.897489 -0.008560999999999944
vn 0.440955 -0.897489 -0.008560999999999944
vn -0.004662 0.743466 0.668757
vn -0.829778 -0.502897 -0.24199599999999996
vn -0.767049 0.17011399999999996 -0.618625
vn -0.829778 -0.502897 -0.24199599999999996
vn -0.583297 -0.27573300000000006 -0.764026
vn -0.767049 0.17011399999999996 -0.618625
vn -0.241502 0.940587 -0.23868900000000007
vn -0.358128 0.42761499999999997 -0.829994
vn 0.061782 0.940658 -0.33368400000000004
vn -0.829778 -0.502897 -0.24199599999999996
vn 0.061782 0.940658 -0.33368400000000004
vn 0.160637 0.970083 -0.18203000000000005
vn 0.040322 0.989268 -0.14044000000000006
vn 0.005893 0.981839 -0.18962400000000004
vn -0.0126 0.989039 -0.14711600000000005
vn 0.881984 0.425162 -0.20332700000000004
vn 0.515718 0.848248 -0.12046000000000005
vn 0.881984 0.425162 -0.20332700000000004
vn -0.218811 -0.920253 -0.32443099999999997
vn 0.987389 0.127031 -0.09448200000000001
vn 0.789514 -0.35754800000000003 -0.498826
vn 0.344216 -0.934986 -0.08553399999999994
g 01
f 88/88/88 210/210/210 96/96/96
f 101/101/101 209/209/209 95/95/95
f 163/163/163 164/164/164 162/162/162
f 208/208/208 207/207/207 163/163/163
f 125/125/125 129/129/129 126/126/126
f 123/123/123 128/128/128 124/124/124
f 110/110/110 162/162/162 161/161/161
f 161/161/161 114/114/114 110/110/110
f 109/109/109 107/107/107 108/108/108
f 108/108/108 106/106/106 109/109/109
f 206/206/206 160/160/160 159/159/159
f 159/159/159 205/205/205 204/204/204
f 203/203/203 202/202/202 201/201/201
f 103/103/103 99/99/99 98/98/98
f 98/98/98 90/90/90 103/103/103
f 200/200/200 104/104/104 91/91/91
f 91/91/91 199/199/199 200/200/200
f 91/91/91 90/90/90 98/98/98
f 98/98/98 199/199/199 91/91/91
f 119/119/119 85/85/85 120/120/120
f 100/100/100 102/102/102 101/101/101
f 101/101/101 97/97/97 100/100/100
f 101/101/101 95/95/95 96/96/96
f 98/98/98 99/99/99 100/100/100
f 100/100/100 97/97/97 98/98/98
f 88/88/88 96/96/96 95/95/95
f 91/91/91 93/93/93 94/94/94
f 94/94/94 90/90/90 91/91/91
f 158/158/158 89/89/89 88/88/88
f 88/88/88 198/198/198 158/158/158
f 157/157/157 84/84/84 119/119/119
f 197/197/197 196/196/196 195/195/195
f 86/86/86 92/92/92 87/87/87
f 85/85/85 194/194/194 120/120/120
f 84/84/84 85/85/85 119/119/119
f 82/82/82 193/193/193 192/192/192
f 120/120/120 191/191/191 190/190/190
f 83/83/83 81/81/81 80/80/80
f 78/78/78 111/111/111 113/113/113
f 113/113/113 156/156/156 189/189/189
f 155/155/155 116/116/116 188/188/188
f 187/187/187 186/186/186 155/155/155
f 79/79/79 112/112/112 111/111/111
f 111/111/111 78/78/78 79/79/79
f 117/117/117 115/115/115 79/79/79
f 79/79/79 78/78/78 117/117/117
f 77/77/77 74/74/74 75/75/75
f 75/75/75 76/76/76 77/77/77
f 185/185/185 184/184/184 105/105/105
f 105/105/105 67/67/67 183/183/183
f 182/182/182 181/181/181 180/180/180
f 146/146/146 20/20/20 68/68/68
f 68/68/68 69/69/69 146/146/146
f 35/35/35 65/65/65 130/130/130
f 130/130/130 70/70/70 35/35/35
f 146/146/146 69/69/69 72/72/72
f 127/127/127 122/122/122 121/121/121
f 154/154/154 152/152/152 64/64/64
f 154/154/154 153/153/153 152/152/152
f 152/152/152 151/151/151 64/64/64
f 149/149/149 61/61/61 62/62/62
f 59/59/59 60/60/60 148/148/148
f 62/62/62 150/150/150 149/149/149
f 148/148/148 147/147/147 59/59/59
f 58/58/58 28/28/28 63/63/63
f 57/57/57 27/27/27 30/30/30
f 25/25/25 19/19/19 56/56/56
f 52/52/52 44/44/44 53/53/53
f 53/53/53 41/41/41 52/52/52
f 54/54/54 49/49/49 50/50/50
f 50/50/50 48/48/48 54/54/54
f 51/51/51 47/47/47 55/55/55
f 55/55/55 118/118/118 51/51/51
f 42/42/42 145/145/145 45/45/45
f 179/179/179 178/178/178 42/42/42
f 43/43/43 46/46/46 45/45/45
f 45/45/45 144/144/144 43/43/43
f 42/42/42 20/20/20 146/146/146
f 146/146/146 145/145/145 42/42/42
f 38/38/38 17/17/17 43/43/43
f 43/43/43 144/144/144 177/177/177
f 66/66/66 26/26/26 34/34/34
f 34/34/34 143/143/143 66/66/66
f 140/140/140 33/33/33 23/23/23
f 23/23/23 139/139/139 140/140/140
f 142/142/142 29/29/29 66/66/66
f 66/66/66 143/143/143 142/142/142
f 31/31/31 44/44/44 52/52/52
f 52/52/52 141/141/141 31/31/31
f 53/53/53 29/29/29 142/142/142
f 142/142/142 41/41/41 53/53/53
f 73/73/73 72/72/72 69/69/69
f 69/69/69 71/71/71 73/73/73
f 139/139/139 31/31/31 141/141/141
f 141/141/141 140/140/140 139/139/139
f 17/17/17 38/38/38 39/39/39
f 39/39/39 32/32/32 17/17/17
f 37/37/37 138/138/138 137/137/137
f 137/137/137 28/28/28 37/37/37
f 28/28/28 137/137/137 176/176/176
f 136/136/136 63/63/63 175/175/175
f 36/36/36 37/37/37 28/28/28
f 28/28/28 30/30/30 36/36/36
f 30/30/30 28/28/28 58/58/58
f 58/58/58 57/57/57 30/30/30
f 35/35/35 19/19/19 25/25/25
f 25/25/25 65/65/65 35/35/35
f 25/25/25 56/56/56 24/24/24
f 30/30/30 133/133/133 36/36/36
f 133/133/133 135/135/135 36/36/36
f 135/135/135 40/40/40 36/36/36
f 133/133/133 30/30/30 27/27/27
f 27/27/27 134/134/134 133/133/133
f 22/22/22 18/18/18 21/21/21
f 21/21/21 18/18/18 32/32/32
f 32/32/32 39/39/39 21/21/21
f 15/15/15 132/132/132 174/174/174
f 173/173/173 172/172/172 15/15/15
f 14/14/14 131/131/131 171/171/171
f 170/170/170 169/169/169 14/14/14
f 168/168/168 16/16/16 167/167/167
f 10/10/10 11/11/11 13/13/13
f 13/13/13 12/12/12 10/10/10
f 9/9/9 7/7/7 6/6/6
f 6/6/6 8/8/8 9/9/9
f 1/1/1 2/2/2 4/4/4
f 2/2/2 166/166/166 165/165/165
f 3/3/3 5/5/5 4/4/4
