v -1.102579 -1.312434 0.26688000000000006
v -1.102579 -1.312434 0.24417200000000008
v -1.405584 -0.996293 0.2718070000000001
v -1.405584 -0.996293 0.24909800000000007
v -1.102579 -1.312434 0.08577400000000009
v -1.102579 -1.312434 0.06306500000000008
v -1.405584 -0.996293 0.07662800000000006
v -1.405584 -0.996293 0.053919000000000064
v -1.130956 -1.265717 0.34229300000000007
v -1.104729 -1.273152 0.34229300000000007
v -1.130776 -1.26604 -0.0034689999999999222
v -1.10455 -1.273474 -0.003468999999999922
v -0.769397 -1.38179 0.2515010000000001
v -0.769397 -1.38179 0.22879300000000008
v -1.157107 -1.27211 0.2436560000000001
v -1.157107 -1.27211 0.2209480000000001
v -0.769397 -1.38179 0.060947000000000084
v -0.769397 -1.38179 0.038238000000000084
v -1.157107 -1.27211 0.06388900000000008
v -1.157107 -1.27211 0.04118000000000008
v -0.82982 -1.351082 0.28072600000000003
v -0.803594 -1.358517 0.28072600000000003
v -0.82964 -1.351404 -0.003468999999999917
v -0.803414 -1.358839 -0.0034689999999999166
v 0.770345 0.571416 0.846936
v 0.129856 0.37499200000000005 0.846863
v 0.82849 0.581735 -3.5620995285099273E-17
v 0.071982 0.364853 -2.2340802930465462E-17
v 0.307796 -0.972518 5.954955279065928E-17
v 1.078582 -0.836608 5.1227465467053446E-17
v 1.011498 -0.80218 0.839166
v 0.354664 -0.896542 0.846863
v 1.353098 1.242802 0.09160499999999994
v 1.215884 1.196072 0.09160499999999994
v 1.266172 1.286783 0.16043799999999991
v 1.214791 1.304734 0.13003299999999993
v 1.275362 1.335545 0.13003299999999993
v 1.372405 1.207072 -7.391184305701969E-17
v 1.235492 1.174727 -7.193128302109865E-17
v 1.168405 1.288072 -7.887166259356648E-17
v 1.231021 1.361262 -8.335325755504621E-17
v 1.285074 1.368056 -8.376927007271657E-17
v 1.38189 1.257064 -7.697297019616842E-17
v 0.952592 -0.759483 0.839617
v 0.395994 -0.839446 0.846729
v 0.179759 0.38373500000000005 0.846417
v 0.125485 0.374287 -2.291846882562327E-17
v 0.811239 0.04600400000000005 0.786529
v 0.952284 -0.759378 0.779081
v 0.395686 -0.839341 0.786192
v 0.256275 -0.05185099999999995 0.78588
v -1.408891 0.03222700000000005 0.761887
v -0.894094 -0.3282379999999999 0.761814
v -1.488444 0.015931 -9.754924078608241E-19
v -0.882428 -0.408405 2.500759380028874E-17
v -0.124243 0.731249 -0.005047000000000045
v -0.695329 1.149782 0.0017769999999999295
v -0.686289 1.062273 0.7546089999999999
v -0.189202 0.696376 0.762314
v 1.370382 0.09799900000000004 0.69677
v 1.24573 0.196788 0.019251999999999988
v 1.350969 0.08378900000000004 0.693449
v 1.22448 0.181245 0.017194999999999988
v 0.774502 0.5139790000000001 1.083371
v 0.759874 0.536965 0.759267
v 0.761001 0.5034740000000001 1.081962
v 0.745931 0.526229 0.757998
v -0.281843 0.6726050000000001 0.937995
v -0.226597 0.678202 0.710208
v -0.294899 0.6618310000000001 0.93518
v -0.240003 0.667086 0.707246
v 0.043325 0.35899000000000003 1.132928
v 0.023049 0.36857700000000004 1.134137
v 0.052238 0.396994 -0.006054000000000025
v 0.07433 0.386263 -0.006844000000000024
v 0.719553 0.562432 0.847001
v 0.776808 0.572622 -3.506298497106778E-17
v 0.872269 -0.00791 -0.004543999999999999
v 0.198827 -0.112293 -0.005193999999999993
v 0.836153 0.004330000000000046 0.752345
v 0.256115 -0.09883899999999995 0.751538
v -1.251252 -1.13706 0.28072600000000003
v -1.232399 -1.156749 0.28072600000000003
v -1.251259 -1.137429 -0.00346899999999993
v -1.232407 -1.157118 -0.003468999999999929
v -0.974292 -1.309839 0.42382600000000004
v -0.948065 -1.317273 0.42382600000000004
v -0.974112 -1.310161 -0.0034689999999999196
v -0.947886 -1.317595 -0.003468999999999919
v 0.699009 -1.393208 0.3655130000000001
v 0.699009 -1.463896 0.3655130000000001
v 0.625908 -1.393208 -0.0022969999999999146
v 0.625908 -1.463896 -0.0022969999999999102
v 1.413594 -0.21005799999999997 0.347806
v 1.337207 -0.20420899999999997 0.347806
v 1.337207 -0.101732 -0.002296999999999994
v 1.413594 -0.107581 -0.0022969999999999935
v 1.145144 -1.32919 0.46079000000000003
v 1.16415 -1.397587 0.4607900000000001
v 1.16415 -1.397587 -0.0022969999999999146
v 1.145144 -1.32919 -0.0022969999999999185
v 1.331693 -1.177469 0.39900700000000006
v 1.262209 -1.166391 0.39900700000000006
v 1.262209 -1.166391 -0.0022969999999999284
v 1.331693 -1.177469 -0.002296999999999928
v 0.854658 -0.024249 -0.003790999999999999
v 0.952361 -0.759505 0.741156
v 0.827486 -0.029148999999999956 0.7453
v 0.21413 -0.127154 0.00012800000000000777
v 0.391106 -0.840282 0.767531
v 0.263529 -0.11861399999999996 0.767346
v 0.017732 1.368562 0.28427999999999987
v -1.147415 1.37656 0.37955699999999987
v -1.172251 1.443061 0.37955699999999987
v 0.011632 1.438986 0.28427999999999987
v 0.09056 1.374869 -0.002297000000000084
v 0.08446 1.445294 -0.0022970000000000885
v -1.172251 1.443061 -0.0022970000000000885
v -1.147415 1.37656 -0.002297000000000084
v -1.346893 0.970231 0.26657299999999995
v -1.33805 0.868136 -0.0022970000000000533
v -1.414657 0.867372 -0.002297000000000053
v -1.4235 0.969467 0.26657299999999995
v -1.324624 1.237333 0.31777399999999995
v -1.394804 1.242373 0.31777399999999995
v -1.324624 1.237333 -0.002297000000000076
v -1.394804 1.242373 -0.002297000000000076
v -0.744422 1.036336 0.7406129999999999
v -0.746807 1.025268 0.7549159999999999
v -0.763841 1.021795 0.7493879999999999
v -0.705686 0.941445 0.6766379999999999
v -0.720736 0.930174 0.6834399999999999
v -0.707534 0.932866 0.6877239999999999
v 0.863304 1.161004 0.8436429999999999
v 0.767527 0.994973 -0.01392100000000006
v 0.876507 1.14227 0.8456609999999999
v 0.782121 0.974498 -0.011436000000000059
v 1.247146 1.368562 0.28427999999999987
v 0.905756 1.37656 0.37955699999999987
v 0.88092 1.443061 0.37955699999999987
v 1.241046 1.438986 0.28427999999999987
v 1.319974 1.374869 -0.002297000000000084
v 1.313874 1.445294 -0.0022970000000000885
v 0.769171 1.443061 -0.0022970000000000885
v 0.794008 1.37656 -0.002297000000000084
v 0.488955 -1.020383 0.11070600000000007
v 0.554381 -1.057731 0.11067600000000007
v 0.516369 -1.123096 0.10929100000000007
v 0.450944 -1.085749 0.10932100000000007
v 0.492392 -1.037273 -0.007041999999999936
v 0.53614 -1.062488 -0.007043999999999935
v 0.504132 -1.071723 0.25669300000000006
v 0.510858 -1.106229 -0.007150999999999933
v 0.46711 -1.081015 -0.007148999999999934
v -0.336842 -0.468274 2.8673512761196383E-17
v -0.190404 -0.603268 3.6939511261401275E-17
v -0.190404 -0.603268 0.13254800000000003
v -0.336842 -0.468274 0.13254800000000003
v -0.239313 -0.714346 0.13264500000000007
v -0.239313 -0.714346 4.374107711918576E-17
v -0.385751 -0.591971 3.624776951690289E-17
v -0.385751 -0.591971 0.13264500000000004
v -0.347023 -0.449092 0.13556700000000002
v -0.170013 -0.604447 0.13556700000000002
v -0.229133 -0.733528 0.13566300000000006
v -0.406143 -0.590793 0.13566300000000003
v 0.66175 -0.93366 0.13876600000000006
v 0.699782 -1.014188 0.13874500000000006
v 0.618652 -1.051712 0.13778400000000005
v 0.580618 -0.971183 0.13780500000000007
v 0.650343 -0.962002 -0.01567899999999994
v 0.669538 -1.003086 -0.01568199999999994
v 0.641235 -0.993392 0.37269900000000006
v 0.628407 -1.022241 -0.015789999999999936
v 0.609213 -0.981157 -0.01578699999999994
v -0.236247 -0.468771 2.870394523415519E-17
v -0.236247 -0.468771 0.13254800000000003
v -0.339909 -0.713848 4.3710583413886995E-17
v -0.339909 -0.713848 0.13264500000000007
v -0.225426 -0.449693 0.13556700000000002
v -0.350729 -0.732928 0.13566300000000006
v -1.198222 -0.240742 0.023857000000000014
v -1.101219 -0.304831 0.024669000000000017
v -1.159667 -0.19273199999999996 0.30459
v -1.067843 -0.253381 0.305434
v -1.338684 -0.179651 0.032890000000000016
v -1.287667 -0.28354 0.023014000000000017
v -1.17566 -0.25814 0.260633
v -1.223978 -0.15981199999999998 0.269916
v -0.076932 0.751922 0.03134499999999995
v -0.169497 0.822273 0.03142699999999995
v -0.213411 0.766561 0.30991899999999994
v -0.125786 0.699985 0.30976599999999993
v -0.028198 0.2453 0.046164999999999984
v 0.006424 0.134744 0.03767899999999999
v 0.127499 0.14809800000000004 0.271807
v 0.094697 0.252738 0.279776
v 1.139567 0.312066 0.02690399999999998
v 1.228842 0.237772 0.021643999999999986
v 1.412951 0.457866 0.005754999999999972
v 1.3284 0.528129 0.010735999999999968
v 1.007651 0.552684 0.010494999999999966
v 1.03807 0.449324 0.053904999999999974
v 1.294144 0.511504 0.05759099999999997
v 1.265283 0.60932 -0.0017800000000000372
v 0.098156 -0.17007 0.11303400000000001
v -0.027488 -0.147915 0.11303400000000001
v -0.005073 -0.020793999999999993 0.113034
v 0.120571 -0.04294799999999999 0.113034
v 0.019535 -0.056378 -0.012240999999999997
v 0.085277 -0.06797 -0.012240999999999997
v 0.073549 -0.134486 -0.012240999999999991
v 0.007806 -0.122893 -0.012240999999999993
v 0.058248 -0.09617699999999998 0.241183
v 0.058248 -0.096177 0.10588
v 0.033604 -0.09198 0.10588
v 0.033604 -0.09197999999999999 0.241183
v 0.045856 -0.09584799999999997 0.400501
v 0.131584 -0.11096399999999998 0.216671
v 0.057971 -0.182052 0.216671
v -0.032385 -0.134009 0.216671
v -0.014615 -0.03322899999999999 0.216671
v 0.086724 -0.018985999999999986 0.216671
v -0.623924 -0.435446 0.347778
v -0.784742 -0.508987 0.38992200000000005
v -0.799967 -0.452166 0.389922
v -0.85427 -0.500207 0.3478840000000001
v -0.807352 -0.261873 0.347778
v -0.808665 -0.438703 0.389922
v -0.867251 -0.432953 0.389922
v -0.849265 -0.496387 0.3478840000000001
v -0.716888 -0.690726 0.34777800000000003
v -0.840997 -0.564759 0.38992200000000005
v -0.79281 -0.531019 0.38992200000000005
v -0.996922 -0.675856 0.34777800000000003
v -0.90737 -0.523373 0.38992200000000005
v -0.862307 -0.561185 0.38992200000000005
v -0.844345 -0.494349 0.34777800000000003
v -1.012002 -0.334918 0.347778
v -0.909502 -0.479015 0.38992200000000005
v -0.795159 -0.573355 0.12227600000000004
v -0.920803 -0.551201 0.12227600000000002
v -0.898388 -0.424079 0.12227600000000002
v -0.772745 -0.446233 0.12227600000000002
v -0.873781 -0.459663 -0.0029989999999999717
v -0.808038 -0.471255 -0.002998999999999971
v -0.819767 -0.537771 -0.002998999999999967
v -0.88551 -0.526179 -0.002998999999999968
v -0.830376 -0.500261 0.11512200000000003
v -0.864405 -0.494466 0.11512200000000003
v -0.830376 -0.500261 0.3486250000000001
v -0.858343 -0.494938 0.3479900000000001
v 0.267654 0.341146 0.019765999999999978
v 0.155344 0.37075 0.025025999999999975
v 0.341498 0.618426 0.003876999999999962
v 0.235174 0.646374 0.00885799999999996
v 0.00535 0.452253 0.05202699999999997
v -0.065901 0.533074 0.008616999999999967
v 0.211153 0.616829 0.055712999999999964
v 0.143657 0.693283 -0.0036580000000000423
v 1.345441 -1.313596 0.18576700000000007
v 1.410049 -1.405865 0.18576700000000007
v 1.317782 -1.470473 0.18576700000000007
v 1.253173 -1.378204 0.18576700000000007
v 1.39687 -1.405359 -0.004382999999999914
v 1.319739 -1.459368 -0.00438299999999991
v 1.265731 -1.382235 -0.004382999999999915
v 1.342862 -1.328228 -0.004382999999999918
v -1.355383 -1.029517 0.35746200000000006
v -1.33653 -1.049207 0.35746200000000006
v -1.355391 -1.029886 -0.003468999999999937
v -1.336538 -1.049575 -0.0034689999999999357
v -1.465376 1.399344 0.8378699999999999
v -1.446997 1.414439 0.8426209999999998
v -1.390812 1.359244 0.012028999999999916
v -1.411269 1.342953 0.00825899999999992
v -1.52464 0.636939 0.852901
v -1.439671 0.668867 0.02353599999999996
v -1.542791 0.622423 0.845965
v -1.459927 0.653059 0.01737699999999996
v 0.122963 1.148578 1.225109
v 0.167531 1.024342 -0.014401000000000063
v 0.141068 1.133139 1.223984
v 0.187929 1.007853 -0.014735000000000062
v -0.511888 1.155122 0.14898399999999992
v -0.597934 1.132162 0.14896299999999996
v -0.620287 1.21871 0.1480019999999999
v -0.534239 1.241671 0.1480229999999999
v -0.537722 1.171431 -0.005461000000000072
v -0.581584 1.159922 -0.005463000000000071
v -0.566968 1.186026 0.38291699999999995
v -0.593045 1.203823 -0.005572000000000073
v -0.549183 1.215331 -0.005569000000000075
v -0.45747 1.043584 -0.007023000000000064
v -0.485112 1.06425 0.25669299999999995
v -0.507783 1.039489 -0.007096000000000063
v -0.511907 1.089862 -0.007174000000000067
v -0.461599 1.093952 -0.007093000000000067
v -0.000253 -0.749966 0.34777800000000003
v 0.139224 -0.85867 0.38992200000000005
v 0.095849 -0.898408 0.38992200000000005
v -0.069544 -0.992808 0.34777800000000003
v 0.087922 -0.912339 0.38992200000000005
v 0.109868 -0.966962 0.38992200000000005
v 0.269112 -0.714579 0.34777800000000003
v 0.214667 -0.882824 0.38992200000000005
v 0.162492 -0.855656 0.38992200000000005
v 0.159516 -0.927662 0.3479900000000001
v 0.3852 -0.969852 0.34777800000000003
v 0.208597 -0.960808 0.38992200000000005
v 0.221335 -0.903378 0.38992200000000005
v 0.089729 -1.140624 0.34777800000000003
v 0.170232 -0.983176 0.38992200000000005
v 0.201131 -0.838196 0.12227600000000005
v 0.239483 -0.959877 0.12227600000000005
v 0.11637 -0.99868 0.12227600000000005
v 0.078019 -0.876999 0.12227600000000005
v 0.136575 -0.960424 -0.002998999999999941
v 0.116508 -0.896755 -0.002998999999999945
v 0.180927 -0.876451 -0.002998999999999946
v 0.200994 -0.940121 -0.0029989999999999423
v 0.141343 -0.924701 0.11512200000000006
v 0.152551 -0.903179 0.11512200000000006
v 0.174326 -0.914517 0.11512200000000006
v 0.161507 -0.913049 0.34806000000000004
v 0.141343 -0.924701 0.3486250000000001
v 1.36638 0.636854 0.3477779999999999
v 1.22173 0.738572 0.38992199999999994
v 1.263099 0.780393 0.38992199999999994
v 1.194731 0.80432 0.34788399999999997
v 1.423653 0.882808 0.3477779999999999
v 1.270332 0.794697 0.38992199999999994
v 1.200043 0.800634 0.34788399999999997
v 1.09908 0.588272 0.3477779999999999
v 1.14519 0.758989 0.38992199999999994
v 1.198638 0.734419 0.38992199999999994
v 0.970586 0.837531 0.3477779999999999
v 1.147421 0.837177 0.38992199999999994
v 1.13752 0.779191 0.38992199999999994
v 1.204286 0.797416 0.3477779999999999
v 1.257308 1.022618 0.3477779999999999
v 1.245728 0.848176 0.38992199999999994
v 1.184639 0.861404 0.38992199999999994
v 1.160903 0.71508 0.12227599999999995
v 1.116618 0.834729 0.12227599999999994
v 1.237675 0.879536 0.12227599999999994
v 1.28196 0.759887 0.12227599999999995
v 1.219374 0.840333 -0.0029990000000000515
v 1.242546 0.777727 -0.0029990000000000476
v 1.179203 0.754282 -0.002999000000000046
v 1.156031 0.816889 -0.00299900000000005
v 1.216367 0.804419 0.11512199999999995
v 1.183926 0.792627 0.11512199999999996
v 1.216367 0.804419 0.34862499999999996
v 1.187315 0.793445 0.34820199999999996
v -0.305015 0.920832 0.11303399999999994
v -0.353475 1.038853 0.11303399999999993
v -0.234066 1.087882 0.11303399999999993
v -0.185607 0.969861 0.11303399999999994
v -0.250979 1.048061 -0.012241000000000064
v -0.225622 0.986308 -0.01224100000000006
v -0.288103 0.960653 -0.012241000000000059
v -0.313459 1.022407 -0.012241000000000063
v -0.257137 1.010281 0.24118299999999995
v -0.257137 1.010281 0.10587999999999995
v -0.280316 1.000921 0.10587999999999995
v -0.280316 1.000921 0.24118299999999995
v -0.270259 1.004714 0.40050099999999994
v -0.237195 0.924187 0.21667099999999995
v -0.336628 0.948383 0.21667099999999995
v -0.344342 1.050427 0.21667099999999995
v -0.249676 1.089297 0.21667099999999995
v -0.183456 1.011276 0.21667099999999995
v -1.273373 0.37391300000000005 0.729455
v -1.272689 0.36159700000000006 0.742894
v -1.278504 0.34870300000000004 0.731373
v -1.159293 0.34591600000000006 0.701176
v -1.16327 0.32637700000000003 0.702663
v -1.158763 0.33637000000000006 0.711592
v 1.172835 0.739069 0.843692
v 1.01286 0.682564 -0.013804000000000042
v 1.174751 0.716131 0.845578
v 1.015057 0.65735 -0.011652000000000039
v 0.136789 1.140577 1.198781
v -0.078508 1.407018 0.2821749999999999
v -0.087157 1.401632 0.2818889999999999
v -0.087481 1.411752 0.28622399999999987
v 0.874215 1.154871 0.8023819999999999
v 1.214425 1.395991 0.2821749999999999
v 1.209315 1.404805 0.2818889999999999
v 1.21944 1.40481 0.28622399999999987
v -1.436089 0.295421 0.14840099999999998
v -1.494521 0.305724 0.14840099999999998
v -1.484218 0.364157 0.14840099999999998
v -1.425786 0.353854 0.14840099999999998
v -1.429228 0.283407 -0.0071370000000000175
v -1.505079 0.296781 -0.007137000000000018
v -1.491704 0.372632 -0.007137000000000023
v -1.415853 0.359258 -0.007137000000000022
v -0.867251 -0.432953 0.389922
v 0.109868 -0.966962 0.38992200000000005
v 0.154476 -0.91604 0.34791900000000003
v 0.161962 -0.920066 0.34791900000000003
v 1.195344 0.792755 0.34798999999999997
v 1.245728 0.848176 0.38992199999999994
v 1.200955 0.805985 0.34788399999999997
v -0.845191 -0.501657 0.34777800000000003
v -0.853424 -0.492899 0.3478840000000001
v 0.154932 -0.923058 0.34777800000000003
v 0.161507 -0.913049 0.34806000000000004
v 0.161507 -0.913049 0.34806000000000004
v 0.388325 -1.206301 0.27357700000000007
v 0.3828 -1.202497 0.40833800000000003
v 0.349272 -1.290657 0.30139000000000005
v 0.354775 -1.294475 0.16814500000000007
v 0.361794 -1.29705 0.30125500000000005
v 0.395322 -1.208891 0.40820200000000006
v 0.466099 -0.986818 0.6909400000000001
v 0.275017 -1.504339 -0.010788999999999908
v 0.284649 -1.50766 -0.011075999999999909
v -1.405584 -0.996293 0.24909800000000007
v -1.102579 -1.312434 0.24417200000000008
v -1.102579 -1.312434 0.26688000000000006
v -1.405584 -0.996293 0.2718070000000001
v -1.405584 -0.996293 0.053919000000000064
v -1.102579 -1.312434 0.06306500000000008
v -1.102579 -1.312434 0.08577400000000009
v -1.405584 -0.996293 0.07662800000000006
v -1.10455 -1.273474 -0.003468999999999922
v -1.104729 -1.273152 0.34229300000000007
v -1.130956 -1.265717 0.34229300000000007
v -1.130776 -1.26604 -0.0034689999999999222
v -1.157107 -1.27211 0.2209480000000001
v -0.769397 -1.38179 0.22879300000000008
v -0.769397 -1.38179 0.2515010000000001
v -1.157107 -1.27211 0.2436560000000001
v -1.157107 -1.27211 0.04118000000000008
v -0.769397 -1.38179 0.038238000000000084
v -0.769397 -1.38179 0.060947000000000084
v -1.157107 -1.27211 0.06388900000000008
v -0.803414 -1.358839 -0.0034689999999999166
v -0.803594 -1.358517 0.28072600000000003
v -0.82982 -1.351082 0.28072600000000003
v -0.82964 -1.351404 -0.003468999999999917
v 1.266172 1.286783 0.16043799999999991
v 1.275362 1.335545 0.13003299999999993
v 1.285074 1.368056 -8.376927007271657E-17
v 0.354664 -0.896542 0.846863
v 0.307796 -0.972518 5.954955279065928E-17
v 1.011498 -0.80218 0.839166
v 0.719553 0.562432 0.847001
v 1.011498 -0.80218 0.839166
v 1.011498 -0.80218 0.839166
v 0.354664 -0.896542 0.846863
v 0.395994 -0.839446 0.846729
v 0.952592 -0.759483 0.839617
v 1.011498 -0.80218 0.839166
v 0.354664 -0.896542 0.846863
v 0.129856 0.37499200000000005 0.846863
v 0.179759 0.38373500000000005 0.846417
v 0.395994 -0.839446 0.846729
v 0.354664 -0.896542 0.846863
v 0.952592 -0.759483 0.839617
v 0.395994 -0.839446 0.846729
v 0.395686 -0.839341 0.786192
v 0.952284 -0.759378 0.779081
v 0.395994 -0.839446 0.846729
v 0.179759 0.38373500000000005 0.846417
v 0.179759 0.38373500000000005 0.846417
v 0.263529 -0.11861399999999996 0.767346
v 0.770345 0.571416 0.846936
v 0.719553 0.562432 0.847001
v 0.129856 0.37499200000000005 0.846863
v 0.071982 0.364853 -2.2340802930465462E-17
v 0.125485 0.374287 -2.291846882562327E-17
v 0.125485 0.374287 -2.291846882562327E-17
v 0.179759 0.38373500000000005 0.846417
v 0.129856 0.37499200000000005 0.846863
v -1.408891 0.03222700000000005 0.761887
v -0.894094 -0.3282379999999999 0.761814
v -0.882428 -0.408405 2.500759380028874E-17
v -0.894094 -0.3282379999999999 0.761814
v -0.189202 0.696376 0.762314
v -1.488444 0.015931 -9.754924078608241E-19
v -0.686289 1.062273 0.7546089999999999
v -1.408891 0.03222700000000005 0.761887
v 1.24573 0.196788 0.019251999999999988
v 1.22448 0.181245 0.017194999999999988
v 1.350969 0.08378900000000004 0.693449
v 1.370382 0.09799900000000004 0.69677
v 0.759874 0.536965 0.759267
v 0.745931 0.526229 0.757998
v 0.761001 0.5034740000000001 1.081962
v 0.774502 0.5139790000000001 1.083371
v -0.226597 0.678202 0.710208
v -0.240003 0.667086 0.707246
v -0.294899 0.6618310000000001 0.93518
v -0.281843 0.6726050000000001 0.937995
v 0.043325 0.35899000000000003 1.132928
v 0.07433 0.386263 -0.006844000000000024
v 0.052238 0.396994 -0.006054000000000025
v 0.023049 0.36857700000000004 1.134137
v 0.952592 -0.759483 0.839617
v 0.719553 0.562432 0.847001
v 0.952592 -0.759483 0.839617
v 0.827486 -0.029148999999999956 0.7453
v 0.776808 0.572622 -3.506298497106778E-17
v 0.719553 0.562432 0.847001
v 0.827486 -0.029148999999999956 0.7453
v 0.776808 0.572622 -3.506298497106778E-17
v 0.827486 -0.029148999999999956 0.7453
v 0.198827 -0.112293 -0.005193999999999993
v 0.836153 0.004330000000000046 0.752345
v -1.232407 -1.157118 -0.003468999999999929
v -1.232399 -1.156749 0.28072600000000003
v -1.251252 -1.13706 0.28072600000000003
v -1.251259 -1.137429 -0.00346899999999993
v -0.947886 -1.317595 -0.003468999999999919
v -0.948065 -1.317273 0.42382600000000004
v -0.974292 -1.309839 0.42382600000000004
v -0.974112 -1.310161 -0.0034689999999999196
v 0.699009 -1.393208 0.3655130000000001
v 1.145144 -1.32919 0.46079000000000003
v 1.16415 -1.397587 0.4607900000000001
v 0.699009 -1.463896 0.3655130000000001
v 0.625908 -1.393208 -0.0022969999999999146
v 0.699009 -1.393208 0.3655130000000001
v 1.331693 -1.177469 0.39900700000000006
v 1.262209 -1.166391 0.39900700000000006
v 0.625908 -1.463896 -0.0022969999999999102
v 0.699009 -1.463896 0.3655130000000001
v 1.337207 -0.20420899999999997 0.347806
v 1.413594 -0.21005799999999997 0.347806
v 1.337207 -0.101732 -0.002296999999999994
v 1.337207 -0.20420899999999997 0.347806
v 1.413594 -0.21005799999999997 0.347806
v 1.413594 -0.107581 -0.0022969999999999935
v -0.686289 1.062273 0.7546089999999999
v -0.695329 1.149782 0.0017769999999999295
v -0.124243 0.731249 -0.005047000000000045
v -0.189202 0.696376 0.762314
v 0.017732 1.368562 0.28427999999999987
v -1.147415 1.37656 0.37955699999999987
v -1.172251 1.443061 0.37955699999999987
v 0.011632 1.438986 0.28427999999999987
v 0.09056 1.374869 -0.002297000000000084
v 0.017732 1.368562 0.28427999999999987
v -1.394804 1.242373 0.31777399999999995
v -1.324624 1.237333 0.31777399999999995
v 0.08446 1.445294 -0.0022970000000000885
v 0.011632 1.438986 0.28427999999999987
v -1.346893 0.970231 0.26657299999999995
v -1.4235 0.969467 0.26657299999999995
v -1.33805 0.868136 -0.0022970000000000533
v -1.346893 0.970231 0.26657299999999995
v -1.4235 0.969467 0.26657299999999995
v -1.414657 0.867372 -0.002297000000000053
v -0.707534 0.932866 0.6877239999999999
v -0.746807 1.025268 0.7549159999999999
v 0.782121 0.974498 -0.011436000000000059
v 0.767527 0.994973 -0.01392100000000006
v 0.863304 1.161004 0.8436429999999999
v 0.876507 1.14227 0.8456609999999999
v 1.247146 1.368562 0.28427999999999987
v 0.905756 1.37656 0.37955699999999987
v 1.319974 1.374869 -0.002297000000000084
v 1.313874 1.445294 -0.0022970000000000885
v 1.241046 1.438986 0.28427999999999987
v 0.88092 1.443061 0.37955699999999987
v 0.794008 1.37656 -0.002297000000000084
v 0.769171 1.443061 -0.0022970000000000885
v 0.510858 -1.106229 -0.007150999999999933
v 0.516369 -1.123096 0.10929100000000007
v 0.504132 -1.071723 0.25669300000000006
v 0.504132 -1.071723 0.25669300000000006
v 0.504132 -1.071723 0.25669300000000006
v 0.628407 -1.022241 -0.015789999999999936
v 0.618652 -1.051712 0.13778400000000005
v 0.641235 -0.993392 0.37269900000000006
v 0.641235 -0.993392 0.37269900000000006
v 0.641235 -0.993392 0.37269900000000006
v -0.236247 -0.468771 0.13254800000000003
v -0.236247 -0.468771 2.870394523415519E-17
v 0.120571 -0.04294799999999999 0.113034
v -0.005073 -0.020793999999999993 0.113034
v 0.085277 -0.06797 -0.012240999999999997
v -0.027488 -0.147915 0.11303400000000001
v 0.033604 -0.09198 0.10588
v 0.033604 -0.09197999999999999 0.241183
v 0.045856 -0.09584799999999997 0.400501
v -0.032385 -0.134009 0.216671
v -0.772745 -0.446233 0.12227600000000002
v -0.795159 -0.573355 0.12227600000000004
v -0.920803 -0.551201 0.12227600000000002
v -0.88551 -0.526179 -0.002998999999999968
v -0.864405 -0.494466 0.11512200000000003
v -0.858343 -0.494938 0.3479900000000001
v 1.011498 -0.80218 0.839166
v 0.770345 0.571416 0.846936
v 0.82849 0.581735 -3.5620995285099273E-17
v 1.078582 -0.836608 5.1227465467053446E-17
v 1.317782 -1.470473 0.18576700000000007
v 1.410049 -1.405865 0.18576700000000007
v 1.253173 -1.378204 0.18576700000000007
v 1.265731 -1.382235 -0.004382999999999915
v 1.345441 -1.313596 0.18576700000000007
v 1.253173 -1.378204 0.18576700000000007
v 1.39687 -1.405359 -0.004382999999999914
v 1.410049 -1.405865 0.18576700000000007
v 1.345441 -1.313596 0.18576700000000007
v 1.342862 -1.328228 -0.004382999999999918
v -1.336538 -1.049575 -0.0034689999999999357
v -1.33653 -1.049207 0.35746200000000006
v -1.355383 -1.029517 0.35746200000000006
v -1.355391 -1.029886 -0.003468999999999937
v -1.390812 1.359244 0.012028999999999916
v -1.411269 1.342953 0.00825899999999992
v -1.465376 1.399344 0.8378699999999999
v -1.446997 1.414439 0.8426209999999998
v -1.439671 0.668867 0.02353599999999996
v -1.459927 0.653059 0.01737699999999996
v -1.542791 0.622423 0.845965
v -1.52464 0.636939 0.852901
v 0.187929 1.007853 -0.014735000000000062
v 0.167531 1.024342 -0.014401000000000063
v 0.122963 1.148578 1.225109
v 0.141068 1.133139 1.223984
v -0.593045 1.203823 -0.005572000000000073
v -0.620287 1.21871 0.1480019999999999
v -0.566968 1.186026 0.38291699999999995
v -0.566968 1.186026 0.38291699999999995
v -0.566968 1.186026 0.38291699999999995
v -0.485112 1.06425 0.25669299999999995
v -0.485112 1.06425 0.25669299999999995
v -0.511907 1.089862 -0.007174000000000067
v -0.485112 1.06425 0.25669299999999995
v 0.078019 -0.876999 0.12227600000000005
v 0.201131 -0.838196 0.12227600000000005
v 0.239483 -0.959877 0.12227600000000005
v 0.200994 -0.940121 -0.0029989999999999423
v 0.141343 -0.924701 0.11512200000000006
v 0.141343 -0.924701 0.3486250000000001
v 1.28196 0.759887 0.12227599999999995
v 1.160903 0.71508 0.12227599999999995
v 1.116618 0.834729 0.12227599999999994
v 1.156031 0.816889 -0.00299900000000005
v 1.216367 0.804419 0.11512199999999995
v 1.216367 0.804419 0.34862499999999996
v -0.185607 0.969861 0.11303399999999994
v -0.234066 1.087882 0.11303399999999993
v -0.225622 0.986308 -0.01224100000000006
v -0.353475 1.038853 0.11303399999999993
v -0.280316 1.000921 0.24118299999999995
v -0.280316 1.000921 0.10587999999999995
v -0.270259 1.004714 0.40050099999999994
v -0.344342 1.050427 0.21667099999999995
v -1.158763 0.33637000000000006 0.711592
v -1.272689 0.36159700000000006 0.742894
v 1.015057 0.65735 -0.011652000000000039
v 1.01286 0.682564 -0.013804000000000042
v 1.172835 0.739069 0.843692
v 1.174751 0.716131 0.845578
v 0.136789 1.140577 1.198781
v -0.087157 1.401632 0.2818889999999999
v 0.136789 1.140577 1.198781
v -0.087481 1.411752 0.28622399999999987
v -0.078508 1.407018 0.2821749999999999
v 0.874215 1.154871 0.8023819999999999
v 1.209315 1.404805 0.2818889999999999
v 0.874215 1.154871 0.8023819999999999
v 1.21944 1.40481 0.28622399999999987
v 1.214425 1.395991 0.2821749999999999
v -1.436089 0.295421 0.14840099999999998
v -1.425786 0.353854 0.14840099999999998
v -1.494521 0.305724 0.14840099999999998
v -1.436089 0.295421 0.14840099999999998
v -1.484218 0.364157 0.14840099999999998
v -1.494521 0.305724 0.14840099999999998
v -1.415853 0.359258 -0.007137000000000022
v -1.425786 0.353854 0.14840099999999998
v -1.484218 0.364157 0.14840099999999998
v 0.388325 -1.206301 0.27357700000000007
v 0.354775 -1.294475 0.16814500000000007
v 1.235492 1.174727 -7.193128302109865E-17
v 0.88092 1.443061 0.37955699999999987
v 0.88092 1.443061 0.37955699999999987
v 0.905756 1.37656 0.37955699999999987
v 0.53614 -1.062488 -0.007043999999999935
v 0.554381 -1.057731 0.11067600000000007
v 0.53614 -1.062488 -0.007043999999999935
v 0.450944 -1.085749 0.10932100000000007
v 0.46711 -1.081015 -0.007148999999999934
v 0.492392 -1.037273 -0.007041999999999936
v 0.492392 -1.037273 -0.007041999999999936
v 0.488955 -1.020383 0.11070600000000007
v 0.450944 -1.085749 0.10932100000000007
v 0.554381 -1.057731 0.11067600000000007
v 0.450944 -1.085749 0.10932100000000007
v 0.488955 -1.020383 0.11070600000000007
v 0.669538 -1.003086 -0.01568199999999994
v 0.699782 -1.014188 0.13874500000000006
v 0.669538 -1.003086 -0.01568199999999994
v 0.650343 -0.962002 -0.01567899999999994
v 0.66175 -0.93366 0.13876600000000006
v 0.580618 -0.971183 0.13780500000000007
v 0.580618 -0.971183 0.13780500000000007
v 0.609213 -0.981157 -0.01578699999999994
v 0.650343 -0.962002 -0.01567899999999994
v 0.699782 -1.014188 0.13874500000000006
v 0.580618 -0.971183 0.13780500000000007
v 0.66175 -0.93366 0.13876600000000006
v 0.098156 -0.17007 0.11303400000000001
v 0.120571 -0.04294799999999999 0.113034
v 0.098156 -0.17007 0.11303400000000001
v 0.098156 -0.17007 0.11303400000000001
v 0.073549 -0.134486 -0.012240999999999991
v 0.073549 -0.134486 -0.012240999999999991
v -0.005073 -0.020793999999999993 0.113034
v -0.027488 -0.147915 0.11303400000000001
v 0.007806 -0.122893 -0.012240999999999993
v 0.007806 -0.122893 -0.012240999999999993
v 0.019535 -0.056378 -0.012240999999999997
v -0.005073 -0.020793999999999993 0.113034
v 0.058248 -0.09617699999999998 0.241183
v 0.058248 -0.09617699999999998 0.241183
v 0.058248 -0.096177 0.10588
v 0.045856 -0.09584799999999997 0.400501
v 0.086724 -0.018985999999999986 0.216671
v 0.131584 -0.11096399999999998 0.216671
v -0.898388 -0.424079 0.12227600000000002
v -0.772745 -0.446233 0.12227600000000002
v -0.808038 -0.471255 -0.002998999999999971
v -0.808038 -0.471255 -0.002998999999999971
v -0.795159 -0.573355 0.12227600000000004
v -0.819767 -0.537771 -0.002998999999999967
v -0.819767 -0.537771 -0.002998999999999967
v -0.898388 -0.424079 0.12227600000000002
v -0.920803 -0.551201 0.12227600000000002
v -0.873781 -0.459663 -0.0029989999999999717
v -0.898388 -0.424079 0.12227600000000002
v -0.830376 -0.500261 0.3486250000000001
v -0.830376 -0.500261 0.3486250000000001
v -0.830376 -0.500261 0.11512200000000003
v 1.319739 -1.459368 -0.00438299999999991
v 1.317782 -1.470473 0.18576700000000007
v 1.319739 -1.459368 -0.00438299999999991
v -0.581584 1.159922 -0.005463000000000071
v -0.597934 1.132162 0.14896299999999996
v -0.581584 1.159922 -0.005463000000000071
v -0.537722 1.171431 -0.005461000000000072
v -0.511888 1.155122 0.14898399999999992
v -0.534239 1.241671 0.1480229999999999
v -0.534239 1.241671 0.1480229999999999
v -0.549183 1.215331 -0.005569000000000075
v -0.537722 1.171431 -0.005461000000000072
v -0.597934 1.132162 0.14896299999999996
v -0.534239 1.241671 0.1480229999999999
v -0.511888 1.155122 0.14898399999999992
v -0.45747 1.043584 -0.007023000000000064
v -0.507783 1.039489 -0.007096000000000063
v -0.461599 1.093952 -0.007093000000000067
v 0.11637 -0.99868 0.12227600000000005
v 0.078019 -0.876999 0.12227600000000005
v 0.116508 -0.896755 -0.002998999999999945
v 0.116508 -0.896755 -0.002998999999999945
v 0.201131 -0.838196 0.12227600000000005
v 0.180927 -0.876451 -0.002998999999999946
v 0.180927 -0.876451 -0.002998999999999946
v 0.11637 -0.99868 0.12227600000000005
v 0.239483 -0.959877 0.12227600000000005
v 0.136575 -0.960424 -0.002998999999999941
v 0.11637 -0.99868 0.12227600000000005
v 1.237675 0.879536 0.12227599999999994
v 1.28196 0.759887 0.12227599999999995
v 1.242546 0.777727 -0.0029990000000000476
v 1.242546 0.777727 -0.0029990000000000476
v 1.160903 0.71508 0.12227599999999995
v 1.179203 0.754282 -0.002999000000000046
v 1.179203 0.754282 -0.002999000000000046
v 1.237675 0.879536 0.12227599999999994
v 1.116618 0.834729 0.12227599999999994
v 1.219374 0.840333 -0.0029990000000000515
v 1.237675 0.879536 0.12227599999999994
v 1.187315 0.793445 0.34820199999999996
v 1.187315 0.793445 0.34820199999999996
v 1.183926 0.792627 0.11512199999999996
v -0.305015 0.920832 0.11303399999999994
v -0.185607 0.969861 0.11303399999999994
v -0.305015 0.920832 0.11303399999999994
v -0.305015 0.920832 0.11303399999999994
v -0.288103 0.960653 -0.012241000000000059
v -0.288103 0.960653 -0.012241000000000059
v -0.234066 1.087882 0.11303399999999993
v -0.353475 1.038853 0.11303399999999993
v -0.313459 1.022407 -0.012241000000000063
v -0.313459 1.022407 -0.012241000000000063
v -0.250979 1.048061 -0.012241000000000064
v -0.234066 1.087882 0.11303399999999993
v -0.257137 1.010281 0.10587999999999995
v -0.257137 1.010281 0.24118299999999995
v -0.257137 1.010281 0.10587999999999995
v -0.270259 1.004714 0.40050099999999994
v -0.183456 1.011276 0.21667099999999995
v -0.237195 0.924187 0.21667099999999995
v -1.429228 0.283407 -0.0071370000000000175
v -1.429228 0.283407 -0.0071370000000000175
v -1.505079 0.296781 -0.007137000000000018
v -1.505079 0.296781 -0.007137000000000018
v -1.491704 0.372632 -0.007137000000000023
v -1.491704 0.372632 -0.007137000000000023
v 0.349272 -1.290657 0.30139000000000005
v 0.3828 -1.202497 0.40833800000000003
v 0.395322 -1.208891 0.40820200000000006
v 0.395322 -1.208891 0.40820200000000006
v 0.361794 -1.29705 0.30125500000000005
v 0.349272 -1.290657 0.30139000000000005
vt 0.775906 0.118022
vt 0.775883 0.123266
vt 0.850530 0.118022
vt 0.850507 0.123266
vt 0.912188 0.091120
vt 0.912147 0.086615
vt 0.837571 0.091120
vt 0.837530 0.086615
vt 0.949591 0.071119
vt 0.949593 0.076873
vt 0.978238 0.071119
vt 0.978240 0.076872
vt 0.834087 0.094916
vt 0.834048 0.090244
vt 0.765357 0.094916
vt 0.765318 0.090244
vt 0.861782 0.164841
vt 0.861766 0.170463
vt 0.930521 0.164841
vt 0.930506 0.170463
vt 0.944899 0.090370
vt 0.944899 0.079065
vt 0.916253 0.090370
vt 0.916253 0.079065
vt 0.453282 0.021125
vt 0.515633 0.757587
vt 0.010730 0.993611
vt 0.515633 0.993611
vt 0.323923 0.993611
vt 0.216292 0.993611
vt 0.225659 0.757587
vt 0.317378 0.757587
vt 0.978753 0.205248
vt 0.956973 0.198435
vt 0.971910 0.240030
vt 0.946422 0.224615
vt 0.985175 0.244265
vt 0.981738 0.176186
vt 0.957408 0.168448
vt 0.935414 0.184250
vt 0.927151 0.215815
vt 0.998070 0.227766
vt 0.989454 0.187504
vt 0.669478 0.004572
vt 0.778112 0.004572
vt 0.996468 0.004572
vt 0.717787 0.990054
vt 0.717343 0.300224
vt 0.605700 0.300224
vt 0.605700 0.459178
vt 0.717343 0.459178
vt 0.792307 0.994267
vt 0.792307 0.809980
vt 0.251438 0.746176
vt 0.166815 0.746176
vt 0.003317 0.746176
vt 0.412786 0.746176
vt 0.976789 0.993941
vt 0.974647 0.812995
vt 0.867898 0.056885
vt 0.997528 0.056885
vt 0.867898 0.066202
vt 0.997528 0.066202
vt 0.628668 0.056775
vt 0.662862 0.056775
vt 0.628668 0.066092
vt 0.662862 0.066092
vt 0.628668 0.056775
vt 0.662862 0.056775
vt 0.628668 0.066092
vt 0.662862 0.066092
vt 0.665069 0.057272
vt 0.665069 0.061048
vt 0.864738 0.061048
vt 0.864738 0.057272
vt 0.453348 0.004572
vt 0.003575 0.993611
vt 0.620676 0.986179
vt 0.538186 0.986338
vt 0.616252 0.800757
vt 0.545204 0.800955
vt 0.995635 0.168537
vt 0.995635 0.157360
vt 0.966974 0.168537
vt 0.966974 0.157360
vt 0.944899 0.090370
vt 0.944899 0.079065
vt 0.916253 0.090370
vt 0.916253 0.079065
vt 0.810889 0.723878
vt 0.810889 0.744483
vt 0.502758 0.708809
vt 0.865024 0.744483
vt 0.550863 0.744483
vt 0.550863 0.723878
vt 0.501975 0.723878
vt 0.501975 0.744483
vt 0.743980 0.723878
vt 0.743980 0.744483
vt 0.921905 0.708259
vt 0.562680 0.708809
vt 0.872424 0.596196
vt 0.693441 0.723878
vt 0.595752 0.708968
vt 0.872424 0.708259
vt 0.632194 0.991043
vt 0.529525 0.782998
vt 0.631510 0.781840
vt 0.787807 0.990018
vt 0.887387 0.775701
vt 0.786614 0.775753
vt 0.785642 0.566448
vt 0.621635 0.566448
vt 0.621635 0.586737
vt 0.785642 0.586737
vt 0.520020 0.556484
vt 0.829032 0.586737
vt 0.815588 0.559005
vt 0.651940 0.556484
vt 0.532589 0.566448
vt 0.495732 0.566448
vt 0.495740 0.586737
vt 0.532615 0.586737
vt 0.574344 0.566448
vt 0.775804 0.468974
vt 0.678230 0.556484
vt 0.775804 0.558361
vt 0.931489 0.124421
vt 0.931489 0.102834
vt 0.931489 0.110047
vt 0.905964 0.124421
vt 0.905964 0.110047
vt 0.905964 0.102834
vt 0.590880 0.079377
vt 0.759830 0.079377
vt 0.590880 0.071895
vt 0.759830 0.071895
vt 0.950711 0.423762
vt 0.901732 0.423762
vt 0.901732 0.442881
vt 0.950711 0.442881
vt 0.924877 0.413560
vt 0.990916 0.442881
vt 0.847403 0.412534
vt 0.998322 0.413560
vt 0.815241 0.299027
vt 0.833957 0.299027
vt 0.850891 0.299028
vt 0.796545 0.299027
vt 0.815241 0.326789
vt 0.833957 0.326789
vt 0.824599 0.263109
vt 0.850891 0.326789
vt 0.796545 0.326789
vt 0.091106 0.512412
vt 0.023355 0.512412
vt 0.023355 0.476009
vt 0.091106 0.476009
vt 0.040303 0.475982
vt 0.040303 0.512412
vt 0.072532 0.512412
vt 0.072532 0.475982
vt 0.038084 0.464438
vt 0.026959 0.402542
vt 0.007163 0.404691
vt 0.016648 0.465296
vt 0.812197 0.204253
vt 0.830929 0.204253
vt 0.848244 0.204253
vt 0.793505 0.204253
vt 0.812197 0.255127
vt 0.830929 0.255127
vt 0.821563 0.131913
vt 0.848244 0.255127
vt 0.793505 0.255127
vt 0.105153 0.512412
vt 0.105153 0.476009
vt 0.054350 0.512412
vt 0.054350 0.475982
vt 0.044229 0.432780
vt 0.001018 0.436349
vt 0.696775 0.103817
vt 0.713154 0.103816
vt 0.696776 0.178958
vt 0.713155 0.178957
vt 0.747496 0.110695
vt 0.763957 0.110694
vt 0.763958 0.179792
vt 0.747497 0.179793
vt 0.685821 0.260739
vt 0.669072 0.260739
vt 0.669071 0.185764
vt 0.685821 0.185764
vt 0.738014 0.255160
vt 0.721415 0.255160
vt 0.721415 0.186285
vt 0.738014 0.186285
vt 0.655826 0.280893
vt 0.640121 0.280893
vt 0.640121 0.205564
vt 0.655825 0.205564
vt 0.626417 0.279973
vt 0.610300 0.279973
vt 0.610300 0.210381
vt 0.626417 0.210381
vt 0.745710 0.436244
vt 0.730091 0.436150
vt 0.730091 0.465426
vt 0.745710 0.465679
vt 0.761231 0.377823
vt 0.761231 0.348441
vt 0.761232 0.436244
vt 0.761232 0.407099
vt 0.823867 0.401460
vt 0.840177 0.401459
vt 0.840177 0.409526
vt 0.823867 0.409527
vt 0.774080 0.447494
vt 0.790190 0.429019
vt 0.775627 0.408251
vt 0.763125 0.413188
vt 0.804257 0.393204
vt 0.780539 0.398170
vt 0.795138 0.360828
vt 0.773044 0.354116
vt 0.773044 0.367540
vt 0.763867 0.360828
vt 0.785122 0.370023
vt 0.807216 0.376735
vt 0.807215 0.363311
vt 0.816393 0.370023
vt 0.796570 0.380770
vt 0.774476 0.374059
vt 0.774476 0.387482
vt 0.785708 0.353258
vt 0.807801 0.359969
vt 0.807801 0.346545
vt 0.816978 0.353257
vt 0.795687 0.342213
vt 0.773594 0.348925
vt 0.758559 0.312868
vt 0.743322 0.312868
vt 0.743322 0.342394
vt 0.758559 0.342394
vt 0.727726 0.342395
vt 0.727726 0.371383
vt 0.727727 0.400898
vt 0.727727 0.429879
vt 0.819160 0.424377
vt 0.819160 0.418509
vt 0.846227 0.424376
vt 0.846153 0.419443
vt 0.644699 0.180288
vt 0.660404 0.180288
vt 0.644699 0.104959
vt 0.660403 0.104959
vt 0.614796 0.179131
vt 0.631156 0.179130
vt 0.614796 0.109426
vt 0.631155 0.109425
vt 0.974593 0.718088
vt 0.961730 0.727981
vt 0.966413 0.755157
vt 0.981106 0.745530
vt 0.942766 0.715140
vt 0.926682 0.715140
vt 0.909415 0.715140
vt 0.917496 0.715140
vt 0.995635 0.168537
vt 0.995635 0.157360
vt 0.966974 0.168537
vt 0.966974 0.157360
vt 0.590880 0.084918
vt 0.590880 0.075601
vt 0.759830 0.075601
vt 0.759830 0.084918
vt 0.590880 0.075601
vt 0.759830 0.075601
vt 0.590880 0.084918
vt 0.759830 0.084918
vt 0.665069 0.061048
vt 0.864738 0.061048
vt 0.665069 0.053566
vt 0.864738 0.053566
vt 0.812197 0.204253
vt 0.830929 0.204253
vt 0.848244 0.204253
vt 0.793505 0.204253
vt 0.812197 0.255127
vt 0.830929 0.255127
vt 0.821563 0.131913
vt 0.848244 0.255127
vt 0.793505 0.255127
vt 0.824484 0.326789
vt 0.815249 0.263109
vt 0.843441 0.326789
vt 0.856197 0.327434
vt 0.806014 0.326789
vt 0.795138 0.360828
vt 0.773044 0.354116
vt 0.773044 0.367540
vt 0.785122 0.370023
vt 0.807216 0.376735
vt 0.807215 0.363311
vt 0.796570 0.380770
vt 0.774476 0.374059
vt 0.774476 0.387482
vt 0.765299 0.380771
vt 0.785708 0.353258
vt 0.807801 0.359969
vt 0.807801 0.346545
vt 0.795687 0.342213
vt 0.773594 0.348925
vt 0.758559 0.312868
vt 0.743322 0.312868
vt 0.743322 0.342394
vt 0.758559 0.342394
vt 0.727726 0.342395
vt 0.727726 0.371383
vt 0.727727 0.400898
vt 0.727727 0.429879
vt 0.819160 0.418509
vt 0.819160 0.424377
vt 0.819161 0.430447
vt 0.846227 0.427411
vt 0.846227 0.418509
vt 0.795138 0.360828
vt 0.773044 0.354116
vt 0.773044 0.367540
vt 0.763867 0.360828
vt 0.785122 0.370023
vt 0.807216 0.376735
vt 0.816393 0.370023
vt 0.796570 0.380770
vt 0.774476 0.374059
vt 0.774476 0.387482
vt 0.785708 0.353258
vt 0.807801 0.359969
vt 0.807801 0.346545
vt 0.816978 0.353257
vt 0.795687 0.342213
vt 0.773594 0.335501
vt 0.773594 0.348925
vt 0.758559 0.312868
vt 0.743322 0.312868
vt 0.743322 0.342394
vt 0.758559 0.342394
vt 0.727726 0.342395
vt 0.727726 0.371383
vt 0.727727 0.400898
vt 0.727727 0.429879
vt 0.819160 0.418509
vt 0.819161 0.430447
vt 0.846227 0.418509
vt 0.846227 0.430447
vt 0.745710 0.436244
vt 0.730091 0.436150
vt 0.730091 0.465426
vt 0.745710 0.465679
vt 0.761231 0.377823
vt 0.761231 0.348441
vt 0.761232 0.436244
vt 0.761232 0.407099
vt 0.823867 0.405469
vt 0.840177 0.405469
vt 0.840176 0.397402
vt 0.823867 0.397402
vt 0.774080 0.447494
vt 0.790190 0.429019
vt 0.775627 0.408252
vt 0.763125 0.413188
vt 0.804257 0.393204
vt 0.780539 0.398170
vt 0.931489 0.124421
vt 0.931489 0.102834
vt 0.931489 0.110047
vt 0.905964 0.124421
vt 0.905964 0.110047
vt 0.905964 0.102834
vt 0.590880 0.079377
vt 0.759830 0.079377
vt 0.590880 0.071895
vt 0.759830 0.071895
vt 0.447193 0.078187
vt 0.588701 0.079616
vt 0.588701 0.075840
vt 0.588701 0.072134
vt 0.447193 0.078187
vt 0.588701 0.079616
vt 0.588701 0.075840
vt 0.588701 0.072134
vt 0.978544 0.719633
vt 0.963638 0.719545
vt 0.963679 0.750772
vt 0.978585 0.750859
vt 0.942879 0.715140
vt 0.926180 0.715140
vt 0.908834 0.715140
vt 0.958492 0.715140
vt 0.773594 0.335501
vt 0.773594 0.335501
vt 0.816978 0.353257
vt 0.763867 0.360828
vt 0.764417 0.342213
vt 0.807215 0.363311
vt 0.765299 0.380771
vt 0.764417 0.342213
vt 0.765299 0.380771
vt 0.816393 0.370023
vt 0.764417 0.342213
vt 0.846227 0.427411
vt 0.142080 0.447399
vt 0.126868 0.447399
vt 0.126868 0.496976
vt 0.142080 0.496976
vt 0.124419 0.496976
vt 0.124419 0.447399
vt 0.447193 0.077728
vt 0.588530 0.074156
vt 0.588701 0.075840
vt 0.850530 0.107464
vt 0.775906 0.107464
vt 0.775906 0.118022
vt 0.850530 0.118022
vt 0.837530 0.086615
vt 0.912147 0.086615
vt 0.912147 0.076912
vt 0.837530 0.076912
vt 0.978240 0.076872
vt 0.949593 0.076873
vt 0.949586 0.088380
vt 0.978232 0.088380
vt 0.765318 0.090244
vt 0.834048 0.090244
vt 0.834048 0.080662
vt 0.765318 0.080662
vt 0.930521 0.155027
vt 0.861782 0.155027
vt 0.861782 0.164841
vt 0.930521 0.164841
vt 0.916250 0.096124
vt 0.944897 0.096124
vt 0.944899 0.090370
vt 0.916253 0.090370
vt 0.954381 0.238841
vt 0.943313 0.246055
vt 0.924928 0.230633
vt 0.337989 0.757587
vt 0.327380 0.993611
vt 0.677835 0.021125
vt 0.453348 0.004572
vt 0.677835 0.021125
vt 0.679385 0.021125
vt 0.786203 0.021125
vt 0.778112 0.004572
vt 0.687594 0.004572
vt 0.679385 0.021125
vt 0.788513 0.021125
vt 0.996417 0.021125
vt 0.996468 0.004572
vt 0.796471 0.004572
vt 0.788513 0.021125
vt 0.617089 0.031347
vt 0.538563 0.031347
vt 0.538597 0.046582
vt 0.617122 0.046582
vt 0.887270 0.753583
vt 0.716468 0.753671
vt 0.716468 0.753671
vt 0.786614 0.775753
vt 0.010730 0.757587
vt 0.003575 0.757587
vt 0.518881 0.757587
vt 0.518881 0.993611
vt 0.526101 0.993611
vt 0.526101 0.993611
vt 0.526101 0.757587
vt 0.518881 0.757587
vt 0.240330 0.533636
vt 0.168444 0.533636
vt 0.162456 0.746176
vt 0.151262 0.533636
vt 0.008187 0.533636
vt 0.254458 0.746176
vt 0.400566 0.533636
vt 0.256733 0.533636
vt 0.997528 0.056885
vt 0.997528 0.053179
vt 0.867898 0.053179
vt 0.867898 0.056885
vt 0.662862 0.056775
vt 0.662862 0.053069
vt 0.628668 0.053069
vt 0.628668 0.056775
vt 0.662862 0.056775
vt 0.662862 0.053069
vt 0.628668 0.053069
vt 0.628668 0.056775
vt 0.664980 0.063517
vt 0.864791 0.063251
vt 0.864738 0.061048
vt 0.665069 0.061048
vt 0.529528 0.755500
vt 0.714117 0.753438
vt 0.529528 0.755500
vt 0.631510 0.781840
vt 0.715540 0.989984
vt 0.714117 0.753438
vt 0.631510 0.781840
vt 0.715540 0.989984
vt 0.631510 0.781840
vt 0.538186 0.986338
vt 0.616252 0.800757
vt 0.966974 0.157360
vt 0.995635 0.157360
vt 0.995635 0.146237
vt 0.966974 0.146237
vt 0.916252 0.096124
vt 0.944898 0.096124
vt 0.944899 0.090370
vt 0.916253 0.090370
vt 0.511195 0.623916
vt 0.562680 0.601925
vt 0.921905 0.578914
vt 0.813672 0.744483
vt 0.865024 0.723878
vt 0.813672 0.723878
vt 0.693441 0.744483
vt 0.595752 0.616344
vt 0.997064 0.708259
vt 0.986856 0.605522
vt 0.554317 0.723878
vt 0.554317 0.744483
vt 0.718617 0.708968
vt 0.706790 0.628162
vt 0.737337 0.610494
vt 0.723028 0.708259
vt 0.415727 0.533636
vt 0.414465 0.746176
vt 0.494210 0.746176
vt 0.485140 0.533636
vt 0.527780 0.495407
vt 0.651940 0.475102
vt 0.815588 0.452362
vt 0.789015 0.586737
vt 0.829032 0.566448
vt 0.789015 0.566448
vt 0.574344 0.586737
vt 0.678230 0.488270
vt 0.991072 0.559005
vt 0.980903 0.478971
vt 0.536475 0.566448
vt 0.536475 0.586737
vt 0.717572 0.556484
vt 0.706693 0.499182
vt 0.737696 0.483273
vt 0.723440 0.558361
vt 0.905964 0.131634
vt 0.931489 0.131634
vt 0.759830 0.084918
vt 0.759830 0.079377
vt 0.590880 0.079377
vt 0.590880 0.084918
vt 0.935046 0.333527
vt 0.982717 0.306918
vt 0.990916 0.423762
vt 0.923464 0.412534
vt 0.913295 0.332500
vt 0.863008 0.305891
vt 0.849466 0.423762
vt 0.849466 0.442881
vt 0.779544 0.326789
vt 0.779544 0.299027
vt 0.842424 0.263109
vt 0.788044 0.263109
vt 0.805893 0.263109
vt 0.776150 0.255127
vt 0.776150 0.204253
vt 0.839586 0.131913
vt 0.784828 0.131913
vt 0.802851 0.131913
vt 0.003513 0.476009
vt 0.003513 0.512412
vt 0.745710 0.348669
vt 0.745710 0.377823
vt 0.761232 0.465694
vt 0.745710 0.407100
vt 0.840176 0.393392
vt 0.823867 0.393393
vt 0.802257 0.439904
vt 0.823844 0.410915
vt 0.743322 0.371383
vt 0.743323 0.400897
vt 0.743323 0.429966
vt 0.727726 0.312743
vt 0.819161 0.436174
vt 0.846227 0.436173
vt 0.206947 0.757587
vt 0.014420 0.757587
vt 0.014420 0.993611
vt 0.211754 0.993611
vt 0.926682 0.778668
vt 0.942766 0.778669
vt 0.909415 0.778669
vt 0.934595 0.715140
vt 0.917169 0.777358
vt 0.934595 0.778669
vt 0.919758 0.715140
vt 0.919318 0.778736
vt 0.934761 0.778668
vt 0.934761 0.715140
vt 0.966974 0.157360
vt 0.995635 0.157360
vt 0.995635 0.146237
vt 0.966974 0.146237
vt 0.759830 0.075601
vt 0.759830 0.071895
vt 0.590880 0.071895
vt 0.590880 0.075601
vt 0.759830 0.075601
vt 0.759830 0.071895
vt 0.590880 0.071895
vt 0.590880 0.075601
vt 0.864738 0.066589
vt 0.864738 0.061048
vt 0.665069 0.061048
vt 0.665069 0.066589
vt 0.776150 0.255127
vt 0.776150 0.204253
vt 0.839586 0.131913
vt 0.784828 0.131913
vt 0.802851 0.131913
vt 0.833962 0.263109
vt 0.854175 0.266142
vt 0.787016 0.326789
vt 0.796515 0.263109
vt 0.743322 0.371383
vt 0.743323 0.400897
vt 0.743323 0.429966
vt 0.727726 0.312743
vt 0.819161 0.441718
vt 0.846227 0.441717
vt 0.743322 0.371383
vt 0.743323 0.400897
vt 0.743323 0.429966
vt 0.727726 0.312743
vt 0.819161 0.441718
vt 0.846227 0.441717
vt 0.745710 0.348669
vt 0.745710 0.377823
vt 0.761232 0.465694
vt 0.745710 0.407100
vt 0.823867 0.409526
vt 0.840177 0.409526
vt 0.802257 0.439904
vt 0.823844 0.410915
vt 0.905964 0.131634
vt 0.931489 0.131634
vt 0.759830 0.084918
vt 0.759830 0.079377
vt 0.590880 0.079377
vt 0.590880 0.084918
vt 0.447193 0.078187
vt 0.588701 0.075840
vt 0.447193 0.078187
vt 0.588701 0.085157
vt 0.588701 0.079616
vt 0.447193 0.078187
vt 0.588701 0.075840
vt 0.447193 0.078187
vt 0.588701 0.085157
vt 0.588701 0.079616
vt 0.949609 0.769731
vt 0.958114 0.769731
vt 0.931828 0.769198
vt 0.940925 0.769198
vt 0.915739 0.769731
vt 0.925187 0.769731
vt 0.892089 0.715098
vt 0.899333 0.770154
vt 0.908382 0.770193
vt 0.108912 0.447399
vt 0.108912 0.496976
vt 0.957408 0.168448
vt 0.901732 0.442881
vt 0.901732 0.442881
vt 0.901732 0.423762
vt 0.833957 0.326789
vt 0.833957 0.299027
vt 0.833957 0.326789
vt 0.796545 0.299027
vt 0.796545 0.326789
vt 0.815241 0.326789
vt 0.815241 0.326789
vt 0.815241 0.299027
vt 0.796545 0.299027
vt 0.833957 0.299027
vt 0.796545 0.299027
vt 0.815241 0.299027
vt 0.830929 0.255127
vt 0.830929 0.204253
vt 0.830929 0.255127
vt 0.812197 0.255127
vt 0.812197 0.204253
vt 0.793505 0.204253
vt 0.793505 0.204253
vt 0.793505 0.255127
vt 0.812197 0.255127
vt 0.830929 0.204253
vt 0.793505 0.204253
vt 0.812197 0.204253
vt 0.745710 0.436244
vt 0.745710 0.465679
vt 0.745710 0.436244
vt 0.745710 0.436244
vt 0.761232 0.436244
vt 0.761232 0.436244
vt 0.745710 0.377823
vt 0.745710 0.407100
vt 0.761232 0.407099
vt 0.761232 0.407099
vt 0.761231 0.377823
vt 0.745710 0.377823
vt 0.823867 0.401460
vt 0.823867 0.401460
vt 0.840177 0.401459
vt 0.802257 0.439904
vt 0.780539 0.398170
vt 0.790190 0.429019
vt 0.743322 0.342394
vt 0.743322 0.371383
vt 0.727726 0.371383
vt 0.727726 0.371383
vt 0.743323 0.400897
vt 0.727727 0.400898
vt 0.727727 0.400898
vt 0.743322 0.342394
vt 0.743322 0.312868
vt 0.727726 0.342395
vt 0.743322 0.342394
vt 0.846227 0.424376
vt 0.846227 0.424376
vt 0.819160 0.424377
vt 0.926682 0.715140
vt 0.926682 0.778668
vt 0.926682 0.715140
vt 0.830929 0.255127
vt 0.830929 0.204253
vt 0.830929 0.255127
vt 0.812197 0.255127
vt 0.812197 0.204253
vt 0.793505 0.204253
vt 0.793505 0.204253
vt 0.793505 0.255127
vt 0.812197 0.255127
vt 0.830929 0.204253
vt 0.793505 0.204253
vt 0.812197 0.204253
vt 0.824484 0.326789
vt 0.843441 0.326789
vt 0.806014 0.326789
vt 0.743322 0.342394
vt 0.743322 0.371383
vt 0.727726 0.371383
vt 0.727726 0.371383
vt 0.743323 0.400897
vt 0.727727 0.400898
vt 0.727727 0.400898
vt 0.743322 0.342394
vt 0.743322 0.312868
vt 0.727726 0.342395
vt 0.743322 0.342394
vt 0.743322 0.342394
vt 0.743322 0.371383
vt 0.727726 0.371383
vt 0.727726 0.371383
vt 0.743323 0.400897
vt 0.727727 0.400898
vt 0.727727 0.400898
vt 0.743322 0.342394
vt 0.743322 0.312868
vt 0.727726 0.342395
vt 0.743322 0.342394
vt 0.846227 0.430447
vt 0.846227 0.430447
vt 0.819161 0.430447
vt 0.745710 0.436244
vt 0.745710 0.465679
vt 0.745710 0.436244
vt 0.745710 0.436244
vt 0.761232 0.436244
vt 0.761232 0.436244
vt 0.745710 0.377823
vt 0.745710 0.407100
vt 0.761232 0.407099
vt 0.761232 0.407099
vt 0.761231 0.377823
vt 0.745710 0.377823
vt 0.840177 0.405469
vt 0.823867 0.405469
vt 0.840177 0.405469
vt 0.802257 0.439904
vt 0.780539 0.398170
vt 0.790190 0.429019
vt 0.942879 0.715140
vt 0.942879 0.715140
vt 0.926180 0.715140
vt 0.926180 0.715140
vt 0.908834 0.715140
vt 0.908834 0.715140
vt 0.126868 0.496976
vt 0.126868 0.447399
vt 0.124419 0.447399
vt 0.124419 0.447399
vt 0.124419 0.496976
vt 0.126868 0.496976
vn -0.721946 -0.691949 1.0000000000423696E-06
vn -0.721946 -0.691949 1.0000000000423696E-06
vn -0.721946 -0.691949 1.0000000000423696E-06
vn -0.721946 -0.691949 4.2369656401160595E-17
vn -0.721946 -0.691949 4.2369656401160595E-17
vn -0.721946 -0.691949 4.2369656401160595E-17
vn -0.721946 -0.691949 4.2369656401160595E-17
vn -0.721946 -0.691949 4.2369656401160595E-17
vn -0.272732 -0.96209 0.0007550000000000589
vn -0.272732 -0.96209 0.0007550000000000589
vn -0.272732 -0.96209 0.0007550000000000589
vn -0.272726 -0.962091 0.0007540000000000589
vn -0.27221 -0.962238 -2.99999999994108E-06
vn -0.27221 -0.962238 -2.99999999994108E-06
vn -0.27221 -0.962238 -2.99999999994108E-06
vn -0.27221 -0.962238 3.00000000005892E-06
vn -0.27221 -0.962238 5.892008433589755E-17
vn -0.27221 -0.962238 5.892008433589755E-17
vn -0.27221 -0.962238 5.892008433589755E-17
vn -0.27221 -0.962238 5.892008433589755E-17
vn -0.272731 -0.96209 0.0009180000000000589
vn -0.272731 -0.96209 0.0009180000000000589
vn -0.272731 -0.96209 0.0009180000000000589
vn -0.272729 -0.96209 0.0009180000000000589
vn 0.002211 -0.005268999999999939 0.999984
vn -0.982366 -0.173683 0.06921400000000001
vn -0.17418 0.984714 3.8999999999939704E-05
vn -0.982383 -0.173453 0.06956200000000001
vn 0.173112 -0.981769 0.07849800000000005
vn 0.157892 -0.985299 0.06523800000000006
vn 0.142606 -0.988415 0.051950000000000066
vn 0.157892 -0.985299 0.06523800000000006
vn 0.699786 -0.40620899999999993 0.587617
vn -0.488711 -0.674046 0.553917
vn 0.023556 -0.03716299999999994 0.999032
vn -0.711243 0.39082700000000004 0.584284
vn 0.286667 0.795962 0.533167
vn 0.675852 -0.627209 0.38708200000000004
vn -0.139883 -0.95779 0.25113800000000003
vn -0.98342 -0.0006809999999999889 0.181338
vn -0.452817 0.854399 0.25487099999999996
vn 0.345705 0.90392 0.25182499999999997
vn 0.888066 0.354517 0.29267
vn 0.004147 -0.004853999999999938 0.99998
vn 0.0127 -0.0068359999999999385 0.999896
vn 0.008684 0.001535000000000061 0.999961
vn 0.982655 0.173698 -0.06494900000000002
vn 0.006277 -0.003326999999999939 0.999975
vn 0.013757 -0.006837999999999939 0.999882
vn 0.006277 -0.003326999999999939 0.999975
vn -0.001203 0.00018400000000006123 0.999999
vn -0.003464 0.0057170000000000614 0.999978
vn -0.000135 -0.00039499999999993875 1
vn -0.571866 -0.816709 0.07718000000000005
vn -0.571862 -0.816711 0.07718400000000006
vn 0.831823 -0.553191 0.04527500000000004
vn -0.8171 0.571432 0.07623499999999996
vn -0.006792 0.011830000000000061 0.999907
vn -0.003464 0.0057170000000000614 0.999978
vn -0.600335 0.768185 0.22246199999999994
vn -0.594951 0.772401 0.22232799999999994
vn -0.594951 0.772401 0.22232799999999994
vn -0.589539 0.776581 0.22218399999999994
vn -0.617344 0.782266 0.08334099999999996
vn -0.61504 0.78406 0.08351899999999995
vn -0.61504 0.78406 0.08351899999999995
vn -0.61273 0.785848 0.08369699999999995
vn -0.614263 0.778343 -0.12985400000000005
vn -0.614934 0.777773 -0.13009900000000005
vn -0.614934 0.777773 -0.13009900000000005
vn -0.615604 0.777201 -0.13034400000000004
vn 0.433252 0.900652 0.033442999999999945
vn 0.428833 0.902763 0.033477999999999945
vn 0.433252 0.900652 0.033442999999999945
vn 0.437661 0.898519 0.03340599999999994
vn 0.004147 -0.004853999999999938 0.99998
vn -0.173646 0.984808 0.0001089999999999397
vn -0.153106 0.987935 -0.02328300000000006
vn -0.175111 0.98454 -0.004247000000000061
vn -0.175111 0.98454 -0.004247000000000061
vn -0.175111 0.98454 -0.004247000000000061
vn -0.722286 -0.691594 0.0009180000000000424
vn -0.722286 -0.691594 0.0009180000000000424
vn -0.722286 -0.691594 0.0009180000000000424
vn -0.722288 -0.691592 0.0009180000000000424
vn -0.272733 -0.96209 0.0006110000000000589
vn -0.272733 -0.96209 0.0006110000000000589
vn -0.272733 -0.96209 0.0006110000000000589
vn -0.272729 -0.962091 0.0006100000000000588
vn -0.531789 0.724903 0.43785399999999997
vn -0.562239 -0.545021 0.621965
vn -0.888694 0.423115 0.17662399999999998
vn -0.648888 -0.749876 0.12896400000000005
vn 0.650307 0.28198400000000007 0.705397
vn -0.572593 0.656888 0.4905459999999999
vn -0.653415 0.726516 0.21265699999999996
vn 0.512631 0.824034 0.24120099999999994
vn -0.446791 0.54251 0.711379
vn 0.33821 -0.38931699999999997 0.856765
vn 0.502227 -0.864711 -0.006577999999999947
vn -0.386788 0.922127 0.008736999999999943
vn 0.766483 -0.2911619999999999 0.572476
vn -0.327432 0.25832400000000005 0.908877
vn -0.939787 0.34172 0.0053409999999999794
vn 0.964233 -0.264943 -0.007721999999999983
vn -0.99096 -0.129018 -0.036789999999999996
vn -0.985691 -0.168545 0.0023530000000000105
vn -0.985691 -0.168545 0.0023530000000000105
vn 0.982655 0.173698 -0.06494900000000002
vn 0.98281 0.173726 -0.062481000000000016
vn 0.982565 0.174113 -0.06520300000000001
vn 0.416629 -0.76575 0.4899470000000001
vn 0.274956 -0.639652 0.717806
vn -0.258008 0.41824700000000004 0.87092
vn 0.531282 0.559144 0.636473
vn 0.895848 -0.38656 0.21915400000000002
vn 0.653457 0.7347 0.18223399999999995
vn -0.358342 0.933572 0.005773999999999942
vn 0.213729 -0.976861 -0.007836999999999941
vn 0.586019 -0.633107 0.505725
vn 0.692073 -0.666968 0.2760230000000001
vn -0.45184 -0.838827 0.30365900000000007
vn -0.617142 -0.35561699999999996 0.701906
vn 0.300172 -0.36532499999999996 0.881155
vn -0.724702 0.3468260000000001 0.595415
vn 0.885765 -0.463959 0.012782000000000028
vn -0.947131 0.320294 -0.01880600000000002
vn 0.937251 0.18219500000000002 0.297263
vn 0.781959 -0.11335399999999995 0.612936
vn -0.125889 -0.617882 0.776128
vn 0.937252 0.18219800000000003 0.29726
vn -0.125894 -0.617884 0.776125
vn 0.306536 -0.4711409999999999 0.82708
vn 0.810349 0.551738 -0.19727900000000004
vn 0.80947 0.552962 -0.19746300000000003
vn 0.811227 0.550512 -0.19709500000000002
vn 0.810349 0.551738 -0.19727900000000004
vn 0.475613 -0.744061 0.4692180000000001
vn -0.157417 -0.47917299999999996 0.863489
vn -0.705901 0.19267100000000006 0.681602
vn 0.5932 0.550735 0.587201
vn 0.895723 -0.38687 0.21911600000000003
vn 0.652599 0.735512 0.18203399999999995
vn -0.469697 0.870367 0.14780399999999994
vn -0.558172 -0.814907 0.15610700000000005
vn -0.258566 0.960189 0.10573599999999994
vn 0.894339 0.445308 0.04310699999999997
vn 0.444276 -0.894677 0.046611000000000055
vn -0.965321 -0.259794 0.02574600000000002
vn -0.256671 0.955344 -0.14642000000000005
vn 0.986849 -0.059536000000000006 -0.150281
vn -2.6E-05 -0.00846499999999994 0.999964
vn -0.05757 -0.988248 -0.14160299999999995
vn -0.956038 -0.255954 -0.14310399999999998
vn -0.730251 0.683179 -4.183264877973448E-17
vn 0.9963 0.085949 -5.2628583869957926E-18
vn 0.985188 -0.171476 1.0499876726529577E-17
vn -0.362208 0.932097 -5.707448037724252E-17
vn 0.544288 -0.838899 5.136774875789577E-17
vn 0.544288 -0.838899 5.136774875789577E-17
vn -0.992869 -0.119212 7.299629710997714E-18
vn -0.990731 0.135837 -8.317617362788951E-18
vn 3E-06 0.0006800000000000613 1
vn 0.000215 0.0004490000000000613 1
vn 4E-06 0.0007460000000000613 1
vn 0.000206 0.0004200000000000613 1
vn 0.340805 0.939485 0.034928999999999946
vn 0.988621 -0.149207 -0.01913299999999999
vn -0.150591 -0.988463 -0.01624099999999994
vn -0.939125 0.341216 -0.04019800000000002
vn 0.334754 0.921808 -0.19547600000000007
vn 0.768141 -0.610199 -0.19395099999999998
vn -0.002856 -0.0038999999999999387 0.999988
vn -0.609177 -0.770522 -0.18761599999999995
vn -0.921844 0.33584 -0.19342900000000002
vn 0.380765 0.924672 -5.661983025305907E-17
vn 0.75563 0.654999 -4.010712143973586E-17
vn -0.571216 -0.8208 5.025950463700737E-17
vn -0.571216 -0.8208 5.025950463700737E-17
vn 0.00028 0.0003310000000000613 1
vn 0.00028 0.00035300000000006127 1
vn -0.539795 -0.814301 0.21339300000000005
vn -0.539789 -0.814305 0.21339000000000005
vn -0.539801 -0.814296 0.21339600000000006
vn -0.539795 -0.814301 0.21339300000000005
vn -0.797279 -0.431624 0.421957
vn -0.797277 -0.431632 0.421952
vn -0.797279 -0.431624 0.421957
vn -0.797281 -0.431616 0.421961
vn 0.586518 0.771414 0.24681199999999995
vn 0.586513 0.771419 0.24680899999999995
vn 0.586518 0.771414 0.24681199999999995
vn 0.586524 0.771409 0.24681499999999995
vn -0.840857 -0.298005 0.451833
vn -0.840856 -0.298013 0.451829
vn -0.840857 -0.298005 0.451833
vn -0.840857 -0.297997 0.451837
vn 0.069976 0.013478000000000061 0.997458
vn 0.06998 0.013471000000000061 0.997458
vn 0.069976 0.013478000000000061 0.997458
vn 0.069972 0.01348600000000006 0.997458
vn -0.085356 0.43262600000000007 0.897524
vn -0.100742 0.35990600000000006 0.927534
vn -0.085356 0.43262600000000007 0.897524
vn -0.069422 0.502565 0.861747
vn 0.690808 -0.512103 0.510426
vn -0.590809 -0.796102 0.13101700000000005
vn -0.690807 0.512103 0.510427
vn 0.590809 0.796102 0.13101799999999994
vn -0.271121 0.910607 -0.31191100000000005
vn 0.911109 0.270748 -0.310765
vn 0.271121 -0.910607 -0.31191099999999994
vn -0.911109 -0.270748 -0.310766
vn -0.167894 -0.985805 6.036314689167283E-17
vn 0.167894 0.985805 -6.036314689167283E-17
vn -0.167894 -0.985805 6.036314689167283E-17
vn 0.167894 0.985805 -6.036314689167283E-17
vn 0 -1.9999999999387675E-06 1
vn 0.890057 -0.15694199999999997 0.427982
vn 0.125782 -0.894992 0.42798100000000006
vn -0.812319 -0.396195 0.427981
vn -0.627824 0.65013 0.42798099999999994
vn 0.424303 0.797997 0.4279819999999999
vn 0.226921 0.06080400000000006 0.972013
vn -0.16234 -0.04349899999999994 0.985776
vn -0.16234 -0.04349899999999994 0.985776
vn -0.525205 -0.14072999999999994 0.839258
vn 0.02273 0.23161700000000005 0.972541
vn -0.017757 -0.18094799999999994 0.983332
vn -0.017757 -0.18094799999999994 0.983332
vn -0.055191 -0.562396 0.825024
vn 0.134748 -0.19243999999999994 0.972013
vn -0.094226 0.13456800000000005 0.986414
vn -0.094226 0.13456800000000005 0.986414
vn -0.151007 -0.17996399999999996 0.972013
vn 0.113279 0.13500100000000007 0.984349
vn 0.113279 0.13500100000000007 0.984349
vn 0.358398 0.42712400000000006 0.83013
vn -0.174479 0.16004100000000004 0.971568
vn 0.129315 -0.11861499999999994 0.984484
vn 0.690807 -0.512102 0.510428
vn -0.59081 -0.796101 0.13102000000000005
vn -0.690806 0.512105 0.510427
vn 0.590808 0.796103 0.13101999999999994
vn -0.271119 0.910608 -0.3119100000000001
vn 0.91111 0.270749 -0.310764
vn 0.271119 -0.910608 -0.31190999999999997
vn -0.911111 -0.270744 -0.310765
vn 0.186991 0.982359 -0.0023730000000000604
vn -0.187054 -0.982349 0.0005060000000000602
vn -0.167947 -0.985792 0.0028790000000000603
vn 0.167821 0.985817 0.0005059999999999397
vn 0.05773 0.041784000000000064 0.997457
vn 0.057724 0.04178900000000006 0.997458
vn 0.057724 0.04178900000000006 0.997458
vn 0.057717 0.04179400000000006 0.997458
vn -0.243406 0.28361000000000003 0.927534
vn -0.260194 0.35601900000000003 0.897524
vn -0.260194 0.35601900000000003 0.897524
vn -0.275311 0.4261400000000001 0.861748
vn 0.146915 0.833218 0.533071
vn 0.829716 -0.14656699999999998 0.5386
vn 0.112385 -0.757811 0.642722
vn -0.922953 -0.13711199999999998 0.359665
vn 0.982437 -0.173549 -0.06855099999999999
vn -0.475406 -0.877972 -0.056171999999999944
vn -0.877445 0.474831 -0.06801600000000002
vn 0.173125 0.981815 -0.07789300000000006
vn -0.722286 -0.691594 0.0007220000000000424
vn -0.722286 -0.691594 0.0007220000000000424
vn -0.722286 -0.691594 0.0007220000000000424
vn -0.722291 -0.691589 0.0007230000000000424
vn -0.613508 0.784138 -0.09346700000000004
vn -0.617318 0.781118 -0.09366500000000004
vn -0.613508 0.784138 -0.09346700000000004
vn -0.609683 0.787139 -0.09326800000000005
vn -0.616547 0.786631 -0.03288300000000005
vn -0.612756 0.789614 -0.032239000000000045
vn -0.612756 0.789614 -0.032239000000000045
vn -0.608951 0.792579 -0.03159500000000005
vn 0.636655 0.769259 -0.05395300000000005
vn 0.62714 0.77694 -0.055323000000000046
vn 0.646074 0.761462 -0.05257400000000005
vn 0.636655 0.769259 -0.05395300000000005
vn 0.863053 -0.503905 0.03492800000000003
vn -0.324238 -0.945782 -0.01913299999999994
vn -0.945378 0.325571 -0.01624100000000002
vn 0.504246 0.862624 -0.04019800000000005
vn 0.846748 -0.494779 -0.19547799999999999
vn -0.738167 -0.646137 -0.19395099999999998
vn -0.003321 0.0035070000000000613 0.999988
vn -0.648661 0.737591 -0.18761500000000006
vn 0.495856 0.846589 -0.19342900000000005
vn 0.755575 -0.64213 0.12951900000000002
vn -0.00142 -0.003639999999999939 0.999992
vn -0.641939 -0.756305 0.12616400000000005
vn -0.755252 0.640555 0.13886599999999996
vn 0.640806 0.754443 0.14206899999999995
vn -0.158695 0.17322300000000004 0.972013
vn 0.123831 -0.13516599999999995 0.983055
vn 0.123831 -0.13516599999999995 0.983055
vn -0.215952 -0.08676399999999994 0.972541
vn 0.180702 0.07260100000000005 0.980855
vn 0.180702 0.07260100000000005 0.980855
vn 0.108499 0.20837000000000006 0.972013
vn -0.076794 -0.14748099999999995 0.986079
vn -0.076794 -0.14748099999999995 0.986079
vn -0.24971 -0.47956399999999993 0.841228
vn 0.229352 -0.05087199999999994 0.972013
vn -0.172066 0.03816600000000006 0.984346
vn -0.172066 0.03816600000000006 0.984346
vn -0.061418 -0.22865599999999994 0.971568
vn 0.042596 0.15858200000000006 0.986426
vn 0.135354 0.849201 0.510428
vn 0.978939 -0.156564 0.13102
vn -0.135357 -0.849201 0.510427
vn -0.978939 0.156562 0.131019
vn -0.682603 -0.660883 -0.31190999999999997
vn -0.660786 0.683218 -0.31076400000000004
vn 0.682603 0.660883 -0.3119100000000001
vn 0.660783 -0.683221 -0.31076499999999996
vn -0.067268 -0.997601 0.016333000000000063
vn -0.721845 0.691443 0.02908599999999996
vn 0.29495 -0.955254 0.022253000000000057
vn -0.498399 0.865149 0.05582099999999995
vn -0.885429 0.461408 0.055847999999999974
vn 0.167017 -0.16521399999999994 0.972013
vn -0.118146 0.11687100000000006 0.986095
vn -0.118146 0.11687100000000006 0.986095
vn -0.384277 0.38012900000000005 0.841329
vn 0.211427 0.09727200000000005 0.972541
vn -0.165174 -0.07599299999999995 0.983332
vn -0.513371 -0.23618999999999996 0.825024
vn -0.098127 -0.21345099999999995 0.972013
vn 0.068618 0.14926000000000006 0.986414
vn 0.068618 0.14926000000000006 0.986414
vn -0.231575 0.03953900000000006 0.972013
vn 0.173717 -0.02965999999999994 0.984349
vn 0.173717 -0.02965999999999994 0.984349
vn 0.549615 -0.09384099999999994 0.830131
vn 0.050105 0.23139800000000005 0.971568
vn -0.035293 -0.16299099999999994 0.985996
vn -0.035293 -0.16299099999999994 0.985996
vn -0.093453 -0.854827 0.510428
vn -0.985451 0.10826400000000001 0.13102
vn 0.093458 0.854827 0.510427
vn 0.985451 -0.10826099999999998 0.131019
vn 0.649298 0.693631 -0.3119100000000001
vn 0.693567 -0.649916 -0.31076399999999993
vn -0.649297 -0.693632 -0.31190999999999997
vn -0.693562 0.649921 -0.31076500000000007
vn -0.353352 0.935489 0.0016659999999999427
vn 0.353376 -0.935481 -0.00018599999999994272
vn 0.34165 -0.939825 -0.0018519999999999425
vn -0.341603 0.939844 -0.00018600000000005754
vn -0.063382 -0.857582 0.510426
vn -0.988645 0.07359000000000002 0.131019
vn 0.063381 0.857582 0.510427
vn 0.988645 -0.07358999999999999 0.131019
vn 0.624538 0.716006 -0.31190900000000005
vn 0.715958 -0.625163 -0.31076499999999996
vn -0.624539 -0.716006 -0.31190899999999994
vn -0.715959 0.625162 -0.31076400000000004
vn 0.374412 -0.927262 5.677842201354865E-17
vn -0.374412 0.927262 -5.677842201354865E-17
vn 0.374412 -0.927262 5.677842201354865E-17
vn -0.374412 0.927262 -5.677842201354865E-17
vn -2E-06 6.123233995736766E-17 1
vn 0.343283 -0.836055 0.42798200000000003
vn -0.689055 -0.584837 0.42798200000000003
vn -0.769144 0.474605 0.42798099999999994
vn 0.213697 0.878161 0.42798099999999994
vn 0.901216 0.06812700000000002 0.427981
vn 0.328803 0.704508 0.628933
vn 0.316995 0.32682600000000006 0.890336
vn 0.051259 -0.678172 0.733113
vn 0.328802 0.704512 0.628929
vn 0.051259 -0.678169 0.733116
vn 0.19288 -0.29148999999999997 0.936926
vn 0.97996 0.06792999999999999 -0.187254
vn 0.979837 0.06936999999999999 -0.187369
vn 0.980081 0.06648999999999998 -0.187139
vn 0.97996 0.06792999999999999 -0.187254
vn 0.503764 -0.790584 -0.3481349999999999
vn 0.503764 -0.790584 -0.3481349999999999
vn 0.503764 -0.790584 -0.3481349999999999
vn -0.971856 -0.11840199999999998 0.203659
vn -0.666712 -0.40673700000000007 -0.624548
vn -0.666712 -0.40673700000000007 -0.624548
vn -0.666712 -0.40673700000000007 -0.624548
vn -0.149515 0.925447 0.34812799999999994
vn 0.709985 -0.526294 0.46790500000000007
vn -0.425005 -0.572659 0.701023
vn -0.712761 0.528928 0.46065899999999993
vn 0.429322 0.579102 0.693054
vn 0.284317 -0.954839 0.08629700000000005
vn -0.955415 -0.28389 0.08117300000000001
vn -0.284259 0.956487 0.06579999999999994
vn 0.956015 0.284609 0.07093999999999999
vn 0.129315 -0.11861499999999994 0.984484
vn 0.042596 0.15858200000000006 0.986426
vn -0.544367 0.12074500000000006 0.830112
vn 0.38468 -0.41989499999999996 0.822015
vn -0.114935 -0.530806 0.839663
vn -0.165174 -0.07599299999999995 0.983332
vn 0.224414 0.48815400000000003 0.843412
vn 0.411112 -0.37709299999999996 0.829932
vn -0.308165 0.44010200000000005 0.843412
vn 0.544323 0.21869400000000006 0.809867
vn 0.139752 0.52029 0.842477
vn 0.400195 -0.916362 0.011198000000000055
vn 0.261201 0.700502 -0.664132
vn -0.882292 -0.18796699999999997 0.431544
vn -0.882347 -0.18802099999999997 0.431408
vn 0.260317 0.69828 -0.666814
vn 0.751888 -0.604824 0.2623980000000001
vn 0.134675 -0.784908 0.604799
vn -0.239881 -0.748958 0.617672
vn -0.239881 -0.748958 0.617672
vn -0.239881 -0.748958 0.617672
vn 0.721946 0.691949 -1.0000000000423696E-06
vn 0.721946 0.691949 -1.0000000000423696E-06
vn 0.721946 0.691949 -1.0000000000423696E-06
vn 0.721946 0.691949 -4.2369656401160595E-17
vn 0.721946 0.691949 -4.2369656401160595E-17
vn 0.721946 0.691949 -4.2369656401160595E-17
vn 0.721946 0.691949 -4.2369656401160595E-17
vn 0.721946 0.691949 -4.2369656401160595E-17
vn 0.272732 0.96209 -0.0007540000000000589
vn 0.272732 0.96209 -0.0007540000000000589
vn 0.272732 0.96209 -0.0007540000000000589
vn 0.272726 0.962091 -0.0007550000000000589
vn 0.27221 0.962238 2.99999999994108E-06
vn 0.27221 0.962238 2.99999999994108E-06
vn 0.27221 0.962238 2.99999999994108E-06
vn 0.27221 0.962238 -3.00000000005892E-06
vn 0.27221 0.962238 -5.892008433589755E-17
vn 0.27221 0.962238 -5.892008433589755E-17
vn 0.27221 0.962238 -5.892008433589755E-17
vn 0.27221 0.962238 -5.892008433589755E-17
vn 0.272731 0.96209 -0.0009180000000000589
vn 0.272731 0.96209 -0.0009180000000000589
vn 0.272731 0.96209 -0.0009180000000000589
vn 0.272729 0.96209 -0.0009180000000000589
vn 0.023556 -0.03716299999999994 0.999032
vn 0.286667 0.795962 0.533167
vn 0.345705 0.90392 0.25182499999999997
vn -0.982383 -0.173453 0.06956200000000001
vn -0.982398 -0.173223 0.06990900000000001
vn 0.004147 -0.004853999999999938 0.99998
vn 0.002211 -0.005268999999999939 0.999984
vn 0.002211 -0.005268999999999939 0.999984
vn 0.0127 -0.0068359999999999385 0.999896
vn 0.0127 -0.0068359999999999385 0.999896
vn 0.01193 0.005884000000000062 0.999912
vn 0.01193 0.005884000000000062 0.999912
vn 0.01193 0.005884000000000062 0.999912
vn 0.008684 0.001535000000000061 0.999961
vn 0.008684 0.001535000000000061 0.999961
vn 0.002334 0.0006680000000000612 0.999997
vn 0.002334 0.0006680000000000612 0.999997
vn 0.002334 0.0006680000000000612 0.999997
vn -0.142173 0.989839 0.002432999999999939
vn -0.142173 0.989839 0.002432999999999939
vn -0.142173 0.989839 0.002432999999999939
vn -0.142174 0.989839 0.0024339999999999393
vn 0.98281 0.173726 -0.062481000000000016
vn 0.98281 0.173726 -0.062481000000000016
vn 0.982655 0.173698 -0.06494900000000002
vn 0.98281 0.173726 -0.062481000000000016
vn -0.17418 0.984714 3.8999999999939704E-05
vn -0.17418 0.984714 3.8999999999939704E-05
vn -0.173645 0.984808 7.59999999999397E-05
vn -0.173645 0.984808 7.59999999999397E-05
vn -0.173645 0.984808 7.59999999999397E-05
vn -0.172567 0.984998 7.09999999999397E-05
vn -0.172567 0.984998 7.09999999999397E-05
vn -0.172567 0.984998 7.09999999999397E-05
vn -0.571862 -0.816711 0.07718400000000006
vn -0.571858 -0.816713 0.07718800000000006
vn 0.826865 -0.559331 0.05868200000000003
vn 0.821707 -0.565335 0.07207400000000003
vn 0.826865 -0.559331 0.05868200000000003
vn -0.816662 0.572274 0.07460199999999996
vn -0.816662 0.572274 0.07460199999999996
vn -0.816221 0.573114 0.07296899999999996
vn 0.594951 -0.772401 -0.22232799999999994
vn 0.589539 -0.776581 -0.22218399999999994
vn 0.594951 -0.772401 -0.22232799999999994
vn 0.600335 -0.768185 -0.22246199999999994
vn 0.61504 -0.78406 -0.08351899999999995
vn 0.61273 -0.785848 -0.08369699999999995
vn 0.61504 -0.78406 -0.08351899999999995
vn 0.617344 -0.782266 -0.08334099999999996
vn 0.614934 -0.777773 0.13009900000000005
vn 0.615604 -0.777201 0.13034400000000004
vn 0.614934 -0.777773 0.13009900000000005
vn 0.614263 -0.778343 0.12985400000000005
vn -0.433252 -0.900652 -0.033442999999999945
vn -0.437661 -0.898519 -0.03340599999999994
vn -0.433252 -0.900652 -0.033442999999999945
vn -0.428833 -0.902763 -0.033477999999999945
vn -0.985691 -0.168545 0.0023530000000000105
vn -0.984195 -0.173299 -0.036439999999999986
vn -0.984195 -0.173299 -0.036439999999999986
vn -0.984195 -0.173299 -0.036439999999999986
vn -0.983463 -0.167654 -0.06849499999999999
vn -0.983463 -0.167654 -0.06849499999999999
vn -0.983463 -0.167654 -0.06849499999999999
vn -0.99096 -0.129018 -0.036789999999999996
vn -0.99096 -0.129018 -0.036789999999999996
vn -0.153106 0.987935 -0.02328300000000006
vn -0.153106 0.987935 -0.02328300000000006
vn 0.722286 0.691594 -0.0009180000000000424
vn 0.722286 0.691594 -0.0009180000000000424
vn 0.722286 0.691594 -0.0009180000000000424
vn 0.722288 0.691592 -0.0009180000000000424
vn 0.272733 0.96209 -0.0006100000000000588
vn 0.272733 0.96209 -0.0006100000000000588
vn 0.272733 0.96209 -0.0006100000000000588
vn 0.272729 0.962091 -0.0006110000000000589
vn -0.531789 0.724903 0.43785399999999997
vn -0.446791 0.54251 0.711379
vn 0.33821 -0.38931699999999997 0.856765
vn -0.562239 -0.545021 0.621965
vn -0.888694 0.423115 0.17662399999999998
vn -0.531789 0.724903 0.43785399999999997
vn 0.766483 -0.2911619999999999 0.572476
vn -0.327432 0.25832400000000005 0.908877
vn -0.648888 -0.749876 0.12896400000000005
vn -0.562239 -0.545021 0.621965
vn -0.572593 0.656888 0.4905459999999999
vn 0.650307 0.28198400000000007 0.705397
vn -0.653415 0.726516 0.21265699999999996
vn -0.572593 0.656888 0.4905459999999999
vn 0.650307 0.28198400000000007 0.705397
vn 0.512631 0.824034 0.24120099999999994
vn 0.589652 0.803029 0.08634199999999995
vn 0.589588 0.803083 0.08627099999999994
vn 0.589652 0.803029 0.08634199999999995
vn 0.589716 0.802974 0.08641299999999995
vn 0.416629 -0.76575 0.4899470000000001
vn 0.274956 -0.639652 0.717806
vn -0.258008 0.41824700000000004 0.87092
vn 0.531282 0.559144 0.636473
vn 0.895848 -0.38656 0.21915400000000002
vn 0.416629 -0.76575 0.4899470000000001
vn -0.724702 0.3468260000000001 0.595415
vn 0.300172 -0.36532499999999996 0.881155
vn 0.653457 0.7347 0.18223399999999995
vn 0.531282 0.559144 0.636473
vn 0.586019 -0.633107 0.505725
vn -0.617142 -0.35561699999999996 0.701906
vn 0.692073 -0.666968 0.2760230000000001
vn 0.586019 -0.633107 0.505725
vn -0.617142 -0.35561699999999996 0.701906
vn -0.45184 -0.838827 0.30365900000000007
vn 0.306536 -0.4711409999999999 0.82708
vn 0.781959 -0.11335399999999995 0.612936
vn -0.810349 -0.551738 0.19727900000000004
vn -0.80947 -0.552962 0.19746300000000003
vn -0.810349 -0.551738 0.19727900000000004
vn -0.811227 -0.550512 0.19709500000000002
vn 0.475613 -0.744061 0.4692180000000001
vn -0.157417 -0.47917299999999996 0.863489
vn 0.895723 -0.38687 0.21911600000000003
vn 0.652599 0.735512 0.18203399999999995
vn 0.5932 0.550735 0.587201
vn -0.705901 0.19267100000000006 0.681602
vn -0.558172 -0.814907 0.15610700000000005
vn -0.469697 0.870367 0.14780399999999994
vn -0.05757 -0.988248 -0.14160299999999995
vn 0.444276 -0.894677 0.046611000000000055
vn -2.6E-05 -0.00846499999999994 0.999964
vn -2.6E-05 -0.00846499999999994 0.999964
vn -2.6E-05 -0.00846499999999994 0.999964
vn -0.609177 -0.770522 -0.18761599999999995
vn -0.150591 -0.988463 -0.01624099999999994
vn -0.002856 -0.0038999999999999387 0.999988
vn -0.002856 -0.0038999999999999387 0.999988
vn -0.002856 -0.0038999999999999387 0.999988
vn 0.75563 0.654999 -4.010712143973586E-17
vn 0.380765 0.924672 -5.661983025305907E-17
vn 0.590809 0.796102 0.13101799999999994
vn -0.690807 0.512103 0.510427
vn 0.911109 0.270748 -0.310765
vn -0.590809 -0.796102 0.13101700000000005
vn -0.167894 -0.985805 6.036314689167283E-17
vn 0.167894 0.985805 -6.036314689167283E-17
vn 0 -1.9999999999387675E-06 1
vn -0.812319 -0.396195 0.427981
vn 0.590808 0.796103 0.13101999999999994
vn 0.690807 -0.512102 0.510428
vn -0.59081 -0.796101 0.13102000000000005
vn -0.911111 -0.270744 -0.310765
vn -0.187054 -0.982349 0.0005060000000000602
vn 0.167821 0.985817 0.0005059999999999397
vn 0.982456 0.172661 0.07048899999999998
vn 0.982618 0.172118 0.06955699999999998
vn 0.982456 0.172661 0.07048899999999998
vn 0.982293 0.173204 0.07141999999999998
vn 0.112385 -0.757811 0.642722
vn 0.829716 -0.14656699999999998 0.5386
vn -0.922953 -0.13711199999999998 0.359665
vn -0.877445 0.474831 -0.06801600000000002
vn 0.146915 0.833218 0.533071
vn -0.922953 -0.13711199999999998 0.359665
vn 0.982437 -0.173549 -0.06855099999999999
vn 0.829716 -0.14656699999999998 0.5386
vn 0.146915 0.833218 0.533071
vn 0.173125 0.981815 -0.07789300000000006
vn 0.722286 0.691594 -0.0007230000000000424
vn 0.722286 0.691594 -0.0007230000000000424
vn 0.722286 0.691594 -0.0007230000000000424
vn 0.722291 0.691589 -0.0007220000000000424
vn 0.613508 -0.784138 0.09346700000000004
vn 0.609683 -0.787139 0.09326800000000005
vn 0.613508 -0.784138 0.09346700000000004
vn 0.617318 -0.781118 0.09366500000000004
vn 0.612756 -0.789614 0.032239000000000045
vn 0.608951 -0.792579 0.03159500000000005
vn 0.612756 -0.789614 0.032239000000000045
vn 0.616547 -0.786631 0.03288300000000005
vn -0.636655 -0.769259 0.05395300000000005
vn -0.62714 -0.77694 0.055323000000000046
vn -0.636655 -0.769259 0.05395300000000005
vn -0.646074 -0.761462 0.05257400000000005
vn -0.648661 0.737591 -0.18761500000000006
vn -0.945378 0.325571 -0.01624100000000002
vn -0.003321 0.0035070000000000613 0.999988
vn -0.003321 0.0035070000000000613 0.999988
vn -0.003321 0.0035070000000000613 0.999988
vn -0.00142 -0.003639999999999939 0.999992
vn -0.00142 -0.003639999999999939 0.999992
vn -0.755252 0.640555 0.13886599999999996
vn -0.00142 -0.003639999999999939 0.999992
vn -0.978939 0.156562 0.131019
vn 0.135354 0.849201 0.510428
vn 0.978939 -0.156564 0.13102
vn 0.660783 -0.683221 -0.31076499999999996
vn -0.067268 -0.997601 0.016333000000000063
vn -0.885429 0.461408 0.055847999999999974
vn 0.985451 -0.10826099999999998 0.131019
vn -0.093453 -0.854827 0.510428
vn -0.985451 0.10826400000000001 0.13102
vn -0.693562 0.649921 -0.31076500000000007
vn -0.353352 0.935489 0.0016659999999999427
vn 0.34165 -0.939825 -0.0018519999999999425
vn 0.988645 -0.07358999999999999 0.131019
vn 0.063381 0.857582 0.510427
vn 0.715958 -0.625163 -0.31076499999999996
vn -0.988645 0.07359000000000002 0.131019
vn -0.374412 0.927262 -5.677842201354865E-17
vn 0.374412 -0.927262 5.677842201354865E-17
vn -2E-06 6.123233995736766E-17 1
vn -0.769144 0.474605 0.42798099999999994
vn 0.19288 -0.29148999999999997 0.936926
vn 0.316995 0.32682600000000006 0.890336
vn -0.97996 -0.06792999999999999 0.187254
vn -0.979837 -0.06936999999999999 0.187369
vn -0.97996 -0.06792999999999999 0.187254
vn -0.980081 -0.06648999999999998 0.187139
vn -0.971856 -0.11840199999999998 0.203659
vn -0.971856 -0.11840199999999998 0.203659
vn 0.507487 0.852029 0.12846799999999994
vn 0.507487 0.852029 0.12846799999999994
vn 0.507487 0.852029 0.12846799999999994
vn -0.149515 0.925447 0.34812799999999994
vn -0.149515 0.925447 0.34812799999999994
vn 0.786423 -0.563427 0.2531590000000001
vn 0.786423 -0.563427 0.2531590000000001
vn 0.786423 -0.563427 0.2531590000000001
vn 0.709985 -0.526294 0.46790500000000007
vn 0.429322 0.579102 0.693054
vn -0.425005 -0.572659 0.701023
vn 0.709985 -0.526294 0.46790500000000007
vn -0.712761 0.528928 0.46065899999999993
vn -0.425005 -0.572659 0.701023
vn 0.956015 0.284609 0.07093999999999999
vn 0.429322 0.579102 0.693054
vn -0.712761 0.528928 0.46065899999999993
vn 0.261201 0.700502 -0.664132
vn 0.260317 0.69828 -0.666814
vn -0.139883 -0.95779 0.25113800000000003
vn -0.705901 0.19267100000000006 0.681602
vn -0.705901 0.19267100000000006 0.681602
vn -0.157417 -0.47917299999999996 0.863489
vn 0.986849 -0.059536000000000006 -0.150281
vn 0.894339 0.445308 0.04310699999999997
vn 0.986849 -0.059536000000000006 -0.150281
vn -0.965321 -0.259794 0.02574600000000002
vn -0.956038 -0.255954 -0.14310399999999998
vn -0.256671 0.955344 -0.14642000000000005
vn -0.256671 0.955344 -0.14642000000000005
vn -0.258566 0.960189 0.10573599999999994
vn -0.965321 -0.259794 0.02574600000000002
vn 0.894339 0.445308 0.04310699999999997
vn -0.965321 -0.259794 0.02574600000000002
vn -0.258566 0.960189 0.10573599999999994
vn 0.768141 -0.610199 -0.19395099999999998
vn 0.988621 -0.149207 -0.01913299999999999
vn 0.768141 -0.610199 -0.19395099999999998
vn 0.334754 0.921808 -0.19547600000000007
vn 0.340805 0.939485 0.034928999999999946
vn -0.939125 0.341216 -0.04019800000000002
vn -0.939125 0.341216 -0.04019800000000002
vn -0.921844 0.33584 -0.19342900000000002
vn 0.334754 0.921808 -0.19547600000000007
vn 0.988621 -0.149207 -0.01913299999999999
vn -0.939125 0.341216 -0.04019800000000002
vn 0.340805 0.939485 0.034928999999999946
vn 0.690808 -0.512103 0.510426
vn 0.590809 0.796102 0.13101799999999994
vn 0.690808 -0.512103 0.510426
vn 0.690808 -0.512103 0.510426
vn 0.271121 -0.910607 -0.31191099999999994
vn 0.271121 -0.910607 -0.31191099999999994
vn -0.690807 0.512103 0.510427
vn -0.590809 -0.796102 0.13101700000000005
vn -0.911109 -0.270748 -0.310766
vn -0.911109 -0.270748 -0.310766
vn -0.271121 0.910607 -0.31191100000000005
vn -0.690807 0.512103 0.510427
vn -0.167894 -0.985805 6.036314689167283E-17
vn -0.167894 -0.985805 6.036314689167283E-17
vn 0.167894 0.985805 -6.036314689167283E-17
vn 0 -1.9999999999387675E-06 1
vn 0.424303 0.797997 0.4279819999999999
vn 0.890057 -0.15694199999999997 0.427982
vn -0.690806 0.512105 0.510427
vn 0.590808 0.796103 0.13101999999999994
vn 0.91111 0.270749 -0.310764
vn 0.91111 0.270749 -0.310764
vn 0.690807 -0.512102 0.510428
vn 0.271119 -0.910608 -0.31190999999999997
vn 0.271119 -0.910608 -0.31190999999999997
vn -0.690806 0.512105 0.510427
vn -0.59081 -0.796101 0.13102000000000005
vn -0.271119 0.910608 -0.3119100000000001
vn -0.690806 0.512105 0.510427
vn -0.167947 -0.985792 0.0028790000000000603
vn -0.167947 -0.985792 0.0028790000000000603
vn 0.186991 0.982359 -0.0023730000000000604
vn -0.475406 -0.877972 -0.056171999999999944
vn 0.112385 -0.757811 0.642722
vn -0.475406 -0.877972 -0.056171999999999944
vn -0.738167 -0.646137 -0.19395099999999998
vn -0.324238 -0.945782 -0.01913299999999994
vn -0.738167 -0.646137 -0.19395099999999998
vn 0.846748 -0.494779 -0.19547799999999999
vn 0.863053 -0.503905 0.03492800000000003
vn 0.504246 0.862624 -0.04019800000000005
vn 0.504246 0.862624 -0.04019800000000005
vn 0.495856 0.846589 -0.19342900000000005
vn 0.846748 -0.494779 -0.19547799999999999
vn -0.324238 -0.945782 -0.01913299999999994
vn 0.504246 0.862624 -0.04019800000000005
vn 0.863053 -0.503905 0.03492800000000003
vn 0.755575 -0.64213 0.12951900000000002
vn -0.641939 -0.756305 0.12616400000000005
vn 0.640806 0.754443 0.14206899999999995
vn -0.135357 -0.849201 0.510427
vn -0.978939 0.156562 0.131019
vn -0.660786 0.683218 -0.31076400000000004
vn -0.660786 0.683218 -0.31076400000000004
vn 0.135354 0.849201 0.510428
vn 0.682603 0.660883 -0.3119100000000001
vn 0.682603 0.660883 -0.3119100000000001
vn -0.135357 -0.849201 0.510427
vn 0.978939 -0.156564 0.13102
vn -0.682603 -0.660883 -0.31190999999999997
vn -0.135357 -0.849201 0.510427
vn 0.093458 0.854827 0.510427
vn 0.985451 -0.10826099999999998 0.131019
vn 0.693567 -0.649916 -0.31076399999999993
vn 0.693567 -0.649916 -0.31076399999999993
vn -0.093453 -0.854827 0.510428
vn -0.649297 -0.693632 -0.31190999999999997
vn -0.649297 -0.693632 -0.31190999999999997
vn 0.093458 0.854827 0.510427
vn -0.985451 0.10826400000000001 0.13102
vn 0.649298 0.693631 -0.3119100000000001
vn 0.093458 0.854827 0.510427
vn -0.341603 0.939844 -0.00018600000000005754
vn -0.341603 0.939844 -0.00018600000000005754
vn 0.353376 -0.935481 -0.00018599999999994272
vn -0.063382 -0.857582 0.510426
vn 0.988645 -0.07358999999999999 0.131019
vn -0.063382 -0.857582 0.510426
vn -0.063382 -0.857582 0.510426
vn -0.624539 -0.716006 -0.31190899999999994
vn -0.624539 -0.716006 -0.31190899999999994
vn 0.063381 0.857582 0.510427
vn -0.988645 0.07359000000000002 0.131019
vn -0.715959 0.625162 -0.31076400000000004
vn -0.715959 0.625162 -0.31076400000000004
vn 0.624538 0.716006 -0.31190900000000005
vn 0.063381 0.857582 0.510427
vn -0.374412 0.927262 -5.677842201354865E-17
vn 0.374412 -0.927262 5.677842201354865E-17
vn -0.374412 0.927262 -5.677842201354865E-17
vn -2E-06 6.123233995736766E-17 1
vn 0.901216 0.06812700000000002 0.427981
vn 0.343283 -0.836055 0.42798200000000003
vn 0.284317 -0.954839 0.08629700000000005
vn 0.284317 -0.954839 0.08629700000000005
vn -0.955415 -0.28389 0.08117300000000001
vn -0.955415 -0.28389 0.08117300000000001
vn -0.284259 0.956487 0.06579999999999994
vn -0.284259 0.956487 0.06579999999999994
vn -0.882347 -0.18802099999999997 0.431408
vn -0.882292 -0.18796699999999997 0.431544
vn 0.134675 -0.784908 0.604799
vn 0.134675 -0.784908 0.604799
vn 0.751888 -0.604824 0.2623980000000001
vn -0.882347 -0.18802099999999997 0.431408
g 01
f 419/419/419 420/420/420 418/418/418
f 816/816/816 815/815/815 814/814/814
f 813/813/813 812/812/812 811/811/811
f 682/682/682 417/417/417 416/416/416
f 416/416/416 683/683/683 682/682/682
f 412/412/412 415/415/415 414/414/414
f 414/414/414 413/413/413 412/412/412
f 35/35/35 34/34/34 33/33/33
f 810/810/810 681/681/681 680/680/680
f 680/680/680 679/679/679 809/809/809
f 808/808/808 678/678/678 677/677/677
f 677/677/677 398/398/398 807/807/807
f 806/806/806 676/676/676 675/675/675
f 675/675/675 397/397/397 805/805/805
f 399/399/399 674/674/674 673/673/673
f 673/673/673 396/396/396 399/399/399
f 393/393/393 392/392/392 395/395/395
f 395/395/395 394/394/394 393/393/393
f 672/672/672 671/671/671 670/670/670
f 391/391/391 669/669/669 668/668/668
f 390/390/390 389/389/389 388/388/388
f 667/667/667 666/666/666 665/665/665
f 387/387/387 664/664/664 663/663/663
f 386/386/386 385/385/385 384/384/384
f 659/659/659 662/662/662 661/661/661
f 661/661/661 660/660/660 659/659/659
f 380/380/380 382/382/382 383/383/383
f 383/383/383 381/381/381 380/380/380
f 377/377/377 374/374/374 658/658/658
f 658/658/658 657/657/657 377/377/377
f 379/379/379 375/375/375 376/376/376
f 376/376/376 378/378/378 379/379/379
f 804/804/804 803/803/803 802/802/802
f 373/373/373 372/372/372 655/655/655
f 372/372/372 656/656/656 655/655/655
f 371/371/371 370/370/370 368/368/368
f 370/370/370 369/369/369 368/368/368
f 801/801/801 654/654/654 653/653/653
f 653/653/653 800/800/800 799/799/799
f 366/366/366 365/365/365 364/364/364
f 364/364/364 367/367/367 366/366/366
f 798/798/798 797/797/797 796/796/796
f 795/795/795 794/794/794 793/793/793
f 652/652/652 363/363/363 792/792/792
f 791/791/791 790/790/790 652/652/652
f 789/789/789 362/362/362 651/651/651
f 651/651/651 788/788/788 787/787/787
f 649/649/649 361/361/361 360/360/360
f 360/360/360 650/650/650 649/649/649
f 356/356/356 359/359/359 358/358/358
f 358/358/358 357/357/357 356/356/356
f 647/647/647 786/786/786 785/785/785
f 784/784/784 648/648/648 647/647/647
f 353/353/353 352/352/352 354/354/354
f 354/354/354 355/355/355 353/353/353
f 783/783/783 782/782/782 646/646/646
f 646/646/646 781/781/781 780/780/780
f 645/645/645 351/351/351 779/779/779
f 778/778/778 777/777/777 645/645/645
f 644/644/644 350/350/350 776/776/776
f 775/775/775 774/774/774 644/644/644
f 643/643/643 349/349/349 348/348/348
f 348/348/348 773/773/773 643/643/643
f 344/344/344 347/347/347 346/346/346
f 346/346/346 345/345/345 344/344/344
f 404/404/404 342/342/342 343/343/343
f 343/343/343 342/342/342 341/341/341
f 340/340/340 338/338/338 339/339/339
f 339/339/339 338/338/338 337/337/337
f 406/406/406 335/335/335 336/336/336
f 336/336/336 335/335/335 334/334/334
f 333/333/333 332/332/332 405/405/405
f 405/405/405 332/332/332 331/331/331
f 330/330/330 328/328/328 329/329/329
f 329/329/329 328/328/328 327/327/327
f 641/641/641 324/324/324 411/411/411
f 411/411/411 642/642/642 641/641/641
f 323/323/323 322/322/322 326/326/326
f 326/326/326 325/325/325 323/323/323
f 772/772/772 771/771/771 640/640/640
f 640/640/640 770/770/770 769/769/769
f 639/639/639 321/321/321 768/768/768
f 767/767/767 766/766/766 639/639/639
f 638/638/638 320/320/320 765/765/765
f 764/764/764 763/763/763 638/638/638
f 637/637/637 319/319/319 318/318/318
f 318/318/318 762/762/762 637/637/637
f 314/314/314 317/317/317 316/316/316
f 316/316/316 315/315/315 314/314/314
f 410/410/410 401/401/401 313/313/313
f 313/313/313 401/401/401 312/312/312
f 402/402/402 310/310/310 311/311/311
f 311/311/311 310/310/310 309/309/309
f 308/308/308 306/306/306 307/307/307
f 307/307/307 306/306/306 305/305/305
f 409/409/409 303/303/303 304/304/304
f 304/304/304 303/303/303 302/302/302
f 403/403/403 300/300/300 301/301/301
f 301/301/301 300/300/300 299/299/299
f 636/636/636 761/761/761 635/635/635
f 634/634/634 297/297/297 760/760/760
f 633/633/633 296/296/296 759/759/759
f 294/294/294 298/298/298 295/295/295
f 632/632/632 758/758/758 757/757/757
f 631/631/631 288/288/288 629/629/629
f 630/630/630 287/287/287 756/756/756
f 291/291/291 286/286/286 285/285/285
f 755/755/755 754/754/754 753/753/753
f 752/752/752 751/751/751 750/750/750
f 628/628/628 629/629/629 288/288/288
f 288/288/288 293/293/293 628/628/628
f 749/749/749 748/748/748 287/287/287
f 287/287/287 292/292/292 747/747/747
f 289/289/289 285/285/285 286/286/286
f 286/286/286 290/290/290 289/289/289
f 624/624/624 627/627/627 626/626/626
f 626/626/626 625/625/625 624/624/624
f 281/281/281 283/283/283 284/284/284
f 284/284/284 282/282/282 281/281/281
f 620/620/620 623/623/623 622/622/622
f 622/622/622 621/621/621 620/620/620
f 279/279/279 277/277/277 278/278/278
f 278/278/278 280/280/280 279/279/279
f 616/616/616 619/619/619 618/618/618
f 618/618/618 617/617/617 616/616/616
f 273/273/273 274/274/274 275/275/275
f 275/275/275 276/276/276 273/273/273
f 612/612/612 615/615/615 614/614/614
f 614/614/614 613/613/613 612/612/612
f 271/271/271 272/272/272 270/270/270
f 270/270/270 269/269/269 271/271/271
f 608/608/608 611/611/611 610/610/610
f 610/610/610 609/609/609 608/608/608
f 605/605/605 607/607/607 606/606/606
f 606/606/606 268/268/268 605/605/605
f 746/746/746 745/745/745 604/604/604
f 604/604/604 267/267/267 744/744/744
f 265/265/265 603/603/603 602/602/602
f 602/602/602 266/266/266 265/265/265
f 264/264/264 263/263/263 261/261/261
f 263/263/263 262/262/262 261/261/261
f 598/598/598 601/601/601 600/600/600
f 600/600/600 599/599/599 598/598/598
f 258/258/258 257/257/257 259/259/259
f 259/259/259 260/260/260 258/258/258
f 254/254/254 253/253/253 255/255/255
f 255/255/255 256/256/256 254/254/254
f 596/596/596 743/743/743 742/742/742
f 741/741/741 597/597/597 596/596/596
f 249/249/249 250/250/250 252/252/252
f 252/252/252 251/251/251 249/249/249
f 740/740/740 739/739/739 595/595/595
f 595/595/595 738/738/738 737/737/737
f 594/594/594 248/248/248 736/736/736
f 735/735/735 734/734/734 594/594/594
f 593/593/593 247/247/247 733/733/733
f 732/732/732 731/731/731 593/593/593
f 592/592/592 246/246/246 245/245/245
f 245/245/245 730/730/730 592/592/592
f 241/241/241 244/244/244 243/243/243
f 243/243/243 242/242/242 241/241/241
f 407/407/407 400/400/400 240/240/240
f 240/240/240 400/400/400 239/239/239
f 238/238/238 236/236/236 237/237/237
f 237/237/237 236/236/236 235/235/235
f 408/408/408 233/233/233 234/234/234
f 234/234/234 233/233/233 232/232/232
f 231/231/231 229/229/229 230/230/230
f 230/230/230 229/229/229 228/228/228
f 227/227/227 225/225/225 226/226/226
f 226/226/226 225/225/225 224/224/224
f 729/729/729 728/728/728 727/727/727
f 223/223/223 222/222/222 590/590/590
f 222/222/222 591/591/591 590/590/590
f 221/221/221 220/220/220 218/218/218
f 220/220/220 219/219/219 218/218/218
f 588/588/588 726/726/726 725/725/725
f 724/724/724 589/589/589 588/588/588
f 215/215/215 216/216/216 217/217/217
f 217/217/217 214/214/214 215/215/215
f 723/723/723 722/722/722 721/721/721
f 720/720/720 719/719/719 718/718/718
f 587/587/587 213/213/213 717/717/717
f 716/716/716 715/715/715 587/587/587
f 714/714/714 212/212/212 586/586/586
f 586/586/586 713/713/713 712/712/712
f 584/584/584 211/211/211 210/210/210
f 210/210/210 585/585/585 584/584/584
f 206/206/206 209/209/209 208/208/208
f 208/208/208 207/207/207 206/206/206
f 202/202/202 203/203/203 204/204/204
f 204/204/204 205/205/205 202/202/202
f 198/198/198 199/199/199 200/200/200
f 200/200/200 201/201/201 198/198/198
f 194/194/194 195/195/195 196/196/196
f 196/196/196 197/197/197 194/194/194
f 190/190/190 191/191/191 192/192/192
f 192/192/192 193/193/193 190/190/190
f 186/186/186 187/187/187 188/188/188
f 188/188/188 189/189/189 186/186/186
f 182/182/182 183/183/183 185/185/185
f 185/185/185 184/184/184 182/182/182
f 164/164/164 180/180/180 181/181/181
f 181/181/181 165/165/165 164/164/164
f 161/161/161 178/178/178 179/179/179
f 179/179/179 162/162/162 161/161/161
f 156/156/156 583/583/583 582/582/582
f 582/582/582 157/157/157 156/156/156
f 581/581/581 711/711/711 710/710/710
f 580/580/580 170/170/170 578/578/578
f 579/579/579 169/169/169 709/709/709
f 173/173/173 168/168/168 167/167/167
f 708/708/708 707/707/707 706/706/706
f 705/705/705 704/704/704 703/703/703
f 577/577/577 578/578/578 170/170/170
f 170/170/170 175/175/175 577/577/577
f 702/702/702 701/701/701 169/169/169
f 169/169/169 174/174/174 700/700/700
f 171/171/171 167/167/167 168/168/168
f 168/168/168 172/172/172 171/171/171
f 162/162/162 158/158/158 155/155/155
f 155/155/155 161/161/161 162/162/162
f 180/180/180 163/163/163 166/166/166
f 166/166/166 181/181/181 180/180/180
f 160/160/160 156/156/156 157/157/157
f 157/157/157 159/159/159 160/160/160
f 160/160/160 159/159/159 179/179/179
f 179/179/179 178/178/178 160/160/160
f 176/176/176 155/155/155 158/158/158
f 158/158/158 177/177/177 176/176/176
f 576/576/576 699/699/699 698/698/698
f 575/575/575 149/149/149 573/573/573
f 574/574/574 148/148/148 697/697/697
f 152/152/152 147/147/147 146/146/146
f 696/696/696 695/695/695 694/694/694
f 693/693/693 692/692/692 691/691/691
f 572/572/572 573/573/573 149/149/149
f 149/149/149 154/154/154 572/572/572
f 690/690/690 689/689/689 148/148/148
f 148/148/148 153/153/153 688/688/688
f 150/150/150 146/146/146 147/147/147
f 147/147/147 151/151/151 150/150/150
f 570/570/570 687/687/687 686/686/686
f 685/685/685 571/571/571 570/570/570
f 144/144/144 569/569/569 568/568/568
f 568/568/568 567/567/567 144/144/144
f 141/141/141 138/138/138 566/566/566
f 566/566/566 143/143/143 141/141/141
f 564/564/564 565/565/565 145/145/145
f 145/145/145 142/142/142 564/564/564
f 139/139/139 138/138/138 141/141/141
f 141/141/141 140/140/140 139/139/139
f 560/560/560 563/563/563 562/562/562
f 562/562/562 561/561/561 560/560/560
f 134/134/134 136/136/136 137/137/137
f 137/137/137 135/135/135 134/134/134
f 131/131/131 128/128/128 559/559/559
f 559/559/559 558/558/558 131/131/131
f 133/133/133 129/129/129 130/130/130
f 130/130/130 132/132/132 133/133/133
f 556/556/556 125/125/125 127/127/127
f 127/127/127 557/557/557 556/556/556
f 126/126/126 549/549/549 555/555/555
f 555/555/555 554/554/554 126/126/126
f 124/124/124 548/548/548 553/553/553
f 553/553/553 552/552/552 124/124/124
f 118/118/118 544/544/544 551/551/551
f 551/551/551 550/550/550 118/118/118
f 543/543/543 549/549/549 126/126/126
f 126/126/126 119/119/119 543/543/543
f 114/114/114 548/548/548 124/124/124
f 124/124/124 113/113/113 114/114/114
f 545/545/545 547/547/547 546/546/546
f 546/546/546 117/117/117 545/545/545
f 125/125/125 544/544/544 118/118/118
f 118/118/118 127/127/127 125/125/125
f 120/120/120 123/123/123 122/122/122
f 122/122/122 121/121/121 120/120/120
f 542/542/542 543/543/543 119/119/119
f 119/119/119 116/116/116 542/542/542
f 113/113/113 112/112/112 115/115/115
f 115/115/115 114/114/114 113/113/113
f 538/538/538 541/541/541 540/540/540
f 540/540/540 539/539/539 538/538/538
f 536/536/536 102/102/102 105/105/105
f 105/105/105 537/537/537 536/536/536
f 104/104/104 529/529/529 535/535/535
f 535/535/535 534/534/534 104/104/104
f 103/103/103 528/528/528 533/533/533
f 533/533/533 532/532/532 103/103/103
f 100/100/100 524/524/524 531/531/531
f 531/531/531 530/530/530 100/100/100
f 523/523/523 529/529/529 104/104/104
f 104/104/104 101/101/101 523/523/523
f 99/99/99 528/528/528 103/103/103
f 103/103/103 98/98/98 99/99/99
f 525/525/525 527/527/527 526/526/526
f 526/526/526 93/93/93 525/525/525
f 102/102/102 524/524/524 100/100/100
f 100/100/100 105/105/105 102/102/102
f 95/95/95 94/94/94 97/97/97
f 97/97/97 96/96/96 95/95/95
f 522/522/522 523/523/523 101/101/101
f 101/101/101 92/92/92 522/522/522
f 98/98/98 90/90/90 91/91/91
f 91/91/91 99/99/99 98/98/98
f 518/518/518 521/521/521 520/520/520
f 520/520/520 519/519/519 518/518/518
f 88/88/88 89/89/89 87/87/87
f 87/87/87 86/86/86 88/88/88
f 514/514/514 517/517/517 516/516/516
f 516/516/516 515/515/515 514/514/514
f 84/84/84 85/85/85 83/83/83
f 83/83/83 82/82/82 84/84/84
f 513/513/513 78/78/78 512/512/512
f 79/79/79 81/81/81 80/80/80
f 106/106/106 511/511/511 510/510/510
f 509/509/509 508/508/508 507/507/507
f 506/506/506 505/505/505 504/504/504
f 108/108/108 107/107/107 503/503/503
f 499/499/499 502/502/502 501/501/501
f 501/501/501 500/500/500 499/499/499
f 74/74/74 73/73/73 72/72/72
f 72/72/72 75/75/75 74/74/74
f 495/495/495 498/498/498 497/497/497
f 497/497/497 496/496/496 495/495/495
f 70/70/70 68/68/68 69/69/69
f 69/69/69 71/71/71 70/70/70
f 491/491/491 494/494/494 493/493/493
f 493/493/493 492/492/492 491/491/491
f 66/66/66 64/64/64 65/65/65
f 65/65/65 67/67/67 66/66/66
f 487/487/487 490/490/490 489/489/489
f 489/489/489 488/488/488 487/487/487
f 62/62/62 60/60/60 61/61/61
f 61/61/61 63/63/63 62/62/62
f 484/484/484 486/486/486 485/485/485
f 485/485/485 57/57/57 484/484/484
f 481/481/481 56/56/56 483/483/483
f 483/483/483 482/482/482 481/481/481
f 479/479/479 54/54/54 55/55/55
f 55/55/55 480/480/480 479/479/479
f 52/52/52 53/53/53 59/59/59
f 59/59/59 58/58/58 52/52/52
f 478/478/478 477/477/477 476/476/476
f 475/475/475 474/474/474 473/473/473
f 27/27/27 77/77/77 472/472/472
f 472/472/472 471/471/471 27/27/27
f 470/470/470 468/468/468 110/110/110
f 111/111/111 109/109/109 469/469/469
f 109/109/109 47/47/47 469/469/469
f 468/468/468 467/467/467 110/110/110
f 463/463/463 466/466/466 465/465/465
f 465/465/465 464/464/464 463/463/463
f 462/462/462 461/461/461 460/460/460
f 46/46/46 459/459/459 458/458/458
f 457/457/457 456/456/456 455/455/455
f 45/45/45 454/454/454 453/453/453
f 452/452/452 25/25/25 451/451/451
f 76/76/76 44/44/44 450/450/450
f 28/28/28 449/449/449 448/448/448
f 448/448/448 26/26/26 28/28/28
f 33/33/33 38/38/38 43/43/43
f 446/446/446 447/447/447 41/41/41
f 41/41/41 36/36/36 446/446/446
f 43/43/43 42/42/42 37/37/37
f 37/37/37 33/33/33 43/43/43
f 41/41/41 40/40/40 36/36/36
f 40/40/40 684/684/684 34/34/34
f 34/34/34 36/36/36 40/40/40
f 39/39/39 38/38/38 33/33/33
f 33/33/33 34/34/34 39/39/39
f 446/446/446 36/36/36 445/445/445
f 445/445/445 36/36/36 34/34/34
f 37/37/37 35/35/35 33/33/33
f 32/32/32 29/29/29 30/30/30
f 30/30/30 31/31/31 32/32/32
f 48/48/48 51/51/51 50/50/50
f 50/50/50 49/49/49 48/48/48
f 441/441/441 444/444/444 443/443/443
f 443/443/443 442/442/442 441/441/441
f 23/23/23 24/24/24 22/22/22
f 22/22/22 21/21/21 23/23/23
f 437/437/437 440/440/440 439/439/439
f 439/439/439 438/438/438 437/437/437
f 19/19/19 20/20/20 18/18/18
f 18/18/18 17/17/17 19/19/19
f 433/433/433 436/436/436 435/435/435
f 435/435/435 434/434/434 433/433/433
f 15/15/15 16/16/16 14/14/14
f 14/14/14 13/13/13 15/15/15
f 429/429/429 432/432/432 431/431/431
f 431/431/431 430/430/430 429/429/429
f 11/11/11 12/12/12 10/10/10
f 10/10/10 9/9/9 11/11/11
f 425/425/425 428/428/428 427/427/427
f 427/427/427 426/426/426 425/425/425
f 7/7/7 8/8/8 6/6/6
f 6/6/6 5/5/5 7/7/7
f 421/421/421 424/424/424 423/423/423
f 423/423/423 422/422/422 421/421/421
f 3/3/3 4/4/4 2/2/2
f 2/2/2 1/1/1 3/3/3
