v 0.284651 -0.834763 0.65887
v -0.025095 -0.3864639999999999 0.65887
v -0.084532 -0.30224799999999996 0.65887
v -0.23837 -0.08118899999999996 0.65887
v -0.315004 0.02723800000000004 0.65887
v -0.479369 0.26449400000000006 0.65887
v 0.284651 -0.834763 0.671628
v -0.025095 -0.3864639999999999 0.671628
v -0.084532 -0.30224799999999996 0.671628
v -0.23837 -0.08118899999999996 0.671628
v -0.315004 0.02723800000000004 0.671628
v -0.479369 0.26449400000000006 0.671628
v -0.025095 -0.3864639999999999 0.536242
v -0.084532 -0.30224799999999996 0.536242
v -0.23837 -0.08118899999999997 0.411944
v -0.315004 0.027238000000000023 0.422969
v -0.084532 -0.30224799999999996 0.65887
v -0.025095 -0.3864639999999999 0.65887
v -0.315004 0.02723800000000004 0.65887
v -0.23837 -0.08118899999999996 0.65887
vt 0.000000 1.000000
vt 0.200000 1.000000
vt 0.400000 1.000000
vt 0.600000 1.000000
vt 0.800000 1.000000
vt 1.000000 1.000000
vt 0.000000 0.000000
vt 0.200000 0.000000
vt 0.400000 0.000000
vt 0.600000 0.000000
vt 0.800000 0.000000
vt 1.000000 0.000000
vt 0.092587 0.468965
vt 0.092587 0.442325
vt 0.147054 0.477960
vt 0.145947 0.446617
vt 0.068744 0.442325
vt 0.068744 0.468965
vt 0.122271 0.446617
vt 0.122271 0.477961
vn -0.82272 -0.568446 3.480727871940582E-17
vn -0.818922 -0.573905 3.514154606323309E-17
vn -0.819544 -0.573017 3.508717174535094E-17
vn -0.818021 -0.575188 3.522010715539839E-17
vn -0.820223 -0.572043 3.5027531446232466E-17
vn -0.822012 -0.56947 3.4869980635522163E-17
vn -0.82272 -0.568446 3.480727871940582E-17
vn -0.820826 -0.571179 3.49746267045093E-17
vn -0.818279 -0.574822 3.5197696118974E-17
vn -0.819415 -0.5732 3.509837726356315E-17
vn -0.818427 -0.574611 3.518477609524299E-17
vn -0.822012 -0.56947 3.4869980635522163E-17
vn -0.81701 -0.576624 3.530803679557717E-17
vn -0.81701 -0.576624 3.530803679557717E-17
vn -0.816622 -0.577173 3.534165335021377E-17
vn -0.816622 -0.577173 3.534165335021377E-17
vn -0.81701 -0.576624 3.530803679557717E-17
vn -0.81701 -0.576624 3.530803679557717E-17
vn -0.816622 -0.577173 3.534165335021377E-17
vn -0.816622 -0.577173 3.534165335021377E-17
g Cloth
f 19/19/19 16/16/16 15/15/15
f 15/15/15 20/20/20 19/19/19
f 17/17/17 14/14/14 13/13/13
f 13/13/13 18/18/18 17/17/17
g Line
f 5/5/5 11/11/11 12/12/12
f 12/12/12 6/6/6 5/5/5
f 4/4/4 10/10/10 11/11/11
f 11/11/11 5/5/5 4/4/4
f 3/3/3 9/9/9 10/10/10
f 10/10/10 4/4/4 3/3/3
f 2/2/2 8/8/8 9/9/9
f 9/9/9 3/3/3 2/2/2
f 1/1/1 7/7/7 8/8/8
f 8/8/8 2/2/2 1/1/1
