v 0.954104 -1.040654 0.6566290000000001
v 1.250662 -0.975293 0.023332000000000058
v 1.090801 -1.317574 0.02333200000000008
v 0.775241 -0.555546 0.860748
v -0.794475 1.148398 1.064361
v -0.172969 1.365863 1.078459
v 0.25098 0.08516500000000006 0.970936
v -0.36737 -0.032597999999999926 1.198675
v 0.122942 0.5394860000000001 1.014506
v -0.490788 0.30584200000000006 1.01137
v -0.334818 -0.09969699999999992 1.076409
v 0.232785 0.10798400000000007 1.09325
v 0.376811 -1.064636 0.6722670000000001
v 0.775241 -0.555546 0.851872
v 0.954104 -1.040654 0.6477530000000001
v 0.295056 -1.442347 0.023347000000000086
v 0.494888 -0.44766199999999995 0.939349
v -0.157718 -0.81729 0.656629
v -0.406023 -0.642467 0.023333000000000038
v -0.390758 -1.01993 0.023333000000000062
v 0.186272 -0.43722199999999994 0.860748
v 0.186272 -0.43722199999999994 0.851872
v -0.157718 -0.81729 0.647753
v 1.250662 -0.975293 0.014457000000000058
v 1.090801 -1.317574 0.014457000000000081
v 0.674096 -0.46940699999999996 0.743536
v 0.880112 -0.573472 0.733233
v 1.404656 -0.859536 0.01889500000000005
v 0.295056 -1.442347 0.014472000000000089
v 0.502712 -0.43413899999999994 0.880247
v -0.406023 -0.642467 0.01445700000000004
v -0.390758 -1.01993 0.014457000000000062
v -0.503361 -0.476217 0.018895000000000026
v 0.0846 -0.41365399999999997 0.733233
v 0.314822 -0.39722899999999994 0.743536
v 1.066815 -0.723319 0.817846
v 0.674096 -0.46940699999999996 0.743536
v 0.880112 -0.573472 0.733233
v 1.404656 -0.859536 0.01889500000000005
v 0.502712 -0.43413899999999994 0.880247
v -0.503361 -0.476217 0.018895000000000026
v 0.0846 -0.41365399999999997 0.733233
v -0.1315 -0.48257799999999995 0.817846
v 0.314822 -0.39722899999999994 0.743536
v 0.494888 -0.44766199999999995 0.930474
v 0.376811 -1.064636 0.6633920000000001
v 1.066815 -0.723319 0.817846
v -0.1315 -0.48257799999999995 0.817846
v 0.775241 -0.555546 0.860748
v 1.066815 -0.723319 0.817846
v 0.775241 -0.555546 0.860748
v 0.775241 -0.555546 0.860748
v 1.066815 -0.723319 0.817846
v 1.066815 -0.723319 0.817846
v 0.494888 -0.44766199999999995 0.939349
v -0.36737 -0.032597999999999926 1.198675
v 0.232785 0.10798400000000007 1.09325
v 0.232785 0.10798400000000007 1.09325
v 1.066815 -0.723319 0.817846
v 1.066815 -0.723319 0.817846
v 1.066815 -0.723319 0.817846
v 0.494888 -0.44766199999999995 0.939349
v 0.376811 -1.064636 0.6722670000000001
v 0.295056 -1.442347 0.023347000000000086
v 0.186272 -0.43722199999999994 0.860748
v -0.1315 -0.48257799999999995 0.817846
v 0.502712 -0.43413899999999994 0.880247
v 0.494888 -0.44766199999999995 0.939349
v 0.186272 -0.43722199999999994 0.860748
v 0.186272 -0.43722199999999994 0.860748
v 0.186272 -0.43722199999999994 0.860748
v 0.295056 -1.442347 0.014472000000000089
v 0.376811 -1.064636 0.6633920000000001
v -0.1315 -0.48257799999999995 0.817846
v -0.1315 -0.48257799999999995 0.817846
v 0.502712 -0.43413899999999994 0.880247
v 0.494888 -0.44766199999999995 0.930474
v 0.494888 -0.44766199999999995 0.930474
v 1.066815 -0.723319 0.817846
v 0.494888 -0.44766199999999995 0.930474
v -0.1315 -0.48257799999999995 0.817846
v 0.494888 -0.44766199999999995 0.930474
v -0.1315 -0.48257799999999995 0.817846
vt 0.894332 0.642766
vt 0.791212 0.800302
vt 0.842951 0.907842
vt 0.935509 0.443145
vt 0.671890 0.263447
vt 0.563069 0.263447
vt 0.563069 0.676817
vt 0.671890 0.629956
vt 0.563069 0.506933
vt 0.671890 0.516128
vt 0.671890 0.676817
vt 0.563069 0.629956
vt 0.995566 0.683371
vt 0.760104 0.800266
vt 0.775974 0.863366
vt 0.995566 0.994666
vt 0.995566 0.401624
vt 0.894332 0.642766
vt 0.791212 0.800302
vt 0.842951 0.907842
vt 0.935509 0.443145
vt 0.760103 0.800266
vt 0.775974 0.863366
vt 0.809912 0.913164
vt 0.793973 0.949355
vt 0.755238 0.778751
vt 0.768372 0.792277
vt 0.819786 0.899395
vt 0.742984 0.977964
vt 0.741533 0.784927
vt 0.809912 0.913164
vt 0.793973 0.949355
vt 0.819786 0.899395
vt 0.768372 0.792277
vt 0.755238 0.778751
vt 0.876012 0.497391
vt 0.946421 0.374435
vt 0.908829 0.422817
vt 0.759705 0.759618
vt 0.995566 0.382393
vt 0.759705 0.759618
vt 0.908829 0.422817
vt 0.876012 0.497391
vt 0.946421 0.374435
vt 0.741578 0.790983
vt 0.742240 0.879072
vt 0.780267 0.815341
vt 0.780267 0.815341
vt 0.935509 0.443145
vt 0.876012 0.497391
vt 0.935509 0.443145
vt 0.935509 0.443145
vt 0.876012 0.497391
vt 0.876012 0.497391
vt 0.995566 0.401624
vt 0.671890 0.629956
vt 0.563069 0.629956
vt 0.563069 0.629956
vt 0.780267 0.815341
vt 0.780267 0.815341
vt 0.780267 0.815341
vt 0.995566 0.401624
vt 0.995566 0.683371
vt 0.995566 0.994666
vt 0.935509 0.443145
vt 0.876012 0.497391
vt 0.995566 0.382393
vt 0.995566 0.401624
vt 0.935509 0.443145
vt 0.935509 0.443145
vt 0.935509 0.443145
vt 0.742984 0.977964
vt 0.742240 0.879072
vt 0.780267 0.815341
vt 0.780267 0.815341
vt 0.741533 0.784927
vt 0.741578 0.790983
vt 0.741578 0.790983
vt 0.780267 0.815341
vt 0.741578 0.790983
vt 0.780267 0.815341
vt 0.741578 0.790983
vt 0.780267 0.815341
vn 0.389952 -0.606432 0.692948
vn 0.75908 -0.542761 0.35945400000000005
vn 0.380684 -0.80125 0.46160500000000004
vn 0.377222 0.4623070000000001 0.802481
vn -0.000599 -0.06298399999999994 0.998014
vn 0.010388 -0.06626199999999995 0.997748
vn 0.3294 -0.918133 0.22029000000000007
vn 0.217701 -0.21551299999999995 0.951925
vn -0.022958 0.04690200000000006 0.998636
vn -0.002401 0.13497600000000007 0.990846
vn 0.30886 -0.874466 0.37405000000000005
vn 0.202465 -0.3735879999999999 0.905229
vn -0.112423 -0.698429 0.706794
vn -0.443984 -0.846091 -0.29497199999999996
vn -0.235041 0.63848 -0.73287
vn -0.168825 -0.842456 0.51163
vn 0.012962 0.24250500000000005 0.970064
vn -0.536321 -0.39175199999999993 0.74759
vn -0.909705 -0.20091799999999999 0.363414
vn -0.659116 -0.592518 0.46312900000000007
vn -0.142125 0.725477 0.673412
vn 0.079475 -0.954227 -0.2883299999999999
vn 0.668947 0.48090399999999994 -0.566781
vn -0.725526 0.591611 -0.35158100000000003
vn -0.507888 0.738365 -0.44369600000000003
vn -0.429871 -0.858075 -0.28092399999999995
vn -0.473304 -0.830799 -0.29284299999999996
vn -0.55345 0.750136 -0.36192300000000005
vn 0.247908 0.836842 -0.48809500000000006
vn -0.195084 -0.934732 -0.2970169999999999
vn 0.908433 0.20914399999999997 -0.361952
vn 0.782158 0.44938 -0.431609
vn 0.798195 0.477153 -0.36771000000000004
vn 0.124271 -0.947469 -0.29471699999999995
vn 0.058587 -0.957092 -0.28380099999999997
vn 0.65241 -0.2977699999999999 0.696918
vn 0.427005 0.864075 0.26653499999999997
vn 0.478135 0.833789 0.27601299999999995
vn 0.566038 -0.739001 0.36534800000000006
vn 0.196215 0.942358 0.2710369999999999
vn -0.805574 -0.461748 0.37126700000000007
vn -0.127874 0.952054 0.27792399999999995
vn -0.716066 -0.01764399999999996 0.69781
vn -0.053714 0.961588 0.26918999999999993
vn -0.069777 -0.17845800000000006 -0.98147
vn 0.092631 0.672224 -0.73453
vn -0.712263 0.34633899999999995 -0.610517
vn 0.621047 0.12155299999999995 -0.77429
vn 0.377222 0.4623070000000001 0.802481
vn 0.65241 -0.2977699999999999 0.696918
vn 0.377222 0.4623070000000001 0.802481
vn 0.377222 0.4623070000000001 0.802481
vn 0.65241 -0.2977699999999999 0.696918
vn 0.65241 -0.2977699999999999 0.696918
vn 0.012962 0.24250500000000005 0.970064
vn 0.217701 -0.21551299999999995 0.951925
vn 0.202465 -0.3735879999999999 0.905229
vn 0.202465 -0.3735879999999999 0.905229
vn -0.712263 0.34633899999999995 -0.610517
vn -0.712263 0.34633899999999995 -0.610517
vn -0.712263 0.34633899999999995 -0.610517
vn 0.012962 0.24250500000000005 0.970064
vn -0.112423 -0.698429 0.706794
vn -0.168825 -0.842456 0.51163
vn -0.142125 0.725477 0.673412
vn -0.716066 -0.01764399999999996 0.69781
vn 0.196215 0.942358 0.2710369999999999
vn 0.012962 0.24250500000000005 0.970064
vn -0.142125 0.725477 0.673412
vn -0.142125 0.725477 0.673412
vn -0.142125 0.725477 0.673412
vn 0.247908 0.836842 -0.48809500000000006
vn 0.092631 0.672224 -0.73453
vn 0.621047 0.12155299999999995 -0.77429
vn 0.621047 0.12155299999999995 -0.77429
vn -0.195084 -0.934732 -0.2970169999999999
vn -0.069777 -0.17845800000000006 -0.98147
vn -0.069777 -0.17845800000000006 -0.98147
vn -0.712263 0.34633899999999995 -0.610517
vn -0.069777 -0.17845800000000006 -0.98147
vn 0.621047 0.12155299999999995 -0.77429
vn -0.069777 -0.17845800000000006 -0.98147
vn 0.621047 0.12155299999999995 -0.77429
g 01
f 83/83/83 82/82/82 73/73/73
f 73/73/73 23/23/23 81/81/81
f 80/80/80 79/79/79 15/15/15
f 15/15/15 46/46/46 78/78/78
f 22/22/22 34/34/34 35/35/35
f 76/76/76 77/77/77 22/22/22
f 22/22/22 35/35/35 76/76/76
f 23/23/23 32/32/32 31/31/31
f 31/31/31 75/75/75 23/23/23
f 33/33/33 74/74/74 31/31/31
f 48/48/48 34/34/34 22/22/22
f 72/72/72 32/32/32 23/23/23
f 23/23/23 73/73/73 72/72/72
f 42/42/42 71/71/71 44/44/44
f 67/67/67 44/44/44 70/70/70
f 69/69/69 68/68/68 67/67/67
f 18/18/18 43/43/43 19/19/19
f 19/19/19 20/20/20 18/18/18
f 41/41/41 19/19/19 43/43/43
f 42/42/42 66/66/66 65/65/65
f 20/20/20 64/64/64 63/63/63
f 63/63/63 18/18/18 20/20/20
f 63/63/63 62/62/62 18/18/18
f 62/62/62 21/21/21 18/18/18
f 21/21/21 43/43/43 18/18/18
f 14/14/14 26/26/26 27/27/27
f 30/30/30 26/26/26 14/14/14
f 14/14/14 45/45/45 30/30/30
f 25/25/25 15/15/15 61/61/61
f 60/60/60 24/24/24 25/25/25
f 28/28/28 24/24/24 59/59/59
f 47/47/47 14/14/14 27/27/27
f 25/25/25 29/29/29 46/46/46
f 46/46/46 15/15/15 25/25/25
f 11/11/11 7/7/7 58/58/58
f 57/57/57 56/56/56 11/11/11
f 10/10/10 8/8/8 12/12/12
f 12/12/12 9/9/9 10/10/10
f 10/10/10 9/9/9 6/6/6
f 6/6/6 5/5/5 10/10/10
f 37/37/37 4/4/4 38/38/38
f 40/40/40 55/55/55 4/4/4
f 4/4/4 37/37/37 40/40/40
f 1/1/1 3/3/3 2/2/2
f 2/2/2 54/54/54 1/1/1
f 39/39/39 53/53/53 2/2/2
f 17/17/17 13/13/13 52/52/52
f 13/13/13 1/1/1 51/51/51
f 1/1/1 50/50/50 49/49/49
f 38/38/38 4/4/4 36/36/36
f 13/13/13 16/16/16 3/3/3
f 3/3/3 1/1/1 13/13/13
