v 1.154904 -0.897215 0.25795100000000004
v 1.41257 -1.370949 0.2579510000000001
v 1.154904 -0.897215 0.593926
v 1.41257 -1.370949 0.5939260000000001
v 0.959053 -1.203935 0.5939260000000001
v 0.959053 -1.203935 0.25795100000000004
v 1.412284 -1.387095 0.2579510000000001
v 1.412284 -1.387095 0.5939260000000001
vt 0.833237 0.994020
vt 0.910884 0.994020
vt 0.833237 0.894769
vt 0.910884 0.894769
vt 0.910455 0.786050
vt 0.910455 0.885302
vt 0.840069 0.885302
vt 0.840069 0.786050
vn 0.878468 0.477802 -2.925693449631018E-17
vn 0.878468 0.477802 -2.925693449631018E-17
vn 0.878468 0.477802 -2.925693449631018E-17
vn 0.878468 0.477802 -2.925693449631018E-17
vn -0.374681 -0.927154 5.677180892083326E-17
vn -0.374681 -0.927154 5.677180892083326E-17
vn -0.374681 -0.927154 5.677180892083326E-17
vn -0.374681 -0.927154 5.677180892083326E-17
g 01
f 5/5/5 6/6/6 7/7/7
f 7/7/7 8/8/8 5/5/5
f 2/2/2 1/1/1 3/3/3
f 3/3/3 4/4/4 2/2/2
