v 0.0050766 0.44173439999999997 0.06080159999999997
v 0.2916798 0.4143606 0.060292199999999976
v 0.2916798 -0.4138266 0.060292200000000025
v 0.0050766 -0.4453302 0.06080160000000002
v -0.275925 0.41436120000000004 0.060292199999999976
v -0.275925 -0.4138266 0.060292200000000025
v -0.4321284 -0.4138266 0.060292200000000025
v -0.4321284 0.41436120000000004 0.060292199999999976
v 0.4373226 0.4143606 0.060292199999999976
v 0.4373226 -0.4138266 0.060292200000000025
v -0.275925 0.41436120000000004 0.060292199999999976
v -0.275925 -0.4138266 0.060292200000000025
v 0.2916798 -0.4138266 0.060292200000000025
v 0.2916798 0.4143606 0.060292199999999976
v 0.0050766 0.44173439999999997 0.06080159999999997
v 0.0050766 -0.4453302 0.06080160000000002
vt 0.768761 0.685037
vt 0.745538 0.875029
vt 0.042897 0.875030
vt 0.016169 0.685038
vt 0.745538 0.875029
vt 0.042897 0.875030
vt 0.042897 0.980643
vt 0.745538 0.980642
vt 0.745538 0.980642
vt 0.042897 0.980643
vt 0.745538 0.875029
vt 0.042897 0.875030
vt 0.042897 0.875030
vt 0.745538 0.875029
vt 0.768761 0.685037
vt 0.016169 0.685038
vn -1.8E-05 6.123233995736766E-17 1
vn 0.001777 6.123221749268775E-17 0.999998
vn 0.001777 6.123221749268775E-17 0.999998
vn -1.8E-05 6.123233995736766E-17 1
vn -0.001812 6.123221749268775E-17 0.999998
vn -0.001812 6.123221749268775E-17 0.999998
vn 0 6.123233995736766E-17 1
vn 0 6.123233995736766E-17 1
vn 0 6.123233995736766E-17 1
vn 0 6.123233995736766E-17 1
vn 0 6.123233995736766E-17 1
vn 0 6.123233995736766E-17 1
vn 0 6.123233995736766E-17 1
vn 0 6.123233995736766E-17 1
vn -1.8E-05 6.123233995736766E-17 1
vn -1.8E-05 6.123233995736766E-17 1
g water
f 13/13/13 10/10/10 9/9/9
f 9/9/9 14/14/14 13/13/13
f 11/11/11 8/8/8 7/7/7
f 7/7/7 12/12/12 11/11/11
f 15/15/15 5/5/5 6/6/6
f 6/6/6 16/16/16 15/15/15
f 1/1/1 4/4/4 3/3/3
f 3/3/3 2/2/2 1/1/1
