v -1.4008529745 0.6602569155 -0.01232639100000004
v -0.9857506365 0.5870759265 -0.012326391000000037
v -1.4407808625 0.433775034 -0.012326391000000027
v -1.025678493 0.36059404500000003 -0.012326391000000023
v -1.393393617 0.6542989425 0.21764817899999997
v -0.9947976255000001 0.5840279865 0.21764817899999997
v -1.431733779 0.43682294250000003 0.21764817899999997
v -1.0331378505 0.366552018 0.21764817899999997
v -0.969553872 0.5925326399999999 0.10539298349999995
v -1.4142073050000001 0.670923414 0.10539298349999995
v -1.012324194 0.34992754649999996 0.10539298349999997
v -1.456977627 0.4283182575 0.11077768799999997
v -1.437808491 0.550011546 0.21764817899999997
v -0.9887229765000001 0.470839446 0.21764817899999997
v -0.9794243970000001 0.46920012299999997 -0.012326391000000029
v -1.4471070705 0.5516508059999999 -0.012326391000000034
v -0.9475001235 0.46357198650000003 0.10539298349999997
v -1.4790313755000002 0.5572789425 0.10539298349999997
v -1.2348640709999998 0.387913806 0.21764817899999997
v -1.1916673965 0.6329371545 0.21764817899999997
v -1.1907730484999999 0.6380104815000001 -0.012326391000000039
v -1.2357584504999999 0.382840479 -0.012326391000000023
v -1.187702271 0.6554285325 0.10539298349999995
v -1.2388291965 0.3654223965 0.10539298349999997
v -1.2132657495 0.5104254645 0.2530480364999999
v -1.4286656475 0.275331735 0.21054206249999996
v -1.1019650355 0.537668334 0.2564948294999999
v -1.2869287515 0.09532759950000003 0.2304783495
v -0.9602281395000001 0.35766416700000003 0.2764311165
v -1.4513842665 0.276968664 0.4395848625
v -1.1376748215 0.5288736285000001 0.48371037749999996
v -1.315283508 0.10412230500000003 0.4587284205
v -1.001574 0.3560272065 0.502853904
v -1.1117779155 0.55341342 0.37399275899999995
v -1.4617363005000001 0.27240113250000003 0.324768591
v -0.959950782 0.36059476949999997 0.3953482785
v -1.3106592765 0.07958251350000002 0.351456336
v -1.403202528 0.17459130150000005 0.446361993
v -1.0497558015 0.45840460050000004 0.49607677349999996
v -1.0104053085 0.464281146 0.26937335249999994
v -1.3784886045000002 0.1687147875 0.21759982649999998
v -1.001676312 0.4844566755 0.38947929299999995
v -1.420010802 0.14853922650000004 0.33063754500000003
v -1.1498088735 0.21912767100000002 0.482003613
v -1.3031494245 0.41386823100000003 0.46043518499999997
v -1.27429218 0.417900483 0.23225579999999996
v -1.114601733 0.2150954505 0.254717379
v -1.3015893555 0.4317440715 0.3472943985
v -1.1200977585 0.20125186200000003 0.37282247100000004
v -1.2314098755 0.31649795100000006 0.5062742055
v -1.4507540145 0.1805036625 -0.012326391000000011
v -1.0551518144999998 0.3259832625 -0.01232639100000002
v -1.371379779 -0.035338905 -0.012326390999999999
v -0.975777453 0.11014072650000001 -0.012326391000000008
v -1.441310409 0.1791046845 0.217648179
v -1.06143912 0.3187993725 0.21764817899999997
v -1.365092379 -0.028154951999999987 0.217648179
v -0.9852210585000001 0.111539673 0.217648179
v -1.0438957935000002 0.338844492 0.10539298349999998
v -1.4676608205000001 0.18300822749999998 0.10539298349999998
v -0.958870773 0.10763616150000001 0.1053929835
v -1.3826358 -0.0482000715 0.110777688
v -1.4272602435 0.06662741400000001 0.217648179
v -0.9992712555 0.224016975 0.217648179
v -0.990409455 0.2272758075 -0.012326391000000015
v -1.4361220125 0.06336858149999999 -0.012326391000000004
v -0.959984928 0.2384642295 0.10539298349999998
v -1.4665466655000001 0.052180159500000003 0.1053929835
v -1.170329454 0.028565743500000015 0.217648179
v -1.2562020135 0.262078677 0.21764817899999997
v -1.2579800625000002 0.2669137065 -0.012326391000000016
v -1.168551405 0.0237306825 -0.012326391000000003
v -1.2640844475000002 0.283513482 0.10539298349999998
v -1.16244702 0.007130875500000006 0.1053929835
v -1.2132657495 0.14532219450000003 0.25304803649999996
v 0.857975832 1.1987777025 -0.007256623500000073
v 0.7764349005000001 1.1818135665 0.10026437399999993
v 0.867505716 1.1186188965 0.09061545149999993
v 0.75223386 1.0504234125 0.09277717049999994
v 0.8834292180000001 1.190375424 -0.010907347500000074
v 0.8633064825000001 1.1050463655 0.07637382899999993
v 0.96885306 1.1326801185 0.06917620499999994
v 0.9461526165 1.0130987475 0.10706925599999995
v 0.871667181 1.2589179435 -0.010597419000000077
v 0.7638525405 1.261152837 0.059507122499999926
v 0.8198827245 1.166394726 0.05252426549999993
v 0.695714355 1.15684443 0.05078102399999993
v 0.8532507690000001 1.4421375045 -0.01328572350000009
v 0.8140658715000001 1.3720596434999999 0.09492931349999992
v 0.9210385485 1.3991930505 0.11471389649999991
v 0.8976067695000001 1.2697409025 0.1375683434999999
v 1.2272414175 1.3378966019999998 -0.012646305000000082
v 1.302180075 1.3067117910000001 0.09540742049999992
v 1.264803876 1.410898734 0.09146651849999991
v 1.3957182855 1.3978725705000001 0.09854841149999992
v 1.1933431964999999 1.023611337 -0.009001723500000064
v 1.2630204090000001 1.1017654515 0.05541590249999993
v 1.155612276 1.124459532 0.05393023649999993
v 1.230695613 1.2222938385 0.04765931099999992
v 0.932981049 1.258097589 -0.005047528500000077
v 1.0221595335 1.3170973410000002 0.05450161499999992
v 0.921520404 1.364077953 0.06532394399999991
v 1.0204152524999999 1.4406636824999999 0.058272038999999914
v 1.1077830855000002 1.0443125385 -0.010507203000000066
v 1.1062567845 1.1342830904999999 0.07685369999999993
v 1.0107615735 1.0803040920000002 0.05673241349999994
v 1.002018276 1.202307246 0.08657296199999993
v 0.850401468 1.260713538 -0.004793607000000077
v 0.8166243645 1.3429293885000002 0.08806804649999991
v 0.745438869 1.2592098225000001 0.06876194849999992
v 0.6952469265 1.3702598595 0.06787506599999991
v 1.1441117205 1.2791476215 0.01529391149999992
v 1.1763961335 1.2021614955 0.13819465799999991
v 1.2152835135000002 1.3055651910000001 0.1320124994999999
v 1.3050675855 1.207511613 0.11976766199999993
v 0.8903078415 1.1816604765 0.02688707699999993
v 0.971587512 1.1759544089999998 0.12219420149999993
v 0.925200738 1.281988512 0.08674936199999991
v 1.036348362 1.2782777490000001 0.12450642749999992
v 1.2061677284999999 1.323720972 0.024773615999999922
v 1.2264543585 1.21592457 0.09766111949999993
v 1.302663852 1.2895657425 0.09637465949999992
v 1.3479321240000002 1.184357664 0.05428048499999993
v 1.177636698 1.398627216 -0.016252299000000085
v 1.2152212695000002 1.47073941 0.09879530849999991
v 1.105738641 1.4450135805 0.08803437299999992
v 1.128137976 1.5731886555 0.0996808364999999
v 1.2198980115 1.3031065530000001 0.02706810749999992
v 1.2321488655 1.3869250290000001 0.12178810349999993
v 1.142955513 1.327138281 0.10908046799999992
v 1.120845285 1.4573169449999999 0.08685580049999991
v 1.114750602 1.4336335755 -0.013595683500000089
v 1.0236271815000002 1.4868843885 0.06039898199999991
v 1.0298629215 1.372948731 0.05114176199999992
v 0.9178645455 1.421326242 0.05875200449999991
v 1.1661995834999999 1.2707137169999998 0.024679714499999925
v 1.0877920515000001 1.3436399024999999 0.05449827599999992
v 1.0684921905 1.2364366455 0.07069072499999993
v 0.971541837 1.31108922 0.046413202499999924
v 1.1052435555 1.430018352 -0.014080941000000088
v 1.0507919625 1.3618169775 0.07357634549999992
v 1.1581873695 1.341323172 0.07615219499999992
v 1.086191253 1.2438797805000001 0.09702891449999994
v 1.1562248565 1.2701268405 0.02224835549999992
v 1.0860763725 1.220354163 0.10287068399999993
v 1.1810519595 1.167632424 0.10322893349999993
v 1.089421452 1.096920342 0.12689012699999994
v 0.9218657385 1.4206042935 0.12582079649999992
v 0.9886657725 1.4206042935 0.12582079649999992
v 0.9218657385 1.3560803865 0.14310991799999992
v 0.9886657725 1.3560803865 0.14310991799999992
v 1.0653694065 1.28607633 0.1452702824999999
v 1.1183141655 1.273316814 0.1534049369999999
v 1.0557138375 1.2270486690000002 0.11552577749999994
v 1.108658817 1.2142890585 0.12366040049999993
v 1.1282862464999999 1.2835826955 0.14026521599999991
v 1.194071382 1.2835826955 0.12866552999999992
v 1.1282862464999999 1.2167826615 0.14026521599999991
v 1.194071382 1.2167826615 0.12866552999999992
v 0.8197137585000001 1.297154754 0.11839996349999993
v 0.9079926975 1.29715488 0.15053078249999993
v 0.8197137585000001 1.2032106345000002 0.11839996349999994
v 0.9079924455 1.2032105085 0.15053078249999993
v 1.0557135855 1.3374421515 0.14001302699999993
v 1.0653694065 1.3981701195 0.11391455249999992
v 1.1183144175000002 1.3961999205 0.1289178134999999
v 1.1086585965000002 1.3354719525 0.15501628799999992
v 0.6445315484999999 1.404294444 0.07163660699999992
v 0.6583422510000001 1.236306141 0.06660989999999993
v 0.5742728775 1.3969458719999999 0.12418484399999992
v 0.5880836745 1.2289575689999999 0.11915816849999993
v 0.486674181 1.3895974260000001 0.1290919769999999
v 0.5072298525 1.221609123 0.14259668849999993
v 0.7291551015 1.347412059 0.11641303799999991
v 0.6098097284999999 1.291760505 0.11641303799999991
v 0.7043318414999999 1.4006455785 0.1515967424999999
v 0.5849865945 1.3449938985 0.1515967424999999
v 0.6753997215 1.4626908765000002 0.1504951244999999
v 0.55693575 1.4051491649999999 0.1582778294999999
v 0.7107926489999999 1.3200000029999999 -0.0010216710000000807
v 0.6131160315 1.2636064665 -0.0010216710000000772
v 0.6796638450000001 1.373916663 0.13249013399999993
v 0.581987196 1.317522969 0.13249013399999993
v 0.61537581 1.259692623 0.001085773499999923
v 0.7130523015 1.316086191 0.0010857734999999192
v 0.5842468799999999 1.313609031 0.1345975469999999
v 0.6819236235 1.3700028195 0.1345975469999999
v 0.593579574 1.3498903215 -0.0010216710000000827
v 0.7063669305 1.3498903215 -0.0010216710000000827
v 0.5935797 1.287632808 0.13249013399999993
v 0.7063669305 1.287632808 0.13249013399999993
v 0.7063668045 1.3544097525 0.001085773499999917
v 0.5935797 1.3544097525 0.001085773499999917
v 0.7063669305 1.292152239 0.1345975469999999
v 0.593579574 1.292152239 0.1345975469999999
v 0.7343218890000001 1.268574363 0.016283767499999924
v 0.5634485955 1.368425205 0.010381675499999916
v 0.774570699 1.3410987030000001 0.07798328999999991
v 0.6036974055 1.4409495765 0.07208119799999993
v 0.826497441 1.430300718 0.08374498649999991
v 0.651081753 1.523664324 0.09960155099999991
v 0.595170513 1.3110169905000002 0.11887857449999992
v 0.7475803019999999 1.3110169905000002 0.11887857449999992
v 0.595170513 1.2332075175 0.1338932069999999
v 0.7475803019999999 1.2332075175 0.1338932069999999
v 0.595170513 1.1591872424999998 0.10559521349999992
v 0.7475803019999999 1.158374574 0.11488519349999994
v 1.477876365 1.1296659465 -0.00814870350000007
v 1.28315565 1.058793246 -0.008148703500000064
v 1.4114505195 1.3121697015 0.05880649949999992
v 1.2167295525 1.241296875 0.05880649949999992
v 1.345024674 1.4946732360000001 -0.008148703500000092
v 1.150303707 1.4238006300000001 -0.008148703500000088
v 1.3712274135 1.2750335955 0.08347981949999991
v 1.3601399804999998 1.1483023860000001 0.08347981949999993
v 1.252447749 1.2854254139999999 0.14040901349999993
v 1.2413600955 1.1586943305 0.14040901349999993
v 1.133667864 1.2958173270000002 0.08347981949999991
v 1.1225804309999998 1.1690861490000002 0.08347981949999993
v 1.4173202295 1.2550408605 -0.010376005500000077
v 1.470951846 1.05488397 -0.010376005500000065
v 1.2297215700000002 1.2047740740000001 0.06907864949999992
v 1.2833534385 1.0046171835 0.06907864949999994
v 1.0421229105 1.15450713 -0.01037600550000007
v 1.0957549995 0.9543502395 -0.010376005500000058
v 1.3010490989999999 1.156241205 0.14863665599999992
v 1.42059204 1.1127309165 0.14863665599999995
v 1.269883629 1.070614881 0.25416455399999993
v 1.389426822 1.0271047185 0.25416455399999993
v 1.227130128 0.9531506565 0.2712751964999999
v 1.346673321 0.909640494 0.2712751964999999
v 1.260289359 1.2279015945 0.07673399999999993
v 1.424359377 1.1989717425000002 0.07673399999999993
v 1.2331745685 1.074125808 0.13056535799999994
v 1.397244618 1.0451959560000001 0.13056535799999994
v 1.2060598095 0.9203498955 0.07673399999999994
v 1.3701298275 0.8914199805 0.07673399999999994
v 1.3694266529999999 1.236854682 0.14921225549999992
v 1.336501026 1.113974127 0.14921225549999995
v 1.272360915 1.2628632555 0.2374635059999999
v 1.2394353195 1.139982921 0.23746350599999994
v 1.1529766080000001 1.2948522930000002 0.24846223499999992
v 1.1200510125 1.1719718639999999 0.24846223499999992
v 1.258090596 1.2466698299999999 -0.009035680500000077
v 1.4653082745 1.2466698299999999 -0.009035680500000077
v 1.258090848 1.0524533355 0.06289712099999993
v 1.4653085264999999 1.0524533355 0.06289712099999993
v 1.258090848 0.8582369985 -0.009035680500000053
v 1.4653082745 0.8582370615 -0.009035680500000053
v 1.323210294 1.1089436085000002 0.15236175149999995
v 1.396178028 1.213152318 0.15236175149999992
v 1.4208806745 1.0405540844999999 0.19652276699999996
v 1.4938484085 1.1447627625 0.19652276699999993
v 1.518551055 0.9721646549999999 0.15236175149999995
v 1.5915185685000002 1.076373207 0.15236175149999995
v 1.300494195 1.0468438785 0.07573170149999993
v 1.3436134739999999 1.2077679285 0.07573170149999993
v 1.45132155 1.006429662 0.13961247299999993
v 1.4944413015 1.1673538695 0.1396124729999999
v 1.6021491255 0.96601554 0.07573170149999994
v 1.6452686564999999 1.1269397159999999 0.07573170149999993
v 1.4281135155 1.1832921765 0.15034162499999992
v 1.3028308965 1.2053829375 0.15034162499999992
v 1.4460101145 1.2847888935 0.24288405749999992
v 1.320727464 1.3068795285 0.24288405749999992
v 1.46811168 1.4101341345 0.22544770499999991
v 1.3428292815 1.4322247694999999 0.22544770499999991
v 1.4303598435 1.1217546585 0.08317099349999993
v 1.320188184 1.185362325 0.08317099349999993
v 1.4899763025 1.2250139580000001 0.1273320089999999
v 1.3798048635 1.2886213725 0.1273320089999999
v 1.549593234 1.3282730055 0.08317099349999992
v 1.4394215745 1.3918807665000001 0.08317099349999992
v 1.3308199695 1.0661134680000002 -0.012741655500000065
v 1.243245906 1.253916405 -0.012741655500000077
v 1.506839733 1.1481929235000001 0.07998892649999992
v 1.4192656694999999 1.3359958605000002 0.0799889264999999
v 1.682859465 1.2302721584999998 -0.012741655500000075
v 1.5952854330000001 1.4180750954999999 -0.012741655500000088
v 1.3600537019999999 -0.23617742400000002 -0.011955163499999985
v 1.452782016 -0.282541581 0.02567697300000002
v 1.309876029 -0.2868723585 0.10896779250000002
v 1.402604343 -0.333236484 0.10812787650000003
v 1.2596981355 -0.3867106005 0.11022716250000003
v 1.352426481 -0.4330748205 0.14785926750000003
v 1.4568437520000002 -0.2857650075 -0.022455782999999983
v 1.3880182680000002 -0.20498804550000002 -0.002432146499999987
v 1.5203244105 -0.2447234685 0.08156578500000002
v 1.451499147 -0.1639465065 0.10158939000000002
v 1.601325054 -0.1782932445 0.10218105450000002
v 1.5324993180000002 -0.09751628249999998 0.1222046595
v 1.4408570295 -0.237592404 0.021575830500000014
v 1.369288683 -0.25676910000000003 -0.016336309499999986
v 1.4217299774999999 -0.1662096555 0.02157583050000001
v 1.3301924895 -0.19073706750000002 0.06351644250000002
v 1.3826337525 -0.100177686 0.101428614
v 1.311065406 -0.119354319 0.06351644250000002
v 1.3888718865 -0.2969423415 0.021575830500000018
v 1.431369702 -0.23624902350000002 -0.016336309499999986
v 1.4494078305 -0.3393301275 0.02157583050000002
v 1.5037637895 -0.2617019055 0.06351644250000002
v 1.521801918 -0.36478291500000004 0.10142861400000003
v 1.5642997335 -0.3040896285 0.06351644250000002
v 1.3722619995 -0.120885219 -0.008741375999999992
v 1.2928881104999999 -0.19199571299999998 0.01877450400000001
v 1.342772109 -0.05375645099999999 0.0796751865
v 1.2633986925 -0.1248670395 0.07906109400000003
v 1.266307119 0.031950135000000005 0.080596026
v 1.186933482 -0.039160390499999996 0.108111906
v 1.288271691 -0.194659731 -0.01641924899999999
v 1.3915037115 -0.1594068525 -0.0017783639999999902
v 1.303504524 -0.27085517550000004 0.059639359500000017
v 1.406736765 -0.2356023285 0.07428024450000001
v 1.3363834995 -0.3733953615 0.07471286550000003
v 1.43961552 -0.338142483 0.08935375050000001
v 1.3600306125000001 -0.178579107 0.02073033900000001
v 1.3185791955 -0.0792343125 -0.0022128119999999954
v 1.4413148505000002 -0.129701502 0.08551632600000002
v 1.3998636855 -0.030356707499999996 0.06257317500000001
v 1.5453980955 -0.093842154 0.052741710000000004
v 1.5039469305 0.005502609000000002 0.029798559
v 0.153854505 0.240195312 0.14344413299999997
v 0.065948904 0.17162135550000002 0.143444133
v 0.13557061350000002 0.30578962049999997 0.18679748849999997
v 0.047664918 0.2372156955 0.18679748849999997
v 0.114260202 0.3822417585 0.1854400905
v 0.027003627 0.31133894399999995 0.19502995049999997
v 0.023927337 0.202935852 0.11999606849999998
v 0.147206367 0.2716858305 0.10157455349999998
v 0.0602643825 0.14577248699999998 0.14983126200000002
v 0.18354328649999999 0.21452243399999998 0.1314097785
v 0.094831758 0.08109952200000001 0.1397977245
v 0.2184903945 0.15146019 0.129927546
v 0.087912783 0.26563572 0.08707633199999998
v 0.09759468600000001 0.147868623 0.083552427
v 0.01820133 0.2583444465 0.13921522649999998
v 0.0278833275 0.1405772865 0.13569129000000002
v -0.0687146985 0.25105311 0.1440841185
v -0.052340463000000004 0.1332859815 0.15894720450000002
v 0.0218486205 0.2432490165 -0.001258929000000015
v 0.160825014 0.243249048 -0.001258929000000015
v 0.0218486205 0.1665352395 0.1632543255
v 0.16082513999999998 0.16653527099999998 0.1632543255
v 0.160825014 0.2488178385 0.0013378679999999847
v 0.0218486205 0.2488177755 0.0013378679999999847
v 0.160825014 0.172104093 0.16585109099999998
v 0.0218486205 0.1721039985 0.16585109099999998
v 0.1662785145 0.20641824 -0.0012589290000000128
v 0.0459213615 0.136929996 -0.0012589290000000085
v 0.1279215315 0.2728542915 0.16325432549999996
v 0.0075645045 0.20336601599999998 0.1632543255
v 0.048705772499999994 0.1321072515 0.001337867999999992
v 0.16906292550000002 0.201595527 0.0013378364999999878
v 0.010348915500000002 0.198543303 0.16585109099999998
v 0.1307059425 0.26803161000000003 0.16585109099999995
v 0.127147797 0.18406643849999998 0.01838667599999999
v 0.053876277 0.226883034 0.014852123999999987
v 0.1546705125 0.23365984950000002 0.07731026099999999
v 0.0813992445 0.276476445 0.07377574049999998
v 0.190179045 0.2946577725 0.082812744
v 0.11380131 0.33303825449999996 0.100057923
v 0.1218778155 0.13940441550000002 0.08680694399999998
v 0.12187768950000001 0.2533447035 0.08680694399999998
v 0.17786667150000002 0.13940444700000001 0.06744301199999998
v 0.17786667150000002 0.253344735 0.06744301199999998
v 0.21521209500000002 0.13940447849999998 0.02145345299999999
v 0.219210894 0.2533447665 0.027164308499999987
v -0.7435023435000001 -1.2829810455 0.08827062300000009
v -0.6607416375 -1.4734731060000001 0.08207671500000008
v -0.8225490735000001 -1.3194287505 0.15302057400000008
v -0.739788336 -1.509920811 0.14682669750000008
v -0.9218242845 -1.362756402 0.1590671250000001
v -0.831195099 -1.550572443 0.17570766150000008
v -0.622214271 -1.315764261 0.14344413300000008
v -0.7393601879999999 -1.4280367185 0.14344416450000008
v -0.672292908 -1.263511872 0.1867975200000001
v -0.7894388250000001 -1.375784235 0.1867975200000001
v -0.7306609905 -1.2026101814999999 0.1854400590000001
v -0.8460288585 -1.3167375795 0.19502995050000008
v -0.6327597150000001 -1.3550278770000002 -0.001258897499999917
v -0.724332987 -1.459568817 -0.0012588974999999105
v -0.6904654155 -1.3044803625 0.16325432550000007
v -0.782038593 -1.4090211765 0.16325432550000007
v -0.7201439595000001 -1.4632380944999999 0.0013378995000000895
v -0.6285707819999999 -1.358697186 0.0013378680000000834
v -0.777849723 -1.4126904855 0.16585109100000006
v -0.686276451 -1.3081496715 0.16585109100000006
v -0.7813569015 -1.3666629060000002 -0.0012588974999999164
v -0.6497817165 -1.321914573 -0.0012588974999999192
v -0.756656208 -1.439291322 0.16325432550000007
v -0.625081023 -1.394542863 0.16325432550000007
v -0.6515747909999999 -1.316642166 0.0013378995000000807
v -0.783149976 -1.361390625 0.0013378680000000834
v -0.626874066 -1.389270582 0.16585109100000006
v -0.7584492825 -1.434019041 0.16585109100000006
v -0.584907876 -1.405684854 0.02006487000000009
v -0.823860954 -1.3569949575 0.012792307500000084
v -0.5667284385 -1.3051107405000002 0.09609100200000009
v -0.805681485 -1.2564208125 0.08881847100000008
v -0.5415427395 -1.1804475375 0.10319056650000008
v -0.783221103 -1.141127946 0.12272904000000007
v -0.7640779545 -1.4113805895 0.1464821820000001
v -0.586280142 -1.3509118035 0.1464821820000001
v -0.7332070095000001 -1.5021514305 0.16498320300000008
v -0.5554090079999999 -1.4416828019999999 0.16498320300000008
v -0.7038394335 -1.5885018765 0.13011440400000007
v -0.5257190294999999 -1.5289813035 0.14156153550000009
v -0.989464203 -1.1698324784999998 7.163158001668198e-17
v -0.9286499565 -1.396794357 8.552898691835677e-17
v -1.1029451895 -1.2002397120000001 0.044546323500000075
v -1.0421308485 -1.4272014645 0.04454632350000008
v -1.2164261445 -1.2306468195 7.535538441907728e-17
v -1.1556118035 -1.4576087295 8.925279324957076e-17
v -1.049115564 -1.355714136 8.301354886056098e-17
v -0.8626142385 -1.2251244915 7.501723935362519e-17
v -0.9838207575 -1.448964909 0.07463969100000009
v -0.797319432 -1.318375296 0.07463969100000009
v -0.918525951 -1.5422155875 0.0357187635000001
v -0.732024531 -1.4116258485 0.035718763500000084
v -0.9383035725 -1.37923506 -0.003332164499999916
v -1.0140390225 -1.2480573735 -0.0033321644999999237
v -0.897034194 -1.3554081765 0.07367972850000008
v -0.97276977 -1.224230616 0.07367972850000007
v -0.828113517 -1.315616841 0.08221918950000008
v -0.9038489985000001 -1.184438997 0.08221918950000007
v -0.8786553930000001 -1.286107326 -0.0010134179999999214
v -1.0440913139999999 -1.286107326 -0.0010134179999999214
v -0.8786553930000001 -1.198456623 0.08901021150000007
v -1.0440913139999999 -1.198456749 0.08901021150000007
v -0.878655456 -1.073153907 0.09828844200000006
v -1.0440913139999999 -1.073153907 0.09828844200000006
v -1.0331378505 0.366552018 0.21764817899999997
v -0.9887229765000001 0.470839446 0.21764817899999997
v -1.2348640709999998 0.387913806 0.21764817899999997
v -1.437808491 0.550011546 0.21764817899999997
v -1.393393617 0.6542989425 0.21764817899999997
v -1.1916673965 0.6329371545 0.21764817899999997
v -1.431733779 0.43682294250000003 0.21764817899999997
v -1.456977627 0.4283182575 0.11077768799999997
v -0.9947976255000001 0.5840279865 0.21764817899999997
v -0.969553872 0.5925326399999999 0.10539298349999995
v -0.9857506365 0.5870759265 -0.012326391000000037
v -1.4407808625 0.433775034 -0.012326391000000027
v -1.431733779 0.43682294250000003 0.21764817899999997
v -0.9947976255000001 0.5840279865 0.21764817899999997
v -1.001574 0.3560272065 0.502853904
v -1.0497558015 0.45840460050000004 0.49607677349999996
v -1.1498088735 0.21912767100000002 0.482003613
v -1.403202528 0.17459130150000005 0.446361993
v -1.4513842665 0.276968664 0.4395848625
v -1.3031494245 0.41386823100000003 0.46043518499999997
v -1.315283508 0.10412230500000003 0.4587284205
v -1.3106592765 0.07958251350000002 0.351456336
v -1.1376748215 0.5288736285000001 0.48371037749999996
v -1.1117779155 0.55341342 0.37399275899999995
v -1.1019650355 0.537668334 0.2564948294999999
v -1.2869287515 0.09532759950000003 0.2304783495
v -1.315283508 0.10412230500000003 0.4587284205
v -1.1376748215 0.5288736285000001 0.48371037749999996
v -0.9852210585000001 0.111539673 0.217648179
v -0.9992712555 0.224016975 0.217648179
v -1.170329454 0.028565743500000015 0.217648179
v -1.4272602435 0.06662741400000001 0.217648179
v -1.441310409 0.1791046845 0.217648179
v -1.2562020135 0.262078677 0.21764817899999997
v -1.365092379 -0.028154951999999987 0.217648179
v -1.3826358 -0.0482000715 0.110777688
v -1.06143912 0.3187993725 0.21764817899999997
v -1.0438957935000002 0.338844492 0.10539298349999998
v -1.0551518144999998 0.3259832625 -0.01232639100000002
v -1.371379779 -0.035338905 -0.012326390999999999
v -1.365092379 -0.028154951999999987 0.217648179
v -1.06143912 0.3187993725 0.21764817899999997
vt 0.311536 0.123788
vt 0.250792 0.123782
vt 0.311531 0.123796
vt 0.250792 0.123782
vt 0.311536 0.063336
vt 0.250792 0.063322
vt 0.311542 0.063327
vt 0.313061 0.123951
vt 0.250792 0.093552
vt 0.311536 0.093562
vt 0.250802 0.093562
vt 0.311537 0.093561
vt 0.280553 0.063326
vt 0.313032 0.093692
vt 0.280532 0.123792
vt 0.280532 0.123778
vt 0.280537 0.093567
vt 0.280543 0.093552
vt 0.343488 0.123938
vt 0.280532 0.063332
vt 0.280522 0.123782
vt 0.280522 0.123786
vt 0.280527 0.093557
vt 0.280548 0.093561
vt 0.343483 0.093710
vt 0.311536 0.123788
vt 0.250792 0.123782
vt 0.311531 0.123796
vt 0.250792 0.123782
vt 0.311536 0.063336
vt 0.250792 0.063322
vt 0.311542 0.063327
vt 0.313061 0.123951
vt 0.250792 0.093552
vt 0.311536 0.093562
vt 0.250802 0.093562
vt 0.311537 0.093561
vt 0.280553 0.063326
vt 0.313032 0.093692
vt 0.280532 0.123792
vt 0.280532 0.123778
vt 0.280537 0.093567
vt 0.280543 0.093552
vt 0.343488 0.123938
vt 0.280532 0.063332
vt 0.280522 0.123782
vt 0.280522 0.123786
vt 0.280527 0.093557
vt 0.280548 0.093561
vt 0.343483 0.093710
vt 0.311536 0.123788
vt 0.250792 0.123782
vt 0.311531 0.123796
vt 0.250792 0.123782
vt 0.311536 0.063336
vt 0.250792 0.063322
vt 0.311542 0.063327
vt 0.313061 0.123951
vt 0.250792 0.093552
vt 0.311536 0.093562
vt 0.250802 0.093562
vt 0.311537 0.093561
vt 0.280553 0.063326
vt 0.313032 0.093692
vt 0.280532 0.123792
vt 0.280532 0.123778
vt 0.280537 0.093567
vt 0.280543 0.093552
vt 0.343488 0.123938
vt 0.280532 0.063332
vt 0.280522 0.123782
vt 0.280522 0.123786
vt 0.280527 0.093557
vt 0.280548 0.093561
vt 0.343483 0.093710
vt 0.547145 0.747558
vt 0.532392 0.718115
vt 0.561897 0.718115
vt 0.547145 0.688672
vt 0.547512 0.628368
vt 0.562265 0.657811
vt 0.532760 0.657811
vt 0.547512 0.687254
vt 0.516610 0.626267
vt 0.531362 0.655710
vt 0.501857 0.655710
vt 0.516610 0.685154
vt 0.547145 0.747558
vt 0.532392 0.718115
vt 0.561897 0.718115
vt 0.547145 0.688672
vt 0.547145 0.747558
vt 0.532392 0.718115
vt 0.561897 0.718115
vt 0.547145 0.688672
vt 0.516610 0.626267
vt 0.531362 0.655710
vt 0.501857 0.655710
vt 0.516610 0.685154
vt 0.516610 0.626267
vt 0.531362 0.655710
vt 0.501857 0.655710
vt 0.516610 0.685154
vt 0.547512 0.628368
vt 0.562265 0.657811
vt 0.532760 0.657811
vt 0.547512 0.687254
vt 0.547512 0.628368
vt 0.562265 0.657811
vt 0.532760 0.657811
vt 0.547512 0.687254
vt 0.547145 0.747558
vt 0.532392 0.718115
vt 0.561897 0.718115
vt 0.547145 0.688672
vt 0.547512 0.628368
vt 0.562265 0.657811
vt 0.532760 0.657811
vt 0.547512 0.687254
vt 0.516610 0.626267
vt 0.531362 0.655710
vt 0.501857 0.655710
vt 0.516610 0.685154
vt 0.547145 0.747558
vt 0.532392 0.718115
vt 0.561897 0.718115
vt 0.547145 0.688672
vt 0.547145 0.747558
vt 0.532392 0.718115
vt 0.561897 0.718115
vt 0.547145 0.688672
vt 0.516610 0.626267
vt 0.531362 0.655710
vt 0.501857 0.655710
vt 0.516610 0.685154
vt 0.516610 0.626267
vt 0.531362 0.655710
vt 0.501857 0.655710
vt 0.516610 0.685154
vt 0.547512 0.628368
vt 0.562265 0.657811
vt 0.532760 0.657811
vt 0.547512 0.687254
vt 0.547512 0.628368
vt 0.562265 0.657811
vt 0.532760 0.657811
vt 0.547512 0.687254
vt 0.502664 0.590983
vt 0.528797 0.590983
vt 0.502664 0.564787
vt 0.528797 0.564787
vt 0.502664 0.590983
vt 0.528797 0.590983
vt 0.502664 0.564787
vt 0.528797 0.564787
vt 0.502664 0.590983
vt 0.528797 0.590983
vt 0.502664 0.564787
vt 0.528797 0.564787
vt 0.502664 0.590983
vt 0.528797 0.590983
vt 0.502664 0.564787
vt 0.528797 0.564787
vt 0.502664 0.564787
vt 0.502664 0.590983
vt 0.528797 0.590983
vt 0.528797 0.564787
vt 0.745567 0.626290
vt 0.692515 0.626290
vt 0.745567 0.655733
vt 0.692515 0.655733
vt 0.745567 0.685176
vt 0.692515 0.685176
vt 0.621392 0.688672
vt 0.565760 0.688672
vt 0.621392 0.718115
vt 0.565760 0.718115
vt 0.621392 0.747558
vt 0.565760 0.747558
vt 0.691020 0.564570
vt 0.748427 0.564570
vt 0.691020 0.503011
vt 0.748427 0.503011
vt 0.691020 0.564570
vt 0.748427 0.564570
vt 0.691020 0.503011
vt 0.748427 0.503011
vt 0.691020 0.564570
vt 0.748427 0.564570
vt 0.691020 0.503011
vt 0.748427 0.503011
vt 0.691020 0.564570
vt 0.748427 0.564570
vt 0.691020 0.503011
vt 0.748427 0.503011
vt 0.745567 0.626290
vt 0.692515 0.626290
vt 0.745567 0.655733
vt 0.692515 0.655733
vt 0.745567 0.685176
vt 0.692515 0.685176
vt 0.621392 0.688672
vt 0.565760 0.688672
vt 0.621392 0.718115
vt 0.565760 0.718115
vt 0.621392 0.747558
vt 0.565760 0.747558
vt 0.531362 0.626267
vt 0.501857 0.626267
vt 0.531362 0.655710
vt 0.501857 0.655710
vt 0.531362 0.685154
vt 0.501857 0.685154
vt 0.532392 0.747558
vt 0.561897 0.747558
vt 0.532392 0.718115
vt 0.561897 0.718115
vt 0.532392 0.688672
vt 0.561897 0.688672
vt 0.532392 0.685634
vt 0.561897 0.685634
vt 0.532392 0.656191
vt 0.561897 0.656191
vt 0.532392 0.626747
vt 0.561897 0.626747
vt 0.532392 0.685634
vt 0.561897 0.685634
vt 0.532392 0.656191
vt 0.561897 0.656191
vt 0.532392 0.626747
vt 0.561897 0.626747
vt 0.531362 0.626267
vt 0.501857 0.626267
vt 0.531362 0.655710
vt 0.501857 0.655710
vt 0.531362 0.685154
vt 0.501857 0.685154
vt 0.531362 0.626267
vt 0.501857 0.626267
vt 0.531362 0.655710
vt 0.501857 0.655710
vt 0.531362 0.685154
vt 0.501857 0.685154
vt 0.531362 0.688672
vt 0.501857 0.688672
vt 0.531362 0.718115
vt 0.501857 0.718115
vt 0.531362 0.747558
vt 0.501857 0.747558
vt 0.531362 0.688672
vt 0.501857 0.688672
vt 0.531362 0.718115
vt 0.501857 0.718115
vt 0.531362 0.747558
vt 0.501857 0.747558
vt 0.532392 0.685634
vt 0.561897 0.685634
vt 0.532392 0.656191
vt 0.561897 0.656191
vt 0.532392 0.626747
vt 0.561897 0.626747
vt 0.532392 0.747558
vt 0.561897 0.747558
vt 0.532392 0.718115
vt 0.561897 0.718115
vt 0.532392 0.688672
vt 0.561897 0.688672
vt 0.531362 0.688672
vt 0.501857 0.688672
vt 0.531362 0.718115
vt 0.501857 0.718115
vt 0.531362 0.747558
vt 0.501857 0.747558
vt 0.532392 0.747558
vt 0.561897 0.747558
vt 0.532392 0.718115
vt 0.561897 0.718115
vt 0.532392 0.688672
vt 0.561897 0.688672
vt 0.531362 0.688672
vt 0.501857 0.688672
vt 0.531362 0.718115
vt 0.501857 0.718115
vt 0.531362 0.747558
vt 0.501857 0.747558
vt 0.532392 0.747558
vt 0.561897 0.747558
vt 0.532392 0.718115
vt 0.561897 0.718115
vt 0.532392 0.688672
vt 0.561897 0.688672
vt 0.531362 0.626267
vt 0.501857 0.626267
vt 0.531362 0.655710
vt 0.501857 0.655710
vt 0.531362 0.685154
vt 0.501857 0.685154
vt 0.531362 0.626267
vt 0.501857 0.626267
vt 0.531362 0.655710
vt 0.501857 0.655710
vt 0.531362 0.685154
vt 0.501857 0.685154
vt 0.531362 0.688672
vt 0.501857 0.688672
vt 0.531362 0.718115
vt 0.501857 0.718115
vt 0.531362 0.747558
vt 0.501857 0.747558
vt 0.532392 0.747558
vt 0.561897 0.747558
vt 0.532392 0.718115
vt 0.561897 0.718115
vt 0.532392 0.688672
vt 0.561897 0.688672
vt 0.531362 0.688672
vt 0.501857 0.688672
vt 0.531362 0.718115
vt 0.501857 0.718115
vt 0.531362 0.747558
vt 0.501857 0.747558
vt 0.621392 0.688672
vt 0.565760 0.688672
vt 0.621392 0.718115
vt 0.565760 0.718115
vt 0.621392 0.747558
vt 0.565760 0.747558
vt 0.621392 0.688672
vt 0.565760 0.688672
vt 0.621392 0.718115
vt 0.565760 0.718115
vt 0.621392 0.747558
vt 0.565760 0.747558
vt 0.745567 0.626290
vt 0.692515 0.626290
vt 0.745567 0.655733
vt 0.692515 0.655733
vt 0.745567 0.685176
vt 0.692515 0.685176
vt 0.691020 0.564570
vt 0.748427 0.564570
vt 0.691020 0.503011
vt 0.748427 0.503011
vt 0.691020 0.564570
vt 0.748427 0.564570
vt 0.691020 0.503011
vt 0.748427 0.503011
vt 0.691020 0.564570
vt 0.748427 0.564570
vt 0.691020 0.503011
vt 0.748427 0.503011
vt 0.691020 0.564570
vt 0.748427 0.564570
vt 0.691020 0.503011
vt 0.748427 0.503011
vt 0.745567 0.626290
vt 0.692515 0.626290
vt 0.745567 0.655733
vt 0.692515 0.655733
vt 0.745567 0.685176
vt 0.692515 0.685176
vt 0.621392 0.688672
vt 0.565760 0.688672
vt 0.621392 0.718115
vt 0.565760 0.718115
vt 0.621392 0.747558
vt 0.565760 0.747558
vt 0.745567 0.626290
vt 0.692515 0.626290
vt 0.745567 0.655733
vt 0.692515 0.655733
vt 0.745567 0.685176
vt 0.692515 0.685176
vt 0.621392 0.688672
vt 0.565760 0.688672
vt 0.621392 0.718115
vt 0.565760 0.718115
vt 0.621392 0.747558
vt 0.565760 0.747558
vt 0.691020 0.564570
vt 0.748427 0.564570
vt 0.691020 0.503011
vt 0.748427 0.503011
vt 0.691020 0.564570
vt 0.748427 0.564570
vt 0.691020 0.503011
vt 0.748427 0.503011
vt 0.691020 0.564570
vt 0.748427 0.564570
vt 0.691020 0.503011
vt 0.748427 0.503011
vt 0.691020 0.564570
vt 0.748427 0.564570
vt 0.691020 0.503011
vt 0.748427 0.503011
vt 0.745567 0.626290
vt 0.692515 0.626290
vt 0.745567 0.655733
vt 0.692515 0.655733
vt 0.745567 0.685176
vt 0.692515 0.685176
vt 0.621392 0.688672
vt 0.565760 0.688672
vt 0.621392 0.718115
vt 0.565760 0.718115
vt 0.621392 0.747558
vt 0.565760 0.747558
vt 0.689785 0.747558
vt 0.747517 0.747558
vt 0.689785 0.718115
vt 0.747517 0.718115
vt 0.689785 0.688672
vt 0.747517 0.688672
vt 0.628857 0.747558
vt 0.686589 0.747558
vt 0.628857 0.718115
vt 0.686589 0.718115
vt 0.628857 0.688672
vt 0.686589 0.688672
vt 0.628857 0.747558
vt 0.686589 0.747558
vt 0.628857 0.718115
vt 0.686589 0.718115
vt 0.628857 0.688672
vt 0.686589 0.688672
vt 0.689785 0.747558
vt 0.747517 0.747558
vt 0.689785 0.718115
vt 0.747517 0.718115
vt 0.689785 0.688672
vt 0.747517 0.688672
vt 0.250813 0.063343
vt 0.280543 0.063343
vt 0.280574 0.063337
vt 0.374185 0.093729
vt 0.374204 0.063532
vt 0.343478 0.063483
vt 0.250827 0.063315
vt 0.250806 0.093542
vt 0.311530 0.063343
vt 0.311530 0.093573
vt 0.311530 0.123803
vt 0.250785 0.123767
vt 0.374167 0.123925
vt 0.313004 0.063433
vt 0.250813 0.063343
vt 0.280543 0.063343
vt 0.280574 0.063337
vt 0.374185 0.093729
vt 0.374204 0.063532
vt 0.343478 0.063483
vt 0.250827 0.063315
vt 0.250806 0.093542
vt 0.311530 0.063343
vt 0.311530 0.093573
vt 0.311530 0.123803
vt 0.250785 0.123767
vt 0.374167 0.123925
vt 0.313004 0.063433
vt 0.250813 0.063343
vt 0.280543 0.063343
vt 0.280574 0.063337
vt 0.374185 0.093729
vt 0.374204 0.063532
vt 0.343478 0.063483
vt 0.250827 0.063315
vt 0.250806 0.093542
vt 0.311530 0.063343
vt 0.311530 0.093573
vt 0.311530 0.123803
vt 0.250785 0.123767
vt 0.374167 0.123925
vt 0.313004 0.063433
vn -0.475549 0.8588 -0.19056600000000007
vn 0.740558 0.644405 -0.19056600000000004
vn -0.740413 -0.645449 -0.18757699999999997
vn 0.475549 -0.8588 -0.19056599999999996
vn -0.363134 0.690581 0.625485
vn 0.577396 0.524769 0.625485
vn -0.576126 -0.522279 0.628731
vn 0.363134 -0.690581 0.625485
vn 0.742165 0.668955 0.04112899999999996
vn -0.468663 0.882419 0.04112899999999994
vn 0.468663 -0.882419 0.041129000000000054
vn -0.742247 -0.668341 0.04888100000000004
vn -0.617227 0.10881500000000004 0.779224
vn 0.617227 -0.10881499999999995 0.779224
vn 0.949472 -0.16738800000000004 -0.26549
vn -0.949472 0.16738799999999998 -0.26549
vn 0.983795 -0.173439 0.04545700000000001
vn -0.983586 0.174028 0.047672999999999986
vn -0.127298 -0.722067 0.680011
vn 0.127298 0.722067 0.680011
vn 0.171692 0.973882 -0.14857700000000004
vn -0.171692 -0.973882 -0.14857699999999993
vn 0.17356 0.984482 0.02592199999999994
vn -0.173368 -0.984484 0.02710400000000006
vn 0 6.123233995736766E-17 1
vn -0.922385 0.21308399999999997 -0.322182
vn 0.034735 0.98164 -0.18755600000000006
vn 0.018804 -0.982222 -0.18677899999999995
vn 0.975471 -0.213084 -0.055234999999999985
vn -0.837532 0.18577200000000002 0.513837
vn -0.097301 0.780169 0.617956
vn -0.078407 -0.777567 0.623892
vn 0.66329 -0.18577199999999994 0.724938
vn -0.014686 0.999113 0.03946799999999994
vn -0.967652 0.233894 -0.09457300000000002
vn 0.956194 -0.233894 0.17602900000000002
vn 0.00164 -0.998768 0.04959300000000006
vn -0.594315 -0.39007499999999995 0.7033
vn 0.377245 0.39007500000000006 0.839957
vn 0.784248 0.600047 -0.15779300000000002
vn -0.71029 -0.600047 -0.3680109999999999
vn 0.767951 0.621739 0.15392199999999998
vn -0.781222 -0.621193 -0.061741999999999964
vn 0.357168 -0.573887 0.736943
vn -0.5466 0.573887 0.609821
vn -0.58878 0.774026 -0.23285500000000006
vn 0.63017 -0.774026 -0.06140099999999995
vn -0.619719 0.78245 -0.060991000000000045
vn 0.612461 -0.782308 0.11351700000000005
vn -0.139286 6.063544710746324E-17 0.990252
vn -0.842901 0.503193 -0.19056600000000004
vn 0.316077 0.929398 -0.19056600000000007
vn -0.315427 -0.930226 -0.18757699999999994
vn 0.842901 -0.503193 -0.19056599999999999
vn -0.661143 0.4143160000000001 0.625485
vn 0.235204 0.743941 0.625485
vn -0.235358 -0.74115 0.628731
vn 0.661143 -0.41431699999999994 0.625485
vn 0.305121 0.951425 0.04112899999999994
vn -0.848826 0.52707 0.041128999999999964
vn 0.848826 -0.52707 0.041129000000000034
vn -0.305501 -0.950936 0.048881000000000056
vn -0.588231 -0.21631699999999995 0.779225
vn 0.588231 0.21631700000000006 0.779224
vn 0.904869 0.332758 -0.26549
vn -0.904869 -0.332758 -0.26549
vn 0.93758 0.344787 0.04545699999999998
vn -0.937695 -0.344174 0.04767300000000002
vn 0.25306 -0.688147 0.680011
vn -0.25306 0.688147 0.680011
vn -0.341313 0.928133 -0.14857700000000004
vn 0.341313 -0.928133 -0.14857699999999993
vn -0.345028 0.938234 0.02592199999999994
vn 0.345195 -0.938139 0.02710400000000006
vn -0 6.123233995736766E-17 1
vn 0.526948 0.68195 0.507218
vn 0.339224 0.35590600000000006 0.87078
vn 0.339224 0.35590600000000006 0.87078
vn 0.058646 -0.06755799999999995 0.99599
vn -0.143542 0.723993 0.674707
vn -0.081983 0.532552 0.842417
vn -0.081983 0.532552 0.842417
vn -0.014802 0.30459700000000006 0.952366
vn 0.530898 0.25434900000000005 0.808365
vn 0.277009 0.09332200000000006 0.956325
vn 0.277009 0.09332200000000006 0.956325
vn -0.007982 -0.07818399999999995 0.996907
vn -0.296447 0.84704 0.44118299999999994
vn -0.287934 0.578936 0.762842
vn -0.287934 0.578936 0.762842
vn -0.228912 0.20927600000000005 0.950686
vn -0.825112 -0.27738499999999994 0.492187
vn -0.501618 -0.14770999999999995 0.852385
vn -0.501618 -0.14770999999999995 0.852385
vn -0.052115 0.019071000000000064 0.998459
vn -0.129513 -0.55937 0.818738
vn -0.06875 -0.26237499999999997 0.962514
vn -0.06875 -0.26237499999999997 0.962514
vn -0.000248 0.06415600000000006 0.99794
vn -0.17307 -0.557737 0.811773
vn -0.041866 -0.30858599999999997 0.950275
vn -0.041866 -0.30858599999999997 0.950275
vn 0.09346 -0.029046999999999937 0.995199
vn 0.234276 -0.67519 0.699452
vn 0.087359 -0.47994499999999995 0.872938
vn 0.087359 -0.47994499999999995 0.872938
vn -0.067404 -0.24159999999999995 0.968032
vn 0.479671 -0.563048 0.672973
vn 0.166879 -0.35409699999999994 0.920199
vn 0.166879 -0.35409699999999994 0.920199
vn -0.179727 -0.07339799999999995 0.980974
vn -0.835183 0.339938 0.432332
vn -0.428253 0.21355100000000005 0.878063
vn -0.428253 0.21355100000000005 0.878063
vn 0.141518 0.005963000000000061 0.989918
vn -0.759039 -0.11803399999999996 0.640256
vn -0.56205 0.030415000000000053 0.826544
vn -0.56205 0.030415000000000053 0.826544
vn -0.31136 0.17595800000000006 0.93386
vn -0.42307 0.45154900000000003 0.785567
vn -0.091319 0.11179000000000006 0.989527
vn -0.091319 0.11179000000000006 0.989527
vn 0.264823 -0.2578269999999999 0.92919
vn 0.153875 -0.859063 0.4881940000000001
vn 0.042261 -0.533265 0.844892
vn 0.042261 -0.533265 0.844892
vn -0.079742 -0.07637299999999994 0.993886
vn 0.395157 -0.712706 0.57957
vn 0.103616 -0.35228199999999993 0.93014
vn 0.103616 -0.35228199999999993 0.93014
vn -0.222926 0.12714400000000006 0.966508
vn 0.61953 -0.02982599999999995 0.784406
vn 0.343748 -0.05734299999999994 0.93731
vn 0.343748 -0.05734299999999994 0.93731
vn 0.033525 -0.07911399999999995 0.996302
vn 0.406547 0.06446400000000005 0.911353
vn 0.151164 0.12097200000000005 0.981079
vn 0.151164 0.12097200000000005 0.981079
vn -0.115296 0.16861600000000004 0.978915
vn 0.126118 0.743456 0.656785
vn 0.074253 0.49772800000000006 0.864149
vn 0.074253 0.49772800000000006 0.864149
vn 0.014512 0.19920500000000005 0.97985
vn 0.348017 0.631644 0.692755
vn 0.235662 0.43045500000000003 0.871305
vn 0.235662 0.43045500000000003 0.871305
vn 0.10328 0.19268600000000005 0.97581
vn 0 0.2588190000000001 0.965926
vn 0 0.2588190000000001 0.965926
vn 0 0.2588190000000001 0.965926
vn 0 0.2588190000000001 0.965926
vn -0.233719 -0.40678099999999995 0.883122
vn -0.233719 -0.40678099999999995 0.883122
vn -0.233719 -0.40678099999999995 0.883122
vn -0.233719 -0.40678099999999995 0.883122
vn 0.173648 6.030209824873533E-17 0.984808
vn 0.173648 6.030209824873533E-17 0.984808
vn 0.173648 6.030209824873533E-17 0.984808
vn 0.173648 6.030209824873533E-17 0.984808
vn -0.34202 5.753960123155869E-17 0.939693
vn -0.342019 1.0000000000575395E-06 0.939693
vn -0.34202 5.753960123155869E-17 0.939693
vn -0.34202 5.753960123155869E-17 0.939693
vn -0.233719 0.41503700000000004 0.879272
vn -0.233719 0.4150380000000001 0.879272
vn -0.233718 0.4150380000000001 0.879272
vn -0.233719 0.4150380000000001 0.879272
vn 0.597063 0.02509400000000005 0.801801
vn 0.597064 0.02509400000000005 0.801801
vn 0.317701 0.03616000000000005 0.947501
vn 0.498107 0.015008000000000054 0.866985
vn 0.048536 0.08593700000000006 0.995118
vn 0.16502 0.040384000000000066 0.985463
vn 0.21717 -0.46572399999999997 0.857869
vn 0.21717 -0.46572399999999997 0.857868
vn 0.105005 -0.17748099999999994 0.978506
vn 0.162353 -0.34816699999999995 0.923267
vn 0.046447 0.03938100000000006 0.998144
vn 0.044481 -0.02574899999999994 0.998678
vn 0.453154 -0.784885 0.42261800000000005
vn 0.453154 -0.784886 0.42261800000000005
vn 0.453154 -0.784885 0.42261800000000005
vn 0.453154 -0.784885 0.42261800000000005
vn -0.453154 0.784885 -0.42261800000000005
vn -0.453154 0.784885 -0.42261800000000005
vn -0.453154 0.784885 -0.42261800000000005
vn -0.453154 0.784885 -0.42261800000000005
vn 0 0.906308 0.42261799999999994
vn 0 0.906308 0.42261799999999994
vn 0 0.906308 0.42261799999999994
vn 0 0.906308 0.42261799999999994
vn 0 -0.906308 -0.42261799999999994
vn 0 -0.906308 -0.42261799999999994
vn 0 -0.906308 -0.42261799999999994
vn 0 -0.906308 -0.42261799999999994
vn -0.321906 -0.503479 0.801801
vn -0.321906 -0.503479 0.801801
vn -0.152605 -0.28098599999999996 0.947501
vn -0.273409 -0.41663399999999995 0.866985
vn 0.042557 -0.08904999999999995 0.995118
vn -0.061571 -0.15833899999999995 0.985463
vn 0 0.18947100000000006 0.981886
vn 0 0.18947100000000006 0.981886
vn -0.02016 -0.14181599999999994 0.989688
vn 0 0.04521600000000006 0.998977
vn -0.058738 -0.35647799999999996 0.932455
vn -0.029431 -0.30197399999999996 0.952862
vn 0.111472 -0.3062659999999999 0.945397
vn 0.111472 -0.3062659999999999 0.945397
vn -0.039046 0.10727900000000005 0.993462
vn 0.039046 -0.10727899999999994 0.993462
vn -0.111472 0.30626600000000004 0.945397
vn -0.111472 0.30626600000000004 0.945397
vn 0.429228 -0.03755299999999995 0.902415
vn 0.429227 -0.03755199999999995 0.902416
vn -0.156577 0.01369900000000006 0.987571
vn 0.156577 -0.013698999999999939 0.987571
vn -0.429227 0.03755200000000006 0.902416
vn -0.429228 0.03755300000000006 0.902415
vn 0.365741 0.09800000000000006 0.925543
vn 0.365741 0.09800000000000006 0.925543
vn -0.130513 -0.03497099999999994 0.99083
vn 0.130513 0.034971000000000065 0.99083
vn -0.365741 -0.09799999999999995 0.925543
vn -0.365741 -0.09799999999999995 0.925543
vn 0.258869 0.711235 0.653553
vn 0.258869 0.711235 0.653553
vn 0.124317 0.34155800000000003 0.931602
vn 0.199439 0.547953 0.812386
vn 0.046384 0.12743900000000005 0.990761
vn 0.046384 0.12743900000000005 0.990761
vn 0.056596 0.32097000000000003 0.945397
vn 0.056596 0.32097000000000003 0.945397
vn -0.019824 -0.11242899999999995 0.993462
vn 0.019824 0.11242900000000006 0.993462
vn -0.056596 -0.3209699999999999 0.945397
vn -0.056596 -0.3209699999999999 0.945397
vn 0.637385 -0.17078599999999994 0.75138
vn 0.637385 -0.17078599999999994 0.75138
vn 0.281909 -0.07553699999999995 0.956463
vn 0.47427 -0.12707999999999994 0.871159
vn 0.085619 -0.022940999999999937 0.996064
vn 0.085619 -0.022940999999999937 0.996064
vn -0 0.34731800000000007 0.937748
vn -0 0.34731800000000007 0.937748
vn 0 -0.12252799999999994 0.992465
vn -0 0.12252800000000005 0.992465
vn 0 -0.34731799999999996 0.937748
vn 0 -0.34731799999999996 0.937747
vn -0.284506 0.19921300000000006 0.937748
vn -0.284506 0.19921300000000006 0.937748
vn 0.100369 -0.07027899999999994 0.992465
vn -0.100369 0.07027900000000005 0.992465
vn 0.284506 -0.19921299999999995 0.937748
vn 0.284506 -0.19921299999999995 0.937747
vn -0.365741 0.09800000000000006 0.925543
vn -0.36574 0.09799900000000006 0.925543
vn 0.130513 -0.03497099999999994 0.99083
vn -0.130513 0.034971000000000065 0.99083
vn 0.365741 -0.09799999999999995 0.925543
vn 0.365741 -0.09799999999999995 0.925543
vn -0.116016 -0.657962 0.744061
vn -0.116017 -0.657962 0.744061
vn -0.025008 -0.14182899999999996 0.989575
vn -0.075688 -0.42924699999999993 0.90001
vn 0.023568 0.13366400000000006 0.990746
vn 0.023568 0.13366400000000006 0.990746
vn -0.173659 -0.30078599999999994 0.937747
vn -0.173659 -0.30078599999999994 0.937747
vn 0.061264 0.10611200000000005 0.992465
vn -0.061264 -0.10611199999999994 0.992465
vn 0.173659 0.30078600000000005 0.937748
vn 0.173659 0.30078600000000005 0.937748
vn -0.390498 -0.18209299999999995 0.902415
vn -0.390498 -0.18209299999999995 0.902415
vn 0.142449 0.06642500000000005 0.987571
vn -0.142449 -0.06642499999999994 0.987571
vn 0.390498 0.18209300000000006 0.902415
vn 0.390498 0.18209300000000006 0.902415
vn 0.27881 0.792788 0.541989
vn 0.159615 0.79464 0.585722
vn 0.093074 0.46046700000000007 0.882784
vn 0.249897 0.658047 0.7103
vn -0.300109 0.16268900000000006 0.939929
vn -0.073853 0.23624000000000006 0.968884
vn -0.547404 -0.60876 0.574247
vn -0.547403 -0.60876 0.574248
vn -0.21516 -0.40374899999999997 0.889209
vn -0.399337 -0.526333 0.750669
vn -0.029064 -0.26376499999999997 0.964149
vn -0.029065 -0.26376499999999997 0.964149
vn 0.168198 -0.40655899999999995 0.898008
vn -0.106879 -0.7913 0.602015
vn 0.26069 -0.22471599999999994 0.938906
vn 0.26069 -0.22471499999999994 0.938906
vn -0.10688 -0.7913 0.602014
vn 0.168198 -0.40655899999999995 0.898008
vn -0.390178 0.20332700000000006 0.898008
vn -0.426763 0.674871 0.602015
vn -0.344145 0.004574000000000057 0.938905
vn -0.344145 0.004574000000000057 0.938905
vn -0.426763 0.674872 0.602014
vn -0.390179 0.20332700000000006 0.898008
vn 0.558837 -0.48761699999999997 0.670769
vn 0.588751 -0.38139999999999996 0.712676
vn 0.314857 -0.22116799999999995 0.923011
vn 0.442131 -0.4022319999999999 0.801704
vn 0.191721 0.16064600000000007 0.968213
vn 0.178313 -0.01305099999999994 0.983887
vn -0.317265 0.637451 0.702139
vn -0.317265 0.63745 0.702139
vn -0.229411 0.28531400000000007 0.930573
vn -0.280888 0.47655300000000006 0.833066
vn -0.169849 0.08980100000000006 0.98137
vn -0.169849 0.08980100000000006 0.98137
vn -0.597805 -0.06490499999999995 0.79901
vn -0.597804 -0.06490599999999995 0.79901
vn -0.077973 0.19333700000000006 0.978029
vn -0.367456 0.06100500000000005 0.928038
vn 0.192472 0.29635300000000003 0.935484
vn 0.192472 0.29635300000000003 0.935484
vn 0.348811 -0.44714499999999996 0.823646
vn 0.348811 -0.44714399999999993 0.823646
vn 0.1714 -0.17188599999999996 0.970091
vn 0.263013 -0.33715899999999993 0.903962
vn 0.07755 0.03930400000000006 0.996213
vn 0.074279 -0.02571399999999994 0.996906
vn -0.094736 0.4126270000000001 0.905961
vn -0.094736 0.4126270000000001 0.905961
vn 0.053449 0.12778300000000006 0.990361
vn -0.022608 0.29637800000000003 0.954803
vn 0.127371 -0.08523099999999995 0.988186
vn 0.125499 -0.02020199999999994 0.991888
vn 0.597063 0.02509400000000005 0.801802
vn 0.597063 0.02509400000000005 0.801802
vn 0.316719 0.051774000000000056 0.947105
vn 0.498107 0.015008000000000054 0.866986
vn 0.044474 0.13117500000000007 0.990361
vn 0.16322 0.06327800000000006 0.984558
vn -0 0.906308 0.42261799999999994
vn -0 0.906308 0.42261799999999994
vn -0 0.906308 0.42261799999999994
vn -0 0.906308 0.42261799999999994
vn 1E-06 -0.906308 -0.42261799999999994
vn 0 -0.906308 -0.42261799999999994
vn 1E-06 -0.906308 -0.42261799999999994
vn 1E-06 -0.906308 -0.42261799999999994
vn 0.453154 -0.784885 0.42261800000000005
vn 0.453154 -0.784886 0.42261800000000005
vn 0.453154 -0.784885 0.42261800000000005
vn 0.453154 -0.784885 0.42261800000000005
vn -0.453154 0.784885 -0.42261800000000005
vn -0.453154 0.784885 -0.42261800000000005
vn -0.453155 0.784885 -0.42261800000000005
vn -0.453154 0.784885 -0.42261800000000005
vn -0.388452 -0.607561 0.692802
vn -0.388452 -0.607561 0.692802
vn -0.166322 -0.37829999999999997 0.910618
vn -0.339632 -0.516308 0.786178
vn 0.136323 -0.16743699999999995 0.976412
vn -0.043659 -0.23994199999999993 0.969805
vn 0.326857 5.786909245286928E-17 0.945074
vn 0.326856 5.786909245286928E-17 0.945074
vn 0.61766 -0.020159999999999952 0.786186
vn 0.460331 5.4358826100133264E-17 0.887747
vn 0.774948 -0.05873799999999996 0.62929
vn 0.737949 -0.029430999999999957 0.674215
vn 0.557187 0.21600300000000006 0.801801
vn 0.557187 0.21600300000000006 0.801801
vn 0.289138 0.13652900000000007 0.947501
vn 0.466748 0.17459200000000005 0.866985
vn 0.01828 0.09698800000000006 0.995118
vn 0.143228 0.09136700000000006 0.985463
vn 0.355562 -0.37099599999999994 0.857868
vn 0.355562 -0.37099499999999996 0.857868
vn 0.156559 -0.13421999999999995 0.978506
vn 0.265811 -0.27734999999999993 0.923267
vn 0.031293 0.05223900000000006 0.998144
vn 0.050403 -0.010054999999999939 0.998678
vn 0.681743 -0.597177 0.42261800000000005
vn 0.681743 -0.597177 0.42261800000000005
vn 0.681743 -0.597177 0.42261800000000005
vn 0.681743 -0.597177 0.42261800000000005
vn -0.681743 0.597177 -0.42261800000000005
vn -0.681743 0.597177 -0.42261800000000005
vn -0.681743 0.597177 -0.42261800000000005
vn -0.681743 0.597177 -0.42261800000000005
vn -0.291818 0.858042 0.42261799999999994
vn -0.291818 0.858042 0.42261799999999994
vn -0.291818 0.858042 0.42261899999999997
vn -0.291818 0.858042 0.42261799999999994
vn 0.291818 -0.858042 -0.42261899999999997
vn 0.291818 -0.858042 -0.42261899999999997
vn 0.291818 -0.858042 -0.42261899999999997
vn 0.291818 -0.858042 -0.42261899999999997
vn -0.14265 -0.580315 0.801802
vn -0.14265 -0.580315 0.801802
vn -0.054005 -0.31515799999999994 0.947501
vn -0.124698 -0.48247899999999994 0.866986
vn 0.068963 -0.07060399999999994 0.995118
vn -0.007309 -0.16973199999999994 0.985463
vn -0.061007 0.17938100000000007 0.981886
vn -0.061007 0.17938000000000007 0.981886
vn 0.026576 -0.14075399999999993 0.989688
vn -0.014559 0.04280800000000006 0.998977
vn 0.059171 -0.3564069999999999 0.932455
vn 0.069367 -0.29536899999999994 0.952862
vn 0.342458 0.09176100000000005 0.935041
vn 0.342458 0.09176100000000005 0.935041
vn -0.12112 -0.032453999999999934 0.992107
vn 0.121119 0.03245400000000006 0.992107
vn -0.342458 -0.09176099999999994 0.935041
vn -0.342458 -0.09176099999999994 0.935041
vn -0.3145 0.4491530000000001 0.836272
vn -0.3145 0.4491530000000001 0.836272
vn 0.020735 -0.029612999999999938 0.999346
vn -0.162403 0.23193500000000006 0.959078
vn 0.185559 -0.26500499999999994 0.946224
vn 0.185559 -0.26500499999999994 0.946224
vn -0.736438 -0.4251829999999999 0.526192
vn -0.736438 -0.4251829999999999 0.526192
vn -0.337385 -0.19478899999999993 0.920993
vn -0.573254 -0.33096899999999996 0.74956
vn -0.092397 -0.053344999999999934 0.994292
vn -0.092397 -0.053344999999999934 0.994292
vn 0 -0.716487 0.697601
vn 0 -0.716487 0.6976
vn 0 -0.30563899999999994 0.952148
vn 0 -0.532927 0.846161
vn 0 -0.07384399999999995 0.99727
vn 0 -0.07384399999999995 0.99727
vn 0.363134 -0.690581 0.625485
vn 0.617227 -0.10881499999999995 0.779224
vn -0.127298 -0.722067 0.680011
vn -0.617227 0.10881500000000004 0.779224
vn -0.363134 0.690581 0.625485
vn 0.127298 0.722067 0.680011
vn -0.576126 -0.522279 0.628731
vn -0.742247 -0.668341 0.04888100000000004
vn 0.577396 0.524769 0.625485
vn 0.742165 0.668955 0.04112899999999996
vn 0.740558 0.644405 -0.19056600000000004
vn -0.740413 -0.645449 -0.18757699999999997
vn -0.576126 -0.522279 0.628731
vn 0.577396 0.524769 0.625485
vn 0.66329 -0.18577199999999994 0.724938
vn 0.377245 0.39007500000000006 0.839957
vn 0.357168 -0.573887 0.736943
vn -0.594315 -0.39007499999999995 0.7033
vn -0.837532 0.18577200000000002 0.513837
vn -0.5466 0.573887 0.609821
vn -0.078407 -0.777567 0.623892
vn 0.00164 -0.998768 0.04959300000000006
vn -0.097301 0.780169 0.617956
vn -0.014686 0.999113 0.03946799999999994
vn 0.034735 0.98164 -0.18755600000000006
vn 0.018804 -0.982222 -0.18677899999999995
vn -0.078407 -0.777567 0.623892
vn -0.097301 0.780169 0.617956
vn 0.661143 -0.41431699999999994 0.625485
vn 0.588231 0.21631700000000006 0.779224
vn 0.25306 -0.688147 0.680011
vn -0.588231 -0.21631699999999995 0.779225
vn -0.661143 0.4143160000000001 0.625485
vn -0.25306 0.688147 0.680011
vn -0.235358 -0.74115 0.628731
vn -0.305501 -0.950936 0.048881000000000056
vn 0.235204 0.743941 0.625485
vn 0.305121 0.951425 0.04112899999999994
vn 0.316077 0.929398 -0.19056600000000007
vn -0.315427 -0.930226 -0.18757699999999994
vn -0.235358 -0.74115 0.628731
vn 0.235204 0.743941 0.625485
g bobobj
f 428/428/428 430/430/430 431/431/431
f 431/431/431 429/429/429 428/428/428
f 426/426/426 428/428/428 429/429/429
f 429/429/429 427/427/427 426/426/426
f 422/422/422 424/424/424 425/425/425
f 425/425/425 423/423/423 422/422/422
f 420/420/420 422/422/422 423/423/423
f 423/423/423 421/421/421 420/420/420
f 416/416/416 418/418/418 419/419/419
f 419/419/419 417/417/417 416/416/416
f 414/414/414 416/416/416 417/417/417
f 417/417/417 415/415/415 414/414/414
f 410/410/410 412/412/412 413/413/413
f 413/413/413 411/411/411 410/410/410
f 408/408/408 410/410/410 411/411/411
f 411/411/411 409/409/409 408/408/408
f 404/404/404 406/406/406 407/407/407
f 407/407/407 405/405/405 404/404/404
f 402/402/402 404/404/404 405/405/405
f 405/405/405 403/403/403 402/402/402
f 398/398/398 400/400/400 401/401/401
f 401/401/401 399/399/399 398/398/398
f 396/396/396 398/398/398 399/399/399
f 399/399/399 397/397/397 396/396/396
f 392/392/392 394/394/394 395/395/395
f 395/395/395 393/393/393 392/392/392
f 388/388/388 390/390/390 391/391/391
f 391/391/391 389/389/389 388/388/388
f 384/384/384 386/386/386 387/387/387
f 387/387/387 385/385/385 384/384/384
f 380/380/380 382/382/382 383/383/383
f 383/383/383 381/381/381 380/380/380
f 376/376/376 378/378/378 379/379/379
f 379/379/379 377/377/377 376/376/376
f 374/374/374 376/376/376 377/377/377
f 377/377/377 375/375/375 374/374/374
f 370/370/370 372/372/372 373/373/373
f 373/373/373 371/371/371 370/370/370
f 368/368/368 370/370/370 371/371/371
f 371/371/371 369/369/369 368/368/368
f 364/364/364 366/366/366 367/367/367
f 367/367/367 365/365/365 364/364/364
f 362/362/362 364/364/364 365/365/365
f 365/365/365 363/363/363 362/362/362
f 358/358/358 360/360/360 361/361/361
f 361/361/361 359/359/359 358/358/358
f 356/356/356 358/358/358 359/359/359
f 359/359/359 357/357/357 356/356/356
f 352/352/352 354/354/354 355/355/355
f 355/355/355 353/353/353 352/352/352
f 348/348/348 350/350/350 351/351/351
f 351/351/351 349/349/349 348/348/348
f 344/344/344 346/346/346 347/347/347
f 347/347/347 345/345/345 344/344/344
f 340/340/340 342/342/342 343/343/343
f 343/343/343 341/341/341 340/340/340
f 336/336/336 338/338/338 339/339/339
f 339/339/339 337/337/337 336/336/336
f 334/334/334 336/336/336 337/337/337
f 337/337/337 335/335/335 334/334/334
f 330/330/330 332/332/332 333/333/333
f 333/333/333 331/331/331 330/330/330
f 328/328/328 330/330/330 331/331/331
f 331/331/331 329/329/329 328/328/328
f 324/324/324 326/326/326 327/327/327
f 327/327/327 325/325/325 324/324/324
f 322/322/322 324/324/324 325/325/325
f 325/325/325 323/323/323 322/322/322
f 318/318/318 320/320/320 321/321/321
f 321/321/321 319/319/319 318/318/318
f 316/316/316 318/318/318 319/319/319
f 319/319/319 317/317/317 316/316/316
f 312/312/312 314/314/314 315/315/315
f 315/315/315 313/313/313 312/312/312
f 310/310/310 312/312/312 313/313/313
f 313/313/313 311/311/311 310/310/310
f 306/306/306 308/308/308 309/309/309
f 309/309/309 307/307/307 306/306/306
f 304/304/304 306/306/306 307/307/307
f 307/307/307 305/305/305 304/304/304
f 300/300/300 302/302/302 303/303/303
f 303/303/303 301/301/301 300/300/300
f 298/298/298 300/300/300 301/301/301
f 301/301/301 299/299/299 298/298/298
f 294/294/294 296/296/296 297/297/297
f 297/297/297 295/295/295 294/294/294
f 292/292/292 294/294/294 295/295/295
f 295/295/295 293/293/293 292/292/292
f 288/288/288 290/290/290 291/291/291
f 291/291/291 289/289/289 288/288/288
f 286/286/286 288/288/288 289/289/289
f 289/289/289 287/287/287 286/286/286
f 282/282/282 284/284/284 285/285/285
f 285/285/285 283/283/283 282/282/282
f 280/280/280 282/282/282 283/283/283
f 283/283/283 281/281/281 280/280/280
f 276/276/276 278/278/278 279/279/279
f 279/279/279 277/277/277 276/276/276
f 274/274/274 276/276/276 277/277/277
f 277/277/277 275/275/275 274/274/274
f 270/270/270 272/272/272 273/273/273
f 273/273/273 271/271/271 270/270/270
f 268/268/268 270/270/270 271/271/271
f 271/271/271 269/269/269 268/268/268
f 264/264/264 266/266/266 267/267/267
f 267/267/267 265/265/265 264/264/264
f 262/262/262 264/264/264 265/265/265
f 265/265/265 263/263/263 262/262/262
f 258/258/258 260/260/260 261/261/261
f 261/261/261 259/259/259 258/258/258
f 256/256/256 258/258/258 259/259/259
f 259/259/259 257/257/257 256/256/256
f 252/252/252 254/254/254 255/255/255
f 255/255/255 253/253/253 252/252/252
f 250/250/250 252/252/252 253/253/253
f 253/253/253 251/251/251 250/250/250
f 246/246/246 248/248/248 249/249/249
f 249/249/249 247/247/247 246/246/246
f 244/244/244 246/246/246 247/247/247
f 247/247/247 245/245/245 244/244/244
f 240/240/240 242/242/242 243/243/243
f 243/243/243 241/241/241 240/240/240
f 238/238/238 240/240/240 241/241/241
f 241/241/241 239/239/239 238/238/238
f 234/234/234 236/236/236 237/237/237
f 237/237/237 235/235/235 234/234/234
f 232/232/232 234/234/234 235/235/235
f 235/235/235 233/233/233 232/232/232
f 228/228/228 230/230/230 231/231/231
f 231/231/231 229/229/229 228/228/228
f 226/226/226 228/228/228 229/229/229
f 229/229/229 227/227/227 226/226/226
f 222/222/222 224/224/224 225/225/225
f 225/225/225 223/223/223 222/222/222
f 220/220/220 222/222/222 223/223/223
f 223/223/223 221/221/221 220/220/220
f 216/216/216 218/218/218 219/219/219
f 219/219/219 217/217/217 216/216/216
f 214/214/214 216/216/216 217/217/217
f 217/217/217 215/215/215 214/214/214
f 210/210/210 212/212/212 213/213/213
f 213/213/213 211/211/211 210/210/210
f 208/208/208 210/210/210 211/211/211
f 211/211/211 209/209/209 208/208/208
f 204/204/204 206/206/206 207/207/207
f 207/207/207 205/205/205 204/204/204
f 202/202/202 204/204/204 205/205/205
f 205/205/205 203/203/203 202/202/202
f 198/198/198 200/200/200 201/201/201
f 201/201/201 199/199/199 198/198/198
f 196/196/196 198/198/198 199/199/199
f 199/199/199 197/197/197 196/196/196
f 192/192/192 194/194/194 195/195/195
f 195/195/195 193/193/193 192/192/192
f 188/188/188 190/190/190 191/191/191
f 191/191/191 189/189/189 188/188/188
f 184/184/184 186/186/186 187/187/187
f 187/187/187 185/185/185 184/184/184
f 180/180/180 182/182/182 183/183/183
f 183/183/183 181/181/181 180/180/180
f 176/176/176 178/178/178 179/179/179
f 179/179/179 177/177/177 176/176/176
f 174/174/174 176/176/176 177/177/177
f 177/177/177 175/175/175 174/174/174
f 170/170/170 172/172/172 173/173/173
f 173/173/173 171/171/171 170/170/170
f 168/168/168 170/170/170 171/171/171
f 171/171/171 169/169/169 168/168/168
f 165/165/165 164/164/164 167/167/167
f 167/167/167 166/166/166 165/165/165
f 160/160/160 162/162/162 163/163/163
f 163/163/163 161/161/161 160/160/160
f 156/156/156 158/158/158 159/159/159
f 159/159/159 157/157/157 156/156/156
f 152/152/152 154/154/154 155/155/155
f 155/155/155 153/153/153 152/152/152
f 148/148/148 150/150/150 151/151/151
f 151/151/151 149/149/149 148/148/148
f 147/147/147 146/146/146 145/145/145
f 146/146/146 144/144/144 145/145/145
f 143/143/143 142/142/142 141/141/141
f 142/142/142 140/140/140 141/141/141
f 139/139/139 138/138/138 137/137/137
f 138/138/138 136/136/136 137/137/137
f 135/135/135 134/134/134 133/133/133
f 134/134/134 132/132/132 133/133/133
f 131/131/131 130/130/130 129/129/129
f 130/130/130 128/128/128 129/129/129
f 127/127/127 126/126/126 125/125/125
f 126/126/126 124/124/124 125/125/125
f 123/123/123 122/122/122 121/121/121
f 122/122/122 120/120/120 121/121/121
f 119/119/119 118/118/118 117/117/117
f 118/118/118 116/116/116 117/117/117
f 115/115/115 114/114/114 113/113/113
f 114/114/114 112/112/112 113/113/113
f 111/111/111 110/110/110 109/109/109
f 110/110/110 108/108/108 109/109/109
f 107/107/107 106/106/106 105/105/105
f 106/106/106 104/104/104 105/105/105
f 103/103/103 102/102/102 101/101/101
f 102/102/102 100/100/100 101/101/101
f 99/99/99 98/98/98 97/97/97
f 98/98/98 96/96/96 97/97/97
f 95/95/95 94/94/94 93/93/93
f 94/94/94 92/92/92 93/93/93
f 91/91/91 90/90/90 89/89/89
f 90/90/90 88/88/88 89/89/89
f 87/87/87 86/86/86 85/85/85
f 86/86/86 84/84/84 85/85/85
f 83/83/83 82/82/82 81/81/81
f 82/82/82 80/80/80 81/81/81
f 79/79/79 78/78/78 77/77/77
f 78/78/78 76/76/76 77/77/77
f 54/54/54 61/61/61 74/74/74
f 74/74/74 72/72/72 54/54/54
f 51/51/51 60/60/60 73/73/73
f 73/73/73 71/71/71 51/51/51
f 75/75/75 64/64/64 473/473/473
f 473/473/473 465/465/465 75/75/75
f 73/73/73 60/60/60 55/55/55
f 55/55/55 70/70/70 73/73/73
f 74/74/74 61/61/61 460/460/460
f 460/460/460 462/462/462 74/74/74
f 75/75/75 463/463/463 472/472/472
f 472/472/472 69/69/69 75/75/75
f 471/471/471 467/467/467 68/68/68
f 68/68/68 66/66/66 471/471/471
f 470/470/470 469/469/469 67/67/67
f 67/67/67 65/65/65 470/470/470
f 67/67/67 469/469/469 468/468/468
f 468/468/468 461/461/461 67/67/67
f 68/68/68 467/467/467 466/466/466
f 466/466/466 63/63/63 68/68/68
f 75/75/75 465/465/465 464/464/464
f 464/464/464 463/463/463 75/75/75
f 74/74/74 462/462/462 57/57/57
f 57/57/57 62/62/62 74/74/74
f 68/68/68 63/63/63 55/55/55
f 55/55/55 60/60/60 68/68/68
f 67/67/67 461/461/461 460/460/460
f 460/460/460 61/61/61 67/67/67
f 73/73/73 70/70/70 56/56/56
f 56/56/56 59/59/59 73/73/73
f 68/68/68 60/60/60 51/51/51
f 51/51/51 66/66/66 68/68/68
f 74/74/74 62/62/62 53/53/53
f 53/53/53 72/72/72 74/74/74
f 67/67/67 61/61/61 54/54/54
f 54/54/54 65/65/65 67/67/67
f 73/73/73 59/59/59 52/52/52
f 52/52/52 71/71/71 73/73/73
f 75/75/75 69/69/69 58/58/58
f 58/58/58 64/64/64 75/75/75
f 29/29/29 36/36/36 49/49/49
f 49/49/49 47/47/47 29/29/29
f 26/26/26 35/35/35 48/48/48
f 48/48/48 46/46/46 26/26/26
f 50/50/50 39/39/39 459/459/459
f 459/459/459 451/451/451 50/50/50
f 48/48/48 35/35/35 30/30/30
f 30/30/30 45/45/45 48/48/48
f 49/49/49 36/36/36 446/446/446
f 446/446/446 448/448/448 49/49/49
f 50/50/50 449/449/449 458/458/458
f 458/458/458 44/44/44 50/50/50
f 457/457/457 453/453/453 43/43/43
f 43/43/43 41/41/41 457/457/457
f 456/456/456 455/455/455 42/42/42
f 42/42/42 40/40/40 456/456/456
f 42/42/42 455/455/455 454/454/454
f 454/454/454 447/447/447 42/42/42
f 43/43/43 453/453/453 452/452/452
f 452/452/452 38/38/38 43/43/43
f 50/50/50 451/451/451 450/450/450
f 450/450/450 449/449/449 50/50/50
f 49/49/49 448/448/448 32/32/32
f 32/32/32 37/37/37 49/49/49
f 43/43/43 38/38/38 30/30/30
f 30/30/30 35/35/35 43/43/43
f 42/42/42 447/447/447 446/446/446
f 446/446/446 36/36/36 42/42/42
f 48/48/48 45/45/45 31/31/31
f 31/31/31 34/34/34 48/48/48
f 43/43/43 35/35/35 26/26/26
f 26/26/26 41/41/41 43/43/43
f 49/49/49 37/37/37 28/28/28
f 28/28/28 47/47/47 49/49/49
f 42/42/42 36/36/36 29/29/29
f 29/29/29 40/40/40 42/42/42
f 48/48/48 34/34/34 27/27/27
f 27/27/27 46/46/46 48/48/48
f 50/50/50 44/44/44 33/33/33
f 33/33/33 39/39/39 50/50/50
f 4/4/4 11/11/11 24/24/24
f 24/24/24 22/22/22 4/4/4
f 1/1/1 10/10/10 23/23/23
f 23/23/23 21/21/21 1/1/1
f 25/25/25 14/14/14 445/445/445
f 445/445/445 437/437/437 25/25/25
f 23/23/23 10/10/10 5/5/5
f 5/5/5 20/20/20 23/23/23
f 24/24/24 11/11/11 432/432/432
f 432/432/432 434/434/434 24/24/24
f 25/25/25 435/435/435 444/444/444
f 444/444/444 19/19/19 25/25/25
f 443/443/443 439/439/439 18/18/18
f 18/18/18 16/16/16 443/443/443
f 442/442/442 441/441/441 17/17/17
f 17/17/17 15/15/15 442/442/442
f 17/17/17 441/441/441 440/440/440
f 440/440/440 433/433/433 17/17/17
f 18/18/18 439/439/439 438/438/438
f 438/438/438 13/13/13 18/18/18
f 25/25/25 437/437/437 436/436/436
f 436/436/436 435/435/435 25/25/25
f 24/24/24 434/434/434 7/7/7
f 7/7/7 12/12/12 24/24/24
f 18/18/18 13/13/13 5/5/5
f 5/5/5 10/10/10 18/18/18
f 17/17/17 433/433/433 432/432/432
f 432/432/432 11/11/11 17/17/17
f 23/23/23 20/20/20 6/6/6
f 6/6/6 9/9/9 23/23/23
f 18/18/18 10/10/10 1/1/1
f 1/1/1 16/16/16 18/18/18
f 24/24/24 12/12/12 3/3/3
f 3/3/3 22/22/22 24/24/24
f 17/17/17 11/11/11 4/4/4
f 4/4/4 15/15/15 17/17/17
f 23/23/23 9/9/9 2/2/2
f 2/2/2 21/21/21 23/23/23
f 25/25/25 19/19/19 8/8/8
f 8/8/8 14/14/14 25/25/25
