v -0.21824720000000003 -0.23092959999999998 0.08885840000000002
v 0.12068000000000001 -0.259572 0.06499040000000002
v 0.03475520000000001 -0.11159039999999998 0.3323136
v -0.17528480000000002 -0.1831944 -0.12118079999999998
v -0.21824720000000003 -0.23092959999999998 0.08885840000000002
v 0.12068000000000001 -0.1975152 -0.1259544
v 0.2315784 0.0314048 -0.1259544
v 0.03475520000000001 -0.11159039999999998 0.3323136
v 0.12068000000000001 -0.259572 0.06499040000000002
v 0.03475520000000001 0.2989408 -0.11640720000000003
v 0.03475520000000001 0.15095920000000002 0.0984056
v 0.03475520000000001 0.03161840000000002 0.29889760000000004
v 0.03475520000000001 -0.11159039999999998 0.3323136
v -0.21824720000000003 -0.23092959999999998 0.08885840000000002
v -0.2707568 0.0602608 -0.001840000000000004
v 0.03475520000000001 -0.11159039999999998 0.3323136
v 0.03475520000000001 0.03161840000000002 0.29889760000000004
v 0.03475520000000001 0.15095920000000002 0.0984056
v 0.03475520000000001 0.2989408 -0.11640720000000003
v -0.2325672 0.060260799999999996 -0.1164072
v -0.2325672 0.060260799999999996 -0.1164072
v -0.17528480000000002 -0.1831944 -0.12118079999999998
vt 0.461658 0.546177
vt 0.498886 0.505745
vt 0.567331 0.571187
vt 0.411761 0.518059
vt 0.461658 0.546177
vt 0.473709 0.452617
vt 0.555133 0.404530
vt 0.567331 0.571187
vt 0.498886 0.505745
vt 0.655239 0.392845
vt 0.626589 0.480411
vt 0.607529 0.550133
vt 0.567331 0.571187
vt 0.461658 0.546177
vt 0.418865 0.593424
vt 0.567331 0.571187
vt 0.554162 0.613387
vt 0.501134 0.663873
vt 0.419280 0.699910
vt 0.387902 0.591062
vt 0.387902 0.591062
vt 0.411761 0.518059
vn -0.645487 -0.722894 0.24651600000000007
vn 0.437086 -0.898557 0.03938600000000005
vn 0.141561 -0.23263699999999995 0.962206
vn -0.609608 -0.718659 -0.33452499999999996
vn -0.645487 -0.722894 0.24651600000000007
vn 0.500656 -0.823259 -0.26755899999999994
vn 0.941319 0.14924700000000002 0.302729
vn 0.141561 -0.23263699999999995 0.962206
vn 0.437086 -0.898557 0.03938600000000005
vn -0.135434 0.93968 0.31410099999999996
vn 0.218869 0.821542 0.526464
vn 0.219601 0.627307 0.747169
vn 0.141561 -0.23263699999999995 0.962206
vn -0.645487 -0.722894 0.24651600000000007
vn -0.872152 0.384902 0.301995
vn 0.141561 -0.23263699999999995 0.962206
vn 0.219601 0.627307 0.747169
vn 0.218869 0.821542 0.526464
vn -0.135434 0.93968 0.31410099999999996
vn -0.906031 0.296477 -0.302009
vn -0.906031 0.296477 -0.302009
vn -0.609608 -0.718659 -0.33452499999999996
g orig_stone_medium_4_back gras
f 1/1/1 2/2/2 3/3/3
f 4/4/4 2/2/2 5/5/5
f 4/4/4 6/6/6 2/2/2
f 7/7/7 2/2/2 6/6/6
f 7/7/7 8/8/8 9/9/9
f 10/10/10 11/11/11 7/7/7
f 11/11/11 12/12/12 7/7/7
f 12/12/12 13/13/13 7/7/7
f 4/4/4 14/14/14 15/15/15
f 15/15/15 14/14/14 16/16/16
f 17/17/17 15/15/15 16/16/16
f 18/18/18 15/15/15 17/17/17
f 18/18/18 19/19/19 15/15/15
f 19/19/19 20/20/20 15/15/15
f 21/21/21 22/22/22 15/15/15
