v 0.18365202 -0.04399447 -0.03579843
v 0.15493222 -0.11121365999999999 -0.03579843
v 0.1729886 -0.05997855000000001 -0.0880736
v 0.13709225 -0.12172306000000002 -0.09489604000000001
v 0.12929826 -0.15359313000000002 -0.03579842999999999
v 0.15346002 -0.06945843000000002 -0.12846781
v 0.11719120000000001 -0.16355683000000001 -0.09712269999999999
v 0.11428658000000001 -0.13820813 -0.13021728000000002
v 0.05915745 -0.14423208 -0.16038939
v 0.045131090000000006 -0.21393344 -0.035798429999999985
v 0.09050154 -0.17284563000000003 -0.13311357
v 0.03971506 -0.16691841000000002 -0.15334867
v 0.07166809 -0.20016174 -0.09491762999999999
v 0.00641512 -0.19319038000000002 -0.13531082
v 0.016603560000000003 -0.21665429000000003 -0.09476241999999999
v -0.06378145 -0.21964340000000002 -0.035798429999999985
v -0.05734814 -0.19952254 -0.10495867999999998
v -0.04760697 -0.18876120000000002 -0.14258053
v -0.11692430000000001 -0.16793144000000002 -0.09717862999999999
v -0.13300256 -0.1784167 -0.03579842999999999
v -0.16883108000000002 -0.12150495000000001 -0.03579842999999999
v -0.15658139000000001 -0.11272088000000001 -0.09440678000000001
v -0.12111157 -0.11305561 -0.14187282
v -0.09674173000000001 -0.16546763 -0.13568346
v -0.05611768 -0.16209313000000003 -0.16632086
v -0.0521526 -0.12566502000000004 -0.18395275
v -0.00467024 -0.17689486000000001 -0.16582089
v 0.00209134 -0.14465351 -0.18010939
v 0.03971506 -0.16691841000000002 -0.15334867
v 0.05915745 -0.14423208 -0.16038939
v 0.15493222 -0.11121365999999999 -0.03579843
v 0.18365202 -0.04399447 -0.03579843
v 0.1729886 -0.059978550000000005 0.046909120000000006
v 0.13709225 -0.12172306000000002 0.06402115000000001
v 0.12929826 -0.15359313000000002 -0.03579842999999999
v 0.15346002 -0.06945843 0.14822674
v 0.11719120000000001 -0.16355683000000001 0.06960616000000001
v 0.11428658000000001 -0.13820813 0.15261495
v 0.05915745 -0.14423207999999998 0.22829317
v 0.045131090000000006 -0.21393344 -0.035798429999999985
v 0.09050154 -0.17284563000000003 0.15987939000000004
v 0.03971506 -0.16691841 0.21063357
v 0.07166809 -0.20016174 0.06407538000000002
v 0.00641512 -0.19319038000000002 0.16539062000000004
v 0.016603560000000003 -0.21665429000000003 0.06368625000000001
v -0.06378145 -0.21964340000000002 -0.035798429999999985
v -0.05734814 -0.19952254 0.08926071000000002
v -0.04760697 -0.18876120000000002 0.18362465
v -0.11692430000000001 -0.16793144000000002 0.06974675000000001
v -0.13300256 -0.1784167 -0.03579842999999999
v -0.15658139000000001 -0.11272088000000001 0.06279409000000001
v -0.16883108000000002 -0.12150495000000001 -0.03579842999999999
v -0.12111157 -0.11305560999999999 0.18184951000000002
v -0.09674173000000001 -0.16546762999999998 0.16632528000000005
v -0.05611768 -0.16209313 0.24317072
v -0.0521526 -0.12566502 0.28739554
v -0.00467024 -0.17689486000000001 0.24191680000000004
v 0.00209134 -0.14465350999999999 0.27775535
v 0.03971506 -0.16691841 0.21063357
v 0.05915745 -0.14423207999999998 0.22829317
v 0.00933895 -0.11648094000000002 -0.20837648
v 0.05915745 -0.14423208 -0.16038939
v 0.00209134 -0.14465351 -0.18010939
v 0.050044090000000006 -0.10881853000000004 -0.20699523
v -0.00060384 -0.07769782000000001 -0.22909591
v 0.09965825 -0.09225934000000002 -0.18632221
v 0.15346002 -0.06945843000000002 -0.12846781
v 0.058081350000000004 -0.07054405000000001 -0.22931657000000003
v 0.01846659 -0.05372391000000002 -0.24512198000000002
v -0.0024684000000000004 -0.03703331000000002 -0.25070291
v 0.15443412 -0.01989544000000001 -0.15569671000000002
v 0.02438786 -0.030889170000000018 -0.25067775000000003
v 0.09871662000000002 -0.054254650000000015 -0.20091552000000001
v 0.04378503 -0.031981080000000016 -0.24677591000000004
v 0.027838010000000003 -0.014791870000000018 -0.26564778000000006
v 0.0031825700000000005 -0.005221210000000017 -0.26843340000000004
v 0.05469427 -0.020814800000000015 -0.24837663000000001
v 0.038302020000000006 0.006472409999999984 -0.27026889000000004
v 0.008420440000000001 0.03807217999999998 -0.27694462000000003
v 0.07414380000000001 -0.04607799000000001 -0.23083824
v 0.051631210000000004 0.05687689999999998 -0.27832927
v 0.00375615 0.10163670999999999 -0.28070162000000004
v 0.08186282 0.00007887999999998401 -0.26134933000000005
v 0.07366406 0.05308215999999999 -0.26634631000000003
v 0.08762888 0.06275396999999998 -0.24425991000000002
v 0.10770911000000001 0.050916869999999996 -0.22829895000000003
v 0.09541556000000001 -0.035779730000000017 -0.23115138000000005
v 0.0984708 -0.006589880000000015 -0.23732952000000002
v 0.12403013000000002 -0.008767070000000014 -0.21751636000000002
v 0.15439842 0.05356767999999999 -0.18984257000000002
v 0.12318812 0.10241191 -0.21892685000000003
v 0.10812442 0.09704177999999998 -0.24879262000000002
v 0.08762888 0.06275396999999998 -0.24425991000000002
v 0.08671921000000002 0.09553506999999999 -0.26204701
v 0.07366406 0.05308215999999999 -0.26634631000000003
v 0.051631210000000004 0.05687689999999998 -0.27832927
v 0.11301651000000001 0.1684887 -0.25054753
v 0.05435682 0.15598009999999998 -0.27461001
v 0.00375615 0.10163670999999999 -0.28070162000000004
v -0.00252382 0.17295137 -0.27780448
v 0.009557060000000001 0.19850050000000002 -0.25570074000000004
v 0.06608512000000001 0.20389256 -0.25379487000000006
v -0.01023451 0.22218422000000002 -0.23008208000000002
v 0.07128831000000001 0.21919086000000002 -0.21202247000000002
v -0.005293290000000001 0.25939654 -0.18148010000000003
v 0.12278454 0.18695240000000002 -0.18798651000000002
v 0.07076879000000001 0.24347434 -0.17365364000000003
v 0.011564250000000002 0.27954987000000003 -0.14278351000000003
v 0.08837450000000001 0.26029142 -0.13683334000000003
v 0.016881 0.30178689000000003 -0.10114354000000002
v 0.12374844000000002 0.22085244 -0.14092371000000004
v 0.09146102 0.27402028000000006 -0.08951571000000003
v 0.01435871 0.29966682 -0.03579843000000002
v 0.09164173 0.27475604000000003 -0.03579843000000002
v 0.12860959 0.23752196000000003 -0.03579843000000001
v 0.12443286 0.22982725 -0.10372958000000003
v 0.16057707000000002 0.18496561000000003 -0.14166933000000004
v 0.17106794 0.19565402 -0.09332915000000003
v 0.17726206000000003 0.19595781 -0.03579843000000001
v 0.20872617 0.10192741000000001 -0.035798430000000006
v 0.18583550000000001 0.08240172 -0.12353764
v 0.19310759 0.028148770000000004 -0.03579843
v 0.17190876000000002 0.038437509999999994 -0.12581224
v 0.1767677 0.001994099999999994 -0.10387969
v 0.18365202 -0.04399447 -0.03579843
v 0.1729886 -0.05997855000000001 -0.0880736
v 0.0031825700000000005 -0.005221210000000017 -0.26843340000000004
v -0.0024684000000000004 -0.03703331000000002 -0.25070291
v -0.05833533 -0.008560520000000016 -0.24886606000000003
v -0.030717980000000002 -0.04346084000000002 -0.23654174
v -0.00060384 -0.07769782000000001 -0.22909591
v -0.07419055000000001 -0.032046190000000016 -0.24498547
v -0.12069371000000001 -0.006952830000000016 -0.24506078000000003
v -0.0540481 -0.05529437000000002 -0.23248707000000005
v -0.12435449 -0.029645960000000013 -0.23778665
v -0.14935622 -0.008484190000000015 -0.22732859
v -0.05563454 -0.07388166000000002 -0.22167643
v -0.11323462 -0.04566557000000001 -0.21646287000000003
v -0.14471726000000001 -0.03504839000000001 -0.21954344
v -0.03495778000000001 -0.10520518000000002 -0.21095606
v 0.00933895 -0.11648094000000002 -0.20837648
v 0.00209134 -0.14465351 -0.18010939
v -0.0521526 -0.12566502000000004 -0.18395275
v -0.09899848 -0.07492750000000001 -0.21558516000000003
v -0.11853301000000001 -0.08408812000000002 -0.17807534
v -0.12111157 -0.11305561 -0.14187282
v -0.13101815 -0.05423952000000001 -0.19065398
v -0.15913241000000003 -0.07739471 -0.14315615
v -0.15658139000000001 -0.11272088000000001 -0.09440678000000001
v -0.15005611000000002 -0.04022608000000001 -0.18550213000000002
v -0.17414443 -0.07847863000000002 -0.10222899
v -0.15645661 -0.012556200000000012 -0.1889057
v -0.15326843 0.04137731999999999 -0.22332849
v -0.17689758000000003 -0.04995229000000002 -0.13788666
v -0.15886551000000002 0.02034100999999999 -0.18857658000000002
v -0.17095931000000003 0.09324993 -0.20466028
v -0.19731832000000002 0.03741036999999999 -0.1485562
v -0.19014024 -0.006356300000000008 -0.14094496
v -0.22072307 0.03274659 -0.10372737
v -0.20632798000000002 -0.01810568000000001 -0.09724799
v -0.2349604 0.02150415 -0.03579843
v -0.21889166000000002 -0.029299840000000004 -0.03579843
v -0.18984002 -0.062423830000000013 -0.09122965000000001
v -0.19677823 -0.07040261 -0.03579843
v -0.18094613 -0.08509860000000001 -0.03579843
v -0.16883108000000002 -0.12150495000000001 -0.03579842999999999
v 0.00375615 0.10163670999999999 -0.28070162000000004
v 0.008420440000000001 0.03807217999999998 -0.27694462000000003
v -0.03319743000000001 0.09522992 -0.26643777
v 0.0031825700000000005 -0.005221210000000017 -0.26843340000000004
v -0.05833533 -0.008560520000000016 -0.24886606000000003
v -0.07283735 0.05041315999999998 -0.25240869000000005
v -0.07136634 0.09735934 -0.2532184
v -0.09830947000000001 0.024759479999999986 -0.24960709000000003
v -0.12069371000000001 -0.006952830000000016 -0.24506078000000003
v -0.09343641999999999 0.08585816 -0.24609387000000002
v -0.12783286000000002 0.034005949999999986 -0.24331658
v -0.14935622 -0.008484190000000015 -0.22732859
v -0.15326843 0.04137731999999999 -0.22332849
v -0.13169645 0.09135766 -0.24253390000000002
v -0.07392926 0.16647437 -0.24619298
v -0.03319743000000001 0.09522992 -0.26643777
v -0.14058133 0.11105113999999999 -0.22650409
v -0.17095931000000003 0.09324993 -0.20466028
v -0.12071785 0.18075199000000003 -0.19283134
v 0.00375615 0.10163670999999999 -0.28070162000000004
v -0.00252382 0.17295137 -0.27780448
v -0.10465489 0.17256496000000002 -0.22568775000000002
v -0.02832319 0.18315562000000002 -0.25803161
v 0.009557060000000001 0.19850050000000002 -0.25570074000000004
v -0.01023451 0.22218422000000002 -0.23008208000000002
v -0.07210193 0.20074739000000003 -0.22089511
v -0.06611317 0.23288062 -0.18291575
v -0.005293290000000001 0.25939654 -0.18148010000000003
v -0.10038415 0.22670231 -0.14772847000000003
v -0.06024256000000001 0.25427274 -0.13675633000000004
v 0.011564250000000002 0.27954987000000003 -0.14278351000000003
v -0.09514950999999999 0.24092247000000003 -0.10448710000000003
v 0.016881 0.30178689000000003 -0.10114354000000002
v -0.06475776 0.26822124 -0.09068429000000003
v -0.09628511000000001 0.25455477000000004 -0.03579843000000001
v 0.01435871 0.29966682 -0.03579843000000002
v -0.06598125 0.27238267000000005 -0.03579843000000002
v 0.05915745 -0.14423207999999998 0.22829317
v 0.00933895 -0.11648093999999998 0.35430023
v 0.00209134 -0.14465350999999999 0.27775535
v 0.050044090000000006 -0.10881853 0.35083597
v -0.00060384 -0.07769781999999997 0.40819907000000005
v 0.09965825 -0.09225934 0.29333857
v 0.15346002 -0.06945843 0.14822674
v 0.058081350000000004 -0.07054404999999997 0.40875259
v 0.01846659 -0.05909573999999997 0.44082173
v -0.0024684000000000004 -0.04240513999999997 0.4548197
v 0.15443412 -0.019895439999999986 0.21652288
v 0.02438786 -0.030889169999999973 0.45475680000000007
v 0.09871662000000002 -0.05425464999999999 0.32994195000000004
v 0.04378503 -0.031981079999999974 0.44497024
v 0.027838010000000003 -0.014791869999999971 0.48163856000000005
v 0.0031825700000000005 -0.00522120999999997 0.4992917
v 0.05469427 -0.026186629999999975 0.44898513
v 0.038302020000000006 0.006472410000000032 0.50389581
v 0.008420440000000001 0.03807218000000003 0.52063979
v 0.07414380000000001 -0.04607798999999997 0.41256926
v 0.051631210000000004 0.05687690000000003 0.51355028
v 0.00375615 0.10163671000000005 0.5300634000000001
v 0.08186282 0.00007888000000002814 0.45927744000000004
v 0.07366406 0.05308216000000004 0.48318284
v 0.08762888 0.06275397000000003 0.43865933
v 0.10770911000000001 0.05091687000000004 0.3986256900000001
v 0.09541556000000001 -0.035779729999999975 0.40578014
v 0.0984708 -0.006589879999999973 0.43532563
v 0.12403013000000002 -0.008767069999999978 0.37158056
v 0.15439842 0.05356768000000002 0.30216837
v 0.12318812 0.10241191000000004 0.37511826000000004
v 0.10812442 0.09704178000000002 0.45002842
v 0.08762888 0.06275397000000003 0.43865933
v 0.08671921000000002 0.09553507000000004 0.48327345000000005
v 0.07366406 0.05308216000000004 0.48318284
v 0.051631210000000004 0.05687690000000003 0.51355028
v 0.11301651000000001 0.16848870000000005 0.45443006
v 0.05435682 0.15598010000000004 0.51478431
v 0.00375615 0.10163671000000005 0.5300634000000001
v -0.00252382 0.17295137000000005 0.5227969200000001
v 0.009557060000000001 0.19850050000000005 0.4673555000000001
v 0.06608512000000001 0.20389256000000006 0.46257527000000004
v -0.01023451 0.22218422000000007 0.40309805000000004
v 0.07128831000000001 0.21919086000000004 0.3578007
v -0.005293290000000001 0.25939654 0.28119343
v 0.12278454 0.18695240000000002 0.29751292
v 0.07076879000000001 0.24347434 0.26156302
v 0.011564250000000002 0.27954987000000003 0.18413380000000001
v 0.08837450000000001 0.26029142 0.16920933
v 0.016881 0.30178689000000003 0.07969157999999998
v 0.12374844000000002 0.22085244 0.17946900000000002
v 0.09146102 0.27402028000000006 0.05052603999999998
v 0.01435871 0.29966682 -0.03579843000000002
v 0.09164173 0.27475604000000003 -0.03579843000000002
v 0.12860959 0.23752196000000003 -0.03579843000000001
v 0.12443286 0.22982725 0.08617775999999999
v 0.16057707000000002 0.18496561000000003 0.181339
v 0.17106794 0.19565402 0.06009126
v 0.17726206000000003 0.19595781 -0.03579843000000001
v 0.20872617 0.10192741000000001 -0.035798430000000006
v 0.18583550000000001 0.08240172000000001 0.13586077000000002
v 0.19310759 0.028148770000000004 -0.03579843
v 0.17190876000000002 0.038437510000000015 0.14156614
v 0.1767677 0.0019941000000000056 0.08655414
v 0.18365202 -0.04399447 -0.03579843
v 0.1729886 -0.059978550000000005 0.046909120000000006
v -0.0024684000000000004 -0.04240513999999997 0.4548197
v 0.0031825700000000005 -0.00522120999999997 0.4992917
v -0.05833533 -0.006596849999999972 0.45890786
v -0.030717980000000002 -0.048832669999999974 0.44551016000000004
v -0.00060384 -0.07769781999999997 0.40819907000000005
v -0.07419055000000001 -0.037418019999999975 0.45674869000000007
v -0.13385035 -0.006952829999999973 0.44066805000000003
v -0.0540481 -0.05529436999999998 0.41670485
v -0.12435449 -0.02964595999999997 0.42999749000000004
v -0.14935622 -0.008484189999999977 0.39619180000000004
v -0.05563454 -0.07388165999999999 0.38201499000000005
v -0.11323462 -0.04566556999999998 0.36893808000000006
v -0.14471726000000001 -0.03504838999999998 0.37666509000000004
v -0.03495778000000001 -0.10520518 0.35512575
v 0.00933895 -0.11648093999999998 0.35430023
v 0.00209134 -0.14465350999999999 0.27775535
v -0.0521526 -0.12566502 0.28739554
v -0.09899848 -0.07492749999999998 0.36673658000000003
v -0.11853301000000001 -0.08408811999999999 0.27265348
v -0.12111157 -0.11305560999999999 0.18184951000000002
v -0.13101815 -0.054239519999999986 0.30420361
v -0.15913241000000003 -0.07739470999999999 0.18506829000000002
v -0.15658139000000001 -0.11272088000000001 0.06279409000000001
v -0.15005611000000002 -0.040226079999999984 0.29128157000000005
v -0.18094613 -0.08509860000000001 -0.03579843
v -0.16883108000000002 -0.12150495000000001 -0.03579842999999999
v -0.15645661 -0.012556199999999981 0.29981880000000005
v -0.15326843 0.04137732000000003 0.38615874000000006
v -0.17414443 -0.07847863 0.08241396000000001
v -0.18984002 -0.06242383000000001 0.05482517
v -0.19677823 -0.07040261 -0.03579843
v -0.21889166000000002 -0.029299840000000004 -0.03579843
v -0.17689758000000003 -0.049952289999999996 0.1718513
v -0.20632798000000002 -0.018105679999999996 0.06992032000000001
v -0.2349604 0.02150415 -0.03579843
v -0.22072307 0.032746590000000006 0.08617215
v -0.19014024 -0.00635629999999999 0.17952238
v -0.19731832000000002 0.03741037000000002 0.19861304000000002
v -0.15886551000000002 0.02034101000000002 0.29899328000000003
v -0.17095931000000003 0.09324993000000004 0.33933445000000007
v 0.008420440000000001 0.03807218000000003 0.52063979
v 0.00375615 0.10163671000000005 0.5300634000000001
v -0.03319743000000001 0.09522992000000005 0.48532144000000005
v -0.05833533 -0.006596849999999972 0.45890786
v 0.0031825700000000005 -0.00522120999999997 0.4992917
v -0.07283735 0.050413160000000026 0.4590986
v -0.07136634 0.09735934000000003 0.46112925
v -0.09830947000000001 0.024759480000000028 0.45207114000000004
v -0.13385035 -0.006952829999999973 0.44066805000000003
v -0.09343641999999999 0.08585816000000003 0.44325919
v -0.14098950000000002 0.03400595000000003 0.43629344
v -0.14935622 -0.008484189999999977 0.39619180000000004
v -0.15326843 0.04137732000000003 0.38615874000000006
v -0.14485326 0.09135766000000003 0.43433028
v -0.07392926 0.16647437000000004 0.4435079
v -0.03319743000000001 0.09522992000000005 0.48532144000000005
v -0.14058133 0.11105114000000002 0.39412375000000005
v -0.17095931000000003 0.09324993000000004 0.33933445000000007
v -0.12071785 0.18075199000000006 0.30966503
v 0.00375615 0.10163671000000005 0.5300634000000001
v -0.00252382 0.17295137000000005 0.5227969200000001
v -0.10465489 0.17256496000000004 0.39207644
v -0.02832319 0.18315562000000005 0.4732018
v 0.009557060000000001 0.19850050000000005 0.4673555000000001
v -0.01023451 0.22218422000000007 0.40309805000000004
v -0.07210193 0.20074739000000008 0.38005522999999997
v -0.06611317 0.23288062 0.28479437
v -0.005293290000000001 0.25939654 0.28119343
v -0.10038415 0.22670231 0.19653683000000002
v -0.06024256000000001 0.25427274 0.16901621
v 0.011564250000000002 0.27954987000000003 0.18413380000000001
v -0.09514950999999999 0.24092247000000003 0.08807767999999999
v 0.016881 0.30178689000000003 0.07969157999999998
v -0.06475776 0.26822124 0.05345751999999999
v -0.09628511000000001 0.25455477000000004 -0.03579843000000001
v 0.01435871 0.29966682 -0.03579843000000002
v -0.06598125 0.27238267000000005 -0.03579843000000002
v -0.21852378 0.12656805999999998 -0.18548785
v -0.17095931000000003 0.09324993 -0.20466028
v -0.22165552 0.06593246 -0.14542225
v -0.19731832000000002 0.03741036999999999 -0.1485562
v -0.22072307 0.03274659 -0.10372737
v -0.25112434 0.1107839 -0.13921895
v -0.25284593 0.060389099999999994 -0.09828924000000001
v -0.2349604 0.02150415 -0.03579843
v -0.26278991 0.05442737 -0.035798430000000006
v -0.26354284 0.12797651000000002 -0.09555292000000001
v -0.26973033 0.12390450000000001 -0.03579843000000001
v -0.20433847000000002 0.21581704000000002 -0.03579843000000001
v -0.19584204000000002 0.19867441000000002 -0.13721346000000004
v -0.21852378 0.12656805999999998 -0.18548785
v -0.19894522 0.21178039000000004 -0.09602263000000003
v -0.13723029 0.24425532 -0.09489162000000002
v -0.13435746 0.25392645 -0.03579843000000001
v -0.09628511000000001 0.25455477000000004 -0.03579843000000001
v -0.09514950999999999 0.24092247000000003 -0.10448710000000003
v -0.13349318000000002 0.22994557000000002 -0.13565932000000003
v -0.10038415 0.22670231 -0.14772847000000003
v -0.16733423000000003 0.18542903000000002 -0.17907375
v -0.12071785 0.18075199000000003 -0.19283134
v -0.17095931000000003 0.09324993 -0.20466028
v -0.17095931000000003 0.09324993000000004 0.33933445000000007
v -0.21852378 0.12656806000000004 0.29124587
v -0.22165552 0.06593246000000001 0.19075224000000002
v -0.19731832000000002 0.03741037000000002 0.19861304000000002
v -0.22072307 0.032746590000000006 0.08617215
v -0.25112434 0.11078390000000002 0.17519316000000001
v -0.25284593 0.0603891 0.07253203000000001
v -0.2349604 0.02150415 -0.03579843
v -0.26278991 0.05442737 -0.035798430000000006
v -0.26354284 0.12797651000000002 0.06566896
v -0.26973033 0.12390450000000001 -0.03579843000000001
v -0.20433847000000002 0.21581704000000002 -0.03579843000000001
v -0.19584204000000002 0.19867441000000002 0.17016303
v -0.21852378 0.12656806000000004 0.29124587
v -0.19894522 0.21178039000000004 0.06684688999999999
v -0.13723029 0.24425532 0.06401026999999998
v -0.13435746 0.25392645 -0.03579843000000001
v -0.09628511000000001 0.25455477000000004 -0.03579843000000001
v -0.09514950999999999 0.24092247000000003 0.08807767999999999
v -0.13349318000000002 0.22994557000000002 0.16626475999999998
v -0.10038415 0.22670231 0.19653683000000002
v -0.16733423000000003 0.18542903000000002 0.27515792
v -0.12071785 0.18075199000000006 0.30966503
v -0.17095931000000003 0.09324993000000004 0.33933445000000007
vt 0.442326 0.032224
vt 0.378953 0.024312
vt 0.420414 0.119865
vt 0.354914 0.129269
vt 0.341899 0.021132
vt 0.389683 0.220539
vt 0.315671 0.129278
vt 0.319560 0.209354
vt 0.264291 0.273597
vt 0.246240 0.012050
vt 0.282592 0.208118
vt 0.237540 0.254101
vt 0.268151 0.116789
vt 0.202878 0.207519
vt 0.218474 0.110438
vt 0.144135 0.008427
vt 0.145994 0.130552
vt 0.150280 0.216788
vt 0.083711 0.110785
vt 0.071441 0.012256
vt 0.010968 0.017820
vt 0.021114 0.108463
vt 0.050082 0.220480
vt 0.099295 0.197949
vt 0.131756 0.274987
vt 0.115688 0.328557
vt 0.177801 0.277542
vt 0.171782 0.328709
vt 0.231068 0.264824
vt 0.248446 0.304551
vt 0.378953 0.024312
vt 0.442326 0.032224
vt 0.420414 0.119865
vt 0.354914 0.129269
vt 0.341899 0.021132
vt 0.389683 0.220539
vt 0.315671 0.129278
vt 0.319560 0.209354
vt 0.264291 0.273597
vt 0.246240 0.012050
vt 0.282592 0.208118
vt 0.237540 0.254101
vt 0.268151 0.116789
vt 0.202878 0.207519
vt 0.218474 0.110438
vt 0.144135 0.008427
vt 0.145994 0.130552
vt 0.150280 0.216788
vt 0.083711 0.110785
vt 0.071441 0.012256
vt 0.021114 0.108463
vt 0.010968 0.017820
vt 0.050082 0.220480
vt 0.099295 0.197949
vt 0.131756 0.274987
vt 0.115688 0.328557
vt 0.177801 0.277542
vt 0.171782 0.328709
vt 0.231068 0.264824
vt 0.248446 0.304551
vt 0.486457 0.530228
vt 0.497116 0.678059
vt 0.532784 0.613310
vt 0.450155 0.549565
vt 0.453174 0.471947
vt 0.422294 0.632592
vt 0.407592 0.775219
vt 0.410627 0.520187
vt 0.421299 0.463386
vt 0.426920 0.433011
vt 0.352367 0.717951
vt 0.388683 0.430123
vt 0.383089 0.607107
vt 0.376154 0.444977
vt 0.372680 0.412956
vt 0.384634 0.382894
vt 0.359718 0.444969
vt 0.337493 0.384721
vt 0.335335 0.339864
vt 0.380792 0.521971
vt 0.285788 0.346887
vt 0.282563 0.274965
vt 0.323401 0.447598
vt 0.274887 0.402398
vt 0.260970 0.462139
vt 0.269203 0.535089
vt 0.358027 0.529570
vt 0.326099 0.486371
vt 0.325389 0.575864
vt 0.274180 0.649144
vt 0.220808 0.584496
vt 0.202973 0.515885
vt 0.223790 0.475519
vt 0.165713 0.454201
vt 0.187337 0.421211
vt 0.158276 0.381259
vt 0.140252 0.538576
vt 0.097235 0.457384
vt 0.089094 0.378801
vt 0.044193 0.435781
vt 0.038518 0.493615
vt 0.085817 0.535683
vt 0.012616 0.583431
vt 0.086561 0.628611
vt 0.008590 0.697354
vt 0.151648 0.675004
vt 0.080636 0.714832
vt 0.015631 0.786013
vt 0.086639 0.798485
vt 0.013383 0.882165
vt 0.132860 0.784640
vt 0.085566 0.906165
vt 0.015544 0.981535
vt 0.088920 0.987879
vt 0.136458 0.982292
vt 0.132462 0.869793
vt 0.178488 0.780380
vt 0.184842 0.890500
vt 0.194153 0.979290
vt 0.282850 0.967195
vt 0.276545 0.806723
vt 0.348154 0.952631
vt 0.314909 0.791264
vt 0.350629 0.838330
vt 0.411974 0.944532
vt 0.411653 0.867418
vt 0.973314 0.765310
vt 0.919185 0.746706
vt 0.935123 0.809395
vt 0.896444 0.764667
vt 0.877990 0.724827
vt 0.906742 0.811301
vt 0.905283 0.859258
vt 0.873313 0.777863
vt 0.879289 0.848374
vt 0.825654 0.879284
vt 0.845231 0.766422
vt 0.823534 0.821713
vt 0.806634 0.852623
vt 0.821210 0.731758
vt 0.829658 0.689912
vt 0.742630 0.668145
vt 0.734292 0.722299
vt 0.799355 0.792358
vt 0.713704 0.793614
vt 0.629914 0.773426
vt 0.742035 0.826818
vt 0.630826 0.823384
vt 0.519047 0.796922
vt 0.730203 0.851126
vt 0.537437 0.832596
vt 0.738226 0.879440
vt 0.818326 0.925998
vt 0.619289 0.856382
vt 0.739342 0.910939
vt 0.778557 0.977539
vt 0.645519 0.941758
vt 0.627017 0.899945
vt 0.542738 0.946586
vt 0.527463 0.898197
vt 0.441697 0.942966
vt 0.430246 0.895210
vt 0.512822 0.855170
vt 0.429209 0.853051
vt 0.440951 0.833390
vt 0.427648 0.799535
vt 0.880075 0.675372
vt 0.937120 0.634658
vt 0.857321 0.602907
vt 0.977647 0.573770
vt 0.941527 0.516608
vt 0.882643 0.527927
vt 0.838903 0.557794
vt 0.898670 0.495774
vt 0.919035 0.457639
vt 0.840755 0.514072
vt 0.880325 0.465986
vt 0.894575 0.385440
vt 0.845840 0.400867
vt 0.830513 0.481707
vt 0.777644 0.548075
vt 0.848709 0.610290
vt 0.788809 0.438178
vt 0.781003 0.378129
vt 0.689166 0.407962
vt 0.854246 0.685524
vt 0.773495 0.658927
vt 0.734063 0.471415
vt 0.758347 0.598044
vt 0.726294 0.623634
vt 0.671311 0.546714
vt 0.697915 0.488608
vt 0.621095 0.439207
vt 0.575725 0.482983
vt 0.582187 0.361783
vt 0.531472 0.380183
vt 0.494674 0.442169
vt 0.498241 0.306017
vt 0.415493 0.389370
vt 0.449547 0.314003
vt 0.406303 0.238222
vt 0.341837 0.324037
vt 0.385344 0.261657
vt 0.497116 0.678059
vt 0.486457 0.530228
vt 0.532784 0.613310
vt 0.450155 0.549565
vt 0.453174 0.471947
vt 0.422294 0.632592
vt 0.407592 0.775219
vt 0.410627 0.520187
vt 0.421299 0.463386
vt 0.426920 0.433011
vt 0.352367 0.717951
vt 0.388683 0.430123
vt 0.383089 0.607107
vt 0.376154 0.444977
vt 0.372680 0.412956
vt 0.384634 0.382894
vt 0.359718 0.444969
vt 0.337493 0.384721
vt 0.335335 0.339864
vt 0.380792 0.521971
vt 0.285788 0.346887
vt 0.282563 0.274965
vt 0.323401 0.447598
vt 0.274887 0.402398
vt 0.260970 0.462139
vt 0.269203 0.535089
vt 0.358027 0.529570
vt 0.326099 0.486371
vt 0.325389 0.575864
vt 0.274180 0.649144
vt 0.220808 0.584496
vt 0.202973 0.515885
vt 0.223790 0.475519
vt 0.165713 0.454201
vt 0.187337 0.421211
vt 0.158276 0.381259
vt 0.140252 0.538576
vt 0.097235 0.457384
vt 0.089094 0.378801
vt 0.044193 0.435781
vt 0.038518 0.493615
vt 0.085817 0.535683
vt 0.012616 0.583431
vt 0.086561 0.628611
vt 0.008590 0.697354
vt 0.151648 0.675004
vt 0.080636 0.714832
vt 0.015631 0.786013
vt 0.086639 0.798485
vt 0.013383 0.882165
vt 0.132860 0.784640
vt 0.085566 0.906165
vt 0.015544 0.981535
vt 0.088920 0.987879
vt 0.136458 0.982292
vt 0.132462 0.869793
vt 0.178488 0.780380
vt 0.184842 0.890500
vt 0.194153 0.979290
vt 0.282850 0.967195
vt 0.276545 0.806723
vt 0.348154 0.952631
vt 0.314909 0.791264
vt 0.350629 0.838330
vt 0.411974 0.944532
vt 0.411653 0.867418
vt 0.919185 0.746706
vt 0.973314 0.765310
vt 0.935123 0.809395
vt 0.896444 0.764667
vt 0.877990 0.724827
vt 0.906742 0.811301
vt 0.905283 0.859258
vt 0.873313 0.777863
vt 0.879289 0.848374
vt 0.825654 0.879284
vt 0.845231 0.766422
vt 0.823534 0.821713
vt 0.806634 0.852623
vt 0.821210 0.731758
vt 0.829658 0.689912
vt 0.742630 0.668145
vt 0.734292 0.722299
vt 0.799355 0.792358
vt 0.713704 0.793614
vt 0.629914 0.773426
vt 0.742035 0.826818
vt 0.630826 0.823384
vt 0.519047 0.796922
vt 0.730203 0.851126
vt 0.440951 0.833390
vt 0.427648 0.799535
vt 0.738226 0.879440
vt 0.818326 0.925998
vt 0.537437 0.832596
vt 0.512822 0.855170
vt 0.429209 0.853051
vt 0.430246 0.895210
vt 0.619289 0.856382
vt 0.527463 0.898197
vt 0.441697 0.942966
vt 0.542738 0.946586
vt 0.627017 0.899945
vt 0.645519 0.941758
vt 0.739342 0.910939
vt 0.778557 0.977539
vt 0.937120 0.634658
vt 0.880075 0.675372
vt 0.857321 0.602907
vt 0.941527 0.516608
vt 0.977647 0.573770
vt 0.882643 0.527927
vt 0.838903 0.557794
vt 0.898670 0.495774
vt 0.919035 0.457639
vt 0.840755 0.514072
vt 0.880325 0.465986
vt 0.894575 0.385440
vt 0.845840 0.400867
vt 0.830513 0.481707
vt 0.777644 0.548075
vt 0.848709 0.610290
vt 0.788809 0.438178
vt 0.781003 0.378129
vt 0.689166 0.407962
vt 0.854246 0.685524
vt 0.773495 0.658927
vt 0.734063 0.471415
vt 0.758347 0.598044
vt 0.726294 0.623634
vt 0.671311 0.546714
vt 0.697915 0.488608
vt 0.621095 0.439207
vt 0.575725 0.482983
vt 0.582187 0.361783
vt 0.531472 0.380183
vt 0.494674 0.442169
vt 0.498241 0.306017
vt 0.415493 0.389370
vt 0.449547 0.314003
vt 0.406303 0.238222
vt 0.341837 0.324037
vt 0.385344 0.261657
vt 0.879657 0.132698
vt 0.946813 0.082591
vt 0.779506 0.064653
vt 0.790894 0.028696
vt 0.684023 0.030196
vt 0.760312 0.116060
vt 0.663517 0.066810
vt 0.575310 0.023029
vt 0.567064 0.060256
vt 0.655675 0.127270
vt 0.565285 0.121834
vt 0.559050 0.221935
vt 0.746624 0.213651
vt 0.863558 0.164372
vt 0.653747 0.222109
vt 0.652545 0.284643
vt 0.561722 0.293769
vt 0.563720 0.328025
vt 0.676943 0.321552
vt 0.743688 0.278173
vt 0.773979 0.306674
vt 0.842236 0.233719
vt 0.879710 0.270457
vt 0.929311 0.188748
vt 0.946813 0.082591
vt 0.879657 0.132698
vt 0.779506 0.064653
vt 0.790894 0.028696
vt 0.684023 0.030196
vt 0.760312 0.116060
vt 0.663517 0.066810
vt 0.575310 0.023029
vt 0.567064 0.060256
vt 0.655675 0.127270
vt 0.565285 0.121834
vt 0.559050 0.221935
vt 0.746624 0.213651
vt 0.863558 0.164372
vt 0.653747 0.222109
vt 0.652545 0.284643
vt 0.561722 0.293769
vt 0.563720 0.328025
vt 0.676943 0.321552
vt 0.743688 0.278173
vt 0.773979 0.306674
vt 0.842236 0.233719
vt 0.879710 0.270457
vt 0.929311 0.188748
vn 0.976156 -0.215129 -0.028980999999999986
vn 0.88473 -0.465335 -0.026761999999999973
vn 0.91859 -0.324001 -0.22630799999999998
vn 0.857559 -0.454976 -0.23997799999999997
vn 0.800197 -0.599472 -0.017831999999999962
vn 0.80388 -0.37741100000000005 -0.459715
vn 0.751841 -0.633714 -0.18204999999999996
vn 0.712651 -0.38729900000000006 -0.584918
vn 0.398185 -0.566328 -0.72161
vn 0.400854 -0.916139 0.002314000000000056
vn 0.421893 -0.666009 -0.615173
vn 0.28626 -0.593521 -0.752188
vn 0.459527 -0.868115 -0.18764499999999995
vn 0.092219 -0.857228 -0.506612
vn 0.084509 -0.943638 -0.32000999999999996
vn -0.29197 -0.955322 -0.04596399999999994
vn -0.297743 -0.893048 -0.33736399999999994
vn -0.225493 -0.83526 -0.501491
vn -0.640606 -0.67561 -0.36493099999999995
vn -0.741867 -0.668117 -0.05703799999999996
vn -0.903037 -0.426728 -0.04926799999999997
vn -0.801497 -0.505029 -0.32023099999999993
vn -0.617351 -0.514841 -0.594825
vn -0.558205 -0.648052 -0.518108
vn -0.370965 -0.506927 -0.778081
vn -0.323642 -0.587834 -0.741422
vn 0.048384 -0.636615 -0.769662
vn 0.076949 -0.596905 -0.798614
vn 0.28626 -0.593521 -0.752188
vn 0.398185 -0.566328 -0.72161
vn 0.88473 -0.465335 -0.026761999999999973
vn 0.976156 -0.215129 -0.028980999999999986
vn 0.936738 -0.332052 0.11073800000000002
vn 0.878666 -0.463762 0.11345000000000002
vn 0.800197 -0.599472 -0.017831999999999962
vn 0.88294 -0.415288 0.21898200000000004
vn 0.765285 -0.639222 0.07572600000000004
vn 0.835967 -0.453817 0.30856100000000003
vn 0.537539 -0.742697 0.39931600000000006
vn 0.400854 -0.916139 0.002314000000000056
vn 0.51234 -0.796597 0.32084300000000004
vn 0.402434 -0.809411 0.4276690000000001
vn 0.463454 -0.882582 0.07911600000000006
vn 0.111395 -0.966213 0.23243000000000005
vn 0.092242 -0.984615 0.14840700000000007
vn -0.29197 -0.955322 -0.04596399999999994
vn -0.310817 -0.937331 0.15748900000000005
vn -0.258913 -0.937329 0.23319400000000007
vn -0.683464 -0.70703 0.18161700000000006
vn -0.741867 -0.668117 -0.05703799999999996
vn -0.832831 -0.529638 0.16086200000000003
vn -0.903037 -0.426728 -0.04926799999999997
vn -0.737919 -0.607973 0.29299200000000003
vn -0.641758 -0.72603 0.24703500000000006
vn -0.522702 -0.718989 0.45808100000000007
vn -0.421197 -0.795378 0.4358520000000001
vn 0.053342 -0.879761 0.47241400000000006
vn 0.108844 -0.870827 0.47938800000000004
vn 0.402434 -0.809411 0.4276690000000001
vn 0.537539 -0.742697 0.39931600000000006
vn 0.062885 -0.636145 -0.769003
vn 0.398185 -0.566328 -0.72161
vn 0.076949 -0.596905 -0.798614
vn 0.263082 -0.598399 -0.756774
vn -0.070668 -0.46187600000000006 -0.884125
vn 0.629623 -0.46264900000000003 -0.624124
vn 0.80388 -0.37741100000000005 -0.459715
vn 0.345108 -0.42877800000000005 -0.834895
vn 0.078366 -0.39076400000000006 -0.917149
vn -0.126288 -0.48166700000000007 -0.867208
vn 0.829919 -0.28740000000000004 -0.478158
vn 0.128298 -0.49198600000000003 -0.861098
vn 0.64302 -0.4891150000000001 -0.589315
vn 0.225608 -0.4338540000000001 -0.87228
vn 0.177542 -0.511526 -0.840726
vn -0.120503 -0.30137100000000006 -0.945862
vn 0.259546 -0.45529700000000006 -0.851669
vn 0.129712 -0.3030900000000001 -0.944093
vn -0.157777 -0.12365000000000005 -0.979703
vn 0.347762 -0.552083 -0.757803
vn 0.238849 -0.06333600000000006 -0.968989
vn -0.114876 -0.010691000000000062 -0.993322
vn 0.505203 -0.24094800000000005 -0.828682
vn 0.689126 -0.05464300000000004 -0.722578
vn 0.694211 -0.16353800000000004 -0.700947
vn 0.691779 -0.06707000000000005 -0.718988
vn 0.574162 -0.49223300000000003 -0.654251
vn 0.709221 -0.11398700000000005 -0.69571
vn 0.721162 -0.26069500000000007 -0.641844
vn 0.851339 -0.01974300000000003 -0.524245
vn 0.875024 -0.00953300000000003 -0.483985
vn 0.68446 -0.22975600000000004 -0.6919
vn 0.694211 -0.16353800000000004 -0.700947
vn 0.544797 -0.12150800000000006 -0.829718
vn 0.689126 -0.05464300000000004 -0.722578
vn 0.238849 -0.06333600000000006 -0.968989
vn 0.704317 0.28659199999999996 -0.649463
vn 0.213479 0.20902599999999993 -0.954324
vn -0.114876 -0.010691000000000062 -0.993322
vn -0.197139 0.31756499999999993 -0.927517
vn -0.058698 0.619487 -0.782809
vn 0.20668 0.679736 -0.703734
vn -0.1759 0.748818 -0.639008
vn 0.396843 0.805443 -0.44020100000000006
vn -0.071883 0.861756 -0.502205
vn 0.733829 0.49469099999999994 -0.46559200000000006
vn 0.378035 0.77169 -0.511453
vn 0.01027 0.884537 -0.46635800000000005
vn 0.520302 0.756653 -0.39593200000000006
vn -0.026106 0.96591 -0.25756000000000007
vn 0.671966 0.665126 -0.32568300000000006
vn 0.56375 0.819106 -0.10607200000000006
vn -0.013518 0.999908 -0.001313000000000061
vn 0.52303 0.852311 -0.0025370000000000522
vn 0.690385 0.723224 -0.017764000000000044
vn 0.693965 0.694777 -0.18893700000000005
vn 0.792464 0.457651 -0.40318300000000007
vn 0.826287 0.52654 -0.20001100000000002
vn 0.828791 0.559258 -0.018338000000000035
vn 0.992451 0.113043 -0.047553000000000005
vn 0.951711 -0.04020400000000002 -0.304351
vn 0.985028 -0.164367 -0.05199999999999999
vn 0.951417 -0.15046300000000004 -0.268639
vn 0.955174 -0.11199600000000001 -0.274043
vn 0.976156 -0.215129 -0.028980999999999986
vn 0.91859 -0.324001 -0.22630799999999998
vn -0.120503 -0.30137100000000006 -0.945862
vn -0.126288 -0.48166700000000007 -0.867208
vn -0.163212 -0.20722500000000005 -0.964583
vn -0.094134 -0.3877610000000001 -0.916941
vn -0.070668 -0.46187600000000006 -0.884125
vn -0.035027 -0.33380000000000004 -0.941993
vn -0.259146 -0.12563800000000006 -0.957632
vn -0.145516 -0.52193 -0.840485
vn -0.335962 -0.53732 -0.773574
vn -0.791897 -0.16629300000000002 -0.587576
vn -0.173435 -0.37332800000000005 -0.911343
vn -0.342325 -0.623932 -0.702512
vn -0.584692 -0.66386 -0.4662879999999999
vn -0.160451 -0.569218 -0.806379
vn 0.062885 -0.636145 -0.769003
vn 0.076949 -0.596905 -0.798614
vn -0.323642 -0.587834 -0.741422
vn -0.441397 -0.500211 -0.744955
vn -0.57713 -0.616125 -0.536013
vn -0.617351 -0.514841 -0.594825
vn -0.597928 -0.613489 -0.515862
vn -0.689714 -0.537818 -0.48481599999999997
vn -0.801497 -0.505029 -0.32023099999999993
vn -0.817526 -0.424001 -0.389711
vn -0.813654 -0.523192 -0.25344999999999995
vn -0.912343 -0.16434100000000001 -0.374997
vn -0.837156 -0.025830000000000033 -0.546355
vn -0.824509 -0.37183 -0.42653
vn -0.867314 -0.17032100000000003 -0.467716
vn -0.638825 -0.034348000000000045 -0.768585
vn -0.742377 -0.34442800000000007 -0.574671
vn -0.833469 -0.23115100000000002 -0.501896
vn -0.794748 -0.46413 -0.39109799999999995
vn -0.894301 -0.319281 -0.313506
vn -0.859102 -0.509303 -0.05053899999999997
vn -0.920425 -0.388284 -0.04532399999999998
vn -0.81741 -0.5214 -0.24491399999999997
vn -0.790738 -0.611123 -0.035510999999999966
vn -0.832549 -0.552729 -0.036779999999999965
vn -0.903037 -0.426728 -0.04926799999999997
vn -0.114876 -0.010691000000000062 -0.993322
vn -0.157777 -0.12365000000000005 -0.979703
vn -0.350552 0.004025999999999943 -0.936535
vn -0.120503 -0.30137100000000006 -0.945862
vn -0.163212 -0.20722500000000005 -0.964583
vn -0.215032 -0.024873000000000058 -0.97629
vn -0.324906 0.03835699999999995 -0.944968
vn -0.135661 -0.003992000000000061 -0.990747
vn -0.259146 -0.12563800000000006 -0.957632
vn -0.200379 0.041093999999999936 -0.978856
vn -0.385635 0.0022229999999999438 -0.922649
vn -0.791897 -0.16629300000000002 -0.587576
vn -0.837156 -0.025830000000000033 -0.546355
vn -0.458336 0.10499899999999994 -0.882555
vn -0.366542 0.31894999999999996 -0.874024
vn -0.350552 0.004025999999999943 -0.936535
vn -0.662202 0.3045089999999999 -0.684663
vn -0.638825 -0.034348000000000045 -0.768585
vn -0.525202 0.598154 -0.605289
vn -0.114876 -0.010691000000000062 -0.993322
vn -0.197139 0.31756499999999993 -0.927517
vn -0.561871 0.521573 -0.642077
vn -0.363089 0.4635389999999999 -0.808269
vn -0.058698 0.619487 -0.782809
vn -0.1759 0.748818 -0.639008
vn -0.434701 0.663715 -0.608701
vn -0.44542 0.768249 -0.4597760000000001
vn -0.071883 0.861756 -0.502205
vn -0.32647 0.829354 -0.45341900000000007
vn -0.429151 0.846169 -0.31595500000000004
vn 0.01027 0.884537 -0.46635800000000005
vn -0.294378 0.918947 -0.26244500000000004
vn -0.026106 0.96591 -0.25756000000000007
vn -0.470391 0.869416 -0.15115400000000007
vn -0.292784 0.955612 -0.032914000000000054
vn -0.013518 0.999908 -0.001313000000000061
vn -0.416449 0.909035 -0.014998000000000055
vn 0.537539 -0.742697 0.39931600000000006
vn 0.052073 -0.899583 0.43363500000000005
vn 0.108844 -0.870827 0.47938800000000004
vn 0.354478 -0.832685 0.4254180000000001
vn -0.108133 -0.831394 0.545061
vn 0.778783 -0.550233 0.3012310000000001
vn 0.88294 -0.415288 0.21898200000000004
vn 0.490264 -0.674573 0.551899
vn 0.188459 -0.66378 0.723795
vn -0.020672 -0.714872 0.69895
vn 0.921454 -0.322244 0.21698400000000004
vn 0.293169 -0.679257 0.672801
vn 0.782513 -0.558413 0.27540600000000004
vn 0.277947 -0.688283 0.670084
vn 0.247363 -0.801154 0.544944
vn -0.119478 -0.635498 0.762802
vn 0.37512 -0.702388 0.604927
vn 0.341172 -0.564355 0.751735
vn -0.267106 -0.24846799999999994 0.931085
vn 0.578236 -0.666723 0.47023800000000004
vn 0.550584 -0.16660899999999995 0.817985
vn -0.194003 -0.043792999999999936 0.980023
vn 0.736638 -0.3430349999999999 0.582831
vn 0.88266 -0.16859099999999996 0.438734
vn 0.873104 -0.28187 0.397792
vn 0.902348 -0.06650099999999998 0.425847
vn 0.649848 -0.653534 0.38806100000000004
vn 0.849092 -0.20944799999999997 0.484948
vn 0.902617 -0.305839 0.302895
vn 0.967775 -0.015566999999999984 0.251336
vn 0.973503 -0.011852999999999987 0.228367
vn 0.868302 -0.314396 0.383675
vn 0.873104 -0.28187 0.397792
vn 0.8031 -0.20609899999999998 0.559065
vn 0.88266 -0.16859099999999996 0.438734
vn 0.550584 -0.16660899999999995 0.817985
vn 0.860403 0.328068 0.389972
vn 0.434758 0.35744900000000007 0.826568
vn -0.194003 -0.043792999999999936 0.980023
vn -0.387493 0.515712 0.764127
vn -0.073308 0.882745 0.46409899999999993
vn 0.258968 0.866658 0.42642599999999997
vn -0.226015 0.919572 0.3214099999999999
vn 0.427357 0.882838 0.19483999999999996
vn -0.070639 0.970928 0.22870999999999994
vn 0.811327 0.545968 0.20896799999999996
vn 0.426388 0.874428 0.23145099999999993
vn 0.020707 0.978149 0.20687399999999995
vn 0.554314 0.81418 0.17275999999999994
vn -0.026235 0.993879 0.10731199999999995
vn 0.703561 0.696918 0.13894699999999993
vn 0.564352 0.824244 0.046141999999999954
vn -0.013518 0.999908 -0.001313000000000061
vn 0.52303 0.852311 -0.0025370000000000522
vn 0.690385 0.723224 -0.017764000000000044
vn 0.703665 0.705639 0.08323599999999996
vn 0.856179 0.485118 0.17781299999999997
vn 0.838694 0.535817 0.09742899999999997
vn 0.828791 0.559258 -0.018338000000000035
vn 0.992451 0.113043 -0.047553000000000005
vn 0.989215 -0.03500399999999999 0.142227
vn 0.985028 -0.164367 -0.05199999999999999
vn 0.978414 -0.165089 0.12430200000000001
vn 0.983991 -0.125446 0.126589
vn 0.976156 -0.215129 -0.028980999999999986
vn 0.936738 -0.332052 0.11073800000000002
vn -0.020672 -0.714872 0.69895
vn -0.119478 -0.635498 0.762802
vn -0.319092 -0.21639799999999995 0.922687
vn -0.101447 -0.69771 0.709161
vn -0.108133 -0.831394 0.545061
vn -0.222411 -0.594025 0.77309
vn -0.568644 -0.21322999999999995 0.794467
vn -0.301752 -0.884186 0.3565960000000001
vn -0.536422 -0.760489 0.36593400000000004
vn -0.94899 -0.23223 0.21327900000000002
vn -0.33949 -0.685804 0.643754
vn -0.460333 -0.78583 0.41299500000000006
vn -0.656246 -0.726816 0.20268100000000006
vn -0.266291 -0.834674 0.48208700000000004
vn 0.052073 -0.899583 0.43363500000000005
vn 0.108844 -0.870827 0.47938800000000004
vn -0.421197 -0.795378 0.4358520000000001
vn -0.56646 -0.665731 0.48572200000000004
vn -0.663282 -0.706588 0.24655600000000005
vn -0.737919 -0.607973 0.29299200000000003
vn -0.683747 -0.689751 0.23818900000000007
vn -0.766948 -0.603066 0.21932100000000002
vn -0.832831 -0.529638 0.16086200000000003
vn -0.872344 -0.457527 0.17229300000000003
vn -0.832549 -0.552729 -0.036779999999999965
vn -0.903037 -0.426728 -0.04926799999999997
vn -0.97031 -0.177317 0.164491
vn -0.985 -0.02261699999999999 0.171065
vn -0.83769 -0.534185 0.11367800000000003
vn -0.83831 -0.530541 0.12555200000000002
vn -0.790738 -0.611123 -0.035510999999999966
vn -0.920425 -0.388284 -0.04532399999999998
vn -0.896417 -0.402116 0.18638500000000002
vn -0.929146 -0.3366 0.15293100000000004
vn -0.859102 -0.509303 -0.05053899999999997
vn -0.849224 -0.495666 0.18202800000000002
vn -0.938779 -0.258656 0.22757800000000003
vn -0.872297 -0.405192 0.27371
vn -0.957726 -0.19249 0.213795
vn -0.872745 0.010237000000000029 0.488069
vn -0.267106 -0.24846799999999994 0.931085
vn -0.194003 -0.043792999999999936 0.980023
vn -0.659244 0.016869000000000044 0.75174
vn -0.319092 -0.21639799999999995 0.922687
vn -0.119478 -0.635498 0.762802
vn -0.454348 -0.009497999999999946 0.890774
vn -0.591784 0.08047300000000006 0.80207
vn -0.303816 0.044348000000000054 0.951698
vn -0.568644 -0.21322999999999995 0.794467
vn -0.4035 0.09046700000000006 0.910496
vn -0.711109 0.0017630000000000432 0.703079
vn -0.94899 -0.23223 0.21327900000000002
vn -0.985 -0.02261699999999999 0.171065
vn -0.761172 0.21067800000000003 0.613378
vn -0.592798 0.48965900000000007 0.639394
vn -0.659244 0.016869000000000044 0.75174
vn -0.86024 0.421711 0.286613
vn -0.872745 0.010237000000000029 0.488069
vn -0.620075 0.715838 0.32106599999999996
vn -0.194003 -0.043792999999999936 0.980023
vn -0.387493 0.515712 0.764127
vn -0.692893 0.638861 0.33429799999999993
vn -0.569962 0.630791 0.526542
vn -0.073308 0.882745 0.46409899999999993
vn -0.226015 0.919572 0.3214099999999999
vn -0.518749 0.799983 0.30154099999999995
vn -0.490076 0.847372 0.20441499999999996
vn -0.070639 0.970928 0.22870999999999994
vn -0.350622 0.913272 0.20735799999999993
vn -0.447502 0.884483 0.13202999999999995
vn 0.020707 0.978149 0.20687399999999995
vn -0.300243 0.946542 0.11795199999999995
vn -0.026235 0.993879 0.10731199999999995
vn -0.471699 0.878873 0.07129699999999994
vn -0.292784 0.955612 -0.032914000000000054
vn -0.013518 0.999908 -0.001313000000000061
vn -0.416449 0.909035 -0.014998000000000055
vn -0.65594 0.12507699999999994 -0.744378
vn -0.638825 -0.034348000000000045 -0.768585
vn -0.66112 -0.47407600000000005 -0.581525
vn -0.742377 -0.34442800000000007 -0.574671
vn -0.794748 -0.46413 -0.39109799999999995
vn -0.876885 0.014497999999999971 -0.480481
vn -0.82314 -0.467581 -0.3221939999999999
vn -0.859102 -0.509303 -0.05053899999999997
vn -0.950695 -0.308343 -0.03320999999999998
vn -0.935563 0.289669 -0.20202400000000004
vn -0.966243 0.257078 -0.01686800000000002
vn -0.653398 0.756756 -0.019779000000000047
vn -0.60904 0.681267 -0.40613400000000005
vn -0.65594 0.12507699999999994 -0.744378
vn -0.630953 0.750894 -0.19507800000000006
vn -0.262021 0.937811 -0.22771700000000006
vn -0.255107 0.966468 -0.02933500000000006
vn -0.292784 0.955612 -0.032914000000000054
vn -0.294378 0.918947 -0.26244500000000004
vn -0.200436 0.877182 -0.43632200000000004
vn -0.32647 0.829354 -0.45341900000000007
vn -0.296655 0.58968 -0.751181
vn -0.525202 0.598154 -0.605289
vn -0.638825 -0.034348000000000045 -0.768585
vn -0.872745 0.010237000000000029 0.488069
vn -0.869806 0.18367400000000003 0.457931
vn -0.781644 -0.558011 0.27866900000000006
vn -0.872297 -0.405192 0.27371
vn -0.849224 -0.495666 0.18202800000000002
vn -0.975836 -0.0011039999999999865 0.2185
vn -0.858166 -0.489178 0.15574300000000002
vn -0.859102 -0.509303 -0.05053899999999997
vn -0.950695 -0.308343 -0.03320999999999998
vn -0.950071 0.297073 0.09545499999999998
vn -0.966243 0.257078 -0.01686800000000002
vn -0.653398 0.756756 -0.019779000000000047
vn -0.655744 0.733951 0.17696099999999995
vn -0.869806 0.18367400000000003 0.457931
vn -0.640062 0.76306 0.08978099999999996
vn -0.269755 0.956769 0.10874399999999994
vn -0.255107 0.966468 -0.02933500000000006
vn -0.292784 0.955612 -0.032914000000000054
vn -0.300243 0.946542 0.11795199999999995
vn -0.221439 0.955588 0.19446199999999994
vn -0.350622 0.913272 0.20735799999999993
vn -0.411608 0.785125 0.46277099999999993
vn -0.620075 0.715838 0.32106599999999996
vn -0.872745 0.010237000000000029 0.488069
g Material #31
f 1/1/1 2/2/2 3/3/3
f 4/4/4 3/3/3 2/2/2
f 2/2/2 5/5/5 4/4/4
f 3/3/3 4/4/4 6/6/6
f 7/7/7 4/4/4 5/5/5
f 8/8/8 6/6/6 4/4/4
f 4/4/4 7/7/7 8/8/8
f 9/9/9 6/6/6 8/8/8
f 5/5/5 10/10/10 7/7/7
f 8/8/8 11/11/11 9/9/9
f 11/11/11 8/8/8 7/7/7
f 12/12/12 9/9/9 11/11/11
f 13/13/13 7/7/7 10/10/10
f 7/7/7 13/13/13 11/11/11
f 12/12/12 11/11/11 14/14/14
f 10/10/10 15/15/15 13/13/13
f 13/13/13 15/15/15 11/11/11
f 14/14/14 11/11/11 15/15/15
f 10/10/10 16/16/16 15/15/15
f 15/15/15 17/17/17 14/14/14
f 17/17/17 15/15/15 16/16/16
f 18/18/18 14/14/14 17/17/17
f 17/17/17 16/16/16 19/19/19
f 20/20/20 19/19/19 16/16/16
f 21/21/21 22/22/22 20/20/20
f 19/19/19 20/20/20 22/22/22
f 22/22/22 23/23/23 19/19/19
f 19/19/19 24/24/24 17/17/17
f 24/24/24 19/19/19 23/23/23
f 18/18/18 17/17/17 24/24/24
f 24/24/24 23/23/23 25/25/25
f 18/18/18 24/24/24 25/25/25
f 26/26/26 25/25/25 23/23/23
f 25/25/25 27/27/27 18/18/18
f 25/25/25 26/26/26 27/27/27
f 14/14/14 18/18/18 27/27/27
f 28/28/28 27/27/27 26/26/26
f 27/27/27 29/29/29 14/14/14
f 27/27/27 28/28/28 29/29/29
f 30/30/30 29/29/29 28/28/28
f 31/31/31 32/32/32 33/33/33
f 33/33/33 34/34/34 31/31/31
f 35/35/35 31/31/31 34/34/34
f 34/34/34 33/33/33 36/36/36
f 34/34/34 37/37/37 35/35/35
f 36/36/36 38/38/38 34/34/34
f 37/37/37 34/34/34 38/38/38
f 36/36/36 39/39/39 38/38/38
f 40/40/40 35/35/35 37/37/37
f 41/41/41 38/38/38 39/39/39
f 38/38/38 41/41/41 37/37/37
f 39/39/39 42/42/42 41/41/41
f 37/37/37 43/43/43 40/40/40
f 43/43/43 37/37/37 41/41/41
f 41/41/41 42/42/42 44/44/44
f 45/45/45 40/40/40 43/43/43
f 45/45/45 43/43/43 41/41/41
f 41/41/41 44/44/44 45/45/45
f 46/46/46 40/40/40 45/45/45
f 47/47/47 45/45/45 44/44/44
f 45/45/45 47/47/47 46/46/46
f 44/44/44 48/48/48 47/47/47
f 46/46/46 47/47/47 49/49/49
f 49/49/49 50/50/50 46/46/46
f 51/51/51 52/52/52 50/50/50
f 50/50/50 49/49/49 51/51/51
f 53/53/53 51/51/51 49/49/49
f 54/54/54 49/49/49 47/47/47
f 49/49/49 54/54/54 53/53/53
f 47/47/47 48/48/48 54/54/54
f 53/53/53 54/54/54 55/55/55
f 54/54/54 48/48/48 55/55/55
f 55/55/55 56/56/56 53/53/53
f 57/57/57 55/55/55 48/48/48
f 56/56/56 55/55/55 57/57/57
f 48/48/48 44/44/44 57/57/57
f 57/57/57 58/58/58 56/56/56
f 59/59/59 57/57/57 44/44/44
f 58/58/58 57/57/57 59/59/59
f 59/59/59 60/60/60 58/58/58
f 61/61/61 62/62/62 63/63/63
f 64/64/64 62/62/62 61/61/61
f 65/65/65 64/64/64 61/61/61
f 66/66/66 62/62/62 64/64/64
f 66/66/66 67/67/67 62/62/62
f 64/64/64 65/65/65 68/68/68
f 64/64/64 68/68/68 66/66/66
f 69/69/69 68/68/68 65/65/65
f 69/69/69 65/65/65 70/70/70
f 67/67/67 66/66/66 71/71/71
f 69/69/69 70/70/70 72/72/72
f 71/71/71 66/66/66 73/73/73
f 73/73/73 66/66/66 68/68/68
f 72/72/72 74/74/74 69/69/69
f 68/68/68 69/69/69 74/74/74
f 75/75/75 72/72/72 70/70/70
f 72/72/72 75/75/75 74/74/74
f 76/76/76 75/75/75 70/70/70
f 74/74/74 77/77/77 68/68/68
f 77/77/77 74/74/74 75/75/75
f 76/76/76 78/78/78 75/75/75
f 75/75/75 78/78/78 77/77/77
f 79/79/79 78/78/78 76/76/76
f 80/80/80 68/68/68 77/77/77
f 73/73/73 68/68/68 80/80/80
f 81/81/81 78/78/78 79/79/79
f 82/82/82 81/81/81 79/79/79
f 83/83/83 77/77/77 78/78/78
f 83/83/83 78/78/78 81/81/81
f 83/83/83 80/80/80 77/77/77
f 81/81/81 84/84/84 83/83/83
f 84/84/84 85/85/85 83/83/83
f 85/85/85 86/86/86 83/83/83
f 87/87/87 80/80/80 83/83/83
f 87/87/87 73/73/73 80/80/80
f 83/83/83 88/88/88 87/87/87
f 83/83/83 86/86/86 88/88/88
f 87/87/87 89/89/89 73/73/73
f 89/89/89 87/87/87 88/88/88
f 88/88/88 86/86/86 89/89/89
f 71/71/71 73/73/73 89/89/89
f 89/89/89 86/86/86 90/90/90
f 71/71/71 89/89/89 90/90/90
f 90/90/90 86/86/86 91/91/91
f 91/91/91 86/86/86 92/92/92
f 93/93/93 92/92/92 86/86/86
f 92/92/92 93/93/93 94/94/94
f 95/95/95 94/94/94 93/93/93
f 94/94/94 95/95/95 96/96/96
f 92/92/92 97/97/97 91/91/91
f 92/92/92 94/94/94 97/97/97
f 94/94/94 96/96/96 98/98/98
f 98/98/98 97/97/97 94/94/94
f 98/98/98 96/96/96 99/99/99
f 100/100/100 98/98/98 99/99/99
f 100/100/100 101/101/101 98/98/98
f 102/102/102 98/98/98 101/101/101
f 98/98/98 102/102/102 97/97/97
f 101/101/101 103/103/103 102/102/102
f 104/104/104 102/102/102 103/103/103
f 102/102/102 104/104/104 97/97/97
f 103/103/103 105/105/105 104/104/104
f 106/106/106 91/91/91 97/97/97
f 97/97/97 104/104/104 106/106/106
f 90/90/90 91/91/91 106/106/106
f 107/107/107 104/104/104 105/105/105
f 107/107/107 106/106/106 104/104/104
f 105/105/105 108/108/108 107/107/107
f 109/109/109 107/107/107 108/108/108
f 109/109/109 106/106/106 107/107/107
f 108/108/108 110/110/110 109/109/109
f 111/111/111 106/106/106 109/109/109
f 112/112/112 109/109/109 110/110/110
f 110/110/110 113/113/113 112/112/112
f 114/114/114 112/112/112 113/113/113
f 114/114/114 115/115/115 112/112/112
f 112/112/112 116/116/116 109/109/109
f 116/116/116 112/112/112 115/115/115
f 111/111/111 109/109/109 116/116/116
f 117/117/117 106/106/106 111/111/111
f 111/111/111 116/116/116 117/117/117
f 117/117/117 90/90/90 106/106/106
f 116/116/116 115/115/115 118/118/118
f 118/118/118 117/117/117 116/116/116
f 119/119/119 118/118/118 115/115/115
f 119/119/119 120/120/120 118/118/118
f 118/118/118 121/121/121 117/117/117
f 121/121/121 118/118/118 120/120/120
f 90/90/90 117/117/117 121/121/121
f 120/120/120 122/122/122 121/121/121
f 121/121/121 123/123/123 90/90/90
f 123/123/123 121/121/121 122/122/122
f 123/123/123 124/124/124 90/90/90
f 122/122/122 124/124/124 123/123/123
f 71/71/71 90/90/90 124/124/124
f 122/122/122 125/125/125 124/124/124
f 71/71/71 124/124/124 67/67/67
f 126/126/126 124/124/124 125/125/125
f 126/126/126 67/67/67 124/124/124
f 127/127/127 128/128/128 129/129/129
f 130/130/130 129/129/129 128/128/128
f 128/128/128 131/131/131 130/130/130
f 130/130/130 132/132/132 129/129/129
f 129/129/129 132/132/132 133/133/133
f 130/130/130 131/131/131 134/134/134
f 134/134/134 132/132/132 130/130/130
f 135/135/135 133/133/133 132/132/132
f 132/132/132 134/134/134 135/135/135
f 133/133/133 135/135/135 136/136/136
f 131/131/131 137/137/137 134/134/134
f 138/138/138 135/135/135 134/134/134
f 134/134/134 137/137/137 138/138/138
f 139/139/139 136/136/136 135/135/135
f 135/135/135 138/138/138 139/139/139
f 137/137/137 131/131/131 140/140/140
f 141/141/141 140/140/140 131/131/131
f 141/141/141 142/142/142 140/140/140
f 140/140/140 142/142/142 143/143/143
f 144/144/144 137/137/137 140/140/140
f 140/140/140 143/143/143 144/144/144
f 144/144/144 138/138/138 137/137/137
f 145/145/145 144/144/144 143/143/143
f 146/146/146 145/145/145 143/143/143
f 138/138/138 144/144/144 147/147/147
f 145/145/145 147/147/147 144/144/144
f 138/138/138 147/147/147 139/139/139
f 146/146/146 148/148/148 145/145/145
f 147/147/147 145/145/145 148/148/148
f 146/146/146 149/149/149 148/148/148
f 150/150/150 139/139/139 147/147/147
f 147/147/147 148/148/148 150/150/150
f 139/139/139 150/150/150 136/136/136
f 151/151/151 148/148/148 149/149/149
f 152/152/152 136/136/136 150/150/150
f 136/136/136 152/152/152 153/153/153
f 154/154/154 150/150/150 148/148/148
f 150/150/150 154/154/154 152/152/152
f 148/148/148 151/151/151 154/154/154
f 155/155/155 153/153/153 152/152/152
f 155/155/155 156/156/156 153/153/153
f 156/156/156 155/155/155 157/157/157
f 158/158/158 155/155/155 152/152/152
f 158/158/158 157/157/157 155/155/155
f 158/158/158 152/152/152 154/154/154
f 157/157/157 158/158/158 159/159/159
f 160/160/160 159/159/159 158/158/158
f 158/158/158 154/154/154 160/160/160
f 159/159/159 160/160/160 161/161/161
f 162/162/162 161/161/161 160/160/160
f 163/163/163 160/160/160 154/154/154
f 160/160/160 163/163/163 162/162/162
f 163/163/163 154/154/154 151/151/151
f 164/164/164 162/162/162 163/163/163
f 164/164/164 163/163/163 165/165/165
f 151/151/151 165/165/165 163/163/163
f 151/151/151 149/149/149 165/165/165
f 166/166/166 165/165/165 149/149/149
f 167/167/167 168/168/168 169/169/169
f 170/170/170 171/171/171 168/168/168
f 168/168/168 171/171/171 169/169/169
f 169/169/169 171/171/171 172/172/172
f 169/169/169 172/172/172 173/173/173
f 172/172/172 171/171/171 174/174/174
f 174/174/174 171/171/171 175/175/175
f 173/173/173 172/172/172 176/176/176
f 174/174/174 176/176/176 172/172/172
f 177/177/177 174/174/174 175/175/175
f 174/174/174 177/177/177 176/176/176
f 175/175/175 178/178/178 177/177/177
f 179/179/179 177/177/177 178/178/178
f 180/180/180 176/176/176 177/177/177
f 177/177/177 179/179/179 180/180/180
f 173/173/173 176/176/176 181/181/181
f 181/181/181 176/176/176 180/180/180
f 182/182/182 173/173/173 181/181/181
f 183/183/183 180/180/180 179/179/179
f 180/180/180 183/183/183 181/181/181
f 183/183/183 179/179/179 184/184/184
f 184/184/184 185/185/185 183/183/183
f 186/186/186 182/182/182 187/187/187
f 188/188/188 183/183/183 185/185/185
f 188/188/188 181/181/181 183/183/183
f 189/189/189 187/187/187 182/182/182
f 189/189/189 182/182/182 181/181/181
f 187/187/187 189/189/189 190/190/190
f 190/190/190 189/189/189 191/191/191
f 189/189/189 181/181/181 191/191/191
f 181/181/181 188/188/188 192/192/192
f 192/192/192 191/191/191 181/181/181
f 188/188/188 185/185/185 192/192/192
f 192/192/192 193/193/193 191/191/191
f 193/193/193 192/192/192 185/185/185
f 194/194/194 191/191/191 193/193/193
f 185/185/185 195/195/195 193/193/193
f 193/193/193 196/196/196 194/194/194
f 196/196/196 193/193/193 195/195/195
f 197/197/197 194/194/194 196/196/196
f 195/195/195 198/198/198 196/196/196
f 197/197/197 196/196/196 199/199/199
f 200/200/200 196/196/196 198/198/198
f 200/200/200 199/199/199 196/196/196
f 198/198/198 201/201/201 200/200/200
f 199/199/199 200/200/200 202/202/202
f 203/203/203 200/200/200 201/201/201
f 203/203/203 202/202/202 200/200/200
f 204/204/204 205/205/205 206/206/206
f 204/204/204 207/207/207 205/205/205
f 207/207/207 208/208/208 205/205/205
f 204/204/204 209/209/209 207/207/207
f 210/210/210 209/209/209 204/204/204
f 208/208/208 207/207/207 211/211/211
f 211/211/211 207/207/207 209/209/209
f 211/211/211 212/212/212 208/208/208
f 208/208/208 212/212/212 213/213/213
f 209/209/209 210/210/210 214/214/214
f 213/213/213 212/212/212 215/215/215
f 209/209/209 214/214/214 216/216/216
f 209/209/209 216/216/216 211/211/211
f 217/217/217 215/215/215 212/212/212
f 212/212/212 211/211/211 217/217/217
f 215/215/215 218/218/218 213/213/213
f 218/218/218 215/215/215 217/217/217
f 218/218/218 219/219/219 213/213/213
f 220/220/220 217/217/217 211/211/211
f 217/217/217 220/220/220 218/218/218
f 221/221/221 219/219/219 218/218/218
f 221/221/221 218/218/218 220/220/220
f 221/221/221 222/222/222 219/219/219
f 211/211/211 223/223/223 220/220/220
f 211/211/211 216/216/216 223/223/223
f 221/221/221 224/224/224 222/222/222
f 224/224/224 225/225/225 222/222/222
f 220/220/220 226/226/226 221/221/221
f 221/221/221 226/226/226 224/224/224
f 223/223/223 226/226/226 220/220/220
f 227/227/227 224/224/224 226/226/226
f 228/228/228 227/227/227 226/226/226
f 229/229/229 228/228/228 226/226/226
f 223/223/223 230/230/230 226/226/226
f 216/216/216 230/230/230 223/223/223
f 231/231/231 226/226/226 230/230/230
f 229/229/229 226/226/226 231/231/231
f 232/232/232 230/230/230 216/216/216
f 230/230/230 232/232/232 231/231/231
f 229/229/229 231/231/231 232/232/232
f 216/216/216 214/214/214 232/232/232
f 229/229/229 232/232/232 233/233/233
f 232/232/232 214/214/214 233/233/233
f 229/229/229 233/233/233 234/234/234
f 229/229/229 234/234/234 235/235/235
f 235/235/235 236/236/236 229/229/229
f 236/236/236 235/235/235 237/237/237
f 237/237/237 238/238/238 236/236/236
f 238/238/238 237/237/237 239/239/239
f 240/240/240 235/235/235 234/234/234
f 237/237/237 235/235/235 240/240/240
f 239/239/239 237/237/237 241/241/241
f 240/240/240 241/241/241 237/237/237
f 239/239/239 241/241/241 242/242/242
f 241/241/241 243/243/243 242/242/242
f 244/244/244 243/243/243 241/241/241
f 241/241/241 245/245/245 244/244/244
f 245/245/245 241/241/241 240/240/240
f 246/246/246 244/244/244 245/245/245
f 245/245/245 247/247/247 246/246/246
f 247/247/247 245/245/245 240/240/240
f 248/248/248 246/246/246 247/247/247
f 234/234/234 249/249/249 240/240/240
f 247/247/247 240/240/240 249/249/249
f 234/234/234 233/233/233 249/249/249
f 247/247/247 250/250/250 248/248/248
f 249/249/249 250/250/250 247/247/247
f 251/251/251 248/248/248 250/250/250
f 250/250/250 252/252/252 251/251/251
f 249/249/249 252/252/252 250/250/250
f 253/253/253 251/251/251 252/252/252
f 249/249/249 254/254/254 252/252/252
f 252/252/252 255/255/255 253/253/253
f 256/256/256 253/253/253 255/255/255
f 255/255/255 257/257/257 256/256/256
f 258/258/258 257/257/257 255/255/255
f 259/259/259 255/255/255 252/252/252
f 255/255/255 259/259/259 258/258/258
f 252/252/252 254/254/254 259/259/259
f 249/249/249 260/260/260 254/254/254
f 259/259/259 254/254/254 260/260/260
f 233/233/233 260/260/260 249/249/249
f 258/258/258 259/259/259 261/261/261
f 260/260/260 261/261/261 259/259/259
f 261/261/261 262/262/262 258/258/258
f 263/263/263 262/262/262 261/261/261
f 264/264/264 261/261/261 260/260/260
f 261/261/261 264/264/264 263/263/263
f 260/260/260 233/233/233 264/264/264
f 265/265/265 263/263/263 264/264/264
f 266/266/266 264/264/264 233/233/233
f 264/264/264 266/266/266 265/265/265
f 267/267/267 266/266/266 233/233/233
f 267/267/267 265/265/265 266/266/266
f 233/233/233 214/214/214 267/267/267
f 268/268/268 265/265/265 267/267/267
f 267/267/267 214/214/214 210/210/210
f 267/267/267 269/269/269 268/268/268
f 210/210/210 269/269/269 267/267/267
f 270/270/270 271/271/271 272/272/272
f 272/272/272 273/273/273 270/270/270
f 274/274/274 270/270/270 273/273/273
f 275/275/275 273/273/273 272/272/272
f 275/275/275 272/272/272 276/276/276
f 275/275/275 277/277/277 273/273/273
f 274/274/274 273/273/273 277/277/277
f 276/276/276 278/278/278 275/275/275
f 277/277/277 275/275/275 278/278/278
f 278/278/278 276/276/276 279/279/279
f 280/280/280 274/274/274 277/277/277
f 278/278/278 281/281/281 277/277/277
f 280/280/280 277/277/277 281/281/281
f 279/279/279 282/282/282 278/278/278
f 281/281/281 278/278/278 282/282/282
f 274/274/274 280/280/280 283/283/283
f 283/283/283 284/284/284 274/274/274
f 285/285/285 284/284/284 283/283/283
f 285/285/285 283/283/283 286/286/286
f 280/280/280 287/287/287 283/283/283
f 286/286/286 283/283/283 287/287/287
f 281/281/281 287/287/287 280/280/280
f 287/287/287 288/288/288 286/286/286
f 288/288/288 289/289/289 286/286/286
f 287/287/287 281/281/281 290/290/290
f 290/290/290 288/288/288 287/287/287
f 290/290/290 281/281/281 282/282/282
f 291/291/291 289/289/289 288/288/288
f 288/288/288 290/290/290 291/291/291
f 292/292/292 289/289/289 291/291/291
f 282/282/282 293/293/293 290/290/290
f 291/291/291 290/290/290 293/293/293
f 293/293/293 282/282/282 279/279/279
f 294/294/294 295/295/295 292/292/292
f 279/279/279 296/296/296 293/293/293
f 296/296/296 279/279/279 297/297/297
f 292/292/292 298/298/298 294/294/294
f 291/291/291 298/298/298 292/292/292
f 294/294/294 298/298/298 299/299/299
f 299/299/299 300/300/300 294/294/294
f 301/301/301 300/300/300 299/299/299
f 298/298/298 291/291/291 302/302/302
f 302/302/302 299/299/299 298/298/298
f 293/293/293 302/302/302 291/291/291
f 302/302/302 293/293/293 296/296/296
f 299/299/299 303/303/303 301/301/301
f 303/303/303 299/299/299 302/302/302
f 304/304/304 301/301/301 303/303/303
f 303/303/303 305/305/305 304/304/304
f 302/302/302 306/306/306 303/303/303
f 305/305/305 303/303/303 306/306/306
f 296/296/296 306/306/306 302/302/302
f 306/306/306 307/307/307 305/305/305
f 308/308/308 306/306/306 296/296/296
f 307/307/307 306/306/306 308/308/308
f 297/297/297 308/308/308 296/296/296
f 308/308/308 309/309/309 307/307/307
f 309/309/309 308/308/308 297/297/297
f 310/310/310 311/311/311 312/312/312
f 313/313/313 314/314/314 310/310/310
f 313/313/313 310/310/310 312/312/312
f 313/313/313 312/312/312 315/315/315
f 315/315/315 312/312/312 316/316/316
f 313/313/313 315/315/315 317/317/317
f 313/313/313 317/317/317 318/318/318
f 315/315/315 316/316/316 319/319/319
f 319/319/319 317/317/317 315/315/315
f 317/317/317 320/320/320 318/318/318
f 320/320/320 317/317/317 319/319/319
f 321/321/321 318/318/318 320/320/320
f 320/320/320 322/322/322 321/321/321
f 319/319/319 323/323/323 320/320/320
f 322/322/322 320/320/320 323/323/323
f 319/319/319 316/316/316 324/324/324
f 319/319/319 324/324/324 323/323/323
f 316/316/316 325/325/325 324/324/324
f 323/323/323 326/326/326 322/322/322
f 326/326/326 323/323/323 324/324/324
f 322/322/322 326/326/326 327/327/327
f 328/328/328 327/327/327 326/326/326
f 325/325/325 329/329/329 330/330/330
f 326/326/326 331/331/331 328/328/328
f 324/324/324 331/331/331 326/326/326
f 330/330/330 332/332/332 325/325/325
f 325/325/325 332/332/332 324/324/324
f 332/332/332 330/330/330 333/333/333
f 332/332/332 333/333/333 334/334/334
f 324/324/324 332/332/332 334/334/334
f 331/331/331 324/324/324 335/335/335
f 334/334/334 335/335/335 324/324/324
f 328/328/328 331/331/331 335/335/335
f 336/336/336 335/335/335 334/334/334
f 335/335/335 336/336/336 328/328/328
f 334/334/334 337/337/337 336/336/336
f 338/338/338 328/328/328 336/336/336
f 339/339/339 336/336/336 337/337/337
f 336/336/336 339/339/339 338/338/338
f 337/337/337 340/340/340 339/339/339
f 341/341/341 338/338/338 339/339/339
f 339/339/339 340/340/340 342/342/342
f 339/339/339 343/343/343 341/341/341
f 342/342/342 343/343/343 339/339/339
f 344/344/344 341/341/341 343/343/343
f 343/343/343 342/342/342 345/345/345
f 343/343/343 346/346/346 344/344/344
f 345/345/345 346/346/346 343/343/343
f 347/347/347 348/348/348 349/349/349
f 350/350/350 349/349/349 348/348/348
f 350/350/350 351/351/351 349/349/349
f 347/347/347 349/349/349 352/352/352
f 353/353/353 349/349/349 351/351/351
f 349/349/349 353/353/353 352/352/352
f 351/351/351 354/354/354 353/353/353
f 355/355/355 353/353/353 354/354/354
f 353/353/353 355/355/355 356/356/356
f 356/356/356 352/352/352 353/353/353
f 357/357/357 356/356/356 355/355/355
f 357/357/357 358/358/358 356/356/356
f 352/352/352 356/356/356 359/359/359
f 360/360/360 352/352/352 359/359/359
f 361/361/361 356/356/356 358/358/358
f 361/361/361 359/359/359 356/356/356
f 361/361/361 358/358/358 362/362/362
f 361/361/361 362/362/362 359/359/359
f 363/363/363 362/362/362 358/358/358
f 363/363/363 364/364/364 362/362/362
f 365/365/365 362/362/362 364/364/364
f 362/362/362 365/365/365 366/366/366
f 366/366/366 359/359/359 362/362/362
f 367/367/367 366/366/366 365/365/365
f 359/359/359 366/366/366 368/368/368
f 366/366/366 367/367/367 368/368/368
f 368/368/368 360/360/360 359/359/359
f 369/369/369 368/368/368 367/367/367
f 360/360/360 368/368/368 370/370/370
f 370/370/370 368/368/368 369/369/369
f 371/371/371 372/372/372 373/373/373
f 373/373/373 374/374/374 371/371/371
f 375/375/375 374/374/374 373/373/373
f 373/373/373 372/372/372 376/376/376
f 373/373/373 377/377/377 375/375/375
f 377/377/377 373/373/373 376/376/376
f 378/378/378 375/375/375 377/377/377
f 377/377/377 379/379/379 378/378/378
f 379/379/379 377/377/377 380/380/380
f 376/376/376 380/380/380 377/377/377
f 380/380/380 381/381/381 379/379/379
f 382/382/382 381/381/381 380/380/380
f 380/380/380 376/376/376 383/383/383
f 376/376/376 384/384/384 383/383/383
f 380/380/380 385/385/385 382/382/382
f 383/383/383 385/385/385 380/380/380
f 382/382/382 385/385/385 386/386/386
f 386/386/386 385/385/385 383/383/383
f 386/386/386 387/387/387 382/382/382
f 388/388/388 387/387/387 386/386/386
f 386/386/386 389/389/389 388/388/388
f 389/389/389 386/386/386 390/390/390
f 383/383/383 390/390/390 386/386/386
f 390/390/390 391/391/391 389/389/389
f 390/390/390 383/383/383 392/392/392
f 391/391/391 390/390/390 392/392/392
f 384/384/384 392/392/392 383/383/383
f 392/392/392 393/393/393 391/391/391
f 392/392/392 384/384/384 394/394/394
f 392/392/392 394/394/394 393/393/393
