v -0.372477 0.356139 -0.09087000000000003
v 0.041865 0.386217 -0.12016700000000002
v -0.023236 -0.506261 -0.10954699999999998
v -0.372477 -0.506261 -0.09086999999999998
v 0.477088 0.357793 -0.09087000000000003
v 0.041892 0.387056 -0.17427100000000004
v 0.477139 0.357805 -0.14497400000000002
v 0.476399 -0.506261 -0.09086999999999998
v -0.372477 0.357805 -0.14497400000000002
v -0.372083 0.361548 -0.04879100000000002
v -0.361832 -0.226804 -0.05172199999999998
v -0.362251 -0.217781 0.018026000000000014
v -0.372165 0.36343 0.02495499999999998
v -0.318658 -0.216303 0.018036000000000014
v -0.318272 -0.224927 -0.05172199999999998
v -0.328522 0.363433 -0.04879100000000002
v -0.328604 0.365315 0.02495499999999998
v 0.478356 0.3576309999999998 -2.563948
v 0.432893 0.38387899999999986 -2.563948
v 0.432893 0.383879 0.332112
v 0.478356 0.357631 0.332112
v 0.432893 0.43637499999999985 -2.563948
v 0.432893 0.436375 0.332112
v 0.478356 0.4626219999999998 -2.563948
v 0.478356 0.462622 0.33211199999999996
v 0.52382 0.43637299999999984 -2.563948
v 0.52382 0.436373 0.332112
v 0.52382 0.38387699999999986 -2.563948
v 0.52382 0.383877 0.332112
v 0.461513 0.42470899999999984 -2.563948
v 0.41605 0.45095699999999983 -2.563948
v 0.41605 0.450957 0.09309799999999997
v 0.461513 0.424709 0.09309799999999997
v 0.41605 0.5034529999999999 -2.563948
v 0.41605 0.503453 0.09309799999999997
v 0.461513 0.5296999999999998 -2.563948
v 0.461513 0.5297 0.09309799999999997
v 0.506974 0.5034519999999999 -2.563948
v 0.506974 0.503452 0.09309799999999997
v 0.506974 0.45095599999999986 -2.563948
v 0.506974 0.450956 0.09309799999999997
v -0.372024 0.34599099999999994 -0.469384
v 0.485528 0.3803219999999999 -1.817094
v 0.483766 0.4414319999999999 -1.81455
v -0.373786 0.40710099999999994 -0.46684
v -0.376998 0.34286 -0.290905
v -0.378766 0.403968 -0.288364
v 0.523202 0.4408429999999999 -1.735946
v 0.524968 0.3797329999999999 -1.738493
v 0.475461 0.43221699999999996 -0.466698
v 0.466588 0.4927039999999999 -0.46415400000000007
v -0.323306 0.4237209999999999 -1.811865
v -0.314429 0.36323299999999986 -1.814409
v 0.480905 0.429996 -0.28822
v -0.353168 0.35580499999999987 -1.735807
v -0.362042 0.4162909999999999 -1.73326
v 0.472035 0.490484 -0.28567900000000007
v -0.374129 0.3571 -0.389244
v -0.016845 0.34863 -0.35587
v -0.018607 0.385936 -0.353326
v -0.375892 0.394406 -0.386701
v -0.379104 0.353969 -0.313366
v -0.380872 0.391273 -0.310825
v -0.0165 0.384074 -0.274637
v -0.014733 0.34677 -0.277181
v 0.466825 0.469874 -0.36798700000000006
v 0.476018 0.469283 -0.28648300000000004
v 0.468587 0.432568 -0.37053
v 0.477784 0.431977 -0.28903
v -0.297826 0.3981319999999998 -2.797347
v -0.32001 0.35055299999999984 -2.797347
v -0.32001 0.350553 0.09871399999999997
v -0.297826 0.398132 0.09871399999999997
v -0.372307 0.3459769999999998 -2.797347
v -0.372307 0.345977 0.09871399999999997
v -0.402417 0.38898099999999985 -2.797347
v -0.402417 0.388981 0.09871399999999997
v -0.38023 0.43655799999999984 -2.797347
v -0.38023 0.436558 0.09871399999999997
v -0.327934 0.44113399999999986 -2.797347
v -0.327934 0.441134 0.09871399999999997
v -0.364611 0.33590299999999984 -2.673323
v -0.386796 0.28832599999999986 -2.673323
v -0.386796 0.288326 -0.016277000000000017
v -0.364611 0.335903 -0.01627700000000002
v -0.439092 0.28374999999999984 -2.673323
v -0.439092 0.28375 -0.016277000000000017
v -0.469202 0.32675299999999985 -2.673323
v -0.469202 0.326753 -0.01627700000000002
v -0.447017 0.37432899999999986 -2.673323
v -0.447017 0.374329 -0.016277000000000024
v -0.39472 0.3789049999999998 -2.673323
v -0.39472 0.378905 -0.016277000000000024
v -0.350347 -0.19248600000000016 -2.761336
v -0.372531 -0.24006400000000017 -2.761336
v -0.372531 -0.240064 0.13472400000000004
v -0.350347 -0.192486 0.134724
v -0.424828 -0.24464000000000016 -2.761336
v -0.424828 -0.24464 0.13472400000000004
v -0.454938 -0.20163600000000018 -2.761336
v -0.454938 -0.201636 0.134724
v -0.432751 -0.15405900000000017 -2.761336
v -0.432751 -0.154059 0.134724
v -0.380455 -0.14948300000000017 -2.761336
v -0.380455 -0.149483 0.134724
v -0.358027 -0.09093800000000017 -2.621932
v -0.358027 -0.14343400000000017 -2.621932
v -0.358027 -0.143434 0.03511500000000001
v -0.358027 -0.090938 0.03511500000000001
v -0.40349 -0.16968200000000017 -2.621932
v -0.40349 -0.169682 0.03511500000000001
v -0.448952 -0.14343300000000017 -2.621932
v -0.448952 -0.143433 0.03511500000000001
v -0.448953 -0.09093700000000017 -2.621932
v -0.448953 -0.090937 0.03511500000000001
v -0.403488 -0.06469000000000016 -2.621932
v -0.403488 -0.06469 0.03511500000000001
v -0.376056 -0.10408800000000003 -0.466698
v -0.373522 0.3052209999999999 -1.814409
v -0.434631 0.30345899999999987 -1.811865
v -0.437165 -0.10585000000000003 -0.464154
v -0.372925 -0.10906200000000002 -0.28822
v -0.434032 -0.11083100000000001 -0.285679
v -0.434043 0.3428949999999999 -1.73326
v -0.372933 0.3446609999999999 -1.735807
v -0.304462 0.33840999999999993 -0.466698
v -0.364949 0.32953699999999997 -0.464154
v -0.383368 -0.11176200000000011 -1.811865
v -0.32288 -0.10288500000000012 -1.814409
v -0.302241 0.343854 -0.28822
v -0.315452 -0.1416240000000001 -1.735807
v -0.375938 -0.1504990000000001 -1.73326
v -0.362729 0.334985 -0.285679
v -0.423752 0.319268 -0.307971
v -0.423161 0.309257 -0.22656400000000002
v -0.337952 -0.17251400000000003 -0.329569
v -0.339813 -0.15626600000000002 -0.406592
v -0.302507 -0.15396100000000001 -0.408656
v -0.386446 0.321574 -0.310036
v -0.385855 0.311567 -0.22863100000000003
v -0.300647 -0.17020500000000002 -0.331633
v 0.041865 0.386217 -0.12016700000000002
v 0.477088 0.357793 -0.09087000000000003
v -0.372477 0.356139 -0.09087000000000003
v -0.362251 -0.217781 0.018026000000000014
v -0.372165 0.36343 0.02495499999999998
v -0.328604 0.365315 0.02495499999999998
v -0.318658 -0.216303 0.018036000000000014
v 0.432893 0.43637499999999985 -2.563948
v 0.432893 0.436375 0.332112
v 0.432893 0.383879 0.332112
v 0.432893 0.436375 0.332112
v 0.478356 0.462622 0.33211199999999996
v 0.52382 0.436373 0.332112
v 0.52382 0.383877 0.332112
v 0.478356 0.357631 0.332112
v 0.41605 0.5034529999999999 -2.563948
v 0.41605 0.503453 0.09309799999999997
v 0.41605 0.450957 0.09309799999999997
v 0.41605 0.503453 0.09309799999999997
v 0.461513 0.5297 0.09309799999999997
v 0.506974 0.503452 0.09309799999999997
v 0.506974 0.450956 0.09309799999999997
v 0.461513 0.424709 0.09309799999999997
v 0.524968 0.3797329999999999 -1.738493
v 0.485528 0.3803219999999999 -1.817094
v -0.372024 0.34599099999999994 -0.469384
v -0.376998 0.34286 -0.290905
v -0.378766 0.403968 -0.288364
v -0.373786 0.40710099999999994 -0.46684
v 0.483766 0.4414319999999999 -1.81455
v 0.523202 0.4408429999999999 -1.735946
v -0.353168 0.35580499999999987 -1.735807
v 0.480905 0.429996 -0.28822
v 0.475461 0.43221699999999996 -0.466698
v -0.314429 0.36323299999999986 -1.814409
v 0.472035 0.490484 -0.28567900000000007
v -0.362042 0.4162909999999999 -1.73326
v -0.323306 0.4237209999999999 -1.811865
v 0.466588 0.4927039999999999 -0.46415400000000007
v -0.379104 0.353969 -0.313366
v -0.014733 0.34677 -0.277181
v -0.016845 0.34863 -0.35587
v -0.374129 0.3571 -0.389244
v -0.0165 0.384074 -0.274637
v -0.018607 0.385936 -0.353326
v 0.466825 0.469874 -0.36798700000000006
v 0.476018 0.469283 -0.28648300000000004
v 0.477784 0.431977 -0.28903
v 0.468587 0.432568 -0.37053
v -0.380872 0.391273 -0.310825
v -0.375892 0.394406 -0.386701
v -0.372307 0.3459769999999998 -2.797347
v -0.372307 0.345977 0.09871399999999997
v -0.32001 0.350553 0.09871399999999997
v -0.372307 0.345977 0.09871399999999997
v -0.402417 0.388981 0.09871399999999997
v -0.38023 0.436558 0.09871399999999997
v -0.327934 0.441134 0.09871399999999997
v -0.297826 0.398132 0.09871399999999997
v -0.439092 0.28374999999999984 -2.673323
v -0.439092 0.28375 -0.016277000000000017
v -0.386796 0.288326 -0.016277000000000017
v -0.439092 0.28375 -0.016277000000000017
v -0.469202 0.326753 -0.01627700000000002
v -0.447017 0.374329 -0.016277000000000024
v -0.39472 0.378905 -0.016277000000000024
v -0.364611 0.335903 -0.01627700000000002
v -0.424828 -0.24464000000000016 -2.761336
v -0.424828 -0.24464 0.13472400000000004
v -0.372531 -0.240064 0.13472400000000004
v -0.424828 -0.24464 0.13472400000000004
v -0.454938 -0.201636 0.134724
v -0.432751 -0.154059 0.134724
v -0.380455 -0.149483 0.134724
v -0.350347 -0.192486 0.134724
v -0.40349 -0.16968200000000017 -2.621932
v -0.40349 -0.169682 0.03511500000000001
v -0.358027 -0.143434 0.03511500000000001
v -0.40349 -0.169682 0.03511500000000001
v -0.448952 -0.143433 0.03511500000000001
v -0.448953 -0.090937 0.03511500000000001
v -0.403488 -0.06469 0.03511500000000001
v -0.358027 -0.090938 0.03511500000000001
v -0.372933 0.3446609999999999 -1.735807
v -0.373522 0.3052209999999999 -1.814409
v -0.376056 -0.10408800000000003 -0.466698
v -0.372925 -0.10906200000000002 -0.28822
v -0.434032 -0.11083100000000001 -0.285679
v -0.437165 -0.10585000000000003 -0.464154
v -0.434631 0.30345899999999987 -1.811865
v -0.434043 0.3428949999999999 -1.73326
v -0.315452 -0.1416240000000001 -1.735807
v -0.302241 0.343854 -0.28822
v -0.304462 0.33840999999999993 -0.466698
v -0.32288 -0.10288500000000012 -1.814409
v -0.362729 0.334985 -0.285679
v -0.375938 -0.1504990000000001 -1.73326
v -0.383368 -0.11176200000000011 -1.811865
v -0.364949 0.32953699999999997 -0.464154
v -0.423752 0.319268 -0.307971
v -0.339813 -0.15626600000000002 -0.406592
v -0.337952 -0.17251400000000003 -0.329569
v -0.423161 0.309257 -0.22656400000000002
v -0.300647 -0.17020500000000002 -0.331633
v -0.385855 0.311567 -0.22863100000000003
v -0.386446 0.321574 -0.310036
v -0.302507 -0.15396100000000001 -0.408656
vt 0.482375 0.994689
vt 0.468224 0.838665
vt 0.885538 0.863005
vt 0.885604 0.994535
vt 0.456807 0.674986
vt 0.417803 0.835184
vt 0.417803 0.674969
vt 0.885532 0.675065
vt 0.417803 0.995385
vt 0.995259 0.678862
vt 0.996820 0.993245
vt 0.959567 0.988420
vt 0.955850 0.677856
vt 0.936280 0.988310
vt 0.899139 0.993813
vt 0.893171 0.679479
vt 0.932541 0.677528
vt 0.341899 1.310196
vt 0.375975 1.310196
vt 0.375975 0.008059
vt 0.341899 0.008059
vt 0.410050 1.310196
vt 0.410051 0.008059
vt 0.239672 1.310196
vt 0.239673 0.008059
vt 0.273747 1.310196
vt 0.273748 0.008059
vt 0.307823 1.310196
vt 0.307824 0.008059
vt 1.339759 0.989403
vt 1.373008 0.989403
vt 1.373009 0.008272
vt 1.339760 0.008272
vt 1.406257 0.989403
vt 1.406258 0.008272
vt 1.240012 0.989403
vt 1.240013 0.008272
vt 1.273261 0.989403
vt 1.273262 0.008272
vt 1.306510 0.989403
vt 1.306511 0.008272
vt 0.546939 0.151974
vt 0.543838 0.594303
vt 0.508498 0.594303
vt 0.510419 0.151981
vt 0.418535 0.118548
vt 0.449035 0.118548
vt 0.449524 0.583397
vt 0.419340 0.583399
vt 1.549515 0.146821
vt 1.512996 0.146828
vt 1.511074 0.589150
vt 1.546414 0.589150
vt 1.421111 0.113395
vt 1.421917 0.578246
vt 1.452100 0.578244
vt 1.451612 0.113395
vt 1.549515 0.146821
vt 1.547965 0.367986
vt 1.512035 0.367989
vt 1.512996 0.146828
vt 1.421111 0.113395
vt 1.451612 0.113395
vt 1.451856 0.345820
vt 1.421514 0.345821
vt 1.499118 0.589150
vt 1.466529 0.578063
vt 1.546414 0.589150
vt 1.421917 0.578246
vt 0.341899 1.310196
vt 0.375975 1.310196
vt 0.375975 0.008059
vt 0.341899 0.008059
vt 0.410050 1.310196
vt 0.410051 0.008059
vt 0.239672 1.310196
vt 0.239673 0.008059
vt 0.273747 1.310196
vt 0.273748 0.008059
vt 0.307823 1.310196
vt 0.307824 0.008059
vt 1.339759 0.989403
vt 1.373008 0.989403
vt 1.373009 0.008272
vt 1.339760 0.008272
vt 1.406257 0.989403
vt 1.406258 0.008272
vt 1.240012 0.989403
vt 1.240013 0.008272
vt 1.273261 0.989403
vt 1.273262 0.008272
vt 1.306510 0.989403
vt 1.306511 0.008272
vt 0.341899 1.310196
vt 0.375975 1.310196
vt 0.375975 0.008059
vt 0.341899 0.008059
vt 0.410050 1.310196
vt 0.410051 0.008059
vt 0.239672 1.310196
vt 0.239673 0.008059
vt 0.273747 1.310196
vt 0.273748 0.008059
vt 0.307823 1.310196
vt 0.307824 0.008059
vt 1.339759 0.989403
vt 1.373008 0.989403
vt 1.373009 0.008272
vt 1.339760 0.008272
vt 1.406257 0.989403
vt 1.406258 0.008272
vt 1.240012 0.989403
vt 1.240013 0.008272
vt 1.273261 0.989403
vt 1.273262 0.008272
vt 1.306510 0.989403
vt 1.306511 0.008272
vt 0.546939 0.151974
vt 0.543838 0.594303
vt 0.508498 0.594303
vt 0.510419 0.151981
vt 0.418535 0.118548
vt 0.449035 0.118548
vt 0.449524 0.583397
vt 0.419340 0.583399
vt 1.549515 0.146821
vt 1.512996 0.146828
vt 1.511074 0.589150
vt 1.546414 0.589150
vt 1.421111 0.113395
vt 1.421917 0.578246
vt 1.452100 0.578244
vt 1.451612 0.113395
vt 1.499118 0.589150
vt 1.466529 0.578063
vt 1.465433 0.345729
vt 1.497667 0.370581
vt 1.547965 0.367986
vt 1.546414 0.589150
vt 1.421917 0.578246
vt 1.421514 0.345821
vt 0.456807 0.835193
vt 0.481521 0.674806
vt 0.456807 0.995385
vt 0.959567 0.988420
vt 0.955850 0.677856
vt 0.932541 0.677528
vt 0.936280 0.988310
vt 0.205596 1.310196
vt 0.205597 0.008059
vt 1.088676 0.050848
vt 1.088676 0.079953
vt 1.113882 0.094505
vt 1.139088 0.079953
vt 1.139088 0.050848
vt 1.113882 0.036295
vt 1.206762 0.989403
vt 1.206763 0.008272
vt 0.934082 0.615090
vt 0.963187 0.615090
vt 0.977740 0.589884
vt 0.963187 0.564678
vt 0.934082 0.564678
vt 0.919530 0.589884
vt 0.586273 0.583135
vt 0.556379 0.594041
vt 0.553709 0.151719
vt 0.587691 0.118286
vt 0.461761 0.118548
vt 0.493640 0.157166
vt 0.496542 0.594303
vt 0.463952 0.583216
vt 1.588849 0.577982
vt 1.590268 0.113133
vt 1.556285 0.146566
vt 1.558956 0.588888
vt 1.464337 0.113395
vt 1.466529 0.578063
vt 1.499118 0.589150
vt 1.496217 0.152013
vt 1.590268 0.113133
vt 1.589559 0.345558
vt 1.557620 0.367727
vt 1.556285 0.146566
vt 1.465433 0.345729
vt 1.497667 0.370581
vt 1.511074 0.589150
vt 1.452100 0.578244
vt 1.588849 0.577982
vt 1.558956 0.588888
vt 1.464337 0.113395
vt 1.496217 0.152013
vt 0.205596 1.310196
vt 0.205597 0.008059
vt 1.018527 0.034814
vt 1.018527 0.063919
vt 1.043733 0.078471
vt 1.068938 0.063919
vt 1.068938 0.034814
vt 1.043733 0.020261
vt 1.206762 0.989403
vt 1.206763 0.008272
vt 0.934082 0.615090
vt 0.963187 0.615090
vt 0.977740 0.589884
vt 0.963187 0.564678
vt 0.934082 0.564678
vt 0.919530 0.589884
vt 0.205596 1.310196
vt 0.205597 0.008059
vt 1.088676 0.050848
vt 1.088676 0.079953
vt 1.113882 0.094505
vt 1.139088 0.079953
vt 1.139088 0.050848
vt 1.113882 0.036295
vt 1.206762 0.989403
vt 1.206763 0.008272
vt 0.028759 0.079051
vt 0.057864 0.079051
vt 0.072417 0.053845
vt 0.057864 0.028639
vt 0.028759 0.028639
vt 0.014206 0.053845
vt 0.586273 0.583135
vt 0.556379 0.594041
vt 0.553709 0.151719
vt 0.587691 0.118286
vt 0.461761 0.118548
vt 0.493640 0.157166
vt 0.496542 0.594303
vt 0.463952 0.583216
vt 1.588849 0.577982
vt 1.590268 0.113133
vt 1.556285 0.146566
vt 1.558956 0.588888
vt 1.464337 0.113395
vt 1.466529 0.578063
vt 1.499118 0.589150
vt 1.496217 0.152013
vt 1.511074 0.589150
vt 1.512035 0.367989
vt 1.451856 0.345820
vt 1.452100 0.578244
vt 1.589559 0.345558
vt 1.588849 0.577982
vt 1.558956 0.588888
vt 1.557620 0.367727
vn 0.070531 6.107987143087381E-17 0.99751
vn 0.019324 0.00824100000000006 0.999779
vn -0.016696 0.008247000000000062 0.999827
vn 0.061968 0.003994000000000061 0.99807
vn 0.065152 0.997875 0.00028199999999993893
vn -0.024558 0.999486 0.020592999999999938
vn 0.065582 0.997816 0.007894999999999939
vn -0.037355 3.000000000006119E-05 0.999302
vn -0.068223 0.997197 0.030707999999999937
vn -0.999849 -0.017224 -0.0022199999999999993
vn -0.999842 -0.017402 -0.003763999999999999
vn -0.999849 -0.017224 -0.0022199999999999993
vn -0.999855 -0.017046 -0.0006769999999999989
vn 0.999849 0.017246 0.0020299999999999993
vn 0.999843 0.017402 0.003383999999999999
vn 0.999849 0.017246 0.0020299999999999993
vn 0.999854 0.01709 0.0006759999999999989
vn -0.188986 -0.98198 6.012893319133589E-17
vn -0.944911 -0.327329 2.0043120605905197E-17
vn -0.755926 -0.654657 4.008617997947044E-17
vn 0.188963 -0.981984 6.012917812069572E-17
vn -0.755918 0.654666 -4.0086731070530056E-17
vn -0.944909 0.327333 -2.0043365535265028E-17
vn 0.188989 0.981979 -6.012887195899595E-17
vn -0.188966 0.981984 -6.012917812069572E-17
vn 0.866026 0.499999 -3.061610874634387E-17
vn 0.866026 0.499999 -3.061610874634387E-17
vn 0.866018 -0.500013 3.061696599910328E-17
vn 0.866018 -0.500013 3.061696599910328E-17
vn -0.188977 -0.981982 6.012905565601582E-17
vn -0.944911 -0.327329 2.0043120605905197E-17
vn -0.755926 -0.654657 4.008617997947044E-17
vn 0.188986 -0.98198 6.012893319133589E-17
vn -0.755918 0.654666 -4.0086731070530056E-17
vn -0.944909 0.327333 -2.0043365535265028E-17
vn 0.188991 0.981979 -6.012887195899595E-17
vn -0.188965 0.981984 -6.012917812069572E-17
vn 0.866026 0.499998 -3.0616047514003916E-17
vn 0.866026 0.499998 -3.0616047514003916E-17
vn 0.866026 -0.499999 3.061610874634387E-17
vn 0.866026 -0.499999 3.061610874634387E-17
vn -0.84366 -0.001981000000000033 -0.536874
vn -0.84366 -0.001981000000000033 -0.536874
vn -0.84366 -0.001981000000000033 -0.536874
vn -0.84366 -0.001981000000000033 -0.536874
vn 0.848697 0.0025250000000000324 0.528874
vn 0.848695 0.0025640000000000324 0.528876
vn 0.848697 0.0025250000000000324 0.528874
vn 0.848698 0.0024860000000000325 0.528872
vn 0.850213 0.14601799999999998 -0.505784
vn 0.850216 0.14599299999999998 -0.505786
vn 0.850213 0.14601799999999998 -0.505784
vn 0.850209 0.14604299999999998 -0.505782
vn -0.853885 -0.14625199999999997 0.499491
vn -0.853876 -0.14631699999999997 0.499487
vn -0.853885 -0.14625199999999997 0.499491
vn -0.853893 -0.14618799999999998 0.499495
vn 0.094459 0.07216999999999994 -0.992909
vn 0.049233 0.07026599999999994 -0.996313
vn 0.003811 0.06821199999999994 -0.997664
vn 0.094459 0.07216999999999994 -0.992909
vn -0.09998 -0.07233599999999994 0.992357
vn -0.099984 -0.07237199999999995 0.992353
vn -0.009704 -0.06851799999999994 0.997603
vn -0.054947 -0.07049999999999994 0.995997
vn -0.169651 0.985132 0.02707299999999994
vn -0.1698 0.985128 0.02629999999999994
vn -0.041525 0.06602199999999994 -0.996954
vn 0.035468 -0.06636199999999995 0.997165
vn 0.994716 -0.102662 6.286234484703279E-18
vn 0.408449 -0.912781 5.589171649862601E-17
vn 0.718064 -0.695977 4.261630026650887E-17
vn 0.961776 0.273837 -1.6767680276905688E-17
vn -0.58629 -0.810101 4.96043798318035E-17
vn -0.243728 -0.969844 5.938581751361329E-17
vn -0.994712 0.102706 -6.288928707661403E-18
vn -0.96178 -0.273825 1.67669454888262E-17
vn -0.573567 0.819158 -5.015896113479738E-17
vn -0.573567 0.819158 -5.015896113479738E-17
vn 0.422628 0.906303 -5.549505340038218E-17
vn 0.422628 0.906303 -5.549505340038218E-17
vn 0.994715 -0.102672 6.286846808102852E-18
vn 0.408444 -0.912783 5.589183896330593E-17
vn 0.718053 -0.695989 4.261703505458836E-17
vn 0.961773 0.273847 -1.6768292600305262E-17
vn -0.586284 -0.810106 4.9604685993503284E-17
vn -0.243724 -0.969845 5.938587874595323E-17
vn -0.994714 0.102685 -6.2876428285222984E-18
vn -0.961776 -0.273839 1.6767802741585602E-17
vn -0.573577 0.819152 -5.015859374075763E-17
vn -0.573577 0.819152 -5.015859374075763E-17
vn 0.422618 0.906308 -5.549535956208197E-17
vn 0.422618 0.906308 -5.549535956208197E-17
vn 0.994716 -0.102662 6.286234484703279E-18
vn 0.408449 -0.912781 5.589171649862601E-17
vn 0.718064 -0.695977 4.261630026650887E-17
vn 0.961776 0.273837 -1.6767680276905688E-17
vn -0.58629 -0.810101 4.96043798318035E-17
vn -0.243728 -0.969844 5.938581751361329E-17
vn -0.994712 0.102706 -6.288928707661403E-18
vn -0.96178 -0.273825 1.67669454888262E-17
vn -0.573567 0.819158 -5.015896113479738E-17
vn -0.573567 0.819158 -5.015896113479738E-17
vn 0.422628 0.906303 -5.549505340038218E-17
vn 0.422628 0.906303 -5.549505340038218E-17
vn 0.944909 0.327333 -2.0043365535265028E-17
vn 0.755929 -0.654654 4.0085996282450565E-17
vn 0.944915 -0.327317 2.004238581782571E-17
vn 0.755935 0.654647 -4.0085567656070865E-17
vn -0.189006 -0.981976 6.012868826197606E-17
vn 0.188969 -0.981983 6.012911688835577E-17
vn -0.94491 -0.327331 2.0043243070585114E-17
vn -0.75594 -0.654641 4.008520026203112E-17
vn -0.866021 0.500008 -3.061665983740349E-17
vn -0.866021 0.500008 -3.061665983740349E-17
vn 2.8E-05 1 -6.123233995736766E-17
vn 2.8E-05 1 -6.123233995736766E-17
vn 0.015497 -0.956738 -0.29053899999999994
vn 0.015497 -0.956738 -0.29053899999999994
vn 0.015497 -0.956738 -0.29053899999999994
vn 0.015497 -0.956738 -0.29053899999999994
vn -0.015141 0.954116 0.29905399999999993
vn -0.015171 0.954115 0.29905499999999996
vn -0.015141 0.954116 0.29905399999999993
vn -0.015112 0.954117 0.29905299999999996
vn -0.150793 0.94009 -0.30576500000000006
vn -0.150765 0.940094 -0.30576700000000007
vn -0.150793 0.94009 -0.30576500000000006
vn -0.15082 0.940087 -0.30576200000000003
vn 0.150705 -0.937687 0.31309900000000007
vn 0.150764 -0.937679 0.31309400000000004
vn 0.150705 -0.937687 0.31309900000000007
vn 0.150645 -0.937695 0.3131050000000001
vn -0.985132 -0.171298 -0.01311899999999999
vn -0.985127 -0.171262 -0.01390499999999999
vn -0.985132 -0.171298 -0.01311899999999999
vn -0.985136 -0.171333 -0.012331999999999989
vn -0.06602 0.19143899999999994 -0.979282
vn -0.066023 0.19143799999999994 -0.979282
vn 0.066364 -0.19737799999999994 0.978079
vn 0.06632 -0.19738299999999995 0.978081
vn 0.019993 0.999746 0.010430999999999939
vn -0.051718 0.00836200000000006 0.998627
vn -0.069767 0.997296 0.023071999999999936
vn 0.000346 -0.01190299999999994 0.999929
vn 0.000513 -0.01191299999999994 0.999929
vn 0.000346 -0.01190299999999994 0.999929
vn 0.000179 -0.01189299999999994 0.999929
vn -0.755918 0.654666 -4.0086731070530056E-17
vn -0.944909 0.327333 -2.0043365535265028E-17
vn 0 6.123233995736766E-17 1
vn 0 6.123233995736766E-17 1
vn 0 6.123233995736766E-17 1
vn 0 6.123233995736766E-17 1
vn 0 6.123233995736766E-17 1
vn 0 6.123233995736766E-17 1
vn -0.755918 0.654666 -4.0086731070530056E-17
vn -0.944909 0.327333 -2.0043365535265028E-17
vn 0 6.123233995736766E-17 1
vn 0 6.123233995736766E-17 1
vn 0 6.123233995736766E-17 1
vn 0 6.123233995736766E-17 1
vn 0 6.123233995736766E-17 1
vn 0 6.123233995736766E-17 1
vn 0.01456 -0.999761 -0.016289999999999936
vn 0.015801 -0.999756 -0.015412999999999939
vn 0.01456 -0.999761 -0.016289999999999936
vn 0.01332 -0.999764 -0.01716699999999994
vn -0.014502 0.999761 0.016345999999999937
vn -0.013015 0.999768 0.017185999999999937
vn -0.014502 0.999761 0.016345999999999937
vn -0.015988 0.999752 0.015504999999999939
vn 0.124853 -0.991936 -0.021794999999999936
vn 0.115926 -0.993131 -0.015894999999999937
vn 0.124853 -0.991936 -0.021794999999999936
vn 0.133765 -0.990626 -0.02769299999999994
vn -0.12442 0.991998 0.02144399999999994
vn -0.135058 0.990468 0.02705499999999994
vn -0.12442 0.991998 0.02144399999999994
vn -0.113762 0.993382 0.015828999999999937
vn -0.01858 -0.999288 -0.03283999999999994
vn 0.107706 -0.993846 -0.02587399999999994
vn 0.044292 -0.998528 -0.03129799999999994
vn -0.019709 -0.998902 -0.042508999999999936
vn -0.107708 0.993846 0.025876999999999938
vn -0.044294 0.998528 0.03131299999999994
vn -0.041525 0.06602199999999994 -0.996954
vn 0.035472 -0.06640099999999995 0.997162
vn 0.169798 -0.985128 -0.026307999999999943
vn 0.16965 -0.985132 -0.02707499999999994
vn 0.018576 0.999287 0.03285999999999994
vn 0.019706 0.998901 0.042536999999999936
vn -0.58629 -0.810101 4.96043798318035E-17
vn -0.243728 -0.969844 5.938581751361329E-17
vn 0 6.123233995736766E-17 1
vn 0 6.123233995736766E-17 1
vn 0 6.123233995736766E-17 1
vn 0 6.123233995736766E-17 1
vn 0 6.123233995736766E-17 1
vn 0 6.123233995736766E-17 1
vn -0.586284 -0.810106 4.9604685993503284E-17
vn -0.243724 -0.969845 5.938587874595323E-17
vn 0 6.123233995736766E-17 1
vn 0 6.123233995736766E-17 1
vn 0 6.123233995736766E-17 1
vn 0 6.123233995736766E-17 1
vn 0 6.123233995736766E-17 1
vn 0 6.123233995736766E-17 1
vn -0.58629 -0.810101 4.96043798318035E-17
vn -0.243728 -0.969844 5.938581751361329E-17
vn 0 6.123233995736766E-17 1
vn 0 6.123233995736766E-17 1
vn 0 6.123233995736766E-17 1
vn 0 6.123233995736766E-17 1
vn 0 6.123233995736766E-17 1
vn 0 6.123233995736766E-17 1
vn -0.189006 -0.981976 6.012868826197606E-17
vn 0.188969 -0.981983 6.012911688835577E-17
vn 0 6.123233995736766E-17 1
vn 0 6.123233995736766E-17 1
vn 0 6.123233995736766E-17 1
vn 0 6.123233995736766E-17 1
vn 0 6.123233995736766E-17 1
vn 0 6.123233995736766E-17 1
vn 0.99928 -0.036468 -0.010435999999999999
vn 0.999931 -0.011628 -0.0016509999999999993
vn 0.99928 -0.036468 -0.010435999999999999
vn 0.997935 -0.061283 -0.019213999999999995
vn -0.999147 0.039744 0.011180999999999998
vn -0.997338 0.070274 0.019466999999999998
vn -0.999147 0.039744 0.011180999999999998
vn -0.999954 0.009174 0.0028829999999999997
vn 0.998086 0.054488 -0.029252000000000004
vn 0.999859 0.010885 -0.012775
vn 0.998086 0.054488 -0.029252000000000004
vn 0.994141 0.097972 -0.045666000000000005
vn -0.998397 -0.049242 0.027915000000000002
vn -0.993788 -0.102463 0.043432000000000005
vn -0.998397 -0.049242 0.027915000000000002
vn -0.999916 0.004132000000000001 0.012312
vn -0.066025 0.19143799999999994 -0.979281
vn -0.066023 0.19143799999999994 -0.979282
vn 0.066364 -0.19737799999999994 0.978079
vn 0.066408 -0.19737399999999994 0.978077
vn 0.985132 0.171297 0.01311699999999999
vn 0.985128 0.171262 0.01389699999999999
vn 0.985132 0.171297 0.01311699999999999
vn 0.985136 0.171332 0.01233699999999999
g orig_Standard_10
f 245/245/245 248/248/248 247/247/247
f 247/247/247 246/246/246 245/245/245
f 243/243/243 141/141/141 140/140/140
f 140/140/140 244/244/244 243/243/243
f 139/139/139 138/138/138 242/242/242
f 242/242/242 241/241/241 139/139/139
f 134/134/134 137/137/137 136/136/136
f 136/136/136 135/135/135 134/134/134
f 237/237/237 240/240/240 239/239/239
f 239/239/239 238/238/238 237/237/237
f 233/233/233 236/236/236 235/235/235
f 235/235/235 234/234/234 233/233/233
f 132/132/132 131/131/131 130/130/130
f 130/130/130 133/133/133 132/132/132
f 128/128/128 127/127/127 126/126/126
f 126/126/126 129/129/129 128/128/128
f 229/229/229 232/232/232 231/231/231
f 231/231/231 230/230/230 229/229/229
f 225/225/225 228/228/228 227/227/227
f 227/227/227 226/226/226 225/225/225
f 124/124/124 123/123/123 122/122/122
f 122/122/122 125/125/125 124/124/124
f 120/120/120 119/119/119 118/118/118
f 118/118/118 121/121/121 120/120/120
f 223/223/223 219/219/219 224/224/224
f 223/223/223 221/221/221 219/219/219
f 223/223/223 222/222/222 221/221/221
f 221/221/221 220/220/220 219/219/219
f 116/116/116 117/117/117 109/109/109
f 109/109/109 106/106/106 116/116/116
f 116/116/116 114/114/114 115/115/115
f 115/115/115 117/117/117 116/116/116
f 112/112/112 113/113/113 115/115/115
f 115/115/115 114/114/114 112/112/112
f 217/217/217 218/218/218 113/113/113
f 113/113/113 112/112/112 217/217/217
f 107/107/107 108/108/108 111/111/111
f 111/111/111 110/110/110 107/107/107
f 106/106/106 109/109/109 108/108/108
f 108/108/108 107/107/107 106/106/106
f 215/215/215 211/211/211 216/216/216
f 215/215/215 213/213/213 211/211/211
f 215/215/215 214/214/214 213/213/213
f 213/213/213 212/212/212 211/211/211
f 104/104/104 105/105/105 97/97/97
f 97/97/97 94/94/94 104/104/104
f 104/104/104 102/102/102 103/103/103
f 103/103/103 105/105/105 104/104/104
f 100/100/100 101/101/101 103/103/103
f 103/103/103 102/102/102 100/100/100
f 209/209/209 210/210/210 101/101/101
f 101/101/101 100/100/100 209/209/209
f 95/95/95 96/96/96 99/99/99
f 99/99/99 98/98/98 95/95/95
f 94/94/94 97/97/97 96/96/96
f 96/96/96 95/95/95 94/94/94
f 207/207/207 203/203/203 208/208/208
f 207/207/207 205/205/205 203/203/203
f 207/207/207 206/206/206 205/205/205
f 205/205/205 204/204/204 203/203/203
f 92/92/92 93/93/93 85/85/85
f 85/85/85 82/82/82 92/92/92
f 92/92/92 90/90/90 91/91/91
f 91/91/91 93/93/93 92/92/92
f 88/88/88 89/89/89 91/91/91
f 91/91/91 90/90/90 88/88/88
f 201/201/201 202/202/202 89/89/89
f 89/89/89 88/88/88 201/201/201
f 83/83/83 84/84/84 87/87/87
f 87/87/87 86/86/86 83/83/83
f 82/82/82 85/85/85 84/84/84
f 84/84/84 83/83/83 82/82/82
f 199/199/199 195/195/195 200/200/200
f 199/199/199 197/197/197 195/195/195
f 199/199/199 198/198/198 197/197/197
f 197/197/197 196/196/196 195/195/195
f 80/80/80 81/81/81 73/73/73
f 73/73/73 70/70/70 80/80/80
f 80/80/80 78/78/78 79/79/79
f 79/79/79 81/81/81 80/80/80
f 76/76/76 77/77/77 79/79/79
f 79/79/79 78/78/78 76/76/76
f 193/193/193 194/194/194 77/77/77
f 77/77/77 76/76/76 193/193/193
f 71/71/71 72/72/72 75/75/75
f 75/75/75 74/74/74 71/71/71
f 70/70/70 73/73/73 72/72/72
f 72/72/72 71/71/71 70/70/70
f 191/191/191 185/185/185 186/186/186
f 186/186/186 192/192/192 191/191/191
f 182/182/182 183/183/183 190/190/190
f 190/190/190 189/189/189 182/182/182
f 64/64/64 65/65/65 69/69/69
f 69/69/69 188/188/188 64/64/64
f 68/68/68 59/59/59 60/60/60
f 60/60/60 187/187/187 68/68/68
f 66/66/66 186/186/186 185/185/185
f 185/185/185 67/67/67 66/66/66
f 181/181/181 184/184/184 183/183/183
f 183/183/183 182/182/182 181/181/181
f 63/63/63 62/62/62 65/65/65
f 65/65/65 64/64/64 63/63/63
f 59/59/59 58/58/58 61/61/61
f 61/61/61 60/60/60 59/59/59
f 177/177/177 180/180/180 179/179/179
f 179/179/179 178/178/178 177/177/177
f 173/173/173 176/176/176 175/175/175
f 175/175/175 174/174/174 173/173/173
f 56/56/56 55/55/55 54/54/54
f 54/54/54 57/57/57 56/56/56
f 52/52/52 51/51/51 50/50/50
f 50/50/50 53/53/53 52/52/52
f 169/169/169 172/172/172 171/171/171
f 171/171/171 170/170/170 169/169/169
f 165/165/165 168/168/168 167/167/167
f 167/167/167 166/166/166 165/165/165
f 48/48/48 47/47/47 46/46/46
f 46/46/46 49/49/49 48/48/48
f 44/44/44 43/43/43 42/42/42
f 42/42/42 45/45/45 44/44/44
f 163/163/163 159/159/159 164/164/164
f 163/163/163 161/161/161 159/159/159
f 163/163/163 162/162/162 161/161/161
f 161/161/161 160/160/160 159/159/159
f 40/40/40 41/41/41 33/33/33
f 33/33/33 30/30/30 40/40/40
f 40/40/40 38/38/38 39/39/39
f 39/39/39 41/41/41 40/40/40
f 36/36/36 37/37/37 39/39/39
f 39/39/39 38/38/38 36/36/36
f 157/157/157 158/158/158 37/37/37
f 37/37/37 36/36/36 157/157/157
f 31/31/31 32/32/32 35/35/35
f 35/35/35 34/34/34 31/31/31
f 30/30/30 33/33/33 32/32/32
f 32/32/32 31/31/31 30/30/30
f 155/155/155 151/151/151 156/156/156
f 155/155/155 153/153/153 151/151/151
f 155/155/155 154/154/154 153/153/153
f 153/153/153 152/152/152 151/151/151
f 28/28/28 29/29/29 21/21/21
f 21/21/21 18/18/18 28/28/28
f 28/28/28 26/26/26 27/27/27
f 27/27/27 29/29/29 28/28/28
f 24/24/24 25/25/25 27/27/27
f 27/27/27 26/26/26 24/24/24
f 149/149/149 150/150/150 25/25/25
f 25/25/25 24/24/24 149/149/149
f 19/19/19 20/20/20 23/23/23
f 23/23/23 22/22/22 19/19/19
f 18/18/18 21/21/21 20/20/20
f 20/20/20 19/19/19 18/18/18
f 145/145/145 148/148/148 147/147/147
f 147/147/147 146/146/146 145/145/145
f 14/14/14 15/15/15 16/16/16
f 16/16/16 17/17/17 14/14/14
f 10/10/10 11/11/11 12/12/12
f 12/12/12 13/13/13 10/10/10
f 144/144/144 142/142/142 6/6/6
f 6/6/6 9/9/9 144/144/144
f 143/143/143 2/2/2 3/3/3
f 3/3/3 8/8/8 143/143/143
f 142/142/142 5/5/5 7/7/7
f 7/7/7 6/6/6 142/142/142
f 2/2/2 1/1/1 4/4/4
f 4/4/4 3/3/3 2/2/2
