v 0.326002 0.356139 -0.09087000000000003
v -0.08834 0.386217 -0.12016700000000002
v -0.023238 -0.506261 -0.10954699999999998
v 0.326002 -0.506261 -0.09086999999999998
v -0.523562 0.357793 -0.09087000000000003
v -0.522874 -0.506261 -0.09086999999999998
vt 0.482375 0.994689
vt 0.468224 0.838665
vt 0.885538 0.863005
vt 0.885604 0.994535
vt 0.481521 0.674806
vt 0.885532 0.675065
vn -0.070531 6.107987143087381E-17 0.99751
vn -0.019324 0.00824100000000006 0.999779
vn 0.016696 0.008247000000000062 0.999827
vn -0.061968 0.003994000000000061 0.99807
vn 0.051719 0.00836200000000006 0.998627
vn 0.037355 3.000000000006119E-05 0.999302
g orig_Standard_10
f 3/3/3 2/2/2 5/5/5
f 5/5/5 6/6/6 3/3/3
f 4/4/4 1/1/1 2/2/2
f 2/2/2 3/3/3 4/4/4
