v -1.809448 0.405495 -0.08513300000000003
v 1.881328 0.405495 -0.08513300000000003
v 1.881328 -0.371965 -0.08513299999999997
v -1.809448 -0.371964 -0.08513299999999997
v -1.653579 -0.298028 0.13805000000000003
v -1.508057 -0.392632 0.18050600000000003
v -1.327758 -0.044235 -0.049965
v -1.473281 0.05036899999999999 -0.092422
v -1.396897 -0.318016 0.15531500000000004
v -1.281215 -0.383668 0.16957900000000004
v -1.085743 -0.033586000000000005 -0.082309
v -1.201426 0.03206699999999999 -0.083389
v 1.568701 -0.398418 0.18088700000000002
v 1.854595 -0.325605 0.18001700000000004
v 1.644507 0.132426 -0.08699900000000002
v 1.358613 0.05961299999999999 -0.086128
v -1.809448 -0.371964 -0.20613099999999998
v -1.809448 -0.371964 -0.08513299999999997
v -1.809448 0.405495 -0.08513300000000003
v -1.809448 0.405495 -0.20613100000000004
v 1.881328 -0.371965 -0.20613099999999998
v 1.881328 -0.371965 -0.08513299999999997
v -1.809448 -0.371964 -0.08513299999999997
v -1.809448 -0.371964 -0.20613099999999998
v 1.881328 0.405495 -0.20613100000000004
v 1.881328 0.405495 -0.08513300000000003
v 1.881328 -0.371965 -0.08513299999999997
v 1.881328 -0.371965 -0.20613099999999998
v -1.809448 0.405495 -0.20613100000000004
v -1.809448 0.405495 -0.08513300000000003
v 1.881328 0.405495 -0.08513300000000003
v 1.881328 0.405495 -0.20613100000000004
v -1.809448 0.405495 -0.08513300000000003
v -1.809448 -0.371964 -0.08513299999999997
v 1.881328 -0.371965 -0.08513299999999997
v 1.881328 0.405495 -0.08513300000000003
v 1.792935 -0.13803300000000002 -0.331633
v 1.878143 0.343739 -0.22863100000000003
v 1.878735 0.353746 -0.310036
v 1.794796 -0.12178900000000002 -0.408656
v 1.83024 -0.14034200000000002 -0.329569
v 1.915449 0.341429 -0.22656400000000002
v 1.878143 0.343739 -0.22863100000000003
v 1.792935 -0.13803300000000002 -0.331633
v 1.878735 0.353746 -0.310036
v 1.91604 0.35144 -0.307971
v 1.832102 -0.12409400000000002 -0.406592
v 1.794796 -0.12178900000000002 -0.408656
v 1.91604 0.35144 -0.307971
v 1.915449 0.341429 -0.22656400000000002
v 1.83024 -0.14034200000000002 -0.329569
v 1.832102 -0.12409400000000002 -0.406592
v 1.855018 0.367157 -0.285679
v 1.868227 -0.11832700000000011 -1.73326
v 1.875656 -0.0795900000000001 -1.811865
v 1.857238 0.36170899999999995 -0.464154
v 1.80774 -0.1094520000000001 -1.735807
v 1.79453 0.376026 -0.28822
v 1.796751 0.37058199999999997 -0.466698
v 1.815168 -0.07071400000000011 -1.814409
v 1.868227 -0.11832700000000011 -1.73326
v 1.855018 0.367157 -0.285679
v 1.79453 0.376026 -0.28822
v 1.80774 -0.1094520000000001 -1.735807
v 1.875656 -0.0795900000000001 -1.811865
v 1.815168 -0.07071400000000011 -1.814409
v 1.796751 0.37058199999999997 -0.466698
v 1.857238 0.36170899999999995 -0.464154
v 1.926321 -0.07865900000000002 -0.285679
v 1.929454 -0.07367800000000002 -0.464154
v 1.92692 0.3356309999999999 -1.811865
v 1.926332 0.3750669999999999 -1.73326
v 1.865222 0.3768339999999999 -1.735807
v 1.86581 0.3373939999999999 -1.814409
v 1.868344 -0.07191600000000002 -0.466698
v 1.865213 -0.07689000000000001 -0.28822
v 1.926332 0.3750669999999999 -1.73326
v 1.865222 0.3768339999999999 -1.735807
v 1.865213 -0.07689000000000001 -0.28822
v 1.926321 -0.07865900000000002 -0.285679
v 1.92692 0.3356309999999999 -1.811865
v 1.929454 -0.07367800000000002 -0.464154
v 1.868344 -0.07191600000000002 -0.466698
v 1.86581 0.3373939999999999 -1.814409
v 1.059872 0.468274 -0.28567900000000007
v 1.854331 0.44846399999999986 -1.73326
v 1.815595 0.4558929999999999 -1.811865
v 1.065319 0.47049399999999997 -0.46415400000000007
v 1.845456 0.3879769999999999 -1.735807
v 1.051003 0.407786 -0.28822
v 1.056446 0.41000699999999995 -0.466698
v 1.806718 0.3954049999999999 -1.814409
v 1.854331 0.44846399999999986 -1.73326
v 1.059872 0.468274 -0.28567900000000007
v 1.051003 0.407786 -0.28822
v 1.845456 0.3879769999999999 -1.735807
v 1.815595 0.4558929999999999 -1.811865
v 1.806718 0.3954049999999999 -1.814409
v 1.056446 0.41000699999999995 -0.466698
v 1.065319 0.47049399999999997 -0.46415400000000007
v 1.871055 0.43614 -0.288364
v 1.866075 0.43927299999999997 -0.46684
v 1.048141 0.4192219999999999 -1.81455
v 1.008705 0.41863299999999987 -1.735946
v 1.006939 0.3575239999999999 -1.738493
v 1.046379 0.3581119999999999 -1.817094
v 1.864312 0.37816399999999994 -0.469384
v 1.869287 0.375033 -0.290905
v 1.008705 0.41863299999999987 -1.735946
v 1.006939 0.3575239999999999 -1.738493
v 1.869287 0.375033 -0.290905
v 1.871055 0.43614 -0.288364
v 1.048141 0.4192219999999999 -1.81455
v 1.866075 0.43927299999999997 -0.46684
v 1.864312 0.37816399999999994 -0.469384
v 1.046379 0.3581119999999999 -1.817094
v 1.85454 -0.185609 0.01802600000000001
v 1.864453 0.395602 0.024954999999999977
v 1.820892 0.397487 0.024954999999999977
v 1.810946 -0.184131 0.01803600000000001
v 1.810946 -0.184131 0.01803600000000001
v 1.820892 0.397487 0.024954999999999977
v 1.82081 0.395605 -0.04879100000000002
v 1.81056 -0.192755 -0.05172199999999998
v 1.864371 0.39372 -0.04879100000000002
v 1.864453 0.395602 0.024954999999999977
v 1.85454 -0.185609 0.01802600000000001
v 1.85412 -0.194633 -0.05172199999999998
v -1.743512 -0.13803300000000002 -0.331633
v -1.745374 -0.12178800000000002 -0.408656
v -1.829312 0.353747 -0.310036
v -1.828721 0.34374 -0.22863100000000003
v -1.780818 -0.14034100000000002 -0.329569
v -1.743512 -0.13803300000000002 -0.331633
v -1.828721 0.34374 -0.22863100000000003
v -1.866027 0.341429 -0.22656400000000002
v -1.829312 0.353747 -0.310036
v -1.745374 -0.12178800000000002 -0.408656
v -1.78268 -0.12409400000000002 -0.406592
v -1.866618 0.35144 -0.307971
v -1.866618 0.35144 -0.307971
v -1.78268 -0.12409400000000002 -0.406592
v -1.780818 -0.14034100000000002 -0.329569
v -1.866027 0.341429 -0.22656400000000002
v -1.805596 0.367157 -0.285679
v -1.807816 0.3617099999999999 -0.464154
v -1.826234 -0.0795900000000001 -1.811865
v -1.818805 -0.11832600000000011 -1.73326
v -1.758317 -0.10945100000000012 -1.735807
v -1.765746 -0.07071300000000011 -1.814409
v -1.747329 0.37058299999999994 -0.466698
v -1.745106 0.376026 -0.28822
v -1.818805 -0.11832600000000011 -1.73326
v -1.758317 -0.10945100000000012 -1.735807
v -1.745106 0.376026 -0.28822
v -1.805596 0.367157 -0.285679
v -1.826234 -0.0795900000000001 -1.811865
v -1.807816 0.3617099999999999 -0.464154
v -1.747329 0.37058299999999994 -0.466698
v -1.765746 -0.07071300000000011 -1.814409
v -1.876899 -0.07865800000000002 -0.285679
v -1.876908 0.3750679999999999 -1.73326
v -1.877497 0.3356319999999999 -1.811865
v -1.880032 -0.07367800000000002 -0.464154
v -1.8158 0.3768339999999999 -1.735807
v -1.815791 -0.07689000000000001 -0.28822
v -1.818921 -0.07191600000000002 -0.466698
v -1.816388 0.3373939999999999 -1.814409
v -1.876908 0.3750679999999999 -1.73326
v -1.876899 -0.07865800000000002 -0.285679
v -1.815791 -0.07689000000000001 -0.28822
v -1.8158 0.3768339999999999 -1.735807
v -1.877497 0.3356319999999999 -1.811865
v -1.816388 0.3373939999999999 -1.814409
v -1.818921 -0.07191600000000002 -0.466698
v -1.880032 -0.07367800000000002 -0.464154
v -0.97083 0.522657 -0.28567900000000007
v -0.976277 0.524877 -0.46415400000000007
v -1.766171 0.4558929999999999 -1.811865
v -1.804909 0.44846399999999986 -1.73326
v -1.796033 0.3879769999999999 -1.735807
v -1.757294 0.3954049999999999 -1.814409
v -0.967404 0.46438999999999997 -0.46669800000000006
v -0.961961 0.462169 -0.28822000000000003
v -1.804909 0.44846399999999986 -1.73326
v -1.796033 0.3879769999999999 -1.735807
v -0.961961 0.462169 -0.28822000000000003
v -0.97083 0.522657 -0.28567900000000007
v -1.766171 0.4558929999999999 -1.811865
v -0.976277 0.524877 -0.46415400000000007
v -0.967404 0.46438999999999997 -0.46669800000000006
v -1.757294 0.3954049999999999 -1.814409
v -1.821633 0.43614 -0.288364
v -0.919663 0.4730159999999999 -1.735946
v -0.9591 0.4736039999999999 -1.81455
v -1.816651 0.43927299999999997 -0.46684
v -0.917897 0.4119059999999999 -1.738493
v -1.819863 0.375033 -0.290905
v -1.814889 0.37816399999999994 -0.469384
v -0.957337 0.4124949999999999 -1.817094
v -0.919663 0.4730159999999999 -1.735946
v -1.821633 0.43614 -0.288364
v -1.819863 0.375033 -0.290905
v -0.917897 0.4119059999999999 -1.738493
v -0.9591 0.4736039999999999 -1.81455
v -0.957337 0.4124949999999999 -1.817094
v -1.814889 0.37816399999999994 -0.469384
v -1.816651 0.43927299999999997 -0.46684
v -1.805118 -0.185609 0.01802600000000001
v -1.761525 -0.18413 0.01803600000000001
v -1.77147 0.397488 0.024954999999999977
v -1.81503 0.395602 0.024954999999999977
v -1.761525 -0.18413 0.01803600000000001
v -1.761138 -0.192755 -0.05172199999999998
v -1.771388 0.395605 -0.04879100000000002
v -1.77147 0.397488 0.024954999999999977
v -1.81495 0.393721 -0.04879100000000002
v -1.804698 -0.194632 -0.05172199999999998
v -1.805118 -0.185609 0.01802600000000001
v -1.81503 0.395602 0.024954999999999977
v -0.060775 0.503491 -0.28567900000000007
v -0.066222 0.505711 -0.46415400000000007
v -0.947501 0.5343849999999999 -1.811865
v -0.986237 0.5269559999999999 -1.73326
v -0.977362 0.4664689999999999 -1.735807
v -0.938624 0.4738969999999999 -1.814409
v -0.057349 0.4452249999999999 -0.466698
v -0.051906 0.443003 -0.28822
v -0.986237 0.5269559999999999 -1.73326
v -0.977362 0.4664689999999999 -1.735807
v -0.051906 0.443003 -0.28822
v -0.060775 0.503491 -0.28567900000000007
v -0.947501 0.5343849999999999 -1.811865
v -0.066222 0.505711 -0.46415400000000007
v -0.057349 0.4452249999999999 -0.466698
v -0.938624 0.4738969999999999 -1.814409
v -0.942414 0.461898 -0.28567900000000007
v -0.040446 0.4987719999999999 -1.73326
v -0.079883 0.4993609999999999 -1.811865
v -0.937434 0.46503099999999997 -0.46415400000000007
v -0.03868 0.4376629999999999 -1.735807
v -0.940646 0.40079 -0.28822
v -0.935672 0.4039209999999999 -0.466698
v -0.07812 0.4382509999999999 -1.814409
v -0.040446 0.4987719999999999 -1.73326
v -0.942414 0.461898 -0.28567900000000007
v -0.940646 0.40079 -0.28822
v -0.03868 0.4376629999999999 -1.735807
v -0.079883 0.4993609999999999 -1.811865
v -0.07812 0.4382509999999999 -1.814409
v -0.935672 0.4039209999999999 -0.466698
v -0.937434 0.46503099999999997 -0.46415400000000007
v 0.926736 -0.11590600000000001 -0.331633
v 0.995642 0.370125 -0.22863100000000003
v 0.995771 0.380152 -0.310036
v 0.927941 -0.09957600000000003 -0.408656
v 0.968031 -0.11606000000000001 -0.329569
v 1.03694 0.36997 -0.22656400000000002
v 0.995642 0.370125 -0.22863100000000003
v 0.926736 -0.11590600000000001 -0.331633
v 0.995771 0.380152 -0.310036
v 1.037068 0.380001 -0.307971
v 0.969238 -0.09972700000000002 -0.406592
v 0.927941 -0.09957600000000003 -0.408656
v 1.037068 0.380001 -0.307971
v 1.03694 0.36997 -0.22656400000000002
v 0.968031 -0.11606000000000001 -0.329569
v 0.969238 -0.09972700000000002 -0.406592
v 0.056991 0.524608 -0.28567900000000007
v 0.981483 0.4986269999999999 -1.73326
v 0.938339 0.5038119999999999 -1.811865
v 0.062888 0.52714 -0.46415400000000007
v 0.974843 0.4377109999999999 -1.735807
v 0.050357 0.463691 -0.28822000000000003
v 0.056251 0.46622399999999997 -0.46669800000000006
v 0.9317 0.44289499999999987 -1.814409
v 0.981483 0.4986269999999999 -1.73326
v 0.056991 0.524608 -0.28567900000000007
v 0.050357 0.463691 -0.28822000000000003
v 0.974843 0.4377109999999999 -1.735807
v 0.938339 0.5038119999999999 -1.811865
v 0.9317 0.44289499999999987 -1.814409
v 0.056251 0.46622399999999997 -0.46669800000000006
v 0.062888 0.52714 -0.46415400000000007
v 0.998879 0.487053 -0.28836400000000006
v 0.993218 0.48989399999999994 -0.46684000000000003
v 0.044898 0.4747129999999999 -1.81455
v 0.001403 0.4718519999999999 -1.735946
v 0.002639 0.4107229999999999 -1.738493
v 0.046142 0.41358499999999987 -1.817094
v 0.994463 0.4287659999999999 -0.469384
v 1.000118 0.425926 -0.290905
v 0.001403 0.4718519999999999 -1.735946
v 0.002639 0.4107229999999999 -1.738493
v 1.000118 0.425926 -0.290905
v 0.998879 0.487053 -0.28836400000000006
v 0.044898 0.4747129999999999 -1.81455
v 0.993218 0.48989399999999994 -0.46684000000000003
v 0.994463 0.4287659999999999 -0.469384
v 0.046142 0.41358499999999987 -1.817094
v 1.87316 0.423445 -0.310825
v 1.86818 0.426578 -0.386701
v 1.510896 0.418108 -0.353326
v 1.508788 0.416247 -0.274637
v 1.025463 0.502046 -0.36798700000000006
v 1.01627 0.501455 -0.28648300000000004
v 1.023701 0.464741 -0.3705300000000001
v 1.025463 0.502046 -0.36798700000000006
v 1.510896 0.418108 -0.353326
v 1.509133 0.380802 -0.35587
v 1.86818 0.426578 -0.386701
v 1.866418 0.389272 -0.389244
v -1.846356 -0.13750900000000016 -2.621932
v -1.846356 -0.137509 0.03511500000000001
v -1.891818 -0.11126 0.03511500000000001
v -1.891818 -0.11126000000000016 -2.621932
v -1.89182 -0.058765 0.03511500000000001
v -1.89182 -0.05876500000000016 -2.621932
v -1.846354 -0.03251800000000016 -2.621932
v -1.846354 -0.032518 0.035115
v -1.800893 -0.058766 0.03511500000000001
v -1.800893 -0.05876600000000016 -2.621932
v -1.800893 -0.111261 0.03511500000000001
v -1.800893 -0.11126100000000017 -2.621932
v -1.846356 -0.137509 0.03511500000000001
v -1.846356 -0.13750900000000016 -2.621932
v -1.867694 -0.21246800000000016 -2.761336
v -1.867694 -0.212468 0.134724
v -1.897805 -0.169464 0.134724
v -1.897805 -0.16946400000000017 -2.761336
v -1.875617 -0.12188699999999998 0.134724
v -1.875617 -0.12188700000000016 -2.761336
v -1.823321 -0.11731100000000017 -2.761336
v -1.823321 -0.11731099999999998 0.134724
v -1.793214 -0.160313 0.134724
v -1.793214 -0.16031300000000018 -2.761336
v -1.815396 -0.207892 0.134724
v -1.815396 -0.20789200000000016 -2.761336
v -1.867694 -0.212468 0.134724
v -1.867694 -0.21246800000000016 -2.761336
v -1.881959 0.3159219999999998 -2.673323
v -1.881959 0.315922 -0.01627700000000002
v -1.912068 0.358925 -0.01627700000000002
v -1.912068 0.3589249999999998 -2.673323
v -1.889882 0.406501 -0.016277000000000024
v -1.889882 0.40650099999999983 -2.673323
v -1.837586 0.41107699999999986 -2.673323
v -1.837586 0.411077 -0.016277000000000024
v -1.807477 0.368076 -0.01627700000000002
v -1.807477 0.36807599999999985 -2.673323
v -1.829663 0.320498 -0.01627700000000002
v -1.829663 0.32049799999999984 -2.673323
v -1.881959 0.315922 -0.01627700000000002
v -1.881959 0.3159219999999998 -2.673323
v -1.815173 0.37814899999999985 -2.797347
v -1.815173 0.378149 0.09871399999999997
v -1.845284 0.421153 0.09871399999999997
v -1.845284 0.42115299999999983 -2.797347
v -1.823096 0.46873 0.09871399999999997
v -1.823096 0.4687299999999998 -2.797347
v -1.7708 0.47330599999999984 -2.797347
v -1.7708 0.473306 0.09871399999999997
v -1.740693 0.430304 0.09871399999999997
v -1.740693 0.43030399999999985 -2.797347
v -1.762875 0.382725 0.09871399999999997
v -1.762875 0.3827249999999998 -2.797347
v -1.815173 0.378149 0.09871399999999997
v -1.815173 0.37814899999999985 -2.797347
v -0.974278 0.464741 -0.3705300000000001
v -0.965081 0.46415 -0.28903000000000006
v -1.4576 0.378942 -0.277181
v -1.45971 0.380802 -0.35587
v -1.821969 0.386141 -0.313366
v -1.816994 0.389272 -0.389244
v -0.965081 0.46415 -0.28903000000000006
v -0.966847 0.501456 -0.28648300000000004
v -1.459367 0.416247 -0.274637
v -1.4576 0.378942 -0.277181
v -1.823739 0.423445 -0.310825
v -1.821969 0.386141 -0.313366
v -1.026816 0.5356249999999999 -2.563948
v -1.026816 0.535625 0.09309799999999997
v -0.981353 0.561872 0.09309799999999997
v -0.981353 0.5618719999999999 -2.563948
v -0.935891 0.535625 0.09309799999999997
v -0.935891 0.5356249999999999 -2.563948
v -0.935891 0.4831289999999998 -2.563948
v -0.935891 0.483129 0.09309799999999997
v -0.981353 0.456881 0.09309799999999997
v -0.981353 0.4568809999999998 -2.563948
v -1.026816 0.483129 0.09309799999999997
v -1.026816 0.4831289999999998 -2.563948
v -1.026816 0.535625 0.09309799999999997
v -1.026816 0.5356249999999999 -2.563948
v -1.009972 0.4685469999999998 -2.563948
v -1.009972 0.468547 0.33211199999999996
v -0.964509 0.494794 0.33211199999999996
v -0.964509 0.49479399999999985 -2.563948
v -0.919045 0.468546 0.33211199999999996
v -0.919045 0.46854599999999985 -2.563948
v -0.919045 0.4160499999999998 -2.563948
v -0.919045 0.41605 0.332112
v -0.964509 0.389803 0.332112
v -0.964509 0.38980299999999984 -2.563948
v -1.009972 0.416051 0.332112
v -1.009972 0.41605099999999984 -2.563948
v -1.009972 0.468547 0.33211199999999996
v -1.009972 0.4685469999999998 -2.563948
v -0.047881 0.448383 -0.33574
v -0.038684 0.447792 -0.25424
v -0.531201 0.378943 -0.302419
v -0.533313 0.380803 -0.381108
v -0.940646 0.405185 -0.280285
v -0.935672 0.408316 -0.356163
v -0.038684 0.447792 -0.25424
v -0.04045 0.485098 -0.25169300000000006
v -0.532968 0.416248 -0.299875
v -0.531201 0.378943 -0.302419
v -0.942414 0.442489 -0.277744
v -0.940646 0.405185 -0.280285
v 0.026839 0.5322679999999999 -2.563948
v 0.026839 0.532269 -0.03434300000000003
v 0.072303 0.558514 -0.03434300000000003
v 0.072303 0.5585139999999998 -2.563948
v 0.117766 0.532266 -0.03434300000000003
v 0.117766 0.5322659999999999 -2.563948
v 0.117766 0.4797699999999998 -2.563948
v 0.117766 0.47977 -0.034343000000000026
v 0.072303 0.453523 -0.034343000000000026
v 0.072303 0.45352299999999984 -2.563948
v 0.026839 0.479773 -0.034343000000000026
v 0.026839 0.4797719999999998 -2.563948
v 0.026839 0.532269 -0.03434300000000003
v 0.026839 0.5322679999999999 -2.563948
v -0.083877 0.5012609999999998 -2.563948
v -0.083877 0.501261 0.09309799999999997
v -0.038413 0.527508 0.09309799999999997
v -0.038413 0.5275079999999999 -2.563948
v 0.007049 0.501261 0.09309799999999997
v 0.007049 0.5012609999999998 -2.563948
v 0.007049 0.44876599999999983 -2.563948
v 0.007049 0.448766 0.09309799999999997
v -0.038413 0.422518 0.09309799999999997
v -0.038413 0.42251799999999984 -2.563948
v -0.083877 0.448766 0.09309799999999997
v -0.083877 0.44876599999999983 -2.563948
v -0.083877 0.501261 0.09309799999999997
v -0.083877 0.5012609999999998 -2.563948
v -0.010697 0.4685469999999998 -2.563948
v -0.010697 0.468547 0.33211199999999996
v 0.034766 0.494794 0.33211199999999996
v 0.034766 0.49479399999999985 -2.563948
v 0.08023 0.468546 0.33211199999999996
v 0.08023 0.46854599999999985 -2.563948
v 0.08023 0.4160499999999998 -2.563948
v 0.08023 0.41605 0.332112
v 0.034766 0.389803 0.332112
v 0.034766 0.38980299999999984 -2.563948
v -0.010697 0.416051 0.332112
v -0.010697 0.41605099999999984 -2.563948
v -0.010697 0.468547 0.33211199999999996
v -0.010697 0.4685469999999998 -2.563948
v 1.001766 0.471658 -0.3108250000000001
v 0.996105 0.474499 -0.3867010000000001
v 0.602194 0.445432 -0.353326
v 0.599964 0.443452 -0.274637
v 0.062013 0.501256 -0.36798700000000006
v 0.051898 0.500135 -0.28648300000000004
v 0.062015 0.463899 -0.3705300000000001
v 0.062013 0.501256 -0.36798700000000006
v 0.602194 0.445432 -0.353326
v 0.602196 0.408076 -0.35587
v 0.996105 0.474499 -0.3867010000000001
v 0.996107 0.437142 -0.389244
v 1.94124 -0.111261 0.03511500000000001
v 1.895779 -0.13751 0.03511500000000001
v 1.895779 -0.13751000000000016 -2.621932
v 1.94124 -0.11126100000000017 -2.621932
v 1.941241 -0.058765 0.03511500000000001
v 1.941241 -0.05876500000000016 -2.621932
v 1.895777 -0.03251800000000016 -2.621932
v 1.895777 -0.032518 0.035115
v 1.850316 -0.058766 0.03511500000000001
v 1.850316 -0.05876600000000016 -2.621932
v 1.850315 -0.111262 0.03511500000000001
v 1.850315 -0.11126200000000017 -2.621932
v 1.895779 -0.13751 0.03511500000000001
v 1.895779 -0.13751000000000016 -2.621932
v 1.947227 -0.169464 0.134724
v 1.917116 -0.212468 0.134724
v 1.917116 -0.21246800000000016 -2.761336
v 1.947227 -0.16946400000000017 -2.761336
v 1.925039 -0.12188699999999998 0.134724
v 1.925039 -0.12188700000000016 -2.761336
v 1.872744 -0.11731100000000017 -2.761336
v 1.872744 -0.11731099999999998 0.134724
v 1.842635 -0.160314 0.134724
v 1.842635 -0.16031400000000018 -2.761336
v 1.86482 -0.207892 0.134724
v 1.86482 -0.20789200000000016 -2.761336
v 1.917116 -0.212468 0.134724
v 1.917116 -0.21246800000000016 -2.761336
v 1.961491 0.358925 -0.01627700000000002
v 1.93138 0.315922 -0.01627700000000002
v 1.93138 0.3159219999999998 -2.673323
v 1.961491 0.3589249999999998 -2.673323
v 1.939305 0.406501 -0.016277000000000024
v 1.939305 0.40650099999999983 -2.673323
v 1.887009 0.41107699999999986 -2.673323
v 1.887009 0.411077 -0.016277000000000024
v 1.856899 0.368076 -0.01627700000000002
v 1.856899 0.36807599999999985 -2.673323
v 1.879085 0.320498 -0.01627700000000002
v 1.879085 0.32049799999999984 -2.673323
v 1.93138 0.315922 -0.01627700000000002
v 1.93138 0.3159219999999998 -2.673323
v 1.894706 0.421153 0.09871399999999997
v 1.864595 0.378149 0.09871399999999997
v 1.864595 0.37814899999999985 -2.797347
v 1.894706 0.42115299999999983 -2.797347
v 1.872519 0.46873 0.09871399999999997
v 1.872519 0.4687299999999998 -2.797347
v 1.820223 0.47330599999999984 -2.797347
v 1.820223 0.473306 0.09871399999999997
v 1.790114 0.430304 0.09871399999999997
v 1.790114 0.43030399999999985 -2.797347
v 1.812299 0.382725 0.09871399999999997
v 1.812299 0.3827249999999998 -2.797347
v 1.864595 0.378149 0.09871399999999997
v 1.864595 0.37814899999999985 -2.797347
v 1.507022 0.378942 -0.277181
v 1.014503 0.464149 -0.28903000000000006
v 1.023701 0.464741 -0.3705300000000001
v 1.509133 0.380802 -0.35587
v 1.871392 0.386141 -0.313366
v 1.866418 0.389272 -0.389244
v 1.508788 0.416247 -0.274637
v 1.01627 0.501455 -0.28648300000000004
v 1.014503 0.464149 -0.28903000000000006
v 1.507022 0.378942 -0.277181
v 1.87316 0.423445 -0.310825
v 1.871392 0.386141 -0.313366
v -1.461472 0.418108 -0.353326
v -1.818757 0.426578 -0.386701
v -1.823739 0.423445 -0.310825
v -1.459367 0.416247 -0.274637
v -0.976041 0.502047 -0.36798700000000006
v -0.966847 0.501456 -0.28648300000000004
v -1.461472 0.418108 -0.353326
v -0.976041 0.502047 -0.36798700000000006
v -0.974278 0.464741 -0.3705300000000001
v -1.45971 0.380802 -0.35587
v -1.818757 0.426578 -0.386701
v -1.816994 0.389272 -0.389244
v -0.535075 0.418109 -0.378564
v -0.937434 0.445622 -0.353619
v -0.942414 0.442489 -0.277744
v -0.532968 0.416248 -0.299875
v -0.049644 0.485689 -0.3331970000000001
v -0.04045 0.485098 -0.25169300000000006
v -0.535075 0.418109 -0.378564
v -0.049644 0.485689 -0.3331970000000001
v -0.047881 0.448383 -0.33574
v -0.533313 0.380803 -0.381108
v -0.937434 0.445622 -0.353619
v -0.935672 0.408316 -0.356163
v 1.119831 0.421273 -0.016277000000000024
v 1.089721 0.378269 -0.016277000000000024
v 1.089721 0.37826899999999986 -2.673323
v 1.119831 0.42127299999999984 -2.673323
v 1.097646 0.468848 -0.016277000000000028
v 1.097646 0.4688479999999998 -2.673323
v 1.045349 0.47342399999999984 -2.673323
v 1.045349 0.473424 -0.016277000000000028
v 1.01524 0.430423 -0.016277000000000028
v 1.01524 0.43042299999999983 -2.673323
v 1.037425 0.382845 -0.016277000000000024
v 1.037425 0.3828449999999998 -2.673323
v 1.089721 0.378269 -0.016277000000000024
v 1.089721 0.37826899999999986 -2.673323
v 1.053046 0.483501 0.09871399999999997
v 1.022936 0.440497 0.09871399999999997
v 1.022936 0.44049699999999986 -2.797347
v 1.053046 0.48350099999999985 -2.797347
v 1.030859 0.531078 0.09871399999999997
v 1.030859 0.5310779999999998 -2.797347
v 0.978563 0.5356529999999998 -2.797347
v 0.978563 0.535653 0.09871399999999997
v 0.948455 0.492651 0.09871399999999997
v 0.948455 0.49265099999999984 -2.797347
v 0.970639 0.445072 0.09871399999999997
v 0.970639 0.44507199999999986 -2.797347
v 1.022936 0.440497 0.09871399999999997
v 1.022936 0.44049699999999986 -2.797347
v 0.599961 0.406096 -0.277181
v 0.051894 0.462778 -0.28903000000000006
v 0.062015 0.463899 -0.3705300000000001
v 0.602196 0.408076 -0.35587
v 1.001762 0.434303 -0.313366
v 0.996107 0.437142 -0.389244
v 0.599964 0.443452 -0.274637
v 0.051898 0.500135 -0.28648300000000004
v 0.051894 0.462778 -0.28903000000000006
v 0.599961 0.406096 -0.277181
v 1.001766 0.471658 -0.3108250000000001
v 1.001762 0.434303 -0.313366
v 1.850315 -0.111262 0.03511500000000001
v 1.895777 -0.032518 0.035115
v 1.850316 -0.058766 0.03511500000000001
v 1.94124 -0.111261 0.03511500000000001
v 1.941241 -0.058765 0.03511500000000001
v 1.895779 -0.13751 0.03511500000000001
v 1.86482 -0.207892 0.134724
v 1.872744 -0.11731099999999998 0.134724
v 1.842635 -0.160314 0.134724
v 1.947227 -0.169464 0.134724
v 1.925039 -0.12188699999999998 0.134724
v 1.917116 -0.212468 0.134724
v 1.879085 0.320498 -0.01627700000000002
v 1.887009 0.411077 -0.016277000000000024
v 1.856899 0.368076 -0.01627700000000002
v 1.961491 0.358925 -0.01627700000000002
v 1.939305 0.406501 -0.016277000000000024
v 1.93138 0.315922 -0.01627700000000002
v 1.812299 0.382725 0.09871399999999997
v 1.820223 0.473306 0.09871399999999997
v 1.790114 0.430304 0.09871399999999997
v 1.894706 0.421153 0.09871399999999997
v 1.872519 0.46873 0.09871399999999997
v 1.864595 0.378149 0.09871399999999997
v -1.846354 -0.032518 0.035115
v -1.800893 -0.111261 0.03511500000000001
v -1.800893 -0.058766 0.03511500000000001
v -1.891818 -0.11126 0.03511500000000001
v -1.846356 -0.137509 0.03511500000000001
v -1.89182 -0.058765 0.03511500000000001
v -1.823321 -0.11731099999999998 0.134724
v -1.815396 -0.207892 0.134724
v -1.793214 -0.160313 0.134724
v -1.897805 -0.169464 0.134724
v -1.867694 -0.212468 0.134724
v -1.875617 -0.12188699999999998 0.134724
v -1.837586 0.411077 -0.016277000000000024
v -1.829663 0.320498 -0.01627700000000002
v -1.807477 0.368076 -0.01627700000000002
v -1.912068 0.358925 -0.01627700000000002
v -1.881959 0.315922 -0.01627700000000002
v -1.889882 0.406501 -0.016277000000000024
v -1.7708 0.473306 0.09871399999999997
v -1.762875 0.382725 0.09871399999999997
v -1.740693 0.430304 0.09871399999999997
v -1.845284 0.421153 0.09871399999999997
v -1.815173 0.378149 0.09871399999999997
v -1.823096 0.46873 0.09871399999999997
v -0.935891 0.483129 0.09309799999999997
v -1.026816 0.483129 0.09309799999999997
v -0.981353 0.456881 0.09309799999999997
v -0.981353 0.561872 0.09309799999999997
v -1.026816 0.535625 0.09309799999999997
v -0.935891 0.535625 0.09309799999999997
v -0.919045 0.41605 0.332112
v -1.009972 0.416051 0.332112
v -0.964509 0.389803 0.332112
v -0.964509 0.494794 0.33211199999999996
v -1.009972 0.468547 0.33211199999999996
v -0.919045 0.468546 0.33211199999999996
v 0.117766 0.47977 -0.034343000000000026
v 0.026839 0.479773 -0.034343000000000026
v 0.072303 0.453523 -0.034343000000000026
v 0.072303 0.558514 -0.03434300000000003
v 0.026839 0.532269 -0.03434300000000003
v 0.117766 0.532266 -0.03434300000000003
v 0.007049 0.448766 0.09309799999999997
v -0.083877 0.448766 0.09309799999999997
v -0.038413 0.422518 0.09309799999999997
v -0.038413 0.527508 0.09309799999999997
v -0.083877 0.501261 0.09309799999999997
v 0.007049 0.501261 0.09309799999999997
v 0.08023 0.41605 0.332112
v -0.010697 0.416051 0.332112
v 0.034766 0.389803 0.332112
v 0.034766 0.494794 0.33211199999999996
v -0.010697 0.468547 0.33211199999999996
v 0.08023 0.468546 0.33211199999999996
v 1.037425 0.382845 -0.016277000000000024
v 1.045349 0.473424 -0.016277000000000028
v 1.01524 0.430423 -0.016277000000000028
v 1.119831 0.421273 -0.016277000000000024
v 1.097646 0.468848 -0.016277000000000028
v 1.089721 0.378269 -0.016277000000000024
v 0.970639 0.445072 0.09871399999999997
v 0.978563 0.535653 0.09871399999999997
v 0.948455 0.492651 0.09871399999999997
v 1.053046 0.483501 0.09871399999999997
v 1.030859 0.531078 0.09871399999999997
v 1.022936 0.440497 0.09871399999999997
vt 0.088117 0.174020
vt 0.910633 0.182353
vt 0.910633 0.502784
vt 0.088534 0.502784
vt 0.964535 0.520874
vt 0.993062 0.522904
vt 0.995521 0.872569
vt 0.962770 0.876171
vt 0.932946 0.517042
vt 0.963569 0.520853
vt 0.962770 0.873767
vt 0.932851 0.872773
vt 0.994792 0.518417
vt 0.932888 0.518351
vt 0.933119 0.874698
vt 0.994700 0.875343
vt 0.087834 0.496921
vt 0.100697 0.496921
vt 0.099218 0.177634
vt 0.087271 0.178057
vt -1.814896 0.972811
vt -1.814896 -0.027189
vt -0.814896 -0.027189
vt -0.814896 0.972811
vt 0.899699 0.531960
vt 0.912659 0.531960
vt 0.913743 0.146830
vt 0.900782 0.146830
vt 0.088291 0.175868
vt 0.088291 0.202465
vt 0.910919 0.201576
vt 0.911169 0.173312
vt 0.088117 0.174020
vt 0.088534 0.502784
vt 0.910633 0.502784
vt 0.910633 0.182353
vt 1.589559 0.345558
vt 1.588849 0.577982
vt 1.558956 0.588888
vt 1.557620 0.367727
vt 1.451856 0.345820
vt 1.452100 0.578244
vt 1.421917 0.578246
vt 1.421514 0.345821
vt 1.546414 0.589150
vt 1.511074 0.589150
vt 1.512035 0.367989
vt 1.547965 0.367986
vt 1.499118 0.589150
vt 1.466529 0.578063
vt 1.465433 0.345729
vt 1.497667 0.370581
vt 1.464337 0.113395
vt 1.466529 0.578063
vt 1.499118 0.589150
vt 1.496217 0.152013
vt 1.588849 0.577982
vt 1.590268 0.113133
vt 1.556285 0.146566
vt 1.558956 0.588888
vt 1.452100 0.578244
vt 1.451612 0.113395
vt 1.421111 0.113395
vt 1.421917 0.578246
vt 1.511074 0.589150
vt 1.546414 0.589150
vt 1.549515 0.146821
vt 1.512996 0.146828
vt 0.461761 0.118548
vt 0.493640 0.157166
vt 0.496542 0.594303
vt 0.463952 0.583216
vt 0.586273 0.583135
vt 0.556379 0.594041
vt 0.553709 0.151719
vt 0.587691 0.118286
vt 0.449524 0.583397
vt 0.419340 0.583399
vt 0.418535 0.118548
vt 0.449035 0.118548
vt 0.508498 0.594303
vt 0.510419 0.151981
vt 0.546939 0.151974
vt 0.543838 0.594303
vt 1.464337 0.113395
vt 1.466529 0.578063
vt 1.499118 0.589150
vt 1.496217 0.152013
vt 1.588849 0.577982
vt 1.590268 0.113133
vt 1.556285 0.146566
vt 1.558956 0.588888
vt 1.452100 0.578244
vt 1.451612 0.113395
vt 1.421111 0.113395
vt 1.421917 0.578246
vt 1.511074 0.589150
vt 1.546414 0.589150
vt 1.549515 0.146821
vt 1.512996 0.146828
vt 0.461761 0.118548
vt 0.493640 0.157166
vt 0.496542 0.594303
vt 0.463952 0.583216
vt 0.586273 0.583135
vt 0.556379 0.594041
vt 0.553709 0.151719
vt 0.587691 0.118286
vt 0.449524 0.583397
vt 0.419340 0.583399
vt 0.418535 0.118548
vt 0.449035 0.118548
vt 0.508498 0.594303
vt 0.510419 0.151981
vt 0.546939 0.151974
vt 0.543838 0.594303
vt 0.959567 0.988420
vt 0.955850 0.677856
vt 0.932541 0.677528
vt 0.936280 0.988310
vt 0.936280 0.988310
vt 0.932541 0.677528
vt 0.893171 0.679479
vt 0.899139 0.993813
vt 0.995259 0.678862
vt 0.955850 0.677856
vt 0.959567 0.988420
vt 0.996820 0.993245
vt 1.589559 0.345558
vt 1.557620 0.367727
vt 1.558956 0.588888
vt 1.588849 0.577982
vt 1.451856 0.345820
vt 1.421514 0.345821
vt 1.421917 0.578246
vt 1.452100 0.578244
vt 1.546414 0.589150
vt 1.547965 0.367986
vt 1.512035 0.367989
vt 1.511074 0.589150
vt 1.499118 0.589150
vt 1.497667 0.370581
vt 1.465433 0.345729
vt 1.466529 0.578063
vt 1.464337 0.113395
vt 1.496217 0.152013
vt 1.499118 0.589150
vt 1.466529 0.578063
vt 1.588849 0.577982
vt 1.558956 0.588888
vt 1.556285 0.146566
vt 1.590268 0.113133
vt 1.452100 0.578244
vt 1.421917 0.578246
vt 1.421111 0.113395
vt 1.451612 0.113395
vt 1.511074 0.589150
vt 1.512996 0.146828
vt 1.549515 0.146821
vt 1.546414 0.589150
vt 0.461761 0.118548
vt 0.463952 0.583216
vt 0.496542 0.594303
vt 0.493640 0.157166
vt 0.586273 0.583135
vt 0.587691 0.118286
vt 0.553709 0.151719
vt 0.556379 0.594041
vt 0.449524 0.583397
vt 0.449035 0.118548
vt 0.418535 0.118548
vt 0.419340 0.583399
vt 0.508498 0.594303
vt 0.543838 0.594303
vt 0.546939 0.151974
vt 0.510419 0.151981
vt 1.464337 0.113395
vt 1.496217 0.152013
vt 1.499118 0.589150
vt 1.466529 0.578063
vt 1.588849 0.577982
vt 1.558956 0.588888
vt 1.556285 0.146566
vt 1.590268 0.113133
vt 1.452100 0.578244
vt 1.421917 0.578246
vt 1.421111 0.113395
vt 1.451612 0.113395
vt 1.511074 0.589150
vt 1.512996 0.146828
vt 1.549515 0.146821
vt 1.546414 0.589150
vt 0.461761 0.118548
vt 0.463952 0.583216
vt 0.496542 0.594303
vt 0.493640 0.157166
vt 0.586273 0.583135
vt 0.587691 0.118286
vt 0.553709 0.151719
vt 0.556379 0.594041
vt 0.449524 0.583397
vt 0.449035 0.118548
vt 0.418535 0.118548
vt 0.419340 0.583399
vt 0.508498 0.594303
vt 0.543838 0.594303
vt 0.546939 0.151974
vt 0.510419 0.151981
vt 0.959567 0.988420
vt 0.936280 0.988310
vt 0.932541 0.677528
vt 0.955850 0.677856
vt 0.936280 0.988310
vt 0.899139 0.993813
vt 0.893171 0.679479
vt 0.932541 0.677528
vt 0.995259 0.678862
vt 0.996820 0.993245
vt 0.959567 0.988420
vt 0.955850 0.677856
vt 1.464337 0.113395
vt 1.496217 0.152013
vt 1.499118 0.589150
vt 1.466529 0.578063
vt 1.588849 0.577982
vt 1.558956 0.588888
vt 1.556285 0.146566
vt 1.590268 0.113133
vt 1.452100 0.578244
vt 1.421917 0.578246
vt 1.421111 0.113395
vt 1.451612 0.113395
vt 1.511074 0.589150
vt 1.512996 0.146828
vt 1.549515 0.146821
vt 1.546414 0.589150
vt 0.461761 0.118548
vt 0.463952 0.583216
vt 0.496542 0.594303
vt 0.493640 0.157166
vt 0.586273 0.583135
vt 0.587691 0.118286
vt 0.553709 0.151719
vt 0.556379 0.594041
vt 0.449524 0.583397
vt 0.449035 0.118548
vt 0.418535 0.118548
vt 0.419340 0.583399
vt 0.508498 0.594303
vt 0.543838 0.594303
vt 0.546939 0.151974
vt 0.510419 0.151981
vt 1.589559 0.345558
vt 1.588849 0.577982
vt 1.558956 0.588888
vt 1.557620 0.367727
vt 1.451856 0.345820
vt 1.452100 0.578244
vt 1.421917 0.578246
vt 1.421514 0.345821
vt 1.546414 0.589150
vt 1.511074 0.589150
vt 1.512035 0.367989
vt 1.547965 0.367986
vt 1.499118 0.589150
vt 1.466529 0.578063
vt 1.465433 0.345729
vt 1.497667 0.370581
vt 1.464337 0.113395
vt 1.466529 0.578063
vt 1.499118 0.589150
vt 1.496217 0.152013
vt 1.588849 0.577982
vt 1.590268 0.113133
vt 1.556285 0.146566
vt 1.558956 0.588888
vt 1.452100 0.578244
vt 1.451612 0.113395
vt 1.421111 0.113395
vt 1.421917 0.578246
vt 1.511074 0.589150
vt 1.546414 0.589150
vt 1.549515 0.146821
vt 1.512996 0.146828
vt 0.461761 0.118548
vt 0.493640 0.157166
vt 0.496542 0.594303
vt 0.463952 0.583216
vt 0.586273 0.583135
vt 0.556379 0.594041
vt 0.553709 0.151719
vt 0.587691 0.118286
vt 0.449524 0.583397
vt 0.419340 0.583399
vt 0.418535 0.118548
vt 0.449035 0.118548
vt 0.508498 0.594303
vt 0.510419 0.151981
vt 0.546939 0.151974
vt 0.543838 0.594303
vt 1.464337 0.113395
vt 1.496217 0.152013
vt 1.497667 0.370581
vt 1.465433 0.345729
vt 1.499118 0.589150
vt 1.466529 0.578063
vt 1.546414 0.589150
vt 1.511074 0.589150
vt 1.512035 0.367989
vt 1.547965 0.367986
vt 1.512996 0.146828
vt 1.549515 0.146821
vt 1.206762 0.989403
vt 1.206763 0.008272
vt 1.240013 0.008272
vt 1.240012 0.989403
vt 1.273262 0.008272
vt 1.273261 0.989403
vt 1.306510 0.989403
vt 1.306511 0.008272
vt 1.339760 0.008272
vt 1.339759 0.989403
vt 1.373009 0.008272
vt 1.373008 0.989403
vt 1.406258 0.008272
vt 1.406257 0.989403
vt 0.205596 1.310196
vt 0.205597 0.008059
vt 0.239673 0.008059
vt 0.239672 1.310196
vt 0.273748 0.008059
vt 0.273747 1.310196
vt 0.307823 1.310196
vt 0.307824 0.008059
vt 0.341899 0.008059
vt 0.341899 1.310196
vt 0.375975 0.008059
vt 0.375975 1.310196
vt 0.410051 0.008059
vt 0.410050 1.310196
vt 1.206762 0.989403
vt 1.206763 0.008272
vt 1.240013 0.008272
vt 1.240012 0.989403
vt 1.273262 0.008272
vt 1.273261 0.989403
vt 1.306510 0.989403
vt 1.306511 0.008272
vt 1.339760 0.008272
vt 1.339759 0.989403
vt 1.373009 0.008272
vt 1.373008 0.989403
vt 1.406258 0.008272
vt 1.406257 0.989403
vt 0.205596 1.310196
vt 0.205597 0.008059
vt 0.239673 0.008059
vt 0.239672 1.310196
vt 0.273748 0.008059
vt 0.273747 1.310196
vt 0.307823 1.310196
vt 0.307824 0.008059
vt 0.341899 0.008059
vt 0.341899 1.310196
vt 0.375975 0.008059
vt 0.375975 1.310196
vt 0.410051 0.008059
vt 0.410050 1.310196
vt 1.558956 0.588888
vt 1.588849 0.577982
vt 1.589559 0.345558
vt 1.557620 0.367727
vt 1.590268 0.113133
vt 1.556285 0.146566
vt 1.421917 0.578246
vt 1.452100 0.578244
vt 1.451856 0.345820
vt 1.421514 0.345821
vt 1.451612 0.113395
vt 1.421111 0.113395
vt 1.206762 0.989403
vt 1.206763 0.008272
vt 1.240013 0.008272
vt 1.240012 0.989403
vt 1.273262 0.008272
vt 1.273261 0.989403
vt 1.306510 0.989403
vt 1.306511 0.008272
vt 1.339760 0.008272
vt 1.339759 0.989403
vt 1.373009 0.008272
vt 1.373008 0.989403
vt 1.406258 0.008272
vt 1.406257 0.989403
vt 0.205596 1.310196
vt 0.205597 0.008059
vt 0.239673 0.008059
vt 0.239672 1.310196
vt 0.273748 0.008059
vt 0.273747 1.310196
vt 0.307823 1.310196
vt 0.307824 0.008059
vt 0.341899 0.008059
vt 0.341899 1.310196
vt 0.375975 0.008059
vt 0.375975 1.310196
vt 0.410051 0.008059
vt 0.410050 1.310196
vt 1.558956 0.588888
vt 1.588849 0.577982
vt 1.589559 0.345558
vt 1.557620 0.367727
vt 1.590268 0.113133
vt 1.556285 0.146566
vt 1.421917 0.578246
vt 1.452100 0.578244
vt 1.451856 0.345820
vt 1.421514 0.345821
vt 1.451612 0.113395
vt 1.421111 0.113395
vt 0.006702 0.989501
vt 0.006703 0.100583
vt 0.039952 0.100583
vt 0.039951 0.989501
vt 0.073201 0.100583
vt 0.073201 0.989501
vt 0.106450 0.989501
vt 0.106450 0.100583
vt 0.139699 0.100583
vt 0.139698 0.989501
vt 0.172948 0.100583
vt 0.172948 0.989501
vt 0.206197 0.100583
vt 0.206196 0.989501
vt 1.206762 0.989403
vt 1.206763 0.008272
vt 1.240013 0.008272
vt 1.240012 0.989403
vt 1.273262 0.008272
vt 1.273261 0.989403
vt 1.306510 0.989403
vt 1.306511 0.008272
vt 1.339760 0.008272
vt 1.339759 0.989403
vt 1.373009 0.008272
vt 1.373008 0.989403
vt 1.406258 0.008272
vt 1.406257 0.989403
vt 0.205596 0.990443
vt 0.205597 0.008059
vt 0.239673 0.008059
vt 0.239672 0.990443
vt 0.273748 0.008059
vt 0.273747 0.990443
vt 0.307823 0.990443
vt 0.307824 0.008059
vt 0.341899 0.008059
vt 0.341899 0.990443
vt 0.375975 0.008059
vt 0.375975 0.990443
vt 0.410051 0.008059
vt 0.410050 0.990443
vt 1.464337 0.113395
vt 1.496217 0.152013
vt 1.497667 0.370581
vt 1.465433 0.345729
vt 1.499118 0.589150
vt 1.466529 0.578063
vt 1.546414 0.589150
vt 1.511074 0.589150
vt 1.512035 0.367989
vt 1.547965 0.367986
vt 1.512996 0.146828
vt 1.549515 0.146821
vt 1.240013 0.008272
vt 1.206763 0.008272
vt 1.206762 0.989403
vt 1.240012 0.989403
vt 1.273262 0.008272
vt 1.273261 0.989403
vt 1.306510 0.989403
vt 1.306511 0.008272
vt 1.339760 0.008272
vt 1.339759 0.989403
vt 1.373009 0.008272
vt 1.373008 0.989403
vt 1.406258 0.008272
vt 1.406257 0.989403
vt 0.239673 0.008059
vt 0.205597 0.008059
vt 0.205596 0.990443
vt 0.239672 0.990443
vt 0.273748 0.008059
vt 0.273747 0.990443
vt 0.307823 0.990443
vt 0.307824 0.008059
vt 0.341899 0.008059
vt 0.341899 0.990443
vt 0.375975 0.008059
vt 0.375975 0.990443
vt 0.410051 0.008059
vt 0.410050 0.990443
vt 1.240013 0.008272
vt 1.206763 0.008272
vt 1.206762 0.989403
vt 1.240012 0.989403
vt 1.273262 0.008272
vt 1.273261 0.989403
vt 1.306510 0.989403
vt 1.306511 0.008272
vt 1.339760 0.008272
vt 1.339759 0.989403
vt 1.373009 0.008272
vt 1.373008 0.989403
vt 1.406258 0.008272
vt 1.406257 0.989403
vt 0.239673 0.008059
vt 0.205597 0.008059
vt 0.205596 0.990443
vt 0.239672 0.990443
vt 0.273748 0.008059
vt 0.273747 0.990443
vt 0.307823 0.990443
vt 0.307824 0.008059
vt 0.341899 0.008059
vt 0.341899 0.990443
vt 0.375975 0.008059
vt 0.375975 0.990443
vt 0.410051 0.008059
vt 0.410050 0.990443
vt 1.589559 0.345558
vt 1.588849 0.577982
vt 1.558956 0.588888
vt 1.557620 0.367727
vt 1.590268 0.113133
vt 1.556285 0.146566
vt 1.451856 0.345820
vt 1.452100 0.578244
vt 1.421917 0.578246
vt 1.421514 0.345821
vt 1.451612 0.113395
vt 1.421111 0.113395
vt 1.497667 0.370581
vt 1.496217 0.152013
vt 1.464337 0.113395
vt 1.465433 0.345729
vt 1.499118 0.589150
vt 1.466529 0.578063
vt 1.512035 0.367989
vt 1.511074 0.589150
vt 1.546414 0.589150
vt 1.547965 0.367986
vt 1.512996 0.146828
vt 1.549515 0.146821
vt 1.497667 0.370581
vt 1.496217 0.152013
vt 1.464337 0.113395
vt 1.465433 0.345729
vt 1.499118 0.589150
vt 1.466529 0.578063
vt 1.512035 0.367989
vt 1.511074 0.589150
vt 1.546414 0.589150
vt 1.547965 0.367986
vt 1.512996 0.146828
vt 1.549515 0.146821
vt 1.240013 0.008272
vt 1.206763 0.008272
vt 1.206762 0.989403
vt 1.240012 0.989403
vt 1.273262 0.008272
vt 1.273261 0.989403
vt 1.306510 0.989403
vt 1.306511 0.008272
vt 1.339760 0.008272
vt 1.339759 0.989403
vt 1.373009 0.008272
vt 1.373008 0.989403
vt 1.406258 0.008272
vt 1.406257 0.989403
vt 0.239673 0.008059
vt 0.205597 0.008059
vt 0.205596 0.990443
vt 0.239672 0.990443
vt 0.273748 0.008059
vt 0.273747 0.990443
vt 0.307823 0.990443
vt 0.307824 0.008059
vt 0.341899 0.008059
vt 0.341899 0.990443
vt 0.375975 0.008059
vt 0.375975 0.990443
vt 0.410051 0.008059
vt 0.410050 0.990443
vt 1.589559 0.345558
vt 1.588849 0.577982
vt 1.558956 0.588888
vt 1.557620 0.367727
vt 1.590268 0.113133
vt 1.556285 0.146566
vt 1.451856 0.345820
vt 1.452100 0.578244
vt 1.421917 0.578246
vt 1.421514 0.345821
vt 1.451612 0.113395
vt 1.421111 0.113395
vt 0.028759 0.079051
vt 0.028759 0.028639
vt 0.014206 0.053845
vt 0.072417 0.053845
vt 0.057864 0.028639
vt 0.057864 0.079051
vt 1.018527 0.034814
vt 1.068938 0.034814
vt 1.043733 0.020261
vt 1.043733 0.078471
vt 1.068938 0.063919
vt 1.018527 0.063919
vt 0.028759 0.079051
vt 0.028759 0.028639
vt 0.014206 0.053845
vt 0.072417 0.053845
vt 0.057864 0.028639
vt 0.057864 0.079051
vt 1.018527 0.034814
vt 1.068938 0.034814
vt 1.043733 0.020261
vt 1.043733 0.078471
vt 1.068938 0.063919
vt 1.018527 0.063919
vt 0.028759 0.028639
vt 0.028759 0.079051
vt 0.014206 0.053845
vt 0.072417 0.053845
vt 0.057864 0.079051
vt 0.057864 0.028639
vt 1.068938 0.034814
vt 1.018527 0.034814
vt 1.043733 0.020261
vt 1.043733 0.078471
vt 1.018527 0.063919
vt 1.068938 0.063919
vt 0.028759 0.028639
vt 0.028759 0.079051
vt 0.014206 0.053845
vt 0.072417 0.053845
vt 0.057864 0.079051
vt 0.057864 0.028639
vt 1.068938 0.034814
vt 1.018527 0.034814
vt 1.043733 0.020261
vt 1.043733 0.078471
vt 1.018527 0.063919
vt 1.068938 0.063919
vt 0.028759 0.028639
vt 0.028759 0.079051
vt 0.014206 0.053845
vt 0.072417 0.053845
vt 0.057864 0.079051
vt 0.057864 0.028639
vt 1.068938 0.034814
vt 1.018527 0.034814
vt 1.043733 0.020261
vt 1.043733 0.078471
vt 1.018527 0.063919
vt 1.068938 0.063919
vt 0.098448 0.041312
vt 0.098448 0.091724
vt 0.083896 0.066518
vt 0.142106 0.066518
vt 0.127553 0.091724
vt 0.127553 0.041312
vt 0.028759 0.028639
vt 0.028759 0.079051
vt 0.014206 0.053845
vt 0.072417 0.053845
vt 0.057864 0.079051
vt 0.057864 0.028639
vt 1.068938 0.034814
vt 1.018527 0.034814
vt 1.043733 0.020261
vt 1.043733 0.078471
vt 1.018527 0.063919
vt 1.068938 0.063919
vt 0.028759 0.079051
vt 0.028759 0.028639
vt 0.014206 0.053845
vt 0.072417 0.053845
vt 0.057864 0.028639
vt 0.057864 0.079051
vt 1.018527 0.034814
vt 1.068938 0.034814
vt 1.043733 0.020261
vt 1.043733 0.078471
vt 1.068938 0.063919
vt 1.018527 0.063919
vn 0 -6.123233995736766E-17 -1
vn 0 -6.123233995736766E-17 -1
vn 0 -6.123233995736766E-17 -1
vn 0 -6.123233995736766E-17 -1
vn 0.088084 0.517471 0.851155
vn 0.088084 0.517471 0.851155
vn 0.088084 0.517471 0.851155
vn 0.088084 0.517471 0.851155
vn 0.214696 0.47710700000000006 0.852218
vn 0.18259 0.505011 0.843578
vn 0.214696 0.47710700000000006 0.852218
vn 0.246397 0.44830400000000004 0.859251
vn -0.114616 0.46055300000000005 0.880201
vn -0.114616 0.46055300000000005 0.880201
vn -0.114616 0.46055300000000005 0.880201
vn -0.114616 0.46055300000000005 0.880201
vn -1 0 0
vn -1 0 0
vn -1 0 0
vn -1 0 0
vn -0 -1 6.123233995736766E-17
vn -0 -1 6.123233995736766E-17
vn -0 -1 6.123233995736766E-17
vn -0 -1 6.123233995736766E-17
vn 1 0 0
vn 1 0 0
vn 1 0 0
vn 1 0 0
vn 0 1 -6.123233995736766E-17
vn 0 1 -6.123233995736766E-17
vn 0 1 -6.123233995736766E-17
vn 0 1 -6.123233995736766E-17
vn 0 6.123233995736766E-17 1
vn 0 6.123233995736766E-17 1
vn 0 6.123233995736766E-17 1
vn 0 6.123233995736766E-17 1
vn -0.985132 0.171297 0.01311699999999999
vn -0.985128 0.171262 0.01389699999999999
vn -0.985132 0.171297 0.01311699999999999
vn -0.985136 0.171332 0.01233699999999999
vn -0.066364 -0.19737799999999994 0.978079
vn -0.066408 -0.19737299999999994 0.978077
vn -0.066364 -0.19737799999999994 0.978079
vn -0.066321 -0.19738299999999995 0.978081
vn 0.066023 0.19143799999999994 -0.979282
vn 0.066025 0.19143799999999994 -0.979281
vn 0.066023 0.19143799999999994 -0.979282
vn 0.06602 0.19143899999999994 -0.979282
vn 0.985132 -0.171298 -0.01311899999999999
vn 0.985127 -0.171263 -0.01390499999999999
vn 0.985132 -0.171298 -0.01311899999999999
vn 0.985136 -0.171333 -0.012331999999999989
vn 0.998397 -0.049242 0.027915000000000002
vn 0.993788 -0.102463 0.043432000000000005
vn 0.998397 -0.049242 0.027915000000000002
vn 0.999916 0.004131000000000001 0.012312
vn -0.998086 0.054488 -0.029252000000000004
vn -0.999859 0.010885 -0.012775
vn -0.998086 0.054488 -0.029252000000000004
vn -0.994141 0.097972 -0.045666000000000005
vn -0.150705 -0.937687 0.31309900000000007
vn -0.150645 -0.937695 0.3131050000000001
vn -0.150705 -0.937687 0.31309900000000007
vn -0.150765 -0.937679 0.31309400000000004
vn 0.150793 0.94009 -0.30576500000000006
vn 0.150821 0.940087 -0.30576200000000003
vn 0.150793 0.94009 -0.30576500000000006
vn 0.150765 0.940094 -0.30576700000000007
vn 0.999147 0.039744 0.011180999999999998
vn 0.997338 0.070273 0.019466999999999998
vn 0.999147 0.039744 0.011180999999999998
vn 0.999954 0.009174 0.0028829999999999997
vn -0.99928 -0.036468 -0.010435999999999999
vn -0.999931 -0.011627 -0.0016509999999999993
vn -0.99928 -0.036468 -0.010435999999999999
vn -0.997936 -0.061283 -0.019213999999999995
vn 0.015142 0.954116 0.29905399999999993
vn 0.015112 0.954117 0.29905299999999996
vn 0.015142 0.954116 0.29905399999999993
vn 0.015171 0.954115 0.29905499999999996
vn -0.015497 -0.956738 -0.29053899999999994
vn -0.015497 -0.956738 -0.29053899999999994
vn -0.015497 -0.956738 -0.29053899999999994
vn -0.015497 -0.956738 -0.29053899999999994
vn 0.073744 0.996872 0.028428999999999937
vn 0.103223 0.993726 0.04305099999999994
vn 0.073744 0.996872 0.028428999999999937
vn 0.044184 0.998929 0.01377499999999994
vn -0.075086 -0.996744 -0.029378999999999936
vn -0.050343 -0.998634 -0.013962999999999939
vn -0.075086 -0.996744 -0.029378999999999936
vn -0.099765 -0.994003 -0.04476899999999994
vn 0.866262 -0.14713999999999997 0.477431
vn 0.866269 -0.14707599999999998 0.477437
vn 0.866262 -0.14713999999999997 0.477431
vn 0.866254 -0.14720499999999997 0.477425
vn -0.863563 0.14699099999999998 -0.48234
vn -0.86356 0.14701599999999998 -0.482338
vn -0.863563 0.14699099999999998 -0.48234
vn -0.863566 0.14696499999999998 -0.482343
vn -0.036885 0.999281 0.008810999999999939
vn -0.055915 0.998253 0.019082999999999937
vn -0.036885 0.999281 0.008810999999999939
vn -0.017839 0.99984 -0.001465000000000061
vn 0.036147 -0.999313 -0.00816799999999994
vn 0.020168 -0.999793 0.0026350000000000613
vn 0.036147 -0.999313 -0.00816799999999994
vn 0.052113 -0.998461 -0.018967999999999936
vn -0.859126 0.0035400000000000314 0.511752
vn -0.859127 0.0035010000000000314 0.511751
vn -0.859126 0.0035400000000000314 0.511752
vn -0.859125 0.0035780000000000312 0.511753
vn 0.854894 -0.0030580000000000316 -0.518794
vn 0.854894 -0.0030580000000000316 -0.518794
vn 0.854894 -0.0030580000000000316 -0.518794
vn 0.854894 -0.0030580000000000316 -0.518794
vn -0.000346 -0.01190299999999994 0.999929
vn -0.000513 -0.01191299999999994 0.999929
vn -0.000346 -0.01190299999999994 0.999929
vn -0.000179 -0.01189299999999994 0.999929
vn -0.999849 0.017246 0.0020299999999999993
vn -0.999854 0.01709 0.0006759999999999989
vn -0.999849 0.017246 0.0020299999999999993
vn -0.999843 0.017402 0.003383999999999999
vn 0.999849 -0.017224 -0.0022199999999999993
vn 0.999855 -0.017046 -0.0006769999999999989
vn 0.999849 -0.017224 -0.0022199999999999993
vn 0.999842 -0.017402 -0.003763999999999999
vn 0.985132 0.171299 0.013110999999999989
vn 0.985136 0.171334 0.012324999999999989
vn 0.985132 0.171299 0.013110999999999989
vn 0.985127 0.171264 0.01389799999999999
vn 0.066365 -0.19737799999999994 0.978079
vn 0.066319 -0.19738299999999995 0.978081
vn 0.066365 -0.19737799999999994 0.978079
vn 0.066411 -0.19737299999999994 0.978077
vn -0.066024 0.19143799999999994 -0.979281
vn -0.06602 0.19143899999999994 -0.979282
vn -0.066024 0.19143799999999994 -0.979281
vn -0.066028 0.19143799999999994 -0.979281
vn -0.985132 -0.171298 -0.01311899999999999
vn -0.985136 -0.171333 -0.012331999999999989
vn -0.985132 -0.171298 -0.01311899999999999
vn -0.985127 -0.171263 -0.01390499999999999
vn -0.998397 -0.049243 0.027915000000000002
vn -0.999916 0.004129000000000001 0.012312
vn -0.998397 -0.049243 0.027915000000000002
vn -0.993788 -0.102463 0.043432000000000005
vn 0.998085 0.054504 -0.029257000000000002
vn 0.994139 0.097986 -0.04567000000000001
vn 0.998085 0.054504 -0.029257000000000002
vn 0.999859 0.010902 -0.012781
vn 0.150701 -0.937688 0.31310000000000004
vn 0.150762 -0.93768 0.31309400000000004
vn 0.150701 -0.937688 0.31310000000000004
vn 0.15064 -0.937695 0.31310600000000005
vn -0.150791 0.94009 -0.30576500000000006
vn -0.150762 0.940094 -0.30576800000000004
vn -0.150791 0.94009 -0.30576500000000006
vn -0.15082 0.940087 -0.30576200000000003
vn -0.999147 0.039763 0.011185999999999998
vn -0.999954 0.00919 0.0028869999999999994
vn -0.999147 0.039763 0.011185999999999998
vn -0.997336 0.070295 0.019472999999999997
vn 0.999281 -0.036449 -0.010430999999999998
vn 0.997937 -0.061262 -0.019207999999999996
vn 0.999281 -0.036449 -0.010430999999999998
vn 0.999931 -0.011612 -0.0016469999999999994
vn -0.015141 0.954116 0.29905399999999993
vn -0.015171 0.954115 0.29905499999999996
vn -0.015141 0.954116 0.29905399999999993
vn -0.015112 0.954117 0.29905299999999996
vn 0.015497 -0.956738 -0.29053899999999994
vn 0.015497 -0.956738 -0.29053899999999994
vn 0.015497 -0.956738 -0.29053899999999994
vn 0.015497 -0.956738 -0.29053899999999994
vn -0.124419 0.991998 0.021442999999999938
vn -0.113763 0.993382 0.015828999999999937
vn -0.124419 0.991998 0.021442999999999938
vn -0.135056 0.990469 0.02705299999999994
vn 0.124854 -0.991936 -0.021794999999999936
vn 0.133765 -0.990626 -0.02769299999999994
vn 0.124854 -0.991936 -0.021794999999999936
vn 0.115927 -0.993131 -0.015894999999999937
vn -0.853883 -0.14626599999999998 0.499491
vn -0.853872 -0.14634299999999997 0.499485
vn -0.853883 -0.14626599999999998 0.499491
vn -0.853893 -0.14618799999999998 0.499496
vn 0.850213 0.14601799999999998 -0.505783
vn 0.850216 0.14599299999999998 -0.505785
vn 0.850213 0.14601799999999998 -0.505783
vn 0.85021 0.14604299999999998 -0.505782
vn -0.014502 0.999761 0.016345999999999937
vn -0.015988 0.999752 0.015504999999999939
vn -0.014502 0.999761 0.016345999999999937
vn -0.013016 0.999768 0.017185999999999937
vn 0.014561 -0.999761 -0.016289999999999936
vn 0.01332 -0.999764 -0.01716699999999994
vn 0.014561 -0.999761 -0.016289999999999936
vn 0.015801 -0.999756 -0.015412999999999939
vn 0.848696 0.0025380000000000324 0.528874
vn 0.848695 0.0025900000000000324 0.528877
vn 0.848696 0.0025380000000000324 0.528874
vn 0.848698 0.0024860000000000325 0.528872
vn -0.84366 -0.001981000000000033 -0.536874
vn -0.84366 -0.001981000000000033 -0.536874
vn -0.84366 -0.001981000000000033 -0.536874
vn -0.84366 -0.001981000000000033 -0.536874
vn 0.000346 -0.01190299999999994 0.999929
vn 0.000179 -0.01189299999999994 0.999929
vn 0.000346 -0.01190299999999994 0.999929
vn 0.000513 -0.01191299999999994 0.999929
vn 0.999849 0.017245 0.0020369999999999993
vn 0.999843 0.017402 0.003397999999999999
vn 0.999849 0.017245 0.0020369999999999993
vn 0.999854 0.017088 0.0006759999999999989
vn -0.999849 -0.017224 -0.002207999999999999
vn -0.999842 -0.017403 -0.003763999999999999
vn -0.999849 -0.017224 -0.002207999999999999
vn -0.999855 -0.017044 -0.0006509999999999989
vn -0.027383 0.998972 0.03613099999999994
vn 0.014172 0.999828 0.01200499999999994
vn -0.027383 0.998972 0.03613099999999994
vn -0.068875 0.995809 0.06017499999999994
vn 0.028736 -0.998881 -0.03755199999999994
vn 0.063603 -0.995999 -0.06277999999999995
vn 0.028736 -0.998881 -0.03755199999999994
vn -0.006184 -0.999906 -0.01225499999999994
vn -0.83472 -0.14477899999999996 0.531301
vn -0.834714 -0.14484499999999997 0.531293
vn -0.83472 -0.14477899999999996 0.531301
vn -0.834727 -0.14471399999999998 0.531309
vn 0.829579 0.14440399999999998 -0.539395
vn 0.829581 0.14437899999999998 -0.539398
vn 0.829579 0.14440399999999998 -0.539395
vn 0.829576 0.14442799999999997 -0.539392
vn -0.014501 0.999761 0.016345999999999937
vn -0.015988 0.999752 0.015504999999999939
vn -0.014501 0.999761 0.016345999999999937
vn -0.013014 0.999768 0.017185999999999937
vn 0.01456 -0.999761 -0.016289999999999936
vn 0.013319 -0.999764 -0.01716699999999994
vn 0.01456 -0.999761 -0.016289999999999936
vn 0.015801 -0.999756 -0.015412999999999939
vn 0.848697 0.0025250000000000324 0.528874
vn 0.848695 0.0025640000000000324 0.528876
vn 0.848697 0.0025250000000000324 0.528874
vn 0.848698 0.0024860000000000325 0.528872
vn -0.84366 -0.001981000000000033 -0.536874
vn -0.84366 -0.001981000000000033 -0.536874
vn -0.84366 -0.001981000000000033 -0.536874
vn -0.84366 -0.001981000000000033 -0.536874
vn -0.990437 0.137208 0.014457999999999992
vn -0.990429 0.137169 0.01531899999999999
vn -0.990437 0.137208 0.014457999999999992
vn -0.990444 0.137246 0.013595999999999992
vn -0.049681 -0.20032299999999995 0.978469
vn -0.049719 -0.20031999999999994 0.978468
vn -0.049681 -0.20032299999999995 0.978469
vn -0.049643 -0.20032499999999995 0.978471
vn 0.049682 0.19437199999999993 -0.979669
vn 0.049685 0.19437199999999993 -0.979669
vn 0.049682 0.19437199999999993 -0.979669
vn 0.04968 0.19437199999999993 -0.979669
vn 0.990436 -0.137211 -0.014457999999999992
vn 0.990429 -0.137172 -0.015335999999999992
vn 0.990436 -0.137211 -0.014457999999999992
vn 0.990443 -0.13725 -0.013578999999999992
vn 0.060736 0.997923 0.021475999999999936
vn 0.070456 0.997147 0.027099999999999937
vn 0.060736 0.997923 0.021475999999999936
vn 0.051008 0.998572 0.015848999999999936
vn -0.061133 -0.997891 -0.021829999999999936
vn -0.052983 -0.998469 -0.015916999999999938
vn -0.061133 -0.997891 -0.021829999999999936
vn -0.069278 -0.997212 -0.02773999999999994
vn 0.836417 -0.11351799999999997 0.536209
vn 0.836423 -0.11345299999999997 0.536214
vn 0.836417 -0.11351799999999997 0.536209
vn 0.836412 -0.11358399999999998 0.536204
vn -0.8323 0.11336199999999998 -0.54261
vn -0.832299 0.11337399999999997 -0.542609
vn -0.8323 0.11336199999999998 -0.54261
vn -0.832301 0.11334999999999998 -0.542611
vn -0.039068 0.999103 0.016342999999999937
vn -0.040414 0.999035 0.017184999999999936
vn -0.039068 0.999103 0.016342999999999937
vn -0.037722 0.999168 0.01549999999999994
vn 0.039019 -0.999106 -0.01628899999999994
vn 0.037897 -0.999163 -0.01541199999999994
vn 0.039019 -0.999106 -0.01628899999999994
vn 0.04014 -0.999047 -0.01716699999999994
vn -0.822575 -0.04025799999999997 0.56723
vn -0.822575 -0.04026599999999997 0.567229
vn -0.822575 -0.04025799999999997 0.56723
vn -0.822575 -0.04025099999999997 0.56723
vn 0.816938 0.040567999999999965 -0.575298
vn 0.816937 0.040573999999999964 -0.575297
vn 0.816938 0.040567999999999965 -0.575298
vn 0.816938 0.040561999999999966 -0.575298
vn -0.018576 0.999287 0.03285999999999994
vn -0.019706 0.998901 0.042536999999999936
vn 0.044294 0.998528 0.03131299999999994
vn 0.107709 0.993846 0.025876999999999938
vn 0.169652 0.985132 0.02707299999999994
vn 0.1698 0.985128 0.02629999999999994
vn 0.041525 0.06602199999999994 -0.996954
vn 0.041525 0.06602199999999994 -0.996954
vn -0.003811 0.06821199999999994 -0.997664
vn -0.049233 0.07026599999999994 -0.996313
vn -0.094459 0.07216999999999994 -0.992909
vn -0.094459 0.07216999999999994 -0.992909
vn -0.189006 -0.981976 6.012868826197606E-17
vn 0.188969 -0.981983 6.012911688835577E-17
vn -0.755937 -0.654645 4.008544519139095E-17
vn -0.944906 -0.327343 2.0043977858664602E-17
vn -0.866023 0.500004 -3.061641490804366E-17
vn -0.866023 0.500004 -3.061641490804366E-17
vn 2.8E-05 1 -6.123233995736766E-17
vn 2.8E-05 1 -6.123233995736766E-17
vn 0.755934 0.654647 -4.0085567656070865E-17
vn 0.944912 0.327324 -2.004281444420541E-17
vn 0.94491 -0.327329 2.0043120605905197E-17
vn 0.755926 -0.654658 4.0086241211810394E-17
vn 0.188969 -0.981983 6.012911688835577E-17
vn -0.189006 -0.981976 6.012868826197606E-17
vn -0.586282 -0.810107 4.9604747225843247E-17
vn -0.243725 -0.969844 5.938581751361329E-17
vn -0.961778 -0.273831 1.6767312882865942E-17
vn -0.994711 0.102713 -6.289357334041104E-18
vn -0.573561 0.819163 -5.0159267296497165E-17
vn -0.573561 0.819163 -5.0159267296497165E-17
vn 0.422635 0.9063 -5.549486970336231E-17
vn 0.422635 0.9063 -5.549486970336231E-17
vn 0.961777 0.273835 -1.6767557812225774E-17
vn 0.994718 -0.102643 6.2850710702440886E-18
vn 0.718081 -0.69596 4.26152593167296E-17
vn 0.408457 -0.912778 5.589153280160614E-17
vn -0.243725 -0.969844 5.938581751361329E-17
vn -0.586282 -0.810107 4.9604747225843247E-17
vn -0.586292 -0.8101 4.960431859946355E-17
vn -0.243728 -0.969844 5.938581751361329E-17
vn -0.96178 -0.273824 1.6766884256486243E-17
vn -0.994712 0.102701 -6.288622545961616E-18
vn -0.573571 0.819156 -5.0158838670117465E-17
vn -0.573571 0.819156 -5.0158838670117465E-17
vn 0.422617 0.906308 -5.549535956208197E-17
vn 0.422617 0.906308 -5.549535956208197E-17
vn 0.961774 0.273843 -1.6768047670945434E-17
vn 0.994714 -0.102684 6.2875815961823406E-18
vn 0.718045 -0.695997 4.261752491330802E-17
vn 0.40844 -0.912785 5.589196142798584E-17
vn -0.243728 -0.969844 5.938581751361329E-17
vn -0.586292 -0.8101 4.960431859946355E-17
vn -0.586282 -0.810107 4.9604747225843247E-17
vn -0.243725 -0.969844 5.938581751361329E-17
vn -0.961778 -0.273831 1.6767312882865942E-17
vn -0.994711 0.102713 -6.289357334041104E-18
vn -0.573561 0.819163 -5.0159267296497165E-17
vn -0.573561 0.819163 -5.0159267296497165E-17
vn 0.422635 0.9063 -5.549486970336231E-17
vn 0.422635 0.9063 -5.549486970336231E-17
vn 0.961777 0.273835 -1.6767557812225774E-17
vn 0.994718 -0.102643 6.2850710702440886E-18
vn 0.718081 -0.69596 4.26152593167296E-17
vn 0.408457 -0.912778 5.589153280160614E-17
vn -0.243725 -0.969844 5.938581751361329E-17
vn -0.586282 -0.810107 4.9604747225843247E-17
vn 0.169651 -0.985132 -0.02707299999999994
vn 0.169798 -0.985128 -0.02630899999999994
vn 0.107707 -0.993846 -0.025872999999999938
vn 0.044292 -0.998528 -0.031295999999999935
vn -0.01858 -0.999288 -0.03283999999999994
vn -0.019709 -0.998902 -0.042508999999999936
vn 0.035468 -0.06636199999999995 0.997165
vn 0.035472 -0.06640099999999995 0.997162
vn -0.009704 -0.06851799999999994 0.997603
vn -0.054947 -0.07050199999999994 0.995997
vn -0.099984 -0.07237499999999994 0.992353
vn -0.09998 -0.07234099999999995 0.992356
vn -0.755918 0.654666 -4.0086731070530056E-17
vn -0.944909 0.327333 -2.0043365535265028E-17
vn -0.188967 0.981983 -6.012911688835577E-17
vn 0.188986 0.98198 -6.012893319133589E-17
vn 0.866024 0.500002 -3.0616292443363744E-17
vn 0.866024 0.500002 -3.0616292443363744E-17
vn 0.866028 -0.499995 3.0615863816984045E-17
vn 0.866028 -0.499995 3.0615863816984045E-17
vn 0.188992 -0.981979 6.012887195899595E-17
vn -0.188974 -0.981982 6.012905565601582E-17
vn -0.755926 -0.654657 4.008617997947044E-17
vn -0.944911 -0.327329 2.0043120605905197E-17
vn -0.944909 0.327333 -2.0043365535265028E-17
vn -0.755918 0.654666 -4.0086731070530056E-17
vn -0.755918 0.654666 -4.0086731070530056E-17
vn -0.944909 0.327333 -2.0043365535265028E-17
vn -0.188968 0.981983 -6.012911688835577E-17
vn 0.188984 0.98198 -6.012893319133589E-17
vn 0.866024 0.500003 -3.06163536757037E-17
vn 0.866024 0.500003 -3.06163536757037E-17
vn 0.86602 -0.50001 3.06167823020834E-17
vn 0.86602 -0.50001 3.06167823020834E-17
vn 0.188968 -0.981983 6.012911688835577E-17
vn -0.188984 -0.98198 6.012893319133589E-17
vn -0.755926 -0.654657 4.008617997947044E-17
vn -0.944911 -0.327329 2.0043120605905197E-17
vn -0.944909 0.327333 -2.0043365535265028E-17
vn -0.755918 0.654666 -4.0086731070530056E-17
vn 0.140473 -0.989766 -0.02510899999999994
vn 0.140619 -0.989796 -0.023049999999999942
vn 0.072282 -0.997092 -0.024133999999999937
vn 0.001418 -0.999495 -0.031747999999999936
vn -0.068052 -0.997109 -0.033806999999999934
vn -0.070971 -0.996428 -0.04576799999999994
vn -0.087144 -0.07192399999999995 0.993596
vn -0.087141 -0.07196199999999994 0.993593
vn -0.041629 -0.06996599999999994 0.99668
vn 0.004072 -0.06781899999999995 0.997689
vn 0.049668 -0.06557299999999995 0.996611
vn 0.049674 -0.06553299999999994 0.996613
vn -0.755907 0.654679 -4.0087527090949505E-17
vn -0.944906 0.327342 -2.0043916626324645E-17
vn -0.188952 0.981986 -6.012930058537565E-17
vn 0.188988 0.981979 -6.012887195899595E-17
vn 0.866024 0.500003 -3.06163536757037E-17
vn 0.866024 0.500003 -3.06163536757037E-17
vn 0.86602 -0.50001 3.06167823020834E-17
vn 0.86602 -0.50001 3.06167823020834E-17
vn 0.188959 -0.981985 6.012923935303568E-17
vn -0.189 -0.981977 6.012874949431602E-17
vn -0.755937 -0.654645 4.008544519139095E-17
vn -0.944912 -0.327324 2.004281444420541E-17
vn -0.944906 0.327342 -2.0043916626324645E-17
vn -0.755907 0.654679 -4.0087527090949505E-17
vn -0.755918 0.654666 -4.0086731070530056E-17
vn -0.944909 0.327333 -2.0043365535265028E-17
vn -0.188967 0.981983 -6.012911688835577E-17
vn 0.188986 0.98198 -6.012893319133589E-17
vn 0.866024 0.500002 -3.0616292443363744E-17
vn 0.866024 0.500002 -3.0616292443363744E-17
vn 0.866028 -0.499995 3.0615863816984045E-17
vn 0.866028 -0.499995 3.0615863816984045E-17
vn 0.188992 -0.981979 6.012887195899595E-17
vn -0.188974 -0.981982 6.012905565601582E-17
vn -0.755926 -0.654657 4.008617997947044E-17
vn -0.944911 -0.327329 2.0043120605905197E-17
vn -0.944909 0.327333 -2.0043365535265028E-17
vn -0.755918 0.654666 -4.0086731070530056E-17
vn -0.755918 0.654666 -4.0086731070530056E-17
vn -0.944909 0.327333 -2.0043365535265028E-17
vn -0.188968 0.981983 -6.012911688835577E-17
vn 0.188984 0.98198 -6.012893319133589E-17
vn 0.866024 0.500003 -3.06163536757037E-17
vn 0.866024 0.500003 -3.06163536757037E-17
vn 0.86602 -0.50001 3.06167823020834E-17
vn 0.86602 -0.50001 3.06167823020834E-17
vn 0.188968 -0.981983 6.012911688835577E-17
vn -0.188984 -0.98198 6.012893319133589E-17
vn -0.755926 -0.654657 4.008617997947044E-17
vn -0.944911 -0.327329 2.0043120605905197E-17
vn -0.944909 0.327333 -2.0043365535265028E-17
vn -0.755918 0.654666 -4.0086731070530056E-17
vn -0.068937 0.99708 0.032856999999999935
vn -0.069938 0.996644 0.04253499999999994
vn -0.011994 0.999438 0.03131199999999994
vn 0.045597 0.998624 0.02590199999999994
vn 0.10214 0.9944 0.02713999999999994
vn 0.102276 0.994407 0.026363999999999936
vn 0.034079 0.06790299999999995 -0.99711
vn 0.034079 0.06790399999999995 -0.99711
vn -0.007021 0.06793899999999994 -0.997665
vn -0.048179 0.06785899999999995 -0.996531
vn -0.089186 0.06766499999999995 -0.993714
vn -0.089186 0.06766499999999995 -0.993714
vn 0.75594 -0.654641 4.008520026203112E-17
vn -0.188969 -0.981983 6.012911688835577E-17
vn 0.189006 -0.981976 6.012868826197606E-17
vn 0.94491 -0.327331 2.0043243070585114E-17
vn 0.866021 0.500007 -3.061659860506353E-17
vn 0.866021 0.500007 -3.061659860506353E-17
vn -2.8E-05 1 -6.123233995736766E-17
vn -2.8E-05 1 -6.123233995736766E-17
vn -0.755935 0.654647 -4.0085567656070865E-17
vn -0.944909 0.327334 -2.0043426767604985E-17
vn -0.944915 -0.327316 2.004232458548575E-17
vn -0.755929 -0.654653 4.0085935050110614E-17
vn -0.188969 -0.981983 6.012911688835577E-17
vn 0.189006 -0.981976 6.012868826197606E-17
vn 0.961779 -0.273825 1.67669454888262E-17
vn 0.243728 -0.969844 5.938581751361329E-17
vn 0.58629 -0.810101 4.96043798318035E-17
vn 0.994712 0.102705 -6.288867475321446E-18
vn 0.573568 0.819158 -5.015896113479738E-17
vn 0.573568 0.819158 -5.015896113479738E-17
vn -0.422628 0.906303 -5.549505340038218E-17
vn -0.422628 0.906303 -5.549505340038218E-17
vn -0.961776 0.273837 -1.6767680276905688E-17
vn -0.994716 -0.102662 6.286234484703279E-18
vn -0.718065 -0.695976 4.261623903416892E-17
vn -0.408449 -0.912781 5.589171649862601E-17
vn 0.243728 -0.969844 5.938581751361329E-17
vn 0.58629 -0.810101 4.96043798318035E-17
vn 0.961775 -0.273839 1.6767802741585602E-17
vn 0.243724 -0.969845 5.938587874595323E-17
vn 0.586283 -0.810106 4.9604685993503284E-17
vn 0.994714 0.102685 -6.2876428285222984E-18
vn 0.573577 0.819151 -5.0158532508417673E-17
vn 0.573577 0.819151 -5.0158532508417673E-17
vn -0.422617 0.906308 -5.549535956208197E-17
vn -0.422617 0.906308 -5.549535956208197E-17
vn -0.961773 0.273848 -1.676835383264522E-17
vn -0.994715 -0.102672 6.286846808102852E-18
vn -0.718053 -0.695988 4.2616973822248404E-17
vn -0.408444 -0.912783 5.589183896330593E-17
vn 0.243724 -0.969845 5.938587874595323E-17
vn 0.586283 -0.810106 4.9604685993503284E-17
vn 0.961779 -0.273825 1.67669454888262E-17
vn 0.243728 -0.969844 5.938581751361329E-17
vn 0.58629 -0.810101 4.96043798318035E-17
vn 0.994712 0.102705 -6.288867475321446E-18
vn 0.573568 0.819158 -5.015896113479738E-17
vn 0.573568 0.819158 -5.015896113479738E-17
vn -0.422628 0.906303 -5.549505340038218E-17
vn -0.422628 0.906303 -5.549505340038218E-17
vn -0.961776 0.273837 -1.6767680276905688E-17
vn -0.994716 -0.102662 6.286234484703279E-18
vn -0.718065 -0.695976 4.261623903416892E-17
vn -0.408449 -0.912781 5.589171649862601E-17
vn 0.243728 -0.969844 5.938581751361329E-17
vn 0.58629 -0.810101 4.96043798318035E-17
vn -0.107707 -0.993846 -0.02587399999999994
vn -0.169798 -0.985128 -0.026307999999999943
vn -0.169651 -0.985132 -0.02707499999999994
vn -0.044292 -0.998528 -0.03129799999999994
vn 0.01858 -0.999288 -0.03283999999999994
vn 0.019708 -0.998902 -0.042508999999999936
vn 0.009704 -0.06851799999999994 0.997603
vn -0.035472 -0.06640099999999995 0.997162
vn -0.035468 -0.06636199999999995 0.997165
vn 0.054947 -0.07049999999999994 0.995997
vn 0.099984 -0.07237199999999995 0.992353
vn 0.09998 -0.07233599999999994 0.992357
vn -0.044295 0.998528 0.03131199999999994
vn 0.019706 0.998901 0.04253799999999994
vn 0.018576 0.999287 0.03286099999999994
vn -0.107709 0.993846 0.025874999999999936
vn -0.169652 0.985132 0.027070999999999942
vn -0.1698 0.985128 0.02629999999999994
vn 0.003811 0.06821199999999994 -0.997664
vn -0.041525 0.06602199999999994 -0.996954
vn -0.041525 0.06602199999999994 -0.996954
vn 0.049233 0.07026599999999994 -0.996313
vn 0.094459 0.07216999999999994 -0.992909
vn 0.094459 0.07216999999999994 -0.992909
vn -0.001418 0.999494 0.03176599999999994
vn 0.070973 0.996426 0.04579999999999994
vn 0.068052 0.997108 0.03383099999999994
vn -0.072283 0.997092 0.024137999999999937
vn -0.140474 0.989766 0.02510799999999994
vn -0.140621 0.989795 0.02304199999999994
vn 0.036255 0.06969299999999995 -0.99691
vn 0.082914 0.07169699999999994 -0.993974
vn 0.082914 0.07169699999999994 -0.993974
vn -0.010587 0.06753099999999994 -0.997661
vn -0.057302 0.06522699999999994 -0.996224
vn -0.057302 0.06522699999999994 -0.996224
vn 0.961775 -0.273839 1.6767802741585602E-17
vn 0.243724 -0.969845 5.938587874595323E-17
vn 0.586283 -0.810106 4.9604685993503284E-17
vn 0.994714 0.102685 -6.2876428285222984E-18
vn 0.573577 0.819151 -5.0158532508417673E-17
vn 0.573577 0.819151 -5.0158532508417673E-17
vn -0.422617 0.906308 -5.549535956208197E-17
vn -0.422617 0.906308 -5.549535956208197E-17
vn -0.961773 0.273848 -1.676835383264522E-17
vn -0.994715 -0.102672 6.286846808102852E-18
vn -0.718053 -0.695988 4.2616973822248404E-17
vn -0.408444 -0.912783 5.589183896330593E-17
vn 0.243724 -0.969845 5.938587874595323E-17
vn 0.586283 -0.810106 4.9604685993503284E-17
vn 0.961779 -0.273825 1.67669454888262E-17
vn 0.243728 -0.969844 5.938581751361329E-17
vn 0.58629 -0.810101 4.96043798318035E-17
vn 0.994712 0.102705 -6.288867475321446E-18
vn 0.573568 0.819158 -5.015896113479738E-17
vn 0.573568 0.819158 -5.015896113479738E-17
vn -0.422628 0.906303 -5.549505340038218E-17
vn -0.422628 0.906303 -5.549505340038218E-17
vn -0.961776 0.273837 -1.6767680276905688E-17
vn -0.994716 -0.102662 6.286234484703279E-18
vn -0.718065 -0.695976 4.261623903416892E-17
vn -0.408449 -0.912781 5.589171649862601E-17
vn 0.243728 -0.969844 5.938581751361329E-17
vn 0.58629 -0.810101 4.96043798318035E-17
vn -0.045595 -0.998624 -0.025900999999999938
vn -0.102272 -0.994407 -0.02638399999999994
vn -0.102139 -0.9944 -0.02714699999999994
vn 0.011995 -0.999438 -0.031295999999999935
vn 0.06894 -0.99708 -0.032836999999999936
vn 0.06994 -0.996645 -0.04250999999999994
vn 0.012365 -0.06796699999999994 0.997611
vn -0.028588 -0.06799099999999994 0.997276
vn -0.028586 -0.06795399999999995 0.997279
vn 0.053362 -0.06782799999999994 0.996269
vn 0.094201 -0.06761299999999995 0.993255
vn 0.094195 -0.06757499999999994 0.993258
vn 0 6.123233995736766E-17 1
vn 0 6.123233995736766E-17 1
vn 0 6.123233995736766E-17 1
vn 0 6.123233995736766E-17 1
vn 0 6.123233995736766E-17 1
vn 0 6.123233995736766E-17 1
vn 0 6.123233995736766E-17 1
vn 0 6.123233995736766E-17 1
vn 0 6.123233995736766E-17 1
vn 0 6.123233995736766E-17 1
vn 0 6.123233995736766E-17 1
vn 0 6.123233995736766E-17 1
vn 0 6.123233995736766E-17 1
vn 0 6.123233995736766E-17 1
vn 0 6.123233995736766E-17 1
vn 0 6.123233995736766E-17 1
vn 0 6.123233995736766E-17 1
vn 0 6.123233995736766E-17 1
vn 0 6.123233995736766E-17 1
vn 0 6.123233995736766E-17 1
vn 0 6.123233995736766E-17 1
vn 0 6.123233995736766E-17 1
vn 0 6.123233995736766E-17 1
vn 0 6.123233995736766E-17 1
vn 0 6.123233995736766E-17 1
vn 0 6.123233995736766E-17 1
vn 0 6.123233995736766E-17 1
vn 0 6.123233995736766E-17 1
vn 0 6.123233995736766E-17 1
vn 0 6.123233995736766E-17 1
vn 0 6.123233995736766E-17 1
vn 0 6.123233995736766E-17 1
vn 0 6.123233995736766E-17 1
vn 0 6.123233995736766E-17 1
vn 0 6.123233995736766E-17 1
vn 0 6.123233995736766E-17 1
vn 0 6.123233995736766E-17 1
vn 0 6.123233995736766E-17 1
vn 0 6.123233995736766E-17 1
vn 0 6.123233995736766E-17 1
vn 0 6.123233995736766E-17 1
vn 0 6.123233995736766E-17 1
vn 0 6.123233995736766E-17 1
vn 0 6.123233995736766E-17 1
vn 0 6.123233995736766E-17 1
vn 0 6.123233995736766E-17 1
vn 0 6.123233995736766E-17 1
vn 0 6.123233995736766E-17 1
vn 0 6.123233995736766E-17 1
vn 0 6.123233995736766E-17 1
vn 0 6.123233995736766E-17 1
vn 0 6.123233995736766E-17 1
vn 0 6.123233995736766E-17 1
vn 0 6.123233995736766E-17 1
vn 0 6.123233995736766E-17 1
vn 0 6.123233995736766E-17 1
vn 0 6.123233995736766E-17 1
vn 0 6.123233995736766E-17 1
vn 0 6.123233995736766E-17 1
vn 0 6.123233995736766E-17 1
vn 0 6.123233995736766E-17 1
vn 0 6.123233995736766E-17 1
vn 0 6.123233995736766E-17 1
vn 0 6.123233995736766E-17 1
vn 0 6.123233995736766E-17 1
vn 0 6.123233995736766E-17 1
vn 0 6.123233995736766E-17 1
vn 0 6.123233995736766E-17 1
vn 0 6.123233995736766E-17 1
vn 0 6.123233995736766E-17 1
vn 0 6.123233995736766E-17 1
vn 0 6.123233995736766E-17 1
vn 0 6.123233995736766E-17 1
vn 0 6.123233995736766E-17 1
vn 0 6.123233995736766E-17 1
vn 0 6.123233995736766E-17 1
vn 0 6.123233995736766E-17 1
vn 0 6.123233995736766E-17 1
vn 0 6.123233995736766E-17 1
vn 0 6.123233995736766E-17 1
vn 0 6.123233995736766E-17 1
vn 0 6.123233995736766E-17 1
vn 0 6.123233995736766E-17 1
vn 0 6.123233995736766E-17 1
vn 0 6.123233995736766E-17 1
vn 0 6.123233995736766E-17 1
vn 0 6.123233995736766E-17 1
vn 0 6.123233995736766E-17 1
vn 0 6.123233995736766E-17 1
vn 0 6.123233995736766E-17 1
g holzoben
f 1/1/1 2/2/2 3/3/3
f 3/3/3 4/4/4 1/1/1
f 5/5/5 6/6/6 7/7/7
f 7/7/7 8/8/8 5/5/5
f 9/9/9 10/10/10 11/11/11
f 11/11/11 12/12/12 9/9/9
f 13/13/13 14/14/14 15/15/15
f 15/15/15 16/16/16 13/13/13
f 17/17/17 18/18/18 19/19/19
f 19/19/19 20/20/20 17/17/17
f 21/21/21 22/22/22 23/23/23
f 23/23/23 24/24/24 21/21/21
f 25/25/25 26/26/26 27/27/27
f 27/27/27 28/28/28 25/25/25
f 29/29/29 30/30/30 31/31/31
f 31/31/31 32/32/32 29/29/29
f 33/33/33 34/34/34 35/35/35
f 35/35/35 36/36/36 33/33/33
g orig_Standard_10
f 37/37/37 38/38/38 39/39/39
f 39/39/39 40/40/40 37/37/37
f 41/41/41 42/42/42 43/43/43
f 43/43/43 44/44/44 41/41/41
f 45/45/45 46/46/46 47/47/47
f 47/47/47 48/48/48 45/45/45
f 49/49/49 50/50/50 51/51/51
f 51/51/51 52/52/52 49/49/49
f 53/53/53 54/54/54 55/55/55
f 55/55/55 56/56/56 53/53/53
f 57/57/57 58/58/58 59/59/59
f 59/59/59 60/60/60 57/57/57
f 61/61/61 62/62/62 63/63/63
f 63/63/63 64/64/64 61/61/61
f 65/65/65 66/66/66 67/67/67
f 67/67/67 68/68/68 65/65/65
f 69/69/69 70/70/70 71/71/71
f 71/71/71 72/72/72 69/69/69
f 73/73/73 74/74/74 75/75/75
f 75/75/75 76/76/76 73/73/73
f 77/77/77 78/78/78 79/79/79
f 79/79/79 80/80/80 77/77/77
f 81/81/81 82/82/82 83/83/83
f 83/83/83 84/84/84 81/81/81
f 85/85/85 86/86/86 87/87/87
f 87/87/87 88/88/88 85/85/85
f 89/89/89 90/90/90 91/91/91
f 91/91/91 92/92/92 89/89/89
f 93/93/93 94/94/94 95/95/95
f 95/95/95 96/96/96 93/93/93
f 97/97/97 98/98/98 99/99/99
f 99/99/99 100/100/100 97/97/97
f 101/101/101 102/102/102 103/103/103
f 103/103/103 104/104/104 101/101/101
f 105/105/105 106/106/106 107/107/107
f 107/107/107 108/108/108 105/105/105
f 109/109/109 110/110/110 111/111/111
f 111/111/111 112/112/112 109/109/109
f 113/113/113 114/114/114 115/115/115
f 115/115/115 116/116/116 113/113/113
f 117/117/117 118/118/118 119/119/119
f 119/119/119 120/120/120 117/117/117
f 121/121/121 122/122/122 123/123/123
f 123/123/123 124/124/124 121/121/121
f 125/125/125 126/126/126 127/127/127
f 127/127/127 128/128/128 125/125/125
f 129/129/129 130/130/130 131/131/131
f 131/131/131 132/132/132 129/129/129
f 133/133/133 134/134/134 135/135/135
f 135/135/135 136/136/136 133/133/133
f 137/137/137 138/138/138 139/139/139
f 139/139/139 140/140/140 137/137/137
f 141/141/141 142/142/142 143/143/143
f 143/143/143 144/144/144 141/141/141
f 145/145/145 146/146/146 147/147/147
f 147/147/147 148/148/148 145/145/145
f 149/149/149 150/150/150 151/151/151
f 151/151/151 152/152/152 149/149/149
f 153/153/153 154/154/154 155/155/155
f 155/155/155 156/156/156 153/153/153
f 157/157/157 158/158/158 159/159/159
f 159/159/159 160/160/160 157/157/157
f 161/161/161 162/162/162 163/163/163
f 163/163/163 164/164/164 161/161/161
f 165/165/165 166/166/166 167/167/167
f 167/167/167 168/168/168 165/165/165
f 169/169/169 170/170/170 171/171/171
f 171/171/171 172/172/172 169/169/169
f 173/173/173 174/174/174 175/175/175
f 175/175/175 176/176/176 173/173/173
f 177/177/177 178/178/178 179/179/179
f 179/179/179 180/180/180 177/177/177
f 181/181/181 182/182/182 183/183/183
f 183/183/183 184/184/184 181/181/181
f 185/185/185 186/186/186 187/187/187
f 187/187/187 188/188/188 185/185/185
f 189/189/189 190/190/190 191/191/191
f 191/191/191 192/192/192 189/189/189
f 193/193/193 194/194/194 195/195/195
f 195/195/195 196/196/196 193/193/193
f 197/197/197 198/198/198 199/199/199
f 199/199/199 200/200/200 197/197/197
f 201/201/201 202/202/202 203/203/203
f 203/203/203 204/204/204 201/201/201
f 205/205/205 206/206/206 207/207/207
f 207/207/207 208/208/208 205/205/205
f 209/209/209 210/210/210 211/211/211
f 211/211/211 212/212/212 209/209/209
f 213/213/213 214/214/214 215/215/215
f 215/215/215 216/216/216 213/213/213
f 217/217/217 218/218/218 219/219/219
f 219/219/219 220/220/220 217/217/217
f 221/221/221 222/222/222 223/223/223
f 223/223/223 224/224/224 221/221/221
f 225/225/225 226/226/226 227/227/227
f 227/227/227 228/228/228 225/225/225
f 229/229/229 230/230/230 231/231/231
f 231/231/231 232/232/232 229/229/229
f 233/233/233 234/234/234 235/235/235
f 235/235/235 236/236/236 233/233/233
f 237/237/237 238/238/238 239/239/239
f 239/239/239 240/240/240 237/237/237
f 241/241/241 242/242/242 243/243/243
f 243/243/243 244/244/244 241/241/241
f 245/245/245 246/246/246 247/247/247
f 247/247/247 248/248/248 245/245/245
f 249/249/249 250/250/250 251/251/251
f 251/251/251 252/252/252 249/249/249
f 253/253/253 254/254/254 255/255/255
f 255/255/255 256/256/256 253/253/253
f 257/257/257 258/258/258 259/259/259
f 259/259/259 260/260/260 257/257/257
f 261/261/261 262/262/262 263/263/263
f 263/263/263 264/264/264 261/261/261
f 265/265/265 266/266/266 267/267/267
f 267/267/267 268/268/268 265/265/265
f 269/269/269 270/270/270 271/271/271
f 271/271/271 272/272/272 269/269/269
f 273/273/273 274/274/274 275/275/275
f 275/275/275 276/276/276 273/273/273
f 277/277/277 278/278/278 279/279/279
f 279/279/279 280/280/280 277/277/277
f 281/281/281 282/282/282 283/283/283
f 283/283/283 284/284/284 281/281/281
f 285/285/285 286/286/286 287/287/287
f 287/287/287 288/288/288 285/285/285
f 289/289/289 290/290/290 291/291/291
f 291/291/291 292/292/292 289/289/289
f 293/293/293 294/294/294 295/295/295
f 295/295/295 296/296/296 293/293/293
f 297/297/297 298/298/298 299/299/299
f 299/299/299 300/300/300 297/297/297
f 301/301/301 302/302/302 303/303/303
f 303/303/303 304/304/304 301/301/301
f 304/304/304 303/303/303 305/305/305
f 305/305/305 306/306/306 304/304/304
f 307/307/307 308/308/308 309/309/309
f 309/309/309 310/310/310 307/307/307
f 310/310/310 309/309/309 311/311/311
f 311/311/311 312/312/312 310/310/310
f 313/313/313 314/314/314 315/315/315
f 315/315/315 316/316/316 313/313/313
f 316/316/316 315/315/315 317/317/317
f 317/317/317 318/318/318 316/316/316
f 319/319/319 318/318/318 317/317/317
f 317/317/317 320/320/320 319/319/319
f 319/319/319 320/320/320 321/321/321
f 321/321/321 322/322/322 319/319/319
f 322/322/322 321/321/321 323/323/323
f 323/323/323 324/324/324 322/322/322
f 324/324/324 323/323/323 325/325/325
f 325/325/325 326/326/326 324/324/324
f 327/327/327 328/328/328 329/329/329
f 329/329/329 330/330/330 327/327/327
f 330/330/330 329/329/329 331/331/331
f 331/331/331 332/332/332 330/330/330
f 333/333/333 332/332/332 331/331/331
f 331/331/331 334/334/334 333/333/333
f 333/333/333 334/334/334 335/335/335
f 335/335/335 336/336/336 333/333/333
f 336/336/336 335/335/335 337/337/337
f 337/337/337 338/338/338 336/336/336
f 338/338/338 337/337/337 339/339/339
f 339/339/339 340/340/340 338/338/338
f 341/341/341 342/342/342 343/343/343
f 343/343/343 344/344/344 341/341/341
f 344/344/344 343/343/343 345/345/345
f 345/345/345 346/346/346 344/344/344
f 347/347/347 346/346/346 345/345/345
f 345/345/345 348/348/348 347/347/347
f 347/347/347 348/348/348 349/349/349
f 349/349/349 350/350/350 347/347/347
f 350/350/350 349/349/349 351/351/351
f 351/351/351 352/352/352 350/350/350
f 352/352/352 351/351/351 353/353/353
f 353/353/353 354/354/354 352/352/352
f 355/355/355 356/356/356 357/357/357
f 357/357/357 358/358/358 355/355/355
f 358/358/358 357/357/357 359/359/359
f 359/359/359 360/360/360 358/358/358
f 361/361/361 360/360/360 359/359/359
f 359/359/359 362/362/362 361/361/361
f 361/361/361 362/362/362 363/363/363
f 363/363/363 364/364/364 361/361/361
f 364/364/364 363/363/363 365/365/365
f 365/365/365 366/366/366 364/364/364
f 366/366/366 365/365/365 367/367/367
f 367/367/367 368/368/368 366/366/366
f 369/369/369 370/370/370 371/371/371
f 371/371/371 372/372/372 369/369/369
f 372/372/372 371/371/371 373/373/373
f 373/373/373 374/374/374 372/372/372
f 375/375/375 376/376/376 377/377/377
f 377/377/377 378/378/378 375/375/375
f 378/378/378 377/377/377 379/379/379
f 379/379/379 380/380/380 378/378/378
f 381/381/381 382/382/382 383/383/383
f 383/383/383 384/384/384 381/381/381
f 384/384/384 383/383/383 385/385/385
f 385/385/385 386/386/386 384/384/384
f 387/387/387 386/386/386 385/385/385
f 385/385/385 388/388/388 387/387/387
f 387/387/387 388/388/388 389/389/389
f 389/389/389 390/390/390 387/387/387
f 390/390/390 389/389/389 391/391/391
f 391/391/391 392/392/392 390/390/390
f 392/392/392 391/391/391 393/393/393
f 393/393/393 394/394/394 392/392/392
f 395/395/395 396/396/396 397/397/397
f 397/397/397 398/398/398 395/395/395
f 398/398/398 397/397/397 399/399/399
f 399/399/399 400/400/400 398/398/398
f 401/401/401 400/400/400 399/399/399
f 399/399/399 402/402/402 401/401/401
f 401/401/401 402/402/402 403/403/403
f 403/403/403 404/404/404 401/401/401
f 404/404/404 403/403/403 405/405/405
f 405/405/405 406/406/406 404/404/404
f 406/406/406 405/405/405 407/407/407
f 407/407/407 408/408/408 406/406/406
f 409/409/409 410/410/410 411/411/411
f 411/411/411 412/412/412 409/409/409
f 412/412/412 411/411/411 413/413/413
f 413/413/413 414/414/414 412/412/412
f 415/415/415 416/416/416 417/417/417
f 417/417/417 418/418/418 415/415/415
f 418/418/418 417/417/417 419/419/419
f 419/419/419 420/420/420 418/418/418
f 421/421/421 422/422/422 423/423/423
f 423/423/423 424/424/424 421/421/421
f 424/424/424 423/423/423 425/425/425
f 425/425/425 426/426/426 424/424/424
f 427/427/427 426/426/426 425/425/425
f 425/425/425 428/428/428 427/427/427
f 427/427/427 428/428/428 429/429/429
f 429/429/429 430/430/430 427/427/427
f 430/430/430 429/429/429 431/431/431
f 431/431/431 432/432/432 430/430/430
f 432/432/432 431/431/431 433/433/433
f 433/433/433 434/434/434 432/432/432
f 435/435/435 436/436/436 437/437/437
f 437/437/437 438/438/438 435/435/435
f 438/438/438 437/437/437 439/439/439
f 439/439/439 440/440/440 438/438/438
f 441/441/441 440/440/440 439/439/439
f 439/439/439 442/442/442 441/441/441
f 441/441/441 442/442/442 443/443/443
f 443/443/443 444/444/444 441/441/441
f 444/444/444 443/443/443 445/445/445
f 445/445/445 446/446/446 444/444/444
f 446/446/446 445/445/445 447/447/447
f 447/447/447 448/448/448 446/446/446
f 449/449/449 450/450/450 451/451/451
f 451/451/451 452/452/452 449/449/449
f 452/452/452 451/451/451 453/453/453
f 453/453/453 454/454/454 452/452/452
f 455/455/455 454/454/454 453/453/453
f 453/453/453 456/456/456 455/455/455
f 455/455/455 456/456/456 457/457/457
f 457/457/457 458/458/458 455/455/455
f 458/458/458 457/457/457 459/459/459
f 459/459/459 460/460/460 458/458/458
f 460/460/460 459/459/459 461/461/461
f 461/461/461 462/462/462 460/460/460
f 463/463/463 464/464/464 465/465/465
f 465/465/465 466/466/466 463/463/463
f 466/466/466 465/465/465 467/467/467
f 467/467/467 468/468/468 466/466/466
f 469/469/469 470/470/470 471/471/471
f 471/471/471 472/472/472 469/469/469
f 472/472/472 471/471/471 473/473/473
f 473/473/473 474/474/474 472/472/472
f 475/475/475 476/476/476 477/477/477
f 477/477/477 478/478/478 475/475/475
f 479/479/479 475/475/475 478/478/478
f 478/478/478 480/480/480 479/479/479
f 479/479/479 480/480/480 481/481/481
f 481/481/481 482/482/482 479/479/479
f 483/483/483 482/482/482 481/481/481
f 481/481/481 484/484/484 483/483/483
f 485/485/485 483/483/483 484/484/484
f 484/484/484 486/486/486 485/485/485
f 487/487/487 485/485/485 486/486/486
f 486/486/486 488/488/488 487/487/487
f 489/489/489 490/490/490 491/491/491
f 491/491/491 492/492/492 489/489/489
f 493/493/493 489/489/489 492/492/492
f 492/492/492 494/494/494 493/493/493
f 493/493/493 494/494/494 495/495/495
f 495/495/495 496/496/496 493/493/493
f 497/497/497 496/496/496 495/495/495
f 495/495/495 498/498/498 497/497/497
f 499/499/499 497/497/497 498/498/498
f 498/498/498 500/500/500 499/499/499
f 501/501/501 499/499/499 500/500/500
f 500/500/500 502/502/502 501/501/501
f 503/503/503 504/504/504 505/505/505
f 505/505/505 506/506/506 503/503/503
f 507/507/507 503/503/503 506/506/506
f 506/506/506 508/508/508 507/507/507
f 507/507/507 508/508/508 509/509/509
f 509/509/509 510/510/510 507/507/507
f 511/511/511 510/510/510 509/509/509
f 509/509/509 512/512/512 511/511/511
f 513/513/513 511/511/511 512/512/512
f 512/512/512 514/514/514 513/513/513
f 515/515/515 513/513/513 514/514/514
f 514/514/514 516/516/516 515/515/515
f 517/517/517 518/518/518 519/519/519
f 519/519/519 520/520/520 517/517/517
f 521/521/521 517/517/517 520/520/520
f 520/520/520 522/522/522 521/521/521
f 521/521/521 522/522/522 523/523/523
f 523/523/523 524/524/524 521/521/521
f 525/525/525 524/524/524 523/523/523
f 523/523/523 526/526/526 525/525/525
f 527/527/527 525/525/525 526/526/526
f 526/526/526 528/528/528 527/527/527
f 529/529/529 527/527/527 528/528/528
f 528/528/528 530/530/530 529/529/529
f 531/531/531 532/532/532 533/533/533
f 533/533/533 534/534/534 531/531/531
f 535/535/535 531/531/531 534/534/534
f 534/534/534 536/536/536 535/535/535
f 537/537/537 538/538/538 539/539/539
f 539/539/539 540/540/540 537/537/537
f 541/541/541 537/537/537 540/540/540
f 540/540/540 542/542/542 541/541/541
f 543/543/543 544/544/544 545/545/545
f 545/545/545 546/546/546 543/543/543
f 547/547/547 543/543/543 546/546/546
f 546/546/546 548/548/548 547/547/547
f 549/549/549 550/550/550 551/551/551
f 551/551/551 552/552/552 549/549/549
f 553/553/553 549/549/549 552/552/552
f 552/552/552 554/554/554 553/553/553
f 555/555/555 556/556/556 557/557/557
f 557/557/557 558/558/558 555/555/555
f 559/559/559 555/555/555 558/558/558
f 558/558/558 560/560/560 559/559/559
f 561/561/561 562/562/562 563/563/563
f 563/563/563 564/564/564 561/561/561
f 565/565/565 561/561/561 564/564/564
f 564/564/564 566/566/566 565/565/565
f 567/567/567 568/568/568 569/569/569
f 569/569/569 570/570/570 567/567/567
f 571/571/571 567/567/567 570/570/570
f 570/570/570 572/572/572 571/571/571
f 571/571/571 572/572/572 573/573/573
f 573/573/573 574/574/574 571/571/571
f 575/575/575 574/574/574 573/573/573
f 573/573/573 576/576/576 575/575/575
f 577/577/577 575/575/575 576/576/576
f 576/576/576 578/578/578 577/577/577
f 579/579/579 577/577/577 578/578/578
f 578/578/578 580/580/580 579/579/579
f 581/581/581 582/582/582 583/583/583
f 583/583/583 584/584/584 581/581/581
f 585/585/585 581/581/581 584/584/584
f 584/584/584 586/586/586 585/585/585
f 585/585/585 586/586/586 587/587/587
f 587/587/587 588/588/588 585/585/585
f 589/589/589 588/588/588 587/587/587
f 587/587/587 590/590/590 589/589/589
f 591/591/591 589/589/589 590/590/590
f 590/590/590 592/592/592 591/591/591
f 593/593/593 591/591/591 592/592/592
f 592/592/592 594/594/594 593/593/593
f 595/595/595 596/596/596 597/597/597
f 597/597/597 598/598/598 595/595/595
f 599/599/599 595/595/595 598/598/598
f 598/598/598 600/600/600 599/599/599
f 601/601/601 602/602/602 603/603/603
f 603/603/603 604/604/604 601/601/601
f 605/605/605 601/601/601 604/604/604
f 604/604/604 606/606/606 605/605/605
f 607/607/607 608/608/608 609/609/609
f 607/607/607 610/610/610 608/608/608
f 610/610/610 611/611/611 608/608/608
f 607/607/607 612/612/612 610/610/610
f 613/613/613 614/614/614 615/615/615
f 613/613/613 616/616/616 614/614/614
f 616/616/616 617/617/617 614/614/614
f 613/613/613 618/618/618 616/616/616
f 619/619/619 620/620/620 621/621/621
f 619/619/619 622/622/622 620/620/620
f 622/622/622 623/623/623 620/620/620
f 619/619/619 624/624/624 622/622/622
f 625/625/625 626/626/626 627/627/627
f 625/625/625 628/628/628 626/626/626
f 628/628/628 629/629/629 626/626/626
f 625/625/625 630/630/630 628/628/628
f 631/631/631 632/632/632 633/633/633
f 631/631/631 634/634/634 632/632/632
f 634/634/634 635/635/635 632/632/632
f 631/631/631 636/636/636 634/634/634
f 637/637/637 638/638/638 639/639/639
f 637/637/637 640/640/640 638/638/638
f 640/640/640 641/641/641 638/638/638
f 637/637/637 642/642/642 640/640/640
f 643/643/643 644/644/644 645/645/645
f 643/643/643 646/646/646 644/644/644
f 646/646/646 647/647/647 644/644/644
f 643/643/643 648/648/648 646/646/646
f 649/649/649 650/650/650 651/651/651
f 649/649/649 652/652/652 650/650/650
f 652/652/652 653/653/653 650/650/650
f 649/649/649 654/654/654 652/652/652
f 655/655/655 656/656/656 657/657/657
f 655/655/655 658/658/658 656/656/656
f 658/658/658 659/659/659 656/656/656
f 655/655/655 660/660/660 658/658/658
f 661/661/661 662/662/662 663/663/663
f 661/661/661 664/664/664 662/662/662
f 664/664/664 665/665/665 662/662/662
f 661/661/661 666/666/666 664/664/664
f 667/667/667 668/668/668 669/669/669
f 667/667/667 670/670/670 668/668/668
f 670/670/670 671/671/671 668/668/668
f 667/667/667 672/672/672 670/670/670
f 673/673/673 674/674/674 675/675/675
f 673/673/673 676/676/676 674/674/674
f 676/676/676 677/677/677 674/674/674
f 673/673/673 678/678/678 676/676/676
f 679/679/679 680/680/680 681/681/681
f 679/679/679 682/682/682 680/680/680
f 682/682/682 683/683/683 680/680/680
f 679/679/679 684/684/684 682/682/682
f 685/685/685 686/686/686 687/687/687
f 685/685/685 688/688/688 686/686/686
f 688/688/688 689/689/689 686/686/686
f 685/685/685 690/690/690 688/688/688
f 691/691/691 692/692/692 693/693/693
f 691/691/691 694/694/694 692/692/692
f 694/694/694 695/695/695 692/692/692
f 691/691/691 696/696/696 694/694/694
