v 0.261379 -0.2904379999999999 0.736495
v 0.236218 -0.197023 0.221021
v 0.240061 -0.210665 0.214896
v 0.240061 -0.210665 0.214896
v 0.265222 -0.30536199999999997 0.73865
v 0.261379 -0.2904379999999999 0.736495
v 0.309954 -0.174452 -0.02329099999999999
v 0.302405 -0.166243 0.126524
v 0.275778 -0.241869 0.12881600000000004
v 0.275778 -0.241869 0.12881600000000004
v 0.274716 -0.242401 -0.023290999999999985
v 0.309954 -0.174452 -0.02329099999999999
v -0.255541 -0.29693699999999995 0.740471
v -0.249712 -0.31168899999999994 0.742871
v -0.208519 -0.206687 0.216936
v -0.208519 -0.206687 0.216936
v -0.214217 -0.193038 0.222639
v -0.255541 -0.29693699999999995 0.740471
v -0.275353 -0.176514 -0.02329099999999999
v -0.259098 -0.242727 -0.023290999999999985
v -0.260081 -0.242195 0.12668500000000002
v -0.260081 -0.242195 0.12668500000000002
v -0.282501 -0.176515 0.12355000000000001
v -0.275353 -0.176514 -0.02329099999999999
v 0.254532 0.179206 -0.02329100000000001
v 0.258478 0.196625 0.134364
v 0.208259 0.19263 0.135047
v 0.216521 0.173525 -0.02329100000000001
v 0.254532 0.179206 -0.02329100000000001
v 0.249422 0.23206 -0.023291000000000013
v 0.253368 0.24872 0.12596499999999997
v 0.258478 0.196625 0.134364
v 0.254532 0.179206 -0.02329100000000001
v 0.249422 0.23206 -0.023291000000000013
v 0.199146 0.217354 -0.023291000000000013
v 0.20277 0.23959 0.12702499999999997
v 0.253368 0.24872 0.12596499999999997
v 0.249422 0.23206 -0.023291000000000013
v 0.199146 0.217354 -0.023291000000000013
v 0.224643 0.308092 0.387409
v 0.255956 -0.25056999999999996 0.754124
v 0.261115 -0.24020099999999994 0.765657
v 0.261115 -0.24020099999999994 0.765657
v 0.231301 0.315566 0.399633
v 0.241115 0.311208 0.389466
v 0.274254 -0.24686399999999994 0.755186
v 0.255956 -0.25056999999999996 0.754124
v 0.224643 0.308092 0.387409
v 0.241115 0.311208 0.389466
v 0.257255 0.28225100000000003 0.50073
v 0.233444 0.240614 0.09369999999999999
v 0.223793 0.210907 0.09540399999999999
v 0.251857 0.26733700000000005 0.508419
v 0.257255 0.28225100000000003 0.50073
v 0.251857 0.26733700000000005 0.508419
v 0.223793 0.210907 0.09540399999999999
v 0.252887 0.220506 0.09485399999999998
v 0.252887 0.220506 0.09485399999999998
v 0.268045 0.27231600000000006 0.505852
v 0.267035 -0.13302999999999995 0.785647
v 0.251947 -0.171685 0.12454900000000002
v 0.268077 -0.226284 0.12311600000000002
v 0.268077 -0.226284 0.12311600000000002
v 0.276334 -0.16535599999999995 0.800036
v 0.276334 -0.16535599999999995 0.800036
v 0.268077 -0.226284 0.12311600000000002
v 0.298544 -0.189193 0.12031300000000002
v 0.298544 -0.189193 0.12031300000000002
v 0.293825 -0.14273599999999995 0.789967
v 0.247993 -0.143965 -0.02329099999999999
v 0.255887 -0.144227 0.13047
v 0.302405 -0.166243 0.126524
v 0.309954 -0.174452 -0.02329099999999999
v 0.247993 -0.143965 -0.02329099999999999
v 0.300431 -0.277085 0.18652300000000002
v 0.26056 0.30013 0.441773
v 0.265904 0.305953 0.422241
v 0.265904 0.305953 0.422241
v 0.305756 -0.265582 0.16868400000000003
v -0.236469 0.196075 -0.02329100000000001
v -0.174584 0.184075 -0.02329100000000001
v -0.181072 0.188025 0.129673
v -0.236469 0.196075 0.129673
v -0.236469 0.196075 -0.02329100000000001
v -0.313873 -0.22951599999999994 0.709659
v -0.313023 -0.21011899999999994 0.719153
v 0.309954 -0.19965899999999995 0.710149
v 0.309954 -0.19965899999999995 0.710149
v 0.30831 -0.21837599999999993 0.700486
v -0.313687 -0.22635599999999995 0.724593
v -0.313873 -0.22951599999999994 0.709659
v 0.30831 -0.21837599999999993 0.700486
v 0.306857 -0.21487599999999996 0.715362
v -0.313687 -0.22635599999999995 0.724593
v 0.314749 0.23632300000000003 0.40847
v 0.312112 0.252442 0.426854
v -0.299501 0.22864900000000002 0.441687
v -0.299501 0.22864900000000002 0.441687
v -0.299315 0.21193800000000002 0.422369
v 0.314482 0.258364 0.412668
v 0.314749 0.23632300000000003 0.40847
v -0.299315 0.21193800000000002 0.422369
v -0.298744 0.23463200000000003 0.426636
v 0.314482 0.258364 0.412668
v -0.218651 0.282113 0.405025
v -0.230284 -0.2585299999999999 0.763066
v -0.244997 -0.2607769999999999 0.757323
v -0.244997 -0.2607769999999999 0.757323
v -0.228465 0.277756 0.394857
v -0.218651 0.282113 0.405025
v -0.235123 0.28523 0.407082
v -0.239153 -0.2508949999999999 0.770416
v -0.239153 -0.2508949999999999 0.770416
v -0.230284 -0.2585299999999999 0.763066
v -0.241087 0.25409300000000007 0.513262
v -0.235689 0.23918000000000003 0.520952
v -0.19671 0.199388 0.09540399999999999
v -0.206361 0.229095 0.09369999999999999
v -0.241087 0.25409300000000007 0.513262
v -0.235689 0.23918000000000003 0.520952
v -0.251877 0.24415900000000001 0.518385
v -0.225804 0.208987 0.09485399999999998
v -0.225804 0.208987 0.09485399999999998
v -0.19671 0.199388 0.09540399999999999
v -0.256979 -0.15248499999999995 0.794307
v -0.265281 -0.17604999999999996 0.804795
v -0.240515 -0.226284 0.12198100000000002
v -0.240515 -0.226284 0.12198100000000002
v -0.225556 -0.181276 0.12483600000000002
v -0.265281 -0.17604999999999996 0.804795
v -0.281893 -0.16032799999999994 0.797798
v -0.269767 -0.196745 0.11639700000000001
v -0.269767 -0.196745 0.11639700000000001
v -0.240515 -0.226284 0.12198100000000002
v -0.27798 -0.275947 0.19060600000000003
v -0.282384 -0.266849 0.17116100000000004
v -0.256365 0.277624 0.43763
v -0.256365 0.277624 0.43763
v -0.252333 0.2746700000000001 0.457756
v -0.282384 -0.266849 0.17116100000000004
v -0.292417 -0.270698 0.18003400000000003
v -0.266188 0.275954 0.44644
v -0.266188 0.275954 0.44644
v -0.256365 0.277624 0.43763
v -0.231395 0.234342 0.12967299999999998
v -0.194646 0.239625 0.12967299999999998
v -0.1943 0.239887 -0.023291000000000013
v -0.1943 0.239887 -0.023291000000000013
v -0.231395 0.234342 -0.023291000000000013
v -0.236469 0.196075 0.129673
v -0.236469 0.196075 -0.02329100000000001
v 0.260952 -0.20201999999999995 0.711915
v -0.230794 -0.21282899999999993 0.716415
v -0.229665 0.21707200000000001 0.430805
v 0.24135 0.24444000000000002 0.42338
v 0.258478 0.196625 0.134364
v 0.253368 0.24872 0.12596499999999997
v 0.208259 0.19263 0.135047
v 0.20277 0.23959 0.12702499999999997
v 0.302405 -0.166243 0.126524
v 0.255887 -0.144227 0.13047
v 0.275778 -0.241869 0.12881600000000004
v 0.220361 -0.203766 0.132872
v -0.194646 0.239625 0.12967299999999998
v -0.231395 0.234342 0.12967299999999998
v -0.236469 0.196075 0.129673
v -0.181072 0.188025 0.129673
v -0.228964 -0.166168 0.130458
v -0.282501 -0.176515 0.12355000000000001
v -0.260081 -0.242195 0.12668500000000002
v -0.203891 -0.203766 0.135243
v 0.20277 0.23959 0.12702499999999997
v 0.199146 0.217354 -0.023291000000000013
v 0.216521 0.173525 -0.02329100000000001
v 0.208259 0.19263 0.135047
v 0.250608 -0.32600899999999994 0.702476
v 0.250415 -0.19662299999999994 0.689696
v 0.256674 -0.19727599999999995 0.680874
v 0.257091 -0.32824499999999995 0.693527
v 0.257995 -0.3234699999999999 0.709819
v 0.257594 -0.19567799999999994 0.696961
v 0.250415 -0.19662299999999994 0.689696
v 0.250608 -0.32600899999999994 0.702476
v 0.257091 -0.32824499999999995 0.693527
v 0.256674 -0.19727599999999995 0.680874
v 0.263853 -0.19633199999999995 0.68814
v 0.264478 -0.32570599999999994 0.70087
v 0.264478 -0.32570599999999994 0.70087
v 0.263853 -0.19633199999999995 0.68814
v 0.257594 -0.19567799999999994 0.696961
v 0.257995 -0.3234699999999999 0.709819
v 0.231301 0.315566 0.399633
v 0.261115 -0.24020099999999994 0.765657
v 0.274254 -0.24686399999999994 0.755186
v 0.241115 0.311208 0.389466
v 0.268045 0.27231600000000006 0.505852
v 0.252887 0.220506 0.09485399999999998
v 0.233444 0.240614 0.09369999999999999
v 0.257255 0.28225100000000003 0.50073
v 0.265222 -0.30536199999999997 0.73865
v 0.240061 -0.210665 0.214896
v 0.250889 -0.201388 0.218334
v 0.275975 -0.29563599999999995 0.736724
v 0.275975 -0.29563599999999995 0.736724
v 0.250889 -0.201388 0.218334
v 0.236218 -0.197023 0.221021
v 0.261379 -0.2904379999999999 0.736495
v 0.293825 -0.14273599999999995 0.789967
v 0.298544 -0.189193 0.12031300000000002
v 0.251947 -0.171685 0.12454900000000002
v 0.267035 -0.13302999999999995 0.785647
v 0.219173 -0.2106 -0.023290999999999985
v 0.220361 -0.203766 0.132872
v 0.255887 -0.144227 0.13047
v 0.247993 -0.143965 -0.02329099999999999
v 0.220361 -0.203766 0.132872
v 0.219173 -0.2106 -0.023290999999999985
v 0.274716 -0.242401 -0.023290999999999985
v 0.275778 -0.241869 0.12881600000000004
v -0.174584 0.184075 -0.02329100000000001
v -0.1943 0.239887 -0.023291000000000013
v -0.194646 0.239625 0.12967299999999998
v -0.181072 0.188025 0.129673
v -0.229665 0.21707200000000001 0.430805
v 0.24135 0.24444000000000002 0.42338
v 0.233679 0.210351 0.10817399999999999
v -0.192513 0.198832 0.10817399999999999
v -0.239555 -0.33670199999999995 0.707236
v -0.246038 -0.33893899999999993 0.698287
v -0.24562 -0.20796999999999993 0.685634
v -0.239361 -0.20731699999999995 0.694455
v -0.246942 -0.33416299999999993 0.714579
v -0.239555 -0.33670199999999995 0.707236
v -0.239361 -0.20731699999999995 0.694455
v -0.246541 -0.20637199999999994 0.701721
v -0.246038 -0.33893899999999993 0.698287
v -0.253425 -0.3363999999999999 0.70563
v -0.2528 -0.20702499999999993 0.692899
v -0.24562 -0.20796999999999993 0.685634
v -0.253425 -0.3363999999999999 0.70563
v -0.246942 -0.33416299999999993 0.714579
v -0.246541 -0.20637199999999994 0.701721
v -0.2528 -0.20702499999999993 0.692899
v -0.313023 -0.21011899999999994 0.719153
v -0.313687 -0.22635599999999995 0.724593
v 0.306857 -0.21487599999999996 0.715362
v 0.309954 -0.19965899999999995 0.710149
v 0.312112 0.252442 0.426854
v 0.314482 0.258364 0.412668
v -0.298744 0.23463200000000003 0.426636
v -0.299501 0.22864900000000002 0.441687
v -0.244997 -0.2607769999999999 0.757323
v -0.239153 -0.2508949999999999 0.770416
v -0.235123 0.28523 0.407082
v -0.228465 0.277756 0.394857
v -0.251877 0.24415900000000001 0.518385
v -0.241087 0.25409300000000007 0.513262
v -0.206361 0.229095 0.09369999999999999
v -0.225804 0.208987 0.09485399999999998
v -0.243321 -0.22066799999999995 0.699598
v -0.240958 -0.32915099999999997 0.710926
v 0.253868 -0.31962499999999994 0.703544
v 0.253868 -0.21184699999999995 0.691969
v 0.260952 -0.20201999999999995 0.711915
v 0.24135 0.24444000000000002 0.42338
v -0.229665 0.21707200000000001 0.430805
v -0.230794 -0.21282899999999993 0.716415
v -0.249712 -0.31168899999999994 0.742871
v -0.264873 -0.30733699999999997 0.741531
v -0.223734 -0.202337 0.217838
v -0.208519 -0.206687 0.216936
v -0.264873 -0.30733699999999997 0.741531
v -0.255541 -0.29693699999999995 0.740471
v -0.214217 -0.193038 0.222639
v -0.223734 -0.202337 0.217838
v -0.281893 -0.16032799999999994 0.797798
v -0.256979 -0.15248499999999995 0.794307
v -0.225556 -0.181276 0.12483600000000002
v -0.269767 -0.196745 0.11639700000000001
v -0.259098 -0.242727 -0.023290999999999985
v -0.193423 -0.20165 -0.023290999999999985
v -0.203891 -0.203766 0.135243
v -0.260081 -0.242195 0.12668500000000002
v -0.292417 -0.270698 0.18003400000000003
v -0.27798 -0.275947 0.19060600000000003
v -0.252333 0.2746700000000001 0.457756
v -0.266188 0.275954 0.44644
v 0.305756 -0.265582 0.16868400000000003
v 0.265904 0.305953 0.422241
v 0.270889 0.304297 0.43391
v 0.311132 -0.270793 0.18059500000000003
v 0.26056 0.30013 0.441773
v 0.300431 -0.277085 0.18652300000000002
v -0.207459 -0.176535 -0.02279799999999999
v -0.275353 -0.176514 -0.02329099999999999
v -0.282501 -0.176515 0.12355000000000001
v -0.228964 -0.166168 0.130458
v -0.193423 -0.20165 -0.023290999999999985
v -0.203891 -0.203766 0.135243
vt 0.816202 0.522614
vt 0.815866 0.114212
vt 0.829801 0.114485
vt 0.829801 0.114485
vt 0.829571 0.522933
vt 0.816202 0.522614
vt 0.532146 0.239769
vt 0.532417 0.110878
vt 0.594639 0.111096
vt 0.594639 0.111096
vt 0.587770 0.240022
vt 0.532146 0.239769
vt 0.811566 0.523589
vt 0.825205 0.522286
vt 0.825152 0.113860
vt 0.825152 0.113860
vt 0.811230 0.115187
vt 0.811566 0.523589
vt 0.518533 0.239712
vt 0.580964 0.239999
vt 0.587838 0.111067
vt 0.587838 0.111067
vt 0.518804 0.110821
vt 0.518533 0.239712
vt 0.572984 0.239919
vt 0.573234 0.111049
vt 0.629857 0.111161
vt 0.616824 0.240117
vt 0.572984 0.239919
vt 0.511032 0.239681
vt 0.511303 0.110789
vt 0.573234 0.111049
vt 0.572984 0.239919
vt 0.511032 0.239681
vt 0.446464 0.239254
vt 0.451521 0.110349
vt 0.511303 0.110789
vt 0.511032 0.239681
vt 0.446464 0.239254
vt 0.680128 0.627278
vt 0.675638 0.120552
vt 0.692328 0.120883
vt 0.692328 0.120883
vt 0.705498 0.626150
vt 0.728321 0.626090
vt 0.713805 0.118645
vt 0.768523 0.117580
vt 0.765667 0.625735
vt 0.728321 0.626090
vt 0.902256 0.040213
vt 0.887230 0.565009
vt 0.840781 0.561654
vt 0.890706 0.039337
vt 0.902256 0.040213
vt 0.951781 0.040119
vt 0.973043 0.564628
vt 0.920662 0.566942
vt 0.920662 0.566942
vt 0.918557 0.041561
vt 0.963594 0.039461
vt 0.992784 0.563744
vt 0.953302 0.565511
vt 0.953302 0.565511
vt 0.939968 0.040777
vt 0.939968 0.040777
vt 0.953302 0.565511
vt 0.920662 0.566942
vt 0.920662 0.566942
vt 0.918557 0.041561
vt 0.475346 0.239498
vt 0.475882 0.110640
vt 0.532417 0.110878
vt 0.532146 0.239769
vt 0.475346 0.239498
vt 0.791696 0.117797
vt 0.779142 0.625078
vt 0.752193 0.626392
vt 0.752193 0.626392
vt 0.768523 0.117580
vt 0.559371 0.239873
vt 0.616824 0.240117
vt 0.629857 0.111161
vt 0.559632 0.110992
vt 0.559371 0.239873
vt 0.768523 0.117580
vt 0.721691 0.118324
vt 0.746994 0.625913
vt 0.746994 0.625913
vt 0.779142 0.625078
vt 0.692328 0.120883
vt 0.658948 0.120221
vt 0.680128 0.627278
vt 0.705498 0.626150
vt 0.692328 0.120883
vt 0.680128 0.627278
vt 0.705498 0.626150
vt 0.692328 0.120883
vt 0.692328 0.120883
vt 0.658948 0.120221
vt 0.746994 0.625913
vt 0.765667 0.625735
vt 0.768523 0.117580
vt 0.713805 0.118645
vt 0.746994 0.625913
vt 0.779142 0.625078
vt 0.768523 0.117580
vt 0.721691 0.118324
vt 0.721691 0.118324
vt 0.765667 0.625735
vt 0.680128 0.627278
vt 0.716910 0.626120
vt 0.692328 0.120883
vt 0.692328 0.120883
vt 0.658948 0.120221
vt 0.890706 0.039337
vt 0.879157 0.038460
vt 0.840781 0.561654
vt 0.887230 0.565009
vt 0.890706 0.039337
vt 0.951781 0.040119
vt 0.918557 0.041561
vt 0.920662 0.566942
vt 0.920662 0.566942
vt 0.973043 0.564628
vt 0.963594 0.039461
vt 0.939968 0.040777
vt 0.953302 0.565511
vt 0.953302 0.565511
vt 0.992784 0.563744
vt 0.939968 0.040777
vt 0.918557 0.041561
vt 0.920662 0.566942
vt 0.920662 0.566942
vt 0.953302 0.565511
vt 0.768523 0.117580
vt 0.721691 0.118324
vt 0.765667 0.625735
vt 0.765667 0.625735
vt 0.779142 0.625078
vt 0.721691 0.118324
vt 0.713805 0.118645
vt 0.746994 0.625913
vt 0.746994 0.625913
vt 0.765667 0.625735
vt 0.518804 0.110821
vt 0.475882 0.110640
vt 0.475346 0.239498
vt 0.475346 0.239498
vt 0.518533 0.239712
vt 0.559632 0.110992
vt 0.559371 0.239873
vt 0.013130 0.635652
vt 0.362371 0.635008
vt 0.362107 0.993722
vt 0.007869 0.994114
vt 0.980353 0.987902
vt 0.932569 0.969307
vt 0.993183 0.932921
vt 0.946882 0.919356
vt 0.941533 0.987514
vt 0.930990 0.938363
vt 0.988332 0.967347
vt 0.972722 0.916068
vt 0.930990 0.938363
vt 0.929780 0.979892
vt 0.966820 0.991519
vt 0.984517 0.931430
vt 0.930990 0.938363
vt 0.929780 0.979892
vt 0.981565 0.969156
vt 0.972722 0.916068
vt 0.451521 0.110349
vt 0.446464 0.239254
vt 0.405250 0.240375
vt 0.407883 0.110588
vt 0.791696 0.117797
vt 0.779142 0.625078
vt 0.752193 0.626392
vt 0.768523 0.117580
vt 0.692328 0.120883
vt 0.705498 0.626150
vt 0.680128 0.627278
vt 0.675638 0.120552
vt 0.768523 0.117580
vt 0.752193 0.626392
vt 0.728321 0.626090
vt 0.713805 0.118645
vt 0.713805 0.118645
vt 0.728321 0.626090
vt 0.705498 0.626150
vt 0.692328 0.120883
vt 0.705498 0.626150
vt 0.692328 0.120883
vt 0.713805 0.118645
vt 0.728321 0.626090
vt 0.918557 0.041561
vt 0.920662 0.566942
vt 0.887230 0.565009
vt 0.902256 0.040213
vt 0.829571 0.522933
vt 0.829801 0.114485
vt 0.839183 0.117909
vt 0.838414 0.526572
vt 0.803578 0.527684
vt 0.803252 0.119126
vt 0.815866 0.114212
vt 0.816202 0.522614
vt 0.918557 0.041561
vt 0.920662 0.566942
vt 0.864006 0.563331
vt 0.890706 0.039337
vt 0.418701 0.239739
vt 0.424675 0.110354
vt 0.475882 0.110640
vt 0.475346 0.239498
vt 0.643670 0.111179
vt 0.631093 0.240109
vt 0.587770 0.240022
vt 0.594639 0.111096
vt 0.418701 0.239739
vt 0.475346 0.239498
vt 0.475882 0.110640
vt 0.424675 0.110354
vt 0.387714 0.255196
vt 0.386954 0.622909
vt 0.653863 0.622978
vt 0.653750 0.255370
vt 0.768523 0.117580
vt 0.721691 0.118324
vt 0.765667 0.625735
vt 0.779142 0.625078
vt 0.692328 0.120883
vt 0.658948 0.120221
vt 0.680128 0.627278
vt 0.705498 0.626150
vt 0.721691 0.118324
vt 0.713805 0.118645
vt 0.746994 0.625913
vt 0.765667 0.625735
vt 0.713805 0.118645
vt 0.692328 0.120883
vt 0.705498 0.626150
vt 0.746994 0.625913
vt 0.721691 0.118324
vt 0.692328 0.120883
vt 0.705498 0.626150
vt 0.746994 0.625913
vt 0.705498 0.626150
vt 0.746994 0.625913
vt 0.713805 0.118645
vt 0.692328 0.120883
vt 0.721691 0.118324
vt 0.692328 0.120883
vt 0.716910 0.626120
vt 0.765667 0.625735
vt 0.918557 0.041561
vt 0.890706 0.039337
vt 0.887230 0.565009
vt 0.920662 0.566942
vt 0.009588 0.210990
vt 0.012175 0.289912
vt 0.371158 0.287439
vt 0.370659 0.214623
vt 0.013130 0.635652
vt 0.007869 0.994114
vt 0.362107 0.993722
vt 0.362371 0.635008
vt 0.825205 0.522286
vt 0.838414 0.526572
vt 0.839183 0.117909
vt 0.825152 0.113860
vt 0.803578 0.527684
vt 0.811566 0.523589
vt 0.811230 0.115187
vt 0.803252 0.119126
vt 0.918557 0.041561
vt 0.890706 0.039337
vt 0.864006 0.563331
vt 0.920662 0.566942
vt 0.580964 0.239999
vt 0.631093 0.240109
vt 0.643670 0.111179
vt 0.587838 0.111067
vt 0.713805 0.118645
vt 0.675638 0.120552
vt 0.692813 0.626714
vt 0.746994 0.625913
vt 0.768523 0.117580
vt 0.752193 0.626392
vt 0.728321 0.626090
vt 0.713805 0.118645
vt 0.692813 0.626714
vt 0.675638 0.120552
vt 0.475346 0.239498
vt 0.518533 0.239712
vt 0.518804 0.110821
vt 0.475882 0.110640
vt 0.418701 0.239739
vt 0.424675 0.110354
vn -0.96425 0.248612 0.09173199999999998
vn -0.195529 0.963186 0.18450299999999994
vn -0.708667 -0.699509 -0.09207599999999996
vn -0.708667 -0.699509 -0.09207599999999996
vn 0.195363 -0.963296 -0.18410199999999993
vn -0.96425 0.248612 0.09173199999999998
vn 0.998782 0.047021 0.014966999999999996
vn 0.775805 0.630924 0.007833999999999963
vn 0.616006 -0.787048 0.03304600000000005
vn 0.616006 -0.787048 0.03304600000000005
vn -0.081026 -0.996504 0.02036600000000006
vn 0.998782 0.047021 0.014966999999999996
vn 0.611468 0.765216 0.20137499999999994
vn 0.240926 -0.955115 -0.17236699999999994
vn 0.988755 -0.140791 0.05041400000000001
vn 0.988755 -0.140791 0.05041400000000001
vn -0.2907 0.942251 0.16629999999999995
vn 0.611468 0.765216 0.20137499999999994
vn -0.974631 0.22228 -0.026202000000000013
vn 0.064103 -0.997859 0.01294500000000006
vn -0.697339 -0.716368 -0.023150999999999956
vn -0.697339 -0.716368 -0.023150999999999956
vn -0.55977 0.825816 -0.06844800000000005
vn -0.974631 0.22228 -0.026202000000000013
vn 0.543469 -0.834792 0.08811200000000005
vn 0.932139 -0.361748 0.01596000000000002
vn -0.341581 -0.935741 0.08781000000000005
vn -0.767397 -0.637139 0.07180100000000005
vn 0.543469 -0.834792 0.08811200000000005
vn 0.828533 0.553757 -0.08298500000000003
vn 0.254505 0.958205 -0.13065300000000005
vn 0.932139 -0.361748 0.01596000000000002
vn 0.543469 -0.834792 0.08811200000000005
vn 0.828533 0.553757 -0.08298500000000003
vn -0.661433 0.745986 -0.07753300000000005
vn -0.97327 0.224914 -0.046460000000000015
vn 0.254505 0.958205 -0.13065300000000005
vn 0.828533 0.553757 -0.08298500000000003
vn -0.661433 0.745986 -0.07753300000000005
vn -0.987495 -0.120377 -0.10180199999999999
vn -0.325637 -0.530967 -0.782326
vn -0.617457 0.40817300000000006 0.672415
vn -0.617457 0.40817300000000006 0.672415
vn 0.27693 0.539731 0.794985
vn 0.641337 -0.39420900000000003 -0.658245
vn 0.968457 0.173492 0.178863
vn -0.325637 -0.530967 -0.782326
vn -0.987495 -0.120377 -0.10180199999999999
vn 0.641337 -0.39420900000000003 -0.658245
vn -0.656265 0.753449 -0.040385000000000046
vn 0.264083 0.957753 -0.11388400000000005
vn -0.97973 -0.177986 0.09192900000000001
vn -0.198684 -0.969181 0.14565000000000006
vn -0.656265 0.753449 -0.040385000000000046
vn -0.198684 -0.969181 0.14565000000000006
vn -0.97973 -0.177986 0.09192900000000001
vn 0.743016 -0.66686 0.056792000000000044
vn 0.743016 -0.66686 0.056792000000000044
vn 0.966153 0.249332 -0.06619300000000002
vn -0.970701 0.240192 0.006879999999999985
vn -0.163246 0.985118 -0.053795000000000065
vn -0.696425 -0.713857 0.07348700000000004
vn -0.696425 -0.713857 0.07348700000000004
vn 0.377027 -0.922711 0.08034900000000006
vn 0.377027 -0.922711 0.08034900000000006
vn -0.696425 -0.713857 0.07348700000000004
vn 0.988381 -0.151099 0.01649500000000001
vn 0.988381 -0.151099 0.01649500000000001
vn 0.760704 0.647884 -0.03970000000000004
vn -0.022387 0.999749 0.00022099999999993877
vn -0.59713 0.802128 0.00510099999999995
vn 0.775805 0.630924 0.007833999999999963
vn 0.998782 0.047021 0.014966999999999996
vn -0.022387 0.999749 0.00022099999999993877
vn -0.970976 -0.149735 0.186508
vn 0.2115 -0.38189599999999996 0.89968
vn -0.743014 0.22760999999999998 -0.629383
vn -0.743014 0.22760999999999998 -0.629383
vn 0.635476 0.3492279999999999 -0.688629
vn -0.584535 -0.811333 0.00761600000000005
vn 0.974235 -0.223417 0.030832000000000012
vn 0.345505 -0.937992 0.02824600000000006
vn -0.946267 -0.323387 1.9801742721793254E-17
vn -0.584535 -0.811333 0.00761600000000005
vn -0.013639 -0.03462000000000006 -0.999308
vn -0.002589 0.733479 0.679707
vn -0.022531 0.825646 -0.563739
vn -0.022531 0.825646 -0.563739
vn 0.012983 -0.952852 -0.30315699999999995
vn 0.023432 -0.754656 0.655702
vn -0.013639 -0.03462000000000006 -0.999308
vn 0.012983 -0.952852 -0.30315699999999995
vn 0.017442 -0.14338899999999993 0.989513
vn 0.023432 -0.754656 0.655702
vn 0.044216 -0.971101 0.23453900000000005
vn -0.004867 0.612491 0.790463
vn 0.035379 -0.32723899999999995 0.944279
vn 0.035379 -0.32723899999999995 0.944279
vn -0.011045 -0.26982200000000006 -0.962847
vn -0.041938 0.623612 -0.780608
vn 0.044216 -0.971101 0.23453900000000005
vn -0.011045 -0.26982200000000006 -0.962847
vn -0.04105 0.991231 -0.12560000000000004
vn -0.041938 0.623612 -0.780608
vn 0.999705 -0.004302999999999999 0.02391
vn 0.970718 -0.146808 -0.19014
vn -0.389433 -0.509246 -0.76747
vn -0.389433 -0.509246 -0.76747
vn -0.146801 -0.549213 -0.822688
vn 0.999705 -0.004302999999999999 0.02391
vn -0.874252 0.285019 0.392997
vn 0.014971 0.554216 0.832238
vn 0.014971 0.554216 0.832238
vn 0.970718 -0.146808 -0.19014
vn 0.648902 0.760847 0.006115999999999953
vn 0.19932 -0.97388 0.10876500000000006
vn 0.979469 -0.170818 0.10706400000000002
vn -0.264067 0.96121 -0.07964800000000005
vn 0.648902 0.760847 0.006115999999999953
vn 0.19932 -0.97388 0.10876500000000006
vn -0.965036 0.249879 -0.07916100000000001
vn -0.740627 -0.671835 0.010470000000000042
vn -0.740627 -0.671835 0.010470000000000042
vn 0.979469 -0.170818 0.10706400000000002
vn 0.979289 0.199061 0.03698299999999999
vn -0.254461 -0.965168 0.06082800000000006
vn 0.663028 -0.744413 0.07902000000000005
vn 0.663028 -0.744413 0.07902000000000005
vn 0.198226 0.979595 -0.033160000000000064
vn -0.254461 -0.965168 0.06082800000000006
vn -0.745939 0.664266 -0.048224000000000045
vn -0.964042 -0.26574 -0.0024289999999999837
vn -0.964042 -0.26574 -0.0024289999999999837
vn 0.663028 -0.744413 0.07902000000000005
vn 0.957275 -0.16129299999999996 0.240018
vn -0.222719 0.4365589999999999 -0.871672
vn 0.746109 0.26376499999999997 -0.61135
vn 0.746109 0.26376499999999997 -0.61135
vn -0.201942 -0.42029199999999994 0.884632
vn -0.222719 0.4365589999999999 -0.871672
vn -0.916509 -0.13859099999999996 0.375238
vn -0.94358 0.18100799999999997 -0.277294
vn -0.94358 0.18100799999999997 -0.277294
vn 0.746109 0.26376499999999997 -0.61135
vn -0.519051 0.854743 0.0005559999999999476
vn 0.745975 0.665775 0.016255999999999958
vn 0.271713 0.962377 0.001696999999999941
vn 0.271713 0.962377 0.001696999999999941
vn -0.86217 0.506619 -3.102146683686165E-17
vn -0.946267 -0.323387 1.9801742721793254E-17
vn -0.584535 -0.811333 0.00761600000000005
vn 0.011401 -0.547775 -0.836548
vn 0.004541 -0.553372 -0.832922
vn 0.011401 -0.547775 -0.836548
vn 0.018257 -0.542129 -0.840097
vn 0.000747 0.15925200000000006 0.987238
vn -0.004393 0.16327800000000006 0.98657
vn -0.004393 0.16327800000000006 0.98657
vn -0.009535 0.16729800000000006 0.98586
vn 0.084697 0.00037600000000006096 0.996407
vn 0.078042 -0.000988999999999939 0.99695
vn 0.078042 -0.000988999999999939 0.99695
vn 0.071385 -0.002352999999999939 0.997446
vn 0 6.123233995736766E-17 1
vn 0 6.123233995736766E-17 1
vn 0 6.123233995736766E-17 1
vn 0 6.123233995736766E-17 1
vn -0.145425 0.010434000000000061 0.989314
vn -0.128622 0.003439000000000061 0.991688
vn -0.145425 0.010434000000000061 0.989314
vn -0.162186 0.017428000000000058 0.986606
vn -0.97327 0.224914 -0.046460000000000015
vn -0.661433 0.745986 -0.07753300000000005
vn -0.767397 -0.637139 0.07180100000000005
vn -0.341581 -0.935741 0.08781000000000005
vn -0.815756 -0.058129000000000035 -0.575467
vn -0.816215 -0.05800100000000003 -0.57483
vn -0.815756 -0.058129000000000035 -0.575467
vn -0.815297 -0.05825800000000003 -0.576105
vn -0.714533 0.06776700000000004 0.696311
vn -0.714086 0.06786500000000004 0.696761
vn -0.714533 0.06776700000000004 0.696311
vn -0.714981 0.06766900000000005 0.695862
vn 0.714349 -0.06507500000000004 -0.696758
vn 0.714025 -0.06507200000000005 -0.697089
vn 0.714349 -0.06507500000000004 -0.696758
vn 0.714672 -0.06507800000000004 -0.696425
vn 0.815815 0.060482000000000036 0.575141
vn 0.816176 0.06048500000000003 0.574629
vn 0.815815 0.060482000000000036 0.575141
vn 0.815454 0.06047800000000003 0.575654
vn 0.27693 0.539731 0.794985
vn -0.617457 0.40817300000000006 0.672415
vn 0.968457 0.173492 0.178863
vn 0.641337 -0.39420900000000003 -0.658245
vn 0.966153 0.249332 -0.06619300000000002
vn 0.743016 -0.66686 0.056792000000000044
vn 0.264083 0.957753 -0.11388400000000005
vn -0.656265 0.753449 -0.040385000000000046
vn 0.195363 -0.963296 -0.18410199999999993
vn -0.708667 -0.699509 -0.09207599999999996
vn 0.945668 -0.308928 -0.10136799999999999
vn 0.749265 0.657074 0.08280199999999996
vn 0.749265 0.657074 0.08280199999999996
vn 0.945668 -0.308928 -0.10136799999999999
vn -0.195529 0.963186 0.18450299999999994
vn -0.96425 0.248612 0.09173199999999998
vn 0.760704 0.647884 -0.03970000000000004
vn 0.988381 -0.151099 0.01649500000000001
vn -0.163246 0.985118 -0.053795000000000065
vn -0.970701 0.240192 0.006879999999999985
vn -0.999311 0.018157000000000003 0.032368
vn -0.85217 -0.523064 0.01449700000000003
vn -0.59713 0.802128 0.00510099999999995
vn -0.022387 0.999749 0.00022099999999993877
vn -0.85217 -0.523064 0.01449700000000003
vn -0.999311 0.018157000000000003 0.032368
vn -0.081026 -0.996504 0.02036600000000006
vn 0.616006 -0.787048 0.03304600000000005
vn 0.974235 -0.223417 0.030832000000000012
vn 0.271713 0.962377 0.001696999999999941
vn 0.745975 0.665775 0.016255999999999958
vn 0.345505 -0.937992 0.02824600000000006
vn -0.043176 0.995635 -0.08274900000000006
vn -0.059343 0.992604 -0.10590400000000005
vn -0.043176 0.995635 -0.08274900000000006
vn -0.02697 0.997863 -0.05952200000000006
vn 0.815758 -0.058129000000000035 -0.575464
vn 0.815298 -0.05825800000000003 -0.576104
vn 0.815758 -0.058129000000000035 -0.575464
vn 0.816219 -0.05800000000000004 -0.574825
vn 0.714535 0.06776700000000004 0.69631
vn 0.714981 0.06766900000000005 0.695862
vn 0.714535 0.06776700000000004 0.69631
vn 0.714088 0.06786500000000004 0.696758
vn -0.714343 -0.06507500000000004 -0.696763
vn -0.714668 -0.06507800000000004 -0.69643
vn -0.714343 -0.06507500000000004 -0.696763
vn -0.714019 -0.06507200000000005 -0.697096
vn -0.815816 0.060481000000000035 0.57514
vn -0.815455 0.06047800000000003 0.575652
vn -0.815816 0.060481000000000035 0.57514
vn -0.816177 0.06048500000000003 0.574627
vn -0.002589 0.733479 0.679707
vn 0.023432 -0.754656 0.655702
vn 0.017442 -0.14338899999999993 0.989513
vn -0.022531 0.825646 -0.563739
vn -0.004867 0.612491 0.790463
vn -0.041938 0.623612 -0.780608
vn -0.04105 0.991231 -0.12560000000000004
vn 0.035379 -0.32723899999999995 0.944279
vn -0.389433 -0.509246 -0.76747
vn 0.014971 0.554216 0.832238
vn -0.874252 0.285019 0.392997
vn -0.146801 -0.549213 -0.822688
vn -0.965036 0.249879 -0.07916100000000001
vn 0.648902 0.760847 0.006115999999999953
vn -0.264067 0.96121 -0.07964800000000005
vn -0.740627 -0.671835 0.010470000000000042
vn 0.013096 0.10544500000000005 0.994339
vn 0.012831 0.10412100000000006 0.994482
vn 0.013096 0.10544500000000005 0.994339
vn 0.01336 0.10676900000000006 0.994194
vn -0.011401 0.547775 0.836548
vn -0.018257 0.542129 0.840097
vn -0.011401 0.547775 0.836548
vn -0.004541 0.553372 0.832922
vn 0.240926 -0.955115 -0.17236699999999994
vn -0.971182 0.236525 -0.029337000000000012
vn -0.710638 -0.677109 -0.19109399999999999
vn 0.988755 -0.140791 0.05041400000000001
vn -0.971182 0.236525 -0.029337000000000012
vn 0.611468 0.765216 0.20137499999999994
vn -0.2907 0.942251 0.16629999999999995
vn -0.710638 -0.677109 -0.19109399999999999
vn -0.745939 0.664266 -0.048224000000000045
vn 0.979289 0.199061 0.03698299999999999
vn 0.198226 0.979595 -0.033160000000000064
vn -0.964042 -0.26574 -0.0024289999999999837
vn 0.064103 -0.997859 0.01294500000000006
vn 0.993096 0.087555 0.078068
vn 0.864254 -0.501336 0.04156600000000003
vn -0.697339 -0.716368 -0.023150999999999956
vn -0.916509 -0.13859099999999996 0.375238
vn 0.957275 -0.16129299999999996 0.240018
vn -0.201942 -0.42029199999999994 0.884632
vn -0.94358 0.18100799999999997 -0.277294
vn 0.635476 0.3492279999999999 -0.688629
vn -0.743014 0.22760999999999998 -0.629383
vn 0.997869 0.0634 0.015409999999999997
vn 0.873503 -0.14440499999999998 0.464908
vn 0.2115 -0.38189599999999996 0.89968
vn -0.970976 -0.149735 0.186508
vn 0.270679 0.962669 -0.000733000000000059
vn -0.974631 0.22228 -0.026202000000000013
vn -0.55977 0.825816 -0.06844800000000005
vn 0.600205 0.799493 0.023764999999999953
vn 0.993096 0.087555 0.078068
vn 0.864254 -0.501336 0.04156600000000003
g 04
f 1/1/1 2/2/2 3/3/3
f 4/4/4 5/5/5 6/6/6
f 7/7/7 8/8/8 9/9/9
f 10/10/10 11/11/11 12/12/12
f 13/13/13 14/14/14 15/15/15
f 16/16/16 17/17/17 18/18/18
f 19/19/19 20/20/20 21/21/21
f 22/22/22 23/23/23 24/24/24
f 25/25/25 26/26/26 27/27/27
f 27/27/27 28/28/28 29/29/29
f 30/30/30 31/31/31 32/32/32
f 32/32/32 33/33/33 34/34/34
f 35/35/35 36/36/36 37/37/37
f 37/37/37 38/38/38 39/39/39
f 40/40/40 41/41/41 42/42/42
f 43/43/43 44/44/44 40/40/40
f 45/45/45 46/46/46 47/47/47
f 47/47/47 48/48/48 49/49/49
f 50/50/50 51/51/51 52/52/52
f 52/52/52 53/53/53 54/54/54
f 55/55/55 56/56/56 57/57/57
f 58/58/58 59/59/59 55/55/55
f 60/60/60 61/61/61 62/62/62
f 63/63/63 64/64/64 60/60/60
f 65/65/65 66/66/66 67/67/67
f 68/68/68 69/69/69 65/65/65
f 70/70/70 71/71/71 72/72/72
f 72/72/72 73/73/73 74/74/74
f 75/75/75 76/76/76 77/77/77
f 78/78/78 79/79/79 75/75/75
f 80/80/80 81/81/81 82/82/82
f 82/82/82 83/83/83 84/84/84
f 85/85/85 86/86/86 87/87/87
f 88/88/88 89/89/89 85/85/85
f 90/90/90 91/91/91 92/92/92
f 92/92/92 93/93/93 94/94/94
f 95/95/95 96/96/96 97/97/97
f 98/98/98 99/99/99 95/95/95
f 100/100/100 101/101/101 102/102/102
f 102/102/102 103/103/103 104/104/104
f 105/105/105 106/106/106 107/107/107
f 108/108/108 109/109/109 105/105/105
f 110/110/110 111/111/111 112/112/112
f 113/113/113 114/114/114 110/110/110
f 115/115/115 116/116/116 117/117/117
f 117/117/117 118/118/118 119/119/119
f 120/120/120 121/121/121 122/122/122
f 123/123/123 124/124/124 120/120/120
f 125/125/125 126/126/126 127/127/127
f 128/128/128 129/129/129 125/125/125
f 130/130/130 131/131/131 132/132/132
f 133/133/133 134/134/134 130/130/130
f 135/135/135 136/136/136 137/137/137
f 138/138/138 139/139/139 135/135/135
f 140/140/140 141/141/141 142/142/142
f 143/143/143 144/144/144 140/140/140
f 145/145/145 146/146/146 147/147/147
f 148/148/148 149/149/149 145/145/145
f 150/150/150 145/145/145 149/149/149
f 149/149/149 151/151/151 150/150/150
f 152/152/152 153/153/153 154/154/154
f 154/154/154 155/155/155 152/152/152
f 156/156/156 157/157/157 158/158/158
f 157/157/157 159/159/159 158/158/158
f 160/160/160 161/161/161 162/162/162
f 161/161/161 163/163/163 162/162/162
f 164/164/164 165/165/165 166/166/166
f 167/167/167 164/164/164 166/166/166
f 168/168/168 169/169/169 170/170/170
f 171/171/171 168/168/168 170/170/170
f 172/172/172 173/173/173 174/174/174
f 174/174/174 175/175/175 172/172/172
f 176/176/176 177/177/177 178/178/178
f 178/178/178 179/179/179 176/176/176
f 180/180/180 181/181/181 182/182/182
f 182/182/182 183/183/183 180/180/180
f 184/184/184 185/185/185 186/186/186
f 186/186/186 187/187/187 184/184/184
f 188/188/188 189/189/189 190/190/190
f 190/190/190 191/191/191 188/188/188
f 192/192/192 193/193/193 194/194/194
f 194/194/194 195/195/195 192/192/192
f 196/196/196 197/197/197 198/198/198
f 198/198/198 199/199/199 196/196/196
f 200/200/200 201/201/201 202/202/202
f 202/202/202 203/203/203 200/200/200
f 204/204/204 205/205/205 206/206/206
f 206/206/206 207/207/207 204/204/204
f 208/208/208 209/209/209 210/210/210
f 210/210/210 211/211/211 208/208/208
f 212/212/212 213/213/213 214/214/214
f 214/214/214 215/215/215 212/212/212
f 216/216/216 217/217/217 218/218/218
f 218/218/218 219/219/219 216/216/216
f 220/220/220 221/221/221 222/222/222
f 222/222/222 223/223/223 220/220/220
f 224/224/224 225/225/225 226/226/226
f 226/226/226 227/227/227 224/224/224
f 228/228/228 229/229/229 230/230/230
f 230/230/230 231/231/231 228/228/228
f 232/232/232 233/233/233 234/234/234
f 234/234/234 235/235/235 232/232/232
f 236/236/236 237/237/237 238/238/238
f 238/238/238 239/239/239 236/236/236
f 240/240/240 241/241/241 242/242/242
f 242/242/242 243/243/243 240/240/240
f 244/244/244 245/245/245 246/246/246
f 246/246/246 247/247/247 244/244/244
f 248/248/248 249/249/249 250/250/250
f 250/250/250 251/251/251 248/248/248
f 252/252/252 253/253/253 254/254/254
f 254/254/254 255/255/255 252/252/252
f 256/256/256 257/257/257 258/258/258
f 258/258/258 259/259/259 256/256/256
f 260/260/260 261/261/261 262/262/262
f 262/262/262 263/263/263 260/260/260
f 264/264/264 265/265/265 266/266/266
f 266/266/266 267/267/267 264/264/264
f 268/268/268 269/269/269 270/270/270
f 270/270/270 271/271/271 268/268/268
f 272/272/272 273/273/273 274/274/274
f 274/274/274 275/275/275 272/272/272
f 276/276/276 277/277/277 278/278/278
f 278/278/278 279/279/279 276/276/276
f 280/280/280 281/281/281 282/282/282
f 282/282/282 283/283/283 280/280/280
f 284/284/284 285/285/285 286/286/286
f 286/286/286 287/287/287 284/284/284
f 288/288/288 289/289/289 290/290/290
f 290/290/290 291/291/291 288/288/288
f 291/291/291 290/290/290 292/292/292
f 292/292/292 293/293/293 291/291/291
f 294/294/294 295/295/295 296/296/296
f 296/296/296 297/297/297 294/294/294
f 298/298/298 294/294/294 297/297/297
f 297/297/297 299/299/299 298/298/298
