v -0.14789645 0.1391533 0.43124315
v -0.27204645 0.12948975000000004 0.44673785000000005
v -0.2719886 0.12849135000000003 0.45325085
v -0.14783795 0.13815490000000002 0.43775615000000007
v -0.27191385 0.12469860000000003 0.44907395000000006
v -0.1408862 0.13453505000000002 0.43354415
v -0.14789645 0.1391533 0.43124315
v -0.27204645 0.12948975000000004 0.44673785000000005
v -0.2719886 0.12849135000000003 0.45325085
v -0.27204645 0.12948975000000004 0.44673785000000005
v -0.39646165 0.12435735000000002 0.43120415
v -0.3964038 0.12335895000000002 0.43771715
v -0.27191385 0.12469860000000003 0.44907395000000006
v -0.40320734999999996 0.11939330000000004 0.43357535
v -0.39646165 0.12435735000000002 0.43120415
v -0.27204645 0.12948975000000004 0.44673785000000005
v -0.25441779999999997 0.07020845000000003 0.4029805
v -0.25435605 -0.05563869999999997 0.40460745000000004
v -0.26541515 -0.05628544999999998 0.40460745000000004
v -0.2800278 0.06871020000000003 0.4029805
v -0.2600325 0.10244780000000002 0.41469285000000006
v -0.2782104 0.10138440000000003 0.41469285000000006
v -0.2634827 0.18339490000000006 0.41654470000000005
v -0.28422225 0.18218200000000004 0.41654470000000005
v -0.26515320000000003 0.027186900000000024 0.39177645
v -0.26863135 0.08377525000000002 0.42694210000000005
v -0.2613923 0.07407790000000003 0.4330781
v -0.25997985 0.021167250000000023 0.39732095
v -0.26172510000000004 -0.03141449999999998 0.38839255000000006
v -0.2740946 0.07333495000000004 0.4330781
v -0.2688907 0.020645950000000024 0.39732095
v -0.26515320000000003 0.027186900000000024 0.39177645
v -0.26863135 0.08377525000000002 0.42694210000000005
v -0.39473655 0.12589590000000003 0.42891225000000005
v -0.2818907 0.16152305000000003 0.43055545
v -0.28174315 0.15899845000000004 0.44702580000000003
v -0.3946332 0.12412465000000002 0.440466
v -0.40670304999999995 0.11708905000000001 0.43311905
v -0.28271425 0.17559425000000006 0.44075395
v -0.40215955000000003 0.13118040000000003 0.43523805
v -0.39473655 0.12589590000000003 0.42891225000000005
v -0.2818907 0.16152305000000003 0.43055545
v -0.15047955 0.14018485000000003 0.42891225000000005
v -0.26670995000000003 0.16241095000000003 0.43055545
v -0.26753350000000004 0.17648280000000002 0.44075395
v -0.14372345 0.14629940000000002 0.43523805
v -0.1375686 0.13283400000000004 0.43311905
v -0.26656240000000003 0.15988635000000004 0.44702580000000003
v -0.15037620000000002 0.13841360000000003 0.440466
v -0.15047955 0.14018485000000003 0.42891225000000005
v -0.26670995000000003 0.16241095000000003 0.43055545
v -0.26541515 -0.05628544999999998 0.40460745000000004
v -0.25435605 -0.05563869999999997 0.40460745000000004
v -0.25432095000000005 -0.05623539999999997 0.41876575000000005
v -0.26538005000000003 -0.05688214999999998 0.41876575000000005
v -0.2800278 0.06871020000000003 0.4029805
v -0.26541515 -0.05628544999999998 0.40460745000000004
v -0.27950780000000003 0.06354400000000003 0.43676490000000007
v -0.2782104 0.10138440000000003 0.41469285000000006
v -0.254332 0.06501690000000003 0.43676490000000007
v -0.25435605 -0.05563869999999997 0.40460745000000004
v -0.25441779999999997 0.07020845000000003 0.4029805
v -0.2779738 0.09734465000000002 0.44104580000000004
v -0.28422225 0.18218200000000004 0.41654470000000005
v -0.28431845 0.18382585000000004 0.45358885000000004
v -0.25979655 0.09840805000000002 0.44104580000000004
v -0.2600325 0.10244780000000002 0.41469285000000006
v -0.2635789 0.18503875000000006 0.45358885000000004
v -0.2634827 0.18339490000000006 0.41654470000000005
v -0.28422225 0.18218200000000004 0.41654470000000005
v -0.2634827 0.18339490000000006 0.41654470000000005
v -0.258973 0.21459230000000004 0.43824820000000003
v -0.26096005 0.17875650000000004 0.43749615
v -0.26349635 0.17495140000000003 0.44052385000000005
v -0.26305045000000005 0.21036860000000004 0.443417
v -0.2610348 0.18002660000000004 0.44363475
v -0.26096005 0.17875650000000004 0.43749615
v -0.28779725 0.20892040000000003 0.443417
v -0.29233945 0.21264035000000006 0.43824820000000003
v -0.28618655 0.17728035000000006 0.43749615
v -0.2832245 0.17379765000000003 0.44052385000000005
v -0.25901525 0.21531965000000006 0.4479332
v -0.258973 0.21459230000000004 0.43824820000000003
v -0.29233945 0.21264035000000006 0.43824820000000003
v -0.2923817 0.21336770000000005 0.4479332
v -0.2862613 0.17855110000000005 0.44363475
v -0.28618655 0.17728035000000006 0.43749615
vt 0.048695 0.621938
vt 0.048939 0.484683
vt 0.060266 0.484693
vt 0.060104 0.621094
vt 0.069849 0.484535
vt 0.069383 0.628764
vt 0.079757 0.621742
vt 0.078957 0.484696
vt 0.029084 0.482951
vt 0.040411 0.482961
vt 0.040021 0.620216
vt 0.028616 0.619352
vt 0.019501 0.483109
vt 0.019827 0.627339
vt 0.009805 0.619992
vt 0.010393 0.482948
vt 0.163202 0.467087
vt 0.146157 0.578716
vt 0.120248 0.578716
vt 0.103203 0.467087
vt 0.154496 0.436385
vt 0.111911 0.436385
vt 0.157498 0.364393
vt 0.108909 0.364393
vt 0.171597 0.276208
vt 0.180174 0.337049
vt 0.158171 0.332751
vt 0.155621 0.273486
vt 0.149015 0.224008
vt 0.136446 0.332709
vt 0.139826 0.273390
vt 0.124427 0.276031
vt 0.114859 0.336854
vt 0.247457 0.027148
vt 0.295655 0.145437
vt 0.256953 0.148394
vt 0.223840 0.030922
vt 0.214512 0.015736
vt 0.216805 0.154047
vt 0.202280 0.027929
vt 0.181752 0.028444
vt 0.176583 0.149712
vt 0.041840 0.136103
vt 0.030138 0.014915
vt 0.070116 0.010181
vt 0.062385 0.136410
vt 0.075293 0.148475
vt 0.110558 0.015430
vt 0.083783 0.133196
vt 0.107602 0.136735
vt 0.149409 0.018002
vt 0.141335 0.869024
vt 0.115424 0.869022
vt 0.115182 0.856432
vt 0.141586 0.856433
vt 0.234941 0.747971
vt 0.175091 0.858160
vt 0.156477 0.748048
vt 0.214529 0.717497
vt 0.100291 0.748048
vt 0.081677 0.858160
vt 0.021826 0.747971
vt 0.150944 0.718079
vt 0.237355 0.646294
vt 0.152559 0.640117
vt 0.105823 0.718079
vt 0.042238 0.717496
vt 0.104208 0.640116
vt 0.019413 0.646293
vt 0.152683 0.607172
vt 0.104092 0.607171
vt 0.261126 0.720106
vt 0.260145 0.690025
vt 0.268146 0.686362
vt 0.276818 0.720018
vt 0.274541 0.690739
vt 0.283831 0.686835
vt 0.276813 0.746266
vt 0.261122 0.746175
vt 0.260085 0.776255
vt 0.268080 0.779919
vt 0.292416 0.719791
vt 0.314044 0.717719
vt 0.314035 0.748573
vt 0.292414 0.746497
vt 0.274482 0.775544
vt 0.283766 0.779450
vn -0.143154 0.569349 -0.809536
vn -0.035577 0.596021 -0.802181
vn -0.046981 0.785432 0.617162
vn 0.134049 -0.22647399999999995 0.964749
vn 0.057495 -0.989854 -0.12993299999999994
vn 0.065862 -0.995039 -0.07456799999999994
vn -0.143154 0.569349 -0.809536
vn -0.035577 0.596021 -0.802181
vn -0.046981 0.785432 0.617162
vn -0.035577 0.596021 -0.802181
vn 0.075012 0.570906 -0.817582
vn -0.106381 -0.25961399999999996 0.959835
vn 0.057495 -0.989854 -0.12993299999999994
vn 0.048199 -0.996577 -0.06716099999999994
vn 0.075012 0.570906 -0.817582
vn -0.035577 0.596021 -0.802181
vn 0.704843 0.15204799999999993 -0.692877
vn 0.816805 -0.400415 -0.415328
vn -0.28116 -0.686595 -0.670475
vn -0.72131 0.11423899999999995 -0.683126
vn 0.697923 0.22568199999999997 -0.679684
vn -0.71717 0.09521999999999996 -0.690363
vn 0.375747 0.43479199999999996 -0.818395
vn -0.698446 0.618249 -0.36047500000000005
vn 0.261877 0.33008099999999996 -0.9069
vn -0.545485 0.41451899999999997 -0.728437
vn 0.997897 0.053672 -0.036357
vn 0.682739 -0.35838699999999996 0.636731
vn -0.163672 -0.41785400000000006 -0.89365
vn -0.469748 -0.527026 0.708223
vn -0.977761 -0.133595 0.161667
vn 0.261877 0.33008099999999996 -0.9069
vn -0.545485 0.41451899999999997 -0.728437
vn 0.173087 -0.657272 -0.733508
vn -0.037481 0.15196599999999993 -0.987675
vn 0.255146 -0.894832 0.36630000000000007
vn -0.017079 -0.3688759999999999 0.929322
vn -0.691017 -0.705178 -0.15880399999999995
vn -0.304482 0.764096 0.568725
vn -0.611183 0.751125 -0.24953400000000006
vn 0.173087 -0.657272 -0.733508
vn -0.037481 0.15196599999999993 -0.987675
vn 0.014695 -0.10437100000000006 -0.99443
vn -0.155578 -0.767618 -0.621738
vn 0.202013 0.91002 -0.36201500000000003
vn 0.532013 0.740037 0.41146999999999995
vn 0.76853 -0.619793 -0.15880399999999997
vn 0.045706 -0.08935499999999995 0.994951
vn -0.064718 -0.865282 0.49709000000000003
vn 0.014695 -0.10437100000000006 -0.99443
vn -0.155578 -0.767618 -0.621738
vn -0.28116 -0.686595 -0.670475
vn 0.816805 -0.400415 -0.415328
vn 0.356815 -0.720004 0.595212
vn -0.754827 -0.541302 0.37044200000000005
vn -0.72131 0.11423899999999995 -0.683126
vn -0.28116 -0.686595 -0.670475
vn -0.698514 -0.10478999999999995 0.707882
vn -0.71717 0.09521999999999996 -0.690363
vn 0.70837 -0.05627199999999996 0.703594
vn 0.816805 -0.400415 -0.415328
vn 0.704843 0.15204799999999993 -0.692877
vn -0.700174 -0.11761299999999995 0.704218
vn -0.698446 0.618249 -0.36047500000000005
vn -0.454147 0.2789650000000001 0.846126
vn 0.705728 -0.010233999999999957 0.708409
vn 0.697923 0.22568199999999997 -0.679684
vn 0.662506 0.67947 0.31528699999999993
vn 0.375747 0.43479199999999996 -0.818395
vn -0.698446 0.618249 -0.36047500000000005
vn 0.375747 0.43479199999999996 -0.818395
vn -0.221024 -0.20328900000000005 -0.953846
vn 0.945469 -0.250735 -0.20789499999999997
vn -0.930277 -0.261508 -0.257289
vn -0.619192 -0.63532 0.46148700000000004
vn 0.237163 -0.3811129999999999 0.893592
vn 0.945469 -0.250735 -0.20789499999999997
vn 0.745963 -0.592855 -0.30341899999999994
vn -0.601162 0.48470899999999995 -0.635344
vn -0.176764 -0.39137700000000003 -0.903094
vn 0.842348 -0.20023399999999997 0.500356
vn 0.570328 0.542825 0.616496
vn -0.221024 -0.20328900000000005 -0.953846
vn -0.601162 0.48470899999999995 -0.635344
vn 0.181044 -0.16811499999999993 0.969
vn -0.861568 -0.375662 0.341437
vn -0.176764 -0.39137700000000003 -0.903094
g Mil_standard_prob
f 1/1/1 2/2/2 3/3/3
f 3/3/3 4/4/4 1/1/1
f 4/4/4 3/3/3 5/5/5
f 5/5/5 6/6/6 4/4/4
f 7/7/7 6/6/6 5/5/5
f 5/5/5 8/8/8 7/7/7
f 9/9/9 10/10/10 11/11/11
f 11/11/11 12/12/12 9/9/9
f 13/13/13 9/9/9 12/12/12
f 12/12/12 14/14/14 13/13/13
f 13/13/13 14/14/14 15/15/15
f 15/15/15 16/16/16 13/13/13
f 17/17/17 18/18/18 19/19/19
f 19/19/19 20/20/20 17/17/17
f 21/21/21 17/17/17 20/20/20
f 20/20/20 22/22/22 21/21/21
f 23/23/23 21/21/21 22/22/22
f 22/22/22 24/24/24 23/23/23
f 25/25/25 26/26/26 27/27/27
f 27/27/27 28/28/28 25/25/25
f 29/29/29 25/25/25 28/28/28
f 28/28/28 27/27/27 30/30/30
f 29/29/29 28/28/28 31/31/31
f 30/30/30 31/31/31 28/28/28
f 29/29/29 31/31/31 32/32/32
f 31/31/31 30/30/30 33/33/33
f 33/33/33 32/32/32 31/31/31
f 34/34/34 35/35/35 36/36/36
f 36/36/36 37/37/37 34/34/34
f 38/38/38 34/34/34 37/37/37
f 37/37/37 36/36/36 39/39/39
f 38/38/38 37/37/37 40/40/40
f 39/39/39 40/40/40 37/37/37
f 38/38/38 40/40/40 41/41/41
f 40/40/40 39/39/39 42/42/42
f 42/42/42 41/41/41 40/40/40
f 43/43/43 44/44/44 45/45/45
f 45/45/45 46/46/46 43/43/43
f 47/47/47 43/43/43 46/46/46
f 46/46/46 45/45/45 48/48/48
f 47/47/47 46/46/46 49/49/49
f 48/48/48 49/49/49 46/46/46
f 47/47/47 49/49/49 50/50/50
f 49/49/49 48/48/48 51/51/51
f 51/51/51 50/50/50 49/49/49
f 52/52/52 53/53/53 54/54/54
f 54/54/54 55/55/55 52/52/52
f 56/56/56 57/57/57 55/55/55
f 55/55/55 58/58/58 56/56/56
f 58/58/58 55/55/55 54/54/54
f 59/59/59 56/56/56 58/58/58
f 54/54/54 60/60/60 58/58/58
f 60/60/60 54/54/54 61/61/61
f 61/61/61 62/62/62 60/60/60
f 58/58/58 63/63/63 59/59/59
f 63/63/63 58/58/58 60/60/60
f 64/64/64 59/59/59 63/63/63
f 63/63/63 65/65/65 64/64/64
f 66/66/66 60/60/60 62/62/62
f 60/60/60 66/66/66 63/63/63
f 65/65/65 63/63/63 66/66/66
f 62/62/62 67/67/67 66/66/66
f 66/66/66 68/68/68 65/65/65
f 68/68/68 66/66/66 67/67/67
f 67/67/67 69/69/69 68/68/68
f 70/70/70 65/65/65 68/68/68
f 68/68/68 71/71/71 70/70/70
f 72/72/72 73/73/73 74/74/74
f 74/74/74 75/75/75 72/72/72
f 75/75/75 74/74/74 76/76/76
f 77/77/77 76/76/76 74/74/74
f 72/72/72 75/75/75 78/78/78
f 78/78/78 79/79/79 72/72/72
f 80/80/80 79/79/79 78/78/78
f 78/78/78 81/81/81 80/80/80
f 82/82/82 76/76/76 77/77/77
f 76/76/76 82/82/82 75/75/75
f 77/77/77 83/83/83 82/82/82
f 82/82/82 83/83/83 84/84/84
f 85/85/85 78/78/78 75/75/75
f 75/75/75 82/82/82 85/85/85
f 81/81/81 78/78/78 85/85/85
f 84/84/84 85/85/85 82/82/82
f 85/85/85 86/86/86 81/81/81
f 86/86/86 85/85/85 84/84/84
f 86/86/86 87/87/87 81/81/81
f 84/84/84 87/87/87 86/86/86
