v 0.997613 -0.324363 -0.00313399999999998
v 0.587055 -0.813647 -0.00313399999999995
v 0.474192 -0.596839 -0.0034369999999999635
v 0.547692 -0.363726 -0.003436999999999978
v 0.764501 -0.250863 -0.003133999999999985
v 0.96858 -0.3589629999999999 0.588108
v 1.065481 -0.545108 0.588108
v 1.002376 -0.745251 0.588108
v 0.816231 -0.842152 0.588108
v 0.616088 -0.779047 0.588108
v 0.519187 -0.592903 0.588108
v 0.582292 -0.39275899999999997 0.588108
v 0.768437 -0.29585799999999995 0.588108
v 0.807392 -0.48378299999999996 0.739734
v 0.90775 -0.35673399999999983 2.392768
v 0.963051 -0.46193399999999984 2.335425
v 0.927486 -0.5745669999999999 2.364751
v 0.822391 -0.6292769999999999 2.404146
v 0.709391 -0.5936479999999998 2.404146
v 0.654682 -0.4885519999999998 2.364751
v 0.69031 -0.37555199999999983 2.293608
v 0.795406 -0.3208429999999998 2.293608
v -1.143806 -0.769006 4.7088036821255474E-17
v -0.126516 -0.948382 5.807164903344825E-17
v -1.226473 -1.237833 7.579541106644828E-17
v -0.209182 -1.417209 8.677902327864106E-17
v -1.143806 -0.769006 0.2569350000000001
v -0.126516 -0.948382 0.25693600000000005
v -1.226473 -1.237833 0.2569350000000001
v -0.209182 -1.417209 0.2569360000000001
v -0.311465 0.02770100000000004 0.707787
v -0.242111 0.015472000000000043 0.707787
v -0.509915 -1.503318 0.7077870000000002
v -0.579269 -1.491089 0.7077870000000002
v -0.311465 0.027701000000000038 0.62273
v -0.242111 0.015472000000000038 0.62273
v -0.509915 -1.503318 0.6227300000000001
v -0.579269 -1.491089 0.6227300000000001
v -0.834661 -0.617871 3.7833687121798713E-17
v -0.834657 -0.617872 0.844287
v -0.712234 0.07642300000000006 0.844287
v -0.712238 0.076424 -4.6796203489018666E-18
v 0.038993 -0.771796 0.844287
v 0.038991 -0.771796 4.7258875049736536E-17
v 0.161393 -0.077621 4.752915459830835E-18
v 0.161395 -0.07762099999999994 0.844287
v -0.557263 -1.393294 0.6266360000000001
v -0.497671 -1.403801 0.6266360000000001
v -0.508204 -1.463534 0.6266360000000001
v -0.567796 -1.453026 0.6266360000000001
v -0.557263 -1.393294 -0.006688999999999915
v -0.497671 -1.403801 -0.006688999999999914
v -0.508204 -1.463533 -0.00668899999999991
v -0.567795 -1.453026 -0.00668899999999991
v -0.545957 -1.242275 0.7657370000000001
v -0.533933 -1.174079 0.7657370000000001
v -0.449015 -1.259368 0.7657370000000001
v -0.436991 -1.191172 0.7657370000000001
v -0.53395 -1.17418 0.7657370000000001
v -0.521926 -1.105984 0.7657370000000001
v -0.437009 -1.191273 0.7657370000000001
v -0.424984 -1.123078 0.7657370000000001
v -0.41954 -1.092204 0.7784440000000001
v -0.45441 -1.289962 0.7784440000000001
v -0.41954 -1.092204 0.7157280000000001
v -0.45441 -1.289962 0.7157280000000001
v -0.436296 -1.187234 0.5828660000000001
v -0.418434 -1.363966 0.4830760000000001
v -0.451906 -1.17463 0.6242500000000001
v -0.402088 -1.346214 0.47047200000000006
v -0.43556 -1.156878 0.6116460000000001
v -0.357448 -1.032696 0.48307600000000006
v -0.467801 -1.190147 0.6242500000000001
v -0.350136 -1.055693 0.47047200000000006
v -0.460488 -1.213144 0.6116460000000001
v -0.715271 0.981682 -6.700000000006011E-05
v -0.934839 1.000213 0.00013499999999993874
v -0.899203 0.946604 0.25000199999999995
v -0.723395 0.928711 0.24948099999999995
v -1.042776 0.25338 0.0003749999999999845
v -0.833204 0.21133800000000003 0.301957
v -1.030868 0.24979300000000002 0.302051
v 1.429318 0.932455 0.07836499999999995
v 1.427954 0.945445 0.07907799999999994
v 0.897353 0.910965 0.12698299999999996
v 0.898756 0.887148 0.12685699999999994
v 0.898143 1.147449 0.12330499999999993
v 1.0078 1.108354 0.011214999999999932
v 1.001546 0.934905 0.0056049999999999425
v 1.273045 1.125206 0.09218099999999993
v 0.920022 1.013746 0.09017699999999994
v 0.918695 1.013746 0.009610999999999937
v 0.849442 1.013746 -0.018703000000000063
v 0.799439 1.013746 0.05405699999999994
v 0.861097 1.013746 0.12108499999999994
v 0.800828 1.037519 0.05266199999999994
v 0.848125 1.037519 -0.018512000000000063
v 0.917888 1.037518 0.010764999999999936
v 0.918885 1.037518 0.08841299999999994
v 0.861171 1.037518 0.11882399999999993
v 1.426051 1.106295 0.07914299999999994
v 1.427461 1.119285 0.07842599999999993
v 1.251491 1.120233 0.09048199999999994
v 0.914904 1.141405 0.12027499999999994
v 0.914904 0.904126 0.12434399999999994
v 1.251491 0.930652 0.09455099999999994
v 0.897728 1.138832 0.12694799999999992
v 0.899156 1.162717 0.1268219999999999
v 0.898431 0.90017 0.12343699999999995
v 1.011752 1.107657 0.011214999999999932
v 1.264669 0.925617 0.09218099999999994
v 1.011838 0.938494 0.012169999999999943
v 1.1538 0.930261 -0.008095000000000057
v 1.154376 1.117519 -0.007147000000000068
v 1.147787 1.114294 -0.0008980000000000682
v 1.148075 0.934922 -0.0004250000000000572
v -1.222556 0.17317900000000006 1.069743
v -1.212479 0.23032600000000006 1.069743
v -1.150811 0.21945200000000006 1.069743
v -1.160888 0.16230500000000006 1.069743
v -0.959692 0.602611 0.36008699999999993
v -0.783188 0.571018 0.35978699999999997
v 1.434467 -0.512826 0.510033
v 0.979921 -0.3454479999999999 0.50983
v 1.015892 -0.756592 0.50983
v 0.598396 -0.800132 0.33560200000000007
v 1.310557 -0.161455 -0.00309399999999999
v 1.461886 -0.510427 -0.0030909999999999688
v 1.273291 -0.939892 -0.0030909999999999423
v 0.451714 -1.308291 0.33576600000000006
v 0.873842 -1.395652 0.3357810000000001
v 1.254804 -0.930416 0.33572100000000005
v 1.307532 -0.967847 0.5100180000000001
v 1.292865 -0.18253899999999998 0.510018
v 1.462955 -1.079459 0.33578700000000006
v 1.477908 -1.093464 -0.003066999999999933
v 0.874285 -1.413378 -0.0030689999999999134
v 0.439927 -1.3217 -0.003074999999999919
v 1.023545 -0.762974 0.33560200000000007
v -1.228489 0.16935200000000009 1.424945
v -1.216746 0.23595100000000008 1.424945
v -1.144878 0.2232790000000001 1.424945
v -1.156621 0.1566800000000001 1.424945
v -1.28239 1.278699 -0.010747000000000078
v -0.674877 1.171578 -0.010746000000000071
v -1.132526 1.252274 0.38375899999999996
v -0.689785 1.08703 -0.010746000000000066
v -1.297298 1.194151 -0.010747000000000072
v -1.147434 1.167726 0.38375899999999996
v -0.674877 1.171578 0.14386999999999991
v -1.297298 1.194151 0.14386999999999991
v -0.689785 1.08703 0.14386999999999994
v -1.28239 1.278699 0.14386999999999991
v -1.022749 1.232918 0.38375899999999996
v -1.037657 1.148369 0.38375899999999996
v -1.022576 1.232887 0.14386999999999991
v -1.036848 1.148227 0.14386999999999991
v -0.674877 1.171578 0.15340399999999993
v -0.678856 1.149014 0.15340399999999993
v -1.025919 1.210211 0.15340399999999993
v -1.022576 1.232887 0.15340399999999993
v -0.674877 1.171578 0.3552219999999999
v -0.678856 1.149014 0.3552219999999999
v -1.025919 1.210211 0.3552219999999999
v -1.022576 1.232887 0.3552219999999999
v 1.091038 -0.798476 0.43640000000000007
v 1.188625 -0.866807 0.43640000000000007
v 1.087929 -0.968156 0.39554000000000006
v 1.030241 -0.927762 0.39554000000000006
v -1.013926 -0.514993 3.1534226451664643E-17
v -0.704421 1.240292 -7.594598139040345E-17
v -0.84981 0.22221300000000005 1.030199
v -0.849206 0.222106 0.2138
v -0.900881 -0.07095699999999999 0.2138
v -0.934582 -0.065014 3.980959349988301E-18
v -0.882907 0.228049 -1.3963973894937737E-17
v -0.900882 -0.07095699999999994 1.026164
v -0.670819 1.234496 0.2137999999999999
v 0.738825 0.28466600000000003 0.669128
v 0.56777 -0.685434 0.669128
v 0.244357 -0.628407 0.776746
v 0.415412 0.3416930000000001 0.776746
v 0.228089 -0.611748 0.4891460000000001
v 0.463811 -0.653313 0.699787
v 0.228089 -0.611748 0.537237
v 0.426572 -0.646746 0.713386
v -0.849206 0.222106 0.2138
v -0.670819 1.234496 1.030199
v -0.83252 0.40543200000000007 0.96396
v -0.9983 0.4346630000000001 0.60296
v -0.825936 0.44277200000000005 0.96396
v -0.991716 0.47200400000000003 0.60296
v -0.965144 0.622702 0.60296
v -0.783128 0.6291090000000001 0.974816
v -1.096269 0.839709 0.775656
v -0.859093 0.25473300000000004 0.96396
v -1.024872 0.2839650000000001 0.60296
v -0.799364 0.5934710000000001 0.96396
v -0.756555 0.7798080000000001 0.974816
v -1.122842 0.68901 0.775656
v -1.1941 0.023176000000000106 1.757958
v -1.106954 0.2626070000000001 1.757958
v -0.82809 0.1611080000000001 1.940454
v -0.915236 -0.07832199999999988 1.940454
v 0.885663 0.220737 -0.0066890000000000135
v 0.962269 0.207229 -0.006689000000000013
v 0.870287 -0.3144239999999999 1.243648
v 0.793681 -0.30091599999999996 1.243648
v 0.951737 0.147497 -0.006689000000000008
v 0.870388 -0.31385199999999996 1.119908
v 0.766685 -0.29703899999999994 1.273156
v 0.766685 -0.29703899999999994 1.096986
v 0.987772 -0.33602199999999993 1.096987
v 1.039833 -0.34520199999999995 1.273156
v 0.756153 -0.35677099999999995 1.096986
v 0.977239 -0.39575499999999997 1.096987
v 0.756153 -0.35677099999999995 1.273156
v 1.029301 -0.40493399999999996 1.273156
v 1.039833 -0.34520199999999995 1.190071
v 1.0293 -0.40493399999999996 1.190071
v 0.874529 -0.268919 -0.006688999999999983
v 0.901378 -0.11665499999999995 0.666328
v 0.885061 -0.209187 -0.006688999999999987
v 0.909306 -0.07169099999999996 0.567073
v 1.097723 0.174989 -0.00668900000000001
v 1.170819 0.148384 -0.006689000000000008
v 0.992099 -0.3354889999999999 1.243648
v 0.916549 -0.32279699999999995 1.243648
v 1.150075 0.091388 -0.006689000000000005
v 0.98985 -0.34882499999999994 1.119908
v 0.999683 -0.305616 -0.0066889999999999806
v 1.052565 -0.16032699999999997 0.666328
v 1.020428 -0.24862 -0.006688999999999984
v 1.06818 -0.11742299999999996 0.567073
v -0.04338 1.455992 1.652495
v -0.002292 1.448575 1.652495
v -0.087212 1.207453 1.630469
v -0.046101 1.200134 1.630469
v -0.023889 1.429317 1.640431
v -0.023197 1.432148 1.419079
v -0.025958 1.444443 1.418918
v -0.024973 1.448089 1.6385
v -0.034327 1.435277 1.41929
v -0.035017 1.432448 1.640431
v -0.019107 1.470698 1.365004
v -0.031467 1.421452 1.3656
v -0.031467 1.421452 1.3656
v -0.031969 1.411947 1.323739
v -0.041595 1.384429 1.401988
v 1.382169 -1.028005 0.16745500000000005
v 1.293099 -1.0123 0.16745500000000005
v 1.309535 -0.919091 0.16745500000000005
v 1.398605 -0.934797 0.16745500000000005
v 1.298794 -0.902984 5.529182326406368E-17
v 1.414207 -0.923336 5.653802384687603E-17
v 1.392911 -1.04411 6.393329847288715E-17
v 0.997613 -0.324363 -0.00313399999999998
v 0.587055 -0.813647 -0.00313399999999995
v 0.96858 -0.3589629999999999 0.588108
v 1.065481 -0.545108 0.588108
v 1.002376 -0.745251 0.588108
v 0.816231 -0.842152 0.588108
v 0.616088 -0.779047 0.588108
v 0.519187 -0.592903 0.588108
v 0.582292 -0.39275899999999997 0.588108
v 0.768437 -0.29585799999999995 0.588108
v 1.083175 -0.54356 0.4256400000000001
v 0.818622 -0.869642 0.2514120000000001
v 1.023504 -0.76302 0.2514120000000001
v 0.595391 -0.803552 0.25143400000000005
v 0.982677 -0.341944 0.425637
v 1.018143 -0.758775 0.42563700000000004
v -0.670819 1.234496 0.2137999999999999
v 1.324872 -0.982504 -0.0030909999999999397
v 1.023504 -0.76302 0.2514120000000001
v -0.980225 -0.520935 0.21380000000000002
v -0.980225 -0.5209349999999999 1.026164
v -0.027623 1.439124 1.427124
v 0.918027 -0.3983979999999999 0.635156
v 0.984578 -0.526243 0.635156
v 0.941238 -0.663702 0.635156
v 0.813393 -0.730254 0.635156
v 0.675934 -0.686913 0.635156
v 0.609382 -0.559068 0.635156
v 0.652723 -0.42160899999999996 0.635156
v 0.780568 -0.35505699999999996 0.635156
v -0.733051 0.9695490000000001 0.9639599999999999
v -0.759624 0.8188500000000001 0.96396
v -0.925403 0.848081 0.60296
v -0.898831 0.99878 0.6029599999999999
v -0.690243 1.155885 0.9748159999999999
v -0.716815 1.005187 0.9748159999999999
v -1.056529 1.065088 0.7756559999999999
v -1.029957 1.215786 0.7756559999999999
v -0.516482 -1.075111 0.7784440000000001
v -0.551352 -1.272869 0.7784440000000001
v -0.516482 -1.075111 0.7157280000000001
v -0.551352 -1.272869 0.7157280000000001
v -0.534387 -1.176658 0.5791590000000001
v -0.618355 -1.328715 0.48307600000000006
v -0.522145 -1.162245 0.6242500000000001
v -0.627644 -1.306442 0.47047200000000006
v -0.531434 -1.139972 0.6116460000000001
v -0.562362 -0.996565 0.48307600000000006
v -0.512516 -1.182263 0.6242500000000001
v -0.577099 -1.015673 0.47047200000000006
v -0.527253 -1.201372 0.6116460000000001
v -0.019107 1.470698 1.365004
v -0.031969 1.411947 1.323739
v -0.041595 1.384429 1.401988
v -0.027623 1.439124 1.427124
v 0.919749 1.060216 0.10925499999999994
v 0.824853 1.060216 0.04575799999999994
v 1.001406 1.058924 0.015723999999999932
v 0.914904 1.141405 0.12027499999999994
v 1.251491 1.120233 0.09048199999999994
v 1.147787 1.114294 -0.0008990000000000681
v 1.011752 1.107657 0.011214999999999932
v 0.919749 0.990337 0.10925499999999995
v 1.001406 0.991628 0.015723999999999936
v 0.847374 0.990337 0.06785899999999995
v 0.598396 -0.800132 0.33560200000000007
v 0.451714 -1.308291 0.33576600000000006
v 0.873842 -1.395652 0.3357810000000001
v 1.462955 -1.079459 0.33578700000000006
v 1.015892 -0.756592 0.50983
v 1.307532 -0.967847 0.5100180000000001
v 1.316317 -0.975421 0.25153100000000006
v -0.983865 1.23044 -0.00047900000000007534
v -0.983865 1.23044 0.41051699999999997
v -0.957259 1.225749 -0.00047900000000007507
v -0.957259 1.225749 0.41051699999999997
v -0.775343 1.193672 -0.00047900000000007306
v -0.775344 1.193672 0.41051699999999997
v -0.748737 1.188981 -0.0004790000000000728
v -0.748737 1.188981 0.41051699999999997
v -1.28239 1.278699 -0.010747000000000078
v -1.297298 1.194151 -0.010747000000000072
v -0.674877 1.171578 0.14386999999999991
v -1.297298 1.194151 0.14386999999999991
v -0.689785 1.08703 0.14386999999999994
v -1.28239 1.278699 0.14386999999999991
v -0.309758 -1.278358 0.48771200000000003
v -0.527957 -1.384781 0.4877120000000001
v -0.696599 -1.210148 0.48771100000000006
v -0.582626 -0.995795 0.48771100000000006
v -0.343545 -1.037952 0.48771200000000003
v -0.287595 -1.152666 0.48771200000000003
v -0.401568 -1.367018 0.4877120000000001
v -0.640649 -1.324862 0.48771100000000006
v -0.674436 -1.084455 0.48771100000000006
v -0.456237 -0.978032 0.48771200000000003
v -0.416678 -1.259506 0.27800900000000006
v -0.543067 -1.277268 0.27800900000000006
v -0.599017 -1.162554 0.27800900000000006
v -0.507207 -1.073894 0.27800900000000006
v -0.394515 -1.133813 0.27800900000000006
v 0.038405 -0.7016709999999999 1.198102
v 0.024924 -0.7781229999999999 1.198102
v -0.304822 -0.7199799999999998 1.645921
v -0.291341 -0.6435269999999998 1.645921
v -1.039214 -0.511657 3.132995536556687E-17
v -1.039214 -0.5116569999999999 1.060558
v -1.052695 -0.5881089999999999 1.060559
v -1.052694 -0.588109 3.601129021998754E-17
v 0.272519 -0.7429509999999999 1.060559
v 0.27252 -0.742951 4.5492628203666265E-17
v 0.259039 -0.819404 5.0174024290426894E-17
v 0.259039 -0.8194039999999999 1.060559
v -0.804829 -0.5529859999999999 1.198102
v -0.818309 -0.6294379999999999 1.198102
v -1.052695 -0.5881089999999999 1.060559
v -1.039214 -0.5116569999999999 1.060558
v -0.477377 -0.6107239999999999 1.645686
v -0.490857 -0.6871769999999999 1.645686
v 0.272519 -0.7429509999999999 1.060559
v 0.259039 -0.8194039999999999 1.060559
v 0.326598 1.058818 1.162468
v 0.606109 1.009533 1.016604
v 0.499859 0.40695900000000007 1.016604
v 0.402389 -0.14581799999999995 1.016604
v 0.296357 -0.7471539999999999 1.016604
v 0.016847 -0.6978689999999999 1.162468
v -0.181129 0.5270350000000001 1.678507
v -0.074879 1.129609 1.713269
v -0.384631 -0.6270779999999999 1.713269
v -0.278599 -0.025740999999999896 1.678507
v -0.449367 -0.6156629999999998 1.792044
v -0.319436 -0.6385729999999998 1.792279
v -0.332916 -0.7150259999999999 1.792279
v -0.462848 -0.6921159999999998 1.792044
v -0.332916 -0.7150259999999999 1.792279
v -0.319436 -0.6385729999999998 1.792279
v -0.291341 -0.6435269999999998 1.645921
v -0.304822 -0.7199799999999998 1.645921
v -0.449367 -0.6156629999999998 1.792044
v -0.462848 -0.6921159999999998 1.792044
v -0.755867 1.249686 1.016604
v -0.476357 1.200401 1.162468
v -0.786108 -0.5562869999999999 1.162468
v -1.065619 -0.5070009999999999 1.016604
v -0.959587 0.09433600000000006 1.016604
v -0.862117 0.6471120000000001 1.016604
v -0.278599 -0.025740999999999896 1.678507
v -0.384631 -0.6270779999999999 1.713269
v -0.074879 1.129609 1.713269
v -0.181129 0.5270350000000001 1.678507
v -1.039214 -0.511657 3.132995536556687E-17
v -0.980416 -0.522025 3.196481226624485E-17
v -0.980417 -0.5220249999999999 1.058541
v -1.039214 -0.5116569999999999 1.060559
v 0.27252 -0.742951 4.5492628203666265E-17
v 0.27252 -0.7429509999999999 1.060558
v 0.213722 -0.7325839999999999 1.060558
v 0.213723 -0.732584 4.485783253532823E-17
v 0.582271 1.013736 -6.207342737902206E-17
v 0.523474 1.024103 -6.270822304736009E-17
v 0.523474 1.024104 1.060558
v 0.582271 1.013736 1.060558
v -0.670819 1.234496 -7.559107874801054E-17
v -0.729462 1.24503 -7.623610021712146E-17
v -0.729462 1.24503 1.060559
v -0.670819 1.234496 1.060558
v 0.348156 1.055017 1.198102
v 0.582271 1.013736 1.060558
v -0.729463 1.24503 1.060559
v -0.495077 1.203701 1.198102
v -0.804829 -0.5529859999999999 1.198102
v -1.039214 -0.5116569999999999 1.060559
v 0.272519 -0.7429509999999999 1.060558
v 0.038405 -0.7016699999999999 1.198102
v -0.139616 1.141024 1.792044
v -0.009684 1.118114 1.792279
v 0.01841 1.11316 1.645921
v -0.167625 1.145963 1.645686
v -0.319436 -0.6385729999999998 1.792279
v -0.449367 -0.6156629999999998 1.792044
v -0.477377 -0.6107239999999999 1.645686
v -0.291341 -0.6435269999999998 1.645921
v 0.595534 1.088951 1.060558
v -0.7162 1.320245 1.060559
v 0.595534 1.088951 -6.667901782891547E-17
v -0.7162 1.320245 -8.084169066701486E-17
v 0.361419 1.130232 1.198102
v -0.481814 1.278917 1.198102
v -0.358647 1.257109 0.5243479999999999
v -0.334045 1.252771 0.6656759999999999
v -0.248316 1.237655 0.7977439999999999
v -0.1246 1.21584 0.8708859999999999
v 0.123341 1.172122 0.7977449999999999
v 0.209069 1.157006 0.6656759999999999
v 0.233672 1.152667 0.5243489999999998
v -0.000379 1.193937 0.8708859999999999
v -0.358574 1.257096 0.00031699999999992303
v -0.154363 1.221178 1.645686
v -0.126353 1.216239 1.792044
v 0.003579 1.193329 1.792279
v 0.031673 1.188375 1.645921
v 0.233597 1.152681 0.0003169999999999294
v -0.358574 1.257096 0.00031699999999992303
v 0.233597 1.152681 0.0003169999999999294
v -0.462848 -0.6921159999999998 1.792044
v -0.332916 -0.7150259999999999 1.792279
v -0.304822 -0.7199799999999998 1.645921
v -0.490857 -0.6871769999999999 1.645686
v 0.024924 -0.7781229999999999 1.198102
v -0.818309 -0.6294379999999999 1.198102
v -1.052695 -0.5881089999999999 1.060559
v -0.635317 -0.661745 4.0520194805088265E-17
v -0.613883 -0.665524 0.648607
v -0.398975 -0.703418 0.814656
v -0.184065 -0.741313 0.648607
v -0.162633 -0.745092 4.562372664351498E-17
v 0.259039 -0.819404 5.0174024290426894E-17
v -0.102886 -0.755607 0.0003180000000000462
v -0.102811 -0.75562 0.524349
v 0.259039 -0.8194039999999999 1.060559
v -1.052694 -0.588109 3.601129021998754E-17
v -0.69513 -0.651178 0.524349
v -0.695057 -0.651191 0.0003170000000000399
v -0.670528 -0.655516 0.665676
v -0.584799 -0.670632 0.797744
v -0.461083 -0.692447 0.870886
v -0.213141 -0.736166 0.797745
v -0.336861 -0.71435 0.870886
v -0.127414 -0.751282 0.665677
v -0.495077 1.203701 1.198102
v -0.481814 1.278917 1.198102
v -0.154363 1.221178 1.645686
v -0.167625 1.145963 1.645686
v -0.729462 1.24503 1.060559
v -0.729462 1.24503 -7.623610021712146E-17
v -0.7162 1.320245 -8.084169066701486E-17
v -0.7162 1.320245 1.060559
v 0.582271 1.013736 -6.207342737902206E-17
v 0.582271 1.013736 1.060558
v 0.595534 1.088951 1.060558
v 0.595534 1.088951 -6.667901782891547E-17
v 0.348157 1.055017 1.198102
v 0.361419 1.130232 1.198102
v 0.595534 1.088951 1.060558
v 0.582271 1.013736 1.060558
v 0.01841 1.11316 1.645921
v 0.031673 1.188375 1.645921
v -0.729462 1.24503 1.060559
v -0.7162 1.320245 1.060559
v -0.009684 1.118114 1.792279
v -0.139616 1.141024 1.792044
v -0.126353 1.216239 1.792044
v 0.003579 1.193329 1.792279
v -0.126353 1.216239 1.792044
v -0.139616 1.141024 1.792044
v -0.009684 1.118114 1.792279
v 0.003579 1.193329 1.792279
v -0.802188 0.21402100000000004 1.079702
v -1.218176 0.28737100000000004 1.079702
v -1.28195 0.298616 -1.82849564287093E-17
v -0.862469 0.22465 -1.3755845171422644E-17
v -1.320533 -0.09401999999999998 0.399227
v -0.903527 -0.16754999999999998 0.399227
v -0.942823 -0.231056 1.4148099541189542E-17
v -1.362303 -0.15709 9.618988283902887E-18
v -1.299203 -0.0009219999999999676 0.529227
v -1.26992 -0.006084999999999934 1.079702
v -0.853932 -0.07943499999999994 1.079702
v -0.846136 0.1823600000000001 1.6231
v -1.114318 0.2296470000000001 1.6231
v -1.114318 0.22964700000000005 1.079702
v -0.846136 0.18236000000000005 1.079702
v -0.884401 -0.034651999999999905 1.6231
v -0.884401 -0.03465199999999993 1.079702
v -1.152583 0.012636000000000099 1.6231
v -1.152583 0.012636000000000066 1.079702
v -0.809297 0.2072480000000001 1.619172
v -0.809296 0.2072480000000001 1.748282
v -1.140424 0.2656350000000001 1.748282
v -1.140424 0.2656350000000001 1.619172
v -0.858296 -0.0706389999999999 1.619172
v -0.858295 -0.07063899999999988 1.748282
v -1.189423 -0.012251999999999902 1.619172
v -1.189423 -0.012251999999999893 1.748282
v -0.881183 -0.07462999999999997 0.529227
v 0.6103 0.28361600000000003 0.68295
v 0.392731 0.32197900000000007 0.489146
v 0.573061 0.29018200000000005 0.696548
v 0.392731 0.32197900000000007 0.537237
v 0.557175 1.018161 -6.234438048333342E-17
v 0.247424 -0.738526 4.522167509935491E-17
v 0.213723 -0.732584 0.21380000000000005
v 0.523967 1.0269 0.21379999999999993
v 0.533756 1.082416 0.21379999999999993
v 0.206063 -0.772009 0.21380000000000005
v 0.532953 1.082558 1.0302
v 0.206063 -0.7720099999999999 1.030199
v 0.780568 -0.35505699999999996 0.635156
v 0.795406 -0.3208429999999998 2.293608
v -0.126516 -0.948382 5.807164903344825E-17
v -0.126516 -0.948382 0.25693600000000005
v -0.209182 -1.417209 8.677902327864106E-17
v -0.209182 -1.417209 0.2569360000000001
v -1.226473 -1.237833 7.579541106644828E-17
v -1.143806 -0.769006 4.7088036821255474E-17
v -1.143806 -0.769006 0.2569350000000001
v -1.226473 -1.237833 0.2569350000000001
v -0.509915 -1.503318 0.6227300000000001
v -0.579269 -1.491089 0.7077870000000002
v -0.509915 -1.503318 0.7077870000000002
v -0.579269 -1.491089 0.6227300000000001
v 0.161393 -0.077621 4.752915459830835E-18
v -0.712238 0.076424 -4.6796203489018666E-18
v -0.712234 0.07642300000000006 0.844287
v 0.161395 -0.07762099999999994 0.844287
v -0.567795 -1.453026 -0.00668899999999991
v -0.567796 -1.453026 0.6266360000000001
v -1.226473 -1.237833 0.2569350000000001
v -1.143806 -0.769006 0.2569350000000001
v -0.126516 -0.948382 0.25693600000000005
v -0.209182 -1.417209 0.2569360000000001
v -0.959692 0.602611 0.36008699999999993
v -1.030868 0.24979300000000002 0.302051
v -0.934839 1.000213 0.00013499999999993874
v -0.899203 0.946604 0.25000199999999995
v 0.898143 1.147449 0.12330499999999993
v 1.0078 1.108354 0.011214999999999932
v 0.914904 0.904126 0.12434399999999994
v 1.011838 0.938494 0.012169999999999943
v 1.011752 1.107657 0.011214999999999932
v 1.148075 0.934922 -0.0004250000000000572
v 1.011838 0.938494 0.012169999999999943
v 1.273045 1.125206 0.09218099999999993
v 1.154376 1.117519 -0.007147000000000068
v 1.251491 0.930652 0.09455099999999994
v 1.264669 0.925617 0.09218099999999994
v 1.1538 0.930261 -0.008095000000000057
v 1.001546 0.934905 0.0056049999999999425
v 1.001546 0.934905 0.0056049999999999425
v 0.898431 0.90017 0.12343699999999995
v 1.264669 0.925617 0.09218099999999994
v -1.222556 0.17317900000000006 1.069743
v -1.228489 0.16935200000000009 1.424945
v -1.228489 0.16935200000000009 1.424945
v -1.216746 0.23595100000000008 1.424945
v -1.144878 0.2232790000000001 1.424945
v -1.156621 0.1566800000000001 1.424945
v 0.874285 -1.413378 -0.0030689999999999134
v 0.873842 -1.395652 0.3357810000000001
v 0.451714 -1.308291 0.33576600000000006
v 0.451714 -1.308291 0.33576600000000006
v 0.439927 -1.3217 -0.003074999999999919
v 0.587055 -0.813647 -0.00313399999999995
v 1.310557 -0.161455 -0.00309399999999999
v 1.292865 -0.18253899999999998 0.510018
v 1.477908 -1.093464 -0.003066999999999933
v 1.462955 -1.079459 0.33578700000000006
v 1.462955 -1.079459 0.33578700000000006
v 1.273291 -0.939892 -0.0030909999999999423
v 0.979921 -0.3454479999999999 0.50983
v 1.292865 -0.18253899999999998 0.510018
v 1.434467 -0.512826 0.510033
v 1.307532 -0.967847 0.5100180000000001
v 1.015892 -0.756592 0.50983
v 1.316317 -0.975421 0.25153100000000006
v 0.963051 -0.46193399999999984 2.335425
v 0.927486 -0.5745669999999999 2.364751
v 0.822391 -0.6292769999999999 2.404146
v 0.709391 -0.5936479999999998 2.404146
v 0.654682 -0.4885519999999998 2.364751
v 0.69031 -0.37555199999999983 2.293608
v 0.795406 -0.3208429999999998 2.293608
v 0.90775 -0.35673399999999983 2.392768
v -1.297298 1.194151 0.14386999999999991
v -1.147434 1.167726 0.38375899999999996
v -1.132526 1.252274 0.38375899999999996
v -1.28239 1.278699 0.14386999999999991
v -1.022749 1.232918 0.38375899999999996
v -1.037657 1.148369 0.38375899999999996
v -1.036848 1.148227 0.14386999999999991
v -1.022576 1.232887 0.14386999999999991
v -1.022576 1.232887 0.14386999999999991
v -1.036848 1.148227 0.14386999999999991
v -1.037657 1.148369 0.38375899999999996
v -1.037657 1.148369 0.38375899999999996
v -1.022749 1.232918 0.38375899999999996
v -1.022576 1.232887 0.14386999999999991
v 0.756153 -0.35677099999999995 1.273156
v 0.766685 -0.29703899999999994 1.273156
v 1.039833 -0.34520199999999995 1.273156
v 1.029301 -0.40493399999999996 1.273156
v 1.170819 0.148384 -0.006689000000000008
v 0.992099 -0.3354889999999999 1.243648
v 1.398605 -0.934797 0.16745500000000005
v 1.309535 -0.919091 0.16745500000000005
v 1.382169 -1.028005 0.16745500000000005
v 0.982677 -0.341944 0.425637
v 0.96858 -0.3589629999999999 0.588108
v -0.456237 -0.978032 0.48771200000000003
v -0.343545 -1.037952 0.48771200000000003
v -0.640649 -1.324862 0.48771100000000006
v -0.527957 -1.384781 0.4877120000000001
v -0.674436 -1.084455 0.48771100000000006
v -0.696599 -1.210148 0.48771100000000006
v -0.582626 -0.995795 0.48771100000000006
v -0.401568 -1.367018 0.4877120000000001
v -0.309758 -1.278358 0.48771200000000003
v -0.287595 -1.152666 0.48771200000000003
v -0.599017 -1.162554 0.27800900000000006
v -0.696599 -1.210148 0.48771100000000006
v 0.233672 1.152667 0.5243489999999998
v -0.358647 1.257109 0.5243479999999999
v -0.334045 1.252771 0.6656759999999999
v -0.248316 1.237655 0.7977439999999999
v -0.1246 1.21584 0.8708859999999999
v -0.000379 1.193937 0.8708859999999999
v 0.123341 1.172122 0.7977449999999999
v 0.209069 1.157006 0.6656759999999999
v -0.102811 -0.75562 0.524349
v -0.102886 -0.755607 0.0003180000000000462
v -0.69513 -0.651178 0.524349
v -0.695057 -0.651191 0.0003170000000000399
v -0.670528 -0.655516 0.665676
v -0.584799 -0.670632 0.797744
v -0.461083 -0.692447 0.870886
v -0.213141 -0.736166 0.797745
v -0.336861 -0.71435 0.870886
v -0.127414 -0.751282 0.665677
v -1.362303 -0.15709 9.618988283902887E-18
v -1.28195 0.298616 -1.82849564287093E-17
v -1.218176 0.28737100000000004 1.079702
v -1.26992 -0.006084999999999934 1.079702
v -1.218176 0.28737100000000004 1.079702
v -0.802188 0.21402100000000004 1.079702
v -0.846136 0.18236000000000005 1.079702
v -0.846136 0.1823600000000001 1.6231
v -0.884401 -0.03465199999999993 1.079702
v -0.884401 -0.034651999999999905 1.6231
v -1.152583 0.012636000000000066 1.079702
v -1.114318 0.22964700000000005 1.079702
v -1.114318 0.2296470000000001 1.6231
v -1.152583 0.012636000000000099 1.6231
v -0.809296 0.2072480000000001 1.748282
v -0.809297 0.2072480000000001 1.619172
v -0.858295 -0.07063899999999988 1.748282
v -0.858296 -0.0706389999999999 1.619172
v -1.140424 0.2656350000000001 1.748282
v -1.189423 -0.012251999999999893 1.748282
v -1.189423 -0.012251999999999902 1.619172
v -1.140424 0.2656350000000001 1.619172
v -1.189423 -0.012251999999999893 1.748282
v -1.140424 0.2656350000000001 1.748282
v -0.809296 0.2072480000000001 1.748282
v -0.858295 -0.07063899999999988 1.748282
v -1.26992 -0.006084999999999934 1.079702
v -0.853932 -0.07943499999999994 1.079702
v -1.299203 -0.0009219999999999676 0.529227
v -0.509915 -1.503318 0.7077870000000002
v -0.509915 -1.503318 0.7077870000000002
v -0.242111 0.015472000000000043 0.707787
v -0.311465 0.02770100000000004 0.707787
v -0.311465 0.02770100000000004 0.707787
v -0.579269 -1.491089 0.7077870000000002
v -0.508204 -1.463533 -0.00668899999999991
v -0.508204 -1.463534 0.6266360000000001
v -0.508204 -1.463533 -0.00668899999999991
v -1.212479 0.23032600000000006 1.069743
v -1.216746 0.23595100000000008 1.424945
v -1.212479 0.23032600000000006 1.069743
v -1.144878 0.2232790000000001 1.424945
v -1.150811 0.21945200000000006 1.069743
v -1.150811 0.21945200000000006 1.069743
v -1.160888 0.16230500000000006 1.069743
v -1.156621 0.1566800000000001 1.424945
v -1.160888 0.16230500000000006 1.069743
v 0.962269 0.207229 -0.006689000000000013
v 0.870287 -0.3144239999999999 1.243648
v 0.962269 0.207229 -0.006689000000000013
v -0.024973 1.448089 1.6385
v -0.025958 1.444443 1.418918
v -0.024973 1.448089 1.6385
v 1.414207 -0.923336 5.653802384687603E-17
v 1.398605 -0.934797 0.16745500000000005
v 1.414207 -0.923336 5.653802384687603E-17
v -1.320533 -0.09401999999999998 0.399227
vt 0.688925 0.680764
vt 0.299272 0.375993
vt 0.196466 0.527905
vt 0.230117 0.527905
vt 0.264569 0.527904
vt 0.035363 0.531234
vt 0.013667 0.531935
vt 0.002150 0.560767
vt 0.007559 0.600842
vt 0.026725 0.628684
vt 0.048421 0.627983
vt 0.059938 0.599151
vt 0.054529 0.559077
vt 0.035551 0.569184
vt 0.562319 0.132805
vt 0.580456 0.148175
vt 0.599165 0.143259
vt 0.617918 0.135404
vt 0.636514 0.135852
vt 0.655160 0.144678
vt 0.673952 0.160450
vt 0.692540 0.159652
vt 0.554277 0.751169
vt 0.690043 0.751169
vt 0.888377 0.751169
vt 0.752611 0.751169
vt 0.554277 0.690368
vt 0.690043 0.690368
vt 0.888377 0.690368
vt 0.752611 0.690368
vt 0.049393 0.100878
vt 0.049363 0.112190
vt 0.242818 0.112189
vt 0.242848 0.100877
vt 0.049423 0.084789
vt 0.049363 0.128150
vt 0.242818 0.128149
vt 0.256554 0.100877
vt 0.818609 0.678742
vt 0.818609 0.558988
vt 0.782113 0.558988
vt 0.782114 0.678742
vt 0.696634 0.558989
vt 0.696634 0.678743
vt 0.733130 0.678742
vt 0.733129 0.558989
vt 0.641981 0.095401
vt 0.641981 0.106213
vt 0.641981 0.117050
vt 0.641981 0.127862
vt 0.570096 0.095402
vt 0.570096 0.106214
vt 0.570096 0.117051
vt 0.570096 0.127862
vt 0.973621 0.729613
vt 0.992215 0.729613
vt 0.973621 0.709714
vt 0.992215 0.709714
vt 0.973813 0.709592
vt 0.992407 0.709592
vt 0.973813 0.689692
vt 0.992407 0.689692
vt 0.960438 0.755807
vt 0.926455 0.755807
vt 0.960438 0.733725
vt 0.926455 0.733725
vt 0.943292 0.688740
vt 0.377160 0.073509
vt 0.428761 0.073537
vt 0.377438 0.058782
vt 0.429039 0.058750
vt 0.433375 0.066761
vt 0.484977 0.066728
vt 0.434315 0.073841
vt 0.485916 0.073808
vt 0.299272 0.534410
vt 0.299272 0.576588
vt 0.261306 0.576588
vt 0.265182 0.534410
vt 0.275010 0.675933
vt 0.167095 0.534410
vt 0.163220 0.576588
vt 0.944015 0.677533
vt 0.941000 0.677533
vt 0.940999 0.556972
vt 0.944014 0.556972
vt 0.878468 0.669321
vt 0.895382 0.638109
vt 0.919899 0.638109
vt 0.878468 0.582953
vt 0.971624 0.640821
vt 0.982956 0.640462
vt 0.986681 0.623423
vt 0.976856 0.611310
vt 0.967327 0.626173
vt 0.977180 0.684203
vt 0.986484 0.673918
vt 0.982459 0.656492
vt 0.971624 0.655838
vt 0.968389 0.671444
vt 0.959653 0.677904
vt 0.957155 0.677904
vt 0.858893 0.561164
vt 0.861777 0.677321
vt 0.832961 0.677321
vt 0.821911 0.577334
vt 0.959652 0.557343
vt 0.957154 0.557343
vt 0.924188 0.670936
vt 0.857968 0.635396
vt 0.919885 0.572063
vt 0.836804 0.635396
vt 0.919899 0.603522
vt 0.895382 0.603522
vt 0.857968 0.600129
vt 0.836804 0.600129
vt 0.531288 0.468228
vt 0.522485 0.468256
vt 0.511964 0.468237
vt 0.503166 0.468251
vt 0.211610 0.576588
vt 0.215485 0.534410
vt 0.580713 0.557394
vt 0.688925 0.557394
vt 0.038582 0.516249
vt 0.299272 0.303144
vt 0.636082 0.680764
vt 0.580713 0.680764
vt 0.004847 0.375993
vt 0.217829 0.303144
vt 0.146356 0.303144
vt 0.004847 0.303144
vt 0.508926 0.557394
vt 0.636082 0.557394
vt 0.045902 0.303144
vt 0.045902 0.375993
vt 0.146356 0.375993
vt 0.217829 0.375993
vt 0.439541 0.596400
vt 0.531289 0.547965
vt 0.522485 0.547955
vt 0.511964 0.547977
vt 0.503147 0.547955
vt 0.305825 0.576845
vt 0.223881 0.224995
vt 0.364300 0.576843
vt 0.226968 0.225068
vt 0.305825 0.557858
vt 0.281062 0.151409
vt 0.448485 0.576253
vt 0.298778 0.196198
vt 0.448412 0.557266
vt 0.326338 0.576844
vt 0.182760 0.151338
vt 0.268086 0.151409
vt 0.182782 0.196128
vt 0.267991 0.196199
vt 0.223491 0.193134
vt 0.265436 0.153530
vt 0.227290 0.153530
vt 0.185202 0.193134
vt 0.223490 0.158355
vt 0.265436 0.193193
vt 0.227290 0.193193
vt 0.185202 0.158355
vt 0.063337 0.150023
vt 0.051572 0.150024
vt 0.053977 0.171324
vt 0.060932 0.171324
vt 0.701221 0.997253
vt 0.887586 0.997253
vt 0.759098 0.762786
vt 0.759098 0.948613
vt 0.754939 0.948613
vt 0.754939 0.997253
vt 0.759098 0.997253
vt 0.754939 0.763705
vt 0.887586 0.948613
vt 0.894007 0.777788
vt 0.894007 0.980351
vt 0.941448 0.980351
vt 0.941448 0.777788
vt 0.235634 0.050304
vt 0.203452 0.050305
vt 0.231513 0.043251
vt 0.204953 0.043445
vt 0.759098 0.948613
vt 0.887586 0.762786
vt 0.990134 0.114936
vt 0.937761 0.114936
vt 0.926079 0.082334
vt 0.873012 0.082334
vt 0.873012 0.114936
vt 0.812848 0.114936
vt 0.861287 0.082334
vt 0.990134 0.082334
vt 0.937761 0.082334
vt 0.926079 0.114936
vt 0.812820 0.082334
vt 0.861287 0.114936
vt 0.080214 0.164375
vt 0.080214 0.212859
vt 0.140674 0.212910
vt 0.140674 0.164427
vt 0.259732 0.084798
vt 0.259732 0.097710
vt 0.410561 0.097710
vt 0.410561 0.084798
vt 0.261713 0.106494
vt 0.397327 0.106494
vt 0.010624 0.710287
vt 0.010624 0.745143
vt 0.031861 0.745143
vt 0.036853 0.710081
vt 0.010561 0.651043
vt 0.031797 0.651042
vt 0.010629 0.686329
vt 0.036859 0.686633
vt 0.036853 0.726520
vt 0.036859 0.670231
vt 0.808139 0.106315
vt 0.729209 0.106315
vt 0.807003 0.117295
vt 0.739568 0.117295
vt 0.413531 0.115398
vt 0.413497 0.127865
vt 0.563876 0.127865
vt 0.564359 0.115398
vt 0.415612 0.094151
vt 0.551221 0.094151
vt 0.724809 0.106207
vt 0.645879 0.106207
vt 0.723673 0.117218
vt 0.656237 0.117218
vt 0.034486 0.101573
vt 0.034486 0.111409
vt 0.003744 0.101573
vt 0.003744 0.111409
vt 0.734794 0.006591
vt 0.685201 0.006591
vt 0.685201 0.008551
vt 0.734794 0.008551
vt 0.685201 0.010914
vt 0.734794 0.010914
vt 0.005136 0.216432
vt 0.026899 0.207447
vt 0.011882 0.207744
vt 0.005147 0.201703
vt 0.016562 0.198850
vt 0.890687 0.061438
vt 0.890687 0.042771
vt 0.870037 0.042771
vt 0.870037 0.061438
vt 0.539363 0.075931
vt 0.554496 0.075931
vt 0.570092 0.075931
vt 0.299272 0.527904
vt 0.163986 0.527942
vt 0.299272 0.384079
vt 0.068903 0.384079
vt 0.099664 0.384079
vt 0.130808 0.384079
vt 0.163986 0.384079
vt 0.196200 0.384079
vt 0.230099 0.384079
vt 0.264569 0.384079
vt 0.068903 0.427268
vt 0.130808 0.464017
vt 0.099664 0.464054
vt 0.163986 0.463979
vt 0.299272 0.427268
vt 0.099664 0.427268
vt 0.887586 0.948613
vt 0.508926 0.680764
vt 0.455236 0.620176
vt 0.701221 0.948613
vt 0.701221 0.763705
vt 0.015059 0.224211
vt 0.562319 0.545649
vt 0.580456 0.545649
vt 0.599165 0.545649
vt 0.617918 0.545649
vt 0.636514 0.545649
vt 0.655160 0.545649
vt 0.673952 0.545649
vt 0.692540 0.545649
vt 0.926079 0.114936
vt 0.926079 0.082334
vt 0.873012 0.082334
vt 0.873012 0.114936
vt 0.812820 0.082334
vt 0.812848 0.114936
vt 0.861287 0.114936
vt 0.861287 0.082334
vt 0.960438 0.755807
vt 0.926455 0.755807
vt 0.960438 0.733725
vt 0.926455 0.733725
vt 0.943970 0.687905
vt 0.377160 0.073509
vt 0.428761 0.073537
vt 0.377438 0.058782
vt 0.429039 0.058750
vt 0.433375 0.066761
vt 0.484977 0.066728
vt 0.434315 0.073841
vt 0.485916 0.073808
vt 0.033615 0.216145
vt 0.033638 0.201423
vt 0.022230 0.198537
vt 0.023688 0.223900
vt 0.970129 0.576539
vt 0.974554 0.596070
vt 0.978337 0.561480
vt 0.872376 0.664971
vt 0.872376 0.577430
vt 0.857968 0.600129
vt 0.857968 0.635396
vt 0.970129 0.576539
vt 0.978337 0.561480
vt 0.974554 0.596070
vt 0.487998 0.650726
vt 0.475757 0.750962
vt 0.420378 0.717452
vt 0.368706 0.598611
vt 0.455236 0.557394
vt 0.508926 0.557394
vt 0.508926 0.620176
vt 0.894569 0.019678
vt 0.941621 0.019678
vt 0.894569 0.022015
vt 0.941621 0.022015
vt 0.946414 0.030736
vt 0.993465 0.030736
vt 0.946414 0.033073
vt 0.993465 0.033073
vt 0.152071 0.224997
vt 0.298778 0.225067
vt 0.223881 0.196126
vt 0.298778 0.196198
vt 0.226967 0.196199
vt 0.152070 0.196128
vt 0.032204 0.507694
vt 0.046464 0.472018
vt 0.032204 0.436342
vt 0.009132 0.449969
vt 0.236370 0.586270
vt 0.019451 0.507694
vt 0.042523 0.494067
vt 0.042523 0.449969
vt 0.019451 0.436342
vt 0.219718 0.586270
vt 0.272577 0.667990
vt 0.296541 0.667990
vt 0.201369 0.667990
vt 0.221275 0.667990
vt 0.246307 0.667990
vt 0.039964 0.230458
vt 0.039964 0.259328
vt 0.117920 0.259328
vt 0.117920 0.230458
vt 0.459046 0.997265
vt 0.459046 0.755864
vt 0.441462 0.755870
vt 0.441462 0.997259
vt 0.244582 0.755864
vt 0.244582 0.997266
vt 0.261797 0.997259
vt 0.261797 0.755870
vt 0.263957 0.230458
vt 0.263957 0.259328
vt 0.299272 0.259328
vt 0.299272 0.230458
vt 0.186306 0.230458
vt 0.186306 0.259328
vt 0.004847 0.230458
vt 0.004847 0.259328
vt 0.693666 0.423277
vt 0.693416 0.547115
vt 0.799769 0.547114
vt 0.897334 0.547114
vt 0.994898 0.547113
vt 0.994899 0.423275
vt 0.799769 0.137358
vt 0.693415 0.137359
vt 0.994898 0.137357
vt 0.897334 0.137357
vt 0.160495 0.230458
vt 0.143556 0.230458
vt 0.143556 0.259328
vt 0.160495 0.259328
vt 0.139719 0.259328
vt 0.139719 0.230458
vt 0.117920 0.230458
vt 0.117920 0.259328
vt 0.164543 0.230458
vt 0.164543 0.259328
vt 0.693490 0.547115
vt 0.693666 0.423277
vt 0.994899 0.423275
vt 0.994898 0.547113
vt 0.897334 0.547114
vt 0.799769 0.547114
vt 0.897334 0.137357
vt 0.994898 0.137357
vt 0.693436 0.138393
vt 0.799769 0.137358
vt 0.463214 0.997265
vt 0.469181 0.997265
vt 0.471333 0.758361
vt 0.463214 0.755864
vt 0.241420 0.997266
vt 0.241420 0.755864
vt 0.235454 0.755433
vt 0.235454 0.997266
vt 0.225850 0.997266
vt 0.231816 0.997265
vt 0.234040 0.757852
vt 0.225850 0.755864
vt 0.002449 0.997266
vt 0.007798 0.997265
vt 0.007798 0.755864
vt 0.002449 0.755433
vt 0.073142 0.603493
vt 0.049387 0.632903
vt 0.182487 0.632901
vt 0.158704 0.603492
vt 0.073363 0.656999
vt 0.049580 0.686409
vt 0.182680 0.686407
vt 0.158924 0.656998
vt 0.122635 0.476496
vt 0.109452 0.476447
vt 0.106601 0.507741
vt 0.125478 0.507791
vt 0.122614 0.529952
vt 0.109430 0.530002
vt 0.106588 0.561297
vt 0.125465 0.561246
vt 0.201567 0.755870
vt 0.029740 0.755870
vt 0.201567 0.997259
vt 0.029740 0.997259
vt 0.170899 0.724569
vt 0.060442 0.724569
vt 0.074066 0.876794
vt 0.077482 0.841973
vt 0.089382 0.809433
vt 0.106556 0.791412
vt 0.140976 0.809432
vt 0.152876 0.841973
vt 0.156291 0.876794
vt 0.123801 0.791412
vt 0.072129 0.997253
vt 0.103336 0.622691
vt 0.107005 0.589377
vt 0.124024 0.589325
vt 0.127705 0.622638
vt 0.158228 0.997253
vt 0.074066 0.997253
vt 0.156291 0.997253
vt 0.360492 0.589377
vt 0.343497 0.589325
vt 0.339822 0.622638
vt 0.364155 0.622691
vt 0.296693 0.724569
vt 0.406983 0.724569
vt 0.437639 0.755870
vt 0.383048 0.997253
vt 0.380245 0.849644
vt 0.352136 0.811849
vt 0.324027 0.849644
vt 0.321224 0.997253
vt 0.266073 0.997259
vt 0.311185 0.997253
vt 0.311185 0.876568
vt 0.266073 0.755870
vt 0.437639 0.997259
vt 0.393464 0.875636
vt 0.393813 0.997253
vt 0.389844 0.841322
vt 0.378064 0.809080
vt 0.361164 0.791024
vt 0.326576 0.809079
vt 0.343381 0.791630
vt 0.314617 0.841681
vt 0.039993 0.267056
vt 0.039993 0.295219
vt 0.117764 0.295219
vt 0.117764 0.267056
vt 0.013024 0.755864
vt 0.013024 0.997263
vt 0.025630 0.997259
vt 0.025630 0.755870
vt 0.221827 0.997266
vt 0.221827 0.755867
vt 0.205314 0.755870
vt 0.205314 0.997259
vt 0.263985 0.267056
vt 0.263985 0.295219
vt 0.299272 0.295219
vt 0.299272 0.267055
vt 0.186150 0.267056
vt 0.186150 0.295219
vt 0.004847 0.267055
vt 0.004847 0.295219
vt 0.160332 0.267055
vt 0.143393 0.267055
vt 0.143393 0.295219
vt 0.160332 0.295219
vt 0.139561 0.295219
vt 0.139561 0.267055
vt 0.164385 0.267055
vt 0.164385 0.295219
vt 0.491740 0.299593
vt 0.427080 0.299593
vt 0.427080 0.548385
vt 0.491740 0.548385
vt 0.375752 0.455305
vt 0.318242 0.455305
vt 0.318242 0.548385
vt 0.375752 0.548385
vt 0.388963 0.424995
vt 0.388963 0.299593
vt 0.496920 0.297292
vt 0.486008 0.174574
vt 0.439330 0.174574
vt 0.439330 0.288806
vt 0.486008 0.288806
vt 0.533496 0.175740
vt 0.533496 0.288806
vt 0.347901 0.173222
vt 0.347901 0.288806
vt 0.490342 0.166764
vt 0.490342 0.138423
vt 0.444743 0.138423
vt 0.444743 0.166764
vt 0.537687 0.167986
vt 0.537687 0.138423
vt 0.352235 0.165347
vt 0.352235 0.138423
vt 0.314328 0.424995
vt 0.203452 0.050305
vt 0.235634 0.050304
vt 0.204953 0.043445
vt 0.231513 0.043251
vt 0.467653 0.997253
vt 0.695427 0.997253
vt 0.695427 0.948613
vt 0.467663 0.948203
vt 0.467210 0.946907
vt 0.695427 0.948613
vt 0.466091 0.760149
vt 0.695427 0.762786
vt 0.543170 0.545649
vt 0.543170 0.154030
vt 0.690043 0.751169
vt 0.690043 0.690368
vt 0.752611 0.751169
vt 0.752611 0.690368
vt 0.491709 0.751169
vt 0.554277 0.751169
vt 0.554277 0.690368
vt 0.491709 0.690368
vt 0.256554 0.112189
vt 0.246204 0.100877
vt 0.246179 0.112189
vt 0.242878 0.084788
vt 0.733130 0.678742
vt 0.782114 0.678742
vt 0.782113 0.558988
vt 0.733129 0.558989
vt 0.570096 0.084564
vt 0.641981 0.084564
vt 0.945420 0.993749
vt 0.996776 0.993749
vt 0.996776 0.762681
vt 0.945420 0.762681
vt 0.233072 0.747471
vt 0.275185 0.735844
vt 0.186719 0.675604
vt 0.192190 0.725681
vt 0.890612 0.670936
vt 0.895382 0.638109
vt 0.821911 0.665007
vt 0.836804 0.635396
vt 0.857968 0.635396
vt 0.836804 0.600129
vt 0.836804 0.635396
vt 0.892737 0.572063
vt 0.895382 0.603522
vt 0.835863 0.561164
vt 0.937333 0.580475
vt 0.919899 0.603522
vt 0.919899 0.638109
vt 0.919899 0.638109
vt 0.937333 0.664964
vt 0.937333 0.580475
vt 0.495258 0.468109
vt 0.494772 0.547837
vt 0.522344 0.337824
vt 0.522344 0.324430
vt 0.512449 0.324430
vt 0.512449 0.337824
vt 0.150542 0.375993
vt 0.150542 0.303144
vt 0.221666 0.303144
vt 0.221666 0.303144
vt 0.221666 0.375993
vt 0.299272 0.375993
vt 0.636082 0.680764
vt 0.636082 0.557394
vt 0.041939 0.375993
vt 0.041939 0.303144
vt 0.041939 0.303144
vt 0.004847 0.375993
vt 0.047539 0.436505
vt 0.091997 0.434559
vt 0.098892 0.508832
vt 0.068672 0.581137
vt 0.455236 0.557394
vt 0.508926 0.620176
vt 0.042882 0.604800
vt 0.049524 0.588154
vt 0.046393 0.564955
vt 0.035297 0.548837
vt 0.022738 0.549243
vt 0.016071 0.565934
vt 0.019202 0.589133
vt 0.030271 0.605113
vt 0.326338 0.557857
vt 0.364300 0.557856
vt 0.169784 0.151338
vt 0.152070 0.196128
vt 0.376864 0.576842
vt 0.376864 0.557855
vt 0.408691 0.557853
vt 0.408691 0.576841
vt 0.408691 0.576841
vt 0.408691 0.557853
vt 0.376864 0.557855
vt 0.376864 0.557855
vt 0.376864 0.576842
vt 0.408691 0.576841
vt 0.010629 0.692527
vt 0.010624 0.702952
vt 0.036853 0.702747
vt 0.036859 0.692831
vt 0.413720 0.084649
vt 0.564097 0.084649
vt 0.554496 0.042157
vt 0.539363 0.042157
vt 0.570092 0.042157
vt 0.034683 0.427268
vt 0.034683 0.384079
vt 0.005191 0.472018
vt 0.009132 0.494067
vt 0.320121 0.586270
vt 0.302362 0.586270
vt 0.190305 0.586270
vt 0.177526 0.588238
vt 0.202114 0.586270
vt 0.285070 0.586270
vt 0.268285 0.586270
vt 0.252454 0.586270
vt 0.312860 0.668586
vt 0.336769 0.586270
vt 0.158228 0.874401
vt 0.072129 0.874401
vt 0.075705 0.838888
vt 0.088167 0.805702
vt 0.106150 0.787323
vt 0.124208 0.787323
vt 0.142192 0.805701
vt 0.154653 0.838888
vt 0.309220 0.874535
vt 0.309220 0.997253
vt 0.395051 0.874535
vt 0.395051 0.997253
vt 0.391486 0.839061
vt 0.379064 0.805911
vt 0.361136 0.787551
vt 0.325208 0.805910
vt 0.343136 0.787551
vt 0.312785 0.839061
vt 0.366620 0.548385
vt 0.429373 0.548385
vt 0.429373 0.299593
vt 0.496920 0.380959
vt 0.537330 0.380959
vt 0.537330 0.297292
vt 0.484734 0.288806
vt 0.484734 0.175740
vt 0.310970 0.288806
vt 0.310970 0.173222
vt 0.394227 0.288806
vt 0.442908 0.288806
vt 0.442908 0.174041
vt 0.394227 0.174041
vt 0.499421 0.138423
vt 0.499421 0.167986
vt 0.306637 0.138423
vt 0.306637 0.165347
vt 0.428302 0.138423
vt 0.390035 0.138423
vt 0.390035 0.166205
vt 0.428302 0.166205
vt 0.536746 0.390653
vt 0.497451 0.390602
vt 0.497408 0.457201
vt 0.536704 0.457251
vt 0.387133 0.299593
vt 0.314328 0.299593
vt 0.387133 0.424995
vt 0.242818 0.112189
vt 0.242818 0.112189
vt 0.049363 0.112190
vt 0.049393 0.100878
vt 0.049393 0.100878
vt 0.242848 0.100877
vt 0.570096 0.117051
vt 0.641981 0.117050
vt 0.570096 0.117051
vt 0.522485 0.468256
vt 0.522485 0.547955
vt 0.522485 0.468256
vt 0.511964 0.547977
vt 0.511964 0.468237
vt 0.511964 0.468237
vt 0.503166 0.468251
vt 0.503147 0.547955
vt 0.503166 0.468251
vt 0.259732 0.097710
vt 0.410561 0.097710
vt 0.259732 0.097710
vt 0.734794 0.008551
vt 0.685201 0.008551
vt 0.734794 0.008551
vt 0.554496 0.075931
vt 0.554496 0.042157
vt 0.554496 0.075931
vt 0.375752 0.455305
vn -0.461653 0.886823 0.020528999999999943
vn -0.960559 0.277276 0.021095999999999983
vn -0.984304 -0.160155 0.07413400000000002
vn -0.763849 0.640889 0.07613299999999996
vn -0.030916 0.99623 0.08105599999999995
vn 0.380137 0.47395400000000004 0.794269
vn 0.517063 0.06605500000000006 0.853395
vn 0.34108 -0.2681319999999999 0.900983
vn 0.03748 -0.38860199999999995 0.920643
vn -0.261819 -0.30122299999999996 0.916906
vn -0.458609 -0.023113999999999944 0.888337
vn -0.41077 0.37129700000000004 0.832711
vn -0.047111 0.621309 0.782148
vn 0.013568 0.07679100000000005 0.996955
vn 0.536751 0.843559 -0.017519000000000052
vn 0.97399 0.226556 0.003970999999999986
vn 0.850006 -0.525674 0.03400800000000003
vn 0.227811 -0.972161 0.05480900000000006
vn -0.534804 -0.843212 0.05457100000000005
vn -0.975906 -0.215533 0.03394500000000002
vn -0.845387 0.534139 0.004095999999999967
vn -0.215787 0.976271 -0.01821000000000006
vn 0.173648 0.984808 -6.030209824873533E-17
vn 0.173648 0.984808 -6.030209824873533E-17
vn -0.173648 -0.984808 6.030209824873533E-17
vn 0.984808 -0.173648 1.063287336891698E-17
vn 0.173648 0.984808 -6.030209824873533E-17
vn 0.173648 0.984808 -6.030209824873533E-17
vn -0.173648 -0.984808 6.030209824873533E-17
vn 0.984808 -0.173648 1.063287336891698E-17
vn -0.696365 0.12278800000000004 0.707106
vn 0.696364 -0.12278799999999995 0.707107
vn 0.696364 -0.12278799999999995 0.707107
vn -0.696365 0.12278800000000004 0.707106
vn -0.984808 0.173648 -1.0000000000106328E-06
vn 0.984808 -0.173648 1.063287336891698E-17
vn 0.984808 -0.173648 1.063287336891698E-17
vn -0.173648 -0.984808 6.030209824873533E-17
vn 0.984808 -0.173648 -4.999999999989368E-06
vn 0.984808 -0.173648 -4.999999999989368E-06
vn 0.984808 -0.173648 -4.999999999989368E-06
vn 0.984808 -0.173648 -4.999999999989368E-06
vn -0.984808 0.173648 2.9999999999893673E-06
vn -0.984808 0.173648 2.9999999999893673E-06
vn -0.984808 0.173648 2.9999999999893673E-06
vn -0.984808 0.173648 2.9999999999893673E-06
vn -0.984808 0.173648 -1.0000000000106328E-06
vn 0.984808 -0.173648 1.063287336891698E-17
vn 0.803181 -0.595735 3.6478248044502425E-17
vn -0.595735 -0.803181 -9.999999999508193E-07
vn -0.984808 0.173648 -1.0000000000106328E-06
vn 0.984808 -0.173648 1.063287336891698E-17
vn 0.285104 -0.958497 5.869101415211703E-17
vn -0.958497 -0.285104 -9.999999999825424E-07
vn -0 6.123233995736766E-17 1
vn -0 6.123233995736766E-17 1
vn -0 6.123233995736766E-17 1
vn -0 6.123233995736766E-17 1
vn -0 6.123233995736766E-17 1
vn -0 6.123233995736766E-17 1
vn -0 6.123233995736766E-17 1
vn -0 6.123233995736766E-17 1
vn 0.984808 -0.173648 1.063287336891698E-17
vn 0.984808 -0.173648 1.063287336891698E-17
vn 0.984808 -0.173648 1.063287336891698E-17
vn 0.984808 -0.173648 1.063287336891698E-17
vn 0.984808 -0.173648 1.063287336891698E-17
vn 0.763139 -0.2941349999999999 0.575416
vn 0.763142 -0.29413199999999995 0.575413
vn 0.763135 -0.29413799999999996 0.57542
vn 0.763139 -0.2941349999999999 0.575416
vn 0.815943 -0.055934999999999964 0.575421
vn 0.815941 -0.05593099999999997 0.575423
vn 0.815941 -0.05593099999999997 0.575423
vn 0.815939 -0.05592599999999996 0.575426
vn 0.09112 0.974772 0.20375799999999994
vn -0.793267 0.574566 0.20149799999999998
vn -0.181249 0.728729 0.660381
vn 0.076537 0.732319 0.676647
vn -0.983816 0.166897 0.06519999999999998
vn -0.029619 -0.15465499999999993 0.987525
vn -0.456735 -0.05313599999999995 0.888015
vn 0.09471 -0.044673999999999936 0.994502
vn 0.092337 -0.022326999999999937 0.995478
vn 0.089916 3.2000000000060985E-05 0.995949
vn 0.092337 -0.022326999999999937 0.995478
vn -0.03114 0.959138 -0.2812200000000001
vn -0.109021 0.900596 -0.4207620000000001
vn -0.729573 0.023560999999999957 -0.683497
vn 0.047643 0.989899 -0.13353200000000007
vn -0 -1 -9.999999999387675E-07
vn -1E-06 -1 2.0000000000612323E-06
vn -0 -1 3.0000000000612325E-06
vn -0 -1 6.123233995736766E-17
vn 0 -1 -2.9999999999387676E-06
vn 0 1 9.999999999387675E-07
vn 1E-06 1 9.999999999387675E-07
vn 2E-06 1 9.999999999387675E-07
vn 1E-06 1 9.999999999387675E-07
vn 1E-06 1 -6.123233995736766E-17
vn 0.092766 0.04486200000000006 0.994677
vn 0.09201 0.022332000000000064 0.995508
vn -0.661553 0.016093000000000045 0.749726
vn 0.751633 0.007687000000000041 0.659537
vn 0.75488 0.01124700000000004 0.655767
vn -0.067617 0.990689 0.11816299999999995
vn 0.09201 0.022332000000000064 0.995508
vn 0.091208 -0.00020999999999993902 0.995832
vn -0.75236 -0.0012280000000000403 -0.658751
vn 0.748358 0.00412700000000004 0.663283
vn 0.656916 -0.012644000000000048 -0.753857
vn 0.751633 0.007687000000000041 0.659537
vn 0.670826 0.0016889999999999546 -0.741613
vn -0.03114 0.959138 -0.2812200000000001
vn -0.449566 0.007098000000000055 0.893219
vn -0.005991 0.973393 0.22906299999999993
vn -0.95832 -0.285058 -0.019077999999999984
vn -0.285049 0.958333 -0.01860100000000006
vn 0.958321 0.285058 -0.01907800000000002
vn 0.285049 -0.958333 -0.01859999999999994
vn -0.774714 0.18723500000000004 0.603955
vn 0.007908 0.07022400000000005 0.9975
vn 0.996643 0.064757 0.050096999999999996
vn -0.461653 0.886823 0.020528999999999943
vn -0.000573 -4.999999999993877E-05 1
vn -0.960559 0.277276 0.021095999999999983
vn 0.917157 0.395461 0.04932399999999998
vn 0.996563 0.063205 0.05354799999999999
vn 0.600262 0.799777 -0.006568000000000049
vn -0.204349 -0.977702 0.048377000000000066
vn 0.259506 -0.964203 0.05449400000000006
vn 0.582154 0.813029 0.00902499999999995
vn 0.962444 -0.26849 0.040195000000000015
vn 0.918042 0.393588 0.04782699999999998
vn 0.47214 -0.879667 0.057193000000000056
vn 0.469964 -0.881153 0.051989000000000056
vn 0.020785 -0.998508 0.05050100000000006
vn -0.206298 -0.977414 0.045857000000000064
vn -2.9E-05 0.0003310000000000613 1
vn -0.595627 -0.803046 -0.01859999999999995
vn -0.803032 0.595631 -0.01907800000000004
vn 0.595627 0.803046 -0.018600000000000047
vn 0.803031 -0.595632 -0.019077999999999963
vn -0.984808 0.173648 -1.063287336891698E-17
vn 0.173648 0.984808 -6.030209824873533E-17
vn -0.622319 0.10973200000000004 0.775035
vn -0.173648 -0.984808 6.030209824873533E-17
vn -0.984808 0.173648 -1.063287336891698E-17
vn -0.173648 -0.984808 6.030209824873533E-17
vn -1E-06 6.123233995736766E-17 1
vn -0.173648 -0.984808 6.030209824873533E-17
vn -0 6.123233995736766E-17 1
vn -0.94573 0.16675800000000002 0.278902
vn 0.173648 0.984808 -1.0000000000603021E-06
vn -0.173648 -0.984808 6.030209824873533E-17
vn 0.173648 0.984808 -1.0000000000603021E-06
vn -0.173648 -0.984808 6.030209824873533E-17
vn 0.173648 0.984808 -6.030209824873533E-17
vn -0.173648 -0.984808 6.030209824873533E-17
vn -0.173648 -0.984808 6.030209824873533E-17
vn 0.173648 0.984808 -6.030209824873533E-17
vn 0.173648 0.984808 -6.030209824873533E-17
vn -0.173648 -0.984808 6.030209824873533E-17
vn -0.173648 -0.984808 6.030209824873533E-17
vn 0.173648 0.984808 -6.030209824873533E-17
vn -0.15988 -0.22833199999999995 0.960366
vn -0.15988 -0.22833199999999995 0.960366
vn -0.15988 -0.22833199999999995 0.960366
vn -0.15988 -0.22833199999999995 0.960366
vn -0.97243 0.171466 0.158048
vn -0.972517 0.171481 0.157496
vn -0.984777 0.173824 -0.00037500000000001063
vn -0.97245 0.17135 0.158048
vn -0.979295 0.172676 0.10566099999999999
vn -0.97243 0.171466 0.158048
vn -0.972484 0.171415 0.157772
vn -0.984808 0.173648 -1.0000000000106328E-06
vn -0.984777 0.173824 -0.00037500000000001063
vn 0.306677 -0.054075999999999944 0.950276
vn 0.306677 -0.054075999999999944 0.950276
vn 0.306677 -0.054075999999999944 0.950276
vn 0.306677 -0.054075999999999944 0.950276
vn -0.173648 -0.984808 6.030209824873533E-17
vn -0.173648 -0.984808 6.030209824873533E-17
vn -0.173648 -0.984808 6.030209824873533E-17
vn -0.173648 -0.984808 6.030209824873533E-17
vn -0.984828 0.173531 -0.0007510000000000107
vn -0.984725 0.174118 -1.0661652568696941E-17
vn -0.892539 0.15737900000000002 0.422618
vn -0.892539 0.15737900000000002 0.422618
vn -0.892539 0.15737900000000002 0.422618
vn -0.892539 0.15737900000000002 0.422618
vn -0.892539 0.15737900000000002 0.422618
vn -0.492404 0.08682400000000005 0.866025
vn -0.492404 0.08682400000000005 0.866025
vn -0.892539 0.15737900000000002 0.422618
vn -0.892539 0.15737900000000002 0.422618
vn -0.892539 0.15737900000000002 0.422618
vn -0.492404 0.08682400000000005 0.866025
vn -0.492404 0.08682400000000005 0.866025
vn -0.492244 0.17916200000000004 0.851819
vn -0.492244 0.17916200000000004 0.851819
vn -0.492244 0.17916200000000004 0.85182
vn -0.492244 0.17916200000000004 0.851819
vn 0.159891 0.906791 0.39008399999999993
vn 0.952345 0.250213 0.17445099999999997
vn 0.58343 0.7334 0.34890199999999993
vn 0.159891 0.906791 0.39008399999999993
vn 0.984808 -0.173648 1.063287336891698E-17
vn 0.984808 -0.173648 1.063287336891698E-17
vn 0.173649 0.984808 -6.030209824873533E-17
vn 0.173649 0.984808 -6.030209824873533E-17
vn 0.173649 0.984808 -6.030209824873533E-17
vn 0.173649 0.984808 -6.030209824873533E-17
vn -0.173649 -0.984808 6.030209824873533E-17
vn -0.173649 -0.984808 6.030209824873533E-17
vn -0.173649 -0.984808 6.030209824873533E-17
vn -0.173649 -0.984808 6.030209824873533E-17
vn 0.173649 0.984808 -6.030209824873533E-17
vn -0.173648 -0.984808 6.030209824873533E-17
vn 0.984808 -0.173648 -9.999999999893672E-07
vn 0.984808 -0.173647 -9.999999999893672E-07
vn 0.984808 -0.173647 -9.999999999893672E-07
vn 0.984808 -0.173646 -9.999999999893672E-07
vn 0.235388 0.892679 0.38433999999999996
vn 0.979583 0.09636200000000002 0.176441
vn 0.648963 0.671626 0.35744299999999996
vn 0.15293 0.910334 0.38458299999999995
vn 0.939692 -0.342022 -9.99999999979057E-07
vn 0.945382 -0.325864 0.008044000000000022
vn 0.939693 -0.34202 -9.999999999790573E-07
vn 0.939693 -0.342019 -9.999999999790573E-07
vn 0.939693 -0.342019 -9.999999999790573E-07
vn 0.939694 -0.342018 -9.999999999790575E-07
vn -0.015445 -0.08556299999999994 0.996213
vn -0.015345 -0.08559799999999994 0.996212
vn -0.015345 -0.08559799999999994 0.996212
vn -0.015245 -0.08563299999999995 0.99621
vn 0.990344 0.138629 0.00021399999999999151
vn 0.975653 0.21924 0.005854999999999987
vn 0.792585 0.609743 -0.004781000000000037
vn -0.415793 0.909436 -0.006444000000000056
vn -0.792744 0.609551 -0.0017980000000000372
vn -0.841207 0.540696 0.004294999999999967
vn 0.969654 -0.24305 0.026399000000000013
vn -0.970845 0.237711 -0.030892000000000013
vn 0.970845 -0.237711 0.030892000000000013
vn 0.971135 -0.234863 0.04168100000000002
vn 0.973078 -0.226999 0.03987200000000001
vn 0.668067 -0.11779799999999996 0.734717
vn -0 6.123233995736766E-17 1
vn 0.074936 0.42495800000000006 0.902106
vn 0.520045 0.700943 0.48808999999999997
vn 0.173058 0.981383 0.08329399999999995
vn 0.952907 0.283313 0.10817599999999998
vn 0.981681 -0.173097 0.07961900000000001
vn 0.300338 0.952546 0.04952099999999995
vn -0.886045 -0.461179 0.04730400000000003
vn 0.491019 0.863778 0.11307999999999994
vn 0.969681 0.214947 0.11626199999999999
vn 0.567983 -0.81739 0.09627700000000006
vn 0.086865 -0.992866 0.08168000000000006
vn -0.644977 -0.759253 0.08683100000000005
vn -0.993303 -0.086903 0.076133
vn -0.763835 0.640905 0.07614299999999996
vn -0.086902 0.993301 0.07617199999999995
vn 0.992293 -0.05073699999999999 0.113053
vn 0.091279 -0.992223 0.08463100000000005
vn -0.123796 -0.991307 0.044547000000000066
vn -0.745383 -0.661898 0.07933800000000005
vn 0.618036 0.778695 0.10800599999999996
vn 0.265424 -0.958339 0.10552800000000005
vn -0.972484 0.171415 0.157772
vn 0.960831 -0.273445 0.04507500000000001
vn -0.587168 -0.80946 0.0028360000000000494
vn -0.983432 0.173406 0.05282999999999999
vn -0.984808 0.173648 -1.0000000000106328E-06
vn 0.969902 -0.243319 0.009304000000000015
vn 0.7399 0.672614 -0.011788000000000042
vn 0.998744 -0.048013 0.014329000000000003
vn 0.674605 -0.736928 0.04294900000000005
vn -0.049762 -0.997123 0.05717100000000006
vn -0.743816 -0.666546 0.04954500000000004
vn -0.998322 0.052611 0.024196999999999996
vn -0.670921 0.74151 -0.005387000000000045
vn 0.057691 0.998123 -0.020565000000000062
vn -0.892539 0.15737900000000002 0.422618
vn -0.892539 0.15737900000000002 0.422618
vn -0.892539 0.15737900000000002 0.422618
vn -0.892539 0.15737900000000002 0.422618
vn -0.492404 0.08682400000000005 0.866025
vn -0.492404 0.08682400000000005 0.866025
vn -0.492404 0.08682400000000005 0.866025
vn -0.492404 0.08682400000000005 0.866025
vn -0.984808 0.173648 -1.0000000000106328E-06
vn -0.984808 0.173648 -1.0000000000106328E-06
vn -0.984808 0.173648 -1.0000000000106328E-06
vn -0.984808 0.173648 -1.0000000000106328E-06
vn -0.984808 0.173648 -1.063287336891698E-17
vn -0.817714 -0.015391999999999965 0.575419
vn -0.817716 -0.015387999999999966 0.575416
vn -0.817716 -0.015387999999999966 0.575416
vn -0.817718 -0.015382999999999966 0.575413
vn -0.785863 0.22651100000000002 0.575423
vn -0.78586 0.22651300000000002 0.575427
vn -0.785867 0.22650800000000001 0.575419
vn -0.785863 0.22651100000000002 0.575423
vn -0.969654 0.24305 -0.026399000000000013
vn -0.971135 0.234863 -0.04168100000000002
vn -0.973078 0.226999 -0.03987200000000001
vn -0.969902 0.243319 -0.009304000000000015
vn 0.005831 0.999945 -0.008720000000000061
vn 0.005831 0.999945 -0.008720000000000061
vn 0.005831 0.999945 -0.008720000000000061
vn 0.012977 -0.970187 0.24200900000000006
vn -0.05147 -0.991093 0.12282600000000006
vn 0.012977 -0.970187 0.24200900000000006
vn 0.07718 -0.931047 0.35664400000000007
vn 0.005265 -0.999944 -0.00921299999999994
vn 0.005265 -0.999944 -0.00921299999999994
vn 0.005265 -0.999944 -0.00921299999999994
vn -2.9E-05 0.0003310000000000613 1
vn -2.9E-05 0.0003310000000000613 1
vn -2.9E-05 3.700000000006123E-05 1
vn -0.000116 0.00042200000000006127 1
vn -0.587168 -0.80946 0.0028360000000000494
vn -0.586629 -0.809847 0.0037910000000000495
vn -0.587168 -0.80946 0.0028360000000000494
vn 0.173648 0.984808 -6.030209824873533E-17
vn 0.173648 0.984808 -6.030209824873533E-17
vn 0.173648 0.984808 -6.030209824873533E-17
vn 0.173648 0.984808 -6.030209824873533E-17
vn 0.173648 0.984808 -6.030209824873533E-17
vn 0.173648 0.984808 -6.030209824873533E-17
vn 0.173648 0.984808 -6.030209824873533E-17
vn 0.173648 0.984808 -6.030209824873533E-17
vn 0.173648 0.984808 -6.030209824873533E-17
vn -0.173648 -0.984808 6.030209824873533E-17
vn 0.173648 0.984808 -6.030209824873533E-17
vn -0.173648 -0.984808 6.030209824873533E-17
vn -0.173648 -0.984808 6.030209824873533E-17
vn 0.173648 0.984808 -6.030209824873533E-17
vn -0 6.123233995736766E-17 1
vn 0 2.0000000000612323E-06 1
vn 0 6.123233995736766E-17 1
vn -1E-06 1.0000000000612324E-06 1
vn 0.649431 0.619464 -0.44102700000000006
vn 1E-06 6.123233995736766E-17 1
vn -0 6.123233995736766E-17 1
vn 0 6.123233995736766E-17 1
vn 0 6.123233995736766E-17 1
vn 0.243969 0.85821 -0.45161400000000007
vn 0.700824 -0.516205 -0.49231899999999995
vn -0.274374 -0.82604 -0.49231899999999995
vn -0.849582 0.14980499999999997 -0.505736
vn -0.121765 0.8664 -0.48427700000000007
vn 0.707507 0.507008 -0.49231900000000006
vn 0.702913 -0.12394199999999995 0.700394
vn 0.60259 -0.10625199999999996 0.790946
vn 0.788717 -0.13907199999999997 0.59882
vn 0.788717 -0.13907199999999997 0.59882
vn -0.984807 0.17365 -1.0632995833596894E-17
vn -0.984808 0.173649 -1.0632934601256937E-17
vn -0.984807 0.17365 -1.0632995833596894E-17
vn -0.984807 0.17365 -1.0632995833596894E-17
vn 0.984808 -0.173648 1.063287336891698E-17
vn 0.984808 -0.173647 1.0632812136577021E-17
vn 0.984808 -0.173648 1.063287336891698E-17
vn 0.984808 -0.173648 1.0000000000106328E-06
vn -0.603115 0.10634600000000004 0.790533
vn -0.704235 0.12417600000000004 0.699023
vn -0.492761 0.08688800000000006 0.865816
vn -0.492761 0.08688900000000005 0.865816
vn -0.868439 0.15312900000000002 0.471556
vn -0.928493 0.16371900000000003 0.333311
vn 0.493189 -0.08696199999999994 0.865565
vn 0.493189 -0.08696099999999994 0.865565
vn 0.572256 -0.10674799999999994 0.813098
vn 0.450152 -0.07937399999999994 0.889418
vn 0.450152 -0.07937399999999994 0.889418
vn 0.450151 -0.07937399999999994 0.889418
vn 0.450151 -0.07937399999999994 0.889418
vn 0.710996 -0.11661699999999996 0.693459
vn 0.77711 -0.14846199999999998 0.611603
vn 0.785258 -0.17276299999999997 0.594577
vn 0.797 -0.10616199999999996 0.594576
vn 0.78509 -0.12124299999999996 0.6074
vn -0.00175 0.00030800000000006126 0.999998
vn -0.00175 0.00030800000000006126 0.999998
vn -0.00175 0.00030800000000006126 0.999998
vn -0.00175 0.00030800000000006126 0.999998
vn 0.966617 -0.170441 0.191316
vn 0.966617 -0.170441 0.191316
vn 0.966617 -0.170441 0.191316
vn 0.966617 -0.170441 0.191316
vn -0.966723 0.17046 0.190761
vn -0.966723 0.17046 0.190761
vn -0.450151 0.07937400000000006 0.889418
vn -0.688382 0.10969100000000004 0.717007
vn -0.604398 0.11160000000000005 0.788828
vn -0.450151 0.07937400000000006 0.889418
vn -0.450151 0.07937400000000006 0.889418
vn -0.450151 0.07937400000000006 0.889418
vn -0.77921 0.15458600000000003 0.6074
vn -0.785244 0.17283100000000004 0.594576
vn -0.79699 0.10623000000000005 0.594578
vn -0.781022 0.12627900000000003 0.611603
vn 0.173647 0.984808 -6.030209824873533E-17
vn 0.173647 0.984808 -6.030209824873533E-17
vn 0.173647 0.984808 -6.030209824873533E-17
vn 0.173646 0.984808 -6.030209824873533E-17
vn 0.173648 0.984808 -6.030209824873533E-17
vn 0.173648 0.984808 -6.030209824873533E-17
vn 0.173648 0.984808 -6.030209824873533E-17
vn 0.173648 0.984808 -6.030209824873533E-17
vn -0.173648 -0.984808 6.030209824873533E-17
vn -0.173648 -0.984808 6.030209824873533E-17
vn -0.173648 -0.984808 6.030209824873533E-17
vn -0.173648 -0.984808 6.030209824873533E-17
vn -0.176794 -0.984248 6.02678081383592E-17
vn -0.176794 -0.984248 6.02678081383592E-17
vn -0.176794 -0.984248 6.02678081383592E-17
vn -0.176793 -0.984248 6.02678081383592E-17
vn -0.173648 -0.984808 6.030209824873533E-17
vn -0.173648 -0.984808 6.030209824873533E-17
vn -0.173648 -0.984808 6.030209824873533E-17
vn -0.173648 -0.984808 6.030209824873533E-17
vn 0.173648 0.984808 9.999999999396978E-07
vn 0.173648 0.984808 9.999999999396978E-07
vn 0.173648 0.984808 9.999999999396978E-07
vn 0.173648 0.984808 -6.030209824873533E-17
vn -0.173648 -0.984808 6.030209824873533E-17
vn -0.173648 -0.984808 6.030209824873533E-17
vn -0.173648 -0.984808 6.030209824873533E-17
vn -0.173648 -0.984808 6.030209824873533E-17
vn 0.173648 0.984808 -6.030209824873533E-17
vn 0.173648 0.984808 -6.030209824873533E-17
vn 0.173648 0.984808 -6.030209824873533E-17
vn 0.173648 0.984808 -6.030209824873533E-17
vn 0.173539 0.984827 -0.0001260000000000603
vn 0.173731 0.984793 -0.00015300000000006031
vn 0.173411 0.98485 -6.030467000701354E-17
vn 0.173889 0.984765 -6.029946525811716E-17
vn 0.173648 0.984808 -6.030209824873533E-17
vn 0.173648 0.984808 -6.030209824873533E-17
vn 0.173649 0.984808 -6.030209824873533E-17
vn 0.17365 0.984807 -1.000000000060302E-06
vn 0.173649 0.984808 -6.030209824873533E-17
vn 0.173649 0.984808 -2.000000000060302E-06
vn 0.173649 0.984808 9.999999999396978E-07
vn 0.173648 0.984808 -6.030209824873533E-17
vn 0.173648 0.984808 -6.030209824873533E-17
vn 0.173649 0.984808 -6.030209824873533E-17
vn 0.173888 0.984765 -6.029946525811716E-17
vn 0.173648 0.984808 -6.030209824873533E-17
vn 0.173648 0.984808 -6.030209824873533E-17
vn 0.173648 0.984808 -6.030209824873533E-17
vn 0.173648 0.984808 -6.030209824873533E-17
vn 0.173411 0.98485 -6.030467000701354E-17
vn 0.173648 0.984808 -6.030209824873533E-17
vn 0.173648 0.984808 -6.030209824873533E-17
vn -0.173648 -0.984808 6.030209824873533E-17
vn -0.173648 -0.984808 6.030209824873533E-17
vn -0.173648 -0.984808 6.030209824873533E-17
vn -0.173648 -0.984808 6.030209824873533E-17
vn -0.173648 -0.984808 6.030209824873533E-17
vn -0.173648 -0.984808 -9.999999999396978E-07
vn -0.17367 -0.984804 3.90000000000603E-05
vn -0.173933 -0.984758 4.000000000060299E-06
vn -0.17392 -0.98476 0.00013100000000006032
vn -0.173715 -0.984796 0.0002310000000000603
vn -0.173415 -0.984849 0.00011100000000006031
vn -0.173327 -0.984864 1.1000000000060305E-05
vn -0.173595 -0.984817 6.030264933979495E-17
vn -0.173429 -0.984846 8.000000000060303E-06
vn -0.173648 -0.984808 6.030209824873533E-17
vn -0.173627 -0.984811 2.4000000000060303E-05
vn -0.173703 -0.984798 6.030148592533576E-17
vn -0.173946 -0.984755 2.2000000000060298E-05
vn -0.173969 -0.984751 6.029860800535776E-17
vn -0.173873 -0.984768 0.00015200000000006032
vn -0.173764 -0.984787 0.0001440000000000603
vn -0.17371 -0.984797 0.0002840000000000603
vn -0.173464 -0.98484 0.00017000000000006032
vn -0.173572 -0.984821 0.0002310000000000603
vn -0.173442 -0.984844 6.700000000006031E-05
vn -0.704235 0.12417600000000004 0.699023
vn -0.603116 0.10634500000000004 0.790533
vn -0.868439 0.15312900000000002 0.471556
vn -0.928493 0.16371900000000003 0.333312
vn -0.984808 0.173647 -1.0632812136577021E-17
vn -0.984808 0.173647 -1.0632812136577021E-17
vn -0.984808 0.173647 -1.0632812136577021E-17
vn -0.984808 0.173647 -1.0632812136577021E-17
vn 0.984808 -0.173649 1.0632934601256937E-17
vn 0.984808 -0.173648 1.063287336891698E-17
vn 0.984808 -0.173649 1.0632934601256937E-17
vn 0.984808 -0.173649 1.0632934601256937E-17
vn 0.60259 -0.10625299999999996 0.790946
vn 0.702913 -0.12394299999999996 0.700394
vn 0.493189 -0.08696299999999994 0.865565
vn 0.493189 -0.08696299999999994 0.865565
vn 0.867382 -0.15294299999999997 0.473558
vn 0.928036 -0.16363799999999998 0.334621
vn -0.492762 0.08688700000000006 0.865816
vn -0.492762 0.08688700000000006 0.865816
vn -0.001749 0.00030900000000006123 0.999998
vn -0.001748 0.00031000000000006126 0.999998
vn -0.001749 0.00030900000000006123 0.999998
vn -0.00175 0.00030800000000006126 0.999998
vn -0.966723 0.17046 0.190761
vn -0.966723 0.17046 0.190761
vn 0.966617 -0.170441 0.191315
vn 0.966617 -0.170441 0.191315
vn 0.122788 0.696364 0.707107
vn -0.720418 0.530174 0.44711699999999993
vn -0.574432 0.817334 0.044635999999999953
vn 0.173648 0.984808 -6.030209824873533E-17
vn -0.3921 -0.832206 0.3920350000000001
vn -0.159769 -0.906096 0.39174500000000007
vn -0.171085 -0.970271 0.17118500000000006
vn -0.942037 -0.303781 0.14242200000000002
vn -0.946798 -0.259024 0.19099800000000003
vn -0.438334 -0.59169 0.676584
vn -0.122788 -0.696364 0.707107
vn 0.595735 0.803181 -4.918065203929852E-17
vn -0.803181 0.595735 -3.6478248044502425E-17
vn -0.285104 0.958497 -5.869101415211703E-17
vn 0.958497 0.285104 -1.745758505120535E-17
vn 0.803181 -0.595735 3.6478248044502425E-17
vn 0.285104 -0.958497 5.869101415211703E-17
vn -0.595735 -0.803181 4.918065203929852E-17
vn -0.958497 -0.285104 1.745758505120535E-17
vn 0.173648 0.984808 -6.030209824873533E-17
vn 0.173648 0.984808 -6.030209824873533E-17
vn 0.173648 0.984808 -6.030209824873533E-17
vn 0.173648 0.984808 -6.030209824873533E-17
vn 0.984808 -0.173648 -9.999999999893672E-07
vn 0.984808 -0.173648 -9.999999999893672E-07
vn -0.173648 -0.984808 6.030209824873533E-17
vn -0.173648 -0.984808 6.030209824873533E-17
vn -0.165023 -0.93589 0.31125300000000006
vn 0.173648 0.984808 -6.030209824873533E-17
vn 0.173648 0.984808 -6.030209824873533E-17
vn 0.173648 0.984808 -6.030209824873533E-17
vn 0.173648 0.984808 -6.030209824873533E-17
vn 0.97243 -0.171466 0.15805
vn 0.97243 -0.171466 0.158049
vn 0.97243 -0.171466 0.15805
vn 0.97243 -0.171466 0.15805
vn 0.984781 -0.173799 0.0004990000000000106
vn 0.984743 -0.174013 1.065522317300142E-17
vn 0.984818 -0.173586 0.0009990000000000107
vn 0.984781 -0.173799 0.0004990000000000106
vn 0.057691 0.998123 -0.020565000000000062
vn -0.215787 0.976271 -0.01821000000000006
vn 0.984808 -0.173648 1.063287336891698E-17
vn 0.984808 -0.173648 1.063287336891698E-17
vn -0.173648 -0.984808 6.030209824873533E-17
vn -0.173648 -0.984808 6.030209824873533E-17
vn -0.984808 0.173648 -1.063287336891698E-17
vn -0.984808 0.173648 -1.063287336891698E-17
vn -0.984808 0.173648 -1.063287336891698E-17
vn -0.984808 0.173648 -1.063287336891698E-17
vn -0.173648 -0.984808 6.030209824873533E-17
vn -0.173648 -0.984808 6.030209824873533E-17
vn -0.173648 -0.984808 6.030209824873533E-17
vn -0.984808 0.173648 -1.0000000000106328E-06
vn -0.173648 -0.984808 6.030209824873533E-17
vn -0.173648 -0.984808 6.030209824873533E-17
vn -0.173648 -0.984808 6.030209824873533E-17
vn -0.173648 -0.984808 6.030209824873533E-17
vn -0.958497 -0.285104 -9.999999999825424E-07
vn -0.595735 -0.803181 -9.999999999508193E-07
vn -0 6.123233995736766E-17 1
vn -0 6.123233995736766E-17 1
vn -0 6.123233995736766E-17 1
vn -0 6.123233995736766E-17 1
vn -0.774714 0.18723500000000004 0.603955
vn -0.456735 -0.05313599999999995 0.888015
vn -0.793267 0.574566 0.20149799999999998
vn -0.181249 0.728729 0.660381
vn -0.729573 0.023560999999999957 -0.683497
vn -0.705513 0.048308999999999956 -0.707049
vn -0.005991 0.973393 0.22906299999999993
vn 0.055734 0.940138 0.3362069999999999
vn 0.090383 0.004222000000000061 0.995898
vn -0.178733 0.00335500000000006 0.983892
vn 0.092202 0.005669000000000061 0.995724
vn 0.642646 -0.02696900000000005 -0.765688
vn 0.656916 -0.012644000000000048 -0.753857
vn -0.669025 0.008477000000000045 0.743191
vn -0.031516 -0.999438 -0.01144499999999994
vn -0.031516 -0.999438 -0.01144499999999994
vn -0.031516 -0.999438 -0.01144499999999994
vn 0.04639 -0.968441 -0.24488999999999994
vn 0.04639 -0.968441 -0.24488999999999994
vn 0.04639 -0.968441 -0.24488999999999994
vn -0.95832 -0.285058 -0.019077999999999984
vn -0.595627 -0.803046 -0.01859999999999995
vn -0 6.123233995736766E-17 1
vn -0 6.123233995736766E-17 1
vn -0 6.123233995736766E-17 1
vn -0 6.123233995736766E-17 1
vn 0.020785 -0.998508 0.05050100000000006
vn 0.259506 -0.964203 0.05449400000000006
vn -0.960559 0.277276 0.021095999999999983
vn -0.960292 0.278095 0.022397999999999984
vn -0.960292 0.278095 0.022397999999999984
vn -0.960292 0.278095 0.022397999999999984
vn -0.461653 0.886823 0.020528999999999943
vn -0.461661 0.886819 0.020521999999999943
vn 0.600262 0.799777 -0.006568000000000049
vn 0.600262 0.799777 -0.006568000000000049
vn 0.582154 0.813029 0.00902499999999995
vn 0.582154 0.813029 0.00902499999999995
vn -0.000573 -4.999999999993877E-05 1
vn -0.000573 -4.999999999993877E-05 1
vn -0.000409 -0.00012899999999993876 1
vn -0.000555 0.00012100000000006123 1
vn -0.586629 -0.809847 0.0037910000000000495
vn -0.586629 -0.809847 0.0037910000000000495
vn 0.160843 0.02538000000000006 0.986654
vn 0.271719 0.16122800000000007 0.948775
vn 0.154836 0.30362300000000003 0.940127
vn 0.127956 0.4058260000000001 0.904949
vn -0.086636 0.33867600000000003 0.936906
vn -0.29888 0.574144 0.762253
vn -0.349316 0.598829 0.720681
vn -0.17162 0.12169700000000006 0.977618
vn -0.94573 0.16675800000000002 0.278902
vn -0.311159 0.054866000000000054 0.948773
vn 0.173648 0.984808 -1.0000000000603021E-06
vn 0.173648 0.984808 -1.0000000000603021E-06
vn 0 6.123233995736766E-17 1
vn 0 6.123233995736766E-17 1
vn -0 6.123233995736766E-17 1
vn -0 6.123233995736766E-17 1
vn 0.98608 -0.166237 0.00342400000000001
vn 0.98608 -0.166237 0.00342400000000001
vn 0.98608 -0.166237 0.00342400000000001
vn 0.984807 -0.173648 0.0007330000000000107
vn 0.984807 -0.173648 0.0007330000000000107
vn 0.984807 -0.173648 0.0007330000000000107
vn -2E-06 6.123233995736766E-17 1
vn -2E-06 6.123233995736766E-17 1
vn -2E-06 6.123233995736766E-17 1
vn -2E-06 6.123233995736766E-17 1
vn 0.979583 0.09636200000000002 0.176441
vn 0.648963 0.671626 0.35744299999999996
vn 0.520045 0.700943 0.48808999999999997
vn 0.074936 0.42495800000000006 0.902106
vn 0.668067 -0.11779799999999996 0.734717
vn 0.618036 0.778695 0.10800599999999996
vn 0.491019 0.863778 0.11307999999999994
vn -1E-06 1.0000000000612324E-06 1
vn 1E-06 6.123233995736766E-17 1
vn -0.701818 -0.550905 -0.45161399999999996
vn -0.161289 -0.882882 -0.44102699999999995
vn -0.79502 0.41646 -0.441027
vn -0.889512 -0.11943100000000002 -0.441027
vn -0.471072 0.757718 -0.45161300000000004
vn 0.307068 -0.837708 -0.45161299999999993
vn 0.78983 -0.426221 -0.441027
vn 0.891597 0.03317299999999997 -0.451613
vn -0.849582 0.14980499999999997 -0.505736
vn -0.889512 -0.11943100000000002 -0.441027
vn 0.173427 0.984847 -1.1000000000060303E-05
vn 0.173872 0.984768 -1.10000000000603E-05
vn 0.173811 0.984779 -6.20000000000603E-05
vn 0.173763 0.984788 -0.0001270000000000603
vn 0.173695 0.984799 -0.0003150000000000603
vn 0.173617 0.984813 -0.00036500000000006026
vn 0.173535 0.984828 -0.0001260000000000603
vn 0.173487 0.984836 -6.10000000000603E-05
vn -0.173599 -0.984816 2.0000000000603023E-06
vn -0.173595 -0.984817 6.030264933979495E-17
vn -0.173699 -0.984799 3.0000000000603016E-06
vn -0.173703 -0.984798 6.030148592533576E-17
vn -0.173685 -0.984801 1.4000000000060302E-05
vn -0.173674 -0.984803 2.9000000000060302E-05
vn -0.173659 -0.984806 7.00000000000603E-05
vn -0.173623 -0.984812 2.80000000000603E-05
vn -0.173642 -0.984809 8.100000000006031E-05
vn -0.173612 -0.984814 1.4000000000060302E-05
vn -0.942037 -0.303781 0.14242200000000002
vn -0.574432 0.817334 0.044635999999999953
vn -0.720418 0.530174 0.44711699999999993
vn -0.438334 -0.59169 0.676584
vn -0.720418 0.530174 0.44711699999999993
vn 0.122788 0.696364 0.707107
vn 0.958497 0.285104 -1.745758505120535E-17
vn 0.595735 0.803181 -4.918065203929852E-17
vn 0.285104 -0.958497 5.869101415211703E-17
vn 0.803181 -0.595735 3.6478248044502425E-17
vn -0.958497 -0.285104 1.745758505120535E-17
vn -0.285104 0.958497 -5.869101415211703E-17
vn -0.803181 0.595735 -3.6478248044502425E-17
vn -0.595735 -0.803181 4.918065203929852E-17
vn 0.984808 -0.173648 -9.999999999893672E-07
vn 0.984808 -0.173648 -9.999999999893672E-07
vn -0.173648 -0.984808 6.030209824873533E-17
vn -0.173648 -0.984808 6.030209824873533E-17
vn -0.984808 0.173648 1.999999999989367E-06
vn -0.984808 0.173648 1.999999999989367E-06
vn -0.984808 0.173648 1.999999999989367E-06
vn -0.984808 0.173648 -1.063287336891698E-17
vn 1E-06 6.123233995736766E-17 1
vn 1E-06 6.123233995736766E-17 1
vn 1E-06 6.123233995736766E-17 1
vn 1E-06 6.123233995736766E-17 1
vn -0.438334 -0.59169 0.676584
vn -0.122788 -0.696364 0.707107
vn -0.946798 -0.259024 0.19099800000000003
vn 0.696364 -0.12278799999999995 0.707107
vn 0.696364 -0.12278799999999995 0.707107
vn 0.696364 -0.12278799999999995 0.707107
vn -0.696365 0.12278800000000004 0.707106
vn -0.696365 0.12278800000000004 0.707106
vn -0.696365 0.12278800000000004 0.707106
vn 0.285104 -0.958497 5.869101415211703E-17
vn 0.803181 -0.595735 3.6478248044502425E-17
vn 0.285104 -0.958497 5.869101415211703E-17
vn -0.285049 0.958333 -0.01860100000000006
vn -0.803032 0.595631 -0.01907800000000004
vn -0.285049 0.958333 -0.01860100000000006
vn 0.595627 0.803046 -0.018600000000000047
vn 0.958321 0.285058 -0.01907800000000002
vn 0.958321 0.285058 -0.01907800000000002
vn 0.285049 -0.958333 -0.01859999999999994
vn 0.803031 -0.595632 -0.019077999999999963
vn 0.285049 -0.958333 -0.01859999999999994
vn 0.952345 0.250213 0.17445099999999997
vn 0.58343 0.7334 0.34890199999999993
vn 0.952345 0.250213 0.17445099999999997
vn -0.415793 0.909436 -0.006444000000000056
vn 0.792585 0.609743 -0.004781000000000037
vn -0.415793 0.909436 -0.006444000000000056
vn 0.952907 0.283313 0.10817599999999998
vn 0.520045 0.700943 0.48808999999999997
vn 0.952907 0.283313 0.10817599999999998
vn -0.3921 -0.832206 0.3920350000000001
g orig_01
f 551/551/551 553/553/553 554/554/554
f 554/554/554 552/552/552 551/551/551
f 684/684/684 477/477/477 468/468/468
f 468/468/468 682/682/682 684/684/684
f 441/441/441 440/440/440 673/673/673
f 673/673/673 672/672/672 441/441/441
f 549/549/549 548/548/548 547/547/547
f 547/547/547 550/550/550 549/549/549
f 544/544/544 546/546/546 545/545/545
f 545/545/545 543/543/543 544/544/544
f 519/519/519 520/520/520 542/542/542
f 542/542/542 714/714/714 519/519/519
f 712/712/712 714/714/714 542/542/542
f 542/542/542 713/713/713 712/712/712
f 708/708/708 711/711/711 710/710/710
f 710/710/710 709/709/709 708/708/708
f 704/704/704 707/707/707 706/706/706
f 706/706/706 705/705/705 704/704/704
f 541/541/541 540/540/540 703/703/703
f 703/703/703 702/702/702 541/541/541
f 539/539/539 538/538/538 701/701/701
f 701/701/701 700/700/700 539/539/539
f 536/536/536 535/535/535 534/534/534
f 534/534/534 537/537/537 536/536/536
f 696/696/696 699/699/699 698/698/698
f 698/698/698 697/697/697 696/696/696
f 694/694/694 695/695/695 532/532/532
f 532/532/532 533/533/533 694/694/694
f 692/692/692 693/693/693 530/530/530
f 530/530/530 531/531/531 692/692/692
f 528/528/528 527/527/527 526/526/526
f 526/526/526 529/529/529 528/528/528
f 689/689/689 525/525/525 691/691/691
f 691/691/691 690/690/690 689/689/689
f 524/524/524 688/688/688 523/523/523
f 688/688/688 687/687/687 523/523/523
f 687/687/687 686/686/686 523/523/523
f 686/686/686 742/742/742 523/523/523
f 521/521/521 520/520/520 519/519/519
f 519/519/519 522/522/522 521/521/521
f 517/517/517 516/516/516 515/515/515
f 515/515/515 518/518/518 517/517/517
f 513/513/513 503/503/503 504/504/504
f 504/504/504 514/514/514 513/513/513
f 511/511/511 489/489/489 490/490/490
f 490/490/490 512/512/512 511/511/511
f 507/507/507 510/510/510 509/509/509
f 509/509/509 508/508/508 507/507/507
f 488/488/488 506/506/506 505/505/505
f 505/505/505 487/487/487 488/488/488
f 503/503/503 499/499/499 500/500/500
f 500/500/500 504/504/504 503/503/503
f 499/499/499 502/502/502 501/501/501
f 501/501/501 500/500/500 499/499/499
f 495/495/495 498/498/498 497/497/497
f 497/497/497 496/496/496 495/495/495
f 491/491/491 494/494/494 493/493/493
f 493/493/493 492/492/492 491/491/491
f 487/487/487 490/490/490 489/489/489
f 489/489/489 488/488/488 487/487/487
f 685/685/685 676/676/676 477/477/477
f 683/683/683 685/685/685 477/477/477
f 684/684/684 683/683/683 477/477/477
f 681/681/681 682/682/682 468/468/468
f 680/680/680 681/681/681 468/468/468
f 678/678/678 680/680/680 468/468/468
f 678/678/678 468/468/468 478/478/478
f 478/478/478 679/679/679 678/678/678
f 676/676/676 677/677/677 474/474/474
f 474/474/474 477/477/477 676/676/676
f 476/476/476 486/486/486 475/475/475
f 486/486/486 472/472/472 475/475/475
f 472/472/472 473/473/473 475/475/475
f 480/480/480 469/469/469 479/479/479
f 469/469/469 470/470/470 479/479/479
f 470/470/470 481/481/481 479/479/479
f 486/486/486 484/484/484 472/472/472
f 484/484/484 485/485/485 472/472/472
f 485/485/485 471/471/471 472/472/472
f 483/483/483 471/471/471 485/485/485
f 483/483/483 482/482/482 471/471/471
f 482/482/482 481/481/481 471/471/471
f 481/481/481 470/470/470 471/471/471
f 468/468/468 477/477/477 467/467/467
f 477/477/477 466/466/466 467/467/467
f 466/466/466 464/464/464 467/467/467
f 464/464/464 465/465/465 467/467/467
f 464/464/464 463/463/463 462/462/462
f 462/462/462 465/465/465 464/464/464
f 440/440/440 441/441/441 444/444/444
f 441/441/441 445/445/445 444/444/444
f 445/445/445 455/455/455 444/444/444
f 455/455/455 458/458/458 444/444/444
f 668/668/668 675/675/675 440/440/440
f 675/675/675 674/674/674 440/440/440
f 674/674/674 673/673/673 440/440/440
f 672/672/672 671/671/671 441/441/441
f 671/671/671 670/670/670 441/441/441
f 670/670/670 669/669/669 441/441/441
f 669/669/669 454/454/454 443/443/443
f 443/443/443 441/441/441 669/669/669
f 668/668/668 440/440/440 442/442/442
f 442/442/442 459/459/459 668/668/668
f 455/455/455 456/456/456 457/457/457
f 457/457/457 458/458/458 455/455/455
f 446/446/446 448/448/448 460/460/460
f 446/446/446 447/447/447 448/448/448
f 448/448/448 451/451/451 460/460/460
f 448/448/448 453/453/453 451/451/451
f 448/448/448 449/449/449 453/453/453
f 453/453/453 450/450/450 451/451/451
f 451/451/451 452/452/452 460/460/460
f 452/452/452 461/461/461 460/460/460
f 431/431/431 428/428/428 438/438/438
f 438/438/438 439/439/439 431/431/431
f 436/436/436 439/439/439 438/438/438
f 438/438/438 437/437/437 436/436/436
f 427/427/427 424/424/424 434/434/434
f 434/434/434 435/435/435 427/427/427
f 432/432/432 435/435/435 434/434/434
f 434/434/434 433/433/433 432/432/432
f 428/428/428 431/431/431 430/430/430
f 430/430/430 429/429/429 428/428/428
f 424/424/424 427/427/427 426/426/426
f 426/426/426 425/425/425 424/424/424
f 420/420/420 423/423/423 422/422/422
f 422/422/422 421/421/421 420/420/420
f 416/416/416 419/419/419 418/418/418
f 418/418/418 417/417/417 416/416/416
f 412/412/412 415/415/415 414/414/414
f 414/414/414 413/413/413 412/412/412
f 408/408/408 411/411/411 410/410/410
f 410/410/410 409/409/409 408/408/408
f 400/400/400 407/407/407 399/399/399
f 400/400/400 404/404/404 407/407/407
f 400/400/400 405/405/405 404/404/404
f 407/407/407 406/406/406 399/399/399
f 399/399/399 398/398/398 400/400/400
f 398/398/398 403/403/403 400/400/400
f 403/403/403 402/402/402 400/400/400
f 402/402/402 401/401/401 400/400/400
f 396/396/396 374/374/374 375/375/375
f 375/375/375 397/397/397 396/396/396
f 392/392/392 395/395/395 394/394/394
f 394/394/394 393/393/393 392/392/392
f 388/388/388 391/391/391 390/390/390
f 390/390/390 389/389/389 388/388/388
f 378/378/378 384/384/384 383/383/383
f 378/378/378 385/385/385 384/384/384
f 384/384/384 387/387/387 383/383/383
f 387/387/387 386/386/386 383/383/383
f 383/383/383 382/382/382 378/378/378
f 382/382/382 381/381/381 378/378/378
f 381/381/381 380/380/380 378/378/378
f 380/380/380 379/379/379 378/378/378
f 359/359/359 377/377/377 376/376/376
f 376/376/376 358/358/358 359/359/359
f 374/374/374 370/370/370 371/371/371
f 371/371/371 375/375/375 374/374/374
f 370/370/370 373/373/373 372/372/372
f 372/372/372 371/371/371 370/370/370
f 366/366/366 369/369/369 368/368/368
f 368/368/368 367/367/367 366/366/366
f 362/362/362 365/365/365 364/364/364
f 364/364/364 363/363/363 362/362/362
f 358/358/358 361/361/361 360/360/360
f 360/360/360 359/359/359 358/358/358
f 666/666/666 354/354/354 658/658/658
f 658/658/658 667/667/667 666/666/666
f 356/356/356 355/355/355 662/662/662
f 662/662/662 352/352/352 356/356/356
f 347/347/347 665/665/665 357/357/357
f 665/665/665 664/664/664 353/353/353
f 353/353/353 357/357/357 665/665/665
f 664/664/664 663/663/663 353/353/353
f 663/663/663 659/659/659 354/354/354
f 354/354/354 353/353/353 663/663/663
f 660/660/660 662/662/662 355/355/355
f 355/355/355 661/661/661 660/660/660
f 659/659/659 658/658/658 354/354/354
f 344/344/344 349/349/349 350/350/350
f 349/349/349 348/348/348 350/350/350
f 349/349/349 343/343/343 348/348/348
f 348/348/348 351/351/351 350/350/350
f 348/348/348 656/656/656 351/351/351
f 348/348/348 657/657/657 656/656/656
f 656/656/656 346/346/346 351/351/351
f 351/351/351 345/345/345 350/350/350
f 352/352/352 347/347/347 357/357/357
f 357/357/357 356/356/356 352/352/352
f 320/320/320 319/319/319 321/321/321
f 315/315/315 318/318/318 317/317/317
f 317/317/317 316/316/316 315/315/315
f 313/313/313 312/312/312 314/314/314
f 307/307/307 305/305/305 304/304/304
f 304/304/304 306/306/306 307/307/307
f 301/301/301 303/303/303 302/302/302
f 302/302/302 300/300/300 301/301/301
f 297/297/297 299/299/299 298/298/298
f 297/297/297 298/298/298 296/296/296
f 296/296/296 295/295/295 297/297/297
f 291/291/291 294/294/294 293/293/293
f 293/293/293 292/292/292 291/291/291
f 287/287/287 290/290/290 289/289/289
f 289/289/289 288/288/288 287/287/287
f 654/654/654 655/655/655 260/260/260
f 260/260/260 267/267/267 654/654/654
f 261/261/261 272/272/272 267/267/267
f 267/267/267 260/260/260 261/261/261
f 263/263/263 270/270/270 268/268/268
f 268/268/268 262/262/262 263/263/263
f 741/741/741 740/740/740 653/653/653
f 653/653/653 256/256/256 739/739/739
f 254/254/254 652/652/652 651/651/651
f 651/651/651 255/255/255 254/254/254
f 252/252/252 251/251/251 250/250/250
f 250/250/250 253/253/253 252/252/252
f 310/310/310 246/246/246 309/309/309
f 248/248/248 247/247/247 249/249/249
f 246/246/246 308/308/308 309/309/309
f 248/248/248 245/245/245 247/247/247
f 311/311/311 308/308/308 246/246/246
f 278/278/278 247/247/247 245/245/245
f 738/738/738 737/737/737 243/243/243
f 243/243/243 244/244/244 736/736/736
f 239/239/239 240/240/240 241/241/241
f 241/241/241 242/242/242 239/239/239
f 236/236/236 235/235/235 237/237/237
f 237/237/237 238/238/238 236/236/236
f 233/233/233 234/234/234 232/232/232
f 232/232/232 231/231/231 233/233/233
f 649/649/649 650/650/650 230/230/230
f 230/230/230 229/229/229 649/649/649
f 225/225/225 228/228/228 227/227/227
f 227/227/227 226/226/226 225/225/225
f 223/223/223 224/224/224 222/222/222
f 222/222/222 221/221/221 223/223/223
f 645/645/645 648/648/648 647/647/647
f 647/647/647 646/646/646 645/645/645
f 217/217/217 215/215/215 218/218/218
f 215/215/215 216/216/216 218/218/218
f 216/216/216 220/220/220 218/218/218
f 214/214/214 219/219/219 211/211/211
f 219/219/219 213/213/213 211/211/211
f 213/213/213 212/212/212 211/211/211
f 735/735/735 734/734/734 210/210/210
f 210/210/210 209/209/209 733/733/733
f 205/205/205 208/208/208 207/207/207
f 207/207/207 206/206/206 205/205/205
f 204/204/204 203/203/203 202/202/202
f 202/202/202 201/201/201 204/204/204
f 199/199/199 195/195/195 200/200/200
f 200/200/200 194/194/194 199/199/199
f 198/198/198 193/193/193 192/192/192
f 192/192/192 191/191/191 198/198/198
f 189/189/189 190/190/190 197/197/197
f 197/197/197 196/196/196 189/189/189
f 183/183/183 184/184/184 186/186/186
f 186/186/186 185/185/185 183/183/183
f 180/180/180 179/179/179 182/182/182
f 182/182/182 181/181/181 180/180/180
f 172/172/172 188/188/188 178/178/178
f 178/178/178 187/187/187 172/172/172
f 276/276/276 277/277/277 177/177/177
f 177/177/177 174/174/174 276/276/276
f 174/174/174 175/175/175 170/170/170
f 170/170/170 276/276/276 174/174/174
f 176/176/176 173/173/173 273/273/273
f 273/273/273 171/171/171 176/176/176
f 166/166/166 169/169/169 168/168/168
f 168/168/168 167/167/167 166/166/166
f 265/265/265 266/266/266 5/5/5
f 5/5/5 4/4/4 265/265/265
f 334/334/334 336/336/336 335/335/335
f 335/335/335 333/333/333 334/334/334
f 330/330/330 332/332/332 331/331/331
f 331/331/331 329/329/329 330/330/330
f 165/165/165 162/162/162 158/158/158
f 158/158/158 161/161/161 165/165/165
f 160/160/160 159/159/159 163/163/163
f 163/163/163 164/164/164 160/160/160
f 644/644/644 643/643/643 642/642/642
f 641/641/641 640/640/640 639/639/639
f 152/152/152 150/150/150 638/638/638
f 638/638/638 637/637/637 152/152/152
f 632/632/632 636/636/636 635/635/635
f 635/635/635 146/146/146 632/632/632
f 156/156/156 634/634/634 633/633/633
f 633/633/633 154/154/154 156/156/156
f 144/144/144 148/148/148 631/631/631
f 631/631/631 153/153/153 144/144/144
f 341/341/341 340/340/340 338/338/338
f 338/338/338 147/147/147 341/341/341
f 342/342/342 339/339/339 145/145/145
f 145/145/145 337/337/337 342/342/342
f 631/631/631 632/632/632 146/146/146
f 146/146/146 153/153/153 631/631/631
f 157/157/157 155/155/155 149/149/149
f 149/149/149 151/151/151 157/157/157
f 630/630/630 627/627/627 623/623/623
f 630/630/630 629/629/629 627/627/627
f 629/629/629 628/628/628 627/627/627
f 627/627/627 625/625/625 623/623/623
f 627/627/627 626/626/626 625/625/625
f 625/625/625 624/624/624 623/623/623
f 266/266/266 259/259/259 5/5/5
f 259/259/259 271/271/271 5/5/5
f 271/271/271 257/257/257 5/5/5
f 622/622/622 327/327/327 621/621/621
f 326/326/326 275/275/275 328/328/328
f 620/620/620 619/619/619 125/125/125
f 619/619/619 618/618/618 125/125/125
f 618/618/618 617/617/617 125/125/125
f 324/324/324 325/325/325 323/323/323
f 325/325/325 139/139/139 323/323/323
f 139/139/139 322/322/322 323/323/323
f 616/616/616 132/132/132 615/615/615
f 614/614/614 613/613/613 129/129/129
f 124/124/124 612/612/612 611/611/611
f 611/611/611 1/1/1 124/124/124
f 610/610/610 609/609/609 608/608/608
f 607/607/607 126/126/126 2/2/2
f 605/605/605 606/606/606 130/130/130
f 130/130/130 138/138/138 605/605/605
f 136/136/136 135/135/135 131/131/131
f 131/131/131 137/137/137 136/136/136
f 127/127/127 134/134/134 123/123/123
f 123/123/123 128/128/128 127/127/127
f 78/78/78 121/121/121 122/122/122
f 122/122/122 79/79/79 78/78/78
f 601/601/601 604/604/604 603/603/603
f 603/603/603 602/602/602 601/601/601
f 732/732/732 731/731/731 600/600/600
f 600/600/600 599/599/599 730/730/730
f 143/143/143 120/120/120 729/729/729
f 728/728/728 727/727/727 143/143/143
f 726/726/726 725/725/725 142/142/142
f 142/142/142 119/119/119 724/724/724
f 141/141/141 118/118/118 117/117/117
f 117/117/117 140/140/140 141/141/141
f 598/598/598 597/597/597 596/596/596
f 595/595/595 594/594/594 593/593/593
f 115/115/115 588/588/588 592/592/592
f 592/592/592 103/103/103 115/115/115
f 111/111/111 113/113/113 591/591/591
f 591/591/591 590/590/590 111/111/111
f 102/102/102 108/108/108 107/107/107
f 107/107/107 101/101/101 102/102/102
f 587/587/587 589/589/589 588/588/588
f 588/588/588 115/115/115 587/587/587
f 585/585/585 106/106/106 116/116/116
f 116/116/116 586/586/586 585/585/585
f 112/112/112 110/110/110 104/104/104
f 104/104/104 105/105/105 112/112/112
f 98/98/98 97/97/97 99/99/99
f 97/97/97 96/96/96 99/99/99
f 96/96/96 100/100/100 99/99/99
f 93/93/93 92/92/92 94/94/94
f 92/92/92 91/91/91 94/94/94
f 91/91/91 95/95/95 94/94/94
f 583/583/583 584/584/584 89/89/89
f 89/89/89 109/109/109 583/583/583
f 87/87/87 90/90/90 114/114/114
f 114/114/114 88/88/88 87/87/87
f 84/84/84 85/85/85 86/86/86
f 86/86/86 83/83/83 84/84/84
f 582/582/582 581/581/581 579/579/579
f 581/581/581 80/80/80 579/579/579
f 80/80/80 580/580/580 579/579/579
f 76/76/76 77/77/77 78/78/78
f 78/78/78 79/79/79 76/76/76
f 122/122/122 121/121/121 82/82/82
f 82/82/82 81/81/81 122/122/122
f 73/73/73 75/75/75 74/74/74
f 74/74/74 72/72/72 73/73/73
f 71/71/71 69/69/69 68/68/68
f 68/68/68 70/70/70 71/71/71
f 67/67/67 65/65/65 66/66/66
f 65/65/65 63/63/63 64/64/64
f 64/64/64 66/66/66 65/65/65
f 61/61/61 62/62/62 60/60/60
f 60/60/60 59/59/59 61/61/61
f 57/57/57 58/58/58 56/56/56
f 56/56/56 55/55/55 57/57/57
f 575/575/575 578/578/578 577/577/577
f 577/577/577 576/576/576 575/575/575
f 573/573/573 574/574/574 47/47/47
f 47/47/47 51/51/51 573/573/573
f 723/723/723 722/722/722 50/50/50
f 50/50/50 54/54/54 721/721/721
f 52/52/52 48/48/48 49/49/49
f 49/49/49 53/53/53 52/52/52
f 569/569/569 572/572/572 571/571/571
f 571/571/571 570/570/570 569/569/569
f 43/43/43 46/46/46 45/45/45
f 45/45/45 44/44/44 43/43/43
f 39/39/39 42/42/42 41/41/41
f 41/41/41 40/40/40 39/39/39
f 568/568/568 720/720/720 719/719/719
f 718/718/718 35/35/35 568/568/568
f 565/565/565 567/567/567 566/566/566
f 566/566/566 38/38/38 565/565/565
f 36/36/36 717/717/717 716/716/716
f 715/715/715 37/37/37 36/36/36
f 31/31/31 34/34/34 33/33/33
f 33/33/33 32/32/32 31/31/31
f 561/561/561 564/564/564 563/563/563
f 563/563/563 562/562/562 561/561/561
f 559/559/559 560/560/560 29/29/29
f 29/29/29 25/25/25 559/559/559
f 557/557/557 558/558/558 30/30/30
f 30/30/30 26/26/26 557/557/557
f 23/23/23 27/27/27 28/28/28
f 28/28/28 24/24/24 23/23/23
f 555/555/555 556/556/556 15/15/15
f 15/15/15 279/279/279 555/555/555
f 285/285/285 21/21/21 22/22/22
f 22/22/22 286/286/286 285/285/285
f 284/284/284 20/20/20 21/21/21
f 21/21/21 285/285/285 284/284/284
f 283/283/283 19/19/19 20/20/20
f 20/20/20 284/284/284 283/283/283
f 282/282/282 18/18/18 19/19/19
f 19/19/19 283/283/283 282/282/282
f 281/281/281 17/17/17 18/18/18
f 18/18/18 282/282/282 281/281/281
f 280/280/280 16/16/16 17/17/17
f 17/17/17 281/281/281 280/280/280
f 279/279/279 15/15/15 16/16/16
f 16/16/16 280/280/280 279/279/279
f 14/14/14 6/6/6 13/13/13
f 14/14/14 13/13/13 12/12/12
f 14/14/14 12/12/12 11/11/11
f 14/14/14 11/11/11 10/10/10
f 14/14/14 10/10/10 9/9/9
f 14/14/14 9/9/9 8/8/8
f 14/14/14 8/8/8 7/7/7
f 14/14/14 7/7/7 6/6/6
f 3/3/3 264/264/264 265/265/265
f 265/265/265 4/4/4 3/3/3
f 258/258/258 270/270/270 3/3/3
f 270/270/270 263/263/263 3/3/3
f 263/263/263 264/264/264 3/3/3
f 262/262/262 268/268/268 261/261/261
f 268/268/268 269/269/269 261/261/261
f 269/269/269 272/272/272 261/261/261
f 274/274/274 128/128/128 123/123/123
f 123/123/123 133/133/133 274/274/274
