v -0.208755 -0.48642 0.10660600000000003
v -0.233013 -0.348846 0.422116
v -0.188761 -0.482894 0.42211600000000005
v -0.208755 -0.48642 0.10660600000000003
v -0.228748 -0.489945 0.42211600000000005
v -0.233013 -0.348846 0.422116
v 0.458467 -0.3464509999999999 1.530252
v 0.524536 -0.4251889999999999 1.530252
v 0.524536 -0.4251889999999999 1.434344
v 0.524536 -0.4251889999999999 1.434344
v 0.458467 -0.3464509999999999 1.434344
v 0.458467 -0.3464509999999999 1.530252
v 0.458467 -0.3464509999999999 1.530252
v 0.423313 -0.4430369999999999 1.530252
v 0.524536 -0.4251889999999999 1.530252
v -0.380833 -1.417731 1.530252
v -0.314764 -1.496469 1.530252
v -0.314764 -1.496469 1.434344
v -0.314764 -1.496469 1.434344
v -0.380833 -1.417731 1.434344
v -0.380833 -1.417731 1.530252
v -0.380833 -1.417731 1.530252
v -0.415987 -1.514317 1.530252
v -0.314764 -1.496469 1.530252
v 0.356831 -1.66588 0.19674900000000012
v 0.29343 -1.573201 0.1261240000000001
v 0.392786 -1.653828 0.1916330000000001
v 0.356831 -1.66588 0.19674900000000012
v 0.392786 -1.653828 0.1916330000000001
v 0.29343 -1.573201 0.1261240000000001
v 0.261662 -1.450571 0.3041910000000001
v 0.323298 -1.539138 0.3809980000000001
v 0.358438 -1.524009 0.38035600000000014
v 0.358438 -1.524009 0.38035600000000014
v 0.323298 -1.539138 0.3809980000000001
v 0.261662 -1.450571 0.3041910000000001
v 0.672123 -1.262196 1.530252
v 0.5709 -1.280044 1.530252
v 0.636969 -1.358782 1.530252
v -0.443257 -0.7449969999999999 1.267355
v -0.454315 -0.7273449999999999 1.14834
v -0.372012 -0.8448849999999999 1.14834
v -0.192354 -0.5693119999999999 1.267355
v -0.121109 -0.6692009999999999 1.14834
v -0.203412 -0.5516609999999998 1.14834
v 0.005406 -0.448657 0.10660600000000003
v -0.018851 -0.311084 0.422116
v 0.025399 -0.445132 0.422116
v 0.005406 -0.448657 0.10660600000000003
v -0.014587 -0.452183 0.422116
v -0.018851 -0.311084 0.422116
v 0.997063 -0.32517799999999997 1.149609
v 0.935138 -0.34465199999999996 0.913676
v 1.01031 -0.39728899999999995 0.913676
v -0.48296 -0.5425789999999999 1.530252
v -0.584184 -0.5604269999999999 1.530252
v -0.518115 -0.6391649999999999 1.530252
v -0.434912 -0.5108529999999999 1.402485
v -0.432282 -0.5257639999999999 1.402485
v -0.434912 -0.5108529999999999 1.402485
v -0.434912 -0.5108529999999999 1.402485
v -0.432282 -0.5257639999999999 1.402485
v -0.434912 -0.5108529999999999 1.402485
v -0.541938 -0.6822019999999999 1.402485
v -0.556716 -0.6848079999999999 1.402485
v -0.556716 -0.6848079999999999 1.402485
v -0.541938 -0.6822019999999999 1.402485
v -0.556716 -0.6848079999999999 1.402485
v -0.556716 -0.6848079999999999 1.402485
v -0.42055 -0.523765 0.10660600000000003
v -0.440543 -0.52729 0.4221170000000001
v -0.444808 -0.386191 0.422117
v -0.42055 -0.523765 0.10660600000000003
v -0.444808 -0.386191 0.422117
v -0.400557 -0.520239 0.42211600000000005
v -0.58558 1.342451 -0.21268900000000007
v -0.561286 1.25898 -0.31416200000000005
v -0.5973 1.372509 -0.23326300000000008
v -0.58558 1.342451 -0.21268900000000007
v -0.5973 1.372509 -0.23326300000000008
v -0.561286 1.25898 -0.31416200000000005
v -0.781414 1.176192 -0.27096400000000004
v -0.811807 1.294055 -0.1947840000000001
v -0.781389 1.17624 -0.27098900000000004
v -0.781414 1.176192 -0.27096400000000004
v -0.795002 1.265856 -0.17512200000000008
v -0.811807 1.294055 -0.1947840000000001
v -0.811807 1.294055 -0.1947840000000001
v -0.795002 1.265856 -0.17512200000000008
v -0.781389 1.17624 -0.27098900000000004
v -0.781389 1.17624 -0.27098900000000004
v -0.735996 1.095835 -0.3588680000000001
v -0.781414 1.176192 -0.27096400000000004
v -0.184376 -1.415973 1.267355
v -0.21493 -1.432311 1.14834
v -0.09739 -1.350009 1.14834
v -0.360061 -1.16507 1.267355
v -0.273074 -1.099106 1.14834
v -0.390614 -1.181408 1.14834
v -0.527051 -0.7526039999999999 1.042265
v -0.527051 -0.752604 0.713303
v -0.930591 -0.823759 0.713812
v 0.735609 -0.5687029999999998 0.913676
v 0.537108 -0.6037039999999999 0.913676
v 0.537099 -0.6037059999999999 1.150201
v 0.585721 -0.8794549999999999 1.150201
v 0.58573 -0.8794529999999999 0.913676
v 0.784231 -0.8444519999999999 0.913676
v 1.154222 -1.187031 1.149609
v 0.997063 -0.32517799999999997 1.149609
v 1.01031 -0.39728899999999995 0.913676
v 1.13691 -1.11303 0.9136760000000002
v 1.154222 -1.187031 1.149609
v 1.083094 -1.192397 0.9136760000000002
v 1.154222 -1.187031 1.149609
v 0.654159 -1.267639 0.9136760000000002
v 0.654159 -1.267639 1.149609
v 1.208858 0.417489 0.04037799999999997
v 1.2202 0.468647 0.12173399999999997
v 1.35147 0.262593 0.12173399999999998
v 1.35147 0.262593 0.12173399999999998
v 1.300312 0.273935 0.04037799999999998
v 1.35147 0.262593 0.12173399999999998
v 1.2202 0.468647 0.12173399999999997
v 1.204404 0.397396 0.264678
v 1.280221 0.278389 0.264678
v 1.35147 0.262593 0.12173399999999998
v 1.014147 0.337376 0.12173399999999998
v 1.085396 0.32158 0.264678
v 1.204404 0.397396 0.264678
v 1.2202 0.468647 0.12173399999999997
v 1.014147 0.337376 0.12173399999999998
v 1.208858 0.417489 0.04037799999999997
v 1.065305 0.326034 0.040377999999999976
v 1.014147 0.337376 0.12173399999999998
v 0.327045 -0.331273 0.12173400000000001
v 0.275887 -0.319931 0.04037800000000002
v 0.184434 -0.176377 0.04037800000000001
v 0.195776 -0.125219 0.12173400000000001
v 0.327045 -0.331273 0.12173400000000001
v 0.179979 -0.19646899999999998 0.264678
v 0.255795 -0.315477 0.264678
v 0.327045 -0.331273 0.12173400000000001
v 0.327045 -0.331273 0.12173400000000001
v 0.195776 -0.125219 0.12173400000000001
v -0.010278 -0.256489 0.12173400000000001
v 0.060972 -0.272286 0.264678
v 0.179979 -0.19646899999999998 0.264678
v 0.195776 -0.125219 0.12173400000000001
v -0.010278 -0.256489 0.12173400000000001
v 0.04088 -0.267832 0.04037800000000001
v -0.010278 -0.256489 0.12173400000000001
v 0.184434 -0.176377 0.04037800000000001
v 0.5709 -1.280044 1.530252
v 0.672123 -1.262196 1.530252
v 0.672123 -1.262196 1.434344
v 0.672123 -1.262196 1.434344
v 0.5709 -1.280044 1.434344
v 0.636969 -1.358782 1.530252
v 0.5709 -1.280044 1.530252
v 0.5709 -1.280044 1.434344
v 0.636969 -1.358782 1.434344
v 0.636969 -1.358782 1.530252
v -0.192354 -0.5693119999999999 1.267355
v -0.203412 -0.5516609999999998 1.14834
v -0.454315 -0.7273449999999999 1.14834
v -0.443257 -0.7449969999999999 1.267355
v -0.192354 -0.5693119999999999 1.267355
v -0.48296 -0.5425789999999999 1.434344
v -0.584184 -0.5604269999999999 1.434344
v -0.584184 -0.5604269999999999 1.530252
v -0.48296 -0.5425789999999999 1.530252
v -0.48296 -0.5425789999999999 1.434344
v -0.584184 -0.5604269999999999 1.434344
v -0.518115 -0.6391649999999999 1.434344
v -0.518115 -0.6391649999999999 1.530252
v -0.518115 -0.6391649999999999 1.530252
v -0.584184 -0.5604269999999999 1.530252
v -0.360061 -1.16507 1.267355
v -0.390614 -1.181408 1.14834
v -0.21493 -1.432311 1.14834
v -0.184376 -1.415973 1.267355
v -0.360061 -1.16507 1.267355
v -0.479847 -1.030874 1.321048
v -0.464182 -1.119717 1.433348
v -0.405327 -1.109339 1.433348
v -0.420992 -1.020496 1.321048
v -0.479847 -1.030874 1.321048
v 0.134929 -1.42019 1.321048
v 0.223965 -1.404491 1.433348
v 0.213533 -1.345333 1.433348
v 0.124498 -1.361032 1.321048
v 0.134929 -1.42019 1.321048
v 0.53782 -0.9613229999999999 1.40644
v 0.268687 -1.008919 1.40644
v 0.268687 -1.008919 1.149396
v 0.53782 -0.9613229999999999 1.149396
v 0.53782 -0.9613229999999999 1.404487
v 0.53782 -0.9613229999999999 1.149396
v 0.268687 -1.008919 1.149396
v 0.268687 -1.008919 1.400642
v -0.024738 -0.5202379999999999 1.326855
v 0.064166 -0.4982279999999999 1.433348
v 0.05383 -0.4396099999999999 1.433348
v -0.035073 -0.46161899999999995 1.326855
v -0.035073 -0.46161899999999995 1.326855
v -0.124242 -0.4710089999999999 1.433348
v -0.113906 -0.5296279999999999 1.433348
v -0.024738 -0.5202379999999999 1.326855
v 0.160555 -1.291127 1.323739
v 0.132217 -1.130409 1.323739
v 0.214037 -1.115982 1.095469
v 0.242377 -1.2767 1.095469
v 0.160555 -1.291127 1.323739
v 0.242377 -1.2767 1.095469
v 0.214037 -1.115982 1.095469
v 0.132217 -1.130409 1.323739
v 0.21172 -1.004355 1.405246
v 0.217463 -1.036928 1.405246
v 0.543116 -0.9795069999999999 1.405256
v 0.537373 -0.9469339999999999 1.405256
v 1.02815 -1.49297 0.7153580000000002
v 0.366256 -1.60968 0.7153580000000002
v 0.366256 -1.60968 0.0391550000000001
v 1.02815 -1.49297 0.03915500000000009
v 0.326876 -1.386344 0.039155000000000086
v 0.366256 -1.60968 0.7153580000000002
v 0.326876 -1.386344 0.8814230000000001
v 0.366256 -1.60968 0.0391550000000001
v 1.02815 -1.49297 0.7153580000000002
v 1.02815 -1.49297 0.03915500000000009
v 0.98877 -1.269634 0.03915500000000008
v 0.98877 -1.269634 0.8814230000000001
v 0.326876 -1.386344 0.8814230000000001
v 0.366256 -1.60968 0.7153580000000002
v 1.02815 -1.49297 0.7153580000000002
v 0.98877 -1.269634 0.8814230000000001
v 1.033571 -1.135162 1.124635
v 1.082532 -1.146017 1.124635
v 1.093387 -1.097056 1.124635
v 1.044426 -1.086201 1.124635
v 1.093387 -1.097056 1.124635
v 1.109934 -1.086514 0.9003350000000001
v 1.033884 -1.069654 0.9003350000000001
v 1.044426 -1.086201 1.124635
v 1.033571 -1.135162 1.124635
v 1.044426 -1.086201 1.124635
v 1.033884 -1.069654 0.9003350000000001
v 1.017024 -1.145704 0.9003350000000001
v 1.033571 -1.135162 1.124635
v 1.017024 -1.145704 0.9003350000000001
v 1.093074 -1.162565 0.9003350000000001
v 1.082532 -1.146017 1.124635
v 1.082532 -1.146017 1.124635
v 1.093074 -1.162565 0.9003350000000001
v 1.109934 -1.086514 0.9003350000000001
v 1.093387 -1.097056 1.124635
v 1.161213 0.20257200000000003 0.264678
v 1.280221 0.278389 0.264678
v 1.204404 0.397396 0.264678
v 1.085396 0.32158 0.264678
v 0.423313 -0.4430369999999999 1.530252
v 0.458467 -0.3464509999999999 1.530252
v 0.458467 -0.3464509999999999 1.434344
v 0.423313 -0.4430369999999999 1.434344
v 0.524536 -0.4251889999999999 1.530252
v 0.423313 -0.4430369999999999 1.530252
v 0.423313 -0.4430369999999999 1.434344
v 0.524536 -0.4251889999999999 1.434344
v -0.415987 -1.514317 1.530252
v -0.380833 -1.417731 1.530252
v -0.380833 -1.417731 1.434344
v -0.415987 -1.514317 1.434344
v -0.314764 -1.496469 1.530252
v -0.415987 -1.514317 1.530252
v -0.415987 -1.514317 1.434344
v -0.314764 -1.496469 1.434344
v -0.938369 -1.899606 0.25404500000000013
v -0.993788 -1.910614 0.2522030000000001
v -0.868117 -1.801112 0.1935120000000001
v -0.808892 -1.681805 0.1284590000000001
v -0.128164 -1.522002 0.3276300000000001
v -0.083324 -1.691475 0.0812620000000001
v -0.014084 -1.672107 0.0840050000000001
v -0.058102 -1.505736 0.3258640000000001
v -0.993788 -1.910614 0.2522030000000001
v -0.938369 -1.899606 0.25404500000000013
v -0.86614 -1.800453 0.19280500000000012
v -0.808892 -1.681805 0.1284590000000001
v 0.185712 -1.435636 0.22823200000000007
v 0.204909 -1.511229 0.1185820000000001
v 0.29343 -1.573201 0.1261240000000001
v 0.261662 -1.450571 0.3041910000000001
v -0.482218 -1.600536 0.3286950000000001
v -0.431686 -1.782288 0.06162400000000011
v -0.362479 -1.762791 0.06455400000000011
v -0.410087 -1.582856 0.3261330000000001
v 0.179979 -0.19646899999999998 0.264678
v 0.060972 -0.272286 0.264678
v 0.136788 -0.391294 0.264678
v 0.255795 -0.315477 0.264678
v 0.327045 -0.331273 0.12173400000000001
v 0.255795 -0.315477 0.264678
v 0.136788 -0.391294 0.264678
v 0.120993 -0.462543 0.12173400000000002
v 0.672123 -1.262196 1.530252
v 0.636969 -1.358782 1.530252
v 0.636969 -1.358782 1.434344
v 0.672123 -1.262196 1.434344
v -0.145783 0.11479500000000001 0.334526
v -0.137123 0.06173800000000002 0.356655
v -0.189419 0.149354 0.210047
v -0.226059 0.163021 0.06737099999999999
v -0.443257 -0.7449969999999999 1.267355
v -0.372012 -0.8448849999999999 1.14834
v -0.121109 -0.6692009999999999 1.14834
v -0.192354 -0.5693119999999999 1.267355
v 1.058787 -0.32805599999999996 1.149609
v 1.206374 -1.165062 1.149609
v 1.206374 -1.165062 0.04037800000000007
v 1.058787 -0.328056 0.04037800000000002
v 1.153791 -1.240537 1.149609
v 1.153791 -1.240537 0.040378000000000074
v 1.206374 -1.165062 0.04037800000000007
v 1.206374 -1.165062 1.149609
v 1.058787 -0.32805599999999996 1.149609
v 1.058787 -0.328056 0.04037800000000002
v 0.983657 -0.275656 0.04037800000000001
v 0.983657 -0.27565599999999996 1.149609
v 0.504791 -0.42053399999999996 0.913676
v 0.537099 -0.6037059999999999 1.150201
v 0.537108 -0.6037039999999999 0.913676
v 0.504791 -0.42053399999999996 1.149609
v 0.654159 -1.267639 0.9136760000000002
v 0.58573 -0.8794529999999999 0.913676
v 0.585721 -0.8794549999999999 1.150201
v 0.654159 -1.267639 1.149609
v 0.935138 -0.34465199999999996 0.913676
v 0.997063 -0.32517799999999997 1.149609
v 0.504791 -0.42053399999999996 1.149609
v 0.504791 -0.42053399999999996 0.913676
v 1.002498 -0.3344909999999999 0.913676
v 0.504791 -0.42053399999999996 0.913676
v 0.654159 -1.267639 0.9136760000000002
v 1.15321 -1.189027 0.9136760000000002
v -0.518115 -0.6391649999999999 1.434344
v -0.48296 -0.5425789999999999 1.434344
v -0.48296 -0.5425789999999999 1.530252
v -0.518115 -0.6391649999999999 1.530252
v -0.577661 1.153746 -0.38727100000000003
v -0.735996 1.095835 -0.3588680000000001
v -0.781389 1.17624 -0.27098900000000004
v -0.561286 1.25898 -0.31416200000000005
v -0.37956 0.910889 -0.15828300000000006
v -0.654462 0.810345 -0.10897100000000005
v -0.62985 0.749536 -0.07942700000000004
v -0.349822 0.851956 -0.12965900000000005
v -0.137123 0.06173800000000002 0.356655
v -0.145783 0.11479500000000001 0.334526
v -0.189419 0.149354 0.210047
v -0.226059 0.163021 0.06737099999999999
v -0.561286 1.25898 -0.31416200000000005
v -0.781389 1.17624 -0.27098900000000004
v -0.71162 1.104506 -0.31652100000000005
v -0.586715 1.149428 -0.33857800000000005
v -0.229812 0.61222 -0.022806000000000038
v -0.527129 0.503478 0.03052799999999997
v -0.501779 0.441169 0.062100999999999976
v -0.199862 0.553364 0.005779999999999967
v -1.005081 -1.126007 0.23899100000000006
v -1.017772 -1.054039 0.23899100000000006
v -1.053497 -1.060338 0.03428000000000006
v -1.040808 -1.132307 0.03428000000000007
v -1.053347 -1.106173 0.08165800000000006
v -0.919093 -1.082006 0.8524640000000001
v -0.921921 -1.06598 0.8524640000000001
v -1.056342 -1.089184 0.08165700000000006
v -0.986579 -0.806041 0.676594
v -0.857708 -1.536909 0.6765940000000001
v -0.402897 -1.456714 1.045318
v -0.531769 -0.7258459999999999 1.045318
v -0.184376 -1.415973 1.267355
v -0.09739 -1.350009 1.14834
v -0.273074 -1.099106 1.14834
v -0.360061 -1.16507 1.267355
v -0.074271 -0.22966999999999996 0.843436
v -0.074272 -0.22966999999999999 0.488215
v -0.418732 -0.29040699999999997 0.488215
v -0.418732 -0.29040699999999997 0.843436
v -0.412865 -1.400185 0.7133030000000001
v -0.412865 -1.400185 0.04037800000000008
v -0.793195 -1.467307 0.04037800000000009
v -0.793195 -1.467307 0.7138120000000001
v -0.900275 -0.86019 0.713812
v -0.793195 -1.467307 0.7138120000000001
v -0.793195 -1.467307 0.04037800000000009
v -0.900275 -0.86019 0.04037800000000005
v -0.811155 -1.50111 0.7138120000000001
v -0.930591 -0.823759 0.713812
v -0.930591 -0.823759 0.040378000000000046
v -0.811155 -1.50111 0.04037800000000009
v -0.495676 -0.5969439999999999 1.149609
v -0.346309 -1.444048 1.149609
v 0.655827 -1.282969 1.149609
v 0.504542 -0.42464299999999994 1.149609
v 0.509699 -0.11301899999999998 0.154936
v 0.369622 -0.383928 0.15493600000000002
v 0.860078 -0.297447 0.15493600000000002
v 0.817973 -0.05866199999999999 0.154936
v 0.858829 -0.297667 0.04037800000000002
v 0.858829 -0.297667 0.439404
v 0.796854 0.05381700000000001 0.273538
v 0.796854 0.053817 0.040378
v 0.861614 0.065236 0.04037799999999999
v 0.861614 0.06523600000000002 0.273538
v 0.92359 -0.286248 0.439404
v 0.92359 -0.286248 0.04037800000000002
v 0.861614 0.065236 0.04037799999999999
v 0.796854 0.053817 0.040378
v 0.796854 0.05381700000000001 0.273538
v 0.861614 0.06523600000000002 0.273538
v 0.861614 0.06523600000000002 0.273538
v 0.796854 0.05381700000000001 0.273538
v 0.858829 -0.297667 0.439404
v 0.92359 -0.286248 0.439404
v 0.735609 -0.5687029999999998 0.913676
v 0.537099 -0.6037059999999999 1.150201
v 0.585721 -0.8794549999999999 1.150201
v 0.784231 -0.8444519999999999 0.913676
v -0.420992 -1.020496 1.321048
v -0.436658 -0.9316519999999999 1.433348
v -0.495513 -0.9420299999999999 1.433348
v -0.479847 -1.030874 1.321048
v 0.124498 -1.361032 1.321048
v 0.035461 -1.376732 1.433348
v 0.045893 -1.435889 1.433348
v 0.134929 -1.42019 1.321048
v -0.061271 -0.3034029999999999 0.48822
v -0.074272 -0.22966999999999999 0.488215
v -0.074271 -0.22966999999999996 0.843436
v -0.059792 -0.3117889999999999 0.95196
v -0.418732 -0.29040699999999997 0.843436
v -0.404251 -0.37252699999999994 0.95196
v -0.059792 -0.3117889999999999 0.95196
v -0.074271 -0.22966999999999996 0.843436
v -0.456298 -0.529519 0.42254200000000003
v -0.456298 -0.5295189999999999 1.145167
v -0.481436 -0.38613699999999995 0.95196
v -0.482992 -0.378128 0.423106
v -0.418732 -0.29040699999999997 0.843436
v -0.418732 -0.29040699999999997 0.488215
v -0.40573 -0.36414099999999994 0.48822
v -0.404251 -0.37252699999999994 0.95196
v 0.526857 -0.8898339999999999 1.149609
v 0.533728 -0.9287969999999999 1.433348
v 0.592582 -0.9184189999999999 1.433348
v 0.585721 -0.8794549999999999 1.150201
v 0.478235 -0.6140849999999999 1.149609
v 0.471365 -0.5751219999999999 1.433348
v 0.445395 -0.4279539999999999 1.433348
v 0.445937 -0.4412249999999999 1.149609
v 0.537099 -0.6037059999999999 1.150201
v 0.53022 -0.5647439999999999 1.433348
v 0.471365 -0.5751219999999999 1.433348
v 0.478235 -0.6140849999999999 1.149609
v 0.043185 -0.4414469999999999 1.14538
v 0.043087 -0.44146399999999997 0.76895
v 0.017832 -0.2981019999999999 0.95196
v 0.042997 -0.441479 0.422542
v 0.016115 -0.290121 0.423106
v 0.713518 1.783167 -0.2288420000000001
v 0.713518 1.844703 -0.005025000000000113
v 0.713518 1.684371 -0.09939100000000009
v 0.713518 1.677742 -0.3718880000000001
v 0.713518 1.539858 -0.12339800000000009
v 0.713518 1.541606 -0.4138230000000001
v 0.713518 1.409395 -0.3481650000000001
v 0.713518 1.399477 -0.06767900000000009
v 0.713518 1.312372 -0.24069100000000007
v 0.713518 1.246633 0.07359799999999991
v 0.713518 1.312372 -0.24069100000000007
v 0.713518 1.246633 0.07359799999999991
v 0.713518 1.399477 -0.06767900000000009
v 0.713518 1.409395 -0.3481650000000001
v 0.713518 1.539858 -0.12339800000000009
v 0.713518 1.541606 -0.4138230000000001
v 0.713518 1.684371 -0.09939100000000009
v 0.713518 1.677742 -0.3718880000000001
v 0.713518 1.783167 -0.2288420000000001
v 0.713518 1.844703 -0.005025000000000113
v 0.585721 -0.8794549999999999 1.150201
v 0.592582 -0.9184189999999999 1.433348
v 0.66459 -1.326796 1.433348
v 0.654159 -1.267639 1.149609
v 0.66459 -1.326796 1.149609
v 0.53022 -0.5647439999999999 1.433348
v 0.537099 -0.6037059999999999 1.150201
v 0.504791 -0.42053399999999996 1.149609
v 0.494456 -0.3619159999999999 1.433348
v 0.494456 -0.36191599999999996 1.149609
v -0.527051 -0.752604 0.713303
v -0.527051 -0.752604 0.616249
v -0.781064 -0.797394 0.616377
v -0.930591 -0.823759 0.713812
v -0.781064 -0.797394 0.040378000000000046
v -0.930591 -0.823759 0.040378000000000046
v 0.594141 -1.278846 1.433348
v 0.533728 -0.9287969999999999 1.433348
v 0.595304 -1.278016 1.101414
v 0.526857 -0.8898339999999999 1.149609
v 0.547445 -1.006594 1.101414
v 0.817973 -0.05866199999999999 0.154936
v 0.817973 -0.05866199999999999 0.097657
v 0.509699 -0.113019 0.097657
v 0.509699 -0.11301899999999998 0.154936
v 0.369622 -0.383928 0.09765700000000002
v 0.369622 -0.383928 0.15493600000000002
v 0.80935 -0.009757999999999994 0.097657
v 0.80935 -0.009757999999999998 0.040378
v 0.476637 -0.068425 0.040378000000000004
v 0.476637 -0.068425 0.097657
v 0.30802 -0.394789 0.04037800000000002
v 0.30802 -0.394789 0.09765700000000002
v -0.405327 -1.109339 1.433348
v -0.464182 -1.119717 1.433348
v -0.394732 -1.513583 1.433348
v -0.347722 -1.450395 1.433348
v 0.045893 -1.435889 1.433348
v 0.035461 -1.376732 1.433348
v 0.213533 -1.345333 1.433348
v 0.223965 -1.404491 1.433348
v 0.66459 -1.326796 1.433348
v 0.594141 -1.278846 1.433348
v 0.592582 -0.9184189999999999 1.433348
v 0.533728 -0.9287969999999999 1.433348
v 0.05383 -0.4396099999999999 1.433348
v 0.064166 -0.4982279999999999 1.433348
v 0.445395 -0.4279539999999999 1.433348
v 0.494456 -0.3619159999999999 1.433348
v 0.471365 -0.5751219999999999 1.433348
v 0.53022 -0.5647439999999999 1.433348
v 0.654159 -1.267639 1.149609
v 0.66459 -1.326796 1.149609
v 1.153791 -1.240537 1.149609
v 1.154222 -1.187031 1.149609
v 1.206374 -1.165062 1.149609
v 1.058787 -0.32805599999999996 1.149609
v 0.997063 -0.32517799999999997 1.149609
v 0.983657 -0.27565599999999996 1.149609
v 0.494456 -0.36191599999999996 1.149609
v 0.504791 -0.42053399999999996 1.149609
v -0.481436 -0.38613699999999995 0.95196
v -0.456298 -0.5295189999999999 1.145167
v 0.043185 -0.4414469999999999 1.14538
v 0.017832 -0.2981019999999999 0.95196
v -0.482992 -0.378128 0.423106
v 0.016115 -0.290121 0.423106
v 1.014147 0.337376 0.12173399999999998
v 1.065305 0.326034 0.040377999999999976
v 1.156759 0.182481 0.04037799999999998
v 1.145417 0.131323 0.12173399999999998
v 1.085396 0.32158 0.264678
v 1.161213 0.20257200000000003 0.264678
v 1.145417 0.131323 0.12173399999999998
v 1.156759 0.182481 0.04037799999999998
v 1.300312 0.273935 0.04037799999999998
v 1.35147 0.262593 0.12173399999999998
v 1.161213 0.20257200000000003 0.264678
v 1.280221 0.278389 0.264678
v -0.457576 -1.691387 0.07673100000000009
v -0.487039 -1.580027 0.23861800000000008
v -0.754558 -1.725706 0.1683250000000001
v 0.185712 -1.435636 0.22823200000000007
v 0.204909 -1.511229 0.1185820000000001
v -0.487039 -1.580027 0.23861800000000008
v 0.185712 -1.435636 0.22823200000000007
v 0.261662 -1.450571 0.3041910000000001
v -0.487829 -1.592294 0.3357910000000001
v -0.754558 -1.725706 0.1683250000000001
v -0.86614 -1.800453 0.19280500000000012
v -0.010278 -0.256489 0.12173400000000001
v 0.04088 -0.267832 0.04037800000000001
v 0.132334 -0.411385 0.040378000000000025
v 0.120993 -0.462543 0.12173400000000002
v 0.060972 -0.272286 0.264678
v 0.136788 -0.391294 0.264678
v -0.394732 -1.513583 0.04037800000000009
v -0.394732 -1.513583 1.433348
v -0.464182 -1.119717 1.433348
v -0.479847 -1.030874 1.321048
v -0.564867 -0.548703 0.04037800000000003
v -0.564867 -0.5487029999999999 1.433348
v -0.495513 -0.9420299999999999 1.433348
v -0.23078 0.226419 0.11154599999999999
v -0.261146 0.498712 -0.04340200000000003
v -0.44515 0.431413 -0.010395000000000026
v -0.71162 1.104506 -0.31652100000000005
v -0.586715 1.149428 -0.33857800000000005
v -0.189419 0.149354 0.210047
v -0.463995 0.412141 -0.04628600000000003
v -0.226059 0.163021 0.06737099999999999
v -0.510921 0.433033 0.06216599999999997
v -0.735996 1.095835 -0.3588680000000001
v -0.781414 1.176192 -0.27096400000000004
v -0.811155 -1.50111 0.7138120000000001
v -0.811155 -1.50111 0.04037800000000009
v -0.407616 -1.429955 0.04037800000000009
v -0.407616 -1.429955 0.7133030000000001
v -0.407616 -1.429955 1.042265
v 0.29343 -1.573201 0.1261240000000001
v 0.204909 -1.511229 0.1185820000000001
v -0.457576 -1.691387 0.07673100000000009
v -0.436969 -1.784526 0.05633600000000011
v -0.86614 -1.800453 0.19280500000000012
v -0.754558 -1.725706 0.1683250000000001
v -0.808892 -1.681805 0.1284590000000001
v -0.86614 -1.800453 0.19280500000000012
v -0.487829 -1.592294 0.3357910000000001
v -0.492374 -1.536357 0.2297200000000001
v 0.193185 -1.387433 0.21911100000000008
v 0.261662 -1.450571 0.3041910000000001
v -0.561286 1.25898 -0.31416200000000005
v -0.586715 1.149428 -0.33857800000000005
v -0.261146 0.498712 -0.04340200000000003
v -0.193287 0.549206 0.005187999999999966
v -0.189419 0.149354 0.210047
v -0.23078 0.226419 0.11154599999999999
v -0.247118 0.491462 -0.08519000000000003
v -0.189419 0.149354 0.210047
v -0.226059 0.163021 0.06737099999999999
v -0.193287 0.549206 0.005187999999999966
v -0.561286 1.25898 -0.31416200000000005
v -0.577661 1.153746 -0.38727100000000003
v -0.564867 -0.5487029999999999 1.433348
v -0.124242 -0.4710089999999999 1.433348
v -0.035073 -0.46161899999999995 1.326855
v -0.564867 -0.548703 0.04037800000000003
v 0.983657 -0.27565599999999996 1.149609
v 0.983657 -0.275656 0.04037800000000001
v 0.494456 -0.36191599999999996 1.149609
v 0.05383 -0.4396099999999999 1.433348
v 0.494456 -0.3619159999999999 1.433348
v -0.44515 0.431413 -0.010395000000000026
v -0.71162 1.104506 -0.31652100000000005
v -0.781414 1.176192 -0.27096400000000004
v -0.510921 0.433033 0.06216599999999997
v -0.189419 0.149354 0.210047
v -0.23078 0.226419 0.11154599999999999
v 0.476637 -0.068425 0.097657
v 0.30802 -0.394789 0.09765700000000002
v 0.369622 -0.383928 0.09765700000000002
v 0.509699 -0.113019 0.097657
v 0.817973 -0.05866199999999999 0.097657
v 0.80935 -0.009757999999999994 0.097657
v -0.347722 -1.450395 1.433348
v 0.035461 -1.376732 1.433348
v 0.124498 -1.361032 1.321048
v -0.346309 -1.444048 1.149609
v 0.595304 -1.278016 1.101414
v 0.211102 -1.345762 1.101414
v 0.213533 -1.345333 1.433348
v 0.594141 -1.278846 1.433348
v -0.495513 -0.9420299999999999 1.433348
v -0.436658 -0.9316519999999999 1.433348
v -0.495895 -0.5972249999999999 1.433348
v -0.564867 -0.5487029999999999 1.433348
v -0.124242 -0.4710089999999999 1.433348
v -0.113906 -0.5296279999999999 1.433348
v -1.402492 -0.14433099999999996 0.551904
v -1.307796 0.31684600000000007 0.608628
v -1.307815 0.293588 0.332406
v -1.411326 -0.14433099999999996 0.276271
v -1.310318 -0.530921 0.608628
v -1.307796 0.316846 0.15146999999999997
v -1.31224 -0.507664 0.33240600000000003
v -1.316619 -0.144331 0.06380100000000001
v -1.308914 -0.530921 0.15147000000000002
v 1.312218 -0.13913899999999998 0.560395
v 1.416526 0.13695100000000002 0.477522
v 1.413492 0.09777300000000001 0.326556
v 1.33449 -0.15693699999999997 0.348045
v 1.419229 0.145421 0.152675
v 1.073513 -0.37426899999999996 0.783746
v 1.277873 -0.126616 0.07356100000000002
v 1.154033 -0.379159 0.410017
v 1.080383 -0.448787 0.06330100000000002
v 1.153791 -1.240537 0.040378000000000074
v 1.153791 -1.240537 1.149609
v 0.66459 -1.326796 1.149609
v 0.134929 -1.42019 1.321048
v 0.66459 -1.326796 1.433348
v 0.223965 -1.404491 1.433348
v -0.394732 -1.513583 0.04037800000000009
v -0.394732 -1.513583 1.433348
v 0.045893 -1.435889 1.433348
v -1.307815 0.293588 0.332406
v -1.307796 0.31684600000000007 0.608628
v -1.402492 -0.14433099999999996 0.551904
v -1.411327 -0.14433099999999996 0.276271
v -1.310318 -0.530921 0.608628
v -1.307796 0.316846 0.15146999999999997
v -1.31224 -0.507664 0.33240600000000003
v -1.316619 -0.144331 0.06380100000000001
v -1.308914 -0.530921 0.15147000000000002
v -0.405327 -1.109339 1.433348
v -0.347722 -1.450395 1.433348
v -0.420992 -1.020496 1.321048
v -0.346309 -1.444048 1.149609
v -0.495676 -0.5969439999999999 1.149609
v -0.495895 -0.5972249999999999 1.433348
v -0.436658 -0.9316519999999999 1.433348
v -0.113906 -0.5296279999999999 1.433348
v -0.495895 -0.5972249999999999 1.433348
v -0.024738 -0.5202379999999999 1.326855
v -0.495676 -0.5969439999999999 1.149609
v 0.445937 -0.4412249999999999 1.149609
v 0.445395 -0.4279539999999999 1.433348
v 0.064166 -0.4982279999999999 1.433348
v 1.214734 1.32142 0.16094099999999992
v 1.178298 1.37591 -0.17922200000000008
v 1.222957 1.220073 -0.16054400000000008
v 1.237413 1.220073 0.3420119999999999
v 1.178298 1.37591 0.3758459999999999
v 1.275621 1.192828 0.07992699999999993
v 1.206396 0.99755 -0.14186600000000005
v 1.235284 0.99755 0.28117899999999996
v 1.275263 0.99755 0.08856099999999995
v 1.178298 0.816717 -0.13443700000000006
v 1.178298 0.816717 0.2931079999999999
v 1.214734 0.847902 0.10566099999999995
v 1.222957 1.220073 -0.16054400000000008
v 1.178298 1.37591 -0.17922200000000008
v 1.214734 1.32142 0.16094099999999992
v 1.178298 1.37591 0.3758459999999999
v 1.237413 1.220073 0.3420119999999999
v 1.275621 1.192828 0.07992699999999993
v 1.206396 0.99755 -0.14186600000000005
v 1.235284 0.99755 0.28117899999999996
v 1.275263 0.99755 0.08856099999999995
v 1.178298 0.816717 -0.13443700000000006
v 1.178298 0.816717 0.2931079999999999
v 1.214734 0.847903 0.10566099999999995
v 1.419229 0.145421 0.152675
v 1.413492 0.09777300000000001 0.326556
v 1.33449 -0.15693699999999997 0.348045
v 1.277873 -0.126616 0.07356100000000002
v 1.416526 0.13695100000000002 0.477522
v 1.080383 -0.448787 0.06330100000000002
v 1.312218 -0.13913899999999998 0.560395
v 1.154033 -0.379159 0.410017
v 1.073513 -0.37426899999999996 0.783746
vt 0.235337 0.760709
vt 0.257895 0.859881
vt 0.235337 0.859881
vt 0.261156 0.843964
vt 0.261156 0.747028
vt 0.238916 0.747028
vt 0.427222 0.585071
vt 0.427222 0.543605
vt 0.439173 0.543605
vt 0.439173 0.543605
vt 0.439173 0.585071
vt 0.427222 0.585071
vt 0.422612 0.505619
vt 0.411910 0.541305
vt 0.399993 0.505182
vt 0.427222 0.585071
vt 0.427222 0.543605
vt 0.439173 0.543605
vt 0.439173 0.543605
vt 0.439173 0.585071
vt 0.427222 0.585071
vt 0.422612 0.505619
vt 0.411910 0.541305
vt 0.399993 0.505182
vt 0.891196 0.062044
vt 0.913905 0.073590
vt 0.891196 0.083222
vt 0.891196 0.062044
vt 0.891196 0.042948
vt 0.914321 0.046443
vt 0.880965 0.052629
vt 0.858268 0.064115
vt 0.858268 0.042948
vt 0.858268 0.083012
vt 0.858268 0.064115
vt 0.882347 0.080462
vt 0.422612 0.505619
vt 0.411910 0.541305
vt 0.399993 0.505182
vt 0.352713 0.591994
vt 0.342795 0.624961
vt 0.362666 0.624961
vt 0.414989 0.591994
vt 0.405057 0.624961
vt 0.424906 0.624961
vt 0.235337 0.760709
vt 0.257895 0.859881
vt 0.235337 0.859881
vt 0.261156 0.843964
vt 0.261156 0.747028
vt 0.238916 0.747028
vt 0.281739 0.093910
vt 0.288437 0.170772
vt 0.273488 0.170772
vt 0.422612 0.505619
vt 0.411910 0.541305
vt 0.399993 0.505182
vt 0.925225 0.126855
vt 0.925225 0.126855
vt 0.925225 0.126855
vt 0.925225 0.126855
vt 0.925225 0.126855
vt 0.925225 0.126855
vt 0.971926 0.126905
vt 0.974334 0.126907
vt 0.974334 0.126907
vt 0.971926 0.126905
vt 0.974334 0.126907
vt 0.974334 0.126907
vt 0.261156 0.843964
vt 0.261156 0.747028
vt 0.238916 0.747028
vt 0.235337 0.760709
vt 0.257895 0.859881
vt 0.235337 0.859881
vt 0.891196 0.062044
vt 0.913489 0.075789
vt 0.891196 0.083222
vt 0.891196 0.062044
vt 0.891196 0.042948
vt 0.913489 0.042948
vt 0.880065 0.056138
vt 0.858268 0.042948
vt 0.878821 0.055083
vt 0.880065 0.056138
vt 0.858268 0.064115
vt 0.858268 0.042948
vt 0.858268 0.083012
vt 0.858268 0.064115
vt 0.881983 0.081007
vt 0.845587 0.055623
vt 0.834115 0.017137
vt 0.845609 0.056206
vt 0.414989 0.591994
vt 0.424906 0.624961
vt 0.405057 0.624961
vt 0.352713 0.591994
vt 0.362666 0.624961
vt 0.342795 0.624961
vt 0.263643 0.293466
vt 0.263643 0.186204
vt 0.196894 0.186204
vt 0.007215 0.017312
vt 0.006029 0.078575
vt 0.042453 0.078575
vt 0.011625 0.014601
vt 0.049660 0.020209
vt 0.048345 0.082973
vt 0.147019 0.093433
vt 0.281739 0.093910
vt 0.273488 0.170772
vt 0.158142 0.170450
vt 0.147019 0.093433
vt 0.136728 0.170466
vt 0.147019 0.093433
vt 0.068396 0.170772
vt 0.068396 0.093783
vt 0.491498 0.177819
vt 0.481663 0.149575
vt 0.517553 0.149528
vt 0.517553 0.149528
vt 0.510654 0.176165
vt 0.517553 0.149528
vt 0.481663 0.149575
vt 0.493187 0.100836
vt 0.505548 0.100720
vt 0.517553 0.149528
vt 0.445784 0.149579
vt 0.457360 0.100837
vt 0.469718 0.100721
vt 0.481663 0.149575
vt 0.445784 0.149579
vt 0.474978 0.176177
vt 0.455667 0.177819
vt 0.445784 0.149579
vt 0.517553 0.149528
vt 0.510654 0.176165
vt 0.491498 0.177819
vt 0.481663 0.149575
vt 0.517553 0.149528
vt 0.493187 0.100836
vt 0.505548 0.100720
vt 0.517553 0.149528
vt 0.517553 0.149528
vt 0.481663 0.149575
vt 0.445784 0.149579
vt 0.457360 0.100837
vt 0.469718 0.100721
vt 0.481663 0.149575
vt 0.445784 0.149579
vt 0.455667 0.177819
vt 0.445784 0.149579
vt 0.474978 0.176177
vt 0.427222 0.603212
vt 0.427222 0.561747
vt 0.439173 0.561747
vt 0.439173 0.561747
vt 0.439067 0.603135
vt 0.427222 0.520281
vt 0.427222 0.496957
vt 0.439173 0.496957
vt 0.439173 0.520281
vt 0.427222 0.520281
vt 0.405041 0.578044
vt 0.405041 0.531095
vt 0.362703 0.531095
vt 0.362703 0.578044
vt 0.405041 0.578044
vt 0.439173 0.569521
vt 0.439067 0.610910
vt 0.427222 0.610987
vt 0.427222 0.569521
vt 0.439173 0.569521
vt 0.439173 0.496957
vt 0.439173 0.528056
vt 0.427222 0.528056
vt 0.427222 0.528056
vt 0.427222 0.496957
vt 0.362703 0.578044
vt 0.362703 0.531095
vt 0.405041 0.531095
vt 0.405041 0.578044
vt 0.362703 0.578044
vt 0.442990 0.460857
vt 0.442990 0.431321
vt 0.450776 0.431334
vt 0.450776 0.460869
vt 0.442990 0.460857
vt 0.529835 0.302808
vt 0.544508 0.302808
vt 0.544508 0.318841
vt 0.529835 0.318841
vt 0.529835 0.302808
vt 0.663798 0.541703
vt 0.623924 0.541703
vt 0.623924 0.619064
vt 0.663798 0.619064
vt 0.663798 0.541703
vt 0.663798 0.619064
vt 0.623924 0.619064
vt 0.623924 0.541703
vt 0.529587 0.604505
vt 0.546280 0.604914
vt 0.546280 0.619672
vt 0.530214 0.619695
vt 0.530149 0.619695
vt 0.512673 0.619672
vt 0.512672 0.604914
vt 0.529501 0.604484
vt 0.974742 0.002557
vt 0.952565 0.002557
vt 0.952565 0.068579
vt 0.974742 0.068579
vt 0.974742 0.002557
vt 0.974742 0.068579
vt 0.952565 0.068579
vt 0.952565 0.002557
vt 0.906656 0.098386
vt 0.906656 0.111070
vt 0.851370 0.111070
vt 0.851370 0.098386
vt 0.042002 0.300125
vt 0.150620 0.300125
vt 0.150658 0.526530
vt 0.042002 0.526530
vt 0.187307 0.526530
vt 0.151761 0.300125
vt 0.187626 0.246008
vt 0.151799 0.526530
vt 0.039356 0.300125
vt 0.039356 0.526530
vt 0.004234 0.526530
vt 0.004234 0.246008
vt 0.150658 0.212413
vt 0.151761 0.300125
vt 0.039356 0.300125
vt 0.041175 0.212413
vt 0.250157 0.667719
vt 0.247754 0.646001
vt 0.258595 0.641187
vt 0.260998 0.662904
vt 0.561686 0.104142
vt 0.563010 0.179026
vt 0.555577 0.178993
vt 0.556901 0.104142
vt 0.601247 0.104142
vt 0.606032 0.104142
vt 0.607356 0.179026
vt 0.599923 0.178993
vt 0.591185 0.104142
vt 0.592509 0.179026
vt 0.585076 0.178993
vt 0.586400 0.104142
vt 0.576600 0.104142
vt 0.577925 0.179026
vt 0.570491 0.178993
vt 0.571815 0.104142
vt 0.233696 0.704100
vt 0.251239 0.682775
vt 0.262899 0.718306
vt 0.245356 0.739632
vt 0.427222 0.603212
vt 0.427222 0.585071
vt 0.439173 0.585071
vt 0.439067 0.603135
vt 0.427222 0.543605
vt 0.427222 0.502140
vt 0.439173 0.502140
vt 0.439173 0.543605
vt 0.427222 0.603212
vt 0.427222 0.585071
vt 0.439173 0.585071
vt 0.439067 0.603135
vt 0.427222 0.543605
vt 0.427222 0.502140
vt 0.439173 0.502140
vt 0.439173 0.543605
vt 0.613616 0.090317
vt 0.603484 0.090317
vt 0.626305 0.056600
vt 0.639924 0.017137
vt 0.679532 0.306145
vt 0.728282 0.306145
vt 0.728282 0.329581
vt 0.679532 0.329581
vt 0.603484 0.090317
vt 0.613616 0.090317
vt 0.626305 0.056600
vt 0.639924 0.017137
vt 0.798884 0.168161
vt 0.798784 0.124252
vt 0.815550 0.112401
vt 0.815069 0.178472
vt 0.622578 0.305764
vt 0.675306 0.305764
vt 0.675306 0.329581
vt 0.622578 0.329581
vt 0.262899 0.718306
vt 0.245356 0.739632
vt 0.233696 0.704100
vt 0.251239 0.682775
vt 0.517553 0.149528
vt 0.528270 0.100817
vt 0.540675 0.100699
vt 0.547811 0.150192
vt 0.427222 0.561747
vt 0.427222 0.520281
vt 0.439173 0.520281
vt 0.439173 0.561747
vt 0.613616 0.090317
vt 0.603484 0.090317
vt 0.627733 0.057199
vt 0.639924 0.017137
vt 0.362703 0.578044
vt 0.362666 0.624961
vt 0.405057 0.624961
vt 0.405041 0.578044
vt 0.435023 0.630162
vt 0.572823 0.630162
vt 0.572823 0.992126
vt 0.435023 0.992126
vt 0.587507 0.630162
vt 0.587507 0.992126
vt 0.573834 0.992126
vt 0.573834 0.630162
vt 0.434396 0.630162
vt 0.434396 0.992126
vt 0.420711 0.992126
vt 0.420711 0.630162
vt 0.359624 0.170772
vt 0.389926 0.093782
vt 0.389926 0.170772
vt 0.359624 0.093783
vt 0.068396 0.170772
vt 0.004205 0.170772
vt 0.004205 0.093782
vt 0.068396 0.093783
vt 0.288437 0.170772
vt 0.281739 0.093910
vt 0.359624 0.093783
vt 0.359624 0.170772
vt 0.771358 0.364341
vt 0.771627 0.529661
vt 0.631501 0.529661
vt 0.629996 0.365083
vt 0.439173 0.528056
vt 0.439173 0.569521
vt 0.427222 0.569521
vt 0.427222 0.528056
vt 0.849423 0.117907
vt 0.849577 0.174191
vt 0.828592 0.178819
vt 0.828065 0.115936
vt 0.728282 0.329581
vt 0.679532 0.329581
vt 0.679532 0.306145
vt 0.728282 0.306145
vt 0.603484 0.090317
vt 0.613616 0.090317
vt 0.627733 0.057199
vt 0.639924 0.017137
vt 0.813134 0.111113
vt 0.812802 0.183698
vt 0.798723 0.168161
vt 0.798623 0.124252
vt 0.675306 0.329581
vt 0.622578 0.329581
vt 0.622578 0.305764
vt 0.675306 0.305764
vt 0.156315 0.207793
vt 0.156315 0.183951
vt 0.190195 0.183951
vt 0.190195 0.207793
vt 0.447523 0.011986
vt 0.320001 0.011986
vt 0.320001 0.006637
vt 0.447523 0.006637
vt 0.977105 0.727958
vt 0.859757 0.727958
vt 0.859900 0.547094
vt 0.977248 0.547094
vt 0.405041 0.578044
vt 0.405057 0.624961
vt 0.362666 0.624961
vt 0.362703 0.578044
vt 0.855433 0.414002
vt 0.855433 0.529916
vt 0.798456 0.529916
vt 0.798456 0.414002
vt 0.819214 0.183518
vt 0.862201 0.183517
vt 0.862201 0.232939
vt 0.819182 0.232939
vt 0.819182 0.311830
vt 0.819182 0.232939
vt 0.862201 0.232939
vt 0.862201 0.311830
vt 0.258639 0.306876
vt 0.370679 0.306876
vt 0.370679 0.526547
vt 0.258639 0.526547
vt 0.458455 0.590349
vt 0.458455 0.333849
vt 0.609498 0.329288
vt 0.610174 0.585189
vt 0.959532 0.305319
vt 0.922961 0.361213
vt 0.922961 0.210738
vt 0.959532 0.210738
vt 0.873121 0.529960
vt 0.873191 0.399713
vt 0.921419 0.453914
vt 0.921378 0.529960
vt 0.938394 0.529960
vt 0.938394 0.453914
vt 0.986648 0.399713
vt 0.986648 0.529960
vt 0.934737 0.529960
vt 0.925033 0.529960
vt 0.925077 0.453914
vt 0.934737 0.453914
vt 0.922783 0.830325
vt 0.933601 0.830325
vt 0.933495 0.958676
vt 0.922783 0.958676
vt 0.436561 0.349520
vt 0.436561 0.486256
vt 0.399065 0.486256
vt 0.399065 0.349520
vt 0.450776 0.460869
vt 0.450776 0.491095
vt 0.442990 0.491092
vt 0.442990 0.460857
vt 0.529835 0.318841
vt 0.514893 0.318841
vt 0.514893 0.302808
vt 0.529835 0.302808
vt 0.869990 0.529916
vt 0.860386 0.529916
vt 0.860386 0.414489
vt 0.869990 0.384933
vt 0.798456 0.407894
vt 0.798456 0.367372
vt 0.855433 0.367372
vt 0.855433 0.407894
vt 0.848940 0.992348
vt 0.848940 0.757241
vt 0.869673 0.820150
vt 0.869673 0.992348
vt 0.794099 0.415054
vt 0.794099 0.529916
vt 0.785019 0.529916
vt 0.785019 0.384399
vt 0.903499 0.826869
vt 0.903498 0.920354
vt 0.896010 0.920354
vt 0.896010 0.826869
vt 0.813800 0.195012
vt 0.807355 0.287602
vt 0.785240 0.287602
vt 0.785240 0.195012
vt 0.910586 0.921734
vt 0.910586 0.828249
vt 0.918248 0.828249
vt 0.918247 0.921734
vt 0.987817 0.756599
vt 0.987817 0.879369
vt 0.966632 0.819679
vt 0.987817 0.992348
vt 0.966632 0.992348
vt 0.673277 0.723649
vt 0.620516 0.725992
vt 0.626198 0.813866
vt 0.679112 0.798398
vt 0.629721 0.870864
vt 0.681884 0.867842
vt 0.678162 0.922810
vt 0.627852 0.919801
vt 0.673974 0.987036
vt 0.624074 0.991723
vt 0.673974 0.987036
vt 0.624074 0.991723
vt 0.627852 0.919801
vt 0.678162 0.922810
vt 0.629721 0.870864
vt 0.681884 0.867842
vt 0.626198 0.813866
vt 0.679112 0.798398
vt 0.673277 0.723649
vt 0.620516 0.725992
vt 0.868925 0.145125
vt 0.918428 0.158953
vt 0.918428 0.303886
vt 0.868925 0.282891
vt 0.868925 0.303886
vt 0.885216 0.404136
vt 0.878771 0.311547
vt 0.909070 0.311547
vt 0.918766 0.404136
vt 0.918766 0.311547
vt 0.437428 0.306876
vt 0.437428 0.338610
vt 0.395412 0.338610
vt 0.370679 0.306876
vt 0.395412 0.526547
vt 0.370679 0.526547
vt 0.333620 0.287602
vt 0.278065 0.287602
vt 0.333620 0.179285
vt 0.271620 0.195012
vt 0.288725 0.179285
vt 0.964029 0.220424
vt 0.969270 0.234183
vt 0.969270 0.328764
vt 0.964029 0.315005
vt 0.932698 0.384659
vt 0.927458 0.370899
vt 0.982986 0.254939
vt 0.988221 0.269824
vt 0.988224 0.370781
vt 0.982986 0.357018
vt 0.944163 0.438077
vt 0.938925 0.424314
vt 0.450776 0.431244
vt 0.442990 0.431257
vt 0.443099 0.302673
vt 0.450688 0.318756
vt 0.514893 0.302808
vt 0.514893 0.318841
vt 0.544508 0.318841
vt 0.544508 0.302808
vt 0.616031 0.302829
vt 0.607183 0.320752
vt 0.616006 0.436832
vt 0.608415 0.436832
vt 0.546280 0.619672
vt 0.546280 0.604914
vt 0.608275 0.602950
vt 0.615815 0.619673
vt 0.608279 0.555036
vt 0.615871 0.555036
vt 0.629415 0.529661
vt 0.622690 0.529661
vt 0.623654 0.367945
vt 0.629705 0.362909
vt 0.633028 0.349620
vt 0.770786 0.349511
vt 0.773224 0.362912
vt 0.779289 0.367482
vt 0.779779 0.529661
vt 0.773245 0.529661
vt 0.879452 0.819679
vt 0.879452 0.737891
vt 0.957616 0.737891
vt 0.957616 0.819679
vt 0.879452 0.992348
vt 0.957616 0.992348
vt 0.445784 0.149579
vt 0.439147 0.176177
vt 0.419837 0.177819
vt 0.403972 0.149268
vt 0.433888 0.100722
vt 0.421910 0.100997
vt 0.547811 0.150192
vt 0.543158 0.175749
vt 0.526625 0.177819
vt 0.517553 0.149528
vt 0.540675 0.100699
vt 0.528270 0.100817
vt 0.666790 0.113478
vt 0.666750 0.178313
vt 0.618332 0.145807
vt 0.794683 0.168161
vt 0.794584 0.124252
vt 0.760786 0.066112
vt 0.632744 0.066112
vt 0.620199 0.104065
vt 0.760786 0.104715
vt 0.823878 0.065888
vt 0.837168 0.100401
vt 0.445784 0.149579
vt 0.439147 0.176177
vt 0.419837 0.177819
vt 0.403972 0.149268
vt 0.433888 0.100722
vt 0.421910 0.100997
vt 0.004071 0.992126
vt 0.004071 0.537574
vt 0.068782 0.537574
vt 0.083379 0.574220
vt 0.162597 0.992126
vt 0.162597 0.537574
vt 0.097975 0.537574
vt 0.618332 0.145807
vt 0.666789 0.113478
vt 0.666750 0.178313
vt 0.794683 0.168161
vt 0.794583 0.124252
vt 0.627733 0.057199
vt 0.702831 0.017137
vt 0.639924 0.017137
vt 0.702831 0.057199
vt 0.834115 0.017137
vt 0.845609 0.056206
vt 0.258639 0.306876
vt 0.258639 0.526547
vt 0.191890 0.526547
vt 0.191890 0.306876
vt 0.191890 0.199613
vt 0.620199 0.104065
vt 0.632744 0.066112
vt 0.760786 0.066112
vt 0.760786 0.104715
vt 0.837168 0.100401
vt 0.823878 0.065888
vt 0.639924 0.017137
vt 0.626305 0.056600
vt 0.702831 0.057199
vt 0.702978 0.017061
vt 0.834115 0.017137
vt 0.845196 0.051690
vt 0.624622 0.104715
vt 0.632744 0.066112
vt 0.760786 0.066112
vt 0.760786 0.104715
vt 0.838761 0.104394
vt 0.823878 0.065888
vt 0.702831 0.017137
vt 0.627733 0.057199
vt 0.639924 0.017137
vt 0.702831 0.057199
vt 0.845755 0.053300
vt 0.834115 0.017137
vt 0.164744 0.537574
vt 0.237250 0.537574
vt 0.251900 0.574220
vt 0.164744 0.992126
vt 0.419557 0.630162
vt 0.419557 0.992126
vt 0.339057 0.630162
vt 0.266552 0.537574
vt 0.339057 0.537574
vt 0.760786 0.066112
vt 0.632744 0.066112
vt 0.623282 0.104915
vt 0.760786 0.104715
vt 0.838761 0.104394
vt 0.823878 0.065888
vt 0.979873 0.343873
vt 0.935811 0.411169
vt 0.935811 0.392269
vt 0.972383 0.336375
vt 0.972383 0.241794
vt 0.979873 0.241794
vt 0.489371 0.287602
vt 0.427008 0.287602
vt 0.411496 0.249671
vt 0.489371 0.195012
vt 0.333620 0.179285
vt 0.397171 0.179285
vt 0.396126 0.287602
vt 0.333620 0.287602
vt 0.442990 0.491217
vt 0.450776 0.491216
vt 0.451539 0.602832
vt 0.443003 0.619672
vt 0.512673 0.619672
vt 0.512672 0.604914
vt 0.632360 0.870295
vt 0.620869 0.726904
vt 0.664021 0.730931
vt 0.675365 0.867370
vt 0.625356 0.991642
vt 0.694987 0.722987
vt 0.668282 0.981715
vt 0.709264 0.866688
vt 0.696315 0.987626
vt 0.632399 0.870744
vt 0.625341 0.991860
vt 0.667936 0.982670
vt 0.675457 0.866376
vt 0.696664 0.988541
vt 0.621214 0.727561
vt 0.708959 0.866213
vt 0.664118 0.730586
vt 0.695022 0.722007
vt 0.588817 0.992126
vt 0.588817 0.630162
vt 0.669528 0.630162
vt 0.756914 0.574220
vt 0.669528 0.537574
vt 0.742225 0.537574
vt 0.844301 0.992126
vt 0.844301 0.537574
vt 0.771418 0.537574
vt 0.664021 0.730931
vt 0.620869 0.726904
vt 0.632361 0.870295
vt 0.675365 0.867370
vt 0.625356 0.991642
vt 0.694987 0.722987
vt 0.668282 0.981715
vt 0.709264 0.866688
vt 0.696315 0.987626
vt 0.544735 0.287602
vt 0.489371 0.287602
vt 0.559430 0.250956
vt 0.489371 0.195012
vt 0.629489 0.195012
vt 0.629489 0.287602
vt 0.574126 0.287602
vt 0.692637 0.287602
vt 0.629489 0.287602
vt 0.707365 0.250956
vt 0.629489 0.195012
vt 0.785240 0.195012
vt 0.785240 0.287602
vt 0.722092 0.287602
vt 0.651143 0.726327
vt 0.692488 0.725855
vt 0.706490 0.825878
vt 0.632108 0.822381
vt 0.621300 0.725972
vt 0.665341 0.824113
vt 0.706395 0.901385
vt 0.631875 0.913630
vt 0.664113 0.902728
vt 0.696888 0.985629
vt 0.623292 0.990685
vt 0.654382 0.982957
vt 0.706490 0.825878
vt 0.692488 0.725855
vt 0.651143 0.726327
vt 0.621300 0.725972
vt 0.632108 0.822381
vt 0.665341 0.824113
vt 0.706395 0.901385
vt 0.631875 0.913630
vt 0.664113 0.902728
vt 0.696888 0.985629
vt 0.623292 0.990685
vt 0.654382 0.982957
vt 0.696664 0.988541
vt 0.667936 0.982670
vt 0.675457 0.866376
vt 0.708959 0.866213
vt 0.625341 0.991860
vt 0.695022 0.722007
vt 0.632399 0.870744
vt 0.664118 0.730586
vt 0.621214 0.727561
vn 0.947676 0.312845 -0.06354900000000001
vn 0.947676 0.312845 -0.06354900000000001
vn 0.947676 0.312845 -0.06354900000000001
vn -0.997523 -0.030149000000000002 -0.063549
vn -0.997523 -0.030149000000000002 -0.063549
vn -0.997523 -0.030149000000000002 -0.063549
vn 0.296198 0.813798 0.49999999999999994
vn 0.556671 -0.663414 0.5
vn 0.984808 0.173648 -1.063287336891698E-17
vn 0.984808 0.173648 -1.063287336891698E-17
vn -0.642788 0.766044 -4.690666663030175E-17
vn 0.296198 0.813798 0.49999999999999994
vn 0.296198 0.813798 0.49999999999999994
vn -0.852868 -0.15038399999999996 0.5
vn 0.556671 -0.663414 0.5
vn 0.296199 0.813797 0.49999999999999994
vn 0.55667 -0.663414 0.5
vn 0.984808 0.173647 -1.0632812136577021E-17
vn 0.984808 0.173647 -1.0632812136577021E-17
vn -0.642788 0.766044 -4.690666663030175E-17
vn 0.296199 0.813797 0.49999999999999994
vn 0.296199 0.813797 0.49999999999999994
vn -0.852869 -0.15038399999999996 0.5
vn 0.55667 -0.663414 0.5
vn 0.256307 -0.683486 0.683486
vn 0.256307 -0.683486 0.683486
vn 0.256307 -0.683486 0.683486
vn 0.256307 -0.683486 0.683486
vn 0.256307 -0.683486 0.683486
vn 0.256307 -0.683486 0.683486
vn 1 0 0
vn 1 0 0
vn 1 0 0
vn 1 0 0
vn 1 0 0
vn 1 0 0
vn 0.852869 0.15038400000000002 0.5
vn -0.55667 0.663414 0.49999999999999994
vn -0.296198 -0.813798 0.5
vn -0.819118 -0.573555 -0.008960999999999966
vn -0.819118 -0.573555 -0.008960999999999966
vn -0.819118 -0.573555 -0.008960999999999966
vn 0.819117 0.573557 0.008960999999999966
vn 0.819117 0.573557 0.008960999999999966
vn 0.819117 0.573557 0.008960999999999966
vn 0.947678 0.312838 -0.06354700000000002
vn 0.947678 0.312838 -0.06354700000000002
vn 0.947678 0.312838 -0.06354700000000002
vn -0.997523 -0.030144000000000004 -0.06355
vn -0.997523 -0.030144000000000004 -0.06355
vn -0.997523 -0.030144000000000004 -0.06355
vn -0.560397 -0.800327 0.21314600000000006
vn -0.560397 -0.800327 0.21314600000000006
vn -0.560397 -0.800327 0.21314600000000006
vn 0 6.123233995736766E-17 1
vn 0 6.123233995736766E-17 1
vn 0 6.123233995736766E-17 1
vn 1 0 0
vn 1 0 0
vn 1 0 0
vn 1 0 0
vn 1 0 0
vn 1 0 0
vn 1 0 0
vn 1 0 0
vn 1 0 0
vn 1 0 0
vn 1 0 0
vn 1 0 0
vn -0.997523 -0.030151000000000004 -0.063547
vn -0.997523 -0.030151000000000004 -0.063547
vn -0.997523 -0.030151000000000004 -0.063547
vn 0.947676 0.312844 -0.06355000000000001
vn 0.947676 0.312844 -0.06355000000000001
vn 0.947676 0.312844 -0.06355000000000001
vn -0.553372 -0.830057 0.06917100000000005
vn -0.553372 -0.830057 0.06917100000000005
vn -0.553372 -0.830057 0.06917100000000005
vn -0.553372 -0.830057 0.06917100000000005
vn -0.553372 -0.830057 0.06917100000000005
vn -0.553372 -0.830057 0.06917100000000005
vn -0.973975 -0.132158 -0.184136
vn -0.821995 0.14444399999999996 -0.550873
vn 0.081036 0.555961 -0.827249
vn -0.973975 -0.132158 -0.184136
vn -0.027685 0.560628 0.827605
vn -0.821995 0.14444399999999996 -0.550873
vn -0.821995 0.14444399999999996 -0.550873
vn -0.027685 0.560628 0.827605
vn 0.081036 0.555961 -0.827249
vn -0.536258 0.45892299999999997 -0.70839
vn -0.867592 -0.032760000000000025 -0.496196
vn -0.924365 -0.13015100000000002 -0.358623
vn 0.57323 -0.818656 -0.034777999999999955
vn 0.57323 -0.818656 -0.034777999999999955
vn 0.57323 -0.818656 -0.034777999999999955
vn -0.573232 0.818655 0.03477199999999995
vn -0.573232 0.818655 0.03477199999999995
vn -0.573232 0.818655 0.03477199999999995
vn -0.173647 0.984808 -6.030209824873533E-17
vn -0.173647 0.984808 -6.030209824873533E-17
vn -0.173647 0.984808 -6.030209824873533E-17
vn -0.173648 0.984808 -6.030209824873533E-17
vn -0.173648 0.984808 -6.030209824873533E-17
vn -0.173648 0.984808 -6.030209824873533E-17
vn 0.173647 -0.984808 6.030209824873533E-17
vn 0.173647 -0.984808 6.030209824873533E-17
vn 0.173647 -0.984808 6.030209824873533E-17
vn -0.818224 0.57024 0.07305299999999997
vn -0.983778 -0.179391 -0.000407999999999989
vn -0.984213 -0.176778 0.008606000000000011
vn -0.970197 0.201613 0.134425
vn -0.818224 0.57024 0.07305299999999997
vn -0.533031 0.834142 0.14172399999999993
vn -0.818224 0.57024 0.07305299999999997
vn -0.165943 0.986024 0.01483799999999994
vn -0.159141 0.987256 -6.045199501695097E-17
vn 0.438657 0.731931 -0.521399
vn 0.022985 0.985623 -0.16739000000000007
vn 0.996583 -0.078795 0.024762000000000003
vn 0.996583 -0.078795 0.024762000000000003
vn 0.731931 -0.43865600000000005 -0.5214
vn 0.996583 -0.078795 0.024762000000000003
vn 0.022985 0.985623 -0.16739000000000007
vn 0.192769 0.869525 0.4547149999999999
vn 0.869527 -0.19276499999999996 0.454714
vn 0.996583 -0.078795 0.024762000000000003
vn -0.973498 0.221439 -0.057151000000000014
vn -0.895166 -0.09305899999999998 0.43591
vn 0.192769 0.869525 0.4547149999999999
vn 0.022985 0.985623 -0.16739000000000007
vn -0.973498 0.221439 -0.057151000000000014
vn 0.438657 0.731931 -0.521399
vn -0.731933 0.43865399999999993 -0.521399
vn -0.973498 0.221439 -0.057151000000000014
vn 0.987308 0.09607800000000001 0.126462
vn 0.767539 0.488971 -0.41447700000000004
vn 0.438658 0.731929 -0.521401
vn 0.022987 0.985623 -0.16738900000000007
vn 0.987308 0.09607800000000001 0.126462
vn 0.192769 0.869524 0.4547169999999999
vn 0.869526 -0.19276499999999996 0.454716
vn 0.987308 0.09607800000000001 0.126462
vn 0.987308 0.09607800000000001 0.126462
vn 0.022987 0.985623 -0.16738900000000007
vn -0.973498 0.221439 -0.05714900000000001
vn -0.895167 -0.09305799999999997 0.435909
vn 0.192769 0.869524 0.4547169999999999
vn 0.022987 0.985623 -0.16738900000000007
vn -0.973498 0.221439 -0.05714900000000001
vn -0.731932 0.43865499999999996 -0.521399
vn -0.973498 0.221439 -0.05714900000000001
vn 0.438658 0.731929 -0.521401
vn -0.55667 0.663414 0.49999999999999994
vn 0.852869 0.15038400000000002 0.5
vn 0.342021 0.939692 -5.753953999921874E-17
vn 0.342021 0.939692 -5.753953999921874E-17
vn -0.984808 -0.173648 1.063287336891698E-17
vn -0.296198 -0.813798 0.5
vn -0.55667 0.663414 0.49999999999999994
vn -0.984808 -0.173648 1.063287336891698E-17
vn 0.642788 -0.766044 4.690666663030175E-17
vn -0.296198 -0.813798 0.5
vn -0.440536 0.629151 0.640388
vn -0.565011 0.80692 0.17217299999999994
vn -0.565011 0.80692 0.17217299999999994
vn 0.140923 -0.20125899999999994 0.969348
vn -0.440536 0.629151 0.640388
vn 0.342022 0.939692 -5.753953999921874E-17
vn -0.984808 -0.173649 1.0632934601256937E-17
vn -0.642786 0.766046 -4.690678909498167E-17
vn 0.984809 0.17364 -1.063238351019732E-17
vn 0.342022 0.939692 -5.753953999921874E-17
vn -0.984808 -0.173649 1.0632934601256937E-17
vn 0.642781 -0.76605 4.6907034024341496E-17
vn -0.342019 -0.939693 5.753960123155869E-17
vn -0.342019 -0.939693 5.753960123155869E-17
vn -0.642786 0.766046 -4.690678909498167E-17
vn -0.567885 -0.39763699999999996 0.720688
vn -0.786942 -0.551023 0.27766300000000005
vn -0.786941 -0.551023 0.2776660000000001
vn 0.246337 0.17248600000000006 0.953712
vn -0.567885 -0.39763699999999996 0.720688
vn -0.066552 0.37743200000000005 0.923643
vn -0.135378 0.767755 0.626278
vn -0.135376 0.767756 0.626278
vn 0.066552 -0.37743199999999993 0.923643
vn -0.066552 0.37743200000000005 0.923643
vn -0.376736 -0.06643299999999995 0.923936
vn -0.767101 -0.13526899999999997 0.627103
vn -0.767104 -0.13526399999999997 0.627101
vn 0.376735 0.06643000000000006 0.923936
vn -0.376736 -0.06643299999999995 0.923936
vn 0.174146 -0.98472 6.029670980281909E-17
vn 0.174146 -0.98472 6.029670980281909E-17
vn 0.174146 -0.98472 6.029670980281909E-17
vn 0.174146 -0.98472 6.029670980281909E-17
vn -0.174146 0.98472 -6.029670980281909E-17
vn -0.174146 0.98472 -6.029670980281909E-17
vn -0.174146 0.98472 -6.029670980281909E-17
vn -0.174146 0.98472 -6.029670980281909E-17
vn -0.747394 -0.13177299999999997 0.651182
vn -0.747388 -0.13178399999999998 0.651187
vn -0.747394 -0.13177299999999997 0.651182
vn -0.747394 -0.13177299999999997 0.651182
vn 0.75411 0.13295700000000002 0.643149
vn 0.754105 0.13296800000000003 0.643153
vn 0.75411 0.13295700000000002 0.643149
vn 0.75411 0.13295700000000002 0.643149
vn -0.925417 -0.16317600000000002 -0.34202
vn -0.925418 -0.16317300000000004 -0.342018
vn -0.925417 -0.16317600000000002 -0.34202
vn -0.925416 -0.16317800000000002 -0.342021
vn 0.925417 0.16317600000000002 0.34202
vn 0.925416 0.16317800000000002 0.342021
vn 0.925417 0.16317600000000002 0.34202
vn 0.925418 0.16317300000000004 0.342018
vn -3.1E-05 -5.999999999938768E-06 1
vn -3.1E-05 -5.999999999938768E-06 1
vn -3.1E-05 -5.999999999938768E-06 1
vn -3.1E-05 -5.999999999938768E-06 1
vn 0.154869 -0.878304 0.45232400000000006
vn 0.154869 -0.878304 0.45232400000000006
vn 0.173648 -0.984808 6.030209824873533E-17
vn 0.173648 -0.984808 6.030209824873533E-17
vn -0.984808 -0.173648 1.063287336891698E-17
vn -0.984808 -0.173648 1.063287336891698E-17
vn -0.984808 -0.173648 1.063287336891698E-17
vn -0.984808 -0.173648 1.063287336891698E-17
vn 0.984808 0.173646 -1.0632750904237064E-17
vn 0.984808 0.173646 -1.0632750904237064E-17
vn 0.984808 0.173646 -1.0632750904237064E-17
vn 0.984808 0.173646 -1.0632750904237064E-17
vn 0.102592 -0.581831 0.806814
vn 0.154869 -0.878304 0.45232400000000006
vn 0.154869 -0.878304 0.45232400000000006
vn 0.102592 -0.581831 0.806813
vn 0 6.123233995736766E-17 1
vn 0 6.123233995736766E-17 1
vn 0 6.123233995736766E-17 1
vn 0 6.123233995736766E-17 1
vn 0.628043 0.773772 0.08269999999999995
vn 0.966698 0.242189 0.08269999999999998
vn -0.535254 0.840184 0.08714099999999994
vn -0.535254 0.840184 0.08714099999999994
vn -0.840185 -0.535253 0.08714100000000002
vn -0.535254 0.840184 0.08714099999999994
vn -0.535254 0.840184 0.08714099999999994
vn -0.840185 -0.535253 0.08714100000000002
vn -0.840185 -0.535253 0.08714100000000002
vn -0.840185 -0.535253 0.08714100000000002
vn 0.24219 -0.966698 0.08270100000000005
vn 0.77377 -0.628045 0.08270000000000004
vn 0.77377 -0.628045 0.08270000000000004
vn 0.24219 -0.966698 0.08270100000000005
vn 0.966698 0.242189 0.08269999999999998
vn 0.628043 0.773772 0.08269999999999995
vn 0 6.123233995736766E-17 1
vn 0 6.123233995736766E-17 1
vn 0 6.123233995736766E-17 1
vn 0 6.123233995736766E-17 1
vn -0.852868 -0.15038399999999996 0.5
vn 0.296198 0.813798 0.49999999999999994
vn -0.642788 0.766044 -4.690666663030175E-17
vn -0.34202 -0.939693 5.753960123155869E-17
vn 0.556671 -0.663414 0.5
vn -0.852868 -0.15038399999999996 0.5
vn -0.34202 -0.939693 5.753960123155869E-17
vn 0.984808 0.173648 -1.063287336891698E-17
vn -0.852869 -0.15038399999999996 0.5
vn 0.296199 0.813797 0.49999999999999994
vn -0.642788 0.766044 -4.690666663030175E-17
vn -0.342021 -0.939692 5.753953999921874E-17
vn 0.55667 -0.663414 0.5
vn -0.852869 -0.15038399999999996 0.5
vn -0.342021 -0.939692 5.753953999921874E-17
vn 0.984808 0.173647 -1.0632812136577021E-17
vn -0.135077 0.781864 -0.60864
vn 0.973761 -0.224752 0.03571400000000002
vn 0.078441 -0.539384 -0.838399
vn 0.815035 -0.504744 0.2845190000000001
vn 0.198107 -0.790359 0.57973
vn 0.198109 -0.790358 0.57973
vn 0.198107 -0.790359 0.57973
vn 0.198106 -0.790359 0.579729
vn 0.973761 -0.224752 0.03571400000000002
vn -0.135077 0.781864 -0.60864
vn -0.074569 0.538838 0.839102
vn 0.815035 -0.504744 0.2845190000000001
vn -0.547865 -0.730977 0.40683700000000006
vn -0.54661 -0.731092 0.40831600000000007
vn -0.547865 -0.730977 0.40683700000000006
vn -0.53239 0.016430000000000052 0.84634
vn 0.206067 -0.789368 0.578303
vn 0.198783 -0.79232 0.576815
vn 0.206067 -0.789368 0.578303
vn 0.213337 -0.786366 0.579755
vn 0 6.123233995736766E-17 1
vn 0 6.123233995736766E-17 1
vn 0 6.123233995736766E-17 1
vn 0 6.123233995736766E-17 1
vn 0.987308 0.09607800000000001 0.126462
vn 0.869526 -0.19276499999999996 0.454716
vn 0.093059 -0.895166 0.43591100000000005
vn -0.614853 -0.762611 0.20095000000000005
vn 0.852869 0.15038400000000002 0.5
vn -0.296198 -0.813798 0.5
vn 0.642788 -0.766044 4.690666663030175E-17
vn 0.342021 0.939692 -5.753953999921874E-17
vn -0.263609 -0.955582 -0.13180399999999995
vn 0.954849 0.10468199999999998 -0.278038
vn -0.3698 -0.9245 -0.09244999999999995
vn 0.955137 0.19013199999999997 -0.227074
vn 0.140923 -0.20125899999999994 0.969348
vn 0.39937 -0.570359 0.717771
vn 0.39937 -0.570359 0.71777
vn -0.440536 0.629151 0.640388
vn 0.984808 0.173648 -1.063287336891698E-17
vn 0.984808 0.173648 -1.063287336891698E-17
vn 0.984808 0.173648 -1.063287336891698E-17
vn 0.984808 0.173648 -1.063287336891698E-17
vn 0.820505 -0.57164 3.500285481322965E-17
vn 0.820505 -0.57164 3.500285481322965E-17
vn 0.820505 -0.57164 3.500285481322965E-17
vn 0.820505 -0.57164 3.500285481322965E-17
vn 0.572055 0.820215 -5.022368371813232E-17
vn 0.572057 0.820214 -5.0223622485792357E-17
vn 0.572055 0.820215 -5.022368371813232E-17
vn 0.572053 0.820217 -5.022380618281223E-17
vn 0.984794 0.173725 1.8999999999989362E-05
vn 0.984796 0.173717 2.099999999998936E-05
vn 0.98479 0.173749 3.899999999998936E-05
vn 0.984804 0.173672 5.999999999989366E-06
vn 0.984814 0.173614 1.899999999998937E-05
vn 0.984816 0.173602 3.899999999998937E-05
vn 0.984812 0.173625 1.6999999999989368E-05
vn 0.984811 0.173632 -1.000000000010632E-06
vn 0.181892 -0.983195 0.01555500000000006
vn 0.190079 -0.981276 0.03110500000000006
vn 0.181892 -0.983195 0.01555500000000006
vn 0.173649 -0.984808 6.030209824873533E-17
vn 0 6.123233995736766E-17 1
vn 0 6.123233995736766E-17 1
vn 0 6.123233995736766E-17 1
vn 0 6.123233995736766E-17 1
vn 0.642781 -0.76605 4.6907034024341496E-17
vn 0.342022 0.939692 -5.753953999921874E-17
vn 0.984809 0.17364 -1.063238351019732E-17
vn -0.342019 -0.939693 5.753960123155869E-17
vn 0.06043 0.573926 -0.816675
vn -0.867592 -0.032760000000000025 -0.496196
vn -0.536258 0.45892299999999997 -0.70839
vn 0.538057 0.38661799999999996 -0.749013
vn 0.00132 0.43743600000000005 0.899249
vn 0.001319 0.43743600000000005 0.899248
vn 0.00132 0.43743600000000005 0.899249
vn 0.00132 0.4374350000000001 0.899249
vn -0.954849 -0.10468199999999998 0.278038
vn -0.263609 -0.955582 -0.13180399999999995
vn -0.3698 -0.9245 -0.09244999999999995
vn -0.955137 -0.19013199999999997 0.227074
vn 0.274924 -0.28159999999999996 0.919303
vn 0.289774 -0.2959129999999999 0.910201
vn 0.274924 -0.28159999999999996 0.919303
vn 0.259935 -0.26714399999999994 0.927938
vn -2.4E-05 0.44464800000000004 0.895706
vn -0.004622 0.45049900000000004 0.892765
vn -2.4E-05 0.44464800000000004 0.895706
vn 0.004574 0.43876800000000005 0.898589
vn -0.969699 -0.170985 0.174493
vn -0.969698 -0.170991 0.174491
vn -0.969699 -0.170985 0.174493
vn -0.9697 -0.170979 0.174495
vn -0.969731 -0.171042 0.174262
vn -0.96972 -0.171103 0.174264
vn -0.969731 -0.171042 0.174262
vn -0.969742 -0.170981 0.174261
vn -0.614455 -0.10834499999999996 0.781477
vn -0.614455 -0.10834399999999995 0.781477
vn -0.614455 -0.10834499999999996 0.781477
vn -0.614456 -0.10834499999999996 0.781476
vn 0.246337 0.17248600000000006 0.953712
vn 0.60386 0.42282700000000006 0.6757
vn 0.603858 0.42282700000000006 0.675701
vn -0.567885 -0.39763699999999996 0.720688
vn -0.173648 0.984808 -6.030209824873533E-17
vn -0.173648 0.984808 -6.030209824873533E-17
vn -0.173648 0.984808 -6.030209824873533E-17
vn -0.173648 0.984808 -6.030209824873533E-17
vn -0.173798 0.984781 -6.030044497555649E-17
vn -0.173798 0.984781 -6.030044497555649E-17
vn -0.173798 0.984781 -6.030044497555649E-17
vn -0.173798 0.984781 -6.030044497555649E-17
vn 0.9848 0.173694 -1.0635690056555017E-17
vn 0.9848 0.173694 -1.0635690056555017E-17
vn 0.9848 0.173694 -1.0635690056555017E-17
vn 0.9848 0.173694 -1.0635690056555017E-17
vn -0.984808 -0.173648 1.063287336891698E-17
vn -0.984808 -0.173648 1.063287336891698E-17
vn -0.984808 -0.173648 1.063287336891698E-17
vn -0.984808 -0.173648 1.063287336891698E-17
vn 0 6.123233995736766E-17 1
vn 0 6.123233995736766E-17 1
vn 0 6.123233995736766E-17 1
vn 0 6.123233995736766E-17 1
vn 0 6.123233995736766E-17 1
vn 0 6.123233995736766E-17 1
vn 0 6.123233995736766E-17 1
vn 0 6.123233995736766E-17 1
vn -0.984808 -0.173647 1.0632812136577021E-17
vn -0.984808 -0.173647 1.0632812136577021E-17
vn -0.984808 -0.173647 1.0632812136577021E-17
vn -0.984808 -0.173647 1.0632812136577021E-17
vn 0.984808 0.173649 -1.0632934601256937E-17
vn 0.984808 0.173649 -1.0632934601256937E-17
vn 0.984808 0.173649 -1.0632934601256937E-17
vn 0.984808 0.173649 -1.0632934601256937E-17
vn -0.173648 0.984808 -6.030209824873533E-17
vn -0.173648 0.984808 -6.030209824873533E-17
vn -0.173648 0.984808 -6.030209824873533E-17
vn -0.173648 0.984808 -6.030209824873533E-17
vn -0.073182 0.41504300000000005 0.906854
vn -0.073183 0.41504300000000005 0.906854
vn -0.073182 0.41504300000000005 0.906854
vn -0.073182 0.41504300000000005 0.906854
vn 0.749541 0.13216400000000003 0.64863
vn 0.749541 0.13216400000000003 0.64863
vn 0.749541 0.13216400000000003 0.64863
vn 0.74954 0.13216500000000003 0.648631
vn 0.066552 -0.37743199999999993 0.923643
vn 0.135378 -0.767756 0.626278
vn 0.135377 -0.767756 0.626278
vn -0.066552 0.37743200000000005 0.923643
vn 0.376735 0.06643000000000006 0.923936
vn 0.767102 0.13526300000000002 0.627103
vn 0.767103 0.13526000000000002 0.627102
vn -0.376736 -0.06643299999999995 0.923936
vn 0.984808 0.173648 -2.0000000000106327E-06
vn 0.984807 0.173652 -3.0000000000106333E-06
vn 0.984808 0.173648 -2.0000000000106327E-06
vn 0.984809 0.173644 -1.0000000000106325E-06
vn -0.137695 0.780908 0.60928
vn -0.137695 0.780908 0.609281
vn -0.137695 0.780908 0.60928
vn -0.137695 0.780909 0.60928
vn -0.984892 -0.173168 0.0001340000000000106
vn -0.984977 -0.172687 1.057402909021795E-17
vn -0.984892 -0.173168 0.0001340000000000106
vn -0.984808 -0.173649 0.0002690000000000106
vn -0.984806 -0.173655 1.0000000000106332E-06
vn -0.984807 -0.173652 1.0633118298276808E-17
vn -0.984806 -0.173655 1.0000000000106332E-06
vn -0.984806 -0.173655 1.0000000000106332E-06
vn -0.172661 0.975232 0.13824299999999995
vn -0.171989 0.975371 0.13810199999999995
vn -0.172661 0.975232 0.13824299999999995
vn -0.173332 0.975093 0.13838499999999995
vn -0.983893 -0.178726 0.0033650000000000108
vn -0.984784 -0.173783 1.9000000000010643E-05
vn -0.983893 -0.178726 0.0033650000000000108
vn -0.982966 -0.183663 0.006710000000000011
vn 0.171307 -0.97547 0.13824400000000006
vn 0.17198 -0.975332 0.13838600000000006
vn 0.171307 -0.97547 0.13824400000000006
vn 0.170633 -0.975609 0.13810200000000006
vn 0.984777 0.173821 -0.0002650000000000106
vn 0.984778 0.17382 -0.00026400000000001065
vn 0.984716 0.17417 -0.0003620000000000107
vn 0.984685 0.174345 -0.00041000000000001067
vn 0.984591 0.174872 -0.0005570000000000107
vn 1 0 0
vn 1 0 0
vn 1 0 0
vn 1 0 0
vn 1 0 0
vn 1 0 0
vn 1 0 0
vn 1 0 0
vn 1 0 0
vn 1 0 0
vn -1 0 0
vn -1 0 0
vn -1 0 0
vn -1 0 0
vn -1 0 0
vn -1 0 0
vn -1 0 0
vn -1 0 0
vn -1 0 0
vn -1 0 0
vn 0.984812 0.173625 1.6999999999989368E-05
vn 0.984808 0.173649 3.399999999998937E-05
vn 0.984809 0.17364 9.999999999989369E-06
vn 0.984811 0.173632 -1.000000000010632E-06
vn 0.984809 0.173645 -1.0632689671897107E-17
vn 0.984803 0.173675 1.0999999999989364E-05
vn 0.984796 0.173717 2.099999999998936E-05
vn 0.984804 0.173672 5.999999999989366E-06
vn 0.984809 0.173644 -1.0000000000106325E-06
vn 0.984809 0.173639 -1.0632322277857363E-17
vn -0.173648 0.984808 -1.0000000000603021E-06
vn -0.173648 0.984808 -6.030209824873533E-17
vn -0.173647 0.984808 -1.0000000000603021E-06
vn -0.173647 0.984808 -1.0000000000603021E-06
vn -0.173646 0.984808 -6.030209824873533E-17
vn -0.173646 0.984808 -6.030209824873533E-17
vn -0.985424 -0.170071 -0.0038759999999999897
vn -0.98512 -0.17186 -0.0019379999999999894
vn -0.985017 -0.172456 -0.0012929999999999895
vn -0.984808 -0.173647 -1.999999999989367E-06
vn -0.984808 -0.173647 -3.999999999989367E-06
vn -0.173648 0.984808 -6.030209824873533E-17
vn -0.173648 0.984808 -6.030209824873533E-17
vn -0.453404 0.891305 -5.4576690765701584E-17
vn -0.715643 0.698466 -4.2768707560662764E-17
vn -0.888282 0.459298 -2.812389127773905E-17
vn -0.888282 0.459298 -2.812389127773905E-17
vn -0.17365 0.984807 -6.030203701639537E-17
vn -0.17365 0.984807 -6.030203701639537E-17
vn -0.45349 0.891261 -5.457399654274346E-17
vn -0.715802 0.698304 -4.275878792158967E-17
vn -0.888431 0.459011 -2.810631759617129E-17
vn -0.888431 0.459011 -2.810631759617129E-17
vn 0 6.123233995736766E-17 1
vn 0 6.123233995736766E-17 1
vn 0 6.123233995736766E-17 1
vn 0 6.123233995736766E-17 1
vn 0 6.123233995736766E-17 1
vn 0 6.123233995736766E-17 1
vn 0 6.123233995736766E-17 1
vn 0 6.123233995736766E-17 1
vn 0 6.123233995736766E-17 1
vn 0 6.123233995736766E-17 1
vn 0 6.123233995736766E-17 1
vn 0 6.123233995736766E-17 1
vn 0 6.123233995736766E-17 1
vn 0 6.123233995736766E-17 1
vn 0 6.123233995736766E-17 1
vn 0 6.123233995736766E-17 1
vn 0 6.123233995736766E-17 1
vn 0 6.123233995736766E-17 1
vn 0 6.123233995736766E-17 1
vn 0 6.123233995736766E-17 1
vn 0 6.123233995736766E-17 1
vn 0 6.123233995736766E-17 1
vn 0 6.123233995736766E-17 1
vn 0 6.123233995736766E-17 1
vn 0 6.123233995736766E-17 1
vn 0 6.123233995736766E-17 1
vn 0 6.123233995736766E-17 1
vn 0 6.123233995736766E-17 1
vn -0.157297 0.891568 0.42469299999999993
vn -0.138938 0.786502 0.601756
vn -0.138842 0.786681 0.601545
vn -0.169382 0.960607 0.22032799999999994
vn -0.173628 0.984691 0.015422999999999938
vn -0.173628 0.98469 0.015422999999999938
vn -0.973498 0.221439 -0.057151000000000014
vn -0.731933 0.43865399999999993 -0.521399
vn -0.438658 -0.731931 -0.521398
vn -0.221441 -0.973498 -0.05715299999999994
vn -0.895166 -0.09305899999999998 0.43591
vn 0.093061 -0.895166 0.43591100000000005
vn -0.221441 -0.973498 -0.05715299999999994
vn -0.438658 -0.731931 -0.521398
vn 0.731931 -0.43865600000000005 -0.5214
vn 0.996583 -0.078795 0.024762000000000003
vn 0.093061 -0.895166 0.43591100000000005
vn 0.869527 -0.19276499999999996 0.454714
vn 0.17874 -0.44647699999999996 0.876761
vn 0.288943 -0.94929 0.12393800000000006
vn 0.481803 -0.791253 0.37654300000000007
vn 0.204861 -0.933254 0.29507700000000003
vn 0.062765 -0.43901399999999996 0.896285
vn 0.288943 -0.94929 0.12393800000000006
vn 0.204861 -0.933254 0.29507700000000003
vn 0.186073 -0.950934 -0.24718799999999994
vn 0.405631 -0.904276 -0.13322399999999995
vn 0.481803 -0.791253 0.37654300000000007
vn 0.484244 -0.48014899999999994 0.731413
vn -0.973498 0.221439 -0.05714900000000001
vn -0.731932 0.43865499999999996 -0.521399
vn -0.76754 -0.488977 -0.4144689999999999
vn -0.614853 -0.762611 0.20095000000000005
vn -0.895167 -0.09305799999999997 0.435909
vn 0.093059 -0.895166 0.43591100000000005
vn -0.984808 -0.173647 1.0632812136577021E-17
vn -0.984808 -0.173649 1.0632934601256937E-17
vn -0.984808 -0.173647 -9.999999999893672E-07
vn -0.984808 -0.173647 -9.999999999893672E-07
vn -0.984808 -0.173649 1.0632934601256937E-17
vn -0.984808 -0.173648 -1.999999999989367E-06
vn -0.984808 -0.173648 -4.999999999989368E-06
vn -0.024028 0.49241200000000007 0.87003
vn -0.00111 0.44279300000000005 0.896623
vn -0.006845 0.45536400000000005 0.890279
vn 0.010351 0.41736900000000005 0.908678
vn 0.010351 0.41736900000000005 0.908678
vn 0.261463 -0.899997 -0.34877199999999997
vn -0.757881 -0.645876 -0.09197499999999996
vn -0.745838 -0.653529 0.12893700000000002
vn -0.814034 -0.553309 -0.17662599999999998
vn -0.867592 -0.032760000000000025 -0.496196
vn -0.924365 -0.13015100000000002 -0.358623
vn 0.173649 -0.984808 6.030209824873533E-17
vn 0.173649 -0.984808 6.030209824873533E-17
vn 0.173649 -0.984808 6.030209824873533E-17
vn 0.173649 -0.984808 6.030209824873533E-17
vn 0.173649 -0.984808 6.030209824873533E-17
vn -0.049706 -0.09947899999999994 0.993797
vn 0.062765 -0.43901399999999996 0.896285
vn 0.17874 -0.44647699999999996 0.876761
vn 0.139737 -0.18220699999999995 0.97328
vn 0.484244 -0.48014899999999994 0.731413
vn 0.481803 -0.791253 0.37654300000000007
vn -0.521637 0.681186 0.513692
vn -0.548215 0.587388 0.595345
vn -0.341957 0.763124 0.548368
vn -0.338347 0.826312 0.45025499999999996
vn -0.148846 0.814326 0.560997
vn -0.53239 0.016430000000000052 0.84634
vn -0.642006 0.019509000000000047 0.766451
vn -0.678476 -0.006233999999999955 0.734596
vn -0.718349 0.14095200000000005 0.681254
vn -0.659696 0.18581800000000007 0.728199
vn -0.187802 0.71152 0.677104
vn -0.242274 0.712149 0.658899
vn 0.897776 0.026949999999999974 -0.439627
vn 0.261463 -0.899997 -0.34877199999999997
vn 0.965765 -0.05576100000000001 -0.253356
vn 0.865012 -0.02182400000000003 -0.501277
vn 0.538057 0.38661799999999996 -0.749013
vn 0.06043 0.573926 -0.816675
vn -0.167848 0.985379 -0.02924600000000006
vn -0.173351 0.983123 -0.05846700000000006
vn -0.178822 0.983636 -0.021972000000000057
vn -0.172948 0.984929 0.00212799999999994
vn -0.173648 0.984808 -6.030209824873533E-17
vn -0.173648 0.984808 -6.030209824873533E-17
vn -0.181716 0.983324 -0.00734600000000006
vn -0.18544 0.982473 -0.01895000000000006
vn -0.173649 0.984808 -6.030209824873533E-17
vn 0.616111 0.642103 0.45619099999999996
vn 0.77006 0.490431 0.4080269999999999
vn 0.713505 0.4954660000000001 0.4954029999999999
vn 0.575471 0.641466 0.507302
vn -0.187802 0.71152 0.677104
vn -0.242274 0.712149 0.658899
vn 0 6.123233995736766E-17 1
vn 0 6.123233995736766E-17 1
vn 0 6.123233995736766E-17 1
vn 0 6.123233995736766E-17 1
vn 0 6.123233995736766E-17 1
vn 0 6.123233995736766E-17 1
vn -0.184938 0.982741 0.00435099999999994
vn -0.188769 0.981943 -0.01239000000000006
vn -0.179296 0.983793 0.0021759999999999397
vn -0.176126 0.984342 0.00703099999999994
vn -0.173256 0.984877 0.00046499999999993975
vn -0.173648 0.984808 9.999999999396978E-07
vn -0.172864 0.984945 0.0009289999999999397
vn -0.17208 0.985081 0.0018589999999999397
vn 0 6.123233995736766E-17 1
vn 0 6.123233995736766E-17 1
vn 0 6.123233995736766E-17 1
vn 0 6.123233995736766E-17 1
vn 0 6.123233995736766E-17 1
vn 0 6.123233995736766E-17 1
vn -0.997511 0.068789 0.015466999999999996
vn -0.979006 0.20312 -0.017035000000000015
vn -0.975703 0.218623 0.014394999999999986
vn -0.99116 -0.04262300000000001 -0.12564
vn -0.969108 -0.246515 0.007785000000000015
vn -0.967197 0.164819 -0.193302
vn -0.969143 -0.200476 -0.143429
vn -0.957231 -0.07806800000000001 -0.278592
vn -0.999608 -0.023406 -0.015362999999999998
vn -0.897383 0.427309 -0.11004600000000003
vn -0.939875 0.334688 -0.06796900000000002
vn -0.950485 0.307184 -0.04707300000000002
vn -0.870871 0.491258 0.01576699999999997
vn -0.926297 0.349913 0.13976499999999997
vn -0.772284 0.615998 -0.15531900000000004
vn -0.8631 0.450729 0.22781999999999997
vn -0.78393 0.616761 -0.07112400000000005
vn -0.808019 0.574007 0.13274699999999998
vn 0.173648 -0.984808 6.030209824873533E-17
vn 0.173648 -0.984808 6.030209824873533E-17
vn 0.173648 -0.984808 6.030209824873533E-17
vn 0.173648 -0.984808 -9.999999999396978E-07
vn 0.173649 -0.984808 -1.999999999939698E-06
vn 0.173649 -0.984808 -3.999999999939698E-06
vn 0.173648 -0.984808 6.030209824873533E-17
vn 0.173648 -0.984808 -9.999999999396978E-07
vn 0.173648 -0.984808 -1.999999999939698E-06
vn 0.975703 -0.218624 -0.014395999999999987
vn 0.979006 -0.20312 0.017035000000000015
vn 0.997511 -0.06879 -0.015469999999999996
vn 0.993139 0.047144000000000005 0.10702
vn 0.969108 0.246516 -0.007787000000000014
vn 0.967196 -0.16482 0.193303
vn 0.964769 0.263099 -7.500000000001611E-05
vn 0.913341 0.007748000000000025 0.407121
vn 0.961243 0.190221 0.199569
vn 0.986018 0.16654 -0.00578800000000001
vn 0.98572 0.168384 0.0014639999999999896
vn 0.985137 0.17177 0.0006469999999999895
vn 0.985099 0.171935 0.004356999999999989
vn 0.984775 0.173832 0.0004649999999999894
vn 0.984708 0.174216 0.00015599999999998932
vn 0.984672 0.174416 -0.0006220000000000108
vn 0.17395 -0.982987 0.05897600000000006
vn 0.16759 -0.985428 0.02907500000000006
vn 0.172378 -0.984575 0.02995400000000006
vn 0.162115 -0.986765 -0.00369699999999994
vn 0.172799 -0.984757 0.01988100000000006
vn 0.181673 -0.982134 0.049062000000000064
vn 0.181039 -0.982109 0.051838000000000065
vn -0.928173 -0.372096 0.006263000000000023
vn -0.961455 -0.268336 0.05999900000000001
vn -0.962481 -0.230443 0.14326800000000003
vn -0.968026 -0.226475 -0.10786399999999999
vn -0.937647 -0.339883 -0.07279099999999998
vn -0.991499 -0.125605 0.03395100000000001
vn -0.96033 0.08818200000000001 0.264558
vn -0.976795 0.10962899999999999 -0.18399
vn -0.978309 0.205718 0.024339999999999987
vn -0.943254 0.273455 0.18840199999999996
vn -0.933443 0.322249 -0.15760900000000003
vn -0.927529 0.373449 -0.015046000000000023
vn 0.962481 0.230443 -0.14326800000000003
vn 0.961455 0.268336 -0.05999900000000001
vn 0.928173 0.372096 -0.006263000000000023
vn 0.937647 0.339883 0.07279099999999998
vn 0.968026 0.226475 0.10786399999999999
vn 0.991499 0.125605 -0.03395100000000001
vn 0.96033 -0.08818200000000001 -0.264558
vn 0.976795 -0.10962899999999999 0.18399
vn 0.978309 -0.205718 -0.024339999999999987
vn 0.943253 -0.273456 -0.18840099999999999
vn 0.933443 -0.322249 0.15760900000000003
vn 0.927528 -0.37345 0.015046000000000023
vn 0.926297 -0.349913 -0.13976499999999997
vn 0.955178 -0.29602 0.0028670000000000184
vn 0.882137 -0.47095 -0.006337999999999971
vn 0.8631 -0.450729 -0.22781999999999997
vn 0.948104 -0.304694 0.09088400000000002
vn 0.808019 -0.574007 -0.13274699999999998
vn 0.863002 -0.487812 0.13140300000000002
vn 0.78393 -0.616761 0.07112400000000005
vn 0.772284 -0.615998 0.15531900000000004
g 01
f 1/1/1 2/2/2 3/3/3
f 4/4/4 5/5/5 6/6/6
f 7/7/7 8/8/8 9/9/9
f 10/10/10 11/11/11 12/12/12
f 13/13/13 14/14/14 15/15/15
f 16/16/16 17/17/17 18/18/18
f 19/19/19 20/20/20 21/21/21
f 22/22/22 23/23/23 24/24/24
f 25/25/25 26/26/26 27/27/27
f 28/28/28 29/29/29 30/30/30
f 31/31/31 32/32/32 33/33/33
f 34/34/34 35/35/35 36/36/36
f 37/37/37 38/38/38 39/39/39
f 40/40/40 41/41/41 42/42/42
f 43/43/43 44/44/44 45/45/45
f 46/46/46 47/47/47 48/48/48
f 49/49/49 50/50/50 51/51/51
f 52/52/52 53/53/53 54/54/54
f 55/55/55 56/56/56 57/57/57
f 58/58/58 59/59/59 60/60/60
f 61/61/61 62/62/62 63/63/63
f 64/64/64 65/65/65 66/66/66
f 67/67/67 68/68/68 69/69/69
f 70/70/70 71/71/71 72/72/72
f 73/73/73 74/74/74 75/75/75
f 76/76/76 77/77/77 78/78/78
f 79/79/79 80/80/80 81/81/81
f 82/82/82 83/83/83 84/84/84
f 85/85/85 86/86/86 87/87/87
f 88/88/88 89/89/89 90/90/90
f 91/91/91 92/92/92 93/93/93
f 94/94/94 95/95/95 96/96/96
f 97/97/97 98/98/98 99/99/99
f 100/100/100 101/101/101 102/102/102
f 103/103/103 104/104/104 105/105/105
f 106/106/106 107/107/107 108/108/108
f 109/109/109 110/110/110 111/111/111
f 111/111/111 112/112/112 113/113/113
f 114/114/114 115/115/115 112/112/112
f 115/115/115 114/114/114 116/116/116
f 116/116/116 117/117/117 115/115/115
f 118/118/118 119/119/119 120/120/120
f 121/121/121 122/122/122 118/118/118
f 123/123/123 124/124/124 125/125/125
f 125/125/125 126/126/126 127/127/127
f 128/128/128 129/129/129 130/130/130
f 130/130/130 131/131/131 132/132/132
f 131/131/131 133/133/133 134/134/134
f 134/134/134 135/135/135 131/131/131
f 136/136/136 137/137/137 138/138/138
f 138/138/138 139/139/139 140/140/140
f 141/141/141 142/142/142 143/143/143
f 144/144/144 145/145/145 141/141/141
f 146/146/146 147/147/147 148/148/148
f 148/148/148 149/149/149 150/150/150
f 151/151/151 152/152/152 149/149/149
f 149/149/149 153/153/153 151/151/151
f 154/154/154 155/155/155 156/156/156
f 157/157/157 158/158/158 154/154/154
f 159/159/159 160/160/160 161/161/161
f 161/161/161 162/162/162 163/163/163
f 164/164/164 165/165/165 166/166/166
f 166/166/166 167/167/167 168/168/168
f 169/169/169 170/170/170 171/171/171
f 171/171/171 172/172/172 173/173/173
f 174/174/174 175/175/175 176/176/176
f 177/177/177 178/178/178 174/174/174
f 179/179/179 180/180/180 181/181/181
f 181/181/181 182/182/182 183/183/183
f 184/184/184 185/185/185 186/186/186
f 186/186/186 187/187/187 188/188/188
f 189/189/189 190/190/190 191/191/191
f 191/191/191 192/192/192 193/193/193
f 194/194/194 195/195/195 196/196/196
f 196/196/196 197/197/197 194/194/194
f 198/198/198 199/199/199 200/200/200
f 200/200/200 201/201/201 198/198/198
f 202/202/202 203/203/203 204/204/204
f 204/204/204 205/205/205 202/202/202
f 206/206/206 207/207/207 208/208/208
f 208/208/208 209/209/209 206/206/206
f 210/210/210 211/211/211 212/212/212
f 212/212/212 213/213/213 210/210/210
f 214/214/214 215/215/215 216/216/216
f 216/216/216 217/217/217 214/214/214
f 218/218/218 219/219/219 220/220/220
f 220/220/220 221/221/221 218/218/218
f 222/222/222 223/223/223 224/224/224
f 224/224/224 225/225/225 222/222/222
f 226/226/226 227/227/227 228/228/228
f 226/226/226 229/229/229 227/227/227
f 230/230/230 231/231/231 232/232/232
f 232/232/232 233/233/233 230/230/230
f 234/234/234 235/235/235 236/236/236
f 236/236/236 237/237/237 234/234/234
f 238/238/238 239/239/239 240/240/240
f 240/240/240 241/241/241 238/238/238
f 242/242/242 243/243/243 244/244/244
f 244/244/244 245/245/245 242/242/242
f 246/246/246 247/247/247 248/248/248
f 248/248/248 249/249/249 246/246/246
f 250/250/250 251/251/251 252/252/252
f 252/252/252 253/253/253 250/250/250
f 254/254/254 255/255/255 256/256/256
f 256/256/256 257/257/257 254/254/254
f 258/258/258 259/259/259 260/260/260
f 260/260/260 261/261/261 258/258/258
f 262/262/262 263/263/263 264/264/264
f 264/264/264 265/265/265 262/262/262
f 266/266/266 267/267/267 268/268/268
f 268/268/268 269/269/269 266/266/266
f 270/270/270 271/271/271 272/272/272
f 272/272/272 273/273/273 270/270/270
f 274/274/274 275/275/275 276/276/276
f 276/276/276 277/277/277 274/274/274
f 278/278/278 279/279/279 280/280/280
f 280/280/280 279/279/279 281/281/281
f 282/282/282 283/283/283 284/284/284
f 284/284/284 285/285/285 282/282/282
f 286/286/286 287/287/287 288/288/288
f 286/286/286 288/288/288 289/289/289
f 290/290/290 291/291/291 292/292/292
f 292/292/292 293/293/293 290/290/290
f 294/294/294 295/295/295 296/296/296
f 296/296/296 297/297/297 294/294/294
f 298/298/298 299/299/299 300/300/300
f 300/300/300 301/301/301 298/298/298
f 302/302/302 303/303/303 304/304/304
f 304/304/304 305/305/305 302/302/302
f 306/306/306 307/307/307 308/308/308
f 308/308/308 309/309/309 306/306/306
f 310/310/310 311/311/311 312/312/312
f 312/312/312 311/311/311 313/313/313
f 314/314/314 315/315/315 316/316/316
f 316/316/316 317/317/317 314/314/314
f 318/318/318 319/319/319 320/320/320
f 320/320/320 321/321/321 318/318/318
f 322/322/322 323/323/323 324/324/324
f 324/324/324 325/325/325 322/322/322
f 326/326/326 327/327/327 328/328/328
f 328/328/328 329/329/329 326/326/326
f 330/330/330 331/331/331 332/332/332
f 330/330/330 333/333/333 331/331/331
f 334/334/334 335/335/335 336/336/336
f 334/334/334 336/336/336 337/337/337
f 338/338/338 339/339/339 340/340/340
f 340/340/340 341/341/341 338/338/338
f 342/342/342 343/343/343 344/344/344
f 344/344/344 345/345/345 342/342/342
f 346/346/346 347/347/347 348/348/348
f 348/348/348 349/349/349 346/346/346
f 350/350/350 351/351/351 352/352/352
f 352/352/352 353/353/353 350/350/350
f 354/354/354 355/355/355 356/356/356
f 356/356/356 357/357/357 354/354/354
f 358/358/358 359/359/359 360/360/360
f 358/358/358 360/360/360 361/361/361
f 362/362/362 363/363/363 364/364/364
f 364/364/364 365/365/365 362/362/362
f 366/366/366 367/367/367 368/368/368
f 368/368/368 369/369/369 366/366/366
f 370/370/370 371/371/371 372/372/372
f 372/372/372 373/373/373 370/370/370
f 374/374/374 375/375/375 376/376/376
f 376/376/376 377/377/377 374/374/374
f 378/378/378 379/379/379 380/380/380
f 380/380/380 381/381/381 378/378/378
f 382/382/382 383/383/383 384/384/384
f 384/384/384 385/385/385 382/382/382
f 386/386/386 387/387/387 388/388/388
f 388/388/388 389/389/389 386/386/386
f 390/390/390 391/391/391 392/392/392
f 392/392/392 393/393/393 390/390/390
f 394/394/394 395/395/395 396/396/396
f 396/396/396 397/397/397 394/394/394
f 398/398/398 399/399/399 400/400/400
f 400/400/400 401/401/401 398/398/398
f 402/402/402 403/403/403 404/404/404
f 404/404/404 405/405/405 402/402/402
f 406/406/406 407/407/407 408/408/408
f 408/408/408 409/409/409 406/406/406
f 410/410/410 411/411/411 412/412/412
f 412/412/412 413/413/413 410/410/410
f 414/414/414 415/415/415 416/416/416
f 416/416/416 417/417/417 414/414/414
f 418/418/418 419/419/419 420/420/420
f 420/420/420 421/421/421 418/418/418
f 422/422/422 423/423/423 424/424/424
f 424/424/424 425/425/425 422/422/422
f 426/426/426 427/427/427 428/428/428
f 428/428/428 429/429/429 426/426/426
f 430/430/430 431/431/431 432/432/432
f 432/432/432 433/433/433 430/430/430
f 434/434/434 435/435/435 436/436/436
f 436/436/436 437/437/437 434/434/434
f 438/438/438 439/439/439 440/440/440
f 440/440/440 441/441/441 438/438/438
f 442/442/442 443/443/443 444/444/444
f 444/444/444 445/445/445 442/442/442
f 446/446/446 447/447/447 448/448/448
f 448/448/448 449/449/449 446/446/446
f 450/450/450 451/451/451 452/452/452
f 452/452/452 453/453/453 450/450/450
f 454/454/454 455/455/455 456/456/456
f 456/456/456 457/457/457 454/454/454
f 458/458/458 459/459/459 460/460/460
f 460/460/460 461/461/461 458/458/458
f 462/462/462 463/463/463 464/464/464
f 464/464/464 465/465/465 462/462/462
f 466/466/466 467/467/467 468/468/468
f 467/467/467 469/469/469 468/468/468
f 469/469/469 470/470/470 468/468/468
f 471/471/471 472/472/472 473/473/473
f 473/473/473 474/474/474 471/471/471
f 474/474/474 473/473/473 475/475/475
f 475/475/475 476/476/476 474/474/474
f 477/477/477 476/476/476 475/475/475
f 475/475/475 478/478/478 477/477/477
f 479/479/479 477/477/477 478/478/478
f 478/478/478 480/480/480 479/479/479
f 481/481/481 482/482/482 483/483/483
f 483/483/483 484/484/484 481/481/481
f 484/484/484 483/483/483 485/485/485
f 485/485/485 486/486/486 484/484/484
f 486/486/486 485/485/485 487/487/487
f 487/487/487 488/488/488 486/486/486
f 489/489/489 488/488/488 487/487/487
f 487/487/487 490/490/490 489/489/489
f 491/491/491 492/492/492 493/493/493
f 493/493/493 494/494/494 491/491/491
f 493/493/493 495/495/495 494/494/494
f 496/496/496 497/497/497 498/498/498
f 498/498/498 499/499/499 496/496/496
f 499/499/499 498/498/498 500/500/500
f 501/501/501 502/502/502 503/503/503
f 503/503/503 504/504/504 501/501/501
f 504/504/504 503/503/503 505/505/505
f 505/505/505 506/506/506 504/504/504
f 507/507/507 508/508/508 509/509/509
f 508/508/508 510/510/510 509/509/509
f 510/510/510 511/511/511 509/509/509
f 512/512/512 513/513/513 514/514/514
f 514/514/514 515/515/515 512/512/512
f 515/515/515 514/514/514 516/516/516
f 516/516/516 517/517/517 515/515/515
f 518/518/518 519/519/519 520/520/520
f 520/520/520 521/521/521 518/518/518
f 521/521/521 520/520/520 522/522/522
f 522/522/522 523/523/523 521/521/521
f 524/524/524 525/525/525 526/526/526
f 526/526/526 527/527/527 524/524/524
f 527/527/527 526/526/526 528/528/528
f 528/528/528 529/529/529 527/527/527
f 530/530/530 531/531/531 532/532/532
f 532/532/532 533/533/533 530/530/530
f 533/533/533 532/532/532 534/534/534
f 534/534/534 535/535/535 533/533/533
f 536/536/536 537/537/537 538/538/538
f 538/538/538 539/539/539 536/536/536
f 539/539/539 538/538/538 540/540/540
f 540/540/540 541/541/541 539/539/539
f 542/542/542 543/543/543 544/544/544
f 544/544/544 545/545/545 542/542/542
f 545/545/545 544/544/544 546/546/546
f 545/545/545 546/546/546 547/547/547
f 547/547/547 548/548/548 545/545/545
f 548/548/548 547/547/547 549/549/549
f 548/548/548 549/549/549 550/550/550
f 550/550/550 551/551/551 548/548/548
f 552/552/552 553/553/553 554/554/554
f 554/554/554 555/555/555 552/552/552
f 556/556/556 552/552/552 555/555/555
f 555/555/555 557/557/557 556/556/556
f 558/558/558 559/559/559 560/560/560
f 560/560/560 561/561/561 558/558/558
f 562/562/562 558/558/558 561/561/561
f 561/561/561 563/563/563 562/562/562
f 564/564/564 565/565/565 566/566/566
f 566/566/566 567/567/567 564/564/564
f 568/568/568 564/564/564 567/567/567
f 567/567/567 569/569/569 568/568/568
f 570/570/570 571/571/571 572/572/572
f 573/573/573 571/571/571 570/570/570
f 570/570/570 574/574/574 573/573/573
f 575/575/575 576/576/576 577/577/577
f 577/577/577 578/578/578 575/575/575
f 579/579/579 575/575/575 578/578/578
f 578/578/578 580/580/580 579/579/579
f 581/581/581 582/582/582 583/583/583
f 583/583/583 584/584/584 581/581/581
f 585/585/585 581/581/581 584/584/584
f 584/584/584 586/586/586 585/585/585
f 587/587/587 588/588/588 589/589/589
f 590/590/590 587/587/587 589/589/589
f 590/590/590 591/591/591 587/587/587
f 590/590/590 592/592/592 591/591/591
f 590/590/590 593/593/593 592/592/592
f 594/594/594 595/595/595 596/596/596
f 597/597/597 596/596/596 595/595/595
f 595/595/595 598/598/598 597/597/597
f 599/599/599 600/600/600 601/601/601
f 599/599/599 602/602/602 600/600/600
f 603/603/603 600/600/600 602/602/602
f 602/602/602 604/604/604 603/603/603
f 605/605/605 606/606/606 607/607/607
f 607/607/607 608/608/608 605/605/605
f 609/609/609 605/605/605 608/608/608
f 610/610/610 611/611/611 612/612/612
f 612/612/612 613/613/613 610/610/610
f 614/614/614 613/613/613 612/612/612
f 612/612/612 615/615/615 614/614/614
f 616/616/616 617/617/617 618/618/618
f 618/618/618 619/619/619 616/616/616
f 620/620/620 619/619/619 618/618/618
f 618/618/618 621/621/621 620/620/620
f 622/622/622 623/623/623 624/624/624
f 624/624/624 625/625/625 622/622/622
f 626/626/626 625/625/625 624/624/624
f 624/624/624 627/627/627 626/626/626
f 628/628/628 629/629/629 630/630/630
f 629/629/629 628/628/628 631/631/631
f 632/632/632 631/631/631 628/628/628
f 628/628/628 633/633/633 632/632/632
f 634/634/634 635/635/635 636/636/636
f 634/634/634 636/636/636 637/637/637
f 638/638/638 639/639/639 637/637/637
f 640/640/640 638/638/638 637/637/637
f 636/636/636 640/640/640 637/637/637
f 636/636/636 641/641/641 640/640/640
f 641/641/641 642/642/642 640/640/640
f 643/643/643 644/644/644 645/645/645
f 645/645/645 646/646/646 643/643/643
f 643/643/643 646/646/646 647/647/647
f 647/647/647 648/648/648 643/643/643
f 649/649/649 650/650/650 651/651/651
f 651/651/651 652/652/652 649/649/649
f 649/649/649 652/652/652 653/653/653
f 653/653/653 654/654/654 649/649/649
f 655/655/655 656/656/656 657/657/657
f 658/658/658 655/655/655 657/657/657
f 658/658/658 657/657/657 659/659/659
f 660/660/660 658/658/658 659/659/659
f 657/657/657 661/661/661 659/659/659
f 661/661/661 662/662/662 659/659/659
f 663/663/663 664/664/664 665/665/665
f 665/665/665 666/666/666 663/663/663
f 667/667/667 666/666/666 665/665/665
f 665/665/665 668/668/668 667/667/667
f 669/669/669 670/670/670 671/671/671
f 671/671/671 672/672/672 669/669/669
f 673/673/673 669/669/669 672/672/672
f 672/672/672 671/671/671 674/674/674
f 672/672/672 675/675/675 673/673/673
f 674/674/674 676/676/676 672/672/672
f 675/675/675 672/672/672 676/676/676
f 676/676/676 677/677/677 675/675/675
f 678/678/678 679/679/679 680/680/680
f 680/680/680 681/681/681 678/678/678
f 681/681/681 680/680/680 682/682/682
f 683/683/683 678/678/678 681/681/681
f 682/682/682 684/684/684 681/681/681
f 681/681/681 685/685/685 683/683/683
f 681/681/681 684/684/684 686/686/686
f 686/686/686 685/685/685 681/681/681
f 687/687/687 688/688/688 689/689/689
f 690/690/690 687/687/687 689/689/689
f 691/691/691 690/690/690 689/689/689
f 691/691/691 692/692/692 690/690/690
f 690/690/690 693/693/693 687/687/687
f 694/694/694 693/693/693 690/690/690
f 690/690/690 695/695/695 694/694/694
f 696/696/696 697/697/697 698/698/698
f 698/698/698 699/699/699 696/696/696
f 699/699/699 698/698/698 700/700/700
f 701/701/701 696/696/696 699/699/699
f 700/700/700 702/702/702 699/699/699
f 699/699/699 703/703/703 701/701/701
f 699/699/699 702/702/702 704/704/704
f 704/704/704 703/703/703 699/699/699
f 705/705/705 706/706/706 707/707/707
f 706/706/706 708/708/708 707/707/707
f 708/708/708 709/709/709 707/707/707
f 709/709/709 710/710/710 707/707/707
f 710/710/710 711/711/711 707/707/707
f 712/712/712 713/713/713 714/714/714
f 713/713/713 715/715/715 714/714/714
f 715/715/715 716/716/716 714/714/714
f 716/716/716 717/717/717 714/714/714
f 717/717/717 718/718/718 714/714/714
f 719/719/719 720/720/720 721/721/721
f 722/722/722 723/723/723 719/719/719
f 721/721/721 724/724/724 719/719/719
f 719/719/719 724/724/724 722/722/722
f 724/724/724 721/721/721 725/725/725
f 726/726/726 722/722/722 724/724/724
f 725/725/725 727/727/727 724/724/724
f 724/724/724 727/727/727 726/726/726
f 727/727/727 725/725/725 728/728/728
f 729/729/729 726/726/726 727/727/727
f 728/728/728 730/730/730 727/727/727
f 727/727/727 730/730/730 729/729/729
f 731/731/731 732/732/732 733/733/733
f 733/733/733 734/734/734 735/735/735
f 733/733/733 736/736/736 731/731/731
f 735/735/735 736/736/736 733/733/733
f 737/737/737 731/731/731 736/736/736
f 736/736/736 735/735/735 738/738/738
f 736/736/736 739/739/739 737/737/737
f 738/738/738 739/739/739 736/736/736
f 740/740/740 737/737/737 739/739/739
f 739/739/739 738/738/738 741/741/741
f 739/739/739 742/742/742 740/740/740
f 741/741/741 742/742/742 739/739/739
f 743/743/743 744/744/744 745/745/745
f 745/745/745 746/746/746 743/743/743
f 745/745/745 744/744/744 747/747/747
f 748/748/748 746/746/746 745/745/745
f 747/747/747 749/749/749 745/745/745
f 745/745/745 750/750/750 748/748/748
f 745/745/745 749/749/749 751/751/751
f 751/751/751 750/750/750 745/745/745
