v 0.5760936 -0.03703589999999993 1.2460266
v 0.5760936 -0.037035899999999934 1.1113704
v 0.5760936 -0.16462979999999994 1.1113704
v -0.09137250000000001 -0.03720959999999992 1.3640589
v -0.09137250000000001 0.0755343000000001 1.3655925
v -0.09137250000000001 0.6042771000000001 1.3655925
v -0.09137250000000001 0.7204050000000001 1.4623641
v -0.09137250000000001 0.7204572000000001 1.2460266
v -0.0914886 0.6869781000000001 1.2460274999999998
v 0.5740335000000001 -0.03719069999999992 1.3659264
v -0.09137250000000001 -0.03720959999999993 1.1113704
v 0.5760936 -0.03703589999999993 1.2460266
v 0.7314687 -1.0299996 1.2460274999999998
v 0.7314687 -1.1028069 1.1113713
v 0.7314687 -1.1028069 1.3432095000000002
v -0.2811474 -1.1028069 1.3432095000000002
v -0.28138230000000003 -1.1028069 1.1113713
v -0.28138230000000003 -1.0299996 1.2460274999999998
v 0.5440419 0.7204050000000001 1.3655925
v 0.41649660000000005 0.7204050000000001 1.3655925
v 0.4802697 0.7204050000000001 1.4146722
v 0.47994570000000003 -1.1366622 1.2951072000000001
v 0.4116276 -1.1366622 1.2460266
v 0.5436315 -1.1366622 1.2460266
v 0.2252916 -1.1366622 1.2951072000000001
v 0.16164270000000003 -1.1366622 1.2460266
v 0.2889414 -1.1366622 1.2460266
v -0.0293913 -1.1366622 1.2951072000000001
v -0.09307080000000001 -1.1366622 1.2460266
v 0.0342873 -1.1366622 1.2460266
v -0.0293913 -1.1366622 1.2951072000000001
v 0.0342405 -1.1028069 1.2460274999999998
v -0.093087 -1.1028069 1.2460274999999998
v 0.2252916 -1.1366622 1.2951072000000001
v 0.2889585 -1.1028069 1.2460274999999998
v 0.16157159999999998 -1.1028069 1.2460274999999998
v 0.4166082 0.6871662000000002 1.3655925
v 0.544095 0.6871662000000002 1.3655925
v 0.4802697 0.7204050000000001 1.4146722
v 0.1614105 0.6871662000000002 1.3655925
v 0.2891457 0.6871662000000002 1.3655925
v 0.2252781 0.7204050000000001 1.4146722
v 0.4112415 -1.1028069 1.2460274999999998
v 0.47994570000000003 -1.1366622 1.2951072000000001
v 0.5436396 -1.1028069 1.2460274999999998
v 0.288927 0.7204050000000001 1.3655916
v 0.1616292 0.7204050000000001 1.3655916
v 0.2252781 0.7204050000000001 1.4146722
v 0.5436315 -1.1366622 1.2460266
v 0.5436396 -1.1028069 1.2460274999999998
v 0.47994570000000003 -1.1366622 1.2951072000000001
v -0.093087 -1.1028069 1.2460274999999998
v -0.09307080000000001 -1.1366622 1.2460266
v -0.0293913 -1.1366622 1.2951072000000001
v 0.544095 0.6871662000000002 1.3655925
v 0.5440419 0.7204050000000001 1.3655925
v 0.4802697 0.7204050000000001 1.4146722
v 0.2891457 0.6871662000000002 1.3655925
v 0.288927 0.7204050000000001 1.3655916
v 0.2252781 0.7204050000000001 1.4146722
v 0.16157159999999998 -1.1028069 1.2460274999999998
v 0.16164270000000003 -1.1366622 1.2460266
v 0.2252916 -1.1366622 1.2951072000000001
v 0.47994570000000003 -1.1366622 1.2951072000000001
v 0.4112415 -1.1028069 1.2460274999999998
v 0.4116276 -1.1366622 1.2460266
v -0.0293913 -1.1366622 1.2951072000000001
v 0.0342873 -1.1366622 1.2460266
v 0.0342405 -1.1028069 1.2460274999999998
v 0.4802697 0.7204050000000001 1.4146722
v 0.41649660000000005 0.7204050000000001 1.3655925
v 0.4166082 0.6871662000000002 1.3655925
v 0.2252781 0.7204050000000001 1.4146722
v 0.1616292 0.7204050000000001 1.3655916
v 0.1614105 0.6871662000000002 1.3655925
v 0.2252916 -1.1366622 1.2951072000000001
v 0.2889414 -1.1366622 1.2460266
v 0.2889585 -1.1028069 1.2460274999999998
v 0.8421605999999999 0.04105440000000006 0.9914166000000001
v 0.8421605999999999 0.04105440000000006 0.9914166000000001
v 0.8421605999999999 0.04105440000000003 0.5515424999999999
v 0.8421605999999999 0.04105440000000006 0.9914166000000001
v 0.8421605999999999 0.04105440000000003 0.5515424999999999
v 0.8421605999999999 0.04105440000000003 0.5515424999999999
v -0.3113604 0.7204050000000001 1.1327058
v 0.7612227 0.7204050000000001 1.1327058
v 0.7316001 0.6869052000000001 1.0806003
v 0.7316001 0.6869052000000001 1.0806003
v -0.28162260000000006 0.6870060000000001 1.0835586
v -0.3113604 0.7204050000000001 1.1327058
v -0.7214301 -0.06346349999999995 0.829575
v -0.2815974 0.0008442000000000509 0.829575
v -0.28395000000000004 0.03792960000000005 0.829503
v 0.7314687 -1.1028069 1.1113713
v 0.7189461 0.6869781000000001 1.1264616
v -0.2816163 0.6870303000000001 1.1113722000000001
v -0.2816163 0.6870303000000001 1.1113722000000001
v -0.28138230000000003 -1.1028069 1.1113713
v 0.7314687 -1.1028069 1.1113713
v -0.8221158000000001 0.16407359999999999 0.00088469999999999
v -0.818883 0.0414396 0.0008846999999999974
v -0.8042678999999999 0.03959280000000002 0.1602468
v -0.7426035000000001 0.03958740000000001 0.16024410000000003
v -0.728847 0.0414396 0.0008846999999999974
v -0.7357149000000001 0.1732509 0.0008846999999999895
v -0.7410258000000001 -0.9526842 0.0008847000000000583
v -0.7442577 -0.8300493 0.0008847000000000507
v -0.7588737 -0.8282025 0.16024680000000005
v -0.8205381 -0.8281980000000001 0.16024410000000006
v -0.8342937 -0.8300493 0.0008847000000000507
v -0.8274258 -0.9618615 0.0008847000000000589
v -0.7214301 -0.06346349999999995 0.7846479000000001
v -0.7214301 -0.06346349999999995 0.829575
v -0.7223013 -0.7228160999999999 0.829575
v -0.7223013 -0.7228160999999999 0.829575
v -0.7223013 -0.7228134 0.7846479000000001
v -0.7214301 -0.06346349999999995 0.7846479000000001
v -0.3113514 -1.0301733 1.2460266
v -0.2816163 0.6870303000000001 1.2460274999999998
v -0.3113514 -1.0301733 1.2460266
v -0.00099 0.7201809000000001 1.3655925
v -0.09137250000000001 0.7204050000000001 1.4623641
v -0.09137250000000001 0.7204050000000001 1.4627745
v -0.09137250000000001 0.6042771000000001 1.3655925
v -0.061160400000000004 0.6042465000000001 1.3655925
v -0.061160400000000004 0.6871662000000002 1.4627745
v -0.28162260000000006 0.6870060000000001 1.0835586
v -0.2815974 -1.1028069 1.0812888
v -0.3113595 -1.1366622 1.1327058
v -0.3113595 -1.1366622 1.1327058
v -0.3113604 0.7204050000000001 1.1327058
v -0.28162260000000006 0.6870060000000001 1.0835586
v 0.7612227 -1.1366622 1.1327058
v -0.3113595 -1.1366622 1.1327058
v -0.2815974 -1.1028069 1.0812888
v -0.2815974 -1.1028069 1.0812888
v 0.7316001 -1.1028069 1.0806003
v 0.7612227 -1.1366622 1.1327058
v 0.7314687 -1.1028069 1.3432095000000002
v 0.7612227 -1.1366622 1.3432086
v 0.7612227 -1.0301733 1.2460266
v 0.7612227 -1.0301733 1.2460266
v 0.7314687 -1.0299996 1.2460274999999998
v 0.7314687 -1.1028069 1.3432095000000002
v 0.8421605999999999 0.04105440000000006 0.9914166000000001
v 0.8421605999999999 0.04105440000000003 0.5515424999999999
v 0.8421605999999999 0.6070491000000001 0.9914166000000001
v 0.8421605999999999 0.6070491 0.5515424999999999
v 0.8421605999999999 0.6070491000000001 0.9914166000000001
v 0.8421605999999999 0.6070491000000001 0.9914166000000001
v 0.8421605999999999 0.6070491 0.5515424999999999
v 0.8421605999999999 0.6070491000000001 0.9914166000000001
v 0.8421605999999999 0.6070491 0.5515424999999999
v -0.3113514 -1.0301733 1.2460266
v -0.28138230000000003 -1.0299996 1.2460274999999998
v -0.2816163 0.6870303000000001 1.2460274999999998
v -0.3113604 0.7204824000000002 1.2460266
v -0.3113514 -1.0301733 1.2460266
v -0.3523986 -1.0832715 0.0008847000000000663
v -0.2681235 -1.1846169 0.0008847000000000725
v -0.26770770000000005 -1.1590524 0.14346000000000006
v -0.26770770000000005 -1.1590524 0.14346000000000006
v -0.33107040000000004 -1.0846782 0.14346090000000006
v -0.26770770000000005 -1.1590524 0.14346000000000006
v -0.2799045 -1.100655 0.24512490000000006
v -0.2799045 -1.100655 0.24512490000000006
v -0.268983 -1.0231659000000002 0.13994190000000006
v -0.27210690000000004 -1.0031400000000001 0.0008847000000000615
v -0.3523986 -1.0832715 0.0008847000000000663
v -0.3523986 -1.0832715 0.0008847000000000663
v -0.33107040000000004 -1.0846782 0.14346090000000006
v 0.7314660000000001 -0.03192389999999992 1.3659273
v 0.7612227 -0.031942799999999924 1.3659264
v 0.7612227 0.6038964000000001 1.3655925
v 0.7314669 0.6038955000000001 1.3655925
v 0.7314660000000001 -0.03192389999999992 1.3659273
v 0.5760936 -0.03703589999999993 1.2460266
v 0.5760936 -0.004612499999999924 1.2434211
v 0.5738814000000001 -0.004612499999999917 1.3659264
v 0.5738814000000001 -0.004612499999999917 1.3659264
v 0.5740335000000001 -0.03719069999999992 1.3659264
v -0.2811474 -1.1028069 1.3432095000000002
v -0.28138230000000003 -1.0299996 1.2460274999999998
v -0.3113514 -1.0301733 1.2460266
v -0.3113514 -1.0301733 1.2460266
v -0.3113595 -1.1366622 1.3432086
v -0.3113514 -1.0301733 1.2460266
v 0.11848679999999999 1.2108942 0.7724186999999999
v 0.1525977 1.090251 0.0008846999999999332
v 0.160326 1.0814364 0.0008846999999999338
v 0.1262151 1.2020796 0.7724186999999999
v 0.11848679999999999 1.2108942 0.7724186999999999
v 0.1262151 1.2020796 0.7724186999999999
v 0.160326 1.0814364 0.0008846999999999338
v 0.16805430000000002 1.090251 0.0008846999999999332
v 0.16805430000000002 1.090251 0.0008846999999999332
v 0.13394340000000002 1.2108942 0.7724186999999999
v 0.13394340000000002 1.2108942 0.7724186999999999
v 0.16805430000000002 1.090251 0.0008846999999999332
v 0.160326 1.0990656 0.0008846999999999327
v 0.160326 1.0990656 0.0008846999999999327
v 0.126216 1.2197088 0.7724186999999999
v 0.6754941 1.2189069000000001 0.7724186999999999
v 0.6156351 1.1051163000000002 0.0008846999999999322
v 0.6233634 1.0963017 0.0008846999999999329
v 0.6832224 1.2100923 0.7724186999999999
v 0.6754941 1.2189069000000001 0.7724186999999999
v 0.6832224 1.2100923 0.7724186999999999
v 0.6233634 1.0963017 0.0008846999999999329
v 0.6310917 1.1051163000000002 0.0008846999999999322
v 0.6310917 1.1051163000000002 0.0008846999999999322
v 0.6909516 1.2189069000000001 0.7724186999999999
v 0.6909516 1.2189069000000001 0.7724186999999999
v 0.6310917 1.1051163000000002 0.0008846999999999322
v 0.6233643 1.11393 0.0008846999999999317
v 0.6233643 1.11393 0.0008846999999999317
v 0.6832233 1.2277215000000001 0.7724186999999999
v -0.09137250000000001 -0.03720959999999993 1.1113704
v 0.5760936 -0.037035899999999934 1.1113704
v 0.5760936 -0.03703589999999993 1.2460266
v 0.5740335000000001 -0.03719069999999992 1.3659264
v 0.021369600000000002 -0.03720959999999992 1.3655925
v -0.09137250000000001 -0.03720959999999992 1.3640589
v -0.09137250000000001 -0.03720959999999991 1.4627745
v -0.2681235 -1.1846169 0.0008847000000000725
v -0.18204840000000003 -1.0968336 0.0008847000000000671
v -0.2070108 -1.0958202000000001 0.13994550000000008
v -0.2799045 -1.100655 0.24512490000000006
v -0.26770770000000005 -1.1590524 0.14346000000000006
v -0.2681235 -1.1846169 0.0008847000000000725
v -0.09137250000000001 -0.03720959999999992 1.3640589
v -0.09137250000000001 -0.03720959999999991 1.4627745
v -0.09137250000000001 0.0755343000000001 1.3655925
v -0.09154620000000001 0.6869781000000001 1.108224
v -0.09137250000000001 -0.03720959999999993 1.1113704
v -0.0914886 0.6869781000000001 1.2460274999999998
v -0.09137250000000001 0.6042771000000001 1.3655925
v -0.09137250000000001 0.7204050000000001 1.4623641
v -0.09137250000000001 0.7201620000000001 1.4627205
v -0.09137250000000001 0.7204050000000001 1.4627745
v 0.6170895000000001 -1.2798135000000002 0.9713799
v -0.1834695 -1.2798135000000002 0.971379
v -0.1913454 -1.2731877 0.6480396000000002
v 0.6168096 -1.2731877 0.6480396000000002
v -0.1834695 -1.2798135000000002 0.971379
v -0.1973331 -1.09728 1.0378782
v -0.19084230000000002 -1.0973565 0.5539086000000001
v -0.1913454 -1.2731877 0.6480396000000002
v 0.6170895000000001 -1.2798135000000002 0.9713799
v 0.6168096 -1.2731877 0.6480396000000002
v 0.6168096 -1.0973565 0.5539086000000001
v 0.6287445 -1.09728 1.0378782
v 0.6170895000000001 -1.2798135000000002 0.9713799
v 0.6287445 -1.09728 1.0378782
v -0.1993347 -1.09728 1.0378782
v -0.1834695 -1.2798135000000002 0.971379
v -0.2815974 -0.7106481 0.7846479000000001
v -0.2815974 0.0008442000000000481 0.7846479000000001
v -0.7214301 -0.06346349999999995 0.7846479000000001
v -0.7223013 -0.7228134 0.7846479000000001
v 0.8421605999999999 0.6070491000000001 0.9914166000000001
v 0.8421605999999999 0.6070491 0.5515424999999999
v 0.7250328 0.6070491000000001 1.0579158
v 0.7250328 0.6070491 0.5525991
v -0.8221158000000001 0.16407359999999999 0.00088469999999999
v -0.8042678999999999 0.03959280000000002 0.1602468
v -0.7426035000000001 0.03958740000000001 0.16024410000000003
v -0.7357149000000001 0.1732509 0.0008846999999999895
v -0.7410258000000001 -0.9526842 0.0008847000000000583
v -0.7588737 -0.8282025 0.16024680000000005
v -0.8205381 -0.8281980000000001 0.16024410000000006
v -0.8274258 -0.9618615 0.0008847000000000589
v -0.7780527 -0.7921916999999999 0.829575
v -0.7780527 -0.005305499999999949 0.829575
v -0.8457975000000001 0.06145199999999999 0.0008846999999999963
v -0.8596323 -0.8717364000000001 0.0008847000000000534
v 0.7956018 -0.005750999999999991 0.14556149999999998
v 0.853542 0.0031734000000000003 0.0008846999999999998
v 0.730908 -0.00005939999999999996 0.0008847
v 0.7290612000000001 -0.014674499999999991 0.1602468
v 0.8001882 -0.0797832 0.1455597
v 0.7290557999999999 -0.07633889999999999 0.16024410000000003
v 0.730908 -0.0900954 0.0008847000000000054
v 0.8627193000000001 -0.08322750000000001 0.0008847000000000051
v 0.5760936 -0.16462979999999994 1.1113704
v 0.7314678 -0.16462979999999994 1.1113713
v 0.7314678 -0.03703589999999993 1.2460266
v 0.5760936 -0.03703589999999993 1.2460266
v 0.8421605999999999 0.04105440000000006 0.9914166000000001
v 0.7250328 0.04105440000000006 1.0579158
v 0.7250328 0.04105440000000003 0.5525991
v 0.8421605999999999 0.04105440000000003 0.5515424999999999
v -0.1440459 0.6927606000000001 0.18182429999999997
v 0.031278600000000004 0.6927561 0.18182339999999997
v 0.031278600000000004 0.9144108 0.08021969999999995
v -0.1440459 0.9144108 0.08021969999999995
v 0.7482627000000001 -1.1227293 -0.0004913999999999313
v 0.729819 0.6918903 -0.0004914000000000424
v 0.7316001 0.6869052000000001 1.0806003
v 0.7316001 -1.1028069 1.0806003
v -0.2815974 -0.7106481 0.7846479000000001
v -0.7223013 -0.7228134 0.7846479000000001
v -0.7223013 -0.7228160999999999 0.829575
v -0.2815974 -0.7106480999999999 0.829575
v -0.2815974 -0.8221914 0.0008847000000000503
v -0.2824551 -0.7488324 0.829575
v -0.7780527 -0.7921916999999999 0.829575
v -0.8596323 -0.8717364000000001 0.0008847000000000534
v -0.7214301 -0.06346349999999995 0.7846479000000001
v -0.2815974 0.0008442000000000481 0.7846479000000001
v -0.2815974 0.0008442000000000509 0.829575
v -0.7214301 -0.06346349999999995 0.829575
v -0.2815974 -1.1028069 1.0812888
v -0.28162260000000006 0.6870060000000001 1.0835586
v -0.2890836 0.6950313 0.0008846999999999574
v -0.2815974 -1.1028069 0.0008847000000000675
v -0.09154620000000001 0.6869781000000001 1.108224
v -0.0914886 0.6869781000000001 1.2460274999999998
v -0.2816163 0.6870303000000001 1.2460274999999998
v -0.2816163 0.6870303000000001 1.1113722000000001
v -0.2816163 0.6870303000000001 1.2460274999999998
v -0.0914886 0.6869781000000001 1.2460274999999998
v -0.09137250000000001 0.7204572000000001 1.2460266
v -0.3113604 0.7204824000000002 1.2460266
v -0.2890836 0.6950313 -0.0004914000000000426
v -0.28162260000000006 0.6870060000000001 1.0835586
v 0.7316001 0.6869052000000001 1.0806003
v 0.729819 0.6918903 -0.0004914000000000424
v -0.0307098 -1.0320677999999999 0.007390800000000063
v -0.0307098 -1.1658743999999999 0.007893000000000072
v 0.21926520000000002 -1.1658743999999999 0.007893000000000072
v 0.21926520000000002 -1.0320714 0.007391700000000063
v -0.2815974 -1.1028069 1.0812888
v -0.2815974 -1.1028069 -0.0004913999999999326
v 0.7482627000000001 -1.1227293 -0.0004913999999999313
v 0.7316001 -1.1028069 1.0806003
v 0.8599806 0.02571750000000006 0.9864594
v 0.8599806 0.6223869000000001 0.9864585000000001
v 0.7250328 0.6223869000000001 1.064727
v 0.7250328 0.025717500000000067 1.064727
v -0.00099 0.7201809000000001 1.3655925
v -0.09137250000000001 0.7204050000000001 1.4627745
v -0.061160400000000004 0.6871662000000002 1.4627745
v -0.0010917000000000001 0.6872661000000001 1.3655925
v -0.061160400000000004 -0.004612499999999911 1.4627745
v -0.061160400000000004 0.07570980000000009 1.3655925
v -0.09137250000000001 0.0755343000000001 1.3655925
v -0.09137250000000001 -0.03720959999999991 1.4627745
v -0.09137250000000001 0.6042771000000001 1.3655925
v -0.061160400000000004 0.6871662000000002 1.4627745
v -0.09137250000000001 0.7201620000000001 1.4627205
v -0.09137250000000001 0.7204050000000001 1.4627745
v 0.7314687 -1.1028069 1.3432095000000002
v 0.6709905 -1.1028069 1.2460274999999998
v 0.6709671 -1.1366622 1.2460266
v 0.7612227 -1.1366622 1.3432086
v 0.6709671 -1.1366622 1.2460266
v 0.6709905 -1.1028069 1.2460274999999998
v -0.2204334 -1.1028069 1.2460274999999998
v -0.22041000000000002 -1.1366622 1.2460266
v -0.2811474 -1.1028069 1.3432095000000002
v -0.3113595 -1.1366622 1.3432086
v -0.22041000000000002 -1.1366622 1.2460266
v -0.2204334 -1.1028069 1.2460274999999998
v -0.00099 0.7201809000000001 1.3655925
v -0.0010917000000000001 0.6872661000000001 1.3655925
v 0.6715908 0.6871662000000002 1.3655925
v 0.6715782 0.7204050000000001 1.3655925
v 0.7314678 0.6871662000000002 1.4627745
v 0.7612227 0.7204050000000001 1.4627745
v 0.6715782 0.7204050000000001 1.3655925
v 0.6715908 0.6871662000000002 1.3655925
v 0.7314678 0.6871662000000002 1.2434211
v -0.061160400000000004 0.6871662000000002 1.243422
v -0.061160400000000004 -0.030169799999999927 1.2434211
v 0.7314678 -0.03703589999999993 1.2460266
v 0.7314678 -0.03703589999999993 1.2460266
v 0.7612227 -0.03720869999999992 1.2460266
v 0.7612227 -0.031942799999999924 1.3659264
v 0.7314660000000001 -0.03192389999999992 1.3659273
v 0.021484800000000002 -0.004612499999999917 1.3655925
v 0.021369600000000002 -0.03720959999999992 1.3655925
v 0.5740335000000001 -0.03719069999999992 1.3659264
v 0.5738814000000001 -0.004612499999999917 1.3659264
v 0.7612227 0.7204050000000001 1.1327058
v 0.7612227 -1.1366622 1.1327058
v 0.7316001 -1.1028069 1.0806003
v 0.7316001 0.6869052000000001 1.0806003
v 0.024944400000000002 0.6930162 0.5234832
v 0.0178281 0.6789591 0.21887189999999995
v 0.08866170000000001 0.8188875 0.21887189999999995
v 0.0815454 0.8048304000000001 0.5234832
v 0.0815454 0.8048304000000001 0.5234832
v 0.08866170000000001 0.8188875 0.21887189999999995
v 0.0178281 0.6789591 0.21887189999999995
v 0.024944400000000002 0.6930162 0.5234832
v -0.1440459 0.9144108 0.08021969999999995
v -0.1440459 0.876438 0.0008846999999999463
v -0.1440459 0.6527403 0.09843839999999997
v -0.1440459 0.6927606000000001 0.18182429999999997
v 0.031278600000000004 0.6927561 0.18182339999999997
v 0.031278600000000004 0.6527403 0.09843839999999997
v 0.031278600000000004 0.876438 0.0008846999999999463
v 0.031278600000000004 0.9144108 0.08021969999999995
v 0.031278600000000004 0.9144108 0.08021969999999995
v 0.031278600000000004 0.876438 0.0008846999999999463
v -0.1440459 0.876438 0.0008846999999999463
v -0.1440459 0.9144108 0.08021969999999995
v -0.061160400000000004 -0.004612499999999911 1.4627745
v -0.09137250000000001 -0.03720959999999991 1.4627745
v 0.021369600000000002 -0.03720959999999992 1.3655925
v 0.021484800000000002 -0.004612499999999917 1.3655925
v -0.061160400000000004 0.07570980000000009 1.3655925
v -0.061160400000000004 0.6042465000000001 1.3655925
v -0.09137250000000001 0.6042771000000001 1.3655925
v -0.09137250000000001 0.0755343000000001 1.3655925
v 0.7612227 0.6038964000000001 1.3655925
v 0.7612227 0.7204050000000001 1.4627745
v 0.7314678 0.6871662000000002 1.4627745
v 0.7314669 0.6038955000000001 1.3655925
v 0.7314687 -1.0299996 1.2460274999999998
v 0.7612227 -1.0301733 1.2460266
v 0.7612227 -0.03720869999999992 1.2460266
v 0.7314678 -0.03703589999999993 1.2460266
v 0.126216 1.2197088 0.7724186999999999
v 0.160326 1.0990656 0.0008846999999999327
v 0.1525977 1.090251 0.0008846999999999332
v 0.11848679999999999 1.2108942 0.7724186999999999
v 0.13394340000000002 1.2108942 0.7724186999999999
v 0.126216 1.2197088 0.7724186999999999
v 0.11848679999999999 1.2108942 0.7724186999999999
v 0.1262151 1.2020796 0.7724186999999999
v 0.6832233 1.2277215000000001 0.7724186999999999
v 0.6233643 1.11393 0.0008846999999999317
v 0.6156351 1.1051163000000002 0.0008846999999999322
v 0.6754941 1.2189069000000001 0.7724186999999999
v 0.6909516 1.2189069000000001 0.7724186999999999
v 0.6832233 1.2277215000000001 0.7724186999999999
v 0.6754941 1.2189069000000001 0.7724186999999999
v 0.6832224 1.2100923 0.7724186999999999
v 0.7314678 0.6871662000000002 1.4627745
v 0.7314678 0.6871662000000002 1.2434211
v 0.7314669 0.6038955000000001 1.3655925
v 0.7314678 -0.03703589999999993 1.2460266
v 0.7314660000000001 -0.03192389999999992 1.3659273
v -0.061160400000000004 0.6871662000000002 1.243422
v -0.061160400000000004 0.6871662000000002 1.4627745
v -0.061160400000000004 0.6042465000000001 1.3655925
v -0.061160400000000004 -0.004612499999999924 1.2434211
v -0.061160400000000004 0.07570980000000009 1.3655925
v -0.061160400000000004 -0.004612499999999911 1.4627745
v -0.061160400000000004 -0.004612499999999911 1.4627745
v 0.021484800000000002 -0.004612499999999917 1.3655925
v -0.061160400000000004 -0.004612499999999924 1.2434211
v 0.5738814000000001 -0.004612499999999917 1.3659264
v 0.5760936 -0.004612499999999924 1.2434211
v 0.7612227 -1.1366622 1.1327058
v 0.7612227 -1.1366622 1.3432086
v 0.6709671 -1.1366622 1.2460266
v -0.3113595 -1.1366622 1.1327058
v -0.22041000000000002 -1.1366622 1.2460266
v -0.3113595 -1.1366622 1.3432086
v 0.7612227 -1.0301733 1.2460266
v 0.7612227 -1.1366622 1.3432086
v 0.7612227 -1.1366622 1.1327058
v 0.7612227 -0.03720869999999992 1.2460266
v 0.7612227 0.7204050000000001 1.1327058
v 0.7612227 -0.031942799999999924 1.3659264
v 0.7612227 0.6038964000000001 1.3655925
v 0.7612227 0.7204050000000001 1.4627745
v -0.3113595 -1.1366622 1.1327058
v -0.3113595 -1.1366622 1.3432086
v -0.3113514 -1.0301733 1.2460266
v -0.3113604 0.7204050000000001 1.1327058
v -0.3113604 0.7204824000000002 1.2460266
v -0.2815974 0.1114713 0.0008846999999999932
v -0.8457975000000001 0.06145199999999999 0.0008846999999999963
v -0.7780527 -0.005305499999999949 0.829575
v -0.2816028 0.1110708 0.005406299999999993
v -0.28395000000000004 0.03792960000000005 0.829503
v -0.28395000000000004 0.03792960000000005 0.829503
v -0.7780527 -0.005305499999999949 0.829575
v -0.7214301 -0.06346349999999995 0.829575
v -0.7780527 -0.7921916999999999 0.829575
v -0.7223013 -0.7228160999999999 0.829575
v -0.2824551 -0.7488324 0.829575
v -0.2815974 -0.7106480999999999 0.829575
v 0.7314678 -0.03703589999999993 1.2460266
v 0.7314678 -0.037035899999999934 1.1162538000000002
v 0.7314678 -0.12836249999999993 1.1120589
v 0.7314687 -1.0299996 1.2460274999999998
v 0.7314687 -1.1028069 1.1113713
v -0.28138230000000003 -1.0299996 1.2460274999999998
v -0.28138230000000003 -1.1028069 1.1113713
v -0.2816163 0.6870303000000001 1.2460274999999998
v -0.2815209 -0.03494519999999993 1.1113722000000001
v -0.2816163 0.6870303000000001 1.1113722000000001
v 0.49756770000000006 -1.0976184 0.0008847000000000671
v 0.5310873 -1.2252267000000001 0.0008847000000000749
v 0.555867 -1.0989288 0.18583560000000007
v 0.6102000000000001 -1.2169287000000002 0.0008847000000000745
v 0.6123879 -1.0989333 0.1858905000000001
v 0.6573807 -1.0976184 0.0008847000000000671
v 0.7314678 0.6871662000000002 1.2434211
v 0.7314678 0.6871662000000002 1.4627745
v 0.6715908 0.6871662000000002 1.3655925
v -0.0010917000000000001 0.6872661000000001 1.3655925
v -0.061160400000000004 0.6871662000000002 1.243422
v -0.061160400000000004 0.6871662000000002 1.4627745
v 0.7314687 -1.1028069 1.3432095000000002
v 0.7314687 -1.1028069 1.1113713
v 0.6709905 -1.1028069 1.2460274999999998
v -0.2204334 -1.1028069 1.2460274999999998
v -0.28138230000000003 -1.1028069 1.1113713
v -0.2811474 -1.1028069 1.3432095000000002
v 0.7956018 -0.005750999999999991 0.14556149999999998
v 0.7290612000000001 -0.014674499999999991 0.1602468
v 0.7290557999999999 -0.07633889999999999 0.16024410000000003
v 0.8001882 -0.0797832 0.1455597
v 0.853542 0.0031734000000000003 0.0008846999999999998
v 0.8627193000000001 -0.08322750000000001 0.0008847000000000051
v 0.6715782 0.7204050000000001 1.3655925
v 0.7612227 0.7204050000000001 1.4627745
v 0.7612227 0.7204050000000001 1.1327058
v -0.00099 0.7201809000000001 1.3655925
v -0.09137250000000001 0.7204572000000001 1.2460266
v -0.09137250000000001 0.7204050000000001 1.4623641
v -0.3113604 0.7204050000000001 1.1327058
v -0.3113604 0.7204824000000002 1.2460266
v 0.48112289999999996 -0.5623649999999999 1.2421656
v 0.30111119999999997 -0.3165371999999999 1.2421656
v 0.3124872 -0.4355387999999999 1.3387347
v 0.1283814 -0.43772759999999994 1.3387347
v 0.22194000000000003 -0.5633333999999999 1.3783374
v 0.3714606 -0.6099587999999999 1.3387347
v 0.48112289999999996 -0.5623649999999999 1.2421656
v 0.0735705 -0.6134993999999999 1.3387347
v 0.2238021 -0.7199441999999999 1.3387347
v 0.3029535 -0.8095319999999999 1.2421656
v 0.012826800000000001 -0.7164611999999999 1.2421656
v 0.011687399999999999 -0.4117733999999999 1.2421656
v 0.1332558 -0.8477387999999999 1.1131685999999998
v -0.0169767 -0.7412948999999999 1.1131685999999998
v 0.3173616 -0.8455499999999999 1.1131685999999998
v -0.0759501 -0.5668749 1.1131685999999998
v 0.4650201 -0.7355645999999999 1.1131685999999998
v -0.0211392 -0.3911030999999999 1.1131685999999998
v 0.1265193 -0.28111769999999997 1.1131685999999998
v 0.519831 -0.5597927999999999 1.1131685999999998
v 0.3106251 -0.2789289 1.1131685999999998
v 0.4608576 -0.38537279999999996 1.1131685999999998
vt 0.046161 0.179874
vt 0.046161 0.213370
vt 0.027411 0.213370
vt 0.665124 0.113507
vt 0.680854 0.113507
vt 0.754645 0.113507
vt 0.770850 0.086366
vt 0.770850 0.146745
vt 0.766183 0.146745
vt 0.569506 0.114748
vt 0.660003 0.183957
vt 0.566853 0.147805
vt 0.533194 0.030388
vt 0.514404 0.010068
vt 0.546756 0.010068
vt 0.335533 0.010060
vt 0.367886 0.010068
vt 0.349094 0.030384
vt 0.919987 0.528771
vt 0.899741 0.528771
vt 0.909864 0.513052
vt 0.354495 0.552013
vt 0.366154 0.567702
vt 0.344385 0.567530
vt 0.394919 0.552013
vt 0.405022 0.567530
vt 0.384815 0.567530
vt 0.435347 0.552013
vt 0.445455 0.567530
vt 0.425239 0.567530
vt 0.187133 0.475703
vt 0.196013 0.489401
vt 0.178244 0.489401
vt 0.222673 0.475703
vt 0.231558 0.489401
vt 0.213781 0.489401
vt 0.665655 0.504359
vt 0.683446 0.504359
vt 0.674539 0.518057
vt 0.630043 0.504359
vt 0.647868 0.504359
vt 0.638955 0.518057
vt 0.248105 0.489401
vt 0.258210 0.475703
vt 0.267098 0.489401
vt 0.879491 0.528771
vt 0.859283 0.528771
vt 0.869388 0.513053
vt 0.338551 0.528521
vt 0.338551 0.514470
vt 0.348661 0.514470
vt 0.450180 0.514284
vt 0.450178 0.530188
vt 0.440070 0.514284
vt 0.922491 0.490596
vt 0.922482 0.504724
vt 0.912360 0.490596
vt 0.885715 0.489789
vt 0.885680 0.503915
vt 0.875578 0.489789
vt 0.411978 0.514284
vt 0.411968 0.529632
vt 0.401864 0.514284
vt 0.361441 0.514284
vt 0.372303 0.515656
vt 0.372376 0.530146
vt 0.431736 0.514284
vt 0.421627 0.529077
vt 0.421633 0.514284
vt 0.901496 0.489283
vt 0.891372 0.503419
vt 0.891389 0.489283
vt 0.863127 0.490856
vt 0.853023 0.504088
vt 0.852981 0.490856
vt 0.389362 0.514284
vt 0.379259 0.527966
vt 0.379255 0.514284
vt 0.989964 0.415884
vt 0.989960 0.431155
vt 0.928626 0.415886
vt 0.989960 0.431155
vt 0.928626 0.431156
vt 0.928626 0.415886
vt 0.784202 0.609936
vt 0.954462 0.609936
vt 0.949760 0.626479
vt 0.949760 0.626479
vt 0.788978 0.626378
vt 0.784202 0.609936
vt 0.210386 0.198206
vt 0.214619 0.053259
vt 0.220707 0.054739
vt 0.514404 0.010068
vt 0.514404 0.509703
vt 0.373009 0.509605
vt 0.373009 0.509605
vt 0.373063 0.010068
vt 0.514404 0.010068
vt 0.303708 0.211239
vt 0.285478 0.187872
vt 0.302471 0.138269
vt 0.327719 0.136073
vt 0.346869 0.182618
vt 0.328356 0.210669
vt 0.087957 0.179362
vt 0.076706 0.216365
vt 0.051511 0.183558
vt 0.050279 0.125293
vt 0.073093 0.085905
vt 0.087552 0.122259
vt 0.198573 0.179879
vt 0.204019 0.195776
vt 0.109392 0.195776
vt 0.109392 0.195776
vt 0.114102 0.179879
vt 0.198573 0.179879
vt 0.500480 0.557828
vt 0.775768 0.548349
vt 0.500480 0.557828
vt 0.814286 0.518329
vt 0.795932 0.521868
vt 0.795916 0.521850
vt 0.702045 0.076745
vt 0.696070 0.070027
vt 0.713244 0.072722
vt 0.775798 0.626115
vt 0.488841 0.626268
vt 0.483413 0.609561
vt 0.483413 0.609561
vt 0.781119 0.609561
vt 0.775798 0.626115
vt 0.315356 0.610938
vt 0.480106 0.610938
vt 0.475322 0.627480
vt 0.475322 0.627480
vt 0.319633 0.627480
vt 0.315356 0.610938
vt 0.311736 0.499875
vt 0.312661 0.511601
vt 0.301463 0.505274
vt 0.301463 0.505274
vt 0.295598 0.496771
vt 0.311736 0.499875
vt 0.989964 0.415884
vt 0.928626 0.415886
vt 0.989963 0.257917
vt 0.928625 0.257919
vt 0.989963 0.257917
vt 0.989963 0.257917
vt 0.928625 0.244659
vt 0.989959 0.244658
vt 0.928625 0.244659
vt 0.500480 0.557828
vt 0.500509 0.548281
vt 0.775768 0.548349
vt 0.781131 0.557828
vt 0.500480 0.557828
vt 0.552571 0.534486
vt 0.520703 0.536377
vt 0.527471 0.494510
vt 0.527471 0.494510
vt 0.545315 0.493096
vt 0.527471 0.494510
vt 0.536236 0.461360
vt 0.536236 0.461360
vt 0.556411 0.479928
vt 0.568573 0.517303
vt 0.552571 0.534486
vt 0.552571 0.534486
vt 0.545315 0.493096
vt 0.130832 0.464064
vt 0.131864 0.470741
vt 0.026809 0.472917
vt 0.026809 0.463071
vt 0.130832 0.464064
vt 0.545176 0.099464
vt 0.545176 0.091223
vt 0.559853 0.091241
vt 0.559853 0.091241
vt 0.559892 0.099472
vt 0.480825 0.496228
vt 0.499219 0.493249
vt 0.499219 0.502968
vt 0.499219 0.502968
vt 0.479765 0.507724
vt 0.492529 0.501647
vt 0.979425 0.602054
vt 0.979425 0.840039
vt 0.977223 0.840039
vt 0.977223 0.602054
vt 0.979425 0.602054
vt 0.984249 0.602054
vt 0.984249 0.840039
vt 0.982484 0.840039
vt 0.982484 0.840039
vt 0.982484 0.602054
vt 0.982484 0.602054
vt 0.982484 0.840039
vt 0.981184 0.840039
vt 0.981184 0.840039
vt 0.981184 0.602054
vt 0.991188 0.601852
vt 0.991188 0.840039
vt 0.989294 0.840039
vt 0.989294 0.601852
vt 0.991188 0.601852
vt 0.996320 0.601852
vt 0.996320 0.840039
vt 0.994571 0.840039
vt 0.994571 0.840039
vt 0.994571 0.601852
vt 0.994571 0.601852
vt 0.994571 0.840039
vt 0.992933 0.840039
vt 0.992933 0.840039
vt 0.992933 0.601852
vt 0.660003 0.183957
vt 0.566853 0.183957
vt 0.566853 0.147805
vt 0.569506 0.114748
vt 0.644274 0.114190
vt 0.660003 0.114190
vt 0.660003 0.086935
vt 0.520703 0.536377
vt 0.503447 0.517385
vt 0.516521 0.480945
vt 0.536236 0.461360
vt 0.527471 0.494510
vt 0.520703 0.536377
vt 0.665124 0.113507
vt 0.665123 0.086253
vt 0.680854 0.113507
vt 0.768420 0.187721
vt 0.665124 0.183274
vt 0.766183 0.146745
vt 0.754645 0.113507
vt 0.770850 0.086366
vt 0.770816 0.086268
vt 0.770850 0.086253
vt 0.802714 0.071119
vt 0.914850 0.071119
vt 0.914813 0.163501
vt 0.802714 0.163501
vt 0.917892 0.071119
vt 0.943319 0.053723
vt 0.943240 0.189796
vt 0.918090 0.163501
vt 0.798905 0.071119
vt 0.798905 0.163501
vt 0.774238 0.189796
vt 0.774067 0.053723
vt 0.802580 0.064659
vt 0.802580 0.013841
vt 0.914806 0.013841
vt 0.914806 0.064659
vt 0.110688 0.038050
vt 0.202139 0.038050
vt 0.198772 0.151796
vt 0.113983 0.151882
vt 0.989959 0.244658
vt 0.928625 0.244659
vt 0.999239 0.211967
vt 0.928625 0.211969
vt 0.308373 0.210751
vt 0.307135 0.137780
vt 0.323138 0.136073
vt 0.323775 0.210669
vt 0.087957 0.165636
vt 0.051511 0.169832
vt 0.050279 0.137875
vt 0.087552 0.134841
vt 0.104009 0.222517
vt 0.213817 0.222517
vt 0.223133 0.453801
vt 0.092908 0.453801
vt 0.030189 0.127563
vt 0.003719 0.123600
vt 0.015443 0.087210
vt 0.040202 0.121315
vt 0.030229 0.174063
vt 0.041023 0.179631
vt 0.017706 0.217824
vt 0.003716 0.180717
vt 0.087480 0.059387
vt 0.071082 0.059525
vt 0.071083 0.001774
vt 0.087470 0.001776
vt 0.989960 0.431155
vt 0.999240 0.463844
vt 0.928626 0.463845
vt 0.928626 0.431156
vt 0.755450 0.279995
vt 0.780228 0.279993
vt 0.780230 0.348335
vt 0.755452 0.348336
vt 0.298342 0.982486
vt 0.008564 0.982486
vt 0.008565 0.632956
vt 0.298342 0.632956
vt 0.106744 0.027687
vt 0.106744 0.143596
vt 0.101096 0.157668
vt 0.101095 0.027687
vt 0.006201 0.453801
vt 0.006321 0.222517
vt 0.075480 0.222517
vt 0.086865 0.453801
vt 0.205854 0.142943
vt 0.205853 0.027219
vt 0.212082 0.027219
vt 0.212082 0.157169
vt 0.481357 0.633604
vt 0.768265 0.633604
vt 0.768265 0.980222
vt 0.481357 0.980222
vt 0.562366 0.036092
vt 0.562712 0.076858
vt 0.536264 0.076858
vt 0.536196 0.041502
vt 0.788924 0.548005
vt 0.819105 0.547996
vt 0.819123 0.558625
vt 0.784202 0.558625
vt 0.781502 0.976491
vt 0.781533 0.633815
vt 0.942276 0.633815
vt 0.942276 0.976491
vt 0.046101 0.519323
vt 0.046101 0.481720
vt 0.080984 0.481719
vt 0.080985 0.519322
vt 0.468023 0.634816
vt 0.468022 0.978255
vt 0.312443 0.977384
vt 0.312333 0.634816
vt 0.950332 0.197936
vt 0.950331 0.031408
vt 0.971448 0.031408
vt 0.971449 0.197936
vt 0.814286 0.518329
vt 0.795916 0.521850
vt 0.796812 0.510481
vt 0.807385 0.507599
vt 0.676147 0.072089
vt 0.686384 0.068246
vt 0.692997 0.077300
vt 0.675187 0.081096
vt 0.702045 0.076745
vt 0.713244 0.072722
vt 0.714230 0.082158
vt 0.714251 0.082175
vt 0.328652 0.498401
vt 0.338874 0.495415
vt 0.345564 0.506715
vt 0.327790 0.510214
vt 0.325304 0.559561
vt 0.325396 0.548856
vt 0.464511 0.548886
vt 0.464520 0.559581
vt 0.458306 0.495257
vt 0.459205 0.506275
vt 0.447717 0.502491
vt 0.440963 0.493249
vt 0.831652 0.520729
vt 0.831707 0.510145
vt 0.942702 0.510113
vt 0.942676 0.520802
vt 0.946548 0.482588
vt 0.947423 0.493635
vt 0.936016 0.489846
vt 0.929261 0.480551
vt 0.707517 0.460220
vt 0.596907 0.460274
vt 0.596805 0.260113
vt 0.707517 0.258148
vt 0.148945 0.463071
vt 0.148945 0.472917
vt 0.131864 0.470741
vt 0.130832 0.464064
vt 0.637019 0.091223
vt 0.637019 0.099464
vt 0.559892 0.099472
vt 0.559853 0.091241
vt 0.007786 0.608747
vt 0.308521 0.608747
vt 0.302987 0.625620
vt 0.013210 0.625620
vt 0.999165 0.473953
vt 0.999165 0.558990
vt 0.979621 0.558990
vt 0.979621 0.473953
vt 0.976974 0.473953
vt 0.976974 0.558990
vt 0.957289 0.558990
vt 0.957289 0.473953
vt 0.751176 0.344509
vt 0.738589 0.344509
vt 0.738589 0.276477
vt 0.751176 0.276477
vt 0.739340 0.355393
vt 0.751926 0.355393
vt 0.751926 0.423425
vt 0.739340 0.423425
vt 0.780084 0.352916
vt 0.780084 0.377649
vt 0.755598 0.377651
vt 0.755598 0.352916
vt 0.658139 0.071823
vt 0.659087 0.080561
vt 0.646948 0.076372
vt 0.640848 0.069655
vt 0.687980 0.084940
vt 0.756110 0.084940
vt 0.756120 0.093512
vt 0.687954 0.093512
vt 0.036449 0.489739
vt 0.019103 0.494893
vt 0.020061 0.483192
vt 0.035342 0.487329
vt 0.292230 0.546016
vt 0.292230 0.556611
vt 0.130354 0.556611
vt 0.130354 0.546016
vt 0.981184 0.602054
vt 0.981184 0.840039
vt 0.979425 0.840039
vt 0.979425 0.602054
vt 0.981979 0.596943
vt 0.981979 0.593784
vt 0.983744 0.593784
vt 0.983744 0.596943
vt 0.992933 0.601852
vt 0.992933 0.840039
vt 0.991188 0.840039
vt 0.991188 0.601852
vt 0.994066 0.596741
vt 0.994066 0.593395
vt 0.995815 0.593395
vt 0.995815 0.596741
vt 0.747528 0.462296
vt 0.716918 0.462296
vt 0.733769 0.438986
vt 0.716918 0.260225
vt 0.734062 0.262155
vt 0.589039 0.462296
vt 0.558429 0.462296
vt 0.571990 0.439210
vt 0.589039 0.269282
vt 0.571990 0.291697
vt 0.558429 0.269282
vt 0.569964 0.191462
vt 0.581497 0.218586
vt 0.569964 0.252682
vt 0.658801 0.219352
vt 0.658891 0.252682
vt 0.312160 0.603572
vt 0.312162 0.536743
vt 0.325988 0.567530
vt 0.480106 0.603572
vt 0.465673 0.567530
vt 0.480102 0.536744
vt 0.292230 0.564580
vt 0.308521 0.533516
vt 0.308521 0.601381
vt 0.130354 0.564580
vt 0.007786 0.601381
vt 0.121301 0.539982
vt 0.025610 0.526340
vt 0.007842 0.494521
vt 0.483413 0.602195
vt 0.483415 0.534705
vt 0.500480 0.565797
vt 0.781119 0.602195
vt 0.781131 0.565797
vt 0.306614 0.453801
vt 0.227881 0.453801
vt 0.237335 0.222517
vt 0.306614 0.452539
vt 0.305869 0.222517
vt 0.220707 0.054739
vt 0.220707 0.216740
vt 0.210386 0.198206
vt 0.092051 0.216741
vt 0.102562 0.198223
vt 0.092051 0.053260
vt 0.098328 0.053260
vt 0.533196 0.307519
vt 0.514993 0.307521
vt 0.514404 0.282032
vt 0.533194 0.030388
vt 0.514404 0.010068
vt 0.349094 0.030384
vt 0.367886 0.010068
vt 0.349062 0.509600
vt 0.367944 0.308107
vt 0.367832 0.509605
vt 0.277650 0.188229
vt 0.258128 0.214804
vt 0.258157 0.145455
vt 0.241194 0.212965
vt 0.244285 0.145241
vt 0.223785 0.186886
vt 0.709593 0.470205
vt 0.709593 0.531482
vt 0.701238 0.504359
vt 0.607366 0.504359
vt 0.598983 0.470205
vt 0.598983 0.531483
vt 0.293310 0.462278
vt 0.293309 0.526983
vt 0.284870 0.489401
vt 0.160473 0.489401
vt 0.151968 0.526983
vt 0.152001 0.462278
vt 0.030189 0.141288
vt 0.040202 0.135041
vt 0.041023 0.167048
vt 0.030229 0.161480
vt 0.003719 0.137327
vt 0.003716 0.168134
vt 0.940237 0.528771
vt 0.954458 0.497784
vt 0.954462 0.602570
vt 0.833466 0.528771
vt 0.819123 0.566594
vt 0.819125 0.497912
vt 0.784202 0.602570
vt 0.784202 0.566594
vt 0.641142 0.862023
vt 0.614103 0.936703
vt 0.614531 0.896706
vt 0.589400 0.896640
vt 0.601953 0.862314
vt 0.622088 0.848811
vt 0.641142 0.862023
vt 0.581770 0.848927
vt 0.601995 0.819331
vt 0.614044 0.787471
vt 0.570241 0.816034
vt 0.570252 0.908239
vt 0.584662 0.747667
vt 0.554680 0.791019
vt 0.620908 0.750207
vt 0.542351 0.860571
vt 0.650399 0.792933
vt 0.554135 0.930940
vt 0.582706 0.975016
vt 0.660974 0.863270
vt 0.619005 0.975609
vt 0.649659 0.933864
vn -1 -1E-06 6.123233995736766E-23
vn -1 -1E-06 6.123233995736766E-23
vn -1 -1E-06 6.123233995736766E-23
vn -1 -2E-06 -3E-06
vn -1 -2E-06 -3E-06
vn -1 0 0
vn -0.999994 0.003458 9.999999999997882E-07
vn -0.999994 0.003458 9.999999999997882E-07
vn -0.999994 0.003458 9.999999999997882E-07
vn 0.000519 -0.999999 -0.0012809999999999389
vn 0.000519 -0.999999 -0.0012809999999999389
vn 0.000519 -0.999999 -0.0012809999999999389
vn -1 0 0
vn -1 0 0
vn -1 0 0
vn 0.999998 0.001871 -0.0010110000000000002
vn 0.999998 0.001871 -0.0010110000000000002
vn 0.999998 0.001871 -0.0010110000000000002
vn 0 1 -6.123233995736766E-17
vn 0 1 -6.123233995736766E-17
vn 0 1 -6.123233995736766E-17
vn -0 -1 5.000000000061232E-06
vn -0 -1 5.000000000061232E-06
vn -0 -1 5.000000000061232E-06
vn -0 -1 5.000000000061232E-06
vn -0 -1 5.000000000061232E-06
vn -0 -1 5.000000000061232E-06
vn 0 -1 6.123233995736766E-17
vn 0 -1 6.123233995736766E-17
vn 0 -1 6.123233995736766E-17
vn -1E-06 0.823156 0.567816
vn -1E-06 0.823156 0.567816
vn -1E-06 0.823156 0.567816
vn -1E-06 0.823158 0.567813
vn -1E-06 0.823158 0.567813
vn -1E-06 0.823158 0.567813
vn -1E-06 -0.827988 0.560746
vn -1E-06 -0.827988 0.560746
vn -1E-06 -0.827988 0.560746
vn 0 -0.827987 0.560748
vn 0 -0.827987 0.560748
vn 0 -0.827987 0.560748
vn -1E-06 0.823157 0.567814
vn -1E-06 0.823157 0.567814
vn -1E-06 0.823157 0.567814
vn -1E-06 1 -2.0000000000612323E-06
vn -1E-06 1 -2.0000000000612323E-06
vn -1E-06 1 -2.0000000000612323E-06
vn 0.610426 -0.00016999999999995152 0.792073
vn 0.610426 -0.00016999999999995152 0.792073
vn 0.610426 -0.00016999999999995152 0.792073
vn -0.610462 -0.0003009999999999515 0.792045
vn -0.610462 -0.0003009999999999515 0.792045
vn -0.610462 -0.0003009999999999515 0.792045
vn 0.609903 0.0009820000000000486 0.792476
vn 0.609903 0.0009820000000000486 0.792476
vn 0.609903 0.0009820000000000486 0.792476
vn 0.610641 0.004021000000000049 0.791897
vn 0.610641 0.004021000000000049 0.791897
vn 0.610641 0.004021000000000049 0.791897
vn -0.610644 -0.0012969999999999514 0.791904
vn -0.610644 -0.0012969999999999514 0.791904
vn -0.610644 -0.0012969999999999514 0.791904
vn -0.583439 -0.006665999999999951 0.81213
vn -0.583439 -0.006665999999999951 0.81213
vn -0.583439 -0.006665999999999951 0.81213
vn 0.610463 0.0008350000000000485 0.792044
vn 0.610463 0.0008350000000000485 0.792044
vn 0.610463 0.0008350000000000485 0.792044
vn -0.609901 -0.0020329999999999515 0.792475
vn -0.609901 -0.0020329999999999515 0.792475
vn -0.609901 -0.0020329999999999515 0.792475
vn -0.610641 0.004021000000000049 0.791897
vn -0.610641 0.004021000000000049 0.791897
vn -0.610641 0.004021000000000049 0.791897
vn 0.610644 -0.0003339999999999515 0.791905
vn 0.610644 -0.0003339999999999515 0.791905
vn 0.610644 -0.0003339999999999515 0.791905
vn 1 0 0
vn 0 -1 6.123233995736766E-17
vn 1 0 0
vn 0 -1 6.123233995736766E-17
vn 0 -1 6.123233995736766E-17
vn 1 0 0
vn -0 0.841151 -0.5408
vn -0 0.841151 -0.5408
vn -0 0.841151 -0.5408
vn -0.00156 0.826654 -0.562709
vn -0.00156 0.826654 -0.562709
vn -0.00156 0.826654 -0.562709
vn -0.000279 0.0019090000000000613 0.999998
vn -0.000279 0.0019090000000000613 0.999998
vn -0.000279 0.0019090000000000613 0.999998
vn -0.01508 -0.00853599999999994 0.99985
vn -0.01508 -0.00853599999999994 0.99985
vn -0.01508 -0.00853599999999994 0.99985
vn -0 6.123233995736766E-17 1
vn -0 6.123233995736766E-17 1
vn -0 6.123233995736766E-17 1
vn -0.995506 -0.026241999999999994 0.090995
vn -0.995506 -0.026241999999999994 0.090995
vn -0.995506 -0.026241999999999994 0.090995
vn 0.994904 0.05183700000000001 0.086482
vn 0.994904 0.05183700000000001 0.086482
vn 0.994904 0.05183700000000001 0.086482
vn 0.995506 0.026241000000000007 0.090995
vn 0.995506 0.026241000000000007 0.090995
vn 0.995506 0.026241000000000007 0.090995
vn -0.994904 -0.051836999999999994 0.086482
vn -0.994904 -0.051836999999999994 0.086482
vn -0.994904 -0.051836999999999994 0.086482
vn 0.999999 -0.00132 8.082668874372531E-20
vn 0.999999 -0.00132 8.082668874372531E-20
vn 0.999999 -0.00132 8.082668874372531E-20
vn 0.999999 -0.00132 8.082668874372531E-20
vn 0.999999 -0.00132 8.082668874372531E-20
vn 0.999999 -0.00132 8.082668874372531E-20
vn 1 0 0
vn 1 0 0
vn 1 0 0
vn 0.00248 0.999997 -6.123215626034779E-17
vn 0.00248 0.999997 -6.123215626034779E-17
vn 0.00248 0.999997 -6.123215626034779E-17
vn -0.302896 -0.676556 0.671212
vn -0.000783 -0.760722 0.649077
vn -0.28838 -0.534421 0.7945
vn -0.865647 0.0006229999999999693 -0.500654
vn -0.865647 0.0006229999999999693 -0.500654
vn -0.865647 0.0006229999999999693 -0.500654
vn -0.855571 -3.1699125143169835E-17 -0.517686
vn -0.855571 -3.1699125143169835E-17 -0.517686
vn -0.855571 -3.1699125143169835E-17 -0.517686
vn 0 -0.835209 -0.549933
vn 0 -0.835209 -0.549933
vn 0 -0.835209 -0.549933
vn -0.000369 -0.838634 -0.544696
vn -0.000369 -0.838634 -0.544696
vn -0.000369 -0.838634 -0.544696
vn 0.324827 0.707185 0.627995
vn 0.608612 0.53487 0.586094
vn 0.324827 0.707185 0.627995
vn 0.324827 0.707185 0.627995
vn 0.004666 0.800308 0.599571
vn 0.324827 0.707185 0.627995
vn 1 0 0
vn 1 0 0
vn 1 0 0
vn 1 0 0
vn 1 0 0
vn 1 0 0
vn 0 1 -6.123233995736766E-17
vn 0 1 -6.123233995736766E-17
vn 0 1 -6.123233995736766E-17
vn -2.5E-05 6.123233995736766E-17 1
vn -2.5E-05 6.123233995736766E-17 1
vn -2.5E-05 6.123233995736766E-17 1
vn -2.5E-05 6.123233995736766E-17 1
vn -2.5E-05 6.123233995736766E-17 1
vn -0.987274 0.04473300000000001 0.152607
vn 0.308438 -0.935676 0.17139400000000005
vn -0.250479 -0.920272 0.30059800000000003
vn -0.250479 -0.920272 0.30059800000000003
vn -0.951188 0.03276000000000002 0.30687
vn -0.250479 -0.920272 0.30059800000000003
vn -0.483571 -0.40214999999999995 0.777454
vn -0.483571 -0.40214999999999995 0.777454
vn -0.682612 0.697477 0.21809899999999993
vn -0.701548 0.702953 0.11699599999999996
vn -0.987274 0.04473300000000001 0.152607
vn -0.987274 0.04473300000000001 0.152607
vn -0.951188 0.03276000000000002 0.30687
vn -0.000275 -0.43901099999999993 0.898482
vn -0.00284 -0.878468 0.47779400000000005
vn 4E-06 0.0005260000000000612 1
vn 4E-06 0.0005260000000000612 1
vn -0.000275 -0.43901099999999993 0.898482
vn 0.99984 0.003056000000000001 0.017617
vn 0.999836 0.0014480000000000012 0.018052
vn 0.887991 0.002715000000000028 0.459852
vn 0.887991 0.002715000000000028 0.459852
vn 0.443669 0.002075000000000055 0.896188
vn -0.321331 0.707921 0.628963
vn -0.004646 0.8003 0.599582
vn -0.321331 0.707921 0.628963
vn -0.321331 0.707921 0.628963
vn -0.602771 0.537892 0.589355
vn 1 0 0
vn -0.959161 -0.282854 0.0018240000000000174
vn -0.956995 0.277171 -0.08565000000000002
vn -0.355162 -0.925851 0.12907200000000005
vn 0.348015 -0.923763 0.15983300000000006
vn -0.959161 -0.282854 0.0018240000000000174
vn 0.348015 -0.923763 0.15983300000000006
vn -0.355162 -0.925851 0.12907200000000005
vn 0.956995 -0.277172 0.08565000000000002
vn 0.956995 -0.277172 0.08565000000000002
vn 0.959165 0.282841 -0.0018220000000000174
vn 0.959165 0.282841 -0.0018220000000000174
vn 0.956995 -0.277172 0.08565000000000002
vn 0.35518 0.925845 -0.12907000000000005
vn 0.35518 0.925845 -0.12907000000000005
vn -0.348007 0.923766 -0.15983300000000006
vn -0.954639 -0.27483 0.11459900000000002
vn -0.958208 0.284228 0.03242199999999998
vn -0.346005 -0.923945 0.16311400000000006
vn 0.35783 -0.927401 0.10901700000000006
vn -0.954639 -0.27483 0.11459900000000002
vn 0.35783 -0.927401 0.10901700000000006
vn -0.346005 -0.923945 0.16311400000000006
vn 0.958208 -0.28423 -0.03242199999999998
vn 0.958208 -0.28423 -0.03242199999999998
vn 0.954643 0.274816 -0.11459700000000002
vn 0.954643 0.274816 -0.11459700000000002
vn 0.958208 -0.28423 -0.03242199999999998
vn 0.346023 0.923938 -0.16311400000000006
vn 0.346023 0.923938 -0.16311400000000006
vn -0.357822 0.927404 -0.10901800000000006
vn 0.000261 -1 6.123233995736766E-17
vn 0.000261 -1 6.123233995736766E-17
vn 0.000261 -1 6.123233995736766E-17
vn 3.4E-05 -1 -1.4999999999938768E-05
vn 0 -1 6.123233995736766E-17
vn 0 -1 6.123233995736766E-17
vn 0 -1 6.123233995736766E-17
vn 0.308438 -0.935676 0.17139400000000005
vn 0.707763 -0.693989 0.13210200000000005
vn 0.704683 -0.671017 0.23056100000000002
vn -0.483571 -0.40214999999999995 0.777454
vn -0.250479 -0.920272 0.30059800000000003
vn 0.308438 -0.935676 0.17139400000000005
vn -1 -2E-06 -3E-06
vn -1 -2E-06 -3E-06
vn -1 -2E-06 -3E-06
vn -1 -0.00024 1.0000000000000146E-06
vn -1 -0.00024 1.0000000000000146E-06
vn -1 -0.000512 0.000614
vn -1 0 0
vn -1 0 0
vn -1 0 0
vn -1 0 0
vn 0 -0.99979 -0.020486999999999936
vn 0 -0.99979 -0.020486999999999936
vn 0 -0.99979 -0.020486999999999936
vn 0 -0.99979 -0.020486999999999936
vn -0.999608 -0.027436 0.005662000000000002
vn -0.997395 -0.070884 -0.013365999999999994
vn -0.999608 -0.027436 0.005662000000000002
vn -0.999566 0.016072 0.024677
vn 0.999537 -0.027632 -0.012744999999999998
vn 1 -0.00046800000000000005 -0.000873
vn 0.999537 -0.027632 -0.012744999999999998
vn 0.998196 -0.054773 -0.024605999999999996
vn -0 -0.34230399999999994 0.93959
vn 0 -0.34230299999999997 0.93959
vn -0 -0.34230399999999994 0.93959
vn -0 -0.34230399999999994 0.93959
vn 0 6.123233995736766E-17 1
vn 0 6.123233995736766E-17 1
vn 0 6.123233995736766E-17 1
vn 0 6.123233995736766E-17 1
vn 0 1 -6.123233995736766E-17
vn 0 1 -6.123233995736766E-17
vn 0 1 -6.123233995736766E-17
vn 0 1 -6.123233995736766E-17
vn -0.040638 0.777468 0.627608
vn 9.5E-05 0.788079 0.615574
vn -0.040638 0.777468 0.627608
vn -0.081293 0.765367 0.63844
vn 0.040638 -0.777468 0.627608
vn -9.6E-05 -0.78808 0.615573
vn 0.040638 -0.777468 0.627608
vn 0.081294 -0.765366 0.63844
vn -0.996002 0.007378000000000005 0.089022
vn -0.996675 4.989088595046402E-18 0.081478
vn -0.996002 0.007378000000000005 0.089022
vn -0.995218 0.014755000000000006 0.096557
vn -0.069724 0.995085 0.07032299999999994
vn -0.026317 0.99835 0.05104099999999994
vn -0.069724 0.995085 0.07032299999999994
vn -0.112973 0.989564 0.08944499999999994
vn 0.010728 -0.997763 0.06597900000000005
vn -0.030544 -0.995861 0.08560700000000006
vn 0.010728 -0.997763 0.06597900000000005
vn 0.051977 -0.997579 0.04621300000000006
vn -0 -0.725883 0.687819
vn -0 -0.725883 0.687819
vn -0 -0.725883 0.687819
vn -0 -0.725883 0.687819
vn 0 -1 6.123233995736766E-17
vn 0 -1 6.123233995736766E-17
vn 0 -1 6.123233995736766E-17
vn 0 -1 6.123233995736766E-17
vn 5E-06 0.41670100000000004 0.909044
vn 1.1E-05 0.41669700000000004 0.909045
vn 5E-06 0.41670100000000004 0.909044
vn 0 0.4167040000000001 0.909042
vn 0.999963 0.005082 0.006906
vn 0.999947 0.010163 -0.0016000000000000007
vn 0.999963 0.005082 0.006906
vn 0.999881 9.43651591082993E-19 0.015411
vn -0.027602 0.999619 -6.12090104358439E-17
vn -0.027595 0.999619 6.89999999999388E-05
vn -0.027602 0.999619 -6.12090104358439E-17
vn -0.027602 0.999619 -6.12090104358439E-17
vn 0.085948 -0.992457 0.08741700000000005
vn 0.086818 -0.992336 0.08793500000000005
vn 0.085948 -0.992457 0.08741700000000005
vn 0.085077 -0.992578 0.08690000000000006
vn 0.14467 -0.98948 6.058817574101616E-17
vn 0.14467 -0.98948 6.058817574101616E-17
vn 0.14467 -0.98948 6.058817574101616E-17
vn 0.14467 -0.98948 6.058817574101616E-17
vn -0.999992 -0.002093 0.003446
vn -0.999976 -2.1999999999999576E-05 0.006891
vn -0.999992 -0.002093 0.003446
vn -0.999991 -0.004164 2.5497146358247897E-19
vn -0.000272 -1 6.123233995736766E-17
vn -0.000273 -1 -9.999999999387675E-07
vn -0.000272 -1 6.123233995736766E-17
vn -0.000272 -1 6.123233995736766E-17
vn -1E-06 2.1000000000061233E-05 1
vn 0 1.5000000000061232E-05 1
vn -1E-06 2.1000000000061233E-05 1
vn -1E-06 2.1000000000061233E-05 1
vn 0.001602 0.999981 0.006003999999999938
vn 0.000122 0.999973 0.007401999999999938
vn 0.001602 0.999981 0.006003999999999938
vn 0.003083 0.999985 0.004606999999999938
vn -1E-06 0.003748000000000061 0.999993
vn 0 0.003750000000000061 0.999993
vn -1E-06 0.003748000000000061 0.999993
vn -2E-06 0.0037460000000000613 0.999993
vn -0.009665 -0.999911 0.009213000000000061
vn -0.019341 -0.999813 6.122088950979563E-17
vn -0.009665 -0.999911 0.009213000000000061
vn 1.3E-05 -0.99983 0.018425000000000063
vn 0.501709 1.000000000052968E-06 0.865037
vn 0.501709 1.000000000052968E-06 0.865036
vn 0.501709 1.000000000052968E-06 0.865037
vn 0.501709 1.000000000052968E-06 0.865037
vn 0.766627 0.28964100000000004 0.573054
vn 0.610021 0.55448 0.566062
vn 0.766627 0.28964100000000004 0.573054
vn 0.850623 -0.002630999999999968 0.52577
vn -0.305168 0.685941 0.660573
vn -0.004485 0.770791 0.637073
vn -0.305168 0.685941 0.660573
vn -0.575895 0.533759 0.61923
vn -0.302896 -0.676556 0.671212
vn -0.28838 -0.534421 0.7945
vn -0.420757 -0.38390099999999994 0.821939
vn -0.231998 -0.21085799999999993 0.949587
vn -0.766846 -0.28309899999999993 0.576023
vn -0.849021 0.0005730000000000324 0.528359
vn -0.766846 -0.28309899999999993 0.576023
vn -0.616043 -0.541435 0.572136
vn 0 -2.1999999999938766E-05 1
vn 0 -2.1999999999938766E-05 1
vn 0 -2.1999999999938766E-05 1
vn 0 -2.1999999999938766E-05 1
vn 0.764771 -0.28570399999999996 0.577494
vn 0.611731 -0.545922 0.572498
vn 0.764771 -0.28570399999999996 0.577494
vn 0.848094 0.0005600000000000324 0.529845
vn 0 2.0000000000612323E-06 1
vn 0 4.000000000061232E-06 1
vn 0 2.0000000000612323E-06 1
vn 0 6.123233995736766E-17 1
vn -0.768146 0.28795400000000004 0.571869
vn -0.614036 0.549672 0.56641
vn -0.768146 0.28795400000000004 0.571869
vn -0.851375 -0.00033399999999996784 0.524557
vn -0.001628 0.001798000000000061 0.999997
vn 0 -9.999999999387675E-07 1
vn -0.001628 0.001798000000000061 0.999997
vn -0.003256 0.003597000000000061 0.999988
vn -0.003231 -0.99906 0.04323800000000006
vn -0.005828 -0.99902 0.043881000000000066
vn -0.00284 -0.878468 0.47779400000000005
vn -0.000275 -0.43901099999999993 0.898482
vn -0.000605 3.0000000000612325E-06 1
vn -0.000605 6.000000000061232E-06 1
vn 0.443669 0.002075000000000055 0.896188
vn 0.887991 0.002715000000000028 0.459852
vn 0.869335 -3.026249198309007E-17 -0.494224
vn 0.869332 -3.0262736912449906E-17 -0.494228
vn 0.869335 -3.026249198309007E-17 -0.494224
vn 0.869335 -3.026249198309007E-17 -0.494224
vn 0.892202 -0.451637 2.765479032132566E-17
vn 0.892202 -0.451638 2.7654851553665613E-17
vn 0.892202 -0.451637 2.765479032132566E-17
vn 0.892202 -0.451637 2.765479032132566E-17
vn -0.892202 0.451637 -2.765479032132566E-17
vn -0.892202 0.451638 -2.7654851553665613E-17
vn -0.892202 0.451637 -2.765479032132566E-17
vn -0.892202 0.451637 -2.765479032132566E-17
vn -1 0 0
vn -1 0 0
vn -1 0 0
vn -1 0 0
vn 1 0 0
vn 1 0 0
vn 1 0 0
vn 1 0 0
vn 0 0.902002 -0.43173300000000003
vn 0 0.902002 -0.43173300000000003
vn 0 0.902002 -0.43173300000000003
vn 0 0.902002 -0.43173300000000003
vn 0.687037 -0.27079299999999995 0.674279
vn 0.558587 -0.517731 0.648024
vn 0.687037 -0.27079299999999995 0.674279
vn 0.761782 -0.0026869999999999607 0.647828
vn -8E-06 6.123233995736766E-17 1
vn -8E-06 6.123233995736766E-17 1
vn -8E-06 6.123233995736766E-17 1
vn -8E-06 6.123233995736766E-17 1
vn 0.306556 -0.674405 0.671715
vn 0.581929 -0.520912 0.624507
vn 0.306556 -0.674405 0.671715
vn 3.1E-05 -0.759366 0.650664
vn 4E-06 1.0000000000612324E-06 1
vn 8E-06 6.123233995736766E-17 1
vn 4E-06 1.0000000000612324E-06 1
vn 4E-06 1.0000000000612324E-06 1
vn -0.348007 0.923766 -0.15983300000000006
vn 0.35518 0.925845 -0.12907000000000005
vn -0.956995 0.277171 -0.08565000000000002
vn -0.959161 -0.282854 0.0018240000000000174
vn 0 6.123233995736766E-17 1
vn 0 6.123233995736766E-17 1
vn 0 6.123233995736766E-17 1
vn 0 6.123233995736766E-17 1
vn -0.357822 0.927404 -0.10901800000000006
vn 0.346023 0.923938 -0.16311400000000006
vn -0.958208 0.284228 0.03242199999999998
vn -0.954639 -0.27483 0.11459900000000002
vn 0 6.123233995736766E-17 1
vn 0 6.123233995736766E-17 1
vn 0 6.123233995736766E-17 1
vn 0 6.123233995736766E-17 1
vn -1 1.3E-05 -7.9602041944577955E-22
vn -1 6E-06 -4E-06
vn -1 4.9999999999999996E-06 -8E-06
vn -1 9.999999999999993E-07 -1.2E-05
vn -1 9.999999999999991E-07 -1.5E-05
vn 1 0 0
vn 1 0 0
vn 1 0 0
vn 1 0 0
vn 1 0 -0
vn 1 0 0
vn 0 1 -6.123233995736766E-17
vn -0 1 -6.123233995736766E-17
vn -0 1 -6.123233995736766E-17
vn -0 1 -6.123233995736766E-17
vn -0 1 -6.123233995736766E-17
vn 0 -1 6.123233995736766E-17
vn 0 -1 6.123233995736766E-17
vn 0 -1 6.123233995736766E-17
vn 0 -1 6.123233995736766E-17
vn 0 -1 6.123233995736766E-17
vn 0 -1 6.123233995736766E-17
vn 1 0 -0
vn 1 0 0
vn 1 0 -0
vn 1 0 -0
vn 1 0 -0
vn 1 0 -0
vn 1 1E-06 -6.123233995736766E-23
vn 1 1E-06 -6.123233995736766E-23
vn -1 3.8E-05 3.6E-05
vn -1 7.6E-05 -4.653657836759942E-21
vn -1 2.4E-05 2.4E-05
vn -1 -1.999999999999998E-06 3.6E-05
vn -1 -5E-06 3.061616997868383E-22
vn -0.087396 0.992325 0.08747799999999994
vn -0.087973 0.992305 0.08712899999999994
vn -0.087204 0.992332 0.08759399999999995
vn -0.086819 0.992345 0.08782599999999995
vn -0.086819 0.992345 0.08782599999999995
vn 0.000133 0.00013100000000006124 1
vn -1E-06 6.123233995736766E-17 1
vn -1E-06 6.123233995736766E-17 1
vn -1E-06 6.123233995736766E-17 1
vn -1E-06 6.123233995736766E-17 1
vn 0 6.123233995736766E-17 1
vn 0 6.123233995736766E-17 1
vn -1 -1E-06 6.123233995736766E-23
vn -1 -1E-06 6.123233995736766E-23
vn -1 0 0
vn -1 0 0
vn -1 0 0
vn 1 0.000136 -7.300000000000001E-05
vn 1 0.00013 1.3999999999999991E-05
vn 1 0.000133 -8.143901214329899E-21
vn 1 0.000133 -8.143901214329899E-21
vn 1 0.000133 -8.143901214329899E-21
vn -0.925613 -0.24313399999999996 0.290047
vn -0.5239 -0.669097 0.527103
vn -0.334989 -0.764019 0.551414
vn 0.380426 -0.777114 0.501368
vn 0.538293 -0.713413 0.44864500000000007
vn 0.907531 -0.358878 0.21815900000000002
vn -4.9E-05 -1 0.00024800000000006127
vn 2E-06 -1 6.123233995736766E-17
vn -7.3E-05 -1 -3.699999999993877E-05
vn 0.000506 -1 0.00024800000000006127
vn 0.000833 -1 0.00041000000000006125
vn 0.001666 -0.999999 6.12322787250277E-17
vn 0 1 -6.123233995736766E-17
vn -0 1 -6.123233995736766E-17
vn -0 1 -6.123233995736766E-17
vn -0 1 -6.123233995736766E-17
vn -0 1 -6.123233995736766E-17
vn 0 1 -6.123233995736766E-17
vn 0.499466 0.025942000000000052 0.865945
vn 0.215524 -6.699999999994021E-05 0.976499
vn 0.20914 0.00623600000000006 0.977866
vn 0.758645 0.06201800000000004 0.648546
vn 0.920236 0.07724600000000002 0.383664
vn 0.914429 0.09712600000000003 0.392921
vn -0.000167 1 -6.400000000006123E-05
vn 0 1 -6.123233995736766E-17
vn 0 1 0.00036799999999993874
vn 0.000913 0.999999 0.0007229999999999388
vn 0.000797 1 0.00028799999999993875
vn 0.002737 0.999996 0.00023999999999993878
vn 5.9E-05 1 -0.0005720000000000613
vn 0.000118 1 -0.0006870000000000613
vn 0.823531 0.037377000000000035 0.566038
vn 0.218938 0.794775 0.566037
vn 0.335375 0.37315600000000004 0.865031
vn -0.251255 0.43427200000000005 0.865031
vn 0 6.123233995736766E-17 1
vn 0.458529 -0.20364899999999994 0.865031
vn 0.823531 0.037377000000000035 0.566038
vn -0.490659 -0.10476099999999995 0.865031
vn -0.051989 -0.49901699999999993 0.865031
vn 0.290033 -0.771674 0.566038
vn -0.644281 -0.514298 0.566039
vn -0.68822 0.45382100000000003 0.566038
vn -0.276475 -0.879703 0.38689000000000007
vn -0.768341 -0.57179 0.28759000000000007
vn 0.306376 -0.907429 0.28758800000000007
vn -0.922083 -0.008899999999999976 0.386889
vn 0.751213 -0.534786 0.38688900000000004
vn -0.781236 0.554043 0.2875869999999999
vn -0.293403 0.874203 0.3868889999999999
vn 0.957691 0.010969000000000017 0.287588
vn 0.28551 0.914209 0.28758799999999995
vn 0.740749 0.549188 0.3868889999999999
g 01
f 1/1/1 2/2/2 3/3/3
f 4/4/4 5/5/5 6/6/6
f 7/7/7 8/8/8 9/9/9
f 10/10/10 11/11/11 12/12/12
f 13/13/13 14/14/14 15/15/15
f 16/16/16 17/17/17 18/18/18
f 19/19/19 20/20/20 21/21/21
f 22/22/22 23/23/23 24/24/24
f 25/25/25 26/26/26 27/27/27
f 28/28/28 29/29/29 30/30/30
f 31/31/31 32/32/32 33/33/33
f 34/34/34 35/35/35 36/36/36
f 37/37/37 38/38/38 39/39/39
f 40/40/40 41/41/41 42/42/42
f 43/43/43 44/44/44 45/45/45
f 46/46/46 47/47/47 48/48/48
f 49/49/49 50/50/50 51/51/51
f 52/52/52 53/53/53 54/54/54
f 55/55/55 56/56/56 57/57/57
f 58/58/58 59/59/59 60/60/60
f 61/61/61 62/62/62 63/63/63
f 64/64/64 65/65/65 66/66/66
f 67/67/67 68/68/68 69/69/69
f 70/70/70 71/71/71 72/72/72
f 73/73/73 74/74/74 75/75/75
f 76/76/76 77/77/77 78/78/78
f 79/79/79 80/80/80 81/81/81
f 82/82/82 83/83/83 84/84/84
f 85/85/85 86/86/86 87/87/87
f 88/88/88 89/89/89 90/90/90
f 91/91/91 92/92/92 93/93/93
f 94/94/94 95/95/95 96/96/96
f 97/97/97 98/98/98 99/99/99
f 100/100/100 101/101/101 102/102/102
f 103/103/103 104/104/104 105/105/105
f 106/106/106 107/107/107 108/108/108
f 109/109/109 110/110/110 111/111/111
f 112/112/112 113/113/113 114/114/114
f 115/115/115 116/116/116 117/117/117
f 118/118/118 119/119/119 120/120/120
f 121/121/121 122/122/122 123/123/123
f 124/124/124 125/125/125 126/126/126
f 127/127/127 128/128/128 129/129/129
f 130/130/130 131/131/131 132/132/132
f 133/133/133 134/134/134 135/135/135
f 136/136/136 137/137/137 138/138/138
f 139/139/139 140/140/140 141/141/141
f 142/142/142 143/143/143 144/144/144
f 145/145/145 146/146/146 147/147/147
f 146/146/146 148/148/148 149/149/149
f 150/150/150 148/148/148 151/151/151
f 152/152/152 150/150/150 153/153/153
f 154/154/154 155/155/155 156/156/156
f 156/156/156 157/157/157 158/158/158
f 159/159/159 160/160/160 161/161/161
f 162/162/162 163/163/163 159/159/159
f 164/164/164 165/165/165 163/163/163
f 166/166/166 167/167/167 163/163/163
f 167/167/167 168/168/168 169/169/169
f 170/170/170 171/171/171 167/167/167
f 172/172/172 173/173/173 174/174/174
f 174/174/174 175/175/175 176/176/176
f 177/177/177 178/178/178 179/179/179
f 180/180/180 181/181/181 177/177/177
f 182/182/182 183/183/183 184/184/184
f 182/182/182 185/185/185 186/186/186
f 185/185/185 187/187/187 186/186/186
f 188/188/188 189/189/189 190/190/190
f 190/190/190 191/191/191 192/192/192
f 193/193/193 194/194/194 195/195/195
f 196/196/196 197/197/197 193/193/193
f 198/198/198 199/199/199 200/200/200
f 201/201/201 202/202/202 198/198/198
f 203/203/203 204/204/204 205/205/205
f 205/205/205 206/206/206 207/207/207
f 208/208/208 209/209/209 210/210/210
f 211/211/211 212/212/212 208/208/208
f 213/213/213 214/214/214 215/215/215
f 216/216/216 217/217/217 213/213/213
f 218/218/218 219/219/219 220/220/220
f 221/221/221 222/222/222 218/218/218
f 222/222/222 223/223/223 218/218/218
f 222/222/222 224/224/224 223/223/223
f 225/225/225 226/226/226 227/227/227
f 227/227/227 228/228/228 229/229/229
f 227/227/227 229/229/229 230/230/230
f 231/231/231 232/232/232 233/233/233
f 234/234/234 235/235/235 231/231/231
f 234/234/234 231/231/231 236/236/236
f 231/231/231 237/237/237 236/236/236
f 237/237/237 238/238/238 236/236/236
f 237/237/237 239/239/239 238/238/238
f 239/239/239 240/240/240 238/238/238
f 241/241/241 242/242/242 243/243/243
f 243/243/243 244/244/244 241/241/241
f 245/245/245 246/246/246 247/247/247
f 247/247/247 248/248/248 245/245/245
f 249/249/249 250/250/250 251/251/251
f 251/251/251 252/252/252 249/249/249
f 253/253/253 254/254/254 255/255/255
f 255/255/255 256/256/256 253/253/253
f 257/257/257 258/258/258 259/259/259
f 259/259/259 260/260/260 257/257/257
f 261/261/261 262/262/262 263/263/263
f 262/262/262 264/264/264 263/263/263
f 265/265/265 266/266/266 267/267/267
f 267/267/267 268/268/268 265/265/265
f 269/269/269 270/270/270 271/271/271
f 271/271/271 272/272/272 269/269/269
f 273/273/273 274/274/274 275/275/275
f 275/275/275 276/276/276 273/273/273
f 277/277/277 278/278/278 279/279/279
f 279/279/279 280/280/280 277/277/277
f 281/281/281 282/282/282 283/283/283
f 283/283/283 284/284/284 281/281/281
f 285/285/285 286/286/286 287/287/287
f 287/287/287 288/288/288 285/285/285
f 289/289/289 290/290/290 291/291/291
f 291/291/291 292/292/292 289/289/289
f 293/293/293 294/294/294 295/295/295
f 295/295/295 296/296/296 293/293/293
f 297/297/297 298/298/298 299/299/299
f 299/299/299 300/300/300 297/297/297
f 301/301/301 302/302/302 303/303/303
f 303/303/303 304/304/304 301/301/301
f 305/305/305 306/306/306 307/307/307
f 307/307/307 308/308/308 305/305/305
f 309/309/309 310/310/310 311/311/311
f 311/311/311 312/312/312 309/309/309
f 313/313/313 314/314/314 315/315/315
f 315/315/315 316/316/316 313/313/313
f 317/317/317 318/318/318 319/319/319
f 319/319/319 320/320/320 317/317/317
f 321/321/321 322/322/322 323/323/323
f 323/323/323 324/324/324 321/321/321
f 325/325/325 326/326/326 327/327/327
f 327/327/327 328/328/328 325/325/325
f 329/329/329 330/330/330 331/331/331
f 331/331/331 332/332/332 329/329/329
f 333/333/333 334/334/334 335/335/335
f 335/335/335 336/336/336 333/333/333
f 337/337/337 338/338/338 339/339/339
f 339/339/339 340/340/340 337/337/337
f 341/341/341 342/342/342 343/343/343
f 343/343/343 344/344/344 341/341/341
f 345/345/345 346/346/346 347/347/347
f 347/347/347 348/348/348 345/345/345
f 349/349/349 350/350/350 351/351/351
f 350/350/350 352/352/352 351/351/351
f 353/353/353 354/354/354 355/355/355
f 355/355/355 356/356/356 353/353/353
f 357/357/357 358/358/358 359/359/359
f 359/359/359 360/360/360 357/357/357
f 361/361/361 362/362/362 363/363/363
f 363/363/363 364/364/364 361/361/361
f 365/365/365 366/366/366 367/367/367
f 367/367/367 368/368/368 365/365/365
f 369/369/369 370/370/370 371/371/371
f 371/371/371 372/372/372 369/369/369
f 373/373/373 374/374/374 375/375/375
f 375/375/375 376/376/376 373/373/373
f 377/377/377 378/378/378 379/379/379
f 379/379/379 380/380/380 377/377/377
f 381/381/381 382/382/382 383/383/383
f 383/383/383 384/384/384 381/381/381
f 385/385/385 386/386/386 387/387/387
f 387/387/387 388/388/388 385/385/385
f 389/389/389 390/390/390 391/391/391
f 391/391/391 392/392/392 389/389/389
f 393/393/393 394/394/394 395/395/395
f 395/395/395 396/396/396 393/393/393
f 397/397/397 398/398/398 399/399/399
f 399/399/399 400/400/400 397/397/397
f 401/401/401 402/402/402 403/403/403
f 403/403/403 404/404/404 401/401/401
f 405/405/405 406/406/406 407/407/407
f 407/407/407 408/408/408 405/405/405
f 409/409/409 410/410/410 411/411/411
f 411/411/411 412/412/412 409/409/409
f 413/413/413 414/414/414 415/415/415
f 415/415/415 416/416/416 413/413/413
f 417/417/417 418/418/418 419/419/419
f 419/419/419 420/420/420 417/417/417
f 421/421/421 422/422/422 423/423/423
f 423/423/423 424/424/424 421/421/421
f 425/425/425 426/426/426 427/427/427
f 427/427/427 428/428/428 425/425/425
f 429/429/429 430/430/430 431/431/431
f 431/431/431 432/432/432 429/429/429
f 433/433/433 434/434/434 435/435/435
f 435/435/435 436/436/436 433/433/433
f 437/437/437 438/438/438 439/439/439
f 439/439/439 440/440/440 437/437/437
f 441/441/441 442/442/442 443/443/443
f 442/442/442 444/444/444 443/443/443
f 444/444/444 445/445/445 443/443/443
f 446/446/446 447/447/447 448/448/448
f 446/446/446 448/448/448 449/449/449
f 448/448/448 450/450/450 449/449/449
f 450/450/450 451/451/451 449/449/449
f 452/452/452 453/453/453 454/454/454
f 453/453/453 455/455/455 454/454/454
f 455/455/455 456/456/456 454/454/454
f 457/457/457 458/458/458 459/459/459
f 457/457/457 459/459/459 460/460/460
f 459/459/459 461/461/461 460/460/460
f 461/461/461 462/462/462 460/460/460
f 463/463/463 464/464/464 465/465/465
f 463/463/463 465/465/465 466/466/466
f 465/465/465 467/467/467 466/466/466
f 468/468/468 466/466/466 467/467/467
f 469/469/469 468/468/468 467/467/467
f 470/470/470 469/469/469 467/467/467
f 471/471/471 472/472/472 473/473/473
f 471/471/471 473/473/473 474/474/474
f 473/473/473 475/475/475 474/474/474
f 476/476/476 477/477/477 478/478/478
f 476/476/476 478/478/478 479/479/479
f 478/478/478 480/480/480 479/479/479
f 481/481/481 482/482/482 483/483/483
f 483/483/483 482/482/482 484/484/484
f 484/484/484 485/485/485 483/483/483
f 485/485/485 484/484/484 486/486/486
f 486/486/486 487/487/487 485/485/485
f 488/488/488 489/489/489 490/490/490
f 488/488/488 490/490/490 491/491/491
f 490/490/490 492/492/492 491/491/491
f 493/493/493 494/494/494 495/495/495
f 494/494/494 496/496/496 495/495/495
f 496/496/496 497/497/497 495/495/495
f 498/498/498 499/499/499 500/500/500
f 500/500/500 499/499/499 501/501/501
f 501/501/501 502/502/502 500/500/500
f 502/502/502 501/501/501 503/503/503
f 504/504/504 505/505/505 506/506/506
f 504/504/504 506/506/506 507/507/507
f 504/504/504 507/507/507 508/508/508
f 507/507/507 509/509/509 508/508/508
f 510/510/510 511/511/511 512/512/512
f 513/513/513 512/512/512 511/511/511
f 511/511/511 514/514/514 513/513/513
f 513/513/513 514/514/514 515/515/515
f 516/516/516 517/517/517 518/518/518
f 518/518/518 519/519/519 516/516/516
f 520/520/520 516/516/516 519/519/519
f 519/519/519 521/521/521 520/520/520
f 522/522/522 523/523/523 524/524/524
f 525/525/525 522/522/522 524/524/524
f 525/525/525 524/524/524 526/526/526
f 527/527/527 525/525/525 526/526/526
f 524/524/524 528/528/528 526/526/526
f 528/528/528 529/529/529 526/526/526
f 530/530/530 531/531/531 532/532/532
f 532/532/532 531/531/531 533/533/533
f 532/532/532 533/533/533 534/534/534
f 535/535/535 532/532/532 534/534/534
f 535/535/535 536/536/536 532/532/532
f 533/533/533 537/537/537 534/534/534
f 538/538/538 535/535/535 534/534/534
f 537/537/537 538/538/538 534/534/534
f 538/538/538 539/539/539 535/535/535
f 539/539/539 536/536/536 535/535/535
f 537/537/537 540/540/540 538/538/538
f 540/540/540 539/539/539 538/538/538
f 533/533/533 541/541/541 537/537/537
f 541/541/541 540/540/540 537/537/537
f 531/531/531 541/541/541 533/533/533
f 539/539/539 540/540/540 542/542/542
f 542/542/542 540/540/540 543/543/543
f 542/542/542 544/544/544 539/539/539
f 545/545/545 543/543/543 540/540/540
f 540/540/540 541/541/541 545/545/545
f 546/546/546 539/539/539 544/544/544
f 545/545/545 541/541/541 547/547/547
f 536/536/536 539/539/539 546/546/546
f 548/548/548 547/547/547 541/541/541
f 541/541/541 531/531/531 548/548/548
f 546/546/546 549/549/549 536/536/536
f 548/548/548 531/531/531 550/550/550
f 551/551/551 536/536/536 549/549/549
f 551/551/551 550/550/550 531/531/531
f 531/531/531 536/536/536 551/551/551
