v -0.168649 -0.4871399999999999 1.76709
v -0.152954 -0.4783439999999999 1.801838
v -0.175167 -0.5526559999999999 1.801485
v -0.175167 -0.5526559999999999 1.801485
v -0.183432 -0.5363269999999999 1.766853
v -0.168649 -0.4871399999999999 1.76709
v -0.146441 -0.6063779999999999 1.711239
v -0.099446 -0.4481579999999999 1.711975
v -0.168649 -0.4871399999999999 1.76709
v -0.168649 -0.4871399999999999 1.76709
v -0.183432 -0.5363269999999999 1.766853
v -0.146441 -0.6063779999999999 1.711239
v -0.099446 -0.4481579999999999 1.711975
v -0.252464 -0.4037689999999999 1.712663
v -0.216543 -0.4733869999999999 1.767297
v -0.216543 -0.4733869999999999 1.767297
v -0.168649 -0.4871399999999999 1.76709
v -0.099446 -0.4481579999999999 1.711975
v -0.174054 -0.4904679999999999 1.631974
v -0.099446 -0.4481579999999999 1.711975
v -0.146441 -0.6063779999999999 1.711239
v -0.146441 -0.6063779999999999 1.711239
v -0.186412 -0.5308429999999998 1.63178
v -0.174054 -0.4904679999999999 1.631974
v -0.126226 -0.6828909999999999 1.765866
v -0.110394 -0.6739079999999998 1.800628
v -0.132305 -0.7509549999999999 1.80026
v -0.132305 -0.7509549999999999 1.80026
v -0.140827 -0.7338659999999999 1.765617
v -0.126226 -0.6828909999999999 1.765866
v -0.102915 -0.8066879999999998 1.710018
v -0.056838 -0.6424619999999999 1.710784
v -0.126226 -0.6828909999999999 1.765866
v -0.126226 -0.6828909999999999 1.765866
v -0.140827 -0.7338659999999999 1.765617
v -0.102915 -0.8066879999999998 1.710018
v -0.056838 -0.6424619999999999 1.710784
v -0.21151 -0.5970809999999999 1.711446
v -0.174538 -0.6687929999999999 1.766062
v -0.174538 -0.6687929999999999 1.766062
v -0.126226 -0.6828909999999999 1.765866
v -0.056838 -0.6424619999999999 1.710784
v -0.131946 -0.6863579999999999 1.630753
v -0.056838 -0.6424619999999999 1.710784
v -0.102915 -0.8066879999999998 1.710018
v -0.102915 -0.8066879999999998 1.710018
v -0.143966 -0.7282309999999999 1.630548
v -0.131946 -0.6863579999999999 1.630753
v 0.336326 -0.766409 0.851719
v 0.373051 -0.923952 0.8517190000000001
v 0.354237 -0.9005369999999999 1.437249
v 0.354237 -0.9005369999999999 1.437249
v 0.315382 -0.7676629999999999 1.508842
v 0.336326 -0.766409 0.851719
v -0.216543 -0.4733869999999999 1.767297
v -0.225286 -0.4575309999999999 1.802152
v -0.152954 -0.4783439999999999 1.801838
v -0.168649 -0.4871399999999999 1.76709
v -0.216543 -0.4733869999999999 1.767297
v -0.183432 -0.5363269999999999 1.766853
v -0.175167 -0.5526559999999999 1.801485
v -0.248215 -0.5320249999999999 1.801776
v -0.231683 -0.5226459999999999 1.76705
v -0.183432 -0.5363269999999999 1.766853
v -0.146441 -0.6063779999999999 1.711239
v -0.302558 -0.5625399999999999 1.711844
v -0.146441 -0.6063779999999999 1.711239
v -0.213245 -0.47921399999999986 1.632142
v -0.252464 -0.4037689999999999 1.712663
v -0.099446 -0.4481579999999999 1.711975
v -0.174054 -0.4904679999999999 1.631974
v -0.213245 -0.47921399999999986 1.632142
v -0.174538 -0.6687929999999999 1.766062
v -0.183272 -0.6526229999999998 1.800926
v -0.110394 -0.6739079999999998 1.800628
v -0.126226 -0.6828909999999999 1.765866
v -0.174538 -0.6687929999999999 1.766062
v -0.140827 -0.7338659999999999 1.765617
v -0.132305 -0.7509549999999999 1.80026
v -0.206062 -0.7296579999999999 1.800527
v -0.189524 -0.7197629999999999 1.765799
v -0.140827 -0.7338659999999999 1.765617
v -0.102915 -0.8066879999999998 1.710018
v -0.260729 -0.7612629999999999 1.710569
v -0.102915 -0.8066879999999998 1.710018
v -0.171662 -0.6747829999999999 1.630912
v -0.21151 -0.5970809999999999 1.711446
v -0.056838 -0.6424619999999999 1.710784
v -0.131946 -0.6863579999999999 1.630753
v -0.171662 -0.6747829999999999 1.630912
v 0.955153 0.480569 0.0007529999999999706
v 0.899951 0.47783800000000004 0.529754
v 0.823272 0.44300500000000004 0.617731
v 0.838964 0.44281 0.0007529999999999729
v 0.955153 0.480569 0.0007529999999999706
v 0.803981 0.594007 0.0007529999999999637
v 0.798726 0.534818 0.617731
v 0.879403 0.547859 0.529754
v 0.879403 0.547859 0.529754
v 0.920516 0.610116 0.0007529999999999626
v 0.899951 0.47783800000000004 0.529754
v 0.955153 0.480569 0.0007529999999999706
v 0.920516 0.610116 0.0007529999999999626
v 0.920516 0.610116 0.0007529999999999626
v 0.879403 0.547859 0.529754
v 0.823272 0.44300500000000004 0.617731
v 0.798726 0.534818 0.617731
v -0.252464 -0.4037689999999999 1.712663
v -0.302558 -0.5625399999999999 1.711844
v -0.231683 -0.5226459999999999 1.76705
v -0.216543 -0.4733869999999999 1.767297
v -0.252464 -0.4037689999999999 1.712663
v -0.225286 -0.4575309999999999 1.802152
v -0.216543 -0.4733869999999999 1.767297
v -0.248215 -0.5320249999999999 1.801776
v -0.21151 -0.5970809999999999 1.711446
v -0.260729 -0.7612629999999999 1.710569
v -0.189524 -0.7197629999999999 1.765799
v -0.174538 -0.6687929999999999 1.766062
v -0.21151 -0.5970809999999999 1.711446
v -0.183272 -0.6526229999999998 1.800926
v -0.174538 -0.6687929999999999 1.766062
v -0.206062 -0.7296579999999999 1.800527
v -0.175167 -0.5526559999999999 1.801485
v -0.152954 -0.4783439999999999 1.801838
v -0.225286 -0.4575309999999999 1.802152
v -0.248215 -0.5320249999999999 1.801776
v -0.132305 -0.7509549999999999 1.80026
v -0.110394 -0.6739079999999998 1.800628
v -0.183272 -0.6526229999999998 1.800926
v -0.206062 -0.7296579999999999 1.800527
v -0.225874 -0.5196299999999999 1.631941
v -0.302558 -0.5625399999999999 1.711844
v -0.252464 -0.4037689999999999 1.712663
v -0.213245 -0.47921399999999986 1.632142
v -0.225874 -0.5196299999999999 1.631941
v -0.186412 -0.5308429999999998 1.63178
v -0.146441 -0.6063779999999999 1.711239
v -0.302558 -0.5625399999999999 1.711844
v -0.183942 -0.7166529999999999 1.630698
v -0.260729 -0.7612629999999999 1.710569
v -0.21151 -0.5970809999999999 1.711446
v -0.171662 -0.6747829999999999 1.630912
v -0.183942 -0.7166529999999999 1.630698
v -0.143966 -0.7282309999999999 1.630548
v -0.102915 -0.8066879999999998 1.710018
v -0.260729 -0.7612629999999999 1.710569
v -0.865882 -0.86688 0.0007500000000000531
v -0.826354 -0.857394 0.686666
v -0.874034 -0.03578399999999996 0.729195
v -0.912459 -0.013594 0.0007500000000000009
v 0.765005 -0.664797 0.0007500000000000407
v 0.719942 -0.6723099999999999 1.72866
v -0.285358 -0.9237119999999999 1.729678
v -0.311391 -0.975986 0.0007500000000000598
v 0.578698 0.6884370000000001 1.101057
v 0.625097 0.6086020000000001 1.15646
v 0.668533 0.6724630000000001 1.15646
v 0.840386 0.5217820000000001 1.101058
v 0.575305 0.6976540000000001 1.112778
v 0.606248 0.6680520000000001 1.184017
v 0.596522 0.7343040000000001 1.184017
v 0.784165 0.7202000000000001 1.24614
v 0.575305 0.6976540000000001 1.112778
v 0.596522 0.7343040000000001 1.184017
v 0.534995 0.7156490000000001 1.184022
v 0.502996 0.8998480000000001 1.24614
v 0.562894 0.7049830000000001 1.101058
v 0.530392 0.7908930000000001 1.15646
v 0.477623 0.7355280000000001 1.156477
v 0.348167 0.9337720000000002 1.101057
v 0.565374 0.6868200000000001 1.114355
v 0.522877 0.6774160000000001 1.184041
v 0.577147 0.6493460000000001 1.180547
v 0.465773 0.5056580000000002 1.246482
v 0.57033 0.6685960000000001 1.101057
v 0.533429 0.5839670000000001 1.15651
v 0.609421 0.5849370000000002 1.156462
v 0.576771 0.36617500000000003 1.101127
v 0.510799 0.7453130000000001 1.100871
v 0.51257 0.6338820000000001 1.100888
v 0.621923 0.6350090000000002 1.100871
v 0.620442 0.7459110000000001 1.100872
v -0.486375 0.03851300000000007 1.108868
v -0.960275 -0.00552599999999996 0.653317
v -0.901505 -0.89774 0.627908
v -0.305684 -0.8335129999999998 1.113513
v -0.317444 -0.7957069999999999 1.099179
v -0.826354 -0.857394 0.686666
v -0.865882 -0.86688 0.0007500000000000531
v -0.346434 -0.820612 0.0007500000000000502
v -0.546339 0.023446 0.0007499999999999986
v -0.912459 -0.013594 0.0007500000000000009
v -0.874034 -0.03578399999999996 0.729195
v -0.481407 0.007712000000000068 1.105432
v 0.480005 0.2887430000000001 0.848736
v 0.624498 -0.167345 0.0007500000000000103
v 0.938206 -0.0788 0.0007500000000000049
v 0.791515 0.3727230000000001 0.848728
v 0.373079 -0.923875 0.8517190000000001
v 0.706181 -0.831509 0.851719
v 0.678792 -0.8236469999999999 1.437211
v 0.354262 -0.9004629999999999 1.437249
v -0.513226 0.08099000000000006 0.850393
v -0.517572 0.08942200000000011 1.734206
v 0.455313 0.3476320000000001 1.729768
v 0.460627 0.36929200000000006 0.848867
v -0.459816 0.09376800000000006 1.008122
v -0.466643 0.09539100000000006 0.850399
v -0.580689 0.49953000000000003 0.84981
v -0.574529 0.49901600000000007 1.007252
v -0.700492 0.551997 0.0007499999999999662
v -0.639091 0.5376610000000001 1.007043
v 0.692902 0.8956190000000002 1.005822
v 0.721459 0.946902 0.000749999999999942
v -0.574529 0.49901600000000007 1.007252
v -0.580689 0.49953000000000003 0.84981
v 0.658053 0.837046 0.849051
v 0.654578 0.8294360000000001 1.006026
v -0.430348 0.0388640000000001 1.63651
v -0.434811 0.04065400000000011 1.734288
v -0.235649 -0.8389549999999999 1.730061
v -0.236037 -0.8397159999999999 1.632335
v -0.236037 -0.8397159999999999 1.632335
v -0.235649 -0.8389549999999999 1.730061
v 0.633715 -0.6234659999999999 1.728697
v 0.634577 -0.6236329999999999 1.630999
v 0.634577 -0.6236329999999999 1.630999
v 0.633715 -0.6234659999999999 1.728697
v 0.408314 0.2648140000000001 1.730147
v 0.407135 0.2626030000000001 1.632432
v 0.407135 0.2626030000000001 1.632432
v 0.408314 0.2648140000000001 1.730147
v -0.434811 0.04065400000000011 1.734288
v -0.430348 0.0388640000000001 1.63651
v 0.678792 -0.8236469999999999 1.437211
v 0.706181 -0.831509 0.851719
v 0.668368 -0.696092 0.851719
v 0.636312 -0.6927319999999999 1.508499
v 0.34294 -0.9478459999999999 1.429934
v 0.716423 -0.8588429999999999 1.429923
v 0.660654 -0.6777779999999999 1.525264
v 0.292328 -0.7637449999999999 1.525653
v -0.236037 -0.8397159999999999 1.632335
v 0.634577 -0.6236329999999999 1.630999
v 0.407135 0.2626030000000001 1.632432
v -0.430348 0.0388640000000001 1.63651
v 0.765005 -0.664797 0.0007500000000000407
v 0.628653 -0.167345 0.0007500000000000103
v 0.719942 -0.6723099999999999 1.72866
v 0.460627 0.36929200000000006 0.848867
v 0.455313 0.3476320000000001 1.729768
v -0.639091 0.5376610000000001 1.007043
v -0.700492 0.551997 0.0007499999999999662
v -0.555715 0.023446 0.0007499999999999986
v -0.514186 0.08262500000000006 1.008114
v -0.487199 0.007712000000000067 1.092143
v -0.517572 0.08942200000000011 1.734206
v -0.285358 -0.9237119999999999 1.729678
v -0.311391 -0.975986 0.0007500000000000598
v -0.352426 -0.820612 0.0007500000000000502
v 0.937552 -0.07774999999999999 0.144843
v 0.792662 0.34869200000000006 1.00594
v 0.938206 -0.0788 0.0007500000000000049
v 0.654578 0.8294360000000001 1.006026
v 0.658053 0.837046 0.849051
v -0.514186 0.08262500000000006 1.008114
v -0.459816 0.09376800000000006 1.008122
v -0.574529 0.49901600000000007 1.007252
v -0.639091 0.5376610000000001 1.007043
v 0.654578 0.8294360000000001 1.006026
v 0.692902 0.8956190000000002 1.005822
v 0.8447 0.36345700000000003 1.005803
v 0.792662 0.34869200000000006 1.00594
v 0.721459 0.946902 0.000749999999999942
v 0.692902 0.8956190000000002 1.005822
v 0.8447 0.36345700000000003 1.005803
v 0.988679 -0.06423399999999999 0.144843
v 0.989339 -0.06534 0.000750000000000004
v 0.937552 -0.07774999999999999 0.144843
v 0.938206 -0.0788 0.0007500000000000049
v 0.989339 -0.06534 0.000750000000000004
v 0.988679 -0.06423399999999999 0.144843
v 0.792662 0.34869200000000006 1.00594
v 0.8447 0.36345700000000003 1.005803
v 0.655968 0.7860690000000001 0.937728
v 0.620442 0.7459110000000001 1.100872
v 0.621923 0.6350090000000002 1.100871
v 0.657975 0.6120540000000001 0.937728
v 0.643655 0.633649 0.845498
v 0.642167 0.77519 0.845498
v 0.481642 0.7851980000000001 0.937728
v 0.510799 0.7453130000000001 1.100871
v 0.620442 0.7459110000000001 1.100872
v 0.655968 0.7860690000000001 0.937728
v 0.642167 0.77519 0.845498
v 0.499625 0.774221 0.845498
v 0.484305 0.6097830000000001 0.937728
v 0.51257 0.6338820000000001 1.100888
v 0.510799 0.7453130000000001 1.100871
v 0.481642 0.7851980000000001 0.937728
v 0.499625 0.774221 0.845498
v 0.501594 0.631771 0.845498
v 0.657975 0.6120540000000001 0.937728
v 0.621923 0.6350090000000002 1.100871
v 0.51257 0.6338820000000001 1.100888
v 0.484305 0.6097830000000001 0.937728
v 0.501594 0.631771 0.845498
v 0.643655 0.633649 0.845498
v 0.460627 0.36929200000000006 0.848867
v -0.580689 0.49953000000000003 0.84981
v -0.466643 0.09539100000000006 0.850399
v 0.658053 0.837046 0.849051
v 0.791515 0.3727230000000001 0.848728
v 0.480005 0.2887430000000001 0.848736
v -0.434811 0.04065400000000011 1.734288
v -0.517572 0.08942200000000011 1.734206
v -0.285358 -0.9237119999999999 1.729678
v -0.235649 -0.8389549999999999 1.730061
v 0.408314 0.2648140000000001 1.730147
v 0.719942 -0.6723099999999999 1.72866
v 0.455313 0.3476320000000001 1.729768
v 0.633715 -0.6234659999999999 1.728697
vt 0.017715 0.571356
vt 0.005619 0.572003
vt 0.005619 0.549518
vt 0.005619 0.549518
vt 0.017715 0.548479
vt 0.017715 0.571356
vt 0.044938 0.548278
vt 0.044938 0.571541
vt 0.017715 0.571356
vt 0.017715 0.571356
vt 0.017715 0.548479
vt 0.044938 0.548278
vt 0.044938 0.571541
vt 0.044938 0.594806
vt 0.017715 0.593920
vt 0.017715 0.593920
vt 0.017715 0.571356
vt 0.044938 0.571541
vt 0.067254 0.571095
vt 0.044938 0.571541
vt 0.044938 0.548278
vt 0.044938 0.548278
vt 0.067254 0.549135
vt 0.067254 0.571095
vt 0.893410 0.162151
vt 0.892273 0.151008
vt 0.920774 0.151008
vt 0.920774 0.151008
vt 0.922216 0.162151
vt 0.893410 0.162151
vt 0.922999 0.187296
vt 0.894242 0.187296
vt 0.893410 0.162151
vt 0.893410 0.162151
vt 0.922216 0.162151
vt 0.922999 0.187296
vt 0.894242 0.187296
vt 0.865485 0.187296
vt 0.865048 0.162151
vt 0.865048 0.162151
vt 0.893410 0.162151
vt 0.894242 0.187296
vt 0.889389 0.217179
vt 0.894242 0.187296
vt 0.922999 0.187296
vt 0.922999 0.187296
vt 0.915771 0.217179
vt 0.889389 0.217179
vt 0.791780 0.646188
vt 0.791780 0.680498
vt 0.902873 0.680498
vt 0.902873 0.680498
vt 0.916400 0.646188
vt 0.791780 0.646188
vt 0.017715 0.593920
vt 0.005619 0.594401
vt 0.005619 0.572003
vt 0.017715 0.571356
vt 0.017715 0.593920
vt 0.017715 0.548479
vt 0.005619 0.549518
vt 0.005619 0.527725
vt 0.017715 0.527977
vt 0.017715 0.548479
vt 0.044938 0.548278
vt 0.044938 0.522765
vt 0.044938 0.548278
vt 0.067254 0.593380
vt 0.044938 0.594806
vt 0.044938 0.571541
vt 0.067254 0.571095
vt 0.067254 0.593380
vt 0.865048 0.162151
vt 0.863814 0.151008
vt 0.892273 0.151008
vt 0.893410 0.162151
vt 0.865048 0.162151
vt 0.922216 0.162151
vt 0.920774 0.151008
vt 0.947978 0.151008
vt 0.947823 0.162151
vt 0.922216 0.162151
vt 0.922999 0.187296
vt 0.955593 0.187790
vt 0.922999 0.187296
vt 0.862556 0.217179
vt 0.865485 0.187296
vt 0.894242 0.187296
vt 0.889389 0.217179
vt 0.862556 0.217179
vt 0.680926 0.474584
vt 0.680926 0.380707
vt 0.701901 0.363020
vt 0.701901 0.474584
vt 0.680926 0.474584
vt 0.639910 0.474584
vt 0.639910 0.363020
vt 0.660906 0.380707
vt 0.660906 0.380707
vt 0.660906 0.474584
vt 0.680926 0.380707
vt 0.680926 0.474584
vt 0.660906 0.474584
vt 0.660906 0.474584
vt 0.660906 0.380707
vt 0.680926 0.358561
vt 0.660906 0.358561
vt 0.044938 0.594806
vt 0.044938 0.619319
vt 0.017715 0.613290
vt 0.017715 0.593920
vt 0.044938 0.594806
vt 0.005619 0.594401
vt 0.017715 0.593920
vt 0.005619 0.615585
vt 0.865485 0.187296
vt 0.831074 0.187790
vt 0.840913 0.162151
vt 0.865048 0.162151
vt 0.865485 0.187296
vt 0.863814 0.151008
vt 0.865048 0.162151
vt 0.837437 0.151008
vt 0.033430 0.460084
vt 0.042861 0.486636
vt 0.016353 0.496082
vt 0.006921 0.469530
vt 0.798329 0.165067
vt 0.815967 0.147399
vt 0.833606 0.165067
vt 0.815967 0.182734
vt 0.067254 0.611133
vt 0.044938 0.619319
vt 0.044938 0.594806
vt 0.067254 0.593380
vt 0.067254 0.531872
vt 0.067254 0.549135
vt 0.044938 0.548278
vt 0.044938 0.522765
vt 0.840802 0.217179
vt 0.831074 0.187790
vt 0.865485 0.187296
vt 0.862556 0.217179
vt 0.936889 0.217179
vt 0.915771 0.217179
vt 0.922999 0.187296
vt 0.955593 0.187790
vt 0.803206 0.142919
vt 0.803143 -0.000100
vt 0.984831 -0.001291
vt 0.984453 0.142919
vt 0.248511 0.583543
vt 0.248511 0.222851
vt 0.480998 0.222851
vt 0.480998 0.583046
vt 0.832480 0.219062
vt 0.811647 0.226866
vt 0.811647 0.210743
vt 0.761492 0.218804
vt 0.624784 0.210611
vt 0.640940 0.203448
vt 0.640848 0.217330
vt 0.681694 0.208588
vt 0.711894 0.211325
vt 0.727250 0.204728
vt 0.728039 0.218262
vt 0.768593 0.211720
vt 0.775929 0.368242
vt 0.769665 0.347375
vt 0.785762 0.347375
vt 0.777713 0.297139
vt 0.755303 0.199873
vt 0.770918 0.194270
vt 0.770037 0.207136
vt 0.811473 0.200812
vt 0.727307 0.232610
vt 0.748140 0.226336
vt 0.748140 0.242459
vt 0.798295 0.234398
vt 0.758532 0.280060
vt 0.758761 0.303262
vt 0.735596 0.303491
vt 0.735368 0.280289
vt 0.699663 0.630916
vt 0.699663 0.817816
vt 0.394453 0.817816
vt 0.394032 0.586657
vt 0.524833 0.358661
vt 0.635319 0.445626
vt 0.635170 0.594244
vt 0.526991 0.594244
vt 0.827180 0.599654
vt 0.903467 0.599654
vt 0.903868 0.454817
vt 0.827180 0.372432
vt 0.913787 0.702321
vt 0.913798 0.989390
vt 0.846468 0.989390
vt 0.846457 0.702321
vt 0.809208 0.810466
vt 0.735669 0.810466
vt 0.735669 0.688400
vt 0.809209 0.688400
vt 0.562393 0.188959
vt 0.562776 0.006208
vt 0.792663 0.006208
vt 0.792663 0.188959
vt 0.954046 0.840757
vt 0.921412 0.840757
vt 0.921418 0.754368
vt 0.954039 0.754368
vt 0.007365 0.215244
vt 0.007365 0.006516
vt 0.316730 0.006467
vt 0.316730 0.215244
vt 0.954039 0.754368
vt 0.921418 0.754368
vt 0.921448 0.462633
vt 0.954122 0.462633
vt 0.982514 0.378883
vt 0.962180 0.378883
vt 0.962179 0.173289
vt 0.982514 0.173289
vt 0.982517 0.996004
vt 0.962182 0.996004
vt 0.962181 0.790240
vt 0.982516 0.790240
vt 0.982516 0.790240
vt 0.962181 0.790240
vt 0.962181 0.584647
vt 0.982515 0.584647
vt 0.982515 0.584647
vt 0.962181 0.584647
vt 0.962180 0.378883
vt 0.982514 0.378883
vt 0.902873 0.680498
vt 0.791780 0.680498
vt 0.791780 0.646188
vt 0.916400 0.646188
vt 0.699799 0.486555
vt 0.699799 0.589658
vt 0.645846 0.589658
vt 0.645846 0.486556
vt 0.335178 0.972108
vt 0.028054 0.972108
vt 0.028054 0.664740
vt 0.335178 0.664740
vt 0.237642 0.583753
vt 0.133751 0.583753
vt 0.237642 0.222847
vt 0.006741 0.406272
vt 0.006732 0.222847
vt 0.818609 0.373329
vt 0.818606 0.582822
vt 0.706524 0.583204
vt 0.722548 0.373318
vt 0.706639 0.355910
vt 0.722558 0.222579
vt 0.490047 0.222579
vt 0.490047 0.582822
vt 0.521995 0.582822
vt 0.774867 0.246975
vt 0.954103 0.354803
vt 0.744874 0.246990
vt 0.954122 0.462633
vt 0.921448 0.462633
vt 0.367096 0.848611
vt 0.380401 0.848495
vt 0.381002 0.980660
vt 0.367957 0.992956
vt 0.824481 0.979714
vt 0.837046 0.991949
vt 0.836082 0.812906
vt 0.823594 0.813025
vt 0.327384 0.214846
vt 0.327392 0.005304
vt 0.445233 0.005308
vt 0.552180 0.184805
vt 0.552180 0.214846
vt 0.297368 0.620776
vt 0.327313 0.620770
vt 0.327316 0.628384
vt 0.297372 0.628391
vt 0.088622 0.620846
vt 0.088651 0.628477
vt 0.514024 0.026690
vt 0.507794 0.061515
vt 0.484633 0.061947
vt 0.477115 0.027378
vt 0.480101 0.007800
vt 0.510313 0.007237
vt 0.555697 0.025581
vt 0.548559 0.060231
vt 0.525395 0.060055
vt 0.518782 0.025301
vt 0.522279 0.005808
vt 0.552495 0.006038
vt 0.518246 0.102182
vt 0.525083 0.067471
vt 0.548247 0.067444
vt 0.555162 0.102139
vt 0.551835 0.121662
vt 0.521618 0.121697
vt 0.728482 0.344699
vt 0.735317 0.309988
vt 0.758483 0.309962
vt 0.765398 0.344657
vt 0.762071 0.364180
vt 0.731854 0.364215
vt 0.720151 0.846074
vt 0.382991 0.978939
vt 0.382260 0.848495
vt 0.822788 0.975842
vt 0.821627 0.817356
vt 0.719961 0.818069
vt 0.341037 0.659922
vt 0.355488 0.643920
vt 0.354842 0.991654
vt 0.340418 0.977054
vt 0.023962 0.659922
vt 0.008545 0.991654
vt 0.008545 0.643920
vt 0.022926 0.977054
vn 0.943253 0.16298600000000002 0.289325
vn 0.608177 0.659403 -0.4419370000000001
vn 0.65756 -0.609186 -0.44329099999999994
vn 0.65756 -0.609186 -0.44329099999999994
vn 0.284505 -0.951546 0.11669500000000005
vn 0.943253 0.16298600000000002 0.289325
vn 0.485113 -0.868782 0.09941500000000006
vn 0.67965 0.726857 0.09876499999999996
vn 0.943253 0.16298600000000002 0.289325
vn 0.943253 0.16298600000000002 0.289325
vn 0.284505 -0.951546 0.11669500000000005
vn 0.485113 -0.868782 0.09941500000000006
vn 0.67965 0.726857 0.09876499999999996
vn -0.722974 0.684025 0.09704799999999995
vn -0.173068 0.942183 0.28694699999999995
vn -0.173068 0.942183 0.28694699999999995
vn 0.943253 0.16298600000000002 0.289325
vn 0.67965 0.726857 0.09876499999999996
vn 0.690208 0.12161599999999996 -0.713318
vn 0.67965 0.726857 0.09876499999999996
vn 0.485113 -0.868782 0.09941500000000006
vn 0.485113 -0.868782 0.09941500000000006
vn 0.328267 -0.596631 -0.732306
vn 0.690208 0.12161599999999996 -0.713318
vn 0.94184 0.17117700000000002 0.289197
vn 0.607118 0.657307 -0.44649300000000003
vn 0.659391 -0.597764 -0.45593999999999996
vn 0.659391 -0.597764 -0.45593999999999996
vn 0.286199 -0.951395 0.11374700000000006
vn 0.94184 0.17117700000000002 0.289197
vn 0.493313 -0.863974 0.10095100000000005
vn 0.681534 0.725237 0.09769099999999996
vn 0.94184 0.17117700000000002 0.289197
vn 0.94184 0.17117700000000002 0.289197
vn 0.286199 -0.951395 0.11374700000000006
vn 0.493313 -0.863974 0.10095100000000005
vn 0.681534 0.725237 0.09769099999999996
vn -0.732526 0.67343 0.09949099999999995
vn -0.173834 0.939845 0.29406299999999996
vn -0.173834 0.939845 0.29406299999999996
vn 0.94184 0.17117700000000002 0.289197
vn 0.681534 0.725237 0.09769099999999996
vn 0.685236 0.12776799999999994 -0.717026
vn 0.681534 0.725237 0.09769099999999996
vn 0.493313 -0.863974 0.10095100000000005
vn 0.493313 -0.863974 0.10095100000000005
vn 0.32845 -0.581812 -0.744054
vn 0.685236 0.12776799999999994 -0.717026
vn -0.973649 -0.226967 -0.022208999999999986
vn -0.973649 -0.226967 -0.022208999999999986
vn -0.973649 -0.226967 -0.022208999999999986
vn -0.963745 -0.264994 -0.031221999999999982
vn -0.963745 -0.264994 -0.031221999999999982
vn -0.963745 -0.264994 -0.031221999999999982
vn -0.173068 0.942183 0.28694699999999995
vn -0.649307 0.617454 -0.44401700000000005
vn 0.608177 0.659403 -0.4419370000000001
vn 0.943253 0.16298600000000002 0.289325
vn -0.173068 0.942183 0.28694699999999995
vn 0.284505 -0.951546 0.11669500000000005
vn 0.65756 -0.609186 -0.44329099999999994
vn -0.602857 -0.650427 -0.46206899999999995
vn -0.863941 -0.290715 0.411206
vn 0.284505 -0.951546 0.11669500000000005
vn 0.485113 -0.868782 0.09941500000000006
vn -0.877973 -0.46729 0.10393800000000003
vn 0.485113 -0.868782 0.09941500000000006
vn -0.128484 0.692515 -0.70987
vn -0.722974 0.684025 0.09704799999999995
vn 0.67965 0.726857 0.09876499999999996
vn 0.690208 0.12161599999999996 -0.713318
vn -0.128484 0.692515 -0.70987
vn -0.173834 0.939845 0.29406299999999996
vn -0.653742 0.610039 -0.44774300000000006
vn 0.607118 0.657307 -0.44649300000000003
vn 0.94184 0.17117700000000002 0.289197
vn -0.173834 0.939845 0.29406299999999996
vn 0.286199 -0.951395 0.11374700000000006
vn 0.659391 -0.597764 -0.45593999999999996
vn -0.602921 -0.644464 -0.47026899999999994
vn -0.862039 -0.291416 0.414688
vn 0.286199 -0.951395 0.11374700000000006
vn 0.493313 -0.863974 0.10095100000000005
vn -0.878554 -0.466199 0.10392700000000003
vn 0.493313 -0.863974 0.10095100000000005
vn -0.129767 0.681219 -0.720487
vn -0.732526 0.67343 0.09949099999999995
vn 0.681534 0.725237 0.09769099999999996
vn 0.685236 0.12776799999999994 -0.717026
vn -0.129767 0.681219 -0.720487
vn 0.734663 -0.675312 0.06500200000000005
vn 0.955074 -0.04641899999999998 0.29271
vn 0.730727 -0.48769999999999997 0.47768900000000003
vn 0.309054 -0.95101 0.008161000000000059
vn 0.734663 -0.675312 0.06500200000000005
vn -0.096763 0.990253 0.10018199999999994
vn 0.418899 0.760073 0.49680199999999997
vn 0.568298 0.695878 0.43908099999999994
vn 0.568298 0.695878 0.43908099999999994
vn 0.7531 0.644332 0.13295499999999996
vn 0.955074 -0.04641899999999998 0.29271
vn 0.734663 -0.675312 0.06500200000000005
vn 0.7531 0.644332 0.13295499999999996
vn 0.7531 0.644332 0.13295499999999996
vn 0.568298 0.695878 0.43908099999999994
vn 0.730727 -0.48769999999999997 0.47768900000000003
vn 0.418899 0.760073 0.49680199999999997
vn -0.722974 0.684025 0.09704799999999995
vn -0.877973 -0.46729 0.10393800000000003
vn -0.863941 -0.290715 0.411206
vn -0.173068 0.942183 0.28694699999999995
vn -0.722974 0.684025 0.09704799999999995
vn -0.649307 0.617454 -0.44401700000000005
vn -0.173068 0.942183 0.28694699999999995
vn -0.602857 -0.650427 -0.46206899999999995
vn -0.732526 0.67343 0.09949099999999995
vn -0.878554 -0.466199 0.10392700000000003
vn -0.862039 -0.291416 0.414688
vn -0.173834 0.939845 0.29406299999999996
vn -0.732526 0.67343 0.09949099999999995
vn -0.653742 0.610039 -0.44774300000000006
vn -0.173834 0.939845 0.29406299999999996
vn -0.602921 -0.644464 -0.47026899999999994
vn 0.002548 -0.005663999999999938 0.999981
vn 0.002744 -0.005560999999999938 0.999981
vn 0.002548 -0.005663999999999938 0.999981
vn 0.002351 -0.005767999999999938 0.999981
vn 0.002229 -0.005625999999999938 0.999982
vn 0.002492 -0.0054899999999999385 0.999982
vn 0.002229 -0.005625999999999938 0.999982
vn 0.001966 -0.005761999999999938 0.999981
vn -0.596485 -0.31465000000000004 -0.738378
vn -0.877973 -0.46729 0.10393800000000003
vn -0.722974 0.684025 0.09704799999999995
vn -0.128484 0.692515 -0.70987
vn -0.596485 -0.31465000000000004 -0.738378
vn 0.328267 -0.596631 -0.732306
vn 0.485113 -0.868782 0.09941500000000006
vn -0.877973 -0.46729 0.10393800000000003
vn -0.593613 -0.31294900000000003 -0.741409
vn -0.878554 -0.466199 0.10392700000000003
vn -0.732526 0.67343 0.09949099999999995
vn -0.129767 0.681219 -0.720487
vn -0.593613 -0.31294900000000003 -0.741409
vn 0.32845 -0.581812 -0.744054
vn 0.493313 -0.863974 0.10095100000000005
vn -0.878554 -0.466199 0.10392700000000003
vn -0.996843 -0.057639 0.05460500000000001
vn -0.996445 -0.06084199999999999 0.05826400000000001
vn -0.996843 -0.057639 0.05460500000000001
vn -0.997217 -0.054434 0.050945
vn 0.260185 -0.965465 0.013486000000000059
vn 0.242607 -0.970122 0.0021090000000000596
vn 0.260185 -0.965465 0.013486000000000059
vn 0.277643 -0.960363 0.02485600000000006
vn -0.458047 0.31154500000000007 0.832546
vn -0.142972 0.09724400000000005 0.984938
vn -0.142972 0.09724400000000005 0.984938
vn 0.196182 -0.13343499999999994 0.971446
vn -0.465769 -0.722759 0.510566
vn -0.689893 -0.10127699999999996 0.716792
vn -0.28652 -0.4450299999999999 0.848443
vn -0.317109 -0.04655299999999994 0.947246
vn -0.465769 -0.722759 0.510566
vn -0.28652 -0.4450299999999999 0.848443
vn 0.198707 -0.655181 0.728872
vn 0.092181 -0.30377999999999994 0.948272
vn 0.402729 -0.38358499999999995 0.831067
vn 0.127558 -0.12127099999999995 0.984389
vn 0.127558 -0.12127099999999995 0.984389
vn -0.169047 0.16142100000000006 0.9723
vn 0.444085 0.811271 0.38029899999999994
vn 0.353769 0.594063 0.722452
vn 0.353769 0.594063 0.722452
vn 0.202461 0.27443600000000007 0.94005
vn -0.006492 0.550037 0.835115
vn -0.001495 0.16628700000000005 0.986076
vn -0.001495 0.16628700000000005 0.986076
vn 0.003755 -0.24574599999999994 0.969327
vn -0.583367 0.27788300000000005 0.763194
vn -0.362618 -0.752334 0.550002
vn 0.581509 -0.28593099999999994 0.761637
vn 0.349992 0.708343 0.612989
vn -0.654469 -0.09513299999999995 0.75008
vn -0.688315 -0.06591199999999996 0.722411
vn -0.654469 -0.09513299999999995 0.75008
vn -0.618813 -0.12409099999999997 0.775676
vn 0.101677 -0.994723 0.01368700000000006
vn 0.11463 -0.993383 0.00713300000000006
vn 0.101677 -0.994723 0.01368700000000006
vn 0.088702 -0.995853 0.02023800000000006
vn -0.11566 0.992874 0.02870099999999994
vn -0.100592 0.994291 0.03559499999999994
vn -0.11566 0.992874 0.02870099999999994
vn -0.130695 0.991183 0.02179999999999994
vn 0.175926 -0.637593 0.750017
vn 0.236612 -0.838297 0.49119500000000005
vn 0.231913 -0.840528 0.48962200000000006
vn 0.086473 -0.32032199999999994 0.943354
vn 0.248667 -0.967925 0.03585500000000006
vn 0.267123 -0.963327 0.025431000000000058
vn 0.248667 -0.967925 0.03585500000000006
vn 0.230094 -0.972068 0.04626200000000006
vn -0.270223 0.962781 0.005689999999999941
vn -0.256556 0.966473 -0.010483000000000058
vn -0.270223 0.962781 0.005689999999999941
vn -0.283766 0.958644 0.021859999999999942
vn 0.961634 0.27172 -0.03778500000000001
vn 0.961702 0.27133 -0.038836000000000016
vn 0.961634 0.27172 -0.03778500000000001
vn 0.961565 0.27211 -0.036733000000000016
vn -0.263384 0.964036 0.03555299999999994
vn -0.259391 0.965319 0.029578999999999942
vn -0.263384 0.964036 0.03555299999999994
vn -0.267362 0.962701 0.04152399999999994
vn 0.261129 -0.96492 -0.02723599999999994
vn 0.262852 -0.964743 -0.01343399999999994
vn 0.261129 -0.96492 -0.02723599999999994
vn 0.259356 -0.96491 -0.04103299999999994
vn 0.975731 0.218275 0.017452999999999986
vn 0.974556 0.220466 0.04045199999999999
vn 0.975731 0.218275 0.017452999999999986
vn 0.976385 0.215968 -0.005555000000000013
vn -0.240742 0.970575 -0.00519100000000006
vn -0.240593 0.970604 -0.00659900000000006
vn -0.240742 0.970575 -0.00519100000000006
vn -0.240891 0.970545 -0.0037830000000000593
vn -0.968935 -0.247274 0.004593000000000015
vn -0.969252 -0.245934 -0.008131999999999985
vn -0.968935 -0.247274 0.004593000000000015
vn -0.968459 -0.248572 0.017317000000000013
vn 0.257558 -0.965962 0.02411500000000006
vn 0.256983 -0.966234 0.018767000000000058
vn 0.257558 -0.965962 0.02411500000000006
vn 0.258126 -0.965662 0.029462000000000058
vn 0.959793 0.277343 0.043333999999999984
vn 0.962329 0.268715 0.04140899999999999
vn 0.959793 0.277343 0.043333999999999984
vn 0.957176 0.285949 0.045254999999999976
vn 0.10361 -0.43723199999999995 0.893361
vn 0.104406 -0.43800199999999995 0.892891
vn 0.10361 -0.43723199999999995 0.893361
vn 0.102815 -0.43646099999999993 0.893829
vn 0.003808 -0.002309999999999939 0.99999
vn 0.001821 -0.0011509999999999387 0.999998
vn 0.003808 -0.002309999999999939 0.99999
vn 0.005795 -0.0034689999999999387 0.999977
vn 0.964093 0.26426 0.026291999999999982
vn 0.964446 0.263006 0.025906999999999982
vn 0.965629 0.259051 0.021275999999999982
vn 0.966378 0.256441 0.018767999999999983
vn 0.967884 0.25111 0.012012999999999984
vn -0.962953 -0.26398 0.05510800000000001
vn -0.963013 -0.263781 0.055002000000000016
vn -0.961251 -0.270045 0.05542700000000001
vn -0.954557 -0.295756 0.03672500000000002
vn -0.965201 -0.260166 0.026473000000000017
vn -0.959297 -0.282242 -0.009460999999999983
vn -0.977531 -0.210784 0.001531000000000013
vn -0.972834 -0.226577 0.04751000000000001
vn -0.964185 -0.254641 0.07419800000000001
vn -0.948049 -0.318117 -0.0019799999999999805
vn -0.954759 -0.297144 -0.011870999999999982
vn -0.958058 -0.285923 -0.019287999999999982
vn -0.962547 -0.269671 -0.02793199999999998
vn -0.964105 -0.263323 -0.034106999999999985
vn -0.001377 0.0018690000000000612 0.999997
vn -0.000554 0.0019880000000000613 0.999998
vn -0.001023 0.002877000000000061 0.999995
vn -0.000803 0.003218000000000061 0.999995
vn 0.001469 0.0023570000000000613 0.999996
vn 0.001852 0.002000000000000061 0.999996
vn 0.003042 0.0007630000000000613 0.999995
vn 0.002487 0.0005360000000000613 0.999997
vn 0.964396 0.263241 0.025386999999999982
vn 0.960823 0.274071 0.04128399999999999
vn 0.963023 0.266888 0.03684399999999999
vn 0.966044 0.257788 0.017433999999999984
vn 0.966718 0.255833 0.0024629999999999843
vn 0.251784 -0.953814 0.16383700000000007
vn 0.254554 -0.967024 0.008201000000000059
vn 0.255067 -0.966887 0.008397000000000059
vn 0.247842 -0.91457 0.31958700000000007
vn 0.234784 -0.854567 0.46324000000000004
vn 0.242954 -0.851951 0.46384600000000004
vn 0.888367 0.455577 0.05703299999999997
vn 0.349992 0.708343 0.612989
vn 0.581509 -0.28593099999999994 0.761637
vn 0.458403 -0.888388 -0.025172999999999945
vn 0.87726 -0.419363 -0.23355899999999996
vn 0.433132 0.885018 -0.17070100000000005
vn -0.453783 0.889655 0.050941999999999946
vn -0.583367 0.27788300000000005 0.763194
vn 0.349992 0.708343 0.612989
vn 0.888367 0.455577 0.05703299999999997
vn 0.433132 0.885018 -0.17070100000000005
vn -0.876074 0.428698 -0.22070900000000002
vn -0.887866 -0.459327 -0.02667999999999997
vn -0.362618 -0.752334 0.550002
vn -0.583367 0.27788300000000005 0.763194
vn -0.453783 0.889655 0.050941999999999946
vn -0.876074 0.428698 -0.22070900000000002
vn -0.420523 -0.861571 -0.28435099999999996
vn 0.458403 -0.888388 -0.025172999999999945
vn 0.581509 -0.28593099999999994 0.761637
vn -0.362618 -0.752334 0.550002
vn -0.887866 -0.459327 -0.02667999999999997
vn -0.420523 -0.861571 -0.28435099999999996
vn 0.87726 -0.419363 -0.23355899999999996
vn 0.000701 -0.00026399999999993876 1
vn 0.000971 0.0005190000000000613 0.999999
vn 0.001128 0.0017760000000000612 0.999998
vn 0.00062 -0.0006559999999999388 1
vn 0.086473 -0.32032199999999994 0.943354
vn 0.175926 -0.637593 0.750017
vn -0.000254 -0.0010859999999999388 0.999999
vn 0.000945 0.0012680000000000612 0.999999
vn -0.000442 -0.005383999999999938 0.999985
vn 0.00136 -0.0031059999999999387 0.999994
vn 0.004858 0.003172000000000061 0.999983
vn 0.00117 -0.001911999999999939 0.999997
vn 0.003758 0.0004920000000000613 0.999993
vn 0.00285 0.00018200000000006124 0.999996
g 01
f 1/1/1 2/2/2 3/3/3
f 4/4/4 5/5/5 6/6/6
f 7/7/7 8/8/8 9/9/9
f 10/10/10 11/11/11 12/12/12
f 13/13/13 14/14/14 15/15/15
f 16/16/16 17/17/17 18/18/18
f 19/19/19 20/20/20 21/21/21
f 22/22/22 23/23/23 24/24/24
f 25/25/25 26/26/26 27/27/27
f 28/28/28 29/29/29 30/30/30
f 31/31/31 32/32/32 33/33/33
f 34/34/34 35/35/35 36/36/36
f 37/37/37 38/38/38 39/39/39
f 40/40/40 41/41/41 42/42/42
f 43/43/43 44/44/44 45/45/45
f 46/46/46 47/47/47 48/48/48
f 49/49/49 50/50/50 51/51/51
f 52/52/52 53/53/53 54/54/54
f 55/55/55 56/56/56 57/57/57
f 57/57/57 58/58/58 59/59/59
f 60/60/60 61/61/61 62/62/62
f 62/62/62 63/63/63 64/64/64
f 65/65/65 64/64/64 63/63/63
f 63/63/63 66/66/66 67/67/67
f 68/68/68 69/69/69 70/70/70
f 70/70/70 71/71/71 72/72/72
f 73/73/73 74/74/74 75/75/75
f 75/75/75 76/76/76 77/77/77
f 78/78/78 79/79/79 80/80/80
f 80/80/80 81/81/81 82/82/82
f 83/83/83 82/82/82 81/81/81
f 81/81/81 84/84/84 85/85/85
f 86/86/86 87/87/87 88/88/88
f 88/88/88 89/89/89 90/90/90
f 91/91/91 92/92/92 93/93/93
f 93/93/93 94/94/94 95/95/95
f 96/96/96 97/97/97 98/98/98
f 99/99/99 100/100/100 96/96/96
f 101/101/101 102/102/102 103/103/103
f 104/104/104 105/105/105 101/101/101
f 106/106/106 101/101/101 105/105/105
f 105/105/105 107/107/107 106/106/106
f 108/108/108 109/109/109 110/110/110
f 110/110/110 111/111/111 112/112/112
f 113/113/113 114/114/114 110/110/110
f 110/110/110 115/115/115 113/113/113
f 116/116/116 117/117/117 118/118/118
f 118/118/118 119/119/119 120/120/120
f 121/121/121 122/122/122 118/118/118
f 118/118/118 123/123/123 121/121/121
f 124/124/124 125/125/125 126/126/126
f 124/124/124 126/126/126 127/127/127
f 128/128/128 129/129/129 130/130/130
f 128/128/128 130/130/130 131/131/131
f 132/132/132 133/133/133 134/134/134
f 134/134/134 135/135/135 132/132/132
f 136/136/136 137/137/137 138/138/138
f 138/138/138 139/139/139 136/136/136
f 140/140/140 141/141/141 142/142/142
f 142/142/142 143/143/143 140/140/140
f 144/144/144 145/145/145 146/146/146
f 146/146/146 147/147/147 144/144/144
f 148/148/148 149/149/149 150/150/150
f 150/150/150 151/151/151 148/148/148
f 152/152/152 153/153/153 154/154/154
f 154/154/154 155/155/155 152/152/152
f 156/156/156 157/157/157 158/158/158
f 159/159/159 158/158/158 157/157/157
f 160/160/160 161/161/161 162/162/162
f 163/163/163 162/162/162 161/161/161
f 164/164/164 165/165/165 166/166/166
f 167/167/167 166/166/166 165/165/165
f 168/168/168 169/169/169 170/170/170
f 171/171/171 170/170/170 169/169/169
f 172/172/172 173/173/173 174/174/174
f 175/175/175 174/174/174 173/173/173
f 176/176/176 177/177/177 178/178/178
f 179/179/179 178/178/178 177/177/177
f 180/180/180 181/181/181 182/182/182
f 182/182/182 183/183/183 180/180/180
f 184/184/184 185/185/185 186/186/186
f 186/186/186 187/187/187 184/184/184
f 188/188/188 189/189/189 190/190/190
f 190/190/190 191/191/191 188/188/188
f 192/192/192 193/193/193 194/194/194
f 194/194/194 195/195/195 192/192/192
f 196/196/196 197/197/197 198/198/198
f 198/198/198 199/199/199 196/196/196
f 200/200/200 201/201/201 202/202/202
f 202/202/202 203/203/203 200/200/200
f 204/204/204 205/205/205 206/206/206
f 206/206/206 207/207/207 204/204/204
f 208/208/208 209/209/209 210/210/210
f 210/210/210 211/211/211 208/208/208
f 212/212/212 213/213/213 214/214/214
f 214/214/214 215/215/215 212/212/212
f 216/216/216 217/217/217 218/218/218
f 218/218/218 219/219/219 216/216/216
f 220/220/220 221/221/221 222/222/222
f 222/222/222 223/223/223 220/220/220
f 224/224/224 225/225/225 226/226/226
f 226/226/226 227/227/227 224/224/224
f 228/228/228 229/229/229 230/230/230
f 230/230/230 231/231/231 228/228/228
f 232/232/232 233/233/233 234/234/234
f 234/234/234 235/235/235 232/232/232
f 236/236/236 237/237/237 238/238/238
f 238/238/238 239/239/239 236/236/236
f 240/240/240 241/241/241 242/242/242
f 242/242/242 243/243/243 240/240/240
f 244/244/244 245/245/245 246/246/246
f 246/246/246 247/247/247 244/244/244
f 248/248/248 249/249/249 250/250/250
f 250/250/250 249/249/249 251/251/251
f 251/251/251 252/252/252 250/250/250
f 253/253/253 254/254/254 255/255/255
f 255/255/255 256/256/256 253/253/253
f 257/257/257 256/256/256 255/255/255
f 258/258/258 256/256/256 257/257/257
f 259/259/259 258/258/258 257/257/257
f 257/257/257 260/260/260 259/259/259
f 261/261/261 260/260/260 257/257/257
f 262/262/262 263/263/263 264/264/264
f 264/264/264 263/263/263 265/265/265
f 265/265/265 266/266/266 264/264/264
f 267/267/267 268/268/268 269/269/269
f 269/269/269 270/270/270 267/267/267
f 270/270/270 269/269/269 271/271/271
f 271/271/271 272/272/272 270/270/270
f 273/273/273 272/272/272 271/271/271
f 271/271/271 274/274/274 273/273/273
f 275/275/275 276/276/276 277/277/277
f 277/277/277 278/278/278 275/275/275
f 275/275/275 278/278/278 279/279/279
f 280/280/280 281/281/281 282/282/282
f 282/282/282 283/283/283 280/280/280
f 284/284/284 280/280/280 283/283/283
f 283/283/283 285/285/285 284/284/284
f 286/286/286 287/287/287 288/288/288
f 288/288/288 289/289/289 286/286/286
f 286/286/286 289/289/289 290/290/290
f 290/290/290 291/291/291 286/286/286
f 292/292/292 293/293/293 294/294/294
f 294/294/294 295/295/295 292/292/292
f 292/292/292 295/295/295 296/296/296
f 296/296/296 297/297/297 292/292/292
f 298/298/298 299/299/299 300/300/300
f 300/300/300 301/301/301 298/298/298
f 298/298/298 301/301/301 302/302/302
f 302/302/302 303/303/303 298/298/298
f 304/304/304 305/305/305 306/306/306
f 306/306/306 307/307/307 304/304/304
f 304/304/304 307/307/307 308/308/308
f 308/308/308 309/309/309 304/304/304
f 310/310/310 311/311/311 312/312/312
f 313/313/313 311/311/311 310/310/310
f 314/314/314 313/313/313 310/310/310
f 310/310/310 315/315/315 314/314/314
f 316/316/316 317/317/317 318/318/318
f 318/318/318 319/319/319 316/316/316
f 317/317/317 316/316/316 320/320/320
f 319/319/319 318/318/318 321/321/321
f 320/320/320 322/322/322 317/317/317
f 321/321/321 323/323/323 319/319/319
f 320/320/320 323/323/323 322/322/322
f 323/323/323 321/321/321 322/322/322
