v -0.027089871875000004 0.004656678125000001 -0.0007631250000000003
v -0.025978046875 0.0027594875000000003 -0.0037333656250000003
v -0.027508868750000002 -0.0004664343750000001 -0.0007631250000000001
v -0.027213415625 0.008072109375 -0.0007631250000000006
v -0.026011940625000004 0.007166465625000001 -0.004526396875
v -0.021897528125000003 0.0061653625 -0.006228750000000001
v -0.02492325 0.012633740625 -0.004922912500000001
v -0.025360293750000002 0.014523953125 -0.0007631250000000009
v -0.0215417125 0.017164228125000004 -0.0007631250000000012
v -0.020277984375000002 0.018441396875000002 -0.005418565625000002
v -0.016542109375000003 0.020764906250000003 -0.005418565625000002
v -0.016720893750000004 0.022672340625000002 -0.0007631250000000015
v -0.017595668750000005 0.014784446875000001 -0.008284031250000002
v -0.010031243750000002 0.022702453125 -0.006519218750000002
v -0.01026856875 0.024709746875000004 -0.0007631250000000016
v -0.017269450000000002 0.007836846875 -0.009308578125000001
v -0.015163293750000001 0.00628024375 -0.007549815625
v -0.00896575625 0.007078121875 -0.009889584375
v -0.009288296875 0.0049677375 -0.008243709375
v -0.009112640625000001 0.017472503125000004 -0.008700037500000002
v -0.0008237281250000002 0.021957925000000003 -0.005418565625000002
v -0.00352735625 0.02396521875 -0.0007631250000000015
v 0.003279340625 0.021042965625000003 -0.0007631250000000014
v 0.0035166312500000004 0.019385987500000004 -0.004583700000000001
v 0.00006050000000000001 0.017244425 -0.008014496875
v -0.00896575625 0.007078121875 -0.009889584375
v 0.0040841625 0.01540873125 -0.0060736156250000015
v 0.00036410000000000007 0.011529168750000002 -0.008788931250000001
v 0.004245278125 0.010650853125 -0.007095275000000002
v -0.0017938250000000002 0.0013855187499999997 -0.008821450000000002
v -0.009288296875 0.0049677375 -0.008243709375
v 0.004358062500000001 0.0037129125 -0.0066695750000000005
v -0.0011866593750000003 -0.0013165281250000006 -0.006802709375
v 0.0038347718750000002 -0.0023889937500000008 -0.0061103625
v 0.0029042062500000006 -0.00581178125 -0.004672903125000001
v -0.025978046875 0.0027594875000000007 0.005510209375
v -0.027089871875000004 0.004656678125000001 -0.0007631250000000003
v -0.027508868750000002 -0.0004664343750000001 -0.0007631250000000001
v -0.027213415625 0.008072109375 -0.0007631250000000006
v -0.026011940625000004 0.007166465625000001 0.007361990625
v -0.021897528125000003 0.006165362500000001 0.011337115625000001
v -0.02492325 0.012633740625 0.00828788125
v -0.025360293750000002 0.014523953125 -0.0007631250000000009
v -0.0215417125 0.017164228125000004 -0.0007631250000000012
v -0.020277984375000002 0.018441396875000002 0.00944521875
v -0.017595668750000005 0.014784446875000003 0.01613638125
v -0.016542109375000003 0.020764906250000003 0.00944521875
v -0.016720893750000004 0.022672340625000002 -0.0007631250000000015
v -0.017269450000000002 0.007836846875000001 0.01852874375
v -0.010031243750000002 0.022702453125 0.012015403124999999
v -0.01026856875 0.024709746875000004 -0.0007631250000000016
v -0.00896575625 0.007078121875000002 0.01988545625
v -0.021897528125000003 0.006165362500000001 0.011337115625000001
v -0.015163293750000001 0.006280243750000002 0.01442189375
v -0.009288296875 0.004967737500000001 0.01604219375
v -0.009112640625000001 0.017472503125000004 0.017107784374999997
v -0.0008237281250000002 0.021957925000000003 0.00944521875
v -0.00352735625 0.02396521875 -0.0007631250000000015
v 0.003279340625 0.021042965625000003 -0.0007631250000000014
v 0.0035166312500000004 0.019385987500000004 0.0074958125
v 0.00006050000000000001 0.017244425 0.015506940624999998
v -0.00896575625 0.007078121875000002 0.01988545625
v 0.0040841625 0.01540873125 0.010974871875000002
v 0.00036410000000000007 0.011529168750000004 0.017315306250000002
v 0.004245278125 0.010650853125 0.013360531250000002
v -0.0017938250000000002 0.0013855187500000012 0.017391275000000005
v 0.004358062500000001 0.003712912500000001 0.012366509375000001
v 0.0038347718750000002 -0.00238899375 0.011060637500000001
v -0.0011866593750000003 -0.0013165281249999995 0.0126773625
v 0.0029042062500000006 -0.00581178125 0.007704090625000001
v -0.009288296875 0.004967737500000001 0.01604219375
v -0.00896575625 0.007078121875000002 0.01988545625
v -0.015804250000000002 0.0018802437499999994 -0.010821250000000001
v -0.015163293750000001 0.00628024375 -0.007549815625
v -0.009288296875 0.0049677375 -0.008243709375
v -0.005720584375000001 -0.0038810750000000008 -0.009551437500000001
v -0.0011866593750000003 -0.0013165281250000006 -0.006802709375
v -0.0156501125 -0.004334309375000001 -0.011019525000000002
v -0.0011868656250000002 -0.008722312500000001 -0.006657646874999999
v 0.0029042062500000006 -0.00581178125 -0.004672903125000001
v 0.002081234375 -0.0111764125 -0.003349190625
v -0.0019620218750000004 -0.012812559375000001 -0.00497248125
v -0.001965734375 -0.015095231250000002 -0.0007631249999999992
v -0.00872361875 -0.010201950000000001 -0.009204490625
v -0.003440971875 -0.02308246875 -0.003584659374999999
v -0.002602325 -0.025045178125 -0.0007631249999999985
v -0.00858666875 -0.016158278125 -0.00801494375
v -0.015454621875000001 -0.0103904625 -0.01002821875
v -0.015376178125000002 -0.016246931250000003 -0.0087891375
v -0.008267428125 -0.0243738 -0.006144324999999998
v -0.015180928125000001 -0.024937584375000002 -0.006779231249999998
v -0.022107146875000004 -0.01643544375 -0.007450678125
v -0.0079481875 -0.031210918750000004 -0.0032377124999999982
v -0.00486344375 -0.03235436875 -0.0007631249999999981
v -0.007142884375000001 -0.033958478125000004 -0.0007631249999999981
v -0.014845015625000001 -0.03592345625 -0.000763124999999998
v -0.014985712500000001 -0.0322498 -0.003733365624999998
v -0.021468665625 -0.031488084375 -0.0032377124999999982
v -0.02060485625 -0.03433550312500001 -0.000763124999999998
v -0.025368921875000002 -0.026664034375 -0.0007631249999999984
v -0.021787906250000003 -0.024651000000000003 -0.005862174999999998
v -0.02521701875 -0.023489640625000002 -0.003584659374999999
v -0.026723640625 -0.019085756250000002 -0.0007631249999999989
v -0.028831171875000006 -0.015949140625000004 -0.00494264375
v -0.032215459375000005 -0.014981243750000001 -0.0007631249999999992
v -0.032386818750000004 -0.008508465625 -0.0007631249999999996
v -0.02224413125 -0.010479115625 -0.008640225000000001
v -0.02896815625 -0.009992812500000002 -0.005248684374999999
v -0.029129271875 -0.004453109375 -0.0007631249999999998
v -0.022339762500000002 -0.0043644218750000015 -0.009482825
v -0.015804250000000002 0.0018802437499999994 -0.010821250000000001
v -0.028013700000000002 -0.0027164500000000005 -0.005980562500000001
v -0.027508868750000002 -0.0004664343750000001 -0.0007631250000000001
v -0.025978046875 0.0027594875000000003 -0.0037333656250000003
v -0.021897528125000003 0.0061653625 -0.006228750000000001
v -0.020503828125 0.002345646875 -0.009086309375
v -0.015163293750000001 0.00628024375 -0.007549815625
v 0.017258243750000003 0.028097575000000003 -0.0054185656250000025
v 0.017179318750000002 0.03006348125 -0.0007631250000000019
v 0.022057509375000003 0.028240471875000003 -0.0007631250000000018
v 0.02090075625 0.027146831250000003 -0.0054185656250000025
v 0.027023150000000003 0.023779250000000002 -0.0007631250000000015
v 0.017309290625 0.023432371875 -0.007599384375000002
v 0.027043568750000004 0.02191316875 -0.004922912500000001
v 0.031769546875000006 0.012475443750000002 -0.0007631250000000008
v 0.024338359375000004 0.01212481875 -0.007252437500000002
v 0.030568071875000002 0.013381087500000001 -0.004922912500000001
v 0.028609109375000004 0.0060026656250000004 -0.0007631250000000005
v 0.027218125 0.00585825625 -0.004427259375
v 0.024451178125000004 0.005751934375000001 -0.006707215625
v 0.017720209375 0.005563421874999999 -0.008788931250000001
v 0.017865615625000004 0.01195349375 -0.009185446875
v 0.011089065625000002 0.005433415625 -0.008788931250000001
v 0.010876387500000001 0.01174779375 -0.009185446875
v 0.004358062500000001 0.0037129125 -0.0066695750000000005
v 0.004245278125 0.010650853125 -0.007095275000000002
v 0.010578321875 0.023243859375000002 -0.007599384375000001
v 0.017258243750000003 0.028097575000000003 -0.0054185656250000025
v 0.0040841625 0.01540873125 -0.0060736156250000015
v 0.010448315625000001 0.029874968750000005 -0.0007631250000000019
v 0.017179318750000002 0.03006348125 -0.0007631250000000019
v 0.010468734375000002 0.028008887500000003 -0.0054185656250000025
v 0.0035166312500000004 0.019385987500000004 -0.004583700000000001
v 0.003279340625 0.021042965625000003 -0.0007631250000000014
v 0.0038347718750000002 -0.0023889937500000008 -0.0061103625
v 0.004358062500000001 0.0037129125 -0.0066695750000000005
v 0.011089065625000002 0.005433415625 -0.008788931250000001
v 0.011201884375000002 -0.0009395031250000005 -0.00794633125
v 0.017720209375 0.005563421874999999 -0.008788931250000001
v 0.0029042062500000006 -0.00581178125 -0.004672903125000001
v 0.017932853125000002 -0.0007509906250000005 -0.00794633125
v 0.024451178125000004 0.005751934375000001 -0.006707215625
v 0.011314703125 -0.007312421875000001 -0.0062115625
v 0.002081234375 -0.0111764125 -0.003349190625
v 0.025346784375000004 -0.0005624781250000004 -0.005864615625000001
v 0.027218125 0.00585825625 -0.004427259375
v 0.018045671875000002 -0.007123909375000001 -0.004675068750000001
v 0.011527346875 -0.013626800000000001 -0.003981174999999999
v -0.001965734375 -0.015095231250000002 -0.0007631249999999992
v 0.003224821875 -0.01681673125 -0.000763124999999999
v 0.0116095375 -0.017200596875 -0.000763124999999999
v 0.014860106250000001 -0.013820021875 -0.0007631249999999993
v 0.01816918125 -0.011768796875 -0.0007631249999999994
v 0.023313434375 -0.009716162500000002 -0.0007631249999999995
v 0.023410062500000002 -0.0059945875 -0.00418
v 0.026097946875000003 -0.00712545625 -0.0007631249999999996
v 0.026623231250000004 -0.0006247312500000003 -0.0039316062500000006
v 0.02816446875 -0.0005285843750000001 -0.0007631250000000001
v 0.028609109375000004 0.0060026656250000004 -0.0007631250000000005
v -0.015163293750000001 0.006280243750000002 0.01442189375
v -0.015804250000000002 0.0018802437500000015 0.02206098125
v -0.009288296875 0.004967737500000001 0.01604219375
v -0.005720584375000001 -0.0038810749999999995 0.019095828125000002
v -0.0011866593750000003 -0.0013165281249999995 0.0126773625
v -0.0156501125 -0.0043343093749999995 0.022523909375
v -0.0011868656250000002 -0.008722312500000001 0.01233863125
v 0.0029042062500000006 -0.00581178125 0.007704090625000001
v 0.002081234375 -0.0111764125 0.004613125000000002
v -0.0019620218750000004 -0.012812559375000001 0.008403587500000002
v -0.001965734375 -0.015095231250000002 -0.0007631249999999992
v -0.00872361875 -0.010201949999999998 0.018285678125
v -0.003440971875 -0.02308246875 0.005162987500000001
v -0.002602325 -0.025045178125 -0.0007631249999999985
v -0.00858666875 -0.016158278125 0.015508006250000003
v -0.015454621875000001 -0.010390462499999998 0.0202092
v -0.015376178125000002 -0.01624693125 0.0173157875
v -0.008267428125 -0.0243738 0.011139975000000003
v -0.015180928125000001 -0.024937584375000002 0.012622534375000003
v -0.022107146875000004 -0.01643544375 0.014190412500000003
v -0.02224413125 -0.010479115624999999 0.016968084375
v -0.022339762500000002 -0.004364421874999999 0.01893560625
v -0.015804250000000002 0.0018802437500000015 0.02206098125
v -0.028831171875000006 -0.015949140625000004 0.008333943750000001
v -0.020503828125 0.0023456468750000016 0.018009715625000002
v -0.015163293750000001 0.006280243750000002 0.01442189375
v -0.021897528125000003 0.006165362500000001 0.011337115625000001
v -0.02896815625 -0.009992812500000002 0.009048565625000001
v -0.028013700000000002 -0.0027164499999999996 0.010757553125
v -0.025978046875 0.0027594875000000007 0.005510209375
v -0.027508868750000002 -0.0004664343750000001 -0.0007631250000000001
v -0.029129271875 -0.004453109375 -0.0007631249999999998
v -0.032386818750000004 -0.008508465625 -0.0007631249999999996
v -0.032215459375000005 -0.014981243750000001 -0.0007631249999999992
v -0.026723640625 -0.019085756250000002 -0.0007631249999999989
v -0.02521701875 -0.023489640625000002 0.005162987500000002
v -0.025368921875000002 -0.026664034375 -0.0007631249999999984
v -0.021787906250000003 -0.024651000000000003 0.010481178125000002
v -0.021468665625 -0.031488084375 0.004352837500000002
v -0.02060485625 -0.03433550312500001 -0.000763124999999998
v -0.014845015625000001 -0.03592345625 -0.000763124999999998
v -0.014985712500000001 -0.0322498 0.005510209375000002
v -0.0079481875 -0.031210918750000004 0.004352837500000002
v -0.007142884375000001 -0.033958478125000004 -0.0007631249999999981
v -0.00486344375 -0.03235436875 -0.0007631249999999981
v 0.017179318750000002 0.03006348125 -0.0007631250000000019
v 0.017258243750000003 0.028097575000000003 0.00944521875
v 0.022057509375000003 0.028240471875000003 -0.0007631250000000018
v 0.02090075625 0.027146831250000003 0.00944521875
v 0.027023150000000003 0.023779250000000002 -0.0007631250000000015
v 0.017309290625 0.023432371875 0.014537634374999999
v 0.027043568750000004 0.02191316875 0.00828788125
v 0.031769546875000006 0.012475443750000002 -0.0007631250000000008
v 0.024338359375000004 0.01212481875 0.013727484375000001
v 0.030568071875000002 0.013381087500000001 0.00828788125
v 0.027218125 0.00585825625 0.007130509375000001
v 0.028609109375000004 0.0060026656250000004 -0.0007631250000000005
v 0.024451178125000004 0.005751934375000002 0.012454371875
v 0.017720209375 0.005563421875000001 0.017315306250000002
v 0.017865615625000004 0.011953493750000002 0.018241196875000004
v 0.011089065625000002 0.005433415625000002 0.017315306250000002
v 0.010876387500000001 0.011747793750000003 0.018241196875000004
v 0.004358062500000001 0.003712912500000001 0.012366509375000001
v 0.004245278125 0.010650853125 0.013360531250000002
v 0.010578321875 0.023243859375000002 0.014537634374999999
v 0.017258243750000003 0.028097575000000003 0.00944521875
v 0.0040841625 0.01540873125 0.010974871875000002
v 0.017179318750000002 0.03006348125 -0.0007631250000000019
v 0.010448315625000001 0.029874968750000005 -0.0007631250000000019
v 0.010468734375000002 0.028008887500000003 0.00944521875
v 0.0035166312500000004 0.019385987500000004 0.0074958125
v 0.003279340625 0.021042965625000003 -0.0007631250000000014
v 0.004358062500000001 0.003712912500000001 0.012366509375000001
v 0.0038347718750000002 -0.00238899375 0.011060637500000001
v 0.011089065625000002 0.005433415625000002 0.017315306250000002
v 0.011201884375000002 -0.0009395031249999991 0.015347784375000001
v 0.017720209375 0.005563421875000001 0.017315306250000002
v 0.0029042062500000006 -0.00581178125 0.007704090625000001
v 0.017932853125000002 -0.000750990624999999 0.015347784375000001
v 0.024451178125000004 0.005751934375000002 0.012454371875
v 0.011314703125 -0.007312421875 0.011297
v 0.002081234375 -0.0111764125 0.004613125000000002
v 0.025346784375000004 -0.0005624781249999994 0.01048685
v 0.027218125 0.00585825625 0.007130509375000001
v 0.018045671875000002 -0.007123909375000001 0.0077091781250000005
v 0.011527346875 -0.013626800000000001 0.0060888781250000015
v -0.001965734375 -0.015095231250000002 -0.0007631249999999992
v 0.003224821875 -0.01681673125 -0.000763124999999999
v 0.0116095375 -0.017200596875 -0.000763124999999999
v 0.014860106250000001 -0.013820021875 -0.0007631249999999993
v 0.01816918125 -0.011768796875 -0.0007631249999999994
v 0.023313434375 -0.009716162500000002 -0.0007631249999999995
v 0.023410062500000002 -0.0059945875 0.0065531468750000006
v 0.026097946875000003 -0.00712545625 -0.0007631249999999996
v 0.026623231250000004 -0.0006247312499999997 0.0059731375000000005
v 0.02816446875 -0.0005285843750000001 -0.0007631250000000001
v 0.028609109375000004 0.0060026656250000004 -0.0007631250000000005
vt 0.895746 0.392085
vt 0.792306 0.419940
vt 0.851121 0.335712
vt 0.919683 0.429541
vt 0.805131 0.475871
vt 0.731627 0.514932
vt 0.835644 0.537224
vt 0.953671 0.523405
vt 0.967594 0.580423
vt 0.858279 0.633433
vt 0.870940 0.691908
vt 0.982408 0.681538
vt 0.759183 0.653998
vt 0.846788 0.770837
vt 0.984632 0.770199
vt 0.676727 0.616230
vt 0.613246 0.601502
vt 0.616911 0.709538
vt 0.561736 0.673598
vt 0.745819 0.762499
vt 0.851474 0.876775
vt 0.980269 0.850173
vt 0.965164 0.952540
vt 0.853200 0.942437
vt 0.756408 0.873774
vt 0.621246 0.760156
vt 0.762645 0.947741
vt 0.679814 0.884477
vt 0.685605 0.949415
vt 0.570461 0.878723
vt 0.550344 0.777281
vt 0.611052 0.965090
vt 0.521640 0.913683
vt 0.542691 0.974593
vt 0.489800 0.991529
vt 0.792306 0.419940
vt 0.895746 0.392085
vt 0.851121 0.335712
vt 0.919683 0.429541
vt 0.805131 0.475871
vt 0.731627 0.514932
vt 0.835644 0.537224
vt 0.953671 0.523405
vt 0.967594 0.580423
vt 0.858279 0.633433
vt 0.759183 0.653998
vt 0.870940 0.691908
vt 0.982408 0.681538
vt 0.676727 0.616230
vt 0.846788 0.770837
vt 0.984632 0.770199
vt 0.616911 0.709538
vt 0.731627 0.514932
vt 0.613246 0.601502
vt 0.561736 0.673598
vt 0.745819 0.762499
vt 0.851474 0.876775
vt 0.980269 0.850173
vt 0.965164 0.952540
vt 0.853200 0.942437
vt 0.756408 0.873774
vt 0.621246 0.760156
vt 0.762645 0.947741
vt 0.679814 0.884477
vt 0.685605 0.949415
vt 0.570461 0.878723
vt 0.611052 0.965090
vt 0.542691 0.974593
vt 0.521640 0.913683
vt 0.489800 0.991529
vt 0.550344 0.777281
vt 0.621246 0.760156
vt 0.338688 0.580718
vt 0.284754 0.681088
vt 0.216696 0.635448
vt 0.203672 0.507538
vt 0.108803 0.540483
vt 0.351098 0.492799
vt 0.115847 0.444233
vt 0.033279 0.483501
vt 0.018872 0.405577
vt 0.089769 0.384792
vt 0.003873 0.310404
vt 0.224463 0.418779
vt 0.088332 0.251540
vt 0.039122 0.204109
vt 0.204103 0.349665
vt 0.319701 0.411622
vt 0.286788 0.342832
vt 0.164982 0.253528
vt 0.235783 0.242076
vt 0.351172 0.294546
vt 0.122550 0.159311
vt 0.064417 0.127380
vt 0.088657 0.101379
vt 0.177280 0.061655
vt 0.198981 0.136772
vt 0.267744 0.108742
vt 0.246441 0.047586
vt 0.365763 0.075173
vt 0.302045 0.204791
vt 0.356484 0.154469
vt 0.436523 0.125040
vt 0.428435 0.228624
vt 0.508335 0.155302
vt 0.581099 0.220047
vt 0.390815 0.371649
vt 0.482908 0.293111
vt 0.620204 0.288749
vt 0.425891 0.449450
vt 0.391548 0.567287
vt 0.532651 0.386987
vt 0.651079 0.356307
vt 0.620199 0.439557
vt 0.557622 0.535214
vt 0.465531 0.525134
vt 0.489092 0.614755
vt 0.239099 0.690709
vt 0.146266 0.606653
vt 0.115298 0.659660
vt 0.213172 0.719401
vt 0.069253 0.723313
vt 0.287442 0.760899
vt 0.154988 0.784140
vt 0.028558 0.852622
vt 0.209324 0.898496
vt 0.130912 0.877277
vt 0.029012 0.949645
vt 0.125985 0.967231
vt 0.196182 0.987093
vt 0.297862 0.987832
vt 0.297390 0.904679
vt 0.384605 0.974464
vt 0.376483 0.898548
vt 0.489512 0.969000
vt 0.472615 0.888855
vt 0.367939 0.765604
vt 0.306224 0.665172
vt 0.471092 0.825939
vt 0.431651 0.595937
vt 0.358863 0.564792
vt 0.387972 0.688646
vt 0.496133 0.759958
vt 0.542944 0.669186
vt 0.638840 0.278833
vt 0.670174 0.345648
vt 0.772294 0.339565
vt 0.741177 0.269866
vt 0.849434 0.305791
vt 0.600156 0.234280
vt 0.811093 0.235513
vt 0.909082 0.223441
vt 0.700380 0.192034
vt 0.561501 0.169608
vt 0.874155 0.158535
vt 0.951637 0.167858
vt 0.760386 0.126822
vt 0.657680 0.110114
vt 0.479743 0.125097
vt 0.527876 0.056712
vt 0.617999 0.031934
vt 0.673095 0.023884
vt 0.718874 0.018778
vt 0.782972 0.007898
vt 0.812872 0.098609
vt 0.833388 0.002509
vt 0.888917 0.113791
vt 0.925357 0.042093
vt 0.999306 0.087459
vt 0.284754 0.681088
vt 0.338688 0.580718
vt 0.216696 0.635448
vt 0.203672 0.507538
vt 0.108803 0.540483
vt 0.351098 0.492799
vt 0.115847 0.444233
vt 0.033279 0.483501
vt 0.018872 0.405577
vt 0.089769 0.384792
vt 0.003873 0.310404
vt 0.224463 0.418779
vt 0.088332 0.251540
vt 0.039122 0.204109
vt 0.204103 0.349665
vt 0.319701 0.411622
vt 0.286788 0.342832
vt 0.164982 0.253528
vt 0.235783 0.242076
vt 0.351172 0.294546
vt 0.390815 0.371649
vt 0.425891 0.449450
vt 0.391548 0.567287
vt 0.428435 0.228624
vt 0.465531 0.525134
vt 0.489092 0.614755
vt 0.557622 0.535214
vt 0.482908 0.293111
vt 0.532651 0.386987
vt 0.620199 0.439557
vt 0.651079 0.356307
vt 0.620204 0.288749
vt 0.581099 0.220047
vt 0.508335 0.155302
vt 0.436523 0.125040
vt 0.356484 0.154469
vt 0.365763 0.075173
vt 0.302045 0.204791
vt 0.267744 0.108742
vt 0.246441 0.047586
vt 0.177280 0.061655
vt 0.198981 0.136772
vt 0.122550 0.159311
vt 0.088657 0.101379
vt 0.064417 0.127380
vt 0.146266 0.606653
vt 0.239099 0.690709
vt 0.115298 0.659660
vt 0.213172 0.719401
vt 0.069253 0.723313
vt 0.287442 0.760899
vt 0.154988 0.784140
vt 0.028558 0.852622
vt 0.209324 0.898496
vt 0.130912 0.877277
vt 0.125985 0.967231
vt 0.029012 0.949645
vt 0.196182 0.987093
vt 0.297862 0.987832
vt 0.297390 0.904679
vt 0.384605 0.974464
vt 0.376483 0.898548
vt 0.489512 0.969000
vt 0.472615 0.888855
vt 0.367939 0.765604
vt 0.306224 0.665172
vt 0.471092 0.825939
vt 0.358863 0.564792
vt 0.431651 0.595937
vt 0.387972 0.688646
vt 0.496133 0.759958
vt 0.542944 0.669186
vt 0.670174 0.345648
vt 0.638840 0.278833
vt 0.772294 0.339565
vt 0.741177 0.269866
vt 0.849434 0.305791
vt 0.600156 0.234280
vt 0.811093 0.235513
vt 0.909082 0.223441
vt 0.700380 0.192034
vt 0.561501 0.169608
vt 0.874155 0.158535
vt 0.951637 0.167858
vt 0.760386 0.126822
vt 0.657680 0.110114
vt 0.479743 0.125097
vt 0.527876 0.056712
vt 0.617999 0.031934
vt 0.673095 0.023884
vt 0.718874 0.018778
vt 0.782972 0.007898
vt 0.812872 0.098609
vt 0.833388 0.002509
vt 0.888917 0.113791
vt 0.925357 0.042093
vt 0.999306 0.087459
vn -0.995323 0.022171999999999994 -0.094028
vn -0.883137 0.12097399999999997 -0.453248
vn -0.957858 0.283438 -0.04659400000000002
vn -0.993038 0.087473 -0.078892
vn -0.737761 -0.015132000000000041 -0.674892
vn -0.468642 0.09331799999999994 -0.878445
vn -0.736368 0.37270499999999995 -0.564671
vn -0.812986 0.575683 -0.08741900000000004
vn -0.665482 0.745218 -0.04223900000000005
vn -0.592678 0.521326 -0.613964
vn -0.473384 0.724006 -0.50172
vn -0.48112 0.871891 -0.09126400000000005
vn -0.306873 0.25946699999999995 -0.915699
vn -0.144654 0.720913 -0.677761
vn -0.023582 0.995521 -0.09155700000000006
vn -0.250639 -0.4067680000000001 -0.878476
vn -0.178965 -0.10002400000000006 -0.978758
vn -0.074783 -0.20065900000000006 -0.976803
vn -0.045021 -0.12628800000000007 -0.990972
vn 0.010698 0.30130099999999993 -0.953469
vn 0.256326 0.758153 -0.599585
vn 0.348356 0.934854 -0.06853200000000005
vn -0.480604 0.871512 -0.09739800000000005
vn 0.144544 0.733208 -0.664464
vn 0.288383 0.30308299999999994 -0.908282
vn -0.074783 -0.20065900000000006 -0.976803
vn 0.003919 0.2828129999999999 -0.959167
vn 0.301861 0.07776199999999994 -0.950175
vn 0.023792 0.055663999999999936 -0.998166
vn 0.084073 -0.31728000000000006 -0.944598
vn -0.045021 -0.12628800000000007 -0.990972
vn -0.030554 -0.07673600000000005 -0.996583
vn 0.191997 -0.25488000000000005 -0.94772
vn -0.047514 -0.28802600000000006 -0.956443
vn 0.083157 -0.2664560000000001 -0.960253
vn -0.960394 0.10908900000000002 0.256405
vn -0.995323 0.022171999999999994 -0.094028
vn -0.957858 0.283438 -0.04659400000000002
vn -0.993038 0.087473 -0.078892
vn -0.893576 -0.04383999999999997 0.446765
vn -0.750263 0.15654800000000002 0.642338
vn -0.83326 0.392005 0.389886
vn -0.812986 0.575683 -0.08741900000000004
vn -0.665482 0.745218 -0.04223900000000005
vn -0.698361 0.578908 0.42089999999999994
vn -0.49913 0.46064200000000005 0.733947
vn -0.52078 0.802199 0.29200299999999996
vn -0.48112 0.871891 -0.09126400000000005
vn -0.440557 -0.517478 0.733571
vn -0.178905 0.881089 0.43780699999999995
vn -0.023582 0.995521 -0.09155700000000006
vn -0.102722 -0.23615599999999995 0.96627
vn -0.750263 0.15654800000000002 0.642338
vn -0.388878 -0.07254599999999994 0.918429
vn -0.01822 -0.18375799999999995 0.982803
vn 0.014339 0.562285 0.82682
vn 0.303153 0.88093 0.36340199999999995
vn 0.348356 0.934854 -0.06853200000000005
vn -0.480604 0.871512 -0.09739800000000005
vn 0.17372 0.894139 0.4127199999999999
vn 0.461453 0.505516 0.72905
vn -0.102722 -0.23615599999999995 0.96627
vn 0.010498 0.555887 0.831192
vn 0.55273 0.14447800000000005 0.820741
vn 0.038295 0.11526400000000006 0.992596
vn 0.2472 -0.530678 0.810723
vn -0.097382 -0.17478199999999994 0.97978
vn -0.114666 -0.543393 0.83161
vn 0.413243 -0.45103499999999996 0.791074
vn 0.101881 -0.5389 0.836186
vn -0.01822 -0.18375799999999995 0.982803
vn -0.102722 -0.23615599999999995 0.96627
vn -0.059974 0.2903569999999999 -0.955037
vn -0.178965 -0.10002400000000006 -0.978758
vn -0.045021 -0.12628800000000007 -0.990972
vn 0.282957 0.00844999999999994 -0.959095
vn 0.191997 -0.25488000000000005 -0.94772
vn -0.070328 -0.08067900000000006 -0.994256
vn 0.464299 -0.22952900000000007 -0.85542
vn 0.083157 -0.2664560000000001 -0.960253
vn 0.133765 -0.4509520000000001 -0.882468
vn 0.599581 -0.38407100000000005 -0.702134
vn 0.815178 -0.568141 -0.11269899999999995
vn 0.263348 -0.22027800000000006 -0.939215
vn 0.749489 -0.23796700000000004 -0.617768
vn 0.949517 -0.285997 -0.12892899999999996
vn 0.305214 -0.19575900000000004 -0.931946
vn -0.029572 -0.17550800000000005 -0.984034
vn -0.003581 -0.21205100000000005 -0.977252
vn 0.276508 -0.30124600000000007 -0.912575
vn -0.022778 -0.27346800000000004 -0.961611
vn -0.289315 -0.21924400000000005 -0.931788
vn 0.39439 -0.46535200000000004 -0.792404
vn 0.787473 -0.588553 -0.18300599999999997
vn 0.413456 -0.893591 -0.17478299999999994
vn -0.002588 -0.983693 -0.17983799999999994
vn -0.001137 -0.46695800000000004 -0.884279
vn -0.475399 -0.519175 -0.710248
vn -0.623897 -0.771266 -0.12609699999999993
vn -0.918889 -0.384644 -0.08769999999999997
vn -0.327174 -0.29484400000000005 -0.897789
vn -0.768924 -0.32755400000000007 -0.549058
vn -0.874411 -0.483939 -0.03476699999999997
vn -0.689444 -0.2968970000000001 -0.660696
vn -0.86627 -0.482547 -0.12932499999999997
vn -0.968046 0.185759 -0.168464
vn -0.31471 -0.14673600000000006 -0.937778
vn -0.688546 0.06299799999999996 -0.722452
vn -0.926699 0.368368 -0.07438400000000003
vn -0.378714 0.012077999999999943 -0.925435
vn -0.059974 0.2903569999999999 -0.955037
vn -0.803323 0.29322799999999993 -0.518353
vn -0.957858 0.283438 -0.04659400000000002
vn -0.883137 0.12097399999999997 -0.453248
vn -0.468642 0.09331799999999994 -0.878445
vn -0.361884 0.3794139999999999 -0.851519
vn -0.178965 -0.10002400000000006 -0.978758
vn 0.096834 0.762732 -0.639424
vn 0.163867 0.981092 -0.10298800000000005
vn 0.43072 0.89814 -0.08845900000000005
vn 0.412662 0.588597 -0.695172
vn 0.767777 0.636472 -0.07363100000000004
vn 0.123411 0.24764499999999995 -0.960959
vn 0.693106 0.40961299999999995 -0.593146
vn 0.997157 -0.021124000000000004 -0.072332
vn 0.305982 0.061043999999999946 -0.950078
vn 0.700012 -0.06527900000000005 -0.711141
vn 0.972188 -0.213135 -0.09708099999999999
vn 0.816065 -0.23925400000000002 -0.526113
vn 0.420912 -0.11699300000000006 -0.899526
vn 0.149625 -0.09839100000000006 -0.983835
vn 0.114881 0.018471999999999936 -0.993208
vn -0.13092 -0.08753700000000006 -0.987521
vn -0.151866 0.03376299999999994 -0.987824
vn -0.030554 -0.07673600000000005 -0.996583
vn 0.023792 0.055663999999999936 -0.998166
vn -0.230951 0.27774099999999996 -0.932481
vn 0.096834 0.762732 -0.639424
vn 0.003919 0.2828129999999999 -0.959167
vn -0.300806 0.948587 -0.09847900000000005
vn 0.163867 0.981092 -0.10298800000000005
vn -0.477804 0.590812 -0.650111
vn 0.144544 0.733208 -0.664464
vn -0.480604 0.871512 -0.09739800000000005
vn -0.047514 -0.28802600000000006 -0.956443
vn -0.030554 -0.07673600000000005 -0.996583
vn -0.13092 -0.08753700000000006 -0.987521
vn -0.09803 -0.21218200000000006 -0.972301
vn 0.149625 -0.09839100000000006 -0.983835
vn 0.083157 -0.2664560000000001 -0.960253
vn 0.177384 -0.25197800000000004 -0.951337
vn 0.420912 -0.11699300000000006 -0.899526
vn -0.023904 -0.30994200000000005 -0.950455
vn 0.133765 -0.4509520000000001 -0.882468
vn 0.516927 -0.25472300000000003 -0.817253
vn 0.816065 -0.23925400000000002 -0.526113
vn 0.280823 -0.513503 -0.810835
vn 0.173184 -0.518932 -0.837088
vn 0.815178 -0.568141 -0.11269899999999995
vn -0.226483 -0.957828 -0.17683799999999994
vn 0.385262 -0.904718 -0.18181799999999995
vn 0.634957 -0.755446 -0.16165299999999994
vn 0.444226 -0.877713 -0.17967399999999994
vn 0.459638 -0.87097 -0.17361799999999994
vn 0.486605 -0.49963900000000006 -0.716642
vn 0.851007 -0.50497 -0.14419899999999997
vn 0.838941 -0.23046600000000003 -0.493014
vn 0.976621 -0.183946 -0.11124199999999998
vn 0.972188 -0.213135 -0.09708099999999999
vn -0.388878 -0.07254599999999994 0.918429
vn -0.107547 0.509886 0.853492
vn -0.01822 -0.18375799999999995 0.982803
vn 0.539498 0.002086000000000052 0.841985
vn 0.413243 -0.45103499999999996 0.791074
vn -0.150639 -0.17961899999999995 0.972134
vn 0.730577 -0.35160699999999995 0.585346
vn 0.101881 -0.5389 0.836186
vn 0.134031 -0.71496 0.686198
vn 0.759645 -0.486879 0.43114900000000006
vn 0.815178 -0.568141 -0.11269899999999995
vn 0.470536 -0.4080559999999999 0.78236
vn 0.880719 -0.299314 0.367077
vn 0.949517 -0.285997 -0.12892899999999996
vn 0.527352 -0.3753159999999999 0.762258
vn -0.055549 -0.38207199999999997 0.922461
vn -0.001153 -0.4516009999999999 0.89222
vn 0.457765 -0.539539 0.706646
vn -0.044396 -0.544323 0.8377
vn -0.51075 -0.4099999999999999 0.755668
vn -0.577905 -0.28307099999999996 0.765439
vn -0.673839 0.016522000000000044 0.738694
vn -0.107547 0.509886 0.853492
vn -0.836578 -0.352175 0.419655
vn -0.572655 0.575433 0.583904
vn -0.388878 -0.07254599999999994 0.918429
vn -0.750263 0.15654800000000002 0.642338
vn -0.887841 0.054463000000000025 0.456917
vn -0.898191 0.323491 0.297667
vn -0.960394 0.10908900000000002 0.256405
vn -0.957858 0.283438 -0.04659400000000002
vn -0.926699 0.368368 -0.07438400000000003
vn -0.968046 0.185759 -0.168464
vn -0.86627 -0.482547 -0.12932499999999997
vn -0.874411 -0.483939 -0.03476699999999997
vn -0.865537 -0.386489 0.318547
vn -0.918889 -0.384644 -0.08769999999999997
vn -0.514262 -0.516863 0.684388
vn -0.572791 -0.682958 0.45329800000000003
vn -0.623897 -0.771266 -0.12609699999999993
vn -0.002588 -0.983693 -0.17983799999999994
vn -0.003315 -0.755502 0.655138
vn 0.53757 -0.655645 0.530235
vn 0.413456 -0.893591 -0.17478299999999994
vn 0.787473 -0.588553 -0.18300599999999997
vn 0.163867 0.981092 -0.10298800000000005
vn 0.1073 0.907848 0.4053379999999999
vn 0.43072 0.89814 -0.08845900000000005
vn 0.520429 0.705046 0.48172899999999996
vn 0.767777 0.636472 -0.07363100000000004
vn 0.236727 0.4817660000000001 0.843719
vn 0.782498 0.461587 0.41789299999999996
vn 0.997157 -0.021124000000000004 -0.072332
vn 0.594483 0.11737700000000005 0.795495
vn 0.873523 -0.07805999999999998 0.480483
vn 0.923494 -0.265181 0.277197
vn 0.972188 -0.213135 -0.09708099999999999
vn 0.697837 -0.19405399999999995 0.689469
vn 0.30497 -0.21726599999999993 0.927248
vn 0.237954 0.036212000000000064 0.970601
vn -0.271544 -0.19466799999999995 0.942533
vn -0.314001 0.07800100000000006 0.946213
vn -0.097382 -0.17478199999999994 0.97978
vn 0.038295 0.11526400000000006 0.992596
vn -0.393156 0.507693 0.7666
vn 0.1073 0.907848 0.4053379999999999
vn 0.010498 0.555887 0.831192
vn 0.163867 0.981092 -0.10298800000000005
vn -0.300806 0.948587 -0.09847900000000005
vn -0.571537 0.71453 0.4034749999999999
vn 0.17372 0.894139 0.4127199999999999
vn -0.480604 0.871512 -0.09739800000000005
vn -0.097382 -0.17478199999999994 0.97978
vn -0.114666 -0.543393 0.83161
vn -0.271544 -0.19466799999999995 0.942533
vn -0.194261 -0.43491699999999994 0.879267
vn 0.30497 -0.21726599999999993 0.927248
vn 0.101881 -0.5389 0.836186
vn 0.334768 -0.4711679999999999 0.816046
vn 0.697837 -0.19405399999999995 0.689469
vn -0.063333 -0.597333 0.799489
vn 0.134031 -0.71496 0.686198
vn 0.720216 -0.39275299999999996 0.571869
vn 0.923494 -0.265181 0.277197
vn 0.399906 -0.736941 0.54497
vn 0.204958 -0.769121 0.605348
vn 0.815178 -0.568141 -0.11269899999999995
vn -0.226483 -0.957828 -0.17683799999999994
vn 0.385262 -0.904718 -0.18181799999999995
vn 0.634957 -0.755446 -0.16165299999999994
vn 0.444226 -0.877713 -0.17967399999999994
vn 0.459638 -0.87097 -0.17361799999999994
vn 0.606395 -0.657092 0.44778900000000005
vn 0.851007 -0.50497 -0.14419899999999997
vn 0.931807 -0.261215 0.251997
vn 0.976621 -0.183946 -0.11124199999999998
vn 0.972188 -0.213135 -0.09708099999999999
g orig_orig_draufback_stone_south01_big [medium_03_rework_bake_lod1]
f 1/1/1 2/2/2 3/3/3
f 2/2/2 1/1/1 4/4/4
f 5/5/5 2/2/2 4/4/4
f 5/5/5 6/6/6 2/2/2
f 5/5/5 4/4/4 7/7/7
f 5/5/5 7/7/7 6/6/6
f 4/4/4 8/8/8 7/7/7
f 8/8/8 9/9/9 7/7/7
f 6/6/6 7/7/7 10/10/10
f 9/9/9 10/10/10 7/7/7
f 10/10/10 9/9/9 11/11/11
f 9/9/9 12/12/12 11/11/11
f 13/13/13 6/6/6 10/10/10
f 10/10/10 11/11/11 13/13/13
f 11/11/11 12/12/12 14/14/14
f 13/13/13 11/11/11 14/14/14
f 12/12/12 15/15/15 14/14/14
f 13/13/13 16/16/16 6/6/6
f 6/6/6 16/16/16 17/17/17
f 17/17/17 16/16/16 18/18/18
f 16/16/16 13/13/13 18/18/18
f 17/17/17 18/18/18 19/19/19
f 13/13/13 20/20/20 18/18/18
f 20/20/20 13/13/13 14/14/14
f 14/14/14 15/15/15 21/21/21
f 20/20/20 14/14/14 21/21/21
f 15/15/15 22/22/22 21/21/21
f 22/22/22 23/23/23 24/24/24
f 21/21/21 22/22/22 24/24/24
f 25/25/25 20/20/20 21/21/21
f 25/25/25 21/21/21 24/24/24
f 26/26/26 20/20/20 25/25/25
f 27/27/27 25/25/25 24/24/24
f 28/28/28 25/25/25 27/27/27
f 28/28/28 26/26/26 25/25/25
f 29/29/29 28/28/28 27/27/27
f 30/30/30 26/26/26 28/28/28
f 30/30/30 28/28/28 29/29/29
f 31/31/31 26/26/26 30/30/30
f 32/32/32 30/30/30 29/29/29
f 31/31/31 30/30/30 33/33/33
f 34/34/34 30/30/30 32/32/32
f 33/33/33 30/30/30 34/34/34
f 35/35/35 33/33/33 34/34/34
f 36/36/36 37/37/37 38/38/38
f 37/37/37 36/36/36 39/39/39
f 36/36/36 40/40/40 39/39/39
f 41/41/41 40/40/40 36/36/36
f 39/39/39 40/40/40 42/42/42
f 42/42/42 40/40/40 41/41/41
f 43/43/43 39/39/39 42/42/42
f 44/44/44 43/43/43 42/42/42
f 42/42/42 41/41/41 45/45/45
f 45/45/45 44/44/44 42/42/42
f 41/41/41 46/46/46 45/45/45
f 44/44/44 45/45/45 47/47/47
f 47/47/47 45/45/45 46/46/46
f 48/48/48 44/44/44 47/47/47
f 49/49/49 46/46/46 41/41/41
f 48/48/48 47/47/47 50/50/50
f 47/47/47 46/46/46 50/50/50
f 51/51/51 48/48/48 50/50/50
f 46/46/46 49/49/49 52/52/52
f 49/49/49 53/53/53 54/54/54
f 49/49/49 54/54/54 52/52/52
f 52/52/52 54/54/54 55/55/55
f 56/56/56 46/46/46 52/52/52
f 46/46/46 56/56/56 50/50/50
f 51/51/51 50/50/50 57/57/57
f 50/50/50 56/56/56 57/57/57
f 58/58/58 51/51/51 57/57/57
f 59/59/59 58/58/58 60/60/60
f 58/58/58 57/57/57 60/60/60
f 56/56/56 61/61/61 57/57/57
f 57/57/57 61/61/61 60/60/60
f 56/56/56 62/62/62 61/61/61
f 61/61/61 63/63/63 60/60/60
f 62/62/62 64/64/64 61/61/61
f 61/61/61 64/64/64 63/63/63
f 64/64/64 65/65/65 63/63/63
f 62/62/62 66/66/66 64/64/64
f 64/64/64 66/66/66 65/65/65
f 66/66/66 67/67/67 65/65/65
f 66/66/66 68/68/68 67/67/67
f 69/69/69 70/70/70 68/68/68
f 66/66/66 69/69/69 68/68/68
f 66/66/66 71/71/71 69/69/69
f 72/72/72 71/71/71 66/66/66
f 73/73/73 74/74/74 75/75/75
f 73/73/73 75/75/75 76/76/76
f 76/76/76 75/75/75 77/77/77
f 78/78/78 73/73/73 76/76/76
f 76/76/76 77/77/77 79/79/79
f 79/79/79 77/77/77 80/80/80
f 81/81/81 79/79/79 80/80/80
f 82/82/82 79/79/79 81/81/81
f 82/82/82 81/81/81 83/83/83
f 84/84/84 76/76/76 79/79/79
f 84/84/84 79/79/79 82/82/82
f 85/85/85 82/82/82 83/83/83
f 86/86/86 85/85/85 83/83/83
f 87/87/87 84/84/84 82/82/82
f 82/82/82 85/85/85 87/87/87
f 84/84/84 88/88/88 76/76/76
f 88/88/88 78/78/78 76/76/76
f 87/87/87 89/89/89 84/84/84
f 89/89/89 88/88/88 84/84/84
f 87/87/87 85/85/85 90/90/90
f 91/91/91 89/89/89 87/87/87
f 87/87/87 90/90/90 91/91/91
f 89/89/89 92/92/92 88/88/88
f 92/92/92 89/89/89 91/91/91
f 90/90/90 85/85/85 93/93/93
f 93/93/93 85/85/85 86/86/86
f 94/94/94 93/93/93 86/86/86
f 93/93/93 94/94/94 95/95/95
f 96/96/96 93/93/93 95/95/95
f 90/90/90 93/93/93 97/97/97
f 97/97/97 93/93/93 96/96/96
f 97/97/97 91/91/91 90/90/90
f 98/98/98 97/97/97 96/96/96
f 99/99/99 98/98/98 96/96/96
f 98/98/98 99/99/99 100/100/100
f 101/101/101 91/91/91 97/97/97
f 97/97/97 98/98/98 101/101/101
f 91/91/91 101/101/101 92/92/92
f 100/100/100 102/102/102 98/98/98
f 102/102/102 101/101/101 98/98/98
f 92/92/92 101/101/101 102/102/102
f 100/100/100 103/103/103 102/102/102
f 103/103/103 104/104/104 102/102/102
f 104/104/104 92/92/92 102/102/102
f 104/104/104 103/103/103 105/105/105
f 104/104/104 105/105/105 106/106/106
f 92/92/92 104/104/104 107/107/107
f 92/92/92 107/107/107 88/88/88
f 88/88/88 107/107/107 78/78/78
f 108/108/108 104/104/104 106/106/106
f 104/104/104 108/108/108 107/107/107
f 108/108/108 106/106/106 109/109/109
f 107/107/107 110/110/110 78/78/78
f 107/107/107 108/108/108 110/110/110
f 78/78/78 110/110/110 111/111/111
f 112/112/112 108/108/108 109/109/109
f 108/108/108 112/112/112 110/110/110
f 109/109/109 113/113/113 112/112/112
f 112/112/112 113/113/113 114/114/114
f 115/115/115 112/112/112 114/114/114
f 110/110/110 116/116/116 111/111/111
f 112/112/112 116/116/116 110/110/110
f 116/116/116 112/112/112 115/115/115
f 111/111/111 116/116/116 117/117/117
f 116/116/116 115/115/115 117/117/117
f 118/118/118 119/119/119 120/120/120
f 121/121/121 118/118/118 120/120/120
f 120/120/120 122/122/122 121/121/121
f 123/123/123 118/118/118 121/121/121
f 122/122/122 124/124/124 121/121/121
f 124/124/124 122/122/122 125/125/125
f 124/124/124 126/126/126 121/121/121
f 126/126/126 123/123/123 121/121/121
f 127/127/127 124/124/124 125/125/125
f 126/126/126 124/124/124 127/127/127
f 128/128/128 129/129/129 125/125/125
f 129/129/129 127/127/127 125/125/125
f 129/129/129 130/130/130 127/127/127
f 130/130/130 126/126/126 127/127/127
f 130/130/130 131/131/131 126/126/126
f 131/131/131 132/132/132 126/126/126
f 132/132/132 123/123/123 126/126/126
f 131/131/131 133/133/133 132/132/132
f 133/133/133 134/134/134 132/132/132
f 132/132/132 134/134/134 123/123/123
f 133/133/133 135/135/135 134/134/134
f 135/135/135 136/136/136 134/134/134
f 134/134/134 137/137/137 123/123/123
f 134/134/134 136/136/136 137/137/137
f 123/123/123 137/137/137 138/138/138
f 136/136/136 139/139/139 137/137/137
f 140/140/140 141/141/141 138/138/138
f 137/137/137 139/139/139 142/142/142
f 137/137/137 142/142/142 138/138/138
f 142/142/142 140/140/140 138/138/138
f 139/139/139 143/143/143 142/142/142
f 144/144/144 140/140/140 142/142/142
f 143/143/143 144/144/144 142/142/142
f 145/145/145 146/146/146 147/147/147
f 148/148/148 145/145/145 147/147/147
f 148/148/148 147/147/147 149/149/149
f 150/150/150 145/145/145 148/148/148
f 151/151/151 148/148/148 149/149/149
f 151/151/151 149/149/149 152/152/152
f 153/153/153 150/150/150 148/148/148
f 153/153/153 148/148/148 151/151/151
f 154/154/154 150/150/150 153/153/153
f 155/155/155 151/151/151 152/152/152
f 155/155/155 152/152/152 156/156/156
f 157/157/157 153/153/153 151/151/151
f 157/157/157 151/151/151 155/155/155
f 158/158/158 154/154/154 153/153/153
f 153/153/153 157/157/157 158/158/158
f 159/159/159 154/154/154 160/160/160
f 160/160/160 154/154/154 158/158/158
f 160/160/160 158/158/158 161/161/161
f 158/158/158 162/162/162 161/161/161
f 162/162/162 158/158/158 157/157/157
f 163/163/163 162/162/162 157/157/157
f 163/163/163 157/157/157 164/164/164
f 157/157/157 165/165/165 164/164/164
f 165/165/165 157/157/157 155/155/155
f 165/165/165 166/166/166 164/164/164
f 167/167/167 165/165/165 155/155/155
f 166/166/166 165/165/165 167/167/167
f 167/167/167 155/155/155 156/156/156
f 167/167/167 168/168/168 166/166/166
f 167/167/167 156/156/156 169/169/169
f 168/168/168 167/167/167 169/169/169
f 170/170/170 171/171/171 172/172/172
f 172/172/172 171/171/171 173/173/173
f 172/172/172 173/173/173 174/174/174
f 171/171/171 175/175/175 173/173/173
f 174/174/174 173/173/173 176/176/176
f 174/174/174 176/176/176 177/177/177
f 176/176/176 178/178/178 177/177/177
f 176/176/176 179/179/179 178/178/178
f 178/178/178 179/179/179 180/180/180
f 173/173/173 181/181/181 176/176/176
f 176/176/176 181/181/181 179/179/179
f 179/179/179 182/182/182 180/180/180
f 182/182/182 183/183/183 180/180/180
f 181/181/181 184/184/184 179/179/179
f 182/182/182 179/179/179 184/184/184
f 185/185/185 181/181/181 173/173/173
f 175/175/175 185/185/185 173/173/173
f 186/186/186 184/184/184 181/181/181
f 185/185/185 186/186/186 181/181/181
f 182/182/182 184/184/184 187/187/187
f 184/184/184 186/186/186 188/188/188
f 188/188/188 187/187/187 184/184/184
f 189/189/189 186/186/186 185/185/185
f 188/188/188 186/186/186 189/189/189
f 190/190/190 185/185/185 175/175/175
f 190/190/190 189/189/189 185/185/185
f 191/191/191 190/190/190 175/175/175
f 191/191/191 175/175/175 192/192/192
f 193/193/193 189/189/189 190/190/190
f 194/194/194 191/191/191 192/192/192
f 194/194/194 192/192/192 195/195/195
f 196/196/196 194/194/194 195/195/195
f 197/197/197 190/190/190 191/191/191
f 197/197/197 193/193/193 190/190/190
f 194/194/194 198/198/198 191/191/191
f 198/198/198 194/194/194 196/196/196
f 198/198/198 197/197/197 191/191/191
f 198/198/198 196/196/196 199/199/199
f 200/200/200 198/198/198 199/199/199
f 200/200/200 201/201/201 198/198/198
f 197/197/197 198/198/198 201/201/201
f 202/202/202 197/197/197 201/201/201
f 193/193/193 197/197/197 202/202/202
f 203/203/203 193/193/193 202/202/202
f 204/204/204 193/193/193 203/203/203
f 193/193/193 204/204/204 205/205/205
f 189/189/189 193/193/193 205/205/205
f 204/204/204 206/206/206 205/205/205
f 207/207/207 189/189/189 205/205/205
f 189/189/189 207/207/207 188/188/188
f 205/205/205 206/206/206 208/208/208
f 207/207/207 205/205/205 208/208/208
f 209/209/209 208/208/208 206/206/206
f 208/208/208 209/209/209 210/210/210
f 211/211/211 188/188/188 207/207/207
f 207/207/207 208/208/208 211/211/211
f 211/211/211 208/208/208 210/210/210
f 187/187/187 188/188/188 211/211/211
f 212/212/212 211/211/211 210/210/210
f 211/211/211 212/212/212 187/187/187
f 212/212/212 210/210/210 213/213/213
f 182/182/182 187/187/187 212/212/212
f 214/214/214 212/212/212 213/213/213
f 182/182/182 212/212/212 183/183/183
f 212/212/212 214/214/214 183/183/183
f 215/215/215 216/216/216 217/217/217
f 216/216/216 218/218/218 217/217/217
f 219/219/219 217/217/217 218/218/218
f 216/216/216 220/220/220 218/218/218
f 221/221/221 219/219/219 218/218/218
f 219/219/219 221/221/221 222/222/222
f 223/223/223 221/221/221 218/218/218
f 220/220/220 223/223/223 218/218/218
f 221/221/221 224/224/224 222/222/222
f 221/221/221 223/223/223 224/224/224
f 225/225/225 226/226/226 222/222/222
f 224/224/224 225/225/225 222/222/222
f 227/227/227 225/225/225 224/224/224
f 223/223/223 227/227/227 224/224/224
f 228/228/228 227/227/227 223/223/223
f 229/229/229 228/228/228 223/223/223
f 220/220/220 229/229/229 223/223/223
f 230/230/230 228/228/228 229/229/229
f 231/231/231 230/230/230 229/229/229
f 231/231/231 229/229/229 220/220/220
f 232/232/232 230/230/230 231/231/231
f 233/233/233 232/232/232 231/231/231
f 234/234/234 231/231/231 220/220/220
f 233/233/233 231/231/231 234/234/234
f 234/234/234 220/220/220 235/235/235
f 236/236/236 233/233/233 234/234/234
f 237/237/237 238/238/238 235/235/235
f 236/236/236 234/234/234 239/239/239
f 239/239/239 234/234/234 235/235/235
f 238/238/238 239/239/239 235/235/235
f 240/240/240 236/236/236 239/239/239
f 238/238/238 241/241/241 239/239/239
f 241/241/241 240/240/240 239/239/239
f 242/242/242 243/243/243 244/244/244
f 243/243/243 245/245/245 244/244/244
f 244/244/244 245/245/245 246/246/246
f 243/243/243 247/247/247 245/245/245
f 245/245/245 248/248/248 246/246/246
f 246/246/246 248/248/248 249/249/249
f 247/247/247 250/250/250 245/245/245
f 245/245/245 250/250/250 248/248/248
f 247/247/247 251/251/251 250/250/250
f 248/248/248 252/252/252 249/249/249
f 249/249/249 252/252/252 253/253/253
f 250/250/250 254/254/254 248/248/248
f 248/248/248 254/254/254 252/252/252
f 251/251/251 255/255/255 250/250/250
f 254/254/254 250/250/250 255/255/255
f 251/251/251 256/256/256 257/257/257
f 255/255/255 251/251/251 257/257/257
f 255/255/255 257/257/257 258/258/258
f 259/259/259 255/255/255 258/258/258
f 255/255/255 259/259/259 254/254/254
f 259/259/259 260/260/260 254/254/254
f 254/254/254 260/260/260 261/261/261
f 262/262/262 254/254/254 261/261/261
f 254/254/254 262/262/262 252/252/252
f 263/263/263 262/262/262 261/261/261
f 262/262/262 264/264/264 252/252/252
f 262/262/262 263/263/263 264/264/264
f 252/252/252 264/264/264 253/253/253
f 265/265/265 264/264/264 263/263/263
f 253/253/253 264/264/264 266/266/266
f 264/264/264 265/265/265 266/266/266
