v -0.008611075000000001 0.008106312500000004 0.06068947500000001
v -0.0450901 -0.007387049999999999 0.038662525
v -0.004534887500000001 -0.04461215 0.0491442875
v -0.06276050000000001 -0.0060831374999999995 0.019600900000000004
v -0.0078852125 -0.05434013750000001 0.019600900000000008
v -0.006902637500000001 -0.044313500000000006 -0.012378987499999999
v -0.0532588375 -0.005426437500000002 -0.0123789875
v -0.0078852125 -0.05434013750000001 0.019600900000000008
v -0.006902637500000001 -0.044313500000000006 -0.012378987499999999
v 0.0293481375 -0.028207025 -0.012378987499999999
v 0.033689562500000006 -0.034290025 0.019600900000000008
v -0.004534887500000001 -0.04461215 0.0491442875
v 0.0293481375 -0.028207025 -0.012378987499999999
v 0.048289725000000006 -0.002936725000000001 -0.0123789875
v 0.020476225 -0.011335499999999997 0.049257587500000005
v -0.008611075000000001 0.008106312500000004 0.06068947500000001
v 0.058964812500000005 -0.004666062499999999 0.019600900000000004
v 0.0343242625 0.04021572500000001 -0.012378987500000002
v 0.048289725000000006 -0.002936725000000001 -0.0123789875
v 0.038276425 0.0473779625 0.0196009
v 0.044900350000000006 0.008079637500000004 0.049257587500000005
v 0.029846437500000003 0.032263687500000006 0.04564972500000001
v 0.038276425 0.0473779625 0.0196009
v 0.0343242625 0.04021572500000001 -0.012378987500000002
v -0.018936912500000003 0.044755425 -0.012378987500000002
v -0.022644325000000003 0.052570650000000003 0.0196009
v -0.018936912500000003 0.044755425 -0.012378987500000002
v -0.0532588375 -0.005426437500000002 -0.0123789875
v -0.06276050000000001 -0.0060831374999999995 0.019600900000000004
v -0.0450901 -0.007387049999999999 0.038662525
v -0.015336887500000002 0.03611506250000001 0.036740275
v 0.029846437500000003 0.032263687500000006 0.04564972500000001
v -0.008611075000000001 0.008106312500000004 0.06068947500000001
vt 0.396040 0.074314
vt 0.627770 0.035309
vt 0.543860 0.308020
vt 0.760899 0.038741
vt 0.670125 0.395178
vt 0.820592 0.392419
vt 0.919209 0.100781
vt 0.238582 0.813480
vt 0.106997 0.803740
vt 0.036426 0.611619
vt 0.167073 0.573666
vt 0.391512 0.724560
vt 0.018814 0.481580
vt 0.026246 0.288081
vt 0.389838 0.477390
vt 0.583822 0.439999
vt 0.162916 0.350768
vt 0.228689 0.051317
vt 0.026246 0.288081
vt 0.353256 0.104420
vt 0.344740 0.329145
vt 0.457303 0.228376
vt 0.522926 0.944627
vt 0.409350 0.884974
vt 0.497297 0.666223
vt 0.625510 0.695056
vt 0.577439 0.538985
vt 0.874120 0.369880
vt 0.964242 0.511045
vt 0.984855 0.654757
vt 0.732032 0.763991
vt 0.683835 0.962830
vt 0.892305 0.859883
vn -0.090479 0.12782400000000005 0.987661
vn -0.643846 0.12225600000000005 0.755325
vn -0.088014 -0.642777 0.76098
vn -0.900809 -0.393787 0.18296400000000002
vn -0.007782 -0.998888 -0.04650299999999994
vn -0.335395 -0.901638 -0.27305599999999997
vn -0.948837 0.14811699999999997 -0.278873
vn -0.007782 -0.998888 -0.04650299999999994
vn -0.335395 -0.901638 -0.27305599999999997
vn 0.54604 -0.802169 -0.24158899999999994
vn 0.651035 -0.727543 0.21641500000000005
vn -0.088014 -0.642777 0.76098
vn 0.54604 -0.802169 -0.24158899999999994
vn 0.895561 -0.337879 -0.289496
vn 0.398506 -0.3889619999999999 0.830603
vn -0.090479 0.12782400000000005 0.987661
vn 0.999183 -0.038491 0.012361000000000002
vn 0.731619 0.624912 -0.27243200000000006
vn 0.895561 -0.337879 -0.289496
vn 0.479323 0.846126 0.23306699999999994
vn 0.622939 -0.05220299999999995 0.780527
vn 0.212119 0.626288 0.750179
vn 0.479323 0.846126 0.23306699999999994
vn 0.731619 0.624912 -0.27243200000000006
vn -0.24 0.936241 -0.25661900000000004
vn -0.569287 0.775528 0.27288799999999996
vn -0.24 0.936241 -0.25661900000000004
vn -0.948837 0.14811699999999997 -0.278873
vn -0.900809 -0.393787 0.18296400000000002
vn -0.643846 0.12225600000000005 0.755325
vn -0.265815 0.661807 0.700966
vn 0.212119 0.626288 0.750179
vn -0.090479 0.12782400000000005 0.987661
g orig_orig_orig_draufback_stone_south01_big
f 1/1/1 2/2/2 3/3/3
f 3/3/3 2/2/2 4/4/4
f 3/3/3 4/4/4 5/5/5
f 6/6/6 5/5/5 4/4/4
f 4/4/4 7/7/7 6/6/6
f 8/8/8 9/9/9 10/10/10
f 10/10/10 11/11/11 8/8/8
f 12/12/12 8/8/8 11/11/11
f 11/11/11 13/13/13 14/14/14
f 15/15/15 12/12/12 11/11/11
f 16/16/16 12/12/12 15/15/15
f 17/17/17 14/14/14 18/18/18
f 19/19/19 17/17/17 11/11/11
f 18/18/18 20/20/20 17/17/17
f 21/21/21 15/15/15 11/11/11
f 21/21/21 11/11/11 17/17/17
f 16/16/16 15/15/15 21/21/21
f 21/21/21 17/17/17 20/20/20
f 21/21/21 22/22/22 16/16/16
f 20/20/20 22/22/22 21/21/21
f 23/23/23 24/24/24 25/25/25
f 25/25/25 26/26/26 23/23/23
f 26/26/26 27/27/27 28/28/28
f 28/28/28 29/29/29 26/26/26
f 26/26/26 29/29/29 30/30/30
f 23/23/23 26/26/26 31/31/31
f 30/30/30 31/31/31 26/26/26
f 31/31/31 32/32/32 23/23/23
f 33/33/33 31/31/31 30/30/30
f 33/33/33 32/32/32 31/31/31
