v 0.0293481375 -0.02864345 -0.01222925
v -0.006902637500000001 -0.0447500625 -0.01222925
v -0.00411015 -0.037785962500000006 -0.0324335
v 0.0248543625 -0.023817337500000008 -0.032433500000000004
v -0.00177595 -0.031008587500000007 -0.04617772500000001
v 0.015648875 -0.007825262500000004 -0.046230387500000004
v -0.004615875000000001 0.0057194499999999975 -0.051548750000000004
v 0.048289725000000006 -0.0033730125000000014 -0.012229250000000002
v 0.0293481375 -0.02864345 -0.01222925
v 0.032664775 0.005700887499999997 -0.046230387500000004
v 0.022176962500000005 0.02254945 -0.044551925000000006
v 0.028049862500000005 0.0330792 -0.032433500000000004
v 0.042463162500000005 -0.003178725000000002 -0.032433500000000004
v 0.0343242625 0.0397791625 -0.012229250000000004
v -0.030030137500000005 -0.005074575000000003 -0.041301425
v -0.004615875000000001 0.0057194499999999975 -0.051548750000000004
v -0.00177595 -0.031008587500000007 -0.04617772500000001
v -0.042340787500000004 -0.004166250000000002 -0.032433500000000004
v -0.00411015 -0.037785962500000006 -0.0324335
v -0.006902637500000001 -0.0447500625 -0.01222925
v -0.0532588375 -0.005863000000000001 -0.012229250000000002
v -0.008611075000000001 0.007669887500000004 0.060764962500000005
v -0.0450901 -0.007823474999999998 0.0387380125
v -0.004534887500000001 -0.045048575 0.04921977500000001
v -0.06276050000000001 -0.006519562499999999 0.019676387500000003
v -0.0078852125 -0.0547765625 0.019676387500000007
v -0.006902637500000001 -0.0447500625 -0.01222925
v -0.0532588375 -0.005863000000000001 -0.012229250000000002
v -0.0078852125 -0.0547765625 0.019676387500000007
v -0.006902637500000001 -0.0447500625 -0.01222925
v 0.0293481375 -0.02864345 -0.01222925
v 0.033689562500000006 -0.034726450000000006 0.019676387500000007
v -0.004534887500000001 -0.045048575 0.04921977500000001
v 0.0293481375 -0.02864345 -0.01222925
v 0.048289725000000006 -0.0033730125000000014 -0.012229250000000002
v 0.020476225 -0.011771924999999997 0.049333075000000004
v -0.008611075000000001 0.007669887500000004 0.060764962500000005
v 0.058964812500000005 -0.005102349999999999 0.019676387500000003
v 0.0343242625 0.0397791625 -0.012229250000000004
v 0.048289725000000006 -0.0033730125000000014 -0.012229250000000002
v 0.038276425 0.046941537500000005 0.0196763875
v 0.044900350000000006 0.007643212500000003 0.049333075000000004
v 0.029846437500000003 0.031827400000000006 0.0457252125
v -0.018936912500000003 0.044319000000000004 -0.012229250000000004
v 0.0343242625 0.0397791625 -0.012229250000000004
v 0.028049862500000005 0.0330792 -0.032433500000000004
v -0.014392537500000002 0.0366971 -0.032433500000000004
v -0.0532588375 -0.005863000000000001 -0.012229250000000002
v -0.018936912500000003 0.044319000000000004 -0.012229250000000004
v -0.042340787500000004 -0.004166250000000002 -0.032433500000000004
v -0.030030137500000005 -0.005074575000000003 -0.041301425
v -0.0093016 0.025232624999999998 -0.04040712500000001
v 0.022176962500000005 0.02254945 -0.044551925000000006
v -0.004615875000000001 0.0057194499999999975 -0.051548750000000004
v 0.038276425 0.046941537500000005 0.0196763875
v 0.0343242625 0.0397791625 -0.012229250000000004
v -0.018936912500000003 0.044319000000000004 -0.012229250000000004
v -0.022644325000000003 0.052134225000000006 0.019676525
v -0.018936912500000003 0.044319000000000004 -0.012229250000000004
v -0.0532588375 -0.005863000000000001 -0.012229250000000002
v -0.06276050000000001 -0.006519562499999999 0.019676387500000003
v -0.0450901 -0.007823474999999998 0.0387380125
v -0.015336887500000002 0.035678637500000006 0.0368159
v 0.029846437500000003 0.031827400000000006 0.0457252125
v -0.008611075000000001 0.007669887500000004 0.060764962500000005
vt 0.036426 0.611619
vt 0.106997 0.803740
vt 0.238582 0.813480
vt 0.167073 0.573666
vt 0.391512 0.724560
vt 0.389838 0.477390
vt 0.583822 0.439999
vt 0.026246 0.288081
vt 0.018814 0.481580
vt 0.344740 0.329145
vt 0.457303 0.228376
vt 0.353256 0.104420
vt 0.162916 0.350768
vt 0.228689 0.051317
vt 0.627770 0.035309
vt 0.396040 0.074314
vt 0.543860 0.308020
vt 0.760899 0.038741
vt 0.670125 0.395178
vt 0.820592 0.392419
vt 0.919209 0.100781
vt 0.396040 0.074314
vt 0.627770 0.035309
vt 0.543860 0.308020
vt 0.760899 0.038741
vt 0.670125 0.395178
vt 0.820592 0.392419
vt 0.919209 0.100781
vt 0.238582 0.813480
vt 0.106997 0.803740
vt 0.036426 0.611619
vt 0.167073 0.573666
vt 0.391512 0.724560
vt 0.018814 0.481580
vt 0.026246 0.288081
vt 0.389838 0.477390
vt 0.583822 0.439999
vt 0.162916 0.350768
vt 0.228689 0.051317
vt 0.026246 0.288081
vt 0.353256 0.104420
vt 0.344740 0.329145
vt 0.457303 0.228376
vt 0.497297 0.666223
vt 0.409350 0.884974
vt 0.522926 0.944627
vt 0.625510 0.695056
vt 0.874120 0.369880
vt 0.577439 0.538985
vt 0.964242 0.511045
vt 0.984855 0.654757
vt 0.732032 0.763991
vt 0.683835 0.962830
vt 0.892305 0.859883
vt 0.522926 0.944627
vt 0.409350 0.884974
vt 0.497297 0.666223
vt 0.625510 0.695056
vt 0.577439 0.538985
vt 0.874120 0.369880
vt 0.964242 0.511045
vt 0.984855 0.654757
vt 0.732032 0.763991
vt 0.683835 0.962830
vt 0.892305 0.859883
vn 0.541479 -0.797136 -0.2671609999999999
vn -0.324945 -0.889837 -0.32031299999999996
vn -0.000677 -0.9227 -0.38551799999999997
vn 0.567265 -0.639157 -0.519316
vn -0.073743 -0.534125 -0.842183
vn 0.304731 -0.29691100000000004 -0.904977
vn -0.073381 0.09790299999999995 -0.992487
vn 0.895616 -0.336648 -0.290759
vn 0.541479 -0.797136 -0.2671609999999999
vn 0.508339 -0.029287000000000053 -0.860659
vn 0.172018 0.49938799999999994 -0.84913
vn 0.406588 0.705608 -0.580347
vn 0.89586 -0.028006000000000027 -0.443454
vn 0.720407 0.613527 -0.32341600000000004
vn -0.498405 0.09412399999999994 -0.861819
vn -0.073381 0.09790299999999995 -0.992487
vn -0.073743 -0.534125 -0.842183
vn -0.729262 -0.33301700000000006 -0.597726
vn -0.000677 -0.9227 -0.38551799999999997
vn -0.324945 -0.889837 -0.32031299999999996
vn -0.916192 0.14473799999999998 -0.373689
vn -0.090479 0.12782400000000005 0.987661
vn -0.643846 0.12225600000000005 0.755325
vn -0.088014 -0.642777 0.76098
vn -0.900862 -0.39381 0.18264800000000003
vn -0.007787 -0.998869 -0.04689899999999994
vn -0.324945 -0.889837 -0.32031299999999996
vn -0.916192 0.14473799999999998 -0.373689
vn -0.007787 -0.998869 -0.04689899999999994
vn -0.324945 -0.889837 -0.32031299999999996
vn 0.541479 -0.797136 -0.2671609999999999
vn 0.651067 -0.727582 0.21618800000000005
vn -0.088014 -0.642777 0.76098
vn 0.541479 -0.797136 -0.2671609999999999
vn 0.895616 -0.336648 -0.290759
vn 0.398506 -0.3889619999999999 0.830603
vn -0.090479 0.12782400000000005 0.987661
vn 0.999187 -0.038489 0.011960000000000002
vn 0.720407 0.613527 -0.32341600000000004
vn 0.895616 -0.336648 -0.290759
vn 0.479358 0.84617 0.23283599999999993
vn 0.622939 -0.05220299999999995 0.780527
vn 0.212119 0.626288 0.750179
vn -0.233401 0.916939 -0.32364600000000004
vn 0.720407 0.613527 -0.32341600000000004
vn 0.406588 0.705608 -0.580347
vn -0.450496 0.614293 -0.647841
vn -0.916192 0.14473799999999998 -0.373689
vn -0.233401 0.916939 -0.32364600000000004
vn -0.729262 -0.33301700000000006 -0.597726
vn -0.498405 0.09412399999999994 -0.861819
vn -0.207757 0.526745 -0.824243
vn 0.172018 0.49938799999999994 -0.84913
vn -0.073381 0.09790299999999995 -0.992487
vn 0.479358 0.84617 0.23283599999999993
vn 0.720407 0.613527 -0.32341600000000004
vn -0.233401 0.916939 -0.32364600000000004
vn -0.569334 0.775591 0.27261099999999994
vn -0.233401 0.916939 -0.32364600000000004
vn -0.916192 0.14473799999999998 -0.373689
vn -0.900862 -0.39381 0.18264800000000003
vn -0.643846 0.12225600000000005 0.755325
vn -0.265815 0.661807 0.700966
vn 0.212119 0.626288 0.750179
vn -0.090479 0.12782400000000005 0.987661
g Material #0
f 1/1/1 2/2/2 3/3/3
f 3/3/3 4/4/4 1/1/1
f 3/3/3 5/5/5 4/4/4
f 5/5/5 6/6/6 4/4/4
f 5/5/5 7/7/7 6/6/6
f 8/8/8 9/9/9 4/4/4
f 10/10/10 6/6/6 7/7/7
f 6/6/6 10/10/10 4/4/4
f 7/7/7 11/11/11 10/10/10
f 10/10/10 11/11/11 12/12/12
f 4/4/4 13/13/13 8/8/8
f 4/4/4 10/10/10 13/13/13
f 12/12/12 13/13/13 10/10/10
f 14/14/14 8/8/8 13/13/13
f 13/13/13 12/12/12 14/14/14
f 15/15/15 16/16/16 17/17/17
f 15/15/15 17/17/17 18/18/18
f 18/18/18 17/17/17 19/19/19
f 18/18/18 19/19/19 20/20/20
f 20/20/20 21/21/21 18/18/18
f 22/22/22 23/23/23 24/24/24
f 24/24/24 23/23/23 25/25/25
f 24/24/24 25/25/25 26/26/26
f 27/27/27 26/26/26 25/25/25
f 25/25/25 28/28/28 27/27/27
f 29/29/29 30/30/30 31/31/31
f 31/31/31 32/32/32 29/29/29
f 33/33/33 29/29/29 32/32/32
f 32/32/32 34/34/34 35/35/35
f 36/36/36 33/33/33 32/32/32
f 37/37/37 33/33/33 36/36/36
f 38/38/38 35/35/35 39/39/39
f 40/40/40 38/38/38 32/32/32
f 39/39/39 41/41/41 38/38/38
f 42/42/42 36/36/36 32/32/32
f 42/42/42 32/32/32 38/38/38
f 37/37/37 36/36/36 42/42/42
f 42/42/42 38/38/38 41/41/41
f 42/42/42 43/43/43 37/37/37
f 41/41/41 43/43/43 42/42/42
f 44/44/44 45/45/45 46/46/46
f 46/46/46 47/47/47 44/44/44
f 48/48/48 49/49/49 47/47/47
f 47/47/47 50/50/50 48/48/48
f 51/51/51 50/50/50 47/47/47
f 52/52/52 47/47/47 46/46/46
f 47/47/47 52/52/52 51/51/51
f 46/46/46 53/53/53 52/52/52
f 52/52/52 54/54/54 51/51/51
f 53/53/53 54/54/54 52/52/52
f 55/55/55 56/56/56 57/57/57
f 57/57/57 58/58/58 55/55/55
f 58/58/58 59/59/59 60/60/60
f 60/60/60 61/61/61 58/58/58
f 58/58/58 61/61/61 62/62/62
f 55/55/55 58/58/58 63/63/63
f 62/62/62 63/63/63 58/58/58
f 63/63/63 64/64/64 55/55/55
f 65/65/65 63/63/63 62/62/62
f 65/65/65 64/64/64 63/63/63
