v 0.42894 0.06482500000000001 0.320388
v 0.42894 0.064825 -0.03859200000000001
v 0.319342 0.111818 -0.03859200000000001
v 0.319342 0.11181800000000001 0.320388
v 0.42894 0.06482500000000001 0.320388
v -0.425798 -0.003169999999999993 0.116427
v -0.426236 -0.0029220000000000023 -0.038592
v -0.420601 -0.11144 -0.038591999999999994
v -0.42128 -0.11181799999999999 0.116021
v -0.425798 -0.003169999999999993 0.116427
v 0.42894 0.06482499999999994 -0.99585
v 0.42894 0.06482499999999997 -0.517221
v 0.168487 -0.10442100000000003 -0.517221
v 0.175895 -0.10629500000000006 -0.99585
v 0.168487 -0.10442100000000003 -0.517221
v -0.418498 -0.11026700000000003 -0.517221
v -0.416395 -0.10909500000000005 -0.99585
v 0.175895 -0.10629500000000006 -0.99585
v 0.42894 0.064825 -0.03859200000000001
v 0.42894 0.06482499999999997 -0.517221
v 0.319342 0.11181799999999997 -0.517221
v 0.319342 0.111818 -0.03859200000000001
v -0.426236 -0.0029220000000000023 -0.038592
v -0.427588 -0.0021560000000000316 -0.517221
v -0.418498 -0.11026700000000003 -0.517221
v -0.420601 -0.11144 -0.038591999999999994
v 0.319342 0.11181799999999997 -0.517221
v 0.141792 0.0031489999999999682 -0.517221
v 0.149478 0.005517999999999998 -0.038592
v 0.319342 0.111818 -0.03859200000000001
v 0.141792 0.0031489999999999682 -0.517221
v -0.427588 -0.0021560000000000316 -0.517221
v -0.426236 -0.0029220000000000023 -0.038592
v 0.149478 0.005517999999999998 -0.038592
v 0.42894 0.06482499999999997 -0.517221
v 0.42894 0.064825 -0.03859200000000001
v 0.161078 -0.102546 -0.038591999999999994
v 0.168487 -0.10442100000000003 -0.517221
v 0.161078 -0.102546 -0.038591999999999994
v -0.420601 -0.11144 -0.038591999999999994
v -0.418498 -0.11026700000000003 -0.517221
v 0.168487 -0.10442100000000003 -0.517221
v 0.42894 0.06482499999999997 -0.517221
v 0.42894 0.06482499999999994 -0.99585
v 0.319342 0.11181799999999995 -0.99585
v 0.319342 0.11181799999999997 -0.517221
v -0.427588 -0.0021560000000000316 -0.517221
v -0.42894 -0.001390000000000061 -0.99585
v -0.416395 -0.10909500000000005 -0.99585
v -0.418498 -0.11026700000000003 -0.517221
v 0.319342 0.11181799999999995 -0.99585
v 0.134106 0.000779999999999939 -0.99585
v 0.141792 0.0031489999999999682 -0.517221
v 0.319342 0.11181799999999997 -0.517221
v 0.134106 0.000779999999999939 -0.99585
v -0.42894 -0.001390000000000061 -0.99585
v -0.427588 -0.0021560000000000316 -0.517221
v 0.141792 0.0031489999999999682 -0.517221
v -0.426236 -0.0029220000000000023 -0.038592
v -0.425798 -0.003169999999999993 0.116427
v -0.113088 0.0018050000000000106 0.17268
v 0.149478 0.005517999999999998 -0.038592
v 0.153572 0.006780000000000011 0.190969
v 0.319342 0.111818 -0.03859200000000001
v 0.319342 0.11181800000000001 0.320388
v 0.42894 0.064825 -0.03859200000000001
v 0.42894 0.06482500000000001 0.320388
v 0.157145 -0.10155199999999999 0.215547
v 0.161078 -0.102546 -0.038591999999999994
v -0.109042 -0.10668499999999999 0.197461
v -0.420601 -0.11144 -0.038591999999999994
v -0.42128 -0.11181799999999999 0.116021
v -0.113088 0.0018050000000000106 0.17268
v -0.425798 -0.003169999999999993 0.116427
v -0.42128 -0.11181799999999999 0.116021
v -0.109042 -0.10668499999999999 0.197461
v 0.153572 0.006780000000000011 0.190969
v 0.157145 -0.10155199999999999 0.215547
v 0.319342 0.11181800000000001 0.320388
v 0.42894 0.06482500000000001 0.320388
vt 0.412565 0.240029
vt 0.467764 0.176816
vt 0.478124 0.213103
vt 0.423924 0.275017
vt 0.412565 0.240029
vt 0.393487 0.558270
vt 0.388704 0.612296
vt 0.369974 0.605484
vt 0.374952 0.551852
vt 0.393487 0.558270
vt 0.830236 0.654010
vt 0.830236 0.507146
vt 0.897115 0.507146
vt 0.897115 0.654010
vt 0.886914 0.507146
vt 0.978353 0.507146
vt 0.978353 0.654010
vt 0.886914 0.654010
vt 0.559926 0.832668
vt 0.559926 0.982875
vt 0.541270 0.982875
vt 0.541270 0.832668
vt 0.559926 0.832668
vt 0.559926 0.982875
vt 0.541270 0.982875
vt 0.541270 0.832668
vt 0.886806 0.653969
vt 0.841339 0.653969
vt 0.841339 0.507105
vt 0.886806 0.507105
vt 0.830291 0.653969
vt 0.738852 0.653969
vt 0.738852 0.507105
vt 0.830291 0.507105
vt 0.830236 0.653969
vt 0.830236 0.507105
vt 0.897115 0.507105
vt 0.897115 0.653969
vt 0.886914 0.507105
vt 0.978353 0.507105
vt 0.978353 0.653969
vt 0.886914 0.653969
vt 0.559926 0.832668
vt 0.559926 0.982875
vt 0.541270 0.982875
vt 0.541270 0.832668
vt 0.559926 0.832668
vt 0.559926 0.982875
vt 0.541270 0.982875
vt 0.541270 0.832668
vt 0.886806 0.654010
vt 0.841339 0.654010
vt 0.841339 0.507146
vt 0.886806 0.507146
vt 0.830291 0.654010
vt 0.738852 0.654010
vt 0.738852 0.507146
vt 0.830291 0.507146
vt -0.523886 0.978825
vt -0.523930 0.928164
vt -0.574965 0.902341
vt -0.618679 0.978824
vt -0.618355 0.896240
vt -0.670048 0.978823
vt -0.669984 0.860921
vt 0.329843 0.978823
vt 0.330093 0.861540
vt 0.381895 0.896114
vt 0.381239 0.978824
vt 0.425229 0.902045
vt 0.475926 0.978825
vt 0.476054 0.927916
vt 0.401460 0.446753
vt 0.393487 0.558270
vt 0.374952 0.551852
vt 0.382332 0.439063
vt 0.407872 0.351228
vt 0.391599 0.347389
vt 0.423924 0.275017
vt 0.412565 0.240029
vn 0.34231 0.798347 0.49544499999999997
vn 0.394076 0.919078 -5.627729654333755E-17
vn 0.394076 0.919078 -5.627729654333755E-17
vn -0.224725 0.38751100000000005 0.894055
vn 0.34231 0.798347 0.49544499999999997
vn -0.910448 -0.04372199999999997 0.411305
vn -0.998044 -0.062512 0.00030100000000000385
vn -0.998825 -0.048421 -0.002089999999999997
vn -0.593934 0.06420500000000005 0.801947
vn -0.910448 -0.04372199999999997 0.411305
vn 0.552543 -0.833463 0.005957000000000051
vn 0.539902 -0.841719 0.003906000000000052
vn 0.291003 -0.956709 0.005089000000000059
vn 0.295182 -0.955405 0.008310000000000059
vn 0.291003 -0.956709 0.005089000000000059
vn 0.011736 -0.999931 -0.00023899999999993878
vn 0.007344 -0.999973 0.0007920000000000612
vn 0.295182 -0.955405 0.008310000000000059
vn 0.394076 0.919078 -5.627729654333755E-17
vn 0.394076 0.919078 -5.627729654333755E-17
vn 0.394076 0.919078 -5.627729654333755E-17
vn 0.394076 0.919078 -5.627729654333755E-17
vn -0.998044 -0.062512 0.00030100000000000385
vn -0.995531 -0.094435 0.00023900000000000578
vn -0.997318 -0.073154 -0.0021389999999999955
vn -0.998825 -0.048421 -0.002089999999999997
vn -0.524854 0.851191 0.001386999999999948
vn -0.275035 0.961434 4.999999999994113E-05
vn -0.281986 0.959418 -0.00027000000000005877
vn -0.532069 0.846699 0.0016009999999999482
vn -0.275035 0.961434 4.999999999994113E-05
vn -0.007496 0.999972 -0.0005200000000000612
vn -0.013709 0.999906 -0.0005210000000000612
vn -0.281986 0.959418 -0.00027000000000005877
vn 0.539902 -0.841719 0.003906000000000052
vn 0.5273 -0.84967 0.003840000000000052
vn 0.246807 -0.969055 0.004315000000000059
vn 0.291003 -0.956709 0.005089000000000059
vn 0.246807 -0.969055 0.004315000000000059
vn 0.015877 -0.999873 -0.0015969999999999387
vn 0.011736 -0.999931 -0.00023899999999993878
vn 0.291003 -0.956709 0.005089000000000059
vn 0.394076 0.919078 -5.627729654333755E-17
vn 0.394076 0.919078 -5.627729654333755E-17
vn 0.394076 0.919078 -5.627729654333755E-17
vn 0.394076 0.919078 -5.627729654333755E-17
vn -0.995531 -0.094435 0.00023900000000000578
vn -0.993281 -0.115695 0.002620000000000007
vn -0.995012 -0.099754 -0.000981999999999994
vn -0.997318 -0.073154 -0.0021389999999999955
vn -0.518091 0.855323 0.0020059999999999475
vn -0.181463 0.983398 0.00028299999999993977
vn -0.275035 0.961434 4.999999999994113E-05
vn -0.524854 0.851191 0.001386999999999948
vn -0.181463 0.983398 0.00028299999999993977
vn -0.003854 0.999991 0.0016109999999999389
vn -0.007496 0.999972 -0.0005200000000000612
vn -0.275035 0.961434 4.999999999994113E-05
vn -0.013709 0.999906 -0.0005210000000000612
vn -0.016202 0.999867 0.0016469999999999389
vn -0.016386 0.999865 -0.001388000000000061
vn -0.281986 0.959418 -0.00027000000000005877
vn -0.373508 0.927627 -0.0001260000000000568
vn -0.532069 0.846699 0.0016009999999999482
vn -0.535237 0.844702 -5.172308002666837E-17
vn 0.5273 -0.84967 0.003840000000000052
vn 0.522089 -0.852891 5.222451165857926E-17
vn 0.368616 -0.929566 0.005414000000000058
vn 0.246807 -0.969055 0.004315000000000059
vn 0.017113 -0.999853 0.0006000000000000612
vn 0.015877 -0.999873 -0.0015969999999999387
vn 0.017058 -0.999852 -0.002372999999999939
vn -0.167355 0.13962100000000005 0.97596
vn -0.910448 -0.04372199999999997 0.411305
vn -0.593934 0.06420500000000005 0.801947
vn -0.130913 0.21574600000000005 0.967634
vn -0.281775 0.20384200000000005 0.937577
vn -0.31746 0.006953000000000058 0.948246
vn -0.224725 0.38751100000000005 0.894055
vn 0.34231 0.798347 0.49544499999999997
g 10 - Default
f 1/1/1 2/2/2 3/3/3
f 3/3/3 4/4/4 5/5/5
f 6/6/6 7/7/7 8/8/8
f 8/8/8 9/9/9 10/10/10
f 11/11/11 12/12/12 13/13/13
f 13/13/13 14/14/14 11/11/11
f 15/15/15 16/16/16 17/17/17
f 17/17/17 18/18/18 15/15/15
f 19/19/19 20/20/20 21/21/21
f 21/21/21 22/22/22 19/19/19
f 23/23/23 24/24/24 25/25/25
f 25/25/25 26/26/26 23/23/23
f 27/27/27 28/28/28 29/29/29
f 29/29/29 30/30/30 27/27/27
f 31/31/31 32/32/32 33/33/33
f 33/33/33 34/34/34 31/31/31
f 35/35/35 36/36/36 37/37/37
f 37/37/37 38/38/38 35/35/35
f 39/39/39 40/40/40 41/41/41
f 41/41/41 42/42/42 39/39/39
f 43/43/43 44/44/44 45/45/45
f 45/45/45 46/46/46 43/43/43
f 47/47/47 48/48/48 49/49/49
f 49/49/49 50/50/50 47/47/47
f 51/51/51 52/52/52 53/53/53
f 53/53/53 54/54/54 51/51/51
f 55/55/55 56/56/56 57/57/57
f 57/57/57 58/58/58 55/55/55
f 59/59/59 60/60/60 61/61/61
f 61/61/61 62/62/62 59/59/59
f 61/61/61 63/63/63 62/62/62
f 64/64/64 62/62/62 63/63/63
f 63/63/63 65/65/65 64/64/64
f 66/66/66 67/67/67 68/68/68
f 68/68/68 69/69/69 66/66/66
f 69/69/69 68/68/68 70/70/70
f 71/71/71 69/69/69 70/70/70
f 70/70/70 72/72/72 71/71/71
f 73/73/73 74/74/74 75/75/75
f 75/75/75 76/76/76 73/73/73
f 77/77/77 73/73/73 76/76/76
f 76/76/76 78/78/78 77/77/77
f 79/79/79 77/77/77 78/78/78
f 78/78/78 80/80/80 79/79/79
