v -0.228647 -0.05311999999999999 0.213475
v -0.155015 -0.05311999999999999 0.188123
v -0.154481 0.05311900000000001 0.188123
v -0.154481 0.05311900000000001 0.188123
v -0.228647 0.05311900000000001 0.213475
v -0.228647 -0.05311999999999999 0.213475
v -0.136925 -0.053119999999999994 0.073292
v -0.135858 0.053119000000000006 0.073292
v -0.154481 0.05311900000000001 0.188123
v -0.154481 0.05311900000000001 0.188123
v -0.155015 -0.05311999999999999 0.188123
v -0.136925 -0.053119999999999994 0.073292
v -0.045202 -0.053119999999999994 0.079961
v -0.043068 0.053119000000000006 0.079961
v -0.135858 0.053119000000000006 0.073292
v -0.135858 0.053119000000000006 0.073292
v -0.136925 -0.053119999999999994 0.073292
v -0.045202 -0.053119999999999994 0.079961
v -0.021242 -0.05311999999999999 0.173741
v -0.016973 0.05311900000000001 0.173741
v -0.043068 0.053119000000000006 0.079961
v -0.043068 0.053119000000000006 0.079961
v -0.045202 -0.053119999999999994 0.079961
v -0.021242 -0.05311999999999999 0.173741
v 0.154486 -0.053119999999999994 0.147984
v 0.245272 0.053119000000000006 0.147984
v -0.016973 0.05311900000000001 0.173741
v -0.016973 0.05311900000000001 0.173741
v -0.021242 -0.05311999999999999 0.173741
v 0.154486 -0.053119999999999994 0.147984
v 0.154486 -0.05312 -0.038592
v 0.154486 -0.053120000000000035 -0.521066
v 0.245272 0.053118999999999965 -0.521066
v 0.245272 0.053119 -0.038592
v -0.238676 -0.053120000000000035 -0.522806
v 0.154486 -0.053120000000000035 -0.521066
v 0.154486 -0.05312 -0.038592
v -0.232081 -0.05312 -0.038592
v 0.245272 0.053119 -0.038592
v 0.245272 0.053118999999999965 -0.521066
v -0.238676 0.053118999999999965 -0.522806
v -0.232081 0.053119 -0.038592
v -0.232081 0.053119 -0.038592
v -0.238676 0.053118999999999965 -0.522806
v -0.238676 -0.053120000000000035 -0.522806
v -0.232081 -0.05312 -0.038592
v 0.154486 -0.053119999999999994 0.147984
v 0.154486 -0.05312 -0.038592
v 0.245272 0.053119 -0.038592
v 0.245272 0.053119000000000006 0.147984
v -0.228647 0.05311900000000001 0.213475
v -0.232081 0.053119 -0.038592
v -0.232081 -0.05312 -0.038592
v -0.228647 -0.05311999999999999 0.213475
v 0.154486 -0.053120000000000035 -0.521066
v 0.154486 -0.05312000000000006 -1.00354
v 0.245272 0.05311899999999994 -1.00354
v 0.245272 0.053118999999999965 -0.521066
v -0.245272 -0.05312000000000006 -1.007019
v 0.154486 -0.05312000000000006 -1.00354
v 0.154486 -0.053120000000000035 -0.521066
v -0.238676 -0.053120000000000035 -0.522806
v -0.245272 0.05311899999999994 -1.007019
v -0.238676 0.053118999999999965 -0.522806
v 0.245272 0.053118999999999965 -0.521066
v 0.245272 0.05311899999999994 -1.00354
v -0.245272 0.05311899999999994 -1.007019
v -0.245272 -0.05312000000000006 -1.007019
v -0.238676 -0.053120000000000035 -0.522806
v -0.238676 0.053118999999999965 -0.522806
v -0.228647 0.05311900000000001 0.213475
v -0.154481 0.05311900000000001 0.188123
v -0.135858 0.053119000000000006 0.073292
v -0.232081 0.053119 -0.038592
v -0.043068 0.053119000000000006 0.079961
v 0.245272 0.053119 -0.038592
v -0.016973 0.05311900000000001 0.173741
v 0.245272 0.053119000000000006 0.147984
v -0.155015 -0.05311999999999999 0.188123
v -0.228647 -0.05311999999999999 0.213475
v -0.232081 -0.05312 -0.038592
v -0.136925 -0.053119999999999994 0.073292
v -0.045202 -0.053119999999999994 0.079961
v 0.154486 -0.05312 -0.038592
v 0.154486 -0.053119999999999994 0.147984
v -0.021242 -0.05311999999999999 0.173741
vt 0.695165 0.564928
vt 0.704351 0.564831
vt 0.704500 0.602478
vt 0.704500 0.602478
vt 0.695258 0.602575
vt 0.695165 0.564928
vt 0.721827 0.564648
vt 0.722003 0.602294
vt 0.704500 0.602478
vt 0.704500 0.602478
vt 0.704351 0.564831
vt 0.721827 0.564648
vt 0.735622 0.564503
vt 0.735665 0.602151
vt 0.722003 0.602294
vt 0.722003 0.602294
vt 0.721827 0.564648
vt 0.735622 0.564503
vt 0.376435 0.149871
vt 0.373903 0.187189
vt 0.357939 0.183662
vt 0.357939 0.183662
vt 0.360061 0.146254
vt 0.376435 0.149871
vt 0.401396 0.155387
vt 0.410503 0.195276
vt 0.373903 0.187189
vt 0.373903 0.187189
vt 0.376435 0.149871
vt 0.401396 0.155387
vt 0.559926 0.832668
vt 0.559926 0.982875
vt 0.541270 0.982875
vt 0.541270 0.832668
vt 0.978353 0.653969
vt 0.916480 0.653969
vt 0.916480 0.507105
vt 0.978353 0.507105
vt 0.978353 0.507105
vt 0.978353 0.653969
vt 0.912457 0.653969
vt 0.912457 0.507105
vt 0.559926 0.832668
vt 0.559926 0.982875
vt 0.541270 0.982875
vt 0.541270 0.832668
vt 0.401396 0.155387
vt 0.445710 0.165178
vt 0.443643 0.202598
vt 0.410503 0.195276
vt 0.695258 0.602575
vt 0.665116 0.602892
vt 0.665028 0.565245
vt 0.695165 0.564928
vt 0.559926 0.832668
vt 0.559926 0.982875
vt 0.541270 0.982875
vt 0.541270 0.832668
vt 0.978353 0.654010
vt 0.916480 0.654010
vt 0.916480 0.507146
vt 0.978353 0.507146
vt 0.912457 0.654010
vt 0.912457 0.507146
vt 0.978353 0.507146
vt 0.978353 0.654010
vt 0.559926 0.982875
vt 0.541270 0.982875
vt 0.541270 0.832668
vt 0.559926 0.832668
vt 0.080550 0.911226
vt 0.068661 0.919354
vt 0.065676 0.956169
vt 0.081101 0.992039
vt 0.050802 0.954031
vt 0.004581 0.992039
vt 0.046619 0.923965
vt 0.004581 0.932222
vt 1.068655 0.918454
vt 1.080605 0.910225
vt 1.081162 0.992039
vt 1.065720 0.955724
vt 1.050834 0.953560
vt 1.004501 0.992039
vt 1.004501 0.931482
vt 1.046946 0.923122
vn 0.325554 -0.001634999999999942 0.945522
vn 0.325554 -0.001634999999999942 0.945522
vn 0.325554 -0.001634999999999942 0.945522
vn 0.323459 5.79406118259395E-17 0.946242
vn 0.323459 5.79406118259395E-17 0.946242
vn 0.323459 5.79406118259395E-17 0.946242
vn 0.987053 -0.009913999999999989 0.160087
vn 0.987053 -0.009913999999999989 0.160087
vn 0.987053 -0.009913999999999989 0.160087
vn 0.987805 -0.004960999999999991 0.155619
vn 0.987805 -0.004960999999999991 0.155619
vn 0.987805 -0.004960999999999991 0.155619
vn -0.071677 0.0014400000000000612 0.997427
vn -0.071677 0.0014400000000000612 0.997427
vn -0.071677 0.0014400000000000612 0.997427
vn -0.072507 0.0007280000000000611 0.997368
vn -0.072507 0.0007280000000000611 0.997368
vn -0.072507 0.0007280000000000611 0.997368
vn -0.962679 0.03867800000000001 0.267868
vn -0.962679 0.03867800000000001 0.267868
vn -0.962679 0.03867800000000001 0.267868
vn -0.968693 0.019460000000000015 0.247496
vn -0.968693 0.019460000000000015 0.247496
vn -0.968693 0.019460000000000015 0.247496
vn 0.097407 -0.08323899999999994 0.991758
vn 0.097407 -0.08323899999999994 0.991758
vn 0.097407 -0.08323899999999994 0.991758
vn 0.145021 -0.005826999999999939 0.989412
vn 0.145021 -0.005826999999999939 0.989412
vn 0.145021 -0.005826999999999939 0.989412
vn 0.760231 -0.649654 3.977983458266373E-17
vn 0.76023 -0.649654 3.977983458266373E-17
vn 0.760231 -0.649654 3.977983458266373E-17
vn 0.76023 -0.649653 3.9779773350323777E-17
vn -0 -1 6.123233995736766E-17
vn -0 -1 6.123233995736766E-17
vn -0 -1 6.123233995736766E-17
vn -0 -1 6.123233995736766E-17
vn 0 1 -6.123233995736766E-17
vn 0 1 -6.123233995736766E-17
vn 0 1 -6.123233995736766E-17
vn 0 1 -6.123233995736766E-17
vn -0.999907 8.339844702193476E-19 0.01362
vn -0.999907 8.339844702193476E-19 0.01362
vn -0.999907 8.339844702193476E-19 0.01362
vn -0.999907 8.339844702193476E-19 0.01362
vn 0.76023 -0.649653 3.9779773350323777E-17
vn 0.760231 -0.649654 3.977983458266373E-17
vn 0.76023 -0.649653 3.9779773350323777E-17
vn 0.76023 -0.649653 3.9779773350323777E-17
vn -0.999907 8.339232378793901E-19 0.013619
vn -0.999907 8.339232378793901E-19 0.013619
vn -0.999907 8.339232378793901E-19 0.013619
vn -0.999907 8.339232378793901E-19 0.013619
vn 0.76023 -0.649654 3.977983458266373E-17
vn 0.76023 -0.649654 3.977983458266373E-17
vn 0.76023 -0.649654 3.977983458266373E-17
vn 0.760231 -0.649654 3.977983458266373E-17
vn -0 -1 6.123233995736766E-17
vn -0 -1 6.123233995736766E-17
vn -0 -1 6.123233995736766E-17
vn -0 -1 6.123233995736766E-17
vn 0 1 -6.123233995736766E-17
vn 0 1 -6.123233995736766E-17
vn 0 1 -6.123233995736766E-17
vn 0 1 -6.123233995736766E-17
vn -0.999907 8.339844702193476E-19 0.01362
vn -0.999907 8.339844702193476E-19 0.01362
vn -0.999907 8.339844702193476E-19 0.01362
vn -0.999907 8.339844702193476E-19 0.01362
vn 0 1 -6.123233995736766E-17
vn 0 1 -6.123233995736766E-17
vn 0 1 -6.123233995736766E-17
vn 0 1 -6.123233995736766E-17
vn 0 1 -6.123233995736766E-17
vn 0 1 -6.123233995736766E-17
vn 0 1 -6.123233995736766E-17
vn 0 1 -6.123233995736766E-17
vn -0 -1 6.123233995736766E-17
vn -0 -1 6.123233995736766E-17
vn -0 -1 6.123233995736766E-17
vn -0 -1 6.123233995736766E-17
vn -0 -1 6.123233995736766E-17
vn -0 -1 6.123233995736766E-17
vn -0 -1 6.123233995736766E-17
vn -0 -1 6.123233995736766E-17
g 10 - Default
f 1/1/1 2/2/2 3/3/3
f 4/4/4 5/5/5 6/6/6
f 7/7/7 8/8/8 9/9/9
f 10/10/10 11/11/11 12/12/12
f 13/13/13 14/14/14 15/15/15
f 16/16/16 17/17/17 18/18/18
f 19/19/19 20/20/20 21/21/21
f 22/22/22 23/23/23 24/24/24
f 25/25/25 26/26/26 27/27/27
f 28/28/28 29/29/29 30/30/30
f 31/31/31 32/32/32 33/33/33
f 33/33/33 34/34/34 31/31/31
f 35/35/35 36/36/36 37/37/37
f 37/37/37 38/38/38 35/35/35
f 39/39/39 40/40/40 41/41/41
f 41/41/41 42/42/42 39/39/39
f 43/43/43 44/44/44 45/45/45
f 45/45/45 46/46/46 43/43/43
f 47/47/47 48/48/48 49/49/49
f 49/49/49 50/50/50 47/47/47
f 51/51/51 52/52/52 53/53/53
f 53/53/53 54/54/54 51/51/51
f 55/55/55 56/56/56 57/57/57
f 57/57/57 58/58/58 55/55/55
f 59/59/59 60/60/60 61/61/61
f 61/61/61 62/62/62 59/59/59
f 63/63/63 64/64/64 65/65/65
f 65/65/65 66/66/66 63/63/63
f 67/67/67 68/68/68 69/69/69
f 69/69/69 70/70/70 67/67/67
f 71/71/71 72/72/72 73/73/73
f 73/73/73 74/74/74 71/71/71
f 74/74/74 73/73/73 75/75/75
f 75/75/75 76/76/76 74/74/74
f 76/76/76 75/75/75 77/77/77
f 77/77/77 78/78/78 76/76/76
f 79/79/79 80/80/80 81/81/81
f 81/81/81 82/82/82 79/79/79
f 83/83/83 82/82/82 81/81/81
f 81/81/81 84/84/84 83/83/83
f 83/83/83 84/84/84 85/85/85
f 85/85/85 86/86/86 83/83/83
