v -0.387453 0.061894 -0.03859200000000001
v -0.386862 0.06298500000000001 0.160027
v -0.268386 0.060452000000000006 0.167921
v 0.247836 -0.059495999999999986 0.219739
v 0.277429 -0.060142999999999995 0.092134
v 0.275225 0.06012200000000001 0.092946
v 0.378443 0.061069 -0.03859200000000001
v 0.275225 0.06012200000000001 0.092946
v 0.277429 -0.060142999999999995 0.092134
v 0.277429 -0.060142999999999995 0.092134
v 0.385723 -0.058264 -0.038591999999999994
v 0.378443 0.061069 -0.03859200000000001
v 0.275225 0.06012200000000001 0.092946
v -0.268386 0.060452000000000006 0.167921
v -0.089557 0.03242600000000002 0.252047
v -0.089557 0.03242600000000002 0.252047
v 0.135423 0.03444800000000001 0.201305
v 0.275225 0.06012200000000001 0.092946
v -0.267007 -0.06020099999999999 0.167616
v 0.277429 -0.060142999999999995 0.092134
v 0.247836 -0.059495999999999986 0.219739
v 0.247836 -0.059495999999999986 0.219739
v -0.086946 -0.061686999999999985 0.270684
v -0.267007 -0.06020099999999999 0.167616
v 0.38036 0.06185099999999994 -0.99585
v 0.379402 0.061459999999999966 -0.517221
v 0.387493 -0.05748800000000003 -0.517221
v 0.387493 -0.05748800000000003 -0.517221
v 0.390299 -0.05671100000000006 -0.99585
v 0.38036 0.06185099999999994 -0.99585
v 0.390299 -0.05671100000000006 -0.99585
v 0.387493 -0.05748800000000003 -0.517221
v -0.383311 -0.06080500000000003 -0.517221
v -0.383311 -0.06080500000000003 -0.517221
v -0.380904 -0.06298500000000005 -0.99585
v 0.390299 -0.05671100000000006 -0.99585
v -0.387453 0.061894 -0.03859200000000001
v -0.388876 0.05926399999999996 -0.517221
v -0.383311 -0.06080500000000003 -0.517221
v -0.383311 -0.06080500000000003 -0.517221
v -0.385717 -0.058624 -0.038591999999999994
v -0.387453 0.061894 -0.03859200000000001
v 0.378443 0.061069 -0.03859200000000001
v 0.379402 0.061459999999999966 -0.517221
v -0.388876 0.05926399999999996 -0.517221
v -0.388876 0.05926399999999996 -0.517221
v -0.387453 0.061894 -0.03859200000000001
v 0.378443 0.061069 -0.03859200000000001
v 0.379402 0.061459999999999966 -0.517221
v 0.378443 0.061069 -0.03859200000000001
v 0.385723 -0.058264 -0.038591999999999994
v 0.385723 -0.058264 -0.038591999999999994
v 0.387493 -0.05748800000000003 -0.517221
v 0.379402 0.061459999999999966 -0.517221
v -0.387453 0.061894 -0.03859200000000001
v -0.385717 -0.058624 -0.038591999999999994
v -0.386715 -0.057719999999999994 0.159824
v -0.386715 -0.057719999999999994 0.159824
v -0.386862 0.06298500000000001 0.160027
v -0.387453 0.061894 -0.03859200000000001
v 0.275225 0.06012200000000001 0.092946
v 0.378443 0.061069 -0.03859200000000001
v -0.387453 0.061894 -0.03859200000000001
v -0.387453 0.061894 -0.03859200000000001
v -0.268386 0.060452000000000006 0.167921
v 0.275225 0.06012200000000001 0.092946
v 0.387493 -0.05748800000000003 -0.517221
v 0.385723 -0.058264 -0.038591999999999994
v -0.385717 -0.058624 -0.038591999999999994
v -0.385717 -0.058624 -0.038591999999999994
v -0.383311 -0.06080500000000003 -0.517221
v 0.387493 -0.05748800000000003 -0.517221
v -0.089557 0.03242600000000002 0.252047
v -0.268386 0.060452000000000006 0.167921
v -0.267007 -0.06020099999999999 0.167616
v -0.267007 -0.06020099999999999 0.167616
v -0.086946 -0.061686999999999985 0.270684
v -0.089557 0.03242600000000002 0.252047
v -0.268386 0.060452000000000006 0.167921
v -0.386862 0.06298500000000001 0.160027
v -0.386715 -0.057719999999999994 0.159824
v -0.386715 -0.057719999999999994 0.159824
v -0.267007 -0.06020099999999999 0.167616
v -0.268386 0.060452000000000006 0.167921
v 0.247836 -0.059495999999999986 0.219739
v 0.275225 0.06012200000000001 0.092946
v 0.135423 0.03444800000000001 0.201305
v 0.135423 0.03444800000000001 0.201305
v -0.089557 0.03242600000000002 0.252047
v -0.086946 -0.061686999999999985 0.270684
v -0.086946 -0.061686999999999985 0.270684
v 0.247836 -0.059495999999999986 0.219739
v 0.135423 0.03444800000000001 0.201305
v -0.388876 0.05926399999999996 -0.517221
v -0.390299 0.05663299999999994 -0.99585
v -0.380904 -0.06298500000000005 -0.99585
v -0.380904 -0.06298500000000005 -0.99585
v -0.383311 -0.06080500000000003 -0.517221
v -0.388876 0.05926399999999996 -0.517221
v 0.379402 0.061459999999999966 -0.517221
v 0.38036 0.06185099999999994 -0.99585
v -0.390299 0.05663299999999994 -0.99585
v -0.390299 0.05663299999999994 -0.99585
v -0.388876 0.05926399999999996 -0.517221
v 0.379402 0.061459999999999966 -0.517221
v -0.385717 -0.058624 -0.038591999999999994
v 0.385723 -0.058264 -0.038591999999999994
v -0.386715 -0.057719999999999994 0.159824
v 0.385723 -0.058264 -0.038591999999999994
v -0.267007 -0.06020099999999999 0.167616
v -0.386715 -0.057719999999999994 0.159824
v 0.385723 -0.058264 -0.038591999999999994
v 0.277429 -0.060142999999999995 0.092134
v -0.267007 -0.06020099999999999 0.167616
vt 0.661589 0.017845
vt 0.661472 0.080885
vt 0.642666 0.083365
vt 0.711925 0.621622
vt 0.729977 0.653271
vt 0.715636 0.684011
vt 0.736266 0.725190
vt 0.715636 0.684011
vt 0.729977 0.653271
vt 0.729977 0.653271
vt 0.751535 0.696003
vt 0.736266 0.725190
vt 0.563721 0.059448
vt 0.642666 0.083365
vt 0.614197 0.111101
vt 0.614197 0.111101
vt 0.578494 0.094957
vt 0.563721 0.059448
vt 1.642369 0.083515
vt 1.563260 0.059556
vt 1.578494 0.094957
vt 1.578494 0.094957
vt 1.613924 0.111373
vt 1.642369 0.083515
vt 0.560091 0.981446
vt 0.560091 0.832882
vt 0.541000 0.832882
vt 0.541000 0.832882
vt 0.541000 0.981446
vt 0.560091 0.981446
vt 0.978353 0.654010
vt 0.978353 0.507146
vt 0.860001 0.507146
vt 0.860001 0.507146
vt 0.860001 0.654010
vt 0.978353 0.654010
vt 0.560091 0.832840
vt 0.560091 0.981405
vt 0.541000 0.981405
vt 0.541000 0.981405
vt 0.541000 0.832840
vt 0.560091 0.832840
vt 0.978353 0.507105
vt 0.978353 0.653969
vt 0.860001 0.653969
vt 0.860001 0.653969
vt 0.860001 0.507105
vt 0.978353 0.507105
vt 0.560091 0.981405
vt 0.560091 0.832840
vt 0.541000 0.832840
vt 0.541000 0.832840
vt 0.541000 0.981405
vt 0.560091 0.981405
vt 0.562200 0.676371
vt 0.559617 0.634102
vt 0.594356 0.625893
vt 0.594356 0.625893
vt 0.597078 0.668192
vt 0.562200 0.676371
vt 0.563721 0.059448
vt 0.539052 0.017663
vt 0.661589 0.017845
vt 0.661589 0.017845
vt 0.642666 0.083365
vt 0.563721 0.059448
vt 0.978353 0.653969
vt 0.978353 0.507105
vt 0.860001 0.507105
vt 0.860001 0.507105
vt 0.860001 0.653969
vt 0.978353 0.653969
vt 0.651047 0.642336
vt 0.617713 0.661394
vt 0.615232 0.619380
vt 0.615232 0.619380
vt 0.651716 0.608943
vt 0.651047 0.642336
vt 0.617713 0.661394
vt 0.597078 0.668192
vt 0.594356 0.625893
vt 0.594356 0.625893
vt 0.615232 0.619380
vt 0.617713 0.661394
vt 0.711925 0.621622
vt 0.715636 0.684011
vt 0.690304 0.651160
vt 0.690304 0.651160
vt 0.651047 0.642336
vt 0.651716 0.608943
vt 0.651716 0.608943
vt 0.711925 0.621622
vt 0.690304 0.651160
vt 0.560091 0.832882
vt 0.560091 0.981446
vt 0.541000 0.981446
vt 0.541000 0.981446
vt 0.541000 0.832882
vt 0.560091 0.832882
vt 0.978353 0.507146
vt 0.978353 0.654010
vt 0.860001 0.654010
vt 0.860001 0.654010
vt 0.860001 0.507146
vt 0.978353 0.507146
vt 1.661206 0.018258
vt 1.562370 0.018094
vt 1.661392 0.080994
vt 1.562370 0.018094
vt 1.642369 0.083515
vt 1.661392 0.080994
vt 1.562370 0.018094
vt 1.563260 0.059556
vt 1.642369 0.083515
vn 0.021745 0.999748 -0.005558000000000061
vn 0.021745 0.999748 -0.005558000000000061
vn 0.021745 0.999748 -0.005558000000000061
vn 0.974036 0.016321000000000013 0.225804
vn 0.974036 0.016321000000000013 0.225804
vn 0.974036 0.016321000000000013 0.225804
vn 0.786631 0.010242000000000038 0.617338
vn 0.786631 0.010242000000000038 0.617338
vn 0.786631 0.010242000000000038 0.617338
vn 0.768905 0.04690900000000004 0.63764
vn 0.768905 0.04690900000000004 0.63764
vn 0.768905 0.04690900000000004 0.63764
vn 0.034849 0.968027 0.24841399999999994
vn 0.034849 0.968027 0.24841399999999994
vn 0.034849 0.968027 0.24841399999999994
vn 0.059641 0.951329 0.30234999999999995
vn 0.059641 0.951329 0.30234999999999995
vn 0.059641 0.951329 0.30234999999999995
vn 0.000837 -0.999986 0.0052670000000000616
vn 0.000837 -0.999986 0.0052670000000000616
vn 0.000837 -0.999986 0.0052670000000000616
vn 0.003436 -0.999786 -0.02040999999999994
vn 0.003436 -0.999786 -0.02040999999999994
vn 0.003436 -0.999786 -0.02040999999999994
vn 0.997692 0.067866 0.0020539999999999955
vn 0.997692 0.067866 0.0020539999999999955
vn 0.997692 0.067866 0.0020539999999999955
vn 0.996487 0.083535 0.005977999999999995
vn 0.996487 0.083535 0.005977999999999995
vn 0.996487 0.083535 0.005977999999999995
vn 0.004303 -0.99999 -0.0015969999999999387
vn 0.004303 -0.99999 -0.0015969999999999387
vn 0.004303 -0.99999 -0.0015969999999999387
vn 0.008135 -0.999956 0.004597000000000062
vn 0.008135 -0.999956 0.004597000000000062
vn 0.008135 -0.999956 0.004597000000000062
vn -0.998922 -0.0463 0.003225000000000003
vn -0.998922 -0.0463 0.003225000000000003
vn -0.998922 -0.0463 0.003225000000000003
vn -0.999884 -0.014399 -0.004961999999999999
vn -0.999884 -0.014399 -0.004961999999999999
vn -0.999884 -0.014399 -0.004961999999999999
vn -0.002859 0.999996 0.0008109999999999387
vn -0.002859 0.999996 0.0008109999999999387
vn -0.002859 0.999996 0.0008109999999999387
vn 0.001077 0.999984 -0.005498000000000062
vn 0.001077 0.999984 -0.005498000000000062
vn 0.001077 0.999984 -0.005498000000000062
vn 0.998142 0.060894 0.002048999999999996
vn 0.998142 0.060894 0.002048999999999996
vn 0.998142 0.060894 0.002048999999999996
vn 0.997687 0.067866 0.003797999999999996
vn 0.997687 0.067866 0.003797999999999996
vn 0.997687 0.067866 0.003797999999999996
vn -0.999884 -0.014399 -0.004961999999999999
vn -0.999884 -0.014399 -0.004961999999999999
vn -0.999884 -0.014399 -0.004961999999999999
vn -0.999995 -0.0012259999999999999 0.00298
vn -0.999995 -0.0012259999999999999 0.00298
vn -0.999995 -0.0012259999999999999 0.00298
vn 0.001077 0.999967 0.00804499999999994
vn 0.001077 0.999967 0.00804499999999994
vn 0.001077 0.999967 0.00804499999999994
vn 0.001455 0.99998 0.006141999999999938
vn 0.001455 0.99998 0.006141999999999938
vn 0.001455 0.99998 0.006141999999999938
vn 0.000466 -0.999999 -0.001620999999999939
vn 0.000466 -0.999999 -0.001620999999999939
vn 0.000466 -0.999999 -0.001620999999999939
vn 0.004303 -0.99998 0.004578000000000061
vn 0.004303 -0.99998 0.004578000000000061
vn 0.004303 -0.99998 0.004578000000000061
vn -0.426586 -0.007158999999999945 0.904419
vn -0.426586 -0.007158999999999945 0.904419
vn -0.426586 -0.007158999999999945 0.904419
vn -0.489702 0.15627700000000005 0.85777
vn -0.489702 0.15627700000000005 0.85777
vn -0.489702 0.15627700000000005 0.85777
vn -0.066514 -0.001759999999999939 0.997784
vn -0.066514 -0.001759999999999939 0.997784
vn -0.066514 -0.001759999999999939 0.997784
vn -0.065019 -0.0032629999999999387 0.997879
vn -0.065019 -0.0032629999999999387 0.997879
vn -0.065019 -0.0032629999999999387 0.997879
vn 0.40704 0.618883 0.67179
vn 0.40704 0.618883 0.67179
vn 0.40704 0.618883 0.67179
vn 0.214097 0.19546200000000005 0.957057
vn 0.214097 0.19546200000000005 0.957057
vn 0.214097 0.19546200000000005 0.957057
vn 0.13881 0.34802500000000003 0.927152
vn 0.13881 0.34802500000000003 0.927152
vn 0.13881 0.34802500000000003 0.927152
vn -0.996924 -0.078299 0.0033940000000000047
vn -0.996924 -0.078299 0.0033940000000000047
vn -0.996924 -0.078299 0.0033940000000000047
vn -0.998916 -0.0463 -0.004811999999999998
vn -0.998916 -0.0463 -0.004811999999999998
vn -0.998916 -0.0463 -0.004811999999999998
vn -0.00677 0.999977 0.0008039999999999388
vn -0.00677 0.999977 0.0008039999999999388
vn -0.00677 0.999977 0.0008039999999999388
vn -0.002859 0.999981 -0.005486000000000062
vn -0.002859 0.999981 -0.005486000000000062
vn -0.002859 0.999981 -0.005486000000000062
vn 0.000466 -0.99999 0.004558000000000062
vn 0.000466 -0.99999 0.004558000000000062
vn 0.000466 -0.99999 0.004558000000000062
vn -0.016646 -0.997933 -0.06206399999999994
vn -0.016646 -0.997933 -0.06206399999999994
vn -0.016646 -0.997933 -0.06206399999999994
vn -0.002131 -0.999868 -0.016136999999999936
vn -0.002131 -0.999868 -0.016136999999999936
vn -0.002131 -0.999868 -0.016136999999999936
g 10 - Default
f 1/1/1 2/2/2 3/3/3
f 4/4/4 5/5/5 6/6/6
f 7/7/7 8/8/8 9/9/9
f 10/10/10 11/11/11 12/12/12
f 13/13/13 14/14/14 15/15/15
f 16/16/16 17/17/17 18/18/18
f 19/19/19 20/20/20 21/21/21
f 22/22/22 23/23/23 24/24/24
f 25/25/25 26/26/26 27/27/27
f 28/28/28 29/29/29 30/30/30
f 31/31/31 32/32/32 33/33/33
f 34/34/34 35/35/35 36/36/36
f 37/37/37 38/38/38 39/39/39
f 40/40/40 41/41/41 42/42/42
f 43/43/43 44/44/44 45/45/45
f 46/46/46 47/47/47 48/48/48
f 49/49/49 50/50/50 51/51/51
f 52/52/52 53/53/53 54/54/54
f 55/55/55 56/56/56 57/57/57
f 58/58/58 59/59/59 60/60/60
f 61/61/61 62/62/62 63/63/63
f 64/64/64 65/65/65 66/66/66
f 67/67/67 68/68/68 69/69/69
f 70/70/70 71/71/71 72/72/72
f 73/73/73 74/74/74 75/75/75
f 76/76/76 77/77/77 78/78/78
f 79/79/79 80/80/80 81/81/81
f 82/82/82 83/83/83 84/84/84
f 85/85/85 86/86/86 87/87/87
f 88/88/88 89/89/89 90/90/90
f 91/91/91 92/92/92 93/93/93
f 94/94/94 95/95/95 96/96/96
f 97/97/97 98/98/98 99/99/99
f 100/100/100 101/101/101 102/102/102
f 103/103/103 104/104/104 105/105/105
f 106/106/106 107/107/107 108/108/108
f 109/109/109 110/110/110 111/111/111
f 112/112/112 113/113/113 114/114/114
