v -1.594098 -0.527788 0.33521200000000007
v -1.605636 -0.572668 0.33521300000000004
v -1.553643 -0.563731 0.33521300000000004
v -1.448562 -0.671704 0.36610300000000007
v -1.426459 -0.729185 0.36610300000000007
v -1.382128 -0.686213 0.35157000000000005
v -1.184381 -0.901912 0.3736320000000001
v -1.152715 -0.953632 0.36854200000000004
v -1.119929 -0.900435 0.3695570000000001
v -1.263552 -0.05095 -0.005492999999999996
v -1.752116 0.459218 -0.0009830000000000281
v -1.692092 0.44120300000000007 0.830199
v -1.692092 0.44120300000000007 0.830199
v -1.26384 -0.05124299999999995 0.825689
v -1.263552 -0.05095 -0.005492999999999996
v -0.7389 0.47369600000000006 0.825848
v -1.230478 0.901371 0.827976
v -1.254918 0.965777 -0.0009840000000000593
v -1.254918 0.965777 -0.0009840000000000593
v -0.739186 0.473415 -0.005493000000000028
v -0.7389 0.47369600000000006 0.825848
v 1.380545 0.837388 -5.127522669222019E-17
v 1.263602 0.836891 -5.124479421926138E-17
v 1.325388 0.743485 0.3909679999999999
v 1.263602 0.836891 -5.124479421926138E-17
v 1.205563 0.735368 -4.502830336976954E-17
v 1.325388 0.743485 0.3909679999999999
v 1.205563 0.735368 -4.502830336976954E-17
v 1.264463 0.63434 -3.8842122528556604E-17
v 1.325388 0.743485 0.3909679999999999
v 1.264463 0.63434 -3.8842122528556604E-17
v 1.381406 0.634837 -3.8872555001515414E-17
v 1.325388 0.743485 0.3909679999999999
v -0.543225 0.3477060000000002 2.555784
v -0.543225 0.41854800000000014 2.29776
v -0.605417 0.40188300000000016 2.29776
v -0.605417 0.40188300000000016 2.29776
v -0.605417 0.3394360000000002 2.555784
v -0.543225 0.3477060000000002 2.555784
v -0.605416 0.21640500000000015 2.555784
v -0.605417 0.15395700000000015 2.29776
v -0.543225 0.13729300000000014 2.29776
v -0.543225 0.13729300000000014 2.29776
v -0.543225 0.20813600000000015 2.555784
v -0.605416 0.21640500000000015 2.555784
v -0.86602 0.7672970000000001 2.555784
v -0.927427 0.8027500000000001 2.29776
v -0.944091 0.7405580000000002 2.29776
v -0.944091 0.7405580000000002 2.29776
v -0.889961 0.7093060000000001 2.555784
v -0.86602 0.7672970000000001 2.555784
v -0.78351 0.6478460000000001 2.555784
v -0.72938 0.6165950000000001 2.29776
v -0.683853 0.6621220000000001 2.29776
v -0.683853 0.6621220000000001 2.29776
v -0.74526 0.6975760000000001 2.555784
v -0.78351 0.6478460000000001 2.555784
v -1.390849 0.6975760000000001 2.555784
v -1.452256 0.6621230000000001 2.29776
v -1.406729 0.6165950000000001 2.29776
v -1.406729 0.6165950000000001 2.29776
v -1.352599 0.6478460000000001 2.555784
v -1.390849 0.6975760000000001 2.555784
v -1.246148 0.7093060000000001 2.555784
v -1.192018 0.7405590000000001 2.29776
v -1.208682 0.8027500000000001 2.29776
v -1.208682 0.8027500000000001 2.29776
v -1.270089 0.7672970000000001 2.555784
v -1.246148 0.7093060000000001 2.555784
v -1.270089 -0.21145499999999984 2.555784
v -1.208682 -0.24690899999999985 2.29776
v -1.192018 -0.18471699999999985 2.29776
v -1.192018 -0.18471699999999985 2.29776
v -1.246148 -0.15346499999999982 2.555784
v -1.270089 -0.21145499999999984 2.555784
v -1.352599 -0.09200599999999985 2.555784
v -1.406729 -0.060753999999999864 2.29776
v -1.452257 -0.10628099999999986 2.29776
v -1.452257 -0.10628099999999986 2.29776
v -1.390849 -0.14173399999999983 2.555783
v -1.352599 -0.09200599999999985 2.555784
v -0.74526 -0.14173399999999983 2.555783
v -0.683853 -0.10628199999999986 2.29776
v -0.72938 -0.060753999999999864 2.29776
v -0.72938 -0.060753999999999864 2.29776
v -0.783511 -0.09200599999999985 2.555784
v -0.74526 -0.14173399999999983 2.555783
v -0.889961 -0.15346499999999982 2.555784
v -0.944091 -0.18471699999999985 2.29776
v -0.927427 -0.24690899999999985 2.29776
v -0.927427 -0.24690899999999985 2.29776
v -0.866021 -0.21145499999999984 2.555784
v -0.889961 -0.15346499999999982 2.555784
v 1.374773 0.796112 -4.874780062813989E-17
v 1.433244 0.694836 -4.2546434166617514E-17
v 1.4888 0.788502 0.39096899999999996
v 1.433244 0.694836 -4.2546434166617514E-17
v 1.550188 0.694836 -4.2546434166617514E-17
v 1.4888 0.788502 0.39096899999999996
v -1.802325 0.6127000000000001 1.189986
v -1.53018 0.9487770000000001 1.178646
v -1.579504 0.9874880000000001 1.117717
v -1.579504 0.9874880000000001 1.117717
v -1.850771 0.6511510000000001 1.129036
v -1.802325 0.6127000000000001 1.189986
v -1.615494 0.7322750000000001 1.164295
v -1.629791 0.7322700000000001 1.164535
v -1.62544 0.7363810000000001 2.395278
v -1.592884 0.20813600000000015 2.555784
v -1.592884 0.13729300000000014 2.29776
v -1.530693 0.15395700000000015 2.29776
v -1.530693 0.15395700000000015 2.29776
v -1.530692 0.21640500000000015 2.555784
v -1.592884 0.20813600000000015 2.555784
v -1.530692 0.33943700000000016 2.555784
v -1.530692 0.40188300000000016 2.29776
v -1.592884 0.41854800000000014 2.29776
v -1.592884 0.41854800000000014 2.29776
v -1.592884 0.3477060000000002 2.555784
v -1.530692 0.33943700000000016 2.555784
v -1.605035 -0.518071 1.0000000000317226E-06
v -1.594098 -0.527788 0.33521200000000007
v -1.553643 -0.563731 0.33521300000000004
v -1.553643 -0.563731 0.33521300000000004
v -1.542706 -0.573449 1.0000000000351135E-06
v -1.202126 -0.903387 1.0000000000553165E-06
v -1.184381 -0.901912 0.3736320000000001
v -1.119929 -0.900435 0.3695570000000001
v -1.119929 -0.900435 0.3695570000000001
v -1.102184 -0.898959 1.0000000000550452E-06
v 1.439445 0.736362 -4.508916831568716E-17
v 1.380545 0.837388 -5.127522669222019E-17
v 1.325388 0.743485 0.3909679999999999
v 1.381406 0.634837 -3.8872555001515414E-17
v 1.439445 0.736362 -4.508916831568716E-17
v 1.646753 0.41602400000000006 0.853396
v 1.625483 0.028077000000000053 0.842382
v 1.51567 0.03450300000000005 0.841482
v 1.536592 0.4223950000000001 0.852978
v 1.646753 0.41602400000000006 0.853396
v -1.755798 0.5727340000000001 1.129343
v -1.804322 0.6112180000000002 1.068371
v -1.53284 0.9476510000000001 1.057525
v -1.53284 0.9476510000000001 1.057525
v -1.483453 0.9089300000000001 1.118472
v -1.61833 0.7487400000000001 2.39475
v -1.615494 0.7322750000000001 1.164295
v -1.62544 0.7363810000000001 2.395278
v -1.629791 0.7322700000000001 1.164535
v -1.622469 0.7198400000000001 1.164611
v -1.679687 0.737658 9.299999999995483E-05
v -1.672182 0.725035 0.0019689999999999556
v -1.65546 0.5512280000000002 1.641123
v -1.168249 0.0640160000000001 1.596032
v -1.65546 0.5512280000000002 1.641123
v -1.341361 0.8653270000000001 1.641123
v -1.341361 0.8653270000000001 1.641123
v 1.550188 0.694836 -4.2546434166617514E-17
v 1.60866 0.796112 -4.874780062813989E-17
v 1.4888 0.788502 0.39096899999999996
v 1.60866 0.796112 -4.874780062813989E-17
v 1.550188 0.897387 -5.4949105857322296E-17
v 1.550188 0.897387 -5.4949105857322296E-17
v 1.433244 0.897387 -5.4949105857322296E-17
v 1.433244 0.897387 -5.4949105857322296E-17
v 1.374773 0.796112 -4.874780062813989E-17
v -1.616572 -0.582384 1.0000000000356607E-06
v -1.605636 -0.572668 0.33521300000000004
v -1.594098 -0.527788 0.33521200000000007
v -1.605035 -0.518071 1.0000000000317226E-06
v -1.542706 -0.573449 1.0000000000351135E-06
v -1.553643 -0.563731 0.33521300000000004
v -1.605636 -0.572668 0.33521300000000004
v -1.616572 -0.582384 1.0000000000356607E-06
v -1.466522 -0.667783 1.0000000000408898E-06
v -1.448562 -0.671704 0.36610300000000007
v -1.382128 -0.686213 0.35157000000000005
v -1.364168 -0.690135 1.0000000000422586E-06
v -1.432467 -0.746558 1.0000000000457135E-06
v -1.426459 -0.729185 0.36610300000000007
v -1.448562 -0.671704 0.36610300000000007
v -1.466522 -0.667783 1.0000000000408898E-06
v -1.364168 -0.690135 1.0000000000422586E-06
v -1.382128 -0.686213 0.35157000000000005
v -1.426459 -0.729185 0.36610300000000007
v -1.432467 -0.746558 1.0000000000457135E-06
v -1.153339 -0.971428 1.0000000000594828E-06
v -1.152715 -0.953632 0.36854200000000004
v -1.184381 -0.901912 0.3736320000000001
v -1.202126 -0.903387 1.0000000000553165E-06
v -1.102184 -0.898959 1.0000000000550452E-06
v -1.119929 -0.900435 0.3695570000000001
v -1.152715 -0.953632 0.36854200000000004
v -1.153339 -0.971428 1.0000000000594828E-06
v -1.352774 0.16168900000000003 0.297631
v -1.347574 0.416147 -0.03709300000000003
v -1.598581 0.234146 -0.031451000000000014
v -1.139128 0.301999 -0.03708400000000002
v -1.263552 -0.05095 -0.005492999999999996
v -1.26384 -0.05124299999999995 0.825689
v -0.7389 0.47369600000000006 0.825848
v -0.739186 0.473415 -0.005493000000000028
v 1.2261 -0.15947599999999995 0.876927
v 1.824617 -0.15947599999999995 0.876927
v 1.824618 0.608899 0.876928
v 1.2261 0.608899 0.876928
v -0.676545 1.291427 0.41026499999999994
v -0.389773 1.125859 0.41026399999999996
v -0.268522 1.335872 0.41026499999999994
v -0.555294 1.501441 0.4102639999999999
v -0.769122 1.352138 0.8128479999999999
v -1.040385 0.882298 0.812849
v -0.54597 0.634258 0.812848
v -0.290907 1.076041 0.8128479999999999
v 1.376265 -0.14183799999999994 1.075413
v 1.359293 -0.336592 -0.0036369999999999792
v 1.580439 -0.309264 -0.0033279999999999807
v 1.503931 -0.12176499999999993 1.075707
v -0.605416 0.33943700000000016 2.555784
v -0.605417 0.40188300000000016 2.29776
v -0.605417 0.15395700000000015 2.29776
v -0.605416 0.21640500000000015 2.555784
v -0.889961 0.7093060000000001 2.555784
v -0.944091 0.7405590000000001 2.29776
v -0.72938 0.6165950000000001 2.29776
v -0.78351 0.6478460000000001 2.555784
v -1.530692 0.21640500000000015 2.555784
v -1.530693 0.15395700000000015 2.29776
v -1.530692 0.40188300000000016 2.29776
v -1.530692 0.33943700000000016 2.555784
v -1.246148 -0.15346499999999982 2.555784
v -1.192018 -0.18471699999999985 2.29776
v -1.406729 -0.060753999999999864 2.29776
v -1.352599 -0.09200599999999985 2.555784
v -0.783511 -0.09200599999999985 2.555784
v -0.72938 -0.060753999999999864 2.29776
v -0.944091 -0.18471699999999985 2.29776
v -0.889961 -0.15346499999999982 2.555784
v -1.755798 0.5727340000000001 1.129343
v -1.802325 0.6127000000000001 1.189986
v -1.850771 0.6511510000000001 1.129036
v -1.804322 0.6112180000000002 1.068371
v -0.555294 1.501441 -0.002562000000000092
v -0.676545 1.291427 -0.002563000000000079
v -0.676545 1.291427 0.41026499999999994
v -0.555294 1.501441 0.4102639999999999
v -0.605416 0.21640500000000015 2.555784
v -0.543225 0.20813600000000015 2.555784
v -0.543225 0.3477060000000002 2.555784
v -0.605417 0.3394360000000002 2.555784
v -0.78351 0.6478460000000001 2.555784
v -0.74526 0.6975760000000001 2.555784
v -0.86602 0.7672970000000001 2.555784
v -0.889961 0.7093060000000001 2.555784
v -1.246148 0.7093060000000001 2.555784
v -1.270089 0.7672970000000001 2.555784
v -1.390849 0.6975760000000001 2.555784
v -1.352599 0.6478460000000001 2.555784
v -1.352599 -0.09200599999999985 2.555784
v -1.390849 -0.14173399999999983 2.555783
v -1.270089 -0.21145499999999984 2.555784
v -1.246148 -0.15346499999999982 2.555784
v -0.889961 -0.15346499999999982 2.555784
v -0.866021 -0.21145499999999984 2.555784
v -0.74526 -0.14173399999999983 2.555783
v -0.783511 -0.09200599999999985 2.555784
v -1.352599 0.6478460000000001 2.555784
v -1.406729 0.6165950000000001 2.29776
v -1.192018 0.7405590000000001 2.29776
v -1.246148 0.7093060000000001 2.555784
v 1.865919 -0.19988 1.2239120110678648E-17
v 1.865919 0.649307 -3.975858696069852E-17
v 1.824618 0.608899 0.876928
v 1.824617 -0.15947599999999995 0.876927
v 0.984142 -1.25274 0.3491600000000001
v 0.982672 -1.259441 0.5152820000000001
v 0.983645 -1.328606 0.5179860000000001
v 0.984275 -1.349925 0.35186400000000007
v -0.082112 -1.259057 0.5112250000000002
v 0.982672 -1.259441 0.5152820000000001
v 0.984142 -1.25274 0.3491600000000001
v -0.080642 -1.252204 0.34510300000000005
v -0.080508 -1.34939 0.34780600000000006
v -0.081139 -1.328222 0.5139290000000001
v -0.082112 -1.259057 0.5112250000000002
v -0.080642 -1.252204 0.34510300000000005
v -0.082112 -1.259057 0.5112250000000002
v -0.081139 -1.328222 0.5139290000000001
v 0.983645 -1.328606 0.5179860000000001
v 0.982672 -1.259441 0.5152820000000001
v -0.535035 -0.92011 0.23301400000000005
v -0.475957 -0.928947 0.44381100000000007
v -0.448708 -0.845826 0.44381100000000007
v -0.506946 -0.810599 0.28030800000000006
v -0.535378 -0.957468 -0.010518999999999942
v -0.560147 -1.362406 0.0007450000000000834
v -0.50786 -1.348226 0.24427800000000008
v -0.535035 -0.92011 0.23301400000000005
v 1.721147 -0.748372 0.13880600000000007
v 1.768657 -0.908111 0.13880600000000007
v 1.804413 -0.936004 -0.010518999999999943
v 1.720308 -0.748938 -0.010518999999999955
v -1.480183 -0.368347 -0.010518999999999978
v -1.413905 -0.418728 0.16930000000000003
v -1.33841 -0.364936 0.16930000000000003
v -1.374112 -0.280505 -0.010517999999999982
v 1.804413 -0.936004 -0.010518999999999943
v 1.768657 -0.908111 0.13880600000000007
v 1.408476 -0.94566 0.15833200000000006
v 1.627569 -0.945661 -0.010518999999999943
v 1.768657 -0.908111 0.13880600000000007
v 1.721147 -0.748372 0.13880600000000007
v 1.47582 -0.81064 0.20714700000000005
v 1.408476 -0.94566 0.15833200000000006
v 1.536592 0.4223950000000001 0.852978
v 1.51567 0.03450300000000005 0.841482
v 1.492869 0.03492400000000005 0.895684
v 1.513768 0.42265800000000003 0.907506
v 1.184797 0.649308 -3.975864819303848E-17
v 1.2261 0.608899 0.876928
v 1.824618 0.608899 0.876928
v 1.865919 0.649307 -3.975858696069852E-17
v 1.184797 -0.19988 1.2239120110678648E-17
v 1.2261 -0.15947599999999995 0.876927
v 1.2261 0.608899 0.876928
v 1.184797 0.649308 -3.975864819303848E-17
v 1.865919 -0.19988 1.2239120110678648E-17
v 1.824617 -0.15947599999999995 0.876927
v 1.2261 -0.15947599999999995 0.876927
v 1.184797 -0.19988 1.2239120110678648E-17
v -1.608339 0.7488100000000001 2.283154
v -1.65366 0.7868380000000001 2.28282
v -1.653156 0.7864170000000001 2.340516
v -1.607881 0.7484290000000001 2.340903
v -1.626508 0.7274820000000001 2.282928
v -1.626304 0.7273130000000001 2.340897
v -1.671258 0.7650340000000001 2.340739
v -1.671478 0.7652150000000001 2.282792
v -1.797222 -0.52691 0.26978800000000003
v -1.998101 -0.362655 0.269788
v -1.998101 -0.362655 -0.0016269999999999779
v -1.797222 -0.52691 -0.0016279999999999678
v -1.832444 -0.16006 -0.0016269999999999902
v -1.998101 -0.362655 -0.0016269999999999779
v -1.998101 -0.362655 0.269788
v -1.832444 -0.16005999999999998 0.269788
v -1.631565 -0.324315 -0.00162699999999998
v -1.832444 -0.16006 -0.0016269999999999902
v -1.832444 -0.16005999999999998 0.269788
v -1.619684 -0.323118 0.24522100000000002
v -1.631565 -0.324315 -0.00162699999999998
v -1.619684 -0.323118 0.24522100000000002
v -1.797222 -0.52691 0.26978800000000003
v -1.797222 -0.52691 -0.0016279999999999678
v -1.797222 -0.52691 0.26978800000000003
v -1.619684 -0.323118 0.24522100000000002
v -1.832444 -0.16005999999999998 0.269788
v -1.998101 -0.362655 0.269788
v -1.483453 0.9089300000000001 1.118472
v -1.53284 0.9476510000000001 1.057525
v -1.579504 0.9874880000000001 1.117717
v -1.53018 0.9487770000000001 1.178646
v -1.755798 0.5727340000000001 1.129343
v -1.483453 0.9089300000000001 1.118472
v -1.53018 0.9487770000000001 1.178646
v -1.802325 0.6127000000000001 1.189986
v -1.850771 0.6511510000000001 1.129036
v -1.579504 0.9874880000000001 1.117717
v -1.53284 0.9476510000000001 1.057525
v -1.804322 0.6112180000000002 1.068371
v -1.665771 0.737626 -0.006190000000000045
v -1.679687 0.737658 9.299999999995483E-05
v -1.629791 0.7322700000000001 1.164535
v -1.615494 0.7322750000000001 1.164295
v -1.688923 0.7945230000000001 1.152829
v -1.681962 0.8069530000000001 1.152843
v -1.642607 0.7716410000000001 2.393958
v -1.649727 0.7592910000000002 2.394235
v -1.649727 0.7592910000000002 2.394235
v -1.642607 0.7716410000000001 2.393958
v -1.681962 0.8069530000000001 1.152843
v -1.688923 0.7945230000000001 1.152829
v -1.727371 0.7496860000000001 2.464005
v -1.653416 0.8394010000000001 2.460524
v -1.653901 0.8104990000000001 2.344879
v -1.697906 0.7565310000000001 2.342096
v -1.34215 0.5778160000000001 2.331793
v -1.653901 0.8104990000000001 2.344879
v -1.653416 0.8394010000000001 2.460524
v -1.290141 0.5407900000000001 2.490516
v -1.385313 0.45633700000000016 2.492522
v -1.727371 0.7496860000000001 2.464005
v -1.697906 0.7565310000000001 2.342096
v -1.416565 0.4863950000000002 2.327375
v -1.290141 0.5407900000000001 2.490516
v -1.653416 0.8394010000000001 2.460524
v -1.727371 0.7496860000000001 2.464005
v -1.385313 0.45633700000000016 2.492522
v -1.168249 0.0640160000000001 1.596032
v -1.341361 0.8653270000000001 1.641123
v -1.65546 0.5512280000000002 1.641123
v -0.85415 0.3781160000000001 1.596031
v -0.290907 1.076041 -0.0006020000000000659
v -0.769122 1.352138 -0.0006010000000000828
v -0.769122 1.352138 0.8128479999999999
v -0.290907 1.076041 0.8128479999999999
v -0.543225 0.20813600000000015 2.555784
v -0.543225 0.13729300000000014 2.29776
v -0.543225 0.41854800000000014 2.29776
v -0.543225 0.3477060000000002 2.555784
v -0.74526 0.6975760000000001 2.555784
v -0.683853 0.6621220000000001 2.29776
v -0.927427 0.8027500000000001 2.29776
v -0.86602 0.7672970000000001 2.555784
v -1.270089 0.7672970000000001 2.555784
v -1.208682 0.8027500000000001 2.29776
v -1.452256 0.6621230000000001 2.29776
v -1.390849 0.6975760000000001 2.555784
v -1.592884 0.3477060000000002 2.555784
v -1.592884 0.41854800000000014 2.29776
v -1.592884 0.13729300000000014 2.29776
v -1.592884 0.20813600000000015 2.555784
v -1.390849 -0.14173399999999983 2.555783
v -1.452257 -0.10628099999999986 2.29776
v -1.208682 -0.24690899999999985 2.29776
v -1.270089 -0.21145499999999984 2.555784
v -0.866021 -0.21145499999999984 2.555784
v -0.927427 -0.24690899999999985 2.29776
v -0.683853 -0.10628199999999986 2.29776
v -0.74526 -0.14173399999999983 2.555783
v -1.040385 0.882298 0.812849
v -0.769122 1.352138 0.8128479999999999
v -0.769122 1.352138 -0.0006010000000000828
v -0.991995 0.965716 0.003525999999999941
v -0.512779 0.691747 0.0035259999999999576
v -0.290907 1.076041 -0.0006020000000000659
v -0.290907 1.076041 0.8128479999999999
v -0.54597 0.634258 0.812848
v -0.389773 1.125859 -0.002563000000000069
v -0.268522 1.335872 -0.002562000000000082
v -0.268522 1.335872 0.41026499999999994
v -0.389773 1.125859 0.41026399999999996
v -0.268522 1.335872 -0.002562000000000082
v -0.555294 1.501441 -0.002562000000000092
v -0.555294 1.501441 0.4102639999999999
v -0.268522 1.335872 0.41026499999999994
v -1.530692 0.33943700000000016 2.555784
v -1.592884 0.3477060000000002 2.555784
v -1.592884 0.20813600000000015 2.555784
v -1.530692 0.21640500000000015 2.555784
v -0.933177 0.39310500000000015 2.655197
v -0.972304 0.3578740000000002 2.794702
v -0.956141 0.20408600000000016 2.794702
v -0.956141 0.20408600000000016 2.794702
v -0.910543 0.17776100000000017 2.655197
v -0.6905 0.3097500000000002 2.491082
v -0.771842 0.5383710000000002 2.451423
v -0.660192 0.45234100000000016 2.29719
v -0.631207 0.17657600000000015 2.297189
v -0.845731 0.6584030000000001 2.29719
v -0.722531 0.06921200000000015 2.451422
v -0.76985 -0.06355799999999986 2.29719
v -0.990709 0.6431650000000001 2.491081
v -1.116955 0.7160540000000001 2.29719
v -0.914827 -0.07879699999999985 2.491081
v -1.023161 -0.17633999999999986 2.297189
v -1.233277 0.6364520000000001 2.451423
v -1.370267 0.6032730000000001 2.297189
v -1.153491 -0.12266299999999984 2.451423
v -1.294385 -0.11868899999999986 2.297189
v -1.400575 0.4606810000000002 2.491082
v -1.508909 0.36313700000000015 2.297189
v -1.144976 0.43812500000000015 2.655198
v -0.972304 0.3578740000000002 2.794702
v -1.469149 0.22791100000000014 2.451423
v -1.479925 0.08737300000000014 2.29719
v -1.253241 0.2506030000000002 2.655197
v -1.353678 0.014484000000000153 2.491081
v -1.12356 0.3900250000000002 2.794702
v -1.108354 0.08969000000000017 2.655197
v -1.200878 0.25610700000000014 2.794702
v -1.097407 0.14119100000000018 2.794703
v -1.097407 0.14119100000000018 2.794703
v -0.956141 0.20408600000000016 2.794702
v -0.880958 0.646314 -0.032813000000000044
v -1.095814 0.485108 -0.03281200000000003
v -0.794086 0.421419 0.384476
v -0.999636 0.136578 -0.027168000000000008
v -0.794086 0.421418 0.384476
v -0.563962 0.66542 0.812848
v -0.494681 0.785418 0.812848
v -0.527437 0.8043290000000001 1.250156
v -0.603733 0.6721790000000001 1.250157
v -0.589442 0.8401280000000001 1.354887
v -0.656636 0.7237450000000001 1.354887
v -0.705974 0.9074080000000001 1.398146
v -0.774705 0.7883640000000001 1.398146
v -0.822506 0.9746880000000001 1.354886
v -0.8897 0.8583050000000001 1.354887
v -0.884511 1.010487 1.250156
v -0.961485 0.8771640000000002 1.250156
v -0.987225 0.908228 0.8128479999999999
v -0.917267 1.029398 0.8128489999999999
v -0.475957 -0.928947 0.44381100000000007
v -0.535035 -0.92011 0.23301400000000005
v -0.081906 -0.945018 0.33654200000000006
v -0.101002 -0.911329 0.5275580000000001
v 0.983717 -0.944988 0.34059900000000004
v 0.98391 -0.929869 0.5510160000000001
v 1.408476 -0.94566 0.15833200000000006
v 1.277183 -0.929815 0.41135200000000005
v -0.535035 -0.92011 0.23301400000000005
v -0.506946 -0.810599 0.28030800000000006
v -0.868983 -0.814737 0.28030800000000006
v -0.933699 -0.92459 0.28030700000000003
v -1.33841 -0.364936 0.16930000000000003
v -1.413905 -0.418728 0.16930000000000003
v -1.374112 -0.280505 -0.010517999999999982
v -1.33841 -0.364936 0.16930000000000003
v -0.868983 -0.814737 0.28030800000000006
v -0.856759 -0.84307 -0.010518999999999949
v -0.506946 -0.810599 0.28030800000000006
v -0.038723 -0.818175 -0.01051899999999995
v -0.083443 -0.820527 0.527559
v -0.448708 -0.845826 0.44381100000000007
v 0.099962 -0.817533 0.20408000000000007
v 0.468353 -0.777886 0.33296700000000007
v 0.993075 -0.833398 0.551015
v 0.852174 -0.815954 0.20408100000000007
v 0.991204 -0.815165 -0.01051899999999995
v 1.443156 -0.811206 -0.01051899999999995
v 1.274141 -0.827364 0.41135200000000005
v 1.47582 -0.81064 0.20714700000000005
v 1.721147 -0.748372 0.13880600000000007
v 1.720308 -0.748938 -0.010518999999999955
v 1.625483 0.028077000000000053 0.842382
v 1.625383 0.02616100000000006 0.951233
v 1.51567 0.03450300000000005 0.841482
v 1.570454 0.02899900000000006 0.973227
v 1.492869 0.03492400000000005 0.895684
v 1.646753 0.41602400000000006 0.853396
v 1.536592 0.4223950000000001 0.852978
v 1.646742 0.41385200000000005 0.96266
v 1.513768 0.42265800000000003 0.907506
v 1.591676 0.41659000000000007 0.985035
v 1.513768 0.42265800000000003 0.907506
v 1.492869 0.03492400000000005 0.895684
v 1.570454 0.02899900000000006 0.973227
v 1.591676 0.41659000000000007 0.985035
v 1.625383 0.02616100000000006 0.951233
v 1.646742 0.41385200000000005 0.96266
v 1.625483 0.028077000000000053 0.842382
v 1.646753 0.41602400000000006 0.853396
v 1.866297 -0.097646 0.002130000000000006
v 1.968519 -0.079059 0.0021300000000000047
v 1.968519 -0.016508999999999965 0.579445
v 1.839373 -0.03130099999999997 0.579445
v 1.968519 0.06820000000000004 0.679101
v 1.833413 0.05854500000000004 0.689337
v 1.96852 0.22740100000000005 0.720264
v 1.832151 0.22740100000000005 0.730326
v 1.96852 0.38660000000000005 0.679101
v 1.833412 0.3962570000000001 0.68714
v 1.968519 0.47130900000000003 0.579444
v 1.839373 0.48610400000000004 0.579445
v 1.96852 0.533861 0.0021299999999999674
v 1.866297 0.552448 0.002129999999999966
v -1.672182 0.725035 0.0019689999999999556
v -1.665771 0.737626 -0.006190000000000045
v -1.615494 0.7322750000000001 1.164295
v -1.622469 0.7198400000000001 1.164611
v -1.61833 0.7487400000000001 2.39475
v -1.62544 0.7363810000000001 2.395278
v -0.785818 1.319187 0.0006079999999999193
v -0.911122 1.375612 0.0006079999999999158
v -0.93007 1.342793 0.6139909999999998
v -0.804766 1.286369 0.6139909999999998
v -0.955729 1.29835 0.7024599999999999
v -0.838819 1.230851 0.7102999999999999
v -0.935268 1.063797 0.7102999999999999
v -1.052178 1.131295 0.7024589999999998
v -1.077838 1.086851 0.6139909999999998
v -0.953108 1.005142 0.6139909999999998
v -1.096786 1.054033 0.0006089999999999354
v -0.972057 0.972324 0.0006079999999999405
v -0.927427 0.8027500000000001 2.29776
v -0.683853 0.6621220000000001 2.29776
v -0.632853 0.7131220000000001 1.31699
v -0.908827 0.8721660000000001 1.320518
v -1.208682 0.8027500000000001 2.29776
v -0.927427 0.8027500000000001 2.29776
v -1.252349 0.965716 0.003525999999999941
v -0.991995 0.965716 0.003525999999999941
v -0.512779 0.691747 0.0035259999999999576
v -0.683853 0.6621220000000001 2.29776
v -0.372483 0.463937 -0.003956000000000029
v -0.543225 0.41854800000000014 2.29776
v -0.543225 0.13729300000000014 2.29776
v -0.380258 0.093626 0.0035249999999999943
v -0.543225 0.41854800000000014 2.29776
v -1.452256 0.6621230000000001 2.29776
v -1.208682 0.8027500000000001 2.29776
v -1.518793 0.699272 0.003525999999999957
v -1.755851 0.462215 0.003525999999999972
v -1.592884 0.41854800000000014 2.29776
v -1.592884 0.41854800000000014 2.29776
v -1.755851 0.093626 0.0035259999999999944
v -1.592884 0.13729300000000014 2.29776
v -1.592884 0.13729300000000014 2.29776
v -1.571556 -0.225582 0.003525000000000014
v -1.452257 -0.10628099999999986 2.29776
v -1.208682 -0.24690899999999985 2.29776
v -1.452257 -0.10628099999999986 2.29776
v -1.252349 -0.409876 0.003526000000000025
v -1.208682 -0.24690899999999985 2.29776
v -0.88376 -0.409876 0.003526000000000025
v -0.927427 -0.24690899999999985 2.29776
v -0.927427 -0.24690899999999985 2.29776
v -0.564553 -0.225582 0.003525000000000014
v -0.683853 -0.10628199999999986 2.29776
v -0.380258 0.093626 0.0035249999999999943
v -0.543225 0.13729300000000014 2.29776
v -0.683853 -0.10628199999999986 2.29776
v 0.984275 -1.354616 0.0007450000000000829
v 1.63794 -1.408776 0.0007460000000000863
v 1.389509 -1.378112 0.16959700000000008
v 0.984275 -1.349925 0.35186400000000007
v 0.843148 -1.355417 0.2153450000000001
v 0.456387 -1.330804 0.34423100000000006
v 0.983645 -1.328606 0.5179860000000001
v -0.081139 -1.328222 0.5139290000000001
v -0.080508 -1.34939 0.34780600000000006
v 0.086739 -1.35702 0.2153450000000001
v -0.055228 -1.358386 0.0007460000000000832
v -0.560147 -1.362406 0.0007450000000000834
v -0.50786 -1.348226 0.24427800000000008
v -0.543225 0.41854800000000014 2.29776
v -0.683853 0.6621220000000001 2.29776
v -0.543225 0.13729300000000014 2.29776
v -0.927427 0.8027500000000001 2.29776
v -0.927427 -0.24690899999999985 2.29776
v -0.683853 -0.10628199999999986 2.29776
v -1.208682 0.8027500000000001 2.29776
v -1.452256 0.6621230000000001 2.29776
v -1.592884 0.13729300000000014 2.29776
v -1.592884 0.41854800000000014 2.29776
v -1.208682 -0.24690899999999985 2.29776
v -1.452257 -0.10628099999999986 2.29776
v -0.055228 -1.358386 0.0007460000000000832
v -0.038723 -0.818175 -0.01051899999999995
v 0.099962 -0.817533 0.20408000000000007
v 0.086739 -1.35702 0.2153450000000001
v 0.456387 -1.330804 0.34423100000000006
v 0.468353 -0.777886 0.33296700000000007
v 1.277183 -0.929815 0.41135200000000005
v 1.408476 -0.94566 0.15833200000000006
v 1.47582 -0.81064 0.20714700000000005
v 1.274141 -0.827364 0.41135200000000005
v 0.993075 -0.833398 0.551015
v 0.98391 -0.929869 0.5510160000000001
v -0.101002 -0.911329 0.5275580000000001
v -0.083443 -0.820527 0.527559
v -0.448708 -0.845826 0.44381100000000007
v -0.475957 -0.928947 0.44381100000000007
v 0.456387 -1.330804 0.34423100000000006
v 0.468353 -0.777886 0.33296700000000007
v 0.852174 -0.815954 0.20408100000000007
v 0.843148 -1.355417 0.2153450000000001
v 0.984275 -1.354616 0.0007450000000000829
v 0.991204 -0.815165 -0.01051899999999995
v -0.535378 -0.957468 -0.010518999999999942
v -0.535035 -0.92011 0.23301400000000005
v -0.933699 -0.92459 0.28030700000000003
v -0.925995 -0.960625 -0.010518999999999942
v -1.480183 -0.368347 -0.010518999999999978
v -1.413905 -0.418728 0.16930000000000003
v 1.96852 0.38660000000000005 0.679101
v 1.96852 0.22740100000000005 0.720264
v 1.968519 0.06820000000000004 0.679101
v 1.968519 -0.016508999999999965 0.579445
v 1.96852 0.533861 0.0021299999999999674
v 1.968519 0.47130900000000003 0.579444
v 1.968519 -0.079059 0.0021300000000000047
v -0.911122 1.375612 0.0006079999999999158
v -1.096786 1.054033 0.0006089999999999354
v -0.93007 1.342793 0.6139909999999998
v -1.077838 1.086851 0.6139909999999998
v -1.052178 1.131295 0.7024589999999998
v -0.955729 1.29835 0.7024599999999999
v -0.080508 -1.34939 0.34780600000000006
v -0.080642 -1.252204 0.34510300000000005
v -0.50786 -1.348226 0.24427800000000008
v -0.081906 -0.945018 0.33654200000000006
v -0.535035 -0.92011 0.23301400000000005
v 0.984142 -1.25274 0.3491600000000001
v 0.983717 -0.944988 0.34059900000000004
v 1.389509 -1.378112 0.16959700000000008
v 0.984275 -1.349925 0.35186400000000007
v 1.408476 -0.94566 0.15833200000000006
v 1.627569 -0.945661 -0.010518999999999943
v 1.63794 -1.408776 0.0007460000000000863
v -0.705974 0.9074080000000001 1.398146
v -0.589442 0.8401280000000001 1.354887
v -0.527437 0.8043290000000001 1.250156
v -0.822506 0.9746880000000001 1.354886
v -0.884511 1.010487 1.250156
v -0.494681 0.785418 0.812848
v -0.509381 0.793905 0.661912
v -0.904221 1.021866 0.6691079999999999
v -0.917267 1.029398 0.8128489999999999
v -0.904221 1.021866 0.6619119999999998
vt 0.178822 0.219367
vt 0.177345 0.212018
vt 0.181921 0.214245
vt 0.006854 0.207387
vt 0.008414 0.218360
vt 0.004197 0.214554
vt 0.134743 0.209610
vt 0.139805 0.208718
vt 0.138862 0.218795
vt 0.671980 0.994692
vt 0.639406 0.994692
vt 0.639406 0.908131
vt 0.639406 0.908131
vt 0.671980 0.908131
vt 0.671980 0.994692
vt 0.671980 0.908131
vt 0.639406 0.908131
vt 0.639406 0.994692
vt 0.639406 0.994692
vt 0.671980 0.994692
vt 0.671980 0.908131
vt 0.632388 0.732257
vt 0.625974 0.749163
vt 0.601162 0.696213
vt 0.625974 0.749163
vt 0.617204 0.761066
vt 0.601162 0.696213
vt 0.617204 0.761066
vt 0.606998 0.766717
vt 0.601162 0.696213
vt 0.606998 0.766717
vt 0.596428 0.765521
vt 0.601162 0.696213
vt 0.966021 0.253180
vt 0.966021 0.299156
vt 0.960818 0.299156
vt 0.960818 0.299156
vt 0.960818 0.253180
vt 0.966021 0.253180
vt 0.960818 0.228141
vt 0.960818 0.181398
vt 0.966021 0.181398
vt 0.966021 0.181398
vt 0.966021 0.228141
vt 0.960818 0.228141
vt 0.966021 0.253180
vt 0.966021 0.299156
vt 0.960818 0.299156
vt 0.960818 0.299156
vt 0.960818 0.253180
vt 0.966021 0.253180
vt 0.960818 0.228141
vt 0.960818 0.181398
vt 0.966021 0.181398
vt 0.966021 0.181398
vt 0.966021 0.228141
vt 0.960818 0.228141
vt 0.966021 0.253180
vt 0.966021 0.299156
vt 0.960818 0.299156
vt 0.960818 0.299156
vt 0.960818 0.253180
vt 0.966021 0.253180
vt 0.960818 0.228141
vt 0.960818 0.181398
vt 0.966021 0.181398
vt 0.966021 0.181398
vt 0.966021 0.228141
vt 0.960818 0.228141
vt 0.966021 0.253180
vt 0.966021 0.299156
vt 0.960818 0.299156
vt 0.960818 0.299156
vt 0.960818 0.253180
vt 0.966021 0.253180
vt 0.960818 0.228141
vt 0.960818 0.181398
vt 0.966021 0.181398
vt 0.966021 0.181398
vt 0.966021 0.228141
vt 0.960818 0.228141
vt 0.966021 0.253180
vt 0.966021 0.299156
vt 0.960818 0.299156
vt 0.960818 0.299156
vt 0.960818 0.253180
vt 0.966021 0.253180
vt 0.960818 0.228141
vt 0.960818 0.181398
vt 0.966021 0.181398
vt 0.966021 0.181398
vt 0.966021 0.228141
vt 0.960818 0.228141
vt 0.606998 0.766717
vt 0.596428 0.765521
vt 0.601162 0.696213
vt 0.635773 0.690871
vt 0.635773 0.712121
vt 0.601162 0.696213
vt 0.758142 0.875318
vt 0.796498 0.875318
vt 0.796498 0.892076
vt 0.796498 0.892076
vt 0.758142 0.892076
vt 0.758142 0.875318
vt 0.328788 0.081965
vt 0.328736 0.080425
vt 0.199519 0.083487
vt 0.966021 0.253107
vt 0.966021 0.299083
vt 0.960818 0.299083
vt 0.960818 0.299083
vt 0.960818 0.253107
vt 0.966021 0.253107
vt 0.960818 0.228068
vt 0.960818 0.181325
vt 0.966021 0.181325
vt 0.966021 0.181325
vt 0.966021 0.228068
vt 0.960818 0.228068
vt 0.212945 0.227312
vt 0.181101 0.227049
vt 0.181204 0.212578
vt 0.181204 0.212578
vt 0.212925 0.211971
vt 0.172361 0.237655
vt 0.140606 0.237573
vt 0.140936 0.218781
vt 0.140936 0.218781
vt 0.172326 0.218143
vt 0.635773 0.712121
vt 0.632388 0.732257
vt 0.601162 0.696213
vt 0.635773 0.690871
vt 0.635773 0.712121
vt 0.081873 0.315396
vt 0.081873 0.246400
vt 0.092431 0.246400
vt 0.092431 0.315396
vt 0.081873 0.315396
vt 0.758142 0.925453
vt 0.758142 0.908688
vt 0.796498 0.908688
vt 0.796498 0.908688
vt 0.796498 0.925453
vt 0.199536 0.081968
vt 0.328788 0.081965
vt 0.199519 0.083487
vt 0.328736 0.080425
vt 0.328736 0.083487
vt 0.451132 0.080425
vt 0.451132 0.083487
vt 0.684327 0.893255
vt 0.684327 0.770307
vt 0.684327 0.893255
vt 0.723731 0.893254
vt 0.723731 0.893254
vt 0.635773 0.712121
vt 0.632388 0.732257
vt 0.601162 0.696213
vt 0.632388 0.732257
vt 0.625974 0.749163
vt 0.625974 0.749163
vt 0.617204 0.761066
vt 0.617204 0.761066
vt 0.606998 0.766717
vt 0.212949 0.236800
vt 0.181198 0.236800
vt 0.181162 0.229380
vt 0.212928 0.229896
vt 0.212925 0.211971
vt 0.181204 0.212578
vt 0.181198 0.203218
vt 0.212949 0.203218
vt 0.040285 0.205910
vt 0.009144 0.206140
vt 0.008516 0.229129
vt 0.040267 0.230098
vt 0.040285 0.216365
vt 0.009171 0.216323
vt 0.009144 0.206140
vt 0.040301 0.207055
vt 0.040236 0.228685
vt 0.008516 0.229129
vt 0.009162 0.220039
vt 0.040285 0.219597
vt 0.172361 0.206749
vt 0.140956 0.206722
vt 0.140591 0.194161
vt 0.172354 0.195246
vt 0.172326 0.218143
vt 0.140936 0.218781
vt 0.140956 0.208711
vt 0.172361 0.208725
vt 0.732303 0.449587
vt 0.709985 0.545281
vt 0.684944 0.545281
vt 0.732303 0.545281
vt 0.671980 0.994692
vt 0.671980 0.908131
vt 0.710400 0.908131
vt 0.710400 0.994692
vt 0.432910 0.374175
vt 0.432910 0.480746
vt 0.364749 0.480746
vt 0.364749 0.374175
vt 0.736725 0.506511
vt 0.736725 0.449856
vt 0.758082 0.449856
vt 0.758082 0.506436
vt 0.589566 0.434922
vt 0.589566 0.338321
vt 0.638550 0.344620
vt 0.638550 0.434922
vt 0.881667 0.466807
vt 0.888721 0.675108
vt 0.846393 0.674910
vt 0.857106 0.466531
vt 0.420729 0.770122
vt 0.412304 0.702835
vt 0.444078 0.702835
vt 0.435653 0.770122
vt 0.420729 0.770122
vt 0.412304 0.702835
vt 0.444078 0.702835
vt 0.435653 0.770122
vt 0.420729 0.770122
vt 0.412304 0.702835
vt 0.444078 0.702835
vt 0.435653 0.770122
vt 0.420729 0.770122
vt 0.412304 0.702835
vt 0.444078 0.702835
vt 0.435653 0.770122
vt 0.420729 0.770122
vt 0.412304 0.702835
vt 0.444078 0.702835
vt 0.435653 0.770122
vt 0.323979 0.145191
vt 0.329479 0.134365
vt 0.334945 0.145151
vt 0.329446 0.155980
vt 0.796120 0.680515
vt 0.796120 0.721864
vt 0.759499 0.721864
vt 0.759499 0.680515
vt 0.960818 0.229326
vt 0.966021 0.229326
vt 0.966021 0.251596
vt 0.960818 0.251596
vt 0.960818 0.229326
vt 0.966021 0.229326
vt 0.966021 0.251596
vt 0.960818 0.251596
vt 0.960818 0.229326
vt 0.966021 0.229326
vt 0.966021 0.251596
vt 0.960818 0.251596
vt 0.960818 0.229326
vt 0.966021 0.229326
vt 0.966021 0.251596
vt 0.960818 0.251596
vt 0.960818 0.229326
vt 0.966021 0.229326
vt 0.966021 0.251596
vt 0.960818 0.251596
vt 0.420729 0.770122
vt 0.412304 0.702835
vt 0.444078 0.702835
vt 0.435653 0.770122
vt 0.362748 0.531502
vt 0.287419 0.531502
vt 0.291020 0.375270
vt 0.359180 0.375299
vt 0.309930 0.304533
vt 0.296306 0.304533
vt 0.296306 0.289723
vt 0.309930 0.289723
vt 0.217370 0.203154
vt 0.311751 0.203154
vt 0.311751 0.229431
vt 0.217370 0.229431
vt 0.288660 0.304533
vt 0.275593 0.304533
vt 0.275593 0.289723
vt 0.288660 0.289723
vt 0.986864 0.508092
vt 0.992892 0.508092
vt 0.992892 0.700149
vt 0.986864 0.700149
vt 0.980577 0.951579
vt 0.980577 0.986677
vt 0.971714 0.986677
vt 0.971714 0.951579
vt 0.639573 0.451040
vt 0.677007 0.451040
vt 0.677007 0.494657
vt 0.639573 0.494657
vt 0.791797 0.773792
vt 0.775456 0.773792
vt 0.775456 0.744182
vt 0.791797 0.744182
vt 0.417866 0.155980
vt 0.400241 0.155980
vt 0.400241 0.135479
vt 0.417866 0.135479
vt 0.758626 0.773792
vt 0.775456 0.773792
vt 0.775456 0.850829
vt 0.758626 0.806696
vt 0.775456 0.773792
vt 0.791797 0.773792
vt 0.791797 0.831838
vt 0.775456 0.850476
vt 0.092431 0.315396
vt 0.092431 0.246400
vt 0.097656 0.246400
vt 0.097656 0.315396
vt 0.227075 0.531254
vt 0.230639 0.375135
vt 0.283732 0.375135
vt 0.287419 0.531502
vt 0.151746 0.531254
vt 0.155330 0.374938
vt 0.223491 0.374937
vt 0.227075 0.531254
vt 0.227075 0.531254
vt 0.230639 0.375135
vt 0.283732 0.375135
vt 0.287419 0.531502
vt 0.110519 0.245679
vt 0.116269 0.250400
vt 0.113880 0.261578
vt 0.108133 0.256871
vt 0.101602 0.272139
vt 0.107210 0.267484
vt 0.109567 0.278813
vt 0.103962 0.283570
vt 0.553424 0.323040
vt 0.526540 0.323040
vt 0.526540 0.267871
vt 0.553424 0.267871
vt 0.609103 0.268072
vt 0.636347 0.268072
vt 0.636347 0.323044
vt 0.609103 0.323044
vt 0.581323 0.268072
vt 0.609103 0.268072
vt 0.609103 0.323044
vt 0.581323 0.323044
vt 0.581323 0.268072
vt 0.581323 0.323044
vt 0.553424 0.323040
vt 0.553424 0.267871
vt 0.553424 0.323040
vt 0.581323 0.323044
vt 0.581327 0.378800
vt 0.553424 0.378800
vt 0.334945 0.145151
vt 0.329446 0.155980
vt 0.323979 0.145191
vt 0.329479 0.134365
vt 0.758142 0.858698
vt 0.796498 0.858698
vt 0.796498 0.875318
vt 0.758142 0.875318
vt 0.758142 0.892076
vt 0.796498 0.892076
vt 0.796498 0.908688
vt 0.758142 0.908688
vt 0.451132 0.086496
vt 0.451132 0.089515
vt 0.328736 0.089515
vt 0.328736 0.086496
vt 0.589197 0.083508
vt 0.589197 0.086507
vt 0.458843 0.086507
vt 0.458843 0.083508
vt 0.458843 0.083508
vt 0.458861 0.082005
vt 0.589216 0.082004
vt 0.589197 0.083508
vt 0.666672 0.219145
vt 0.666672 0.195777
vt 0.678190 0.201547
vt 0.678190 0.213787
vt 0.631539 0.166962
vt 0.665674 0.173487
vt 0.666672 0.195777
vt 0.625608 0.195777
vt 0.625608 0.219145
vt 0.666672 0.219145
vt 0.664658 0.242863
vt 0.631220 0.249885
vt 0.625608 0.195777
vt 0.666672 0.195777
vt 0.666672 0.219145
vt 0.625608 0.219145
vt 0.684327 0.770307
vt 0.723731 0.893254
vt 0.684327 0.893255
vt 0.723731 0.770307
vt 0.098301 0.524286
vt 0.051376 0.524286
vt 0.051376 0.379374
vt 0.098301 0.379363
vt 0.401602 0.540841
vt 0.408078 0.586799
vt 0.383130 0.586799
vt 0.389221 0.540841
vt 0.336290 0.540841
vt 0.342580 0.586799
vt 0.317630 0.586799
vt 0.323920 0.540841
vt 0.268059 0.540841
vt 0.274349 0.586799
vt 0.249399 0.586799
vt 0.255690 0.540841
vt 0.200919 0.540841
vt 0.207203 0.586799
vt 0.182254 0.586799
vt 0.188538 0.540841
vt 0.130662 0.540841
vt 0.136952 0.586799
vt 0.112002 0.586799
vt 0.118292 0.540841
vt 0.059669 0.540896
vt 0.065898 0.586799
vt 0.040949 0.586799
vt 0.047299 0.540896
vt 0.002278 0.379374
vt 0.049317 0.379374
vt 0.049317 0.524286
vt 0.010639 0.524286
vt 0.138694 0.523943
vt 0.099330 0.523943
vt 0.099330 0.379363
vt 0.144583 0.379353
vt 0.796120 0.721864
vt 0.796120 0.679572
vt 0.759499 0.679572
vt 0.759499 0.721864
vt 0.796120 0.619869
vt 0.796120 0.674115
vt 0.759499 0.674115
vt 0.759499 0.619869
vt 0.960818 0.229256
vt 0.966021 0.229256
vt 0.966021 0.251526
vt 0.960818 0.251526
vt 0.538731 0.560979
vt 0.527923 0.568014
vt 0.515252 0.549622
vt 0.515252 0.549622
vt 0.515252 0.526770
vt 0.547527 0.487123
vt 0.572156 0.539175
vt 0.580299 0.481915
vt 0.539867 0.422958
vt 0.595511 0.575898
vt 0.515252 0.456207
vt 0.490638 0.422958
vt 0.567473 0.610343
vt 0.580065 0.671292
vt 0.482977 0.487123
vt 0.450206 0.481915
vt 0.550416 0.673431
vt 0.540238 0.729368
vt 0.458349 0.539176
vt 0.434994 0.575898
vt 0.515252 0.686491
vt 0.490266 0.729368
vt 0.529751 0.616346
vt 0.527923 0.568014
vt 0.480089 0.673431
vt 0.450440 0.671292
vt 0.500753 0.616346
vt 0.463032 0.610343
vt 0.523067 0.597845
vt 0.491773 0.560979
vt 0.507438 0.597845
vt 0.502581 0.568015
vt 0.502581 0.568015
vt 0.515252 0.549622
vt 0.759141 0.430626
vt 0.732920 0.438049
vt 0.731244 0.341685
vt 0.707741 0.435558
vt 0.731244 0.341685
vt 0.102732 0.189356
vt 0.102732 0.164142
vt 0.141670 0.164142
vt 0.141670 0.189356
vt 0.152924 0.164142
vt 0.152924 0.189356
vt 0.165462 0.164142
vt 0.165462 0.189356
vt 0.178000 0.164142
vt 0.178000 0.189356
vt 0.189254 0.164142
vt 0.189254 0.189356
vt 0.228191 0.189356
vt 0.228191 0.164142
vt 0.685173 0.213713
vt 0.685173 0.180588
vt 0.721798 0.180588
vt 0.721798 0.213713
vt 0.817091 0.180588
vt 0.817091 0.213713
vt 0.849044 0.180588
vt 0.849044 0.213713
vt 0.007895 0.186964
vt 0.007895 0.167016
vt 0.041272 0.167016
vt 0.041272 0.186964
vt 0.098825 0.167016
vt 0.098825 0.186964
vt 0.003318 0.366243
vt 0.011233 0.344696
vt 0.070748 0.323437
vt 0.070748 0.366243
vt 0.101682 0.322024
vt 0.141266 0.366243
vt 0.141266 0.274574
vt 0.106091 0.292579
vt 0.155765 0.326526
vt 0.187282 0.304727
vt 0.234857 0.259282
vt 0.222847 0.326526
vt 0.234857 0.366243
vt 0.277238 0.366243
vt 0.258990 0.280726
vt 0.277238 0.323437
vt 0.301204 0.323437
vt 0.301204 0.366243
vt 0.315132 0.244340
vt 0.319519 0.267538
vt 0.303418 0.253042
vt 0.314566 0.276672
vt 0.303183 0.266436
vt 0.264723 0.242857
vt 0.276171 0.253081
vt 0.259624 0.265565
vt 0.275993 0.266548
vt 0.264292 0.275368
vt 0.055584 0.315396
vt 0.055584 0.246400
vt 0.066123 0.246400
vt 0.066123 0.315396
vt 0.071388 0.246400
vt 0.071388 0.315396
vt 0.081873 0.246400
vt 0.081873 0.315396
vt 0.160986 0.155980
vt 0.160986 0.133867
vt 0.212501 0.133867
vt 0.212501 0.155980
vt 0.224104 0.133867
vt 0.224104 0.155980
vt 0.238690 0.133867
vt 0.238690 0.155980
vt 0.253275 0.133867
vt 0.253275 0.155980
vt 0.264877 0.133867
vt 0.264877 0.155980
vt 0.316386 0.133867
vt 0.316386 0.155980
vt 0.451132 0.083487
vt 0.451132 0.086496
vt 0.328736 0.086496
vt 0.328736 0.083487
vt 0.199519 0.086496
vt 0.199519 0.083487
vt 0.006957 0.155980
vt 0.006957 0.131943
vt 0.061472 0.131942
vt 0.061472 0.155980
vt 0.070545 0.131942
vt 0.070545 0.155979
vt 0.087656 0.155979
vt 0.087656 0.131942
vt 0.096729 0.131942
vt 0.096729 0.155979
vt 0.151245 0.131942
vt 0.151245 0.155979
vt 0.317630 0.586799
vt 0.342580 0.586799
vt 0.346867 0.762750
vt 0.313066 0.761718
vt 0.286466 0.586799
vt 0.311416 0.586799
vt 0.282592 0.996365
vt 0.305688 0.996365
vt 0.353943 0.996365
vt 0.348483 0.586799
vt 0.377512 0.996365
vt 0.373432 0.586799
vt 0.408078 0.586799
vt 0.411791 0.996365
vt 0.383130 0.586799
vt 0.249399 0.586799
vt 0.274349 0.586799
vt 0.244748 0.996365
vt 0.211077 0.996365
vt 0.224468 0.586799
vt 0.207203 0.586799
vt 0.175909 0.996365
vt 0.182254 0.586799
vt 0.172035 0.586799
vt 0.140825 0.996365
vt 0.147086 0.586799
vt 0.112002 0.586799
vt 0.136952 0.586799
vt 0.108128 0.996365
vt 0.102149 0.586799
vt 0.069772 0.996365
vt 0.077200 0.586799
vt 0.065898 0.586799
vt 0.033845 0.996365
vt 0.040949 0.586799
vt 0.000986 0.996365
vt 0.004817 0.586799
vt 0.029765 0.586799
vt 0.364756 0.366115
vt 0.306582 0.366115
vt 0.328738 0.336450
vt 0.364756 0.304261
vt 0.377278 0.327991
vt 0.411560 0.304261
vt 0.364756 0.274231
vt 0.458434 0.274231
vt 0.458434 0.304261
vt 0.444358 0.327991
vt 0.458434 0.366115
vt 0.501736 0.366115
vt 0.497066 0.322289
vt 0.534848 0.368524
vt 0.584640 0.415129
vt 0.480116 0.378135
vt 0.616152 0.505463
vt 0.411894 0.541333
vt 0.435112 0.441388
vt 0.620941 0.615321
vt 0.597722 0.715266
vt 0.497987 0.788130
vt 0.552718 0.778518
vt 0.416682 0.651191
vt 0.448194 0.741524
vt 0.625925 0.874841
vt 0.625925 0.777987
vt 0.603192 0.777987
vt 0.603192 0.874841
vt 0.567162 0.874841
vt 0.567162 0.777987
vt 0.451420 0.155980
vt 0.426333 0.155980
vt 0.426333 0.137758
vt 0.451420 0.137758
vt 0.479745 0.137758
vt 0.479745 0.155980
vt 0.576476 0.155980
vt 0.576476 0.137758
vt 0.610058 0.137758
vt 0.610058 0.155980
vt 0.567162 0.874841
vt 0.567162 0.777987
vt 0.603192 0.777987
vt 0.603192 0.874841
vt 0.625925 0.874841
vt 0.625925 0.777987
vt 0.762046 0.403549
vt 0.783828 0.403549
vt 0.783828 0.473903
vt 0.762046 0.473903
vt 0.762046 0.609955
vt 0.783828 0.609955
vt 0.310677 0.410741
vt 0.324800 0.403425
vt 0.338922 0.410747
vt 0.346435 0.428508
vt 0.297607 0.531502
vt 0.303162 0.428499
vt 0.351978 0.531502
vt 0.045239 0.523895
vt 0.013396 0.523895
vt 0.041879 0.415318
vt 0.016645 0.417929
vt 0.021046 0.402635
vt 0.037589 0.402635
vt 0.677007 0.574911
vt 0.666639 0.574911
vt 0.677007 0.494657
vt 0.639573 0.574911
vt 0.639573 0.494657
vt 0.666639 0.766748
vt 0.639573 0.766748
vt 0.677007 0.847565
vt 0.677007 0.766748
vt 0.639573 0.847565
vt 0.639573 0.898860
vt 0.677007 0.898860
vt 0.643099 0.291981
vt 0.646937 0.268021
vt 0.656227 0.255273
vt 0.646937 0.315940
vt 0.656227 0.328689
vt 0.695020 0.248538
vt 0.708409 0.251561
vt 0.707771 0.332741
vt 0.695020 0.335423
vt 0.708409 0.332741
vn -7E-06 2.8000000000061233E-05 1
vn -7E-06 2.8000000000061233E-05 1
vn -7E-06 2.8000000000061233E-05 1
vn 0.231365 0.08896500000000006 0.968791
vn 0.231365 0.08896500000000006 0.968791
vn 0.231365 0.08896500000000006 0.968791
vn 0.064328 -0.058647999999999936 0.996204
vn 0.064328 -0.058647999999999936 0.996204
vn 0.064328 -0.058647999999999936 0.996204
vn 0.721572 0.691343 -0.03712400000000004
vn 0.721572 0.691343 -0.03712400000000004
vn 0.721572 0.691343 -0.03712400000000004
vn 0.754578 0.65621 0.0004929999999999597
vn 0.754578 0.65621 0.0004929999999999597
vn 0.754578 0.65621 0.0004929999999999597
vn -0.655959 -0.753777 -0.03922399999999995
vn -0.655959 -0.753777 -0.03922399999999995
vn -0.655959 -0.753777 -0.03922399999999995
vn -0.690526 -0.723308 0.00048100000000004427
vn -0.690526 -0.723308 0.00048100000000004427
vn -0.690526 -0.723308 0.00048100000000004427
vn -0.00413 0.972472 0.23298399999999994
vn -0.00413 0.972472 0.23298399999999994
vn 0.00357 0.009050000000000061 0.999953
vn -0.841073 0.480828 0.24779199999999998
vn -0.841073 0.480828 0.24779199999999998
vn 0.00357 0.009050000000000061 0.999953
vn -0.832928 -0.485607 0.26536200000000004
vn -0.832928 -0.485607 0.26536200000000004
vn 0.00357 0.009050000000000061 0.999953
vn 0.004098 -0.963329 0.26829100000000006
vn 0.004098 -0.963329 0.26829100000000006
vn 0.00357 0.009050000000000061 0.999953
vn -0.250176 0.933649 0.25634099999999993
vn -0.250176 0.933649 0.25634099999999993
vn -0.250176 0.933649 0.25634099999999993
vn -0.128175 0.963923 0.23329099999999994
vn -0.128175 0.963923 0.23329099999999994
vn -0.128175 0.963923 0.23329099999999994
vn -0.25203 -0.940565 0.22763800000000006
vn -0.25203 -0.940565 0.22763800000000006
vn -0.25203 -0.940565 0.22763800000000006
vn -0.127173 -0.956484 0.26261300000000004
vn -0.127173 -0.956484 0.26261300000000004
vn -0.127173 -0.956484 0.26261300000000004
vn -0.933596 0.250152 0.256559
vn -0.933596 0.250152 0.256559
vn -0.933596 0.250152 0.256559
vn -0.898776 0.371054 0.23349399999999998
vn -0.898776 0.371054 0.23349399999999998
vn -0.898776 0.371054 0.23349399999999998
vn 0.68851 -0.68851 0.22783200000000006
vn 0.68851 -0.68851 0.22783200000000006
vn 0.68851 -0.68851 0.22783200000000006
vn 0.764776 -0.588247 0.26283600000000007
vn 0.764776 -0.588247 0.26283600000000007
vn 0.764776 -0.588247 0.26283600000000007
vn -0.683442 -0.683436 0.25655800000000006
vn -0.683442 -0.683436 0.25655800000000006
vn -0.683442 -0.683436 0.25655800000000006
vn -0.770734 -0.592832 0.23349400000000003
vn -0.770734 -0.592832 0.23349400000000003
vn -0.770734 -0.592832 0.23349400000000003
vn 0.940522 0.252013 0.22783399999999998
vn 0.940522 0.252013 0.22783399999999998
vn 0.940522 0.252013 0.22783399999999998
vn 0.891829 0.368183 0.262835
vn 0.891829 0.368183 0.262835
vn 0.891829 0.368183 0.262835
vn 0.933596 -0.250152 0.256558
vn 0.933596 -0.250152 0.256558
vn 0.933596 -0.250152 0.256558
vn 0.898776 -0.371055 0.23349400000000003
vn 0.898776 -0.371055 0.23349400000000003
vn 0.898776 -0.371055 0.23349400000000003
vn -0.688505 0.688515 0.22783399999999995
vn -0.688505 0.688515 0.22783399999999995
vn -0.688505 0.688515 0.22783399999999995
vn -0.764771 0.588253 0.26283699999999993
vn -0.764771 0.588253 0.26283699999999993
vn -0.764771 0.588253 0.26283699999999993
vn 0.683445 0.683434 0.2565569999999999
vn 0.683445 0.683434 0.2565569999999999
vn 0.683445 0.683434 0.2565569999999999
vn 0.770729 0.592837 0.23349499999999998
vn 0.770729 0.592837 0.23349499999999998
vn 0.770729 0.592837 0.23349499999999998
vn -0.940523 -0.25201 0.22783300000000004
vn -0.940523 -0.25201 0.22783300000000004
vn -0.940523 -0.25201 0.22783300000000004
vn -0.891828 -0.368185 0.262835
vn -0.891828 -0.368185 0.262835
vn -0.891828 -0.368185 0.262835
vn -0.841568 -0.485874 0.23598800000000003
vn -0.841568 -0.485874 0.23598800000000003
vn -0.0036 -0.00900499999999994 0.999953
vn 3E-06 -0.972481 0.23298100000000005
vn 3E-06 -0.972481 0.23298100000000005
vn -0.0036 -0.00900499999999994 0.999953
vn -0.224882 0.21338600000000005 0.950734
vn 0.258859 -0.17810299999999996 0.949353
vn -0.73103 0.601258 0.32262099999999994
vn -0.73103 0.601258 0.32262099999999994
vn -0.742447 0.588597 -0.31988400000000006
vn -0.224882 0.21338600000000005 0.950734
vn -0.328056 0.944654 -0.0028070000000000577
vn -0.654511 0.755858 0.017125999999999954
vn -0.86762 0.497214 -0.00364500000000003
vn 0.250177 -0.933649 0.25634300000000004
vn 0.250177 -0.933649 0.25634300000000004
vn 0.250177 -0.933649 0.25634300000000004
vn 0.128168 -0.963923 0.23329200000000005
vn 0.128168 -0.963923 0.23329200000000005
vn 0.128168 -0.963923 0.23329200000000005
vn 0.252029 0.940565 0.22763599999999995
vn 0.252029 0.940565 0.22763599999999995
vn 0.252029 0.940565 0.22763599999999995
vn 0.127177 0.956484 0.26260999999999995
vn 0.127177 0.956484 0.26260999999999995
vn 0.127177 0.956484 0.26260999999999995
vn 0.201956 0.979152 0.02179499999999994
vn -0.738807 0.672991 0.03533299999999996
vn 0.946372 0.322362 0.021534999999999978
vn 0.946372 0.322362 0.021534999999999978
vn 0.612292 -0.789726 0.03784000000000005
vn -0.527268 0.849362 0.02391099999999995
vn -0.997285 -0.062905 0.03829200000000001
vn 0.469016 0.8829 0.022612999999999946
vn 0.469016 0.8829 0.022612999999999946
vn 0.997172 -0.062848 0.041204000000000005
vn 0.839496 0.489444 0.23598799999999998
vn 0.839496 0.489444 0.23598799999999998
vn 0.00357 0.009050000000000061 0.999953
vn 0.839743 -0.480059 0.25372400000000006
vn 0.839743 -0.480059 0.25372400000000006
vn 0.452113 0.0010929999999999454 -0.89196
vn 0.894329 -0.036493000000000025 -0.445919
vn 0.007653 0.028583999999999936 -0.999562
vn 0.005486 0.02932899999999994 -0.999555
vn 0.452113 0.0010929999999999454 -0.89196
vn 0.777513 -0.628864 -0.0018229999999999614
vn -0.017112 -0.018421000000000062 -0.999684
vn -0.017985 -0.01875600000000006 -0.999662
vn -0.017985 -0.01875600000000006 -0.999662
vn 0.776995 -0.629502 -0.0023349999999999612
vn -0.866933 0.49835 -0.00866700000000003
vn -0.328056 0.944654 -0.0028070000000000577
vn -0.86762 0.497214 -0.00364500000000003
vn -0.654511 0.755858 0.017125999999999954
vn -0.86147 -0.507211 0.02462300000000003
vn -0.86126 -0.506988 0.03456000000000003
vn -0.861312 -0.5069 0.034564000000000025
vn 1 0 0
vn 1 0 0
vn 1 0 0
vn 1 0 0
vn 1 0 0
vn 0.839017 -0.484407 0.24779000000000004
vn 0.839017 -0.484407 0.24779000000000004
vn -0.0036 -0.00900499999999994 0.999953
vn 0.834977 0.482074 0.26536299999999996
vn 0.834977 0.482074 0.26536299999999996
vn 2E-06 0.963338 0.2682899999999999
vn 2E-06 0.963338 0.2682899999999999
vn -0.837688 0.483634 0.25372599999999995
vn -0.837688 0.483634 0.25372599999999995
vn -0.976603 0.212832 0.030811999999999985
vn -0.96822 0.24891 0.024373999999999986
vn -0.738807 0.672991 0.03533299999999996
vn 0.201956 0.979152 0.02179499999999994
vn 0.612292 -0.789726 0.03784000000000005
vn 0.946372 0.322362 0.021534999999999978
vn 0.144722 -0.989033 0.02947400000000006
vn 0.120054 -0.992456 0.024851000000000064
vn -0.300251 0.953534 0.024943999999999942
vn -0.989976 0.134139 0.04420099999999999
vn 0.672014 0.740079 0.026071999999999956
vn 0.950308 -0.308353 0.04280800000000002
vn -0.925211 -0.377688 0.03654600000000002
vn -0.932885 -0.358722 0.03233100000000002
vn -0.989976 0.134139 0.04420099999999999
vn -0.300251 0.953534 0.024943999999999942
vn 0.950308 -0.308353 0.04280800000000002
vn 0.672014 0.740079 0.026071999999999956
vn 0.670397 -0.741176 0.03501000000000005
vn 0.636679 -0.770686 0.026125000000000047
vn -0.832223 -0.553409 0.033823000000000034
vn -0.851367 -0.523888 0.02674000000000003
vn -0.997285 -0.062905 0.03829200000000001
vn -0.527268 0.849362 0.02391099999999995
vn 0.997172 -0.062848 0.041204000000000005
vn 0.469016 0.8829 0.022612999999999946
vn 0.83392 -0.55092 0.032611000000000036
vn 0.816676 -0.57649 0.026454000000000033
vn -0.053015 0.795362 0.603812
vn -0.053015 0.795362 0.603812
vn -0.493108 0.696241 0.521625
vn 0.398225 0.727248 0.559042
vn -0.707107 0.707107 3.999999999956702E-06
vn -0.707107 0.707107 3.999999999956702E-06
vn -0.707107 0.707107 3.999999999956702E-06
vn -0.707107 0.707107 3.999999999956702E-06
vn 0 -9.999999999387675E-07 1
vn 0 -9.999999999387675E-07 1
vn 0 -9.999999999387675E-07 1
vn 0 -9.999999999387675E-07 1
vn 0 1.0000000000612324E-06 1
vn 0 -9.999999999387675E-07 1
vn 0 1.0000000000612324E-06 1
vn 0 1.0000000000612324E-06 1
vn 0 6.123233995736766E-17 1
vn 1E-06 6.123233995736766E-17 1
vn 0 6.123233995736766E-17 1
vn 0 6.123233995736766E-17 1
vn 0.136475 -0.974684 0.17710600000000007
vn 0.12052 -0.977256 0.17448600000000006
vn 0.136475 -0.974684 0.17710600000000007
vn 0.152393 -0.97185 0.17967900000000006
vn -1 6.123233995736766E-23 1E-06
vn -1 1.2246467991473532E-22 2E-06
vn -1 6.123233995736766E-23 1E-06
vn -1 6.123233995736766E-23 1E-06
vn -0.500005 -0.866022 -2.9999999999469716E-06
vn -0.500001 -0.866025 5.3028737211579333E-17
vn -0.500005 -0.866022 -2.9999999999469716E-06
vn -0.500005 -0.866022 -2.9999999999469716E-06
vn 1 -3E-06 -2E-06
vn 1 -1E-06 6.123233995736766E-23
vn 1 -3E-06 -2E-06
vn 1 -3E-06 -2E-06
vn 0.500001 0.866025 -1.0000000000530287E-06
vn 0.5 0.866026 -5.3028798443919284E-17
vn 0.500001 0.866025 -1.0000000000530287E-06
vn 0.500001 0.866025 -1.0000000000530287E-06
vn -0.500001 0.866025 -5.3028737211579333E-17
vn -0.5 0.866026 -1.0000000000530287E-06
vn -0.500001 0.866025 -5.3028737211579333E-17
vn -0.500001 0.866025 -5.3028737211579333E-17
vn -0.636602 -0.770937 0.01984700000000005
vn -0.636604 -0.770941 0.01964900000000005
vn -0.636602 -0.770937 0.01984700000000005
vn -0.6366 -0.770934 0.02004500000000005
vn -0.866026 0.5 -3.061616997868383E-17
vn -0.866026 0.5 -3.061616997868383E-17
vn -0.866026 0.5 -3.061616997868383E-17
vn -0.866026 0.5 -3.061616997868383E-17
vn -1E-06 4.000000000061232E-06 1
vn 4E-06 2.0000000000612323E-06 1
vn -1E-06 4.000000000061232E-06 1
vn -1E-06 4.000000000061232E-06 1
vn 2E-06 3.0000000000612325E-06 1
vn -5E-06 -9.999999999387675E-07 1
vn 2E-06 3.0000000000612325E-06 1
vn 2E-06 3.0000000000612325E-06 1
vn 2E-06 -2.9999999999387676E-06 1
vn 1E-06 5.000000000061232E-06 1
vn 2E-06 -2.9999999999387676E-06 1
vn 2E-06 -2.9999999999387676E-06 1
vn 2E-06 -9.999999999387675E-07 1
vn -8E-06 -7.999999999938768E-06 1
vn 2E-06 -9.999999999387675E-07 1
vn 2E-06 -9.999999999387675E-07 1
vn 4E-06 -1.0999999999938768E-05 1
vn 3E-06 1.0000000000612324E-06 1
vn 4E-06 -1.0999999999938768E-05 1
vn 4E-06 -1.0999999999938768E-05 1
vn 0.500006 -0.866022 1.0000000000530285E-06
vn 0.500001 -0.866025 -1.999999999946971E-06
vn 0.500006 -0.866022 1.0000000000530285E-06
vn 0.500006 -0.866022 1.0000000000530285E-06
vn 0.998893 -9.999999999971192E-07 0.047047
vn 0.998893 2.880736665634319E-18 0.047046
vn 0.998893 -9.999999999971192E-07 0.047047
vn 0.998893 -9.999999999971192E-07 0.047047
vn 0.999947 0.007957 0.0065179999999999995
vn 0.999851 0.014439 0.009429999999999997
vn 0.999947 0.007957 0.0065179999999999995
vn 0.999992 0.0014750000000000002 0.003605
vn 0.000276 0.999169 0.040760999999999936
vn 0.000207 0.999187 0.04030499999999994
vn 0.000276 0.999169 0.040760999999999936
vn 0.000346 0.99915 0.04121599999999994
vn -0.999954 -0.00789 -0.0054529999999999995
vn -0.999898 -0.014151 -0.001991999999999999
vn -0.999954 -0.00789 -0.0054529999999999995
vn -0.999959 -0.0016290000000000007 -0.008914
vn -0.003793 0.03901200000000006 0.999232
vn -0.003793 0.039015000000000064 0.999232
vn -0.003793 0.03901200000000006 0.999232
vn -0.003793 0.039009000000000064 0.999232
vn -0.929826 0.19507200000000002 0.312043
vn -0.915198 0.300023 0.269069
vn -0.929826 0.19507200000000002 0.312043
vn -0.932295 0.08757000000000002 0.350938
vn -0.994019 0.0012070000000000067 0.109203
vn -0.976398 0.06544900000000001 0.205822
vn -0.994019 0.0012070000000000067 0.109203
vn -0.997949 -0.063052 0.011080000000000003
vn 0.933876 0.347595 0.08398299999999997
vn 0.943951 0.280753 0.17358999999999997
vn 0.933876 0.347595 0.08398299999999997
vn 0.912035 0.410057 -0.006683000000000025
vn -0.552346 0.719003 0.42183999999999994
vn -0.530742 0.744877 0.40431599999999995
vn -0.552346 0.719003 0.42183999999999994
vn -0.573153 0.692091 0.43875499999999995
vn 0.083727 -0.986618 0.13990900000000006
vn 0.112583 -0.971534 0.20843600000000007
vn 0.083727 -0.986618 0.13990900000000006
vn 0.054389 -0.996023 0.07057700000000006
vn 0.174846 -0.15629499999999993 0.972111
vn 0.250051 0.07436900000000006 0.965373
vn 0.498967 -0.22380199999999995 0.837224
vn 0.266841 -0.856204 0.44239200000000006
vn -0.920237 0.06123799999999998 -0.38654
vn -0.91987 0.06109799999999998 -0.387435
vn -0.920237 0.06123799999999998 -0.38654
vn -0.920603 0.06137799999999998 -0.385645
vn 1E-06 0.99894 0.04603099999999994
vn 0 0.99894 0.046031999999999934
vn 1E-06 0.99894 0.04603099999999994
vn 2E-06 0.99894 0.04602999999999994
vn -0.998893 2.8807978979742764E-18 0.047047
vn -0.998893 -9.999999999971192E-07 0.047048
vn -0.998893 2.8807978979742764E-18 0.047047
vn -0.998893 2.8807978979742764E-18 0.047047
vn 0 -0.99894 0.04602600000000006
vn 0 -0.99894 0.04602600000000006
vn 0 -0.99894 0.04602600000000006
vn 0 -0.99894 0.04602600000000006
vn 0.64277 0.766059 -3.50000000000469E-05
vn 0.642775 0.766055 -2.8000000000046908E-05
vn 0.64277 0.766059 -3.50000000000469E-05
vn 0.642766 0.766063 -4.1000000000046906E-05
vn -0.64278 -0.766051 3.100000000004691E-05
vn -0.642781 -0.76605 2.900000000004691E-05
vn -0.64278 -0.766051 3.100000000004691E-05
vn -0.642778 -0.766052 3.300000000004691E-05
vn -0.633005 -0.774147 4.7402832280976306E-17
vn -0.633005 -0.774147 4.7402832280976306E-17
vn -0.633005 -0.774147 4.7402832280976306E-17
vn -0.633005 -0.774147 4.7402832280976306E-17
vn -0.774149 0.633003 -3.87602548900336E-17
vn -0.774149 0.633003 -3.87602548900336E-17
vn -0.774149 0.633003 -3.87602548900336E-17
vn -0.774149 0.633003 -3.87602548900336E-17
vn 0.61946 0.784855 -0.01650600000000005
vn 0.633006 0.774147 -4.7402832280976306E-17
vn 0.61946 0.784855 -0.01650600000000005
vn 0.605561 0.795115 -0.033002000000000045
vn 0.763102 -0.646068 -0.016493999999999964
vn 0.751623 -0.658767 -0.03297899999999996
vn 0.763102 -0.646068 -0.016493999999999964
vn 0.774149 -0.633004 3.876031612237356E-17
vn 0.061957 0.005948000000000061 0.998061
vn 0.123672 0.01187300000000006 0.992252
vn 0.061957 0.005948000000000061 0.998061
vn 1E-06 -9.999999999387675E-07 1
vn 0.633056 0.773818 -0.02110000000000005
vn 0.633054 0.773813 -0.02136300000000005
vn 0.633056 0.773818 -0.02110000000000005
vn 0.633058 0.773824 -0.02083700000000005
vn 0.777513 -0.628864 -0.0018229999999999614
vn 0.776995 -0.629502 -0.0023349999999999612
vn 0.258859 -0.17810299999999996 0.949353
vn -0.224882 0.21338600000000005 0.950734
vn -0.742447 0.588597 -0.31988400000000006
vn -0.73103 0.601258 0.32262099999999994
vn -0.017985 -0.01875600000000006 -0.999662
vn -0.017112 -0.018421000000000062 -0.999684
vn 0.002035 0.999988 0.004512999999999938
vn 0.004344 0.999981 0.004441999999999938
vn -0.654511 0.755858 0.017125999999999954
vn -0.328056 0.944654 -0.0028070000000000577
vn 0.868508 -0.493933 -0.04151699999999997
vn 0.871762 -0.488167 -0.04153199999999997
vn 0.868508 -0.493933 -0.04151699999999997
vn 0.865217 -0.499677 -0.041499999999999974
vn -0.868508 0.493934 0.04151699999999997
vn -0.86521 0.499676 0.041651999999999974
vn -0.868508 0.493934 0.04151699999999997
vn -0.871767 0.48817 0.04137999999999997
vn -0.764028 0.627267 -0.15098600000000004
vn -0.765451 0.625041 -0.15300000000000002
vn -0.764028 0.627267 -0.15098600000000004
vn -0.762597 0.629487 -0.14897000000000002
vn 0.610923 0.783351 -0.11460400000000004
vn 0.580695 0.789252 -0.19968600000000006
vn 0.610923 0.783351 -0.11460400000000004
vn 0.636149 0.771036 -0.028585000000000048
vn -0.664454 -0.740903 -0.09779499999999997
vn -0.629197 -0.752562 -0.19432699999999994
vn -0.664454 -0.740903 -0.09779499999999997
vn -0.692603 -0.721319 -0.0002169999999999558
vn -0.031044 0.061629000000000066 0.997616
vn -0.030126 0.06354000000000005 0.997524
vn -0.031044 0.061629000000000066 0.997616
vn -0.031962 0.05971800000000006 0.997703
vn 0.046177 -0.04617599999999994 0.997866
vn 0.046177 -0.04617599999999994 0.997866
vn 0.046176 -0.04617599999999994 0.997865
vn 0.046177 -0.04617599999999994 0.997866
vn 0.5 0.866026 -5.3028798443919284E-17
vn 0.5 0.866025 -5.3028737211579333E-17
vn 0.5 0.866026 -5.3028798443919284E-17
vn 0.5 0.866026 -5.3028798443919284E-17
vn 1 1E-06 -6.123233995736766E-23
vn 1 -6.123233995736766E-23 -1E-06
vn 1 1E-06 -6.123233995736766E-23
vn 1 3E-06 9.999999999999997E-07
vn 0.499999 0.866026 -1.0000000000530287E-06
vn 0.5 0.866025 -2.000000000053029E-06
vn 0.499999 0.866026 -1.0000000000530287E-06
vn 0.499999 0.866026 -5.3028798443919284E-17
vn -0.499999 0.866026 -5.3028798443919284E-17
vn -0.5 0.866025 9.999999999469712E-07
vn -0.499999 0.866026 -5.3028798443919284E-17
vn -0.499999 0.866026 -1.0000000000530287E-06
vn -1 0 0
vn -1 0 0
vn -1 0 0
vn -1 1E-06 -6.123233995736766E-23
vn -0.5 -0.866025 1.0000000000530287E-06
vn -0.500002 -0.866024 -9.999999999469712E-07
vn -0.5 -0.866025 1.0000000000530287E-06
vn -0.499998 -0.866026 3.000000000053029E-06
vn 0.499998 -0.866026 3.000000000053029E-06
vn 0.499999 -0.866026 3.000000000053029E-06
vn 0.499998 -0.866026 3.000000000053029E-06
vn 0.499998 -0.866027 2.000000000053029E-06
vn -0.866136 0.499808 -0.0001480000000000306
vn -0.866025 0.500001 -3.061623121102379E-17
vn -0.866136 0.499808 -0.0001480000000000306
vn -0.866247 0.499616 -0.0002970000000000306
vn 0.866026 -0.499999 3.061610874634387E-17
vn 0.866026 -0.499999 3.061610874634387E-17
vn 0.866026 -0.499999 3.061610874634387E-17
vn 0.866026 -0.499999 3.061610874634387E-17
vn 0.866025 -0.500001 3.061623121102379E-17
vn 0.866025 -0.500001 3.061623121102379E-17
vn 0.866025 -0.500001 3.061623121102379E-17
vn 0.866025 -0.500001 3.061623121102379E-17
vn 0.500001 0.866025 -5.3028737211579333E-17
vn 0.500001 0.866025 -5.3028737211579333E-17
vn 0.500001 0.866025 -5.3028737211579333E-17
vn 0.500001 0.866025 9.999999999469712E-07
vn 4E-06 -1.9999999999387675E-06 1
vn -4E-06 2.0000000000612323E-06 1
vn 4E-06 -1.9999999999387675E-06 1
vn 4E-06 -1.9999999999387675E-06 1
vn 0.623366 0.43718100000000004 0.648296
vn 0.36081 0.527219 0.769322
vn 0.754455 -0.22184999999999996 0.617721
vn 0.754455 -0.22184999999999996 0.617721
vn 0.608415 -0.4577609999999999 0.648295
vn 0.807152 0.08483500000000004 0.584217
vn 0.639972 0.576234 0.508321
vn 0.878849 0.390933 0.273488
vn 0.940923 -0.19966799999999998 0.273488
vn 0.480656 0.833171 0.2734889999999999
vn 0.745793 -0.43058399999999997 0.508321
vn 0.643378 -0.71503 0.27348800000000006
vn 0.168741 0.793863 0.584216
vn -0.100219 0.95664 0.2734889999999999
vn 0.330107 -0.741432 0.584216
vn 0.100866 -0.956572 0.27348700000000004
vn -0.350267 0.786716 0.508321
vn -0.643862 0.714595 0.27348799999999995
vn -0.179047 -0.842349 0.508321
vn -0.481219 -0.832846 0.27348800000000006
vn -0.702865 0.40579800000000005 0.584217
vn -0.940789 0.20030300000000004 0.273488
vn -0.223152 0.727953 0.648296
vn 0.36081 0.527219 0.769322
vn -0.856449 -0.09001699999999997 0.508322
vn -0.878584 -0.391527 0.273489
vn -0.761283 0.01271800000000004 0.648296
vn -0.603135 -0.543065 0.584216
vn -0.389921 0.506069 0.769322
vn -0.247346 -0.720092 0.648295
vn -0.740768 -0.26397599999999993 0.617721
vn 0.014775 -0.52438 0.851356
vn 0.014775 -0.52438 0.851356
vn 0.754455 -0.22184999999999996 0.617721
vn -0.524518 0.699086 0.48596199999999995
vn -0.758251 0.27643000000000006 0.590459
vn -0.83077 0.29965800000000004 0.469069
vn -0.908807 0.058917000000000025 0.413035
vn -0.916538 0.325451 0.23246499999999998
vn 0.862805 -0.49814 0.08616800000000002
vn 0.862804 -0.498141 0.08616900000000002
vn 0.83787 -0.483743 0.25291800000000003
vn 0.787102 -0.454432 0.41708800000000007
vn 0.593346 -0.34256799999999993 0.728414
vn 0.435854 -0.2516419999999999 0.864122
vn 0.092274 -0.05327499999999994 0.994307
vn -0.092277 0.05327900000000006 0.994307
vn -0.435854 0.25164600000000004 0.864121
vn -0.593345 0.34257200000000004 0.728414
vn -0.815589 0.470881 0.33628299999999994
vn -0.81559 0.470879 0.33628099999999994
vn -0.862805 0.498139 0.08616899999999997
vn -0.862804 0.49814 0.08616899999999997
vn -0.117399 -0.856991 0.501782
vn 0.031203 -0.614547 0.788263
vn -0.013981 -0.99415 0.10710000000000006
vn -0.095912 -0.543438 0.833952
vn 0.003314 -0.994384 0.10578200000000006
vn 0.122864 -0.812022 0.570547
vn 0.266841 -0.856204 0.44239200000000006
vn 0.575215 -0.37029699999999993 0.729389
vn 0.031203 -0.614547 0.788263
vn 0.004543 -0.39745299999999995 0.917611
vn -0.008928 -0.13003699999999996 0.991469
vn -0.041321 0.049596000000000064 0.997914
vn -0.12056 0.10854000000000005 0.986754
vn -0.092088 0.12924400000000005 0.987328
vn 0.698645 0.709746 0.09030699999999996
vn 0.64898 0.730101 0.21395799999999995
vn 0.496135 0.867745 0.029461999999999947
vn 0.250967 0.96509 -0.07494400000000005
vn -0.03687 0.99909 0.021442999999999938
vn -0.006842 0.99974 -0.02176800000000006
vn -0.040323 0.995056 0.09075899999999995
vn -0.124045 0.960001 0.25101899999999994
vn -0.051121 0.998497 -0.01974200000000006
vn 0.00544 0.997768 0.06655299999999995
vn 0.022904 0.997172 0.07158499999999994
vn 0.072914 0.997127 0.020522999999999937
vn 0.017704 0.999319 0.03238799999999994
vn -0.128043 0.991625 0.01687199999999994
vn 0.037461 0.992276 0.11826199999999995
vn -0.081973 0.995266 0.05220399999999994
vn -0.228256 0.973481 0.015305999999999941
vn -0.219205 0.975676 -0.00246800000000006
vn -0.058258 -0.998146 -0.017625999999999937
vn -0.058389 -0.998141 -0.017494999999999938
vn -0.058638 -0.998128 -0.017365999999999937
vn -0.058827 -0.998119 -0.017234999999999938
vn -0.059135 -0.998103 -0.017106999999999938
vn 0.057653 0.998139 0.01984799999999994
vn 0.057836 0.998132 0.019662999999999937
vn 0.057817 0.998131 0.019794999999999938
vn 0.057899 0.998127 0.019768999999999936
vn 0.057779 0.998128 0.020057999999999937
vn -0.705399 0.016724000000000044 0.708613
vn -0.706188 0.016480000000000043 0.707833
vn -0.405907 -0.005859999999999943 0.913896
vn 0.014994 -0.03095999999999994 0.999408
vn 0.683397 -0.05940799999999996 0.727626
vn 0.929807 -0.06181599999999998 0.362818
vn 0.894329 -0.036493000000000025 -0.445919
vn 0.452113 0.0010929999999999454 -0.89196
vn 0.145523 -0.982952 0.11238000000000005
vn 0.177895 -0.978324 0.10599800000000005
vn 0.130997 -0.944398 0.30158300000000005
vn 0.104715 -0.869244 0.48316700000000007
vn 0.097631 -0.617851 0.78021
vn 0.092472 -0.43639399999999995 0.894991
vn 0.080068 -0.08032099999999995 0.993548
vn 0.07459 0.08950500000000006 0.993189
vn 0.083084 0.4363310000000001 0.895942
vn 0.088735 0.615012 0.783509
vn 0.101609 0.869778 0.48286799999999996
vn 0.130976 0.94463 0.30086399999999996
vn 0.145458 0.982794 0.11383799999999994
vn 0.177594 0.976696 0.12052199999999995
vn 0.875425 -0.481722 -0.03969499999999997
vn 0.879716 -0.473818 -0.039953999999999976
vn 0.874592 -0.484284 -0.02361799999999997
vn 0.87031 -0.49245 -0.00736499999999997
vn 0.869595 -0.49369 0.00867300000000003
vn 0.866934 -0.498345 0.008791000000000031
vn 0.409822 0.9101 0.06135299999999994
vn 0.409822 0.9101 0.06135299999999994
vn 0.401214 0.890985 0.21253899999999995
vn 0.394876 0.834502 0.38428999999999996
vn 0.183201 0.45179400000000003 0.873109
vn 0.190092 0.4316710000000001 0.881774
vn -0.294812 -0.39958499999999997 0.867996
vn -0.292919 -0.4068419999999999 0.865262
vn -0.503297 -0.780523 0.37077800000000005
vn -0.534477 -0.815886 0.22060000000000005
vn -0.546938 -0.834906 0.06156600000000005
vn -0.546939 -0.834906 0.06156600000000005
vn 0.342806 0.936562 0.07305199999999995
vn 0.788512 0.610644 0.07323499999999995
vn 0.639683 0.765159 0.07305199999999996
vn 0.127925 0.989116 0.07269499999999994
vn -0.171402 0.982489 0.07305199999999995
vn 0.342806 0.936562 0.07305199999999995
vn -0.319608 0.94533 0.06482499999999994
vn 0 0.997487 0.07085399999999994
vn 0.857205 0.510126 0.07050599999999997
vn 0.788512 0.610644 0.07323499999999995
vn 0.962754 0.259744 0.07508499999999999
vn 0.963093 0.258061 0.07653099999999999
vn 0.961988 -0.262834 0.07414700000000002
vn 0.960755 -0.26753 0.07333700000000001
vn 0.963093 0.258061 0.07653099999999999
vn -0.706139 0.70614 0.05229499999999996
vn -0.171402 0.982489 0.07305199999999995
vn -0.706745 0.706747 0.031940999999999956
vn -0.903537 0.424132 0.06109599999999997
vn -0.982489 0.171403 0.07305199999999999
vn -0.982489 0.171403 0.07305199999999999
vn -0.982489 -0.171403 0.07305200000000002
vn -0.936562 -0.342806 0.07305200000000003
vn -0.936562 -0.342806 0.07305200000000003
vn -0.705203 -0.705202 0.07334100000000005
vn -0.705203 -0.705202 0.07334100000000005
vn -0.258123 -0.963324 0.07334100000000006
vn -0.705203 -0.705202 0.07334100000000005
vn -0.258122 -0.963325 0.07334100000000006
vn -0.258123 -0.963324 0.07334100000000006
vn 0.171402 -0.982489 0.07305200000000006
vn 0.342805 -0.936562 0.07305200000000006
vn 0.342805 -0.936562 0.07305200000000006
vn 0.705202 -0.705203 0.07334100000000005
vn 0.705202 -0.705203 0.07334100000000005
vn 0.960755 -0.26753 0.07333700000000001
vn 0.961988 -0.262834 0.07414700000000002
vn 0.705202 -0.705203 0.07334100000000005
vn -0.040008 -0.998786 0.028732000000000063
vn -0.082427 -0.994826 0.05939200000000006
vn -0.072943 -0.996673 0.036373000000000065
vn -0.028146 -0.99791 0.05817400000000006
vn -0.005626 -0.998926 0.04600100000000006
vn -0.001026 -0.995974 0.08963800000000005
vn -0.019111 -0.997321 0.07061100000000005
vn 0.017404 -0.997374 0.07030600000000005
vn 0.006785 -0.997651 0.06816000000000005
vn 0.004246 -0.998014 0.06285000000000006
vn -0.009328 -0.999638 0.02523300000000006
vn -0.00488 -0.99901 0.04421100000000006
vn -0.017716 -0.997925 0.06191000000000006
vn -3E-06 6.123233995736766E-17 1
vn 3E-06 2.0000000000612323E-06 1
vn -1E-06 1.0000000000612324E-06 1
vn -1E-06 1.0000000000612324E-06 1
vn -1E-06 1.0000000000612324E-06 1
vn -1E-06 1.0000000000612324E-06 1
vn -1E-06 1.0000000000612324E-06 1
vn -5E-06 2.0000000000612323E-06 1
vn -1E-06 -9.999999999387675E-07 1
vn -5E-06 2.0000000000612323E-06 1
vn -1E-06 -9.999999999387675E-07 1
vn -1E-06 -9.999999999387675E-07 1
vn 0.836535 -0.034450000000000036 -0.54683
vn 0.839355 -0.03695200000000003 -0.542327
vn 0.616752 -0.03249500000000005 -0.786487
vn 0.614324 -0.03152000000000005 -0.788424
vn 0.007178 -0.021439000000000062 -0.999744
vn 0.007004 -0.02051900000000006 -0.999765
vn 0.575215 -0.37029699999999993 0.729389
vn 0.266841 -0.856204 0.44239200000000006
vn 0.498967 -0.22380199999999995 0.837224
vn 0.585529 0.017386000000000047 0.810465
vn 0.213788 -0.00549299999999994 0.976865
vn 0.122864 -0.812022 0.570547
vn -0.095912 -0.543438 0.833952
vn -0.124626 0.024093000000000062 0.991911
vn -0.223418 0.058033000000000064 0.972994
vn -0.117399 -0.856991 0.501782
vn 0.007178 -0.021439000000000062 -0.999744
vn 0.007004 -0.02051900000000006 -0.999765
vn -0.61167 -0.006605000000000048 -0.791086
vn -0.609806 -0.006344000000000048 -0.792525
vn -0.837397 0.0009669999999999665 -0.546594
vn -0.839263 -0.0005740000000000333 -0.543725
vn 0.018553 -0.990346 0.13737000000000005
vn 0.029079 -0.988026 0.15152500000000005
vn -0.389489 -0.913835 0.11490800000000005
vn -0.393279 -0.913655 0.10279100000000005
vn -0.730166 -0.679403 0.07258900000000004
vn -0.731641 -0.67698 0.07999600000000004
vn 1 -1.0000000000000002E-06 -3E-06
vn 1 -1.0000000000000002E-06 -3E-06
vn 1 -1.0000000000000002E-06 -3E-06
vn 1 -1E-06 6.123233995736766E-23
vn 1 4E-06 9.999999999999997E-07
vn 1 4E-06 9.999999999999997E-07
vn 1 -1E-06 6.123233995736766E-23
vn -0.866025 0.5 -3.061616997868383E-17
vn -0.866025 0.5 -3.061616997868383E-17
vn -0.866026 0.5 -1.0000000000306162E-06
vn -0.866026 0.5 -3.061616997868383E-17
vn -0.866026 0.499999 -3.000000000030616E-06
vn -0.866026 0.499999 -4.000000000030616E-06
vn -0.235292 0.026704000000000058 0.971558
vn -0.159049 0.02704900000000006 0.9869
vn -0.23087 0.02145700000000006 0.972748
vn -0.116978 0.023479000000000062 0.992857
vn -0.222116 0.011554000000000059 0.974952
vn 0.208638 0.02749300000000006 0.977606
vn 0.272665 0.020519000000000058 0.96189
vn 0.481183 0.017101000000000054 0.876453
vn 0.411559 0.025907000000000055 0.911015
vn 0.506379 0.0002530000000000528 0.862311
vn 0.587845 0.01329000000000005 0.808864
vn 0.564581 0.032704000000000046 0.82473
vn 0.499995 0.866028 -7.000000000053028E-06
vn 0.499995 0.866028 -7.000000000053028E-06
vn 0.500005 0.866023 -5.302861474689941E-17
vn 0.500005 0.866022 -4.000000000053028E-06
vn 0.499991 0.866031 9.999999999469708E-07
vn 0.500005 0.866023 -5.302861474689941E-17
vn 0.500001 0.866025 -3.100000000005303E-05
vn 0.499991 0.866031 9.999999999469708E-07
vn 0.499991 0.866031 9.999999999469708E-07
vn 0.500001 0.866025 -3.100000000005303E-05
g 01
f 1/1/1 2/2/2 3/3/3
f 4/4/4 5/5/5 6/6/6
f 7/7/7 8/8/8 9/9/9
f 10/10/10 11/11/11 12/12/12
f 13/13/13 14/14/14 15/15/15
f 16/16/16 17/17/17 18/18/18
f 19/19/19 20/20/20 21/21/21
f 22/22/22 23/23/23 24/24/24
f 25/25/25 26/26/26 27/27/27
f 28/28/28 29/29/29 30/30/30
f 31/31/31 32/32/32 33/33/33
f 34/34/34 35/35/35 36/36/36
f 37/37/37 38/38/38 39/39/39
f 40/40/40 41/41/41 42/42/42
f 43/43/43 44/44/44 45/45/45
f 46/46/46 47/47/47 48/48/48
f 49/49/49 50/50/50 51/51/51
f 52/52/52 53/53/53 54/54/54
f 55/55/55 56/56/56 57/57/57
f 58/58/58 59/59/59 60/60/60
f 61/61/61 62/62/62 63/63/63
f 64/64/64 65/65/65 66/66/66
f 67/67/67 68/68/68 69/69/69
f 70/70/70 71/71/71 72/72/72
f 73/73/73 74/74/74 75/75/75
f 76/76/76 77/77/77 78/78/78
f 79/79/79 80/80/80 81/81/81
f 82/82/82 83/83/83 84/84/84
f 85/85/85 86/86/86 87/87/87
f 88/88/88 89/89/89 90/90/90
f 91/91/91 92/92/92 93/93/93
f 94/94/94 95/95/95 96/96/96
f 97/97/97 98/98/98 99/99/99
f 100/100/100 101/101/101 102/102/102
f 103/103/103 104/104/104 105/105/105
f 106/106/106 107/107/107 108/108/108
f 109/109/109 110/110/110 111/111/111
f 112/112/112 113/113/113 114/114/114
f 115/115/115 116/116/116 117/117/117
f 118/118/118 119/119/119 120/120/120
f 121/121/121 122/122/122 123/123/123
f 124/124/124 125/125/125 121/121/121
f 126/126/126 127/127/127 128/128/128
f 129/129/129 130/130/130 126/126/126
f 131/131/131 132/132/132 133/133/133
f 134/134/134 135/135/135 133/133/133
f 136/136/136 137/137/137 138/138/138
f 138/138/138 139/139/139 140/140/140
f 141/141/141 142/142/142 143/143/143
f 144/144/144 145/145/145 141/141/141
f 146/146/146 147/147/147 148/148/148
f 149/149/149 150/150/150 148/148/148
f 150/150/150 149/149/149 151/151/151
f 151/151/151 152/152/152 150/150/150
f 153/153/153 154/154/154 155/155/155
f 156/156/156 157/157/157 155/155/155
f 158/158/158 159/159/159 160/160/160
f 161/161/161 162/162/162 160/160/160
f 163/163/163 164/164/164 160/160/160
f 165/165/165 166/166/166 160/160/160
f 167/167/167 168/168/168 169/169/169
f 169/169/169 170/170/170 167/167/167
f 171/171/171 172/172/172 173/173/173
f 173/173/173 174/174/174 171/171/171
f 175/175/175 176/176/176 177/177/177
f 177/177/177 178/178/178 175/175/175
f 179/179/179 180/180/180 181/181/181
f 181/181/181 182/182/182 179/179/179
f 183/183/183 184/184/184 185/185/185
f 185/185/185 186/186/186 183/183/183
f 187/187/187 188/188/188 189/189/189
f 189/189/189 190/190/190 187/187/187
f 191/191/191 192/192/192 193/193/193
f 193/193/193 194/194/194 191/191/191
f 195/195/195 196/196/196 197/197/197
f 198/198/198 196/196/196 195/195/195
f 199/199/199 200/200/200 201/201/201
f 201/201/201 202/202/202 199/199/199
f 203/203/203 204/204/204 205/205/205
f 205/205/205 206/206/206 203/203/203
f 207/207/207 208/208/208 209/209/209
f 209/209/209 210/210/210 207/207/207
f 211/211/211 212/212/212 213/213/213
f 213/213/213 214/214/214 211/211/211
f 215/215/215 216/216/216 217/217/217
f 217/217/217 218/218/218 215/215/215
f 219/219/219 220/220/220 221/221/221
f 221/221/221 222/222/222 219/219/219
f 223/223/223 224/224/224 225/225/225
f 225/225/225 226/226/226 223/223/223
f 227/227/227 228/228/228 229/229/229
f 229/229/229 230/230/230 227/227/227
f 231/231/231 232/232/232 233/233/233
f 233/233/233 234/234/234 231/231/231
f 235/235/235 236/236/236 237/237/237
f 237/237/237 238/238/238 235/235/235
f 239/239/239 240/240/240 241/241/241
f 241/241/241 242/242/242 239/239/239
f 243/243/243 244/244/244 245/245/245
f 245/245/245 246/246/246 243/243/243
f 247/247/247 248/248/248 249/249/249
f 249/249/249 250/250/250 247/247/247
f 251/251/251 252/252/252 253/253/253
f 253/253/253 254/254/254 251/251/251
f 255/255/255 256/256/256 257/257/257
f 257/257/257 258/258/258 255/255/255
f 259/259/259 260/260/260 261/261/261
f 261/261/261 262/262/262 259/259/259
f 263/263/263 264/264/264 265/265/265
f 265/265/265 266/266/266 263/263/263
f 267/267/267 268/268/268 269/269/269
f 269/269/269 270/270/270 267/267/267
f 271/271/271 272/272/272 273/273/273
f 273/273/273 274/274/274 271/271/271
f 275/275/275 276/276/276 277/277/277
f 277/277/277 278/278/278 275/275/275
f 279/279/279 280/280/280 281/281/281
f 281/281/281 282/282/282 279/279/279
f 283/283/283 284/284/284 285/285/285
f 285/285/285 286/286/286 283/283/283
f 287/287/287 288/288/288 289/289/289
f 289/289/289 290/290/290 287/287/287
f 291/291/291 292/292/292 293/293/293
f 293/293/293 294/294/294 291/291/291
f 295/295/295 296/296/296 297/297/297
f 297/297/297 298/298/298 295/295/295
f 299/299/299 300/300/300 301/301/301
f 301/301/301 302/302/302 299/299/299
f 303/303/303 304/304/304 305/305/305
f 305/305/305 306/306/306 303/303/303
f 307/307/307 308/308/308 309/309/309
f 309/309/309 310/310/310 307/307/307
f 311/311/311 312/312/312 313/313/313
f 313/313/313 314/314/314 311/311/311
f 315/315/315 316/316/316 317/317/317
f 317/317/317 318/318/318 315/315/315
f 319/319/319 320/320/320 321/321/321
f 321/321/321 322/322/322 319/319/319
f 323/323/323 324/324/324 325/325/325
f 325/325/325 326/326/326 323/323/323
f 327/327/327 328/328/328 329/329/329
f 329/329/329 330/330/330 327/327/327
f 331/331/331 332/332/332 333/333/333
f 333/333/333 334/334/334 331/331/331
f 335/335/335 336/336/336 337/337/337
f 337/337/337 338/338/338 335/335/335
f 339/339/339 340/340/340 341/341/341
f 341/341/341 342/342/342 339/339/339
f 343/343/343 344/344/344 345/345/345
f 345/345/345 346/346/346 343/343/343
f 347/347/347 348/348/348 349/349/349
f 349/349/349 350/350/350 347/347/347
f 351/351/351 352/352/352 353/353/353
f 353/353/353 354/354/354 351/351/351
f 355/355/355 356/356/356 357/357/357
f 357/357/357 358/358/358 355/355/355
f 359/359/359 360/360/360 361/361/361
f 361/361/361 362/362/362 359/359/359
f 363/363/363 364/364/364 365/365/365
f 365/365/365 366/366/366 363/363/363
f 367/367/367 368/368/368 369/369/369
f 369/369/369 370/370/370 367/367/367
f 371/371/371 372/372/372 373/373/373
f 373/373/373 374/374/374 371/371/371
f 375/375/375 376/376/376 377/377/377
f 377/377/377 378/378/378 375/375/375
f 379/379/379 380/380/380 381/381/381
f 381/381/381 382/382/382 379/379/379
f 383/383/383 384/384/384 385/385/385
f 385/385/385 386/386/386 383/383/383
f 387/387/387 388/388/388 389/389/389
f 389/389/389 390/390/390 387/387/387
f 391/391/391 392/392/392 393/393/393
f 393/393/393 394/394/394 391/391/391
f 395/395/395 396/396/396 397/397/397
f 397/397/397 398/398/398 395/395/395
f 399/399/399 400/400/400 401/401/401
f 399/399/399 402/402/402 400/400/400
f 403/403/403 404/404/404 405/405/405
f 405/405/405 406/406/406 403/403/403
f 407/407/407 408/408/408 409/409/409
f 409/409/409 410/410/410 407/407/407
f 411/411/411 412/412/412 413/413/413
f 413/413/413 414/414/414 411/411/411
f 415/415/415 416/416/416 417/417/417
f 417/417/417 418/418/418 415/415/415
f 419/419/419 420/420/420 421/421/421
f 421/421/421 422/422/422 419/419/419
f 423/423/423 424/424/424 425/425/425
f 425/425/425 426/426/426 423/423/423
f 427/427/427 428/428/428 429/429/429
f 429/429/429 430/430/430 427/427/427
f 431/431/431 432/432/432 433/433/433
f 433/433/433 434/434/434 431/431/431
f 435/435/435 436/436/436 437/437/437
f 437/437/437 438/438/438 435/435/435
f 439/439/439 440/440/440 441/441/441
f 441/441/441 442/442/442 439/439/439
f 443/443/443 444/444/444 445/445/445
f 445/445/445 446/446/446 443/443/443
f 447/447/447 448/448/448 449/449/449
f 449/449/449 450/450/450 447/447/447
f 451/451/451 452/452/452 453/453/453
f 454/454/454 455/455/455 451/451/451
f 455/455/455 456/456/456 451/451/451
f 456/456/456 457/457/457 451/451/451
f 457/457/457 456/456/456 458/458/458
f 458/458/458 456/456/456 459/459/459
f 458/458/458 460/460/460 457/457/457
f 456/456/456 461/461/461 459/459/459
f 461/461/461 456/456/456 455/455/455
f 462/462/462 459/459/459 461/461/461
f 463/463/463 457/457/457 460/460/460
f 457/457/457 463/463/463 451/451/451
f 464/464/464 463/463/463 460/460/460
f 461/461/461 465/465/465 462/462/462
f 465/465/465 461/461/461 455/455/455
f 462/462/462 465/465/465 466/466/466
f 467/467/467 463/463/463 464/464/464
f 464/464/464 468/468/468 467/467/467
f 465/465/465 469/469/469 466/466/466
f 470/470/470 466/466/466 469/469/469
f 471/471/471 467/467/467 468/468/468
f 472/472/472 471/471/471 468/468/468
f 463/463/463 467/467/467 473/473/473
f 467/467/467 471/471/471 473/473/473
f 451/451/451 463/463/463 473/473/473
f 474/474/474 451/451/451 473/473/473
f 475/475/475 471/471/471 472/472/472
f 472/472/472 476/476/476 475/475/475
f 473/473/473 471/471/471 477/477/477
f 471/471/471 475/475/475 477/477/477
f 478/478/478 475/475/475 476/476/476
f 470/470/470 478/478/478 476/476/476
f 475/475/475 478/478/478 477/477/477
f 469/469/469 478/478/478 470/470/470
f 479/479/479 473/473/473 477/477/477
f 473/473/473 479/479/479 474/474/474
f 478/478/478 469/469/469 480/480/480
f 477/477/477 478/478/478 480/480/480
f 469/469/469 465/465/465 480/480/480
f 480/480/480 465/465/465 455/455/455
f 477/477/477 481/481/481 479/479/479
f 481/481/481 477/477/477 480/480/480
f 480/480/480 482/482/482 481/481/481
f 479/479/479 481/481/481 483/483/483
f 483/483/483 480/480/480 455/455/455
f 474/474/474 479/479/479 483/483/483
f 455/455/455 484/484/484 483/483/483
f 484/484/484 474/474/474 483/483/483
f 485/485/485 486/486/486 487/487/487
f 487/487/487 486/486/486 488/488/488
f 488/488/488 489/489/489 487/487/487
f 490/490/490 491/491/491 492/492/492
f 492/492/492 493/493/493 490/490/490
f 493/493/493 492/492/492 494/494/494
f 494/494/494 495/495/495 493/493/493
f 495/495/495 494/494/494 496/496/496
f 496/496/496 497/497/497 495/495/495
f 497/497/497 496/496/496 498/498/498
f 498/498/498 499/499/499 497/497/497
f 499/499/499 498/498/498 500/500/500
f 500/500/500 501/501/501 499/499/499
f 502/502/502 501/501/501 500/500/500
f 500/500/500 503/503/503 502/502/502
f 504/504/504 505/505/505 506/506/506
f 506/506/506 507/507/507 504/504/504
f 507/507/507 506/506/506 508/508/508
f 508/508/508 509/509/509 507/507/507
f 509/509/509 508/508/508 510/510/510
f 510/510/510 511/511/511 509/509/509
f 512/512/512 513/513/513 514/514/514
f 514/514/514 515/515/515 512/512/512
f 515/515/515 514/514/514 516/516/516
f 516/516/516 517/517/517 515/515/515
f 518/518/518 519/519/519 520/520/520
f 520/520/520 521/521/521 518/518/518
f 521/521/521 520/520/520 522/522/522
f 523/523/523 521/521/521 522/522/522
f 524/524/524 523/523/523 522/522/522
f 525/525/525 524/524/524 522/522/522
f 526/526/526 523/523/523 524/524/524
f 527/527/527 526/526/526 524/524/524
f 528/528/528 527/527/527 524/524/524
f 528/528/528 529/529/529 527/527/527
f 528/528/528 530/530/530 529/529/529
f 531/531/531 530/530/530 528/528/528
f 532/532/532 533/533/533 528/528/528
f 533/533/533 531/531/531 528/528/528
f 531/531/531 533/533/533 534/534/534
f 534/534/534 535/535/535 531/531/531
f 536/536/536 537/537/537 538/538/538
f 537/537/537 539/539/539 538/538/538
f 539/539/539 540/540/540 538/538/538
f 541/541/541 542/542/542 543/543/543
f 542/542/542 544/544/544 543/543/543
f 544/544/544 545/545/545 543/543/543
f 546/546/546 547/547/547 548/548/548
f 548/548/548 549/549/549 546/546/546
f 549/549/549 548/548/548 550/550/550
f 550/550/550 551/551/551 549/549/549
f 551/551/551 550/550/550 552/552/552
f 552/552/552 553/553/553 551/551/551
f 554/554/554 555/555/555 556/556/556
f 556/556/556 557/557/557 554/554/554
f 557/557/557 556/556/556 558/558/558
f 558/558/558 559/559/559 557/557/557
f 559/559/559 558/558/558 560/560/560
f 560/560/560 561/561/561 559/559/559
f 561/561/561 560/560/560 562/562/562
f 562/562/562 563/563/563 561/561/561
f 563/563/563 562/562/562 564/564/564
f 564/564/564 565/565/565 563/563/563
f 565/565/565 564/564/564 566/566/566
f 566/566/566 567/567/567 565/565/565
f 568/568/568 569/569/569 570/570/570
f 570/570/570 571/571/571 568/568/568
f 571/571/571 570/570/570 572/572/572
f 572/572/572 573/573/573 571/571/571
f 574/574/574 575/575/575 576/576/576
f 576/576/576 577/577/577 574/574/574
f 577/577/577 576/576/576 578/578/578
f 578/578/578 579/579/579 577/577/577
f 580/580/580 579/579/579 578/578/578
f 578/578/578 581/581/581 580/580/580
f 580/580/580 581/581/581 582/582/582
f 582/582/582 583/583/583 580/580/580
f 583/583/583 582/582/582 584/584/584
f 584/584/584 585/585/585 583/583/583
f 586/586/586 587/587/587 588/588/588
f 588/588/588 589/589/589 586/586/586
f 590/590/590 591/591/591 589/589/589
f 592/592/592 590/590/590 589/589/589
f 593/593/593 592/592/592 589/589/589
f 594/594/594 588/588/588 595/595/595
f 596/596/596 594/594/594 595/595/595
f 597/597/597 596/596/596 595/595/595
f 598/598/598 599/599/599 596/596/596
f 596/596/596 600/600/600 598/598/598
f 601/601/601 602/602/602 592/592/592
f 592/592/592 603/603/603 601/601/601
f 601/601/601 603/603/603 604/604/604
f 604/604/604 605/605/605 601/601/601
f 606/606/606 604/604/604 607/607/607
f 607/607/607 608/608/608 606/606/606
f 609/609/609 607/607/607 610/610/610
f 610/610/610 611/611/611 609/609/609
f 612/612/612 613/613/613 610/610/610
f 610/610/610 614/614/614 612/612/612
f 615/615/615 614/614/614 616/616/616
f 616/616/616 617/617/617 615/615/615
f 618/618/618 616/616/616 619/619/619
f 619/619/619 620/620/620 618/618/618
f 619/619/619 621/621/621 622/622/622
f 622/622/622 623/623/623 619/619/619
f 624/624/624 625/625/625 626/626/626
f 626/626/626 627/627/627 624/624/624
f 628/628/628 624/624/624 627/627/627
f 627/627/627 629/629/629 628/628/628
f 627/627/627 630/630/630 629/629/629
f 630/630/630 631/631/631 629/629/629
f 631/631/631 632/632/632 629/629/629
f 633/633/633 629/629/629 632/632/632
f 632/632/632 634/634/634 633/633/633
f 635/635/635 634/634/634 632/632/632
f 632/632/632 636/636/636 635/635/635
f 637/637/637 638/638/638 639/639/639
f 638/638/638 640/640/640 639/639/639
f 641/641/641 642/642/642 639/639/639
f 640/640/640 641/641/641 639/639/639
f 640/640/640 643/643/643 644/644/644
f 640/640/640 645/645/645 641/641/641
f 640/640/640 644/644/644 645/645/645
f 644/644/644 646/646/646 645/645/645
f 645/645/645 647/647/647 641/641/641
f 645/645/645 648/648/648 647/647/647
f 649/649/649 650/650/650 651/651/651
f 651/651/651 652/652/652 649/649/649
f 653/653/653 652/652/652 651/651/651
f 651/651/651 654/654/654 653/653/653
f 655/655/655 656/656/656 657/657/657
f 657/657/657 658/658/658 655/655/655
f 655/655/655 658/658/658 659/659/659
f 659/659/659 660/660/660 655/655/655
f 661/661/661 660/660/660 659/659/659
f 659/659/659 662/662/662 661/661/661
f 661/661/661 662/662/662 663/663/663
f 663/663/663 664/664/664 661/661/661
f 665/665/665 666/666/666 667/667/667
f 667/667/667 668/668/668 665/665/665
f 669/669/669 668/668/668 667/667/667
f 667/667/667 670/670/670 669/669/669
f 671/671/671 672/672/672 673/673/673
f 673/673/673 674/674/674 671/671/671
f 675/675/675 674/674/674 673/673/673
f 673/673/673 676/676/676 675/675/675
f 677/677/677 678/678/678 679/679/679
f 680/680/680 677/677/677 679/679/679
f 680/680/680 681/681/681 677/677/677
f 681/681/681 682/682/682 677/677/677
f 680/680/680 683/683/683 681/681/681
f 684/684/684 685/685/685 686/686/686
f 685/685/685 687/687/687 686/686/686
f 687/687/687 688/688/688 686/686/686
f 688/688/688 689/689/689 686/686/686
f 690/690/690 691/691/691 692/692/692
f 691/691/691 693/693/693 692/692/692
f 693/693/693 694/694/694 692/692/692
f 693/693/693 691/691/691 695/695/695
f 695/695/695 696/696/696 693/693/693
f 696/696/696 695/695/695 697/697/697
f 695/695/695 698/698/698 697/697/697
f 699/699/699 696/696/696 697/697/697
f 700/700/700 699/699/699 697/697/697
f 697/697/697 701/701/701 700/700/700
f 702/702/702 703/703/703 704/704/704
f 705/705/705 702/702/702 706/706/706
f 702/702/702 704/704/704 706/706/706
f 704/704/704 707/707/707 708/708/708
f 704/704/704 708/708/708 706/706/706
f 708/708/708 709/709/709 706/706/706
f 709/709/709 710/710/710 706/706/706
f 708/708/708 711/711/711 709/709/709
