v -0.5774363400000001 0.59019948 -0.014607840000000037
v 0.57651438 0.59019948 -0.014607840000000037
v -0.5774363400000001 -0.5950425 -0.014607839999999966
v 0.57651438 -0.5950425 -0.014607839999999966
v -0.45825624000000004 0.45080958000000015 2.24080038
v -0.45825701999999996 -0.45197645999999986 2.24080038
v -0.5675397 0.5592342600000002 2.29430994
v 0.5675591999999999 0.5592342600000002 2.29430916
v 0.5675591999999999 -0.5591351999999998 2.29430916
v -0.5675397 -0.5591351999999998 2.29430994
v -0.5695973400000001 0.5612045400000002 2.22497574
v 0.56959812 0.5612045400000002 2.22497574
v 0.56959812 -0.5612006399999998 2.22497574
v -0.5695973400000001 -0.5612006399999998 2.22497496
v 0.027863159999999998 1.3739514628820694e-16 2.24383302
v -0.013931579999999999 -0.024130079999999863 2.24383302
v -0.013931579999999999 0.02413008000000014 2.24383302
v 0.027863159999999998 1.9361555308913694e-16 3.1619819400000004
v -0.013931579999999999 -0.024130079999999807 3.1619819400000004
v -0.013931579999999999 0.024130080000000196 3.1619819400000004
v 0.41973672000000006 0.5376945600000002 2.66276322
v 0.5376789599999999 0.5377117200000002 2.66276322
v 0.41973672000000006 0.5425313400000001 2.29430916
v 0.5425141800000001 0.5425352400000002 2.29430916
v 0.53769456 0.42291756000000014 2.66276322
v 0.54253056 0.42291834000000017 2.29430916
v 0.4373031 0.4432755600000002 2.29430916
v 0.4373031 0.4432755600000002 2.66276322
v -0.42452124 -0.47185553999999985 2.54969208
v -0.42452124 -0.4718563199999999 2.29430916
v 0.42876210000000003 -0.4718563199999999 2.29430916
v 0.42876210000000003 -0.47185553999999985 2.54969208
v -0.42452124 -0.5188162199999998 2.54969208
v 0.42876210000000003 -0.5188162199999998 2.54969208
v 0.42876210000000003 -0.5204011799999999 2.29430916
v -0.42452124 -0.5204019599999999 2.29430916
v -0.23732904 -0.4566151199999999 2.65901766
v -0.23732982000000002 -0.5376945599999998 2.5858911
v -0.32027736 -0.5376945599999998 2.5858911
v -0.32027736 -0.4566151199999999 2.65901766
v -0.23732982000000002 -0.5414791199999999 2.2702204200000002
v -0.32027814 -0.5414791199999999 2.2702204200000002
v -0.32027736 -0.4566151199999999 2.2702204200000002
v -0.23732982000000002 -0.4566151199999999 2.2702204200000002
v 0.13340417999999998 -0.4566151199999999 2.65901766
v 0.13340417999999998 -0.5376945599999998 2.58589188
v 0.05045664 -0.5376945599999998 2.5858911
v 0.05045586 -0.4566151199999999 2.65901844
v 0.13340417999999998 -0.5414791199999999 2.2702204200000002
v 0.05045586 -0.5414791199999999 2.2702204200000002
v 0.05045586 -0.4566151199999999 2.2702204200000002
v 0.13340417999999998 -0.4566151199999999 2.2702204200000002
v -0.0522678 -0.4566151199999999 2.65901766
v -0.0522678 -0.5376945599999998 2.58589188
v -0.13521612000000002 -0.5376945599999998 2.5858911
v -0.13521612000000002 -0.4566151199999999 2.65901844
v -0.0522678 -0.5414791199999999 2.2702204200000002
v -0.13521612000000002 -0.5414791199999999 2.2702204200000002
v -0.13521612000000002 -0.4566151199999999 2.2702204200000002
v -0.0522678 -0.4566151199999999 2.2702204200000002
v 0.31932186 -0.4566151199999999 2.65901766
v 0.31932186 -0.5376945599999998 2.58589188
v 0.23637354000000002 -0.5376945599999998 2.5858911
v 0.23637354000000002 -0.4566151199999999 2.65901844
v 0.31932186 -0.5414791199999999 2.2702204200000002
v 0.23637354000000002 -0.5414791199999999 2.2702204200000002
v 0.23637354000000002 -0.4566151199999999 2.2702204200000002
v 0.31932186 -0.4566151199999999 2.2702204200000002
v 0.47185554 -0.42452123999999986 2.54969208
v 0.47185632000000005 -0.42452123999999986 2.29430916
v 0.47185632000000005 0.4287621000000002 2.29430916
v 0.47185554 0.4287621000000002 2.54969208
v 0.51881622 -0.42452123999999986 2.54969208
v 0.51881622 0.4287621000000002 2.54969208
v 0.52040118 0.4287621000000002 2.29430916
v 0.52040196 -0.42452123999999986 2.29430916
v 0.45661512000000004 -0.23732981999999983 2.65901766
v 0.53769456 -0.23732981999999983 2.5858911
v 0.53769456 -0.32027735999999984 2.5858911
v 0.45661512000000004 -0.32027735999999984 2.65901766
v 0.5414791200000001 -0.23732981999999989 2.2702204200000002
v 0.5414791200000001 -0.3202781399999999 2.2702204200000002
v 0.45661512000000004 -0.32027735999999984 2.2702204200000002
v 0.45661512000000004 -0.23732981999999989 2.2702204200000002
v 0.45661512000000004 0.13340418000000018 2.65901766
v 0.53769456 0.13340418000000015 2.58589188
v 0.53769456 0.050456640000000164 2.5858911
v 0.45661512000000004 0.05045586000000016 2.65901844
v 0.5414791200000001 0.13340418000000012 2.2702204200000002
v 0.5414791200000001 0.05045586000000014 2.2702204200000002
v 0.45661512000000004 0.05045586000000014 2.2702204200000002
v 0.45661512000000004 0.13340418000000012 2.2702204200000002
v 0.45661512000000004 -0.05226779999999984 2.65901766
v 0.53769456 -0.05226779999999984 2.58589188
v 0.53769456 -0.13521611999999986 2.5858911
v 0.45661512000000004 -0.13521611999999983 2.65901844
v 0.5414791200000001 -0.052267799999999864 2.2702204200000002
v 0.5414791200000001 -0.13521611999999988 2.2702204200000002
v 0.45661512000000004 -0.13521611999999988 2.2702204200000002
v 0.45661512000000004 -0.052267799999999864 2.2702204200000002
v 0.45661512000000004 0.3193218600000002 2.65901766
v 0.53769456 0.3193218600000002 2.58589188
v 0.53769456 0.2363735400000002 2.5858911
v 0.45661512000000004 0.2363735400000002 2.65901844
v 0.5414791200000001 0.3193218600000001 2.2702204200000002
v 0.5414791200000001 0.23637354000000013 2.2702204200000002
v 0.45661512000000004 0.23637354000000013 2.2702204200000002
v 0.45661512000000004 0.3193218600000001 2.2702204200000002
v 0.42452124 0.4718555400000002 2.54969208
v 0.42452124 0.4718563200000002 2.29430916
v -0.42876210000000003 0.4718563200000002 2.29430916
v -0.42876210000000003 0.4718555400000002 2.54969208
v 0.42452124 0.5188162200000002 2.54969208
v -0.42876210000000003 0.5188162200000002 2.54969208
v -0.42876210000000003 0.5204011800000002 2.29430916
v 0.42452124 0.5204019600000003 2.29430916
v 0.23732982000000002 0.4566151200000002 2.65901766
v 0.23732982000000002 0.5376945600000002 2.5858911
v 0.32027736 0.5376945600000002 2.5858911
v 0.32027736 0.4566151200000002 2.65901766
v 0.23732982000000002 0.5414791200000002 2.2702204200000002
v 0.32027814 0.5414791200000002 2.2702204200000002
v 0.32027736 0.4566151200000002 2.2702204200000002
v 0.23732982000000002 0.4566151200000002 2.2702204200000002
v -0.13340417999999998 0.4566151200000002 2.65901766
v -0.13340417999999998 0.5376945600000002 2.58589188
v -0.05045664 0.5376945600000002 2.5858911
v -0.05045586 0.4566151200000002 2.65901844
v -0.13340417999999998 0.5414791200000002 2.2702204200000002
v -0.05045586 0.5414791200000002 2.2702204200000002
v -0.05045586 0.4566151200000002 2.2702204200000002
v -0.13340417999999998 0.4566151200000002 2.2702204200000002
v 0.0522678 0.4566151200000002 2.65901766
v 0.0522678 0.5376945600000002 2.58589188
v 0.13521612000000002 0.5376945600000002 2.5858911
v 0.13521612000000002 0.4566151200000002 2.65901844
v 0.0522678 0.5414791200000002 2.2702204200000002
v 0.13521612000000002 0.5414791200000002 2.2702204200000002
v 0.13521612000000002 0.4566151200000002 2.2702204200000002
v 0.0522678 0.4566151200000002 2.2702204200000002
v -0.31932186 0.4566151200000002 2.65901766
v -0.31932186 0.5376945600000002 2.58589188
v -0.23637354000000002 0.5376945600000002 2.5858911
v -0.23637354000000002 0.4566151200000002 2.65901844
v -0.31932186 0.5414791200000002 2.2702204200000002
v -0.23637354000000002 0.5414791200000002 2.2702204200000002
v -0.23637354000000002 0.4566151200000002 2.2702204200000002
v -0.31932186 0.4566151200000002 2.2702204200000002
v -0.47185554 0.4245212400000002 2.54969208
v -0.47185632000000005 0.4245212400000002 2.29430916
v -0.47185632000000005 -0.42876209999999987 2.29430916
v -0.47185554 -0.42876209999999987 2.54969208
v -0.51881622 0.4245212400000002 2.54969208
v -0.51881622 -0.42876209999999987 2.54969208
v -0.52040118 -0.42876209999999987 2.29430916
v -0.52040196 0.4245212400000002 2.29430916
v -0.45661512000000004 0.2373298200000002 2.65901766
v -0.53769456 0.2373298200000002 2.5858911
v -0.53769456 0.3202773600000002 2.5858911
v -0.45661512000000004 0.3202773600000002 2.65901766
v -0.5414791200000001 0.23732982000000014 2.2702204200000002
v -0.5414799 0.32027814000000016 2.2702204200000002
v -0.45661512000000004 0.3202773600000001 2.2702204200000002
v -0.45661512000000004 0.23732982000000014 2.2702204200000002
v -0.45661512000000004 -0.13340417999999982 2.65901766
v -0.53769456 -0.13340417999999984 2.58589188
v -0.53769456 -0.05045663999999984 2.5858911
v -0.45661512000000004 -0.05045585999999983 2.65901844
v -0.5414791200000001 -0.13340417999999987 2.2702204200000002
v -0.5414791200000001 -0.05045585999999986 2.2702204200000002
v -0.45661512000000004 -0.05045585999999986 2.2702204200000002
v -0.45661512000000004 -0.13340417999999987 2.2702204200000002
v -0.45661512000000004 0.05226780000000016 2.65901766
v -0.53769456 0.05226780000000016 2.58589188
v -0.53769456 0.13521612000000016 2.5858911
v -0.45661512000000004 0.1352161200000002 2.65901844
v -0.5414791200000001 0.05226780000000014 2.2702204200000002
v -0.5414791200000001 0.13521612000000013 2.2702204200000002
v -0.45661512000000004 0.13521612000000013 2.2702204200000002
v -0.45661512000000004 0.05226780000000014 2.2702204200000002
v -0.45661512000000004 -0.31932185999999985 2.65901766
v -0.53769456 -0.31932185999999985 2.58589188
v -0.53769456 -0.23637353999999983 2.5858911
v -0.45661512000000004 -0.23637353999999983 2.65901844
v -0.5414791200000001 -0.3193218599999999 2.2702204200000002
v -0.5414791200000001 -0.23637353999999988 2.2702204200000002
v -0.45661512000000004 -0.23637353999999988 2.2702204200000002
v -0.45661512000000004 -0.3193218599999999 2.2702204200000002
v -0.45825624000000004 0.45080958 0.5825648400000001
v 0.53769456 -0.4197367199999999 2.66276322
v 0.53771172 -0.5376789599999998 2.66276322
v 0.54253134 -0.4197367199999999 2.29430916
v 0.54253524 -0.5425141799999998 2.29430916
v 0.42291755999999997 -0.5376945599999998 2.66276322
v 0.42291834 -0.5425305599999998 2.29430916
v 0.44327556 -0.4373030999999998 2.29430916
v 0.44327556 -0.4373030999999998 2.66276322
v -0.41973672000000006 -0.5376945599999998 2.66276322
v -0.5376789599999999 -0.5377117199999999 2.66276322
v -0.41973672000000006 -0.5425313399999998 2.29430916
v -0.5425141800000001 -0.5425360199999999 2.29430916
v -0.53769456 -0.4229175599999998 2.66276322
v -0.54253056 -0.42291833999999984 2.29430916
v -0.43291170000000007 -0.43872347999999983 2.29430916
v -0.4373031 -0.44327555999999985 2.66276322
v -0.53769456 0.41973672000000023 2.66276322
v -0.53771172 0.5376789600000002 2.66276322
v -0.54253134 0.41973672000000023 2.29430916
v -0.54253602 0.5425141800000002 2.29430916
v -0.42291755999999997 0.5376945600000002 2.66276322
v -0.42291834 0.5425305600000001 2.29430916
v -0.44327556 0.43730310000000017 2.29430916
v -0.44327556 0.43730310000000017 2.66276322
v -0.45825701999999996 -0.45197646 0.5825648400000001
v 0.45803394000000003 -0.45197645999999986 2.24080038
v 0.45803394000000003 -0.45197646 0.5825648400000001
v 0.45803472 0.45080958000000015 2.24080038
v 0.45803472 0.45080958 0.5825648400000001
v 0.45803472 0.45080958 0.5825648400000001
v 0.57651438 0.59019948 -0.014607840000000037
v 0.45803394000000003 -0.45197646 0.5825648400000001
v 0.57651438 -0.5950425 -0.014607839999999966
v -0.5774363400000001 0.59019948 -0.014607840000000037
v -0.45825624000000004 0.45080958 0.5825648400000001
v -0.45825701999999996 -0.45197646 0.5825648400000001
v -0.5774363400000001 -0.5950425 -0.014607839999999966
v 0.5675591999999999 0.5592342600000002 2.29430916
v -0.5675397 0.5592342600000002 2.29430994
v 0.56959812 0.5612045400000002 2.22497574
v 0.5675591999999999 0.5592342600000002 2.29430916
v 0.56959812 -0.5612006399999998 2.22497574
v -0.5675397 -0.5591351999999998 2.29430994
v 0.5675591999999999 -0.5591351999999998 2.29430916
v -0.5695973400000001 -0.5612006399999998 2.22497496
v -0.5695973400000001 0.5612045400000002 2.22497574
v -0.5675397 0.5592342600000002 2.29430994
v -0.5675397 -0.5591351999999998 2.29430994
v -0.45825624000000004 0.45080958 0.5825648400000001
v 0.45803472 0.45080958 0.5825648400000001
v -0.45825624000000004 0.45080958000000015 2.24080038
v -0.45825701999999996 -0.45197646 0.5825648400000001
v -0.45825624000000004 0.45080958 0.5825648400000001
v -0.013931579999999999 -0.024130079999999863 2.24383302
v -0.013931579999999999 -0.024130079999999807 3.1619819400000004
v -0.013931579999999999 0.02413008000000014 2.24383302
v 0.027863159999999998 1.3739514628820694e-16 2.24383302
v 0.027863159999999998 1.9361555308913694e-16 3.1619819400000004
v -0.013931579999999999 0.024130080000000196 3.1619819400000004
v 0.027863159999999998 1.9361555308913694e-16 3.1619819400000004
v -0.013931579999999999 -0.024130079999999807 3.1619819400000004
v -0.013931579999999999 0.024130080000000196 3.1619819400000004
v 0.5376789599999999 0.5377117200000002 2.66276322
v 0.41973672000000006 0.5376945600000002 2.66276322
v 0.4373031 0.4432755600000002 2.66276322
v 0.4373031 0.4432755600000002 2.29430916
v 0.41973672000000006 0.5425313400000001 2.29430916
v 0.41973672000000006 0.5376945600000002 2.66276322
v 0.4373031 0.4432755600000002 2.66276322
v 0.53769456 0.42291756000000014 2.66276322
v 0.54253056 0.42291834000000017 2.29430916
v 0.53769456 0.42291756000000014 2.66276322
v 0.5376789599999999 0.5377117200000002 2.66276322
v 0.5425141800000001 0.5425352400000002 2.29430916
v -0.42452124 -0.47185553999999985 2.54969208
v 0.42876210000000003 -0.47185553999999985 2.54969208
v -0.42452124 -0.5188162199999998 2.54969208
v 0.42876210000000003 -0.5188162199999998 2.54969208
v -0.32027736 -0.5376945599999998 2.5858911
v -0.23732982000000002 -0.5376945599999998 2.5858911
v -0.32027736 -0.4566151199999999 2.65901766
v -0.23732904 -0.4566151199999999 2.65901766
v 0.05045664 -0.5376945599999998 2.5858911
v 0.13340417999999998 -0.5376945599999998 2.58589188
v 0.05045586 -0.4566151199999999 2.65901844
v 0.13340417999999998 -0.4566151199999999 2.65901766
v -0.13521612000000002 -0.5376945599999998 2.5858911
v -0.0522678 -0.5376945599999998 2.58589188
v -0.13521612000000002 -0.4566151199999999 2.65901844
v -0.0522678 -0.4566151199999999 2.65901766
v 0.23637354000000002 -0.5376945599999998 2.5858911
v 0.31932186 -0.5376945599999998 2.58589188
v 0.23637354000000002 -0.4566151199999999 2.65901844
v 0.31932186 -0.4566151199999999 2.65901766
v 0.47185554 -0.42452123999999986 2.54969208
v 0.47185554 0.4287621000000002 2.54969208
v 0.51881622 -0.42452123999999986 2.54969208
v 0.51881622 0.4287621000000002 2.54969208
v 0.53769456 -0.32027735999999984 2.5858911
v 0.53769456 -0.23732981999999983 2.5858911
v 0.45661512000000004 -0.32027735999999984 2.65901766
v 0.45661512000000004 -0.23732981999999983 2.65901766
v 0.53769456 0.050456640000000164 2.5858911
v 0.53769456 0.13340418000000015 2.58589188
v 0.45661512000000004 0.05045586000000016 2.65901844
v 0.45661512000000004 0.13340418000000018 2.65901766
v 0.53769456 -0.13521611999999986 2.5858911
v 0.53769456 -0.05226779999999984 2.58589188
v 0.45661512000000004 -0.13521611999999983 2.65901844
v 0.45661512000000004 -0.05226779999999984 2.65901766
v 0.53769456 0.2363735400000002 2.5858911
v 0.53769456 0.3193218600000002 2.58589188
v 0.45661512000000004 0.2363735400000002 2.65901844
v 0.45661512000000004 0.3193218600000002 2.65901766
v 0.42452124 0.4718555400000002 2.54969208
v -0.42876210000000003 0.4718555400000002 2.54969208
v 0.42452124 0.5188162200000002 2.54969208
v -0.42876210000000003 0.5188162200000002 2.54969208
v 0.32027736 0.5376945600000002 2.5858911
v 0.23732982000000002 0.5376945600000002 2.5858911
v 0.32027736 0.4566151200000002 2.65901766
v 0.23732982000000002 0.4566151200000002 2.65901766
v -0.05045664 0.5376945600000002 2.5858911
v -0.13340417999999998 0.5376945600000002 2.58589188
v -0.05045586 0.4566151200000002 2.65901844
v -0.13340417999999998 0.4566151200000002 2.65901766
v 0.13521612000000002 0.5376945600000002 2.5858911
v 0.0522678 0.5376945600000002 2.58589188
v 0.13521612000000002 0.4566151200000002 2.65901844
v 0.0522678 0.4566151200000002 2.65901766
v -0.23637354000000002 0.5376945600000002 2.5858911
v -0.31932186 0.5376945600000002 2.58589188
v -0.23637354000000002 0.4566151200000002 2.65901844
v -0.31932186 0.4566151200000002 2.65901766
v -0.47185554 0.4245212400000002 2.54969208
v -0.47185554 -0.42876209999999987 2.54969208
v -0.51881622 0.4245212400000002 2.54969208
v -0.51881622 -0.42876209999999987 2.54969208
v -0.53769456 0.3202773600000002 2.5858911
v -0.53769456 0.2373298200000002 2.5858911
v -0.45661512000000004 0.3202773600000002 2.65901766
v -0.45661512000000004 0.2373298200000002 2.65901766
v -0.53769456 -0.05045663999999984 2.5858911
v -0.53769456 -0.13340417999999984 2.58589188
v -0.45661512000000004 -0.05045585999999983 2.65901844
v -0.45661512000000004 -0.13340417999999982 2.65901766
v -0.53769456 0.13521612000000016 2.5858911
v -0.53769456 0.05226780000000016 2.58589188
v -0.45661512000000004 0.1352161200000002 2.65901844
v -0.45661512000000004 0.05226780000000016 2.65901766
v -0.53769456 -0.23637353999999983 2.5858911
v -0.53769456 -0.31932185999999985 2.58589188
v -0.45661512000000004 -0.23637353999999983 2.65901844
v -0.45661512000000004 -0.31932185999999985 2.65901766
v 0.5675591999999999 -0.5591351999999998 2.29430916
v 0.53771172 -0.5376789599999998 2.66276322
v 0.53769456 -0.4197367199999999 2.66276322
v 0.44327556 -0.4373030999999998 2.66276322
v 0.44327556 -0.4373030999999998 2.29430916
v 0.54253134 -0.4197367199999999 2.29430916
v 0.53769456 -0.4197367199999999 2.66276322
v 0.44327556 -0.4373030999999998 2.66276322
v 0.42291755999999997 -0.5376945599999998 2.66276322
v 0.42291834 -0.5425305599999998 2.29430916
v 0.42291755999999997 -0.5376945599999998 2.66276322
v 0.53771172 -0.5376789599999998 2.66276322
v 0.54253524 -0.5425141799999998 2.29430916
v -0.5376789599999999 -0.5377117199999999 2.66276322
v -0.41973672000000006 -0.5376945599999998 2.66276322
v -0.4373031 -0.44327555999999985 2.66276322
v -0.43291170000000007 -0.43872347999999983 2.29430916
v -0.41973672000000006 -0.5425313399999998 2.29430916
v -0.41973672000000006 -0.5376945599999998 2.66276322
v -0.4373031 -0.44327555999999985 2.66276322
v -0.53769456 -0.4229175599999998 2.66276322
v -0.54253056 -0.42291833999999984 2.29430916
v -0.53769456 -0.4229175599999998 2.66276322
v -0.5376789599999999 -0.5377117199999999 2.66276322
v -0.5425141800000001 -0.5425360199999999 2.29430916
v -0.53771172 0.5376789600000002 2.66276322
v -0.53769456 0.41973672000000023 2.66276322
v -0.44327556 0.43730310000000017 2.66276322
v -0.44327556 0.43730310000000017 2.29430916
v -0.54253134 0.41973672000000023 2.29430916
v -0.53769456 0.41973672000000023 2.66276322
v -0.44327556 0.43730310000000017 2.66276322
v -0.42291755999999997 0.5376945600000002 2.66276322
v -0.42291834 0.5425305600000001 2.29430916
v -0.42291755999999997 0.5376945600000002 2.66276322
v -0.53771172 0.5376789600000002 2.66276322
v -0.54253602 0.5425141800000002 2.29430916
v -0.45825701999999996 -0.45197645999999986 2.24080038
v 0.45803394000000003 -0.45197646 0.5825648400000001
v -0.45825701999999996 -0.45197646 0.5825648400000001
v 0.45803394000000003 -0.45197645999999986 2.24080038
v 0.45803472 0.45080958000000015 2.24080038
v 0.45803472 0.45080958 0.5825648400000001
v 0.45803394000000003 -0.45197646 0.5825648400000001
vt 0.344479 0.995551
vt 0.344479 0.591226
vt 1.996075 0.005362
vt 1.344479 0.591226
vt 0.672412 0.450390
vt 0.352349 0.450609
vt 0.007513 0.391152
vt 0.393865 0.391152
vt 0.005255 0.510636
vt 0.007513 0.010495
vt 0.005255 0.473503
vt 0.300633 0.473503
vt 0.005255 0.477843
vt 0.300633 0.435060
vt 0.253212 0.572602
vt 0.253212 0.579896
vt 0.253212 0.565307
vt 0.008981 0.572603
vt 0.008981 0.579897
vt 0.008981 0.565308
vt 1.070037 0.783341
vt 1.110178 0.783347
vt 1.406476 0.271517
vt 1.406476 0.312655
vt 1.527920 0.363479
vt 1.405494 0.361584
vt 1.412650 0.394574
vt 1.076211 0.750963
vt 1.408504 0.119315
vt 1.408504 0.210231
vt 1.686183 0.210231
vt 1.686184 0.119315
vt 1.408504 0.102597
vt 1.686184 0.102597
vt 1.686184 0.011680
vt 1.408505 0.011679
vt 1.692251 0.413042
vt 1.655477 0.413041
vt 1.655462 0.440984
vt 1.692251 0.440984
vt 1.546149 0.412928
vt 1.546120 0.440870
vt 1.312143 0.543948
vt 1.340699 0.543211
vt 1.707478 0.147910
vt 1.707477 0.184685
vt 1.735420 0.184699
vt 1.735421 0.147910
vt 1.707365 0.294013
vt 1.735307 0.294042
vt 1.702492 0.141359
vt 1.731048 0.140622
vt 1.707889 0.298421
vt 1.707888 0.335195
vt 1.735831 0.335210
vt 1.735832 0.298421
vt 1.707775 0.444524
vt 1.735718 0.444553
vt 1.673527 0.348773
vt 1.702082 0.348036
vt 1.605996 0.221425
vt 1.605995 0.256070
vt 1.633938 0.256083
vt 1.633939 0.221425
vt 1.605883 0.359067
vt 1.633825 0.359094
vt 1.537807 0.355895
vt 1.566362 0.355158
vt 1.408504 0.119315
vt 1.408504 0.210231
vt 1.686183 0.210231
vt 1.686184 0.119315
vt 1.408504 0.102597
vt 1.686184 0.102597
vt 1.686184 0.011680
vt 1.408505 0.011679
vt 1.692251 0.413042
vt 1.655477 0.413041
vt 1.655462 0.440984
vt 1.692251 0.440984
vt 1.546149 0.412928
vt 1.546120 0.440870
vt 1.312143 0.543948
vt 1.340699 0.543211
vt 1.707478 0.147910
vt 1.707477 0.184685
vt 1.735420 0.184699
vt 1.735421 0.147910
vt 1.707365 0.294013
vt 1.735307 0.294042
vt 1.702492 0.141359
vt 1.731048 0.140622
vt 1.707889 0.298421
vt 1.707888 0.335195
vt 1.735831 0.335210
vt 1.735832 0.298421
vt 1.707776 0.444523
vt 1.735718 0.444552
vt 1.673527 0.348773
vt 1.702082 0.348036
vt 1.605996 0.221425
vt 1.605995 0.256070
vt 1.633938 0.256083
vt 1.633939 0.221425
vt 1.605883 0.359067
vt 1.633825 0.359094
vt 1.537807 0.355895
vt 1.566362 0.355158
vt 0.408504 0.119315
vt 0.408504 0.210231
vt 0.686183 0.210231
vt 0.686184 0.119315
vt 0.408504 0.102597
vt 0.686184 0.102597
vt 0.686184 0.011680
vt 0.408505 0.011679
vt 0.692252 0.413042
vt 0.655477 0.413041
vt 0.655462 0.440984
vt 0.692252 0.440984
vt 0.546149 0.412928
vt 0.546120 0.440870
vt 0.312143 0.543948
vt 0.340699 0.543211
vt 0.707889 0.298421
vt 0.707888 0.335195
vt 0.735831 0.335210
vt 0.735832 0.298421
vt 0.707775 0.444524
vt 0.735718 0.444552
vt 0.673526 0.348773
vt 0.702082 0.348036
vt 0.707478 0.147910
vt 0.707477 0.184684
vt 0.735420 0.184699
vt 0.735421 0.147910
vt 0.707365 0.294013
vt 0.735307 0.294042
vt 0.702492 0.141359
vt 0.731048 0.140622
vt 0.605996 0.221425
vt 0.605995 0.256070
vt 0.633938 0.256083
vt 0.633939 0.221425
vt 0.605883 0.359067
vt 0.633825 0.359094
vt 0.537807 0.355895
vt 0.566362 0.355158
vt 1.408504 0.119315
vt 1.408504 0.210231
vt 1.686183 0.210231
vt 1.686184 0.119315
vt 1.408504 0.102597
vt 1.686184 0.102597
vt 1.686184 0.011680
vt 1.408505 0.011679
vt 1.692251 0.413042
vt 1.655477 0.413041
vt 1.655462 0.440984
vt 1.692251 0.440984
vt 1.546149 0.412928
vt 1.546120 0.440870
vt 1.312143 0.543948
vt 1.340699 0.543211
vt 1.707478 0.147910
vt 1.707477 0.184685
vt 1.735420 0.184699
vt 1.735421 0.147910
vt 1.707365 0.294013
vt 1.735307 0.294042
vt 1.702492 0.141359
vt 1.731048 0.140622
vt 1.707889 0.298421
vt 1.707888 0.335195
vt 1.735831 0.335210
vt 1.735832 0.298421
vt 1.707776 0.444523
vt 1.735718 0.444552
vt 1.673527 0.348773
vt 1.702082 0.348036
vt 1.605996 0.221425
vt 1.605995 0.256070
vt 1.633938 0.256083
vt 1.633939 0.221425
vt 1.605883 0.359067
vt 1.633825 0.359094
vt 1.537807 0.355895
vt 1.566362 0.355158
vt 0.131918 0.954170
vt 1.070037 0.783341
vt 1.110178 0.783347
vt 1.406476 0.271517
vt 1.406476 0.312655
vt 1.527920 0.363479
vt 1.405494 0.361584
vt 1.412650 0.394574
vt 1.076211 0.750963
vt 1.070037 0.783341
vt 1.110178 0.783347
vt 1.406476 0.271517
vt 1.406476 0.312655
vt 1.527920 0.363479
vt 1.405494 0.361584
vt 1.412650 0.394574
vt 1.076211 0.750963
vt 0.070037 0.783341
vt 0.110178 0.783347
vt 0.406476 0.271517
vt 0.406476 0.312655
vt 0.527920 0.363479
vt 0.405494 0.361584
vt 0.412650 0.394574
vt 0.076211 0.750963
vt 1.784523 0.054040
vt 0.672412 0.450390
vt 1.131557 0.633117
vt 0.993465 0.450390
vt 0.131918 0.632363
vt 1.131556 0.953416
vt 1.344479 0.995551
vt 1.784523 0.372646
vt 1.996075 0.422619
vt 0.996075 0.005362
vt 0.784523 0.054828
vt 0.784523 0.371860
vt 0.996075 0.422619
vt 0.300633 0.440123
vt 0.005255 0.440123
vt 0.300633 0.477843
vt 0.300633 0.510636
vt 0.005255 0.435060
vt 0.300633 0.403303
vt 0.005255 0.403303
vt 0.300633 0.517869
vt 0.005255 0.517869
vt 0.005255 0.549035
vt 0.300633 0.549038
vt 0.672412 0.992098
vt 0.993465 0.992098
vt 0.670169 0.450609
vt 0.352349 0.997061
vt 0.670169 0.997061
vt 0.253212 0.558013
vt 0.008981 0.558014
vt 0.253212 0.565307
vt 0.253212 0.572602
vt 0.008981 0.572603
vt 0.008981 0.565308
vt 0.023886 0.589327
vt 0.015673 0.603553
vt 0.032100 0.603553
vt 1.527256 0.311035
vt 1.527256 0.271517
vt 1.527920 0.394574
vt 1.411568 0.234430
vt 1.403503 0.264210
vt 1.526695 0.262554
vt 1.526695 0.233765
vt 1.110183 0.744278
vt 1.406974 0.357528
vt 1.527754 0.357528
vt 1.527754 0.319065
vt 1.406974 0.317449
vt 1.408504 0.119315
vt 1.686184 0.119315
vt 1.408504 0.102597
vt 1.686184 0.102597
vt 1.655462 0.440984
vt 1.655477 0.413041
vt 1.312137 0.412754
vt 1.340699 0.412754
vt 1.735420 0.184699
vt 1.707477 0.184685
vt 1.702486 0.010165
vt 1.731048 0.010165
vt 1.735831 0.335210
vt 1.707888 0.335195
vt 1.673521 0.217580
vt 1.702082 0.217580
vt 1.633938 0.256083
vt 1.605995 0.256070
vt 1.537801 0.224701
vt 1.566362 0.224701
vt 1.408504 0.119315
vt 1.686184 0.119315
vt 1.408504 0.102597
vt 1.686184 0.102597
vt 1.655462 0.440984
vt 1.655477 0.413041
vt 1.312137 0.412754
vt 1.340699 0.412754
vt 1.735420 0.184699
vt 1.707477 0.184685
vt 1.702486 0.010165
vt 1.731048 0.010165
vt 1.735831 0.335210
vt 1.707888 0.335195
vt 1.673521 0.217580
vt 1.702082 0.217580
vt 1.633938 0.256083
vt 1.605995 0.256070
vt 1.537801 0.224701
vt 1.566362 0.224701
vt 0.408504 0.119315
vt 0.686184 0.119315
vt 0.408504 0.102597
vt 0.686184 0.102597
vt 0.655462 0.440984
vt 0.655477 0.413041
vt 0.312137 0.412754
vt 0.340699 0.412754
vt 0.735831 0.335210
vt 0.707888 0.335195
vt 0.673521 0.217580
vt 0.702082 0.217580
vt 0.735420 0.184699
vt 0.707477 0.184684
vt 0.702487 0.010165
vt 0.731048 0.010165
vt 0.633938 0.256083
vt 0.605995 0.256070
vt 0.537801 0.224701
vt 0.566362 0.224701
vt 1.408504 0.119315
vt 1.686184 0.119315
vt 1.408504 0.102597
vt 1.686184 0.102597
vt 1.655462 0.440984
vt 1.655477 0.413041
vt 1.312137 0.412754
vt 1.340699 0.412754
vt 1.735420 0.184699
vt 1.707477 0.184685
vt 1.702486 0.010165
vt 1.731048 0.010165
vt 1.735831 0.335210
vt 1.707888 0.335195
vt 1.673521 0.217580
vt 1.702082 0.217580
vt 1.633938 0.256083
vt 1.605995 0.256070
vt 1.537801 0.224701
vt 1.566362 0.224701
vt 0.393865 0.010495
vt 1.527256 0.311035
vt 1.527256 0.271517
vt 1.527920 0.394574
vt 1.411568 0.234430
vt 1.403503 0.264210
vt 1.526695 0.262554
vt 1.526695 0.233765
vt 1.110183 0.744278
vt 1.406974 0.357528
vt 1.527754 0.357528
vt 1.527754 0.319065
vt 1.406974 0.317449
vt 1.527256 0.311035
vt 1.527256 0.271517
vt 1.527920 0.394574
vt 1.411568 0.234430
vt 1.403503 0.264210
vt 1.526695 0.262554
vt 1.526695 0.233765
vt 1.110183 0.744278
vt 1.406974 0.357528
vt 1.527754 0.357528
vt 1.527754 0.319065
vt 1.406974 0.317449
vt 0.527256 0.311035
vt 0.527256 0.271517
vt 0.527920 0.394574
vt 0.411568 0.234430
vt 0.403503 0.264210
vt 0.526695 0.262554
vt 0.526695 0.233765
vt 0.110183 0.744278
vt 0.406974 0.357528
vt 0.527754 0.357528
vt 0.527754 0.319065
vt 0.406974 0.317449
vt 0.993465 0.450390
vt 0.672412 0.992098
vt 0.993465 0.992098
vt 0.670169 0.450609
vt 0.352349 0.450609
vt 0.352349 0.997061
vt 0.670169 0.997061
vn 0 0.973823 0.22730699999999995
vn -0 0.973823 0.22730699999999995
vn -0 -0.972482 0.23297900000000005
vn 0.980881 1.1916364446763363E-17 0.194609
vn -0 1 -6.123233995736766E-17
vn -1 0 0
vn 1E-06 6.123233995736766E-17 1
vn 0 6.123233995736766E-17 1
vn 0.999568 1.800169562406652E-18 0.029399
vn 0 6.123233995736766E-17 1
vn 0 0.999596 0.02840999999999994
vn 0 0.999596 0.02840999999999994
vn 0.999568 1.800169562406652E-18 0.029399
vn 0 -0.999557 0.02977800000000006
vn 0.5 -0.866025 5.3028737211579333E-17
vn 0.5 -0.866025 5.3028737211579333E-17
vn -1 0 0
vn 0.5 -0.866025 5.3028737211579333E-17
vn 0.5 -0.866025 5.3028737211579333E-17
vn -1 0 0
vn 0 6.123233995736766E-17 1
vn 0 6.123233995736766E-17 1
vn -9.2E-05 0.999914 0.01310799999999994
vn -3.7E-05 0.999914 0.013089999999999938
vn -0.194343 -0.980933 -0.00124699999999994
vn -0.189939 -0.981793 -0.0024949999999999395
vn -0.194343 -0.980933 -0.00124699999999994
vn 0 6.123233995736766E-17 1
vn -0 1 -1.0000000000612324E-06
vn -0 1 -1.0000000000612324E-06
vn -0 1 -1.0000000000612324E-06
vn -0 1 -1.0000000000612324E-06
vn 0 6.123233995736766E-17 1
vn 0 6.123233995736766E-17 1
vn 0 -0.999981 0.006207000000000061
vn 0 -0.999981 0.006207000000000061
vn -0 -0.669749 0.742588
vn -1E-06 -0.669748 0.742588
vn -0 -0.669749 0.742588
vn 1E-06 -0.669749 0.742587
vn 2E-06 -0.999928 0.01198900000000006
vn 3E-06 -0.999928 0.01198900000000006
vn 0 1 -6.123233995736766E-17
vn 1E-06 1 -6.123233995736766E-17
vn -1E-06 -0.669748 0.742588
vn -3E-06 -0.669747 0.74259
vn -1E-06 -0.669748 0.742588
vn 1E-06 -0.669749 0.742587
vn 1E-06 -0.999928 0.01198900000000006
vn 2E-06 -0.999928 0.01198900000000006
vn -1E-06 1 -6.123233995736766E-17
vn -0 1 -6.123233995736766E-17
vn 0 -0.669748 0.742589
vn -1E-06 -0.669747 0.74259
vn 0 -0.669748 0.742589
vn 2E-06 -0.669748 0.742588
vn 2E-06 -0.999928 0.01198900000000006
vn 2E-06 -0.999928 0.01198900000000006
vn -1E-06 1 -6.123233995736766E-17
vn -1E-06 1 -6.123233995736766E-17
vn -1E-06 -0.669748 0.742588
vn -3E-06 -0.669747 0.742589
vn -1E-06 -0.669748 0.742588
vn 1E-06 -0.669749 0.742587
vn 2E-06 -0.999928 0.01198900000000006
vn 2E-06 -0.999928 0.01198900000000006
vn 0 1 -6.123233995736766E-17
vn 1E-06 1 -6.123233995736766E-17
vn -1 -6.123233995736766E-23 -1E-06
vn -1 -6.123233995736766E-23 -1E-06
vn -1 -6.123233995736766E-23 -1E-06
vn -1 -6.123233995736766E-23 -1E-06
vn 0 6.123233995736766E-17 1
vn 0 6.123233995736766E-17 1
vn 0.999981 3.800691341153811E-19 0.006207
vn 0.999981 3.800691341153811E-19 0.006207
vn 0.669749 4.547040086426174E-17 0.742588
vn 0.669748 -9.999999999545295E-07 0.742588
vn 0.669749 4.547040086426174E-17 0.742588
vn 0.669749 1.0000000000454704E-06 0.742588
vn 0.999928 2.000000000000734E-06 0.011989
vn 0.999928 3.000000000000734E-06 0.011989
vn -1 -1E-06 6.123233995736766E-23
vn -1 0 -0
vn 0.669748 -9.999999999545295E-07 0.742588
vn 0.669747 -2.9999999999545297E-06 0.742589
vn 0.669748 -9.999999999545295E-07 0.742588
vn 0.669749 1.0000000000454704E-06 0.742587
vn 0.999928 2.000000000000734E-06 0.011989
vn 0.999928 2.000000000000734E-06 0.011989
vn -1 -0 0
vn -1 1E-06 -6.123233995736766E-23
vn 0.669748 1.0000000000454704E-06 0.742589
vn 0.669747 4.5470462096601696E-17 0.742589
vn 0.669748 1.0000000000454704E-06 0.742589
vn 0.669748 2.0000000000454703E-06 0.742588
vn 0.999928 2.000000000000734E-06 0.011989
vn 0.999928 1.0000000000007341E-06 0.011989
vn -1 -1E-06 6.123233995736766E-23
vn -1 -1E-06 6.123233995736766E-23
vn 0.669748 -9.999999999545295E-07 0.742588
vn 0.669747 -2.9999999999545297E-06 0.742589
vn 0.669748 -9.999999999545295E-07 0.742588
vn 0.669749 1.0000000000454704E-06 0.742587
vn 0.999928 2.000000000000734E-06 0.011989
vn 0.999928 2.000000000000734E-06 0.011989
vn -1 -0 0
vn -1 1E-06 -6.123233995736766E-23
vn 0 -1 -9.999999999387675E-07
vn 0 -1 -9.999999999387675E-07
vn 0 -1 -9.999999999387675E-07
vn 0 -1 -9.999999999387675E-07
vn 0 6.123233995736766E-17 1
vn 0 6.123233995736766E-17 1
vn -0 0.999981 0.006206999999999938
vn -0 0.999981 0.006206999999999938
vn 0 0.669749 0.742588
vn 2E-06 0.669748 0.742589
vn 0 0.669749 0.742588
vn -1E-06 0.669749 0.742587
vn -2E-06 0.999928 0.011988999999999939
vn -3E-06 0.999928 0.011988999999999939
vn 1E-06 -1 6.123233995736766E-17
vn 0 -1 6.123233995736766E-17
vn 1E-06 0.669748 0.742588
vn 3E-06 0.669747 0.742589
vn 1E-06 0.669748 0.742588
vn -1E-06 0.669749 0.742587
vn -2E-06 0.999928 0.011988999999999939
vn -2E-06 0.999928 0.011988999999999939
vn 0 -1 6.123233995736766E-17
vn -1E-06 -1 6.123233995736766E-17
vn -1E-06 0.669748 0.742589
vn 0 0.669747 0.742589
vn -1E-06 0.669748 0.742589
vn -2E-06 0.669748 0.742588
vn -2E-06 0.999928 0.011988999999999939
vn -2E-06 0.999928 0.011988999999999939
vn 1E-06 -1 6.123233995736766E-17
vn 1E-06 -1 6.123233995736766E-17
vn 1E-06 0.669748 0.742588
vn 3E-06 0.669747 0.742589
vn 1E-06 0.669748 0.742588
vn -1E-06 0.669749 0.742587
vn -2E-06 0.999928 0.011988999999999939
vn -2E-06 0.999928 0.011988999999999939
vn 0 -1 6.123233995736766E-17
vn -1E-06 -1 6.123233995736766E-17
vn 1 -6.123233995736766E-23 -1E-06
vn 1 -6.123233995736766E-23 -1E-06
vn 1 -6.123233995736766E-23 -1E-06
vn 1 -6.123233995736766E-23 -1E-06
vn 0 6.123233995736766E-17 1
vn 0 6.123233995736766E-17 1
vn -0.999981 3.800691341153811E-19 0.006207
vn -0.999981 3.800691341153811E-19 0.006207
vn -0.669749 4.547040086426174E-17 0.742588
vn -0.669748 1.0000000000454704E-06 0.742588
vn -0.669749 4.547040086426174E-17 0.742588
vn -0.669749 -9.999999999545295E-07 0.742587
vn -0.999928 -1.999999999999266E-06 0.011989
vn -0.999928 -2.999999999999266E-06 0.011989
vn 1 1E-06 -6.123233995736766E-23
vn 1 -0 0
vn -0.669748 1.0000000000454704E-06 0.742588
vn -0.669747 3.0000000000454705E-06 0.742589
vn -0.669748 1.0000000000454704E-06 0.742588
vn -0.669749 -9.999999999545295E-07 0.742587
vn -0.999928 -9.999999999992658E-07 0.011989
vn -0.999928 -1.999999999999266E-06 0.011989
vn 1 1E-06 -6.123233995736766E-23
vn 1 -0 0
vn -0.669748 -9.999999999545295E-07 0.742589
vn -0.669747 1.0000000000454704E-06 0.742589
vn -0.669748 -9.999999999545295E-07 0.742589
vn -0.669748 -1.9999999999545295E-06 0.742588
vn -0.999928 -2.999999999999266E-06 0.011989
vn -0.999928 -2.999999999999266E-06 0.011989
vn 1 1E-06 -6.123233995736766E-23
vn 1 1E-06 -6.123233995736766E-23
vn -0.669748 1.0000000000454704E-06 0.742588
vn -0.669747 3.0000000000454705E-06 0.742589
vn -0.669748 1.0000000000454704E-06 0.742588
vn -0.669749 -9.999999999545295E-07 0.742587
vn -0.999928 -9.999999999992658E-07 0.011989
vn -0.999928 -1.999999999999266E-06 0.011989
vn 1 1E-06 -6.123233995736766E-23
vn 1 -0 0
vn -0 0.993434 0.11440499999999995
vn 0 6.123233995736766E-17 1
vn 0 6.123233995736766E-17 1
vn 0.999914 9.20000000000008E-05 0.013108
vn 0.999914 3.70000000000008E-05 0.01309
vn -0.980933 0.194343 -0.001247000000000012
vn -0.981793 0.189939 -0.0024950000000000115
vn -0.980933 0.194343 -0.001247000000000012
vn 0 6.123233995736766E-17 1
vn 0 6.123233995736766E-17 1
vn 0 6.123233995736766E-17 1
vn 9.2E-05 -0.999914 0.01310800000000006
vn 3.7E-05 -0.999914 0.01309000000000006
vn 0.170791 0.985287 0.006302999999999939
vn 0.14271 0.989763 -0.0018750000000000604
vn 0.170791 0.985287 0.006302999999999939
vn 0 6.123233995736766E-17 1
vn 0 6.123233995736766E-17 1
vn 0 6.123233995736766E-17 1
vn -0.999914 -9.29999999999992E-05 0.013108
vn -0.999914 -3.79999999999992E-05 0.01309
vn 0.980933 -0.194343 -0.0012469999999999881
vn 0.981793 -0.189939 -0.002494999999999988
vn 0.980933 -0.194343 -0.0012469999999999881
vn 0 6.123233995736766E-17 1
vn -0 -0.993097 0.11730000000000006
vn -0 -1 6.123233995736766E-17
vn 0.995209 5.986869574651708E-18 0.097773
vn -0 1 -6.123233995736766E-17
vn -0 0.993434 0.11440499999999995
vn 0.995209 5.986869574651708E-18 0.097773
vn 0.980881 1.1916364446763363E-17 0.194609
vn -0 -0.993097 0.11730000000000006
vn 0 -0.972482 0.23297900000000005
vn -0.980661 1.1984026182416254E-17 0.195714
vn -0.995154 6.021220917367792E-18 0.098334
vn -0.995154 6.021220917367792E-18 0.098334
vn -0.980661 1.1984026182416254E-17 0.195714
vn 0 0.999596 0.02840999999999994
vn 0 0.999596 0.02840999999999994
vn 0.999568 1.800169562406652E-18 0.029399
vn 0.999568 1.800169562406652E-18 0.029399
vn 0 -0.999557 0.029775000000000062
vn 0 -0.999557 0.029775000000000062
vn 0 -0.999557 0.029773000000000063
vn -0.99956 1.8161512031355246E-18 0.02966
vn -0.99956 1.8161512031355246E-18 0.02966
vn -0.99956 1.8161512031355246E-18 0.02966
vn -0.99956 1.8161512031355246E-18 0.02966
vn -0 0.993434 0.11440499999999995
vn -0 0.993434 0.11440499999999995
vn -1 0 0
vn -0.995154 6.021220917367792E-18 0.098334
vn -0.995154 6.021220917367792E-18 0.098334
vn -1 0 0
vn -1 0 0
vn 0.5 0.866025 -5.3028737211579333E-17
vn 0.5 0.866025 -5.3028737211579333E-17
vn 0.5 0.866025 -5.3028737211579333E-17
vn 0.5 0.866025 -5.3028737211579333E-17
vn 0 6.123233995736766E-17 1
vn 0 6.123233995736766E-17 1
vn 0 6.123233995736766E-17 1
vn -9.2E-05 0.999914 0.01310799999999994
vn -0.000147 0.999914 0.013124999999999939
vn -0.198743 -0.980052 6.001087723989809E-17
vn -0.983923 -0.17859 -0.0011439999999999892
vn -0.984695 -0.17427 -0.002286999999999989
vn -0.983923 -0.17859 -0.0011439999999999892
vn -0.983131 -0.182905 1.1199701139902332E-17
vn 0 6.123233995736766E-17 1
vn 0.999914 0.00013400000000000082 0.013123
vn 0.999914 0.00013400000000000082 0.013123
vn 0.999914 0.00013400000000000082 0.013123
vn 0.999914 0.00013500000000000081 0.013123
vn 0 6.123233995736766E-17 1
vn 0 6.123233995736766E-17 1
vn 0 -0.999981 0.006207000000000061
vn 0 -0.999981 0.006207000000000061
vn 2E-06 -0.999928 0.01198900000000006
vn 1E-06 -0.999928 0.01198900000000006
vn 1E-06 1 -6.123233995736766E-17
vn 1E-06 1 -6.123233995736766E-17
vn 1E-06 -0.999928 0.01198900000000006
vn -0 -0.999928 0.01198900000000006
vn -0 1 -6.123233995736766E-17
vn 1E-06 1 -6.123233995736766E-17
vn 2E-06 -0.999928 0.01198900000000006
vn 1E-06 -0.999928 0.01198900000000006
vn -1E-06 1 -6.123233995736766E-17
vn 0 1 -6.123233995736766E-17
vn 2E-06 -0.999928 0.01198900000000006
vn 1E-06 -0.999928 0.01198900000000006
vn 1E-06 1 -6.123233995736766E-17
vn 1E-06 1 -6.123233995736766E-17
vn 0 6.123233995736766E-17 1
vn 0 6.123233995736766E-17 1
vn 0.999981 3.800691341153811E-19 0.006207
vn 0.999981 3.800691341153811E-19 0.006207
vn 0.999928 2.000000000000734E-06 0.011989
vn 0.999928 1.000000000000734E-06 0.011988
vn -1 0 -0
vn -1 1E-06 -6.123233995736766E-23
vn 0.999928 2.000000000000734E-06 0.011989
vn 0.999928 1.0000000000007341E-06 0.011989
vn -1 1E-06 -6.123233995736766E-23
vn -1 1E-06 -6.123233995736766E-23
vn 0.999928 2.000000000000734E-06 0.011989
vn 0.999928 2.000000000000734E-06 0.011989
vn -1 -1E-06 6.123233995736766E-23
vn -1 0 0
vn 0.999928 2.000000000000734E-06 0.011989
vn 0.999928 1.0000000000007341E-06 0.011989
vn -1 1E-06 -6.123233995736766E-23
vn -1 1E-06 -6.123233995736766E-23
vn 0 6.123233995736766E-17 1
vn 0 6.123233995736766E-17 1
vn -0 0.999981 0.006206999999999938
vn -0 0.999981 0.006206999999999938
vn -2E-06 0.999928 0.011988999999999939
vn 0 0.999928 0.011988999999999939
vn 0 -1 6.123233995736766E-17
vn -1E-06 -1 6.123233995736766E-17
vn -2E-06 0.999928 0.011988999999999939
vn -1E-06 0.999928 0.011988999999999939
vn -1E-06 -1 6.123233995736766E-17
vn -1E-06 -1 6.123233995736766E-17
vn -2E-06 0.999928 0.011988999999999939
vn -2E-06 0.999928 0.011988999999999939
vn 1E-06 -1 6.123233995736766E-17
vn 0 -1 6.123233995736766E-17
vn -2E-06 0.999928 0.011988999999999939
vn -1E-06 0.999928 0.011988999999999939
vn -1E-06 -1 6.123233995736766E-17
vn -1E-06 -1 6.123233995736766E-17
vn 0 6.123233995736766E-17 1
vn 0 6.123233995736766E-17 1
vn -0.999981 3.800691341153811E-19 0.006207
vn -0.999981 3.800691341153811E-19 0.006207
vn -0.999928 -1.999999999999266E-06 0.011989
vn -0.999928 -9.999999999992658E-07 0.011989
vn 1 -0 0
vn 1 -1E-06 6.123233995736766E-23
vn -0.999928 -9.999999999992658E-07 0.011989
vn -0.999928 -9.999999999992658E-07 0.011989
vn 1 -0 0
vn 1 -1E-06 6.123233995736766E-23
vn -0.999928 -2.999999999999266E-06 0.011989
vn -0.999928 -1.999999999999266E-06 0.011989
vn 1 1E-06 -6.123233995736766E-23
vn 1 0 0
vn -0.999928 -9.999999999992658E-07 0.011989
vn -0.999928 -9.999999999992658E-07 0.011989
vn 1 -0 0
vn 1 -1E-06 6.123233995736766E-23
vn 0 6.123233995736766E-17 1
vn 0.999914 9.20000000000008E-05 0.013108
vn 0.999914 0.0001470000000000008 0.013125
vn -0.980052 0.198743 -1.216949894014712E-17
vn -0.17859 0.983923 -0.0011440000000000603
vn -0.17427 0.984695 -0.0022870000000000603
vn -0.17859 0.983923 -0.0011440000000000603
vn -0.182905 0.983131 -6.019941161462682E-17
vn 0 6.123233995736766E-17 1
vn 0.000134 -0.999914 0.01312300000000006
vn 0.000134 -0.999914 0.01312300000000006
vn 0.000134 -0.999914 0.01312300000000006
vn 0.000134 -0.999914 0.01312300000000006
vn 9.2E-05 -0.999914 0.01310800000000006
vn 0.000147 -0.999914 0.01312500000000006
vn 0.198722 0.979949 0.01447499999999994
vn 0.987979 0.154465 0.006163999999999991
vn 0.992041 0.125905 -0.0016520000000000078
vn 0.987979 0.154465 0.006163999999999991
vn 0.983035 0.182887 0.01397599999999999
vn 0 6.123233995736766E-17 1
vn -0.999914 -0.0001349999999999992 0.013123
vn -0.999914 -0.0001339999999999992 0.013123
vn -0.999914 -0.0001349999999999992 0.013123
vn -0.999914 -0.00013599999999999919 0.013123
vn -0.999914 -9.29999999999992E-05 0.013108
vn -0.999914 -0.00014699999999999918 0.013125
vn 0.980052 -0.198742 1.2169437707807163E-17
vn 0.17859 -0.983923 -0.0011439999999999398
vn 0.17427 -0.984695 -0.0022869999999999397
vn 0.17859 -0.983923 -0.0011439999999999398
vn 0.182905 -0.983131 6.019941161462682E-17
vn 0 6.123233995736766E-17 1
vn -0.000134 0.999914 0.013122999999999939
vn -0.000134 0.999914 0.013122999999999939
vn -0.000134 0.999914 0.013122999999999939
vn -0.000134 0.999914 0.013122999999999939
vn -0 -1 6.123233995736766E-17
vn -0 -0.993097 0.11730000000000006
vn -0 -0.993097 0.11730000000000006
vn 1 0 0
vn 1 0 0
vn 0.995209 5.986869574651708E-18 0.097773
vn 0.995209 5.986869574651708E-18 0.097773
g turm
f 384/384/384 387/387/387 386/386/386
f 386/386/386 385/385/385 384/384/384
f 381/381/381 383/383/383 382/382/382
f 382/382/382 215/215/215 381/381/381
f 377/377/377 380/380/380 379/379/379
f 379/379/379 378/378/378 377/377/377
f 213/213/213 376/376/376 207/207/207
f 372/372/372 375/375/375 374/374/374
f 374/374/374 373/373/373 372/372/372
f 210/210/210 371/371/371 212/212/212
f 212/212/212 211/211/211 210/210/210
f 208/208/208 370/370/370 369/369/369
f 369/369/369 209/209/209 208/208/208
f 213/213/213 207/207/207 206/206/206
f 365/365/365 368/368/368 367/367/367
f 367/367/367 366/366/366 365/365/365
f 205/205/205 364/364/364 199/199/199
f 360/360/360 363/363/363 362/362/362
f 362/362/362 361/361/361 360/360/360
f 202/202/202 359/359/359 204/204/204
f 204/204/204 203/203/203 202/202/202
f 200/200/200 358/358/358 357/357/357
f 357/357/357 201/201/201 200/200/200
f 205/205/205 199/199/199 198/198/198
f 353/353/353 356/356/356 355/355/355
f 355/355/355 354/354/354 353/353/353
f 197/197/197 352/352/352 191/191/191
f 348/348/348 351/351/351 350/350/350
f 350/350/350 349/349/349 348/348/348
f 194/194/194 347/347/347 196/196/196
f 196/196/196 195/195/195 194/194/194
f 192/192/192 346/346/346 345/345/345
f 345/345/345 193/193/193 192/192/192
f 197/197/197 191/191/191 190/190/190
f 10/10/10 344/344/344 8/8/8
f 342/342/342 343/343/343 188/188/188
f 188/188/188 187/187/187 342/342/342
f 185/185/185 341/341/341 340/340/340
f 340/340/340 186/186/186 185/185/185
f 181/181/181 184/184/184 183/183/183
f 183/183/183 182/182/182 181/181/181
f 338/338/338 339/339/339 180/180/180
f 180/180/180 179/179/179 338/338/338
f 177/177/177 337/337/337 336/336/336
f 336/336/336 178/178/178 177/177/177
f 173/173/173 176/176/176 175/175/175
f 175/175/175 174/174/174 173/173/173
f 334/334/334 335/335/335 172/172/172
f 172/172/172 171/171/171 334/334/334
f 169/169/169 333/333/333 332/332/332
f 332/332/332 170/170/170 169/169/169
f 165/165/165 168/168/168 167/167/167
f 167/167/167 166/166/166 165/165/165
f 330/330/330 331/331/331 164/164/164
f 164/164/164 163/163/163 330/330/330
f 161/161/161 329/329/329 328/328/328
f 328/328/328 162/162/162 161/161/161
f 157/157/157 160/160/160 159/159/159
f 159/159/159 158/158/158 157/157/157
f 326/326/326 156/156/156 155/155/155
f 155/155/155 327/327/327 326/326/326
f 324/324/324 153/153/153 154/154/154
f 154/154/154 325/325/325 324/324/324
f 149/149/149 152/152/152 151/151/151
f 151/151/151 150/150/150 149/149/149
f 322/322/322 323/323/323 148/148/148
f 148/148/148 147/147/147 322/322/322
f 145/145/145 321/321/321 320/320/320
f 320/320/320 146/146/146 145/145/145
f 141/141/141 144/144/144 143/143/143
f 143/143/143 142/142/142 141/141/141
f 318/318/318 319/319/319 140/140/140
f 140/140/140 139/139/139 318/318/318
f 137/137/137 317/317/317 316/316/316
f 316/316/316 138/138/138 137/137/137
f 133/133/133 136/136/136 135/135/135
f 135/135/135 134/134/134 133/133/133
f 314/314/314 315/315/315 132/132/132
f 132/132/132 131/131/131 314/314/314
f 129/129/129 313/313/313 312/312/312
f 312/312/312 130/130/130 129/129/129
f 125/125/125 128/128/128 127/127/127
f 127/127/127 126/126/126 125/125/125
f 310/310/310 311/311/311 124/124/124
f 124/124/124 123/123/123 310/310/310
f 121/121/121 309/309/309 308/308/308
f 308/308/308 122/122/122 121/121/121
f 117/117/117 120/120/120 119/119/119
f 119/119/119 118/118/118 117/117/117
f 306/306/306 116/116/116 115/115/115
f 115/115/115 307/307/307 306/306/306
f 304/304/304 113/113/113 114/114/114
f 114/114/114 305/305/305 304/304/304
f 109/109/109 112/112/112 111/111/111
f 111/111/111 110/110/110 109/109/109
f 302/302/302 303/303/303 108/108/108
f 108/108/108 107/107/107 302/302/302
f 105/105/105 301/301/301 300/300/300
f 300/300/300 106/106/106 105/105/105
f 101/101/101 104/104/104 103/103/103
f 103/103/103 102/102/102 101/101/101
f 298/298/298 299/299/299 100/100/100
f 100/100/100 99/99/99 298/298/298
f 97/97/97 297/297/297 296/296/296
f 296/296/296 98/98/98 97/97/97
f 93/93/93 96/96/96 95/95/95
f 95/95/95 94/94/94 93/93/93
f 294/294/294 295/295/295 92/92/92
f 92/92/92 91/91/91 294/294/294
f 89/89/89 293/293/293 292/292/292
f 292/292/292 90/90/90 89/89/89
f 85/85/85 88/88/88 87/87/87
f 87/87/87 86/86/86 85/85/85
f 290/290/290 291/291/291 84/84/84
f 84/84/84 83/83/83 290/290/290
f 81/81/81 289/289/289 288/288/288
f 288/288/288 82/82/82 81/81/81
f 77/77/77 80/80/80 79/79/79
f 79/79/79 78/78/78 77/77/77
f 286/286/286 76/76/76 75/75/75
f 75/75/75 287/287/287 286/286/286
f 284/284/284 73/73/73 74/74/74
f 74/74/74 285/285/285 284/284/284
f 69/69/69 72/72/72 71/71/71
f 71/71/71 70/70/70 69/69/69
f 282/282/282 283/283/283 68/68/68
f 68/68/68 67/67/67 282/282/282
f 65/65/65 281/281/281 280/280/280
f 280/280/280 66/66/66 65/65/65
f 61/61/61 64/64/64 63/63/63
f 63/63/63 62/62/62 61/61/61
f 278/278/278 279/279/279 60/60/60
f 60/60/60 59/59/59 278/278/278
f 57/57/57 277/277/277 276/276/276
f 276/276/276 58/58/58 57/57/57
f 53/53/53 56/56/56 55/55/55
f 55/55/55 54/54/54 53/53/53
f 274/274/274 275/275/275 52/52/52
f 52/52/52 51/51/51 274/274/274
f 49/49/49 273/273/273 272/272/272
f 272/272/272 50/50/50 49/49/49
f 45/45/45 48/48/48 47/47/47
f 47/47/47 46/46/46 45/45/45
f 270/270/270 271/271/271 44/44/44
f 44/44/44 43/43/43 270/270/270
f 41/41/41 269/269/269 268/268/268
f 268/268/268 42/42/42 41/41/41
f 37/37/37 40/40/40 39/39/39
f 39/39/39 38/38/38 37/37/37
f 266/266/266 36/36/36 35/35/35
f 35/35/35 267/267/267 266/266/266
f 264/264/264 33/33/33 34/34/34
f 34/34/34 265/265/265 264/264/264
f 29/29/29 32/32/32 31/31/31
f 31/31/31 30/30/30 29/29/29
f 260/260/260 263/263/263 262/262/262
f 262/262/262 261/261/261 260/260/260
f 28/28/28 259/259/259 22/22/22
f 255/255/255 258/258/258 257/257/257
f 257/257/257 256/256/256 255/255/255
f 25/25/25 254/254/254 27/27/27
f 27/27/27 26/26/26 25/25/25
f 23/23/23 253/253/253 252/252/252
f 252/252/252 24/24/24 23/23/23
f 28/28/28 22/22/22 21/21/21
f 251/251/251 250/250/250 249/249/249
f 245/245/245 248/248/248 247/247/247
f 247/247/247 246/246/246 245/245/245
f 243/243/243 244/244/244 20/20/20
f 20/20/20 17/17/17 243/243/243
f 15/15/15 18/18/18 19/19/19
f 19/19/19 16/16/16 15/15/15
f 240/240/240 242/242/242 241/241/241
f 241/241/241 6/6/6 240/240/240
f 217/217/217 239/239/239 238/238/238
f 238/238/238 5/5/5 217/217/217
f 234/234/234 237/237/237 236/236/236
f 236/236/236 235/235/235 234/234/234
f 231/231/231 233/233/233 232/232/232
f 232/232/232 14/14/14 231/231/231
f 229/229/229 230/230/230 9/9/9
f 9/9/9 13/13/13 229/229/229
f 11/11/11 228/228/228 227/227/227
f 227/227/227 12/12/12 11/11/11
f 10/10/10 8/8/8 7/7/7
f 223/223/223 226/226/226 225/225/225
f 225/225/225 224/224/224 223/223/223
f 3/3/3 222/222/222 221/221/221
f 221/221/221 214/214/214 3/3/3
f 4/4/4 220/220/220 219/219/219
f 219/219/219 216/216/216 4/4/4
f 2/2/2 1/1/1 189/189/189
f 189/189/189 218/218/218 2/2/2
