v -0.876233 -0.36932399999999993 0.804694
v -0.851424 -0.35850599999999994 0.786925
v -1.064214 -0.47639 0.4180630000000001
v -1.089023 -0.487209 0.43583200000000005
v -1.277004 -0.594275 0.049201000000000036
v -1.301813 -0.605093 0.06697000000000004
v -1.060054 0.08994400000000005 0.879181
v -1.032928 0.08223500000000006 0.863274
v -1.247508 0.12026800000000003 0.478899
v -1.274634 0.12797700000000004 0.494805
v -1.462088 0.158301 0.09452399999999998
v -1.489214 0.166011 0.11042999999999999
vt 1.000000 0.000000
vt 1.000000 1.000000
vt 0.500000 1.000000
vt 0.500000 0.000000
vt 0.000000 1.000000
vt 0.000000 0.000000
vt 1.000000 0.000000
vt 1.000000 1.000000
vt 0.500000 1.000000
vt 0.500000 0.000000
vt 0.000000 1.000000
vt 0.000000 0.000000
vn -0.425361 0.903977 -0.04351900000000006
vn -0.425362 0.903977 -0.04351900000000006
vn -0.425361 0.903977 -0.04351900000000006
vn -0.425361 0.903977 -0.04351900000000006
vn -0.425361 0.903977 -0.04351900000000006
vn -0.425362 0.903977 -0.04351900000000006
vn 0.249426 0.967416 -0.043519000000000065
vn 0.249426 0.967416 -0.043519000000000065
vn 0.249425 0.967416 -0.043519000000000065
vn 0.249425 0.967416 -0.043519000000000065
vn 0.249426 0.967416 -0.043519000000000065
vn 0.249426 0.967416 -0.043519000000000065
g line
f 1/1/1 2/2/2 3/3/3
f 3/3/3 4/4/4 1/1/1
f 4/4/4 3/3/3 5/5/5
f 5/5/5 6/6/6 4/4/4
f 7/7/7 8/8/8 9/9/9
f 9/9/9 10/10/10 7/7/7
f 10/10/10 9/9/9 11/11/11
f 11/11/11 12/12/12 10/10/10
