v -1.1478448044 -0.181131552 0.125221446
v -0.8094758868 -0.09046583279999998 0.125221446
v -1.2166850052 0.075784212 0.125221446
v -0.8783162892 0.1664498052 0.125221446
v -0.8437945320000001 -0.07645455719999998 0.125221446
v -1.125129474 -0.1518381144 0.125221446
v -1.1823664608 0.061773087600000005 0.125221446
v -0.9010315944000001 0.1371566448 0.125221446
v -0.8603154756 -0.069709752 0.03283338240000001
v -1.1141944632 -0.1377364716 0.032833382400000014
v -1.1658455928 0.055028131200000004 0.0328333824
v -0.9119665296000001 0.12305469960000001 0.0328333824
v -1.0261875708000001 -0.00628964279999998 0.32998167720000005
v -1.0161821376 0.0037158912000000203 0.32998167720000005
v -1.0161821376 -0.01629502559999998 0.32998167720000005
v -1.0061766036000002 -0.00628964279999998 0.32998167720000005
v -1.1988563832 0.07392334320000002 0.12659220000000002
v -1.1988564588000001 0.053912401200000015 0.12659220000000002
v -1.1888509247999999 0.06391796040000002 0.12659220000000002
v -0.8783283852 0.137933586 0.12659220000000002
v -0.8971324488 0.1447778304 0.12659220000000002
v -0.8911524888 0.1319536008 0.12659220000000002
v -1.0131762312 0.0032437188000000203 0.3297614796
v -1.0066488768000001 -0.00929544839999998 0.3297614796
v -1.0257153732 -0.00328383719999998 0.3297614796
v -1.0191879432000002 -0.015823004399999983 0.3297614796
v -0.833507892 -0.08650247759999999 0.12659220000000002
v -0.8335077912 -0.066491712 0.12659220000000002
v -0.843513426 -0.07649709479999998 0.12659220000000002
v -1.1409413904 -0.1619786952 0.12659220000000002
v -1.121612436 -0.1671580008 0.12659220000000002
v -1.1286873612 -0.1549038708 0.12659220000000002
v -1.0392127704 -0.01601087039999998 0.3070116504
v -1.0147073076 -0.033338768399999975 0.3243394476
v -1.0392127704 0.008494617600000021 0.3315169116
v -1.0147073076 0.0013171536000000177 0.28968360120000003
v -0.9902019456000001 -0.01601087039999998 0.3070116504
v -1.0147073076 0.025822490400000016 0.3141890892
v -0.9902019456000001 0.00849446640000002 0.3315169116
v -1.0122141708 0.0035463456000000486 0.7959521304
v -0.0007527996000000001 0.0056919744000000685 1.1168052588000001
v -1.0071231912 -0.0054479375999999516 0.7862878044
v 0.0043380792 -0.003302308799999932 1.1071409831999999
v -1.0070349408 -0.015782583599999952 0.7959524076
v 0.0044264052 -0.013636954799999932 1.1168052588000001
v 0.4083133572 -0.004418794799999954 0.7534849896
v 0.4169785032 0.005586613200000046 0.7584877692
v 0.0169545348 0.0053861724000000685 1.11976578
v 0.00828954 -0.004619537999999932 1.1147630508
v 0.4169783268 -0.014424328799999952 0.7584874668
v 0.016954459199999997 -0.01462492079999993 1.11976578
v -1.0161821376 0.0037158912000000203 0.32998167720000005
v -1.0161821376 -0.01629502559999998 0.32998167720000005
v -1.0066488768000001 -0.00929544839999998 0.3297614796
v -1.0257153732 -0.00328383719999998 0.3297614796
v -0.053364351600000005 -0.0003254075999999357 1.0506544020000002
v 0.0004775904 0.053516383200000066 1.0506544020000002
v 0.0532427112 0.0007512624000000644 1.0506544020000002
v -0.0005992308 -0.053090528399999934 1.0506544020000002
v -1.1200862736 -0.1453346244 -0.038393056799999985
v -0.8514138276 -0.07334397 -0.03839305679999999
v -1.1478448044 -0.181131552 0.125221446
v -0.8094758868 -0.09046583279999998 0.125221446
v -1.1747471652 0.05866222320000001 -0.038393208000000005
v -0.9060745932 0.1306528776 -0.038393208000000005
v -1.2166850052 0.075784212 0.125221446
v -0.8783162892 0.1664498052 0.125221446
v -1.0261875708000001 -0.00628964279999998 0.32998167720000005
v -1.0161821376 0.0037158912000000203 0.32998167720000005
v -1.0161821376 -0.01629502559999998 0.32998167720000005
v -1.0061766036000002 -0.00628964279999998 0.32998167720000005
v -1.0261875708000001 -0.006289642799999954 0.7587948059999999
v -1.0161821376 0.0037158912000000463 0.7587948059999999
v -1.0161821376 -0.016295025599999954 0.7587948059999999
v -1.0061766036000002 -0.006289642799999954 0.7587948059999999
v -1.2088618164 0.06391780920000001 0.12659220000000002
v -1.1988563832 0.07392334320000002 0.12659220000000002
v -1.1988564588000001 0.053912401200000015 0.12659220000000002
v -0.8843083704000001 0.1507576644 0.12659220000000002
v -0.8783283852 0.137933586 0.12659220000000002
v -0.8971324488 0.1447778304 0.12659220000000002
v -1.0131762312 0.0032437188000000203 0.3297614796
v -1.0066488768000001 -0.00929544839999998 0.3297614796
v -1.0257153732 -0.00328383719999998 0.3297614796
v -1.0191879432000002 -0.015823004399999983 0.3297614796
v -0.823502358 -0.07649709479999998 0.12659220000000002
v -0.833507892 -0.08650247759999999 0.12659220000000002
v -0.8335077912 -0.066491712 0.12659220000000002
v -1.1338664652 -0.1742328 0.12659220000000002
v -1.1409413904 -0.1619786952 0.12659220000000002
v -1.121612436 -0.1671580008 0.12659220000000002
v -1.0392127704 -0.01601087039999998 0.3070116504
v -1.0147073076 -0.033338768399999975 0.3243394476
v -1.0392127704 0.008494617600000021 0.3315169116
v -1.0147073076 -0.00883340639999998 0.348845112
v -0.9902019456000001 -0.01601087039999998 0.3070116504
v -1.0147073076 0.025822490400000016 0.3141890892
v -0.9902019456000001 0.00849446640000002 0.3315169116
v -1.0121258196 -0.006788476799999952 0.8056167336
v -1.0122141708 0.0035463456000000486 0.7959521304
v -0.0007528248000000001 0.0056919744000000685 1.1168052588000001
v -0.00066465 -0.004642999199999931 1.1264699124
v -1.0070349408 -0.015782583599999952 0.7959524076
v 0.0044264052 -0.013636954799999932 1.1168052588000001
v 0.4169784528 0.005586613200000046 0.7584877692
v 0.0169545096 0.0053861724000000685 1.11976578
v 0.4256434728 -0.004418794799999954 0.7634902464000001
v 0.0256195296 -0.004619386799999931 1.1247686099999998
v 0.4169782764 -0.014424328799999952 0.7584874668
v 0.016954434 -0.01462492079999993 1.11976578
v 0.0478547244 0.024113476800000023 0.3613635396
v 0.0478546488 -0.028871161199999978 0.3613635396
v 0.013796873999999999 0.024113476800000023 0.40195204560000003
v 0.0137967984 -0.028871161199999978 0.40195204560000003
v 0.4167897048 0.024113476800000044 0.7267880087999999
v 0.4167897048 -0.028871161199999953 0.7267880087999999
v 0.3827318796 0.024113476800000047 0.7673766912
v 0.3827318796 -0.028871161199999953 0.7673766912
v -0.968607108 0.034041067200000046 0.7411192992
v -0.9686073096000001 -0.030620444399999957 0.7411192992
v -0.968607108 0.034041067200000046 0.805780836
v -0.968607108 -0.030620444399999953 0.805780836
v 0.1675093392 0.04216151520000005 0.7329988764
v 0.1675093392 -0.038741043599999955 0.7329988764
v 0.1675093392 0.04216151520000005 0.8139012336
v 0.1675093392 -0.03874104359999995 0.8139012336
v -0.013124941200000002 0.018153928800000003 0.0696284064
v -0.013124941200000002 -0.022911461999999994 0.0696284064
v -0.054034092000000006 0.018153928800000003 0.0660493008
v -0.054034092000000006 -0.022911461999999997 0.0660493008
v -0.2241526644 0.018153928800000045 0.7525315727999999
v -0.2241526644 -0.022911461999999955 0.7525315727999999
v -0.26506184039999997 0.018153928800000045 0.7489527192
v -0.26506179 -0.022911461999999955 0.7489527192
v -0.0142850988 0.018153928800000003 0.07486143840000001
v -0.0142850988 -0.022911461999999994 0.07486143840000001
v -0.052873934399999996 0.018153928800000003 0.060816268799999997
v -0.052873934399999996 -0.022911461999999997 0.060816268799999997
v -0.428685264 0.018153928800000045 0.7533669528
v -0.4286853144 -0.022911461999999955 0.7533669528
v -0.4672741248 0.018153928800000045 0.739321758
v -0.4672741248 -0.022911461999999955 0.739321758
v -1.0066488768000001 -0.00929544839999998 0.3297614796
v -1.0257153732 -0.00328383719999998 0.3297614796
v -0.0745453044 -0.0005394564000000003 -0.0039639348
v -0.0008132292 -0.07427153160000001 -0.003963934799999995
v 0.0744236388 0.0009653363999999998 -0.0039639348
v 0.0006915636 0.07469738640000001 -0.003963934800000005
v -0.8437945320000001 -0.07645455719999998 0.125221446
v -1.125129474 -0.1518381144 0.125221446
v -1.1141944632 -0.1377364716 0.032833382400000014
v -0.8603154756 -0.069709752 0.03283338240000001
v -1.125129474 -0.1518381144 0.125221446
v -1.1823664608 0.061773087600000005 0.125221446
v -1.1658455928 0.055028131200000004 0.0328333824
v -1.1141944632 -0.1377364716 0.032833382400000014
v -1.1823664608 0.061773087600000005 0.125221446
v -0.9010315944000001 0.1371566448 0.125221446
v -0.9119665296000001 0.12305469960000001 0.0328333824
v -1.1658455928 0.055028131200000004 0.0328333824
v -0.9010315944000001 0.1371566448 0.125221446
v -0.8437945320000001 -0.07645455719999998 0.125221446
v -0.8603154756 -0.069709752 0.03283338240000001
v -0.9119665296000001 0.12305469960000001 0.0328333824
v -1.0061766036000002 -0.00628964279999998 0.32998167720000005
v -1.1888509247999999 0.06391796040000002 0.12659220000000002
v -1.0191879432000002 -0.015823004399999983 0.3297614796
v -0.8911524888 0.1319536008 0.12659220000000002
v -1.0261875708000001 -0.00628964279999998 0.32998167720000005
v -0.843513426 -0.07649709479999998 0.12659220000000002
v -1.0131762312 0.0032437188000000203 0.3297614796
v -1.1286873612 -0.1549038708 0.12659220000000002
v -0.9902019456000001 -0.01601087039999998 0.3070116504
v -1.0147073076 0.0013171536000000177 0.28968360120000003
v -1.0147073076 0.0013171536000000177 0.28968360120000003
v -1.0147073076 0.025822490400000016 0.3141890892
v -1.0392127704 -0.01601087039999998 0.3070116504
v 0.0043380792 -0.003302308799999932 1.1071409831999999
v -1.0071231912 -0.0054479375999999516 0.7862878044
v 0.00828954 -0.004619537999999932 1.1147630508
v 0.4083133572 -0.004418794799999954 0.7534849896
v 0.0004775904 0.053516383200000066 1.0506544020000002
v -0.053364351600000005 -0.0003254075999999357 1.0506544020000002
v 0.0006915636 0.07469738640000001 -0.003963934800000005
v 0.0532427112 0.0007512624000000644 1.0506544020000002
v 0.0004775904 0.053516383200000066 1.0506544020000002
v 0.0744236388 0.0009653363999999998 -0.0039639348
v -0.0005992308 -0.053090528399999934 1.0506544020000002
v 0.0532427112 0.0007512624000000644 1.0506544020000002
v -0.0008132292 -0.07427153160000001 -0.003963934799999995
v -0.0745453044 -0.0005394564000000003 -0.0039639348
v -0.053364351600000005 -0.0003254075999999357 1.0506544020000002
v -0.0005992308 -0.053090528399999934 1.0506544020000002
v -0.8783162892 0.1664498052 0.125221446
v -0.9060745932 0.1306528776 -0.038393208000000005
v -0.8514138276 -0.07334397 -0.03839305679999999
v -0.8094758868 -0.09046583279999998 0.125221446
v -1.1747471652 0.05866222320000001 -0.038393208000000005
v -1.2166850052 0.075784212 0.125221446
v -1.1478448044 -0.181131552 0.125221446
v -1.1200862736 -0.1453346244 -0.038393056799999985
v -1.0161821376 0.0037158912000000463 0.7587948059999999
v -1.0161821376 0.0037158912000000203 0.32998167720000005
v -1.0061766036000002 -0.006289642799999954 0.7587948059999999
v -1.0061766036000002 -0.00628964279999998 0.32998167720000005
v -1.0261875708000001 -0.006289642799999954 0.7587948059999999
v -1.0161821376 -0.016295025599999954 0.7587948059999999
v -1.0161821376 -0.01629502559999998 0.32998167720000005
v -1.0261875708000001 -0.00628964279999998 0.32998167720000005
v -1.0161821376 0.0037158912000000203 0.32998167720000005
v -1.0261875708000001 -0.00628964279999998 0.32998167720000005
v -1.0261875708000001 -0.00628964279999998 0.32998167720000005
v -1.0161821376 -0.01629502559999998 0.32998167720000005
v -1.2088618164 0.06391780920000001 0.12659220000000002
v -1.0131762312 0.0032437188000000203 0.3297614796
v -0.8843083704000001 0.1507576644 0.12659220000000002
v -1.0161821376 -0.01629502559999998 0.32998167720000005
v -1.0061766036000002 -0.00628964279999998 0.32998167720000005
v -1.0061766036000002 -0.00628964279999998 0.32998167720000005
v -1.0161821376 0.0037158912000000203 0.32998167720000005
v -0.823502358 -0.07649709479999998 0.12659220000000002
v -1.0191879432000002 -0.015823004399999983 0.3297614796
v -1.1338664652 -0.1742328 0.12659220000000002
v -1.0147073076 -0.033338768399999975 0.3243394476
v -1.0147073076 -0.00883340639999998 0.348845112
v -0.9902019456000001 0.00849446640000002 0.3315169116
v -1.0147073076 -0.00883340639999998 0.348845112
v -1.0392127704 0.008494617600000021 0.3315169116
v -0.00066465 -0.004642999199999931 1.1264699124
v -1.0121258196 -0.006788476799999952 0.8056167336
v 0.0256195296 -0.004619386799999931 1.1247686099999998
v 0.4256434728 -0.004418794799999954 0.7634902464000001
v 0.4167897048 -0.028871161199999953 0.7267880087999999
v 0.4167897048 0.024113476800000044 0.7267880087999999
v 0.0478546488 -0.028871161199999978 0.3613635396
v 0.3827318796 -0.028871161199999953 0.7673766912
v 0.4167897048 -0.028871161199999953 0.7267880087999999
v 0.0137967984 -0.028871161199999978 0.40195204560000003
v 0.3827318796 0.024113476800000047 0.7673766912
v 0.3827318796 -0.028871161199999953 0.7673766912
v 0.013796873999999999 0.024113476800000023 0.40195204560000003
v 0.0478547244 0.024113476800000023 0.3613635396
v 0.4167897048 0.024113476800000044 0.7267880087999999
v 0.3827318796 0.024113476800000047 0.7673766912
v -0.9686073096000001 -0.030620444399999957 0.7411192992
v -0.968607108 -0.030620444399999953 0.805780836
v 0.1675093392 -0.03874104359999995 0.8139012336
v 0.1675093392 -0.038741043599999955 0.7329988764
v -0.968607108 -0.030620444399999953 0.805780836
v -0.968607108 0.034041067200000046 0.805780836
v 0.1675093392 0.04216151520000005 0.8139012336
v 0.1675093392 -0.03874104359999995 0.8139012336
v -0.968607108 0.034041067200000046 0.805780836
v -0.968607108 0.034041067200000046 0.7411192992
v 0.1675093392 0.04216151520000005 0.7329988764
v 0.1675093392 0.04216151520000005 0.8139012336
v -0.013124941200000002 -0.022911461999999994 0.0696284064
v -0.2241526644 -0.022911461999999955 0.7525315727999999
v -0.054034092000000006 -0.022911461999999997 0.0660493008
v -0.26506179 -0.022911461999999955 0.7489527192
v -0.054034092000000006 0.018153928800000003 0.0660493008
v -0.013124941200000002 0.018153928800000003 0.0696284064
v -0.2241526644 0.018153928800000045 0.7525315727999999
v -0.26506184039999997 0.018153928800000045 0.7489527192
v -0.0142850988 -0.022911461999999994 0.07486143840000001
v -0.4286853144 -0.022911461999999955 0.7533669528
v -0.052873934399999996 -0.022911461999999997 0.060816268799999997
v -0.4672741248 -0.022911461999999955 0.739321758
v -0.052873934399999996 0.018153928800000003 0.060816268799999997
v -0.0142850988 0.018153928800000003 0.07486143840000001
v -0.428685264 0.018153928800000045 0.7533669528
v -0.4672741248 0.018153928800000045 0.739321758
vt -0.249485 0.877342
vt -0.249599 0.871402
vt -0.228740 0.877323
vt -0.228854 0.871384
vt -0.247841 0.871901
vt -0.247746 0.876840
vt -0.230498 0.876824
vt -0.230592 0.871886
vt 0.258420 0.304801
vt 0.258659 0.362290
vt 0.302287 0.362108
vt 0.302048 0.304619
vt 0.980155 1.656892
vt 0.983154 1.657159
vt 0.981403 1.657443
vt 0.982375 1.657662
vt 0.983055 1.641429
vt 0.981303 1.641714
vt 0.982275 1.641932
vt 0.976670 1.656647
vt 0.978262 1.657283
vt 0.977681 1.656637
vt 0.976754 1.658004
vt 0.989229 1.644366
vt 0.990842 1.644975
vt 0.990238 1.644343
vt 0.983374 1.640846
vt 0.981591 1.640961
vt 0.982521 1.641271
vt 0.987337 1.644017
vt 0.985624 1.643613
vt 0.986344 1.644167
vt 0.892260 0.917864
vt 0.888288 0.923699
vt 0.896231 0.912028
vt 0.907457 0.920287
vt 0.911429 0.914451
vt 0.901844 0.916157
vt 0.905816 0.910321
vt 0.986351 0.633911
vt 0.986744 0.658117
vt 0.984602 0.633937
vt 0.984805 0.658134
vt 0.982077 0.633976
vt 0.983182 0.658202
vt 0.982630 1.663981
vt 0.983735 1.664006
vt 0.983329 1.632740
vt 0.982305 1.632715
vt 0.981555 1.663979
vt 0.981372 1.632805
vt 0.979224 1.656583
vt 0.981007 1.656468
vt 0.976056 1.657434
vt 0.977748 1.657865
vt 0.529910 0.124202
vt 0.545016 0.124471
vt 0.545270 0.109080
vt 0.530164 0.108811
vt 0.902858 0.952348
vt 0.945269 0.913367
vt 0.916643 0.977280
vt 0.967432 0.929949
vt 0.862501 0.966440
vt 0.807317 0.966762
vt 0.868559 0.995162
vt 0.801243 0.995316
vt 0.981601 1.637823
vt 0.980594 1.637751
vt 0.982609 1.637894
vt 0.979586 1.637680
vt 0.978824 1.661622
vt 0.977817 1.661551
vt 0.979832 1.661694
vt 0.976810 1.661479
vt 0.980518 1.641217
vt 0.979548 1.641443
vt 0.981303 1.641714
vt 0.975733 1.656349
vt 0.976670 1.656647
vt 0.975522 1.655578
vt 0.988305 1.644047
vt 0.989229 1.644366
vt 0.988110 1.643275
vt 0.975657 1.656711
vt 0.984371 1.640714
vt 0.983374 1.640846
vt 0.985073 1.641282
vt 0.985240 1.642884
vt 0.984250 1.642721
vt 0.985624 1.643613
vt 0.892260 0.917864
vt 0.886645 0.913736
vt 0.896230 0.912026
vt 0.890615 0.907899
vt 0.911429 0.914451
vt 0.901844 0.916157
vt 0.905816 0.910321
vt 0.980430 0.633936
vt 0.979103 0.633986
vt 0.978433 0.658193
vt 0.980054 0.658263
vt 0.982077 0.633976
vt 0.983182 0.658202
vt 0.979213 1.663843
vt 0.979405 1.632611
vt 0.980247 1.664021
vt 0.980354 1.632793
vt 0.981555 1.663979
vt 0.981372 1.632805
vt 0.653518 0.083107
vt 0.653518 0.072177
vt 0.653519 0.107575
vt 0.653330 0.073502
vt 0.551167 0.095325
vt 0.551167 0.084395
vt 0.540654 0.095325
vt 0.540654 0.084395
vt 0.318055 0.093565
vt 0.318055 0.106904
vt 0.305225 0.093565
vt 0.305225 0.106905
vt 0.079847 0.078057
vt 0.063795 0.078057
vt 0.079803 0.093673
vt 0.063795 0.094746
vt 0.761162 0.282259
vt 0.764300 0.277142
vt 0.765297 0.277773
vt 0.775959 0.263552
vt 0.655760 0.192408
vt 0.659166 0.187024
vt 0.657418 0.186871
vt 0.667541 0.172982
vt 0.813509 0.108792
vt 0.813509 0.102792
vt 0.812547 0.084665
vt 0.813618 0.102348
vt 0.656094 0.108792
vt 0.656094 0.102792
vt 0.654803 0.084665
vt 0.655874 0.102348
vt 0.976056 1.657434
vt 0.974663 1.656570
vt 0.320623 0.123532
vt 0.319949 0.120402
vt 0.321183 0.133997
vt 0.321430 0.145697
vt 0.977035 0.567874
vt 0.967378 0.508564
vt 0.952265 0.514529
vt 0.960611 0.568051
vt 0.967378 0.508564
vt 0.950419 0.468473
vt 0.935856 0.477062
vt 0.952265 0.514529
vt 0.951172 0.667573
vt 0.972401 0.612627
vt 0.956429 0.608989
vt 0.937456 0.659494
vt 0.972401 0.612627
vt 0.977035 0.567874
vt 0.960611 0.568051
vt 0.956429 0.608989
vt 0.982375 1.657662
vt 0.982275 1.641932
vt 0.990238 1.644343
vt 0.977681 1.656637
vt 0.980155 1.656892
vt 0.982521 1.641271
vt 0.976754 1.658004
vt 0.986344 1.644167
vt 0.893901 0.927829
vt 0.897873 0.921993
vt 0.897873 0.921993
vt 0.901844 0.916157
vt 0.892260 0.917864
vt 0.984805 0.658134
vt 0.984602 0.633937
vt 0.982305 1.632715
vt 0.982630 1.663981
vt 0.531211 0.138335
vt 0.529910 0.124202
vt 0.320706 0.111014
vt 0.530491 0.131044
vt 0.530564 0.115652
vt 0.319683 0.098456
vt 0.529188 0.115491
vt 0.529119 0.098082
vt 0.320977 0.102024
vt 0.320623 0.123532
vt 0.529910 0.124202
vt 0.530164 0.108811
vt 0.916569 0.977228
vt 0.903272 0.951761
vt 0.861740 0.967332
vt 0.865687 0.994728
vt 0.862501 0.966440
vt 0.868559 0.995162
vt 0.916643 0.977280
vt 0.902858 0.952348
vt 0.977817 1.661551
vt 0.980594 1.637751
vt 0.980839 1.661765
vt 0.983616 1.637965
vt 0.978824 1.661622
vt 0.979832 1.661694
vt 0.982609 1.637894
vt 0.981601 1.637823
vt 0.979648 1.657173
vt 0.980617 1.656947
vt 0.980617 1.656947
vt 0.981403 1.657443
vt 0.980518 1.641217
vt 0.988305 1.644047
vt 0.975733 1.656349
vt 0.981007 1.656468
vt 0.982005 1.656336
vt 0.982005 1.656336
vt 0.982707 1.656903
vt 0.984371 1.640714
vt 0.975657 1.656711
vt 0.985240 1.642884
vt 0.915401 0.908615
vt 0.909788 0.904486
vt 0.905816 0.910321
vt 0.900203 0.906192
vt 0.896231 0.912028
vt 0.980054 0.658263
vt 0.980430 0.633936
vt 0.980354 1.632793
vt 0.980247 1.664021
vt 0.550488 0.072177
vt 0.550488 0.083107
vt 0.654197 0.082585
vt 0.550301 0.073502
vt 0.551167 0.082585
vt 0.653375 0.118505
vt 0.550500 0.106104
vt 0.550355 0.117033
vt 0.653519 0.107575
vt 0.654197 0.095325
vt 0.551167 0.095325
vt 0.550500 0.106104
vt 0.305408 0.120383
vt 0.305225 0.106905
vt 0.079985 0.107689
vt 0.079985 0.122060
vt 0.305225 0.106905
vt 0.305225 0.093565
vt 0.079803 0.093673
vt 0.079985 0.107689
vt 0.305225 0.093565
vt 0.305269 0.079735
vt 0.079847 0.078057
vt 0.079803 0.093673
vt 0.772283 0.270856
vt 0.663866 0.180287
vt 0.762253 0.281962
vt 0.654453 0.191083
vt 0.760877 0.282318
vt 0.764255 0.277650
vt 0.658226 0.187039
vt 0.653531 0.191347
vt 0.815231 0.110652
vt 0.657486 0.110652
vt 0.812547 0.093137
vt 0.654803 0.093137
vt 0.813618 0.093877
vt 0.815231 0.085573
vt 0.657486 0.085573
vt 0.655874 0.093877
vn 0 6.123233995736766E-17 1
vn 0 6.123233995736766E-17 1
vn 0 6.123233995736766E-17 1
vn 0 6.123233995736766E-17 1
vn 0 6.123233995736766E-17 1
vn 0 6.123233995736766E-17 1
vn 0 6.123233995736766E-17 1
vn 0 6.123233995736766E-17 1
vn 0 6.123233995736766E-17 1
vn 0 6.123233995736766E-17 1
vn 0 6.123233995736766E-17 1
vn 0 6.123233995736766E-17 1
vn -0.658554 -0.658558 -0.3641539999999999
vn 0.658555 0.658555 -0.36415600000000004
vn 0.531052 -0.531054 -0.660277
vn 0.658555 0.658555 -0.36415600000000004
vn 0.658555 0.658555 -0.36415600000000004
vn 0.531054 -0.53105 -0.660278
vn 0.658555 0.658555 -0.36415600000000004
vn 0.41467 -0.840543 -0.34861999999999993
vn -0.679847 -0.31701500000000005 -0.661294
vn 0.39335 -0.843541 -0.36566899999999997
vn -0.44511 0.811022 -0.3796320000000001
vn 0.435676 -0.836912 -0.33130799999999994
vn -0.67052 -0.33060000000000006 -0.664159
vn 0.41467 -0.840543 -0.34861999999999993
vn -0.658554 -0.658558 -0.3641539999999999
vn -0.531048 0.53106 -0.660276
vn -0.658554 -0.658558 -0.3641539999999999
vn -0.44511 0.811022 -0.3796320000000001
vn 0.650608 0.37562799999999996 -0.66001
vn -0.465849 0.80688 -0.36322100000000007
vn 0 -0.707106 -0.707108
vn 0 -0.707105 -0.707108
vn -0.707107 0.49999999999999994 -0.5
vn 0.707108 0.49999899999999997 -0.49999800000000005
vn 0.70711 0.49999699999999997 -0.4999990000000001
vn 0.707107 0.500001 -0.49999800000000005
vn 0.707108 0.49999899999999997 -0.49999800000000005
vn 0.192587 0.766858 -0.612241
vn 0.192587 0.766858 -0.612241
vn 0.192587 0.766859 -0.61224
vn 0.192587 0.766858 -0.612241
vn 0.22734 -0.664112 -0.71223
vn 0.227342 -0.664105 -0.712236
vn -0.485727 0.689371 -0.537436
vn -0.485722 0.689378 -0.537431
vn -0.485727 0.689371 -0.537436
vn -0.485731 0.689363 -0.537441
vn -0.485402 -0.689283 -0.537842
vn -0.485398 -0.68929 -0.537837
vn -0.531051 0.531055 -0.660277
vn -0.658554 -0.658558 -0.3641539999999999
vn 0.66104 0.36258699999999994 -0.65693
vn -0.424052 0.814583 -0.39577000000000007
vn 0 6.123233995736766E-17 1
vn 0 6.123233995736766E-17 1
vn 0 6.123233995736766E-17 1
vn 0 6.123233995736766E-17 1
vn 0.255266 -0.952666 -0.16512399999999994
vn 0.255266 -0.952666 -0.16512399999999994
vn 0.255266 -0.952666 -0.16512399999999994
vn 0.255266 -0.952666 -0.16512399999999994
vn -0.255266 0.952666 -0.16512500000000005
vn -0.255266 0.952666 -0.16512400000000005
vn -0.255266 0.952666 -0.16512500000000005
vn -0.255266 0.952666 -0.16512500000000005
vn -0.687582 0.687577 0.23338399999999995
vn -0.625353 0.625349 0.46676799999999996
vn 0.707101 -0.707112 4.329812237193416E-17
vn 0.707107 0.707107 -4.329781621023438E-17
vn -0.707109 0.707104 -4.32976325132145E-17
vn -0.707109 0.707104 -4.32976325132145E-17
vn 0.707101 -0.707112 4.329812237193416E-17
vn 0.707107 0.707107 -4.329781621023438E-17
vn -0.531054 0.53105 0.660278
vn -0.531054 0.53105 0.660278
vn -0.658554 -0.658557 0.36415500000000006
vn 0.670515 0.33057300000000006 0.664177
vn 0.680825 0.31747400000000003 0.660066
vn -0.414633 0.840524 0.34870999999999996
vn 0.660008 0.34357400000000005 0.668092
vn 0.670515 0.33057300000000006 0.664177
vn -0.435261 0.836115 0.33385599999999993
vn -0.67229 -0.34996799999999995 0.652341
vn 0.531049 -0.531057 0.660276
vn 0.531049 -0.531057 0.660276
vn 0.658555 0.658555 0.3641559999999999
vn -0.66104 -0.36255899999999996 0.656946
vn -0.649587 -0.3750379999999999 0.66135
vn 0.445074 -0.811002 0.3797150000000001
vn -0.707107 -0.49999999999999994 0.4999990000000001
vn -0.707105 -0.500005 0.49999800000000005
vn -0.70711 -0.49999499999999997 0.5
vn -0.707107 -0.49999999999999994 0.4999990000000001
vn 0.707106 -0.49999999999999994 0.500001
vn 2E-06 0.707108 0.707106
vn 0.707108 -0.49999999999999994 0.49999800000000005
vn -0.227343 0.664103 0.712237
vn -0.227342 0.664105 0.712236
vn -0.227343 0.664103 0.712237
vn -0.227343 0.664102 0.712239
vn -0.192582 -0.766871 0.612226
vn -0.192579 -0.766878 0.612218
vn 0.485401 0.689284 0.537841
vn 0.4854 0.689286 0.53784
vn 0.485402 0.689283 0.537842
vn 0.485401 0.689284 0.537841
vn 0.485725 -0.689374 0.537434
vn 0.485726 -0.689372 0.537435
vn 0.703718 -1.0000000000435042E-06 -0.710479
vn 0.703718 -1.0000000000435042E-06 -0.710479
vn -0.703719 1.0000000000435042E-06 0.710479
vn 0 -1 6.123233995736766E-17
vn 0.766045 3.9359352104176486E-17 0.642787
vn 0.766045 3.9359352104176486E-17 0.642787
vn 0.766045 3.9359352104176486E-17 0.642787
vn 0.766045 3.9359352104176486E-17 0.642787
vn -1 1E-06 1E-06
vn -1 2E-06 2E-06
vn -1 0 0
vn -1 1E-06 1E-06
vn 1 0 0
vn 1 0 0
vn 1 0 0
vn 1 0 0
vn 0.955423 1.8078297281353183E-17 0.295241
vn 0.955423 1.8078297281353183E-17 0.295241
vn -0.955423 -1.807823604901323E-17 -0.29524
vn 0 -1 6.123233995736766E-17
vn 0.955423 1.8078297281353183E-17 0.295241
vn 0.955423 1.8078297281353183E-17 0.295241
vn -0.955423 -1.807823604901323E-17 -0.29524
vn 0 -1 6.123233995736766E-17
vn 0.853417 3.1916010091298835E-17 0.521228
vn 0.853417 3.1916010091298835E-17 0.521228
vn -0.853417 -3.1916010091298835E-17 -0.521228
vn 0 -1 6.123233995736766E-17
vn 0.853417 -9.99999999968084E-07 0.521228
vn 0.853417 3.1916010091298835E-17 0.521228
vn -0.853417 -3.1916010091298835E-17 -0.521228
vn 0 -1 6.123233995736766E-17
vn 0.42452 -0.815481 0.39341400000000004
vn -0.66104 -0.36255899999999996 0.656946
vn -0.707037 0.707037 0.014056999999999957
vn 0.707037 -0.707037 0.014057000000000043
vn 0.707034 0.707034 0.014343999999999957
vn -0.707037 0.707037 0.014056999999999957
vn -0.257072 0.959404 0.11601199999999995
vn -0.257072 0.959404 0.11601199999999995
vn -0.257072 0.959404 0.11601199999999995
vn -0.257072 0.959404 0.11601099999999995
vn 0.954696 0.25581 0.15204399999999998
vn 0.954696 0.25581 0.15204399999999998
vn 0.954696 0.25581 0.15204399999999998
vn 0.954696 0.25581 0.15204299999999998
vn 0.257072 -0.959403 0.11601500000000005
vn 0.257072 -0.959403 0.11601500000000005
vn 0.257072 -0.959403 0.11601500000000005
vn 0.257071 -0.959404 0.11601300000000006
vn -0.954696 -0.25581 0.15204400000000004
vn -0.954696 -0.25581 0.15204400000000004
vn -0.954696 -0.25581 0.15204400000000004
vn -0.954696 -0.25581 0.15204400000000004
vn 0.531049 -0.531057 -0.660277
vn 0.531052 -0.531054 -0.660277
vn -0.661005 -0.34409300000000004 -0.666838
vn -0.67052 -0.33060000000000006 -0.664159
vn -0.531054 0.53105 -0.660278
vn -0.531051 0.531055 -0.660277
vn 0.671281 0.3494419999999999 -0.653661
vn 0.66104 0.36258699999999994 -0.65693
vn 0 -0.707106 -0.707108
vn 0 -0.707107 -0.707107
vn -0.707107 0.49999999999999994 -0.5
vn -0.707105 0.500003 -0.5
vn -0.707108 0.49999599999999994 -0.500001
vn 0.227344 -0.664099 -0.712241
vn 0.227342 -0.664105 -0.712236
vn -0.485402 -0.689283 -0.537842
vn -0.485406 -0.689276 -0.537847
vn -0.707037 0.707037 0.014056999999999957
vn -0.707036 0.707038 0.014056999999999957
vn 0.707034 0.707034 0.014343999999999957
vn 0.707034 0.707034 0.014343999999999957
vn 0.707034 0.707034 0.014343999999999957
vn 0.707037 -0.707037 0.014057000000000043
vn 0.707037 -0.707037 0.014057000000000043
vn 0.707036 -0.707038 0.014057000000000043
vn -0.707034 -0.707034 0.014344000000000044
vn -0.707034 -0.707034 0.014344000000000044
vn -0.707034 -0.707034 0.014344000000000044
vn -0.707034 -0.707034 0.014344000000000044
vn 0.943267 0.252748 -0.21533000000000002
vn 0.943267 0.252747 -0.21532900000000002
vn 0.943267 0.252748 -0.21533000000000002
vn 0.943266 0.252748 -0.21533000000000002
vn -0.943267 -0.252748 -0.21532999999999997
vn -0.943267 -0.252747 -0.21532899999999996
vn -0.943267 -0.252748 -0.21532999999999997
vn -0.943266 -0.252748 -0.21533099999999997
vn 0.707107 0.707107 -4.329781621023438E-17
vn 0.707107 0.707107 -4.329781621023438E-17
vn 0.707101 -0.707112 4.329812237193416E-17
vn 0.707101 -0.707112 4.329812237193416E-17
vn -0.707104 -0.707109 4.329793867491429E-17
vn -0.707104 -0.707109 4.329793867491429E-17
vn -0.70171 -0.701716 0.12328000000000004
vn -0.685275 -0.685278 0.24656100000000006
vn -0.625353 0.625349 0.46676799999999996
vn -0.687582 0.687577 0.23338399999999995
vn -0.685275 -0.685278 0.24656100000000006
vn -0.70171 -0.701716 0.12328000000000004
vn -0.658555 -0.658555 0.36415600000000004
vn -0.414633 0.840524 0.34870999999999996
vn -0.393729 0.844374 0.36333199999999993
vn 0.531049 -0.531057 0.660276
vn 0.531049 -0.531057 0.660276
vn 0.658555 0.658555 0.3641559999999999
vn 0.658555 0.658555 0.3641559999999999
vn 0.658555 0.658555 0.3641559999999999
vn 0.445074 -0.811002 0.3797150000000001
vn 0.465349 -0.806013 0.36577800000000005
vn 0.707108 -0.49999999999999994 0.49999800000000005
vn 0.70711 -0.500001 0.4999950000000001
vn 8E-06 0.707108 0.707106
vn 2E-06 0.707108 0.707106
vn -3E-06 0.707108 0.707106
vn -0.192582 -0.766871 0.612226
vn -0.192585 -0.766863 0.612235
vn 0.485727 -0.689371 0.537436
vn 0.485726 -0.689372 0.537435
vn 0.703718 -1.0000000000435042E-06 -0.710479
vn 0.703719 -4.3504291660570617E-17 -0.710479
vn 0 -1 6.123233995736766E-17
vn 0 -1 6.123233995736766E-17
vn 0 -1 6.123233995736766E-17
vn -0.703719 1.0000000000435042E-06 0.710479
vn -0.703719 1.0000000000435042E-06 0.710479
vn -0.703719 4.3504291660570617E-17 0.710479
vn 0 1 -6.123233995736766E-17
vn 0 1 -6.123233995736766E-17
vn 0 1 -6.123233995736766E-17
vn 0 1 -6.123233995736766E-17
vn -0.007148 -0.999974 6.123074791652878E-17
vn -0.007148 -0.999974 6.123074791652878E-17
vn -0.007148 -0.999974 6.123074791652878E-17
vn -0.007148 -0.999974 6.123074791652878E-17
vn -0.007147 6.123074791652878E-17 0.999974
vn -0.007147 6.123074791652878E-17 0.999974
vn -0.007147 6.123074791652878E-17 0.999974
vn -0.007147 6.123074791652878E-17 0.999974
vn -0.007147 0.999974 -6.123074791652878E-17
vn -0.007147 0.999974 -6.123074791652878E-17
vn -0.007147 0.999974 -6.123074791652878E-17
vn -0.007147 0.999974 -6.123074791652878E-17
vn 0 -1 6.123233995736766E-17
vn 0 -1 6.123233995736766E-17
vn -0.955423 -1.807823604901323E-17 -0.29524
vn -0.955423 -1.0000000000180782E-06 -0.29524
vn 0 1 -6.123233995736766E-17
vn 0 1 -6.123233995736766E-17
vn 0 1 -6.123233995736766E-17
vn 0 1 -6.123233995736766E-17
vn 0 -1 6.123233995736766E-17
vn 0 -1 6.123233995736766E-17
vn -0.853417 -3.1916010091298835E-17 -0.521228
vn -0.853417 -3.1916010091298835E-17 -0.521228
vn 0 1 -6.123233995736766E-17
vn 0 1 -6.123233995736766E-17
vn 0 1 -6.123233995736766E-17
vn 0 1 -6.123233995736766E-17
g 01
f 269/269/269 272/272/272 271/271/271
f 271/271/271 270/270/270 269/269/269
f 267/267/267 268/268/268 141/141/141
f 141/141/141 137/137/137 267/267/267
f 265/265/265 266/266/266 142/142/142
f 142/142/142 138/138/138 265/265/265
f 135/135/135 139/139/139 140/140/140
f 140/140/140 136/136/136 135/135/135
f 261/261/261 264/264/264 263/263/263
f 263/263/263 262/262/262 261/261/261
f 259/259/259 260/260/260 133/133/133
f 133/133/133 129/129/129 259/259/259
f 257/257/257 258/258/258 134/134/134
f 134/134/134 130/130/130 257/257/257
f 127/127/127 131/131/131 132/132/132
f 132/132/132 128/128/128 127/127/127
f 253/253/253 256/256/256 255/255/255
f 255/255/255 254/254/254 253/253/253
f 249/249/249 252/252/252 251/251/251
f 251/251/251 250/250/250 249/249/249
f 245/245/245 248/248/248 247/247/247
f 247/247/247 246/246/246 245/245/245
f 123/123/123 125/125/125 126/126/126
f 126/126/126 124/124/124 123/123/123
f 119/119/119 120/120/120 122/122/122
f 122/122/122 121/121/121 119/119/119
f 241/241/241 244/244/244 243/243/243
f 243/243/243 242/242/242 241/241/241
f 238/238/238 240/240/240 239/239/239
f 239/239/239 113/113/113 238/238/238
f 235/235/235 237/237/237 236/236/236
f 236/236/236 114/114/114 235/235/235
f 111/111/111 234/234/234 233/233/233
f 233/233/233 112/112/112 111/111/111
f 115/115/115 117/117/117 118/118/118
f 118/118/118 116/116/116 115/115/115
f 110/110/110 109/109/109 232/232/232
f 232/232/232 231/231/231 110/110/110
f 108/108/108 107/107/107 105/105/105
f 105/105/105 106/106/106 108/108/108
f 229/229/229 230/230/230 103/103/103
f 103/103/103 104/104/104 229/229/229
f 101/101/101 100/100/100 99/99/99
f 99/99/99 102/102/102 101/101/101
f 97/97/97 228/228/228 227/227/227
f 227/227/227 226/226/226 97/97/97
f 98/98/98 225/225/225 224/224/224
f 224/224/224 96/96/96 98/98/98
f 95/95/95 94/94/94 92/92/92
f 92/92/92 93/93/93 95/95/95
f 222/222/222 223/223/223 91/91/91
f 91/91/91 143/143/143 222/222/222
f 144/144/144 90/90/90 89/89/89
f 89/89/89 85/85/85 144/144/144
f 219/219/219 221/221/221 88/88/88
f 88/88/88 220/220/220 219/219/219
f 217/217/217 87/87/87 86/86/86
f 86/86/86 218/218/218 217/217/217
f 215/215/215 216/216/216 81/81/81
f 81/81/81 84/84/84 215/215/215
f 83/83/83 80/80/80 79/79/79
f 79/79/79 82/82/82 83/83/83
f 212/212/212 214/214/214 78/78/78
f 78/78/78 213/213/213 212/212/212
f 210/210/210 77/77/77 76/76/76
f 76/76/76 211/211/211 210/210/210
f 206/206/206 209/209/209 208/208/208
f 208/208/208 207/207/207 206/206/206
f 74/74/74 70/70/70 205/205/205
f 205/205/205 204/204/204 74/74/74
f 75/75/75 71/71/71 203/203/203
f 203/203/203 202/202/202 75/75/75
f 73/73/73 69/69/69 68/68/68
f 68/68/68 72/72/72 73/73/73
f 198/198/198 201/201/201 200/200/200
f 200/200/200 199/199/199 198/198/198
f 194/194/194 197/197/197 196/196/196
f 196/196/196 195/195/195 194/194/194
f 67/67/67 65/65/65 64/64/64
f 64/64/64 66/66/66 67/67/67
f 63/63/63 62/62/62 60/60/60
f 60/60/60 61/61/61 63/63/63
f 190/190/190 193/193/193 192/192/192
f 192/192/192 191/191/191 190/190/190
f 187/187/187 189/189/189 188/188/188
f 188/188/188 146/146/146 187/187/187
f 184/184/184 186/186/186 185/185/185
f 185/185/185 147/147/147 184/184/184
f 145/145/145 183/183/183 182/182/182
f 182/182/182 148/148/148 145/145/145
f 59/59/59 58/58/58 57/57/57
f 57/57/57 56/56/56 59/59/59
f 180/180/180 181/181/181 50/50/50
f 50/50/50 51/51/51 180/180/180
f 48/48/48 47/47/47 46/46/46
f 46/46/46 49/49/49 48/48/48
f 45/45/45 44/44/44 179/179/179
f 179/179/179 178/178/178 45/45/45
f 43/43/43 42/42/42 40/40/40
f 40/40/40 41/41/41 43/43/43
f 175/175/175 177/177/177 35/35/35
f 35/35/35 176/176/176 175/175/175
f 173/173/173 34/34/34 33/33/33
f 33/33/33 174/174/174 173/173/173
f 39/39/39 37/37/37 36/36/36
f 36/36/36 38/38/38 39/39/39
f 54/54/54 31/31/31 172/172/172
f 172/172/172 171/171/171 54/54/54
f 23/23/23 32/32/32 30/30/30
f 30/30/30 55/55/55 23/23/23
f 52/52/52 28/28/28 170/170/170
f 170/170/170 169/169/169 52/52/52
f 13/13/13 29/29/29 27/27/27
f 27/27/27 53/53/53 13/13/13
f 25/25/25 21/21/21 168/168/168
f 168/168/168 167/167/167 25/25/25
f 26/26/26 22/22/22 20/20/20
f 20/20/20 24/24/24 26/26/26
f 15/15/15 18/18/18 166/166/166
f 166/166/166 165/165/165 15/15/15
f 16/16/16 19/19/19 17/17/17
f 17/17/17 14/14/14 16/16/16
f 161/161/161 164/164/164 163/163/163
f 163/163/163 162/162/162 161/161/161
f 157/157/157 160/160/160 159/159/159
f 159/159/159 158/158/158 157/157/157
f 153/153/153 156/156/156 155/155/155
f 155/155/155 154/154/154 153/153/153
f 149/149/149 152/152/152 151/151/151
f 151/151/151 150/150/150 149/149/149
f 9/9/9 12/12/12 11/11/11
f 11/11/11 10/10/10 9/9/9
f 2/2/2 4/4/4 8/8/8
f 8/8/8 5/5/5 2/2/2
f 3/3/3 1/1/1 6/6/6
f 6/6/6 7/7/7 3/3/3
f 4/4/4 3/3/3 7/7/7
f 7/7/7 8/8/8 4/4/4
f 1/1/1 2/2/2 5/5/5
f 5/5/5 6/6/6 1/1/1
