v 0.4628976912 0.4258270799999999 -1.0044250019999998
v 0.492692382 0.42843384359999986 -1.0044250019999998
v 0.4670446536 0.3784265604 -1.0044250019999998
v 0.49683939479999994 0.38103314759999996 -1.0044250019999998
v 0.4628976912 0.42582708 0.005316721199999974
v 0.4670446536 0.3784265604 0.005316721199999977
v 0.49683939479999994 0.3810331476 -0.058642995600000025
v 0.492692382 0.4284338436 0.005316721199999973
v 0.4968394452 0.3810331476 0.005316721199999977
v 0.49683939479999994 0.3810331476 -0.03547736640000002
v 0.4423024116 0.212646042 0.005316746399999987
v 0.4450626684 0.2601474876 0.005316746399999984
v 0.4749208632 0.2584124928 0.005316746399999984
v 0.47216055599999995 0.210910896 0.005316746399999988
v 0.4749208632 0.25841249279999995 -1.0044250019999998
v 0.4450626684 0.26014748759999995 -1.0044250019999998
v 0.47216055599999995 0.21091089599999993 -1.0044250019999998
v 0.4423024116 0.21264604199999998 -1.0044250019999998
v 0.4116305844 0.6580027187999999 0.005316746399999959
v 0.40622498279999997 0.7052762304 0.005316746399999957
v 0.43593983999999997 0.7086740976 0.005316746399999957
v 0.441345492 0.6614003088 0.005316746399999959
v 0.43593983999999997 0.7086740976 -1.0044250019999998
v 0.40622498279999997 0.7052762303999999 -1.0044250019999998
v 0.441345492 0.6614003087999999 -1.0044250019999998
v 0.4116305844 0.6580027187999998 -1.0044250019999998
v 0.4270738248 0.9313786188 0.005316746399999943
v 0.4216682232 0.9786521556 0.00531674639999994
v 0.45138313080000003 0.9820499976 0.00531674639999994
v 0.45678873239999995 0.9347762592 0.005316746399999943
v 0.45138313080000003 0.9820499976 -1.0044250019999998
v 0.4216682232 0.9786521556 -1.0044250019999998
v 0.45678873239999995 0.9347762592 -1.0044250019999998
v 0.4270738248 0.9313786188 -1.0044250019999998
v 0.3249779652 1.1970621936 -0.03638912760000007
v 0.31381376040000003 1.228147578 -0.03638912760000007
v 0.3323674116 1.2355771176 -0.03638912760000008
v 0.343531692 1.2044917332 -0.03638912760000007
v 0.3981200076 1.072963836 -1.0044250019999998
v 0.37871505 1.0658281788000001 -1.0044250019999998
v 0.4093032636 1.0422905724 -1.0044250019999998
v 0.38985788520000003 1.0350217583999999 -1.0044250019999998
v 1.4059018764 1.0118094588000002 0.3977229564
v 1.4059020528 1.0118092572000001 0.24909698519999995
v 1.35723357 0.5083081668 0.24909698519999995
v 1.3572333684 0.5083081668 0.3977229564
v 1.3221016704 0.5492088756 0.39772288079999996
v 1.3707838116 0.9955339127999999 0.39772288079999996
v 1.3221016704 0.5492088756 0.24676744679999993
v 1.3707838116 0.9955339127999999 0.24676744679999993
v 1.0324748952 0.7438745916 -0.022442338800000048
v 0.377248032 1.1157808032 -0.9376211376000001
v 0.698055876 1.2215973672 -0.06450607800000008
v 0.4434074316 0.13267316159999995 -0.9171383508000001
v 1.153514754 0.1310499036 -0.03496822560000001
v 0.32788821240000005 1.2363272208 -0.06269492880000008
v 0.4434074316 0.1326731616 -0.04221219240000001
v 0.5499030096 1.046244024 -0.06228381600000007
v 1.4280551208 1.046244024 -0.07292726280000007
v 1.380828582 0.562388526 -0.07292726280000003
v 0.5659813152 0.9957681719999999 0.25025059079999995
v 1.3985692308 0.9957681719999999 0.25025059079999995
v 1.351342692 0.5470309908 0.25025059079999995
v 0.5499030096 0.562388526 -0.062283816000000033
v 0.5659813152 0.5470309908 0.25025059079999995
v 0.4822167672 0.4085867016 -0.04733290800000002
v 0.42402855600000006 0.6845002920000001 -0.05245357320000005
v 0.4430278692 0.960413832 -0.05757423840000006
v 0.4822167672 0.37322243279999995 -0.922259016
v 0.4229847468 0.6838340544 -0.9273797819999999
v 0.44125263 0.9643559436 -1.0678062528
v 0.5486868828 1.034076708 0.4129438319999999
v 0.6324611328 1.034076708 0.4129438319999999
v 0.6324611328 0.9503024579999999 0.4129438319999999
v 0.5486868324 0.9503024579999999 0.4129438319999999
v 0.5294982420000001 1.0532652984 -0.07532358120000007
v 0.6516497988 1.0532652984 -0.07532358120000007
v 0.6516497988 0.9311139684 -0.07532358120000006
v 0.5294982420000001 0.9311139684 -0.07532358120000006
v 0.6330752568 0.9951906384 0.24847477199999998
v 1.337770728 0.9951906384 0.24847477199999998
v 0.6330752568 0.9951906384 0.38407685399999997
v 1.3420393812 0.9951906384 0.38407685399999997
v 0.6289850196 1.004051538 0.36675936359999994
v 0.6289850196 0.9669624299999999 0.36675936359999994
v 0.6289850196 1.004051538 0.38861547479999997
v 0.6289850196 0.9669624299999999 0.38861547479999997
v 1.3431312468 1.004051538 0.36675936359999994
v 1.3431312468 0.9669622283999999 0.36675936359999994
v 1.3431312468 1.004051538 0.38861547479999997
v 1.3431312468 0.9669622283999999 0.38861547479999997
v 0.5486868324 0.5923567439999999 0.41294383199999996
v 0.6324611328 0.5923567439999999 0.41294383199999996
v 0.6324611328 0.49928452560000003 0.41294383199999996
v 0.5486868324 0.49928452560000003 0.41294383199999996
v 0.5294982420000001 0.6115453344 -0.07532358120000004
v 0.6516497988 0.6115453344 -0.07532358120000004
v 0.6516497988 0.48009608639999996 -0.07532358120000004
v 0.5294982420000001 0.48009608639999996 -0.07532358120000004
v 1.4246942976 1.0392877404 0.4299402491999999
v 1.4246942976 0.9555133896 0.4299402491999999
v 1.3409200476 0.9555133896 0.4299402491999999
v 1.3409200476 1.0392877404 0.4299402491999999
v 1.4368870908 1.0584762300000001 0.055851112799999936
v 1.4368871916000001 0.9363247236000001 0.05585111279999995
v 1.3217316588 0.9363246228 0.05585111279999995
v 1.3217316588 1.0584762300000001 0.055851112799999936
v 0.6330752568 0.9741600791999999 0.38407685399999997
v 1.3420393812 0.9741602808 0.38407685399999997
v 1.3420393812 0.9741602808 0.24847477199999998
v 0.6373439352 0.9741600791999999 0.24847477199999998
v 0.866808432 0.9104863068 0.24937877159999994
v 0.98164143 0.6996467016 0.24937877159999994
v 0.6516660024 0.7913503584 0.24937877159999994
v 0.7664989752 0.5805107784000001 0.24937877159999994
v 0.8178104843999999 0.8600142096 0.5738166504
v 0.7708019508 0.9104863068 0.24937877159999994
v 0.9311693327999999 0.7466552604 0.5738166504
v 0.98164143 0.7956532584 0.24937877159999994
v 0.7021380492 0.7443417996 0.5738166504
v 0.6516660024 0.6953438016 0.24937877159999994
v 0.8154969228 0.6309828000000001 0.5738166504
v 0.8625054311999999 0.5805107784000001 0.24937877159999994
v 0.4628976912 0.42582708 0.005316721199999974
v 0.492692382 0.4284338436 0.005316721199999973
v 0.4670446536 0.3784265604 0.005316721199999977
v 0.4968394452 0.3810331476 0.005316721199999977
v 0.4628976912 0.42582708 0.005316721199999974
v 0.4670446536 0.3784265604 0.005316721199999977
v 0.4670446536 0.3784265604 -1.0044250019999998
v 0.4628976912 0.4258270799999999 -1.0044250019999998
v 0.4968394452 0.3810331476 0.005316721199999977
v 0.49683939479999994 0.3810331476 -0.03547736640000002
v 0.4450626684 0.2601474876 0.005316746399999984
v 0.4749208632 0.2584124928 0.005316746399999984
v 0.4423024116 0.212646042 0.005316746399999987
v 0.47216055599999995 0.210910896 0.005316746399999988
v 0.4450626684 0.2601474876 0.005316746399999984
v 0.4423024116 0.212646042 0.005316746399999987
v 0.4423024116 0.21264604199999998 -1.0044250019999998
v 0.4450626684 0.26014748759999995 -1.0044250019999998
v 0.40622498279999997 0.7052762304 0.005316746399999957
v 0.43593983999999997 0.7086740976 0.005316746399999957
v 0.4116305844 0.6580027187999999 0.005316746399999959
v 0.441345492 0.6614003088 0.005316746399999959
v 0.40622498279999997 0.7052762304 0.005316746399999957
v 0.4116305844 0.6580027187999999 0.005316746399999959
v 0.4116305844 0.6580027187999998 -1.0044250019999998
v 0.40622498279999997 0.7052762303999999 -1.0044250019999998
v 0.4216682232 0.9786521556 0.00531674639999994
v 0.45138313080000003 0.9820499976 0.00531674639999994
v 0.4270738248 0.9313786188 0.005316746399999943
v 0.45678873239999995 0.9347762592 0.005316746399999943
v 0.4216682232 0.9786521556 0.00531674639999994
v 0.4270738248 0.9313786188 0.005316746399999943
v 0.4270738248 0.9313786188 -1.0044250019999998
v 0.4216682232 0.9786521556 -1.0044250019999998
v 0.31381376040000003 1.228147578 -0.03638912760000007
v 0.3323674116 1.2355771176 -0.03638912760000008
v 0.3249779652 1.1970621936 -0.03638912760000007
v 0.343531692 1.2044917332 -0.03638912760000007
v 0.31381376040000003 1.228147578 -0.03638912760000007
v 0.3249779652 1.1970621936 -0.03638912760000007
v 0.38985788520000003 1.0350217583999999 -1.0044250019999998
v 0.37871505 1.0658281788000001 -1.0044250019999998
v 1.4059018764 1.0118094588000002 0.3977229564
v 1.3572333684 0.5083081668 0.3977229564
v 1.3707838116 0.9955339127999999 0.39772288079999996
v 1.3221016704 0.5492088756 0.39772288079999996
v 0.4430278692 0.960413832 -0.05757423840000006
v 0.698055876 1.2215973672 -0.06450607800000008
v 0.42402855600000006 0.6845002920000001 -0.05245357320000005
v 0.698055876 1.2215973672 -0.06450607800000008
v 0.4434074316 0.1326731616 -0.04221219240000001
v 0.4822167672 0.4085867016 -0.04733290800000002
v 0.698055876 1.2215973672 -0.06450607800000008
v 1.0324748952 0.7438745916 -0.022442338800000048
v 0.4434074316 0.1326731616 -0.04221219240000001
v 0.698055876 1.2215973672 -0.06450607800000008
v 0.42402855600000006 0.6845002920000001 -0.05245357320000005
v 0.4822167672 0.4085867016 -0.04733290800000002
v 0.4822167672 0.4085867016 -0.04733290800000002
v 0.4229847468 0.6838340544 -0.9273797819999999
v 1.3985692308 0.9957681719999999 0.25025059079999995
v 0.5659813152 0.9957681719999999 0.25025059079999995
v 1.4280551208 1.046244024 -0.07292726280000007
v 1.351342692 0.5470309908 0.25025059079999995
v 1.3985692308 0.9957681719999999 0.25025059079999995
v 0.5499030096 1.046244024 -0.06228381600000007
v 0.5659813152 0.9957681719999999 0.25025059079999995
v 0.5659813152 0.5470309908 0.25025059079999995
v 0.32788821240000005 1.2363272208 -0.06269492880000008
v 0.4430278692 0.960413832 -0.05757423840000006
v 0.4430278692 0.960413832 -0.05757423840000006
v 0.377248032 1.1157808032 -0.9376211376000001
v 0.44125263 0.9643559436 -1.0678062528
v 0.4430278692 0.960413832 -0.05757423840000006
v 0.42402855600000006 0.6845002920000001 -0.05245357320000005
v 0.42402855600000006 0.6845002920000001 -0.05245357320000005
v 0.4229847468 0.6838340544 -0.9273797819999999
v 0.44125263 0.9643559436 -1.0678062528
v 0.4434074316 0.1326731616 -0.04221219240000001
v 0.4822167672 0.37322243279999995 -0.922259016
v 0.4822167672 0.37322243279999995 -0.922259016
v 0.4822167672 0.4085867016 -0.04733290800000002
v 0.4434074316 0.1326731616 -0.04221219240000001
v 0.6324611328 1.034076708 0.4129438319999999
v 0.5486868828 1.034076708 0.4129438319999999
v 0.6324611328 0.9503024579999999 0.4129438319999999
v 0.6324611328 1.034076708 0.4129438319999999
v 0.6516497988 1.0532652984 -0.07532358120000007
v 0.5486868324 0.9503024579999999 0.4129438319999999
v 0.6324611328 0.9503024579999999 0.4129438319999999
v 0.6516497988 0.9311139684 -0.07532358120000006
v 0.5486868828 1.034076708 0.4129438319999999
v 0.5486868324 0.9503024579999999 0.4129438319999999
v 0.5294982420000001 0.9311139684 -0.07532358120000006
v 0.5294982420000001 1.0532652984 -0.07532358120000007
v 1.3431312468 0.9669622283999999 0.38861547479999997
v 0.6289850196 0.9669624299999999 0.38861547479999997
v 1.3431312468 1.004051538 0.38861547479999997
v 0.6289850196 1.004051538 0.38861547479999997
v 0.6324611328 0.5923567439999999 0.41294383199999996
v 0.5486868324 0.5923567439999999 0.41294383199999996
v 0.6324611328 0.49928452560000003 0.41294383199999996
v 0.6324611328 0.5923567439999999 0.41294383199999996
v 0.6516497988 0.6115453344 -0.07532358120000004
v 0.5486868324 0.49928452560000003 0.41294383199999996
v 0.6324611328 0.49928452560000003 0.41294383199999996
v 0.6516497988 0.48009608639999996 -0.07532358120000004
v 0.5486868324 0.5923567439999999 0.41294383199999996
v 0.5486868324 0.49928452560000003 0.41294383199999996
v 0.5294982420000001 0.48009608639999996 -0.07532358120000004
v 0.5294982420000001 0.6115453344 -0.07532358120000004
v 1.4246942976 0.9555133896 0.4299402491999999
v 1.4246942976 1.0392877404 0.4299402491999999
v 1.3409200476 0.9555133896 0.4299402491999999
v 1.4246942976 0.9555133896 0.4299402491999999
v 1.4368871916000001 0.9363247236000001 0.05585111279999995
v 1.3409200476 1.0392877404 0.4299402491999999
v 1.3409200476 0.9555133896 0.4299402491999999
v 1.3217316588 0.9363246228 0.05585111279999995
v 1.4246942976 1.0392877404 0.4299402491999999
v 1.3409200476 1.0392877404 0.4299402491999999
v 1.3217316588 1.0584762300000001 0.055851112799999936
v 1.4368870908 1.0584762300000001 0.055851112799999936
v 0.9311693327999999 0.7466552604 0.5738166504
v 0.8154969228 0.6309828000000001 0.5738166504
v 0.8178104843999999 0.8600142096 0.5738166504
v 0.7021380492 0.7443417996 0.5738166504
v 0.866808432 0.9104863068 0.24937877159999994
v 0.8178104843999999 0.8600142096 0.5738166504
v 0.7708019508 0.9104863068 0.24937877159999994
v 0.98164143 0.6996467016 0.24937877159999994
v 0.9311693327999999 0.7466552604 0.5738166504
v 0.98164143 0.7956532584 0.24937877159999994
v 0.6516660024 0.7913503584 0.24937877159999994
v 0.7021380492 0.7443417996 0.5738166504
v 0.6516660024 0.6953438016 0.24937877159999994
v 0.7664989752 0.5805107784000001 0.24937877159999994
v 0.8154969228 0.6309828000000001 0.5738166504
v 0.8625054311999999 0.5805107784000001 0.24937877159999994
v 0.8154969228 0.6309828000000001 0.5738166504
v 0.7021380492 0.7443417996 0.5738166504
v 0.8178104843999999 0.8600142096 0.5738166504
v 0.9311693327999999 0.7466552604 0.5738166504
vt 0.974137 0.205243
vt 0.978836 0.205279
vt 0.966661 0.205185
vt 0.961961 0.205149
vt 0.975150 0.014342
vt 0.967674 0.014284
vt 0.962911 0.026340
vt 0.975180 0.008687
vt 0.967704 0.008630
vt 0.962934 0.021961
vt 0.967674 0.014284
vt 0.975150 0.014342
vt 0.975180 0.008687
vt 0.967704 0.008630
vt 0.978836 0.205279
vt 0.974137 0.205243
vt 0.961961 0.205149
vt 0.966661 0.205185
vt 0.967674 0.014284
vt 0.975150 0.014342
vt 0.975180 0.008687
vt 0.967704 0.008630
vt 0.978836 0.205279
vt 0.974137 0.205243
vt 0.961961 0.205149
vt 0.966661 0.205185
vt 0.967674 0.014284
vt 0.975150 0.014342
vt 0.975180 0.008687
vt 0.967704 0.008630
vt 0.978836 0.205279
vt 0.974137 0.205243
vt 0.961961 0.205149
vt 0.966661 0.205185
vt 0.967674 0.014284
vt 0.975150 0.014342
vt 0.975180 0.008687
vt 0.967704 0.008630
vt 0.978836 0.205279
vt 0.974137 0.205243
vt 0.961961 0.205149
vt 0.966661 0.205185
vt 0.825852 0.145175
vt 0.825851 0.122582
vt 0.692662 0.122535
vt 0.692626 0.145374
vt 0.692574 0.152628
vt 0.822488 0.152414
vt 0.128327 0.072956
vt 0.250189 0.073000
vt 0.777421 0.312207
vt 0.879588 0.629260
vt 0.880909 0.366245
vt 0.680108 0.633547
vt 0.653715 0.305634
vt 0.896864 0.442804
vt 0.673453 0.449714
vt 0.065686 0.358021
vt 0.239919 0.360188
vt 0.289080 0.196905
vt 0.068875 0.292712
vt 0.234069 0.292712
vt 0.224699 0.200141
vt 0.006784 0.203309
vt 0.068875 0.200141
vt 0.724354 0.433517
vt 0.785069 0.434622
vt 0.835971 0.423928
vt 0.728444 0.632535
vt 0.791172 0.630920
vt 0.848050 0.657475
vt 0.635374 0.490890
vt 0.620551 0.498708
vt 0.628070 0.514121
vt 0.642894 0.506302
vt 0.595342 0.398872
vt 0.573365 0.410684
vt 0.552693 0.423838
vt 0.617785 0.389361
vt 0.401645 0.046955
vt 0.541463 0.047272
vt 0.401703 0.018982
vt 0.542368 0.019300
vt 0.915728 0.040899
vt 0.915728 0.057568
vt 0.915728 0.045408
vt 0.915728 0.053059
vt 0.774034 0.040899
vt 0.774034 0.057517
vt 0.774034 0.045408
vt 0.774034 0.053059
vt 0.635374 0.490890
vt 0.620551 0.498708
vt 0.628070 0.514121
vt 0.642894 0.506302
vt 0.595342 0.398872
vt 0.573365 0.410684
vt 0.552693 0.423838
vt 0.617785 0.389361
vt 0.635374 0.490890
vt 0.620551 0.498708
vt 0.628070 0.514121
vt 0.642894 0.506302
vt 0.595342 0.398872
vt 0.573365 0.410684
vt 0.552693 0.423838
vt 0.617785 0.389361
vt 0.230096 0.054214
vt 0.148916 0.053994
vt 0.148883 0.073321
vt 0.229573 0.073540
vt 0.089686 0.480710
vt 0.051827 0.454178
vt 0.022669 0.417017
vt 0.022523 0.416534
vt 0.119767 0.428827
vt 0.010005 0.389028
vt 0.095358 0.413702
vt 0.064960 0.465389
vt 0.064130 0.364776
vt 0.010513 0.389564
vt 0.075986 0.391400
vt 0.031875 0.431209
vt 0.975150 0.014342
vt 0.979850 0.014378
vt 0.967674 0.014284
vt 0.962975 0.014248
vt 0.975150 0.014342
vt 0.967674 0.014284
vt 0.966661 0.205185
vt 0.974137 0.205243
vt 0.962975 0.014248
vt 0.962934 0.021961
vt 0.975150 0.014342
vt 0.979850 0.014378
vt 0.967674 0.014284
vt 0.962975 0.014248
vt 0.975150 0.014342
vt 0.967674 0.014284
vt 0.966661 0.205185
vt 0.974137 0.205243
vt 0.975150 0.014342
vt 0.979850 0.014378
vt 0.967674 0.014284
vt 0.962975 0.014248
vt 0.975150 0.014342
vt 0.967674 0.014284
vt 0.966661 0.205185
vt 0.974137 0.205243
vt 0.975150 0.014342
vt 0.979850 0.014378
vt 0.967674 0.014284
vt 0.962975 0.014248
vt 0.975150 0.014342
vt 0.967674 0.014284
vt 0.966661 0.205185
vt 0.974137 0.205243
vt 0.975150 0.014342
vt 0.979850 0.014378
vt 0.967674 0.014284
vt 0.962975 0.014248
vt 0.975150 0.014342
vt 0.967674 0.014284
vt 0.966661 0.205185
vt 0.974137 0.205243
vt 0.825852 0.145175
vt 0.692626 0.145374
vt 0.250197 0.049926
vt 0.128335 0.049882
vt 0.835971 0.423928
vt 0.880909 0.366245
vt 0.785069 0.434622
vt 0.880909 0.366245
vt 0.673453 0.449714
vt 0.724354 0.433517
vt 0.880909 0.366245
vt 0.777421 0.312207
vt 0.673453 0.449714
vt 0.880909 0.366245
vt 0.784157 0.450580
vt 0.728224 0.451897
vt 0.728224 0.451897
vt 0.791172 0.630920
vt 0.234069 0.292712
vt 0.068875 0.292712
vt 0.299121 0.296647
vt 0.224699 0.200141
vt 0.234069 0.292712
vt 0.006784 0.303125
vt 0.068875 0.292712
vt 0.068875 0.200141
vt 0.898336 0.447825
vt 0.839025 0.449282
vt 0.839025 0.449282
vt 0.879588 0.629260
vt 0.848050 0.657475
vt 0.839025 0.449282
vt 0.784157 0.450580
vt 0.784157 0.450580
vt 0.791172 0.630923
vt 0.848050 0.657475
vt 0.672947 0.453213
vt 0.728444 0.632535
vt 0.728444 0.632535
vt 0.728224 0.451897
vt 0.672947 0.453213
vt 0.620551 0.498708
vt 0.635374 0.490890
vt 0.606548 0.507752
vt 0.620551 0.498708
vt 0.573365 0.410684
vt 0.650732 0.484383
vt 0.666598 0.479234
vt 0.641349 0.381829
vt 0.635374 0.490890
vt 0.650732 0.484383
vt 0.617785 0.389361
vt 0.595342 0.398872
vt 0.774034 0.053059
vt 0.915728 0.053059
vt 0.774034 0.045408
vt 0.915728 0.045408
vt 0.620551 0.498708
vt 0.635374 0.490890
vt 0.606548 0.507752
vt 0.620551 0.498708
vt 0.573365 0.410684
vt 0.650732 0.484383
vt 0.666598 0.479234
vt 0.641349 0.381829
vt 0.635374 0.490890
vt 0.650732 0.484383
vt 0.617785 0.389361
vt 0.595342 0.398872
vt 0.620551 0.498708
vt 0.635374 0.490890
vt 0.606548 0.507752
vt 0.620551 0.498708
vt 0.573365 0.410684
vt 0.650732 0.484383
vt 0.666598 0.479234
vt 0.641349 0.381829
vt 0.635374 0.490890
vt 0.650732 0.484383
vt 0.617785 0.389361
vt 0.595342 0.398872
vt 0.095358 0.413702
vt 0.075986 0.391400
vt 0.063743 0.365065
vt 0.076039 0.392239
vt 0.089686 0.480710
vt 0.119767 0.428827
vt 0.105455 0.487407
vt 0.051827 0.454178
vt 0.095358 0.413702
vt 0.064960 0.465389
vt 0.005828 0.372714
vt 0.064130 0.364776
vt 0.010513 0.389564
vt 0.022523 0.416534
vt 0.075986 0.391400
vt 0.031875 0.431209
vt 0.111225 0.386329
vt 0.096357 0.412492
vt 0.122993 0.429016
vt 0.136292 0.400753
vn -0.087158 0.996195 -6.099935090382987E-17
vn -0.087158 0.996195 -6.099935090382987E-17
vn 0.087152 -0.996195 6.099935090382987E-17
vn 0.172993 -0.984923 6.030913996783043E-17
vn 0 6.123233995736766E-17 1
vn 0 6.123233995736766E-17 1
vn 0 -1 6.123233995736766E-17
vn 0 6.123233995736766E-17 1
vn 0 6.123233995736766E-17 1
vn 0 1 -6.123233995736766E-17
vn 0 6.123233995736766E-17 1
vn 0 6.123233995736766E-17 1
vn 0 6.123233995736766E-17 1
vn 0 6.123233995736766E-17 1
vn 0.05801 0.998316 -6.112922469687946E-17
vn 0.05801 0.998316 -6.112922469687946E-17
vn -0.058015 -0.998316 6.112922469687946E-17
vn -0.058015 -0.998316 6.112922469687946E-17
vn 0 6.123233995736766E-17 1
vn 0 6.123233995736766E-17 1
vn 0 6.123233995736766E-17 1
vn 0 6.123233995736766E-17 1
vn -0.11361 0.993525 -6.083586055614371E-17
vn -0.11361 0.993525 -6.083586055614371E-17
vn 0.1136 -0.993527 6.083598302082362E-17
vn 0.1136 -0.993527 6.083598302082362E-17
vn 0 6.123233995736766E-17 1
vn 0 6.123233995736766E-17 1
vn 0 6.123233995736766E-17 1
vn 0 6.123233995736766E-17 1
vn -0.11361 0.993525 -6.083586055614371E-17
vn -0.11361 0.993525 -6.083586055614371E-17
vn 0.1136 -0.993527 6.083598302082362E-17
vn 0.1136 -0.993527 6.083598302082362E-17
vn 0 6.123233995736766E-17 1
vn 0 6.123233995736766E-17 1
vn 0 6.123233995736766E-17 1
vn 0 6.123233995736766E-17 1
vn -0.352746 0.918636 -0.17798500000000006
vn -0.33964 0.923627 -0.17764400000000005
vn 0.355219 -0.917742 0.17767400000000005
vn 0.344587 -0.92184 0.17740300000000006
vn 0.995361 -0.096212 2.000000000005891E-06
vn 0.995361 -0.096212 2.000000000005891E-06
vn 0.995361 -0.096212 2.000000000005891E-06
vn 0.995361 -0.096212 1.0000000000058913E-06
vn -2E-06 6.123233995736766E-17 1
vn -2E-06 6.123233995736766E-17 1
vn -0.994104 0.10843 -6.6394226215773754E-18
vn -0.994104 0.10843 -6.6394226215773754E-18
vn -0.010249 -0.022457999999999936 0.999695
vn -0.922874 -0.3851 0.0009940000000000237
vn 0.005725 0.020944000000000063 0.999764
vn -0.987234 0.159277 -9.75290341138965E-18
vn -0.010249 -0.022457999999999936 0.999695
vn 0.005725 0.020944000000000063 0.999764
vn -0.010249 -0.022457999999999936 0.999695
vn 0.000936 0.987604 0.15696099999999993
vn 0.001872 0.987994 0.15448199999999995
vn 0.991594 -0.096784 0.085871
vn 0 6.123233995736766E-17 1
vn 0 6.123233995736766E-17 1
vn 0 6.123233995736766E-17 1
vn -0.998679 3.145933929989678E-18 0.051377
vn 0 6.123233995736766E-17 1
vn 0.005381 0.01969000000000006 0.999792
vn 0.008792 0.017950000000000063 0.9998
vn 0.005725 0.020944000000000063 0.999764
vn -0.982294 -0.187194 0.007566000000000011
vn -0.978482 -0.20633 0.0013240000000000127
vn -0.921067 -0.389404 9.900000000002383E-05
vn 0 6.123233995736766E-17 1
vn 0 6.123233995736766E-17 1
vn 0 6.123233995736766E-17 1
vn 0 6.123233995736766E-17 1
vn 0 0.999229 0.039268999999999936
vn 0 0.999229 0.039268999999999936
vn 0.999229 2.4045327577858707E-18 0.039269
vn 0 -0.999229 0.03926900000000006
vn 0 1 -6.123233995736766E-17
vn 0 1 -6.123233995736766E-17
vn 0 1 -6.123233995736766E-17
vn 0 1 -6.123233995736766E-17
vn 0 1 -6.123233995736766E-17
vn -0 -1 6.123233995736766E-17
vn 0 6.123233995736766E-17 1
vn -0 -1 6.123233995736766E-17
vn 0 1 -6.123233995736766E-17
vn -0 -1 6.123233995736766E-17
vn 0 6.123233995736766E-17 1
vn -0 -1 6.123233995736766E-17
vn 0 6.123233995736766E-17 1
vn 0 6.123233995736766E-17 1
vn 0 6.123233995736766E-17 1
vn 0 6.123233995736766E-17 1
vn 0 0.999229 0.039268999999999936
vn 0 0.999229 0.039268999999999936
vn 0.999229 2.4045327577858707E-18 0.039269
vn 0 -0.999229 0.03926900000000006
vn 0 6.123233995736766E-17 1
vn 0 6.123233995736766E-17 1
vn 0 6.123233995736766E-17 1
vn 0 6.123233995736766E-17 1
vn 0.999469 1.994704706451209E-18 0.032576
vn 0.999469 1.0000000000019947E-06 0.032576
vn 1E-06 -0.998687 0.051227000000000064
vn -0.998687 3.136687846656116E-18 0.051226
vn 0 -1 6.123233995736766E-17
vn 0 -1 6.123233995736766E-17
vn 0 -1 6.123233995736766E-17
vn 0 -1 6.123233995736766E-17
vn 0.691054 0.691054 0.21187199999999995
vn 0.691669 -0.691669 0.20781900000000006
vn -0.691669 0.691669 0.20781899999999995
vn -0.691054 -0.691054 0.21187100000000006
vn 0.691054 0.691054 0.21187099999999995
vn -0.691669 0.691669 0.20781899999999995
vn 0.691054 0.691054 0.21187199999999995
vn 0.691054 0.691054 0.21187199999999995
vn -0.691054 -0.691054 0.21187100000000006
vn -0.691054 -0.691054 0.21187100000000006
vn 0.691669 -0.691669 0.20781900000000006
vn 0.691669 -0.691669 0.20781900000000006
vn -0.087158 0.996195 -6.099935090382987E-17
vn -0.087158 0.996195 -6.099935090382987E-17
vn 0.087152 -0.996195 6.099935090382987E-17
vn 0.999048 0.043617 -2.6707709719205053E-18
vn -0.996195 -0.087155 5.336704588984378E-18
vn -0.996195 -0.087155 5.336704588984378E-18
vn -0.996195 -0.087155 5.336704588984378E-18
vn -0.996195 -0.087155 5.336704588984378E-18
vn 0 -1 6.123233995736766E-17
vn 0 -1 6.123233995736766E-17
vn 0.05801 0.998316 -6.112922469687946E-17
vn 0.05801 0.998316 -6.112922469687946E-17
vn -0.058015 -0.998316 6.112922469687946E-17
vn -0.058015 -0.998316 6.112922469687946E-17
vn -0.998316 0.058011 -3.552149273266855E-18
vn -0.998316 0.058011 -3.552149273266855E-18
vn -0.998316 0.058011 -3.552149273266855E-18
vn -0.998316 0.058011 -3.552149273266855E-18
vn -0.11361 0.993525 -6.083586055614371E-17
vn -0.11361 0.993525 -6.083586055614371E-17
vn 0.1136 -0.993527 6.083598302082362E-17
vn 0.1136 -0.993527 6.083598302082362E-17
vn -0.993526 -0.113607 6.956422445536667E-18
vn -0.993526 -0.113607 6.956422445536667E-18
vn -0.993526 -0.113607 6.956422445536667E-18
vn -0.993526 -0.113607 6.956422445536667E-18
vn -0.11361 0.993525 -6.083586055614371E-17
vn -0.11361 0.993525 -6.083586055614371E-17
vn 0.1136 -0.993527 6.083598302082362E-17
vn 0.1136 -0.993527 6.083598302082362E-17
vn -0.993526 -0.113607 6.956422445536667E-18
vn -0.993526 -0.113607 6.956422445536667E-18
vn -0.993526 -0.113607 6.956422445536667E-18
vn -0.993526 -0.113607 6.956422445536667E-18
vn -0.352746 0.918636 -0.17798500000000006
vn -0.365782 0.913464 -0.17829100000000006
vn 0.355219 -0.917742 0.17767400000000005
vn 0.365806 -0.913526 0.17792200000000005
vn -0.940741 -0.339067 -0.006254999999999979
vn -0.941123 -0.338001 -0.0064979999999999795
vn -0.940741 -0.339067 -0.006254999999999979
vn -0.940358 -0.340133 -0.006012999999999979
vn -2E-06 6.123233995736766E-17 1
vn -2E-06 6.123233995736766E-17 1
vn -0.994104 0.10843 -6.6394226215773754E-18
vn -0.994104 0.10843 -6.6394226215773754E-18
vn 0.008792 0.017950000000000063 0.9998
vn 0.008792 0.017950000000000063 0.9998
vn 0.005381 0.01969000000000006 0.999792
vn 0.005381 0.01969000000000006 0.999792
vn 0.020533 0.01566500000000006 0.999666
vn 0.020533 0.01566500000000006 0.999666
vn 0.020533 0.01566500000000006 0.999666
vn -0.072123 0.03727200000000006 0.996699
vn -0.072123 0.03727200000000006 0.996699
vn -0.072123 0.03727200000000006 0.996699
vn -0.978482 -0.20633 0.0013240000000000127
vn -0.978482 -0.20633 0.0013240000000000127
vn -0.982294 -0.187194 0.007566000000000011
vn -0.982294 -0.187194 0.007566000000000011
vn 0.000936 0.987604 0.15696099999999993
vn 0 0.987208 0.15943899999999994
vn 0.991705 -0.100583 0.08003
vn 0.991705 -0.100583 0.08003
vn 0.991767 -0.104377 0.074184
vn -0.998679 3.145933929989678E-18 0.051377
vn -0.998679 3.145933929989678E-18 0.051377
vn -0.998679 3.145933929989678E-18 0.051377
vn -0.922874 -0.3851 0.0009940000000000237
vn -0.922874 -0.3851 0.0009940000000000237
vn -0.921067 -0.389404 9.900000000002383E-05
vn -0.921067 -0.389404 9.900000000002383E-05
vn -0.997633 0.068734 0.0020209999999999955
vn -0.997633 0.068734 0.0020209999999999955
vn -0.997633 0.068734 0.0020209999999999955
vn -0.997849 0.065552 0.001140999999999996
vn -0.997849 0.065552 0.001140999999999996
vn -0.997849 0.065552 0.001140999999999996
vn -0.987234 0.159277 -9.75290341138965E-18
vn -0.987234 0.159277 -9.75290341138965E-18
vn -0.990251 0.139182 -0.005626000000000009
vn -0.990251 0.139182 -0.005626000000000009
vn -0.990251 0.139182 -0.005626000000000009
vn 0 0.999229 0.039268999999999936
vn 0 0.999229 0.039268999999999936
vn 0.999229 2.4045327577858707E-18 0.039269
vn 0.999229 2.4045327577858707E-18 0.039269
vn 0.999229 2.4045327577858707E-18 0.039269
vn 0 -0.999229 0.03926900000000006
vn 0 -0.999229 0.03926900000000006
vn 0 -0.999229 0.03926900000000006
vn -0.999229 2.4045327577858707E-18 0.039269
vn -0.999229 2.4045327577858707E-18 0.039269
vn -0.999229 2.4045327577858707E-18 0.039269
vn -0.999229 2.4045327577858707E-18 0.039269
vn 0 6.123233995736766E-17 1
vn 0 6.123233995736766E-17 1
vn 0 1 -6.123233995736766E-17
vn 0 1 -6.123233995736766E-17
vn 0 0.999229 0.039268999999999936
vn 0 0.999229 0.039268999999999936
vn 0.999229 2.4045327577858707E-18 0.039269
vn 0.999229 2.4045327577858707E-18 0.039269
vn 0.999229 2.4045327577858707E-18 0.039269
vn 0 -0.999229 0.03926900000000006
vn 0 -0.999229 0.03926900000000006
vn 0 -0.999229 0.03926900000000006
vn -0.999229 2.4045327577858707E-18 0.039269
vn -0.999229 2.4045327577858707E-18 0.039269
vn -0.999229 2.4045327577858707E-18 0.039269
vn -0.999229 2.4045327577858707E-18 0.039269
vn 0.999469 1.994704706451209E-18 0.032576
vn 0.999469 1.994704706451209E-18 0.032576
vn 1E-06 -0.998687 0.051227000000000064
vn 0 -0.998687 0.051227000000000064
vn 1E-06 -0.998687 0.051227000000000064
vn -0.998687 3.136687846656116E-18 0.051226
vn -0.998687 3.136687846656116E-18 0.051226
vn -0.998687 3.136687846656116E-18 0.051226
vn 0 0.998687 0.05122599999999994
vn 0 0.998687 0.05122599999999994
vn 0 0.998687 0.05122599999999994
vn 0 0.998687 0.05122599999999994
vn 0.691669 -0.691669 0.20781900000000006
vn -0.691054 -0.691053 0.21187100000000006
vn -0.691669 0.691669 0.20781899999999995
vn -0.691669 0.691669 0.20781899999999995
vn 0 0.988115 0.15371899999999994
vn 0 0.988115 0.15371899999999994
vn 0 0.988115 0.15371899999999994
vn 0.988115 9.412574065906599E-18 0.153719
vn 0.988115 9.412574065906599E-18 0.153719
vn 0.988115 9.412574065906599E-18 0.153719
vn -0.988115 9.412574065906599E-18 0.153719
vn -0.988115 9.412574065906599E-18 0.153719
vn -0.988115 9.412574065906599E-18 0.153719
vn 0 -0.988115 0.15371900000000005
vn 0 -0.988115 0.15371900000000005
vn 0 -0.988115 0.15371900000000005
vn 0 6.123233995736766E-17 1
vn 0 6.123233995736766E-17 1
vn 0 6.123233995736766E-17 1
vn 0 6.123233995736766E-17 1
g 01
f 263/263/263 266/266/266 265/265/265
f 265/265/265 264/264/264 263/263/263
f 262/262/262 261/261/261 260/260/260
f 259/259/259 258/258/258 257/257/257
f 256/256/256 255/255/255 254/254/254
f 253/253/253 252/252/252 251/251/251
f 249/249/249 117/117/117 114/114/114
f 114/114/114 250/250/250 249/249/249
f 120/120/120 121/121/121 115/115/115
f 115/115/115 248/248/248 120/120/120
f 122/122/122 123/123/123 113/113/113
f 113/113/113 247/247/247 122/122/122
f 118/118/118 119/119/119 112/112/112
f 112/112/112 116/116/116 118/118/118
f 110/110/110 109/109/109 108/108/108
f 108/108/108 111/111/111 110/110/110
f 243/243/243 246/246/246 245/245/245
f 245/245/245 244/244/244 243/243/243
f 240/240/240 107/107/107 242/242/242
f 242/242/242 241/241/241 240/240/240
f 237/237/237 106/106/106 239/239/239
f 239/239/239 238/238/238 237/237/237
f 235/235/235 105/105/105 104/104/104
f 104/104/104 236/236/236 235/235/235
f 102/102/102 101/101/101 100/100/100
f 100/100/100 103/103/103 102/102/102
f 231/231/231 234/234/234 233/233/233
f 233/233/233 232/232/232 231/231/231
f 228/228/228 99/99/99 230/230/230
f 230/230/230 229/229/229 228/228/228
f 225/225/225 98/98/98 227/227/227
f 227/227/227 226/226/226 225/225/225
f 223/223/223 97/97/97 96/96/96
f 96/96/96 224/224/224 223/223/223
f 94/94/94 93/93/93 92/92/92
f 92/92/92 95/95/95 94/94/94
f 88/88/88 84/84/84 222/222/222
f 222/222/222 221/221/221 88/88/88
f 90/90/90 86/86/86 220/220/220
f 220/220/220 219/219/219 90/90/90
f 91/91/91 87/87/87 85/85/85
f 85/85/85 89/89/89 91/91/91
f 80/80/80 82/82/82 83/83/83
f 83/83/83 81/81/81 80/80/80
f 215/215/215 218/218/218 217/217/217
f 217/217/217 216/216/216 215/215/215
f 212/212/212 79/79/79 214/214/214
f 214/214/214 213/213/213 212/212/212
f 209/209/209 78/78/78 211/211/211
f 211/211/211 210/210/210 209/209/209
f 207/207/207 77/77/77 76/76/76
f 76/76/76 208/208/208 207/207/207
f 74/74/74 73/73/73 72/72/72
f 72/72/72 75/75/75 74/74/74
f 206/206/206 205/205/205 204/204/204
f 203/203/203 54/54/54 202/202/202
f 201/201/201 200/200/200 199/199/199
f 198/198/198 197/197/197 196/196/196
f 195/195/195 71/71/71 194/194/194
f 193/193/193 192/192/192 52/52/52
f 64/64/64 191/191/191 190/190/190
f 190/190/190 189/189/189 64/64/64
f 186/186/186 188/188/188 187/187/187
f 187/187/187 60/60/60 186/186/186
f 58/58/58 185/185/185 184/184/184
f 184/184/184 59/59/59 58/58/58
f 61/61/61 65/65/65 63/63/63
f 63/63/63 62/62/62 61/61/61
f 183/183/183 69/69/69 182/182/182
f 181/181/181 180/180/180 70/70/70
f 179/179/179 178/178/178 177/177/177
f 176/176/176 175/175/175 174/174/174
f 173/173/173 172/172/172 66/66/66
f 171/171/171 170/170/170 67/67/67
f 53/53/53 56/56/56 68/68/68
f 57/57/57 55/55/55 51/51/51
f 50/50/50 49/49/49 169/169/169
f 169/169/169 168/168/168 50/50/50
f 166/166/166 48/48/48 47/47/47
f 47/47/47 167/167/167 166/166/166
f 43/43/43 46/46/46 45/45/45
f 45/45/45 44/44/44 43/43/43
f 162/162/162 165/165/165 164/164/164
f 164/164/164 163/163/163 162/162/162
f 160/160/160 42/42/42 41/41/41
f 41/41/41 161/161/161 160/160/160
f 158/158/158 159/159/159 39/39/39
f 39/39/39 40/40/40 158/158/158
f 37/37/37 36/36/36 35/35/35
f 35/35/35 38/38/38 37/37/37
f 154/154/154 157/157/157 156/156/156
f 156/156/156 155/155/155 154/154/154
f 152/152/152 34/34/34 33/33/33
f 33/33/33 153/153/153 152/152/152
f 150/150/150 151/151/151 31/31/31
f 31/31/31 32/32/32 150/150/150
f 29/29/29 28/28/28 27/27/27
f 27/27/27 30/30/30 29/29/29
f 146/146/146 149/149/149 148/148/148
f 148/148/148 147/147/147 146/146/146
f 144/144/144 26/26/26 25/25/25
f 25/25/25 145/145/145 144/144/144
f 142/142/142 143/143/143 23/23/23
f 23/23/23 24/24/24 142/142/142
f 21/21/21 20/20/20 19/19/19
f 19/19/19 22/22/22 21/21/21
f 138/138/138 141/141/141 140/140/140
f 140/140/140 139/139/139 138/138/138
f 136/136/136 18/18/18 17/17/17
f 17/17/17 137/137/137 136/136/136
f 134/134/134 135/135/135 15/15/15
f 15/15/15 16/16/16 134/134/134
f 13/13/13 12/12/12 11/11/11
f 11/11/11 14/14/14 13/13/13
f 133/133/133 7/7/7 132/132/132
f 128/128/128 131/131/131 130/130/130
f 130/130/130 129/129/129 128/128/128
f 10/10/10 127/127/127 4/4/4
f 127/127/127 126/126/126 4/4/4
f 126/126/126 3/3/3 4/4/4
f 124/124/124 125/125/125 2/2/2
f 2/2/2 1/1/1 124/124/124
f 8/8/8 5/5/5 6/6/6
f 6/6/6 9/9/9 8/8/8
