v 0.3171102 1.02001746 -0.005439720000000063
v 0.28487316 0.9190249200000001 -0.008622240000000055
v 0.28641822 0.90086304 0.47878445999999997
v 0.28641822 0.90086304 0.47878445999999997
v 0.31865526 1.00185558 0.4307265599999999
v 0.3171102 1.02001746 -0.005439720000000063
v -0.26729208000000004 -0.3545876399999999 0.86916126
v -0.20865570000000003 -0.08970719999999996 0.8344888200000001
v -0.20077926000000001 -0.07277621999999996 0.7320422999999999
v -0.26729208000000004 -0.3545876399999999 0.86916126
v -0.20077926000000001 -0.07277621999999996 0.7320422999999999
v -0.23544510000000002 -0.07839743999999994 0.8254402200000001
v -0.5669056800000001 0.68580666 -4.199354655014686e-17
v -0.5426553 0.68580666 0.37033325999999994
v -0.5426553 0.9005964000000001 0.37033325999999994
v -0.5426553 0.9005964000000001 0.37033325999999994
v -0.55566654 0.92766696 -0.0010672200000000568
v -0.5669056800000001 0.68580666 -4.199354655014686e-17
v -0.46297614 0.15372918000000005 0.48203034000000006
v -0.43732260000000006 0.20558868000000005 0.48551580000000005
v -0.46772418000000004 0.23373240000000006 0.40961646000000007
v 0.5180934 0.8410710000000001 -0.004352040000000052
v 0.57095544 0.9470637 -0.012852180000000058
v 0.54124686 0.97436196 0.4936714199999999
v 0.54124686 0.97436196 0.4936714199999999
v 0.49112448000000003 0.8481468600000001 0.5161094399999999
v 0.5180934 0.8410710000000001 -0.004352040000000052
v 0.49112448000000003 0.8481468600000001 0.5161094399999999
v 0.49261806 0.66308814 0.52479174
v 0.54807324 0.63758904 0.37005605999999996
v 0.546579 0.8226477600000001 0.41070083999999996
v 0.49112448000000003 0.8481468600000001 0.5161094399999999
v 0.49261806 0.66308814 0.52479174
v 0.28641822 0.90086304 0.47878445999999997
v 0.54124686 0.97436196 0.4936714199999999
v 0.31865526 1.00185558 0.4307265599999999
v 0.28791246 0.71580432 0.48746675999999994
v 0.49261806 0.66308814 0.52479174
v 0.16173366 0.91666212 0.47878445999999997
v 0.16322724000000002 0.7236774600000001 0.48746675999999994
v 0.0361152 0.86187552 0.47878445999999997
v 0.03760878 0.6768168 0.48746675999999994
v -0.11526438 0.8436133200000001 0.44486639999999994
v -0.14169606 0.62046204 0.48746675999999994
v 0.03012042 -0.02606405999999995 0.8133760800000001
v 0.005455560000000001 0.013615800000000051 0.82935402
v -0.007999200000000001 0.03443880000000005 0.72448728
v -0.007999200000000001 0.03443880000000005 0.72448728
v 0.01666566 -0.005241719999999955 0.73026228
v 0.22415580000000002 0.13062852000000003 0.6997174800000001
v 0.16516962000000002 0.18537420000000004 0.6913638599999999
v 0.18740502 0.15898872000000006 0.81776772
v 0.18740502 0.15898872000000006 0.81776772
v 0.24639186000000002 0.10424238000000006 0.8017897800000001
v 0.38651976000000005 0.12491820000000003 0.68836284
v 0.37264194000000006 0.14495448000000005 0.7848786000000001
v 0.2570601 0.21437922000000006 0.83747466
v 0.2348478 0.20063604000000004 0.6964313400000001
v 0.38651976000000005 0.12491820000000003 0.68836284
v 0.45469116000000004 0.31020858000000007 0.6705032400000001
v 0.43485948 0.31406100000000003 0.76857858
v 0.37264194000000006 0.14495448000000005 0.7848786000000001
v 0.38651976000000005 0.12491820000000003 0.68836284
v 0.45469116000000004 0.31020858000000007 0.6705032400000001
v 0.10881288 0.3799692600000001 0.6907942800000001
v 0.1096425 0.34412862000000005 0.82896
v 0.18301272 0.28869126000000006 0.8086445400000001
v 0.196911 0.27764088000000003 0.6946816800000001
v 0.10881288 0.3799692600000001 0.6907942800000001
v -0.3206544 0.94950042 -0.0010672200000000581
v -0.3206544 0.94950042 0.32956637999999994
v -0.38023326 0.68580666 0.37033325999999994
v -0.35924658000000004 0.6494103 -3.976491226141612e-17
v -0.3206544 0.94950042 -0.0010672200000000581
v -0.10180962 0.82450368 0.15022259999999996
v -0.12939564 0.87919788 0.15502013999999995
v -0.13623324 0.8748530999999999 -0.009544920000000054
v -0.13623324 0.8748530999999999 -0.009544920000000054
v -0.10864722000000002 0.8201589 -0.014342460000000052
v 0.6690809400000001 0.6823542 -0.00039270000000004185
v 0.54807324 0.63673632 -3.898885480944324e-17
v 0.54807324 0.63758904 0.37005605999999996
v 0.6330832200000001 0.64888296 0.33812195999999994
v 0.6690809400000001 0.6823542 -0.00039270000000004185
v 0.7193505 0.50427168 0.18164783999999998
v 0.7528085400000001 0.49415388000000005 -0.0003927000000000303
v -0.14449116 0.3727429200000001 0.8020841400000001
v -0.18569562000000003 0.3432026400000001 0.68168034
v -0.04546872 0.21549792000000006 0.71918418
v -0.04546872 0.21549792000000006 0.71918418
v -0.0455829 0.29128374 0.82612728
v 0.10209011999999999 0.4187370000000001 0.81968964
v -0.04546872 0.21549792000000006 0.71918418
v 0.10881288 0.3799692600000001 0.6907942800000001
v 0.32814078 0.4637397600000001 0.7856534400000001
v 0.32814078 0.4637397600000001 0.7856534400000001
v 0.34567038 0.4643291400000001 0.68696364
v -0.16034172 0.51786504 0.48396348
v -0.044649 0.5384253600000001 0.7743443400000001
v -0.12758064 0.5777752200000001 0.75055068
v -0.20948994 0.5431509600000001 0.48613752000000005
v -0.16034172 0.51786504 0.48396348
v -0.34434312 0.25224342000000005 0.60877212
v -0.35106786 0.2743989600000001 0.48400242000000004
v -0.36774870000000004 0.20161614000000005 0.49493004
v -0.36774870000000004 0.20161614000000005 0.49493004
v -0.3648704400000001 0.19459638000000007 0.6236920800000001
v -0.44377674 0.20464818000000004 0.5799123
v -0.3648704400000001 0.19459638000000007 0.6236920800000001
v -0.43732260000000006 0.20558868000000005 0.48551580000000005
v -0.46297614 0.15372918000000005 0.48203034000000006
v -0.47043150000000006 0.14086710000000005 0.59725446
v -0.45978305999999997 0.08619336000000004 0.52743768
v -0.39712332 0.13663782000000005 0.64543974
v -0.37952640000000004 0.07234128000000004 0.56117028
v -0.40609470000000003 -0.028007099999999962 0.68464638
v -0.40317420000000004 -0.013968239999999963 0.595419
v -0.0194106 0.9688080600000001 0.21685553999999993
v -0.011934120000000001 0.969903 -0.00710688000000006
v 0.04427346 0.86307012 0.21534017999999996
v -0.011934120000000001 0.969903 -0.00710688000000006
v 0.04763286 0.86356182 0.13685033999999996
v -0.011934120000000001 0.969903 -0.00710688000000006
v 0.05174994000000001 0.8641650600000002 -0.008622240000000052
v 0.16864188000000002 0.9413157600000001 -0.008622240000000057
v 0.10495782000000001 1.0470537000000002 -0.0071068800000000645
v 0.10150602 1.03473546 0.28573313999999994
v 0.10150602 1.03473546 0.28573313999999994
v 0.16519008000000002 0.92899686 0.2842177799999999
v 0.546579 0.8226477600000001 0.41070083999999996
v 0.54807324 0.63758904 0.37005605999999996
v 0.54807324 0.63673632 -3.898885480944324e-17
v 0.54807324 0.63673632 -3.898885480944324e-17
v 0.546579 0.82179504 -0.00862224000000005
v 0.49112448000000003 0.8481468600000001 0.5161094399999999
v 0.5180934 0.8410710000000001 -0.004352040000000052
v -0.09950622 0.12223596000000005 0.7107249600000001
v -0.13646028000000002 0.22689480000000004 0.6948559200000001
v -0.16658796 0.22479270000000004 0.78590952
v -0.16658796 0.22479270000000004 0.78590952
v -0.10931316 0.11576730000000006 0.8190138000000001
v -0.01908588 0.04469718000000005 0.73182846
v -0.039527400000000004 0.03408570000000006 0.8601813
v -0.08694576 -0.10800107999999996 0.8567625
v -0.06846114 -0.12649031999999996 0.74450244
v -0.007063980000000001 0.23082048000000005 0.8284485
v -0.04546872 0.21549792000000006 0.71918418
v 0.08033784000000001 0.15844092000000004 0.7122172200000001
v 0.085404 0.18888342000000005 0.82332822
v -0.007063980000000001 0.23082048000000005 0.8284485
v 0.196911 0.27764088000000003 0.6946816800000001
v 0.18301272 0.28869126000000006 0.8086445400000001
v -0.52110564 -0.08536043999999997 0.6399340200000001
v -0.32133222 -0.023837219999999958 0.72069096
v -0.40609470000000003 -0.028007099999999962 0.68464638
v -0.40609470000000003 -0.028007099999999962 0.68464638
v -0.50917218 -0.028704059999999962 0.64548528
v -0.6005155200000001 -0.07808657999999997 0.59812434
v -0.40609470000000003 -0.028007099999999962 0.68464638
v -0.40317420000000004 -0.013968239999999963 0.595419
v -0.5213769 -0.018660179999999967 0.5600832600000001
v -0.57433794 -0.028007099999999965 0.59078646
v -0.63454842 -0.059569619999999976 0.48746676
v -0.6326680800000001 -0.00971849999999997 0.48746676
v -0.5690381400000001 -0.020720699999999967 0.5033358
v -0.6326680800000001 -0.00971849999999997 0.48746676
v -0.35229282 -0.3545876399999999 0.82903392
v -0.41254026 -0.3545876399999999 0.9106402800000001
v -0.41254026 -0.74872116 0.92306478
v -0.41254026 -0.3545876399999999 0.9106402800000001
v -0.32071446000000003 -0.04239905999999996 0.79663848
v -0.41254026 -0.74872116 0.92306478
v -0.348942 -0.74872116 0.87449802
v -0.41254026 -0.74872116 0.92306478
v -0.38310492 -1.32180246 0.7306246200000003
v -0.02860638 -1.32180246 0.8606763000000002
v -0.02483184 -0.74872116 1.0176196800000001
v -0.26729208000000004 -0.3545876399999999 0.86916126
v -0.02105796 -0.3545876399999999 0.97264596
v -0.046859340000000006 -0.15801191999999997 0.8891388000000001
v -0.20865570000000003 -0.08970719999999996 0.8344888200000001
v -0.32071446000000003 -0.04239905999999996 0.79663848
v -0.23544510000000002 -0.07839743999999994 0.8254402200000001
v -0.41254026 -0.3545876399999999 0.9106402800000001
v -0.58779798 -0.10198847999999996 0.6673293
v -0.58779798 -0.3545876399999999 0.6596759400000001
v -0.7008672 -0.10198847999999996 0.55966746
v -0.74119056 -0.24392081999999995 0.55584078
v -0.79498122 -0.7221251399999999 0.5558407800000001
v -0.58779798 -0.74872116 0.6544817400000001
v -0.41254026 -0.74872116 0.92306478
v -0.67143186 -1.31815728 0.5558407800000001
v -0.55836264 -1.31720226 0.6147121200000001
v 0.37264194000000006 0.14495448000000005 0.7848786000000001
v 0.43485948 0.31406100000000003 0.76857858
v 0.29611494 0.32499324000000007 0.8001246000000001
v 0.2570601 0.21437922000000006 0.83747466
v -0.04546872 0.21549792000000006 0.71918418
v -0.007063980000000001 0.23082048000000005 0.8284485
v 0.1096425 0.34412862000000005 0.82896
v 0.10881288 0.3799692600000001 0.6907942800000001
v 0.085404 0.18888342000000005 0.82332822
v 0.18301272 0.28869126000000006 0.8086445400000001
v 0.1096425 0.34412862000000005 0.82896
v -0.007063980000000001 0.23082048000000005 0.8284485
v -0.35924658000000004 0.6494103 -3.976491226141612e-17
v -0.38023326 0.68580666 0.37033325999999994
v -0.5426553 0.68580666 0.37033325999999994
v -0.5669056800000001 0.68580666 -4.199354655014686e-17
v -0.55566654 0.92766696 -0.0010672200000000568
v -0.5426553 0.9005964000000001 0.37033325999999994
v -0.3206544 0.94950042 0.32956637999999994
v -0.3206544 0.94950042 -0.0010672200000000581
v -0.5426553 0.9005964000000001 0.37033325999999994
v -0.5426553 0.68580666 0.37033325999999994
v -0.38023326 0.68580666 0.37033325999999994
v -0.3206544 0.94950042 0.32956637999999994
v 0.04763286 0.86356182 0.13685033999999996
v 0.017468220000000003 0.93577968 0.13592765999999995
v -0.12939564 0.87919788 0.15502013999999995
v -0.10180962 0.82450368 0.15022259999999996
v 0.63613242 0.45462516000000003 0.19895897999999998
v 0.7193505 0.50427168 0.18164783999999998
v 0.6330832200000001 0.64888296 0.33812195999999994
v 0.54807324 0.63758904 0.37005605999999996
v 0.63613242 0.44488158 -2.7241140147330856e-17
v 0.7528085400000001 0.49415388000000005 -0.0003927000000000303
v 0.7193505 0.50427168 0.18164783999999998
v 0.63613242 0.45462516000000003 0.19895897999999998
v 0.25860318 0.70888026 0.6817602
v 0.25124022 0.6641098200000001 0.75672696
v 0.32814078 0.4637397600000001 0.7856534400000001
v 0.34567038 0.4643291400000001 0.68696364
v 0.16519008000000002 0.92899686 0.2842177799999999
v 0.10150602 1.03473546 0.28573313999999994
v -0.0194106 0.9688080600000001 0.21685553999999993
v 0.04427346 0.86307012 0.21534017999999996
v 0.3171102 1.02001746 -0.005439720000000063
v 0.31865526 1.00185558 0.4307265599999999
v 0.54124686 0.97436196 0.4936714199999999
v 0.57095544 0.9470637 -0.012852180000000058
v -0.13623324 0.8748530999999999 -0.009544920000000054
v -0.12939564 0.87919788 0.15502013999999995
v 0.017468220000000003 0.93577968 0.13592765999999995
v 0.024163920000000002 0.93638226 -0.009544920000000057
v 0.10495782000000001 1.0470537000000002 -0.0071068800000000645
v -0.011934120000000001 0.969903 -0.00710688000000006
v -0.0194106 0.9688080600000001 0.21685553999999993
v 0.10150602 1.03473546 0.28573313999999994
v -0.49460136 0.27014724 -0.004350720000000016
v -0.6627390000000001 0.19099278 -1.1694934834362732e-17
v -0.6627390000000001 0.19099278000000006 0.44766744
v -0.48436476000000006 0.25887048000000007 0.46555014
v 0.005455560000000001 0.013615800000000051 0.82935402
v 0.03012042 -0.02606405999999995 0.8133760800000001
v 0.14266230000000002 -0.023020799999999952 0.80491818
v 0.10776546000000001 0.05146350000000005 0.82089612
v 0.24639186000000002 0.10424238000000006 0.8017897800000001
v 0.18740502 0.15898872000000006 0.81776772
v 0.43485948 0.31406100000000003 0.76857858
v 0.45469116000000004 0.31020858000000007 0.6705032400000001
v 0.27774582000000003 0.32213214000000007 0.68487474
v 0.29611494 0.32499324000000007 0.8001246000000001
v 0.2348478 0.20063604000000004 0.6964313400000001
v 0.2570601 0.21437922000000006 0.83747466
v -0.06846114 -0.12649031999999996 0.74450244
v -0.08694576 -0.10800107999999996 0.8567625
v -0.27748775999999997 -0.013669259999999952 0.7772648400000001
v -0.28069338 -0.02502587999999996 0.7064851200000001
v -0.28035414000000003 0.12367674000000006 0.7493019599999999
v -0.28855662000000004 0.14763936000000005 0.6736884
v -0.16658796 0.22479270000000004 0.78590952
v -0.13646028000000002 0.22689480000000004 0.6948559200000001
v -0.36774870000000004 0.20161614000000005 0.49493004
v -0.35106786 0.2743989600000001 0.48400242000000004
v -0.36417876 0.24974796000000007 0.4200233400000001
v -0.43732260000000006 0.20558868000000005 0.48551580000000005
v -0.46772418000000004 0.23373240000000006 0.40961646000000007
v -0.46297614 0.15372918000000005 0.48203034000000006
v -0.46772418000000004 0.23373240000000006 0.40961646000000007
v -0.48436476000000006 0.25887048000000007 0.46555014
v -0.47734302 0.22707762 -1.390449402454995e-17
v -0.49460136 0.27014724 -0.004350720000000016
v -0.6627390000000001 0.19099278000000006 0.44766744
v -0.6627390000000001 0.19099278 -1.1694934834362732e-17
v -0.6840286200000001 -0.0280071 1.7149402684199919e-18
v -0.6326680800000001 -0.00971849999999997 0.48746676
v -0.7125808800000001 -0.08717808 5.338117831390595e-18
v -0.63454842 -0.059569619999999976 0.48746676
v -0.71557068 -0.10198847999999996 0.48746676
v -0.81286986 -0.10198848 6.2449932790951925e-18
v 0.62271858 0.007683720000000041 0.67250568
v 0.22415580000000002 0.13062852000000003 0.6997174800000001
v 0.24639186000000002 0.10424238000000006 0.8017897800000001
v 0.26492664 0.08224854000000005 0.88687302
v 0.14266230000000002 -0.023020799999999952 0.80491818
v 0.15829902 -0.047925239999999945 0.8880339600000001
v 0.042271020000000006 -0.04486745999999995 0.8884299600000001
v 0.03012042 -0.02606405999999995 0.8133760800000001
v -0.046859340000000006 -0.15801191999999997 0.8891388000000001
v 0.01666566 -0.005241719999999955 0.73026228
v -0.06846114 -0.12649031999999996 0.74450244
v -0.20865570000000003 -0.08970719999999996 0.8344888200000001
v -0.20077926000000001 -0.07277621999999996 0.7320422999999999
v 0.49261806 0.66308814 0.52479174
v 0.54807324 0.63818634 0.48746675999999994
v 0.54807324 0.63758904 0.37005605999999996
v 0.50831352 0.6345609600000001 0.60273576
v 0.28791246 0.71580432 0.48746675999999994
v 0.25860318 0.70888026 0.6817602
v 0.16322724000000002 0.7236774600000001 0.48746675999999994
v 0.03760878 0.6768168 0.48746675999999994
v 0.04316598000000001 0.6576048600000001 0.76135224
v 0.25124022 0.6641098200000001 0.75672696
v -0.12758064 0.5777752200000001 0.75055068
v -0.14169606 0.62046204 0.48746675999999994
v -0.20948994 0.5431509600000001 0.48613752000000005
v -0.36569214 0.24880878 -1.52351438013379e-17
v -0.47734302 0.22707762 -1.390449402454995e-17
v -0.46772418000000004 0.23373240000000006 0.40961646000000007
v -0.36417876 0.24974796000000007 0.4200233400000001
v -0.35106786 0.27439896 -1.6802090402668132e-17
v -0.35106786 0.2743989600000001 0.48400242000000004
v -0.23669382 0.34340394 -0.002577960000000021
v -0.23669382 0.34340394 0.4848888
v -0.34434312 0.25224342000000005 0.60877212
v -0.18569562000000003 0.3432026400000001 0.68168034
v -0.26513586 0.46162710000000007 -0.0021014400000000286
v -0.26752308 0.44998470000000007 0.48525642
v -0.20948994 0.5431509600000001 0.48613752000000005
v -0.21162570000000003 0.56113728 -0.0014275800000000344
v -0.14169606 0.62046204 0.48746675999999994
v -0.10715364000000001 0.63510018 -0.005720220000000039
v -0.10180962 0.82450368 0.15022259999999996
v -0.11526438 0.8436133200000001 0.44486639999999994
v -0.10864722000000002 0.8201589 -0.014342460000000052
v -0.7008672 -0.10198847999999996 0.55966746
v -0.63454842 -0.059569619999999976 0.48746676
v -0.71557068 -0.10198847999999996 0.48746676
v -0.6005155200000001 -0.07808657999999997 0.59812434
v -0.58779798 -0.10198847999999996 0.6673293
v -0.52110564 -0.08536043999999997 0.6399340200000001
v -0.32071446000000003 -0.04239905999999996 0.79663848
v -0.32133222 -0.023837219999999958 0.72069096
v -0.20077926000000001 -0.07277621999999996 0.7320422999999999
v -0.23544510000000002 -0.07839743999999994 0.8254402200000001
v 0.18740502 0.15898872000000006 0.81776772
v 0.16516962000000002 0.18537420000000004 0.6913638599999999
v 0.09245016 0.07585644000000004 0.7103236800000001
v 0.10776546000000001 0.05146350000000005 0.82089612
v 0.005455560000000001 0.013615800000000051 0.82935402
v -0.007999200000000001 0.03443880000000005 0.72448728
v -0.16658796 0.22479270000000004 0.78590952
v -0.28035414000000003 0.12367674000000006 0.7493019599999999
v -0.27748775999999997 -0.013669259999999952 0.7772648400000001
v -0.10931316 0.11576730000000006 0.8190138000000001
v -0.039527400000000004 0.03408570000000006 0.8601813
v -0.08694576 -0.10800107999999996 0.8567625
v 0.04427346 0.86307012 0.21534017999999996
v 0.04763286 0.86356182 0.13685033999999996
v -0.10180962 0.82450368 0.15022259999999996
v -0.11526438 0.8436133200000001 0.44486639999999994
v 0.0361152 0.86187552 0.47878445999999997
v 0.16519008000000002 0.92899686 0.2842177799999999
v 0.16173366 0.91666212 0.47878445999999997
v 0.28641822 0.90086304 0.47878445999999997
v 0.28487316 0.9190249200000001 -0.008622240000000055
v 0.16864188000000002 0.9413157600000001 -0.008622240000000057
v -0.44377674 0.20464818000000004 0.5799123
v -0.47043150000000006 0.14086710000000005 0.59725446
v -0.39712332 0.13663782000000005 0.64543974
v -0.3648704400000001 0.19459638000000007 0.6236920800000001
v -0.28855662000000004 0.14763936000000005 0.6736884
v -0.34434312 0.25224342000000005 0.60877212
v -0.40609470000000003 -0.028007099999999962 0.68464638
v -0.18569562000000003 0.3432026400000001 0.68168034
v -0.32133222 -0.023837219999999958 0.72069096
v -0.13646028000000002 0.22689480000000004 0.6948559200000001
v -0.28069338 -0.02502587999999996 0.7064851200000001
v -0.04546872 0.21549792000000006 0.71918418
v -0.20077926000000001 -0.07277621999999996 0.7320422999999999
v -0.06846114 -0.12649031999999996 0.74450244
v -0.09950622 0.12223596000000005 0.7107249600000001
v -0.01908588 0.04469718000000005 0.73182846
v 0.01666566 -0.005241719999999955 0.73026228
v 0.08033784000000001 0.15844092000000004 0.7122172200000001
v 0.12734700000000002 0.0013714800000000445 0.7235111399999999
v 0.22415580000000002 0.13062852000000003 0.6997174800000001
v 0.2348478 0.20063604000000004 0.6964313400000001
v 0.196911 0.27764088000000003 0.6946816800000001
v 0.38651976000000005 0.12491820000000003 0.68836284
v 0.62271858 0.007683720000000041 0.67250568
v 0.27774582000000003 0.32213214000000007 0.68487474
v 0.5553801 0.26944434 0.6645295800000001
v 0.10881288 0.3799692600000001 0.6907942800000001
v 0.45469116000000004 0.31020858000000007 0.6705032400000001
v 0.34567038 0.4643291400000001 0.68696364
v 0.5047237800000001 0.4251139200000001 0.6645295800000001
v 0.25860318 0.70888026 0.6817602
v 0.50831352 0.6345609600000001 0.60273576
v -0.02105796 -0.3545876399999999 0.97264596
v 0.042271020000000006 -0.04486745999999995 0.8884299600000001
v -0.046859340000000006 -0.15801191999999997 0.8891388000000001
v 0.15829902 -0.047925239999999945 0.8880339600000001
v 0.34684254 -0.3545876399999999 0.9056447400000001
v 0.26492664 0.08224854000000005 0.88687302
v -0.02483184 -0.74872116 1.0176196800000001
v 0.62271858 -0.3545876399999999 0.6645295800000001
v 0.62271858 0.007683720000000041 0.67250568
v -0.02860638 -1.32180246 0.8606763000000002
v 0.32128668000000005 -1.32180246 0.7906140000000001
v 0.34684254 -0.74872116 0.9490879200000001
v 0.62271858 -0.74482914 0.6593360400000001
v 0.52227648 -1.31720226 0.6195664200000002
v -0.16034172 0.51786504 0.48396348
v -0.20948994 0.5431509600000001 0.48613752000000005
v -0.26752308 0.44998470000000007 0.48525642
v -0.19604112 0.46287120000000004 0.48534948
v -0.044649 0.5384253600000001 0.7743443400000001
v -0.18569562000000003 0.3432026400000001 0.68168034
v -0.14449116 0.3727429200000001 0.8020841400000001
v -0.46297614 0.15372918000000005 0.48203034000000006
v -0.48436476000000006 0.25887048000000007 0.46555014
v -0.6627390000000001 0.19099278000000006 0.44766744
v -0.5569799400000001 0.13909302000000004 0.47278902
v -0.6326680800000001 -0.00971849999999997 0.48746676
v -0.5690381400000001 -0.020720699999999967 0.5033358
v -0.45978305999999997 0.08619336000000004 0.52743768
v -0.5213769 -0.018660179999999967 0.5600832600000001
v -0.40317420000000004 -0.013968239999999963 0.595419
v -0.37952640000000004 0.07234128000000004 0.56117028
v -0.044649 0.5384253600000001 0.7743443400000001
v -0.14449116 0.3727429200000001 0.8020841400000001
v -0.0455829 0.29128374 0.82612728
v 0.10209011999999999 0.4187370000000001 0.81968964
v 0.32814078 0.4637397600000001 0.7856534400000001
v 0.25124022 0.6641098200000001 0.75672696
v 0.04316598000000001 0.6576048600000001 0.76135224
v -0.12758064 0.5777752200000001 0.75055068
v -0.74119056 -0.24392081999999995 0.55584078
v -0.7008672 -0.10198847999999996 0.55966746
v -0.71557068 -0.10198847999999996 0.48746676
v -0.81286986 -0.10198848 6.2449932790951925e-18
v -0.90231834 -0.24392082 1.4935842572919885e-17
v -0.75589404 -0.24392081999999995 0.48746676
v -0.79498122 -0.7221251399999999 0.5558407800000001
v -0.9556912200000001 -0.7221251399999999 4.4217412064241714e-17
v -0.8096847000000001 -0.7221251399999999 0.48746676000000005
v -0.67143186 -1.31815728 0.5558407800000001
v -0.8168945400000001 -1.31683992 8.063318965087283e-17
v -0.68613534 -1.31815728 0.48746676000000005
v 0.79082124 -0.74482848 0.26580906000000004
v 0.68175096 -1.31147082 0.2536228200000001
v 0.8068764 -1.3198534800000001 8.081771698127477e-17
v 0.9381022200000001 -0.74482914 -0.0011681999999999546
v 0.6113665800000001 -1.31815728 0.5460820200000002
v 0.78219372 -0.35458764000000004 0.27799464000000007
v 0.9516302400000001 -0.35458764000000004 -0.0023363999999999785
v 0.8938287600000001 0.00768372 -4.704921551772251e-19
v 0.7204362 -0.74482914 0.5521751400000001
v 0.52227648 -1.31720226 0.6195664200000002
v 0.62271858 -0.74482914 0.6593360400000001
v 0.62271858 -0.3545876399999999 0.6645295800000001
v 0.71180868 -0.35458764000000004 0.5582676
v 0.7919419200000001 0.00768372000000002 0.30981786
v 0.7581552 0.39331512 0.003121799999999976
v 0.71180868 0.007683720000000035 0.5781679200000001
v 0.62271858 0.007683720000000041 0.67250568
v 0.5553801 0.26944434 0.6645295800000001
v 0.6352302000000001 0.3683394 0.5582676
v 0.7153634400000001 0.39476580000000006 0.27799464
v 0.63613242 0.44488158 -2.7241140147330856e-17
v 0.63613242 0.45462516000000003 0.19895897999999998
v 0.55042416 0.41319168000000006 0.5582676
v 0.5047237800000001 0.4251139200000001 0.6645295800000001
v 0.50831352 0.6345609600000001 0.60273576
v 0.54807324 0.63818634 0.48746675999999994
v 0.56607408 0.43637088 0.48746676
v 0.54807324 0.63758904 0.37005605999999996
vt 0.154757 0.183184
vt 0.129354 0.181063
vt 0.143028 0.022831
vt 0.143028 0.022831
vt 0.167155 0.041578
vt 0.154757 0.183184
vt 0.097823 0.202833
vt 0.036160 0.157811
vt 0.015944 0.186395
vt 0.097823 0.202833
vt 0.015944 0.186395
vt 0.017851 0.217582
vt 0.800698 0.327606
vt 0.807713 0.452155
vt 0.735328 0.454146
vt 0.735328 0.454146
vt 0.731480 0.333161
vt 0.800698 0.327606
vt 0.581926 0.296142
vt 0.588738 0.303110
vt 0.613566 0.315400
vt 0.273046 0.185913
vt 0.239882 0.191818
vt 0.241428 0.026869
vt 0.241428 0.026869
vt 0.276978 0.016375
vt 0.273046 0.185913
vt 0.718688 0.130053
vt 0.720044 0.189084
vt 0.679054 0.188798
vt 0.689478 0.137801
vt 0.718688 0.130053
vt 0.720044 0.189084
vt 0.782939 0.108847
vt 0.701024 0.089551
vt 0.770661 0.074743
vt 0.784296 0.167878
vt 0.720044 0.189084
vt 0.822720 0.102298
vt 0.824147 0.163837
vt 0.863427 0.118071
vt 0.864784 0.177102
vt 0.911310 0.120165
vt 0.922694 0.192702
vt 0.770495 0.852286
vt 0.770880 0.835506
vt 0.806799 0.838325
vt 0.806799 0.838325
vt 0.800414 0.853920
vt 0.804694 0.744410
vt 0.812923 0.763389
vt 0.770593 0.764555
vt 0.770593 0.764555
vt 0.769423 0.750410
vt 0.459226 0.229855
vt 0.490411 0.229649
vt 0.503243 0.184518
vt 0.456725 0.173023
vt 0.459226 0.229855
vt 0.464644 0.284497
vt 0.496798 0.281328
vt 0.490411 0.229649
vt 0.459226 0.229855
vt 0.464644 0.284497
vt 0.567220 0.312304
vt 0.520121 0.320000
vt 0.520445 0.290207
vt 0.552909 0.269141
vt 0.567220 0.312304
vt 0.668127 0.331919
vt 0.668815 0.432323
vt 0.590918 0.446526
vt 0.578120 0.333498
vt 0.668127 0.331919
vt 0.873443 0.532956
vt 0.875137 0.549907
vt 0.821379 0.552763
vt 0.821379 0.552763
vt 0.819685 0.535812
vt 0.371529 0.188061
vt 0.335499 0.184407
vt 0.344663 0.064342
vt 0.370381 0.077038
vt 0.371529 0.188061
vt 0.428153 0.134566
vt 0.436764 0.192846
vt 0.963670 0.988497
vt 0.993858 0.962861
vt 0.945129 0.942988
vt 0.945129 0.942988
vt 0.935205 0.978323
vt 0.864589 0.986790
vt 0.945129 0.942988
vt 0.860745 0.944822
vt 0.784707 0.978093
vt 0.784707 0.978093
vt 0.779849 0.946035
vt 0.896026 0.591000
vt 0.994214 0.614336
vt 0.968733 0.627358
vt 0.884560 0.600044
vt 0.896026 0.591000
vt 0.792566 0.087560
vt 0.787286 0.046107
vt 0.810612 0.048044
vt 0.810612 0.048044
vt 0.811088 0.089849
vt 0.830749 0.073890
vt 0.811088 0.089849
vt 0.828813 0.043727
vt 0.846276 0.040789
vt 0.852437 0.077489
vt 0.868855 0.054809
vt 0.861567 0.106299
vt 0.883599 0.080897
vt 0.917662 0.113721
vt 0.915504 0.087833
vt 0.890957 0.274970
vt 0.891703 0.197705
vt 0.920958 0.277058
vt 0.891703 0.197705
vt 0.921007 0.249985
vt 0.891703 0.197705
vt 0.921704 0.199795
vt 0.813262 0.200420
vt 0.843910 0.196626
vt 0.843928 0.298042
vt 0.843928 0.298042
vt 0.813281 0.301837
vt 0.293541 0.051871
vt 0.344663 0.064342
vt 0.335499 0.184407
vt 0.335499 0.184407
vt 0.283151 0.187921
vt 0.276978 0.016375
vt 0.273046 0.185913
vt 0.557947 0.514892
vt 0.518667 0.501751
vt 0.532321 0.469587
vt 0.532321 0.469587
vt 0.574915 0.481136
vt 0.589653 0.526479
vt 0.608301 0.483054
vt 0.653195 0.483497
vt 0.639458 0.526887
vt 0.535133 0.358646
vt 0.573436 0.367554
vt 0.551412 0.401420
vt 0.516799 0.385892
vt 0.535133 0.358646
vt 0.518789 0.444083
vt 0.488134 0.421405
vt 0.066018 0.749359
vt 0.143565 0.735473
vt 0.111335 0.735716
vt 0.111335 0.735716
vt 0.073094 0.736101
vt 0.035001 0.744984
vt 0.111335 0.735716
vt 0.098292 0.710536
vt 0.055831 0.714216
vt 0.044082 0.728837
vt 0.007251 0.717030
vt 0.010019 0.704993
vt 0.031768 0.705468
vt 0.010019 0.704993
vt 0.327213 0.555839
vt 0.324581 0.573195
vt 0.196126 0.570366
vt 0.324581 0.573195
vt 0.428480 0.559010
vt 0.196126 0.570366
vt 0.197150 0.546438
vt 0.196126 0.570366
vt 0.012349 0.580835
vt 0.013720 0.457790
vt 0.198248 0.441137
vt 0.326378 0.533399
vt 0.327159 0.446458
vt 0.392010 0.464427
vt 0.413557 0.520307
vt 0.428480 0.559010
vt 0.417124 0.529560
vt 0.324581 0.573195
vt 0.408458 0.655006
vt 0.326336 0.654944
vt 0.408884 0.701669
vt 0.362385 0.713919
vt 0.206262 0.728635
vt 0.198111 0.654089
vt 0.196126 0.570366
vt 0.013319 0.688658
vt 0.013841 0.647467
vt 0.504940 0.263920
vt 0.508939 0.205001
vt 0.549723 0.222393
vt 0.545124 0.262156
vt 0.573436 0.367554
vt 0.535133 0.358646
vt 0.520121 0.320000
vt 0.567220 0.312304
vt 0.911781 0.873832
vt 0.890957 0.913697
vt 0.868850 0.897274
vt 0.890595 0.850158
vt 0.867092 0.323786
vt 0.859424 0.453874
vt 0.807713 0.452155
vt 0.800698 0.327606
vt 0.731480 0.333161
vt 0.735328 0.454146
vt 0.668815 0.432323
vt 0.668127 0.331919
vt 0.843268 0.607854
vt 0.909357 0.613858
vt 0.905755 0.663649
vt 0.821662 0.676373
vt 0.918360 0.660642
vt 0.919700 0.639331
vt 0.973278 0.639578
vt 0.971190 0.657687
vt 0.559101 0.763095
vt 0.558389 0.728993
vt 0.620815 0.731238
vt 0.633616 0.759160
vt 0.448666 0.533025
vt 0.445466 0.493398
vt 0.502576 0.500375
vt 0.508445 0.531262
vt 0.706988 0.948612
vt 0.723831 0.973157
vt 0.784707 0.978093
vt 0.779849 0.946035
vt 0.944901 0.935457
vt 0.932362 0.901155
vt 0.977907 0.882596
vt 0.992042 0.916673
vt 0.154757 0.183184
vt 0.167155 0.041578
vt 0.241428 0.026869
vt 0.239882 0.191818
vt 0.821379 0.552763
vt 0.875137 0.549907
vt 0.875392 0.597791
vt 0.828429 0.604310
vt 0.843910 0.196626
vt 0.891703 0.197705
vt 0.890957 0.274970
vt 0.843928 0.298042
vt 0.701352 0.528926
vt 0.701348 0.473512
vt 0.848893 0.473512
vt 0.856497 0.528194
vt 0.468590 0.476119
vt 0.459703 0.486476
vt 0.423809 0.479754
vt 0.437347 0.458836
vt 0.395365 0.434425
vt 0.415916 0.420874
vt 0.496798 0.281328
vt 0.464644 0.284497
vt 0.475788 0.330824
vt 0.511281 0.321468
vt 0.481007 0.366482
vt 0.527555 0.354149
vt 0.427653 0.375733
vt 0.456005 0.369772
vt 0.471660 0.421908
vt 0.453623 0.438395
vt 0.495162 0.449751
vt 0.479054 0.468687
vt 0.532321 0.469587
vt 0.518667 0.501751
vt 0.600479 0.818903
vt 0.615036 0.801988
vt 0.625821 0.819884
vt 0.601623 0.842619
vt 0.626309 0.855075
vt 0.581926 0.296142
vt 0.613566 0.315400
vt 0.597211 0.327177
vt 0.742449 0.305067
vt 0.747249 0.319875
vt 0.842247 0.678654
vt 0.990314 0.672845
vt 0.983802 0.740734
vt 0.818871 0.732457
vt 0.983994 0.763184
vt 0.817134 0.747376
vt 0.822456 0.774380
vt 0.992015 0.785585
vt 0.955070 0.289073
vt 0.926306 0.171981
vt 0.962077 0.171121
vt 0.991895 0.170405
vt 0.963913 0.127243
vt 0.993088 0.125469
vt 0.984500 0.088998
vt 0.958544 0.090908
vt 0.985701 0.051080
vt 0.929802 0.093023
vt 0.936129 0.054931
vt 0.951956 0.008749
vt 0.919213 0.019954
vt 0.589516 0.245785
vt 0.567480 0.240204
vt 0.557495 0.204186
vt 0.589307 0.273484
vt 0.653352 0.216383
vt 0.678410 0.274920
vt 0.692502 0.207811
vt 0.728201 0.204491
vt 0.748362 0.290859
vt 0.683979 0.301837
vt 0.801551 0.280820
vt 0.779876 0.198730
vt 0.813262 0.199569
vt 0.644401 0.010800
vt 0.681368 0.006996
vt 0.682936 0.140713
vt 0.649222 0.147739
vt 0.634912 0.011083
vt 0.641102 0.168845
vt 0.593806 0.012652
vt 0.600040 0.171543
vt 0.646907 0.209693
vt 0.592069 0.236806
vt 0.557147 0.012511
vt 0.566815 0.171331
vt 0.537582 0.171453
vt 0.527242 0.012458
vt 0.504053 0.173262
vt 0.486908 0.013243
vt 0.439933 0.063919
vt 0.441653 0.159636
vt 0.440340 0.010135
vt 0.728588 0.021432
vt 0.738320 0.055469
vt 0.713318 0.039945
vt 0.764619 0.026724
vt 0.778214 0.006284
vt 0.794157 0.024929
vt 0.878086 0.012283
vt 0.866892 0.035733
vt 0.904286 0.044586
vt 0.906614 0.011971
vt 0.770593 0.764555
vt 0.812923 0.763389
vt 0.809122 0.802457
vt 0.769971 0.803605
vt 0.770880 0.835506
vt 0.806799 0.838325
vt 0.324808 0.045547
vt 0.352840 0.007408
vt 0.397339 0.007408
vt 0.361225 0.063223
vt 0.389824 0.085392
vt 0.433273 0.068613
vt 0.061274 0.101624
vt 0.060365 0.127184
vt 0.015195 0.118610
vt 0.017131 0.022784
vt 0.065294 0.015921
vt 0.097829 0.082940
vt 0.102279 0.019633
vt 0.143028 0.022831
vt 0.129354 0.181063
vt 0.090933 0.178134
vt 0.949835 0.788063
vt 0.965283 0.804612
vt 0.944121 0.817930
vt 0.927710 0.803364
vt 0.910731 0.829430
vt 0.914801 0.788053
vt 0.966315 0.867126
vt 0.857120 0.785763
vt 0.940771 0.878433
vt 0.856376 0.825821
vt 0.928902 0.882383
vt 0.830838 0.841426
vt 0.910954 0.907239
vt 0.878226 0.938855
vt 0.857878 0.861324
vt 0.843315 0.894451
vt 0.838677 0.912788
vt 0.800432 0.871779
vt 0.805183 0.923138
vt 0.761232 0.895394
vt 0.749762 0.876284
vt 0.751833 0.849675
vt 0.713927 0.914890
vt 0.658040 0.974567
vt 0.722664 0.845480
vt 0.646870 0.891067
vt 0.765722 0.809853
vt 0.671787 0.868212
vt 0.685712 0.812655
vt 0.643362 0.840546
vt 0.682415 0.732031
vt 0.617441 0.776158
vt 0.323674 0.427264
vt 0.424245 0.401443
vt 0.387510 0.429300
vt 0.423402 0.364935
vt 0.324328 0.306445
vt 0.465672 0.331576
vt 0.195969 0.431173
vt 0.325369 0.201107
vt 0.442604 0.202412
vt 0.010925 0.419149
vt 0.011565 0.303754
vt 0.196631 0.309049
vt 0.199073 0.199963
vt 0.013799 0.227375
vt 0.896026 0.591000
vt 0.883280 0.593059
vt 0.878948 0.553024
vt 0.894378 0.567826
vt 0.994214 0.614336
vt 0.957619 0.531965
vt 0.994530 0.547948
vt 0.896578 0.503810
vt 0.863605 0.504664
vt 0.870216 0.446807
vt 0.893967 0.474804
vt 0.933051 0.442078
vt 0.941551 0.460351
vt 0.920174 0.504127
vt 0.952199 0.479397
vt 0.963431 0.515525
vt 0.931694 0.528471
vt 0.895921 0.337344
vt 0.929143 0.286171
vt 0.966513 0.302269
vt 0.951763 0.361329
vt 0.968014 0.430938
vt 0.901115 0.437610
vt 0.874728 0.378576
vt 0.872154 0.319828
vt 0.476996 0.722323
vt 0.431140 0.725334
vt 0.431629 0.702113
vt 0.434861 0.545478
vt 0.482350 0.540072
vt 0.477485 0.700276
vt 0.628770 0.722095
vt 0.634110 0.539875
vt 0.629259 0.700048
vt 0.811609 0.735659
vt 0.816028 0.554536
vt 0.812097 0.713612
vt 0.186806 0.841294
vt 0.017666 0.856357
vt 0.013387 0.766289
vt 0.184058 0.744254
vt 0.012804 0.949968
vt 0.308531 0.843728
vt 0.304702 0.739763
vt 0.421096 0.746423
vt 0.184177 0.933122
vt 0.016949 0.983469
vt 0.187738 0.977476
vt 0.309087 0.976701
vt 0.306052 0.933812
vt 0.419890 0.849374
vt 0.549701 0.764071
vt 0.418329 0.937408
vt 0.421660 0.976884
vt 0.507816 0.980348
vt 0.535968 0.940340
vt 0.546051 0.848739
vt 0.585486 0.780990
vt 0.583578 0.837888
vt 0.567215 0.952981
vt 0.571198 0.989728
vt 0.637702 0.970322
vt 0.639161 0.931739
vt 0.575192 0.930389
vt 0.641891 0.898132
vn -0.508456 0.861003 0.012055999999999949
vn -0.253003 0.966637 0.04002799999999994
vn -0.350225 0.533347 0.769989
vn -0.350225 0.533347 0.769989
vn -0.456417 0.789841 0.40967499999999996
vn -0.508456 0.861003 0.012055999999999949
vn -0.347964 0.17555500000000004 0.920924
vn -0.201668 0.856079 0.47587699999999994
vn 0.289691 0.860582 0.41890199999999994
vn -0.347964 0.17555500000000004 0.920924
vn 0.289691 0.860582 0.41890199999999994
vn 0.491153 0.505717 0.709239
vn -0.916684 -0.396644 0.048614000000000025
vn -0.453205 -0.766692 0.45474100000000006
vn -0.641092 0.35779600000000006 0.678958
vn -0.641092 0.35779600000000006 0.678958
vn -0.538244 0.841387 0.048584999999999955
vn -0.916684 -0.396644 0.048614000000000025
vn -0.618311 0.43883400000000006 0.652009
vn -0.437479 0.839653 0.3218619999999999
vn 0.102273 0.965407 0.23985499999999996
vn 0.998044 0.011004000000000003 0.061533
vn 0.913136 0.406424 0.03165299999999997
vn 0.577539 0.558363 0.59555
vn 0.577539 0.558363 0.59555
vn 0.727179 0.33154400000000006 0.601073
vn 0.998044 0.011004000000000003 0.061533
vn 0.727179 0.33154400000000006 0.601073
vn 0.396299 0.64801 0.650408
vn 0.847005 0.426062 0.317889
vn 0.960144 0.241747 0.14028999999999997
vn 0.727179 0.33154400000000006 0.601073
vn 0.396299 0.64801 0.650408
vn -0.350225 0.533347 0.769989
vn 0.577539 0.558363 0.59555
vn -0.456417 0.789841 0.40967499999999996
vn 0.086696 0.659759 0.74646
vn 0.396299 0.64801 0.650408
vn -0.076217 0.546951 0.833688
vn -0.080203 0.527437 0.8458
vn -0.286123 0.667397 0.687543
vn -0.282564 0.722894 0.630541
vn -0.482115 0.687045 0.54363
vn -0.771102 0.6022 0.20677799999999996
vn -0.854895 0.21179700000000004 0.473599
vn -0.455547 0.28886100000000003 0.842043
vn -0.991021 -0.07027899999999998 0.113744
vn -0.991021 -0.07027899999999998 0.113744
vn -0.504017 0.20101200000000005 0.839977
vn 0.375066 0.48238100000000006 0.791602
vn -0.080121 0.97284 0.21716899999999995
vn -0.00891 0.851599 0.524118
vn -0.00891 0.851599 0.524118
vn 0.222083 0.727237 0.649465
vn 0.069474 -0.3953519999999999 0.915899
vn 0.60465 -0.40144399999999997 0.687925
vn -0.606608 -0.566496 0.557772
vn -0.407352 0.003147000000000056 0.913266
vn 0.069474 -0.3953519999999999 0.915899
vn 0.535572 0.11392600000000006 0.83677
vn 0.536485 0.70425 0.46498999999999996
vn 0.60465 -0.40144399999999997 0.687925
vn 0.069474 -0.3953519999999999 0.915899
vn 0.535572 0.11392600000000006 0.83677
vn 0.568326 -0.09498999999999995 0.817302
vn -0.157022 0.62662 0.763343
vn 0.839135 0.23934600000000003 0.488432
vn 0.586772 -0.11624299999999994 0.801366
vn 0.568326 -0.09498999999999995 0.817302
vn 0.944395 0.326989 0.03457899999999998
vn 0.362922 0.81063 0.45952999999999994
vn 0.65078 -0.37640299999999993 0.659399
vn 0.360358 -0.929516 0.07837500000000006
vn 0.944395 0.326989 0.03457899999999998
vn -0.959695 0.22016 0.174688
vn -0.447713 0.21397400000000005 0.868198
vn -0.933129 0.35843 0.02824699999999998
vn -0.933129 0.35843 0.02824699999999998
vn -0.970636 -0.236002 0.04656200000000001
vn 0.443762 0.888215 0.11895299999999995
vn 0.865829 0.500339 -0.0011520000000000306
vn 0.847005 0.426062 0.317889
vn 0.681799 0.13980100000000006 0.718057
vn 0.443762 0.888215 0.11895299999999995
vn 0.859309 -0.401719 0.316561
vn 0.912977 -0.362154 0.18792900000000004
vn -0.797776 -0.05574499999999997 0.600372
vn -0.677122 0.22230200000000006 0.701489
vn -0.35584 -0.27682799999999996 0.892605
vn -0.35584 -0.27682799999999996 0.892605
vn -0.081102 -0.29410499999999995 0.952326
vn 0.407187 -0.44814299999999996 0.795844
vn -0.35584 -0.27682799999999996 0.892605
vn 0.568326 -0.09498999999999995 0.817302
vn 0.654838 -0.16305599999999995 0.73797
vn 0.654838 -0.16305599999999995 0.73797
vn 0.434106 -0.17405099999999996 0.883888
vn -0.487524 -0.34213699999999997 0.803283
vn -0.330193 0.20832800000000007 0.920637
vn -0.77086 0.30616600000000005 0.558603
vn -0.87305 0.340903 0.348668
vn -0.487524 -0.34213699999999997 0.803283
vn -0.732064 0.543691 0.41046599999999994
vn -0.778177 0.624419 0.06739099999999996
vn -0.590598 0.786164 0.18204599999999996
vn -0.590598 0.786164 0.18204599999999996
vn -0.442932 0.642049 0.625767
vn -0.529147 0.783858 0.32491499999999995
vn -0.442932 0.642049 0.625767
vn -0.437479 0.839653 0.3218619999999999
vn -0.618311 0.43883400000000006 0.652009
vn -0.917444 -0.018490999999999976 0.397434
vn -0.577219 0.08451500000000006 0.812204
vn -0.597372 0.016834000000000047 0.801788
vn -0.908743 -0.030040999999999977 0.416274
vn -0.642458 0.35161800000000004 0.680892
vn -0.412103 0.763768 0.49681999999999993
vn -0.811871 0.21653000000000003 0.5422
vn -0.973329 -0.22675 -0.03484599999999999
vn -0.767643 0.615374 0.17899499999999996
vn -0.973329 -0.22675 -0.03484599999999999
vn -0.67461 -0.021847999999999954 0.737851
vn -0.973329 -0.22675 -0.03484599999999999
vn -0.856499 -0.515475 -0.02637899999999997
vn 0.68628 0.72631 0.038642999999999955
vn -0.083624 0.996262 0.021661999999999938
vn 0.399806 0.787608 0.46885899999999997
vn 0.399806 0.787608 0.46885899999999997
vn -0.05559 0.920935 0.38573199999999996
vn 0.960144 0.241747 0.14028999999999997
vn 0.847005 0.426062 0.317889
vn 0.865829 0.500339 -0.0011520000000000306
vn 0.865829 0.500339 -0.0011520000000000306
vn 0.749757 0.661685 0.006075999999999959
vn 0.727179 0.33154400000000006 0.601073
vn 0.998044 0.011004000000000003 0.061533
vn 0.550159 0.47000300000000006 0.690234
vn -0.068011 0.3982550000000001 0.91475
vn -0.038602 0.74655 0.664209
vn -0.038602 0.74655 0.664209
vn 0.448782 0.623447 0.640241
vn 0.585622 0.18611800000000006 0.788928
vn 0.390183 0.25753300000000007 0.883988
vn 0.492491 -0.624505 0.606174
vn 0.101013 0.40989700000000007 0.906521
vn -0.582123 -0.44930299999999995 0.677687
vn -0.35584 -0.27682799999999996 0.892605
vn 0.072542 -0.28987999999999997 0.95431
vn 0.351971 -0.636452 0.686327
vn -0.582123 -0.44930299999999995 0.677687
vn 0.586772 -0.11624299999999994 0.801366
vn 0.839135 0.23934600000000003 0.488432
vn -0.397382 0.600352 0.694021
vn -0.046239 0.63693 0.769534
vn -0.642458 0.35161800000000004 0.680892
vn -0.642458 0.35161800000000004 0.680892
vn -0.345919 0.707346 0.616443
vn -0.493538 0.68096 0.54103
vn -0.642458 0.35161800000000004 0.680892
vn -0.412103 0.763768 0.49681999999999993
vn -0.27565 0.881003 0.38451399999999997
vn -0.481077 0.793305 0.37313699999999994
vn -0.74516 0.615267 0.25726099999999996
vn -0.762566 0.33485800000000004 0.553501
vn -0.30346 0.717984 0.626428
vn -0.762566 0.33485800000000004 0.553501
vn 0.338961 0.08226100000000006 0.937197
vn -0.341828 0.10545700000000005 0.933827
vn 0.10547 -0.09720199999999994 0.989661
vn -0.341828 0.10545700000000005 0.933827
vn -0.043055 0.752471 0.657217
vn 0.10547 -0.09720199999999994 0.989661
vn -0.069286 -0.07453399999999995 0.994809
vn 0.10547 -0.09720199999999994 0.989661
vn -0.333925 -0.22401999999999994 0.915592
vn -0.186357 -0.24586799999999995 0.95122
vn -0.069327 -0.05299599999999994 0.996185
vn -0.347964 0.17555500000000004 0.920924
vn -0.135345 0.22216700000000006 0.965569
vn -0.505243 0.600632 0.619653
vn -0.201668 0.856079 0.47587699999999994
vn -0.043055 0.752471 0.657217
vn 0.491153 0.505717 0.709239
vn -0.341828 0.10545700000000005 0.933827
vn -0.531399 0.633339 0.56258
vn -0.645649 0.020264000000000046 0.763365
vn -0.639307 0.594259 0.48799899999999996
vn -0.845853 0.17803800000000003 0.502827
vn -0.796262 -0.004257999999999962 0.604938
vn -0.642979 -0.07179199999999995 0.762512
vn 0.10547 -0.09720199999999994 0.989661
vn -0.779004 -0.15881299999999998 0.606574
vn -0.506069 -0.08623899999999994 0.858171
vn 0.60465 -0.40144399999999997 0.687925
vn 0.536485 0.70425 0.46498999999999996
vn -0.366422 0.620021 0.693764
vn -0.606608 -0.566496 0.557772
vn -0.35584 -0.27682799999999996 0.892605
vn -0.582123 -0.44930299999999995 0.677687
vn -0.157022 0.62662 0.763343
vn 0.568326 -0.09498999999999995 0.817302
vn 0.351971 -0.636452 0.686327
vn 0.839135 0.23934600000000003 0.488432
vn -0.157022 0.62662 0.763343
vn -0.582123 -0.44930299999999995 0.677687
vn 0.360358 -0.929516 0.07837500000000006
vn 0.65078 -0.37640299999999993 0.659399
vn -0.453205 -0.766692 0.45474100000000006
vn -0.916684 -0.396644 0.048614000000000025
vn -0.538244 0.841387 0.048584999999999955
vn -0.641092 0.35779600000000006 0.678958
vn 0.362922 0.81063 0.45952999999999994
vn 0.944395 0.326989 0.03457899999999998
vn -0.641092 0.35779600000000006 0.678958
vn -0.453205 -0.766692 0.45474100000000006
vn 0.65078 -0.37640299999999993 0.659399
vn 0.362922 0.81063 0.45952999999999994
vn -0.67461 -0.021847999999999954 0.737851
vn -0.27315 0.858881 0.4332579999999999
vn -0.447713 0.21397400000000005 0.868198
vn -0.959695 0.22016 0.174688
vn 0.871155 -0.010759999999999971 0.49089
vn 0.859309 -0.401719 0.316561
vn 0.681799 0.13980100000000006 0.718057
vn 0.847005 0.426062 0.317889
vn 0.994931 -0.03605799999999999 0.093868
vn 0.912977 -0.362154 0.18792900000000004
vn 0.859309 -0.401719 0.316561
vn 0.871155 -0.010759999999999971 0.49089
vn 0.305788 0.825072 0.47513099999999997
vn 0.265361 0.44829500000000005 0.853589
vn 0.654838 -0.16305599999999995 0.73797
vn 0.434106 -0.17405099999999996 0.883888
vn -0.05559 0.920935 0.38573199999999996
vn 0.399806 0.787608 0.46885899999999997
vn -0.811871 0.21653000000000003 0.5422
vn -0.767643 0.615374 0.17899499999999996
vn -0.508456 0.861003 0.012055999999999949
vn -0.456417 0.789841 0.40967499999999996
vn 0.577539 0.558363 0.59555
vn 0.913136 0.406424 0.03165299999999997
vn -0.933129 0.35843 0.02824699999999998
vn -0.447713 0.21397400000000005 0.868198
vn -0.27315 0.858881 0.4332579999999999
vn -0.358128 0.933587 -0.012614000000000057
vn -0.083624 0.996262 0.021661999999999938
vn -0.973329 -0.22675 -0.03484599999999999
vn -0.811871 0.21653000000000003 0.5422
vn 0.399806 0.787608 0.46885899999999997
vn 0.065284 0.99783 0.008524999999999939
vn -0.817433 0.576024 -3.527129739160275E-17
vn -0.638685 0.46354900000000004 0.61417
vn 0.654064 0.672633 0.34607099999999996
vn -0.455547 0.28886100000000003 0.842043
vn -0.854895 0.21179700000000004 0.473599
vn -0.214149 0.517641 0.828364
vn -0.166021 0.30901700000000004 0.936454
vn 0.222083 0.727237 0.649465
vn -0.00891 0.851599 0.524118
vn 0.536485 0.70425 0.46498999999999996
vn 0.535572 0.11392600000000006 0.83677
vn -0.073358 0.42988800000000005 0.899897
vn -0.366422 0.620021 0.693764
vn -0.407352 0.003147000000000056 0.913266
vn -0.606608 -0.566496 0.557772
vn 0.101013 0.40989700000000007 0.906521
vn 0.492491 -0.624505 0.606174
vn -0.630985 -0.23055599999999996 0.740745
vn -0.531376 0.24555700000000005 0.810766
vn -0.896334 0.23060700000000003 0.378689
vn -0.454906 0.40893100000000004 0.791098
vn -0.038602 0.74655 0.664209
vn -0.068011 0.3982550000000001 0.91475
vn -0.590598 0.786164 0.18204599999999996
vn -0.778177 0.624419 0.06739099999999996
vn -0.602874 0.770758 0.20609399999999994
vn -0.437479 0.839653 0.3218619999999999
vn 0.102273 0.965407 0.23985499999999996
vn -0.618311 0.43883400000000006 0.652009
vn 0.102273 0.965407 0.23985499999999996
vn 0.654064 0.672633 0.34607099999999996
vn 0.620282 0.784107 -0.02065900000000005
vn 0.065284 0.99783 0.008524999999999939
vn -0.638685 0.46354900000000004 0.61417
vn -0.817433 0.576024 -3.527129739160275E-17
vn -0.988266 0.138605 0.06417699999999998
vn -0.762566 0.33485800000000004 0.553501
vn -0.726069 0.682513 0.08366499999999996
vn -0.74516 0.615267 0.25726099999999996
vn -0.747371 0.645764 0.15628699999999998
vn -0.540164 0.834624 0.10781699999999994
vn 0.475456 0.36839700000000003 0.79889
vn 0.375066 0.48238100000000006 0.791602
vn 0.222083 0.727237 0.649465
vn -0.00853 0.561409 0.827495
vn -0.214149 0.517641 0.828364
vn -0.134453 0.4921170000000001 0.860083
vn -0.265656 0.735539 0.623225
vn -0.854895 0.21179700000000004 0.473599
vn -0.505243 0.600632 0.619653
vn -0.504017 0.20101200000000005 0.839977
vn 0.101013 0.40989700000000007 0.906521
vn -0.201668 0.856079 0.47587699999999994
vn 0.289691 0.860582 0.41890199999999994
vn 0.396299 0.64801 0.650408
vn 0.868886 0.463273 0.17440299999999997
vn 0.847005 0.426062 0.317889
vn 0.639807 0.632889 0.4360029999999999
vn 0.086696 0.659759 0.74646
vn 0.305788 0.825072 0.47513099999999997
vn -0.080203 0.527437 0.8458
vn -0.282564 0.722894 0.630541
vn -0.193952 0.746199 0.636844
vn 0.265361 0.44829500000000005 0.853589
vn -0.77086 0.30616600000000005 0.558603
vn -0.771102 0.6022 0.20677799999999996
vn -0.87305 0.340903 0.348668
vn -0.44108 0.897459 -0.004040000000000055
vn 0.620282 0.784107 -0.02065900000000005
vn 0.102273 0.965407 0.23985499999999996
vn -0.602874 0.770758 0.20609399999999994
vn -0.779561 0.626326 0.0006939999999999616
vn -0.778177 0.624419 0.06739099999999996
vn -0.804889 0.593425 -3.63368013392009E-17
vn -0.924307 0.364144 0.11426399999999998
vn -0.732064 0.543691 0.41046599999999994
vn -0.677122 0.22230200000000006 0.701489
vn -0.991144 0.132698 0.004993999999999992
vn -0.706255 0.20231200000000002 0.678434
vn -0.87305 0.340903 0.348668
vn -0.750231 0.661083 0.01107499999999996
vn -0.771102 0.6022 0.20677799999999996
vn -0.944555 0.327995 -0.015343000000000022
vn -0.959695 0.22016 0.174688
vn -0.482115 0.687045 0.54363
vn -0.970636 -0.236002 0.04656200000000001
vn -0.639307 0.594259 0.48799899999999996
vn -0.74516 0.615267 0.25726099999999996
vn -0.747371 0.645764 0.15628699999999998
vn -0.493538 0.68096 0.54103
vn -0.531399 0.633339 0.56258
vn -0.397382 0.600352 0.694021
vn -0.043055 0.752471 0.657217
vn -0.046239 0.63693 0.769534
vn 0.289691 0.860582 0.41890199999999994
vn 0.491153 0.505717 0.709239
vn -0.00891 0.851599 0.524118
vn -0.080121 0.97284 0.21716899999999995
vn -0.579637 0.775239 0.25105199999999994
vn -0.166021 0.30901700000000004 0.936454
vn -0.455547 0.28886100000000003 0.842043
vn -0.991021 -0.07027899999999998 0.113744
vn -0.038602 0.74655 0.664209
vn -0.896334 0.23060700000000003 0.378689
vn -0.630985 -0.23055599999999996 0.740745
vn 0.448782 0.623447 0.640241
vn 0.390183 0.25753300000000007 0.883988
vn 0.492491 -0.624505 0.606174
vn -0.767643 0.615374 0.17899499999999996
vn -0.67461 -0.021847999999999954 0.737851
vn -0.959695 0.22016 0.174688
vn -0.482115 0.687045 0.54363
vn -0.286123 0.667397 0.687543
vn -0.05559 0.920935 0.38573199999999996
vn -0.076217 0.546951 0.833688
vn -0.350225 0.533347 0.769989
vn -0.253003 0.966637 0.04002799999999994
vn 0.68628 0.72631 0.038642999999999955
vn -0.529147 0.783858 0.32491499999999995
vn -0.917444 -0.018490999999999976 0.397434
vn -0.597372 0.016834000000000047 0.801788
vn -0.442932 0.642049 0.625767
vn -0.454906 0.40893100000000004 0.791098
vn -0.732064 0.543691 0.41046599999999994
vn -0.642458 0.35161800000000004 0.680892
vn -0.677122 0.22230200000000006 0.701489
vn -0.046239 0.63693 0.769534
vn -0.068011 0.3982550000000001 0.91475
vn -0.531376 0.24555700000000005 0.810766
vn -0.35584 -0.27682799999999996 0.892605
vn 0.289691 0.860582 0.41890199999999994
vn 0.101013 0.40989700000000007 0.906521
vn 0.550159 0.47000300000000006 0.690234
vn 0.585622 0.18611800000000006 0.788928
vn -0.504017 0.20101200000000005 0.839977
vn 0.072542 -0.28987999999999997 0.95431
vn 0.080651 0.09547700000000006 0.992159
vn 0.375066 0.48238100000000006 0.791602
vn -0.407352 0.003147000000000056 0.913266
vn 0.586772 -0.11624299999999994 0.801366
vn 0.069474 -0.3953519999999999 0.915899
vn 0.475456 0.36839700000000003 0.79889
vn -0.073358 0.42988800000000005 0.899897
vn 0.450678 0.22058300000000006 0.865004
vn 0.568326 -0.09498999999999995 0.817302
vn 0.535572 0.11392600000000006 0.83677
vn 0.434106 -0.17405099999999996 0.883888
vn 0.418452 0.11082500000000006 0.901452
vn 0.305788 0.825072 0.47513099999999997
vn 0.639807 0.632889 0.4360029999999999
vn -0.135345 0.22216700000000006 0.965569
vn -0.265656 0.735539 0.623225
vn -0.505243 0.600632 0.619653
vn -0.134453 0.4921170000000001 0.860083
vn 0.314324 0.11395200000000005 0.942452
vn -0.00853 0.561409 0.827495
vn -0.069327 -0.05299599999999994 0.996185
vn 0.69754 0.019654000000000046 0.716276
vn 0.475456 0.36839700000000003 0.79889
vn -0.186357 -0.24586799999999995 0.95122
vn 0.342125 -0.2614969999999999 0.902535
vn 0.53994 -0.08637899999999994 0.83726
vn 0.728855 -0.09142599999999995 0.678537
vn 0.678225 -0.17712799999999995 0.713187
vn -0.487524 -0.34213699999999997 0.803283
vn -0.87305 0.340903 0.348668
vn -0.706255 0.20231200000000002 0.678434
vn -0.639285 0.533773 0.553535
vn -0.330193 0.20832800000000007 0.920637
vn -0.677122 0.22230200000000006 0.701489
vn -0.797776 -0.05574499999999997 0.600372
vn -0.618311 0.43883400000000006 0.652009
vn 0.654064 0.672633 0.34607099999999996
vn -0.638685 0.46354900000000004 0.61417
vn -0.211507 0.26931800000000006 0.939539
vn -0.762566 0.33485800000000004 0.553501
vn -0.30346 0.717984 0.626428
vn -0.577219 0.08451500000000006 0.812204
vn -0.27565 0.881003 0.38451399999999997
vn -0.412103 0.763768 0.49681999999999993
vn -0.908743 -0.030040999999999977 0.416274
vn -0.330193 0.20832800000000007 0.920637
vn -0.797776 -0.05574499999999997 0.600372
vn -0.081102 -0.29410499999999995 0.952326
vn 0.407187 -0.44814299999999996 0.795844
vn 0.654838 -0.16305599999999995 0.73797
vn 0.265361 0.44829500000000005 0.853589
vn -0.193952 0.746199 0.636844
vn -0.77086 0.30616600000000005 0.558603
vn -0.845853 0.17803800000000003 0.502827
vn -0.639307 0.594259 0.48799899999999996
vn -0.747371 0.645764 0.15628699999999998
vn -0.540164 0.834624 0.10781699999999994
vn -0.920002 0.303619 0.24781499999999998
vn -0.955866 0.16095200000000004 0.245796
vn -0.796262 -0.004257999999999962 0.604938
vn -0.957876 -0.0016059999999999824 0.287179
vn -0.964875 -0.10037299999999999 0.242779
vn -0.779004 -0.15881299999999998 0.606574
vn -0.941187 -0.20729599999999998 0.266824
vn -0.952964 -0.19753699999999996 0.229866
vn 0.927276 -0.12291599999999997 0.353626
vn 0.923854 -0.18503299999999998 0.335048
vn 0.869586 -0.18697699999999998 0.457012
vn 0.866784 -0.07324699999999998 0.493276
vn 0.886731 -0.17484499999999997 0.427945
vn 0.929688 0.005703000000000022 0.368303
vn 0.854657 0.052136000000000036 0.516569
vn 0.915186 0.13359700000000002 0.380245
vn 0.855042 -0.06775799999999997 0.514113
vn 0.678225 -0.17712799999999995 0.713187
vn 0.728855 -0.09142599999999995 0.678537
vn 0.69754 0.019654000000000046 0.716276
vn 0.906807 -0.015126999999999974 0.421275
vn 0.956036 0.11924600000000002 0.26791
vn 0.828778 0.528394 0.18419199999999997
vn 0.823243 0.09231400000000002 0.560132
vn 0.475456 0.36839700000000003 0.79889
vn 0.450678 0.22058300000000006 0.865004
vn 0.739234 0.45471600000000006 0.4967559999999999
vn 0.699705 0.690177 0.18457699999999994
vn 0.994931 -0.03605799999999999 0.093868
vn 0.871155 -0.010759999999999971 0.49089
vn 0.809026 0.417535 0.413693
vn 0.418452 0.11082500000000006 0.901452
vn 0.639807 0.632889 0.4360029999999999
vn 0.868886 0.463273 0.17440299999999997
vn 0.883761 0.4127 0.22055499999999997
vn 0.847005 0.426062 0.317889
g sdfdsf
f 1/1/1 2/2/2 3/3/3
f 4/4/4 5/5/5 6/6/6
f 7/7/7 8/8/8 9/9/9
f 10/10/10 11/11/11 12/12/12
f 13/13/13 14/14/14 15/15/15
f 16/16/16 17/17/17 18/18/18
f 19/19/19 20/20/20 21/21/21
f 22/22/22 23/23/23 24/24/24
f 25/25/25 26/26/26 27/27/27
f 28/28/28 29/29/29 30/30/30
f 30/30/30 31/31/31 32/32/32
f 33/33/33 32/32/32 34/34/34
f 35/35/35 34/34/34 32/32/32
f 35/35/35 36/36/36 34/34/34
f 34/34/34 37/37/37 38/38/38
f 37/37/37 34/34/34 39/39/39
f 39/39/39 40/40/40 37/37/37
f 40/40/40 39/39/39 41/41/41
f 41/41/41 42/42/42 40/40/40
f 42/42/42 41/41/41 43/43/43
f 43/43/43 44/44/44 42/42/42
f 45/45/45 46/46/46 47/47/47
f 48/48/48 49/49/49 45/45/45
f 50/50/50 51/51/51 52/52/52
f 53/53/53 54/54/54 50/50/50
f 55/55/55 56/56/56 57/57/57
f 57/57/57 58/58/58 59/59/59
f 60/60/60 61/61/61 62/62/62
f 62/62/62 63/63/63 64/64/64
f 65/65/65 66/66/66 67/67/67
f 67/67/67 68/68/68 69/69/69
f 70/70/70 71/71/71 72/72/72
f 72/72/72 73/73/73 74/74/74
f 75/75/75 76/76/76 77/77/77
f 78/78/78 79/79/79 75/75/75
f 80/80/80 81/81/81 82/82/82
f 82/82/82 83/83/83 84/84/84
f 84/84/84 83/83/83 85/85/85
f 85/85/85 86/86/86 84/84/84
f 87/87/87 88/88/88 89/89/89
f 90/90/90 91/91/91 87/87/87
f 92/92/92 91/91/91 93/93/93
f 93/93/93 94/94/94 92/92/92
f 95/95/95 92/92/92 94/94/94
f 96/96/96 94/94/94 97/97/97
f 98/98/98 99/99/99 100/100/100
f 100/100/100 101/101/101 102/102/102
f 103/103/103 104/104/104 105/105/105
f 106/106/106 107/107/107 103/103/103
f 108/108/108 109/109/109 106/106/106
f 106/106/106 110/110/110 108/108/108
f 108/108/108 110/110/110 111/111/111
f 111/111/111 112/112/112 108/108/108
f 112/112/112 111/111/111 113/113/113
f 112/112/112 113/113/113 114/114/114
f 113/113/113 115/115/115 114/114/114
f 116/116/116 114/114/114 115/115/115
f 116/116/116 115/115/115 117/117/117
f 118/118/118 119/119/119 120/120/120
f 121/121/121 122/122/122 120/120/120
f 123/123/123 124/124/124 122/122/122
f 125/125/125 126/126/126 127/127/127
f 128/128/128 129/129/129 125/125/125
f 130/130/130 131/131/131 132/132/132
f 133/133/133 134/134/134 130/130/130
f 135/135/135 130/130/130 134/134/134
f 134/134/134 136/136/136 135/135/135
f 137/137/137 138/138/138 139/139/139
f 140/140/140 141/141/141 137/137/137
f 142/142/142 137/137/137 141/141/141
f 141/141/141 143/143/143 142/142/142
f 142/142/142 143/143/143 144/144/144
f 144/144/144 145/145/145 142/142/142
f 146/146/146 147/147/147 148/148/148
f 148/148/148 149/149/149 150/150/150
f 149/149/149 148/148/148 151/151/151
f 151/151/151 152/152/152 149/149/149
f 153/153/153 154/154/154 155/155/155
f 156/156/156 157/157/157 153/153/153
f 158/158/158 153/153/153 157/157/157
f 157/157/157 159/159/159 160/160/160
f 160/160/160 161/161/161 157/157/157
f 158/158/158 157/157/157 162/162/162
f 161/161/161 162/162/162 157/157/157
f 163/163/163 158/158/158 162/162/162
f 162/162/162 164/164/164 163/163/163
f 161/161/161 165/165/165 162/162/162
f 165/165/165 166/166/166 162/162/162
f 167/167/167 168/168/168 169/169/169
f 170/170/170 167/167/167 171/171/171
f 172/172/172 173/173/173 167/167/167
f 173/173/173 174/174/174 175/175/175
f 173/173/173 175/175/175 176/176/176
f 176/176/176 177/177/177 173/173/173
f 173/173/173 178/178/178 167/167/167
f 173/173/173 177/177/177 178/178/178
f 177/177/177 179/179/179 178/178/178
f 178/178/178 179/179/179 180/180/180
f 180/180/180 181/181/181 178/178/178
f 167/167/167 178/178/178 182/182/182
f 178/178/178 183/183/183 182/182/182
f 184/184/184 182/182/182 185/185/185
f 185/185/185 186/186/186 184/184/184
f 186/186/186 185/185/185 187/187/187
f 187/187/187 188/188/188 186/186/186
f 186/186/186 188/188/188 189/189/189
f 184/184/184 186/186/186 190/190/190
f 189/189/189 190/190/190 186/186/186
f 190/190/190 191/191/191 184/184/184
f 175/175/175 191/191/191 190/190/190
f 190/190/190 189/189/189 192/192/192
f 190/190/190 193/193/193 175/175/175
f 192/192/192 193/193/193 190/190/190
f 194/194/194 195/195/195 196/196/196
f 196/196/196 197/197/197 194/194/194
f 198/198/198 199/199/199 200/200/200
f 200/200/200 201/201/201 198/198/198
f 202/202/202 203/203/203 204/204/204
f 204/204/204 205/205/205 202/202/202
f 206/206/206 207/207/207 208/208/208
f 208/208/208 209/209/209 206/206/206
f 210/210/210 211/211/211 212/212/212
f 212/212/212 213/213/213 210/210/210
f 214/214/214 215/215/215 216/216/216
f 216/216/216 217/217/217 214/214/214
f 218/218/218 219/219/219 220/220/220
f 220/220/220 221/221/221 218/218/218
f 222/222/222 223/223/223 224/224/224
f 224/224/224 225/225/225 222/222/222
f 226/226/226 227/227/227 228/228/228
f 228/228/228 229/229/229 226/226/226
f 230/230/230 231/231/231 232/232/232
f 232/232/232 233/233/233 230/230/230
f 234/234/234 235/235/235 236/236/236
f 236/236/236 237/237/237 234/234/234
f 238/238/238 239/239/239 240/240/240
f 240/240/240 241/241/241 238/238/238
f 242/242/242 243/243/243 244/244/244
f 244/244/244 245/245/245 242/242/242
f 246/246/246 247/247/247 248/248/248
f 248/248/248 249/249/249 246/246/246
f 250/250/250 251/251/251 252/252/252
f 252/252/252 253/253/253 250/250/250
f 254/254/254 255/255/255 256/256/256
f 256/256/256 257/257/257 254/254/254
f 257/257/257 256/256/256 258/258/258
f 258/258/258 259/259/259 257/257/257
f 260/260/260 261/261/261 262/262/262
f 262/262/262 263/263/263 260/260/260
f 263/263/263 262/262/262 264/264/264
f 264/264/264 265/265/265 263/263/263
f 266/266/266 267/267/267 268/268/268
f 268/268/268 269/269/269 266/266/266
f 269/269/269 268/268/268 270/270/270
f 270/270/270 271/271/271 269/269/269
f 271/271/271 270/270/270 272/272/272
f 272/272/272 273/273/273 271/271/271
f 274/274/274 275/275/275 276/276/276
f 277/277/277 274/274/274 276/276/276
f 277/277/277 276/276/276 278/278/278
f 279/279/279 280/280/280 281/281/281
f 281/281/281 280/280/280 282/282/282
f 282/282/282 283/283/283 281/281/281
f 284/284/284 285/285/285 286/286/286
f 286/286/286 287/287/287 284/284/284
f 287/287/287 286/286/286 288/288/288
f 289/289/289 287/287/287 288/288/288
f 290/290/290 289/289/289 288/288/288
f 288/288/288 291/291/291 290/290/290
f 292/292/292 293/293/293 294/294/294
f 294/294/294 295/295/295 292/292/292
f 295/295/295 294/294/294 296/296/296
f 296/296/296 297/297/297 295/295/295
f 298/298/298 297/297/297 296/296/296
f 296/296/296 299/299/299 298/298/298
f 300/300/300 298/298/298 299/299/299
f 300/300/300 299/299/299 301/301/301
f 300/300/300 301/301/301 302/302/302
f 303/303/303 300/300/300 302/302/302
f 302/302/302 304/304/304 303/303/303
f 305/305/305 306/306/306 307/307/307
f 308/308/308 306/306/306 305/305/305
f 308/308/308 305/305/305 309/309/309
f 309/309/309 310/310/310 308/308/308
f 310/310/310 309/309/309 311/311/311
f 312/312/312 310/310/310 311/311/311
f 313/313/313 314/314/314 310/310/310
f 313/313/313 310/310/310 312/312/312
f 313/313/313 312/312/312 315/315/315
f 315/315/315 312/312/312 316/316/316
f 315/315/315 316/316/316 317/317/317
f 318/318/318 319/319/319 320/320/320
f 320/320/320 321/321/321 318/318/318
f 322/322/322 318/318/318 321/321/321
f 321/321/321 323/323/323 322/322/322
f 324/324/324 322/322/322 323/323/323
f 323/323/323 325/325/325 324/324/324
f 326/326/326 325/325/325 323/323/323
f 326/326/326 327/327/327 325/325/325
f 328/328/328 324/324/324 325/325/325
f 327/327/327 329/329/329 325/325/325
f 325/325/325 329/329/329 328/328/328
f 328/328/328 329/329/329 330/330/330
f 330/330/330 331/331/331 328/328/328
f 331/331/331 330/330/330 332/332/332
f 332/332/332 333/333/333 331/331/331
f 334/334/334 333/333/333 332/332/332
f 332/332/332 335/335/335 334/334/334
f 334/334/334 336/336/336 333/333/333
f 337/337/337 338/338/338 339/339/339
f 337/337/337 340/340/340 338/338/338
f 337/337/337 341/341/341 340/340/340
f 340/340/340 341/341/341 342/342/342
f 341/341/341 343/343/343 342/342/342
f 342/342/342 343/343/343 344/344/344
f 345/345/345 344/344/344 343/343/343
f 343/343/343 346/346/346 345/345/345
f 347/347/347 348/348/348 349/349/349
f 349/349/349 350/350/350 347/347/347
f 351/351/351 350/350/350 349/349/349
f 349/349/349 352/352/352 351/351/351
f 353/353/353 354/354/354 355/355/355
f 356/356/356 353/353/353 355/355/355
f 357/357/357 356/356/356 355/355/355
f 358/358/358 357/357/357 355/355/355
f 359/359/359 360/360/360 361/361/361
f 361/361/361 362/362/362 359/359/359
f 362/362/362 363/363/363 359/359/359
f 359/359/359 363/363/363 364/364/364
f 363/363/363 365/365/365 364/364/364
f 364/364/364 365/365/365 366/366/366
f 364/364/364 366/366/366 367/367/367
f 367/367/367 368/368/368 364/364/364
f 369/369/369 370/370/370 371/371/371
f 371/371/371 372/372/372 369/369/369
f 372/372/372 371/371/371 373/373/373
f 373/373/373 374/374/374 372/372/372
f 375/375/375 373/373/373 371/371/371
f 374/374/374 373/373/373 376/376/376
f 375/375/375 377/377/377 373/373/373
f 376/376/376 373/373/373 378/378/378
f 377/377/377 379/379/379 373/373/373
f 378/378/378 380/380/380 376/376/376
f 379/379/379 377/377/377 381/381/381
f 381/381/381 382/382/382 379/379/379
f 380/380/380 378/378/378 383/383/383
f 383/383/383 384/384/384 380/380/380
f 384/384/384 382/382/382 385/385/385
f 384/384/384 386/386/386 380/380/380
f 386/386/386 384/384/384 385/385/385
f 385/385/385 387/387/387 386/386/386
f 387/387/387 388/388/388 386/386/386
f 386/386/386 388/388/388 389/389/389
f 389/389/389 390/390/390 386/386/386
f 389/389/389 388/388/388 391/391/391
f 391/391/391 388/388/388 392/392/392
f 393/393/393 390/390/390 389/389/389
f 392/392/392 394/394/394 391/391/391
f 393/393/393 395/395/395 390/390/390
f 396/396/396 391/391/391 394/394/394
f 397/397/397 395/395/395 393/393/393
f 396/396/396 394/394/394 398/398/398
f 398/398/398 393/393/393 396/396/396
f 397/397/397 393/393/393 398/398/398
f 399/399/399 397/397/397 398/398/398
f 399/399/399 398/398/398 400/400/400
f 401/401/401 402/402/402 403/403/403
f 404/404/404 402/402/402 401/401/401
f 401/401/401 405/405/405 404/404/404
f 405/405/405 406/406/406 404/404/404
f 405/405/405 401/401/401 407/407/407
f 408/408/408 409/409/409 406/406/406
f 406/406/406 405/405/405 408/408/408
f 407/407/407 410/410/410 411/411/411
f 408/408/408 405/405/405 412/412/412
f 407/407/407 412/412/412 405/405/405
f 411/411/411 412/412/412 407/407/407
f 412/412/412 413/413/413 408/408/408
f 412/412/412 411/411/411 414/414/414
f 414/414/414 413/413/413 412/412/412
f 415/415/415 416/416/416 417/417/417
f 417/417/417 418/418/418 415/415/415
f 419/419/419 415/415/415 418/418/418
f 420/420/420 418/418/418 417/417/417
f 418/418/418 421/421/421 419/419/419
f 420/420/420 421/421/421 418/418/418
f 422/422/422 423/423/423 424/424/424
f 425/425/425 422/422/422 424/424/424
f 425/425/425 424/424/424 426/426/426
f 426/426/426 427/427/427 425/425/425
f 422/422/422 425/425/425 428/428/428
f 428/428/428 425/425/425 427/427/427
f 427/427/427 429/429/429 428/428/428
f 428/428/428 429/429/429 430/430/430
f 430/430/430 431/431/431 428/428/428
f 432/432/432 433/433/433 434/434/434
f 432/432/432 434/434/434 435/435/435
f 436/436/436 432/432/432 435/435/435
f 437/437/437 432/432/432 436/436/436
f 438/438/438 432/432/432 437/437/437
f 439/439/439 432/432/432 438/438/438
f 440/440/440 441/441/441 442/442/442
f 442/442/442 443/443/443 444/444/444
f 442/442/442 445/445/445 440/440/440
f 444/444/444 445/445/445 442/442/442
f 446/446/446 440/440/440 445/445/445
f 445/445/445 444/444/444 447/447/447
f 445/445/445 448/448/448 446/446/446
f 447/447/447 448/448/448 445/445/445
f 449/449/449 446/446/446 448/448/448
f 448/448/448 447/447/447 450/450/450
f 448/448/448 451/451/451 449/449/449
f 450/450/450 451/451/451 448/448/448
f 452/452/452 453/453/453 454/454/454
f 454/454/454 455/455/455 452/452/452
f 456/456/456 453/453/453 452/452/452
f 457/457/457 452/452/452 455/455/455
f 455/455/455 458/458/458 457/457/457
f 457/457/457 458/458/458 459/459/459
f 452/452/452 460/460/460 456/456/456
f 460/460/460 452/452/452 457/457/457
f 461/461/461 456/456/456 460/460/460
f 460/460/460 462/462/462 461/461/461
f 463/463/463 462/462/462 460/460/460
f 457/457/457 464/464/464 460/460/460
f 460/460/460 464/464/464 463/463/463
f 459/459/459 465/465/465 457/457/457
f 464/464/464 457/457/457 465/465/465
f 465/465/465 459/459/459 466/466/466
f 463/463/463 464/464/464 467/467/467
f 465/465/465 467/467/467 464/464/464
f 467/467/467 468/468/468 463/463/463
f 469/469/469 468/468/468 467/467/467
f 470/470/470 467/467/467 465/465/465
f 467/467/467 470/470/470 469/469/469
f 466/466/466 471/471/471 465/465/465
f 465/465/465 471/471/471 470/470/470
f 471/471/471 466/466/466 472/472/472
f 472/472/472 473/473/473 471/471/471
f 474/474/474 469/469/469 470/470/470
f 474/474/474 470/470/470 471/471/471
f 474/474/474 475/475/475 469/469/469
f 476/476/476 475/475/475 474/474/474
f 476/476/476 474/474/474 477/477/477
f 473/473/473 478/478/478 471/471/471
f 471/471/471 478/478/478 474/474/474
f 474/474/474 478/478/478 477/477/477
f 478/478/478 473/473/473 479/479/479
f 479/479/479 477/477/477 478/478/478
