v -0.371067 -0.268091 0.036560000000000016
v -0.15369 -0.434845 0.03656000000000003
v 0.141108 -0.440801 0.03656000000000003
v -0.448488 -0.014980999999999998 0.03656
v 0.352529 -0.29489 0.03656000000000002
v -0.415733 0.157729 0.036559999999999995
v -0.269823 0.348305 0.03655999999999998
v -0.082224 0.425727 0.036559999999999974
v 0.185774 0.401905 0.036559999999999974
v 0.36444 0.258973 0.03655999999999999
v 0.447817 0.077329 0.036559999999999995
v 0.444839 -0.12218 0.03656000000000001
vt 0.000000 0.000000
vt 0.000000 0.000000
vt 0.000000 0.000000
vt 0.000000 0.000000
vt 0.000000 0.000000
vt 0.000000 0.000000
vt 0.000000 0.000000
vt 0.000000 0.000000
vt 0.000000 0.000000
vt 0.000000 0.000000
vt 0.000000 0.000000
vt 0.000000 0.000000
vn 0 6.123233995736766E-17 1
vn 0 6.123233995736766E-17 1
vn 0 6.123233995736766E-17 1
vn 0 6.123233995736766E-17 1
vn 0 6.123233995736766E-17 1
vn 0 6.123233995736766E-17 1
vn 0 6.123233995736766E-17 1
vn 0 6.123233995736766E-17 1
vn 0 6.123233995736766E-17 1
vn 0 6.123233995736766E-17 1
vn 0 6.123233995736766E-17 1
vn 0 6.123233995736766E-17 1
g water
f 1/1/1 2/2/2 3/3/3
f 4/4/4 1/1/1 3/3/3
f 5/5/5 4/4/4 3/3/3
f 5/5/5 6/6/6 4/4/4
f 5/5/5 7/7/7 6/6/6
f 5/5/5 8/8/8 7/7/7
f 5/5/5 9/9/9 8/8/8
f 5/5/5 10/10/10 9/9/9
f 5/5/5 11/11/11 10/10/10
f 5/5/5 12/12/12 11/11/11
