v 0.000154 0.102583 -0.0017180000000000062
v 0.002035 -0.092735 -0.0014679999999999943
v 0.00203 -0.087747 0.03730700000000001
v 0.000244 0.097695 0.03706999999999999
v 0.002198 -0.07949899999999999 0.258853
v 0.000565 0.09001900000000002 0.258636
v 0.002255 -0.05675999999999997 0.506629
v 0.001054 0.06791900000000002 0.50647
v 0.002352 -0.03622199999999995 0.771148
v 0.001633 0.03841100000000005 0.771053
v 0.002269 0.0013680000000000625 1.021208
vt 0.987992 0.015176
vt 0.980233 0.199837
vt 0.943767 0.193627
vt 0.951133 0.018304
vt 0.734628 0.177297
vt 0.741361 0.017029
vt 0.500720 0.158803
vt 0.506726 0.015835
vt 0.258931 0.117783
vt 0.249594 0.047734
vt 0.016227 0.071383
vn -0.999953 -0.009632 0.0011150000000000008
vn -0.999953 -0.009632 0.0011150000000000008
vn -0.999953 -0.009632 0.0011150000000000008
vn -0.999953 -0.009632 0.0011150000000000008
vn -0.999953 -0.009632 0.0011150000000000008
vn -0.999953 -0.009632 0.0011150000000000008
vn -0.999953 -0.009632 0.0011150000000000008
vn -0.999953 -0.009632 0.0011150000000000008
vn -0.999953 -0.009632 0.0011150000000000008
vn -0.999953 -0.009632 0.0011150000000000008
vn -0.999953 -0.009632 0.0011150000000000008
g OR_mil_standard_prob
f 1/1/1 2/2/2 3/3/3
f 3/3/3 4/4/4 1/1/1
f 4/4/4 3/3/3 5/5/5
f 5/5/5 6/6/6 4/4/4
f 6/6/6 5/5/5 7/7/7
f 7/7/7 8/8/8 6/6/6
f 8/8/8 7/7/7 9/9/9
f 9/9/9 10/10/10 8/8/8
f 11/11/11 10/10/10 9/9/9
