v -0.473966 1.280056 0.9234139999999998
v -0.456587 0.948282 0.8195109999999999
v -0.443527 0.949747 0.7863259999999999
v -0.473966 1.280056 0.9234139999999998
v -0.465077 1.099426 0.7583859999999999
v -0.470872 0.948429 0.7863309999999999
v -0.443527 0.949747 0.7863259999999999
v -0.470872 0.948429 0.7863309999999999
v -0.465077 1.099426 0.7583859999999999
v -0.473966 1.280056 0.9234139999999998
v -0.470872 0.948429 0.7863309999999999
v -0.456587 0.948282 0.8195109999999999
v -0.443527 0.949747 0.7863259999999999
v -0.465077 1.099426 0.7583859999999999
v -0.473966 1.280056 0.9234139999999998
v -0.470872 0.948429 0.7863309999999999
v -0.443527 0.949747 0.7863259999999999
v -0.456587 0.948282 0.8195109999999999
v -0.385264 -0.4163009999999999 0.600124
v -0.3987 -0.4129439999999999 0.575216
v -0.372344 -0.4116119999999999 0.575025
v -0.45364 1.006676 0.8078019999999999
v -0.460176 1.004309 0.8203709999999999
v -0.385264 -0.4163009999999999 0.600124
v -0.385264 -0.4163009999999999 0.600124
v -0.372344 -0.4116119999999999 0.575025
v -0.3987 -0.4129439999999999 0.575216
v -0.385264 -0.4163009999999999 0.600124
v -0.460176 1.004309 0.8203709999999999
v -0.466603 1.006007 0.8078629999999999
v -0.45364 1.006676 0.8078019999999999
v -0.372344 -0.4116119999999999 0.575025
v -0.3987 -0.4129439999999999 0.575216
v -0.466603 1.006007 0.8078629999999999
vt 0.290144 0.505470
vt 0.529437 0.651907
vt 0.545259 0.637337
vt 0.290144 0.505470
vt 0.444275 0.495158
vt 0.545259 0.637337
vt 0.558058 0.611194
vt 0.545259 0.637337
vt 0.444275 0.495158
vt 0.290144 0.505470
vt 0.545259 0.637337
vt 0.529437 0.651907
vt 0.545259 0.637337
vt 0.444275 0.495158
vt 0.290144 0.505470
vt 0.545259 0.637337
vt 0.545259 0.637337
vt 0.529437 0.651907
vt 0.371716 0.189120
vt 0.347395 0.211307
vt 0.347395 0.162666
vt 0.018354 0.486126
vt 0.019642 0.460419
vt 0.965819 0.460452
vt 0.965819 0.460452
vt 0.965749 0.486808
vt 0.965806 0.430105
vt 0.965819 0.460452
vt 0.019642 0.460419
vt 0.019561 0.430064
vt 0.019642 0.460419
vt 0.965819 0.460452
vt 0.965806 0.430105
vt 0.019561 0.430064
vn 0.929533 -0.06498299999999997 0.362969
vn 0.929533 -0.06498299999999997 0.362969
vn 0.929533 -0.06498299999999997 0.362969
vn -0.996561 0.023544999999999996 -0.079449
vn -0.996561 0.023544999999999996 -0.079449
vn -0.996561 0.023544999999999996 -0.079449
vn 0.008598 -0.18229200000000007 -0.983207
vn 0.008598 -0.18229200000000007 -0.983207
vn 0.008598 -0.18229200000000007 -0.983207
vn -0.905505 -0.16928799999999997 0.389105
vn -0.905505 -0.16928799999999997 0.389105
vn -0.905505 -0.16928799999999997 0.389105
vn 0.98832 0.126405 -0.08512300000000002
vn 0.98832 0.126405 -0.08512300000000002
vn 0.98832 0.126405 -0.08512300000000002
vn 0.048109 -0.998526 -0.025135999999999936
vn 0.048109 -0.998526 -0.025135999999999936
vn 0.048109 -0.998526 -0.025135999999999936
vn 0.048657 -0.986054 -0.15915399999999993
vn 0.048657 -0.986054 -0.15915399999999993
vn 0.048657 -0.986054 -0.15915399999999993
vn 0.847485 0.13294099999999998 -0.513903
vn -0.537663 -0.15655499999999994 0.828498
vn 0.545574 -0.10025399999999994 0.832045
vn 0.545574 -0.10025399999999994 0.832045
vn 0.846638 0.13309499999999996 -0.515256
vn -0.858018 0.042773999999999965 -0.511835
vn 0.545574 -0.10025399999999994 0.832045
vn -0.537663 -0.15655499999999994 0.828498
vn -0.855173 0.043758999999999965 -0.516493
vn 0.847485 0.13294099999999998 -0.513903
vn 0.846638 0.13309499999999996 -0.515256
vn -0.858018 0.042773999999999965 -0.511835
vn -0.855173 0.043758999999999965 -0.516493
g OR_mil_standard_prob
f 1/1/1 2/2/2 3/3/3
f 4/4/4 5/5/5 6/6/6
f 7/7/7 8/8/8 9/9/9
f 10/10/10 11/11/11 12/12/12
f 13/13/13 14/14/14 15/15/15
f 16/16/16 17/17/17 18/18/18
f 19/19/19 20/20/20 21/21/21
f 22/22/22 23/23/23 24/24/24
f 25/25/25 26/26/26 22/22/22
f 27/27/27 28/28/28 29/29/29
f 29/29/29 30/30/30 27/27/27
f 31/31/31 32/32/32 33/33/33
f 33/33/33 34/34/34 31/31/31
