v -1.333251 0.918008 0.6586049999999999
v -1.368834 0.942616 0.7838799999999999
v -1.241713 0.965031 0.7838799999999999
v -1.241713 0.965031 0.7838799999999999
v -1.266735 0.929737 0.6586049999999999
v -1.333251 0.918008 0.6586049999999999
v -0.91013 -0.1511059999999999 1.325544
v -0.945424 -0.17612699999999992 1.450819
v -0.923009 -0.04900499999999991 1.450819
v -0.923009 -0.04900499999999991 1.450819
v -0.898401 -0.08458999999999992 1.325544
v -0.91013 -0.1511059999999999 1.325544
v 1.49759 0.033689000000000045 0.767952
v 1.49759 0.03368900000000004 0.705523
v 1.33646 0.06525700000000004 0.760737
v 1.080087 0.36765900000000007 1.166852
v 1.055434 0.37787000000000004 1.039022
v 1.021434 0.4599520000000001 1.039022
v 1.021434 0.4599520000000001 1.039022
v 1.031646 0.48460500000000006 1.166852
v 1.080087 0.36765900000000007 1.166852
v -0.842439 -1.009264 0.6923850000000001
v -0.799919 -0.564812 0.694056
v -1.122784 -0.595592 0.694056
v -0.694663 0.4247500000000001 1.970226
v -0.088641 0.47526200000000013 1.970226
v -0.753861 1.0184180000000003 1.924977
v 0.046534 -0.925052 0.6521120000000001
v 0.046534 -0.925052 -0.0026709999999999434
v 0.046332 -1.061563 -0.0006679999999999349
v 0.046332 -1.061563 -0.0006679999999999349
v 0.046534 -1.061121 0.6521120000000001
v 0.046534 -0.925052 0.6521120000000001
v -0.677158 -0.925051 -0.0026709999999999434
v -0.677158 -0.925051 0.6521120000000001
v -0.677158 -1.061121 0.6521120000000001
v -0.677158 -1.061121 0.6521120000000001
v -0.676399 -1.061563 -0.0006679999999999349
v -0.677158 -0.925051 -0.0026709999999999434
v -1.425191 0.965534 0.7839209999999999
v -1.465191 1.005534 0.7839209999999999
v -1.465191 0.4167100000000001 0.783921
v -1.465191 0.4167100000000001 0.783921
v -1.425192 0.45671000000000006 0.783921
v -1.425191 0.965534 0.7839209999999999
v 0.01912 0.8059460000000002 1.512392
v 0.01912 0.7598860000000001 1.35019
v 0.067367 0.7598860000000001 1.349757
v 0.067367 0.7598860000000001 1.349757
v 0.085662 0.8059460000000002 1.512392
v 0.01912 0.8059460000000002 1.512392
v 0.01912 0.5179570000000001 1.512392
v 0.085662 0.5179570000000001 1.512392
v 0.066417 0.5640170000000001 1.349325
v 0.066417 0.5640170000000001 1.349325
v 0.01912 0.5640170000000001 1.35019
v 0.01912 0.5179570000000001 1.512392
v 0.066417 0.5640170000000001 1.349325
v 0.067367 0.7598860000000001 1.349757
v 0.01912 0.7598860000000001 1.35019
v 0.01912 0.7598860000000001 1.35019
v 0.01912 0.5640170000000001 1.35019
v 0.066417 0.5640170000000001 1.349325
v 0.068317 1.240046 1.35019
v 0.085662 1.257245 1.512392
v 0.085662 0.8059460000000002 1.512392
v 0.085662 0.8059460000000002 1.512392
v 0.067367 0.7598860000000001 1.349757
v 0.068317 1.240046 1.35019
v 0.085662 0.5179570000000001 1.512392
v 0.085663 0.35772900000000013 1.512392
v 0.065467 0.36076500000000006 1.348892
v 0.065467 0.36076500000000006 1.348892
v 0.066417 0.5640170000000001 1.349325
v 0.085662 0.5179570000000001 1.512392
v 1.266556 -0.352491 0.317881
v 1.288463 -0.292301 0.16590700000000003
v 1.266556 -0.352491 0.317881
v -1.18882 -0.5436249999999999 1.512392
v -1.171474 -0.5264249999999999 1.35019
v -0.7757 -0.5202759999999998 1.348974
v -0.7757 -0.5202759999999998 1.348974
v -0.768964 -0.5436249999999999 1.512392
v -1.18882 -0.5436249999999999 1.512392
v -1.268874 0.813669 0.893306
v -1.197786 0.887283 0.893306
v -1.28399 0.8993980000000001 1.071347
v -1.245829 0.977638 0.8933059999999999
v -1.28399 0.8993980000000001 1.071347
v -1.346609 0.959868 0.8933059999999999
v -1.296241 0.8990690000000001 0.912029
v -1.271598 0.9032650000000001 0.912029
v -1.271598 0.903265 0.776727
v -1.271598 0.903265 0.776727
v -1.296241 0.899069 0.776727
v -0.786352 -0.1391759999999999 1.560245
v -0.831212 -0.0471979999999999 1.560245
v -0.87208 -0.12405999999999989 1.738286
v -0.932551 -0.061439999999999904 1.560245
v -0.87208 -0.12405999999999989 1.738286
v -0.950321 -0.16222099999999992 1.560245
v -0.874253 -0.13458599999999993 1.578968
v -0.869768 -0.1099939999999999 1.578968
v -0.869768 -0.10999399999999991 1.443666
v -0.869768 -0.10999399999999991 1.443666
v -0.874253 -0.13458599999999993 1.443666
v -1.184249 0.44000900000000004 1.215923
v -1.184249 0.45879000000000003 1.344346
v -1.312595 0.45879000000000003 1.344346
v -1.312595 0.45879000000000003 1.344346
v -1.312595 0.44000900000000004 1.215923
v 1.358552 -0.36771899999999996 0.813813
v 1.344182 -0.38498099999999996 0.813797
v 1.288257 -0.338054 0.314016
v 1.288257 -0.338054 0.314016
v 1.302627 -0.320792 0.314031
v 1.363616 -0.4080599999999999 0.705523
v 1.49759 0.03368900000000004 0.705523
v 1.49759 0.033689000000000045 0.767952
v 1.49759 0.033689000000000045 0.767952
v 1.363616 -0.4080599999999999 0.767952
v 1.466509 0.02970000000000005 0.813813
v 1.462696 0.007565000000000049 0.813797
v 1.3908 0.02024300000000002 0.314016
v 1.3908 0.02024300000000002 0.314016
v 1.394613 0.04237700000000002 0.314031
v -1.166357 0.965534 0.7839209999999999
v -1.171475 1.005534 0.7839209999999999
v -1.465191 1.005534 0.7839209999999999
v -1.465191 1.005534 0.7839209999999999
v -1.425191 0.965534 0.7839209999999999
v 0.035331 -0.16503199999999993 1.168196
v 0.040618 -0.23604699999999992 1.168196
v 0.940321 -0.5626379999999999 1.168196
v 0.940321 -0.5626379999999999 1.168196
v 0.902694 -0.48025899999999994 1.168196
v 0.902694 -0.48025899999999994 1.168196
v 0.940321 -0.5626379999999999 1.168196
v 1.334568 0.5205490000000002 1.168196
v 1.334568 0.5205490000000002 1.168196
v 1.250599 0.47559900000000005 1.168196
v -1.12501 1.19466 1.512392
v -1.18882 1.257246 1.512392
v -1.18882 -0.5436249999999999 1.512392
v -1.18882 -0.5436249999999999 1.512392
v -1.12501 -0.4776109999999999 1.512392
v -0.712083 0.3036910000000001 2.029323
v -0.799485 0.3946080000000001 2.029323
v -0.799485 -1.0936029999999999 2.029323
v -0.799485 -1.0936029999999999 2.029323
v -0.712083 -1.0026859999999997 2.029323
v -1.346609 0.959868 0.8933059999999999
v -1.360852 0.858529 0.893306
v -1.28399 0.8993980000000001 1.071347
v -1.268874 0.813669 0.893306
v -1.271598 0.9032650000000001 0.912029
v -1.296241 0.8990690000000001 0.912029
v -1.296241 0.899069 0.776727
v -1.271598 0.903265 0.776727
v -1.321658 0.852266 0.658605
v -1.34668 0.816972 0.78388
v -1.368834 0.942616 0.7838799999999999
v -1.333251 0.918008 0.6586049999999999
v -1.266735 0.929737 0.6586049999999999
v -1.241713 0.965031 0.7838799999999999
v -1.219559 0.839387 0.78388
v -1.255143 0.863995 0.658605
v -1.241713 0.965031 0.7838799999999999
v -1.368834 0.942616 0.7838799999999999
v -1.34668 0.816972 0.78388
v -1.219559 0.839387 0.78388
v -0.950321 -0.16222099999999992 1.560245
v -0.859965 -0.21026399999999992 1.560245
v -0.87208 -0.12405999999999989 1.738286
v -0.786352 -0.1391759999999999 1.560245
v -0.869768 -0.1099939999999999 1.578968
v -0.874253 -0.13458599999999993 1.578968
v -0.874253 -0.13458599999999993 1.443666
v -0.869768 -0.10999399999999991 1.443666
v -0.844388 -0.16269799999999993 1.325544
v -0.81978 -0.19828199999999993 1.450819
v -0.945424 -0.17612699999999992 1.450819
v -0.91013 -0.1511059999999999 1.325544
v -0.898401 -0.08458999999999992 1.325544
v -0.923009 -0.04900499999999991 1.450819
v -0.797365 -0.07115999999999992 1.450819
v -0.832659 -0.09618199999999992 1.325544
v -0.923009 -0.04900499999999991 1.450819
v -0.945424 -0.17612699999999992 1.450819
v -0.81978 -0.19828199999999993 1.450819
v -0.797365 -0.07115999999999992 1.450819
v 1.344182 -0.38498099999999996 0.813797
v 1.358552 -0.36771899999999996 0.813813
v 1.302627 -0.320792 0.314031
v 1.288257 -0.338054 0.314016
v 1.462696 0.007565000000000049 0.813797
v 1.466509 0.02970000000000005 0.813813
v 1.394613 0.04237700000000002 0.314031
v 1.3908 0.02024300000000002 0.314016
v 0.162788 -1.0642659999999997 1.916719
v 0.158382 -1.062005 6.502905119642424E-17
v 0.158382 0.360069 -2.2047867416109414E-17
v 0.162788 0.3652710000000001 1.916719
v -0.7757 -0.5202759999999998 1.348974
v -1.171474 -0.5264249999999999 1.35019
v -1.171474 -0.526425 3.223423456205727E-17
v -0.775113 -0.519198 3.1791708441185375E-17
v 0.16087 -0.599224 -0.0002659999999999633
v 0.201428 -0.599224 0.16996100000000003
v 0.219032 -0.556726 0.16996100000000003
v 0.190353 -0.528047 -0.0002659999999999677
v 0.219032 -0.556726 0.16996100000000003
v 0.26153 -0.539122 0.16996100000000003
v 0.26153 -0.498564 -0.0002659999999999695
v 0.26153 -0.539122 0.16996100000000003
v 0.304027 -0.556726 0.16996100000000003
v 0.332706 -0.528047 -0.0002659999999999677
v 0.304027 -0.556726 0.16996100000000003
v 0.32163 -0.599224 0.16996100000000003
v 0.362188 -0.599224 -0.0002659999999999633
v 0.32163 -0.599224 0.16996100000000003
v 0.304027 -0.641722 0.16996100000000003
v 0.332706 -0.6704 -0.000265999999999959
v 0.304027 -0.641722 0.16996100000000003
v 0.261529 -0.659325 0.16996100000000003
v 0.261529 -0.699883 -0.00026599999999995713
v 0.261529 -0.659325 0.16996100000000003
v 0.219031 -0.641722 0.16996100000000003
v 0.190352 -0.6704 -0.000265999999999959
v 0.201428 -0.599224 0.16996100000000003
v 0.16087 -0.599224 -0.0002659999999999633
v 0.219031 -0.641722 0.16996100000000003
v 0.177333 -0.400091 -0.0002659999999999755
v 0.217891 -0.400091 0.16996100000000003
v 0.235495 -0.357593 0.16996100000000003
v 0.206816 -0.328914 -0.00026599999999997985
v 0.235495 -0.357593 0.16996100000000003
v 0.277993 -0.339989 0.16996100000000003
v 0.277993 -0.299431 -0.0002659999999999817
v 0.277993 -0.339989 0.16996100000000003
v 0.320491 -0.357593 0.16996100000000003
v 0.349169 -0.328914 -0.00026599999999997985
v 0.320491 -0.357593 0.16996100000000003
v 0.338093 -0.400091 0.16996100000000003
v 0.378651 -0.400091 -0.0002659999999999755
v 0.338093 -0.400091 0.16996100000000003
v 0.32049 -0.442588 0.16996100000000003
v 0.349169 -0.471267 -0.0002659999999999712
v 0.32049 -0.442588 0.16996100000000003
v 0.277992 -0.460192 0.16996100000000003
v 0.277992 -0.50075 -0.00026599999999996933
v 0.277992 -0.460192 0.16996100000000003
v 0.235494 -0.442588 0.16996100000000003
v 0.206815 -0.471267 -0.0002659999999999712
v 0.217891 -0.400091 0.16996100000000003
v 0.177333 -0.400091 -0.0002659999999999755
v 0.235494 -0.442588 0.16996100000000003
v 0.31785 1.167056 0.10700199999999993
v 0.31785 1.167056 -7.146156974128568E-17
v 0.280854 1.180521 -7.228606319881163E-17
v 0.280854 1.180521 0.10700199999999993
v 0.207421 0.5843240000000001 1.033769
v 0.063578 0.6222530000000001 1.428975
v 0.063148 0.5838030000000001 1.428819
v 0.206991 0.5458750000000001 1.033613
v 0.207421 0.7401780000000001 1.033769
v 0.063578 0.7401780000000001 1.428975
v 0.063148 0.7017290000000002 1.428819
v 0.206991 0.7017290000000002 1.033613
v 0.101696 0.7598710000000001 1.332572
v 0.101696 0.5270350000000001 1.332572
v 0.111904 0.5270350000000001 1.301652
v 0.111904 0.7598710000000001 1.301652
v 0.139305 0.7758250000000001 1.238231
v 0.139304 0.5313700000000001 1.238231
v 0.145638 0.5313700000000001 1.207311
v 0.145638 0.7758250000000001 1.207311
v 0.176955 0.7642200000000001 1.132145
v 0.176955 0.5371840000000001 1.132145
v 0.18422 0.5371840000000001 1.101225
v 0.18422 0.7642200000000001 1.101225
v 1.031646 0.48460500000000006 1.166852
v 1.021434 0.4599520000000001 1.039022
v 0.949311 0.44999400000000006 1.039022
v 0.928887 0.47041700000000003 1.166852
v 1.224939 0.12924300000000008 1.164002
v 1.120714 0.31627700000000003 1.238094
v 1.058845 0.26436300000000007 1.238094
v 1.001683 0.3953090000000001 1.164002
v 1.082142 0.6387200000000001 1.415839
v 0.975425 0.4635830000000001 1.319546
v 1.051318 0.43596000000000007 1.319546
v 0.998144 0.4079360000000001 1.170244
v 0.996009 0.04592000000000007 1.164002
v 1.036391 0.25619100000000006 1.238094
v 0.955628 0.25619100000000006 1.238094
v 0.99601 0.39324400000000004 1.164002
v 0.687573 0.22399500000000008 1.164002
v 0.889865 0.29415900000000006 1.238094
v 0.849483 0.36410200000000004 1.238094
v 0.988365 0.39765700000000004 1.164002
v 0.845493 0.7248530000000001 1.164002
v 0.897759 0.5172170000000001 1.238094
v 0.970956 0.5513490000000001 1.238094
v 0.992279 0.41007000000000005 1.164002
v 1.304445 0.5801460000000002 1.164002
v 1.102154 0.5099820000000002 1.238094
v 1.142536 0.44003900000000007 1.238094
v 1.003653 0.40648400000000007 1.164002
v 1.10244 0.1738290000000001 1.415839
v 1.054061 0.37313100000000005 1.319546
v 0.980864 0.33899900000000005 1.319546
v 0.998647 0.39641400000000004 1.170244
v 0.744173 0.4020710000000001 1.415839
v 0.945247 0.36168900000000004 1.319546
v 0.945247 0.44245200000000007 1.319546
v 0.989768 0.40207100000000007 1.170244
v -0.721922 0.9821800000000002 1.970122
v -0.674996 0.9262540000000001 1.336416
v -0.690644 0.9275030000000001 1.334474
v -0.737571 0.9834280000000001 1.96818
v -1.171475 1.005534 0.6600329999999999
v -1.465191 1.005534 0.6600329999999999
v -1.465191 0.4167100000000001 0.660033
v -1.171475 0.4167100000000001 0.660033
v -0.600027 -1.206255 1.268112
v -0.600027 -1.206255 0.7662950000000001
v -0.02864 -1.206255 0.7662950000000001
v -0.02864 -1.206255 1.268112
v 0.046534 -0.925052 0.6521120000000001
v -0.677158 -0.925051 0.6521120000000001
v -0.677158 -0.925051 -0.0026709999999999434
v 0.046534 -0.925052 -0.0026709999999999434
v -1.465191 1.005534 0.6600329999999999
v -1.465191 1.005534 -6.157119972669173E-17
v -1.465191 0.41671 -2.551612838363468E-17
v -1.465191 0.4167100000000001 0.660033
v -1.166356 0.45671000000000006 0.783921
v -1.166356 0.45671000000000006 0.660033
v -1.425192 0.45671000000000006 0.660033
v -1.425192 0.45671000000000006 0.783921
v -1.425192 0.45671000000000006 0.783921
v -1.425192 0.45671000000000006 0.660033
v -1.425191 0.965534 0.6600329999999999
v -1.425191 0.965534 0.7839209999999999
v -1.425191 0.965534 0.7839209999999999
v -1.425191 0.965534 0.6600329999999999
v -1.166357 0.965534 0.6600329999999999
v -1.166357 0.965534 0.7839209999999999
v -1.171475 1.005534 0.7839209999999999
v -1.171475 1.005534 0.6600329999999999
v -1.465191 1.005534 0.6600329999999999
v -1.465191 1.005534 0.7839209999999999
v -1.465191 1.005534 0.7839209999999999
v -1.465191 1.005534 0.6600329999999999
v -1.465191 0.4167100000000001 0.660033
v -1.465191 0.4167100000000001 0.783921
v -1.465191 0.4167100000000001 0.783921
v -1.465191 0.4167100000000001 0.660033
v -1.171475 0.4167100000000001 0.660033
v -1.171475 0.4167100000000001 0.783921
v -1.425192 0.45671000000000006 0.783921
v -1.465191 0.4167100000000001 0.783921
v -1.171475 0.4167100000000001 0.783921
v -1.166356 0.45671000000000006 0.783921
v -0.782892 0.3652710000000001 1.916719
v -0.774852 0.361649 0.011574999999999978
v -0.778487 -1.062006 6.50291124287642E-17
v -0.782892 -1.0642659999999997 1.916719
v -1.465191 0.41671 -2.551612838363468E-17
v -1.171475 0.41671 -2.551612838363468E-17
v -1.171475 0.4167100000000001 0.660033
v -1.465191 0.4167100000000001 0.660033
v -1.465191 1.005534 0.6600329999999999
v -1.171475 1.005534 0.6600329999999999
v -1.171475 1.005534 -6.157119972669173E-17
v -1.465191 1.005534 -6.157119972669173E-17
v 1.298322 0.50286 0.893652
v 0.923342 -0.527391 0.893652
v 0.923342 -0.527391 3.229338500245609E-17
v 1.298322 0.50286 -3.07912944709619E-17
v 0.923342 -0.527391 0.893652
v 0.04996 -0.21037999999999996 0.893652
v 0.04996 -0.21038 1.2882059680231009E-17
v 0.923342 -0.527391 3.229338500245609E-17
v 0.049961 0.957987 -5.865978565873877E-17
v 0.049961 0.957987 0.8936519999999999
v 1.298322 0.50286 0.893652
v 1.298322 0.50286 -3.07912944709619E-17
v 0.621397 1.059305 0.10700199999999993
v 0.621397 1.059305 -6.486372387853934E-17
v 0.584401 1.07277 -6.56882173360653E-17
v 0.584401 1.07277 0.10700199999999993
v 0.293563 1.122888 -6.875705975004866E-17
v 0.248505 0.999094 0.16818599999999995
v 0.530497 0.896457 0.16818599999999995
v 0.575555 1.020252 -6.247241730618426E-17
v 0.493776 0.795565 0.16818599999999995
v 0.530497 0.896457 0.16818599999999995
v 0.248505 0.999094 0.16818599999999995
v 0.211783 0.898202 0.16818599999999995
v 0.01912 0.5640170000000001 1.35019
v 0.01912 0.35949500000000006 1.35019
v 0.01912 0.3594950000000001 1.512392
v 0.01912 0.5179570000000001 1.512392
v 0.01912 0.8059460000000002 1.512392
v 0.01912 1.19466 1.512392
v 0.01912 1.19466 1.35019
v 0.01912 0.7598860000000001 1.35019
v 0.085662 0.8059460000000002 1.512392
v 0.085662 1.257245 1.512392
v 0.01912 1.19466 1.512392
v 0.01912 0.8059460000000002 1.512392
v 0.01912 0.5179570000000001 1.512392
v 0.01912 0.3594950000000001 1.512392
v 0.085663 0.35772900000000013 1.512392
v 0.085662 0.5179570000000001 1.512392
v 1.239311 -0.498405 3.0518504396451826E-17
v 1.290614 -0.357451 0.16850100000000004
v 1.01677 -0.25778 0.16850100000000004
v 0.965467 -0.398734 2.4415415840561035E-17
v 1.290614 -0.357451 0.16850100000000004
v 1.429277 0.02352300000000001 0.168501
v 1.155433 0.12319400000000001 0.168501
v 1.01677 -0.25778 0.16850100000000004
v 1.24203 -0.552246 0.13995600000000002
v 1.309099 -0.367975 0.317881
v 1.266556 -0.352491 0.317881
v 1.199487 -0.536762 0.13995600000000002
v 1.309099 -0.367975 0.317881
v 1.455771 0.03500100000000002 0.317881
v 1.397746 0.007951000000000019 0.317881
v 1.266556 -0.352491 0.317881
v 1.266556 -0.352491 0.317881
v 1.397746 0.007951000000000019 0.317881
v 1.397746 0.00795100000000001 0.167041
v 1.288463 -0.292301 0.16590700000000003
v 1.217286 -0.487857 2.987262567458151E-17
v 1.266556 -0.352491 0.317881
v 1.199487 -0.536762 3.2867193260196577E-17
v 1.199487 -0.536762 0.13995600000000002
v 1.144494 0.10012700000000001 0.317881
v 1.144494 0.10012700000000001 0.167041
v 1.397746 0.00795100000000001 0.167041
v 1.397746 0.007951000000000019 0.317881
v 1.199487 -0.536762 0.13995600000000002
v 1.199487 -0.536762 3.2867193260196577E-17
v 1.24203 -0.552246 3.381531481209646E-17
v 1.24203 -0.552246 0.13995600000000002
v 1.455771 0.03500100000000002 0.317881
v 1.455771 0.035001 -2.1431931308478255E-18
v 1.159976 0.142662 -8.735528082997986E-18
v 1.159976 0.14266200000000004 0.317881
v 1.397746 0.007951000000000019 0.317881
v 1.455771 0.03500100000000002 0.317881
v 1.159976 0.14266200000000004 0.317881
v 1.144494 0.10012700000000001 0.317881
v -0.02864 -1.206255 0.7662950000000001
v -0.02864 -1.06163 0.7662950000000001
v -0.02864 -1.06163 1.326002
v -0.02864 -1.206255 1.268112
v -0.627483 -1.224003 1.270526
v -0.001184 -1.224003 1.270526
v -0.001184 -1.06163 1.335146
v -0.627483 -1.06163 1.335146
v -0.600027 -1.206255 1.268112
v -0.600027 -1.06163 1.326002
v -0.600027 -1.06163 0.7662950000000001
v -0.600027 -1.206255 0.7662950000000001
v -1.100737 1.029807 0.6521119999999999
v -1.100737 1.029807 -0.002671000000000063
v -1.100737 1.236531 -0.0006680000000000757
v -1.100737 1.233017 0.6521119999999999
v -0.00257 1.029807 -0.002671000000000063
v -0.00257 1.029807 0.6521119999999999
v -0.00257 1.233017 0.6521119999999999
v -0.00257 1.236532 -0.0006680000000000757
v -1.100737 1.029807 0.6521119999999999
v -0.00257 1.029807 0.6521119999999999
v -0.00257 1.029807 -0.002671000000000063
v -1.100737 1.029807 -0.002671000000000063
v 0.062978 0.9084970000000001 1.168196
v 0.062978 0.9084970000000001 1.038196
v 1.250599 0.47559900000000005 1.038196
v 1.250599 0.47559900000000005 1.168196
v 1.250599 0.47559900000000005 1.168196
v 1.250599 0.47559900000000005 1.038196
v 0.902694 -0.48025899999999994 1.038196
v 0.902694 -0.48025899999999994 1.168196
v 0.902694 -0.48025899999999994 1.168196
v 0.902694 -0.48025899999999994 1.038196
v 0.035331 -0.16503199999999996 1.038196
v 0.035331 -0.16503199999999993 1.168196
v 0.040618 -0.23604699999999992 1.168196
v 0.040618 -0.23604699999999995 0.893652
v 0.940321 -0.562638 0.893652
v 0.940321 -0.5626379999999999 1.168196
v 0.940321 -0.5626379999999999 1.168196
v 0.940321 -0.562638 0.893652
v 1.334568 0.520549 0.893652
v 1.334568 0.5205490000000002 1.168196
v 1.334568 0.5205490000000002 1.168196
v 1.334568 0.520549 0.893652
v 0.059886 0.985256 0.8936519999999999
v 0.059886 0.9852560000000001 1.168196
v 1.250599 0.47559900000000005 1.168196
v 1.334568 0.5205490000000002 1.168196
v 0.059886 0.9852560000000001 1.168196
v 0.062978 0.9084970000000001 1.168196
v -1.18882 1.257246 1.512392
v -1.171474 1.240046 1.35019
v -1.171474 -0.5264249999999999 1.35019
v -1.18882 -0.5436249999999999 1.512392
v -0.769235 -0.4776109999999999 1.512392
v -0.769235 -0.47761099999999995 1.35019
v -1.12501 -0.4776099999999999 1.35019
v -1.12501 -0.4776109999999999 1.512392
v -1.12501 -0.4776109999999999 1.512392
v -1.12501 -0.4776099999999999 1.35019
v -1.12501 1.19466 1.35019
v -1.12501 1.19466 1.512392
v -1.12501 1.19466 1.512392
v -1.12501 1.19466 1.35019
v 0.01912 1.19466 1.35019
v 0.01912 1.19466 1.512392
v 0.085662 1.257245 1.512392
v 0.068317 1.240046 1.35019
v -1.171474 1.240046 1.35019
v -1.18882 1.257246 1.512392
v -1.12501 -0.4776109999999999 1.512392
v -1.18882 -0.5436249999999999 1.512392
v -0.768964 -0.5436249999999999 1.512392
v -0.769235 -0.4776109999999999 1.512392
v 0.01912 1.19466 1.512392
v 0.085662 1.257245 1.512392
v -1.18882 1.257246 1.512392
v -1.12501 1.19466 1.512392
v -0.712083 -1.0026859999999997 2.029323
v -0.799485 -1.0936029999999999 2.029323
v 0.179381 -1.0936029999999999 2.029323
v 0.091979 -1.0026859999999997 2.029323
v 0.091979 -1.0026859999999997 2.029323
v 0.179381 -1.0936029999999999 2.029323
v 0.179381 0.3946080000000001 2.029323
v 0.091978 0.3036910000000001 2.029323
v 0.091978 0.3036910000000001 2.029323
v 0.179381 0.3946080000000001 2.029323
v -0.799485 0.3946080000000001 2.029323
v -0.712083 0.3036910000000001 2.029323
v -0.799485 0.3946080000000001 2.029323
v -0.782892 0.3652710000000001 1.916719
v -0.782892 -1.0642659999999997 1.916719
v -0.799485 -1.0936029999999999 2.029323
v -0.799485 -1.0936029999999999 2.029323
v -0.782892 -1.0642659999999997 1.916719
v 0.162788 -1.0642659999999997 1.916719
v 0.179381 -1.0936029999999999 2.029323
v 0.179381 -1.0936029999999999 2.029323
v 0.162788 -1.0642659999999997 1.916719
v 0.162788 0.3652710000000001 1.916719
v 0.179381 0.3946080000000001 2.029323
v 0.179381 0.3946080000000001 2.029323
v 0.162788 0.3652710000000001 1.916719
v -0.782892 0.3652710000000001 1.916719
v -0.799485 0.3946080000000001 2.029323
v 0.902694 -0.48025899999999994 1.038196
v 1.250599 0.47559900000000005 1.038196
v 0.062978 0.9084970000000001 1.038196
v 0.035331 -0.16503199999999996 1.038196
v 0.280854 1.180521 0.10700199999999993
v 0.280854 1.180521 -7.228606319881163E-17
v 0.180371 0.904446 -5.538134494508135E-17
v 0.230613 1.042484 0.23622199999999993
v 0.180371 0.904446 0.23622199999999993
v 0.31785 1.167056 -7.146156974128568E-17
v 0.31785 1.167056 0.10700199999999993
v 0.267609 1.029018 0.23622199999999993
v 0.217367 0.890981 -5.4556851487555397E-17
v 0.217367 0.890981 0.23622199999999993
v 0.997393 0.3050300000000001 1.166852
v 1.080087 0.36765900000000007 1.166852
v 0.914699 0.36765900000000007 1.166852
v 1.031646 0.48460500000000006 1.166852
v 0.928887 0.47041700000000003 1.166852
v 0.928887 0.47041700000000003 1.166852
v 0.949311 0.44999400000000006 1.039022
v 0.939353 0.37787000000000004 1.039022
v 0.914699 0.36765900000000007 1.166852
v 0.997393 0.33391300000000007 1.039022
v 0.997393 0.3050300000000001 1.166852
v 1.055434 0.37787000000000004 1.039022
v 1.080087 0.36765900000000007 1.166852
v 0.046332 -1.061563 -0.0006679999999999349
v 0.158382 -1.062005 6.502905119642424E-17
v 0.039996 -1.063136 0.46915900000000005
v 0.162788 -1.0642659999999997 1.916719
v -0.019734 -1.063136 0.5764770000000001
v -0.029431 -1.063387 1.326801
v -0.029577 -1.063262 0.7702050000000001
v -0.593463 -1.063387 1.326801
v -0.110623 -1.063136 0.6508830000000001
v -0.782892 -1.0642659999999997 1.916719
v -0.593317 -1.063261 0.7702050000000001
v -0.778487 -1.062006 6.50291124287642E-17
v -0.517335 -1.063136 0.6508830000000001
v -0.677442 -1.063136 0.46915900000000005
v -0.676399 -1.061563 -0.0006679999999999349
v -0.608268 -1.063136 0.5764770000000001
v -0.427847 -1.063136 0.5764770000000001
v -0.201521 -1.063136 0.5764770000000001
v -0.269209 -1.063136 0.46915900000000005
v -0.360133 -1.063136 0.46915900000000005
v -0.359933 -1.062005 6.502905119642424E-17
v -0.269409 -1.062006 6.50291124287642E-17
v 0.584401 1.07277 0.10700199999999993
v 0.584401 1.07277 -6.56882173360653E-17
v 0.483918 0.796696 -4.878356031467498E-17
v 0.53416 0.934733 0.23622199999999993
v 0.483918 0.796696 0.23622199999999993
v 0.571156 0.921268 0.23622199999999993
v 0.520914 0.783231 0.23622199999999993
v 0.520914 0.783231 -4.795906685714903E-17
v 0.621397 1.059305 0.10700199999999993
v 0.621397 1.059305 -6.486372387853934E-17
v 0.068317 1.240046 -7.593091823477394E-17
v -0.00257 1.236532 -0.0006680000000000757
v -0.00257 1.240046 0.46796599999999994
v 0.068317 1.240046 1.35019
v -0.070783 1.240046 0.5752599999999999
v -0.162481 1.240046 0.6515379999999998
v -1.171474 1.240046 1.35019
v -0.551579 1.240046 0.6501679999999999
v -0.25418 1.240046 0.5752599999999999
v -0.461027 1.240047 0.5771709999999999
v -0.393783 1.240046 0.46848999999999996
v -0.322344 1.240046 0.46796599999999994
v -0.393783 1.240046 -7.593091823477394E-17
v -0.322344 1.240046 -7.593091823477394E-17
v -0.939934 1.240046 0.6477779999999999
v -0.642884 1.240046 0.5771709999999999
v -1.033437 1.240046 0.5764309999999999
v -0.846431 1.240046 0.5764309999999999
v -1.100737 1.240046 0.46766299999999994
v -0.711524 1.240046 0.46848999999999996
v -1.171474 1.240046 -7.593091823477394E-17
v -1.100737 1.236531 -0.0006680000000000757
v -0.779067 1.240046 0.46766299999999994
v -0.711524 1.240046 -7.593091823477394E-17
v -0.779067 1.240046 -7.593091823477394E-17
v -0.774852 0.36164900000000005 1.348892
v -0.782892 0.3652710000000001 1.916719
v 0.065467 0.36017800000000005 1.02777
v 0.162788 0.3652710000000001 1.916719
v 0.158382 0.36301000000000005 1.029184
v 0.068317 0.94544 -5.789150348929368E-17
v 0.068317 1.240046 -7.593091823477394E-17
v 0.068317 1.240046 1.35019
v 0.068317 0.9454400000000001 1.026355
v 0.067367 0.7598860000000001 1.349757
v 0.066417 0.5640170000000001 1.349325
v 0.065467 0.36076500000000006 1.348892
v 0.065467 0.36017800000000005 1.02777
v -1.184249 0.9630390000000001 1.344346
v -1.184249 0.9824760000000001 1.278735
v -1.312595 0.9824750000000001 1.278735
v -1.312595 0.9630390000000001 1.344346
v -1.184249 0.45879000000000003 1.344346
v -1.312595 0.45879000000000003 1.344346
v 0.230613 1.042484 0.23622199999999993
v 0.180371 0.904446 0.23622199999999993
v 0.217367 0.890981 0.23622199999999993
v 0.267609 1.029018 0.23622199999999993
v 0.280854 1.180521 0.10700199999999993
v 0.31785 1.167056 0.10700199999999993
v 0.299094 0.21452500000000008 1.134262
v 0.313448 0.22888000000000008 1.169034
v 0.331051 0.18638200000000008 1.169034
v 0.310751 0.18638200000000008 1.134262
v 0.342127 0.25755900000000004 1.035242
v 0.371609 0.18638200000000005 1.035242
v 0.299094 0.21452500000000008 1.134262
v 0.270951 0.28704100000000005 1.035242
v 0.270951 0.22618300000000008 1.134262
v 0.313448 0.22888000000000008 1.169034
v 0.270951 0.2464830000000001 1.169034
v 0.270951 0.22618300000000008 1.134262
v 0.199774 0.25755900000000004 1.035242
v 0.242807 0.21452500000000008 1.134262
v 0.270951 0.2464830000000001 1.169034
v 0.228453 0.22888000000000008 1.169034
v 0.242807 0.21452500000000008 1.134262
v 0.170291 0.18638200000000005 1.035242
v 0.231149 0.18638200000000008 1.134262
v 0.228453 0.22888000000000008 1.169034
v 0.210849 0.18638200000000008 1.169034
v 0.299093 0.15823800000000007 1.134262
v 0.342127 0.11520500000000007 1.035242
v 0.310751 0.18638200000000008 1.134262
v 0.313448 0.1438840000000001 1.169034
v 0.331051 0.18638200000000008 1.169034
v 0.299093 0.15823800000000007 1.134262
v 0.27095 0.14658100000000007 1.134262
v 0.27095 0.08572300000000006 1.035242
v 0.27095 0.1262810000000001 1.169034
v 0.313448 0.1438840000000001 1.169034
v 0.27095 0.14658100000000007 1.134262
v 0.242807 0.15823800000000007 1.134262
v 0.199773 0.11520500000000007 1.035242
v 0.228452 0.1438840000000001 1.169034
v 0.27095 0.1262810000000001 1.169034
v 0.231149 0.18638200000000008 1.134262
v 0.170291 0.18638200000000005 1.035242
v 0.242807 0.15823800000000007 1.134262
v 0.210849 0.18638200000000008 1.169034
v 0.228452 0.1438840000000001 1.169034
v 0.53416 0.934733 0.23622199999999993
v 0.483918 0.796696 0.23622199999999993
v 0.520914 0.783231 0.23622199999999993
v 0.571156 0.921268 0.23622199999999993
v 0.584401 1.07277 0.10700199999999993
v 0.621397 1.059305 0.10700199999999993
v 1.24203 -0.552246 0.13995600000000002
v 1.24203 -0.552246 3.381531481209646E-17
v 1.309099 -0.367975 0.317881
v 1.455771 0.03500100000000002 0.317881
v 1.455771 0.035001 -2.1431931308478255E-18
v -0.774852 0.36164900000000005 1.348892
v -1.12501 -0.4776099999999999 1.35019
v -0.769235 -0.47761099999999995 1.35019
v -1.12501 1.19466 1.35019
v 0.01912 0.35949500000000006 1.35019
v 0.01912 0.5640170000000001 1.35019
v 0.01912 0.7598860000000001 1.35019
v 0.01912 1.19466 1.35019
v -0.655099 0.3036910000000001 2.189625
v -0.712083 0.3036910000000001 2.029323
v -0.712083 -1.0026859999999997 2.029323
v -0.655099 -1.0026859999999997 2.189625
v -0.42129 0.30369100000000016 2.376757
v -0.436303 -1.0026859999999997 2.37768
v -0.183801 0.30369100000000016 2.37768
v -0.183801 -1.0026859999999997 2.37768
v 0.034994 0.3036910000000001 2.189625
v 0.034994 -1.0026859999999997 2.189625
v 0.091978 0.3036910000000001 2.029323
v 0.091979 -1.0026859999999997 2.029323
v 1.363616 -0.4080599999999999 0.767952
v 1.49759 0.033689000000000045 0.767952
v 1.33646 0.06525700000000004 0.760737
v 1.207757 -0.32163899999999995 0.760737
v 1.029022 -0.26124299999999995 0.840258
v 1.193394 0.14802700000000005 0.840258
v -1.171474 1.240046 -7.593091823477394E-17
v -1.171475 1.005534 -6.157119972669173E-17
v -1.171474 1.240046 1.35019
v -1.171475 0.41671 -2.551612838363468E-17
v -1.171474 -0.526425 3.223423456205727E-17
v -1.171474 -0.5264249999999999 1.35019
v 0.034994 -1.0026859999999997 2.189625
v -0.183801 -1.0026859999999997 2.37768
v -0.436303 -1.0026859999999997 2.37768
v -0.655099 -1.0026859999999997 2.189625
v -0.712083 -1.0026859999999997 2.029323
v 0.091979 -1.0026859999999997 2.029323
v -0.655099 0.3036910000000001 2.189625
v -0.42129 0.30369100000000016 2.376757
v -0.183801 0.30369100000000016 2.37768
v 0.034994 0.3036910000000001 2.189625
v 0.091978 0.3036910000000001 2.029323
v -0.712083 0.3036910000000001 2.029323
v 0.201428 -0.599224 0.16996100000000003
v 0.219031 -0.641722 0.16996100000000003
v 0.219032 -0.556726 0.16996100000000003
v 0.304027 -0.556726 0.16996100000000003
v 0.26153 -0.539122 0.16996100000000003
v 0.304027 -0.641722 0.16996100000000003
v 0.32163 -0.599224 0.16996100000000003
v 0.261529 -0.659325 0.16996100000000003
v 0.217891 -0.400091 0.16996100000000003
v 0.235494 -0.442588 0.16996100000000003
v 0.235495 -0.357593 0.16996100000000003
v 0.320491 -0.357593 0.16996100000000003
v 0.277993 -0.339989 0.16996100000000003
v 0.32049 -0.442588 0.16996100000000003
v 0.338093 -0.400091 0.16996100000000003
v 0.277992 -0.460192 0.16996100000000003
v 0.210849 0.18638200000000008 1.169034
v 0.228452 0.1438840000000001 1.169034
v 0.228453 0.22888000000000008 1.169034
v 0.313448 0.22888000000000008 1.169034
v 0.270951 0.2464830000000001 1.169034
v 0.313448 0.1438840000000001 1.169034
v 0.331051 0.18638200000000008 1.169034
v 0.27095 0.1262810000000001 1.169034
vt 0.234232 0.792759
vt 0.234231 0.761716
vt 0.248870 0.761716
vt 0.248870 0.761716
vt 0.248870 0.792759
vt 0.234232 0.792759
vt 0.234232 0.792759
vt 0.234231 0.761716
vt 0.248870 0.761716
vt 0.248870 0.761716
vt 0.248870 0.792759
vt 0.234232 0.792759
vt 0.779377 0.580453
vt 0.770647 0.580453
vt 0.779377 0.525783
vt 0.047479 0.948607
vt 0.047479 0.976506
vt 0.035065 0.976506
vt 0.035065 0.976506
vt 0.035065 0.948607
vt 0.047479 0.948607
vt 0.624937 0.587258
vt 0.603737 0.624207
vt 0.611904 0.576257
vt 0.697677 0.623197
vt 0.620138 0.624882
vt 0.670698 0.577770
vt 0.756740 0.219351
vt 0.756740 0.296146
vt 0.748490 0.295989
vt 0.748490 0.295989
vt 0.748490 0.219351
vt 0.756740 0.219351
vt 0.800618 0.296146
vt 0.800618 0.219351
vt 0.808868 0.219351
vt 0.808868 0.219351
vt 0.808868 0.295989
vt 0.800618 0.296146
vt 0.909278 0.770237
vt 0.913284 0.770237
vt 0.913284 0.908329
vt 0.913284 0.908329
vt 0.909278 0.908329
vt 0.909278 0.770237
vt 0.591685 0.027144
vt 0.612131 0.027337
vt 0.612153 0.038655
vt 0.612153 0.038655
vt 0.591645 0.042752
vt 0.591685 0.027144
vt 0.656324 0.026322
vt 0.656496 0.041928
vt 0.635904 0.038262
vt 0.635904 0.038262
vt 0.635882 0.027166
vt 0.656324 0.026322
vt 0.635904 0.038262
vt 0.612153 0.038655
vt 0.612131 0.027337
vt 0.612131 0.027337
vt 0.635882 0.027166
vt 0.635904 0.038262
vt 0.849831 0.206568
vt 0.849831 0.168855
vt 0.905014 0.168855
vt 0.905014 0.168855
vt 0.905014 0.206568
vt 0.849831 0.206568
vt 0.931328 0.147452
vt 0.912790 0.147452
vt 0.913141 0.110316
vt 0.913141 0.110316
vt 0.936658 0.110438
vt 0.931328 0.147452
vt 0.925545 0.645044
vt 0.908800 0.631391
vt 0.925545 0.645044
vt 0.467082 0.168858
vt 0.467082 0.206765
vt 0.416149 0.206765
vt 0.416149 0.206765
vt 0.416149 0.168858
vt 0.467082 0.168858
vt 0.230395 0.729541
vt 0.242065 0.725098
vt 0.242236 0.747951
vt 0.250151 0.730760
vt 0.242236 0.747951
vt 0.255717 0.750004
vt 0.211671 0.719361
vt 0.209642 0.719361
vt 0.209642 0.686743
vt 0.209642 0.686743
vt 0.211670 0.686743
vt 0.230395 0.729541
vt 0.242065 0.725098
vt 0.242236 0.747951
vt 0.250151 0.730760
vt 0.242236 0.747951
vt 0.255717 0.750004
vt 0.211671 0.719361
vt 0.209642 0.719361
vt 0.209642 0.686743
vt 0.209642 0.686743
vt 0.211670 0.686743
vt 0.023458 0.787150
vt 0.023458 0.819481
vt 0.007894 0.819481
vt 0.007894 0.819481
vt 0.007894 0.787150
vt 0.753914 0.042752
vt 0.753914 0.035304
vt 0.815154 0.035304
vt 0.815154 0.035304
vt 0.815154 0.042752
vt 0.854434 0.598807
vt 0.779377 0.598807
vt 0.779377 0.580453
vt 0.779377 0.580453
vt 0.854434 0.580453
vt 0.824241 0.042752
vt 0.824241 0.035304
vt 0.885481 0.035304
vt 0.885481 0.035304
vt 0.885481 0.042752
vt 0.909278 0.700740
vt 0.913284 0.700740
vt 0.913284 0.770237
vt 0.913284 0.770237
vt 0.909278 0.770237
vt 0.958212 0.107474
vt 0.964743 0.107474
vt 0.964743 0.335646
vt 0.964743 0.335646
vt 0.958212 0.323731
vt 0.958261 0.347504
vt 0.964743 0.335646
vt 0.964743 0.605503
vt 0.964743 0.605503
vt 0.958261 0.593644
vt 0.682224 0.151686
vt 0.691303 0.166696
vt 0.467082 0.167482
vt 0.467082 0.167482
vt 0.476843 0.153695
vt 0.718188 0.094709
vt 0.704990 0.076054
vt 0.878757 0.076054
vt 0.878757 0.076054
vt 0.865559 0.094709
vt 0.215130 0.697088
vt 0.224540 0.708186
vt 0.216978 0.721845
vt 0.230395 0.729541
vt 0.209642 0.719361
vt 0.205609 0.719361
vt 0.205608 0.686743
vt 0.209642 0.686743
vt 0.219659 0.792759
vt 0.219659 0.761716
vt 0.234231 0.761716
vt 0.234232 0.792759
vt 0.248870 0.792759
vt 0.248870 0.761716
vt 0.263447 0.761715
vt 0.263561 0.792759
vt 0.205068 0.730478
vt 0.219706 0.730478
vt 0.219659 0.761716
vt 0.204942 0.761717
vt 0.215130 0.697088
vt 0.224540 0.708186
vt 0.216978 0.721845
vt 0.230395 0.729541
vt 0.209642 0.719361
vt 0.205609 0.719361
vt 0.205608 0.686743
vt 0.209642 0.686743
vt 0.219659 0.792759
vt 0.219659 0.761716
vt 0.234231 0.761716
vt 0.234232 0.792759
vt 0.248870 0.792759
vt 0.248870 0.761716
vt 0.263447 0.761715
vt 0.263561 0.792759
vt 0.205068 0.730478
vt 0.219706 0.730478
vt 0.219659 0.761716
vt 0.204942 0.761717
vt 0.753914 0.035304
vt 0.753914 0.028128
vt 0.815154 0.028128
vt 0.815154 0.035304
vt 0.824241 0.035304
vt 0.824241 0.028150
vt 0.885481 0.028150
vt 0.885481 0.035304
vt 0.176187 0.541888
vt 0.176722 0.990305
vt 0.005097 0.990305
vt 0.004515 0.541888
vt 0.219435 0.216092
vt 0.267432 0.215807
vt 0.267432 0.532519
vt 0.219361 0.532519
vt 0.931686 0.493080
vt 0.910934 0.489393
vt 0.910934 0.478607
vt 0.932288 0.474573
vt 0.910934 0.471389
vt 0.910934 0.460599
vt 0.932264 0.456707
vt 0.910934 0.453519
vt 0.910934 0.442730
vt 0.932460 0.439087
vt 0.910934 0.435484
vt 0.910934 0.424695
vt 0.935881 0.420092
vt 0.910934 0.417736
vt 0.910934 0.406946
vt 0.932371 0.402513
vt 0.910934 0.399388
vt 0.910934 0.388598
vt 0.932286 0.384357
vt 0.910934 0.380896
vt 0.910934 0.370106
vt 0.932243 0.366563
vt 0.910934 0.352907
vt 0.932918 0.347586
vt 0.910934 0.363697
vt 0.931686 0.493080
vt 0.910934 0.489393
vt 0.910934 0.478607
vt 0.932288 0.474573
vt 0.910934 0.471389
vt 0.910934 0.460599
vt 0.932264 0.456707
vt 0.910934 0.453519
vt 0.910934 0.442730
vt 0.932460 0.439087
vt 0.910934 0.435484
vt 0.910934 0.424695
vt 0.935881 0.420092
vt 0.910934 0.417736
vt 0.910934 0.406946
vt 0.932371 0.402513
vt 0.910934 0.399388
vt 0.910934 0.388598
vt 0.932286 0.384357
vt 0.910934 0.380896
vt 0.910934 0.370106
vt 0.932243 0.366563
vt 0.910934 0.352907
vt 0.932918 0.347586
vt 0.910934 0.363697
vt 0.758021 0.540030
vt 0.758021 0.502382
vt 0.765200 0.502382
vt 0.765200 0.540030
vt 0.876563 0.279398
vt 0.876563 0.378252
vt 0.869970 0.378252
vt 0.869970 0.279398
vt 0.893328 0.280056
vt 0.893328 0.378910
vt 0.886779 0.378910
vt 0.886779 0.280056
vt 0.822007 0.628268
vt 0.850468 0.628268
vt 0.850468 0.638269
vt 0.822007 0.638269
vt 0.389182 0.487956
vt 0.417643 0.487956
vt 0.417643 0.498065
vt 0.389182 0.498065
vt 0.389647 0.522937
vt 0.418108 0.522937
vt 0.418108 0.533070
vt 0.389647 0.533070
vt 0.035065 0.948607
vt 0.035065 0.976506
vt 0.026765 0.976506
vt 0.026765 0.948607
vt 0.459905 0.694663
vt 0.486939 0.687469
vt 0.486939 0.701205
vt 0.505831 0.694663
vt 0.513864 0.723370
vt 0.540573 0.716176
vt 0.541224 0.730238
vt 0.559791 0.723370
vt 0.512248 0.694716
vt 0.539283 0.687847
vt 0.539283 0.701258
vt 0.558175 0.694716
vt 0.459905 0.694663
vt 0.486939 0.687469
vt 0.486939 0.701205
vt 0.505831 0.694663
vt 0.459905 0.694663
vt 0.486939 0.687469
vt 0.486939 0.701205
vt 0.505831 0.694663
vt 0.512248 0.694716
vt 0.539283 0.687847
vt 0.539283 0.701258
vt 0.558175 0.694716
vt 0.513864 0.723370
vt 0.540573 0.716176
vt 0.541224 0.730238
vt 0.559791 0.723370
vt 0.513864 0.723370
vt 0.540573 0.716176
vt 0.541224 0.730238
vt 0.559791 0.723370
vt 0.666809 0.035308
vt 0.744160 0.035308
vt 0.744160 0.039016
vt 0.666809 0.039016
vt 0.907710 0.393030
vt 0.907710 0.461927
vt 0.836308 0.461927
vt 0.836308 0.393030
vt 0.547391 0.751907
vt 0.547391 0.869618
vt 0.478104 0.869618
vt 0.478104 0.751907
vt 0.756740 0.219351
vt 0.800618 0.219351
vt 0.800618 0.296146
vt 0.756740 0.296146
vt 0.361330 0.751919
vt 0.441367 0.751919
vt 0.441367 0.890038
vt 0.361330 0.890038
vt 0.908691 0.977807
vt 0.896900 0.977807
vt 0.896900 0.908329
vt 0.908691 0.908329
vt 0.908691 0.908329
vt 0.896900 0.908329
vt 0.896900 0.770237
vt 0.908691 0.770237
vt 0.908691 0.770237
vt 0.896900 0.770237
vt 0.896900 0.700740
vt 0.908691 0.700740
vt 0.914255 0.700740
vt 0.925661 0.700740
vt 0.925661 0.770237
vt 0.914255 0.770237
vt 0.914255 0.770237
vt 0.925661 0.770237
vt 0.925661 0.908329
vt 0.914255 0.908329
vt 0.914255 0.908329
vt 0.925661 0.908329
vt 0.925661 0.977807
vt 0.914255 0.977807
vt 0.909278 0.908329
vt 0.913284 0.908329
vt 0.913284 0.977807
vt 0.909278 0.977807
vt 0.462514 0.541888
vt 0.461445 0.989799
vt 0.291488 0.990305
vt 0.292023 0.541888
vt 0.441367 0.890038
vt 0.441367 0.958935
vt 0.361330 0.958935
vt 0.361330 0.890038
vt 0.361330 0.751919
vt 0.361330 0.683022
vt 0.441367 0.683022
vt 0.441367 0.751919
vt 0.164371 0.003252
vt 0.296861 0.003252
vt 0.296861 0.204569
vt 0.164371 0.204569
vt 0.297616 0.003252
vt 0.409986 0.003252
vt 0.409986 0.204569
vt 0.297616 0.204569
vt 0.003247 0.204569
vt 0.003247 0.003252
vt 0.163600 0.003252
vt 0.163600 0.204569
vt 0.758021 0.540030
vt 0.758021 0.502382
vt 0.765200 0.502382
vt 0.765200 0.540030
vt 0.829509 0.460196
vt 0.793139 0.460196
vt 0.793139 0.389805
vt 0.829509 0.389805
vt 0.780120 0.389805
vt 0.793139 0.389805
vt 0.793139 0.460196
vt 0.780120 0.460196
vt 0.936658 0.202615
vt 0.912994 0.202615
vt 0.912994 0.166327
vt 0.931328 0.166327
vt 0.902576 0.150771
vt 0.848750 0.150771
vt 0.848750 0.114354
vt 0.902576 0.114354
vt 0.903906 0.167479
vt 0.849212 0.166078
vt 0.851858 0.152988
vt 0.900798 0.152988
vt 0.931328 0.163054
vt 0.912994 0.163054
vt 0.912790 0.150473
vt 0.931328 0.150473
vt 0.774296 0.312788
vt 0.812918 0.312788
vt 0.812918 0.381146
vt 0.774296 0.381146
vt 0.812918 0.312788
vt 0.862080 0.312789
vt 0.862080 0.381146
vt 0.812918 0.381146
vt 0.930874 0.882269
vt 0.930874 0.820159
vt 0.936364 0.820159
vt 0.936364 0.882269
vt 0.930874 0.820159
vt 0.930989 0.719631
vt 0.936364 0.730185
vt 0.936364 0.820159
vt 0.925545 0.645044
vt 0.925546 0.563287
vt 0.908925 0.563286
vt 0.908800 0.631391
vt 0.890518 0.675748
vt 0.925545 0.645044
vt 0.890518 0.686840
vt 0.905940 0.686841
vt 0.925546 0.505843
vt 0.908925 0.505842
vt 0.908925 0.563286
vt 0.925546 0.563287
vt 0.936364 0.882269
vt 0.936364 0.915099
vt 0.930874 0.915099
vt 0.930874 0.882269
vt 0.906135 0.539172
vt 0.871109 0.539172
vt 0.871109 0.472078
vt 0.906135 0.472078
vt 0.936478 0.709012
vt 0.930989 0.719631
vt 0.930989 0.645795
vt 0.936478 0.645795
vt 0.478104 0.869618
vt 0.460567 0.869618
vt 0.460567 0.738328
vt 0.478104 0.751907
vt 0.899088 0.260268
vt 0.823129 0.260275
vt 0.823129 0.219282
vt 0.899068 0.219275
vt 0.547391 0.751907
vt 0.564929 0.738328
vt 0.564929 0.869618
vt 0.547391 0.869618
vt 0.033225 0.910648
vt 0.072925 0.910648
vt 0.072843 0.934482
vt 0.033225 0.934482
vt 0.072925 0.781850
vt 0.033225 0.781850
vt 0.033225 0.758017
vt 0.072843 0.758017
vt 0.033225 0.910648
vt 0.033225 0.781850
vt 0.072925 0.781850
vt 0.072925 0.910648
vt 0.955796 0.920713
vt 0.941354 0.920713
vt 0.941354 0.605435
vt 0.956672 0.605435
vt 0.956894 0.605435
vt 0.941354 0.605435
vt 0.941354 0.337102
vt 0.956894 0.337102
vt 0.956492 0.334933
vt 0.941354 0.334933
vt 0.941354 0.114512
vt 0.956492 0.114512
vt 0.965358 0.107778
vt 0.998345 0.107778
vt 0.998345 0.335779
vt 0.965358 0.335779
vt 0.965358 0.335779
vt 0.998345 0.335779
vt 0.998345 0.605435
vt 0.965358 0.605435
vt 0.965358 0.605435
vt 0.998345 0.605435
vt 0.998345 0.920713
vt 0.965358 0.920713
vt 0.958111 0.615505
vt 0.964743 0.605503
vt 0.964743 0.921017
vt 0.958111 0.911015
vt 0.689961 0.168858
vt 0.689961 0.206568
vt 0.467082 0.206571
vt 0.467082 0.168858
vt 0.414803 0.151699
vt 0.414803 0.114348
vt 0.466309 0.114348
vt 0.466309 0.151699
vt 0.467974 0.151391
vt 0.467974 0.114135
vt 0.690767 0.114132
vt 0.690767 0.151388
vt 0.693202 0.151783
vt 0.693202 0.114132
vt 0.847089 0.114132
vt 0.847089 0.151202
vt 0.846847 0.169912
vt 0.848307 0.206568
vt 0.691985 0.206568
vt 0.694795 0.169869
vt 0.461944 0.153245
vt 0.467082 0.167482
vt 0.416149 0.167482
vt 0.419940 0.153245
vt 0.843871 0.152101
vt 0.848307 0.164950
vt 0.691985 0.164952
vt 0.696420 0.152101
vt 0.889316 0.094709
vt 0.878757 0.076054
vt 0.990714 0.076054
vt 0.980155 0.094709
vt 0.431425 0.094709
vt 0.419735 0.076054
vt 0.590262 0.076054
vt 0.578572 0.094709
vt 0.602350 0.093799
vt 0.591226 0.077420
vt 0.704990 0.077420
vt 0.693866 0.093799
vt 0.704990 0.073883
vt 0.704990 0.049883
vt 0.878593 0.049883
vt 0.878593 0.073883
vt 0.878593 0.073883
vt 0.878593 0.049883
vt 0.990443 0.049883
vt 0.990443 0.073883
vt 0.420006 0.073883
vt 0.420006 0.051687
vt 0.588926 0.051687
vt 0.588926 0.073883
vt 0.590853 0.073883
vt 0.590853 0.051236
vt 0.704990 0.051236
vt 0.704990 0.073883
vt 0.893204 0.984485
vt 0.729468 0.984485
vt 0.729372 0.590889
vt 0.893274 0.697127
vt 0.758021 0.540030
vt 0.758021 0.502382
vt 0.704582 0.502382
vt 0.731302 0.585496
vt 0.704582 0.585496
vt 0.758021 0.502382
vt 0.758021 0.540030
vt 0.731302 0.585496
vt 0.704582 0.502382
vt 0.704582 0.585496
vt 0.396795 0.384215
vt 0.406822 0.398906
vt 0.386767 0.398906
vt 0.400948 0.426338
vt 0.388487 0.423010
vt 0.074679 0.948607
vt 0.074679 0.976506
vt 0.066351 0.976506
vt 0.066351 0.948607
vt 0.057139 0.976506
vt 0.057139 0.948607
vt 0.047479 0.976506
vt 0.047479 0.948607
vt 0.191148 0.990305
vt 0.178373 0.990305
vt 0.190930 0.880114
vt 0.177846 0.541888
vt 0.199135 0.854941
vt 0.200311 0.678939
vt 0.200328 0.809499
vt 0.268706 0.678939
vt 0.210156 0.837488
vt 0.290833 0.541888
vt 0.268688 0.809499
vt 0.290306 0.990305
vt 0.259475 0.837488
vt 0.278889 0.880114
vt 0.278671 0.990305
vt 0.270501 0.854941
vt 0.248623 0.854941
vt 0.221179 0.854941
vt 0.229386 0.880114
vt 0.240412 0.880114
vt 0.240388 0.990305
vt 0.229411 0.990305
vt 0.758003 0.540030
vt 0.758003 0.502382
vt 0.704565 0.502382
vt 0.731284 0.585496
vt 0.704565 0.585496
vt 0.731302 0.585496
vt 0.704582 0.585496
vt 0.704582 0.502382
vt 0.758021 0.540030
vt 0.758021 0.502382
vt 0.631449 0.532519
vt 0.623380 0.532519
vt 0.623380 0.422749
vt 0.631449 0.215807
vt 0.615108 0.397581
vt 0.603989 0.379689
vt 0.481637 0.215807
vt 0.556806 0.380010
vt 0.592869 0.397581
vt 0.567787 0.397133
vt 0.575941 0.422626
vt 0.584603 0.422749
vt 0.575941 0.532519
vt 0.584603 0.532519
vt 0.509714 0.380571
vt 0.545734 0.397133
vt 0.498376 0.397307
vt 0.521052 0.397307
vt 0.490215 0.422820
vt 0.537411 0.422626
vt 0.481637 0.532519
vt 0.490215 0.532519
vt 0.529221 0.422820
vt 0.537411 0.532519
vt 0.529221 0.532519
vt 0.466397 0.675397
vt 0.467027 0.541888
vt 0.569096 0.750529
vt 0.578215 0.541888
vt 0.578773 0.750529
vt 0.667700 0.532519
vt 0.632392 0.532519
vt 0.632392 0.215807
vt 0.667700 0.291768
vt 0.690200 0.215908
vt 0.713952 0.216010
vt 0.738598 0.216111
vt 0.738669 0.291437
vt 0.023458 0.939011
vt 0.023458 0.956529
vt 0.007894 0.956529
vt 0.007894 0.939011
vt 0.023458 0.819481
vt 0.007894 0.819481
vt 0.976071 0.037648
vt 0.959919 0.037648
vt 0.959919 0.028413
vt 0.976071 0.028413
vt 0.997583 0.037648
vt 0.997583 0.028413
vt 0.915717 0.433860
vt 0.910934 0.435484
vt 0.910934 0.424695
vt 0.915717 0.426715
vt 0.930617 0.438852
vt 0.930622 0.420808
vt 0.915717 0.444632
vt 0.930610 0.456902
vt 0.915717 0.451778
vt 0.910934 0.442730
vt 0.910934 0.453519
vt 0.915717 0.462461
vt 0.930624 0.474839
vt 0.915717 0.469606
vt 0.910934 0.460599
vt 0.910934 0.471389
vt 0.915717 0.480806
vt 0.930342 0.493080
vt 0.915717 0.487312
vt 0.910934 0.478607
vt 0.910934 0.489393
vt 0.915717 0.408756
vt 0.930630 0.402680
vt 0.915717 0.415901
vt 0.910934 0.406946
vt 0.910934 0.417736
vt 0.915717 0.397598
vt 0.915717 0.390453
vt 0.930623 0.384601
vt 0.910934 0.388598
vt 0.910934 0.399388
vt 0.915717 0.379087
vt 0.915717 0.371942
vt 0.930597 0.366702
vt 0.910934 0.370106
vt 0.910934 0.380896
vt 0.915717 0.354711
vt 0.930924 0.348213
vt 0.915717 0.361856
vt 0.910934 0.352907
vt 0.910934 0.363697
vt 0.976071 0.037648
vt 0.959919 0.037648
vt 0.959919 0.028413
vt 0.976071 0.028413
vt 0.997583 0.037648
vt 0.997583 0.028413
vt 0.886530 0.672375
vt 0.871109 0.672375
vt 0.906135 0.630578
vt 0.906135 0.539172
vt 0.871109 0.539172
vt 0.588276 0.878976
vt 0.453406 0.989033
vt 0.453181 0.878254
vt 0.722583 0.986986
vt 0.587427 0.631758
vt 0.620347 0.631508
vt 0.651876 0.631268
vt 0.721859 0.630736
vt 0.214246 0.486873
vt 0.214246 0.532488
vt 0.003963 0.532488
vt 0.003963 0.486873
vt 0.214578 0.404528
vt 0.003963 0.407427
vt 0.214246 0.337060
vt 0.003963 0.337060
vt 0.214246 0.257614
vt 0.003963 0.257614
vt 0.214246 0.212000
vt 0.003964 0.212000
vt 0.854434 0.580453
vt 0.779377 0.580453
vt 0.779377 0.525783
vt 0.854434 0.525783
vt 0.854434 0.473731
vt 0.779377 0.473731
vt 0.481011 0.532519
vt 0.453200 0.532519
vt 0.481011 0.215807
vt 0.381798 0.532519
vt 0.267432 0.532519
vt 0.267432 0.215807
vt 0.764992 0.443573
vt 0.738461 0.487685
vt 0.707842 0.487685
vt 0.681310 0.443573
vt 0.674401 0.405971
vt 0.771902 0.405971
vt 0.681534 0.355233
vt 0.711356 0.308575
vt 0.738684 0.311122
vt 0.765215 0.355233
vt 0.772125 0.392835
vt 0.674624 0.392835
vt 0.417840 0.444602
vt 0.419974 0.434633
vt 0.419974 0.454571
vt 0.430281 0.454571
vt 0.425128 0.458700
vt 0.430281 0.434633
vt 0.432415 0.444602
vt 0.425128 0.430504
vt 0.417840 0.444602
vt 0.419974 0.434633
vt 0.419974 0.454571
vt 0.430281 0.454571
vt 0.425128 0.458700
vt 0.430281 0.434633
vt 0.432415 0.444602
vt 0.425128 0.430504
vt 0.417840 0.444602
vt 0.419974 0.434633
vt 0.419974 0.454571
vt 0.430281 0.454571
vt 0.425128 0.458700
vt 0.430281 0.434633
vt 0.432415 0.444602
vt 0.425128 0.430504
vn -0.566041 0.76356 -0.31076300000000007
vn -0.950161 0.282893 0.13101999999999997
vn 0.244948 0.824296 0.510428
vn 0.244948 0.824296 0.510428
vn 0.762962 0.566216 -0.31191100000000005
vn -0.566041 0.76356 -0.31076300000000007
vn -0.911109 -0.270749 -0.310765
vn -0.590808 -0.796103 0.13101900000000005
vn -0.690807 0.512104 0.510426
vn -0.690807 0.512104 0.510426
vn -0.27112 0.910607 -0.31191100000000005
vn -0.911109 -0.270749 -0.310765
vn 0.885801 0.17754900000000004 0.428758
vn 0.856972 0.515364 -3.155694364978883E-17
vn 0.222066 0.18103100000000005 0.958079
vn 0.98168 -0.011100000000000013 -0.190214
vn 0.852071 -0.482511 -0.20287599999999997
vn 0.686303 0.702002 -0.19021300000000005
vn 0.686303 0.702002 -0.19021300000000005
vn 0.261318 0.943692 -0.20287500000000006
vn 0.98168 -0.011100000000000013 -0.190214
vn 0.000362 -0.003794999999999939 0.999993
vn 0.000362 -0.003794999999999939 0.999993
vn 0.000362 -0.003794999999999939 0.999993
vn -0.006282 0.07537500000000005 0.997136
vn -0.006282 0.07537500000000005 0.997136
vn -0.006282 0.07537500000000005 0.997136
vn -0.999999 0.001485 -9.093002483669097E-20
vn -0.999999 0.001485 -9.093002483669097E-20
vn -0.999999 0.001485 -9.093002483669097E-20
vn -1 2.000000000000019E-06 0.00031
vn -1 2.000000000000019E-06 0.00031
vn -1 2.000000000000019E-06 0.00031
vn 1 1E-06 -6.123233995736766E-23
vn 1 1E-06 -6.123233995736766E-23
vn 1 1E-06 -6.123233995736766E-23
vn 0.999984 0.005575 0.0011579999999999995
vn 0.999984 0.005575 0.0011579999999999995
vn 0.999984 0.005575 0.0011579999999999995
vn 0 6.123233995736766E-17 1
vn 0 6.123233995736766E-17 1
vn 0 6.123233995736766E-17 1
vn 0 6.123233995736766E-17 1
vn 0 6.123233995736766E-17 1
vn 0 6.123233995736766E-17 1
vn 0.002448 -0.961964 0.27316500000000005
vn 0.002448 -0.961964 0.27316500000000005
vn 0.002448 -0.961964 0.27316500000000005
vn -5E-06 -0.962158 0.27249200000000007
vn -5E-06 -0.962158 0.27249200000000007
vn -5E-06 -0.962158 0.27249200000000007
vn -2E-06 0.962348 0.27182199999999995
vn -2E-06 0.962348 0.27182199999999995
vn -2E-06 0.962348 0.27182199999999995
vn 0.004996 0.961955 0.27316099999999993
vn 0.004996 0.961955 0.27316099999999993
vn 0.004996 0.961955 0.27316099999999993
vn 0.008961 -0.002250999999999939 0.999957
vn 0.008961 -0.002250999999999939 0.999957
vn 0.008961 -0.002250999999999939 0.999957
vn 0.018283 6.122211415659477E-17 0.999833
vn 0.018283 6.122211415659477E-17 0.999833
vn 0.018283 6.122211415659477E-17 0.999833
vn 0.994331 -6.511018404686775E-18 -0.106333
vn 0.994331 -6.511018404686775E-18 -0.106333
vn 0.994331 -6.511018404686775E-18 -0.106333
vn 0.993789 -0.0018650000000000066 -0.111267
vn 0.993789 -0.0018650000000000066 -0.111267
vn 0.993789 -0.0018650000000000066 -0.111267
vn 0.992458 9.999999999924935E-07 -0.122588
vn 0.992458 9.999999999924935E-07 -0.122588
vn 0.992458 9.999999999924935E-07 -0.122588
vn 0.992953 -0.004390000000000007 -0.118427
vn 0.992953 -0.004390000000000007 -0.118427
vn 0.992953 -0.004390000000000007 -0.118427
vn 1 0 0
vn 1 0 0
vn 1 0 0
vn 0.015133 -0.99448 -0.10383099999999995
vn 0.015133 -0.99448 -0.10383099999999995
vn 0.015133 -0.99448 -0.10383099999999995
vn 0 -0.989947 -0.14143899999999995
vn 0 -0.989947 -0.14143899999999995
vn 0 -0.989947 -0.14143899999999995
vn 0.156002 -0.884718 0.4392460000000001
vn 0.889624 -0.12502799999999997 0.439246
vn 2E-06 6.123233995736766E-17 1
vn 0.393818 0.807447 0.43924599999999997
vn 2E-06 6.123233995736766E-17 1
vn -0.646231 0.624058 0.43924599999999997
vn -0.167867 0.98581 -6.036345305337262E-17
vn 0.167867 -0.98581 6.036345305337262E-17
vn -0.167867 0.98581 -6.036345305337262E-17
vn -0.167867 0.98581 -6.036345305337262E-17
vn 0.167867 -0.98581 6.036345305337262E-17
vn 0.884719 -0.15599999999999997 0.439246
vn 0.421758 0.79321 0.43924699999999994
vn 1E-06 6.123233995736766E-17 1
vn -0.624058 0.646231 0.43924599999999997
vn 1E-06 6.123233995736766E-17 1
vn -0.807447 -0.393818 0.439245
vn -0.983776 0.179404 -1.0985326717711589E-17
vn 0.983776 -0.179404 1.0985326717711589E-17
vn -0.983776 0.179404 -1.0985326717711589E-17
vn -0.983776 0.179404 -1.0985326717711589E-17
vn 0.983776 -0.179404 1.0985326717711589E-17
vn -1E-06 -0.989475 0.14470400000000005
vn 0 -0.41892299999999993 0.908022
vn -1E-06 -0.837845 0.545908
vn -1E-06 -0.837845 0.545908
vn -2E-06 -0.989475 0.14470300000000005
vn 0.760548 -0.632989 -0.14453999999999997
vn -0.760548 0.632989 0.14453999999999997
vn 0.760546 -0.632991 -0.14453999999999997
vn 0.760546 -0.632991 -0.14453999999999997
vn -0.760546 0.632991 0.14453999999999997
vn 0.956958 -0.290227 -9.999999999822288E-07
vn 0.856972 0.515364 -3.155694364978883E-17
vn 0.885801 0.17754900000000004 0.428758
vn 0.885801 0.17754900000000004 0.428758
vn 0.398472 -0.12032699999999995 0.909253
vn 0.975147 -0.167918 -0.14454
vn -0.975147 0.167918 0.144539
vn 0.975148 -0.167911 -0.144539
vn 0.975148 -0.167911 -0.144539
vn -0.975148 0.167911 0.14454
vn 0 6.123233995736766E-17 1
vn 0 6.123233995736766E-17 1
vn 0 6.123233995736766E-17 1
vn 0 6.123233995736766E-17 1
vn 0 6.123233995736766E-17 1
vn 0 6.123233995736766E-17 1
vn 0 6.123233995736766E-17 1
vn 0 6.123233995736766E-17 1
vn 0 6.123233995736766E-17 1
vn 0 6.123233995736766E-17 1
vn 0 6.123233995736766E-17 1
vn 0 6.123233995736766E-17 1
vn 0 6.123233995736766E-17 1
vn 0 6.123233995736766E-17 1
vn 0 6.123233995736766E-17 1
vn 0 6.123233995736766E-17 1
vn 0 6.123233995736766E-17 1
vn 0 6.123233995736766E-17 1
vn 0 6.123233995736766E-17 1
vn 0 6.123233995736766E-17 1
vn 0 6.123233995736766E-17 1
vn 0 6.123233995736766E-17 1
vn 0 6.123233995736766E-17 1
vn 0 6.123233995736766E-17 1
vn 0 6.123233995736766E-17 1
vn -0.646231 0.624058 0.43924599999999997
vn -0.79321 -0.421759 0.439247
vn 2E-06 6.123233995736766E-17 1
vn 0.156002 -0.884718 0.4392460000000001
vn 0.167867 -0.98581 6.036345305337262E-17
vn -0.167867 0.98581 -6.036345305337262E-17
vn 0.167867 -0.98581 6.036345305337262E-17
vn -0.167867 0.98581 -6.036345305337262E-17
vn -0.956381 -0.16863800000000004 -0.238531
vn -0.475472 -0.08383899999999994 0.875727
vn -0.950161 0.282893 0.13101999999999997
vn -0.566041 0.76356 -0.31076300000000007
vn 0.762962 0.566216 -0.31191100000000005
vn 0.244948 0.824296 0.510428
vn 0.950944 0.16767700000000002 0.259981
vn 0.956381 0.16863899999999998 -0.23853
vn 0.244948 0.824296 0.510428
vn -0.950161 0.282893 0.13101999999999997
vn -0.475472 -0.08383899999999994 0.875727
vn 0.950944 0.16767700000000002 0.259981
vn -0.807447 -0.393818 0.439245
vn 0.125029 -0.889624 0.4392460000000001
vn 1E-06 6.123233995736766E-17 1
vn 0.884719 -0.15599999999999997 0.439246
vn 0.983776 -0.179404 1.0985326717711589E-17
vn -0.983776 0.179404 -1.0985326717711589E-17
vn 0.983776 -0.179404 1.0985326717711589E-17
vn -0.983776 0.179404 -1.0985326717711589E-17
vn -0.168634 -0.956382 -0.23853099999999994
vn -0.083838 -0.47547199999999995 0.875727
vn -0.590808 -0.796103 0.13101900000000005
vn -0.911109 -0.270749 -0.310765
vn -0.27112 0.910607 -0.31191100000000005
vn -0.690807 0.512104 0.510426
vn 0.167677 0.950944 0.25998099999999996
vn 0.168632 0.956382 -0.23853000000000005
vn -0.690807 0.512104 0.510426
vn -0.590808 -0.796103 0.13101900000000005
vn -0.083838 -0.47547199999999995 0.875727
vn 0.167677 0.950944 0.25998099999999996
vn -0.760548 0.632989 0.14453999999999997
vn 0.760548 -0.632989 -0.14453999999999997
vn -0.760546 0.632991 0.14453999999999997
vn 0.760546 -0.632991 -0.14453999999999997
vn -0.975147 0.167918 0.144539
vn 0.975147 -0.167918 -0.14454
vn -0.975148 0.167911 0.14454
vn 0.975148 -0.167911 -0.144539
vn 0.999997 -1.4077314956198824E-19 -0.002299
vn 0.999997 -1.407119172220309E-19 -0.002298
vn 0.999997 -1.4077314956198824E-19 -0.002299
vn 0.999997 -1.4077314956198824E-19 -0.002299
vn 0.016884 -0.999857 -0.0003959999999999388
vn 0.015536 -0.999879 6.122493084423281E-17
vn 0.016884 -0.999857 -0.0003959999999999388
vn 0.018232 -0.999833 -0.0007909999999999388
vn -0.964112 0.13312200000000002 0.229709
vn -0.964114 -0.13311299999999998 0.229708
vn -0.775856 0.587607 0.22970799999999997
vn -0.587605 0.775857 0.22970899999999994
vn -0.775856 0.587607 0.22970799999999997
vn -0.133118 0.964113 0.22970899999999994
vn 0.133118 0.964113 0.22970799999999994
vn -0.133118 0.964113 0.22970899999999994
vn 0.587609 0.775854 0.22970799999999994
vn 0.775863 0.587597 0.22970899999999997
vn 0.587609 0.775854 0.22970799999999994
vn 0.964114 0.13310900000000003 0.229708
vn 0.964113 -0.13311799999999996 0.229709
vn 0.964114 0.13310900000000003 0.229708
vn 0.775858 -0.587603 0.22970900000000002
vn 0.587604 -0.775858 0.22970800000000005
vn 0.775858 -0.587603 0.22970900000000002
vn 0.133119 -0.964113 0.22970900000000005
vn -0.133114 -0.964113 0.22970800000000005
vn 0.133119 -0.964113 0.22970900000000005
vn -0.587603 -0.775859 0.22970800000000005
vn -0.775858 -0.587604 0.22970700000000002
vn -0.964114 -0.13311299999999998 0.229708
vn -0.964112 0.13312200000000002 0.229709
vn -0.587603 -0.775859 0.22970800000000005
vn -0.964112 0.13312300000000002 0.229709
vn -0.964114 -0.13311199999999998 0.229708
vn -0.775856 0.587607 0.22970799999999997
vn -0.587605 0.775857 0.22970899999999994
vn -0.775856 0.587607 0.22970799999999997
vn -0.133118 0.964113 0.22970899999999994
vn 0.133118 0.964113 0.22970799999999994
vn -0.133118 0.964113 0.22970899999999994
vn 0.587609 0.775854 0.22970799999999994
vn 0.775863 0.587597 0.22970899999999997
vn 0.587609 0.775854 0.22970799999999994
vn 0.964114 0.13311000000000003 0.229709
vn 0.964113 -0.13311799999999996 0.229709
vn 0.964114 0.13311000000000003 0.229709
vn 0.775859 -0.587603 0.22970900000000002
vn 0.587605 -0.775858 0.22970800000000005
vn 0.775859 -0.587603 0.22970900000000002
vn 0.13312 -0.964113 0.22970900000000005
vn -0.133114 -0.964113 0.22970900000000005
vn 0.13312 -0.964113 0.22970900000000005
vn -0.587603 -0.775859 0.22970800000000005
vn -0.775859 -0.587604 0.22970700000000002
vn -0.964114 -0.13311199999999998 0.229708
vn -0.964112 0.13312300000000002 0.229709
vn -0.587603 -0.775859 0.22970800000000005
vn 0.342017 0.939694 -5.753966246389865E-17
vn 0.342017 0.939694 -5.753966246389865E-17
vn 0.342017 0.939694 -5.753966246389865E-17
vn 0.342017 0.939694 -5.753966246389865E-17
vn 0.939258 -0.01190499999999998 0.343005
vn 0.939258 -0.01189999999999998 0.343005
vn 0.939258 -0.01190499999999998 0.343005
vn 0.939258 -0.01190999999999998 0.343005
vn 0.939626 -0.01190999999999998 0.341996
vn 0.939626 -0.01190999999999998 0.341996
vn 0.939626 -0.01190999999999998 0.341996
vn 0.939626 -0.01190999999999998 0.341996
vn 0.949594 1.9195236394515528E-17 0.313482
vn 0.949594 1.9195236394515528E-17 0.313482
vn 0.949594 1.9195236394515528E-17 0.313482
vn 0.949594 -9.999999999808047E-07 0.313482
vn 0.979659 1.2287371194565054E-17 0.200668
vn 0.979658 -9.999999999877123E-07 0.200675
vn 0.979659 1.2287371194565054E-17 0.200668
vn 0.979661 1.0000000000122868E-06 0.200661
vn 0.973493 1.400487709802926E-17 0.228717
vn 0.973493 1.400487709802926E-17 0.228717
vn 0.973493 1.400487709802926E-17 0.228717
vn 0.973493 1.400487709802926E-17 0.228717
vn 0.261318 0.943692 -0.20287500000000006
vn 0.686303 0.702002 -0.19021300000000005
vn -0.500643 0.838785 -0.21400000000000005
vn -0.838786 0.500642 -0.21400100000000002
vn 0.213623 -0.2545819999999999 0.943161
vn -0.050349 0.06000600000000006 0.996927
vn -0.050349 0.06000600000000006 0.996927
vn -0.305684 0.36430000000000007 0.879683
vn -0.147724 -0.40587199999999996 0.901912
vn -0.260044 -0.71447 0.649546
vn -0.260044 -0.71447 0.649546
vn -0.327757 -0.90051 0.28575900000000004
vn -0 -0.33233499999999994 0.943161
vn -2E-06 0.07833100000000005 0.996927
vn -2E-06 0.07833100000000005 0.996927
vn -3E-06 0.47556100000000007 0.879683
vn -0.287811 -0.16616699999999995 0.943161
vn 0.067837 0.03916600000000006 0.996927
vn 0.067837 0.03916600000000006 0.996927
vn 0.411849 0.23778000000000005 0.879683
vn -0.14045 0.3011980000000001 0.943161
vn 0.033104 -0.07099299999999995 0.996927
vn 0.033104 -0.07099299999999995 0.996927
vn 0.200979 -0.43100599999999994 0.879683
vn 0.28781 0.16616900000000007 0.943161
vn -0.067837 -0.03916599999999994 0.996927
vn -0.067837 -0.03916599999999994 0.996927
vn -0.411847 -0.23778199999999994 0.879683
vn -0.182537 0.3914520000000001 0.901912
vn -0.321327 0.689086 0.649546
vn -0.321327 0.689086 0.649546
vn -0.404997 0.868516 0.2857569999999999
vn 0.43192 -9.999999999447738E-07 0.901912
vn 0.760323 -9.999999999602267E-07 0.649546
vn 0.760323 -9.999999999602267E-07 0.649546
vn 0.958302 -1.9999999999825023E-06 0.285758
vn 0.089256 0.99271 -0.08099900000000006
vn 0.089283 0.992707 -0.08099800000000006
vn 0.089256 0.99271 -0.08099900000000006
vn 0.08923 0.992712 -0.08100100000000006
vn 0 6.123233995736766E-17 1
vn 0 6.123233995736766E-17 1
vn 0 6.123233995736766E-17 1
vn 0 6.123233995736766E-17 1
vn 0 -1 6.123233995736766E-17
vn 0 -1 6.123233995736766E-17
vn 0 -1 6.123233995736766E-17
vn 0 -1 6.123233995736766E-17
vn -0 -1 6.123233995736766E-17
vn -0 -1 6.123233995736766E-17
vn -0 -1 6.123233995736766E-17
vn -0 -1 6.123233995736766E-17
vn -1 0 0
vn -1 0 0
vn -1 0 0
vn -1 0 0
vn 0 1 -6.123233995736766E-17
vn 0 1 -6.123233995736766E-17
vn 0 1 -6.123233995736766E-17
vn 0 1 -6.123233995736766E-17
vn 1 -1E-06 6.123233995736766E-23
vn 1 -1E-06 6.123233995736766E-23
vn 1 -1E-06 6.123233995736766E-23
vn 1 -1E-06 6.123233995736766E-23
vn 1E-06 -1 6.123233995736766E-17
vn 1E-06 -1 6.123233995736766E-17
vn 1E-06 -1 6.123233995736766E-17
vn 1E-06 -1 6.123233995736766E-17
vn -0 1 -6.123233995736766E-17
vn -0 1 -6.123233995736766E-17
vn -0 1 -6.123233995736766E-17
vn -0 1 -6.123233995736766E-17
vn -1 0 0
vn -1 0 0
vn -1 0 0
vn -1 0 0
vn 0 -1 6.123233995736766E-17
vn 0 -1 6.123233995736766E-17
vn 0 -1 6.123233995736766E-17
vn 0 -1 6.123233995736766E-17
vn 0 6.123233995736766E-17 1
vn 0 6.123233995736766E-17 1
vn 0 6.123233995736766E-17 1
vn 0 6.123233995736766E-17 1
vn -0.999994 0.0012939999999999998 -0.003262
vn -0.999988 0.0025869999999999995 -0.004225
vn -0.999994 0.0012939999999999998 -0.003262
vn -0.999997 -1.407119172220309E-19 -0.002298
vn 0 -1 6.123233995736766E-17
vn 0 -1 6.123233995736766E-17
vn 0 -1 6.123233995736766E-17
vn 0 -1 6.123233995736766E-17
vn -0 1 -6.123233995736766E-17
vn -0 1 -6.123233995736766E-17
vn -0 1 -6.123233995736766E-17
vn -0 1 -6.123233995736766E-17
vn 0.939693 -0.34202 2.0942684912218888E-17
vn 0.939693 -0.34202 2.0942684912218888E-17
vn 0.939693 -0.34202 2.0942684912218888E-17
vn 0.939693 -0.34202 2.0942684912218888E-17
vn -0.341189 -0.939995 5.755809339822581E-17
vn -0.341189 -0.939995 5.755809339822581E-17
vn -0.341189 -0.939995 5.755809339822581E-17
vn -0.341189 -0.939995 5.755809339822581E-17
vn 0.342526 0.939508 -5.752827324866658E-17
vn 0.342526 0.939508 -5.752827324866658E-17
vn 0.342526 0.939508 -5.752827324866658E-17
vn 0.342526 0.939508 -5.752827324866658E-17
vn 0.342017 0.939694 -5.753966246389865E-17
vn 0.342017 0.939694 -5.753966246389865E-17
vn 0.342017 0.939694 -5.753966246389865E-17
vn 0.342017 0.939694 -5.753966246389865E-17
vn 0.269252 0.739765 0.616645
vn 0.269253 0.739765 0.616645
vn 0.269252 0.739765 0.616645
vn 0.269252 0.739765 0.616646
vn 0 1.0000000000612324E-06 1
vn 0 1.0000000000612324E-06 1
vn 0 1.0000000000612324E-06 1
vn 0 1.0000000000612324E-06 1
vn -1 -2E-06 -2E-06
vn -1 0 0
vn -1 -2E-06 -2E-06
vn -1 -2E-06 -2E-06
vn -1 -1.2246467991473532E-22 -2E-06
vn -1 1E-06 -6.123233995736766E-23
vn -1 -1.2246467991473532E-22 -2E-06
vn -1 -1.2246467991473532E-22 -2E-06
vn 0 6.123233995736766E-17 1
vn 0 6.123233995736766E-17 1
vn 0 6.123233995736766E-17 1
vn 0 6.123233995736766E-17 1
vn 0 6.123233995736766E-17 1
vn 0 6.123233995736766E-17 1
vn 0 6.123233995736766E-17 1
vn 0 6.123233995736766E-17 1
vn -0.255463 -0.701877 0.664911
vn -0.255463 -0.701877 0.664911
vn -0.255463 -0.701877 0.664911
vn -0.255463 -0.701877 0.664911
vn 0 6.123233995736766E-17 1
vn 0 6.123233995736766E-17 1
vn 0 6.123233995736766E-17 1
vn 0 6.123233995736766E-17 1
vn -0.229822 -0.631436 0.740588
vn -0.229822 -0.631436 0.740588
vn -0.229822 -0.631436 0.740588
vn -0.229822 -0.631436 0.740588
vn 0 6.123233995736766E-17 1
vn 0 6.123233995736766E-17 1
vn 0 6.123233995736766E-17 1
vn 0 6.123233995736766E-17 1
vn -0.939692 0.342021 2.999999999979057E-06
vn -0.939693 0.34202 -2.0942684912218888E-17
vn -0.939692 0.342021 2.999999999979057E-06
vn -0.939692 0.342021 2.999999999979057E-06
vn -0.939695 0.342013 4.999999999979058E-06
vn -0.939693 0.34202 -2.0942684912218888E-17
vn -0.939693 0.34202 -2.0942684912218888E-17
vn -0.939693 0.34202 -2.0942684912218888E-17
vn -0.342021 -0.939692 5.753953999921874E-17
vn -0.342021 -0.939692 5.753953999921874E-17
vn -0.342021 -0.939692 5.753953999921874E-17
vn -0.342021 -0.939692 5.753953999921874E-17
vn -0.342018 -0.939693 5.753960123155869E-17
vn -0.342018 -0.939693 5.753960123155869E-17
vn -0.342018 -0.939693 5.753960123155869E-17
vn -0.342018 -0.939693 5.753960123155869E-17
vn 0.34202 0.939693 -5.753960123155869E-17
vn 0.34202 0.939693 -5.753960123155869E-17
vn 0.34202 0.939693 -5.753960123155869E-17
vn 0.34202 0.939693 -5.753960123155869E-17
vn 0 6.123233995736766E-17 1
vn 0 6.123233995736766E-17 1
vn 0 6.123233995736766E-17 1
vn 0 6.123233995736766E-17 1
vn 1 1E-06 -6.123233995736766E-23
vn 1 1E-06 -6.123233995736766E-23
vn 1 1E-06 -6.123233995736766E-23
vn 1 1E-06 -6.123233995736766E-23
vn 0 -0.36976499999999995 0.929125
vn 0 -0.36976499999999995 0.929126
vn 0 -0.36976499999999995 0.929125
vn 0 -0.36976499999999995 0.929125
vn -1 -1E-06 6.123233995736766E-23
vn -1 -1E-06 6.123233995736766E-23
vn -1 -1E-06 6.123233995736766E-23
vn -1 -1E-06 6.123233995736766E-23
vn 1 0 0
vn 1 -1E-06 6.123233995736766E-23
vn 1 0 0
vn 1 0 0
vn -1 -2E-06 1.2246467991473532E-22
vn -1 -2E-06 1.2246467991473532E-22
vn -1 -2E-06 1.2246467991473532E-22
vn -1 -2E-06 1.2246467991473532E-22
vn 0 1 -6.123233995736766E-17
vn 0 1 -6.123233995736766E-17
vn 0 1 -6.123233995736766E-17
vn 0 1 -6.123233995736766E-17
vn -0.342466 -0.93953 5.752962036014564E-17
vn -0.342466 -0.93953 5.752962036014564E-17
vn -0.342466 -0.93953 5.752962036014564E-17
vn -0.342466 -0.93953 5.752962036014564E-17
vn -0.939692 0.34202 -2.0942684912218888E-17
vn -0.939692 0.34202 -2.0942684912218888E-17
vn -0.939692 0.34202 -2.0942684912218888E-17
vn -0.939692 0.34202 -2.0942684912218888E-17
vn 0.341573 0.939855 -5.754952087063178E-17
vn 0.341573 0.939855 -5.754952087063178E-17
vn 0.341573 0.939855 -5.754952087063178E-17
vn 0.341573 0.939855 -5.754952087063178E-17
vn -0.341213 -0.939986 5.75575423071662E-17
vn -0.341213 -0.939986 5.75575423071662E-17
vn -0.341213 -0.939986 5.75575423071662E-17
vn -0.341213 -0.939986 5.75575423071662E-17
vn 0.939693 -0.34202 2.0942684912218888E-17
vn 0.939693 -0.34202 2.0942684912218888E-17
vn 0.939693 -0.34202 2.0942684912218888E-17
vn 0.939693 -0.34202 2.0942684912218888E-17
vn 0.342515 0.939512 -5.752851817802641E-17
vn 0.342515 0.939512 -5.752851817802641E-17
vn 0.342515 0.939512 -5.752851817802641E-17
vn 0.342515 0.939512 -5.752851817802641E-17
vn 0 6.123233995736766E-17 1
vn 0 6.123233995736766E-17 1
vn 0 6.123233995736766E-17 1
vn 0 6.123233995736766E-17 1
vn -0.994331 -6.511079637026732E-18 -0.106334
vn -0.99433 -6.511079637026732E-18 -0.106334
vn -0.994331 -6.511079637026732E-18 -0.106334
vn -0.994331 -6.511079637026732E-18 -0.106334
vn -1E-06 1 2.9999999999387676E-06
vn 1E-06 1 -6.123233995736766E-17
vn -1E-06 1 2.9999999999387676E-06
vn -1E-06 1 2.9999999999387676E-06
vn 1 0 0
vn 1 0 0
vn 1 0 0
vn 1 0 0
vn -0 -1 6.123233995736766E-17
vn -0 -1 6.123233995736766E-17
vn -0 -1 6.123233995736766E-17
vn -0 -1 6.123233995736766E-17
vn 0 0.994425 -0.10544500000000005
vn -0 0.994425 -0.10544400000000005
vn 0 0.994425 -0.10544500000000005
vn 0 0.994425 -0.10544500000000005
vn 0 6.123233995736766E-17 1
vn 0 6.123233995736766E-17 1
vn 0 6.123233995736766E-17 1
vn 0 6.123233995736766E-17 1
vn 0 6.123233995736766E-17 1
vn 0 6.123233995736766E-17 1
vn 0 6.123233995736766E-17 1
vn 0 6.123233995736766E-17 1
vn 0 6.123233995736766E-17 1
vn 0 6.123233995736766E-17 1
vn 0 6.123233995736766E-17 1
vn 0 6.123233995736766E-17 1
vn 0 6.123233995736766E-17 1
vn 0 6.123233995736766E-17 1
vn 0 6.123233995736766E-17 1
vn 0 6.123233995736766E-17 1
vn 0 6.123233995736766E-17 1
vn 0 6.123233995736766E-17 1
vn 0 6.123233995736766E-17 1
vn 0 6.123233995736766E-17 1
vn -0.989316 -8.926695448344887E-18 -0.145784
vn -0.989317 -8.926634216004929E-18 -0.145783
vn -0.989316 -8.926695448344887E-18 -0.145784
vn -0.989316 -8.926695448344887E-18 -0.145784
vn -0 -0.967696 -0.25211799999999995
vn 0 -0.967697 -0.2521169999999999
vn -0 -0.967696 -0.25211799999999995
vn -0 -0.967696 -0.25211799999999995
vn 0.989317 -8.926695448344887E-18 -0.145784
vn 0.989317 -8.926695448344887E-18 -0.145784
vn 0.989317 -8.926695448344887E-18 -0.145784
vn 0.989317 -8.926695448344887E-18 -0.145784
vn 0 0.967696 -0.25211800000000006
vn -0 0.967697 -0.25211700000000004
vn 0 0.967696 -0.25211800000000006
vn 0 0.967696 -0.25211800000000006
vn 0 6.123233995736766E-17 1
vn 0 6.123233995736766E-17 1
vn 0 6.123233995736766E-17 1
vn 0 6.123233995736766E-17 1
vn -0.939692 0.342021 -2.0942746144558845E-17
vn -0.939692 0.342021 -2.0942746144558845E-17
vn -0.939692 0.342021 -2.0942746144558845E-17
vn -0.939692 0.342021 -2.0942746144558845E-17
vn -0.939692 0.34202 -2.0942684912218888E-17
vn 0.939692 -0.342021 2.0942746144558845E-17
vn 0.939692 -0.342021 2.0942746144558845E-17
vn 0.939692 -0.342021 2.0942746144558845E-17
vn 0.939692 -0.342021 2.0942746144558845E-17
vn 0.939692 -0.342021 2.0942746144558845E-17
vn 0 6.123233995736766E-17 1
vn 0 6.123233995736766E-17 1
vn 0 6.123233995736766E-17 1
vn 0 6.123233995736766E-17 1
vn 0 6.123233995736766E-17 1
vn -0.838786 0.500642 -0.21400100000000002
vn -0.500643 0.838785 -0.21400000000000005
vn -0.960149 -0.194496 -0.200711
vn -0.816457 -0.5414 -0.20071199999999997
vn -0.239102 -0.947119 -0.21399999999999994
vn 0.239103 -0.947119 -0.21400099999999994
vn 0.852071 -0.482511 -0.20287599999999997
vn 0.98168 -0.011100000000000013 -0.190214
vn -0.003927 -0.999987 -0.003400999999999939
vn 0.000454 -0.999997 -0.0022959999999999387
vn -0.000104 -0.999998 -0.0017559999999999388
vn 4.1E-05 -0.999999 -0.0010449999999999388
vn 0.000772 -1 -0.0004899999999999387
vn 0.00162 -0.999998 -0.0006989999999999387
vn 0.002572 -0.999996 -0.0006519999999999388
vn -0.003657 -0.999993 -0.0005429999999999387
vn -0.000111 -1 -0.0005559999999999387
vn 0.000488 -0.999999 -0.0013339999999999388
vn -0.001218 -0.999999 -0.0007549999999999388
vn -0.004239 -0.999991 -0.001014999999999939
vn 0.000189 -1 -0.0005819999999999388
vn -0.004388 -0.99999 -0.0007379999999999388
vn 0.004316 -0.999985 -0.0033379999999999387
vn -0.001447 -0.999999 -0.00042099999999993873
vn 0 -1 6.123233995736766E-17
vn -1E-06 -1 6.123233995736766E-17
vn -0 -0.999999 -0.0012039999999999388
vn 2E-06 -0.999999 -0.001202999999999939
vn -1E-06 -0.999997 -0.002408999999999939
vn -4E-06 -0.999997 -0.002408999999999939
vn -0.939692 0.342021 -2.0942746144558845E-17
vn -0.939692 0.342021 -2.0942746144558845E-17
vn -0.939692 0.342021 -2.0942746144558845E-17
vn -0.939692 0.342021 -2.0942746144558845E-17
vn -0.939692 0.34202 -2.0942684912218888E-17
vn 0.939692 -0.342021 2.0942746144558845E-17
vn 0.939692 -0.342021 2.0942746144558845E-17
vn 0.939692 -0.342021 2.0942746144558845E-17
vn 0.939692 -0.342021 2.0942746144558845E-17
vn 0.939692 -0.342021 2.0942746144558845E-17
vn -0.024734 0.999687 -0.0037460000000000613
vn -0.049449 0.998749 -0.007490000000000062
vn -0.016488 0.999861 -0.0024970000000000612
vn -1E-06 1 -6.123233995736766E-17
vn 1E-06 1 -6.123233995736766E-17
vn -1E-06 1 -1.0000000000612324E-06
vn -0 1 -6.123233995736766E-17
vn 0 1 9.999999999387675E-07
vn 2E-06 1 9.999999999387675E-07
vn 2E-06 1 3.999999999938768E-06
vn 3E-06 1 -1.0000000000612324E-06
vn 4E-06 1 -1.0000000000612324E-06
vn 4E-06 1 -6.123233995736766E-17
vn 4E-06 1 -6.123233995736766E-17
vn 0 1 -1.0000000000612324E-06
vn 0 1 -2.0000000000612323E-06
vn -2E-06 1 -6.123233995736766E-17
vn 0 1 -3.0000000000612325E-06
vn 0.016521 0.99986 -0.002499000000000061
vn 0 1 -6.123233995736766E-17
vn 0.024784 0.999686 -0.0037490000000000613
vn 0.049551 0.998743 -0.0074950000000000615
vn 0 1 -6.123233995736766E-17
vn 0 1 -6.123233995736766E-17
vn 0 1 -6.123233995736766E-17
vn -0.000692 0.999979 -0.006390000000000061
vn -0.000346 0.999982 -0.006060000000000062
vn -0.010376 0.999934 -0.004839000000000062
vn -0.015218 0.999876 -0.004063000000000061
vn -0.030432 0.999534 -0.002395000000000061
vn 1 0 0
vn 1 0 0
vn 1 -0.00066 0.0006
vn 0.999995 -0.003274 0.00046500000000000024
vn 0.999994 -0.003414 0.0009780000000000001
vn 0.999989 -0.004762 0.0002570000000000003
vn 0.999989 -0.004772 0.0001840000000000003
vn 0.999988 -0.004868 9.000000000000298E-06
vn -1E-06 0.774133 0.633023
vn -2E-06 0.958813 0.28403799999999996
vn -2E-06 0.958813 0.28403799999999996
vn 0 0.38706700000000005 0.922052
vn 0 -0.41892299999999993 0.908022
vn -1E-06 -0.837845 0.545908
vn 0.079853 0.21938800000000006 0.972364
vn 0 6.123233995736766E-17 1
vn 0 6.123233995736766E-17 1
vn 0.159703 0.43877700000000003 0.884291
vn 0.225902 0.620654 0.750838
vn 0.225898 0.620655 0.750838
vn 0.707657 0.706458 0.011786999999999957
vn 0.52265 0.690077 -0.50063
vn 0.857529 0.11838999999999997 -0.500628
vn 0.99993 -0.0008399999999999993 0.011787
vn 0.68091 0.515681 0.520034
vn 0.846118 -0.11682599999999997 0.520035
vn 0.707657 0.706458 0.011786999999999957
vn 0.116829 0.846118 0.520034
vn 0.000832 0.99993 0.01178899999999994
vn 0.52265 0.690077 -0.50063
vn -0.118405 0.857524 -0.500633
vn 0.000832 0.99993 0.01178899999999994
vn -0.515691 0.6809 0.520036
vn -0.706467 0.707648 0.011785999999999956
vn -0.118405 0.857524 -0.500633
vn -0.690076 0.522649 -0.500634
vn -0.706467 0.707648 0.011785999999999956
vn -0.846117 0.11683400000000002 0.520035
vn -0.99993 0.0008380000000000007 0.011787
vn -0.690076 0.522649 -0.500634
vn -0.857525 -0.11840000000000003 -0.500633
vn 0.706467 -0.707648 0.011787000000000044
vn 0.515688 -0.680905 0.520034
vn 0.99993 -0.0008399999999999993 0.011787
vn 0.690084 -0.52264 -0.500631
vn 0.857529 0.11838999999999997 -0.500628
vn 0.706467 -0.707648 0.011787000000000044
vn -0.000829 -0.99993 0.01178800000000006
vn -0.116821 -0.846119 0.520034
vn 0.118398 -0.857526 -0.500631
vn 0.690084 -0.52264 -0.500631
vn -0.000829 -0.99993 0.01178800000000006
vn -0.707639 -0.706476 0.011790000000000044
vn -0.680901 -0.515694 0.520033
vn -0.522635 -0.690087 -0.500633
vn 0.118398 -0.857526 -0.500631
vn -0.99993 0.0008380000000000007 0.011787
vn -0.846117 0.11683400000000002 0.520035
vn -0.707639 -0.706476 0.011790000000000044
vn -0.857525 -0.11840000000000003 -0.500633
vn -0.522635 -0.690087 -0.500633
vn 0.079853 0.21938800000000006 0.972364
vn 0 6.123233995736766E-17 1
vn 0 6.123233995736766E-17 1
vn 0.159703 0.43877700000000003 0.884291
vn 0.225901 0.620654 0.750838
vn 0.225897 0.620655 0.750838
vn 0.939693 -0.34202 2.0942684912218888E-17
vn 0.939693 -0.34202 2.0942684912218888E-17
vn 0.939693 -0.34202 2.0942684912218888E-17
vn 0.939693 -0.34202 2.0942684912218888E-17
vn 0.939693 -0.34202 2.0942684912218888E-17
vn 0.000688 -0.00023399999999993877 1
vn 0.001852 0.0007730000000000613 0.999998
vn 0 0.0015460000000000612 0.999999
vn 0.000413 -0.00044899999999993876 1
vn -0.00082 -0.001122999999999939 0.999999
vn 0 6.123233995736766E-17 1
vn 0 6.123233995736766E-17 1
vn 0 6.123233995736766E-17 1
vn -0.865749 3.064543903718345E-17 0.500478
vn -0.942238 2.0509404874680554E-17 0.334944
vn -0.942238 2.0509404874680554E-17 0.334944
vn -0.763979 0.0027640000000000394 0.645235
vn -0.450309 0.0030870000000000545 0.892867
vn -0.231266 0.003096000000000059 0.972886
vn 0.228674 0.0002650000000000596 0.973503
vn 0.459946 5.4371072568124746E-17 0.887947
vn 0.771569 3.895264690217965E-17 0.636145
vn 0.871341 3.004536210560125E-17 0.490678
vn 0.942237 2.050952733936047E-17 0.334946
vn 0.942237 2.050952733936047E-17 0.334946
vn 0.398472 -0.12032699999999995 0.909253
vn 0.885801 0.17754900000000004 0.428758
vn 0.222066 0.18103100000000005 0.958079
vn 0.168819 -0.05615899999999994 0.984046
vn 0.387269 -0.14282199999999995 0.910837
vn 0.405653 -0.16291999999999995 0.89939
vn -1 1E-06 -6.123233995736766E-23
vn -1 0 0
vn -1 0 0
vn -1 0 0
vn -1 0 0
vn -1 0 0
vn 1E-06 -1 -9.999999999387675E-07
vn -1E-06 -1 -2.9999999999387676E-06
vn -0 -1 1.0000000000612324E-06
vn -0 -1 2.0000000000612323E-06
vn 1E-06 -1 -9.999999999387675E-07
vn 1E-06 -1 -9.999999999387675E-07
vn 0 1 -1.0000000000612324E-06
vn 0 1 -6.123233995736766E-17
vn -0 1 9.999999999387675E-07
vn -0 1 -2.0000000000612323E-06
vn 0 1 -1.0000000000612324E-06
vn 0 1 -1.0000000000612324E-06
vn 0 6.123233995736766E-17 1
vn 0 6.123233995736766E-17 1
vn 0 6.123233995736766E-17 1
vn 0 6.123233995736766E-17 1
vn 0 6.123233995736766E-17 1
vn 0 6.123233995736766E-17 1
vn 0 6.123233995736766E-17 1
vn 0 6.123233995736766E-17 1
vn 0 6.123233995736766E-17 1
vn 0 6.123233995736766E-17 1
vn 0 6.123233995736766E-17 1
vn 0 6.123233995736766E-17 1
vn 0 6.123233995736766E-17 1
vn 0 6.123233995736766E-17 1
vn 0 6.123233995736766E-17 1
vn 0 6.123233995736766E-17 1
vn 0 6.123233995736766E-17 1
vn 0 6.123233995736766E-17 1
vn 0 6.123233995736766E-17 1
vn 0 6.123233995736766E-17 1
vn 0 6.123233995736766E-17 1
vn 0 6.123233995736766E-17 1
vn 0 6.123233995736766E-17 1
vn 0 6.123233995736766E-17 1
g orig_orig_01
f 1/1/1 2/2/2 3/3/3
f 4/4/4 5/5/5 6/6/6
f 7/7/7 8/8/8 9/9/9
f 10/10/10 11/11/11 12/12/12
f 13/13/13 14/14/14 15/15/15
f 16/16/16 17/17/17 18/18/18
f 19/19/19 20/20/20 21/21/21
f 22/22/22 23/23/23 24/24/24
f 25/25/25 26/26/26 27/27/27
f 28/28/28 29/29/29 30/30/30
f 31/31/31 32/32/32 33/33/33
f 34/34/34 35/35/35 36/36/36
f 37/37/37 38/38/38 39/39/39
f 40/40/40 41/41/41 42/42/42
f 43/43/43 44/44/44 45/45/45
f 46/46/46 47/47/47 48/48/48
f 49/49/49 50/50/50 51/51/51
f 52/52/52 53/53/53 54/54/54
f 55/55/55 56/56/56 57/57/57
f 58/58/58 59/59/59 60/60/60
f 61/61/61 62/62/62 63/63/63
f 64/64/64 65/65/65 66/66/66
f 67/67/67 68/68/68 69/69/69
f 70/70/70 71/71/71 72/72/72
f 73/73/73 74/74/74 75/75/75
f 76/76/76 77/77/77 78/78/78
f 79/79/79 80/80/80 81/81/81
f 82/82/82 83/83/83 84/84/84
f 85/85/85 86/86/86 87/87/87
f 86/86/86 88/88/88 89/89/89
f 88/88/88 90/90/90 89/89/89
f 91/91/91 92/92/92 93/93/93
f 94/94/94 95/95/95 91/91/91
f 96/96/96 97/97/97 98/98/98
f 97/97/97 99/99/99 100/100/100
f 99/99/99 101/101/101 100/100/100
f 102/102/102 103/103/103 104/104/104
f 105/105/105 106/106/106 102/102/102
f 107/107/107 108/108/108 109/109/109
f 110/110/110 111/111/111 107/107/107
f 112/112/112 113/113/113 114/114/114
f 115/115/115 116/116/116 112/112/112
f 117/117/117 118/118/118 119/119/119
f 120/120/120 121/121/121 117/117/117
f 122/122/122 123/123/123 124/124/124
f 125/125/125 126/126/126 122/122/122
f 127/127/127 128/128/128 129/129/129
f 130/130/130 131/131/131 127/127/127
f 132/132/132 133/133/133 134/134/134
f 135/135/135 136/136/136 132/132/132
f 137/137/137 138/138/138 139/139/139
f 140/140/140 141/141/141 137/137/137
f 142/142/142 143/143/143 144/144/144
f 145/145/145 146/146/146 142/142/142
f 147/147/147 148/148/148 149/149/149
f 150/150/150 151/151/151 147/147/147
f 152/152/152 153/153/153 154/154/154
f 153/153/153 155/155/155 154/154/154
f 156/156/156 157/157/157 158/158/158
f 158/158/158 159/159/159 156/156/156
f 160/160/160 161/161/161 162/162/162
f 162/162/162 163/163/163 160/160/160
f 164/164/164 165/165/165 166/166/166
f 166/166/166 167/167/167 164/164/164
f 168/168/168 169/169/169 170/170/170
f 170/170/170 171/171/171 168/168/168
f 172/172/172 173/173/173 174/174/174
f 173/173/173 175/175/175 174/174/174
f 176/176/176 177/177/177 178/178/178
f 178/178/178 179/179/179 176/176/176
f 180/180/180 181/181/181 182/182/182
f 182/182/182 183/183/183 180/180/180
f 184/184/184 185/185/185 186/186/186
f 186/186/186 187/187/187 184/184/184
f 188/188/188 189/189/189 190/190/190
f 190/190/190 191/191/191 188/188/188
f 192/192/192 193/193/193 194/194/194
f 194/194/194 195/195/195 192/192/192
f 196/196/196 197/197/197 198/198/198
f 198/198/198 199/199/199 196/196/196
f 200/200/200 201/201/201 202/202/202
f 202/202/202 203/203/203 200/200/200
f 204/204/204 205/205/205 206/206/206
f 206/206/206 207/207/207 204/204/204
f 208/208/208 209/209/209 210/210/210
f 210/210/210 211/211/211 208/208/208
f 211/211/211 212/212/212 213/213/213
f 213/213/213 214/214/214 211/211/211
f 214/214/214 215/215/215 216/216/216
f 216/216/216 217/217/217 214/214/214
f 217/217/217 218/218/218 219/219/219
f 219/219/219 220/220/220 217/217/217
f 220/220/220 221/221/221 222/222/222
f 222/222/222 223/223/223 220/220/220
f 223/223/223 224/224/224 225/225/225
f 225/225/225 226/226/226 223/223/223
f 226/226/226 227/227/227 228/228/228
f 228/228/228 229/229/229 226/226/226
f 230/230/230 231/231/231 229/229/229
f 229/229/229 232/232/232 230/230/230
f 233/233/233 234/234/234 235/235/235
f 235/235/235 236/236/236 233/233/233
f 236/236/236 237/237/237 238/238/238
f 238/238/238 239/239/239 236/236/236
f 239/239/239 240/240/240 241/241/241
f 241/241/241 242/242/242 239/239/239
f 242/242/242 243/243/243 244/244/244
f 244/244/244 245/245/245 242/242/242
f 245/245/245 246/246/246 247/247/247
f 247/247/247 248/248/248 245/245/245
f 248/248/248 249/249/249 250/250/250
f 250/250/250 251/251/251 248/248/248
f 251/251/251 252/252/252 253/253/253
f 253/253/253 254/254/254 251/251/251
f 255/255/255 256/256/256 254/254/254
f 254/254/254 257/257/257 255/255/255
f 258/258/258 259/259/259 260/260/260
f 260/260/260 261/261/261 258/258/258
f 262/262/262 263/263/263 264/264/264
f 264/264/264 265/265/265 262/262/262
f 266/266/266 267/267/267 268/268/268
f 268/268/268 269/269/269 266/266/266
f 270/270/270 271/271/271 272/272/272
f 272/272/272 273/273/273 270/270/270
f 274/274/274 275/275/275 276/276/276
f 276/276/276 277/277/277 274/274/274
f 278/278/278 279/279/279 280/280/280
f 280/280/280 281/281/281 278/278/278
f 282/282/282 283/283/283 284/284/284
f 284/284/284 285/285/285 282/282/282
f 286/286/286 287/287/287 288/288/288
f 287/287/287 289/289/289 288/288/288
f 290/290/290 291/291/291 292/292/292
f 291/291/291 293/293/293 292/292/292
f 294/294/294 295/295/295 296/296/296
f 295/295/295 297/297/297 296/296/296
f 298/298/298 299/299/299 300/300/300
f 299/299/299 301/301/301 300/300/300
f 302/302/302 303/303/303 304/304/304
f 303/303/303 305/305/305 304/304/304
f 306/306/306 307/307/307 308/308/308
f 307/307/307 309/309/309 308/308/308
f 310/310/310 311/311/311 312/312/312
f 311/311/311 313/313/313 312/312/312
f 314/314/314 315/315/315 316/316/316
f 315/315/315 317/317/317 316/316/316
f 318/318/318 319/319/319 320/320/320
f 320/320/320 321/321/321 318/318/318
f 322/322/322 323/323/323 324/324/324
f 324/324/324 325/325/325 322/322/322
f 326/326/326 327/327/327 328/328/328
f 328/328/328 329/329/329 326/326/326
f 330/330/330 331/331/331 332/332/332
f 332/332/332 333/333/333 330/330/330
f 334/334/334 335/335/335 336/336/336
f 336/336/336 337/337/337 334/334/334
f 338/338/338 339/339/339 340/340/340
f 340/340/340 341/341/341 338/338/338
f 342/342/342 343/343/343 344/344/344
f 344/344/344 345/345/345 342/342/342
f 346/346/346 347/347/347 348/348/348
f 348/348/348 349/349/349 346/346/346
f 350/350/350 351/351/351 352/352/352
f 352/352/352 353/353/353 350/350/350
f 354/354/354 355/355/355 356/356/356
f 356/356/356 357/357/357 354/354/354
f 358/358/358 359/359/359 360/360/360
f 360/360/360 361/361/361 358/358/358
f 362/362/362 363/363/363 364/364/364
f 364/364/364 365/365/365 362/362/362
f 366/366/366 367/367/367 368/368/368
f 368/368/368 369/369/369 366/366/366
f 370/370/370 371/371/371 372/372/372
f 372/372/372 373/373/373 370/370/370
f 374/374/374 375/375/375 376/376/376
f 376/376/376 377/377/377 374/374/374
f 378/378/378 379/379/379 380/380/380
f 380/380/380 381/381/381 378/378/378
f 382/382/382 383/383/383 384/384/384
f 384/384/384 385/385/385 382/382/382
f 386/386/386 387/387/387 388/388/388
f 388/388/388 389/389/389 386/386/386
f 390/390/390 391/391/391 392/392/392
f 392/392/392 393/393/393 390/390/390
f 394/394/394 395/395/395 396/396/396
f 396/396/396 397/397/397 394/394/394
f 398/398/398 399/399/399 400/400/400
f 400/400/400 401/401/401 398/398/398
f 402/402/402 403/403/403 404/404/404
f 404/404/404 405/405/405 402/402/402
f 406/406/406 407/407/407 408/408/408
f 408/408/408 409/409/409 406/406/406
f 410/410/410 411/411/411 412/412/412
f 412/412/412 413/413/413 410/410/410
f 414/414/414 415/415/415 416/416/416
f 416/416/416 417/417/417 414/414/414
f 418/418/418 419/419/419 420/420/420
f 420/420/420 421/421/421 418/418/418
f 422/422/422 423/423/423 424/424/424
f 424/424/424 425/425/425 422/422/422
f 426/426/426 427/427/427 428/428/428
f 428/428/428 429/429/429 426/426/426
f 430/430/430 431/431/431 432/432/432
f 432/432/432 433/433/433 430/430/430
f 434/434/434 435/435/435 436/436/436
f 436/436/436 437/437/437 434/434/434
f 437/437/437 438/438/438 439/439/439
f 438/438/438 440/440/440 439/439/439
f 441/441/441 439/439/439 440/440/440
f 442/442/442 443/443/443 444/444/444
f 444/444/444 445/445/445 442/442/442
f 446/446/446 447/447/447 448/448/448
f 448/448/448 449/449/449 446/446/446
f 450/450/450 451/451/451 452/452/452
f 452/452/452 453/453/453 450/450/450
f 454/454/454 455/455/455 456/456/456
f 456/456/456 457/457/457 454/454/454
f 458/458/458 459/459/459 460/460/460
f 460/460/460 461/461/461 458/458/458
f 462/462/462 463/463/463 464/464/464
f 464/464/464 465/465/465 462/462/462
f 466/466/466 467/467/467 468/468/468
f 468/468/468 469/469/469 466/466/466
f 470/470/470 471/471/471 472/472/472
f 472/472/472 473/473/473 470/470/470
f 474/474/474 475/475/475 476/476/476
f 476/476/476 477/477/477 474/474/474
f 478/478/478 479/479/479 480/480/480
f 480/480/480 481/481/481 478/478/478
f 482/482/482 483/483/483 484/484/484
f 484/484/484 485/485/485 482/482/482
f 486/486/486 487/487/487 488/488/488
f 488/488/488 489/489/489 486/486/486
f 490/490/490 491/491/491 492/492/492
f 492/492/492 493/493/493 490/490/490
f 494/494/494 495/495/495 496/496/496
f 496/496/496 497/497/497 494/494/494
f 498/498/498 499/499/499 500/500/500
f 500/500/500 501/501/501 498/498/498
f 502/502/502 503/503/503 504/504/504
f 504/504/504 505/505/505 502/502/502
f 506/506/506 507/507/507 508/508/508
f 508/508/508 509/509/509 506/506/506
f 510/510/510 511/511/511 512/512/512
f 512/512/512 513/513/513 510/510/510
f 514/514/514 515/515/515 516/516/516
f 516/516/516 517/517/517 514/514/514
f 518/518/518 519/519/519 520/520/520
f 520/520/520 521/521/521 518/518/518
f 522/522/522 523/523/523 524/524/524
f 524/524/524 525/525/525 522/522/522
f 526/526/526 527/527/527 528/528/528
f 528/528/528 529/529/529 526/526/526
f 530/530/530 531/531/531 532/532/532
f 532/532/532 533/533/533 530/530/530
f 534/534/534 535/535/535 536/536/536
f 536/536/536 537/537/537 534/534/534
f 538/538/538 539/539/539 540/540/540
f 540/540/540 541/541/541 538/538/538
f 542/542/542 543/543/543 544/544/544
f 544/544/544 545/545/545 542/542/542
f 546/546/546 547/547/547 548/548/548
f 548/548/548 549/549/549 546/546/546
f 550/550/550 551/551/551 552/552/552
f 552/552/552 553/553/553 550/550/550
f 554/554/554 555/555/555 556/556/556
f 556/556/556 557/557/557 554/554/554
f 558/558/558 559/559/559 560/560/560
f 560/560/560 561/561/561 558/558/558
f 562/562/562 563/563/563 564/564/564
f 564/564/564 565/565/565 562/562/562
f 566/566/566 567/567/567 568/568/568
f 568/568/568 569/569/569 566/566/566
f 570/570/570 571/571/571 572/572/572
f 573/573/573 570/570/570 572/572/572
f 574/574/574 573/573/573 572/572/572
f 575/575/575 576/576/576 577/577/577
f 577/577/577 578/578/578 575/575/575
f 577/577/577 579/579/579 578/578/578
f 580/580/580 581/581/581 582/582/582
f 581/581/581 583/583/583 582/582/582
f 583/583/583 584/584/584 582/582/582
f 585/585/585 586/586/586 587/587/587
f 587/587/587 588/588/588 585/585/585
f 588/588/588 587/587/587 589/589/589
f 589/589/589 590/590/590 588/588/588
f 590/590/590 589/589/589 591/591/591
f 591/591/591 592/592/592 590/590/590
f 593/593/593 594/594/594 595/595/595
f 595/595/595 594/594/594 596/596/596
f 597/597/597 595/595/595 596/596/596
f 598/598/598 597/597/597 596/596/596
f 598/598/598 599/599/599 597/597/597
f 600/600/600 598/598/598 596/596/596
f 599/599/599 601/601/601 597/597/597
f 602/602/602 600/600/600 596/596/596
f 601/601/601 599/599/599 603/603/603
f 602/602/602 604/604/604 600/600/600
f 603/603/603 605/605/605 601/601/601
f 604/604/604 606/606/606 600/600/600
f 606/606/606 604/604/604 607/607/607
f 606/606/606 608/608/608 600/600/600
f 608/608/608 603/603/603 600/600/600
f 608/608/608 605/605/605 603/603/603
f 601/601/601 605/605/605 609/609/609
f 609/609/609 610/610/610 601/601/601
f 611/611/611 610/610/610 609/609/609
f 609/609/609 612/612/612 611/611/611
f 611/611/611 612/612/612 613/613/613
f 613/613/613 614/614/614 611/611/611
f 615/615/615 616/616/616 617/617/617
f 617/617/617 618/618/618 615/615/615
f 619/619/619 618/618/618 617/617/617
f 620/620/620 621/621/621 622/622/622
f 623/623/623 620/620/620 622/622/622
f 623/623/623 622/622/622 624/624/624
f 625/625/625 626/626/626 627/627/627
f 628/628/628 625/625/625 627/627/627
f 627/627/627 629/629/629 628/628/628
f 628/628/628 629/629/629 630/630/630
f 628/628/628 630/630/630 631/631/631
f 630/630/630 632/632/632 631/631/631
f 632/632/632 630/630/630 633/633/633
f 633/633/633 634/634/634 632/632/632
f 635/635/635 634/634/634 633/633/633
f 633/633/633 636/636/636 635/635/635
f 637/637/637 635/635/635 636/636/636
f 636/636/636 638/638/638 637/637/637
f 632/632/632 639/639/639 631/631/631
f 639/639/639 632/632/632 640/640/640
f 631/631/631 639/639/639 641/641/641
f 640/640/640 642/642/642 639/639/639
f 631/631/631 641/641/641 643/643/643
f 642/642/642 640/640/640 644/644/644
f 643/643/643 645/645/645 631/631/631
f 643/643/643 646/646/646 645/645/645
f 644/644/644 647/647/647 642/642/642
f 647/647/647 644/644/644 648/648/648
f 648/648/648 649/649/649 647/647/647
f 650/650/650 651/651/651 652/652/652
f 651/651/651 653/653/653 652/652/652
f 653/653/653 654/654/654 652/652/652
f 655/655/655 656/656/656 657/657/657
f 657/657/657 658/658/658 655/655/655
f 657/657/657 659/659/659 658/658/658
f 659/659/659 660/660/660 658/658/658
f 660/660/660 661/661/661 658/658/658
f 661/661/661 662/662/662 658/658/658
f 663/663/663 664/664/664 665/665/665
f 665/665/665 666/666/666 663/663/663
f 667/667/667 663/663/663 666/666/666
f 666/666/666 668/668/668 667/667/667
f 669/669/669 670/670/670 671/671/671
f 671/671/671 672/672/672 669/669/669
f 673/673/673 669/669/669 672/672/672
f 672/672/672 674/674/674 673/673/673
f 675/675/675 676/676/676 677/677/677
f 677/677/677 678/678/678 675/675/675
f 679/679/679 675/675/675 678/678/678
f 678/678/678 680/680/680 679/679/679
f 681/681/681 679/679/679 682/682/682
f 682/682/682 683/683/683 681/681/681
f 684/684/684 681/681/681 683/683/683
f 683/683/683 685/685/685 684/684/684
f 686/686/686 682/682/682 687/687/687
f 687/687/687 688/688/688 686/686/686
f 689/689/689 686/686/686 688/688/688
f 688/688/688 690/690/690 689/689/689
f 691/691/691 687/687/687 692/692/692
f 692/692/692 693/693/693 691/691/691
f 694/694/694 691/691/691 693/693/693
f 693/693/693 695/695/695 694/694/694
f 696/696/696 697/697/697 680/680/680
f 680/680/680 698/698/698 696/696/696
f 699/699/699 696/696/696 698/698/698
f 698/698/698 700/700/700 699/699/699
f 697/697/697 701/701/701 702/702/702
f 702/702/702 703/703/703 697/697/697
f 704/704/704 702/702/702 701/701/701
f 701/701/701 705/705/705 704/704/704
f 703/703/703 706/706/706 707/707/707
f 707/707/707 708/708/708 703/703/703
f 709/709/709 707/707/707 706/706/706
f 706/706/706 710/710/710 709/709/709
f 711/711/711 712/712/712 708/708/708
f 708/708/708 713/713/713 711/711/711
f 714/714/714 711/711/711 713/713/713
f 713/713/713 715/715/715 714/714/714
f 716/716/716 717/717/717 718/718/718
f 718/718/718 719/719/719 716/716/716
f 720/720/720 716/716/716 719/719/719
f 719/719/719 721/721/721 720/720/720
f 722/722/722 723/723/723 724/724/724
f 725/725/725 724/724/724 723/723/723
f 723/723/723 726/726/726 725/725/725
f 727/727/727 728/728/728 729/729/729
f 728/728/728 727/727/727 730/730/730
f 727/727/727 731/731/731 730/730/730
f 731/731/731 732/732/732 730/730/730
f 732/732/732 733/733/733 730/730/730
f 733/733/733 734/734/734 730/730/730
f 735/735/735 736/736/736 737/737/737
f 737/737/737 738/738/738 735/735/735
f 739/739/739 735/735/735 738/738/738
f 738/738/738 740/740/740 739/739/739
f 741/741/741 739/739/739 740/740/740
f 740/740/740 742/742/742 741/741/741
f 743/743/743 741/741/741 742/742/742
f 742/742/742 744/744/744 743/743/743
f 745/745/745 743/743/743 744/744/744
f 744/744/744 746/746/746 745/745/745
f 747/747/747 748/748/748 749/749/749
f 749/749/749 750/750/750 747/747/747
f 751/751/751 750/750/750 749/749/749
f 749/749/749 752/752/752 751/751/751
f 753/753/753 754/754/754 755/755/755
f 754/754/754 756/756/756 755/755/755
f 756/756/756 757/757/757 755/755/755
f 757/757/757 758/758/758 755/755/755
f 759/759/759 760/760/760 761/761/761
f 761/761/761 762/762/762 759/759/759
f 759/759/759 762/762/762 763/763/763
f 763/763/763 764/764/764 759/759/759
f 765/765/765 766/766/766 767/767/767
f 767/767/767 768/768/768 765/765/765
f 765/765/765 768/768/768 769/769/769
f 769/769/769 770/770/770 765/765/765
f 771/771/771 772/772/772 773/773/773
f 774/774/774 775/775/775 773/773/773
f 772/772/772 774/774/774 773/773/773
f 772/772/772 776/776/776 774/774/774
f 776/776/776 777/777/777 774/774/774
f 772/772/772 778/778/778 776/776/776
f 779/779/779 780/780/780 781/781/781
f 782/782/782 783/783/783 781/781/781
f 780/780/780 782/782/782 781/781/781
f 780/780/780 784/784/784 782/782/782
f 784/784/784 785/785/785 782/782/782
f 780/780/780 786/786/786 784/784/784
f 787/787/787 788/788/788 789/789/789
f 790/790/790 791/791/791 789/789/789
f 788/788/788 790/790/790 789/789/789
f 788/788/788 792/792/792 790/790/790
f 792/792/792 793/793/793 790/790/790
f 788/788/788 794/794/794 792/792/792
