v -0.44 0 0
v -0.44 0.44 -2.694222958124177e-17
v -0.4400902 0.43999999999999995 -0.45753774
v -0.4400902 -2.8016106439005695e-17 -0.45753774
v 0.44 0.44 -2.694222958124177e-17
v 0.44 0 0
v 0.4399098 -2.8016106439005695e-17 -0.45753774
v 0.4399098 0.43999999999999995 -0.45753774
v -0.4400902 0.43999999999999995 -0.45753774
v -0.44 0.44 -2.694222958124177e-17
v 0 0.44 -2.694222958124177e-17
v -0.0000902 0.43999999999999995 -0.45753774
v 0.44 0.44 -2.694222958124177e-17
v 0.4399098 0.43999999999999995 -0.45753774
v 0.44 0 0
v 0.44 0.44 -2.694222958124177e-17
v 0 0.44 -2.694222958124177e-17
v 0 0 0
v -0.44 0.44 -2.694222958124177e-17
v -0.44 0 0
v 0 0 0
v -0.44 0 0
v -0.4400902 -2.8016106439005695e-17 -0.45753774
v -0.0000902 -2.8016106439005695e-17 -0.45753774
v 0.44 0 0
v 0.4399098 -2.8016106439005695e-17 -0.45753774
vt 0.000000 1.000000
vt 0.500000 1.000000
vt 0.500000 0.005162
vt 0.000000 0.005162
vt 0.000000 1.000000
vt 1.000000 1.000000
vt 1.000000 0.005162
vt 0.500000 0.005162
vt 1.000000 0.005162
vt 1.000000 1.000000
vt 0.500000 1.000000
vt 0.500000 0.005162
vt 0.000000 1.000000
vt 0.000000 0.005162
vt 1.000000 0.500000
vt 1.000000 1.000000
vt 0.500000 1.000000
vt 0.500000 0.500000
vt 0.000000 1.000000
vt 0.000000 0.500000
vt 0.500000 1.000000
vt 1.000000 1.000000
vt 1.000000 0.005162
vt 0.500000 0.005162
vt 0.000000 1.000000
vt 0.000000 0.005162
vn -1 1.2062770971601429E-20 0.000197
vn -1 1.2062770971601429E-20 0.000197
vn -1 1.2062770971601429E-20 0.000197
vn -1 1.2062770971601429E-20 0.000197
vn 1 -1.2062770971601429E-20 -0.000197
vn 1 -1.2062770971601429E-20 -0.000197
vn 1 -1.2062770971601429E-20 -0.000197
vn 1 -1.2062770971601429E-20 -0.000197
vn 0 1 -6.123233995736766E-17
vn 0 1 -6.123233995736766E-17
vn 0 1 -6.123233995736766E-17
vn 0 1 -6.123233995736766E-17
vn 0 1 -6.123233995736766E-17
vn 0 1 -6.123233995736766E-17
vn 0 6.123233995736766E-17 1
vn 0 6.123233995736766E-17 1
vn 0 6.123233995736766E-17 1
vn 0 6.123233995736766E-17 1
vn 0 6.123233995736766E-17 1
vn 0 6.123233995736766E-17 1
vn 0 -1 6.123233995736766E-17
vn 0 -1 6.123233995736766E-17
vn 0 -1 6.123233995736766E-17
vn 0 -1 6.123233995736766E-17
vn 0 -1 6.123233995736766E-17
vn 0 -1 6.123233995736766E-17
g Standard_75
f 1/1/1 2/2/2 3/3/3
f 3/3/3 4/4/4 1/1/1
f 5/5/5 6/6/6 7/7/7
f 7/7/7 8/8/8 5/5/5
f 9/9/9 10/10/10 11/11/11
f 11/11/11 12/12/12 9/9/9
f 12/12/12 11/11/11 13/13/13
f 13/13/13 14/14/14 12/12/12
f 15/15/15 16/16/16 17/17/17
f 17/17/17 18/18/18 15/15/15
f 18/18/18 17/17/17 19/19/19
f 19/19/19 20/20/20 18/18/18
f 21/21/21 22/22/22 23/23/23
f 23/23/23 24/24/24 21/21/21
f 25/25/25 21/21/21 24/24/24
f 24/24/24 26/26/26 25/25/25
