v 1.060509 -0.571702 0.653262
v 1.322011 -0.631636 0.63106
v 1.422877 0.009937000000000036 0.584203
v 1.161041 0.01868200000000004 0.631735
v 1.05049 -0.22026199999999993 1.374692
v 1.061883 0.29205500000000006 1.338449
v 0.874391 0.09446800000000007 1.238451
v 1.170763 0.6166780000000001 1.37473
v 0.63677 -0.06557899999999992 1.33845
v 0.741508 0.2374920000000001 1.374692
v 0.192637 -0.08141499999999992 1.374692
vt 0.253929 0.206302
vt 0.251380 0.131600
vt 0.340085 0.133008
vt 0.335609 0.203335
vt 0.766169 0.207003
vt 0.718402 0.110619
vt 0.755154 0.104220
vt 0.678168 0.033102
vt 0.798778 0.091384
vt 0.760861 0.044456
vt 0.853133 0.024287
vn 0.138295 0.03137300000000006 0.989894
vn 0.097478 0.05724100000000006 0.99359
vn 0.138295 0.03137300000000006 0.989894
vn 0.178787 0.00543100000000006 0.983873
vn -0.237043 0.27119400000000005 0.93288
vn -0.532907 0.07931900000000006 0.842448
vn -0.049986 0.02555600000000006 0.998423
vn -0.093937 -0.20114199999999993 0.975048
vn 0.069711 0.45210100000000003 0.889239
vn 0.336165 -0.46683299999999994 0.817961
vn 0.200839 -0.019816999999999942 0.979424
g 01
f 1/1/1 2/2/2 3/3/3
f 3/3/3 4/4/4 1/1/1
f 5/5/5 6/6/6 7/7/7
f 7/7/7 6/6/6 8/8/8
f 9/9/9 5/5/5 7/7/7
f 8/8/8 10/10/10 7/7/7
f 11/11/11 9/9/9 7/7/7
f 7/7/7 10/10/10 11/11/11
