v -1.129087 0.343851 0.22318799999999997
v -1.133924 0.506428 0.17419499999999996
v -1.133924 0.506428 0.17419499999999996
v -1.03106 0.549944 0.21670999999999999
v -1.133924 0.506428 0.17419499999999996
v -1.133924 0.506428 0.17419499999999996
v -1.339391 0.615718 0.24937199999999998
v -1.318881 0.451221 0.25552
v -1.218719 0.408245 0.24539799999999998
v -1.318881 0.451221 0.25552
v -1.318881 0.451221 0.25552
v -1.218719 0.408245 0.24539799999999998
v 0.202758 0.45444500000000004 0.832274
v 0.183871 0.45647000000000004 0.678304
v 0.144304 0.460025 -1.3000000000028168E-05
v 0.848004 -1.145021 1.411354
v 0.978295 -0.2941539999999999 1.411352
v 0.87642 -0.7442659999999999 1.411442
v 0.205851 -0.15774899999999992 1.411355
v 0.051142 -1.036735 1.411356
v 0.17202 -0.6226479999999999 1.411445
v 0.676984 0.91386 0.8321289999999999
v 0.676984 0.91386 0.8321289999999999
v 0.683641 0.916501 0.7212859999999999
v 0.205851 -0.15774899999999992 1.411355
v 0.283659 -0.39837699999999987 1.411416
v 0.487237 -0.28583599999999987 1.411444
v 0.90204 -0.2436679999999999 1.521834
v 1.097686 -0.24609199999999995 0.832047
v 1.0688 -0.23567399999999994 0.721424
v 1.0688 -0.23567399999999994 0.721424
v 0.85267 -0.19704699999999994 0.721427
v 0.152844 -0.08324299999999994 0.929391
v 0.90204 -0.2436679999999999 1.521834
v 1.09034 -0.24933299999999994 0.92958
v 1.097686 -0.24609199999999995 0.832047
v 0.632455 -0.09156899999999996 0.640947
v 0.632929 -0.09165199999999996 0.677101
v 0.620616 -0.15810499999999997 0.640947
v 0.863787 -0.13235999999999998 0.640947
v 0.852248 -0.19894799999999999 0.640947
v 0.86375 -0.13235299999999997 0.677101
v 0.86375 -0.13235299999999997 0.677101
v 0.852248 -0.19894799999999999 0.640947
v 0.85267 -0.19704699999999994 0.721427
v 0.875179 -0.06574999999999996 0.721337
v 0.875213 -0.06575599999999995 0.677101
v 0.86375 -0.13235299999999997 0.677101
v 0.86375 -0.13235299999999997 0.677101
v 0.85267 -0.19704699999999994 0.721427
v 0.875179 -0.06574999999999996 0.721337
v 0.622413 -0.15637199999999996 0.721431
v 0.632929 -0.09165199999999996 0.677101
v 0.644751 -0.02511399999999996 0.677101
v 0.644751 -0.02511399999999996 0.677101
v 0.645637 -0.025269999999999956 0.721337
v 0.622413 -0.15637199999999996 0.721431
v 0.620616 -0.15810499999999997 0.640947
v 0.632929 -0.09165199999999996 0.677101
v 0.622413 -0.15637199999999996 0.721431
v 0.969183 -1.325627 -0.00011899999999991884
v 1.17529 -0.15898 -2.7999999999990265E-05
v 1.347084 0.813186 -3.3000000000049795E-05
v 1.038125 -0.546047 0.7214
v 0.983534 -0.5427029999999999 1.317038
v 1.231552 -0.581031 0.7214
v 1.191811 -0.5776979999999999 1.23006
v 1.231552 -0.581031 0.7214
v 0.983534 -0.5427029999999999 1.317038
v 0.918375 -0.9659579999999999 1.317037
v 0.965036 -0.981551 0.7214000000000002
v 1.15942 -1.012332 0.7214000000000002
v 1.15942 -1.012332 0.7214000000000002
v 1.127188 -0.9892649999999998 1.23006
v 0.918375 -0.9659579999999999 1.317037
v 0.90204 -0.2436679999999999 1.521834
v 1.0094 -0.2628859999999999 1.521771
v 1.09034 -0.24933299999999994 0.92958
v 0.274091 0.868247 0.832267
v 0.134608 0.05702700000000005 0.8323
v 0.168589 0.05147500000000005 0.832182
v 0.168589 0.05147500000000005 0.832182
v 0.308214 0.863289 0.832328
v 0.274091 0.868247 0.832267
v 0.412307 0.923452 0.8322009999999999
v 0.330312 0.9298870000000001 0.9297369999999999
v 0.314732 0.941533 0.7212659999999999
v 0.906323 0.854551 0.832172
v 0.896394 0.856593 0.721327
v 0.906323 0.854551 0.832172
v 0.896394 0.856593 0.721327
v 1.240868 0.801407 0.721356
v 0.906323 0.854551 0.832172
v 1.240868 0.801407 0.721356
v 1.151195 0.816688 0.832246
v 0.906323 0.854551 0.832172
v 1.223041 0.716163 0.832324
v 1.087445 -0.11155799999999995 0.832344
v 1.118426 -0.11638999999999994 0.832213
v 1.118426 -0.11638999999999994 0.832213
v 1.254519 0.710781 0.832332
v 1.223041 0.716163 0.832324
v 0.14921 -0.24218399999999993 1.522043
v 0.02305 -0.9581869999999999 1.522037
v 0.056496 -0.9631939999999999 1.522008
v 0.056496 -0.9631939999999999 1.522008
v 0.182724 -0.2476869999999999 1.521407
v 0.14921 -0.24218399999999993 1.522043
v 0.129549 -1.08114 1.521973
v 0.759325 -1.167575 1.521849
v 0.763304 -1.144348 1.521927
v 0.763304 -1.144348 1.521927
v 0.134486 -1.054481 1.522035
v 0.129549 -1.08114 1.521973
v 0.152844 -0.08324299999999994 0.929391
v 0.168589 0.05147500000000005 0.832182
v 0.152844 -0.08324299999999994 0.929391
v 0.125271 -0.07837699999999995 0.929477
v 0.152844 -0.08324299999999994 0.929391
v 0.152844 -0.08324299999999994 0.929391
v 0.306076 0.9558210000000001 0.9292929999999999
v 0.417805 0.950759 0.8322599999999999
v 0.29245 0.963457 0.8321869999999999
v 1.400021 0.498709 -1.5000000000030538E-05
v 1.354462 0.516523 0.13059999999999997
v 1.286998 0.517112 0.14336599999999997
v 0.18662 -0.1543199999999999 1.619674
v 0.163267 -0.1176629999999999 1.619222
v 0.14921 -0.24218399999999993 1.522043
v 0.02305 -0.9581869999999999 1.522037
v -0.004534 -1.065429 1.619179
v 0.028112 -1.04486 1.619726
v 0.759325 -1.167575 1.521849
v 0.86291 -1.201101 1.619084
v 0.84229 -1.168113 1.619509
v 0.84229 -1.168113 1.619509
v 0.86291 -1.201101 1.619084
v 0.885109 -1.083577 1.521822
v 1.004556 -0.2667519999999999 1.618573
v 1.0094 -0.2628859999999999 1.521771
v 0.90204 -0.2436679999999999 1.521834
v 0.97583 -0.2938849999999999 1.619126
v 1.004556 -0.2667519999999999 1.618573
v 0.90204 -0.2436679999999999 1.521834
v 0.911286 0.881741 0.832154
v 0.901337 0.884853 0.721309
v 0.896394 0.856593 0.721327
v 0.896394 0.856593 0.721327
v 0.906323 0.854551 0.832172
v 0.911286 0.881741 0.832154
v 0.672146 0.88819 0.832148
v 0.672146 0.88819 0.832148
v 0.678543 0.889394 0.721305
v 0.672146 0.88819 0.832148
v 0.412307 0.923452 0.8322009999999999
v 0.678543 0.889394 0.721305
v 0.412307 0.923452 0.8322009999999999
v 0.314732 0.941533 0.7212659999999999
v 0.678543 0.889394 0.721305
v 1.240868 0.801407 0.721356
v 1.234581 0.8044280000000001 0.929763
v 1.151195 0.816688 0.832246
v -1.218719 0.408245 0.24539799999999998
v -1.318881 0.451221 0.25552
v -1.32036 0.447029 -0.00030300000000002737
v -1.218719 0.408245 -0.000303000000000025
v -1.218719 0.408245 0.24539799999999998
v -1.11491 0.474759 -0.00030300000000002905
v -1.144495 0.466332 0.20311299999999996
v -1.128502 0.587115 -0.00030300000000003593
v -1.163192 0.578689 0.22386299999999998
v -1.260457 0.73963 -0.00030300000000004526
v -1.260457 0.73963 -0.00030300000000004526
v -1.227067 0.651614 0.24693199999999998
v -1.339391 0.615718 0.24937199999999998
v -1.260457 0.73963 -0.00030300000000004526
v -1.339391 0.664211 -0.00030300000000004065
v -1.318881 0.451221 0.25552
v -1.318881 0.451221 0.25552
v 0.205851 -0.15774899999999992 1.411355
v 0.17202 -0.6226479999999999 1.411445
v 0.284088 -0.3988519999999999 1.411445
v 0.051142 -1.036735 1.411356
v 0.207157 -0.8597299999999999 1.411445
v 0.051142 -1.036735 1.411356
v 0.373009 -1.009164 1.411445
v 0.590498 -1.038686 1.41143
v 0.373009 -1.009164 1.411445
v 0.848004 -1.145021 1.411354
v 0.7793 -0.9447649999999999 1.411443
v 0.848004 -1.145021 1.411354
v 0.87642 -0.7442659999999999 1.411442
v 0.978295 -0.2941539999999999 1.411352
v 0.846481 -0.4995199999999999 1.411442
v 0.978295 -0.2941539999999999 1.411352
v 0.698629 -0.3227279999999999 1.411443
v 0.205851 -0.15774899999999992 1.411355
v 0.487237 -0.28583599999999987 1.411444
v 0.078246 0.397767 -1.2000000000024356E-05
v 0.19857 0.45740700000000006 1.064924
v 0.21838 0.4638030000000001 1.064925
v 0.098449 0.403744 -1.0000000000024722E-05
v 0.078246 0.397767 -1.2000000000024356E-05
v 0.000579 -0.041203 -1.8999999999997477E-05
v 0.124266 -0.03755899999999994 1.064905
v 0.144173 -0.03152799999999994 1.064905
v 0.020786 -0.035225 -1.699999999999784E-05
v 0.000579 -0.041203 -1.8999999999997477E-05
v 0.024341 -0.021596 -1.699999999999868E-05
v 0.127124 0.09439200000000006 0.978854
v 0.146983 0.10043200000000005 0.978854
v 0.044547 -0.015618 -1.4999999999999043E-05
v 0.024341 -0.021596 -1.699999999999868E-05
v 0.168589 0.05147500000000005 0.832182
v 0.152844 -0.08324299999999994 0.929391
v 0.139172 -0.07100899999999996 0.721438
v 0.168589 0.05147500000000005 0.832182
v 0.314732 0.941533 0.7212659999999999
v 0.330312 0.9298870000000001 0.9297369999999999
v 0.308214 0.863289 0.832328
v 0.168589 0.05147500000000005 0.832182
v 0.417805 0.950759 0.8322599999999999
v 0.306076 0.9558210000000001 0.9292929999999999
v 0.330312 0.9298870000000001 0.9297369999999999
v 0.330312 0.9298870000000001 0.9297369999999999
v 0.412307 0.923452 0.8322009999999999
v 1.254519 0.710781 0.832332
v 1.265622 0.8294520000000001 0.929366
v 1.234581 0.8044280000000001 0.929763
v 1.234581 0.8044280000000001 0.929763
v 1.223041 0.716163 0.832324
v 1.265622 0.8294520000000001 0.929366
v 1.273709 0.827732 0.832283
v 1.155866 0.845703 0.832214
v 1.155866 0.845703 0.832214
v 1.347084 0.813186 -3.3000000000049795E-05
v 0.911286 0.881741 0.832154
v 0.911286 0.881741 0.832154
v 0.901337 0.884853 0.721309
v 0.241138 1.008596 -4.000000000061759E-06
v 0.683641 0.916501 0.7212859999999999
v 0.417181 0.947765 0.8321809999999998
v 0.29245 0.963457 0.8321869999999999
v 0.676984 0.91386 0.8321289999999999
v 0.84229 -1.168113 1.619509
v 0.763304 -1.144348 1.521927
v 0.759325 -1.167575 1.521849
v 0.885109 -1.083577 1.521822
v 0.855763 -1.079358 1.521869
v 0.198967 -0.07320599999999991 1.434106
v 0.170422 -0.06295899999999996 0.719248
v 0.158617 -0.05829799999999996 0.719248
v 0.158617 -0.05829799999999996 0.719248
v 0.187142 -0.06854199999999992 1.434106
v -1.206127 0.15155800000000003 0.23566
v -1.137218 0.055518 -0.0013970000000000035
v -1.093825 0.156181 -4.900000000000956E-05
v -1.133671 0.233922 0.21007199999999998
v -1.071461 0.346824 -0.034993000000000024
v -1.206127 0.15155800000000003 0.23566
v -1.071461 0.346824 -0.034993000000000024
v -1.129087 0.343851 0.22318799999999997
v -1.137218 0.055518 -0.0013970000000000035
v -1.301671 0.17729900000000004 0.265327
v -1.286018 0.099947 0.03264499999999999
v -1.326457 0.194939 -0.001655000000000012
v -1.356918 0.2424 0.09791399999999999
v -1.323414 0.324577 0.24030399999999996
v -1.213059 0.375109 0.05516599999999998
v -1.25147 0.403606 0.20096399999999998
v -1.071461 0.346824 -0.034993000000000024
v -1.180203 0.35105 -0.04371300000000002
v -1.356918 0.2424 0.09791399999999999
v -1.323414 0.324577 0.24030399999999996
v -1.25147 0.403606 0.20096399999999998
v 0.120963 0.203846 -0.0039560000000000125
v 0.021583 0.18743 -0.003961000000000011
v 0.110408 0.167701 0.10597799999999999
v 0.077683 0.010141000000000004 0.062035
v 0.110408 0.167701 0.10597799999999999
v -0.007305 0.007394 -0.003963000000000001
v 0.075434 -0.027038 -0.003958999999999998
v 1.036081 -1.415406 -5.099999999991333E-05
v 1.004176 -1.405463 0.17841300000000007
v 0.926654 -1.404284 -4.799999999991401E-05
v 0.961096 -1.330614 0.23755400000000007
v 0.889354 -1.313807 -3.499999999991955E-05
v 1.004176 -1.405463 0.17841300000000007
v 1.067852 -1.302677 -3.6999999999920235E-05
v 0.988646 -1.22787 -2.6999999999924813E-05
v 0.961096 -1.330614 0.23755400000000007
v 1.004176 -1.405463 0.17841300000000007
v 1.036081 -1.415406 -5.099999999991333E-05
v 0.961096 -1.330614 0.23755400000000007
v 0.180007 1.076517 -6.000000000065918E-06
v 0.210803 1.052245 0.11163699999999993
v 0.276092 1.06901 -1.000000000065458E-06
v 0.322431 0.988373 0.10850199999999995
v 0.345639 0.98457 9.999999999397124E-07
v 0.210803 1.052245 0.11163699999999993
v 0.210803 1.052245 0.11163699999999993
v 0.249621 0.921432 0.10849499999999994
v 0.167048 0.972658 -6.0000000000595584E-06
v 0.244544 0.88788 -2.0000000000543667E-06
v 0.180007 1.076517 -6.000000000065918E-06
v 0.14921 -0.24218399999999993 1.522043
v 0.182724 -0.2476869999999999 1.521407
v 0.18662 -0.1543199999999999 1.619674
v 0.286876 -0.17201699999999992 1.521991
v 0.292898 -0.13597099999999993 1.522093
v 0.163267 -0.1176629999999999 1.619222
v 0.028112 -1.04486 1.619726
v 0.056496 -0.9631939999999999 1.522008
v 0.02305 -0.9581869999999999 1.522037
v -0.004534 -1.065429 1.619179
v 0.129549 -1.08114 1.521973
v 0.134486 -1.054481 1.522035
v 0.990095 -0.39212999999999987 1.52167
v 1.004556 -0.2667519999999999 1.618573
v 0.97583 -0.2938849999999999 1.619126
v 0.961403 -0.3868509999999999 1.521714
v 0.990095 -0.39212999999999987 1.52167
v 0.90204 -0.2436679999999999 1.521834
v 0.896528 -0.2795959999999999 1.52174
v 0.703308 1.056973 -0.0018120000000000646
v 0.710506 0.8685020000000001 1.037016
v 0.865617 0.8455030000000001 1.035343
v 0.949623 1.01124 -0.003502000000000062
v -0.083077 0.499814 -2.5000000000030606E-05
v -0.075782 0.503026 0.63316
v -0.015548 0.85396 0.63313
v -0.020021 0.856231 -2.1000000000052427E-05
v 0.095177 0.385246 -1.100000000002359E-05
v 0.214999 0.44424700000000006 1.064922
v 0.19857 0.45740700000000006 1.064924
v 0.078246 0.397767 -1.2000000000024356E-05
v 0.017512 -0.05373 -1.699999999999671E-05
v 0.140949 -0.05004199999999994 1.064905
v 0.124266 -0.03755899999999994 1.064905
v 0.000579 -0.041203 -1.8999999999997477E-05
v 0.041273 -0.034123 -1.4999999999997912E-05
v 0.143767 0.08191600000000006 0.978854
v 0.127124 0.09439200000000006 0.978854
v 0.024341 -0.021596 -1.699999999999868E-05
v 1.302323 -0.03231 -1.0999999999998021E-05
v 1.39261 -0.011523999999999961 0.613456
v 1.390438 -0.02851199999999996 0.613456
v 1.300109 -0.04928 -1.0999999999996983E-05
v 1.219624 -0.557152 -4.9999999999658845E-06
v 1.30421 -0.58831 0.652349
v 1.302059 -0.605191 0.652349
v 1.21741 -0.573889 -4.9999999999648596E-06
v 0.632929 -0.09165199999999996 0.677101
v 0.632455 -0.09156899999999996 0.640947
v 0.863787 -0.13235999999999998 0.640947
v 0.86375 -0.13235299999999997 0.677101
v 0.645637 -0.025269999999999956 0.721337
v 0.644751 -0.02511399999999996 0.677101
v 0.875213 -0.06575599999999995 0.677101
v 0.875179 -0.06574999999999996 0.721337
v 0.85267 -0.19704699999999994 0.721427
v 0.852248 -0.19894799999999999 0.640947
v 0.620616 -0.15810499999999997 0.640947
v 0.622413 -0.15637199999999996 0.721431
v 0.852248 -0.19894799999999999 0.640947
v 0.863787 -0.13235999999999998 0.640947
v 0.632455 -0.09156899999999996 0.640947
v 0.620616 -0.15810499999999997 0.640947
v 1.15942 -1.012332 0.7214000000000002
v 1.231552 -0.581031 0.7214
v 1.191811 -0.5776979999999999 1.23006
v 1.127188 -0.9892649999999998 1.23006
v 0.412307 0.923452 0.8322009999999999
v 0.672146 0.88819 0.832148
v 0.676984 0.91386 0.8321289999999999
v 0.417181 0.947765 0.8321809999999998
v 0.906323 0.854551 0.832172
v 1.151195 0.816688 0.832246
v 1.155866 0.845703 0.832214
v 0.911286 0.881741 0.832154
v 0.90204 -0.2436679999999999 1.521834
v 0.292898 -0.13597099999999993 1.522093
v 0.286876 -0.17201699999999992 1.521991
v 0.896528 -0.2795959999999999 1.52174
v 0.885109 -1.083577 1.521822
v 0.990095 -0.39212999999999987 1.52167
v 0.961403 -0.3868509999999999 1.521714
v 0.855763 -1.079358 1.521869
v 1.235398 0.6775450000000001 0.983309
v 1.048577 -0.24755099999999994 1.055393
v 1.044071 -0.24565199999999995 1.067679
v 1.231084 0.6795520000000002 0.995595
v 1.242541 0.6778070000000002 0.998125
v 1.055331 -0.24743799999999994 1.07021
v 1.059878 -0.24934499999999996 1.057923
v 1.246889 0.6757950000000001 0.985839
v 1.06446 -0.24326599999999995 0.929804
v 1.09034 -0.24933299999999994 0.92958
v 1.118426 -0.11638999999999994 0.832213
v 1.087445 -0.11155799999999995 0.832344
v 0.134608 0.05702700000000005 0.8323
v 0.125271 -0.07837699999999995 0.929477
v 0.152844 -0.08324299999999994 0.929391
v 0.168589 0.05147500000000005 0.832182
v 0.330312 0.9298870000000001 0.9297369999999999
v 0.306076 0.9558210000000001 0.9292929999999999
v 0.274091 0.868247 0.832267
v 0.308214 0.863289 0.832328
v 1.234581 0.8044280000000001 0.929763
v 1.265622 0.8294520000000001 0.929366
v 1.155866 0.845703 0.832214
v 1.151195 0.816688 0.832246
v 1.161143 -1.012417 1.226631
v 1.232668 -0.5594629999999999 1.226631
v 0.987552 -0.5140459999999999 1.32742
v 0.915389 -0.9828109999999999 1.32742
v -1.311522 -1.031189 -0.0022379999999999367
v -1.266872 -1.043199 -0.002233999999999936
v -1.190872 -1.004773 0.5914490000000001
v -1.225036 -0.996078 0.5914490000000001
v -1.225036 -0.996078 0.5914490000000001
v -1.216571 -0.964792 0.5917550000000001
v -1.300167 -0.988561 -0.0022349999999999393
v -1.311522 -1.031189 -0.0022379999999999367
v -0.617604 -1.219091 -0.0022409999999999253
v -0.605605 -1.174164 -0.002238999999999928
v -0.62577 -1.113901 0.5914490000000001
v -0.634506 -1.146513 0.5914490000000001
v -0.634506 -1.146513 0.5914490000000001
v -0.666538 -1.138361 0.5917550000000001
v -0.660025 -1.207691 -0.002237999999999926
v -0.617604 -1.219091 -0.0022409999999999253
v -0.42229 -0.492997 -0.0022359999999999698
v -0.467043 -0.481008 -0.0022339999999999704
v -0.505531 -0.523916 0.591449
v -0.471798 -0.53311 0.591449
v -0.471798 -0.53311 0.591449
v -0.480376 -0.566272 0.591755
v -0.433661 -0.535488 -0.002234999999999967
v -0.42229 -0.492997 -0.0022359999999999698
v -1.116622 -0.305664 -0.002216999999999981
v -1.128585 -0.350453 -0.0022169999999999785
v -1.068174 -0.40726399999999996 0.591449
v -1.059001 -0.3723659999999999 0.591449
v -1.059001 -0.3723659999999999 0.591449
v -1.026652 -0.3811149999999999 0.591755
v -1.074241 -0.317028 -0.0022149999999999804
v -1.116622 -0.305664 -0.002216999999999981
v 0.672146 0.88819 0.832148
v 0.678543 0.889394 0.721305
v 0.683641 0.916501 0.7212859999999999
v 0.676984 0.91386 0.8321289999999999
v -0.096869 0.49465200000000004 0.624607
v -0.091317 0.49464700000000006 0.692603
v -0.028158 0.865833 0.692562
v -0.032757 0.867329 0.624572
v 0.176501 0.44514100000000006 0.6246
v 0.204762 0.44152500000000006 0.792422
v -0.091317 0.49464700000000006 0.692603
v -0.096869 0.49465200000000004 0.624607
v -0.032757 0.867329 0.624572
v -0.028158 0.865833 0.692562
v 0.269839 0.819334 0.792414
v 0.242228 0.823081 0.624592
v -0.028158 0.865833 0.692562
v -0.091317 0.49464700000000006 0.692603
v 0.204762 0.44152500000000006 0.792422
v 0.269839 0.819334 0.792414
v 0.187142 -0.06854199999999992 1.434106
v 0.158617 -0.05829799999999996 0.719248
v 0.152528 -0.06974799999999996 0.719248
v 0.181026 -0.07998699999999992 1.434106
v 1.045095 -0.21159199999999992 1.438907
v 1.060788 -0.22405399999999995 0.719248
v 1.054875 -0.23551699999999995 0.719248
v 1.039752 -0.22316399999999992 1.438907
v 1.050102 -0.22758599999999993 1.438907
v 1.066329 -0.24014999999999995 0.719248
v 1.072238 -0.22868499999999994 0.719248
v 1.055443 -0.21601399999999993 1.438906
v 1.167512 0.6237180000000001 1.551126
v 1.197572 0.54465 0.719281
v 1.207195 0.553133 0.719282
v 1.176158 0.6323320000000001 1.551127
v 1.170465 0.6434930000000001 1.551126
v 1.200875 0.564509 0.719284
v 1.191258 0.556041 0.719283
v 1.16183 0.6349160000000001 1.551125
v 0.611932 1.404738 -5.000000000086016E-06
v 0.591139 1.416614 0.14623199999999992
v 0.590463 1.340121 0.14623899999999992
v 0.611839 1.329346 -2.000000000081399E-06
v 0.144304 0.460025 -1.3000000000028168E-05
v 0.183871 0.45647000000000004 0.678304
v -0.075782 0.503026 0.63316
v -0.083077 0.499814 -2.5000000000030606E-05
v -0.020021 0.856231 -2.1000000000052427E-05
v -0.015548 0.85396 0.63313
v 0.24524 0.8121 0.678322
v 0.207275 0.816533 -6.000000000049998E-06
v -1.206917 -0.989891 0.5086190000000002
v -1.2289 -1.004611 0.38039700000000004
v -1.070184 -0.367101 0.380397
v -1.05265 -0.39073899999999995 0.508619
v -0.654796 -1.137099 0.5086190000000002
v -0.670107 -1.146326 0.38039700000000004
v -1.2289 -1.004611 0.38039700000000004
v -1.206917 -0.989891 0.5086190000000002
v -0.500238 -0.541083 0.508619
v -0.494901 -0.523492 0.38039700000000004
v -0.670107 -1.146326 0.38039700000000004
v -0.654796 -1.137099 0.5086190000000002
v -1.05265 -0.39073899999999995 0.508619
v -1.070184 -0.367101 0.380397
v -0.494901 -0.523492 0.38039700000000004
v -0.500238 -0.541083 0.508619
v -0.617621 -1.217462 -0.0005049999999999254
v -0.64291 -1.159037 0.5086190000000002
v -1.227901 -1.003114 0.5086190000000002
v -1.3079 -1.031574 -0.0005009999999999368
v -1.3079 -1.031574 -0.0005009999999999368
v -1.227901 -1.003114 0.5086190000000002
v -1.064454 -0.3683429999999999 0.508619
v -1.11513 -0.309028 -0.0004759999999999811
v -0.424356 -0.494233 -0.0004989999999999697
v -0.479028 -0.527652 0.508619
v -0.64291 -1.159037 0.5086190000000002
v -0.617621 -1.217462 -0.0005049999999999254
v -1.11513 -0.309028 -0.0004759999999999811
v -1.064454 -0.3683429999999999 0.508619
v -0.479028 -0.527652 0.508619
v -0.424356 -0.494233 -0.0004989999999999697
v 0.875213 -0.06575599999999995 0.677101
v 0.644751 -0.02511399999999996 0.677101
v 0.632929 -0.09165199999999996 0.677101
v 0.86375 -0.13235299999999997 0.677101
v -1.144495 0.466332 0.20311299999999996
v -1.163192 0.578689 0.22386299999999998
v -1.218719 0.408245 0.24539799999999998
v -1.227067 0.651614 0.24693199999999998
v -1.339391 0.615718 0.24937199999999998
v 0.85267 -0.19704699999999994 0.721427
v 1.0688 -0.23567399999999994 0.721424
v 0.875179 -0.06574999999999996 0.721337
v 1.240868 0.801407 0.721356
v 0.645637 -0.025269999999999956 0.721337
v 0.139172 -0.07100899999999996 0.721438
v 0.622413 -0.15637199999999996 0.721431
v 0.896394 0.856593 0.721327
v 0.678543 0.889394 0.721305
v 0.314732 0.941533 0.7212659999999999
v 0.901337 0.884853 0.721309
v 0.683641 0.916501 0.7212859999999999
v 0.961403 -0.3868509999999999 1.521714
v 0.97583 -0.2938849999999999 1.619126
v 0.978295 -0.2941539999999999 1.411352
v 0.855763 -1.079358 1.521869
v 0.848004 -1.145021 1.411354
v 0.84229 -1.168113 1.619509
v 0.763304 -1.144348 1.521927
v 0.84229 -1.168113 1.619509
v 0.848004 -1.145021 1.411354
v 0.134486 -1.054481 1.522035
v 0.051142 -1.036735 1.411356
v 0.028112 -1.04486 1.619726
v 1.06446 -0.24326599999999995 0.929804
v 1.087445 -0.11155799999999995 0.832344
v 1.0688 -0.23567399999999994 0.721424
v 1.223041 0.716163 0.832324
v 1.240868 0.801407 0.721356
v 1.234581 0.8044280000000001 0.929763
v 0.18662 -0.1543199999999999 1.619674
v 0.182724 -0.2476869999999999 1.521407
v 0.205851 -0.15774899999999992 1.411355
v 0.056496 -0.9631939999999999 1.522008
v 0.051142 -1.036735 1.411356
v 0.028112 -1.04486 1.619726
v 0.86291 -1.201101 1.619084
v 0.869349 -1.188135 1.521883
v 0.885109 -1.083577 1.521822
v 0.936166 -1.216411 0.8322700000000001
v 0.990095 -0.39212999999999987 1.52167
v 1.004556 -0.2667519999999999 1.618573
v 1.0094 -0.2628859999999999 1.521771
v 1.09034 -0.24933299999999994 0.92958
v 1.097686 -0.24609199999999995 0.832047
v 0.969183 -1.325627 -0.00011899999999991884
v 1.118426 -0.11638999999999994 0.832213
v 0.969183 -1.325627 -0.00011899999999991884
v 0.969183 -1.325627 -0.00011899999999991884
v 1.347084 0.813186 -3.3000000000049795E-05
v 1.254519 0.710781 0.832332
v 1.273709 0.827732 0.832283
v 1.265622 0.8294520000000001 0.929366
v 0.978295 -0.2941539999999999 1.411352
v 0.97583 -0.2938849999999999 1.619126
v 0.896528 -0.2795959999999999 1.52174
v 0.205851 -0.15774899999999992 1.411355
v 0.286876 -0.17201699999999992 1.521991
v 0.18662 -0.1543199999999999 1.619674
v 0.18674 1.301563 -9.000000000079698E-06
v 0.611839 1.329346 -2.000000000081399E-06
v 0.590463 1.340121 0.14623899999999992
v 0.185588 1.31005 0.24428199999999992
v -0.334847 1.284129 -4.200000000007863E-05
v -0.352269 1.296587 0.21372499999999992
v -0.799852 1.301641 -6.0000000000797026E-06
v -0.725014 1.312523 0.11978299999999992
v -1.346363 0.38775 -2.8000000000023744E-05
v -1.383753 0.857517 -3.400000000005251E-05
v -1.364903 0.778396 0.16497699999999996
v -1.319264 0.383295 0.317407
v -1.378736 -0.083993 -3.299999999999486E-05
v -1.340018 0.04024000000000002 0.356021
v -1.339131 -0.20557499999999998 0.313812
v -1.32538 -0.417467 0.21004300000000004
v -1.346341 -0.553436 -2.4999999999966113E-05
v 0.131536 -1.176829 0.10461700000000007
v 0.145646 -1.256128 -0.0049509999999999225
v 0.1732 -1.17087 -0.004945999999999928
v -0.014504 -1.244456 -0.004956999999999923
v -0.009549 -1.15774 0.10451100000000008
v -0.040783 -1.146811 -0.00495399999999993
v 0.163267 -0.1176629999999999 1.619222
v 0.292898 -0.13597099999999993 1.522093
v 0.171291 -0.1144889999999999 1.522171
v 0.125271 -0.07837699999999995 0.929477
v 0.90204 -0.2436679999999999 1.521834
v 0.152844 -0.08324299999999994 0.929391
v 1.0688 -0.23567399999999994 0.721424
v 0.85267 -0.19704699999999994 0.721427
v 0.622413 -0.15637199999999996 0.721431
v 0.139172 -0.07100899999999996 0.721438
v -0.004534 -1.065429 1.619179
v 0.02305 -0.9581869999999999 1.522037
v 0.003269 -1.062815 1.522016
v -0.060505 -1.073345 0.8322870000000001
v 0.14921 -0.24218399999999993 1.522043
v 0.171291 -0.1144889999999999 1.522171
v 0.163267 -0.1176629999999999 1.619222
v 0.125271 -0.07837699999999995 0.929477
v 0.113231 -0.06781299999999994 0.832214
v -0.136523 -1.129311 -0.00014599999999993085
v 0.134608 0.05702700000000005 0.8323
v 0.144304 0.460025 -1.3000000000028168E-05
v 0.202758 0.45444500000000004 0.832274
v 0.86291 -1.201101 1.619084
v 0.759325 -1.167575 1.521849
v 0.869567 -1.18662 1.521814
v 0.936166 -1.216411 0.8322700000000001
v 0.129549 -1.08114 1.521973
v 0.003269 -1.062815 1.522016
v -0.004534 -1.065429 1.619179
v -0.060505 -1.073345 0.8322870000000001
v 0.969183 -1.325627 -0.00011899999999991884
v -0.136523 -1.129311 -0.00014599999999993085
v -1.364903 0.778396 0.16497699999999996
v -1.383753 0.857517 -3.400000000005251E-05
v -1.467281 0.857432 -5.20000000000525E-05
v -1.445209 0.777473 0.16489799999999993
v -1.319264 0.383295 0.317407
v -1.398232 0.382218 0.317404
v -1.340018 0.04024000000000002 0.356021
v -1.419179 0.03915000000000002 0.356021
v -1.418291 -0.20666999999999996 0.313808
v -1.339131 -0.20557499999999998 0.313812
v -1.32538 -0.417467 0.21004300000000004
v -1.404945 -0.418443 0.20999500000000001
v -1.346341 -0.553436 -2.4999999999966113E-05
v -1.429858 -0.553513 -3.999999999996611E-05
v 0.185588 1.31005 0.24428199999999992
v 0.590463 1.340121 0.14623899999999992
v 0.591139 1.416614 0.14623199999999992
v 0.186032 1.386481 0.24428599999999992
v -0.352269 1.296587 0.21372499999999992
v -0.351767 1.373316 0.21372899999999992
v -0.725014 1.312523 0.11978299999999992
v -0.724421 1.389148 0.11977799999999991
v -0.799852 1.301641 -6.0000000000797026E-06
v -0.79977 1.377058 -8.00000000008432E-06
v -0.942418 0.364207 0.24339699999999997
v -0.964766 0.477316 0.23285499999999998
v -1.028037 0.311909 0.268003
v -1.03106 0.549944 0.21670999999999999
v -1.133924 0.506428 0.17419499999999996
v -1.129087 0.343851 0.22318799999999997
v -1.035626 0.295674 -0.0001080000000000181
v -0.956818 0.237477 -0.0033200000000000148
v -1.028037 0.311909 0.268003
v -1.129087 0.343851 0.22318799999999997
v -0.956818 0.237477 -0.0033200000000000148
v -0.84282 0.333517 0.0011659999999999796
v -0.942418 0.364207 0.24339699999999997
v -0.855544 0.4704 0.0020269999999999715
v -0.964766 0.477316 0.23285499999999998
v -0.987076 0.578177 -0.0009470000000000355
v -1.03106 0.549944 0.21670999999999999
v -1.133924 0.506428 0.17419499999999996
v -1.094618 0.507219 -0.000864000000000031
v -1.206127 0.15155800000000003 0.23566
v -1.133671 0.233922 0.21007199999999998
v -1.301671 0.17729900000000004 0.265327
v -1.129087 0.343851 0.22318799999999997
v -1.25147 0.403606 0.20096399999999998
v -1.323414 0.324577 0.24030399999999996
v -0.79977 1.377058 -8.00000000008432E-06
v -0.724421 1.389148 0.11977799999999991
v -0.351767 1.373316 0.21372899999999992
v -0.335463 1.359561 -4.300000000008325E-05
v 0.186687 1.376981 -1.1000000000084315E-05
v 0.186032 1.386481 0.24428599999999992
v 0.591139 1.416614 0.14623199999999992
v 0.611932 1.404738 -5.000000000086016E-06
v -1.398232 0.382218 0.317404
v -1.445209 0.777473 0.16489799999999993
v -1.467281 0.857432 -5.20000000000525E-05
v -1.42988 0.387692 -4.300000000002374E-05
v -1.462263 -0.084064 -4.999999999999485E-05
v -1.419179 0.03915000000000002 0.356021
v -1.418291 -0.20666999999999996 0.313808
v -1.404945 -0.418443 0.20999500000000001
v -1.429858 -0.553513 -3.999999999996611E-05
v 0.29245 0.963457 0.8321869999999999
v 0.241138 1.008596 -4.000000000061759E-06
v 0.207275 0.816533 -6.000000000049998E-06
v 0.274091 0.868247 0.832267
v 0.306076 0.9558210000000001 0.9292929999999999
v 0.24524 0.8121 0.678322
v 0.183871 0.45647000000000004 0.678304
v 0.202758 0.45444500000000004 0.832274
v 1.286998 0.517112 0.14336599999999997
v 1.274942 0.47456 -1.0000000000029059E-05
v 1.400021 0.498709 -1.5000000000030538E-05
v 1.398269 0.588311 -1.5000000000036025E-05
v 1.357978 0.567055 0.13096799999999997
v 1.285554 0.626111 -1.000000000003834E-05
v 1.354462 0.516523 0.13059999999999997
v 1.291496 0.580311 0.14341799999999996
v -0.923359 -0.859061 0.646908
v -1.070184 -0.367101 0.380397
v -1.2289 -1.004611 0.38039700000000004
v -0.670107 -1.146326 0.38039700000000004
v -0.494901 -0.523492 0.38039700000000004
v 0.206594 -0.8599969999999999 1.411416
v 0.210924 -0.7336559999999999 1.591259
v 0.171391 -0.6225369999999999 1.411415
v 0.341434 -0.5823479999999999 1.690016
v 0.283659 -0.39837699999999987 1.411416
v 0.373358 -0.8241569999999999 1.702121
v 0.372742 -1.009635 1.411416
v 0.389349 -0.37533699999999987 1.591218
v 0.487156 -0.2851899999999999 1.411415
v 0.550701 -0.4700679999999999 1.702015
v 0.698894 -0.3221369999999999 1.411414
v 0.475693 -0.9974899999999999 1.591234
v 0.590498 -1.038686 1.41143
v 0.743887 -0.4380769999999999 1.590937
v 0.846993 -0.4992109999999999 1.411413
v 0.603952 -0.8627109999999999 1.701997
v 0.779704 -0.9451469999999998 1.411414
v 0.710068 -0.6466289999999999 1.701904
v 0.87698 -0.7443609999999999 1.411412
v 0.793801 -0.8312959999999999 1.590915
vt 0.385245 0.802632
vt 0.386404 0.766943
vt 0.365638 0.767094
vt 0.366636 0.745347
vt 0.365638 0.767094
vt 0.386404 0.766943
vt 0.838223 0.510156
vt 0.890094 0.503650
vt 0.909997 0.538803
vt 0.364035 0.660540
vt 0.383894 0.662498
vt 0.368115 0.684339
vt 0.841042 0.781487
vt 0.841050 0.821123
vt 0.841033 0.995712
vt 0.004367 0.327117
vt 0.104439 0.326956
vt 0.055206 0.332750
vt 0.104521 0.505753
vt 0.004449 0.505915
vt 0.055078 0.498476
vt 0.062386 0.781715
vt 0.063756 0.784285
vt 0.063761 0.810204
vt 0.104521 0.505753
vt 0.081052 0.482776
vt 0.097095 0.441333
vt 0.120980 0.541987
vt 0.143771 0.719472
vt 0.139090 0.747935
vt 0.139090 0.747935
vt 0.107654 0.747934
vt 0.007679 0.694425
vt 0.120980 0.541987
vt 0.143021 0.694377
vt 0.143771 0.719472
vt 0.121263 0.480412
vt 0.116314 0.480412
vt 0.121263 0.463042
vt 0.137496 0.484316
vt 0.137497 0.501685
vt 0.132547 0.484316
vt 0.132547 0.484316
vt 0.137497 0.501685
vt 0.126480 0.501185
vt 0.126492 0.466946
vt 0.132547 0.466946
vt 0.132547 0.484316
vt 0.132547 0.484316
vt 0.126480 0.501185
vt 0.126492 0.466946
vt 0.110246 0.463561
vt 0.116314 0.480412
vt 0.116314 0.497781
vt 0.116314 0.497781
vt 0.110258 0.497781
vt 0.110246 0.463561
vt 0.121263 0.463042
vt 0.116314 0.480412
vt 0.110246 0.463561
vt 0.455628 0.992732
vt 0.295076 0.995219
vt 0.160893 0.995001
vt 0.935974 0.263685
vt 0.935973 0.143582
vt 0.959340 0.263685
vt 0.959344 0.156658
vt 0.959340 0.263685
vt 0.935973 0.143582
vt 0.987080 0.143189
vt 0.987076 0.263292
vt 0.963710 0.263292
vt 0.963710 0.263292
vt 0.963710 0.156265
vt 0.987080 0.143189
vt 0.120980 0.541987
vt 0.136609 0.541997
vt 0.143021 0.694377
vt 0.899530 0.433842
vt 0.785867 0.433842
vt 0.785915 0.425657
vt 0.785915 0.425657
vt 0.899536 0.425657
vt 0.899530 0.433842
vt 0.551118 0.542473
vt 0.563824 0.517399
vt 0.563755 0.570920
vt 0.508654 0.544286
vt 0.508654 0.570205
vt 0.507286 0.541716
vt 0.508654 0.570205
vt 0.458249 0.570205
vt 0.507286 0.541716
vt 0.458249 0.570205
vt 0.471050 0.541706
vt 0.507286 0.541716
vt 0.907658 0.286799
vt 0.794244 0.286799
vt 0.794453 0.278005
vt 0.794453 0.278005
vt 0.907658 0.278005
vt 0.907658 0.286799
vt 0.800864 0.473335
vt 0.905339 0.475131
vt 0.905339 0.481722
vt 0.905339 0.481722
vt 0.801463 0.481724
vt 0.800864 0.473335
vt 0.928789 0.520508
vt 0.928789 0.698963
vt 0.925937 0.698963
vt 0.925937 0.698963
vt 0.925937 0.520508
vt 0.928789 0.520508
vt 0.708426 0.517447
vt 0.689890 0.542432
vt 0.697547 0.519823
vt 0.760799 0.433842
vt 0.760668 0.425657
vt 0.771685 0.425657
vt 0.018536 0.758847
vt 0.026149 0.781559
vt 0.009507 0.781560
vt 0.062559 0.408900
vt 0.057028 0.366306
vt 0.060421 0.345231
vt 0.784270 0.481724
vt 0.774008 0.493826
vt 0.800864 0.473335
vt 0.905339 0.475131
vt 0.928788 0.493824
vt 0.925936 0.481095
vt 0.928789 0.698963
vt 0.919509 0.743069
vt 0.925937 0.735508
vt 0.925937 0.735508
vt 0.919509 0.743069
vt 0.905340 0.743069
vt 0.135863 0.517080
vt 0.136609 0.541997
vt 0.120980 0.541987
vt 0.777879 0.725626
vt 0.784271 0.743071
vt 0.774008 0.698965
vt 0.931431 0.403101
vt 0.931431 0.432659
vt 0.926856 0.432659
vt 0.926856 0.432659
vt 0.926856 0.403103
vt 0.931431 0.403101
vt 0.513512 0.545182
vt 0.514878 0.542607
vt 0.513539 0.571101
vt 0.514878 0.542607
vt 0.551118 0.542473
vt 0.513539 0.571101
vt 0.551118 0.542473
vt 0.563755 0.570920
vt 0.513539 0.571101
vt 0.458249 0.570205
vt 0.463450 0.519121
vt 0.471050 0.541706
vt 0.368115 0.684339
vt 0.383894 0.662498
vt 0.396750 0.659324
vt 0.397116 0.681058
vt 0.368115 0.684339
vt 0.397436 0.703277
vt 0.371576 0.705072
vt 0.397508 0.720362
vt 0.369266 0.722862
vt 0.400189 0.742521
vt 0.400189 0.742521
vt 0.366636 0.745347
vt 0.365638 0.767094
vt 0.400189 0.742521
vt 0.397572 0.766462
vt 0.385245 0.802632
vt 0.365386 0.800675
vt 0.104521 0.505753
vt 0.055078 0.498476
vt 0.081052 0.482776
vt 0.004449 0.505915
vt 0.029149 0.482580
vt 0.004449 0.505915
vt 0.013149 0.441105
vt 0.013154 0.389871
vt 0.013149 0.441105
vt 0.004367 0.327117
vt 0.029253 0.348504
vt 0.004367 0.327117
vt 0.055206 0.332750
vt 0.104439 0.326956
vt 0.081135 0.348646
vt 0.104439 0.326956
vt 0.097135 0.390121
vt 0.104521 0.505753
vt 0.097095 0.441333
vt 0.378565 0.016535
vt 0.198244 0.016358
vt 0.198244 0.010136
vt 0.378565 0.010313
vt 0.378565 0.016535
vt 0.993638 0.990203
vt 0.993729 0.651639
vt 0.997044 0.651639
vt 0.996952 0.990202
vt 0.993638 0.990203
vt 0.188964 0.017751
vt 0.008643 0.017576
vt 0.008643 0.011353
vt 0.188964 0.011529
vt 0.188964 0.017751
vt 0.689890 0.542432
vt 0.708426 0.517447
vt 0.707102 0.570895
vt 0.689890 0.542432
vt 0.563755 0.570920
vt 0.569081 0.519893
vt 0.576599 0.542435
vt 0.689890 0.542432
vt 0.924382 0.388918
vt 0.924382 0.433842
vt 0.914264 0.425657
vt 0.914264 0.425657
vt 0.920038 0.388909
vt 0.907658 0.278005
vt 0.931431 0.278005
vt 0.926856 0.308368
vt 0.926856 0.308368
vt 0.907658 0.286799
vt 0.147526 0.757915
vt 0.148274 0.781691
vt 0.131958 0.781706
vt 0.131958 0.781706
vt 0.154536 0.995606
vt 0.095766 0.781715
vt 0.094394 0.784285
vt 0.094363 0.810204
vt 0.003880 0.995601
vt 0.063761 0.810204
vt 0.026149 0.781559
vt 0.009507 0.781560
vt 0.062386 0.781715
vt 0.925937 0.735508
vt 0.925937 0.698963
vt 0.928789 0.698963
vt 0.905340 0.743069
vt 0.905340 0.737293
vt 0.998083 0.366430
vt 0.998085 0.631506
vt 0.997049 0.631506
vt 0.997049 0.631506
vt 0.997047 0.366430
vt 0.371576 0.705072
vt 0.397436 0.703277
vt 0.397508 0.720362
vt 0.369266 0.722862
vt 0.400189 0.742521
vt 0.371576 0.705072
vt 0.400189 0.742521
vt 0.366636 0.745347
vt 0.397436 0.703277
vt 0.368115 0.684339
vt 0.397116 0.681058
vt 0.396750 0.659324
vt 0.383894 0.662498
vt 0.364035 0.660540
vt 0.386404 0.766943
vt 0.365638 0.767094
vt 0.400189 0.742521
vt 0.397572 0.766462
vt 0.385245 0.802632
vt 0.365386 0.800675
vt 0.365638 0.767094
vt 0.084416 0.453614
vt 0.068332 0.473450
vt 0.067524 0.436659
vt 0.039569 0.430810
vt 0.067524 0.436659
vt 0.035454 0.468107
vt 0.027062 0.440519
vt 0.316747 0.451649
vt 0.325671 0.387750
vt 0.338419 0.439749
vt 0.333066 0.370403
vt 0.354366 0.425374
vt 0.325671 0.387750
vt 0.293523 0.441557
vt 0.275315 0.420530
vt 0.333066 0.370403
vt 0.325671 0.387750
vt 0.316747 0.451649
vt 0.333066 0.370403
vt 0.388215 0.427258
vt 0.396302 0.382109
vt 0.406416 0.412392
vt 0.405002 0.364605
vt 0.422187 0.385035
vt 0.396302 0.382109
vt 0.396302 0.382109
vt 0.367873 0.367138
vt 0.367734 0.415672
vt 0.350429 0.388671
vt 0.388215 0.427258
vt 0.800864 0.473335
vt 0.801463 0.481724
vt 0.784270 0.481724
vt 0.777878 0.520510
vt 0.774008 0.520510
vt 0.774008 0.493826
vt 0.925936 0.481095
vt 0.905339 0.481722
vt 0.905339 0.475131
vt 0.928788 0.493824
vt 0.928789 0.520508
vt 0.925937 0.520508
vt 0.801464 0.743071
vt 0.784271 0.743071
vt 0.777879 0.725626
vt 0.801464 0.737294
vt 0.801464 0.743071
vt 0.774008 0.698965
vt 0.777879 0.698965
vt 0.930782 0.254818
vt 0.777654 0.242767
vt 0.777891 0.182107
vt 0.931042 0.163823
vt 0.921990 0.988525
vt 0.921990 0.828383
vt 0.971523 0.828383
vt 0.971523 0.988525
vt 0.378565 0.022637
vt 0.198244 0.022461
vt 0.198244 0.016358
vt 0.378565 0.016535
vt 0.990387 0.990203
vt 0.990479 0.651639
vt 0.993729 0.651639
vt 0.993638 0.990203
vt 0.188964 0.023854
vt 0.008643 0.023679
vt 0.008643 0.017576
vt 0.188964 0.017751
vt 0.855701 0.109737
vt 0.926221 0.109737
vt 0.926221 0.113572
vt 0.855701 0.113572
vt 0.976705 0.651078
vt 0.976705 0.519352
vt 0.978750 0.519352
vt 0.978750 0.651078
vt 0.772833 0.325001
vt 0.777783 0.325001
vt 0.777783 0.385498
vt 0.772833 0.385498
vt 0.780906 0.325001
vt 0.786962 0.325001
vt 0.786962 0.385498
vt 0.780907 0.385498
vt 0.107654 0.747934
vt 0.107654 0.768573
vt 0.075433 0.768572
vt 0.075433 0.747933
vt 0.149110 0.560575
vt 0.158119 0.560575
vt 0.158119 0.621070
vt 0.149110 0.621070
vt 0.984851 0.133747
vt 0.933702 0.133747
vt 0.933702 0.026721
vt 0.984851 0.026721
vt 0.924382 0.291645
vt 0.924382 0.359684
vt 0.920038 0.359684
vt 0.920038 0.291645
vt 0.926856 0.403103
vt 0.926856 0.335081
vt 0.931431 0.335151
vt 0.931431 0.403101
vt 0.774008 0.698965
vt 0.774008 0.520510
vt 0.777878 0.520510
vt 0.777879 0.698965
vt 0.905340 0.743069
vt 0.801464 0.743071
vt 0.801464 0.737294
vt 0.905340 0.737293
vt 0.994779 0.086569
vt 0.994781 0.351644
vt 0.993658 0.351645
vt 0.993656 0.086569
vt 0.996784 0.086569
vt 0.996786 0.351644
vt 0.995815 0.351644
vt 0.995812 0.086569
vt 0.780142 0.286799
vt 0.769244 0.278005
vt 0.794453 0.278005
vt 0.794244 0.286799
vt 0.785912 0.433842
vt 0.760799 0.433842
vt 0.771685 0.425657
vt 0.785867 0.425657
vt 0.914264 0.425657
vt 0.924382 0.433842
vt 0.899530 0.433842
vt 0.899536 0.425657
vt 0.926856 0.308368
vt 0.931431 0.278005
vt 0.931431 0.335151
vt 0.926856 0.335081
vt 0.925957 0.090899
vt 0.859216 0.090899
vt 0.859216 0.025309
vt 0.925957 0.025309
vt 0.708997 0.412285
vt 0.708997 0.423190
vt 0.627278 0.423191
vt 0.627278 0.412285
vt 0.627278 0.405266
vt 0.627278 0.394016
vt 0.708997 0.394015
vt 0.708997 0.405265
vt 0.540789 0.410514
vt 0.540789 0.420553
vt 0.459071 0.420553
vt 0.459071 0.410515
vt 0.459071 0.405115
vt 0.459071 0.394298
vt 0.540789 0.394298
vt 0.540789 0.405115
vt 0.543123 0.370577
vt 0.543123 0.359327
vt 0.624842 0.359326
vt 0.624842 0.370575
vt 0.624842 0.376279
vt 0.624842 0.387700
vt 0.543123 0.387702
vt 0.543123 0.376280
vt 0.093516 0.310074
vt 0.093516 0.321107
vt 0.011797 0.321108
vt 0.011797 0.310074
vt 0.011797 0.306352
vt 0.011797 0.294508
vt 0.093516 0.294508
vt 0.093516 0.306351
vt 0.924382 0.359684
vt 0.924382 0.388918
vt 0.920038 0.388909
vt 0.920038 0.359684
vt 0.122284 0.179622
vt 0.122284 0.197097
vt 0.069584 0.197098
vt 0.069584 0.179622
vt 0.947302 0.454672
vt 0.936591 0.415240
vt 0.984906 0.415511
vt 0.988081 0.432131
vt 0.988082 0.292553
vt 0.984876 0.309155
vt 0.936560 0.309155
vt 0.947347 0.269784
vt 0.984876 0.313528
vt 0.984876 0.412476
vt 0.936560 0.412476
vt 0.936560 0.313528
vt 0.997047 0.366430
vt 0.997049 0.631506
vt 0.996078 0.631506
vt 0.996076 0.366430
vt 0.696090 0.015590
vt 0.837271 0.015589
vt 0.837271 0.017697
vt 0.696090 0.017698
vt 0.696090 0.011826
vt 0.837271 0.011825
vt 0.837271 0.013647
vt 0.696090 0.013648
vt 0.844024 0.008518
vt 0.985205 0.008517
vt 0.985205 0.010464
vt 0.844024 0.010465
vt 0.844024 0.012287
vt 0.985205 0.012286
vt 0.985205 0.014228
vt 0.844024 0.014229
vt 0.341678 0.157341
vt 0.366416 0.160938
vt 0.366117 0.179660
vt 0.341678 0.179660
vt 0.939265 0.814929
vt 0.934036 0.643871
vt 0.970762 0.655476
vt 0.970762 0.814927
vt 0.935221 0.630504
vt 0.935221 0.469961
vt 0.971940 0.458351
vt 0.966712 0.630506
vt 0.347612 0.218695
vt 0.345388 0.185475
vt 0.440123 0.185475
vt 0.437447 0.218695
vt 0.666464 0.219545
vt 0.666454 0.186650
vt 0.749943 0.186412
vt 0.747698 0.219543
vt 0.560043 0.218706
vt 0.557500 0.185560
vt 0.645064 0.185812
vt 0.645051 0.218706
vt 0.458134 0.219052
vt 0.455903 0.185755
vt 0.541572 0.185755
vt 0.539372 0.219052
vt 0.658026 0.355619
vt 0.664041 0.224295
vt 0.750117 0.224295
vt 0.756165 0.355619
vt 0.338637 0.354574
vt 0.344936 0.223237
vt 0.440122 0.223237
vt 0.446760 0.354574
vt 0.551227 0.354579
vt 0.557509 0.223247
vt 0.647582 0.223247
vt 0.653543 0.354579
vt 0.449668 0.355180
vt 0.455715 0.223804
vt 0.541791 0.223804
vt 0.547807 0.355180
vt 0.167332 0.560575
vt 0.167332 0.621070
vt 0.158119 0.621070
vt 0.158119 0.560575
vt 0.896235 0.573094
vt 0.860706 0.576420
vt 0.909997 0.538803
vt 0.832745 0.556379
vt 0.838223 0.510156
vt 0.149110 0.560575
vt 0.149110 0.500684
vt 0.167332 0.560575
vt 0.292626 0.500683
vt 0.167332 0.621070
vt 0.149110 0.747059
vt 0.149110 0.621070
vt 0.292673 0.594667
vt 0.292673 0.652028
vt 0.292627 0.747059
vt 0.297277 0.594667
vt 0.297277 0.652218
vt 0.756032 0.466298
vt 0.763627 0.443715
vt 0.767642 0.493028
vt 0.654895 0.466355
vt 0.643698 0.493110
vt 0.643689 0.441311
vt 0.629371 0.466364
vt 0.641288 0.441311
vt 0.641297 0.493110
vt 0.534247 0.466372
vt 0.522020 0.493110
vt 0.526648 0.443794
vt 0.324448 0.519092
vt 0.332045 0.541674
vt 0.314861 0.570182
vt 0.445455 0.541773
vt 0.458249 0.570205
vt 0.458220 0.516697
vt 0.399893 0.443699
vt 0.407439 0.466443
vt 0.396069 0.493029
vt 0.508620 0.466363
vt 0.520492 0.493110
vt 0.520503 0.441326
vt 0.447973 0.578276
vt 0.447979 0.603264
vt 0.432211 0.603262
vt 0.450716 0.780757
vt 0.331068 0.603269
vt 0.323171 0.580735
vt 0.314065 0.603242
vt 0.310977 0.755722
vt 0.308547 0.780823
vt 0.455628 0.992732
vt 0.290564 0.780770
vt 0.455628 0.992732
vt 0.455628 0.992732
vt 0.160893 0.995001
vt 0.177444 0.780734
vt 0.160984 0.780738
vt 0.169937 0.758179
vt 0.275048 0.491324
vt 0.279368 0.442083
vt 0.286877 0.464766
vt 0.394323 0.493029
vt 0.381996 0.466102
vt 0.394327 0.441228
vt 0.608813 0.007482
vt 0.666957 0.007481
vt 0.663972 0.053462
vt 0.608930 0.084503
vt 0.537943 0.007483
vt 0.537909 0.074181
vt 0.474333 0.007484
vt 0.485345 0.044735
vt 0.069460 0.123147
vt 0.004953 0.123081
vt 0.015259 0.080624
vt 0.069487 0.041571
vt 0.134189 0.123230
vt 0.116497 0.031722
vt 0.150129 0.042485
vt 0.179559 0.068921
vt 0.198617 0.122865
vt 0.418325 0.408490
vt 0.416382 0.453185
vt 0.403268 0.436672
vt 0.444559 0.452669
vt 0.441619 0.419946
vt 0.459521 0.433868
vt 0.018248 0.519425
vt 0.025845 0.541979
vt 0.009399 0.541963
vt 0.003773 0.694403
vt 0.120980 0.541987
vt 0.007679 0.694425
vt 0.139090 0.747935
vt 0.107654 0.747934
vt 0.075433 0.747933
vt 0.007865 0.747931
vt 0.629112 0.579028
vt 0.645042 0.604006
vt 0.629106 0.604010
vt 0.625547 0.781525
vt 0.746182 0.605061
vt 0.762803 0.603964
vt 0.753786 0.582872
vt 0.767709 0.756392
vt 0.768940 0.781445
vt 0.620231 0.995736
vt 0.786332 0.781386
vt 0.841033 0.995712
vt 0.841042 0.781487
vt 0.474706 0.578894
vt 0.490800 0.603824
vt 0.473959 0.603829
vt 0.468864 0.781137
vt 0.585926 0.603831
vt 0.601995 0.603820
vt 0.593522 0.581272
vt 0.608255 0.781148
vt 0.462241 0.992965
vt 0.613254 0.995233
vt 0.220514 0.132405
vt 0.246560 0.129349
vt 0.246560 0.151861
vt 0.220616 0.149242
vt 0.159994 0.132405
vt 0.159994 0.147932
vt 0.110610 0.135025
vt 0.110715 0.144877
vt 0.074532 0.145959
vt 0.074901 0.131969
vt 0.040868 0.133278
vt 0.040868 0.144440
vt 0.004796 0.129349
vt 0.004796 0.141384
vt 0.435016 0.172466
vt 0.366117 0.179660
vt 0.366416 0.160938
vt 0.434134 0.157941
vt 0.519886 0.169469
vt 0.520785 0.157941
vt 0.585886 0.177861
vt 0.585886 0.159739
vt 0.609744 0.179660
vt 0.609744 0.157341
vt 0.896235 0.573094
vt 0.860706 0.576420
vt 0.909997 0.538803
vt 0.832745 0.556379
vt 0.838223 0.510156
vt 0.890094 0.503650
vt 0.396750 0.659324
vt 0.397116 0.681058
vt 0.368115 0.684339
vt 0.383894 0.662498
vt 0.397116 0.681058
vt 0.397436 0.703277
vt 0.371576 0.705072
vt 0.397508 0.720362
vt 0.369266 0.722862
vt 0.400189 0.742521
vt 0.366636 0.745347
vt 0.365638 0.767094
vt 0.397572 0.766462
vt 0.896235 0.573094
vt 0.860706 0.576420
vt 0.909997 0.538803
vt 0.832745 0.556379
vt 0.838223 0.510156
vt 0.890094 0.503650
vt 0.403889 0.150207
vt 0.416580 0.118467
vt 0.472554 0.094351
vt 0.473002 0.150207
vt 0.550333 0.150207
vt 0.550582 0.081186
vt 0.610072 0.110395
vt 0.613573 0.150207
vt 0.333408 0.041189
vt 0.387658 0.080148
vt 0.397984 0.122760
vt 0.333481 0.122760
vt 0.268750 0.122760
vt 0.286392 0.031428
vt 0.252766 0.042255
vt 0.223354 0.068735
vt 0.204322 0.122760
vt 0.915638 0.781498
vt 0.915962 0.995752
vt 0.890293 0.995752
vt 0.899600 0.781499
vt 0.915962 0.756504
vt 0.890244 0.821137
vt 0.841050 0.821123
vt 0.841042 0.781487
vt 0.060421 0.345231
vt 0.081572 0.385470
vt 0.062559 0.408900
vt 0.048257 0.409613
vt 0.051747 0.367050
vt 0.028966 0.392908
vt 0.057028 0.366306
vt 0.046716 0.347261
vt 0.843117 0.579974
vt 0.784219 0.725458
vt 0.784219 0.495318
vt 0.919476 0.495318
vt 0.919476 0.725458
vt 0.261451 0.425251
vt 0.246464 0.367976
vt 0.275831 0.336110
vt 0.224702 0.320989
vt 0.259716 0.249179
vt 0.213810 0.383243
vt 0.222309 0.480953
vt 0.226093 0.258562
vt 0.219083 0.196101
vt 0.195589 0.284603
vt 0.170083 0.197764
vt 0.197046 0.438384
vt 0.172650 0.482763
vt 0.164306 0.260562
vt 0.130530 0.253816
vt 0.179293 0.384819
vt 0.132383 0.429919
vt 0.168024 0.323460
vt 0.116234 0.341901
vt 0.146283 0.371611
vn -0.150922 -0.801019 -0.579303
vn -0.430426 0.736043 -0.522469
vn 0.096167 -0.2845750000000001 -0.953818
vn 0.316189 0.16528499999999993 -0.934187
vn 0.316189 0.16528499999999993 -0.934187
vn 0.316189 0.16528499999999993 -0.934187
vn 0.122605 0.052330000000000064 0.991075
vn 0.122605 0.052330000000000064 0.991075
vn 0.122605 0.052330000000000064 0.991075
vn 1 0 0
vn -0.392766 -0.919475 0.017339000000000056
vn 0.122174 -0.992257 0.02235000000000006
vn -0.122075 -0.992519 0.0019200000000000608
vn -0.122075 -0.992519 0.0019200000000000608
vn -0.122075 -0.992519 0.0019200000000000608
vn 0.002693 -0.00040999999999993873 0.999996
vn 0.002693 -0.00040999999999993873 0.999996
vn 0.002693 -0.00040999999999993873 0.999996
vn -0.001861 0.00032800000000006126 0.999998
vn -0.001861 0.00032800000000006126 0.999998
vn -0.001861 0.00032800000000006126 0.999998
vn 0.129346 0.991103 0.03138099999999994
vn 1 0 0
vn 0.13585 0.990008 0.03779199999999994
vn -0.000237 0.00017400000000006123 1
vn -0.000237 0.00017400000000006123 1
vn -0.000237 0.00017400000000006123 1
vn 0.176317 0.983232 0.046553999999999936
vn 0.176317 0.983232 0.046553999999999936
vn 0.176317 0.983232 0.046553999999999936
vn 0.175688 0.983003 0.05328699999999994
vn 0.175688 0.983003 0.05328699999999994
vn 0.175688 0.983003 0.05328699999999994
vn 0.173498 0.983771 0.04575199999999994
vn 0.173498 0.983771 0.04575199999999994
vn 0.173498 0.983771 0.04575199999999994
vn 0.984449 -0.175166 -0.013318999999999989
vn 0.984449 -0.175166 -0.013318999999999989
vn 0.984449 -0.175166 -0.013318999999999989
vn -0.985315 0.170745 -0.0010170000000000103
vn -0.985315 0.170745 -0.0010170000000000103
vn -0.985315 0.170745 -0.0010170000000000103
vn -0.985514 0.169592 0.0011709999999999895
vn -0.985514 0.169592 0.0011709999999999895
vn -0.985514 0.169592 0.0011709999999999895
vn -0.985509 0.169621 -0.0007740000000000104
vn -0.985509 0.169621 -0.0007740000000000104
vn -0.985509 0.169621 -0.0007740000000000104
vn -0.985621 0.16897 0.00023599999999998964
vn -0.985621 0.16897 0.00023599999999998964
vn -0.985621 0.16897 0.00023599999999998964
vn 0.984345 -0.174895 -0.02183899999999999
vn 0.984345 -0.174895 -0.02183899999999999
vn 0.984345 -0.174895 -0.02183899999999999
vn 0.984465 -0.174402 -0.02031999999999999
vn 0.984465 -0.174402 -0.02031999999999999
vn 0.984465 -0.174402 -0.02031999999999999
vn 0.984833 -0.172538 -0.018280999999999988
vn 0.984833 -0.172538 -0.018280999999999988
vn 0.984833 -0.172538 -0.018280999999999988
vn 0.977703 -0.160301 -0.135647
vn -0.864634 0.15278899999999998 -0.478607
vn 0.981165 -0.16188 -0.10539999999999998
vn 0.177969 0.983977 0.01078799999999994
vn 0.177969 0.983977 0.01078799999999994
vn 0.177969 0.983977 0.01078799999999994
vn 0.168416 0.985693 0.0066999999999999395
vn 0.168416 0.985693 0.0066999999999999395
vn 0.168416 0.985693 0.0066999999999999395
vn -0.156388 -0.987602 0.01360200000000006
vn -0.156388 -0.987602 0.01360200000000006
vn -0.156388 -0.987602 0.01360200000000006
vn -0.094738 -0.994734 0.039107000000000065
vn -0.094738 -0.994734 0.039107000000000065
vn -0.094738 -0.994734 0.039107000000000065
vn 0.176044 0.98328 0.04656599999999994
vn 0.176044 0.98328 0.04656599999999994
vn 0.176044 0.98328 0.04656599999999994
vn 0.003397 -0.0005429999999999387 0.999994
vn 0.003397 -0.0005429999999999387 0.999994
vn 0.003397 -0.0005429999999999387 0.999994
vn -0.001769 0.00012500000000006123 0.999998
vn -0.001769 0.00012500000000006123 0.999998
vn -0.001769 0.00012500000000006123 0.999998
vn -0.131799 -0.990233 -0.04546799999999994
vn -0.131799 -0.990233 -0.04546799999999994
vn -0.131799 -0.990233 -0.04546799999999994
vn 1 0 0
vn 1 0 0
vn 1 0 0
vn -0.158186 -0.987401 -0.0040269999999999395
vn -0.158186 -0.987401 -0.0040269999999999395
vn -0.158186 -0.987401 -0.0040269999999999395
vn -0.152796 -0.988177 0.01261500000000006
vn -0.152796 -0.988177 0.01261500000000006
vn -0.152796 -0.988177 0.01261500000000006
vn 0.00411 -0.0006499999999999387 0.999991
vn 0.00411 -0.0006499999999999387 0.999991
vn 0.00411 -0.0006499999999999387 0.999991
vn -0.000273 -9.899999999993876E-05 1
vn -0.000273 -9.899999999993876E-05 1
vn -0.000273 -9.899999999993876E-05 1
vn 0.000829 -0.00015399999999993877 1
vn 0.000829 -0.00015399999999993877 1
vn 0.000829 -0.00015399999999993877 1
vn 0.01857 -0.0024359999999999386 0.999825
vn 0.01857 -0.0024359999999999386 0.999825
vn 0.01857 -0.0024359999999999386 0.999825
vn -0.000254 -0.003286999999999939 0.999995
vn -0.000254 -0.003286999999999939 0.999995
vn -0.000254 -0.003286999999999939 0.999995
vn -0.000154 -0.002287999999999939 0.999997
vn -0.000154 -0.002287999999999939 0.999997
vn -0.000154 -0.002287999999999939 0.999997
vn 0.982852 -0.168659 -0.07454399999999999
vn 0.98309 -0.169412 -0.06952699999999999
vn 1 0 0
vn 1 0 0
vn 1 0 0
vn 1 0 0
vn 0.100541 0.992875 0.06396699999999994
vn 0.100541 0.992875 0.06396699999999994
vn 0.100541 0.992875 0.06396699999999994
vn 0.682771 -0.647166 0.33911600000000003
vn 0.532854 -0.502421 0.680911
vn 0.181131 -0.628289 0.756601
vn 0.17241 -0.2959609999999999 0.939512
vn -0.05483 -0.022635999999999937 0.998239
vn -0.404285 -0.59742 0.692562
vn -0.164674 0.73356 0.659372
vn -0.025638 0.014118000000000061 0.999572
vn 0.263053 0.22573100000000004 0.938003
vn -0.752556 -0.16146399999999997 0.638427
vn -0.024013 -0.027883999999999937 0.999323
vn -0.246733 0.29862500000000003 0.921925
vn -0.246733 0.29862500000000003 0.921925
vn -0.024013 -0.027883999999999937 0.999323
vn 0.402984 0.597242 0.693474
vn 0.176032 0.98321 0.04807599999999994
vn 0.176032 0.98321 0.04807599999999994
vn 0.176032 0.98321 0.04807599999999994
vn -0.303439 -0.21095199999999995 0.929206
vn 0.02339 -0.004386999999999939 0.999717
vn -0.654744 0.34292200000000006 0.673583
vn -0.980778 0.171624 0.09284499999999998
vn -0.980778 0.171624 0.09284499999999998
vn -0.980778 0.171624 0.09284499999999998
vn -0.979653 0.178858 0.09105199999999998
vn -0.979653 0.178858 0.09105199999999998
vn -0.979653 0.178858 0.09105199999999998
vn 1 0 0
vn 1 0 0
vn 1 0 0
vn -0.134454 -0.990747 -0.01851999999999994
vn -0.134454 -0.990747 -0.01851999999999994
vn -0.134454 -0.990747 -0.01851999999999994
vn -0.141765 -0.989226 -0.03653899999999994
vn -0.141765 -0.989226 -0.03653899999999994
vn -0.141765 -0.989226 -0.03653899999999994
vn -0.156437 -0.987641 0.00959700000000006
vn -0.156437 -0.987641 0.00959700000000006
vn -0.156437 -0.987641 0.00959700000000006
vn 0.122174 -0.992257 0.02235000000000006
vn -0.392766 -0.919475 0.017339000000000056
vn -0.374722 -0.927097 0.008671000000000057
vn 0.102473 -0.994736 6.091001291983208E-17
vn 0.122174 -0.992257 0.02235000000000006
vn 0.819899 -0.567003 0.07919900000000005
vn 0.971621 -0.193164 0.13653
vn 0.937655 0.311681 0.15381499999999998
vn 0.860727 0.488148 0.14443399999999998
vn 0.181967 0.951249 0.24902399999999994
vn 0.181967 0.951249 0.24902399999999994
vn 0.292098 0.912781 0.2854999999999999
vn -0.496148 0.829937 0.2550339999999999
vn 0.181967 0.951249 0.24902399999999994
vn -0.684113 0.715997 0.13906199999999994
vn -0.392766 -0.919475 0.017339000000000056
vn 1 0 0
vn -0.000449 0.00022600000000006122 1
vn -0.00049 -7.199999999993877E-05 1
vn -0.000449 0.00022600000000006122 1
vn -0.00049 -7.199999999993877E-05 1
vn -0.00049 -7.199999999993877E-05 1
vn -0.000141 -0.0010499999999999388 0.999999
vn -0.000254 -0.0002799999999999387 1
vn -0.000141 -0.0010499999999999388 0.999999
vn -0.000143 -0.001578999999999939 0.999999
vn -0.000141 -0.0010499999999999388 0.999999
vn 0.000128 -0.00039999999999993876 1
vn 0.000542 -0.00025699999999993876 1
vn 0.000574 7.000000000006122E-05 1
vn 0.000574 7.000000000006122E-05 1
vn 0.000574 7.000000000006122E-05 1
vn 0.000207 0.0011490000000000612 0.999999
vn 0.000207 0.0011500000000000611 0.999999
vn 0.000207 0.0011500000000000611 0.999999
vn 0.000207 0.0011500000000000611 0.999999
vn -0.72783 0.684369 0.043610999999999955
vn -0.918048 -0.376462 0.12435300000000003
vn -0.295426 0.955149 -0.02035300000000006
vn -0.2836 0.958687 -0.02212900000000006
vn -0.72783 0.684369 0.043610999999999955
vn -0.721075 0.688069 0.08131699999999996
vn -0.911759 -0.396493 0.10718800000000003
vn -0.286712 0.957548 0.02995999999999994
vn -0.283587 0.958492 0.02952999999999994
vn -0.721075 0.688069 0.08131699999999996
vn -0.72102 0.692884 -0.006492000000000043
vn -0.909644 -0.390473 0.14170000000000002
vn -0.286351 0.954513 -0.08311400000000005
vn -0.282699 0.95555 -0.08370100000000005
vn -0.72102 0.692884 -0.006492000000000043
vn 0.98309 -0.169412 -0.06952699999999999
vn 0.982852 -0.168659 -0.07454399999999999
vn 0.982776 -0.169529 -0.07356099999999999
vn 0.98309 -0.169412 -0.06952699999999999
vn 0.980948 -0.180137 -0.07274199999999999
vn 0.97602 -0.200756 -0.08415599999999998
vn 0.980037 -0.185 -0.07281999999999998
vn 0.98309 -0.169412 -0.06952699999999999
vn 0.705577 0.20716800000000002 0.677674
vn 0.003439 0.02030000000000006 0.999788
vn 0.232945 -0.34118799999999994 0.910674
vn 0.232945 -0.34118799999999994 0.910674
vn 0.751491 -0.15268299999999999 0.641833
vn 0.185786 -0.689144 0.700403
vn 0.000467 0.015258000000000061 0.999883
vn -0.307974 -0.20764899999999994 0.928458
vn -0.307974 -0.20764899999999994 0.928458
vn -0.124644 -0.727963 0.674191
vn 0.150757 0.988558 -0.0049580000000000604
vn 0.150757 0.988558 -0.0049580000000000604
vn 0.150757 0.988558 -0.0049580000000000604
vn 0.148264 0.988937 -0.004574000000000061
vn 0.161948 0.986795 0.0030649999999999397
vn 0.14577 0.989305 -0.0051610000000000605
vn 0.177195 0.984106 0.01172399999999994
vn 0.165013 0.986092 0.01982799999999994
vn 0.144258 0.98894 0.034445999999999935
vn 0.13585 0.990008 0.03779199999999994
vn 0.129494 0.990754 0.040460999999999935
vn 0.124694 0.991125 0.04607099999999994
vn 0.129346 0.991103 0.03138099999999994
vn -0.246733 0.29862500000000003 0.921925
vn -0.755571 0.12729600000000002 0.64258
vn -0.752556 -0.16146399999999997 0.638427
vn 0.402984 0.597242 0.693474
vn 0.105816 0.72851 0.676814
vn 0.367068 0.930193 -0.001320000000000057
vn 0.367213 0.930136 -0.001330000000000057
vn -0.063398 0.997846 0.01682699999999994
vn -0.063398 0.997846 0.01682699999999994
vn -0.597903 0.80079 0.035317999999999954
vn 0.560032 -0.716432 0.4160400000000001
vn 0.193654 -0.891632 0.40925600000000006
vn 0.880759 -0.342302 0.327251
vn 0.932745 -0.24066699999999996 0.268452
vn 0.775252 0.624477 0.09493499999999996
vn 0.560032 -0.716432 0.4160400000000001
vn 0.775252 0.624477 0.09493499999999996
vn 0.674598 0.732559 0.09096999999999995
vn 0.193654 -0.891632 0.40925600000000006
vn -0.702031 -0.67331 0.23196200000000003
vn -0.643576 -0.738213 0.20211700000000005
vn -0.87271 -0.485781 0.04892500000000003
vn -0.999392 -0.001957999999999998 0.034808
vn -0.901215 0.422328 -0.09721400000000002
vn -0.174851 0.968157 -0.17916500000000005
vn -0.215285 0.94618 -0.24165200000000006
vn 0.775252 0.624477 0.09493499999999996
vn 0.055395 0.974232 -0.21864100000000006
vn -0.999392 -0.001957999999999998 0.034808
vn -0.901215 0.422328 -0.09721400000000002
vn -0.215285 0.94618 -0.24165200000000006
vn -0.155742 0.942719 0.29499999999999993
vn -0.613347 0.40752600000000005 0.676555
vn -0.58101 0.577885 0.573128
vn -0.650849 -0.27439499999999994 0.707886
vn -0.58101 0.577885 0.573128
vn -0.549898 -0.41407999999999995 0.725362
vn -0.339043 -0.814659 0.47051200000000004
vn 0.550908 -0.821999 0.14428600000000005
vn 0.464283 -0.777022 0.42506200000000005
vn -0.631275 -0.744742 0.21645300000000006
vn -0.053618 -0.11682299999999994 0.991704
vn -0.896434 -0.369602 0.24454200000000004
vn 0.464283 -0.777022 0.42506200000000005
vn 0.908791 0.21640000000000004 0.35675
vn 0.63885 0.676376 0.36658699999999994
vn -0.053618 -0.11682299999999994 0.991704
vn 0.464283 -0.777022 0.42506200000000005
vn 0.550908 -0.821999 0.14428600000000005
vn -0.053618 -0.11682299999999994 0.991704
vn -0.589539 0.740116 0.32352899999999996
vn -0.389447 0.517844 0.761688
vn 0.461729 0.849238 0.25612699999999994
vn 0.514347 0.579428 0.632226
vn 0.764136 0.629368 0.14139099999999996
vn -0.389447 0.517844 0.761688
vn -0.389447 0.517844 0.761688
vn -0.61083 -0.37326399999999993 0.698255
vn -0.886518 -0.282409 0.366511
vn -0.7172 -0.655583 0.23629500000000003
vn -0.589539 0.740116 0.32352899999999996
vn -0.404285 -0.59742 0.692562
vn -0.104995 -0.718864 0.687176
vn 0.17241 -0.2959609999999999 0.939512
vn 0.682551 -0.11607399999999995 0.721561
vn 0.656791 0.13814700000000005 0.74131
vn -0.05483 -0.022635999999999937 0.998239
vn 0.263053 0.22573100000000004 0.938003
vn 0.11228 0.746175 0.656214
vn -0.164674 0.73356 0.659372
vn -0.025638 0.014118000000000061 0.999572
vn 0.555746 -0.40394399999999997 0.726619
vn 0.664961 -0.12485899999999996 0.736368
vn 0.216373 -0.671558 0.708656
vn 0.02339 -0.004386999999999939 0.999717
vn -0.303439 -0.21095199999999995 0.929206
vn -0.12913 -0.707746 0.694565
vn 0.216373 -0.671558 0.708656
vn -0.654744 0.34292200000000006 0.673583
vn -0.761927 0.11520000000000004 0.637336
vn 0.163669 0.971328 0.17243499999999995
vn 0.146246 0.973536 0.17561199999999993
vn 0.163669 0.971328 0.17243499999999995
vn 0.181041 0.968811 0.16920299999999994
vn -0.985111 0.171682 0.00903899999999999
vn -0.985533 0.169157 0.01049599999999999
vn -0.985111 0.171682 0.00903899999999999
vn -0.98468 0.174204 0.00758199999999999
vn -0.606164 -0.787385 0.11220600000000004
vn -0.621175 -0.775503 0.11285800000000004
vn -0.918048 -0.376462 0.12435300000000003
vn -0.72783 0.684369 0.043610999999999955
vn -0.595378 -0.800228 0.07183600000000005
vn -0.597536 -0.7986 0.07202700000000005
vn -0.911759 -0.396493 0.10718800000000003
vn -0.721075 0.688069 0.08131699999999996
vn -0.589999 -0.792238 0.15575800000000006
vn -0.592493 -0.790379 0.15573200000000006
vn -0.909644 -0.390473 0.14170000000000002
vn -0.72102 0.692884 -0.006492000000000043
vn 0.981958 -0.126833 -0.140258
vn 0.982118 -0.12555 -0.140289
vn 0.981958 -0.126833 -0.140258
vn 0.981796 -0.128117 -0.140227
vn 0.982784 -0.127634 -0.133589
vn 0.983104 -0.12528 -0.133456
vn 0.982784 -0.127634 -0.133589
vn 0.982457 -0.129986 -0.133721
vn -0.173652 -0.984807 4.000000000060302E-06
vn -0.173652 -0.984807 1.000000000060302E-06
vn -0.173652 -0.984807 4.000000000060302E-06
vn -0.173652 -0.984807 4.000000000060302E-06
vn -0.173673 -0.984803 -1.2999999999939697E-05
vn -0.17367 -0.984804 4.000000000060302E-06
vn -0.173673 -0.984803 -1.2999999999939697E-05
vn -0.173673 -0.984803 -1.2999999999939697E-05
vn 0.1739 0.984444 -0.02507300000000006
vn 0.173598 0.98452 -0.02416600000000006
vn 0.1739 0.984444 -0.02507300000000006
vn 0.1739 0.984444 -0.02507300000000006
vn 0 6.123233995736766E-17 1
vn 0 6.123233995736766E-17 1
vn 0 6.123233995736766E-17 1
vn 0 1.0000000000612324E-06 1
vn 0.984428 -0.159599 0.07368500000000001
vn 0.983305 -0.164449 0.07790000000000001
vn 0.984428 -0.159599 0.07368500000000001
vn 0.98551 -0.154742 0.06946600000000001
vn 0.000303 0.0007920000000000612 1
vn 0.0003 0.0007120000000000612 1
vn 0.000303 0.0007920000000000612 1
vn 0.000303 0.0007920000000000612 1
vn -0.000141 0.0006990000000000612 1
vn -0.000126 0.0011260000000000612 0.999999
vn -0.000141 0.0006990000000000612 1
vn -0.000141 0.0006990000000000612 1
vn -5.1E-05 -0.0026229999999999387 0.999997
vn -7.4E-05 -0.0028249999999999387 0.999996
vn -5.1E-05 -0.0026229999999999387 0.999997
vn -5.1E-05 -0.0026229999999999387 0.999997
vn 0.001598 -1.8999999999938767E-05 0.999999
vn 0.001547 -1.3999999999938768E-05 0.999999
vn 0.001598 -1.8999999999938767E-05 0.999999
vn 0.001598 -1.8999999999938767E-05 0.999999
vn -0.92106 0.15837099999999998 -0.355763
vn -0.919034 0.15743799999999997 -0.361373
vn -0.92106 0.15837099999999998 -0.355763
vn -0.923052 0.15929699999999997 -0.350141
vn 0.920135 -0.15817599999999998 0.358234
vn 0.917973 -0.15737299999999999 0.364088
vn 0.920135 -0.15817599999999998 0.358234
vn 0.922261 -0.15897399999999998 0.352365
vn 0.116916 0.573786 0.810617
vn 0.139657 0.565709 0.812692
vn 0.116916 0.573786 0.810617
vn 0.094107 0.581526 0.808066
vn 0.100411 0.575047 0.811935
vn 0.104053 0.575152 0.811402
vn 0.100411 0.575047 0.811935
vn 0.096768 0.574935 0.812457
vn 0.232945 -0.34118799999999994 0.910674
vn 0.003439 0.02030000000000006 0.999788
vn -0.352815 -0.685421 0.636962
vn -0.118276 -0.80701 0.578573
vn -0.307974 -0.20764899999999994 0.928458
vn 0.000467 0.015258000000000061 0.999883
vn -0.636807 0.37617700000000004 0.673029
vn -0.746884 0.12095100000000004 0.653862
vn 0.371626 -0.057942999999999946 0.926573
vn 0.370355 -0.058481999999999944 0.927048
vn 0.371626 -0.057942999999999946 0.926573
vn 0.372896 -0.05740399999999994 0.926096
vn -0.25208 -0.963122 0.09408200000000005
vn -0.258573 -0.961277 0.09531900000000006
vn -0.25208 -0.963122 0.09408200000000005
vn -0.245575 -0.964922 0.09284000000000006
vn -0.958431 0.256708 0.12453999999999998
vn -0.958081 0.258028 0.12451199999999998
vn -0.958431 0.256708 0.12453999999999998
vn -0.958781 0.255388 0.12456699999999998
vn 0.964359 -0.257942 0.05896600000000001
vn 0.964459 -0.257584 0.05890400000000001
vn 0.964359 -0.257942 0.05896600000000001
vn 0.96426 -0.258299 0.05902800000000001
vn -0.251055 -0.961715 0.10989400000000006
vn -0.244155 -0.963502 0.10978100000000006
vn -0.251055 -0.961715 0.10989400000000006
vn -0.257942 -0.959878 0.11000000000000006
vn 0.259887 0.961755 0.08652699999999995
vn 0.257815 0.962335 0.08626699999999994
vn 0.259887 0.961755 0.08652699999999995
vn 0.261958 0.961169 0.08678699999999995
vn 0.965233 -0.253679 0.06302200000000001
vn 0.966351 -0.249373 0.06307700000000001
vn 0.965233 -0.253679 0.06302200000000001
vn 0.964096 -0.257979 0.06296700000000001
vn -0.959445 0.254222 0.12180599999999998
vn -0.958903 0.256126 0.12208799999999999
vn -0.959445 0.254222 0.12180599999999998
vn -0.959984 0.252316 0.12152399999999998
vn 0.258766 0.962362 0.08306399999999994
vn 0.259448 0.962181 0.08302899999999995
vn 0.258766 0.962362 0.08306399999999994
vn 0.258084 0.962542 0.08309799999999995
vn 0.981246 -0.184887 0.054528000000000014
vn 0.981309 -0.184521 0.05462800000000002
vn 0.981246 -0.184887 0.054528000000000014
vn 0.981246 -0.184887 0.054528000000000014
vn -0.982882 0.168173 0.07523699999999998
vn -0.982649 0.167212 0.08025199999999999
vn -0.982882 0.168173 0.07523699999999998
vn -0.983089 0.16913 0.07021999999999999
vn -0.178872 -0.983802 0.01176300000000006
vn -0.179545 -0.983708 0.00904200000000006
vn -0.178872 -0.983802 0.01176300000000006
vn -0.178197 -0.983888 0.014484000000000061
vn 0.154627 0.987966 0.0037399999999999396
vn 0.150376 0.988561 0.011573999999999939
vn 0.154627 0.987966 0.0037399999999999396
vn 0.158866 0.987292 -0.00409500000000006
vn -0.310122 0.053155000000000056 0.94921
vn -0.310478 0.05293500000000006 0.949105
vn -0.310122 0.053155000000000056 0.94921
vn -0.309766 0.053375000000000054 0.949314
vn -0.597903 0.80079 0.035317999999999954
vn -0.063398 0.997846 0.01682699999999994
vn -0.881669 0.470005 0.04189799999999997
vn -0.881196 0.470894 0.041873999999999974
vn -0.898218 0.438734 -0.02679300000000003
vn -0.888411 0.458235 -0.027308000000000027
vn -0.898218 0.438734 -0.02679300000000003
vn -0.907596 0.419023 -0.026265000000000024
vn 0.898272 -0.438528 0.02829900000000003
vn 0.888545 -0.457932 0.028030000000000027
vn 0.898272 -0.438528 0.02829900000000003
vn 0.907576 -0.418917 0.028556000000000026
vn 0.680815 -0.726384 0.09411400000000004
vn 0.658306 -0.746761 0.09476900000000005
vn 0.680815 -0.726384 0.09411400000000004
vn 0.702695 -0.705338 0.09337200000000004
vn -0.680113 0.727127 -0.09344300000000004
vn -0.657873 0.747114 -0.09498900000000005
vn -0.680113 0.727127 -0.09344300000000004
vn -0.701743 0.706489 -0.09181400000000005
vn 0.989697 -0.004971999999999991 0.143094
vn 0.989905 -0.008731999999999992 0.141463
vn 0.989697 -0.004971999999999991 0.143094
vn 0.989472 -0.0012129999999999912 0.144722
vn -0.174861 -0.984574 0.006086000000000061
vn -0.177356 -0.984133 0.00518900000000006
vn -0.174861 -0.984574 0.006086000000000061
vn -0.172365 -0.985008 0.00698300000000006
vn 0.165068 0.986282 -0.0003840000000000604
vn 0.158075 0.987424 0.00242499999999994
vn 0.165068 0.986282 -0.0003840000000000604
vn 0.172051 0.985083 -0.0031930000000000604
vn 0.957463 -0.242431 -0.15650099999999997
vn 0.961186 -0.2393 -0.13731899999999997
vn 0.957463 -0.242431 -0.15650099999999997
vn 0.953364 -0.245468 -0.17562099999999997
vn 0.249703 0.960091 -0.12599400000000005
vn 0.244628 0.964588 -0.09862600000000006
vn 0.249703 0.960091 -0.12599400000000005
vn 0.254579 0.95483 -0.15326200000000006
vn -0.964281 0.260652 0.04713599999999998
vn -0.962633 0.270794 -0.0029210000000000165
vn -0.964281 0.260652 0.04713599999999998
vn -0.963412 0.249829 0.09706899999999999
vn -0.259838 -0.955268 -0.14123499999999994
vn -0.259723 -0.955392 -0.14060899999999996
vn -0.259838 -0.955268 -0.14123499999999994
vn -0.259952 -0.955144 -0.14185999999999996
vn -0.257593 -0.961471 0.09601900000000005
vn -0.256317 -0.96165 0.09762400000000006
vn -0.257593 -0.961471 0.09601900000000005
vn -0.258868 -0.961287 0.09441300000000005
vn -0.958971 0.251382 0.13107599999999997
vn -0.959291 0.247007 0.13692799999999997
vn -0.958971 0.251382 0.13107599999999997
vn -0.958601 0.255743 0.12521699999999997
vn 0.963743 -0.25384 0.08225100000000002
vn 0.964246 -0.250279 0.08711700000000001
vn 0.963743 -0.25384 0.08225100000000002
vn 0.963204 -0.257392 0.07738100000000002
vn 0.259753 0.961621 0.08839899999999995
vn 0.261605 0.961339 0.08596399999999994
vn 0.259753 0.961621 0.08839899999999995
vn 0.257898 0.961893 0.09083399999999994
vn 0 1.0000000000612324E-06 1
vn 0 1.0000000000612324E-06 1
vn 0 1.0000000000612324E-06 1
vn 0 2.0000000000612323E-06 1
vn 0.533005 -0.06707199999999995 0.843449
vn 0.442083 -0.030755999999999943 0.896447
vn 0.30844 -0.02277899999999994 0.950971
vn 0.187111 0.00022600000000006014 0.982339
vn 0.023468 -0.0054959999999999384 0.999709
vn 0.000134 0.0006660000000000613 1
vn -0.000105 0.00039400000000006124 1
vn -7.1E-05 0.00025600000000006125 1
vn -4.8E-05 2.2000000000061233E-05 1
vn 0.000116 0.00016400000000006123 1
vn 2.8E-05 0.00020800000000006122 1
vn 0.000137 0.0006920000000000613 1
vn -3E-06 0.0006350000000000613 1
vn -3E-06 0.0006350000000000613 1
vn -8.2E-05 0.00018400000000006123 1
vn -3E-06 0.0006350000000000613 1
vn -1E-06 0.0007240000000000613 1
vn -0.987247 0.158144 -0.01828200000000001
vn -0.986134 0.165523 -0.01191400000000001
vn -0.987594 0.155874 -0.01903200000000001
vn -0.989038 0.146427 -0.01905100000000001
vn -0.989406 0.144262 -0.01625200000000001
vn -0.990474 0.137182 -0.01197100000000001
vn 0.148129 0.983109 0.10748899999999995
vn 0.155486 0.981338 0.11313499999999994
vn 0.143606 0.985459 0.09081599999999994
vn 0.13808 0.987868 0.07106299999999995
vn 0.136691 0.989049 0.05565199999999994
vn 0.13895 0.988831 0.053915999999999936
vn -0.986787 0.161355 -0.01467400000000001
vn -0.986761 0.161499 -0.014840000000000011
vn -0.986538 0.162202 -0.02080700000000001
vn -0.986233 0.163204 -0.02662400000000001
vn -0.985931 0.163976 -0.03243100000000001
vn -0.985877 0.164363 -0.03212500000000001
vn 0.985839 -0.139338 0.09330500000000001
vn 0.984526 -0.156365 0.07911300000000002
vn 0.983936 -0.161902 0.07521300000000002
vn 0.979034 -0.188566 0.07703600000000001
vn 0.977043 -0.196167 0.08310400000000001
vn 0.970666 -0.219223 0.09873600000000002
vn 0.987807 -0.148864 0.04558000000000001
vn 0.986161 -0.148599 0.07351600000000001
vn 0.98538 -0.148852 0.08288400000000001
vn 0.983107 -0.156151 0.09548400000000001
vn 0.974607 -0.204875 0.09037800000000001
vn 0.988083 -0.147629 0.04355200000000001
vn 0.98525 -0.14724 0.08719100000000002
vn 0.966858 -0.240547 0.08557200000000001
vn 0.974673 -0.211923 0.07142400000000002
vn 0.977703 -0.160301 -0.135647
vn 0.984075 -0.162657 0.07168900000000002
vn 0.977703 -0.160301 -0.135647
vn 0.977703 -0.160301 -0.135647
vn 0.981165 -0.16188 -0.10539999999999998
vn 0.982966 -0.16142 0.08787500000000001
vn 0.983057 -0.161276 0.08711300000000001
vn 0.983257 -0.16131 0.08476300000000002
vn -0.175126 -0.984546 0.00012000000000006028
vn -0.176354 -0.984327 -0.0008189999999999397
vn -0.174676 -0.984626 0.00016800000000006027
vn -0.173778 -0.984785 0.0005000000000000603
vn -0.173718 -0.984796 0.00022100000000006031
vn -0.17366 -0.984806 0.0001780000000000603
vn 0.060301 -0.996882 0.05089700000000006
vn 0.064991 -0.994447 0.08277000000000005
vn 0.073743 -0.995537 0.05889900000000006
vn 0.045821 -0.998012 0.04327400000000006
vn 0.005799 -0.998733 0.04998200000000006
vn -0.031025 -0.99595 0.08438900000000006
vn -0.057314 -0.993679 0.09653000000000006
vn -0.076936 -0.987472 0.13776800000000006
vn 0.996154 0.031195999999999998 -0.081884
vn 0.993994 0.079112 -0.075611
vn 0.993547 0.080783 -0.079616
vn 0.996241 -0.018490000000000003 -0.084633
vn 0.99463 0.011915999999999993 -0.102809
vn 0.994708 -0.023046000000000007 -0.100125
vn 0.992861 0.06459 -0.100271
vn 0.989736 0.08688199999999999 -0.113465
vn 0.987428 0.06813899999999999 -0.142631
vn 0.290257 -0.742841 0.603273
vn 0.507217 -0.665814 0.547196
vn 0.899479 -0.290709 0.326231
vn -0.426053 -0.71216 0.557949
vn -0.613211 -0.605442 0.507358
vn -0.936898 -0.25216 0.24215300000000003
vn 0.173802 0.98368 0.04654399999999994
vn 0.173803 0.983685 0.04643999999999994
vn 0.173803 0.983685 0.04643999999999994
vn 0.173803 0.983685 0.04643999999999994
vn 0.174163 0.983637 0.046108999999999935
vn 0.173767 0.983691 0.046448999999999935
vn 0.174163 0.983637 0.046108999999999935
vn 0.173768 0.983691 0.04645099999999994
vn 0.173767 0.983691 0.046448999999999935
vn 0.173767 0.983691 0.046448999999999935
vn -0.979917 0.185281 -0.07371000000000001
vn -0.982761 0.181585 0.034745999999999985
vn -0.982569 0.185766 0.007006999999999989
vn -0.979961 0.174194 0.09660599999999998
vn -0.983929 0.172183 0.04729899999999999
vn -0.985363 0.170382 0.005460999999999989
vn -0.982539 0.169975 -0.07567600000000001
vn -0.978921 0.170023 0.11316399999999999
vn -0.979637 0.168471 0.10922199999999999
vn -0.982342 0.170486 0.07706799999999998
vn -0.981377 0.16941 0.09054999999999999
vn -0.98267 0.171069 0.07138199999999999
vn -0.983182 0.168603 0.07018199999999998
vn -0.16819 -0.973267 -0.15640899999999994
vn -0.158723 -0.986811 -0.03179899999999994
vn -0.169892 -0.983289 -0.06541599999999995
vn -0.147407 -0.987644 0.05321000000000006
vn -0.141308 -0.989875 0.01337300000000006
vn -0.143612 -0.989622 -0.004881999999999939
vn -0.14352 -0.988912 -0.03813299999999994
vn -0.150338 -0.986467 0.06543600000000005
vn -0.157671 -0.982145 0.10262500000000005
vn -0.174229 -0.981295 0.08188500000000005
vn -0.005978 0.767738 0.640736
vn -0.001002 0.901659 0.43244799999999994
vn -0.005887 0.900458 0.43490299999999993
vn -0.007371 0.574773 0.81828
vn -0.003875 0.2789670000000001 0.960293
vn -0.002698 0.19587200000000005 0.980626
vn 0.000385 -0.028928999999999937 0.999581
vn 0.000399 -0.028930999999999936 0.999581
vn 0.00392 -0.3075919999999999 0.95151
vn 0.004209 -0.30747699999999994 0.951546
vn 0.007186 -0.592273 0.805706
vn 0.00534 -0.730709 0.682668
vn 0.005324 -0.840526 0.541746
vn 0.000676 -0.841128 0.540836
vn 0.139378 -0.0010549999999999392 0.990239
vn 0.235494 -0.0019969999999999407 0.971874
vn 0.235422 -0.0017069999999999406 0.971892
vn 0.041023 -0.0002749999999999388 0.999158
vn -0.119742 0.0007190000000000608 0.992805
vn -0.182546 0.0012800000000000604 0.983196
vn -0.476225 0.0035970000000000537 0.879316
vn -0.690494 0.003378000000000044 0.723331
vn -0.84743 0.0037650000000000326 0.530894
vn -0.846506 0.0009350000000000326 0.532379
vn 0.199711 0.12998000000000007 0.971196
vn 0.096758 0.17132800000000006 0.980451
vn -0.147182 0.20429800000000006 0.967781
vn -0.229895 0.20221500000000006 0.951975
vn -0.38139 0.22480800000000006 0.896662
vn -0.319816 0.2646470000000001 0.909769
vn -0.46439 -0.883122 0.06662100000000006
vn 0.002098 -0.964228 0.26506700000000005
vn 0.070436 -0.967401 0.24325700000000006
vn -0.150922 -0.801019 -0.579303
vn 0.002098 -0.964228 0.26506700000000005
vn 0.764939 -0.51525 0.38650500000000004
vn 0.891792 -0.17491399999999996 0.417267
vn 0.852913 0.368856 0.369437
vn 0.758414 0.570911 0.31443499999999996
vn 0.109084 0.985769 0.12790899999999994
vn 0.176634 0.970914 0.16163499999999995
vn -0.430426 0.736043 -0.522469
vn -0.546882 0.828702 -0.11904900000000006
vn 0.303504 0.02888700000000006 0.952392
vn 0.32675 -0.04839799999999994 0.943871
vn 0.231759 0.09898100000000006 0.967724
vn 0.161919 0.08104000000000006 0.983471
vn 0.128326 0.24485800000000005 0.961029
vn 0.289954 0.20175300000000004 0.935533
vn 0.058644 0.992684 -0.10554100000000005
vn 0.079563 0.985554 -0.14951300000000006
vn 0.015439 0.996734 -0.07926500000000006
vn 0.002161 0.997944 -0.06405000000000005
vn -0.050995 0.996975 -0.05865500000000006
vn -0.052894 0.99784 -0.038947000000000065
vn -0.07421 0.995157 -0.06446500000000005
vn -0.064871 0.993833 -0.08993500000000006
vn -0.995289 -0.005398999999999994 0.096806
vn -0.992279 -0.082049 0.093005
vn -0.992189 -0.080519 0.095276
vn -0.995062 -0.005440999999999994 0.099111
vn -0.993108 -0.012743999999999993 0.116507
vn -0.993413 0.022860000000000005 0.112289
vn -0.991352 -0.067601 0.112481
vn -0.987759 -0.08872799999999999 0.128293
vn -0.984692 -0.06796799999999999 0.160505
vn -0.978357 0.183302 0.09600999999999998
vn -0.982397 0.173209 0.06996899999999999
vn -0.970492 0.23246 0.06409099999999998
vn -0.972206 0.209953 0.10361099999999998
vn -0.970641 0.187291 0.150923
vn -0.963642 0.252056 0.08866999999999998
vn -0.978092 0.168694 0.12197599999999999
vn -0.978079 0.168608 0.12219999999999999
vn 0.181131 -0.628289 0.756601
vn 0.182767 -0.94661 0.2655680000000001
vn 0.682771 -0.647166 0.33911600000000003
vn 0.759217 0.563858 0.32504399999999994
vn 0.615801 0.38693500000000003 0.686346
vn 0.273728 0.924449 0.26545799999999997
vn 0.532854 -0.502421 0.680911
vn 0.259297 0.564312 0.783784
vn -0.044743 -0.08425299999999994 0.995439
vn -0.311897 0.37892000000000003 0.871286
vn -0.520141 -0.34151799999999993 0.782827
vn 0.244596 -0.53476 0.808829
vn 0.412914 0.18160100000000007 0.892481
vn -0.787538 -0.504723 0.35360600000000003
vn -0.850547 -0.10868799999999998 0.514545
vn -0.907974 0.23472500000000002 0.347113
vn -0.619251 0.30789600000000006 0.722307
vn -0.732078 0.578135 0.36030599999999996
vn -0.381086 -0.36025699999999994 0.851463
vn -0.483427 -0.804756 0.34448000000000006
vn -0.408573 0.728465 0.549915
vn -0.063965 0.905418 0.41967499999999996
vn 0.078605 0.54964 0.831696
vn 0.370628 0.820273 0.43564499999999995
vn -0.1254 -0.847056 0.516499
vn 0.24242 -0.896532 0.37076000000000003
vn 0.615002 0.54785 0.567128
vn 0.868906 0.291593 0.399969
vn 0.30637 -0.592852 0.744758
vn 0.588473 -0.704345 0.39698500000000003
vn 0.575875 0.07298200000000006 0.814274
vn 0.9164 -0.06980999999999997 0.39413
vn 0.749293 -0.37701099999999993 0.544447
g 01
f 1/1/1 2/2/2 3/3/3
f 4/4/4 5/5/5 6/6/6
f 7/7/7 8/8/8 9/9/9
f 10/10/10 11/11/11 12/12/12
f 13/13/13 14/14/14 15/15/15
f 16/16/16 17/17/17 18/18/18
f 19/19/19 20/20/20 21/21/21
f 22/22/22 23/23/23 24/24/24
f 25/25/25 26/26/26 27/27/27
f 28/28/28 29/29/29 30/30/30
f 31/31/31 32/32/32 33/33/33
f 34/34/34 35/35/35 36/36/36
f 37/37/37 38/38/38 39/39/39
f 40/40/40 41/41/41 42/42/42
f 43/43/43 44/44/44 45/45/45
f 46/46/46 47/47/47 48/48/48
f 49/49/49 50/50/50 51/51/51
f 52/52/52 53/53/53 54/54/54
f 55/55/55 56/56/56 57/57/57
f 58/58/58 59/59/59 60/60/60
f 61/61/61 62/62/62 63/63/63
f 64/64/64 65/65/65 66/66/66
f 67/67/67 68/68/68 69/69/69
f 70/70/70 71/71/71 72/72/72
f 73/73/73 74/74/74 75/75/75
f 76/76/76 77/77/77 78/78/78
f 79/79/79 80/80/80 81/81/81
f 82/82/82 83/83/83 84/84/84
f 85/85/85 86/86/86 87/87/87
f 88/88/88 89/89/89 90/90/90
f 91/91/91 92/92/92 93/93/93
f 94/94/94 95/95/95 96/96/96
f 97/97/97 98/98/98 99/99/99
f 100/100/100 101/101/101 102/102/102
f 103/103/103 104/104/104 105/105/105
f 106/106/106 107/107/107 108/108/108
f 109/109/109 110/110/110 111/111/111
f 112/112/112 113/113/113 114/114/114
f 115/115/115 116/116/116 117/117/117
f 118/118/118 119/119/119 120/120/120
f 121/121/121 122/122/122 123/123/123
f 124/124/124 125/125/125 126/126/126
f 127/127/127 128/128/128 129/129/129
f 130/130/130 131/131/131 132/132/132
f 133/133/133 134/134/134 135/135/135
f 136/136/136 137/137/137 138/138/138
f 139/139/139 140/140/140 141/141/141
f 142/142/142 143/143/143 144/144/144
f 145/145/145 146/146/146 147/147/147
f 148/148/148 149/149/149 150/150/150
f 151/151/151 152/152/152 153/153/153
f 154/154/154 155/155/155 156/156/156
f 157/157/157 158/158/158 159/159/159
f 160/160/160 161/161/161 162/162/162
f 163/163/163 164/164/164 165/165/165
f 165/165/165 166/166/166 167/167/167
f 167/167/167 166/166/166 168/168/168
f 168/168/168 169/169/169 167/167/167
f 169/169/169 168/168/168 170/170/170
f 170/170/170 171/171/171 169/169/169
f 171/171/171 170/170/170 172/172/172
f 173/173/173 174/174/174 171/171/171
f 175/175/175 174/174/174 176/176/176
f 176/176/176 177/177/177 175/175/175
f 178/178/178 179/179/179 175/175/175
f 180/180/180 181/181/181 182/182/182
f 183/183/183 184/184/184 181/181/181
f 185/185/185 186/186/186 184/184/184
f 187/187/187 188/188/188 185/185/185
f 185/185/185 189/189/189 187/187/187
f 189/189/189 190/190/190 187/187/187
f 191/191/191 192/192/192 190/190/190
f 193/193/193 194/194/194 192/192/192
f 195/195/195 196/196/196 194/194/194
f 195/195/195 197/197/197 196/196/196
f 197/197/197 198/198/198 196/196/196
f 199/199/199 200/200/200 201/201/201
f 201/201/201 202/202/202 203/203/203
f 204/204/204 205/205/205 206/206/206
f 206/206/206 207/207/207 208/208/208
f 209/209/209 210/210/210 211/211/211
f 211/211/211 212/212/212 213/213/213
f 214/214/214 215/215/215 216/216/216
f 217/217/217 216/216/216 218/218/218
f 218/218/218 219/219/219 220/220/220
f 218/218/218 220/220/220 221/221/221
f 222/222/222 223/223/223 224/224/224
f 225/225/225 226/226/226 222/222/222
f 227/227/227 228/228/228 229/229/229
f 230/230/230 231/231/231 227/227/227
f 232/232/232 233/233/233 234/234/234
f 235/235/235 233/233/233 236/236/236
f 237/237/237 235/235/235 236/236/236
f 238/238/238 237/237/237 236/236/236
f 239/239/239 238/238/238 236/236/236
f 239/239/239 236/236/236 240/240/240
f 241/241/241 239/239/239 240/240/240
f 242/242/242 241/241/241 240/240/240
f 240/240/240 243/243/243 242/242/242
f 241/241/241 242/242/242 244/244/244
f 245/245/245 246/246/246 247/247/247
f 248/248/248 249/249/249 245/245/245
f 250/250/250 251/251/251 252/252/252
f 253/253/253 254/254/254 250/250/250
f 255/255/255 256/256/256 257/257/257
f 258/258/258 257/257/257 259/259/259
f 257/257/257 258/258/258 260/260/260
f 261/261/261 262/262/262 258/258/258
f 263/263/263 260/260/260 264/264/264
f 264/264/264 265/265/265 263/263/263
f 266/266/266 265/265/265 264/264/264
f 264/264/264 267/267/267 266/266/266
f 268/268/268 267/267/267 264/264/264
f 262/262/262 269/269/269 270/270/270
f 269/269/269 262/262/262 271/271/271
f 271/271/271 272/272/272 269/269/269
f 269/269/269 273/273/273 274/274/274
f 274/274/274 275/275/275 269/269/269
f 276/276/276 277/277/277 278/278/278
f 279/279/279 280/280/280 277/277/277
f 277/277/277 281/281/281 279/279/279
f 279/279/279 281/281/281 282/282/282
f 283/283/283 284/284/284 285/285/285
f 286/286/286 287/287/287 285/285/285
f 285/285/285 288/288/288 286/286/286
f 289/289/289 290/290/290 291/291/291
f 292/292/292 293/293/293 289/289/289
f 294/294/294 292/292/292 289/289/289
f 295/295/295 296/296/296 297/297/297
f 298/298/298 299/299/299 297/297/297
f 297/297/297 300/300/300 298/298/298
f 298/298/298 301/301/301 302/302/302
f 302/302/302 301/301/301 303/303/303
f 303/303/303 304/304/304 302/302/302
f 301/301/301 305/305/305 303/303/303
f 306/306/306 307/307/307 308/308/308
f 308/308/308 309/309/309 310/310/310
f 310/310/310 311/311/311 308/308/308
f 312/312/312 313/313/313 314/314/314
f 312/312/312 315/315/315 316/316/316
f 316/316/316 317/317/317 312/312/312
f 318/318/318 319/319/319 320/320/320
f 320/320/320 321/321/321 322/322/322
f 323/323/323 324/324/324 320/320/320
f 325/325/325 326/326/326 327/327/327
f 327/327/327 328/328/328 325/325/325
f 329/329/329 330/330/330 331/331/331
f 331/331/331 332/332/332 329/329/329
f 333/333/333 334/334/334 335/335/335
f 335/335/335 336/336/336 333/333/333
f 337/337/337 338/338/338 339/339/339
f 339/339/339 340/340/340 337/337/337
f 341/341/341 342/342/342 343/343/343
f 343/343/343 344/344/344 341/341/341
f 345/345/345 346/346/346 347/347/347
f 347/347/347 348/348/348 345/345/345
f 349/349/349 350/350/350 351/351/351
f 351/351/351 352/352/352 349/349/349
f 353/353/353 354/354/354 355/355/355
f 355/355/355 356/356/356 353/353/353
f 357/357/357 358/358/358 359/359/359
f 359/359/359 360/360/360 357/357/357
f 361/361/361 362/362/362 363/363/363
f 363/363/363 364/364/364 361/361/361
f 365/365/365 366/366/366 367/367/367
f 367/367/367 368/368/368 365/365/365
f 369/369/369 370/370/370 371/371/371
f 371/371/371 372/372/372 369/369/369
f 373/373/373 374/374/374 375/375/375
f 375/375/375 376/376/376 373/373/373
f 377/377/377 378/378/378 379/379/379
f 379/379/379 380/380/380 377/377/377
f 381/381/381 382/382/382 383/383/383
f 383/383/383 384/384/384 381/381/381
f 385/385/385 386/386/386 387/387/387
f 387/387/387 388/388/388 385/385/385
f 389/389/389 390/390/390 391/391/391
f 391/391/391 392/392/392 389/389/389
f 393/393/393 394/394/394 395/395/395
f 395/395/395 396/396/396 393/393/393
f 397/397/397 398/398/398 399/399/399
f 399/399/399 400/400/400 397/397/397
f 401/401/401 402/402/402 403/403/403
f 403/403/403 404/404/404 401/401/401
f 405/405/405 406/406/406 407/407/407
f 407/407/407 408/408/408 405/405/405
f 409/409/409 410/410/410 411/411/411
f 411/411/411 412/412/412 409/409/409
f 413/413/413 414/414/414 415/415/415
f 415/415/415 416/416/416 413/413/413
f 417/417/417 418/418/418 419/419/419
f 419/419/419 420/420/420 417/417/417
f 421/421/421 422/422/422 423/423/423
f 423/423/423 424/424/424 421/421/421
f 425/425/425 426/426/426 427/427/427
f 427/427/427 428/428/428 425/425/425
f 429/429/429 430/430/430 431/431/431
f 431/431/431 432/432/432 429/429/429
f 433/433/433 434/434/434 435/435/435
f 435/435/435 436/436/436 433/433/433
f 437/437/437 438/438/438 439/439/439
f 439/439/439 440/440/440 437/437/437
f 441/441/441 442/442/442 443/443/443
f 443/443/443 444/444/444 441/441/441
f 445/445/445 446/446/446 447/447/447
f 447/447/447 448/448/448 445/445/445
f 449/449/449 450/450/450 451/451/451
f 451/451/451 452/452/452 449/449/449
f 453/453/453 454/454/454 455/455/455
f 455/455/455 456/456/456 453/453/453
f 457/457/457 458/458/458 459/459/459
f 459/459/459 460/460/460 457/457/457
f 461/461/461 462/462/462 463/463/463
f 463/463/463 464/464/464 461/461/461
f 465/465/465 466/466/466 467/467/467
f 467/467/467 468/468/468 465/465/465
f 469/469/469 470/470/470 471/471/471
f 471/471/471 472/472/472 469/469/469
f 473/473/473 474/474/474 475/475/475
f 475/475/475 476/476/476 473/473/473
f 477/477/477 478/478/478 479/479/479
f 479/479/479 480/480/480 477/477/477
f 481/481/481 482/482/482 483/483/483
f 483/483/483 484/484/484 481/481/481
f 485/485/485 486/486/486 487/487/487
f 487/487/487 488/488/488 485/485/485
f 489/489/489 490/490/490 491/491/491
f 491/491/491 492/492/492 489/489/489
f 493/493/493 494/494/494 495/495/495
f 495/495/495 496/496/496 493/493/493
f 497/497/497 498/498/498 499/499/499
f 499/499/499 500/500/500 497/497/497
f 501/501/501 502/502/502 503/503/503
f 503/503/503 504/504/504 501/501/501
f 505/505/505 506/506/506 507/507/507
f 507/507/507 508/508/508 505/505/505
f 509/509/509 510/510/510 511/511/511
f 511/511/511 512/512/512 509/509/509
f 513/513/513 514/514/514 515/515/515
f 515/515/515 516/516/516 513/513/513
f 517/517/517 518/518/518 519/519/519
f 519/519/519 520/520/520 517/517/517
f 521/521/521 522/522/522 523/523/523
f 523/523/523 524/524/524 521/521/521
f 525/525/525 526/526/526 527/527/527
f 527/527/527 528/528/528 525/525/525
f 529/529/529 530/530/530 531/531/531
f 531/531/531 532/532/532 529/529/529
f 533/533/533 534/534/534 535/535/535
f 535/535/535 536/536/536 533/533/533
f 537/537/537 538/538/538 539/539/539
f 538/538/538 540/540/540 539/539/539
f 540/540/540 541/541/541 539/539/539
f 542/542/542 543/543/543 544/544/544
f 544/544/544 543/543/543 545/545/545
f 545/545/545 546/546/546 544/544/544
f 546/546/546 545/545/545 547/547/547
f 546/546/546 547/547/547 548/548/548
f 545/545/545 549/549/549 547/547/547
f 549/549/549 550/550/550 547/547/547
f 550/550/550 551/551/551 547/547/547
f 550/550/550 549/549/549 552/552/552
f 552/552/552 553/553/553 550/550/550
f 554/554/554 555/555/555 556/556/556
f 557/557/557 554/554/554 556/556/556
f 556/556/556 558/558/558 557/557/557
f 558/558/558 559/559/559 557/557/557
f 560/560/560 561/561/561 562/562/562
f 563/563/563 560/560/560 562/562/562
f 562/562/562 564/564/564 563/563/563
f 564/564/564 565/565/565 563/563/563
f 566/566/566 567/567/567 568/568/568
f 569/569/569 568/568/568 567/567/567
f 570/570/570 568/568/568 569/569/569
f 569/569/569 571/571/571 570/570/570
f 572/572/572 573/573/573 574/574/574
f 574/574/574 573/573/573 575/575/575
f 575/575/575 576/576/576 574/574/574
f 575/575/575 577/577/577 576/576/576
f 578/578/578 579/579/579 580/580/580
f 579/579/579 581/581/581 580/580/580
f 580/580/580 581/581/581 582/582/582
f 583/583/583 582/582/582 584/584/584
f 585/585/585 584/584/584 582/582/582
f 581/581/581 586/586/586 582/582/582
f 586/586/586 585/585/585 582/582/582
f 586/586/586 581/581/581 587/587/587
f 588/588/588 585/585/585 586/586/586
f 588/588/588 586/586/586 589/589/589
f 588/588/588 590/590/590 591/591/591
f 588/588/588 591/591/591 592/592/592
f 591/591/591 593/593/593 592/592/592
f 594/594/594 592/592/592 593/593/593
f 595/595/595 596/596/596 597/597/597
f 598/598/598 595/595/595 597/597/597
f 597/597/597 599/599/599 598/598/598
f 600/600/600 598/598/598 599/599/599
f 601/601/601 602/602/602 603/603/603
f 603/603/603 604/604/604 601/601/601
f 605/605/605 601/601/601 604/604/604
f 604/604/604 606/606/606 605/605/605
f 607/607/607 605/605/605 606/606/606
f 606/606/606 608/608/608 607/607/607
f 609/609/609 610/610/610 611/611/611
f 611/611/611 612/612/612 609/609/609
f 613/613/613 609/609/609 612/612/612
f 612/612/612 614/614/614 613/613/613
f 615/615/615 613/613/613 614/614/614
f 613/613/613 615/615/615 616/616/616
f 616/616/616 617/617/617 613/613/613
f 618/618/618 619/619/619 620/620/620
f 621/621/621 619/619/619 618/618/618
f 618/618/618 622/622/622 621/621/621
f 623/623/623 621/621/621 622/622/622
f 624/624/624 625/625/625 626/626/626
f 627/627/627 626/626/626 625/625/625
f 627/627/627 625/625/625 628/628/628
f 628/628/628 629/629/629 627/627/627
f 628/628/628 630/630/630 629/629/629
f 631/631/631 632/632/632 629/629/629
f 632/632/632 633/633/633 629/629/629
f 634/634/634 635/635/635 636/636/636
f 636/636/636 635/635/635 637/637/637
f 635/635/635 638/638/638 637/637/637
f 639/639/639 638/638/638 640/640/640
f 638/638/638 639/639/639 641/641/641
f 638/638/638 641/641/641 637/637/637
f 641/641/641 642/642/642 637/637/637
f 637/637/637 642/642/642 643/643/643
f 641/641/641 644/644/644 642/642/642
f 642/642/642 644/644/644 643/643/643
f 644/644/644 645/645/645 643/643/643
f 645/645/645 644/644/644 646/646/646
f 647/647/647 648/648/648 649/649/649
f 649/649/649 648/648/648 650/650/650
f 648/648/648 651/651/651 650/650/650
f 652/652/652 651/651/651 653/653/653
f 651/651/651 652/652/652 654/654/654
f 651/651/651 654/654/654 650/650/650
f 655/655/655 650/650/650 654/654/654
f 654/654/654 656/656/656 655/655/655
f 657/657/657 658/658/658 659/659/659
f 659/659/659 660/660/660 657/657/657
f 661/661/661 657/657/657 660/660/660
f 660/660/660 662/662/662 661/661/661
f 663/663/663 661/661/661 662/662/662
f 662/662/662 664/664/664 663/663/663
f 663/663/663 664/664/664 665/665/665
f 665/665/665 666/666/666 663/663/663
f 667/667/667 666/666/666 665/665/665
f 665/665/665 668/668/668 667/667/667
f 669/669/669 667/667/667 668/668/668
f 668/668/668 670/670/670 669/669/669
f 671/671/671 672/672/672 673/673/673
f 673/673/673 674/674/674 671/671/671
f 675/675/675 671/671/671 674/674/674
f 674/674/674 676/676/676 675/675/675
f 677/677/677 675/675/675 676/676/676
f 676/676/676 678/678/678 677/677/677
f 679/679/679 677/677/677 678/678/678
f 678/678/678 680/680/680 679/679/679
f 681/681/681 682/682/682 683/683/683
f 682/682/682 684/684/684 683/683/683
f 684/684/684 685/685/685 683/683/683
f 685/685/685 686/686/686 683/683/683
f 687/687/687 688/688/688 689/689/689
f 689/689/689 690/690/690 687/687/687
f 689/689/689 691/691/691 692/692/692
f 692/692/692 693/693/693 689/689/689
f 693/693/693 692/692/692 694/694/694
f 694/694/694 695/695/695 693/693/693
f 695/695/695 694/694/694 696/696/696
f 696/696/696 697/697/697 695/695/695
f 698/698/698 697/697/697 696/696/696
f 696/696/696 699/699/699 698/698/698
f 700/700/700 701/701/701 702/702/702
f 701/701/701 703/703/703 702/702/702
f 703/703/703 704/704/704 702/702/702
f 704/704/704 705/705/705 702/702/702
f 706/706/706 707/707/707 708/708/708
f 708/708/708 709/709/709 706/706/706
f 710/710/710 709/709/709 708/708/708
f 708/708/708 711/711/711 710/710/710
f 710/710/710 711/711/711 712/712/712
f 712/712/712 713/713/713 710/710/710
f 714/714/714 715/715/715 716/716/716
f 716/716/716 717/717/717 714/714/714
f 714/714/714 717/717/717 718/718/718
f 718/718/718 719/719/719 714/714/714
f 719/719/719 718/718/718 720/720/720
f 721/721/721 720/720/720 718/718/718
f 718/718/718 722/722/722 721/721/721
f 723/723/723 724/724/724 725/725/725
f 726/726/726 723/723/723 725/725/725
f 727/727/727 723/723/723 726/726/726
f 728/728/728 726/726/726 725/725/725
f 726/726/726 728/728/728 729/729/729
f 729/729/729 730/730/730 726/726/726
f 731/731/731 732/732/732 733/733/733
f 733/733/733 734/734/734 735/735/735
f 735/735/735 734/734/734 736/736/736
f 735/735/735 737/737/737 733/733/733
f 731/731/731 737/737/737 735/735/735
f 736/736/736 738/738/738 735/735/735
f 735/735/735 738/738/738 731/731/731
f 739/739/739 740/740/740 741/741/741
f 741/741/741 742/742/742 739/739/739
f 743/743/743 740/740/740 739/739/739
f 742/742/742 743/743/743 739/739/739
f 744/744/744 745/745/745 746/746/746
f 746/746/746 745/745/745 747/747/747
f 748/748/748 746/746/746 747/747/747
f 745/745/745 744/744/744 749/749/749
f 747/747/747 745/745/745 749/749/749
f 744/744/744 750/750/750 749/749/749
f 751/751/751 748/748/748 747/747/747
f 748/748/748 751/751/751 752/752/752
f 753/753/753 751/751/751 747/747/747
f 752/752/752 751/751/751 753/753/753
f 749/749/749 753/753/753 747/747/747
f 754/754/754 752/752/752 753/753/753
f 750/750/750 755/755/755 749/749/749
f 756/756/756 755/755/755 750/750/750
f 757/757/757 754/754/754 753/753/753
f 754/754/754 757/757/757 758/758/758
f 755/755/755 756/756/756 759/759/759
f 749/749/749 755/755/755 759/759/759
f 756/756/756 760/760/760 759/759/759
f 758/758/758 757/757/757 761/761/761
f 761/761/761 757/757/757 753/753/753
f 749/749/749 761/761/761 753/753/753
f 749/749/749 759/759/759 761/761/761
f 762/762/762 758/758/758 761/761/761
f 760/760/760 763/763/763 759/759/759
f 759/759/759 763/763/763 761/761/761
f 762/762/762 763/763/763 760/760/760
f 763/763/763 762/762/762 761/761/761
