v 0.6927219 0.9523197 0.6496514999999999
v 0.6927219 1.2268863 0.6918857999999999
v 0.3954591 1.2268863 0.6747029999999998
v 0.3954591 0.9523197 0.6158159999999999
v 0.1041552 1.2268863 0.6918857999999999
v 0.6927219 0.677754 0.6918858
v 0.1041552 0.9523197 0.6496514999999999
v 0.3954591 0.737667 0.6613245000000001
v 0.1041552 0.677754 0.6918858
vt 0.407963 0.404028
vt 0.407963 0.326255
vt 0.449368 0.326255
vt 0.449368 0.404028
vt 0.490281 0.326255
vt 0.407963 0.478553
vt 0.490281 0.404028
vt 0.449368 0.478553
vt 0.490281 0.478553
vn -0.094364 -0.07061799999999994 0.99303
vn -0.057038 -0.15178499999999995 0.986766
vn -0.036795 -0.19039499999999995 0.981018
vn 0.009414 0.02151800000000006 0.999724
vn 0.085887 -0.18034799999999995 0.979846
vn -0.085297 0.17919500000000005 0.980109
vn 0.115377 6.082343039113237E-17 0.993322
vn 0.000599 0.20740000000000006 0.978256
vn 0.087026 0.17917100000000005 0.979961
g 01
f 1/1/1 2/2/2 3/3/3
f 3/3/3 4/4/4 1/1/1
f 4/4/4 3/3/3 5/5/5
f 6/6/6 1/1/1 4/4/4
f 5/5/5 7/7/7 4/4/4
f 4/4/4 8/8/8 6/6/6
f 4/4/4 7/7/7 9/9/9
f 9/9/9 8/8/8 4/4/4
